<svg xmlns="http://www.w3.org/2000/svg" data-name="Layer 3" viewBox="0 0 128 128"><path d="M54.467 49.875H73.53a3.8 3.8 0 0 0 3.489-6.046l-9.529-16.51a3.8 3.8 0 0 0-6.983 0L50.978 43.83a3.8 3.8 0 0 0 3.489 6.046zm-.633-4.4 9.527-16.508c.312-.54.582-.65.637-.65s.324.11.636.649l9.529 16.514c.312.539.274.826.246.874s-.257.224-.88.224H54.467c-.621 0-.85-.177-.877-.224s-.067-.336.244-.876zM81.758 50.275c-2.139 0-3.633 1.724-3.633 4.194v19.063c0 2.47 1.493 4.195 3.632 4.195a4.818 4.818 0 0 0 2.412-.706l16.511-9.529a3.8 3.8 0 0 0 0-6.984l-16.51-9.53a4.827 4.827 0 0 0-2.412-.703zM99.678 64c0 .056-.11.325-.649.637l-16.51 9.528a1.6 1.6 0 0 1-.761.264c-.325 0-.335-.806-.335-.9v-19.06c0-.092.01-.9.336-.9a1.6 1.6 0 0 1 .762.262l16.508 9.529c.539.315.649.585.649.64zM73.53 78.125H54.467a3.8 3.8 0 0 0-3.489 6.046l9.53 16.512a3.8 3.8 0 0 0 6.983 0l9.531-16.51a3.8 3.8 0 0 0-3.492-6.045zm.636 4.4-9.531 16.506c-.311.539-.58.649-.635.649s-.326-.11-.638-.649L53.834 82.52c-.312-.538-.273-.825-.245-.873s.257-.225.879-.225H73.53c.622 0 .853.178.88.225s.066.336-.244.875zM46.241 50.274a4.82 4.82 0 0 0-2.413.706l-16.511 9.529a3.8 3.8 0 0 0 0 6.984l16.51 9.53a4.827 4.827 0 0 0 2.411.7c2.141 0 3.636-1.724 3.636-4.194v-19.06c.001-2.469-1.494-4.195-3.633-4.195zm.337 23.258c0 .092-.01.9-.338.9a1.6 1.6 0 0 1-.763-.263l-16.509-9.532c-.539-.311-.65-.581-.65-.636s.11-.325.649-.637l16.511-9.529a1.6 1.6 0 0 1 .762-.264c.328 0 .337.806.337.9z"/><path d="M64 15.72A48.28 48.28 0 1 0 112.28 64 48.334 48.334 0 0 0 64 15.72zm0 93.263A44.983 44.983 0 1 1 108.982 64 45.033 45.033 0 0 1 64 108.983z"/></svg>