<svg xmlns="http://www.w3.org/2000/svg" data-name="Layer 3" viewBox="0 0 128 128"><path d="M64 43.789A20.212 20.212 0 1 0 84.212 64 20.236 20.236 0 0 0 64 43.789zm0 37.127A16.915 16.915 0 1 1 80.915 64 16.934 16.934 0 0 1 64 80.916z"/><path d="M73.7 59.854a1.631 1.631 0 0 0-1.645.792 3.414 3.414 0 0 1-2.955 1.706 3.454 3.454 0 0 1-3.45-3.449 3.411 3.411 0 0 1 1.7-2.954 1.648 1.648 0 0 0-.414-3.011 11.286 11.286 0 0 0-2.936-.42A11.484 11.484 0 1 0 75.484 64a11.256 11.256 0 0 0-.42-2.937 1.649 1.649 0 0 0-1.364-1.209zM64 72.19a8.188 8.188 0 0 1-.928-16.322 6.747 6.747 0 0 0 9.064 9.06A8.2 8.2 0 0 1 64 72.19z"/><path d="m89.837 40.493 12.6-12.6L102.265 41a1.649 1.649 0 0 0 1.626 1.671h.023a1.648 1.648 0 0 0 1.648-1.626l.232-17.166a1.651 1.651 0 0 0-.483-1.188 2.03 2.03 0 0 0-1.187-.483l-17.169.229a1.649 1.649 0 0 0 .029 3.3l13.006-.055-13.405 13.4A60.718 60.718 0 0 0 64 35.091a60.717 60.717 0 0 0-22.589 3.994L27.886 25.558 41 25.734h.022a1.649 1.649 0 0 0 .021-3.3l-17.169-.229a1.545 1.545 0 0 0-1.188.483 1.651 1.651 0 0 0-.483 1.188l.233 17.166a1.649 1.649 0 0 0 1.649 1.626h.015a1.649 1.649 0 0 0 1.634-1.655l-.056-13 12.48 12.482c-16.967 8.187-21.721 22.815-21.784 23.02a1.655 1.655 0 0 0 0 .972c.063.205 4.817 14.835 21.783 23.025l-12.6 12.6L25.733 87a1.649 1.649 0 0 0-1.626-1.671 1.668 1.668 0 0 0-1.671 1.626l-.236 17.168a1.649 1.649 0 0 0 1.649 1.671h.022l17.17-.232a1.649 1.649 0 0 0-.023-3.3h-.007l-13.005.056 13.4-13.4a60.7 60.7 0 0 0 22.59 4 60.705 60.705 0 0 0 22.589-4l13.517 13.522-13.112-.176a1.649 1.649 0 1 0-.044 3.3l17.169.229h.022a1.649 1.649 0 0 0 1.649-1.671l-.232-17.166a1.691 1.691 0 0 0-1.663-1.626 1.648 1.648 0 0 0-1.634 1.655l.056 13-12.471-12.473c16.968-8.189 21.722-22.82 21.785-23.025a1.655 1.655 0 0 0 0-.972c-.064-.205-4.819-14.835-21.79-23.022zm-3.289 44.979a1.583 1.583 0 0 0-.256.1A57.82 57.82 0 0 1 64 89.62a57.832 57.832 0 0 1-22.275-4.038 1.593 1.593 0 0 0-.29-.117C25.888 78.929 20.676 66.7 19.695 64.011 21.037 60.457 30.737 38.389 64 38.389a57.835 57.835 0 0 1 22.289 4.043 1.576 1.576 0 0 0 .253.1c15.582 6.54 20.795 18.793 21.767 21.468-.973 2.677-6.184 14.93-21.761 21.472z"/></svg>