<svg xmlns="http://www.w3.org/2000/svg" data-name="Layer 3" viewBox="0 0 128 128"><path d="M93.228 34.864a68.484 68.484 0 0 0-3.264-7.96C83.552 13.779 74.088 6.252 64 6.252c-9.2 0-17.787 6.129-24.167 17.26-6.217 10.841-9.639 25.22-9.639 40.488a93.116 93.116 0 0 0 3.412 25.3C19.1 83.817 9.546 74.523 9.546 64c0-9.277 7.5-17.961 20.567-23.824a1.649 1.649 0 1 0-1.349-3.009C14.455 43.588 6.249 53.368 6.249 64c0 12.411 11.491 23.274 28.565 29.153a65.231 65.231 0 0 0 5.017 11.334c6.38 11.13 14.961 17.259 24.165 17.259h.009c10.678 0 20.487-8.269 26.908-22.686a1.649 1.649 0 1 0-3.013-1.339c-5.868 13.175-14.576 20.73-23.9 20.73-7.971 0-15.538-5.541-21.3-15.6a60.02 60.02 0 0 1-3.972-8.46A92.351 92.351 0 0 0 64 97.807c31.844 0 57.751-15.165 57.751-33.806 0-12.401-11.472-23.255-28.523-29.137zM64 94.51a89.189 89.189 0 0 1-26.575-3.894A88.561 88.561 0 0 1 33.492 64c0-14.7 3.267-28.5 9.2-38.847C48.459 15.09 56.025 9.549 64 9.549c8.781 0 17.165 6.853 23 18.8.812 1.665 1.545 3.438 2.236 5.252A92.378 92.378 0 0 0 64 30.2a94.08 94.08 0 0 0-22.738 2.7 1.649 1.649 0 1 0 .8 3.2A90.77 90.77 0 0 1 64 33.494a89.2 89.2 0 0 1 26.556 3.888 79.484 79.484 0 0 1 1.918 7.114A92.158 92.158 0 0 1 94.508 64a91.03 91.03 0 0 1-2.552 21.737 1.649 1.649 0 1 0 3.2.789A94.359 94.359 0 0 0 97.8 64a95.393 95.393 0 0 0-2.1-20.2 83.78 83.78 0 0 0-1.285-5.091c14.495 5.488 24.043 14.779 24.043 25.3C118.453 80.824 94.025 94.51 64 94.51z"/><path d="M73.948 37.446h-19.9a6.076 6.076 0 0 0-6.07 6.069v40.973a6.076 6.076 0 0 0 6.07 6.07h19.9a6.077 6.077 0 0 0 6.071-6.07V43.515a6.077 6.077 0 0 0-6.071-6.069zm-22.67 42.962V47.6h25.444v32.808zm2.772-39.665h19.9a2.776 2.776 0 0 1 2.773 2.772v.785H51.278v-.784a2.775 2.775 0 0 1 2.773-2.773zm19.9 46.517h-19.9a2.776 2.776 0 0 1-2.772-2.772v-.782h9.067a1.648 1.648 0 0 0 .633 3.169h6.044a1.648 1.648 0 0 0 .633-3.169h9.065v.782a2.776 2.776 0 0 1-2.772 2.772z"/><path d="M59.989 64.982h-2.638V60.2a1.547 1.547 0 0 0-.039-.194 1.9 1.9 0 0 0 .349-1.052 1.957 1.957 0 1 0-3.914 0A1.9 1.9 0 0 0 54.094 60a1.556 1.556 0 0 0-.04.2v6.429A1.649 1.649 0 0 0 55.7 68.28h2.638v4.878a1.649 1.649 0 0 0 3.3 0v-6.527a1.649 1.649 0 0 0-1.649-1.649zM74.253 58.956a1.957 1.957 0 0 0-3.914 0 1.908 1.908 0 0 0 .382 1.1 1.58 1.58 0 0 0-.074.367V65.2h-2.636a1.649 1.649 0 0 0-1.649 1.649v6.528a1.649 1.649 0 0 0 3.3 0V68.5H72.3a1.649 1.649 0 0 0 1.649-1.649v-6.43a1.587 1.587 0 0 0-.074-.365 1.908 1.908 0 0 0 .378-1.1zM64 52.544a1.959 1.959 0 0 0-1.957 1.956 1.9 1.9 0 0 0 .348 1.05 1.542 1.542 0 0 0-.04.2v20.41a1.649 1.649 0 0 0 3.3 0V55.751a1.542 1.542 0 0 0-.04-.2 1.9 1.9 0 0 0 .349-1.05A1.959 1.959 0 0 0 64 52.544z"/></svg>