<svg id="Layer_3" data-name="Layer 3" xmlns="http://www.w3.org/2000/svg" viewBox="0 0 128 128"><title>Artboard 112</title><path d="M97.883,34.91H30.12c-14.046,0-25.472,12.045-25.472,26.849v4.482c0,14.8,11.426,26.849,25.472,26.849H97.883c14.044,0,25.469-12.044,25.469-26.849V61.759C123.352,46.955,111.927,34.91,97.883,34.91Zm22.172,31.331c0,12.986-9.947,23.551-22.172,23.551H30.12c-12.226,0-22.175-10.565-22.175-23.551V61.759c0-12.986,9.948-23.551,22.175-23.551H97.883c12.225,0,22.172,10.565,22.172,23.551Z"/><circle cx="32.981" cy="55.464" r="4.135"/><circle cx="32.981" cy="74.55" r="4.135"/><circle cx="42.523" cy="65.007" r="4.135"/><circle cx="23.438" cy="65.007" r="4.135"/><path d="M95.048,50.952a15.3,15.3,0,1,0,15.3,15.3A15.317,15.317,0,0,0,95.048,50.952ZM96.7,78.122V70.865a1.649,1.649,0,1,0-3.3,0v7.257A12.008,12.008,0,0,1,83.172,67.9H90.43a1.649,1.649,0,1,0,0-3.3H83.172A12.01,12.01,0,0,1,93.4,54.376v7.257a1.649,1.649,0,1,0,3.3,0V54.377A12.008,12.008,0,0,1,106.92,64.6H99.664a1.649,1.649,0,1,0,0,3.3h7.257A12.006,12.006,0,0,1,96.7,78.122Z"/><path d="M77.271,43.118H50.729a1.649,1.649,0,1,0,0,3.3H77.271a1.649,1.649,0,1,0,0-3.3Z"/></svg>