<svg id="Layer_3" data-name="Layer 3" xmlns="http://www.w3.org/2000/svg" viewBox="0 0 128 128"><title>Artboard 101</title><path d="M54.467,49.875H73.53a3.8,3.8,0,0,0,3.489-6.046L67.49,27.319a3.8,3.8,0,0,0-6.983,0L50.978,43.83a3.8,3.8,0,0,0,3.489,6.046Zm-.633-4.4,9.527-16.508c.312-.54.582-.65.637-.65s.324.11.636.649L74.163,45.48c.312.539.274.826.246.874s-.257.224-.88.224H54.467c-.621,0-.85-.177-.877-.224S53.523,46.018,53.834,45.478Z"/><path d="M81.758,50.275c-2.139,0-3.633,1.724-3.633,4.194V73.532c0,2.47,1.493,4.195,3.632,4.195a4.818,4.818,0,0,0,2.412-.706l16.511-9.529a3.8,3.8,0,0,0,0-6.984l-16.51-9.53A4.827,4.827,0,0,0,81.758,50.275ZM99.678,64c0,.056-.11.325-.649.637L82.519,74.165a1.6,1.6,0,0,1-.761.264c-.325,0-.335-.806-.335-.9V54.469c0-.092.01-.9.336-.9a1.6,1.6,0,0,1,.762.262l16.508,9.529C99.568,63.675,99.678,63.945,99.678,64Z"/><path d="M73.53,78.125H54.467a3.8,3.8,0,0,0-3.489,6.046l9.53,16.512a3.8,3.8,0,0,0,6.983,0l9.531-16.51a3.8,3.8,0,0,0-3.492-6.045Zm.636,4.4L64.635,99.031c-.311.539-.58.649-.635.649s-.326-.11-.638-.649L53.834,82.52c-.312-.538-.273-.825-.245-.873s.257-.225.879-.225H73.53c.622,0,.853.178.88.225S74.476,81.983,74.166,82.522Z"/><path d="M46.241,50.274a4.82,4.82,0,0,0-2.413.706L27.317,60.509a3.8,3.8,0,0,0,0,6.984l16.51,9.53a4.827,4.827,0,0,0,2.411.7c2.141,0,3.636-1.724,3.636-4.194V54.469C49.875,52,48.38,50.274,46.241,50.274Zm.337,23.258c0,.092-.01.9-.338.9a1.6,1.6,0,0,1-.763-.263L28.968,64.637c-.539-.311-.65-.581-.65-.636s.11-.325.649-.637l16.511-9.529a1.6,1.6,0,0,1,.762-.264c.328,0,.337.806.337.9Z"/><path d="M64,15.72A48.28,48.28,0,1,0,112.28,64,48.334,48.334,0,0,0,64,15.72Zm0,93.263A44.983,44.983,0,1,1,108.982,64,45.033,45.033,0,0,1,64,108.983Z"/></svg>