<svg id="Layer_3" data-name="Layer 3" xmlns="http://www.w3.org/2000/svg" viewBox="0 0 128 128"><title>Artboard 105</title><path d="M21.491,59.622c-.03.584-.674,14.379,4.937,20.286a8.439,8.439,0,0,0,6.327,2.745h3.984v4.122l.032.323a39.559,39.559,0,0,0,6.918,14.588h-.07v11.119h3.3v-7.6A24.379,24.379,0,0,0,64,111.779a24.389,24.389,0,0,0,17.082-6.56v6.486h3.3v-10.1A39.536,39.536,0,0,0,91.229,87.1l.023-4.444h3.992a8.439,8.439,0,0,0,6.327-2.745c5.611-5.907,4.968-19.7,4.94-20.2A18.185,18.185,0,0,0,96.365,43.3c.085-.949.839-11.505-6.409-19.5-5.172-5.709-13.046-8.6-23.4-8.6s-18.232,2.895-23.4,8.6c-5.844,6.45-6.481,14.559-6.465,17.964A17.942,17.942,0,0,0,21.491,59.622ZM87.963,86.6a34.581,34.581,0,0,1-6.876,13.982h0v.006A21.624,21.624,0,0,1,64,108.482c-18.682,0-23.5-19.765-23.964-21.879V82.654H57.759a1.649,1.649,0,0,0,1.006-.343L64,78.276l5.234,4.035a1.648,1.648,0,0,0,1.006.343H87.963ZM45.592,26.012c4.52-4.991,11.572-7.521,20.96-7.521,9.372,0,16.416,2.521,20.938,7.495,5.29,5.818,5.667,13.491,5.626,16.131a17.023,17.023,0,0,0-4.2-.544H39.984C40,38.554,40.621,31.5,45.592,26.012ZM39.083,44.87H88.915c7.883,0,14.3,6.656,14.3,14.923.185,3.587-.18,13.785-4.035,17.846a5.188,5.188,0,0,1-3.936,1.718H70.8l-5.8-4.468a1.648,1.648,0,0,0-2.013,0l-5.8,4.468H32.754a5.187,5.187,0,0,1-3.933-1.716c-3.851-4.049-4.22-14.257-4.036-17.932C24.786,51.526,31.2,44.87,39.083,44.87Z"/><path d="M39.063,69.326H88.935a7.213,7.213,0,1,0,0-14.426H39.063a7.213,7.213,0,0,0,0,14.426Zm0-11.128H88.935a3.916,3.916,0,0,1,0,7.831H39.063a3.916,3.916,0,1,1,0-7.831Z"/><path d="M58.126,51.98H69.873a1.649,1.649,0,1,0,0-3.3H58.126a1.649,1.649,0,1,0,0,3.3Z"/><circle cx="38.387" cy="74.546" r="2.473"/><circle cx="46.356" cy="74.546" r="2.473"/></svg>