<svg id="Layer_3" data-name="Layer 3" xmlns="http://www.w3.org/2000/svg" viewBox="0 0 128 128"><title>Artboard 97</title><path d="M93.227,34.863A68.551,68.551,0,0,0,89.966,26.9C83.552,13.778,74.087,6.25,64,6.25c-18.639,0-33.8,25.906-33.8,57.748a93.122,93.122,0,0,0,3.412,25.3C19.1,83.817,9.547,74.523,9.547,64c0-9.278,7.5-17.962,20.566-23.824a1.649,1.649,0,1,0-1.349-3.009C14.456,43.587,6.25,53.367,6.25,64c0,12.41,11.491,23.273,28.564,29.153a65.241,65.241,0,0,0,5.017,11.335C46.21,115.621,54.793,121.75,64,121.75H64c10.682,0,20.49-8.269,26.91-22.688A1.649,1.649,0,0,0,87.9,97.721C82.035,110.9,73.325,118.453,64,118.453h0c-7.974,0-15.542-5.54-21.309-15.6a60.019,60.019,0,0,1-3.971-8.461A92.35,92.35,0,0,0,64,97.807c31.843,0,57.75-15.165,57.75-33.806C121.75,51.6,110.278,40.745,93.227,34.863ZM64,94.51a89.187,89.187,0,0,1-26.576-3.895A88.57,88.57,0,0,1,33.492,64C33.492,33.974,47.177,9.547,64,9.547c8.78,0,17.165,6.854,23,18.8.81,1.659,1.542,3.434,2.234,5.251A92.378,92.378,0,0,0,64,30.2a94.059,94.059,0,0,0-22.738,2.7,1.649,1.649,0,1,0,.8,3.2A90.76,90.76,0,0,1,64,33.493a89.2,89.2,0,0,1,26.555,3.888c.728,2.294,1.387,4.665,1.918,7.116A92.164,92.164,0,0,1,94.508,64a91.1,91.1,0,0,1-2.552,21.738,1.649,1.649,0,1,0,3.2.789A94.434,94.434,0,0,0,97.806,64,95.442,95.442,0,0,0,95.7,43.8c-.376-1.733-.814-3.428-1.286-5.094C108.9,44.193,118.453,53.484,118.453,64,118.453,80.824,94.025,94.51,64,94.51Z"/><path d="M47.48,66.891v-.053c2.2-.77,3.267-2.25,3.267-4.146,0-2.442-2.114-4.446-5.928-4.446A11.184,11.184,0,0,0,39.3,59.591l.851,3.018a8.156,8.156,0,0,1,3.733-1.07c1.758,0,2.637.8,2.637,1.866,0,1.513-1.786,2.032-3.186,2.06H41.716v2.993h1.7c1.839,0,3.6.8,3.6,2.552,0,1.345-1.1,2.388-3.268,2.388A9.85,9.85,0,0,1,39.6,72.3l-.852,3.129a10.556,10.556,0,0,0,5.3,1.264c4.529,0,7.3-2.307,7.3-5.464A4.436,4.436,0,0,0,47.48,66.891Z"/><path d="M61.92,64.422a5.022,5.022,0,0,0-3.788,1.427h-.085c.468-2.086,2.114-3.98,5.82-4.283a11.493,11.493,0,0,1,1.619-.054V58.3a11.444,11.444,0,0,0-1.674.03A9.908,9.908,0,0,0,53.766,68.9c0,4.255,2.334,7.8,7.082,7.8a6.391,6.391,0,0,0,6.589-6.451C67.438,66.536,64.913,64.422,61.92,64.422Zm-1.126,9.2c-1.893,0-2.8-1.7-2.882-3.6a2.414,2.414,0,0,1,.164-1.044,2.723,2.723,0,0,1,2.471-1.592c1.785,0,2.664,1.426,2.664,3.074C63.21,72.274,62.277,73.619,60.794,73.619Z"/><path d="M75.864,58.246c-4.61,0-6.808,4.089-6.808,9.25.026,5.052,2.058,9.2,6.67,9.2,4.557,0,6.781-3.789,6.781-9.307C82.506,62.5,80.64,58.246,75.864,58.246Zm-.027,15.292c-1.621,0-2.609-1.95-2.581-6.042-.028-4.146,1.015-6.093,2.553-6.093,1.674,0,2.525,2.083,2.525,6.038C78.334,71.5,77.457,73.538,75.837,73.538Z"/><path d="M86.609,47.7a6.042,6.042,0,1,0,6.042,6.042A6.049,6.049,0,0,0,86.609,47.7Zm0,8.788a2.745,2.745,0,1,1,2.745-2.746A2.748,2.748,0,0,1,86.609,56.488Z"/></svg>