<svg id="Layer_3" data-name="Layer 3" xmlns="http://www.w3.org/2000/svg" viewBox="0 0 128 128"><title>Artboard 104</title><path d="M62.351,68.463v4.2l-12.78-7.374a4.318,4.318,0,0,0-2.17-.633c-1.962,0-3.332,1.566-3.332,3.808V84.634c0,2.244,1.372,3.81,3.334,3.81a4.315,4.315,0,0,0,2.167-.631l12.782-7.382v4.2c0,2.244,1.372,3.81,3.334,3.81a4.315,4.315,0,0,0,2.167-.631l14-8.088a3.472,3.472,0,0,0,0-6.356l-14-8.081a4.319,4.319,0,0,0-2.17-.633C63.722,64.655,62.351,66.221,62.351,68.463Zm-.425,8.407-14.007,8.09a1.357,1.357,0,0,1-.475.185,1.319,1.319,0,0,1-.079-.51V68.463a2.32,2.32,0,0,1,.059-.51,1.3,1.3,0,0,1,.5.189l14,8.082a3.361,3.361,0,0,1,.417.3A1.209,1.209,0,0,1,61.926,76.87Zm3.722-8.407a2.323,2.323,0,0,1,.059-.51,1.3,1.3,0,0,1,.5.189l14,8.082a3.4,3.4,0,0,1,.417.3,1.213,1.213,0,0,1-.415.343L66.2,84.959a1.354,1.354,0,0,1-.475.185,1.314,1.314,0,0,1-.079-.51Z"/><path d="M111.9,84.715a1.645,1.645,0,0,0,.456-1.137V47.872c0-.169-.214-16.915-18.686-16.915a1.648,1.648,0,0,0-1.649,1.649V47.872a1.649,1.649,0,0,0,3.3,0V34.309c11.823.8,13.473,10.187,13.7,12.871C106.569,49.265,94.418,58.038,64,58.038c-30.244,0-42.547-8.794-45.025-10.865.233-2.7,1.893-12.065,13.7-12.864V47.872a1.649,1.649,0,0,0,3.3,0V32.606a1.648,1.648,0,0,0-1.649-1.649c-18.47,0-18.684,16.746-18.684,16.915V83.578a1.645,1.645,0,0,0,.456,1.137c.48.5,12.164,12.327,47.9,12.327S111.425,85.219,111.9,84.715Zm-2.842-1.868c-2.422,2.037-14.716,10.9-45.063,10.9-30.365,0-42.655-8.871-45.063-10.9V51.271C24.226,54.837,37.5,61.335,64,61.335s39.774-6.5,45.063-10.065Z"/></svg>