<svg id="Layer_3" data-name="Layer 3" xmlns="http://www.w3.org/2000/svg" viewBox="0 0 128 128"><title>Artboard 103</title><path d="M121.017,37.423H6.983A6.213,6.213,0,0,0,5.84,49.744v14.98a25.738,25.738,0,0,0,.815,6.326,1.643,1.643,0,0,0,.1.4,25.836,25.836,0,0,0,50.786-6.724V60.786H67.581v3.938a25.854,25.854,0,0,0,51.708,0V49.859h1.729a6.218,6.218,0,0,0,0-12.437ZM39.672,56.315a6.4,6.4,0,0,1,0,12.795H33.335V56.315ZM30.038,69.11H9.572a22.569,22.569,0,0,1-.435-4.387v-.362H23.373a1.649,1.649,0,0,0,0-3.3H9.137V56.315h20.9Zm24.208-4.387a22.539,22.539,0,0,1-43.733,7.684H39.672a9.695,9.695,0,0,0,0-19.39H9.137V49.859h45.11Zm3.3-7.235V49.859H67.581v7.629Zm58.447,7.235a22.556,22.556,0,1,1-45.113,0V49.859h45.113Zm5.026-18.162H6.983a2.921,2.921,0,0,1,0-5.842H121.017a2.921,2.921,0,0,1,0,5.842Z"/></svg>