<svg id="Layer_3" data-name="Layer 3" xmlns="http://www.w3.org/2000/svg" viewBox="0 0 128 128"><title>Artboard 100</title><path d="M34.815,93.155a65.25,65.25,0,0,0,5.017,11.334C46.212,115.619,54.8,121.748,64,121.748h.011c10.678,0,20.484-8.269,26.9-22.686A1.648,1.648,0,1,0,87.9,97.721c-5.867,13.175-14.575,20.73-23.894,20.73H64c-7.973,0-15.54-5.541-21.307-15.6a60.039,60.039,0,0,1-3.972-8.46A92.368,92.368,0,0,0,64,97.807c31.843,0,57.748-15.165,57.748-33.806,0-12.4-11.474-23.257-28.526-29.14A66.827,66.827,0,0,0,89.963,26.9C83.554,13.779,74.09,6.252,64,6.252,45.359,6.252,30.194,32.157,30.194,64A93.1,93.1,0,0,0,33.607,89.3C19.1,83.817,9.546,74.523,9.546,64c0-9.276,7.5-17.96,20.57-23.824a1.649,1.649,0,0,0-1.349-3.009C14.456,43.588,6.248,53.369,6.248,64,6.248,76.412,17.74,87.275,34.815,93.155ZM33.492,64C33.492,33.975,47.177,9.549,64,9.549c8.781,0,17.164,6.853,23,18.8.817,1.667,1.549,3.439,2.237,5.249A92.377,92.377,0,0,0,64,30.2a94.045,94.045,0,0,0-22.738,2.7,1.649,1.649,0,1,0,.8,3.2A90.743,90.743,0,0,1,64,33.494a89.2,89.2,0,0,1,26.551,3.887c.731,2.3,1.391,4.676,1.921,7.115A92.294,92.294,0,0,1,94.508,64a90.892,90.892,0,0,1-2.552,21.737,1.648,1.648,0,1,0,3.2.789A94.14,94.14,0,0,0,97.806,64,95.591,95.591,0,0,0,95.7,43.8c-.375-1.727-.815-3.422-1.289-5.091,14.5,5.487,24.045,14.779,24.045,25.3C118.454,80.824,94.027,94.51,64,94.51a89.2,89.2,0,0,1-26.578-3.894A88.551,88.551,0,0,1,33.492,64Z"/><path d="M85.325,86.4a1.648,1.648,0,0,0,1.649-1.649V44.611a1.648,1.648,0,0,0-1.649-1.649H42.68a1.648,1.648,0,0,0-1.649,1.649V84.756A1.648,1.648,0,0,0,42.68,86.4Zm-34.39-20.73H44.329V63.693h6.606Zm0-5.279H44.329V58.413h6.606Zm-6.606,8.576h6.606v1.98H44.329Zm6.606-13.856H44.329v-1.98h6.606ZM44.329,74.25h6.606v1.98H44.329Zm9.9-27.99H73.771V83.107H54.232ZM77.069,63.693h6.607v1.982H77.069Zm0,5.279h6.607v1.98H77.069ZM83.676,60.4H77.069V58.413h6.607ZM77.069,74.25h6.607v1.98H77.069Zm6.607-19.134H77.069v-1.98h6.607ZM77.069,83.107v-3.58h6.607v3.58Zm6.607-33.269H77.069V46.259h6.607ZM50.935,46.259v3.579H44.329V46.259ZM44.329,79.527h6.606v3.58H44.329Z"/><path d="M70.506,61.993l-10.08-5.816a3.56,3.56,0,0,0-1.793-.518,2.939,2.939,0,0,0-2.861,3.2V70.5a2.94,2.94,0,0,0,2.863,3.2,3.559,3.559,0,0,0,1.79-.516l10.082-5.822a2.958,2.958,0,0,0,0-5.375ZM59.068,70.165V59.2l9.5,5.48Z"/></svg>