<svg id="Layer_3" data-name="Layer 3" xmlns="http://www.w3.org/2000/svg" viewBox="0 0 128 128"><title>Artboard 111</title><path d="M28.686,57.254a1.648,1.648,0,0,0,1.649-1.649v-12.5H42.065a1.649,1.649,0,1,0,0-3.3H28.686a1.648,1.648,0,0,0-1.649,1.649V55.605A1.648,1.648,0,0,0,28.686,57.254Z"/><path d="M97.1,77.194a1.648,1.648,0,0,0-1.649,1.649v12.5H83.726a1.649,1.649,0,0,0,0,3.3H97.1A1.648,1.648,0,0,0,98.751,93V78.843A1.648,1.648,0,0,0,97.1,77.194Z"/><path d="M98.822,41.458a1.648,1.648,0,0,0-1.649-1.649H83.027a1.649,1.649,0,1,0,0,3.3h12.5V54.836a1.649,1.649,0,0,0,3.3,0Z"/><path d="M28.734,94.644H42.883a1.649,1.649,0,0,0,0-3.3h-12.5V79.616a1.649,1.649,0,1,0-3.3,0V93A1.648,1.648,0,0,0,28.734,94.644Z"/><path d="M99.763,30.159a1.648,1.648,0,0,0-.01,2.331A50.376,50.376,0,1,1,64,17.6a50.8,50.8,0,0,1,8.247.692l-7.339,4.556a1.649,1.649,0,1,0,1.739,2.8L77.518,18.9c.027-.017.04-.044.066-.062a2.572,2.572,0,0,0,.435-.439c.014-.021.034-.034.047-.056a1.63,1.63,0,0,0,.152-.387c.01-.033.029-.061.037-.094a1.642,1.642,0,0,0,.022-.578,3.126,3.126,0,0,0-.194-.567c-.015-.028-.015-.06-.033-.088s-.058-.053-.081-.086a1.563,1.563,0,0,0-.1-.158l-8.72-9.507a1.649,1.649,0,1,0-2.431,2.228L72.026,14.9a53.676,53.676,0,1,0,45.646,53.074,53.34,53.34,0,0,0-15.577-37.81A1.646,1.646,0,0,0,99.763,30.159Z"/><circle cx="66.099" cy="60.318" r="4.436"/><path d="M33.725,48.533V86.983c0,.03.016.055.017.085a1.894,1.894,0,0,0,.541,1.132c.022.02.032.047.055.066a1.523,1.523,0,0,0,.192.1,1.219,1.219,0,0,0,.641.225,1.563,1.563,0,0,0,.2.041h55.04a1.648,1.648,0,0,0,1.649-1.649V48.533a1.648,1.648,0,0,0-1.649-1.649H35.374A1.648,1.648,0,0,0,33.725,48.533Zm39.509,36.8-7.426-9.208,7.228-6.079L86.723,85.334Zm-4.236,0H38.822l15.09-18.708ZM88.765,50.181V82.672L74.428,66.657a1.649,1.649,0,0,0-2.289-.162l-8.4,7.064L55.195,62.965a1.649,1.649,0,0,0-2.566,0L37.022,82.313V50.181Z"/></svg>