<svg id="Layer_3" data-name="Layer 3" xmlns="http://www.w3.org/2000/svg" viewBox="0 0 128 128"><title>Artboard 106</title><path d="M31.6,79.542,29.062,84.8a1.629,1.629,0,0,0-.135.424c0,.025,0,.049-.005.074a1.634,1.634,0,0,0,.012.5c.007.043.012.084.023.127a1.63,1.63,0,0,0,.192.471c.011.018.028.031.04.048s.007.021.014.03l6.228,8.76c-.194,2.022-.476,8.023,2.505,11.468a7.318,7.318,0,0,0,5.8,2.516c10.333,0,27.821-4.427,27.821-21.02a1.649,1.649,0,1,0-3.3,0c0,17.522-23.522,17.723-24.524,17.723a4.108,4.108,0,0,1-3.306-1.377c-2.134-2.467-1.92-7.706-1.657-9.515a1.647,1.647,0,0,0-.288-1.192l-4.743-6.67h4.09a1.649,1.649,0,1,0,0-3.3H33.172l1.743-3.611a1.616,1.616,0,0,0,.151-.715h2.766c9.193,0,16.89-2.455,22.259-7.1a21.678,21.678,0,0,0,5.969-8.29h5.387a14.213,14.213,0,0,0,22.355,0h11.226c-.956,4.7-5.481,10.564-7.353,12.634a1.647,1.647,0,0,0-.427,1.106v27a1.649,1.649,0,1,0,3.3,0V78.513c1.579-1.838,6.917-8.433,7.823-14.36h3.443A1.648,1.648,0,0,0,113.46,62.5V48.215a1.648,1.648,0,0,0-1.649-1.649h-3.664a37.893,37.893,0,0,0-17.566-22.26A39.471,39.471,0,0,0,83.7,21.252a45.713,45.713,0,0,0-7.986-1.872c-24.5-3.518-36.173,9.548-38.724,12.9h-20.8a1.648,1.648,0,0,0-1.649,1.649V77.893a1.648,1.648,0,0,0,1.649,1.649ZM17.837,35.575h5.5V76.245h-5.5ZM73.831,22.47V44.193a14.255,14.255,0,0,0-2.384,2.373H65.183c-3.733-7.332-11.8-13.233-23.973-14.157C45.2,28.208,55.379,20.268,73.831,22.47ZM88.12,26.756V42.267a13.907,13.907,0,0,0-10.992,0V23a41.569,41.569,0,0,1,5.524,1.38A36.269,36.269,0,0,1,88.12,26.756Zm16.565,19.811H93.8a14.248,14.248,0,0,0-2.384-2.373V28.718A35.353,35.353,0,0,1,104.685,46.567ZM67.109,60.856a20.921,20.921,0,0,0,.484-4.482,21.4,21.4,0,0,0-1.029-6.509h5.713a1.651,1.651,0,0,0,1.356-.71,10.919,10.919,0,0,1,17.981,0,1.65,1.65,0,0,0,1.356.71h17.193V60.856H92.971a1.649,1.649,0,0,0-1.356.71,10.919,10.919,0,0,1-17.982,0,1.65,1.65,0,0,0-1.356-.71ZM37.831,76.245H26.63V35.575h11.2c17.375,0,26.465,10.464,26.465,20.8a17.782,17.782,0,0,1-6.364,13.576C53.172,74.068,46.22,76.245,37.831,76.245Z"/><path d="M75.525,55.361a7.1,7.1,0,1,0,7.1-7.1A7.107,7.107,0,0,0,75.525,55.361Zm3.3,0a3.8,3.8,0,1,1,3.8,3.8A3.807,3.807,0,0,1,78.822,55.361Z"/></svg>