<svg id="Layer_3" data-name="Layer 3" xmlns="http://www.w3.org/2000/svg" viewBox="0 0 128 128"><title>Artboard 110</title><path d="M99.569,30.331a1.65,1.65,0,0,0-.009,2.331A50.1,50.1,0,1,1,64,17.855a50.543,50.543,0,0,1,8.179.686L64.9,23.057a1.649,1.649,0,1,0,1.739,2.8l10.813-6.711c.028-.017.043-.046.069-.065a2.6,2.6,0,0,0,.432-.436c.014-.021.034-.034.046-.055a1.627,1.627,0,0,0,.15-.382c.01-.034.031-.064.039-.1a1.639,1.639,0,0,0,.022-.577,3.151,3.151,0,0,0-.194-.566c-.016-.029-.016-.061-.033-.089s-.059-.055-.083-.088a1.6,1.6,0,0,0-.1-.157L69.124,7.176A1.648,1.648,0,1,0,66.694,9.4l5.269,5.744A53.4,53.4,0,1,0,117.4,67.959a53.075,53.075,0,0,0-15.5-37.618A1.649,1.649,0,0,0,99.569,30.331Z"/><path d="M99.765,51.8a6,6,0,0,0-10.187-4.315L71.586,37.1a6.014,6.014,0,1,0-11.632,0L41.962,47.489a6,6,0,1,0-5.824,10.067V78.362a6,6,0,1,0,5.823,10.069L59.954,98.818a6.014,6.014,0,1,0,11.632,0L89.579,88.431A6,6,0,1,0,95.4,78.36v-20.8A5.992,5.992,0,0,0,99.765,51.8ZM87.741,84.117a5.955,5.955,0,0,0,.2,1.454L69.947,95.958a5.987,5.987,0,0,0-2.527-1.442v-20.8a5.9,5.9,0,0,0,4.166-7.206L89.58,56.118A5.986,5.986,0,0,0,92.1,57.556v20.8A5.994,5.994,0,0,0,87.741,84.117Zm.2-30.86L69.948,63.646A5.987,5.987,0,0,0,67.42,62.2V41.4a5.988,5.988,0,0,0,2.526-1.44L87.939,50.35a5.453,5.453,0,0,0,0,2.907ZM64.122,41.4V62.2a5.991,5.991,0,0,0-2.529,1.442L43.6,53.256a5.457,5.457,0,0,0,0-2.905L61.595,39.962A5.993,5.993,0,0,0,64.122,41.4ZM41.96,56.117,59.953,66.506a5.452,5.452,0,0,0,0,2.909L41.962,79.8a5.984,5.984,0,0,0-2.526-1.441V57.556A5.985,5.985,0,0,0,41.96,56.117ZM43.6,82.665l18-10.39a5.993,5.993,0,0,0,2.526,1.438v20.8a5.991,5.991,0,0,0-2.528,1.441L43.6,85.57a5.459,5.459,0,0,0,0-2.905Z"/></svg>