<svg id="Layer_3" data-name="Layer 3" xmlns="http://www.w3.org/2000/svg" viewBox="0 0 128 128"><title>Artboard 99</title><path d="M86.674,64A22.674,22.674,0,1,0,64,86.673,22.7,22.7,0,0,0,86.674,64ZM44.623,64A19.377,19.377,0,1,1,64,83.375,19.4,19.4,0,0,1,44.623,64Z"/><path d="M76.79,64a12.575,12.575,0,0,0-.47-3.272,1.648,1.648,0,0,0-3.012-.418,4.084,4.084,0,0,1-3.532,2.041,4.11,4.11,0,0,1-2.086-7.66,1.649,1.649,0,0,0-.423-3.012A12.661,12.661,0,0,0,64,51.212,12.789,12.789,0,1,0,76.79,64ZM54.51,64a9.5,9.5,0,0,1,8.828-9.467,7.334,7.334,0,0,0-.987,3.694,7.431,7.431,0,0,0,7.424,7.422,7.331,7.331,0,0,0,3.695-.988A9.491,9.491,0,0,1,54.51,64Z"/><path d="M34.839,93.162C40.717,110.248,51.584,121.75,64,121.75c10.682,0,20.492-8.27,26.913-22.689A1.648,1.648,0,1,0,87.9,97.72C82.034,110.9,73.322,118.453,64,118.453c-10.525,0-19.821-9.562-25.307-24.073A92.343,92.343,0,0,0,64,97.806c31.845,0,57.752-15.165,57.752-33.8,0-12.4-11.47-23.254-28.518-29.137A69.922,69.922,0,0,0,89.968,26.9C83.549,13.778,74.084,6.25,64,6.25,45.359,6.25,30.194,32.156,30.194,64a92.344,92.344,0,0,0,3.427,25.31C19.108,83.822,9.546,74.526,9.546,64c0-9.275,7.5-17.959,20.565-23.825a1.648,1.648,0,1,0-1.349-3.008C14.455,43.59,6.248,53.37,6.248,64,6.248,76.417,17.751,87.285,34.839,93.162ZM33.492,64C33.492,33.974,47.177,9.547,64,9.547c8.776,0,17.161,6.854,23.006,18.8.8,1.644,1.536,3.422,2.235,5.252A92.377,92.377,0,0,0,64,30.2a94.048,94.048,0,0,0-22.738,2.7,1.649,1.649,0,1,0,.8,3.2A90.75,90.75,0,0,1,64,33.493a89.2,89.2,0,0,1,26.56,3.889c.728,2.3,1.386,4.673,1.916,7.115A92.044,92.044,0,0,1,94.508,64a91,91,0,0,1-2.55,21.737,1.648,1.648,0,1,0,3.2.789A94.261,94.261,0,0,0,97.806,64,95.362,95.362,0,0,0,95.7,43.8c-.375-1.728-.813-3.423-1.286-5.092,14.494,5.487,24.041,14.779,24.041,25.3,0,16.822-24.427,30.507-54.454,30.507a89.179,89.179,0,0,1-26.6-3.9A89.178,89.178,0,0,1,33.492,64Z"/></svg>