<svg id="Layer_1" data-name="Layer 1" xmlns="http://www.w3.org/2000/svg" viewBox="0 0 128 128"><title>Artboard 3</title><path d="M62.254,76.752a1.818,1.818,0,0,1,3.492,1.012c-.016.056-6.016,19.416,19.5,31.854a1.823,1.823,0,0,1-1.6,3.278C55.344,99.1,62.235,76.817,62.254,76.752Z" style="fill:#45b549"/><path d="M57.095,20.318a7.115,7.115,0,0,1,13.81,0,7.116,7.116,0,0,1,11.961,6.906,7.115,7.115,0,0,1,6.9,11.96,7.115,7.115,0,0,1,0,13.81,7.116,7.116,0,0,1-6.905,11.96,7.115,7.115,0,0,1-11.961,6.9,7.115,7.115,0,0,1-13.81,0,7.116,7.116,0,0,1-11.961-6.905,7.115,7.115,0,0,1-6.9-11.96,7.115,7.115,0,0,1,0-13.81,7.116,7.116,0,0,1,6.905-11.96,7.115,7.115,0,0,1,11.961-6.905Z" style="fill:#ef8630;fill-rule:evenodd"/><circle cx="64" cy="46.089" r="12.468" style="fill:#fc0"/><ellipse cx="51.372" cy="86.711" rx="7.184" ry="12.886" transform="translate(-47.035 108.479) rotate(-71.828)" style="fill:#45b549"/><ellipse cx="78.913" cy="93.931" rx="11.543" ry="6.436" transform="translate(-25.358 29.295) rotate(-18.172)" style="fill:#45b549"/></svg>