<svg id="Layer_1" data-name="Layer 1" xmlns="http://www.w3.org/2000/svg" viewBox="0 0 128 128"><title>Artboard 16</title><circle cx="64" cy="75.807" r="37.27" style="fill:#ef8630"/><path d="M64,38.537c.612,0,1.22.016,1.825.045v74.451c-.6.029-1.213.045-1.825.045s-1.22-.016-1.825-.045V38.582C62.78,38.553,63.388,38.537,64,38.537Z" style="fill:#1b1b1b;fill-rule:evenodd"/><path d="M64,24.184a14.326,14.326,0,0,1,5,.9,1.822,1.822,0,0,1,.175-.313L75.5,15.7a1.817,1.817,0,1,1,2.979,2.081l-6.27,8.986a14.366,14.366,0,0,1,5.874,14.528,37.364,37.364,0,0,0-28.175,0,14.365,14.365,0,0,1,5.874-14.528l-6.27-8.986A1.817,1.817,0,0,1,52.5,15.7l6.327,9.069A1.813,1.813,0,0,1,59,25.08,14.325,14.325,0,0,1,64,24.184Z" style="fill:#1b1b1b;fill-rule:evenodd"/><circle cx="45.514" cy="74.703" r="5.796" style="fill:#1b1b1b"/><circle cx="78.084" cy="92.368" r="5.796" style="fill:#1b1b1b"/><circle cx="83.88" cy="60.351" r="4.968" style="fill:#1b1b1b"/><circle cx="51.31" cy="56.21" r="4.416" style="fill:#1b1b1b"/><circle cx="50.206" cy="103.685" r="4.416" style="fill:#1b1b1b"/></svg>