<svg id="Layer_1" data-name="Layer 1" xmlns="http://www.w3.org/2000/svg" viewBox="0 0 128 128"><title>Artboard 13</title><path d="M91.635,43.933a20.535,20.535,0,0,1,0,41.07H31.89a16.059,16.059,0,1,1,0-32.118q.55,0,1.09.038a24.983,24.983,0,0,1,49.494-6.835A20.447,20.447,0,0,1,91.635,43.933Z" style="fill:#51aaed;fill-rule:evenodd"/><path d="M69.711,88.477l5.142,7.344A1.817,1.817,0,0,1,71.874,97.9l-6.6-9.425Zm-12.161,0,8.321,11.883a1.817,1.817,0,1,1-2.979,2.081L53.113,88.477Zm-12.162,0,5.142,7.344A1.817,1.817,0,1,1,47.551,97.9l-6.6-9.425Zm36.485,0,8.321,11.883a1.817,1.817,0,1,1-2.979,2.081L84.036,97.9h0l-6.6-9.425Z" style="fill:#51aaed"/></svg>