<svg id="Layer_1" data-name="Layer 1" xmlns="http://www.w3.org/2000/svg" viewBox="0 0 128 128"><title>Artboard 5</title><path d="M64,105.269c-61.717,0-24.6-82.538,0-82.538S125.717,105.269,64,105.269Z" style="fill:#51aaed;fill-rule:evenodd"/><path d="M44.658,61.589l6.717-6.625h0a1.818,1.818,0,0,1,2.949.59l3.683,8.683,8.381,4.343h0a1.82,1.82,0,0,1,.357,2.993l-7.123,6.188-1.539,9.309h0a1.82,1.82,0,0,1-2.729,1.269l-8.088-4.863-9.341,1.414v0a1.822,1.822,0,0,1-2.045-2.207l2.128-9.206-4.15-8.285a1.825,1.825,0,0,1,1.392-2.781ZM97.4,81.039c-.954,7.028-3.929,13.254-9.626,17.636l-1.357-.862-8.244,1.04A1.818,1.818,0,0,1,76.2,96.539l2.058-8L74.715,81.01a1.819,1.819,0,0,1,1.54-2.584v0l8.295-.518,6.062-5.691a1.821,1.821,0,0,1,2.94.657h0l3.059,7.737ZM81.5,33.7c.558.663,1.111,1.343,1.654,2.05a1.812,1.812,0,0,1-.26.731l-2.738,5.466,1.418,6.134a1.822,1.822,0,0,1-2.045,2.207v0L73.3,49.353,67.916,52.59a1.82,1.82,0,0,1-2.729-1.269h0l-1.025-6.2L59.419,41a1.82,1.82,0,0,1,.357-2.992h0l5.581-2.892,2.452-5.78a1.818,1.818,0,0,1,2.949-.59h0l4.472,4.411Z" style="fill:#ef8630;fill-rule:evenodd"/></svg>