<svg xmlns="http://www.w3.org/2000/svg" data-name="Layer 1" viewBox="0 0 128 128"><path fill="#fc0" fill-rule="evenodd" d="M63.215 31.658a36.948 36.948 0 00-35.64 46.693 13.111 13.111 0 017.808-4.726A28.281 28.281 0 0184.257 49.71a9.064 9.064 0 017.043-5.117 36.949 36.949 0 00-28.085-12.935z"/><path fill="#51aaed" fill-rule="evenodd" d="M55.625 83.449a10.78 10.78 0 010 21.56H24.261a8.431 8.431 0 110-16.861q.288 0 .572.02a13.115 13.115 0 0125.983-3.588 10.733 10.733 0 014.809-1.131zM104.726 51.462a7.443 7.443 0 010 14.887H83.07a5.821 5.821 0 110-11.642c.133 0 .264 0 .395.014a9.173 9.173 0 01-.072-1.145 9.055 9.055 0 0118.012-1.332 7.414 7.414 0 013.321-.782z"/><path fill="#ef8630" fill-rule="evenodd" d="M26.267 68.606A36.948 36.948 0 0191.3 44.593a9.063 9.063 0 0110.11 7.65 7.467 7.467 0 014.1-.741 45.615 45.615 0 10-83.382 36.919 8.432 8.432 0 012.133-.272l.572.02a13.216 13.216 0 01-.1-1.659 13.057 13.057 0 012.846-8.158 36.934 36.934 0 01-1.312-9.746z"/><path fill="#45b549" fill-rule="evenodd" d="M63.215 40.325a28.28 28.28 0 00-27.832 33.3 13.207 13.207 0 012.46-.23 13.049 13.049 0 016.742 1.864 19.781 19.781 0 0134.276-18.752 5.8 5.8 0 014.209-1.8l.395.014a9.173 9.173 0 01-.072-1.145 9.024 9.024 0 01.864-3.865 28.28 28.28 0 00-21.042-9.386z"/></svg>