<svg xmlns="http://www.w3.org/2000/svg" data-name="Layer 1" viewBox="0 0 128 128"><circle cx="64" cy="75.807" r="37.27" fill="#ef8630"/><path fill="#1b1b1b" fill-rule="evenodd" d="M64 38.537c.612 0 1.22.016 1.825.045v74.451a37.936 37.936 0 01-3.65 0V38.582A38.096 38.096 0 0164 38.537z"/><path fill="#1b1b1b" fill-rule="evenodd" d="M64 24.184a14.326 14.326 0 015 .9 1.822 1.822 0 01.175-.313L75.5 15.7a1.817 1.817 0 112.979 2.081l-6.27 8.986a14.366 14.366 0 015.874 14.528 37.364 37.364 0 00-28.175 0 14.365 14.365 0 015.874-14.528l-6.27-8.986A1.817 1.817 0 0152.5 15.7l6.327 9.069a1.813 1.813 0 01.173.311 14.325 14.325 0 015-.896z"/><circle cx="45.514" cy="74.703" r="5.796" fill="#1b1b1b"/><circle cx="78.084" cy="92.368" r="5.796" fill="#1b1b1b"/><circle cx="83.88" cy="60.351" r="4.968" fill="#1b1b1b"/><circle cx="51.31" cy="56.21" r="4.416" fill="#1b1b1b"/><circle cx="50.206" cy="103.685" r="4.416" fill="#1b1b1b"/></svg>