<svg id="Layer_1" data-name="Layer 1" xmlns="http://www.w3.org/2000/svg" viewBox="0 0 128 128"><title>Artboard 9</title><path d="M62.175,42.577a1.825,1.825,0,0,1,3.649,0V64a1.825,1.825,0,1,1-3.649,0Z" style="fill:#45b549"/><path d="M82.36,52.13a1.825,1.825,0,0,1,3.649,0V64a1.825,1.825,0,1,1-3.649,0Z" style="fill:#45b549"/><path d="M41.991,52.13a1.825,1.825,0,0,1,3.649,0V64a1.825,1.825,0,1,1-3.649,0Z" style="fill:#45b549"/><path d="M37.23,74.112H90.77V94.239a17.983,17.983,0,0,1-17.93,17.93H55.16a17.983,17.983,0,0,1-17.93-17.93Z" style="fill:#d86227;fill-rule:evenodd"/><path d="M37.23,64H90.77a5.055,5.055,0,0,1,5.055,5.055v0a5.056,5.056,0,0,1-5.056,5.056H37.23a5.056,5.056,0,0,1-5.056-5.056v0A5.055,5.055,0,0,1,37.23,64Z" style="fill:#f48120"/><path d="M50.842,20.7c2.733-1.687,7.952,1.812,11.657,7.815S66.99,40.75,64.257,42.437c-1.7,1.049-4.36.093-7.02-2.223,1.858-4.574,1.865-8.647-.264-9.961C55.5,29.341,53.3,29.943,51,31.635,48.732,26.675,48.562,22.105,50.842,20.7Z" style="fill:#ef8630;fill-rule:evenodd"/><path d="M77.158,20.7c-2.733-1.687-7.952,1.812-11.657,7.815A27.547,27.547,0,0,0,64,31.285c2.362,5.043,2.57,9.724.257,11.151a2.7,2.7,0,0,1-.257.14c1.7.812,4.233-.161,6.763-2.363-1.858-4.574-1.866-8.647.263-9.961C72.5,29.341,74.7,29.943,77,31.635,79.268,26.675,79.438,22.105,77.158,20.7Z" style="fill:#ef4c23;fill-rule:evenodd"/><path d="M65.676,40.316a4.682,4.682,0,0,1-.22.655A4.682,4.682,0,0,0,65.676,40.316Zm.067-.288c-.019.094-.041.187-.064.278C65.7,40.216,65.724,40.123,65.743,40.028Zm.132-1.1a7.165,7.165,0,0,1-.131,1.09A7.159,7.159,0,0,0,65.876,38.929ZM69.36,23.639c-.882-4.588-2.95-7.808-5.36-7.808s-4.478,3.22-5.36,7.808A25.522,25.522,0,0,1,62.5,28.513,27.523,27.523,0,0,1,64,31.285a27.547,27.547,0,0,1,1.5-2.772A25.522,25.522,0,0,1,69.36,23.639Z" style="fill:#ce2526;fill-rule:evenodd"/><ellipse cx="77.734" cy="41.121" rx="5.816" ry="12.772" transform="translate(-10.013 46.953) rotate(-31.681)" style="fill:#ef8630"/><path d="M97.343,30.252c-2.733-1.687-7.952,1.812-11.657,7.815a27.508,27.508,0,0,0-1.5,2.772c2.362,5.043,2.57,9.724.257,11.151a2.7,2.7,0,0,1-.257.14c2.793,1.331,7.808-2.135,11.4-7.955C99.289,38.173,100.076,31.939,97.343,30.252Z" style="fill:#ef4c23;fill-rule:evenodd"/><path d="M85.861,49.87a4.683,4.683,0,0,1-.22.655A4.683,4.683,0,0,0,85.861,49.87Zm.067-.288q-.029.142-.064.278Q85.9,49.724,85.928,49.582Zm.132-1.1a7.15,7.15,0,0,1-.131,1.09A7.144,7.144,0,0,0,86.06,48.483Zm3.484-15.29c-.882-4.588-2.95-7.809-5.36-7.809s-4.478,3.22-5.36,7.809a25.517,25.517,0,0,1,3.859,4.874,27.575,27.575,0,0,1,1.5,2.772,27.508,27.508,0,0,1,1.5-2.772A25.517,25.517,0,0,1,89.545,33.193Z" style="fill:#ce2526;fill-rule:evenodd"/><ellipse cx="37.365" cy="41.121" rx="5.816" ry="12.772" transform="translate(-16.029 25.751) rotate(-31.681)" style="fill:#ef8630"/><path d="M56.974,30.252c-2.733-1.687-7.952,1.812-11.657,7.815a27.533,27.533,0,0,0-1.5,2.772c2.362,5.043,2.57,9.724.257,11.151a2.7,2.7,0,0,1-.257.14c2.793,1.331,7.808-2.135,11.4-7.955C58.92,38.173,59.707,31.939,56.974,30.252Z" style="fill:#ef4c23;fill-rule:evenodd"/><path d="M45.492,49.87a4.7,4.7,0,0,1-.22.655A4.7,4.7,0,0,0,45.492,49.87Zm.067-.288q-.029.142-.064.278Q45.53,49.724,45.559,49.582Zm.132-1.1a7.164,7.164,0,0,1-.131,1.09A7.158,7.158,0,0,0,45.691,48.483Zm3.484-15.29c-.882-4.588-2.95-7.809-5.36-7.809s-4.478,3.22-5.36,7.809a25.516,25.516,0,0,1,3.859,4.874,27.549,27.549,0,0,1,1.5,2.772,27.533,27.533,0,0,1,1.5-2.772A25.517,25.517,0,0,1,49.175,33.193Z" style="fill:#ce2526;fill-rule:evenodd"/></svg>