<svg id="Layer_1" data-name="Layer 1" xmlns="http://www.w3.org/2000/svg" viewBox="0 0 128 128"><title>Artboard 10</title><path d="M90.913,56.46V89.207a3.112,3.112,0,0,1-3.1,3.1H40.19a3.112,3.112,0,0,1-3.1-3.1V56.46a5.74,5.74,0,0,0,.957-.771L64,29.733,89.956,55.689A5.739,5.739,0,0,0,90.913,56.46Z" style="fill:#d86227;fill-rule:evenodd"/><path d="M98.107,47.538,68.075,17.507a5.78,5.78,0,0,0-8.15,0L29.894,47.538a5.763,5.763,0,0,0,8.15,8.15L64,29.733,89.956,55.689a5.763,5.763,0,1,0,8.151-8.15Z" style="fill:#f48120;fill-rule:evenodd"/><path d="M63.853,64.713h.295A10.375,10.375,0,0,1,74.491,75.057V92.31H53.509V75.057A10.375,10.375,0,0,1,63.853,64.713Z" style="fill:#f48120;fill-rule:evenodd"/><path d="M68.686,94.135v16.66a1.383,1.383,0,0,1-1.379,1.379H60.693a1.383,1.383,0,0,1-1.379-1.379V94.135H26.471a1.825,1.825,0,1,1,0-3.649h75.057a1.825,1.825,0,1,1,0,3.649Z" style="fill:#f48120;fill-rule:evenodd"/></svg>