<svg xmlns="http://www.w3.org/2000/svg" data-name="Layer 1" viewBox="0 0 128 128"><path fill="#009549" fill-rule="evenodd" d="M108.88 55.539a11.045 11.045 0 0 0-7.824-3.252h-6.694l-.522-6.821c0-.038-.006-.076-.011-.113H48.873c0 .038-.008.076-.011.113l-.67 8.763-25.625-14.781a4.443 4.443 0 0 0-5.987 1.146 4.443 4.443 0 0 0 1.146 5.987L47 69.742l-1.73 22.6c-.355 4.647 3.815 8.474 8.474 8.474h35.211c4.658 0 8.829-3.829 8.474-8.474l-.14-1.831h3.768a11.1 11.1 0 0 0 11.077-11.077V63.363a11.046 11.046 0 0 0-3.254-7.824zm-.4 23.9a7.453 7.453 0 0 1-7.428 7.427h-4.043l-2.367-30.93h6.414a7.453 7.453 0 0 1 7.428 7.427z"/><path fill="#45b549" fill-rule="evenodd" d="M65.757 36.572h11.188v-.146a5.579 5.579 0 0 0-1.638-3.957 5.6 5.6 0 0 0-9.553 3.964zm-16.828 0h13.179v-.146a9.24 9.24 0 0 1 15.778-6.533 9.216 9.216 0 0 1 2.714 6.533v.146h13.173a4.4 4.4 0 0 1 4.39 4.39 4.4 4.4 0 0 1-4.39 4.39H48.93a4.4 4.4 0 0 1-4.39-4.39 4.4 4.4 0 0 1 4.39-4.39z"/></svg>