<svg xmlns="http://www.w3.org/2000/svg" data-name="Layer 1" viewBox="0 0 128 128"><path fill="#45b549" fill-rule="evenodd" d="M64 14.918a18.86 18.86 0 0 1 18.805 17.438 18.86 18.86 0 1 1 3.276 37.434h-15.2v-8.427L84.615 44.74a3.271 3.271 0 0 0-.437-4.59l-.269-.222a3.27 3.27 0 0 0-4.59.437l-8.437 10.213v-4.749a5.838 5.838 0 0 0-5.822-5.822h-.622a5.838 5.838 0 0 0-5.822 5.822v8.626l-11.434-13.84a3.27 3.27 0 0 0-4.59-.437l-.269.222a3.27 3.27 0 0 0-.437 4.59l16.73 20.25v4.55h-16.7a18.859 18.859 0 1 1 3.275-37.434A18.861 18.861 0 0 1 64 14.918z"/><path fill="#d86227" fill-rule="evenodd" d="M64.438 40.008h.622a5.838 5.838 0 0 1 5.822 5.822v4.749l8.438-10.214a3.27 3.27 0 0 1 4.59-.437l.269.222a3.271 3.271 0 0 1 .437 4.59L70.882 61.363v48.07h24.364a1.825 1.825 0 1 1 0 3.649H32.753a1.825 1.825 0 1 1 0-3.649h25.863V65.24l-16.73-20.25a3.27 3.27 0 0 1 .437-4.59l.269-.222a3.27 3.27 0 0 1 4.59.437l11.434 13.84v-8.626a5.838 5.838 0 0 1 5.822-5.821z"/></svg>