<svg id="Layer_1" data-name="Layer 1" xmlns="http://www.w3.org/2000/svg" viewBox="0 0 128 128"><title>Artboard 12</title><path d="M29.051,35.286a1.818,1.818,0,0,1-.784-3.549,15.39,15.39,0,0,1,9.51,1.4,15.377,15.377,0,0,1,1.937-9.41,1.819,1.819,0,1,1,3.079,1.938,11.571,11.571,0,0,0,.825,12.643,1.817,1.817,0,0,1-2.979,2.081A11.563,11.563,0,0,0,29.051,35.286Z" style="fill:#1b1b1b"/><path d="M81.165,88.326l12.266,21.061a1.647,1.647,0,0,1-.388,2.2l-.441.309a1.641,1.641,0,0,1-2.2-.389L74.8,92.78c-9.275,3.057-22.4-3.372-31.206-15.952C33.6,62.557,32.947,45.776,42.129,39.346s24.726-.072,34.719,14.2C85.657,66.126,87.21,80.655,81.165,88.326Z" style="fill:#1b1b1b;fill-rule:evenodd"/><path d="M84.662,78.986a30.205,30.205,0,0,0-.582-9.219A30.9,30.9,0,0,0,56.366,89.172a30.2,30.2,0,0,0,8.464,3.7A30.953,30.953,0,0,1,84.662,78.986Z" style="fill:#fc0;fill-rule:evenodd"/><path d="M61.331,66.77A30.83,30.83,0,0,1,81.26,61.259a48.008,48.008,0,0,0-4.412-7.713q-.271-.387-.547-.765A30.911,30.911,0,0,0,43.065,76.052q.262.389.532.775a48,48,0,0,0,5.739,6.785A30.826,30.826,0,0,1,61.331,66.77Z" style="fill:#fc0;fill-rule:evenodd"/><path d="M49.33,49.63A30.806,30.806,0,0,1,68.08,44.059c-8.922-7.235-19.171-9.46-25.951-4.712s-8.2,15.139-4.448,26A30.807,30.807,0,0,1,49.33,49.63Z" style="fill:#fc0;fill-rule:evenodd"/><path d="M55.685,37.519s34.308-6.86,47.989,12.68S97.743,84.349,84.08,69.766h0a44.669,44.669,0,0,0-7.232-16.22C70.918,45.078,63.034,39.4,55.685,37.519ZM35.775,51.46s-18.18,29.893-4.5,49.432S65.4,107,56.366,89.172h0A44.675,44.675,0,0,1,43.6,76.828c-5.929-8.468-8.571-17.82-7.822-25.368Z" style="fill:#e1efda;fill-rule:evenodd"/><circle cx="24.184" cy="33.046" r="4.498" transform="translate(-14.581 19.85) rotate(-35.002)" style="fill:#ef8630"/><circle cx="42.346" cy="20.329" r="4.499" transform="translate(-4.002 27.965) rotate(-35)" style="fill:#ef8630"/></svg>