<svg id="Layer_1" data-name="Layer 1" xmlns="http://www.w3.org/2000/svg" viewBox="0 0 128 128"><title>Artboard 8</title><path d="M51.3,49.624l10.4-6.308c5.563-3.372,13.642-1.973,16.247,3.983l21.2,48.5c5.813,13.3-9.539,22.614-18.644,11.3L47.316,65.871C43.236,60.8,45.736,53,51.3,49.624Z" style="fill:#f48120;fill-rule:evenodd"/><path d="M61.58,69.915A1.816,1.816,0,0,1,59.7,66.807l14.72-8.923A1.816,1.816,0,1,1,76.3,60.992Zm-13.1-2.6-1.16-1.441a9.046,9.046,0,0,1-.99-1.519l14.647-9a1.824,1.824,0,0,1,1.91,3.107ZM69.994,94.042l-2.109-2.62a1.806,1.806,0,0,1,.649-.68l8.151-4.957a1.82,1.82,0,0,1,1.9,3.107l-8.151,4.957A1.831,1.831,0,0,1,69.994,94.042Zm26.5-4.312,1.453,3.324L87.387,99.414a1.822,1.822,0,0,1-1.881-3.122L96.118,89.9A1.838,1.838,0,0,1,96.5,89.729ZM84.36,61.962l1.472,3.368L72.954,73.091a1.822,1.822,0,0,1-1.881-3.122Z" style="fill:#c96528;fill-rule:evenodd"/><ellipse cx="41.309" cy="40.792" rx="6.16" ry="14.602" transform="translate(-11.966 63.863) rotate(-68.055)" style="fill:#45b549"/><ellipse cx="58.494" cy="30.375" rx="14.602" ry="6.16" transform="translate(22.55 85.622) rotate(-84.394)" style="fill:#45b549"/></svg>