<svg xmlns="http://www.w3.org/2000/svg" data-name="Layer 1" viewBox="0 0 128 128"><path fill="#d86227" fill-rule="evenodd" d="M90.913 56.46v32.747a3.112 3.112 0 01-3.1 3.1H40.19a3.112 3.112 0 01-3.1-3.1V56.46a5.74 5.74 0 00.957-.771L64 29.733l25.956 25.956a5.739 5.739 0 00.957.771z"/><path fill="#f48120" fill-rule="evenodd" d="M98.107 47.538L68.075 17.507a5.78 5.78 0 00-8.15 0L29.894 47.538a5.763 5.763 0 008.15 8.15L64 29.733l25.956 25.956a5.763 5.763 0 108.151-8.15zM63.853 64.713h.295a10.375 10.375 0 0110.343 10.344V92.31H53.509V75.057a10.375 10.375 0 0110.344-10.344z"/><path fill="#f48120" fill-rule="evenodd" d="M68.686 94.135v16.66a1.383 1.383 0 01-1.379 1.379h-6.614a1.383 1.383 0 01-1.379-1.379v-16.66H26.471a1.825 1.825 0 110-3.649h75.057a1.825 1.825 0 110 3.649z"/></svg>