<svg id="Layer_1" data-name="Layer 1" xmlns="http://www.w3.org/2000/svg" viewBox="0 0 128 128"><title>Artboard 2</title><path d="M81.249,68.043a17.968,17.968,0,1,1,0,35.935H28.973a14.052,14.052,0,0,1,0-28.1c.321,0,.639.012.954.033a21.86,21.86,0,0,1,43.307-5.981A17.893,17.893,0,0,1,81.249,68.043Z" style="fill:#51aaed;fill-rule:evenodd"/><path d="M70.216,32.945a1.818,1.818,0,1,1-3.521.912L64.713,26.3a1.818,1.818,0,1,1,3.52-.912ZM56.77,39.519a1.824,1.824,0,1,1-2.594,2.566l-5.5-5.557a1.824,1.824,0,1,1,2.594-2.566ZM103.141,70.7A1.817,1.817,0,1,1,104.1,67.2l7.538,2.065a1.817,1.817,0,0,1-.955,3.507Zm1.015-14.936a1.818,1.818,0,0,1-.912-3.521l7.56-1.982a1.818,1.818,0,0,1,.912,3.521ZM97.582,42.323a1.824,1.824,0,1,1-2.566-2.594l5.557-5.5a1.824,1.824,0,0,1,2.566,2.594ZM85.152,33.96A1.817,1.817,0,0,1,81.645,33l2.065-7.538a1.817,1.817,0,1,1,3.507.955Zm-2.035,8.983a19.065,19.065,0,0,1,8.654,28.5,17.979,17.979,0,0,0-18.538-1.519A21.887,21.887,0,0,0,58.851,52.513,19.049,19.049,0,0,1,83.117,42.943Z" style="fill:#fc0;fill-rule:evenodd"/></svg>