<svg xmlns="http://www.w3.org/2000/svg" data-name="Layer 1" viewBox="0 0 128 128"><path fill="#45b549" fill-rule="evenodd" d="M64.328 36.026c28.282-3.113 37.474-20.992 37.5-21.043a1.82 1.82 0 013.365.363c9.4 31.876 4.268 53.856-6.518 66.9a40.589 40.589 0 01-15.586 11.64 38.837 38.837 0 01-17.7 2.968c-11.589-.815-22.17-7.03-27.079-18.091a30.14 30.14 0 01-2.407-8.93 30.7 30.7 0 013.465-17.9 29.7 29.7 0 0114.265-13.086 35.941 35.941 0 0110.695-2.821z"/><path fill="#009549" d="M101.629 15.674a1.817 1.817 0 113.621.314c-.008.087-1.587 20.991-22 42.157a1.827 1.827 0 01-.19.2A106.085 106.085 0 0167.352 71.6l12.261 2.285a1.819 1.819 0 01-.656 3.578l-15.963-2.975C48.412 83.7 23.677 92.226 21.52 112.362a1.82 1.82 0 01-3.62-.385c2.582-24.1 27.093-30.314 43.636-40.864a1.833 1.833 0 01.231-.147 105.1 105.1 0 0018.2-14.618l-1.418-14.31a1.819 1.819 0 113.62-.357l1.1 11.14c17.008-19.143 18.353-37.069 18.36-37.147z"/></svg>