<svg xmlns="http://www.w3.org/2000/svg" data-name="Layer 1" viewBox="0 0 128 128"><path fill="#f48120" fill-rule="evenodd" d="m51.3 49.624 10.4-6.308c5.563-3.372 13.642-1.973 16.247 3.983l21.2 48.5c5.813 13.3-9.539 22.614-18.644 11.3L47.316 65.871C43.236 60.8 45.736 53 51.3 49.624z"/><path fill="#c96528" fill-rule="evenodd" d="M61.58 69.915a1.816 1.816 0 0 1-1.88-3.108l14.72-8.923a1.816 1.816 0 1 1 1.88 3.108zm-13.1-2.6-1.16-1.441a9.046 9.046 0 0 1-.99-1.519l14.647-9a1.824 1.824 0 0 1 1.91 3.107zm21.514 26.727-2.109-2.62a1.806 1.806 0 0 1 .649-.68l8.151-4.957a1.82 1.82 0 0 1 1.9 3.107l-8.151 4.957a1.831 1.831 0 0 1-.44.193zm26.5-4.312 1.453 3.324-10.56 6.36a1.822 1.822 0 0 1-1.881-3.122L96.118 89.9a1.838 1.838 0 0 1 .382-.171zM84.36 61.962l1.472 3.368-12.878 7.761a1.822 1.822 0 0 1-1.881-3.122z"/><ellipse cx="41.309" cy="40.792" fill="#45b549" rx="6.16" ry="14.602" transform="rotate(-68.055 41.308 40.792)"/><ellipse cx="58.494" cy="30.375" fill="#45b549" rx="14.602" ry="6.16" transform="rotate(-84.394 58.494 30.375)"/></svg>