<svg xmlns="http://www.w3.org/2000/svg" data-name="Layer 1" viewBox="0 0 128 128"><path fill="#51aaed" fill-rule="evenodd" d="M81.249 68.043a17.968 17.968 0 1 1 0 35.935H28.973a14.052 14.052 0 0 1 0-28.1c.321 0 .639.012.954.033a21.86 21.86 0 0 1 43.307-5.981 17.893 17.893 0 0 1 8.015-1.887z"/><path fill="#fc0" fill-rule="evenodd" d="M70.216 32.945a1.818 1.818 0 1 1-3.521.912L64.713 26.3a1.818 1.818 0 1 1 3.52-.912zM56.77 39.519a1.824 1.824 0 1 1-2.594 2.566l-5.5-5.557a1.824 1.824 0 1 1 2.594-2.566zM103.141 70.7a1.817 1.817 0 1 1 .959-3.5l7.538 2.065a1.817 1.817 0 0 1-.955 3.507zm1.015-14.936a1.818 1.818 0 0 1-.912-3.521l7.56-1.982a1.818 1.818 0 0 1 .912 3.521zm-6.574-13.441a1.824 1.824 0 1 1-2.566-2.594l5.557-5.5a1.824 1.824 0 0 1 2.566 2.594zm-12.43-8.363a1.817 1.817 0 0 1-3.507-.96l2.065-7.538a1.817 1.817 0 1 1 3.507.955zm-2.035 8.983a19.065 19.065 0 0 1 8.654 28.5 17.979 17.979 0 0 0-18.538-1.519 21.887 21.887 0 0 0-14.382-17.411 19.049 19.049 0 0 1 24.266-9.57z"/></svg>