<svg id="Layer_1" data-name="Layer 1" xmlns="http://www.w3.org/2000/svg" viewBox="0 0 128 128"><title>Artboard 1</title><path d="M46.622,30.259a1.82,1.82,0,1,1-3.15,1.825L38.34,23.2a1.82,1.82,0,1,1,3.15-1.825ZM32.084,43.472a1.82,1.82,0,0,1-1.825,3.15L21.372,41.49A1.82,1.82,0,0,1,23.2,38.34Zm-5.991,18.7a1.825,1.825,0,0,1,0,3.649H15.831a1.825,1.825,0,0,1,0-3.649Zm4.167,19.2a1.82,1.82,0,1,1,1.825,3.15L23.2,89.66a1.82,1.82,0,1,1-1.825-3.15ZM43.472,95.916a1.82,1.82,0,0,1,3.15,1.825l-5.131,8.888a1.82,1.82,0,1,1-3.15-1.825Zm18.7,5.991a1.825,1.825,0,0,1,3.649,0v10.262a1.825,1.825,0,0,1-3.649,0Zm19.2-4.167a1.82,1.82,0,0,1,3.15-1.825L89.66,104.8a1.82,1.82,0,1,1-3.15,1.825ZM95.916,84.528a1.82,1.82,0,1,1,1.825-3.15l8.888,5.131a1.82,1.82,0,1,1-1.825,3.15Zm5.991-18.7a1.825,1.825,0,0,1,0-3.649h10.262a1.825,1.825,0,0,1,0,3.649Zm-4.167-19.2a1.82,1.82,0,1,1-1.825-3.15L104.8,38.34a1.82,1.82,0,0,1,1.825,3.15ZM84.528,32.084a1.82,1.82,0,1,1-3.15-1.825l5.131-8.888A1.82,1.82,0,1,1,89.66,23.2Zm-18.7-5.991a1.825,1.825,0,1,1-3.649,0V15.83a1.825,1.825,0,0,1,3.649,0ZM64,38.986A25.014,25.014,0,1,1,38.986,64,25.013,25.013,0,0,1,64,38.986Z" style="fill:#fc0;fill-rule:evenodd"/></svg>