<svg xmlns="http://www.w3.org/2000/svg" data-name="Layer 1" viewBox="0 0 128 128"><path fill="#51aaed" fill-rule="evenodd" d="M91.635 43.933a20.535 20.535 0 0 1 0 41.07H31.89a16.059 16.059 0 1 1 0-32.118q.55 0 1.09.038a24.983 24.983 0 0 1 49.494-6.835 20.447 20.447 0 0 1 9.161-2.155z"/><path fill="#51aaed" d="m69.711 88.477 5.142 7.344a1.817 1.817 0 0 1-2.979 2.079l-6.6-9.425zm-12.161 0 8.321 11.883a1.817 1.817 0 1 1-2.979 2.081l-9.779-13.964zm-12.162 0 5.142 7.344a1.817 1.817 0 1 1-2.979 2.079l-6.6-9.425zm36.485 0 8.321 11.883a1.817 1.817 0 1 1-2.979 2.081L84.036 97.9l-6.6-9.425z"/></svg>