<svg id="Layer_1" data-name="Layer 1" xmlns="http://www.w3.org/2000/svg" viewBox="0 0 128 128"><title>Artboard 11</title><path d="M64,15.831a6.5,6.5,0,0,1,6.368,7.764,42.823,42.823,0,0,0-12.736,0A6.5,6.5,0,0,1,64,15.831Z" style="fill:#f48120;fill-rule:evenodd"/><path d="M60.169,103.256V52.7a3.183,3.183,0,0,1,6.367,0v50.56a2.547,2.547,0,1,0,5.094,0,3.183,3.183,0,0,1,6.367,0,8.873,8.873,0,0,1-2.611,6.291l-.012.012a8.908,8.908,0,0,1-15.2-6.3Z" style="fill:#f48120"/><path d="M21.708,67.318h-.083A1.825,1.825,0,0,1,19.8,65.494a44.2,44.2,0,0,1,88.4,0,1.825,1.825,0,0,1-1.825,1.825h-.083a1.825,1.825,0,0,1-1.825-1.825,12.273,12.273,0,1,0-24.545,0,1.825,1.825,0,1,1-3.649,0,12.272,12.272,0,1,0-24.544,0,1.825,1.825,0,1,1-3.649,0,12.273,12.273,0,1,0-24.545,0A1.825,1.825,0,0,1,21.708,67.318Z" style="fill:#45b549;fill-rule:evenodd"/></svg>