<svg id="Layer_1" data-name="Layer 1" xmlns="http://www.w3.org/2000/svg" viewBox="0 0 128 128"><title>Artboard 15</title><path d="M64.328,36.026c28.282-3.113,37.474-20.992,37.5-21.043a1.82,1.82,0,0,1,3.365.363c9.4,31.876,4.268,53.856-6.518,66.9A40.589,40.589,0,0,1,83.089,93.886a38.837,38.837,0,0,1-17.7,2.968C53.8,96.039,43.219,89.824,38.31,78.763a30.14,30.14,0,0,1-2.407-8.93,30.7,30.7,0,0,1,3.465-17.9A29.7,29.7,0,0,1,53.633,38.847,35.941,35.941,0,0,1,64.328,36.026Z" style="fill:#45b549;fill-rule:evenodd"/><path d="M101.629,15.674a1.817,1.817,0,1,1,3.621.314c-.008.087-1.587,20.991-22,42.157a1.827,1.827,0,0,1-.19.2A106.085,106.085,0,0,1,67.352,71.6l12.261,2.285a1.819,1.819,0,0,1-.656,3.578L62.994,74.488C48.412,83.7,23.677,92.226,21.52,112.362a1.82,1.82,0,0,1-3.62-.385c2.582-24.1,27.093-30.314,43.636-40.864a1.833,1.833,0,0,1,.231-.147,105.1,105.1,0,0,0,18.2-14.618l-1.418-14.31a1.819,1.819,0,1,1,3.62-.357l1.1,11.14C100.277,33.678,101.622,15.752,101.629,15.674Z" style="fill:#009549"/></svg>