<svg id="Layer_1" data-name="Layer 1" xmlns="http://www.w3.org/2000/svg" viewBox="0 0 128 128"><title>TOILET</title><path d="M104.244,93.583H82V70.5a1.25,1.25,0,0,0-1.25-1.25H47.25A1.25,1.25,0,0,0,46,70.5v19a1.25,1.25,0,0,0,2.5,0V71.75H62.75V93.583h-28V52.75h5.417a1.25,1.25,0,0,0,0-2.5H25.861L34.5,34.417h59l8.637,15.834H46.333a1.25,1.25,0,0,0,0,2.5H93.25V88.167a1.25,1.25,0,0,0,2.5,0V52.75h8.494a1.25,1.25,0,0,0,1.1-1.849l-10-18.333a1.252,1.252,0,0,0-1.1-.651H33.756a1.252,1.252,0,0,0-1.1.651l-10,18.334a1.25,1.25,0,0,0,1.1,1.849H32.25V93.583H29.167a1.25,1.25,0,0,0,0,2.5h75.077a1.25,1.25,0,0,0,0-2.5ZM65.25,71.75H79.5V93.583H65.25Z"/><path d="M24.667,93.583h-.911a1.25,1.25,0,0,0,0,2.5h.911a1.25,1.25,0,0,0,0-2.5Z"/><polygon points="52.327 63.469 52.327 58.477 54.106 58.477 54.106 57.46 49.331 57.46 49.331 58.477 51.114 58.477 51.114 63.469 52.327 63.469"/><path d="M56.1,57.6a2.338,2.338,0,0,0-.777.541,2.826,2.826,0,0,0-.559.824,3.821,3.821,0,0,0-.275,1.541,3.1,3.1,0,0,0,.791,2.252,2.828,2.828,0,0,0,2.131.818,2.8,2.8,0,0,0,2.115-.822,3.682,3.682,0,0,0-.006-4.568,2.821,2.821,0,0,0-2.125-.824A3.3,3.3,0,0,0,56.1,57.6Zm2.51,1.308a2.259,2.259,0,0,1,.453,1.541,2.3,2.3,0,0,1-.465,1.568,1.62,1.62,0,0,1-2.387,0,2.812,2.812,0,0,1-.012-3.1,1.678,1.678,0,0,1,2.412-.006Z"/><rect x="61.229" y="57.46" width="1.213" height="6.009"/><polygon points="63.631 57.509 63.631 63.469 67.861 63.469 67.861 62.456 64.844 62.456 64.844 57.509 63.631 57.509"/><polygon points="73.181 58.477 73.181 57.46 68.726 57.46 68.726 63.469 73.296 63.469 73.296 62.456 69.939 62.456 69.939 60.821 72.956 60.821 72.956 59.809 69.939 59.809 69.939 58.477 73.181 58.477"/><polygon points="76.89 63.469 76.89 58.477 78.669 58.477 78.669 57.46 73.894 57.46 73.894 58.477 75.677 58.477 75.677 63.469 76.89 63.469"/></svg>