<svg xmlns="http://www.w3.org/2000/svg" data-name="Layer 1" viewBox="0 0 128 128"><path d="M94.425 53.511c0-2.721-2.106-5.142-5.54-6.875a24.792 24.792 0 0 0-4.1-12.189 7.227 7.227 0 1 0-11.132-9.214 24.81 24.81 0 0 0-19.312 0 7.227 7.227 0 1 0-11.133 9.214 24.807 24.807 0 0 0-3.161 6.786 1.25 1.25 0 0 0 2.4.7 22.29 22.29 0 0 1 3.394-6.894 1.251 1.251 0 0 0-.2-1.687 4.73 4.73 0 1 1 7.172-5.934 1.248 1.248 0 0 0 1.618.51 22.339 22.339 0 0 1 19.129 0 1.246 1.246 0 0 0 1.618-.51 4.731 4.731 0 1 1 7.172 5.934 1.251 1.251 0 0 0-.2 1.687 22.308 22.308 0 0 1 4.126 10.5 32.83 32.83 0 0 0-10.6-1.64A32.194 32.194 0 0 0 64 45.945 32.194 32.194 0 0 0 52.323 43.9c-10.513 0-18.748 4.22-18.748 9.608 0 2.055 1.2 3.938 3.27 5.484-9.133 6.82-14.34 16.6-14.34 27.088a32.238 32.238 0 0 0 6.231 18.891 1.25 1.25 0 1 0 2.029-1.459 29.761 29.761 0 0 1-5.761-17.432c0-9.505 4.658-18.4 12.854-24.724-2.425 4.507-4.368 11.409.248 18.644 5.089 7.978 5.384 11.882 5.7 16.014a33.491 33.491 0 0 0 .752 5.531c.612 2.567 3.216 5.218 12.129 3.259a33.855 33.855 0 0 1 14.631 0 25.646 25.646 0 0 0 5.432.679c4.628 0 6.233-1.992 6.7-3.937a33.491 33.491 0 0 0 .752-5.531c.312-4.132.607-8.035 5.7-16.014 5.072-7.95 2.227-15.5-.478-19.906 3.104-1.706 5.001-4.008 5.001-6.584zM52.323 46.4a29.135 29.135 0 0 1 11.184 2.044 1.254 1.254 0 0 0 .986 0A29.135 29.135 0 0 1 75.677 46.4c9.575 0 16.248 3.746 16.248 7.108s-6.673 7.108-16.248 7.108a34.072 34.072 0 0 1-4.977-.356 45.589 45.589 0 0 0-13.4 0 34.072 34.072 0 0 1-4.976.358c-9.575 0-16.248-3.746-16.248-7.108s6.672-7.11 16.247-7.11zm35.462 32.259c-5.428 8.508-5.76 12.911-6.082 17.169a30.967 30.967 0 0 1-.69 5.14c-.673 2.818-6.029 2.086-9.16 1.4a36.317 36.317 0 0 0-15.7 0c-3.132.689-8.488 1.422-9.16-1.4a30.967 30.967 0 0 1-.69-5.14c-.322-4.258-.654-8.661-6.082-17.169-4.444-6.966-1.757-13.675.653-17.5a31.2 31.2 0 0 0 10.28 1.934v3.343a1.25 1.25 0 1 0 2.5 0v-3.365a36.18 36.18 0 0 0 4.018-.338 43.165 43.165 0 0 1 12.668 0 36.179 36.179 0 0 0 4.018.338v3.361a1.25 1.25 0 1 0 2.5 0v-3.343q1.059-.032 2.081-.119c.547.574 6.978 7.583 2.3 14.919-4.04 6.334-4.288 9.617-4.527 12.792a22.49 22.49 0 0 1-.5 3.731c-.169.708-.87 1.046-1.77 1.173v-3.8a1.25 1.25 0 1 0-2.5 0v3.77a21.72 21.72 0 0 1-2.081-.356 27.066 27.066 0 0 0-11.7 0 22.04 22.04 0 0 1-2.081.356V91.78a1.25 1.25 0 1 0-2.5 0v3.805c-.9-.127-1.6-.466-1.77-1.174a22.49 22.49 0 0 1-.5-3.731c-.239-3.175-.487-6.458-4.527-12.792-2.846-4.461-1.6-8.779-.059-11.616a1.25 1.25 0 1 0-2.2-1.2c-1.866 3.428-3.355 8.667.147 14.155 3.7 5.8 3.916 8.638 4.143 11.637a24.846 24.846 0 0 0 .56 4.123c.371 1.554 1.632 3.151 5.246 3.151a19.2 19.2 0 0 0 4.074-.508 24.577 24.577 0 0 1 10.629 0c6.822 1.5 8.834-.609 9.32-2.644a24.842 24.842 0 0 0 .56-4.123c.227-3 .44-5.832 4.143-11.637 4.512-7.071.657-13.791-1.481-16.639a27.444 27.444 0 0 0 5.275-1.438c2.402 3.836 5.089 10.545.645 17.51z"/><path d="M51 56.442a3.251 3.251 0 1 0-3.251-3.25A3.254 3.254 0 0 0 51 56.442zm0-4a.751.751 0 1 1-.751.751.751.751 0 0 1 .751-.752zM77 56.442a3.254 3.254 0 0 0 3.251-3.25 1.25 1.25 0 1 0-2.5 0 .75.75 0 1 1-.751-.751 1.25 1.25 0 0 0 0-2.5 3.251 3.251 0 0 0 0 6.5zM55.975 38.819a1.25 1.25 0 0 0 0-2.5h-2.24a1.25 1.25 0 0 0 0 2.5zM74.265 38.819a1.25 1.25 0 0 0 0-2.5h-2.24a1.25 1.25 0 0 0 0 2.5zM95.242 62.5a1.25 1.25 0 1 0-1.756 1.779q.224.221.443.446a1.25 1.25 0 0 0 1.785-1.751q-.234-.242-.472-.474zM99.194 67.089a1.25 1.25 0 1 0-2.023 1.467 29.272 29.272 0 0 1 .063 34.959 1.25 1.25 0 1 0 2.029 1.459 31.767 31.767 0 0 0-.068-37.885z"/></svg>