<svg id="Layer_1" data-name="Layer 1" xmlns="http://www.w3.org/2000/svg" viewBox="0 0 128 128"><title>COW</title><path d="M48.536,64.415a1.25,1.25,0,0,0,1.25-1.25,1.526,1.526,0,0,1,3.052,0,1.25,1.25,0,1,0,2.5,0,4.026,4.026,0,0,0-8.052,0A1.25,1.25,0,0,0,48.536,64.415Z"/><path d="M76.688,59.139a4.031,4.031,0,0,0-4.026,4.026,1.25,1.25,0,1,0,2.5,0,1.526,1.526,0,0,1,3.052,0,1.25,1.25,0,1,0,2.5,0A4.03,4.03,0,0,0,76.688,59.139Z"/><path d="M77.525,89.246h-.4a1.25,1.25,0,0,0,0,2.5h.4a1.25,1.25,0,0,0,0-2.5Z"/><path d="M60.7,94.991a2.379,2.379,0,1,0,2.379,2.379A2.382,2.382,0,0,0,60.7,94.991Zm-.121,2.379a.121.121,0,1,1,.242,0C60.824,97.5,60.582,97.5,60.582,97.37Z"/><path d="M67.3,94.991a2.379,2.379,0,1,0,2.379,2.379A2.382,2.382,0,0,0,67.3,94.991Zm-.121,2.379a.121.121,0,0,1,.242,0C67.418,97.5,67.176,97.5,67.176,97.37Z"/><path d="M98.634,39.988a1.25,1.25,0,0,0-.909-.909c-.336-.085-7.2-1.744-11.989.7a19.219,19.219,0,0,0-1.156-9.887,13.6,13.6,0,0,0-7.92-7.3,1.25,1.25,0,0,0-1.612,1.631c.023.059,2.348,5.956,1.012,11.609a1.25,1.25,0,0,0,2.434.575,22.638,22.638,0,0,0-.244-10.225,10.591,10.591,0,0,1,4.036,4.7c1.712,3.9,1.136,8.531.452,11.493a8.9,8.9,0,0,0-.639,1.094A20.986,20.986,0,0,0,69.022,38.95H58.977a21.342,21.342,0,0,0-4.988.608c-4.032-6.372-.594-15.246-.557-15.339a1.251,1.251,0,0,0-1.613-1.629c-9.021,3.5-9.766,11.73-9.025,17.489-4.8-2.867-12.17-1.087-12.518-1a1.25,1.25,0,0,0-.909.909c-.1.388-2.328,9.566,2.2,14.1a1.25,1.25,0,0,0,1.768-1.768c-2.893-2.893-2.095-8.865-1.7-10.97,2.1-.394,8.077-1.191,10.97,1.7a6.005,6.005,0,0,1,1.227,1.875c.035.116.069.228.1.33a20.972,20.972,0,0,0-5.909,12.9L35.994,81.433a9.268,9.268,0,0,0,4.455,8.711L43.552,92a6.747,6.747,0,0,1,3.271,5.765,7.741,7.741,0,0,0,7.731,7.732H73.445a7.741,7.741,0,0,0,7.731-7.732A6.747,6.747,0,0,1,84.448,92l3.1-1.853a9.268,9.268,0,0,0,4.455-8.711L89.977,58.157c-.04-.452-.113-.892-.18-1.335a10.512,10.512,0,0,0,6.634-2.737C100.962,49.554,98.73,40.377,98.634,39.988ZM50.226,26.182c-.82,3.4-1.519,9.185,1.282,14.125a20.836,20.836,0,0,0-5.526,3.1C44.834,39.3,43.415,30.583,50.226,26.182ZM46.094,46.631c.019-.013.042-.022.059-.036s.036-.019.052-.031a1.189,1.189,0,0,0,.1-.125,1.25,1.25,0,0,0,.117-.141,18.381,18.381,0,0,1,7.257-4.09c.036-.008.069-.021.1-.032a18.8,18.8,0,0,1,5.19-.726h.343c-1.038,2.542-2.183,7.094,1.13,10.222,1.52,1.436,2.219,5.715.7,10.124-.962,2.785-3.534,7.546-9.948,8.135A37.921,37.921,0,0,0,39.23,73.1l1.284-14.729A18.475,18.475,0,0,1,46.094,46.631ZM86.269,88l-3.1,1.853a9.258,9.258,0,0,0-4.49,7.911,5.238,5.238,0,0,1-5.231,5.232H54.555a5.238,5.238,0,0,1-5.231-5.232,9.239,9.239,0,0,0-2.266-6.017H72.625a1.25,1.25,0,0,0,0-2.5H43.819L41.73,88a6.754,6.754,0,0,1-3.246-6.348l.493-5.661a35.441,35.441,0,0,1,12.448-3.568c5.707-.524,10.11-4.1,12.083-9.808,1.706-4.94,1.13-10.424-1.342-12.758-2.635-2.489-.885-6.816-.106-8.4h6.961A18.483,18.483,0,0,1,81.575,46.3a1.218,1.218,0,0,0,.321.322l.046.046a1.219,1.219,0,0,0,.286.287,18.478,18.478,0,0,1,5.259,11.42L89.516,81.65A6.754,6.754,0,0,1,86.269,88Zm3.024-33.637a20.879,20.879,0,0,0-4.863-8.742c.169-.5.4-1.247.635-2.185.108-.132.214-.268.331-.385,2.9-2.9,8.881-2.093,10.978-1.7.525,2.717.949,8.309-1.71,10.968A8.307,8.307,0,0,1,89.293,54.361Z"/></svg>