<svg xmlns="http://www.w3.org/2000/svg" data-name="Layer 1" viewBox="0 0 128 128"><path d="M75.6 86.625a1.25 1.25 0 0 0-1.25 1.25v13.968a27.2 27.2 0 0 1-25.917-27.137V26.158a27.342 27.342 0 0 1 23.24 15.368 1.25 1.25 0 0 0 2.253-1.084 29.844 29.844 0 0 0-26.743-16.813 24.7 24.7 0 0 0-24.677 24.676 1.25 1.25 0 0 0 1.25 1.25h6a17.493 17.493 0 0 0 16.177 16.178v8.973a29.63 29.63 0 0 0 .726 6.5h-22.9a1.25 1.25 0 1 0 0 2.5h23.574A29.715 29.715 0 0 0 75.6 104.371a1.25 1.25 0 0 0 1.25-1.25V87.875a1.25 1.25 0 0 0-1.25-1.25zm-43.345-37.07h9.928a1.25 1.25 0 0 0 0-2.5H25.041A22.191 22.191 0 0 1 45.933 26.19v37.043a15 15 0 0 1-13.678-13.678z"/><path d="M53.145 38.355a4.748 4.748 0 1 0 4.748-4.748 4.753 4.753 0 0 0-4.748 4.748zm7 0a2.248 2.248 0 1 1-2.247-2.248 2.25 2.25 0 0 1 2.242 2.248zM104.244 81.207h-.661a1.25 1.25 0 0 0 0 2.5h.661a1.25 1.25 0 0 0 0-2.5zM99 81.207H76.848v-8.735a30.73 30.73 0 0 0 28.646-30.62 1.25 1.25 0 0 0-1.25-1.25H90.077a30.73 30.73 0 0 0-30.7 30.7 1.25 1.25 0 0 0 1.25 1.25h13.721v8.659H54.875a1.25 1.25 0 0 0 0 2.5H99a1.25 1.25 0 0 0 0-2.5zM90.077 43.1h12.89A28.23 28.23 0 0 1 74.8 70.048H61.908A28.23 28.23 0 0 1 90.077 43.1z"/></svg>