<svg id="Layer_1" data-name="Layer 1" xmlns="http://www.w3.org/2000/svg" viewBox="0 0 128 128"><title>PARROT</title><path d="M75.6,86.625a1.25,1.25,0,0,0-1.25,1.25v13.968A27.2,27.2,0,0,1,48.433,74.706V26.158A27.342,27.342,0,0,1,71.673,41.526a1.25,1.25,0,0,0,2.253-1.084A29.844,29.844,0,0,0,47.183,23.629,24.7,24.7,0,0,0,22.506,48.305a1.25,1.25,0,0,0,1.25,1.25h6A17.493,17.493,0,0,0,45.933,65.733v8.973a29.63,29.63,0,0,0,.726,6.5h-22.9a1.25,1.25,0,1,0,0,2.5H47.333A29.715,29.715,0,0,0,75.6,104.371a1.25,1.25,0,0,0,1.25-1.25V87.875A1.25,1.25,0,0,0,75.6,86.625ZM32.255,49.555h9.928a1.25,1.25,0,0,0,0-2.5H25.041A22.191,22.191,0,0,1,45.933,26.19V63.233A15,15,0,0,1,32.255,49.555Z"/><path d="M53.145,38.355a4.748,4.748,0,1,0,4.748-4.748A4.753,4.753,0,0,0,53.145,38.355Zm7,0a2.248,2.248,0,1,1-2.247-2.248A2.25,2.25,0,0,1,60.14,38.355Z"/><path d="M104.244,81.207h-.661a1.25,1.25,0,0,0,0,2.5h.661a1.25,1.25,0,0,0,0-2.5Z"/><path d="M99,81.207H76.848V72.472a30.73,30.73,0,0,0,28.646-30.62,1.25,1.25,0,0,0-1.25-1.25H90.077a30.73,30.73,0,0,0-30.7,30.7,1.25,1.25,0,0,0,1.25,1.25H74.348v8.659H54.875a1.25,1.25,0,0,0,0,2.5H99a1.25,1.25,0,0,0,0-2.5ZM90.077,43.1h12.89A28.23,28.23,0,0,1,74.8,70.048H61.908A28.23,28.23,0,0,1,90.077,43.1Z"/></svg>