<svg xmlns="http://www.w3.org/2000/svg" data-name="Layer 1" viewBox="0 0 128 128"><path d="M88.148 33.464h-3.576a12.225 12.225 0 0 0-12.143-10.958H55.571a12.206 12.206 0 0 0-10.1 5.347 1.25 1.25 0 1 0 2.066 1.406 9.709 9.709 0 0 1 8.031-4.253h16.861a9.716 9.716 0 0 1 9.617 8.458H39.852a1.25 1.25 0 0 0-1.25 1.25v5.9a1.25 1.25 0 0 0 1.25 1.25h3.589l3.679 57.872a6.161 6.161 0 0 0 6.136 5.759h21.488a6.161 6.161 0 0 0 6.136-5.759l3.348-52.657a1.249 1.249 0 0 0-1.168-1.326 1.231 1.231 0 0 0-1.327 1.168l-3.349 52.656a3.655 3.655 0 0 1-3.641 3.417H53.256a3.655 3.655 0 0 1-3.641-3.417L46.7 53.664h17.82v35.682h-7.333a1.25 1.25 0 0 0 0 2.5h8.583a1.25 1.25 0 0 0 1.25-1.25V52.414a1.25 1.25 0 0 0-1.25-1.25H46.538l-.591-9.3h4.47a1.25 1.25 0 0 0 0-2.5H41.1v-3.4h45.8v3.4H55.416a1.25 1.25 0 0 0 0 2.5h32.732a1.25 1.25 0 0 0 1.25-1.25v-5.9a1.25 1.25 0 0 0-1.25-1.25z"/><path d="M52.25 89.346a1.25 1.25 0 0 0 0 2.5h.562a1.25 1.25 0 0 0 0-2.5z"/></svg>