<svg xmlns="http://www.w3.org/2000/svg" data-name="Layer 1" viewBox="0 0 128 128"><path d="M91.96 33.368a9.811 9.811 0 0 0-17.267-6.381 23.885 23.885 0 0 0-21.393-.008 9.812 9.812 0 1 0-14.7 13 1.25 1.25 0 0 0 1.852-1.679 7.307 7.307 0 0 1 10.63-10.03 20.333 20.333 0 0 0-9.463 16.95 8.644 8.644 0 0 1-1.15 4.333 23.208 23.208 0 0 0-2.986 9.566c-9.52 6.948-14.977 17.12-14.977 28a32.524 32.524 0 0 0 4.629 16.712 1.25 1.25 0 0 0 2.154-1.269 30.054 30.054 0 0 1-4.283-15.442c0-9.479 4.5-18.4 12.423-24.811C38.154 75.271 49.8 85.611 64 85.611c14.671 0 26.607-11.029 26.607-24.585a23.128 23.128 0 0 0-3.077-11.473 8.717 8.717 0 0 1-1.149-4.4 19.3 19.3 0 0 0-.213-2.837 9.772 9.772 0 0 0 5.792-8.948zM85.612 39.8a19.812 19.812 0 0 0-2.712-5.737 1.25 1.25 0 1 0-2.06 1.416 17.074 17.074 0 0 1 3.038 9.73 11.146 11.146 0 0 0 1.48 5.586 20.348 20.348 0 0 1 2.746 10.23C88.107 73.2 77.293 83.111 64 83.111S39.893 73.2 39.893 61.025A20.354 20.354 0 0 1 42.638 50.8a11.2 11.2 0 0 0 1.481-5.646c0-10.034 8.919-18.2 19.881-18.2a21.189 21.189 0 0 1 10.319 2.654c.007.005.011.013.018.018.026.017.057.019.083.035a19.882 19.882 0 0 1 3.167 2.207 1.25 1.25 0 0 0 1.627-1.9 22.264 22.264 0 0 0-2.3-1.7 7.305 7.305 0 1 1 8.7 11.526z"/><path d="M64 48.514c-5.988 0-10.494 8.911-10.494 14.689a10.494 10.494 0 0 0 20.988 0c0-5.778-4.506-14.689-10.494-14.689zM64 71.2a8 8 0 0 1-7.994-8c0-4.592 3.736-12.189 7.994-12.189s7.994 7.6 7.994 12.189a8 8 0 0 1-7.994 8z"/><path d="M64.711 55.8c-.457.013-.965.013-1.422 0a4.037 4.037 0 0 0-3.1.733 2.692 2.692 0 0 0-.74 2.014 4.54 4.54 0 0 0 3.213 4.325 1.471 1.471 0 0 1-2.864-.474 1.25 1.25 0 1 0-2.5 0A3.963 3.963 0 0 0 64 65.272a3.963 3.963 0 0 0 6.7-2.879 1.25 1.25 0 1 0-2.5 0 1.471 1.471 0 0 1-2.864.474 4.54 4.54 0 0 0 3.213-4.325 2.692 2.692 0 0 0-.74-2.014 4.028 4.028 0 0 0-3.098-.728zm1.338 2.747a2.049 2.049 0 0 1-4.1 0 1.3 1.3 0 0 1 .015-.214 6.849 6.849 0 0 1 1.257-.034c.5.014 1.055.014 1.555 0a6.811 6.811 0 0 1 1.257.034 1.293 1.293 0 0 1 .016.21zM58.607 44.58a3.719 3.719 0 1 0-3.718 3.72 3.723 3.723 0 0 0 3.718-3.72zm-4.937 0a1.219 1.219 0 1 1 1.219 1.22 1.22 1.22 0 0 1-1.219-1.22zM73.111 40.861a3.719 3.719 0 1 0 3.719 3.719 3.723 3.723 0 0 0-3.719-3.719zm0 4.938a1.219 1.219 0 1 1 1.219-1.219 1.22 1.22 0 0 1-1.219 1.22zM38.643 82.111a1.25 1.25 0 0 0-1.25 1.25V103.2a1.25 1.25 0 1 0 2.5 0V83.361a1.25 1.25 0 0 0-1.25-1.25zM89.357 87.084a1.25 1.25 0 0 0-1.25 1.25V103.2a1.25 1.25 0 1 0 2.5 0V88.334a1.25 1.25 0 0 0-1.25-1.25zM89.357 82.111a1.25 1.25 0 0 0-1.25 1.25v.556a1.25 1.25 0 1 0 2.5 0v-.556a1.25 1.25 0 0 0-1.25-1.25zM94.952 62.862a1.25 1.25 0 0 0-1.752 1.784 31.48 31.48 0 0 1 9.794 22.475 30.054 30.054 0 0 1-4.283 15.442 1.25 1.25 0 0 0 2.154 1.269 32.524 32.524 0 0 0 4.629-16.712 33.957 33.957 0 0 0-10.542-24.258z"/></svg>