<svg xmlns="http://www.w3.org/2000/svg" data-name="Layer 1" viewBox="0 0 128 128"><path d="M45.167 55.889a8.982 8.982 0 001.374-.1 1.25 1.25 0 001.034-1.034c.063-.392.563-3.887-1.482-5.932s-5.539-1.546-5.932-1.482a1.25 1.25 0 00-1.034 1.034c-.063.392-.562 3.888 1.482 5.932a6.441 6.441 0 004.558 1.582zm-.843-5.3a4.123 4.123 0 01.846 2.794 4.124 4.124 0 01-2.794-.846 4.122 4.122 0 01-.846-2.794 4.121 4.121 0 012.794.849zM64.181 55.79a8.982 8.982 0 001.373.1 6.441 6.441 0 004.558-1.582c2.045-2.044 1.546-5.54 1.482-5.932a1.25 1.25 0 00-1.034-1.034c-.391-.062-3.887-.562-5.932 1.482s-1.546 5.54-1.482 5.932a1.25 1.25 0 001.035 1.034zm2.216-5.2a4.123 4.123 0 012.794-.846 4.121 4.121 0 01-.846 2.794 4.123 4.123 0 01-2.794.846 4.122 4.122 0 01.849-2.792zM85.231 63.395a1.25 1.25 0 001.25 1.25h17.751a1.25 1.25 0 000-2.5H86.481a1.25 1.25 0 00-1.25 1.25zM104.232 101.932h-.273a1.25 1.25 0 000 2.5h.273a1.25 1.25 0 000-2.5z"/><path d="M98.292 101.932H56.7a18.664 18.664 0 01-18.648-18.644v-6.565c6.158 5.126 13.279 8.272 17.309 8.272 8.128 0 28.836-12.787 28.836-28.836a28.658 28.658 0 00-2.633-12.01c8.755-7.74 6.388-19.106 6.28-19.6a1.24 1.24 0 00-1.363-.974c-10.482 1.2-14.842 5.645-16.372 7.8a28.794 28.794 0 00-29.492.008c-1.524-2.155-5.882-6.612-16.378-7.811a1.239 1.239 0 00-1.363.974 22.394 22.394 0 002.862 15.629 1.25 1.25 0 102.1-1.352 19.892 19.892 0 01-2.69-12.612c8.617 1.264 12.181 4.929 13.37 6.555a28.812 28.812 0 00-12 23.387c0 6.986 3.925 13.353 9.028 18.318v8.812A21.168 21.168 0 0056.7 104.432h41.6a1.25 1.25 0 000-2.5zM51.168 78.3a4.192 4.192 0 114.192 4.191 4.2 4.2 0 01-4.192-4.191zm10.38 2.543a6.666 6.666 0 00-1.413-7.224c3.715-8.6 11.452-14.359 21.492-16-.945 10.581-11.913 19.638-20.079 23.227zM55.36 29.821a26.328 26.328 0 0117.207 6.4 1.25 1.25 0 101.633-1.893q-.964-.833-1.992-1.572c1.2-1.634 4.769-5.281 13.361-6.541.312 2.794.488 10.192-5.2 15.625a29.005 29.005 0 00-1.669-2.621 1.25 1.25 0 00-2.023 1.47 26.1 26.1 0 014.978 14.4C70.873 56.742 62.2 63.023 58.042 72.175a6.686 6.686 0 00-8.869 8.671A41.846 41.846 0 0137.7 73.111l-.034-.032c-4.475-4.25-8.051-9.626-8.57-15.467 8.265 1.358 15.09 5.573 19.327 11.98a1.25 1.25 0 102.077-1.379C45.8 61.1 38.21 56.471 29.051 55.081a26.365 26.365 0 0126.309-25.26z"/></svg>