<svg id="Layer_1" data-name="Layer 1" xmlns="http://www.w3.org/2000/svg" viewBox="0 0 128 128"><title>ELEPHANT</title><path d="M78.155,49.46A29.174,29.174,0,0,1,88.5,53.186a1.25,1.25,0,0,0,1.273-2.152,31.678,31.678,0,0,0-11.225-4.042,1.25,1.25,0,1,0-.391,2.469Z"/><path d="M91.932,55.56A1.25,1.25,0,0,0,93.488,53.6l-.218-.173a1.25,1.25,0,0,0-1.549,1.963Z"/><path d="M30.427,91.646h0c4.012,0,8.136-2.082,12.277-6.189a6.119,6.119,0,0,0,3.518,1.892c1.267.34,2.361.633,2.98,1.7.245.421.864,1.985,1.32,7.4a1.25,1.25,0,0,0,1.244,1.145c.035,0,.071,0,.106,0a1.251,1.251,0,0,0,1.141-1.351c-.552-6.563-1.379-7.984-1.65-8.451-1.138-1.954-3-2.453-4.495-2.853-1.755-.47-2.337-.721-2.516-1.9a1.25,1.25,0,0,0-2.159-.655c-4.077,4.47-8.019,6.747-11.717,6.769h-.055A8.416,8.416,0,0,1,25.266,87.4l1.113-2.523a7.67,7.67,0,0,0,5.76.634C39.28,83.553,44.5,72.02,45.044,70.777a1.238,1.238,0,0,0,.1-.244,29.672,29.672,0,0,1,7.73-12.969c-.016.261-.04.52-.04.784a1.25,1.25,0,1,0,2.5,0A10.572,10.572,0,1,1,65.9,68.921a1.25,1.25,0,0,0,0,2.5,13.072,13.072,0,1,0-9.673-21.834L44.877,26.875a1.25,1.25,0,0,0-2.236,0L31.123,49.91a1.25,1.25,0,0,0,1.118,1.809H35.3L28.135,66.047a1.25,1.25,0,0,0,1.118,1.809H31.9L27.152,77.35a1.25,1.25,0,0,0,1.118,1.809h8.667a12.065,12.065,0,0,1-5.463,3.948,5.507,5.507,0,0,1-4.922-1.056,1.25,1.25,0,0,0-1.879.506l-2.06,4.668a1.25,1.25,0,0,0,.221,1.348A10.742,10.742,0,0,0,30.427,91.646Zm-.135-14.987,4.747-9.494a1.25,1.25,0,0,0-1.118-1.809H31.275L38.44,51.027a1.25,1.25,0,0,0-1.118-1.808H34.263l9.5-18.99,9.495,18.99H50.195a1.25,1.25,0,0,0,0,2.5h4.464a13,13,0,0,0-.845,1.679,32.27,32.27,0,0,0-8.805,10.735V47.846a1.25,1.25,0,0,0-2.5,0V70.194c0,.029.014.053.017.082a45.645,45.645,0,0,1-3.651,6.382Z"/><path d="M51.884,64.719a2.846,2.846,0,1,0,2.846,2.846A2.849,2.849,0,0,0,51.884,64.719Zm0,3.192a.346.346,0,1,1,.346-.347A.347.347,0,0,1,51.884,67.911Z"/><path d="M104.244,99.316H97.852a31.968,31.968,0,0,0-.947-42.544,1.25,1.25,0,0,0-1.828,1.7,29.46,29.46,0,0,1-.625,40.839H87.68v-10.9a1.25,1.25,0,0,0-2.5,0v10.9H60.5v-10.9a1.25,1.25,0,0,0-2.5,0v10.9H45.008V90a1.25,1.25,0,0,0-2.5,0v9.316H28.27a1.25,1.25,0,1,0,0,2.5h75.974a1.25,1.25,0,0,0,0-2.5Z"/><path d="M24.125,99.316h-.369a1.25,1.25,0,1,0,0,2.5h.369a1.25,1.25,0,0,0,0-2.5Z"/></svg>