<svg id="Layer_1" data-name="Layer 1" xmlns="http://www.w3.org/2000/svg" viewBox="0 0 128 128"><title>PIG</title><path d="M90.445,56.883c.033-.588.055-1.179.055-1.775a31.348,31.348,0,0,0-1.161-8.483,1.25,1.25,0,0,0-2.406.676A28.879,28.879,0,0,1,88,55.107c0,14.566-10.767,26.417-24,26.417S40,69.674,40,55.107a28.54,28.54,0,0,1,3.007-12.8,1.251,1.251,0,0,0-.734-1.754,16.5,16.5,0,0,1-5.619-3.258c-3.368-2.908-3.911-8.3-3.986-10.542,2.234-.252,7.643-.5,11.012,2.405A16.909,16.909,0,0,1,47.5,33.791a1.25,1.25,0,0,0,1.905.359,22.252,22.252,0,0,1,29.2,0,1.25,1.25,0,0,0,1.905-.359,16.9,16.9,0,0,1,3.817-4.634c3.368-2.91,8.777-2.657,11.011-2.405-.075,2.244-.618,7.634-3.986,10.542a16.5,16.5,0,0,1-5.619,3.258,1.25,1.25,0,1,0,.764,2.381,19,19,0,0,0,6.488-3.746c5.235-4.52,4.873-13.21,4.855-13.578a1.249,1.249,0,0,0-1-1.165c-.362-.071-8.905-1.7-14.141,2.821a20.138,20.138,0,0,0-3.615,4.063,24.684,24.684,0,0,0-30.146,0,20.163,20.163,0,0,0-3.614-4.063c-5.236-4.521-13.779-2.893-14.142-2.821a1.249,1.249,0,0,0-1,1.165c-.019.368-.381,9.059,4.854,13.578a19.726,19.726,0,0,0,5.156,3.251A31.172,31.172,0,0,0,37.5,55.107c0,15.945,11.888,28.917,26.5,28.917,13.16,0,24.105-10.523,26.152-24.262,8.188,6.325,12.842,15.229,12.842,24.722a29.751,29.751,0,0,1-5.761,17.43,1.25,1.25,0,0,0,2.029,1.461,32.242,32.242,0,0,0,6.231-18.891C105.494,73.737,100.012,63.721,90.445,56.883Z"/><path d="M30.449,63.391a31.872,31.872,0,0,0-1.712,39.984,1.25,1.25,0,1,0,2.029-1.461A29.372,29.372,0,0,1,32.359,65a1.25,1.25,0,0,0-1.91-1.613Z"/><path d="M33.909,59.807l-.361.332a1.251,1.251,0,0,0,1.7,1.83l.328-.3a1.25,1.25,0,0,0-1.672-1.859Z"/><path d="M64,73.107c5.858,0,10.625-3.664,10.625-8.168S69.858,56.771,64,56.771s-10.625,3.665-10.625,8.169S58.142,73.107,64,73.107Zm0-13.837c4.48,0,8.125,2.543,8.125,5.669S68.48,70.607,64,70.607s-8.125-2.543-8.125-5.668S59.519,59.271,64,59.271Z"/><path d="M60.25,66.19h1.5a1.25,1.25,0,1,0,0-2.5h-1.5a1.25,1.25,0,0,0,0,2.5Z"/><path d="M66.25,66.19h1.5a1.25,1.25,0,1,0,0-2.5h-1.5a1.25,1.25,0,0,0,0,2.5Z"/><path d="M53.25,42.982a3.375,3.375,0,1,0,3.375,3.375A3.378,3.378,0,0,0,53.25,42.982Zm0,4.25a.875.875,0,1,1,.875-.875A.876.876,0,0,1,53.25,47.232Z"/><path d="M78.125,46.357a3.375,3.375,0,1,0-3.375,3.375A3.378,3.378,0,0,0,78.125,46.357Zm-4.25,0a.875.875,0,1,1,.875.875A.876.876,0,0,1,73.875,46.357Z"/><path d="M44.25,84.817A1.25,1.25,0,0,0,43,86.067v16.577a1.25,1.25,0,0,0,2.5,0V86.067A1.25,1.25,0,0,0,44.25,84.817Z"/><path d="M83.75,84.817a1.25,1.25,0,0,0-1.25,1.25v16.577a1.25,1.25,0,0,0,2.5,0V86.067A1.25,1.25,0,0,0,83.75,84.817Z"/></svg>