<svg xmlns="http://www.w3.org/2000/svg" data-name="Layer 1" viewBox="0 0 128 128"><path d="M67.731 75.235h-7.587a1.25 1.25 0 0 0 0 2.5h7.588a1.25 1.25 0 0 0 0-2.5zM52.511 54.464a1.25 1.25 0 0 0 1.25-1.25.812.812 0 1 1 1.625 0 1.25 1.25 0 1 0 2.5 0 3.312 3.312 0 1 0-6.625 0 1.25 1.25 0 0 0 1.25 1.25zM71.364 54.464a1.25 1.25 0 0 0 1.25-1.25.812.812 0 1 1 1.625 0 1.25 1.25 0 1 0 2.5 0 3.312 3.312 0 1 0-6.625 0 1.25 1.25 0 0 0 1.25 1.25zM104.244 67.384H88.765a1.25 1.25 0 0 0 0 2.5h15.479a1.25 1.25 0 0 0 0-2.5zM104.244 100.128h-.494a1.25 1.25 0 0 0 0 2.5h.494a1.25 1.25 0 0 0 0-2.5z"/><path d="M99 100.128H65.122A15.139 15.139 0 0 1 50 85.006V76.15a4.68 4.68 0 0 1 .917 2.769 6.072 6.072 0 0 0 6.065 6.066h.418c-.452 2.92-.363 8.92 7.042 11.824a1.247 1.247 0 0 0 1.442-.4 1.252 1.252 0 0 0 .026-1.5 10.3 10.3 0 0 1-1.358-2.865 7.676 7.676 0 0 0 4.953 1.792h.017a1.246 1.246 0 0 0 1.1-.68 1.272 1.272 0 0 0-.094-1.316 5.3 5.3 0 0 1-.451-3.643 1.25 1.25 0 0 0-2.476-.347 10.019 10.019 0 0 0 .017 3.127 5.6 5.6 0 0 1-2.992-2.853 1.25 1.25 0 0 0-2.31-.034 6.832 6.832 0 0 0-.214 4.42 7.872 7.872 0 0 1-2.179-7.53h11.1a6.072 6.072 0 0 0 6.065-6.065 4.691 4.691 0 0 1 2.274-4.007l2.3-1.377a7.209 7.209 0 0 0 3.466-6.776L83.8 51.556a9.469 9.469 0 0 0 4.9 4.972 12.806 12.806 0 0 0 5.6 1.37c6.883 0 10.95-6.425 11-6.506a1.25 1.25 0 0 0-1.93-1.558c-.024.023-2.5 2.307-5.381 2.105a6.89 6.89 0 0 1-4.85-2.98c-2.185-2.762-1.784-5.467-1.321-8.6.6-4.057 1.281-8.655-4.586-12.967a10.324 10.324 0 0 0-10.1-1.247A21.474 21.474 0 0 0 66.911 34.9h-5.822a21.473 21.473 0 0 0-10.224-8.754 10.316 10.316 0 0 0-10.1 1.247c-5.867 4.312-5.187 8.91-4.586 12.967.463 3.131.863 5.836-1.321 8.6a6.9 6.9 0 0 1-4.832 2.979 8.065 8.065 0 0 1-5.4-2.1 1.25 1.25 0 0 0-1.93 1.558c.05.081 4.116 6.506 11 6.506a12.813 12.813 0 0 0 5.6-1.37 9.469 9.469 0 0 0 4.9-4.972l-1.325 15.2a7.21 7.21 0 0 0 3.465 6.776l1.163.694v10.775a17.642 17.642 0 0 0 17.622 17.622H99a1.25 1.25 0 0 0 0-2.5zM78 28.493a7.829 7.829 0 0 1 7.758.916C90.414 32.83 89.922 36.15 89.353 40c-.478 3.236-1.021 6.9 1.833 10.515a9.26 9.26 0 0 0 6.641 3.923c.171.012.339.018.506.018a9.362 9.362 0 0 1-8.54-.176c-4.189-2.02-4.4-5.465-4.621-9.114-.214-3.5-.455-7.466-5.077-8.893a1.25 1.25 0 0 0-.738 2.389c2.818.87 3.094 2.971 3.317 6.6a15.809 15.809 0 0 0-12.921-10.22A19.81 19.81 0 0 1 78 28.493zM38.207 54.276a9.345 9.345 0 0 1-8.5.176q.233 0 .471-.018a9.26 9.26 0 0 0 6.641-3.923C39.668 46.9 39.125 43.232 38.646 40c-.568-3.845-1.061-7.166 3.594-10.586a7.829 7.829 0 0 1 7.76-.921 19.81 19.81 0 0 1 8.249 6.549A15.809 15.809 0 0 0 45.327 45.26c.223-3.632.5-5.733 3.317-6.6a1.25 1.25 0 0 0-.738-2.389c-4.622 1.427-4.863 5.394-5.077 8.893-.224 3.647-.429 7.092-4.622 9.112zm7.155 12.7 1.508-17.294a13.374 13.374 0 0 1 13.4-12.28h7.463a13.374 13.374 0 0 1 13.4 12.28l1.508 17.294a4.7 4.7 0 0 1-2.258 4.413l-2.3 1.377a7.2 7.2 0 0 0-3.493 6.154 3.537 3.537 0 0 1-.666 2.06V72.9a9.915 9.915 0 0 0-1.286-4.887 1.25 1.25 0 1 0-2.174 1.233 7.419 7.419 0 0 1 .96 3.653v9.543a3.508 3.508 0 0 1-.4.04H56.982a3.507 3.507 0 0 1-.4-.04V72.9a7.377 7.377 0 0 1 3.818-6.47 5.1 5.1 0 0 0 8.708-3.615 2.3 2.3 0 0 0-.812-1.946 2.686 2.686 0 0 0-2.564.038 5.427 5.427 0 0 1-1.732.408 5.427 5.427 0 0 1-1.73-.407 2.686 2.686 0 0 0-2.564-.038 2.3 2.3 0 0 0-.812 1.946 5.035 5.035 0 0 0 .236 1.451 9.872 9.872 0 0 0-5.047 8.633v8.08a3.536 3.536 0 0 1-.666-2.06 7.2 7.2 0 0 0-3.492-6.154l-2.306-1.377a4.7 4.7 0 0 1-2.257-4.413zm16.069-3.713a6.245 6.245 0 0 0 5.129 0 2.607 2.607 0 0 1-5.137 0z"/></svg>