<svg xmlns="http://www.w3.org/2000/svg" data-name="Layer 1" viewBox="0 0 128 128"><path d="M56.279 43.034a6.039 6.039 0 0 1-1.429 1.044l-.91.484c-4.4 2.338-9.4 4.988-9.4 10.82a1.25 1.25 0 1 0 2.5 0c0-4.329 3.919-6.41 8.069-8.612l.92-.491a8.5 8.5 0 0 0 2.02-1.485 1.25 1.25 0 0 0-1.774-1.761zM58.383 37.1a1.255 1.255 0 0 0-.88 1.53 3.721 3.721 0 0 1 .087.533 1.251 1.251 0 0 0 1.242 1.123c.042 0 .085 0 .128-.006a1.251 1.251 0 0 0 1.117-1.371 6.01 6.01 0 0 0-.163-.942 1.248 1.248 0 0 0-1.531-.867z"/><path d="M64 22.506a41.29 41.29 0 0 0-23.2 7.087 1.25 1.25 0 0 0 1.4 2.071 39.052 39.052 0 1 1-4.21 3.285 1.25 1.25 0 0 0-1.668-1.862A41.494 41.494 0 1 0 64 22.506z"/><path d="M84.579 37.56A33.179 33.179 0 0 0 64 30.488 33.55 33.55 0 0 0 30.488 64a33.179 33.179 0 0 0 7.072 20.579 1.253 1.253 0 0 0 .909.48h.077a1.248 1.248 0 0 0 .884-.366L84.694 39.43a1.249 1.249 0 0 0-.115-1.87zM54.668 65.921h-7.625v-3.842h8.582a1.25 1.25 0 0 0 0-2.5H42.837a3.432 3.432 0 0 0-3.428 3.428v1.985a3.432 3.432 0 0 0 3.428 3.428h9.331L38.685 81.9a30.97 30.97 0 0 1 4.387-40.767 7.452 7.452 0 0 1-1.42 6.667c-3.209 3.776.371 9.419.525 9.657a1.25 1.25 0 0 0 2.1-1.354c-.027-.043-2.728-4.322-.721-6.684a9.6 9.6 0 0 0 1.537-9.9c-.01-.018-.029-.028-.04-.046a30.948 30.948 0 0 1 36.847-.788zm-11.831 0a.929.929 0 0 1-.928-.928v-1.986a.929.929 0 0 1 .928-.928h1.707v3.842zM86.069 47.574a1.249 1.249 0 0 0-1.767 0L65.59 66.286 43.306 88.57a1.25 1.25 0 0 0 .115 1.87A33.181 33.181 0 0 0 64 97.512 33.55 33.55 0 0 0 97.512 64a33.181 33.181 0 0 0-7.072-20.579 1.25 1.25 0 0 0-1.973 1.537A30.7 30.7 0 0 1 95.012 64 31.047 31.047 0 0 1 64 95.012a30.671 30.671 0 0 1-17.9-5.7l20.891-20.891h18.172a3.432 3.432 0 0 0 3.429-3.428v-1.986a3.432 3.432 0 0 0-3.429-3.428h-9.331l10.237-10.237a1.25 1.25 0 0 0 0-1.768zM71.931 63.481v2.44h-2.44zm14.161-.474v1.985a.93.93 0 0 1-.929.928H74.431v-3.841h10.732a.93.93 0 0 1 .929.928z"/></svg>