<svg id="Layer_1" data-name="Layer 1" xmlns="http://www.w3.org/2000/svg" viewBox="0 0 128 128"><title>PUP</title><path d="M59.25,88.664a1.25,1.25,0,0,0,0,2.5h.25a1.25,1.25,0,1,0,0-2.5Z"/><path d="M90.583,88.664H63.312a1.25,1.25,0,0,0,0,2.5H90.583a5.915,5.915,0,1,1,0,11.83H37.417a5.915,5.915,0,0,1,0-11.83H53.625a1.25,1.25,0,1,0,0-2.5H48.376a5.915,5.915,0,1,1,0-11.83H79.624a5.922,5.922,0,0,1,5.915,5.915,1.25,1.25,0,1,0,2.5,0,8.425,8.425,0,0,0-8.415-8.415H78.167A8.409,8.409,0,0,0,74.019,60.2c1.754-4.336,1.817-7.83.183-10.4-2.571-4.047-8.27-4.026-8.519-4.058a1.251,1.251,0,0,0-.916,2.093c.363.4,1.326,1.755,1,2.682-.29.813-1.693,1.465-3.85,1.788-3.265.49-5.527,1.747-6.723,3.736a6.7,6.7,0,0,0-.866,4.092,8.429,8.429,0,0,0-6.929,8.284,1.25,1.25,0,1,0,2.5,0A5.922,5.922,0,0,1,55.81,62.5a1.255,1.255,0,0,0,1.182-1.658,4.635,4.635,0,0,1,.353-3.535c.8-1.308,2.46-2.159,4.94-2.531,3.241-.486,5.205-1.642,5.837-3.434a4.169,4.169,0,0,0-.062-2.778,6.515,6.515,0,0,1,4.032,2.575c1.337,2.1.99,5.326-1.031,9.574A1.25,1.25,0,0,0,72.19,62.5a5.915,5.915,0,1,1,0,11.83H48.376A8.409,8.409,0,0,0,42.4,88.664H37.417a8.415,8.415,0,0,0,0,16.83H90.583a8.415,8.415,0,1,0,0-16.83Z"/><path d="M53.122,41.59a1.235,1.235,0,0,0,.514-.111,1.25,1.25,0,0,0,.624-1.654c-1.643-3.631-.429-5.525.857-7.53.956-1.491,1.944-3.032,1.559-5.088a1.25,1.25,0,1,0-2.457.459c.192,1.029-.333,1.917-1.207,3.28-1.364,2.128-3.232,5.042-1.029,9.91A1.249,1.249,0,0,0,53.122,41.59Z"/><path d="M53.321,25.21a1.251,1.251,0,0,0,.9-2.121l-.159-.161-.938.828-.84.928.144.148A1.248,1.248,0,0,0,53.321,25.21Z"/><path d="M62.122,40.856a1.249,1.249,0,0,0,1.14.734,1.236,1.236,0,0,0,.514-.111,1.25,1.25,0,0,0,.623-1.654c-1.643-3.631-.429-5.525.857-7.53,1.521-2.374,3.246-5.064-1.112-9.422a1.25,1.25,0,0,0-1.768,1.768c2.935,2.936,2.167,4.132.774,6.3C61.787,33.072,59.919,35.987,62.122,40.856Z"/><path d="M72.261,40.856a1.249,1.249,0,0,0,1.14.734,1.235,1.235,0,0,0,.514-.111,1.25,1.25,0,0,0,.624-1.654c-1.643-3.631-.429-5.525.857-7.53,1.522-2.374,3.246-5.064-1.112-9.422a1.25,1.25,0,0,0-1.768,1.768c2.935,2.936,2.167,4.132.774,6.3C71.927,33.072,70.059,35.987,72.261,40.856Z"/></svg>