<svg xmlns="http://www.w3.org/2000/svg" data-name="Layer 1" viewBox="0 0 128 128"><path d="M81.3 50.252c-5.26-2.79-14.518 2.642-17.3 4.42-2.783-1.779-12.04-7.213-17.3-4.42-2.3 1.218-3.462 3.723-3.462 7.444 0 15.42 9.314 27.965 20.763 27.965S84.763 73.116 84.763 57.7c0-3.725-1.163-6.23-3.463-7.448zM64 83.162c-10.07 0-18.263-11.424-18.263-25.465 0-2.723.717-4.484 2.132-5.235a4.979 4.979 0 012.346-.5c4.3 0 10.615 3.573 13.083 5.244a1.248 1.248 0 001.4 0c2.976-2.016 11.548-6.8 15.429-4.742 1.415.75 2.133 2.512 2.133 5.235.003 14.039-8.19 25.463-18.26 25.463z"/><path d="M54.682 63.96a1.25 1.25 0 001.25-1.25v-3.019a1.25 1.25 0 10-2.5 0v3.019a1.25 1.25 0 001.25 1.25zM73.318 63.96a1.25 1.25 0 001.25-1.25v-3.019a1.25 1.25 0 10-2.5 0v3.019a1.25 1.25 0 001.25 1.25zM64 70.166a5.256 5.256 0 005.25-5.25 2.516 2.516 0 00-.8-2.032 3.029 3.029 0 00-2.741-.18 5.474 5.474 0 01-3.411 0 3.029 3.029 0 00-2.741.18 2.516 2.516 0 00-.8 2.032A5.256 5.256 0 0064 70.166zm-2.293-5.032a7.851 7.851 0 004.586 0c.141-.034.305-.074.455-.106a2.75 2.75 0 01-5.5 0c.152.032.318.072.459.105z"/><path d="M73.582 66.315a1.25 1.25 0 00-1.25 1.25 8.332 8.332 0 01-16.664 0 1.25 1.25 0 00-2.5 0 10.832 10.832 0 0021.664 0 1.25 1.25 0 00-1.25-1.25zM51.9 95.8a1.25 1.25 0 00-1.25 1.25v6.911a1.25 1.25 0 002.5 0v-6.912A1.25 1.25 0 0051.9 95.8zM76.1 95.8a1.25 1.25 0 00-1.25 1.25v6.911a1.25 1.25 0 002.5 0v-6.912A1.25 1.25 0 0076.1 95.8zM43.75 87.25a1.25 1.25 0 00-1.25 1.25v15.46a1.25 1.25 0 002.5 0V88.5a1.25 1.25 0 00-1.25-1.25zM104.244 71.106q-.267 0-.523.006a1.25 1.25 0 00.026 2.5h.498a1.25 1.25 0 000-2.5z"/><path d="M92.816 64.855a1.237 1.237 0 00.5.111 12.173 12.173 0 10-8.353-21.019 29.034 29.034 0 00-9.94-6.89 11.7 11.7 0 01-5.346-4.323l-2.337-3.549a1.25 1.25 0 00-2.214.25 141.64 141.64 0 01-1.655 4.256 6.965 6.965 0 01-2.243-9.055 1.25 1.25 0 00-1.94-1.52c-3.2 2.915-4.909 6.247-5.077 9.9A5.93 5.93 0 0150.938 38a28.908 28.908 0 00-7.92 5.939 12.171 12.171 0 10-13.976 19.65A1.25 1.25 0 0030.2 61.37a9.673 9.673 0 1111.178-15.548A28.842 28.842 0 0062.159 92.5q.937.059 1.864.058A28.55 28.55 0 0083 85.413v18.547a1.25 1.25 0 002.5 0v-5.421a14.8 14.8 0 001.789.111 9.321 9.321 0 005.611-1.625c1.883-1.414 2.875-3.638 2.95-6.611.037-1.49.01-2.951-.016-4.364-.118-6.367.011-10.344 3.97-11.8a1.25 1.25 0 00-.864-2.35c-5.829 2.145-5.721 8-5.606 14.193.026 1.386.052 2.82.017 4.255-.054 2.166-.708 3.737-1.945 4.669-1.81 1.365-4.5 1.2-5.906.994V82.932a28.98 28.98 0 007.316-18.077zm-30.5 25.154a26.347 26.347 0 01-10.244-49.785 8.434 8.434 0 004.635-7.088 10.212 10.212 0 011.24-4.4c.2 2.667 1.582 5.634 5.42 7.887a1.251 1.251 0 001.566-.247c.123-.138.358-.4 1.664-3.773l1 1.512a14.186 14.186 0 006.477 5.256 26.606 26.606 0 0112.444 10.662 1.25 1.25 0 102.135-1.3 28.564 28.564 0 00-2.047-2.893 9.671 9.671 0 116.715 16.627 1.239 1.239 0 00-.5.108 28.668 28.668 0 00-1.832-9.062 1.25 1.25 0 00-2.338.885 26.355 26.355 0 01-26.337 35.611z"/></svg>