<svg id="Layer_1" data-name="Layer 1" xmlns="http://www.w3.org/2000/svg" viewBox="0 0 128 128"><title>ZOO KEEPER</title><path d="M83.619,68.38a7.615,7.615,0,0,0-1.011-15.163,1.25,1.25,0,0,0,0,2.5,5.11,5.11,0,0,1,1.234,10.071c0-.109.016-.215.016-.324V60.026a1.25,1.25,0,1,0-2.5,0v5.437a17.358,17.358,0,1,1-34.716,0V52.822C51.069,54.493,57.556,55.351,64,55.351c11.409,0,22.959-2.687,22.959-7.822a5.739,5.739,0,0,0-.666-2.387c5.746-1.931,6.962-4.746,6.962-6.776,0-7.657-17.171-15.859-29.256-15.859s-29.256,8.2-29.256,15.859c0,2.03,1.216,4.846,6.962,6.776a5.741,5.741,0,0,0-.666,2.387c0,1.625,1.159,3,3.1,4.131v1.669a7.613,7.613,0,0,0-3.826,13.19,1.25,1.25,0,0,0,1.666-1.865,5.1,5.1,0,0,1,2.16-8.764v9.575a19.722,19.722,0,0,0,1.711,8.03A25.59,25.59,0,0,0,23.97,98.731v5.513a1.25,1.25,0,0,0,2.5,0V98.731A23.064,23.064,0,0,1,46.956,75.893L52.967,91.33a1.251,1.251,0,0,0,.8.742,1.275,1.275,0,0,0,.367.055,1.249,1.249,0,0,0,.709-.221l3.389-2.337L59.672,92.2,58.1,104.08a1.25,1.25,0,0,0,1.075,1.4,1.365,1.365,0,0,0,.166.011,1.25,1.25,0,0,0,1.238-1.086l1.483-11.2H65.94l1.483,11.2a1.25,1.25,0,0,0,1.238,1.086,1.367,1.367,0,0,0,.165-.011,1.25,1.25,0,0,0,1.075-1.4L68.328,92.2l1.442-2.632,3.389,2.337a1.249,1.249,0,0,0,.71.221,1.275,1.275,0,0,0,.367-.055,1.251,1.251,0,0,0,.8-.742L81.36,75.083A19.7,19.7,0,0,0,83.619,68.38ZM37.244,38.365c0-5.154,14.609-13.359,26.756-13.359s26.756,8.205,26.756,13.359c0,2.211-2.919,3.639-5.369,4.446-.365.12-.751.234-1.148.345-.019,0-.037.011-.055.015C79.549,44.459,72.774,45.113,64,45.113s-15.547-.654-20.182-1.941c-.02,0-.038-.012-.057-.015-.4-.111-.783-.225-1.147-.345C40.164,42,37.244,40.576,37.244,38.365Zm6.3,9.163a4.191,4.191,0,0,1,.605-1.688C48.954,47.016,55.611,47.613,64,47.613s15.046-.6,19.854-1.773a4.191,4.191,0,0,1,.605,1.688c0,2.17-7.97,5.322-20.459,5.322-8.451,0-14.822-1.444-18.065-3.05-.034-.017-.066-.034-.1-.047C44.345,49,43.541,48.215,43.541,47.528ZM54.723,88.951l-3.112-7.993a19.764,19.764,0,0,0,8.857,4.031ZM66.294,90.71H61.706L60.3,88.143,64,85.591l3.7,2.552Zm6.983-1.759-5.745-3.962a19.764,19.764,0,0,0,8.858-4.031Z"/><path d="M90.864,76.432a1.25,1.25,0,1,0-1.216,2.184A23.069,23.069,0,0,1,101.53,98.731v5.513a1.25,1.25,0,0,0,2.5,0V98.731A25.567,25.567,0,0,0,90.864,76.432Z"/><path d="M86.085,74.378a1.25,1.25,0,0,0-.752,2.385l.368.118a1.25,1.25,0,0,0,.774-2.377Z"/><path d="M59.685,37.811l-1.5,4.571a1.25,1.25,0,0,0,1.925,1.4L64,40.945l3.886,2.835a1.25,1.25,0,0,0,1.925-1.4l-1.5-4.571,3.9-2.82a1.25,1.25,0,0,0-.733-2.263h0l-4.81.009L65.189,28.16a1.25,1.25,0,0,0-2.379,0l-1.477,4.576-4.81-.009h0a1.25,1.25,0,0,0-.733,2.263Zm2.555-2.572h0a1.249,1.249,0,0,0,1.189-.866L64,32.612l.568,1.76a1.249,1.249,0,0,0,1.189.866h0l1.85,0-1.5,1.085a1.25,1.25,0,0,0-.455,1.4l.575,1.758-1.494-1.09a1.25,1.25,0,0,0-1.474,0l-1.494,1.09.575-1.758a1.25,1.25,0,0,0-.455-1.4l-1.5-1.085Z"/><path d="M86.18,96.452H78.855a3.164,3.164,0,0,0,0,6.328H86.18a3.164,3.164,0,0,0,0-6.328Zm0,3.828H78.855a.664.664,0,1,1,0-1.328H86.18a.664.664,0,0,1,0,1.328Z"/></svg>