<svg id="Layer_3" data-name="Layer 3" xmlns="http://www.w3.org/2000/svg" viewBox="0 0 128 128"><title>Artboard 101</title><path d="M64,98.152c62.251-14.329,0-81.2,0-81.2S1.748,83.823,64,98.152Z" style="fill:#73bf2d"/><path d="M64,98.152c62.22-14.323.062-81.134,0-81.2Z" style="fill:#20953d"/><path d="M62.567,99.27v11.778a1.433,1.433,0,0,0,2.866,0V99.262c20.082-4.942,29.327-15.888,27.431-32.58C91.742,56.8,86.711,45.26,77.913,32.37c-1.45-2.124-9.213-12.795-12.589-15.96A1.43,1.43,0,0,0,64,15.519h0c-.008,0-.015,0-.023,0a1.427,1.427,0,0,0-.541.113c-.043.018-.075.055-.115.078a1.429,1.429,0,0,0-.348.246c-.006.006-.015.009-.022.015C61.532,17.5,28.3,53.586,36.07,78.935,39.112,88.86,48.036,95.691,62.567,99.27ZM89.191,78.09c-2.678,8.744-10.679,14.866-23.758,18.226V81.276L81.1,70.478a1.433,1.433,0,1,0-1.626-2.359L65.433,77.8V61.1l12.573-8.664a1.433,1.433,0,0,0-1.626-2.359L65.433,57.619V42.909l5.529-3.81a1.433,1.433,0,1,0-1.626-2.359l-3.9,2.69V20.758C73.057,29.727,95.294,58.164,89.191,78.09ZM62.567,20.76V39.429l-3.9-2.69A1.433,1.433,0,0,0,57.037,39.1l5.53,3.81v14.71L51.619,50.075a1.433,1.433,0,0,0-1.626,2.359L62.567,61.1V77.8L47.346,67.305a1.433,1.433,0,0,0-1.626,2.359L62.567,81.276v15.04C49.491,92.956,41.491,86.839,38.811,78.1,32.711,58.209,54.944,29.742,62.567,20.76Z" style="fill:#182d00"/></svg>