<svg id="Layer_3" data-name="Layer 3" xmlns="http://www.w3.org/2000/svg" viewBox="0 0 128 128"><title>Artboard 110</title><path d="M79.7,43.911a15.7,15.7,0,1,0-31.409,0C48.3,55.016,64,67.2,64,67.2S79.7,53.942,79.7,43.911Z" style="fill:#73bf2d"/><path d="M79.7,43.911A15.706,15.706,0,0,0,64,28.205V67.2S79.7,53.942,79.7,43.911Z" style="fill:#20953d"/><path d="M87.285,83.845a15.7,15.7,0,1,0,0-31.409c-11.1,0-23.285,15.7-23.285,15.7S77.254,83.845,87.285,83.845Z" style="fill:#73bf2d"/><path d="M40.715,83.845a15.7,15.7,0,1,1,0-31.409c11.1,0,23.285,15.7,23.285,15.7S50.746,83.845,40.715,83.845Z" style="fill:#73bf2d"/><path d="M87.284,83.844a15.705,15.705,0,0,0,15.706-15.7H64S77.254,83.844,87.284,83.844Z" style="fill:#20953d"/><path d="M40.716,83.844a15.705,15.705,0,0,1-15.706-15.7H64S50.746,83.844,40.716,83.844Z" style="fill:#20953d"/><path d="M87.285,51a19.868,19.868,0,0,0-9.7,3.019c2.071-3.323,3.556-6.844,3.556-10.111a17.138,17.138,0,1,0-34.275,0,20.026,20.026,0,0,0,3.118,9.869A19.458,19.458,0,0,0,40.715,51a17.138,17.138,0,1,0,0,34.275c7.95,0,17.408-8.788,21.852-13.433v27.95a1.433,1.433,0,1,0,2.866,0V71.845c4.444,4.645,13.9,13.433,21.852,13.433a17.138,17.138,0,1,0,0-34.275Zm14.2,15.7H67.094c3.782-4.238,12.41-12.837,20.191-12.837A14.291,14.291,0,0,1,101.484,66.706ZM78.272,43.911c0,6.982-8.572,15.992-12.839,20.045V29.711A14.293,14.293,0,0,1,78.272,43.911Zm-28.544,0a14.293,14.293,0,0,1,12.839-14.2V64.1c-.267-.239-.553-.5-.852-.775-.956-1.016-2.083-2.149-3.341-3.308C54.264,55.653,49.728,49.561,49.728,43.911Zm-9.013,9.958c5.425,0,11.263,4.184,15.585,8.155,1.2,1.279,2.366,2.411,3.383,3.349.45.478.858.924,1.223,1.333H26.516A14.291,14.291,0,0,1,40.715,53.869Zm0,28.544a14.292,14.292,0,0,1-14.2-12.84H60.762C56.713,73.839,47.706,82.412,40.715,82.412Zm46.57,0c-6.982,0-15.992-8.573-20.045-12.84h34.244A14.292,14.292,0,0,1,87.285,82.412Z" style="fill:#182d00"/></svg>