<svg id="Layer_3" data-name="Layer 3" xmlns="http://www.w3.org/2000/svg" viewBox="0 0 128 128"><title>Artboard 111</title><path d="M64,18.863c42.987,20.419,35.344,72.362,15.93,72.362-14.5,0-15.93-12.9-15.93-12.9s-1.433,12.9-15.93,12.9C28.656,91.225,21.013,39.282,64,18.863Z" style="fill:#73bf2d"/><path d="M64,18.863c-.213.1-.4.214-.614.318V80.837A14.4,14.4,0,0,0,64,78.329s1.433,12.9,15.93,12.9C99.344,91.225,106.987,39.282,64,18.863Z" style="fill:#20953d"/><path d="M64.614,17.569c-.008,0-.018,0-.027-.006a1.37,1.37,0,0,0-1.176,0c-.008,0-.018,0-.026.006C35.9,30.626,27.91,56.676,32.121,75.356c2.405,10.673,8.518,17.3,15.949,17.3,7.779,0,12.106-3.489,14.5-7v23.483a1.433,1.433,0,1,0,2.866,0V85.654c2.391,3.516,6.718,7,14.5,7,7.432,0,13.544-6.63,15.949-17.3C100.09,56.676,92.1,30.626,64.614,17.569ZM48.07,89.792c-5.928,0-11.091-5.915-13.154-15.068C31.055,57.6,38.164,33.863,62.567,21.189V44.271A28.551,28.551,0,0,1,48.224,39.1a1.433,1.433,0,0,0-1.749,2.271,32.525,32.525,0,0,0,16.092,5.693V58.9a40.925,40.925,0,0,1-21.246-7.48,1.433,1.433,0,0,0-1.751,2.27,45.36,45.36,0,0,0,23,7.952V72.364a40.928,40.928,0,0,1-21.246-7.479,1.433,1.433,0,0,0-1.751,2.27,45.36,45.36,0,0,0,23,7.952v3.128C62.463,79.09,60.886,89.792,48.07,89.792ZM93.084,74.725c-2.063,9.153-7.226,15.068-13.154,15.068-12.759,0-14.39-10.724-14.5-11.561V75.159a40.383,40.383,0,0,0,22.954-7.974,1.433,1.433,0,1,0-1.668-2.331,37.992,37.992,0,0,1-21.287,7.533V61.7a40.381,40.381,0,0,0,22.954-7.974,1.433,1.433,0,0,0-1.668-2.331,37.991,37.991,0,0,1-21.287,7.534V47.092A28.96,28.96,0,0,0,81.486,41.4a1.433,1.433,0,1,0-1.668-2.331,26.562,26.562,0,0,1-14.385,5.233V21.189C89.837,33.863,96.945,57.6,93.084,74.725Z" style="fill:#182d00"/></svg>