<svg id="Layer_3" data-name="Layer 3" xmlns="http://www.w3.org/2000/svg" viewBox="0 0 128 128"><title>Artboard 99</title><path d="M64.013,98.152c44.762-14.329,0-81.2,0-81.2S19.249,83.823,64.013,98.152Z" style="fill:#73bf2d"/><path d="M63.745,16.967V98.148l.011,0c44.764-14.329,0-81.2,0-81.2Z" style="fill:#20953d"/><path d="M62.58,99.174v11.875a1.433,1.433,0,0,0,2.866,0V99.155c15.471-5.392,22.126-18.05,19.211-36.716-1.815-11.626-7.011-23.593-11.049-31.585-2.279-4.512-4.44-8.261-5.85-10.612a41.659,41.659,0,0,0-2.7-4.261c-.016-.018-.029-.037-.046-.054a1.063,1.063,0,0,0-1-.408h0a1.42,1.42,0,0,0-.5.1c-.03.011-.059.021-.088.034a1.419,1.419,0,0,0-.4.273c-.015.015-.026.032-.041.047a1.416,1.416,0,0,0-.156.18c-1.111,1.66-27.11,40.94-18.342,66.078C47.285,90.286,53.379,95.976,62.58,99.174ZM79.175,51.711l-13.729,8.93V44.479l8.773-5.708A119.277,119.277,0,0,1,79.175,51.711ZM82.322,66.93l-16.876,10.7V64.059l14.581-9.484A66.7,66.7,0,0,1,82.322,66.93ZM80.853,81.258c-2.4,6.917-7.6,11.884-15.406,14.839V81.026l17.031-10.8A32.592,32.592,0,0,1,80.853,81.258Zm-7.834-45.1c-.033.018-.071.02-.1.041l-7.47,4.86v-19.1C67.414,25.246,70.232,30.244,73.019,36.159ZM62.58,21.974V96.1c-7.792-2.951-12.99-7.906-15.4-14.8C40.489,62.106,56.134,32.806,62.58,21.974Z" style="fill:#182d00"/></svg>