<svg id="Layer_3" data-name="Layer 3" xmlns="http://www.w3.org/2000/svg" viewBox="0 0 128 128"><title>Artboard 102</title><path d="M64,98.152c62.251-14.329,0-81.2,0-81.2S1.748,83.823,64,98.152Z" style="fill:#73bf2d"/><path d="M64,98.151c62.22-14.323.062-81.134,0-81.2Z" style="fill:#20953d"/><path d="M62.567,99.27v11.778a1.433,1.433,0,1,0,2.866,0V99.262c20.082-4.942,29.327-15.888,27.431-32.58C91.742,56.8,86.711,45.26,77.913,32.37,76.206,29.87,65.745,15.519,64,15.519a1.43,1.43,0,0,0-1.049.457C61.532,17.5,28.3,53.586,36.07,78.935,39.112,88.86,48.036,95.691,62.567,99.27ZM38.811,78.1a27.3,27.3,0,0,1-.8-11.247l14.5,7.582a1.433,1.433,0,1,0,1.328-2.54l-14.78-7.73a1.406,1.406,0,0,0-.6-.152,56.712,56.712,0,0,1,3.42-10.989l13.827,7.233a1.433,1.433,0,0,0,1.328-2.54l-14-7.324a104.277,104.277,0,0,1,5.89-10.911l9.693,4.98a1.433,1.433,0,0,0,1.31-2.55l-9.472-4.866A159.816,159.816,0,0,1,62.567,20.76V96.316C49.491,92.956,41.491,86.839,38.811,78.1ZM77.516,36.977l-9.452,4.938a1.433,1.433,0,1,0,1.327,2.54l9.657-5.044a104.106,104.106,0,0,1,5.93,10.974l-14.013,7.33a1.433,1.433,0,0,0,1.328,2.54l13.838-7.239a56.613,56.613,0,0,1,3.416,11,1.407,1.407,0,0,0-.607.152l-14.78,7.73a1.433,1.433,0,0,0,1.328,2.54l14.5-7.585a27.354,27.354,0,0,1-.8,11.242c-2.678,8.744-10.679,14.866-23.758,18.226V20.758A159.327,159.327,0,0,1,77.516,36.977Z" style="fill:#182d00"/></svg>