<svg id="Layer_3" data-name="Layer 3" xmlns="http://www.w3.org/2000/svg" viewBox="0 0 128 128"><title>Artboard 104</title><path d="M64,98.152c62.251-14.329,0-81.2,0-81.2S1.746,83.823,64,98.152Z" style="fill:#73bf2d"/><path d="M64,98.151c62.22-14.323.062-81.134,0-81.2Z" style="fill:#20953d"/><path d="M62.567,99.27v11.778a1.433,1.433,0,1,0,2.866,0V99.262c20.083-4.942,29.328-15.888,27.432-32.58C91.743,56.8,86.711,45.26,77.912,32.37,76.2,29.87,65.743,15.519,64,15.519a1.435,1.435,0,0,0-1.049.457C61.531,17.5,28.3,53.586,36.069,78.935,39.112,88.86,48.035,95.692,62.567,99.27ZM89.2,78.072c-2.671,8.755-10.673,14.882-23.763,18.244V20.75C73.058,29.694,95.3,58.069,89.2,78.072ZM62.567,20.758V96.316C49.49,92.956,41.49,86.838,38.809,78.1,32.711,58.207,54.945,29.738,62.567,20.758Z" style="fill:#182d00"/></svg>