<svg id="Layer_3" data-name="Layer 3" xmlns="http://www.w3.org/2000/svg" viewBox="0 0 128 128"><title>Artboard 97</title><path d="M64.012,98.152c44.763-14.329,0-81.2,0-81.2S19.249,83.823,64.012,98.152Z" style="fill:#73bf2d"/><path d="M64,16.967V98.148l.011,0c44.763-14.329,0-81.2,0-81.2Z" style="fill:#20953d"/><path d="M62.579,99.174v11.875a1.433,1.433,0,0,0,2.866,0V99.155c15.471-5.392,22.127-18.05,19.213-36.716-1.816-11.626-7.011-23.593-11.049-31.585-2.279-4.512-4.439-8.261-5.85-10.612-2.834-4.724-2.834-4.724-3.748-4.724a1.433,1.433,0,0,0-1.191.636C61.71,17.815,35.71,57.1,44.476,82.233,47.285,90.286,53.379,95.976,62.579,99.174ZM80.845,81.281c-2.405,6.9-7.6,11.863-15.4,14.816V21.97C71.894,32.788,87.543,62.053,80.845,81.281Zm-18.265-59.3V96.1c-7.792-2.951-12.99-7.906-15.4-14.8C40.49,62.107,56.133,32.811,62.579,21.977Z" style="fill:#182d00"/></svg>