<svg id="Layer_3" data-name="Layer 3" xmlns="http://www.w3.org/2000/svg" viewBox="0 0 128 128"><title>Artboard 112</title><path d="M44.778,79.909c52.8-12.153,0-68.871,0-68.871S-8.022,67.756,44.778,79.909Z" style="fill:#73bf2d"/><path d="M44.778,11.038V79.909C97.58,67.756,44.778,11.038,44.778,11.038Z" style="fill:#20953d"/><path d="M87.944,83.234c37.306-8.586,0-48.66,0-48.66S50.638,74.648,87.944,83.234Z" style="fill:#73bf2d"/><path d="M87.944,34.659v48.49C125.12,74.593,87.944,34.659,87.944,34.659Z" style="fill:#20953d"/><path d="M89.377,105.323V84.352c8.66-2.226,14-6.413,15.854-12.465,4.752-15.5-15.379-37.366-16.239-38.29-.005-.006-.013-.007-.018-.013a1.417,1.417,0,0,0-2.06,0c-.005.005-.013.007-.018.013-.861.924-20.991,22.785-16.239,38.29,1.856,6.053,7.194,10.239,15.854,12.465v20.719c-9.66-.767-19.349-.812-21.427-.812-1.894,0-10.117.038-18.874.626V81.027c12.307-3.066,19.873-8.895,22.466-17.353C75.3,42.054,47.033,11.359,45.826,10.062c-.005-.006-.013-.007-.018-.013a1.418,1.418,0,0,0-2.058,0c-.006.006-.015.008-.021.014-1.206,1.3-29.475,31.994-22.848,53.613,2.593,8.459,10.159,14.287,22.465,17.353V105.1c-10.718.869-21.3,2.635-21.3,6.23,0,6.869,38.633,7.068,43.038,7.068s43.04-.2,43.04-7.068C108.125,108.018,99.161,106.26,89.377,105.323ZM102.49,71.048c-1.493,4.868-5.926,8.32-13.113,10.315V73.423l9.142-6.3a1.433,1.433,0,1,0-1.626-2.359l-7.516,5.178v-8.61l7.286-5.022a1.433,1.433,0,1,0-1.626-2.359l-5.66,3.9v-7.42l3.066-2.113a1.433,1.433,0,1,0-1.626-2.359l-1.44.992V38.44C94.568,44.773,105.826,60.175,102.49,71.048Zm-29.092,0C70.062,60.175,81.32,44.773,86.511,38.44v8.512l-1.44-.992a1.433,1.433,0,0,0-1.626,2.359l3.066,2.113v7.42l-5.66-3.9a1.433,1.433,0,1,0-1.626,2.359l7.286,5.022v8.609L78.29,64.277a1.433,1.433,0,1,0-1.626,2.359l9.847,6.786v7.941C79.324,79.368,74.891,75.916,73.4,71.048Zm-7.463-8.214c-2.23,7.277-8.871,12.394-19.725,15.238V65.71l13.2-9.094a1.433,1.433,0,1,0-1.626-2.359L46.211,62.229V48.6l10.572-7.286a1.433,1.433,0,1,0-1.626-2.359l-8.946,6.165V33.168L50.807,30a1.433,1.433,0,1,0-1.626-2.359l-2.971,2.046V14.863C52.983,22.914,70.982,46.373,65.936,62.834Zm-42.314,0C18.576,46.388,36.573,22.92,43.345,14.864V29.688l-2.968-2.045A1.433,1.433,0,1,0,38.751,30l4.594,3.166V45.116L34.4,38.952a1.433,1.433,0,1,0-1.626,2.359L43.345,48.6V62.229L30.777,53.568a1.433,1.433,0,1,0-1.626,2.359L43.345,65.71V78.073C32.493,75.228,25.852,70.113,23.621,62.837Zm41.463,52.692c-22.6,0-37.358-2.391-39.937-4.2,1.619-1.137,8.046-2.5,18.2-3.361v2.327a1.433,1.433,0,1,0,2.866,0v-2.549c5.425-.381,11.759-.619,18.874-.619,8.267,0,15.471.322,21.427.816v2.468a1.433,1.433,0,1,0,2.866,0V108.2c8.669.86,14.168,2.087,15.647,3.125C102.444,113.137,87.688,115.529,65.085,115.529Z" style="fill:#182d00"/></svg>