<svg id="Layer_3" data-name="Layer 3" xmlns="http://www.w3.org/2000/svg" viewBox="0 0 128 128"><title>Artboard 107</title><path d="M64,43.96c20.584-6.588,0-37.337,0-37.337S43.416,37.372,64,43.96Z" style="fill:#73bf2d"/><path d="M64,6.623V43.96C84.584,37.372,64,6.623,64,6.623Z" style="fill:#20953d"/><path d="M63.958,61.458C65.4,39.894,29.235,47.734,29.235,47.736S50.264,78.179,63.958,61.458Z" style="fill:#73bf2d"/><path d="M29.155,47.736,64,61.145C50.46,77.991,29.155,47.736,29.155,47.736Z" style="fill:#20953d"/><path d="M64.042,61.458C62.6,39.894,98.765,47.734,98.765,47.736S77.736,78.179,64.042,61.458Z" style="fill:#73bf2d"/><path d="M98.845,47.736,64,61.145C77.54,77.991,98.845,47.736,98.845,47.736Z" style="fill:#20953d"/><path d="M63.958,90.116C65.4,68.552,29.235,76.392,29.235,76.394S50.264,106.838,63.958,90.116Z" style="fill:#73bf2d"/><path d="M29.155,76.38,64,89.79C50.46,106.635,29.155,76.38,29.155,76.38Z" style="fill:#20953d"/><path d="M64.042,90.116C62.6,68.552,98.765,76.392,98.765,76.394S77.736,106.838,64.042,90.116Z" style="fill:#73bf2d"/><path d="M98.845,76.38,64,89.79C77.54,106.635,98.845,76.38,98.845,76.38Z" style="fill:#20953d"/><path d="M73.632,67.907c12.794,0,25.766-18.566,26.313-19.357a1.434,1.434,0,0,0,.253-.814c0-1.376-.61-1.459-5.357-2.116a73.635,73.635,0,0,0-9.8-.708c-8.958,0-15.356,1.983-19.015,5.894-.211.225-.4.466-.589.7V44.956A13.151,13.151,0,0,0,73.714,36.9c4.157-11.92-8-30.294-8.523-31.071a1.488,1.488,0,0,0-2.382,0C62.29,6.6,50.128,24.977,54.286,36.9a13.151,13.151,0,0,0,8.281,8.059v6.554c-.192-.237-.378-.478-.589-.7-3.659-3.911-10.057-5.894-19.015-5.894a73.638,73.638,0,0,0-9.8.708c-4.746.656-5.357.74-5.357,2.116a1.424,1.424,0,0,0,.255.814c.546.791,13.517,19.354,26.311,19.357h0a12.635,12.635,0,0,0,8.2-3.025V80.167c-.192-.237-.378-.478-.589-.7-3.659-3.911-10.057-5.894-19.015-5.894a73.655,73.655,0,0,0-9.8.708c-4.746.656-5.357.74-5.357,2.116a1.424,1.424,0,0,0,.255.814C28.6,78,41.574,96.562,54.368,96.565h0a12.635,12.635,0,0,0,8.2-3.025v27.8a1.433,1.433,0,1,0,2.866,0V93.54a12.64,12.64,0,0,0,8.2,3.025C86.426,96.565,99.4,78,99.945,77.208a1.434,1.434,0,0,0,.253-.814c0-1.376-.61-1.46-5.357-2.116a73.652,73.652,0,0,0-9.8-.708c-8.958,0-15.356,1.983-19.015,5.894-.211.225-.4.466-.589.7V64.882A12.64,12.64,0,0,0,73.632,67.907ZM68.115,52.763c3.051-3.262,8.9-4.986,16.922-4.986a71.6,71.6,0,0,1,11.206.952C92.7,53.316,82.762,65.041,73.632,65.041A10.008,10.008,0,0,1,66.5,62.008L84.7,54.818a1.432,1.432,0,0,0-1.052-2.665l-18.18,7.185A10.086,10.086,0,0,1,68.115,52.763ZM56.992,35.955C54.02,27.438,61.081,14.239,64,9.337c2.92,4.9,9.981,18.089,7.008,26.615a9.966,9.966,0,0,1-5.575,5.916v-18.8a1.433,1.433,0,1,0-2.866,0v18.8A9.97,9.97,0,0,1,56.992,35.955ZM54.368,65.041c-9.129,0-19.071-11.725-22.612-16.312a71.6,71.6,0,0,1,11.206-.952c8.019,0,13.871,1.724,16.922,4.986a10.091,10.091,0,0,1,2.65,6.592l-18.223-7.2a1.432,1.432,0,0,0-1.052,2.665l18.224,7.2a10,10,0,0,1-7.112,3.022Zm0,28.658h0c-9.129,0-19.071-11.725-22.612-16.312a71.6,71.6,0,0,1,11.206-.951c8.019,0,13.871,1.724,16.922,4.986a9.777,9.777,0,0,1,2.544,5.489L44.311,79.75a1.432,1.432,0,1,0-1.052,2.664l18.966,7.5A10.339,10.339,0,0,1,54.371,93.7ZM68.115,81.422c3.051-3.262,8.9-4.986,16.922-4.986a71.6,71.6,0,0,1,11.206.951C92.7,81.974,82.762,93.7,73.632,93.7a10.349,10.349,0,0,1-7.869-3.8L84.7,82.414a1.432,1.432,0,1,0-1.052-2.664L65.574,86.893A9.773,9.773,0,0,1,68.115,81.422Z" style="fill:#182d00"/></svg>