<svg id="Layer_3" data-name="Layer 3" xmlns="http://www.w3.org/2000/svg" viewBox="0 0 128 128"><title>Artboard 105</title><path d="M46.014,60.972a39.726,39.726,0,0,0-6.093-1.637c-13.555-2.589-29.4.316-29.4.316S25.928,119.307,56.67,89.125a42.5,42.5,0,0,0,1.626-5.73Z" style="fill:#73bf2d"/><path d="M10.528,59.65,56.751,88.88c-.029.084-.048.161-.078.245C25.93,119.307,10.519,59.651,10.519,59.651Z" style="fill:#20953d"/><path d="M81.986,60.972a39.706,39.706,0,0,1,6.091-1.637c13.555-2.589,29.4.316,29.4.316S102.07,119.307,71.328,89.125a42.577,42.577,0,0,1-1.625-5.73Z" style="fill:#73bf2d"/><path d="M117.472,59.65,71.249,88.88c.029.084.048.161.078.245,30.742,30.182,46.153-29.474,46.153-29.474Z" style="fill:#20953d"/><path d="M64,85.11c41.983-9.664,0-54.761,0-54.761S22.017,75.447,64,85.11Z" style="fill:#73bf2d"/><path d="M64,85.11c41.966-9.661.03-54.728,0-54.76Z" style="fill:#20953d"/><path d="M118.893,59.42a1.417,1.417,0,0,0-.607-.952c-.039-.027-.088-.034-.13-.056a1.431,1.431,0,0,0-.393-.16c-.009,0-.015-.008-.024-.01-.657-.12-16.267-2.925-29.93-.315a42.59,42.59,0,0,0-4.8,1.224C79.1,44.63,65.783,30.162,65.047,29.372c-.006-.006-.014-.008-.02-.014a1.417,1.417,0,0,0-2.058,0c-.006.006-.014.008-.02.014-.736.79-14.048,15.258-17.96,29.778a42.67,42.67,0,0,0-4.8-1.224c-13.662-2.608-29.271.195-29.929.315-.009,0-.016.008-.024.01a1.434,1.434,0,0,0-.371.151,1.407,1.407,0,0,0-.153.066,1.415,1.415,0,0,0-.607.951c-.006.038.006.077,0,.115a1.426,1.426,0,0,0,.021.449c0,.008,0,.017,0,.025C9.486,61.379,18,93.618,35.484,98.474a16.47,16.47,0,0,0,4.444.61c5.473,0,11.137-2.751,16.9-8.155l6.4,4.087c.014.009.03.012.044.02a1.393,1.393,0,0,0,.129.066c.034.016.067.026.1.04l.008,0c.039.014.076.034.116.045a1.432,1.432,0,0,0,.349.049l.021,0h0l.021,0a1.433,1.433,0,0,0,.349-.049c.04-.011.077-.03.116-.045l.009,0c.035-.013.069-.024.1-.04a1.391,1.391,0,0,0,.129-.066c.014-.008.03-.011.044-.02l6.4-4.087c5.763,5.4,11.427,8.157,16.9,8.155a16.532,16.532,0,0,0,4.444-.61c17.485-4.856,26-37.095,26.354-38.465,0-.008,0-.017,0-.025a1.429,1.429,0,0,0,.022-.453C118.888,59.494,118.9,59.457,118.893,59.42ZM88.345,60.742c9.235-1.765,19.678-.9,25.121-.228L95.158,72.208l.283-8.075a1.433,1.433,0,0,0-1.382-1.482,1.4,1.4,0,0,0-1.483,1.381l-.352,10.049-8.534,5.45.373-10.608a1.4,1.4,0,0,0-.069-.415,24.662,24.662,0,0,0-.343-6.559A39.508,39.508,0,0,1,88.345,60.742ZM72.123,86.92q-.427-1.366-.737-2.662a21.953,21.953,0,0,0,9.522-7.17l-.152,4.318ZM47.242,81.406,47.09,77.09a21.955,21.955,0,0,0,9.522,7.169q-.311,1.3-.738,2.661Zm33.3-9.958c-1.717,5.6-6.8,9.572-15.109,11.823V73.009L75.8,65.865a1.433,1.433,0,1,0-1.626-2.359l-8.739,6.022V59.4l8.278-5.7a1.433,1.433,0,0,0-1.626-2.359L65.431,55.92V34.2C71.131,41.083,84.39,58.891,80.541,71.447ZM62.566,55.92l-6.651-4.582A1.433,1.433,0,1,0,54.289,53.7l8.277,5.7V69.528l-9.533-6.57a1.433,1.433,0,0,0-1.626,2.359l11.159,7.692V83.27c-8.307-2.252-13.391-6.222-15.108-11.82C43.609,58.9,56.865,41.09,62.566,34.2ZM59.31,85.273q1.551.522,3.255.955v4.965l-4.2-2.68Q58.919,86.852,59.31,85.273Zm6.121.955q1.7-.433,3.256-.956.394,1.58.94,3.241l-4.2,2.68ZM39.653,60.742a39.55,39.55,0,0,1,4.694,1.208A24.655,24.655,0,0,0,44,68.515a1.394,1.394,0,0,0-.068.409l.373,10.608-8.534-5.451-.352-10.049a1.38,1.38,0,0,0-1.483-1.381,1.433,1.433,0,0,0-1.382,1.482l.283,8.075L14.532,60.514C19.972,59.838,30.409,58.978,39.653,60.742Zm-3.4,34.971C23.61,92.2,15.73,71.443,12.993,62.931L31.3,74.622l-7.443,3.14A1.432,1.432,0,1,0,24.968,80.4l9.261-3.907,8.535,5.451L32.1,86.444a1.433,1.433,0,0,0,1.114,2.642L45.7,83.82l8.65,5.525C47.978,95.133,41.9,97.278,36.253,95.713Zm55.492,0C86.1,97.28,80.02,95.134,73.651,89.344L82.3,83.82l12.487,5.266A1.433,1.433,0,0,0,95.9,86.444l-10.668-4.5,8.536-5.451,9.261,3.907a1.432,1.432,0,1,0,1.114-2.639L96.7,74.622l18.305-11.691C112.269,71.443,104.389,92.2,91.745,95.713Z" style="fill:#182d00"/></svg>