<svg id="Layer_3" data-name="Layer 3" xmlns="http://www.w3.org/2000/svg" viewBox="0 0 128 128"><title>Artboard 103</title><path d="M64,98.152c62.253-14.329,0-81.2,0-81.2S1.749,83.823,64,98.152Z" style="fill:#73bf2d"/><path d="M64.05,98.161c62.22-14.323.062-81.134,0-81.2Z" style="fill:#20953d"/><path d="M62.567,99.27v11.778a1.433,1.433,0,1,0,2.866,0V99.27c14.532-3.579,23.455-10.41,26.5-20.335C99.7,53.586,66.466,17.5,65.049,15.976c-.006-.006-.014-.008-.02-.014a1.417,1.417,0,0,0-2.058,0c-.006.006-.015.008-.02.014C61.532,17.5,28.3,53.586,36.07,78.936,39.113,88.86,48.036,95.692,62.567,99.27ZM38.81,78.1a28.779,28.779,0,0,1-.459-13.512L62.567,81.276v15.04C49.491,92.956,41.492,86.839,38.81,78.1Zm5.211-29.781L62.567,61.1V77.8L39.04,61.581c-.012-.008-.027-.009-.039-.017A67.535,67.535,0,0,1,44.021,48.317ZM51.9,34.856l10.671,7.211V57.619L45.336,45.743A123.052,123.052,0,0,1,51.9,34.856ZM82.664,45.744,65.432,57.619V42.061l10.621-7.279A123.194,123.194,0,0,1,82.664,45.744ZM89,61.565c-.011.008-.025.008-.037.016L65.432,77.8V61.1L83.979,48.318A67.527,67.527,0,0,1,89,61.565ZM65.432,38.587V20.761c2.156,2.54,5.475,6.638,9,11.66Zm-2.866.021-9.048-6.113c3.541-5.056,6.882-9.181,9.048-11.734ZM89.189,78.1c-2.68,8.741-10.679,14.859-23.756,18.218V81.276L89.648,64.588A28.776,28.776,0,0,1,89.189,78.1Z" style="fill:#182d00"/></svg>