<svg id="Layer_3" data-name="Layer 3" xmlns="http://www.w3.org/2000/svg" viewBox="0 0 128 128"><title>Artboard 98</title><path d="M64.012,98.152c44.763-14.329,0-81.2,0-81.2S19.249,83.823,64.012,98.152Z" style="fill:#73bf2d"/><path d="M64,16.967V98.148l.011,0c44.763-14.329,0-81.2,0-81.2Z" style="fill:#20953d"/><path d="M62.579,99.174v11.875a1.433,1.433,0,1,0,2.866,0V99.155c15.471-5.392,22.127-18.05,19.213-36.716-1.816-11.626-7.011-23.593-11.049-31.585-2.279-4.512-4.439-8.261-5.85-10.612a40.728,40.728,0,0,0-2.714-4.275c-.011-.012-.019-.025-.031-.036a1.066,1.066,0,0,0-1-.412h0a1.417,1.417,0,0,0-.5.1c-.033.012-.064.022-.1.037a1.42,1.42,0,0,0-.4.268c-.02.019-.034.04-.052.06a1.418,1.418,0,0,0-.147.17C61.71,17.815,35.71,57.1,44.476,82.233,47.285,90.286,53.379,95.976,62.579,99.174Zm-15.4-17.881a33,33,0,0,1-1.6-11.924L62.579,81.079V96.1C54.788,93.146,49.59,88.191,47.183,81.292Zm1.686-29.5,13.71,9.448V77.6L45.8,66.037A72.617,72.617,0,0,1,48.869,51.794Zm5.82-14.871,7.89,5.437v15.4L49.8,48.958A129.193,129.193,0,0,1,54.689,36.923ZM78.233,48.95,65.445,57.763v-15.4l7.9-5.445A128.791,128.791,0,0,1,78.233,48.95Zm4,17.125a1.339,1.339,0,0,0-.178.077L65.445,77.6V61.243l13.722-9.457A72.407,72.407,0,0,1,82.235,66.076ZM62.579,38.88,55.935,34.3c2.475-5.09,4.895-9.384,6.644-12.325Zm18.265,42.4c-2.405,6.9-7.6,11.863-15.4,14.816V81.08l17-11.715A33.076,33.076,0,0,1,80.845,81.281ZM72.1,34.3l-6.654,4.585V21.97C67.2,24.909,69.621,29.2,72.1,34.3Z" style="fill:#182d00"/></svg>