<svg id="Layer_3" data-name="Layer 3" xmlns="http://www.w3.org/2000/svg" viewBox="0 0 128 128"><title>Artboard 100</title><path d="M64,98.132c44.764-14.329,0-81.2,0-81.2S19.238,83.8,64,98.132Z" style="fill:#73bf2d"/><path d="M64,16.967V98.148l.011,0c44.764-14.329,0-81.2,0-81.2Z" style="fill:#20953d"/><path d="M62.567,99.153v11.875a1.433,1.433,0,0,0,2.866,0V99.154c9.2-3.2,15.295-8.887,18.1-16.94C92.3,57.075,66.3,17.795,65.189,16.135a1.487,1.487,0,0,0-2.382,0C61.7,17.795,35.7,57.076,44.465,82.214,47.272,90.267,53.366,95.957,62.567,99.153ZM64,19.6c5.049,8.123,24.091,40.86,16.828,61.675-2.407,6.9-7.605,11.854-15.4,14.8V77.64a9.522,9.522,0,0,0,5.81-2.171c2.166-1.877,3.266-4.778,3.266-8.623a1.433,1.433,0,0,0-2.866,0c0,2.965-.761,5.131-2.258,6.441a6.614,6.614,0,0,1-3.952,1.482V40.816a1.433,1.433,0,0,0-2.866,0V65.426a8.523,8.523,0,0,1-5.539-2.305c-2.172-2.193-2.964-5.861-2.354-10.9a1.434,1.434,0,0,0-2.846-.344c-.719,5.971.353,10.441,3.19,13.287A11.365,11.365,0,0,0,62.567,68.3v27.78c-7.792-2.951-12.988-7.906-15.4-14.8C39.909,60.458,58.948,27.721,64,19.6Z" style="fill:#182d00"/></svg>