<svg xmlns="http://www.w3.org/2000/svg" data-name="Layer 3" viewBox="0 0 128 128"><path fill="#73bf2d" d="M79.7 43.911a15.7 15.7 0 10-31.409 0C48.3 55.016 64 67.2 64 67.2s15.7-13.258 15.7-23.289z"/><path fill="#20953d" d="M79.7 43.911A15.706 15.706 0 0064 28.205V67.2s15.7-13.258 15.7-23.289z"/><path fill="#73bf2d" d="M87.285 83.845a15.7 15.7 0 100-31.409c-11.1 0-23.285 15.7-23.285 15.7s13.254 15.709 23.285 15.709zM40.715 83.845a15.7 15.7 0 110-31.409c11.1 0 23.285 15.7 23.285 15.7S50.746 83.845 40.715 83.845z"/><path fill="#20953d" d="M87.284 83.844a15.705 15.705 0 0015.706-15.7H64s13.254 15.7 23.284 15.7zM40.716 83.844a15.705 15.705 0 01-15.706-15.7H64s-13.254 15.7-23.284 15.7z"/><path fill="#182d00" d="M87.285 51a19.868 19.868 0 00-9.7 3.019c2.071-3.323 3.556-6.844 3.556-10.111a17.138 17.138 0 10-34.275 0 20.026 20.026 0 003.118 9.869A19.458 19.458 0 0040.715 51a17.138 17.138 0 100 34.275c7.95 0 17.408-8.788 21.852-13.433v27.95a1.433 1.433 0 102.866 0V71.845c4.444 4.645 13.9 13.433 21.852 13.433a17.138 17.138 0 100-34.275zm14.2 15.7H67.094c3.782-4.238 12.41-12.837 20.191-12.837a14.291 14.291 0 0114.199 12.843zM78.272 43.911c0 6.982-8.572 15.992-12.839 20.045V29.711a14.293 14.293 0 0112.839 14.2zm-28.544 0a14.293 14.293 0 0112.839-14.2V64.1c-.267-.239-.553-.5-.852-.775a66.314 66.314 0 00-3.341-3.308c-4.11-4.364-8.646-10.456-8.646-16.106zm-9.013 9.958c5.425 0 11.263 4.184 15.585 8.155a66.292 66.292 0 003.383 3.349c.45.478.858.924 1.223 1.333h-34.39a14.291 14.291 0 0114.199-12.837zm0 28.544a14.292 14.292 0 01-14.2-12.84h34.247c-4.049 4.266-13.056 12.839-20.047 12.839zm46.57 0c-6.982 0-15.992-8.573-20.045-12.84h34.244a14.292 14.292 0 01-14.199 12.839z"/></svg>