<svg xmlns="http://www.w3.org/2000/svg" data-name="Layer 3" viewBox="0 0 128 128"><path fill="#73bf2d" d="M64 98.132c44.764-14.329 0-81.2 0-81.2s-44.762 66.868 0 81.2z"/><path fill="#20953d" d="M64 16.967v81.181h.011c44.764-14.329 0-81.2 0-81.2z"/><path fill="#182d00" d="M62.567 99.153v11.875a1.433 1.433 0 0 0 2.866 0V99.154c9.2-3.2 15.295-8.887 18.1-16.94C92.3 57.075 66.3 17.795 65.189 16.135a1.487 1.487 0 0 0-2.382 0C61.7 17.795 35.7 57.076 44.465 82.214c2.807 8.053 8.901 13.743 18.102 16.939zM64 19.6c5.049 8.123 24.091 40.86 16.828 61.675-2.407 6.9-7.605 11.854-15.4 14.8V77.64a9.522 9.522 0 0 0 5.81-2.171c2.166-1.877 3.266-4.778 3.266-8.623a1.433 1.433 0 0 0-2.866 0c0 2.965-.761 5.131-2.258 6.441a6.614 6.614 0 0 1-3.952 1.482V40.816a1.433 1.433 0 0 0-2.866 0v24.61a8.523 8.523 0 0 1-5.539-2.305c-2.172-2.193-2.964-5.861-2.354-10.9a1.434 1.434 0 0 0-2.846-.344c-.719 5.971.353 10.441 3.19 13.287a11.365 11.365 0 0 0 7.554 3.136v27.78c-7.792-2.951-12.988-7.906-15.4-14.8C39.909 60.458 58.948 27.721 64 19.6z"/></svg>