<svg xmlns="http://www.w3.org/2000/svg" data-name="Layer 3" viewBox="0 0 128 128"><path fill="#73bf2d" d="M44.778 79.909c52.8-12.153 0-68.871 0-68.871s-52.8 56.718 0 68.871z"/><path fill="#20953d" d="M44.778 11.038v68.871c52.802-12.153 0-68.871 0-68.871z"/><path fill="#73bf2d" d="M87.944 83.234c37.306-8.586 0-48.66 0-48.66s-37.306 40.074 0 48.66z"/><path fill="#20953d" d="M87.944 34.659v48.49c37.176-8.556 0-48.49 0-48.49z"/><path fill="#182d00" d="M89.377 105.323V84.352c8.66-2.226 14-6.413 15.854-12.465 4.752-15.5-15.379-37.366-16.239-38.29-.005-.006-.013-.007-.018-.013a1.417 1.417 0 00-2.06 0c-.005.005-.013.007-.018.013-.861.924-20.991 22.785-16.239 38.29 1.856 6.053 7.194 10.239 15.854 12.465v20.719c-9.66-.767-19.349-.812-21.427-.812-1.894 0-10.117.038-18.874.626V81.027c12.307-3.066 19.873-8.895 22.466-17.353 6.624-21.62-21.643-52.315-22.85-53.612-.005-.006-.013-.007-.018-.013a1.418 1.418 0 00-2.058 0c-.006.006-.015.008-.021.014-1.206 1.3-29.475 31.994-22.848 53.613 2.593 8.459 10.159 14.287 22.465 17.353V105.1c-10.718.869-21.3 2.635-21.3 6.23 0 6.869 38.633 7.068 43.038 7.068s43.04-.2 43.04-7.068c.001-3.312-8.963-5.07-18.747-6.007zm13.113-34.275c-1.493 4.868-5.926 8.32-13.113 10.315v-7.94l9.142-6.3a1.433 1.433 0 10-1.626-2.359l-7.516 5.178v-8.61l7.286-5.022a1.433 1.433 0 10-1.626-2.359l-5.66 3.9v-7.42l3.066-2.113a1.433 1.433 0 10-1.626-2.359l-1.44.992V38.44c5.191 6.333 16.449 21.735 13.113 32.608zm-29.092 0C70.062 60.175 81.32 44.773 86.511 38.44v8.512l-1.44-.992a1.433 1.433 0 00-1.626 2.359l3.066 2.113v7.42l-5.66-3.9a1.433 1.433 0 10-1.626 2.359l7.286 5.022v8.609l-8.221-5.665a1.433 1.433 0 10-1.626 2.359l9.847 6.786v7.941c-7.187-1.995-11.62-5.447-13.111-10.315zm-7.463-8.214c-2.23 7.277-8.871 12.394-19.725 15.238V65.71l13.2-9.094a1.433 1.433 0 10-1.626-2.359l-11.573 7.972V48.6l10.572-7.286a1.433 1.433 0 10-1.626-2.359l-8.946 6.165V33.168L50.807 30a1.433 1.433 0 10-1.626-2.359l-2.971 2.046V14.863c6.773 8.051 24.772 31.51 19.726 47.971zm-42.314 0c-5.045-16.446 12.952-39.914 19.724-47.97v14.824l-2.968-2.045A1.433 1.433 0 1038.751 30l4.594 3.166v11.95L34.4 38.952a1.433 1.433 0 10-1.626 2.359L43.345 48.6v13.629l-12.568-8.661a1.433 1.433 0 10-1.626 2.359l14.194 9.783v12.363c-10.852-2.845-17.493-7.96-19.724-15.236zm41.463 52.692c-22.6 0-37.358-2.391-39.937-4.2 1.619-1.137 8.046-2.5 18.2-3.361v2.327a1.433 1.433 0 102.866 0v-2.549c5.425-.381 11.759-.619 18.874-.619 8.267 0 15.471.322 21.427.816v2.468a1.433 1.433 0 102.866 0V108.2c8.669.86 14.168 2.087 15.647 3.125-2.583 1.812-17.339 4.204-39.942 4.204z"/></svg>