<svg id="Layer_3" data-name="Layer 3" xmlns="http://www.w3.org/2000/svg" viewBox="0 0 128 128"><title>Artboard 108</title><path d="M64,89.375S90.27,72.656,90.27,46.864C90.27,24.093,64,18.684,64,18.684S37.73,24.093,37.73,46.864C37.73,72.656,64,89.375,64,89.375Z" style="fill:#73bf2d"/><path d="M90.27,46.864C90.27,24.093,64,18.684,64,18.684V89.375S90.27,72.656,90.27,46.864Z" style="fill:#20953d"/><path d="M64,110.749a1.432,1.432,0,0,0,1.433-1.433V90.145C69.63,87.3,91.7,71.16,91.7,46.864c0-23.665-27.141-29.527-27.416-29.583-.047-.01-.1,0-.143,0a.376.376,0,0,0-.292,0,1.41,1.41,0,0,0-.144,0C63.436,17.337,36.3,23.2,36.3,46.864c0,24.3,22.07,40.432,26.268,43.281v19.171A1.432,1.432,0,0,0,64,110.749ZM88.837,46.864c0,20.339-17.2,35.082-23.405,39.738V20.54C71.1,22.2,88.837,28.824,88.837,46.864Zm-49.673,0c0-18.271,17.7-24.733,23.4-26.342V86.6C56.361,81.945,39.163,67.2,39.163,46.864Z" style="fill:#182d00"/><path d="M45.3,37.466l10.8,6.479a1.433,1.433,0,0,0,1.475-2.457l-10.8-6.479A1.433,1.433,0,0,0,45.3,37.466Z" style="fill:#182d00"/><path d="M57.571,52.129l-10.8-6.479A1.433,1.433,0,0,0,45.3,48.108l10.8,6.479a1.433,1.433,0,0,0,1.475-2.457Z" style="fill:#182d00"/><path d="M57.473,62.771l-10.8-6.479A1.433,1.433,0,1,0,45.2,58.75L56,65.229a1.433,1.433,0,1,0,1.475-2.457Z" style="fill:#182d00"/><path d="M70.375,44.149a1.427,1.427,0,0,0,.736-.2l10.8-6.479a1.433,1.433,0,0,0-1.475-2.457l-10.8,6.479a1.433,1.433,0,0,0,.739,2.661Z" style="fill:#182d00"/><path d="M70.375,54.791a1.428,1.428,0,0,0,.736-.2l10.8-6.479a1.433,1.433,0,0,0-1.475-2.457l-10.8,6.479a1.433,1.433,0,0,0,.739,2.662Z" style="fill:#182d00"/><path d="M80.534,56.293l-10.8,6.479a1.433,1.433,0,1,0,1.475,2.457l10.8-6.479a1.433,1.433,0,0,0-1.475-2.457Z" style="fill:#182d00"/></svg>