<svg xmlns="http://www.w3.org/2000/svg" x="0" y="0" xml:space="preserve" viewBox="0 0 64 64"><path d="M31.991 44.988c-6.065 0-11-4.935-11-11s4.935-11 11-11 11 4.935 11 11-4.934 11-11 11zm0-20c-4.963 0-9 4.037-9 9s4.037 9 9 9 9-4.037 9-9-4.037-9-9-9z"/><path d="M29.991 38.988a1 1 0 0 1-1-1v-9a1 1 0 1 1 2 0v9a1 1 0 0 1-1 1zM32.991 33.987a1 1 0 1 1 0-2 1 1 0 0 0 0-1.999 1 1 0 1 1 0-2c1.654 0 3 1.346 3 2.999 0 1.655-1.345 3-3 3z"/><path d="M33.49 38.988a1 1 0 1 1 0-2 1.502 1.502 0 0 0 0-3.002 1 1 0 1 1 0-2 3.505 3.505 0 0 1 3.501 3.502c0 1.93-1.57 3.5-3.501 3.5zM32.991 29.988h-4a1 1 0 1 1 0-2h4a1 1 0 1 1 0 2z"/><path d="M33.49 38.988h-4.499a1 1 0 1 1 0-2h4.499a1 1 0 1 1 0 2zM29.991 33.988a1 1 0 0 1-.001-2l3.499-.002h.001a1 1 0 0 1 .001 2l-3.5.002zM31.991 29.988a1 1 0 0 1-1-1v-1.001a1 1 0 1 1 2 0v1.001a1 1 0 0 1-1 1z"/><path d="M31.991 39.988a1 1 0 0 1-1-1v-1a1 1 0 1 1 2 0v1a1 1 0 0 1-1 1z"/><g><path d="M7.991 18.988a1 1 0 0 1-1-1v-4a1 1 0 1 1 2 0v4a1 1 0 0 1-1 1zM13.991 18.988c-1.654 0-3-1.346-3-3s1.346-3 3-3 3 1.346 3 3-1.345 3-3 3zm0-4a1 1 0 1 0 0 2 1 1 0 0 0 0-2zM19.991 18.988a1 1 0 0 1-1-1v-4a1 1 0 1 1 2 0v4a1 1 0 0 1-1 1zM25.991 18.988c-1.654 0-3-1.346-3-3s1.346-3 3-3 3 1.346 3 3-1.345 3-3 3zm0-4a1 1 0 1 0 0 2 1 1 0 0 0 0-2zM31.991 18.988a1 1 0 0 1-1-1v-4a1 1 0 1 1 2 0v4a1 1 0 0 1-1 1zM37.991 18.988c-1.654 0-3-1.346-3-3s1.346-3 3-3 3 1.346 3 3-1.345 3-3 3zm0-4a1 1 0 1 0 0 2 1 1 0 0 0 0-2zM43.991 18.988a1 1 0 0 1-1-1v-4a1 1 0 1 1 2 0v4a1 1 0 0 1-1 1zM49.991 18.988c-1.654 0-3-1.346-3-3s1.346-3 3-3 3 1.346 3 3-1.345 3-3 3zm0-4a1 1 0 1 0 0 2 1 1 0 0 0 0-2zM55.991 18.988a1 1 0 0 1-1-1v-4a1 1 0 1 1 2 0v4a1 1 0 0 1-1 1zM7.991 36.988a1 1 0 0 1-1-1v-4a1 1 0 1 1 2 0v4a1 1 0 0 1-1 1zM13.991 36.988c-1.654 0-3-1.346-3-3s1.346-3 3-3 3 1.346 3 3-1.345 3-3 3zm0-4a1 1 0 1 0 0 2 1 1 0 0 0 0-2zM13.991 27.988a1 1 0 0 1-1-1v-4a1 1 0 1 1 2 0v4a1 1 0 0 1-1 1zM49.991 27.988a1 1 0 0 1-1-1v-4a1 1 0 1 1 2 0v4a1 1 0 0 1-1 1zM13.991 45.988a1 1 0 0 1-1-1v-4a1 1 0 1 1 2 0v4a1 1 0 0 1-1 1zM49.991 45.988a1 1 0 0 1-1-1v-4a1 1 0 1 1 2 0v4a1 1 0 0 1-1 1zM49.991 36.988c-1.654 0-3-1.346-3-3s1.346-3 3-3 3 1.346 3 3-1.345 3-3 3zm0-4a1 1 0 1 0 0 2 1 1 0 0 0 0-2zM55.991 27.988c-1.654 0-3-1.346-3-3s1.346-3 3-3 3 1.346 3 3-1.345 3-3 3zm0-4a1 1 0 1 0 0 2 1 1 0 0 0 0-2zM55.991 45.988c-1.654 0-3-1.346-3-3s1.346-3 3-3 3 1.346 3 3-1.345 3-3 3zm0-4a1 1 0 1 0 0 2 1 1 0 0 0 0-2zM7.991 45.988c-1.654 0-3-1.346-3-3s1.346-3 3-3 3 1.346 3 3-1.345 3-3 3zm0-4a1 1 0 1 0 0 2 1 1 0 0 0 0-2zM7.991 27.988c-1.654 0-3-1.346-3-3s1.346-3 3-3 3 1.346 3 3-1.345 3-3 3zm0-4a1 1 0 1 0 0 2 1 1 0 0 0 0-2zM55.991 36.988a1 1 0 0 1-1-1v-4a1 1 0 1 1 2 0v4a1 1 0 0 1-1 1zM7.991 54.988a1 1 0 0 1-1-1v-4a1 1 0 1 1 2 0v4a1 1 0 0 1-1 1zM13.991 54.988c-1.654 0-3-1.346-3-3s1.346-3 3-3 3 1.346 3 3-1.345 3-3 3zm0-4a1 1 0 1 0 0 2 1 1 0 0 0 0-2zM19.991 54.988a1 1 0 0 1-1-1v-4a1 1 0 1 1 2 0v4a1 1 0 0 1-1 1zM25.991 54.988c-1.654 0-3-1.346-3-3s1.346-3 3-3 3 1.346 3 3-1.345 3-3 3zm0-4a1 1 0 1 0 0 2 1 1 0 0 0 0-2zM31.991 54.988a1 1 0 0 1-1-1v-4a1 1 0 1 1 2 0v4a1 1 0 0 1-1 1zM37.991 54.988c-1.654 0-3-1.346-3-3s1.346-3 3-3 3 1.346 3 3-1.345 3-3 3zm0-4a1 1 0 1 0 0 2 1 1 0 0 0 0-2zM43.991 54.988a1 1 0 0 1-1-1v-4a1 1 0 1 1 2 0v4a1 1 0 0 1-1 1zM49.991 54.988c-1.654 0-3-1.346-3-3s1.346-3 3-3 3 1.346 3 3-1.345 3-3 3zm0-4a1 1 0 1 0 0 2 1 1 0 0 0 0-2zM55.991 54.988a1 1 0 0 1-1-1v-4a1 1 0 1 1 2 0v4a1 1 0 0 1-1 1z"/></g><g><path d="M4.021 7.012c-.553 0-1.005-.447-1.005-1s.442-1 .994-1h.011a1 1 0 1 1 0 2zM7.021 7.012c-.553 0-1.005-.447-1.005-1s.442-1 .994-1h.011a1 1 0 1 1 0 2zM10.021 7.012c-.553 0-1.005-.447-1.005-1s.442-1 .994-1h.011a1 1 0 1 1 0 2zM63.009 60.988h-62a1 1 0 0 1-1-1V8.012a1 1 0 0 1 1-1h62a1 1 0 0 1 1 1v51.977a.999.999 0 0 1-1 .999zm-61-2h60V9.012h-60v49.976zM.991 7.012a1 1 0 0 1-1-1c0-1.654 1.346-3 3-3a1 1 0 1 1 0 2 1 1 0 0 0-1 1 1 1 0 0 1-1 1z"/><path d="M.991 9.012a1 1 0 0 1-1-1v-2a1 1 0 1 1 2 0v2a1 1 0 0 1-1 1zM62.991 7.012a1 1 0 0 1-1-1 1 1 0 0 0-1-1 1 1 0 1 1 0-2c1.654 0 3 1.346 3 3a1 1 0 0 1-1 1z"/><path d="M62.991 9.012a1 1 0 0 1-1-1v-2a1 1 0 1 1 2 0v2a1 1 0 0 1-1 1zM60.991 5.012h-58a1 1 0 1 1 0-2h58a1 1 0 1 1 0 2z"/></g></svg>