<?xml version="1.0" encoding="utf-8"?>
<!-- Generator: Adobe Illustrator 16.0.0, SVG Export Plug-In . SVG Version: 6.00 Build 0)  -->
<!DOCTYPE svg PUBLIC "-//W3C//DTD SVG 1.1//EN" "http://www.w3.org/Graphics/SVG/1.1/DTD/svg11.dtd">
<svg version="1.1" xmlns="http://www.w3.org/2000/svg" xmlns:xlink="http://www.w3.org/1999/xlink" x="0px" y="0px" width="64px"
	 height="64px" viewBox="0 0 64 64" enable-background="new 0 0 64 64" xml:space="preserve">
<g id="_x35_0_code_x2C__programming_x2C__program_x2C__bitcoin_x2C__block_x2C__chain_x2C__cryptocurrency">
</g>
<g id="_x34_9_balloon_x2C__takeoff_x2C__bitcoin_x2C__coin_x2C__block_x2C__chain_x2C__cryptocurrency">
</g>
<g id="_x34_8_video_card_x2C__mining_x2C__farm_x2C__computer_x2C__block_x2C__chain_x2C__cryptocurrency">
</g>
<g id="_x34_7_money_box_x2C__saving_x2C__bitcoin_x2C__coin_x2C__block_x2C__chain_x2C__cryptocurrency">
</g>
<g id="_x34_6_portfolio_x2C__finance_x2C__bank_note_x2C__bitcoin_x2C__coin_x2C__cryptocurrency">
</g>
<g id="_x34_5_tap_x2C__water_x2C__bitcoin_x2C__coin_x2C__block_x2C__chain_x2C__cryptocurrency">
</g>
<g id="_x34_4_phone_x2C__bitcoin_x2C__coin_x2C__block_x2C__chain_x2C__cryptocurrency">
</g>
<g id="_x34_3_rocket_x2C__sun_x2C__bitcoin_x2C__coin_x2C__block_x2C__chain_x2C__cryptocurrency">
</g>
<g id="_x34_2_transfer_x2C__network_x2C__bitcoin_x2C__coin_x2C__block_x2C__chain_x2C__cryptocurrency">
</g>
<g id="_x34_1_scales_x2C__comparison_x2C__bitcoin_x2C__coin_x2C__block_x2C__chain_x2C__cryptocurrency">
</g>
<g id="_x34_0_calculator_x2C__calculating_x2C__bitcoin_x2C__coin_x2C__block_x2C__chain_x2C__cryptocurrency">
</g>
<g id="_x33_9_start-up_x2C__plant_x2C__hand_x2C__bitcoin_x2C__coin_x2C__cryptocurrency">
</g>
<g id="_x33_8_idea_x2C__bulb_x2C__bitcoin_x2C__coin_x2C__block_x2C__chain_x2C__cryptocurrency">
</g>
<g id="_x33_7_users_x2C__user_x2C__co-founder_x2C__bitcoin_x2C__coin_x2C__cryptocurrency">
</g>
<g id="_x33_6_safe_x2C__protection_x2C__bitcoin_x2C__coin_x2C__block_x2C__chain_x2C__cryptocurrency">
</g>
<g id="_x33_5_flash_drive_x2C__key_x2C__block_x2C__chain_x2C__cryptocurrency">
</g>
<g id="_x33_4_cloud_x2C__mining_x2C__bitcoin_x2C__coin_x2C__block_x2C__chain_x2C__cryptocurrency">
</g>
<g id="_x33_3_start_up_x2C__plant_x2C__bitcoin_x2C__coin_x2C__block_x2C__chain_x2C__cryptocurrency">
</g>
<g id="_x33_2_planet_x2C__bitcoin_x2C__coin_x2C__block_x2C__chain_x2C__cryptocurrency">
</g>
<g id="_x33_1_payment_x2C__hand_x2C__bitcoin_x2C__coin_x2C__block_x2C__chain_x2C__cryptocurrency">
</g>
<g id="_x33_0_user_x2C__laptop_x2C__bitcoin_x2C__coin_x2C__block_x2C__chain_x2C__cryptocurrency">
</g>
<g id="_x32_9_thief_x2C__bag_x2C__bitcoin_x2C__coin_x2C__block_x2C__chain_x2C__cryptocurrency">
</g>
<g id="_x32_8_code_x2C__programming_x2C__program_x2C__bitcoin_x2C__coin_x2C__cryptocurrency">
</g>
<g id="_x32_7_bitcoin_x2C__coin_x2C__block_x2C__chain_x2C__cryptocurrency">
</g>
<g id="_x32_6_shield_x2C__protection_x2C__bitcoin_x2C__coin_x2C__block_x2C__chain_x2C__cryptocurrency">
</g>
<g id="_x32_5_bug_x2C__laptop_x2C__miner_x2C__program_x2C__block_x2C__chain_x2C__cryptocurrency">
</g>
<g id="_x32_4_computer_x2C__monitor_x2C__bitcoin_x2C__coin_x2C__block_x2C__chain_x2C__cryptocurrency">
</g>
<g id="_x32_3_network_x2C__idea_x2C__bitcoin_x2C__coin_x2C__block_x2C__chain_x2C__cryptocurrency">
</g>
<g id="_x32_2_block_x2C__chain_x2C__cryptocurrency_x2C__technology_x2C__future">
</g>
<g id="_x32_1_smart_contact_x2C__contact_x2C__block_x2C__chain_x2C__cryptocurrency">
</g>
<g id="_x32_0_lock_x2C__safe_x2C__protection_x2C__block_x2C__chain_x2C__cryptocurrency_x2C__program">
</g>
<g id="_x31_9_server_x2C__data_x2C__bitcoin_x2C__coin_x2C__block_x2C__chain_x2C__cryptocurrency">
</g>
<g id="_x31_8_key_x2C__bitcoin_x2C__coin_x2C__block_x2C__chain_x2C__cryptocurrency">
</g>
<g id="_x31_7_pool_x2C__network_x2C__bitcoin_x2C__coin_x2C__block_x2C__chain_x2C__cryptocurrency">
</g>
<g id="_x31_6_mining_x2C__shovel_x2C__mine_x2C__coin_x2C__block_x2C__chain_x2C__cryptocurrency">
</g>
<g id="_x31_5_purse_x2C__bitcoin_x2C__coin_x2C__block_x2C__chain_x2C__cryptocurrency">
</g>
<g id="_x31_4_safe_x2C__protection_x2C__block_x2C__chain_x2C__cryptocurrency_x2C__program">
</g>
<g id="_x31_3_mining_x2C__funnel_x2C__satoshi_x2C__bitcoin_x2C__coin_x2C__cryptocurrency">
</g>
<g id="_x31_2_chart_x2C__bitcoin_x2C__coin_x2C__block_x2C__chain_x2C__cryptocurrency">
</g>
<g id="_x31_1_computer_x2C__monitor_x2C__bitcoin_x2C__coin_x2C__block_x2C__chain_x2C__cryptocurrency">
</g>
<g id="_x31_0_mining_x2C__pickaxe_x2C__stone_x2C__mine_x2C___bitcoin_x2C__coin_x2C__cryptocurrency">
</g>
<g id="_x39__miner_x2C__mining_x2C__computer_x2C__pickaxe_x2C__program_x2C__cryptocurrency">
</g>
<g id="_x38__video_card_x2C__mining_x2C__bitcoin_x2C__coin_x2C__block_x2C__chain_x2C__cryptocurrency">
</g>
<g id="_x37__exchanger_x2C__site_x2C__bitcoin_x2C__coin_x2C__block_x2C__chain_x2C__cryptocurrency">
</g>
<g id="_x36__shop_x2C__product_x2C__bitcoin_x2C__coin_x2C__block_x2C__chain_x2C__cryptocurrency">
</g>
<g id="_x35__bitcoin_x2C__coin_x2C__exchange_x2C__block_x2C__chain_x2C__cryptocurrency_x2C__product">
</g>
<g id="_x34__bitcoin_x2C__coin_x2C__exchange_x2C__block_x2C__chain_x2C__cryptocurrency">
</g>
<g id="_x33__bitcoin_x2C__coin_x2C__exchange_x2C__block_x2C__chain_x2C__cryptocurrency">
</g>
<g id="_x32__brain_x2C__smart_x2C__coin_x2C__block_x2C__chain_x2C__cryptocurrency">
</g>
<g id="_x31__bitcoin_x2C__coin_x2C__block_x2C__chain_x2C__cryptocurrency">
	<g>
		<g>
			<g>
				<path d="M32,56C16.561,56,4,43.439,4,28S16.561,0,32,0s28,12.561,28,28S47.439,56,32,56z M32,2C17.664,2,6,13.664,6,28
					c0,14.337,11.664,26,26,26c14.337,0,26-11.663,26-26C58,13.664,46.337,2,32,2z"/>
			</g>
			<g>
				<path d="M32.144,52c-0.549,0-0.997-0.443-1-0.993c-0.003-0.553,0.441-1.003,0.994-1.007c1.278-0.008,2.558-0.127,3.805-0.353
					c0.541-0.097,1.063,0.264,1.162,0.807c0.098,0.543-0.263,1.063-0.807,1.162c-1.359,0.245-2.755,0.375-4.148,0.384
					C32.148,52,32.146,52,32.144,52z M28.164,51.682c-0.055,0-0.111-0.005-0.167-0.014c-1.369-0.23-2.727-0.582-4.035-1.047
					c-0.521-0.185-0.792-0.757-0.608-1.277c0.185-0.52,0.758-0.79,1.277-0.607c1.199,0.426,2.442,0.748,3.697,0.959
					c0.545,0.092,0.912,0.607,0.821,1.152C29.067,51.336,28.644,51.682,28.164,51.682z M39.974,50.581
					c-0.406,0-0.788-0.249-0.938-0.653c-0.192-0.518,0.072-1.093,0.591-1.284c1.192-0.441,2.354-0.99,3.452-1.632
					c0.478-0.278,1.09-0.117,1.367,0.359c0.278,0.477,0.118,1.089-0.359,1.367c-1.197,0.7-2.465,1.299-3.767,1.78
					C40.206,50.562,40.089,50.581,39.974,50.581z M20.663,49.017c-0.167,0-0.336-0.042-0.493-0.13
					c-1.207-0.686-2.362-1.48-3.433-2.364c-0.426-0.352-0.486-0.982-0.135-1.408c0.353-0.426,0.983-0.484,1.408-0.135
					c0.981,0.811,2.041,1.54,3.147,2.167c0.48,0.272,0.648,0.883,0.376,1.363C21.35,48.835,21.011,49.017,20.663,49.017z
					 M46.845,46.568c-0.284,0-0.566-0.12-0.765-0.354c-0.356-0.422-0.304-1.053,0.118-1.409c0.97-0.82,1.876-1.732,2.693-2.71
					c0.355-0.423,0.984-0.48,1.409-0.126c0.424,0.354,0.479,0.985,0.126,1.409c-0.892,1.065-1.88,2.06-2.938,2.954
					C47.302,46.491,47.072,46.568,46.845,46.568z M14.525,43.953c-0.282,0-0.562-0.118-0.76-0.35
					c-0.903-1.054-1.719-2.193-2.427-3.387c-0.282-0.476-0.125-1.089,0.351-1.37c0.476-0.282,1.088-0.125,1.37,0.351
					c0.648,1.095,1.397,2.14,2.225,3.105c0.359,0.419,0.311,1.051-0.108,1.41C14.986,43.874,14.755,43.953,14.525,43.953z
					 M51.944,40.461c-0.169,0-0.341-0.043-0.498-0.133c-0.479-0.275-0.644-0.887-0.368-1.366c0.637-1.106,1.179-2.272,1.611-3.465
					c0.188-0.521,0.763-0.783,1.281-0.6c0.52,0.188,0.787,0.763,0.6,1.281c-0.473,1.302-1.063,2.574-1.758,3.781
					C52.627,40.281,52.291,40.461,51.944,40.461z M10.47,37.107c-0.404,0-0.785-0.247-0.936-0.647
					c-0.49-1.301-0.868-2.651-1.123-4.014C8.31,31.903,8.667,31.38,9.21,31.279c0.547-0.104,1.066,0.256,1.167,0.799
					c0.234,1.249,0.58,2.486,1.029,3.677c0.194,0.517-0.067,1.094-0.583,1.288C10.706,37.087,10.587,37.107,10.47,37.107z
					 M54.658,32.978c-0.057,0-0.115-0.005-0.173-0.015c-0.544-0.095-0.908-0.613-0.813-1.157C53.89,30.561,54,29.28,54,28
					c0-0.183-0.002-0.366-0.007-0.549c-0.014-0.552,0.422-1.011,0.975-1.025c0.525-0.051,1.011,0.421,1.025,0.974
					C55.998,27.6,56,27.8,56,28c0,1.395-0.12,2.792-0.357,4.15C55.558,32.636,55.135,32.978,54.658,32.978z M9.001,29.287
					c-0.548,0-0.994-0.441-1-0.99L8,28c0-1.291,0.104-2.587,0.308-3.854c0.088-0.545,0.594-0.918,1.146-0.828
					c0.545,0.088,0.916,0.601,0.828,1.146C10.095,25.626,10,26.816,10,28l0.001,0.277c0.005,0.552-0.438,1.004-0.99,1.01
					C9.008,29.287,9.005,29.287,9.001,29.287z M54.55,24.457c-0.467,0-0.885-0.329-0.979-0.804c-0.25-1.247-0.611-2.479-1.074-3.665
					c-0.201-0.514,0.054-1.094,0.567-1.295c0.515-0.201,1.095,0.053,1.296,0.568c0.505,1.293,0.899,2.639,1.172,4
					c0.108,0.542-0.242,1.068-0.784,1.177C54.681,24.45,54.615,24.457,54.55,24.457z M10.274,21.433
					c-0.109,0-0.22-0.018-0.329-0.056c-0.521-0.182-0.797-0.752-0.615-1.273c0.457-1.311,1.032-2.59,1.71-3.802
					c0.269-0.482,0.878-0.655,1.361-0.384c0.482,0.27,0.654,0.879,0.384,1.361c-0.621,1.11-1.148,2.283-1.567,3.484
					C11.075,21.174,10.688,21.433,10.274,21.433z M51.654,17.048c-0.338,0-0.667-0.171-0.855-0.48
					c-0.661-1.086-1.422-2.121-2.262-3.078c-0.365-0.415-0.324-1.047,0.091-1.412c0.415-0.364,1.047-0.323,1.411,0.091
					c0.917,1.043,1.747,2.173,2.469,3.358c0.287,0.472,0.138,1.087-0.334,1.374C52.011,17.001,51.831,17.048,51.654,17.048z
					 M14.157,14.485c-0.222,0-0.445-0.074-0.631-0.225c-0.428-0.349-0.493-0.979-0.144-1.407c0.875-1.075,1.852-2.082,2.901-2.992
					c0.418-0.361,1.049-0.316,1.411,0.1c0.362,0.417,0.317,1.049-0.1,1.411c-0.962,0.835-1.858,1.758-2.661,2.744
					C14.735,14.359,14.447,14.485,14.157,14.485z M46.402,11.068c-0.22,0-0.441-0.072-0.626-0.221
					c-0.992-0.799-2.061-1.515-3.173-2.128c-0.484-0.267-0.66-0.875-0.394-1.359c0.267-0.483,0.877-0.659,1.358-0.393
					c1.215,0.669,2.379,1.451,3.462,2.321c0.431,0.346,0.498,0.976,0.152,1.406C46.985,10.94,46.695,11.068,46.402,11.068z
					 M20.171,9.271c-0.339,0-0.67-0.173-0.858-0.485c-0.285-0.473-0.131-1.088,0.342-1.372c1.191-0.716,2.452-1.331,3.745-1.827
					c0.516-0.199,1.095,0.06,1.292,0.575c0.198,0.516-0.06,1.094-0.575,1.292c-1.185,0.455-2.339,1.018-3.431,1.674
					C20.524,9.226,20.347,9.271,20.171,9.271z M39.432,7.228c-0.106,0-0.216-0.018-0.322-0.054
					c-1.205-0.411-2.453-0.718-3.709-0.913c-0.546-0.085-0.92-0.596-0.835-1.142c0.086-0.545,0.595-0.916,1.142-0.835
					c1.371,0.213,2.732,0.548,4.047,0.996c0.523,0.178,0.803,0.747,0.624,1.27C40.236,6.965,39.848,7.228,39.432,7.228z
					 M27.597,6.421c-0.469,0-0.888-0.332-0.981-0.81c-0.105-0.542,0.25-1.067,0.792-1.172c1.356-0.263,2.75-0.409,4.144-0.435
					c0.566-0.011,1.008,0.43,1.019,0.981c0.01,0.552-0.43,1.008-0.981,1.019c-1.278,0.023-2.557,0.158-3.8,0.399
					C27.724,6.415,27.66,6.421,27.597,6.421z"/>
			</g>
			<g>
				<path d="M32,64C16.561,64,4,51.439,4,36c0-0.553,0.448-1,1-1s1,0.447,1,1c0,14.337,11.664,26,26,26c14.337,0,26-11.663,26-26
					c0-0.553,0.447-1,1-1s1,0.447,1,1C60,51.439,47.439,64,32,64z"/>
			</g>
			<g>
				<path d="M5,37c-0.552,0-1-0.447-1-1v-8c0-0.552,0.448-1,1-1s1,0.448,1,1v8C6,36.553,5.552,37,5,37z"/>
			</g>
			<g>
				<path d="M59,37c-0.553,0-1-0.447-1-1v-8c0-0.552,0.447-1,1-1s1,0.448,1,1v8C60,36.553,59.553,37,59,37z"/>
			</g>
			<g>
				<path d="M32,64c-0.552,0-1-0.447-1-1v-8c0-0.553,0.448-1,1-1s1,0.447,1,1v8C33,63.553,32.552,64,32,64z"/>
			</g>
			<g>
				<path d="M21,61.665c-0.552,0-1-0.447-1-1v-8c0-0.553,0.448-1,1-1s1,0.447,1,1v8C22,61.218,21.552,61.665,21,61.665z"/>
			</g>
			<g>
				<path d="M11,53.973c-0.552,0-1-0.447-1-1v-8c0-0.553,0.448-1,1-1s1,0.447,1,1v8C12,53.525,11.552,53.973,11,53.973z"/>
			</g>
			<g>
				<path d="M43,61.679c-0.553,0-1-0.447-1-1v-8c0-0.553,0.447-1,1-1s1,0.447,1,1v8C44,61.231,43.553,61.679,43,61.679z"/>
			</g>
			<g>
				<path d="M53,53.986c-0.553,0-1-0.447-1-1v-8c0-0.553,0.447-1,1-1s1,0.447,1,1v8C54,53.539,53.553,53.986,53,53.986z"/>
			</g>
		</g>
		<g>
			<g>
				<path d="M25,40c-0.552,0-1-0.447-1-1V17c0-0.552,0.448-1,1-1s1,0.448,1,1v22C26,39.553,25.552,40,25,40z"/>
			</g>
			<g>
				<path d="M34,28c-0.553,0-1-0.448-1-1s0.447-1,1-1c2.206,0,4-1.794,4-4s-1.794-4-4-4c-0.553,0-1-0.448-1-1s0.447-1,1-1
					c3.309,0,6,2.691,6,6S37.309,28,34,28z"/>
			</g>
			<g>
				<path d="M35,40c-0.553,0-1-0.447-1-1s0.447-1,1-1c2.757,0,5-2.243,5-5s-2.243-5-5-5c-0.553,0-1-0.448-1-1s0.447-1,1-1
					c3.859,0,7,3.14,7,7C42,36.859,38.859,40,35,40z"/>
			</g>
			<g>
				<path d="M35,28H25c-0.552,0-1-0.448-1-1s0.448-1,1-1h10c0.553,0,1,0.448,1,1S35.553,28,35,28z"/>
			</g>
			<g>
				<path d="M34,18H24c-0.552,0-1-0.448-1-1s0.448-1,1-1h10c0.553,0,1,0.448,1,1S34.553,18,34,18z"/>
			</g>
			<g>
				<path d="M35,40H24c-0.552,0-1-0.447-1-1s0.448-1,1-1h11c0.553,0,1,0.447,1,1S35.553,40,35,40z"/>
			</g>
			<g>
				<path d="M28,18c-0.552,0-1-0.448-1-1v-2c0-0.552,0.448-1,1-1s1,0.448,1,1v2C29,17.552,28.552,18,28,18z"/>
			</g>
			<g>
				<path d="M32,18c-0.552,0-1-0.448-1-1v-2c0-0.552,0.448-1,1-1s1,0.448,1,1v2C33,17.552,32.552,18,32,18z"/>
			</g>
			<g>
				<path d="M28,42c-0.552,0-1-0.447-1-1v-2c0-0.553,0.448-1,1-1s1,0.447,1,1v2C29,41.553,28.552,42,28,42z"/>
			</g>
			<g>
				<path d="M32,42c-0.552,0-1-0.447-1-1v-2c0-0.553,0.448-1,1-1s1,0.447,1,1v2C33,41.553,32.552,42,32,42z"/>
			</g>
		</g>
	</g>
</g>
</svg>
