<?xml version="1.0" encoding="utf-8"?>
<!-- Generator: Adobe Illustrator 16.0.0, SVG Export Plug-In . SVG Version: 6.00 Build 0)  -->
<!DOCTYPE svg PUBLIC "-//W3C//DTD SVG 1.1//EN" "http://www.w3.org/Graphics/SVG/1.1/DTD/svg11.dtd">
<svg version="1.1" xmlns="http://www.w3.org/2000/svg" xmlns:xlink="http://www.w3.org/1999/xlink" x="0px" y="0px" width="64px"
	 height="64px" viewBox="0 0 64 64" enable-background="new 0 0 64 64" xml:space="preserve">
<g id="_x35_0_code_x2C__programming_x2C__program_x2C__bitcoin_x2C__block_x2C__chain_x2C__cryptocurrency">
</g>
<g id="_x34_9_balloon_x2C__takeoff_x2C__bitcoin_x2C__coin_x2C__block_x2C__chain_x2C__cryptocurrency">
</g>
<g id="_x34_8_video_card_x2C__mining_x2C__farm_x2C__computer_x2C__block_x2C__chain_x2C__cryptocurrency">
</g>
<g id="_x34_7_money_box_x2C__saving_x2C__bitcoin_x2C__coin_x2C__block_x2C__chain_x2C__cryptocurrency">
</g>
<g id="_x34_6_portfolio_x2C__finance_x2C__bank_note_x2C__bitcoin_x2C__coin_x2C__cryptocurrency">
</g>
<g id="_x34_5_tap_x2C__water_x2C__bitcoin_x2C__coin_x2C__block_x2C__chain_x2C__cryptocurrency">
</g>
<g id="_x34_4_phone_x2C__bitcoin_x2C__coin_x2C__block_x2C__chain_x2C__cryptocurrency">
</g>
<g id="_x34_3_rocket_x2C__sun_x2C__bitcoin_x2C__coin_x2C__block_x2C__chain_x2C__cryptocurrency">
</g>
<g id="_x34_2_transfer_x2C__network_x2C__bitcoin_x2C__coin_x2C__block_x2C__chain_x2C__cryptocurrency">
</g>
<g id="_x34_1_scales_x2C__comparison_x2C__bitcoin_x2C__coin_x2C__block_x2C__chain_x2C__cryptocurrency">
</g>
<g id="_x34_0_calculator_x2C__calculating_x2C__bitcoin_x2C__coin_x2C__block_x2C__chain_x2C__cryptocurrency">
</g>
<g id="_x33_9_start-up_x2C__plant_x2C__hand_x2C__bitcoin_x2C__coin_x2C__cryptocurrency">
</g>
<g id="_x33_8_idea_x2C__bulb_x2C__bitcoin_x2C__coin_x2C__block_x2C__chain_x2C__cryptocurrency">
</g>
<g id="_x33_7_users_x2C__user_x2C__co-founder_x2C__bitcoin_x2C__coin_x2C__cryptocurrency">
</g>
<g id="_x33_6_safe_x2C__protection_x2C__bitcoin_x2C__coin_x2C__block_x2C__chain_x2C__cryptocurrency">
</g>
<g id="_x33_5_flash_drive_x2C__key_x2C__block_x2C__chain_x2C__cryptocurrency">
</g>
<g id="_x33_4_cloud_x2C__mining_x2C__bitcoin_x2C__coin_x2C__block_x2C__chain_x2C__cryptocurrency">
</g>
<g id="_x33_3_start_up_x2C__plant_x2C__bitcoin_x2C__coin_x2C__block_x2C__chain_x2C__cryptocurrency">
</g>
<g id="_x33_2_planet_x2C__bitcoin_x2C__coin_x2C__block_x2C__chain_x2C__cryptocurrency">
</g>
<g id="_x33_1_payment_x2C__hand_x2C__bitcoin_x2C__coin_x2C__block_x2C__chain_x2C__cryptocurrency">
</g>
<g id="_x33_0_user_x2C__laptop_x2C__bitcoin_x2C__coin_x2C__block_x2C__chain_x2C__cryptocurrency">
</g>
<g id="_x32_9_thief_x2C__bag_x2C__bitcoin_x2C__coin_x2C__block_x2C__chain_x2C__cryptocurrency">
</g>
<g id="_x32_8_code_x2C__programming_x2C__program_x2C__bitcoin_x2C__coin_x2C__cryptocurrency">
</g>
<g id="_x32_7_bitcoin_x2C__coin_x2C__block_x2C__chain_x2C__cryptocurrency">
</g>
<g id="_x32_6_shield_x2C__protection_x2C__bitcoin_x2C__coin_x2C__block_x2C__chain_x2C__cryptocurrency">
</g>
<g id="_x32_5_bug_x2C__laptop_x2C__miner_x2C__program_x2C__block_x2C__chain_x2C__cryptocurrency">
</g>
<g id="_x32_4_computer_x2C__monitor_x2C__bitcoin_x2C__coin_x2C__block_x2C__chain_x2C__cryptocurrency">
</g>
<g id="_x32_3_network_x2C__idea_x2C__bitcoin_x2C__coin_x2C__block_x2C__chain_x2C__cryptocurrency">
</g>
<g id="_x32_2_block_x2C__chain_x2C__cryptocurrency_x2C__technology_x2C__future">
</g>
<g id="_x32_1_smart_contact_x2C__contact_x2C__block_x2C__chain_x2C__cryptocurrency">
</g>
<g id="_x32_0_lock_x2C__safe_x2C__protection_x2C__block_x2C__chain_x2C__cryptocurrency_x2C__program">
</g>
<g id="_x31_9_server_x2C__data_x2C__bitcoin_x2C__coin_x2C__block_x2C__chain_x2C__cryptocurrency">
</g>
<g id="_x31_8_key_x2C__bitcoin_x2C__coin_x2C__block_x2C__chain_x2C__cryptocurrency">
</g>
<g id="_x31_7_pool_x2C__network_x2C__bitcoin_x2C__coin_x2C__block_x2C__chain_x2C__cryptocurrency">
</g>
<g id="_x31_6_mining_x2C__shovel_x2C__mine_x2C__coin_x2C__block_x2C__chain_x2C__cryptocurrency">
</g>
<g id="_x31_5_purse_x2C__bitcoin_x2C__coin_x2C__block_x2C__chain_x2C__cryptocurrency">
</g>
<g id="_x31_4_safe_x2C__protection_x2C__block_x2C__chain_x2C__cryptocurrency_x2C__program">
</g>
<g id="_x31_3_mining_x2C__funnel_x2C__satoshi_x2C__bitcoin_x2C__coin_x2C__cryptocurrency">
	<g>
		<g>
			<path d="M33.53,3.997c-0.553,0-1.005-0.447-1.005-1s0.442-1,0.994-1h0.011c0.552,0,1,0.447,1,1S34.082,3.997,33.53,3.997z"/>
		</g>
		<g>
			<path d="M51.53,8.003c-0.553,0-1.005-0.447-1.005-1s0.442-1,0.994-1h0.011c0.552,0,1,0.447,1,1S52.082,8.003,51.53,8.003z"/>
		</g>
		<g>
			<path d="M10.53,7.997c-0.553,0-1.005-0.447-1.005-1s0.442-1,0.994-1h0.011c0.552,0,1,0.447,1,1S11.082,7.997,10.53,7.997z"/>
		</g>
		<g>
			<g>
				<g>
					<path d="M33,50.997c-0.553,0-1-0.447-1-1s0.447-1,1-1c0.275,0,0.5-0.225,0.5-0.5s-0.225-0.5-0.5-0.5c-0.553,0-1-0.447-1-1
						s0.447-1,1-1c1.379,0,2.5,1.121,2.5,2.5S34.379,50.997,33,50.997z"/>
				</g>
				<g>
					<path d="M33.5,54.997c-0.553,0-1-0.447-1-1s0.447-1,1-1c0.552,0,1-0.448,1-1s-0.448-1-1-1c-0.553,0-1-0.447-1-1s0.447-1,1-1
						c1.654,0,3,1.346,3,3S35.154,54.997,33.5,54.997z"/>
				</g>
				<g>
					<path d="M33.5,50.997h-3c-0.553,0-1-0.447-1-1s0.447-1,1-1h3c0.553,0,1,0.447,1,1S34.053,50.997,33.5,50.997z"/>
				</g>
				<g>
					<path d="M33.5,54.997h-4c-0.553,0-1-0.447-1-1s0.447-1,1-1h4c0.553,0,1,0.447,1,1S34.053,54.997,33.5,54.997z"/>
				</g>
				<g>
					<path d="M33,47.997h-3.5c-0.553,0-1-0.447-1-1s0.447-1,1-1H33c0.553,0,1,0.447,1,1S33.553,47.997,33,47.997z"/>
				</g>
				<g>
					<path d="M30.5,54.997c-0.553,0-1-0.447-1-1v-7c0-0.553,0.447-1,1-1s1,0.447,1,1v7C31.5,54.55,31.053,54.997,30.5,54.997z"/>
				</g>
				<g>
					<path d="M31.5,47.997c-0.553,0-1-0.447-1-1v-1c0-0.553,0.447-1,1-1s1,0.447,1,1v1C32.5,47.55,32.053,47.997,31.5,47.997z"/>
				</g>
				<g>
					<path d="M31.5,55.997c-0.553,0-1-0.447-1-1v-1c0-0.553,0.447-1,1-1s1,0.447,1,1v1C32.5,55.55,32.053,55.997,31.5,55.997z"/>
				</g>
			</g>
			<g>
				<path d="M32,59.997c-5.238,0-9.5-4.262-9.5-9.5s4.262-9.5,9.5-9.5s9.5,4.262,9.5,9.5S37.238,59.997,32,59.997z M32,42.997
					c-4.136,0-7.5,3.364-7.5,7.5s3.364,7.5,7.5,7.5s7.5-3.364,7.5-7.5S36.136,42.997,32,42.997z"/>
			</g>
			<g>
				<path d="M32,63.997c-5.238,0-9.5-4.262-9.5-9.5c0-0.553,0.447-1,1-1s1,0.447,1,1c0,4.136,3.364,7.5,7.5,7.5s7.5-3.364,7.5-7.5
					c0-0.553,0.447-1,1-1s1,0.447,1,1C41.5,59.735,37.238,63.997,32,63.997z"/>
			</g>
			<g>
				<path d="M23.5,55.497c-0.553,0-1-0.447-1-1v-4c0-0.553,0.447-1,1-1s1,0.447,1,1v4C24.5,55.05,24.053,55.497,23.5,55.497z"/>
			</g>
			<g>
				<path d="M40.5,55.497c-0.553,0-1-0.447-1-1v-4c0-0.553,0.447-1,1-1s1,0.447,1,1v4C41.5,55.05,41.053,55.497,40.5,55.497z"/>
			</g>
			<g>
				<path d="M35.5,63.244c-0.553,0-1-0.447-1-1v-4c0-0.553,0.447-1,1-1s1,0.447,1,1v4C36.5,62.797,36.053,63.244,35.5,63.244z"/>
			</g>
			<g>
				<path d="M28.5,63.244c-0.553,0-1-0.447-1-1v-3.999c0-0.553,0.447-1,1-1s1,0.447,1,1v3.999
					C29.5,62.797,29.053,63.244,28.5,63.244z"/>
			</g>
		</g>
		<g>
			<path d="M28.5,43.749c-0.553,0-1-0.447-1-1v-3.752c0-0.553,0.447-1,1-1s1,0.447,1,1v3.752C29.5,43.302,29.053,43.749,28.5,43.749
				z"/>
		</g>
		<g>
			<path d="M35.5,43.749c-0.553,0-1-0.447-1-1v-3.752c0-0.553,0.447-1,1-1s1,0.447,1,1v3.752C36.5,43.302,36.053,43.749,35.5,43.749
				z"/>
		</g>
		<g>
			<path d="M28.5,39.997c-0.248,0-0.496-0.092-0.689-0.275l-21-19.994c-0.4-0.381-0.416-1.015-0.035-1.414
				c0.384-0.4,1.016-0.413,1.414-0.035l21,19.994c0.4,0.381,0.416,1.015,0.035,1.414C29.027,39.893,28.764,39.997,28.5,39.997z"/>
		</g>
		<g>
			<path d="M35.5,39.997c-0.264,0-0.527-0.104-0.725-0.311c-0.381-0.399-0.365-1.033,0.035-1.414l21-19.994
				c0.398-0.379,1.031-0.365,1.414,0.035c0.381,0.399,0.365,1.033-0.035,1.414l-21,19.994C35.996,39.905,35.748,39.997,35.5,39.997z
				"/>
		</g>
		<g>
			<path d="M32,16.003c-6.583,0-12.778-0.314-17.445-0.887C7.122,14.206,6.5,13.032,6.5,12.003c0-0.867,0-2.479,11.385-3.456
				c0.539-0.063,1.033,0.361,1.081,0.911s-0.36,1.034-0.91,1.081c-5.217,0.447-7.897,1.051-9.031,1.474
				c2.404,0.925,10.67,1.99,22.976,1.99c12.351,0,20.631-1.073,23.002-2c-2.371-0.927-10.651-2-23.002-2
				c-2.226,0-4.43,0.036-6.552,0.108c-0.533,0.049-1.016-0.413-1.033-0.965c-0.02-0.552,0.413-1.015,0.965-1.033
				c2.145-0.073,4.372-0.11,6.62-0.11c6.583,0,12.778,0.314,17.445,0.887c7.433,0.91,8.055,2.084,8.055,3.113
				s-0.622,2.203-8.055,3.113C44.778,15.688,38.583,16.003,32,16.003z"/>
		</g>
		<g>
			<path d="M56.5,20.003c-0.553,0-1-0.447-1-1v-7c0-0.553,0.447-1,1-1s1,0.447,1,1v7C57.5,19.556,57.053,20.003,56.5,20.003z"/>
		</g>
		<g>
			<path d="M7.5,20.003c-0.553,0-1-0.447-1-1v-7c0-0.553,0.447-1,1-1s1,0.447,1,1v7C8.5,19.556,8.053,20.003,7.5,20.003z"/>
		</g>
		<g>
			<path d="M33.5,16.003c-0.553,0-1-0.447-1-1c0-2.206,1.794-4,4-4c2.139,0,3.894,1.673,3.996,3.808
				c0.026,0.552-0.399,1.021-0.951,1.047c-0.545,0.034-1.021-0.399-1.047-0.951c-0.051-1.067-0.929-1.903-1.998-1.903
				c-1.103,0-2,0.897-2,2C34.5,15.556,34.053,16.003,33.5,16.003z"/>
		</g>
		<g>
			<path d="M43.5,7.003c-1.654,0-3-1.346-3-3s1.346-3,3-3s3,1.346,3,3S45.154,7.003,43.5,7.003z M43.5,3.003c-0.552,0-1,0.448-1,1
				s0.448,1,1,1s1-0.448,1-1S44.052,3.003,43.5,3.003z"/>
		</g>
		<g>
			<path d="M21.5,12.003c-3.309,0-6-2.691-6-6s2.691-6,6-6s6,2.691,6,6S24.809,12.003,21.5,12.003z M21.5,2.003
				c-2.206,0-4,1.794-4,4s1.794,4,4,4s4-1.794,4-4S23.706,2.003,21.5,2.003z"/>
		</g>
	</g>
</g>
<g id="_x31_2_chart_x2C__bitcoin_x2C__coin_x2C__block_x2C__chain_x2C__cryptocurrency">
</g>
<g id="_x31_1_computer_x2C__monitor_x2C__bitcoin_x2C__coin_x2C__block_x2C__chain_x2C__cryptocurrency">
</g>
<g id="_x31_0_mining_x2C__pickaxe_x2C__stone_x2C__mine_x2C___bitcoin_x2C__coin_x2C__cryptocurrency">
</g>
<g id="_x39__miner_x2C__mining_x2C__computer_x2C__pickaxe_x2C__program_x2C__cryptocurrency">
</g>
<g id="_x38__video_card_x2C__mining_x2C__bitcoin_x2C__coin_x2C__block_x2C__chain_x2C__cryptocurrency">
</g>
<g id="_x37__exchanger_x2C__site_x2C__bitcoin_x2C__coin_x2C__block_x2C__chain_x2C__cryptocurrency">
</g>
<g id="_x36__shop_x2C__product_x2C__bitcoin_x2C__coin_x2C__block_x2C__chain_x2C__cryptocurrency">
</g>
<g id="_x35__bitcoin_x2C__coin_x2C__exchange_x2C__block_x2C__chain_x2C__cryptocurrency_x2C__product">
</g>
<g id="_x34__bitcoin_x2C__coin_x2C__exchange_x2C__block_x2C__chain_x2C__cryptocurrency">
</g>
<g id="_x33__bitcoin_x2C__coin_x2C__exchange_x2C__block_x2C__chain_x2C__cryptocurrency">
</g>
<g id="_x32__brain_x2C__smart_x2C__coin_x2C__block_x2C__chain_x2C__cryptocurrency">
</g>
<g id="_x31__bitcoin_x2C__coin_x2C__block_x2C__chain_x2C__cryptocurrency">
</g>
</svg>
