<svg xmlns="http://www.w3.org/2000/svg" viewBox="0 0 64 64"><path d="M17.451 18.42c-.553 0-1.005-.447-1.005-1s.442-1 .994-1h.011a1 1 0 110 2z"/><path d="M34.831 57.045a.997.997 0 01-.707-.293L4.692 27.32A15.896 15.896 0 01.005 16.006 15.89 15.89 0 014.692 4.693 15.892 15.892 0 0116.005.006a15.89 15.89 0 0111.313 4.687l29.433 29.432a.997.997 0 010 1.414L35.538 56.752a.997.997 0 01-.707.293zM16.006 2.006c-3.74 0-7.256 1.456-9.899 4.101a13.907 13.907 0 00-4.101 9.899c0 3.74 1.456 7.256 4.101 9.9l28.725 28.725 19.8-19.8L25.905 6.106a13.908 13.908 0 00-9.899-4.1z"/><path d="M48.854 63.994a.997.997 0 01-.707-.293L37.66 53.216a.999.999 0 111.414-1.414L49.56 62.287a.999.999 0 01-.706 1.707z"/><path d="M48.854 63.994a.999.999 0 01-.707-1.707l14.141-14.141a.999.999 0 111.414 1.414L49.561 63.701a1 1 0 01-.707.293z"/><path d="M62.994 49.854a.997.997 0 01-.707-.293L51.802 39.074a.999.999 0 111.414-1.414l10.485 10.486a.999.999 0 01-.707 1.708zM45.023 54.51a.999.999 0 01-.707-1.707l2.829-2.828a.999.999 0 111.414 1.414l-2.829 2.828a.997.997 0 01-.707.293zM50.681 48.854a.999.999 0 01-.707-1.707l2.828-2.829a.999.999 0 111.414 1.414l-2.828 2.829a.999.999 0 01-.707.293z"/><path d="M45.023 54.51a.997.997 0 01-.707-.293l-.733-.733a.999.999 0 111.414-1.414l.733.733a.999.999 0 01-.707 1.707zM47.853 51.682a.997.997 0 01-.707-.293l-.734-.734a.999.999 0 111.414-1.414l.734.734a.999.999 0 01-.707 1.707zM50.68 48.853a1 1 0 01-.708-.293l-.732-.733a1.001 1.001 0 011.416-1.414l.732.733a1.001 1.001 0 01-.708 1.707zM53.51 46.024a1 1 0 01-.707-.292l-.734-.733a1.001 1.001 0 011.414-1.416l.734.733a1.001 1.001 0 01-.707 1.708zM20.248 29.249a8.94 8.94 0 01-6.362-2.636c-3.51-3.51-3.51-9.22 0-12.729 1.699-1.699 3.959-2.636 6.363-2.636s4.664.937 6.364 2.637c3.509 3.509 3.509 9.218 0 12.727a8.944 8.944 0 01-6.365 2.637zm.001-16.001c-1.87 0-3.627.729-4.949 2.05-2.729 2.729-2.729 7.172 0 9.901a6.954 6.954 0 004.948 2.05c1.87 0 3.629-.729 4.951-2.052a7.007 7.007 0 000-9.898 6.957 6.957 0 00-4.95-2.051z"/><path d="M39.635 37.804a.997.997 0 01-.707-.293L26.435 25.018a.999.999 0 111.414-1.414l12.493 12.493a.999.999 0 01-.707 1.707zM36.806 40.633a.997.997 0 01-.707-.293L23.605 27.847a.999.999 0 111.414-1.414l12.493 12.493a.999.999 0 01-.706 1.707z"/><path d="M36.806 40.633a.999.999 0 01-.707-1.707l2.829-2.829a.999.999 0 111.414 1.414l-2.829 2.829a.999.999 0 01-.707.293zM32.27 41.755a.999.999 0 01-.707-1.707l2.829-2.829a.999.999 0 111.414 1.414l-2.829 2.829a1 1 0 01-.707.293z"/><path d="M32.27 41.755a.997.997 0 01-.707-.293l-3.535-3.536a.999.999 0 111.414-1.414l3.535 3.536a.999.999 0 01-.707 1.707z"/><path d="M28.734 38.219a.999.999 0 01-.707-1.707l2.828-2.828a.999.999 0 111.414 1.414l-2.828 2.828a.997.997 0 01-.707.293z"/></svg>