<?xml version="1.0" encoding="utf-8"?>
<!-- Generator: Adobe Illustrator 16.0.0, SVG Export Plug-In . SVG Version: 6.00 Build 0)  -->
<!DOCTYPE svg PUBLIC "-//W3C//DTD SVG 1.1//EN" "http://www.w3.org/Graphics/SVG/1.1/DTD/svg11.dtd">
<svg version="1.1" xmlns="http://www.w3.org/2000/svg" xmlns:xlink="http://www.w3.org/1999/xlink" x="0px" y="0px" width="64px"
	 height="64px" viewBox="0 0 64 64" enable-background="new 0 0 64 64" xml:space="preserve">
<g id="_x35_0_code_x2C__programming_x2C__program_x2C__bitcoin_x2C__block_x2C__chain_x2C__cryptocurrency">
</g>
<g id="_x34_9_balloon_x2C__takeoff_x2C__bitcoin_x2C__coin_x2C__block_x2C__chain_x2C__cryptocurrency">
</g>
<g id="_x34_8_video_card_x2C__mining_x2C__farm_x2C__computer_x2C__block_x2C__chain_x2C__cryptocurrency">
</g>
<g id="_x34_7_money_box_x2C__saving_x2C__bitcoin_x2C__coin_x2C__block_x2C__chain_x2C__cryptocurrency">
</g>
<g id="_x34_6_portfolio_x2C__finance_x2C__bank_note_x2C__bitcoin_x2C__coin_x2C__cryptocurrency">
</g>
<g id="_x34_5_tap_x2C__water_x2C__bitcoin_x2C__coin_x2C__block_x2C__chain_x2C__cryptocurrency">
</g>
<g id="_x34_4_phone_x2C__bitcoin_x2C__coin_x2C__block_x2C__chain_x2C__cryptocurrency">
</g>
<g id="_x34_3_rocket_x2C__sun_x2C__bitcoin_x2C__coin_x2C__block_x2C__chain_x2C__cryptocurrency">
</g>
<g id="_x34_2_transfer_x2C__network_x2C__bitcoin_x2C__coin_x2C__block_x2C__chain_x2C__cryptocurrency">
</g>
<g id="_x34_1_scales_x2C__comparison_x2C__bitcoin_x2C__coin_x2C__block_x2C__chain_x2C__cryptocurrency">
</g>
<g id="_x34_0_calculator_x2C__calculating_x2C__bitcoin_x2C__coin_x2C__block_x2C__chain_x2C__cryptocurrency">
</g>
<g id="_x33_9_start-up_x2C__plant_x2C__hand_x2C__bitcoin_x2C__coin_x2C__cryptocurrency">
</g>
<g id="_x33_8_idea_x2C__bulb_x2C__bitcoin_x2C__coin_x2C__block_x2C__chain_x2C__cryptocurrency">
</g>
<g id="_x33_7_users_x2C__user_x2C__co-founder_x2C__bitcoin_x2C__coin_x2C__cryptocurrency">
</g>
<g id="_x33_6_safe_x2C__protection_x2C__bitcoin_x2C__coin_x2C__block_x2C__chain_x2C__cryptocurrency">
</g>
<g id="_x33_5_flash_drive_x2C__key_x2C__block_x2C__chain_x2C__cryptocurrency">
</g>
<g id="_x33_4_cloud_x2C__mining_x2C__bitcoin_x2C__coin_x2C__block_x2C__chain_x2C__cryptocurrency">
</g>
<g id="_x33_3_start_up_x2C__plant_x2C__bitcoin_x2C__coin_x2C__block_x2C__chain_x2C__cryptocurrency">
</g>
<g id="_x33_2_planet_x2C__bitcoin_x2C__coin_x2C__block_x2C__chain_x2C__cryptocurrency">
</g>
<g id="_x33_1_payment_x2C__hand_x2C__bitcoin_x2C__coin_x2C__block_x2C__chain_x2C__cryptocurrency">
</g>
<g id="_x33_0_user_x2C__laptop_x2C__bitcoin_x2C__coin_x2C__block_x2C__chain_x2C__cryptocurrency">
</g>
<g id="_x32_9_thief_x2C__bag_x2C__bitcoin_x2C__coin_x2C__block_x2C__chain_x2C__cryptocurrency">
</g>
<g id="_x32_8_code_x2C__programming_x2C__program_x2C__bitcoin_x2C__coin_x2C__cryptocurrency">
</g>
<g id="_x32_7_bitcoin_x2C__coin_x2C__block_x2C__chain_x2C__cryptocurrency">
</g>
<g id="_x32_6_shield_x2C__protection_x2C__bitcoin_x2C__coin_x2C__block_x2C__chain_x2C__cryptocurrency">
</g>
<g id="_x32_5_bug_x2C__laptop_x2C__miner_x2C__program_x2C__block_x2C__chain_x2C__cryptocurrency">
</g>
<g id="_x32_4_computer_x2C__monitor_x2C__bitcoin_x2C__coin_x2C__block_x2C__chain_x2C__cryptocurrency">
</g>
<g id="_x32_3_network_x2C__idea_x2C__bitcoin_x2C__coin_x2C__block_x2C__chain_x2C__cryptocurrency">
</g>
<g id="_x32_2_block_x2C__chain_x2C__cryptocurrency_x2C__technology_x2C__future">
</g>
<g id="_x32_1_smart_contact_x2C__contact_x2C__block_x2C__chain_x2C__cryptocurrency">
</g>
<g id="_x32_0_lock_x2C__safe_x2C__protection_x2C__block_x2C__chain_x2C__cryptocurrency_x2C__program">
</g>
<g id="_x31_9_server_x2C__data_x2C__bitcoin_x2C__coin_x2C__block_x2C__chain_x2C__cryptocurrency">
</g>
<g id="_x31_8_key_x2C__bitcoin_x2C__coin_x2C__block_x2C__chain_x2C__cryptocurrency">
</g>
<g id="_x31_7_pool_x2C__network_x2C__bitcoin_x2C__coin_x2C__block_x2C__chain_x2C__cryptocurrency">
</g>
<g id="_x31_6_mining_x2C__shovel_x2C__mine_x2C__coin_x2C__block_x2C__chain_x2C__cryptocurrency">
</g>
<g id="_x31_5_purse_x2C__bitcoin_x2C__coin_x2C__block_x2C__chain_x2C__cryptocurrency">
</g>
<g id="_x31_4_safe_x2C__protection_x2C__block_x2C__chain_x2C__cryptocurrency_x2C__program">
</g>
<g id="_x31_3_mining_x2C__funnel_x2C__satoshi_x2C__bitcoin_x2C__coin_x2C__cryptocurrency">
</g>
<g id="_x31_2_chart_x2C__bitcoin_x2C__coin_x2C__block_x2C__chain_x2C__cryptocurrency">
</g>
<g id="_x31_1_computer_x2C__monitor_x2C__bitcoin_x2C__coin_x2C__block_x2C__chain_x2C__cryptocurrency">
</g>
<g id="_x31_0_mining_x2C__pickaxe_x2C__stone_x2C__mine_x2C___bitcoin_x2C__coin_x2C__cryptocurrency">
</g>
<g id="_x39__miner_x2C__mining_x2C__computer_x2C__pickaxe_x2C__program_x2C__cryptocurrency">
	<g>
		<g>
			<path d="M8.03,10.5c-0.553,0-1.005-0.448-1.005-1s0.442-1,0.994-1H8.03c0.552,0,1,0.448,1,1S8.582,10.5,8.03,10.5z"/>
		</g>
		<g>
			<path d="M11.03,10.5c-0.553,0-1.005-0.448-1.005-1s0.442-1,0.994-1h0.011c0.552,0,1,0.448,1,1S11.582,10.5,11.03,10.5z"/>
		</g>
		<g>
			<path d="M14.03,10.5c-0.553,0-1.005-0.448-1.005-1s0.442-1,0.994-1h0.011c0.552,0,1,0.448,1,1S14.582,10.5,14.03,10.5z"/>
		</g>
		<g>
			<g>
				<path d="M32.03,48.5c-0.553,0-1.005-0.447-1.005-1s0.442-1,0.994-1h0.011c0.552,0,1,0.447,1,1S32.582,48.5,32.03,48.5z"/>
			</g>
			<g>
				<path d="M63,46.5H1.047c-0.553,0-1-0.447-1-1s0.447-1,1-1H63c0.553,0,1,0.447,1,1S63.553,46.5,63,46.5z"/>
			</g>
			<g>
				<path d="M61,50.5H3c-1.654,0-3-1.346-3-3v-42c0-1.654,1.346-3,3-3h58c1.654,0,3,1.346,3,3v42C64,49.154,62.654,50.5,61,50.5z
					 M3,4.5c-0.552,0-1,0.449-1,1v42c0,0.552,0.448,1,1,1h58c0.552,0,1-0.448,1-1v-42c0-0.551-0.448-1-1-1H3z"/>
			</g>
			<g>
				<path d="M23.001,58.5c-0.08,0-0.162-0.01-0.243-0.03c-0.536-0.134-0.862-0.677-0.728-1.212l2-8
					c0.134-0.536,0.675-0.864,1.212-0.728c0.536,0.134,0.862,0.677,0.728,1.212l-2,8C23.856,58.197,23.449,58.5,23.001,58.5z"/>
			</g>
			<g>
				<path d="M40.999,58.5c-0.448,0-0.855-0.303-0.969-0.758l-2-8c-0.135-0.535,0.191-1.078,0.728-1.212
					c0.535-0.136,1.078,0.191,1.212,0.728l2,8c0.135,0.535-0.191,1.078-0.728,1.212C41.161,58.49,41.079,58.5,40.999,58.5z"/>
			</g>
			<g>
				<path d="M19,60.5c-0.553,0-1-0.447-1-1c0-1.654,1.346-3,3-3c0.553,0,1,0.447,1,1s-0.447,1-1,1c-0.552,0-1,0.448-1,1
					C20,60.053,19.553,60.5,19,60.5z"/>
			</g>
			<g>
				<path d="M45,60.5c-0.553,0-1-0.447-1-1c0-0.552-0.448-1-1-1c-0.553,0-1-0.447-1-1s0.447-1,1-1c1.654,0,3,1.346,3,3
					C46,60.053,45.553,60.5,45,60.5z"/>
			</g>
			<g>
				<path d="M43,58.5H21c-0.553,0-1-0.447-1-1s0.447-1,1-1h22c0.553,0,1,0.447,1,1S43.553,58.5,43,58.5z"/>
			</g>
			<g>
				<path d="M19,61.5c-0.553,0-1-0.447-1-1v-1c0-0.553,0.447-1,1-1s1,0.447,1,1v1C20,61.053,19.553,61.5,19,61.5z"/>
			</g>
			<g>
				<path d="M45,61.5H19c-0.553,0-1-0.447-1-1s0.447-1,1-1h26c0.553,0,1,0.447,1,1S45.553,61.5,45,61.5z"/>
			</g>
			<g>
				<path d="M45,61.5c-0.553,0-1-0.447-1-1v-1c0-0.553,0.447-1,1-1s1,0.447,1,1v1C46,61.053,45.553,61.5,45,61.5z"/>
			</g>
		</g>
		<g>
			<path d="M59,42.5H5c-0.553,0-1-0.447-1-1v-34c0-0.552,0.447-1,1-1h54c0.553,0,1,0.448,1,1v34C60,42.053,59.553,42.5,59,42.5z
				 M6,40.5h52v-32H6V40.5z"/>
		</g>
		<g>
			<path d="M59,12.5H5c-0.553,0-1-0.448-1-1s0.447-1,1-1h54c0.553,0,1,0.448,1,1S59.553,12.5,59,12.5z"/>
		</g>
		<g>
			<path d="M32,42.5c-0.553,0-1-0.447-1-1v-30c0-0.552,0.447-1,1-1s1,0.448,1,1v30C33,42.053,32.553,42.5,32,42.5z"/>
		</g>
		<g>
			<path d="M47,17.5H37c-0.553,0-1-0.448-1-1s0.447-1,1-1h10c0.553,0,1,0.448,1,1S47.553,17.5,47,17.5z"/>
		</g>
		<g>
			<path d="M54,17.5h-3c-0.553,0-1-0.448-1-1s0.447-1,1-1h3c0.553,0,1,0.448,1,1S54.553,17.5,54,17.5z"/>
		</g>
		<g>
			<path d="M42,21.5h-5c-0.553,0-1-0.448-1-1s0.447-1,1-1h5c0.553,0,1,0.448,1,1S42.553,21.5,42,21.5z"/>
		</g>
		<g>
			<path d="M54,21.5h-8c-0.553,0-1-0.448-1-1s0.447-1,1-1h8c0.553,0,1,0.448,1,1S54.553,21.5,54,21.5z"/>
		</g>
		<g>
			<path d="M54,25.5H37c-0.553,0-1-0.448-1-1s0.447-1,1-1h17c0.553,0,1,0.448,1,1S54.553,25.5,54,25.5z"/>
		</g>
		<g>
			<path d="M39,29.5h-2c-0.553,0-1-0.448-1-1s0.447-1,1-1h2c0.553,0,1,0.448,1,1S39.553,29.5,39,29.5z"/>
		</g>
		<g>
			<path d="M54,29.5H43c-0.553,0-1-0.448-1-1s0.447-1,1-1h11c0.553,0,1,0.448,1,1S54.553,29.5,54,29.5z"/>
		</g>
		<g>
			<path d="M47,33.5H37c-0.553,0-1-0.447-1-1c0-0.552,0.447-1,1-1h10c0.553,0,1,0.448,1,1C48,33.053,47.553,33.5,47,33.5z"/>
		</g>
		<g>
			<path d="M54,33.5h-3c-0.553,0-1-0.447-1-1c0-0.552,0.447-1,1-1h3c0.553,0,1,0.448,1,1C55,33.053,54.553,33.5,54,33.5z"/>
		</g>
		<g>
			<path d="M42,37.5h-5c-0.553,0-1-0.447-1-1s0.447-1,1-1h5c0.553,0,1,0.447,1,1S42.553,37.5,42,37.5z"/>
		</g>
		<g>
			<path d="M54,37.5h-8c-0.553,0-1-0.447-1-1s0.447-1,1-1h8c0.553,0,1,0.447,1,1S54.553,37.5,54,37.5z"/>
		</g>
		<g>
			<g>
				<path d="M10.493,33.432c-0.256,0-0.512-0.098-0.707-0.293c-0.391-0.391-0.391-1.023,0-1.414l9.394-9.393
					c0.391-0.391,1.023-0.391,1.414,0s0.391,1.023,0,1.414L11.2,33.139C11.005,33.334,10.749,33.432,10.493,33.432z"/>
			</g>
			<g>
				<path d="M12.615,35.554c-0.256,0-0.512-0.098-0.707-0.293c-0.391-0.391-0.391-1.023,0-1.414l9.425-9.425
					c0.391-0.391,1.023-0.391,1.414,0s0.391,1.023,0,1.414l-9.425,9.425C13.127,35.456,12.871,35.554,12.615,35.554z"/>
			</g>
			<g>
				<path d="M22.666,21.26c-0.256,0-0.512-0.098-0.707-0.293c-0.391-0.391-0.391-1.023,0-1.414l2.202-2.202
					c0.391-0.391,1.023-0.391,1.414,0s0.391,1.023,0,1.414l-2.202,2.202C23.178,21.162,22.922,21.26,22.666,21.26z"/>
			</g>
			<g>
				<path d="M24.783,23.385c-0.256,0-0.512-0.098-0.707-0.293c-0.391-0.391-0.391-1.024,0-1.414l2.206-2.205
					c0.391-0.391,1.023-0.391,1.414,0s0.391,1.024,0,1.414l-2.206,2.205C25.295,23.287,25.039,23.385,24.783,23.385z"/>
			</g>
			<g>
				<path d="M26.989,31.078c-0.256,0-0.512-0.098-0.707-0.293L14.262,18.765c-0.391-0.391-0.391-1.023,0-1.414s1.023-0.391,1.414,0
					l12.021,12.021c0.391,0.391,0.391,1.023,0,1.414C27.501,30.98,27.245,31.078,26.989,31.078z"/>
			</g>
			<g>
				<path d="M26.99,31.078c-0.047,0-0.095-0.003-0.143-0.01c-0.547-0.078-0.927-0.584-0.849-1.131
					c0.024-0.18,0.57-4.521-2.898-7.989c-3.496-3.496-7.947-2.906-7.99-2.9c-0.551,0.075-1.054-0.302-1.132-0.848
					c-0.078-0.547,0.302-1.053,0.849-1.131c0.223-0.033,5.492-0.73,9.688,3.465c4.194,4.194,3.496,9.464,3.465,9.687
					C27.908,30.718,27.48,31.078,26.99,31.078z"/>
			</g>
			<g>
				<path d="M26.989,21.18c-0.256,0-0.512-0.098-0.707-0.293l-2.121-2.122c-0.391-0.391-0.391-1.024,0-1.414
					c0.391-0.391,1.023-0.391,1.414,0l2.121,2.122c0.391,0.391,0.391,1.024,0,1.414C27.501,21.082,27.245,21.18,26.989,21.18z"/>
			</g>
			<g>
				<path d="M11.554,35.991c-0.64,0-1.279-0.243-1.767-0.729c-0.975-0.977-0.975-2.562-0.002-3.537
					c0.391-0.392,1.025-0.392,1.414-0.001c0.392,0.39,0.392,1.023,0.002,1.414c-0.195,0.196-0.195,0.514,0,0.71
					c0.194,0.194,0.512,0.193,0.708-0.002c0.389-0.389,1.023-0.391,1.414,0.002c0.39,0.391,0.39,1.023-0.002,1.414
					C12.834,35.748,12.194,35.991,11.554,35.991z"/>
			</g>
		</g>
	</g>
</g>
<g id="_x38__video_card_x2C__mining_x2C__bitcoin_x2C__coin_x2C__block_x2C__chain_x2C__cryptocurrency">
</g>
<g id="_x37__exchanger_x2C__site_x2C__bitcoin_x2C__coin_x2C__block_x2C__chain_x2C__cryptocurrency">
</g>
<g id="_x36__shop_x2C__product_x2C__bitcoin_x2C__coin_x2C__block_x2C__chain_x2C__cryptocurrency">
</g>
<g id="_x35__bitcoin_x2C__coin_x2C__exchange_x2C__block_x2C__chain_x2C__cryptocurrency_x2C__product">
</g>
<g id="_x34__bitcoin_x2C__coin_x2C__exchange_x2C__block_x2C__chain_x2C__cryptocurrency">
</g>
<g id="_x33__bitcoin_x2C__coin_x2C__exchange_x2C__block_x2C__chain_x2C__cryptocurrency">
</g>
<g id="_x32__brain_x2C__smart_x2C__coin_x2C__block_x2C__chain_x2C__cryptocurrency">
</g>
<g id="_x31__bitcoin_x2C__coin_x2C__block_x2C__chain_x2C__cryptocurrency">
</g>
</svg>
