<svg xmlns="http://www.w3.org/2000/svg" x="0" y="0" xml:space="preserve" viewBox="0 0 64 64"><path d="M50.997 60c-6.065 0-11-4.935-11-11s4.935-11 11-11 11 4.935 11 11-4.934 11-11 11zm0-20c-4.963 0-9 4.037-9 9s4.037 9 9 9 9-4.037 9-9-4.037-9-9-9z"/><path d="M50.997 64c-6.065 0-11-4.935-11-11a1 1 0 1 1 2 0c0 4.963 4.037 9 9 9s9-4.037 9-9a1 1 0 1 1 2 0c0 6.065-4.934 11-11 11z"/><path d="M60.997 54a1 1 0 0 1-1-1v-4a1 1 0 1 1 2 0v4a1 1 0 0 1-1 1zM48.997 54a1 1 0 0 1-1-1v-9a1 1 0 1 1 2 0v9a1 1 0 0 1-1 1zM51.997 49a1 1 0 1 1 0-2 1 1 0 0 0 0-2 1 1 0 1 1 0-2c1.654 0 3 1.346 3 3s-1.346 3-3 3z"/><path d="M52.496 54a1 1 0 1 1 0-2 1.502 1.502 0 0 0 0-3.002 1 1 0 1 1 0-2 3.505 3.505 0 0 1 3.501 3.502c0 1.93-1.57 3.5-3.501 3.5zM51.997 45h-4a1 1 0 1 1 0-2h4a1 1 0 1 1 0 2z"/><path d="M52.496 54h-4.499a1 1 0 1 1 0-2h4.499a1 1 0 1 1 0 2zM48.997 49a1 1 0 0 1-.001-2l3.499-.002h.001a1 1 0 0 1 .001 2l-3.5.002zM50.997 45a1 1 0 0 1-1-1v-1a1 1 0 1 1 2 0v1a1 1 0 0 1-1 1z"/><path d="M50.997 55a1 1 0 0 1-1-1v-1a1 1 0 1 1 2 0v1a1 1 0 0 1-1 1zM50.997 64a1 1 0 0 1-1-1v-4a1 1 0 1 1 2 0v4a1 1 0 0 1-1 1z"/><g><path d="M55.997 62.66a1 1 0 0 1-1-1v-3.998a1 1 0 1 1 2 0v3.998a1 1 0 0 1-1 1z"/></g><g><path d="M45.997 62.66a1 1 0 0 1-1-1v-3.998a1 1 0 1 1 2 0v3.998a1 1 0 0 1-1 1z"/></g><g><path d="M40.997 54a1 1 0 0 1-1-1v-4a1 1 0 1 1 2 0v4a1 1 0 0 1-1 1z"/></g><g><path d="M31.503 59c-16.267 0-29.5-13.233-29.5-29.5S15.236 0 31.503 0s29.5 13.233 29.5 29.5c0 4.275-.895 8.399-2.66 12.258a1 1 0 1 1-1.818-.832A27.271 27.271 0 0 0 59.004 29.5c0-15.163-12.337-27.5-27.5-27.5s-27.5 12.337-27.5 27.5S16.34 57 31.503 57a27.42 27.42 0 0 0 9.669-1.747 1.003 1.003 0 0 1 1.288.585 1.001 1.001 0 0 1-.585 1.288A29.429 29.429 0 0 1 31.503 59z"/></g><g><path d="M37.997 14c-2.206 0-4-1.794-4-4s1.794-4 4-4a1 1 0 1 1 0 2c-1.103 0-2 .897-2 2s.897 2 2 2a1 1 0 1 1 0 2z"/></g><g><path d="M25.997 20c-2.206 0-4-1.794-4-4s1.794-4 4-4a1 1 0 1 1 0 2c-1.103 0-2 .897-2 2s.897 2 2 2a1 1 0 1 1 0 2z"/></g><g><path d="M32.003 26c-2.206 0-4-1.794-4-4s1.794-4 4-4a1 1 0 1 1 0 2c-1.103 0-2 .897-2 2s.897 2 2 2a1 1 0 1 1 0 2z"/></g><g><path d="M39.003 32c-2.206 0-4-1.794-4-4s1.794-4 4-4a1 1 0 1 1 0 2c-1.103 0-2 .897-2 2s.897 2 2 2a1 1 0 1 1 0 2z"/></g><g><path d="M48.997 8h-11a1 1 0 1 1 0-2h11a1 1 0 1 1 0 2z"/></g><g><path d="M42.997 14h-17a1 1 0 1 1 0-2h17a1 1 0 1 1 0 2z"/></g><g><path d="M36.003 20H25.997a1 1 0 1 1 0-2h10.006a1 1 0 1 1 0 2z"/></g><g><path d="M43.003 26h-11a1 1 0 1 1 0-2h11a1 1 0 1 1 0 2z"/></g><g><path d="M59.938 32H39.003a1 1 0 1 1 0-2h20.935a1 1 0 1 1 0 2z"/></g><g><path d="M19.996 45a1 1 0 1 1 0-2c1.103 0 2-.897 2-2s-.897-2-2-2a1 1 0 1 1 0-2c2.206 0 4 1.794 4 4s-1.794 4-4 4zM24.997 51a1 1 0 1 1 0-2c1.103 0 2-.897 2-2s-.897-2-2-2a1 1 0 1 1 0-2c2.206 0 4 1.794 4 4s-1.794 4-4 4zM13.997 39a1 1 0 1 1 0-2c1.103 0 2-.897 2-2s-.897-2-2-2a1 1 0 1 1 0-2c2.206 0 4 1.794 4 4s-1.794 4-4 4z"/><path d="M13.997 33H3.111a1 1 0 1 1 0-2h10.886a1 1 0 1 1 0 2zM19.996 39h-7.999a1 1 0 1 1 0-2h7.999a1 1 0 1 1 0 2zM24.997 45H14.996a1 1 0 1 1 0-2h10.001a1 1 0 1 1 0 2zM24.997 51H11.705a1 1 0 1 1 0-2h13.292a1 1 0 1 1 0 2z"/></g></svg>