<?xml version="1.0" encoding="utf-8"?>
<!-- Generator: Adobe Illustrator 16.0.0, SVG Export Plug-In . SVG Version: 6.00 Build 0)  -->
<!DOCTYPE svg PUBLIC "-//W3C//DTD SVG 1.1//EN" "http://www.w3.org/Graphics/SVG/1.1/DTD/svg11.dtd">
<svg version="1.1" xmlns="http://www.w3.org/2000/svg" xmlns:xlink="http://www.w3.org/1999/xlink" x="0px" y="0px" width="64px"
	 height="64px" viewBox="0 0 64 64" enable-background="new 0 0 64 64" xml:space="preserve">
<g id="_x35_0_code_x2C__programming_x2C__program_x2C__bitcoin_x2C__block_x2C__chain_x2C__cryptocurrency">
</g>
<g id="_x34_9_balloon_x2C__takeoff_x2C__bitcoin_x2C__coin_x2C__block_x2C__chain_x2C__cryptocurrency">
</g>
<g id="_x34_8_video_card_x2C__mining_x2C__farm_x2C__computer_x2C__block_x2C__chain_x2C__cryptocurrency">
	<g>
		<g>
			<path d="M1,60c-0.553,0-1-0.447-1-1V32c0-0.553,0.447-1,1-1s1,0.447,1,1v27C2,59.553,1.553,60,1,60z"/>
		</g>
		<g>
			<path d="M52,60H1c-0.553,0-1-0.447-1-1s0.447-1,1-1h51c0.553,0,1,0.447,1,1S52.553,60,52,60z"/>
		</g>
		<g>
			<path d="M52,34H23.999c-0.107,0-0.214-0.018-0.316-0.052L20.838,33H1c-0.553,0-1-0.447-1-1s0.447-1,1-1h20
				c0.107,0,0.214,0.018,0.316,0.052L24.161,32H52c0.553,0,1,0.447,1,1S52.553,34,52,34z"/>
		</g>
		<g>
			<path d="M52,28H23.999c-0.107,0-0.214-0.018-0.316-0.052L20.838,27H1c-0.553,0-1-0.447-1-1s0.447-1,1-1h20
				c0.107,0,0.214,0.018,0.316,0.052L24.161,26H52c0.553,0,1,0.447,1,1S52.553,28,52,28z"/>
		</g>
		<g>
			<path d="M52,60c-0.553,0-1-0.447-1-1V33c0-0.553,0.447-1,1-1s1,0.447,1,1v26C53,59.553,52.553,60,52,60z"/>
		</g>
		<g>
			<path d="M4,61c-0.553,0-1-0.447-1-1V32c0-0.553,0.447-1,1-1s1,0.447,1,1v28C5,60.553,4.553,61,4,61z"/>
		</g>
		<g>
			<path d="M8,63c-0.553,0-1-0.447-1-1v-3c0-0.553,0.447-1,1-1s1,0.447,1,1v3C9,62.553,8.553,63,8,63z"/>
		</g>
		<g>
			<path d="M30,63H8c-0.553,0-1-0.447-1-1s0.447-1,1-1h22c0.553,0,1,0.447,1,1S30.553,63,30,63z"/>
		</g>
		<g>
			<path d="M30,63c-0.553,0-1-0.447-1-1v-3c0-0.553,0.447-1,1-1s1,0.447,1,1v3C31,62.553,30.553,63,30,63z"/>
		</g>
		<g>
			<path d="M12,63c-0.553,0-1-0.447-1-1v-1c0-0.553,0.447-1,1-1s1,0.447,1,1v1C13,62.553,12.553,63,12,63z"/>
		</g>
		<g>
			<path d="M52,34c-0.553,0-1-0.447-1-1v-6c0-0.553,0.447-1,1-1s1,0.447,1,1v6C53,33.553,52.553,34,52,34z"/>
		</g>
		<g>
			<path d="M1,33c-0.553,0-1-0.447-1-1v-6c0-0.553,0.447-1,1-1s1,0.447,1,1v6C2,32.553,1.553,33,1,33z"/>
		</g>
		<g>
			<path d="M52,22H23.999c-0.107,0-0.214-0.018-0.316-0.052L20.838,21H1c-0.553,0-1-0.447-1-1s0.447-1,1-1h20
				c0.107,0,0.214,0.018,0.316,0.052L24.161,20H52c0.553,0,1,0.447,1,1S52.553,22,52,22z"/>
		</g>
		<g>
			<path d="M52,28c-0.553,0-1-0.447-1-1v-6c0-0.553,0.447-1,1-1s1,0.447,1,1v6C53,27.553,52.553,28,52,28z"/>
		</g>
		<g>
			<path d="M1,27c-0.553,0-1-0.447-1-1v-6c0-0.553,0.447-1,1-1s1,0.447,1,1v6C2,26.553,1.553,27,1,27z"/>
		</g>
		<g>
			<path d="M52,16H23.999c-0.107,0-0.214-0.018-0.316-0.052L20.838,15H1c-0.553,0-1-0.447-1-1s0.447-1,1-1h20
				c0.107,0,0.214,0.018,0.316,0.052L24.161,14H52c0.553,0,1,0.447,1,1S52.553,16,52,16z"/>
		</g>
		<g>
			<path d="M52,22c-0.553,0-1-0.447-1-1v-6c0-0.553,0.447-1,1-1s1,0.447,1,1v6C53,21.553,52.553,22,52,22z"/>
		</g>
		<g>
			<path d="M1,21c-0.553,0-1-0.447-1-1v-6c0-0.553,0.447-1,1-1s1,0.447,1,1v6C2,20.553,1.553,21,1,21z"/>
		</g>
		<g>
			<path d="M52,10H23.999c-0.107,0-0.214-0.018-0.316-0.052L20.838,9H1C0.447,9,0,8.553,0,8s0.447-1,1-1h20
				c0.107,0,0.214,0.018,0.316,0.052L24.161,8H52c0.553,0,1,0.447,1,1S52.553,10,52,10z"/>
		</g>
		<g>
			<path d="M52,16c-0.553,0-1-0.447-1-1V9c0-0.553,0.447-1,1-1s1,0.447,1,1v6C53,15.553,52.553,16,52,16z"/>
		</g>
		<g>
			<path d="M1,15c-0.553,0-1-0.447-1-1V8c0-0.553,0.447-1,1-1s1,0.447,1,1v6C2,14.553,1.553,15,1,15z"/>
		</g>
		<g>
			<path d="M52,4H23.999c-0.107,0-0.214-0.018-0.316-0.052L20.838,3H1C0.447,3,0,2.553,0,2s0.447-1,1-1h20
				c0.107,0,0.214,0.018,0.316,0.052L24.161,2H52c0.553,0,1,0.447,1,1S52.553,4,52,4z"/>
		</g>
		<g>
			<path d="M52,10c-0.553,0-1-0.447-1-1V3c0-0.553,0.447-1,1-1s1,0.447,1,1v6C53,9.553,52.553,10,52,10z"/>
		</g>
		<g>
			<path d="M1,9C0.447,9,0,8.553,0,8V2c0-0.553,0.447-1,1-1s1,0.447,1,1v6C2,8.553,1.553,9,1,9z"/>
		</g>
		<g>
			<path d="M57,31h-5c-0.553,0-1-0.447-1-1s0.447-1,1-1h5c0.553,0,1,0.447,1,1S57.553,31,57,31z"/>
		</g>
		<g>
			<path d="M59.023,33.023c-0.553,0-1-0.447-1-1C58.023,31.459,57.564,31,57,31c-0.553,0-1-0.447-1-1s0.447-1,1-1
				c1.667,0,3.023,1.356,3.023,3.023C60.023,32.576,59.576,33.023,59.023,33.023z"/>
		</g>
		<g>
			<path d="M57,25h-5c-0.553,0-1-0.447-1-1s0.447-1,1-1h5c0.553,0,1,0.447,1,1S57.553,25,57,25z"/>
		</g>
		<g>
			<path d="M59,27c-0.553,0-1-0.447-1-1c0-0.552-0.448-1-1-1c-0.553,0-1-0.447-1-1s0.447-1,1-1c1.654,0,3,1.346,3,3
				C60,26.553,59.553,27,59,27z"/>
		</g>
		<g>
			<path d="M57,19h-5c-0.553,0-1-0.447-1-1s0.447-1,1-1h5c0.553,0,1,0.447,1,1S57.553,19,57,19z"/>
		</g>
		<g>
			<path d="M59,21c-0.553,0-1-0.447-1-1c0-0.552-0.448-1-1-1c-0.553,0-1-0.447-1-1s0.447-1,1-1c1.654,0,3,1.346,3,3
				C60,20.553,59.553,21,59,21z"/>
		</g>
		<g>
			<path d="M57,13h-5c-0.553,0-1-0.447-1-1s0.447-1,1-1h5c0.553,0,1,0.447,1,1S57.553,13,57,13z"/>
		</g>
		<g>
			<path d="M59,15c-0.553,0-1-0.447-1-1c0-0.552-0.448-1-1-1c-0.553,0-1-0.447-1-1s0.447-1,1-1c1.654,0,3,1.346,3,3
				C60,14.553,59.553,15,59,15z"/>
		</g>
		<g>
			<path d="M57,7h-5c-0.553,0-1-0.447-1-1s0.447-1,1-1h5c0.553,0,1,0.447,1,1S57.553,7,57,7z"/>
		</g>
		<g>
			<path d="M59,9c-0.553,0-1-0.447-1-1c0-0.552-0.448-1-1-1c-0.553,0-1-0.447-1-1s0.447-1,1-1c1.654,0,3,1.346,3,3
				C60,8.553,59.553,9,59,9z"/>
		</g>
		<g>
			<path d="M59,55.979c-0.553,0-1-0.447-1-1V8c0-0.553,0.447-1,1-1s1,0.447,1,1v46.979C60,55.532,59.553,55.979,59,55.979z"/>
		</g>
		<g>
			<path d="M63,59.979c-2.757,0-5-2.243-5-5c0-0.553,0.447-1,1-1s1,0.447,1,1c0,1.654,1.346,3,3,3c0.553,0,1,0.447,1,1
				S63.553,59.979,63,59.979z"/>
		</g>
		<g>
			<g>
				<path d="M17,49c-1.654,0-3-1.346-3-3s1.346-3,3-3s3,1.346,3,3S18.654,49,17,49z M17,45c-0.552,0-1,0.448-1,1s0.448,1,1,1
					s1-0.448,1-1S17.552,45,17,45z"/>
			</g>
			<g>
				<path d="M17,45c-0.553,0-1-0.447-1-1v-3c0-0.553,0.447-1,1-1s1,0.447,1,1v3C18,44.553,17.553,45,17,45z"/>
			</g>
			<g>
				<path d="M17,42c-1.654,0-3-1.346-3-3c0-0.553,0.447-1,1-1s1,0.447,1,1c0,0.552,0.448,1,1,1c0.553,0,1,0.447,1,1S17.553,42,17,42
					z"/>
			</g>
			<g>
				<path d="M15,40c-0.553,0-1-0.447-1-1v-0.748c0-0.553,0.447-1,1-1s1,0.447,1,1V39C16,39.553,15.553,40,15,40z"/>
			</g>
			<g>
				<path d="M15.268,46c-0.17,0-0.342-0.043-0.499-0.134l-2.599-1.5c-0.479-0.276-0.643-0.888-0.366-1.366s0.889-0.643,1.366-0.366
					l2.599,1.5c0.479,0.276,0.643,0.888,0.366,1.366C15.949,45.82,15.613,46,15.268,46z"/>
			</g>
			<g>
				<path d="M10.933,45.499c-0.509,0-1.023-0.129-1.494-0.4c-0.479-0.276-0.643-0.888-0.366-1.366
					c0.277-0.478,0.888-0.642,1.366-0.366c0.477,0.276,1.09,0.109,1.365-0.366c0.276-0.479,0.889-0.643,1.366-0.366
					c0.479,0.276,0.643,0.888,0.366,1.366C12.98,44.961,11.97,45.499,10.933,45.499z"/>
			</g>
			<g>
				<path d="M9.938,45.232c-0.17,0-0.343-0.043-0.5-0.135L8.79,44.723c-0.479-0.276-0.642-0.889-0.364-1.366
					c0.276-0.479,0.89-0.643,1.366-0.364l0.647,0.375c0.479,0.276,0.642,0.889,0.364,1.366
					C10.618,45.054,10.282,45.232,9.938,45.232z"/>
			</g>
			<g>
				<path d="M12.671,49.5c-0.346,0-0.682-0.179-0.867-0.5c-0.276-0.479-0.112-1.09,0.366-1.366l2.6-1.501
					c0.476-0.276,1.089-0.114,1.366,0.366c0.276,0.479,0.112,1.09-0.366,1.366l-2.6,1.501C13.013,49.457,12.841,49.5,12.671,49.5z"
					/>
			</g>
			<g>
				<path d="M11.94,52.231c-0.346,0-0.682-0.179-0.866-0.499c-0.277-0.479-0.113-1.09,0.364-1.366s0.641-0.889,0.365-1.366
					c-0.276-0.479-0.112-1.09,0.366-1.366c0.477-0.276,1.089-0.113,1.366,0.366c0.826,1.432,0.335,3.27-1.096,4.097
					C12.282,52.188,12.11,52.231,11.94,52.231z"/>
			</g>
			<g>
				<path d="M11.292,52.604c-0.347,0-0.683-0.18-0.868-0.501c-0.275-0.479-0.11-1.091,0.368-1.366l0.648-0.373
					c0.48-0.274,1.091-0.109,1.366,0.368c0.275,0.479,0.11,1.091-0.368,1.366l-0.648,0.373
					C11.633,52.562,11.461,52.604,11.292,52.604z"/>
			</g>
			<g>
				<path d="M17.001,52c-0.552,0-1-0.447-1-1L16,47.998c0-0.552,0.447-1,1-1l0,0c0.552,0,1,0.447,1,1L18.001,51
					C18.001,51.552,17.554,52,17.001,52L17.001,52z"/>
			</g>
			<g>
				<path d="M19.001,53.998c-0.552,0-0.999-0.447-1-0.999C18,52.448,17.552,52,17.001,52c-0.553,0-1-0.447-1-1s0.447-1,1-1
					c1.652,0,2.999,1.345,3,2.997C20.002,53.55,19.554,53.998,19.001,53.998L19.001,53.998z"/>
			</g>
			<g>
				<path d="M19,54.746L19,54.746c-0.554-0.001-1.001-0.449-1-1.001l0.001-0.748c0.001-0.552,0.448-0.999,1-0.999h0.001
					c0.553,0.001,1,0.449,0.999,1.001L20,53.747C19.999,54.299,19.552,54.746,19,54.746z"/>
			</g>
			<g>
				<path d="M21.331,49.499c-0.17,0-0.342-0.043-0.499-0.134l-2.602-1.501c-0.479-0.276-0.643-0.888-0.366-1.366
					c0.276-0.478,0.889-0.643,1.366-0.366l2.602,1.501c0.479,0.276,0.643,0.888,0.366,1.366
					C22.013,49.319,21.677,49.499,21.331,49.499z"/>
			</g>
			<g>
				<path d="M21.331,49.499c-0.17,0-0.342-0.043-0.499-0.134c-0.479-0.276-0.643-0.888-0.366-1.366
					c0.825-1.43,2.664-1.928,4.095-1.1c0.479,0.275,0.644,0.887,0.367,1.365c-0.275,0.479-0.886,0.645-1.365,0.367
					c-0.476-0.273-1.089-0.109-1.364,0.367C22.013,49.319,21.677,49.499,21.331,49.499z"/>
			</g>
			<g>
				<path d="M24.708,49.141c-0.17,0-0.343-0.043-0.5-0.135l-0.647-0.375c-0.479-0.276-0.642-0.889-0.364-1.366
					c0.276-0.479,0.889-0.644,1.366-0.364l0.647,0.375c0.479,0.276,0.642,0.889,0.364,1.366
					C25.389,48.962,25.053,49.141,24.708,49.141z"/>
			</g>
			<g>
				<path d="M17.009,55c-3.211,0-6.201-1.725-7.805-4.502c-1.202-2.081-1.521-4.506-0.897-6.828s2.112-4.264,4.193-5.465
					c1.367-0.789,2.921-1.207,4.492-1.207c3.21,0,6.199,1.725,7.803,4.5c2.48,4.299,1.002,9.814-3.295,12.296
					C20.133,54.583,18.58,55,17.009,55z M16.992,38.998c-1.221,0-2.429,0.325-3.492,0.939c-1.619,0.935-2.777,2.443-3.262,4.25
					s-0.236,3.692,0.698,5.311C12.184,51.658,14.511,53,17.009,53c1.221,0,2.428-0.324,3.491-0.938
					c3.343-1.93,4.492-6.221,2.563-9.563C21.815,40.34,19.489,38.998,16.992,38.998z"/>
			</g>
			<g>
				<path d="M18.731,46c-0.346,0-0.682-0.179-0.867-0.5c-0.276-0.479-0.112-1.09,0.366-1.366l2.601-1.502
					c0.476-0.276,1.089-0.113,1.366,0.366c0.276,0.479,0.112,1.09-0.366,1.366l-2.601,1.502C19.073,45.957,18.901,46,18.731,46z"/>
			</g>
			<g>
				<path d="M21.332,44.498c-0.346,0-0.683-0.18-0.867-0.501c-0.826-1.432-0.335-3.27,1.096-4.096
					c0.477-0.276,1.089-0.113,1.366,0.366c0.276,0.479,0.112,1.09-0.366,1.366c-0.476,0.274-0.639,0.887-0.363,1.365
					c0.276,0.478,0.111,1.09-0.367,1.365C21.673,44.455,21.501,44.498,21.332,44.498z"/>
			</g>
			<g>
				<path d="M22.062,41.768c-0.347,0-0.683-0.18-0.868-0.501c-0.275-0.479-0.11-1.091,0.368-1.366l0.648-0.373
					c0.479-0.274,1.09-0.109,1.366,0.368c0.275,0.479,0.11,1.091-0.368,1.366l-0.648,0.373
					C22.402,41.725,22.23,41.768,22.062,41.768z"/>
			</g>
		</g>
		<g>
			<g>
				<path d="M39.001,49c-1.654,0-3-1.346-3-3s1.346-3,3-3s3,1.346,3,3S40.655,49,39.001,49z M39.001,45c-0.552,0-1,0.448-1,1
					s0.448,1,1,1s1-0.448,1-1S39.553,45,39.001,45z"/>
			</g>
			<g>
				<path d="M39.001,45c-0.553,0-1-0.447-1-1v-3c0-0.553,0.447-1,1-1s1,0.447,1,1v3C40.001,44.553,39.554,45,39.001,45z"/>
			</g>
			<g>
				<path d="M39.001,42c-1.654,0-3-1.346-3-3c0-0.553,0.447-1,1-1s1,0.447,1,1c0,0.552,0.448,1,1,1c0.553,0,1,0.447,1,1
					S39.554,42,39.001,42z"/>
			</g>
			<g>
				<path d="M37.001,40c-0.553,0-1-0.447-1-1v-0.748c0-0.553,0.447-1,1-1s1,0.447,1,1V39C38.001,39.553,37.554,40,37.001,40z"/>
			</g>
			<g>
				<path d="M37.269,46c-0.17,0-0.342-0.043-0.499-0.134l-2.599-1.5c-0.479-0.276-0.643-0.888-0.366-1.366s0.888-0.643,1.366-0.366
					l2.599,1.5c0.479,0.276,0.643,0.888,0.366,1.366C37.95,45.82,37.614,46,37.269,46z"/>
			</g>
			<g>
				<path d="M32.934,45.499c-0.509,0-1.023-0.129-1.494-0.4c-0.479-0.276-0.643-0.888-0.366-1.366
					c0.276-0.478,0.889-0.642,1.366-0.366c0.478,0.276,1.091,0.109,1.365-0.366c0.276-0.479,0.888-0.643,1.366-0.366
					s0.643,0.888,0.366,1.366C34.981,44.961,33.971,45.499,32.934,45.499z"/>
			</g>
			<g>
				<path d="M31.938,45.232c-0.17,0-0.343-0.043-0.5-0.135l-0.647-0.375c-0.479-0.276-0.642-0.889-0.364-1.366
					c0.276-0.479,0.89-0.643,1.366-0.364l0.647,0.375c0.479,0.276,0.642,0.889,0.364,1.366
					C32.619,45.054,32.283,45.232,31.938,45.232z"/>
			</g>
			<g>
				<path d="M34.672,49.5c-0.346,0-0.682-0.179-0.867-0.5c-0.276-0.479-0.112-1.09,0.366-1.366l2.6-1.501
					c0.477-0.276,1.09-0.114,1.366,0.366c0.276,0.479,0.112,1.09-0.366,1.366l-2.6,1.501C35.014,49.457,34.842,49.5,34.672,49.5z"/>
			</g>
			<g>
				<path d="M33.941,52.231c-0.346,0-0.682-0.179-0.866-0.499c-0.277-0.479-0.113-1.09,0.364-1.366S34.08,49.478,33.805,49
					c-0.276-0.479-0.112-1.09,0.366-1.366c0.476-0.276,1.089-0.113,1.366,0.366c0.826,1.432,0.335,3.27-1.096,4.097
					C34.283,52.188,34.111,52.231,33.941,52.231z"/>
			</g>
			<g>
				<path d="M33.293,52.604c-0.347,0-0.683-0.18-0.868-0.501c-0.275-0.479-0.11-1.091,0.368-1.366l0.648-0.373
					c0.48-0.274,1.09-0.109,1.366,0.368c0.275,0.479,0.11,1.091-0.368,1.366l-0.648,0.373
					C33.634,52.562,33.462,52.604,33.293,52.604z"/>
			</g>
			<g>
				<path d="M39.002,52c-0.552,0-1-0.447-1-1l-0.001-3.002c0-0.552,0.447-1,1-1l0,0c0.552,0,1,0.447,1,1L40.002,51
					C40.002,51.552,39.555,52,39.002,52L39.002,52z"/>
			</g>
			<g>
				<path d="M41.002,53.998c-0.552,0-0.999-0.447-1-0.999c-0.001-0.551-0.449-0.999-1-0.999c-0.553,0-1-0.447-1-1s0.447-1,1-1
					c1.652,0,2.999,1.345,3,2.997C42.003,53.55,41.555,53.998,41.002,53.998L41.002,53.998z"/>
			</g>
			<g>
				<path d="M41.001,54.746L41.001,54.746c-0.554-0.001-1.001-0.449-1-1.001l0.001-0.748c0.001-0.552,0.448-0.999,1-0.999h0.001
					c0.553,0.001,1,0.449,0.999,1.001l-0.001,0.748C42,54.299,41.553,54.746,41.001,54.746z"/>
			</g>
			<g>
				<path d="M43.332,49.499c-0.17,0-0.342-0.043-0.499-0.134l-2.602-1.501c-0.479-0.276-0.643-0.888-0.366-1.366
					c0.276-0.478,0.889-0.643,1.366-0.366l2.602,1.501c0.479,0.276,0.643,0.888,0.366,1.366
					C44.014,49.319,43.678,49.499,43.332,49.499z"/>
			</g>
			<g>
				<path d="M43.332,49.499c-0.17,0-0.342-0.043-0.499-0.134c-0.479-0.276-0.643-0.888-0.366-1.366
					c0.825-1.43,2.664-1.928,4.095-1.1c0.479,0.275,0.644,0.887,0.367,1.365c-0.274,0.479-0.887,0.645-1.365,0.367
					c-0.476-0.273-1.09-0.109-1.364,0.367C44.014,49.319,43.678,49.499,43.332,49.499z"/>
			</g>
			<g>
				<path d="M46.709,49.141c-0.17,0-0.343-0.043-0.5-0.135l-0.647-0.375c-0.479-0.276-0.642-0.889-0.364-1.366
					c0.276-0.479,0.889-0.644,1.366-0.364l0.647,0.375c0.479,0.276,0.642,0.889,0.364,1.366
					C47.39,48.962,47.054,49.141,46.709,49.141z"/>
			</g>
			<g>
				<path d="M39.01,55c-3.211,0-6.201-1.725-7.805-4.502c-1.202-2.081-1.521-4.506-0.897-6.828s2.112-4.264,4.193-5.465
					c1.367-0.789,2.921-1.207,4.492-1.207c3.21,0,6.199,1.725,7.803,4.5c2.48,4.299,1.002,9.814-3.295,12.296
					C42.134,54.583,40.581,55,39.01,55z M38.993,38.998c-1.221,0-2.429,0.325-3.492,0.939c-1.619,0.935-2.777,2.443-3.262,4.25
					s-0.236,3.692,0.698,5.311C34.185,51.658,36.512,53,39.01,53c1.221,0,2.428-0.324,3.491-0.938
					c3.343-1.93,4.492-6.221,2.563-9.563C43.816,40.34,41.49,38.998,38.993,38.998z"/>
			</g>
			<g>
				<path d="M40.732,46c-0.346,0-0.682-0.179-0.867-0.5c-0.276-0.479-0.112-1.09,0.366-1.366l2.601-1.502
					c0.477-0.276,1.089-0.113,1.366,0.366c0.276,0.479,0.112,1.09-0.366,1.366l-2.601,1.502C41.074,45.957,40.902,46,40.732,46z"/>
			</g>
			<g>
				<path d="M43.333,44.498c-0.346,0-0.683-0.18-0.867-0.501c-0.826-1.432-0.335-3.27,1.096-4.096
					c0.476-0.276,1.089-0.113,1.366,0.366c0.276,0.479,0.112,1.09-0.366,1.366c-0.476,0.274-0.639,0.887-0.363,1.365
					c0.276,0.478,0.111,1.09-0.367,1.365C43.674,44.455,43.502,44.498,43.333,44.498z"/>
			</g>
			<g>
				<path d="M44.063,41.768c-0.347,0-0.683-0.18-0.868-0.501c-0.275-0.479-0.11-1.091,0.368-1.366l0.648-0.373
					c0.48-0.274,1.091-0.109,1.366,0.368c0.275,0.479,0.11,1.091-0.368,1.366l-0.648,0.373
					C44.403,41.725,44.231,41.768,44.063,41.768z"/>
			</g>
		</g>
	</g>
</g>
<g id="_x34_7_money_box_x2C__saving_x2C__bitcoin_x2C__coin_x2C__block_x2C__chain_x2C__cryptocurrency">
</g>
<g id="_x34_6_portfolio_x2C__finance_x2C__bank_note_x2C__bitcoin_x2C__coin_x2C__cryptocurrency">
</g>
<g id="_x34_5_tap_x2C__water_x2C__bitcoin_x2C__coin_x2C__block_x2C__chain_x2C__cryptocurrency">
</g>
<g id="_x34_4_phone_x2C__bitcoin_x2C__coin_x2C__block_x2C__chain_x2C__cryptocurrency">
</g>
<g id="_x34_3_rocket_x2C__sun_x2C__bitcoin_x2C__coin_x2C__block_x2C__chain_x2C__cryptocurrency">
</g>
<g id="_x34_2_transfer_x2C__network_x2C__bitcoin_x2C__coin_x2C__block_x2C__chain_x2C__cryptocurrency">
</g>
<g id="_x34_1_scales_x2C__comparison_x2C__bitcoin_x2C__coin_x2C__block_x2C__chain_x2C__cryptocurrency">
</g>
<g id="_x34_0_calculator_x2C__calculating_x2C__bitcoin_x2C__coin_x2C__block_x2C__chain_x2C__cryptocurrency">
</g>
<g id="_x33_9_start-up_x2C__plant_x2C__hand_x2C__bitcoin_x2C__coin_x2C__cryptocurrency">
</g>
<g id="_x33_8_idea_x2C__bulb_x2C__bitcoin_x2C__coin_x2C__block_x2C__chain_x2C__cryptocurrency">
</g>
<g id="_x33_7_users_x2C__user_x2C__co-founder_x2C__bitcoin_x2C__coin_x2C__cryptocurrency">
</g>
<g id="_x33_6_safe_x2C__protection_x2C__bitcoin_x2C__coin_x2C__block_x2C__chain_x2C__cryptocurrency">
</g>
<g id="_x33_5_flash_drive_x2C__key_x2C__block_x2C__chain_x2C__cryptocurrency">
</g>
<g id="_x33_4_cloud_x2C__mining_x2C__bitcoin_x2C__coin_x2C__block_x2C__chain_x2C__cryptocurrency">
</g>
<g id="_x33_3_start_up_x2C__plant_x2C__bitcoin_x2C__coin_x2C__block_x2C__chain_x2C__cryptocurrency">
</g>
<g id="_x33_2_planet_x2C__bitcoin_x2C__coin_x2C__block_x2C__chain_x2C__cryptocurrency">
</g>
<g id="_x33_1_payment_x2C__hand_x2C__bitcoin_x2C__coin_x2C__block_x2C__chain_x2C__cryptocurrency">
</g>
<g id="_x33_0_user_x2C__laptop_x2C__bitcoin_x2C__coin_x2C__block_x2C__chain_x2C__cryptocurrency">
</g>
<g id="_x32_9_thief_x2C__bag_x2C__bitcoin_x2C__coin_x2C__block_x2C__chain_x2C__cryptocurrency">
</g>
<g id="_x32_8_code_x2C__programming_x2C__program_x2C__bitcoin_x2C__coin_x2C__cryptocurrency">
</g>
<g id="_x32_7_bitcoin_x2C__coin_x2C__block_x2C__chain_x2C__cryptocurrency">
</g>
<g id="_x32_6_shield_x2C__protection_x2C__bitcoin_x2C__coin_x2C__block_x2C__chain_x2C__cryptocurrency">
</g>
<g id="_x32_5_bug_x2C__laptop_x2C__miner_x2C__program_x2C__block_x2C__chain_x2C__cryptocurrency">
</g>
<g id="_x32_4_computer_x2C__monitor_x2C__bitcoin_x2C__coin_x2C__block_x2C__chain_x2C__cryptocurrency">
</g>
<g id="_x32_3_network_x2C__idea_x2C__bitcoin_x2C__coin_x2C__block_x2C__chain_x2C__cryptocurrency">
</g>
<g id="_x32_2_block_x2C__chain_x2C__cryptocurrency_x2C__technology_x2C__future">
</g>
<g id="_x32_1_smart_contact_x2C__contact_x2C__block_x2C__chain_x2C__cryptocurrency">
</g>
<g id="_x32_0_lock_x2C__safe_x2C__protection_x2C__block_x2C__chain_x2C__cryptocurrency_x2C__program">
</g>
<g id="_x31_9_server_x2C__data_x2C__bitcoin_x2C__coin_x2C__block_x2C__chain_x2C__cryptocurrency">
</g>
<g id="_x31_8_key_x2C__bitcoin_x2C__coin_x2C__block_x2C__chain_x2C__cryptocurrency">
</g>
<g id="_x31_7_pool_x2C__network_x2C__bitcoin_x2C__coin_x2C__block_x2C__chain_x2C__cryptocurrency">
</g>
<g id="_x31_6_mining_x2C__shovel_x2C__mine_x2C__coin_x2C__block_x2C__chain_x2C__cryptocurrency">
</g>
<g id="_x31_5_purse_x2C__bitcoin_x2C__coin_x2C__block_x2C__chain_x2C__cryptocurrency">
</g>
<g id="_x31_4_safe_x2C__protection_x2C__block_x2C__chain_x2C__cryptocurrency_x2C__program">
</g>
<g id="_x31_3_mining_x2C__funnel_x2C__satoshi_x2C__bitcoin_x2C__coin_x2C__cryptocurrency">
</g>
<g id="_x31_2_chart_x2C__bitcoin_x2C__coin_x2C__block_x2C__chain_x2C__cryptocurrency">
</g>
<g id="_x31_1_computer_x2C__monitor_x2C__bitcoin_x2C__coin_x2C__block_x2C__chain_x2C__cryptocurrency">
</g>
<g id="_x31_0_mining_x2C__pickaxe_x2C__stone_x2C__mine_x2C___bitcoin_x2C__coin_x2C__cryptocurrency">
</g>
<g id="_x39__miner_x2C__mining_x2C__computer_x2C__pickaxe_x2C__program_x2C__cryptocurrency">
</g>
<g id="_x38__video_card_x2C__mining_x2C__bitcoin_x2C__coin_x2C__block_x2C__chain_x2C__cryptocurrency">
</g>
<g id="_x37__exchanger_x2C__site_x2C__bitcoin_x2C__coin_x2C__block_x2C__chain_x2C__cryptocurrency">
</g>
<g id="_x36__shop_x2C__product_x2C__bitcoin_x2C__coin_x2C__block_x2C__chain_x2C__cryptocurrency">
</g>
<g id="_x35__bitcoin_x2C__coin_x2C__exchange_x2C__block_x2C__chain_x2C__cryptocurrency_x2C__product">
</g>
<g id="_x34__bitcoin_x2C__coin_x2C__exchange_x2C__block_x2C__chain_x2C__cryptocurrency">
</g>
<g id="_x33__bitcoin_x2C__coin_x2C__exchange_x2C__block_x2C__chain_x2C__cryptocurrency">
</g>
<g id="_x32__brain_x2C__smart_x2C__coin_x2C__block_x2C__chain_x2C__cryptocurrency">
</g>
<g id="_x31__bitcoin_x2C__coin_x2C__block_x2C__chain_x2C__cryptocurrency">
</g>
</svg>
