<?xml version="1.0" encoding="utf-8"?>
<!-- Generator: Adobe Illustrator 16.0.0, SVG Export Plug-In . SVG Version: 6.00 Build 0)  -->
<!DOCTYPE svg PUBLIC "-//W3C//DTD SVG 1.1//EN" "http://www.w3.org/Graphics/SVG/1.1/DTD/svg11.dtd">
<svg version="1.1" xmlns="http://www.w3.org/2000/svg" xmlns:xlink="http://www.w3.org/1999/xlink" x="0px" y="0px" width="64px"
	 height="64px" viewBox="0 0 64 64" enable-background="new 0 0 64 64" xml:space="preserve">
<g id="_x35_0_code_x2C__programming_x2C__program_x2C__bitcoin_x2C__block_x2C__chain_x2C__cryptocurrency">
</g>
<g id="_x34_9_balloon_x2C__takeoff_x2C__bitcoin_x2C__coin_x2C__block_x2C__chain_x2C__cryptocurrency">
</g>
<g id="_x34_8_video_card_x2C__mining_x2C__farm_x2C__computer_x2C__block_x2C__chain_x2C__cryptocurrency">
</g>
<g id="_x34_7_money_box_x2C__saving_x2C__bitcoin_x2C__coin_x2C__block_x2C__chain_x2C__cryptocurrency">
</g>
<g id="_x34_6_portfolio_x2C__finance_x2C__bank_note_x2C__bitcoin_x2C__coin_x2C__cryptocurrency">
</g>
<g id="_x34_5_tap_x2C__water_x2C__bitcoin_x2C__coin_x2C__block_x2C__chain_x2C__cryptocurrency">
</g>
<g id="_x34_4_phone_x2C__bitcoin_x2C__coin_x2C__block_x2C__chain_x2C__cryptocurrency">
</g>
<g id="_x34_3_rocket_x2C__sun_x2C__bitcoin_x2C__coin_x2C__block_x2C__chain_x2C__cryptocurrency">
</g>
<g id="_x34_2_transfer_x2C__network_x2C__bitcoin_x2C__coin_x2C__block_x2C__chain_x2C__cryptocurrency">
</g>
<g id="_x34_1_scales_x2C__comparison_x2C__bitcoin_x2C__coin_x2C__block_x2C__chain_x2C__cryptocurrency">
</g>
<g id="_x34_0_calculator_x2C__calculating_x2C__bitcoin_x2C__coin_x2C__block_x2C__chain_x2C__cryptocurrency">
</g>
<g id="_x33_9_start-up_x2C__plant_x2C__hand_x2C__bitcoin_x2C__coin_x2C__cryptocurrency">
</g>
<g id="_x33_8_idea_x2C__bulb_x2C__bitcoin_x2C__coin_x2C__block_x2C__chain_x2C__cryptocurrency">
</g>
<g id="_x33_7_users_x2C__user_x2C__co-founder_x2C__bitcoin_x2C__coin_x2C__cryptocurrency">
</g>
<g id="_x33_6_safe_x2C__protection_x2C__bitcoin_x2C__coin_x2C__block_x2C__chain_x2C__cryptocurrency">
</g>
<g id="_x33_5_flash_drive_x2C__key_x2C__block_x2C__chain_x2C__cryptocurrency">
</g>
<g id="_x33_4_cloud_x2C__mining_x2C__bitcoin_x2C__coin_x2C__block_x2C__chain_x2C__cryptocurrency">
</g>
<g id="_x33_3_start_up_x2C__plant_x2C__bitcoin_x2C__coin_x2C__block_x2C__chain_x2C__cryptocurrency">
</g>
<g id="_x33_2_planet_x2C__bitcoin_x2C__coin_x2C__block_x2C__chain_x2C__cryptocurrency">
</g>
<g id="_x33_1_payment_x2C__hand_x2C__bitcoin_x2C__coin_x2C__block_x2C__chain_x2C__cryptocurrency">
</g>
<g id="_x33_0_user_x2C__laptop_x2C__bitcoin_x2C__coin_x2C__block_x2C__chain_x2C__cryptocurrency">
</g>
<g id="_x32_9_thief_x2C__bag_x2C__bitcoin_x2C__coin_x2C__block_x2C__chain_x2C__cryptocurrency">
</g>
<g id="_x32_8_code_x2C__programming_x2C__program_x2C__bitcoin_x2C__coin_x2C__cryptocurrency">
</g>
<g id="_x32_7_bitcoin_x2C__coin_x2C__block_x2C__chain_x2C__cryptocurrency">
</g>
<g id="_x32_6_shield_x2C__protection_x2C__bitcoin_x2C__coin_x2C__block_x2C__chain_x2C__cryptocurrency">
</g>
<g id="_x32_5_bug_x2C__laptop_x2C__miner_x2C__program_x2C__block_x2C__chain_x2C__cryptocurrency">
</g>
<g id="_x32_4_computer_x2C__monitor_x2C__bitcoin_x2C__coin_x2C__block_x2C__chain_x2C__cryptocurrency">
</g>
<g id="_x32_3_network_x2C__idea_x2C__bitcoin_x2C__coin_x2C__block_x2C__chain_x2C__cryptocurrency">
</g>
<g id="_x32_2_block_x2C__chain_x2C__cryptocurrency_x2C__technology_x2C__future">
</g>
<g id="_x32_1_smart_contact_x2C__contact_x2C__block_x2C__chain_x2C__cryptocurrency">
</g>
<g id="_x32_0_lock_x2C__safe_x2C__protection_x2C__block_x2C__chain_x2C__cryptocurrency_x2C__program">
</g>
<g id="_x31_9_server_x2C__data_x2C__bitcoin_x2C__coin_x2C__block_x2C__chain_x2C__cryptocurrency">
</g>
<g id="_x31_8_key_x2C__bitcoin_x2C__coin_x2C__block_x2C__chain_x2C__cryptocurrency">
</g>
<g id="_x31_7_pool_x2C__network_x2C__bitcoin_x2C__coin_x2C__block_x2C__chain_x2C__cryptocurrency">
</g>
<g id="_x31_6_mining_x2C__shovel_x2C__mine_x2C__coin_x2C__block_x2C__chain_x2C__cryptocurrency">
</g>
<g id="_x31_5_purse_x2C__bitcoin_x2C__coin_x2C__block_x2C__chain_x2C__cryptocurrency">
</g>
<g id="_x31_4_safe_x2C__protection_x2C__block_x2C__chain_x2C__cryptocurrency_x2C__program">
</g>
<g id="_x31_3_mining_x2C__funnel_x2C__satoshi_x2C__bitcoin_x2C__coin_x2C__cryptocurrency">
</g>
<g id="_x31_2_chart_x2C__bitcoin_x2C__coin_x2C__block_x2C__chain_x2C__cryptocurrency">
</g>
<g id="_x31_1_computer_x2C__monitor_x2C__bitcoin_x2C__coin_x2C__block_x2C__chain_x2C__cryptocurrency">
</g>
<g id="_x31_0_mining_x2C__pickaxe_x2C__stone_x2C__mine_x2C___bitcoin_x2C__coin_x2C__cryptocurrency">
</g>
<g id="_x39__miner_x2C__mining_x2C__computer_x2C__pickaxe_x2C__program_x2C__cryptocurrency">
</g>
<g id="_x38__video_card_x2C__mining_x2C__bitcoin_x2C__coin_x2C__block_x2C__chain_x2C__cryptocurrency">
</g>
<g id="_x37__exchanger_x2C__site_x2C__bitcoin_x2C__coin_x2C__block_x2C__chain_x2C__cryptocurrency">
</g>
<g id="_x36__shop_x2C__product_x2C__bitcoin_x2C__coin_x2C__block_x2C__chain_x2C__cryptocurrency">
	<g>
		<g>
			<g>
				<path d="M3.015,18.5c-1.654,0-3-1.346-3-3c0-0.552,0.447-1,1-1s1,0.448,1,1c0,0.551,0.448,1,1,1s1-0.449,1-1
					c0-0.552,0.447-1,1-1s1,0.448,1,1C6.015,17.154,4.669,18.5,3.015,18.5z"/>
			</g>
			<g>
				<path d="M7.015,18.5c-1.654,0-3-1.346-3-3c0-0.552,0.447-1,1-1s1,0.448,1,1c0,0.551,0.448,1,1,1s1-0.449,1-1
					c0-0.552,0.447-1,1-1s1,0.448,1,1C10.015,17.154,8.669,18.5,7.015,18.5z"/>
			</g>
			<g>
				<path d="M11.015,18.5c-1.654,0-3-1.346-3-3c0-0.552,0.447-1,1-1s1,0.448,1,1c0,0.551,0.448,1,1,1s1-0.449,1-1
					c0-0.552,0.447-1,1-1s1,0.448,1,1C14.015,17.154,12.669,18.5,11.015,18.5z"/>
			</g>
			<g>
				<path d="M15.015,18.5c-1.654,0-3-1.346-3-3c0-0.552,0.447-1,1-1s1,0.448,1,1c0,0.551,0.448,1,1,1s1-0.449,1-1
					c0-0.552,0.447-1,1-1s1,0.448,1,1C18.015,17.154,16.669,18.5,15.015,18.5z"/>
			</g>
			<g>
				<path d="M19.015,18.5c-1.654,0-3-1.346-3-3c0-0.552,0.447-1,1-1s1,0.448,1,1c0,0.551,0.448,1,1,1s1-0.449,1-1
					c0-0.552,0.447-1,1-1s1,0.448,1,1C22.015,17.154,20.669,18.5,19.015,18.5z"/>
			</g>
			<g>
				<path d="M23.015,18.5c-1.654,0-3-1.346-3-3c0-0.552,0.447-1,1-1s1,0.448,1,1c0,0.551,0.448,1,1,1s1-0.449,1-1
					c0-0.552,0.447-1,1-1s1,0.448,1,1C26.015,17.154,24.669,18.5,23.015,18.5z"/>
			</g>
			<g>
				<path d="M27.015,18.5c-1.654,0-3-1.346-3-3c0-0.552,0.447-1,1-1s1,0.448,1,1c0,0.551,0.448,1,1,1s1-0.449,1-1
					c0-0.552,0.447-1,1-1s1,0.448,1,1C30.015,17.154,28.669,18.5,27.015,18.5z"/>
			</g>
			<g>
				<path d="M31.015,18.5c-1.654,0-3-1.346-3-3c0-0.552,0.447-1,1-1s1,0.448,1,1c0,0.551,0.448,1,1,1s1-0.449,1-1
					c0-0.552,0.447-1,1-1s1,0.448,1,1C34.015,17.154,32.669,18.5,31.015,18.5z"/>
			</g>
			<g>
				<path d="M35.015,18.5c-1.654,0-3-1.346-3-3c0-0.552,0.447-1,1-1s1,0.448,1,1c0,0.551,0.448,1,1,1s1-0.449,1-1
					c0-0.552,0.447-1,1-1s1,0.448,1,1C38.015,17.154,36.669,18.5,35.015,18.5z"/>
			</g>
			<g>
				<path d="M39.015,18.5c-1.654,0-3-1.346-3-3c0-0.552,0.447-1,1-1s1,0.448,1,1c0,0.551,0.448,1,1,1s1-0.449,1-1
					c0-0.552,0.447-1,1-1s1,0.448,1,1C42.015,17.154,40.669,18.5,39.015,18.5z"/>
			</g>
			<g>
				<path d="M43.015,18.5c-1.654,0-3-1.346-3-3c0-0.552,0.447-1,1-1s1,0.448,1,1c0,0.551,0.448,1,1,1s1-0.449,1-1
					c0-0.552,0.447-1,1-1s1,0.448,1,1C46.015,17.154,44.669,18.5,43.015,18.5z"/>
			</g>
			<g>
				<path d="M47.015,18.5c-1.654,0-3-1.346-3-3c0-0.552,0.447-1,1-1s1,0.448,1,1c0,0.551,0.448,1,1,1s1-0.449,1-1
					c0-0.552,0.447-1,1-1s1,0.448,1,1C50.015,17.154,48.669,18.5,47.015,18.5z"/>
			</g>
			<g>
				<path d="M51.015,18.5c-1.654,0-3-1.346-3-3c0-0.552,0.447-1,1-1s1,0.448,1,1c0,0.551,0.448,1,1,1s1-0.449,1-1
					c0-0.552,0.447-1,1-1s1,0.448,1,1C54.015,17.154,52.669,18.5,51.015,18.5z"/>
			</g>
			<g>
				<path d="M55.015,18.5c-1.654,0-3-1.346-3-3c0-0.552,0.447-1,1-1s1,0.448,1,1c0,0.551,0.448,1,1,1s1-0.449,1-1
					c0-0.552,0.447-1,1-1s1,0.448,1,1C58.015,17.154,56.669,18.5,55.015,18.5z"/>
			</g>
			<g>
				<path d="M1.015,14.5c-0.256,0-0.512-0.098-0.707-0.293c-0.391-0.391-0.391-1.023,0-1.414l4-4c0.391-0.391,1.023-0.391,1.414,0
					s0.391,1.023,0,1.414l-4,4C1.526,14.402,1.271,14.5,1.015,14.5z"/>
			</g>
			<g>
				<path d="M1.015,16.5c-0.553,0-1-0.448-1-1v-2c0-0.552,0.447-1,1-1s1,0.448,1,1v2C2.015,16.052,1.567,16.5,1.015,16.5z"/>
			</g>
			<g>
				<path d="M57.015,14.5c-0.256,0-0.512-0.098-0.707-0.293l-4-4c-0.391-0.391-0.391-1.023,0-1.414s1.023-0.391,1.414,0l4,4
					c0.391,0.391,0.391,1.023,0,1.414C57.526,14.402,57.271,14.5,57.015,14.5z"/>
			</g>
			<g>
				<path d="M57.015,16.5c-0.553,0-1-0.448-1-1v-2c0-0.552,0.447-1,1-1s1,0.448,1,1v2C58.015,16.052,57.567,16.5,57.015,16.5z"/>
			</g>
			<g>
				<path d="M53.015,10.5h-48c-0.553,0-1-0.448-1-1s0.447-1,1-1h48c0.553,0,1,0.448,1,1S53.567,10.5,53.015,10.5z"/>
			</g>
			<g>
				<path d="M5.015,10.5c-0.553,0-1-0.448-1-1v-3c0-0.552,0.447-1,1-1s1,0.448,1,1v3C6.015,10.052,5.567,10.5,5.015,10.5z"/>
			</g>
			<g>
				<path d="M53.015,10.5c-0.553,0-1-0.448-1-1v-3c0-0.552,0.447-1,1-1s1,0.448,1,1v3C54.015,10.052,53.567,10.5,53.015,10.5z"/>
			</g>
			<g>
				<path d="M5.015,7.5c-0.553,0-1-0.448-1-1c0-1.654,1.346-3,3-3c0.553,0,1,0.448,1,1s-0.447,1-1,1c-0.552,0-1,0.449-1,1
					C6.015,7.052,5.567,7.5,5.015,7.5z"/>
			</g>
			<g>
				<path d="M53.015,7.5c-0.553,0-1-0.448-1-1c0-0.551-0.448-1-1-1c-0.553,0-1-0.448-1-1s0.447-1,1-1c1.654,0,3,1.346,3,3
					C54.015,7.052,53.567,7.5,53.015,7.5z"/>
			</g>
			<g>
				<path d="M51.015,5.5h-44c-0.553,0-1-0.448-1-1s0.447-1,1-1h44c0.553,0,1,0.448,1,1S51.567,5.5,51.015,5.5z"/>
			</g>
			<g>
				<path d="M4.985,46.5L4.985,46.5c-0.554-0.001-1.001-0.448-1-1.001l0.029-30c0.001-0.552,0.448-0.999,1-0.999h0.001
					c0.553,0,1,0.449,0.999,1.001l-0.029,30C5.984,46.053,5.537,46.5,4.985,46.5z"/>
			</g>
			<g>
				<path d="M53.015,36.501c-0.553,0-1-0.447-1-1V15.5c0-0.552,0.447-1,1-1s1,0.448,1,1v20.001
					C54.015,36.054,53.567,36.501,53.015,36.501z"/>
			</g>
			<g>
				<path d="M43.015,46.5H4.985c-0.553,0-1-0.447-1-1s0.447-1,1-1h38.029c0.553,0,1,0.447,1,1S43.567,46.5,43.015,46.5z"/>
			</g>
			<g>
				<path d="M36.985,46.5c-0.553,0-1-0.447-1-1v-22c0-0.552,0.447-1,1-1h11c0.553,0,1,0.448,1,1v13.342c0,0.553-0.447,1-1,1
					s-1-0.447-1-1V24.5h-9v21C37.985,46.053,37.538,46.5,36.985,46.5z"/>
			</g>
			<g>
				<path d="M47.985,35.5h-11c-0.553,0-1-0.447-1-1s0.447-1,1-1h11c0.553,0,1,0.447,1,1S48.538,35.5,47.985,35.5z"/>
			</g>
			<g>
				<path d="M32.985,38.5h-24c-0.553,0-1-0.447-1-1v-14c0-0.552,0.447-1,1-1h24c0.553,0,1,0.448,1,1v14
					C33.985,38.053,33.538,38.5,32.985,38.5z M9.985,36.5h22v-12h-22V36.5z"/>
			</g>
			<g>
				<path d="M25.985,34.5h-10c-0.553,0-1-0.447-1-1v-4c0-0.552,0.447-1,1-1h10c0.553,0,1,0.448,1,1v4
					C26.985,34.053,26.538,34.5,25.985,34.5z M16.985,32.5h8v-2h-8V32.5z"/>
			</g>
			<g>
				<path d="M17.985,30.5c-0.256,0-0.512-0.098-0.707-0.293c-0.391-0.391-0.391-1.023,0-1.414l3-3c0.391-0.391,1.023-0.391,1.414,0
					s0.391,1.023,0,1.414l-3,3C18.497,30.402,18.241,30.5,17.985,30.5z"/>
			</g>
			<g>
				<path d="M23.985,30.5c-0.256,0-0.512-0.098-0.707-0.293l-3-3c-0.391-0.391-0.391-1.023,0-1.414s1.023-0.391,1.414,0l3,3
					c0.391,0.391,0.391,1.023,0,1.414C24.497,30.402,24.241,30.5,23.985,30.5z"/>
			</g>
			<g>
				<path d="M32.985,46.5h-24c-0.553,0-1-0.447-1-1v-3c0-0.553,0.447-1,1-1h24c0.553,0,1,0.447,1,1v3
					C33.985,46.053,33.538,46.5,32.985,46.5z M9.985,44.5h22v-1h-22V44.5z"/>
			</g>
			<g>
				<path d="M10.985,43.5c-0.553,0-1-0.447-1-1v-1c0-0.553,0.447-1,1-1s1,0.447,1,1v1C11.985,43.053,11.538,43.5,10.985,43.5z"/>
			</g>
			<g>
				<path d="M14.985,43.5c-0.553,0-1-0.447-1-1v-1c0-0.553,0.447-1,1-1s1,0.447,1,1v1C15.985,43.053,15.538,43.5,14.985,43.5z"/>
			</g>
			<g>
				<path d="M18.985,43.5c-0.553,0-1-0.447-1-1v-1c0-0.553,0.447-1,1-1s1,0.447,1,1v1C19.985,43.053,19.538,43.5,18.985,43.5z"/>
			</g>
			<g>
				<path d="M22.985,43.5c-0.553,0-1-0.447-1-1v-1c0-0.553,0.447-1,1-1s1,0.447,1,1v1C23.985,43.053,23.538,43.5,22.985,43.5z"/>
			</g>
			<g>
				<path d="M26.985,43.5c-0.553,0-1-0.447-1-1v-1c0-0.553,0.447-1,1-1s1,0.447,1,1v1C27.985,43.053,27.538,43.5,26.985,43.5z"/>
			</g>
			<g>
				<path d="M30.985,43.5c-0.553,0-1-0.447-1-1v-1c0-0.553,0.447-1,1-1s1,0.447,1,1v1C31.985,43.053,31.538,43.5,30.985,43.5z"/>
			</g>
		</g>
		<g>
			<path d="M52.985,56.501c-6.065,0-11-4.935-11-11s4.935-11,11-11s11,4.935,11,11S59.051,56.501,52.985,56.501z M52.985,36.501
				c-4.963,0-9,4.037-9,9s4.037,9,9,9s9-4.037,9-9S57.948,36.501,52.985,36.501z"/>
		</g>
		<g>
			<path d="M52.985,60.5c-6.065,0-11-4.935-11-11c0-0.553,0.447-1,1-1s1,0.447,1,1c0,4.963,4.037,9,9,9s9-4.037,9-9
				c0-0.553,0.447-1,1-1s1,0.447,1,1C63.985,55.565,59.051,60.5,52.985,60.5z"/>
		</g>
		<g>
			<path d="M42.985,50.5c-0.553,0-1-0.447-1-1v-3.999c0-0.553,0.447-1,1-1s1,0.447,1,1V49.5C43.985,50.053,43.538,50.5,42.985,50.5z
				"/>
		</g>
		<g>
			<path d="M62.985,50.5c-0.553,0-1-0.447-1-1v-3.999c0-0.553,0.447-1,1-1s1,0.447,1,1V49.5C63.985,50.053,63.538,50.5,62.985,50.5z
				"/>
		</g>
		<g>
			<g>
				<path d="M50.985,50.501c-0.553,0-1-0.447-1-1v-9c0-0.553,0.447-1,1-1s1,0.447,1,1v9C51.985,50.054,51.538,50.501,50.985,50.501z
					"/>
			</g>
			<g>
				<path d="M53.985,45.5c-0.553,0-1-0.447-1-1s0.447-1,1-1c0.552,0,1-0.448,1-1c0-0.551-0.448-0.999-1-0.999c-0.553,0-1-0.447-1-1
					s0.447-1,1-1c1.654,0,3,1.346,3,2.999C56.985,44.154,55.64,45.5,53.985,45.5z"/>
			</g>
			<g>
				<path d="M54.484,50.501c-0.553,0-1-0.447-1-1s0.447-1,1-1c0.828,0,1.501-0.673,1.501-1.5c0-0.828-0.673-1.502-1.501-1.502
					c-0.553,0-1-0.447-1-1s0.447-1,1-1c1.931,0,3.501,1.571,3.501,3.502C57.985,48.931,56.415,50.501,54.484,50.501z"/>
			</g>
			<g>
				<path d="M53.985,41.501h-4c-0.553,0-1-0.447-1-1s0.447-1,1-1h4c0.553,0,1,0.447,1,1S54.538,41.501,53.985,41.501z"/>
			</g>
			<g>
				<path d="M54.484,50.501h-4.499c-0.553,0-1-0.447-1-1s0.447-1,1-1h4.499c0.553,0,1,0.447,1,1S55.037,50.501,54.484,50.501z"/>
			</g>
			<g>
				<path d="M50.985,45.501c-0.552,0-1-0.447-1-0.999c0-0.553,0.447-1.001,0.999-1.001l3.499-0.002c0.001,0,0.001,0,0.001,0
					c0.552,0,1,0.447,1,0.999c0,0.553-0.447,1.001-0.999,1.001L50.985,45.501C50.985,45.501,50.985,45.501,50.985,45.501z"/>
			</g>
			<g>
				<path d="M52.985,41.501c-0.553,0-1-0.447-1-1V39.5c0-0.553,0.447-1,1-1s1,0.447,1,1v1.001
					C53.985,41.054,53.538,41.501,52.985,41.501z"/>
			</g>
			<g>
				<path d="M52.985,51.501c-0.553,0-1-0.447-1-1v-1c0-0.553,0.447-1,1-1s1,0.447,1,1v1C53.985,51.054,53.538,51.501,52.985,51.501z
					"/>
			</g>
		</g>
		<g>
			<path d="M52.985,60.5c-0.553,0-1-0.447-1-1v-3.999c0-0.553,0.447-1,1-1s1,0.447,1,1V59.5C53.985,60.053,53.538,60.5,52.985,60.5z
				"/>
		</g>
		<g>
			<path d="M57.985,59.161c-0.553,0-1-0.447-1-1v-3.998c0-0.553,0.447-1,1-1s1,0.447,1,1v3.998
				C58.985,58.714,58.538,59.161,57.985,59.161z"/>
		</g>
		<g>
			<path d="M47.985,59.161c-0.553,0-1-0.447-1-1v-3.998c0-0.553,0.447-1,1-1s1,0.447,1,1v3.998
				C48.985,58.714,48.538,59.161,47.985,59.161z"/>
		</g>
	</g>
</g>
<g id="_x35__bitcoin_x2C__coin_x2C__exchange_x2C__block_x2C__chain_x2C__cryptocurrency_x2C__product">
</g>
<g id="_x34__bitcoin_x2C__coin_x2C__exchange_x2C__block_x2C__chain_x2C__cryptocurrency">
</g>
<g id="_x33__bitcoin_x2C__coin_x2C__exchange_x2C__block_x2C__chain_x2C__cryptocurrency">
</g>
<g id="_x32__brain_x2C__smart_x2C__coin_x2C__block_x2C__chain_x2C__cryptocurrency">
</g>
<g id="_x31__bitcoin_x2C__coin_x2C__block_x2C__chain_x2C__cryptocurrency">
</g>
</svg>
