<?xml version="1.0" encoding="utf-8"?>
<!-- Generator: Adobe Illustrator 16.0.0, SVG Export Plug-In . SVG Version: 6.00 Build 0)  -->
<!DOCTYPE svg PUBLIC "-//W3C//DTD SVG 1.1//EN" "http://www.w3.org/Graphics/SVG/1.1/DTD/svg11.dtd">
<svg version="1.1" xmlns="http://www.w3.org/2000/svg" xmlns:xlink="http://www.w3.org/1999/xlink" x="0px" y="0px" width="64px"
	 height="64px" viewBox="0 0 64 64" enable-background="new 0 0 64 64" xml:space="preserve">
<g id="_x35_0_code_x2C__programming_x2C__program_x2C__bitcoin_x2C__block_x2C__chain_x2C__cryptocurrency">
</g>
<g id="_x34_9_balloon_x2C__takeoff_x2C__bitcoin_x2C__coin_x2C__block_x2C__chain_x2C__cryptocurrency">
</g>
<g id="_x34_8_video_card_x2C__mining_x2C__farm_x2C__computer_x2C__block_x2C__chain_x2C__cryptocurrency">
</g>
<g id="_x34_7_money_box_x2C__saving_x2C__bitcoin_x2C__coin_x2C__block_x2C__chain_x2C__cryptocurrency">
</g>
<g id="_x34_6_portfolio_x2C__finance_x2C__bank_note_x2C__bitcoin_x2C__coin_x2C__cryptocurrency">
</g>
<g id="_x34_5_tap_x2C__water_x2C__bitcoin_x2C__coin_x2C__block_x2C__chain_x2C__cryptocurrency">
</g>
<g id="_x34_4_phone_x2C__bitcoin_x2C__coin_x2C__block_x2C__chain_x2C__cryptocurrency">
</g>
<g id="_x34_3_rocket_x2C__sun_x2C__bitcoin_x2C__coin_x2C__block_x2C__chain_x2C__cryptocurrency">
</g>
<g id="_x34_2_transfer_x2C__network_x2C__bitcoin_x2C__coin_x2C__block_x2C__chain_x2C__cryptocurrency">
</g>
<g id="_x34_1_scales_x2C__comparison_x2C__bitcoin_x2C__coin_x2C__block_x2C__chain_x2C__cryptocurrency">
</g>
<g id="_x34_0_calculator_x2C__calculating_x2C__bitcoin_x2C__coin_x2C__block_x2C__chain_x2C__cryptocurrency">
</g>
<g id="_x33_9_start-up_x2C__plant_x2C__hand_x2C__bitcoin_x2C__coin_x2C__cryptocurrency">
</g>
<g id="_x33_8_idea_x2C__bulb_x2C__bitcoin_x2C__coin_x2C__block_x2C__chain_x2C__cryptocurrency">
</g>
<g id="_x33_7_users_x2C__user_x2C__co-founder_x2C__bitcoin_x2C__coin_x2C__cryptocurrency">
</g>
<g id="_x33_6_safe_x2C__protection_x2C__bitcoin_x2C__coin_x2C__block_x2C__chain_x2C__cryptocurrency">
</g>
<g id="_x33_5_flash_drive_x2C__key_x2C__block_x2C__chain_x2C__cryptocurrency">
</g>
<g id="_x33_4_cloud_x2C__mining_x2C__bitcoin_x2C__coin_x2C__block_x2C__chain_x2C__cryptocurrency">
</g>
<g id="_x33_3_start_up_x2C__plant_x2C__bitcoin_x2C__coin_x2C__block_x2C__chain_x2C__cryptocurrency">
</g>
<g id="_x33_2_planet_x2C__bitcoin_x2C__coin_x2C__block_x2C__chain_x2C__cryptocurrency">
</g>
<g id="_x33_1_payment_x2C__hand_x2C__bitcoin_x2C__coin_x2C__block_x2C__chain_x2C__cryptocurrency">
</g>
<g id="_x33_0_user_x2C__laptop_x2C__bitcoin_x2C__coin_x2C__block_x2C__chain_x2C__cryptocurrency">
</g>
<g id="_x32_9_thief_x2C__bag_x2C__bitcoin_x2C__coin_x2C__block_x2C__chain_x2C__cryptocurrency">
</g>
<g id="_x32_8_code_x2C__programming_x2C__program_x2C__bitcoin_x2C__coin_x2C__cryptocurrency">
</g>
<g id="_x32_7_bitcoin_x2C__coin_x2C__block_x2C__chain_x2C__cryptocurrency">
</g>
<g id="_x32_6_shield_x2C__protection_x2C__bitcoin_x2C__coin_x2C__block_x2C__chain_x2C__cryptocurrency">
</g>
<g id="_x32_5_bug_x2C__laptop_x2C__miner_x2C__program_x2C__block_x2C__chain_x2C__cryptocurrency">
</g>
<g id="_x32_4_computer_x2C__monitor_x2C__bitcoin_x2C__coin_x2C__block_x2C__chain_x2C__cryptocurrency">
</g>
<g id="_x32_3_network_x2C__idea_x2C__bitcoin_x2C__coin_x2C__block_x2C__chain_x2C__cryptocurrency">
</g>
<g id="_x32_2_block_x2C__chain_x2C__cryptocurrency_x2C__technology_x2C__future">
</g>
<g id="_x32_1_smart_contact_x2C__contact_x2C__block_x2C__chain_x2C__cryptocurrency">
</g>
<g id="_x32_0_lock_x2C__safe_x2C__protection_x2C__block_x2C__chain_x2C__cryptocurrency_x2C__program">
</g>
<g id="_x31_9_server_x2C__data_x2C__bitcoin_x2C__coin_x2C__block_x2C__chain_x2C__cryptocurrency">
</g>
<g id="_x31_8_key_x2C__bitcoin_x2C__coin_x2C__block_x2C__chain_x2C__cryptocurrency">
</g>
<g id="_x31_7_pool_x2C__network_x2C__bitcoin_x2C__coin_x2C__block_x2C__chain_x2C__cryptocurrency">
	<g>
		<g>
			<g>
				<g>
					<path d="M32.035,41.004c-6.617,0-12-5.383-12-12s5.383-12,12-12s12,5.383,12,12S38.652,41.004,32.035,41.004z M32.035,19.004
						c-5.514,0-10,4.486-10,10s4.486,10,10,10s10-4.486,10-10S37.549,19.004,32.035,19.004z"/>
				</g>
				<g>
					<path d="M32.035,45.004c-6.617,0-12-5.383-12-12c0-0.553,0.447-1,1-1s1,0.447,1,1c0,5.514,4.486,10,10,10s10-4.486,10-10
						c0-0.553,0.447-1,1-1s1,0.447,1,1C44.035,39.621,38.652,45.004,32.035,45.004z"/>
				</g>
			</g>
			<g>
				<path d="M43.035,34.004c-0.553,0-1-0.447-1-1v-4c0-0.553,0.447-1,1-1s1,0.447,1,1v4C44.035,33.557,43.588,34.004,43.035,34.004z
					"/>
			</g>
			<g>
				<path d="M21.035,34.004c-0.553,0-1-0.447-1-1v-4c0-0.553,0.447-1,1-1s1,0.447,1,1v4C22.035,33.557,21.588,34.004,21.035,34.004z
					"/>
			</g>
			<g>
				<g>
					<path d="M29.035,35.004c-0.553,0-1-0.447-1-1v-10c0-0.553,0.447-1,1-1s1,0.447,1,1v10
						C30.035,34.557,29.588,35.004,29.035,35.004z"/>
				</g>
				<g>
					<path d="M33.036,29.002c-0.553,0-1-0.447-1-1s0.447-1,1-1c0.551,0,0.999-0.447,0.999-0.998c0-0.552-0.448-1-0.999-1
						c-0.553,0-1-0.447-1-1s0.447-1,1-1c1.653,0,2.999,1.346,2.999,3C36.035,27.657,34.689,29.002,33.036,29.002z"/>
				</g>
				<g>
					<path d="M33.034,35.004c-0.553,0-1-0.447-1-1s0.447-1,1-1c1.104,0,2.001-0.897,2.001-2c0-1.104-0.897-2.002-2.001-2.002
						c-0.553,0-1-0.447-1-1s0.447-1,1-1c2.206,0,4.001,1.795,4.001,4.002C37.035,33.21,35.24,35.004,33.034,35.004z"/>
				</g>
				<g>
					<path d="M33.036,25.004h-5.001c-0.553,0-1-0.447-1-1s0.447-1,1-1h5.001c0.553,0,1,0.447,1,1S33.589,25.004,33.036,25.004z"/>
				</g>
				<g>
					<path d="M33.034,35.004h-4.999c-0.553,0-1-0.447-1-1s0.447-1,1-1h4.999c0.553,0,1,0.447,1,1S33.587,35.004,33.034,35.004z"/>
				</g>
				<g>
					<path d="M33.036,29.002h-4.001c-0.553,0-1-0.447-1-1s0.447-1,1-1h4.001c0.553,0,1,0.447,1,1S33.589,29.002,33.036,29.002z"/>
				</g>
				<g>
					<path d="M31.035,25.004c-0.553,0-1-0.447-1-1v-1c0-0.553,0.447-1,1-1s1,0.447,1,1v1C32.035,24.557,31.588,25.004,31.035,25.004
						z"/>
				</g>
				<g>
					<path d="M31.035,36.004c-0.553,0-1-0.447-1-1v-1c0-0.553,0.447-1,1-1s1,0.447,1,1v1C32.035,35.557,31.588,36.004,31.035,36.004
						z"/>
				</g>
			</g>
			<g>
				<path d="M27.035,43.805c-0.553,0-1-0.447-1-1v-4c0-0.553,0.447-1,1-1s1,0.447,1,1v4C28.035,43.357,27.588,43.805,27.035,43.805z
					"/>
			</g>
			<g>
				<path d="M37.035,43.805c-0.553,0-1-0.447-1-1v-4c0-0.553,0.447-1,1-1s1,0.447,1,1v4C38.035,43.357,37.588,43.805,37.035,43.805z
					"/>
			</g>
			<g>
				<path d="M32.035,45.004c-0.553,0-1-0.447-1-1v-4c0-0.553,0.447-1,1-1s1,0.447,1,1v4C33.035,44.557,32.588,45.004,32.035,45.004z
					"/>
			</g>
		</g>
		<g>
			<g>
				<path d="M62,16.004H44c-1.103,0-2-0.897-2-2v-12c0-1.103,0.897-2,2-2h18c1.103,0,2,0.897,2,2v12
					C64,15.106,63.103,16.004,62,16.004z M62,14.004v1V14.004L62,14.004L62,14.004z M44,2.004v12h17.997l0.003-12H44z"/>
			</g>
			<g>
				<path d="M50.001,19.998c-0.08,0-0.162-0.01-0.243-0.03c-0.536-0.134-0.862-0.677-0.728-1.212l1-4
					c0.133-0.536,0.674-0.865,1.212-0.728c0.536,0.134,0.862,0.677,0.728,1.212l-1,4C50.856,19.695,50.449,19.998,50.001,19.998z"/>
			</g>
			<g>
				<path d="M55.999,19.998c-0.448,0-0.855-0.303-0.969-0.758l-1-4c-0.135-0.535,0.191-1.078,0.728-1.212
					c0.535-0.137,1.078,0.191,1.212,0.728l1,4c0.135,0.535-0.191,1.078-0.728,1.212C56.161,19.988,56.079,19.998,55.999,19.998z"/>
			</g>
			<g>
				<path d="M57,19.998h-8c-0.553,0-1-0.447-1-1s0.447-1,1-1h8c0.553,0,1,0.447,1,1S57.553,19.998,57,19.998z"/>
			</g>
			<g>
				<path d="M54,7.004h-6c-0.553,0-1-0.447-1-1s0.447-1,1-1h6c0.553,0,1,0.447,1,1S54.553,7.004,54,7.004z"/>
			</g>
			<g>
				<path d="M58,7.004h-1c-0.553,0-1-0.447-1-1s0.447-1,1-1h1c0.553,0,1,0.447,1,1S58.553,7.004,58,7.004z"/>
			</g>
			<g>
				<path d="M52,11.004h-4c-0.553,0-1-0.447-1-1s0.447-1,1-1h4c0.553,0,1,0.447,1,1S52.553,11.004,52,11.004z"/>
			</g>
			<g>
				<path d="M58,11.004h-3c-0.553,0-1-0.447-1-1s0.447-1,1-1h3c0.553,0,1,0.447,1,1S58.553,11.004,58,11.004z"/>
			</g>
		</g>
		<g>
			<g>
				<path d="M62,60.002H44c-1.103,0-2-0.897-2-2v-12c0-1.103,0.897-2,2-2h18c1.103,0,2,0.897,2,2v12
					C64,59.104,63.103,60.002,62,60.002z M62,58.002v1V58.002L62,58.002L62,58.002z M44,46.002v12h17.996l0.004-12H44z"/>
			</g>
			<g>
				<path d="M50.001,63.996c-0.08,0-0.162-0.01-0.243-0.03c-0.536-0.134-0.862-0.677-0.728-1.212l1-4
					c0.133-0.536,0.674-0.864,1.212-0.728c0.536,0.134,0.862,0.677,0.728,1.212l-1,4C50.856,63.693,50.449,63.996,50.001,63.996z"/>
			</g>
			<g>
				<path d="M55.999,63.996c-0.448,0-0.855-0.303-0.969-0.758l-1-4c-0.135-0.535,0.191-1.078,0.728-1.212
					c0.535-0.136,1.078,0.191,1.212,0.728l1,4c0.135,0.535-0.191,1.078-0.728,1.212C56.161,63.986,56.079,63.996,55.999,63.996z"/>
			</g>
			<g>
				<path d="M57,63.996h-8c-0.553,0-1-0.447-1-1s0.447-1,1-1h8c0.553,0,1,0.447,1,1S57.553,63.996,57,63.996z"/>
			</g>
			<g>
				<path d="M49,51.002h-1c-0.553,0-1-0.447-1-1s0.447-1,1-1h1c0.553,0,1,0.447,1,1S49.553,51.002,49,51.002z"/>
			</g>
			<g>
				<path d="M58,51.002h-6c-0.553,0-1-0.447-1-1s0.447-1,1-1h6c0.553,0,1,0.447,1,1S58.553,51.002,58,51.002z"/>
			</g>
			<g>
				<path d="M51,55.002h-3c-0.553,0-1-0.447-1-1s0.447-1,1-1h3c0.553,0,1,0.447,1,1S51.553,55.002,51,55.002z"/>
			</g>
			<g>
				<path d="M58,55.002h-4c-0.553,0-1-0.447-1-1s0.447-1,1-1h4c0.553,0,1,0.447,1,1S58.553,55.002,58,55.002z"/>
			</g>
		</g>
		<g>
			<g>
				<path d="M20,16.004H2c-1.103,0-2-0.897-2-2v-12c0-1.103,0.897-2,2-2h18c1.103,0,2,0.897,2,2v12
					C22,15.106,21.103,16.004,20,16.004z M20,14.004v1V14.004L20,14.004L20,14.004z M2,2.004v12h17.997l0.003-12H2z"/>
			</g>
			<g>
				<path d="M8.001,19.998c-0.08,0-0.162-0.01-0.243-0.03c-0.536-0.134-0.862-0.677-0.728-1.212l1-4
					c0.134-0.536,0.676-0.865,1.212-0.728c0.536,0.134,0.862,0.677,0.728,1.212l-1,4C8.856,19.695,8.449,19.998,8.001,19.998z"/>
			</g>
			<g>
				<path d="M13.999,19.998c-0.448,0-0.855-0.303-0.969-0.758l-1-4c-0.135-0.535,0.191-1.078,0.728-1.212
					c0.533-0.137,1.078,0.191,1.212,0.728l1,4c0.135,0.535-0.191,1.078-0.728,1.212C14.161,19.988,14.079,19.998,13.999,19.998z"/>
			</g>
			<g>
				<path d="M15,19.998H7c-0.553,0-1-0.447-1-1s0.447-1,1-1h8c0.553,0,1,0.447,1,1S15.553,19.998,15,19.998z"/>
			</g>
			<g>
				<path d="M10,7.004H6c-0.553,0-1-0.447-1-1s0.447-1,1-1h4c0.553,0,1,0.447,1,1S10.553,7.004,10,7.004z"/>
			</g>
			<g>
				<path d="M16,7.004h-3c-0.553,0-1-0.447-1-1s0.447-1,1-1h3c0.553,0,1,0.447,1,1S16.553,7.004,16,7.004z"/>
			</g>
			<g>
				<path d="M12,11.004H6c-0.553,0-1-0.447-1-1s0.447-1,1-1h6c0.553,0,1,0.447,1,1S12.553,11.004,12,11.004z"/>
			</g>
			<g>
				<path d="M16,11.004h-1c-0.553,0-1-0.447-1-1s0.447-1,1-1h1c0.553,0,1,0.447,1,1S16.553,11.004,16,11.004z"/>
			</g>
		</g>
		<g>
			<g>
				<path d="M20,60.002H2c-1.103,0-2-0.897-2-2v-12c0-1.103,0.897-2,2-2h18c1.103,0,2,0.897,2,2v12
					C22,59.104,21.103,60.002,20,60.002z M20,58.002v1V58.002L20,58.002L20,58.002z M2,46.002v12h17.996l0.004-12H2z"/>
			</g>
			<g>
				<path d="M8.001,63.996c-0.08,0-0.162-0.01-0.243-0.03c-0.536-0.134-0.862-0.677-0.728-1.212l1-4
					c0.134-0.536,0.676-0.864,1.212-0.728c0.536,0.134,0.862,0.677,0.728,1.212l-1,4C8.856,63.693,8.449,63.996,8.001,63.996z"/>
			</g>
			<g>
				<path d="M13.999,63.996c-0.448,0-0.855-0.303-0.969-0.758l-1-4c-0.135-0.535,0.191-1.078,0.728-1.212
					c0.533-0.136,1.078,0.191,1.212,0.728l1,4c0.135,0.535-0.191,1.078-0.728,1.212C14.161,63.986,14.079,63.996,13.999,63.996z"/>
			</g>
			<g>
				<path d="M15,63.996H7c-0.553,0-1-0.447-1-1s0.447-1,1-1h8c0.553,0,1,0.447,1,1S15.553,63.996,15,63.996z"/>
			</g>
			<g>
				<path d="M8,51.002H6c-0.553,0-1-0.447-1-1s0.447-1,1-1h2c0.553,0,1,0.447,1,1S8.553,51.002,8,51.002z"/>
			</g>
			<g>
				<path d="M16,51.002h-5c-0.553,0-1-0.447-1-1s0.447-1,1-1h5c0.553,0,1,0.447,1,1S16.553,51.002,16,51.002z"/>
			</g>
			<g>
				<path d="M11,55.002H6c-0.553,0-1-0.447-1-1s0.447-1,1-1h5c0.553,0,1,0.447,1,1S11.553,55.002,11,55.002z"/>
			</g>
			<g>
				<path d="M16,55.002h-2c-0.553,0-1-0.447-1-1s0.447-1,1-1h2c0.553,0,1,0.447,1,1S16.553,55.002,16,55.002z"/>
			</g>
		</g>
		<g>
			<path d="M39,52.998H25c-0.553,0-1-0.447-1-1s0.447-1,1-1h14c0.553,0,1,0.447,1,1S39.553,52.998,39,52.998z"/>
		</g>
		<g>
			<path d="M39,8.998H25c-0.553,0-1-0.447-1-1s0.447-1,1-1h14c0.553,0,1,0.447,1,1S39.553,8.998,39,8.998z"/>
		</g>
		<g>
			<path d="M53,41.998c-0.553,0-1-0.447-1-1V23.004c0-0.553,0.447-1,1-1s1,0.447,1,1v17.994C54,41.551,53.553,41.998,53,41.998z"/>
		</g>
		<g>
			<path d="M11,41.998c-0.553,0-1-0.447-1-1V23.004c0-0.553,0.447-1,1-1s1,0.447,1,1v17.994C12,41.551,11.553,41.998,11,41.998z"/>
		</g>
	</g>
</g>
<g id="_x31_6_mining_x2C__shovel_x2C__mine_x2C__coin_x2C__block_x2C__chain_x2C__cryptocurrency">
</g>
<g id="_x31_5_purse_x2C__bitcoin_x2C__coin_x2C__block_x2C__chain_x2C__cryptocurrency">
</g>
<g id="_x31_4_safe_x2C__protection_x2C__block_x2C__chain_x2C__cryptocurrency_x2C__program">
</g>
<g id="_x31_3_mining_x2C__funnel_x2C__satoshi_x2C__bitcoin_x2C__coin_x2C__cryptocurrency">
</g>
<g id="_x31_2_chart_x2C__bitcoin_x2C__coin_x2C__block_x2C__chain_x2C__cryptocurrency">
</g>
<g id="_x31_1_computer_x2C__monitor_x2C__bitcoin_x2C__coin_x2C__block_x2C__chain_x2C__cryptocurrency">
</g>
<g id="_x31_0_mining_x2C__pickaxe_x2C__stone_x2C__mine_x2C___bitcoin_x2C__coin_x2C__cryptocurrency">
</g>
<g id="_x39__miner_x2C__mining_x2C__computer_x2C__pickaxe_x2C__program_x2C__cryptocurrency">
</g>
<g id="_x38__video_card_x2C__mining_x2C__bitcoin_x2C__coin_x2C__block_x2C__chain_x2C__cryptocurrency">
</g>
<g id="_x37__exchanger_x2C__site_x2C__bitcoin_x2C__coin_x2C__block_x2C__chain_x2C__cryptocurrency">
</g>
<g id="_x36__shop_x2C__product_x2C__bitcoin_x2C__coin_x2C__block_x2C__chain_x2C__cryptocurrency">
</g>
<g id="_x35__bitcoin_x2C__coin_x2C__exchange_x2C__block_x2C__chain_x2C__cryptocurrency_x2C__product">
</g>
<g id="_x34__bitcoin_x2C__coin_x2C__exchange_x2C__block_x2C__chain_x2C__cryptocurrency">
</g>
<g id="_x33__bitcoin_x2C__coin_x2C__exchange_x2C__block_x2C__chain_x2C__cryptocurrency">
</g>
<g id="_x32__brain_x2C__smart_x2C__coin_x2C__block_x2C__chain_x2C__cryptocurrency">
</g>
<g id="_x31__bitcoin_x2C__coin_x2C__block_x2C__chain_x2C__cryptocurrency">
</g>
</svg>
