<?xml version="1.0" encoding="utf-8"?>
<!-- Generator: Adobe Illustrator 16.0.0, SVG Export Plug-In . SVG Version: 6.00 Build 0)  -->
<!DOCTYPE svg PUBLIC "-//W3C//DTD SVG 1.1//EN" "http://www.w3.org/Graphics/SVG/1.1/DTD/svg11.dtd">
<svg version="1.1" xmlns="http://www.w3.org/2000/svg" xmlns:xlink="http://www.w3.org/1999/xlink" x="0px" y="0px" width="64px"
	 height="64px" viewBox="0 0 64 64" enable-background="new 0 0 64 64" xml:space="preserve">
<g id="_x35_0_code_x2C__programming_x2C__program_x2C__bitcoin_x2C__block_x2C__chain_x2C__cryptocurrency">
</g>
<g id="_x34_9_balloon_x2C__takeoff_x2C__bitcoin_x2C__coin_x2C__block_x2C__chain_x2C__cryptocurrency">
</g>
<g id="_x34_8_video_card_x2C__mining_x2C__farm_x2C__computer_x2C__block_x2C__chain_x2C__cryptocurrency">
</g>
<g id="_x34_7_money_box_x2C__saving_x2C__bitcoin_x2C__coin_x2C__block_x2C__chain_x2C__cryptocurrency">
</g>
<g id="_x34_6_portfolio_x2C__finance_x2C__bank_note_x2C__bitcoin_x2C__coin_x2C__cryptocurrency">
</g>
<g id="_x34_5_tap_x2C__water_x2C__bitcoin_x2C__coin_x2C__block_x2C__chain_x2C__cryptocurrency">
</g>
<g id="_x34_4_phone_x2C__bitcoin_x2C__coin_x2C__block_x2C__chain_x2C__cryptocurrency">
</g>
<g id="_x34_3_rocket_x2C__sun_x2C__bitcoin_x2C__coin_x2C__block_x2C__chain_x2C__cryptocurrency">
</g>
<g id="_x34_2_transfer_x2C__network_x2C__bitcoin_x2C__coin_x2C__block_x2C__chain_x2C__cryptocurrency">
</g>
<g id="_x34_1_scales_x2C__comparison_x2C__bitcoin_x2C__coin_x2C__block_x2C__chain_x2C__cryptocurrency">
</g>
<g id="_x34_0_calculator_x2C__calculating_x2C__bitcoin_x2C__coin_x2C__block_x2C__chain_x2C__cryptocurrency">
</g>
<g id="_x33_9_start-up_x2C__plant_x2C__hand_x2C__bitcoin_x2C__coin_x2C__cryptocurrency">
</g>
<g id="_x33_8_idea_x2C__bulb_x2C__bitcoin_x2C__coin_x2C__block_x2C__chain_x2C__cryptocurrency">
</g>
<g id="_x33_7_users_x2C__user_x2C__co-founder_x2C__bitcoin_x2C__coin_x2C__cryptocurrency">
	<g>
		<g>
			<g>
				<path d="M31.982,22c-6.065,0-11-4.935-11-11s4.935-11,11-11s11,4.935,11,11S38.048,22,31.982,22z M31.982,2
					c-4.963,0-9,4.037-9,9s4.037,9,9,9s9-4.037,9-9S36.945,2,31.982,2z"/>
			</g>
			<g>
				<path d="M31.982,25.999c-6.065,0-11-4.935-11-11c0-0.553,0.447-1,1-1s1,0.447,1,1c0,4.963,4.037,9,9,9s9-4.037,9-9
					c0-0.553,0.447-1,1-1s1,0.447,1,1C42.982,21.064,38.048,25.999,31.982,25.999z"/>
			</g>
			<g>
				<path d="M41.982,15.999c-0.553,0-1-0.447-1-1V11c0-0.553,0.447-1,1-1s1,0.447,1,1v3.999
					C42.982,15.552,42.535,15.999,41.982,15.999z"/>
			</g>
			<g>
				<g>
					<path d="M29.982,16c-0.553,0-1-0.447-1-1V6c0-0.553,0.447-1,1-1s1,0.447,1,1v9C30.982,15.553,30.535,16,29.982,16z"/>
				</g>
				<g>
					<path d="M32.982,10.999c-0.553,0-1-0.447-1-1s0.447-1,1-1c0.552,0,1-0.448,1-1c0-0.551-0.448-0.999-1-0.999
						c-0.553,0-1-0.447-1-1s0.447-1,1-1c1.654,0,3,1.346,3,2.999C35.982,9.653,34.637,10.999,32.982,10.999z"/>
				</g>
				<g>
					<path d="M33.481,16c-0.553,0-1-0.447-1-1s0.447-1,1-1c0.827,0,1.501-0.673,1.501-1.5c0-0.828-0.674-1.502-1.501-1.502
						c-0.553,0-1-0.447-1-1s0.447-1,1-1c1.931,0,3.501,1.571,3.501,3.502C36.982,14.43,35.412,16,33.481,16z"/>
				</g>
				<g>
					<path d="M32.982,7h-4c-0.553,0-1-0.447-1-1s0.447-1,1-1h4c0.553,0,1,0.447,1,1S33.535,7,32.982,7z"/>
				</g>
				<g>
					<path d="M33.481,16h-4.499c-0.553,0-1-0.447-1-1s0.447-1,1-1h4.499c0.553,0,1,0.447,1,1S34.034,16,33.481,16z"/>
				</g>
				<g>
					<path d="M29.982,11c-0.552,0-1-0.447-1-0.999C28.982,9.448,29.43,9,29.981,9l3.499-0.002c0.001,0,0.001,0,0.001,0
						c0.552,0,1,0.447,1,0.999c0,0.553-0.447,1.001-0.999,1.001L29.982,11C29.982,11,29.982,11,29.982,11z"/>
				</g>
				<g>
					<path d="M31.982,7c-0.553,0-1-0.447-1-1V4.999c0-0.553,0.447-1,1-1s1,0.447,1,1V6C32.982,6.553,32.535,7,31.982,7z"/>
				</g>
				<g>
					<path d="M31.982,17c-0.553,0-1-0.447-1-1v-1c0-0.553,0.447-1,1-1s1,0.447,1,1v1C32.982,16.553,32.535,17,31.982,17z"/>
				</g>
			</g>
			<g>
				<path d="M31.982,25.999c-0.553,0-1-0.447-1-1V21c0-0.553,0.447-1,1-1s1,0.447,1,1v3.999
					C32.982,25.552,32.535,25.999,31.982,25.999z"/>
			</g>
			<g>
				<path d="M36.982,24.66c-0.553,0-1-0.447-1-1v-3.998c0-0.553,0.447-1,1-1s1,0.447,1,1v3.998
					C37.982,24.213,37.535,24.66,36.982,24.66z"/>
			</g>
			<g>
				<path d="M26.982,24.66c-0.553,0-1-0.447-1-1v-3.998c0-0.553,0.447-1,1-1s1,0.447,1,1v3.998
					C27.982,24.213,27.535,24.66,26.982,24.66z"/>
			</g>
			<g>
				<path d="M21.982,15.999c-0.553,0-1-0.447-1-1V11c0-0.553,0.447-1,1-1s1,0.447,1,1v3.999
					C22.982,15.552,22.535,15.999,21.982,15.999z"/>
			</g>
		</g>
		<g>
			<g>
				<path d="M2.018,60c-0.553,0-1-0.447-1-1c0-3.309,2.691-6,6-6c0.553,0,1,0.447,1,1s-0.447,1-1,1c-2.206,0-4,1.794-4,4
					C3.018,59.553,2.57,60,2.018,60z"/>
			</g>
			<g>
				<path d="M10.018,55h-3c-0.553,0-1-0.447-1-1s0.447-1,1-1h3c0.553,0,1,0.447,1,1S10.57,55,10.018,55z"/>
			</g>
			<g>
				<path d="M2.018,63c-0.553,0-1-0.447-1-1v-3c0-0.553,0.447-1,1-1s1,0.447,1,1v3C3.018,62.553,2.57,63,2.018,63z"/>
			</g>
			<g>
				<path d="M3.018,64c-1.103,0-2-0.897-2-2c0-0.531,0.418-0.914,0.948-0.943c0.558-0.046,0.992,0.416,1.052,0.942
					c0.552,0,1,0.448,1,1C4.018,63.552,3.57,64,3.018,64z"/>
			</g>
			<g>
				<path d="M26.018,60c-0.553,0-1-0.447-1-1c0-2.206-1.794-4-4-4c-0.553,0-1-0.447-1-1s0.447-1,1-1c3.309,0,6,2.691,6,6
					C27.018,59.553,26.57,60,26.018,60z"/>
			</g>
			<g>
				<path d="M21.018,55h-3c-0.553,0-1-0.447-1-1s0.447-1,1-1h3c0.553,0,1,0.447,1,1S21.57,55,21.018,55z"/>
			</g>
			<g>
				<path d="M26.018,63c-0.553,0-1-0.447-1-1v-3c0-0.553,0.447-1,1-1s1,0.447,1,1v3C27.018,62.553,26.57,63,26.018,63z"/>
			</g>
			<g>
				<path d="M25.018,64c-0.553,0-1-0.447-1-1s0.447-1,1-1c0-0.553,0.447-1,1-1s1,0.447,1,1C27.018,63.103,26.12,64,25.018,64z"/>
			</g>
			<g>
				<path d="M25.018,64h-22c-0.553,0-1-0.447-1-1s0.447-1,1-1h22c0.553,0,1,0.447,1,1S25.57,64,25.018,64z"/>
			</g>
			<g>
				<path d="M10.018,55c-0.553,0-1-0.447-1-1v-3.936c0-0.553,0.447-1,1-1s1,0.447,1,1V54C11.018,54.553,10.57,55,10.018,55z"/>
			</g>
			<g>
				<path d="M18.018,55c-0.553,0-1-0.447-1-1v-3.936c0-0.553,0.447-1,1-1s1,0.447,1,1V54C19.018,54.553,18.57,55,18.018,55z"/>
			</g>
			<g>
				<path d="M14.017,52c-5.514,0-9.999-4.485-9.999-9.998c0-0.553,0.447-1,1-1s1,0.447,1,1c0,4.41,3.588,7.998,7.999,7.998
					c4.412,0,8.001-3.588,8.001-7.998c0-0.553,0.447-1,1-1s1,0.447,1,1C24.018,47.515,19.531,52,14.017,52z"/>
			</g>
			<g>
				<path d="M5.018,43.051c-0.553,0-1-0.447-1-1V36c0-0.553,0.447-1,1-1s1,0.447,1,1v6.051C6.018,42.604,5.57,43.051,5.018,43.051z"
					/>
			</g>
			<g>
				<path d="M23.018,43.002c-0.553,0-1-0.447-1-1V36c0-0.553,0.447-1,1-1s1,0.447,1,1v6.002
					C24.018,42.555,23.57,43.002,23.018,43.002z"/>
			</g>
			<g>
				<path d="M23.018,36.999c-0.553,0-1-0.447-1-1c0-1.653-1.346-2.999-3-2.999c-0.553,0-1-0.447-1-1s0.447-1,1-1
					c2.757,0,5,2.242,5,4.999C24.018,36.552,23.57,36.999,23.018,36.999z"/>
			</g>
			<g>
				<path d="M19.018,33c-0.553,0-1-0.447-1-1v-4c0-0.553,0.447-1,1-1s1,0.447,1,1v4C20.018,32.553,19.57,33,19.018,33z"/>
			</g>
			<g>
				<path d="M19.018,29h-6c-0.553,0-1-0.447-1-1s0.447-1,1-1h6c0.553,0,1,0.447,1,1S19.57,29,19.018,29z"/>
			</g>
			<g>
				<path d="M5.018,37c-0.553,0-1-0.447-1-1c0-4.963,4.037-9,9-9c0.553,0,1,0.447,1,1s-0.447,1-1,1c-3.859,0-7,3.141-7,7
					C6.018,36.553,5.57,37,5.018,37z"/>
			</g>
			<g>
				<g>
					<path d="M23.017,40.025c-0.192,0-0.387-0.056-0.559-0.171l-3-2.025c-0.458-0.31-0.578-0.931-0.27-1.389
						c0.309-0.457,0.93-0.577,1.389-0.27l3,2.025c0.458,0.31,0.578,0.931,0.27,1.389C23.653,39.871,23.338,40.025,23.017,40.025z"/>
				</g>
				<g>
					<path d="M14.518,39c-3.612,0-6.687-1.008-6.815-1.051c-0.523-0.175-0.807-0.74-0.634-1.264c0.174-0.523,0.74-0.81,1.264-0.635
						C8.361,36.061,11.24,37,14.518,37c3.178,0,5.04-0.888,5.059-0.897c0.494-0.241,1.094-0.037,1.337,0.457s0.043,1.09-0.449,1.336
						C20.373,37.94,18.203,39,14.518,39z"/>
				</g>
				<g>
					<path d="M5.019,40.025c-0.321,0-0.637-0.154-0.83-0.44C3.88,39.127,4,38.506,4.458,38.196l3-2.025
						c0.459-0.308,1.08-0.188,1.389,0.27c0.309,0.458,0.188,1.079-0.27,1.389l-3,2.025C5.405,39.97,5.211,40.025,5.019,40.025z"/>
				</g>
			</g>
			<g>
				<path d="M12.017,56c-0.15,0-0.303-0.034-0.446-0.105l-2-1c-0.494-0.247-0.694-0.848-0.447-1.342
					c0.248-0.494,0.849-0.693,1.342-0.447l2,1c0.494,0.247,0.694,0.848,0.447,1.342C12.736,55.798,12.384,56,12.017,56z"/>
			</g>
			<g>
				<path d="M12.019,56c-0.367,0-0.72-0.202-0.896-0.553c-0.247-0.494-0.047-1.095,0.447-1.342l2-1
					c0.495-0.246,1.094-0.047,1.342,0.447c0.247,0.494,0.047,1.095-0.447,1.342l-2,1C12.321,55.966,12.169,56,12.019,56z"/>
			</g>
			<g>
				<path d="M16.019,56c-0.367,0-0.72-0.202-0.896-0.553c-0.247-0.494-0.047-1.095,0.447-1.342l2-1
					c0.494-0.246,1.094-0.047,1.342,0.447c0.247,0.494,0.047,1.095-0.447,1.342l-2,1C16.321,55.966,16.169,56,16.019,56z"/>
			</g>
			<g>
				<path d="M16.017,56c-0.15,0-0.303-0.034-0.446-0.105l-2-1c-0.494-0.247-0.694-0.848-0.447-1.342
					c0.248-0.494,0.848-0.693,1.342-0.447l2,1c0.494,0.247,0.694,0.848,0.447,1.342C16.736,55.798,16.384,56,16.017,56z"/>
			</g>
		</g>
		<g>
			<g>
				<path d="M40.982,42.96c-0.553,0-1-0.447-1-1v-4.32c0-0.553,0.447-1,1-1s1,0.447,1,1v4.32
					C41.982,42.513,41.535,42.96,40.982,42.96z"/>
			</g>
			<g>
				<path d="M58.982,43c-0.553,0-1-0.447-1-1v-4.501c0-0.553,0.447-1,1-1s1,0.447,1,1V42C59.982,42.553,59.535,43,58.982,43z"/>
			</g>
			<g>
				<path d="M58.982,38.499c-0.553,0-1-0.447-1-1c0-4.687-3.813-8.499-8.501-8.499c-4.687,0-8.499,3.813-8.499,8.499
					c0,0.553-0.447,1-1,1s-1-0.447-1-1C38.982,31.71,43.692,27,49.481,27c5.79,0,10.501,4.71,10.501,10.499
					C59.982,38.052,59.535,38.499,58.982,38.499z"/>
			</g>
			<g>
				<path d="M58.983,39.716c-0.301,0-0.598-0.135-0.795-0.392c-2.423-3.165-3.512-2.813-6.423-1.871
					c-2.559,0.828-6.061,1.964-11.939,1.033c-0.545-0.086-0.918-0.598-0.831-1.144c0.086-0.545,0.6-0.921,1.144-0.831
					c5.398,0.852,8.645-0.196,11.012-0.961c2.985-0.966,5.342-1.729,8.626,2.557c0.336,0.438,0.253,1.066-0.186,1.402
					C59.409,39.648,59.195,39.716,58.983,39.716z"/>
			</g>
			<g>
				<path d="M53.981,36.835c-0.202,0-0.406-0.062-0.583-0.188c-0.448-0.322-0.55-0.947-0.228-1.396l3-4.167
					c0.322-0.448,0.946-0.551,1.396-0.228c0.448,0.322,0.55,0.947,0.228,1.396l-3,4.167C54.599,36.69,54.292,36.835,53.981,36.835z"
					/>
			</g>
			<g>
				<path d="M37.982,60c-0.553,0-1-0.447-1-1c0-3.309,2.691-6,6-6c0.553,0,1,0.447,1,1s-0.447,1-1,1c-2.206,0-4,1.794-4,4
					C38.982,59.553,38.535,60,37.982,60z"/>
			</g>
			<g>
				<path d="M45.982,55h-3c-0.553,0-1-0.447-1-1s0.447-1,1-1h3c0.553,0,1,0.447,1,1S46.535,55,45.982,55z"/>
			</g>
			<g>
				<path d="M37.982,63c-0.553,0-1-0.447-1-1v-3c0-0.553,0.447-1,1-1s1,0.447,1,1v3C38.982,62.553,38.535,63,37.982,63z"/>
			</g>
			<g>
				<path d="M38.982,64c-1.103,0-2-0.897-2-2c0-0.531,0.418-0.914,0.948-0.943c0.548-0.046,0.993,0.416,1.052,0.942
					c0.552,0,1,0.448,1,1C39.982,63.552,39.535,64,38.982,64z"/>
			</g>
			<g>
				<path d="M61.982,60c-0.553,0-1-0.447-1-1c0-2.206-1.794-4-4-4c-0.553,0-1-0.447-1-1s0.447-1,1-1c3.309,0,6,2.691,6,6
					C62.982,59.553,62.535,60,61.982,60z"/>
			</g>
			<g>
				<path d="M56.982,55h-3c-0.553,0-1-0.447-1-1s0.447-1,1-1h3c0.553,0,1,0.447,1,1S57.535,55,56.982,55z"/>
			</g>
			<g>
				<path d="M61.982,63c-0.553,0-1-0.447-1-1v-3c0-0.553,0.447-1,1-1s1,0.447,1,1v3C62.982,62.553,62.535,63,61.982,63z"/>
			</g>
			<g>
				<path d="M60.982,64c-0.553,0-1-0.447-1-1s0.447-1,1-1c0-0.553,0.447-1,1-1s1,0.447,1,1C62.982,63.103,62.085,64,60.982,64z"/>
			</g>
			<g>
				<path d="M60.982,64h-22c-0.553,0-1-0.447-1-1s0.447-1,1-1h22c0.553,0,1,0.447,1,1S61.535,64,60.982,64z"/>
			</g>
			<g>
				<path d="M45.982,55c-0.553,0-1-0.447-1-1v-3.936c0-0.553,0.447-1,1-1s1,0.447,1,1V54C46.982,54.553,46.535,55,45.982,55z"/>
			</g>
			<g>
				<path d="M53.982,55c-0.553,0-1-0.447-1-1v-3.936c0-0.553,0.447-1,1-1s1,0.447,1,1V54C54.982,54.553,54.535,55,53.982,55z"/>
			</g>
			<g>
				<path d="M49.981,52c-5.514,0-9.999-4.485-9.999-9.998c0-0.553,0.447-1,1-1s1,0.447,1,1c0,4.41,3.588,7.998,7.999,7.998
					c4.412,0,8.001-3.588,8.001-7.998c0-0.553,0.447-1,1-1s1,0.447,1,1C59.982,47.515,55.496,52,49.981,52z"/>
			</g>
			<g>
				<path d="M47.981,56c-0.15,0-0.303-0.034-0.446-0.105l-2-1c-0.494-0.247-0.694-0.848-0.447-1.342
					c0.248-0.494,0.847-0.693,1.342-0.447l2,1c0.494,0.247,0.694,0.848,0.447,1.342C48.701,55.798,48.349,56,47.981,56z"/>
			</g>
			<g>
				<path d="M47.983,56c-0.367,0-0.72-0.202-0.896-0.553c-0.247-0.494-0.047-1.095,0.447-1.342l2-1
					c0.493-0.246,1.094-0.047,1.342,0.447c0.247,0.494,0.047,1.095-0.447,1.342l-2,1C48.286,55.966,48.134,56,47.983,56z"/>
			</g>
			<g>
				<path d="M51.983,56c-0.367,0-0.72-0.202-0.896-0.553c-0.247-0.494-0.047-1.095,0.447-1.342l2-1
					c0.494-0.246,1.094-0.047,1.342,0.447c0.247,0.494,0.047,1.095-0.447,1.342l-2,1C52.286,55.966,52.134,56,51.983,56z"/>
			</g>
			<g>
				<path d="M51.981,56c-0.15,0-0.303-0.034-0.446-0.105l-2-1c-0.494-0.247-0.694-0.848-0.447-1.342
					c0.248-0.494,0.848-0.693,1.342-0.447l2,1c0.494,0.247,0.694,0.848,0.447,1.342C52.701,55.798,52.349,56,51.981,56z"/>
			</g>
		</g>
		<g>
			<path d="M49.982,25c-0.553,0-1-0.447-1-1V11c0-0.553,0.447-1,1-1s1,0.447,1,1v13C50.982,24.553,50.535,25,49.982,25z"/>
		</g>
		<g>
			<path d="M49.982,12h-4c-0.553,0-1-0.447-1-1s0.447-1,1-1h4c0.553,0,1,0.447,1,1S50.535,12,49.982,12z"/>
		</g>
		<g>
			<path d="M13.982,25c-0.553,0-1-0.447-1-1V11c0-0.553,0.447-1,1-1s1,0.447,1,1v13C14.982,24.553,14.535,25,13.982,25z"/>
		</g>
		<g>
			<path d="M17.982,12h-4c-0.553,0-1-0.447-1-1s0.447-1,1-1h4c0.553,0,1,0.447,1,1S18.535,12,17.982,12z"/>
		</g>
	</g>
</g>
<g id="_x33_6_safe_x2C__protection_x2C__bitcoin_x2C__coin_x2C__block_x2C__chain_x2C__cryptocurrency">
</g>
<g id="_x33_5_flash_drive_x2C__key_x2C__block_x2C__chain_x2C__cryptocurrency">
</g>
<g id="_x33_4_cloud_x2C__mining_x2C__bitcoin_x2C__coin_x2C__block_x2C__chain_x2C__cryptocurrency">
</g>
<g id="_x33_3_start_up_x2C__plant_x2C__bitcoin_x2C__coin_x2C__block_x2C__chain_x2C__cryptocurrency">
</g>
<g id="_x33_2_planet_x2C__bitcoin_x2C__coin_x2C__block_x2C__chain_x2C__cryptocurrency">
</g>
<g id="_x33_1_payment_x2C__hand_x2C__bitcoin_x2C__coin_x2C__block_x2C__chain_x2C__cryptocurrency">
</g>
<g id="_x33_0_user_x2C__laptop_x2C__bitcoin_x2C__coin_x2C__block_x2C__chain_x2C__cryptocurrency">
</g>
<g id="_x32_9_thief_x2C__bag_x2C__bitcoin_x2C__coin_x2C__block_x2C__chain_x2C__cryptocurrency">
</g>
<g id="_x32_8_code_x2C__programming_x2C__program_x2C__bitcoin_x2C__coin_x2C__cryptocurrency">
</g>
<g id="_x32_7_bitcoin_x2C__coin_x2C__block_x2C__chain_x2C__cryptocurrency">
</g>
<g id="_x32_6_shield_x2C__protection_x2C__bitcoin_x2C__coin_x2C__block_x2C__chain_x2C__cryptocurrency">
</g>
<g id="_x32_5_bug_x2C__laptop_x2C__miner_x2C__program_x2C__block_x2C__chain_x2C__cryptocurrency">
</g>
<g id="_x32_4_computer_x2C__monitor_x2C__bitcoin_x2C__coin_x2C__block_x2C__chain_x2C__cryptocurrency">
</g>
<g id="_x32_3_network_x2C__idea_x2C__bitcoin_x2C__coin_x2C__block_x2C__chain_x2C__cryptocurrency">
</g>
<g id="_x32_2_block_x2C__chain_x2C__cryptocurrency_x2C__technology_x2C__future">
</g>
<g id="_x32_1_smart_contact_x2C__contact_x2C__block_x2C__chain_x2C__cryptocurrency">
</g>
<g id="_x32_0_lock_x2C__safe_x2C__protection_x2C__block_x2C__chain_x2C__cryptocurrency_x2C__program">
</g>
<g id="_x31_9_server_x2C__data_x2C__bitcoin_x2C__coin_x2C__block_x2C__chain_x2C__cryptocurrency">
</g>
<g id="_x31_8_key_x2C__bitcoin_x2C__coin_x2C__block_x2C__chain_x2C__cryptocurrency">
</g>
<g id="_x31_7_pool_x2C__network_x2C__bitcoin_x2C__coin_x2C__block_x2C__chain_x2C__cryptocurrency">
</g>
<g id="_x31_6_mining_x2C__shovel_x2C__mine_x2C__coin_x2C__block_x2C__chain_x2C__cryptocurrency">
</g>
<g id="_x31_5_purse_x2C__bitcoin_x2C__coin_x2C__block_x2C__chain_x2C__cryptocurrency">
</g>
<g id="_x31_4_safe_x2C__protection_x2C__block_x2C__chain_x2C__cryptocurrency_x2C__program">
</g>
<g id="_x31_3_mining_x2C__funnel_x2C__satoshi_x2C__bitcoin_x2C__coin_x2C__cryptocurrency">
</g>
<g id="_x31_2_chart_x2C__bitcoin_x2C__coin_x2C__block_x2C__chain_x2C__cryptocurrency">
</g>
<g id="_x31_1_computer_x2C__monitor_x2C__bitcoin_x2C__coin_x2C__block_x2C__chain_x2C__cryptocurrency">
</g>
<g id="_x31_0_mining_x2C__pickaxe_x2C__stone_x2C__mine_x2C___bitcoin_x2C__coin_x2C__cryptocurrency">
</g>
<g id="_x39__miner_x2C__mining_x2C__computer_x2C__pickaxe_x2C__program_x2C__cryptocurrency">
</g>
<g id="_x38__video_card_x2C__mining_x2C__bitcoin_x2C__coin_x2C__block_x2C__chain_x2C__cryptocurrency">
</g>
<g id="_x37__exchanger_x2C__site_x2C__bitcoin_x2C__coin_x2C__block_x2C__chain_x2C__cryptocurrency">
</g>
<g id="_x36__shop_x2C__product_x2C__bitcoin_x2C__coin_x2C__block_x2C__chain_x2C__cryptocurrency">
</g>
<g id="_x35__bitcoin_x2C__coin_x2C__exchange_x2C__block_x2C__chain_x2C__cryptocurrency_x2C__product">
</g>
<g id="_x34__bitcoin_x2C__coin_x2C__exchange_x2C__block_x2C__chain_x2C__cryptocurrency">
</g>
<g id="_x33__bitcoin_x2C__coin_x2C__exchange_x2C__block_x2C__chain_x2C__cryptocurrency">
</g>
<g id="_x32__brain_x2C__smart_x2C__coin_x2C__block_x2C__chain_x2C__cryptocurrency">
</g>
<g id="_x31__bitcoin_x2C__coin_x2C__block_x2C__chain_x2C__cryptocurrency">
</g>
</svg>
