<?xml version="1.0" encoding="utf-8"?>
<!-- Generator: Adobe Illustrator 16.0.0, SVG Export Plug-In . SVG Version: 6.00 Build 0)  -->
<!DOCTYPE svg PUBLIC "-//W3C//DTD SVG 1.1//EN" "http://www.w3.org/Graphics/SVG/1.1/DTD/svg11.dtd">
<svg version="1.1" xmlns="http://www.w3.org/2000/svg" xmlns:xlink="http://www.w3.org/1999/xlink" x="0px" y="0px" width="64px"
	 height="64px" viewBox="0 0 64 64" enable-background="new 0 0 64 64" xml:space="preserve">
<g id="_x35_0_code_x2C__programming_x2C__program_x2C__bitcoin_x2C__block_x2C__chain_x2C__cryptocurrency">
</g>
<g id="_x34_9_balloon_x2C__takeoff_x2C__bitcoin_x2C__coin_x2C__block_x2C__chain_x2C__cryptocurrency">
</g>
<g id="_x34_8_video_card_x2C__mining_x2C__farm_x2C__computer_x2C__block_x2C__chain_x2C__cryptocurrency">
</g>
<g id="_x34_7_money_box_x2C__saving_x2C__bitcoin_x2C__coin_x2C__block_x2C__chain_x2C__cryptocurrency">
</g>
<g id="_x34_6_portfolio_x2C__finance_x2C__bank_note_x2C__bitcoin_x2C__coin_x2C__cryptocurrency">
</g>
<g id="_x34_5_tap_x2C__water_x2C__bitcoin_x2C__coin_x2C__block_x2C__chain_x2C__cryptocurrency">
</g>
<g id="_x34_4_phone_x2C__bitcoin_x2C__coin_x2C__block_x2C__chain_x2C__cryptocurrency">
</g>
<g id="_x34_3_rocket_x2C__sun_x2C__bitcoin_x2C__coin_x2C__block_x2C__chain_x2C__cryptocurrency">
</g>
<g id="_x34_2_transfer_x2C__network_x2C__bitcoin_x2C__coin_x2C__block_x2C__chain_x2C__cryptocurrency">
</g>
<g id="_x34_1_scales_x2C__comparison_x2C__bitcoin_x2C__coin_x2C__block_x2C__chain_x2C__cryptocurrency">
</g>
<g id="_x34_0_calculator_x2C__calculating_x2C__bitcoin_x2C__coin_x2C__block_x2C__chain_x2C__cryptocurrency">
</g>
<g id="_x33_9_start-up_x2C__plant_x2C__hand_x2C__bitcoin_x2C__coin_x2C__cryptocurrency">
</g>
<g id="_x33_8_idea_x2C__bulb_x2C__bitcoin_x2C__coin_x2C__block_x2C__chain_x2C__cryptocurrency">
	<g>
		<g>
			<g>
				<g>
					<path d="M32.041,33.991c-6.617,0-12-5.383-12-12s5.383-12,12-12s12,5.383,12,12S38.658,33.991,32.041,33.991z M32.041,11.991
						c-5.514,0-10,4.486-10,10s4.486,10,10,10s10-4.486,10-10S37.555,11.991,32.041,11.991z"/>
				</g>
				<g>
					<path d="M32.041,37.991c-6.617,0-12-5.383-12-12c0-0.553,0.447-1,1-1s1,0.447,1,1c0,5.514,4.486,10,10,10s10-4.486,10-10
						c0-0.553,0.447-1,1-1s1,0.447,1,1C44.041,32.608,38.658,37.991,32.041,37.991z"/>
				</g>
			</g>
			<g>
				<path d="M43.041,26.991c-0.553,0-1-0.447-1-1v-4c0-0.553,0.447-1,1-1s1,0.447,1,1v4C44.041,26.544,43.594,26.991,43.041,26.991z
					"/>
			</g>
			<g>
				<path d="M21.041,26.991c-0.553,0-1-0.447-1-1v-4c0-0.553,0.447-1,1-1s1,0.447,1,1v4C22.041,26.544,21.594,26.991,21.041,26.991z
					"/>
			</g>
			<g>
				<g>
					<path d="M29.041,27.991c-0.553,0-1-0.447-1-1v-10c0-0.553,0.447-1,1-1s1,0.447,1,1v10
						C30.041,27.544,29.594,27.991,29.041,27.991z"/>
				</g>
				<g>
					<path d="M33.042,21.989c-0.553,0-1-0.447-1-1s0.447-1,1-1c0.551,0,0.999-0.448,0.999-0.999s-0.448-0.999-0.999-0.999
						c-0.553,0-1-0.447-1-1s0.447-1,1-1c1.653,0,2.999,1.346,2.999,2.999S34.695,21.989,33.042,21.989z"/>
				</g>
				<g>
					<path d="M33.04,27.991c-0.553,0-1-0.447-1-1s0.447-1,1-1c1.104,0,2.001-0.897,2.001-2c0-1.104-0.897-2.002-2.001-2.002
						c-0.553,0-1-0.447-1-1s0.447-1,1-1c2.206,0,4.001,1.795,4.001,4.002C37.041,26.197,35.246,27.991,33.04,27.991z"/>
				</g>
				<g>
					<path d="M33.042,17.991h-5.001c-0.553,0-1-0.447-1-1s0.447-1,1-1h5.001c0.553,0,1,0.447,1,1S33.595,17.991,33.042,17.991z"/>
				</g>
				<g>
					<path d="M33.04,27.991h-4.999c-0.553,0-1-0.447-1-1s0.447-1,1-1h4.999c0.553,0,1,0.447,1,1S33.593,27.991,33.04,27.991z"/>
				</g>
				<g>
					<path d="M33.042,21.989h-4.001c-0.553,0-1-0.447-1-1s0.447-1,1-1h4.001c0.553,0,1,0.447,1,1S33.595,21.989,33.042,21.989z"/>
				</g>
				<g>
					<path d="M31.041,17.991c-0.553,0-1-0.447-1-1v-1c0-0.553,0.447-1,1-1s1,0.447,1,1v1C32.041,17.544,31.594,17.991,31.041,17.991
						z"/>
				</g>
				<g>
					<path d="M31.041,28.991c-0.553,0-1-0.447-1-1v-1c0-0.553,0.447-1,1-1s1,0.447,1,1v1C32.041,28.544,31.594,28.991,31.041,28.991
						z"/>
				</g>
			</g>
			<g>
				<path d="M27.041,36.791c-0.553,0-1-0.447-1-1v-4c0-0.553,0.447-1,1-1s1,0.447,1,1v4C28.041,36.344,27.594,36.791,27.041,36.791z
					"/>
			</g>
			<g>
				<path d="M37.041,36.791c-0.553,0-1-0.447-1-1v-4c0-0.553,0.447-1,1-1s1,0.447,1,1v4C38.041,36.344,37.594,36.791,37.041,36.791z
					"/>
			</g>
			<g>
				<path d="M32.041,37.991c-0.553,0-1-0.447-1-1v-4c0-0.553,0.447-1,1-1s1,0.447,1,1v4C33.041,37.544,32.594,37.991,32.041,37.991z
					"/>
			</g>
		</g>
		<g>
			<path d="M44,47.991H20c-0.553,0-1-0.447-1-1v-2.824C12.101,39.721,8,32.221,8,23.991c0-13.233,10.767-24,24-24s24,10.767,24,24
				c0,8.229-4.101,15.729-11,20.176v2.824C45,47.544,44.553,47.991,44,47.991z M21,45.991h22v-2.377
				c0-0.348,0.181-0.671,0.478-0.853C50.066,38.724,54,31.707,54,23.991c0-12.131-9.869-22-22-22s-22,9.869-22,22
				c0,7.716,3.934,14.732,10.522,18.771C20.819,42.943,21,43.267,21,43.614V45.991z"/>
		</g>
		<g>
			<path d="M41.999,60.991H22c-0.266,0-0.52-0.105-0.707-0.293l-2-2C19.105,58.511,19,58.257,19,57.991v-11c0-0.553,0.447-1,1-1h24
				c0.553,0,1,0.447,1,1v11c0,0.266-0.105,0.52-0.293,0.707l-2.001,2C42.519,60.886,42.264,60.991,41.999,60.991z M22.414,58.991
				h19.171L43,57.577v-9.586H21v9.586L22.414,58.991z"/>
		</g>
		<g>
			<path d="M18.999,52.991c-0.534,0-0.978-0.423-0.998-0.962c-0.021-0.552,0.409-1.017,0.961-1.037l26-1
				c0.516-0.036,1.017,0.409,1.037,0.961c0.021,0.552-0.409,1.017-0.961,1.037l-26,1C19.025,52.991,19.013,52.991,18.999,52.991z"/>
		</g>
		<g>
			<path d="M18.999,56.991c-0.534,0-0.978-0.423-0.998-0.962c-0.021-0.552,0.409-1.017,0.961-1.037l26-1
				c0.516-0.045,1.017,0.408,1.037,0.961c0.021,0.552-0.409,1.017-0.961,1.037l-26,1C19.025,56.991,19.013,56.991,18.999,56.991z"/>
		</g>
		<g>
			<path d="M32,64.009c-2.501,0-4.829-1.349-6.074-3.52c-0.275-0.479-0.109-1.091,0.369-1.365c0.479-0.274,1.09-0.108,1.365,0.369
				c0.891,1.552,2.553,2.516,4.34,2.516s3.449-0.964,4.34-2.516c0.274-0.479,0.885-0.645,1.365-0.369
				c0.479,0.274,0.645,0.886,0.369,1.365C36.829,62.66,34.501,64.009,32,64.009z"/>
		</g>
	</g>
</g>
<g id="_x33_7_users_x2C__user_x2C__co-founder_x2C__bitcoin_x2C__coin_x2C__cryptocurrency">
</g>
<g id="_x33_6_safe_x2C__protection_x2C__bitcoin_x2C__coin_x2C__block_x2C__chain_x2C__cryptocurrency">
</g>
<g id="_x33_5_flash_drive_x2C__key_x2C__block_x2C__chain_x2C__cryptocurrency">
</g>
<g id="_x33_4_cloud_x2C__mining_x2C__bitcoin_x2C__coin_x2C__block_x2C__chain_x2C__cryptocurrency">
</g>
<g id="_x33_3_start_up_x2C__plant_x2C__bitcoin_x2C__coin_x2C__block_x2C__chain_x2C__cryptocurrency">
</g>
<g id="_x33_2_planet_x2C__bitcoin_x2C__coin_x2C__block_x2C__chain_x2C__cryptocurrency">
</g>
<g id="_x33_1_payment_x2C__hand_x2C__bitcoin_x2C__coin_x2C__block_x2C__chain_x2C__cryptocurrency">
</g>
<g id="_x33_0_user_x2C__laptop_x2C__bitcoin_x2C__coin_x2C__block_x2C__chain_x2C__cryptocurrency">
</g>
<g id="_x32_9_thief_x2C__bag_x2C__bitcoin_x2C__coin_x2C__block_x2C__chain_x2C__cryptocurrency">
</g>
<g id="_x32_8_code_x2C__programming_x2C__program_x2C__bitcoin_x2C__coin_x2C__cryptocurrency">
</g>
<g id="_x32_7_bitcoin_x2C__coin_x2C__block_x2C__chain_x2C__cryptocurrency">
</g>
<g id="_x32_6_shield_x2C__protection_x2C__bitcoin_x2C__coin_x2C__block_x2C__chain_x2C__cryptocurrency">
</g>
<g id="_x32_5_bug_x2C__laptop_x2C__miner_x2C__program_x2C__block_x2C__chain_x2C__cryptocurrency">
</g>
<g id="_x32_4_computer_x2C__monitor_x2C__bitcoin_x2C__coin_x2C__block_x2C__chain_x2C__cryptocurrency">
</g>
<g id="_x32_3_network_x2C__idea_x2C__bitcoin_x2C__coin_x2C__block_x2C__chain_x2C__cryptocurrency">
</g>
<g id="_x32_2_block_x2C__chain_x2C__cryptocurrency_x2C__technology_x2C__future">
</g>
<g id="_x32_1_smart_contact_x2C__contact_x2C__block_x2C__chain_x2C__cryptocurrency">
</g>
<g id="_x32_0_lock_x2C__safe_x2C__protection_x2C__block_x2C__chain_x2C__cryptocurrency_x2C__program">
</g>
<g id="_x31_9_server_x2C__data_x2C__bitcoin_x2C__coin_x2C__block_x2C__chain_x2C__cryptocurrency">
</g>
<g id="_x31_8_key_x2C__bitcoin_x2C__coin_x2C__block_x2C__chain_x2C__cryptocurrency">
</g>
<g id="_x31_7_pool_x2C__network_x2C__bitcoin_x2C__coin_x2C__block_x2C__chain_x2C__cryptocurrency">
</g>
<g id="_x31_6_mining_x2C__shovel_x2C__mine_x2C__coin_x2C__block_x2C__chain_x2C__cryptocurrency">
</g>
<g id="_x31_5_purse_x2C__bitcoin_x2C__coin_x2C__block_x2C__chain_x2C__cryptocurrency">
</g>
<g id="_x31_4_safe_x2C__protection_x2C__block_x2C__chain_x2C__cryptocurrency_x2C__program">
</g>
<g id="_x31_3_mining_x2C__funnel_x2C__satoshi_x2C__bitcoin_x2C__coin_x2C__cryptocurrency">
</g>
<g id="_x31_2_chart_x2C__bitcoin_x2C__coin_x2C__block_x2C__chain_x2C__cryptocurrency">
</g>
<g id="_x31_1_computer_x2C__monitor_x2C__bitcoin_x2C__coin_x2C__block_x2C__chain_x2C__cryptocurrency">
</g>
<g id="_x31_0_mining_x2C__pickaxe_x2C__stone_x2C__mine_x2C___bitcoin_x2C__coin_x2C__cryptocurrency">
</g>
<g id="_x39__miner_x2C__mining_x2C__computer_x2C__pickaxe_x2C__program_x2C__cryptocurrency">
</g>
<g id="_x38__video_card_x2C__mining_x2C__bitcoin_x2C__coin_x2C__block_x2C__chain_x2C__cryptocurrency">
</g>
<g id="_x37__exchanger_x2C__site_x2C__bitcoin_x2C__coin_x2C__block_x2C__chain_x2C__cryptocurrency">
</g>
<g id="_x36__shop_x2C__product_x2C__bitcoin_x2C__coin_x2C__block_x2C__chain_x2C__cryptocurrency">
</g>
<g id="_x35__bitcoin_x2C__coin_x2C__exchange_x2C__block_x2C__chain_x2C__cryptocurrency_x2C__product">
</g>
<g id="_x34__bitcoin_x2C__coin_x2C__exchange_x2C__block_x2C__chain_x2C__cryptocurrency">
</g>
<g id="_x33__bitcoin_x2C__coin_x2C__exchange_x2C__block_x2C__chain_x2C__cryptocurrency">
</g>
<g id="_x32__brain_x2C__smart_x2C__coin_x2C__block_x2C__chain_x2C__cryptocurrency">
</g>
<g id="_x31__bitcoin_x2C__coin_x2C__block_x2C__chain_x2C__cryptocurrency">
</g>
</svg>
