<svg xmlns="http://www.w3.org/2000/svg" viewBox="0 0 64 64"><path d="M29 37.994a1 1 0 01-1-1v-10a1 1 0 112 0v10a1 1 0 01-1 1zM33 31.992a1 1 0 110-2 1 1 0 000-1.998 1 1 0 110-2c1.654 0 3 1.346 3 2.999s-1.346 2.999-3 2.999z"/><path d="M32.998 37.994a1 1 0 110-2 2.003 2.003 0 002.002-2 2.004 2.004 0 00-2.002-2.002 1 1 0 110-2A4.006 4.006 0 0137 33.994c0 2.206-1.795 4-4.002 4zM33 27.994h-5a1 1 0 110-2h5a1 1 0 110 2z"/><path d="M32.998 37.994H28a1 1 0 110-2h4.998a1 1 0 110 2zM33 31.992h-4a1 1 0 110-2h4a1 1 0 110 2zM31 27.994a1 1 0 01-1-1v-1a1 1 0 112 0v1a1 1 0 01-1 1z"/><path d="M31 38.994a1 1 0 01-1-1v-1a1 1 0 112 0v1a1 1 0 01-1 1z"/><path d="M31.99 45.006c-2.27 0-4.514-.604-6.49-1.745-3.008-1.735-5.158-4.537-6.057-7.891s-.437-6.856 1.3-9.863a13.04 13.04 0 0111.266-6.501c2.27 0 4.514.604 6.489 1.744 3.007 1.735 5.158 4.538 6.057 7.892s.437 6.856-1.3 9.863a13.04 13.04 0 01-11.265 6.501zm.019-24a11.033 11.033 0 00-9.533 5.501c-1.47 2.545-1.86 5.509-1.101 8.346s2.58 5.208 5.125 6.676a10.987 10.987 0 005.49 1.478c3.922 0 7.574-2.108 9.532-5.501a10.93 10.93 0 001.101-8.346 10.917 10.917 0 00-5.125-6.677 10.992 10.992 0 00-5.489-1.477z"/><path d="M31.986 21.008a1 1 0 01-1-1v-5.002a1 1 0 112 0v5.002a1 1 0 01-1 1zM31.986 49.994a1 1 0 01-1-1v-5.009a1 1 0 112 0v5.009a1 1 0 01-1 1zM21.601 27.004a.992.992 0 01-.499-.134l-4.332-2.501a.999.999 0 111-1.732l4.332 2.501a.999.999 0 01-.501 1.866zM46.704 41.497a.992.992 0 01-.499-.134l-4.338-2.505a.999.999 0 111-1.732l4.338 2.505a.999.999 0 01-.501 1.866zM17.271 41.498a1 1 0 01-.501-1.866l4.332-2.502a1 1 0 011 1.732l-4.332 2.502a.997.997 0 01-.499.134zM42.368 27.007a1 1 0 01-.501-1.866l4.338-2.505a1 1 0 111 1.732l-4.338 2.505a.992.992 0 01-.499.134z"/><path d="M31.998 16.006c-4.411 0-8-3.589-8-8s3.589-8 8-8 8 3.589 8 8-3.589 8-8 8zm0-14c-3.309 0-6 2.691-6 6s2.691 6 6 6 6-2.691 6-6-2.691-6-6-6z"/><path d="M31.986 10.994c-1.654 0-3-1.346-3-3s1.346-3 3-3 3 1.346 3 3-1.345 3-3 3zm0-4a1 1 0 100 2 1 1 0 000-2z"/><path d="M35.991 14.757a1 1 0 01-.997-.941 3 3 0 00-5.99-.002 1.007 1.007 0 01-1.057.939.998.998 0 01-.939-1.057 5.001 5.001 0 014.99-4.702 5.003 5.003 0 014.992 4.704 1 1 0 01-.939 1.057l-.06.002zM31.998 63.994c-4.411 0-8-3.589-8-8s3.589-8 8-8 8 3.589 8 8-3.589 8-8 8zm0-14c-3.309 0-6 2.691-6 6s2.691 6 6 6 6-2.691 6-6-2.691-6-6-6z"/><path d="M31.986 58.982c-1.654 0-3-1.346-3-3s1.346-3 3-3 3 1.346 3 3-1.345 3-3 3zm0-4a1 1 0 100 2 1 1 0 000-2z"/><path d="M35.991 62.745a1 1 0 01-.997-.941 3 3 0 00-5.99-.002 1.003 1.003 0 01-1.057.939.998.998 0 01-.939-1.057 5.001 5.001 0 014.99-4.702 5.003 5.003 0 014.992 4.704 1 1 0 01-.939 1.057l-.06.002zM11.219 28.004c-4.411-.001-8-3.59-8-8 0-4.411 3.589-8 8-8 2.137 0 4.146.832 5.657 2.344a7.941 7.941 0 012.343 5.657c0 4.409-3.589 7.998-8 7.999zm0-14c-3.309 0-6 2.691-6 6a6.007 6.007 0 006 6 6.007 6.007 0 006-6c.001-1.603-.623-3.108-1.757-4.242s-2.641-1.758-4.243-1.758z"/><path d="M11.207 22.992a3.006 3.006 0 01-3-3c0-1.654 1.346-3 3-3s3 1.345 3 2.998a3.004 3.004 0 01-3 3.002zm0-4a1 1 0 100 2 1 1 0 000-2z"/><path d="M15.21 26.756a1 1 0 01-.997-.941c-.093-1.583-1.408-2.822-2.994-2.822a3 3 0 00-2.994 2.82 1.011 1.011 0 01-1.057.939.998.998 0 01-.939-1.057c.154-2.638 2.347-4.703 4.99-4.703s4.836 2.066 4.99 4.705a1 1 0 01-.999 1.059z"/><g><path d="M52.777 51.998c-4.41 0-7.998-3.589-7.998-8s3.587-8 7.996-8c4.412 0 8.002 3.589 8.002 8a7.943 7.943 0 01-2.342 5.657 7.948 7.948 0 01-5.658 2.343zm0-14a5.953 5.953 0 00-4.241 1.758 5.96 5.96 0 00-1.757 4.242c0 3.309 2.69 6 5.998 6 1.604 0 3.11-.624 4.244-1.757a5.959 5.959 0 001.756-4.242 6.006 6.006 0 00-6-6.001z"/><path d="M52.768 46.986a3.008 3.008 0 01-3.002-2.998 3.004 3.004 0 013-3.002 3.008 3.008 0 013.002 2.998 3.007 3.007 0 01-3 3.002zm-.002-4a1 1 0 100 2 1 1 0 000-2z"/><path d="M56.771 50.75a1 1 0 01-.997-.941 3 3 0 00-5.988-.002 1.012 1.012 0 01-1.057.939.998.998 0 01-.939-1.057 5 5 0 014.988-4.703 5.003 5.003 0 014.992 4.705 1 1 0 01-.999 1.059z"/></g><g><path d="M11.225 51.996h-.005c-4.412 0-7.999-3.588-7.999-7.998.002-4.411 3.591-8 8-8 4.412 0 8 3.589 8.002 7.999-.002 4.411-3.59 7.999-7.998 7.999zm0-13.998a6.01 6.01 0 00-6.004 6.001 6.003 6.003 0 005.996 5.997l.008 1v-1c3.306 0 5.996-2.691 5.998-5.999-.002-3.308-2.693-5.999-5.998-5.999z"/><path d="M11.209 46.984c-1.654 0-3-1.346-3-3a3.004 3.004 0 013.002-2.998c.802 0 1.556.312 2.121.879.565.565.877 1.317.877 2.118a3.004 3.004 0 01-3 3.001zm.004-3.998c-.554 0-1.004.447-1.004.998a1 1 0 102-.001.998.998 0 00-.996-.997z"/><path d="M15.214 50.748a.999.999 0 01-.997-.94 3 3 0 00-5.99-.003 1.014 1.014 0 01-1.057.939.998.998 0 01-.939-1.057 5.001 5.001 0 014.99-4.703 5.006 5.006 0 014.992 4.704 1 1 0 01-.938 1.058l-.061.002z"/></g><g><path d="M52.779 28.004c-4.41-.002-7.998-3.591-7.998-8 0-4.411 3.587-8 7.996-8 4.411 0 8.002 3.589 8.004 7.999-.002 4.412-3.592 8.001-8.002 8.001zm0-14a5.953 5.953 0 00-4.241 1.758 5.96 5.96 0 00-1.757 4.242 6.008 6.008 0 005.999 6 6.01 6.01 0 006.001-6.001 6.01 6.01 0 00-6.002-5.999z"/><path d="M52.77 22.991a3.005 3.005 0 01-3.002-2.999c0-1.654 1.347-3 3.002-3 1.654 0 3 1.346 3 3a3.007 3.007 0 01-3 2.999zm0-3.999a1 1 0 10-.002 1.999h.002a1 1 0 000-1.999z"/><path d="M56.772 26.756a1 1 0 01-.997-.941 3.002 3.002 0 00-2.996-2.822 3.003 3.003 0 00-2.994 2.82c-.033.552-.514.96-1.058.938a.997.997 0 01-.938-1.058 5.005 5.005 0 014.99-4.701 5.003 5.003 0 014.992 4.705 1 1 0 01-.999 1.059z"/></g></svg>