<?xml version="1.0" encoding="utf-8"?>
<!-- Generator: Adobe Illustrator 16.0.0, SVG Export Plug-In . SVG Version: 6.00 Build 0)  -->
<!DOCTYPE svg PUBLIC "-//W3C//DTD SVG 1.1//EN" "http://www.w3.org/Graphics/SVG/1.1/DTD/svg11.dtd">
<svg version="1.1" xmlns="http://www.w3.org/2000/svg" xmlns:xlink="http://www.w3.org/1999/xlink" x="0px" y="0px" width="64px"
	 height="64px" viewBox="0 0 64 64" enable-background="new 0 0 64 64" xml:space="preserve">
<g id="_x35_0_code_x2C__programming_x2C__program_x2C__bitcoin_x2C__block_x2C__chain_x2C__cryptocurrency">
</g>
<g id="_x34_9_balloon_x2C__takeoff_x2C__bitcoin_x2C__coin_x2C__block_x2C__chain_x2C__cryptocurrency">
</g>
<g id="_x34_8_video_card_x2C__mining_x2C__farm_x2C__computer_x2C__block_x2C__chain_x2C__cryptocurrency">
</g>
<g id="_x34_7_money_box_x2C__saving_x2C__bitcoin_x2C__coin_x2C__block_x2C__chain_x2C__cryptocurrency">
</g>
<g id="_x34_6_portfolio_x2C__finance_x2C__bank_note_x2C__bitcoin_x2C__coin_x2C__cryptocurrency">
</g>
<g id="_x34_5_tap_x2C__water_x2C__bitcoin_x2C__coin_x2C__block_x2C__chain_x2C__cryptocurrency">
</g>
<g id="_x34_4_phone_x2C__bitcoin_x2C__coin_x2C__block_x2C__chain_x2C__cryptocurrency">
</g>
<g id="_x34_3_rocket_x2C__sun_x2C__bitcoin_x2C__coin_x2C__block_x2C__chain_x2C__cryptocurrency">
</g>
<g id="_x34_2_transfer_x2C__network_x2C__bitcoin_x2C__coin_x2C__block_x2C__chain_x2C__cryptocurrency">
</g>
<g id="_x34_1_scales_x2C__comparison_x2C__bitcoin_x2C__coin_x2C__block_x2C__chain_x2C__cryptocurrency">
</g>
<g id="_x34_0_calculator_x2C__calculating_x2C__bitcoin_x2C__coin_x2C__block_x2C__chain_x2C__cryptocurrency">
</g>
<g id="_x33_9_start-up_x2C__plant_x2C__hand_x2C__bitcoin_x2C__coin_x2C__cryptocurrency">
</g>
<g id="_x33_8_idea_x2C__bulb_x2C__bitcoin_x2C__coin_x2C__block_x2C__chain_x2C__cryptocurrency">
</g>
<g id="_x33_7_users_x2C__user_x2C__co-founder_x2C__bitcoin_x2C__coin_x2C__cryptocurrency">
</g>
<g id="_x33_6_safe_x2C__protection_x2C__bitcoin_x2C__coin_x2C__block_x2C__chain_x2C__cryptocurrency">
</g>
<g id="_x33_5_flash_drive_x2C__key_x2C__block_x2C__chain_x2C__cryptocurrency">
</g>
<g id="_x33_4_cloud_x2C__mining_x2C__bitcoin_x2C__coin_x2C__block_x2C__chain_x2C__cryptocurrency">
</g>
<g id="_x33_3_start_up_x2C__plant_x2C__bitcoin_x2C__coin_x2C__block_x2C__chain_x2C__cryptocurrency">
</g>
<g id="_x33_2_planet_x2C__bitcoin_x2C__coin_x2C__block_x2C__chain_x2C__cryptocurrency">
</g>
<g id="_x33_1_payment_x2C__hand_x2C__bitcoin_x2C__coin_x2C__block_x2C__chain_x2C__cryptocurrency">
</g>
<g id="_x33_0_user_x2C__laptop_x2C__bitcoin_x2C__coin_x2C__block_x2C__chain_x2C__cryptocurrency">
</g>
<g id="_x32_9_thief_x2C__bag_x2C__bitcoin_x2C__coin_x2C__block_x2C__chain_x2C__cryptocurrency">
</g>
<g id="_x32_8_code_x2C__programming_x2C__program_x2C__bitcoin_x2C__coin_x2C__cryptocurrency">
</g>
<g id="_x32_7_bitcoin_x2C__coin_x2C__block_x2C__chain_x2C__cryptocurrency">
</g>
<g id="_x32_6_shield_x2C__protection_x2C__bitcoin_x2C__coin_x2C__block_x2C__chain_x2C__cryptocurrency">
</g>
<g id="_x32_5_bug_x2C__laptop_x2C__miner_x2C__program_x2C__block_x2C__chain_x2C__cryptocurrency">
</g>
<g id="_x32_4_computer_x2C__monitor_x2C__bitcoin_x2C__coin_x2C__block_x2C__chain_x2C__cryptocurrency">
</g>
<g id="_x32_3_network_x2C__idea_x2C__bitcoin_x2C__coin_x2C__block_x2C__chain_x2C__cryptocurrency">
</g>
<g id="_x32_2_block_x2C__chain_x2C__cryptocurrency_x2C__technology_x2C__future">
</g>
<g id="_x32_1_smart_contact_x2C__contact_x2C__block_x2C__chain_x2C__cryptocurrency">
</g>
<g id="_x32_0_lock_x2C__safe_x2C__protection_x2C__block_x2C__chain_x2C__cryptocurrency_x2C__program">
</g>
<g id="_x31_9_server_x2C__data_x2C__bitcoin_x2C__coin_x2C__block_x2C__chain_x2C__cryptocurrency">
</g>
<g id="_x31_8_key_x2C__bitcoin_x2C__coin_x2C__block_x2C__chain_x2C__cryptocurrency">
</g>
<g id="_x31_7_pool_x2C__network_x2C__bitcoin_x2C__coin_x2C__block_x2C__chain_x2C__cryptocurrency">
</g>
<g id="_x31_6_mining_x2C__shovel_x2C__mine_x2C__coin_x2C__block_x2C__chain_x2C__cryptocurrency">
</g>
<g id="_x31_5_purse_x2C__bitcoin_x2C__coin_x2C__block_x2C__chain_x2C__cryptocurrency">
	<g>
		<g>
			<g>
				<path d="M54,59.997c-0.553,0-1-0.447-1-1v-5c0-0.553,0.447-1,1-1s1,0.447,1,1v5C55,59.55,54.553,59.997,54,59.997z"/>
			</g>
			<g>
				<path d="M50,63.997c-0.553,0-1-0.447-1-1s0.447-1,1-1c1.654,0,3-1.346,3-3c0-0.553,0.447-1,1-1s1,0.447,1,1
					C55,61.754,52.757,63.997,50,63.997z"/>
			</g>
			<g>
				<path d="M54,35.003c-0.553,0-1-0.447-1-1c0-1.654-1.346-3-3-3c-0.553,0-1-0.447-1-1s0.447-1,1-1c2.757,0,5,2.243,5,5
					C55,34.556,54.553,35.003,54,35.003z"/>
			</g>
			<g>
				<path d="M54,27.003c-0.553,0-1-0.447-1-1c0-1.654-1.346-3-3-3c-0.553,0-1-0.447-1-1s0.447-1,1-1c2.757,0,5,2.243,5,5
					C55,26.556,54.553,27.003,54,27.003z"/>
			</g>
			<g>
				<path d="M10,63.997c-2.757,0-5-2.243-5-5c0-0.553,0.447-1,1-1s1,0.447,1,1c0,1.654,1.346,3,3,3c0.553,0,1,0.447,1,1
					S10.553,63.997,10,63.997z"/>
			</g>
			<g>
				<path d="M10,31.003c-2.757,0-5-2.243-5-5c0-0.553,0.447-1,1-1s1,0.447,1,1c0,1.654,1.346,3,3,3c0.553,0,1,0.447,1,1
					S10.553,31.003,10,31.003z"/>
			</g>
			<g>
				<path d="M6,27.003c-0.553,0-1-0.447-1-1c0-2.757,2.243-5,5-5c0.553,0,1,0.447,1,1s-0.447,1-1,1c-1.654,0-3,1.346-3,3
					C7,26.556,6.553,27.003,6,27.003z"/>
			</g>
			<g>
				<path d="M50,63.997H10c-0.553,0-1-0.447-1-1s0.447-1,1-1h40c0.553,0,1,0.447,1,1S50.553,63.997,50,63.997z"/>
			</g>
			<g>
				<path d="M50,31.003H10c-0.553,0-1-0.447-1-1s0.447-1,1-1h40c0.553,0,1,0.447,1,1S50.553,31.003,50,31.003z"/>
			</g>
			<g>
				<path d="M20.803,23.004H10c-0.553,0-1-0.447-1-1s0.447-1,1-1h10.803c0.553,0,1,0.447,1,1S21.355,23.004,20.803,23.004z"/>
			</g>
			<g>
				<path d="M6,59.997c-0.553,0-1-0.447-1-1V26.003c0-0.553,0.447-1,1-1s1,0.447,1,1v32.994C7,59.55,6.553,59.997,6,59.997z"/>
			</g>
			<g>
				<path d="M50,23.003H39.246c-0.553,0-1-0.447-1-1s0.447-1,1-1H50c0.553,0,1,0.447,1,1S50.553,23.003,50,23.003z"/>
			</g>
		</g>
		<g>
			<path d="M47,27.003H13c-0.553,0-1-0.447-1-1s0.447-1,1-1h34c0.553,0,1,0.447,1,1S47.553,27.003,47,27.003z"/>
		</g>
		<g>
			<path d="M58,38.997c-0.553,0-1-0.447-1-1c0-0.552-0.448-1-1-1c-0.553,0-1-0.447-1-1s0.447-1,1-1c1.654,0,3,1.346,3,3
				C59,38.55,58.553,38.997,58,38.997z"/>
		</g>
		<g>
			<path d="M56,40.997c-0.553,0-1-0.447-1-1s0.447-1,1-1c0.552,0,1-0.448,1-1c0-0.553,0.447-1,1-1s1,0.447,1,1
				C59,39.651,57.654,40.997,56,40.997z"/>
		</g>
		<g>
			<path d="M56,36.997h-2c-0.553,0-1-0.447-1-1s0.447-1,1-1h2c0.553,0,1,0.447,1,1S56.553,36.997,56,36.997z"/>
		</g>
		<g>
			<path d="M56,40.997H44c-0.553,0-1-0.447-1-1s0.447-1,1-1h12c0.553,0,1,0.447,1,1S56.553,40.997,56,40.997z"/>
		</g>
		<g>
			<path d="M56,54.997c-0.553,0-1-0.447-1-1s0.447-1,1-1c0.552,0,1-0.448,1-1c0-0.553,0.447-1,1-1s1,0.447,1,1
				C59,53.651,57.654,54.997,56,54.997z"/>
		</g>
		<g>
			<path d="M56,54.997H44c-0.553,0-1-0.447-1-1s0.447-1,1-1h12c0.553,0,1,0.447,1,1S56.553,54.997,56,54.997z"/>
		</g>
		<g>
			<path d="M58,52.997c-0.553,0-1-0.447-1-1v-14c0-0.553,0.447-1,1-1s1,0.447,1,1v14C59,52.55,58.553,52.997,58,52.997z"/>
		</g>
		<g>
			<path d="M54,40.997c-0.553,0-1-0.447-1-1V26.003c0-0.553,0.447-1,1-1s1,0.447,1,1v13.994C55,40.55,54.553,40.997,54,40.997z"/>
		</g>
		<g>
			<path d="M44.001,54.997c-0.307,0-0.608-0.14-0.805-0.405l-5-6.752c-0.328-0.443-0.235-1.069,0.209-1.398
				c0.443-0.329,1.069-0.236,1.398,0.209l5,6.752c0.328,0.443,0.235,1.069-0.209,1.398C44.416,54.934,44.208,54.997,44.001,54.997z"
				/>
		</g>
		<g>
			<path d="M38.999,48.245c-0.195,0-0.394-0.058-0.566-0.177c-0.455-0.313-0.569-0.937-0.256-1.391l5-7.248
				c0.313-0.455,0.937-0.569,1.391-0.256c0.455,0.313,0.569,0.937,0.256,1.391l-5,7.248C39.629,48.094,39.316,48.245,38.999,48.245z
				"/>
		</g>
		<g>
			<path d="M48,49.997c-1.654,0-3-1.346-3-3s1.346-3,3-3s3,1.346,3,3S49.654,49.997,48,49.997z M48,45.997c-0.552,0-1,0.448-1,1
				s0.448,1,1,1s1-0.448,1-1S48.552,45.997,48,45.997z"/>
		</g>
		<g>
			<g>
				<g>
					<path d="M30.023,24.003c-6.617,0-12-5.383-12-12s5.383-12,12-12s12,5.383,12,12S36.641,24.003,30.023,24.003z M30.023,2.003
						c-5.514,0-10,4.486-10,10s4.486,10,10,10s10-4.486,10-10S35.537,2.003,30.023,2.003z"/>
				</g>
				<g>
					<path d="M25.435,27.004c-0.14,0-0.281-0.029-0.417-0.092c-4.249-1.953-6.994-6.235-6.994-10.909c0-0.553,0.447-1,1-1
						s1,0.447,1,1c0,3.896,2.288,7.464,5.83,9.093c0.502,0.23,0.722,0.824,0.49,1.326C26.176,26.788,25.813,27.004,25.435,27.004z"
						/>
				</g>
				<g>
					<path d="M34.612,27.005c-0.379,0-0.741-0.216-0.91-0.583c-0.23-0.502-0.01-1.096,0.492-1.326
						c3.541-1.626,5.829-5.195,5.829-9.093c0-0.553,0.447-1,1-1s1,0.447,1,1c0,4.677-2.746,8.959-6.995,10.911
						C34.894,26.976,34.752,27.005,34.612,27.005z"/>
				</g>
			</g>
			<g>
				<path d="M41.023,17.003c-0.553,0-1-0.447-1-1v-4c0-0.553,0.447-1,1-1s1,0.447,1,1v4C42.023,16.556,41.576,17.003,41.023,17.003z
					"/>
			</g>
			<g>
				<path d="M19.023,17.003c-0.553,0-1-0.447-1-1v-4c0-0.553,0.447-1,1-1s1,0.447,1,1v4C20.023,16.556,19.576,17.003,19.023,17.003z
					"/>
			</g>
			<g>
				<g>
					<path d="M27.023,18.003c-0.553,0-1-0.447-1-1v-10c0-0.553,0.447-1,1-1s1,0.447,1,1v10
						C28.023,17.556,27.576,18.003,27.023,18.003z"/>
				</g>
				<g>
					<path d="M31.025,12.001c-0.553,0-1-0.447-1-1s0.447-1,1-1c0.551,0,0.998-0.448,0.998-0.999s-0.447-0.999-0.998-0.999
						c-0.553,0-1-0.447-1-1s0.447-1,1-1c1.653,0,2.998,1.346,2.998,2.999S32.679,12.001,31.025,12.001z"/>
				</g>
				<g>
					<path d="M31.023,18.003c-0.553,0-1-0.447-1-1s0.447-1,1-1c1.103,0,2-0.897,2-2c0-1.104-0.897-2.002-2-2.002
						c-0.553,0-1-0.447-1-1s0.447-1,1-1c2.206,0,4,1.795,4,4.002C35.023,16.209,33.229,18.003,31.023,18.003z"/>
				</g>
				<g>
					<path d="M31.025,8.003h-5.002c-0.553,0-1-0.447-1-1s0.447-1,1-1h5.002c0.553,0,1,0.447,1,1S31.578,8.003,31.025,8.003z"/>
				</g>
				<g>
					<path d="M31.023,18.003h-5c-0.553,0-1-0.447-1-1s0.447-1,1-1h5c0.553,0,1,0.447,1,1S31.576,18.003,31.023,18.003z"/>
				</g>
				<g>
					<path d="M31.025,12.001h-4.002c-0.553,0-1-0.447-1-1s0.447-1,1-1h4.002c0.553,0,1,0.447,1,1S31.578,12.001,31.025,12.001z"/>
				</g>
				<g>
					<path d="M29.023,8.003c-0.553,0-1-0.447-1-1v-1c0-0.553,0.447-1,1-1s1,0.447,1,1v1C30.023,7.556,29.576,8.003,29.023,8.003z"/>
				</g>
				<g>
					<path d="M29.023,19.003c-0.553,0-1-0.447-1-1v-1c0-0.553,0.447-1,1-1s1,0.447,1,1v1C30.023,18.556,29.576,19.003,29.023,19.003
						z"/>
				</g>
			</g>
		</g>
	</g>
</g>
<g id="_x31_4_safe_x2C__protection_x2C__block_x2C__chain_x2C__cryptocurrency_x2C__program">
</g>
<g id="_x31_3_mining_x2C__funnel_x2C__satoshi_x2C__bitcoin_x2C__coin_x2C__cryptocurrency">
</g>
<g id="_x31_2_chart_x2C__bitcoin_x2C__coin_x2C__block_x2C__chain_x2C__cryptocurrency">
</g>
<g id="_x31_1_computer_x2C__monitor_x2C__bitcoin_x2C__coin_x2C__block_x2C__chain_x2C__cryptocurrency">
</g>
<g id="_x31_0_mining_x2C__pickaxe_x2C__stone_x2C__mine_x2C___bitcoin_x2C__coin_x2C__cryptocurrency">
</g>
<g id="_x39__miner_x2C__mining_x2C__computer_x2C__pickaxe_x2C__program_x2C__cryptocurrency">
</g>
<g id="_x38__video_card_x2C__mining_x2C__bitcoin_x2C__coin_x2C__block_x2C__chain_x2C__cryptocurrency">
</g>
<g id="_x37__exchanger_x2C__site_x2C__bitcoin_x2C__coin_x2C__block_x2C__chain_x2C__cryptocurrency">
</g>
<g id="_x36__shop_x2C__product_x2C__bitcoin_x2C__coin_x2C__block_x2C__chain_x2C__cryptocurrency">
</g>
<g id="_x35__bitcoin_x2C__coin_x2C__exchange_x2C__block_x2C__chain_x2C__cryptocurrency_x2C__product">
</g>
<g id="_x34__bitcoin_x2C__coin_x2C__exchange_x2C__block_x2C__chain_x2C__cryptocurrency">
</g>
<g id="_x33__bitcoin_x2C__coin_x2C__exchange_x2C__block_x2C__chain_x2C__cryptocurrency">
</g>
<g id="_x32__brain_x2C__smart_x2C__coin_x2C__block_x2C__chain_x2C__cryptocurrency">
</g>
<g id="_x31__bitcoin_x2C__coin_x2C__block_x2C__chain_x2C__cryptocurrency">
</g>
</svg>
