<svg xmlns="http://www.w3.org/2000/svg" x="0" y="0" xml:space="preserve" viewBox="0 0 64 64"><path d="M9.518 34a1 1 0 1 1 0-2c.275 0 .5-.225.5-.5s-.225-.5-.5-.5a1 1 0 1 1 0-2c1.379 0 2.5 1.121 2.5 2.5s-1.122 2.5-2.5 2.5z"/><path d="M10.018 38a1 1 0 1 1 0-2 1 1 0 0 0 0-2 1 1 0 1 1 0-2c1.654 0 3 1.346 3 3s-1.346 3-3 3z"/><path d="M10.018 34h-3a1 1 0 1 1 0-2h3a1 1 0 1 1 0 2zM10.018 38h-4a1 1 0 1 1 0-2h4a1 1 0 1 1 0 2zM9.518 31h-3.5a1 1 0 1 1 0-2h3.5a1 1 0 1 1 0 2z"/><path d="M7.018 38a1 1 0 0 1-1-1v-7a1 1 0 1 1 2 0v7a1 1 0 0 1-1 1z"/><path d="M8.018 31a1 1 0 0 1-1-1v-1a1 1 0 1 1 2 0v1a1 1 0 0 1-1 1zM8.018 39a1 1 0 0 1-1-1v-1a1 1 0 1 1 2 0v1a1 1 0 0 1-1 1z"/><path d="M9.018 43c-4.963 0-9-4.037-9-9s4.037-9 9-9a9.006 9.006 0 0 1 7.875 4.642.999.999 0 1 1-1.75.968A7.007 7.007 0 0 0 9.018 27c-3.859 0-7 3.141-7 7s3.141 7 7 7a7.012 7.012 0 0 0 6.126-3.609.999.999 0 1 1 1.748.97A9.01 9.01 0 0 1 9.018 43zM62.982 54H19.018a1 1 0 0 1-1-1V21a1 1 0 0 1 1-1h43.965a1 1 0 0 1 1 1v32a1 1 0 0 1-1.001 1zm-42.964-2h41.965V22H20.018v30zM56.982 16H13.018a1 1 0 1 1 0-2h43.965a1 1 0 1 1-.001 2z"/><path d="M19.018 54a.997.997 0 0 1-.707-.293l-6-6a.999.999 0 1 1 1.414-1.414l6 6A.999.999 0 0 1 19.018 54zM62.982 22a.997.997 0 0 1-.707-.293l-6-6a.999.999 0 1 1 1.414-1.414l6 6A.999.999 0 0 1 62.982 22zM19.018 22a.997.997 0 0 1-.707-.293l-6-6a.999.999 0 1 1 1.414-1.414l6 6A.999.999 0 0 1 19.018 22zM16.018 43a1 1 0 0 1-1-1V26a1 1 0 1 1 2 0v16a1 1 0 0 1-1 1z"/><path d="M13.018 28.071a1 1 0 0 1-1-1V15a1 1 0 1 1 2 0v12.071a1 1 0 0 1-1 1zM13.018 48a1 1 0 0 1-1-1v-6.07a1 1 0 1 1 2 0V47a1 1 0 0 1-1 1zM55.982 46h-30a1 1 0 0 1-1-1V29a1 1 0 0 1 1-1h30a1 1 0 0 1 1 1v16a1 1 0 0 1-1 1zm-29-2h28V30h-28v14z"/><path d="M25.982 34a1 1 0 1 1 0-2c1.654 0 3-1.346 3-3a1 1 0 1 1 2 0c0 2.757-2.243 5-5 5zM55.982 34c-2.757 0-5-2.243-5-5a1 1 0 1 1 2 0c0 1.654 1.346 3 3 3a1 1 0 1 1 0 2zM29.982 46a1 1 0 0 1-1-1c0-1.654-1.346-3-3-3a1 1 0 1 1 0-2c2.757 0 5 2.243 5 5a1 1 0 0 1-1 1zM51.982 46a1 1 0 0 1-1-1c0-2.757 2.243-5 5-5a1 1 0 1 1 0 2c-1.654 0-3 1.346-3 3a1 1 0 0 1-1 1zM40.982 42c-2.757 0-5-2.243-5-5s2.243-5 5-5 5 2.243 5 5-2.243 5-5 5zm0-8c-1.654 0-3 1.346-3 3s1.346 3 3 3 3-1.346 3-3-1.345-3-3-3zM44.982 12h-14a1 1 0 1 1 0-2h14a1 1 0 1 1 0 2z"/><g><path d="M46.982 14a1 1 0 0 1-1-1 1 1 0 0 0-1-1 1 1 0 1 1 0-2c1.654 0 3 1.346 3 3a1 1 0 0 1-1 1z"/></g><g><path d="M28.982 14a1 1 0 0 1-1-1c0-1.654 1.346-3 3-3a1 1 0 1 1 0 2 1 1 0 0 0-1 1 1 1 0 0 1-1 1z"/></g><g><path d="M28.982 16a1 1 0 0 1-1-1v-2a1 1 0 1 1 2 0v2a1 1 0 0 1-1 1z"/></g><g><path d="M46.982 16a1 1 0 0 1-1-1v-2a1 1 0 1 1 2 0v2a1 1 0 0 1-1 1z"/></g><g><path d="M43.982 19a1 1 0 0 1-1-1v-3a1 1 0 1 1 2 0v3a1 1 0 0 1-1 1z"/></g><g><path d="M46.982 19a1 1 0 0 1-1-1v-3a1 1 0 1 1 2 0v3a1 1 0 0 1-1 1z"/></g><g><path d="M28.982 19a1 1 0 0 1-1-1v-3a1 1 0 1 1 2 0v3a1 1 0 0 1-1 1z"/></g><g><path d="M31.982 19a1 1 0 0 1-1-1v-3a1 1 0 1 1 2 0v3a1 1 0 0 1-1 1z"/></g></svg>