<?xml version="1.0" encoding="utf-8"?>
<!-- Generator: Adobe Illustrator 16.0.0, SVG Export Plug-In . SVG Version: 6.00 Build 0)  -->
<!DOCTYPE svg PUBLIC "-//W3C//DTD SVG 1.1//EN" "http://www.w3.org/Graphics/SVG/1.1/DTD/svg11.dtd">
<svg version="1.1" xmlns="http://www.w3.org/2000/svg" xmlns:xlink="http://www.w3.org/1999/xlink" x="0px" y="0px" width="64px"
	 height="64px" viewBox="0 0 64 64" enable-background="new 0 0 64 64" xml:space="preserve">
<g id="_x35_0_code_x2C__programming_x2C__program_x2C__bitcoin_x2C__block_x2C__chain_x2C__cryptocurrency">
</g>
<g id="_x34_9_balloon_x2C__takeoff_x2C__bitcoin_x2C__coin_x2C__block_x2C__chain_x2C__cryptocurrency">
</g>
<g id="_x34_8_video_card_x2C__mining_x2C__farm_x2C__computer_x2C__block_x2C__chain_x2C__cryptocurrency">
</g>
<g id="_x34_7_money_box_x2C__saving_x2C__bitcoin_x2C__coin_x2C__block_x2C__chain_x2C__cryptocurrency">
</g>
<g id="_x34_6_portfolio_x2C__finance_x2C__bank_note_x2C__bitcoin_x2C__coin_x2C__cryptocurrency">
</g>
<g id="_x34_5_tap_x2C__water_x2C__bitcoin_x2C__coin_x2C__block_x2C__chain_x2C__cryptocurrency">
</g>
<g id="_x34_4_phone_x2C__bitcoin_x2C__coin_x2C__block_x2C__chain_x2C__cryptocurrency">
	<g>
		<g>
			<g>
				<g>
					<path d="M32.982,27.488c-0.553,0-1-0.447-1-1s0.447-1,1-1c0.275,0,0.5-0.225,0.5-0.5s-0.225-0.5-0.5-0.5c-0.553,0-1-0.447-1-1
						s0.447-1,1-1c1.379,0,2.5,1.121,2.5,2.5S34.361,27.488,32.982,27.488z"/>
				</g>
				<g>
					<path d="M33.482,31.488c-0.553,0-1-0.447-1-1s0.447-1,1-1c0.552,0,1-0.448,1-1s-0.448-1-1-1c-0.553,0-1-0.447-1-1s0.447-1,1-1
						c1.654,0,3,1.346,3,3S35.137,31.488,33.482,31.488z"/>
				</g>
				<g>
					<path d="M33.482,27.488h-3c-0.553,0-1-0.447-1-1s0.447-1,1-1h3c0.553,0,1,0.447,1,1S34.035,27.488,33.482,27.488z"/>
				</g>
				<g>
					<path d="M33.482,31.488h-4c-0.553,0-1-0.447-1-1s0.447-1,1-1h4c0.553,0,1,0.447,1,1S34.035,31.488,33.482,31.488z"/>
				</g>
				<g>
					<path d="M32.982,24.488h-3.5c-0.553,0-1-0.447-1-1s0.447-1,1-1h3.5c0.553,0,1,0.447,1,1S33.535,24.488,32.982,24.488z"/>
				</g>
				<g>
					<path d="M30.482,31.488c-0.553,0-1-0.447-1-1v-7c0-0.553,0.447-1,1-1s1,0.447,1,1v7C31.482,31.041,31.035,31.488,30.482,31.488
						z"/>
				</g>
				<g>
					<path d="M31.482,24.488c-0.553,0-1-0.447-1-1v-1c0-0.553,0.447-1,1-1s1,0.447,1,1v1C32.482,24.041,32.035,24.488,31.482,24.488
						z"/>
				</g>
				<g>
					<path d="M31.482,32.488c-0.553,0-1-0.447-1-1v-1c0-0.553,0.447-1,1-1s1,0.447,1,1v1C32.482,32.041,32.035,32.488,31.482,32.488
						z"/>
				</g>
			</g>
			<g>
				<path d="M31.982,35.988c-4.963,0-9-4.037-9-9s4.037-9,9-9s9,4.037,9,9S36.945,35.988,31.982,35.988z M31.982,19.988
					c-3.859,0-7,3.141-7,7s3.141,7,7,7s7-3.141,7-7S35.842,19.988,31.982,19.988z"/>
			</g>
			<g>
				<path d="M31.982,38.988c-4.963,0-9-4.038-9-9.001c0-0.553,0.447-1,1-1s1,0.447,1,1c0,3.86,3.141,7.001,7,7.001s7-3.141,7-7.001
					c0-0.553,0.447-1,1-1s1,0.447,1,1C40.982,34.95,36.945,38.988,31.982,38.988z"/>
			</g>
			<g>
				<path d="M39.982,30.987c-0.553,0-1-0.447-1-1v-2.999c0-0.553,0.447-1,1-1s1,0.447,1,1v2.999
					C40.982,30.54,40.535,30.987,39.982,30.987z"/>
			</g>
			<g>
				<path d="M23.982,30.987c-0.553,0-1-0.447-1-1v-2.999c0-0.553,0.447-1,1-1s1,0.447,1,1v2.999
					C24.982,30.54,24.535,30.987,23.982,30.987z"/>
			</g>
		</g>
		<g>
			<path d="M45,60.012H19c-2.757,0-5-2.243-5-5v-50c0-2.757,2.243-5,5-5h26c2.757,0,5,2.243,5,5v50
				C50,57.769,47.757,60.012,45,60.012z M19,2.012c-1.654,0-3,1.346-3,3v50c0,1.654,1.346,3,3,3h26c1.654,0,3-1.346,3-3v-50
				c0-1.654-1.346-3-3-3H19z"/>
		</g>
		<g>
			<path d="M45,63.988H19c-2.757,0-5-2.243-5-5V55.01c0-0.553,0.447-1,1-1s1,0.447,1,1v3.979c0,1.654,1.346,3,3,3h26
				c1.654,0,3-1.346,3-3V55.01c0-0.553,0.447-1,1-1s1,0.447,1,1v3.979C50,61.745,47.757,63.988,45,63.988z"/>
		</g>
		<g>
			<path d="M49,51.988H15c-0.553,0-1-0.447-1-1s0.447-1,1-1h34c0.553,0,1,0.447,1,1S49.553,51.988,49,51.988z"/>
		</g>
		<g>
			<path d="M31.982,57.988c-1.654,0-3-1.346-3-3s1.346-3,3-3s3,1.346,3,3S33.637,57.988,31.982,57.988z M31.982,53.988
				c-0.552,0-1,0.448-1,1s0.448,1,1,1s1-0.448,1-1S32.534,53.988,31.982,53.988z"/>
		</g>
		<g>
			<path d="M42,42.988H22c-0.553,0-1-0.447-1-1s0.447-1,1-1h20c0.553,0,1,0.447,1,1S42.553,42.988,42,42.988z"/>
		</g>
		<g>
			<path d="M39.982,27.988c-0.553,0-1-0.447-1-1V14.155c0-0.553,0.447-1,1-1s1,0.447,1,1v12.833
				C40.982,27.541,40.535,27.988,39.982,27.988z"/>
		</g>
		<g>
			<path d="M23.982,27.988c-0.553,0-1-0.447-1-1v-9c0-0.553,0.447-1,1-1s1,0.447,1,1v9C24.982,27.541,24.535,27.988,23.982,27.988z"
				/>
		</g>
		<g>
			<path d="M31.982,19.988c-0.553,0-1-0.447-1-1v-9c0-0.553,0.447-1,1-1s1,0.447,1,1v9C32.982,19.541,32.535,19.988,31.982,19.988z"
				/>
		</g>
	</g>
</g>
<g id="_x34_3_rocket_x2C__sun_x2C__bitcoin_x2C__coin_x2C__block_x2C__chain_x2C__cryptocurrency">
</g>
<g id="_x34_2_transfer_x2C__network_x2C__bitcoin_x2C__coin_x2C__block_x2C__chain_x2C__cryptocurrency">
</g>
<g id="_x34_1_scales_x2C__comparison_x2C__bitcoin_x2C__coin_x2C__block_x2C__chain_x2C__cryptocurrency">
</g>
<g id="_x34_0_calculator_x2C__calculating_x2C__bitcoin_x2C__coin_x2C__block_x2C__chain_x2C__cryptocurrency">
</g>
<g id="_x33_9_start-up_x2C__plant_x2C__hand_x2C__bitcoin_x2C__coin_x2C__cryptocurrency">
</g>
<g id="_x33_8_idea_x2C__bulb_x2C__bitcoin_x2C__coin_x2C__block_x2C__chain_x2C__cryptocurrency">
</g>
<g id="_x33_7_users_x2C__user_x2C__co-founder_x2C__bitcoin_x2C__coin_x2C__cryptocurrency">
</g>
<g id="_x33_6_safe_x2C__protection_x2C__bitcoin_x2C__coin_x2C__block_x2C__chain_x2C__cryptocurrency">
</g>
<g id="_x33_5_flash_drive_x2C__key_x2C__block_x2C__chain_x2C__cryptocurrency">
</g>
<g id="_x33_4_cloud_x2C__mining_x2C__bitcoin_x2C__coin_x2C__block_x2C__chain_x2C__cryptocurrency">
</g>
<g id="_x33_3_start_up_x2C__plant_x2C__bitcoin_x2C__coin_x2C__block_x2C__chain_x2C__cryptocurrency">
</g>
<g id="_x33_2_planet_x2C__bitcoin_x2C__coin_x2C__block_x2C__chain_x2C__cryptocurrency">
</g>
<g id="_x33_1_payment_x2C__hand_x2C__bitcoin_x2C__coin_x2C__block_x2C__chain_x2C__cryptocurrency">
</g>
<g id="_x33_0_user_x2C__laptop_x2C__bitcoin_x2C__coin_x2C__block_x2C__chain_x2C__cryptocurrency">
</g>
<g id="_x32_9_thief_x2C__bag_x2C__bitcoin_x2C__coin_x2C__block_x2C__chain_x2C__cryptocurrency">
</g>
<g id="_x32_8_code_x2C__programming_x2C__program_x2C__bitcoin_x2C__coin_x2C__cryptocurrency">
</g>
<g id="_x32_7_bitcoin_x2C__coin_x2C__block_x2C__chain_x2C__cryptocurrency">
</g>
<g id="_x32_6_shield_x2C__protection_x2C__bitcoin_x2C__coin_x2C__block_x2C__chain_x2C__cryptocurrency">
</g>
<g id="_x32_5_bug_x2C__laptop_x2C__miner_x2C__program_x2C__block_x2C__chain_x2C__cryptocurrency">
</g>
<g id="_x32_4_computer_x2C__monitor_x2C__bitcoin_x2C__coin_x2C__block_x2C__chain_x2C__cryptocurrency">
</g>
<g id="_x32_3_network_x2C__idea_x2C__bitcoin_x2C__coin_x2C__block_x2C__chain_x2C__cryptocurrency">
</g>
<g id="_x32_2_block_x2C__chain_x2C__cryptocurrency_x2C__technology_x2C__future">
</g>
<g id="_x32_1_smart_contact_x2C__contact_x2C__block_x2C__chain_x2C__cryptocurrency">
</g>
<g id="_x32_0_lock_x2C__safe_x2C__protection_x2C__block_x2C__chain_x2C__cryptocurrency_x2C__program">
</g>
<g id="_x31_9_server_x2C__data_x2C__bitcoin_x2C__coin_x2C__block_x2C__chain_x2C__cryptocurrency">
</g>
<g id="_x31_8_key_x2C__bitcoin_x2C__coin_x2C__block_x2C__chain_x2C__cryptocurrency">
</g>
<g id="_x31_7_pool_x2C__network_x2C__bitcoin_x2C__coin_x2C__block_x2C__chain_x2C__cryptocurrency">
</g>
<g id="_x31_6_mining_x2C__shovel_x2C__mine_x2C__coin_x2C__block_x2C__chain_x2C__cryptocurrency">
</g>
<g id="_x31_5_purse_x2C__bitcoin_x2C__coin_x2C__block_x2C__chain_x2C__cryptocurrency">
</g>
<g id="_x31_4_safe_x2C__protection_x2C__block_x2C__chain_x2C__cryptocurrency_x2C__program">
</g>
<g id="_x31_3_mining_x2C__funnel_x2C__satoshi_x2C__bitcoin_x2C__coin_x2C__cryptocurrency">
</g>
<g id="_x31_2_chart_x2C__bitcoin_x2C__coin_x2C__block_x2C__chain_x2C__cryptocurrency">
</g>
<g id="_x31_1_computer_x2C__monitor_x2C__bitcoin_x2C__coin_x2C__block_x2C__chain_x2C__cryptocurrency">
</g>
<g id="_x31_0_mining_x2C__pickaxe_x2C__stone_x2C__mine_x2C___bitcoin_x2C__coin_x2C__cryptocurrency">
</g>
<g id="_x39__miner_x2C__mining_x2C__computer_x2C__pickaxe_x2C__program_x2C__cryptocurrency">
</g>
<g id="_x38__video_card_x2C__mining_x2C__bitcoin_x2C__coin_x2C__block_x2C__chain_x2C__cryptocurrency">
</g>
<g id="_x37__exchanger_x2C__site_x2C__bitcoin_x2C__coin_x2C__block_x2C__chain_x2C__cryptocurrency">
</g>
<g id="_x36__shop_x2C__product_x2C__bitcoin_x2C__coin_x2C__block_x2C__chain_x2C__cryptocurrency">
</g>
<g id="_x35__bitcoin_x2C__coin_x2C__exchange_x2C__block_x2C__chain_x2C__cryptocurrency_x2C__product">
</g>
<g id="_x34__bitcoin_x2C__coin_x2C__exchange_x2C__block_x2C__chain_x2C__cryptocurrency">
</g>
<g id="_x33__bitcoin_x2C__coin_x2C__exchange_x2C__block_x2C__chain_x2C__cryptocurrency">
</g>
<g id="_x32__brain_x2C__smart_x2C__coin_x2C__block_x2C__chain_x2C__cryptocurrency">
</g>
<g id="_x31__bitcoin_x2C__coin_x2C__block_x2C__chain_x2C__cryptocurrency">
</g>
</svg>
