<?xml version="1.0" encoding="utf-8"?>
<!-- Generator: Adobe Illustrator 16.0.0, SVG Export Plug-In . SVG Version: 6.00 Build 0)  -->
<!DOCTYPE svg PUBLIC "-//W3C//DTD SVG 1.1//EN" "http://www.w3.org/Graphics/SVG/1.1/DTD/svg11.dtd">
<svg version="1.1" xmlns="http://www.w3.org/2000/svg" xmlns:xlink="http://www.w3.org/1999/xlink" x="0px" y="0px" width="64px"
	 height="64px" viewBox="0 0 64 64" enable-background="new 0 0 64 64" xml:space="preserve">
<g id="_x35_0_code_x2C__programming_x2C__program_x2C__bitcoin_x2C__block_x2C__chain_x2C__cryptocurrency">
</g>
<g id="_x34_9_balloon_x2C__takeoff_x2C__bitcoin_x2C__coin_x2C__block_x2C__chain_x2C__cryptocurrency">
</g>
<g id="_x34_8_video_card_x2C__mining_x2C__farm_x2C__computer_x2C__block_x2C__chain_x2C__cryptocurrency">
</g>
<g id="_x34_7_money_box_x2C__saving_x2C__bitcoin_x2C__coin_x2C__block_x2C__chain_x2C__cryptocurrency">
</g>
<g id="_x34_6_portfolio_x2C__finance_x2C__bank_note_x2C__bitcoin_x2C__coin_x2C__cryptocurrency">
</g>
<g id="_x34_5_tap_x2C__water_x2C__bitcoin_x2C__coin_x2C__block_x2C__chain_x2C__cryptocurrency">
</g>
<g id="_x34_4_phone_x2C__bitcoin_x2C__coin_x2C__block_x2C__chain_x2C__cryptocurrency">
</g>
<g id="_x34_3_rocket_x2C__sun_x2C__bitcoin_x2C__coin_x2C__block_x2C__chain_x2C__cryptocurrency">
</g>
<g id="_x34_2_transfer_x2C__network_x2C__bitcoin_x2C__coin_x2C__block_x2C__chain_x2C__cryptocurrency">
	<g>
		<g>
			<g>
				<g>
					<path d="M54,32c-0.553,0-1-0.447-1-1s0.447-1,1-1c0.275,0,0.5-0.225,0.5-0.5S54.275,29,54,29c-0.553,0-1-0.447-1-1s0.447-1,1-1
						c1.379,0,2.5,1.121,2.5,2.5S55.379,32,54,32z"/>
				</g>
				<g>
					<path d="M54.5,36c-0.553,0-1-0.447-1-1s0.447-1,1-1c0.552,0,1-0.448,1-1s-0.448-1-1-1c-0.553,0-1-0.447-1-1s0.447-1,1-1
						c1.654,0,3,1.346,3,3S56.154,36,54.5,36z"/>
				</g>
				<g>
					<path d="M54.5,32h-3c-0.553,0-1-0.447-1-1s0.447-1,1-1h3c0.553,0,1,0.447,1,1S55.053,32,54.5,32z"/>
				</g>
				<g>
					<path d="M54.5,36h-4c-0.553,0-1-0.447-1-1s0.447-1,1-1h4c0.553,0,1,0.447,1,1S55.053,36,54.5,36z"/>
				</g>
				<g>
					<path d="M54,29h-3.5c-0.553,0-1-0.447-1-1s0.447-1,1-1H54c0.553,0,1,0.447,1,1S54.553,29,54,29z"/>
				</g>
				<g>
					<path d="M51.5,36c-0.553,0-1-0.447-1-1v-7c0-0.553,0.447-1,1-1s1,0.447,1,1v7C52.5,35.553,52.053,36,51.5,36z"/>
				</g>
				<g>
					<path d="M52.5,29c-0.553,0-1-0.447-1-1v-1c0-0.553,0.447-1,1-1s1,0.447,1,1v1C53.5,28.553,53.053,29,52.5,29z"/>
				</g>
				<g>
					<path d="M52.5,37c-0.553,0-1-0.447-1-1v-1c0-0.553,0.447-1,1-1s1,0.447,1,1v1C53.5,36.553,53.053,37,52.5,37z"/>
				</g>
			</g>
			<g>
				<path d="M53.5,41c-4.963,0-9-4.037-9-9s4.037-9,9-9s9,4.037,9,9S58.463,41,53.5,41z M53.5,25c-3.859,0-7,3.141-7,7s3.141,7,7,7
					s7-3.141,7-7S57.359,25,53.5,25z"/>
			</g>
		</g>
		<g>
			<g>
				<g>
					<path d="M32,20c-0.553,0-1-0.447-1-1s0.447-1,1-1c0.275,0,0.5-0.225,0.5-0.5S32.275,17,32,17c-0.553,0-1-0.447-1-1s0.447-1,1-1
						c1.379,0,2.5,1.121,2.5,2.5S33.379,20,32,20z"/>
				</g>
				<g>
					<path d="M32.5,24c-0.553,0-1-0.447-1-1s0.447-1,1-1c0.552,0,1-0.448,1-1s-0.448-1-1-1c-0.553,0-1-0.447-1-1s0.447-1,1-1
						c1.654,0,3,1.346,3,3S34.154,24,32.5,24z"/>
				</g>
				<g>
					<path d="M32.5,20h-3c-0.553,0-1-0.447-1-1s0.447-1,1-1h3c0.553,0,1,0.447,1,1S33.053,20,32.5,20z"/>
				</g>
				<g>
					<path d="M32.5,24h-4c-0.553,0-1-0.447-1-1s0.447-1,1-1h4c0.553,0,1,0.447,1,1S33.053,24,32.5,24z"/>
				</g>
				<g>
					<path d="M32,17h-3.5c-0.553,0-1-0.447-1-1s0.447-1,1-1H32c0.553,0,1,0.447,1,1S32.553,17,32,17z"/>
				</g>
				<g>
					<path d="M29.5,24c-0.553,0-1-0.447-1-1v-7c0-0.553,0.447-1,1-1s1,0.447,1,1v7C30.5,23.553,30.053,24,29.5,24z"/>
				</g>
				<g>
					<path d="M30.5,17c-0.553,0-1-0.447-1-1v-1c0-0.553,0.447-1,1-1s1,0.447,1,1v1C31.5,16.553,31.053,17,30.5,17z"/>
				</g>
				<g>
					<path d="M30.5,25c-0.553,0-1-0.447-1-1v-1c0-0.553,0.447-1,1-1s1,0.447,1,1v1C31.5,24.553,31.053,25,30.5,25z"/>
				</g>
			</g>
			<g>
				<path d="M31.499,29.001c-4.963,0-9-4.037-9-9s4.037-9,9-9s9,4.037,9,9S36.462,29.001,31.499,29.001z M31.499,13.001
					c-3.859,0-7,3.141-7,7s3.141,7,7,7s7-3.141,7-7S35.358,13.001,31.499,13.001z"/>
			</g>
		</g>
		<g>
			<path d="M53.5,46c-0.553,0-1-0.447-1-1v-5c0-0.553,0.447-1,1-1s1,0.447,1,1v5C54.5,45.553,54.053,46,53.5,46z"/>
		</g>
		<g>
			<path d="M53.5,25c-0.553,0-1-0.447-1-1v-5c0-0.553,0.447-1,1-1s1,0.447,1,1v5C54.5,24.553,54.053,25,53.5,25z"/>
		</g>
		<g>
			<path d="M38.784,17.692c-0.36,0-0.709-0.195-0.887-0.537c-0.256-0.489-0.067-1.093,0.423-1.349l6.368-3.329
				c0.487-0.258,1.095-0.067,1.349,0.423c0.256,0.489,0.067,1.093-0.423,1.349l-6.368,3.329
				C39.099,17.656,38.94,17.692,38.784,17.692z"/>
		</g>
		<g>
			<path d="M18.251,28.426c-0.36,0-0.709-0.195-0.887-0.537c-0.256-0.489-0.067-1.093,0.423-1.349l6.376-3.333
				c0.487-0.259,1.094-0.067,1.349,0.423c0.256,0.489,0.067,1.093-0.423,1.349l-6.376,3.333
				C18.565,28.39,18.407,28.426,18.251,28.426z"/>
		</g>
		<g>
			<g>
				<g>
					<g>
						<path d="M32,44c-0.553,0-1-0.447-1-1s0.447-1,1-1c0.275,0,0.5-0.225,0.5-0.5S32.275,41,32,41c-0.553,0-1-0.447-1-1
							s0.447-1,1-1c1.379,0,2.5,1.121,2.5,2.5S33.379,44,32,44z"/>
					</g>
					<g>
						<path d="M32.5,48c-0.553,0-1-0.447-1-1s0.447-1,1-1c0.552,0,1-0.448,1-1s-0.448-1-1-1c-0.553,0-1-0.447-1-1s0.447-1,1-1
							c1.654,0,3,1.346,3,3S34.154,48,32.5,48z"/>
					</g>
					<g>
						<path d="M32.5,44h-3c-0.553,0-1-0.447-1-1s0.447-1,1-1h3c0.553,0,1,0.447,1,1S33.053,44,32.5,44z"/>
					</g>
					<g>
						<path d="M32.5,48h-4c-0.553,0-1-0.447-1-1s0.447-1,1-1h4c0.553,0,1,0.447,1,1S33.053,48,32.5,48z"/>
					</g>
					<g>
						<path d="M32,41h-3.5c-0.553,0-1-0.447-1-1s0.447-1,1-1H32c0.553,0,1,0.447,1,1S32.553,41,32,41z"/>
					</g>
					<g>
						<path d="M29.5,48c-0.553,0-1-0.447-1-1v-7c0-0.553,0.447-1,1-1s1,0.447,1,1v7C30.5,47.553,30.053,48,29.5,48z"/>
					</g>
					<g>
						<path d="M30.5,41c-0.553,0-1-0.447-1-1v-1c0-0.553,0.447-1,1-1s1,0.447,1,1v1C31.5,40.553,31.053,41,30.5,41z"/>
					</g>
					<g>
						<path d="M30.5,49c-0.553,0-1-0.447-1-1v-1c0-0.553,0.447-1,1-1s1,0.447,1,1v1C31.5,48.553,31.053,49,30.5,49z"/>
					</g>
				</g>
				<g>
					<path d="M31.496,52.999c-4.963,0-9-4.037-9-9s4.037-9,9-9s9,4.037,9,9S36.459,52.999,31.496,52.999z M31.496,36.999
						c-3.859,0-7,3.141-7,7s3.141,7,7,7s7-3.141,7-7S35.355,36.999,31.496,36.999z"/>
				</g>
			</g>
			<g>
				<path d="M45.147,51.637c-0.156,0-0.314-0.036-0.462-0.114l-6.368-3.329c-0.49-0.256-0.679-0.859-0.423-1.349
					c0.255-0.49,0.86-0.682,1.349-0.423l6.368,3.329c0.49,0.256,0.679,0.859,0.423,1.349C45.856,51.441,45.508,51.637,45.147,51.637
					z"/>
			</g>
			<g>
				<path d="M24.622,40.907c-0.156,0-0.314-0.036-0.462-0.114l-6.376-3.333c-0.49-0.256-0.679-0.859-0.423-1.349
					c0.255-0.49,0.86-0.682,1.349-0.423l6.376,3.333c0.49,0.256,0.679,0.859,0.423,1.349C25.331,40.712,24.982,40.907,24.622,40.907
					z"/>
			</g>
		</g>
		<g>
			<g>
				<path d="M10.5,42c-5.514,0-10-4.486-10-10s4.486-10,10-10s10,4.486,10,10S16.014,42,10.5,42z M10.5,24c-4.411,0-8,3.589-8,8
					s3.589,8,8,8s8-3.589,8-8S14.911,24,10.5,24z"/>
			</g>
			<g>
				<path d="M10.5,35c-2.206,0-4-1.794-4-4s1.794-4,4-4s4,1.794,4,4S12.706,35,10.5,35z M10.5,29c-1.103,0-2,0.897-2,2s0.897,2,2,2
					s2-0.897,2-2S11.603,29,10.5,29z"/>
			</g>
			<g>
				<path d="M15.5,40c-0.553,0-1-0.447-1-1c0-2.206-1.794-4-4-4s-4,1.794-4,4c0,0.553-0.447,1-1,1s-1-0.447-1-1c0-3.309,2.691-6,6-6
					s6,2.691,6,6C16.5,39.553,16.053,40,15.5,40z"/>
			</g>
			<g>
				<path d="M15.5,40.5c-0.553,0-1-0.447-1-1V39c0-0.553,0.447-1,1-1s1,0.447,1,1v0.5C16.5,40.053,16.053,40.5,15.5,40.5z"/>
			</g>
			<g>
				<path d="M5.5,40.483c-0.553,0-1-0.447-1-1V39c0-0.553,0.447-1,1-1s1,0.447,1,1v0.483C6.5,40.036,6.053,40.483,5.5,40.483z"/>
			</g>
		</g>
		<g>
			<g>
				<path d="M53.5,20c-5.514,0-10-4.486-10-10s4.486-10,10-10s10,4.486,10,10S59.014,20,53.5,20z M53.5,2c-4.411,0-8,3.589-8,8
					s3.589,8,8,8s8-3.589,8-8S57.911,2,53.5,2z"/>
			</g>
			<g>
				<path d="M53.5,13c-2.206,0-4-1.794-4-4s1.794-4,4-4s4,1.794,4,4S55.706,13,53.5,13z M53.5,7c-1.103,0-2,0.897-2,2s0.897,2,2,2
					s2-0.897,2-2S54.603,7,53.5,7z"/>
			</g>
			<g>
				<path d="M58.5,18c-0.553,0-1-0.447-1-1c0-2.206-1.794-4-4-4s-4,1.794-4,4c0,0.553-0.447,1-1,1s-1-0.447-1-1c0-3.309,2.691-6,6-6
					s6,2.691,6,6C59.5,17.553,59.053,18,58.5,18z"/>
			</g>
			<g>
				<path d="M58.5,18.5c-0.553,0-1-0.447-1-1V17c0-0.553,0.447-1,1-1s1,0.447,1,1v0.5C59.5,18.053,59.053,18.5,58.5,18.5z"/>
			</g>
			<g>
				<path d="M48.5,18.483c-0.553,0-1-0.447-1-1V17c0-0.553,0.447-1,1-1s1,0.447,1,1v0.483C49.5,18.036,49.053,18.483,48.5,18.483z"
					/>
			</g>
		</g>
		<g>
			<g>
				<path d="M53.5,64c-5.514,0-10-4.486-10-10s4.486-10,10-10s10,4.486,10,10S59.014,64,53.5,64z M53.5,46c-4.411,0-8,3.589-8,8
					s3.589,8,8,8s8-3.589,8-8S57.911,46,53.5,46z"/>
			</g>
			<g>
				<path d="M53.5,57c-2.206,0-4-1.794-4-4s1.794-4,4-4s4,1.794,4,4S55.706,57,53.5,57z M53.5,51c-1.103,0-2,0.897-2,2s0.897,2,2,2
					s2-0.897,2-2S54.603,51,53.5,51z"/>
			</g>
			<g>
				<path d="M58.5,62c-0.553,0-1-0.447-1-1c0-2.206-1.794-4-4-4s-4,1.794-4,4c0,0.553-0.447,1-1,1s-1-0.447-1-1c0-3.309,2.691-6,6-6
					s6,2.691,6,6C59.5,61.553,59.053,62,58.5,62z"/>
			</g>
			<g>
				<path d="M58.5,62.5c-0.553,0-1-0.447-1-1V61c0-0.553,0.447-1,1-1s1,0.447,1,1v0.5C59.5,62.053,59.053,62.5,58.5,62.5z"/>
			</g>
			<g>
				<path d="M48.5,62.483c-0.553,0-1-0.447-1-1V61c0-0.553,0.447-1,1-1s1,0.447,1,1v0.483C49.5,62.036,49.053,62.483,48.5,62.483z"
					/>
			</g>
		</g>
	</g>
</g>
<g id="_x34_1_scales_x2C__comparison_x2C__bitcoin_x2C__coin_x2C__block_x2C__chain_x2C__cryptocurrency">
</g>
<g id="_x34_0_calculator_x2C__calculating_x2C__bitcoin_x2C__coin_x2C__block_x2C__chain_x2C__cryptocurrency">
</g>
<g id="_x33_9_start-up_x2C__plant_x2C__hand_x2C__bitcoin_x2C__coin_x2C__cryptocurrency">
</g>
<g id="_x33_8_idea_x2C__bulb_x2C__bitcoin_x2C__coin_x2C__block_x2C__chain_x2C__cryptocurrency">
</g>
<g id="_x33_7_users_x2C__user_x2C__co-founder_x2C__bitcoin_x2C__coin_x2C__cryptocurrency">
</g>
<g id="_x33_6_safe_x2C__protection_x2C__bitcoin_x2C__coin_x2C__block_x2C__chain_x2C__cryptocurrency">
</g>
<g id="_x33_5_flash_drive_x2C__key_x2C__block_x2C__chain_x2C__cryptocurrency">
</g>
<g id="_x33_4_cloud_x2C__mining_x2C__bitcoin_x2C__coin_x2C__block_x2C__chain_x2C__cryptocurrency">
</g>
<g id="_x33_3_start_up_x2C__plant_x2C__bitcoin_x2C__coin_x2C__block_x2C__chain_x2C__cryptocurrency">
</g>
<g id="_x33_2_planet_x2C__bitcoin_x2C__coin_x2C__block_x2C__chain_x2C__cryptocurrency">
</g>
<g id="_x33_1_payment_x2C__hand_x2C__bitcoin_x2C__coin_x2C__block_x2C__chain_x2C__cryptocurrency">
</g>
<g id="_x33_0_user_x2C__laptop_x2C__bitcoin_x2C__coin_x2C__block_x2C__chain_x2C__cryptocurrency">
</g>
<g id="_x32_9_thief_x2C__bag_x2C__bitcoin_x2C__coin_x2C__block_x2C__chain_x2C__cryptocurrency">
</g>
<g id="_x32_8_code_x2C__programming_x2C__program_x2C__bitcoin_x2C__coin_x2C__cryptocurrency">
</g>
<g id="_x32_7_bitcoin_x2C__coin_x2C__block_x2C__chain_x2C__cryptocurrency">
</g>
<g id="_x32_6_shield_x2C__protection_x2C__bitcoin_x2C__coin_x2C__block_x2C__chain_x2C__cryptocurrency">
</g>
<g id="_x32_5_bug_x2C__laptop_x2C__miner_x2C__program_x2C__block_x2C__chain_x2C__cryptocurrency">
</g>
<g id="_x32_4_computer_x2C__monitor_x2C__bitcoin_x2C__coin_x2C__block_x2C__chain_x2C__cryptocurrency">
</g>
<g id="_x32_3_network_x2C__idea_x2C__bitcoin_x2C__coin_x2C__block_x2C__chain_x2C__cryptocurrency">
</g>
<g id="_x32_2_block_x2C__chain_x2C__cryptocurrency_x2C__technology_x2C__future">
</g>
<g id="_x32_1_smart_contact_x2C__contact_x2C__block_x2C__chain_x2C__cryptocurrency">
</g>
<g id="_x32_0_lock_x2C__safe_x2C__protection_x2C__block_x2C__chain_x2C__cryptocurrency_x2C__program">
</g>
<g id="_x31_9_server_x2C__data_x2C__bitcoin_x2C__coin_x2C__block_x2C__chain_x2C__cryptocurrency">
</g>
<g id="_x31_8_key_x2C__bitcoin_x2C__coin_x2C__block_x2C__chain_x2C__cryptocurrency">
</g>
<g id="_x31_7_pool_x2C__network_x2C__bitcoin_x2C__coin_x2C__block_x2C__chain_x2C__cryptocurrency">
</g>
<g id="_x31_6_mining_x2C__shovel_x2C__mine_x2C__coin_x2C__block_x2C__chain_x2C__cryptocurrency">
</g>
<g id="_x31_5_purse_x2C__bitcoin_x2C__coin_x2C__block_x2C__chain_x2C__cryptocurrency">
</g>
<g id="_x31_4_safe_x2C__protection_x2C__block_x2C__chain_x2C__cryptocurrency_x2C__program">
</g>
<g id="_x31_3_mining_x2C__funnel_x2C__satoshi_x2C__bitcoin_x2C__coin_x2C__cryptocurrency">
</g>
<g id="_x31_2_chart_x2C__bitcoin_x2C__coin_x2C__block_x2C__chain_x2C__cryptocurrency">
</g>
<g id="_x31_1_computer_x2C__monitor_x2C__bitcoin_x2C__coin_x2C__block_x2C__chain_x2C__cryptocurrency">
</g>
<g id="_x31_0_mining_x2C__pickaxe_x2C__stone_x2C__mine_x2C___bitcoin_x2C__coin_x2C__cryptocurrency">
</g>
<g id="_x39__miner_x2C__mining_x2C__computer_x2C__pickaxe_x2C__program_x2C__cryptocurrency">
</g>
<g id="_x38__video_card_x2C__mining_x2C__bitcoin_x2C__coin_x2C__block_x2C__chain_x2C__cryptocurrency">
</g>
<g id="_x37__exchanger_x2C__site_x2C__bitcoin_x2C__coin_x2C__block_x2C__chain_x2C__cryptocurrency">
</g>
<g id="_x36__shop_x2C__product_x2C__bitcoin_x2C__coin_x2C__block_x2C__chain_x2C__cryptocurrency">
</g>
<g id="_x35__bitcoin_x2C__coin_x2C__exchange_x2C__block_x2C__chain_x2C__cryptocurrency_x2C__product">
</g>
<g id="_x34__bitcoin_x2C__coin_x2C__exchange_x2C__block_x2C__chain_x2C__cryptocurrency">
</g>
<g id="_x33__bitcoin_x2C__coin_x2C__exchange_x2C__block_x2C__chain_x2C__cryptocurrency">
</g>
<g id="_x32__brain_x2C__smart_x2C__coin_x2C__block_x2C__chain_x2C__cryptocurrency">
</g>
<g id="_x31__bitcoin_x2C__coin_x2C__block_x2C__chain_x2C__cryptocurrency">
</g>
</svg>
