<?xml version="1.0" encoding="utf-8"?>
<!-- Generator: Adobe Illustrator 16.0.0, SVG Export Plug-In . SVG Version: 6.00 Build 0)  -->
<!DOCTYPE svg PUBLIC "-//W3C//DTD SVG 1.1//EN" "http://www.w3.org/Graphics/SVG/1.1/DTD/svg11.dtd">
<svg version="1.1" xmlns="http://www.w3.org/2000/svg" xmlns:xlink="http://www.w3.org/1999/xlink" x="0px" y="0px" width="64px"
	 height="64px" viewBox="0 0 64 64" enable-background="new 0 0 64 64" xml:space="preserve">
<g id="_x35_0_code_x2C__programming_x2C__program_x2C__bitcoin_x2C__block_x2C__chain_x2C__cryptocurrency">
</g>
<g id="_x34_9_balloon_x2C__takeoff_x2C__bitcoin_x2C__coin_x2C__block_x2C__chain_x2C__cryptocurrency">
</g>
<g id="_x34_8_video_card_x2C__mining_x2C__farm_x2C__computer_x2C__block_x2C__chain_x2C__cryptocurrency">
</g>
<g id="_x34_7_money_box_x2C__saving_x2C__bitcoin_x2C__coin_x2C__block_x2C__chain_x2C__cryptocurrency">
</g>
<g id="_x34_6_portfolio_x2C__finance_x2C__bank_note_x2C__bitcoin_x2C__coin_x2C__cryptocurrency">
</g>
<g id="_x34_5_tap_x2C__water_x2C__bitcoin_x2C__coin_x2C__block_x2C__chain_x2C__cryptocurrency">
</g>
<g id="_x34_4_phone_x2C__bitcoin_x2C__coin_x2C__block_x2C__chain_x2C__cryptocurrency">
</g>
<g id="_x34_3_rocket_x2C__sun_x2C__bitcoin_x2C__coin_x2C__block_x2C__chain_x2C__cryptocurrency">
</g>
<g id="_x34_2_transfer_x2C__network_x2C__bitcoin_x2C__coin_x2C__block_x2C__chain_x2C__cryptocurrency">
</g>
<g id="_x34_1_scales_x2C__comparison_x2C__bitcoin_x2C__coin_x2C__block_x2C__chain_x2C__cryptocurrency">
</g>
<g id="_x34_0_calculator_x2C__calculating_x2C__bitcoin_x2C__coin_x2C__block_x2C__chain_x2C__cryptocurrency">
</g>
<g id="_x33_9_start-up_x2C__plant_x2C__hand_x2C__bitcoin_x2C__coin_x2C__cryptocurrency">
</g>
<g id="_x33_8_idea_x2C__bulb_x2C__bitcoin_x2C__coin_x2C__block_x2C__chain_x2C__cryptocurrency">
</g>
<g id="_x33_7_users_x2C__user_x2C__co-founder_x2C__bitcoin_x2C__coin_x2C__cryptocurrency">
</g>
<g id="_x33_6_safe_x2C__protection_x2C__bitcoin_x2C__coin_x2C__block_x2C__chain_x2C__cryptocurrency">
</g>
<g id="_x33_5_flash_drive_x2C__key_x2C__block_x2C__chain_x2C__cryptocurrency">
</g>
<g id="_x33_4_cloud_x2C__mining_x2C__bitcoin_x2C__coin_x2C__block_x2C__chain_x2C__cryptocurrency">
</g>
<g id="_x33_3_start_up_x2C__plant_x2C__bitcoin_x2C__coin_x2C__block_x2C__chain_x2C__cryptocurrency">
</g>
<g id="_x33_2_planet_x2C__bitcoin_x2C__coin_x2C__block_x2C__chain_x2C__cryptocurrency">
</g>
<g id="_x33_1_payment_x2C__hand_x2C__bitcoin_x2C__coin_x2C__block_x2C__chain_x2C__cryptocurrency">
	<g>
		<g>
			<g>
				<path d="M6.03,58.5c-0.552,0-1.005-0.447-1.005-1s0.443-1,0.995-1h0.01c0.553,0,1,0.447,1,1S6.583,58.5,6.03,58.5z"/>
			</g>
			<g>
				<path d="M61.002,47.965c-0.346,0-0.682-0.179-0.866-0.499c-0.277-0.479-0.113-1.09,0.364-1.366c0.926-0.535,1.5-1.531,1.5-2.6
					c0-1.654-1.346-3-3-3c-0.553,0-1-0.447-1-1s0.447-1,1-1c2.757,0,5,2.243,5,5c0,1.779-0.957,3.439-2.498,4.33
					C61.344,47.922,61.172,47.965,61.002,47.965z"/>
			</g>
			<g>
				<path d="M34.001,62.5c-0.356,0-0.701-0.19-0.882-0.526c-0.261-0.486-0.079-1.093,0.407-1.354l27-14.536
					c0.485-0.261,1.093-0.079,1.354,0.407s0.079,1.093-0.407,1.354l-27,14.536C34.323,62.462,34.161,62.5,34.001,62.5z"/>
			</g>
			<g>
				<path d="M34.001,62.5c-0.043,0-0.086-0.003-0.13-0.009l-23-3c-0.547-0.071-0.934-0.573-0.862-1.12
					c0.072-0.548,0.583-0.93,1.121-0.862l23,3c0.548,0.071,0.935,0.573,0.862,1.12C34.926,62.133,34.496,62.5,34.001,62.5z"/>
			</g>
			<g>
				<path d="M11,61.5H1c-0.552,0-1-0.447-1-1v-27c0-0.553,0.448-1,1-1h10c0.552,0,1,0.447,1,1v27C12,61.053,11.552,61.5,11,61.5z
					 M2,59.5h8v-25H2V59.5z"/>
			</g>
			<g>
				<path d="M38.999,43.5c-0.486,0-0.912-0.354-0.987-0.85c-0.083-0.546,0.292-1.056,0.838-1.139l19.317-2.94
					c0.546-0.084,1.056,0.292,1.139,0.838s-0.292,1.056-0.838,1.139l-19.317,2.94C39.1,43.496,39.049,43.5,38.999,43.5z"/>
			</g>
			<g>
				<path d="M35,47.5c-0.553,0-1-0.447-1-1s0.447-1,1-1c1.654,0,3-1.346,3-3c0-1.464-1.044-2.707-2.483-2.955
					c-0.544-0.094-0.909-0.611-0.815-1.155s0.611-0.906,1.155-0.815C38.258,37.987,40,40.06,40,42.5C40,45.257,37.757,47.5,35,47.5z
					"/>
			</g>
			<g>
				<path d="M35.688,39.56c-0.063,0-0.128-0.006-0.192-0.019l-15.688-3.06c-0.542-0.105-0.896-0.631-0.79-1.173
					s0.629-0.897,1.173-0.79l15.688,3.06c0.542,0.105,0.896,0.631,0.79,1.173C36.576,39.229,36.157,39.56,35.688,39.56z"/>
			</g>
			<g>
				<path d="M20,36.5h-9c-0.552,0-1-0.447-1-1s0.448-1,1-1h9c0.552,0,1,0.447,1,1S20.552,36.5,20,36.5z"/>
			</g>
			<g>
				<path d="M34.58,47.478c-0.026,0-0.052-0.001-0.078-0.003l-12.58-0.978c-0.55-0.043-0.962-0.523-0.919-1.074
					c0.043-0.551,0.528-0.959,1.075-0.92l12.579,0.978c0.551,0.043,0.963,0.523,0.92,1.074
					C35.535,47.079,35.098,47.478,34.58,47.478z"/>
			</g>
			<g>
				<path d="M58.315,40.558c-0.479,0-0.901-0.344-0.984-0.831c-0.094-0.544,0.271-1.061,0.816-1.154
					C58.426,38.524,58.712,38.5,59,38.5c0.553,0,1,0.447,1,1s-0.447,1-1,1c-0.176,0-0.348,0.015-0.515,0.043
					C58.429,40.553,58.371,40.558,58.315,40.558z"/>
			</g>
			<g>
				<path d="M35,47.5c-0.178,0-0.353-0.01-0.524-0.028c-0.55-0.059-0.947-0.551-0.889-1.1c0.058-0.55,0.543-0.951,1.1-0.889
					C34.79,45.494,34.895,45.5,35,45.5c0.553,0,1,0.447,1,1S35.553,47.5,35,47.5z"/>
			</g>
		</g>
		<g>
			<g>
				<g>
					<path d="M34.035,21.54c-0.553,0-1-0.447-1-1v-12c0-0.553,0.447-1,1-1s1,0.447,1,1v12C35.035,21.093,34.588,21.54,34.035,21.54z
						"/>
				</g>
				<g>
					<path d="M39.535,21.54c-0.553,0-1-0.447-1-1s0.447-1,1-1c1.379,0,2.5-1.121,2.5-2.5s-1.121-2.5-2.5-2.5c-0.553,0-1-0.447-1-1
						s0.447-1,1-1c2.481,0,4.5,2.019,4.5,4.5S42.017,21.54,39.535,21.54z"/>
				</g>
				<g>
					<path d="M39.535,14.54c-0.553,0-1-0.447-1-1s0.447-1,1-1c0.827,0,1.5-0.673,1.5-1.5s-0.673-1.5-1.5-1.5c-0.553,0-1-0.447-1-1
						s0.447-1,1-1c1.93,0,3.5,1.57,3.5,3.5S41.465,14.54,39.535,14.54z"/>
				</g>
				<g>
					<path d="M39.535,9.54h-6.5c-0.552,0-1-0.447-1-1s0.448-1,1-1h6.5c0.553,0,1,0.447,1,1S40.088,9.54,39.535,9.54z"/>
				</g>
				<g>
					<path d="M39.535,14.54h-5.5c-0.553,0-1-0.447-1-1s0.447-1,1-1h5.5c0.553,0,1,0.447,1,1S40.088,14.54,39.535,14.54z"/>
				</g>
				<g>
					<path d="M39.535,21.54h-6.5c-0.552,0-1-0.447-1-1s0.448-1,1-1h6.5c0.553,0,1,0.447,1,1S40.088,21.54,39.535,21.54z"/>
				</g>
				<g>
					<path d="M37.035,9.54c-0.553,0-1-0.447-1-1v-1c0-0.553,0.447-1,1-1s1,0.447,1,1v1C38.035,9.093,37.588,9.54,37.035,9.54z"/>
				</g>
				<g>
					<path d="M37.035,22.54c-0.553,0-1-0.447-1-1v-1c0-0.553,0.447-1,1-1s1,0.447,1,1v1C38.035,22.093,37.588,22.54,37.035,22.54z"
						/>
				</g>
			</g>
			<g>
				<path d="M37.5,28.501c-7.444,0-13.5-6.056-13.5-13.5S30.056,1.5,37.5,1.5C44.944,1.5,51,7.557,51,15.001
					S44.944,28.501,37.5,28.501z M37.5,3.5C31.159,3.5,26,8.659,26,15.001c0,6.341,5.159,11.5,11.5,11.5
					c6.341,0,11.5-5.159,11.5-11.5C49,8.659,43.841,3.5,37.5,3.5z"/>
			</g>
			<g>
				<path d="M37.5,32.502c-7.444,0-13.5-6.056-13.5-13.5c0-0.553,0.448-1,1-1s1,0.447,1,1c0,6.341,5.159,11.5,11.5,11.5
					c6.341,0,11.5-5.159,11.5-11.5c0-0.553,0.447-1,1-1s1,0.447,1,1C51,26.446,44.944,32.502,37.5,32.502z"/>
			</g>
			<g>
				<path d="M50,20.002c-0.553,0-1-0.447-1-1v-4.001c0-0.553,0.447-1,1-1s1,0.447,1,1v4.001C51,19.555,50.553,20.002,50,20.002z"/>
			</g>
			<g>
				<path d="M25,20.002c-0.552,0-1-0.447-1-1v-4.001c0-0.553,0.448-1,1-1s1,0.447,1,1v4.001C26,19.555,25.552,20.002,25,20.002z"/>
			</g>
			<g>
				<path d="M33,31.666c-0.552,0-1-0.447-1-1v-4.001c0-0.553,0.448-1,1-1c0.553,0,1,0.447,1,1v4.001
					C34,31.219,33.553,31.666,33,31.666z"/>
			</g>
			<g>
				<path d="M42,31.666c-0.553,0-1-0.447-1-1v-4.001c0-0.553,0.447-1,1-1s1,0.447,1,1v4.001C43,31.219,42.553,31.666,42,31.666z"/>
			</g>
		</g>
	</g>
</g>
<g id="_x33_0_user_x2C__laptop_x2C__bitcoin_x2C__coin_x2C__block_x2C__chain_x2C__cryptocurrency">
</g>
<g id="_x32_9_thief_x2C__bag_x2C__bitcoin_x2C__coin_x2C__block_x2C__chain_x2C__cryptocurrency">
</g>
<g id="_x32_8_code_x2C__programming_x2C__program_x2C__bitcoin_x2C__coin_x2C__cryptocurrency">
</g>
<g id="_x32_7_bitcoin_x2C__coin_x2C__block_x2C__chain_x2C__cryptocurrency">
</g>
<g id="_x32_6_shield_x2C__protection_x2C__bitcoin_x2C__coin_x2C__block_x2C__chain_x2C__cryptocurrency">
</g>
<g id="_x32_5_bug_x2C__laptop_x2C__miner_x2C__program_x2C__block_x2C__chain_x2C__cryptocurrency">
</g>
<g id="_x32_4_computer_x2C__monitor_x2C__bitcoin_x2C__coin_x2C__block_x2C__chain_x2C__cryptocurrency">
</g>
<g id="_x32_3_network_x2C__idea_x2C__bitcoin_x2C__coin_x2C__block_x2C__chain_x2C__cryptocurrency">
</g>
<g id="_x32_2_block_x2C__chain_x2C__cryptocurrency_x2C__technology_x2C__future">
</g>
<g id="_x32_1_smart_contact_x2C__contact_x2C__block_x2C__chain_x2C__cryptocurrency">
</g>
<g id="_x32_0_lock_x2C__safe_x2C__protection_x2C__block_x2C__chain_x2C__cryptocurrency_x2C__program">
</g>
<g id="_x31_9_server_x2C__data_x2C__bitcoin_x2C__coin_x2C__block_x2C__chain_x2C__cryptocurrency">
</g>
<g id="_x31_8_key_x2C__bitcoin_x2C__coin_x2C__block_x2C__chain_x2C__cryptocurrency">
</g>
<g id="_x31_7_pool_x2C__network_x2C__bitcoin_x2C__coin_x2C__block_x2C__chain_x2C__cryptocurrency">
</g>
<g id="_x31_6_mining_x2C__shovel_x2C__mine_x2C__coin_x2C__block_x2C__chain_x2C__cryptocurrency">
</g>
<g id="_x31_5_purse_x2C__bitcoin_x2C__coin_x2C__block_x2C__chain_x2C__cryptocurrency">
</g>
<g id="_x31_4_safe_x2C__protection_x2C__block_x2C__chain_x2C__cryptocurrency_x2C__program">
</g>
<g id="_x31_3_mining_x2C__funnel_x2C__satoshi_x2C__bitcoin_x2C__coin_x2C__cryptocurrency">
</g>
<g id="_x31_2_chart_x2C__bitcoin_x2C__coin_x2C__block_x2C__chain_x2C__cryptocurrency">
</g>
<g id="_x31_1_computer_x2C__monitor_x2C__bitcoin_x2C__coin_x2C__block_x2C__chain_x2C__cryptocurrency">
</g>
<g id="_x31_0_mining_x2C__pickaxe_x2C__stone_x2C__mine_x2C___bitcoin_x2C__coin_x2C__cryptocurrency">
</g>
<g id="_x39__miner_x2C__mining_x2C__computer_x2C__pickaxe_x2C__program_x2C__cryptocurrency">
</g>
<g id="_x38__video_card_x2C__mining_x2C__bitcoin_x2C__coin_x2C__block_x2C__chain_x2C__cryptocurrency">
</g>
<g id="_x37__exchanger_x2C__site_x2C__bitcoin_x2C__coin_x2C__block_x2C__chain_x2C__cryptocurrency">
</g>
<g id="_x36__shop_x2C__product_x2C__bitcoin_x2C__coin_x2C__block_x2C__chain_x2C__cryptocurrency">
</g>
<g id="_x35__bitcoin_x2C__coin_x2C__exchange_x2C__block_x2C__chain_x2C__cryptocurrency_x2C__product">
</g>
<g id="_x34__bitcoin_x2C__coin_x2C__exchange_x2C__block_x2C__chain_x2C__cryptocurrency">
</g>
<g id="_x33__bitcoin_x2C__coin_x2C__exchange_x2C__block_x2C__chain_x2C__cryptocurrency">
</g>
<g id="_x32__brain_x2C__smart_x2C__coin_x2C__block_x2C__chain_x2C__cryptocurrency">
</g>
<g id="_x31__bitcoin_x2C__coin_x2C__block_x2C__chain_x2C__cryptocurrency">
</g>
</svg>
