<svg xmlns="http://www.w3.org/2000/svg" x="0" y="0" xml:space="preserve" viewBox="0 0 64 64"><path d="M30.828 22c-6.065 0-11-4.935-11-11s4.935-11 11-11 11 4.935 11 11-4.934 11-11 11zm0-20c-4.963 0-9 4.037-9 9s4.037 9 9 9 9-4.037 9-9-4.037-9-9-9z"/><path d="M30.828 25.999c-6.065 0-11-4.935-11-11a1 1 0 1 1 2 0c0 4.963 4.037 9 9 9s9-4.037 9-9a1 1 0 1 1 2 0c0 6.065-4.934 11-11 11z"/><path d="M40.828 15.999a1 1 0 0 1-1-1V11a1 1 0 1 1 2 0v3.999a1 1 0 0 1-1 1zM28.828 16a1 1 0 0 1-1-1V6a1 1 0 1 1 2 0v9a1 1 0 0 1-1 1zM31.828 10.999a1 1 0 1 1 0-2 1 1 0 0 0 0-1.999 1 1 0 1 1 0-2c1.654 0 3 1.346 3 2.999 0 1.654-1.346 3-3 3z"/><path d="M32.327 16a1 1 0 1 1 0-2c.827 0 1.501-.673 1.501-1.5 0-.828-.674-1.502-1.501-1.502a1 1 0 1 1 0-2 3.505 3.505 0 0 1 3.501 3.502c0 1.93-1.57 3.5-3.501 3.5zM31.828 7h-4a1 1 0 1 1 0-2h4a1 1 0 1 1 0 2z"/><path d="M32.327 16h-4.499a1 1 0 1 1 0-2h4.499a1 1 0 1 1 0 2zM28.828 11a1 1 0 0 1-.001-2l3.499-.002h.001a1 1 0 0 1 .001 2l-3.5.002zM30.828 7a1 1 0 0 1-1-1V4.999a1 1 0 1 1 2 0V6a1 1 0 0 1-1 1z"/><path d="M30.828 17a1 1 0 0 1-1-1v-1a1 1 0 1 1 2 0v1a1 1 0 0 1-1 1zM30.828 25.999a1 1 0 0 1-1-1V21a1 1 0 1 1 2 0v3.999a1 1 0 0 1-1 1zM35.828 24.66a1 1 0 0 1-1-1v-3.998a1 1 0 1 1 2 0v3.998a1 1 0 0 1-1 1z"/><g><path d="M25.828 24.66a1 1 0 0 1-1-1v-3.998a1 1 0 1 1 2 0v3.998a1 1 0 0 1-1 1z"/></g><g><path d="M20.828 15.999a1 1 0 0 1-1-1V11a1 1 0 1 1 2 0v3.999a1 1 0 0 1-1 1z"/></g><g><path d="M42.816 47H18.84a1 1 0 0 1-1-1v-3a1 1 0 0 1 1-1h23.977a1 1 0 0 1 1 1v3a1 1 0 0 1-1.001 1zM19.84 45h21.977v-1H19.84v1z"/></g><g><path d="M22.827 64a1 1 0 0 1-.983-.825l-3.012-17a1 1 0 1 1 1.969-.349l3.012 17A1 1 0 0 1 22.827 64z"/></g><g><path d="M38.812 64a1 1 0 0 1-.986-1.175l3.012-17a1 1 0 0 1 1.969.349l-3.012 17a1 1 0 0 1-.983.826z"/></g><g><path d="M38.811 64H22.828a1 1 0 1 1 0-2H38.81a1 1 0 1 1 .001 2z"/></g><g><path d="M30.816 44a1 1 0 0 1-1-1.001l.012-18.001a1 1 0 0 1 1-.999h.001A1 1 0 0 1 31.828 25l-.012 18.001a1 1 0 0 1-1 .999z"/></g><g><path d="M37.816 39a4.965 4.965 0 0 1-3.535-1.465c-.944-.943-1.465-2.199-1.465-3.535s.521-2.592 1.465-3.535c1.386-1.387 6.673-4.81 9.491-4.81.739 0 1.328.215 1.751.638 1.045 1.044.807 3.03-.729 6.071-1.004 1.989-2.484 4.212-3.443 5.171A4.965 4.965 0 0 1 37.816 39zm5.956-11.345c-1.992 0-6.759 2.904-8.077 4.224-.566.566-.879 1.319-.879 2.121s.313 1.555.879 2.121c1.133 1.133 3.109 1.133 4.242 0 1.846-1.845 4.816-7.524 4.169-8.417-.002 0-.088-.049-.334-.049z"/></g><g><path d="M30.828 42a.999.999 0 0 1-.708-1.706l7.16-7.172a.999.999 0 1 1 1.416 1.412l-7.16 7.172a.996.996 0 0 1-.708.294z"/></g><g><path d="M25.316 35.018a3.479 3.479 0 0 1-2.475-1.025c-.622-.622-1.42-1.886-1.941-3.073-.796-1.814-.815-3.119-.059-3.876.253-.253.718-.555 1.498-.555 1.797 0 4.551 1.654 5.451 2.555a3.504 3.504 0 0 1 0 4.949 3.477 3.477 0 0 1-2.474 1.025zM22.28 28.49c-.089.753 1.065 3.178 1.976 4.088.566.566 1.555.566 2.121 0a1.501 1.501 0 0 0 0-2.121c-.724-.723-2.991-1.969-4.037-1.969a.996.996 0 0 0-.06.002z"/></g><g><path d="M30.809 38.01a.997.997 0 0 1-.707-.293l-3.725-3.725a.999.999 0 1 1 1.414-1.414l3.725 3.725a.999.999 0 0 1-.707 1.707z"/></g><g><path d="M26.816 64a1 1 0 0 1-1-1v-1a1 1 0 1 1 2 0v1a1 1 0 0 1-1 1z"/></g><g><path d="M30.816 64a1 1 0 0 1-1-1v-1a1 1 0 1 1 2 0v1a1 1 0 0 1-1 1z"/></g><g><path d="M34.816 64a1 1 0 0 1-1-1v-1a1 1 0 1 1 2 0v1a1 1 0 0 1-1 1z"/></g></svg>