<?xml version="1.0" encoding="utf-8"?>
<!-- Generator: Adobe Illustrator 16.0.0, SVG Export Plug-In . SVG Version: 6.00 Build 0)  -->
<!DOCTYPE svg PUBLIC "-//W3C//DTD SVG 1.1//EN" "http://www.w3.org/Graphics/SVG/1.1/DTD/svg11.dtd">
<svg version="1.1" xmlns="http://www.w3.org/2000/svg" xmlns:xlink="http://www.w3.org/1999/xlink" x="0px" y="0px" width="64px"
	 height="64px" viewBox="0 0 64 64" enable-background="new 0 0 64 64" xml:space="preserve">
<g id="_x35_0_code_x2C__programming_x2C__program_x2C__bitcoin_x2C__block_x2C__chain_x2C__cryptocurrency">
</g>
<g id="_x34_9_balloon_x2C__takeoff_x2C__bitcoin_x2C__coin_x2C__block_x2C__chain_x2C__cryptocurrency">
</g>
<g id="_x34_8_video_card_x2C__mining_x2C__farm_x2C__computer_x2C__block_x2C__chain_x2C__cryptocurrency">
</g>
<g id="_x34_7_money_box_x2C__saving_x2C__bitcoin_x2C__coin_x2C__block_x2C__chain_x2C__cryptocurrency">
</g>
<g id="_x34_6_portfolio_x2C__finance_x2C__bank_note_x2C__bitcoin_x2C__coin_x2C__cryptocurrency">
</g>
<g id="_x34_5_tap_x2C__water_x2C__bitcoin_x2C__coin_x2C__block_x2C__chain_x2C__cryptocurrency">
</g>
<g id="_x34_4_phone_x2C__bitcoin_x2C__coin_x2C__block_x2C__chain_x2C__cryptocurrency">
</g>
<g id="_x34_3_rocket_x2C__sun_x2C__bitcoin_x2C__coin_x2C__block_x2C__chain_x2C__cryptocurrency">
</g>
<g id="_x34_2_transfer_x2C__network_x2C__bitcoin_x2C__coin_x2C__block_x2C__chain_x2C__cryptocurrency">
</g>
<g id="_x34_1_scales_x2C__comparison_x2C__bitcoin_x2C__coin_x2C__block_x2C__chain_x2C__cryptocurrency">
</g>
<g id="_x34_0_calculator_x2C__calculating_x2C__bitcoin_x2C__coin_x2C__block_x2C__chain_x2C__cryptocurrency">
	<g>
		<g>
			<g>
				<g>
					<path d="M55,23c-0.553,0-1-0.447-1-1s0.447-1,1-1c0.275,0,0.5-0.225,0.5-0.5S55.275,20,55,20c-0.553,0-1-0.447-1-1s0.447-1,1-1
						c1.379,0,2.5,1.121,2.5,2.5S56.379,23,55,23z"/>
				</g>
				<g>
					<path d="M55.5,27c-0.553,0-1-0.447-1-1s0.447-1,1-1c0.552,0,1-0.448,1-1s-0.448-1-1-1c-0.553,0-1-0.447-1-1s0.447-1,1-1
						c1.654,0,3,1.346,3,3S57.154,27,55.5,27z"/>
				</g>
				<g>
					<path d="M55.5,23h-3c-0.553,0-1-0.447-1-1s0.447-1,1-1h3c0.553,0,1,0.447,1,1S56.053,23,55.5,23z"/>
				</g>
				<g>
					<path d="M55.5,27h-4c-0.553,0-1-0.447-1-1s0.447-1,1-1h4c0.553,0,1,0.447,1,1S56.053,27,55.5,27z"/>
				</g>
				<g>
					<path d="M55,20h-3.5c-0.553,0-1-0.447-1-1s0.447-1,1-1H55c0.553,0,1,0.447,1,1S55.553,20,55,20z"/>
				</g>
				<g>
					<path d="M52.5,27c-0.553,0-1-0.447-1-1v-7c0-0.553,0.447-1,1-1s1,0.447,1,1v7C53.5,26.553,53.053,27,52.5,27z"/>
				</g>
				<g>
					<path d="M53.5,20c-0.553,0-1-0.447-1-1v-1c0-0.553,0.447-1,1-1s1,0.447,1,1v1C54.5,19.553,54.053,20,53.5,20z"/>
				</g>
				<g>
					<path d="M53.5,28c-0.553,0-1-0.447-1-1v-1c0-0.553,0.447-1,1-1s1,0.447,1,1v1C54.5,27.553,54.053,28,53.5,28z"/>
				</g>
			</g>
			<g>
				<path d="M54.5,32c-4.963,0-9-4.037-9-9s4.037-9,9-9s9,4.037,9,9S59.463,32,54.5,32z M54.5,16c-3.859,0-7,3.141-7,7s3.141,7,7,7
					s7-3.141,7-7S58.359,16,54.5,16z"/>
			</g>
			<g>
				<path d="M54.5,35c-4.963,0-9-4.038-9-9.001c0-0.553,0.447-1,1-1s1,0.447,1,1c0,3.86,3.141,7.001,7,7.001s7-3.141,7-7.001
					c0-0.553,0.447-1,1-1s1,0.447,1,1C63.5,30.962,59.463,35,54.5,35z"/>
			</g>
			<g>
				<path d="M51.5,34.364c-0.553,0-1-0.447-1-1v-2.947c0-0.553,0.447-1,1-1s1,0.447,1,1v2.947
					C52.5,33.917,52.053,34.364,51.5,34.364z"/>
			</g>
			<g>
				<path d="M57.5,34.418c-0.553,0-1-0.447-1-1v-3.001c0-0.553,0.447-1,1-1s1,0.447,1,1v3.001
					C58.5,33.971,58.053,34.418,57.5,34.418z"/>
			</g>
			<g>
				<path d="M62.5,26.999c-0.553,0-1-0.447-1-1V23c0-0.553,0.447-1,1-1s1,0.447,1,1v2.999C63.5,26.552,63.053,26.999,62.5,26.999z"
					/>
			</g>
			<g>
				<path d="M46.5,26.999c-0.553,0-1-0.447-1-1V23c0-0.553,0.447-1,1-1s1,0.447,1,1v2.999C47.5,26.552,47.053,26.999,46.5,26.999z"
					/>
			</g>
		</g>
		<g>
			<path d="M38.5,59h-35c-1.654,0-3-1.346-3-3V8c0-1.654,1.346-3,3-3h35c1.654,0,3,1.346,3,3v48C41.5,57.654,40.154,59,38.5,59z
				 M3.5,7c-0.552,0-1,0.448-1,1v48c0,0.552,0.448,1,1,1h35c0.552,0,1-0.448,1-1V8c0-0.552-0.448-1-1-1H3.5z"/>
		</g>
		<g>
			<path d="M62.5,41h-16c-0.553,0-1-0.447-1-1v-3c0-0.553,0.447-1,1-1h16c0.553,0,1,0.447,1,1v3C63.5,40.553,63.053,41,62.5,41z
				 M47.5,39h14v-1h-14V39z"/>
		</g>
		<g>
			<path d="M51.5,41c-0.553,0-1-0.447-1-1v-3c0-0.553,0.447-1,1-1s1,0.447,1,1v3C52.5,40.553,52.053,41,51.5,41z"/>
		</g>
		<g>
			<path d="M57.5,41c-0.553,0-1-0.447-1-1v-3c0-0.553,0.447-1,1-1s1,0.447,1,1v3C58.5,40.553,58.053,41,57.5,41z"/>
		</g>
		<g>
			<path d="M62.5,47h-16c-0.553,0-1-0.447-1-1v-3c0-0.553,0.447-1,1-1h16c0.553,0,1,0.447,1,1v3C63.5,46.553,63.053,47,62.5,47z
				 M47.5,45h14v-1h-14V45z"/>
		</g>
		<g>
			<path d="M51.5,47c-0.553,0-1-0.447-1-1v-3c0-0.553,0.447-1,1-1s1,0.447,1,1v3C52.5,46.553,52.053,47,51.5,47z"/>
		</g>
		<g>
			<path d="M57.5,47c-0.553,0-1-0.447-1-1v-3c0-0.553,0.447-1,1-1s1,0.447,1,1v3C58.5,46.553,58.053,47,57.5,47z"/>
		</g>
		<g>
			<path d="M62.5,53h-16c-0.553,0-1-0.447-1-1v-3c0-0.553,0.447-1,1-1h16c0.553,0,1,0.447,1,1v3C63.5,52.553,63.053,53,62.5,53z
				 M47.5,51h14v-1h-14V51z"/>
		</g>
		<g>
			<path d="M51.5,53c-0.553,0-1-0.447-1-1v-3c0-0.553,0.447-1,1-1s1,0.447,1,1v3C52.5,52.553,52.053,53,51.5,53z"/>
		</g>
		<g>
			<path d="M57.5,53c-0.553,0-1-0.447-1-1v-3c0-0.553,0.447-1,1-1s1,0.447,1,1v3C58.5,52.553,58.053,53,57.5,53z"/>
		</g>
		<g>
			<path d="M62.5,59h-16c-0.553,0-1-0.447-1-1v-3c0-0.553,0.447-1,1-1h16c0.553,0,1,0.447,1,1v3C63.5,58.553,63.053,59,62.5,59z
				 M47.5,57h14v-1h-14V57z"/>
		</g>
		<g>
			<path d="M51.5,59c-0.553,0-1-0.447-1-1v-3c0-0.553,0.447-1,1-1s1,0.447,1,1v3C52.5,58.553,52.053,59,51.5,59z"/>
		</g>
		<g>
			<path d="M57.5,59c-0.553,0-1-0.447-1-1v-3c0-0.553,0.447-1,1-1s1,0.447,1,1v3C58.5,58.553,58.053,59,57.5,59z"/>
		</g>
		<g>
			<path d="M35.5,20h-28c-0.553,0-1-0.447-1-1v-7c0-0.553,0.447-1,1-1h28c0.553,0,1,0.447,1,1v7C36.5,19.553,36.053,20,35.5,20z
				 M8.5,18h26v-5h-26V18z"/>
		</g>
		<g>
			<path d="M10.5,31c-2.206,0-4-1.794-4-4s1.794-4,4-4s4,1.794,4,4S12.706,31,10.5,31z M10.5,25c-1.103,0-2,0.897-2,2s0.897,2,2,2
				s2-0.897,2-2S11.603,25,10.5,25z"/>
		</g>
		<g>
			<path d="M21.553,31c-2.206,0-4-1.794-4-4s1.794-4,4-4s4,1.794,4,4S23.759,31,21.553,31z M21.553,25c-1.103,0-2,0.897-2,2
				s0.897,2,2,2s2-0.897,2-2S22.655,25,21.553,25z"/>
		</g>
		<g>
			<path d="M32.553,31c-2.206,0-4-1.794-4-4s1.794-4,4-4s4,1.794,4,4S34.759,31,32.553,31z M32.553,25c-1.103,0-2,0.897-2,2
				s0.897,2,2,2s2-0.897,2-2S33.655,25,32.553,25z"/>
		</g>
		<g>
			<path d="M10.5,42c-2.206,0-4-1.794-4-4s1.794-4,4-4s4,1.794,4,4S12.706,42,10.5,42z M10.5,36c-1.103,0-2,0.897-2,2s0.897,2,2,2
				s2-0.897,2-2S11.603,36,10.5,36z"/>
		</g>
		<g>
			<path d="M21.553,42c-2.206,0-4-1.794-4-4s1.794-4,4-4s4,1.794,4,4S23.759,42,21.553,42z M21.553,36c-1.103,0-2,0.897-2,2
				s0.897,2,2,2s2-0.897,2-2S22.655,36,21.553,36z"/>
		</g>
		<g>
			<path d="M32.553,42c-2.206,0-4-1.794-4-4s1.794-4,4-4s4,1.794,4,4S34.759,42,32.553,42z M32.553,36c-1.103,0-2,0.897-2,2
				s0.897,2,2,2s2-0.897,2-2S33.655,36,32.553,36z"/>
		</g>
		<g>
			<path d="M10.5,53c-2.206,0-4-1.794-4-4s1.794-4,4-4s4,1.794,4,4S12.706,53,10.5,53z M10.5,47c-1.103,0-2,0.897-2,2s0.897,2,2,2
				s2-0.897,2-2S11.603,47,10.5,47z"/>
		</g>
		<g>
			<path d="M21.553,53c-2.206,0-4-1.794-4-4s1.794-4,4-4s4,1.794,4,4S23.759,53,21.553,53z M21.553,47c-1.103,0-2,0.897-2,2
				s0.897,2,2,2s2-0.897,2-2S22.655,47,21.553,47z"/>
		</g>
		<g>
			<path d="M32.553,53c-2.206,0-4-1.794-4-4s1.794-4,4-4s4,1.794,4,4S34.759,53,32.553,53z M32.553,47c-1.103,0-2,0.897-2,2
				s0.897,2,2,2s2-0.897,2-2S33.655,47,32.553,47z"/>
		</g>
	</g>
</g>
<g id="_x33_9_start-up_x2C__plant_x2C__hand_x2C__bitcoin_x2C__coin_x2C__cryptocurrency">
</g>
<g id="_x33_8_idea_x2C__bulb_x2C__bitcoin_x2C__coin_x2C__block_x2C__chain_x2C__cryptocurrency">
</g>
<g id="_x33_7_users_x2C__user_x2C__co-founder_x2C__bitcoin_x2C__coin_x2C__cryptocurrency">
</g>
<g id="_x33_6_safe_x2C__protection_x2C__bitcoin_x2C__coin_x2C__block_x2C__chain_x2C__cryptocurrency">
</g>
<g id="_x33_5_flash_drive_x2C__key_x2C__block_x2C__chain_x2C__cryptocurrency">
</g>
<g id="_x33_4_cloud_x2C__mining_x2C__bitcoin_x2C__coin_x2C__block_x2C__chain_x2C__cryptocurrency">
</g>
<g id="_x33_3_start_up_x2C__plant_x2C__bitcoin_x2C__coin_x2C__block_x2C__chain_x2C__cryptocurrency">
</g>
<g id="_x33_2_planet_x2C__bitcoin_x2C__coin_x2C__block_x2C__chain_x2C__cryptocurrency">
</g>
<g id="_x33_1_payment_x2C__hand_x2C__bitcoin_x2C__coin_x2C__block_x2C__chain_x2C__cryptocurrency">
</g>
<g id="_x33_0_user_x2C__laptop_x2C__bitcoin_x2C__coin_x2C__block_x2C__chain_x2C__cryptocurrency">
</g>
<g id="_x32_9_thief_x2C__bag_x2C__bitcoin_x2C__coin_x2C__block_x2C__chain_x2C__cryptocurrency">
</g>
<g id="_x32_8_code_x2C__programming_x2C__program_x2C__bitcoin_x2C__coin_x2C__cryptocurrency">
</g>
<g id="_x32_7_bitcoin_x2C__coin_x2C__block_x2C__chain_x2C__cryptocurrency">
</g>
<g id="_x32_6_shield_x2C__protection_x2C__bitcoin_x2C__coin_x2C__block_x2C__chain_x2C__cryptocurrency">
</g>
<g id="_x32_5_bug_x2C__laptop_x2C__miner_x2C__program_x2C__block_x2C__chain_x2C__cryptocurrency">
</g>
<g id="_x32_4_computer_x2C__monitor_x2C__bitcoin_x2C__coin_x2C__block_x2C__chain_x2C__cryptocurrency">
</g>
<g id="_x32_3_network_x2C__idea_x2C__bitcoin_x2C__coin_x2C__block_x2C__chain_x2C__cryptocurrency">
</g>
<g id="_x32_2_block_x2C__chain_x2C__cryptocurrency_x2C__technology_x2C__future">
</g>
<g id="_x32_1_smart_contact_x2C__contact_x2C__block_x2C__chain_x2C__cryptocurrency">
</g>
<g id="_x32_0_lock_x2C__safe_x2C__protection_x2C__block_x2C__chain_x2C__cryptocurrency_x2C__program">
</g>
<g id="_x31_9_server_x2C__data_x2C__bitcoin_x2C__coin_x2C__block_x2C__chain_x2C__cryptocurrency">
</g>
<g id="_x31_8_key_x2C__bitcoin_x2C__coin_x2C__block_x2C__chain_x2C__cryptocurrency">
</g>
<g id="_x31_7_pool_x2C__network_x2C__bitcoin_x2C__coin_x2C__block_x2C__chain_x2C__cryptocurrency">
</g>
<g id="_x31_6_mining_x2C__shovel_x2C__mine_x2C__coin_x2C__block_x2C__chain_x2C__cryptocurrency">
</g>
<g id="_x31_5_purse_x2C__bitcoin_x2C__coin_x2C__block_x2C__chain_x2C__cryptocurrency">
</g>
<g id="_x31_4_safe_x2C__protection_x2C__block_x2C__chain_x2C__cryptocurrency_x2C__program">
</g>
<g id="_x31_3_mining_x2C__funnel_x2C__satoshi_x2C__bitcoin_x2C__coin_x2C__cryptocurrency">
</g>
<g id="_x31_2_chart_x2C__bitcoin_x2C__coin_x2C__block_x2C__chain_x2C__cryptocurrency">
</g>
<g id="_x31_1_computer_x2C__monitor_x2C__bitcoin_x2C__coin_x2C__block_x2C__chain_x2C__cryptocurrency">
</g>
<g id="_x31_0_mining_x2C__pickaxe_x2C__stone_x2C__mine_x2C___bitcoin_x2C__coin_x2C__cryptocurrency">
</g>
<g id="_x39__miner_x2C__mining_x2C__computer_x2C__pickaxe_x2C__program_x2C__cryptocurrency">
</g>
<g id="_x38__video_card_x2C__mining_x2C__bitcoin_x2C__coin_x2C__block_x2C__chain_x2C__cryptocurrency">
</g>
<g id="_x37__exchanger_x2C__site_x2C__bitcoin_x2C__coin_x2C__block_x2C__chain_x2C__cryptocurrency">
</g>
<g id="_x36__shop_x2C__product_x2C__bitcoin_x2C__coin_x2C__block_x2C__chain_x2C__cryptocurrency">
</g>
<g id="_x35__bitcoin_x2C__coin_x2C__exchange_x2C__block_x2C__chain_x2C__cryptocurrency_x2C__product">
</g>
<g id="_x34__bitcoin_x2C__coin_x2C__exchange_x2C__block_x2C__chain_x2C__cryptocurrency">
</g>
<g id="_x33__bitcoin_x2C__coin_x2C__exchange_x2C__block_x2C__chain_x2C__cryptocurrency">
</g>
<g id="_x32__brain_x2C__smart_x2C__coin_x2C__block_x2C__chain_x2C__cryptocurrency">
</g>
<g id="_x31__bitcoin_x2C__coin_x2C__block_x2C__chain_x2C__cryptocurrency">
</g>
</svg>
