<?xml version="1.0" encoding="utf-8"?>
<!-- Generator: Adobe Illustrator 16.0.0, SVG Export Plug-In . SVG Version: 6.00 Build 0)  -->
<!DOCTYPE svg PUBLIC "-//W3C//DTD SVG 1.1//EN" "http://www.w3.org/Graphics/SVG/1.1/DTD/svg11.dtd">
<svg version="1.1" xmlns="http://www.w3.org/2000/svg" xmlns:xlink="http://www.w3.org/1999/xlink" x="0px" y="0px" width="64px"
	 height="64px" viewBox="0 0 64 64" enable-background="new 0 0 64 64" xml:space="preserve">
<g id="_x35_0_code_x2C__programming_x2C__program_x2C__bitcoin_x2C__block_x2C__chain_x2C__cryptocurrency">
</g>
<g id="_x34_9_balloon_x2C__takeoff_x2C__bitcoin_x2C__coin_x2C__block_x2C__chain_x2C__cryptocurrency">
</g>
<g id="_x34_8_video_card_x2C__mining_x2C__farm_x2C__computer_x2C__block_x2C__chain_x2C__cryptocurrency">
</g>
<g id="_x34_7_money_box_x2C__saving_x2C__bitcoin_x2C__coin_x2C__block_x2C__chain_x2C__cryptocurrency">
</g>
<g id="_x34_6_portfolio_x2C__finance_x2C__bank_note_x2C__bitcoin_x2C__coin_x2C__cryptocurrency">
</g>
<g id="_x34_5_tap_x2C__water_x2C__bitcoin_x2C__coin_x2C__block_x2C__chain_x2C__cryptocurrency">
</g>
<g id="_x34_4_phone_x2C__bitcoin_x2C__coin_x2C__block_x2C__chain_x2C__cryptocurrency">
</g>
<g id="_x34_3_rocket_x2C__sun_x2C__bitcoin_x2C__coin_x2C__block_x2C__chain_x2C__cryptocurrency">
</g>
<g id="_x34_2_transfer_x2C__network_x2C__bitcoin_x2C__coin_x2C__block_x2C__chain_x2C__cryptocurrency">
</g>
<g id="_x34_1_scales_x2C__comparison_x2C__bitcoin_x2C__coin_x2C__block_x2C__chain_x2C__cryptocurrency">
</g>
<g id="_x34_0_calculator_x2C__calculating_x2C__bitcoin_x2C__coin_x2C__block_x2C__chain_x2C__cryptocurrency">
</g>
<g id="_x33_9_start-up_x2C__plant_x2C__hand_x2C__bitcoin_x2C__coin_x2C__cryptocurrency">
</g>
<g id="_x33_8_idea_x2C__bulb_x2C__bitcoin_x2C__coin_x2C__block_x2C__chain_x2C__cryptocurrency">
</g>
<g id="_x33_7_users_x2C__user_x2C__co-founder_x2C__bitcoin_x2C__coin_x2C__cryptocurrency">
</g>
<g id="_x33_6_safe_x2C__protection_x2C__bitcoin_x2C__coin_x2C__block_x2C__chain_x2C__cryptocurrency">
</g>
<g id="_x33_5_flash_drive_x2C__key_x2C__block_x2C__chain_x2C__cryptocurrency">
</g>
<g id="_x33_4_cloud_x2C__mining_x2C__bitcoin_x2C__coin_x2C__block_x2C__chain_x2C__cryptocurrency">
</g>
<g id="_x33_3_start_up_x2C__plant_x2C__bitcoin_x2C__coin_x2C__block_x2C__chain_x2C__cryptocurrency">
</g>
<g id="_x33_2_planet_x2C__bitcoin_x2C__coin_x2C__block_x2C__chain_x2C__cryptocurrency">
</g>
<g id="_x33_1_payment_x2C__hand_x2C__bitcoin_x2C__coin_x2C__block_x2C__chain_x2C__cryptocurrency">
</g>
<g id="_x33_0_user_x2C__laptop_x2C__bitcoin_x2C__coin_x2C__block_x2C__chain_x2C__cryptocurrency">
</g>
<g id="_x32_9_thief_x2C__bag_x2C__bitcoin_x2C__coin_x2C__block_x2C__chain_x2C__cryptocurrency">
</g>
<g id="_x32_8_code_x2C__programming_x2C__program_x2C__bitcoin_x2C__coin_x2C__cryptocurrency">
</g>
<g id="_x32_7_bitcoin_x2C__coin_x2C__block_x2C__chain_x2C__cryptocurrency">
</g>
<g id="_x32_6_shield_x2C__protection_x2C__bitcoin_x2C__coin_x2C__block_x2C__chain_x2C__cryptocurrency">
</g>
<g id="_x32_5_bug_x2C__laptop_x2C__miner_x2C__program_x2C__block_x2C__chain_x2C__cryptocurrency">
</g>
<g id="_x32_4_computer_x2C__monitor_x2C__bitcoin_x2C__coin_x2C__block_x2C__chain_x2C__cryptocurrency">
</g>
<g id="_x32_3_network_x2C__idea_x2C__bitcoin_x2C__coin_x2C__block_x2C__chain_x2C__cryptocurrency">
</g>
<g id="_x32_2_block_x2C__chain_x2C__cryptocurrency_x2C__technology_x2C__future">
</g>
<g id="_x32_1_smart_contact_x2C__contact_x2C__block_x2C__chain_x2C__cryptocurrency">
	<g>
		<g>
			<path d="M49.5,58.006h-40c-0.552,0-1-0.447-1-1v-56c0-0.553,0.448-1,1-1h34c0.265,0,0.519,0.105,0.706,0.292l6,5.988
				C50.395,6.474,50.5,6.729,50.5,6.994v50.012C50.5,57.559,50.053,58.006,49.5,58.006z M10.5,56.006h38V7.409l-5.414-5.403H10.5
				V56.006z"/>
		</g>
		<g>
			<path d="M46.506,61c-0.552,0-0.999-0.446-1-0.998L45.5,57.008c-0.001-0.553,0.445-1.001,0.998-1.002c0.001,0,0.001,0,0.002,0
				c0.552,0,0.999,0.446,1,0.998l0.006,2.994c0.001,0.553-0.445,1.001-0.998,1.002C46.507,61,46.507,61,46.506,61z"/>
		</g>
		<g>
			<path d="M46.506,61H6.5c-0.552,0-1-0.447-1-1s0.448-1,1-1h40.006c0.553,0,1,0.447,1,1S47.059,61,46.506,61z"/>
		</g>
		<g>
			<path d="M9.5,5.006c0,0-0.001,0-0.002,0L6.504,5C5.952,4.999,5.505,4.551,5.506,3.998C5.507,3.446,5.955,3,6.506,3
				c0,0,0.001,0,0.002,0l2.994,0.006c0.552,0.001,0.999,0.449,0.998,1.002C10.499,4.56,10.051,5.006,9.5,5.006z"/>
		</g>
		<g>
			<path d="M6.506,61c-0.552,0-1-0.447-1-1V4c0-0.553,0.448-1,1-1s1,0.447,1,1v56C7.506,60.553,7.058,61,6.506,61z"/>
		</g>
		<g>
			<path d="M43.506,63.994c-0.552,0-0.999-0.446-1-0.998L42.5,60.002c-0.001-0.553,0.445-1.001,0.998-1.002c0.001,0,0.001,0,0.002,0
				c0.552,0,0.999,0.446,1,0.998l0.006,2.994c0.001,0.553-0.445,1.001-0.998,1.002C43.507,63.994,43.507,63.994,43.506,63.994z"/>
		</g>
		<g>
			<path d="M43.506,63.994H3.5c-0.552,0-1-0.447-1-1s0.448-1,1-1h40.006c0.553,0,1,0.447,1,1S44.059,63.994,43.506,63.994z"/>
		</g>
		<g>
			<path d="M6.5,8c0,0-0.001,0-0.002,0L3.504,7.994C2.952,7.993,2.505,7.545,2.506,6.992c0.001-0.552,0.449-0.998,1-0.998
				c0,0,0.001,0,0.002,0L6.502,6C7.054,6.001,7.501,6.449,7.5,7.002C7.499,7.554,7.051,8,6.5,8z"/>
		</g>
		<g>
			<path d="M3.506,63.994c-0.552,0-1-0.447-1-1v-56c0-0.553,0.448-1,1-1s1,0.447,1,1v56C4.506,63.547,4.058,63.994,3.506,63.994z"/>
		</g>
		<g>
			<path d="M49.5,7.994h-6c-0.553,0-1-0.447-1-1s0.447-1,1-1h6c0.553,0,1,0.447,1,1S50.053,7.994,49.5,7.994z"/>
		</g>
		<g>
			<path d="M43.5,7.87c-0.553,0-1-0.447-1-1V1.006c0-0.553,0.447-1,1-1s1,0.447,1,1V6.87C44.5,7.423,44.053,7.87,43.5,7.87z"/>
		</g>
		<g>
			<path d="M57.5,13.994c-0.553,0-1-0.447-1-1c0-0.552-0.448-1-1-1s-1,0.448-1,1c0,0.553-0.447,1-1,1s-1-0.447-1-1
				c0-1.654,1.346-3,3-3s3,1.346,3,3C58.5,13.547,58.053,13.994,57.5,13.994z"/>
		</g>
		<g>
			<path d="M53.5,47.994c-0.553,0-1-0.447-1-1v-34c0-0.553,0.447-1,1-1s1,0.447,1,1v34C54.5,47.547,54.053,47.994,53.5,47.994z"/>
		</g>
		<g>
			<path d="M57.5,47.994c-0.553,0-1-0.447-1-1v-34c0-0.553,0.447-1,1-1s1,0.447,1,1v34C58.5,47.547,58.053,47.994,57.5,47.994z"/>
		</g>
		<g>
			<path d="M55.501,50.994c-0.323,0-0.641-0.156-0.833-0.445l-2-3c-0.307-0.46-0.183-1.08,0.277-1.387s1.081-0.182,1.387,0.277l2,3
				c0.307,0.46,0.183,1.08-0.277,1.387C55.884,50.939,55.691,50.994,55.501,50.994z"/>
		</g>
		<g>
			<path d="M55.499,50.994c-0.19,0-0.383-0.055-0.554-0.168c-0.46-0.307-0.584-0.927-0.277-1.387l2-3
				c0.306-0.459,0.926-0.584,1.387-0.277c0.46,0.307,0.584,0.927,0.277,1.387l-2,3C56.14,50.838,55.822,50.994,55.499,50.994z"/>
		</g>
		<g>
			<path d="M55.5,51.994c-0.553,0-1-0.447-1-1v-1c0-0.553,0.447-1,1-1s1,0.447,1,1v1C56.5,51.547,56.053,51.994,55.5,51.994z"/>
		</g>
		<g>
			<path d="M57.5,45.994h-4c-0.553,0-1-0.447-1-1s0.447-1,1-1h4c0.553,0,1,0.447,1,1S58.053,45.994,57.5,45.994z"/>
		</g>
		<g>
			<path d="M60.5,16.994c-0.553,0-1-0.447-1-1c0-0.552-0.448-1-1-1c-0.553,0-1-0.447-1-1s0.447-1,1-1c1.654,0,3,1.346,3,3
				C61.5,16.547,61.053,16.994,60.5,16.994z"/>
		</g>
		<g>
			<path d="M60.5,28.994c-0.553,0-1-0.447-1-1v-12c0-0.553,0.447-1,1-1s1,0.447,1,1v12C61.5,28.547,61.053,28.994,60.5,28.994z"/>
		</g>
		<g>
			<path d="M58.5,14.994h-1c-0.553,0-1-0.447-1-1s0.447-1,1-1h1c0.553,0,1,0.447,1,1S59.053,14.994,58.5,14.994z"/>
		</g>
		<g>
			<path d="M57.5,23.994h-4c-0.553,0-1-0.447-1-1s0.447-1,1-1h4c0.553,0,1,0.447,1,1S58.053,23.994,57.5,23.994z"/>
		</g>
		<g>
			<g>
				<path d="M17.5,15.994c-1.654,0-3-1.346-3-3v-3c0-1.654,1.346-3,3-3s3,1.346,3,3v3C20.5,14.648,19.154,15.994,17.5,15.994z
					 M17.5,8.994c-0.551,0-1,0.448-1,1v3c0,0.552,0.449,1,1,1s1-0.448,1-1v-3C18.5,9.442,18.051,8.994,17.5,8.994z"/>
			</g>
			<g>
				<path d="M17.5,27.994c-1.654,0-3-1.346-3-3v-3c0-1.654,1.346-3,3-3s3,1.346,3,3v3C20.5,26.648,19.154,27.994,17.5,27.994z
					 M17.5,20.994c-0.551,0-1,0.448-1,1v3c0,0.552,0.449,1,1,1s1-0.448,1-1v-3C18.5,21.442,18.051,20.994,17.5,20.994z"/>
			</g>
			<g>
				<path d="M17.5,21.994c-0.552,0-1-0.447-1-1v-7c0-0.553,0.448-1,1-1s1,0.447,1,1v7C18.5,21.547,18.052,21.994,17.5,21.994z"/>
			</g>
			<g>
				<path d="M17.5,39.994c-1.654,0-3-1.346-3-3v-3c0-1.654,1.346-3,3-3s3,1.346,3,3v3C20.5,38.648,19.154,39.994,17.5,39.994z
					 M17.5,32.994c-0.551,0-1,0.448-1,1v3c0,0.552,0.449,1,1,1s1-0.448,1-1v-3C18.5,33.442,18.051,32.994,17.5,32.994z"/>
			</g>
			<g>
				<path d="M17.5,33.994c-0.552,0-1-0.447-1-1v-7c0-0.553,0.448-1,1-1s1,0.447,1,1v7C18.5,33.547,18.052,33.994,17.5,33.994z"/>
			</g>
			<g>
				<path d="M17.5,51.994c-1.654,0-3-1.346-3-3v-3c0-1.654,1.346-3,3-3s3,1.346,3,3v3C20.5,50.648,19.154,51.994,17.5,51.994z
					 M17.5,44.994c-0.551,0-1,0.448-1,1v3c0,0.552,0.449,1,1,1s1-0.448,1-1v-3C18.5,45.442,18.051,44.994,17.5,44.994z"/>
			</g>
			<g>
				<path d="M17.5,45.994c-0.552,0-1-0.447-1-1v-7c0-0.553,0.448-1,1-1s1,0.447,1,1v7C18.5,45.547,18.052,45.994,17.5,45.994z"/>
			</g>
		</g>
		<g>
			<path d="M43.5,18.994h-18c-0.552,0-1-0.447-1-1s0.448-1,1-1h18c0.553,0,1,0.447,1,1S44.053,18.994,43.5,18.994z"/>
		</g>
		<g>
			<path d="M43.5,24.994h-18c-0.552,0-1-0.447-1-1s0.448-1,1-1h18c0.553,0,1,0.447,1,1S44.053,24.994,43.5,24.994z"/>
		</g>
		<g>
			<path d="M43.5,30.994h-18c-0.552,0-1-0.447-1-1s0.448-1,1-1h18c0.553,0,1,0.447,1,1S44.053,30.994,43.5,30.994z"/>
		</g>
		<g>
			<path d="M43.5,36.994h-18c-0.552,0-1-0.447-1-1s0.448-1,1-1h18c0.553,0,1,0.447,1,1S44.053,36.994,43.5,36.994z"/>
		</g>
		<g>
			<path d="M43.5,42.994h-18c-0.552,0-1-0.447-1-1s0.448-1,1-1h18c0.553,0,1,0.447,1,1S44.053,42.994,43.5,42.994z"/>
		</g>
	</g>
</g>
<g id="_x32_0_lock_x2C__safe_x2C__protection_x2C__block_x2C__chain_x2C__cryptocurrency_x2C__program">
</g>
<g id="_x31_9_server_x2C__data_x2C__bitcoin_x2C__coin_x2C__block_x2C__chain_x2C__cryptocurrency">
</g>
<g id="_x31_8_key_x2C__bitcoin_x2C__coin_x2C__block_x2C__chain_x2C__cryptocurrency">
</g>
<g id="_x31_7_pool_x2C__network_x2C__bitcoin_x2C__coin_x2C__block_x2C__chain_x2C__cryptocurrency">
</g>
<g id="_x31_6_mining_x2C__shovel_x2C__mine_x2C__coin_x2C__block_x2C__chain_x2C__cryptocurrency">
</g>
<g id="_x31_5_purse_x2C__bitcoin_x2C__coin_x2C__block_x2C__chain_x2C__cryptocurrency">
</g>
<g id="_x31_4_safe_x2C__protection_x2C__block_x2C__chain_x2C__cryptocurrency_x2C__program">
</g>
<g id="_x31_3_mining_x2C__funnel_x2C__satoshi_x2C__bitcoin_x2C__coin_x2C__cryptocurrency">
</g>
<g id="_x31_2_chart_x2C__bitcoin_x2C__coin_x2C__block_x2C__chain_x2C__cryptocurrency">
</g>
<g id="_x31_1_computer_x2C__monitor_x2C__bitcoin_x2C__coin_x2C__block_x2C__chain_x2C__cryptocurrency">
</g>
<g id="_x31_0_mining_x2C__pickaxe_x2C__stone_x2C__mine_x2C___bitcoin_x2C__coin_x2C__cryptocurrency">
</g>
<g id="_x39__miner_x2C__mining_x2C__computer_x2C__pickaxe_x2C__program_x2C__cryptocurrency">
</g>
<g id="_x38__video_card_x2C__mining_x2C__bitcoin_x2C__coin_x2C__block_x2C__chain_x2C__cryptocurrency">
</g>
<g id="_x37__exchanger_x2C__site_x2C__bitcoin_x2C__coin_x2C__block_x2C__chain_x2C__cryptocurrency">
</g>
<g id="_x36__shop_x2C__product_x2C__bitcoin_x2C__coin_x2C__block_x2C__chain_x2C__cryptocurrency">
</g>
<g id="_x35__bitcoin_x2C__coin_x2C__exchange_x2C__block_x2C__chain_x2C__cryptocurrency_x2C__product">
</g>
<g id="_x34__bitcoin_x2C__coin_x2C__exchange_x2C__block_x2C__chain_x2C__cryptocurrency">
</g>
<g id="_x33__bitcoin_x2C__coin_x2C__exchange_x2C__block_x2C__chain_x2C__cryptocurrency">
</g>
<g id="_x32__brain_x2C__smart_x2C__coin_x2C__block_x2C__chain_x2C__cryptocurrency">
</g>
<g id="_x31__bitcoin_x2C__coin_x2C__block_x2C__chain_x2C__cryptocurrency">
</g>
</svg>
