<svg xmlns="http://www.w3.org/2000/svg" viewBox="0 0 64 64"><path d="M14 27.5c-6.065 0-11-4.935-11-11s4.935-11 11-11 11 4.935 11 11-4.935 11-11 11zm0-20c-4.963 0-9 4.037-9 9s4.037 9 9 9 9-4.037 9-9-4.037-9-9-9z"/><path d="M14 31.499c-6.065 0-11-4.935-11-11a1 1 0 112 0c0 4.963 4.037 9 9 9s9-4.037 9-9a1 1 0 112 0c0 6.065-4.935 11-11 11z"/><path d="M24 21.499a1 1 0 01-1-1V16.5a1 1 0 112 0v3.999a1 1 0 01-1 1zM12 21.5a1 1 0 01-1-1v-9a1 1 0 112 0v9a1 1 0 01-1 1zM15 16.499a1 1 0 110-2 1 1 0 000-1.999 1 1 0 110-2c1.654 0 3 1.346 3 2.999 0 1.654-1.346 3-3 3z"/><path d="M15.499 21.5a1 1 0 110-2c.827 0 1.501-.673 1.501-1.5 0-.828-.674-1.502-1.501-1.502a1 1 0 110-2A3.505 3.505 0 0119 18c0 1.93-1.57 3.5-3.501 3.5zM15 12.5h-4a1 1 0 110-2h4a1 1 0 110 2z"/><path d="M15.499 21.5H11a1 1 0 110-2h4.499a1 1 0 110 2zM12 16.5a1 1 0 01-.001-2l3.499-.002h.001a1 1 0 01.001 2L12 16.5zM14 12.5a1 1 0 01-1-1v-1.001a1 1 0 112 0V11.5a1 1 0 01-1 1z"/><path d="M14 22.5a1 1 0 01-1-1v-1a1 1 0 112 0v1a1 1 0 01-1 1zM14 31.499a1 1 0 01-1-1V26.5a1 1 0 112 0v3.999a1 1 0 01-1 1zM19 30.16a1 1 0 01-1-1v-3.998a1 1 0 112 0v3.998a1 1 0 01-1 1zM9 30.16a1 1 0 01-1-1v-3.998a1 1 0 112 0v3.998a1 1 0 01-1 1zM4 21.499a1 1 0 01-1-1V16.5a1 1 0 112 0v3.999a1 1 0 01-1 1zM33 50.499a1 1 0 01-1-1c0-3.859 3.141-6.999 7-6.999a1 1 0 110 2c-2.757 0-5 2.242-5 4.999a1 1 0 01-1 1z"/><path d="M43 44.501l-4-.001a1 1 0 110-2l4 .001a1 1 0 110 2zM33 53.501a1 1 0 01-1-1v-2.715a1 1 0 112 0v2.715a1 1 0 01-1 1zM63 50.499a1 1 0 01-1-1 5.005 5.005 0 00-5-4.999 1 1 0 110-2c3.859 0 7 3.14 7 6.999a1 1 0 01-1 1z"/><path d="M53 44.501a1 1 0 110-2l4-.001a1 1 0 110 2l-4 .001zM63 56.5a1 1 0 01-1-1v-5.714a1 1 0 112 0V55.5a1 1 0 01-1 1zM61 58.5H37a1 1 0 110-2h24a1 1 0 110 2zM43 44.501a1 1 0 01-1-1V40.3a1 1 0 112 0v3.201a1 1 0 01-1 1z"/><path d="M53 44.5a1 1 0 01-1-1v-3.2a1 1 0 112 0v3.2a1 1 0 01-1 1z"/><path d="M48 42.5c-6.617 0-12-5.383-12-12a1 1 0 112 0c0 5.514 4.486 10 10 10s10-4.486 10-10a1 1 0 112 0c0 6.617-5.383 12-12 12z"/><path d="M37 31.501a1 1 0 01-1-1V21.5a1 1 0 112 0v9.001a1 1 0 01-1 1zM59 31.502a1 1 0 01-1-1V21.5a1 1 0 112 0v9.002a1 1 0 01-1 1z"/><path d="M59 22.5a1 1 0 01-1-1c0-2.206-1.794-4-4-4a1 1 0 110-2c3.309 0 6 2.691 6 6a1 1 0 01-1 1z"/><path d="M54 17.5a1 1 0 01-1-1v-4a1 1 0 112 0v4a1 1 0 01-1 1z"/><path d="M54 13.5h-8a1 1 0 110-2h8a1 1 0 110 2z"/><path d="M37 22.5a1 1 0 01-1-1c0-5.514 4.486-9.999 10-9.999a1 1 0 110 2c-4.411 0-8 3.588-8 7.999a1 1 0 01-1 1zM59 27.5a.997.997 0 01-.707-.293l-3-3a.999.999 0 111.414-1.414l3 3A.999.999 0 0159 27.5z"/><path d="M48 26.5c-4.485 0-8.313-2.033-8.474-2.119a1 1 0 01.947-1.762c.035.019 3.559 1.881 7.527 1.881 3.987 0 7.491-1.861 7.526-1.881a1 1 0 01.947 1.761c-.16.087-3.988 2.12-8.473 2.12z"/><path d="M37 27.5a.999.999 0 01-.707-1.707l3-3a.999.999 0 111.414 1.414l-3 3A.997.997 0 0137 27.5zM45 46.5a.997.997 0 01-.707-.293l-2-1.999a.999.999 0 111.414-1.414l2 1.999A.999.999 0 0145 46.5z"/><path d="M45 46.5a1 1 0 01-.316-1.949l3-1a1 1 0 11.633 1.897l-3 1A1.011 1.011 0 0145 46.5z"/><g><path d="M51 46.5a.999.999 0 01-.707-1.707l2-1.999a.999.999 0 111.414 1.414l-2 1.999A.997.997 0 0151 46.5z"/></g><g><path d="M51 46.5a1 1 0 01-.316-.052l-3-1a1 1 0 11.633-1.897l3 1A1 1 0 0151 46.5z"/></g><g><path d="M61 58.5a1 1 0 110-2 1 1 0 001-1 1 1 0 112 0c0 1.654-1.346 3-3 3z"/></g><g><path d="M1 38.5a1 1 0 01-1-1c0-1.654 1.346-3 3-3a1 1 0 110 2 1 1 0 00-1 1 1 1 0 01-1 1z"/></g><g><path d="M3 58.5c-1.654 0-3-1.346-3-3a1 1 0 112 0 1 1 0 001 1 1 1 0 110 2z"/></g><g><path d="M1 56.5a1 1 0 01-1-1v-18a1 1 0 112 0v18a1 1 0 01-1 1z"/></g><g><path d="M27 38.5a1 1 0 01-1-1 1 1 0 00-1-1 1 1 0 110-2c1.654 0 3 1.346 3 3a1 1 0 01-1 1z"/></g><g><path d="M25 58.5a1 1 0 110-2 1 1 0 001-1 1 1 0 112 0c0 1.654-1.346 3-3 3z"/></g><g><path d="M37 58.5a1 1 0 110-2 1 1 0 001-1 1 1 0 112 0c0 1.654-1.346 3-3 3z"/></g><g><path d="M27 56.5a1 1 0 01-1-1v-18a1 1 0 112 0v18a1 1 0 01-1 1z"/></g><g><path d="M25 58.5H3a1 1 0 110-2h22a1 1 0 110 2z"/></g><g><path d="M25 36.5H3a1 1 0 110-2h22a1 1 0 110 2z"/></g><g><path d="M39 56.5a1 1 0 01-1-1v-3a1 1 0 112 0v3a1 1 0 01-1 1z"/></g><g><path d="M39 53.5H27a1 1 0 110-2h12a1 1 0 110 2z"/></g><g><path d="M37 58.5H25a1 1 0 110-2h12a1 1 0 110 2z"/></g><g><path d="M14 49.5c-1.654 0-3-1.346-3-3s1.346-3 3-3 3 1.346 3 3-1.346 3-3 3zm0-4a1 1 0 100 2 1 1 0 000-2z"/></g></svg>