<svg xmlns="http://www.w3.org/2000/svg" viewBox="0 0 64 64"><path d="M32.035 41.004c-6.617 0-12-5.383-12-12s5.383-12 12-12 12 5.383 12 12-5.383 12-12 12zm0-22c-5.514 0-10 4.486-10 10s4.486 10 10 10 10-4.486 10-10-4.486-10-10-10z"/><path d="M32.035 45.004c-6.617 0-12-5.383-12-12a1 1 0 112 0c0 5.514 4.486 10 10 10s10-4.486 10-10a1 1 0 112 0c0 6.617-5.383 12-12 12z"/><path d="M43.035 34.004a1 1 0 01-1-1v-4a1 1 0 112 0v4a1 1 0 01-1 1zM21.035 34.004a1 1 0 01-1-1v-4a1 1 0 112 0v4a1 1 0 01-1 1zM29.035 35.004a1 1 0 01-1-1v-10a1 1 0 112 0v10a1 1 0 01-1 1zM33.036 29.002a1 1 0 110-2 1 1 0 000-1.998 1 1 0 110-2 3.003 3.003 0 012.999 3 3.002 3.002 0 01-2.999 2.998z"/><path d="M33.034 35.004a1 1 0 110-2 2.002 2.002 0 000-4.002 1 1 0 110-2 4.006 4.006 0 014.001 4.002c0 2.206-1.795 4-4.001 4zM33.036 25.004h-5.001a1 1 0 110-2h5.001a1 1 0 110 2z"/><path d="M33.034 35.004h-4.999a1 1 0 110-2h4.999a1 1 0 110 2zM33.036 29.002h-4.001a1 1 0 110-2h4.001a1 1 0 110 2zM31.035 25.004a1 1 0 01-1-1v-1a1 1 0 112 0v1a1 1 0 01-1 1z"/><path d="M31.035 36.004a1 1 0 01-1-1v-1a1 1 0 112 0v1a1 1 0 01-1 1zM27.035 43.805a1 1 0 01-1-1v-4a1 1 0 112 0v4a1 1 0 01-1 1zM37.035 43.805a1 1 0 01-1-1v-4a1 1 0 112 0v4a1 1 0 01-1 1zM32.035 45.004a1 1 0 01-1-1v-4a1 1 0 112 0v4a1 1 0 01-1 1zM62 16.004H44c-1.103 0-2-.897-2-2v-12c0-1.103.897-2 2-2h18c1.103 0 2 .897 2 2v12c0 1.102-.897 2-2 2zm0-2v1-1zm-18-12v12h17.997l.003-12H44z"/><path d="M50.001 19.998a1 1 0 01-.971-1.242l1-4a1 1 0 011.94.484l-1 4a1 1 0 01-.969.758zM55.999 19.998a1 1 0 01-.969-.758l-1-4a.998.998 0 01.728-1.212.997.997 0 011.212.728l1 4a.998.998 0 01-.971 1.242z"/><path d="M57 19.998h-8a1 1 0 110-2h8a1 1 0 110 2zM54 7.004h-6a1 1 0 110-2h6a1 1 0 110 2zM58 7.004h-1a1 1 0 110-2h1a1 1 0 110 2zM52 11.004h-4a1 1 0 110-2h4a1 1 0 110 2zM58 11.004h-3a1 1 0 110-2h3a1 1 0 110 2z"/><g><path d="M62 60.002H44c-1.103 0-2-.897-2-2v-12c0-1.103.897-2 2-2h18c1.103 0 2 .897 2 2v12c0 1.102-.897 2-2 2zm0-2v1-1zm-18-12v12h17.996l.004-12H44z"/><path d="M50.001 63.996a1 1 0 01-.971-1.242l1-4a1 1 0 011.94.484l-1 4a1 1 0 01-.969.758zM55.999 63.996a1 1 0 01-.969-.758l-1-4a.998.998 0 01.728-1.212.997.997 0 011.212.728l1 4a.998.998 0 01-.971 1.242z"/><path d="M57 63.996h-8a1 1 0 110-2h8a1 1 0 110 2zM49 51.002h-1a1 1 0 110-2h1a1 1 0 110 2zM58 51.002h-6a1 1 0 110-2h6a1 1 0 110 2zM51 55.002h-3a1 1 0 110-2h3a1 1 0 110 2zM58 55.002h-4a1 1 0 110-2h4a1 1 0 110 2z"/></g><g><path d="M20 16.004H2c-1.103 0-2-.897-2-2v-12c0-1.103.897-2 2-2h18c1.103 0 2 .897 2 2v12c0 1.102-.897 2-2 2zm0-2v1-1zm-18-12v12h17.997l.003-12H2z"/><path d="M8.001 19.998a1 1 0 01-.971-1.242l1-4a1 1 0 011.94.484l-1 4a1 1 0 01-.969.758zM13.999 19.998a1 1 0 01-.969-.758l-1-4a.998.998 0 01.728-1.212.998.998 0 011.212.728l1 4a.998.998 0 01-.971 1.242z"/><path d="M15 19.998H7a1 1 0 110-2h8a1 1 0 110 2zM10 7.004H6a1 1 0 110-2h4a1 1 0 110 2zM16 7.004h-3a1 1 0 110-2h3a1 1 0 110 2zM12 11.004H6a1 1 0 110-2h6a1 1 0 110 2zM16 11.004h-1a1 1 0 110-2h1a1 1 0 110 2z"/></g><g><path d="M20 60.002H2c-1.103 0-2-.897-2-2v-12c0-1.103.897-2 2-2h18c1.103 0 2 .897 2 2v12c0 1.102-.897 2-2 2zm0-2v1-1zm-18-12v12h17.996l.004-12H2z"/><path d="M8.001 63.996a1 1 0 01-.971-1.242l1-4a1 1 0 011.94.484l-1 4a1 1 0 01-.969.758zM13.999 63.996a1 1 0 01-.969-.758l-1-4a.998.998 0 01.728-1.212.998.998 0 011.212.728l1 4a.998.998 0 01-.971 1.242z"/><path d="M15 63.996H7a1 1 0 110-2h8a1 1 0 110 2zM8 51.002H6a1 1 0 110-2h2a1 1 0 110 2zM16 51.002h-5a1 1 0 110-2h5a1 1 0 110 2zM11 55.002H6a1 1 0 110-2h5a1 1 0 110 2zM16 55.002h-2a1 1 0 110-2h2a1 1 0 110 2z"/></g><g><path d="M39 52.998H25a1 1 0 110-2h14a1 1 0 110 2z"/></g><g><path d="M39 8.998H25a1 1 0 110-2h14a1 1 0 110 2z"/></g><g><path d="M53 41.998a1 1 0 01-1-1V23.004a1 1 0 112 0v17.994a1 1 0 01-1 1z"/></g><g><path d="M11 41.998a1 1 0 01-1-1V23.004a1 1 0 112 0v17.994a1 1 0 01-1 1z"/></g></svg>