<svg xmlns="http://www.w3.org/2000/svg" x="0" y="0" xml:space="preserve" viewBox="0 0 64 64"><path d="M3 57.496c-1.654 0-3-1.346-3-3a1 1 0 1 1 2 0 1 1 0 0 0 1 1 1 1 0 1 1 0 2zM5 17.492a1 1 0 0 1-1-1c0-1.654 1.346-3 3-3a1 1 0 1 1 0 2 1 1 0 0 0-1 1 1 1 0 0 1-1 1z"/><path d="M1 55.496a1 1 0 0 1-1-1v-3a1 1 0 1 1 2 0v3a1 1 0 0 1-1 1zM61 57.496a1 1 0 1 1 0-2 1 1 0 0 0 1-1 1 1 0 1 1 2 0c0 1.654-1.346 3-3 3z"/><path d="M63 55.496a1 1 0 0 1-1-1v-3a1 1 0 1 1 2 0v3a1 1 0 0 1-1 1z"/><path d="M63 52.496H1a1 1 0 1 1 0-2h62a1 1 0 1 1 0 2zM61 57.496H3a1 1 0 1 1 0-2h58a1 1 0 1 1 0 2z"/><path d="M5 52.492a1 1 0 0 1-1-1v-35a1 1 0 1 1 2 0v35a1 1 0 0 1-1 1zM59 17.492a1 1 0 0 1-1-1 1 1 0 0 0-1-1 1 1 0 1 1 0-2c1.654 0 3 1.346 3 3a1 1 0 0 1-1 1z"/><path d="M59 52.492a1 1 0 0 1-1-1v-35a1 1 0 1 1 2 0v35a1 1 0 0 1-1 1zM23 15.492H7a1 1 0 1 1 0-2h16a1 1 0 1 1 0 2zM57 15.492H41a1 1 0 1 1 0-2h16a1 1 0 1 1 0 2zM32.023 19.492c-2.757 0-5-2.243-5-5s2.243-5 5-5 5 2.243 5 5-2.243 5-5 5zm0-8c-1.654 0-3 1.346-3 3s1.346 3 3 3 3-1.346 3-3-1.345-3-3-3z"/><path d="M34 10.504a1 1 0 0 1-1-1 1 1 0 0 0-2 0 1 1 0 1 1-2 0c0-1.654 1.346-3 3-3s3 1.346 3 3a1 1 0 0 1-1 1zM28.023 15.492H26a1 1 0 1 1 0-2h2.023a1 1 0 1 1 0 2zM28.559 13.492a.996.996 0 0 1-.539-.158l-1.56-1a1 1 0 0 1 1.08-1.684l1.56 1a1 1 0 0 1-.541 1.842z"/><path d="M27.001 18.492a1 1 0 0 1-.541-1.842l1.56-1a1 1 0 0 1 1.08 1.684l-1.56 1a.996.996 0 0 1-.539.158zM38.023 15.492H36a1 1 0 1 1 0-2h2.023a1 1 0 1 1 0 2zM35.465 13.492a1 1 0 0 1-.541-1.842l1.56-1a1 1 0 1 1 1.08 1.684l-1.56 1a.998.998 0 0 1-.539.158z"/><path d="M37.022 18.492a.996.996 0 0 1-.539-.158l-1.56-1a1 1 0 0 1 1.08-1.684l1.56 1a1 1 0 0 1-.541 1.842zM30 12.043a1 1 0 0 1-1-1V9.504a1 1 0 1 1 2 0v1.539a1 1 0 0 1-1 1zM34 12.016a1 1 0 0 1-1-1V9.504a1 1 0 1 1 2 0v1.512a1 1 0 0 1-1 1zM32.023 23.492a1 1 0 0 1-1-1v-4a1 1 0 1 1 2 0v4a1 1 0 0 1-1 1z"/><path d="M32.023 47.492c-7.168 0-13-5.832-13-13s5.832-13 13-13 13 5.832 13 13-5.832 13-13 13zm0-24c-6.065 0-11 4.935-11 11s4.935 11 11 11 11-4.935 11-11-4.934-11-11-11z"/><path d="M36.223 41.813a.997.997 0 0 1-.707-.293l-6.717-6.717a.999.999 0 1 1 1.414-1.414l6.717 6.717a.999.999 0 0 1-.707 1.707zM38.345 39.691a.997.997 0 0 1-.707-.293l-6.718-6.717a.999.999 0 1 1 1.414-1.414l6.718 6.717a.999.999 0 0 1-.707 1.707z"/><path d="M37.284 42.251a2.496 2.496 0 0 1-1.769-.731.999.999 0 1 1 1.414-1.414.502.502 0 0 0 .708-.708.999.999 0 1 1 1.416-1.412c.471.472.73 1.1.73 1.768s-.26 1.296-.732 1.768a2.498 2.498 0 0 1-1.767.729zM25.263 39.338a.999.999 0 0 1-.707-1.707l10.606-10.605a.999.999 0 1 1 1.414 1.414L25.97 39.045a.999.999 0 0 1-.707.293z"/><path d="M25.264 39.338a1 1 0 0 1-.992-1.142c.031-.216.785-5.31 3.466-7.989 2.68-2.68 7.773-3.434 7.989-3.465a1 1 0 0 1 .284 1.981c-.047.006-4.654.693-6.859 2.898-2.206 2.205-2.894 6.813-2.899 6.859a1 1 0 0 1-.989.858z"/></svg>