<?xml version="1.0" encoding="utf-8"?>
<!-- Generator: Adobe Illustrator 16.0.0, SVG Export Plug-In . SVG Version: 6.00 Build 0)  -->
<!DOCTYPE svg PUBLIC "-//W3C//DTD SVG 1.1//EN" "http://www.w3.org/Graphics/SVG/1.1/DTD/svg11.dtd">
<svg version="1.1" xmlns="http://www.w3.org/2000/svg" xmlns:xlink="http://www.w3.org/1999/xlink" x="0px" y="0px" width="64px"
	 height="64px" viewBox="0 0 64 64" enable-background="new 0 0 64 64" xml:space="preserve">
<g id="_x35_0_code_x2C__programming_x2C__program_x2C__bitcoin_x2C__block_x2C__chain_x2C__cryptocurrency">
</g>
<g id="_x34_9_balloon_x2C__takeoff_x2C__bitcoin_x2C__coin_x2C__block_x2C__chain_x2C__cryptocurrency">
</g>
<g id="_x34_8_video_card_x2C__mining_x2C__farm_x2C__computer_x2C__block_x2C__chain_x2C__cryptocurrency">
</g>
<g id="_x34_7_money_box_x2C__saving_x2C__bitcoin_x2C__coin_x2C__block_x2C__chain_x2C__cryptocurrency">
</g>
<g id="_x34_6_portfolio_x2C__finance_x2C__bank_note_x2C__bitcoin_x2C__coin_x2C__cryptocurrency">
</g>
<g id="_x34_5_tap_x2C__water_x2C__bitcoin_x2C__coin_x2C__block_x2C__chain_x2C__cryptocurrency">
</g>
<g id="_x34_4_phone_x2C__bitcoin_x2C__coin_x2C__block_x2C__chain_x2C__cryptocurrency">
</g>
<g id="_x34_3_rocket_x2C__sun_x2C__bitcoin_x2C__coin_x2C__block_x2C__chain_x2C__cryptocurrency">
</g>
<g id="_x34_2_transfer_x2C__network_x2C__bitcoin_x2C__coin_x2C__block_x2C__chain_x2C__cryptocurrency">
</g>
<g id="_x34_1_scales_x2C__comparison_x2C__bitcoin_x2C__coin_x2C__block_x2C__chain_x2C__cryptocurrency">
</g>
<g id="_x34_0_calculator_x2C__calculating_x2C__bitcoin_x2C__coin_x2C__block_x2C__chain_x2C__cryptocurrency">
</g>
<g id="_x33_9_start-up_x2C__plant_x2C__hand_x2C__bitcoin_x2C__coin_x2C__cryptocurrency">
</g>
<g id="_x33_8_idea_x2C__bulb_x2C__bitcoin_x2C__coin_x2C__block_x2C__chain_x2C__cryptocurrency">
</g>
<g id="_x33_7_users_x2C__user_x2C__co-founder_x2C__bitcoin_x2C__coin_x2C__cryptocurrency">
</g>
<g id="_x33_6_safe_x2C__protection_x2C__bitcoin_x2C__coin_x2C__block_x2C__chain_x2C__cryptocurrency">
</g>
<g id="_x33_5_flash_drive_x2C__key_x2C__block_x2C__chain_x2C__cryptocurrency">
</g>
<g id="_x33_4_cloud_x2C__mining_x2C__bitcoin_x2C__coin_x2C__block_x2C__chain_x2C__cryptocurrency">
	<g>
		<g>
			<g>
				<g>
					<path d="M33.5,39.509c-0.553,0-1-0.447-1-1s0.447-1,1-1c0.275,0,0.5-0.225,0.5-0.5s-0.225-0.5-0.5-0.5c-0.553,0-1-0.447-1-1
						s0.447-1,1-1c1.379,0,2.5,1.121,2.5,2.5S34.879,39.509,33.5,39.509z"/>
				</g>
				<g>
					<path d="M34,43.509c-0.553,0-1-0.447-1-1s0.447-1,1-1c0.552,0,1-0.448,1-1s-0.448-1-1-1c-0.553,0-1-0.447-1-1s0.447-1,1-1
						c1.654,0,3,1.346,3,3S35.654,43.509,34,43.509z"/>
				</g>
				<g>
					<path d="M34,39.509h-3c-0.553,0-1-0.447-1-1s0.447-1,1-1h3c0.553,0,1,0.447,1,1S34.553,39.509,34,39.509z"/>
				</g>
				<g>
					<path d="M34,43.509h-4c-0.553,0-1-0.447-1-1s0.447-1,1-1h4c0.553,0,1,0.447,1,1S34.553,43.509,34,43.509z"/>
				</g>
				<g>
					<path d="M33.5,36.509H30c-0.553,0-1-0.447-1-1s0.447-1,1-1h3.5c0.553,0,1,0.447,1,1S34.053,36.509,33.5,36.509z"/>
				</g>
				<g>
					<path d="M31,43.509c-0.553,0-1-0.447-1-1v-7c0-0.553,0.447-1,1-1s1,0.447,1,1v7C32,43.062,31.553,43.509,31,43.509z"/>
				</g>
				<g>
					<path d="M32,36.509c-0.553,0-1-0.447-1-1v-1c0-0.553,0.447-1,1-1s1,0.447,1,1v1C33,36.062,32.553,36.509,32,36.509z"/>
				</g>
				<g>
					<path d="M32,44.509c-0.553,0-1-0.447-1-1v-1c0-0.553,0.447-1,1-1s1,0.447,1,1v1C33,44.062,32.553,44.509,32,44.509z"/>
				</g>
			</g>
			<g>
				<path d="M32.5,48.509c-5.238,0-9.5-4.262-9.5-9.5s4.262-9.5,9.5-9.5s9.5,4.262,9.5,9.5S37.738,48.509,32.5,48.509z M32.5,31.509
					c-4.136,0-7.5,3.364-7.5,7.5s3.364,7.5,7.5,7.5s7.5-3.364,7.5-7.5S36.636,31.509,32.5,31.509z"/>
			</g>
			<g>
				<path d="M32.5,52.509c-5.238,0-9.5-4.262-9.5-9.5c0-0.553,0.447-1,1-1s1,0.447,1,1c0,4.136,3.364,7.5,7.5,7.5s7.5-3.364,7.5-7.5
					c0-0.553,0.447-1,1-1s1,0.447,1,1C42,48.247,37.738,52.509,32.5,52.509z"/>
			</g>
			<g>
				<path d="M24,44.009c-0.553,0-1-0.447-1-1v-4c0-0.553,0.447-1,1-1s1,0.447,1,1v4C25,43.562,24.553,44.009,24,44.009z"/>
			</g>
			<g>
				<path d="M41,44.009c-0.553,0-1-0.447-1-1v-4c0-0.553,0.447-1,1-1s1,0.447,1,1v4C42,43.562,41.553,44.009,41,44.009z"/>
			</g>
			<g>
				<path d="M36,51.756c-0.553,0-1-0.447-1-1v-4c0-0.553,0.447-1,1-1s1,0.447,1,1v4C37,51.309,36.553,51.756,36,51.756z"/>
			</g>
			<g>
				<path d="M29,51.756c-0.553,0-1-0.447-1-1v-3.999c0-0.553,0.447-1,1-1s1,0.447,1,1v3.999C30,51.309,29.553,51.756,29,51.756z"/>
			</g>
		</g>
		<g>
			<g>
				<path d="M50.5,58.491c-3.032,0-5.5-2.468-5.5-5.5s2.468-5.5,5.5-5.5s5.5,2.468,5.5,5.5S53.532,58.491,50.5,58.491z M50.5,49.491
					c-1.93,0-3.5,1.57-3.5,3.5s1.57,3.5,3.5,3.5s3.5-1.57,3.5-3.5S52.43,49.491,50.5,49.491z"/>
			</g>
			<g>
				<path d="M50.499,61.491c-3.032,0-5.499-2.467-5.499-5.499c0-0.553,0.447-1,1-1s1,0.447,1,1c0,1.93,1.569,3.499,3.499,3.499
					s3.499-1.569,3.499-3.499c0-0.553,0.447-1,1-1s1,0.447,1,1C55.998,59.024,53.531,61.491,50.499,61.491z"/>
			</g>
			<g>
				<path d="M46,56.992c-0.553,0-1-0.447-1-1v-3.001c0-0.553,0.447-1,1-1s1,0.447,1,1v3.001C47,56.545,46.553,56.992,46,56.992z"/>
			</g>
			<g>
				<path d="M55,56.992c-0.553,0-1-0.447-1-1v-2.001c0-0.553,0.447-1,1-1s1,0.447,1,1v2.001C56,56.545,55.553,56.992,55,56.992z"/>
			</g>
		</g>
		<g>
			<g>
				<path d="M13.5,53.491c-2.481,0-4.5-2.019-4.5-4.5s2.019-4.5,4.5-4.5s4.5,2.019,4.5,4.5S15.981,53.491,13.5,53.491z M13.5,46.491
					c-1.379,0-2.5,1.121-2.5,2.5s1.121,2.5,2.5,2.5s2.5-1.121,2.5-2.5S14.879,46.491,13.5,46.491z"/>
			</g>
			<g>
				<path d="M13.5,56.491c-2.481,0-4.5-2.019-4.5-4.5c0-0.553,0.447-1,1-1s1,0.447,1,1c0,1.379,1.121,2.5,2.5,2.5s2.5-1.121,2.5-2.5
					c0-0.553,0.447-1,1-1s1,0.447,1,1C18,54.473,15.981,56.491,13.5,56.491z"/>
			</g>
			<g>
				<path d="M10,52.991c-0.553,0-1-0.447-1-1v-3c0-0.553,0.447-1,1-1s1,0.447,1,1v3C11,52.544,10.553,52.991,10,52.991z"/>
			</g>
			<g>
				<path d="M17,52.991c-0.553,0-1-0.447-1-1v-3c0-0.553,0.447-1,1-1s1,0.447,1,1v3C18,52.544,17.553,52.991,17,52.991z"/>
			</g>
		</g>
		<g>
			<path d="M28.5,63.491c-1.93,0-3.5-1.57-3.5-3.5s1.57-3.5,3.5-3.5s3.5,1.57,3.5,3.5S30.43,63.491,28.5,63.491z M28.5,58.491
				c-0.827,0-1.5,0.673-1.5,1.5s0.673,1.5,1.5,1.5s1.5-0.673,1.5-1.5S29.327,58.491,28.5,58.491z"/>
		</g>
		<g>
			<path d="M12,41.509c-6.617,0-12-5.383-12-12s5.383-12,12-12c0.553,0,1,0.447,1,1s-0.447,1-1,1c-5.514,0-10,4.486-10,10
				s4.486,10,10,10c0.553,0,1,0.447,1,1S12.553,41.509,12,41.509z"/>
		</g>
		<g>
			<path d="M49,41.509c-0.553,0-1-0.447-1-1s0.447-1,1-1c7.168,0,13-5.832,13-13c0-7.052-5.739-12.878-12.794-12.989
				c-0.553-0.009-0.993-0.464-0.984-1.016s0.463-0.986,1.016-0.984C57.378,11.647,64,18.372,64,26.509
				C64,34.78,57.271,41.509,49,41.509z"/>
		</g>
		<g>
			<path d="M24.135,41.509H12c-0.553,0-1-0.447-1-1s0.447-1,1-1h12.135c0.553,0,1,0.447,1,1S24.688,41.509,24.135,41.509z"/>
		</g>
		<g>
			<path d="M49,41.509h-8c-0.553,0-1-0.447-1-1s0.447-1,1-1h8c0.553,0,1,0.447,1,1S49.553,41.509,49,41.509z"/>
		</g>
		<g>
			<path d="M51,21.509c-0.553,0-1-0.447-1-1c0-1.285-0.136-2.566-0.403-3.807C47.827,8.478,40.427,2.509,32,2.509
				c-9.925,0-18,8.075-18,18c0,0.553-0.447,1-1,1s-1-0.447-1-1c0-11.028,8.972-20,20-20c9.362,0,17.585,6.633,19.552,15.772
				C51.85,17.659,52,19.082,52,20.509C52,21.062,51.553,21.509,51,21.509z"/>
		</g>
		<g>
			<path d="M13.104,19.509H12c-0.553,0-1-0.447-1-1s0.447-1,1-1h1.104c0.553,0,1,0.447,1,1S13.657,19.509,13.104,19.509z"/>
		</g>
	</g>
</g>
<g id="_x33_3_start_up_x2C__plant_x2C__bitcoin_x2C__coin_x2C__block_x2C__chain_x2C__cryptocurrency">
</g>
<g id="_x33_2_planet_x2C__bitcoin_x2C__coin_x2C__block_x2C__chain_x2C__cryptocurrency">
</g>
<g id="_x33_1_payment_x2C__hand_x2C__bitcoin_x2C__coin_x2C__block_x2C__chain_x2C__cryptocurrency">
</g>
<g id="_x33_0_user_x2C__laptop_x2C__bitcoin_x2C__coin_x2C__block_x2C__chain_x2C__cryptocurrency">
</g>
<g id="_x32_9_thief_x2C__bag_x2C__bitcoin_x2C__coin_x2C__block_x2C__chain_x2C__cryptocurrency">
</g>
<g id="_x32_8_code_x2C__programming_x2C__program_x2C__bitcoin_x2C__coin_x2C__cryptocurrency">
</g>
<g id="_x32_7_bitcoin_x2C__coin_x2C__block_x2C__chain_x2C__cryptocurrency">
</g>
<g id="_x32_6_shield_x2C__protection_x2C__bitcoin_x2C__coin_x2C__block_x2C__chain_x2C__cryptocurrency">
</g>
<g id="_x32_5_bug_x2C__laptop_x2C__miner_x2C__program_x2C__block_x2C__chain_x2C__cryptocurrency">
</g>
<g id="_x32_4_computer_x2C__monitor_x2C__bitcoin_x2C__coin_x2C__block_x2C__chain_x2C__cryptocurrency">
</g>
<g id="_x32_3_network_x2C__idea_x2C__bitcoin_x2C__coin_x2C__block_x2C__chain_x2C__cryptocurrency">
</g>
<g id="_x32_2_block_x2C__chain_x2C__cryptocurrency_x2C__technology_x2C__future">
</g>
<g id="_x32_1_smart_contact_x2C__contact_x2C__block_x2C__chain_x2C__cryptocurrency">
</g>
<g id="_x32_0_lock_x2C__safe_x2C__protection_x2C__block_x2C__chain_x2C__cryptocurrency_x2C__program">
</g>
<g id="_x31_9_server_x2C__data_x2C__bitcoin_x2C__coin_x2C__block_x2C__chain_x2C__cryptocurrency">
</g>
<g id="_x31_8_key_x2C__bitcoin_x2C__coin_x2C__block_x2C__chain_x2C__cryptocurrency">
</g>
<g id="_x31_7_pool_x2C__network_x2C__bitcoin_x2C__coin_x2C__block_x2C__chain_x2C__cryptocurrency">
</g>
<g id="_x31_6_mining_x2C__shovel_x2C__mine_x2C__coin_x2C__block_x2C__chain_x2C__cryptocurrency">
</g>
<g id="_x31_5_purse_x2C__bitcoin_x2C__coin_x2C__block_x2C__chain_x2C__cryptocurrency">
</g>
<g id="_x31_4_safe_x2C__protection_x2C__block_x2C__chain_x2C__cryptocurrency_x2C__program">
</g>
<g id="_x31_3_mining_x2C__funnel_x2C__satoshi_x2C__bitcoin_x2C__coin_x2C__cryptocurrency">
</g>
<g id="_x31_2_chart_x2C__bitcoin_x2C__coin_x2C__block_x2C__chain_x2C__cryptocurrency">
</g>
<g id="_x31_1_computer_x2C__monitor_x2C__bitcoin_x2C__coin_x2C__block_x2C__chain_x2C__cryptocurrency">
</g>
<g id="_x31_0_mining_x2C__pickaxe_x2C__stone_x2C__mine_x2C___bitcoin_x2C__coin_x2C__cryptocurrency">
</g>
<g id="_x39__miner_x2C__mining_x2C__computer_x2C__pickaxe_x2C__program_x2C__cryptocurrency">
</g>
<g id="_x38__video_card_x2C__mining_x2C__bitcoin_x2C__coin_x2C__block_x2C__chain_x2C__cryptocurrency">
</g>
<g id="_x37__exchanger_x2C__site_x2C__bitcoin_x2C__coin_x2C__block_x2C__chain_x2C__cryptocurrency">
</g>
<g id="_x36__shop_x2C__product_x2C__bitcoin_x2C__coin_x2C__block_x2C__chain_x2C__cryptocurrency">
</g>
<g id="_x35__bitcoin_x2C__coin_x2C__exchange_x2C__block_x2C__chain_x2C__cryptocurrency_x2C__product">
</g>
<g id="_x34__bitcoin_x2C__coin_x2C__exchange_x2C__block_x2C__chain_x2C__cryptocurrency">
</g>
<g id="_x33__bitcoin_x2C__coin_x2C__exchange_x2C__block_x2C__chain_x2C__cryptocurrency">
</g>
<g id="_x32__brain_x2C__smart_x2C__coin_x2C__block_x2C__chain_x2C__cryptocurrency">
</g>
<g id="_x31__bitcoin_x2C__coin_x2C__block_x2C__chain_x2C__cryptocurrency">
</g>
</svg>
