<svg xmlns="http://www.w3.org/2000/svg" x="0" y="0" xml:space="preserve" viewBox="0 0 64 64"><path d="M55.988 64h-22a1 1 0 0 1-1-1V36a1 1 0 0 1 1-1h22a1 1 0 0 1 1 1v27a1 1 0 0 1-1 1zm-21-2h20V37h-20v25z"/><path d="M62.012 64h-6a1 1 0 0 1-1-1V36a1 1 0 0 1 1-1h6a1 1 0 0 1 1 1v27a1 1 0 0 1-1 1zm-5-2h4V37h-4v25zM49.988 34a1 1 0 0 1-1-1c0-2.206-1.794-4-4-4s-4 1.794-4 4a1 1 0 1 1-2 0c0-3.309 2.691-6 6-6s6 2.691 6 6a1 1 0 0 1-1 1z"/><path d="M39.988 41a1 1 0 0 1-1-1v-7a1 1 0 1 1 2 0v7a1 1 0 0 1-1 1zM49.988 41a1 1 0 0 1-1-1v-7a1 1 0 1 1 2 0v7a1 1 0 0 1-1 1z"/><path d="M55.988 34a1 1 0 0 1-1-1c0-2.206-1.794-4-4-4s-4 1.794-4 4a1 1 0 1 1-2 0c0-3.309 2.691-6 6-6s6 2.691 6 6a1 1 0 0 1-1 1z"/><path d="M45.988 37a1 1 0 0 1-1-1v-3a1 1 0 1 1 2 0v3a1 1 0 0 1-1 1zM55.988 37.063a1 1 0 0 1-1-1V33a1 1 0 1 1 2 0v3.063a1 1 0 0 1-1 1z"/><g><path d="M14.988 28c-7.72 0-14-6.28-14-14s6.28-14 14-14 14 6.28 14 14-6.28 14-14 14zm0-26c-6.617 0-12 5.383-12 12s5.383 12 12 12 12-5.383 12-12-5.383-12-12-12z"/><path d="M14.988 34c-7.72 0-14-6.28-14-14a1 1 0 1 1 2 0c0 6.617 5.383 12 12 12s12-5.383 12-12a1 1 0 1 1 2 0c0 7.72-6.28 14-14 14z"/><path d="M1.988 21a1 1 0 0 1-1-1v-6a1 1 0 1 1 2 0v6a1 1 0 0 1-1 1zM27.988 21a1 1 0 0 1-1-1v-6a1 1 0 1 1 2 0v6a1 1 0 0 1-1 1zM14.988 34a1 1 0 0 1-1-1v-6a1 1 0 1 1 2 0v6a1 1 0 0 1-1 1zM21.988 31.955a1 1 0 0 1-1-1v-6a1 1 0 1 1 2 0v6a1 1 0 0 1-1 1zM7.988 31.955a1 1 0 0 1-1-1v-6a1 1 0 1 1 2 0v6a1 1 0 0 1-1 1z"/></g><g><path d="M28.988 49h-14a1 1 0 1 1 0-2h14a1 1 0 1 1 0 2z"/><path d="M14.988 49a1 1 0 0 1-1-1V38a1 1 0 1 1 2 0v10a1 1 0 0 1-1 1z"/><path d="M11.988 42a.999.999 0 0 1-.707-1.707l3-3a.999.999 0 1 1 1.414 1.414l-3 3a.997.997 0 0 1-.707.293z"/><path d="M17.988 42a.997.997 0 0 1-.707-.293l-3-3a.999.999 0 1 1 1.414-1.414l3 3A.999.999 0 0 1 17.988 42z"/></g><g><path d="M47.988 15h-15a1 1 0 1 1 0-2h15a1 1 0 1 1 0 2z"/><path d="M47.988 24a1 1 0 0 1-1-1v-9a1 1 0 1 1 2 0v9a1 1 0 0 1-1 1z"/><path d="M47.988 24a.999.999 0 0 1-.707-1.707l3-3a.999.999 0 1 1 1.414 1.414l-3 3a.997.997 0 0 1-.707.293z"/><path d="M47.988 24a.997.997 0 0 1-.707-.293l-3-3a.999.999 0 1 1 1.414-1.414l3 3A.999.999 0 0 1 47.988 24z"/></g><g><path d="M11.988 21a1 1 0 0 1-1-1V8a1 1 0 1 1 2 0v12a1 1 0 0 1-1 1zM16.488 21a1 1 0 1 1 0-2c1.379 0 2.5-1.122 2.5-2.5s-1.121-2.5-2.5-2.5a1 1 0 1 1 0-2c2.481 0 4.5 2.019 4.5 4.5s-2.018 4.5-4.5 4.5z"/><path d="M16.488 14a1 1 0 1 1 0-2c.827 0 1.5-.673 1.5-1.5s-.673-1.5-1.5-1.5a1 1 0 1 1 0-2c1.93 0 3.5 1.57 3.5 3.5s-1.57 3.5-3.5 3.5z"/><path d="M16.488 9h-5.5a1 1 0 1 1 0-2h5.5a1 1 0 1 1 0 2zM16.488 14h-4.5a1 1 0 1 1 0-2h4.5a1 1 0 1 1 0 2zM16.488 21h-5.5a1 1 0 1 1 0-2h5.5a1 1 0 1 1 0 2z"/><path d="M14.988 9a1 1 0 0 1-1-1V7a1 1 0 1 1 2 0v1a1 1 0 0 1-1 1zM14.988 22a1 1 0 0 1-1-1v-1a1 1 0 1 1 2 0v1a1 1 0 0 1-1 1z"/></g></svg>