<svg xmlns="http://www.w3.org/2000/svg" x="0" y="0" xml:space="preserve" viewBox="0 0 64 64"><path d="M54 32a1 1 0 1 1 0-2c.275 0 .5-.225.5-.5s-.225-.5-.5-.5a1 1 0 1 1 0-2c1.379 0 2.5 1.121 2.5 2.5S55.379 32 54 32z"/><path d="M54.5 36a1 1 0 1 1 0-2 1 1 0 0 0 0-2 1 1 0 1 1 0-2c1.654 0 3 1.346 3 3s-1.346 3-3 3z"/><path d="M54.5 32h-3a1 1 0 1 1 0-2h3a1 1 0 1 1 0 2zM54.5 36h-4a1 1 0 1 1 0-2h4a1 1 0 1 1 0 2zM54 29h-3.5a1 1 0 1 1 0-2H54a1 1 0 1 1 0 2z"/><path d="M51.5 36a1 1 0 0 1-1-1v-7a1 1 0 1 1 2 0v7a1 1 0 0 1-1 1z"/><path d="M52.5 29a1 1 0 0 1-1-1v-1a1 1 0 1 1 2 0v1a1 1 0 0 1-1 1zM52.5 37a1 1 0 0 1-1-1v-1a1 1 0 1 1 2 0v1a1 1 0 0 1-1 1z"/><path d="M53.5 41c-4.963 0-9-4.037-9-9s4.037-9 9-9 9 4.037 9 9-4.037 9-9 9zm0-16c-3.859 0-7 3.141-7 7s3.141 7 7 7 7-3.141 7-7-3.141-7-7-7zM32 20a1 1 0 1 1 0-2c.275 0 .5-.225.5-.5s-.225-.5-.5-.5a1 1 0 1 1 0-2c1.379 0 2.5 1.121 2.5 2.5S33.379 20 32 20z"/><path d="M32.5 24a1 1 0 1 1 0-2 1 1 0 0 0 0-2 1 1 0 1 1 0-2c1.654 0 3 1.346 3 3s-1.346 3-3 3z"/><path d="M32.5 20h-3a1 1 0 1 1 0-2h3a1 1 0 1 1 0 2zM32.5 24h-4a1 1 0 1 1 0-2h4a1 1 0 1 1 0 2zM32 17h-3.5a1 1 0 1 1 0-2H32a1 1 0 1 1 0 2z"/><path d="M29.5 24a1 1 0 0 1-1-1v-7a1 1 0 1 1 2 0v7a1 1 0 0 1-1 1z"/><path d="M30.5 17a1 1 0 0 1-1-1v-1a1 1 0 1 1 2 0v1a1 1 0 0 1-1 1zM30.5 25a1 1 0 0 1-1-1v-1a1 1 0 1 1 2 0v1a1 1 0 0 1-1 1z"/><g><path d="M31.499 29.001c-4.963 0-9-4.037-9-9s4.037-9 9-9 9 4.037 9 9-4.037 9-9 9zm0-16c-3.859 0-7 3.141-7 7s3.141 7 7 7 7-3.141 7-7-3.141-7-7-7z"/></g><g><path d="M53.5 46a1 1 0 0 1-1-1v-5a1 1 0 1 1 2 0v5a1 1 0 0 1-1 1z"/></g><g><path d="M53.5 25a1 1 0 0 1-1-1v-5a1 1 0 1 1 2 0v5a1 1 0 0 1-1 1z"/></g><g><path d="M38.784 17.692a.999.999 0 0 1-.464-1.886l6.368-3.329a.999.999 0 1 1 .926 1.772l-6.368 3.329a.983.983 0 0 1-.462.114z"/></g><g><path d="M18.251 28.426a.999.999 0 0 1-.464-1.886l6.376-3.333a.997.997 0 0 1 1.349.423.999.999 0 0 1-.423 1.349l-6.376 3.333a.986.986 0 0 1-.462.114z"/></g><g><path d="M32 44a1 1 0 1 1 0-2c.275 0 .5-.225.5-.5s-.225-.5-.5-.5a1 1 0 1 1 0-2c1.379 0 2.5 1.121 2.5 2.5S33.379 44 32 44z"/><path d="M32.5 48a1 1 0 1 1 0-2 1 1 0 0 0 0-2 1 1 0 1 1 0-2c1.654 0 3 1.346 3 3s-1.346 3-3 3z"/><path d="M32.5 44h-3a1 1 0 1 1 0-2h3a1 1 0 1 1 0 2zM32.5 48h-4a1 1 0 1 1 0-2h4a1 1 0 1 1 0 2zM32 41h-3.5a1 1 0 1 1 0-2H32a1 1 0 1 1 0 2z"/><path d="M29.5 48a1 1 0 0 1-1-1v-7a1 1 0 1 1 2 0v7a1 1 0 0 1-1 1z"/><path d="M30.5 41a1 1 0 0 1-1-1v-1a1 1 0 1 1 2 0v1a1 1 0 0 1-1 1zM30.5 49a1 1 0 0 1-1-1v-1a1 1 0 1 1 2 0v1a1 1 0 0 1-1 1z"/><g><path d="M31.496 52.999c-4.963 0-9-4.037-9-9s4.037-9 9-9 9 4.037 9 9-4.037 9-9 9zm0-16c-3.859 0-7 3.141-7 7s3.141 7 7 7 7-3.141 7-7-3.141-7-7-7z"/></g><g><path d="M45.147 51.637a.986.986 0 0 1-.462-.114l-6.368-3.329a.999.999 0 0 1-.423-1.349.996.996 0 0 1 1.349-.423l6.368 3.329a.999.999 0 0 1-.464 1.886z"/></g><g><path d="M24.622 40.907a.986.986 0 0 1-.462-.114l-6.376-3.333a.999.999 0 0 1-.423-1.349.996.996 0 0 1 1.349-.423l6.376 3.333a.999.999 0 0 1-.464 1.886z"/></g></g><g><path d="M10.5 42c-5.514 0-10-4.486-10-10s4.486-10 10-10 10 4.486 10 10-4.486 10-10 10zm0-18c-4.411 0-8 3.589-8 8s3.589 8 8 8 8-3.589 8-8-3.589-8-8-8z"/><path d="M10.5 35c-2.206 0-4-1.794-4-4s1.794-4 4-4 4 1.794 4 4-1.794 4-4 4zm0-6c-1.103 0-2 .897-2 2s.897 2 2 2 2-.897 2-2-.897-2-2-2z"/><path d="M15.5 40a1 1 0 0 1-1-1c0-2.206-1.794-4-4-4s-4 1.794-4 4a1 1 0 1 1-2 0c0-3.309 2.691-6 6-6s6 2.691 6 6a1 1 0 0 1-1 1z"/><path d="M15.5 40.5a1 1 0 0 1-1-1V39a1 1 0 1 1 2 0v.5a1 1 0 0 1-1 1zM5.5 40.483a1 1 0 0 1-1-1V39a1 1 0 1 1 2 0v.483a1 1 0 0 1-1 1z"/></g><g><path d="M53.5 20c-5.514 0-10-4.486-10-10s4.486-10 10-10 10 4.486 10 10-4.486 10-10 10zm0-18c-4.411 0-8 3.589-8 8s3.589 8 8 8 8-3.589 8-8-3.589-8-8-8z"/><path d="M53.5 13c-2.206 0-4-1.794-4-4s1.794-4 4-4 4 1.794 4 4-1.794 4-4 4zm0-6c-1.103 0-2 .897-2 2s.897 2 2 2 2-.897 2-2-.897-2-2-2z"/><path d="M58.5 18a1 1 0 0 1-1-1c0-2.206-1.794-4-4-4s-4 1.794-4 4a1 1 0 1 1-2 0c0-3.309 2.691-6 6-6s6 2.691 6 6a1 1 0 0 1-1 1z"/><path d="M58.5 18.5a1 1 0 0 1-1-1V17a1 1 0 1 1 2 0v.5a1 1 0 0 1-1 1zM48.5 18.483a1 1 0 0 1-1-1V17a1 1 0 1 1 2 0v.483a1 1 0 0 1-1 1z"/></g><g><path d="M53.5 64c-5.514 0-10-4.486-10-10s4.486-10 10-10 10 4.486 10 10-4.486 10-10 10zm0-18c-4.411 0-8 3.589-8 8s3.589 8 8 8 8-3.589 8-8-3.589-8-8-8z"/><path d="M53.5 57c-2.206 0-4-1.794-4-4s1.794-4 4-4 4 1.794 4 4-1.794 4-4 4zm0-6c-1.103 0-2 .897-2 2s.897 2 2 2 2-.897 2-2-.897-2-2-2z"/><path d="M58.5 62a1 1 0 0 1-1-1c0-2.206-1.794-4-4-4s-4 1.794-4 4a1 1 0 1 1-2 0c0-3.309 2.691-6 6-6s6 2.691 6 6a1 1 0 0 1-1 1z"/><path d="M58.5 62.5a1 1 0 0 1-1-1V61a1 1 0 1 1 2 0v.5a1 1 0 0 1-1 1zM48.5 62.483a1 1 0 0 1-1-1V61a1 1 0 1 1 2 0v.483a1 1 0 0 1-1 1z"/></g></svg>