<svg xmlns="http://www.w3.org/2000/svg" x="0" y="0" xml:space="preserve" viewBox="0 0 64 64"><path d="M3 48a1 1 0 0 1-1-1V11a1 1 0 1 1 2 0v36a1 1 0 0 1-1 1z"/><path d="M3 17H1a1 1 0 1 1 0-2h2a1 1 0 1 1 0 2zM41 42H3a1 1 0 1 1 0-2h38a1 1 0 1 1 0 2zM60 12H3a1 1 0 1 1 0-2h57a1 1 0 1 1 0 2z"/><path d="M61.205 35.978a1 1 0 0 1-.981-1.197L61.98 26l-2.96-14.804a1 1 0 0 1 1.961-.393l3 15a1 1 0 0 1 0 .393l-1.796 8.978a1.001 1.001 0 0 1-.98.804zM7 43a1 1 0 0 1-1-1V8a1 1 0 1 1 2 0v34a1 1 0 0 1-1 1z"/><path d="M58 12a.997.997 0 0 1-.707-.293l-3-3a.999.999 0 1 1 1.414-1.414l3 3A.999.999 0 0 1 58 12z"/><path d="M55 9H7a1 1 0 1 1 0-2h48a1 1 0 1 1 0 2z"/><path d="M13 12a.997.997 0 0 1-.707-.293l-3-3a.999.999 0 1 1 1.414-1.414l3 3A.999.999 0 0 1 13 12zM18 12a.997.997 0 0 1-.707-.293l-3-3a.999.999 0 1 1 1.414-1.414l3 3A.999.999 0 0 1 18 12zM23 12a.997.997 0 0 1-.707-.293l-3-3a.999.999 0 1 1 1.414-1.414l3 3A.999.999 0 0 1 23 12zM28 12a.997.997 0 0 1-.707-.293l-3-3a.999.999 0 1 1 1.414-1.414l3 3A.999.999 0 0 1 28 12zM33 12a.997.997 0 0 1-.707-.293l-3-3a.999.999 0 1 1 1.414-1.414l3 3A.999.999 0 0 1 33 12zM38 12a.997.997 0 0 1-.707-.293l-3-3a.999.999 0 1 1 1.414-1.414l3 3A.999.999 0 0 1 38 12zM43 12a.997.997 0 0 1-.707-.293l-3-3a.999.999 0 1 1 1.414-1.414l3 3A.999.999 0 0 1 43 12zM48 12a.997.997 0 0 1-.707-.293l-3-3a.999.999 0 1 1 1.414-1.414l3 3A.999.999 0 0 1 48 12zM53 12a.997.997 0 0 1-.707-.293l-3-3a.999.999 0 1 1 1.414-1.414l3 3A.999.999 0 0 1 53 12zM11 45a1 1 0 0 1-1-1v-3a1 1 0 1 1 2 0v3a1 1 0 0 1-1 1z"/><path d="M33 45H11a1 1 0 1 1 0-2h22a1 1 0 1 1 0 2z"/><path d="M33 45a1 1 0 0 1-1-1v-3a1 1 0 1 1 2 0v3a1 1 0 0 1-1 1zM15 45a1 1 0 0 1-1-1v-1a1 1 0 1 1 2 0v1a1 1 0 0 1-1 1zM20.844 24.23a.999.999 0 0 1-.924-.618l-.766-1.848a1.001 1.001 0 0 1 1.848-.766l.766 1.848a1.001 1.001 0 0 1-.924 1.384z"/><path d="M21.994 30.002a3.99 3.99 0 0 1-3.698-2.47A4.006 4.006 0 0 1 21.99 22c1.624 0 3.075.97 3.697 2.47a4.004 4.004 0 0 1-3.693 5.532zM21.99 24a2.003 2.003 0 0 0-1.847 2.767c.41.993 1.607 1.498 2.614 1.083A2.002 2.002 0 0 0 21.99 24z"/><path d="M20.078 22.382a1 1 0 0 1-.924-.618c-.346-.833-.736-1.779-1.274-2.306-.345-.34-.842-.626-1.921-.181a1.001 1.001 0 0 1-.766-1.848c2.018-.835 3.336-.136 4.087.6.829.813 1.304 1.959 1.722 2.97a1 1 0 0 1-.924 1.383zM19.209 25.864a1 1 0 0 1-.383-.077l-1.848-.765a1 1 0 1 1 .766-1.848l1.848.765a1 1 0 0 1-.383 1.925z"/><path d="M12.036 26.14a1 1 0 0 1-.924-1.384c1.532-3.693 4.849-2.321 6.631-1.583a1 1 0 0 1-.766 1.848c-2.442-1.012-3.363-1.08-4.018.5a.996.996 0 0 1-.923.619zM17.359 28.942a1.001 1.001 0 0 1-.383-1.925l1.848-.766a1.001 1.001 0 0 1 .766 1.848l-1.848.766a.996.996 0 0 1-.383.077z"/><path d="M14.331 33.443a.998.998 0 0 1-.924-.618c-1.53-3.698 1.787-5.071 3.569-5.808a1 1 0 1 1 .766 1.848c-2.44 1.01-3.142 1.613-2.487 3.196a1 1 0 0 1-.924 1.382zM20.076 31.659a1 1 0 0 1-.924-1.384l.766-1.848a1 1 0 0 1 1.848.766L21 31.041a1 1 0 0 1-.924.618z"/><path d="M21.119 36.982a.995.995 0 0 1-.383-.076c-3.692-1.529-2.322-4.844-1.587-6.624.212-.511.8-.757 1.308-.545A.996.996 0 0 1 21 31.04l-.002.006c-1.008 2.436-1.075 3.358.504 4.012a1 1 0 0 1-.383 1.924zM23.919 31.661a1 1 0 0 1-.924-.618l-.765-1.849a1 1 0 0 1 1.848-.765l.765 1.849a1 1 0 0 1-.924 1.383z"/><path d="M27.033 35.002c-2.393 0-3.428-2.489-4.033-3.948-.212-.51.027-1.1.537-1.312a.996.996 0 0 1 1.306.535l.004.01c1.01 2.433 1.614 3.127 3.192 2.476a1 1 0 1 1 .766 1.848c-.661.273-1.249.391-1.772.391zM26.637 28.944a.996.996 0 0 1-.383-.077l-1.848-.766a1 1 0 0 1 .766-1.848l1.848.766a1 1 0 0 1-.383 1.925z"/><path d="M29.573 29.737c-1.21 0-2.438-.507-3.305-.864a1.005 1.005 0 0 1-.55-1.308.994.994 0 0 1 1.299-.546l.014.005c2.43 1.002 3.352 1.069 4.006-.508a1 1 0 1 1 1.848.764c-.783 1.894-2.037 2.457-3.312 2.457zM24.79 25.866a1.001 1.001 0 0 1-.383-1.925l1.848-.766a1.001 1.001 0 0 1 .766 1.848l-1.848.766a.996.996 0 0 1-.383.077z"/><path d="M26.646 25.096c-.393 0-.767-.231-.927-.615a.995.995 0 0 1 .535-1.305l.01-.004c2.432-1.01 3.131-1.613 2.478-3.193a1 1 0 0 1 1.848-.765c1.527 3.692-1.78 5.066-3.558 5.805a1.018 1.018 0 0 1-.386.077z"/><path d="M21.997 37.023c-1.445 0-2.861-.282-4.208-.84-5.604-2.323-8.273-8.77-5.953-14.371a10.97 10.97 0 0 1 10.166-6.794c1.445 0 2.861.283 4.207.84a10.927 10.927 0 0 1 5.952 5.953 10.923 10.923 0 0 1 0 8.419 10.966 10.966 0 0 1-10.164 6.793zm.005-20.005a8.975 8.975 0 0 0-8.318 5.56c-1.898 4.583.286 9.858 4.871 11.758a8.968 8.968 0 0 0 3.442.688 8.974 8.974 0 0 0 8.316-5.558 8.943 8.943 0 0 0 0-6.889 8.939 8.939 0 0 0-4.87-4.87 8.938 8.938 0 0 0-3.441-.689z"/><path d="M23.156 24.23a1 1 0 0 1-.924-1.384l.766-1.848a1 1 0 0 1 1.848.766l-.766 1.848a.999.999 0 0 1-.924.618z"/><path d="M23.92 22.376A.996.996 0 0 1 22.997 21l.005-.01c1.005-2.433 1.072-3.354-.507-4.008a1 1 0 1 1 .766-1.848c3.69 1.531 2.324 4.841 1.59 6.619a1.01 1.01 0 0 1-.931.623z"/><g><path d="M45.104 24.67a.997.997 0 0 1-.779-.372l-1.256-1.557a1 1 0 0 1 1.556-1.256l1.256 1.557a1 1 0 0 1-.777 1.628z"/><path d="M46.989 30.004a3.981 3.981 0 0 1-3.114-1.487 3.972 3.972 0 0 1-.865-2.938 3.97 3.97 0 0 1 1.465-2.688 4.014 4.014 0 0 1 2.512-.888c1.217 0 2.353.543 3.114 1.489a4.006 4.006 0 0 1-.599 5.623 4.013 4.013 0 0 1-2.513.889zm-.003-6c-.462 0-.896.153-1.256.444-.416.335-.676.813-.732 1.344s.097 1.053.433 1.469c.672.832 1.98.973 2.815.3a2.004 2.004 0 0 0-1.26-3.557z"/><path d="M43.847 23.112a.998.998 0 0 1-.779-.372c-.566-.703-1.209-1.499-1.873-1.852-.427-.227-.986-.362-1.894.37a1 1 0 0 1-1.256-1.556c1.697-1.371 3.161-1.072 4.089-.579 1.024.545 1.804 1.51 2.49 2.362a1 1 0 0 1-.777 1.627zM43.998 26.698a.942.942 0 0 1-.106-.006l-1.989-.212a1 1 0 1 1 .211-1.988l1.989.212a1 1 0 0 1-.105 1.994z"/><path d="M37.194 28.988a1 1 0 0 1-.995-1.106c.231-2.172 1.479-2.993 2.482-3.3 1.111-.339 2.344-.207 3.433-.09a1 1 0 0 1-.213 1.989c-.897-.096-1.914-.204-2.636.015-.464.142-.954.442-1.078 1.599a1 1 0 0 1-.993.893zM43.094 30.172a1 1 0 0 1-.629-1.778l1.555-1.254a1 1 0 1 1 1.256 1.556l-1.555 1.254a.994.994 0 0 1-.627.222z"/><path d="M41.459 35.348a.997.997 0 0 1-.779-.372c-2.511-3.113.281-5.368 1.781-6.579a.999.999 0 1 1 1.26 1.553l-.003.003c-2.054 1.658-2.556 2.435-1.481 3.767a1 1 0 0 1-.778 1.628zM51.992 27.555a.973.973 0 0 1-.107-.006l-1.987-.213a1.001 1.001 0 0 1 .213-1.989l1.987.213a1.001 1.001 0 0 1-.106 1.995z"/><path d="M53.594 27.665c-.621 0-1.214-.063-1.7-.115a1.003 1.003 0 0 1-.893-1.1.99.99 0 0 1 1.096-.89l.008.001c2.62.278 3.525.083 3.706-1.617a.99.99 0 0 1 1.101-.888 1 1 0 0 1 .888 1.1c-.318 2.966-2.382 3.509-4.206 3.509zM49.353 25.124a.998.998 0 0 1-.629-1.778l1.555-1.256a1 1 0 0 1 1.256 1.555l-1.555 1.256a.993.993 0 0 1-.627.223z"/><path d="M50.911 23.862a.992.992 0 0 1-.777-.369.994.994 0 0 1 .144-1.403l.01-.007c2.047-1.655 2.547-2.431 1.475-3.762a1 1 0 1 1 1.556-1.255c2.508 3.11-.277 5.362-1.773 6.572a1.01 1.01 0 0 1-.635.224z"/><path d="M42.74 36.072a.978.978 0 0 1-.425-.096 11.006 11.006 0 0 1-6.254-11.122c.644-6.032 6.075-10.422 12.108-9.772 6.03.646 10.412 6.077 9.768 12.107a10.92 10.92 0 0 1-1.208 3.969 1 1 0 1 1-1.768-.935 8.94 8.94 0 0 0 .987-3.247c.527-4.934-3.059-9.378-7.992-9.907-4.934-.521-9.379 3.062-9.907 7.997a9.008 9.008 0 0 0 5.117 9.101.999.999 0 0 1-.426 1.905z"/><path d="M47.322 24.017a1 1 0 0 1-.995-1.106l.212-1.989a.998.998 0 0 1 1.1-.888 1 1 0 0 1 .889 1.1l-.212 1.989a1.001 1.001 0 0 1-.994.894z"/><path d="M47.534 22.024a.998.998 0 0 1-.995-1.103v-.006c.279-2.621.085-3.524-1.616-3.707-.55-.059-.946-.552-.888-1.101s.539-.947 1.101-.888c3.976.426 3.597 3.991 3.393 5.906-.055.516-.49.899-.995.899z"/></g><g><path d="M52 53c-6.617 0-12-5.383-12-12s5.383-12 12-12 12 5.383 12 12-5.383 12-12 12zm0-22c-5.514 0-10 4.486-10 10s4.486 10 10 10 10-4.486 10-10-4.486-10-10-10z"/><path d="M52 57c-6.617 0-12-5.383-12-12a1 1 0 1 1 2 0c0 5.514 4.486 10 10 10s10-4.486 10-10a1 1 0 1 1 2 0c0 6.617-5.383 12-12 12z"/><path d="M63 46a1 1 0 0 1-1-1v-4a1 1 0 1 1 2 0v4a1 1 0 0 1-1 1zM41 46a1 1 0 0 1-1-1v-4a1 1 0 1 1 2 0v4a1 1 0 0 1-1 1zM49 47a1 1 0 0 1-1-1V36a1 1 0 1 1 2 0v10a1 1 0 0 1-1 1zM53.001 40.998a1 1 0 1 1 0-2 1 1 0 0 0 0-1.998 1 1 0 1 1 0-2C54.654 35 56 36.346 56 37.999s-1.346 2.999-2.999 2.999z"/><path d="M52.999 47a1 1 0 1 1 0-2 2.002 2.002 0 0 0 0-4.002 1 1 0 1 1 0-2A4.006 4.006 0 0 1 57 43c0 2.206-1.795 4-4.001 4zM53.001 37H48a1 1 0 1 1 0-2h5.001a1 1 0 1 1 0 2z"/><path d="M52.999 47H48a1 1 0 1 1 0-2h4.999a1 1 0 1 1 0 2zM53.001 40.998H49a1 1 0 1 1 0-2h4.001a1 1 0 1 1 0 2zM51 37a1 1 0 0 1-1-1v-1a1 1 0 1 1 2 0v1a1 1 0 0 1-1 1z"/><path d="M51 48a1 1 0 0 1-1-1v-1a1 1 0 1 1 2 0v1a1 1 0 0 1-1 1z"/><g><path d="M47 55.8a1 1 0 0 1-1-1v-4a1 1 0 1 1 2 0v4a1 1 0 0 1-1 1z"/></g><g><path d="M57 55.8a1 1 0 0 1-1-1v-4a1 1 0 1 1 2 0v4a1 1 0 0 1-1 1z"/></g><g><path d="M52 57a1 1 0 0 1-1-1v-4a1 1 0 1 1 2 0v4a1 1 0 0 1-1 1z"/></g></g></svg>