<?xml version="1.0" encoding="utf-8"?>
<!-- Generator: Adobe Illustrator 16.0.0, SVG Export Plug-In . SVG Version: 6.00 Build 0)  -->
<!DOCTYPE svg PUBLIC "-//W3C//DTD SVG 1.1//EN" "http://www.w3.org/Graphics/SVG/1.1/DTD/svg11.dtd">
<svg version="1.1" xmlns="http://www.w3.org/2000/svg" xmlns:xlink="http://www.w3.org/1999/xlink" x="0px" y="0px" width="64px"
	 height="64px" viewBox="0 0 64 64" enable-background="new 0 0 64 64" xml:space="preserve">
<g id="_x35_0_code_x2C__programming_x2C__program_x2C__bitcoin_x2C__block_x2C__chain_x2C__cryptocurrency">
</g>
<g id="_x34_9_balloon_x2C__takeoff_x2C__bitcoin_x2C__coin_x2C__block_x2C__chain_x2C__cryptocurrency">
</g>
<g id="_x34_8_video_card_x2C__mining_x2C__farm_x2C__computer_x2C__block_x2C__chain_x2C__cryptocurrency">
</g>
<g id="_x34_7_money_box_x2C__saving_x2C__bitcoin_x2C__coin_x2C__block_x2C__chain_x2C__cryptocurrency">
</g>
<g id="_x34_6_portfolio_x2C__finance_x2C__bank_note_x2C__bitcoin_x2C__coin_x2C__cryptocurrency">
</g>
<g id="_x34_5_tap_x2C__water_x2C__bitcoin_x2C__coin_x2C__block_x2C__chain_x2C__cryptocurrency">
</g>
<g id="_x34_4_phone_x2C__bitcoin_x2C__coin_x2C__block_x2C__chain_x2C__cryptocurrency">
</g>
<g id="_x34_3_rocket_x2C__sun_x2C__bitcoin_x2C__coin_x2C__block_x2C__chain_x2C__cryptocurrency">
</g>
<g id="_x34_2_transfer_x2C__network_x2C__bitcoin_x2C__coin_x2C__block_x2C__chain_x2C__cryptocurrency">
</g>
<g id="_x34_1_scales_x2C__comparison_x2C__bitcoin_x2C__coin_x2C__block_x2C__chain_x2C__cryptocurrency">
</g>
<g id="_x34_0_calculator_x2C__calculating_x2C__bitcoin_x2C__coin_x2C__block_x2C__chain_x2C__cryptocurrency">
</g>
<g id="_x33_9_start-up_x2C__plant_x2C__hand_x2C__bitcoin_x2C__coin_x2C__cryptocurrency">
	<g>
		<g>
			<g>
				<g>
					<path d="M34.5,9c-0.553,0-1-0.447-1-1s0.447-1,1-1C34.775,7,35,6.775,35,6.5S34.775,6,34.5,6c-0.553,0-1-0.447-1-1s0.447-1,1-1
						C35.879,4,37,5.121,37,6.5S35.879,9,34.5,9z"/>
				</g>
				<g>
					<path d="M35,13c-0.553,0-1-0.447-1-1s0.447-1,1-1c0.552,0,1-0.448,1-1s-0.448-1-1-1c-0.553,0-1-0.447-1-1s0.447-1,1-1
						c1.654,0,3,1.346,3,3S36.654,13,35,13z"/>
				</g>
				<g>
					<path d="M35,9h-3c-0.553,0-1-0.447-1-1s0.447-1,1-1h3c0.553,0,1,0.447,1,1S35.553,9,35,9z"/>
				</g>
				<g>
					<path d="M35,13h-4c-0.553,0-1-0.447-1-1s0.447-1,1-1h4c0.553,0,1,0.447,1,1S35.553,13,35,13z"/>
				</g>
				<g>
					<path d="M34.5,6H31c-0.553,0-1-0.447-1-1s0.447-1,1-1h3.5c0.553,0,1,0.447,1,1S35.053,6,34.5,6z"/>
				</g>
				<g>
					<path d="M32,13c-0.553,0-1-0.447-1-1V5c0-0.553,0.447-1,1-1s1,0.447,1,1v7C33,12.553,32.553,13,32,13z"/>
				</g>
				<g>
					<path d="M33,6c-0.553,0-1-0.447-1-1V4c0-0.553,0.447-1,1-1s1,0.447,1,1v1C34,5.553,33.553,6,33,6z"/>
				</g>
				<g>
					<path d="M33,14c-0.553,0-1-0.447-1-1v-1c0-0.553,0.447-1,1-1s1,0.447,1,1v1C34,13.553,33.553,14,33,14z"/>
				</g>
			</g>
			<g>
				<path d="M34,18c-4.963,0-9-4.037-9-9s4.037-9,9-9s9,4.037,9,9S38.963,18,34,18z M34,2c-3.859,0-7,3.141-7,7s3.141,7,7,7
					s7-3.141,7-7S37.859,2,34,2z"/>
			</g>
			<g>
				<path d="M34,21c-4.963,0-9-4.038-9-9.001c0-0.553,0.447-1,1-1s1,0.447,1,1C27,15.859,30.141,19,34,19s7-3.141,7-7.001
					c0-0.553,0.447-1,1-1s1,0.447,1,1C43,16.962,38.963,21,34,21z"/>
			</g>
			<g>
				<path d="M42,12.999c-0.553,0-1-0.447-1-1V9c0-0.553,0.447-1,1-1s1,0.447,1,1v2.999C43,12.552,42.553,12.999,42,12.999z"/>
			</g>
			<g>
				<path d="M26,12.999c-0.553,0-1-0.447-1-1V9c0-0.553,0.447-1,1-1s1,0.447,1,1v2.999C27,12.552,26.553,12.999,26,12.999z"/>
			</g>
		</g>
		<g>
			<g>
				<path d="M6.03,60c-0.553,0-1.005-0.447-1.005-1s0.442-1,0.994-1H6.03c0.552,0,1,0.447,1,1S6.582,60,6.03,60z"/>
			</g>
			<g>
				<path d="M61.002,49.465c-0.346,0-0.682-0.179-0.866-0.499c-0.277-0.479-0.113-1.09,0.364-1.366c0.926-0.535,1.5-1.531,1.5-2.6
					c0-1.654-1.346-3-3-3c-0.553,0-1-0.447-1-1s0.447-1,1-1c2.757,0,5,2.243,5,5c0,1.779-0.957,3.439-2.498,4.33
					C61.344,49.422,61.172,49.465,61.002,49.465z"/>
			</g>
			<g>
				<path d="M34.001,64c-0.356,0-0.701-0.19-0.882-0.526c-0.262-0.486-0.079-1.093,0.407-1.354l27-14.536
					c0.486-0.262,1.093-0.08,1.354,0.407c0.262,0.486,0.079,1.093-0.407,1.354l-27,14.536C34.323,63.962,34.161,64,34.001,64z"/>
			</g>
			<g>
				<path d="M34.001,64c-0.043,0-0.086-0.003-0.13-0.009l-23-3c-0.548-0.071-0.935-0.573-0.862-1.12
					c0.071-0.548,0.57-0.937,1.12-0.862l23,3c0.548,0.071,0.935,0.573,0.862,1.12C34.926,63.633,34.496,64,34.001,64z"/>
			</g>
			<g>
				<path d="M11,63H1c-0.553,0-1-0.447-1-1V35c0-0.553,0.447-1,1-1h10c0.553,0,1,0.447,1,1v27C12,62.553,11.553,63,11,63z M2,61h8
					V36H2V61z"/>
			</g>
			<g>
				<path d="M38.999,45c-0.486,0-0.912-0.354-0.987-0.85c-0.083-0.546,0.292-1.056,0.838-1.139l19.317-2.94
					c0.55-0.086,1.056,0.292,1.139,0.838s-0.292,1.056-0.838,1.139l-19.317,2.94C39.1,44.996,39.049,45,38.999,45z"/>
			</g>
			<g>
				<path d="M35,49c-0.553,0-1-0.447-1-1s0.447-1,1-1c1.654,0,3-1.346,3-3c0-1.464-1.044-2.707-2.483-2.955
					c-0.544-0.094-0.909-0.611-0.815-1.155s0.609-0.905,1.155-0.815C38.258,39.487,40,41.56,40,44C40,46.757,37.757,49,35,49z"/>
			</g>
			<g>
				<path d="M35.688,41.06c-0.063,0-0.128-0.006-0.192-0.019l-15.688-3.06c-0.542-0.105-0.896-0.631-0.79-1.173
					c0.105-0.543,0.631-0.899,1.173-0.79l15.688,3.06c0.542,0.105,0.896,0.631,0.79,1.173C36.576,40.729,36.157,41.06,35.688,41.06z
					"/>
			</g>
			<g>
				<path d="M20,38h-9c-0.553,0-1-0.447-1-1s0.447-1,1-1h9c0.553,0,1,0.447,1,1S20.553,38,20,38z"/>
			</g>
			<g>
				<path d="M34.58,48.978c-0.026,0-0.052-0.001-0.078-0.003l-12.579-0.978c-0.551-0.043-0.963-0.523-0.92-1.074
					c0.043-0.552,0.53-0.966,1.074-0.92l12.579,0.978c0.551,0.043,0.963,0.523,0.92,1.074C35.535,48.579,35.098,48.978,34.58,48.978
					z"/>
			</g>
			<g>
				<path d="M58.315,42.058c-0.479,0-0.901-0.344-0.984-0.831c-0.094-0.544,0.271-1.061,0.816-1.154C58.426,40.024,58.712,40,59,40
					c0.553,0,1,0.447,1,1s-0.447,1-1,1c-0.176,0-0.348,0.015-0.515,0.043C58.429,42.053,58.371,42.058,58.315,42.058z"/>
			</g>
			<g>
				<path d="M35,49c-0.178,0-0.353-0.01-0.524-0.028c-0.55-0.059-0.947-0.551-0.889-1.1c0.058-0.55,0.545-0.951,1.1-0.889
					C34.79,46.994,34.895,47,35,47c0.553,0,1,0.447,1,1S35.553,49,35,49z"/>
			</g>
		</g>
		<g>
			<path d="M47.999,43.63c-0.211,0-0.423-0.066-0.604-0.203l-14-10.63c-0.44-0.334-0.526-0.962-0.192-1.401
				c0.335-0.441,0.963-0.525,1.401-0.192l14,10.63c0.44,0.334,0.526,0.962,0.192,1.401C48.6,43.494,48.301,43.63,47.999,43.63z"/>
		</g>
		<g>
			<path d="M25.9,39.15c-0.303,0-0.601-0.136-0.798-0.396c-0.334-0.439-0.248-1.067,0.192-1.401l8.101-6.15
				c0.44-0.333,1.066-0.248,1.401,0.192c0.334,0.439,0.248,1.067-0.192,1.401l-8.101,6.15C26.323,39.084,26.111,39.15,25.9,39.15z"
				/>
		</g>
		<g>
			<path d="M34,33c-0.553,0-1-0.447-1-1V20c0-0.553,0.447-1,1-1s1,0.447,1,1v12C35,32.553,34.553,33,34,33z"/>
		</g>
		<g>
			<path d="M40,30c-1.068,0-2.072-0.416-2.828-1.172S36,27.068,36,26s0.416-2.072,1.172-2.828c1.057-1.057,4.949-3.56,7.141-3.56
				c0.635,0,1.145,0.188,1.516,0.56c0.867,0.867,0.727,2.428-0.432,4.771c-0.733,1.484-1.838,3.154-2.568,3.885
				C42.072,29.584,41.068,30,40,30z M44.313,21.612c-1.422,0-4.798,2.045-5.727,2.974C38.208,24.964,38,25.466,38,26
				s0.208,1.036,0.586,1.414c0.756,0.756,2.072,0.756,2.828,0c1.191-1.191,3.134-4.828,2.979-5.799
				C44.372,21.613,44.345,21.612,44.313,21.612z"/>
		</g>
	</g>
</g>
<g id="_x33_8_idea_x2C__bulb_x2C__bitcoin_x2C__coin_x2C__block_x2C__chain_x2C__cryptocurrency">
</g>
<g id="_x33_7_users_x2C__user_x2C__co-founder_x2C__bitcoin_x2C__coin_x2C__cryptocurrency">
</g>
<g id="_x33_6_safe_x2C__protection_x2C__bitcoin_x2C__coin_x2C__block_x2C__chain_x2C__cryptocurrency">
</g>
<g id="_x33_5_flash_drive_x2C__key_x2C__block_x2C__chain_x2C__cryptocurrency">
</g>
<g id="_x33_4_cloud_x2C__mining_x2C__bitcoin_x2C__coin_x2C__block_x2C__chain_x2C__cryptocurrency">
</g>
<g id="_x33_3_start_up_x2C__plant_x2C__bitcoin_x2C__coin_x2C__block_x2C__chain_x2C__cryptocurrency">
</g>
<g id="_x33_2_planet_x2C__bitcoin_x2C__coin_x2C__block_x2C__chain_x2C__cryptocurrency">
</g>
<g id="_x33_1_payment_x2C__hand_x2C__bitcoin_x2C__coin_x2C__block_x2C__chain_x2C__cryptocurrency">
</g>
<g id="_x33_0_user_x2C__laptop_x2C__bitcoin_x2C__coin_x2C__block_x2C__chain_x2C__cryptocurrency">
</g>
<g id="_x32_9_thief_x2C__bag_x2C__bitcoin_x2C__coin_x2C__block_x2C__chain_x2C__cryptocurrency">
</g>
<g id="_x32_8_code_x2C__programming_x2C__program_x2C__bitcoin_x2C__coin_x2C__cryptocurrency">
</g>
<g id="_x32_7_bitcoin_x2C__coin_x2C__block_x2C__chain_x2C__cryptocurrency">
</g>
<g id="_x32_6_shield_x2C__protection_x2C__bitcoin_x2C__coin_x2C__block_x2C__chain_x2C__cryptocurrency">
</g>
<g id="_x32_5_bug_x2C__laptop_x2C__miner_x2C__program_x2C__block_x2C__chain_x2C__cryptocurrency">
</g>
<g id="_x32_4_computer_x2C__monitor_x2C__bitcoin_x2C__coin_x2C__block_x2C__chain_x2C__cryptocurrency">
</g>
<g id="_x32_3_network_x2C__idea_x2C__bitcoin_x2C__coin_x2C__block_x2C__chain_x2C__cryptocurrency">
</g>
<g id="_x32_2_block_x2C__chain_x2C__cryptocurrency_x2C__technology_x2C__future">
</g>
<g id="_x32_1_smart_contact_x2C__contact_x2C__block_x2C__chain_x2C__cryptocurrency">
</g>
<g id="_x32_0_lock_x2C__safe_x2C__protection_x2C__block_x2C__chain_x2C__cryptocurrency_x2C__program">
</g>
<g id="_x31_9_server_x2C__data_x2C__bitcoin_x2C__coin_x2C__block_x2C__chain_x2C__cryptocurrency">
</g>
<g id="_x31_8_key_x2C__bitcoin_x2C__coin_x2C__block_x2C__chain_x2C__cryptocurrency">
</g>
<g id="_x31_7_pool_x2C__network_x2C__bitcoin_x2C__coin_x2C__block_x2C__chain_x2C__cryptocurrency">
</g>
<g id="_x31_6_mining_x2C__shovel_x2C__mine_x2C__coin_x2C__block_x2C__chain_x2C__cryptocurrency">
</g>
<g id="_x31_5_purse_x2C__bitcoin_x2C__coin_x2C__block_x2C__chain_x2C__cryptocurrency">
</g>
<g id="_x31_4_safe_x2C__protection_x2C__block_x2C__chain_x2C__cryptocurrency_x2C__program">
</g>
<g id="_x31_3_mining_x2C__funnel_x2C__satoshi_x2C__bitcoin_x2C__coin_x2C__cryptocurrency">
</g>
<g id="_x31_2_chart_x2C__bitcoin_x2C__coin_x2C__block_x2C__chain_x2C__cryptocurrency">
</g>
<g id="_x31_1_computer_x2C__monitor_x2C__bitcoin_x2C__coin_x2C__block_x2C__chain_x2C__cryptocurrency">
</g>
<g id="_x31_0_mining_x2C__pickaxe_x2C__stone_x2C__mine_x2C___bitcoin_x2C__coin_x2C__cryptocurrency">
</g>
<g id="_x39__miner_x2C__mining_x2C__computer_x2C__pickaxe_x2C__program_x2C__cryptocurrency">
</g>
<g id="_x38__video_card_x2C__mining_x2C__bitcoin_x2C__coin_x2C__block_x2C__chain_x2C__cryptocurrency">
</g>
<g id="_x37__exchanger_x2C__site_x2C__bitcoin_x2C__coin_x2C__block_x2C__chain_x2C__cryptocurrency">
</g>
<g id="_x36__shop_x2C__product_x2C__bitcoin_x2C__coin_x2C__block_x2C__chain_x2C__cryptocurrency">
</g>
<g id="_x35__bitcoin_x2C__coin_x2C__exchange_x2C__block_x2C__chain_x2C__cryptocurrency_x2C__product">
</g>
<g id="_x34__bitcoin_x2C__coin_x2C__exchange_x2C__block_x2C__chain_x2C__cryptocurrency">
</g>
<g id="_x33__bitcoin_x2C__coin_x2C__exchange_x2C__block_x2C__chain_x2C__cryptocurrency">
</g>
<g id="_x32__brain_x2C__smart_x2C__coin_x2C__block_x2C__chain_x2C__cryptocurrency">
</g>
<g id="_x31__bitcoin_x2C__coin_x2C__block_x2C__chain_x2C__cryptocurrency">
</g>
</svg>
