<svg xmlns="http://www.w3.org/2000/svg" x="0" y="0" xml:space="preserve" viewBox="0 0 64 64"><path d="M34.5 9a1 1 0 1 1 0-2c.275 0 .5-.225.5-.5s-.225-.5-.5-.5a1 1 0 1 1 0-2C35.879 4 37 5.121 37 6.5S35.879 9 34.5 9z"/><path d="M35 13a1 1 0 1 1 0-2 1 1 0 0 0 0-2 1 1 0 1 1 0-2c1.654 0 3 1.346 3 3s-1.346 3-3 3z"/><path d="M35 9h-3a1 1 0 1 1 0-2h3a1 1 0 1 1 0 2zM35 13h-4a1 1 0 1 1 0-2h4a1 1 0 1 1 0 2zM34.5 6H31a1 1 0 1 1 0-2h3.5a1 1 0 1 1 0 2z"/><path d="M32 13a1 1 0 0 1-1-1V5a1 1 0 1 1 2 0v7a1 1 0 0 1-1 1z"/><path d="M33 6a1 1 0 0 1-1-1V4a1 1 0 1 1 2 0v1a1 1 0 0 1-1 1zM33 14a1 1 0 0 1-1-1v-1a1 1 0 1 1 2 0v1a1 1 0 0 1-1 1z"/><g><path d="M34 18c-4.963 0-9-4.037-9-9s4.037-9 9-9 9 4.037 9 9-4.037 9-9 9zm0-16c-3.859 0-7 3.141-7 7s3.141 7 7 7 7-3.141 7-7-3.141-7-7-7z"/></g><g><path d="M34 21c-4.963 0-9-4.038-9-9.001a1 1 0 1 1 2 0C27 15.859 30.141 19 34 19s7-3.141 7-7.001a1 1 0 1 1 2 0C43 16.962 38.963 21 34 21z"/></g><g><path d="M42 12.999a1 1 0 0 1-1-1V9a1 1 0 1 1 2 0v2.999a1 1 0 0 1-1 1z"/></g><g><path d="M26 12.999a1 1 0 0 1-1-1V9a1 1 0 1 1 2 0v2.999a1 1 0 0 1-1 1z"/></g><g><path d="M6.03 60c-.553 0-1.005-.447-1.005-1s.442-1 .994-1h.011a1 1 0 1 1 0 2zM61.002 49.465A1 1 0 0 1 60.5 47.6 3.01 3.01 0 0 0 62 45c0-1.654-1.346-3-3-3a1 1 0 1 1 0-2c2.757 0 5 2.243 5 5a5.017 5.017 0 0 1-2.498 4.33.99.99 0 0 1-.5.135z"/><path d="M34.001 64a1 1 0 0 1-.475-1.88l27-14.536a.999.999 0 1 1 .947 1.761l-27 14.536a.99.99 0 0 1-.472.119z"/><path d="M34.001 64a.958.958 0 0 1-.13-.009l-23-3a.998.998 0 0 1-.862-1.12.995.995 0 0 1 1.12-.862l23 3A1 1 0 0 1 34.001 64z"/><path d="M11 63H1a1 1 0 0 1-1-1V35a1 1 0 0 1 1-1h10a1 1 0 0 1 1 1v27a1 1 0 0 1-1 1zm-9-2h8V36H2v25zM38.999 45a1 1 0 0 1-.149-1.989l19.317-2.94a1 1 0 1 1 .301 1.977l-19.317 2.94a.983.983 0 0 1-.152.012z"/><path d="M35 49a1 1 0 1 1 0-2c1.654 0 3-1.346 3-3a2.989 2.989 0 0 0-2.483-2.955 1 1 0 1 1 .34-1.97A4.982 4.982 0 0 1 40 44c0 2.757-2.243 5-5 5z"/><path d="M35.688 41.06a.969.969 0 0 1-.192-.019l-15.688-3.06a1 1 0 1 1 .383-1.963l15.688 3.06a1 1 0 0 1-.191 1.982z"/><path d="M20 38h-9a1 1 0 1 1 0-2h9a1 1 0 1 1 0 2zM34.58 48.978l-.078-.003-12.579-.978a1 1 0 1 1 .154-1.994l12.579.978a1 1 0 0 1-.076 1.997zM58.315 42.058a.999.999 0 0 1-.168-1.985c.279-.049.565-.073.853-.073a1 1 0 1 1 0 2c-.176 0-.348.015-.515.043a.976.976 0 0 1-.17.015z"/><path d="M35 49c-.178 0-.353-.01-.524-.028a1 1 0 0 1-.889-1.1.994.994 0 0 1 1.1-.889c.103.011.208.017.313.017a1 1 0 1 1 0 2z"/></g><g><path d="M47.999 43.63a.997.997 0 0 1-.604-.203l-14-10.63a1 1 0 1 1 1.209-1.593l14 10.63a1 1 0 0 1-.605 1.796z"/></g><g><path d="M25.9 39.15a1 1 0 0 1-.606-1.797l8.101-6.15a1 1 0 0 1 1.209 1.593l-8.101 6.15a.986.986 0 0 1-.603.204z"/></g><g><path d="M34 33a1 1 0 0 1-1-1V20a1 1 0 1 1 2 0v12a1 1 0 0 1-1 1z"/></g><g><path d="M40 30c-1.068 0-2.072-.416-2.828-1.172S36 27.068 36 26s.416-2.072 1.172-2.828c1.057-1.057 4.949-3.56 7.141-3.56.635 0 1.145.188 1.516.56.867.867.727 2.428-.432 4.771-.733 1.484-1.838 3.154-2.568 3.885A3.977 3.977 0 0 1 40 30zm4.313-8.388c-1.422 0-4.798 2.045-5.727 2.974-.378.378-.586.88-.586 1.414s.208 1.036.586 1.414c.756.756 2.072.756 2.828 0 1.191-1.191 3.134-4.828 2.979-5.799a.877.877 0 0 0-.08-.003z"/></g></svg>