<?xml version="1.0" encoding="utf-8"?>
<!-- Generator: Adobe Illustrator 16.0.0, SVG Export Plug-In . SVG Version: 6.00 Build 0)  -->
<!DOCTYPE svg PUBLIC "-//W3C//DTD SVG 1.1//EN" "http://www.w3.org/Graphics/SVG/1.1/DTD/svg11.dtd">
<svg version="1.1" xmlns="http://www.w3.org/2000/svg" xmlns:xlink="http://www.w3.org/1999/xlink" x="0px" y="0px" width="64px"
	 height="64px" viewBox="0 0 64 64" enable-background="new 0 0 64 64" xml:space="preserve">
<g id="_x35_0_code_x2C__programming_x2C__program_x2C__bitcoin_x2C__block_x2C__chain_x2C__cryptocurrency">
</g>
<g id="_x34_9_balloon_x2C__takeoff_x2C__bitcoin_x2C__coin_x2C__block_x2C__chain_x2C__cryptocurrency">
</g>
<g id="_x34_8_video_card_x2C__mining_x2C__farm_x2C__computer_x2C__block_x2C__chain_x2C__cryptocurrency">
</g>
<g id="_x34_7_money_box_x2C__saving_x2C__bitcoin_x2C__coin_x2C__block_x2C__chain_x2C__cryptocurrency">
</g>
<g id="_x34_6_portfolio_x2C__finance_x2C__bank_note_x2C__bitcoin_x2C__coin_x2C__cryptocurrency">
</g>
<g id="_x34_5_tap_x2C__water_x2C__bitcoin_x2C__coin_x2C__block_x2C__chain_x2C__cryptocurrency">
</g>
<g id="_x34_4_phone_x2C__bitcoin_x2C__coin_x2C__block_x2C__chain_x2C__cryptocurrency">
</g>
<g id="_x34_3_rocket_x2C__sun_x2C__bitcoin_x2C__coin_x2C__block_x2C__chain_x2C__cryptocurrency">
</g>
<g id="_x34_2_transfer_x2C__network_x2C__bitcoin_x2C__coin_x2C__block_x2C__chain_x2C__cryptocurrency">
</g>
<g id="_x34_1_scales_x2C__comparison_x2C__bitcoin_x2C__coin_x2C__block_x2C__chain_x2C__cryptocurrency">
</g>
<g id="_x34_0_calculator_x2C__calculating_x2C__bitcoin_x2C__coin_x2C__block_x2C__chain_x2C__cryptocurrency">
</g>
<g id="_x33_9_start-up_x2C__plant_x2C__hand_x2C__bitcoin_x2C__coin_x2C__cryptocurrency">
</g>
<g id="_x33_8_idea_x2C__bulb_x2C__bitcoin_x2C__coin_x2C__block_x2C__chain_x2C__cryptocurrency">
</g>
<g id="_x33_7_users_x2C__user_x2C__co-founder_x2C__bitcoin_x2C__coin_x2C__cryptocurrency">
</g>
<g id="_x33_6_safe_x2C__protection_x2C__bitcoin_x2C__coin_x2C__block_x2C__chain_x2C__cryptocurrency">
</g>
<g id="_x33_5_flash_drive_x2C__key_x2C__block_x2C__chain_x2C__cryptocurrency">
</g>
<g id="_x33_4_cloud_x2C__mining_x2C__bitcoin_x2C__coin_x2C__block_x2C__chain_x2C__cryptocurrency">
</g>
<g id="_x33_3_start_up_x2C__plant_x2C__bitcoin_x2C__coin_x2C__block_x2C__chain_x2C__cryptocurrency">
</g>
<g id="_x33_2_planet_x2C__bitcoin_x2C__coin_x2C__block_x2C__chain_x2C__cryptocurrency">
</g>
<g id="_x33_1_payment_x2C__hand_x2C__bitcoin_x2C__coin_x2C__block_x2C__chain_x2C__cryptocurrency">
</g>
<g id="_x33_0_user_x2C__laptop_x2C__bitcoin_x2C__coin_x2C__block_x2C__chain_x2C__cryptocurrency">
</g>
<g id="_x32_9_thief_x2C__bag_x2C__bitcoin_x2C__coin_x2C__block_x2C__chain_x2C__cryptocurrency">
</g>
<g id="_x32_8_code_x2C__programming_x2C__program_x2C__bitcoin_x2C__coin_x2C__cryptocurrency">
</g>
<g id="_x32_7_bitcoin_x2C__coin_x2C__block_x2C__chain_x2C__cryptocurrency">
	<g>
		<g>
			<g>
				<path d="M15.002,42.5c-8.271,0-15-6.729-15-15s6.729-15,15-15s15,6.729,15,15S23.273,42.5,15.002,42.5z M15.002,14.5
					c-7.168,0-13,5.832-13,13s5.832,13,13,13s13-5.832,13-13S22.17,14.5,15.002,14.5z"/>
			</g>
			<g>
				<path d="M15.002,47.5c-8.271,0-15-6.729-15-15c0-0.553,0.447-1,1-1s1,0.447,1,1c0,7.168,5.832,13,13,13s13-5.832,13-13
					c0-0.553,0.447-1,1-1s1,0.447,1,1C30.002,40.771,23.273,47.5,15.002,47.5z"/>
			</g>
			<g>
				<path d="M29,33.5c-0.553,0-1-0.447-1-1v-5c0-0.553,0.447-1,1-1s1,0.447,1,1v5C30,33.053,29.553,33.5,29,33.5z"/>
			</g>
			<g>
				<path d="M1,33.5c-0.553,0-1-0.447-1-1v-5c0-0.553,0.447-1,1-1s1,0.447,1,1v5C2,33.053,1.553,33.5,1,33.5z"/>
			</g>
			<g>
				<path d="M15.002,47.5c-0.553,0-1-0.447-1-1v-5c0-0.553,0.447-1,1-1s1,0.447,1,1v5C16.002,47.053,15.555,47.5,15.002,47.5z"/>
			</g>
			<g>
				<path d="M6.984,44.979c-0.553,0-1-0.447-1-1v-5c0-0.553,0.447-1,1-1s1,0.447,1,1v5C7.984,44.531,7.537,44.979,6.984,44.979z"/>
			</g>
			<g>
				<path d="M22.984,44.979c-0.553,0-1-0.447-1-1v-5c0-0.553,0.447-1,1-1s1,0.447,1,1v5C23.984,44.531,23.537,44.979,22.984,44.979z
					"/>
			</g>
			<g>
				<g>
					<path d="M11.018,35.5c-0.553,0-1-0.447-1-1v-14c0-0.553,0.447-1,1-1s1,0.447,1,1v14C12.018,35.053,11.57,35.5,11.018,35.5z"/>
				</g>
				<g>
					<path d="M16.018,27.5c-0.553,0-1-0.447-1-1s0.447-1,1-1c1.103,0,2-0.897,2-2s-0.897-2-2-2c-0.553,0-1-0.447-1-1s0.447-1,1-1
						c2.206,0,4,1.794,4,4S18.224,27.5,16.018,27.5z"/>
				</g>
				<g>
					<path d="M16.018,35.5c-0.553,0-1-0.447-1-1s0.447-1,1-1c1.654,0,3-1.346,3-3s-1.346-3-3-3c-0.553,0-1-0.447-1-1s0.447-1,1-1
						c2.757,0,5,2.243,5,5S18.774,35.5,16.018,35.5z"/>
				</g>
				<g>
					<path d="M16.018,21.5h-6c-0.553,0-1-0.447-1-1s0.447-1,1-1h6c0.553,0,1,0.447,1,1S16.57,21.5,16.018,21.5z"/>
				</g>
				<g>
					<path d="M16.018,27.5h-5c-0.553,0-1-0.447-1-1s0.447-1,1-1h5c0.553,0,1,0.447,1,1S16.57,27.5,16.018,27.5z"/>
				</g>
				<g>
					<path d="M16.518,35.5h-6.5c-0.553,0-1-0.447-1-1s0.447-1,1-1h6.5c0.553,0,1,0.447,1,1S17.07,35.5,16.518,35.5z"/>
				</g>
				<g>
					<path d="M12.018,21.5c-0.553,0-1-0.447-1-1v-1c0-0.553,0.447-1,1-1s1,0.447,1,1v1C13.018,21.053,12.57,21.5,12.018,21.5z"/>
				</g>
				<g>
					<path d="M15.018,21.5c-0.553,0-1-0.447-1-1v-1c0-0.553,0.447-1,1-1s1,0.447,1,1v1C16.018,21.053,15.57,21.5,15.018,21.5z"/>
				</g>
				<g>
					<path d="M12.018,36.5c-0.553,0-1-0.447-1-1v-1c0-0.553,0.447-1,1-1s1,0.447,1,1v1C13.018,36.053,12.57,36.5,12.018,36.5z"/>
				</g>
				<g>
					<path d="M15.018,36.5c-0.553,0-1-0.447-1-1v-1c0-0.553,0.447-1,1-1s1,0.447,1,1v1C16.018,36.053,15.57,36.5,15.018,36.5z"/>
				</g>
			</g>
		</g>
		<g>
			<g>
				<path d="M49.018,55.5c-0.553,0-1-0.447-1-1v-5c0-0.553,0.447-1,1-1s1,0.447,1,1v5C50.018,55.053,49.57,55.5,49.018,55.5z"/>
			</g>
			<g>
				<path d="M41,55.5c-0.553,0-1-0.447-1-1v-5c0-0.553,0.447-1,1-1s1,0.447,1,1v5C42,55.053,41.553,55.5,41,55.5z"/>
			</g>
			<g>
				<path d="M57,55.5c-0.553,0-1-0.447-1-1v-5c0-0.553,0.447-1,1-1s1,0.447,1,1v5C58,55.053,57.553,55.5,57,55.5z"/>
			</g>
			<g>
				<path d="M63,55.5H35c-0.553,0-1-0.447-1-1v-5c0-0.553,0.447-1,1-1h28c0.553,0,1,0.447,1,1v5C64,55.053,63.553,55.5,63,55.5z
					 M36,53.5h26v-3H36V53.5z"/>
			</g>
		</g>
		<g>
			<g>
				<path d="M15.018,55.5c-0.553,0-1-0.447-1-1v-5c0-0.553,0.447-1,1-1s1,0.447,1,1v5C16.018,55.053,15.57,55.5,15.018,55.5z"/>
			</g>
			<g>
				<path d="M7,55.5c-0.553,0-1-0.447-1-1v-5c0-0.553,0.447-1,1-1s1,0.447,1,1v5C8,55.053,7.553,55.5,7,55.5z"/>
			</g>
			<g>
				<path d="M23,55.5c-0.553,0-1-0.447-1-1v-5c0-0.553,0.447-1,1-1s1,0.447,1,1v5C24,55.053,23.553,55.5,23,55.5z"/>
			</g>
			<g>
				<path d="M29,55.5H1c-0.553,0-1-0.447-1-1v-5c0-0.553,0.447-1,1-1h28c0.553,0,1,0.447,1,1v5C30,55.053,29.553,55.5,29,55.5z
					 M2,53.5h26v-3H2V53.5z"/>
			</g>
		</g>
		<g>
			<g>
				<path d="M49.018,47.5c-0.553,0-1-0.447-1-1v-5c0-0.553,0.447-1,1-1s1,0.447,1,1v5C50.018,47.053,49.57,47.5,49.018,47.5z"/>
			</g>
			<g>
				<path d="M41,47.5c-0.553,0-1-0.447-1-1v-5c0-0.553,0.447-1,1-1s1,0.447,1,1v5C42,47.053,41.553,47.5,41,47.5z"/>
			</g>
			<g>
				<path d="M57,47.5c-0.553,0-1-0.447-1-1v-5c0-0.553,0.447-1,1-1s1,0.447,1,1v5C58,47.053,57.553,47.5,57,47.5z"/>
			</g>
			<g>
				<path d="M63,47.5H35c-0.553,0-1-0.447-1-1v-5c0-0.553,0.447-1,1-1h28c0.553,0,1,0.447,1,1v5C64,47.053,63.553,47.5,63,47.5z
					 M36,45.5h26v-3H36V45.5z"/>
			</g>
		</g>
		<g>
			<g>
				<path d="M49.018,39.5c-0.553,0-1-0.447-1-1v-5c0-0.553,0.447-1,1-1s1,0.447,1,1v5C50.018,39.053,49.57,39.5,49.018,39.5z"/>
			</g>
			<g>
				<path d="M41,39.5c-0.553,0-1-0.447-1-1v-5c0-0.553,0.447-1,1-1s1,0.447,1,1v5C42,39.053,41.553,39.5,41,39.5z"/>
			</g>
			<g>
				<path d="M57,39.5c-0.553,0-1-0.447-1-1v-5c0-0.553,0.447-1,1-1s1,0.447,1,1v5C58,39.053,57.553,39.5,57,39.5z"/>
			</g>
			<g>
				<path d="M63,39.5H35c-0.553,0-1-0.447-1-1v-5c0-0.553,0.447-1,1-1h28c0.553,0,1,0.447,1,1v5C64,39.053,63.553,39.5,63,39.5z
					 M36,37.5h26v-3H36V37.5z"/>
			</g>
		</g>
		<g>
			<g>
				<path d="M49.018,31.5c-0.553,0-1-0.447-1-1v-5c0-0.553,0.447-1,1-1s1,0.447,1,1v5C50.018,31.053,49.57,31.5,49.018,31.5z"/>
			</g>
			<g>
				<path d="M41,31.5c-0.553,0-1-0.447-1-1v-5c0-0.553,0.447-1,1-1s1,0.447,1,1v5C42,31.053,41.553,31.5,41,31.5z"/>
			</g>
			<g>
				<path d="M57,31.5c-0.553,0-1-0.447-1-1v-5c0-0.553,0.447-1,1-1s1,0.447,1,1v5C58,31.053,57.553,31.5,57,31.5z"/>
			</g>
			<g>
				<path d="M63,31.5H35c-0.553,0-1-0.447-1-1v-5c0-0.553,0.447-1,1-1h28c0.553,0,1,0.447,1,1v5C64,31.053,63.553,31.5,63,31.5z
					 M36,29.5h26v-3H36V29.5z"/>
			</g>
		</g>
		<g>
			<g>
				<path d="M49.018,23.5c-0.553,0-1-0.447-1-1v-5c0-0.553,0.447-1,1-1s1,0.447,1,1v5C50.018,23.053,49.57,23.5,49.018,23.5z"/>
			</g>
			<g>
				<path d="M41,23.5c-0.553,0-1-0.447-1-1v-5c0-0.553,0.447-1,1-1s1,0.447,1,1v5C42,23.053,41.553,23.5,41,23.5z"/>
			</g>
			<g>
				<path d="M57,23.5c-0.553,0-1-0.447-1-1v-5c0-0.553,0.447-1,1-1s1,0.447,1,1v5C58,23.053,57.553,23.5,57,23.5z"/>
			</g>
			<g>
				<path d="M63,23.5H35c-0.553,0-1-0.447-1-1v-5c0-0.553,0.447-1,1-1h28c0.553,0,1,0.447,1,1v5C64,23.053,63.553,23.5,63,23.5z
					 M36,21.5h26v-3H36V21.5z"/>
			</g>
		</g>
		<g>
			<g>
				<path d="M49.018,15.5c-0.553,0-1-0.447-1-1v-5c0-0.553,0.447-1,1-1s1,0.447,1,1v5C50.018,15.053,49.57,15.5,49.018,15.5z"/>
			</g>
			<g>
				<path d="M41,15.5c-0.553,0-1-0.447-1-1v-5c0-0.553,0.447-1,1-1s1,0.447,1,1v5C42,15.053,41.553,15.5,41,15.5z"/>
			</g>
			<g>
				<path d="M57,15.5c-0.553,0-1-0.447-1-1v-5c0-0.553,0.447-1,1-1s1,0.447,1,1v5C58,15.053,57.553,15.5,57,15.5z"/>
			</g>
			<g>
				<path d="M63,15.5H35c-0.553,0-1-0.447-1-1v-5c0-0.553,0.447-1,1-1h28c0.553,0,1,0.447,1,1v5C64,15.053,63.553,15.5,63,15.5z
					 M36,13.5h26v-3H36V13.5z"/>
			</g>
		</g>
	</g>
</g>
<g id="_x32_6_shield_x2C__protection_x2C__bitcoin_x2C__coin_x2C__block_x2C__chain_x2C__cryptocurrency">
</g>
<g id="_x32_5_bug_x2C__laptop_x2C__miner_x2C__program_x2C__block_x2C__chain_x2C__cryptocurrency">
</g>
<g id="_x32_4_computer_x2C__monitor_x2C__bitcoin_x2C__coin_x2C__block_x2C__chain_x2C__cryptocurrency">
</g>
<g id="_x32_3_network_x2C__idea_x2C__bitcoin_x2C__coin_x2C__block_x2C__chain_x2C__cryptocurrency">
</g>
<g id="_x32_2_block_x2C__chain_x2C__cryptocurrency_x2C__technology_x2C__future">
</g>
<g id="_x32_1_smart_contact_x2C__contact_x2C__block_x2C__chain_x2C__cryptocurrency">
</g>
<g id="_x32_0_lock_x2C__safe_x2C__protection_x2C__block_x2C__chain_x2C__cryptocurrency_x2C__program">
</g>
<g id="_x31_9_server_x2C__data_x2C__bitcoin_x2C__coin_x2C__block_x2C__chain_x2C__cryptocurrency">
</g>
<g id="_x31_8_key_x2C__bitcoin_x2C__coin_x2C__block_x2C__chain_x2C__cryptocurrency">
</g>
<g id="_x31_7_pool_x2C__network_x2C__bitcoin_x2C__coin_x2C__block_x2C__chain_x2C__cryptocurrency">
</g>
<g id="_x31_6_mining_x2C__shovel_x2C__mine_x2C__coin_x2C__block_x2C__chain_x2C__cryptocurrency">
</g>
<g id="_x31_5_purse_x2C__bitcoin_x2C__coin_x2C__block_x2C__chain_x2C__cryptocurrency">
</g>
<g id="_x31_4_safe_x2C__protection_x2C__block_x2C__chain_x2C__cryptocurrency_x2C__program">
</g>
<g id="_x31_3_mining_x2C__funnel_x2C__satoshi_x2C__bitcoin_x2C__coin_x2C__cryptocurrency">
</g>
<g id="_x31_2_chart_x2C__bitcoin_x2C__coin_x2C__block_x2C__chain_x2C__cryptocurrency">
</g>
<g id="_x31_1_computer_x2C__monitor_x2C__bitcoin_x2C__coin_x2C__block_x2C__chain_x2C__cryptocurrency">
</g>
<g id="_x31_0_mining_x2C__pickaxe_x2C__stone_x2C__mine_x2C___bitcoin_x2C__coin_x2C__cryptocurrency">
</g>
<g id="_x39__miner_x2C__mining_x2C__computer_x2C__pickaxe_x2C__program_x2C__cryptocurrency">
</g>
<g id="_x38__video_card_x2C__mining_x2C__bitcoin_x2C__coin_x2C__block_x2C__chain_x2C__cryptocurrency">
</g>
<g id="_x37__exchanger_x2C__site_x2C__bitcoin_x2C__coin_x2C__block_x2C__chain_x2C__cryptocurrency">
</g>
<g id="_x36__shop_x2C__product_x2C__bitcoin_x2C__coin_x2C__block_x2C__chain_x2C__cryptocurrency">
</g>
<g id="_x35__bitcoin_x2C__coin_x2C__exchange_x2C__block_x2C__chain_x2C__cryptocurrency_x2C__product">
</g>
<g id="_x34__bitcoin_x2C__coin_x2C__exchange_x2C__block_x2C__chain_x2C__cryptocurrency">
</g>
<g id="_x33__bitcoin_x2C__coin_x2C__exchange_x2C__block_x2C__chain_x2C__cryptocurrency">
</g>
<g id="_x32__brain_x2C__smart_x2C__coin_x2C__block_x2C__chain_x2C__cryptocurrency">
</g>
<g id="_x31__bitcoin_x2C__coin_x2C__block_x2C__chain_x2C__cryptocurrency">
</g>
</svg>
