<?xml version="1.0" encoding="utf-8"?>
<!-- Generator: Adobe Illustrator 16.0.0, SVG Export Plug-In . SVG Version: 6.00 Build 0)  -->
<!DOCTYPE svg PUBLIC "-//W3C//DTD SVG 1.1//EN" "http://www.w3.org/Graphics/SVG/1.1/DTD/svg11.dtd">
<svg version="1.1" xmlns="http://www.w3.org/2000/svg" xmlns:xlink="http://www.w3.org/1999/xlink" x="0px" y="0px" width="64px"
	 height="64px" viewBox="0 0 64 64" enable-background="new 0 0 64 64" xml:space="preserve">
<g id="_x35_0_code_x2C__programming_x2C__program_x2C__bitcoin_x2C__block_x2C__chain_x2C__cryptocurrency">
</g>
<g id="_x34_9_balloon_x2C__takeoff_x2C__bitcoin_x2C__coin_x2C__block_x2C__chain_x2C__cryptocurrency">
</g>
<g id="_x34_8_video_card_x2C__mining_x2C__farm_x2C__computer_x2C__block_x2C__chain_x2C__cryptocurrency">
</g>
<g id="_x34_7_money_box_x2C__saving_x2C__bitcoin_x2C__coin_x2C__block_x2C__chain_x2C__cryptocurrency">
</g>
<g id="_x34_6_portfolio_x2C__finance_x2C__bank_note_x2C__bitcoin_x2C__coin_x2C__cryptocurrency">
</g>
<g id="_x34_5_tap_x2C__water_x2C__bitcoin_x2C__coin_x2C__block_x2C__chain_x2C__cryptocurrency">
</g>
<g id="_x34_4_phone_x2C__bitcoin_x2C__coin_x2C__block_x2C__chain_x2C__cryptocurrency">
</g>
<g id="_x34_3_rocket_x2C__sun_x2C__bitcoin_x2C__coin_x2C__block_x2C__chain_x2C__cryptocurrency">
</g>
<g id="_x34_2_transfer_x2C__network_x2C__bitcoin_x2C__coin_x2C__block_x2C__chain_x2C__cryptocurrency">
</g>
<g id="_x34_1_scales_x2C__comparison_x2C__bitcoin_x2C__coin_x2C__block_x2C__chain_x2C__cryptocurrency">
</g>
<g id="_x34_0_calculator_x2C__calculating_x2C__bitcoin_x2C__coin_x2C__block_x2C__chain_x2C__cryptocurrency">
</g>
<g id="_x33_9_start-up_x2C__plant_x2C__hand_x2C__bitcoin_x2C__coin_x2C__cryptocurrency">
</g>
<g id="_x33_8_idea_x2C__bulb_x2C__bitcoin_x2C__coin_x2C__block_x2C__chain_x2C__cryptocurrency">
</g>
<g id="_x33_7_users_x2C__user_x2C__co-founder_x2C__bitcoin_x2C__coin_x2C__cryptocurrency">
</g>
<g id="_x33_6_safe_x2C__protection_x2C__bitcoin_x2C__coin_x2C__block_x2C__chain_x2C__cryptocurrency">
</g>
<g id="_x33_5_flash_drive_x2C__key_x2C__block_x2C__chain_x2C__cryptocurrency">
</g>
<g id="_x33_4_cloud_x2C__mining_x2C__bitcoin_x2C__coin_x2C__block_x2C__chain_x2C__cryptocurrency">
</g>
<g id="_x33_3_start_up_x2C__plant_x2C__bitcoin_x2C__coin_x2C__block_x2C__chain_x2C__cryptocurrency">
</g>
<g id="_x33_2_planet_x2C__bitcoin_x2C__coin_x2C__block_x2C__chain_x2C__cryptocurrency">
</g>
<g id="_x33_1_payment_x2C__hand_x2C__bitcoin_x2C__coin_x2C__block_x2C__chain_x2C__cryptocurrency">
</g>
<g id="_x33_0_user_x2C__laptop_x2C__bitcoin_x2C__coin_x2C__block_x2C__chain_x2C__cryptocurrency">
</g>
<g id="_x32_9_thief_x2C__bag_x2C__bitcoin_x2C__coin_x2C__block_x2C__chain_x2C__cryptocurrency">
</g>
<g id="_x32_8_code_x2C__programming_x2C__program_x2C__bitcoin_x2C__coin_x2C__cryptocurrency">
</g>
<g id="_x32_7_bitcoin_x2C__coin_x2C__block_x2C__chain_x2C__cryptocurrency">
</g>
<g id="_x32_6_shield_x2C__protection_x2C__bitcoin_x2C__coin_x2C__block_x2C__chain_x2C__cryptocurrency">
</g>
<g id="_x32_5_bug_x2C__laptop_x2C__miner_x2C__program_x2C__block_x2C__chain_x2C__cryptocurrency">
</g>
<g id="_x32_4_computer_x2C__monitor_x2C__bitcoin_x2C__coin_x2C__block_x2C__chain_x2C__cryptocurrency">
</g>
<g id="_x32_3_network_x2C__idea_x2C__bitcoin_x2C__coin_x2C__block_x2C__chain_x2C__cryptocurrency">
</g>
<g id="_x32_2_block_x2C__chain_x2C__cryptocurrency_x2C__technology_x2C__future">
</g>
<g id="_x32_1_smart_contact_x2C__contact_x2C__block_x2C__chain_x2C__cryptocurrency">
</g>
<g id="_x32_0_lock_x2C__safe_x2C__protection_x2C__block_x2C__chain_x2C__cryptocurrency_x2C__program">
</g>
<g id="_x31_9_server_x2C__data_x2C__bitcoin_x2C__coin_x2C__block_x2C__chain_x2C__cryptocurrency">
</g>
<g id="_x31_8_key_x2C__bitcoin_x2C__coin_x2C__block_x2C__chain_x2C__cryptocurrency">
</g>
<g id="_x31_7_pool_x2C__network_x2C__bitcoin_x2C__coin_x2C__block_x2C__chain_x2C__cryptocurrency">
</g>
<g id="_x31_6_mining_x2C__shovel_x2C__mine_x2C__coin_x2C__block_x2C__chain_x2C__cryptocurrency">
</g>
<g id="_x31_5_purse_x2C__bitcoin_x2C__coin_x2C__block_x2C__chain_x2C__cryptocurrency">
</g>
<g id="_x31_4_safe_x2C__protection_x2C__block_x2C__chain_x2C__cryptocurrency_x2C__program">
</g>
<g id="_x31_3_mining_x2C__funnel_x2C__satoshi_x2C__bitcoin_x2C__coin_x2C__cryptocurrency">
</g>
<g id="_x31_2_chart_x2C__bitcoin_x2C__coin_x2C__block_x2C__chain_x2C__cryptocurrency">
</g>
<g id="_x31_1_computer_x2C__monitor_x2C__bitcoin_x2C__coin_x2C__block_x2C__chain_x2C__cryptocurrency">
</g>
<g id="_x31_0_mining_x2C__pickaxe_x2C__stone_x2C__mine_x2C___bitcoin_x2C__coin_x2C__cryptocurrency">
</g>
<g id="_x39__miner_x2C__mining_x2C__computer_x2C__pickaxe_x2C__program_x2C__cryptocurrency">
</g>
<g id="_x38__video_card_x2C__mining_x2C__bitcoin_x2C__coin_x2C__block_x2C__chain_x2C__cryptocurrency">
</g>
<g id="_x37__exchanger_x2C__site_x2C__bitcoin_x2C__coin_x2C__block_x2C__chain_x2C__cryptocurrency">
</g>
<g id="_x36__shop_x2C__product_x2C__bitcoin_x2C__coin_x2C__block_x2C__chain_x2C__cryptocurrency">
</g>
<g id="_x35__bitcoin_x2C__coin_x2C__exchange_x2C__block_x2C__chain_x2C__cryptocurrency_x2C__product">
</g>
<g id="_x34__bitcoin_x2C__coin_x2C__exchange_x2C__block_x2C__chain_x2C__cryptocurrency">
</g>
<g id="_x33__bitcoin_x2C__coin_x2C__exchange_x2C__block_x2C__chain_x2C__cryptocurrency">
</g>
<g id="_x32__brain_x2C__smart_x2C__coin_x2C__block_x2C__chain_x2C__cryptocurrency">
	<g>
		<g>
			<path d="M32.024,5c-0.553,0-1.005-0.448-1.005-1s0.442-1,0.994-1h0.011c0.552,0,1,0.448,1,1S32.576,5,32.024,5z"/>
		</g>
		<g>
			<path d="M32.024,53c-0.553,0-1.005-0.447-1.005-1s0.442-1,0.994-1h0.011c0.552,0,1,0.447,1,1S32.576,53,32.024,53z"/>
		</g>
		<g>
			<path d="M27.857,5.365c-0.553,0-1.005-0.448-1.005-1s0.442-1,0.994-1h0.011c0.552,0,1,0.448,1,1S28.409,5.365,27.857,5.365z"/>
		</g>
		<g>
			<path d="M36.192,52.636c-0.553,0-1.005-0.447-1.005-1s0.442-1,0.994-1h0.011c0.552,0,1,0.447,1,1S36.744,52.636,36.192,52.636z"
				/>
		</g>
		<g>
			<path d="M23.816,6.448c-0.553,0-1.005-0.448-1.005-1s0.442-1,0.994-1h0.011c0.552,0,1,0.448,1,1S24.368,6.448,23.816,6.448z"/>
		</g>
		<g>
			<path d="M40.233,51.553c-0.553,0-1.005-0.447-1.005-1s0.442-1,0.994-1h0.011c0.552,0,1,0.447,1,1S40.785,51.553,40.233,51.553z"
				/>
		</g>
		<g>
			<path d="M20.025,8.216c-0.553,0-1.005-0.448-1.005-1s0.442-1,0.994-1h0.011c0.552,0,1,0.448,1,1S20.577,8.216,20.025,8.216z"/>
		</g>
		<g>
			<path d="M44.025,49.785c-0.553,0-1.005-0.447-1.005-1s0.442-1,0.994-1h0.011c0.552,0,1,0.447,1,1S44.577,49.785,44.025,49.785z"
				/>
		</g>
		<g>
			<path d="M16.6,10.615c-0.553,0-1.005-0.448-1.005-1s0.442-1,0.994-1H16.6c0.552,0,1,0.448,1,1S17.151,10.615,16.6,10.615z"/>
		</g>
		<g>
			<path d="M47.453,47.386c-0.553,0-1.005-0.447-1.005-1s0.442-1,0.994-1h0.011c0.552,0,1,0.447,1,1S48.005,47.386,47.453,47.386z"
				/>
		</g>
		<g>
			<path d="M13.642,13.573c-0.553,0-1.005-0.448-1.005-1s0.442-1,0.994-1h0.011c0.552,0,1,0.448,1,1S14.193,13.573,13.642,13.573z"
				/>
		</g>
		<g>
			<path d="M50.412,44.428c-0.553,0-1.005-0.447-1.005-1s0.442-1,0.994-1h0.011c0.552,0,1,0.447,1,1S50.964,44.428,50.412,44.428z"
				/>
		</g>
		<g>
			<path d="M11.242,16.999c-0.553,0-1.005-0.448-1.005-1s0.442-1,0.994-1h0.011c0.552,0,1,0.448,1,1S11.794,16.999,11.242,16.999z"
				/>
		</g>
		<g>
			<path d="M52.813,41c-0.553,0-1.005-0.447-1.005-1s0.442-1,0.994-1h0.011c0.552,0,1,0.447,1,1S53.364,41,52.813,41z"/>
		</g>
		<g>
			<path d="M9.475,20.79c-0.553,0-1.005-0.448-1.005-1s0.442-1,0.994-1h0.011c0.552,0,1,0.448,1,1S10.026,20.79,9.475,20.79z"/>
		</g>
		<g>
			<path d="M54.581,37.208c-0.553,0-1.005-0.447-1.005-1s0.442-1,0.994-1h0.011c0.552,0,1,0.447,1,1S55.133,37.208,54.581,37.208z"
				/>
		</g>
		<g>
			<path d="M8.392,24.83c-0.553,0-1.005-0.448-1.005-1s0.442-1,0.994-1h0.011c0.552,0,1,0.448,1,1S8.943,24.83,8.392,24.83z"/>
		</g>
		<g>
			<path d="M55.664,33.166c-0.553,0-1.005-0.448-1.005-1s0.442-1,0.994-1h0.011c0.552,0,1,0.448,1,1S56.216,33.166,55.664,33.166z"
				/>
		</g>
		<g>
			<path d="M8.027,28.998c-0.553,0-1.005-0.448-1.005-1s0.442-1,0.994-1h0.011c0.552,0,1,0.448,1,1S8.579,28.998,8.027,28.998z"/>
		</g>
		<g>
			<path d="M56.029,28.998c-0.553,0-1.005-0.448-1.005-1s0.442-1,0.994-1h0.011c0.552,0,1,0.448,1,1S56.581,28.998,56.029,28.998z"
				/>
		</g>
		<g>
			<path d="M8.392,33.166c-0.553,0-1.005-0.448-1.005-1s0.442-1,0.994-1h0.011c0.552,0,1,0.448,1,1S8.943,33.166,8.392,33.166z"/>
		</g>
		<g>
			<path d="M55.665,24.83c-0.553,0-1.005-0.448-1.005-1s0.442-1,0.994-1h0.011c0.552,0,1,0.448,1,1S56.217,24.83,55.665,24.83z"/>
		</g>
		<g>
			<path d="M9.475,37.207c-0.553,0-1.005-0.447-1.005-1s0.442-1,0.994-1h0.011c0.552,0,1,0.447,1,1S10.026,37.207,9.475,37.207z"/>
		</g>
		<g>
			<path d="M54.583,20.788c-0.553,0-1.005-0.448-1.005-1s0.442-1,0.994-1h0.011c0.552,0,1,0.448,1,1S55.135,20.788,54.583,20.788z"
				/>
		</g>
		<g>
			<path d="M11.243,40.998c-0.553,0-1.005-0.447-1.005-1s0.442-1,0.994-1h0.011c0.552,0,1,0.447,1,1S11.795,40.998,11.243,40.998z"
				/>
		</g>
		<g>
			<path d="M52.814,16.996c-0.553,0-1.005-0.448-1.005-1s0.442-1,0.994-1h0.011c0.552,0,1,0.448,1,1S53.366,16.996,52.814,16.996z"
				/>
		</g>
		<g>
			<path d="M13.643,44.424c-0.553,0-1.005-0.447-1.005-1s0.442-1,0.994-1h0.011c0.552,0,1,0.447,1,1S14.194,44.424,13.643,44.424z"
				/>
		</g>
		<g>
			<path d="M50.415,13.568c-0.553,0-1.005-0.448-1.005-1s0.442-1,0.994-1h0.011c0.552,0,1,0.448,1,1S50.967,13.568,50.415,13.568z"
				/>
		</g>
		<g>
			<path d="M16.601,47.382c-0.553,0-1.005-0.447-1.005-1s0.442-1,0.994-1h0.011c0.552,0,1,0.447,1,1S17.152,47.382,16.601,47.382z"
				/>
		</g>
		<g>
			<path d="M47.456,10.609c-0.553,0-1.005-0.448-1.005-1s0.442-1,0.994-1h0.011c0.552,0,1,0.448,1,1S48.008,10.609,47.456,10.609z"
				/>
		</g>
		<g>
			<path d="M20.027,49.781c-0.553,0-1.005-0.447-1.005-1s0.442-1,0.994-1h0.011c0.552,0,1,0.447,1,1S20.579,49.781,20.027,49.781z"
				/>
		</g>
		<g>
			<path d="M44.028,8.209c-0.553,0-1.005-0.448-1.005-1s0.442-1,0.994-1h0.011c0.552,0,1,0.448,1,1S44.58,8.209,44.028,8.209z"/>
		</g>
		<g>
			<path d="M23.818,51.549c-0.553,0-1.005-0.447-1.005-1s0.442-1,0.994-1h0.011c0.552,0,1,0.447,1,1S24.37,51.549,23.818,51.549z"/>
		</g>
		<g>
			<path d="M40.236,6.441c-0.553,0-1.005-0.448-1.005-1s0.442-1,0.994-1h0.011c0.552,0,1,0.448,1,1S40.788,6.441,40.236,6.441z"/>
		</g>
		<g>
			<path d="M27.859,52.631c-0.553,0-1.005-0.447-1.005-1s0.442-1,0.994-1h0.011c0.552,0,1,0.447,1,1S28.411,52.631,27.859,52.631z"
				/>
		</g>
		<g>
			<path d="M36.195,5.357c-0.553,0-1.005-0.448-1.005-1s0.442-1,0.994-1h0.011c0.552,0,1,0.448,1,1S36.747,5.357,36.195,5.357z"/>
		</g>
		<g>
			<g>
				<path d="M32,56C16.561,56,4,43.439,4,28S16.561,0,32,0s28,12.561,28,28S47.439,56,32,56z M32,2C17.663,2,6,13.664,6,28
					c0,14.337,11.663,26,26,26s26-11.663,26-26C58,13.664,46.337,2,32,2z"/>
			</g>
			<g>
				<path d="M32,64C16.561,64,4,51.439,4,36c0-0.553,0.447-1,1-1s1,0.447,1,1c0,14.337,11.663,26,26,26s26-11.663,26-26
					c0-0.553,0.447-1,1-1s1,0.447,1,1C60,51.439,47.439,64,32,64z"/>
			</g>
			<g>
				<path d="M5,37c-0.553,0-1-0.447-1-1v-8c0-0.552,0.447-1,1-1s1,0.448,1,1v8C6,36.553,5.553,37,5,37z"/>
			</g>
			<g>
				<path d="M59,37c-0.553,0-1-0.447-1-1v-8c0-0.552,0.447-1,1-1s1,0.448,1,1v8C60,36.553,59.553,37,59,37z"/>
			</g>
			<g>
				<path d="M32,64c-0.553,0-1-0.447-1-1v-8c0-0.553,0.447-1,1-1s1,0.447,1,1v8C33,63.553,32.553,64,32,64z"/>
			</g>
			<g>
				<path d="M21,61.665c-0.553,0-1-0.447-1-1v-8c0-0.553,0.447-1,1-1s1,0.447,1,1v8C22,61.218,21.553,61.665,21,61.665z"/>
			</g>
			<g>
				<path d="M11,53.973c-0.553,0-1-0.447-1-1v-8c0-0.553,0.447-1,1-1s1,0.447,1,1v8C12,53.525,11.553,53.973,11,53.973z"/>
			</g>
			<g>
				<path d="M43,61.679c-0.553,0-1-0.447-1-1v-8c0-0.553,0.447-1,1-1s1,0.447,1,1v8C44,61.231,43.553,61.679,43,61.679z"/>
			</g>
			<g>
				<path d="M53,53.986c-0.553,0-1-0.447-1-1v-8c0-0.553,0.447-1,1-1s1,0.447,1,1v8C54,53.539,53.553,53.986,53,53.986z"/>
			</g>
		</g>
		<g>
			<g>
				<g>
					<path d="M28.494,20c-2.481,0-4.5-2.019-4.5-4.5c0-2.482,2.019-4.501,4.5-4.501s4.501,2.019,4.501,4.501c0,0.552-0.447,1-1,1
						s-1-0.448-1-1c0-1.379-1.122-2.501-2.501-2.501s-2.5,1.122-2.5,2.501c0,1.378,1.121,2.5,2.5,2.5c0.553,0,1,0.448,1,1
						S29.047,20,28.494,20z"/>
				</g>
				<g>
					<path d="M27.494,45c-3.032,0-5.5-2.468-5.5-5.5c0-1.254,0.435-2.481,1.223-3.456c0.347-0.429,0.978-0.495,1.406-0.148
						c0.43,0.348,0.496,0.977,0.148,1.406c-0.509,0.629-0.777,1.389-0.777,2.198c0,1.93,1.57,3.5,3.5,3.5s3.5-1.57,3.5-3.5
						c0-0.553,0.447-1,1-1s1,0.447,1,1C32.994,42.532,30.526,45,27.494,45z"/>
				</g>
				<g>
					<path d="M23.031,41c-3.329,0-6.037-2.691-6.037-6s2.691-6,6-6c0.553,0,1,0.448,1,1s-0.447,1-1,1c-2.206,0-4,1.794-4,4
						c0,2.206,1.812,4,4.037,4c0.553,0,1,0.447,1,1S23.584,41,23.031,41z"/>
				</g>
				<g>
					<path d="M18.316,34.24c-0.218,0-0.438-0.071-0.622-0.218c-1.08-0.86-1.7-2.145-1.7-3.522c0-1.405,0.639-2.704,1.753-3.564
						c0.439-0.339,1.066-0.256,1.403,0.181s0.256,1.065-0.181,1.402c-0.62,0.479-0.976,1.201-0.976,1.981
						c0,0.766,0.345,1.479,0.946,1.958c0.432,0.344,0.503,0.974,0.159,1.405C18.902,34.111,18.61,34.24,18.316,34.24z"/>
				</g>
				<g>
					<path d="M18.36,28.729c-0.251,0-0.502-0.094-0.696-0.282c-1.077-1.044-1.67-2.446-1.67-3.947c0-1.997,1.085-3.84,2.833-4.812
						c0.482-0.268,1.092-0.094,1.359,0.388c0.269,0.483,0.095,1.092-0.389,1.36c-1.112,0.619-1.804,1.792-1.804,3.063
						c0,0.955,0.377,1.847,1.063,2.512c0.396,0.384,0.406,1.018,0.021,1.414C18.882,28.628,18.621,28.729,18.36,28.729z"/>
				</g>
				<g>
					<path d="M20.991,23.464c-0.17,0-0.342-0.043-0.5-0.134c-1.54-0.891-2.497-2.55-2.497-4.33c0-2.757,2.243-5,5-5
						c0.868,0,1.725,0.227,2.476,0.655c0.48,0.273,0.647,0.884,0.374,1.364s-0.885,0.647-1.364,0.374
						C24.029,16.136,23.516,16,22.994,16c-1.654,0-3,1.346-3,3c0,1.068,0.574,2.063,1.499,2.598
						c0.478,0.277,0.642,0.888,0.364,1.366C21.673,23.285,21.337,23.464,20.991,23.464z"/>
				</g>
			</g>
			<g>
				<g>
					<path d="M38.031,18.912c-0.248,0-0.495-0.091-0.688-0.275c-0.4-0.381-0.417-1.014-0.036-1.414
						c0.444-0.467,0.688-1.079,0.688-1.723c0-1.379-1.121-2.501-2.5-2.501s-2.501,1.122-2.501,2.501c0,0.552-0.447,1-1,1
						s-1-0.448-1-1c0-2.482,2.02-4.501,4.501-4.501s4.5,2.019,4.5,4.501c0,1.159-0.44,2.26-1.239,3.101
						C38.56,18.808,38.296,18.912,38.031,18.912z"/>
				</g>
				<g>
					<path d="M36.495,45c-3.032,0-5.5-2.468-5.5-5.5c0-0.553,0.447-1,1-1s1,0.447,1,1c0,1.93,1.57,3.5,3.5,3.5s3.5-1.57,3.5-3.5
						s-1.57-3.5-3.5-3.5c-0.553,0-1-0.447-1-1s0.447-1,1-1c3.032,0,5.5,2.468,5.5,5.5S39.527,45,36.495,45z"/>
				</g>
				<g>
					<path d="M40.958,41c-0.553,0-1-0.447-1-1s0.447-1,1-1c2.226,0,4.037-1.794,4.037-4c0-1.271-0.584-2.438-1.603-3.203
						c-0.441-0.332-0.53-0.958-0.199-1.4c0.332-0.442,0.959-0.53,1.4-0.199c1.526,1.146,2.401,2.896,2.401,4.803
						C46.995,38.309,44.287,41,40.958,41z"/>
				</g>
				<g>
					<path d="M45.673,34.24c-0.295,0-0.586-0.129-0.783-0.377c-0.344-0.432-0.272-1.061,0.159-1.405
						c0.602-0.479,0.946-1.192,0.946-1.958c0-0.78-0.355-1.502-0.976-1.981c-0.437-0.337-0.518-0.965-0.181-1.402
						s0.963-0.52,1.403-0.181c1.114,0.86,1.753,2.159,1.753,3.564c0,1.378-0.62,2.662-1.7,3.522
						C46.11,34.169,45.891,34.24,45.673,34.24z"/>
				</g>
				<g>
					<path d="M45.629,28.729c-0.261,0-0.521-0.102-0.718-0.304c-0.385-0.396-0.375-1.03,0.021-1.414
						c0.686-0.665,1.063-1.557,1.063-2.512c0-1.271-0.691-2.445-1.804-3.063c-0.483-0.268-0.657-0.877-0.389-1.36
						c0.268-0.482,0.878-0.656,1.359-0.388c1.748,0.971,2.833,2.815,2.833,4.812c0,1.501-0.593,2.903-1.67,3.947
						C46.131,28.636,45.88,28.729,45.629,28.729z"/>
				</g>
				<g>
					<path d="M40.995,24c-0.553,0-1-0.448-1-1s0.447-1,1-1c1.654,0,3-1.346,3-3s-1.346-3-3-3c-0.521,0-1.035,0.136-1.485,0.392
						c-0.48,0.273-1.091,0.106-1.364-0.374s-0.106-1.09,0.374-1.364C39.271,14.227,40.127,14,40.995,14c2.757,0,5,2.243,5,5
						S43.752,24,40.995,24z"/>
				</g>
			</g>
			<g>
				<path d="M31.994,40.5c-0.553,0-1-0.447-1-1v-24c0-0.552,0.447-1,1-1s1,0.448,1,1v24C32.994,40.053,32.547,40.5,31.994,40.5z"/>
			</g>
			<g>
				<path d="M32,32c-0.553,0-1-0.448-1-1c0-2.206,1.794-4,4-4c0.553,0,1,0.448,1,1s-0.447,1-1,1c-1.103,0-2,0.897-2,2
					C33,31.552,32.553,32,32,32z"/>
			</g>
			<g>
				<path d="M32,32c-0.553,0-1-0.448-1-1c0-1.103-0.897-2-2-2c-0.553,0-1-0.448-1-1s0.447-1,1-1c2.206,0,4,1.794,4,4
					C33,31.552,32.553,32,32,32z"/>
			</g>
		</g>
	</g>
</g>
<g id="_x31__bitcoin_x2C__coin_x2C__block_x2C__chain_x2C__cryptocurrency">
</g>
</svg>
