<svg xmlns="http://www.w3.org/2000/svg" x="0" y="0" xml:space="preserve" viewBox="0 0 64 64"><path d="M6.03 58.5c-.552 0-1.005-.447-1.005-1s.443-1 .995-1h.01a1 1 0 1 1 0 2zM61.002 47.965A1 1 0 0 1 60.5 46.1a3.01 3.01 0 0 0 1.5-2.6c0-1.654-1.346-3-3-3a1 1 0 1 1 0-2c2.757 0 5 2.243 5 5a5.017 5.017 0 0 1-2.498 4.33.99.99 0 0 1-.5.135z"/><path d="M34.001 62.5a1 1 0 0 1-.475-1.88l27-14.536a1 1 0 0 1 .947 1.761l-27 14.536a.99.99 0 0 1-.472.119z"/><path d="M34.001 62.5a.958.958 0 0 1-.13-.009l-23-3a1 1 0 0 1-.862-1.12c.072-.548.583-.93 1.121-.862l23 3a1 1 0 0 1-.129 1.991z"/><path d="M11 61.5H1a1 1 0 0 1-1-1v-27a1 1 0 0 1 1-1h10a1 1 0 0 1 1 1v27a1 1 0 0 1-1 1zm-9-2h8v-25H2v25zM38.999 43.5a1 1 0 0 1-.149-1.989l19.317-2.94a1 1 0 1 1 .301 1.977l-19.317 2.94a.983.983 0 0 1-.152.012z"/><path d="M35 47.5a1 1 0 1 1 0-2c1.654 0 3-1.346 3-3a2.989 2.989 0 0 0-2.483-2.955 1 1 0 1 1 .34-1.97A4.982 4.982 0 0 1 40 42.5c0 2.757-2.243 5-5 5z"/><path d="M35.688 39.56a.969.969 0 0 1-.192-.019l-15.688-3.06a1 1 0 1 1 .383-1.963l15.688 3.06a1 1 0 0 1-.191 1.982z"/><path d="M20 36.5h-9a1 1 0 1 1 0-2h9a1 1 0 1 1 0 2zM34.58 47.478l-.078-.003-12.58-.978a1 1 0 1 1 .156-1.994l12.579.978a1 1 0 0 1-.077 1.997zM58.315 40.558a.999.999 0 0 1-.168-1.985c.279-.049.565-.073.853-.073a1 1 0 1 1 0 2c-.176 0-.348.015-.515.043a.976.976 0 0 1-.17.015z"/><path d="M35 47.5c-.178 0-.353-.01-.524-.028a1 1 0 0 1-.889-1.1.992.992 0 0 1 1.1-.889c.103.011.208.017.313.017a1 1 0 1 1 0 2z"/><g><path d="M34.035 21.54a1 1 0 0 1-1-1v-12a1 1 0 1 1 2 0v12a1 1 0 0 1-1 1zM39.535 21.54a1 1 0 1 1 0-2c1.379 0 2.5-1.121 2.5-2.5s-1.121-2.5-2.5-2.5a1 1 0 1 1 0-2c2.481 0 4.5 2.019 4.5 4.5s-2.018 4.5-4.5 4.5z"/><path d="M39.535 14.54a1 1 0 1 1 0-2c.827 0 1.5-.673 1.5-1.5s-.673-1.5-1.5-1.5a1 1 0 1 1 0-2c1.93 0 3.5 1.57 3.5 3.5s-1.57 3.5-3.5 3.5z"/><path d="M39.535 9.54h-6.5a1 1 0 1 1 0-2h6.5a1 1 0 1 1 0 2zM39.535 14.54h-5.5a1 1 0 1 1 0-2h5.5a1 1 0 1 1 0 2zM39.535 21.54h-6.5a1 1 0 1 1 0-2h6.5a1 1 0 1 1 0 2z"/><path d="M37.035 9.54a1 1 0 0 1-1-1v-1a1 1 0 1 1 2 0v1a1 1 0 0 1-1 1zM37.035 22.54a1 1 0 0 1-1-1v-1a1 1 0 1 1 2 0v1a1 1 0 0 1-1 1z"/><g><path d="M37.5 28.501c-7.444 0-13.5-6.056-13.5-13.5S30.056 1.5 37.5 1.5 51 7.557 51 15.001s-6.056 13.5-13.5 13.5zm0-25.001C31.159 3.5 26 8.659 26 15.001c0 6.341 5.159 11.5 11.5 11.5S49 21.342 49 15.001C49 8.659 43.841 3.5 37.5 3.5z"/></g><g><path d="M37.5 32.502c-7.444 0-13.5-6.056-13.5-13.5a1 1 0 1 1 2 0c0 6.341 5.159 11.5 11.5 11.5S49 25.343 49 19.002a1 1 0 1 1 2 0c0 7.444-6.056 13.5-13.5 13.5z"/></g><g><path d="M50 20.002a1 1 0 0 1-1-1v-4.001a1 1 0 1 1 2 0v4.001a1 1 0 0 1-1 1z"/></g><g><path d="M25 20.002a1 1 0 0 1-1-1v-4.001a1 1 0 1 1 2 0v4.001a1 1 0 0 1-1 1z"/></g><g><path d="M33 31.666a1 1 0 0 1-1-1v-4.001a1 1 0 1 1 2 0v4.001a1 1 0 0 1-1 1z"/></g><g><path d="M42 31.666a1 1 0 0 1-1-1v-4.001a1 1 0 1 1 2 0v4.001a1 1 0 0 1-1 1z"/></g></g></svg>