<?xml version="1.0" encoding="utf-8"?>
<!-- Generator: Adobe Illustrator 16.0.0, SVG Export Plug-In . SVG Version: 6.00 Build 0)  -->
<!DOCTYPE svg PUBLIC "-//W3C//DTD SVG 1.1//EN" "http://www.w3.org/Graphics/SVG/1.1/DTD/svg11.dtd">
<svg version="1.1" xmlns="http://www.w3.org/2000/svg" xmlns:xlink="http://www.w3.org/1999/xlink" x="0px" y="0px" width="64px"
	 height="64px" viewBox="0 0 64 64" enable-background="new 0 0 64 64" xml:space="preserve">
<g id="_x35_0_code_x2C__programming_x2C__program_x2C__bitcoin_x2C__block_x2C__chain_x2C__cryptocurrency">
</g>
<g id="_x34_9_balloon_x2C__takeoff_x2C__bitcoin_x2C__coin_x2C__block_x2C__chain_x2C__cryptocurrency">
</g>
<g id="_x34_8_video_card_x2C__mining_x2C__farm_x2C__computer_x2C__block_x2C__chain_x2C__cryptocurrency">
</g>
<g id="_x34_7_money_box_x2C__saving_x2C__bitcoin_x2C__coin_x2C__block_x2C__chain_x2C__cryptocurrency">
</g>
<g id="_x34_6_portfolio_x2C__finance_x2C__bank_note_x2C__bitcoin_x2C__coin_x2C__cryptocurrency">
</g>
<g id="_x34_5_tap_x2C__water_x2C__bitcoin_x2C__coin_x2C__block_x2C__chain_x2C__cryptocurrency">
</g>
<g id="_x34_4_phone_x2C__bitcoin_x2C__coin_x2C__block_x2C__chain_x2C__cryptocurrency">
</g>
<g id="_x34_3_rocket_x2C__sun_x2C__bitcoin_x2C__coin_x2C__block_x2C__chain_x2C__cryptocurrency">
</g>
<g id="_x34_2_transfer_x2C__network_x2C__bitcoin_x2C__coin_x2C__block_x2C__chain_x2C__cryptocurrency">
</g>
<g id="_x34_1_scales_x2C__comparison_x2C__bitcoin_x2C__coin_x2C__block_x2C__chain_x2C__cryptocurrency">
</g>
<g id="_x34_0_calculator_x2C__calculating_x2C__bitcoin_x2C__coin_x2C__block_x2C__chain_x2C__cryptocurrency">
</g>
<g id="_x33_9_start-up_x2C__plant_x2C__hand_x2C__bitcoin_x2C__coin_x2C__cryptocurrency">
</g>
<g id="_x33_8_idea_x2C__bulb_x2C__bitcoin_x2C__coin_x2C__block_x2C__chain_x2C__cryptocurrency">
</g>
<g id="_x33_7_users_x2C__user_x2C__co-founder_x2C__bitcoin_x2C__coin_x2C__cryptocurrency">
</g>
<g id="_x33_6_safe_x2C__protection_x2C__bitcoin_x2C__coin_x2C__block_x2C__chain_x2C__cryptocurrency">
</g>
<g id="_x33_5_flash_drive_x2C__key_x2C__block_x2C__chain_x2C__cryptocurrency">
	<g>
		<g>
			<path d="M17.451,18.42c-0.553,0-1.005-0.447-1.005-1s0.442-1,0.994-1h0.011c0.552,0,1,0.447,1,1S18.003,18.42,17.451,18.42z"/>
		</g>
		<g>
			<g>
				<path d="M34.831,57.045c-0.256,0-0.512-0.098-0.707-0.293L4.692,27.32c-3.022-3.022-4.687-7.04-4.687-11.314
					c0-4.273,1.664-8.292,4.687-11.313c3.021-3.022,7.039-4.687,11.313-4.687c4.273,0,8.292,1.664,11.313,4.687l29.433,29.432
					c0.188,0.188,0.293,0.441,0.293,0.707s-0.105,0.52-0.293,0.707L35.538,56.752C35.343,56.947,35.087,57.045,34.831,57.045z
					 M16.006,2.006c-3.74,0-7.256,1.456-9.899,4.101c-2.645,2.645-4.101,6.16-4.101,9.899c0,3.74,1.456,7.256,4.101,9.9
					l28.725,28.725l19.8-19.8L25.905,6.106C23.261,3.462,19.745,2.006,16.006,2.006z"/>
			</g>
			<g>
				<path d="M48.854,63.994c-0.256,0-0.512-0.098-0.707-0.293L37.66,53.216c-0.391-0.391-0.391-1.023,0-1.414s1.023-0.391,1.414,0
					l10.486,10.485c0.391,0.391,0.391,1.023,0,1.414C49.365,63.896,49.109,63.994,48.854,63.994z"/>
			</g>
			<g>
				<path d="M48.854,63.994c-0.256,0-0.512-0.098-0.707-0.293c-0.391-0.391-0.391-1.023,0-1.414l14.141-14.141
					c0.391-0.391,1.023-0.391,1.414,0s0.391,1.023,0,1.414L49.561,63.701C49.365,63.896,49.109,63.994,48.854,63.994z"/>
			</g>
			<g>
				<path d="M62.994,49.854c-0.256,0-0.512-0.098-0.707-0.293L51.802,39.074c-0.391-0.391-0.391-1.023,0-1.414s1.023-0.391,1.414,0
					l10.485,10.486c0.391,0.391,0.391,1.023,0,1.414C63.506,49.756,63.25,49.854,62.994,49.854z"/>
			</g>
			<g>
				<path d="M45.023,54.51c-0.256,0-0.512-0.098-0.707-0.293c-0.391-0.391-0.391-1.023,0-1.414l2.829-2.828
					c0.391-0.391,1.023-0.391,1.414,0s0.391,1.023,0,1.414l-2.829,2.828C45.535,54.412,45.279,54.51,45.023,54.51z"/>
			</g>
			<g>
				<path d="M50.681,48.854c-0.256,0-0.512-0.098-0.707-0.293c-0.391-0.391-0.391-1.023,0-1.414l2.828-2.829
					c0.391-0.391,1.023-0.391,1.414,0s0.391,1.023,0,1.414l-2.828,2.829C51.192,48.756,50.937,48.854,50.681,48.854z"/>
			</g>
		</g>
		<g>
			<path d="M45.023,54.51c-0.256,0-0.512-0.098-0.707-0.293l-0.733-0.733c-0.391-0.391-0.391-1.023,0-1.414s1.023-0.391,1.414,0
				l0.733,0.733c0.391,0.391,0.391,1.023,0,1.414C45.535,54.412,45.279,54.51,45.023,54.51z"/>
		</g>
		<g>
			<path d="M47.853,51.682c-0.256,0-0.512-0.098-0.707-0.293l-0.734-0.734c-0.391-0.391-0.391-1.023,0-1.414s1.023-0.391,1.414,0
				l0.734,0.734c0.391,0.391,0.391,1.023,0,1.414C48.364,51.584,48.108,51.682,47.853,51.682z"/>
		</g>
		<g>
			<path d="M50.68,48.853c-0.256,0-0.513-0.098-0.708-0.293l-0.732-0.733c-0.39-0.392-0.39-1.024,0.001-1.415
				c0.391-0.389,1.024-0.39,1.415,0.001l0.732,0.733c0.39,0.392,0.39,1.024-0.001,1.415C51.191,48.755,50.936,48.853,50.68,48.853z"
				/>
		</g>
		<g>
			<path d="M53.51,46.024c-0.256,0-0.512-0.098-0.707-0.292l-0.734-0.733c-0.391-0.391-0.391-1.023-0.001-1.415
				c0.391-0.391,1.024-0.39,1.415-0.001l0.734,0.733c0.391,0.391,0.391,1.023,0.001,1.415C54.022,45.927,53.766,46.024,53.51,46.024
				z"/>
		</g>
		<g>
			<path d="M20.248,29.249L20.248,29.249c-2.403,0-4.663-0.937-6.362-2.636c-3.51-3.51-3.51-9.22,0-12.729
				c1.699-1.699,3.959-2.636,6.363-2.636s4.664,0.937,6.364,2.637c3.509,3.509,3.509,9.218,0,12.727
				C24.913,28.312,22.652,29.249,20.248,29.249z M20.249,13.248c-1.87,0-3.627,0.729-4.949,2.05c-2.729,2.729-2.729,7.172,0,9.901
				c1.321,1.321,3.079,2.05,4.948,2.05c1.87,0,3.629-0.729,4.951-2.052c2.729-2.729,2.729-7.169,0-9.898
				C23.877,13.977,22.118,13.248,20.249,13.248z"/>
		</g>
		<g>
			<path d="M39.635,37.804c-0.256,0-0.512-0.098-0.707-0.293L26.435,25.018c-0.391-0.391-0.391-1.023,0-1.414s1.023-0.391,1.414,0
				l12.493,12.493c0.391,0.391,0.391,1.023,0,1.414C40.146,37.706,39.891,37.804,39.635,37.804z"/>
		</g>
		<g>
			<path d="M36.806,40.633c-0.256,0-0.512-0.098-0.707-0.293L23.605,27.847c-0.391-0.391-0.391-1.023,0-1.414s1.023-0.391,1.414,0
				l12.493,12.493c0.391,0.391,0.391,1.023,0,1.414C37.317,40.535,37.062,40.633,36.806,40.633z"/>
		</g>
		<g>
			<path d="M36.806,40.633c-0.256,0-0.512-0.098-0.707-0.293c-0.391-0.391-0.391-1.023,0-1.414l2.829-2.829
				c0.391-0.391,1.023-0.391,1.414,0s0.391,1.023,0,1.414l-2.829,2.829C37.317,40.535,37.062,40.633,36.806,40.633z"/>
		</g>
		<g>
			<path d="M32.27,41.755c-0.256,0-0.512-0.098-0.707-0.293c-0.391-0.391-0.391-1.023,0-1.414l2.829-2.829
				c0.391-0.391,1.023-0.391,1.414,0s0.391,1.023,0,1.414l-2.829,2.829C32.781,41.657,32.525,41.755,32.27,41.755z"/>
		</g>
		<g>
			<path d="M32.27,41.755c-0.256,0-0.512-0.098-0.707-0.293l-3.535-3.536c-0.391-0.391-0.391-1.023,0-1.414s1.023-0.391,1.414,0
				l3.535,3.536c0.391,0.391,0.391,1.023,0,1.414C32.781,41.657,32.525,41.755,32.27,41.755z"/>
		</g>
		<g>
			<path d="M28.734,38.219c-0.256,0-0.512-0.098-0.707-0.293c-0.391-0.391-0.391-1.023,0-1.414l2.828-2.828
				c0.391-0.391,1.023-0.391,1.414,0s0.391,1.023,0,1.414l-2.828,2.828C29.246,38.121,28.99,38.219,28.734,38.219z"/>
		</g>
	</g>
</g>
<g id="_x33_4_cloud_x2C__mining_x2C__bitcoin_x2C__coin_x2C__block_x2C__chain_x2C__cryptocurrency">
</g>
<g id="_x33_3_start_up_x2C__plant_x2C__bitcoin_x2C__coin_x2C__block_x2C__chain_x2C__cryptocurrency">
</g>
<g id="_x33_2_planet_x2C__bitcoin_x2C__coin_x2C__block_x2C__chain_x2C__cryptocurrency">
</g>
<g id="_x33_1_payment_x2C__hand_x2C__bitcoin_x2C__coin_x2C__block_x2C__chain_x2C__cryptocurrency">
</g>
<g id="_x33_0_user_x2C__laptop_x2C__bitcoin_x2C__coin_x2C__block_x2C__chain_x2C__cryptocurrency">
</g>
<g id="_x32_9_thief_x2C__bag_x2C__bitcoin_x2C__coin_x2C__block_x2C__chain_x2C__cryptocurrency">
</g>
<g id="_x32_8_code_x2C__programming_x2C__program_x2C__bitcoin_x2C__coin_x2C__cryptocurrency">
</g>
<g id="_x32_7_bitcoin_x2C__coin_x2C__block_x2C__chain_x2C__cryptocurrency">
</g>
<g id="_x32_6_shield_x2C__protection_x2C__bitcoin_x2C__coin_x2C__block_x2C__chain_x2C__cryptocurrency">
</g>
<g id="_x32_5_bug_x2C__laptop_x2C__miner_x2C__program_x2C__block_x2C__chain_x2C__cryptocurrency">
</g>
<g id="_x32_4_computer_x2C__monitor_x2C__bitcoin_x2C__coin_x2C__block_x2C__chain_x2C__cryptocurrency">
</g>
<g id="_x32_3_network_x2C__idea_x2C__bitcoin_x2C__coin_x2C__block_x2C__chain_x2C__cryptocurrency">
</g>
<g id="_x32_2_block_x2C__chain_x2C__cryptocurrency_x2C__technology_x2C__future">
</g>
<g id="_x32_1_smart_contact_x2C__contact_x2C__block_x2C__chain_x2C__cryptocurrency">
</g>
<g id="_x32_0_lock_x2C__safe_x2C__protection_x2C__block_x2C__chain_x2C__cryptocurrency_x2C__program">
</g>
<g id="_x31_9_server_x2C__data_x2C__bitcoin_x2C__coin_x2C__block_x2C__chain_x2C__cryptocurrency">
</g>
<g id="_x31_8_key_x2C__bitcoin_x2C__coin_x2C__block_x2C__chain_x2C__cryptocurrency">
</g>
<g id="_x31_7_pool_x2C__network_x2C__bitcoin_x2C__coin_x2C__block_x2C__chain_x2C__cryptocurrency">
</g>
<g id="_x31_6_mining_x2C__shovel_x2C__mine_x2C__coin_x2C__block_x2C__chain_x2C__cryptocurrency">
</g>
<g id="_x31_5_purse_x2C__bitcoin_x2C__coin_x2C__block_x2C__chain_x2C__cryptocurrency">
</g>
<g id="_x31_4_safe_x2C__protection_x2C__block_x2C__chain_x2C__cryptocurrency_x2C__program">
</g>
<g id="_x31_3_mining_x2C__funnel_x2C__satoshi_x2C__bitcoin_x2C__coin_x2C__cryptocurrency">
</g>
<g id="_x31_2_chart_x2C__bitcoin_x2C__coin_x2C__block_x2C__chain_x2C__cryptocurrency">
</g>
<g id="_x31_1_computer_x2C__monitor_x2C__bitcoin_x2C__coin_x2C__block_x2C__chain_x2C__cryptocurrency">
</g>
<g id="_x31_0_mining_x2C__pickaxe_x2C__stone_x2C__mine_x2C___bitcoin_x2C__coin_x2C__cryptocurrency">
</g>
<g id="_x39__miner_x2C__mining_x2C__computer_x2C__pickaxe_x2C__program_x2C__cryptocurrency">
</g>
<g id="_x38__video_card_x2C__mining_x2C__bitcoin_x2C__coin_x2C__block_x2C__chain_x2C__cryptocurrency">
</g>
<g id="_x37__exchanger_x2C__site_x2C__bitcoin_x2C__coin_x2C__block_x2C__chain_x2C__cryptocurrency">
</g>
<g id="_x36__shop_x2C__product_x2C__bitcoin_x2C__coin_x2C__block_x2C__chain_x2C__cryptocurrency">
</g>
<g id="_x35__bitcoin_x2C__coin_x2C__exchange_x2C__block_x2C__chain_x2C__cryptocurrency_x2C__product">
</g>
<g id="_x34__bitcoin_x2C__coin_x2C__exchange_x2C__block_x2C__chain_x2C__cryptocurrency">
</g>
<g id="_x33__bitcoin_x2C__coin_x2C__exchange_x2C__block_x2C__chain_x2C__cryptocurrency">
</g>
<g id="_x32__brain_x2C__smart_x2C__coin_x2C__block_x2C__chain_x2C__cryptocurrency">
</g>
<g id="_x31__bitcoin_x2C__coin_x2C__block_x2C__chain_x2C__cryptocurrency">
</g>
</svg>
