<svg xmlns="http://www.w3.org/2000/svg" x="0" y="0" xml:space="preserve" viewBox="0 0 64 64"><path d="M31.954 13a1 1 0 1 1 0-2c.275 0 .5-.225.5-.5s-.225-.5-.5-.5a1 1 0 1 1 0-2c1.379 0 2.5 1.121 2.5 2.5s-1.121 2.5-2.5 2.5z"/><path d="M32.454 17a1 1 0 1 1 0-2 1 1 0 0 0 0-2 1 1 0 1 1 0-2c1.654 0 3 1.346 3 3s-1.346 3-3 3z"/><path d="M32.454 13h-3a1 1 0 1 1 0-2h3a1 1 0 1 1 0 2zM32.454 17h-4a1 1 0 1 1 0-2h4a1 1 0 1 1 0 2zM31.954 10h-3.5a1 1 0 1 1 0-2h3.5a1 1 0 1 1 0 2z"/><path d="M29.454 17a1 1 0 0 1-1-1V9a1 1 0 1 1 2 0v7a1 1 0 0 1-1 1z"/><path d="M30.454 10a1 1 0 0 1-1-1V8a1 1 0 1 1 2 0v1a1 1 0 0 1-1 1zM30.454 18a1 1 0 0 1-1-1v-1a1 1 0 1 1 2 0v1a1 1 0 0 1-1 1z"/><path d="M31.495 21c-4.963 0-9-4.037-9-9s4.037-9 9-9 9 4.037 9 9-4.037 9-9 9zm0-16c-3.859 0-7 3.141-7 7s3.141 7 7 7 7-3.141 7-7-3.141-7-7-7zM31.495 61c-12.757 0-21-7.459-21-19.002 0-11.541 8.243-18.998 21-18.998s21 7.457 21 18.998c0 11.543-8.243 19.002-21 19.002zm0-36c-9.186 0-19 4.466-19 16.998 0 12.535 9.814 17.002 19 17.002s19-4.467 19-17.002c0-12.532-9.814-16.998-19-16.998z"/><path d="M23.494 29.408a1.002 1.002 0 0 1-.365-1.932C25.604 26.511 28.496 26 31.495 26c2.995 0 5.887.51 8.36 1.475.515.2.769.78.568 1.295a.998.998 0 0 1-1.295.568C36.884 28.463 34.244 28 31.495 28c-2.752 0-5.394.463-7.637 1.34a.994.994 0 0 1-.364.068zM34.495 64a1 1 0 0 1-1-1v-3.153a1 1 0 1 1 2 0V63a1 1 0 0 1-1 1z"/><path d="M44.495 64h-10a1 1 0 1 1 0-2h10a1 1 0 1 1 0 2z"/><path d="M44.495 64a1 1 0 0 1-1-1v-6.635a1 1 0 1 1 2 0V63a1 1 0 0 1-1 1zM28.495 64a1 1 0 0 1-1-1v-3.153a1 1 0 1 1 2 0V63a1 1 0 0 1-1 1z"/><path d="M28.495 64h-10a1 1 0 1 1 0-2h10a1 1 0 1 1 0 2z"/><path d="M18.495 64a1 1 0 0 1-1-1v-6.635a1 1 0 1 1 2 0V63a1 1 0 0 1-1 1zM49.363 52a1.001 1.001 0 0 1-.442-1.898l8.143-4a1 1 0 0 1 .883 1.795l-8.143 4a1 1 0 0 1-.441.103zM57.504 38a.995.995 0 0 1-.44-.103l-8.141-4a1.001 1.001 0 0 1 .883-1.795l8.141 4A1.001 1.001 0 0 1 57.504 38z"/><g><path d="M57.505 48a1 1 0 0 1-1-.999l-.01-10A1 1 0 0 1 57.494 36h.001a1 1 0 0 1 1 .999l.01 10a1 1 0 0 1-1 1.001z"/></g><g><path d="M46.214 30a1 1 0 0 1-.963-1.274l2.282-8a1.007 1.007 0 0 1 1.236-.688 1 1 0 0 1 .688 1.236l-2.282 8c-.126.44-.527.726-.961.726z"/></g><g><path d="M48.495 22h-6a1 1 0 1 1 0-2h6a1 1 0 1 1 0 2z"/></g><g><path d="M38.497 25.895h-.027a1.001 1.001 0 0 1-.974-1.026A4.975 4.975 0 0 1 42.495 20a1 1 0 1 1 0 2 2.983 2.983 0 0 0-2.999 2.921c-.015.543-.46.974-.999.974z"/></g><g><path d="M39.495 13a1 1 0 0 1-1-1V3a1 1 0 1 1 2 0v9a1 1 0 0 1-1 1z"/></g><g><path d="M31.495 5a1 1 0 0 1-1-1V1a1 1 0 1 1 2 0v3a1 1 0 0 1-1 1z"/></g><g><path d="M23.495 13a1 1 0 0 1-1-1V5a1 1 0 1 1 2 0v7a1 1 0 0 1-1 1z"/></g><g><path d="M11.065 34.826a5.845 5.845 0 0 1-4.141-1.719 4.888 4.888 0 0 1 0-6.904 4.109 4.109 0 0 1 5.807 0 3.49 3.49 0 0 1 0 4.928c-1.127 1.129-3.097 1.129-4.226 0a.999.999 0 1 1 1.414-1.414 1.007 1.007 0 0 0 1.396 0c.58-.579.58-1.521.001-2.1a2.111 2.111 0 0 0-2.979 0 2.885 2.885 0 0 0 0 4.076 3.845 3.845 0 0 0 4.7.585 1 1 0 0 1 1.027 1.717 5.817 5.817 0 0 1-2.999.831z"/></g></svg>