<?xml version="1.0" encoding="utf-8"?>
<!-- Generator: Adobe Illustrator 16.0.0, SVG Export Plug-In . SVG Version: 6.00 Build 0)  -->
<!DOCTYPE svg PUBLIC "-//W3C//DTD SVG 1.1//EN" "http://www.w3.org/Graphics/SVG/1.1/DTD/svg11.dtd">
<svg version="1.1" xmlns="http://www.w3.org/2000/svg" xmlns:xlink="http://www.w3.org/1999/xlink" x="0px" y="0px" width="64px"
	 height="64px" viewBox="0 0 64 64" enable-background="new 0 0 64 64" xml:space="preserve">
<g id="_x35_0_code_x2C__programming_x2C__program_x2C__bitcoin_x2C__block_x2C__chain_x2C__cryptocurrency">
</g>
<g id="_x34_9_balloon_x2C__takeoff_x2C__bitcoin_x2C__coin_x2C__block_x2C__chain_x2C__cryptocurrency">
</g>
<g id="_x34_8_video_card_x2C__mining_x2C__farm_x2C__computer_x2C__block_x2C__chain_x2C__cryptocurrency">
</g>
<g id="_x34_7_money_box_x2C__saving_x2C__bitcoin_x2C__coin_x2C__block_x2C__chain_x2C__cryptocurrency">
</g>
<g id="_x34_6_portfolio_x2C__finance_x2C__bank_note_x2C__bitcoin_x2C__coin_x2C__cryptocurrency">
</g>
<g id="_x34_5_tap_x2C__water_x2C__bitcoin_x2C__coin_x2C__block_x2C__chain_x2C__cryptocurrency">
</g>
<g id="_x34_4_phone_x2C__bitcoin_x2C__coin_x2C__block_x2C__chain_x2C__cryptocurrency">
</g>
<g id="_x34_3_rocket_x2C__sun_x2C__bitcoin_x2C__coin_x2C__block_x2C__chain_x2C__cryptocurrency">
</g>
<g id="_x34_2_transfer_x2C__network_x2C__bitcoin_x2C__coin_x2C__block_x2C__chain_x2C__cryptocurrency">
</g>
<g id="_x34_1_scales_x2C__comparison_x2C__bitcoin_x2C__coin_x2C__block_x2C__chain_x2C__cryptocurrency">
</g>
<g id="_x34_0_calculator_x2C__calculating_x2C__bitcoin_x2C__coin_x2C__block_x2C__chain_x2C__cryptocurrency">
</g>
<g id="_x33_9_start-up_x2C__plant_x2C__hand_x2C__bitcoin_x2C__coin_x2C__cryptocurrency">
</g>
<g id="_x33_8_idea_x2C__bulb_x2C__bitcoin_x2C__coin_x2C__block_x2C__chain_x2C__cryptocurrency">
</g>
<g id="_x33_7_users_x2C__user_x2C__co-founder_x2C__bitcoin_x2C__coin_x2C__cryptocurrency">
</g>
<g id="_x33_6_safe_x2C__protection_x2C__bitcoin_x2C__coin_x2C__block_x2C__chain_x2C__cryptocurrency">
</g>
<g id="_x33_5_flash_drive_x2C__key_x2C__block_x2C__chain_x2C__cryptocurrency">
</g>
<g id="_x33_4_cloud_x2C__mining_x2C__bitcoin_x2C__coin_x2C__block_x2C__chain_x2C__cryptocurrency">
</g>
<g id="_x33_3_start_up_x2C__plant_x2C__bitcoin_x2C__coin_x2C__block_x2C__chain_x2C__cryptocurrency">
</g>
<g id="_x33_2_planet_x2C__bitcoin_x2C__coin_x2C__block_x2C__chain_x2C__cryptocurrency">
</g>
<g id="_x33_1_payment_x2C__hand_x2C__bitcoin_x2C__coin_x2C__block_x2C__chain_x2C__cryptocurrency">
</g>
<g id="_x33_0_user_x2C__laptop_x2C__bitcoin_x2C__coin_x2C__block_x2C__chain_x2C__cryptocurrency">
</g>
<g id="_x32_9_thief_x2C__bag_x2C__bitcoin_x2C__coin_x2C__block_x2C__chain_x2C__cryptocurrency">
</g>
<g id="_x32_8_code_x2C__programming_x2C__program_x2C__bitcoin_x2C__coin_x2C__cryptocurrency">
</g>
<g id="_x32_7_bitcoin_x2C__coin_x2C__block_x2C__chain_x2C__cryptocurrency">
</g>
<g id="_x32_6_shield_x2C__protection_x2C__bitcoin_x2C__coin_x2C__block_x2C__chain_x2C__cryptocurrency">
	<g>
		<g>
			<path d="M30,61.999c-12.131,0-22-9.869-22-22c0-0.553,0.447-1,1-1s1,0.447,1,1c0,11.028,8.972,20,20,20c0.553,0,1,0.447,1,1
				S30.553,61.999,30,61.999z"/>
		</g>
		<g>
			<path d="M42,12c-6.065,0-11-4.935-11-11c0-0.553,0.447-1,1-1s1,0.447,1,1c0,4.963,4.037,9,9,9c0.553,0,1,0.447,1,1
				S42.553,12,42,12z"/>
		</g>
		<g>
			<path d="M34,61.999c-0.553,0-1-0.447-1-1s0.447-1,1-1c11.028,0,20-8.972,20-20c0-0.553,0.447-1,1-1s1,0.447,1,1
				C56,52.13,46.131,61.999,34,61.999z"/>
		</g>
		<g>
			<path d="M51,12c-0.553,0-1-0.447-1-1s0.447-1,1-1c1.654,0,3-1.346,3-3c0-0.553,0.447-1,1-1s1,0.447,1,1C56,9.757,53.757,12,51,12
				z"/>
		</g>
		<g>
			<path d="M51,12h-9c-0.553,0-1-0.447-1-1s0.447-1,1-1h9c0.553,0,1,0.447,1,1S51.553,12,51,12z"/>
		</g>
		<g>
			<path d="M55,40.999c-0.553,0-1-0.447-1-1V7c0-0.553,0.447-1,1-1s1,0.447,1,1v32.999C56,40.552,55.553,40.999,55,40.999z"/>
		</g>
		<g>
			<path d="M22,12c-0.553,0-1-0.447-1-1s0.447-1,1-1c4.963,0,9-4.037,9-9c0-0.553,0.447-1,1-1s1,0.447,1,1C33,7.065,28.065,12,22,12
				z"/>
		</g>
		<g>
			<path d="M13,12c-2.757,0-5-2.243-5-5c0-0.553,0.447-1,1-1s1,0.447,1,1c0,1.654,1.346,3,3,3c0.553,0,1,0.447,1,1S13.553,12,13,12z
				"/>
		</g>
		<g>
			<path d="M22,12h-9c-0.553,0-1-0.447-1-1s0.447-1,1-1h9c0.553,0,1,0.447,1,1S22.553,12,22,12z"/>
		</g>
		<g>
			<path d="M9,40.999c-0.553,0-1-0.447-1-1V7c0-0.553,0.447-1,1-1s1,0.447,1,1v32.999C10,40.552,9.553,40.999,9,40.999z"/>
		</g>
		<g>
			<path d="M32,64c-0.553,0-1-0.447-1-1c0-1.654,1.347-3.001,3.001-3.001c0.553,0,1,0.447,1,1s-0.447,1-1,1
				C33.449,61.999,33,62.448,33,63C33,63.553,32.553,64,32,64z"/>
		</g>
		<g>
			<path d="M32,64c-0.553,0-1-0.447-1-1c0-0.552-0.448-1-1-1c-0.553,0-1-0.447-1-1s0.447-1,1-1c1.654,0,3,1.346,3,3
				C33,63.553,32.553,64,32,64z"/>
		</g>
		<g>
			<path d="M34,57h-4c-9.374,0-17-7.627-17-17.001V16c0-0.553,0.447-1,1-1h8c3.436,0,6.749-1.277,9.332-3.596
				c0.379-0.342,0.957-0.342,1.336,0C35.251,13.723,38.564,15,42,15h8c0.553,0,1,0.447,1,1v23.999C51,49.373,43.374,57,34,57z
				 M15,17v22.999C15,48.271,21.729,55,30,55h4c8.271,0,15-6.729,15-15.001V17h-7c-3.639,0-7.157-1.251-10-3.539
				C29.157,15.749,25.639,17,22,17H15z"/>
		</g>
		<g>
			<g>
				<g>
					<path d="M29.001,40.988c-0.553,0-1-0.447-1-1v-10c0-0.553,0.447-1,1-1s1,0.447,1,1v10
						C30.001,40.541,29.554,40.988,29.001,40.988z"/>
				</g>
				<g>
					<path d="M33.002,34.986c-0.553,0-1-0.447-1-1s0.447-1,1-1c0.551,0,0.999-0.448,0.999-0.999s-0.448-0.999-0.999-0.999
						c-0.553,0-1-0.447-1-1s0.447-1,1-1c1.653,0,2.999,1.346,2.999,2.999S34.655,34.986,33.002,34.986z"/>
				</g>
				<g>
					<path d="M33,40.988c-0.553,0-1-0.447-1-1s0.447-1,1-1c1.104,0,2.001-0.897,2.001-2c0-1.104-0.897-2.002-2.001-2.002
						c-0.553,0-1-0.447-1-1s0.447-1,1-1c2.206,0,4.001,1.795,4.001,4.002C37.001,39.194,35.206,40.988,33,40.988z"/>
				</g>
				<g>
					<path d="M33.002,30.988h-5.001c-0.553,0-1-0.447-1-1s0.447-1,1-1h5.001c0.553,0,1,0.447,1,1S33.555,30.988,33.002,30.988z"/>
				</g>
				<g>
					<path d="M33,40.988h-4.999c-0.553,0-1-0.447-1-1s0.447-1,1-1H33c0.553,0,1,0.447,1,1S33.553,40.988,33,40.988z"/>
				</g>
				<g>
					<path d="M33.002,34.986h-4.001c-0.553,0-1-0.447-1-1s0.447-1,1-1h4.001c0.553,0,1,0.447,1,1S33.555,34.986,33.002,34.986z"/>
				</g>
				<g>
					<path d="M31.001,30.988c-0.553,0-1-0.447-1-1v-1c0-0.553,0.447-1,1-1s1,0.447,1,1v1C32.001,30.541,31.554,30.988,31.001,30.988
						z"/>
				</g>
				<g>
					<path d="M31.001,41.988c-0.553,0-1-0.447-1-1v-1c0-0.553,0.447-1,1-1s1,0.447,1,1v1C32.001,41.541,31.554,41.988,31.001,41.988
						z"/>
				</g>
			</g>
			<g>
				<path d="M31.992,48c-2.271,0-4.515-0.604-6.491-1.745c-3.007-1.735-5.158-4.537-6.056-7.891c-0.898-3.354-0.437-6.856,1.3-9.863
					C23.059,24.491,27.375,22,32.01,22c2.27,0,4.514,0.604,6.489,1.744c3.007,1.735,5.158,4.538,6.057,7.892s0.437,6.856-1.3,9.863
					C40.942,45.509,36.627,48,31.992,48z M32.01,24c-3.922,0-7.575,2.107-9.532,5.501c-1.47,2.545-1.86,5.509-1.101,8.346
					s2.579,5.208,5.124,6.676C28.174,45.489,30.073,46,31.992,46c3.922,0,7.574-2.108,9.531-5.501
					c1.47-2.545,1.86-5.509,1.101-8.346c-0.76-2.838-2.58-5.209-5.125-6.677C35.826,24.511,33.929,24,32.01,24z"/>
			</g>
		</g>
	</g>
</g>
<g id="_x32_5_bug_x2C__laptop_x2C__miner_x2C__program_x2C__block_x2C__chain_x2C__cryptocurrency">
</g>
<g id="_x32_4_computer_x2C__monitor_x2C__bitcoin_x2C__coin_x2C__block_x2C__chain_x2C__cryptocurrency">
</g>
<g id="_x32_3_network_x2C__idea_x2C__bitcoin_x2C__coin_x2C__block_x2C__chain_x2C__cryptocurrency">
</g>
<g id="_x32_2_block_x2C__chain_x2C__cryptocurrency_x2C__technology_x2C__future">
</g>
<g id="_x32_1_smart_contact_x2C__contact_x2C__block_x2C__chain_x2C__cryptocurrency">
</g>
<g id="_x32_0_lock_x2C__safe_x2C__protection_x2C__block_x2C__chain_x2C__cryptocurrency_x2C__program">
</g>
<g id="_x31_9_server_x2C__data_x2C__bitcoin_x2C__coin_x2C__block_x2C__chain_x2C__cryptocurrency">
</g>
<g id="_x31_8_key_x2C__bitcoin_x2C__coin_x2C__block_x2C__chain_x2C__cryptocurrency">
</g>
<g id="_x31_7_pool_x2C__network_x2C__bitcoin_x2C__coin_x2C__block_x2C__chain_x2C__cryptocurrency">
</g>
<g id="_x31_6_mining_x2C__shovel_x2C__mine_x2C__coin_x2C__block_x2C__chain_x2C__cryptocurrency">
</g>
<g id="_x31_5_purse_x2C__bitcoin_x2C__coin_x2C__block_x2C__chain_x2C__cryptocurrency">
</g>
<g id="_x31_4_safe_x2C__protection_x2C__block_x2C__chain_x2C__cryptocurrency_x2C__program">
</g>
<g id="_x31_3_mining_x2C__funnel_x2C__satoshi_x2C__bitcoin_x2C__coin_x2C__cryptocurrency">
</g>
<g id="_x31_2_chart_x2C__bitcoin_x2C__coin_x2C__block_x2C__chain_x2C__cryptocurrency">
</g>
<g id="_x31_1_computer_x2C__monitor_x2C__bitcoin_x2C__coin_x2C__block_x2C__chain_x2C__cryptocurrency">
</g>
<g id="_x31_0_mining_x2C__pickaxe_x2C__stone_x2C__mine_x2C___bitcoin_x2C__coin_x2C__cryptocurrency">
</g>
<g id="_x39__miner_x2C__mining_x2C__computer_x2C__pickaxe_x2C__program_x2C__cryptocurrency">
</g>
<g id="_x38__video_card_x2C__mining_x2C__bitcoin_x2C__coin_x2C__block_x2C__chain_x2C__cryptocurrency">
</g>
<g id="_x37__exchanger_x2C__site_x2C__bitcoin_x2C__coin_x2C__block_x2C__chain_x2C__cryptocurrency">
</g>
<g id="_x36__shop_x2C__product_x2C__bitcoin_x2C__coin_x2C__block_x2C__chain_x2C__cryptocurrency">
</g>
<g id="_x35__bitcoin_x2C__coin_x2C__exchange_x2C__block_x2C__chain_x2C__cryptocurrency_x2C__product">
</g>
<g id="_x34__bitcoin_x2C__coin_x2C__exchange_x2C__block_x2C__chain_x2C__cryptocurrency">
</g>
<g id="_x33__bitcoin_x2C__coin_x2C__exchange_x2C__block_x2C__chain_x2C__cryptocurrency">
</g>
<g id="_x32__brain_x2C__smart_x2C__coin_x2C__block_x2C__chain_x2C__cryptocurrency">
</g>
<g id="_x31__bitcoin_x2C__coin_x2C__block_x2C__chain_x2C__cryptocurrency">
</g>
</svg>
