<svg xmlns="http://www.w3.org/2000/svg" x="0" y="0" xml:space="preserve" viewBox="0 0 64 64"><path d="M49.5 58.006h-40a1 1 0 0 1-1-1v-56a1 1 0 0 1 1-1h34c.265 0 .519.105.706.292l6 5.988a.998.998 0 0 1 .294.708v50.012a1 1 0 0 1-1 1zm-39-2h38V7.409l-5.414-5.403H10.5v54z"/><path d="M46.506 61a1 1 0 0 1-1-.998l-.006-2.994a1 1 0 0 1 .998-1.002h.002a1 1 0 0 1 1 .998l.006 2.994A1 1 0 0 1 46.508 61h-.002z"/><path d="M46.506 61H6.5a1 1 0 1 1 0-2h40.006a1 1 0 1 1 0 2zM9.5 5.006h-.002L6.504 5a1 1 0 0 1 .002-2h.002l2.994.006a1 1 0 0 1-.002 2z"/><path d="M6.506 61a1 1 0 0 1-1-1V4a1 1 0 1 1 2 0v56a1 1 0 0 1-1 1zM43.506 63.994a1 1 0 0 1-1-.998l-.006-2.994A1 1 0 0 1 43.498 59h.002a1 1 0 0 1 1 .998l.006 2.994a1 1 0 0 1-.998 1.002h-.002z"/><path d="M43.506 63.994H3.5a1 1 0 1 1 0-2h40.006a1 1 0 1 1 0 2zM6.5 8h-.002l-2.994-.006a1 1 0 0 1 .002-2h.002L6.502 6A1 1 0 0 1 6.5 8z"/><path d="M3.506 63.994a1 1 0 0 1-1-1v-56a1 1 0 1 1 2 0v56a1 1 0 0 1-1 1zM49.5 7.994h-6a1 1 0 1 1 0-2h6a1 1 0 1 1 0 2z"/><path d="M43.5 7.87a1 1 0 0 1-1-1V1.006a1 1 0 1 1 2 0V6.87a1 1 0 0 1-1 1zM57.5 13.994a1 1 0 0 1-1-1 1 1 0 0 0-2 0 1 1 0 1 1-2 0c0-1.654 1.346-3 3-3s3 1.346 3 3a1 1 0 0 1-1 1z"/><path d="M53.5 47.994a1 1 0 0 1-1-1v-34a1 1 0 1 1 2 0v34a1 1 0 0 1-1 1zM57.5 47.994a1 1 0 0 1-1-1v-34a1 1 0 1 1 2 0v34a1 1 0 0 1-1 1z"/><path d="M55.501 50.994a.998.998 0 0 1-.833-.445l-2-3a1 1 0 1 1 1.664-1.11l2 3a1 1 0 0 1-.831 1.555z"/><path d="M55.499 50.994a1 1 0 0 1-.831-1.555l2-3a1 1 0 1 1 1.664 1.11l-2 3a.998.998 0 0 1-.833.445z"/><path d="M55.5 51.994a1 1 0 0 1-1-1v-1a1 1 0 1 1 2 0v1a1 1 0 0 1-1 1zM57.5 45.994h-4a1 1 0 1 1 0-2h4a1 1 0 1 1 0 2zM60.5 16.994a1 1 0 0 1-1-1 1 1 0 0 0-1-1 1 1 0 1 1 0-2c1.654 0 3 1.346 3 3a1 1 0 0 1-1 1z"/><path d="M60.5 28.994a1 1 0 0 1-1-1v-12a1 1 0 1 1 2 0v12a1 1 0 0 1-1 1zM58.5 14.994h-1a1 1 0 1 1 0-2h1a1 1 0 1 1 0 2zM57.5 23.994h-4a1 1 0 1 1 0-2h4a1 1 0 1 1 0 2zM17.5 15.994c-1.654 0-3-1.346-3-3v-3c0-1.654 1.346-3 3-3s3 1.346 3 3v3c0 1.654-1.346 3-3 3zm0-7c-.551 0-1 .448-1 1v3a1.001 1.001 0 0 0 2 0v-3c0-.552-.449-1-1-1zM17.5 27.994c-1.654 0-3-1.346-3-3v-3c0-1.654 1.346-3 3-3s3 1.346 3 3v3c0 1.654-1.346 3-3 3zm0-7c-.551 0-1 .448-1 1v3a1.001 1.001 0 0 0 2 0v-3c0-.552-.449-1-1-1z"/><path d="M17.5 21.994a1 1 0 0 1-1-1v-7a1 1 0 1 1 2 0v7a1 1 0 0 1-1 1zM17.5 39.994c-1.654 0-3-1.346-3-3v-3c0-1.654 1.346-3 3-3s3 1.346 3 3v3c0 1.654-1.346 3-3 3zm0-7c-.551 0-1 .448-1 1v3a1.001 1.001 0 0 0 2 0v-3c0-.552-.449-1-1-1z"/><path d="M17.5 33.994a1 1 0 0 1-1-1v-7a1 1 0 1 1 2 0v7a1 1 0 0 1-1 1zM17.5 51.994c-1.654 0-3-1.346-3-3v-3c0-1.654 1.346-3 3-3s3 1.346 3 3v3c0 1.654-1.346 3-3 3zm0-7c-.551 0-1 .448-1 1v3a1.001 1.001 0 0 0 2 0v-3c0-.552-.449-1-1-1z"/><path d="M17.5 45.994a1 1 0 0 1-1-1v-7a1 1 0 1 1 2 0v7a1 1 0 0 1-1 1z"/><g><path d="M43.5 18.994h-18a1 1 0 1 1 0-2h18a1 1 0 1 1 0 2z"/></g><g><path d="M43.5 24.994h-18a1 1 0 1 1 0-2h18a1 1 0 1 1 0 2z"/></g><g><path d="M43.5 30.994h-18a1 1 0 1 1 0-2h18a1 1 0 1 1 0 2z"/></g><g><path d="M43.5 36.994h-18a1 1 0 1 1 0-2h18a1 1 0 1 1 0 2z"/></g><g><path d="M43.5 42.994h-18a1 1 0 1 1 0-2h18a1 1 0 1 1 0 2z"/></g></svg>