<svg xmlns="http://www.w3.org/2000/svg" viewBox="0 0 64 64"><path d="M3.015 18.5c-1.654 0-3-1.346-3-3a1 1 0 112 0 1.001 1.001 0 002 0 1 1 0 112 0c0 1.654-1.346 3-3 3z"/><path d="M7.015 18.5c-1.654 0-3-1.346-3-3a1 1 0 112 0 1.001 1.001 0 002 0 1 1 0 112 0c0 1.654-1.346 3-3 3z"/><path d="M11.015 18.5c-1.654 0-3-1.346-3-3a1 1 0 112 0 1.001 1.001 0 002 0 1 1 0 112 0c0 1.654-1.346 3-3 3z"/><path d="M15.015 18.5c-1.654 0-3-1.346-3-3a1 1 0 112 0 1.001 1.001 0 002 0 1 1 0 112 0c0 1.654-1.346 3-3 3z"/><path d="M19.015 18.5c-1.654 0-3-1.346-3-3a1 1 0 112 0 1.001 1.001 0 002 0 1 1 0 112 0c0 1.654-1.346 3-3 3z"/><path d="M23.015 18.5c-1.654 0-3-1.346-3-3a1 1 0 112 0 1.001 1.001 0 002 0 1 1 0 112 0c0 1.654-1.346 3-3 3z"/><path d="M27.015 18.5c-1.654 0-3-1.346-3-3a1 1 0 112 0 1.001 1.001 0 002 0 1 1 0 112 0c0 1.654-1.346 3-3 3z"/><path d="M31.015 18.5c-1.654 0-3-1.346-3-3a1 1 0 112 0 1.001 1.001 0 002 0 1 1 0 112 0c0 1.654-1.346 3-3 3z"/><path d="M35.015 18.5c-1.654 0-3-1.346-3-3a1 1 0 112 0 1.001 1.001 0 002 0 1 1 0 112 0c0 1.654-1.346 3-3 3z"/><path d="M39.015 18.5c-1.654 0-3-1.346-3-3a1 1 0 112 0 1.001 1.001 0 002 0 1 1 0 112 0c0 1.654-1.346 3-3 3z"/><path d="M43.015 18.5c-1.654 0-3-1.346-3-3a1 1 0 112 0 1.001 1.001 0 002 0 1 1 0 112 0c0 1.654-1.346 3-3 3z"/><path d="M47.015 18.5c-1.654 0-3-1.346-3-3a1 1 0 112 0 1.001 1.001 0 002 0 1 1 0 112 0c0 1.654-1.346 3-3 3z"/><path d="M51.015 18.5c-1.654 0-3-1.346-3-3a1 1 0 112 0 1.001 1.001 0 002 0 1 1 0 112 0c0 1.654-1.346 3-3 3z"/><path d="M55.015 18.5c-1.654 0-3-1.346-3-3a1 1 0 112 0 1.001 1.001 0 002 0 1 1 0 112 0c0 1.654-1.346 3-3 3zM1.015 14.5a.999.999 0 01-.707-1.707l4-4a.999.999 0 111.414 1.414l-4 4a.999.999 0 01-.707.293z"/><path d="M1.015 16.5a1 1 0 01-1-1v-2a1 1 0 112 0v2a1 1 0 01-1 1zM57.015 14.5a.997.997 0 01-.707-.293l-4-4a.999.999 0 111.414-1.414l4 4a.999.999 0 01-.707 1.707z"/><path d="M57.015 16.5a1 1 0 01-1-1v-2a1 1 0 112 0v2a1 1 0 01-1 1zM53.015 10.5h-48a1 1 0 110-2h48a1 1 0 110 2z"/><path d="M5.015 10.5a1 1 0 01-1-1v-3a1 1 0 112 0v3a1 1 0 01-1 1zM53.015 10.5a1 1 0 01-1-1v-3a1 1 0 112 0v3a1 1 0 01-1 1z"/><path d="M5.015 7.5a1 1 0 01-1-1c0-1.654 1.346-3 3-3a1 1 0 110 2c-.552 0-1 .449-1 1a1 1 0 01-1 1zM53.015 7.5a1 1 0 01-1-1c0-.551-.448-1-1-1a1 1 0 110-2c1.654 0 3 1.346 3 3a1 1 0 01-1 1z"/><path d="M51.015 5.5h-44a1 1 0 110-2h44a1 1 0 110 2zM4.985 46.5a1 1 0 01-1-1.001l.029-30a1 1 0 011-.999h.001a1 1 0 01.999 1.001l-.029 30a1 1 0 01-1 .999zM53.015 36.501a1 1 0 01-1-1V15.5a1 1 0 112 0v20.001a1 1 0 01-1 1z"/><path d="M43.015 46.5H4.985a1 1 0 110-2h38.029a1 1 0 11.001 2z"/><path d="M36.985 46.5a1 1 0 01-1-1v-22a1 1 0 011-1h11a1 1 0 011 1v13.342a1 1 0 11-2 0V24.5h-9v21a1 1 0 01-1 1z"/><path d="M47.985 35.5h-11a1 1 0 110-2h11a1 1 0 110 2zM32.985 38.5h-24a1 1 0 01-1-1v-14a1 1 0 011-1h24a1 1 0 011 1v14a1 1 0 01-1 1zm-23-2h22v-12h-22v12z"/><path d="M25.985 34.5h-10a1 1 0 01-1-1v-4a1 1 0 011-1h10a1 1 0 011 1v4a1 1 0 01-1 1zm-9-2h8v-2h-8v2z"/><path d="M17.985 30.5a.999.999 0 01-.707-1.707l3-3a.999.999 0 111.414 1.414l-3 3a.997.997 0 01-.707.293z"/><path d="M23.985 30.5a.997.997 0 01-.707-.293l-3-3a.999.999 0 111.414-1.414l3 3a.999.999 0 01-.707 1.707zM32.985 46.5h-24a1 1 0 01-1-1v-3a1 1 0 011-1h24a1 1 0 011 1v3a1 1 0 01-1 1zm-23-2h22v-1h-22v1z"/><path d="M10.985 43.5a1 1 0 01-1-1v-1a1 1 0 112 0v1a1 1 0 01-1 1zM14.985 43.5a1 1 0 01-1-1v-1a1 1 0 112 0v1a1 1 0 01-1 1zM18.985 43.5a1 1 0 01-1-1v-1a1 1 0 112 0v1a1 1 0 01-1 1zM22.985 43.5a1 1 0 01-1-1v-1a1 1 0 112 0v1a1 1 0 01-1 1zM26.985 43.5a1 1 0 01-1-1v-1a1 1 0 112 0v1a1 1 0 01-1 1zM30.985 43.5a1 1 0 01-1-1v-1a1 1 0 112 0v1a1 1 0 01-1 1z"/><g><path d="M52.985 56.501c-6.065 0-11-4.935-11-11s4.935-11 11-11 11 4.935 11 11-4.934 11-11 11zm0-20c-4.963 0-9 4.037-9 9s4.037 9 9 9 9-4.037 9-9-4.037-9-9-9z"/></g><g><path d="M52.985 60.5c-6.065 0-11-4.935-11-11a1 1 0 112 0c0 4.963 4.037 9 9 9s9-4.037 9-9a1 1 0 112 0c0 6.065-4.934 11-11 11z"/></g><g><path d="M42.985 50.5a1 1 0 01-1-1v-3.999a1 1 0 112 0V49.5a1 1 0 01-1 1z"/></g><g><path d="M62.985 50.5a1 1 0 01-1-1v-3.999a1 1 0 112 0V49.5a1 1 0 01-1 1z"/></g><g><path d="M50.985 50.501a1 1 0 01-1-1v-9a1 1 0 112 0v9a1 1 0 01-1 1zM53.985 45.5a1 1 0 110-2 1 1 0 000-1.999 1 1 0 110-2c1.654 0 3 1.346 3 2.999 0 1.654-1.345 3-3 3z"/><path d="M54.484 50.501a1 1 0 110-2 1.502 1.502 0 000-3.002 1 1 0 110-2 3.505 3.505 0 013.501 3.502c0 1.93-1.57 3.5-3.501 3.5zM53.985 41.501h-4a1 1 0 110-2h4a1 1 0 110 2z"/><path d="M54.484 50.501h-4.499a1 1 0 110-2h4.499a1 1 0 110 2zM50.985 45.501a1 1 0 01-.001-2l3.499-.002h.001a1 1 0 01.001 2l-3.5.002zM52.985 41.501a1 1 0 01-1-1V39.5a1 1 0 112 0v1.001a1 1 0 01-1 1z"/><path d="M52.985 51.501a1 1 0 01-1-1v-1a1 1 0 112 0v1a1 1 0 01-1 1z"/></g><g><path d="M52.985 60.5a1 1 0 01-1-1v-3.999a1 1 0 112 0V59.5a1 1 0 01-1 1z"/></g><g><path d="M57.985 59.161a1 1 0 01-1-1v-3.998a1 1 0 112 0v3.998a1 1 0 01-1 1z"/></g><g><path d="M47.985 59.161a1 1 0 01-1-1v-3.998a1 1 0 112 0v3.998a1 1 0 01-1 1z"/></g></svg>