<svg xmlns="http://www.w3.org/2000/svg" viewBox="0 0 64 64"><path d="M49.006 58c-8.271 0-15-6.729-15-15s6.729-15 15-15 15 6.729 15 15-6.729 15-15 15zm0-28c-7.168 0-13 5.832-13 13s5.832 13 13 13 13-5.832 13-13-5.832-13-13-13z"/><path d="M49.006 64c-8.271 0-15-6.729-15-15a1 1 0 112 0c0 7.168 5.832 13 13 13s13-5.832 13-13a1 1 0 112 0c0 8.271-6.729 15-15 15z"/><path d="M63.004 50a1 1 0 01-1-1v-6a1 1 0 112 0v6a1 1 0 01-1 1zM35.004 50a1 1 0 01-1-1v-6a1 1 0 112 0v6a1 1 0 01-1 1zM49.006 64a1 1 0 01-1-1v-6a1 1 0 112 0v6a1 1 0 01-1 1zM40.988 61.479a1 1 0 01-1-1v-6a1 1 0 112 0v6a1 1 0 01-1 1zM56.988 61.479a1 1 0 01-1-1v-6a1 1 0 112 0v6a1 1 0 01-1 1z"/><g><path d="M14.996 30c-8.271 0-15-6.729-15-15s6.729-15 15-15 15 6.729 15 15-6.728 15-15 15zm0-28c-7.168 0-13 5.832-13 13s5.832 13 13 13 13-5.832 13-13-5.832-13-13-13z"/><path d="M14.996 36c-8.271 0-15-6.729-15-15a1 1 0 112 0c0 7.168 5.832 13 13 13s13-5.832 13-13a1 1 0 112 0c0 8.271-6.728 15-15 15z"/><path d="M28.994 22a1 1 0 01-1-1v-6a1 1 0 112 0v6a1 1 0 01-1 1zM.994 22a1 1 0 01-1-1v-6a1 1 0 112 0v6a1 1 0 01-1 1zM14.996 36a1 1 0 01-1-1v-6a1 1 0 112 0v6a1 1 0 01-1 1zM6.979 33.479a1 1 0 01-1-1v-6a1 1 0 112 0v6a1 1 0 01-1 1zM22.979 33.479a1 1 0 01-1-1v-6a1 1 0 112 0v6a1 1 0 01-1 1z"/><g><path d="M11.014 23a1 1 0 01-1-1V8a1 1 0 112 0v14a1 1 0 01-1 1zM16.014 15a1 1 0 110-2c1.103 0 2-.897 2-2s-.897-2-2-2a1 1 0 110-2c2.206 0 4 1.794 4 4s-1.794 4-4 4z"/><path d="M16.014 23a1 1 0 110-2c1.654 0 3-1.346 3-3s-1.346-3-3-3a1 1 0 110-2c2.757 0 5 2.243 5 5s-2.243 5-5 5zM16.014 9h-6a1 1 0 110-2h6a1 1 0 110 2z"/><path d="M16.014 15h-5a1 1 0 110-2h5a1 1 0 110 2zM16.514 23h-6.5a1 1 0 110-2h6.5a1 1 0 110 2zM12.014 9a1 1 0 01-1-1V7a1 1 0 112 0v1a1 1 0 01-1 1zM15.014 9a1 1 0 01-1-1V7a1 1 0 112 0v1a1 1 0 01-1 1z"/><path d="M12.014 24a1 1 0 01-1-1v-1a1 1 0 112 0v1a1 1 0 01-1 1zM15.014 24a1 1 0 01-1-1v-1a1 1 0 112 0v1a1 1 0 01-1 1z"/></g></g><g><path d="M45.005 40a1 1 0 01-.556-1.832l6-4a1 1 0 011.11 1.664l-6 4a1.004 1.004 0 01-.554.168z"/><path d="M51.004 51a1 1 0 01-1-1V35a1 1 0 112 0v15a1 1 0 01-1 1zM47.004 51a1 1 0 01-1-1V37.667a1 1 0 112 0V50a1 1 0 01-1 1z"/><path d="M53.004 51h-8a1 1 0 110-2h8a1 1 0 110 2z"/></g><g><path d="M14.996 47a1 1 0 01-1-1v-7a1 1 0 112 0v7a1 1 0 01-1 1z"/><path d="M30.996 47h-16a1 1 0 110-2h16a1 1 0 110 2z"/><path d="M27.996 50a.999.999 0 01-.707-1.707l3-3a.999.999 0 111.414 1.414l-3 3a.997.997 0 01-.707.293z"/><path d="M30.996 47a.997.997 0 01-.707-.293l-3-3a.999.999 0 111.414-1.414l3 3A.999.999 0 0130.996 47z"/></g><g><path d="M48.996 26a1 1 0 01-1-1v-7a1 1 0 112 0v7a1 1 0 01-1 1z"/><path d="M48.996 19h-16a1 1 0 110-2h16a1 1 0 110 2z"/><path d="M32.996 19a.999.999 0 01-.707-1.707l3-3a.999.999 0 111.414 1.414l-3 3a.997.997 0 01-.707.293z"/><path d="M35.996 22a.997.997 0 01-.707-.293l-3-3a.999.999 0 111.414-1.414l3 3A.999.999 0 0135.996 22z"/></g></svg>