<svg xmlns="http://www.w3.org/2000/svg" viewBox="0 0 64 64"><path d="M60.5 63.997h-17a1 1 0 01-1-1v-3.998a1 1 0 011-1h17a1 1 0 011 1v3.998a1 1 0 01-1 1zm-16-2h15v-1.998h-15v1.998z"/><path d="M55.5 63.997a1 1 0 01-1-1v-3.998a1 1 0 112 0v3.998a1 1 0 01-1 1zM48.5 63.997a1 1 0 01-1-1v-4a1 1 0 112 0v4a1 1 0 01-1 1zM40.5 63.997h-17a1 1 0 01-1-1v-3.998a1 1 0 011-1h17a1 1 0 011 1v3.998a1 1 0 01-1 1zm-16-2h15v-1.998h-15v1.998z"/><path d="M35.5 63.997a1 1 0 01-1-1v-3.998a1 1 0 112 0v3.998a1 1 0 01-1 1zM28.5 63.997a1 1 0 01-1-1v-4a1 1 0 112 0v4a1 1 0 01-1 1zM20.5 63.997h-17a1 1 0 01-1-1v-3.998a1 1 0 011-1h17a1 1 0 011 1v3.998a1 1 0 01-1 1zm-16-2h15v-1.998h-15v1.998z"/><path d="M15.5 63.997a1 1 0 01-1-1v-3.998a1 1 0 112 0v3.998a1 1 0 01-1 1zM8.5 63.997a1 1 0 01-1-1v-4a1 1 0 112 0v4a1 1 0 01-1 1zM30.5 56.997h-17a1 1 0 01-1-1v-3.998a1 1 0 011-1h17a1 1 0 011 1v3.998a1 1 0 01-1 1zm-16-2h15v-1.998h-15v1.998z"/><path d="M25.5 56.997a1 1 0 01-1-1v-3.998a1 1 0 112 0v3.998a1 1 0 01-1 1zM18.5 56.997a1 1 0 01-1-1v-4a1 1 0 112 0v4a1 1 0 01-1 1zM40.5 49.997h-17a1 1 0 01-1-1v-3.998a1 1 0 011-1h17a1 1 0 011 1v3.998a1 1 0 01-1 1zm-16-2h15v-1.998h-15v1.998z"/><path d="M35.5 49.997a1 1 0 01-1-1v-3.998a1 1 0 112 0v3.998a1 1 0 01-1 1zM28.5 49.997a1 1 0 01-1-1v-4a1 1 0 112 0v4a1 1 0 01-1 1zM50.5 56.997h-17a1 1 0 01-1-1v-3.998a1 1 0 011-1h17a1 1 0 011 1v3.998a1 1 0 01-1 1zm-16-2h15v-1.998h-15v1.998z"/><path d="M45.5 56.997a1 1 0 01-1-1v-3.998a1 1 0 112 0v3.998a1 1 0 01-1 1zM38.5 56.997a1 1 0 01-1-1v-4a1 1 0 112 0v4a1 1 0 01-1 1z"/><g><path d="M30.501 31.004a1 1 0 01-1-1V12.013a1 1 0 112 0v17.991a1 1 0 01-1 1zM33.5 31.004a1 1 0 01-1-1l.001-17.99a1 1 0 112 0l-.001 17.99a1 1 0 01-1 1z"/><path d="M35.507 13.007h-.003a1 1 0 01.001-2h.002a.993.993 0 00.998-.999 1 1 0 01.999-1.001h.001a1 1 0 011 .999 2.974 2.974 0 01-.878 2.123 2.979 2.979 0 01-2.12.878zM28.497 13.007a3.006 3.006 0 01-2.999-2.998.988.988 0 011-1.002 1 1 0 011 .998c.001.553.449 1.002.999 1.002a1 1 0 110 2z"/><path d="M28.501 13.013a1 1 0 01-.001-2l7.004-.006h.001a1 1 0 01.001 2l-7.005.006zM26.498 11.007a1 1 0 01-1-1l.002-9.004a1 1 0 112 0l-.002 9.004a1 1 0 01-1 1z"/><path d="M37.505 2.003H26.5a1 1 0 110-2h11.005a1 1 0 110 2z"/><path d="M37.505 11.007a1 1 0 01-1-1V1.003a1 1 0 112 0v9.004a1 1 0 01-1 1z"/><path d="M37.505 5.003H26.5a1 1 0 110-2h11.005a1 1 0 110 2z"/><path d="M34.501 10.003a1 1 0 01-1-.999l-.003-5a1 1 0 01.999-1.001h.001a1 1 0 011 .999l.003 5a1 1 0 01-1 1.001z"/><path d="M34.501 10.003h-5.002a1 1 0 110-2h5.002a1 1 0 110 2z"/><path d="M29.499 10.003a1 1 0 01-1-1v-5a1 1 0 112 0v5a1 1 0 01-1 1zM32 42.997a1 1 0 01-.004-2c.569-.006 5.504-.257 5.504-6.999a1 1 0 112 0c0 8.897-7.425 8.999-7.5 8.999z"/><path d="M32 42.997c-.075 0-7.5-.103-7.5-8.999a1 1 0 112 0c0 6.92 5.275 6.999 5.5 6.999a1 1 0 110 2z"/><path d="M25.5 34.998a1 1 0 01-1-1v-4a1 1 0 112 0v4a1 1 0 01-1 1zM38.5 34.998a1 1 0 01-1-1l.001-4a1 1 0 112 0l-.001 4a1 1 0 01-1 1z"/><path d="M38.501 30.998H25.5a1 1 0 110-2h13.001a1 1 0 110 2z"/></g></svg>