<?xml version="1.0" encoding="utf-8"?>
<!-- Generator: Adobe Illustrator 16.0.0, SVG Export Plug-In . SVG Version: 6.00 Build 0)  -->
<!DOCTYPE svg PUBLIC "-//W3C//DTD SVG 1.1//EN" "http://www.w3.org/Graphics/SVG/1.1/DTD/svg11.dtd">
<svg version="1.1" xmlns="http://www.w3.org/2000/svg" xmlns:xlink="http://www.w3.org/1999/xlink" x="0px" y="0px" width="64px"
	 height="64px" viewBox="0 0 64 64" enable-background="new 0 0 64 64" xml:space="preserve">
<g id="_x35_0_code_x2C__programming_x2C__program_x2C__bitcoin_x2C__block_x2C__chain_x2C__cryptocurrency">
</g>
<g id="_x34_9_balloon_x2C__takeoff_x2C__bitcoin_x2C__coin_x2C__block_x2C__chain_x2C__cryptocurrency">
</g>
<g id="_x34_8_video_card_x2C__mining_x2C__farm_x2C__computer_x2C__block_x2C__chain_x2C__cryptocurrency">
</g>
<g id="_x34_7_money_box_x2C__saving_x2C__bitcoin_x2C__coin_x2C__block_x2C__chain_x2C__cryptocurrency">
</g>
<g id="_x34_6_portfolio_x2C__finance_x2C__bank_note_x2C__bitcoin_x2C__coin_x2C__cryptocurrency">
</g>
<g id="_x34_5_tap_x2C__water_x2C__bitcoin_x2C__coin_x2C__block_x2C__chain_x2C__cryptocurrency">
</g>
<g id="_x34_4_phone_x2C__bitcoin_x2C__coin_x2C__block_x2C__chain_x2C__cryptocurrency">
</g>
<g id="_x34_3_rocket_x2C__sun_x2C__bitcoin_x2C__coin_x2C__block_x2C__chain_x2C__cryptocurrency">
</g>
<g id="_x34_2_transfer_x2C__network_x2C__bitcoin_x2C__coin_x2C__block_x2C__chain_x2C__cryptocurrency">
</g>
<g id="_x34_1_scales_x2C__comparison_x2C__bitcoin_x2C__coin_x2C__block_x2C__chain_x2C__cryptocurrency">
</g>
<g id="_x34_0_calculator_x2C__calculating_x2C__bitcoin_x2C__coin_x2C__block_x2C__chain_x2C__cryptocurrency">
</g>
<g id="_x33_9_start-up_x2C__plant_x2C__hand_x2C__bitcoin_x2C__coin_x2C__cryptocurrency">
</g>
<g id="_x33_8_idea_x2C__bulb_x2C__bitcoin_x2C__coin_x2C__block_x2C__chain_x2C__cryptocurrency">
</g>
<g id="_x33_7_users_x2C__user_x2C__co-founder_x2C__bitcoin_x2C__coin_x2C__cryptocurrency">
</g>
<g id="_x33_6_safe_x2C__protection_x2C__bitcoin_x2C__coin_x2C__block_x2C__chain_x2C__cryptocurrency">
</g>
<g id="_x33_5_flash_drive_x2C__key_x2C__block_x2C__chain_x2C__cryptocurrency">
</g>
<g id="_x33_4_cloud_x2C__mining_x2C__bitcoin_x2C__coin_x2C__block_x2C__chain_x2C__cryptocurrency">
</g>
<g id="_x33_3_start_up_x2C__plant_x2C__bitcoin_x2C__coin_x2C__block_x2C__chain_x2C__cryptocurrency">
</g>
<g id="_x33_2_planet_x2C__bitcoin_x2C__coin_x2C__block_x2C__chain_x2C__cryptocurrency">
</g>
<g id="_x33_1_payment_x2C__hand_x2C__bitcoin_x2C__coin_x2C__block_x2C__chain_x2C__cryptocurrency">
</g>
<g id="_x33_0_user_x2C__laptop_x2C__bitcoin_x2C__coin_x2C__block_x2C__chain_x2C__cryptocurrency">
</g>
<g id="_x32_9_thief_x2C__bag_x2C__bitcoin_x2C__coin_x2C__block_x2C__chain_x2C__cryptocurrency">
</g>
<g id="_x32_8_code_x2C__programming_x2C__program_x2C__bitcoin_x2C__coin_x2C__cryptocurrency">
</g>
<g id="_x32_7_bitcoin_x2C__coin_x2C__block_x2C__chain_x2C__cryptocurrency">
</g>
<g id="_x32_6_shield_x2C__protection_x2C__bitcoin_x2C__coin_x2C__block_x2C__chain_x2C__cryptocurrency">
</g>
<g id="_x32_5_bug_x2C__laptop_x2C__miner_x2C__program_x2C__block_x2C__chain_x2C__cryptocurrency">
</g>
<g id="_x32_4_computer_x2C__monitor_x2C__bitcoin_x2C__coin_x2C__block_x2C__chain_x2C__cryptocurrency">
</g>
<g id="_x32_3_network_x2C__idea_x2C__bitcoin_x2C__coin_x2C__block_x2C__chain_x2C__cryptocurrency">
</g>
<g id="_x32_2_block_x2C__chain_x2C__cryptocurrency_x2C__technology_x2C__future">
</g>
<g id="_x32_1_smart_contact_x2C__contact_x2C__block_x2C__chain_x2C__cryptocurrency">
</g>
<g id="_x32_0_lock_x2C__safe_x2C__protection_x2C__block_x2C__chain_x2C__cryptocurrency_x2C__program">
</g>
<g id="_x31_9_server_x2C__data_x2C__bitcoin_x2C__coin_x2C__block_x2C__chain_x2C__cryptocurrency">
</g>
<g id="_x31_8_key_x2C__bitcoin_x2C__coin_x2C__block_x2C__chain_x2C__cryptocurrency">
</g>
<g id="_x31_7_pool_x2C__network_x2C__bitcoin_x2C__coin_x2C__block_x2C__chain_x2C__cryptocurrency">
</g>
<g id="_x31_6_mining_x2C__shovel_x2C__mine_x2C__coin_x2C__block_x2C__chain_x2C__cryptocurrency">
</g>
<g id="_x31_5_purse_x2C__bitcoin_x2C__coin_x2C__block_x2C__chain_x2C__cryptocurrency">
</g>
<g id="_x31_4_safe_x2C__protection_x2C__block_x2C__chain_x2C__cryptocurrency_x2C__program">
</g>
<g id="_x31_3_mining_x2C__funnel_x2C__satoshi_x2C__bitcoin_x2C__coin_x2C__cryptocurrency">
</g>
<g id="_x31_2_chart_x2C__bitcoin_x2C__coin_x2C__block_x2C__chain_x2C__cryptocurrency">
</g>
<g id="_x31_1_computer_x2C__monitor_x2C__bitcoin_x2C__coin_x2C__block_x2C__chain_x2C__cryptocurrency">
</g>
<g id="_x31_0_mining_x2C__pickaxe_x2C__stone_x2C__mine_x2C___bitcoin_x2C__coin_x2C__cryptocurrency">
	<g>
		<g>
			<g>
				<path d="M1.586,48.586c-0.256,0-0.512-0.098-0.707-0.293c-0.391-0.391-0.391-1.023,0-1.414l23.335-23.334
					c0.391-0.391,1.023-0.391,1.414,0s0.391,1.023,0,1.414L2.293,48.293C2.098,48.488,1.842,48.586,1.586,48.586z"/>
			</g>
			<g>
				<path d="M4.415,51.415c-0.256,0-0.512-0.098-0.707-0.293c-0.391-0.391-0.391-1.023,0-1.414l23.334-23.335
					c0.391-0.391,1.023-0.391,1.414,0s0.391,1.023,0,1.414L5.122,51.122C4.927,51.317,4.671,51.415,4.415,51.415z"/>
			</g>
			<g>
				<path d="M3.001,51.999c-0.769,0-1.537-0.292-2.122-0.876c-1.169-1.172-1.169-3.075,0-4.244c0.391-0.391,1.023-0.391,1.414,0
					s0.391,1.023,0,1.414c-0.39,0.39-0.39,1.024,0.001,1.415c0.39,0.389,1.024,0.39,1.414-0.001c0.391-0.389,1.024-0.39,1.415,0.001
					c0.39,0.392,0.39,1.024-0.001,1.415C4.537,51.707,3.769,51.999,3.001,51.999z"/>
			</g>
			<g>
				<path d="M39.063,39.394c-0.256,0-0.512-0.098-0.707-0.293L12.9,13.645c-0.391-0.391-0.391-1.023,0-1.414s1.023-0.391,1.414,0
					L39.77,37.687c0.391,0.391,0.391,1.023,0,1.414C39.574,39.296,39.318,39.394,39.063,39.394z"/>
			</g>
			<g>
				<path d="M39.063,39.394c-0.401,0-0.78-0.243-0.934-0.641c-0.034-0.09-3.539-9.075-9.673-15.208
					c-6.133-6.133-15.118-9.64-15.208-9.674c-0.516-0.198-0.772-0.777-0.573-1.292c0.198-0.516,0.779-0.771,1.292-0.574
					c0.383,0.147,9.464,3.686,15.903,10.126c6.44,6.44,9.979,15.521,10.126,15.903c0.198,0.516-0.06,1.094-0.574,1.292
					C39.304,39.372,39.183,39.394,39.063,39.394z"/>
			</g>
			<g>
				<path d="M27.705,22.468c-0.256,0-0.512-0.098-0.707-0.293c-0.391-0.391-0.391-1.023,0-1.414l2.166-2.166
					c0.391-0.391,1.023-0.391,1.414,0s0.391,1.023,0,1.414l-2.166,2.166C28.217,22.37,27.961,22.468,27.705,22.468z"/>
			</g>
			<g>
				<path d="M32.699,23.131c-0.256,0-0.512-0.098-0.707-0.293l-2.828-2.829c-0.391-0.391-0.391-1.024,0-1.414
					c0.391-0.391,1.023-0.391,1.414,0l2.828,2.829c0.391,0.391,0.391,1.024,0,1.414C33.211,23.033,32.955,23.131,32.699,23.131z"/>
			</g>
			<g>
				<path d="M30.533,25.297c-0.256,0-0.512-0.098-0.707-0.293c-0.391-0.391-0.391-1.023,0-1.414l2.166-2.166
					c0.391-0.391,1.023-0.391,1.414,0s0.391,1.023,0,1.414l-2.166,2.166C31.045,25.199,30.789,25.297,30.533,25.297z"/>
			</g>
		</g>
		<g>
			<path d="M22.946,61c-0.228,0-0.457-0.078-0.645-0.236c-0.422-0.357-0.475-0.988-0.118-1.409l11-13
				c0.357-0.423,0.987-0.474,1.409-0.118c0.422,0.357,0.475,0.988,0.118,1.409l-11,13C23.513,60.88,23.23,61,22.946,61z"/>
		</g>
		<g>
			<path d="M36.946,50c-0.19,0-0.383-0.055-0.554-0.168l-3-2c-0.46-0.307-0.584-0.927-0.277-1.387
				c0.306-0.459,0.925-0.583,1.387-0.277l3,2c0.46,0.307,0.584,0.927,0.277,1.387C37.587,49.844,37.27,50,36.946,50z"/>
		</g>
		<g>
			<path d="M36.947,50c-0.256,0-0.512-0.098-0.707-0.293c-0.391-0.391-0.391-1.023,0-1.414l10-10c0.391-0.391,1.023-0.391,1.414,0
				s0.391,1.023,0,1.414l-10,10C37.459,49.902,37.203,50,36.947,50z"/>
		</g>
		<g>
			<path d="M60.947,54c-0.256,0-0.512-0.098-0.707-0.293l-14-14c-0.391-0.391-0.391-1.023,0-1.414s1.023-0.391,1.414,0l14,14
				c0.391,0.391,0.391,1.023,0,1.414C61.459,53.902,61.203,54,60.947,54z"/>
		</g>
		<g>
			<path d="M62.946,61c-0.435,0-0.835-0.286-0.961-0.726l-2-7c-0.151-0.53,0.156-1.084,0.688-1.236
				c0.527-0.145,1.084,0.155,1.236,0.688l2,7c0.151,0.53-0.156,1.084-0.688,1.236C63.13,60.987,63.038,61,62.946,61z"/>
		</g>
		<g>
			<path d="M42.947,39c-0.553,0-1-0.447-1-1v-6c0-0.552,0.447-1,1-1s1,0.448,1,1v6C43.947,38.553,43.5,39,42.947,39z"/>
		</g>
		<g>
			<path d="M37.947,43h-6c-0.553,0-1-0.447-1-1s0.447-1,1-1h6c0.553,0,1,0.447,1,1S38.5,43,37.947,43z"/>
		</g>
		<g>
			<g>
				<g>
					<path d="M55.447,13c-0.553,0-1-0.448-1-1s0.447-1,1-1c0.275,0,0.5-0.224,0.5-0.5s-0.225-0.5-0.5-0.5c-0.553,0-1-0.448-1-1
						s0.447-1,1-1c1.379,0,2.5,1.122,2.5,2.5S56.826,13,55.447,13z"/>
				</g>
				<g>
					<path d="M55.947,17c-0.553,0-1-0.448-1-1s0.447-1,1-1c0.552,0,1-0.449,1-1s-0.448-1-1-1c-0.553,0-1-0.448-1-1s0.447-1,1-1
						c1.654,0,3,1.346,3,3S57.602,17,55.947,17z"/>
				</g>
				<g>
					<path d="M55.947,13h-3c-0.553,0-1-0.448-1-1s0.447-1,1-1h3c0.553,0,1,0.448,1,1S56.5,13,55.947,13z"/>
				</g>
				<g>
					<path d="M55.947,17h-4c-0.553,0-1-0.448-1-1s0.447-1,1-1h4c0.553,0,1,0.448,1,1S56.5,17,55.947,17z"/>
				</g>
				<g>
					<path d="M55.447,10h-3.5c-0.553,0-1-0.448-1-1s0.447-1,1-1h3.5c0.553,0,1,0.448,1,1S56,10,55.447,10z"/>
				</g>
				<g>
					<path d="M52.947,17c-0.553,0-1-0.448-1-1V9c0-0.552,0.447-1,1-1s1,0.448,1,1v7C53.947,16.552,53.5,17,52.947,17z"/>
				</g>
				<g>
					<path d="M53.947,10c-0.553,0-1-0.448-1-1V8c0-0.552,0.447-1,1-1s1,0.448,1,1v1C54.947,9.552,54.5,10,53.947,10z"/>
				</g>
				<g>
					<path d="M53.947,18c-0.553,0-1-0.448-1-1v-1c0-0.552,0.447-1,1-1s1,0.448,1,1v1C54.947,17.552,54.5,18,53.947,18z"/>
				</g>
			</g>
			<g>
				<path d="M54.447,22c-5.238,0-9.5-4.262-9.5-9.5s4.262-9.5,9.5-9.5s9.5,4.262,9.5,9.5S59.686,22,54.447,22z M54.447,5
					c-4.136,0-7.5,3.364-7.5,7.5s3.364,7.5,7.5,7.5s7.5-3.364,7.5-7.5S58.583,5,54.447,5z"/>
			</g>
			<g>
				<path d="M54.447,26c-5.238,0-9.5-4.262-9.5-9.5c0-0.552,0.447-1,1-1s1,0.448,1,1c0,4.136,3.364,7.5,7.5,7.5s7.5-3.364,7.5-7.5
					c0-0.552,0.447-1,1-1s1,0.448,1,1C63.947,21.738,59.686,26,54.447,26z"/>
			</g>
			<g>
				<path d="M45.947,17.5c-0.553,0-1-0.448-1-1v-4c0-0.552,0.447-1,1-1s1,0.448,1,1v4C46.947,17.052,46.5,17.5,45.947,17.5z"/>
			</g>
			<g>
				<path d="M62.947,17.5c-0.553,0-1-0.448-1-1v-4c0-0.552,0.447-1,1-1s1,0.448,1,1v4C63.947,17.052,63.5,17.5,62.947,17.5z"/>
			</g>
			<g>
				<path d="M57.947,25.247c-0.553,0-1-0.448-1-1v-4c0-0.552,0.447-1,1-1s1,0.448,1,1v4C58.947,24.799,58.5,25.247,57.947,25.247z"
					/>
			</g>
			<g>
				<path d="M50.947,25.247c-0.553,0-1-0.448-1-1v-3.999c0-0.552,0.447-1,1-1s1,0.448,1,1v3.999
					C51.947,24.799,51.5,25.247,50.947,25.247z"/>
			</g>
		</g>
		<g>
			<g>
				<path d="M59.5,41c-2.481,0-4.5-2.019-4.5-4.5s2.019-4.5,4.5-4.5s4.5,2.019,4.5,4.5S61.981,41,59.5,41z M59.5,34
					c-1.379,0-2.5,1.121-2.5,2.5s1.121,2.5,2.5,2.5s2.5-1.121,2.5-2.5S60.879,34,59.5,34z"/>
			</g>
			<g>
				<path d="M59.5,44c-2.481,0-4.5-2.019-4.5-4.5c0-0.553,0.447-1,1-1s1,0.447,1,1c0,1.379,1.121,2.5,2.5,2.5s2.5-1.121,2.5-2.5
					c0-0.553,0.447-1,1-1s1,0.447,1,1C64,41.981,61.981,44,59.5,44z"/>
			</g>
			<g>
				<path d="M56,40.5c-0.553,0-1-0.447-1-1v-3c0-0.553,0.447-1,1-1s1,0.447,1,1v3C57,40.053,56.553,40.5,56,40.5z"/>
			</g>
			<g>
				<path d="M63,40.5c-0.553,0-1-0.447-1-1v-3c0-0.553,0.447-1,1-1s1,0.447,1,1v3C64,40.053,63.553,40.5,63,40.5z"/>
			</g>
		</g>
		<g>
			<path d="M50.5,35c-1.93,0-3.5-1.57-3.5-3.5s1.57-3.5,3.5-3.5s3.5,1.57,3.5,3.5S52.43,35,50.5,35z M50.5,30
				c-0.827,0-1.5,0.673-1.5,1.5s0.673,1.5,1.5,1.5s1.5-0.673,1.5-1.5S51.327,30,50.5,30z"/>
		</g>
		<g>
			<path d="M62.947,61h-40c-0.553,0-1-0.447-1-1s0.447-1,1-1h40c0.553,0,1,0.447,1,1S63.5,61,62.947,61z"/>
		</g>
	</g>
</g>
<g id="_x39__miner_x2C__mining_x2C__computer_x2C__pickaxe_x2C__program_x2C__cryptocurrency">
</g>
<g id="_x38__video_card_x2C__mining_x2C__bitcoin_x2C__coin_x2C__block_x2C__chain_x2C__cryptocurrency">
</g>
<g id="_x37__exchanger_x2C__site_x2C__bitcoin_x2C__coin_x2C__block_x2C__chain_x2C__cryptocurrency">
</g>
<g id="_x36__shop_x2C__product_x2C__bitcoin_x2C__coin_x2C__block_x2C__chain_x2C__cryptocurrency">
</g>
<g id="_x35__bitcoin_x2C__coin_x2C__exchange_x2C__block_x2C__chain_x2C__cryptocurrency_x2C__product">
</g>
<g id="_x34__bitcoin_x2C__coin_x2C__exchange_x2C__block_x2C__chain_x2C__cryptocurrency">
</g>
<g id="_x33__bitcoin_x2C__coin_x2C__exchange_x2C__block_x2C__chain_x2C__cryptocurrency">
</g>
<g id="_x32__brain_x2C__smart_x2C__coin_x2C__block_x2C__chain_x2C__cryptocurrency">
</g>
<g id="_x31__bitcoin_x2C__coin_x2C__block_x2C__chain_x2C__cryptocurrency">
</g>
</svg>
