<?xml version="1.0" encoding="utf-8"?>
<!-- Generator: Adobe Illustrator 16.0.0, SVG Export Plug-In . SVG Version: 6.00 Build 0)  -->
<!DOCTYPE svg PUBLIC "-//W3C//DTD SVG 1.1//EN" "http://www.w3.org/Graphics/SVG/1.1/DTD/svg11.dtd">
<svg version="1.1" xmlns="http://www.w3.org/2000/svg" xmlns:xlink="http://www.w3.org/1999/xlink" x="0px" y="0px" width="64px"
	 height="64px" viewBox="0 0 64 64" enable-background="new 0 0 64 64" xml:space="preserve">
<g id="_x35_0_code_x2C__programming_x2C__program_x2C__bitcoin_x2C__block_x2C__chain_x2C__cryptocurrency">
</g>
<g id="_x34_9_balloon_x2C__takeoff_x2C__bitcoin_x2C__coin_x2C__block_x2C__chain_x2C__cryptocurrency">
</g>
<g id="_x34_8_video_card_x2C__mining_x2C__farm_x2C__computer_x2C__block_x2C__chain_x2C__cryptocurrency">
</g>
<g id="_x34_7_money_box_x2C__saving_x2C__bitcoin_x2C__coin_x2C__block_x2C__chain_x2C__cryptocurrency">
</g>
<g id="_x34_6_portfolio_x2C__finance_x2C__bank_note_x2C__bitcoin_x2C__coin_x2C__cryptocurrency">
</g>
<g id="_x34_5_tap_x2C__water_x2C__bitcoin_x2C__coin_x2C__block_x2C__chain_x2C__cryptocurrency">
</g>
<g id="_x34_4_phone_x2C__bitcoin_x2C__coin_x2C__block_x2C__chain_x2C__cryptocurrency">
</g>
<g id="_x34_3_rocket_x2C__sun_x2C__bitcoin_x2C__coin_x2C__block_x2C__chain_x2C__cryptocurrency">
</g>
<g id="_x34_2_transfer_x2C__network_x2C__bitcoin_x2C__coin_x2C__block_x2C__chain_x2C__cryptocurrency">
</g>
<g id="_x34_1_scales_x2C__comparison_x2C__bitcoin_x2C__coin_x2C__block_x2C__chain_x2C__cryptocurrency">
	<g>
		<g>
			<g>
				<path d="M13,60.977c-0.552,0-1-0.447-1-1c0-1.654,1.346-3,3-3c0.552,0,1,0.447,1,1s-0.448,1-1,1c-0.551,0-1,0.448-1,1
					C14,60.529,13.552,60.977,13,60.977z"/>
			</g>
			<g>
				<path d="M51,60.977c-0.553,0-1-0.447-1-1c0-0.552-0.448-1-1-1c-0.553,0-1-0.447-1-1s0.447-1,1-1c1.654,0,3,1.346,3,3
					C52,60.529,51.553,60.977,51,60.977z"/>
			</g>
			<g>
				<path d="M49,58.977H15c-0.552,0-1-0.447-1-1s0.448-1,1-1h34c0.553,0,1,0.447,1,1S49.553,58.977,49,58.977z"/>
			</g>
			<g>
				<path d="M51,64c-0.553,0-1-0.447-1-1v-3.023c0-0.553,0.447-1,1-1s1,0.447,1,1V63C52,63.553,51.553,64,51,64z"/>
			</g>
			<g>
				<path d="M51,64H13c-0.552,0-1-0.447-1-1s0.448-1,1-1h38c0.553,0,1,0.447,1,1S51.553,64,51,64z"/>
			</g>
			<g>
				<path d="M13,64c-0.552,0-1-0.447-1-1v-3.023c0-0.553,0.448-1,1-1s1,0.447,1,1V63C14,63.553,13.552,64,13,64z"/>
			</g>
		</g>
		<g>
			<path d="M30,58.977c-0.552,0-1-0.447-1-1V14c0-0.553,0.448-1,1-1s1,0.447,1,1v43.977C31,58.529,30.552,58.977,30,58.977z"/>
		</g>
		<g>
			<path d="M34,58.977c-0.553,0-1-0.447-1-1V14c0-0.553,0.447-1,1-1s1,0.447,1,1v43.977C35,58.529,34.553,58.977,34,58.977z"/>
		</g>
		<g>
			<g>
				<path d="M55,43c-4.963,0-9-4.037-9-9s4.037-9,9-9s9,4.037,9,9S59.963,43,55,43z M55,27c-3.859,0-7,3.141-7,7s3.141,7,7,7
					s7-3.141,7-7S58.859,27,55,27z"/>
			</g>
		</g>
		<g>
			<path d="M47,35c-0.553,0-1-0.447-1-1v-8c0-0.553,0.447-1,1-1s1,0.447,1,1v8C48,34.553,47.553,35,47,35z"/>
		</g>
		<g>
			<path d="M63,35c-0.553,0-1-0.447-1-1v-8c0-0.553,0.447-1,1-1s1,0.447,1,1v8C64,34.553,63.553,35,63,35z"/>
		</g>
		<g>
			<path d="M47,27c-0.236,0-0.474-0.083-0.664-0.253c-0.413-0.366-0.45-0.999-0.083-1.411l8-9c0.366-0.415,0.998-0.452,1.411-0.083
				c0.413,0.366,0.45,0.999,0.083,1.411l-8,9C47.55,26.887,47.275,27,47,27z"/>
		</g>
		<g>
			<path d="M63,27c-0.275,0-0.55-0.113-0.747-0.336l-8-9c-0.367-0.412-0.33-1.045,0.083-1.411c0.411-0.369,1.044-0.332,1.411,0.083
				l8,9c0.367,0.412,0.33,1.045-0.083,1.411C63.474,26.917,63.236,27,63,27z"/>
		</g>
		<g>
			<path d="M55.5,12h-47c-0.552,0-1-0.447-1-1s0.448-1,1-1h47c0.553,0,1,0.447,1,1S56.053,12,55.5,12z"/>
		</g>
		<g>
			<path d="M8.5,15C7.122,15,6,13.879,6,12.5S7.122,10,8.5,10c0.552,0,1,0.447,1,1s-0.448,1-1,1C8.224,12,8,12.225,8,12.5
				S8.224,13,8.5,13c0.552,0,1,0.447,1,1S9.052,15,8.5,15z"/>
		</g>
		<g>
			<path d="M55.5,15c-0.553,0-1-0.447-1-1s0.447-1,1-1c0.275,0,0.5-0.225,0.5-0.5S55.775,12,55.5,12c-0.553,0-1-0.447-1-1
				s0.447-1,1-1c1.379,0,2.5,1.121,2.5,2.5S56.879,15,55.5,15z"/>
		</g>
		<g>
			<path d="M34,4c-0.553,0-1-0.447-1-1c0-0.552-0.449-1-1-1s-1,0.448-1,1c0,0.553-0.448,1-1,1s-1-0.447-1-1c0-1.654,1.346-3,3-3
				s3,1.346,3,3C35,3.553,34.553,4,34,4z"/>
		</g>
		<g>
			<path d="M55.5,15h-47c-0.552,0-1-0.447-1-1s0.448-1,1-1h47c0.553,0,1,0.447,1,1S56.053,15,55.5,15z"/>
		</g>
		<g>
			<path d="M30,12c-0.552,0-1-0.447-1-1V3c0-0.553,0.448-1,1-1s1,0.447,1,1v8C31,11.553,30.552,12,30,12z"/>
		</g>
		<g>
			<path d="M34,12c-0.553,0-1-0.447-1-1V3c0-0.553,0.447-1,1-1s1,0.447,1,1v8C35,11.553,34.553,12,34,12z"/>
		</g>
		<g>
			<path d="M55,18c-0.553,0-1-0.447-1-1v-3c0-0.553,0.447-1,1-1s1,0.447,1,1v3C56,17.553,55.553,18,55,18z"/>
		</g>
		<g>
			<g>
				<path d="M9.5,34c-0.552,0-1-0.447-1-1s0.448-1,1-1c0.276,0,0.5-0.225,0.5-0.5S9.776,31,9.5,31c-0.552,0-1-0.447-1-1s0.448-1,1-1
					c1.378,0,2.5,1.121,2.5,2.5S10.878,34,9.5,34z"/>
			</g>
			<g>
				<path d="M10,38c-0.552,0-1-0.447-1-1s0.448-1,1-1c0.551,0,1-0.448,1-1s-0.449-1-1-1c-0.552,0-1-0.447-1-1s0.448-1,1-1
					c1.654,0,3,1.346,3,3S11.654,38,10,38z"/>
			</g>
			<g>
				<path d="M10,34H7c-0.552,0-1-0.447-1-1s0.448-1,1-1h3c0.552,0,1,0.447,1,1S10.552,34,10,34z"/>
			</g>
			<g>
				<path d="M10,38H6c-0.552,0-1-0.447-1-1s0.448-1,1-1h4c0.552,0,1,0.447,1,1S10.552,38,10,38z"/>
			</g>
			<g>
				<path d="M9.5,31H6c-0.552,0-1-0.447-1-1s0.448-1,1-1h3.5c0.552,0,1,0.447,1,1S10.052,31,9.5,31z"/>
			</g>
			<g>
				<path d="M7,38c-0.552,0-1-0.447-1-1v-7c0-0.553,0.448-1,1-1s1,0.447,1,1v7C8,37.553,7.552,38,7,38z"/>
			</g>
			<g>
				<path d="M8,31c-0.552,0-1-0.447-1-1v-1c0-0.553,0.448-1,1-1s1,0.447,1,1v1C9,30.553,8.552,31,8,31z"/>
			</g>
			<g>
				<path d="M8,39c-0.552,0-1-0.447-1-1v-1c0-0.553,0.448-1,1-1s1,0.447,1,1v1C9,38.553,8.552,39,8,39z"/>
			</g>
		</g>
		<g>
			<path d="M9,43c-4.962,0-9-4.037-9-9s4.038-9,9-9s9,4.037,9,9S13.962,43,9,43z M9,27c-3.86,0-7,3.141-7,7s3.14,7,7,7s7-3.141,7-7
				S12.86,27,9,27z"/>
		</g>
		<g>
			<path d="M1,35c-0.552,0-1-0.447-1-1v-8c0-0.553,0.448-1,1-1s1,0.447,1,1v8C2,34.553,1.552,35,1,35z"/>
		</g>
		<g>
			<path d="M17,35c-0.552,0-1-0.447-1-1v-8c0-0.553,0.448-1,1-1s1,0.447,1,1v8C18,34.553,17.552,35,17,35z"/>
		</g>
		<g>
			<path d="M1,27c-0.236,0-0.473-0.083-0.664-0.253c-0.413-0.366-0.45-0.999-0.083-1.411l8-9c0.367-0.413,0.999-0.451,1.412-0.083
				c0.413,0.366,0.45,0.999,0.083,1.411l-8,9C1.55,26.887,1.275,27,1,27z"/>
		</g>
		<g>
			<path d="M17,27c-0.276,0-0.55-0.113-0.748-0.336l-8-9c-0.367-0.412-0.33-1.045,0.083-1.411c0.414-0.368,1.045-0.33,1.412,0.083
				l8,9c0.367,0.412,0.33,1.045-0.083,1.411C17.474,26.917,17.237,27,17,27z"/>
		</g>
		<g>
			<path d="M9,18c-0.552,0-1-0.447-1-1v-3c0-0.553,0.448-1,1-1s1,0.447,1,1v3C10,17.553,9.552,18,9,18z"/>
		</g>
		<g>
			<g>
				<path d="M9,46c-4.962,0-9-4.037-9-9c0-0.553,0.448-1,1-1s1,0.447,1,1c0,3.859,3.14,7,7,7s7-3.141,7-7c0-0.553,0.448-1,1-1
					s1,0.447,1,1C18,41.963,13.962,46,9,46z"/>
			</g>
			<g>
				<path d="M17,38c-0.552,0-1-0.447-1-1v-3c0-0.553,0.448-1,1-1s1,0.447,1,1v3C18,37.553,17.552,38,17,38z"/>
			</g>
			<g>
				<path d="M1,38c-0.552,0-1-0.447-1-1v-3c0-0.553,0.448-1,1-1s1,0.447,1,1v3C2,37.553,1.552,38,1,38z"/>
			</g>
		</g>
		<g>
			<g>
				<path d="M55,46c-4.963,0-9-4.037-9-9c0-0.553,0.447-1,1-1s1,0.447,1,1c0,3.859,3.141,7,7,7s7-3.141,7-7c0-0.553,0.447-1,1-1
					s1,0.447,1,1C64,41.963,59.963,46,55,46z"/>
			</g>
			<g>
				<path d="M63,38c-0.553,0-1-0.447-1-1v-3c0-0.553,0.447-1,1-1s1,0.447,1,1v3C64,37.553,63.553,38,63,38z"/>
			</g>
			<g>
				<path d="M47,38c-0.553,0-1-0.447-1-1v-3c0-0.553,0.447-1,1-1s1,0.447,1,1v3C48,37.553,47.553,38,47,38z"/>
			</g>
		</g>
		<g>
			<path d="M55,38c-0.553,0-1-0.447-1-1v-6.977c0-0.553,0.447-1,1-1s1,0.447,1,1V37C56,37.553,55.553,38,55,38z"/>
		</g>
		<g>
			<path d="M57,38h-4c-0.553,0-1-0.447-1-1s0.447-1,1-1h4c0.553,0,1,0.447,1,1S57.553,38,57,38z"/>
		</g>
		<g>
			<path d="M53,33c-0.258,0-0.516-0.1-0.711-0.297c-0.389-0.393-0.385-1.026,0.008-1.414l2-1.977
				c0.395-0.391,1.026-0.384,1.414,0.008c0.389,0.393,0.385,1.026-0.008,1.414l-2,1.977C53.508,32.904,53.254,33,53,33z"/>
		</g>
	</g>
</g>
<g id="_x34_0_calculator_x2C__calculating_x2C__bitcoin_x2C__coin_x2C__block_x2C__chain_x2C__cryptocurrency">
</g>
<g id="_x33_9_start-up_x2C__plant_x2C__hand_x2C__bitcoin_x2C__coin_x2C__cryptocurrency">
</g>
<g id="_x33_8_idea_x2C__bulb_x2C__bitcoin_x2C__coin_x2C__block_x2C__chain_x2C__cryptocurrency">
</g>
<g id="_x33_7_users_x2C__user_x2C__co-founder_x2C__bitcoin_x2C__coin_x2C__cryptocurrency">
</g>
<g id="_x33_6_safe_x2C__protection_x2C__bitcoin_x2C__coin_x2C__block_x2C__chain_x2C__cryptocurrency">
</g>
<g id="_x33_5_flash_drive_x2C__key_x2C__block_x2C__chain_x2C__cryptocurrency">
</g>
<g id="_x33_4_cloud_x2C__mining_x2C__bitcoin_x2C__coin_x2C__block_x2C__chain_x2C__cryptocurrency">
</g>
<g id="_x33_3_start_up_x2C__plant_x2C__bitcoin_x2C__coin_x2C__block_x2C__chain_x2C__cryptocurrency">
</g>
<g id="_x33_2_planet_x2C__bitcoin_x2C__coin_x2C__block_x2C__chain_x2C__cryptocurrency">
</g>
<g id="_x33_1_payment_x2C__hand_x2C__bitcoin_x2C__coin_x2C__block_x2C__chain_x2C__cryptocurrency">
</g>
<g id="_x33_0_user_x2C__laptop_x2C__bitcoin_x2C__coin_x2C__block_x2C__chain_x2C__cryptocurrency">
</g>
<g id="_x32_9_thief_x2C__bag_x2C__bitcoin_x2C__coin_x2C__block_x2C__chain_x2C__cryptocurrency">
</g>
<g id="_x32_8_code_x2C__programming_x2C__program_x2C__bitcoin_x2C__coin_x2C__cryptocurrency">
</g>
<g id="_x32_7_bitcoin_x2C__coin_x2C__block_x2C__chain_x2C__cryptocurrency">
</g>
<g id="_x32_6_shield_x2C__protection_x2C__bitcoin_x2C__coin_x2C__block_x2C__chain_x2C__cryptocurrency">
</g>
<g id="_x32_5_bug_x2C__laptop_x2C__miner_x2C__program_x2C__block_x2C__chain_x2C__cryptocurrency">
</g>
<g id="_x32_4_computer_x2C__monitor_x2C__bitcoin_x2C__coin_x2C__block_x2C__chain_x2C__cryptocurrency">
</g>
<g id="_x32_3_network_x2C__idea_x2C__bitcoin_x2C__coin_x2C__block_x2C__chain_x2C__cryptocurrency">
</g>
<g id="_x32_2_block_x2C__chain_x2C__cryptocurrency_x2C__technology_x2C__future">
</g>
<g id="_x32_1_smart_contact_x2C__contact_x2C__block_x2C__chain_x2C__cryptocurrency">
</g>
<g id="_x32_0_lock_x2C__safe_x2C__protection_x2C__block_x2C__chain_x2C__cryptocurrency_x2C__program">
</g>
<g id="_x31_9_server_x2C__data_x2C__bitcoin_x2C__coin_x2C__block_x2C__chain_x2C__cryptocurrency">
</g>
<g id="_x31_8_key_x2C__bitcoin_x2C__coin_x2C__block_x2C__chain_x2C__cryptocurrency">
</g>
<g id="_x31_7_pool_x2C__network_x2C__bitcoin_x2C__coin_x2C__block_x2C__chain_x2C__cryptocurrency">
</g>
<g id="_x31_6_mining_x2C__shovel_x2C__mine_x2C__coin_x2C__block_x2C__chain_x2C__cryptocurrency">
</g>
<g id="_x31_5_purse_x2C__bitcoin_x2C__coin_x2C__block_x2C__chain_x2C__cryptocurrency">
</g>
<g id="_x31_4_safe_x2C__protection_x2C__block_x2C__chain_x2C__cryptocurrency_x2C__program">
</g>
<g id="_x31_3_mining_x2C__funnel_x2C__satoshi_x2C__bitcoin_x2C__coin_x2C__cryptocurrency">
</g>
<g id="_x31_2_chart_x2C__bitcoin_x2C__coin_x2C__block_x2C__chain_x2C__cryptocurrency">
</g>
<g id="_x31_1_computer_x2C__monitor_x2C__bitcoin_x2C__coin_x2C__block_x2C__chain_x2C__cryptocurrency">
</g>
<g id="_x31_0_mining_x2C__pickaxe_x2C__stone_x2C__mine_x2C___bitcoin_x2C__coin_x2C__cryptocurrency">
</g>
<g id="_x39__miner_x2C__mining_x2C__computer_x2C__pickaxe_x2C__program_x2C__cryptocurrency">
</g>
<g id="_x38__video_card_x2C__mining_x2C__bitcoin_x2C__coin_x2C__block_x2C__chain_x2C__cryptocurrency">
</g>
<g id="_x37__exchanger_x2C__site_x2C__bitcoin_x2C__coin_x2C__block_x2C__chain_x2C__cryptocurrency">
</g>
<g id="_x36__shop_x2C__product_x2C__bitcoin_x2C__coin_x2C__block_x2C__chain_x2C__cryptocurrency">
</g>
<g id="_x35__bitcoin_x2C__coin_x2C__exchange_x2C__block_x2C__chain_x2C__cryptocurrency_x2C__product">
</g>
<g id="_x34__bitcoin_x2C__coin_x2C__exchange_x2C__block_x2C__chain_x2C__cryptocurrency">
</g>
<g id="_x33__bitcoin_x2C__coin_x2C__exchange_x2C__block_x2C__chain_x2C__cryptocurrency">
</g>
<g id="_x32__brain_x2C__smart_x2C__coin_x2C__block_x2C__chain_x2C__cryptocurrency">
</g>
<g id="_x31__bitcoin_x2C__coin_x2C__block_x2C__chain_x2C__cryptocurrency">
</g>
</svg>
