<svg xmlns="http://www.w3.org/2000/svg" x="0" y="0" xml:space="preserve" viewBox="0 0 64 64"><path d="M49.488 55.488a1 1 0 1 1 0-2c.275 0 .5-.225.5-.5s-.225-.5-.5-.5a1 1 0 1 1 0-2c1.379 0 2.5 1.121 2.5 2.5s-1.121 2.5-2.5 2.5z"/><path d="M49.988 59.488a1 1 0 1 1 0-2 1 1 0 0 0 0-2 1 1 0 1 1 0-2c1.654 0 3 1.346 3 3s-1.345 3-3 3z"/><path d="M49.988 55.488h-3a1 1 0 1 1 0-2h3a1 1 0 1 1 0 2zM49.988 59.488h-4a1 1 0 1 1 0-2h4a1 1 0 1 1 0 2zM49.488 52.488h-3.5a1 1 0 1 1 0-2h3.5a1 1 0 1 1 0 2z"/><path d="M46.988 59.488a1 1 0 0 1-1-1v-7a1 1 0 1 1 2 0v7a1 1 0 0 1-1 1z"/><path d="M47.988 52.488a1 1 0 0 1-1-1v-1a1 1 0 1 1 2 0v1a1 1 0 0 1-1 1zM47.988 60.488a1 1 0 0 1-1-1v-1a1 1 0 1 1 2 0v1a1 1 0 0 1-1 1z"/><path d="M48.488 63.988c-4.963 0-9-4.037-9-9 0-4.579 6.056-14 9-14s9 9.421 9 14c0 4.963-4.037 9-9 9zm-.031-21.002c-1.435.28-6.969 8.001-6.969 12.002 0 3.859 3.141 7 7 7s7-3.141 7-7c0-4.001-5.534-11.721-7.031-12.002zM16.5 16.012H7.512a1 1 0 1 1 0-2H16.5a1 1 0 1 1 0 2zM16.5 28.012H7.512a1 1 0 1 1 0-2H16.5a1 1 0 1 1 0 2zM54.488 34.012a1 1 0 0 1-1-1c0-9.374-7.626-17-17-17a1 1 0 1 1 0-2c10.477 0 19 8.523 19 19a1 1 0 0 1-1 1zM42.488 34.012a1 1 0 0 1-1-1c0-2.757-2.243-5-5-5a1 1 0 1 1 0-2c3.859 0 7 3.141 7 7a1 1 0 0 1-1 1z"/><path d="M56.488 38.988h-16a1 1 0 0 1-1-1v-5a1 1 0 0 1 1-1h16a1 1 0 0 1 1 1v5a1 1 0 0 1-1 1zm-15-2h14v-3h-14v3zM16.488 29.012a1 1 0 0 1-1-1v-14a1 1 0 1 1 2 0v14a1 1 0 0 1-1 1zM34.488 29.012a1 1 0 0 1-1-1v-14a1 1 0 1 1 2 0v14a1 1 0 0 1-1 1zM22.488 13.012a1 1 0 0 1-1-1v-5a1 1 0 1 1 2 0v5a1 1 0 0 1-1 1zM28.488 13.012a1 1 0 0 1-1-1v-5a1 1 0 1 1 2 0v5a1 1 0 0 1-1 1zM17.488 8.012c-2.206 0-4-1.794-4-4s1.794-4 4-4a1 1 0 1 1 0 2c-1.103 0-2 .897-2 2s.897 2 2 2a1 1 0 1 1 0 2zM33.488 8.012a1 1 0 1 1 0-2c1.103 0 2-.897 2-2s-.897-2-2-2a1 1 0 1 1 0-2c2.206 0 4 1.794 4 4s-1.794 4-4 4z"/><path d="M33.488 2.012h-16a1 1 0 1 1 0-2h16a1 1 0 1 1 0 2zM33.488 8.012h-16a1 1 0 1 1 0-2h16a1 1 0 1 1 0 2z"/><g><path d="M16.5 15.012a1 1 0 0 1-1-1c0-1.654 1.346-3 3-3a1 1 0 1 1 0 2 1 1 0 0 0-1 1 1 1 0 0 1-1 1z"/></g><g><path d="M34.488 15.012a1 1 0 0 1-1-1 1 1 0 0 0-1-1 1 1 0 1 1 0-2c1.654 0 3 1.346 3 3a1 1 0 0 1-1 1z"/></g><g><path d="M32.488 13.012H18.5a1 1 0 1 1 0-2h13.988a1 1 0 1 1 0 2z"/></g><g><path d="M32.488 31.012a1 1 0 1 1 0-2 1 1 0 0 0 1-1 1 1 0 1 1 2 0c0 1.654-1.345 3-3 3z"/></g><g><path d="M18.5 31.012c-1.654 0-3-1.346-3-3a1 1 0 1 1 2 0 1 1 0 0 0 1 1 1 1 0 1 1 0 2z"/></g><g><path d="M32.488 31.012H18.5a1 1 0 1 1 0-2h13.988a1 1 0 1 1 0 2z"/></g><g><path d="M36.488 28.012h-2a1 1 0 1 1 0-2h2a1 1 0 1 1 0 2z"/></g><g><path d="M36.488 16.012h-2a1 1 0 1 1 0-2h2a1 1 0 1 1 0 2z"/></g></svg>