<?xml version="1.0" encoding="utf-8"?>
<!-- Generator: Adobe Illustrator 16.0.0, SVG Export Plug-In . SVG Version: 6.00 Build 0)  -->
<!DOCTYPE svg PUBLIC "-//W3C//DTD SVG 1.1//EN" "http://www.w3.org/Graphics/SVG/1.1/DTD/svg11.dtd">
<svg version="1.1" xmlns="http://www.w3.org/2000/svg" xmlns:xlink="http://www.w3.org/1999/xlink" x="0px" y="0px" width="64px"
	 height="64px" viewBox="0 0 64 64" enable-background="new 0 0 64 64" xml:space="preserve">
<g id="_x35_0_code_x2C__programming_x2C__program_x2C__bitcoin_x2C__block_x2C__chain_x2C__cryptocurrency">
</g>
<g id="_x34_9_balloon_x2C__takeoff_x2C__bitcoin_x2C__coin_x2C__block_x2C__chain_x2C__cryptocurrency">
</g>
<g id="_x34_8_video_card_x2C__mining_x2C__farm_x2C__computer_x2C__block_x2C__chain_x2C__cryptocurrency">
</g>
<g id="_x34_7_money_box_x2C__saving_x2C__bitcoin_x2C__coin_x2C__block_x2C__chain_x2C__cryptocurrency">
</g>
<g id="_x34_6_portfolio_x2C__finance_x2C__bank_note_x2C__bitcoin_x2C__coin_x2C__cryptocurrency">
</g>
<g id="_x34_5_tap_x2C__water_x2C__bitcoin_x2C__coin_x2C__block_x2C__chain_x2C__cryptocurrency">
</g>
<g id="_x34_4_phone_x2C__bitcoin_x2C__coin_x2C__block_x2C__chain_x2C__cryptocurrency">
</g>
<g id="_x34_3_rocket_x2C__sun_x2C__bitcoin_x2C__coin_x2C__block_x2C__chain_x2C__cryptocurrency">
</g>
<g id="_x34_2_transfer_x2C__network_x2C__bitcoin_x2C__coin_x2C__block_x2C__chain_x2C__cryptocurrency">
</g>
<g id="_x34_1_scales_x2C__comparison_x2C__bitcoin_x2C__coin_x2C__block_x2C__chain_x2C__cryptocurrency">
</g>
<g id="_x34_0_calculator_x2C__calculating_x2C__bitcoin_x2C__coin_x2C__block_x2C__chain_x2C__cryptocurrency">
</g>
<g id="_x33_9_start-up_x2C__plant_x2C__hand_x2C__bitcoin_x2C__coin_x2C__cryptocurrency">
</g>
<g id="_x33_8_idea_x2C__bulb_x2C__bitcoin_x2C__coin_x2C__block_x2C__chain_x2C__cryptocurrency">
</g>
<g id="_x33_7_users_x2C__user_x2C__co-founder_x2C__bitcoin_x2C__coin_x2C__cryptocurrency">
</g>
<g id="_x33_6_safe_x2C__protection_x2C__bitcoin_x2C__coin_x2C__block_x2C__chain_x2C__cryptocurrency">
</g>
<g id="_x33_5_flash_drive_x2C__key_x2C__block_x2C__chain_x2C__cryptocurrency">
</g>
<g id="_x33_4_cloud_x2C__mining_x2C__bitcoin_x2C__coin_x2C__block_x2C__chain_x2C__cryptocurrency">
</g>
<g id="_x33_3_start_up_x2C__plant_x2C__bitcoin_x2C__coin_x2C__block_x2C__chain_x2C__cryptocurrency">
</g>
<g id="_x33_2_planet_x2C__bitcoin_x2C__coin_x2C__block_x2C__chain_x2C__cryptocurrency">
</g>
<g id="_x33_1_payment_x2C__hand_x2C__bitcoin_x2C__coin_x2C__block_x2C__chain_x2C__cryptocurrency">
</g>
<g id="_x33_0_user_x2C__laptop_x2C__bitcoin_x2C__coin_x2C__block_x2C__chain_x2C__cryptocurrency">
</g>
<g id="_x32_9_thief_x2C__bag_x2C__bitcoin_x2C__coin_x2C__block_x2C__chain_x2C__cryptocurrency">
</g>
<g id="_x32_8_code_x2C__programming_x2C__program_x2C__bitcoin_x2C__coin_x2C__cryptocurrency">
</g>
<g id="_x32_7_bitcoin_x2C__coin_x2C__block_x2C__chain_x2C__cryptocurrency">
</g>
<g id="_x32_6_shield_x2C__protection_x2C__bitcoin_x2C__coin_x2C__block_x2C__chain_x2C__cryptocurrency">
</g>
<g id="_x32_5_bug_x2C__laptop_x2C__miner_x2C__program_x2C__block_x2C__chain_x2C__cryptocurrency">
</g>
<g id="_x32_4_computer_x2C__monitor_x2C__bitcoin_x2C__coin_x2C__block_x2C__chain_x2C__cryptocurrency">
</g>
<g id="_x32_3_network_x2C__idea_x2C__bitcoin_x2C__coin_x2C__block_x2C__chain_x2C__cryptocurrency">
</g>
<g id="_x32_2_block_x2C__chain_x2C__cryptocurrency_x2C__technology_x2C__future">
</g>
<g id="_x32_1_smart_contact_x2C__contact_x2C__block_x2C__chain_x2C__cryptocurrency">
</g>
<g id="_x32_0_lock_x2C__safe_x2C__protection_x2C__block_x2C__chain_x2C__cryptocurrency_x2C__program">
</g>
<g id="_x31_9_server_x2C__data_x2C__bitcoin_x2C__coin_x2C__block_x2C__chain_x2C__cryptocurrency">
</g>
<g id="_x31_8_key_x2C__bitcoin_x2C__coin_x2C__block_x2C__chain_x2C__cryptocurrency">
</g>
<g id="_x31_7_pool_x2C__network_x2C__bitcoin_x2C__coin_x2C__block_x2C__chain_x2C__cryptocurrency">
</g>
<g id="_x31_6_mining_x2C__shovel_x2C__mine_x2C__coin_x2C__block_x2C__chain_x2C__cryptocurrency">
</g>
<g id="_x31_5_purse_x2C__bitcoin_x2C__coin_x2C__block_x2C__chain_x2C__cryptocurrency">
</g>
<g id="_x31_4_safe_x2C__protection_x2C__block_x2C__chain_x2C__cryptocurrency_x2C__program">
</g>
<g id="_x31_3_mining_x2C__funnel_x2C__satoshi_x2C__bitcoin_x2C__coin_x2C__cryptocurrency">
</g>
<g id="_x31_2_chart_x2C__bitcoin_x2C__coin_x2C__block_x2C__chain_x2C__cryptocurrency">
</g>
<g id="_x31_1_computer_x2C__monitor_x2C__bitcoin_x2C__coin_x2C__block_x2C__chain_x2C__cryptocurrency">
</g>
<g id="_x31_0_mining_x2C__pickaxe_x2C__stone_x2C__mine_x2C___bitcoin_x2C__coin_x2C__cryptocurrency">
</g>
<g id="_x39__miner_x2C__mining_x2C__computer_x2C__pickaxe_x2C__program_x2C__cryptocurrency">
</g>
<g id="_x38__video_card_x2C__mining_x2C__bitcoin_x2C__coin_x2C__block_x2C__chain_x2C__cryptocurrency">
	<g>
		<g>
			<path d="M3,48c-0.553,0-1-0.447-1-1V11c0-0.552,0.447-1,1-1s1,0.448,1,1v36C4,47.553,3.553,48,3,48z"/>
		</g>
		<g>
			<path d="M3,17H1c-0.553,0-1-0.448-1-1s0.447-1,1-1h2c0.553,0,1,0.448,1,1S3.553,17,3,17z"/>
		</g>
		<g>
			<path d="M41,42H3c-0.553,0-1-0.447-1-1s0.447-1,1-1h38c0.553,0,1,0.447,1,1S41.553,42,41,42z"/>
		</g>
		<g>
			<path d="M60,12H3c-0.553,0-1-0.448-1-1s0.447-1,1-1h57c0.553,0,1,0.448,1,1S60.553,12,60,12z"/>
		</g>
		<g>
			<path d="M61.205,35.978c-0.065,0-0.131-0.006-0.197-0.02c-0.541-0.108-0.893-0.635-0.784-1.177L61.98,26L59.02,11.196
				c-0.108-0.542,0.243-1.068,0.784-1.177c0.548-0.109,1.069,0.244,1.177,0.784l3,15c0.026,0.13,0.026,0.263,0,0.393l-1.796,8.978
				C62.09,35.649,61.672,35.978,61.205,35.978z"/>
		</g>
		<g>
			<path d="M7,43c-0.553,0-1-0.447-1-1V8c0-0.552,0.447-1,1-1s1,0.448,1,1v34C8,42.553,7.553,43,7,43z"/>
		</g>
		<g>
			<path d="M58,12c-0.256,0-0.512-0.098-0.707-0.293l-3-3c-0.391-0.391-0.391-1.023,0-1.414s1.023-0.391,1.414,0l3,3
				c0.391,0.391,0.391,1.023,0,1.414C58.512,11.902,58.256,12,58,12z"/>
		</g>
		<g>
			<path d="M55,9H7C6.447,9,6,8.552,6,8s0.447-1,1-1h48c0.553,0,1,0.448,1,1S55.553,9,55,9z"/>
		</g>
		<g>
			<path d="M13,12c-0.256,0-0.512-0.098-0.707-0.293l-3-3c-0.391-0.391-0.391-1.023,0-1.414s1.023-0.391,1.414,0l3,3
				c0.391,0.391,0.391,1.023,0,1.414C13.512,11.902,13.256,12,13,12z"/>
		</g>
		<g>
			<path d="M18,12c-0.256,0-0.512-0.098-0.707-0.293l-3-3c-0.391-0.391-0.391-1.023,0-1.414s1.023-0.391,1.414,0l3,3
				c0.391,0.391,0.391,1.023,0,1.414C18.512,11.902,18.256,12,18,12z"/>
		</g>
		<g>
			<path d="M23,12c-0.256,0-0.512-0.098-0.707-0.293l-3-3c-0.391-0.391-0.391-1.023,0-1.414s1.023-0.391,1.414,0l3,3
				c0.391,0.391,0.391,1.023,0,1.414C23.512,11.902,23.256,12,23,12z"/>
		</g>
		<g>
			<path d="M28,12c-0.256,0-0.512-0.098-0.707-0.293l-3-3c-0.391-0.391-0.391-1.023,0-1.414s1.023-0.391,1.414,0l3,3
				c0.391,0.391,0.391,1.023,0,1.414C28.512,11.902,28.256,12,28,12z"/>
		</g>
		<g>
			<path d="M33,12c-0.256,0-0.512-0.098-0.707-0.293l-3-3c-0.391-0.391-0.391-1.023,0-1.414s1.023-0.391,1.414,0l3,3
				c0.391,0.391,0.391,1.023,0,1.414C33.512,11.902,33.256,12,33,12z"/>
		</g>
		<g>
			<path d="M38,12c-0.256,0-0.512-0.098-0.707-0.293l-3-3c-0.391-0.391-0.391-1.023,0-1.414s1.023-0.391,1.414,0l3,3
				c0.391,0.391,0.391,1.023,0,1.414C38.512,11.902,38.256,12,38,12z"/>
		</g>
		<g>
			<path d="M43,12c-0.256,0-0.512-0.098-0.707-0.293l-3-3c-0.391-0.391-0.391-1.023,0-1.414s1.023-0.391,1.414,0l3,3
				c0.391,0.391,0.391,1.023,0,1.414C43.512,11.902,43.256,12,43,12z"/>
		</g>
		<g>
			<path d="M48,12c-0.256,0-0.512-0.098-0.707-0.293l-3-3c-0.391-0.391-0.391-1.023,0-1.414s1.023-0.391,1.414,0l3,3
				c0.391,0.391,0.391,1.023,0,1.414C48.512,11.902,48.256,12,48,12z"/>
		</g>
		<g>
			<path d="M53,12c-0.256,0-0.512-0.098-0.707-0.293l-3-3c-0.391-0.391-0.391-1.023,0-1.414s1.023-0.391,1.414,0l3,3
				c0.391,0.391,0.391,1.023,0,1.414C53.512,11.902,53.256,12,53,12z"/>
		</g>
		<g>
			<path d="M11,45c-0.553,0-1-0.447-1-1v-3c0-0.553,0.447-1,1-1s1,0.447,1,1v3C12,44.553,11.553,45,11,45z"/>
		</g>
		<g>
			<path d="M33,45H11c-0.553,0-1-0.447-1-1s0.447-1,1-1h22c0.553,0,1,0.447,1,1S33.553,45,33,45z"/>
		</g>
		<g>
			<path d="M33,45c-0.553,0-1-0.447-1-1v-3c0-0.553,0.447-1,1-1s1,0.447,1,1v3C34,44.553,33.553,45,33,45z"/>
		</g>
		<g>
			<path d="M15,45c-0.553,0-1-0.447-1-1v-1c0-0.553,0.447-1,1-1s1,0.447,1,1v1C16,44.553,15.553,45,15,45z"/>
		</g>
		<g>
			<g>
				<path d="M20.844,24.23c-0.392,0-0.765-0.232-0.924-0.618l-0.766-1.848c-0.211-0.51,0.031-1.095,0.541-1.307
					c0.509-0.21,1.095,0.03,1.307,0.541l0.766,1.848c0.211,0.51-0.031,1.095-0.541,1.307C21.102,24.205,20.972,24.23,20.844,24.23z"
					/>
			</g>
			<g>
				<path d="M21.994,30.002c-1.625,0-3.077-0.97-3.698-2.47c-0.844-2.038,0.128-4.383,2.165-5.227C20.949,22.103,21.464,22,21.99,22
					c1.624,0,3.075,0.97,3.697,2.47c0.845,2.038-0.126,4.382-2.164,5.227C23.034,29.9,22.52,30.002,21.994,30.002z M21.99,24
					c-0.262,0-0.519,0.051-0.764,0.153c-1.019,0.422-1.505,1.595-1.083,2.614c0.41,0.993,1.607,1.498,2.614,1.083
					c1.019-0.422,1.504-1.595,1.082-2.613C23.528,24.486,22.803,24,21.99,24z"/>
			</g>
			<g>
				<path d="M20.078,22.382c-0.393,0-0.765-0.233-0.924-0.618c-0.346-0.833-0.736-1.779-1.274-2.306
					c-0.345-0.34-0.842-0.626-1.921-0.181c-0.508,0.211-1.095-0.03-1.307-0.541c-0.211-0.51,0.031-1.095,0.541-1.307
					c2.018-0.835,3.336-0.136,4.087,0.6c0.829,0.813,1.304,1.959,1.722,2.97c0.211,0.51-0.031,1.095-0.541,1.306
					C20.336,22.357,20.206,22.382,20.078,22.382z"/>
			</g>
			<g>
				<path d="M19.209,25.864c-0.128,0-0.257-0.025-0.383-0.077l-1.848-0.765c-0.51-0.211-0.752-0.796-0.541-1.306
					c0.211-0.511,0.794-0.752,1.307-0.542l1.848,0.765c0.51,0.211,0.752,0.796,0.541,1.306
					C19.974,25.631,19.602,25.864,19.209,25.864z"/>
			</g>
			<g>
				<path d="M12.036,26.14c-0.128,0-0.258-0.025-0.383-0.077c-0.51-0.211-0.752-0.796-0.541-1.307
					c1.532-3.693,4.849-2.321,6.631-1.583c0.51,0.211,0.752,0.796,0.541,1.307c-0.211,0.509-0.795,0.752-1.307,0.541
					c-2.442-1.012-3.363-1.08-4.018,0.5C12.801,25.908,12.428,26.14,12.036,26.14z"/>
			</g>
			<g>
				<path d="M17.359,28.942c-0.392,0-0.765-0.232-0.924-0.618c-0.211-0.51,0.031-1.095,0.541-1.307l1.848-0.766
					c0.508-0.209,1.096,0.03,1.307,0.541c0.211,0.51-0.031,1.095-0.541,1.307l-1.848,0.766
					C17.617,28.917,17.487,28.942,17.359,28.942z"/>
			</g>
			<g>
				<path d="M14.331,33.443c-0.393,0-0.765-0.232-0.924-0.618c-1.53-3.698,1.787-5.071,3.569-5.808
					c0.51-0.209,1.096,0.031,1.307,0.542c0.211,0.51-0.031,1.095-0.541,1.306c-2.44,1.01-3.142,1.613-2.487,3.196
					c0.211,0.51-0.031,1.095-0.542,1.306C14.588,33.419,14.459,33.443,14.331,33.443z"/>
			</g>
			<g>
				<path d="M20.076,31.659c-0.128,0-0.258-0.025-0.383-0.077c-0.51-0.211-0.752-0.796-0.541-1.307l0.766-1.848
					c0.211-0.511,0.799-0.752,1.307-0.541c0.51,0.211,0.752,0.796,0.541,1.307L21,31.041C20.841,31.426,20.468,31.659,20.076,31.659
					z"/>
			</g>
			<g>
				<path d="M21.119,36.982c-0.128,0-0.258-0.024-0.383-0.076c-3.692-1.529-2.322-4.844-1.587-6.624
					c0.212-0.511,0.8-0.757,1.308-0.545c0.511,0.211,0.754,0.792,0.543,1.303l-0.002,0.006c-1.008,2.436-1.075,3.358,0.504,4.012
					c0.51,0.211,0.752,0.796,0.541,1.307C21.884,36.75,21.511,36.982,21.119,36.982z"/>
			</g>
			<g>
				<path d="M23.919,31.661c-0.393,0-0.765-0.233-0.924-0.618l-0.765-1.849c-0.211-0.51,0.031-1.095,0.542-1.307
					c0.509-0.209,1.095,0.031,1.306,0.542l0.765,1.849c0.211,0.51-0.031,1.095-0.542,1.307
					C24.176,31.636,24.047,31.661,23.919,31.661z"/>
			</g>
			<g>
				<path d="M27.033,35.002c-2.393,0-3.428-2.489-4.033-3.948c-0.212-0.51,0.027-1.1,0.537-1.312
					c0.51-0.213,1.092,0.024,1.306,0.535l0.004,0.01c1.01,2.433,1.614,3.127,3.192,2.476c0.508-0.209,1.096,0.03,1.307,0.541
					c0.212,0.51-0.03,1.095-0.541,1.307C28.144,34.884,27.556,35.002,27.033,35.002z"/>
			</g>
			<g>
				<path d="M26.637,28.944c-0.128,0-0.258-0.025-0.383-0.077l-1.848-0.766c-0.51-0.211-0.752-0.796-0.541-1.307
					c0.211-0.511,0.798-0.751,1.307-0.541l1.848,0.766c0.51,0.211,0.752,0.796,0.541,1.307
					C27.401,28.711,27.028,28.944,26.637,28.944z"/>
			</g>
			<g>
				<path d="M29.573,29.737c-1.21,0-2.438-0.507-3.305-0.864c-0.511-0.21-0.761-0.798-0.55-1.308
					c0.21-0.511,0.788-0.756,1.299-0.546l0.014,0.005c2.43,1.002,3.352,1.069,4.006-0.508c0.211-0.511,0.799-0.751,1.307-0.542
					c0.51,0.211,0.752,0.796,0.541,1.306C32.102,29.174,30.848,29.737,29.573,29.737z"/>
			</g>
			<g>
				<path d="M24.79,25.866c-0.392,0-0.765-0.232-0.924-0.618c-0.211-0.51,0.031-1.095,0.541-1.307l1.848-0.766
					c0.509-0.209,1.095,0.03,1.307,0.541c0.211,0.51-0.031,1.095-0.541,1.307l-1.848,0.766
					C25.048,25.841,24.918,25.866,24.79,25.866z"/>
			</g>
			<g>
				<path d="M26.646,25.096c-0.393,0-0.767-0.231-0.927-0.615c-0.212-0.51,0.025-1.093,0.535-1.305l0.01-0.004
					c2.432-1.01,3.131-1.613,2.478-3.193c-0.211-0.51,0.031-1.095,0.542-1.307c0.51-0.208,1.095,0.031,1.306,0.542
					c1.527,3.692-1.78,5.066-3.558,5.805C26.905,25.071,26.774,25.096,26.646,25.096z"/>
			</g>
			<g>
				<path d="M21.997,37.023c-1.445,0-2.861-0.282-4.208-0.84c-5.604-2.323-8.273-8.77-5.953-14.371
					c1.709-4.127,5.699-6.794,10.166-6.794c1.445,0,2.861,0.283,4.207,0.84c2.714,1.125,4.828,3.238,5.952,5.953
					c1.125,2.714,1.125,5.705,0,8.419C30.453,34.357,26.464,37.023,21.997,37.023z M22.002,17.018c-3.655,0-6.92,2.182-8.318,5.56
					c-1.898,4.583,0.286,9.858,4.871,11.758c1.103,0.456,2.261,0.688,3.442,0.688c3.654,0,6.919-2.182,8.316-5.558
					c0.92-2.222,0.92-4.668,0-6.889c-0.92-2.221-2.649-3.95-4.87-4.87C24.341,17.25,23.184,17.018,22.002,17.018z"/>
			</g>
			<g>
				<path d="M23.156,24.23c-0.128,0-0.258-0.025-0.383-0.077c-0.51-0.211-0.752-0.796-0.541-1.307l0.766-1.848
					c0.211-0.511,0.799-0.751,1.307-0.541c0.51,0.211,0.752,0.796,0.541,1.307l-0.766,1.848
					C23.921,23.998,23.548,24.23,23.156,24.23z"/>
			</g>
			<g>
				<path d="M23.92,22.376c-0.126,0-0.254-0.024-0.378-0.075c-0.51-0.21-0.755-0.79-0.545-1.301l0.005-0.01
					c1.005-2.433,1.072-3.354-0.507-4.008c-0.511-0.212-0.753-0.797-0.541-1.307c0.212-0.511,0.8-0.751,1.307-0.541
					c3.69,1.531,2.324,4.841,1.59,6.619C24.69,22.14,24.315,22.376,23.92,22.376z"/>
			</g>
		</g>
		<g>
			<g>
				<path d="M45.104,24.67c-0.292,0-0.582-0.127-0.779-0.372l-1.256-1.557c-0.347-0.43-0.279-1.06,0.15-1.406
					s1.061-0.279,1.406,0.15l1.256,1.557c0.347,0.43,0.279,1.06-0.15,1.406C45.546,24.597,45.323,24.67,45.104,24.67z"/>
			</g>
			<g>
				<path d="M46.989,30.004c-1.217,0-2.352-0.542-3.114-1.487c-0.671-0.831-0.979-1.874-0.865-2.938
					c0.113-1.063,0.634-2.018,1.465-2.688c0.709-0.572,1.601-0.888,2.512-0.888c1.217,0,2.353,0.543,3.114,1.489
					c1.384,1.714,1.115,4.237-0.599,5.623C48.791,29.689,47.899,30.004,46.989,30.004z M46.986,24.004
					c-0.462,0-0.896,0.153-1.256,0.444c-0.416,0.335-0.676,0.813-0.732,1.344s0.097,1.053,0.433,1.469
					c0.672,0.832,1.98,0.973,2.815,0.3c0.855-0.692,0.99-1.954,0.297-2.812C48.162,24.275,47.595,24.004,46.986,24.004z"/>
			</g>
			<g>
				<path d="M43.847,23.112c-0.292,0-0.581-0.127-0.779-0.372c-0.566-0.703-1.209-1.499-1.873-1.852
					c-0.427-0.227-0.986-0.362-1.894,0.37c-0.43,0.347-1.061,0.279-1.406-0.15c-0.347-0.43-0.279-1.06,0.15-1.406
					c1.697-1.371,3.161-1.072,4.089-0.579c1.024,0.545,1.804,1.51,2.49,2.362c0.347,0.43,0.279,1.06-0.15,1.406
					C44.289,23.04,44.067,23.112,43.847,23.112z"/>
			</g>
			<g>
				<path d="M43.998,26.698c-0.035,0-0.071-0.002-0.106-0.006l-1.989-0.212c-0.55-0.058-0.947-0.551-0.889-1.1
					c0.058-0.549,0.561-0.949,1.1-0.888l1.989,0.212c0.55,0.058,0.947,0.551,0.889,1.1C44.937,26.317,44.503,26.698,43.998,26.698z"
					/>
			</g>
			<g>
				<path d="M37.194,28.988c-0.035,0-0.071-0.002-0.107-0.006c-0.549-0.059-0.946-0.551-0.888-1.1
					c0.231-2.172,1.479-2.993,2.482-3.3c1.111-0.339,2.344-0.207,3.433-0.09c0.549,0.059,0.946,0.551,0.888,1.101
					c-0.059,0.549-0.543,0.946-1.101,0.888c-0.897-0.096-1.914-0.204-2.636,0.015c-0.464,0.142-0.954,0.442-1.078,1.599
					C38.133,28.607,37.699,28.988,37.194,28.988z"/>
			</g>
			<g>
				<path d="M43.094,30.172c-0.292,0-0.582-0.127-0.779-0.372c-0.347-0.43-0.279-1.06,0.15-1.406l1.555-1.254
					c0.43-0.349,1.061-0.278,1.406,0.15c0.347,0.43,0.279,1.06-0.15,1.406l-1.555,1.254C43.536,30.1,43.313,30.172,43.094,30.172z"
					/>
			</g>
			<g>
				<path d="M41.459,35.348c-0.292,0-0.582-0.127-0.779-0.372c-2.511-3.113,0.281-5.368,1.781-6.579
					c0.431-0.346,1.062-0.281,1.408,0.148c0.347,0.43,0.281,1.058-0.148,1.405l-0.003,0.003c-2.054,1.658-2.556,2.435-1.481,3.767
					c0.347,0.43,0.279,1.06-0.15,1.406C41.901,35.275,41.679,35.348,41.459,35.348z"/>
			</g>
			<g>
				<path d="M51.992,27.555c-0.035,0-0.071-0.002-0.107-0.006l-1.987-0.213c-0.549-0.059-0.946-0.552-0.888-1.101
					c0.058-0.549,0.545-0.949,1.101-0.888l1.987,0.213c0.549,0.059,0.946,0.552,0.888,1.101
					C52.931,27.174,52.497,27.555,51.992,27.555z"/>
			</g>
			<g>
				<path d="M53.594,27.665c-0.621,0-1.214-0.063-1.7-0.115c-0.55-0.058-0.951-0.551-0.893-1.1c0.058-0.55,0.534-0.946,1.096-0.89
					l0.008,0.001c2.62,0.278,3.525,0.083,3.706-1.617c0.059-0.549,0.54-0.952,1.101-0.888c0.549,0.058,0.946,0.551,0.888,1.1
					C57.482,27.122,55.418,27.665,53.594,27.665z"/>
			</g>
			<g>
				<path d="M49.353,25.124c-0.292,0-0.581-0.127-0.779-0.372c-0.347-0.43-0.279-1.059,0.15-1.406l1.555-1.256
					c0.429-0.347,1.059-0.28,1.406,0.149c0.347,0.43,0.279,1.059-0.15,1.406l-1.555,1.256
					C49.795,25.051,49.573,25.124,49.353,25.124z"/>
			</g>
			<g>
				<path d="M50.911,23.862c-0.292,0-0.581-0.125-0.777-0.369c-0.348-0.43-0.286-1.055,0.144-1.403l0.01-0.007
					c2.047-1.655,2.547-2.431,1.475-3.762c-0.347-0.43-0.279-1.06,0.15-1.406c0.433-0.348,1.061-0.279,1.406,0.151
					c2.508,3.11-0.277,5.362-1.773,6.572C51.358,23.789,51.134,23.862,50.911,23.862z"/>
			</g>
			<g>
				<path d="M42.74,36.072c-0.143,0-0.287-0.03-0.425-0.096c-4.238-1.994-6.752-6.464-6.254-11.122
					c0.644-6.032,6.075-10.422,12.108-9.772c6.03,0.646,10.412,6.077,9.768,12.107c-0.148,1.399-0.556,2.735-1.208,3.969
					c-0.257,0.488-0.861,0.676-1.352,0.417c-0.488-0.258-0.675-0.863-0.416-1.352c0.533-1.008,0.865-2.101,0.987-3.247
					c0.527-4.934-3.059-9.378-7.992-9.907c-4.934-0.521-9.379,3.062-9.907,7.997c-0.407,3.811,1.649,7.468,5.117,9.101
					c0.5,0.234,0.714,0.83,0.479,1.33C43.476,35.86,43.116,36.072,42.74,36.072z"/>
			</g>
			<g>
				<path d="M47.322,24.017c-0.035,0-0.071-0.002-0.106-0.006c-0.55-0.058-0.947-0.551-0.889-1.1l0.212-1.989
					c0.059-0.549,0.556-0.953,1.1-0.888c0.55,0.058,0.947,0.551,0.889,1.1l-0.212,1.989C48.261,23.636,47.827,24.017,47.322,24.017z
					"/>
			</g>
			<g>
				<path d="M47.534,22.024c-0.035,0-0.07-0.002-0.106-0.006c-0.549-0.059-0.947-0.548-0.889-1.097v-0.006
					c0.279-2.621,0.085-3.524-1.616-3.707c-0.55-0.059-0.946-0.552-0.888-1.101s0.539-0.947,1.101-0.888
					c3.976,0.426,3.597,3.991,3.393,5.906C48.474,21.641,48.039,22.024,47.534,22.024z"/>
			</g>
		</g>
		<g>
			<g>
				<g>
					<path d="M52,53c-6.617,0-12-5.383-12-12s5.383-12,12-12s12,5.383,12,12S58.617,53,52,53z M52,31c-5.514,0-10,4.486-10,10
						s4.486,10,10,10s10-4.486,10-10S57.514,31,52,31z"/>
				</g>
				<g>
					<path d="M52,57c-6.617,0-12-5.383-12-12c0-0.553,0.447-1,1-1s1,0.447,1,1c0,5.514,4.486,10,10,10s10-4.486,10-10
						c0-0.553,0.447-1,1-1s1,0.447,1,1C64,51.617,58.617,57,52,57z"/>
				</g>
			</g>
			<g>
				<path d="M63,46c-0.553,0-1-0.447-1-1v-4c0-0.553,0.447-1,1-1s1,0.447,1,1v4C64,45.553,63.553,46,63,46z"/>
			</g>
			<g>
				<path d="M41,46c-0.553,0-1-0.447-1-1v-4c0-0.553,0.447-1,1-1s1,0.447,1,1v4C42,45.553,41.553,46,41,46z"/>
			</g>
			<g>
				<g>
					<path d="M49,47c-0.553,0-1-0.447-1-1V36c0-0.553,0.447-1,1-1s1,0.447,1,1v10C50,46.553,49.553,47,49,47z"/>
				</g>
				<g>
					<path d="M53.001,40.998c-0.553,0-1-0.447-1-1s0.447-1,1-1c0.551,0,0.999-0.448,0.999-0.999S53.552,37,53.001,37
						c-0.553,0-1-0.447-1-1s0.447-1,1-1C54.654,35,56,36.346,56,37.999S54.654,40.998,53.001,40.998z"/>
				</g>
				<g>
					<path d="M52.999,47c-0.553,0-1-0.447-1-1s0.447-1,1-1C54.103,45,55,44.103,55,43c0-1.104-0.897-2.002-2.001-2.002
						c-0.553,0-1-0.447-1-1s0.447-1,1-1C55.205,38.998,57,40.793,57,43C57,45.206,55.205,47,52.999,47z"/>
				</g>
				<g>
					<path d="M53.001,37H48c-0.553,0-1-0.447-1-1s0.447-1,1-1h5.001c0.553,0,1,0.447,1,1S53.554,37,53.001,37z"/>
				</g>
				<g>
					<path d="M52.999,47H48c-0.553,0-1-0.447-1-1s0.447-1,1-1h4.999c0.553,0,1,0.447,1,1S53.552,47,52.999,47z"/>
				</g>
				<g>
					<path d="M53.001,40.998H49c-0.553,0-1-0.447-1-1s0.447-1,1-1h4.001c0.553,0,1,0.447,1,1S53.554,40.998,53.001,40.998z"/>
				</g>
				<g>
					<path d="M51,37c-0.553,0-1-0.447-1-1v-1c0-0.553,0.447-1,1-1s1,0.447,1,1v1C52,36.553,51.553,37,51,37z"/>
				</g>
				<g>
					<path d="M51,48c-0.553,0-1-0.447-1-1v-1c0-0.553,0.447-1,1-1s1,0.447,1,1v1C52,47.553,51.553,48,51,48z"/>
				</g>
			</g>
			<g>
				<path d="M47,55.8c-0.553,0-1-0.447-1-1v-4c0-0.553,0.447-1,1-1s1,0.447,1,1v4C48,55.353,47.553,55.8,47,55.8z"/>
			</g>
			<g>
				<path d="M57,55.8c-0.553,0-1-0.447-1-1v-4c0-0.553,0.447-1,1-1s1,0.447,1,1v4C58,55.353,57.553,55.8,57,55.8z"/>
			</g>
			<g>
				<path d="M52,57c-0.553,0-1-0.447-1-1v-4c0-0.553,0.447-1,1-1s1,0.447,1,1v4C53,56.553,52.553,57,52,57z"/>
			</g>
		</g>
	</g>
</g>
<g id="_x37__exchanger_x2C__site_x2C__bitcoin_x2C__coin_x2C__block_x2C__chain_x2C__cryptocurrency">
</g>
<g id="_x36__shop_x2C__product_x2C__bitcoin_x2C__coin_x2C__block_x2C__chain_x2C__cryptocurrency">
</g>
<g id="_x35__bitcoin_x2C__coin_x2C__exchange_x2C__block_x2C__chain_x2C__cryptocurrency_x2C__product">
</g>
<g id="_x34__bitcoin_x2C__coin_x2C__exchange_x2C__block_x2C__chain_x2C__cryptocurrency">
</g>
<g id="_x33__bitcoin_x2C__coin_x2C__exchange_x2C__block_x2C__chain_x2C__cryptocurrency">
</g>
<g id="_x32__brain_x2C__smart_x2C__coin_x2C__block_x2C__chain_x2C__cryptocurrency">
</g>
<g id="_x31__bitcoin_x2C__coin_x2C__block_x2C__chain_x2C__cryptocurrency">
</g>
</svg>
