<svg xmlns="http://www.w3.org/2000/svg" x="0" y="0" xml:space="preserve" viewBox="0 0 64 64"><path d="M29 49a1 1 0 0 1-1-1V38a1 1 0 1 1 2 0v10a1 1 0 0 1-1 1zM33.001 42.998a1 1 0 1 1 0-2 1 1 0 0 0 0-1.998 1 1 0 1 1 0-2C34.654 37 36 38.346 36 39.999s-1.346 2.999-2.999 2.999z"/><path d="M32.999 49a1 1 0 1 1 0-2 2.002 2.002 0 0 0 0-4.002 1 1 0 1 1 0-2A4.006 4.006 0 0 1 37 45c0 2.206-1.795 4-4.001 4zM33.001 39H28a1 1 0 1 1 0-2h5.001a1 1 0 1 1 0 2z"/><path d="M32.999 49H28a1 1 0 1 1 0-2h4.999a1 1 0 1 1 0 2zM33.001 42.998H29a1 1 0 1 1 0-2h4.001a1 1 0 1 1 0 2zM31 39a1 1 0 0 1-1-1v-1a1 1 0 1 1 2 0v1a1 1 0 0 1-1 1z"/><path d="M31 50a1 1 0 0 1-1-1v-1a1 1 0 1 1 2 0v1a1 1 0 0 1-1 1z"/><path d="M32 64c-11.579 0-21-9.421-21-21s9.421-21 21-21 21 9.421 21 21-9.421 21-21 21zm0-40c-10.477 0-19 8.523-19 19s8.523 19 19 19 19-8.523 19-19-8.523-19-19-19z"/><path d="M32 59c-8.822 0-16-7.178-16-16s7.178-16 16-16 16 7.178 16 16-7.178 16-16 16zm0-30c-7.72 0-14 6.28-14 14s6.28 14 14 14 14-6.28 14-14-6.28-14-14-14z"/><path d="M32 55c-6.617 0-12-5.383-12-12s5.383-12 12-12 12 5.383 12 12-5.383 12-12 12zm0-22c-5.514 0-10 4.486-10 10s4.486 10 10 10 10-4.486 10-10-4.486-10-10-10zM44 14a1 1 0 0 1-1-1c0-6.065-4.935-11-11-11S21 6.935 21 13a1 1 0 1 1-2 0c0-7.168 5.832-13 13-13s13 5.832 13 13a1 1 0 0 1-1 1z"/><path d="M40 14a1 1 0 0 1-1-1c0-3.859-3.141-7-7-7s-7 3.141-7 7a1 1 0 1 1-2 0c0-4.963 4.037-9 9-9s9 4.037 9 9a1 1 0 0 1-1 1zM20 28.009a1 1 0 0 1-1-1V13a1 1 0 1 1 2 0v14.009a1 1 0 0 1-1 1zM44.011 28.009a1 1 0 0 1-1-1V13a1 1 0 1 1 2 0v14.009a1 1 0 0 1-1 1z"/><path d="M24 25.665a1 1 0 0 1-1-1V13a1 1 0 1 1 2 0v11.665a1 1 0 0 1-1 1zM40 25.665a1 1 0 0 1-1-1V13a1 1 0 1 1 2 0v11.665a1 1 0 0 1-1 1zM32 33a1 1 0 0 1-1-1v-1a1 1 0 1 1 2 0v1a1 1 0 0 1-1 1zM32 56a1 1 0 0 1-1-1v-1a1 1 0 1 1 2 0v1a1 1 0 0 1-1 1zM26.501 34.474a1 1 0 0 1-.867-.5l-.5-.866a1 1 0 0 1 1.732-1l.5.866a1 1 0 0 1-.865 1.5zM38.001 54.393a.998.998 0 0 1-.867-.501l-.5-.867a1 1 0 1 1 1.732-.998l.5.867a1 1 0 0 1-.865 1.499zM22.473 38.5a.992.992 0 0 1-.499-.134l-.866-.5a1 1 0 1 1 1-1.732l.866.5a.999.999 0 0 1-.501 1.866z"/><g><path d="M42.392 50a.992.992 0 0 1-.499-.134l-.867-.501a.999.999 0 1 1 1-1.732l.867.501A.999.999 0 0 1 42.392 50z"/></g><g><path d="M21 44h-1a1 1 0 1 1 0-2h1a1 1 0 1 1 0 2z"/></g><g><path d="M44 44h-1.002a1 1 0 1 1 0-2H44a1 1 0 1 1 0 2z"/></g><g><path d="M21.608 50a1 1 0 0 1-.501-1.866l.866-.5a1 1 0 0 1 1 1.732l-.866.5a.992.992 0 0 1-.499.134z"/></g><g><path d="M41.525 38.501a1 1 0 0 1-.501-1.866l.868-.501a1 1 0 0 1 1 1.732l-.868.501a.992.992 0 0 1-.499.134z"/></g><g><path d="M25.999 54.393a.998.998 0 0 1-.865-1.499l.5-.867a.998.998 0 0 1 1.365-.367.998.998 0 0 1 .367 1.365l-.5.867a.998.998 0 0 1-.867.501z"/></g><g><path d="M37.497 34.475a.998.998 0 0 1-.864-1.501l.502-.867a.994.994 0 0 1 1.366-.364.998.998 0 0 1 .364 1.366l-.502.867a.998.998 0 0 1-.866.499z"/></g></svg>