<?xml version="1.0" encoding="utf-8"?>
<!-- Generator: Adobe Illustrator 16.0.0, SVG Export Plug-In . SVG Version: 6.00 Build 0)  -->
<!DOCTYPE svg PUBLIC "-//W3C//DTD SVG 1.1//EN" "http://www.w3.org/Graphics/SVG/1.1/DTD/svg11.dtd">
<svg version="1.1" xmlns="http://www.w3.org/2000/svg" xmlns:xlink="http://www.w3.org/1999/xlink" x="0px" y="0px" width="64px"
	 height="64px" viewBox="0 0 64 64" enable-background="new 0 0 64 64" xml:space="preserve">
<g id="_x35_0_code_x2C__programming_x2C__program_x2C__bitcoin_x2C__block_x2C__chain_x2C__cryptocurrency">
</g>
<g id="_x34_9_balloon_x2C__takeoff_x2C__bitcoin_x2C__coin_x2C__block_x2C__chain_x2C__cryptocurrency">
</g>
<g id="_x34_8_video_card_x2C__mining_x2C__farm_x2C__computer_x2C__block_x2C__chain_x2C__cryptocurrency">
</g>
<g id="_x34_7_money_box_x2C__saving_x2C__bitcoin_x2C__coin_x2C__block_x2C__chain_x2C__cryptocurrency">
</g>
<g id="_x34_6_portfolio_x2C__finance_x2C__bank_note_x2C__bitcoin_x2C__coin_x2C__cryptocurrency">
</g>
<g id="_x34_5_tap_x2C__water_x2C__bitcoin_x2C__coin_x2C__block_x2C__chain_x2C__cryptocurrency">
</g>
<g id="_x34_4_phone_x2C__bitcoin_x2C__coin_x2C__block_x2C__chain_x2C__cryptocurrency">
</g>
<g id="_x34_3_rocket_x2C__sun_x2C__bitcoin_x2C__coin_x2C__block_x2C__chain_x2C__cryptocurrency">
</g>
<g id="_x34_2_transfer_x2C__network_x2C__bitcoin_x2C__coin_x2C__block_x2C__chain_x2C__cryptocurrency">
</g>
<g id="_x34_1_scales_x2C__comparison_x2C__bitcoin_x2C__coin_x2C__block_x2C__chain_x2C__cryptocurrency">
</g>
<g id="_x34_0_calculator_x2C__calculating_x2C__bitcoin_x2C__coin_x2C__block_x2C__chain_x2C__cryptocurrency">
</g>
<g id="_x33_9_start-up_x2C__plant_x2C__hand_x2C__bitcoin_x2C__coin_x2C__cryptocurrency">
</g>
<g id="_x33_8_idea_x2C__bulb_x2C__bitcoin_x2C__coin_x2C__block_x2C__chain_x2C__cryptocurrency">
</g>
<g id="_x33_7_users_x2C__user_x2C__co-founder_x2C__bitcoin_x2C__coin_x2C__cryptocurrency">
</g>
<g id="_x33_6_safe_x2C__protection_x2C__bitcoin_x2C__coin_x2C__block_x2C__chain_x2C__cryptocurrency">
</g>
<g id="_x33_5_flash_drive_x2C__key_x2C__block_x2C__chain_x2C__cryptocurrency">
</g>
<g id="_x33_4_cloud_x2C__mining_x2C__bitcoin_x2C__coin_x2C__block_x2C__chain_x2C__cryptocurrency">
</g>
<g id="_x33_3_start_up_x2C__plant_x2C__bitcoin_x2C__coin_x2C__block_x2C__chain_x2C__cryptocurrency">
</g>
<g id="_x33_2_planet_x2C__bitcoin_x2C__coin_x2C__block_x2C__chain_x2C__cryptocurrency">
</g>
<g id="_x33_1_payment_x2C__hand_x2C__bitcoin_x2C__coin_x2C__block_x2C__chain_x2C__cryptocurrency">
</g>
<g id="_x33_0_user_x2C__laptop_x2C__bitcoin_x2C__coin_x2C__block_x2C__chain_x2C__cryptocurrency">
</g>
<g id="_x32_9_thief_x2C__bag_x2C__bitcoin_x2C__coin_x2C__block_x2C__chain_x2C__cryptocurrency">
</g>
<g id="_x32_8_code_x2C__programming_x2C__program_x2C__bitcoin_x2C__coin_x2C__cryptocurrency">
</g>
<g id="_x32_7_bitcoin_x2C__coin_x2C__block_x2C__chain_x2C__cryptocurrency">
</g>
<g id="_x32_6_shield_x2C__protection_x2C__bitcoin_x2C__coin_x2C__block_x2C__chain_x2C__cryptocurrency">
</g>
<g id="_x32_5_bug_x2C__laptop_x2C__miner_x2C__program_x2C__block_x2C__chain_x2C__cryptocurrency">
</g>
<g id="_x32_4_computer_x2C__monitor_x2C__bitcoin_x2C__coin_x2C__block_x2C__chain_x2C__cryptocurrency">
</g>
<g id="_x32_3_network_x2C__idea_x2C__bitcoin_x2C__coin_x2C__block_x2C__chain_x2C__cryptocurrency">
</g>
<g id="_x32_2_block_x2C__chain_x2C__cryptocurrency_x2C__technology_x2C__future">
</g>
<g id="_x32_1_smart_contact_x2C__contact_x2C__block_x2C__chain_x2C__cryptocurrency">
</g>
<g id="_x32_0_lock_x2C__safe_x2C__protection_x2C__block_x2C__chain_x2C__cryptocurrency_x2C__program">
	<g>
		<g>
			<g>
				<path d="M29,49c-0.553,0-1-0.447-1-1V38c0-0.553,0.447-1,1-1s1,0.447,1,1v10C30,48.553,29.553,49,29,49z"/>
			</g>
			<g>
				<path d="M33.001,42.998c-0.553,0-1-0.447-1-1s0.447-1,1-1c0.551,0,0.999-0.448,0.999-0.999S33.552,39,33.001,39
					c-0.553,0-1-0.447-1-1s0.447-1,1-1C34.654,37,36,38.346,36,39.999S34.654,42.998,33.001,42.998z"/>
			</g>
			<g>
				<path d="M32.999,49c-0.553,0-1-0.447-1-1s0.447-1,1-1C34.103,47,35,46.103,35,45c0-1.104-0.897-2.002-2.001-2.002
					c-0.553,0-1-0.447-1-1s0.447-1,1-1C35.205,40.998,37,42.793,37,45C37,47.206,35.205,49,32.999,49z"/>
			</g>
			<g>
				<path d="M33.001,39H28c-0.553,0-1-0.447-1-1s0.447-1,1-1h5.001c0.553,0,1,0.447,1,1S33.554,39,33.001,39z"/>
			</g>
			<g>
				<path d="M32.999,49H28c-0.553,0-1-0.447-1-1s0.447-1,1-1h4.999c0.553,0,1,0.447,1,1S33.552,49,32.999,49z"/>
			</g>
			<g>
				<path d="M33.001,42.998H29c-0.553,0-1-0.447-1-1s0.447-1,1-1h4.001c0.553,0,1,0.447,1,1S33.554,42.998,33.001,42.998z"/>
			</g>
			<g>
				<path d="M31,39c-0.553,0-1-0.447-1-1v-1c0-0.553,0.447-1,1-1s1,0.447,1,1v1C32,38.553,31.553,39,31,39z"/>
			</g>
			<g>
				<path d="M31,50c-0.553,0-1-0.447-1-1v-1c0-0.553,0.447-1,1-1s1,0.447,1,1v1C32,49.553,31.553,50,31,50z"/>
			</g>
		</g>
		<g>
			<path d="M32,64c-11.579,0-21-9.421-21-21s9.421-21,21-21s21,9.421,21,21S43.579,64,32,64z M32,24c-10.477,0-19,8.523-19,19
				s8.523,19,19,19s19-8.523,19-19S42.477,24,32,24z"/>
		</g>
		<g>
			<path d="M32,59c-8.822,0-16-7.178-16-16s7.178-16,16-16s16,7.178,16,16S40.822,59,32,59z M32,29c-7.72,0-14,6.28-14,14
				s6.28,14,14,14s14-6.28,14-14S39.72,29,32,29z"/>
		</g>
		<g>
			<path d="M32,55c-6.617,0-12-5.383-12-12s5.383-12,12-12s12,5.383,12,12S38.617,55,32,55z M32,33c-5.514,0-10,4.486-10,10
				s4.486,10,10,10s10-4.486,10-10S37.514,33,32,33z"/>
		</g>
		<g>
			<path d="M44,14c-0.553,0-1-0.447-1-1c0-6.065-4.935-11-11-11S21,6.935,21,13c0,0.553-0.447,1-1,1s-1-0.447-1-1
				c0-7.168,5.832-13,13-13s13,5.832,13,13C45,13.553,44.553,14,44,14z"/>
		</g>
		<g>
			<path d="M40,14c-0.553,0-1-0.447-1-1c0-3.859-3.141-7-7-7s-7,3.141-7,7c0,0.553-0.447,1-1,1s-1-0.447-1-1c0-4.963,4.037-9,9-9
				s9,4.037,9,9C41,13.553,40.553,14,40,14z"/>
		</g>
		<g>
			<path d="M20,28.009c-0.553,0-1-0.447-1-1V13c0-0.553,0.447-1,1-1s1,0.447,1,1v14.009C21,27.562,20.553,28.009,20,28.009z"/>
		</g>
		<g>
			<path d="M44.011,28.009c-0.553,0-1-0.447-1-1V13c0-0.553,0.447-1,1-1s1,0.447,1,1v14.009
				C45.011,27.562,44.563,28.009,44.011,28.009z"/>
		</g>
		<g>
			<path d="M24,25.665c-0.553,0-1-0.447-1-1V13c0-0.553,0.447-1,1-1s1,0.447,1,1v11.665C25,25.218,24.553,25.665,24,25.665z"/>
		</g>
		<g>
			<path d="M40,25.665c-0.553,0-1-0.447-1-1V13c0-0.553,0.447-1,1-1s1,0.447,1,1v11.665C41,25.218,40.553,25.665,40,25.665z"/>
		</g>
		<g>
			<path d="M32,33c-0.553,0-1-0.447-1-1v-1c0-0.553,0.447-1,1-1s1,0.447,1,1v1C33,32.553,32.553,33,32,33z"/>
		</g>
		<g>
			<path d="M32,56c-0.553,0-1-0.447-1-1v-1c0-0.553,0.447-1,1-1s1,0.447,1,1v1C33,55.553,32.553,56,32,56z"/>
		</g>
		<g>
			<path d="M26.501,34.474c-0.346,0-0.682-0.18-0.867-0.5l-0.5-0.866c-0.276-0.479-0.112-1.09,0.366-1.366
				c0.477-0.276,1.09-0.112,1.366,0.366l0.5,0.866c0.276,0.479,0.112,1.09-0.366,1.366C26.843,34.431,26.671,34.474,26.501,34.474z"
				/>
		</g>
		<g>
			<path d="M38.001,54.393c-0.346,0-0.683-0.18-0.867-0.501l-0.5-0.867c-0.276-0.478-0.111-1.09,0.367-1.365
				c0.479-0.277,1.091-0.111,1.365,0.367l0.5,0.867c0.276,0.478,0.111,1.09-0.367,1.365C38.342,54.35,38.17,54.393,38.001,54.393z"
				/>
		</g>
		<g>
			<path d="M22.473,38.5c-0.17,0-0.342-0.043-0.499-0.134l-0.866-0.5c-0.479-0.276-0.643-0.888-0.366-1.366s0.888-0.643,1.366-0.366
				l0.866,0.5c0.479,0.276,0.643,0.888,0.366,1.366C23.154,38.32,22.818,38.5,22.473,38.5z"/>
		</g>
		<g>
			<path d="M42.392,50c-0.17,0-0.342-0.043-0.499-0.134l-0.867-0.501c-0.479-0.276-0.643-0.889-0.366-1.366
				c0.276-0.479,0.888-0.643,1.366-0.366l0.867,0.501c0.479,0.276,0.643,0.889,0.366,1.366C43.073,49.821,42.737,50,42.392,50z"/>
		</g>
		<g>
			<path d="M21,44h-1c-0.553,0-1-0.447-1-1s0.447-1,1-1h1c0.553,0,1,0.447,1,1S21.553,44,21,44z"/>
		</g>
		<g>
			<path d="M44,44h-1.002c-0.553,0-1-0.447-1-1s0.447-1,1-1H44c0.553,0,1,0.447,1,1S44.553,44,44,44z"/>
		</g>
		<g>
			<path d="M21.608,50c-0.346,0-0.682-0.18-0.867-0.5c-0.276-0.479-0.112-1.09,0.366-1.366l0.866-0.5
				c0.477-0.276,1.09-0.112,1.366,0.366s0.112,1.09-0.366,1.366l-0.866,0.5C21.95,49.957,21.778,50,21.608,50z"/>
		</g>
		<g>
			<path d="M41.525,38.501c-0.346,0-0.682-0.18-0.867-0.5c-0.276-0.479-0.112-1.09,0.366-1.366l0.868-0.501
				c0.477-0.276,1.089-0.112,1.366,0.366c0.276,0.479,0.112,1.09-0.366,1.366l-0.868,0.501
				C41.867,38.458,41.695,38.501,41.525,38.501z"/>
		</g>
		<g>
			<path d="M25.999,54.393c-0.17,0-0.341-0.043-0.498-0.134c-0.479-0.275-0.644-0.888-0.367-1.365l0.5-0.867
				c0.274-0.479,0.888-0.643,1.365-0.367c0.479,0.275,0.644,0.888,0.367,1.365l-0.5,0.867
				C26.682,54.213,26.345,54.393,25.999,54.393z"/>
		</g>
		<g>
			<path d="M37.497,34.475c-0.17,0-0.342-0.043-0.5-0.135c-0.478-0.276-0.642-0.889-0.364-1.366l0.502-0.867
				c0.276-0.479,0.885-0.645,1.366-0.364c0.478,0.276,0.642,0.889,0.364,1.366l-0.502,0.867
				C38.178,34.296,37.843,34.475,37.497,34.475z"/>
		</g>
	</g>
</g>
<g id="_x31_9_server_x2C__data_x2C__bitcoin_x2C__coin_x2C__block_x2C__chain_x2C__cryptocurrency">
</g>
<g id="_x31_8_key_x2C__bitcoin_x2C__coin_x2C__block_x2C__chain_x2C__cryptocurrency">
</g>
<g id="_x31_7_pool_x2C__network_x2C__bitcoin_x2C__coin_x2C__block_x2C__chain_x2C__cryptocurrency">
</g>
<g id="_x31_6_mining_x2C__shovel_x2C__mine_x2C__coin_x2C__block_x2C__chain_x2C__cryptocurrency">
</g>
<g id="_x31_5_purse_x2C__bitcoin_x2C__coin_x2C__block_x2C__chain_x2C__cryptocurrency">
</g>
<g id="_x31_4_safe_x2C__protection_x2C__block_x2C__chain_x2C__cryptocurrency_x2C__program">
</g>
<g id="_x31_3_mining_x2C__funnel_x2C__satoshi_x2C__bitcoin_x2C__coin_x2C__cryptocurrency">
</g>
<g id="_x31_2_chart_x2C__bitcoin_x2C__coin_x2C__block_x2C__chain_x2C__cryptocurrency">
</g>
<g id="_x31_1_computer_x2C__monitor_x2C__bitcoin_x2C__coin_x2C__block_x2C__chain_x2C__cryptocurrency">
</g>
<g id="_x31_0_mining_x2C__pickaxe_x2C__stone_x2C__mine_x2C___bitcoin_x2C__coin_x2C__cryptocurrency">
</g>
<g id="_x39__miner_x2C__mining_x2C__computer_x2C__pickaxe_x2C__program_x2C__cryptocurrency">
</g>
<g id="_x38__video_card_x2C__mining_x2C__bitcoin_x2C__coin_x2C__block_x2C__chain_x2C__cryptocurrency">
</g>
<g id="_x37__exchanger_x2C__site_x2C__bitcoin_x2C__coin_x2C__block_x2C__chain_x2C__cryptocurrency">
</g>
<g id="_x36__shop_x2C__product_x2C__bitcoin_x2C__coin_x2C__block_x2C__chain_x2C__cryptocurrency">
</g>
<g id="_x35__bitcoin_x2C__coin_x2C__exchange_x2C__block_x2C__chain_x2C__cryptocurrency_x2C__product">
</g>
<g id="_x34__bitcoin_x2C__coin_x2C__exchange_x2C__block_x2C__chain_x2C__cryptocurrency">
</g>
<g id="_x33__bitcoin_x2C__coin_x2C__exchange_x2C__block_x2C__chain_x2C__cryptocurrency">
</g>
<g id="_x32__brain_x2C__smart_x2C__coin_x2C__block_x2C__chain_x2C__cryptocurrency">
</g>
<g id="_x31__bitcoin_x2C__coin_x2C__block_x2C__chain_x2C__cryptocurrency">
</g>
</svg>
