<svg xmlns="http://www.w3.org/2000/svg" data-name="Layer 1" viewBox="0 0 128 128"><path fill="#021768" d="M33.748 46.683h-6.98a1.25 1.25 0 0 0 0 2.5h6.98a1.25 1.25 0 0 0 0-2.5zM101.309 46.683h-6.98a1.25 1.25 0 0 0 0 2.5h6.98a1.25 1.25 0 0 0 0-2.5z"/><path fill="#0053fb" d="M45.6 28.837h36.875A11.853 11.853 0 0 1 94.328 40.69v13.277h-60.58V40.69A11.853 11.853 0 0 1 45.6 28.837z"/><path fill="#ec3048" d="M36.122 53.967h55.832A16.334 16.334 0 0 1 108.288 70.3v11.4a4.929 4.929 0 0 1-4.929 4.929H24.718a4.93 4.93 0 0 1-4.93-4.93V70.3a16.334 16.334 0 0 1 16.334-16.333z"/><path fill="#021768" d="M36.25 99.163a7.77 7.77 0 0 1-7.77-7.77v-4.759h15.54v4.759a7.77 7.77 0 0 1-7.77 7.77zM91.826 99.163a7.77 7.77 0 0 1-7.77-7.77v-4.759H99.6v4.759a7.77 7.77 0 0 1-7.774 7.77z"/><circle cx="40.289" cy="74.097" r="6.541" fill="#ffaf03"/><circle cx="87.787" cy="74.097" r="6.541" fill="#ffaf03"/></svg>