<svg id="Layer_1" data-name="Layer 1" xmlns="http://www.w3.org/2000/svg" viewBox="0 0 128 128"><title>AIRPLANE</title><path d="M64.027,108.125h0a4.41,4.41,0,0,1-4.407-4.247L57.635,50.291l-.858-23.166a7.25,7.25,0,0,1,7.25-7.25h0a7.25,7.25,0,0,1,7.25,7.25l-2.843,76.753A4.41,4.41,0,0,1,64.027,108.125Z" style="fill:#0053fb"/><polygon points="18.944 78.958 57.635 50.291 58.522 74.225 18.944 84.625 18.944 78.958" style="fill:#021768"/><polygon points="109.132 78.958 70.441 50.291 69.554 74.225 109.132 84.625 109.132 78.958" style="fill:#021768"/><polygon points="81.628 103.828 68.837 94.35 68.544 102.263 81.628 105.701 81.628 103.828" style="fill:#021768"/><polygon points="46.361 103.828 59.152 94.35 59.445 102.263 46.361 105.701 46.361 103.828" style="fill:#021768"/><path d="M60.471,27a1.25,1.25,0,0,1-1-2,6.267,6.267,0,0,1,4.256-2.362A6.043,6.043,0,0,1,68.471,24.9a1.25,1.25,0,0,1-1.83,1.7,3.692,3.692,0,0,0-2.782-1.469A3.8,3.8,0,0,0,61.471,26.5,1.249,1.249,0,0,1,60.471,27Z" style="fill:#021768"/></svg>