<svg id="Layer_1" data-name="Layer 1" xmlns="http://www.w3.org/2000/svg" viewBox="0 0 128 128"><title>PASSPORT </title><rect x="29.08" y="23.357" width="69.917" height="81.285" rx="8.195" ry="8.195" style="fill:#021768"/><path d="M64.038,33.056A23.586,23.586,0,1,0,87.624,56.642,23.613,23.613,0,0,0,64.038,33.056Zm0,44.672c-2.72,0-5.652-4.116-7.213-10.743a52.42,52.42,0,0,0,14.426,0C69.69,73.612,66.758,77.728,64.038,77.728Zm0-12.745a47.548,47.548,0,0,1-7.723-.618,48.56,48.56,0,0,1,0-15.446,48.56,48.56,0,0,1,15.446,0,48.56,48.56,0,0,1,0,15.446A47.548,47.548,0,0,1,64.038,64.983ZM53.7,63.855c-6.627-1.56-10.743-4.493-10.743-7.213S47.069,50.99,53.7,49.429a52.42,52.42,0,0,0,0,14.426Zm10.343-28.3c2.72,0,5.652,4.116,7.213,10.743a52.42,52.42,0,0,0-14.426,0C58.386,39.673,61.319,35.556,64.038,35.556ZM74.381,49.429c6.627,1.56,10.743,4.493,10.743,7.213s-4.116,5.652-10.743,7.213a52.42,52.42,0,0,0,0-14.426Zm9.968,1.626a25.789,25.789,0,0,0-10.434-4.29,25.786,25.786,0,0,0-4.29-10.434A21.135,21.135,0,0,1,84.349,51.055Zm-25.9-14.724a25.788,25.788,0,0,0-4.29,10.434,25.788,25.788,0,0,0-10.434,4.29A21.135,21.135,0,0,1,58.451,36.331Zm-14.723,25.9a25.786,25.786,0,0,0,10.434,4.29,25.788,25.788,0,0,0,4.29,10.434A21.135,21.135,0,0,1,43.727,62.229Zm25.9,14.724a25.785,25.785,0,0,0,4.29-10.434,25.786,25.786,0,0,0,10.434-4.29A21.135,21.135,0,0,1,69.625,76.953Z" style="fill:#0053fb"/><path d="M86.374,87.713H41.7a1.25,1.25,0,0,0,0,2.5H86.374a1.25,1.25,0,0,0,0-2.5Z" style="fill:#ffaf03"/><path d="M75.8,93.495H52.279a1.25,1.25,0,0,0,0,2.5H75.8a1.25,1.25,0,0,0,0-2.5Z" style="fill:#ffaf03"/></svg>