<svg id="Layer_1" data-name="Layer 1" xmlns="http://www.w3.org/2000/svg" viewBox="0 0 128 128"><title>WORLD WIDE</title><circle cx="64" cy="64" r="35.447" style="fill:#0053fb"/><path d="M64.038,26.25A37.75,37.75,0,1,0,101.788,64,37.793,37.793,0,0,0,64.038,26.25Zm0,73c-5.485,0-10.37-7.951-12.8-19.291a82.952,82.952,0,0,0,12.8.965,82.953,82.953,0,0,0,12.8-.965C74.408,91.3,69.523,99.25,64.038,99.25Zm0-20.826a78.681,78.681,0,0,1-13.312-1.112,80.242,80.242,0,0,1,0-26.624,80.242,80.242,0,0,1,26.624,0A78.684,78.684,0,0,1,78.462,64,78.684,78.684,0,0,1,77.35,77.312,78.683,78.683,0,0,1,64.038,78.424ZM48.079,76.8C36.739,74.37,28.788,69.485,28.788,64s7.95-10.37,19.291-12.8a85.367,85.367,0,0,0,0,25.6ZM64.038,28.75c5.485,0,10.37,7.951,12.8,19.291a85.367,85.367,0,0,0-25.6,0C53.668,36.7,58.553,28.75,64.038,28.75ZM80,51.2C91.337,53.63,99.288,58.515,99.288,64S91.337,74.37,80,76.8A82.955,82.955,0,0,0,80.962,64,82.955,82.955,0,0,0,80,51.2ZM98.6,57.087c-3.737-3.838-10.529-6.888-19.082-8.57-1.682-8.552-4.732-15.344-8.57-19.082A35.35,35.35,0,0,1,98.6,57.087ZM57.125,29.435c-3.838,3.738-6.888,10.529-8.57,19.082C40,50.2,33.21,53.249,29.473,57.087A35.35,35.35,0,0,1,57.125,29.435ZM29.473,70.913C33.21,74.751,40,77.8,48.555,79.483c1.682,8.553,4.732,15.344,8.57,19.082A35.35,35.35,0,0,1,29.473,70.913ZM70.951,98.565c3.838-3.737,6.888-10.529,8.57-19.082,8.553-1.682,15.344-4.732,19.082-8.57A35.35,35.35,0,0,1,70.951,98.565Z" style="fill:#021768"/><path d="M64.084,110.25h-.046A46.366,46.366,0,0,1,52.119,108.7a1.25,1.25,0,0,1,.643-2.416,43.861,43.861,0,0,0,11.276,1.467A1.27,1.27,0,0,1,65.311,109,1.231,1.231,0,0,1,64.084,110.25Zm11.639-1.531a1.25,1.25,0,0,1-.323-2.457,43.561,43.561,0,0,0,10.54-4.38,1.251,1.251,0,0,1,1.254,2.164,46.1,46.1,0,0,1-11.145,4.63A1.246,1.246,0,0,1,75.723,108.719Zm-34.137-4.461a1.249,1.249,0,0,1-.624-.167,46.482,46.482,0,0,1-9.579-7.338,1.251,1.251,0,0,1,1.766-1.772,43.89,43.89,0,0,0,9.063,6.943,1.25,1.25,0,0,1-.626,2.333Zm54.285-7.2a1.25,1.25,0,0,1-.885-2.134,43.9,43.9,0,0,0,6.954-9.057,1.25,1.25,0,1,1,2.164,1.252,46.506,46.506,0,0,1-7.349,9.572A1.248,1.248,0,0,1,95.871,97.055ZM25.1,87.817a1.25,1.25,0,0,1-1.082-.622,46.044,46.044,0,0,1-4.642-11.141,1.25,1.25,0,0,1,2.414-.65,43.511,43.511,0,0,0,4.39,10.535,1.25,1.25,0,0,1-1.08,1.878Zm82.421-10.926a1.267,1.267,0,0,1-.323-.042,1.251,1.251,0,0,1-.886-1.53A43.846,43.846,0,0,0,107.788,64v-.183a1.25,1.25,0,1,1,2.5,0v.163a46.4,46.4,0,0,1-1.562,11.983A1.251,1.251,0,0,1,107.519,76.892ZM19.038,65.3a1.212,1.212,0,0,1-1.25-1.205V64a46.416,46.416,0,0,1,1.538-11.872,1.249,1.249,0,0,1,2.416.639A43.942,43.942,0,0,0,20.288,64,1.29,1.29,0,0,1,19.038,65.3Zm88.431-11.863a1.25,1.25,0,0,1-1.205-.923,43.466,43.466,0,0,0-4.411-10.526,1.25,1.25,0,1,1,2.16-1.26,45.98,45.98,0,0,1,4.663,11.132,1.25,1.25,0,0,1-.879,1.533A1.232,1.232,0,0,1,107.469,53.433ZM25.006,42.838a1.25,1.25,0,0,1-1.082-1.873,46.447,46.447,0,0,1,7.329-9.588,1.25,1.25,0,1,1,1.771,1.764,43.939,43.939,0,0,0-6.935,9.07A1.247,1.247,0,0,1,25.006,42.838Zm70.741-9.519a1.247,1.247,0,0,1-.881-.363,43.892,43.892,0,0,0-9.077-6.925,1.25,1.25,0,1,1,1.244-2.168,46.379,46.379,0,0,1,9.595,7.319,1.25,1.25,0,0,1-.881,2.137ZM41.433,26.332A1.25,1.25,0,0,1,40.8,24,46.026,46.026,0,0,1,51.938,19.35a1.25,1.25,0,0,1,.652,2.414,43.513,43.513,0,0,0-10.53,4.4A1.245,1.245,0,0,1,41.433,26.332Zm34.116-4.6a1.237,1.237,0,0,1-.319-.041A43.922,43.922,0,0,0,64.038,20.25H63.9a1.25,1.25,0,0,1,0-2.5h.136a46.425,46.425,0,0,1,11.828,1.526,1.25,1.25,0,0,1-.317,2.459Z" style="fill:#021768"/></svg>