<svg xmlns="http://www.w3.org/2000/svg" data-name="Layer 1" viewBox="0 0 128 128"><path fill="#0053fb" d="M42.001 35.359H86.59V105.92000000000002H42.001z"/><rect width="57.76" height="13.279" x="35.416" y="22.08" fill="#021768" rx="3.2" ry="3.2"/><rect width="8.766" height="8.766" x="50.018" y="41.434" fill="#ffaf03" rx="1.432" ry="1.432"/><rect width="8.766" height="8.766" x="50.018" y="56.796" fill="#ffaf03" rx="1.432" ry="1.432"/><rect width="8.766" height="8.766" x="50.018" y="72.158" fill="#ffaf03" rx="1.432" ry="1.432"/><rect width="8.766" height="8.766" x="69.807" y="41.434" fill="#ffaf03" rx="1.432" ry="1.432"/><rect width="8.766" height="8.766" x="69.807" y="56.796" fill="#ffaf03" rx="1.432" ry="1.432"/><rect width="8.766" height="8.766" x="69.807" y="72.158" fill="#ffaf03" rx="1.432" ry="1.432"/><path fill="#021768" d="M60.911 87.26h6.77a3.732 3.732 0 0 1 3.732 3.732v14.928H57.179V90.992a3.732 3.732 0 0 1 3.732-3.732z"/><path fill="#021768" d="M102.869 104.67h-4.944v-9.122a1.25 1.25 0 1 0-2.5 0v9.122H32.651v-9.122a1.25 1.25 0 0 0-2.5 0v9.122h-4.429a1.25 1.25 0 0 0 0 2.5h77.146a1.25 1.25 0 0 0 0-2.5z"/><circle cx="31.402" cy="88.518" r="7.03" fill="#02c686"/><circle cx="96.675" cy="88.518" r="7.03" fill="#02c686"/></svg>