<svg id="Layer_1" data-name="Layer 1" xmlns="http://www.w3.org/2000/svg" viewBox="0 0 128 128"><title>BUS</title><path d="M26.266,59.33H20.038a1.25,1.25,0,0,0,0,2.5h6.227a1.25,1.25,0,0,0,0-2.5Z" style="fill:#021768"/><path d="M108.038,59.33H101.81a1.25,1.25,0,1,0,0,2.5h6.228a1.25,1.25,0,0,0,0-2.5Z" style="fill:#021768"/><rect x="26.266" y="23.853" width="75.544" height="69.596" rx="6.585" ry="6.585" style="fill:#ffaf03"/><path d="M40.292,104.146h0a6.634,6.634,0,0,1-6.634-6.634V93.449H46.926v4.063A6.634,6.634,0,0,1,40.292,104.146Z" style="fill:#021768"/><path d="M81.107,93.449H94.375a0,0,0,0,1,0,0v4.063a6.634,6.634,0,0,1-6.634,6.634h0a6.634,6.634,0,0,1-6.634-6.634V93.449A0,0,0,0,1,81.107,93.449Z" style="fill:#021768"/><circle cx="42.848" cy="78.846" r="5.836" style="fill:#fff"/><circle cx="85.229" cy="78.846" r="5.836" style="fill:#fff"/><rect x="26.266" y="34.899" width="75.544" height="31.386" style="fill:#0053fb"/><path d="M70.4,28.4H57.681a1.25,1.25,0,0,0,0,2.5H70.4a1.25,1.25,0,0,0,0-2.5Z" style="fill:#021768"/></svg>