<svg id="Layer_1" data-name="Layer 1" xmlns="http://www.w3.org/2000/svg" viewBox="0 0 128 128"><title>BAG</title><path d="M75.761,32.917h-23.5a1.25,1.25,0,0,1-1.25-1.25V29.733A12.527,12.527,0,0,1,63.525,17.221H64.5A12.527,12.527,0,0,1,77.011,29.733v1.934A1.25,1.25,0,0,1,75.761,32.917Zm-22.248-2.5h21v-.684A10.024,10.024,0,0,0,64.5,19.721h-.973A10.024,10.024,0,0,0,53.512,29.733Z" style="fill:#021768"/><path d="M31.7,40.846H96.322a0,0,0,0,1,0,0V97.779a11.749,11.749,0,0,1-11.749,11.749H43.45A11.749,11.749,0,0,1,31.7,97.779V40.846A0,0,0,0,1,31.7,40.846Z" style="fill:#0053fb"/><path d="M30.833,28.084H97.189a4.767,4.767,0,0,1,4.767,4.767v8.362A13.574,13.574,0,0,1,88.383,54.787H39.64A13.574,13.574,0,0,1,26.066,41.213V32.851A4.767,4.767,0,0,1,30.833,28.084Z" style="fill:#ec3048"/><path d="M49.817,75.187H78.206A10.176,10.176,0,0,1,88.383,85.364v9.617a3.574,3.574,0,0,1-3.574,3.574H43.214a3.574,3.574,0,0,1-3.574-3.574V85.364A10.176,10.176,0,0,1,49.817,75.187Z" style="fill:#ffaf03"/><path d="M23.85,97.512H31.7V75.187h0A11.163,11.163,0,0,0,20.538,86.35V94.2A3.311,3.311,0,0,0,23.85,97.512Z" style="fill:#021768"/><path d="M104.227,97.512H96.376V75.187h0A11.162,11.162,0,0,1,107.538,86.35V94.2A3.311,3.311,0,0,1,104.227,97.512Z" style="fill:#021768"/><path d="M47.812,63.51h0a4.451,4.451,0,0,1-4.451-4.45V50.515a4.451,4.451,0,0,1,4.451-4.451h0a4.451,4.451,0,0,1,4.45,4.451V59.06A4.451,4.451,0,0,1,47.812,63.51Z" style="fill:#ffaf03"/><path d="M80.211,63.51h0a4.451,4.451,0,0,1-4.451-4.45V50.515a4.451,4.451,0,0,1,4.451-4.451h0a4.451,4.451,0,0,1,4.451,4.451V59.06A4.451,4.451,0,0,1,80.211,63.51Z" style="fill:#ffaf03"/></svg>