<svg xmlns="http://www.w3.org/2000/svg" data-name="Layer 1" viewBox="0 0 128 128"><path fill="#021768" d="M39.786 93.655 33.535 67.716 64.038 49.988 94.541 67.716 89.697 87.819"/><path fill="#0053fb" d="M88.154 64 64.038 49.988 39.923 64V47.576a6.192 6.192 0 0 1 6.192-6.192h35.847a6.192 6.192 0 0 1 6.192 6.192z"/><path fill="#ffaf03" d="M50.2 34.345h27.829a4.084 4.084 0 0 1 4.084 4.084v2.955h-36V38.43a4.084 4.084 0 0 1 4.087-4.085z"/><path fill="#0053fb" d="M64.114 92.436a1.249 1.249 0 0 1-1.25-1.248l-.076-41.2a1.25 1.25 0 0 1 1.248-1.252 1.25 1.25 0 0 1 1.25 1.248l.076 41.2a1.25 1.25 0 0 1-1.248 1.252z"/><path fill="#0053fb" d="M45.681 94.932a81.7 81.7 0 0 1-28.789-5.26 1.25 1.25 0 0 1 .958-2.309c.237.1 23.868 9.689 47.634 2.1a63.021 63.021 0 0 1 45.809 3.083 1.25 1.25 0 0 1-1.173 2.208 61.643 61.643 0 0 0-43.876-2.91 67.572 67.572 0 0 1-20.563 3.088z"/></svg>