<svg xmlns="http://www.w3.org/2000/svg" data-name="Layer 1" viewBox="0 0 128 128"><path fill="#021768" d="M26.266 59.33h-6.228a1.25 1.25 0 0 0 0 2.5h6.227a1.25 1.25 0 0 0 0-2.5zM108.038 59.33h-6.228a1.25 1.25 0 1 0 0 2.5h6.228a1.25 1.25 0 0 0 0-2.5z"/><rect width="75.544" height="69.596" x="26.266" y="23.853" fill="#ffaf03" rx="6.585" ry="6.585"/><path fill="#021768" d="M40.292 104.146a6.634 6.634 0 0 1-6.634-6.634v-4.063h13.268v4.063a6.634 6.634 0 0 1-6.634 6.634zM81.107 93.449h13.268v4.063a6.634 6.634 0 0 1-6.634 6.634 6.634 6.634 0 0 1-6.634-6.634v-4.063z"/><circle cx="42.848" cy="78.846" r="5.836" fill="#fff"/><circle cx="85.229" cy="78.846" r="5.836" fill="#fff"/><path fill="#0053fb" d="M26.266 34.899H101.81V66.285H26.266z"/><path fill="#021768" d="M70.4 28.4H57.681a1.25 1.25 0 0 0 0 2.5H70.4a1.25 1.25 0 0 0 0-2.5z"/></svg>