<svg id="Layer_1" data-name="Layer 1" xmlns="http://www.w3.org/2000/svg" viewBox="0 0 128 128"><title>SHIP</title><polyline points="39.786 93.655 33.535 67.716 64.038 49.988 94.541 67.716 89.697 87.819" style="fill:#021768"/><path d="M88.154,64,64.038,49.988,39.923,64V47.576a6.192,6.192,0,0,1,6.192-6.192H81.962a6.192,6.192,0,0,1,6.192,6.192Z" style="fill:#0053fb"/><path d="M50.2,34.345H78.029a4.084,4.084,0,0,1,4.084,4.084v2.955a0,0,0,0,1,0,0h-36a0,0,0,0,1,0,0V38.43A4.084,4.084,0,0,1,50.2,34.345Z" style="fill:#ffaf03"/><path d="M64.114,92.436a1.249,1.249,0,0,1-1.25-1.248l-.076-41.2a1.25,1.25,0,0,1,1.248-1.252h0a1.25,1.25,0,0,1,1.25,1.248l.076,41.2a1.25,1.25,0,0,1-1.248,1.252Z" style="fill:#0053fb"/><path d="M45.681,94.932a81.7,81.7,0,0,1-28.789-5.26,1.25,1.25,0,0,1,.958-2.309c.237.1,23.868,9.689,47.634,2.1a63.021,63.021,0,0,1,45.809,3.083,1.25,1.25,0,0,1-1.173,2.208,61.643,61.643,0,0,0-43.876-2.91A67.572,67.572,0,0,1,45.681,94.932Z" style="fill:#0053fb"/></svg>