<svg xmlns="http://www.w3.org/2000/svg" data-name="Layer 1" viewBox="0 0 128 128"><rect width="76.298" height="65.257" x="25.621" y="31.371" fill="#02c686" rx="10.477" ry="10.477"/><path fill="#016343" d="M89.193 53.613h9.435a7.077 7.077 0 0 1 7.072 7.077v6.62a7.077 7.077 0 0 1-7.077 7.077h-9.43a7.076 7.076 0 0 1-7.076-7.076V60.69a7.076 7.076 0 0 1 7.076-7.077z"/><path fill="#fff" d="M65.02 62.241V45.256a8.511 8.511 0 0 1 7.255 8.4 1.25 1.25 0 1 0 2.5 0A11.018 11.018 0 0 0 65.02 42.73v-2.124a1.25 1.25 0 1 0-2.5 0v2.124a11 11 0 0 0 0 21.859v16.984a8.511 8.511 0 0 1-7.256-8.4 1.25 1.25 0 1 0-2.5 0A11.017 11.017 0 0 0 62.52 84.1v3.294a1.25 1.25 0 1 0 2.5 0V84.1a11 11 0 0 0 0-21.858zm-9.756-8.582a8.511 8.511 0 0 1 7.256-8.4v16.804a8.511 8.511 0 0 1-7.255-8.404zm9.756 27.914V64.768a8.494 8.494 0 0 1 0 16.806z"/></svg>