<svg xmlns="http://www.w3.org/2000/svg" data-name="Layer 1" viewBox="0 0 128 128"><rect width="51.5" height="58.513" x="38.288" y="44.949" fill="#ff6b01" rx="5.495" ry="5.495"/><path fill="#021768" d="M75.294 17.426H52.782a1.25 1.25 0 0 0 0 2.5h.585v28.023a1.25 1.25 0 0 0 1.25 1.25h18.842a1.25 1.25 0 0 0 1.25-1.25V19.926h.585a1.25 1.25 0 0 0 0-2.5zM72.209 46.7H55.867V19.926h16.342zM45.755 106.393a2.931 2.931 0 0 0 5.862 0v-2.931h-5.862zM76.459 103.462v2.931a2.931 2.931 0 0 0 5.862 0v-2.931z"/><path fill="#ffaf03" d="M84.293 44.949h-1.972v58.513h1.971a5.5 5.5 0 0 0 5.5-5.5V50.445a5.5 5.5 0 0 0-5.499-5.496zM43.784 44.949a5.5 5.5 0 0 0-5.5 5.5v47.518a5.5 5.5 0 0 0 5.5 5.5h1.971V44.949z"/><path fill="#ffaf03" d="M51.617 44.949H76.46V103.46199999999999H51.617z"/></svg>