<svg xmlns="http://www.w3.org/2000/svg" data-name="Layer 1" viewBox="0 0 128 128"><rect width="69.917" height="81.285" x="29.08" y="23.357" fill="#021768" rx="8.195" ry="8.195"/><path fill="#0053fb" d="M64.038 33.056a23.586 23.586 0 1 0 23.586 23.586 23.613 23.613 0 0 0-23.586-23.586zm0 44.672c-2.72 0-5.652-4.116-7.213-10.743a52.42 52.42 0 0 0 14.426 0c-1.561 6.627-4.493 10.743-7.213 10.743zm0-12.745a47.548 47.548 0 0 1-7.723-.618 48.56 48.56 0 0 1 0-15.446 48.56 48.56 0 0 1 15.446 0 48.56 48.56 0 0 1 0 15.446 47.548 47.548 0 0 1-7.723.618zM53.7 63.855c-6.627-1.56-10.743-4.493-10.743-7.213s4.112-5.652 10.743-7.213a52.42 52.42 0 0 0 0 14.426zm10.343-28.3c2.72 0 5.652 4.116 7.213 10.743a52.42 52.42 0 0 0-14.426 0c1.556-6.625 4.489-10.742 7.208-10.742zm10.338 13.874c6.627 1.56 10.743 4.493 10.743 7.213s-4.116 5.652-10.743 7.213a52.42 52.42 0 0 0 0-14.426zm9.968 1.626a25.789 25.789 0 0 0-10.434-4.29 25.786 25.786 0 0 0-4.29-10.434 21.135 21.135 0 0 1 14.724 14.724zm-25.9-14.724a25.788 25.788 0 0 0-4.29 10.434 25.788 25.788 0 0 0-10.434 4.29 21.135 21.135 0 0 1 14.726-14.724zm-14.723 25.9a25.786 25.786 0 0 0 10.434 4.29 25.788 25.788 0 0 0 4.29 10.434 21.135 21.135 0 0 1-14.723-14.726zm25.9 14.724a25.785 25.785 0 0 0 4.29-10.434 25.786 25.786 0 0 0 10.434-4.29 21.135 21.135 0 0 1-14.725 14.722z"/><path fill="#ffaf03" d="M86.374 87.713H41.7a1.25 1.25 0 0 0 0 2.5h44.674a1.25 1.25 0 0 0 0-2.5zM75.8 93.495H52.279a1.25 1.25 0 0 0 0 2.5H75.8a1.25 1.25 0 0 0 0-2.5z"/></svg>