<svg xmlns="http://www.w3.org/2000/svg" data-name="Layer 1" viewBox="0 0 128 128"><circle cx="64" cy="64" r="35.447" fill="#0053fb"/><path fill="#021768" d="M64.038 26.25A37.75 37.75 0 1 0 101.788 64a37.793 37.793 0 0 0-37.75-37.75zm0 73c-5.485 0-10.37-7.951-12.8-19.291a82.952 82.952 0 0 0 12.8.965 82.953 82.953 0 0 0 12.8-.965c-2.43 11.341-7.315 19.291-12.8 19.291zm0-20.826a78.681 78.681 0 0 1-13.312-1.112 80.242 80.242 0 0 1 0-26.624 80.242 80.242 0 0 1 26.624 0A78.684 78.684 0 0 1 78.462 64a78.684 78.684 0 0 1-1.112 13.312 78.683 78.683 0 0 1-13.312 1.112zM48.079 76.8c-11.34-2.43-19.291-7.315-19.291-12.8s7.95-10.37 19.291-12.8a85.367 85.367 0 0 0 0 25.6zm15.959-48.05c5.485 0 10.37 7.951 12.8 19.291a85.367 85.367 0 0 0-25.6 0c2.43-11.341 7.315-19.291 12.8-19.291zM80 51.2c11.337 2.43 19.288 7.315 19.288 12.8S91.337 74.37 80 76.8a82.955 82.955 0 0 0 .962-12.8A82.955 82.955 0 0 0 80 51.2zm18.6 5.887c-3.737-3.838-10.529-6.888-19.082-8.57-1.682-8.552-4.732-15.344-8.57-19.082A35.35 35.35 0 0 1 98.6 57.087zM57.125 29.435c-3.838 3.738-6.888 10.529-8.57 19.082C40 50.2 33.21 53.249 29.473 57.087a35.35 35.35 0 0 1 27.652-27.652zM29.473 70.913C33.21 74.751 40 77.8 48.555 79.483c1.682 8.553 4.732 15.344 8.57 19.082a35.35 35.35 0 0 1-27.652-27.652zm41.478 27.652c3.838-3.737 6.888-10.529 8.57-19.082 8.553-1.682 15.344-4.732 19.082-8.57a35.35 35.35 0 0 1-27.652 27.652z"/><path fill="#021768" d="M64.084 110.25h-.046a46.366 46.366 0 0 1-11.919-1.55 1.25 1.25 0 0 1 .643-2.416 43.861 43.861 0 0 0 11.276 1.467A1.27 1.27 0 0 1 65.311 109a1.231 1.231 0 0 1-1.227 1.25zm11.639-1.531a1.25 1.25 0 0 1-.323-2.457 43.561 43.561 0 0 0 10.54-4.38 1.251 1.251 0 0 1 1.254 2.164 46.1 46.1 0 0 1-11.145 4.63 1.246 1.246 0 0 1-.326.043zm-34.137-4.461a1.249 1.249 0 0 1-.624-.167 46.482 46.482 0 0 1-9.579-7.338 1.251 1.251 0 0 1 1.766-1.772 43.89 43.89 0 0 0 9.063 6.943 1.25 1.25 0 0 1-.626 2.333zm54.285-7.2a1.25 1.25 0 0 1-.885-2.134 43.9 43.9 0 0 0 6.954-9.057 1.25 1.25 0 1 1 2.164 1.252 46.506 46.506 0 0 1-7.349 9.572 1.248 1.248 0 0 1-.884.364zM25.1 87.817a1.25 1.25 0 0 1-1.082-.622 46.044 46.044 0 0 1-4.642-11.141 1.25 1.25 0 0 1 2.414-.65 43.511 43.511 0 0 0 4.39 10.535 1.25 1.25 0 0 1-1.08 1.878zm82.421-10.926a1.267 1.267 0 0 1-.323-.042 1.251 1.251 0 0 1-.886-1.53A43.846 43.846 0 0 0 107.788 64v-.183a1.25 1.25 0 1 1 2.5 0v.163a46.4 46.4 0 0 1-1.562 11.983 1.251 1.251 0 0 1-1.207.929zM19.038 65.3a1.212 1.212 0 0 1-1.25-1.205V64a46.416 46.416 0 0 1 1.538-11.872 1.249 1.249 0 0 1 2.416.639A43.942 43.942 0 0 0 20.288 64a1.29 1.29 0 0 1-1.25 1.3zm88.431-11.863a1.25 1.25 0 0 1-1.205-.923 43.466 43.466 0 0 0-4.411-10.526 1.25 1.25 0 1 1 2.16-1.26 45.98 45.98 0 0 1 4.663 11.132 1.25 1.25 0 0 1-.879 1.533 1.232 1.232 0 0 1-.328.04zM25.006 42.838a1.25 1.25 0 0 1-1.082-1.873 46.447 46.447 0 0 1 7.329-9.588 1.25 1.25 0 1 1 1.771 1.764 43.939 43.939 0 0 0-6.935 9.07 1.247 1.247 0 0 1-1.083.627zm70.741-9.519a1.247 1.247 0 0 1-.881-.363 43.892 43.892 0 0 0-9.077-6.925 1.25 1.25 0 1 1 1.244-2.168 46.379 46.379 0 0 1 9.595 7.319 1.25 1.25 0 0 1-.881 2.137zm-54.314-6.987A1.25 1.25 0 0 1 40.8 24a46.026 46.026 0 0 1 11.138-4.65 1.25 1.25 0 0 1 .652 2.414 43.513 43.513 0 0 0-10.53 4.4 1.245 1.245 0 0 1-.627.168zm34.116-4.6a1.237 1.237 0 0 1-.319-.041 43.922 43.922 0 0 0-11.192-1.441H63.9a1.25 1.25 0 0 1 0-2.5h.136a46.425 46.425 0 0 1 11.828 1.526 1.25 1.25 0 0 1-.317 2.459z"/></svg>