<svg xmlns="http://www.w3.org/2000/svg" data-name="Layer 1" viewBox="0 0 128 128"><path fill="#021768" d="M75.761 32.917h-23.5a1.25 1.25 0 01-1.25-1.25v-1.934a12.527 12.527 0 0112.514-12.512h.975a12.527 12.527 0 0112.511 12.512v1.934a1.25 1.25 0 01-1.25 1.25zm-22.248-2.5h21v-.684A10.024 10.024 0 0064.5 19.721h-.973a10.024 10.024 0 00-10.015 10.012z"/><path fill="#0053fb" d="M31.7 40.846h64.622v56.933a11.749 11.749 0 01-11.749 11.749H43.45A11.749 11.749 0 0131.7 97.779V40.846z"/><path fill="#ec3048" d="M30.833 28.084h66.356a4.767 4.767 0 014.767 4.767v8.362a13.574 13.574 0 01-13.573 13.574H39.64a13.574 13.574 0 01-13.574-13.574v-8.362a4.767 4.767 0 014.767-4.767z"/><path fill="#ffaf03" d="M49.817 75.187h28.389a10.176 10.176 0 0110.177 10.177v9.617a3.574 3.574 0 01-3.574 3.574H43.214a3.574 3.574 0 01-3.574-3.574v-9.617a10.176 10.176 0 0110.177-10.177z"/><path fill="#021768" d="M23.85 97.512h7.85V75.187A11.163 11.163 0 0020.538 86.35v7.85a3.311 3.311 0 003.312 3.312zM104.227 97.512h-7.851V75.187a11.162 11.162 0 0111.162 11.163v7.85a3.311 3.311 0 01-3.311 3.312z"/><path fill="#ffaf03" d="M47.812 63.51a4.451 4.451 0 01-4.451-4.45v-8.545a4.451 4.451 0 014.451-4.451 4.451 4.451 0 014.45 4.451v8.545a4.451 4.451 0 01-4.45 4.45zM80.211 63.51a4.451 4.451 0 01-4.451-4.45v-8.545a4.451 4.451 0 014.451-4.451 4.451 4.451 0 014.451 4.451v8.545a4.451 4.451 0 01-4.451 4.45z"/></svg>