<svg id="Layer_1" data-name="Layer 1" xmlns="http://www.w3.org/2000/svg" viewBox="0 0 128 128"><title>SUITCASE</title><rect x="38.288" y="44.949" width="51.5" height="58.513" rx="5.495" ry="5.495" style="fill:#ff6b01"/><path d="M75.294,17.426H52.782a1.25,1.25,0,0,0,0,2.5h.585V47.949a1.25,1.25,0,0,0,1.25,1.25H73.459a1.25,1.25,0,0,0,1.25-1.25V19.926h.585a1.25,1.25,0,0,0,0-2.5ZM72.209,46.7H55.867V19.926H72.209Z" style="fill:#021768"/><path d="M45.755,106.393a2.931,2.931,0,0,0,5.862,0v-2.931H45.755Z" style="fill:#021768"/><path d="M76.459,103.462v2.931a2.931,2.931,0,0,0,5.862,0v-2.931Z" style="fill:#021768"/><path d="M84.293,44.949H82.321v58.513h1.971a5.5,5.5,0,0,0,5.5-5.5V50.445A5.5,5.5,0,0,0,84.293,44.949Z" style="fill:#ffaf03"/><path d="M43.784,44.949a5.5,5.5,0,0,0-5.5,5.5V97.967a5.5,5.5,0,0,0,5.5,5.5h1.971V44.949Z" style="fill:#ffaf03"/><rect x="51.617" y="44.949" width="24.843" height="58.513" style="fill:#ffaf03"/></svg>