<svg id="Layer_1" data-name="Layer 1" xmlns="http://www.w3.org/2000/svg" viewBox="0 0 128 128"><title>HOTEL</title><rect x="42.001" y="35.359" width="44.589" height="70.561" style="fill:#0053fb"/><rect x="35.416" y="22.08" width="57.76" height="13.279" rx="3.2" ry="3.2" style="fill:#021768"/><rect x="50.018" y="41.434" width="8.766" height="8.766" rx="1.432" ry="1.432" style="fill:#ffaf03"/><rect x="50.018" y="56.796" width="8.766" height="8.766" rx="1.432" ry="1.432" style="fill:#ffaf03"/><rect x="50.018" y="72.158" width="8.766" height="8.766" rx="1.432" ry="1.432" style="fill:#ffaf03"/><rect x="69.807" y="41.434" width="8.766" height="8.766" rx="1.432" ry="1.432" style="fill:#ffaf03"/><rect x="69.807" y="56.796" width="8.766" height="8.766" rx="1.432" ry="1.432" style="fill:#ffaf03"/><rect x="69.807" y="72.158" width="8.766" height="8.766" rx="1.432" ry="1.432" style="fill:#ffaf03"/><path d="M60.911,87.26h6.77a3.732,3.732,0,0,1,3.732,3.732V105.92a0,0,0,0,1,0,0H57.179a0,0,0,0,1,0,0V90.992A3.732,3.732,0,0,1,60.911,87.26Z" style="fill:#021768"/><path d="M102.869,104.67H97.925V95.548a1.25,1.25,0,1,0-2.5,0v9.122H32.651V95.548a1.25,1.25,0,0,0-2.5,0v9.122H25.722a1.25,1.25,0,0,0,0,2.5h77.146a1.25,1.25,0,0,0,0-2.5Z" style="fill:#021768"/><circle cx="31.402" cy="88.518" r="7.03" style="fill:#02c686"/><circle cx="96.675" cy="88.518" r="7.03" style="fill:#02c686"/></svg>