<svg id="Layer_1" data-name="Layer 1" xmlns="http://www.w3.org/2000/svg" viewBox="0 0 128 128"><title>Artboard 7</title><path d="M18.879,80.239a62.71,62.71,0,0,0,6.857.028L39.189,50.185c-4.728-.927-8.774-1.823-10.86-2.3A127.535,127.535,0,0,0,18.879,80.239Z"/><path d="M28.5,80.129q.794-.047,1.625-.105l13-29.092q-.724-.132-1.438-.267Z"/><path d="M21.274,99.29a4.825,4.825,0,0,0,.434.37c6.53-.75,40.228-5.414,86.271-25.9,1.927-10.377,2.893-23.518-.468-32.71-1.233-3.371-6.258-7.1-12.357-10.4-8.282-4.477-18.378-8-24.024-8.867-13.025-2-27.7,2.512-35.6,13.179a64.591,64.591,0,0,0-6.047,10.431c6.713,1.515,28.011,6.106,35.076,5.053,9.436-1.405,15.972-.307,19.646,2.112,3.711,2.444,4.718,6.3,2.88,10.281-5.308,11.5-28.343,16.17-41.112,18.116-11.637,1.774-22.534,2.3-27.4,1.931C17.8,90.464,18.457,96.6,21.274,99.29Z"/><path d="M78.206,59.392a1.77,1.77,0,0,0-3.287,1.315A1.775,1.775,0,0,0,78.206,59.392Z"/><path d="M106.271,81.554q.576-2.284,1.066-4.578c-43.093,18.935-75.259,24.07-84.1,25.2.482,1.4,1.257,4.465,2.083,4.491,8.433.272,23.245-3.419,37.971-8.129C84.789,91.661,105.888,83.074,106.271,81.554Z"/><path d="M84.64,61.713c1.279-2.77.67-5.215-1.912-6.915-3.166-2.085-9.051-2.993-17.785-1.692-3.516.524-10.163-.226-16.934-1.328L35.535,79.561c3.167-.318,6.56-.737,10.033-1.266C57.136,76.531,79.875,72.033,84.64,61.713Zm-6.324-5.756A4.453,4.453,0,1,1,72.428,61.7,4.457,4.457,0,0,1,78.316,55.957Z"/></svg>