<svg id="Layer_1" data-name="Layer 1" xmlns="http://www.w3.org/2000/svg" viewBox="0 0 128 128"><title>Artboard 12</title><path d="M67.042,55.168a12.72,12.72,0,1,0-21.715-8.995A12.722,12.722,0,0,0,67.042,55.168ZM58.047,35.611A10.562,10.562,0,1,1,47.485,46.173,10.573,10.573,0,0,1,58.047,35.611Z"/><rect x="89.52" y="90.953" width="23.581" height="8.828" transform="translate(-37.458 105.455) rotate(-47.427)"/><path d="M103.887,82.067a3.708,3.708,0,0,0-4.131,1L88.871,94.916a3.725,3.725,0,0,0-.595,4.144Z"/><rect x="84.928" y="82.223" width="9.756" height="5.149" transform="translate(-33.397 93.558) rotate(-47.424)"/><path d="M74.933,87.145,77.3,89.171a.343.343,0,0,0,.237-.113L93.015,72.206l-.023-.492-2.106-1.935L80.638,80.936Z"/><path d="M48.182,82.351c4.1,6.995,12.4,10.622,19.518,6.452l3.384-2.764L88.323,67.275c-13.643-14.9-11.563-35.907-24.6-43.033C56.675,20.385,47.1,20.032,38.3,22.658c-15.417,4.6-26.419,17.385-21.759,34.818C35.013,61.424,38.966,66.62,48.182,82.351Zm9.865-51.59A15.412,15.412,0,1,1,42.635,46.173,15.413,15.413,0,0,1,58.047,30.761Z"/><path d="M63.612,51.738a7.87,7.87,0,1,0-13.435-5.565A7.871,7.871,0,0,0,63.612,51.738Z"/></svg>