<svg xmlns="http://www.w3.org/2000/svg" data-name="Layer 1" viewBox="0 0 128 128"><path d="M26.32 95.009a39.26 39.26 0 0 1 .719-7.348 1.482 1.482 0 0 0-2.912-.557 42.2 42.2 0 0 0-.766 7.905 40.428 40.428 0 0 0 .766 7.911 1.483 1.483 0 1 0 2.912-.569 37.541 37.541 0 0 1-.719-7.342z"/><path d="M49.968 77.849c-3.346 2.641-9.339 3.971-18.62 2.87-4.988-.592-6.812-5.791-8.082-9.41-.763-2.177-1.378-3.928-2.617-4.783-1.728-1.193-3.464-.716-5.6 2.375-3.212 4.65-5.326 16.484-5.218 26.264a41.312 41.312 0 0 0 1.14 9.98c.016.059.035.117.055.173.868 3.077 2.293 5.287 4.384 6.076a4.975 4.975 0 0 0 3.181.1c7.344-2.076 18.075-.9 29.679.371 20.566 2.253 43.776 4.8 58.252-9.359 5.813-5.684 9.575-14.307 11-23.958a63.759 63.759 0 0 0-2.868-29.879 51.5 51.5 0 0 0-13.017-20.42 49.329 49.329 0 0 0-50.288-10.897l-.327.116a18.431 18.431 0 0 0-9.411-3.088 11.957 11.957 0 0 0-6.549 1.864c-6.371 4-15.6 13.41-20.273 21.145a21.932 21.932 0 0 0-2.946 6.88c-.449 2.4.019 4.363 1.71 5.635a7.409 7.409 0 0 0 4.513 1.233 95.3 95.3 0 0 1 15.459 1.5c9.025 1.635 15.27 4.153 18.793 13.6a12.329 12.329 0 0 1 .75 6.581 8.285 8.285 0 0 1-3.1 5.031zM34.047 49.722a98.463 98.463 0 0 0-15.969-1.544 4.661 4.661 0 0 1-2.75-.642c-.662-.5-.81-1.459-.573-2.723a19.174 19.174 0 0 1 2.575-5.894c4.467-7.394 13.257-16.372 19.31-20.17a9.05 9.05 0 0 1 4.96-1.411c3.722.026 7.786 2.129 11.747 5.505a60.205 60.205 0 0 1 11.382 13.648c5.529 8.813 9.378 18.918 9.524 26.519a9.656 9.656 0 0 1-17.237 5.674 18.91 18.91 0 0 0-1-3.824c-2.631-10.299-12.772-13.475-21.969-15.138zM56.95 73.56q.07-.363.119-.731a12.616 12.616 0 0 0 20.072-8.747 1.471 1.471 0 0 0 .074-.459V62.711a1.476 1.476 0 0 0-.019-.234c-.3-8.08-4.287-18.518-9.962-27.564a63.166 63.166 0 0 0-11.963-14.321c-.1-.086-.2-.17-.3-.254A45.436 45.436 0 0 1 98.917 31.1a47.555 47.555 0 0 1 12.012 18.858 59.764 59.764 0 0 1 2.683 28.008c-1.3 8.829-4.671 16.645-9.841 21.7-13.147 12.855-35.38 10.42-55.081 8.261-12-1.314-23.09-2.529-31.164-.247a1.159 1.159 0 0 1-.722.013c-.79-.3-1.45-1.563-1.976-3.434-.01-.052-.022-.1-.035-.155a37.239 37.239 0 0 1-1.016-8.974c-.1-9.119 1.731-19.949 4.522-23.991.494-.715-.258-1.622.108-1.37a14.476 14.476 0 0 1 1.131 2.834c1.606 4.579 3.914 11.158 11.345 12.039 10.427 1.237 17.4-.45 21.529-3.7a12.148 12.148 0 0 0 4.538-7.382z"/><path d="M20.168 92.627a69.063 69.063 0 0 1 .731-9.861 1.482 1.482 0 1 0-2.935-.418 71.966 71.966 0 0 0-.754 10.278 68.9 68.9 0 0 0 .754 10.284 1.483 1.483 0 1 0 2.935-.429 66.031 66.031 0 0 1-.731-9.854zM63.357 68.077a1.469 1.469 0 0 0 .244.1 4.918 4.918 0 0 0 6.317-2.6l.016-.036a4.9 4.9 0 0 0 .045-3.757 4.906 4.906 0 0 0-2.591-2.678l-.036-.016a4.918 4.918 0 0 0-6.394 2.457 1.441 1.441 0 0 0-.1.243 4.919 4.919 0 0 0 2.506 6.277zm.269-5.234a1.944 1.944 0 0 1 2.562-1.013 1.935 1.935 0 0 1 1.039 1.063 1.949 1.949 0 0 1-.022 1.495 1.937 1.937 0 0 1-1.063 1.039 1.957 1.957 0 0 1-1.5-.022h-.005a1.945 1.945 0 0 1-1.013-2.562z"/></svg>