<svg xmlns="http://www.w3.org/2000/svg" data-name="Layer 1" viewBox="0 0 128 128"><path d="M23.775 59.316h80.449a40.265 40.265 0 00-80.449 0zm41.5-30.886l2.479 7.67 8.066-.015a1.345 1.345 0 01.788 2.429l-6.532 4.727 2.507 7.665a1.344 1.344 0 01-2.149 1.438L64 47.652l-6.516 4.754a1.344 1.344 0 01-2.066-1.5l2.506-7.665-6.532-4.727a1.345 1.345 0 01.886-2.429l7.968.015 2.477-7.672a1.344 1.344 0 012.554.002zM108.666 62.905H19.334a2.328 2.328 0 000 4.655h89.332a2.328 2.328 0 000-4.655zM64 103.565A34.209 34.209 0 0129.838 71.15h-3.594a37.8 37.8 0 0075.512 0h-3.594A34.209 34.209 0 0164 103.565z"/></svg>