<svg id="Layer_1" data-name="Layer 1" xmlns="http://www.w3.org/2000/svg" viewBox="0 0 128 128"><title>Artboard 4</title><path d="M45.807,57.842A4.906,4.906,0,0,0,48.4,60.519l.036.016a4.911,4.911,0,1,0-2.568-6.485l-.016.036a4.894,4.894,0,0,0-.045,3.757Zm2.769-2.6h0a1.953,1.953,0,0,1,3.6.045,1.958,1.958,0,0,1-.022,1.5,1.934,1.934,0,0,1-1.063,1.039,1.957,1.957,0,0,1-1.5-.022h0a1.936,1.936,0,0,1-1.039-1.063l0,0h0A1.949,1.949,0,0,1,48.576,55.246Z" style="fill:#231f20"/><path d="M91.274,81.508a4.909,4.909,0,0,0,2.591,2.678l.036.016a4.911,4.911,0,1,0-2.568-6.485l-.016.036a4.9,4.9,0,0,0-.045,3.757Zm2.769-2.6h0a1.934,1.934,0,0,1,1.063-1.039,1.958,1.958,0,0,1,1.5.021,1.936,1.936,0,0,1,1.039,1.063,1.957,1.957,0,0,1-.021,1.5A1.937,1.937,0,0,1,96.562,81.5a1.957,1.957,0,0,1-1.5-.022h0a1.934,1.934,0,0,1-1.038-1.063l0,0h0A1.95,1.95,0,0,1,94.043,78.912Z" style="fill:#231f20"/><path d="M13.24,58.736a7.826,7.826,0,0,0,1.209.514,17.143,17.143,0,0,0,11.339.257c2.417-.645,4.486-1.2,8.677,1.608a48.022,48.022,0,0,0,12.11,6.179h0l0,.007q.551.167,1.094.3L65.845,110.3l3.075,7.224a1.482,1.482,0,0,0,2.421.458L97.783,92.5c3.916.233,7.866.121,11.125.028,1.293-.037,2.477-.071,3.436-.077a1.972,1.972,0,0,0,1.953-1.763h0l3.873-36.254a35.486,35.486,0,0,0-5.165-22.441A43.82,43.82,0,0,0,94.592,15.6a62.861,62.861,0,0,0-46.378-2.935A60.807,60.807,0,0,0,12.783,41.893a33.484,33.484,0,0,0-2.219,5.09,14.562,14.562,0,0,0-.82,6.7A6.565,6.565,0,0,0,13.24,58.736ZM70.8,114.383l-2.233-5.245-17.453-41a11.761,11.761,0,0,0,3.707-.371l16.752,38.156a1.482,1.482,0,0,0,2.4.524L89.75,91.39a38.432,38.432,0,0,0,4.137.75Zm15.706-24L73.459,102.847,57.526,66.556q.231-.152.457-.318a15.329,15.329,0,0,1,9.839-2.992,11.461,11.461,0,0,1,4.442,1.149,9.75,9.75,0,0,1,3.51,2.943c1.774,2.395,2.788,5.941,2.5,10.837C77.876,84.759,81.4,88.4,86.51,90.388ZM14.322,48.22a29.5,29.5,0,0,1,1.956-4.486,56.859,56.859,0,0,1,33.142-27.31,58.9,58.9,0,0,1,43.454,2.734,39.854,39.854,0,0,1,16.761,14.89,31.582,31.582,0,0,1,4.608,19.966l-3.687,34.521c-.563.014-1.148.03-1.758.047-3.158.09-6.989.2-10.8-.029-8.179-.489-16.238-2.562-15.784-10.147.353-5.905-.971-10.318-3.269-13.42a13.671,13.671,0,0,0-4.917-4.134A15.419,15.419,0,0,0,68.053,59.3a19.345,19.345,0,0,0-12.422,3.765c-1.971,1.46-4.77,1.4-7.912.446l0,.007a44.278,44.278,0,0,1-11.056-5.684c-5.687-3.806-8.55-3.042-11.895-2.149a13.746,13.746,0,0,1-9.081-.195,3.969,3.969,0,0,1-.606-.252,2.8,2.8,0,0,1-1.439-2.171A10.825,10.825,0,0,1,14.322,48.22Z" style="fill:#231f20"/></svg>