<svg id="Layer_1" data-name="Layer 1" xmlns="http://www.w3.org/2000/svg" viewBox="0 0 128 128"><title>Artboard 14</title><path d="M69.863,71.124a1.19,1.19,0,0,0,.575-.864,4.225,4.225,0,0,0-.5-2.213,20.812,20.812,0,0,0-4.174-5.526,25.623,25.623,0,0,0-5.211-4.157L52.115,77.45c6.962-2.923,13.066-5.294,16.354-5.855A3.811,3.811,0,0,0,69.863,71.124Z"/><path d="M36.911,56.983c-1.93,3.334-6.233,12.977-2.534,28.062,2.009-.85,4.047-1.726,6.092-2.607l11.6-26.378a31.392,31.392,0,0,0-6.074.826C42.7,57.563,39.771,58.167,36.911,56.983Z"/><path d="M43.8,81l1.914-.824,10.4-23.655c-.482-.121-.958-.213-1.426-.284Z"/><path d="M76.184,53.041a2.054,2.054,0,0,0-1.575.024A2.044,2.044,0,1,0,77.321,55.7a2.055,2.055,0,0,0-.024-1.576A2.03,2.03,0,0,0,76.184,53.041Z"/><path d="M107.66,47.987c-3.787-8.415-10.229-15.731-19.314-19.629-9.71-4.167-19.968-3.869-28.918-1.228-11.206,3.307-20.3,10.216-23.677,16.609a1.79,1.79,0,0,1-.848.8L16.289,52.944l4.048.63,13.729-2.367a1.793,1.793,0,0,1,1.715.664,6.941,6.941,0,0,0,.755.721,8.471,8.471,0,0,0,1.051.744c2.033,1.21,4.675.666,7.688.045,6.194-1.276,13.7-2.82,23.036,6.631a24.193,24.193,0,0,1,4.876,6.55,7.626,7.626,0,0,1,.8,4.189,4.636,4.636,0,0,1-2.2,3.388,7.284,7.284,0,0,1-2.712.989c-4.31.736-14.721,5.228-25.119,9.714-3.319,1.432-6.638,2.864-9.671,4.137a1.8,1.8,0,0,1-2.027-.453L27.4,83.87c-1.213,3.732-2.964,10.771-.719,15.191,3.131,6.165,12.573,3.365,19.577,1.288,1.746-.518,3.355-.995,4.8-1.315a183.385,183.385,0,0,1,33.631-4.114c6.05-.279,10.374-.479,13.1-1.707a22.219,22.219,0,0,0,11.146-11.936,37.607,37.607,0,0,0,2.747-16.061A46.353,46.353,0,0,0,107.66,47.987Zm-76.033,49a1.344,1.344,0,1,1-2.66.389A15.941,15.941,0,0,1,28.8,95a16.567,16.567,0,0,1,.172-2.372,1.343,1.343,0,1,1,2.66.378A14.034,14.034,0,0,0,31.478,95,13.437,13.437,0,0,0,31.628,96.989Zm5.037-.542a1.344,1.344,0,1,1-2.639.516,9.9,9.9,0,0,1,0-3.818,1.343,1.343,0,0,1,2.639.5A7.256,7.256,0,0,0,36.665,96.446ZM79.813,56.69a4.722,4.722,0,0,1-2.521,2.593l-.009,0a4.735,4.735,0,0,1-6.206-2.482l0,0a4.733,4.733,0,0,1,2.376-6.159l.216-.093a4.734,4.734,0,0,1,6.054,2.419l.092.215A4.706,4.706,0,0,1,79.813,56.69Z"/></svg>