<svg id="Layer_1" data-name="Layer 1" xmlns="http://www.w3.org/2000/svg" viewBox="0 0 128 128"><title>Artboard 10</title><path d="M48.328,100.261l-.341-.006-.34-.011-.339-.015-.338-.02-.337-.024-.335-.028-.335-.032-.333-.037-.332-.04L44.968,100l-.329-.048L44.31,99.9l-.327-.057-.326-.061-.324-.065-.323-.069-.322-.073-.32-.076-.319-.08-.317-.084-.316-.088-.314-.092-.313-.1-.31-.1-.309-.1-.308-.106-.305-.11-.3-.114-.3-.117-.3-.122-.3-.124-.3-.128-.3-.132-.293-.135-.291-.139-.577-.287-.285-.149-.284-.152-.281-.155-.279-.159-.825-.5-.27-.171-.269-.175-.266-.178-.264-.181-.261-.184-.517-.377-.507-.389q-.5-.395-.984-.814-.723-.627-1.4-1.3A26.976,26.976,0,0,1,27.8,90.087l-.009-.012-.021-.026-.36-.47-.008-.011-.006-.008-.174-.235-.01-.014L27.2,89.3l-.16-.222-.02-.028L26.984,89l-.116-.165-.029-.041-.028-.041-.138-.2-.015-.022L26.64,88.5l0-.007-.145-.217-.01-.015-.009-.013-.124-.191-.077-.118-.127-.2-.009-.015-.044-.071-.107-.173-.018-.029-.035-.057a22.955,22.955,0,0,0,22.74,20.44H62.62v-7.568H48.671Z"/><path d="M79.329,100.263H65.38v7.568H79.329a22.954,22.954,0,0,0,22.74-20.44l-.012.02a26.855,26.855,0,0,1-3.965,5.051A26.486,26.486,0,0,1,79.329,100.263Z"/><path d="M102.2,56.771a36.713,36.713,0,0,0-36.6-36.6h-.209L65.455,36.4H75.739a20.668,20.668,0,0,1,20.61,20.611v9.873A20.667,20.667,0,0,1,75.739,87.5H52.423a20.666,20.666,0,0,1-20.61-20.61V57.014A20.667,20.667,0,0,1,52.423,36.4H62.695l-.067-16.234H62.4a36.713,36.713,0,0,0-36.6,36.6V73.7a22.942,22.942,0,0,0,22.87,22.87H79.329A22.941,22.941,0,0,0,102.2,73.7Z"/><path d="M58.437,84.725h1.584L80.177,39.738q-.719-.186-1.461-.313Z"/><path d="M52.423,39.175A17.895,17.895,0,0,0,34.584,57.014v9.873A17.894,17.894,0,0,0,52.423,84.725h3.227L76.033,39.177l-.294,0Z"/><path d="M84.112,41.277c.215.115.422.245.632.369l0-.011Z"/><path d="M109.791,58.157h-3.9V73.7l-.02,1.036h3.916a4.112,4.112,0,0,0,4.107-4.107V62.264a4.123,4.123,0,0,0-4.107-4.107Z"/><path d="M22.105,74.734V58.157h-3.9A4.123,4.123,0,0,0,14.1,62.264v8.363a4.114,4.114,0,0,0,4.107,4.107Z"/><path d="M75.739,84.725A17.894,17.894,0,0,0,93.578,66.887V57.014a17.783,17.783,0,0,0-5.241-12.6,18.019,18.019,0,0,0-3.593-2.77L65.373,84.725Z"/></svg>