<svg id="Layer_1" data-name="Layer 1" xmlns="http://www.w3.org/2000/svg" viewBox="0 0 128 128"><title>Artboard 12</title><path d="M57.035,26.916A17,17,0,1,0,69.059,31.9,16.952,16.952,0,0,0,57.035,26.916Zm9.924,26.928a14.036,14.036,0,1,1,4.11-9.924A13.991,13.991,0,0,1,66.959,53.844Z" style="fill:#231f20"/><path d="M57.035,32.267a11.654,11.654,0,1,0,8.239,3.414A11.615,11.615,0,0,0,57.035,32.267Zm6.14,17.793a8.684,8.684,0,1,1,2.543-6.14A8.658,8.658,0,0,1,63.175,50.059Z" style="fill:#231f20"/><path d="M121.285,90.337l-9.633-8.849-.024-.025h0v0l-.06-.055h0a8.068,8.068,0,0,0-11.075.181L96.3,77.739l2.225-2.422a4.348,4.348,0,0,0-.257-6.126L94.575,65.8l-.027-.027C87.132,58.356,83.869,49.02,80.856,40.4,77.33,30.312,74.126,21.145,65.19,16.258c-8.723-4.77-20.418-5.251-31.068-2.072a45.868,45.868,0,0,0-13.985,6.87A35.474,35.474,0,0,0,9.889,32.543c-3.9,7.134-5.154,15.925-2.117,26.1h0a1.973,1.973,0,0,0,1.5,1.37c10.1,2.07,16.036,4.362,20.59,8.144,4.584,3.807,7.978,9.3,12.887,17.676A23.989,23.989,0,0,0,47.2,91.384a20.342,20.342,0,0,0,10.841,5.27,17.847,17.847,0,0,0,11.646-2.3,19.672,19.672,0,0,0,3.244-2.384l2.39,2.2a4.347,4.347,0,0,0,6.126-.257l2.228-2.425,4.191,3.851a8.068,8.068,0,0,0,.755,11.049l9.719,8.929a1.976,1.976,0,0,0,2.792-.116L121.4,93.129A1.976,1.976,0,0,0,121.285,90.337ZM71.42,87.9l-.009.01a16.22,16.22,0,0,1-3.725,3.04,13.933,13.933,0,0,1-9.093,1.787,16.391,16.391,0,0,1-8.721-4.264,20.045,20.045,0,0,1-3.72-4.641c-5.124-8.745-8.688-14.494-13.769-18.713-4.921-4.087-11.071-6.58-21.139-8.732-2.295-8.584-1.167-15.967,2.11-21.96a31.524,31.524,0,0,1,9.118-10.188A41.908,41.908,0,0,1,35.25,17.975c9.7-2.9,20.271-2.507,28.052,1.748C70.9,23.877,73.865,32.362,77.128,41.7c2.982,8.534,6.2,17.737,13.31,25.5L80.282,78.257ZM82.1,87.356l-.009.011-3.554,3.868a.378.378,0,0,1-.261.124.39.39,0,0,1-.281-.1l-2.326-2.137,6.294-6.851L93.267,69.964,95.59,72.1a.377.377,0,0,1,.124.262.39.39,0,0,1-.1.281l-3.609,3.928Zm4.246,1.22,3.923-4.271,3.359-3.656,4.183,3.843-7.282,7.927Zm3.633,12.067A4.086,4.086,0,0,1,91.043,97.7l12.009-13.072h0c.043-.043.084-.088.122-.134a4.072,4.072,0,0,1,2.767-1.244,4.139,4.139,0,0,1,1.667.273L90.388,102.269A4.094,4.094,0,0,1,89.975,100.643Zm9.579,10.425-7.172-6.589,17.6-19.159,7.172,6.589Z" style="fill:#231f20"/></svg>