<svg id="Layer_1" data-name="Layer 1" xmlns="http://www.w3.org/2000/svg" viewBox="0 0 128 128"><title>Artboard 10</title><path d="M118.27,76.309l.006-.006a7.346,7.346,0,0,0,2.164-5.2V62.14a7.389,7.389,0,0,0-7.371-7.371h-4.2a43.311,43.311,0,0,0-43.156-41.7H62.289a43.311,43.311,0,0,0-43.157,41.7h-4.2A7.39,7.39,0,0,0,7.56,62.14V71.1a7.345,7.345,0,0,0,2.164,5.2l.006.006a7.344,7.344,0,0,0,5.2,2.164h4.175v7.989a28.546,28.546,0,0,0,28.467,28.467H80.427a28.382,28.382,0,0,0,20.107-8.361c8.744-8.744,8.361-16.968,8.361-28.1h4.175A7.345,7.345,0,0,0,118.27,76.309ZM19.106,74.392V75.5H14.931a4.407,4.407,0,0,1-4.4-4.4V62.14a4.418,4.418,0,0,1,4.4-4.4h4.175Zm28.467,36.577A24.6,24.6,0,0,1,23.2,89.065l.037.061.019.032.114.185.047.076.01.016.137.216.082.127.133.2.009.015.011.016.155.232,0,.007.019.029L24,90.3l.148.216.03.044.031.045.124.177.041.058.022.03.172.238.008.01.011.015.186.252.006.009h0l.008.011q.191.254.387.5l.022.028.01.013a28.844,28.844,0,0,0,2.26,2.544q.727.727,1.5,1.4h0q.516.447,1.054.872h0q.269.211.543.417t.553.4h0l.28.2h0q.141.1.282.194h0l.285.19h0l.288.187.29.184h0q.436.273.884.531l.3.17h0l.3.167h0l.3.163.306.16h0q.307.157.618.308l.312.149.314.145.316.141h0l.318.137h0l.32.134.322.13h0l.324.126.326.122.327.118.33.114h0l.331.11.333.107h0l.334.1.336.1h0l.338.094.339.09.341.086.343.082.344.078.346.073.348.069.349.065.35.061q.175.03.352.057t.353.052l.355.048.356.043c.119.014.238.027.357.039l.358.034.36.03.361.025.362.021.363.016.365.012.365.007.366,0H62.521v8.11Zm50.161-7.2a24.434,24.434,0,0,1-17.307,7.2H65.479v-8.11H80.427A28.381,28.381,0,0,0,100.533,94.5a28.771,28.771,0,0,0,4.249-5.412l.013-.021A24.479,24.479,0,0,1,97.734,103.769Zm7.2-29.377A24.584,24.584,0,0,1,80.427,98.9H47.573A24.584,24.584,0,0,1,23.066,74.392V56.253A39.342,39.342,0,0,1,62.289,17.031h.24l.072,17.4H51.594A22.147,22.147,0,0,0,29.507,56.513v10.58A22.147,22.147,0,0,0,51.594,89.179H76.579A22.147,22.147,0,0,0,98.665,67.094V56.513A22.147,22.147,0,0,0,76.579,34.428H65.559l-.072-17.4h.225a39.341,39.341,0,0,1,39.222,39.222ZM76.579,37.4A19.176,19.176,0,0,1,95.7,56.513v10.58A19.176,19.176,0,0,1,76.579,86.209H51.594A19.175,19.175,0,0,1,32.478,67.094V56.513A19.176,19.176,0,0,1,51.594,37.4Zm32.014,41.116.006-.041h.22Zm.279-3.011q.022-.553.022-1.111V57.738h4.175a4.418,4.418,0,0,1,4.4,4.4V71.1a4.407,4.407,0,0,1-4.4,4.4Z" style="fill:#231f20"/></svg>