<svg id="Layer_1" data-name="Layer 1" xmlns="http://www.w3.org/2000/svg" viewBox="0 0 128 128"><title>Artboard 3</title><path d="M62.328,71.394a5.069,5.069,0,0,0,6.426,6.752l.113-.044a5.043,5.043,0,0,0,2.768-2.7l0,0a5.062,5.062,0,0,0-2.649-6.655l0,0a5.159,5.159,0,0,0-.895-.29l-.075-.016a5.061,5.061,0,0,0-5.687,2.96Z"/><path d="M92.39,25.082A46.559,46.559,0,0,0,40.343,35.709l-.434.459,1.3.566C54.52,42.5,71.684,49.951,69.825,66.182l.114.047.2.087A7.758,7.758,0,0,1,74.15,76.351l-.087.2A7.728,7.728,0,0,1,70.307,80.4c-4.1,9.093-11.2,12.521-19.116,13.409-2.606.083-6.021-1.7-11.535-2.826.6-1.688,1.225-3.53,1.875-5.478,4.456,1.213,18.29-.261,21.169-5.643a7.756,7.756,0,0,1,4.48-14.214c.894-9.124-5.464-15.249-13.423-19.894l-2.4-1.337c-3.694-1.962-7.6-3.656-11.2-5.218l-2.122-.922c-3.01,3.586-3.322,5.343-2.17,6.442,1.063,1.016,3.188,1.9,5.715,2.953a62.538,62.538,0,0,1,7.741,3.676c-2.879,9.776-7.128,24.14-9.24,30.966l-1.365-.384c-3.719-1.05-7.6-2.143-11.517-2.891l-.139-.026a48.992,48.992,0,0,0-8.034-.9A7.412,7.412,0,0,0,14.2,79.27a5.545,5.545,0,0,0-1.941,3.425c-.122.527-.29,1.193-.471,1.9a49.743,49.743,0,0,0-1.466,7.422c-.436,4.71.578,8.879,6.006,9.381a76.542,76.542,0,0,0,8.182.2h.061l1.048-.027a72.361,72.361,0,0,0,9.663-.762c.609-.166,1.853-2.955,3.427-7.215,5.091.972,9.567,2.719,12.881,3.024,1.091,4.463,4.408,8.024,11.744,9.649,5.451,1.208,10.231-.3,15.087-1.823,5.4-1.7,10.878-3.421,17.745-1.98,5.247,1.1,9.955-1.49,13.609-6.3a39.358,39.358,0,0,0,6.436-14.586,59.229,59.229,0,0,0,1.307-18.81C116.145,47.485,108.715,32.088,92.39,25.082ZM51.677,52.69a32.184,32.184,0,0,1,4.991,4.578c3.3,3.71,1.035,10.533-1.55,18.311-2,6.005-4.157,8.589-12.744,7.366C44.557,76.281,48.8,62.267,51.677,52.69Zm-35.1,46.041c-2.627-.243-3.531-2.126-3.637-4.537.819-2.955,4.612-3.3,9.856-2.783a28.855,28.855,0,0,0,.092,7.527C20.628,98.956,18.4,98.9,16.575,98.732Zm6.6-9.985c-4.038-.409-7.443-.36-9.778.845.289-1.5.669-3,1.007-4.34.171-.674.331-1.31.481-1.957a3.166,3.166,0,0,1,.953-1.89,5.066,5.066,0,0,1,3.134-.616,43.579,43.579,0,0,1,6.094.595A50.1,50.1,0,0,0,23.172,88.747Zm11.41,9.474a72.1,72.1,0,0,1-8.983.666,25.545,25.545,0,0,1-.151-7.161c1.523.2,3.132.448,4.8.7,2.037.31,4.151.633,6.3.908C35.539,96.31,34.824,98.155,34.582,98.221Zm2.831-7.492c-2.311-.283-4.587-.629-6.768-.962-1.662-.253-3.273-.5-4.815-.7a47,47,0,0,1,1.9-7.182c3.468.718,6.925,1.693,10.251,2.632l1.293.364C38.611,87.009,37.982,88.986,37.413,90.729Z"/></svg>