<svg id="Layer_1" data-name="Layer 1" xmlns="http://www.w3.org/2000/svg" viewBox="0 0 128 128"><title>Artboard 16</title><path d="M77.041,35.184l-8.9.017L65.41,26.736a1.48,1.48,0,0,0-2.819,0L59.858,35.2l-8.79-.017a1.483,1.483,0,0,0-.978,2.68L57.3,43.079l-2.765,8.456h0a1.478,1.478,0,0,0,2.276,1.652L64,47.943l7.1,5.178a1.482,1.482,0,0,0,2.371-1.586L70.7,43.079l7.207-5.215,0,0a1.479,1.479,0,0,0-.868-2.677Zm-8.952,6.127a1.484,1.484,0,0,0-.523,1.71l1.66,5.076L64.87,44.919a1.479,1.479,0,0,0-1.766.019L58.774,48.1l1.677-5.127a1.483,1.483,0,0,0-.54-1.659h0l-4.367-3.16,5.39.01a1.48,1.48,0,0,0,1.409-1.027h0L64,32.007l1.655,5.127a1.481,1.481,0,0,0,1.48,1.027l5.32-.01Z" style="fill:#231f20"/><path d="M117.891,62.736l0,0,0,0a6.511,6.511,0,0,0-4.6-1.916h-.936a48.384,48.384,0,0,0-96.687,0H14.72a6.513,6.513,0,0,0-4.6,1.913l0,0,0,0,0,0a6.511,6.511,0,0,0-1.916,4.6h0a6.512,6.512,0,0,0,1.913,4.6l0,0,0,0,0,0a6.511,6.511,0,0,0,4.6,1.916h7.624a41.7,41.7,0,0,0,83.311,0h7.624a6.512,6.512,0,0,0,4.6-1.913l0,0,0,0,0,0a6.513,6.513,0,0,0,1.916-4.6h0a6.512,6.512,0,0,0-1.912-4.6ZM32.588,31.38a44.423,44.423,0,0,1,75.792,29.432H19.62A44.279,44.279,0,0,1,32.588,31.38Zm58.1,67.2A37.743,37.743,0,0,1,26.309,73.869h75.382A37.621,37.621,0,0,1,90.688,98.577Zm25.159-31.236a2.555,2.555,0,0,1-.748,1.812l-.008.008a2.555,2.555,0,0,1-1.812.748H14.72a2.553,2.553,0,0,1-1.812-.748l-.008-.008a2.554,2.554,0,0,1-.748-1.812h0a2.554,2.554,0,0,1,.748-1.812l.008-.008a2.553,2.553,0,0,1,1.812-.748h98.56a2.555,2.555,0,0,1,1.812.748l.008.008a2.555,2.555,0,0,1,.748,1.812Z" style="fill:#231f20"/></svg>