<svg id="Layer_1" data-name="Layer 1" xmlns="http://www.w3.org/2000/svg" viewBox="0 0 128 128"><title>Artboard 7</title><path d="M100.189,23.734c-9.516-5.143-21.2-9.2-27.79-10.216a48.9,48.9,0,0,0-22.151,1.709,43.181,43.181,0,0,0-18.216,11.18,33.83,33.83,0,0,0-2.674,3.214c-6.568,8.868-13.23,25.016-16.884,40.21C8.73,85.4,8.19,100.183,14.084,105.808a9.188,9.188,0,0,0,.882.741c.006,0,.27.873.588,1.877.923,2.922,2.05,6.489,5.59,6.6,9.8.316,26.6-3.844,43.207-9.155,24.8-7.932,49.415-18.943,50.069-21.537a124.976,124.976,0,0,0,3.892-26.421c.222-7.787-.575-14.907-2.647-20.575C113.925,32.59,107.674,27.78,100.189,23.734ZM16.31,70.744a146.167,146.167,0,0,1,8.28-24.51c6.722,1.527,31.881,7.024,40.4,5.756,9.637-1.435,16.129-.434,19.622,1.867a5.959,5.959,0,0,1,2.652,3.366,6.253,6.253,0,0,1-.543,4.263c-1.733,3.755-6.438,7.794-14.037,10.936-8.275,3.421-18.949,5.816-29.07,7.358-12.733,1.941-24.474,2.54-29.446,2.145C14.651,78.372,15.385,74.595,16.31,70.744Zm94.272,12.633c-.422,1.677-23.7,11.151-47.424,18.738-16.247,5.2-32.589,9.269-41.893,8.969-.73-.023-1.4-2.127-1.939-3.85-.121-.382-.237-.752-.359-1.105,9.758-1.246,45.246-6.912,92.79-27.8Q111.219,80.854,110.582,83.378Zm3.784-25.569a111.33,111.33,0,0,1-1.9,16.967c-50.8,22.606-87.977,27.751-95.182,28.579a5.321,5.321,0,0,1-.479-.409c-3.108-2.966-3.835-9.737-2.992-18.1,5.374.41,17.4-.173,30.236-2.13,10.308-1.571,21.218-4.026,29.755-7.555,8.339-3.448,13.583-8.057,15.6-12.432a9.131,9.131,0,0,0,.716-6.271,8.853,8.853,0,0,0-3.893-5.072c-4.054-2.67-11.265-3.881-21.676-2.331-7.795,1.161-31.292-3.9-38.7-5.575a71.257,71.257,0,0,1,6.672-11.508,29.863,29.863,0,0,1,2.364-2.842A39.22,39.22,0,0,1,51.438,18.986a44.975,44.975,0,0,1,20.373-1.554c6.229.958,17.367,4.844,26.506,9.783,6.73,3.637,12.273,7.754,13.633,11.473C113.848,43.876,114.574,50.5,114.367,57.808Z" style="fill:#231f20"/><path d="M73.246,61.477a4.907,4.907,0,0,0,2.591,2.678l.036.016A4.911,4.911,0,1,0,73.3,57.686l-.016.036a4.894,4.894,0,0,0-.045,3.757Zm2.769-2.6h0a1.935,1.935,0,0,1,1.063-1.039,1.958,1.958,0,0,1,1.5.022,1.937,1.937,0,0,1,1.039,1.063,1.958,1.958,0,0,1-.022,1.5,1.937,1.937,0,0,1-1.063,1.039,1.957,1.957,0,0,1-1.5-.022h0a1.935,1.935,0,0,1-1.039-1.063l0-.005h0A1.949,1.949,0,0,1,76.015,58.881Z" style="fill:#231f20"/></svg>