<svg id="Layer_1" data-name="Layer 1" xmlns="http://www.w3.org/2000/svg" viewBox="0 0 128 128"><title>Artboard 6</title><path d="M72.687,12.548a4.948,4.948,0,0,0-3.506-1.457H58.819a4.973,4.973,0,0,0-4.963,4.963v3.671a48.113,48.113,0,0,0-37.77,46.826V79.988a6.514,6.514,0,0,0-4.007,1.764,8.694,8.694,0,0,0-2.511,4.567,12.709,12.709,0,0,0,.236,6.04c1.239,4.572,4.964,9.848,12.59,14.374,11.43,6.784,26.535,10.176,41.606,10.176s30.176-3.392,41.607-10.176c7.626-4.526,11.351-9.8,12.589-14.374a12.7,12.7,0,0,0,.237-6.04,8.694,8.694,0,0,0-2.512-4.567,6.517,6.517,0,0,0-4.007-1.764V66.551a48.114,48.114,0,0,0-37.77-46.826V16.054A4.948,4.948,0,0,0,72.687,12.548ZM56.826,16.054a2,2,0,0,1,1.993-1.993H69.181a2,2,0,0,1,1.993,1.993V48.771a7.174,7.174,0,0,1-14.348,0Zm51.206,78.813.058-.012.058-.012h0l.115-.027h0l.057-.014h0l.057-.015h0l.113-.032.056-.017h0l.056-.018h0l.056-.018.055-.019h0l.055-.02h0l.054-.02h0l.054-.021h0l.054-.022h0l.053-.022.053-.023h0l.053-.024.105-.049h0l.052-.025h0l.052-.026h0l.051-.027h0l.051-.028h0l.05-.028q.1-.057.2-.118h0l.1-.062.048-.032.047-.033h0l.047-.033h0l.047-.034.046-.034.046-.035h0l.045-.035h0l.09-.072h0l.087-.074h0l.043-.038h0l.085-.077h0l.042-.039h0l.041-.04h0l.041-.04h0l.04-.041h0l.04-.041h0l.04-.042h0l.039-.042h0l.038-.043h0l.038-.043h0l.037-.043h0l.037-.044h0l.037-.044h0l.036-.045h0l.035-.045h0l.035-.046.034-.046h0l.034-.046h0l.033-.047h0l.033-.047h0l.032-.048h0l.032-.048h0l.031-.048h0l.03-.049h0l.03-.049h0l.029-.05h0l.028-.05h0l.028-.05.027-.051h0l.027-.051h0l.026-.052h0l.025-.052h0l.025-.052h0l.024-.053h0l.024-.053h0l.023-.053h0l.022-.053h0l.022-.054h0l.021-.054h0l.02-.055h0l.02-.055h0l.019-.055h0l.019-.055h0l.018-.056h0l.017-.056h0l.017-.056h0l.016-.056h0l.015-.057h0l.014-.057h0l.014-.057h0l.013-.058h0l.012-.058h0l.012-.058h0l.011-.058h0l.01-.059h0l.01-.059h0l.009-.059h0l.008-.059h0l.007-.059h0l.007-.06h0l.006-.06h0l0-.06h0l0-.061h0l0-.06h0l0-.061h0l0-.061h0v-.061h0v-.061h0V83.973a2.71,2.71,0,0,1,1.331.687,4.769,4.769,0,0,1,1.321,2.51,8.789,8.789,0,0,1-.19,4.168c-1,3.706-4.175,8.071-10.78,11.992-10.8,6.412-25.184,9.619-39.6,9.619s-28.791-3.207-39.6-9.619c-6.605-3.92-9.776-8.286-10.78-11.992a8.8,8.8,0,0,1-.19-4.168,4.769,4.769,0,0,1,1.32-2.51,2.708,2.708,0,0,1,1.331-.687v6.195h0v.061h0v.06h0l0,.06h0l0,.059v0l0,.058v0l0,.058v0l.005.057.012.119v0l.007.055a4.8,4.8,0,0,0,4.139,4.144h0c.058.007.117.014.176.019h0l.058.005h0l.058,0h0l.059,0h0l.059,0h0l.06,0h86.5l.061,0h0l.061,0h0l.061,0h0l.061,0h0l.06-.005h0l.06-.006h0l.06-.007h0l.059-.007h0l.06-.008h0l.059-.009h0l.059-.009h0l.118-.021ZM51.876,90.993V85.145a12.124,12.124,0,0,1,24.247,0v5.848ZM95.041,35.51a43.818,43.818,0,0,1,12.913,31.041V90.178h0v.01h0v.01h0v.01h0v.01h0v.01h0v.01h0v.01h0v.01h0v.01h0v.01h0v.01h0l0,.01h0l0,.01h0v.01h0l0,.01h0l0,.01h0l0,.01h0l0,.009h0l0,.01h0l0,.009h0l0,.009h0l0,.01,0,.009h0l0,.009h0l0,.009h0l0,.009h0l0,.009h0l0,.009h0l0,.009h0l0,.009,0,.009h0l0,.009h0l0,.009h0l0,.009h0l0,.009h0l0,.009h0l0,.009h0l-.005.009h0l0,.009,0,.009h0l-.005.008h0l0,.008h0l-.005.009h0l-.005.008h0l-.006.008h0l-.006.008h0l-.006.008h0l-.006.008h0l-.006.008h0l-.006.008h0l-.006.008h0l-.006.008h0l-.006.008-.006.008h0l-.006.007h0l-.007.007h0l-.006.007h0l-.006.007h0l-.007.007h0l-.007.007h0l-.007.007h0l-.007.007h0l-.007.007h0l-.007.007h0l-.007.006h0l-.007.007h0l-.007.006h0l-.007.006h0l-.008.006h0l-.007.006h0l-.008.006h0l-.008.006h0l-.007.006h0l-.008.006-.016.012-.008.006h0l-.008.006-.008.005-.008.006h0l-.016.011h0l-.017.011h0l-.008.005-.017.01-.009,0h0l-.009,0h0l-.009,0h0l-.018.009-.009,0h0l-.009,0h0l-.009,0h0l-.009,0-.019.008h0l-.009,0h0l-.009,0-.009,0h0l-.01,0h0l-.009,0h0l-.009,0h0l-.01,0h0l-.009,0h0l-.009,0h0l-.01,0h0l-.009,0h0l-.01,0h0l-.01,0h0l-.01,0h0l-.01,0h0l-.01,0H79.093V85.145a15.094,15.094,0,0,0-30.187,0v5.848H20.818l-.03,0h-.012a.837.837,0,0,1-.725-.725h0v-.009h0l0-.03h0v-.01h0V90.2h0v-.01h0v-.01h0V66.551a44.152,44.152,0,0,1,33.81-42.764V48.771a10.144,10.144,0,0,0,20.288,0V23.787A44.037,44.037,0,0,1,95.041,35.51Z" style="fill:#231f20"/></svg>