<svg xmlns="http://www.w3.org/2000/svg" data-name="Layer 1" viewBox="0 0 128 128"><path d="M77.3 54.125a2.046 2.046 0 10-1.065 2.692h.012A2.038 2.038 0 0077.3 54.13z"/><path d="M107.661 47.987c-3.787-8.415-10.23-15.73-19.314-19.629-9.709-4.167-19.967-3.869-28.918-1.228-11.206 3.307-20.3 10.216-23.677 16.609a1.792 1.792 0 01-.848.8l-18.615 8.405 4.048.63 13.729-2.367a1.794 1.794 0 011.715.664 6.937 6.937 0 00.755.721 8.464 8.464 0 001.051.744c2.033 1.21 4.675.666 7.688.045 6.194-1.276 13.7-2.82 23.036 6.631a24.211 24.211 0 014.876 6.55 7.628 7.628 0 01.8 4.189 4.638 4.638 0 01-2.2 3.388 7.286 7.286 0 01-2.712.989c-4.309.736-14.721 5.228-25.119 9.714-3.319 1.432-6.638 2.864-9.671 4.137a1.8 1.8 0 01-2.027-.453L27.4 83.87c-1.213 3.732-2.964 10.771-.72 15.191 3.131 6.165 12.573 3.365 19.577 1.288 1.746-.518 3.355-.995 4.8-1.315a183.389 183.389 0 0133.631-4.114c6.05-.279 10.374-.479 13.1-1.707a22.22 22.22 0 0011.146-11.936 37.6 37.6 0 002.747-16.061 46.363 46.363 0 00-4.02-17.229zm-76.033 49a1.344 1.344 0 01-2.66.389A15.941 15.941 0 0128.8 95a16.567 16.567 0 01.172-2.372 1.343 1.343 0 112.66.378A13.934 13.934 0 0031.478 95a13.382 13.382 0 00.15 1.989zm5.037-.542a1.344 1.344 0 11-2.639.516 9.916 9.916 0 010-3.818 1.343 1.343 0 012.639.5 7.27 7.27 0 000 2.803zM79.813 56.69a4.723 4.723 0 01-2.419 2.548l-.217.093a4.735 4.735 0 01-6.053-2.42l-.092-.215a4.733 4.733 0 012.524-6.1h.005a4.733 4.733 0 016.159 2.376l.092.215a4.7 4.7 0 01.001 3.503z"/></svg>