<svg id="Layer_1" data-name="Layer 1" xmlns="http://www.w3.org/2000/svg" viewBox="0 0 128 128"><title>Artboard 5</title><path d="M76.407,15.49a51.479,51.479,0,0,0-51.456,50C10.279,69.819,3.093,72.747,1.344,74.692-2.4,78.853,2.661,80.36,13.063,80.357l52.006-.015L80.951,111.7a1.481,1.481,0,0,0,2.484.252l27.918-31.621,14.552,0a1.972,1.972,0,0,0,1.972-1.972V67.12h0V67.07h0v-.05h0v-.008h0v-.04A51.479,51.479,0,0,0,76.407,15.49Zm6.2,92.924L68.389,80.341h4.1L82.815,99.432l0,0a1.462,1.462,0,0,0,.3.39,1.477,1.477,0,0,0,2.088-.093l17.783-19.4H107.4ZM75.855,80.338l23.126-.007L84.435,96.2Zm48.077-3.959-110.869.033c-2.671,0-9.524.589-3.811-1.653,3.719-1.46,9.559-3.368,17.915-5.812h96.766ZM76.407,64.987H28.931a47.518,47.518,0,0,1,94.953,0Z" style="fill:#231f20"/></svg>