<svg xmlns="http://www.w3.org/2000/svg" data-name="Layer 1" viewBox="0 0 128 128"><path d="M116.152 57.222a5.876 5.876 0 00-4.16-1.733H108.4a44.432 44.432 0 00-88.808 0h-3.584a5.876 5.876 0 00-4.16 1.733 5.876 5.876 0 00-1.73 4.162v17.357a5.874 5.874 0 001.73 4.162c.03.03.062.059.094.086a5.875 5.875 0 004.069 1.643h3.559v12.816a9.507 9.507 0 00-9.247 9.48v6.546a1.98 1.98 0 001.98 1.98H115.7a1.98 1.98 0 001.98-1.98v-6.546a9.508 9.508 0 00-9.247-9.48V84.633h3.562a5.874 5.874 0 004.069-1.643c.032-.027.064-.056.094-.086a5.875 5.875 0 001.73-4.162v-17.36a5.877 5.877 0 00-1.73-4.162zm-92.622-.247a40.47 40.47 0 0180.939 0v40.47H23.53zm-7.522 24.688a2.91 2.91 0 01-2-.794 1.237 1.237 0 00-.061-.065 2.914 2.914 0 01-.859-2.063V61.382a2.914 2.914 0 01.859-2.063 2.91 2.91 0 012.063-.854h3.56v23.2zm96.085 21.366a5.506 5.506 0 011.624 3.9v4.566H14.283v-4.566a5.543 5.543 0 015.523-5.523h88.388a5.506 5.506 0 013.899 1.623zm2.821-24.288a2.914 2.914 0 01-.859 2.063 1.237 1.237 0 00-.061.065 2.91 2.91 0 01-2 .794h-3.564V58.46h3.562a2.91 2.91 0 012.063.854 2.914 2.914 0 01.859 2.063z"/><path d="M64 33.257a27.59 27.59 0 1019.509 8.081A27.5 27.5 0 0064 33.257zm17.409 45a24.62 24.62 0 117.211-17.411 24.543 24.543 0 01-7.211 17.409z"/><path d="M64 48.828a1.485 1.485 0 100 2.97 9.047 9.047 0 019.049 9.048 1.485 1.485 0 102.97 0A12.02 12.02 0 0064 48.828z"/><path d="M64 41.276a19.571 19.571 0 1013.838 5.732A19.51 19.51 0 0064 41.276zm11.739 31.309A16.6 16.6 0 1180.6 60.846a16.549 16.549 0 01-4.861 11.739z"/></svg>