<svg id="Layer_1" data-name="Layer 1" xmlns="http://www.w3.org/2000/svg" viewBox="0 0 128 128"><title>Artboard 13</title><path d="M83.789,51.8a5.222,5.222,0,0,0-6.8-2.621l-.006,0v0A5.226,5.226,0,0,0,74.2,55.914a1.511,1.511,0,0,0,.1.237,5.223,5.223,0,0,0,6.678,2.67,1.491,1.491,0,0,0,.239-.1,5.223,5.223,0,0,0,2.669-6.68A1.484,1.484,0,0,0,83.789,51.8Zm-2.647,3.015a2.241,2.241,0,0,1-1.189,1.224l-.013.005a2.25,2.25,0,0,1-2.963-1.176v0a2.244,2.244,0,0,1,1.182-2.962v0a2.249,2.249,0,0,1,2.957,1.173l0,.006A2.26,2.26,0,0,1,81.141,54.816Z" style="fill:#231f20"/><path d="M36.286,96.683a1.482,1.482,0,1,0-2.912-.557,10.938,10.938,0,0,0,0,4.212,1.483,1.483,0,1,0,2.912-.569A8.017,8.017,0,0,1,36.286,96.683Z" style="fill:#231f20"/><path d="M30.563,98.173a15.376,15.376,0,0,1,.166-2.2,1.482,1.482,0,1,0-2.935-.418,18.308,18.308,0,0,0-.19,2.618,17.6,17.6,0,0,0,.19,2.624,1.483,1.483,0,0,0,2.935-.429A14.743,14.743,0,0,1,30.563,98.173Z" style="fill:#231f20"/><path d="M118.219,44.68c-4.555-10.121-12.345-18.937-23.366-23.667-11.647-5-23.9-4.656-34.565-1.509C47.252,23.35,36.516,31.463,32.12,39.166L6.134,50.9a1.977,1.977,0,0,0,.642,3.772L18,56.419a1.965,1.965,0,0,0,.633,0v0l14.421-2.486q.272.257.565.5a13.316,13.316,0,0,0,1.67,1.161c3.561,2.119,7.168,1.377,11.282.529,5.887-1.212,13.018-2.681,21.812,6.217a22.969,22.969,0,0,1,4.606,6.1,4.667,4.667,0,0,1,.555,2.441,1.316,1.316,0,0,1-.635.954,4.207,4.207,0,0,1-1.537.519c-5.233.894-16.93,5.94-28.612,10.98-3.171,1.368-6.341,2.736-9.446,4.047l-6.708-6.431a1.974,1.974,0,0,0-3.224.747c-.448,1.1-5.786,14.579-1.642,22.739,4.95,9.746,17.173,6.121,26.239,3.432,1.9-.562,3.645-1.081,5.032-1.387a198.853,198.853,0,0,1,36.424-4.447c7.129-.329,12.223-.565,15.91-2.223,6.635-2.986,11.4-8.456,14.308-15.227A45.414,45.414,0,0,0,123,65.175,55.143,55.143,0,0,0,118.219,44.68Zm-2.2,38.354C113.5,88.916,109.4,93.65,103.724,96.2c-3.01,1.354-7.781,1.575-14.456,1.883a202.341,202.341,0,0,0-37.1,4.539c-1.593.353-3.368.879-5.295,1.45-7.727,2.292-18.144,5.381-21.6-1.421-2.476-4.876-.544-12.642.794-16.76l5.357,5.136a1.98,1.98,0,0,0,2.236.5c3.346-1.4,7.007-2.984,10.669-4.564C55.8,82.017,67.286,77.061,72.041,76.249a8.035,8.035,0,0,0,2.992-1.091,5.115,5.115,0,0,0,2.429-3.738,8.415,8.415,0,0,0-.88-4.622A26.711,26.711,0,0,0,71.2,59.571C60.9,49.144,52.62,50.849,45.786,52.256c-3.324.685-6.239,1.285-8.482-.05a9.286,9.286,0,0,1-1.16-.821,7.621,7.621,0,0,1-.833-.8,1.978,1.978,0,0,0-1.892-.733L18.272,52.469l-4.467-.695L34.343,42.5h0a1.965,1.965,0,0,0,.936-.881C39.006,34.564,49.038,26.941,61.4,23.293c9.875-2.914,21.192-3.242,31.9,1.355,10.023,4.3,17.131,12.372,21.309,21.656a51.153,51.153,0,0,1,4.437,19.01A41.49,41.49,0,0,1,116.022,83.034Z" style="fill:#231f20"/></svg>