<svg id="Layer_1" data-name="Layer 1" xmlns="http://www.w3.org/2000/svg" viewBox="0 0 128 128"><title>Artboard 1</title><path d="M59.2,46.961a4.907,4.907,0,0,0,2.591,2.678l.036.016a4.911,4.911,0,1,0-2.568-6.485l-.016.036a4.9,4.9,0,0,0-.045,3.757Zm2.769-2.6h0a1.935,1.935,0,0,1,1.063-1.039,1.95,1.95,0,0,1,2.518,2.586,1.934,1.934,0,0,1-1.063,1.039,1.958,1.958,0,0,1-1.5-.022h0a1.934,1.934,0,0,1-1.039-1.063l0-.005h0A1.949,1.949,0,0,1,61.972,44.365Z" style="fill:#231f20"/><path d="M69.487,73.139a4.908,4.908,0,0,0,2.591,2.678l.036.016a4.911,4.911,0,1,0-2.568-6.485l-.016.036a4.894,4.894,0,0,0-.045,3.757Zm2.769-2.6h0A1.935,1.935,0,0,1,73.319,69.5a1.957,1.957,0,0,1,1.5.022,1.937,1.937,0,0,1,1.039,1.063,1.958,1.958,0,0,1-.022,1.5,1.937,1.937,0,0,1-1.063,1.039,1.957,1.957,0,0,1-1.5-.022h0a1.935,1.935,0,0,1-1.039-1.063l0,0h0A1.949,1.949,0,0,1,72.256,70.543Z" style="fill:#231f20"/><path d="M21.5,103.163c4.53,1.891,10.138,2.612,15.531,2.747a19.134,19.134,0,0,0,1.188,2.431c3.089,5.32,8.947,9.478,18.36,10.23,10,.8,22.389-2.315,33.216-8.812,9.474-5.686,17.791-13.977,22.319-24.531h0a54.452,54.452,0,0,0-28.568-71.5h0a54.47,54.47,0,0,0-60.865,12.44c-8.233,8.625-8.64,13.2-4.84,16.831a11.771,11.771,0,0,0,1.485,1.188,84.352,84.352,0,0,0-6.441,21.446,98.849,98.849,0,0,0-1.03,25.526C12.417,97.249,16.247,100.969,21.5,103.163Zm4.043-74.273A50.5,50.5,0,0,1,82,17.363h0a50.485,50.485,0,0,1,26.481,66.314v0a45.811,45.811,0,0,1-10.176,14.6,76.377,76.377,0,0,1-14.47,6.363c-6.3,2.076-13.121,3.532-18.956,3.475a18.1,18.1,0,0,1-11.146-3.575,8.628,8.628,0,0,1-2.82-3.794,5.906,5.906,0,0,1,.126-4.2c.839-2.1,2.853-4.258,6.352-6.252a17.822,17.822,0,0,0,7.019-6.219h0l0,0c1.822-3.028,2.8-7.291,2-13.772-1.225-9.941-6.909-18-14.072-24.2A72.263,72.263,0,0,0,23.331,31.328Q24.3,30.2,25.545,28.891Zm-4.237,5.04C28.479,35.259,40.83,40.062,50.4,48.344c6.661,5.764,11.94,13.212,13.063,22.321.707,5.73-.086,9.382-1.593,11.888h0a15.2,15.2,0,0,1-5.939,5.174c-4.133,2.357-6.565,5.038-7.64,7.726a8.815,8.815,0,0,0-.184,6.265,11.563,11.563,0,0,0,3.759,5.128,21.1,21.1,0,0,0,12.991,4.236c6.2.06,13.35-1.454,19.908-3.614q1.42-.467,2.8-.974c-10.076,5.993-21.5,8.865-30.675,8.133-7.921-.632-12.767-3.987-15.251-8.265A16.251,16.251,0,0,1,39.518,99,18.162,18.162,0,0,1,40.7,91.6c1.5-3.88,4.313-6.878,7.868-7.485a8.76,8.76,0,0,0,5.669-3.488,10.924,10.924,0,0,0,1.908-4.514,15.513,15.513,0,0,0-.011-5.459c-.979-5.733-4.966-12.6-13.164-18.675a67.641,67.641,0,0,0-14.505-7.7c-3.469-1.468-6.383-2.7-7.893-4.142C19.22,38.853,19.18,37.046,21.308,33.931Zm-5.5,32.189A81.676,81.676,0,0,1,21.9,45.669c1.492.749,3.19,1.467,5.029,2.245a64.333,64.333,0,0,1,13.685,7.233C47.891,60.538,51.4,66.457,52.23,71.316a11.576,11.576,0,0,1,.026,4.067,7,7,0,0,1-1.2,2.89,4.883,4.883,0,0,1-3.163,1.94c-5.027.858-8.9,4.841-10.884,9.959a22.112,22.112,0,0,0-1.441,9.008,21.258,21.258,0,0,0,.518,3.74,40.084,40.084,0,0,1-13.452-2.5c-4.282-1.788-7.4-4.753-7.835-9.534A95.955,95.955,0,0,1,15.811,66.119Z" style="fill:#231f20"/><path d="M42.413,23.963a4.919,4.919,0,1,0,2.628,2.7A4.888,4.888,0,0,0,42.413,23.963Zm-.143,5.29a1.936,1.936,0,0,1-1.063,1.039,1.958,1.958,0,0,1-1.5-.021,1.935,1.935,0,0,1-1.039-1.063,1.957,1.957,0,0,1,.022-1.5,1.953,1.953,0,0,1,3.6.045A1.957,1.957,0,0,1,42.27,29.254Z" style="fill:#231f20"/><path d="M66.08,97.022a4.906,4.906,0,0,0-2.591-2.678l-.036-.016a4.918,4.918,0,0,0-6.394,2.457,1.469,1.469,0,0,0-.1.244,4.919,4.919,0,0,0,2.506,6.276,1.459,1.459,0,0,0,.243.1,4.918,4.918,0,0,0,6.317-2.6l.016-.036a4.894,4.894,0,0,0,.045-3.757Zm-2.769,2.6h0a1.944,1.944,0,0,1-2.564,1.017l-.005,0a1.937,1.937,0,0,1-1.034-1.061,1.957,1.957,0,0,1,.022-1.5l0,0a1.935,1.935,0,0,1,1.061-1.034,1.957,1.957,0,0,1,1.5.022h0a1.936,1.936,0,0,1,1.039,1.063l0,.005h0A1.948,1.948,0,0,1,63.312,99.618Z" style="fill:#231f20"/></svg>