<svg id="Layer_1" data-name="Layer 1" xmlns="http://www.w3.org/2000/svg" viewBox="0 0 128 128"><title>Artboard 16</title><path d="M23.775,59.316h80.449a40.265,40.265,0,0,0-80.449,0Zm41.5-30.886L67.754,36.1l8.066-.015a1.345,1.345,0,0,1,.788,2.429l-6.532,4.727,2.507,7.665a1.344,1.344,0,0,1-2.149,1.438L64,47.652l-6.516,4.754a1.344,1.344,0,0,1-2.066-1.5l2.506-7.665-6.532-4.727a1.345,1.345,0,0,1,.886-2.429l7.968.015,2.477-7.672A1.344,1.344,0,0,1,65.277,28.43Z"/><path d="M108.666,62.905H19.334a2.328,2.328,0,0,0,0,4.655h89.332A2.328,2.328,0,0,0,108.666,62.905Z"/><path d="M64,103.565A34.209,34.209,0,0,1,29.838,71.15H26.244a37.8,37.8,0,0,0,75.512,0H98.162A34.209,34.209,0,0,1,64,103.565Z"/></svg>