<svg xmlns="http://www.w3.org/2000/svg" data-name="Layer 1" viewBox="0 0 128 128"><path d="M63.3 65.625a1.77 1.77 0 0 0 2.345-2.278 1.768 1.768 0 0 0-3.264-.046 1.762 1.762 0 0 0 .922 2.324z"/><path d="M18.483 92.123a33.743 33.743 0 0 0 .92 8.134l.032.14c.477 1.7 1.074 2.843 1.791 3.113a1.05 1.05 0 0 0 .654-.012c7.318-2.068 17.373-.967 28.246.224 17.857 1.956 38.009 4.163 49.925-7.488 4.685-4.581 7.738-11.665 8.919-19.668a54.171 54.171 0 0 0-2.431-25.386 43.1 43.1 0 0 0-10.887-17.091A41.169 41.169 0 0 0 53.714 25 42.641 42.641 0 0 0 36.92 35.947c-5.095 5.337-5.769 7.769-4.191 9.275 1.253 1.2 3.693 2.229 6.6 3.458l2.16.921c7.548 3.286 13.085 9.2 15.277 15.083a14.71 14.71 0 0 1 .849 7.885A11.016 11.016 0 0 1 53.5 79.26c-3.738 2.951-10.063 4.479-19.514 3.358-6.735-.8-8.828-6.762-10.283-10.912a13.107 13.107 0 0 0-1.026-2.568c-.331-.229.35.593-.1 1.241-2.526 3.663-4.185 13.479-4.094 21.744zm41.381-29.767.095-.22a4.459 4.459 0 0 1 5.8-2.227l.032.014a4.453 4.453 0 0 1 2.309 5.831l-.014.032a4.458 4.458 0 0 1-5.726 2.354l-.22-.095a4.459 4.459 0 0 1-2.272-5.689zm-32 22.489a1.343 1.343 0 0 1 2.639.5 35.576 35.576 0 0 0-.652 6.661 34.016 34.016 0 0 0 .652 6.655 1.344 1.344 0 1 1-2.639.515 36.627 36.627 0 0 1-.694-7.171 38.259 38.259 0 0 1 .694-7.16zm-4.064-5.45a1.344 1.344 0 0 1 1.141 1.519 62.593 62.593 0 0 0-.662 8.937 59.846 59.846 0 0 0 .662 8.932 1.344 1.344 0 0 1-2.66.389 62.471 62.471 0 0 1-.683-9.321 65.243 65.243 0 0 1 .683-9.316 1.344 1.344 0 0 1 1.519-1.14z"/></svg>