<svg id="Layer_1" data-name="Layer 1" xmlns="http://www.w3.org/2000/svg" viewBox="0 0 128 128"><title>Artboard 8</title><path d="M26.32,94.9a39.261,39.261,0,0,1,.719-7.349,1.482,1.482,0,1,0-2.912-.557,42.222,42.222,0,0,0-.766,7.905,40.429,40.429,0,0,0,.766,7.911,1.483,1.483,0,0,0,2.912-.568A37.55,37.55,0,0,1,26.32,94.9Z" style="fill:#231f20"/><path d="M61.938,68.459a1.477,1.477,0,0,0,.243.1,4.919,4.919,0,0,0,6.317-2.6l.016-.036a4.9,4.9,0,0,0,.045-3.757h0A4.907,4.907,0,0,0,65.967,59.5l-.036-.016a4.919,4.919,0,0,0-6.394,2.457,1.514,1.514,0,0,0-.1.243,4.919,4.919,0,0,0,2.506,6.277Zm.269-5.234,0-.005a1.935,1.935,0,0,1,1.061-1.034,1.957,1.957,0,0,1,1.5.022h0A1.935,1.935,0,0,1,65.81,63.27l0,0h0a1.949,1.949,0,0,1-.021,1.494h0a1.944,1.944,0,0,1-2.564,1.017l0,0a1.937,1.937,0,0,1-1.034-1.061A1.957,1.957,0,0,1,62.207,63.225Z" style="fill:#231f20"/><path d="M20.168,92.517a69.04,69.04,0,0,1,.731-9.861,1.482,1.482,0,0,0-2.935-.417,71.975,71.975,0,0,0-.754,10.278,68.958,68.958,0,0,0,.754,10.284,1.483,1.483,0,0,0,2.935-.429A66.03,66.03,0,0,1,20.168,92.517Z" style="fill:#231f20"/><path d="M49.968,77.739c-3.346,2.641-9.339,3.97-18.62,2.87-4.989-.592-6.813-5.792-8.082-9.41-.763-2.177-1.378-3.928-2.617-4.783-1.728-1.193-3.464-.716-5.6,2.375-3.211,4.651-5.326,16.484-5.217,26.264a41.306,41.306,0,0,0,1.139,9.98c.016.059.035.117.055.173.868,3.077,2.293,5.287,4.384,6.076a4.973,4.973,0,0,0,3.181.1c7.344-2.076,18.075-.9,29.679.371,20.566,2.253,43.776,4.8,58.252-9.359,5.813-5.684,9.575-14.307,11-23.958a63.76,63.76,0,0,0-2.868-29.88,51.51,51.51,0,0,0-13.017-20.42A49.33,49.33,0,0,0,51.349,17.242a51,51,0,0,0-20.092,13.08C23.543,38.4,23.18,42.71,26.773,46.14c1.89,1.8,4.894,3.075,8.472,4.588.67.284,1.353.572,2.336,1,7.325,3.188,12.66,8.83,14.736,14.4a12.328,12.328,0,0,1,.75,6.581A8.286,8.286,0,0,1,49.968,77.739ZM56.015,64.75C53.6,58.262,47.487,51.734,39.159,48.109c-.633-.276-1.53-.655-2.383-1.016-3.206-1.356-5.9-2.495-7.281-3.815-1.741-1.662-1-4.344,4.623-10.233A47.045,47.045,0,0,1,52.648,20.969,45.422,45.422,0,0,1,98.917,30.995a47.555,47.555,0,0,1,12.012,18.858,59.768,59.768,0,0,1,2.682,28.008c-1.3,8.829-4.671,16.645-9.84,21.7-13.147,12.855-35.38,10.42-55.082,8.261-12-1.314-23.09-2.529-31.164-.247a1.157,1.157,0,0,1-.722.013c-.79-.3-1.449-1.563-1.976-3.434-.01-.052-.021-.1-.035-.155a37.24,37.24,0,0,1-1.016-8.974c-.1-9.119,1.731-19.949,4.522-23.991.493-.715-.258-1.622.108-1.37A14.479,14.479,0,0,1,19.538,72.5c1.606,4.579,3.914,11.158,11.345,12.039,10.427,1.237,17.4-.449,21.529-3.7a12.15,12.15,0,0,0,4.539-7.383A16.228,16.228,0,0,0,56.015,64.75Z" style="fill:#231f20"/></svg>