<svg id="Layer_1" data-name="Layer 1" xmlns="http://www.w3.org/2000/svg" viewBox="0 0 128 128"><title>Artboard 2</title><path d="M52.969,34.733a42.74,42.74,0,0,1,5.684,2.078,7.731,7.731,0,0,1,4.76,6.966,7.858,7.858,0,0,1-.7,3.314,8.107,8.107,0,0,1-2,2.722,37.925,37.925,0,0,1,6.961,8.458,28.366,28.366,0,0,1,3.837,11.048c.679,5.5-.153,9.126-1.7,11.7l-.05.076a15.209,15.209,0,0,1-5.915,5.212c-2.937,1.675-4.627,3.484-5.329,5.239a4.906,4.906,0,0,0-.1,3.486A7.2,7.2,0,0,0,60.764,98.2a15.209,15.209,0,0,0,9.364,3,52.148,52.148,0,0,0,15.992-2.933,62.636,62.636,0,0,0,12.8-5.728,38.439,38.439,0,0,0,8.221-11.956A42.538,42.538,0,0,0,63.32,21.505c-2.045,1.663-11.125,9.059-14.252,11.85A31.637,31.637,0,0,0,52.969,34.733Zm17.8,60.387a4.235,4.235,0,0,1-2.325,2.27l-.083.03a4.239,4.239,0,0,1-5.432-2.395l-.031-.083a4.239,4.239,0,0,1,2.395-5.432l.083-.03A4.24,4.24,0,0,1,70.8,91.875l.03.084A4.22,4.22,0,0,1,70.766,95.12Z"/><path d="M22.222,34.671a111.038,111.038,0,0,1,13.032,2.691c3.616,1.082,6.887,3.367,10.165,5.657A42.262,42.262,0,0,0,53.3,47.74a4.681,4.681,0,0,0,5.028-.6,4.479,4.479,0,0,0,1.12-1.517A4.068,4.068,0,0,0,57.1,40.035,40.37,40.37,0,0,0,51.9,38.154c-2.613-.818-4.938-1.546-6.038-2.757-1.246-1.37-1.279-2.813.5-4.434,1.816-1.651,6.481-5.513,10.15-8.523-3.1.621-7,1.526-11.19,2.566-7.379,1.832-15.555,4.067-21.772,5.9C16.361,33.017,14.9,33.715,22.222,34.671Z"/><path d="M68.312,92.874a1.55,1.55,0,0,0-.829-.853,1.565,1.565,0,0,0-1.15-.037L66.289,92a1.55,1.55,0,0,0-.854.83,1.566,1.566,0,0,0-.037,1.149l.019.045a1.562,1.562,0,0,0,1.979.89l.045-.019a1.562,1.562,0,0,0,.89-1.979Z"/><path d="M29.013,65.854a81.016,81.016,0,0,0-.842,20.866,8.911,8.911,0,0,0,.661,2.687l16.1-35.832c-2.309-1.22-4.594-2.188-6.653-3.059-1.525-.645-2.933-1.241-4.176-1.861a69.174,69.174,0,0,0-5.087,17.156Z"/><path d="M30.426,91.848a9.827,9.827,0,0,0,1.117,1.024L48.238,55.513q-.6-.4-1.215-.763Z"/><path d="M62.519,83.975A12.857,12.857,0,0,0,67.468,79.7l.037-.066c1.265-2.1,1.93-5.169,1.336-9.988a25.716,25.716,0,0,0-3.479-10.007,35.746,35.746,0,0,0-7.039-8.367,8.518,8.518,0,0,1-6.355-.208,44.959,44.959,0,0,1-8.6-5.114c-3.03-2.116-6.053-4.227-9.142-5.152q-.734-.22-1.51-.422c-.871,2.051-.109,3.269,1.564,4.3a42.879,42.879,0,0,0,5.387,2.544,57.344,57.344,0,0,1,12.28,6.52C58.909,58.894,62.294,64.73,63.125,69.6a13.221,13.221,0,0,1,.009,4.657A9.349,9.349,0,0,1,61.5,78.122a7.521,7.521,0,0,1-4.868,2.995c-2.96.505-5.3,3.009-6.557,6.25a15.229,15.229,0,0,0-.987,6.2,13.61,13.61,0,0,0,1.777,6.171c2.081,3.584,6.145,6.395,12.795,6.926,7.564.6,16.946-1.7,25.3-6.534q-.989.356-2,.69a54.751,54.751,0,0,1-16.854,3.059,17.922,17.922,0,0,1-11.036-3.6,9.862,9.862,0,0,1-3.206-4.375,7.539,7.539,0,0,1,.157-5.358C56.938,88.259,59.006,85.977,62.519,83.975Z"/><path d="M56.03,77.584a4.008,4.008,0,0,0,2.6-1.592,5.788,5.788,0,0,0,.989-2.392,9.671,9.671,0,0,0-.023-3.395c-.6-3.521-2.882-7.708-7.431-11.7L35.753,95.092A35.775,35.775,0,0,0,45.926,96.8a18.077,18.077,0,0,1-.412-3.059,18.813,18.813,0,0,1,1.226-7.662C48.429,81.713,51.736,78.317,56.03,77.584Z"/></svg>