<svg id="Layer_1" data-name="Layer 1" xmlns="http://www.w3.org/2000/svg" viewBox="0 0 128 128"><title>Artboard 6</title><path d="M64,72.626A11.024,11.024,0,0,0,53.011,83.614v5.3H74.988v-5.3A11.023,11.023,0,0,0,64,72.626Z"/><path d="M59.3,19.185A1.814,1.814,0,0,0,57.5,20.992V50.646a6.5,6.5,0,0,0,13,0V20.992A1.814,1.814,0,0,0,68.7,19.185Z"/><path d="M109.659,89.227a7.965,7.965,0,0,0,.172-3.778,4.323,4.323,0,0,0-1.2-2.275,2.46,2.46,0,0,0-1.206-.622v5.726l0,.055,0,.056,0,.055,0,.055,0,.055,0,.055-.006.055-.007.054-.007.054-.008.054-.009.054-.009.054-.01.053-.011.053-.011.053-.012.053-.013.052-.013.052-.014.052-.014.051-.015.051-.016.051-.016.051-.017.05-.018.05-.018.05-.019.05-.019.05-.02.049-.02.048-.021.049-.022.048-.022.048-.023.048-.023.047-.024.047-.024.046-.025.046-.026.046-.025.046-.027.045-.027.045-.027.044-.028.044-.029.044-.029.044-.03.043-.03.042-.031.042-.031.042-.032.042-.032.041-.033.041-.033.04-.034.04-.034.039-.034.039-.035.039-.035.038-.036.038-.036.037-.037.037-.037.037-.038.036-.038.036-.077.07-.04.035-.079.067-.081.066-.041.032-.042.031-.042.031-.042.03-.043.03-.043.03-.043.029-.088.056-.18.107-.046.025-.046.025-.047.024-.047.024-.047.023-.1.045-.048.022-.048.021-.049.021-.049.02-.049.019-.05.018-.05.018-.05.017-.051.017-.051.016-.051.016-.1.029-.052.014-.052.013-.1.025-.053.011-.053.011-.107.019-.054.009-.054.008-.054.007-.054.007-.055.006-.055.005-.055,0-.055,0-.055,0-.056,0-.055,0H24.8l-.055,0-.056,0-.055,0-.055,0-.055,0-.164-.018a4.351,4.351,0,0,1-3.752-3.756l-.007-.054-.011-.108,0-.055,0-.055,0-.055,0-.055,0-.055V82.552a2.456,2.456,0,0,0-1.207.622,4.322,4.322,0,0,0-1.2,2.275,7.964,7.964,0,0,0,.172,3.778c.91,3.359,3.784,7.316,9.771,10.869,9.792,5.812,22.826,8.718,35.888,8.718s26.1-2.906,35.888-8.718C105.875,96.543,108.75,92.586,109.659,89.227Z"/><path d="M24.161,80.94v7.275l0,.029v.009a.757.757,0,0,0,.659.657h.009l.028,0H50.319v-5.3a13.681,13.681,0,0,1,27.361,0v5.3h25.532l.009,0,.009,0,.009,0,.009,0,.009,0,.009,0,.009,0,.009,0,.009,0,.009,0,.009,0,.009,0,.009,0,.009,0,.009,0,.009,0,.017-.007.008,0,.008,0,.009,0,.008,0,.016-.008.008,0,.008,0,.008,0,.016-.009.008,0,.015-.009.015-.01.008-.005.007,0,.008-.006.008,0,.014-.011.007-.006.007-.006.007-.006.007-.006.007-.006.007-.006.007-.006.007-.006.006-.006.007-.006.007-.006.006-.007.006-.007.006-.007.006-.006.006-.007.006-.007.006-.007.006-.007.006-.007.006-.007.006-.007.006-.007.005-.007.005-.007.005-.007.005-.007,0-.007.005-.008,0-.008,0-.007,0-.008,0-.008,0-.008,0-.008,0-.008,0-.008,0-.008,0-.008,0-.008,0-.008,0-.009,0-.008,0-.009,0-.008,0-.009,0-.009,0-.009,0-.009,0-.009,0-.009,0-.009,0-.009,0-.009,0-.009,0-.009,0-.009,0-.009,0-.009,0-.009,0-.009,0-.009,0-.009V88.27l0-.009v-21.5A40.018,40.018,0,0,0,73.194,28V50.646a9.194,9.194,0,0,1-18.388,0V28a40.019,40.019,0,0,0-30.644,38.76Z"/></svg>