<svg id="Layer_1" data-name="Layer 1" xmlns="http://www.w3.org/2000/svg" viewBox="0 0 128 128"><title>Artboard 4</title><path d="M91.214,79.86a1.754,1.754,0,0,0,.942.964,1.775,1.775,0,0,0,1.361.02,1.753,1.753,0,0,0,.963-.942,1.775,1.775,0,0,0,.02-1.36,1.755,1.755,0,0,0-.942-.964,1.774,1.774,0,0,0-1.361-.02,1.754,1.754,0,0,0-.964.942,1.778,1.778,0,0,0-.021,1.355Z"/><path d="M73.843,107.11,91.092,90.489a34.866,34.866,0,0,1-3.749-.68l-14.3,13.651a1.343,1.343,0,0,1-2.173-.475L55.686,68.4a10.651,10.651,0,0,1-3.36.337L68.145,105.9C69.269,109.19,71.134,109.723,73.843,107.11Z"/><path d="M19.663,57.043a3.586,3.586,0,0,0,.549.228,12.462,12.462,0,0,0,8.231.177c3.031-.809,5.626-1.5,10.781,1.948a40.133,40.133,0,0,0,10.021,5.152l0-.007c2.847.863,5.384.919,7.171-.4a17.533,17.533,0,0,1,11.259-3.413,13.975,13.975,0,0,1,5.415,1.406,12.389,12.389,0,0,1,4.457,3.747c2.083,2.812,3.283,6.811,2.963,12.164-.411,6.874,6.893,8.753,14.307,9.2,3.455.206,6.927.108,9.789.027l1.593-.043,3.342-31.289a28.623,28.623,0,0,0-4.177-18.1,36.122,36.122,0,0,0-15.192-13.5,53.382,53.382,0,0,0-39.386-2.478A51.536,51.536,0,0,0,20.749,46.615a26.707,26.707,0,0,0-1.773,4.066,9.813,9.813,0,0,0-.617,4.395A2.532,2.532,0,0,0,19.663,57.043Zm69.1,20.405.014-.032A4.451,4.451,0,1,1,91.1,83.294l-.032-.014a4.453,4.453,0,0,1-2.309-5.831ZM47.552,56l.014-.032a4.451,4.451,0,1,1,2.328,5.878l-.032-.014A4.453,4.453,0,0,1,47.552,56Z"/><path d="M50,58.409a1.768,1.768,0,0,0,3.266.042,1.776,1.776,0,0,0,.02-1.361,1.756,1.756,0,0,0-.942-.963,1.775,1.775,0,0,0-1.361-.02,1.756,1.756,0,0,0-.963.943A1.776,1.776,0,0,0,50,58.4Z"/></svg>