<svg xmlns="http://www.w3.org/2000/svg" data-name="Layer 1" viewBox="0 0 128 128"><path d="M111.082 45.113h-2a30.9 30.9 0 00-7.8-17.18 27.863 27.863 0 00-7.021-5.557 44.149 44.149 0 00-60.525 0 27.863 27.863 0 00-7.021 5.557 30.9 30.9 0 00-7.8 17.18h-2a6.818 6.818 0 00-6.8 6.8v15.033a6.818 6.818 0 006.8 6.8h1.675l-.008 2.216h-.008v.028h.008c0 5.182 4.711 15.635 12.37 24.672 7.687 9.07 18.4 16.9 30.436 16.944h.1v.008h5.032v-.008h.1c12.035-.045 22.75-7.874 30.436-16.944 7.663-9.043 12.378-19.5 12.378-24.672v-.028h-.008l-.008-2.216h1.672a6.819 6.819 0 006.8-6.8V51.915a6.818 6.818 0 00-6.8-6.8zm-92.4 3.781L18.6 70.778h-1.683a3.846 3.846 0 01-3.832-3.832V51.915a3.846 3.846 0 013.832-3.832H18.7q-.016.404-.018.811zm29.6-32.445a41.171 41.171 0 0137.258 2.97 25.339 25.339 0 00-3.664-.266H46.121a25.338 25.338 0 00-3.664.266 40.978 40.978 0 015.829-2.97zm57.18 59.516v.028c0 4.437-4.355 13.766-11.434 22.12-7.056 8.326-16.76 15.513-27.42 15.552h-.1v-.008h-5.024v.008h-.1c-10.661-.039-20.364-7.226-27.42-15.552-7.084-8.359-11.441-17.688-11.441-22.12h.008v-.028h-.008l.1-27.071a27.173 27.173 0 017-18.284 22.369 22.369 0 0116.5-7.5h35.756a22.369 22.369 0 0116.5 7.5 27.173 27.173 0 017 18.284l.1 27.071zm9.448-9.018a3.846 3.846 0 01-3.832 3.832H109.4l-.081-21.884q0-.406-.014-.81h1.778a3.846 3.846 0 013.832 3.832z"/><path d="M93.748 43.579a7.1 7.1 0 00-5.026-2.091H39.278a7.1 7.1 0 00-5.026 2.091l-.008.007a7.1 7.1 0 00-2.091 5.026v2.862c0 9.734 4.727 15.31 9.824 18.494a29.321 29.321 0 0011.735 4.008 2.376 2.376 0 011.457 1.068 4.7 4.7 0 01.957 2.615 4.917 4.917 0 01-.964 2.618 2.28 2.28 0 01-1.31 1.053 17.454 17.454 0 00-6.938 2.431A12.426 12.426 0 0041 94.92v1.62a4.879 4.879 0 001.44 3.453 4.879 4.879 0 003.457 1.436H82.11A4.879 4.879 0 0085.567 100c.046-.046.088-.093.129-.142A4.874 4.874 0 0087 96.54v-1.62a12.429 12.429 0 00-6.156-11.32 17.529 17.529 0 00-6.83-2.285c-.34-.034-.767-.458-1.161-1.023a5.144 5.144 0 01-.979-2.637 4.689 4.689 0 01.956-2.614 2.383 2.383 0 011.461-1.07 29.448 29.448 0 0011.736-4.043c5.1-3.191 9.82-8.764 9.82-18.459v-2.857a7.1 7.1 0 00-2.091-5.026zm-1.862 7.895c0 7.986-3.824 12.535-7.947 15.118a25.269 25.269 0 01-10.066 3.455 6.2 6.2 0 00-4.215 2.648 8.831 8.831 0 00-1.745 4.965 9.354 9.354 0 001.706 4.9 5.807 5.807 0 004.007 2.693 13.266 13.266 0 015.174 1.739 8.667 8.667 0 014.24 7.928v1.62a.931.931 0 01-.214.6l-.061.058a.93.93 0 01-.657.275H45.89a.93.93 0 01-.657-.275.925.925 0 01-.268-.657V94.92a8.661 8.661 0 014.06-7.817A13.31 13.31 0 0154.3 85.26a6.038 6.038 0 004.079-2.693 9.073 9.073 0 001.707-4.908 8.838 8.838 0 00-1.747-4.966 6.176 6.176 0 00-4.21-2.645 25.15 25.15 0 01-10.064-3.436c-4.126-2.577-7.952-7.126-7.952-15.137v-2.863a3.164 3.164 0 013.164-3.164h49.445a3.164 3.164 0 013.164 3.164z"/></svg>