<svg id="Layer_1" data-name="Layer 1" xmlns="http://www.w3.org/2000/svg" viewBox="0 0 128 128"><title>Artboard 14</title><path d="M118.219,44.68c-4.554-10.121-12.344-18.938-23.366-23.668-11.647-5-23.9-4.656-34.565-1.509C47.252,23.35,36.516,31.463,32.12,39.166L6.134,50.9a1.977,1.977,0,0,0,.642,3.772L18,56.419a1.967,1.967,0,0,0,.634,0v0l14.421-2.486c.181.172.37.338.565.5q.184.151.383.3c-2.207,3.85-6.723,14.058-3.889,29.575L26.61,80.946a1.975,1.975,0,0,0-3.225.747c-.448,1.1-5.785,14.579-1.642,22.739,4.95,9.746,17.173,6.121,26.239,3.432,1.9-.562,3.645-1.081,5.032-1.387a198.85,198.85,0,0,1,36.424-4.447c7.129-.329,12.223-.565,15.909-2.223,6.636-2.986,11.4-8.456,14.308-15.226A45.423,45.423,0,0,0,123,65.175,55.143,55.143,0,0,0,118.219,44.68ZM36.558,56.229c3.155,1.307,6.389.641,10.017-.106,5.887-1.212,13.018-2.681,21.812,6.217a22.963,22.963,0,0,1,4.605,6.1,4.659,4.659,0,0,1,.555,2.441,1.314,1.314,0,0,1-.634.954,4.2,4.2,0,0,1-1.538.519c-5.232.894-16.929,5.94-28.611,10.98-3.02,1.3-6.039,2.606-9,3.86C29.681,70.546,34.428,59.908,36.558,56.229Zm79.463,26.805C113.5,88.916,109.4,93.65,103.724,96.2c-3.01,1.354-7.781,1.575-14.455,1.883a202.343,202.343,0,0,0-37.1,4.539c-1.593.353-3.368.879-5.295,1.45-7.727,2.292-18.144,5.381-21.6-1.421-2.476-4.876-.544-12.642.794-16.76l5.357,5.136a1.981,1.981,0,0,0,2.236.5c3.346-1.4,7.007-2.984,10.669-4.564C55.8,82.017,67.286,77.061,72.04,76.249a8.034,8.034,0,0,0,2.992-1.091,5.114,5.114,0,0,0,2.429-3.738,8.412,8.412,0,0,0-.88-4.622A26.7,26.7,0,0,0,71.2,59.571C60.9,49.144,52.62,50.849,45.786,52.256c-3.324.685-6.239,1.285-8.482-.05a9.293,9.293,0,0,1-1.16-.821,7.625,7.625,0,0,1-.833-.8,1.978,1.978,0,0,0-1.892-.733L18.272,52.469l-4.467-.695L34.343,42.5h0a1.967,1.967,0,0,0,.936-.881C39.006,34.564,49.038,26.941,61.4,23.293c9.875-2.914,21.192-3.242,31.9,1.355,10.023,4.3,17.131,12.372,21.309,21.657a51.146,51.146,0,0,1,4.438,19.01A41.492,41.492,0,0,1,116.021,83.034Z" style="fill:#231f20"/><path d="M36.286,96.683a1.482,1.482,0,1,0-2.912-.557,10.922,10.922,0,0,0,0,4.212,1.483,1.483,0,1,0,2.912-.569A8.006,8.006,0,0,1,36.286,96.683Z" style="fill:#231f20"/><path d="M30.563,98.173a15.421,15.421,0,0,1,.166-2.2,1.482,1.482,0,0,0-2.935-.418,18.326,18.326,0,0,0-.189,2.618,17.614,17.614,0,0,0,.189,2.624,1.483,1.483,0,0,0,2.935-.429A14.785,14.785,0,0,1,30.563,98.173Z" style="fill:#231f20"/><path d="M83.789,51.8a5.222,5.222,0,0,0-6.679-2.669,1.468,1.468,0,0,0-.238.1,5.223,5.223,0,0,0-2.622,6.795l0,.006h0a5.227,5.227,0,0,0,6.85,2.737l.01,0a5.223,5.223,0,0,0,2.781-6.73A1.476,1.476,0,0,0,83.789,51.8Zm-2.647,3.016a2.24,2.24,0,0,1-1.2,1.229h0a2.246,2.246,0,0,1-2.964-1.183h0a2.249,2.249,0,0,1,1.175-2.957l0,0a2.248,2.248,0,0,1,2.961,1.173l0,0A2.262,2.262,0,0,1,81.141,54.816Z" style="fill:#231f20"/></svg>