<svg xmlns="http://www.w3.org/2000/svg" data-name="Layer 1" viewBox="0 0 128 128"><path d="M67.042 55.168a12.72 12.72 0 1 0-21.715-8.995 12.722 12.722 0 0 0 21.715 8.995zm-8.995-19.557a10.562 10.562 0 1 1-10.562 10.562 10.573 10.573 0 0 1 10.562-10.562z"/><path d="M89.52 90.953H113.101V99.781H89.52z" transform="rotate(-47.427 101.31 95.366)"/><path d="M103.887 82.067a3.708 3.708 0 0 0-4.131 1L88.871 94.916a3.725 3.725 0 0 0-.595 4.144z"/><path d="M84.928 82.223H94.684V87.372H84.928z" transform="rotate(-47.424 89.806 84.798)"/><path d="m74.933 87.145 2.367 2.026a.343.343 0 0 0 .237-.113l15.478-16.852-.023-.492-2.106-1.935-10.248 11.157zM48.182 82.351c4.1 6.995 12.4 10.622 19.518 6.452l3.384-2.764 17.239-18.764c-13.643-14.9-11.563-35.907-24.6-43.033-7.048-3.857-16.623-4.21-25.423-1.584-15.417 4.6-26.419 17.385-21.759 34.818 18.472 3.948 22.425 9.144 31.641 24.875zm9.865-51.59a15.412 15.412 0 1 1-15.412 15.412 15.413 15.413 0 0 1 15.412-15.412z"/><path d="M63.612 51.738a7.87 7.87 0 1 0-13.435-5.565 7.871 7.871 0 0 0 13.435 5.565z"/></svg>