<svg id="Layer_1" data-name="Layer 1" xmlns="http://www.w3.org/2000/svg" viewBox="0 0 128 128"><title>Artboard 3</title><path d="M94.9,17.421A55.334,55.334,0,0,0,33.064,30.058c-7.756,8.125-8.209,12.274-4.808,15.52,1.7,1.627,4.356,2.732,7.512,4.046a60,60,0,0,1,8.923,4.348c-2.577,8.778-6.07,20.557-9.06,30.223l-1.506-.424c-4.1-1.158-8.379-2.365-12.706-3.19-.051-.012-.1-.022-.154-.029a54.015,54.015,0,0,0-8.864-.993c-2.519-.052-4.163.405-5.313,1.283A6.12,6.12,0,0,0,4.947,84.62c-.134.581-.32,1.316-.519,2.1A54.893,54.893,0,0,0,2.81,94.91c-.481,5.2.638,9.8,6.626,10.35a84.5,84.5,0,0,0,9.027.215l.067,0q.581-.013,1.156-.03a79.8,79.8,0,0,0,10.661-.84c.672-.183,2.045-3.261,3.781-7.96a74.281,74.281,0,0,0,9.726.5c.269,7.967,4.275,14.606,16.593,17.334,7.058,1.564,12.819-.248,18.672-2.088,5.472-1.721,11.033-3.47,17.6-2.092,7.464,1.567,14.005-1.915,18.959-8.431A47.328,47.328,0,0,0,123.487,84.3,69.3,69.3,0,0,0,125.007,62.3C123.37,44.142,114.473,25.822,94.9,17.421ZM37.284,45.975c-2.788-1.161-5.132-2.137-6.305-3.258-1.27-1.213-.926-3.152,2.395-7.108.736.322,1.533.667,2.341,1.017C39.69,38.35,44,40.219,48.073,42.384c-.418,1.443-1.206,4.156-2.23,7.657A68.908,68.908,0,0,0,37.284,45.975ZM9.7,102.313c-2.9-.268-3.9-2.345-4.012-5.006.9-3.26,5.088-3.645,10.874-3.071a31.844,31.844,0,0,0,.1,8.3C14.175,102.56,11.722,102.5,9.7,102.313ZM16.981,91.3c-4.456-.451-8.212-.4-10.788.932.319-1.656.738-3.313,1.111-4.788.188-.744.366-1.445.531-2.16A3.493,3.493,0,0,1,8.886,83.2a5.586,5.586,0,0,1,3.457-.679,48.041,48.041,0,0,1,6.724.656A55.255,55.255,0,0,0,16.981,91.3ZM29.57,101.749a79.543,79.543,0,0,1-9.911.734,28.194,28.194,0,0,1-.166-7.9c1.68.223,3.455.494,5.294.774,2.247.342,4.58.7,6.953,1C30.626,99.641,29.837,101.677,29.57,101.749Zm3.124-8.266c-2.55-.312-5.06-.694-7.467-1.061-1.834-.28-3.611-.55-5.313-.777a51.906,51.906,0,0,1,2.1-7.924c3.827.792,7.64,1.868,11.311,2.9l1.426.4C34.015,89.379,33.321,91.56,32.694,93.483Zm11.223.643a67.038,67.038,0,0,1-8.749-.367c.657-1.862,1.351-3.895,2.068-6.043,2.53.689,4.975,1.3,7.3,1.739A41.225,41.225,0,0,0,43.917,94.126ZM38.168,84.9c3.108-9.491,6.5-20.633,9.055-29.176a26.96,26.96,0,0,1,3.76,3.476c2.133,2.4-.031,8.91-2.5,16.336-1.177,3.543-2.419,7.278-3.316,11C42.956,86.137,40.609,85.556,38.168,84.9Zm24.941-5.4a5.591,5.591,0,0,1,3.348-10.61l.082.018a5.677,5.677,0,0,1,.988.32l0,0a5.585,5.585,0,0,1,2.922,7.342l0,.005A5.563,5.563,0,0,1,67.4,79.552c-.042.014-.084.03-.125.048A5.583,5.583,0,0,1,63.109,79.5Zm2.14,3.419c-3.973,7.041-10.263,9.984-17.313,10.9a34.755,34.755,0,0,1,.515-3.8c6.424.564,11.661-.971,14.864-7.332A8.481,8.481,0,0,0,65.249,82.914Zm.286-17.107A8.556,8.556,0,0,0,60.592,81.49c-2.42,4.522-6.458,5.809-11.481,5.523.853-3.432,2.013-6.923,3.117-10.243,2.852-8.581,5.353-16.109,1.71-20.2a31.53,31.53,0,0,0-5.515-4.877c1.013-3.418,1.815-6.16,2.3-7.831C59.507,48.983,66.521,55.741,65.535,65.808Zm54.1,17.584a43.423,43.423,0,0,1-7.1,16.093c-4.031,5.3-9.226,8.161-15.015,6.946-7.576-1.59-13.625.312-19.577,2.184-5.358,1.685-10.632,3.343-16.645,2.011-9.732-2.156-13.054-7.4-13.4-13.747,8.729-.98,16.567-4.762,21.091-14.794a8.527,8.527,0,0,0,4.144-4.24,1.491,1.491,0,0,0,.1-.223A8.559,8.559,0,0,0,68.8,66.549a1.468,1.468,0,0,0-.223-.1l-.126-.051C70.5,48.494,51.568,40.278,36.887,33.912l-1.439-.625q.233-.249.479-.506A51.368,51.368,0,0,1,93.35,21.056c18.011,7.729,26.208,24.717,27.728,41.583A65.344,65.344,0,0,1,119.635,83.392Z" style="fill:#231f20"/></svg>