<svg id="Layer_1" data-name="Layer 1" xmlns="http://www.w3.org/2000/svg" viewBox="0 0 128 128"><title>Artboard 15</title><path d="M116.152,57.222a5.876,5.876,0,0,0-4.16-1.733H108.4a44.432,44.432,0,0,0-88.808,0H16.008a5.876,5.876,0,0,0-4.16,1.733l0,0a5.876,5.876,0,0,0-1.73,4.162V78.741a5.874,5.874,0,0,0,1.73,4.162c.03.03.062.059.094.086a5.875,5.875,0,0,0,4.069,1.643H19.57V97.448a9.507,9.507,0,0,0-9.247,9.48v6.546a1.98,1.98,0,0,0,1.98,1.98H115.7a1.98,1.98,0,0,0,1.98-1.98v-6.546a9.508,9.508,0,0,0-9.247-9.48V84.633h3.562a5.874,5.874,0,0,0,4.069-1.643c.032-.027.064-.056.094-.086a5.875,5.875,0,0,0,1.73-4.162V61.382a5.877,5.877,0,0,0-1.73-4.162ZM23.53,56.975a40.47,40.47,0,0,1,80.939,0v40.47H23.53ZM16.008,81.663a2.91,2.91,0,0,1-2-.794c-.019-.022-.04-.044-.061-.065a2.914,2.914,0,0,1-.859-2.063V61.382a2.914,2.914,0,0,1,.859-2.063l0,0,0,0a2.91,2.91,0,0,1,2.063-.854H19.57v23.2Zm96.085,21.366a5.506,5.506,0,0,1,1.624,3.9v4.566H14.283v-4.566a5.543,5.543,0,0,1,5.523-5.523h88.388A5.506,5.506,0,0,1,112.093,103.029Zm2.821-24.288a2.914,2.914,0,0,1-.859,2.063c-.021.021-.042.043-.061.065a2.91,2.91,0,0,1-2,.794H108.43V58.46h3.562a2.91,2.91,0,0,1,2.063.854l0,0,0,0a2.914,2.914,0,0,1,.859,2.063Z" style="fill:#231f20"/><path d="M64,33.257a27.59,27.59,0,1,0,19.509,8.081A27.5,27.5,0,0,0,64,33.257Zm17.409,45A24.62,24.62,0,1,1,88.62,60.846,24.543,24.543,0,0,1,81.409,78.255Z" style="fill:#231f20"/><path d="M64,48.828a1.485,1.485,0,1,0,0,2.97,9.047,9.047,0,0,1,9.049,9.048,1.485,1.485,0,1,0,2.97,0A12.02,12.02,0,0,0,64,48.828Z" style="fill:#231f20"/><path d="M64,41.276a19.571,19.571,0,1,0,13.838,5.732A19.51,19.51,0,0,0,64,41.276ZM75.739,72.585A16.6,16.6,0,1,1,80.6,60.846,16.549,16.549,0,0,1,75.739,72.585Z" style="fill:#231f20"/></svg>