<svg id="Layer_1" data-name="Layer 1" xmlns="http://www.w3.org/2000/svg" viewBox="0 0 128 128"><title>Artboard 9</title><path d="M64.58,65.729l0,0a1.774,1.774,0,0,0,1.36.02,1.756,1.756,0,0,0,.964-.943,1.774,1.774,0,0,0,.021-1.355l0,0a1.753,1.753,0,0,0-.942-.963,1.768,1.768,0,1,0-1.406,3.244Z"/><path d="M36.853,51.514c8.336,1.508,17.528,4.387,19.911,13.72a17.156,17.156,0,0,1,.908,3.466A8.752,8.752,0,0,0,73.3,63.557c-.133-6.89-3.621-16.048-8.632-24.036a54.573,54.573,0,0,0-10.318-12.37c-3.59-3.06-7.274-4.966-10.647-4.99a8.209,8.209,0,0,0-4.5,1.279c-5.487,3.442-13.454,11.58-17.5,18.282a17.372,17.372,0,0,0-2.334,5.342c-.214,1.145-.081,2.017.52,2.468a4.227,4.227,0,0,0,2.492.582A89.205,89.205,0,0,1,36.853,51.514ZM61.148,62.462l.095-.221a4.457,4.457,0,0,1,5.8-2.227l.032.014a4.453,4.453,0,0,1,2.309,5.831l-.014.032a4.458,4.458,0,0,1-5.726,2.354l-.221-.095a4.458,4.458,0,0,1-2.271-5.689Z"/><path d="M19.4,100.808l.032.14c.477,1.7,1.074,2.842,1.791,3.113a1.049,1.049,0,0,0,.654-.012c7.318-2.068,17.373-.967,28.246.224,17.857,1.956,38.009,4.164,49.924-7.488,4.685-4.581,7.738-11.665,8.919-19.668a54.171,54.171,0,0,0-2.431-25.386A43.109,43.109,0,0,0,95.65,34.639a41.182,41.182,0,0,0-39.833-9.758l.274.231a57.256,57.256,0,0,1,10.844,12.98c5.144,8.2,8.755,17.66,9.03,24.984l.017.212,0,.283c0,.182,0,.364,0,.543a1.328,1.328,0,0,1-.067.416A11.437,11.437,0,0,1,57.72,72.457l-.108.663A11.011,11.011,0,0,1,53.5,79.811c-3.738,2.95-10.063,4.479-19.513,3.358-6.735-.8-8.828-6.762-10.283-10.912-3.329-9.489-5.237,19.04-5.222,20.417A33.765,33.765,0,0,0,19.4,100.808ZM27.862,85.4a1.343,1.343,0,0,1,2.639.5,35.565,35.565,0,0,0-.652,6.661,34.011,34.011,0,0,0,.652,6.655,1.345,1.345,0,0,1-2.639.516,36.638,36.638,0,0,1-.694-7.171A38.214,38.214,0,0,1,27.862,85.4Zm-5.586-4.309a1.343,1.343,0,0,1,2.66.378,62.636,62.636,0,0,0-.662,8.938,59.854,59.854,0,0,0,.662,8.932,1.344,1.344,0,1,1-2.66.389,62.465,62.465,0,0,1-.684-9.321A65.191,65.191,0,0,1,22.276,81.086Z"/></svg>