<svg xmlns="http://www.w3.org/2000/svg" data-name="Layer 1" viewBox="0 0 128 128"><path d="M19.215 35.54c2.638.437 5.5.911 8.269 1.482-1.6 3.929-.23 6.433 2.907 8.567A78.955 78.955 0 0 0 24.427 65.5l-.008.052a92.275 92.275 0 0 0-.953 23.781c.526 5.723 4.122 9.218 9.055 11.277 4.208 1.757 9.407 2.434 14.416 2.567a17.839 17.839 0 0 0 1.1 2.236c2.9 5 8.4 8.9 17.226 9.605 9.347.745 20.932-2.163 31.051-8.236 8.857-5.315 16.632-13.067 20.867-22.937A50.908 50.908 0 0 0 90.467 17a50.69 50.69 0 0 0-26.219-3.759c-3.074.017-10.959 1.692-19.847 3.9-11.767 2.922-25.458 6.8-31.867 8.927-4.763 1.581-6.346 3.3-5.712 5.207.778 2.341 5.994 3.206 12.393 4.265zM46.9 88.358a20.757 20.757 0 0 0-1.353 8.454 19.986 19.986 0 0 0 .453 3.374 37.028 37.028 0 0 1-12.344-2.313c-3.959-1.653-6.839-4.393-7.245-8.806a89.378 89.378 0 0 1 .929-23.021l.01-.046a76.345 76.345 0 0 1 5.613-18.928c1.371.683 2.925 1.341 4.608 2.053A59.926 59.926 0 0 1 50.3 55.853c6.757 5 10.012 10.491 10.781 14.993a10.671 10.671 0 0 1 .025 3.746 6.388 6.388 0 0 1-1.091 2.639 4.422 4.422 0 0 1-2.864 1.757c-4.739.812-8.387 4.555-10.251 9.37zm18.668 22.717c-7.336-.585-11.821-3.687-14.116-7.641a15.02 15.02 0 0 1-1.96-6.808 16.8 16.8 0 0 1 1.089-6.845c1.385-3.577 3.969-6.338 7.234-6.9a8.3 8.3 0 0 0 5.37-3.3 10.314 10.314 0 0 0 1.8-4.263 14.588 14.588 0 0 0-.01-5.137c-.917-5.375-4.652-11.814-12.328-17.5A63.253 63.253 0 0 0 39.1 45.489a47.329 47.329 0 0 1-5.943-2.807c-1.847-1.139-2.687-2.484-1.726-4.747q.854.224 1.666.466c3.408 1.02 6.744 3.35 10.087 5.684a49.577 49.577 0 0 0 9.484 5.642 9.4 9.4 0 0 0 7.011.23 39.421 39.421 0 0 1 7.766 9.231 28.363 28.363 0 0 1 3.839 11.04c.655 5.317-.078 8.7-1.474 11.02l-.041.073a14.183 14.183 0 0 1-5.461 4.717c-3.875 2.209-6.157 4.727-7.167 7.253a8.317 8.317 0 0 0-.174 5.912 10.882 10.882 0 0 0 3.537 4.827A19.771 19.771 0 0 0 72.682 108c5.8.056 12.471-1.357 18.6-3.375q1.117-.368 2.208-.762c-9.226 5.337-19.577 7.878-27.922 7.212zM65.332 17l-.14.114a46.7 46.7 0 0 1 23.725 3.519A46.941 46.941 0 0 1 113.543 82.3a42.409 42.409 0 0 1-9.07 13.188 69.092 69.092 0 0 1-14.124 6.32c-5.868 1.933-12.215 3.288-17.644 3.236a16.78 16.78 0 0 1-10.332-3.311 7.947 7.947 0 0 1-2.6-3.492 5.412 5.412 0 0 1 .116-3.847c.775-1.937 2.639-3.933 5.879-5.78a16.784 16.784 0 0 0 6.532-5.75 1.74 1.74 0 0 0 .055-.084c1.71-2.842 2.628-6.839 1.879-12.911A31.3 31.3 0 0 0 70 57.68a41.841 41.841 0 0 0-7.68-9.332 8.936 8.936 0 0 0 2.207-3 8.665 8.665 0 0 0 .77-3.657A8.529 8.529 0 0 0 60.044 34a47.209 47.209 0 0 0-6.271-2.292 34.944 34.944 0 0 1-4.306-1.52C53 27.042 63.388 18.583 65.332 17zM21.324 27.482a617.417 617.417 0 0 1 24.021-6.5c4.618-1.147 8.926-2.146 12.346-2.831-4.049 3.322-9.2 7.583-11.2 9.4-1.968 1.789-1.931 3.381-.556 4.892 1.214 1.336 3.779 2.139 6.662 3.041a44.53 44.53 0 0 1 5.73 2.076 4.488 4.488 0 0 1 2.594 6.16 4.945 4.945 0 0 1-1.235 1.673 5.165 5.165 0 0 1-5.547.667 46.6 46.6 0 0 1-8.7-5.209c-3.617-2.526-7.226-5.047-11.215-6.241a122.511 122.511 0 0 0-14.374-2.968c-8.079-1.055-6.466-1.825 1.474-4.16z"/><path d="M73.45 94.755a4.678 4.678 0 0 0-5.993-2.642c-.031.01-.061.021-.092.033a4.677 4.677 0 0 0-2.642 5.993c.01.031.021.062.034.092a4.678 4.678 0 0 0 5.993 2.642c.031-.01.061-.021.092-.033a4.678 4.678 0 0 0 2.642-5.993 1.015 1.015 0 0 0-.034-.092zm-2.769 2.421a1.713 1.713 0 0 1-.942.915l-.05.021a1.723 1.723 0 0 1-2.183-.982l-.021-.05a1.723 1.723 0 0 1 .982-2.183l.05-.021a1.724 1.724 0 0 1 2.184.982l.021.05a1.731 1.731 0 0 1-.04 1.267z"/></svg>