<svg id="Layer_1" data-name="Layer 1" xmlns="http://www.w3.org/2000/svg" viewBox="0 0 128 128"><title>Artboard 5</title><path d="M74.011,24.819A43.067,43.067,0,0,0,30.98,66.094h86.063A43.067,43.067,0,0,0,74.011,24.819Z"/><path d="M83.458,101.395,102.107,80h-4L81.99,97.582a1.344,1.344,0,0,1-2.171-.268L70.457,80.008H66.744l11.091,21.117C79.272,103.8,81.156,103.836,83.458,101.395Z"/><path d="M29.381,69.683c-8.619,2.521-13.292,3.888-15.839,4.9-6.371,2.536.518,1.865,3.056,1.865l100.49-.03V69.683H29.381Z"/></svg>