<svg xmlns="http://www.w3.org/2000/svg" data-name="Layer 1" viewBox="0 0 128 128"><path d="M116.152 57.222a5.876 5.876 0 0 0-4.16-1.733H108.4a44.432 44.432 0 0 0-88.808 0h-3.584a5.876 5.876 0 0 0-4.16 1.733 5.876 5.876 0 0 0-1.73 4.162v17.357a5.874 5.874 0 0 0 1.73 4.162c.03.03.062.059.094.086a5.875 5.875 0 0 0 4.069 1.643h3.559v12.816a9.507 9.507 0 0 0-9.247 9.48v6.546a1.98 1.98 0 0 0 1.98 1.98H115.7a1.98 1.98 0 0 0 1.98-1.98v-6.546a9.508 9.508 0 0 0-9.247-9.48V84.633h3.562a5.874 5.874 0 0 0 4.069-1.643c.032-.027.064-.056.094-.086a5.875 5.875 0 0 0 1.73-4.162v-17.36a5.877 5.877 0 0 0-1.73-4.162zm-92.622-.247a40.47 40.47 0 0 1 80.939 0v40.47H23.53zm-7.522 24.688a2.91 2.91 0 0 1-2-.794 1.237 1.237 0 0 0-.061-.065 2.914 2.914 0 0 1-.859-2.063V61.382a2.914 2.914 0 0 1 .859-2.063 2.91 2.91 0 0 1 2.063-.854h3.56v23.2zm96.085 21.366a5.506 5.506 0 0 1 1.624 3.9v4.566H14.283v-4.566a5.543 5.543 0 0 1 5.523-5.523h88.388a5.506 5.506 0 0 1 3.899 1.623zm2.821-24.288a2.914 2.914 0 0 1-.859 2.063 1.237 1.237 0 0 0-.061.065 2.91 2.91 0 0 1-2 .794h-3.564V58.46h3.562a2.91 2.91 0 0 1 2.063.854 2.914 2.914 0 0 1 .859 2.063z"/><path d="M64 33.257a27.59 27.59 0 1 0 19.509 8.081A27.5 27.5 0 0 0 64 33.257zm17.409 45a24.62 24.62 0 1 1 7.211-17.411 24.543 24.543 0 0 1-7.211 17.409z"/><path d="M64 48.828a1.485 1.485 0 1 0 0 2.97 9.047 9.047 0 0 1 9.049 9.048 1.485 1.485 0 1 0 2.97 0A12.02 12.02 0 0 0 64 48.828z"/><path d="M64 41.276a19.571 19.571 0 1 0 13.838 5.732A19.51 19.51 0 0 0 64 41.276zm11.739 31.309A16.6 16.6 0 1 1 80.6 60.846a16.549 16.549 0 0 1-4.861 11.739z"/></svg>