<svg id="Layer_1" data-name="Layer 1" xmlns="http://www.w3.org/2000/svg" viewBox="0 0 128 128"><title>CAMERA</title><path d="M103.523,46.653H48.346l3-7.5H76.653l1.686,4.214a1.25,1.25,0,1,0,2.32-.929l-2-5a1.249,1.249,0,0,0-1.16-.786h-27a1.25,1.25,0,0,0-1.161.786l-3.686,9.214H30.75v-2.5H39.5a1.25,1.25,0,0,0,0-2.5h-10a1.25,1.25,0,0,0-1.25,1.25v3.75H24.477a1.25,1.25,0,0,0-1.25,1.25V90.1a1.25,1.25,0,0,0,1.25,1.25h79.047a1.25,1.25,0,0,0,1.25-1.25V47.9A1.25,1.25,0,0,0,103.523,46.653Zm-1.25,42.193H25.727V49.153h76.547Z"/><path d="M92.25,60.4h6a1.25,1.25,0,0,0,1.25-1.25v-6a1.25,1.25,0,0,0-1.25-1.25h-6A1.25,1.25,0,0,0,91,53.153v6A1.25,1.25,0,0,0,92.25,60.4Zm1.25-6H97v3.5H93.5Z"/><path d="M54.439,59.525a1.244,1.244,0,0,0,.825-.312q.173-.152.35-.3a1.25,1.25,0,1,0-1.585-1.934q-.212.174-.417.354a1.25,1.25,0,0,0,.826,2.189Z"/><path d="M64,84.886a15.733,15.733,0,1,0-5.94-30.3A1.25,1.25,0,1,0,59,56.9,13.237,13.237,0,1,1,52.93,61.9a1.25,1.25,0,1,0-2.09-1.372A15.735,15.735,0,0,0,64,84.886Z"/></svg>