<svg xmlns="http://www.w3.org/2000/svg" data-name="Layer 1" viewBox="0 0 128 128"><path d="M64 23.227a21.205 21.205 0 0 0-7.073 1.206 1.25 1.25 0 0 0 .832 2.357A18.764 18.764 0 0 1 82.75 44.477v6.248A5.992 5.992 0 0 0 74 56.048a1.25 1.25 0 0 0 2.5 0 3.5 3.5 0 0 1 5.57-2.815c.235.175.455.361.68.544V86h-37.5V53.365a31.375 31.375 0 0 0 14.362-2.77 4.984 4.984 0 0 1 4.851.363 5.3 5.3 0 0 1 2.454 4.472v12.328a4.9 4.9 0 0 0 4.535 4.985c.087 0 .174.007.26.007a4.751 4.751 0 0 0 3.295-1.315 4.812 4.812 0 0 0 1.493-3.476V62a1.25 1.25 0 0 0-2.5 0v5.959a2.292 2.292 0 0 1-2.417 2.288 2.43 2.43 0 0 1-2.166-2.489V55.43a7.786 7.786 0 0 0-3.6-6.577 7.536 7.536 0 0 0-7.236-.534l-.1.047a28.836 28.836 0 0 1-13.224 2.5v-6.389a18.653 18.653 0 0 1 5.325-13.09 1.25 1.25 0 1 0-1.789-1.745 21.136 21.136 0 0 0-6.043 14.835v42.77A1.25 1.25 0 0 0 44 88.5h14.583v10.86a5.417 5.417 0 0 0 10.834 0v-7.027a1.25 1.25 0 0 0-2.5 0v7.024a2.917 2.917 0 0 1-5.834 0V88.5H84a1.25 1.25 0 0 0 1.25-1.25V44.477A21.274 21.274 0 0 0 64 23.227z"/><path d="M53.088 28.963a1.24 1.24 0 0 0 .681-.2l.388-.246a1.25 1.25 0 1 0-1.318-2.124q-.218.135-.433.275a1.25 1.25 0 0 0 .683 2.3z"/></svg>