<svg id="Layer_1" data-name="Layer 1" xmlns="http://www.w3.org/2000/svg" viewBox="0 0 128 128"><title>PARFUME</title><path d="M70.563,57h-.688a1.25,1.25,0,0,0,0,2.5h.688a1.25,1.25,0,0,0,0-2.5Z"/><path d="M86.964,57.419A1.25,1.25,0,0,0,86.031,57h-4.3V46.75a1.25,1.25,0,0,0-1.25-1.25H57.743V31.983a6.257,6.257,0,1,1,12.514,0V41.25a1.25,1.25,0,1,0,2.5,0V31.983a8.757,8.757,0,1,0-17.514,0V45.5H47.518a1.25,1.25,0,0,0-1.25,1.25v7a1.25,1.25,0,1,0,2.5,0V48H62.75v9H41.969a1.25,1.25,0,0,0-1.242,1.393l4.741,41.1c.347,3.009,3.437,5.277,7.19,5.277H75.342c3.752,0,6.843-2.268,7.19-5.277l4.741-41.1A1.248,1.248,0,0,0,86.964,57.419Zm-23.3,24.718h.677l1.529,8.113H62.132ZM80.048,99.209c-.2,1.719-2.265,3.064-4.706,3.064H52.658c-2.441,0-4.508-1.346-4.706-3.064L43.371,59.5H62.75V79.637h-.125A1.25,1.25,0,0,0,61.4,80.655l-2,10.613a1.25,1.25,0,0,0,1.229,1.481h6.75A1.25,1.25,0,0,0,68.6,91.269l-2-10.613a1.25,1.25,0,0,0-1.228-1.019H65.25V48H79.232v9H75.063a1.25,1.25,0,0,0,0,2.5h9.565Z"/></svg>