<svg xmlns="http://www.w3.org/2000/svg" data-name="Layer 1" viewBox="0 0 128 128"><path d="m103.427 92.629-11.164-13-28.878-33.643a1.25 1.25 0 0 0-1.9 1.629l4.43 5.16-2.279 29.98a1.25 1.25 0 0 0 2.493.189l2.092-27.486 5.984 6.97-2.53 33.223-3.627 3.113-15.083-17.57 2.688-35.307 6.947-5.963a1.25 1.25 0 0 0-.437-2.14L25.9 26.281a1.25 1.25 0 0 0-1.613 1.385l5.88 37.586a1.25 1.25 0 0 0 2.049.755l2.543-2.183 32.208 37.518a1.248 1.248 0 0 0 .853.432h.095a1.25 1.25 0 0 0 .814-.3L91.18 82.2l10.351 12.057a1.25 1.25 0 1 0 1.9-1.629zM50.662 78.511l-3.625-4.222-2.359-2.748L46 54.173l6.97-5.983zM27.068 29.274l32.2 10.214-26.979 23.16zm16.249 27.2-.943 12.382-5.719-6.656zm31.042 36.874 2.15-28.237L89.552 80.3z"/><path d="M64.453 89.765a1.251 1.251 0 0 0 1.247-1.156l.084-1.1a1.25 1.25 0 0 0-2.493-.189l-.084 1.1a1.249 1.249 0 0 0 1.151 1.341.978.978 0 0 0 .095.004z"/></svg>