<svg id="Layer_1" data-name="Layer 1" xmlns="http://www.w3.org/2000/svg" viewBox="0 0 128 128"><title>LIPSTICK</title><path d="M62.3,62.75h-3v-9a1.25,1.25,0,0,0-1.25-1.25H43.363V37.041l11.125-9.8V42a1.25,1.25,0,1,0,2.5,0V24.477a1.251,1.251,0,0,0-2.076-.939l-13.625,12a1.25,1.25,0,0,0-.424.938V52.5H39.8a1.25,1.25,0,0,0-1.25,1.25v5.125a1.25,1.25,0,1,0,2.5,0V55H56.8v7.75H35.551A1.25,1.25,0,0,0,34.3,64v39.523a1.25,1.25,0,0,0,1.25,1.25H62.3a1.25,1.25,0,0,0,1.25-1.25V64A1.25,1.25,0,0,0,62.3,62.75Zm-1.25,39.523H36.8V65.25h24.25Z"/><path d="M81.061,62.75A12.651,12.651,0,0,0,68.425,75.387v28.137a1.25,1.25,0,0,0,1.25,1.25H86.75a1.25,1.25,0,0,0,0-2.5H70.925V75.387a10.137,10.137,0,0,1,20.274,0v28.137a1.25,1.25,0,1,0,2.5,0V75.387A12.651,12.651,0,0,0,81.061,62.75Z"/><path d="M55.738,46a1.25,1.25,0,0,0-1.25,1.25v1a1.25,1.25,0,1,0,2.5,0v-1A1.25,1.25,0,0,0,55.738,46Z"/></svg>