<svg id="Layer_1" data-name="Layer 1" xmlns="http://www.w3.org/2000/svg" viewBox="0 0 128 128"><title>SWEET 17 CANDLE</title><path d="M91.791,51.926H80.05v-4.46A8.672,8.672,0,0,0,87.466,38.9c0-4.372-6.867-14.061-7.65-15.152a1.251,1.251,0,0,0-2.031,0C77,24.838,70.133,34.527,70.133,38.9a8.672,8.672,0,0,0,7.417,8.566v4.46H65.809a5,5,0,0,0-4.989,4.989v1.608a5,5,0,0,0,4.989,4.989h18.51a1.25,1.25,0,0,0,0-2.5H65.809a2.491,2.491,0,0,1-2.489-2.489V56.915a2.491,2.491,0,0,1,2.489-2.489H91.791a2.491,2.491,0,0,1,2.489,2.489v1.87a2.564,2.564,0,0,1-.707,1.721,58.288,58.288,0,0,0-7.559,10.859,69.811,69.811,0,0,0-6.647,16.5,68.073,68.073,0,0,0-2.123,12.07,2.465,2.465,0,0,1-2.444,2.334H72.9a2.522,2.522,0,0,1-1.86-.822,2.4,2.4,0,0,1-.631-1.862,66.616,66.616,0,0,1,4.062-17.215,73.11,73.11,0,0,1,6.744-13.6A1.251,1.251,0,1,0,79.1,67.429,75.718,75.718,0,0,0,72.128,81.5a69.15,69.15,0,0,0-4.211,17.861,4.947,4.947,0,0,0,1.273,3.777,5.029,5.029,0,0,0,3.708,1.638h1.9a4.943,4.943,0,0,0,4.937-4.648A65.694,65.694,0,0,1,81.784,88.5,67.35,67.35,0,0,1,88.193,72.59,55.933,55.933,0,0,1,95.412,62.2a5.046,5.046,0,0,0,1.368-3.413v-1.87A5,5,0,0,0,91.791,51.926ZM72.633,38.9c0-2.379,3.449-8.24,6.167-12.238,2.718,4,6.166,9.857,6.166,12.238a6.166,6.166,0,1,1-12.333,0Z"/><path d="M41.54,34.2a1.252,1.252,0,0,0,1.685-.538l.19-.36a1.219,1.219,0,0,0-.534-1.658,1.283,1.283,0,0,0-1.707.549L41,32.517A1.251,1.251,0,0,0,41.54,34.2Z"/><path d="M56.144,38.9c0-4.372-6.868-14.061-7.651-15.152a1.3,1.3,0,0,0-2.031,0c-.056.078-1.394,1.946-2.949,4.431A1.25,1.25,0,1,0,45.631,29.5c.689-1.1,1.342-2.088,1.85-2.839,2.718,4,6.163,9.854,6.163,12.233a6.167,6.167,0,1,1-12.333,0,5.09,5.09,0,0,1,.253-1.393,1.25,1.25,0,0,0-2.4-.707,7.512,7.512,0,0,0-.355,2.1,8.673,8.673,0,0,0,7.416,8.566v4.706a5.253,5.253,0,0,0-1.295,1.6,17.81,17.81,0,0,1-4.908,5.679,31.733,31.733,0,0,1-5.844,3.708,5.032,5.032,0,0,0-2.96,4.558v.712a4.933,4.933,0,0,0,2.407,4.262,5.022,5.022,0,0,0,4.976.126,34.512,34.512,0,0,0,5.256-3.438V99.784a5,5,0,0,0,4.989,4.989h2.306a5,5,0,0,0,4.989-4.989V56.01a5,5,0,0,0-4.989-4.989H49.383a4.846,4.846,0,0,0-.656.047v-3.6A8.672,8.672,0,0,0,56.144,38.9ZM51.154,53.521a2.492,2.492,0,0,1,2.489,2.489V99.784a2.492,2.492,0,0,1-2.489,2.489H48.849a2.491,2.491,0,0,1-2.489-2.489V66.65a1.25,1.25,0,0,0-2.1-.913,31.881,31.881,0,0,1-6.824,4.868,2.532,2.532,0,0,1-2.517-.06,2.421,2.421,0,0,1-1.2-2.119v-.712a2.554,2.554,0,0,1,1.526-2.3,34.3,34.3,0,0,0,6.314-4,20.288,20.288,0,0,0,5.582-6.485,2.563,2.563,0,0,1,2.24-1.416Z"/></svg>