<svg id="Layer_1" data-name="Layer 1" xmlns="http://www.w3.org/2000/svg" viewBox="0 0 128 128"><title>GIFT</title><path d="M100.99,40.368H79.445a9.216,9.216,0,0,0,2.946-6.75V32.477a9.26,9.26,0,0,0-9.25-9.25H72a9.248,9.248,0,0,0-8,4.627,9.248,9.248,0,0,0-8-4.627H54.859a9.26,9.26,0,0,0-9.25,9.25v1.141a9.216,9.216,0,0,0,2.946,6.75H27.01a1.25,1.25,0,0,0-1.25,1.25v8.3a1.25,1.25,0,0,0,1.25,1.25h4v52.353a1.25,1.25,0,0,0,1.25,1.25H95.738a1.25,1.25,0,0,0,1.25-1.25V55.5a1.25,1.25,0,1,0-2.5,0v46.773H68.866V42.868H99.74v5.8H72.57a1.25,1.25,0,0,0,0,2.5h28.42a1.25,1.25,0,0,0,1.25-1.25v-8.3A1.25,1.25,0,0,0,100.99,40.368ZM72,25.727h1.141a6.757,6.757,0,0,1,6.75,6.75v1.141a6.757,6.757,0,0,1-6.75,6.75H65.25V32.477A6.757,6.757,0,0,1,72,25.727ZM48.109,33.618V32.477a6.757,6.757,0,0,1,6.75-6.75H56a6.757,6.757,0,0,1,6.75,6.75v7.891H54.859A6.757,6.757,0,0,1,48.109,33.618ZM28.26,42.868H59.134v5.8H28.26Zm38.106,59.406H33.512V51.17H59.134V92.626a1.25,1.25,0,1,0,2.5,0V42.868h4.731Z"/><path d="M60.384,95.626a1.25,1.25,0,0,0-1.25,1.25v1.062a1.25,1.25,0,1,0,2.5,0V96.876A1.25,1.25,0,0,0,60.384,95.626Z"/></svg>