<svg id="Layer_1" data-name="Layer 1" xmlns="http://www.w3.org/2000/svg" viewBox="0 0 128 128"><title>BALLOONS</title><path d="M66.75,44.55c.119-.1.24-.194.361-.288a1.25,1.25,0,0,0-1.527-1.978q-.217.167-.428.341A1.25,1.25,0,1,0,66.75,44.55Z"/><path d="M85.5,92.348a11.387,11.387,0,0,1-6.713-6.724c10.655-.954,19.072-11.2,19.072-23.659C97.86,49,88.755,38.439,77.5,38.234,73.044,28.962,64.648,23.227,55.39,23.227c-13.923,0-25.25,13.012-25.25,29.006,0,15.61,10.79,28.372,24.252,28.977A16.784,16.784,0,0,0,64.659,92.331c7.652,3,8.512,10.973,8.544,11.308a1.251,1.251,0,0,0,1.244,1.135c.038,0,.077,0,.116,0a1.251,1.251,0,0,0,1.13-1.36c-.037-.4-1.009-9.832-10.122-13.405a14.332,14.332,0,0,1-8.585-8.843,22.165,22.165,0,0,0,2.741-.348,1.25,1.25,0,1,0-.488-2.451,19.781,19.781,0,0,1-3.85.378c-12.544,0-22.75-11.891-22.75-26.506S42.846,25.727,55.39,25.727c7.979,0,15.278,4.81,19.406,12.67a18.38,18.38,0,0,0-5.086,1.415A1.25,1.25,0,0,0,70.721,42.1a15.823,15.823,0,0,1,6.443-1.372c10.033,0,18.2,9.528,18.2,21.24S87.2,83.2,77.164,83.2s-18.2-9.528-18.2-21.239a23.349,23.349,0,0,1,4.591-14.1,1.249,1.249,0,0,0-1.988-1.514,25.849,25.849,0,0,0-5.1,15.613c0,12.71,8.754,23.118,19.71,23.711a13.839,13.839,0,0,0,8.411,9c6.059,2.375,6.748,8.7,6.773,8.963a1.251,1.251,0,0,0,1.244,1.135c.038,0,.077,0,.116,0a1.251,1.251,0,0,0,1.13-1.36C93.821,103.079,93.02,95.3,85.5,92.348Z"/></svg>