<svg id="Layer_1" data-name="Layer 1" xmlns="http://www.w3.org/2000/svg" viewBox="0 0 128 128"><title>LETTER</title><path d="M74.407,42.982a7.543,7.543,0,0,0-10.669,0l-.814.815-.814-.815A7.544,7.544,0,0,0,51.44,53.651l10.6,10.6a1.25,1.25,0,0,0,1.768,0l2.776-2.776,2.308,2.307a1.25,1.25,0,0,0,1.768,0l6.6-6.6a5.167,5.167,0,0,0,0-7.308,5.207,5.207,0,0,0-.7-.579A7.57,7.57,0,0,0,74.407,42.982ZM62.924,61.6l-9.716-9.716a5.044,5.044,0,1,1,7.134-7.134l1.7,1.7a1.25,1.25,0,0,0,1.768,0l1.7-1.7a5.038,5.038,0,0,1,8.6,3.664c-.169-.017-.335-.05-.507-.05a5.136,5.136,0,0,0-3.654,1.514l-.173.173-.174-.173a5.167,5.167,0,1,0-7.308,7.308l2.522,2.522Zm12.564-6.182-5.713,5.713-2.307-2.307h0l-3.406-3.405a2.667,2.667,0,1,1,3.773-3.772L68.892,52.7a1.285,1.285,0,0,0,1.768,0l1.057-1.057a2.733,2.733,0,0,1,3.772,0,2.668,2.668,0,0,1,0,3.773Z"/><path d="M89.807,28.363a1.25,1.25,0,0,0-1.25,1.25v72.661H39.443V35.268l7.773-7.774V33.5h-3.05a1.25,1.25,0,0,0,0,2.5h4.3a1.25,1.25,0,0,0,1.25-1.25V25.727h40.09a1.25,1.25,0,0,0,0-2.5H48.467a1.258,1.258,0,0,0-.884.367L37.31,33.866a1.25,1.25,0,0,0-.366.884v68.773a1.25,1.25,0,0,0,1.25,1.25H89.807a1.25,1.25,0,0,0,1.25-1.25V29.613A1.25,1.25,0,0,0,89.807,28.363Z"/><path d="M80.687,71.125H47.312a1.25,1.25,0,0,0,0,2.5H80.687a1.25,1.25,0,0,0,0-2.5Z"/><path d="M80.687,80.133H51.844a1.25,1.25,0,0,0,0,2.5H80.687a1.25,1.25,0,0,0,0-2.5Z"/><path d="M47.312,82.633h.141a1.25,1.25,0,0,0,0-2.5h-.141a1.25,1.25,0,0,0,0,2.5Z"/><path d="M47.312,91.64H80.687a1.25,1.25,0,0,0,0-2.5H47.312a1.25,1.25,0,0,0,0,2.5Z"/></svg>