<svg id="Layer_1" data-name="Layer 1" xmlns="http://www.w3.org/2000/svg" viewBox="0 0 128 128"><title>DRESS</title><path d="M82.308,23.227h-.533a1.25,1.25,0,0,0-1.25,1.25v1.378H70.951A1.25,1.25,0,0,0,69.7,27.1a5.7,5.7,0,1,1-11.4,0,1.25,1.25,0,0,0-1.25-1.25H47.476V24.477a1.25,1.25,0,0,0-1.25-1.25h-.533A14.792,14.792,0,0,0,30.917,38v.534a1.25,1.25,0,0,0,1.25,1.25H44.976V51.875a1.25,1.25,0,1,0,2.5,0V28.355h8.418a8.2,8.2,0,0,0,16.213,0h8.418V55.214h-34.3a1.25,1.25,0,0,0-1.25,1.25v6.762a8.757,8.757,0,0,0-6.824,7.643L35.184,98.89a5.322,5.322,0,0,0,5.293,5.883H87.523a5.322,5.322,0,0,0,5.293-5.883L89.849,70.869a8.765,8.765,0,0,0-8.734-7.859H47.476v-5.3H80.524v2.648a1.25,1.25,0,1,0,2.5,0V25.747A12.293,12.293,0,0,1,94.562,37.286h-6.25a1.25,1.25,0,0,0,0,2.5h7.521a1.25,1.25,0,0,0,1.25-1.25V38A14.792,14.792,0,0,0,82.308,23.227ZM33.437,37.286A12.293,12.293,0,0,1,44.976,25.747V37.286ZM87.362,71.132,90.33,99.154a2.821,2.821,0,0,1-2.807,3.12H40.477a2.821,2.821,0,0,1-2.807-3.12l2.968-28.022a6.27,6.27,0,0,1,6.248-5.622h4.953l-1.827,19a1.25,1.25,0,0,0,1.124,1.364c.041,0,.081.006.122.006a1.25,1.25,0,0,0,1.242-1.13L54.35,65.51h8.4V92.238a1.25,1.25,0,0,0,2.5,0V65.51h8.4l2.316,24.076a1.25,1.25,0,0,0,1.242,1.13c.04,0,.081,0,.122-.006a1.25,1.25,0,0,0,1.124-1.364L76.161,65.51h4.953A6.27,6.27,0,0,1,87.362,71.132Z"/><path d="M50.971,87.566a1.251,1.251,0,0,0-1.362,1.126l-.062.656a1.25,1.25,0,0,0,1.126,1.363c.04,0,.08.006.12.006a1.249,1.249,0,0,0,1.242-1.131l.063-.656A1.25,1.25,0,0,0,50.971,87.566Z"/></svg>