<svg id="Layer_1" data-name="Layer 1" xmlns="http://www.w3.org/2000/svg" viewBox="0 0 128 128"><title>ENVELOPE</title><path d="M64,63.421a1.245,1.245,0,0,0,.884-.366L73.635,54.3a6.4,6.4,0,0,0,1.5-2.387H95.523a1.251,1.251,0,0,0,1.013-.517l4-5.524a1.25,1.25,0,0,0-2.025-1.466l-3.625,5.007H75.5a6.435,6.435,0,0,0-10.986-4.23L64,45.706l-.519-.519A6.446,6.446,0,0,0,54.365,54.3l8.751,8.751A1.245,1.245,0,0,0,64,63.421ZM56.133,46.955a3.951,3.951,0,0,1,5.581,0l1.4,1.4a1.25,1.25,0,0,0,1.768,0l1.4-1.4a3.947,3.947,0,1,1,5.581,5.581L64,60.4l-7.867-7.867A3.951,3.951,0,0,1,56.133,46.955Z"/><path d="M40.333,87.132h-.75a1.25,1.25,0,0,0,0,2.5h.75a1.25,1.25,0,0,0,0-2.5Z"/><path d="M103.523,38.368H24.477a1.25,1.25,0,0,0-1.25,1.25V88.382a1.25,1.25,0,0,0,1.25,1.25h10.69a1.25,1.25,0,0,0,0-2.5h-9.44V43.476L31.464,51.4a1.251,1.251,0,0,0,1.013.517H48.416a1.25,1.25,0,0,0,0-2.5h-15.3l-6.189-8.548h75.348V87.132H45.167a1.25,1.25,0,0,0,0,2.5h58.356a1.25,1.25,0,0,0,1.25-1.25V39.618A1.25,1.25,0,0,0,103.523,38.368Z"/></svg>