<svg id="Layer_1" data-name="Layer 1" xmlns="http://www.w3.org/2000/svg" viewBox="0 0 128 128"><title>FIREWORKS</title><path d="M103.427,92.629l-11.164-13L63.385,45.986a1.25,1.25,0,0,0-1.9,1.629l4.43,5.16L63.636,82.755a1.25,1.25,0,0,0,2.493.189l2.092-27.486,5.984,6.97-2.53,33.223-3.627,3.113L52.965,81.194l2.688-35.307L62.6,39.924a1.25,1.25,0,0,0-.437-2.14L25.9,26.281a1.25,1.25,0,0,0-1.613,1.385l5.88,37.586a1.25,1.25,0,0,0,2.049.755l2.543-2.183,32.208,37.518a1.248,1.248,0,0,0,.853.432c.032,0,.063,0,.095,0a1.25,1.25,0,0,0,.814-.3L91.18,82.2l10.351,12.057a1.25,1.25,0,1,0,1.9-1.629ZM50.662,78.511l-3.625-4.222-2.359-2.748L46,54.173l6.97-5.983ZM27.068,29.274l32.2,10.214L32.289,62.648Zm16.249,27.2-.943,12.382L36.655,62.2ZM74.359,93.348l2.15-28.237L89.552,80.3Z"/><path d="M64.453,89.765A1.251,1.251,0,0,0,65.7,88.609l.084-1.1a1.25,1.25,0,0,0-2.493-.189l-.084,1.1a1.249,1.249,0,0,0,1.151,1.341C64.389,89.764,64.42,89.765,64.453,89.765Z"/></svg>