<svg xmlns="http://www.w3.org/2000/svg" data-name="Layer 1" viewBox="0 0 128 128"><path d="M82.308 23.227h-.533a1.25 1.25 0 0 0-1.25 1.25v1.378h-9.574A1.25 1.25 0 0 0 69.7 27.1a5.7 5.7 0 1 1-11.4 0 1.25 1.25 0 0 0-1.25-1.25h-9.574v-1.373a1.25 1.25 0 0 0-1.25-1.25h-.533A14.792 14.792 0 0 0 30.917 38v.534a1.25 1.25 0 0 0 1.25 1.25h12.809v12.091a1.25 1.25 0 1 0 2.5 0v-23.52h8.418a8.2 8.2 0 0 0 16.213 0h8.418v26.859h-34.3a1.25 1.25 0 0 0-1.25 1.25v6.762a8.757 8.757 0 0 0-6.824 7.643L35.184 98.89a5.322 5.322 0 0 0 5.293 5.883h47.046a5.322 5.322 0 0 0 5.293-5.883l-2.967-28.021a8.765 8.765 0 0 0-8.734-7.859H47.476v-5.3h33.048v2.648a1.25 1.25 0 1 0 2.5 0V25.747a12.293 12.293 0 0 1 11.538 11.539h-6.25a1.25 1.25 0 0 0 0 2.5h7.521a1.25 1.25 0 0 0 1.25-1.25V38a14.792 14.792 0 0 0-14.775-14.773zM33.437 37.286a12.293 12.293 0 0 1 11.539-11.539v11.539zm53.925 33.846 2.968 28.022a2.821 2.821 0 0 1-2.807 3.12H40.477a2.821 2.821 0 0 1-2.807-3.12l2.968-28.022a6.27 6.27 0 0 1 6.248-5.622h4.953l-1.827 19a1.25 1.25 0 0 0 1.124 1.364c.041 0 .081.006.122.006a1.25 1.25 0 0 0 1.242-1.13l1.85-19.24h8.4v26.728a1.25 1.25 0 0 0 2.5 0V65.51h8.4l2.316 24.076a1.25 1.25 0 0 0 1.242 1.13c.04 0 .081 0 .122-.006a1.25 1.25 0 0 0 1.124-1.364L76.161 65.51h4.953a6.27 6.27 0 0 1 6.248 5.622z"/><path d="M50.971 87.566a1.251 1.251 0 0 0-1.362 1.126l-.062.656a1.25 1.25 0 0 0 1.126 1.363c.04 0 .08.006.12.006a1.249 1.249 0 0 0 1.242-1.131l.063-.656a1.25 1.25 0 0 0-1.127-1.364z"/></svg>