<svg id="Layer_1" data-name="Layer 1" xmlns="http://www.w3.org/2000/svg" viewBox="0 0 128 128"><title>LOVE</title><path d="M29.286,58.164a1.245,1.245,0,0,0,.848-.331c.132-.122.267-.242.4-.357a1.25,1.25,0,0,0-1.621-1.9c-.161.137-.319.278-.477.423a1.25,1.25,0,0,0,.848,2.169Z"/><path d="M68.508,51.723a16.049,16.049,0,0,0-11.424,4.732l-3.138,3.138-3.139-3.138a16.181,16.181,0,0,0-18.385-3.16A1.25,1.25,0,1,0,33.5,55.551,13.683,13.683,0,0,1,49.04,58.223l4.022,4.022a1.286,1.286,0,0,0,1.768,0l4.021-4.022A13.66,13.66,0,0,1,81.035,73.33a1.25,1.25,0,1,0,2.293,1,16.161,16.161,0,0,0-14.82-22.6Z"/><path d="M101.491,25.983a9.829,9.829,0,0,0-12.136-1.347,1.25,1.25,0,0,0,1.34,2.111,7.315,7.315,0,0,1,9.028,1,7.27,7.27,0,0,1,0,10.28L86.261,51.494,72.8,38.031a7.27,7.27,0,0,1,10.281-10.28l2.3,2.3a1.25,1.25,0,0,0,1.767-1.767l-2.3-2.3A9.769,9.769,0,1,0,71.03,39.8L85.377,54.145a1.249,1.249,0,0,0,1.767,0L101.491,39.8a9.769,9.769,0,0,0,0-13.815Z"/><path d="M74.44,75.217a7.725,7.725,0,0,0-5.5,2.278l-.878.877-.877-.877a7.777,7.777,0,1,0-11,11L61.7,94l-7.751,7.751-24.22-24.22a13.645,13.645,0,0,1-2.1-16.608,1.25,1.25,0,1,0-2.15-1.274A16.143,16.143,0,0,0,27.959,79.3l25.1,25.1a1.25,1.25,0,0,0,1.768,0l8.635-8.635,3.715,3.715a1.25,1.25,0,0,0,1.768,0L79.939,88.495a7.778,7.778,0,0,0-5.5-13.277Zm3.731,11.51L68.063,96.835,57.955,86.727a5.278,5.278,0,1,1,7.464-7.464l1.761,1.761a1.25,1.25,0,0,0,1.768,0l1.762-1.761a5.277,5.277,0,0,1,7.463,7.464Z"/></svg>