<svg xmlns="http://www.w3.org/2000/svg" data-name="Layer 1" viewBox="0 0 128 128"><path d="M88.827 74.182A1.243 1.243 0 0 0 87.4 75.22l-3.393 21.369a6.71 6.71 0 0 1-6.657 5.685h-2.967l4.372-25.963a1.25 1.25 0 0 0-2.465-.416l-4.442 26.379h-15.7L51.71 75.895a1.25 1.25 0 0 0-2.465.416l4.372 25.963H50.65a6.71 6.71 0 0 1-6.657-5.684l-3.984-25.116c2-.251 4.221-.69 6.626-1.17a1.25 1.25 0 1 0-.489-2.451 71.03 71.03 0 0 1-7.77 1.277h-.007c-2.252.174-4.052-.019-5.14-.912-1.034-.849-1.536-2.431-1.536-4.839 0-7.85 9.454-15.9 22.032-18.8v3.187h4.445V24.477h-3.606a8.2 8.2 0 0 1-2.8 3.709 12.855 12.855 0 0 1-3.781 2.159v4.034a15.324 15.324 0 0 0 5.742-3.369v11.051a1.192 1.192 0 0 0-.275.006C39.4 45.219 29.193 54.182 29.193 63.378c0 3.2.8 5.419 2.451 6.772a8.119 8.119 0 0 0 5.332 1.541c.173 0 .356-.01.534-.015l4.014 25.305a9.2 9.2 0 0 0 9.126 7.792h26.7a9.2 9.2 0 0 0 9.126-7.792l3.389-21.369a1.25 1.25 0 0 0-1.038-1.43z"/><path d="m52.583 66.641-.608.1a1.25 1.25 0 0 0 .209 2.482 1.315 1.315 0 0 0 .212-.018l.594-.1a1.25 1.25 0 0 0-.407-2.467zM77.871 42.942a1.25 1.25 0 1 0-.727 2.392c11.283 3.43 19.163 10.85 19.163 18.045 0 2.562-.523 4.231-1.6 5.1-2.168 1.754-6.935.75-12.97-.527A84.145 84.145 0 0 0 64 65.586a60.181 60.181 0 0 0-6.691.391 1.25 1.25 0 0 0 .276 2.484A57.819 57.819 0 0 1 64 68.086 82.079 82.079 0 0 1 81.221 70.4a52.321 52.321 0 0 0 9.9 1.512 7.918 7.918 0 0 0 5.162-1.489c1.7-1.377 2.524-3.681 2.524-7.044 0-8.286-8.607-16.69-20.936-20.437zM64 43.406c1.458 0 2.92.075 4.37.213a27.494 27.494 0 0 0-.439 4.142h4.287a27.309 27.309 0 0 1 1-6.968 30.991 30.991 0 0 1 2.966-7.363 23.919 23.919 0 0 1 3.828-5.315v-3.227h-15.2v4.129h10.111a32.683 32.683 0 0 0-5.007 8.938 33.321 33.321 0 0 0-1 3.2A48.906 48.906 0 0 0 64 40.906a1.25 1.25 0 0 0 0 2.5zM65.25 98.523V76.1a1.25 1.25 0 0 0-2.5 0v22.423a1.25 1.25 0 0 0 2.5 0z"/></svg>