<svg id="Layer_1" data-name="Layer 1" xmlns="http://www.w3.org/2000/svg" viewBox="0 0 128 128"><title>HOT COFFEE</title><path d="M89,33H43.952a8.529,8.529,0,0,1,8.421-7.273h6.034a5.625,5.625,0,0,0,11.186,0h6.034a8.557,8.557,0,0,1,7.381,4.259,1.25,1.25,0,0,0,2.164-1.252,11.067,11.067,0,0,0-9.545-5.507H68.31a1.261,1.261,0,0,0-1.233,1.452,2.938,2.938,0,0,1,.049.446,3.125,3.125,0,0,1-6.25,0,2.959,2.959,0,0,1,.052-.461,1.251,1.251,0,0,0-1.236-1.437H52.373A11.036,11.036,0,0,0,41.426,33H39a1.25,1.25,0,0,0-1.25,1.25v6.5A1.25,1.25,0,0,0,39,42h2.445l4.607,57.826a5.4,5.4,0,0,0,5.357,4.947H76.591a5.4,5.4,0,0,0,5.357-4.947l4.2-52.725A1.25,1.25,0,0,0,85,45.756,1.238,1.238,0,0,0,83.656,46.9l-4.2,52.725a2.889,2.889,0,0,1-2.865,2.646H51.409a2.889,2.889,0,0,1-2.865-2.646l-3.6-45.2H62.75V88H51.562a1.25,1.25,0,0,0,0,2.5H64a1.25,1.25,0,0,0,1.25-1.25V53.176A1.25,1.25,0,0,0,64,51.926H44.744L43.953,42h5.3a1.25,1.25,0,0,0,0-2.5h-9v-4h47.5v4H59.125a1.25,1.25,0,0,0,0,2.5H89a1.25,1.25,0,0,0,1.25-1.25v-6.5A1.25,1.25,0,0,0,89,33Z"/><path d="M53.795,39.5a1.25,1.25,0,0,0,0,2.5h.425a1.25,1.25,0,0,0,0-2.5Z"/></svg>