<svg id="Layer_1" data-name="Layer 1" xmlns="http://www.w3.org/2000/svg" viewBox="0 0 128 128"><title>LOVE GIFT BOX</title><path d="M104.567,52.611a61.548,61.548,0,0,0-4.117-15.522,19.353,19.353,0,0,0-1.925-4.026l-.046-.078c-.093-.145-.185-.29-.281-.433q-.1-.141-.187-.255a19.519,19.519,0,0,0-29.818-2.628L63.257,34.6a1.25,1.25,0,0,0,1.768,1.768l4.935-4.936a17,17,0,0,1,26.773,3.49c.429.845,1,2.128,1.615,3.7a17.1,17.1,0,0,1,.7,4.86,16.93,16.93,0,0,1-4.991,12.051L64.141,85.458,34.22,55.538a17.042,17.042,0,0,1,24.1-24.1,1.25,1.25,0,0,0,1.768-1.767,19.468,19.468,0,0,0-30.688,4c-1.566,2.319-5.448,12.354-6.08,20.749-.455,6.037.729,10.513,3.521,13.3L62.813,103.69a1.172,1.172,0,0,0,.146.1.82.82,0,0,0,.528.229,1.178,1.178,0,0,0,.174.04H63.7c.01,0,.018-.005.028-.006a1.205,1.205,0,0,0,.847-.356l.008-.005,26.8-26.8a1.25,1.25,0,1,0-1.767-1.768L65.036,99.7l.34-11.941L95.83,57.305a19.415,19.415,0,0,0,5.292-9.813c1.57,6.693,2.018,14.1-1.754,17.876l-3,3a1.25,1.25,0,1,0,1.768,1.768l3-3C104.132,64.138,105.287,59.252,104.567,52.611ZM27.092,47.2a19.431,19.431,0,0,0,5.361,10.108L62.876,87.728,62.53,99.871,28.61,65.951C24.741,62.082,25.415,54.095,27.092,47.2Z"/><path d="M92.618,72.118l-.164.164a1.25,1.25,0,1,0,1.768,1.768l.164-.164a1.25,1.25,0,1,0-1.768-1.768Z"/></svg>