<svg id="Layer_1" data-name="Layer 1" xmlns="http://www.w3.org/2000/svg" viewBox="0 0 128 128"><title>CANDY</title><path d="M50.29,30.486a1.244,1.244,0,0,0,.774-.27q.271-.215.549-.42a1.25,1.25,0,1,0-1.485-2.011q-.311.23-.615.47a1.25,1.25,0,0,0,.776,2.23Z"/><path d="M73.383,37.474a1.25,1.25,0,0,0,1.568-1.947c-7.348-5.917-15.1-4.406-19.517-.283-4.439,4.141-5.313,10.228-2.127,14.8,2.486,3.57,5.276,4.329,7.2,4.329a7.232,7.232,0,0,0,1.13-.088A8.026,8.026,0,0,0,67.942,48.8a6.2,6.2,0,0,0-1.818-6.549,1.25,1.25,0,0,0-1.7,1.837,3.736,3.736,0,0,1,1.122,3.987,5.552,5.552,0,0,1-4.306,3.747c-2.122.334-4.213-.8-5.884-3.2-2.868-4.118-1.087-8.873,1.78-11.547C60.5,33.933,66.776,32.154,73.383,37.474Z"/><path d="M65.25,69.942A23.375,23.375,0,1,0,54.155,25.4a1.25,1.25,0,1,0,1.055,2.267A20.868,20.868,0,1,1,71.591,66.027a26.694,26.694,0,0,0,8.374-11.66c1.963-5.6,1.37-11.042-1.669-15.324a1.25,1.25,0,1,0-2.039,1.447c3.276,4.616,2.542,9.645,1.349,13.05C75.375,59.907,69.6,65.73,63.827,67.468A20.869,20.869,0,0,1,48.155,33.01a1.25,1.25,0,0,0-1.9-1.629,23.376,23.376,0,0,0,9.7,37.168A5.9,5.9,0,1,0,62.75,78.2v25.32a1.25,1.25,0,0,0,2.5,0V82.159A17.886,17.886,0,0,0,74.8,90.252a1.25,1.25,0,1,0,.891-2.336,15.47,15.47,0,0,1-9.306-9.076,5.907,5.907,0,0,0,8.179-5.454,1.25,1.25,0,1,0-2.5,0,3.408,3.408,0,0,1-6.815.032c0-.058,0-.107,0-.153Zm-5.909,6.852a3.409,3.409,0,0,1,0-6.818,1.233,1.233,0,0,0,.817-.321,23.337,23.337,0,0,0,2.592.287v3.064c0,.005,0,.011,0,.018v.361A3.413,3.413,0,0,1,59.341,76.794Z"/></svg>