<svg id="Layer_1" data-name="Layer 1" xmlns="http://www.w3.org/2000/svg" viewBox="0 0 128 128"><title>Artboard 16</title><path d="M86.116,80.2v8.466h15.89a2,2,0,0,0,1.366-.534l.055-.058a2.007,2.007,0,0,0,.592-1.421v-4.44a2.022,2.022,0,0,0-2.013-2.013ZM33.03,88.665V80.2h-.162a2.012,2.012,0,0,0-2.013,2.013v4.44a2.011,2.011,0,0,0,.536,1.368l.056.053a2.007,2.007,0,0,0,1.42.592ZM35.8,80.2v8.466H83.35V80.2Zm-2.6-43.343a1.379,1.379,0,0,1,1.686,2.182c-.021.016-7.516,5.685-3.135,17.994,4.939,13.876,2.13,18.238,2.122,18.251a1.379,1.379,0,1,1-2.355-1.437c.006-.01,2.125-3.264-2.371-15.9C24.085,43.753,33.166,36.877,33.192,36.856ZM22.235,42.822A1.377,1.377,0,1,1,24.72,44.01c-.007.014-2.506,5,1.493,14.013,4.414,9.953,3.843,13.456,3.841,13.466a1.378,1.378,0,1,1-2.733-.356c0-.008.464-2.752-3.636-12C19.169,48.954,22.227,42.839,22.235,42.822ZM32.867,77.433h69.138a4.79,4.79,0,0,1,4.779,4.779v4.44a4.765,4.765,0,0,1-1.4,3.376c-.03.03-.061.058-.093.085a4.762,4.762,0,0,1-3.283,1.318H32.867a4.766,4.766,0,0,1-3.376-1.4c-.029-.029-.057-.059-.083-.09a4.758,4.758,0,0,1-1.319-3.286v-4.44a4.761,4.761,0,0,1,1.4-3.37l.006-.006A4.76,4.76,0,0,1,32.867,77.433Z" style="fill:#27130d"/><path d="M86.116,80.2v8.466h15.89a2,2,0,0,0,1.366-.534l.055-.058a2.007,2.007,0,0,0,.592-1.421v-4.44a2.022,2.022,0,0,0-2.013-2.013Z" style="fill:#eb7f53;fill-rule:evenodd"/><rect x="35.796" y="80.199" width="47.554" height="8.466" style="fill:#fff6dc"/><path d="M33.03,88.665V80.2h-.162a2.012,2.012,0,0,0-2.013,2.013v4.44a2.011,2.011,0,0,0,.536,1.368l.056.053a2.007,2.007,0,0,0,1.42.592Z" style="fill:#eb7f53;fill-rule:evenodd"/></svg>