<svg xmlns="http://www.w3.org/2000/svg" data-name="Layer 1" viewBox="0 0 128 128"><path fill="#27130d" d="M24.667 94.89v-11.1h-.742a5.526 5.526 0 0 0-3.854 1.564c-.02.023-.041.045-.063.067a5.531 5.531 0 0 0-1.631 3.917A5.527 5.527 0 0 0 20 93.259l.006.006a5.527 5.527 0 0 0 3.917 1.625zm8.434 0v-11.1h-5.668v11.1zm8.433 0v-11.1h-5.668v11.1zm8.433 0v-11.1H44.3v11.1zm8.433 0v-11.1h-5.667v11.1zm8.433 0v-11.1h-5.667v11.1zm8.433 0v-11.1H69.6v11.1zm8.433 0v-11.1h-5.666v11.1zm8.433 0v-11.1h-5.666v11.1zm8.433 0v-11.1H94.9v11.1zm2.766-11.1v11.1h.742a5.532 5.532 0 0 0 3.917-1.631 5.527 5.527 0 0 0 1.625-3.917 5.568 5.568 0 0 0-5.548-5.548zM68.98 35.173a7.043 7.043 0 0 0-11.975 4.155 43.86 43.86 0 0 1 5.98-.546h2.03a43.87 43.87 0 0 1 5.98.546 7.022 7.022 0 0 0-2.015-4.155zM64 30.344a9.81 9.81 0 0 1 9.8 9.532 43.666 43.666 0 0 1 33.832 41.957 8.352 8.352 0 0 1 4.752 7.508 8.292 8.292 0 0 1-2.444 5.87 8.289 8.289 0 0 1-5.873 2.442H23.925a8.291 8.291 0 0 1-5.867-2.442l-.006-.007a8.291 8.291 0 0 1-2.435-5.86 8.29 8.29 0 0 1 2.441-5.873c.028-.028.057-.055.087-.08a8.389 8.389 0 0 1 2.224-1.552A43.666 43.666 0 0 1 54.2 39.876a9.81 9.81 0 0 1 9.8-9.532zM23.925 81.027h80.926a40.874 40.874 0 0 0-40.323-39.488h-1.05a40.874 40.874 0 0 0-40.329 39.488z"/><path fill="#fff6dc" fill-rule="evenodd" d="M92.9 53.507a40.745 40.745 0 0 0-28.372-11.968h-1.057a40.874 40.874 0 0 0-40.322 39.488h81.7A40.743 40.743 0 0 0 92.9 53.507z"/><path fill="#eb7f53" fill-rule="evenodd" d="M24.667 94.89v-11.1h-.742a5.556 5.556 0 0 0-3.917 9.471 5.734 5.734 0 0 0 4.659 1.629z"/><path fill="#eb7f53" d="M35.866 83.793H41.533V94.89H35.866z"/><path fill="#fff6dc" d="M27.433 83.793H33.1V94.89H27.433z"/><path fill="#fff6dc" d="M44.3 83.793H49.967V94.89H44.3z"/><path fill="#eb7f53" d="M52.733 83.793H58.4V94.89H52.733z"/><path fill="#fff6dc" d="M61.166 83.793H66.833V94.89H61.166z"/><path fill="#eb7f53" d="M69.6 83.793H75.267V94.89H69.6z"/><path fill="#fff6dc" d="M78.033 83.793H83.7V94.89H78.033z"/><path fill="#eb7f53" d="M86.466 83.793H92.133V94.89H86.466z"/><path fill="#fff6dc" d="M94.899 83.793H100.566V94.89H94.899z"/><path fill="#eb7f53" fill-rule="evenodd" d="M103.333 83.793v11.1A5.765 5.765 0 0 0 108 93.262a5.554 5.554 0 0 0-3.92-9.468zM57.005 39.328a44.1 44.1 0 0 1 13.99 0 7.043 7.043 0 0 0-13.99 0z"/></svg>