<svg id="Layer_1" data-name="Layer 1" xmlns="http://www.w3.org/2000/svg" viewBox="0 0 128 128"><title>Artboard 14</title><path d="M56.922,34.178C51.493,39.075,45.48,44.5,45.48,52.895c0,5.888,4.256,9.881,9.854,11.829a27.054,27.054,0,0,0,16.154.312C77.45,63.229,82.183,59.111,82.5,52.557c.248-5.174-1.215-10.833-2.419-14.516a16.6,16.6,0,0,1-5.523,4.544,1.379,1.379,0,0,1-2.046-1.448c1.273-6.793-3.13-14.817-6.31-19.536C65.525,26.416,61.4,30.136,56.922,34.178ZM66.9,95.735l25.081,13.6a5.079,5.079,0,0,0,6.869-2.039l.042-.072.113-.21,0,0h0a5.078,5.078,0,0,0-2.038-6.869l-19.1-10.355ZM34.761,66.41h0a2.913,2.913,0,0,0-2.651.112,6.626,6.626,0,0,0-2.842,2.855l0,0a6.629,6.629,0,0,0-.842,3.941A2.921,2.921,0,0,0,29.764,75.6l.012.006h0l.025.014a2.364,2.364,0,0,0,1.247.251h.018l.024,0c.1-.007.2-.019.3-.036l.014,0,.029-.005.013,0,.029-.006.013,0,.03-.006.012,0,.031-.006.012,0,.031-.007.011,0,.032-.008.011,0,.032-.008.01,0,.033-.009.01,0,.034-.01.009,0,.035-.01.008,0,.035-.011.008,0,.036-.011.007,0,.043-.015.037-.012.006,0,.038-.014.005,0,.038-.014,0,0,.039-.015,0,0,.04-.015,0,0,.04-.016h0l.041-.017h0l.041-.018h0l.042-.019h0l.042-.02h0l.043-.02.05-.025h0l.05-.025h0l.05-.026h0l.05-.026h0l.049-.027h0l.049-.027h0l.049-.028h0l.048-.028h0l.048-.029h0l.048-.029h0l.048-.03,0,0,.047-.03,0,0,.047-.031,0,0,.046-.032,0,0,.046-.032,0,0,.046-.032,0,0,.045-.033,0,0,.045-.033,0,0,.045-.034,0,0,.044-.034,0,0,.048-.038.043-.035,0,0,.043-.036,0,0,.043-.036,0,0,.042-.036,0,0,.042-.037,0,0,.042-.037.005,0,.041-.037.005-.005.041-.037.006-.006.04-.038.005-.005.04-.039.006-.006.04-.039.006-.006.039-.039.006-.006.039-.04.006-.007.038-.04.006-.007.038-.04.006-.007.038-.04.006-.008.037-.041.006-.007.037-.041.007-.008L34.328,74,34.335,74l.036-.041.007-.009.035-.042.007-.009.035-.043.007-.009L34.5,73.8l.008-.01.034-.043.007-.01.034-.043.008-.01.033-.044.008-.01.033-.044.008-.011.032-.043.008-.011.032-.044.008-.011.031-.044.008-.012.031-.044.008-.012.031-.045.009-.013.03-.044.008-.013.03-.045.008-.013.029-.045.009-.014.029-.045.009-.014.028-.046.009-.014.028-.046.009-.015.027-.046.009-.015.027-.046.009-.016.026-.046.009-.016.026-.046.009-.016.026-.046,0,0v0l0,0,0,0v0l0,0h0v0l.032-.055,0,0,0,0,0,0v0h0l0,0,.031-.06,0,0,.061-.122,0,0,.029-.06v0l.029-.06v0l.028-.06v0l.028-.06v0l.027-.06,0,0,.026-.06v0l.026-.06v0l.025-.06v0l.024-.06v0l.024-.061v0l.023-.061v0l.023-.06v0l.022-.061v0l.021-.061v0l.021-.061v0l.021-.06v0l.02-.06v0l.019-.061v0l.018-.06v0l.018-.06v0l.017-.06v0l.017-.061v0l.016-.06v0l.016-.06v0l.015-.06v0l.014-.06v0l.014-.06v0l.013-.06v0l.012-.06v0l.012-.06v0l.011-.06v0l.011-.06v0l.009-.059v0l.009-.059v0L36.1,70.2v0l.008-.059v0l.008-.059v0l.007-.059v0l.006-.059h0l.006-.059h0l.005-.058h0l0-.058h0l0-.058h0l0-.058h0l0-.058h0l0-.058h0v-.058h0v-.058h0V69.37h0v-.057h0v-.057h0l0-.057h0l0-.057h0l0-.057h0l0-.056h0l0-.056h0l0-.056h0l-.006-.055h0l-.006-.055h0l-.006-.055-.007-.055-.006-.048h0L36.1,68.6l-.008-.048-.008-.047-.009-.047h0l-.009-.046-.009-.047-.01-.046-.01-.046-.011-.045h0l-.011-.045h0L36,68.134l-.012-.044h0l-.013-.044h0L35.964,68h0l-.014-.043h0l-.014-.043h0l-.014-.043h0l-.015-.042h0l-.015-.042h0l-.016-.041h0l-.016-.041h0l-.017-.04h0l-.017-.04h0l-.018-.04h0l-.018-.039h0l-.018-.039h0l-.019-.038h0l-.02-.038h0l-.02-.037h0l-.02-.037h0l-.021-.036h0l-.021-.036h0l-.022-.036h0L35.6,67.21h0l-.022-.035h0l-.023-.034h0l-.024-.034h0l-.024-.033h0l-.024-.033h0l-.025-.032h0l-.025-.032h0l-.025-.031h0l-.053-.062h0l-.027-.03h0l-.028-.029h0l-.028-.028h0l-.029-.028h0l-.028-.028h0l-.029-.027h0l-.03-.027h0l-.03-.026h0l-.03-.025h0l-.031-.025-.032-.024L35,66.56h0l-.032-.023h0l-.033-.022h0l-.033-.021h0l-.034-.021-.034-.021-.035-.02Zm12.467,21.8L55.7,83.619l5.4-2.928L38.881,68.643c.007.078.013.157.017.236l0,.028,0,.051,0,.079,0,.036v.044l0,.08v.08c0,.08,0,.161,0,.242V69.6c0,.081-.006.162-.011.243l0,.076v.006l-.005.08v0l-.014.165v.006l-.008.077v.009l-.008.074v.013l-.008.07,0,.017-.008.066,0,.021-.009.062-.011.077v.006l0,.029-.009.055-.014.084-.006.037-.008.047-.008.041-.008.043-.009.045-.008.039-.01.049-.007.035-.011.053-.006.032-.013.057-.006.028-.014.061-.006.023-.015.065,0,.02-.017.069,0,.016-.019.073,0,.012-.02.077,0,.007-.022.081v0l-.024.085h0l-.025.084,0,0-.025.08,0,.008-.024.076,0,.012-.024.072-.006.016-.023.068-.007.02-.022.064-.008.024-.021.06-.01.028-.021.056-.012.032-.02.052-.014.036-.034.088-.018.044-.018.044h0L38.158,73l-.015.037-.022.051-.014.032-.024.055-.013.028-.026.059-.011.024L38,73.346l-.01.02-.031.067-.008.017-.034.07-.043.087,0,.009-.04.078,0,0-.042.082h0l-.046.089h0l0,0c-.013.027-.026.054-.04.08l0,0,0,.007,0,0,0,.007,0,0,0,0-.029.053-.018.033-.027.048-.021.037-.025.043-.025.042-.047.08,0,0-.02.034-.03.05-.017.029-.034.054-.015.024-.037.058-.012.019-.04.062-.045.069-.008.012-.007.01-.1.149v0l-.052.074,0,0-.051.071,0,.007L37,75.077c-.05.069-.1.137-.15.2l-.04.053-.018.022-.058.074-.035.043-.024.03-.119.145-.026.031-.034.04-.023.027-.038.044-.123.139-.013.015L36.247,76l-.01.011-.053.056-.006.007-.056.059,0,0-.06.062h0l-.06.062,0,0-.057.058-.007.007-.054.053-.011.01-.051.049-.014.013-.047.045-.018.017-.044.042-.022.02-.066.06-.038.034-.029.026-.035.03-.033.029-.031.027-.036.031-.028.024-.04.033-.024.02-.044.036-.021.017-.048.039-.017.013-.052.041-.014.01-.056.043-.01.008-.06.045-.006,0-.064.048,0,0-.067.048h0l-.065.047,0,0-.062.043-.009.006-.058.04-.013.009-.055.037-.017.011-.05.033-.021.013-.047.03-.024.016-.044.027-.067.041h0l-.033.02-.036.022-.036.022-.032.019-.04.024-.029.016-.138.077-.052.029-.017.009,16.234,8.8ZM94.037,77.8A9.527,9.527,0,0,1,90.3,73.954v0a9.506,9.506,0,0,1-1.177-5.308l-58.088,31.5a5.077,5.077,0,0,0-2.038,6.869h0l0,0,.113.21.042.072a5.078,5.078,0,0,0,6.869,2.039l58.088-31.5-.019-.01Zm5.474.251-.053.028h0L80.772,88.212l17.515,9.5a7.859,7.859,0,0,1,3.152,10.618h0l-.116.214-.037.074a7.859,7.859,0,0,1-10.618,3.152L64,97.307,37.336,111.767a7.859,7.859,0,0,1-10.618-3.152l-.037-.074-.116-.214h0A7.859,7.859,0,0,1,29.713,97.71l17.515-9.5L28.5,78.056l0,0,0,0c-.026-.013-.051-.027-.077-.042a5.613,5.613,0,0,1-2.721-4.332,9.4,9.4,0,0,1,1.145-5.617v0a9.4,9.4,0,0,1,4.084-4.022,5.613,5.613,0,0,1,5.1-.089l.061.031L64,79.118l27.921-15.14h0c.036-.02.073-.038.111-.054a5.584,5.584,0,0,1,5.048.112,9.4,9.4,0,0,1,4.085,4.023l0,.007a9.4,9.4,0,0,1,1.141,5.612A5.621,5.621,0,0,1,99.511,78.052ZM98.2,75.619l.054-.029a2.928,2.928,0,0,0,1.327-2.269,6.634,6.634,0,0,0-.842-3.943v0a6.624,6.624,0,0,0-2.842-2.855,2.914,2.914,0,0,0-2.652-.112h0a2.911,2.911,0,0,0-1.352,2.282,6.632,6.632,0,0,0,.842,3.943h0a6.627,6.627,0,0,0,2.843,2.856A2.929,2.929,0,0,0,98.2,75.619ZM42.714,52.895c0-9.618,6.5-15.479,12.361-20.77,5.288-4.77,10.007-9.028,7.876-14.985a1.382,1.382,0,0,1,2.439-1.251c.973,1.173,10.141,12.5,10.093,22.9,1.637-1.184,3.5-3.012,3.044-4.989a1.38,1.38,0,0,1,2.628-.817c.267.627,4.526,10.753,4.1,19.7-.38,7.927-5.95,12.86-12.963,14.985a29.824,29.824,0,0,1-17.862-.345C47.772,65.012,42.714,60.154,42.714,52.895Z" style="fill:#27130d"/><path d="M56.922,34.178C51.493,39.075,45.48,44.5,45.48,52.895c0,9.052,9.734,13.056,17.874,13.218,8.64.172,18.675-3.791,19.142-13.556.248-5.174-1.215-10.833-2.419-14.516a16.6,16.6,0,0,1-5.523,4.544,1.379,1.379,0,0,1-2.046-1.448c1.273-6.793-3.13-14.817-6.31-19.536C65.525,26.416,61.4,30.136,56.922,34.178Z" style="fill:#eb7f53;fill-rule:evenodd"/><path d="M89.12,68.644l-58.088,31.5a5.23,5.23,0,0,0,4.986,9.194l58.088-31.5-.069-.037A9.9,9.9,0,0,1,89.12,68.644Z" style="fill:#eb7f53;fill-rule:evenodd"/><path d="M95.892,66.521c-3.359-1.606-5.279,2.052-3.162,6.115,1.046,2.007,3.566,3.976,5.466,2.983C100.889,74.181,99.555,68.273,95.892,66.521Z" style="fill:#fff6dc;fill-rule:evenodd"/><polygon points="61.1 80.691 38.881 68.643 38.557 71.852 37.226 74.745 36.058 76.197 33.894 77.837 50.129 86.64 61.1 80.691" style="fill:#eb7f53;fill-rule:evenodd"/><path d="M35.266,72.645a6.881,6.881,0,0,0,.883-2.982l-.123-1.439-.035-.134-.04-.131-.029-.086-.047-.125-.017-.041-.07-.16-.208-.371-.023-.034-.149-.2-.054-.062-.455-.391-.14-.082c-2.634-1.428-6.87,2.864-6.337,6.912a2.6,2.6,0,0,0,3.919,2.211A6.515,6.515,0,0,0,35.266,72.645Z" style="fill:#fff6dc;fill-rule:evenodd"/><path d="M77.872,89.786,66.9,95.735l25.081,13.6a5.074,5.074,0,0,0,6.911-2.11l.113-.215a5.078,5.078,0,0,0-2.038-6.869Z" style="fill:#eb7f53;fill-rule:evenodd"/></svg>