<svg xmlns="http://www.w3.org/2000/svg" data-name="Layer 1" viewBox="0 0 128 128"><path fill="#27130d" d="M83.838 49.106L64 25.127 44.161 49.106h7a1.381 1.381 0 011.064 2.262l-11.667 14.1h8.8a1.381 1.381 0 011.064 2.262l-2.309 2.791-15.065 18.222h61.9L79.881 70.527l-2.266-2.739a1.383 1.383 0 011.021-2.316h8.8L75.815 51.421a1.383 1.383 0 011.021-2.315zM69.617 91.51H58.383v10.668a1.486 1.486 0 001.458 1.477h8.318a1.486 1.486 0 001.458-1.477zm-4.553-69.43L87.84 49.608a1.381 1.381 0 01-1.064 2.262h-7l11.667 14.1a1.381 1.381 0 01-1.064 2.262h-8.8l.436.527 16.939 20.487a1.381 1.381 0 01-1.064 2.262H72.383v10.668a4.208 4.208 0 01-.266 1.477H109.6a1.383 1.383 0 110 2.766H18.4a1.383 1.383 0 110-2.766h37.48a4.215 4.215 0 01-.266-1.477V91.51H30.11a1.383 1.383 0 01-1.021-2.315l16.9-20.429.436-.527h-8.8a1.383 1.383 0 01-1.025-2.317l11.624-14.05h-7a1.383 1.383 0 01-1.024-2.315L62.936 22.08a1.381 1.381 0 012.128 0z"/><path fill="#fff6dc" fill-rule="evenodd" d="M87.439 65.472L75.815 51.421a1.383 1.383 0 011.021-2.315h7L64 25.127 44.161 49.106h7a1.381 1.381 0 011.064 2.262l-11.667 14.1h8.8a1.381 1.381 0 011.064 2.262l-2.309 2.791-15.065 18.222h61.9L79.881 70.527l-2.266-2.739a1.383 1.383 0 011.021-2.316z"/><path fill="#eb7f53" fill-rule="evenodd" d="M69.617 91.51H58.383v10.668a1.486 1.486 0 001.458 1.477h8.318a1.486 1.486 0 001.458-1.477z"/></svg>