<svg id="Layer_1" data-name="Layer 1" xmlns="http://www.w3.org/2000/svg" viewBox="0 0 128 128"><title>Artboard 4</title><path d="M89.875,50.509H38.126a8.762,8.762,0,0,0-8.733,8.733h0a8.762,8.762,0,0,0,8.733,8.733H89.875a8.762,8.762,0,0,0,8.733-8.733h0a8.762,8.762,0,0,0-8.733-8.733Zm-14.6-2.766V20.816a10.5,10.5,0,0,0-1.2,1.033,10.349,10.349,0,0,0-3.05,7.33V47.742Zm2.766-28.381V47.742H88.491V18.8H81.406A10.282,10.282,0,0,0,78.043,19.362ZM41.8,107.608V70.741H39.509V99.5a21.681,21.681,0,0,0,1.854,7.216C41.509,107.03,41.655,107.332,41.8,107.608Zm2.766-36.867v36.866c.146-.276.292-.577.437-.895A21.675,21.675,0,0,0,46.859,99.5V70.741Zm.15-12.625a1.591,1.591,0,0,0-2.24.006l0,0a1.6,1.6,0,0,0,0,2.242l.006.006a1.6,1.6,0,0,0,2.189.048l.05-.053a1.591,1.591,0,0,0,.006-2.24ZM43.6,54.892a4.339,4.339,0,0,1,3.07,1.274l0,0,0,0,.012.012a4.342,4.342,0,0,1-.012,6.134c-.03.03-.062.059-.095.086a4.335,4.335,0,0,1-6.051-.087l0,0,0,0L40.51,62.3a4.335,4.335,0,0,1,.011-6.128l0,0,0,0A4.336,4.336,0,0,1,43.6,54.892Zm41.925,3.23a1.584,1.584,0,0,0-2.24,0l0,0,0,0a1.591,1.591,0,0,0,.006,2.24l0,0a1.588,1.588,0,0,0,2.3-2.192Zm-1.12-3.23a4.337,4.337,0,0,1,3.076,1.274c.03.03.059.062.086.095a4.346,4.346,0,0,1-6.232,6.057l0,0,0,0a4.342,4.342,0,0,1,0-6.149l0,0A4.336,4.336,0,0,1,84.4,54.892ZM38.126,47.742H68.259V29.18a13.207,13.207,0,0,1,7.83-12.018l0,0a13.03,13.03,0,0,1,5.313-1.127h8.468a1.383,1.383,0,0,1,1.383,1.383V47.826a11.536,11.536,0,0,1,10.116,11.415h0a11.529,11.529,0,0,1-11.5,11.5H49.625V99.5a24.984,24.984,0,0,1-2.114,8.362c-1.055,2.312-2.5,4.082-4.284,4.11h-.087c-1.783-.028-3.23-1.8-4.284-4.11A24.979,24.979,0,0,1,36.743,99.5V70.658A11.537,11.537,0,0,1,26.627,59.242h0a11.53,11.53,0,0,1,11.5-11.5Z" style="fill:#27130d"/><path d="M78.043,19.362V47.742H88.491V18.8H81.406A10.282,10.282,0,0,0,78.043,19.362Z" style="fill:#fff6dc;fill-rule:evenodd"/><path d="M75.277,47.742V20.816a10.387,10.387,0,0,0-4.252,8.364V47.742Z" style="fill:#fff6dc;fill-rule:evenodd"/><path d="M43.6,54.892a4.35,4.35,0,1,1-3.076,1.274A4.357,4.357,0,0,1,43.6,54.892Zm37.729,7.426a4.35,4.35,0,1,1,6.152,0A4.348,4.348,0,0,1,81.327,62.318Zm8.548-11.809H38.126a8.733,8.733,0,0,0,0,17.466H89.875a8.733,8.733,0,0,0,0-17.466Z" style="fill:#eb7f53;fill-rule:evenodd"/><path d="M43.6,60.825a1.586,1.586,0,1,0-1.123-2.706A1.588,1.588,0,0,0,43.6,60.825Z" style="fill:#fff6dc;fill-rule:evenodd"/><path d="M83.28,58.119a1.586,1.586,0,1,0,2.243,0A1.6,1.6,0,0,0,83.28,58.119Z" style="fill:#fff6dc;fill-rule:evenodd"/><path d="M41.8,107.608V70.741H39.509V99.5A21.768,21.768,0,0,0,41.8,107.608Z" style="fill:#fff6dc;fill-rule:evenodd"/><path d="M44.567,70.741v36.866A21.765,21.765,0,0,0,46.859,99.5V70.741Z" style="fill:#fff6dc;fill-rule:evenodd"/></svg>