<svg xmlns="http://www.w3.org/2000/svg" data-name="Layer 1" viewBox="0 0 128 128"><path fill="#eb7f53" fill-rule="evenodd" d="M36.261 41.119a1.93 1.93 0 0 1-1.9 1.237h-9.085a2.039 2.039 0 0 1-1.458-.6 2.139 2.139 0 0 1-.625-1.5A2.042 2.042 0 0 1 23.8 38.8l.24-.142 1.487-.4h.268l.031.007a.827.827 0 0 0 .619-.1.871.871 0 0 0 .379-.533v-.018a3 3 0 0 1 .616-1.306 3.082 3.082 0 0 1 2.992-1.063 3.008 3.008 0 0 1 1.3.621 3.06 3.06 0 0 1 .682.785 3.017 3.017 0 0 1 .378.964.842.842 0 0 0 .991.655l.26-.053.057-.017a1.941 1.941 0 0 1 2.046 1.008 2.281 2.281 0 0 1 .119 1.91z"/><path fill="#27130d" d="M71.528 98.223H80.2L75.865 83.77zm10.511-3.482 2.577-8.848-6.4-3.887zm-4.793-16.549 9.7 5.9a1.378 1.378 0 0 1 .61 1.561L83.9 98.223h14.67L87.176 77.609 77.338 59.8zM56.319 86.8l5.815-10.52 2.093-3.788-.99-1.2a1.383 1.383 0 0 1 1.021-2.316h1.91l1.659-3-5.743-6.941-.227-.275a1.383 1.383 0 0 1 1.022-2.315h4.675l-6.849-8.278-7.658-9.255-7.657 9.255-6.849 8.278h4.676a1.381 1.381 0 0 1 1.064 2.262l-.27.326-8.226 9.947h6.054a1.381 1.381 0 0 1 1.061 2.263l-1.768 2.137L30.03 86.8h26.289zm2.065 1.972a1.371 1.371 0 0 1-.085.154l-5.135 9.294h15.481l5.843-19.477.1-19.291-3.862 6.99a1.88 1.88 0 0 1-.048.087l-2.488 4.498-.01.019-1.06 1.92a1.436 1.436 0 0 1-.043.078l-2.523 4.566zm-8.517 9.448h.142l4.782-8.654H49.07v7.847a.806.806 0 0 0 .238.569.8.8 0 0 0 .559.241zM97.423 30.8a4.561 4.561 0 0 0-7.349 2.617l-.017.07a1.378 1.378 0 0 1-1.68.988 3.234 3.234 0 0 0-.292-.061L88 34.405a3.225 3.225 0 0 0-.4-.025 3.074 3.074 0 0 0-2.183.9l-.006.006a3.1 3.1 0 0 0 0 4.366l.006.006a3.074 3.074 0 0 0 2.183.9h13.878a3.074 3.074 0 0 0 2.183-.9l.006-.006a3.1 3.1 0 0 0 0-4.366l-.006-.006a3.074 3.074 0 0 0-2.183-.9 3.229 3.229 0 0 0-.4.025 3.047 3.047 0 0 0-.376.073l-.07.016a1.378 1.378 0 0 1-1.626-1.075 4.555 4.555 0 0 0-1.583-2.619zm-2.881-3.787a7.332 7.332 0 0 1 6.8 4.605h.144a5.835 5.835 0 0 1 4.133 1.715l.005.006a5.839 5.839 0 0 1-.005 8.261l-.005.006a5.837 5.837 0 0 1-4.128 1.709H87.6a5.836 5.836 0 0 1-4.133-1.714l-.006-.006a5.839 5.839 0 0 1 .006-8.261l.006-.006a5.836 5.836 0 0 1 4.127-1.714h.144a7.332 7.332 0 0 1 6.8-4.605zM31.4 36.277a2.509 2.509 0 0 0-4.042 1.438l-.015.065a1.377 1.377 0 0 1-1.674.994 1.568 1.568 0 0 0-.2-.037 1.943 1.943 0 0 0-.2-.007 1.539 1.539 0 0 0-1.091.452 1.545 1.545 0 0 0 1.094 2.636h9.082a1.547 1.547 0 0 0 1.146-2.586l-.053-.05a1.538 1.538 0 0 0-1.091-.452 1.941 1.941 0 0 0-.2.007c-.053.007-.1.016-.152.027s-.072.019-.108.027a1.378 1.378 0 0 1-1.626-1.075 2.5 2.5 0 0 0-.87-1.439zm-1.585-3.326a5.28 5.28 0 0 1 4.76 3.018 4.3 4.3 0 0 1 2.828 1.257.855.855 0 0 1 .087.1 4.306 4.306 0 0 1-3.133 7.26h-9.081a4.3 4.3 0 0 1-3.046-7.35 4.3 4.3 0 0 1 2.828-1.257 5.28 5.28 0 0 1 4.76-3.018zM18.4 100.989a1.383 1.383 0 0 1 0-2.766h28a3.549 3.549 0 0 1-.092-.807v-7.847H27.093a1.383 1.383 0 0 1-1.021-2.316L38.9 71.746h-6.052a1.383 1.383 0 0 1-1.021-2.316l8.455-10.219H35.6a1.383 1.383 0 0 1-1.016-2.311l8.679-10.49 8.722-10.542a1.382 1.382 0 0 1 1.945-.183 1.416 1.416 0 0 1 .183.183l8.722 10.542 8.722 10.541a1.381 1.381 0 0 1-1.064 2.262h-4.678l3.447 4.167 5.024-9.094-1.886-3.418a1.38 1.38 0 0 1 2.42-1.329l1.055 1.91 1.056-1.91a1.381 1.381 0 0 1 2.42 1.329l-1.9 3.435 1.841 3.331L89.6 76.28l12.12 21.943h7.88a1.383 1.383 0 0 1 0 2.766H18.4z"/><path fill="#fff6dc" fill-rule="evenodd" d="M87.558 85.648 83.9 98.223h14.67L77.338 59.8l-.092 18.388 9.7 5.9a1.38 1.38 0 0 1 .612 1.56z"/><path fill="#eb7f53" fill-rule="evenodd" d="M82.039 94.741 84.616 85.893 78.219 82.006 82.039 94.741z"/><path fill="#fff6dc" fill-rule="evenodd" d="M68.645 98.223 74.488 78.747 74.584 59.456 58.384 88.775 58.299 88.929 53.164 98.223 68.645 98.223z"/><path fill="#fff6dc" fill-rule="evenodd" d="M75.865 83.77 71.528 98.223 80.201 98.223 75.865 83.77z"/><path fill="#fff6dc" fill-rule="evenodd" d="m56.319 86.8 7.908-14.311c-.588-.711-1.352-1.4-1.352-2.13a1.383 1.383 0 0 1 1.383-1.383h1.91l1.659-3-5.97-7.216a1.383 1.383 0 0 1 1.022-2.315h4.675L53.048 38.912 38.542 56.445h4.676a1.383 1.383 0 0 1 1.064 2.262l-8.5 10.271h6.054a1.383 1.383 0 0 1 1.064 2.265L30.03 86.8z"/><path fill="#eb7f53" fill-rule="evenodd" d="M54.791 89.569H49.07v7.847a.827.827 0 0 0 .236.572l.562.236h.142zM87.6 40.555h13.878a3.088 3.088 0 1 0-.4-6.15l-.446.089a1.378 1.378 0 0 1-1.626-1.075 4.563 4.563 0 0 0-8.952.07 1.378 1.378 0 0 1-1.68.988 3.091 3.091 0 1 0-.775 6.081z"/></svg>