<svg xmlns="http://www.w3.org/2000/svg" data-name="Layer 1" viewBox="0 0 128 128"><path fill="#27130d" d="M98.953 30.324H29.047a6.755 6.755 0 0 0-6.731 6.731v.782a6.767 6.767 0 0 0 4.791 6.444h.007l.049.014H27.176a6.689 6.689 0 0 0 1.682.264h70.284a6.757 6.757 0 0 0 6.542-6.729v-.782a6.756 6.756 0 0 0-6.731-6.731zm-20.5 43.74V80.8a3.6 3.6 0 0 0 7.191 0v-8.709a3.6 3.6 0 0 0-7.191 0zm-36.1 0V80.8a3.6 3.6 0 0 0 7.191 0v-8.709a3.6 3.6 0 0 0-7.191 0zm-12.168-1.7h.006l.019.009h.01a3.469 3.469 0 0 0 1.25.288h8.1v-.589a6.362 6.362 0 0 1 12.724 0v.589h23.392v-.589a6.362 6.362 0 0 1 12.724 0v.589h8.105a3.518 3.518 0 0 0 3.36-3.5V47.29q-.3.029-.606.039H28.731c-.2-.007-.406-.02-.606-.039v21.887a3.494 3.494 0 0 0 1.03 2.473 3.54 3.54 0 0 0 1.033.718zm-1.925 28.24V81.979h-4.911A5.365 5.365 0 0 0 18 87.325v11.529a1.762 1.762 0 0 0 1.753 1.753zm71.477-18.625v18.628h8.507A1.752 1.752 0 0 0 110 98.854V87.325a5.33 5.33 0 0 0-1.572-3.774 5.326 5.326 0 0 0-3.775-1.566zM54.429 27.557h19.142a9.824 9.824 0 0 0-19.142 0zm8.188 80.491v-32.6h-10.3V80.8a6.362 6.362 0 0 1-12.724 0v-5.354h-8.274c-.1 0-.194-.012-.29-.021v26.565a6.079 6.079 0 0 0 6.057 6.058zm2.766-32.6v32.6h25.53a6.079 6.079 0 0 0 6.058-6.058V75.418c-.074.007-.149.012-.224.017H88.41V80.8a6.362 6.362 0 0 1-12.724 0v-5.354zm34.354-.985v4.752h4.914a8.089 8.089 0 0 1 5.727 2.385 8.09 8.09 0 0 1 2.382 5.73v11.524a4.5 4.5 0 0 1-1.326 3.187l-.006.006a4.5 4.5 0 0 1-3.187 1.326h-8.613a8.852 8.852 0 0 1-8.715 7.44H37.086a8.852 8.852 0 0 1-8.715-7.44h-8.615a4.529 4.529 0 0 1-4.519-4.519V87.325a8.132 8.132 0 0 1 8.112-8.112h4.914v-4.752a6.332 6.332 0 0 1-1.064-.856 6.252 6.252 0 0 1-1.841-4.429v-22.59a9.541 9.541 0 0 1-5.809-8.749v-.782a9.522 9.522 0 0 1 9.5-9.5h22.563a12.585 12.585 0 0 1 24.775 0h22.566a9.522 9.522 0 0 1 9.5 9.5v.782a9.543 9.543 0 0 1-5.809 8.749v22.591a6.251 6.251 0 0 1-1.841 4.429 6.342 6.342 0 0 1-1.066.855z"/><path fill="#eb7f53" fill-rule="evenodd" d="M29.047 44.569h69.922a6.756 6.756 0 0 0 6.715-6.731c0-2.222-.319-3.876-1.979-5.535a6.71 6.71 0 0 0-4.753-1.979H29.047a6.755 6.755 0 0 0-6.731 6.731c0 2.222.319 3.877 1.978 5.535a6.713 6.713 0 0 0 4.753 1.979z"/><path fill="#fff6dc" fill-rule="evenodd" d="M99.2 47.331H28.806l-.679-.042v21.888a3.519 3.519 0 0 0 2.063 3.191l1.44.313h7.96a6.451 6.451 0 0 1 1.868-5.081 6.366 6.366 0 0 1 10.856 4.494v.589h23.372a6.45 6.45 0 0 1 1.868-5.083 6.366 6.366 0 0 1 10.856 4.491v.589h8.034a3.517 3.517 0 0 0 3.432-3.5V47.29z"/><path fill="#eb7f53" fill-rule="evenodd" d="M49.547 72.091a3.6 3.6 0 0 0-6.134-2.538c-1.292 1.292-1.057 2.723-1.057 4.511V80.8a3.6 3.6 0 0 0 7.191 0z"/><path fill="#fff6dc" fill-rule="evenodd" d="M52.314 80.8a6.362 6.362 0 0 1-12.724 0v-5.354h-8.075l-.486-.028v26.572a6.079 6.079 0 0 0 6.057 6.058h25.53v-32.6h-10.3zM65.383 75.446v32.6h25.53a6.079 6.079 0 0 0 6.058-6.058v-26.57l-.6.029H88.41V80.8a6.362 6.362 0 0 1-12.724 0v-5.354z"/><path fill="#eb7f53" fill-rule="evenodd" d="M78.452 74.063V80.8a3.6 3.6 0 0 0 7.191 0v-8.709a3.6 3.6 0 0 0-6.134-2.538c-1.291 1.292-1.057 2.723-1.057 4.51zM99.737 81.979v18.628h8.507A1.753 1.753 0 0 0 110 98.854V87.325a5.356 5.356 0 0 0-5.346-5.346zM28.263 100.607V81.979h-4.914A5.365 5.365 0 0 0 18 87.325v11.529a1.762 1.762 0 0 0 1.753 1.753z"/></svg>