<svg id="Layer_1" data-name="Layer 1" xmlns="http://www.w3.org/2000/svg" viewBox="0 0 128 128"><title>Artboard 8</title><path d="M36.261,41.119a1.93,1.93,0,0,1-1.9,1.237H25.276a2.039,2.039,0,0,1-1.458-.6,2.139,2.139,0,0,1-.625-1.5A2.042,2.042,0,0,1,23.8,38.8l.24-.142,1.487-.4.268,0,.031.007a.827.827,0,0,0,.619-.1.871.871,0,0,0,.379-.533h0l0-.018h0a3,3,0,0,1,.616-1.306,3.082,3.082,0,0,1,2.992-1.063,3.008,3.008,0,0,1,1.3.621,3.06,3.06,0,0,1,.682.785,3.017,3.017,0,0,1,.378.964.842.842,0,0,0,.991.655l.26-.053L34.1,38.2a1.941,1.941,0,0,1,2.046,1.008,2.281,2.281,0,0,1,.119,1.91Z" style="fill:#eb7f53;fill-rule:evenodd"/><path d="M71.528,98.223H80.2L75.865,83.77Zm10.511-3.482,2.577-8.848-6.4-3.887ZM77.246,78.192l9.7,5.9a1.378,1.378,0,0,1,.61,1.561h0L83.9,98.223h14.67L87.176,77.609,77.338,59.8ZM56.319,86.8,62.134,76.28l2.093-3.788-.99-1.2a1.383,1.383,0,0,1,1.021-2.316h1.91l1.659-3-5.743-6.941-.227-.275a1.383,1.383,0,0,1,1.022-2.315h4.675l-6.849-8.278-7.658-9.255-7.657,9.255-6.849,8.278h4.676v0a1.381,1.381,0,0,1,1.064,2.262l-.27.326L35.785,68.98h6.054v0A1.381,1.381,0,0,1,42.9,71.243l-1.768,2.137L30.03,86.8H56.319Zm2.065,1.972a1.371,1.371,0,0,1-.085.154l-5.135,9.294H68.645l5.843-19.477.1-19.291-3.862,6.99c-.015.029-.031.058-.048.087h0L68.19,71.027l-.01.019L67.12,72.966c-.014.027-.028.053-.043.078l-2.523,4.566Zm-8.517,9.448h.142l4.782-8.654H49.07v7.847a.806.806,0,0,0,.238.569l0,0,0,0A.8.8,0,0,0,49.867,98.223ZM97.423,30.8a4.561,4.561,0,0,0-7.349,2.617l-.017.07a1.378,1.378,0,0,1-1.68.988c-.1-.025-.195-.046-.292-.061L88,34.405a3.225,3.225,0,0,0-.4-.025,3.074,3.074,0,0,0-2.183.9l-.006.006a3.1,3.1,0,0,0,0,4.366l.006.006a3.074,3.074,0,0,0,2.183.9h13.878a3.074,3.074,0,0,0,2.183-.9l.006-.006a3.1,3.1,0,0,0,0-4.366l-.006-.006a3.074,3.074,0,0,0-2.183-.9,3.229,3.229,0,0,0-.4.025v0a3.047,3.047,0,0,0-.376.073l-.07.016a1.378,1.378,0,0,1-1.626-1.075A4.555,4.555,0,0,0,97.423,30.8Zm-2.881-3.787a7.332,7.332,0,0,1,6.8,4.605l.144,0a5.835,5.835,0,0,1,4.133,1.715l0,0,0,0,.005.006a5.839,5.839,0,0,1-.005,8.261l0,0,0,0-.005.006a5.837,5.837,0,0,1-4.128,1.709H87.6a5.836,5.836,0,0,1-4.133-1.714l0,0,0,0-.006-.006a5.839,5.839,0,0,1,.006-8.261l0,0,0,0,.006-.006A5.836,5.836,0,0,1,87.6,31.614l.144,0a7.332,7.332,0,0,1,6.8-4.605ZM31.4,36.277a2.509,2.509,0,0,0-4.042,1.438h0l-.015.065a1.377,1.377,0,0,1-1.674.994,1.568,1.568,0,0,0-.2-.037,1.943,1.943,0,0,0-.2-.007,1.539,1.539,0,0,0-1.091.452l0,0a1.545,1.545,0,0,0,1.094,2.636h9.082A1.547,1.547,0,0,0,35.5,39.232l-.053-.05a1.538,1.538,0,0,0-1.091-.452,1.941,1.941,0,0,0-.2.007c-.053.007-.1.016-.152.027s-.072.019-.108.027a1.378,1.378,0,0,1-1.626-1.075A2.5,2.5,0,0,0,31.4,36.277Zm-1.585-3.326a5.28,5.28,0,0,1,4.76,3.018,4.3,4.3,0,0,1,2.828,1.257c.031.031.059.062.087.1a4.306,4.306,0,0,1-3.133,7.26H25.276a4.3,4.3,0,0,1-3.046-7.35l0,0,0,0a4.3,4.3,0,0,1,2.828-1.257,5.28,5.28,0,0,1,4.76-3.018ZM18.4,100.989a1.383,1.383,0,0,1,0-2.766H46.4a3.549,3.549,0,0,1-.092-.807V89.569H27.093a1.383,1.383,0,0,1-1.021-2.316L38.9,71.746H32.848a1.383,1.383,0,0,1-1.021-2.316l8.455-10.219H35.6A1.383,1.383,0,0,1,34.584,56.9l8.679-10.49,8.722-10.542a1.382,1.382,0,0,1,1.945-.183,1.416,1.416,0,0,1,.183.183l8.722,10.542,8.722,10.541a1.381,1.381,0,0,1-1.064,2.262v0H65.815l3.447,4.167,5.024-9.094L72.4,50.868a1.38,1.38,0,0,1,2.42-1.329l1.055,1.91,1.056-1.91a1.381,1.381,0,0,1,2.42,1.329l-1.9,3.435,1.841,3.331L89.6,76.28,101.72,98.223H109.6a1.383,1.383,0,0,1,0,2.766H18.4Z" style="fill:#27130d"/><path d="M87.558,85.648,83.9,98.223h14.67L77.338,59.8l-.092,18.388,9.7,5.9A1.38,1.38,0,0,1,87.558,85.648Z" style="fill:#fff6dc;fill-rule:evenodd"/><polygon points="82.039 94.741 84.616 85.893 78.219 82.006 82.039 94.741" style="fill:#eb7f53;fill-rule:evenodd"/><polygon points="68.645 98.223 74.488 78.747 74.584 59.456 58.384 88.775 58.299 88.929 53.164 98.223 68.645 98.223" style="fill:#fff6dc;fill-rule:evenodd"/><polygon points="75.865 83.77 71.528 98.223 80.201 98.223 75.865 83.77" style="fill:#fff6dc;fill-rule:evenodd"/><path d="M56.319,86.8l7.908-14.311c-.588-.711-1.352-1.4-1.352-2.13a1.383,1.383,0,0,1,1.383-1.383h1.91l1.659-3-5.97-7.216a1.383,1.383,0,0,1,1.022-2.315h4.675L53.048,38.912,38.542,56.445l4.676,0a1.383,1.383,0,0,1,1.064,2.262l-8.5,10.271,6.054,0A1.383,1.383,0,0,1,42.9,71.243L30.03,86.8Z" style="fill:#fff6dc;fill-rule:evenodd"/><path d="M54.791,89.569H49.07v7.847a.827.827,0,0,0,.236.572l.562.236h.142Z" style="fill:#eb7f53;fill-rule:evenodd"/><path d="M87.6,40.555h13.878a3.088,3.088,0,1,0-.4-6.15v0l-.446.089a1.378,1.378,0,0,1-1.626-1.075,4.563,4.563,0,0,0-8.952.07,1.378,1.378,0,0,1-1.68.988,3.091,3.091,0,1,0-.775,6.081Z" style="fill:#eb7f53;fill-rule:evenodd"/></svg>