<svg id="Layer_1" data-name="Layer 1" xmlns="http://www.w3.org/2000/svg" viewBox="0 0 128 128"><title>Artboard 13</title><path d="M86.028,66.878a72.95,72.95,0,0,0-14.011-1.19,72.953,72.953,0,0,0-14.011,1.19c-2.971.614-4.81,1.2-4.81,1.6s1.839.987,4.81,1.6a72.945,72.945,0,0,0,14.011,1.19,72.941,72.941,0,0,0,14.011-1.19c2.971-.613,4.81-1.2,4.81-1.6S89,67.492,86.028,66.878ZM55.1,98.287a13.3,13.3,0,0,0,.9-4.046c.184-2.15-.017-4.375-.877-5.543l-15.258-6.8a19.878,19.878,0,0,1-1.578,5.845q-.042.088-.086.173Zm35.471-26.7h0q-.138.06-.281.118l-.006,0-.051.021-.1.039-.019.008-.118.045-.015.006-.045.017-.109.04-.012,0c-.152.056-.309.11-.469.164l-.031.011-.127.041h0l0,0-.061.02-.066.021-.042.013-.024.008-.134.041-.014,0-.054.016-.12.036-.016,0-.069.02-.069.02-.024.007-.046.013-.07.019-.063.018-.007,0-.071.019-.071.019-.033.009-.038.01-.072.019-.072.019h0l-.07.018L87.8,72.5l-.044.011-.029.007-.074.018-.074.018-.013,0-.062.015-.075.018-.055.013-.02,0-.076.018-.076.017-.023,0-.053.012-.077.018-.067.015-.01,0-.077.017-.078.017-.034.008-.045.01-.079.017-.079.016a75.586,75.586,0,0,1-14.562,1.255,75.587,75.587,0,0,1-14.562-1.255l-.079-.016-.079-.017-.044-.01-.034-.008-.078-.017-.077-.017-.01,0-.067-.015-.077-.018-.053-.012-.023,0-.076-.017-.075-.018-.02,0-.055-.013-.075-.018-.062-.015-.013,0-.074-.018-.074-.018-.029-.007-.044-.011-.073-.018-.07-.018h0l-.072-.019-.072-.019-.038-.01-.034-.009-.071-.019-.071-.019-.007,0-.064-.018-.07-.019-.046-.013-.024-.007-.069-.02-.069-.02-.015,0-.12-.036-.054-.016-.014,0-.134-.041-.024-.008-.042-.013-.066-.021-.061-.02,0,0h0l-.126-.041-.031-.011q-.241-.08-.469-.164l-.012,0-.109-.04-.046-.017-.014-.006-.118-.045-.019-.008-.1-.039-.051-.021-.006,0c-.1-.039-.189-.078-.281-.118h0c-.092-.039-.181-.08-.269-.12V84.821h0l3.271,1.459a1.368,1.368,0,0,1,.523.355c.056.061.107.119.152.172l0,0,0,0c1.463,1.755,1.854,4.821,1.611,7.655s-1.162,5.589-2.293,6.628v0l-.026.023-.012.011a1.381,1.381,0,0,1-1.673.182l-1.552-.953h0v5.186H90.838V71.469Q90.706,71.53,90.569,71.589ZM81.314,48.562a33.34,33.34,0,0,1,5.139-9.22.3.3,0,0,0,.046-.081.686.686,0,0,0-.068-.472,2.012,2.012,0,0,0-.612-.762,1.826,1.826,0,0,0-.481-.272L79.2,35.518l-6.138-2.237a1.8,1.8,0,0,0-.544-.1,2.034,2.034,0,0,0-.965.191.678.678,0,0,0-.352.312.307.307,0,0,0-.018.093,33.348,33.348,0,0,1-2,10.366,29.476,29.476,0,0,1-3.067,6.029c1.153,1.3,3.685,2.667,6.408,3.659s5.545,1.578,7.266,1.322A29.329,29.329,0,0,1,81.314,48.562ZM67.6,39.86a30.89,30.89,0,0,0,.6-3.37c-5.569-1.84-11.261-3.762-16.552-5.756a107.322,107.322,0,0,1-14.581-6.5A19.455,19.455,0,0,1,35.3,23.082a5.873,5.873,0,0,0-.908-.587c-.043-.016-.172.649-1.1,3.184-2.278,6.253-3.062,7.861-2.981,7.891a7.5,7.5,0,0,0,1.257-.133c.33-.046.686-.1.947-.127h.005c5.407-.637,11.481.039,17.753,1.435a150.705,150.705,0,0,1,17.307,5.166Zm16.489,9.158q-.089.236-.173.472a26.755,26.755,0,0,0-1.466,6.753c0,.031,0,.061,0,.092q-.046.559-.063.94-.013.287-.021.551v.257h0v.138l0,.116-.006.113-.009.111-.012.109-.014.106h0l-.017.1h0l-.02.1h0l-.022.1h0l-.025.1h0l-.028.1h0c-.02.063-.041.125-.064.186h0l-.036.09-.038.088h0l-.041.085h0a2.756,2.756,0,0,1-.417.613h0l-.062.068h0c-.043.044-.087.087-.132.13l-.07.062h0c-.047.041-.1.08-.145.118h0l-.076.056h0l-.078.055h0q-.08.053-.163.1h0l-.084.049h0l-.086.047h0l-.089.045c-.089.044-.182.086-.278.125h0l-.1.038h0l-.1.036h0l-.1.035-.1.033-.1.031h0l-.105.029-.107.028-.109.026-.111.025-.112.023-.114.021h0l-.115.02-.117.018-.119.016-.12.015-.122.013-.124.011-.125.01-.126.008-.128.006-.129.005-.131,0-.132,0h-.267l-.1,0-.1,0-.1,0-.1,0-.1,0-.1-.006-.1-.006-.1-.007-.1-.008-.1-.009-.105-.01-.106-.01-.106-.011-.107-.012-.108-.013-.108-.013-.109-.014h0l-.109-.015-.11-.016-.11-.016-.111-.017-.111-.018L75,61.411l-.112-.019-.112-.02h0l-.112-.021-.113-.021-.114-.022-.114-.022-.114-.023-.115-.024-.115-.025h0l-.115-.025h0l-.115-.026h0l-.116-.026-.116-.027h0l-.116-.028-.116-.028-.116-.029h0L73.049,61h0l-.117-.03h0l-.117-.03h0L72.7,60.9h0l-.117-.032h0l-.117-.032h0l-.117-.033h0l-.117-.033-.118-.034-.118-.035h0l-.117-.035h0l-.117-.036h0L71.64,60.6l-.118-.037h0l-.117-.037h0l-.117-.038h0l-.117-.038h0l-.117-.039h0l-.117-.039h0l-.117-.04h0l-.117-.04h0l-.117-.04h0l-.116-.041h0l-.116-.042h0l-.116-.042h0l-.116-.043h0L70,60.039h0L69.884,60h0l-.116-.044h0l-.116-.044h0l-.115-.045h0l-.115-.045h0l-.115-.046-.115-.046h0l-.114-.047h0l-.114-.047-.114-.048h0l-.113-.048-.113-.048h0l-.113-.049-.113-.049-.112-.049h0l-.112-.05h0l-.111-.051h0l-.111-.051-.11-.051h0l-.11-.052-.109-.052h0l-.109-.052-.108-.052h0l-.108-.053-.107-.053-.107-.054-.106-.054h0l-.105-.054h0l-.1-.054h0l-.1-.055-.1-.055h0l-.1-.056-.1-.055h0l-.1-.056-.1-.056h0l-.1-.056h0l-.1-.056h0l-.1-.057h0l-.1-.057-.1-.057h0l-.1-.058-.1-.058-.095-.058h0l-.094-.058-.093-.059h0l-.092-.059h0L65,57.576h0l-.09-.059h0l-.089-.059-.089-.06h0l-.087-.059-.087-.06-.085-.06h0l-.085-.06L64.3,57.1l-.082-.061-.081-.061-.08-.061-.08-.061-.078-.061-.077-.061-.076-.062c-2.234-1.827-3.149-3.878-1.576-5.8l.01-.013.01-.013.01-.013.01-.013.01-.013.01-.013.01-.013.01-.013.005-.007,0-.006.01-.012.01-.013.01-.012.01-.013a26.877,26.877,0,0,0,4.3-7.524q.114-.307.221-.618a148.706,148.706,0,0,0-17.133-5.126C43.7,36.1,37.936,35.455,32.848,36.053h0c-.4.047-.657.083-.893.116a5.369,5.369,0,0,1-2.576-.008c-2.2-.8-1.695-3.129,1.328-11.424,1.682-4.614,2.7-5.54,4.628-4.836a6.831,6.831,0,0,1,1.566.933,17.326,17.326,0,0,0,1.529,1,104.877,104.877,0,0,0,14.193,6.313c4.961,1.87,10.417,3.719,15.806,5.5a3.038,3.038,0,0,1,.179-.912A3.37,3.37,0,0,1,70.332,30.9a4.815,4.815,0,0,1,2.294-.472A4.572,4.572,0,0,1,74,30.689l6.138,2.237,6.138,2.237a4.6,4.6,0,0,1,1.226.683,4.827,4.827,0,0,1,1.455,1.842,3.365,3.365,0,0,1,.133,2.514,3.008,3.008,0,0,1-.172.386,4.1,4.1,0,0,1,2.2,4.021v.006h0a6,6,0,0,1-.343,1.814,5.709,5.709,0,0,1-.9,1.635,3.932,3.932,0,0,1-4.641,1.376ZM79.6,57.908a21.509,21.509,0,0,1-8.022-1.487,21.52,21.52,0,0,1-7.1-4.022l-.176.218c-.328.4.215,1.118,1.187,1.913l.065.053.066.052.067.052.068.052.069.052.07.052.071.052h0l.072.052.073.052.073.052.075.051.076.051.077.052.077.051.078.051.079.051.08.051.081.05.081.051.082.05h0l.083.05h0l.084.05.085.05.085.05.086.049h0l.087.049.087.049h0l.088.049h0L67.75,56h0l.089.048h0l.09.048.09.048.091.048h0l.092.047.093.047h0l.093.047h0l.094.047.094.047h0l.095.046.1.046h0l.1.045h0l.1.045h0l.1.045h0l.1.045h0l.1.044h0l.1.044h0l.1.044h0l.1.043h0l.1.043h0l.1.043h0l.1.042h0l.1.042h0l.1.042h0l.1.042h0l.1.041h0l.1.041h0l.1.04h0l.1.04h0l.1.04h0l.1.039h0l.1.039h0l.1.039h0l.1.038h0l.1.038h0l.1.037h0l.1.037h0l.1.037h0l.1.036h0l.1.036h0l.1.035h0l.1.035h0l.1.035h0l.1.034h0l.1.034h0l.1.033h0l.1.033h0l.1.032h0l.1.032.1.031h0l.1.031h0l.1.031h0l.1.03h0l.1.029h0l.1.029h0l.1.028h0l.1.028.1.027h0l.1.027h0l.1.026.1.026h0l.1.025.1.025.1.024.1.024.1.023.1.023.1.021.1.021.1.021h0l.1.02.1.019h0l.1.019.1.018.1.018.1.017.1.017.1.016.1.015.1.015.095.014.094.014.094.013.093.012.093.011.092.011.091.01.091.01.09.008.089.008.089.007.088.006.088.006.087.005.086,0,.085,0,.084,0,.084,0,.083,0H77.8l.055,0,.054,0h0l.054,0h0l.053,0,.053,0,.052,0,.051,0,.05,0,.05,0,.049,0,.048-.005h0l.047,0,.047-.006.046-.006.045-.006.044-.006.044-.007.043-.007h0l.042-.008h0l.041-.008.04-.009h0l.039-.009.039-.009.038-.01h0l.037-.01.036-.01.035-.01.034-.011.033-.012.032-.012h0l.031-.012.03-.013.029-.013h0l.028-.014h0l.027-.014h0l.026-.014.025-.015h0l.024-.015h0l.023-.016.022-.016.021-.017.02-.017h0l.019-.018.018-.017.016-.018h0l.015-.019.014-.019.013-.02.012-.02.011-.021.01-.021.009-.022.007-.022.006-.022,0-.023,0-.023,0-.024V58.19l0-.153ZM87.283,42.9a30.985,30.985,0,0,0-2.075,3.56l.974.388a1.321,1.321,0,0,0,1.54-.5,2.93,2.93,0,0,0,.455-.835,3.283,3.283,0,0,0,.192-.982,1.443,1.443,0,0,0-.784-1.515ZM72.017,66.935a20.3,20.3,0,0,1,3.28.239c1.262.217,2.043.669,2.043,1.305s-.781,1.088-2.043,1.3a22.658,22.658,0,0,1-6.559,0c-1.262-.217-2.043-.669-2.043-1.3s.781-1.088,2.043-1.305A20.3,20.3,0,0,1,72.017,66.935Zm0-4.013a75.586,75.586,0,0,1,14.562,1.255c4.34.9,7.025,2.4,7.025,4.3v37.063H109.6a1.383,1.383,0,1,1,0,2.766H18.4a1.383,1.383,0,1,1,0-2.766H50.43V98.659L35.411,89.437c-2.71-1.573.121-12.494,3.436-11.015l11.587,5.168,0-15.11c0-1.9,2.685-3.406,7.025-4.3A75.587,75.587,0,0,1,72.017,62.922Z" style="fill:#27130d"/><path d="M55.121,88.7l-15.258-6.8A19.554,19.554,0,0,1,38.2,87.911L55.1,98.287a13.3,13.3,0,0,0,.9-4.046C56.183,92.092,55.982,89.866,55.121,88.7Z" style="fill:#eb7f53;fill-rule:evenodd"/><path d="M57.14,86.809c2.751,3.056,1.8,12.008-.68,14.285a1.39,1.39,0,0,1-1.711.216l-1.552-.953v5.186H90.838V71.469l-.269.12-3.99,1.192c-7.572,1.56-22.95,1.923-31.194-.51l-2.188-.8V84.821c.187.187,3.321,1.3,3.795,1.814Z" style="fill:#eb7f53;fill-rule:evenodd"/><path d="M66.695,68.479c0-1.466,3.933-1.544,5.322-1.544,6.83,0,6.169,2.352,3.28,2.849C73.8,70.041,66.695,70.475,66.695,68.479Zm-8.689,1.6a83.069,83.069,0,0,0,28.022,0c2.971-.613,4.81-1.2,4.81-1.6s-1.839-.988-4.81-1.6a83.072,83.072,0,0,0-28.022,0c-2.971.614-4.81,1.2-4.81,1.6S55.035,69.467,58.006,70.08Z" style="fill:#fff6dc;fill-rule:evenodd"/><path d="M70.556,57.3c2.2.856,5.789,1.9,8.086,1.523l.85-.354.113-.559c-4.5.275-11.853-2.406-15.12-5.509-.435.537-.432.955,1.011,2.131l2.254,1.475,1.018.519Z" style="fill:#fff6dc;fill-rule:evenodd"/><path d="M66.115,50.169c2.311,2.61,10.228,5.494,13.675,4.981a29.329,29.329,0,0,1,1.525-6.589,37.52,37.52,0,0,1,5.185-9.3c.15-.42-.5-1.265-1.161-1.506L73.062,33.282c-.748-.273-1.861.046-1.878.493A31.353,31.353,0,0,1,66.115,50.169Z" style="fill:#eb7f53;fill-rule:evenodd"/><path d="M32.524,33.31c10.9-1.282,24.414,2.826,35.065,6.6l.014-.05a30.89,30.89,0,0,0,.6-3.37c-8.767-2.9-26.216-8.642-32.9-13.408a5.873,5.873,0,0,0-.908-.587c-.043-.016-.172.649-1.1,3.184-2.278,6.253-3.062,7.861-2.981,7.891Z" style="fill:#fff6dc;fill-rule:evenodd"/><path d="M87.283,42.9a30.985,30.985,0,0,0-2.075,3.56c.94.374,1.728.876,2.514-.113.766-.963,1.006-2.9-.138-3.332Z" style="fill:#fff6dc;fill-rule:evenodd"/></svg>