<svg xmlns="http://www.w3.org/2000/svg" data-name="Layer 1" viewBox="0 0 128 128"><path fill="#27130d" d="m109.455 84.708-24.136-18.72a1.405 1.405 0 0 1-.152-.116 1.765 1.765 0 0 0-2.349.3 1.467 1.467 0 0 1-.118.149L68.317 84.859a1.765 1.765 0 0 0 .322 2.449l24.136 18.721a1.345 1.345 0 0 1 .152.116 1.766 1.766 0 0 0 2.349-.3 1.352 1.352 0 0 1 .118-.148l.981-1.266-3.279-2.543a1.439 1.439 0 0 1-.2-.16 3.217 3.217 0 0 1-.542-4.291 1.372 1.372 0 0 1 .153-.2l8.306-10.709v-.008l.056-.072a3.215 3.215 0 0 1 4.385-.656l.038.024.072.054 3.369 2.612 1.046-1.347a1.765 1.765 0 0 0-.308-2.467zM90.471 77.86l-5.935-4.6-8.99 11.591 5.936 4.6zm-4.485-6.969 6.414 4.973a2.462 2.462 0 0 1 .44 3.446l-9.362 12.066a2.454 2.454 0 0 1-1.635.926 2.446 2.446 0 0 1-1.811-.492l-6.412-4.967a2.454 2.454 0 0 1-.926-1.635 2.448 2.448 0 0 1 .492-1.811l9.354-12.066a2.457 2.457 0 0 1 1.635-.931 2.448 2.448 0 0 1 1.811.491zm-17.552 9.318 1.8-2.318 9.509-12.26-56.428-43.765a1.773 1.773 0 0 0-2.461.311v.006L19.9 23.4l1.621-.349a1.381 1.381 0 0 1 1.595 1.791l-.938 3.367 3.456-.55a1.379 1.379 0 0 1 1.549 1.714l-.87 3.585 3.31-.669a1.377 1.377 0 0 1 1.593 1.734l-1 3.428 3.505-.554a1.378 1.378 0 0 1 1.533 1.75l-1.071 3.61 4.054-.284a1.38 1.38 0 0 1 1.4 1.817l-1 3.573 3.969-.392A1.379 1.379 0 0 1 44.1 48.63l-.777 4.2 4.256-.25a1.38 1.38 0 0 1 1.458 1.3 1.361 1.361 0 0 1-.016.308l-.771 4.571 4.434-.309a1.38 1.38 0 0 1 1.446 1.644l-.748 4.419 4.833.082a1.378 1.378 0 0 1 1.356 1.4 1.363 1.363 0 0 1-.055.367l-1.143 3.878 4.468-.169a1.38 1.38 0 0 1 1.412 1.582l-.653 4.864 4.589-.373a1.382 1.382 0 0 1 1.328 2.025zm18.491-16.465 24.216 18.782a4.527 4.527 0 0 1 .8 6.334l-1.888 2.44a1.379 1.379 0 0 1-1.934.248l-4.38-3.4a1.4 1.4 0 0 1-.121-.091.455.455 0 0 0-.55.067 1.345 1.345 0 0 1-.1.129l-8.369 10.79a.453.453 0 0 0-.091.333.444.444 0 0 0 .167.3l.006.005 4.45 3.451a1.379 1.379 0 0 1 .248 1.934l-1.892 2.44-.023.029a4.527 4.527 0 0 1-6.31.775l-.006-.005-24.223-18.779a4.533 4.533 0 0 1-1.394-5.326l-.766-.883a1.383 1.383 0 0 1-.248-1.631l1.374-2.586-3.776.307a1.378 1.378 0 0 1-1.474-1.552l.665-4.966-4.682.178a1.38 1.38 0 0 1-1.44-1.767l1.172-3.982-4.543-.077a1.4 1.4 0 0 1-.289-.017 1.381 1.381 0 0 1-1.135-1.588l.73-4.31-4.434.309a1.381 1.381 0 0 1-1.453-1.6l.775-4.591-4.282.252a1.379 1.379 0 0 1-1.437-1.624l.771-4.172-4.135.408a1.379 1.379 0 0 1-1.48-1.738l1.035-3.7-4.089.286a1.38 1.38 0 0 1-1.415-1.765l1.016-3.424-3.45.546a1.378 1.378 0 0 1-1.575-1.739l.967-3.327-3.139.634a1.379 1.379 0 0 1-1.672-1.662l.9-3.706-3.5.556a1.379 1.379 0 0 1-1.578-1.723l.921-3.31-3.089.665A1.379 1.379 0 0 1 15.4 24.7l3.2-4.125a1.4 1.4 0 0 1 .151-.191 4.535 4.535 0 0 1 6.145-.777 1.368 1.368 0 0 1 .191.146L81.6 63.585a4.531 4.531 0 0 1 5.316.154z"/><path fill="#eb7f53" fill-rule="evenodd" d="M92.4 75.864a2.462 2.462 0 0 1 .44 3.446l-9.362 12.072a2.467 2.467 0 0 1-3.446.434l-6.416-4.972a2.468 2.468 0 0 1-.434-3.446l9.358-12.067a2.462 2.462 0 0 1 3.446-.44zm17.72 10.011a1.748 1.748 0 0 0-.661-1.167L85.166 65.872a1.762 1.762 0 0 0-2.467.444L68.288 84.9a1.766 1.766 0 0 0 .322 2.449l24.136 18.721c1.8 1.287 2.714-.451 3.6-1.594l-3.48-2.7a3.214 3.214 0 0 1-.39-4.493l8.312-10.717a3.2 3.2 0 0 1 4.482-.705l3.445 2.67c.731-.948 1.526-1.666 1.401-2.656z"/><path fill="#fff6dc" fill-rule="evenodd" d="m68.434 80.209 11.307-14.578-56.426-43.765a1.77 1.77 0 0 0-2.471.313L19.9 23.4l1.621-.349a1.38 1.38 0 0 1 1.595 1.791l-.938 3.367 3.456-.55a1.379 1.379 0 0 1 1.549 1.714l-.87 3.585 3.31-.669a1.379 1.379 0 0 1 1.594 1.734l-1 3.428 3.505-.554a1.386 1.386 0 0 1 1.534 1.75l-1.071 3.61 4.054-.284a1.379 1.379 0 0 1 1.4 1.817l-1 3.573 3.969-.392A1.378 1.378 0 0 1 44.1 48.63l-.777 4.2 4.256-.25a1.382 1.382 0 0 1 1.442 1.6l-.771 4.571 4.434-.309a1.38 1.38 0 0 1 1.446 1.644l-.748 4.419 4.833.082a1.381 1.381 0 0 1 1.3 1.766l-1.142 3.887 4.468-.169a1.379 1.379 0 0 1 1.412 1.582l-.653 4.864 4.589-.373a1.384 1.384 0 0 1 1.329 2.025z"/></svg>