<svg xmlns="http://www.w3.org/2000/svg" data-name="Layer 1" viewBox="0 0 128 128"><path fill="#27130d" d="M74.064 42.149H40.319v4.7h33.745zm0 7.468H40.319v50.247a1.763 1.763 0 0 0 1.731 1.753h20.565l-.021-.016-.026-.019-.025-.019-.025-.019-.025-.019-.025-.019-.023-.018-.025-.019-.025-.02-.025-.019-.025-.02-.009-.007-.016-.013-.025-.02-.025-.02-.025-.02-.025-.02-.016-.013-.009-.008-.025-.02-.025-.02-.025-.02-.025-.02-.049-.041-.024-.02-.025-.02-.024-.02-.049-.041-.024-.021-.024-.021-.032-.025-.024-.021-.01-.008-.014-.012-.024-.021-.024-.021-.024-.021-.024-.021-.016-.014-.007-.007-.024-.021-.024-.021-.024-.021-.024-.021-.022-.02-.024-.022-.024-.022-.023-.021-.024-.022-.023-.022h-.005l-.018-.017-.023-.022-.023-.022-.023-.022-.023-.022-.011-.01-.012-.012-.023-.022-.023-.022-.023-.022-.023-.022-.017-.017-.006-.006-.022-.022-.023-.022-.023-.023-.022-.022-.023-.023a13.919 13.919 0 0 1-4.1-9.86V71.466a6.789 6.789 0 0 1 6.773-6.773h10.316zM40.319 39.383h33.745v-1.839A11.2 11.2 0 0 0 62.9 26.383H51.481a11.2 11.2 0 0 0-11.162 11.161zm-2.766 7.468v-4.7h-5.324v4.7zm37.894 20.608h-11.7a4.021 4.021 0 0 0-4.006 4.006v18.959a11.229 11.229 0 0 0 11.193 11.193h4.721a11.229 11.229 0 0 0 11.193-11.193V71.466a4.022 4.022 0 0 0-4.007-4.006zm14.167 5.516V87.8a7.542 7.542 0 0 0 0-14.827zM66.18 52.421a1.38 1.38 0 1 1 2.193 1.679 2.637 2.637 0 0 0-.258 2.872c.017.025.033.051.048.077a6.928 6.928 0 0 1 1.306 3.111 4.477 4.477 0 0 1-.664 2.709 1.38 1.38 0 1 1-2.431-1.307 2.09 2.09 0 0 0 .351-1.143 4.565 4.565 0 0 0-.862-1.845.829.829 0 0 1-.048-.068c-2.008-3.014.358-6.076.365-6.085zm12.091 0a1.38 1.38 0 1 1 2.194 1.679 2.637 2.637 0 0 0-.258 2.872c.017.025.033.051.048.077a6.931 6.931 0 0 1 1.306 3.111 4.481 4.481 0 0 1-.664 2.709 1.38 1.38 0 1 1-2.431-1.307 2.093 2.093 0 0 0 .351-1.143 4.565 4.565 0 0 0-.862-1.845.829.829 0 0 1-.048-.068c-2.007-3.014.358-6.076.364-6.085zm-26.79-28.8H62.9a13.965 13.965 0 0 1 13.93 13.923v27.149h6.011a6.8 6.8 0 0 1 6.646 5.466 10.307 10.307 0 0 1 .126 20.441 13.92 13.92 0 0 1-4.1 9.681 14.1 14.1 0 0 1-1.541 1.334H109.6a1.383 1.383 0 0 1 0 2.766H18.4a1.383 1.383 0 1 1 0-2.766h19.508a4.492 4.492 0 0 1-.355-1.753V49.617h-5.324v12.931a1.383 1.383 0 1 1-2.766 0V40.766a1.383 1.383 0 0 1 1.383-1.383h6.707v-1.839a13.965 13.965 0 0 1 13.928-13.928z"/><path fill="#fff6dc" fill-rule="evenodd" d="M86.848 89.312V71.466a4.022 4.022 0 0 0-4.007-4.006H63.747a4.021 4.021 0 0 0-4.006 4.006v18.958a11.229 11.229 0 0 0 11.193 11.193h4.721a11.229 11.229 0 0 0 11.193-11.193z"/><path fill="#fff6dc" fill-rule="evenodd" d="M66.18 52.421a1.38 1.38 0 1 1 2.193 1.679 2.637 2.637 0 0 0-.258 2.872l.048.077a6.928 6.928 0 0 1 1.306 3.111 4.477 4.477 0 0 1-.664 2.709 1.38 1.38 0 1 1-2.431-1.307 2.09 2.09 0 0 0 .351-1.143 4.565 4.565 0 0 0-.862-1.845l-.048-.068c-2.008-3.014.358-6.076.365-6.085zm-7.217 14.26a6.753 6.753 0 0 1 4.784-1.988h10.317V49.617H40.319v50.247a1.763 1.763 0 0 0 1.731 1.753h20.565l-.025-.019-.026-.019-.025-.019-.025-.019-.025-.019-.028-.021-.023-.018-.025-.019-.025-.02-.025-.019-.025-.02-.009-.007-.016-.013-.025-.02-.025-.02-.025-.02-.025-.02-.016-.013-.009-.008-.025-.02-.025-.02-.025-.02-.025-.02-.049-.041-.024-.02-.025-.02-.024-.02-.049-.041-.024-.021-.024-.021-.025-.02-.024-.021-.01-.008-.014-.012-.024-.021-.024-.021-.024-.021-.024-.021-.016-.014-.007-.007-.024-.021-.024-.021-.024-.021-.024-.021-.024-.021-.024-.022-.024-.022-.023-.021-.024-.022-.023-.022h-.005l-.018-.017-.023-.022-.023-.022-.023-.022-.023-.022-.011-.01-.012-.012-.023-.022-.023-.022-.023-.022-.023-.022-.017-.017-.006-.006-.022-.022-.023-.022-.023-.023-.022-.022-.023-.023a13.919 13.919 0 0 1-4.1-9.86V71.466a6.752 6.752 0 0 1 1.99-4.784z"/><path fill="#eb7f53" d="M40.319 42.149H74.064V46.851H40.319z"/><path fill="#eb7f53" fill-rule="evenodd" d="M40.319 39.383h33.745v-1.839A11.2 11.2 0 0 0 62.9 26.383H51.481a11.2 11.2 0 0 0-11.162 11.161z"/></svg>