<svg xmlns="http://www.w3.org/2000/svg" data-name="Layer 1" viewBox="0 0 128 128"><path fill="#27130d" d="M49.093 57.022a17.252 17.252 0 0 0-13.306-6.778 17.253 17.253 0 0 0-13.307 6.778 26.488 26.488 0 0 0-5.641 16.733 26.487 26.487 0 0 0 5.641 16.733 17.253 17.253 0 0 0 13.306 6.778 17.252 17.252 0 0 0 13.306-6.778 26.486 26.486 0 0 0 5.641-16.733 26.487 26.487 0 0 0-5.64-16.733zm-23.825 8.864a1.377 1.377 0 0 1-2.485-1.186 16.858 16.858 0 0 1 5.44-6.57 13.137 13.137 0 0 1 7.564-2.46A13.853 13.853 0 0 1 46.5 61.075a20.084 20.084 0 0 1 4.309 12.681 1.383 1.383 0 1 1-2.766 0 17.319 17.319 0 0 0-3.682-10.942 11.126 11.126 0 0 0-8.576-4.379 10.4 10.4 0 0 0-5.985 1.951 14.092 14.092 0 0 0-4.532 5.5zM38.827 88.6a1.379 1.379 0 1 1 .843 2.625 12.82 12.82 0 0 1-1.927.458 12.6 12.6 0 0 1-1.957.159 13.853 13.853 0 0 1-10.715-5.406 20.085 20.085 0 0 1-4.309-12.681 1.383 1.383 0 0 1 2.766 0A17.321 17.321 0 0 0 27.21 84.7a11.127 11.127 0 0 0 8.576 4.379 9.9 9.9 0 0 0 1.535-.115 10.052 10.052 0 0 0 1.506-.364zm-3.041-3.562a1.383 1.383 0 0 1 0-2.766 6.04 6.04 0 0 0 4.647-2.386 10.173 10.173 0 0 0 0-12.26 5.718 5.718 0 0 0-9.293 0 9.7 9.7 0 0 0-2.054 6.13 1.383 1.383 0 1 1-2.766 0 12.464 12.464 0 0 1 2.68-7.87 8.452 8.452 0 0 1 13.571 0 12.887 12.887 0 0 1 0 15.738 8.764 8.764 0 0 1-6.785 3.413zm1.453-13.5a1.761 1.761 0 0 0-2.9 0 3.733 3.733 0 0 0 0 4.437 1.761 1.761 0 0 0 2.9 0 3.733 3.733 0 0 0 0-4.437zm-1.453-3.532a4.629 4.629 0 0 1 3.592 1.794 6.446 6.446 0 0 1 0 7.915 4.494 4.494 0 0 1-7.183 0 6.446 6.446 0 0 1 0-7.915 4.628 4.628 0 0 1 3.591-1.794zM48.435 95.12q-.212.184-.427.362m.714-42.837q.176.159.349.321m31.005-4.685L86.334 34.1c-.506-.036-1.07-.1-1.674-.2l-.03-.005-.037-.006-.34-.059-.033-.006-.239-.044h-.006l-.114-.022-.026-.006-.035-.006-.036-.007h-.025l-.116-.024h-.006l-.122-.025h-.014l-.047-.01-.025-.005-.037-.008-.034-.007-.028-.006-.045-.01h-.018l-.055-.012h-.008l-.062-.014-.072-.016-.05-.03-.023-.006-.04-.009-.032-.008-.03-.007-.043-.01h-.02l-.053-.013h-.01l-.063-.015a21.524 21.524 0 0 1-3.964-1.332H78.404L78.4 32H78.358l-.015-.008H78.252L67.537 49.49l-2.463 4.048a15.642 15.642 0 0 0 5.48 1.3c2.779.227 5.67-.062 7.175-1.233l2.338-5.3zM83.869 28.6a21.5 21.5 0 0 1 3.964 1.333c1.544.732 2.375 1.7 2.126 2.735a1.551 1.551 0 0 1-.1.291l-.009.021-6.4 14.5h8.764c6.048 0 11.507 2.982 15.445 7.8a29.251 29.251 0 0 1 6.268 18.472 29.251 29.251 0 0 1-6.268 18.473c-3.938 4.822-9.4 7.8-15.445 7.8H35.786c-6.048 0-11.507-2.982-15.445-7.8a29.252 29.252 0 0 1-6.268-18.473 29.252 29.252 0 0 1 6.268-18.472c3.938-4.822 9.4-7.8 15.445-7.8h29.745L76.7 29.12c.4-.819 1.5-1.2 3.027-1.148a21.58 21.58 0 0 1 4.142.628zM45.5 50.245h.006l.194.119.042.026.01.006.224.142.021.013q.221.143.439.292l.046.032.184.128.01.006q.337.237.668.489l.218.169.009.007q.214.167.424.34l.01.008q.216.178.427.362l.014.012.179.158.019.017.07.063c.117.106.234.212.349.321l.175.166.028.026.059.057q.161.156.319.315l.025.024.034.035.131.134.036.037.048.051.134.141.016.016.018.019.166.178.013.014.151.165.043.048.039.043.143.162.011.012.009.01.08.092.08.093.021.024.009.01.179.211.029.035.157.19A29.251 29.251 0 0 1 57.5 73.755a29.251 29.251 0 0 1-6.268 18.473l-.157.19-.029.035-.179.211-.009.01-.021.025-.08.093-.08.092-.009.01-.011.012-.143.161-.039.043-.043.048-.151.166-.013.014-.166.178-.018.019-.016.016-.134.141-.048.05-.036.037-.131.134-.034.035-.025.025q-.159.159-.319.315l-.059.058-.028.026-.175.165q-.173.163-.349.321l-.07.063-.019.017-.179.158-.014.012c-.141.123-.283.244-.427.362l-.021.02q-.21.173-.424.341l-.009.007-.218.168q-.33.252-.668.489l-.01.007-.184.128-.046.031q-.218.149-.439.292l-.021.013-.224.142-.01.007-.042.026-.194.119h-.006 46.708a17.253 17.253 0 0 0 13.306-6.778 26.487 26.487 0 0 0 5.641-16.733 26.488 26.488 0 0 0-5.641-16.733 17.253 17.253 0 0 0-13.306-6.778h-9.984L80.133 55a1.372 1.372 0 0 1-.329.459c-.069.063-.137.123-.2.178-2.1 1.763-5.814 2.243-9.261 1.96-3.4-.278-6.669-1.332-7.961-2.646a1.204 1.204 0 0 1-.086-.089l-.017-.019a1.381 1.381 0 0 1-.194-1.686l1.768-2.9z"/><path fill="#eb7f53" fill-rule="evenodd" d="M57.5 73.755a29.251 29.251 0 0 1-6.268 18.473l-.157.19-.03.036-.179.211-.009.01-.021.025-.08.093-.08.092-.009.01-.011.012-.143.161-.039.043-.043.048-.151.166-.013.014-.166.178-.018.019-.016.016-.134.141-.048.05-.036.037-.131.134-.034.035-.025.025-.319.315-.059.058-.028.026-.175.165-.349.321-.07.063-.019.017-.179.158-.018.016-.427.362-.016.015-.424.341-.009.007-.218.169-.668.489-.01.007-.184.128-.046.031-.441.293-.021.013-.224.142-.01.007-.042.026-.194.119h46.708a17.253 17.253 0 0 0 13.306-6.778 26.487 26.487 0 0 0 5.641-16.733 26.488 26.488 0 0 0-5.641-16.733 17.253 17.253 0 0 0-13.306-6.778h-9.988L80.132 55a1.372 1.372 0 0 1-.329.459l-.2.175c-2.1 1.763-5.814 2.243-9.261 1.96-3.4-.278-6.669-1.332-7.961-2.646l-.086-.089-.017-.019a1.381 1.381 0 0 1-.194-1.686l1.768-2.9H45.509l.194.119.042.026.01.006.224.142.021.013.439.292.046.032.184.128.01.006.668.489.218.169.009.007.424.34.01.008.431.365.014.012.179.158.019.017.07.063.349.321.175.166.028.026.059.057.319.315.025.024.034.035.131.134.036.037.048.051.134.141.016.016.018.019.166.178.013.014.151.165.043.048.039.043.143.162.011.012.009.01.08.092.08.093.021.024.009.01.179.212.029.035.157.19A29.251 29.251 0 0 1 57.5 73.755z"/><path fill="#fff6dc" fill-rule="evenodd" d="M25.268 65.886a1.377 1.377 0 0 1-2.485-1.186 16.858 16.858 0 0 1 5.44-6.57 13.137 13.137 0 0 1 7.564-2.46A13.853 13.853 0 0 1 46.5 61.075a20.084 20.084 0 0 1 4.309 12.681 1.383 1.383 0 1 1-2.766 0 17.319 17.319 0 0 0-3.682-10.942 11.126 11.126 0 0 0-8.576-4.379 10.4 10.4 0 0 0-5.985 1.951 14.092 14.092 0 0 0-4.532 5.5zM38.827 88.6a1.379 1.379 0 1 1 .843 2.625 12.82 12.82 0 0 1-1.927.458 12.6 12.6 0 0 1-1.957.159 13.853 13.853 0 0 1-10.715-5.406 20.085 20.085 0 0 1-4.309-12.682 1.383 1.383 0 1 1 2.766 0A17.321 17.321 0 0 0 27.21 84.7a11.127 11.127 0 0 0 8.576 4.379 9.9 9.9 0 0 0 1.535-.115 10.052 10.052 0 0 0 1.506-.364zm.551-18.8a6.446 6.446 0 0 1 0 7.915 4.494 4.494 0 0 1-7.183 0 6.446 6.446 0 0 1 0-7.915 4.494 4.494 0 0 1 7.183 0zm5.876 3.957a12.465 12.465 0 0 1-2.682 7.869 8.764 8.764 0 0 1-6.786 3.412 1.383 1.383 0 0 1 0-2.766 6.04 6.04 0 0 0 4.647-2.386 10.173 10.173 0 0 0 0-12.26 5.718 5.718 0 0 0-9.293 0 9.7 9.7 0 0 0-2.054 6.13 1.383 1.383 0 1 1-2.766 0 12.464 12.464 0 0 1 2.68-7.87 8.452 8.452 0 0 1 13.571 0 12.464 12.464 0 0 1 2.683 7.869zm3.839 16.733a26.486 26.486 0 0 0 5.641-16.733 26.487 26.487 0 0 0-5.641-16.733 17.252 17.252 0 0 0-13.306-6.778 17.253 17.253 0 0 0-13.307 6.776 26.488 26.488 0 0 0-5.641 16.733 26.487 26.487 0 0 0 5.641 16.733 17.253 17.253 0 0 0 13.306 6.778 17.252 17.252 0 0 0 13.307-6.778z"/><path fill="#eb7f53" fill-rule="evenodd" d="M70.553 54.835c2.779.227 5.67-.062 7.175-1.233l2.338-5.3.011-.024L86.334 34.1c-.506-.036-1.07-.1-1.674-.2l-.03-.005-.037-.006-.34-.059-.033-.006-.239-.044h-.006l-.114-.022-.026-.006-.035-.006-.036-.007h-.025l-.116-.024h-.006l-.122-.025h-.014l-.047-.01-.025-.005-.037-.008-.034-.007-.028-.006-.045-.01h-.018l-.055-.012h-.008l-.065-.014-.072-.016-.047-.03-.023-.006-.04-.009-.032-.008-.03-.007-.043-.01h-.02l-.053-.013h-.01l-.063-.015a21.524 21.524 0 0 1-3.964-1.332H78.402L78.4 32h-.044l-.015-.008h-.021l-.01-.005h-.055l-.01-.005L67.537 49.49l-2.463 4.048a15.642 15.642 0 0 0 5.479 1.297z"/><path fill="#fff6dc" fill-rule="evenodd" d="M37.97 73.755a3.51 3.51 0 0 0-.731-2.218 1.761 1.761 0 0 0-2.9 0 3.733 3.733 0 0 0 0 4.437 1.761 1.761 0 0 0 2.9 0 3.512 3.512 0 0 0 .731-2.219z"/></svg>