<svg xmlns="http://www.w3.org/2000/svg" data-name="Layer 1" viewBox="0 0 128 128"><path fill="#27130d" d="m65.956 41.393 2.7 2.7.013.013 1.447 1.447 14.177-14.186.012-.012 3.407-3.407-4.155-4.155-7.665 7.664-.012.012zm-21.512-17.6-4.155 4.155 3.411 3.407.013.013 14.176 14.18 1.448-1.448.012-.012 2.7-2.7-9.928-9.918-.013-.013zm27.131 8.07h-15.15L64 39.437zM47.783 23.22l5.876 5.88h20.682l5.876-5.876zm18.508 81.56V45.639L64 43.348l-2.29 2.29v59.142zM64 49.122a1.3 1.3 0 1 1-1.3 1.3 1.3 1.3 0 0 1 1.3-1.3zm0 8.319a1.3 1.3 0 1 1-1.3 1.3 1.3 1.3 0 0 1 1.3-1.3zm0 8.319a1.3 1.3 0 1 1-1.3 1.3 1.3 1.3 0 0 1 1.3-1.3zm0 8.319a1.3 1.3 0 1 1-1.3 1.3 1.3 1.3 0 0 1 1.3-1.301zm0 8.321a1.3 1.3 0 1 1-1.3 1.3 1.3 1.3 0 0 1 1.3-1.3zm0 8.319a1.3 1.3 0 1 1-1.3 1.3 1.3 1.3 0 0 1 1.3-1.303zm0 8.319a1.3 1.3 0 1 1-1.3 1.3 1.3 1.3 0 0 1 1.3-1.303zm-26.24-69.7h-.142v34.281h3.716V32.905zM34.852 81.41a8.655 8.655 0 0 1-.168-.163 6.764 6.764 0 0 1-1.992-4.793v-8.185a4.632 4.632 0 0 1 1.365-3.279 4.684 4.684 0 0 1 .8-.639V29.054h-4.68a1.8 1.8 0 0 0-1.8 1.8v72.406a1.8 1.8 0 0 0 1.8 1.8h4.68zm6.482 1.569a6.747 6.747 0 0 1-1.531.251h-.658a6.75 6.75 0 0 1-1.531-.251v21.8h3.716zM44.1 64.345a4.7 4.7 0 0 1 .8.639q.044.045.084.092a4.63 4.63 0 0 1 1.281 3.194v8.185a6.765 6.765 0 0 1-1.992 4.793 6.558 6.558 0 0 1-.169.163v23.647h14.84V48.405l-.077.077a1.383 1.383 0 0 1-1.956 0L44.1 35.671zm46.281-35.014h-.141l-3.575 3.575v30.713h3.716zM83.9 81.41a6.558 6.558 0 0 1-.169-.163 6.764 6.764 0 0 1-1.992-4.793v-8.185A4.632 4.632 0 0 1 83.1 64.99a4.7 4.7 0 0 1 .8-.639V35.672l-12.81 12.81a1.383 1.383 0 0 1-1.956 0l-.077-.077v56.652H83.9zm6.482 1.569a6.753 6.753 0 0 1-1.531.251h-.658a6.748 6.748 0 0 1-1.531-.251v21.8h3.716zm2.766-18.634a4.7 4.7 0 0 1 .8.639q.044.045.084.092a4.63 4.63 0 0 1 1.281 3.194v8.185a6.764 6.764 0 0 1-1.992 4.793 8.655 8.655 0 0 1-.168.163v23.647h4.68a1.8 1.8 0 0 0 1.8-1.8V30.851a1.805 1.805 0 0 0-1.8-1.8h-4.68zm-49.653 9.4h-8.037v2.71a4.007 4.007 0 0 0 1.182 2.837 4.134 4.134 0 0 0 .4.35l.012.009.024.017.009.006.012.009a4 4 0 0 0 2.21.783h.337a4.034 4.034 0 0 0 3.85-4.014zm-8.037-2.766h8.037v-2.71a1.884 1.884 0 0 0-.5-1.278l-.055-.051a1.9 1.9 0 0 0-.678-.437h-.023a1.845 1.845 0 0 0-.483-.1h-4.611a1.9 1.9 0 0 0-1.133.544 1.884 1.884 0 0 0-.551 1.332zm57.084 2.766h-8.037v2.71a4.007 4.007 0 0 0 1.181 2.837 4.1 4.1 0 0 0 .4.35l.012.009.024.017.009.006.012.009a4 4 0 0 0 2.21.783h.337a4.034 4.034 0 0 0 3.85-4.014zm-8.037-2.766h8.037v-2.71a1.885 1.885 0 0 0-.5-1.278l-.055-.051a1.893 1.893 0 0 0-.678-.437h-.03a1.84 1.84 0 0 0-.414-.093h-4.668a1.9 1.9 0 0 0-1.138.545 1.885 1.885 0 0 0-.551 1.332zM30.172 26.841h5.234a1.377 1.377 0 0 1 .83-.277h1.524l5.706-5.706.024-.023.023-.021.021-.019h.005l.02-.017.007-.006.019-.015.008-.007.018-.014.009-.007.017-.012.011-.008.016-.011.012-.008.015-.01.014-.009.015-.009.014-.009.014-.009.015-.009.014-.008.016-.009.014-.007.017-.009.013-.007.017-.008.013-.006.018-.008.013-.006.018-.007.013-.006.018-.007h.014l.018-.006h.014l.018-.006q.063-.02.129-.035h39.713l.033.007.032.008.032.009.032.01.032.011.016.006.016.006.016.006.016.006.016.006.015.007.031.014.03.015.015.008.015.008.015.008.015.008.03.017.029.018.029.018.028.02.029.02.028.021.027.022.027.022.026.024.026.024.025.025 5.706 5.706h1.524a1.377 1.377 0 0 1 .83.277h5.234a4.019 4.019 0 0 1 4.01 4.01v72.393a4.019 4.019 0 0 1-4.01 4.01h-5.234a1.375 1.375 0 0 1-.83.277h-6.481a1.373 1.373 0 0 1-.83-.277H68.3a1.665 1.665 0 0 1-.921.277h-6.762a1.662 1.662 0 0 1-.921-.277H43.547a1.373 1.373 0 0 1-.83.277h-6.481a1.375 1.375 0 0 1-.83-.277h-5.234a4.018 4.018 0 0 1-4.01-4.01V30.851a4.019 4.019 0 0 1 4.01-4.01z"/><path fill="#fff6dc" fill-rule="evenodd" d="M86.666 32.905 86.666 63.619 90.381 63.619 90.381 29.331 90.24 29.331 86.666 32.905z"/><path fill="#fff6dc" fill-rule="evenodd" d="m90.85 66.4-4.558-.007-.092.007a1.924 1.924 0 0 0-1.141.542 1.885 1.885 0 0 0-.551 1.332v2.709h8.037v-2.714A1.906 1.906 0 0 0 90.85 66.4zM92.542 73.745h-8.037c0 2.478-.37 4.408 1.639 5.942a4.025 4.025 0 0 0 6.4-3.232zM90.381 82.979a6.782 6.782 0 0 1-3.716 0v21.8h3.716z"/><path fill="#eb7f53" fill-rule="evenodd" d="M93.148 81.41v23.647h4.68a1.8 1.8 0 0 0 1.8-1.8V30.851a1.806 1.806 0 0 0-1.8-1.8h-4.68v35.294a4.674 4.674 0 0 1 2.161 3.924v8.185a6.765 6.765 0 0 1-2.161 4.956zM83.9 105.057V81.41a6.767 6.767 0 0 1-2.161-4.955v-8.186a4.665 4.665 0 0 1 2.161-3.924V35.672l-12.81 12.81a1.384 1.384 0 0 1-2.033-.077v56.652z"/><path fill="#fff6dc" fill-rule="evenodd" d="M64 49.122a1.3 1.3 0 0 1 0 2.593 1.3 1.3 0 0 1 0-2.593zm0 8.319a1.3 1.3 0 0 1 0 2.593 1.3 1.3 0 0 1 0-2.593zm0 41.594a1.3 1.3 0 0 1 0 2.592 1.3 1.3 0 0 1 0-2.592zm0-8.319a1.3 1.3 0 0 1 0 2.592 1.3 1.3 0 0 1 0-2.592zm0-8.316a1.3 1.3 0 0 1 0 2.593 1.3 1.3 0 0 1 0-2.593zm0-8.319a1.3 1.3 0 0 1 0 2.592 1.3 1.3 0 0 1 0-2.595zm0-8.319a1.3 1.3 0 0 1 0 2.592 1.3 1.3 0 0 1 0-2.594zm2.29 39.02V45.639L64 43.348l-2.29 2.29v59.142zM43.495 70.979v-2.71a1.889 1.889 0 0 0-1.883-1.884l-4.462.01-1.14.542a1.884 1.884 0 0 0-.551 1.332v2.709zM43.495 73.745h-8.037c0 2.478-.37 4.407 1.64 5.942a4.024 4.024 0 0 0 6.4-3.232z"/><path fill="#fff6dc" fill-rule="evenodd" d="M37.619 63.619 41.334 63.619 41.334 32.905 37.76 29.331 37.619 29.331 37.619 63.619z"/><path fill="#eb7f53" fill-rule="evenodd" d="M34.852 64.345V29.054h-4.68a1.8 1.8 0 0 0-1.8 1.8v72.406a1.8 1.8 0 0 0 1.8 1.8h4.68V81.41a6.765 6.765 0 0 1-2.16-4.955v-8.186a4.667 4.667 0 0 1 2.16-3.924z"/><path fill="#fff6dc" fill-rule="evenodd" d="M41.334 82.979a6.78 6.78 0 0 1-3.716 0v21.8h3.716z"/><path fill="#eb7f53" fill-rule="evenodd" d="M44.1 81.41v23.647h14.844V48.405a1.384 1.384 0 0 1-2.033.077L44.1 35.671v28.674a4.673 4.673 0 0 1 2.161 3.924v8.185A6.768 6.768 0 0 1 44.1 81.41z"/><path fill="#eb7f53" d="M48.228 22.225H54.105000000000004V47.116H48.228z" transform="rotate(-44.998 51.165 34.67)"/><path fill="#eb7f53" d="M64.388 31.732H89.279V37.609H64.388z" transform="rotate(-44.999 76.834 34.67)"/><path fill="#fff6dc" fill-rule="evenodd" d="M64 39.437 71.575 31.862 56.425 31.862 64 39.437z"/><path fill="#eb7f53" fill-rule="evenodd" d="M53.659 29.096 74.341 29.096 80.218 23.22 47.783 23.22 53.659 29.096z"/></svg>