<svg id="Layer_1" data-name="Layer 1" xmlns="http://www.w3.org/2000/svg" viewBox="0 0 128 128"><title>Artboard 3</title><path d="M63.555,30.436l5.326.322.019,0h.014l.01,0a36.617,36.617,0,1,1-5.394-.326ZM40.384,90.63A33.4,33.4,0,1,0,30.6,67.014,33.293,33.293,0,0,0,40.384,90.63Z" style="fill:#eb7f53;fill-rule:evenodd"/><path d="M62.71,62.987a4.256,4.256,0,0,1,1.811-.171l.085.025,2.273,1.094.074.053a4.357,4.357,0,0,1,1.122,1.888,4.188,4.188,0,0,1,.025,2.167l-.026.066-1,1.8-.05.064-.2.2,0,0a4.14,4.14,0,0,1-1.687.914h0a4.209,4.209,0,0,1-1.927.082h0c-.078-.016-.148-.031-.206-.046h0a4.224,4.224,0,0,1-3.139-4.934h0c.013-.067.028-.135.045-.2l.029-.069,1.083-1.879.048-.062.074-.07,0,0A4.251,4.251,0,0,1,62.71,62.987Z" style="fill:#fff6dc;fill-rule:evenodd"/><polygon points="70.105 69.82 68.789 71.73 66.923 73.065 74.763 77.572 70.105 69.82" style="fill:#eb7f53;fill-rule:evenodd"/><path d="M81.753,86.723a1.383,1.383,0,0,1,1.956-1.956L86.9,87.961a30.915,30.915,0,0,0,8.1-19.564H90.489a1.383,1.383,0,0,1,0-2.766h4.517a30.916,30.916,0,0,0-8.1-19.564l-3.194,3.194a1.383,1.383,0,0,1-1.956-1.956l3.194-3.194a30.916,30.916,0,0,0-19.564-8.1v4.517a1.383,1.383,0,0,1-2.766,0V36.008a30.917,30.917,0,0,0-19.564,8.1l3.194,3.194a1.383,1.383,0,1,1-1.956,1.956L41.1,46.067a30.92,30.92,0,0,0-8.1,19.564h4.517a1.383,1.383,0,1,1,0,2.766H32.994a30.917,30.917,0,0,0,8.1,19.564l3.194-3.194a1.383,1.383,0,0,1,1.956,1.956l-3.194,3.194a30.917,30.917,0,0,0,19.564,8.1V93.5a1.383,1.383,0,0,1,2.766,0V98.02a30.918,30.918,0,0,0,19.564-8.1Zm-6.99-9.15L70.105,69.82c-.029.063-.059.126-.09.188l0,0c-.032.064-.065.127-.1.189l-.015.027,0,0-.017.031-.017.031,0,.006-.015.026-.018.031-.009.015-.009.015-.018.031-.015.025,0,.005-.018.031-.057.092-.009.014-.01.017-.019.03-.016.024,0,.006-.02.03-.02.03,0,0,0,0-.036.053-.009.013-.011.017-.02.029-.016.023-.005.007-.021.029-.021.03,0,0,0,.006-.036.05L69.406,71l-.013.017-.038.05-.006.008-.022.029-.022.029,0,0-.021.027-.023.029-.009.011-.014.018-.023.028-.017.02-.03.037-.024.028h0l-.023.027-.024.029-.009.01-.015.018-.025.028-.017.019-.008.009L69,71.5l-.025.028h0l-.025.027-.025.027-.008.009-.017.018-.025.027-.017.018-.009.009-.026.027-.026.026h0l-.008.008,0,0h0c-.024.024-.048.047-.073.068h0l-.005,0-.021.021-.027.026-.013.012-.014.013-.027.025-.02.019-.007.006-.027.025-.027.025h0L68.5,72l-.027.025-.008.007-.02.018-.028.024-.016.014-.012.01-.028.024-.024.02,0,0-.028.024-.028.023,0,0-.025.02-.04.032-.017.014-.029.022-.019.015-.009.007-.056.043,0,0-.058.043-.006,0-.022.017-.029.021-.014.01-.044.032-.023.016-.007,0-.029.021-.03.021h0l-.028.02-.03.02-.01.006-.021.014-.048.031-.012.008a6.948,6.948,0,0,1-.743.42ZM53.237,56.456l4.658,7.752.045-.1.009-.018.007-.014.016-.032.014-.028,0,0,.065-.127.009-.017.007-.014.017-.032L58.1,63.8l0,0,.017-.031.018-.031,0-.006.014-.025.017-.031.009-.016.009-.015.018-.031.015-.025,0-.006.019-.031.018-.031,0,0,.016-.026.019-.031.009-.014.01-.016.019-.03.016-.025,0-.006.02-.03.02-.03,0,0,.018-.026.021-.03.009-.013.011-.016.021-.03.016-.023,0-.007.021-.029.021-.029,0,0,.019-.026.022-.03.009-.012.013-.017.066-.087.022-.029,0,0,.021-.027.023-.028.009-.011.014-.017.023-.028.017-.021.007-.008.023-.029.024-.028h0l.023-.027.024-.028.009-.01.015-.017.025-.028.017-.02.007-.008L59,62.526l.025-.028h0l.025-.027.025-.027.009-.009.017-.018.025-.027.017-.018.009-.009.026-.027.026-.027.026-.027.026-.026.008-.009.018-.018.027-.026.017-.016.009-.009.027-.026.026-.025h0l.027-.025.027-.025.008-.007.019-.017.027-.025.017-.016.01-.009.028-.025.026-.023h0l.028-.024.028-.024.007-.006.021-.017.028-.024.017-.014.012-.009.028-.023.026-.021,0,0,.028-.023.029-.023.007-.005.022-.017.029-.022.016-.013.013-.01.029-.022.026-.019,0,0c.044-.033.088-.065.133-.1l.014-.009a6.919,6.919,0,0,1,.951-.562ZM64.49,63.084a4.013,4.013,0,0,0-1.532.111,3.923,3.923,0,0,0-1.436.731l-.012.01-.014.011-.026.021-.025.021-.013.01-.013.012-.025.021h0l-.025.022-.012.011-.013.011-.025.023h0l-.025.023-.012.011-.013.012-.024.023h0l-.024.024-.012.012-.012.012-.024.024-.024.025-.012.012-.012.012-.023.025h0l-.023.025-.012.013-.011.012-.023.026-.022.025L61,64.43l-.011.013-.022.025h0l-.021.025-.011.013-.01.013-.021.026h0l-.021.026-.011.014-.01.013-.02.026h0l-.02.026-.01.014-.009.013-.02.027h0l-.019.026-.01.014-.009.013-.019.027h0l-.018.026-.01.015-.009.013-.018.027h0l-.017.026-.01.015-.008.013-.017.028h0l-.016.027-.01.015-.007.013-.016.028v0l-.015.027-.009.016-.007.013-.016.029v0l-.015.027-.009.016-.006.013-.015.029v0l-.042.085v0l-.013.027a3.912,3.912,0,0,0-.258.722v0h0a3.984,3.984,0,0,0,.041,2.083l.016.058A3.971,3.971,0,0,0,63.237,70.9l.015,0,.032.006h0l.033.006.014,0,.018,0,.029,0h0l.032.005.012,0,.021,0a4.017,4.017,0,0,0,1.6-.1,3.925,3.925,0,0,0,1.278-.609l.027-.02.027-.02.02-.015.007-.006.026-.02.006,0,.021-.017.026-.021.026-.021,0,0,.023-.019.015-.012.01-.009.026-.022h0l.024-.021.013-.011.012-.011.025-.022h0l.025-.023.011-.01.014-.013.022-.021,0,0,.024-.024.009-.009q.033-.038.069-.074h0l0,0,.015-.016.02-.021,0,0,.023-.025.008-.009.015-.017.019-.021,0,0,.023-.025.007-.008.015-.017.019-.021,0,0,.022-.025.007-.009.014-.017.018-.021,0,0,.021-.026.021-.026.017-.022,0,0,.02-.026.006-.009.014-.018.016-.022,0,0,.02-.027.006-.009.013-.018.016-.022,0-.006.019-.027.006-.008.013-.019.015-.022,0-.006.018-.027.006-.008.012-.02.014-.022,0-.006.017-.028.005-.008.012-.02.013-.022,0-.006.016-.029,0-.008.011-.02.016-.028.016-.029,0-.008.011-.021.056-.109,0-.006.014-.029a3.98,3.98,0,0,0,.271-.751v-.005h0A3.985,3.985,0,0,0,67.8,65.9l-.016-.06a3.952,3.952,0,0,0-.947-1.585q-.038-.033-.074-.069h0l0,0a3.945,3.945,0,0,0-2.079-1.065l-.017,0-.016,0-.031,0h0l-.033,0-.013,0-.019,0-.028,0h0Zm-6.879,6L48.139,53.324a1.379,1.379,0,0,1,1.926-1.869l15.881,9.129a6.693,6.693,0,0,1,2.759,1.635h0l.008.008,0,0h0c.025.025.049.051.072.078a6.678,6.678,0,0,1,1.6,2.636L79.861,80.7a1.379,1.379,0,0,1-1.926,1.869l-15.88-9.129a6.719,6.719,0,0,1-4.444-4.356ZM64,24.808h0a3.627,3.627,0,0,0-3.606,3.427q1.373-.126,2.772-.156H63.6l.4,0,.4,0h.439q1.4.03,2.772.156A3.627,3.627,0,0,0,64,24.808Zm4.858,6.352-.1-.013h-.014a36.451,36.451,0,0,0-4.28-.306h0l-.467,0-.468,0h0a36.111,36.111,0,1,0,5.341.323h-.014ZM64,22.042h0a6.393,6.393,0,0,1,6.377,6.377v.171a38.929,38.929,0,1,1-12.754,0v-.171A6.393,6.393,0,0,1,64,22.042Zm0,11.168a33.8,33.8,0,1,1-23.9,9.9A33.7,33.7,0,0,1,64,33.211Z" style="fill:#27130d"/><path d="M41.1,46.067a30.92,30.92,0,0,0-8.1,19.564h4.517a1.383,1.383,0,0,1,0,2.766H32.994a30.917,30.917,0,0,0,8.1,19.564l3.194-3.194a1.383,1.383,0,0,1,1.956,1.956l-3.194,3.194a30.917,30.917,0,0,0,19.564,8.1V93.5a1.383,1.383,0,0,1,2.766,0V98.02a30.918,30.918,0,0,0,19.564-8.1l-3.194-3.194a1.383,1.383,0,0,1,1.956-1.956L86.9,87.961a30.915,30.915,0,0,0,8.1-19.564H90.489a1.383,1.383,0,0,1,0-2.766h4.517a30.916,30.916,0,0,0-8.1-19.564l-3.194,3.194a1.383,1.383,0,0,1-1.956-1.956l3.194-3.194a30.916,30.916,0,0,0-19.564-8.1v4.517a1.383,1.383,0,0,1-2.766,0V36.008a30.917,30.917,0,0,0-19.564,8.1l3.194,3.194a1.383,1.383,0,0,1-1.956,1.956Zm8.968,5.389,15.881,9.129a6.693,6.693,0,0,1,2.759,1.635l.011.006.073.079a6.678,6.678,0,0,1,1.6,2.636L79.861,80.7a1.38,1.38,0,0,1-1.926,1.869l-15.88-9.129a6.719,6.719,0,0,1-4.444-4.356L48.139,53.324A1.38,1.38,0,0,1,50.065,51.456Z" style="fill:#fff6dc;fill-rule:evenodd"/><path d="M57.895,64.208a6.735,6.735,0,0,1,3.182-3.245l-7.84-4.507Z" style="fill:#fff6dc;fill-rule:evenodd"/><path d="M60.394,28.236h7.212a3.611,3.611,0,0,0-7.212,0Z" style="fill:#fff6dc;fill-rule:evenodd"/></svg>