<svg id="Layer_1" data-name="Layer 1" xmlns="http://www.w3.org/2000/svg" viewBox="0 0 128 128"><title>Artboard 1</title><path d="M32.98,53.66c3.212,4.006,7.055,7.487,10.28,8.885l.585.254-.346.534-.676,1.042a2.3,2.3,0,0,1-2.388,1.106h0a8.258,8.258,0,0,1-3.206-1.353,26.377,26.377,0,0,1-4.268-3.445A46.47,46.47,0,0,1,28.6,55.741l0,0-.331-.439-.006-.011L27.3,53.961l-.01-.013-.5-.742-.017-.027-1.748-2.939-.015-.028-.222-.431,0-.009-.211-.426,0-.006a18.773,18.773,0,0,1-1.288-3.435c-.362-1.486-.379-2.981.609-3.792l.137-.082,1.777-.736.61-.252.125.649C27.2,45.144,29.767,49.654,32.98,53.66Z" style="fill:#fff6dc;fill-rule:evenodd"/><path d="M46.033,23.616l-5.6,6.389-.422.482-.4-.5L37.928,27.9a3.5,3.5,0,0,1-.041-4.386,6.145,6.145,0,0,1,1.293-1.374,6.74,6.74,0,0,1,1.642-.953c1.615-.648,3.378-.571,4.457.772l0,0,.768.962.28.351Z" style="fill:#fff6dc"/><path d="M57.96,51.51l6.5-3.6.308-.17.212.281c4.931,6.553,10.968,14.549,17.187,22.17,6.2,7.6,12.578,14.816,18.2,19.818l4.171,3.308.063.063c.329.41.216.915-.64,1.794a48.772,48.772,0,0,1-3.9,3.34c-4.486,3.6-7.347,5.862-9.152,7.18-2.016,1.472-2.884,1.78-3.244,1.331l-.079-.161-.921-3.892,0-.008c-1.853-8.732-6.2-17.826-11.5-26.539A247.966,247.966,0,0,0,57.84,52.113l-.295-.373Z" style="fill:#fff6dc;fill-rule:evenodd"/><path d="M26.011,41.794q-.371.143-.746.281l-.021.008L25.2,42.1l-.021.007-.021.008-.017.006h0l-.021.007-.021.008-.02.007-.021.008-.021.007-.021.008L25,42.173l-.021.007-.021.008-.021.007-.019.007h0l-.021.007-.021.008-.021.008-.021.007-.021.008-.021.007-.021.007-.021.007-.021.007-.021.007-.021.007-.064.024-.062.026-.059.028-.057.03-.056.032-.053.033-.052.036-.049.037h0l-.048.039-.045.041-.044.043-.042.045-.04.047-.038.049-.036.05-.034.052-.032.054-.03.056-.029.057-.027.059h0l-.025.06-.023.062-.021.064-.02.065-.018.067-.016.068-.015.07h0l-.013.071-.011.073-.01.074-.008.076-.006.077,0,.078h0l0,.08h0v.164l0,.084,0,.085,0,.086.006.088h0l.008.089.01.09.011.092h0l.012.093.014.094.015.095h0l.017.1.018.1.02.1.022.1h0l.022.1.024.1h0l.025.1.027.1h0l.028.1.029.106.031.107.031.107h0l.033.108.034.109h0l.036.11.037.111h0l.038.112.039.113.047.132.049.133.051.134.052.134.053.135.055.136.056.137.058.137.059.138.061.138.062.139.064.14.065.14.066.14.067.141h0l.069.142.07.142.071.142h0l.073.143.074.144.075.144h0l.077.144.078.145.079.145.08.145.081.146.082.146.084.146.085.147.086.147.087.147.088.147.089.148.09.148.091.148.093.148.093.148.094.148.1.149.1.148.1.148h0l.1.149.1.148.1.148.1.148.1.149h0l.1.148.1.148.1.148.105.148.106.148.107.147.108.147.108.147.109.147h0l.109.147.111.146.111.146h0l.112.146.112.145.113.145.114.145.114.144.115.144a34.273,34.273,0,0,0,7.808,7.387c2.168,1.357,3.992,1.8,4.766.561l.011-.017.011-.018.011-.018.011-.018.022-.036.011-.018.011-.018.011-.018.011-.018.012-.018.006-.011,0-.007L42.424,64l.011-.018.012-.018.012-.018.011-.018.012-.018.012-.018.024-.037.011-.018q.256-.4.519-.8C39.737,61.6,35.8,58.046,32.559,54S26.692,45.334,26.011,41.794ZM45.628,23.261l-.048-.06-.7-.878L44.86,22.3a3.168,3.168,0,0,0-3.7-.663,6.139,6.139,0,0,0-1.643.932,5.633,5.633,0,0,0-1.243,1.352,2.97,2.97,0,0,0,.079,3.646c.512.638.932,1.161,1.285,1.6l.4.489.043-.042.028-.027.015-.014.044-.042.043-.042.043-.042.031-.03.012-.012.086-.084.043-.042.033-.033.01-.009.043-.042.043-.042.043-.043.036-.036.007-.007.043-.043.043-.043.043-.043.039-.039,0,0,.043-.043.042-.043.043-.043.041-.042,0,0,.043-.043.042-.043.042-.043.043-.044h0l.042-.042.042-.044.042-.044.042-.044,0,0,.039-.04.042-.044.042-.044.042-.044.006-.006.036-.038.042-.044.042-.044.042-.044.008-.009.034-.036.084-.089.042-.045.01-.011.032-.033.042-.045.042-.045.042-.045L42,27.644l.028-.031.042-.045.042-.046.042-.045.015-.017.026-.028.083-.091.042-.046.017-.019.024-.026.083-.092.041-.046.02-.022.022-.024.146-.164.02-.022q.479-.539.949-1.1l.01-.011.016-.019.029-.036.045-.055.046-.054.043-.052,0,0,.046-.055.045-.055.046-.055Q44.806,24.366,45.628,23.261ZM84.637,104.9c-.081-.427-.168-.888-.288-1.451-1.752-8.255-5.8-16.9-11.026-25.512a246.646,246.646,0,0,0-17.435-24.5q-.785.584-1.535,1.194A44.313,44.313,0,0,0,46.367,63.1h0l-.031.043-.016.021-.015.021-.061.085-.015.021-.015.021-.015.021-.015.021-.015.021-.015.021h0l-.013.02-.015.021-.015.021-.015.021-.015.02-.014.021-.014.02-.029.041,0,0-.012.017q-.609.867-1.18,1.762l-.014.021-.027.044-.014.021-.014.022-.014.022,0,0-.011.018-.014.022-.014.022-.014.022-.014.022-.014.022-.014.022-.014.022-.014.022c-1.818,2.906-5.023,2.544-8.569.325a37.063,37.063,0,0,1-8.5-8l-.124-.155-.123-.155-.122-.155-.121-.156-.121-.157h0l-.12-.157-.12-.157-.119-.158h0l-.118-.158-.117-.158-.116-.159-.116-.159L26,55.969h0l-.114-.159h0l-.113-.16-.112-.16-.112-.16-.111-.16-.11-.16-.109-.16-.108-.161-.107-.161h0l-.106-.161h0l-.1-.161h0l-.1-.161-.1-.161h0l-.1-.161-.1-.161h0l-.1-.161-.1-.161-.1-.16-.1-.16-.1-.16L23.8,52.6l-.093-.16-.092-.16-.091-.16h0l-.089-.159-.088-.159h0l-.087-.159-.086-.159-.084-.158-.083-.157-.082-.158-.081-.157-.079-.156h0l-.078-.156-.076-.156-.075-.155-.074-.154-.072-.154-.071-.154-.07-.153-.068-.153-.066-.152-.065-.151-.063-.151-.062-.15-.06-.149-.059-.149-.057-.148-.055-.147-.054-.146-.052-.145-.064-.184-.062-.183-.059-.182-.056-.181-.054-.18-.051-.179h0l-.048-.177h0l-.046-.176h0l-.043-.175h0l-.04-.173-.037-.172L21,45.843h0l-.031-.169h0l-.029-.167-.026-.166h0l-.022-.165h0l-.02-.162h0l-.017-.161h0l-.014-.159h0l-.011-.158h0l-.008-.156h0l0-.154h0v-.153l0-.151h0l0-.149h0l.008-.147h0l.011-.146h0l.015-.143h0l.018-.142h0l.021-.14h0l.025-.137h0c.017-.091.037-.181.059-.27s.046-.176.073-.261l.041-.127h0l.045-.125h0l.049-.123h0l.052-.121.055-.119h0q.057-.117.122-.23c.043-.075.089-.149.137-.22h0l.074-.107q.075-.105.159-.206l.085-.1c.058-.065.119-.129.182-.191l.1-.092.1-.089.1-.086.108-.084.112-.081h0l.116-.078h0l.121-.075.124-.073h0l.128-.07h0l.132-.067h0l.137-.064.141-.061.145-.058.149-.056.023-.008.023-.009.023-.008.023-.008.023-.009.023-.008.023-.009.023-.008.023-.008.008,0L24,39.6l.023-.009.023-.008.023-.009.023-.008.023-.008.023-.009.023-.008.023-.009.017-.006.006,0,.023-.008.023-.009.023-.009.023-.008.023-.009.023-.008.023-.009.023-.009.023-.008h0l.02-.008.023-.009.023-.008.023-.009.023-.009.023-.009.023-.009.023-.009.023-.009.012,0,.011,0,.023-.009.023-.008.023-.009.023-.009.023-.009.023-.009L24.8,39.3l.023-.008.022-.009h0l.023-.009.023-.009.023-.009.022-.009.023-.009.023-.009.023-.009.022-.009.023-.009.01,0,.014,0,.022-.009.023-.009.023-.009.023-.009.022-.009.023-.009.023-.009.021-.009.021-.008.022-.009.021-.009.022-.008.022-.009.021-.009.022-.008.022-.009.022-.009.022-.009.019-.008h0l.022-.009.022-.009.022-.009L25.582,39l.022-.009.022-.009.022-.009c.332-.134.674-.278,1.034-.432l.049-.02a44.21,44.21,0,0,0,9.941-5.934q.663-.524,1.313-1.079l-.49-.6c-.519-.642-.961-1.189-1.3-1.607a5.58,5.58,0,0,1-.251-6.865,8.414,8.414,0,0,1,1.859-2.022,8.932,8.932,0,0,1,2.388-1.353c2.385-.891,5.033-.657,6.8,1.494l.048.057.247.309.15-.224a4.091,4.091,0,0,1,.854-.938,4.62,4.62,0,0,1,3.333-.927,6.966,6.966,0,0,1,3.2,1.142,6.572,6.572,0,0,1,1.495,1.352l6.652,8.3,6.653,8.3a6.591,6.591,0,0,1,1,1.757,6.957,6.957,0,0,1,.415,3.361,4.62,4.62,0,0,1-1.624,3.055,4.078,4.078,0,0,1-.966.572,1.5,1.5,0,0,1-.14.062q-.53.2-1.05.414c5.754,7.642,11.684,15.412,17.44,22.432a171.226,171.226,0,0,0,17.238,18.684,28.375,28.375,0,0,0,2.411,1.89,10.589,10.589,0,0,1,2.088,1.765c1.683,2.1.792,3.88-4.9,8.444-10.683,8.565-13.8,10.524-15.706,8.151A8.256,8.256,0,0,1,84.637,104.9ZM60.085,47.483q.232-.128.467-.254M49.737,22.213q-.594.9-1.207,1.754l-.044.066q-.9,1.257-1.854,2.448l-.006.007-.052.065-.058.072-.058.072,0,0-.056.069-.058.072-.056.07,0,0-.059.071-.058.071a52.227,52.227,0,0,1-5.315,5.6l0,0,0,0,0,0-.063.057,0,0,0,0,0,0q-1.173,1.058-2.392,2.021A47.081,47.081,0,0,1,28.621,40.7c.275,2.994,2.84,7.519,6.088,11.572s7.11,7.544,9.97,8.464A47.05,47.05,0,0,1,52.615,52.5q1.3-1.056,2.694-2.037l.049-.036a51.259,51.259,0,0,1,4.369-2.744l.359-.2h0c.155-.085.311-.17.467-.254l.041-.022.366-.195.066-.035.007,0,.074-.039.148-.077.009,0,.065-.034.074-.038.074-.038.026-.014.048-.024.074-.038.075-.038.043-.022.032-.016.075-.038.075-.038.06-.03L62,46.478l.075-.037.075-.038.075-.037h0l.073-.036.075-.037.076-.037.019-.009.056-.027.076-.037.076-.037.076-.037.076-.037.076-.036q2.122-1.015,4.413-1.9l.076-.026a1.343,1.343,0,0,0,.284-.176,1.927,1.927,0,0,0,.619-1.272,4.179,4.179,0,0,0-.264-2.011,3.786,3.786,0,0,0-.566-1.01l-6.653-8.3-6.652-8.3a3.82,3.82,0,0,0-.868-.779,4.15,4.15,0,0,0-1.9-.689,1.933,1.933,0,0,0-1.377.322A1.358,1.358,0,0,0,49.737,22.213Zm37.313,80.667c.1.493.206,1.025.3,1.515a8.134,8.134,0,0,0,.622,2.377c.39.486,2.846-1.371,11.827-8.572,3.97-3.183,4.842-4.113,4.479-4.566a9.2,9.2,0,0,0-1.548-1.257,31.577,31.577,0,0,1-2.638-2.063,174.053,174.053,0,0,1-17.529-19C76.646,64.1,70.552,56.1,64.653,48.264q-1.858.863-3.577,1.828-1.514.849-2.919,1.771A248.278,248.278,0,0,1,75.679,76.514C81.058,85.38,85.231,94.306,87.051,102.881Z" style="fill:#27130d"/><path d="M40.85,32.653A48.235,48.235,0,0,1,28.621,40.7c.551,5.993,10.334,18.2,16.059,20.036A48.089,48.089,0,0,1,59.726,47.683l7.669-3.571c1.282-.514,1.17-3.1.073-4.469l-13.3-16.595c-1.058-1.32-3.575-2.119-4.426-.835A55.638,55.638,0,0,1,40.85,32.653Z" style="fill:#eb7f53;fill-rule:evenodd"/></svg>