<svg id="Layer_1" data-name="Layer 1" xmlns="http://www.w3.org/2000/svg" viewBox="0 0 128 128"><title>Artboard 9</title><path d="M24.667,94.89v-11.1h-.742a5.526,5.526,0,0,0-3.854,1.564c-.02.023-.041.045-.063.067a5.531,5.531,0,0,0-1.631,3.917h0A5.527,5.527,0,0,0,20,93.259l.006.006a5.527,5.527,0,0,0,3.917,1.625Zm8.434,0v-11.1H27.433v11.1Zm8.433,0v-11.1H35.866v11.1Zm8.433,0v-11.1H44.3v11.1Zm8.433,0v-11.1H52.733v11.1Zm8.433,0v-11.1H61.166v11.1Zm8.433,0v-11.1H69.6v11.1Zm8.433,0v-11.1H78.033v11.1Zm8.433,0v-11.1H86.466v11.1Zm8.433,0v-11.1H94.9v11.1Zm2.766-11.1v11.1h.742a5.532,5.532,0,0,0,3.917-1.631l0,0,0,0a5.527,5.527,0,0,0,1.625-3.917h0a5.568,5.568,0,0,0-5.548-5.548ZM68.98,35.173a7.043,7.043,0,0,0-11.975,4.155,43.86,43.86,0,0,1,5.98-.546l.068,0,.136,0h.338l.473,0,.473,0h.339l.135,0,.068,0a43.87,43.87,0,0,1,5.98.546A7.022,7.022,0,0,0,68.98,35.173ZM64,30.344A9.81,9.81,0,0,1,73.8,39.876a43.666,43.666,0,0,1,33.832,41.957,8.352,8.352,0,0,1,4.752,7.508h0a8.292,8.292,0,0,1-2.444,5.87l0,0a8.289,8.289,0,0,1-5.873,2.442H23.925a8.291,8.291,0,0,1-5.867-2.442l0,0,0,0-.006-.007a8.291,8.291,0,0,1-2.435-5.86h0a8.29,8.29,0,0,1,2.441-5.873c.028-.028.057-.055.087-.08a8.389,8.389,0,0,1,2.224-1.552A43.666,43.666,0,0,1,54.2,39.876,9.81,9.81,0,0,1,64,30.344ZM23.925,81.027h80.926A40.874,40.874,0,0,0,64.528,41.539h0q-.262,0-.525,0t-.525,0h0A40.874,40.874,0,0,0,23.149,81.027Z" style="fill:#27130d"/><path d="M92.9,53.507A40.745,40.745,0,0,0,64.528,41.539H63.471A40.874,40.874,0,0,0,23.149,81.027h81.7A40.743,40.743,0,0,0,92.9,53.507Z" style="fill:#fff6dc;fill-rule:evenodd"/><path d="M24.667,94.89v-11.1h-.742a5.556,5.556,0,0,0-3.917,9.471A5.734,5.734,0,0,0,24.667,94.89Z" style="fill:#eb7f53;fill-rule:evenodd"/><rect x="35.866" y="83.793" width="5.667" height="11.097" style="fill:#eb7f53"/><rect x="27.433" y="83.793" width="5.667" height="11.097" style="fill:#fff6dc"/><rect x="44.3" y="83.793" width="5.667" height="11.097" style="fill:#fff6dc"/><rect x="52.733" y="83.793" width="5.667" height="11.097" style="fill:#eb7f53"/><rect x="61.166" y="83.793" width="5.667" height="11.097" style="fill:#fff6dc"/><rect x="69.6" y="83.793" width="5.667" height="11.097" style="fill:#eb7f53"/><rect x="78.033" y="83.793" width="5.667" height="11.097" style="fill:#fff6dc"/><rect x="86.466" y="83.793" width="5.667" height="11.097" style="fill:#eb7f53"/><rect x="94.899" y="83.793" width="5.667" height="11.097" style="fill:#fff6dc"/><path d="M103.333,83.793v11.1A5.765,5.765,0,0,0,108,93.262a5.554,5.554,0,0,0-3.92-9.468Z" style="fill:#eb7f53;fill-rule:evenodd"/><path d="M57.005,39.328a44.1,44.1,0,0,1,13.99,0,7.043,7.043,0,0,0-13.99,0Z" style="fill:#eb7f53;fill-rule:evenodd"/></svg>