<svg id="Layer_1" data-name="Layer 1" xmlns="http://www.w3.org/2000/svg" viewBox="0 0 128 128"><title>Artboard 5</title><path d="M83.838,49.106,64,25.127,44.161,49.106h7v0a1.381,1.381,0,0,1,1.064,2.262l-11.667,14.1h8.8v0a1.381,1.381,0,0,1,1.064,2.262l-2.309,2.791L33.048,88.743h61.9L79.881,70.527l-2.266-2.739a1.383,1.383,0,0,1,1.021-2.316h8.8L75.815,51.421a1.383,1.383,0,0,1,1.021-2.315ZM69.617,91.51H58.383v10.668a1.486,1.486,0,0,0,1.458,1.477h8.318a1.486,1.486,0,0,0,1.458-1.477ZM65.064,22.08,87.84,49.608a1.381,1.381,0,0,1-1.064,2.262v0h-7l11.667,14.1a1.381,1.381,0,0,1-1.064,2.262v0h-8.8l.436.527L98.954,89.246a1.381,1.381,0,0,1-1.064,2.262v0H72.383v10.668a4.208,4.208,0,0,1-.266,1.477H109.6a1.383,1.383,0,1,1,0,2.766H18.4a1.383,1.383,0,1,1,0-2.766h37.48a4.215,4.215,0,0,1-.266-1.477V91.51H30.11a1.383,1.383,0,0,1-1.021-2.315l16.9-20.429.436-.527h-8.8A1.383,1.383,0,0,1,36.6,65.922l11.624-14.05h-7A1.383,1.383,0,0,1,40.2,49.557L62.936,22.08a1.381,1.381,0,0,1,2.128,0Z" style="fill:#27130d"/><path d="M87.439,65.472,75.815,51.421a1.383,1.383,0,0,1,1.021-2.315h7L64,25.127,44.161,49.106l7,0a1.381,1.381,0,0,1,1.064,2.262l-11.667,14.1,8.8,0a1.381,1.381,0,0,1,1.064,2.262l-2.309,2.791L33.048,88.743h61.9L79.881,70.527l-2.266-2.739a1.383,1.383,0,0,1,1.021-2.316Z" style="fill:#fff6dc;fill-rule:evenodd"/><path d="M69.617,91.51H58.383v10.668a1.486,1.486,0,0,0,1.458,1.477h8.318a1.486,1.486,0,0,0,1.458-1.477Z" style="fill:#eb7f53;fill-rule:evenodd"/></svg>