<svg id="Layer_1" data-name="Layer 1" xmlns="http://www.w3.org/2000/svg" viewBox="0 0 128 128"><title>Artboard 10</title><path d="M65.956,41.393l2.7,2.7.013.013,1.447,1.447L84.293,31.367l.012-.012,3.407-3.407-4.155-4.155-7.665,7.664-.012.012Zm-21.512-17.6-4.155,4.155L43.7,31.355l.013.013L57.889,45.548,59.337,44.1l.012-.012,2.7-2.7L52.121,31.47l-.013-.013Zm27.131,8.07H56.425L64,39.437ZM47.783,23.22,53.659,29.1H74.341l5.876-5.876Zm18.508,81.56V45.639L64,43.348l-2.29,2.29V104.78ZM64,49.122a1.3,1.3,0,1,1-1.3,1.3A1.3,1.3,0,0,1,64,49.122Zm0,8.319a1.3,1.3,0,1,1-1.3,1.3A1.3,1.3,0,0,1,64,57.441Zm0,8.319a1.3,1.3,0,1,1-1.3,1.3A1.3,1.3,0,0,1,64,65.76Zm0,8.319a1.3,1.3,0,1,1-1.3,1.3A1.3,1.3,0,0,1,64,74.078ZM64,82.4a1.3,1.3,0,1,1-1.3,1.3A1.3,1.3,0,0,1,64,82.4Zm0,8.319a1.3,1.3,0,1,1-1.3,1.3A1.3,1.3,0,0,1,64,90.716Zm0,8.319a1.3,1.3,0,1,1-1.3,1.3A1.3,1.3,0,0,1,64,99.035Zm-26.24-69.7h-.142V63.619h3.716V32.905ZM34.852,81.41c-.057-.054-.113-.108-.168-.163a6.764,6.764,0,0,1-1.992-4.793V68.269a4.632,4.632,0,0,1,1.365-3.279l0,0,0,0a4.684,4.684,0,0,1,.8-.639V29.054h-4.68a1.8,1.8,0,0,0-1.8,1.8V103.26a1.8,1.8,0,0,0,1.8,1.8h4.68Zm6.482,1.569a6.747,6.747,0,0,1-1.531.251l-.029,0h-.6l-.029,0a6.75,6.75,0,0,1-1.531-.251v21.8h3.716ZM44.1,64.345a4.7,4.7,0,0,1,.8.639q.044.045.084.092a4.63,4.63,0,0,1,1.281,3.194v8.185a6.765,6.765,0,0,1-1.992,4.793c-.055.055-.111.109-.169.163v23.647H58.944V48.405l-.077.077a1.383,1.383,0,0,1-1.956,0L44.1,35.671ZM90.381,29.331H90.24l-3.575,3.575V63.619h3.716ZM83.9,81.41c-.058-.054-.114-.108-.169-.163a6.764,6.764,0,0,1-1.992-4.793V68.269A4.632,4.632,0,0,1,83.1,64.99l0,0,0,0a4.7,4.7,0,0,1,.8-.639V35.672l-12.81,12.81a1.383,1.383,0,0,1-1.956,0l-.077-.077v56.652H83.9Zm6.482,1.569a6.753,6.753,0,0,1-1.531.251l-.029,0h-.6l-.029,0a6.748,6.748,0,0,1-1.531-.251v21.8h3.716Zm2.766-18.634a4.7,4.7,0,0,1,.8.639q.044.045.084.092a4.63,4.63,0,0,1,1.281,3.194v8.185a6.764,6.764,0,0,1-1.992,4.793c-.055.055-.111.109-.168.163v23.647h4.68a1.8,1.8,0,0,0,1.8-1.8V30.851a1.805,1.805,0,0,0-1.8-1.8h-4.68Zm-49.653,9.4H35.458v2.71a4.007,4.007,0,0,0,1.182,2.837,4.134,4.134,0,0,0,.4.35h0l.012.009.024.017,0,0,.009.006.012.009a4,4,0,0,0,2.21.783h.337a4.034,4.034,0,0,0,3.85-4.014Zm-8.037-2.766h8.037V68.269a1.884,1.884,0,0,0-.5-1.278l-.055-.051a1.9,1.9,0,0,0-.678-.437l-.007,0h0l-.008,0-.008,0,0,0h0a1.845,1.845,0,0,0-.483-.1H37.17l-.02,0h-.005a1.9,1.9,0,0,0-1.133.544l0,0a1.884,1.884,0,0,0-.551,1.332Zm57.084,2.766H84.505v2.71a4.007,4.007,0,0,0,1.181,2.837,4.1,4.1,0,0,0,.4.35h0l.012.009.024.017,0,0,.009.006.012.009a4,4,0,0,0,2.21.783h.337a4.034,4.034,0,0,0,3.85-4.014Zm-8.037-2.766h8.037V68.269a1.885,1.885,0,0,0-.5-1.278l-.055-.051a1.893,1.893,0,0,0-.678-.437l-.006,0h0l-.008,0-.008,0,0,0h0l-.008,0a1.84,1.84,0,0,0-.414-.093H90.85l-.024,0h0l-.03,0H86.253l-.056,0h0a1.9,1.9,0,0,0-1.138.545l0,0a1.885,1.885,0,0,0-.551,1.332ZM30.172,26.841h5.234a1.377,1.377,0,0,1,.83-.277H37.76l5.706-5.706.024-.023,0,0,.023-.021,0,0,.021-.019.005,0,.02-.017.007-.006.019-.015.008-.007.018-.014.009-.007.017-.012.011-.008.016-.011.012-.008.015-.01.014-.009.015-.009.014-.009.014-.009.015-.009.014-.008.016-.009.014-.007.017-.009.013-.007.017-.008.013-.006.018-.008.013-.006.018-.007.013-.006.018-.007.014,0,.018-.006.014,0,.018-.006q.063-.02.129-.035l.018,0,.015,0,.02,0,.013,0,.021,0,.012,0,.033,0,.024,0h.009l.026,0h.007l.028,0h0l.066,0H83.656l.033,0,.033,0,.033,0,.016,0,.017,0h0l.016,0,.017,0h0l.016,0,.016,0,.033.007.032.008.032.009.032.01.032.011.016.006.016.006h0l.016.006.016.006h0l.016.006.015.007.031.014.03.015.015.008.015.008h0l.015.008.015.008.03.017.029.018.029.018.028.02.029.02.028.021.027.022.027.022.026.024.026.024.025.025,5.706,5.706h1.524a1.377,1.377,0,0,1,.83.277h5.234a4.019,4.019,0,0,1,4.01,4.01V103.26a4.019,4.019,0,0,1-4.01,4.01H92.594a1.375,1.375,0,0,1-.83.277H85.283a1.373,1.373,0,0,1-.83-.277H68.3a1.665,1.665,0,0,1-.921.277H60.617a1.662,1.662,0,0,1-.921-.277H43.547a1.373,1.373,0,0,1-.83.277H36.236a1.375,1.375,0,0,1-.83-.277H30.172a4.018,4.018,0,0,1-4.01-4.01V30.851a4.019,4.019,0,0,1,4.01-4.01Z" style="fill:#27130d"/><polygon points="86.666 32.905 86.666 63.619 90.381 63.619 90.381 29.331 90.24 29.331 86.666 32.905" style="fill:#fff6dc;fill-rule:evenodd"/><path d="M90.85,66.4l-4.558-.007L86.2,66.4a1.924,1.924,0,0,0-1.141.542,1.885,1.885,0,0,0-.551,1.332v2.709h8.037V68.269A1.906,1.906,0,0,0,90.85,66.4Z" style="fill:#fff6dc;fill-rule:evenodd"/><path d="M92.542,73.745H84.505c0,2.478-.37,4.408,1.639,5.942a4.025,4.025,0,0,0,6.4-3.232Z" style="fill:#fff6dc;fill-rule:evenodd"/><path d="M90.381,82.979a6.782,6.782,0,0,1-3.716,0v21.8h3.716Z" style="fill:#fff6dc;fill-rule:evenodd"/><path d="M93.148,81.41v23.647h4.68a1.8,1.8,0,0,0,1.8-1.8V30.851a1.806,1.806,0,0,0-1.8-1.8h-4.68V64.345a4.674,4.674,0,0,1,2.161,3.924v8.185A6.765,6.765,0,0,1,93.148,81.41Z" style="fill:#eb7f53;fill-rule:evenodd"/><path d="M83.9,105.057V81.41a6.767,6.767,0,0,1-2.161-4.955V68.269A4.665,4.665,0,0,1,83.9,64.345V35.672l-12.81,12.81a1.384,1.384,0,0,1-2.033-.077v56.652Z" style="fill:#eb7f53;fill-rule:evenodd"/><path d="M64,49.122a1.3,1.3,0,0,1,0,2.593A1.3,1.3,0,0,1,64,49.122Zm0,8.319a1.3,1.3,0,0,1,0,2.593A1.3,1.3,0,0,1,64,57.441Zm0,41.594a1.3,1.3,0,0,1,0,2.592A1.3,1.3,0,0,1,64,99.035Zm0-8.319a1.3,1.3,0,0,1,0,2.592A1.3,1.3,0,0,1,64,90.716ZM64,82.4a1.3,1.3,0,0,1,0,2.593A1.3,1.3,0,0,1,64,82.4Zm0-8.319a1.3,1.3,0,0,1,0,2.592A1.3,1.3,0,0,1,64,74.078Zm0-8.319a1.3,1.3,0,0,1,0,2.592A1.3,1.3,0,0,1,64,65.76Zm2.29,39.02V45.639L64,43.348l-2.29,2.29V104.78Z" style="fill:#fff6dc;fill-rule:evenodd"/><path d="M43.495,70.979V68.269a1.889,1.889,0,0,0-1.883-1.884l-4.462.01-1.14.542a1.884,1.884,0,0,0-.551,1.332v2.709Z" style="fill:#fff6dc;fill-rule:evenodd"/><path d="M43.495,73.745H35.458c0,2.478-.37,4.407,1.64,5.942a4.024,4.024,0,0,0,6.4-3.232Z" style="fill:#fff6dc;fill-rule:evenodd"/><polygon points="37.619 63.619 41.334 63.619 41.334 32.905 37.76 29.331 37.619 29.331 37.619 63.619" style="fill:#fff6dc;fill-rule:evenodd"/><path d="M34.852,64.345V29.054h-4.68a1.8,1.8,0,0,0-1.8,1.8V103.26a1.8,1.8,0,0,0,1.8,1.8h4.68V81.41a6.765,6.765,0,0,1-2.16-4.955V68.269a4.667,4.667,0,0,1,2.16-3.924Z" style="fill:#eb7f53;fill-rule:evenodd"/><path d="M41.334,82.979a6.78,6.78,0,0,1-3.716,0v21.8h3.716Z" style="fill:#fff6dc;fill-rule:evenodd"/><path d="M44.1,81.41v23.647H58.944V48.405a1.384,1.384,0,0,1-2.033.077L44.1,35.671V64.345a4.673,4.673,0,0,1,2.161,3.924v8.185A6.768,6.768,0,0,1,44.1,81.41Z" style="fill:#eb7f53;fill-rule:evenodd"/><rect x="48.228" y="22.225" width="5.877" height="24.891" transform="translate(-9.53 46.332) rotate(-44.998)" style="fill:#eb7f53"/><rect x="64.388" y="31.732" width="24.891" height="5.877" transform="translate(-2.012 64.483) rotate(-44.999)" style="fill:#eb7f53"/><polygon points="64 39.437 71.575 31.862 56.425 31.862 64 39.437" style="fill:#fff6dc;fill-rule:evenodd"/><polygon points="53.659 29.096 74.341 29.096 80.218 23.22 47.783 23.22 53.659 29.096" style="fill:#eb7f53;fill-rule:evenodd"/></svg>