<svg id="Layer_1" data-name="Layer 1" xmlns="http://www.w3.org/2000/svg" viewBox="0 0 128 128"><title>Artboard 6</title><path d="M74.064,42.149H40.319v4.7H74.064Zm0,7.468H40.319V99.864a1.763,1.763,0,0,0,1.731,1.753H62.615l-.021-.016,0,0-.026-.019-.025-.019-.025-.019-.025-.019-.025-.019,0,0-.023-.018-.025-.019-.025-.02-.025-.019-.025-.02-.009-.007-.016-.013-.025-.02-.025-.02-.025-.02-.025-.02-.016-.013-.009-.008-.025-.02-.025-.02-.025-.02-.025-.02-.049-.041-.024-.02-.025-.02-.024-.02-.049-.041-.024-.021-.024-.021L61.844,101l-.024-.021-.01-.008-.014-.012-.024-.021-.024-.021-.024-.021-.024-.021-.016-.014-.007-.007-.024-.021-.024-.021-.024-.021-.024-.021-.022-.02h0l-.024-.022-.024-.022-.023-.021-.024-.022-.023-.022-.005,0-.018-.017-.023-.022-.023-.022-.023-.022-.023-.022-.011-.01-.012-.012-.023-.022-.023-.022-.023-.022-.023-.022-.017-.017-.006-.006-.022-.022-.023-.022-.023-.023-.022-.022-.023-.023a13.919,13.919,0,0,1-4.1-9.86V71.466a6.789,6.789,0,0,1,6.773-6.773H74.064ZM40.319,39.383H74.064V37.544A11.2,11.2,0,0,0,62.9,26.383H51.481A11.2,11.2,0,0,0,40.319,37.544Zm-2.766,7.468v-4.7H32.229v4.7ZM75.447,67.459h-11.7a4.021,4.021,0,0,0-4.006,4.006V90.424a11.229,11.229,0,0,0,11.193,11.193h4.721A11.229,11.229,0,0,0,86.848,90.424V71.466a4.022,4.022,0,0,0-4.007-4.006Zm14.167,5.516V87.8a7.542,7.542,0,0,0,0-14.827ZM66.18,52.421A1.38,1.38,0,1,1,68.373,54.1a2.637,2.637,0,0,0-.258,2.872c.017.025.033.051.048.077a6.928,6.928,0,0,1,1.306,3.111,4.477,4.477,0,0,1-.664,2.709,1.38,1.38,0,1,1-2.431-1.307,2.09,2.09,0,0,0,.351-1.143,4.565,4.565,0,0,0-.862-1.845c-.017-.022-.033-.044-.048-.068C63.807,55.492,66.173,52.43,66.18,52.421Zm12.091,0A1.38,1.38,0,1,1,80.465,54.1a2.637,2.637,0,0,0-.258,2.872c.017.025.033.051.048.077a6.931,6.931,0,0,1,1.306,3.111,4.481,4.481,0,0,1-.664,2.709,1.38,1.38,0,1,1-2.431-1.307,2.093,2.093,0,0,0,.351-1.143,4.565,4.565,0,0,0-.862-1.845c-.017-.022-.033-.044-.048-.068C75.9,55.492,78.265,52.43,78.271,52.421Zm-26.79-28.8H62.9A13.965,13.965,0,0,1,76.83,37.544V64.693h6.011a6.8,6.8,0,0,1,6.646,5.466A10.307,10.307,0,0,1,89.613,90.6a13.92,13.92,0,0,1-4.1,9.681,14.1,14.1,0,0,1-1.541,1.334H109.6a1.383,1.383,0,0,1,0,2.766H18.4a1.383,1.383,0,1,1,0-2.766H37.908a4.492,4.492,0,0,1-.355-1.753V49.617H32.229V62.548a1.383,1.383,0,1,1-2.766,0V40.766a1.383,1.383,0,0,1,1.383-1.383h6.707V37.544A13.965,13.965,0,0,1,51.481,23.616Z" style="fill:#27130d"/><path d="M86.848,89.312V71.466a4.022,4.022,0,0,0-4.007-4.006H63.747a4.021,4.021,0,0,0-4.006,4.006V90.424a11.229,11.229,0,0,0,11.193,11.193h4.721A11.229,11.229,0,0,0,86.848,90.424Z" style="fill:#fff6dc;fill-rule:evenodd"/><path d="M66.18,52.421A1.38,1.38,0,1,1,68.373,54.1a2.637,2.637,0,0,0-.258,2.872l.048.077a6.928,6.928,0,0,1,1.306,3.111,4.477,4.477,0,0,1-.664,2.709,1.38,1.38,0,1,1-2.431-1.307,2.09,2.09,0,0,0,.351-1.143,4.565,4.565,0,0,0-.862-1.845l-.048-.068C63.807,55.492,66.173,52.43,66.18,52.421Zm-7.217,14.26a6.753,6.753,0,0,1,4.784-1.988H74.064V49.617H40.319V99.864a1.763,1.763,0,0,0,1.731,1.753H62.615l-.025-.019-.026-.019-.025-.019-.025-.019-.025-.019-.028-.021-.023-.018-.025-.019-.025-.02-.025-.019-.025-.02-.009-.007-.016-.013-.025-.02-.025-.02-.025-.02-.025-.02-.016-.013-.009-.008-.025-.02-.025-.02-.025-.02-.025-.02-.049-.041-.024-.02-.025-.02-.024-.02-.049-.041-.024-.021-.024-.021L61.844,101l-.024-.021-.01-.008-.014-.012-.024-.021-.024-.021-.024-.021-.024-.021-.016-.014-.007-.007-.024-.021-.024-.021-.024-.021-.024-.021-.024-.021-.024-.022-.024-.022-.023-.021-.024-.022-.023-.022-.005,0-.018-.017-.023-.022-.023-.022-.023-.022-.023-.022-.011-.01-.012-.012-.023-.022-.023-.022-.023-.022-.023-.022-.017-.017-.006-.006-.022-.022-.023-.022-.023-.023-.022-.022-.023-.023a13.919,13.919,0,0,1-4.1-9.86V71.466A6.752,6.752,0,0,1,58.963,66.682Z" style="fill:#fff6dc;fill-rule:evenodd"/><rect x="40.319" y="42.149" width="33.745" height="4.702" style="fill:#eb7f53"/><path d="M40.319,39.383H74.064V37.544A11.2,11.2,0,0,0,62.9,26.383H51.481A11.2,11.2,0,0,0,40.319,37.544Z" style="fill:#eb7f53;fill-rule:evenodd"/></svg>