<svg id="Layer_1" data-name="Layer 1" xmlns="http://www.w3.org/2000/svg" viewBox="0 0 128 128"><title>Artboard 7</title><path d="M59.816,75.623a9.532,9.532,0,0,0-6.761-2.8c-2.278,0-5.672,2.067-9.457,4.371-6.9,4.2-14.984,9.123-22.123,5.537C24.9,87,30.508,90.079,36.512,91.747A37.8,37.8,0,0,0,48,93.145a21.576,21.576,0,0,0,9.484-2.327,9.242,9.242,0,0,0,5.129-8.432A9.535,9.535,0,0,0,59.816,75.623Zm15.129-2.8a9.562,9.562,0,0,0-9.562,9.562,9.242,9.242,0,0,0,5.129,8.432A21.577,21.577,0,0,0,80,93.145a37.8,37.8,0,0,0,11.492-1.4c6-1.668,11.61-4.749,15.037-9.016C99.386,86.316,91.3,81.4,84.4,77.193,80.617,74.889,77.223,72.822,74.945,72.822ZM63.232,32.087a1.437,1.437,0,0,1,.209-.016h1.118v.006h.022c6.972.131,9.737,15.926,9.825,16.434,1.472,6.029,2.9,7.813,4.838,10.228a44.549,44.549,0,0,1,3.331,4.6A5.594,5.594,0,0,1,82.86,69.5a6.45,6.45,0,0,1-2,2.031q-.178.116-.365.223c1.678.849,3.466,1.938,5.342,3.081,7.779,4.737,17.24,10.5,23.957,1.37h0a1.378,1.378,0,0,1,2.452,1.139c-2.065,8.531-10.62,14.443-20.025,17.057A40.566,40.566,0,0,1,79.888,95.9a24.319,24.319,0,0,1-10.716-2.673A12.7,12.7,0,0,1,64,88.191a12.7,12.7,0,0,1-5.172,5.035A24.317,24.317,0,0,1,48.112,95.9,40.569,40.569,0,0,1,35.777,94.4c-9.405-2.614-17.96-8.526-20.025-17.057A1.378,1.378,0,0,1,18.2,76.208h0c6.717,9.129,16.179,3.367,23.957-1.37,1.876-1.143,3.664-2.232,5.342-3.081q-.186-.107-.364-.223a6.451,6.451,0,0,1-2-2.031,5.594,5.594,0,0,1,.286-6.161,44.489,44.489,0,0,1,3.331-4.6c1.936-2.416,3.365-4.2,4.837-10.228C53.681,48.008,56.4,32.5,63.232,32.087Zm8.5,17.084a1.4,1.4,0,0,1-.044-.182c-.007-.04-2.377-14.024-7.126-14.156v0H63.391c-4.714.229-7.069,14.112-7.076,14.152a1.4,1.4,0,0,1-.044.182c-1.617,6.622-3.209,8.608-5.364,11.3A41.922,41.922,0,0,0,47.771,64.8a3,3,0,0,0-.275,3.276,3.7,3.7,0,0,0,1.156,1.145,5.205,5.205,0,0,0,1.7.714,3.654,3.654,0,0,0,3.733-1c1.966-2.5,3.092-1.638,4.947-.215a7.489,7.489,0,0,0,9.932,0c1.855-1.423,2.981-2.287,4.947.215a3.654,3.654,0,0,0,3.733,1,5.212,5.212,0,0,0,1.7-.714A3.708,3.708,0,0,0,80.5,68.077a3,3,0,0,0-.275-3.276,42.041,42.041,0,0,0-3.137-4.332C74.937,57.779,73.346,55.793,71.729,49.171Z" style="fill:#27130d"/><path d="M77.093,60.468c-2.156-2.689-3.747-4.675-5.364-11.3l-.044-.182c-.007-.04-2.377-14.024-7.126-14.156v0H63.391c-4.714.229-7.069,14.112-7.076,14.152l-.044.182c-1.617,6.622-3.209,8.608-5.364,11.3A41.922,41.922,0,0,0,47.771,64.8a3,3,0,0,0-.275,3.276,3.7,3.7,0,0,0,1.156,1.145,5.205,5.205,0,0,0,1.7.714,3.654,3.654,0,0,0,3.733-1c1.966-2.5,3.092-1.638,4.947-.215a7.489,7.489,0,0,0,9.932,0c1.855-1.423,2.981-2.287,4.947.215a3.654,3.654,0,0,0,3.733,1,5.212,5.212,0,0,0,1.7-.714A3.708,3.708,0,0,0,80.5,68.077a3,3,0,0,0-.275-3.276A42.041,42.041,0,0,0,77.093,60.468Z" style="fill:#fff6dc;fill-rule:evenodd"/><path d="M62.617,82.385a9.562,9.562,0,0,0-9.562-9.562c-2.278,0-5.672,2.067-9.457,4.371-6.9,4.2-14.984,9.123-22.123,5.537C24.9,87,30.508,90.079,36.512,91.747A37.8,37.8,0,0,0,48,93.145a21.576,21.576,0,0,0,9.484-2.327A9.242,9.242,0,0,0,62.617,82.385Z" style="fill:#eb7f53;fill-rule:evenodd"/><path d="M68.184,75.623a9.534,9.534,0,0,0-2.8,6.762,9.242,9.242,0,0,0,5.129,8.432A21.577,21.577,0,0,0,80,93.145a37.8,37.8,0,0,0,11.492-1.4c6-1.668,11.61-4.749,15.037-9.016C99.386,86.316,91.3,81.4,84.4,77.193c-3.785-2.3-7.178-4.371-9.456-4.371A9.533,9.533,0,0,0,68.184,75.623Z" style="fill:#eb7f53;fill-rule:evenodd"/></svg>