<svg xmlns="http://www.w3.org/2000/svg" data-name="Layer 1" viewBox="0 0 128 128"><circle cx="64" cy="48.676" r="23.664" fill="#eaeaea"/><path fill="#59c4c6" fill-rule="evenodd" d="M36.146 46.494a2.459 2.459 0 0 0 0 4.918h55.708a2.463 2.463 0 0 0 1.738-4.2l-.374-1.057-1.365.336z"/><path fill="#603416" d="M64 32.7a1.308 1.308 0 1 1 0-2.616 18.882 18.882 0 0 1 15.423 8 1.305 1.305 0 1 1-2.136 1.5A16.237 16.237 0 0 0 64 32.7zm27.854 13.794H36.146a2.448 2.448 0 0 0-1.736.718h-.005a2.448 2.448 0 0 0-.718 1.736 2.449 2.449 0 0 0 .667 1.683l.057.053a2.45 2.45 0 0 0 1.736.723h55.707a2.469 2.469 0 0 0 2.459-2.459 2.452 2.452 0 0 0-.723-1.736 2.449 2.449 0 0 0-1.736-.718zM62.692 64a1.308 1.308 0 1 1 2.616 0v7.708a22.8 22.8 0 0 0 20.921-17.679H41.771a22.8 22.8 0 0 0 20.921 17.679zm15.691-32.731a1.3 1.3 0 0 1 1.645-2.023 25.427 25.427 0 0 1 8.862 14.632h2.963a5.064 5.064 0 0 1 3.583 1.492 5.061 5.061 0 0 1 1.49 3.585 5.087 5.087 0 0 1-5.075 5.075h-2.96a25.459 25.459 0 0 1-11.077 16.246l14.411 24.96a1.3 1.3 0 0 1-2.258 1.3L75.56 71.581a25.25 25.25 0 0 1-10.252 2.747v28.818a1.308 1.308 0 1 1-2.616 0V74.327a25.25 25.25 0 0 1-10.252-2.746L38.033 96.534a1.3 1.3 0 0 1-2.258-1.3l14.411-24.96a25.464 25.464 0 0 1-11.08-16.245h-2.96a5.06 5.06 0 0 1-3.585-1.49 1.457 1.457 0 0 1-.075-.082 5.059 5.059 0 0 1-1.415-3.5 5.06 5.06 0 0 1 1.49-3.58 5.061 5.061 0 0 1 3.577-1.487h2.96a25.419 25.419 0 0 1 34.94-18.26 1.307 1.307 0 1 1-1.032 2.4 22.8 22.8 0 0 0-31.235 15.848h44.452a22.77 22.77 0 0 0-7.84-12.61z"/></svg>