<svg xmlns="http://www.w3.org/2000/svg" data-name="Layer 1" viewBox="0 0 128 128"><path fill="#f16a73" fill-rule="evenodd" d="M64.976 54.03c-6.067-7.015-15.1-18.745-16.833-25.587a21.9 21.9 0 0 0-4.39 15.127c.388 7.026 2.644 15.471 8.224 21.923L57.808 71c3.768 2.9 8.792 4.178 13.286 5.29 5.939 1.468 11.927.981 16.8-1.9a29.46 29.46 0 0 1-6.628-4.226c-5.146-4.114-10.013-9.047-16.271-16.117v-.007l-.008-.01z"/><path fill="#603416" d="m63.021 47.615 7.957-4.672a114.838 114.838 0 0 0-13.753-13.074c-3.667-2.831-6.211-4.291-6.835-3.752-.689.6.594 3.68 3.227 8.175a115.163 115.163 0 0 0 9.404 13.323zm8.04 9.3a115.2 115.2 0 0 0 11.825 11.22c4.07 3.254 6.935 4.969 7.627 4.372.622-.539-.457-3.268-2.731-7.305a114.825 114.825 0 0 0-10.954-15.489l-4.246 5.3zm6.061-11.737 4.261-5.317-5.883 3.446-1.822 1.073-8.8 5.166 2.269 2.624 2.269 2.623 6.343-7.916c.023-.032.048-.063.074-.093zm15.723-12.953a2.437 2.437 0 0 0-.581-1.77v-.006a2.446 2.446 0 0 0-3.439-.253 2.447 2.447 0 0 0-.3 3.379 1.34 1.34 0 0 1 .109.126 2.446 2.446 0 0 0 3.323.242 1.312 1.312 0 0 1 .125-.109 2.43 2.43 0 0 0 .763-1.609zm-9.927 63.169H42.867a7.75 7.75 0 0 0-7.6 6.406h55.254a7.749 7.749 0 0 0-7.6-6.406zM76 92.778l-6.159-14.116a33.7 33.7 0 0 1-3.647-1.21l-.018-.007-.3-.118-.032-.013h-.006l-.284-.117-.073-.03-.1-.041-.166-.071-.129-.056-.1-.043-.1-.043-.2-.087-.1-.044q-1.668-.754-3.3-1.7l-.082-.047-.082-.048-.16-.094-.082-.048-.081-.048-.081-.048-.076-.046-.162-.1-.081-.05-.016-.009-.065-.04-.242-.15-.026-.016-.3-.187-.037-.024q-.7-.451-1.392-.936l-1.8 4.12-6.74 15.467zm-3.019-13.444 5.869 13.444h4.068a10.358 10.358 0 0 1 10.331 10.331 1.308 1.308 0 0 1-1.308 1.308h-58.1a1.308 1.308 0 0 1-1.308-1.308 10.358 10.358 0 0 1 10.334-10.331h4.068l7.209-16.514 2.049-4.7a42.361 42.361 0 0 1-5.412-5.242 38.426 38.426 0 0 1-9.634-22.614c-.425-7.695 2.054-14.826 7.536-19.568l.047-.039c1.724-1.407 5.416.092 10.088 3.7A118.776 118.776 0 0 1 73.273 41.6l.913-.536 11.664-6.852a5.046 5.046 0 0 1 1.189-5.921 1.3 1.3 0 0 1 .163-.138 5.043 5.043 0 0 1 6.967.522 1.313 1.313 0 0 1 .138.163 5.042 5.042 0 0 1-.522 6.967 1.341 1.341 0 0 1-.164.139 5.043 5.043 0 0 1-6.008.308l-8.46 10.558-.659.822a118.793 118.793 0 0 1 11.567 16.292c2.892 5.136 3.843 9 2.209 10.509l-.049.045c-5.191 4.489-12.11 6.005-19.24 4.856zm-8-25.3A131.821 131.821 0 0 1 51.369 35.61a29.466 29.466 0 0 1-3.226-7.167 21.9 21.9 0 0 0-4.39 15.127 35.8 35.8 0 0 0 9 21.05 39.683 39.683 0 0 0 5.764 5.463l.063.045a36.42 36.42 0 0 0 6.084 3.8 31.94 31.94 0 0 0 6.426 2.361l.088.025q.552.135 1.1.247a21.9 21.9 0 0 0 15.605-2.167 29.46 29.46 0 0 1-6.628-4.226 131.736 131.736 0 0 1-16.212-16.061l-.053-.056-.005-.006z"/><path fill="#eaeaea" fill-rule="evenodd" d="M82.918 95.394H42.867a7.748 7.748 0 0 0-7.6 6.406h55.254a7.748 7.748 0 0 0-7.603-6.406zM49.781 92.778H76l-6.159-14.116a36.753 36.753 0 0 1-11.508-5.476z"/><path fill="#9e8180" fill-rule="evenodd" d="M53.617 34.292a115.163 115.163 0 0 0 9.4 13.323l7.957-4.672a114.838 114.838 0 0 0-13.749-13.074c-3.79-2.926-6.049-4.2-6.835-3.752-.69.599.594 3.683 3.227 8.175zM76.828 49.713l-5.767 7.2a115.2 115.2 0 0 0 11.825 11.222c4.051 3.239 6.967 4.987 7.628 4.371.622-.539-.457-3.268-2.731-7.305a114.825 114.825 0 0 0-10.955-15.488z"/><path fill="#eaeaea" fill-rule="evenodd" d="M69.413 54.794 77.122 45.173 81.383 39.856 64.876 49.548 69.413 54.794z"/><path fill="#eaeaea" fill-rule="evenodd" d="M88.816 30.2a2.44 2.44 0 1 0 4.029 2.025 2.445 2.445 0 0 0-4.029-2.025z"/></svg>