<svg id="Layer_1" data-name="Layer 1" xmlns="http://www.w3.org/2000/svg" viewBox="0 0 128 128"><title>Artboard 8</title><circle cx="64" cy="48.676" r="23.664" style="fill:#eaeaea"/><path d="M36.146,46.494a2.459,2.459,0,0,0,0,4.918H91.854a2.463,2.463,0,0,0,1.738-4.2l-.374-1.057-1.365.336Z" style="fill:#59c4c6;fill-rule:evenodd"/><path d="M64,32.7a1.308,1.308,0,1,1,0-2.616,18.882,18.882,0,0,1,15.423,8,1.305,1.305,0,1,1-2.136,1.5A16.237,16.237,0,0,0,64,32.7ZM91.854,46.494H36.146a2.448,2.448,0,0,0-1.736.718l-.005,0a2.448,2.448,0,0,0-.718,1.736h0a2.449,2.449,0,0,0,.667,1.683c.019.017.038.035.057.053a2.45,2.45,0,0,0,1.736.723H91.854a2.469,2.469,0,0,0,2.459-2.459h0a2.452,2.452,0,0,0-.723-1.736l0,0,0,0A2.449,2.449,0,0,0,91.854,46.494ZM62.692,64a1.308,1.308,0,1,1,2.616,0v7.708A22.8,22.8,0,0,0,86.229,54.029H41.771A22.8,22.8,0,0,0,62.692,71.708ZM78.383,31.269a1.3,1.3,0,0,1,1.645-2.023A25.427,25.427,0,0,1,88.89,43.878h2.963a5.064,5.064,0,0,1,3.583,1.492l0,0a5.061,5.061,0,0,1,1.49,3.585h0a5.087,5.087,0,0,1-5.075,5.075h-2.96A25.459,25.459,0,0,1,77.814,70.276l14.411,24.96a1.3,1.3,0,0,1-2.258,1.3L75.56,71.581a25.25,25.25,0,0,1-10.252,2.747v28.818a1.308,1.308,0,1,1-2.616,0V74.327A25.25,25.25,0,0,1,52.44,71.581L38.033,96.534a1.3,1.3,0,0,1-2.258-1.3l14.411-24.96A25.464,25.464,0,0,1,39.106,54.029h-2.96a5.06,5.06,0,0,1-3.585-1.49c-.026-.026-.051-.054-.075-.082a5.059,5.059,0,0,1-1.415-3.5h0a5.06,5.06,0,0,1,1.49-3.58l0,0,0,0,0,0a5.061,5.061,0,0,1,3.577-1.487h2.96a25.419,25.419,0,0,1,34.94-18.26,1.307,1.307,0,1,1-1.032,2.4A22.8,22.8,0,0,0,41.771,43.878H86.223a22.77,22.77,0,0,0-7.84-12.61Z" style="fill:#603416"/></svg>