<svg id="Layer_1" data-name="Layer 1" xmlns="http://www.w3.org/2000/svg" viewBox="0 0 128 128"><title>Artboard 6</title><path d="M67.715,54.321a5.239,5.239,0,0,0-3.378-1.528h0l-.065,0h-.018l-.028,0H64.2l-.062,0H64A5.254,5.254,0,1,0,64,63.29h.147l.056,0h.017a5.255,5.255,0,0,0,3.5-8.965ZM69.787,52.7a7.871,7.871,0,0,1,.933,9.43l18.2,15.774a31.835,31.835,0,0,0-4.37-44.235Zm6.389,32.474a17.851,17.851,0,0,1,3.694.5,31.807,31.807,0,0,0,7.346-5.8L69.011,64.1a7.833,7.833,0,0,1-4.42,1.78l-.053,0-.053,0-.054,0-.054,0-.053,0-.054,0-.054,0H64a7.87,7.87,0,0,1,0-15.74h.331l.041,0,.082,0,.041,0h.01l.031,0,.041,0a7.826,7.826,0,0,1,3.151.916L82.494,32.072a31.88,31.88,0,1,0-34.4,53.6,17.835,17.835,0,0,1,3.613-.49h.074l.112,0h24.28Zm-.162,2.612h-.033l-.133,0H52.072A15.418,15.418,0,0,0,37,101.837h53.92a15.419,15.419,0,0,0-14.9-14.048Zm7.929-45.156a1.3,1.3,0,0,1,2.064-1.594,27.82,27.82,0,0,1,5.8,17,1.308,1.308,0,0,1-2.616,0,25.185,25.185,0,0,0-5.252-15.4Zm1.2-11.845A34.474,34.474,0,0,1,90.031,80.66c-.021.025-.043.048-.066.07a34.5,34.5,0,0,1-4.258,4.1q-1.288,1.043-2.661,1.953a18.112,18.112,0,0,1,5.265,3.662,17.923,17.923,0,0,1,5.28,12.7,1.309,1.309,0,0,1-1.308,1.308H35.635a1.308,1.308,0,0,1-1.308-1.308,17.923,17.923,0,0,1,5.28-12.7,18.1,18.1,0,0,1,5.313-3.685A34.672,34.672,0,0,1,34.265,75.51,34.487,34.487,0,0,1,85.137,30.788l0,0Z" style="fill:#603416"/><path d="M52.1,87.786A15.422,15.422,0,0,0,37,101.837h53.92a15.419,15.419,0,0,0-14.9-14.048Z" style="fill:#eaeaea;fill-rule:evenodd"/><path d="M36.514,74.192A32.038,32.038,0,0,0,48.1,85.669a17.835,17.835,0,0,1,3.613-.49l.593-.01h23.46l.413.009a17.851,17.851,0,0,1,3.694.5,31.807,31.807,0,0,0,7.346-5.8L69.011,64.1a7.87,7.87,0,1,1-1.284-13L82.494,32.072a31.882,31.882,0,0,0-45.98,42.121Z" style="fill:#eaeaea;fill-rule:evenodd"/><path d="M89.2,58.036a25.186,25.186,0,0,0-5.252-15.4,1.3,1.3,0,0,1,2.064-1.594,27.821,27.821,0,0,1,5.8,17A1.308,1.308,0,0,1,89.2,58.036Zm-18.475,4.1,18.2,15.774a31.866,31.866,0,0,0-4.37-44.235L69.787,52.7A7.868,7.868,0,0,1,70.72,62.134Z" style="fill:#59c4c6;fill-rule:evenodd"/><path d="M67.715,61.752a5.254,5.254,0,1,0-8.969-3.715A5.255,5.255,0,0,0,67.715,61.752Z" style="fill:#9e8180;fill-rule:evenodd"/></svg>