<svg xmlns="http://www.w3.org/2000/svg" data-name="Layer 1" viewBox="0 0 128 128"><path fill="#603416" d="M72.011 26.179a37.83 37.83 0 1 0 19.913 70.756 37.425 37.425 0 0 0 4.895-3.3 40.27 40.27 0 0 1-20.011-7.517A35.761 35.761 0 0 1 64.761 43.29 40.27 40.27 0 0 1 77.91 26.442a37.586 37.586 0 0 0-5.899-.263zm21.95 8.771-1.28-1.634-.817 1.908a1.3 1.3 0 0 1-.756.716l-1.945.71 1.563 1.366a1.3 1.3 0 0 1 .445.936l.074 2.067L92.952 40a1.3 1.3 0 0 1 1.1-.182l1.993.569-.459-2.017a1.3 1.3 0 0 1 .189-1.011l1.162-1.726-2.066-.187a1.3 1.3 0 0 1-.909-.495zm.4-3.718 1.307 1.668 2.113.191a2.231 2.231 0 0 1 1.919 2.972 2.3 2.3 0 0 1-.163.363 1.28 1.28 0 0 1-.084.145 1.486 1.486 0 0 1-.066.09l-1.132 1.683.473 2.079v.006a2.24 2.24 0 0 1-1.685 2.671l-.08.016a2.229 2.229 0 0 1-.534.037h-.03a2.22 2.22 0 0 1-.512-.093l-2.011-.574-1.827 1.09c-.035.021-.072.04-.109.058a2.229 2.229 0 0 1-2.961-.832 2.257 2.257 0 0 1-.226-.509 1.62 1.62 0 0 1-.024-.094 2.259 2.259 0 0 1-.05-.278 1.321 1.321 0 0 1-.02-.23v-.059l-.073-2.024-1.607-1.408a2.244 2.244 0 0 1 .281-3.584 2.271 2.271 0 0 1 .554-.253l1.873-.683.838-1.959a2.243 2.243 0 0 1 2.942-1.184 2.273 2.273 0 0 1 .5.291 1.452 1.452 0 0 1 .124.109 2.261 2.261 0 0 1 .269.294zm-8.68 33.153 2.83-1.909a2.691 2.691 0 0 1 4.2 1.976l.314 3.414 2.555 2a2.69 2.69 0 0 1 .557.5 2.7 2.7 0 0 1-1 4.2l-3.157 1.363-1.155 3.171-.016.047a2.684 2.684 0 0 1-.305.591 2.717 2.717 0 0 1-.448.5 2.684 2.684 0 0 1-3.793-.25L84 77.417l-3.346-.117a2.636 2.636 0 0 1-1.358-.374 2.676 2.676 0 0 1-.937-3.683l1.749-2.943-.949-3.307a2.687 2.687 0 0 1 1.062-2.949c.031-.023.062-.045.1-.067a2.686 2.686 0 0 1 2.031-.345zm4.291.257-3.3 2.223a1.305 1.305 0 0 1-1.1.171l-3.806-.862a.08.08 0 0 0-.059.008l-.018.011a.1.1 0 0 0-.019.04v.025c0 .005 0 0 .007.017s.016.063.023.095l1.075 3.747a1.3 1.3 0 0 1-.2 1.127L80.6 74.566a.094.094 0 0 0 0 .069.078.078 0 0 0 .029.047.1.1 0 0 0 .023.01l.024.006h.056l3.923.137a1.3 1.3 0 0 1 .94.445l2.633 3a.074.074 0 0 0 .051.023.087.087 0 0 0 .063-.019l.009-.012.009-.019.029-.073 1.336-3.673a1.3 1.3 0 0 1 .711-.754l3.664-1.581a.084.084 0 0 0 .047-.042.091.091 0 0 0 0-.067l-.009-.021a.082.082 0 0 0-.018-.016 1.3 1.3 0 0 1-.14-.107l-3-2.343a1.3 1.3 0 0 1-.5-.91l-.365-3.977a.083.083 0 0 0-.029-.056.089.089 0 0 0-.064-.02l-.022.009-.016.006-.018.012zM32.459 94.183l1.28-1.634.817 1.908a1.3 1.3 0 0 0 .755.716l1.945.71-1.563 1.367a1.3 1.3 0 0 0-.445.935l-.074 2.066-1.706-1.018a1.3 1.3 0 0 0-1.1-.181l-1.993.569.459-2.017a1.3 1.3 0 0 0-.188-1.012l-1.162-1.726 2.065-.187a1.3 1.3 0 0 0 .91-.496zm-.4-3.717-1.307 1.669-2.112.191a2.231 2.231 0 0 0-1.919 2.974 2.348 2.348 0 0 0 .163.363 1.314 1.314 0 0 0 .084.145c.021.031.043.061.065.089l1.133 1.683-.473 2.079v.006a2.241 2.241 0 0 0 1.687 2.672l.08.016a2.219 2.219 0 0 0 .534.037h.03a2.234 2.234 0 0 0 .513-.093l2.011-.574 1.827 1.09c.036.021.072.041.109.058a2.229 2.229 0 0 0 2.961-.833 2.267 2.267 0 0 0 .226-.509q.014-.047.024-.094a2.253 2.253 0 0 0 .05-.278 1.346 1.346 0 0 0 .02-.23v-.059l.072-2.024 1.608-1.406a2.245 2.245 0 0 0-.282-3.585 2.268 2.268 0 0 0-.553-.252l-1.873-.684-.837-1.962a2.243 2.243 0 0 0-2.942-1.183 2.271 2.271 0 0 0-.5.291 1.38 1.38 0 0 0-.124.109 2.263 2.263 0 0 0-.27.293zm30.28-65.4a40.321 40.321 0 0 1 19.23-.659 1.3 1.3 0 0 1 .431 2.38 37.905 37.905 0 0 0-14.828 17.494 33.16 33.16 0 0 0 11.179 39.731 37.9 37.9 0 0 0 21.774 7.2 1.3 1.3 0 0 1 .875 2.25 40.444 40.444 0 1 1-38.659-68.4zM90.727 38.016"/><path fill="#ffe749" fill-rule="evenodd" d="M30.646 96.591a1.3 1.3 0 0 1 .189 1.012l-.459 2.017 1.993-.569a1.3 1.3 0 0 1 1.1.181l1.706 1.018.074-2.066a1.3 1.3 0 0 1 .445-.935l1.563-1.367-1.945-.71a1.3 1.3 0 0 1-.756-.715l-.817-1.908-1.28 1.634a1.3 1.3 0 0 1-.91.5l-2.065.187zM36.875 74.245a37.872 37.872 0 0 0 55.05 22.691 37.425 37.425 0 0 0 4.895-3.3C81.29 92.162 67.61 82.076 63.314 66.8a35.947 35.947 0 0 1 1.447-23.51A40.27 40.27 0 0 1 77.91 26.442a37.827 37.827 0 0 0-41.035 47.8z"/><path fill="#ffe749" fill-rule="evenodd" d="m88.386 78.178 1.336-3.673a1.314 1.314 0 0 1 .71-.756l3.719-1.619-.015-.087-3.157-2.466a1.3 1.3 0 0 1-.5-.91l-.394-4.033-.118.008-3.3 2.223a1.305 1.305 0 0 1-1.1.171l-3.811-.863-.07.2 1.075 3.747a1.3 1.3 0 0 1-.2 1.127l-1.98 3.389.031.043.1.016 3.923.137a1.3 1.3 0 0 1 .94.445l2.701 3.023zM92.952 40a1.3 1.3 0 0 1 1.1-.182l1.993.569-.458-2.017a1.3 1.3 0 0 1 .189-1.011l1.162-1.726-2.066-.187a1.3 1.3 0 0 1-.91-.5l-1.28-1.634-.817 1.908a1.3 1.3 0 0 1-.756.716l-1.945.71 1.563 1.366a1.3 1.3 0 0 1 .445.936l.074 2.067z"/></svg>