<svg id="Layer_1" data-name="Layer 1" xmlns="http://www.w3.org/2000/svg" viewBox="0 0 128 128"><title>Artboard 11</title><path d="M72.01,55.677H55.99a.726.726,0,0,0-.472.174l-.038.039a.722.722,0,0,0-.213.51V87.094a.722.722,0,0,0,.213.51l0,0a.727.727,0,0,0,.512.211H72.01a.727.727,0,0,0,.472-.173l.038-.04a.721.721,0,0,0,.213-.51V56.4a.72.72,0,0,0-.213-.51l0,0A.728.728,0,0,0,72.01,55.677ZM34.959,70.439v-8H29.8a3.649,3.649,0,0,0-3.636,3.636v4.368Zm0,10.62v-8h-8.8v4.368a3.625,3.625,0,0,0,1.069,2.566l0,0A3.632,3.632,0,0,0,29.8,81.058Zm2.616-8v8h8.8v-8Zm0-10.62v8h8.8v-8Zm52.849,8v-8h-8.8v8Zm0,10.62v-8h-8.8v8Zm2.616-8v8H98.2a3.653,3.653,0,0,0,3.636-3.635V73.055Zm0-10.62v8h8.8V66.071a3.631,3.631,0,0,0-1.011-2.511c-.02-.018-.04-.036-.059-.055A3.625,3.625,0,0,0,98.2,62.435Zm-25.1,28H60.061v1.075a3.939,3.939,0,0,0,7.878,0ZM64,47.17H56.924a7.2,7.2,0,0,0,14.151.005H64Zm1.754-13.9a2.456,2.456,0,0,0-3.527,3.419l.055.053a2.453,2.453,0,0,0,3.469-3.469ZM80.32,59.819H98.2a6.234,6.234,0,0,1,4.416,1.836c.025.026.05.052.073.079a6.228,6.228,0,0,1,1.763,4.337V77.423A6.27,6.27,0,0,1,98.2,83.675H80.32a1.308,1.308,0,0,1-1.308-1.308V73.055H75.349V87.094a3.33,3.33,0,0,1-.98,2.359q-.042.042-.088.08a3.323,3.323,0,0,1-2.272.9H70.555v1.075a6.531,6.531,0,0,1-1.924,4.626l-.005,0a6.521,6.521,0,0,1-9.251,0l0,0a6.532,6.532,0,0,1-1.925-4.626V90.433H55.99a3.326,3.326,0,0,1-2.354-.98l0,0,0,0a3.332,3.332,0,0,1-.98-2.359V73.055H48.988v9.312a1.308,1.308,0,0,1-1.308,1.308H29.8a6.23,6.23,0,0,1-4.411-1.836l0,0,0,0a6.233,6.233,0,0,1-1.836-4.416V66.071A6.266,6.266,0,0,1,29.8,59.819H47.68a1.308,1.308,0,0,1,1.308,1.308v9.312H52.65V56.4a3.332,3.332,0,0,1,.98-2.359q.043-.042.088-.08a3.322,3.322,0,0,1,2.272-.9h1.341q-.136-.126-.267-.257a9.778,9.778,0,0,1-2.874-6.936h0a1.3,1.3,0,0,1,1.3-1.3h7.2l.011-4.66a5.066,5.066,0,0,1-2.278-1.315c-.026-.026-.05-.053-.074-.081A5.065,5.065,0,0,1,67.6,31.422l0,0,0,0a5.062,5.062,0,0,1,0,7.163l0,0a5.07,5.07,0,0,1-2.279,1.315l-.011,4.653h7.2a1.308,1.308,0,0,1,1.308,1.308A9.779,9.779,0,0,1,70.936,52.8q-.131.131-.267.257H72.01a3.326,3.326,0,0,1,2.354.98l0,0,0,0a3.331,3.331,0,0,1,.98,2.359V70.439h3.662V61.127A1.308,1.308,0,0,1,80.32,59.819Z" style="fill:#603416"/><path d="M34.959,62.435H29.8a3.649,3.649,0,0,0-3.636,3.636v4.368h8.8Z" style="fill:#59c4c6;fill-rule:evenodd"/><rect x="37.575" y="62.435" width="8.797" height="8.004" style="fill:#59c4c6"/><rect x="37.575" y="73.055" width="8.797" height="8.003" style="fill:#59c4c6"/><path d="M34.959,81.058v-8h-8.8v4.368A3.642,3.642,0,0,0,29.8,81.058Z" style="fill:#59c4c6;fill-rule:evenodd"/><path d="M55.267,56.4V87.094a.739.739,0,0,0,.211.512.727.727,0,0,0,.512.211H72.01l.723-.723V56.4a.74.74,0,0,0-.211-.513.728.728,0,0,0-.513-.211H55.99Z" style="fill:#eaeaea;fill-rule:evenodd"/><path d="M67.939,90.433H60.061c0,1.48-.064,2.639,1.155,3.858a3.942,3.942,0,0,0,6.722-2.784Z" style="fill:#eaeaea;fill-rule:evenodd"/><path d="M56.924,47.17a7.2,7.2,0,0,0,14.151.005H64V47.17Z" style="fill:#eaeaea;fill-rule:evenodd"/><path d="M61.565,35.006a2.455,2.455,0,1,0,4.189-1.737A2.458,2.458,0,0,0,61.565,35.006Z" style="fill:#eaeaea;fill-rule:evenodd"/><rect x="81.628" y="62.435" width="8.797" height="8.004" style="fill:#59c4c6"/><path d="M93.041,62.435v8h8.8V66.071A3.648,3.648,0,0,0,98.2,62.435Z" style="fill:#59c4c6;fill-rule:evenodd"/><path d="M101.838,73.055h-8.8v8H98.2a3.653,3.653,0,0,0,3.636-3.635Z" style="fill:#59c4c6;fill-rule:evenodd"/><rect x="81.628" y="73.055" width="8.797" height="8.003" style="fill:#59c4c6"/></svg>