<svg id="Layer_1" data-name="Layer 1" xmlns="http://www.w3.org/2000/svg" viewBox="0 0 128 128"><title>Artboard 10</title><circle cx="74.083" cy="78.607" r="16.293" style="fill:#ffe749"/><path d="M91.675,80.2a1.307,1.307,0,1,1-2.606-.214,14.938,14.938,0,1,0-1.658,5.679,1.3,1.3,0,1,1,2.309,1.205A17.555,17.555,0,1,1,91.675,80.2ZM81.8,87.906a1.308,1.308,0,0,1-1.832-1.866h0a1.318,1.318,0,0,1,.172-.145,9.374,9.374,0,0,0,1.312-13.061,1.308,1.308,0,0,1,1.878-1.82h0l0,0a1.246,1.246,0,0,1,.09.1A11.981,11.981,0,0,1,81.8,87.906ZM65.53,52.567a1.3,1.3,0,0,1-2.023,1.645L41.551,27.342A1.3,1.3,0,0,1,43.574,25.7ZM52.26,63.409a1.3,1.3,0,1,1-2.023,1.645l-16.7-20.442a1.3,1.3,0,1,1,2.024-1.645Zm3.286,30.61a1.346,1.346,0,0,1-.131-.159L30.072,62.843A1.3,1.3,0,0,1,32.1,61.2L57.433,92.208l0,0a1.252,1.252,0,0,1,.123.149,21.477,21.477,0,0,0,30.094,3.026,1.312,1.312,0,0,1,.142-.116A21.479,21.479,0,0,0,90.763,65.1l-25.4-31.091a1.3,1.3,0,0,1,2.023-1.645l25.4,31.091A24.088,24.088,0,0,1,89.4,97.33l-.026.021a24.087,24.087,0,0,1-33.824-3.332Z" style="fill:#603416"/></svg>