<svg id="Layer_1" data-name="Layer 1" xmlns="http://www.w3.org/2000/svg" viewBox="0 0 128 128"><title>Artboard 1</title><circle cx="64" cy="64" r="23.65" style="fill:#ffe749"/><path d="M62.7,24.854a1.3,1.3,0,0,1,2.606,0l.012,9.7a1.3,1.3,0,1,1-2.606,0Zm19.747,4.6a1.3,1.3,0,0,1,2.258,1.3l-4.837,8.4a1.3,1.3,0,1,1-2.258-1.3ZM97.247,43.3a1.3,1.3,0,0,1,1.308,2.258l-8.39,4.858a1.3,1.3,0,0,1-1.308-2.258Zm5.9,19.4a1.3,1.3,0,0,1,0,2.606l-9.7.012a1.3,1.3,0,0,1,0-2.606Zm-4.6,19.747a1.3,1.3,0,1,1-1.3,2.258l-8.4-4.837a1.3,1.3,0,0,1,1.3-2.258ZM84.7,97.247a1.3,1.3,0,0,1-2.258,1.308l-4.858-8.39a1.3,1.3,0,0,1,2.258-1.308Zm-19.4,5.9a1.3,1.3,0,0,1-2.606,0l-.012-9.7a1.3,1.3,0,1,1,2.606,0Zm-19.747-4.6a1.3,1.3,0,1,1-2.258-1.3l4.837-8.4a1.3,1.3,0,0,1,2.258,1.3ZM30.753,84.7a1.3,1.3,0,0,1-1.308-2.258l8.39-4.858a1.3,1.3,0,0,1,1.308,2.258Zm-5.9-19.4a1.3,1.3,0,0,1,0-2.606l9.7-.012a1.3,1.3,0,0,1,0,2.606Zm4.6-19.747a1.3,1.3,0,0,1,1.3-2.258l8.4,4.837a1.3,1.3,0,1,1-1.3,2.258ZM43.3,30.753a1.3,1.3,0,0,1,2.258-1.308l4.858,8.39a1.3,1.3,0,1,1-2.258,1.308ZM64,48.939a1.308,1.308,0,0,1,0-2.616A17.679,17.679,0,0,1,81.678,64a1.308,1.308,0,0,1-2.616,0A15.061,15.061,0,0,0,64,48.939Zm18.222,2.287a1.3,1.3,0,1,1,2.136-1.492,24.865,24.865,0,1,1-6.243-6.2,1.3,1.3,0,1,1-1.481,2.146,22.2,22.2,0,1,0,5.589,5.545Z" style="fill:#603416"/></svg>