<svg id="Layer_1" data-name="Layer 1" xmlns="http://www.w3.org/2000/svg" viewBox="0 0 128 128"><title>Artboard 12</title><path d="M79.775,65.224c1.156-.479,2.036-.611,2.367-.285.322.362.207,1.18-.285,2.368A18.2,18.2,0,0,1,73.4,75.762c-1.156.479-2.036.611-2.368.285-.322-.363-.208-1.179.285-2.368a18.148,18.148,0,0,1,8.455-8.454ZM65.757,32.115a1.3,1.3,0,0,1,.531-2.554A32.506,32.506,0,0,1,90.743,51.927a1.3,1.3,0,0,1-2.493.757A29.875,29.875,0,0,0,65.757,32.115ZM44.01,63.092c1.151-1.151,3.06-1.173,5.216-.279a20.7,20.7,0,0,1,9.864,9.864C61.8,79.205,55.4,81.691,47.809,74.1l0,0a18.834,18.834,0,0,1-4.074-5.787C42.839,66.156,42.862,64.248,44.01,63.092ZM41.134,38.227A45.791,45.791,0,0,0,30.643,66.635c0,7.415,4.162,14.346,9.589,20.062,8.693,9.156,20.41,15.14,23.768,15.14S79.076,95.853,87.768,86.7c5.427-5.716,9.589-12.647,9.589-20.062A45.794,45.794,0,0,0,86.867,38.227C73.538,22.164,54.462,22.163,41.134,38.227Z" style="fill:#c1d963;fill-rule:evenodd"/><path d="M86.867,38.227C80.886,31.019,72.831,26.163,64,26.163S47.114,31.019,41.134,38.227A45.791,45.791,0,0,0,30.643,66.635c0,7.415,4.162,14.346,9.589,20.062,8.693,9.156,20.41,15.14,23.768,15.14S79.076,95.853,87.768,86.7c5.427-5.716,9.589-12.647,9.589-20.062A45.794,45.794,0,0,0,86.867,38.227Zm-21.11-6.112a1.3,1.3,0,1,1,.531-2.554A32.5,32.5,0,0,1,90.743,51.927a1.3,1.3,0,0,1-2.493.757A29.873,29.873,0,0,0,65.757,32.115ZM48.225,65.224c-1.157-.479-2.037-.611-2.366-.282l0,0,0,0c-.327.326-.193,1.207.287,2.365a16.2,16.2,0,0,0,3.512,4.939h0l0,0,0,0A16.2,16.2,0,0,0,54.6,75.762c1.156.479,2.036.611,2.365.283h0c.329-.329.2-1.209-.282-2.366a16.2,16.2,0,0,0-3.513-4.94h0A16.2,16.2,0,0,0,48.225,65.224ZM44.01,63.092c1.151-1.151,3.06-1.173,5.216-.279a18.826,18.826,0,0,1,5.787,4.074h0a18.836,18.836,0,0,1,4.075,5.787c.893,2.156.871,4.066-.28,5.217h0c-1.15,1.15-3.06,1.173-5.215.279A18.821,18.821,0,0,1,47.814,74.1l0,0,0,0,0,0h0a18.834,18.834,0,0,1-4.074-5.787c-.892-2.153-.869-4.061.282-5.214Zm39.979,0h0l0,0c1.151,1.153,1.174,3.062.282,5.214A18.821,18.821,0,0,1,80.195,74.1h0A18.829,18.829,0,0,1,74.4,78.173c-2.156.894-4.066.871-5.216-.28l0,0c-1.151-1.153-1.174-3.061-.282-5.214a18.824,18.824,0,0,1,4.075-5.787h0l0,0,0,0,0,0a18.821,18.821,0,0,1,5.782-4.073C80.929,61.919,82.839,61.942,83.989,63.092Zm-1.849,1.85h0c-.328-.328-1.209-.2-2.364.283a16.2,16.2,0,0,0-4.941,3.508l0,0,0,0h0a16.2,16.2,0,0,0-3.512,4.94c-.48,1.159-.614,2.039-.287,2.365l0,0,0,0c.329.329,1.209.2,2.366-.282a16.2,16.2,0,0,0,4.94-3.512h0a16.194,16.194,0,0,0,3.512-4.939c.48-1.159.614-2.039.287-2.365l0,0ZM64,23.547c9.672,0,18.428,5.239,24.879,13.015A48.466,48.466,0,0,1,99.973,66.635c0,8.185-4.477,15.712-10.314,21.861C80.5,98.146,67.757,104.453,64,104.453S47.5,98.146,38.342,88.5C32.5,82.348,28.027,74.82,28.027,66.635A48.468,48.468,0,0,1,39.121,36.562C45.572,28.786,54.328,23.547,64,23.547Z" style="fill:#603416"/><path d="M46.142,67.307a16.592,16.592,0,0,0,3.514,4.946A16.2,16.2,0,0,0,54.6,75.762c1.156.479,2.036.611,2.365.282s.2-1.209-.282-2.366a16.21,16.21,0,0,0-3.515-4.942,16.2,16.2,0,0,0-4.94-3.513c-1.157-.479-2.037-.611-2.368-.285C45.535,65.3,45.649,66.119,46.142,67.307Z" style="fill:#ffe749;fill-rule:evenodd"/><path d="M74.837,68.735a16.2,16.2,0,0,0-3.516,4.944c-.493,1.189-.607,2.005-.283,2.365.329.329,1.209.2,2.366-.282a18.2,18.2,0,0,0,8.454-8.454c.492-1.188.607-2.005.282-2.365-.329-.329-1.209-.2-2.365.282A16.131,16.131,0,0,0,74.837,68.735Z" style="fill:#ffe749;fill-rule:evenodd"/></svg>