<svg xmlns="http://www.w3.org/2000/svg" data-name="Layer 1" viewBox="0 0 128 128"><path fill="#603416" d="M83.376 32.76a1.308 1.308 0 0 1 .436-2.541 1.306 1.306 0 0 1 .625.159 9.446 9.446 0 0 1 4.917 5.186l.025.07a9.432 9.432 0 0 1-.177 7.175 1.3 1.3 0 1 1-2.391-1.042 6.85 6.85 0 0 0 .134-5.2l-.023-.056a6.84 6.84 0 0 0-3.546-3.751zm4.3 19.5-21.855-9.6-10.34 23.563 21.854 9.595 3.9-8.889.217-.493zM66.873 40.274l21.854 9.595 2.591-5.9a11.971 11.971 0 0 0-6.126-15.726 11.971 11.971 0 0 0-15.726 6.125zm-4.638 37.009a1.3 1.3 0 0 1 2.391 1.042L61.6 85.217l6.4 2.809a3.652 3.652 0 0 0 4.8-1.865l3.492-7.955-21.859-9.594-3.49 7.949a3.652 3.652 0 0 0 1.865 4.8l6.4 2.812zm-13.159-2.96 3.487-7.944v-.007l3.76-8.566-19.693 1.7-3.456 7.872zm33.884-4.828-3.76 8.563v.005l-3.49 7.95 15.87 7 3.457-7.874zm3.28-43.643a14.582 14.582 0 0 1 7.47 19.157l-3.116 7.1-6.439 14.664 13.4 17.368a1.3 1.3 0 0 1 .18 1.339L93.47 95.2l-.028.068a1.306 1.306 0 0 1-1.722.669L74.53 88.35a6.281 6.281 0 0 1-6.33 2.464l-5.169 11.773a1.3 1.3 0 0 1-2.391-1.042l5.116-11.653-5.206-2.286-3.75 8.553a1.3 1.3 0 0 1-2.391-1.042l3.758-8.56-5.207-2.286-5.117 11.648a1.3 1.3 0 1 1-2.391-1.042L50.624 83.1a6.282 6.282 0 0 1-2.47-6.33l-17.216-7.521a1.3 1.3 0 0 1-.674-1.717l4.294-9.781a1.3 1.3 0 0 1 1.083-.779l21.884-1.892 6.434-14.654 3.115-7.1v-.005a14.582 14.582 0 0 1 19.156-7.469z"/><path fill="#f16a73" fill-rule="evenodd" d="M83.376 32.76a1.308 1.308 0 1 1 1.061-2.383 9.446 9.446 0 0 1 4.917 5.186l.025.07a9.432 9.432 0 0 1-.177 7.175 1.3 1.3 0 1 1-2.391-1.042 6.85 6.85 0 0 0 .134-5.2l-.023-.056a6.84 6.84 0 0 0-3.546-3.75zm-13.909 1.606-2.594 5.908 21.854 9.595 2.591-5.9a11.934 11.934 0 0 0-21.852-9.6z"/><path fill="#eaeaea" fill-rule="evenodd" d="M87.68 52.258 65.825 42.662 55.481 66.223 77.335 75.818 81.238 66.929 81.455 66.436 87.68 52.258z"/><path fill="#eaeaea" fill-rule="evenodd" d="M52.567 66.372 56.327 57.806 36.635 59.509 33.179 67.381 49.076 74.323 52.564 66.379 52.567 66.372z"/><path fill="#f16a73" fill-rule="evenodd" d="m76.287 78.206-21.854-9.594-3.49 7.949a3.652 3.652 0 0 0 1.865 4.8l6.4 2.812 3.023-6.885a1.3 1.3 0 0 1 2.391 1.042L61.6 85.217l6.4 2.809a3.653 3.653 0 0 0 4.8-1.865z"/><path fill="#eaeaea" fill-rule="evenodd" d="M79.199 78.063 75.709 86.013 91.579 93.018 95.036 85.144 82.96 69.495 79.201 78.058 79.199 78.063z"/></svg>