<svg id="Layer_1" data-name="Layer 1" xmlns="http://www.w3.org/2000/svg" viewBox="0 0 128 128"><title>Artboard 15</title><path d="M95.25,55.981H32.75a6.588,6.588,0,0,0,0,13.175h62.5a6.588,6.588,0,0,0,0-13.175ZM36.957,53.365H91.043a27.074,27.074,0,0,0-54.086,0ZM88.219,71.773H39.781a6.619,6.619,0,0,0,6.456,5.28H81.763a6.618,6.618,0,0,0,6.456-5.28ZM64,32.937a1.308,1.308,0,0,1,0-2.616,24.361,24.361,0,0,1,23.077,16.59,1.3,1.3,0,0,1-2.473.827A21.726,21.726,0,0,0,64,32.937ZM89.572,95.779a1.3,1.3,0,1,1-1.84,1.849L76.227,86.213a1.3,1.3,0,1,1,1.84-1.849Zm-49.3,1.849a1.3,1.3,0,1,1-1.84-1.849L49.934,84.363a1.3,1.3,0,0,1,1.84,1.849Zm25.1,4.086a1.3,1.3,0,1,1-2.606,0L62.7,85.506a1.3,1.3,0,0,1,2.606,0ZM32.75,53.365h1.588a29.691,29.691,0,0,1,59.324,0H95.25a9.2,9.2,0,0,1,0,18.407H90.873a9.235,9.235,0,0,1-9.11,7.9H46.237a9.235,9.235,0,0,1-9.11-7.9H32.75a9.2,9.2,0,0,1,0-18.407Z" style="fill:#603416"/><path d="M64,32.937a1.308,1.308,0,0,1,0-2.616,24.361,24.361,0,0,1,23.077,16.59,1.3,1.3,0,0,1-2.473.827A21.726,21.726,0,0,0,64,32.937ZM44.855,35.528a26.985,26.985,0,0,0-7.9,17.837H91.043A27.075,27.075,0,0,0,44.855,35.528Z" style="fill:#59c4c6;fill-rule:evenodd"/><path d="M92.383,55.981H32.75a6.588,6.588,0,0,0,0,13.175h62.5a6.588,6.588,0,0,0,0-13.175Z" style="fill:#eaeaea;fill-rule:evenodd"/><path d="M88.219,71.773H39.781a6.619,6.619,0,0,0,6.456,5.28H81.763a6.618,6.618,0,0,0,6.456-5.28Z" style="fill:#9e8180;fill-rule:evenodd"/></svg>