<svg xmlns="http://www.w3.org/2000/svg" data-name="Layer 1" viewBox="0 0 128 128"><circle cx="64" cy="64" r="39.218" fill="#f16a73"/><path fill="#603416" d="M40.814 60.3a1.307 1.307 0 0 1 .552-2.554l32.524 7.113a1.307 1.307 0 1 1-.552 2.554zm29.958-27.439a1.307 1.307 0 0 1 .552-2.554 34.487 34.487 0 0 1 24 19.268 1.305 1.305 0 0 1-2.371 1.094 31.851 31.851 0 0 0-22.181-17.808zm21.159 5.6a1.3 1.3 0 1 1 1.92-1.761 40.433 40.433 0 0 1 9.7 35.818 1.308 1.308 0 0 1-.031.141 40.453 40.453 0 0 1-48.03 30.882 1.276 1.276 0 0 1-.146-.031 40.486 40.486 0 0 1-31.7-36.676c0-.037-.007-.074-.008-.111a40.454 40.454 0 0 1 .825-11.243 1.4 1.4 0 0 1 .031-.146 40.432 40.432 0 0 1 4.19-11.07.701.701 0 0 1 .037-.066 40.486 40.486 0 0 1 43.8-19.746 1.251 1.251 0 0 1 .136.029 40.584 40.584 0 0 1 15.7 7.22 1.306 1.306 0 0 1-1.574 2.085 37.7 37.7 0 0 0-14.745-6.764 37.87 37.87 0 0 0-40.15 16.953l19.527 4.177a1.306 1.306 0 1 1-.542 2.554l-20.35-4.353a37.859 37.859 0 0 0-3.492 9.605 37.913 37.913 0 0 0-.837 9.661l47.3 10.3a1.307 1.307 0 0 1-.552 2.554L26.406 68.346a37.867 37.867 0 0 0 29.557 32.628 37.835 37.835 0 0 0 44.716-27.664l-14.555-3.12a1.305 1.305 0 1 1 .542-2.554l14.568 3.122a37.81 37.81 0 0 0 .472-9.977L73 54.623a1.306 1.306 0 0 1 .542-2.554l27.83 5.97a37.868 37.868 0 0 0-9.44-19.577z"/></svg>