<svg id="Layer_1" data-name="Layer 1" xmlns="http://www.w3.org/2000/svg" viewBox="0 0 128 128"><title>Artboard 5</title><circle cx="64" cy="64" r="23.018" style="fill:#ffeacc"/><path d="M39.794,40.952a5.2,5.2,0,0,1-7.283.076c-.028-.024-.056-.049-.083-.076a5.2,5.2,0,0,1,0-7.358l0,0,0,0,0,0a5.2,5.2,0,0,1,7.361,0l0,0a5.2,5.2,0,0,1,0,7.363Zm18.722,8.374a1.3,1.3,0,0,1-.94-2.432,17.873,17.873,0,0,1,21.7,7.387,1.3,1.3,0,1,1-2.227,1.359,15.274,15.274,0,0,0-18.535-6.314ZM40.865,70.7a37.6,37.6,0,0,0-4.816,3.14c-.881.711-1.383.995-1.369,1.032.153.4,2.934-.03,7.388-1.055q-.358-.766-.655-1.536Q41.111,71.5,40.865,70.7ZM101.9,35.673a6.848,6.848,0,0,1-9.69,0l0,0,0,0a6.851,6.851,0,0,1,9.616-9.762c.027.023.053.047.079.072a6.849,6.849,0,0,1,0,9.69Zm-4.842-.608a4.24,4.24,0,0,0,3-7.237c-.02-.019-.038-.039-.056-.06a4.243,4.243,0,0,0-5.942,6.058l0,0A4.226,4.226,0,0,0,97.054,35.065Zm-26.16,67.555,0,0,0,0a4.792,4.792,0,1,1-6.777-6.777l.005,0a4.792,4.792,0,0,1,6.78,6.773ZM67.5,101.413a2.17,2.17,0,0,0,1.541-.633l0,0a2.186,2.186,0,1,0-1.546.638ZM49.542,79.622A21.6,21.6,0,0,0,85.495,65.766,167.047,167.047,0,0,1,67.9,73.684h0A167.238,167.238,0,0,1,49.542,79.622Zm36.4-26.291q.352.754.654,1.536t.548,1.582c3.99-2.229,6.338-3.778,6.185-4.174-.012-.031-.6.084-1.776.155A38.023,38.023,0,0,0,85.944,53.332Zm-2.566-4.284q.687.918,1.288,1.9A43.251,43.251,0,0,1,91.4,49.825c2.412-.146,3.916.355,4.362,1.51.713,1.852-2.552,4.767-8.407,7.983a183.543,183.543,0,0,1-21.288,9.6,183.592,183.592,0,0,1-22.231,7.168c-6.5,1.545-10.875,1.575-11.588-.276-.442-1.147.317-2.512,2.166-4.006a42.794,42.794,0,0,1,5.8-3.729Q40,66.944,39.89,65.807A59.616,59.616,0,0,0,29.3,73.2c-2.358,2.195-3.461,3.912-3.069,4.928.7,1.808,5.4,2.083,12.444,1.065,2.409-.348,5.064-.862,7.908-1.532a1.265,1.265,0,0,1,.2-.048A160,160,0,0,0,66.96,71.254h0c10.677-4.115,19.951-8.819,26.313-13.1,5.9-3.969,9.2-7.329,8.507-9.136-.386-1-2.31-1.538-5.456-1.6A59.137,59.137,0,0,0,83.378,49.048ZM74.3,44.582a1.305,1.305,0,1,1,1.236-2.3A24.213,24.213,0,0,1,81.467,46.8a64.8,64.8,0,0,1,14.9-1.982c4.283.08,7.041,1.171,7.847,3.262,1.2,3.1-2.517,7.555-9.488,12.243-1.927,1.3-4.112,2.629-6.515,3.972A24.219,24.219,0,0,1,46.545,80.352c-2.687.618-5.2,1.1-7.5,1.43-8.31,1.2-14.048.393-15.244-2.709-.816-2.117.533-4.81,3.722-7.779A65.378,65.378,0,0,1,39.8,62.859,24.222,24.222,0,0,1,68.429,39.771a1.3,1.3,0,0,1-.47,2.565A21.621,21.621,0,0,0,42.4,63.538a1.285,1.285,0,0,1,0,.182,21.529,21.529,0,0,0,1.448,7.623q.276.716.592,1.391.108.231.223.462a188.647,188.647,0,0,0,20.467-6.705A188.713,188.713,0,0,0,84.8,57.728q-.07-.25-.145-.5-.224-.728-.492-1.425a21.5,21.5,0,0,0-1.194-2.577,1.31,1.31,0,0,1-.175-.315,21.656,21.656,0,0,0-8.5-8.334Zm-38.187-4.72a2.6,2.6,0,0,0,1.838-4.426l0,0,0,0a2.6,2.6,0,0,0-3.667,0l0,0a2.6,2.6,0,0,0,0,3.666c.019.019.037.038.054.057A2.584,2.584,0,0,0,36.111,39.862Z" style="fill:#603416"/><path d="M86.934,62.021c2.341-1.308,4.467-2.605,6.341-3.866,5.9-3.969,9.2-7.329,8.507-9.136-.386-1-2.31-1.538-5.456-1.6a59.137,59.137,0,0,0-12.948,1.626q.687.918,1.288,1.9c3.146-.729,10.046-2.341,11.1.387.713,1.852-2.552,4.767-8.407,7.983q-.362.2-.736.4A211.178,211.178,0,0,1,44.336,75.971l-.5.12c-6.5,1.545-10.875,1.575-11.588-.276-1.052-2.729,5.126-6.155,7.963-7.735Q40,66.944,39.89,65.807A59.616,59.616,0,0,0,29.3,73.2c-2.358,2.195-3.461,3.912-3.069,4.928.7,1.808,5.4,2.083,12.444,1.065,2.141-.31,4.477-.75,6.966-1.314q.468-.106.942-.218l.2-.048a159.967,159.967,0,0,0,20.179-6.364A158.266,158.266,0,0,0,86.934,62.021Z" style="fill:#ffe749;fill-rule:evenodd"/><path d="M36.111,39.862a2.592,2.592,0,1,0-2.592-2.593A2.591,2.591,0,0,0,36.111,39.862Z" style="fill:#9e8180;fill-rule:evenodd"/><path d="M92.815,30.826A4.241,4.241,0,1,0,100,27.768,4.215,4.215,0,0,0,92.815,30.826Z" style="fill:#9e8180;fill-rule:evenodd"/><path d="M67.5,101.413a2.18,2.18,0,1,0-2.179-2.179A2.181,2.181,0,0,0,67.5,101.413Z" style="fill:#9e8180;fill-rule:evenodd"/></svg>