<svg xmlns="http://www.w3.org/2000/svg" data-name="Layer 1" viewBox="0 0 128 128"><path fill="#603416" d="M38.476 34.4a6.517 6.517 0 1 0 1.908 4.607 6.495 6.495 0 0 0-1.908-4.607zm28.083 41.124a3.62 3.62 0 1 0 1.06 2.559 3.609 3.609 0 0 0-1.06-2.559zM64 71.848a6.242 6.242 0 0 1 5.657 3.612 12.78 12.78 0 1 0-17.89-15.148 1.306 1.306 0 0 1-2.5-.746 15.386 15.386 0 1 1 20.968 18.507v.01a6.235 6.235 0 0 1-12.47 0v-.013a15.375 15.375 0 0 1-8.55-9.814 1.3 1.3 0 1 1 2.5-.715 12.784 12.784 0 0 0 6.625 7.916A6.243 6.243 0 0 1 64 71.848zm29.863-16.577a4.921 4.921 0 1 0 0 6.969 4.931 4.931 0 0 0 0-6.964zm-3.482-4.058a7.536 7.536 0 0 1 5.331 12.867 7.545 7.545 0 0 1-3.587 2A28.2 28.2 0 1 1 60.691 36a1.307 1.307 0 1 1 .306 2.6A25.586 25.586 0 1 0 89.49 66.241a7.536 7.536 0 0 1-4.44-12.814v-.005a7.571 7.571 0 0 1 1.64-1.245 25.574 25.574 0 0 0-18.343-13.39 1.306 1.306 0 1 1 .44-2.575 28.2 28.2 0 0 1 20.387 15.1 7.545 7.545 0 0 1 1.207-.099zm3.052 36.57a1.3 1.3 0 0 1 2.033 1.635A40.435 40.435 0 0 1 81.435 100.5a40.45 40.45 0 0 1-53.6-54.64q-.218-.192-.423-.4A9.131 9.131 0 0 1 39.5 31.818a40.453 40.453 0 0 1 60.221 51.168 1.307 1.307 0 1 1-2.309-1.226 37.832 37.832 0 0 0-56.1-48.043A9.134 9.134 0 0 1 30.037 47.3 37.844 37.844 0 0 0 80.31 98.142a37.82 37.82 0 0 0 13.123-10.359z"/><path fill="#f16a73" fill-rule="evenodd" d="M27.354 39.009A6.515 6.515 0 1 0 38.476 34.4a6.522 6.522 0 0 0-11.122 4.609z"/><path fill="#c1d963" fill-rule="evenodd" d="M66.559 75.524a3.619 3.619 0 1 0 0 5.119 3.623 3.623 0 0 0 0-5.119z"/><path fill="#59c4c6" fill-rule="evenodd" d="M85.457 58.753a4.925 4.925 0 1 0 8.406-3.482 4.93 4.93 0 0 0-8.406 3.482z"/></svg>