<svg id="Layer_1" data-name="Layer 1" xmlns="http://www.w3.org/2000/svg" viewBox="0 0 128 128"><title>Artboard 2</title><circle cx="64" cy="64" r="39.177" style="fill:#ffeacc"/><path d="M64,32.594a1.308,1.308,0,0,1,0-2.616A34.024,34.024,0,0,1,98.023,64a1.308,1.308,0,0,1-2.616,0A31.406,31.406,0,0,0,64,32.594ZM48.645,85.629a1.308,1.308,0,0,1,0,2.616,7.739,7.739,0,1,1,7.739-7.739,1.308,1.308,0,0,1-2.616,0,5.123,5.123,0,1,0-5.123,5.123ZM69.357,54.564a1.308,1.308,0,1,1,0-2.616,2.834,2.834,0,0,0,2-4.838q-.029-.029-.055-.059a2.848,2.848,0,0,0-3.953.054l0,0a2.821,2.821,0,0,0-.825,2,1.308,1.308,0,0,1-2.616,0A5.435,5.435,0,0,1,65.5,45.268l0,0,0,0,0,0a5.436,5.436,0,0,1,7.62-.075c.028.023.055.048.082.075a5.45,5.45,0,0,1-3.853,9.3ZM85.9,81.9a1.3,1.3,0,1,1,.96-2.422,5.4,5.4,0,0,1,2.977,2.884q.024.055.042.112a5.413,5.413,0,0,1-9.986,4.18c-.016-.037-.03-.075-.042-.112a5.394,5.394,0,0,1-.016-4.029,1.3,1.3,0,1,1,2.422.961,2.8,2.8,0,0,0,0,2.065c.014.027.027.054.039.082a2.8,2.8,0,0,0,5.18-2.145c-.014-.027-.027-.054-.039-.082A2.792,2.792,0,0,0,85.9,81.9Zm-44.034-28.2a5.2,5.2,0,0,1-7.283.076c-.028-.023-.056-.049-.083-.076a5.2,5.2,0,0,1,0-7.358l0,0,0,0,0,0a5.2,5.2,0,0,1,7.36,0l0,0a5.2,5.2,0,0,1,0,7.363ZM38.183,52.6a2.6,2.6,0,0,0,1.838-4.426l0,0,0,0a2.6,2.6,0,0,0-3.666-.005l0,.005a2.6,2.6,0,0,0,0,3.667c.019.019.036.038.054.057A2.584,2.584,0,0,0,38.183,52.6Zm54.6-13.167a1.3,1.3,0,0,1,1.982-1.7,40.412,40.412,0,1,1-5.558-5.375,1.305,1.305,0,1,1-1.625,2.044,37.808,37.808,0,1,0,5.2,5.027Z" style="fill:#603416"/></svg>