<svg xmlns="http://www.w3.org/2000/svg" data-name="Layer 1" viewBox="0 0 128 128"><path fill="#603416" d="m70.351 54.955-4.445-8.926-.009-.018a2.156 2.156 0 0 0-.3-.466 2.182 2.182 0 0 0-2.05-.732 2.165 2.165 0 0 0-1.4.9l-5.671 8.17a1.3 1.3 0 0 1-.926.612l-9.627 1.434c-.034 0-.068.009-.1.011a2.161 2.161 0 0 0-.61.132 2.184 2.184 0 0 0-.972 3.362l6.009 7.907a1.3 1.3 0 0 1 .308 1.077l-1.65 9.831-.006.039a2.17 2.17 0 0 0 2.853 2.4l9.373-3.27a1.3 1.3 0 0 1 1.117.041l8.734 4.552.058.032a2.15 2.15 0 0 0 .548.226 2.192 2.192 0 0 0 .6.069 2.177 2.177 0 0 0 2.115-2.221l-.214-9.941a1.3 1.3 0 0 1 .387-1.013l7.038-6.909a1.3 1.3 0 0 1 .108-.12 2.152 2.152 0 0 0 .337-.43 2.168 2.168 0 0 0-1.237-3.2L71.18 55.63a1.3 1.3 0 0 1-.829-.675zm22.4-21.681-.855-6.24a1.232 1.232 0 0 1-.017-.106.888.888 0 0 0-.055-.223.941.941 0 0 0-.118-.211.932.932 0 0 0-1.295-.189l-5.152 3.821a1.3 1.3 0 0 1-1.006.236l-6.09-1.1a1.313 1.313 0 0 1-.14-.028.947.947 0 0 0-.272-.031.933.933 0 0 0-.845 1.222l2.043 6.084a1.3 1.3 0 0 1-.086 1.026l-3 5.594-.028.056a.9.9 0 0 0-.079.208.964.964 0 0 0-.028.233.923.923 0 0 0 .93.91L83 44.478a1.3 1.3 0 0 1 1.015.4l4.364 4.55c.016.016.031.034.046.051a.956.956 0 0 0 .415.268.912.912 0 0 0 1.154-.6l1.918-6.108a1.3 1.3 0 0 1 .679-.787l5.66-2.736c.037-.023.075-.043.115-.063a.913.913 0 0 0 .193-.126 1.044 1.044 0 0 0 .12-.118l.033-.049a.922.922 0 0 0 .157-.69.91.91 0 0 0-.371-.592h-.006l-5.213-3.71a1.3 1.3 0 0 1-.532-.894zm1.729-6.6.779 5.687L100 35.743a3.529 3.529 0 0 1 .848 4.919q-.039.055-.082.1a3.5 3.5 0 0 1-.521.554 3.541 3.541 0 0 1-.628.424.99.99 0 0 1-.078.045l-.037.018-5.268 2.547-1.749 5.568-.006.019a3.538 3.538 0 0 1-4.418 2.3h-.033a3.467 3.467 0 0 1-1.543-1.005l-3.965-4.134-5.85.057a3.523 3.523 0 0 1-3.17-5.131l.015-.031.016-.03 2.764-5.155-1.865-5.552a3.534 3.534 0 0 1 4.2-4.553l5.521.993 4.7-3.486a3.538 3.538 0 0 1 5.616 2.412zm-51.788 6.983-1.279-1.634-.813 1.907a1.3 1.3 0 0 1-.756.715l-1.945.71 1.563 1.366a1.3 1.3 0 0 1 .445.936l.074 2.066 1.706-1.018a1.3 1.3 0 0 1 1.1-.181l1.993.569-.459-2.017a1.3 1.3 0 0 1 .189-1.011l1.162-1.726-2.072-.187a1.3 1.3 0 0 1-.908-.495zm.4-3.717 1.308 1.668 2.113.191a2.231 2.231 0 0 1 1.917 2.971 2.3 2.3 0 0 1-.163.363 1.292 1.292 0 0 1-.084.145 1.207 1.207 0 0 1-.066.089l-1.132 1.684.473 2.079v.006a2.24 2.24 0 0 1-1.687 2.672c-.027.007-.054.011-.08.016a2.219 2.219 0 0 1-.533.037h-.03a2.221 2.221 0 0 1-.513-.093l-2.011-.574-1.827 1.09c-.035.021-.072.04-.109.058a2.229 2.229 0 0 1-2.961-.832 2.254 2.254 0 0 1-.224-.51 1.436 1.436 0 0 1-.024-.094 2.239 2.239 0 0 1-.05-.278 1.312 1.312 0 0 1-.02-.23v-.059l-.073-2.024-1.606-1.407a2.245 2.245 0 0 1 .835-3.837l1.873-.684.838-1.959a2.25 2.25 0 0 1 3.441-.892 1.435 1.435 0 0 1 .124.109 2.28 2.28 0 0 1 .269.293zM91.1 92l-1.081-3.824-.005-.02-.014-.013v-.006l-.005-.009a.077.077 0 0 0-.054-.025.091.091 0 0 0-.045.012l-.009.009-.008.007-2.846 2.8a1.3 1.3 0 0 1-.96.374l-3.79-.146a1.345 1.345 0 0 1-.194-.009.09.09 0 0 0-.023 0l-.019.008a.083.083 0 0 0-.043.047.086.086 0 0 0 .008.065l1.743 3.487a1.3 1.3 0 0 1 .1 1.118l-1.379 3.746v.04a.077.077 0 0 0 .03.05.078.078 0 0 0 .05.012h.007l3.949-.594a1.3 1.3 0 0 1 1 .264l3.085 2.428.053.044.011.008h.039a.087.087 0 0 0 .049-.016.075.075 0 0 0 .027-.04l.01-.054.647-3.89a1.3 1.3 0 0 1 .56-.869l3.235-2.165a2.53 2.53 0 0 1 .083-.061.081.081 0 0 0 .018-.014l.008-.016a.086.086 0 0 0 .007-.065.079.079 0 0 0-.04-.044l-3.505-1.82A1.3 1.3 0 0 1 91.1 92zm1.432-4.529.928 3.28 3.031 1.574a2.693 2.693 0 0 1 .383 4.54 2.446 2.446 0 0 1-.1.078l-.035.023-2.839 1.895-.562 3.378v.015a2.692 2.692 0 0 1-3.088 2.2h-.006a2.725 2.725 0 0 1-1.273-.582l-2.641-2.079-3.391.51-.059.008a2.69 2.69 0 0 1-2.913-3.447 1.308 1.308 0 0 1 .069-.21L81.2 95.5l-1.532-3.066a2.695 2.695 0 0 1 1.95-3.858 2.684 2.684 0 0 1 .766-.023l3.222.124 2.438-2.4a1.339 1.339 0 0 1 .1-.092 2.7 2.7 0 0 1 3.706.109 1.274 1.274 0 0 1 .091.1 2.6 2.6 0 0 1 .593 1.087zm-55.941-4.708L33.3 80.54l-.017-.012-.016-.007-.023-.007a.088.088 0 0 0-.064.019.084.084 0 0 0-.029.057l-.365 3.977a1.3 1.3 0 0 1-.5.91l-3 2.343a1.386 1.386 0 0 1-.14.107l-.009.006-.009.011a.087.087 0 0 0-.011.02.088.088 0 0 0 0 .067.082.082 0 0 0 .047.042l3.672 1.577a1.3 1.3 0 0 1 .711.754l1.334 3.668c.011.025.022.051.031.077l.008.017.031.027a.1.1 0 0 0 .043.007.084.084 0 0 0 .033-.01.935.935 0 0 1 .074-.08l2.576-2.937a1.3 1.3 0 0 1 .94-.445l3.924-.136h.059l.019-.006.018-.005a.083.083 0 0 0 .036-.052.089.089 0 0 0 0-.061l-1.976-3.32a1.3 1.3 0 0 1-.2-1.127l1.074-3.744c.007-.033.014-.065.024-.1 0-.016.007-.012.007-.016V82.135a.084.084 0 0 0-.037-.052.08.08 0 0 0-.06-.008l-3.806.862a1.3 1.3 0 0 1-1.108-.174zm-1.834-4.389 2.83 1.909 3.329-.754a2.685 2.685 0 0 1 3.288 2.7v.024a2.707 2.707 0 0 1-.068.524 1.148 1.148 0 0 1-.028.118L43.16 86.2l1.713 2.878a1.313 1.313 0 0 1 .118.22 2.675 2.675 0 0 1-.964 3.49 1.33 1.33 0 0 1-.184.1 2.593 2.593 0 0 1-1.235.308l-3.349.116L37 95.891l-.054.06L36.9 96a2.682 2.682 0 0 1-3.69.14 2.719 2.719 0 0 1-.443-.5 2.661 2.661 0 0 1-.306-.591l-.013-.038-1.158-3.182-3.159-1.359a2.693 2.693 0 0 1-1-4.206 1.58 1.58 0 0 1 .087-.095 2.63 2.63 0 0 1 .469-.406l2.555-2 .313-3.414a2.686 2.686 0 0 1 4.2-1.976zm33.489-33.51 4.194 8.421L81.463 56a4.784 4.784 0 0 1 2.73 7.049 4.721 4.721 0 0 1-.593.785 1.339 1.339 0 0 1-.135.158 1.77 1.77 0 0 1-.079.072L76.7 70.63l.2 9.436a4.776 4.776 0 0 1-7.132 4.261l-8.238-4.294-8.922 3.112a4.767 4.767 0 0 1-6.3-5.19l.008-.067.008-.05 1.562-9.306L42.165 61a4.789 4.789 0 0 1 3.415-7.668l9.034-1.346L60 44.229a4.779 4.779 0 0 1 8.24.637zM37 95.9l-.055.059M44.135 82.774c-.009.04-.019.079-.03.117m2.218-5.028v-.019"/><path fill="#ffe749" fill-rule="evenodd" d="m44.506 36.065 1.162-1.726-2.068-.187a1.3 1.3 0 0 1-.91-.5l-1.279-1.634-.811 1.912a1.3 1.3 0 0 1-.756.715l-1.945.71 1.563 1.366a1.3 1.3 0 0 1 .445.936l.074 2.066 1.706-1.018a1.3 1.3 0 0 1 1.1-.181l1.993.569-.458-2.018a1.3 1.3 0 0 1 .184-1.01zM78.859 37.539 75.753 43.4a.922.922 0 0 0 .9 1.142L83 44.478a1.3 1.3 0 0 1 1.015.4l4.364 4.551a.927.927 0 0 0 1.166.261l.45-.54 1.919-6.108a1.3 1.3 0 0 1 .679-.787l5.967-2.925a.923.923 0 0 0-.06-1.45l-5.219-3.714a1.3 1.3 0 0 1-.536-.889l-.927-6.569a.929.929 0 0 0-1.412-.4l-5.153 3.82a1.3 1.3 0 0 1-1.006.236l-6.5-1.154a.934.934 0 0 0-.845 1.222l2.042 6.084a1.3 1.3 0 0 1-.085 1.023zM70.351 54.955l-4.441-8.928a2.18 2.18 0 0 0-3.762-.316l-5.671 8.17a1.3 1.3 0 0 1-.926.612l-9.627 1.434a2.139 2.139 0 0 0-2.106 1.886 2.182 2.182 0 0 0 .422 1.619l6.009 7.907a1.3 1.3 0 0 1 .308 1.077l-1.675 10.407a2.166 2.166 0 0 0 2.871 1.863l9.373-3.27a1.3 1.3 0 0 1 1.117.041l8.732 4.556a2.173 2.173 0 0 0 3.325-1.9l-.214-9.941a1.3 1.3 0 0 1 .387-1.013l7.482-7.459a2.169 2.169 0 0 0-1.237-3.2l-9.539-2.874a1.3 1.3 0 0 1-.828-.671zM41.5 82.071l-3.811.863a1.3 1.3 0 0 1-1.1-.171L33.3 80.536l-.149.051-.365 3.977a1.3 1.3 0 0 1-.5.91l-3.165 2.486.043.108 3.671 1.579a1.3 1.3 0 0 1 .711.754l1.446 3.8.108-.089 2.576-2.937a1.3 1.3 0 0 1 .94-.445l3.924-.136.131-.128-1.976-3.32a1.3 1.3 0 0 1-.2-1.127l1.1-3.884zM81.995 91.266l1.743 3.487a1.3 1.3 0 0 1 .1 1.118l-1.379 3.746.086.1 3.949-.593a1.3 1.3 0 0 1 1 .264l3.083 2.43.189-.051.649-3.89a1.3 1.3 0 0 1 .56-.869l3.344-2.256-.033-.109-3.505-1.82A1.3 1.3 0 0 1 91.1 92l-1.081-3.825-.02-.045-.115-.015-2.855 2.808a1.3 1.3 0 0 1-.96.374l-4.007-.155-.059.12z"/></svg>