<svg xmlns="http://www.w3.org/2000/svg" data-name="Layer 1" viewBox="0 0 128 128"><path fill="#603416" d="M72.01 55.677H55.99a.726.726 0 0 0-.472.174l-.038.039a.722.722 0 0 0-.213.51v30.694a.722.722 0 0 0 .213.51.727.727 0 0 0 .512.211H72.01a.727.727 0 0 0 .472-.173l.038-.04a.721.721 0 0 0 .213-.51V56.4a.72.72 0 0 0-.213-.51.728.728 0 0 0-.51-.213zM34.959 70.439v-8H29.8a3.649 3.649 0 0 0-3.636 3.636v4.368zm0 10.62v-8h-8.8v4.368a3.625 3.625 0 0 0 1.069 2.566 3.632 3.632 0 0 0 2.572 1.065zm2.616-8v8h8.8v-8zm0-10.62v8h8.8v-8zm52.849 8v-8h-8.8v8zm0 10.62v-8h-8.8v8zm2.616-8v8h5.16a3.653 3.653 0 0 0 3.636-3.635v-4.369zm0-10.62v8h8.8v-4.368a3.631 3.631 0 0 0-1.011-2.511l-.059-.055a3.625 3.625 0 0 0-2.57-1.07zm-25.1 28h-7.879v1.075a3.939 3.939 0 0 0 7.878 0zM64 47.17h-7.076a7.2 7.2 0 0 0 14.151.005H64zm1.754-13.9a2.456 2.456 0 0 0-3.527 3.419l.055.053a2.453 2.453 0 0 0 3.469-3.469zM80.32 59.819H98.2a6.234 6.234 0 0 1 4.416 1.836c.025.026.05.052.073.079a6.228 6.228 0 0 1 1.763 4.337v11.352a6.27 6.27 0 0 1-6.252 6.252H80.32a1.308 1.308 0 0 1-1.308-1.308v-9.312h-3.663v14.039a3.33 3.33 0 0 1-.98 2.359q-.042.042-.088.08a3.323 3.323 0 0 1-2.272.9h-1.454v1.075a6.531 6.531 0 0 1-1.924 4.626h-.005a6.521 6.521 0 0 1-9.251 0 6.532 6.532 0 0 1-1.925-4.626v-1.075h-1.46a3.326 3.326 0 0 1-2.354-.98 3.332 3.332 0 0 1-.98-2.359V73.055h-3.668v9.312a1.308 1.308 0 0 1-1.308 1.308H29.8a6.23 6.23 0 0 1-4.411-1.836 6.233 6.233 0 0 1-1.836-4.416V66.071a6.266 6.266 0 0 1 6.247-6.252h17.88a1.308 1.308 0 0 1 1.308 1.308v9.312h3.662V56.4a3.332 3.332 0 0 1 .98-2.359q.043-.042.088-.08a3.322 3.322 0 0 1 2.272-.9h1.341q-.136-.126-.267-.257a9.778 9.778 0 0 1-2.874-6.936 1.3 1.3 0 0 1 1.3-1.3h7.2l.011-4.66a5.066 5.066 0 0 1-2.278-1.315 1.42 1.42 0 0 1-.074-.081 5.065 5.065 0 0 1 7.251-7.09 5.062 5.062 0 0 1 0 7.163 5.07 5.07 0 0 1-2.279 1.315l-.011 4.653h7.2a1.308 1.308 0 0 1 1.308 1.308 9.779 9.779 0 0 1-2.882 6.939q-.131.131-.267.257h1.341a3.326 3.326 0 0 1 2.354.98 3.331 3.331 0 0 1 .98 2.359v14.043h3.662v-9.312a1.308 1.308 0 0 1 1.314-1.308z"/><path fill="#59c4c6" fill-rule="evenodd" d="M34.959 62.435H29.8a3.649 3.649 0 0 0-3.636 3.636v4.368h8.8z"/><path fill="#59c4c6" d="M37.575 62.435H46.372V70.43900000000001H37.575z"/><path fill="#59c4c6" d="M37.575 73.055H46.372V81.058H37.575z"/><path fill="#59c4c6" fill-rule="evenodd" d="M34.959 81.058v-8h-8.8v4.368a3.642 3.642 0 0 0 3.641 3.632z"/><path fill="#eaeaea" fill-rule="evenodd" d="M55.267 56.4v30.694a.739.739 0 0 0 .211.512.727.727 0 0 0 .512.211h16.02l.723-.723V56.4a.74.74 0 0 0-.211-.513.728.728 0 0 0-.513-.211H55.99zM67.939 90.433h-7.878c0 1.48-.064 2.639 1.155 3.858a3.942 3.942 0 0 0 6.722-2.784zM56.924 47.17a7.2 7.2 0 0 0 14.151.005H64v-.005zM61.565 35.006a2.455 2.455 0 1 0 4.189-1.737 2.458 2.458 0 0 0-4.189 1.737z"/><path fill="#59c4c6" d="M81.628 62.435H90.425V70.43900000000001H81.628z"/><path fill="#59c4c6" fill-rule="evenodd" d="M93.041 62.435v8h8.8v-4.364a3.648 3.648 0 0 0-3.641-3.636zM101.838 73.055h-8.8v8H98.2a3.653 3.653 0 0 0 3.636-3.635z"/><path fill="#59c4c6" d="M81.628 73.055H90.425V81.058H81.628z"/></svg>