<svg id="Layer_1" data-name="Layer 1" xmlns="http://www.w3.org/2000/svg" viewBox="0 0 128 128"><title>Artboard 4</title><circle cx="64" cy="64" r="39.177" style="fill:#59c4c6"/><path d="M57.51,26.718A37.881,37.881,0,0,0,27.38,54.444a5.766,5.766,0,0,1,.5,1.129,4.353,4.353,0,0,0,2.637,2.769,6.692,6.692,0,0,0,2.363.46,8.045,8.045,0,0,0,2.532-.364,5.9,5.9,0,0,0,3.85-3.249c2.59-6.436,8.017-9.43,12.839-12.091C58.268,39.7,63.3,36.918,57.51,26.718ZM31.435,83.278a37.985,37.985,0,0,0,17.173,15.3,2.8,2.8,0,0,0-.025-.743,3.8,3.8,0,0,0-1.064-2.042c-3.085-3.049-3.465-6.462-3.774-9.25-.282-2.538-.484-4.345-4.3-3.778a30.076,30.076,0,0,1-6.624.543C32.43,83.291,32,83.277,31.435,83.278ZM83.33,96.533a37.854,37.854,0,0,0,16.633-44.3,9.02,9.02,0,0,1-2.544.6,63.736,63.736,0,0,1-8.493,0c-5.927-.23-12.6-.488-15.249,1.41-1.5,1.076-1.445,3.256,1.488,7.349a10.994,10.994,0,0,1,2.181,7.377A15.931,15.931,0,0,1,74.168,76.9c-3.331,4.694-.215,8.279,3.852,12.956l0,0A67.037,67.037,0,0,1,83.33,96.533Zm9.453-57.1a1.3,1.3,0,0,1,1.982-1.7,40.416,40.416,0,1,1-5.558-5.374,1.305,1.305,0,0,1-1.625,2.044A37.791,37.791,0,0,0,64,26.163q-1.879,0-3.712.18c6.323,11.732.352,15.027-6.93,19.045-4.438,2.449-9.433,5.2-11.674,10.772a8.479,8.479,0,0,1-5.5,4.771,10.63,10.63,0,0,1-3.35.477,9.33,9.33,0,0,1-3.292-.645,7.187,7.187,0,0,1-3-2.191A38.122,38.122,0,0,0,26.163,64a37.685,37.685,0,0,0,3.874,16.7c1.357-.048,2.168-.021,2.869,0a28.176,28.176,0,0,0,6.164-.523c6.487-.964,6.814,1.964,7.271,6.077.264,2.376.587,5.284,3.008,7.677a6.476,6.476,0,0,1,1.81,3.483,5.193,5.193,0,0,1-.086,2.158A37.947,37.947,0,0,0,81.031,97.8a66.972,66.972,0,0,0-4.98-6.228l0,0,0,0c-4.829-5.553-8.529-9.807-4.008-16.178a13.386,13.386,0,0,0,2.7-6.6,8.466,8.466,0,0,0-1.7-5.671c-4.054-5.658-3.666-9-.886-11,3.368-2.414,10.515-2.137,16.863-1.891a62.063,62.063,0,0,0,8.115.006,4.483,4.483,0,0,0,1.941-.44A37.819,37.819,0,0,0,92.783,39.435Z" style="fill:#603416"/><path d="M37.245,37.245a37.791,37.791,0,0,0-9.865,17.2,5.766,5.766,0,0,1,.5,1.129c1.467,4.7,9.615,4.009,11.382-.383,6.18-15.355,28.22-10.9,18.248-28.471A37.744,37.744,0,0,0,37.245,37.245Z" style="fill:#c1d963;fill-rule:evenodd"/><path d="M39.448,82.76a32.3,32.3,0,0,1-8.013.518,37.977,37.977,0,0,0,17.173,15.3,3.614,3.614,0,0,0-1.089-2.786C40.948,89.293,46.729,81.678,39.448,82.76Z" style="fill:#c1d963;fill-rule:evenodd"/><path d="M75.164,61.6c3.663,5.112,2.37,10.558-1,15.3-3.331,4.694-.215,8.279,3.855,12.954a67.037,67.037,0,0,1,5.307,6.682,37.85,37.85,0,0,0,16.633-44.3c-4.95,2.152-21.526-1.4-26.286,2.016C72.174,55.324,72.231,57.5,75.164,61.6Z" style="fill:#c1d963;fill-rule:evenodd"/></svg>