<svg xmlns="http://www.w3.org/2000/svg" data-name="Layer 1" viewBox="0 0 128 128"><defs><linearGradient id="a" x1="14" x2="114" y1="64" y2="64" gradientUnits="userSpaceOnUse"><stop offset="0" stop-color="#e5f4fa" stop-opacity=".75"/><stop offset="1" stop-color="#d1effa"/></linearGradient></defs><circle cx="64" cy="64" r="43" fill="#fff"/><circle cx="64" cy="64" r="50" fill="url(#a)"/><path fill="#670100" d="M74.328 13.791a1.25 1.25 0 00-.5 2.449A48.8 48.8 0 1164 15.25a1.25 1.25 0 000-2.5 51.193 51.193 0 1010.328 1.041z"/><path fill="#670100" d="M19.75 64A44.25 44.25 0 1064 19.75 44.3 44.3 0 0019.75 64zm86 0A41.75 41.75 0 1164 22.25 41.8 41.8 0 01105.75 64z"/><path fill="#670100" d="M62.75 34.594v28.163l-20.09.108a1.25 1.25 0 00.007 2.5h.007l21.333-.115A1.25 1.25 0 0065.25 64V34.594a1.25 1.25 0 00-2.5 0z"/></svg>