<svg id="Layer_1" data-name="Layer 1" xmlns="http://www.w3.org/2000/svg" xmlns:xlink="http://www.w3.org/1999/xlink" viewBox="0 0 128 128"><defs><linearGradient id="linear-gradient" x1="20.701" y1="70.701" x2="107.299" y2="70.701" gradientUnits="userSpaceOnUse"><stop offset="0" stop-color="#e5f4fa" stop-opacity="0.75"/><stop offset="1" stop-color="#d1effa"/></linearGradient></defs><title>STOPWATCH</title><path d="M70.7,14H57.3a4.458,4.458,0,0,0-1.546,8.643V34.619H72.247V22.643A4.458,4.458,0,0,0,70.7,14Z" style="fill:#fff"/><path d="M84.664,47.692h0a3.952,3.952,0,0,1,0-5.589l9.477-9.477a3.952,3.952,0,0,1,5.589,0h0a3.952,3.952,0,0,1,0,5.589l-9.477,9.477A3.952,3.952,0,0,1,84.664,47.692Z" style="fill:#fff"/><circle cx="64" cy="70.701" r="43.299" style="fill:url(#linear-gradient)"/><circle cx="64" cy="70.701" r="35.395" style="fill:#fff"/><path d="M97.884,41.828l2.729-2.728a5.2,5.2,0,1,0-7.356-7.356l-3,3A44.429,44.429,0,0,0,57,26.706V22.644a1.25,1.25,0,0,0-.815-1.172A3.209,3.209,0,0,1,57.3,15.25H70.7a3.209,3.209,0,0,1,1.111,6.222,1.25,1.25,0,0,0,.869,2.344A5.708,5.708,0,0,0,70.7,12.75H57.3a5.707,5.707,0,0,0-2.8,10.688v3.744A44.6,44.6,0,1,0,97.884,41.828Zm-2.86-8.317a2.766,2.766,0,0,1,3.821,0,2.707,2.707,0,0,1,0,3.821l-2.639,2.639a44.91,44.91,0,0,0-3.955-3.687ZM64,112.75A42.049,42.049,0,1,1,106.049,70.7,42.1,42.1,0,0,1,64,112.75Z" style="fill:#670100"/><path d="M64,34.056a36.65,36.65,0,0,0-9.3,72.1,1.25,1.25,0,0,0,.633-2.418A34.174,34.174,0,1,1,64,104.847a1.25,1.25,0,0,0,0,2.5,36.646,36.646,0,0,0,0-73.291Z" style="fill:#670100"/><path d="M70.149,70.7a6.16,6.16,0,0,0-4.9-6.021V46.5a1.25,1.25,0,0,0-2.5,0V64.68a6.149,6.149,0,1,0,7.4,6.021Zm-9.8,0A3.649,3.649,0,1,1,64,74.351,3.653,3.653,0,0,1,60.351,70.7Z" style="fill:#670100"/></svg>