<svg xmlns="http://www.w3.org/2000/svg" data-name="Layer 1" viewBox="0 0 128 128"><defs><linearGradient id="a" x1="14" x2="114" y1="35.648" y2="35.648" gradientUnits="userSpaceOnUse"><stop offset="0" stop-color="#ffc6ce" stop-opacity=".75"/><stop offset="1" stop-color="#ffa5a5"/></linearGradient></defs><path fill="#fff" d="M14 46.671h100v57.064A10.265 10.265 0 0 1 103.735 114h-79.47A10.265 10.265 0 0 1 14 103.735V46.671z"/><path fill="url(#a)" d="M24.265 24.625h79.47A10.265 10.265 0 0 1 114 34.89v11.781H14V34.89a10.265 10.265 0 0 1 10.265-10.265z"/><path fill="#fff" d="M39.375 35.25a7.083 7.083 0 0 1-7.083-7.083v-7.084A7.083 7.083 0 0 1 39.375 14a7.083 7.083 0 0 1 7.083 7.083v7.083a7.083 7.083 0 0 1-7.083 7.084zM88.625 35.25a7.083 7.083 0 0 1-7.083-7.083v-7.084A7.083 7.083 0 0 1 88.625 14a7.083 7.083 0 0 1 7.083 7.083v7.083a7.083 7.083 0 0 1-7.083 7.084z"/><path fill="#670100" d="M103.735 23.375h-1.026a1.25 1.25 0 0 0 0 2.5h1.026a9.025 9.025 0 0 1 9.015 9.015v10.531H22.5a1.25 1.25 0 0 0 0 2.5h90.25v55.814a9.025 9.025 0 0 1-9.015 9.015h-79.47a9.025 9.025 0 0 1-9.015-9.015V34.89a9.025 9.025 0 0 1 9.015-9.015h6.776v2.291a8.333 8.333 0 1 0 16.667 0v-7.082a8.333 8.333 0 1 0-16.667 0v2.291h-6.776A11.528 11.528 0 0 0 12.75 34.89v68.845a11.528 11.528 0 0 0 11.515 11.515h79.47a11.528 11.528 0 0 0 11.515-11.515V34.89a11.528 11.528 0 0 0-11.515-11.515zm-70.194-2.291a5.833 5.833 0 1 1 11.667 0v7.083a5.833 5.833 0 1 1-11.667 0z"/><path fill="#670100" d="M54.458 25.875h25.833v2.291a8.333 8.333 0 1 0 16.667 0v-7.082a8.333 8.333 0 1 0-16.667 0v2.291H54.458a1.25 1.25 0 0 0 0 2.5zm28.333-4.791a5.833 5.833 0 1 1 11.667 0v7.083a5.833 5.833 0 1 1-11.667 0zM36.062 103a1.25 1.25 0 0 0 1.25-1.25v-43.5a1.25 1.25 0 1 0-2.5 0v20.5H25.5a1.25 1.25 0 0 0 0 2.5h9.312v20.5a1.25 1.25 0 0 0 1.25 1.25zM54.687 57a1.25 1.25 0 0 0-1.25 1.25v20.5h-9.6a1.25 1.25 0 0 0 0 2.5h9.6v20.5a1.25 1.25 0 1 0 2.5 0v-20.5h16.125v20.5a1.25 1.25 0 1 0 2.5 0v-43.5a1.25 1.25 0 1 0-2.5 0v20.5H55.937v-20.5a1.25 1.25 0 0 0-1.25-1.25zM91.937 57a1.25 1.25 0 0 0-1.25 1.25v20.5h-9.146a1.25 1.25 0 0 0 0 2.5h9.146v20.5a1.25 1.25 0 1 0 2.5 0v-20.5h9.313a1.25 1.25 0 0 0 0-2.5h-9.313v-20.5a1.25 1.25 0 0 0-1.25-1.25z"/></svg>