<svg xmlns="http://www.w3.org/2000/svg" data-name="Layer 1" viewBox="0 0 128 128"><defs><linearGradient id="a" x1="30.457" x2="97.876" y1="64.248" y2="64.248" gradientUnits="userSpaceOnUse"><stop offset="0" stop-color="#ddffca" stop-opacity=".75"/><stop offset="1" stop-color="#ddffb3"/></linearGradient></defs><path fill="#fff" d="M94.167 58.667h7.479a3.187 3.187 0 013.187 3.187v4.292a3.187 3.187 0 01-3.187 3.187h-7.479V58.667zM85.048 47.077H43.285l3-33.077h35.763l3 33.077zM85.048 80.923H43.285l3 33.077h35.763l3-33.077z"/><rect width="67.419" height="67.419" x="30.457" y="30.539" fill="url(#a)" rx="12.502" ry="12.502"/><circle cx="64.167" cy="64" r="27.375" fill="#fff"/><path fill="#670100" d="M71.931 36.441a1.25 1.25 0 00-.677 2.406 26.149 26.149 0 11-7.087-.972 1.25 1.25 0 000-2.5 28.6 28.6 0 107.764 1.066z"/><path fill="#670100" d="M64.167 44.03a1.25 1.25 0 00-1.25 1.25v17.477l-12.338.066a1.25 1.25 0 00.007 2.5h.007l13.581-.073A1.25 1.25 0 0065.417 64V45.28a1.25 1.25 0 00-1.25-1.25z"/><path fill="#670100" d="M101.646 57.417h-2.52V43.041a13.767 13.767 0 00-13.752-13.752h-.683l-1.4-15.4a1.25 1.25 0 00-1.245-1.137H46.285a1.25 1.25 0 00-1.245 1.137L44.031 25a1.25 1.25 0 102.49.226l.9-9.979h33.486l1.273 14.042H42.96a13.768 13.768 0 00-13.753 13.752v42.415A13.768 13.768 0 0042.96 99.208h.728l1.352 14.905a1.25 1.25 0 001.245 1.137h35.764a1.25 1.25 0 001.245-1.137l1-11.007a1.25 1.25 0 10-2.49-.226l-.895 9.87H47.426L46.2 99.208h39.174a13.767 13.767 0 0013.752-13.752V70.584h2.52a4.443 4.443 0 004.437-4.437v-4.293a4.443 4.443 0 00-4.437-4.437zm-5.02 28.039a11.264 11.264 0 01-11.252 11.252H42.96a11.265 11.265 0 01-11.253-11.252V43.041A11.265 11.265 0 0142.96 31.789h42.414a11.264 11.264 0 0111.252 11.252zm6.957-19.31a1.94 1.94 0 01-1.937 1.938h-2.52v-8.167h2.52a1.94 1.94 0 011.937 1.938z"/></svg>