<svg id="Layer_1" data-name="Layer 1" xmlns="http://www.w3.org/2000/svg" xmlns:xlink="http://www.w3.org/1999/xlink" viewBox="0 0 128 128"><defs><linearGradient id="linear-gradient" x1="39.333" y1="64" x2="88.667" y2="64" gradientUnits="userSpaceOnUse"><stop offset="0" stop-color="#e5f4fa" stop-opacity="0.75"/><stop offset="1" stop-color="#d1effa"/></linearGradient><linearGradient id="linear-gradient-2" x1="46.315" y1="62.103" x2="81.684" y2="62.103" gradientUnits="userSpaceOnUse"><stop offset="0" stop-color="#ffe6a7" stop-opacity="0.75"/><stop offset="1" stop-color="#ffdc90"/></linearGradient></defs><title>HOURGLASS IS TICKING</title><path d="M94.208,102.667H33.792a5.667,5.667,0,0,0-5.667,5.667h0A5.667,5.667,0,0,0,33.792,114H94.208a5.667,5.667,0,0,0,5.667-5.667h0A5.667,5.667,0,0,0,94.208,102.667Z" style="fill:#fff"/><path d="M94.208,14H33.792a5.667,5.667,0,0,0-5.667,5.667h0a5.667,5.667,0,0,0,5.667,5.667H94.208a5.667,5.667,0,0,0,5.667-5.667h0A5.667,5.667,0,0,0,94.208,14Z" style="fill:#fff"/><path d="M81.224,69.163c4.621,2.423,7.442,6.748,7.442,11.412v22.092H39.333V80.575c0-4.663,2.821-8.989,7.442-11.412,0,0,4.1-2.144,7.026-3.67a1.629,1.629,0,0,0,0-2.986c-2.925-1.525-7.026-3.67-7.026-3.67-4.621-2.423-7.442-6.748-7.442-11.412V25.333H88.667V47.426c0,4.663-2.821,8.989-7.442,11.412,0,0-4.1,2.144-7.026,3.67a1.629,1.629,0,0,0,0,2.986C77.123,67.019,81.224,69.163,81.224,69.163Z" style="fill:url(#linear-gradient)"/><path d="M77.488,31.872H50.512a4.017,4.017,0,0,0-4.2,3.809V46.25c0,3.035,2.022,5.85,5.335,7.427,0,0,2.561,1.041,5.465,2.007a6.478,6.478,0,0,1,4.446,6.14v9.014a6.473,6.473,0,0,1-4.233,6.067c-1.005.372-1.7.653-1.7.653a5.766,5.766,0,0,0-3.615,5.032v7.161a2.722,2.722,0,0,0,2.843,2.581H73.139a2.722,2.722,0,0,0,2.843-2.581V82.591a5.766,5.766,0,0,0-3.615-5.032s-.692-.281-1.7-.653a6.473,6.473,0,0,1-4.233-6.067V61.825a6.478,6.478,0,0,1,4.446-6.14c2.9-.967,5.465-2.007,5.465-2.007,3.313-1.577,5.335-4.392,5.335-7.427V35.681A4.017,4.017,0,0,0,77.488,31.872Z" style="fill:url(#linear-gradient-2)"/><path d="M94.208,101.417H89.917V80.574c0-5.1-3.108-9.895-8.113-12.519l-7.027-3.671a.4.4,0,0,1,0-.77L81.8,59.944c5-2.624,8.112-7.421,8.112-12.518V31.333a1.25,1.25,0,0,0-2.5,0V47.426c0,4.165-2.595,8.113-6.772,10.3L73.62,61.4a2.876,2.876,0,0,0,0,5.2l7.024,3.669c4.178,2.19,6.773,6.139,6.773,10.3v20.843H33.792a6.917,6.917,0,1,0,0,13.833H94.208a6.917,6.917,0,1,0,0-13.833Zm0,11.333H33.792a4.417,4.417,0,1,1,0-8.833H94.208a4.417,4.417,0,1,1,0,8.833Z" style="fill:#670100"/><path d="M33.792,26.583h4.291V47.426c0,5.1,3.108,9.895,8.113,12.518l7.027,3.671a.4.4,0,0,1,0,.77L46.2,68.056c-5,2.624-8.112,7.421-8.112,12.519V96.667a1.25,1.25,0,0,0,2.5,0V80.574c0-4.165,2.595-8.113,6.771-10.3L54.38,66.6a2.876,2.876,0,0,0,0-5.2L47.355,57.73c-4.178-2.19-6.772-6.139-6.772-10.3V26.583H94.208a6.917,6.917,0,1,0,0-13.833H33.792a6.917,6.917,0,1,0,0,13.833Zm0-11.333H94.208a4.417,4.417,0,1,1,0,8.833H33.792a4.417,4.417,0,1,1,0-8.833Z" style="fill:#670100"/><path d="M75.878,52.519c-.025.011-2.556,1.037-5.389,1.979a7.72,7.72,0,0,0-5.3,7.326,1.25,1.25,0,1,0,2.5,0,5.223,5.223,0,0,1,3.591-4.954c2.909-.968,5.435-1.992,5.607-2.064,3.731-1.776,6.049-5.055,6.049-8.556V35.682a5.27,5.27,0,0,0-5.446-5.06H50.512a5.27,5.27,0,0,0-5.446,5.06V46.25c0,3.5,2.317,6.779,6.115,8.585.106.043,2.632,1.067,5.541,2.036a5.221,5.221,0,0,1,3.591,4.953v9.014a5.244,5.244,0,0,1-3.417,4.9c-1.027.38-1.733.667-1.8.7a7.028,7.028,0,0,0-4.328,6.161v7.161a3.973,3.973,0,0,0,4.093,3.831H73.14a3.973,3.973,0,0,0,4.093-3.831V82.591a7.06,7.06,0,0,0-4.394-6.19s-.706-.287-1.733-.668a5.242,5.242,0,0,1-3.417-4.894V68a1.25,1.25,0,1,0-2.5,0v2.838a7.751,7.751,0,0,0,5.05,7.239c.934.347,1.591.612,1.6.612h0a4.573,4.573,0,0,1,2.9,3.9v7.161a1.481,1.481,0,0,1-1.593,1.331H54.86a1.481,1.481,0,0,1-1.593-1.331V82.591A4.539,4.539,0,0,1,56.1,78.717c.009,0,.683-.277,1.659-.639a7.753,7.753,0,0,0,5.05-7.24V61.824a7.717,7.717,0,0,0-5.3-7.325c-2.8-.934-5.317-1.951-5.322-1.951-2.852-1.358-4.623-3.771-4.623-6.3V35.682a2.776,2.776,0,0,1,2.946-2.559H77.488a2.776,2.776,0,0,1,2.946,2.56V46.25C80.435,48.777,78.663,51.19,75.878,52.519Z" style="fill:#670100"/></svg>