<svg id="Layer_1" data-name="Layer 1" xmlns="http://www.w3.org/2000/svg" xmlns:xlink="http://www.w3.org/1999/xlink" viewBox="0 0 128 128"><defs><linearGradient id="linear-gradient" x1="14" y1="35.648" x2="114" y2="35.648" gradientUnits="userSpaceOnUse"><stop offset="0" stop-color="#ffc6ce" stop-opacity="0.75"/><stop offset="1" stop-color="#ffa5a5"/></linearGradient></defs><title>DATE</title><path d="M14,46.671H114a0,0,0,0,1,0,0v57.064A10.265,10.265,0,0,1,103.735,114H24.265A10.265,10.265,0,0,1,14,103.735V46.671A0,0,0,0,1,14,46.671Z" style="fill:#fff"/><path d="M24.265,24.625h79.47A10.265,10.265,0,0,1,114,34.89V46.671a0,0,0,0,1,0,0H14a0,0,0,0,1,0,0V34.89A10.265,10.265,0,0,1,24.265,24.625Z" style="fill:url(#linear-gradient)"/><path d="M39.375,35.25h0a7.083,7.083,0,0,1-7.083-7.083V21.083A7.083,7.083,0,0,1,39.375,14h0a7.083,7.083,0,0,1,7.083,7.083v7.083A7.083,7.083,0,0,1,39.375,35.25Z" style="fill:#fff"/><path d="M88.625,35.25h0a7.083,7.083,0,0,1-7.083-7.083V21.083A7.083,7.083,0,0,1,88.625,14h0a7.083,7.083,0,0,1,7.083,7.083v7.083A7.083,7.083,0,0,1,88.625,35.25Z" style="fill:#fff"/><path d="M103.735,23.375h-1.026a1.25,1.25,0,0,0,0,2.5h1.026a9.025,9.025,0,0,1,9.015,9.015V45.421H22.5a1.25,1.25,0,0,0,0,2.5h90.25v55.814a9.025,9.025,0,0,1-9.015,9.015H24.265a9.025,9.025,0,0,1-9.015-9.015V34.89a9.025,9.025,0,0,1,9.015-9.015h6.776v2.291a8.333,8.333,0,1,0,16.667,0V21.084a8.333,8.333,0,1,0-16.667,0v2.291H24.265A11.528,11.528,0,0,0,12.75,34.89v68.845A11.528,11.528,0,0,0,24.265,115.25h79.47a11.528,11.528,0,0,0,11.515-11.515V34.89A11.528,11.528,0,0,0,103.735,23.375ZM33.541,21.084a5.833,5.833,0,1,1,11.667,0v7.083a5.833,5.833,0,1,1-11.667,0Z" style="fill:#670100"/><path d="M54.458,25.875H80.291v2.291a8.333,8.333,0,1,0,16.667,0V21.084a8.333,8.333,0,1,0-16.667,0v2.291H54.458a1.25,1.25,0,0,0,0,2.5Zm28.333-4.791a5.833,5.833,0,1,1,11.667,0v7.083a5.833,5.833,0,1,1-11.667,0Z" style="fill:#670100"/><path d="M36.062,103a1.25,1.25,0,0,0,1.25-1.25V58.25a1.25,1.25,0,1,0-2.5,0v20.5H25.5a1.25,1.25,0,0,0,0,2.5h9.312v20.5A1.25,1.25,0,0,0,36.062,103Z" style="fill:#670100"/><path d="M54.687,57a1.25,1.25,0,0,0-1.25,1.25v20.5h-9.6a1.25,1.25,0,0,0,0,2.5h9.6v20.5a1.25,1.25,0,1,0,2.5,0V81.25H72.062v20.5a1.25,1.25,0,1,0,2.5,0V58.25a1.25,1.25,0,1,0-2.5,0v20.5H55.937V58.25A1.25,1.25,0,0,0,54.687,57Z" style="fill:#670100"/><path d="M91.937,57a1.25,1.25,0,0,0-1.25,1.25v20.5H81.541a1.25,1.25,0,0,0,0,2.5h9.146v20.5a1.25,1.25,0,1,0,2.5,0V81.25H102.5a1.25,1.25,0,0,0,0-2.5H93.187V58.25A1.25,1.25,0,0,0,91.937,57Z" style="fill:#670100"/></svg>