<svg xmlns="http://www.w3.org/2000/svg" data-name="Layer 1" viewBox="0 0 128 128"><defs><linearGradient id="a" x1="39.333" x2="88.667" y1="64" y2="64" gradientUnits="userSpaceOnUse"><stop offset="0" stop-color="#e5f4fa" stop-opacity=".75"/><stop offset="1" stop-color="#d1effa"/></linearGradient></defs><path fill="#fff" d="M94.208 25.333H33.792a5.667 5.667 0 01-5.667-5.667A5.667 5.667 0 0133.792 14h60.416a5.667 5.667 0 015.667 5.667 5.667 5.667 0 01-5.667 5.666zM94.208 114H33.792a5.667 5.667 0 01-5.667-5.667 5.667 5.667 0 015.667-5.667h60.416a5.667 5.667 0 015.667 5.667A5.667 5.667 0 0194.208 114z"/><path fill="url(#a)" d="M81.225 58.837c4.621-2.423 7.442-6.748 7.442-11.412V25.333H39.333v22.093c0 4.663 2.821 8.989 7.442 11.412 0 0 4.1 2.144 7.026 3.67a1.629 1.629 0 010 2.986c-2.925 1.525-7.026 3.67-7.026 3.67-4.621 2.423-7.442 6.748-7.442 11.412v22.092h49.334V80.575c0-4.663-2.821-8.989-7.442-11.412 0 0-4.1-2.144-7.027-3.67a1.629 1.629 0 010-2.986c2.925-1.525 7.027-3.67 7.027-3.67z"/><path fill="#670100" d="M33.792 26.583h4.292v20.843c0 5.1 3.108 9.895 8.113 12.518l7.028 3.671a.4.4 0 010 .77l-7.029 3.671c-5 2.624-8.111 7.42-8.111 12.519v16.092a1.25 1.25 0 002.5 0V80.574c0-4.166 2.6-8.114 6.771-10.3l7.023-3.674a2.876 2.876 0 000-5.2l-7.023-3.67c-4.177-2.19-6.773-6.138-6.773-10.3V26.583h53.626a6.916 6.916 0 100-13.833H33.792a6.917 6.917 0 100 13.833zm0-11.333h60.417a4.417 4.417 0 110 8.833H33.792a4.416 4.416 0 110-8.833z"/><path fill="#670100" d="M94.209 101.417h-4.292V80.574c0-5.1-3.108-9.895-8.113-12.519l-7.028-3.671a.4.4 0 010-.77l7.029-3.671c5-2.624 8.111-7.42 8.111-12.518V31.333a1.25 1.25 0 00-2.5 0v16.093c0 4.166-2.6 8.114-6.771 10.3L73.621 61.4a2.876 2.876 0 000 5.2l7.024 3.669c4.177 2.189 6.772 6.138 6.772 10.3v20.843H33.792a6.917 6.917 0 100 13.833h60.417a6.916 6.916 0 100-13.833zm0 11.333H33.792a4.416 4.416 0 110-8.833h60.417a4.416 4.416 0 110 8.833z"/></svg>