<svg id="Layer_1" data-name="Layer 1" xmlns="http://www.w3.org/2000/svg" xmlns:xlink="http://www.w3.org/1999/xlink" viewBox="0 0 128 128"><defs><linearGradient id="linear-gradient" x1="41.031" y1="62.198" x2="62.03" y2="62.198" gradientUnits="userSpaceOnUse"><stop offset="0" stop-color="#ffe6a7" stop-opacity="0.75"/><stop offset="1" stop-color="#ffdc90"/></linearGradient><linearGradient id="linear-gradient-2" x1="64.744" y1="62.309" x2="88.586" y2="62.309" xlink:href="#linear-gradient"/></defs><title>24 HOURS</title><path d="M59.449,71.451q-.525,0-1.334.022t-1.443.044l-.678.022q-4.769.088-6.693.044l4.374-3.893q.306-.262,1.247-1.115t1.225-1.116q.285-.263,1.072-1.006t1.05-1.05q.262-.306.853-.984a5.344,5.344,0,0,0,.788-1.094q.2-.415.568-1.072a4.736,4.736,0,0,0,.5-1.2q.131-.546.24-1.246a9.007,9.007,0,0,0,.109-1.4,8.325,8.325,0,0,0-3.149-6.8,11.385,11.385,0,0,0-7.656-2.472A10.7,10.7,0,0,0,43.481,49.8q-2.275,1.707-2.275,3.5a2.865,2.865,0,0,0,.766,2.012,2.481,2.481,0,0,0,1.9.831A3.654,3.654,0,0,0,46.543,55a6.05,6.05,0,0,1,4.2-2.1,4.753,4.753,0,0,1,3.128,1.028,3.232,3.232,0,0,1,1.247,2.6,3.145,3.145,0,0,1-.066.656,3.186,3.186,0,0,1-.241.678q-.175.372-.306.656a3.381,3.381,0,0,1-.481.7q-.35.415-.547.656t-.678.744q-.481.5-.678.722t-.81.81q-.612.59-.831.809-.918.918-2.406,2.318T44.99,68.148q-1.6,1.466-1.9,1.728a5.89,5.89,0,0,0-2.056,4.068,3.255,3.255,0,0,0,.853,2.34,2.965,2.965,0,0,0,2.253.9q5.249.087,9.931.087H59.1a2.853,2.853,0,0,0,2.144-.7,2.93,2.93,0,0,0,.788-2.231,3.047,3.047,0,0,0-.722-2.034A2.324,2.324,0,0,0,59.449,71.451Z" style="fill:url(#linear-gradient)"/><path d="M86.049,66.026l-2.45.043V61.039a2.51,2.51,0,0,0-.766-1.837,3.264,3.264,0,0,0-2.122-.569q-2.625,0-2.625,2.975l-.043,4.549-6.431.088,2.756-4.987q.568-1.006,2.625-4.44t3.106-5.49a3.053,3.053,0,0,0,.437-1.575,2.256,2.256,0,0,0-1.072-1.772,3.682,3.682,0,0,0-2.253-.809,3.118,3.118,0,0,0-2.843,1.837q-6.037,11.2-8.443,15.311a7.3,7.3,0,0,0-1.181,3.938,3.71,3.71,0,0,0,.81,2.318,2.638,2.638,0,0,0,2.209,1.05q1.444,0,5.1-.022t5.184-.022v3.412q0,2.538,2.756,2.45,2.712,0,2.8-2.494.044-1.4.044-3.325H86.18q2.406,0,2.406-3.019A2.262,2.262,0,0,0,86.049,66.026Z" style="fill:url(#linear-gradient-2)"/><path d="M54.918,104.76a41.749,41.749,0,0,1,6.248-82.4l-4.621,5.324a1.25,1.25,0,1,0,1.888,1.639l6.511-7.5a1.25,1.25,0,0,0-.055-1.7l-6.511-6.579A1.25,1.25,0,1,0,56.6,15.3l4.507,4.554a44.249,44.249,0,0,0-6.73,87.345,1.235,1.235,0,0,0,.271.03,1.25,1.25,0,0,0,.27-2.471Z" style="fill:#670100"/><path d="M108.25,64a44.5,44.5,0,0,0-34.7-43.217,1.25,1.25,0,0,0-.537,2.441,41.749,41.749,0,0,1-6.048,82.409l4.25-4.294a1.25,1.25,0,1,0-1.777-1.759l-6.511,6.579a1.251,1.251,0,0,0,.005,1.764l6.511,6.5a1.25,1.25,0,0,0,1.767-1.769l-4.5-4.494A44.3,44.3,0,0,0,108.25,64Z" style="fill:#670100"/><path d="M62.262,71.5a3.58,3.58,0,0,0-2.813-1.3q-.538,0-1.368.022t-1.452.044c-.383.013-.6.02-.659.021q-1.926.036-3.393.05l1.91-1.7q.313-.267,1.274-1.139t1.232-1.123q.288-.265,1.082-1.016c.559-.527.932-.9,1.142-1.146q.26-.3.847-.977a6.349,6.349,0,0,0,.975-1.38q.182-.384.526-.989A5.908,5.908,0,0,0,62.2,59.34q.142-.589.26-1.344A10.325,10.325,0,0,0,62.58,56.4a9.557,9.557,0,0,0-3.611-7.773,12.641,12.641,0,0,0-8.458-2.751,11.9,11.9,0,0,0-7.78,2.919c-1.841,1.381-2.775,2.9-2.775,4.5a4.09,4.09,0,0,0,1.1,2.859,3.743,3.743,0,0,0,2.822,1.234,4.878,4.878,0,0,0,3.553-1.5,4.912,4.912,0,0,1,3.316-1.734,3.517,3.517,0,0,1,2.332.743,2,2,0,0,1,.792,1.639,1.892,1.892,0,0,1-.038.393,1.944,1.944,0,0,1-.149.409L53.372,58a2.273,2.273,0,0,1-.3.42q-.358.424-.558.669-.179.217-.615.672-.5.522-.7.75c-.121.135-.371.382-.748.746q-.624.6-.847.825-.908.908-2.379,2.292t-3.072,2.855c-1.047.961-1.671,1.528-1.941,1.765a7.094,7.094,0,0,0-2.422,4.953,4.475,4.475,0,0,0,1.2,3.2,4.166,4.166,0,0,0,3.137,1.286h0c3.5.058,6.848.087,9.952.087h4.99l.191,0A4,4,0,0,0,62.1,77.478a4.129,4.129,0,0,0,1.179-3.14A4.277,4.277,0,0,0,62.262,71.5Zm-1.877,4.165a1.616,1.616,0,0,1-1.286.358H54.068c-3.09,0-6.424-.029-9.931-.087a1.7,1.7,0,0,1-1.348-.509,2.041,2.041,0,0,1-.508-1.479,4.67,4.67,0,0,1,1.621-3.12q.311-.267,1.933-1.755,1.6-1.471,3.1-2.876t2.434-2.345q.215-.215.815-.793c.44-.425.729-.716.871-.873q.19-.21.651-.693c.352-.368.6-.64.743-.817q.193-.235.536-.643a4.529,4.529,0,0,0,.66-.981l.3-.647a4.5,4.5,0,0,0-1.276-5.435,5.987,5.987,0,0,0-3.923-1.314,7.257,7.257,0,0,0-5.083,2.466,2.4,2.4,0,0,1-1.785.771,1.24,1.24,0,0,1-.983-.428,1.621,1.621,0,0,1-.435-1.165c0-.775.6-1.617,1.838-2.551a9.411,9.411,0,0,1,6.254-2.368,10.07,10.07,0,0,1,6.843,2.192A7.073,7.073,0,0,1,60.08,56.4a7.841,7.841,0,0,1-.094,1.208q-.1.645-.221,1.146a3.519,3.519,0,0,1-.375.879q-.4.707-.611,1.153a4.084,4.084,0,0,1-.6.808q-.6.684-.859.991c-.084.1-.32.352-.96.956q-.78.737-1.061,1t-1.216,1.108c-.614.557-1.021.921-1.239,1.108l-4.374,3.893a1.25,1.25,0,0,0,.8,2.183c1.294.03,3.562.015,6.722-.043.031,0,.27-.007.722-.022q.63-.021,1.433-.043c1.127-.031,1.749-.151,2.206.389a2.179,2.179,0,0,1,.031,2.549Z" style="fill:#670100"/><path d="M78.065,57.46c1.378-2.3,2.437-4.173,3.111-5.5a4.3,4.3,0,0,0,.61-2.209,3.434,3.434,0,0,0-1.568-2.77,4.919,4.919,0,0,0-3.006-1.062,4.333,4.333,0,0,0-3.943,2.494c-4,7.422-6.835,12.561-8.4,15.24a8.559,8.559,0,0,0-1.373,4.6,4.946,4.946,0,0,0,1.069,3.081,3.89,3.89,0,0,0,3.2,1.538q1.446,0,5.1-.022,2.436-.015,3.927-.019v2.16a3.636,3.636,0,0,0,1.013,2.727,3.869,3.869,0,0,0,2.786.977c.068,0,.137,0,.207,0,2.49,0,3.966-1.349,4.049-3.7q.029-.94.04-2.114H86.18c1.1,0,3.656-.416,3.656-4.269a3.524,3.524,0,0,0-3.809-3.831l-1.179.021,0-3.845a3.706,3.706,0,0,0-1.209-2.708,4.392,4.392,0,0,0-2.925-.861c-2.462,0-3.875,1.54-3.875,4.213l-.032,3.328-3.058.042,1.709-3.093Q76.022,60.872,78.065,57.46ZM70.54,66.888a1.329,1.329,0,0,0,1.089.607l6.431-.088a1.25,1.25,0,0,0,1.233-1.238l.043-4.561c0-1.6.6-1.725,1.375-1.725a2.1,2.1,0,0,1,1.319.277,1.349,1.349,0,0,1,.318.879V66.07a1.249,1.249,0,0,0,.374.892,1.3,1.3,0,0,0,.9.358l2.438-.043c.99,0,1.277.3,1.277,1.331,0,1.769-.641,1.769-1.156,1.769H83.643a1.25,1.25,0,0,0-1.25,1.25q0,1.9-.043,3.281c-.03.854-.278,1.288-1.59,1.288a1.776,1.776,0,0,1-1.214-.269,1.389,1.389,0,0,1-.252-.932V71.582a1.25,1.25,0,0,0-1.25-1.25q-1.534,0-5.191.022t-5.089.022a1.4,1.4,0,0,1-1.219-.564,2.471,2.471,0,0,1-.549-1.555A6.062,6.062,0,0,1,67,64.951c1.6-2.737,4.449-7.9,8.461-15.342a1.861,1.861,0,0,1,1.747-1.187,2.45,2.45,0,0,1,1.5.557c.262.2.575.493.575.774a1.917,1.917,0,0,1-.3,1.006C78.3,52.1,77.27,53.922,75.92,56.175q-2.068,3.456-2.646,4.478l-2.756,4.987A1.25,1.25,0,0,0,70.54,66.888Z" style="fill:#670100"/></svg>