<svg id="Layer_1" data-name="Layer 1" xmlns="http://www.w3.org/2000/svg" xmlns:xlink="http://www.w3.org/1999/xlink" viewBox="0 0 128 128"><defs><linearGradient id="linear-gradient" x1="14" y1="64" x2="114" y2="64" gradientUnits="userSpaceOnUse"><stop offset="0" stop-color="#e5f4fa" stop-opacity="0.75"/><stop offset="1" stop-color="#d1effa"/></linearGradient></defs><title>DIGITAL CLOCK</title><path d="M105.208,25.75H22.792A8.792,8.792,0,0,0,14,34.542V93.458a8.792,8.792,0,0,0,8.792,8.792h82.417A8.792,8.792,0,0,0,114,93.458V34.542A8.792,8.792,0,0,0,105.208,25.75ZM89,41.25H39v-7H89Z" style="fill:url(#linear-gradient)"/><path d="M105.208,24.5H30.5a1.25,1.25,0,0,0,0,2.5h74.708a7.551,7.551,0,0,1,7.542,7.542V84.25H110a1.25,1.25,0,0,0,0,2.5h2.75v6.708A7.551,7.551,0,0,1,105.208,101H22.792a7.551,7.551,0,0,1-7.542-7.542V86.75H18a1.25,1.25,0,0,0,0-2.5H15.25V34.542A7.551,7.551,0,0,1,22.792,27a1.25,1.25,0,0,0,0-2.5A10.053,10.053,0,0,0,12.75,34.542V93.458A10.053,10.053,0,0,0,22.792,103.5h82.416A10.053,10.053,0,0,0,115.25,93.458V34.542A10.053,10.053,0,0,0,105.208,24.5Z" style="fill:#670100"/><path d="M85.554,32.357H42.446a5.446,5.446,0,0,0,0,10.893H85.554a5.446,5.446,0,1,0,0-10.893Zm0,8.393H42.446a2.946,2.946,0,0,1,0-5.893H85.554a2.946,2.946,0,1,1,0,5.893Z" style="fill:#670100"/><path d="M93.272,84.25a1.25,1.25,0,0,0,0,2.5h8.363a1.25,1.25,0,0,0,0-2.5Z" style="fill:#670100"/><path d="M76.545,86.75h8.364a1.25,1.25,0,0,0,0-2.5H76.545a1.25,1.25,0,0,0,0,2.5Z" style="fill:#670100"/><path d="M26.363,84.25a1.25,1.25,0,0,0,0,2.5h8.363a1.25,1.25,0,0,0,0-2.5Z" style="fill:#670100"/><path d="M43.091,84.25a1.25,1.25,0,0,0,0,2.5h8.363a1.25,1.25,0,0,0,0-2.5Z" style="fill:#670100"/><path d="M58.567,85.5a1.25,1.25,0,0,0,1.25,1.25h8.364a1.25,1.25,0,0,0,0-2.5H59.817A1.25,1.25,0,0,0,58.567,85.5Z" style="fill:#670100"/><path d="M31.949,72.659A6.929,6.929,0,0,0,37.418,70.1a10.541,10.541,0,0,0,2.2-7.1,11.811,11.811,0,0,0-2.031-7.288,6.646,6.646,0,0,0-5.611-2.685,6.506,6.506,0,0,0-5.725,2.954,13.312,13.312,0,0,0-2,7.615,9.44,9.44,0,0,0,2.23,6.619A7.121,7.121,0,0,0,31.949,72.659Zm.028-16.052A3.07,3.07,0,0,1,34.8,58.454a9.862,9.862,0,0,1,.98,4.659,7.778,7.778,0,0,1-1.079,4.39,3.334,3.334,0,0,1-2.9,1.606,3.067,3.067,0,0,1-2.713-1.634A7.627,7.627,0,0,1,28.085,63.4Q28.085,56.606,31.977,56.607Z" style="fill:#670100"/><path d="M55.263,70.1a10.54,10.54,0,0,0,2.2-7.1,11.811,11.811,0,0,0-2.031-7.288,6.645,6.645,0,0,0-5.611-2.685A6.506,6.506,0,0,0,44.1,55.981a13.312,13.312,0,0,0-2,7.615,9.44,9.44,0,0,0,2.23,6.619,7.121,7.121,0,0,0,5.47,2.443A6.929,6.929,0,0,0,55.263,70.1ZM52.55,67.5a3.334,3.334,0,0,1-2.9,1.606,3.067,3.067,0,0,1-2.713-1.634A7.627,7.627,0,0,1,45.93,63.4q0-6.791,3.893-6.79a3.07,3.07,0,0,1,2.826,1.847,9.863,9.863,0,0,1,.98,4.659A7.778,7.778,0,0,1,52.55,67.5Z" style="fill:#670100"/><path d="M65.618,60.2a2.149,2.149,0,0,0,.667-1.647,2.072,2.072,0,0,0-.639-1.591,2.259,2.259,0,0,0-1.605-.6,2.348,2.348,0,0,0-1.69.639,2.163,2.163,0,0,0-.668,1.634,2.11,2.11,0,0,0,.625,1.577,2.147,2.147,0,0,0,1.563.61A2.452,2.452,0,0,0,65.618,60.2Z" style="fill:#670100"/><path d="M62.308,69.106a2.148,2.148,0,0,0,1.563.611,2.456,2.456,0,0,0,1.747-.625,2.152,2.152,0,0,0,.667-1.648,2.073,2.073,0,0,0-.639-1.591,2.263,2.263,0,0,0-1.605-.6,2.344,2.344,0,0,0-1.69.64,2.161,2.161,0,0,0-.668,1.633A2.111,2.111,0,0,0,62.308,69.106Z" style="fill:#670100"/><path d="M83.728,70.1a10.54,10.54,0,0,0,2.2-7.1A11.811,11.811,0,0,0,83.9,55.712a6.646,6.646,0,0,0-5.611-2.685,6.506,6.506,0,0,0-5.726,2.954,13.312,13.312,0,0,0-2,7.615,9.44,9.44,0,0,0,2.23,6.619,7.121,7.121,0,0,0,5.47,2.443A6.929,6.929,0,0,0,83.728,70.1ZM75.4,67.475A7.627,7.627,0,0,1,74.4,63.4q0-6.791,3.893-6.79a3.07,3.07,0,0,1,2.826,1.847,9.863,9.863,0,0,1,.98,4.659,7.777,7.777,0,0,1-1.079,4.39,3.334,3.334,0,0,1-2.9,1.606A3.067,3.067,0,0,1,75.4,67.475Z" style="fill:#670100"/><path d="M101.744,55.712a6.645,6.645,0,0,0-5.611-2.685,6.506,6.506,0,0,0-5.726,2.954,13.313,13.313,0,0,0-2,7.615,9.44,9.44,0,0,0,2.23,6.619,7.12,7.12,0,0,0,5.47,2.443,6.928,6.928,0,0,0,5.469-2.557,10.54,10.54,0,0,0,2.2-7.1A11.81,11.81,0,0,0,101.744,55.712ZM98.86,67.5a3.335,3.335,0,0,1-2.9,1.606,3.067,3.067,0,0,1-2.713-1.634A7.628,7.628,0,0,1,92.24,63.4q0-6.791,3.893-6.79a3.07,3.07,0,0,1,2.826,1.847,9.863,9.863,0,0,1,.98,4.659A7.778,7.778,0,0,1,98.86,67.5Z" style="fill:#670100"/></svg>