<svg id="Layer_1" data-name="Layer 1" xmlns="http://www.w3.org/2000/svg" xmlns:xlink="http://www.w3.org/1999/xlink" viewBox="0 0 128 128"><defs><linearGradient id="linear-gradient" x1="30.29" y1="64" x2="97.709" y2="64" gradientUnits="userSpaceOnUse"><stop offset="0" stop-color="#ffe6a7" stop-opacity="0.75"/><stop offset="1" stop-color="#ffdc90"/></linearGradient></defs><title>WATCH_1</title><polygon points="84.882 47.077 43.118 47.077 46.118 14 81.882 14 84.882 47.077" style="fill:#fff"/><polygon points="84.882 80.923 43.118 80.923 46.118 114 81.882 114 84.882 80.923" style="fill:#fff"/><path d="M94,58.667h7.479a3.187,3.187,0,0,1,3.187,3.187v4.292a3.187,3.187,0,0,1-3.187,3.187H94a0,0,0,0,1,0,0V58.667A0,0,0,0,1,94,58.667Z" style="fill:#fff"/><circle cx="64" cy="64" r="33.709" style="fill:url(#linear-gradient)"/><circle cx="64" cy="64" r="27.375" style="fill:#fff"/><path d="M72.659,36.709a1.25,1.25,0,1,0-.756,2.383A26.146,26.146,0,1,1,64,37.875a1.25,1.25,0,0,0,0-2.5,28.6,28.6,0,1,0,8.659,1.334Z" style="fill:#670100"/><path d="M64,44.03a1.25,1.25,0,0,0-1.25,1.25V62.757l-12.338.066a1.25,1.25,0,0,0,.007,2.5h.007l13.581-.073A1.25,1.25,0,0,0,65.25,64V45.28A1.25,1.25,0,0,0,64,44.03Z" style="fill:#670100"/><path d="M101.479,57.417H98.329A35,35,0,0,0,85.15,36.189l-2.023-22.3a1.251,1.251,0,0,0-1.245-1.137H46.118a1.251,1.251,0,0,0-1.245,1.137L43.512,28.9a1.25,1.25,0,0,0,1.132,1.358A1.232,1.232,0,0,0,46,29.121L47.26,15.25H80.74l1.731,19.089A34.94,34.94,0,0,0,42.85,91.812l2.023,22.3a1.251,1.251,0,0,0,1.245,1.137H81.882a1.251,1.251,0,0,0,1.245-1.137l1.345-14.828a1.25,1.25,0,1,0-2.49-.226L80.74,112.75H47.26L45.529,93.662a34.926,34.926,0,0,0,52.8-23.078h3.151a4.442,4.442,0,0,0,4.438-4.437V61.854A4.442,4.442,0,0,0,101.479,57.417ZM64,96.46A32.46,32.46,0,1,1,96.459,64,32.5,32.5,0,0,1,64,96.46Zm39.417-30.314a1.94,1.94,0,0,1-1.938,1.938H98.713a33.959,33.959,0,0,0,0-8.167h2.767a1.94,1.94,0,0,1,1.938,1.938Z" style="fill:#670100"/></svg>