<svg id="Layer_1" data-name="Layer 1" xmlns="http://www.w3.org/2000/svg" xmlns:xlink="http://www.w3.org/1999/xlink" viewBox="0 0 128 128"><defs><linearGradient id="linear-gradient" x1="30.457" y1="64.248" x2="97.876" y2="64.248" gradientUnits="userSpaceOnUse"><stop offset="0" stop-color="#ddffca" stop-opacity="0.75"/><stop offset="1" stop-color="#ddffb3"/></linearGradient></defs><title>WATCH</title><path d="M94.167,58.667h7.479a3.187,3.187,0,0,1,3.187,3.187v4.292a3.187,3.187,0,0,1-3.187,3.187H94.167a0,0,0,0,1,0,0V58.667A0,0,0,0,1,94.167,58.667Z" style="fill:#fff"/><polygon points="85.048 47.077 43.285 47.077 46.285 14 82.048 14 85.048 47.077" style="fill:#fff"/><polygon points="85.048 80.923 43.285 80.923 46.285 114 82.048 114 85.048 80.923" style="fill:#fff"/><rect x="30.457" y="30.539" width="67.419" height="67.419" rx="12.502" ry="12.502" style="fill:url(#linear-gradient)"/><circle cx="64.167" cy="64" r="27.375" style="fill:#fff"/><path d="M71.931,36.441a1.25,1.25,0,0,0-.677,2.406,26.149,26.149,0,1,1-7.087-.972,1.25,1.25,0,0,0,0-2.5,28.6,28.6,0,1,0,7.764,1.066Z" style="fill:#670100"/><path d="M64.167,44.03a1.25,1.25,0,0,0-1.25,1.25V62.757l-12.338.066a1.25,1.25,0,0,0,.007,2.5h.007l13.581-.073A1.25,1.25,0,0,0,65.417,64V45.28A1.25,1.25,0,0,0,64.167,44.03Z" style="fill:#670100"/><path d="M101.646,57.417h-2.52V43.041A13.767,13.767,0,0,0,85.374,29.289h-.683l-1.4-15.4a1.25,1.25,0,0,0-1.245-1.137H46.285a1.25,1.25,0,0,0-1.245,1.137L44.031,25a1.25,1.25,0,1,0,2.49.226l.9-9.979H80.907L82.18,29.289H42.96A13.768,13.768,0,0,0,29.207,43.041V85.456A13.768,13.768,0,0,0,42.96,99.208h.728l1.352,14.905a1.25,1.25,0,0,0,1.245,1.137H82.049a1.25,1.25,0,0,0,1.245-1.137l1-11.007a1.25,1.25,0,1,0-2.49-.226l-.895,9.87H47.426L46.2,99.208H85.374A13.767,13.767,0,0,0,99.126,85.456V70.584h2.52a4.443,4.443,0,0,0,4.437-4.437V61.854A4.443,4.443,0,0,0,101.646,57.417Zm-5.02,28.039A11.264,11.264,0,0,1,85.374,96.708H42.96A11.265,11.265,0,0,1,31.707,85.456V43.041A11.265,11.265,0,0,1,42.96,31.789H85.374A11.264,11.264,0,0,1,96.626,43.041Zm6.957-19.31a1.94,1.94,0,0,1-1.937,1.938h-2.52V59.917h2.52a1.94,1.94,0,0,1,1.937,1.938Z" style="fill:#670100"/></svg>