<svg id="Layer_1" data-name="Layer 1" xmlns="http://www.w3.org/2000/svg" xmlns:xlink="http://www.w3.org/1999/xlink" viewBox="0 0 128 128"><defs><linearGradient id="linear-gradient" x1="39.333" y1="64" x2="88.667" y2="64" gradientUnits="userSpaceOnUse"><stop offset="0" stop-color="#e5f4fa" stop-opacity="0.75"/><stop offset="1" stop-color="#d1effa"/></linearGradient></defs><title>HOURGLASS</title><path d="M94.208,25.333H33.792a5.667,5.667,0,0,1-5.667-5.667h0A5.667,5.667,0,0,1,33.792,14H94.208a5.667,5.667,0,0,1,5.667,5.667h0A5.667,5.667,0,0,1,94.208,25.333Z" style="fill:#fff"/><path d="M94.208,114H33.792a5.667,5.667,0,0,1-5.667-5.667h0a5.667,5.667,0,0,1,5.667-5.667H94.208a5.667,5.667,0,0,1,5.667,5.667h0A5.667,5.667,0,0,1,94.208,114Z" style="fill:#fff"/><path d="M81.225,58.837c4.621-2.423,7.442-6.748,7.442-11.412V25.333H39.333V47.426c0,4.663,2.821,8.989,7.442,11.412,0,0,4.1,2.144,7.026,3.67a1.629,1.629,0,0,1,0,2.986c-2.925,1.525-7.026,3.67-7.026,3.67-4.621,2.423-7.442,6.748-7.442,11.412v22.092H88.667V80.575c0-4.663-2.821-8.989-7.442-11.412,0,0-4.1-2.144-7.027-3.67a1.629,1.629,0,0,1,0-2.986C77.123,60.982,81.225,58.837,81.225,58.837Z" style="fill:url(#linear-gradient)"/><path d="M33.792,26.583h4.292V47.426c0,5.1,3.108,9.895,8.113,12.518l7.028,3.671a.4.4,0,0,1,0,.77l-7.029,3.671c-5,2.624-8.111,7.42-8.111,12.519V96.667a1.25,1.25,0,0,0,2.5,0V80.574c0-4.166,2.6-8.114,6.771-10.3L54.379,66.6a2.876,2.876,0,0,0,0-5.2L47.356,57.73c-4.177-2.19-6.773-6.138-6.773-10.3V26.583H94.209a6.916,6.916,0,1,0,0-13.833H33.792a6.917,6.917,0,1,0,0,13.833Zm0-11.333H94.209a4.417,4.417,0,1,1,0,8.833H33.792a4.416,4.416,0,1,1,0-8.833Z" style="fill:#670100"/><path d="M94.209,101.417H89.917V80.574c0-5.1-3.108-9.895-8.113-12.519l-7.028-3.671a.4.4,0,0,1,0-.77l7.029-3.671c5-2.624,8.111-7.42,8.111-12.518V31.333a1.25,1.25,0,0,0-2.5,0V47.426c0,4.166-2.6,8.114-6.771,10.3L73.621,61.4a2.876,2.876,0,0,0,0,5.2l7.024,3.669c4.177,2.189,6.772,6.138,6.772,10.3v20.843H33.792a6.917,6.917,0,1,0,0,13.833H94.209a6.916,6.916,0,1,0,0-13.833Zm0,11.333H33.792a4.416,4.416,0,1,1,0-8.833H94.209a4.416,4.416,0,1,1,0,8.833Z" style="fill:#670100"/></svg>