<svg width="39" height="39" viewBox="0 0 39 39" fill="none" xmlns="http://www.w3.org/2000/svg">
<path fill-rule="evenodd" clip-rule="evenodd" d="M20.723 21.397H36.636C37.464 21.397 38.136 20.725 38.135 19.897C38.135 19.068 37.464 18.397 36.636 18.397H20.723V2.48399C20.723 1.65599 20.052 0.984986 19.223 0.984986C18.395 0.983986 17.723 1.65599 17.723 2.48399V18.397H1.81104C0.982035 18.397 0.311035 19.069 0.311035 19.897C0.311035 20.312 0.479035 20.686 0.750035 20.958C1.02104 21.229 1.39604 21.397 1.81104 21.397H17.723V37.31C17.723 37.724 17.891 38.099 18.163 38.37C18.434 38.642 18.809 38.809 19.223 38.809C20.051 38.81 20.723 38.138 20.723 37.31V21.397Z" fill="#1A1919"/>
</svg>
