<svg width="35" height="29" viewBox="0 0 35 29" fill="none" xmlns="http://www.w3.org/2000/svg">
<path fill-rule="evenodd" clip-rule="evenodd" d="M33.187 12.438H6.09703L16.113 2.60801C16.704 2.02701 16.713 1.07801 16.133 0.486014C15.551 -0.104986 14.602 -0.112986 14.011 0.466014L1.40703 12.836C1.12103 13.117 0.959027 13.5 0.958027 13.9C0.956027 14.3 1.11403 14.685 1.39703 14.968L14.022 27.593C14.315 27.886 14.699 28.032 15.083 28.032C15.466 28.032 15.85 27.886 16.143 27.593C16.729 27.007 16.729 26.057 16.143 25.472L6.10903 15.438H33.187C34.015 15.438 34.687 14.766 34.687 13.938C34.687 13.109 34.015 12.438 33.187 12.438Z" fill="#1A1919"/>
</svg>
