<svg width="39" height="39" viewBox="0 0 39 39" fill="none" xmlns="http://www.w3.org/2000/svg">
<path fill-rule="evenodd" clip-rule="evenodd" d="M26.74 21.179H19.74C18.92 21.179 18.24 20.507 18.24 19.679V8.89999C18.24 8.07199 18.92 7.39999 19.74 7.39999C20.57 7.39999 21.24 8.07199 21.24 8.89999V18.179H26.74C27.57 18.179 28.24 18.85 28.24 19.679C28.24 20.507 27.57 21.179 26.74 21.179ZM19.74 3.42899C10.78 3.42899 3.48999 10.718 3.48999 19.679C3.48999 28.639 10.78 35.929 19.74 35.929C28.7 35.929 35.99 28.639 35.99 19.679C35.99 10.718 28.7 3.42899 19.74 3.42899ZM19.74 38.929C9.12999 38.929 0.48999 30.293 0.48999 19.679C0.48999 9.06399 9.12999 0.428986 19.74 0.428986C30.36 0.428986 38.99 9.06399 38.99 19.679C38.99 30.293 30.36 38.929 19.74 38.929Z" fill="#1A1919"/>
</svg>
