<svg width="11" height="11" viewBox="0 0 11 11" fill="none" xmlns="http://www.w3.org/2000/svg">
<path fill-rule="evenodd" clip-rule="evenodd" d="M7.18343 3.81629C7.016 3.64886 6.74486 3.64886 6.57743 3.81629L5.5 4.89372L4.42257 3.81629C4.25514 3.64886 3.984 3.64886 3.81657 3.81629C3.64914 3.98372 3.64914 4.25515 3.81657 4.42229L4.894 5.49972L3.81657 6.57743C3.64914 6.74458 3.64914 7.016 3.81657 7.18343C3.90029 7.26715 4.00971 7.30886 4.11943 7.30886C4.22914 7.30886 4.33886 7.26715 4.42257 7.18343L5.5 6.10572L6.57743 7.18343C6.66114 7.26715 6.77086 7.30886 6.88057 7.30886C6.99029 7.30886 7.09971 7.26715 7.18343 7.18343C7.35086 7.016 7.35086 6.74458 7.18343 6.57743L6.106 5.49972L7.18343 4.42229C7.35086 4.25515 7.35086 3.98372 7.18343 3.81629ZM5.5 0C2.46743 0 0 2.46714 0 5.5C0 8.53257 2.46743 11 5.5 11C8.53286 11 11 8.53257 11 5.5C11 2.46714 8.53286 0 5.5 0Z" fill="#1A1919"/>
</svg>
