<svg width="49" height="42" viewBox="0 0 49 42" fill="none" xmlns="http://www.w3.org/2000/svg">
<path fill-rule="evenodd" clip-rule="evenodd" d="M31.66 0.640015C24.74 0.640015 18.67 4.95002 16.32 11.32C15.14 10.83 14.09 10.61 12.35 10.61C6.06997 10.61 0.969971 15.72 0.969971 21.99C0.969971 28.27 6.06997 33.37 12.35 33.37H20.19C21.01 33.37 21.69 32.7 21.69 31.87C21.69 31.04 21.01 30.37 20.19 30.37H12.35C7.72997 30.37 3.96997 26.61 3.96997 21.99C3.96997 17.37 7.72997 13.61 12.35 13.61C14.15 13.61 14.76 13.83 16.55 14.74C16.56 14.75 16.56 14.75 16.56 14.75C16.62 14.78 16.68 14.79 16.74 14.82C16.78 14.83 16.81 14.85 16.85 14.86C16.86 14.86 16.86 14.86 16.87 14.86C16.92 14.88 16.96 14.88 17.01 14.88C17.05 14.89 17.1 14.9 17.15 14.9C17.2 14.91 17.26 14.9 17.31 14.9C17.35 14.9 17.39 14.9 17.44 14.89C17.49 14.88 17.54 14.87 17.6 14.86C17.64 14.85 17.68 14.84 17.72 14.82C17.77 14.81 17.81 14.78 17.86 14.76C17.9 14.74 17.94 14.73 17.98 14.71C18.03 14.68 18.07 14.65 18.11 14.62C18.14 14.59 18.18 14.57 18.22 14.54C18.26 14.5 18.29 14.46 18.33 14.42C18.36 14.39 18.39 14.36 18.42 14.33C18.46 14.28 18.49 14.22 18.52 14.16C18.54 14.14 18.56 14.12 18.57 14.09C18.57 14.08 18.57 14.08 18.57 14.08C18.6 14.02 18.62 13.97 18.64 13.91C18.65 13.87 18.67 13.83 18.68 13.79C18.68 13.78 18.69 13.78 18.69 13.77C20.17 7.80001 25.51 3.64001 31.66 3.64001C39.03 3.64001 45.03 9.63002 45.03 17.01C45.03 24.38 39.03 30.37 31.66 30.37C30.83 30.37 30.16 31.04 30.16 31.87C30.16 32.7 30.83 33.37 31.66 33.37C40.69 33.37 48.03 26.03 48.03 17.01C48.03 7.98002 40.69 0.640015 31.66 0.640015Z" fill="#1A1919"/>
<path fill-rule="evenodd" clip-rule="evenodd" d="M32.79 27.32C33.17 27.32 33.55 27.18 33.84 26.89C34.43 26.31 34.44 25.36 33.86 24.77L27.02 17.81C26.73 17.53 26.35 17.36 25.95 17.36C25.54 17.36 25.16 17.53 24.88 17.81L18.15 24.68C17.57 25.27 17.58 26.22 18.17 26.8C18.76 27.38 19.71 27.37 20.29 26.78L24.37 22.61V40.33C24.37 41.15 25.04 41.83 25.87 41.83C26.7 41.83 27.37 41.15 27.37 40.33V22.46L31.72 26.87C32.01 27.17 32.4 27.32 32.79 27.32Z" fill="#1A1919"/>
</svg>
