<svg width="35" height="40" viewBox="0 0 35 40" fill="none" xmlns="http://www.w3.org/2000/svg">
<path fill-rule="evenodd" clip-rule="evenodd" d="M11.23 12.32C10.4 12.32 9.72998 12.99 9.72998 13.82V31.82C9.72998 32.65 10.4 33.32 11.23 33.32C12.06 33.32 12.73 32.65 12.73 31.82V13.82C12.73 12.99 12.06 12.32 11.23 12.32ZM17.17 12.32C16.34 12.32 15.67 12.99 15.67 13.82V31.82C15.67 32.65 16.34 33.32 17.17 33.32C17.99 33.32 18.67 32.65 18.67 31.82V13.82C18.67 12.99 17.99 12.32 17.17 12.32ZM21.6 31.82V13.82C21.6 12.99 22.28 12.32 23.1 12.32C23.93 12.32 24.6 12.99 24.6 13.82V31.82C24.6 32.65 23.93 33.32 23.1 33.32C22.28 33.32 21.6 32.65 21.6 31.82ZM27.85 35.76C27.85 36.03 27.63 36.26 27.35 36.26H7.09998C6.82998 36.26 6.59998 36.03 6.59998 35.76V8.88H27.85V35.76ZM12.73 3.88C12.73 3.61 12.96 3.38 13.23 3.38H21.1C21.38 3.38 21.6 3.61 21.6 3.88V5.88H12.73V3.88ZM32.73 5.88H24.6V3.88C24.6 1.95 23.03 0.380005 21.1 0.380005H13.23C11.3 0.380005 9.72998 1.95 9.72998 3.88V5.88H1.84998C1.02998 5.88 0.349976 6.55 0.349976 7.38C0.349976 8.21 1.02998 8.88 1.84998 8.88H3.59998V35.76C3.59998 37.69 5.16998 39.26 7.09998 39.26H27.35C29.28 39.26 30.85 37.69 30.85 35.76V8.88H32.73C33.56 8.88 34.23 8.21 34.23 7.38C34.23 6.55 33.56 5.88 32.73 5.88Z" fill="#1A1919"/>
</svg>
