<svg width="32" height="42" viewBox="0 0 32 42" fill="none" xmlns="http://www.w3.org/2000/svg">
<path fill-rule="evenodd" clip-rule="evenodd" d="M30.166 38.032H2.16602C1.33702 38.032 0.666016 38.704 0.666016 39.532C0.666016 40.361 1.33702 41.032 2.16602 41.032H30.166C30.995 41.032 31.666 40.361 31.666 39.532C31.666 38.704 30.995 38.032 30.166 38.032Z" fill="#1A1919"/>
<path fill-rule="evenodd" clip-rule="evenodd" d="M14.877 33.55C15.158 33.835 15.541 33.997 15.941 33.999C16.341 34.001 16.726 33.843 17.009 33.56L29.634 20.935C29.927 20.642 30.073 20.258 30.073 19.874C30.073 19.49 29.927 19.106 29.634 18.813C29.048 18.228 28.098 18.228 27.513 18.813L17.479 28.847V1.76999C17.479 0.940989 16.807 0.269989 15.979 0.269989C15.15 0.269989 14.479 0.940989 14.479 1.76999V28.86L4.649 18.844C4.068 18.252 3.119 18.244 2.527 18.824C1.936 19.405 1.928 20.355 2.507 20.945L14.877 33.55Z" fill="#1A1919"/>
</svg>
