<svg xmlns="http://www.w3.org/2000/svg" viewBox="0 0 45 34"><path fill-rule="evenodd" d="M14.653 30.11c0-1.67 1.348-3.03 3.005-3.03 1.657 0 3.005 1.36 3.005 3.03 0 1.66-1.348 3.02-3.005 3.02-1.657 0-3.005-1.36-3.005-3.02zm18.123 0c0-1.67 1.348-3.03 3.005-3.03 1.657 0 3.005 1.36 3.005 3.03 0 1.66-1.348 3.02-3.005 3.02-1.657 0-3.005-1.36-3.005-3.02zm4.978-9.27H15.137L11.809 8.12l28.868.03-2.923 12.69zm5.981-15.12a1.523 1.523 0 0 0-1.172-.57l-31.54-.03-.961-3.68A1.5 1.5 0 0 0 8.611.32H1.536c-.829 0-1.5.67-1.5 1.5s.671 1.5 1.5 1.5h5.917l.953 3.64c.005.03.011.05.017.07l4.104 15.69a1.5 1.5 0 0 0 1.452 1.12h24.968c.699 0 1.305-.48 1.462-1.16l3.614-15.69c.103-.44-.003-.91-.288-1.27z" clip-rule="evenodd"/></svg>