<svg xmlns="http://www.w3.org/2000/svg" viewBox="0 0 36 36"><path fill-rule="evenodd" d="m21.514 12.396-9.287 8.703a1.499 1.499 0 1 0 2.051 2.189l9.287-8.703a1.499 1.499 0 1 0-2.051-2.189z" clip-rule="evenodd"/><path fill-rule="evenodd" d="M33.108 3.223c-3.704-3.658-9.89-3.604-13.81.139l-5.147 5.111a1.501 1.501 0 0 0 2.115 2.129l5.125-5.09c2.737-2.614 7.047-2.683 9.609-.155 1.176 1.161 1.812 2.777 1.791 4.55-.022 1.794-.732 3.481-1.949 4.625l-5.669 5.331a1.5 1.5 0 0 0 2.056 2.186l5.668-5.331c1.808-1.701 2.862-4.171 2.893-6.776.031-2.557-.947-5.006-2.682-6.719zM19.698 25.097l-5.126 5.09c-2.738 2.611-7.05 2.682-9.61.154-1.175-1.16-1.811-2.776-1.789-4.549.021-1.795.731-3.48 1.948-4.626l5.669-5.331a1.5 1.5 0 0 0-2.056-2.186l-5.669 5.332C1.258 20.682.204 23.151.173 25.756c-.03 2.558.947 5.008 2.682 6.72 1.828 1.804 4.259 2.705 6.726 2.705 2.53 0 5.098-.95 7.084-2.845l5.147-5.11a1.501 1.501 0 0 0-2.114-2.129z" clip-rule="evenodd"/></svg>