<svg xmlns="http://www.w3.org/2000/svg" viewBox="0 0 32 37"><path fill-rule="evenodd" d="M26.44 6.055h-5.1a1.5 1.5 0 1 0 0 3h5.1c1.02 0 1.85.83 1.85 1.85v21.129c0 1.021-.83 1.851-1.85 1.851H5.31c-1.02 0-1.85-.83-1.85-1.851V10.905c0-1.02.83-1.85 1.85-1.85h4.41a1.5 1.5 0 1 0 0-3H5.31a4.851 4.851 0 0 0-4.85 4.85v21.129a4.852 4.852 0 0 0 4.85 4.851h21.13c2.67 0 4.85-2.176 4.85-4.851V10.905c0-2.675-2.18-4.85-4.85-4.85z" clip-rule="evenodd"/><path fill-rule="evenodd" d="M15.6 14.268a1.5 1.5 0 0 0 1.5-1.5V2.192a1.5 1.5 0 1 0-3 0v10.576c0 .828.67 1.5 1.5 1.5z" clip-rule="evenodd"/></svg>