<svg xmlns="http://www.w3.org/2000/svg" viewBox="0 0 36 46"><path fill-rule="evenodd" d="M16.11 3.386h-2.37a1.5 1.5 0 1 1 0-3h7.75a1.5 1.5 0 1 1 0 3h-2.38V6.72a1.5 1.5 0 1 1-3 0V3.386zm3.32 13.521v7.36a3.427 3.427 0 0 1 1.93 3.078 3.438 3.438 0 0 1-3.43 3.437 3.44 3.44 0 0 1-3.44-3.437c0-1.356.79-2.519 1.94-3.078v-7.36a1.5 1.5 0 1 1 3 0zm-1.5 25.313c-8.21 0-14.88-6.673-14.88-14.875S9.72 12.47 17.93 12.47c8.2 0 14.87 6.673 14.87 14.875S26.13 42.22 17.93 42.22zM31.1 15.306l2.27-2.268a1.51 1.51 0 0 0 0-2.121 1.498 1.498 0 0 0-2.12 0l-2.35 2.348A17.768 17.768 0 0 0 17.93 9.47C8.07 9.47.05 17.488.05 27.345c0 9.856 8.02 17.875 17.88 17.875 9.85 0 17.87-8.019 17.87-17.875 0-4.64-1.79-8.859-4.7-12.039z" clip-rule="evenodd"/></svg>