<svg xmlns="http://www.w3.org/2000/svg" viewBox="0 0 35 40"><path fill-rule="evenodd" d="M11.23 12.32c-.83 0-1.5.67-1.5 1.5v18c0 .83.67 1.5 1.5 1.5s1.5-.67 1.5-1.5v-18c0-.83-.67-1.5-1.5-1.5zm5.94 0c-.83 0-1.5.67-1.5 1.5v18c0 .83.67 1.5 1.5 1.5.82 0 1.5-.67 1.5-1.5v-18c0-.83-.68-1.5-1.5-1.5zm4.43 19.5v-18c0-.83.68-1.5 1.5-1.5.83 0 1.5.67 1.5 1.5v18c0 .83-.67 1.5-1.5 1.5-.82 0-1.5-.67-1.5-1.5zm6.25 3.94c0 .27-.22.5-.5.5H7.1c-.27 0-.5-.23-.5-.5V8.88h21.25v26.88zM12.73 3.88c0-.27.23-.5.5-.5h7.87c.28 0 .5.23.5.5v2h-8.87v-2zm20 2H24.6v-2c0-1.93-1.57-3.5-3.5-3.5h-7.87c-1.93 0-3.5 1.57-3.5 3.5v2H1.85c-.82 0-1.5.67-1.5 1.5s.68 1.5 1.5 1.5H3.6v26.88c0 1.93 1.57 3.5 3.5 3.5h20.25c1.93 0 3.5-1.57 3.5-3.5V8.88h1.88c.83 0 1.5-.67 1.5-1.5s-.67-1.5-1.5-1.5z" clip-rule="evenodd"/></svg>