<svg xmlns="http://www.w3.org/2000/svg" viewBox="0 0 39 39"><path fill-rule="evenodd" d="M9.95 13.77h4.53V9.24c0-.83.67-1.5 1.5-1.5s1.5.67 1.5 1.5v4.53h4.53c.82 0 1.5.67 1.5 1.5 0 .82-.68 1.5-1.5 1.5h-4.53v4.52c0 .83-.67 1.5-1.5 1.5s-1.5-.67-1.5-1.5v-4.52H9.95c-.83 0-1.5-.68-1.5-1.5 0-.83.67-1.5 1.5-1.5zm6.03 13.67c6.71 0 12.17-5.46 12.17-12.17 0-6.72-5.46-12.18-12.17-12.18C9.26 3.09 3.8 8.55 3.8 15.27c0 6.71 5.46 12.17 12.18 12.17zm0-27.35c8.37 0 15.17 6.81 15.17 15.18 0 3.86-1.46 7.38-3.84 10.06l10.55 10.55c.59.59.59 1.54 0 2.12-.29.3-.67.44-1.06.44-.38 0-.76-.14-1.06-.44L25.1 27.36a15.03 15.03 0 0 1-9.12 3.08C7.61 30.44.8 23.63.8 15.27.8 6.9 7.61.09 15.98.09z" clip-rule="evenodd"/></svg>