<svg width="29" height="28" viewBox="0 0 29 28" fill="none" xmlns="http://www.w3.org/2000/svg">
<path fill-rule="evenodd" clip-rule="evenodd" d="M16.584 13.897L27.836 2.645C28.422 2.06 28.422 1.109 27.836 0.524003C27.25 -0.0619968 26.301 -0.0619968 25.715 0.524003L14.463 11.776L3.21101 0.524003C2.62501 -0.0619968 1.67601 -0.0619968 1.09001 0.524003C0.504013 1.109 0.504013 2.06 1.09001 2.645L12.342 13.897L1.09001 25.149C0.504013 25.734 0.504013 26.685 1.09001 27.27C1.38301 27.563 1.76701 27.709 2.15101 27.709C2.53501 27.709 2.91801 27.563 3.21101 27.27L14.463 16.018L25.715 27.27C26.008 27.563 26.392 27.709 26.776 27.709C27.16 27.709 27.543 27.563 27.836 27.27C28.422 26.685 28.422 25.734 27.836 25.149L16.584 13.897Z" fill="#1A1919"/>
</svg>
