<svg width="40" height="40" viewBox="0 0 40 40" fill="none" xmlns="http://www.w3.org/2000/svg">
<path fill-rule="evenodd" clip-rule="evenodd" d="M21.7 21.56L15.26 23.53L18.92 18.15L25.56 16.26L21.7 21.56ZM28.92 12.19L17.57 15.42C17.23 15.51 16.94 15.72 16.74 16.02L10.39 25.37C10.03 25.89 10.05 26.59 10.42 27.1C10.71 27.49 11.16 27.71 11.63 27.71C11.78 27.71 11.92 27.69 12.07 27.64L23.05 24.28C23.37 24.19 23.64 23.99 23.83 23.73L30.55 14.51C30.92 14 30.93 13.3 30.57 12.77C30.2 12.25 29.54 12.01 28.92 12.19ZM31.74 31.74C25.34 38.14 14.93 38.14 8.52999 31.74C2.13999 25.34 2.13999 14.94 8.52999 8.53998C11.63 5.43998 15.75 3.72998 20.13 3.72998C24.52 3.72998 28.64 5.43998 31.74 8.53998C38.13 14.94 38.13 25.34 31.74 31.74ZM33.86 6.41998C30.19 2.74998 25.32 0.72998 20.13 0.72998C14.95 0.72998 10.08 2.74998 6.40999 6.41998C-1.15001 13.98 -1.15001 26.3 6.40999 33.86C10.2 37.65 15.16 39.54 20.13 39.54C25.1 39.54 30.08 37.65 33.86 33.86C41.42 26.3 41.42 13.98 33.86 6.41998Z" fill="#1A1919"/>
</svg>
