<svg xmlns="http://www.w3.org/2000/svg" viewBox="0 0 49 42"><path fill-rule="evenodd" d="M31.66.64c-6.92 0-12.99 4.31-15.34 10.68-1.18-.49-2.23-.71-3.97-.71C6.07 10.61.97 15.72.97 21.99c0 6.28 5.1 11.38 11.38 11.38h7.84c.82 0 1.5-.67 1.5-1.5s-.68-1.5-1.5-1.5h-7.84c-4.62 0-8.38-3.76-8.38-8.38 0-4.62 3.76-8.38 8.38-8.38 1.8 0 2.41.22 4.2 1.13l.01.01c.06.03.12.04.18.07.04.01.07.03.11.04h.02c.05.02.09.02.14.02.04.01.09.02.14.02.05.01.11 0 .16 0 .04 0 .08 0 .13-.01s.1-.02.16-.03c.04-.01.08-.02.12-.04.05-.01.09-.04.14-.06.04-.02.08-.03.12-.05.05-.03.09-.06.13-.09.03-.03.07-.05.11-.08.04-.04.07-.08.11-.12l.09-.09c.04-.05.07-.11.1-.17a.18.18 0 0 0 .05-.07v-.01c.03-.06.05-.11.07-.17.01-.04.03-.08.04-.12 0-.01.01-.01.01-.02A13.332 13.332 0 0 1 31.66 3.64c7.37 0 13.37 5.99 13.37 13.37 0 7.37-6 13.36-13.37 13.36-.83 0-1.5.67-1.5 1.5s.67 1.5 1.5 1.5c9.03 0 16.37-7.34 16.37-16.36C48.03 7.98 40.69.64 31.66.64z" clip-rule="evenodd"/><path fill-rule="evenodd" d="M32.79 27.32a1.5 1.5 0 0 0 1.07-2.55l-6.84-6.96a1.55 1.55 0 0 0-1.07-.45c-.41 0-.79.17-1.07.45l-6.73 6.87a1.5 1.5 0 0 0 2.14 2.1l4.08-4.17v17.72c0 .82.67 1.5 1.5 1.5s1.5-.68 1.5-1.5V22.46l4.35 4.41c.29.3.68.45 1.07.45z" clip-rule="evenodd"/></svg>