<svg xmlns="http://www.w3.org/2000/svg" viewBox="0 0 32 32"><path fill-rule="evenodd" d="M29.922 17.25a1.5 1.5 0 00-1.5 1.5c0 .5 0 6.148-.004 8.831-.001.3-.002 1.215-1.125 1.252H4.668c-.355 0-.62-.068-.727-.188-.152-.17-.18-.571-.163-.725a1.5 1.5 0 00.015-.212V5.083c0-.306.042-.713.246-.915.207-.207.571-.208.629-.21h8.75a1.5 1.5 0 100-3L4.747.96C4.582.952 3.116.907 1.983 1.982 1.44 2.498.793 3.454.793 5.083v22.546c-.042.458-.078 1.875.878 2.977.486.56 1.399 1.227 2.997 1.227h22.627c1.656 0 4.118-1.131 4.123-4.248.004-2.683.004-8.335.004-8.835a1.5 1.5 0 00-1.5-1.5z" clip-rule="evenodd"/><path fill-rule="evenodd" d="M31.315 1.91c-.002-.008-.003-.015-.007-.023a1.509 1.509 0 00-.816-.817l-.023-.007a1.505 1.505 0 00-.547-.106h-9.75a1.5 1.5 0 100 3h6.129L15.736 14.521a1.5 1.5 0 002.121 2.122L28.422 6.078v6.504a1.5 1.5 0 103 0V2.457c0-.193-.04-.377-.107-.547z" clip-rule="evenodd"/></svg>