<svg xmlns="http://www.w3.org/2000/svg" viewBox="0 0 34 38"><path fill-rule="evenodd" d="M16.88 14.354c.83 0 1.5-.671 1.5-1.5V2.279a1.5 1.5 0 1 0-3 0v10.575c0 .829.67 1.5 1.5 1.5z" clip-rule="evenodd"/><path fill-rule="evenodd" d="M23.06 5.836a1.494 1.494 0 0 0-1.93.875c-.29.774.1 1.64.87 1.932 5.09 1.917 8.25 6.649 8.25 12.352 0 7.371-6 13.368-13.37 13.368-7.37 0-13.37-5.997-13.37-13.368 0-5.385 3.21-10.22 8.17-12.317a1.507 1.507 0 0 0 .8-1.966 1.502 1.502 0 0 0-1.97-.798 16.352 16.352 0 0 0-10 15.081c0 9.026 7.35 16.368 16.37 16.368 9.03 0 16.37-7.342 16.37-16.368 0-6.983-3.9-12.792-10.19-15.159z" clip-rule="evenodd"/></svg>