<svg xmlns="http://www.w3.org/2000/svg" viewBox="0 0 41 36"><path fill-rule="evenodd" d="M37.46 32.46c0 .27-.23.5-.5.5H32.9V10.62h4.06c.27 0 .5.23.5.5v21.34zm-33.67 0V11.12c0-.27.23-.5.5-.5h3.92v22.34H4.29c-.27 0-.5-.23-.5-.5zM14.88 3.62c0-.27.23-.5.5-.5h10.5c.27 0 .5.23.5.5v4h-11.5v-4zm-3.67 29.34H29.9V10.62H11.21v22.34zM36.96 7.62h-7.58v-4c0-1.93-1.57-3.5-3.5-3.5h-10.5c-1.93 0-3.5 1.57-3.5 3.5v4H4.29c-1.93 0-3.5 1.57-3.5 3.5v21.34c0 1.93 1.57 3.5 3.5 3.5h32.67c1.93 0 3.5-1.57 3.5-3.5V11.12c0-1.93-1.57-3.5-3.5-3.5z" clip-rule="evenodd"/></svg>