<svg xmlns="http://www.w3.org/2000/svg" viewBox="0 0 45 38"><path fill-rule="evenodd" d="m39.91 18.795 4.35-4.346c.59-.586.59-1.535 0-2.121a1.498 1.498 0 0 0-2.12 0l-4.35 4.346-4.34-4.346a1.498 1.498 0 0 0-2.12 0 1.492 1.492 0 0 0 0 2.121l4.34 4.346-4.34 4.346a1.492 1.492 0 0 0 0 2.121c.29.293.67.439 1.06.439.38 0 .76-.146 1.06-.439l4.34-4.346 4.35 4.346c.29.293.68.439 1.06.439s.77-.146 1.06-.439c.59-.586.59-1.535 0-2.121l-4.35-4.346zm-15.2 14.331c.01.882-.19 1.216-.26 1.264-.12.079-.53.04-.76-.052-2.64-1.254-9.78-4.675-11.04-5.432-.83-.5-.82-.924-.78-1.767.01-.159.01-.309.01-.451V10.522c0-.588.43-.928.54-1.002 1.23-.583 7.76-4.165 10.76-6.056.56-.353.99-.355 1.21-.235.28.151.33.536.33.775.02.694 0 21.252-.01 29.122zM8.88 25.923H3.11V11.798h5.77v14.125zM25.83.593c-1.25-.677-2.84-.554-4.25.332-3.18 2.011-9.84 5.617-10.45 5.888-.05.02-.1.043-.15.07-.52.288-1.26.943-1.71 1.915H1.61a1.5 1.5 0 0 0-1.5 1.5v17.125c0 .828.67 1.5 1.5 1.5h7.43c.25.862.81 1.801 2.07 2.556 1.64.986 10.9 5.382 11.34 5.589.12.055.86.361 1.78.361.59 0 1.25-.128 1.86-.533 1.09-.71 1.63-1.983 1.62-3.774.01-2.917.03-28.515.01-29.187-.02-1.46-.73-2.709-1.89-3.342z" clip-rule="evenodd"/></svg>