<svg width="22" height="35" viewBox="0 0 22 35" fill="none" xmlns="http://www.w3.org/2000/svg">
<path fill-rule="evenodd" clip-rule="evenodd" d="M13.062 5.59703L19.2461 15.613C19.8271 16.204 20.7761 16.213 21.3681 15.633C21.9591 15.051 21.9671 14.102 21.3881 13.511L12.664 0.907027C12.383 0.621027 12 0.459027 11.6 0.458027C11.2 0.456027 10.815 0.614027 10.532 0.897027L1.23894 13.522C0.945944 13.815 0.799944 14.199 0.799944 14.583C0.799944 14.966 0.945944 15.35 1.23894 15.643C1.82494 16.229 2.77494 16.229 3.35994 15.643L10.062 5.60903L10.062 32.687C10.062 33.515 10.734 34.187 11.562 34.187C12.391 34.187 13.062 33.515 13.062 32.687L13.062 5.59703Z" fill="#1A1919"/>
</svg>
