<svg xmlns="http://www.w3.org/2000/svg" viewBox="0 0 36 35"><path fill-rule="evenodd" d="M31.9 16.005c-1.87-1.921-4.41-2.895-7.55-2.895-6.28 0-13.94.056-18.38.093L16.02 3.162a1.51 1.51 0 0 0 0-2.121 1.51 1.51 0 0 0-2.13 0L1.26 13.675v.005c-.06.053-.1.113-.15.175-.01.017-.03.032-.04.05a1.94 1.94 0 0 0-.13.243c0 .005 0 .009-.01.014-.02.059-.04.123-.05.187l-.03.094c-.01.038-.01.078-.01.117-.01.058-.02.116-.02.175v.015c0 .048.01.093.02.139 0 .049 0 .1.01.148l.06.186.03.092c.03.068.06.13.1.192.01.021.02.044.04.064.05.073.1.14.16.202.01.007.01.016.02.023v.002c0 .002.01.004.01.006l12.49 12.492c.29.293.68.439 1.06.439s.77-.146 1.06-.439c.59-.586.59-1.536 0-2.121l-9.97-9.972c4.42-.037 12.13-.093 18.44-.093 2.29 0 4.1.665 5.39 1.977 2.41 2.454 2.36 6.45 2.36 6.523v8c0 .829.67 1.5 1.5 1.5s1.5-.671 1.5-1.5v-7.962c0-.214.09-5.269-3.2-8.643z" clip-rule="evenodd"/></svg>