<svg xmlns="http://www.w3.org/2000/svg" viewBox="0 0 37 32"><path fill-rule="evenodd" d="M1.848.821c-.829 0-1.5.663-1.5 1.482v27.633a1.49 1.49 0 0 0 1.5 1.481c.828 0 1.5-.664 1.5-1.481V2.303c0-.819-.672-1.482-1.5-1.482zm31.026 16.358L14.06 28.251c-.742.386-1.399.466-1.804.218-.448-.273-.716-1.009-.716-1.969V5.75c0-1.026.309-1.793.849-2.102.189-.107.411-.162.659-.162.428 0 .932.16 1.473.478l18.059 9.964c.771.386 1.234.969 1.271 1.597.036.618-.343 1.235-.977 1.654zm1.103-5.906L16.005 1.357C14.233.315 12.372.201 10.899 1.045c-1.5.857-2.359 2.572-2.359 4.705V26.5c0 2.077.766 3.687 2.158 4.532a3.981 3.981 0 0 0 2.1.578c.852 0 1.768-.243 2.713-.734l18.947-11.15c1.594-1.048 2.487-2.684 2.388-4.375-.099-1.703-1.191-3.237-2.869-4.078z" clip-rule="evenodd"/></svg>