<svg xmlns="http://www.w3.org/2000/svg" viewBox="0 0 40 40"><path fill-rule="evenodd" d="M19.89 17.555c-1.82-.153-4-.763-4.04-2.809-.02-.845.4-1.46.76-1.828.77-.787 2-1.238 3.37-1.238 2.58 0 3.75 1.44 3.75 2.778 0 .829.67 1.5 1.5 1.5s1.5-.671 1.5-1.5c0-2.525-1.8-5.076-5.24-5.655V7.439a1.5 1.5 0 10-3 0V8.81c-1.58.271-3 .968-4.02 2.009-1.08 1.101-1.65 2.518-1.62 3.991.07 3.24 2.61 5.384 6.84 5.738 2.81.143 4.71 1.561 4.62 3.449-.08 1.736-1.86 2.997-4.22 2.997-2.3 0-4.61-1.003-4.61-3.244 0-.829-.67-1.5-1.5-1.5s-1.5.671-1.5 1.5c0 3.222 2.4 5.592 6.01 6.128v1.645c0 .829.67 1.5 1.5 1.5s1.5-.671 1.5-1.5v-1.635c3.31-.502 5.67-2.765 5.81-5.751.15-3.075-2.37-6.325-7.41-6.582zm-.21 18.572c-9.07 0-16.45-7.378-16.45-16.448 0-9.071 7.38-16.45 16.45-16.45s16.45 7.379 16.45 16.45c0 9.07-7.38 16.448-16.45 16.448zm0-35.898C8.95.229.23 8.955.23 19.679c0 10.724 8.72 19.448 19.45 19.448 10.72 0 19.45-8.724 19.45-19.448S30.4.229 19.68.229z" clip-rule="evenodd"/></svg>