<svg xmlns="http://www.w3.org/2000/svg" viewBox="0 0 39 38"><path fill-rule="evenodd" d="M15.85 27.44c3.315 0 6.322-1.33 8.52-3.49.003 0 .004-.01.007-.01.005 0 .012-.01.017-.01a12.143 12.143 0 0 0 3.633-8.66c0-6.72-5.463-12.18-12.177-12.18-6.714 0-12.177 5.46-12.177 12.18 0 6.71 5.463 12.17 12.177 12.17zm0-27.35c8.368 0 15.177 6.81 15.177 15.18 0 3.68-1.321 7.06-3.51 9.69l10.351 10.35a1.498 1.498 0 0 1-1.061 2.56c-.384 0-.767-.15-1.06-.44L25.378 27.06a15.098 15.098 0 0 1-9.528 3.38C7.481 30.44.673 23.63.673 15.27.673 6.9 7.481.09 15.85.09z" clip-rule="evenodd"/></svg>