<svg xmlns="http://www.w3.org/2000/svg" viewBox="0 0 38 38"><path fill-rule="evenodd" d="M34.171 11.37a1.496 1.496 0 0 0-2.112.11 1.502 1.502 0 0 0 .102 2.117c.025.022 2.438 2.262 2.529 5.316.057 1.916-.817 3.817-2.598 5.652a1.5 1.5 0 1 0 2.152 2.09c2.379-2.45 3.538-5.097 3.444-7.869-.148-4.34-3.379-7.293-3.517-7.416zm-9.337 22.256c.004.882-.195 1.216-.266 1.264-.117.079-.529.04-.756-.052-2.644-1.254-9.78-4.675-11.04-5.432-.835-.5-.817-.924-.783-1.767.007-.159.012-.309.012-.451-.003-.931 0-16.161 0-16.161v-.005c-.002-.588.433-.928.54-1.002 1.229-.583 7.763-4.165 10.757-6.056.564-.353.998-.355 1.217-.235.278.151.325.536.329.775.017.694-.001 21.252-.01 29.122zM9 26.423H3.23V12.298h5.771C9 15.489 8.999 23.791 9 26.423zm16.946-25.33C24.7.416 23.113.539 21.7 1.425c-3.183 2.011-9.838 5.617-10.452 5.888-.049.02-.097.043-.143.07-.519.288-1.267.943-1.717 1.915H1.73a1.5 1.5 0 0 0-1.5 1.5v17.125a1.5 1.5 0 0 0 1.5 1.5h7.432c.245.862.805 1.801 2.067 2.556 1.642.986 10.903 5.382 11.338 5.589.127.055.868.361 1.781.361.59 0 1.253-.128 1.868-.533 1.081-.71 1.626-1.983 1.618-3.774.003-2.917.03-28.515.009-29.187-.023-1.46-.732-2.709-1.897-3.342z" clip-rule="evenodd"/></svg>