<svg xmlns="http://www.w3.org/2000/svg" viewBox="0 0 40 40"><path fill-rule="evenodd" d="M21.7 21.56l-6.44 1.97 3.66-5.38 6.64-1.89-3.86 5.3zm7.22-9.37l-11.35 3.23c-.34.09-.63.3-.83.6l-6.35 9.35c-.36.52-.34 1.22.03 1.73.29.39.74.61 1.21.61.15 0 .29-.02.44-.07l10.98-3.36c.32-.09.59-.29.78-.55l6.72-9.22c.37-.51.38-1.21.02-1.74-.37-.52-1.03-.76-1.65-.58zm2.82 19.55c-6.4 6.4-16.81 6.4-23.21 0-6.39-6.4-6.39-16.8 0-23.2 3.1-3.1 7.22-4.81 11.6-4.81 4.39 0 8.51 1.71 11.61 4.81 6.39 6.4 6.39 16.8 0 23.2zm2.12-25.32A19.28 19.28 0 0020.13.73c-5.18 0-10.05 2.02-13.72 5.69-7.56 7.56-7.56 19.88 0 27.44 3.79 3.79 8.75 5.68 13.72 5.68 4.97 0 9.95-1.89 13.73-5.68 7.56-7.56 7.56-19.88 0-27.44z" clip-rule="evenodd"/></svg>