<svg width="45" height="45" viewBox="0 0 45 45" fill="none" xmlns="http://www.w3.org/2000/svg">
<path fill-rule="evenodd" clip-rule="evenodd" d="M40.617,36.305 C40.617,38.684 38.681,40.617 36.302,40.617 L8.695,40.617 C6.316,40.617 4.383,38.684 4.383,36.305 L4.383,17.883 L11.1,17.883 C10.519,19.31 10.195,20.868 10.195,22.5 C10.195,29.284 15.715,34.805 22.5,34.805 C29.284,34.805 34.805,29.284 34.805,22.5 C34.805,20.868 34.476,19.31 33.897,17.883 L40.617,17.883 L40.617,36.305 Z M16.079,17.883 C17.52,15.888 19.857,14.581 22.5,14.581 C25.143,14.581 27.48,15.888 28.922,17.883 C29.859,19.184 30.422,20.778 30.422,22.5 C30.422,26.865 26.865,30.419 22.5,30.419 C18.132,30.419 14.579,26.865 14.579,22.5 C14.579,20.778 15.141,19.184 16.079,17.883 Z M38.798,5.188 L39.79,5.183 L39.79,12.809 L32.191,12.834 L32.164,5.208 L38.798,5.188 Z M36.302,0 L8.695,0 C3.9,0 0,3.9 0,8.695 L0,36.305 C0,41.1 3.9,45 8.695,45 L36.302,45 C41.097,45 45,41.1 45,36.305 L45,8.695 C45,3.9 41.097,0 36.302,0 Z" id="Fill-1" fill="#1A1919"/>
</svg>
