<svg xmlns="http://www.w3.org/2000/svg" viewBox="0 0 39 39"><path fill-rule="evenodd" d="M26.532 17.768h-5.333v-5.333a1.5 1.5 0 1 0-3 0v5.333h-5.333a1.5 1.5 0 1 0 0 3h5.333v5.333a1.5 1.5 0 1 0 3 0v-5.333h5.333a1.5 1.5 0 1 0 0-3zm4.657 12.99a16.139 16.139 0 0 1-11.49 4.76c-4.341 0-8.421-1.69-11.491-4.76a16.143 16.143 0 0 1-4.759-11.49c0-4.341 1.69-8.421 4.759-11.491a16.201 16.201 0 0 1 11.491-4.752c4.161 0 8.322 1.584 11.49 4.752 6.336 6.336 6.336 16.645 0 22.981zm2.122-25.102c-7.506-7.506-19.718-7.506-27.224 0A19.124 19.124 0 0 0 .449 19.268a19.12 19.12 0 0 0 5.638 13.611 19.12 19.12 0 0 0 13.612 5.639 19.12 19.12 0 0 0 13.612-5.639c7.505-7.505 7.505-19.717 0-27.223z" clip-rule="evenodd"/></svg>