<svg xmlns="http://www.w3.org/2000/svg" viewBox="0 0 40 38"><path fill-rule="evenodd" d="M12.452 12.21a1.83 1.83 0 10.002 3.658 1.83 1.83 0 00-.002-3.658zm8.361 0a1.83 1.83 0 000 3.66 1.83 1.83 0 000-3.66zm6.534 1.83a1.83 1.83 0 113.654-.002 1.83 1.83 0 01-3.654.002zm9.635 10.72c0 .1-.194.28-.5.28h-17.75c-.024 0-.046.01-.07.01a.833.833 0 00-.157.02.657.657 0 00-.139.02c-.048.02-.094.03-.14.05a.723.723 0 00-.139.05c-.041.02-.081.05-.121.07-.047.03-.091.06-.135.09-.018.01-.039.02-.056.04l-8.543 7.08v-5.93c0-.83-.671-1.5-1.5-1.5h-3.75c-.305 0-.5-.18-.5-.28V3.36c0-.1.195-.29.5-.29h32.5c.306 0 .5.19.5.29v21.4zm-.5-24.69h-32.5c-1.929 0-3.5 1.48-3.5 3.29v21.4c0 1.81 1.571 3.28 3.5 3.28h2.25v7.63c0 .58.336 1.11.863 1.36a1.49 1.49 0 001.595-.21l10.583-8.78h17.209c1.93 0 3.5-1.47 3.5-3.28V3.36c0-1.81-1.57-3.29-3.5-3.29z" clip-rule="evenodd"/></svg>