<svg width="40" height="41" viewBox="0 0 40 41" fill="none" xmlns="http://www.w3.org/2000/svg">
<path fill-rule="evenodd" clip-rule="evenodd" d="M23.21 37.51C25.083 34.61 27.489 29.53 27.886 22.29H36.338C35.696 29.86 30.271 36.02 23.21 37.51ZM3.46902 22.29H12.029C12.419 29.65 14.717 34.64 16.551 37.5C9.51302 36 4.10902 29.84 3.46902 22.29ZM16.452 4.11998C14.527 7.00998 12.164 12.03 11.991 19.29H3.46902C4.10502 11.79 9.46302 5.65998 16.452 4.11998ZM14.984 19.29C15.19 11.47 18.258 6.55998 19.898 4.48998C21.561 6.58998 24.688 11.56 24.928 19.29H14.984ZM19.887 37.03C18.318 34.93 15.491 30.11 15.034 22.29H24.882C24.417 29.9 21.487 34.86 19.887 37.03ZM36.338 19.29H27.92C27.718 12.11 25.282 7.02998 23.331 4.10998C30.332 5.63998 35.7 11.78 36.338 19.29ZM19.921 0.72998C19.918 0.72998 19.915 0.72998 19.912 0.72998C19.909 0.72998 19.906 0.72998 19.903 0.72998C9.14602 0.72998 0.39502 9.72998 0.39502 20.79C0.39502 31.86 9.14602 40.86 19.903 40.86C30.66 40.86 39.411 31.86 39.411 20.79C39.411 9.73998 30.67 0.73998 19.921 0.72998Z" fill="#1A1919"/>
</svg>
