<svg xmlns="http://www.w3.org/2000/svg" viewBox="0 0 39 40"><path fill-rule="evenodd" d="M25.248 14.465l-8.992 8.88-2.45-2.801a1.5 1.5 0 00-2.258 1.976l3.5 4a1.5 1.5 0 001.074.511l.055.001c.394 0 .773-.155 1.054-.432l10.125-10a1.501 1.501 0 00-2.108-2.135zm-5.915 21.817c-8.961 0-16.25-7.289-16.25-16.25 0-8.96 7.289-16.25 16.25-16.25 8.96 0 16.25 7.29 16.25 16.25 0 8.961-7.29 16.25-16.25 16.25zm0-35.5C8.718.782.083 9.418.083 20.032s8.635 19.25 19.25 19.25c10.614 0 19.25-8.636 19.25-19.25S29.947.782 19.333.782z" clip-rule="evenodd"/></svg>