<svg width="29" height="44" viewBox="0 0 29 44" fill="none" xmlns="http://www.w3.org/2000/svg">
<path fill-rule="evenodd" clip-rule="evenodd" d="M14.48 39.05C16.11 39.05 17.44 37.73 17.44 36.1C17.44 34.47 16.11 33.15 14.48 33.15C12.86 33.15 11.53 34.47 11.53 36.1C11.53 37.73 12.86 39.05 14.48 39.05ZM25.08 28.73H3.07996V3.53003C3.07996 3.25003 3.30996 3.03003 3.57996 3.03003H24.58C24.86 3.03003 25.08 3.25003 25.08 3.53003V28.73ZM25.08 40.11C25.08 40.38 24.86 40.61 24.58 40.61H3.57996C3.30996 40.61 3.07996 40.38 3.07996 40.11V31.73H25.08V40.11ZM24.58 0.0300293H3.57996C1.64996 0.0300293 0.0799561 1.60003 0.0799561 3.53003V40.11C0.0799561 42.04 1.64996 43.61 3.57996 43.61H24.58C26.51 43.61 28.08 42.04 28.08 40.11V3.53003C28.08 1.60003 26.51 0.0300293 24.58 0.0300293Z" fill="#1A1919"/>
</svg>
