<svg width="22" height="35" viewBox="0 0 22 35" fill="none" xmlns="http://www.w3.org/2000/svg">
<path fill-rule="evenodd" clip-rule="evenodd" d="M13.062 29.403L19.2461 19.387C19.8271 18.796 20.7761 18.787 21.3681 19.367C21.9591 19.949 21.9671 20.898 21.3881 21.489L12.664 34.093C12.383 34.379 12 34.541 11.6 34.542C11.2 34.544 10.815 34.386 10.532 34.103L1.23894 21.478C0.945944 21.185 0.799944 20.801 0.799944 20.417C0.799944 20.034 0.945944 19.65 1.23894 19.357C1.82494 18.771 2.77494 18.771 3.35994 19.357L10.062 29.391L10.062 2.31297C10.062 1.48497 10.734 0.812973 11.562 0.812973C12.391 0.812973 13.062 1.48497 13.062 2.31297L13.062 29.403Z" fill="#1A1919"/>
</svg>
