<svg width="50" height="50" viewBox="0 0 50 50" fill="none" xmlns="http://www.w3.org/2000/svg">
<path fill-rule="evenodd" clip-rule="evenodd" d="M50 25C50 38.8071 38.8071 50 25 50C11.1929 50 0 38.8071 0 25C0 11.1929 11.1929 0 25 0C38.8071 0 50 11.1929 50 25ZM9 24.5C9 19.2533 13.2533 15 18.5 15H31.5C36.7467 15 41 19.2533 41 24.5C41 29.7467 36.7467 34 31.5 34H18.5C13.2533 34 9 29.7467 9 24.5ZM13 24.5C13 22.567 14.567 21 16.5 21H33.5C35.433 21 37 22.567 37 24.5C37 26.433 35.433 28 33.5 28H16.5C14.567 28 13 26.433 13 24.5Z" fill="#1A1919"/>
</svg>
