<svg width="32" height="42" viewBox="0 0 32 42" fill="none" xmlns="http://www.w3.org/2000/svg">
<path fill-rule="evenodd" clip-rule="evenodd" d="M29.676 38.032H1.67603C0.848025 38.032 0.176025 38.704 0.176025 39.532C0.176025 40.361 0.848025 41.032 1.67603 41.032H29.676C30.505 41.032 31.176 40.361 31.176 39.532C31.176 38.704 30.505 38.032 29.676 38.032Z" fill="#1A1919"/>
<path fill-rule="evenodd" clip-rule="evenodd" d="M4.14801 15.456L14.183 5.42201V32.499C14.183 33.328 14.854 33.999 15.683 33.999C16.512 33.999 17.183 33.328 17.183 32.499V5.40901L27.013 15.425C27.593 16.017 28.543 16.025 29.134 15.445C29.726 14.864 29.733 13.914 29.154 13.324L16.784 0.719008C16.503 0.434008 16.12 0.272008 15.72 0.270008C15.32 0.268008 14.936 0.426008 14.652 0.709008L2.02701 13.334C1.73401 13.627 1.58801 14.011 1.58801 14.395C1.58801 14.779 1.73401 15.163 2.02701 15.456C2.61301 16.042 3.56301 16.042 4.14801 15.456Z" fill="#1A1919"/>
</svg>
