<svg width="45" height="26" viewBox="0 0 45 26" fill="none" xmlns="http://www.w3.org/2000/svg">
<path fill-rule="evenodd" clip-rule="evenodd" d="M22.58 19.38C18.79 19.51 16.08 22.45 15.97 22.57C15.42 23.19 15.46 24.13 16.08 24.69C16.36 24.95 16.72 25.08 17.08 25.08C17.49 25.08 17.9 24.91 18.19 24.59C18.21 24.57 20.18 22.47 22.68 22.38C25.52 22.3 27.42 24.48 27.43 24.5C27.96 25.14 28.9 25.23 29.54 24.7C30.18 24.18 30.27 23.23 29.75 22.59C29.63 22.46 26.91 19.19 22.58 19.38Z" fill="#1A1919"/>
<path fill-rule="evenodd" clip-rule="evenodd" d="M23.18 9.88C13.82 9.88 8.49003 16.32 8.27003 16.6C7.75003 17.24 7.84003 18.19 8.49003 18.71C9.13003 19.23 10.08 19.13 10.6 18.49C10.64 18.43 15.24 12.88 23.18 12.88C31.02 12.88 35.05 18.21 35.22 18.43C35.51 18.83 35.97 19.04 36.43 19.04C36.74 19.04 37.05 18.95 37.32 18.75C37.99 18.27 38.13 17.33 37.64 16.66C37.44 16.38 32.59 9.88 23.18 9.88Z" fill="#1A1919"/>
<path fill-rule="evenodd" clip-rule="evenodd" d="M44.23 10C43.94 9.6 37.04 0.299995 22.95 0.129995C22.82 0.129995 22.7 0.119995 22.57 0.119995C8.73001 0.119995 1.30001 9.56 0.990009 9.96C0.490009 10.62 0.610009 11.56 1.27001 12.06C1.92001 12.57 2.87001 12.45 3.37001 11.79C3.44001 11.7 10.19 3.12 22.58 3.12C22.69 3.12 22.8 3.12 22.91 3.13C35.45 3.28 41.55 11.41 41.8 11.76C42.09 12.16 42.55 12.38 43.02 12.38C43.32 12.38 43.63 12.28 43.89 12.09C44.57 11.6 44.72 10.67 44.23 10Z" fill="#1A1919"/>
</svg>
