<svg id="Layer_1" data-name="Layer 1" xmlns="http://www.w3.org/2000/svg" viewBox="0 0 256 256"><title>Artboard 2</title><path d="M217.265,34.032s19.242,18.153,14.885,27.23c0,0-95.852,49.739-99.3,79.329-2.7,7.773-19.874,7.681-19.165-8.615C114.9,104.143,192.885,44.8,217.265,34.032Z" style="fill:#ffc855;fill-rule:evenodd"/><path d="M23.207,221.917S72.583,192.873,93.1,147.308c0,0,14.4-7.729,20.573-14.72-.255,15.683,16.512,15.676,19.182,8,0,0,.544,13.252,7.261,22.51,0,0-11.073.907-46.835,30.5S45.535,222.1,23.207,221.917Z" style="fill:#e5e5e5;fill-rule:evenodd"/><path d="M217.265,34.032s19.243,18.153,14.887,27.23c0,0-95.852,49.739-99.3,79.329-1.967,5.655-11.592,7.145-16.417,1.26,4.985,2.386,11.394.521,12.959-3.976,3.448-29.59,99.3-79.329,99.3-79.329,3.271-6.815-6.761-18.745-11.964-24.268C216.907,34.2,217.092,34.108,217.265,34.032Z" style="fill:#f6b236;fill-rule:evenodd"/><circle cx="125.048" cy="128.97" r="2.952" transform="translate(-54.57 126.209) rotate(-45.004)" style="fill:#e5e5e5"/><circle cx="210.868" cy="54.86" r="6.419" transform="translate(22.971 165.176) rotate(-45.001)" style="fill:#e5e5e5"/><path d="M208.984,52.853a6.423,6.423,0,0,1,7.457-1.18,6.419,6.419,0,1,0-8.491,8.908A6.425,6.425,0,0,1,208.984,52.853Z" style="fill:#cac9c9;fill-rule:evenodd"/><path d="M124.261,128.092a2.955,2.955,0,0,1,3.355-.579,2.953,2.953,0,1,0-3.836,4.124A2.956,2.956,0,0,1,124.261,128.092Z" style="fill:#cac9c9;fill-rule:evenodd"/><path d="M84.292,187.517c-19.88,20.787-46.8,24.643-46.8,24.643-8.469,6.335-14.285,9.756-14.285,9.756,22.329.183,34.31,1.272,70.071-28.318s46.835-30.5,46.835-30.5a36.4,36.4,0,0,1-5.122-10.759C125.15,153.2,104.17,166.73,84.292,187.517Z" style="fill:#cac9c9;fill-rule:evenodd"/></svg>