<svg id="Layer_1" data-name="Layer 1" xmlns="http://www.w3.org/2000/svg" viewBox="0 0 256 256"><title>Artboard 12</title><path d="M123.245,102.291s9.94,13.529,33.132,17.671c0,0,8.559-6.074,8.007-8.559s-8.007-10.768.138-16.7S194.2,71.92,204.832,53.008c0,0,4.694-9.387,8.076-6.971s8.421,4.693,10.906-2.485-3.589-28.715-24.573-16.842S134.772,92.835,123.245,102.291Z" style="fill:#8bc65a;fill-rule:evenodd"/><path d="M124.835,104.13,31.663,205.8l2.061,26.995L151.5,118.91v0C136.633,115.138,128.121,107.608,124.835,104.13Z" style="fill:#e5e5e5;fill-rule:evenodd"/><polygon points="127.595 123.788 33.046 223.915 33.723 232.793 142.024 128.068 127.595 123.788" style="fill:#cac9c9;fill-rule:evenodd"/><path d="M218.08,25.746c3.224,4.75,3.932,11.24,2.771,14.595-2.485,7.178-7.524,4.9-10.906,2.485s-8.077,6.971-8.077,6.971C191.24,68.71,169.7,85.552,161.558,91.488s-.69,14.22-.138,16.7-8.007,8.558-8.007,8.558c-15.985-2.855-25.674-10.168-30.153-14.438a22.762,22.762,0,0,0,1.574,1.817c3.288,3.479,11.8,11.011,26.661,14.78q2.335.592,4.881,1.051s8.559-6.074,8.007-8.558-8.007-10.768.138-16.7S194.2,71.92,204.832,53.008c0,0,4.694-9.387,8.077-6.971s8.421,4.693,10.906-2.485C225.271,39.342,223.786,30.2,218.08,25.746Z" style="fill:#6dbc45;fill-rule:evenodd"/></svg>