<svg id="Layer_1" data-name="Layer 1" xmlns="http://www.w3.org/2000/svg" viewBox="0 0 256 256"><title>Artboard 3</title><path d="M91.028,131.362S52.867,175.238,24.7,232.785c0,0,26.937,1.224,49.589-25.916s32.038-42.65,35.1-44.9l-.2-5.3,8.208-6.807c-7.327-3.082-15.2-9.673-21.574-14.315a21.007,21.007,0,0,1-4.533-4.28Z" style="fill:#e5e5e5;fill-rule:evenodd"/><path d="M95.823,135.547c8.038,5.853,18.464,14.809,27.168,15.914,8.793,1.115,10.434-3.737,6.5-11.22,0,0-24.08-6.735-30.508-19.081C93.658,118.738,82.468,125.823,95.823,135.547Z" style="fill:#6ab4e4;fill-rule:evenodd"/><circle cx="208.522" cy="44.417" r="6.632" transform="translate(29.663 160.451) rotate(-44.998)" style="fill:#e5e5e5"/><path d="M203.833,49.107a6.631,6.631,0,1,1,9.379,0A6.632,6.632,0,0,1,203.833,49.107Zm7.392-25.9C165.106,33,98.985,121.16,98.985,121.16c6.429,12.346,30.509,19.081,30.509,19.081,6.837-17.652,26.428-22.958,26.428-22.958,17.347-43.058,64.485-57.14,70.2-57.957s6.939-8.162,2.448-19.182S211.225,23.206,211.225,23.206Z" style="fill:#6ab4e4;fill-rule:evenodd"/><path d="M101,118.531c-1.3,1.684-2.014,2.628-2.014,2.628,6.429,12.346,30.509,19.081,30.509,19.081.382-.986.806-1.932,1.262-2.842h0c7.705-15.385,25.169-20.115,25.169-20.115,17.347-43.058,64.485-57.14,70.2-57.957s6.939-8.162,2.448-19.182a28.211,28.211,0,0,0-6.776-9.564,25.53,25.53,0,0,1,3.813,6.353c4.491,11.021,3.266,18.368-2.448,19.182s-52.853,14.9-70.2,57.957c-17.429,4.72-27.706,30.3-51.874,4.494Z" style="fill:#4aa2d9;fill-rule:evenodd"/><path d="M206.488,42.631a6.634,6.634,0,0,1,8.036-1.037,6.631,6.631,0,1,0-9.349,8.55A6.635,6.635,0,0,1,206.488,42.631Z" style="fill:#cac9c9;fill-rule:evenodd"/><path d="M126.636,139.34c2.583,6.29.483,10.166-7.473,9.156-8.113-1.029-17.718-8.877-25.494-14.679.633.566,1.349,1.143,2.155,1.729,6.374,4.642,14.248,11.233,21.575,14.315a21.6,21.6,0,0,0,5.593,1.6c8.794,1.116,10.434-3.737,6.5-11.22C129.494,140.241,128.408,139.937,126.636,139.34Z" style="fill:#4aa2d9;fill-rule:evenodd"/><path d="M74.293,206.869c22.653-27.141,32.039-42.65,35.1-44.9l-19.217-5.96c-30.759,45.013-58.664,63.463-58.664,63.463q-3.473,6.513-6.807,13.31S51.643,234.009,74.293,206.869Z" style="fill:#cac9c9;fill-rule:evenodd"/></svg>