<svg xmlns="http://www.w3.org/2000/svg" data-name="Layer 1" viewBox="0 0 256 256"><path fill="#e5e5e5" fill-rule="evenodd" d="M91.028 131.362S52.867 175.238 24.7 232.785c0 0 26.937 1.224 49.589-25.916s32.038-42.65 35.1-44.9l-.2-5.3 8.208-6.807c-7.327-3.082-15.2-9.673-21.574-14.315a21.007 21.007 0 01-4.533-4.28z"/><path fill="#6ab4e4" fill-rule="evenodd" d="M95.823 135.547c8.038 5.853 18.464 14.809 27.168 15.914 8.793 1.115 10.434-3.737 6.5-11.22 0 0-24.08-6.735-30.508-19.081-5.325-2.422-16.515 4.663-3.16 14.387z"/><circle cx="208.522" cy="44.417" r="6.632" fill="#e5e5e5" transform="rotate(-44.998 208.523 44.417)"/><path fill="#6ab4e4" fill-rule="evenodd" d="M203.833 49.107a6.631 6.631 0 119.379 0 6.632 6.632 0 01-9.379 0zm7.392-25.9C165.106 33 98.985 121.16 98.985 121.16c6.429 12.346 30.509 19.081 30.509 19.081 6.837-17.652 26.428-22.958 26.428-22.958 17.347-43.058 64.485-57.14 70.2-57.957s6.939-8.162 2.448-19.182-17.345-16.938-17.345-16.938z"/><path fill="#4aa2d9" fill-rule="evenodd" d="M101 118.531a374.209 374.209 0 00-2.014 2.628c6.429 12.346 30.509 19.081 30.509 19.081.382-.986.806-1.932 1.262-2.842 7.705-15.385 25.169-20.115 25.169-20.115 17.347-43.058 64.485-57.14 70.2-57.957s6.939-8.162 2.448-19.182a28.211 28.211 0 00-6.776-9.564 25.53 25.53 0 013.813 6.353c4.491 11.021 3.266 18.368-2.448 19.182s-52.853 14.9-70.2 57.957c-17.429 4.72-27.706 30.3-51.874 4.494z"/><path fill="#cac9c9" fill-rule="evenodd" d="M206.488 42.631a6.634 6.634 0 018.036-1.037 6.631 6.631 0 10-9.349 8.55 6.635 6.635 0 011.313-7.513z"/><path fill="#4aa2d9" fill-rule="evenodd" d="M126.636 139.34c2.583 6.29.483 10.166-7.473 9.156-8.113-1.029-17.718-8.877-25.494-14.679a27.433 27.433 0 002.155 1.729c6.374 4.642 14.248 11.233 21.575 14.315a21.6 21.6 0 005.593 1.6c8.794 1.116 10.434-3.737 6.5-11.22.002 0-1.084-.304-2.856-.901z"/><path fill="#cac9c9" fill-rule="evenodd" d="M74.293 206.869c22.653-27.141 32.039-42.65 35.1-44.9l-19.217-5.96c-30.759 45.013-58.664 63.463-58.664 63.463q-3.473 6.513-6.807 13.31s26.938 1.227 49.588-25.913z"/></svg>