<svg xmlns="http://www.w3.org/2000/svg" data-name="Layer 1" viewBox="0 0 256 256"><path fill="#e5e5e5" fill-rule="evenodd" d="M23.207 228.882s15.527-28.535 16.786-33.151 20.562-26.017 20.562-26.017 31.682-35.879 35.039-43.432a6.641 6.641 0 01.713-1.22c1.919 5.5 7.79 17.1 23.415 18.216 0 0-9.651 10.91-2.518 20.981-23.153 23.153-60.225 59.489-93.997 64.623z"/><path fill="#6ab4e4" fill-rule="evenodd" d="M95.488 122.19s3.672 19.619 24.234 21.087c0 0 7.763-10.072 22.45-7.554 0 0-1.154-31.577 49.2-60.951 16.7-9.744 27.013-15.309 33.216-18.817 25.256-14.281-14.981-33.109-24.614-27.972-6.292 3.357-69.027 45.111-104.486 94.207z"/><circle cx="115.307" cy="123.892" r="5.737" fill="#e5e5e5"/><path fill="#cac9c9" fill-rule="evenodd" d="M112.32 126.726a5.739 5.739 0 018.227-5.17 5.738 5.738 0 10-7.732 7.505 5.711 5.711 0 01-.495-2.335z"/><path fill="#4aa2d9" fill-rule="evenodd" d="M137.233 132.018c-14.687-2.518-22.45 7.553-22.45 7.553a26.8 26.8 0 01-11.466-3.318 25.407 25.407 0 0016.405 7.023s7.763-10.071 22.45-7.554c0 0-1.154-31.576 49.2-60.951 16.7-9.743 27.013-15.309 33.216-18.817 13.713-7.754 8.119-16.848-1.4-22.72 6.017 5.608 7.543 12.749-3.538 19.015-6.2 3.508-16.512 9.074-33.216 18.817-50.355 29.376-49.201 60.952-49.201 60.952z"/><path fill="#cac9c9" fill-rule="evenodd" d="M111.739 169.7c-11.551-8.2-25.167-10.9-37.966 1.063S38.259 199.9 38.259 199.9c-4.356 9.324-15.052 28.98-15.052 28.98 31.227-4.745 65.274-36.168 88.532-59.18z"/></svg>