<svg xmlns="http://www.w3.org/2000/svg" data-name="Layer 1" viewBox="0 0 256 256"><path fill="#e5e5e5" fill-rule="evenodd" d="M53.007 232.793s-44.1-26.172-6.453-64.536 41.949-34.779 57.007-53.422c-1.971 8.784 6.992 15.6 11.317 15.54l-.92 11.35-7.53.358s-58.082 58.084-53.421 90.71z"/><path fill="#f06257" fill-rule="evenodd" d="M103.561 114.835c40.965-30.643 54.093-49.18 83.321-79.809 28.3-29.654 48.857 3.265 31.231 24.774-21.154 25.814-98.909 70.519-103.235 70.575s-13.288-6.756-11.317-15.54z"/><circle cx="206.251" cy="41.645" r="6.338" fill="#e5e5e5" transform="rotate(-45.001 206.25 41.646)"/><path fill="#cac9c9" fill-rule="evenodd" d="M204.248 40.381a6.342 6.342 0 018-.792 6.338 6.338 0 10-9.515 7.331 6.34 6.34 0 011.515-6.539z"/><path fill="#e5e5e5" fill-rule="evenodd" d="M133.629 120.822a31.546 31.546 0 01-14.265-18.3 483.697 483.697 0 01-15.8 12.318c-1.971 8.784 6.993 15.6 11.317 15.54 1.237-.021 8.507-3.704 18.748-9.558z"/><path fill="#cac9c9" fill-rule="evenodd" d="M106.429 142.084l-11.918-6.006c-64.357 60.054-41.5 96.715-41.5 96.715-4.665-32.626 53.418-90.709 53.418-90.709zM130.419 118.658c-8.8 4.952-14.908 8-16.035 8.012-3.307.043-9.328-3.931-11.1-9.732-.27 7.744 7.617 13.488 11.589 13.437 1.239-.016 8.51-3.7 18.75-9.553a31.437 31.437 0 01-3.204-2.164z"/><path fill="#ed4637" fill-rule="evenodd" d="M215.15 57.577c-15.129 18.461-59.205 46.583-84.67 61.127a31.29 31.29 0 003.149 2.117c25.493-14.575 69.393-42.606 84.485-61.022 10.319-12.593 7.551-29.1-2.2-34.664 7.239 6.942 8.417 21.239-.764 32.442z"/></svg>