<svg xmlns="http://www.w3.org/2000/svg" data-name="Layer 1" viewBox="0 0 256 256"><path fill="#e5e5e5" fill-rule="evenodd" d="M230.825 23.207s-1.4 19.747-14.028 33.451-50.719 50.5-50.719 50.5l-.415-.008c-2.927-2.957-8.725-8.747-10.16-9.7l.863-5.4s52.334-67.008 74.459-68.843z"/><path fill="#e5e5e5" fill-rule="evenodd" d="m153.781 122.9 13.593-14.011s-9.929-10.146-11.874-11.441c-1.91-1.273-6.43-7.243-17.563 11.551 9.877-1.378 16.594 5.061 15.844 13.901z"/><path fill="#ffc855" fill-rule="evenodd" d="M145.9 137.916c19.622-19.909-.379-41.589-24.5-20.4-5.953 5.232-69.213 60.229-90.065 85.7-17.4 21.256 6.007 37.989 21.218 25.015 14.681-12.513 93.347-90.315 93.347-90.315z"/><circle cx="43.076" cy="215.699" r="4.974" fill="#e5e5e5" transform="rotate(-45 43.077 215.7)"/><path fill="#cac9c9" fill-rule="evenodd" d="M40.6 220.017a4.976 4.976 0 0 1 6.987-6.407 4.974 4.974 0 1 0-6.987 6.407z"/><path fill="#f6b236" fill-rule="evenodd" d="M142.689 134.7s-78.666 77.8-93.342 90.32c-7.008 5.98-15.757 5.654-21.452 1.48 5.051 6.948 16.143 9 24.664 1.734 14.675-12.517 93.341-90.32 93.341-90.32 5.07-5.144 7.494-10.406 7.881-15.017.43-5.062-1.59-9.337-5.249-11.807 3.768 5.636 2.846 14.799-5.843 23.61z"/><path fill="#cac9c9" fill-rule="evenodd" d="m164.553 106.035-11.264 11.61a14.022 14.022 0 0 1 .491 5.254l13.593-14.011s-.677-.691-1.711-1.736c-.335-.339-.708-.715-1.109-1.117z"/><path fill="#cac9c9" fill-rule="evenodd" d="M161.331 102.829a436.98 436.98 0 0 1 4.331 4.323l.415.008s38.093-36.8 50.718-50.5a51.162 51.162 0 0 0 9.6-15.62s-41.038 26.582-65.064 61.789z"/></svg>