<svg xmlns="http://www.w3.org/2000/svg" data-name="Layer 1" viewBox="0 0 256 256"><path fill="#e5e5e5" fill-rule="evenodd" d="M73.573 150.439c4.465-5.061 10.539-7 13.568-4.325s1.865 8.942-2.6 14-10.54 7-13.569 4.322-1.865-8.936 2.601-13.997zm-49.8 82.355s-1.62-18.328 12.068-36.194 25.287-42.92 29.7-57.538a65.918 65.918 0 0019.881-14.1c-.444 2.435.385 6.146 4.941 11.549 6.376 7.563 13.746 12.612 21.2 14.182l.835 7.858s-41.061 57.77-88.621 74.242z"/><path fill="#cac9c9" fill-rule="evenodd" d="M111.814 150.013a29.833 29.833 0 01-8.511-3.3c-3 5.06-10.378 18.331-29.827 37.445s-46.763 29.518-46.763 29.518a51.491 51.491 0 00-2.935 19.116c47.56-16.472 88.625-74.242 88.625-74.242z"/><path fill="#8bc65a" fill-rule="evenodd" d="M88.275 120.966c-11.815 5.56 14.485 36.731 35.845 28.885 11.368-4.176 9.048-7.424 10.324-15.2s16.124-30.044 46.749-47.677C196.968 77.9 213.542 65.3 223.53 53.865c24.731-28.326-8.688-35.19-29.375-28.028-11.109 3.847-24.207 12.082-40.339 26.341-35.96 31.785-48.716 54.753-65.541 68.788z"/><path fill="#6dbc45" fill-rule="evenodd" d="M123.191 95.33c-3.248 3.713 23.46 19.368 23.461 19.368a136.817 136.817 0 0134.541-27.719 199.181 199.181 0 0033.88-24.531c1.866-7.364 7.416-28.366-18.8-25.35s-69.834 54.521-73.082 58.232z"/><path fill="#6dbc45" fill-rule="evenodd" d="M130 130.209c-1.276 7.773 1.043 11.02-10.324 15.2-9.5 3.49-19.978-.738-27.644-7q-.461-.375-.907-.761a43.077 43.077 0 008.334 7.436 40.743 40.743 0 003.535 2.16 32.8 32.8 0 008.86 3.331 22.107 22.107 0 0012.268-.722c11.368-4.176 9.049-7.423 10.324-15.2.633-3.858 4.613-11.291 12.208-19.956 0 0-2.277-1.335-5.421-3.317-6.964 8.18-10.633 15.139-11.233 18.829zM216.856 51.876a49.234 49.234 0 01-1.783 10.571 109.8 109.8 0 008.456-8.582c12-13.742 10.31-22.433 3.03-26.922 2.773 4.981 1.358 12.36-7.475 22.477q-1.066 1.22-2.228 2.456z"/><path fill="#5ab347" fill-rule="evenodd" d="M175.772 83.661a136.829 136.829 0 00-34.541 27.719c3.144 1.982 5.421 3.317 5.421 3.317a136.817 136.817 0 0134.541-27.719 199.181 199.181 0 0033.88-24.531 49.234 49.234 0 001.783-10.571c.169-5.791-1.484-11.811-8.682-14.107 16.568 18.023-20.49 39.031-32.402 45.892z"/><path fill="#cac9c9" fill-rule="evenodd" d="M72.355 165.275c-1.99-3.006-.645-8.548 3.38-13.107 3.861-4.376 8.925-6.416 12.182-5.16a4.5 4.5 0 00-.776-.894c-3.028-2.671-9.1-.736-13.568 4.325s-5.632 11.328-2.6 14a4.56 4.56 0 001.382.836z"/></svg>