<svg xmlns="http://www.w3.org/2000/svg" data-name="Layer 1" viewBox="0 0 256 256"><path fill="#e5e5e5" fill-rule="evenodd" d="M27.572 229.354s-10.5-22.928 1.071-35.354 51.212-58.069 57-69.855c0 0 .293-.516.853-1.447a11.243 11.243 0 0 0-.853 1.447c13.714 30 41.355 24.642 41.355 24.642l-5.571 6s-21.858 42.854-93.855 74.567z"/><path fill="#ffc855" fill-rule="evenodd" d="M127 148.786s-27.641 5.358-41.355-24.642c0 0 55.283-97.711 144.637-97.5 0 0 15 30-28.285 57-35.641-10.251-74.125 38.874-74.997 65.142z"/><circle cx="111.214" cy="126.311" r="6.212" fill="#e5e5e5"/><path fill="#cac9c9" fill-rule="evenodd" d="M114.4 123.3a6.2 6.2 0 0 1 2.51.528 6.214 6.214 0 1 0-8.2 8.174 6.216 6.216 0 0 1 5.694-8.7zM109.841 171.059c-16.3-16.3-26.352-18.922-26.352-18.922-14.571 16.286-59.14 49.4-59.14 49.4-3.835 12.4 3.223 27.815 3.223 27.815 43.993-19.376 69.266-42.914 82.269-58.293z"/><path fill="#f6b236" fill-rule="evenodd" d="M122.683 141.616a37.941 37.941 0 0 1-36.219-15.748C100.429 153.935 127 148.786 127 148.786c.874-26.268 39.359-75.393 75-65.142 43.285-27 28.286-57 28.286-57q-1.127 0-2.247.015c1.69 10.513-.03 30.9-30.353 49.813-35.645-10.25-74.129 38.876-75.003 65.144z"/></svg>