<svg id="Layer_1" data-name="Layer 1" xmlns="http://www.w3.org/2000/svg" viewBox="0 0 256 256"><title>Artboard 15</title><path d="M67.366,197.242c26.479.99,129.257-6.4,155.823-8.364,15.582-1.149,9.282-28.74,1.528-29.045-6.32-.249-26.35-.79-31.132,2.079-5.7,3.419-14.245,9.972-32.765,1.14-18.129-8.646-60.83,3.731-121.688-6.166C22.286,154.147,4.448,194.889,67.366,197.242Z" style="fill:#f06257;fill-rule:evenodd"/><circle cx="212.368" cy="174.314" r="6.946" style="fill:#e5e5e5"/><circle cx="37.498" cy="173.281" r="4.816" style="fill:#e5e5e5"/><path d="M42.314,173.281a4.816,4.816,0,1,1-4.816-4.816A4.816,4.816,0,0,1,42.314,173.281Zm8.84,22.246.021-36.932q-5.9-.717-12.044-1.709C23.932,154.415,7.926,187.339,51.154,195.527Z" style="fill:#e5e5e5;fill-rule:evenodd"/><path d="M37.191,171.324a4.818,4.818,0,0,1,4.725,3.878,4.816,4.816,0,1,0-9.143-.982A4.816,4.816,0,0,1,37.191,171.324Z" style="fill:#cac9c9;fill-rule:evenodd"/><path d="M51.157,189.106c-18.372-3.48-26.045-11.428-27.627-19.229-1.882,9.416,4.1,21.2,27.624,25.65Z" style="fill:#cac9c9;fill-rule:evenodd"/><path d="M51.157,189.106l0,6.422a109.412,109.412,0,0,0,16.213,1.714c26.479.99,129.257-6.4,155.823-8.363,8.241-.608,10.361-8.612,9.383-16.064-.76,5.047-3.526,9.21-9.379,9.642-26.566,1.96-129.344,9.353-155.822,8.363A109.4,109.4,0,0,1,51.157,189.106Z" style="fill:#ed4637;fill-rule:evenodd"/><path d="M212.368,172.152a6.95,6.95,0,0,1,6.523,4.555,6.946,6.946,0,1,0-13.046,0A6.948,6.948,0,0,1,212.368,172.152Z" style="fill:#cac9c9;fill-rule:evenodd"/><path d="M101.342,58.668S106.6,78.225,132.248,100.9s56.339,54.278,56.339,54.278l5.409,1.04s-2.765,4.026-1.693,6.481c.444-.272.871-.536,1.282-.783,4.6-2.758,23.284-2.363,30.336-2.109a1.057,1.057,0,0,0-.087-.186c-2.088-3.465-60.7-68.071-60.7-68.071S127.462,78.754,101.342,58.668Z" style="fill:#e5e5e5;fill-rule:evenodd"/><path d="M94.005,79.034s2.24,19.67-7.661,35.456c-6.215,9.911-20.626,30.6-30.494,44.637-5.409-.573-10.983-1.308-16.72-2.241a10.543,10.543,0,0,0-3.923.115C43.093,142.306,75.314,84.148,94.005,79.034Z" style="fill:#e5e5e5;fill-rule:evenodd"/><path d="M132.248,100.9c25.648,22.67,56.339,54.278,56.339,54.278l5.409,1.04,2.886-13.046c-30.655-22.281-95.54-84.5-95.54-84.5S106.6,78.225,132.248,100.9Z" style="fill:#cac9c9;fill-rule:evenodd"/><path d="M55.851,159.126C65.719,145.093,80.13,124.4,86.345,114.49A51.157,51.157,0,0,0,92.92,97.375s-28.409,26.953-46.682,60.579q2.49.344,4.937.641Q53.533,158.881,55.851,159.126Z" style="fill:#cac9c9;fill-rule:evenodd"/></svg>