<svg id="Layer_1" data-name="Layer 1" xmlns="http://www.w3.org/2000/svg" viewBox="0 0 256 256"><title>Artboard 16</title><path d="M30.862,45.069s32.508,11.347,69,11.04L193.4,84.63l-.285,3.291c-10.826-2.323-14.847,3.75-12.749,17.1.351,2.23-.336,5.071-1.92,8-8.338-2.605-19.111-6.424-26.14-10.608l-17.787,9.813S56.009,84.324,30.862,45.069Z" style="fill:#e5e5e5;fill-rule:evenodd"/><path d="M225.138,124.957s-1.248-10.919-4.779-19.7c-4.507-11.214-11.944-12.09-22.465-15.923-14.407-5.248-19.913.528-17.531,15.692,1.417,9.022-14.107,28.061-37.567,22.387,0,0-49.848,24.088-64.9,33.461-5.407,3.366-12.933,18.213-15.14,28.156-1.37,6.171.031,8.7,3.144,11.589,4.257,3.946,12,11.275,17.865,10.208C90.509,209.6,176.991,185.985,225.138,124.957Z" style="fill:#f06257;fill-rule:evenodd"/><circle cx="87.377" cy="186.327" r="9.959" style="fill:#e5e5e5"/><circle cx="192.458" cy="99.963" r="4.293" style="fill:#e5e5e5"/><path d="M81.135,191.819a9.96,9.96,0,0,1,15.881-8.007,9.96,9.96,0,1,0-15.56,10.522A9.983,9.983,0,0,1,81.135,191.819Z" style="fill:#cac9c9;fill-rule:evenodd"/><path d="M190.466,102.475a4.3,4.3,0,0,1,6.049-3.919,4.293,4.293,0,1,0-5.813,5.325A4.275,4.275,0,0,1,190.466,102.475Z" style="fill:#cac9c9;fill-rule:evenodd"/><path d="M220.2,118.535C172.052,179.563,85.569,203.177,78.823,204.4c-5.207.947-11.886-4.715-16.3-8.76a10.306,10.306,0,0,0,3.373,4.973c4.257,3.946,12,11.276,17.866,10.209,6.746-1.227,93.229-24.841,141.376-85.869,0,0-1.247-10.919-4.779-19.7a20.979,20.979,0,0,0-5.939-8.65q.522,1.041,1,2.228C218.952,107.616,220.2,118.535,220.2,118.535Z" style="fill:#ed4637;fill-rule:evenodd"/><path d="M30.862,45.069c25.147,39.255,103.655,67.161,103.655,67.161l12.325-6.8C98.822,96.818,30.862,45.069,30.862,45.069Z" style="fill:#cac9c9;fill-rule:evenodd"/></svg>