<svg id="Layer_1" data-name="Layer 1" xmlns="http://www.w3.org/2000/svg" viewBox="0 0 256 256"><title>Artboard 6</title><path d="M145.242,124.75s-17.869-21.8-29.662-23.586c0,0,1.429,5.36-12.328,17.689s-50.744,47.17-62.536,62.894-17.51,12.507-17.51,12.507,4.645,20.37,23.585,31.09c0,0,15.009-18.939,22.691-20.905A912.816,912.816,0,0,0,145.242,124.75Z" style="fill:#6ab4e4;fill-rule:evenodd"/><circle cx="47.506" cy="200.866" r="5.685" transform="translate(-128.115 92.418) rotate(-44.998)" style="fill:#e5e5e5"/><path d="M45.833,199.439a5.685,5.685,0,0,1,6.859-.907,5.685,5.685,0,1,0-8.025,7.261A5.687,5.687,0,0,1,45.833,199.439Z" style="fill:#cac9c9;fill-rule:evenodd"/><path d="M66.519,200.487c-7.683,1.966-22.692,20.9-22.692,20.9a47.36,47.36,0,0,1-13.183-11.123,48.388,48.388,0,0,0,16.147,15.075s15.009-18.938,22.692-20.9a912.726,912.726,0,0,0,75.759-79.689s-.718-.876-1.961-2.291c-.367-.418-.781-.884-1.235-1.387A912.3,912.3,0,0,1,66.519,200.487Z" style="fill:#4aa2d9;fill-rule:evenodd"/><path d="M115.58,101.164c8.73,1.322,20.79,13.612,26.465,19.907.454.5.868.969,1.235,1.387l.354-.389C165.381,94.651,197.865,70.415,221.8,44.2c0,0-44.748,14.564-80.3,51.907L124.407,91.14C118.8,97.2,115.58,101.164,115.58,101.164Z" style="fill:#cac9c9;fill-rule:evenodd"/><path d="M124.407,91.14l17.086,4.967C177.049,58.765,221.8,44.2,221.8,44.2c3.924-4.3,7.618-8.65,11-13.078C190.517,25.6,143.539,70.494,124.407,91.14Z" style="fill:#e5e5e5;fill-rule:evenodd"/></svg>