<svg id="Layer_1" data-name="Layer 1" xmlns="http://www.w3.org/2000/svg" viewBox="0 0 256 256"><title>Artboard 9</title><path d="M53.007,232.793s-44.1-26.172-6.453-64.536,41.949-34.779,57.007-53.422c-1.971,8.784,6.992,15.6,11.317,15.54l-.92,11.35-7.53.358S48.346,200.167,53.007,232.793Z" style="fill:#e5e5e5;fill-rule:evenodd"/><path d="M103.561,114.835c40.965-30.643,54.093-49.18,83.321-79.809,28.3-29.654,48.857,3.265,31.231,24.774-21.154,25.814-98.909,70.519-103.235,70.575S101.59,123.619,103.561,114.835Z" style="fill:#f06257;fill-rule:evenodd"/><circle cx="206.251" cy="41.645" r="6.338" transform="translate(30.963 158.041) rotate(-45.001)" style="fill:#e5e5e5"/><path d="M204.248,40.381a6.342,6.342,0,0,1,8-.792,6.338,6.338,0,1,0-9.515,7.331A6.34,6.34,0,0,1,204.248,40.381Z" style="fill:#cac9c9;fill-rule:evenodd"/><path d="M133.629,120.822a31.546,31.546,0,0,1-14.265-18.3c-4.8,3.911-10.021,7.994-15.8,12.318-1.971,8.784,6.993,15.6,11.317,15.54C116.118,130.359,123.388,126.676,133.629,120.822Z" style="fill:#e5e5e5;fill-rule:evenodd"/><path d="M106.429,142.084l-11.918-6.006c-64.357,60.054-41.5,96.715-41.5,96.715C48.346,200.167,106.429,142.084,106.429,142.084Z" style="fill:#cac9c9;fill-rule:evenodd"/><path d="M130.419,118.658c-8.8,4.952-14.908,8-16.035,8.012-3.307.043-9.328-3.931-11.1-9.732-.27,7.744,7.617,13.488,11.589,13.437,1.239-.016,8.51-3.7,18.75-9.553A31.437,31.437,0,0,1,130.419,118.658Z" style="fill:#cac9c9;fill-rule:evenodd"/><path d="M215.15,57.577c-15.129,18.461-59.205,46.583-84.67,61.127a31.29,31.29,0,0,0,3.149,2.117c25.493-14.575,69.393-42.606,84.485-61.022,10.319-12.593,7.551-29.1-2.2-34.664C223.153,32.077,224.331,46.374,215.15,57.577Z" style="fill:#ed4637;fill-rule:evenodd"/></svg>