<svg id="Layer_1" data-name="Layer 1" xmlns="http://www.w3.org/2000/svg" viewBox="0 0 256 256"><title>Artboard 1</title><path d="M23.207,226.413s25.4-31.247,35.266-63.772c0,0,20.1-21.015,22.842-26.131l9.228-10.689,1.223.64c4.489,4.316,13.125,12.161,21.447,17.155l-.561,9.066-6.212,5.116-9.318,7.492-.092,2.1-6.67,5.938-.091,2.467-8.5,8.315-.822,1.918-6.213,6.944.091,3.746S59.113,223.763,23.207,226.413Z" style="fill:#e5e5e5;fill-rule:evenodd"/><path d="M88.626,123.354s19.918,20.647,33.44,24.3l9.685-5.3s-10.417-24.667,23.206-28.688c0,0,27.408-52.992,66.513-49.7,0,0,12.974,4.2,11.147-5.665s-11.329-28.872-15.9-28.689S177.069,23.582,88.626,123.354Z" style="fill:#f06257;fill-rule:evenodd"/><circle cx="205.315" cy="48.226" r="6.461" transform="translate(26.034 159.305) rotate(-45)" style="fill:#e5e5e5"/><path d="M23.207,226.412c35.906-2.649,51.62-29.692,51.62-29.692l-.092-3.747,6.214-6.944.822-1.918,8.5-8.315.091-2.467,6.669-5.938.092-2.1,9.318-7.491,6.214-5.117-19.917-6.03A311.936,311.936,0,0,1,36.552,207.64C29.231,219,23.207,226.412,23.207,226.412Z" style="fill:#cac9c9;fill-rule:evenodd"/><path d="M127.8,138.158l-9.685,5.3c-9.737-2.632-22.792-14.076-29.337-20.275l-.152.172s1.172,1.214,3.14,3.106c4.49,4.317,13.126,12.161,21.447,17.154a36.4,36.4,0,0,0,8.854,4.041l9.685-5.3s-10.416-24.667,23.206-28.688c0,0,27.408-52.992,66.513-49.7,0,0,12.974,4.2,11.147-5.664-1.652-8.923-9.581-25.318-14.461-28.24,4.4,6.229,9.258,17.28,10.51,24.041,1.828,9.867-11.147,5.665-11.147,5.665-39.1-3.288-66.513,49.7-66.513,49.7C117.383,113.49,127.8,138.158,127.8,138.158Z" style="fill:#ed4637;fill-rule:evenodd"/><path d="M203.092,46.25a6.465,6.465,0,0,1,8.009-.9,6.461,6.461,0,1,0-9.228,8.347A6.465,6.465,0,0,1,203.092,46.25Z" style="fill:#cac9c9;fill-rule:evenodd"/></svg>