<svg id="Layer_1" data-name="Layer 1" xmlns="http://www.w3.org/2000/svg" viewBox="0 0 256 256"><title>Artboard 11</title><path d="M23.207,228.882s15.527-28.535,16.786-33.151,20.562-26.017,20.562-26.017,31.682-35.879,35.039-43.432a6.641,6.641,0,0,1,.713-1.22c1.919,5.5,7.79,17.1,23.415,18.216,0,0-9.651,10.91-2.518,20.981C94.051,187.412,56.979,223.748,23.207,228.882Z" style="fill:#e5e5e5;fill-rule:evenodd"/><path d="M95.488,122.19s3.672,19.619,24.234,21.087c0,0,7.763-10.072,22.45-7.554,0,0-1.154-31.577,49.2-60.951,16.7-9.744,27.013-15.309,33.216-18.817,25.256-14.281-14.981-33.109-24.614-27.972C193.682,31.34,130.947,73.094,95.488,122.19Z" style="fill:#6ab4e4;fill-rule:evenodd"/><circle cx="115.307" cy="123.892" r="5.737" style="fill:#e5e5e5"/><path d="M112.32,126.726a5.739,5.739,0,0,1,8.227-5.17,5.738,5.738,0,1,0-7.732,7.505A5.711,5.711,0,0,1,112.32,126.726Z" style="fill:#cac9c9;fill-rule:evenodd"/><path d="M137.233,132.018c-14.687-2.518-22.45,7.553-22.45,7.553a26.8,26.8,0,0,1-11.466-3.318,25.407,25.407,0,0,0,16.405,7.023s7.763-10.071,22.45-7.554c0,0-1.154-31.576,49.2-60.951,16.7-9.743,27.013-15.309,33.216-18.817,13.713-7.754,8.119-16.848-1.4-22.72,6.017,5.608,7.543,12.749-3.538,19.015-6.2,3.508-16.512,9.074-33.216,18.817C136.079,100.442,137.233,132.018,137.233,132.018Z" style="fill:#4aa2d9;fill-rule:evenodd"/><path d="M111.739,169.7c-11.551-8.2-25.167-10.9-37.966,1.063S38.259,199.9,38.259,199.9c-4.356,9.324-15.052,28.98-15.052,28.98C54.434,224.135,88.481,192.712,111.739,169.7Z" style="fill:#cac9c9;fill-rule:evenodd"/></svg>