<svg id="Layer_1" data-name="Layer 1" xmlns="http://www.w3.org/2000/svg" viewBox="0 0 256 256"><title>Artboard 5</title><path d="M225.466,23.207s-23.485,51.045-42.312,77.635-22.9,37.266-22.9,37.266-7.569,2.136-12.81,6.6a7.723,7.723,0,0,1-2.653,1.469c3.39-5.765,4.345-10.261,1.878-12.727-8.734-8.734-21.545-3.3-21.545-3.3s2.911-5.629-2.524-14.169C157.668,89.767,190.442,52.587,225.466,23.207Z" style="fill:#cac9c9;fill-rule:evenodd"/><path d="M146.666,133.449c-8.734-8.734-21.545-3.3-21.545-3.3s.194,17.273-20.961,16.3c0,0-21.542,30.472-40.37,35.713-16.12,4.487-33.378,20.644-33.256,39.207.062,9.117,1.18,13.845,11.284,10.169C71.992,220.562,160.1,146.886,146.666,133.449Z" style="fill:#8bc65a;fill-rule:evenodd"/><circle cx="51.95" cy="208.854" r="6.312" transform="translate(-132.464 97.902) rotate(-44.999)" style="fill:#e5e5e5"/><path d="M48.826,214.341a6.315,6.315,0,0,1,8.963-7.888,6.312,6.312,0,1,0-8.963,7.888Z" style="fill:#cac9c9;fill-rule:evenodd"/><path d="M143.263,130.817C155,145.089,68.047,217.686,38.114,228.578a14.722,14.722,0,0,1-6.565,1.2c1.271,3.12,4.09,4.014,10.269,1.767,24.634-8.964,87.891-59.721,102.97-85.365,3.39-5.765,4.345-10.261,1.878-12.727A16.64,16.64,0,0,0,143.263,130.817Z" style="fill:#6dbc45;fill-rule:evenodd"/><path d="M131,109.467l22.653,11.562,39.01-34.9c16.386-27.239,32.8-62.924,32.8-62.924C193.253,50.228,162.944,83.849,131,109.467Z" style="fill:#e5e5e5;fill-rule:evenodd"/></svg>