<svg id="Layer_1" data-name="Layer 1" xmlns="http://www.w3.org/2000/svg" viewBox="0 0 256 256"><title>Artboard 10</title><path d="M27.572,229.354S17.072,206.426,28.643,194s51.212-58.069,57-69.855c0,0,.293-.516.853-1.447a11.243,11.243,0,0,0-.853,1.447c13.714,30,41.355,24.642,41.355,24.642l-5.571,6S99.569,197.641,27.572,229.354Z" style="fill:#e5e5e5;fill-rule:evenodd"/><path d="M127,148.786s-27.641,5.358-41.355-24.642c0,0,55.283-97.711,144.637-97.5,0,0,15,30-28.285,57C166.356,73.393,127.872,122.518,127,148.786Z" style="fill:#ffc855;fill-rule:evenodd"/><circle cx="111.214" cy="126.311" r="6.212" style="fill:#e5e5e5"/><path d="M114.4,123.3a6.2,6.2,0,0,1,2.51.528,6.214,6.214,0,1,0-8.2,8.174,6.216,6.216,0,0,1,5.694-8.7Z" style="fill:#cac9c9;fill-rule:evenodd"/><path d="M109.841,171.059c-16.3-16.3-26.352-18.922-26.352-18.922-14.571,16.286-59.14,49.4-59.14,49.4-3.835,12.4,3.223,27.815,3.223,27.815C71.565,209.976,96.838,186.438,109.841,171.059Z" style="fill:#cac9c9;fill-rule:evenodd"/><path d="M122.683,141.616a37.941,37.941,0,0,1-36.219-15.748C100.429,153.935,127,148.786,127,148.786c.874-26.268,39.359-75.393,75-65.142,43.285-27,28.286-57,28.286-57q-1.127,0-2.247.015c1.69,10.513-.03,30.9-30.353,49.813C162.041,66.222,123.557,115.348,122.683,141.616Z" style="fill:#f6b236;fill-rule:evenodd"/></svg>