<svg id="Layer_1" data-name="Layer 1" xmlns="http://www.w3.org/2000/svg" viewBox="0 0 256 256"><title>Artboard 7</title><path d="M230.825,23.207s-1.4,19.747-14.028,33.451-50.719,50.5-50.719,50.5l-.415-.008c-2.927-2.957-8.725-8.747-10.16-9.7l.863-5.4S208.7,25.042,230.825,23.207Z" style="fill:#e5e5e5;fill-rule:evenodd"/><path d="M153.781,122.9l13.593-14.011S157.445,98.743,155.5,97.448c-1.91-1.273-6.43-7.243-17.563,11.551C147.814,107.621,154.531,114.06,153.781,122.9Z" style="fill:#e5e5e5;fill-rule:evenodd"/><path d="M145.9,137.916c19.622-19.909-.379-41.589-24.5-20.4-5.953,5.232-69.213,60.229-90.065,85.7-17.4,21.256,6.007,37.989,21.218,25.015C67.234,215.718,145.9,137.916,145.9,137.916Z" style="fill:#ffc855;fill-rule:evenodd"/><circle cx="43.076" cy="215.699" r="4.974" transform="translate(-139.906 93.637) rotate(-45)" style="fill:#e5e5e5"/><path d="M40.6,220.017a4.976,4.976,0,0,1,6.987-6.407,4.974,4.974,0,1,0-6.987,6.407Z" style="fill:#cac9c9;fill-rule:evenodd"/><path d="M142.689,134.7s-78.666,77.8-93.342,90.32C42.339,231,33.59,230.674,27.895,226.5c5.051,6.948,16.143,9,24.664,1.734,14.675-12.517,93.341-90.32,93.341-90.32,5.07-5.144,7.494-10.406,7.881-15.017.43-5.062-1.59-9.337-5.249-11.807C152.3,116.726,151.378,125.889,142.689,134.7Z" style="fill:#f6b236;fill-rule:evenodd"/><path d="M164.553,106.035l-11.264,11.61a14.022,14.022,0,0,1,.491,5.254l13.593-14.011s-.677-.691-1.711-1.736C165.327,106.813,164.954,106.437,164.553,106.035Z" style="fill:#cac9c9;fill-rule:evenodd"/><path d="M161.331,102.829c1.128,1.11,2.254,2.233,3.222,3.206.4.4.774.778,1.109,1.117l.415.008s38.093-36.8,50.718-50.5a51.162,51.162,0,0,0,9.6-15.62S185.357,67.622,161.331,102.829Z" style="fill:#cac9c9;fill-rule:evenodd"/></svg>