<svg id="Layer_1" data-name="Layer 1" xmlns="http://www.w3.org/2000/svg" viewBox="0 0 256 256"><title>Artboard 8</title><path d="M123.07,150.318s3.589,3.824,7.007,3.892c11.869.238,6.167,11.582.194,8.954-4.866-2.142-14.694-4.964-21.41,3.308s-35.327,42.722-54.012,57.9c0,0-4.087-.972-6.617,1.558s-6.229,7.4-8.759,5.644-17.712-13.43-16.155-16.155,1.167-14.014,7.785-15.571,42.042-29.973,47.1-44.766c3.248-9.494,6.977-10.168,10.055-10.359,7.106-.441,9.462-9.288,5.71-11.634-3.114-1.947-7.2-1.362-8.174-4.282s2.919-10.315,11.289-4.282S123.07,150.318,123.07,150.318Z" style="fill:#f06257;fill-rule:evenodd"/><path d="M232.793,24.05S181.486,96.482,126.251,152.883a17.4,17.4,0,0,1-3.181-2.565s-9.891-11.093-18.371-19.193C104.7,131.125,190.363,47.017,232.793,24.05Z" style="fill:#e5e5e5;fill-rule:evenodd"/><circle cx="39.436" cy="212.477" r="5.024" transform="translate(-138.695 90.121) rotate(-45.001)" style="fill:#e5e5e5"/><path d="M38.086,211.261A5.026,5.026,0,0,1,44,210.378a5.024,5.024,0,1,0-6.931,6.533A5.026,5.026,0,0,1,38.086,211.261Z" style="fill:#cac9c9;fill-rule:evenodd"/><path d="M104.7,131.125c8.48,8.1,18.371,19.193,18.371,19.193a17.373,17.373,0,0,0,3.181,2.565C181.486,96.482,232.793,24.05,232.793,24.05c-5.446,5.552-103.931,112.145-124.315,103.4C106.043,129.805,104.7,131.125,104.7,131.125Z" style="fill:#cac9c9;fill-rule:evenodd"/><path d="M128.79,158.472c-4.866-2.142-14.7-4.965-21.41,3.308s-35.327,42.722-54.012,57.9c0,0-4.088-.972-6.617,1.557s-6.228,7.4-8.759,5.644c-1.843-1.276-10.4-7.822-14.311-12.335a4.625,4.625,0,0,1-.362.873c-1.557,2.725,13.625,14.4,16.155,16.155s6.229-3.115,8.759-5.644,6.617-1.557,6.617-1.557c18.685-15.182,47.3-49.632,54.012-57.9s16.544-5.45,21.41-3.308c4.772,2.1,9.37-4.719,4.973-7.668A4.9,4.9,0,0,1,128.79,158.472Z" style="fill:#ed4637;fill-rule:evenodd"/></svg>