<?xml version="1.0" encoding="utf-8"?>
<!-- Generator: Adobe Illustrator 22.0.1, SVG Export Plug-In . SVG Version: 6.00 Build 0)  -->
<svg version="1.1" id="Layer_1" xmlns="http://www.w3.org/2000/svg" xmlns:xlink="http://www.w3.org/1999/xlink" x="0px" y="0px"
	 viewBox="0 0 200 200" enable-background="new 0 0 200 200" xml:space="preserve">
<g id="Eagle_Independence_Day">
	<path id="Star_44_" fill="#58585B" d="M106.5,139.8c0-0.1-0.2-0.3-0.3-0.3l-4-0.6l-1.8-3.6c-0.1-0.1-0.2-0.2-0.4-0.2
		c-0.2,0-0.3,0.1-0.4,0.2l-1.8,3.6l-4,0.6c-0.2,0-0.3,0.1-0.3,0.3c0,0.2,0,0.3,0.1,0.4l2.9,2.8l-0.7,4c0,0.2,0,0.3,0.2,0.4
		c0.1,0.1,0.2,0.1,0.2,0.1c0.1,0,0.1,0,0.2,0l3.6-1.9l3.6,1.9c0.1,0,0.1,0,0.2,0c0.1,0,0.2,0,0.2-0.1c0.1-0.1,0.2-0.3,0.2-0.4
		l-0.7-4l2.9-2.8C106.5,140.1,106.5,140,106.5,139.8z"/>
	<path id="Bottom_Line_1_" fill="#59595C" d="M125.4,131.7H74.6c-1,0-1.7-0.8-1.7-1.7c0-1,0.8-1.7,1.7-1.7h50.8c1,0,1.7,0.8,1.7,1.7
		C127.2,130.9,126.4,131.7,125.4,131.7z"/>
	<path id="DAY_Right_Line" fill="#59595C" d="M142.9,111.6h-19.4c-1,0-1.7-0.8-1.7-1.7c0-1,0.8-1.7,1.7-1.7h19.4
		c1,0,1.7,0.8,1.7,1.7C144.6,110.8,143.8,111.6,142.9,111.6z"/>
	<g>
		<path id="D_8_" fill="#58585B" d="M92.8,124.5h-9.4l0-2.9h1.3v-11h-1.3v-3h9.4l1.9,1.6v13.7L92.8,124.5z M91.2,110.5H88v11h3.2
			V110.5z"/>
		<path id="A_4_" fill="#58585B" d="M101,124.4h-4.5v-2.9h0.6l2.5-11h-0.7l0-3h5v3h-0.6l2.8,11h0.6v3h-4.5v-3h0.7l-0.2-0.9h-2.4
			l-0.3,0.9h0.8V124.4z M102.3,118.3l-0.7-2.6l-0.7,2.6H102.3z"/>
		<path id="Y_4_" fill="#58585B" d="M113,117.1v4.4h1.1v3h-5.5v-3h1v-4.4l-2.7-6.6h-0.7v-3h4.7v3h-0.7l1.1,2.6l1-2.6h-0.8v-3h4.6v3
			h-0.9L113,117.1z"/>
	</g>
	<path id="DAY_Left_Line" fill="#59595C" d="M76.5,111.6H57.1c-1,0-1.7-0.8-1.7-1.7c0-1,0.8-1.7,1.7-1.7h19.4c1,0,1.7,0.8,1.7,1.7
		C78.2,110.8,77.4,111.6,76.5,111.6z"/>
	<g id="INDEPENDENCE_1_">
		<path id="I_2_" fill="#58585B" d="M42.5,101.8v-12h1.7v12H42.5z"/>
		<path id="N_8_" fill="#58585B" d="M53.9,101.8l-5.3-8.6v8.6h-1.7v-12h1.7l5.4,8.6v-8.6h1.7v12H53.9z"/>
		<path id="D_7_" fill="#58585B" d="M62.3,89.8c3,0,5.2,2.5,5.2,6c0,3.5-2.2,6-5.2,6h-4.1v-12H62.3z M59.9,100h2.5
			c1.9,0,3.4-1.7,3.4-4.2c0-2.5-1.5-4.2-3.5-4.2h-2.4V100z"/>
		<path id="E_10_" fill="#58585B" d="M71,91.6v3.2h4.9v1.8H71v3.3h5.6v1.8h-7.3v-12h7.2v1.8H71z"/>
		<path id="P_2_" fill="#58585B" d="M82.6,89.8c2.5,0,4,1.5,4,4.1c0,2.7-1.4,4.3-4,4.3h-2.3v3.6h-1.7v-12H82.6z M80.3,96.4h2.2
			c1.5,0,2.4-0.8,2.4-2.4c0-1.6-0.9-2.3-2.4-2.3h-2.2V96.4z"/>
		<path id="E_11_" fill="#58585B" d="M90,91.6v3.2h4.9v1.8H90v3.3h5.6v1.8h-7.3v-12h7.2v1.8H90z"/>
		<path id="N_7_" fill="#58585B" d="M104.7,101.8l-5.3-8.6v8.6h-1.7v-12h1.7l5.4,8.6v-8.6h1.7v12H104.7z"/>
		<path id="D_6_" fill="#58585B" d="M113.1,89.8c3,0,5.2,2.5,5.2,6c0,3.5-2.2,6-5.2,6H109v-12H113.1z M110.7,100h2.5
			c1.9,0,3.4-1.7,3.4-4.2c0-2.5-1.5-4.2-3.5-4.2h-2.4V100z"/>
		<path id="E_9_" fill="#58585B" d="M121.7,91.6v3.2h4.9v1.8h-4.9v3.3h5.6v1.8H120v-12h7.2v1.8H121.7z"/>
		<path id="N_6_" fill="#58585B" d="M136.4,101.8l-5.3-8.6v8.6h-1.7v-12h1.7l5.4,8.6v-8.6h1.7v12H136.4z"/>
		<path id="C_2_" fill="#58585B" d="M149,91.6l-1,1.5c-0.7-0.9-1.8-1.5-2.8-1.5c-2,0-3.6,1.9-3.6,4.2c0,2.4,1.6,4.2,3.6,4.2
			c1,0,2-0.5,2.8-1.4l1,1.3c-1,1.2-2.5,2-3.9,2c-2.9,0-5.2-2.7-5.2-6.1c0-3.4,2.3-6,5.3-6C146.6,89.7,148,90.4,149,91.6z"/>
		<path id="E_8_" fill="#58585B" d="M152.4,91.6v3.2h4.9v1.8h-4.9v3.3h5.6v1.8h-7.3v-12h7.2v1.8H152.4z"/>
	</g>
	<path id="Left_Line_2" fill="#59595C" d="M60,84.2H42.6c-1,0-1.7-0.8-1.7-1.7c0-1,0.8-1.7,1.7-1.7H60c1,0,1.7,0.8,1.7,1.7
		C61.7,83.5,61,84.2,60,84.2z"/>
	<path id="Left_Line_1" fill="#59595C" d="M56.6,73.2H29.8c-1,0-1.7-0.8-1.7-1.7c0-1,0.8-1.7,1.7-1.7h26.8c1,0,1.7,0.8,1.7,1.7
		C58.3,72.4,57.6,73.2,56.6,73.2z"/>
	<path id="Right_Line_2" fill="#59595C" d="M157.4,84.2H140c-1,0-1.7-0.8-1.7-1.7c0-1,0.8-1.7,1.7-1.7h17.4c1,0,1.7,0.8,1.7,1.7
		C159.2,83.5,158.4,84.2,157.4,84.2z"/>
	<path id="Right_Line_1" fill="#59595C" d="M170.2,73.2h-26.8c-1,0-1.7-0.8-1.7-1.7c0-1,0.8-1.7,1.7-1.7h26.8c1,0,1.7,0.8,1.7,1.7
		C171.9,72.4,171.2,73.2,170.2,73.2z"/>
	<path id="Head_Line" fill="#59595C" d="M183,58.7h-44.7c-1,0-1.7,0.8-1.7,1.7v11.1c0,5.1-4.2,9.3-9.3,9.3h-15.4l-2.7-13.3
		c0,0,9.6,0,9.6,0c1.2,0,2.1-1.3,1.6-2.4c-0.1-0.2-2.3-5.6-3.4-7.8c-1.6-3.1-4.7-4.8-8.8-4.8H87.4c-1,0-1.7,0.8-1.7,1.7
		s0.8,1.7,1.7,1.7h2.3L86,80.8c0,0-13.2,0-13.2,0c-5.1,0-9.3-4.2-9.3-9.3V60.4c0-1-0.8-1.7-1.7-1.7H17c-1,0-1.7,0.8-1.7,1.7
		c0,1,0.8,1.7,1.7,1.7H60v9.3c0,7,5.7,12.8,12.8,12.8c0,0,14.7,0,14.7,0c0.8,0,1.6-0.7,1.7-1.5l4-26.8h14.9c1.9,0,4.5,0.5,5.8,2.9
		c0.6,1.1,1.6,3.4,2.3,5.1h-13.4c-1,0-1.7,0.8-1.7,1.7c0,1,0.8,1.7,1.7,1.7h2.8l3.1,15.4c0.2,0.8,0.9,1.4,1.7,1.4c0,0,16.8,0,16.8,0
		c7,0,12.8-5.7,12.8-12.8v-9.3H183c1,0,1.7-0.8,1.7-1.7C184.7,59.5,183.9,58.7,183,58.7z"/>
</g>
</svg>
