<svg xmlns="http://www.w3.org/2000/svg" viewBox="0 0 200 200"><g><path d="M167.1 68.5c-.4-.3-1.1-1.4-1.2-2.3 0-1.6-.9-3.6-3.3-3.2-1.1.2-2.3.7-3 1.7-.9 1.2-1.1 2.8-.6 4.4.2.5.1 1.1-.3 1.6-.6 1-1.9 1.5-2.8 1.6-4.4.4-6.4 1.9-8.3 6.7-.2.4-1 1.2-2.3 1.4-2.4.3-3.9 1.6-4.5 3.4-.3 1.2-.8 1.8-3.7 3.6-1 .6-3 1.1-4.6 1 .3-.3 2.1-2 2.5-2.5.8-.8 1-2 .6-3-.5-1.3-2-1.8-3.5-1.1-.4.2-.7.2-.9.2-.2 0-.3-.3.3-1 1.1-1.2.8-2.2.6-2.6-.5-1.2-2.4-1.7-4-.9-1.5.7-2.8 1.9-3.5 3-.6 1.1-1.2 3-.8 4.9 0 .2.1.4.2.6.3 1.2.4 1.6-.2 2.2-.7.7-1.1.8-1.2.8 0 0-.2 0-.3-.2-.2-.2-.2-.5-.1-.6.4-1 .9-2.6 0-4.1-.4-.6-.2-1.2-.1-1.3 1-1.2 1.2-2.5 1.2-3.5s.8-1.8 1.2-2.1c.7-.6 1.6-1.1 4.1-1.7.9-.2 1.4-1 1.3-1.9-.1-1.2-1.6-2.8-2.9-2.8-.7 0-1.3.4-1.6 1-.4.7-.5.8-1.7 1-.3 0-.6.1-1 .2s-1 .4-1.3.2c-1.4-.7-3.1-.6-4.6 0-1.8.7-3.7-.2-3.9-.5.4-.3 1.9-1.4 2.9-2 .7-.5.6-1.9-.4-2.1-2.4-.6-9.5-2.4-9.5-2.4-1.2-.3-3.4-.6-5.3-.7-1.3 0-17.1-.3-19-.3-3-.1-5.9-.4-9.1-1.2-2.9-.6-26.7-6-26.7-6-.3-.1-.6 0-.9.2-.3.2-.5.4-.5.8l-.4 1.8-3-1.7c-.7-.3-1.7 0-1.8 1l-.1 6.7-4.7 9.6c-.1.1-.1.3-.1.5 0 0-.1 2.5-.1 4.8 0 1.6-.8 2.3-1.6 3.1-1 1-1.5 2.4-1.3 3.6.2 1.2 1 2.2 2.1 2.6.6.2.9.9.7 1.4-1 1.9-.7 3.7.9 4.8.1.1.1.5-.1.6-.7.5-1 1.3-.9 2.3.1.5.3 1.4 1.4 2.2-.4.7-.6 1.5-.4 2.3.2 1.1 1 2 2.2 2.4 2.9 2.2 3.8 2.8 5.5 4.1.1.1.2.1.3.2.7.2 1 .7 1.2 3 0 .4.3.8.7 1 .5.2 3 1.1 3.1 1.1 3.1.4 4.7 1.1 6.8 2.9 3.1 2.6 9.1 4.8 13.4 5.7.4.1.8-.1 1.1-.4 0 0 .7-.7.9-1 1.3.5 3.9 1.9 7.4 5.9.2.2 2 2 2.8 2.6.4.3.9.4 1.4.1 1.3-.8 2.6-1.2 3.7-1.2 1.8 0 2.8 1.2 2.9 3.5 0 .4.2.7.5.9.6.4 1.2.8 2 1.3.3.7 1.1 2.7 1.7 4.5.2.5.6.8 1.1.8h3.9c.7 0 1.2-.5 1.2-1.2 0-.9-.1-3.4-.1-3.4 0-.5.6-1.6 2.3-2.2 2.5-.8 3.5-1.4 5.6-3.4 1.1-1 2.2-1.2 3.1-.6 1.4.8 2.9.8 4.2 0 .7-.4 1.3-.4 2 .1s1.5 1.2 2.7 1.2c1.4 0 3.1-1 3.5-2.4.1-.5.1-1.1 0-1.6.4-.1.6-.2.9-.3.9-.5 1.2-.4 1.6-.3 1 .2 2 .1 3.3-.2.9-.2 1-.3 2.4.6 1.8 1.2 3.3 1.1 4.7-.3.4-.4.8-.2 1.2 0 0 0 2 1.3 3 2l.1.2c-.7 1.4-.3 2.7.8 3.5.3.2.5.5.4.7-.3 1.6-.1 2.8 1.3 4 .4.4 2.3 1.9 2.3 1.9.5.4 1.2.7 1.9.7 1.3 0 2.4-.8 2.8-1.9.6-1.7.8-2.4.9-2.7.5-2.2-1.1-3.3-1.9-3.8-1-.7-1.5-1.3-1.6-2.1-.4-2.2-.9-3.1-2-4.6-1-1.3-.9-2.4-.9-2.6.1-.7.5-2.7.9-4.3.2-.9.7-1.1 1.3-1.2 1-.1 1.7-.6 2.2-1.3.5-.8.2-2.6 0-3.2.5 0 1.7-.3 2.2-.9.4-.5.6-1.1.6-1.8h.3c1 .1 1.7-.3 2.2-.9.5-.7.6-1.7.4-2.3-.1-.2 0-.4 0-.4 1 .3 2.1-.1 2.7-.9.4-.6.4-1.5.1-2.2-.1-.3-3.8-5.4-4.4-6.3.8.2 1.5.4 2.2.6 1.2.3 2.3-.4 2.6-1.7.2-1.1-.3-2.5-2.3-3.4 1 0 1.8-.6 2.3-1.5.4-.8.3-1.8-.1-2.6h.6c.8 0 2.6-.3 3.2-3.3.1-.5.4-.9.6-1.1 1.3.3 2.4-.4 2.8-1.7.3-1.1 0-2.6-1-3.2-.7-.4-.7-1.2-.6-1.4.2-.5 1-2 1.1-2.2.7-1.4 1.4-2 2.7-2.2 2.1-.4 2.6-1.7 2.7-2.3.2-1.2-.4-2.4-1.5-3.1zm-37.2 11c-1.5 1.7-1.2 3-1 3.5.1.2.2.4.4.6h-3c.1-2.5 2.4-4 3.6-4.1zM100.4 133c-2.7.9-3.9 2.9-3.9 4.5l.1 2.2h-1.9c-.5-1.4-1.4-3.8-1.7-4.3-.1-.2-.3-.3-.4-.4-.7-.4-1.2-.7-1.7-1-.1-1.2-.4-2.1-.9-2.9h14.3c-1.4.9-2.2 1.3-3.9 1.9zm28.4-7.8c-.4 0-.8 0-1.2.2-1 .2-1.8.3-2.4.1-1.1-.2-2 0-3.1.6-.2.1-.5.1-.8.1-.4-.1-.8.1-1 .3h-42c-2.9-3-5.7-4.9-8-5.4-.5-.1-.9.1-1.2.5-.3.4-.5.7-.8 1-2.4-.5-4.9-1.4-7-2.3h80.5c-.3 1.1-.5 2.3-.6 3-.1.5 0 1.8.8 3.3h-3.5c-.1-.1-.6-.4-.6-.4-.7-.5-1.4-.7-2.1-.7-.6 0-1.4.2-2.2 1.1H132c-.1 0-.1-.1-.2-.1-1-.9-1.9-1.3-3-1.3zm17.9 9.4c1 .7 1 .9.9 1.3-.1.3-.4 1.4-.8 2.5-.1.3-.7.5-1 .2 0 0-1.9-1.5-2.3-1.9-.5-.4-.7-.6-.5-1.8.2-1.2-.3-2.3-1.4-3-.2-.1-.3-.2-.1-.6 0-.1.1-.2.1-.3h2.4v.1c.3 1.3 1.2 2.5 2.7 3.5zm1-23.5c-.3 0-1.4 0-2 .8-.6.8-.3 1.8.1 2.6.1.3-.2 1-1 1.1H54.1c-1.5-.9-3.2-1.4-5.4-1.7-.4-.1-1.7-.6-1.9-.7-.1-1.4-.5-3-1.9-3.9h103.8c-.3.4-.4 1-.3 1.6-.2.2-.7.2-.7.2zm6.3-20.3c-1.3-.3-2.4.3-2.7 1.5-.1.7.1 1.3.5 1.9H89.3v4.5h60.3c0 .1 3.6 5.1 4.3 6.2-.5-.1-1 0-1.4.1H38.4c-.1-.1-1-.5-1.1-.8-.1-.3.1-.8.7-1.3.3-.3.5-.7.4-1.1-.1-.4-.4-.8-.7-.9-.8-.3-1.1-.7-1.2-.9-.1-.1-.1-.3 0-.4.5-.3 1.3-1.1 1.3-2.1 0-.8-.4-1.5-1.3-2.2-.3-.2-.8-.6-.2-1.8.2-.4.8-1.5.4-2.7-.3-.8-1-1.5-2.2-2-.5-.2-.6-.6-.7-.9-.1-.5.2-1.1.6-1.4.9-.8 2.3-2.2 2.3-4.8 0-1.8.1-3.7.1-4.4l4.7-9.6c.1-.2.1-.3.1-.5l.1-5 2.7 1.5c.3.2.7.2 1.1 0 .3-.2.6-.5.7-.8l.5-2.2c4.8 1.1 22.9 5.2 25.4 5.8 3.4.8 6.4 1.1 9.6 1.2 1.9 0 17.7.3 19 .3 1.9 0 3.9.4 4.8.6l7 1.8c-.4.3-.8.6-1 .7-.6.5-.9 1.1-.9 1.8H89.3v4.5h32.4c-.3.6-.6 1.3-.6 2.1 0 1-.2 1.5-.6 2-.5.5-.8 1.3-.7 2.2H89.3V88H120c-.1.7 0 1.6.5 2.2.5.8 1.4 1.3 2.3 1.3 1 0 2-.5 2.9-1.5.7-.7.9-1.4 1-2h3.4c-.1.4 0 .7.2 1.2.3.9 1 1.4 1.8 1.5h.9c1.7 0 4-.4 5.5-1.4.8-.5 1.4-.9 2-1.3h13.2c-.2.7 0 1.4.7 2.2.3.3-.1.7-.4.6zm7.4-8.4s-.5-.1-.6-.1c-.8 0-1.4.5-1.9 1.2h-15.1c.4-.5 1.1-.8 2-.9 2.1-.3 3.7-1.7 4.2-2.9.4-1 .8-1.9 1.2-2.5h8.8c0 .1-.1.1-.1.2-.6 1.3-.1 3.3 1.4 4.3.1.2.1.6.1.7zm4-10.8c-1 .2-1.9.6-2.7 1.2H160c.3-.3.6-.6.8-.9.8-1.1.9-2.3.6-3.6-.4-1.2 0-2 .3-2.4.7-1.2 1.8-.6 1.9.5.1 1.1 1.1 3.3 2.2 4 .3.2.5.5.4.7 0 .2-.3.4-.8.5z"/><path d="M81.3 72.2l-1.1-2.3c-.1-.1-.2-.1-.3 0l-1.1 2.3-2.5.4c-.1 0-.1.1-.1.1v.2l1.8 1.8-.4 2.5c0 .1 0 .1.1.2h.2l2.2-1.2 2.2 1.2h.1c.1 0 .2-.1.2-.2v-.1l-.4-2.5 1.8-1.8s.1-.1 0-.2c0-.1-.1-.1-.1-.1l-2.6-.3zM64.8 72.2l-1.1-2.3c-.1-.1-.2-.1-.3 0l-1.1 2.3-2.5.4c-.1 0-.1.1-.1.1v.2l1.8 1.8-.5 2.4c0 .1 0 .1.1.2h.2l2.2-1.2 2.2 1.2h.1c.1 0 .2-.1.2-.2V77l-.4-2.5 1.8-1.8s.1-.1 0-.2c0-.1-.1-.1-.1-.1l-2.5-.2zM48.2 72.2l-1.1-2.3c-.1-.1-.2-.1-.3 0l-1.1 2.3-2.5.4c-.1 0-.1.1-.1.1v.2l1.8 1.8-.4 2.5c0 .1 0 .1.1.2h.2l2.2-1.2 2.2 1.2h.1c.1 0 .2-.1.2-.2v-.1l-.5-2.5 1.8-1.8s.1-.1 0-.2c0-.1-.1-.1-.1-.1l-2.5-.3zM81.3 83.8l-1.1-2.3c0-.1-.1-.1-.1-.1s-.1 0-.1.1l-1.1 2.3-2.5.4c-.1 0-.1.1-.1.1v.2l1.8 1.8-.4 2.5c0 .1 0 .1.1.2h.2l2.2-1.2 2.2 1.2h.1c.1 0 .2-.1.2-.2v-.1l-.4-2.5 1.8-1.8s.1-.1 0-.2c0-.1-.1-.1-.1-.1l-2.7-.3zM64.8 83.8l-1.1-2.3c-.1-.1-.2-.1-.3 0l-1.1 2.3-2.5.4c-.1 0-.1.1-.1.1v.2l1.8 1.8-.5 2.4c0 .1 0 .1.1.2h.2l2.2-1.2 2.2 1.2h.1c.1 0 .2-.1.2-.2v-.1l-.4-2.5 1.8-1.8s.1-.1 0-.2c0-.1-.1-.1-.1-.1l-2.5-.2zM48.2 83.8l-1.1-2.3c-.1-.1-.2-.1-.3 0l-1.1 2.3-2.5.4c-.1 0-.1.1-.1.1v.2l1.8 1.8-.4 2.5c0 .1 0 .1.1.2h.2l2.2-1.2 2.2 1.2h.1c.1 0 .2-.1.2-.2v-.1l-.5-2.5 1.8-1.8s.1-.1 0-.2c0-.1-.1-.1-.1-.1l-2.5-.3zM81.3 95.4l-1.1-2.3c0-.1-.1-.1-.1-.1s-.1 0-.1.1l-1.1 2.3-2.5.4c-.1 0-.1.1-.1.1v.2l1.8 1.8-.4 2.5c0 .1 0 .1.1.2h.2l2.2-1.2 2.2 1.2h.1c.1 0 .2-.1.2-.2v-.1l-.4-2.5 1.8-1.8s.1-.1 0-.2c0-.1-.1-.1-.1-.1l-2.7-.3zM64.8 95.4l-1.1-2.3c-.1-.1-.2-.1-.3 0l-1.1 2.3-2.5.4c-.1 0-.1.1-.1.1v.2l1.8 1.8-.4 2.5c0 .1 0 .1.1.2h.2l2.2-1.2 2.2 1.2h.1c.1 0 .2-.1.2-.2v-.1l-.4-2.5 1.8-1.8s.1-.1 0-.2c0-.1-.1-.1-.1-.1l-2.6-.3zM48.2 95.4l-1.1-2.3c0-.1-.1-.1-.1-.1-.1 0-.1 0-.1.1l-1.1 2.3-2.5.4c-.1 0-.1.1-.1.1v.2l1.8 1.8-.4 2.5c0 .1 0 .1.1.2h.2l2.2-1.2 2.2 1.2h.1c.1 0 .2-.1.2-.2v-.1l-.6-2.5 1.8-1.8s.1-.1 0-.2c0-.1-.1-.1-.1-.1l-2.5-.3z"/></g></svg>