<?xml version="1.0" encoding="utf-8"?>
<!-- Generator: Adobe Illustrator 22.0.1, SVG Export Plug-In . SVG Version: 6.00 Build 0)  -->
<svg version="1.1" id="Layer_1" xmlns="http://www.w3.org/2000/svg" xmlns:xlink="http://www.w3.org/1999/xlink" x="0px" y="0px"
	 viewBox="0 0 200 200" enable-background="new 0 0 200 200" xml:space="preserve">
<g id="Rocket_Firework">
	<path id="Rocket" fill="#59595C" d="M129.6,64.5l-21.5-23.4c-1.3-1.4-3.7-1.4-5,0c0,0-21.5,23.4-21.5,23.4
		c-1.6,1.8-0.5,4.1,1.8,4.1h3.7v53.7c0,2.2,1.8,4.1,4.1,4.1h7.4c-0.9,8.6-8.8,16-17.5,16v2.5c10.2,0,19.1-8.5,20-18.5h2.7V160h3.8
		v-33.6H120c2.2,0,4.1-1.8,4.1-4.1V68.6c0,0,3.7,0,3.7,0C130.2,68.6,131.2,66.2,129.6,64.5z M118.1,65.4c-0.9,0-1.6,0.7-1.6,1.6
		c0,0.9,0.7,1.6,1.6,1.6h2.8v53.7c0,0.5-0.4,0.9-0.9,0.9H91.2c-0.5,0-0.9-0.4-0.9-0.9V68.6H93c0.9,0,1.6-0.7,1.6-1.6
		c0-0.9-0.7-1.6-1.6-1.6l-8.1,0l20.4-22.3c0.1-0.1,0.3-0.1,0.4,0l20.4,22.3H118.1z"/>
	<path id="Rocket_Line" fill="#59595C" d="M97.7,67c0,0.9,0.7,1.6,1.6,1.6h12.7c0.9,0,1.6-0.7,1.6-1.6c0-0.9-0.7-1.6-1.6-1.6H99.2
		C98.4,65.4,97.7,66.1,97.7,67z"/>
	<rect id="Line_3_4_" x="93.7" y="114.2" fill="#59595C" width="23.7" height="2.5"/>
	<rect id="Line_2_6_" x="93.7" y="106.1" fill="#59595C" width="23.7" height="2.5"/>
	<rect id="Line_1_5_" x="93.7" y="98.1" fill="#59595C" width="23.7" height="2.5"/>
	<path id="Star_98_" fill="#58585B" d="M105.6,75.3c-0.2,0-0.5,0.1-0.6,0.4l-2,4l-4.4,0.6c-0.2,0-0.5,0.2-0.5,0.4
		c-0.1,0.2,0,0.5,0.2,0.7l3.2,3.1l-0.8,4.4c0,0.2,0.1,0.5,0.3,0.6c0.1,0.1,0.2,0.1,0.4,0.1c0.1,0,0.2,0,0.3-0.1l4-2.1l4,2.1
		c0.1,0.1,0.2,0.1,0.3,0.1c0.1,0,0.3,0,0.4-0.1c0.2-0.1,0.3-0.4,0.3-0.6l-0.8-4.4l3.2-3.1c0.2-0.2,0.2-0.4,0.2-0.7
		c-0.1-0.2-0.3-0.4-0.5-0.4l-4.4-0.6l-2-4C106.1,75.5,105.8,75.3,105.6,75.3L105.6,75.3z"/>
	<g id="Fire_Lines">
		<path id="Line_63_" fill="#59595C" d="M83.8,136.8c-0.1,0-0.1,0-0.2,0c-0.5-0.1-0.8-0.6-0.7-1.1l0.9-3.7c0.1-0.5,0.6-0.8,1.1-0.7
			c0.5,0.1,0.8,0.6,0.7,1.1l-0.9,3.7C84.6,136.5,84.3,136.8,83.8,136.8z"/>
		<path id="Line_64_" fill="#59595C" d="M79.7,137c-0.4,0-0.8-0.3-0.9-0.7l-1.1-3.6c-0.2-0.5,0.1-1,0.6-1.2c0.5-0.2,1,0.1,1.2,0.6
			l1.1,3.6c0.2,0.5-0.1,1-0.6,1.2C79.9,137,79.8,137,79.7,137z"/>
		<path id="Line_65_" fill="#59595C" d="M76.2,139.2c-0.2,0-0.5-0.1-0.6-0.2l-2.8-2.5c-0.4-0.3-0.4-0.9-0.1-1.3
			c0.4-0.4,0.9-0.4,1.3-0.1l2.8,2.5c0.4,0.4,0.4,0.9,0.1,1.3C76.7,139.1,76.5,139.2,76.2,139.2z"/>
		<path id="Line_66_" fill="#59595C" d="M74.3,142.8c-0.1,0-0.1,0-0.2,0l-3.7-0.8c-0.5-0.1-0.8-0.6-0.7-1.1c0.1-0.5,0.6-0.8,1.1-0.7
			l3.7,0.8c0.5,0.1,0.8,0.6,0.7,1.1C75.1,142.5,74.7,142.8,74.3,142.8z"/>
		<path id="Line_67_" fill="#59595C" d="M70.8,148.1c-0.4,0-0.8-0.3-0.9-0.7c-0.2-0.5,0.1-1,0.6-1.2l3.7-1.2c0.5-0.2,1,0.1,1.2,0.6
			c0.2,0.5-0.1,1-0.6,1.2l-3.7,1.2C71,148,70.9,148.1,70.8,148.1z"/>
		<path id="Line_68_" fill="#59595C" d="M74,153.1c-0.2,0-0.5-0.1-0.6-0.3c-0.4-0.4-0.4-0.9,0-1.3l2.6-2.8c0.4-0.4,0.9-0.4,1.3,0
			c0.4,0.4,0.4,0.9,0,1.3l-2.6,2.8C74.5,153,74.3,153.1,74,153.1z"/>
		<path id="Line_69_" fill="#59595C" d="M79.4,155.9c-0.1,0-0.1,0-0.2,0c-0.5-0.1-0.8-0.6-0.7-1.1l0.9-3.7c0.1-0.5,0.6-0.8,1.1-0.7
			c0.5,0.1,0.8,0.6,0.7,1.1l-0.9,3.7C80.2,155.6,79.8,155.9,79.4,155.9z"/>
		<path id="Line_70_" fill="#59595C" d="M85.5,155.6c-0.4,0-0.8-0.3-0.9-0.7l-1.1-3.6c-0.2-0.5,0.1-1,0.6-1.2c0.5-0.2,1,0.1,1.2,0.6
			l1.1,3.6c0.2,0.5-0.1,1-0.6,1.2C85.7,155.6,85.6,155.6,85.5,155.6z"/>
		<path id="Line_71_" fill="#59595C" d="M90.7,152.3c-0.2,0-0.5-0.1-0.6-0.2l-2.8-2.5c-0.4-0.3-0.4-0.9-0.1-1.3
			c0.4-0.4,0.9-0.4,1.3-0.1l2.8,2.5c0.4,0.3,0.4,0.9,0.1,1.3C91.2,152.2,90.9,152.3,90.7,152.3z"/>
	</g>
</g>
</svg>
