<?xml version="1.0" encoding="utf-8"?>
<!-- Generator: Adobe Illustrator 22.0.1, SVG Export Plug-In . SVG Version: 6.00 Build 0)  -->
<svg version="1.1" id="Layer_1" xmlns="http://www.w3.org/2000/svg" xmlns:xlink="http://www.w3.org/1999/xlink" x="0px" y="0px"
	 viewBox="0 0 200 200" enable-background="new 0 0 200 200" xml:space="preserve">
<g id="Circular_Stars_Badge_1_">
	<g id="Stars_Group_1_">
		<path id="Star_25_" fill="#58585B" d="M100.1,42.4L100.1,42.4c-0.2,0-0.4,0.1-0.5,0.3l-1.9,3.8l-4.2,0.6c-0.2,0-0.4,0.2-0.4,0.4
			c-0.1,0.2,0,0.4,0.1,0.6l3,3l-0.7,4.2c0,0.2,0,0.4,0.2,0.5c0.1,0.1,0.2,0.1,0.3,0.1c0.1,0,0.2,0,0.3-0.1l3.8-2l3.8,2
			c0.1,0,0.2,0.1,0.3,0.1c0.1,0,0.2,0,0.3-0.1c0.2-0.1,0.3-0.3,0.2-0.5l-0.7-4.2l3-3c0.1-0.1,0.2-0.4,0.1-0.6
			c-0.1-0.2-0.2-0.3-0.4-0.4l-4.2-0.6l-1.9-3.8C100.5,42.5,100.3,42.4,100.1,42.4L100.1,42.4z"/>
		<path id="Star_24_" fill="#58585B" d="M82.9,58.3l-2.6-3.4l1.3-4c0-0.1,0-0.1,0-0.2c0-0.3-0.2-0.5-0.5-0.5h0c0,0,0,0,0,0
			c0,0,0,0,0,0c-0.1,0-0.1,0-0.2,0l-4,1.4l-3.4-2.5c-0.1-0.1-0.2-0.1-0.3-0.1c-0.1,0-0.2,0-0.3,0.1c-0.2,0.1-0.3,0.3-0.3,0.5
			l0.1,4.2l-3.4,2.5c-0.2,0.1-0.3,0.3-0.2,0.5c0,0.2,0.2,0.4,0.4,0.4l4.1,1.2l1.3,4c0.1,0.2,0.2,0.3,0.4,0.4c0,0,0.1,0,0.1,0
			c0.2,0,0.3-0.1,0.4-0.2l2.4-3.5l4.2,0c0,0,0,0,0,0c0.2,0,0.4-0.1,0.5-0.3C83.1,58.7,83.1,58.5,82.9,58.3z"/>
		<path id="Star_23_" fill="#58585B" d="M60,64.7c-0.1,0-0.3,0.1-0.4,0.2L56.8,68l-4.2-0.6c0,0-0.1,0-0.1,0c-0.2,0-0.3,0.1-0.4,0.2
			c-0.1,0.2-0.1,0.4,0,0.6l2.1,3.7l-1.9,3.8c-0.1,0.2-0.1,0.4,0.1,0.6c0.1,0.1,0.3,0.2,0.4,0.2c0,0,0.1,0,0.1,0l4.2-0.8l3,3
			c0.1,0.1,0.2,0.2,0.4,0.2c0.1,0,0.1,0,0.2,0c0.2-0.1,0.3-0.2,0.4-0.4l0.5-4.2l3.8-2c0.2-0.1,0.3-0.3,0.3-0.5
			c0-0.2-0.1-0.4-0.3-0.5l-3.9-1.8l-0.7-4.2c0-0.2-0.2-0.4-0.4-0.4C60.1,64.7,60.1,64.7,60,64.7L60,64.7z"/>
		<path id="Star_22_" fill="#58585B" d="M48.1,87.4c0,0-0.1,0-0.1,0c-0.2,0-0.4,0.2-0.4,0.4l-1.1,4.1l-4,1.4
			c-0.2,0.1-0.3,0.2-0.4,0.4c0,0.2,0.1,0.4,0.2,0.5l3.6,2.3l0.1,4.3c0,0.2,0.1,0.4,0.3,0.5c0.1,0,0.1,0.1,0.2,0.1
			c0.1,0,0.2,0,0.3-0.1l3.3-2.7l4.1,1.2c0.1,0,0.1,0,0.2,0c0.1,0,0.3-0.1,0.4-0.2c0.1-0.2,0.2-0.4,0.1-0.6l-1.5-4l2.4-3.5
			c0.1-0.2,0.1-0.4,0-0.6c-0.1-0.2-0.3-0.3-0.5-0.3c0,0,0,0,0,0L51.1,91l-2.6-3.4C48.4,87.5,48.3,87.4,48.1,87.4L48.1,87.4z"/>
		<path id="Star_21_" fill="#58585B" d="M56.1,112.7c-0.1,0-0.2,0-0.3,0.1l-3.7,2.2l-3.8-1.8c-0.1,0-0.2-0.1-0.2-0.1
			c-0.1,0-0.2,0-0.3,0.1c-0.2,0.1-0.2,0.3-0.2,0.5l0.9,4.2l-2.9,3.1c-0.1,0.2-0.2,0.4-0.1,0.6c0.1,0.2,0.2,0.3,0.5,0.3l4.2,0.4
			l2.1,3.7c0.1,0.2,0.3,0.3,0.5,0.3c0,0,0,0,0,0c0.2,0,0.4-0.1,0.5-0.3l1.7-3.9l4.2-0.8c0.2,0,0.4-0.2,0.4-0.4
			c0.1-0.2,0-0.4-0.2-0.5l-3.2-2.8l0.5-4.2c0-0.2-0.1-0.4-0.2-0.5C56.3,112.7,56.2,112.7,56.1,112.7L56.1,112.7z"/>
		<path id="Star_20_" fill="#58585B" d="M66.9,131.7c-0.2,0-0.4,0.1-0.5,0.3l-2.2,3.6l-4.2,0.2c-0.2,0-0.4,0.1-0.5,0.3
			c-0.1,0.2-0.1,0.4,0.1,0.6l2.7,3.3l-1.1,4.1c-0.1,0.2,0,0.4,0.2,0.5c0.1,0.1,0.2,0.1,0.4,0.1c0.1,0,0.1,0,0.2,0l3.9-1.6l3.6,2.3
			c0.1,0.1,0.2,0.1,0.3,0.1c0.1,0,0.2,0,0.3-0.1c0.2-0.1,0.3-0.3,0.3-0.5l-0.3-4.2l3.3-2.7c0.2-0.1,0.2-0.3,0.2-0.5
			c0-0.2-0.2-0.4-0.4-0.4l-4.1-1l-1.5-4C67.3,131.8,67.2,131.7,66.9,131.7C66.9,131.7,66.9,131.7,66.9,131.7L66.9,131.7z"/>
		<path id="Star_19_" fill="#58585B" d="M94.1,153.7l-2.2-3.6l1.7-3.9c0-0.1,0.1-0.2,0.1-0.3c0-0.3-0.2-0.5-0.5-0.5h0c0,0,0,0,0,0
			c0,0,0,0,0,0c0,0,0,0,0,0c0,0-0.1,0-0.1,0l-4.1,1l-3.2-2.8c-0.1-0.1-0.2-0.1-0.4-0.1c-0.1,0-0.1,0-0.2,0c-0.2,0.1-0.3,0.3-0.3,0.5
			l-0.3,4.2l-3.7,2.1c-0.2,0.1-0.3,0.3-0.3,0.5c0,0.2,0.1,0.4,0.3,0.5l3.9,1.6l0.9,4.1c0,0.2,0.2,0.4,0.4,0.4c0,0,0.1,0,0.1,0
			c0.2,0,0.3-0.1,0.4-0.2l2.7-3.2l4.2,0.4c0,0,0,0,0.1,0c0.2,0,0.4-0.1,0.5-0.3C94.3,154.1,94.3,153.9,94.1,153.7z"/>
		<path id="Star_18_" fill="#58585B" d="M114.9,143.5c-0.1,0-0.3,0-0.4,0.1l-3.2,2.8l-4.1-1c0,0-0.1,0-0.1,0c-0.2,0-0.3,0.1-0.4,0.2
			c-0.1,0.2-0.2,0.4-0.1,0.6l1.7,3.9l-2.3,3.6c-0.1,0.2-0.1,0.4,0,0.6c0.1,0.2,0.3,0.3,0.5,0.3c0,0,0,0,0.1,0l4.2-0.4l2.7,3.2
			c0.1,0.1,0.3,0.2,0.4,0.2c0,0,0.1,0,0.1,0c0.2,0,0.4-0.2,0.4-0.4l0.9-4.1l3.9-1.6c0.2-0.1,0.3-0.3,0.3-0.5c0-0.2-0.1-0.4-0.3-0.5
			l-3.7-2.1l-0.3-4.2c0-0.2-0.1-0.4-0.3-0.5C115,143.5,115,143.5,114.9,143.5L114.9,143.5z"/>
		<path id="Star_17_" fill="#58585B" d="M133.3,131.7C133.3,131.7,133.3,131.7,133.3,131.7c-0.3,0-0.4,0.2-0.5,0.3l-1.5,4l-4.1,1
			c-0.2,0-0.4,0.2-0.4,0.4c0,0.2,0,0.4,0.2,0.5l3.3,2.7l-0.3,4.2c0,0.2,0.1,0.4,0.3,0.5c0.1,0.1,0.2,0.1,0.3,0.1
			c0.1,0,0.2,0,0.3-0.1l3.6-2.3l3.9,1.6c0.1,0,0.1,0,0.2,0c0.1,0,0.3,0,0.4-0.1c0.2-0.1,0.2-0.3,0.2-0.5l-1.1-4.1l2.7-3.3
			c0.1-0.2,0.2-0.4,0.1-0.6c-0.1-0.2-0.3-0.3-0.5-0.3l-4.2-0.2l-2.2-3.6C133.7,131.8,133.5,131.7,133.3,131.7L133.3,131.7z"/>
		<path id="Star_16_" fill="#58585B" d="M154.6,121l-2.9-3.1l0.9-4.1c0-0.1,0-0.1,0-0.2c0-0.3-0.2-0.5-0.5-0.5h0c0,0,0,0,0,0
			c0,0,0,0,0,0c0,0,0,0,0,0c-0.1,0-0.1,0-0.2,0.1l-3.8,1.8l-3.7-2.2c-0.1,0-0.2-0.1-0.3-0.1c-0.1,0-0.2,0-0.3,0.1
			c-0.2,0.1-0.3,0.3-0.2,0.5l0.5,4.2l-3.2,2.8c-0.2,0.1-0.2,0.3-0.2,0.5c0.1,0.2,0.2,0.3,0.4,0.4l4.2,0.8l1.7,3.9
			c0.1,0.2,0.3,0.3,0.5,0.3c0,0,0,0,0,0c0.2,0,0.4-0.1,0.5-0.3l2.1-3.7l4.2-0.4c0.2,0,0.4-0.2,0.5-0.3
			C154.8,121.3,154.8,121.1,154.6,121z"/>
		<path id="Star_15_" fill="#58585B" d="M152.1,87.4c-0.2,0-0.3,0.1-0.4,0.2l-2.6,3.4l-4.2-0.2c0,0,0,0,0,0c-0.2,0-0.4,0.1-0.5,0.3
			c-0.1,0.2-0.1,0.4,0,0.6l2.4,3.5l-1.5,4c-0.1,0.2,0,0.4,0.1,0.6c0.1,0.1,0.2,0.2,0.4,0.2c0.1,0,0.1,0,0.2,0l4.1-1.2l3.3,2.7
			c0.1,0.1,0.2,0.1,0.3,0.1c0.1,0,0.2,0,0.2-0.1c0.2-0.1,0.3-0.3,0.3-0.5l0.1-4.3l3.6-2.3c0.2-0.1,0.3-0.3,0.2-0.5
			c0-0.2-0.2-0.4-0.4-0.4l-4-1.4l-1.1-4.1c-0.1-0.2-0.2-0.3-0.4-0.4C152.2,87.4,152.1,87.4,152.1,87.4L152.1,87.4z"/>
		<path id="Star_14_" fill="#58585B" d="M148.3,67.9c0-0.3-0.2-0.5-0.5-0.5h0c0,0,0,0,0,0c0,0,0,0,0,0h0h0c0,0,0,0-0.1,0l-4.2,0.6
			l-2.9-3.1c-0.1-0.1-0.2-0.2-0.4-0.2c-0.1,0-0.1,0-0.2,0c-0.2,0.1-0.3,0.2-0.4,0.4l-0.7,4.2l-3.9,1.8c-0.2,0.1-0.3,0.3-0.3,0.5
			c0,0.2,0.1,0.4,0.3,0.5l3.8,2l0.5,4.2c0,0.2,0.2,0.4,0.4,0.4c0.1,0,0.1,0,0.2,0c0.1,0,0.3-0.1,0.4-0.2l3-3l4.2,0.8
			c0,0,0.1,0,0.1,0c0.2,0,0.3-0.1,0.4-0.2c0.1-0.2,0.1-0.4,0.1-0.6l-1.9-3.8l2-3.7C148.2,68.1,148.3,68,148.3,67.9z"/>
		<path id="Star_13_" fill="#58585B" d="M127,49L127,49c-0.1,0-0.2,0-0.3,0.1l-3.4,2.5l-4-1.4c-0.1,0-0.1,0-0.2,0
			c-0.1,0-0.3,0.1-0.4,0.2c-0.1,0.1-0.2,0.4-0.1,0.6l1.3,4l-2.6,3.4c-0.1,0.2-0.1,0.4-0.1,0.6c0.1,0.2,0.3,0.3,0.5,0.3c0,0,0,0,0,0
			l4.3,0l2.4,3.5c0.1,0.1,0.3,0.2,0.4,0.2c0,0,0.1,0,0.1,0c0.2,0,0.4-0.2,0.4-0.4l1.3-4.1l4.1-1.2c0.2-0.1,0.3-0.2,0.4-0.4
			c0-0.2,0-0.4-0.2-0.5l-3.4-2.5l0.1-4.2c0,0,0,0,0-0.1C127.5,49.3,127.3,49,127,49L127,49z"/>
	</g>
	<g id="JULY_1_">
		<path id="Y_1_" fill="#58585B" d="M111.8,134.2h-1.4v-3.3l-3.2-6.9h1.4l2.4,5l2.4-5h1.5l-3.1,6.8V134.2z"/>
		<path id="L_1_" fill="#58585B" d="M106.9,132.6v1.6h-5.1V124h1.4v8.7H106.9z"/>
		<path id="U_3_" fill="#58585B" d="M99.7,130c0,2.7-1.4,4.3-3.7,4.3c-2.3,0-3.7-1.6-3.7-4.3v-6h1.4v6c0,1.7,0.9,2.8,2.3,2.8
			c1.4,0,2.3-1,2.3-2.8v-6h1.4V130z"/>
		<path id="J_1_" fill="#58585B" d="M90.4,131c0,2.1-1,3.2-2.7,3.2c-1,0-1.9-0.5-2.5-1.5l0.7-1.3c0.6,0.7,1.2,1.1,1.8,1.1
			c0.8,0,1.2-0.6,1.2-1.6v-5.5h-2.9V124h4.4V131z"/>
	</g>
	<g id="USA_1_">
		<path id="A_1_" fill="#58585B" d="M116.5,109.8l-1,3.2h-6.4l8-22.7h6.4l7.7,22.7h-6.7l-0.9-3.2H116.5z M120.2,97.8l-2,6.7h3.9
			L120.2,97.8z"/>
		<path id="S_1_" fill="#58585B" d="M108.2,92.7l-2.3,5.7c-1.9-1.3-4.9-2.7-6.5-2.7c-0.7,0-1.2,0.3-1.2,0.9c0,2.9,9.8,1.1,9.8,9.3
			c0,5.1-3.7,7.3-8,7.3c-3.3,0-7-1.3-9.5-3.6l2.3-5.6c1.9,1.9,5.3,3.5,7.2,3.5c0.9,0,1.5-0.4,1.5-1.2c0-3-9.8-1-9.8-9
			c0-4.5,3.2-7.4,8.1-7.4C102.9,90,106.1,91.1,108.2,92.7z"/>
		<path id="U_2_" fill="#58585B" d="M88.2,103.4c0,6-3.5,10-9,10c-5.5,0-9.2-3.9-9.2-10V90.3h6.3v13.1c0,2.2,1.4,3.7,2.9,3.7
			c1.5,0,2.7-1.4,2.7-3.7V90.3h6.3V103.4z"/>
	</g>
	<g id="_x34_TH_1_">
		<path id="H_1_" fill="#58585B" d="M109.5,80.5v-4.2H105v4.2h-1.4V70.3h1.4v4.4h4.5v-4.4h1.4v10.2H109.5z"/>
		<path id="T_1_" fill="#58585B" d="M99.6,71.9v8.7h-1.4v-8.7h-2.7v-1.5h6.8v1.5H99.6z"/>
		<path id="_x34__1_" fill="#58585B" d="M92.6,76.5v-2.4h1.3v2.4h1.2V78h-1.2v2.5h-1.3V78h-4.1v-1.3l2.9-6.4h1.4L90,76.5H92.6z"/>
	</g>
</g>
</svg>
