<?xml version="1.0" encoding="utf-8"?>
<!-- Generator: Adobe Illustrator 22.0.1, SVG Export Plug-In . SVG Version: 6.00 Build 0)  -->
<svg version="1.1" id="Layer_1" xmlns="http://www.w3.org/2000/svg" xmlns:xlink="http://www.w3.org/1999/xlink" x="0px" y="0px"
	 viewBox="0 0 200 200" enable-background="new 0 0 200 200" xml:space="preserve">
<g id="Cake_2_">
	<path fill="#59595C" d="M166.1,130.1h-15.5V97.3c0-3.5-2.9-6.4-6.4-6.4H84.4v-7.2H127c0.7,0,1.3-0.6,1.3-1.3V55.3
		c0-0.7-0.6-1.3-1.3-1.3H84.4v-0.8c0-0.7-0.6-1.3-1.3-1.3c-0.7,0-1.3,0.6-1.3,1.3v2.1v27.2V91H50.7c-0.8,0-1.5,0.7-1.5,1.5v37.6
		H33.9c-1.9,0-3.4,1.5-3.4,3.4v1.6c0,1.9,1.5,3.4,3.4,3.4h4.3c0,0,0,0,0,0c0.2,0.3,0.4,0.8,0.7,1.7c1.5,5,5.5,7.8,10.8,7.8h100.7
		c5.3,0,9.2-2.9,10.8-7.8c0.3-0.9,0.5-1.4,0.7-1.7h4.3c1.9,0,3.4-1.5,3.4-3.4v-1.6C169.5,131.6,168,130.1,166.1,130.1z M84.4,56.6
		h41.4v3.1h-23.3v2.1h23.3v3.3h-23.3v2.1h23.3v3.3H84.4V56.6z M84.4,72.7h41.4V76H84.4V72.7z M84.4,78.1h41.4v3.1H84.4V78.1z
		 M52.2,94h92.1c1.9,0,3.4,1.5,3.4,3.4v7.1h-16.8c-2.8,0-5.1,2.3-5.1,5.1v8.4c0,1.1-0.9,2.1-2.1,2.1c-1.1,0-2.1-0.9-2.1-2.1v-8.4
		c0-2.8-2.3-5.1-5.1-5.1H52.2V94z M147.6,107.4v8.6h-18.8v-6.5c0-1.1,0.9-2.1,2.1-2.1H147.6z M52.2,107.4h64.4
		c1.1,0,2.1,0.9,2.1,2.1v6.5H90.5c-2.9,0-5,1.9-5,4.5v2.4c0,1-0.8,1.8-1.8,1.8c-1,0-1.8-0.8-1.8-1.8v-2.4c0-2.6-2.1-4.5-5-4.5H52.2
		V107.4z M52.2,119.2h24.6c0.4,0,1.8,0.1,1.8,1.4v2.4c0,2.8,2.2,5,5,5c2.8,0,5-2.2,5-5v-2.4c0-1.3,1.4-1.4,1.8-1.4h28.3
		c0.6,2.2,2.5,3.8,4.9,3.8c2.4,0,4.3-1.6,4.9-3.8h19v10.9H52.2V119.2z M158.3,139.3c-0.8,2.7-2.9,5.8-8,5.8H49.7
		c-5.1,0-7.2-3.2-8-5.8c-0.1-0.3-0.2-0.6-0.3-0.9h117.3C158.5,138.7,158.4,139,158.3,139.3z M166.6,135.1c0,0.3-0.2,0.5-0.5,0.5
		H33.9c-0.3,0-0.5-0.2-0.5-0.5v-1.6c0-0.3,0.2-0.5,0.5-0.5h132.2c0.3,0,0.5,0.2,0.5,0.5V135.1z"/>
	<g id="Dots_1_">
		<path id="Dot_58_" fill="#59595C" d="M142.7,96.8c0,0.3,0.3,0.6,0.6,0.6c0.3,0,0.6-0.3,0.6-0.6c0-0.3-0.3-0.6-0.6-0.6
			C143,96.2,142.7,96.5,142.7,96.8z"/>
		<path id="Dot_59_" fill="#59595C" d="M132.9,96.8c0,0.3,0.3,0.6,0.6,0.6s0.6-0.3,0.6-0.6c0-0.3-0.3-0.6-0.6-0.6
			S132.9,96.5,132.9,96.8z"/>
		<path id="Dot_60_" fill="#59595C" d="M123.2,96.8c0,0.3,0.3,0.6,0.6,0.6c0.3,0,0.6-0.3,0.6-0.6c0-0.3-0.3-0.6-0.6-0.6
			C123.4,96.2,123.2,96.5,123.2,96.8z"/>
		<path id="Dot_61_" fill="#59595C" d="M113.4,96.8c0,0.3,0.3,0.6,0.6,0.6c0.3,0,0.6-0.3,0.6-0.6c0-0.3-0.3-0.6-0.6-0.6
			C113.7,96.2,113.4,96.5,113.4,96.8z"/>
		<path id="Dot_62_" fill="#59595C" d="M103.6,96.8c0,0.3,0.3,0.6,0.6,0.6c0.3,0,0.6-0.3,0.6-0.6c0-0.3-0.3-0.6-0.6-0.6
			C103.9,96.2,103.6,96.5,103.6,96.8z"/>
		<path id="Dot_63_" fill="#59595C" d="M93.8,96.8c0,0.3,0.3,0.6,0.6,0.6c0.3,0,0.6-0.3,0.6-0.6c0-0.3-0.3-0.6-0.6-0.6
			C94.1,96.2,93.8,96.5,93.8,96.8z"/>
		<path id="Dot_64_" fill="#59595C" d="M84.1,96.8c0,0.3,0.3,0.6,0.6,0.6c0.3,0,0.6-0.3,0.6-0.6c0-0.3-0.3-0.6-0.6-0.6
			C84.3,96.2,84.1,96.5,84.1,96.8z"/>
		<path id="Dot_57_" fill="#59595C" d="M74.3,96.8c0,0.3,0.3,0.6,0.6,0.6s0.6-0.3,0.6-0.6c0-0.3-0.3-0.6-0.6-0.6
			S74.3,96.5,74.3,96.8z"/>
		<path id="Dot_56_" fill="#59595C" d="M64.5,96.8c0,0.3,0.3,0.6,0.6,0.6c0.3,0,0.6-0.3,0.6-0.6c0-0.3-0.3-0.6-0.6-0.6
			C64.8,96.2,64.5,96.5,64.5,96.8z"/>
		<path id="Dot_55_" fill="#59595C" d="M54.8,96.8c0,0.3,0.3,0.6,0.6,0.6c0.3,0,0.6-0.3,0.6-0.6c0-0.3-0.3-0.6-0.6-0.6
			C55,96.2,54.8,96.5,54.8,96.8z"/>
		<path id="Dot_54_" fill="#59595C" d="M142.7,101.6c0,0.3,0.3,0.6,0.6,0.6c0.3,0,0.6-0.3,0.6-0.6c0-0.3-0.3-0.6-0.6-0.6
			C143,101,142.7,101.3,142.7,101.6z"/>
		<path id="Dot_53_" fill="#59595C" d="M132.9,101.6c0,0.3,0.3,0.6,0.6,0.6s0.6-0.3,0.6-0.6c0-0.3-0.3-0.6-0.6-0.6
			S132.9,101.3,132.9,101.6z"/>
		<path id="Dot_52_" fill="#59595C" d="M123.2,101.6c0,0.3,0.3,0.6,0.6,0.6c0.3,0,0.6-0.3,0.6-0.6c0-0.3-0.3-0.6-0.6-0.6
			C123.4,101,123.2,101.3,123.2,101.6z"/>
		<path id="Dot_51_" fill="#59595C" d="M113.4,101.6c0,0.3,0.3,0.6,0.6,0.6c0.3,0,0.6-0.3,0.6-0.6c0-0.3-0.3-0.6-0.6-0.6
			C113.7,101,113.4,101.3,113.4,101.6z"/>
		<path id="Dot_50_" fill="#59595C" d="M103.6,101.6c0,0.3,0.3,0.6,0.6,0.6c0.3,0,0.6-0.3,0.6-0.6c0-0.3-0.3-0.6-0.6-0.6
			C103.9,101,103.6,101.3,103.6,101.6z"/>
		<path id="Dot_49_" fill="#59595C" d="M93.8,101.6c0,0.3,0.3,0.6,0.6,0.6c0.3,0,0.6-0.3,0.6-0.6c0-0.3-0.3-0.6-0.6-0.6
			C94.1,101,93.8,101.3,93.8,101.6z"/>
		<path id="Dot_48_" fill="#59595C" d="M84.1,101.6c0,0.3,0.3,0.6,0.6,0.6c0.3,0,0.6-0.3,0.6-0.6c0-0.3-0.3-0.6-0.6-0.6
			C84.3,101,84.1,101.3,84.1,101.6z"/>
		<path id="Dot_47_" fill="#59595C" d="M74.3,101.6c0,0.3,0.3,0.6,0.6,0.6s0.6-0.3,0.6-0.6c0-0.3-0.3-0.6-0.6-0.6
			S74.3,101.3,74.3,101.6z"/>
		<path id="Dot_46_" fill="#59595C" d="M64.5,101.6c0,0.3,0.3,0.6,0.6,0.6c0.3,0,0.6-0.3,0.6-0.6c0-0.3-0.3-0.6-0.6-0.6
			C64.8,101,64.5,101.3,64.5,101.6z"/>
		<path id="Dot_45_" fill="#59595C" d="M54.8,101.6c0,0.3,0.3,0.6,0.6,0.6c0.3,0,0.6-0.3,0.6-0.6c0-0.3-0.3-0.6-0.6-0.6
			C55,101,54.8,101.3,54.8,101.6z"/>
		<path id="Dot_44_" fill="#59595C" d="M123.2,106.4c0,0.3,0.3,0.6,0.6,0.6c0.3,0,0.6-0.3,0.6-0.6c0-0.3-0.3-0.6-0.6-0.6
			C123.4,105.8,123.2,106,123.2,106.4z"/>
		<path id="Dot_43_" fill="#59595C" d="M123.2,111.2c0,0.3,0.3,0.6,0.6,0.6c0.3,0,0.6-0.3,0.6-0.6c0-0.3-0.3-0.6-0.6-0.6
			C123.4,110.6,123.2,110.8,123.2,111.2z"/>
		<path id="Dot_42_" fill="#59595C" d="M123.2,116c0,0.3,0.3,0.6,0.6,0.6c0.3,0,0.6-0.3,0.6-0.6c0-0.3-0.3-0.6-0.6-0.6
			C123.4,115.3,123.2,115.6,123.2,116z"/>
	</g>
	<path fill="#59595C" d="M93.7,58.6c-0.1,0-0.2,0.1-0.3,0.2L92,61.6L89,62c-0.1,0-0.2,0.1-0.3,0.2c0,0.1,0,0.3,0.1,0.3l2.2,2.1
		l-0.5,3c0,0.1,0,0.3,0.1,0.3c0.1,0,0.1,0.1,0.2,0.1c0.1,0,0.1,0,0.2,0l2.7-1.4l2.7,1.4c0,0,0.1,0,0.2,0c0.1,0,0.1,0,0.2-0.1
		c0.1-0.1,0.2-0.2,0.1-0.3l-0.5-3l2.2-2.1c0.1-0.1,0.1-0.2,0.1-0.3c0-0.1-0.1-0.2-0.3-0.2l-3-0.4L94,58.8
		C93.9,58.7,93.8,58.6,93.7,58.6L93.7,58.6z"/>
</g>
</svg>
