<svg xmlns="http://www.w3.org/2000/svg" x="0" y="0" version="1.1" viewBox="0 0 200 200" xml:space="preserve"><g><path d="M135 83.6c-.1-.3-.3-.6-.6-.7l-14-7.6c-.6-.3-1.3-.1-1.6.5l-6.7 11.5c-1-2.3-2.5-4.2-4.4-5.3-.8-.4-2.8-1.3-4.2-1.8 2.4-2.8 2.5-2.9 2.6-3 .3-.4.6-.9.5-1.7v-2.1c1.3 3.6 2.8 7.3 2.9 7.6.2.5.6.8 1.1.8.1 0 .3 0 .4-.1.6-.2.9-.9.7-1.6 0-.1-3.3-8.7-4.7-12.6l4.7-.6c.3 0 .6-.3.6-.6.1-.4-.2-.8-.6-.8 0 0-5.2-.7-5.3-.7-.1-.5-.2-.9-.3-1.4l6.7-4.8c.3-.2.4-.6.2-.9-.2-.4-.6-.5-1-.4l-7.4 3.5c-.5-.6-1-1.2-1.6-1.7l3.7-8.1c.1-.3.1-.7-.2-.9-.3-.2-.8-.2-1 .2l-5.1 7.2c-.7-.3-1.4-.5-2.1-.6 0-.1-.8-9.6-.8-9.6 0-.4-.4-.7-.8-.8-.5 0-.9.3-.9.8 0 0-.8 9.5-.8 9.6-.7.1-1.4.3-2.1.6l-5.1-7.2c-.2-.3-.6-.4-.9-.2-.4.2-.5.6-.4 1l3.7 8c-.6.5-1.1 1.1-1.6 1.7l-7.3-3.4c-.3-.2-.7-.1-.9.2-.2.3-.2.8.2 1l6.7 4.8c-.2.5-.3.9-.4 1.4-.1 0-4.9.7-4.9.7-.3 0-.6.3-.6.6-.1.4.2.8.6.8l4.7.7v5.9c0 .9.3 1.6.9 2.3.3.3 1.1 1.1 1.9 2v2.7l-5.4-5.3.4-.2c.6-.3.8-1 .5-1.6-.3-.6-1-.8-1.6-.5l-1.2.7-5.3-22.3c.6-1 1-2.3.9-3.7-.1-2.3-1.5-4.1-3.5-5v-1.8H80c.7 0 1.3-.6 1.3-1.3 0-.7-.6-1.3-1.3-1.3h-1c1-1.8 1.2-4 .3-6-1-2.2-1.2-4.3-.5-6.1.3-.7.1-1.5-.5-2-.7-.7-1.9-.8-3-.3-2.3 1-3.9 2.8-4.5 5.2.1-.2-.8-.9-1-1-.5-.2-1-.2-1.4.2-2.1 1.8-3.1 4.3-2.7 6.7.2 1.3.7 2.4 1.5 3.4h-.9c-.7 0-1.3.6-1.3 1.3 0 .7.6 1.3 1.3 1.3h5.6V42c-.3 0-.6 0-.9.1l-4 .5c-.7.1-1.1.7-1.1 1.3l1 9.7c.1.9 1 1.1 1.7 1l1.7 25.3-1.3.7c-.4.2-.6.6-.6 1.1v8.9c0 .9 1 1.5 1.7 1.1l1.9-.9c.1 2.8.3 8.7.7 11.9.1.9 1.1 1.4 1.8.9.5-.3 1.2-.7 2-1.2 1.2 2.8 1.9 8.5 1.9 11.8-.8.8-1.4 1.4-1.5 1.6-1.3 1.6-1.5 5.3-1.1 8.2.3 2.3 1 3.8 1.9 4.4.2.1.4.2.7.2.3 0 .5-.1.7-.3.7 4.4.7 11.4-.9 17.9-2.4 9.7-2.1 17.1.9 22.4.2.3.6.8 1.2.6-.1.6-.2 1.1-.2 1.6-.4 2-3.6 3.5-5.1 3.5h-4.6c-.7 0-1.2.5-1.2 1.2s.5 1.2 1.2 1.2h52.1c.7 0 1.2-.5 1.2-1.2s-.5-1.2-1.2-1.2h-6.6c-1.8 0-4.1-3-4.1-6.1v-31.1l1.4-1.2c.3-.2.4-.6.4-.9v-11c3.4-.1 6.2-3 6.2-6.4v-7.2l5.7-9.6 1.5.8c.2.1.4.2.6.2h.3c.3-.1.6-.3.7-.6l4.3-7.9c.2-.3.2-.6.1-.9-.1-.3-.3-.6-.6-.7L131 91l3.8-6.5c.2-.3.2-.6.2-.9zM69.2 31l2.2 2.9c.4.6 1.3.7 1.9.2.6-.4.7-1.3.2-1.9l-.4-.5c0-.1.1-.3.1-.4-.1-2.5.9-4.2 2.8-5.2-.5 2.2-.2 4.6.9 7 .7 1.6.3 3.3-.9 4.5h-5.1c-1.4-.8-2.3-2-2.5-3.3-.2-1.2.1-2.3.8-3.3zm37.3 53c1.3.7 2.4 2 3.2 3.7-.2.1-.5.1-.9.1-.5 0-1.3-.3-2-1.1-.3-.3-1.1-1.2-.3-2.7zm-9-22.3c-.5-.4-1.3-.2-1.7.3-1.4 2-3.1 2.9-6.3 3 .6-3.4 3.6-6 7.2-6s6.7 2.7 7.3 6.1c-2.8-.1-4.4-.6-6.2-2 .3-.4.2-1-.3-1.4zm-7.8 12.4c-.2-.2-.2-.3-.2-.6v-6c3.1-.1 5.2-.9 6.9-2.4 2.3 1.7 4.3 2.4 7.8 2.5v7.9l-.1.2c-.2.2-1.7 2-3.1 3.6-.2.2-.4.5-.4.9v.6c0 .5.3.9.8 1.1.6.3 1.9.7 3 1.2-.2.5-.4.9-.5 1.4h-.1c-4.3 1.4-8.8.9-11.2-1.3l-.4-.4v-2.7l.4.4c1.1 1.1 2.8-.6 1.7-1.7 0-.1-3.8-3.9-4.6-4.7zm-9.4.5-7.5 4-1.6-24.4.8-.1v2.3c0 .7.6 1.3 1.3 1.3s1.3-.6 1.3-1.3v-3l.6-.3 5.1 21.5zM69.2 52.1l-.8-7.3 2.9-.4c2.3-.4 4.2 1.1 4.3 3.2.1 2.1-1.1 3.6-3.4 4l-3 .5zm5.7 48.4c-.3-3.9-.5-9.4-.5-10.9l6.3-3.1c.6-.3.8-1 .5-1.6-.3-.6-1-.8-1.6-.5l-8.8 4.4v-6.3l11.3-6.1S92.9 87 96.5 90.5c.4.3 1.2.4 1.7 0s.5-1.2 0-1.7L97 87.5c.7.1 1.3.1 2 .1 1.6 0 3.3-.3 5-.7.2.5.5 1 .9 1.5-3.3 3.1-17.3 16.7-24.2 23.5-.2-3.5-.9-8.1-2.2-10.8.7-.5 1.5-.9 2.2-1.3 1.3-.8 2.5-1.5 2.9-1.8.6-.3.8-1.1.4-1.7-.3-.6-1.1-.8-1.7-.4-.4.3-1.6 1-2.9 1.8-1.4.9-3.1 2-4.5 2.8zm5.6 46.2c1.9-7.6 1.8-15.9.7-20.4 3.4-3.2 9.2-8.6 9.2-8.7.5-.5.5-1.2 0-1.7s-1.2-.5-1.7 0c-.1.1-7.1 6.7-10.1 9.6-.2-.6-.4-1.5-.5-2.8-.2-2.6.2-4.8.7-5.4 1.1-1.3 20.3-19.9 28.2-27.5 1.1.5 2.4.6 3.6.2.3 1.3.5 2.7.5 4.3v40.2l-4.8 4.2v-23.9c0-.7-.5-1.2-1.2-1.2s-1.2.5-1.2 1.2v34.5l-3.4 4.2V132c0-.7-.6-1.2-1.2-1.2-.7 0-1.2.6-1.2 1.2l.2 16.3c-1.5 1.5-12.8 12.9-17.8 17.7-2.1-4.7-2.1-11 0-19.3zm6.8 27.7h-6.9c.9-.8 1.7-1.9 1.9-3.1.3-1.5.5-3.6.5-4.2 1.3-1.2 2.8-2.8 4.5-4.4v11.7zm7.1 0h-4.7v-14.1c1.7-1.7 3.2-3.3 4.7-4.8v18.9zm3.4 0h-1V153c.4-.4 1.1-1.1 1.4-1.3 0 0 .1 5.2.1 5.6.1 1 1.5 1.3 2.1.5.4-.5 1.5-2 1.5-2v14.5c-2 .5-3.6 2-4.1 4.1zm2.6 0c.5-1.1 1.5-1.8 2.8-1.8 1.2 0 2.3.7 2.8 1.8h-5.6zm8 0c-.5-2-2.1-3.6-4.1-4.1v-17.5c.5-.8 1.1-1.6 1.6-2.4.2-.3.3-.5.3-.9v-7.7l3-2.6v29c0 2.3.9 4.5 2.2 6.1h-3zm8.8-56.8c0 2.1-1.7 3.9-3.8 4v-12.8l3.8 1.9v6.9zm9.7-18.7-.4-.2-2-1.4c-.8-1-.9-2.4-.2-3.6.6-1 1.6-1.6 2.8-1.6.1 0 .3 0 .4.1l2.3.9.2.1-3.1 5.7zm1.9-8.9c-.6-.2-1.1-.3-1.7-.3-2 0-3.9 1.1-4.9 2.8-1.3 2.3-.8 5.2 1 6.9l-5.3 9-4.5-2.3V94.3c0-1.4-.1-2.7-.4-4l7.2-12.3 11.9 6.4-3.3 5.6z"/><path d="M119.1 83.8c-.3.5-.1 1.1.4 1.4l6 3.3c.2.1.3.1.5.1.4 0 .7-.2.9-.5.3-.5.1-1.1-.4-1.4l-6-3.3c-.5-.3-1.2-.1-1.4.4zM81.8 92.9c.2 0 .3 0 .5-.1l5.2-2.4c.6-.3.9-1 .6-1.6-.3-.6-1-.9-1.6-.6l-5.2 2.5c-.6.3-.9 1-.6 1.6.2.4.7.6 1.1.6zM92.1 139.1c-.5-.5-1.2-.5-1.7 0l-7.1 7.3c-.5.5-.5 1.2 0 1.7.2.2.5.3.8.3.3 0 .6-.1.9-.4l7.1-7.3c.5-.4.5-1.2 0-1.6zM87.7 133.4c.3 0 .6-.1.9-.4l8.4-8.6c.5-.5.5-1.2 0-1.7s-1.2-.5-1.7 0l-8.4 8.6c-.5.5-.5 1.2 0 1.7.2.3.5.4.8.4zM105 107.1c.7 0 1.2-.5 1.2-1.2v-4.6c0-.7-.5-1.2-1.2-1.2s-1.2.5-1.2 1.2v4.6c0 .6.5 1.2 1.2 1.2zM96.3 75.2h1.4c.5 0 1-.4 1-1 0-.5-.4-1-1-1h-.5v-3.9c0-.5-.4-1-1-1-.5 0-1 .4-1 1v4.9c0 .3.1.5.3.7.3.2.5.3.8.3z"/></g></svg>