<?xml version="1.0" encoding="utf-8"?>
<!-- Generator: Adobe Illustrator 22.0.1, SVG Export Plug-In . SVG Version: 6.00 Build 0)  -->
<svg version="1.1" id="Layer_1" xmlns="http://www.w3.org/2000/svg" xmlns:xlink="http://www.w3.org/1999/xlink" x="0px" y="0px"
	 viewBox="0 0 200 200" enable-background="new 0 0 200 200" xml:space="preserve">
<g id="USA_Flag">
	<path id="Flag" fill="#59585B" d="M150.2,111.9V57.1c0-1-1.2-1.9-2.2-1.5c-14.2,5.5-33.3,10.5-43.9,2.8C87.2,46,70,51.8,60.5,56.9
		c-1.2-1.2-2.9-1.9-4.8-1.9c-2,0-4.2,0.9-5.3,2.6c-0.3,0.4-0.6,1.1-0.6,1.6c0,0,0,54.3,0,54.3c0,1.3,0.8,2.1,1.4,2.5
		c0,0.7,0,29.7,0,29.7c0,2,2.4,3.2,4.1,3.3c0,0,0.1,0,0.1,0c2,0,4.5-1,4.5-3.5v-29.4c0.5-0.4,0.9-0.9,1.2-1.4
		c6-3.4,21.7-9.9,41.2,1.1c7.2,4,14,5.5,20.3,5.5c11.4,0,20.8-4.9,26.4-7.9C149.6,113.1,150.2,112.6,150.2,111.9z M61.7,86.7
		c6.3-3.5,21.7-9.3,40.7,1.3c7.2,4,14,5.5,20.3,5.5c10.1,0,18.6-3.8,24.3-6.8v10.2c-12.7,6.7-26.7,11.3-43,2.1
		c-19-10.7-34.7-5.9-42.3-2.2V86.7z M147,83c-12.3,6.5-25.9,11-41.6,2.9V75.6c6.1,2.9,11.9,4,17.2,4c10.1,0,18.6-3.8,24.4-6.8V83z
		 M147,59.5v9.6c-12.3,6.4-25.8,11-41.6,2.9v-9.1c3.9,1.9,8.4,2.7,13.3,2.7C127.9,65.6,138.2,62.7,147,59.5z M102.1,61v23.2
		C84,74.8,69,79.4,61.7,83V60C70.3,55.2,86.4,49.6,102.1,61z M55.7,58.3c0.9,0,2.1,0.3,2.7,1.2V113c-0.5,1-1.8,1.3-2.7,1.3
		c-0.9,0-2.1-0.3-2.7-1.2V59.6C53.6,58.6,54.8,58.3,55.7,58.3z M56.8,145.1c-0.3,0.5-0.9,0.7-1.5,0.7c-0.4,0-0.9-0.2-1.1-0.5v-27.9
		c0.6,0.2,1.8,0.2,2.5,0V145.1z M103.9,112.9c-19-10.7-34.7-5.9-42.3-2.2v-10.2c6.3-3.5,21.7-9.3,40.7,1.3c7.2,4,14,5.5,20.3,5.5
		c10.1,0,18.6-3.8,24.3-6.8v10.2C134.3,117.5,120.3,122.1,103.9,112.9z"/>
	<g id="Stars_Group_2_">
		<path id="Star_30_" fill="#58585B" d="M82,65.2c-0.1,0-0.2,0.1-0.3,0.2l-0.9,1.8l-2,0.3c-0.1,0-0.2,0.1-0.3,0.2
			c0,0.1,0,0.2,0.1,0.3l1.4,1.4l-0.3,2c0,0.1,0,0.2,0.1,0.3c0.1,0,0.1,0.1,0.2,0.1c0.1,0,0.1,0,0.2,0l1.8-0.9l1.8,0.9
			c0,0,0.1,0,0.2,0c0.1,0,0.1,0,0.2-0.1c0.1-0.1,0.2-0.2,0.1-0.3l-0.3-2l1.4-1.4c0.1-0.1,0.1-0.2,0.1-0.3c0-0.1-0.1-0.2-0.3-0.2
			l-2-0.3l-0.9-1.8C82.2,65.3,82.1,65.2,82,65.2L82,65.2z"/>
		<path id="Star_29_" fill="#58585B" d="M91.5,58.9L91.5,58.9c-0.1,0-0.2,0.1-0.3,0.2l-0.9,1.8l-2,0.3c-0.1,0-0.2,0.1-0.3,0.2
			c0,0.1,0,0.2,0.1,0.3l1.4,1.4l-0.3,2c0,0.1,0,0.2,0.1,0.3c0.1,0,0.1,0.1,0.2,0.1c0.1,0,0.1,0,0.2,0l1.8-0.9l1.8,0.9
			c0,0,0.1,0,0.2,0c0.1,0,0.1,0,0.2-0.1c0.1-0.1,0.2-0.2,0.1-0.3l-0.3-2l1.4-1.4c0.1-0.1,0.1-0.2,0.1-0.3c0-0.1-0.1-0.2-0.3-0.2
			l-2-0.3l-0.9-1.8C91.7,59,91.6,58.9,91.5,58.9L91.5,58.9z"/>
		<path id="Star_28_" fill="#58585B" d="M95,70.5c-0.1,0-0.2,0.1-0.3,0.2l-0.9,1.8l-2,0.3c-0.1,0-0.2,0.1-0.3,0.2
			c0,0.1,0,0.2,0.1,0.3l1.4,1.4l-0.3,2c0,0.1,0,0.2,0.1,0.3c0.1,0,0.1,0.1,0.2,0.1c0.1,0,0.1,0,0.2,0l1.8-0.9l1.8,0.9
			c0,0,0.1,0,0.2,0c0.1,0,0.1,0,0.2-0.1c0.1-0.1,0.2-0.2,0.1-0.3l-0.3-2l1.4-1.4c0.1-0.1,0.1-0.2,0.1-0.3c0-0.1-0.1-0.2-0.3-0.2
			l-2-0.3l-0.9-1.8C95.2,70.6,95.1,70.5,95,70.5L95,70.5z"/>
		<path id="Star_27_" fill="#58585B" d="M68,70.7c-0.1,0-0.2,0.1-0.3,0.2l-0.9,1.8l-2,0.3c-0.1,0-0.2,0.1-0.3,0.2
			c0,0.1,0,0.2,0.1,0.3l1.4,1.4l-0.3,2c0,0.1,0,0.2,0.1,0.3c0.1,0,0.1,0.1,0.2,0.1c0.1,0,0.1,0,0.2,0l1.8-0.9l1.8,0.9
			c0,0,0.1,0,0.2,0c0.1,0,0.1,0,0.2-0.1c0.1-0.1,0.2-0.2,0.1-0.3l-0.3-2l1.4-1.4c0.1-0.1,0.1-0.2,0.1-0.3c0-0.1-0.1-0.2-0.3-0.2
			l-2-0.3l-0.9-1.8C68.2,70.8,68.1,70.7,68,70.7L68,70.7z"/>
		<path id="Star_26_" fill="#58585B" d="M72.4,58.6c-0.1,0-0.2,0.1-0.3,0.2l-0.9,1.8l-2,0.3c-0.1,0-0.2,0.1-0.3,0.2
			c0,0.1,0,0.2,0.1,0.3l1.4,1.4l-0.3,2c0,0.1,0,0.2,0.1,0.3c0.1,0,0.1,0.1,0.2,0.1c0.1,0,0.1,0,0.2,0l1.8-0.9l1.8,0.9
			c0,0,0.1,0,0.2,0c0.1,0,0.1,0,0.2-0.1c0.1-0.1,0.1-0.2,0.1-0.3l-0.3-2l1.4-1.4c0.1-0.1,0.1-0.2,0.1-0.3c0-0.1-0.1-0.2-0.3-0.2
			l-2-0.3l-0.9-1.8C72.6,58.6,72.5,58.6,72.4,58.6L72.4,58.6z"/>
	</g>
</g>
</svg>
