<?xml version="1.0" encoding="utf-8"?>
<!-- Generator: Adobe Illustrator 22.0.1, SVG Export Plug-In . SVG Version: 6.00 Build 0)  -->
<svg version="1.1" id="Layer_1" xmlns="http://www.w3.org/2000/svg" xmlns:xlink="http://www.w3.org/1999/xlink" x="0px" y="0px"
	 viewBox="0 0 200 200" enable-background="new 0 0 200 200" xml:space="preserve">
<g id="Medal_2_">
	<path id="Bar_8_" fill="#58585B" d="M118.7,133.8V118h-7.5v22.1C114.1,138.5,116.7,136.4,118.7,133.8z"/>
	<path id="Bar_9_" fill="#58585B" d="M96.3,142.6c1.2,0.2,2.5,0.3,3.7,0.3c1.3,0,2.5-0.1,3.7-0.3v-25.8h-7.5V142.6z"/>
	<path id="Bar_10_" fill="#58585B" d="M88.8,140.1V118h-7.5v15.8C83.3,136.4,85.9,138.5,88.8,140.1z"/>
	<path id="Star_58_" fill="#58585B" d="M105.5,103l-3.5-0.5l-1.6-3.2c-0.1-0.1-0.2-0.2-0.4-0.2c-0.2,0-0.3,0.1-0.4,0.2l-1.6,3.2
		l-3.5,0.5c-0.2,0-0.3,0.1-0.4,0.3c-0.1,0.2,0,0.3,0.1,0.4l2.5,2.5l-0.6,3.5c0,0.2,0,0.3,0.2,0.4c0.1,0.1,0.2,0.1,0.3,0.1
		c0.1,0,0.1,0,0.2-0.1l3.1-1.7l3.1,1.7c0.1,0,0.1,0.1,0.2,0.1c0.1,0,0.2,0,0.3-0.1c0.1-0.1,0.2-0.3,0.2-0.4l-0.6-3.5l2.5-2.5
		c0.1-0.1,0.2-0.3,0.1-0.4C105.8,103.2,105.6,103.1,105.5,103z"/>
	<path id="Star_59_" fill="#58585B" d="M89.6,106.9l-2.8-0.4l-1.2-2.5c-0.1-0.1-0.2-0.2-0.4-0.2c-0.2,0-0.3,0.1-0.4,0.2l-1.2,2.5
		l-2.8,0.4c-0.2,0-0.3,0.1-0.3,0.3c-0.1,0.2,0,0.3,0.1,0.4l2,1.9l-0.5,2.8c0,0.2,0,0.3,0.2,0.4c0.1,0.1,0.2,0.1,0.3,0.1
		c0.1,0,0.1,0,0.2,0l2.5-1.3l2.5,1.3c0.1,0,0.1,0,0.2,0c0.1,0,0.2,0,0.3-0.1c0.1-0.1,0.2-0.3,0.2-0.4l-0.5-2.8l2-1.9
		c0.1-0.1,0.2-0.3,0.1-0.4C89.9,107.1,89.8,107,89.6,106.9z"/>
	<path id="Star_60_" fill="#58585B" d="M119.5,107.2c-0.1-0.2-0.2-0.3-0.3-0.3l-2.8-0.4l-1.2-2.5c-0.1-0.1-0.2-0.2-0.4-0.2
		c-0.2,0-0.3,0.1-0.4,0.2l-1.2,2.5l-2.8,0.4c-0.2,0-0.3,0.1-0.3,0.3c-0.1,0.2,0,0.3,0.1,0.4l2,1.9l-0.5,2.8c0,0.2,0,0.3,0.2,0.4
		c0.1,0.1,0.2,0.1,0.3,0.1c0.1,0,0.1,0,0.2,0l2.5-1.3l2.5,1.3c0.1,0,0.1,0,0.2,0c0.1,0,0.2,0,0.3-0.1c0.1-0.1,0.2-0.3,0.2-0.4
		l-0.5-2.8l2-1.9C119.5,107.6,119.6,107.4,119.5,107.2z"/>
	<path id="Line_9_" fill="#59595C" d="M117.3,61.9h6.5c0.6,0,1.2-0.5,1.2-1.2c0-0.6-0.5-1.2-1.2-1.2h-6.5c-0.6,0-1.2,0.5-1.2,1.2
		C116.1,61.4,116.7,61.9,117.3,61.9z"/>
	<path id="Line_11_" fill="#59595C" d="M88.1,61.9h23.8c0.6,0,1.2-0.5,1.2-1.2c0-0.6-0.5-1.2-1.2-1.2H88.1c-0.6,0-1.2,0.5-1.2,1.2
		C86.9,61.4,87.5,61.9,88.1,61.9z"/>
	<path id="Line_10_" fill="#59595C" d="M76.2,61.9h6.5c0.6,0,1.2-0.5,1.2-1.2c0-0.6-0.5-1.2-1.2-1.2h-6.5c-0.6,0-1.2,0.5-1.2,1.2
		C75,61.4,75.5,61.9,76.2,61.9z"/>
	<path id="Medal_3_" fill="#59595C" d="M147.1,71.5c-0.3-0.7-1.6-4.5-2.9-8.2c-1.5-4.5-3.1-9.2-3.8-10.9c-0.7-1.6-2.3-2.4-3.7-2.4
		h-0.6c0,0,0,0,0,0H100H63.8c0,0,0,0,0,0h-0.6c-1.4,0-3,0.7-3.7,2.4c-0.7,1.7-2.3,6.4-3.8,10.9c-1.3,3.7-2.6,7.5-2.9,8.3
		c-1.2,2.8-0.8,5.9,1.2,8.5c0.8,1.1,16.1,21.4,19.1,25.5c-2.2,4.2-3.5,9-3.5,14.2c0,16.7,13.6,30.4,30.4,30.4
		c16.7,0,30.4-13.6,30.4-30.4c0-5.1-1.3-9.9-3.5-14.2c3.1-4.1,18.3-24.4,19.1-25.5C147.9,77.4,148.3,74.3,147.1,71.5z M63.5,53.2
		c0-0.1,0.1-0.3,0.5-0.5H100h35.9c0.4,0.2,0.5,0.4,0.5,0.5c0.1,0.3,0.2,1.4-1.8,3.9c-2.5,3.3-5.9,7.6-9.3,12.1H100H74.7
		c-3.4-4.5-6.8-8.8-9.3-12.1C63.4,54.6,63.5,53.5,63.5,53.2z M100,89.3c-3.1,0-6.1,0.5-8.9,1.3c-1.9-2.4-8-10.5-14.3-18.6H100h23.2
		c-6.3,8.2-12.4,16.2-14.3,18.6C106.1,89.7,103.1,89.3,100,89.3z M56.2,78.4c-1.4-1.8-1.7-3.9-0.8-5.8c0.2-0.4,0.5-1.4,1-2.7
		c0.3,0.5,0.6,1.1,0.9,1.6c0.9,1.2,16.3,21.7,16.9,22.6c0.2,0.3,0.6,0.5,1,0.5c0.2,0,0.5-0.1,0.7-0.2c0.5-0.4,0.6-1.1,0.2-1.7
		C75.9,92.3,60,71.2,59.2,70c-1.2-1.6-1.6-3.4-1.1-5.1c0.1-0.2,0.2-0.5,0.2-0.7c1-3.1,2.2-6.4,3-8.6c0.4,1,1.1,2.1,2,3.4
		c7.3,9.4,21.2,27.5,25.1,32.7C82.7,93.9,78,97.9,74.6,103C70.5,97.5,56.9,79.4,56.2,78.4z M100,147.3c-15.3,0-27.7-12.4-27.7-27.7
		C72.3,104.4,84.7,92,100,92s27.7,12.4,27.7,27.7C127.7,134.9,115.3,147.3,100,147.3z M143.8,78.4c-0.7,1-14.3,19.1-18.5,24.6
		c-3.3-5-8.1-9-13.8-11.4c4-5.2,17.9-23.4,25.1-32.7c1-1.2,1.6-2.3,2-3.4c0.8,2.3,1.9,5.6,3,8.7c0.1,0.2,0.2,0.5,0.2,0.7
		c0.5,1.7,0.1,3.5-1.1,5.1c-0.9,1.2-16.8,22.3-16.9,22.5c-0.4,0.5-0.3,1.3,0.2,1.7c0.2,0.2,0.5,0.2,0.7,0.2c0.4,0,0.7-0.2,1-0.5
		c0.7-0.9,16.1-21.4,16.9-22.6c0.4-0.5,0.7-1,0.9-1.6c0.5,1.4,0.8,2.3,1,2.7C145.5,74.5,145.2,76.5,143.8,78.4z"/>
</g>
</svg>
