<svg xmlns="http://www.w3.org/2000/svg" viewBox="0 0 200 200"><g><path d="M133 77.6c0-2.7-2.2-4.9-4.9-4.9h-.6v-2c0-4.1-3.3-7.4-7.4-7.4H89.3V51h-4.9v12.4h-4.5c-4.1 0-7.4 3.3-7.4 7.4v2h-.6c-2.7 0-4.9 2.2-4.9 4.9 0 2.3 1.7 4.3 3.9 4.7l7.7 64.6c.1 1.2 1.1 2.1 2.3 2.1h38c1.2 0 2.2-.9 2.3-2.1l7.7-64.6c2.4-.5 4.1-2.4 4.1-4.8zm-57.8-6.9c0-2.6 2.1-4.6 4.6-4.6h40.3c2.6 0 4.6 2.1 4.6 4.6v1.4H75.2v-1.4zm50.9 16.5l-.7 5.8H99.5v5.2h25.2l-.7 5.8H75.7l-2.6-21.5h26.3v4.8c.1-.1 23.5-.1 26.7-.1zM77.2 115l-.7-5.8h47l-.7 5.8H77.2zm45 5.1l-.7 5.8h-43l-.7-5.8h44.4zM100 146.7H81l-.5-4.5h39.1l-.5 4.5H100zm20.2-9.8H79.8l-.7-5.8h41.8l-.7 5.8zm7.9-56.8H71.9c-1.4 0-2.5-1.1-2.5-2.5s1.1-2.5 2.5-2.5h56.2c1.4 0 2.5 1.1 2.5 2.5s-1.1 2.5-2.5 2.5z"/><path d="M96.1 87.5l-2.2-.3-1-2c-.1-.1-.2-.2-.3-.2-.1 0-.2.1-.3.2l-1 2-2.2.3c-.1 0-.2.1-.3.2 0 .1 0 .2.1.3l1.6 1.5-.4 2.2c0 .1 0 .2.1.3.1 0 .1.1.2.1h.2l2-1 2 1h.2c.1 0 .1 0 .2-.1s.2-.2.1-.3l-.4-2.2 1.6-1.5c.1-.1.1-.2.1-.3-.1 0-.2-.1-.3-.2zM90.3 96.6l-2.2-.3-1-2c-.1-.1-.2-.2-.3-.2-.1 0-.2.1-.3.2l-1 2-2.2.3c-.1 0-.2.1-.3.2 0 .1 0 .2.1.3l1.6 1.5-.4 2.2c0 .1 0 .2.1.3.1 0 .1.1.2.1h.2l2-1 2 1h.2c.1 0 .1 0 .2-.1s.2-.2.1-.3l-.4-2.2 1.6-1.5c.1-.1.1-.2.1-.3-.1-.1-.2-.2-.3-.2zM84.2 88.1c.1-.1.1-.2.1-.3 0-.1-.1-.2-.3-.2l-2.2-.3-1-2c-.1-.1-.2-.2-.3-.2-.1 0-.2.1-.3.2l-1 2-2.2.3c-.1 0-.2.1-.3.2 0 .1 0 .2.1.3l1.6 1.5-.4 2.2c0 .1 0 .2.1.3.1 0 .1.1.2.1h.2l2-1 2 1h.2c.1 0 .1 0 .2-.1.1 0 .1-.1.1-.3l-.4-2.2 1.6-1.5z"/></g></svg>