<?xml version="1.0" encoding="utf-8"?>
<!-- Generator: Adobe Illustrator 22.0.1, SVG Export Plug-In . SVG Version: 6.00 Build 0)  -->
<svg version="1.1" id="Layer_1" xmlns="http://www.w3.org/2000/svg" xmlns:xlink="http://www.w3.org/1999/xlink" x="0px" y="0px"
	 viewBox="0 0 200 200" enable-background="new 0 0 200 200" xml:space="preserve">
<g id="Corn_1_">
	<path id="Corn" fill="#59595C" d="M137.2,87.8c-0.3-0.9-1.3-1.9-3.7-1.9c-0.9,0-1.9,0.1-3,0.4c-2.2,0.5-8.1,2-14.2,5.9
		c0-8,0-14.2-0.2-17.5c-0.3-6.4-0.8-11-3.6-16.6c-1.8-3.6-4-6.8-6-8.6c-1.2-1.1-2.4-1.5-3.9-1.5l-5.1,0c-1.6,0-2.8,0.5-3.9,1.5
		c-2,1.8-4.2,5-6,8.6c-2.8,5.7-3.2,10.3-3.6,16.6c-0.2,3.3-0.3,9.4-0.2,17.5c-6.1-3.8-12-5.4-14.2-5.9c-3.5-0.8-5.7-0.3-6.6,1.3
		c-0.5,1-0.6,2.8,2,5.3c5.4,5.1,14.3,18.3,15.5,32.3c1,12.3,5.5,19.3,13.5,21.3v1.9c0,1.9,1.5,3.5,3.5,3.5h5.1
		c1.9,0,3.5-1.5,3.5-3.5v-1.9c8.1-2.1,12.5-9.1,13.5-21.3c1.2-14,10.1-27.3,15.5-32.3C137.1,91,137.8,89.3,137.2,87.8z M108.7,98.3
		h-3.5c0-1.8,0-3.8,0-6h7.8c0,0.7,0,1.4,0,2.1C111.6,95.6,110.1,96.9,108.7,98.3z M100,110.3c-0.6-1-1.2-2-1.8-3h3.6
		C101.1,108.3,100.5,109.3,100,110.3z M89.1,62.4h5.6c-0.1,1.7-0.1,3.6-0.1,5.8c0,0,0,0.1,0,0.1h-6.9C87.9,66.3,88.4,64.4,89.1,62.4
		z M97.6,54.9h4.9c0.3,1.1,0.6,2.2,0.7,2.6c0.3,0.9,0.4,2.1,0.5,3.4h-7.3c0.1-1.3,0.3-2.4,0.5-3.4C97,57,97.3,56,97.6,54.9z
		 M98.5,51.2l3,0c0.2,0.6,0.4,1.4,0.6,2.2H98C98.2,52.6,98.4,51.8,98.5,51.2z M103.8,62.4c0.1,1.7,0.1,3.6,0.1,5.8c0,0,0,0.1,0,0.1
		h-7.8c0,0,0-0.1,0-0.1c0-2.2,0-4.2,0.1-5.8H103.8z M112.3,68.3h-6.9c0,0,0-0.1,0-0.1c0-2.2,0-4.1-0.1-5.8h5.6
		C111.6,64.4,112,66.3,112.3,68.3z M87,77.4h7.6c0,1.9,0,3.9,0,6h-7.8C86.9,81,86.9,79,87,77.4z M96.1,77.4h7.7c0,1.9,0,3.9,0,6
		h-7.7C96.2,81.3,96.2,79.2,96.1,77.4z M112.9,74.9c0,0.3,0,0.6,0,0.9h-7.6c0-2.5,0-4.5,0-6h7.1C112.7,71.4,112.8,73.1,112.9,74.9z
		 M103.9,75.8h-7.7c0-2.5,0-4.5,0-6h7.8C103.9,71.3,103.9,73.4,103.9,75.8z M105.4,77.4h7.6c0,1.6,0.1,3.7,0.1,6h-7.8
		C105.4,81.3,105.4,79.2,105.4,77.4z M113.1,84.9c0,1.8,0,3.8,0,6h-7.8c0-2,0-4,0-6H113.1z M94.6,69.9c0,1.4,0,3.5,0,6H87
		c0-0.3,0-0.6,0-0.9c0.1-1.8,0.2-3.5,0.4-5.1H94.6z M86.9,84.9h7.8c0,2,0,4,0,6h-7.8C86.9,88.7,86.9,86.7,86.9,84.9z M96.2,84.9h7.6
		c0,2,0,4,0,6h-7.6C96.2,88.9,96.2,86.9,96.2,84.9z M103.8,92.4c0,2.1,0,4.2,0,6h-7.5c0-1.8,0-3.8,0-6H103.8z M103.8,99.9
		c0,2,0,3.6,0,4.6c-0.3,0.5-0.7,0.9-1,1.4h-5.5c-0.3-0.5-0.6-0.9-1-1.4c0-0.2,0-2,0-4.6H103.8z M94.7,102.4
		c-0.7-0.9-1.4-1.7-2.2-2.6h2.1C94.7,100.9,94.7,101.7,94.7,102.4z M105.3,99.9h2.1c-0.7,0.8-1.4,1.7-2.1,2.5
		C105.3,101.7,105.3,100.8,105.3,99.9z M110.3,60.8h-5.1c-0.1-1.4-0.3-2.7-0.6-3.8c-0.1-0.4-0.3-1.2-0.6-2.2h2.9
		c1,1.4,1.9,3,2.7,4.6C109.9,60,110.1,60.4,110.3,60.8z M105.8,53.4h-2.2c-0.2-0.8-0.4-1.5-0.6-2.2c0.4,0.1,0.9,0.2,1.3,0.7
		C104.8,52.3,105.3,52.8,105.8,53.4z M95.6,51.9c0.5-0.4,0.9-0.6,1.3-0.7c-0.2,0.7-0.4,1.4-0.6,2.2h-2.2
		C94.7,52.8,95.2,52.3,95.6,51.9z M93.1,54.9H96c-0.3,1-0.5,1.8-0.6,2.2c-0.3,1.1-0.5,2.3-0.6,3.8h-5.1c0.2-0.4,0.4-0.9,0.6-1.3
		C91.2,57.8,92.1,56.2,93.1,54.9z M86.9,92.4h7.8c0,2.2,0,4.2,0,6h-3.5c-1.4-1.5-2.9-2.8-4.4-4c0-0.1,0-0.1,0-0.2
		C86.9,93.6,86.9,93,86.9,92.4z M83.6,125c-1.1-13.3-9.3-27.6-16.4-34.4c-0.7-0.7-0.8-1.8,1.7-1.2c2.9,0.6,12.8,3.3,20.2,11.1
		c3.6,3.9,6.8,8.3,9.3,13.2c-1.4,2.8-2.5,5.8-3.4,8.7c-2.2-6.9-5.4-13-9.3-17.4c-0.4-0.4-1-0.5-1.4-0.1c-0.4,0.4-0.5,1-0.1,1.4
		c4.2,4.8,7.7,11.9,9.8,19.9c-0.6,2.6-1,5.1-1.2,7.6c-0.4,5,1.1,8,2.5,9.8C88.1,142,84.5,136.2,83.6,125z M102.6,148.8h-5.1
		c-0.2,0-0.3-0.1-0.3-0.3v-1.4c0.1,0,0.3,0,0.4,0c0.2,0,3.8,0,4.9,0c0,0,0.3,0,0.4,0v1.4C102.9,148.7,102.7,148.8,102.6,148.8z
		 M132.9,90.6c-7.2,6.8-15.3,21.1-16.4,34.4c-1,12.2-5.2,18-13.5,19c-0.2,0-0.3,0-0.5,0c-0.6,0-2.8-0.1-4.6-2
		c-1.6-1.7-2.3-4.4-2.1-7.9c0.9-11.9,6.6-24.4,15.2-33.6c7.4-7.8,17.3-10.5,20.2-11.1C133.7,88.9,133.6,90,132.9,90.6z"/>
	<path id="Leaf_Line" fill="#59595C" d="M114.4,105c-7,8-11.6,20.8-12.3,34.3c0,0.6,0.4,1,1,1.1c0,0,0,0,0.1,0c0.5,0,1-0.4,1-1
		c0.8-15.4,6.6-27.2,11.8-33.1c0.4-0.4,0.3-1.1-0.1-1.4C115.4,104.6,114.8,104.6,114.4,105z"/>
</g>
</svg>
