<svg xmlns="http://www.w3.org/2000/svg" viewBox="0 0 200 200"><g><path d="M181.2 131.1c.2 0 .2-.4.2-.5-.5.1-.2.6-.2.5zM177.2 132l.1-.1-.6.4zM173.5 132c.3.7 1.3-.1 2 .1l.1.2.3-.6c-.8.1-1.8.5-2.4.3zM171.6 130.5c.1.3-.4.2.5.1 0 0-.1 0-.1-.1h-.4zM171.9 130.5c.4-.1-.2-.3 0 0zM170.1 130.6l.5-.3c-.1-.2-.6-.2-.4-.3-.5.2-.4.4-.1.6zM169.7 131.2l.3-.1c-.1-.1-.2-.1-.3.1z"/><path d="M170.5 130.8l-.6.2c.1.1.1.4.3-.1-.1.3 0 .1.3-.1zM170.8 130.9c.3.2.7.3.1.5 1 0 .9-.6-.1-.5zM173.3 132.8l.4.2.3-.2c-.1.1-.7-.2-.7 0zM167 130.3c0 .2.2.4.2.6l.4-.2c-.3-.1-.6-.2-.6-.4zM167.2 130.9l-.6.3c.5 0 .6-.2.6-.3zM169.6 132l.9-.6-1.1.6zM164.8 130.2l.3-.3-.6.5zM163.4 130.3c.2-.3-.3-.5-.1-.7-.4.1-.7.3-1 .5.3-.1.6 0 1.1.2zM161.8 130.5c.2-.1.3-.2.5-.3-.2 0-.4.1-.5.3zM165.6 131.1c0-.1-.1-.3-.4-.4l.2.4h.2zM165.4 131.1l-.5-.1zM165.7 131.1zM168.1 131.6c-.3.2-1 .5-.4.9.3-.3-.1-.6.4-.9zM166 131.6l.6.1c0-.1-.1-.3 0-.4l-.6.3zM165.7 131.7l.3-.1h-.3zM162.8 130.9c-.3.2-.5.2-.9.2.3.1.7.1 1 .1.1-.1.3-.3-.1-.3zM164.1 131c-.1.1 0 .1 0 0zM158.8 131.1v.1-.1zM163 131.3c.3.1.4 0 .6-.2-.2.1-.4.2-.6.2-.1 0-.1.1 0 0zM160.9 130.7c.1.1.3.2.4.2-.1-.1-.4-.3-.4-.2zM163.9 130.9c0-.1 0 0 0 0zM163.9 130.9l-.3.3c.2 0 .3-.1.4-.1 0-.1-.1-.1-.1-.2zM157.8 133.9c0-.4.7-.8 1.3-.3.6-.3.2-1.6-.3-2.4 0 .2 0 .3-.6.6.2.2 1.3.5.8.9-.8.2-.6-.1-1-.4.3.5-1 .7-.8 1.5l.7-.3c0 .1-.3.3-.1.4zM160 131.2l.2-.1c-.3-.1-.5-.2-.8-.5-.4.2-.5.3-.5.5l1.1.1zM161.3 131.2c-.2.4-.8.6-.4 1.1.7 0 .5-.4.9-.6-1.1.2.3-.2-.5-.5.2 0 .4 0 .6-.1-.2-.1-.4-.1-.6-.2 0 .1.1.1 0 .1v.2c-.3-.1-.1-.1.1-.2v-.1l-1.2.2c.2.2.6.1 1.1.1zM167.1 133.4v-.1c-.1.1-.1.1 0 .1zM166.6 133.1c.1-.1.2-.2.4-.2.2.1 0 .2 0 .4.2-.1.6-.3.1-.5l-.1.1c-.5-.2-1.1-.7-1-.8.2.4.3.7.6 1zM163.9 132.3l-1 .2.5.4v-.2c.6 0 .5-.2.5-.4zM158.7 130.9l.1-.5-.6.7zM157.4 131l.1-.4-.4.2zM86.7 136l-.3.1c.1 0 .2-.1.3-.1zM88.7 136l.1-.2c-.1.1-.1.2-.1.2zM126.6 131c-.4-.4-.9-1-.8-.5l.1.4c.3 0 .5 0 .7.1zM105.6 133.7l.1.1.3-.4zM105.3 135.5l-.5-.3c0 .1.2.2.5.3zM75.5 136.5l-.3.5c.5-.1.2-.3.3-.5zM144.6 131.1c-.4-.2-.6-.2-.9-.3.4.3.8.7.9.3zM87.5 131.3c-.2.1-.2.2-.2.3.1-.1.2-.2.2-.3zM142.7 130.9c.1 0 .1.1.2.1.3-.1.5-.1.8-.1-.3-.2-.7-.3-1 0zM34.9 136.1c-.1 0-.1 0 0 0-.1 0-.1 0 0 0zM23 131.6h.5c-.1-.1-.2-.1-.5 0zM152.4 130.8c.2-.1 0-.1 0 0zM153.7 132.5c-.1.1-.1.1-.1.2 0-.1 0-.1.1-.2zM140 133.6c.1.1.1.1 0 0zM152.8 131c-.1-.1-.2-.1-.3-.1 0 0 .1 0 .3.1zM152.7 130.8h.2c.1-.1.1-.1-.2 0zM152 130.8h.4c-.1 0-.1-.1-.1-.1l-.3.1zM56.6 134.9c-.3.1-.2.1 0 0zM119.7 135.6zM118.8 135.9c.4-.6.6-.5.9-.4l-.3-1.3-.6 1.7z"/><path d="M81.8 136.1l.7.4c-.8.7-1.4.4-.8 1 .1-1.4 2.6-.1 2.7-1.5l.4.3c-.1 0-.1.1-.3.1.9.7.6-1 1.7-.8.4.1.7.3.4.5l.9-.3c.3 0 .2.3-.1.2l1.3-.1c.2-.2.6-.6.8-.7.3.2-.2.1-.1.3l.7-.3c.3.4-.3.7-.8.7.7 1.4.6-.4 2.1.5l-.7.2c.4.8 1 .5 1.8 1-.2-.3-1.6-1.2-.8-1.6.2.1.5.2.9-.1 0 .5.4.4.9.3v.7c.6-.2.5-.5.8-.8.6.1.8.6.9 1 1 .1-.7-.8.5-.9.8.3 1.4 0 2.4-.4.6.2-.1.4.1.6l.5-.5c.1 0 .1.2.1.3.4-.2 0-.7.7-.8.2-.7 1.4 1.1 2.3.2.2.2-.1.4 0 .7 1.2-.5 1-.4 2-1.1l.8.4c-.6-.5.2-1.1.8-1.5l-.5-.5 1.1-.4c.1.1 0 .3-.2.6l.2-.2c.4.2.2.6-.1 1l-.4-.4c-.3.4-.5.8-.5 1.2.1-.1.2-.1.3-.2-.1.1-.1.2-.1.3 0 .1.1-.1.3-.2l.2.7.1-.3 1.4.5c1-.7 1.9-1.8 3.5-2.1-.4.5-.1.9-.1 1.5-.4-.7-1.2.3-2.1.2.4.1.3.4.2.5l1.5-.6c0 .5.3.4.7.6-.3-1 1.1-.7 1.7-1 0 .3-.1.7-.8.6.8.8 1-1.2 1.8-.5-.2 0-.3 0-.3.1.4-.3 1.4-.1 1.2.2h-.2c1.2.1 3.6 0 3.8-.9 0 .1-.2 1-.2 1.2l2.1-2.9c-.2.7.5 2.5-.5 2.9.3.1.6.2 1.2 0-.2-.1-.5-1.1-.2-1.1.7.8.5.4 1.4 1.2-.3-.2 0-1.3.5-1.3-.1.2 0 1.2-.1 1.3l1.1-1.1c-.3.2-.1 1 .2 1.3-.1-.2 1 0 1.3-.1l-.5-.3c1.3.2 1.3-1.6 2.5-1.6-.2.2-.4 1.5.3 1.6.3-.6 1.3-2.8 2.4-3.3l.2.3.9-.4c-.5.9-2 2.8-2.9 3.5.5.3.1.4.8.4.3.3-.4.5-.6.5l1.7.2c-.1-.7 1.3-.7 1.2-1.3l-1.8.7c-.1-.7 1-2 2.2-1.8.3.3-.2 1.2-.2 1.5.2-.2 1.1-.5 1.2-.3l-.5.4c.7.3 1.1-.9 1.9-.3.3 0 .8.9.9.5-.4-.8-.5-3.2-.2-3.8.1.1 1.4.8 1.7 1.1.4.6-.7 1.5-.3 2 0-.2.3-.4.4-.5.3.2-.1.6.5.5.1-.7 1.3.1.3-.6.6-.2.6.1 1.4.1-.2-.5.6-1.5 1.2-1.7 0 .2.1.4.2.5 1.2.1 1.9.4 3.1.4.1.2.7.4.4.7.2-.1.3-.4.7-.4.7.6-.8.1-.3.8 0-.4.9-.6 1.4-.8-.2-.6-1.2-.1-1.7.1 0-.9.9-1.8 2.1-2.2 1-.2.4.6.6.4 1.8.2 1.5-1.5 3.1-.9.6.5 0 1.1.2 1.5-.8.2-1.2-.3-1.7-.3l.7.3c-.3.2-.8.3-1.1.2.5.5 3.1.1 4.5.5.2-.2.7-.4.5-.6l-.4.1c-.4-.4.8-.6.3-.8.6-.3 1.3-.8 2.1-.6l.2.6c0-.2-.5-.4-.8-.2.3-.3 1.3.8 1.7 0l-.6-.4c.6-.3 1.3-1 2.1-.8-.3-.6-.2.1-.7-.7.5.9-1.9 0-1.2.9-.5-.8-.9-.4-1.6-1.1 0 .2.3.4-.4.3 0 .1-.1.1-.1.2.1.1.3.2.3.3-.3.5-1.3.5-1.6.7-.4-.1.2-.2 0-.5l-.5.4c0-.5-1-.8-.1-1h-.8c-.5-.3-1.1-.4-1.5-.2-.4-.1-.9.5-.6.1l-1.2.3v-.1c-1.2-.1-2.5.8-3.9-.1-.4.1-.8.3-1.5.1l-.1-.4c-.5.1-1.6-.4-1.8 0-.6-1.1-2.5-.2-3.5-.4v.5c-.6 0-1.2.1-2 .3v.5c-.7.4-1.7-.3-2.8-.3.1-.2.3-.1.5 0-1.3-1-2.7.8-3.9 0-.3.2-.5.1-.7 0h0c-.1-.1-.3-.2-.4-.2.1.1.2.2.3.2-.2 0-.6.1-.9.2l-.1-.5h-.1c-.3-.2-.3.2-.1.6-.2.1-.3.2-.4.3-.3-.8-.9.3-1.2-.6-.2.4-1.7.3-1.8 1.2 0-.1-.1-.2.1-.2-.4-.1-.7-.2-1.1 0l-.2-.6-.8.8c-.5-.4-.7-.6-.2-1.1-1.2.7-1 .3-2 1v-.4c-.4 0-.9.6-1.1.2-.8-.8-4-.1-6-.8.4 1.2-1-.5-1 .4-.1-.3-.4-.4-.1-.7-1 .3-1.6-.4-2.3.3-.1-.3.2-.4.1-.6-.1.1-.3.2-.4.1-.1-.2.2-.2.3-.4-1.1 0-1.2.9-1.3 1.7-.5-.4-.8-.3-1.2.2-.2-.3-.5-.5.2-.6-.4 0-2.3-.4-2.3.3-.1-.2-.5 0-.6 0-.8 0-.9-.1-1.7 0l.2.1c-.3.8-.7.2-1.4.3v-.1c-1.5-.6-.7.3-2.2-.4l.1.5c-.1 1.1-1.3-.6-2.2-.2l.3.3c-.5.4-1.3-1.4-1.8-1.6-.1-.1.2-.1.3-.2-1.3-.6-.2.6-1.1.8-.2-.3.2-.9-.4-.9-.3-.3-1.8 1.1-2.7.5.2.3.4.5-.1.7-.7.1-1.8-1-2.4-.2-.1-.1-.1-.1-.1-.2-.5.2-1.7.4-2 .8-.5-1.7-3.2.8-3.2-.7l-1.6.1v-.2c-1-.1-1.4.3-1.7.6-.2-.1-.1-.3 0-.3-1.5-.3-1.6-.2-2.8.5l-.1-.5c-.3.3-2.1-.8-3.5-.2 0-.1 0-.2.2-.2-1.6.6-3.9-1.4-4.5.4l-1.1.5c1.4.1-.2.8.4 1.1-.5.1-1.4-.6-.7-.7l.1.1c.2-1-1.7-.3-1.7-1-2.7 0-5.3-.5-7.9-.5l.3.7h-.9c-.2-.2-.3-.6.3-.6-.3-.4-1.1.4-1.1.5-1.2-.3.5-.9.1-.9l-.5.1.1.1c-.4.3-.5.6-1.2.6-.5-.2-.2-.5-.4-.5 0-.1-.1-.1-.3 0l-1.1-.1.4.6c-.5.3-1 0-.5.6-.8-1-4.2-.4-4.6-.7-.7.4-1.4.4-2.2.4.2.1.3.8-.4.7.3-1.4-1.3-.6-1.9-1.6.5.7-2.1.2-1.2 1.1-.6-.1 0-.5-.5-.8-1.5.5-3.2-.3-5-.2 0 .2.3.5-.1.7l-.9-.9c-.4.1-.3 1-1 .4.1.2.2.4 0 .4-3.5-.9-7.2.7-10.7-.9.5.3.2.4-.2.4.2.1 0 .4 0 .7l-1.5-.7c-.3.7-1.6 0-1.8.7l.5-.1c-.6.8.9 1.7.8 2.7.7-.9 1.9 1.3 3 0 .3.2-.2.3-.1.5.3-.4.6-.5 1.3-.3l-.1.1c1.8-.1 2.6.3 4.7.6l-.2-.5c.4.1.5.2.7.3.5-.7-1.2 0-.8-.8.6 1 3.1 0 3.5 1.1.7 0-.2-.6.5-.6l.2.3.2-.4c.4.1.7.4.7.7-.1 0-.3.1-.4.1.6.4 1.6-.1 1.8 0l-.7-.2c1.9-.3 4.1.1 5.9-.5l-.1-.2c1.4-.4 1.1.3 2.6.1l-.1.1c.3-.2.7-.3 1.1-.3-.4.3.7.5.2.8 1.5-.5.7-.4 1.7-1.2l.2.4c.3-.3.4-.5 1.1-.6-.6.3.5.6-.2 1 1.6.8 2.4-.8 3.1.4.7-1.1-1.4-.6-1-.8-.3-.3.6-.8 1.1-.7.5 0 .9 1.3 2.1 1.3-.1 0-.1.1-.3.1.5.3.9-.4 1.5.1.3-.6.8 0 .9-.8l-1.2.2c.7-.2 1.3-1.2 2.4-.7-.1.2-.4.4-.6.5.3.2.6-.2.9.1-.1.8-1.4.2-2.1.8.3.3 1.3-.6 1 .3.5-1.1 1.3.1 2.1-.7l-.1.5c.1-.1.4-.3.7-.3l-.5.6c.7-.5 1.3.5 2 .2-1.4 0-.3-.6-.9-.9 1.7-.6 1 1.3 2.9 1-.3.1-1-.3-.6-.5.4.1.9.3 1.1.5 1.3-.1-.2-.5.3-.8.4.6.6-.2 1.2-.4v.5c1.5.3.4-1 1.7-.6l-.6.7.7-.2-.1.6c.7-.4 1-.3 1.7-.2-.2-.3.1-.9.7-.9.4.3-.2.5.7.4-.2.3-.4.7-.8.2 0 .2-.2.3-.2.5.5.3 1.2.1 1.5.1-.1 0-.3 0-.4-.1l1.3-.7c.2.2 0 .3-.1.5.3-.1.5-.3.9-.3-.1.4-.1.8-.6 1l1.3-.4c.1.2.7.5.5.6.7.2 1.7-.8 2.7-.5 0-.1.1-.2.3-.2.9.1 1.7.6 2.7 0l.6.7c.8-.2-.8-.9.6-1.2 1-.2.4.6.7.8.5-.4 1.3-1.1 2.2-.5-.2 0-.4-.1-.7-.1zm10-.3c-.2.1-.6.4-.7.1.2-.5.4-.3.7-.1zm15.2-1.2c-.1.2-.4.1-.6-.1.2 0 .4 0 .6.1zm42.5-3.4c-.1 0-.1 0 0 0-.5-.2-.3-.1 0 0zm.9.2c.1-.1.1-.1 0-.2-.1.1-.3.1-.5.1.1.1.2.2.5.1zm-96.6.2l.2.1c-.4.2-.3 0-.2-.1z"/><path d="M105.3 135.3c-.1-.1-.1-.2-.1-.3-.1.1-.1.2.1.3zM75.5 136.4zM136.4 135.6c-.2-.1-.3-.2-.4-.3.1.1.1.2.4.3zM155.1 130.5l-.6.1c.3 0 .4.1.5.2 0-.1-.1-.2.1-.3zM160.1 133.6c.1-.1.2 0 .3-.1v-.2c-.4 0-.7.2-.3.3zM155.7 132.2c0 .4.4.3.8.2h-.1c.1-.6-.3-.4-.7-.2zM156.6 132.4h.4c0-.3-.2-.1-.4 0zM151.5 131.1c.2.1.1-.5.2-.4.2-.5-1.3.7-.2.4zM156 133.6l-.2-.6-.2.5zM152.8 133.2l.6.1c0-.1.1-.1.2-.2-.4 0-.8-.1-.8.1zM153.6 133.1c.2 0 .4 0 .5-.1-.1.1-.3.1-.5.1zM155.1 133.7l-.2-.1h-.4zM145.9 133.1l-.7.1c-.1.2.1.3.4.2.1-.1.4-.2.3-.3zM148 134.5c-.2-.1-.2-.2-.3-.4v.6l.3-.2zM145.9 134.6c-.1.2-1 .5-.1.5.1-.2.8-.3.1-.5zM135.3 133.8h.2v-1zM126 136.3c.8.2.2-.6 1-.3.2-.2-.6-.3-.4-.5-.6.3-.8.1-.6.8zM126.5 135.5c.1 0 .2-.1.3-.2-.2.1-.2.2-.3.2zM21.1 131.1l-.6-.3.4.4zM20 131.8l-.1-.7-.3.6c.1 0 .3 0 .4.1zM93.3 137.1v-.2c-.1-.2-.2-.2-.5-.2l.5.4zM86 136.6h.1l-.2-.6zM79.9 137.4c.2 0 .5-.1.8-.1-.5.1-.9-.7-.8.1z"/><g><path d="M175.8 118.8l-.1-.5-.8.6zM167.7 118.3c-.7.5-2.1.8-2.1 1.8l1.3-.9c.2.7 1 .7 1.8.4h-.9c.2-.1.1-.6.3-.7 1.3.4 1.7-.6 2.9.2l-.1.1 1-.5c.3.1.2.5.1.6.9-.4 1.5-.8 2.7-.7-.9-1.3-2.6 1-3.5-.3l.1-.1c-1.1.6-2.4-.3-3.6.1zM172 119.4c-.1.1 0 .1 0 0zM125.2 117.5v.2c0-.1.1-.1 0-.2zM139.5 120.2c-.2.2-.1.2 0 0zM47.4 117.8l-.3-.3c.1.3.2.4.3.3zM28.2 117.6zM37 121.7v0zM30.7 122.2c-.2-.1-.3-.1-.5-.1.2.2.4.2.5.1zM28.4 117.5c-.1 0-.1.1-.2.1.1 0 .1-.1.2-.1zM46.3 122.2l.2.7c0-.2-.1-.5-.2-.7zM29.2 122.8c-.1-.1-.2-.2-.3-.2.1.1.2.2.3.2zM166.4 118.4c.2 0 .4 0 .6-.1-.2-.1-.4 0-.6.1zM81.3 122.8c0 .1-.1.2-.1.3.1-.1.1-.2.1-.3zM60.8 122.7v.1-.1zM66.8 122.6s-.1.1-.1.2c0-.1.1-.1.1-.2zM56.3 123.5l-.2.2.2-.2z"/><path d="M51.9 122.7c.2.3 0 .5-.2.7 1.1.3 1.4-.5 2.6.1l-.5-.3c.7-.5 2.1-.6 2.7.1l-.2.2c.7-.6 1.8.5 2.1 0-.3-.3 0-.5-.4-.8l1.8-.6.1.9.9-.3c-.2-.4 1.2.3 1.3-.6.5.3-.2.7-.4 1.1.5-.3.6.1 1.1-.4l.5.8 1.4-.6c-.1.1 0 .1 0 .2.6-.7 1.6.4 2.4-.8v.1c.4-.7 1.5-.2 1.9 0 .7-.2.3-.8.3-1.1 2 .2 1.4.2 3.1-.8 1 1-1.2 1.7.1 2.4.2-.5 1.1-.9 2.1-1.1.9.4 2.5.6 3.4 1.3l-.1-.7 1.3-.4-.7 1c.2-.2.9-.7 1.3-1 1.4-.6.8 1.5 1.8.4 0 .1.1.1.1.2.3-.5 1.2-.3 2.2-.5l-.4.9-.7-.2c.4.8 1.1-.1 1.7-.1.7-.3.3-1 .7-1.3.2 0 .6-.2.8 0 .6.3.1 1-.1 1.4.5-.9.7-.8 1.8-1.1.1.4 0 .6-.2.7.2-.1.5-.3.6-.7l.4.5c1.3.7 1.3-1.6 2.8-1.3-.4.5 1.3-.1 1.8.4-.5.1.3 1.3-.1 1.8 1.2.3.5-1 1.5-1.2l-.4 1.1c1-.5.2-.6 1.2-.9-.3.3.4.3-.1.6 1.3.1 1 0 2.1.1l.1-1c.4-.1.5.3.6.5-.2 0-.4 0-.4.1.4.9.7-.5 1.2.3-.1-.3-.3-.8.2-.9-.1.6.7.6.8.9-.3-.4 1-.2 1.1-.9.5.5-.2.5-.2.9.4-.8 1.9-.1 2.3-.6v.2c.6-.5 1.5-.6 2.7-1.3l-.4.6c1.2.3.7-1.3 1.7-1.3-.2.9 1.6-.1 1.2.9.6-.5 1.2-.7 1.6-1.5.5.5-1 1.2-.3 1.4l.8-.5.1.5c0-.3.7-.4.7-.6.1.6.5.9.4 1.4.5-.2 1.2.4 1.7-.1v.3c.5-1 1.6-.2 1.8-1.3l.3.6c.8-.1.6-1.2 1-1.4.3 0 .7-.2 1-.1-1 .7.5.8.7 1.2.4 0 1.6-.1 1.9-.6-.5.5-.2 1-1.1 1 .5 1 1.3-.2 2.3-.1v.5c1.4-.3 1.4-1.2 2-2 .2.6 0 .8-.4 1.4.9.4 2.4 0 3.4 0 .3.4.1.7-.2.9 1.1-.5 2.4.1 3.1-1-.3.4.4.3.8.5 0-.2.1-.5.1-.5.7-.4 2.1-.8 2.9-.5l-.3.3c1.8.2 2.6-1.7 4.5-.9.3.2-.4.9.4.8.3-.4.2-1.2 1.1-1l-.1.7.6-.7c-.3-.6-1.3-.4-.6-1 .8.6.7-.6 1.7.1-.2.1-.5.6-.7.9 2.1.8 2.9-.7 5 .2 1-.6 2.4-.7 3.1-1.2-.1.7-.1 1.3-.5 1.9.9.1 1.3-1.5 1.9-.5.4-1 2.5-.6 2.7-1.9 0 .3 1 0 0 .8 1.2-.4 1.6 1.2 2.2 1.2.3 0-.4-.8.4-.9.1.1.1.2.2.2l.3-.3c.3.3-.3.7-.3 1 1 .3 1.6-.8 2.8-.9l-.2.2h1.2l-.1.1 1-.5v.3c.2-.1.3-.3.6-.4l-.1.4c.3-.7 1.5-1 2-1l.1.2 1.3-.9c.7.5-.9 1 .5.7l-.4.9c1-.3 1.1.1 1.8-.2-.3-.4-.8-.4-.4-.8.8 1 1.2-.3 2-.7-.4 0-.6 0-.9.5-.4 0-.1-.5-.4-.5l-.6.5-.2-.6-1 .5c.1-.7-.9-.1-.5-.8-.7.3-1.1-.2-1.7.5-.5-.4.7-.5.2-.6-2.7.6-5.5.5-8.3.2l.3-.3-.8.8c-.5-.6-2.3-1.3-3-.2-.1-.1.1-.2.1-.3-.9.1-2.6-.6-4-.5-.6 1.1-2-.7-2.5.8l.3-.3c.5.4-.6 1-.8 1.4-.4-1 0-.8-.5-1.7l.5.3-.1-.8c-1.7 2.1-3.2-1-4.2.6.1-.1 0-.2.1-.3-.7-.5-1.2.6-1.7.8-.1-.4.3-.7.6-1-1.2-.3-3.3.8-4.7.1-.5.5.2.7-.3 1.1-.4-.2-.7-.6-.2-.9-1.2-1-3.9.7-5.7-.3-1 .6-.4.9-1.8 1.3.3-.4-.3-1.3.5-1.4l.1-.4c-1.4-.1-3.4-.2-4.2 1 0-.9-.3-.2-.8-.7-.2.1 0 .1.1.2-.5.8-.8 0-1.2.1l.1-.2-1 .6c-.2-.1-.4-.3-.5-.6v.6c-.6 0-.3-.8-1-.6l.1.5c-.4-.3-1.1.4-1.2-.3 0-.1.1-.1.2-.1-.7-.9-1.8.3-2.6-.1l.2 1c-.8.3-.5-.2-.5-.6-.6 0-.7-.3-1.4-.4-.4.3-.2.4-.3.7l-.8-.2.5-.5c-1.2 1.5-2.9-.2-3.7 1.2-.4-.3.4-.6.1-.8-1.4-.6-3.1 1-4.2.2-1.9-.7-4 0-6-.5v.3l-1.5-.2c-.4.6-1.4.3-2 1 .1-.2-.1-.5.1-.7-.6.1-1.3.4-1.7 0l.2-.2c-1.4-.2-3.3-.2-4 .3-.5.1-.5-.4-.6-.7-.8 0-1.3.2-2 .7-.2-.1-.4-.2-.5-.5l-.3.7c-.3-.1-.1-.5-.3-.7-1.2.8-2.7.1-3.6.1l.1.3c-.4.3-1.1-.2-.6-.5-1.7-.4-2.6 1-4.9.9-.3-1.2-2.1.4-2.4-1-1 .3-1.6-.2-2.3.6 0-.1-.1-.2.1-.2-.4-.5-1.7-.1-2.7.2l-.1-.4c-.4.9-2.1.6-2.4 1.5-.1-.2.2-.4.3-.5-.5-.8-.9.4-1.6.2.1-.2-.1-.5 0-.6-2.2-.9-5.4.7-8.3 0-.8 0 .3.9-.8.9-.3-.4.5-.9-.2-1.1-.5.5-.7.4-1.3.4.1-.3 0-.5.5-.7-.4-.4-1.6.7-2.3 0 0 .3-.1.4-.2.6-1.1.8-2.5-.8-2.6-.3 0 0-.4.1-.1.2-.4 0-1-.1-.9-.6-.2.2-.4.6-.7.6l.2-.5c-.2.1-.4.4-.6.5l.3.3c-.5-.4-1.4.6-1.3-.4h.2l-.9-.4c-.3.4-.7.8-1.3.7-.2-1-1.5-.2-2.2-.3v-.3c-.6.5-2 .3-1.8.4-.6 0-1.3-.2-1-.6-.5.2-1.4.2-1.6.8l-.9-.8c-.5 1.2-1.8-.4-1.9.9-.5-.2-.4-.5-.7-.7-.7.6-1.4.5-2.2.4v-.1c-.7-.1-1.6.6-2.6.6l-.2-1c-.5.1-.7.9-1.2.7-.1-.2 0-.2.1-.3-.5.2-1.2-.1-1.6-.3-.8.7-1.4.5-2.1 1.2-.6-.9.9-.4.4-1.2-1.1-.5-2.2 0-3.4.5-.1-.2 0-.3.1-.6 0 0-2.5 2.4-2 3.4-.3.7-.6 1 .4 1.6.3-.4 1.3-.9 1.5-.1l.1-.7c1.4-.3.1 1.4 1.8 1.4l-.4-.2c.3 0 .6-.5.9-.3.1.2-.1.3-.3.4l1.4-.9c.1.4 0 .6-.3.9 1.3 0-.3-1.3 1.3-1 .3.3-.1.4-.3.7.7.6 1.2 0 1.9-.3 0 .6-.5.5.1.9-.1-.3-.2-.9.3-.9-.2.6.4.3.8.5-.1-.2-.1-.5.1-.6.2-.1.4.2.7.1l-.6-.6c.8-.6 1.2.3 1.8.6 0 .1-.2.2-.3.2.6.3 1.3.8 2.1.2l-.1.1c1.5-.6-.5-1 1.3-1.6.6.1-.3 2 1.1 1.3-.6-.5.9-1.3 1.6-1.5l-.8 1.2c.3 0 .8-.3 1-.2v-.3c-.1-1 1 .1 1.5-.5-.7 1.4-.7 1.1-.8 2.5.5-.8 1.2-1.5 2.1-1.3l-.8 1.1c1.3.2 2.8-1.3 3.9-2.2-.3.8.2 1.1-.3 1.8l1.3-.2-.4.9c.5-.9 1.1-.3 1-1.4-.1.2-.1.3-.4.3 0-.3.2-1.1.9-1 .4.3-.3.4-.1.8.4-.5.4.3.9 0l-.4-.5c.3-.7.7 0 1.1-.4-.5.3-.3.7-.2 1.1v-.1c.3 0 .7-.5.9-.1l-.3.9.5-.7c.2.1.3.4 0 .6 1.4.6 0-2 1.8-1.1 0 .4-.2.6-.7.4-.1.6 0 .9.6 1.1v.1c1.4-.1 2.7 0 3.3-.7z"/><path d="M49 123.3c-.5 0-1 0-1.2.1.2.2 1.3.5 1.2-.1zM125.9 122.3c-.1 0-.1.1-.2.1l.2-.1zM130 122c0-.1-.1-.2-.2-.2 0 .2.1.3.2.2zM87.3 122.6zM110.8 122.9c.4-.3.5-.5.5-.8-.2.1-.4.3-.5.8zM102.9 122.5c-.1 0-.1.1-.1.1s.1 0 .1-.1zM86 123.1c.3-.3.8-.3 1.2-.5-.3.2-.9-.1-1.2.5zM135.1 121l-.4.5.4-.4zM131.2 121.3c-.2-.1-.9.2-.7.4.3-.2.5-.3.7-.4zM116.4 120.9l-.2.5.4-.4z"/></g><g><path d="M181.1 104.7c.2 0 .2-.4.2-.5-.4.2-.1.6-.2.5zM177.2 105.7l.1-.2-.6.5zM173.5 105.7c.3.7 1.3-.1 2 .1l.1.2.3-.6c-.8.1-1.8.5-2.4.3zM171.6 104.1c.1.3-.4.2.5.1 0 0-.1 0-.1-.1h-.4zM171.9 104.1c.4 0-.2-.2 0 0zM170.1 104.3l.5-.3c-.1-.2-.6-.2-.4-.3-.5.2-.4.3-.1.6zM169.7 104.8l.3-.1c-.1 0-.2-.1-.3.1z"/><path d="M170.5 104.5l-.6.2c.1.1.1.4.3-.1-.1.3 0 .1.3-.1zM170.8 104.6c.3.2.7.3.1.5 1-.1.9-.6-.1-.5zM173.3 106.5l.4.2.3-.2c-.1 0-.7-.3-.7 0zM166.9 103.9c0 .2.2.4.2.6l.4-.2c-.2-.1-.5-.1-.6-.4zM167.2 104.5l-.6.3c.5 0 .6-.1.6-.3zM169.6 105.6l.9-.5-1.1.5zM164.8 103.9l.3-.4-.6.6zM163.4 104c.2-.3-.3-.5-.1-.7-.4.1-.7.3-1 .5.3-.1.6-.1 1.1.2zM161.8 104.2c.2-.1.3-.2.5-.3-.2 0-.4.1-.5.3zM165.6 104.7c0-.1-.1-.3-.4-.4l.2.4h.2zM165.4 104.7h-.5zM165.7 104.7c0 .1 0 .1 0 0zM168.1 105.2c-.3.2-1 .5-.4.9.3-.3-.1-.5.4-.9zM166 105.3l.6.1c0-.1-.1-.3 0-.4l-.6.3zM165.7 105.4l.3-.1-.3-.1zM162.8 104.6c-.3.2-.5.2-.9.2.3.1.7.1 1 .1.1-.1.3-.4-.1-.3zM164.1 104.7c-.1 0 0 .1 0 0zM158.8 104.8v.1-.1zM163 105c.3.1.4 0 .6-.2-.2.1-.4.1-.6.2-.1 0-.1 0 0 0zM160.9 104.4c.1.1.3.2.4.2-.1-.1-.4-.4-.4-.2zM163.9 104.6c0-.1 0-.1 0 0zM163.9 104.6l-.3.3c.2 0 .3-.1.4-.1 0-.1-.1-.2-.1-.2zM157.8 107.6c0-.4.7-.8 1.3-.3.6-.3.2-1.6-.3-2.4 0 .2 0 .3-.6.6.2.2 1.3.5.8.9-.8.2-.6-.1-1-.4.3.5-1 .7-.8 1.5l.7-.3c0 .1-.3.3-.1.4zM160 104.9l.2-.1c-.3-.1-.5-.2-.8-.5-.4.2-.5.3-.5.5l1.1.1zM161.3 104.9c-.2.4-.8.6-.4 1.1.7 0 .5-.4.9-.6-1.1.1.3-.2-.5-.5.2 0 .4 0 .6-.1-.2-.1-.4-.1-.6-.2 0 .1.1.1 0 .1v.2c-.3-.1-.1-.1.1-.2v-.1l-1.2.2c.2.1.6.1 1.1.1zM167.1 107.1v-.1c-.1 0-.1.1 0 .1zM166.6 106.8c.1-.1.2-.2.4-.2.2.1 0 .2 0 .4.2-.1.6-.3.1-.5l-.1.1c-.5-.2-1.1-.7-1-.8.2.3.3.6.6 1zM163.9 105.9l-1 .2.5.4v-.2c.6.1.5-.2.5-.4zM158.7 104.6l.1-.5-.6.7zM157.4 104.6l.1-.4-.4.3zM86.7 109.6l-.3.1c.1 0 .2 0 .3-.1zM88.7 109.7v-.2.2zM126.6 104.7c-.4-.4-.9-1-.8-.5l.1.4c.3-.1.5 0 .7.1zM105.6 107.3l.1.2.3-.5zM105.3 109.2l-.5-.3c0 .1.2.2.5.3zM75.5 110.1l-.3.5c.5 0 .2-.3.3-.5zM144.6 104.8c-.4-.2-.6-.2-.9-.3.4.3.8.7.9.3zM87.5 104.9c-.2.1-.2.2-.2.3.1-.1.2-.1.2-.3zM142.7 104.5c.1 0 .1.1.2.1.3-.1.5-.1.8-.1-.3-.2-.7-.3-1 0zM34.9 109.8c-.1-.1-.1-.1 0 0-.1 0-.1 0 0 0zM23 105.3h.5c-.1-.1-.2-.1-.5 0zM152.4 104.4c.2 0 0 0 0 0zM153.7 106.2c-.1.1-.1.1-.1.2 0-.1 0-.2.1-.2zM140 107.3c.1.1.1.1 0 0zM152.8 104.6c-.1-.1-.2-.1-.3-.1 0 0 .1.1.3.1zM152.7 104.4h0zM152 104.5h.4c-.1 0-.1-.1-.1-.1l-.3.1zM56.6 108.6s0-.1 0 0c-.3.1-.2.1 0 0zM119.7 109.3zM118.8 109.6c.4-.6.6-.5.9-.4l-.3-1.3-.6 1.7z"/><path d="M81.8 109.8l.7.4c-.8.7-1.4.4-.8 1 .1-1.4 2.6-.1 2.7-1.5l.4.3c-.1 0-.1.1-.3.1.9.7.6-1 1.7-.8.4.1.7.3.4.5l.9-.3c.2 0 .2.3-.1.2l1.3-.1c.2-.2.6-.6.8-.7.3.2-.2.1-.1.3l.7-.3c.3.4-.3.7-.8.7.7 1.4.6-.4 2.1.5l-.7.2c.4.8 1 .5 1.8 1-.2-.3-1.6-1.2-.8-1.6.2.1.5.2.9-.1 0 .5.4.4.9.3v.7c.6-.2.5-.5.8-.8.6.1.8.6.9 1 1 .1-.7-.8.5-.9.8.3 1.4 0 2.4-.4.6.2-.1.4.1.6l.5-.5c.1 0 .1.2.1.3.4-.2 0-.7.7-.8.2-.7 1.4 1.1 2.3.2.2.2-.1.4 0 .7 1.2-.5 1-.4 2-1.1l.8.4c-.6-.5.2-1.1.8-1.5l-.5-.5 1.1-.4c.1.1 0 .3-.2.6l.2-.2c.4.2.2.6-.1 1l-.4-.4c-.3.4-.5.8-.5 1.2.1-.1.2-.1.3-.2-.1.1-.1.2-.1.3 0 .1.1-.1.3-.2l.2.7.1-.3 1.4.5c1-.7 1.9-1.8 3.5-2.1-.4.5-.1.9-.1 1.5-.4-.7-1.2.3-2.1.1.4.1.3.4.2.5l1.5-.6c0 .5.3.4.7.6-.3-1 1.1-.7 1.7-1 0 .3-.1.7-.8.6.8.8 1-1.2 1.8-.5-.2 0-.3 0-.3.1.4-.3 1.4-.1 1.2.2h-.2c1.2.1 3.6 0 3.8-.9 0 .1-.2 1-.2 1.2l2.1-2.9c-.2.7.5 2.5-.5 2.9.3.1.6.2 1.2 0-.2-.1-.5-1.1-.2-1.1.7.8.5.4 1.4 1.2-.3-.2 0-1.3.5-1.3-.1.2 0 1.2-.1 1.3l1.1-1.1c-.3.2 0 1 .2 1.3-.1-.2 1 0 1.3-.1l-.5-.3c1.3.2 1.3-1.6 2.5-1.6-.2.2-.4 1.5.3 1.6.3-.6 1.3-2.8 2.4-3.3l.2.3.9-.4c-.5.9-2 2.8-2.9 3.5.5.3.1.4.8.4.3.3-.4.5-.6.5l1.7.2c-.1-.7 1.3-.7 1.2-1.3l-1.8.7c-.1-.7 1-2 2.2-1.8.3.3-.2 1.2-.2 1.5.2-.2 1.1-.5 1.2-.3l-.5.4c.7.3 1.1-.9 1.9-.3.3 0 .8.9.9.5-.4-.8-.5-3.2-.2-3.8.1.1 1.4.8 1.7 1.1.4.6-.7 1.5-.3 2 0-.2.3-.4.4-.5.3.2-.1.6.5.5.1-.7 1.3.1.3-.6.6-.2.6.1 1.4.1-.2-.5.6-1.5 1.2-1.7 0 .2.1.4.2.5 1.2.1 1.9.4 3.1.4.1.2.7.4.4.7.2-.1.3-.4.7-.4.7.6-.8.1-.3.8 0-.4.9-.6 1.4-.8-.2-.6-1.2-.1-1.7.1 0-.9.9-1.8 2.1-2.2 1-.2.4.6.6.4 1.8.2 1.5-1.5 3.1-.9.6.5 0 1.1.2 1.5-.8.2-1.2-.3-1.7-.3l.7.3c-.2.2-.8.3-1.1.2.5.5 3.1.1 4.5.6.2-.2.7-.4.5-.6l-.4.1c-.4-.4.8-.6.3-.8.6-.3 1.3-.8 2.1-.6l.2.6c0-.2-.5-.4-.8-.2.3-.3 1.3.8 1.7 0l-.6-.4c.6-.3 1.3-1 2.1-.8-.3-.6-.2.1-.7-.7.5.9-1.9 0-1.2.9-.5-.8-.9-.4-1.6-1.1 0 .2.2.4-.4.3 0 .1-.1.1-.1.2.1.1.3.2.3.3-.3.5-1.3.5-1.6.7-.4-.1.2-.2 0-.5l-.5.4c0-.5-1-.8-.1-1h-.8c-.5-.3-1.1-.4-1.5-.2-.4-.1-.9.5-.6.1l-1.2.3v-.1c-1.2-.1-2.5.8-3.9-.1-.4.1-.8.3-1.5.1l-.1-.4c-.5.1-1.6-.4-1.8 0-.6-1.1-2.5-.2-3.5-.4v.5c-.6 0-1.2.1-2 .3v.5c-.7.4-1.7-.3-2.8-.3.1-.2.3-.1.5 0-1.3-1-2.7.8-3.9 0-.3.2-.5.1-.7 0h0c-.1-.1-.3-.2-.4-.2.1.1.2.2.3.2-.2 0-.6.1-.9.2l-.1-.5h-.1c-.3-.2-.3.2-.1.6-.2.1-.3.2-.4.3-.3-.8-.9.3-1.2-.6-.2.4-1.7.3-1.8 1.2 0-.1-.1-.2.1-.2-.4-.1-.7-.2-1.1 0l-.2-.6-.8.8c-.5-.4-.7-.6-.2-1.1-1.2.7-1 .3-2 1v-.4c-.4 0-.9.6-1.1.2-.8-.8-4-.1-6-.8.4 1.2-1-.5-1 .4-.1-.3-.4-.4-.1-.7-1 .3-1.6-.4-2.3.3-.1-.3.2-.4.1-.6-.1.1-.3.2-.4.1-.1-.2.2-.2.3-.4-1.1 0-1.2.9-1.3 1.7-.5-.4-.8-.3-1.2.2-.2-.3-.5-.5.2-.6-.4 0-2.3-.4-2.3.3-.1-.2-.5 0-.6 0-.8 0-.9-.1-1.7 0l.2.1c-.3.8-.7.2-1.4.3v-.1c-1.5-.6-.7.3-2.2-.4l.1.5c-.1 1.1-1.3-.6-2.2-.2l.3.3c-.5.4-1.3-1.4-1.8-1.6-.1-.1.2-.1.3-.2-1.3-.6-.2.6-1.1.8-.2-.3.2-.9-.4-.9-.3-.3-1.8 1.1-2.7.5.2.3.4.5-.1.7-.7.1-1.8-1-2.4-.2-.1-.1-.1-.1-.1-.2-.5.2-1.7.4-2 .8-.5-1.7-3.2.8-3.2-.7l-1.6.1v-.2c-1-.1-1.4.3-1.7.6-.2-.1-.1-.3 0-.3-1.5-.3-1.6-.2-2.8.5l-.1-.5c-.3.3-2.1-.8-3.5-.2 0-.1 0-.2.2-.2-1.6.6-3.9-1.4-4.5.4l-1.2.3c1.4.1-.2.8.4 1.1-.5.1-1.4-.6-.7-.7l.1.1c.2-1-1.7-.3-1.7-1-2.7 0-5.3-.5-7.9-.5l.3.7h-.9c-.2-.2-.3-.6.3-.6-.3-.4-1.1.4-1.1.5-1.2-.3.5-.9.1-.9l-.5.1.1.1c-.4.3-.5.6-1.2.6-.5-.2-.2-.5-.4-.5 0-.1-.1-.1-.3 0l-1.1-.1.4.6c-.5.3-1 0-.5.6-.8-1-4.2-.4-4.6-.7-.7.4-1.4.4-2.2.4.2.1.3.8-.4.7.3-1.4-1.3-.6-1.9-1.6.5.7-2.1.2-1.2 1.1-.6-.1 0-.5-.5-.8-1.5.5-3.2-.3-5-.2 0 .2.3.5-.1.7l-.9-.9c-.4.1-.3 1-1 .4.1.2.2.4 0 .4-3.5-.9-7.2.7-10.7-.9.5.3.2.4-.2.4.2.1 0 .4 0 .7l-1.5-.7c-.3.7-1.6 0-1.8.7l.5-.1c-.6.8.9 1.7.8 2.7.7-.9 1.9 1.3 3 0 .3.2-.2.3-.1.5.3-.4.6-.5 1.3-.3l-.1.1c1.8-.1 2.6.3 4.7.6l-.2-.5c.4.1.5.2.7.3.5-.7-1.2 0-.8-.8.6 1 3.1 0 3.5 1.1.7 0-.2-.6.5-.6l.2.3.2-.4c.4.1.7.4.7.7-.1 0-.3.1-.4.1.6.4 1.6-.1 1.8 0l-.7-.2c1.9-.3 4.1.1 5.9-.5l-.1-.2c1.4-.4 1.1.3 2.6.1l-.1.1c.3-.2.7-.3 1.1-.3-.4.3.7.5.2.8 1.5-.5.7-.4 1.7-1.2l.2.4c.3-.3.4-.5 1.1-.6-.6.3.5.6-.2 1 1.6.8 2.4-.8 3.1.4.7-1-1.4-.6-1-.8-.3-.3.6-.8 1.1-.7.5 0 .9 1.3 2.1 1.3-.1 0-.1.1-.3.1.5.3.9-.4 1.5.1.3-.6.8 0 .9-.8l-1.2.2c.7-.2 1.3-1.2 2.4-.7-.1.2-.4.4-.6.5.3.2.6-.2.9.1-.1.8-1.4.2-2.1.8.3.3 1.3-.6 1 .3.5-1.1 1.3.1 2.1-.7l-.1.5c.1-.1.4-.3.7-.3l-.5.6c.7-.5 1.3.5 2 .2-1.4 0-.3-.6-.9-.9 1.7-.6 1 1.3 2.9 1-.3.1-1-.3-.6-.5.4.1.9.3 1.1.5 1.3-.1-.2-.5.3-.8.4.6.6-.2 1.2-.4v.5c1.5.3.4-1 1.7-.6l-.6.7.7-.2-.1.6c.7-.4 1-.3 1.7-.2-.2-.3.1-.9.7-.9.4.3-.2.5.7.4-.2.3-.4.7-.8.2 0 .2-.2.3-.2.5.5.3 1.2.1 1.5.1-.1 0-.3 0-.4-.1l1.3-.7c.2.2 0 .3-.1.5.3-.1.5-.3.9-.3-.1.4-.1.8-.6 1l1.3-.4c.1.2.6.5.5.6.7.2 1.7-.8 2.7-.5 0-.1.1-.2.3-.2.9.1 1.7.6 2.7 0l.6.7c.8-.2-.8-.9.6-1.2 1-.2.4.6.7.8.5-.4 1.3-1.1 2.2-.5-.1.1-.3 0-.6.1zm10-.3c-.2.1-.6.4-.7.1.2-.6.4-.3.7-.1zm15.2-1.2c-.1.2-.4.1-.6-.1.2-.1.4-.1.6.1zm42.5-3.5c-.1 0-.1.1 0 0-.5-.1-.3-.1 0 0zm.9.3c.1-.1.1-.1 0-.2-.1.1-.3.1-.5.1.1.1.2.2.5.1zm-96.6.1l.2.1c-.4.2-.3.1-.2-.1z"/><path d="M105.3 108.9c-.1-.1-.1-.2-.1-.3-.1.2-.1.3.1.3zM75.5 110c0 .1 0 .1 0 0zM136.4 109.2c-.2-.1-.3-.2-.4-.3.1.2.1.3.4.3zM155.1 104.2l-.6.1c.3 0 .4.1.5.2 0-.1-.1-.3.1-.3zM160.1 107.3c.1-.1.2 0 .3-.1v-.2c-.4 0-.7.2-.3.3zM155.7 105.9c0 .4.4.3.8.2h-.1c.1-.6-.3-.4-.7-.2zM156.6 106h.4c0-.2-.2 0-.4 0zM151.5 104.8c.2.1.1-.5.2-.4.2-.5-1.3.7-.2.4zM156 107.2l-.2-.5-.2.4zM152.8 106.8l.6.1c0-.1.1-.1.2-.2-.4.1-.8 0-.8.1zM153.6 106.8c.2 0 .4 0 .5-.1-.1 0-.3 0-.5.1zM155.1 107.4l-.2-.1-.4-.1zM145.9 106.7l-.7.1c-.1.2.1.3.4.2.1 0 .4-.1.3-.3zM148 108.1c-.2-.1-.2-.2-.3-.4v.6l.3-.2zM145.9 108.3c-.1.2-1 .5-.1.5.1-.2.8-.4.1-.5zM135.3 107.5h.2v-1.1zM126 110c.8.2.2-.6 1-.3.2-.2-.6-.3-.4-.5-.6.2-.8.1-.6.8zM126.5 109.2c.1 0 .2-.1.3-.2-.2.1-.2.1-.3.2zM21.1 104.7l-.6-.2.4.4zM20 105.5l-.1-.7-.3.6c.1 0 .3-.1.4.1zM93.3 110.8v-.2c-.1-.2-.2-.2-.5-.2l.5.4zM86 110.3h.1l-.2-.6zM79.9 111.1c.2 0 .5-.1.8-.1-.5.1-.9-.7-.8.1z"/></g><g><path d="M162.5 91.6c.1 0 .1-.4.1-.5-.2.1-.1.6-.1.5zM160.4 92.5v-.1l-.3.4zM158.3 92.5c.2.7.7-.1 1.1.1l.1.2.2-.6c-.5.1-1.1.5-1.4.3zM157.2 91c.1.3-.2.2.3.1V91h-.3zM157.4 91c.3-.1-.1-.3 0 0zM156.5 91.1l.3-.3c-.1-.2-.3-.2-.2-.3-.4.2-.3.4-.1.6zM156.2 91.7l.1-.1c0-.1 0-.1-.1.1zM156.6 91.3l-.3.2c0 .1 0 .4.1-.1.1.3.1.1.2-.1zM156.8 91.4c.2.2.4.3.1.5.5 0 .5-.6-.1-.5zM158.2 93.3l.2.2.2-.2c-.1.1-.4-.2-.4 0zM154.7 90.8c0 .2.1.4.1.6l.2-.2c-.1-.1-.3-.2-.3-.4zM154.8 91.4l-.3.3c.3 0 .3-.2.3-.3zM156.1 92.5l.6-.6-.7.6zM153.5 90.7l.2-.3-.3.5zM152.7 90.8c.1-.3-.2-.5 0-.7-.2.1-.4.3-.6.5.2-.1.4 0 .6.2zM151.8 91l.3-.3c-.1 0-.2.1-.3.3zM154 91.6c0-.1-.1-.3-.2-.4l.1.4h.1zM153.9 91.6l-.3-.1zM154 91.6zM155.3 92.1c-.2.2-.6.5-.2.9.2-.3-.1-.6.2-.9zM154.2 92.1l.3.1c0-.1-.1-.3 0-.4l-.3.3zM154 92.2l.2-.1h-.2zM152.4 91.4c-.1.2-.3.2-.5.2.2.1.4.1.6.1 0-.1.1-.3-.1-.3zM153.1 91.5c0 .1 0 .1 0 0zM150.2 91.6v.1-.1zM152.5 91.8c.1.1.2 0 .3-.2-.1.1-.2.2-.3.2 0 0 0 .1 0 0zM151.4 91.2l.2.2c-.1-.1-.2-.3-.2-.2zM153 91.4c0-.1 0 0 0 0zM153 91.4c-.1.1-.1.2-.2.3.1 0 .2-.1.2-.1.1-.1 0-.1 0-.2zM149.7 94.4c0-.4.4-.8.7-.3.3-.3.1-1.6-.2-2.4 0 .2 0 .3-.3.6.1.2.7.5.5.9-.4.2-.4-.1-.6-.4.2.5-.6.7-.5 1.5l.4-.3c0 .1-.1.3 0 .4zM150.8 91.7l.1-.1c-.2-.1-.3-.2-.5-.5-.2.2-.3.3-.3.5l.7.1zM151.6 91.7c-.1.4-.4.6-.2 1.1.4 0 .3-.4.5-.6-.7.2.2-.2-.3-.5.1 0 .2 0 .3-.1-.1-.1-.2-.1-.3-.2V91.7c-.2-.1 0-.1 0-.2v-.1l-.6.2c.1.2.3.1.6.1zM154.8 93.9v-.1c-.1.1-.1.1 0 .1zM154.5 93.6c0-.1.1-.2.2-.2.1.1 0 .2 0 .4.1-.1.3-.3 0-.5v.1c-.3-.2-.6-.7-.5-.8.1.4.2.7.3 1zM153 92.8l-.5.2.3.4v-.2c.3 0 .2-.2.2-.4zM150.1 91.4l.1-.5-.3.7zM149.4 91.5l.1-.4-.2.2zM110.5 96.5l-.2.1c.1 0 .1-.1.2-.1zM111.6 96.5v-.2.2zM132.5 91.5c-.2-.4-.5-1-.5-.5l.1.4c.2 0 .3 0 .4.1zM120.9 94.2v.1l.2-.4zM120.7 96l-.3-.3.3.3zM104.3 97l-.2.5c.3-.1.2-.3.2-.5zM142.4 91.6c-.2-.2-.4-.2-.5-.3.2.3.4.7.5.3zM110.9 91.8c-.1.1-.1.2-.1.3.1-.1.1-.2.1-.3zM141.3 91.4l.1.1c.1-.1.3-.1.5-.1-.2-.2-.4-.3-.6 0zM81.9 96.6zM75.4 92.1h.3c-.1-.1-.2-.1-.3 0zM146.7 91.3c.1-.1 0-.1 0 0zM147.4 93s-.1.1-.1.2c0-.1.1-.1.1-.2zM139.9 94.1c0 .1 0 .1 0 0zM146.9 91.5c-.1-.1-.1-.1-.2-.1 0 0 .1 0 .2.1zM146.9 91.3h.1c0-.1 0-.1-.1 0zM146.5 91.3h.2v-.1l-.2.1zM93.9 95.4c-.2.1-.1.1 0 0zM128.7 96.1zM128.1 96.4c.2-.6.4-.5.5-.4l-.2-1.3-.3 1.7z"/><path d="M107.8 96.6l.4.4c-.4.7-.8.4-.4 1 .1-1.4 1.4-.1 1.5-1.5l.2.3c-.1 0-.1.1-.2.1.5.7.4-1 1-.8.2.1.4.3.2.5l.5-.3c.1 0 .1.3 0 .2l.7-.1c.1-.2.3-.6.5-.7.2.2-.1.1 0 .3l.4-.3c.2.4-.2.7-.4.7.4 1.4.3-.3 1.1.5l-.4.2c.2.8.5.5 1 1-.1-.3-.9-1.2-.4-1.6.1.1.3.2.5-.1 0 .5.2.4.5.3v.7c.3-.2.3-.5.5-.8.3.1.4.6.5 1 .6.1-.4-.8.3-.9.5.3.8 0 1.3-.4.3.2-.1.4.1.6l.3-.5c.1 0 0 .2 0 .3.2-.2 0-.7.4-.8.1-.7.8 1.1 1.2.2.1.2-.1.4 0 .7.6-.5.5-.4 1.1-1.1l.4.4c-.3-.5.1-1.1.5-1.5-.1-.2-.2-.4-.3-.5l.6-.4c.1.1 0 .3-.1.6 0-.1.1-.1.1-.2.2.2.1.6 0 1l-.2-.4c-.1.4-.3.8-.3 1.2 0-.1.1-.1.2-.2 0 .1-.1.2 0 .3 0 .1.1-.1.2-.2l.1.7v-.3l.8.5c.6-.7 1-1.8 1.9-2.1-.2.5 0 .9-.1 1.5-.2-.7-.7.3-1.1.1.2.1.2.4.1.5l.8-.6c0 .5.2.4.4.6-.2-1 .6-.7.9-1 0 .3-.1.7-.5.6.4.8.6-1.2 1-.5-.1 0-.2 0-.2.1.2-.3.8-.1.7.2h-.1c.7.1 2 0 2.1-.9 0 .1-.1 1-.1 1.2l1.2-2.9c-.1.7.3 2.5-.2 2.9.2.1.3.2.7 0-.1-.1-.3-1.1-.1-1.1.4.8.3.4.8 1.2-.2-.2 0-1.3.3-1.3 0 .2 0 1.2-.1 1.3l.6-1.1c-.2.2 0 1 .1 1.3-.1-.2.5 0 .7-.1l-.3-.3c.7.2.7-1.6 1.4-1.6-.1.2-.2 1.5.1 1.6.2-.6.7-2.8 1.3-3.3l.1.3.5-.4c-.3.9-1.1 2.8-1.6 3.5.3.3.1.4.5.4.1.3-.2.5-.3.5l.9.2c0-.7.7-.7.7-1.3l-1 .7c0-.7.6-2 1.2-1.8.2.3-.1 1.2-.1 1.5.1-.2.6-.5.7-.3l-.3.4c.4.3.6-.9 1-.3.2 0 .4.9.5.5-.2-.8-.3-3.2-.1-3.8.1.1.8.7 1 1.1.2.6-.4 1.5-.2 2 0-.2.1-.4.2-.5.2.2-.1.6.3.5.1-.7.7.1.2-.6.3-.2.4.1.8.1-.1-.5.4-1.5.7-1.7 0 .2.1.4.1.5.7.1 1.1.4 1.7.4.1.2.4.4.2.7.1-.1.2-.4.4-.4.4.6-.4.1-.1.8 0-.4.5-.6.8-.8-.1-.6-.7-.1-.9.1 0-.9.5-1.8 1.2-2.2.5-.2.2.6.3.4 1 .2.9-1.5 1.7-.9.3.5 0 1.1.1 1.5-.4.2-.7-.3-1-.3l.4.3c-.1.2-.4.3-.6.2.3.5 1.7.1 2.5.6.1-.2.4-.4.3-.6l-.2.1c-.2-.4.5-.6.2-.8.3-.3.7-.8 1.2-.6l.1.6c0-.2-.3-.4-.4-.2.2-.3.7.8.9 0l-.3-.4c.3-.3.7-1 1.1-.8-.2-.6-.1.1-.4-.7.3.9-1 0-.6.9-.3-.8-.5-.4-.9-1.1 0 .2.1.4-.2.3 0 .1-.1.1-.1.2.1.1.1.2.2.3-.2.5-.7.5-.9.7-.2-.1.1-.2 0-.5l-.3.4c0-.5-.5-.8-.1-1h-.4c-.3-.3-.6-.4-.8-.2-.2-.1-.5.5-.3.1l-.7.3v-.1c-.7-.1-1.4.8-2.1-.1-.2.1-.5.3-.8.1l-.1-.4c-.3.1-.9-.4-1 0-.3-1.1-1.4-.2-1.9-.4v.5c-.3 0-.7.1-1.1.3v.5c-.4.4-1-.3-1.6-.3 0-.2.2-.1.3 0-.7-1-1.5.8-2.1 0-.2.2-.3.1-.4 0h-.1c-.1-.1-.1-.2-.2-.2.1.1.1.2.2.2-.1 0-.3.1-.5.2l-.1-.5c-.2-.2-.1.2 0 .6-.1.1-.2.2-.2.3-.1-.8-.5.3-.7-.6-.1.4-.9.3-1 1.2 0-.1-.1-.2 0-.2-.2-.1-.4-.2-.6 0l-.1-.6-1.3.6c-.3-.4-.4-.6-.1-1.1-.6.7-.5.3-1.1 1v-.4c-.2 0-.5.6-.6.2-.4-.8-2.2-.1-3.3-.8.2 1.2-.5-.5-.6.4-.1-.3-.2-.4 0-.7-.6.3-.9-.4-1.3.3-.1-.3.1-.4.1-.6 0 .1-.2.2-.2.1-.1-.2.1-.2.2-.4-.6 0-.6.9-.7 1.7-.3-.4-.4-.3-.7.2-.1-.3-.3-.5.1-.6-.2 0-1.3-.4-1.3.3-.1-.2-.3 0-.3 0-.5 0-.5-.1-1 0l.1.1c-.2.8-.4.2-.7.3v-.1c-.8-.6-.4.3-1.2-.4v.5c-.1 1.1-.7-.6-1.2-.2l.2.3c-.3.4-.7-1.4-1-1.6-.1-.1.1-.1.2-.2-.7-.6-.1.6-.6.8-.1-.3.1-.9-.2-.9-.2-.3-1 1.1-1.5.5.1.3.2.5 0 .7-.4.1-1-1-1.3-.2 0-.1-.1-.1-.1-.2-.3.2-.9.4-1.1.8-.3-1.7-1.7.8-1.7-.7l-.9.1V92c-.6-.1-.7.3-.9.6-.1-.1 0-.3 0-.3-.8-.3-.9-.2-1.6.5l-.1-.5c-.2.3-1.2-.8-2-.2 0-.1 0-.2.1-.2-.9.6-2.1-1.4-2.5.4l-.6.5c.8.1-.1.8.2 1.1-.3.1-.8-.6-.4-.7l.1.1c.1-1-.9-.3-.9-1-1.5 0-2.9-.5-4.3-.5l.2.7H94c-.1-.2-.2-.6.2-.6-.2-.4-.6.4-.6.5-.7-.3.3-.9.1-.9l-.3.1.1.1c-.2.3-.2.6-.7.6-.3-.2-.1-.5-.2-.5 0-.1 0-.1-.2 0l-.6-.1.2.6c-.3.3-.6 0-.3.6-.4-1-2.3-.4-2.5-.7-.4.4-.8.4-1.2.4.1.1.2.8-.2.7.1-1.4-.7-.6-1.1-1.6.3.7-1.1.2-.7 1.1-.3-.1 0-.5-.3-.8-.8.5-1.8-.3-2.7-.2 0 .2.1.5-.1.7l-.5-.9c-.2.1-.2 1-.5.4 0 .2.1.4 0 .4-1.9-.9-4 .7-5.9-.9.3.3.1.4-.1.4.1.1 0 .4 0 .7l-.8-.7c-.2.7-.9 0-1 .7l.3-.1c-.3.8.5 1.7.4 2.7.4-.9 1 1.3 1.7 0 .1.2-.1.3 0 .5.2-.4.4-.5.7-.3v.1c1-.1 1.4.3 2.6.6l-.1-.5c.2.1.3.2.4.3.3-.7-.7 0-.4-.9.3 1 1.7 0 1.9 1.1.4 0-.1-.6.3-.6l.1.3.1-.4c.2.1.4.4.4.7-.1 0-.2.1-.2.1.3.4.9-.1 1 0l-.4-.2c1-.3 2.3.1 3.3-.5l-.1-.2c.8-.4.6.3 1.4.1v.1c.2-.2.4-.3.6-.3-.2.3.4.5.1.8.8-.5.4-.4 1-1.2l.1.4c.2-.3.2-.5.6-.6-.3.3.3.6-.1 1 .9.8 1.3-.8 1.7.4.4-1-.8-.6-.5-.8-.2-.3.3-.8.6-.7.3 0 .5 1.3 1.2 1.3-.1 0-.1.1-.1.1.3.3.5-.4.8.1.2-.6.4 0 .5-.8l-.6.2c.4-.2.7-1.2 1.3-.7 0 .2-.2.4-.3.5.2.2.3-.2.5.1-.1.8-.8.2-1.2.8.2.3.7-.6.5.3.3-1.1.7.1 1.2-.7v.5c.1-.1.2-.3.4-.3l-.2.6c.4-.5.7.5 1.1.2-.8 0-.2-.6-.5-.9 1-.6.5 1.3 1.6 1-.1.1-.5-.3-.3-.5.2.1.5.3.6.5.7-.1-.1-.5.2-.8.2.6.3-.2.7-.4v.5c.8.3.2-1 .9-.6l-.9.8.4-.2-.1.6c.4-.4.5-.3.9-.2-.1-.3.1-.9.4-.9.2.3-.1.5.4.4-.1.3-.2.7-.5.2 0 .2-.1.3-.1.5.3.3.7.1.8.1-.1 0-.2 0-.2-.1l.7-.7c.1.2 0 .3-.1.5.1-.1.3-.3.5-.3-.1.4 0 .8-.4 1l.7-.4c0 .2.4.5.3.6.4.2.9-.8 1.5-.5 0-.1.1-.2.2-.2.5.1.9.6 1.5 0l.3.7c.4-.2-.4-.9.3-1.2.5-.2.2.6.4.8.3-.4.7-1.1 1.2-.5-.1.2-.2.1-.3.1zm5.5-.3c-.1.1-.3.4-.4.1.1-.5.2-.3.4-.1zm8.4-1.2c-.1.2-.2.1-.3-.1 0 0 .2 0 .3.1zm23.4-3.4c-.3-.2-.2-.1 0 0zm.5.2v-.2c0 .1-.1.1-.3.1 0 .1.1.2.3.1zm-53.3.2l.1.1c-.2.2-.1 0-.1-.1z"/><path d="M120.7 95.8v-.3c-.1.1-.1.2 0 .3zM104.3 96.9zM137.9 96.1c-.1-.1-.2-.2-.2-.3 0 .1 0 .2.2.3zM148.2 91l-.3.1c.2 0 .2.1.3.2-.1-.1-.1-.2 0-.3zM150.9 94.1c0-.1.1 0 .1-.1v-.2c-.1 0-.3.2-.1.3zM148.5 92.7c0 .4.2.3.4.2 0-.6-.2-.4-.4-.2zM149 92.9h.2c0-.3-.1-.1-.2 0zM146.2 91.6c.1.1.1-.5.1-.4.1-.5-.7.7-.1.4zM148.7 94.1l-.1-.6-.1.5zM146.9 93.7l.4.1c0-.1 0-.1.1-.2-.3 0-.5-.1-.5.1zM147.4 93.6c.1 0 .2 0 .3-.1-.1.1-.3.1-.3.1zM148.2 94.2l-.1-.1h-.3zM143.1 93.6l-.4.1c0 .2.1.3.2.2.1-.1.2-.2.2-.3zM144.3 95c-.1-.1-.1-.2-.2-.4v.6l.2-.2zM143.1 95.1c0 .2-.6.5-.1.5.1-.2.5-.3.1-.5zM137.3 94.3h.1v-1zM132.1 96.8c.5.2.1-.6.5-.3.1-.2-.3-.3-.2-.5-.2.3-.4.1-.3.8zM132.4 96s.1-.1.1-.2c0 .1 0 .2-.1.2zM74.3 91.6l-.3-.3.2.4zM73.7 92.3l-.1-.7-.2.6c.2 0 .3 0 .3.1zM114.1 97.6v-.2c0-.2-.1-.2-.3-.2l.3.4zM110.1 97.1h.1l-.2-.6zM106.7 97.9c.1 0 .3-.1.4-.1-.2.1-.4-.7-.4.1z"/></g><g><path d="M175.8 79.3l-.1-.5-.5.6zM170.5 78.8c-.5.5-1.4.8-1.4 1.8l.9-.9c.1.7.7.7 1.2.4h-.6c.1-.1.1-.6.2-.7.9.4 1.1-.6 1.9.2v.1l.6-.5c.2.1.1.5.1.6.6-.4 1-.8 1.8-.7-.6-1.3-1.7 1-2.3-.3v-.1c-.8.6-1.6-.3-2.4.1zM173.3 79.9c0 .1 0 .1 0 0zM142.7 78v0zM152 80.7c-.1.2 0 .2 0 0zM91.7 78.3l-.2-.3c.1.3.2.4.2.3zM79.1 78.1zM84.9 82.2v0zM80.8 82.7c-.1-.1-.2-.1-.3-.1 0 .2.2.2.3.1zM79.3 78l-.1.1s0-.1.1-.1zM91 82.7l.2.7c-.1-.2-.1-.5-.2-.7zM79.8 83.3c-.1-.1-.1-.2-.2-.2 0 .1.1.2.2.2zM169.7 78.9c.1 0 .2 0 .4-.1-.2-.1-.3 0-.4.1zM113.9 83.3c0 .1-.1.2-.1.3.1-.1.1-.2.1-.3zM100.5 83.2v.1-.1zM104.4 83.1s0 .1-.1.2c.1-.1.1-.1.1-.2zM97.5 84c0 .1-.1.1-.1.2l.1-.2z"/><path d="M94.7 83.2c.1.3 0 .5-.1.7.7.3.9-.5 1.7.1l-.3-.3c.5-.5 1.4-.6 1.8.1l-.3.2c.5-.6 1.2.5 1.4 0-.2-.3 0-.5-.3-.8l1.1-.6.1.9.6-.3c-.1-.4.8.3.8-.6.3.3-.1.7-.3 1.1.3-.3.4.1.7-.4l.3.8.9-.6v.2c.4-.7 1 .4 1.5-.8v.1c.3-.7 1-.2 1.2 0 .5-.2.2-.8.2-1.1 1.3.2.9.2 2-.8.7 1-.8 1.7.1 2.4.1-.5.7-.9 1.4-1.1.6.4 1.6.6 2.2 1.3l-.1-.7.9-.4-.5 1c.1-.2.6-.7.8-1 .9-.6.5 1.5 1.2.4 0 .1 0 .1.1.2.2-.5.8-.3 1.5-.5l-.2.9-.4-.2c.2.8.7-.1 1.1-.1.4-.3.2-1 .5-1.3.2 0 .4-.2.5 0 .4.3 0 1-.1 1.4.3-.9.5-.8 1.2-1.1 0 .4 0 .6-.1.7.2-.1.3-.3.4-.7l.3.5c.9.7.8-1.6 1.9-1.3-.3.5.9-.1 1.2.4-.4.1.2 1.3 0 1.8.8.3.3-1 1-1.2l-.3 1.1c.6-.5.2-.6.8-.9-.2.3.3.3-.1.6.8.1.6 0 1.4.1l.1-1c.2-.1.3.3.4.5-.1 0-.3 0-.2.1.3.9.5-.5.8.3-.1-.3-.2-.8.1-.9-.1.6.5.6.5.9-.2-.4.7-.2.7-.9.4.5-.1.5-.1.9.3-.8 1.2-.1 1.5-.6v.2c.4-.5 1-.6 1.8-1.3l-.3.6c.8.3.5-1.3 1.1-1.3-.1.9 1-.1.8.9.4-.5.8-.7 1-1.4.4.5-.7 1.2-.2 1.4l.5-.5.1.5c0-.3.5-.4.5-.6.1.6.3.9.3 1.4.3-.2.8.4 1.1-.1v.3c.3-1 1-.2 1.2-1.3l.2.6c.5-.1.4-1.2.7-1.4.2 0 .5-.2.7-.1-.7.7.3.8.5 1.2.3 0 1-.1 1.3-.6-.3.5-.1 1-.7 1 .3 1 .9-.2 1.5-.1v.5c.9-.3.9-1.2 1.3-2 .1.6 0 .8-.2 1.4.6.4 1.6 0 2.2 0 .2.4.1.7-.2.9.7-.5 1.6.1 2-1-.2.4.3.3.5.5 0-.2.1-.5.1-.5.4-.4 1.4-.8 1.9-.5l-.2.3c1.2.2 1.7-1.7 3-.9.2.2-.2.9.2.8.2-.4.2-1.2.7-1v.7l.4-.7c-.2-.6-.9-.4-.4-1 .5.7.5-.6 1.1.1-.1.1-.3.6-.5.9 1.4.8 1.9-.7 3.3.2.7-.6 1.6-.7 2-1.2 0 .7 0 1.3-.3 1.9.6.1.9-1.5 1.3-.5.3-1 1.6-.6 1.8-1.9 0 .3.6 0 0 .8.8-.4 1 1.2 1.4 1.2.2 0-.2-.8.2-.9.1.1.1.2.1.2l.2-.3c.2.3-.2.7-.2 1 .7.3 1.1-.8 1.9-.9l-.1.2h.8v.1l.6-.5v.3c.1-.1.2-.3.4-.4l-.1.4c.2-.7 1-1 1.3-1l.1.2.9-.9c.5.5-.6 1 .3.7l-.2.9c.6-.3.7.1 1.2-.2-.2-.4-.5-.4-.3-.8.5 1 .8-.3 1.3-.7-.2 0-.4 0-.6.5-.3 0-.1-.5-.3-.5l-.4.5-.1-.6-.6.5c0-.7-.6-.1-.3-.8-.4.3-.7-.2-1.1.5-.3-.4.5-.5.2-.6-1.8.6-3.6.5-5.5.2l.2-.3c-.2.3-.4.6-.6.8-.3-.6-1.5-1.3-2-.2-.1-.1 0-.2.1-.3-.6.1-1.7-.6-2.6-.5-.4 1.1-1.3-.7-1.7.8l.2-.3c.3.4-.4 1-.5 1.4-.2-1 0-.8-.3-1.7l.3.3-.1-.8c-1.1 2.1-2.1-1-2.8.6 0-.1 0-.2.1-.3-.5-.5-.8.6-1.1.8 0-.4.2-.7.4-1-.8-.3-2.2.8-3.1.1-.3.5.1.7-.2 1.1-.3-.2-.5-.6-.1-.9-.8-1-2.5.7-3.7-.3-.6.6-.2.9-1.2 1.3.2-.4-.2-1.3.3-1.4l.1-.4c-.9-.1-2.2-.2-2.7 1 0-.9-.2-.2-.5-.7-.1.1 0 .1.1.2-.3.8-.5 0-.8.1l.1-.2-.7.6c-.1-.1-.3-.3-.3-.6v.6c-.4 0-.2-.8-.6-.6l.1.5c-.3-.3-.8.4-.8-.3 0-.1 0-.1.1-.1-.5-.9-1.2.3-1.7-.1l.1 1c-.5.3-.3-.2-.3-.6-.4 0-.4-.3-.9-.4-.2.3-.1.4-.2.7l-.5-.2.3-.5c-.8 1.5-1.9-.2-2.4 1.2-.3-.3.3-.6.1-.8-.9-.6-2 1-2.7.2-1.2-.7-2.6 0-4-.5v.3l-1-.2c-.3.6-.9.3-1.3 1 0-.2-.1-.5 0-.7-.4.1-.9.4-1.1 0l.1-.2c-.9-.2-2.2-.2-2.6.3-.3.1-.3-.4-.4-.7-.5 0-.9.2-1.3.7-.1-.1-.2-.2-.4-.5l-.2.7c-.2-.1-.1-.5-.2-.7-.8.8-1.8.1-2.3.1l.1.3c-.2.3-.7-.2-.4-.5-1.1-.4-1.7 1-3.2.9-.2-1.2-1.4.4-1.6-1-.6.3-1.1-.2-1.5.6 0-.1-.1-.2 0-.2-.3-.5-1.1-.1-1.8.2v-.4c-.2.9-1.4.6-1.6 1.5-.1-.2.1-.4.2-.5-.3-.8-.6.4-1 .2 0-.2-.1-.5 0-.6-1.4-.9-3.5.7-5.4 0-.5 0 .2.9-.5.9-.2-.4.3-.9-.1-1.1-.3.5-.4.4-.9.4.1-.3 0-.5.3-.7-.2-.4-1 .7-1.5 0 0 .3-.1.4-.2.6-.7.8-1.6-.8-1.7-.3 0 0-.2.1 0 .2-.3 0-.6-.1-.6-.6-.1.2-.3.6-.5.6l.1-.5c-.1.1-.3.4-.4.5l.2.3c-.3-.4-.9.6-.9-.4h.1l-.6-.4c-.2.4-.5.8-.8.6-.1-1-1-.2-1.4-.3v-.3c-.6.7-1.6.4-1.4.6-.4 0-.9-.2-.7-.6-.3.2-.9.2-1.1.8l-.6-.8c-.4 1.2-1.2-.4-1.2.9-.3-.2-.3-.5-.5-.7-.5.6-.9.5-1.4.4v-.1c-.5-.1-1 .6-1.7.6l-.1-1c-.4.1-.4.9-.8.7-.1-.2 0-.2.1-.3-.3.2-.8-.1-1-.3-.5.7-.9.5-1.3 1.2-.4-.9.6-.4.3-1.2-.7-.5-1.5 0-2.3.5-.1-.2 0-.3.1-.6 0 0-1.6 2.4-1.3 3.4-.2.7-.4 1 .3 1.6.2-.4.9-.9 1-.1v-.7c.9-.3.1 1.4 1.2 1.4l-.5-.3c.2 0 .4-.5.6-.3.1.2-.1.3-.2.4l.9-.9c0 .4 0 .6-.2.9.8 0-.2-1.3.8-1 .2.3-.1.4-.2.7.5.6.8 0 1.3-.3 0 .6-.3.5.1.9-.1-.3-.1-.9.2-.9-.1.6.2.3.5.5-.1-.2 0-.5.1-.6.1-.1.3.1.5.1l-.4-.6c.5-.6.8.3 1.2.6 0 .1-.1.2-.2.2.4.3.8.8 1.4.2v.1c1-.6-.3-1 .8-1.6.4.1-.2 2 .7 1.3-.4-.5.6-1.3 1.1-1.5l-.5 1.2c.2 0 .5-.3.7-.2v-.3c0-1 .6.1 1-.5-.4 1.4-.5 1.1-.6 2.5.4-.8.8-1.5 1.4-1.3l-.5 1.1c.9.2 1.9-1.3 2.6-2.2-.2.8.1 1.1-.2 1.8l.8-.2-.3.9c.3-.9.7-.3.6-1.4-.1.2-.1.3-.2.3 0-.4.2-1.1.6-1 .3.3-.2.4-.1.8.3-.5.3.3.6-.1l-.3-.6c.2-.7.5 0 .7-.4-.3.3-.2.7-.1 1.1v-.1c.2 0 .5-.5.6-.1l-.2.9.3-.7c.1.1.2.4 0 .6.9.6 0-2 1.2-1.1 0 .3-.2.6-.5.4-.1.6 0 .9.4 1.1v.1c.7 0 1.6.1 2-.6z"/><path d="M92.8 83.8c-.3 0-.6 0-.8.1.1.2.8.5.8-.1zM143.1 82.8l-.1.1.1-.1zM145.8 82.5c0-.1-.1-.2-.1-.2 0 .2 0 .3.1.2zM117.8 83.1zM133.2 83.4c.2-.3.3-.5.3-.8-.1.1-.2.3-.3.8zM128 83l-.1.1c.1 0 .1-.1.1-.1zM117 83.6c.2-.3.5-.3.8-.5-.2.2-.6-.1-.8.5zM149.1 81.5l-.2.5.3-.4zM146.6 81.8c-.1-.1-.6.2-.4.4.1-.2.3-.3.4-.4zM136.9 81.4l-.1.5.2-.4z"/></g><g><path d="M148.2 65.2c.1 0 .1-.4.1-.5-.2.2-.1.6-.1.5zM146.4 66.2l.1-.2-.3.5zM144.7 66.2c.2.7.6-.1.9.1v.2l.1-.6c-.2.1-.7.5-1 .3zM143.8 64.6c.1.3-.2.2.2.1v-.1h-.2zM144 64.6c.2 0-.1-.2 0 0zM143.1 64.8l.2-.3c0-.2-.3-.2-.2-.3-.1.2-.1.3 0 .6zM142.9 65.3l.1-.1s0-.1-.1.1zM143.3 65l-.3.2c0 .1 0 .4.1-.1 0 .3.1.1.2-.1zM143.5 65.1c.1.2.3.3.1.5.4-.1.3-.6-.1-.5zM144.6 67l.2.2.2-.2c-.1 0-.4-.3-.4 0zM141.7 64.4c0 .2.1.4.1.6l.2-.2c-.1 0-.3-.1-.3-.4zM141.8 65l-.3.3c.2 0 .3-.1.3-.3zM142.9 66.1l.4-.5-.5.5zM140.7 64.4l.1-.4-.2.6zM140 64.5c.1-.3-.2-.5 0-.7-.2.1-.3.3-.5.5.2-.1.3-.1.5.2zM139.3 64.7c.1-.1.1-.2.2-.3-.1 0-.1.1-.2.3zM141.1 65.2c0-.1-.1-.3-.2-.4l.1.4h.1zM141 65.2h-.3zM141.1 65.2c0 .1 0 .1 0 0zM142.2 65.7c-.2.2-.5.5-.2.9.1-.3 0-.5.2-.9zM141.2 65.8l.3.1c0-.1-.1-.3 0-.4l-.3.3zM141.1 65.9l.1-.1-.1-.1zM139.8 65.1c-.1.2-.3.2-.4.2.2.1.3.1.5.1 0-.1 0-.4-.1-.3zM140.3 65.2s0 .1 0 0zM137.9 65.3v.1-.1zM139.9 65.5c.1.1.2 0 .3-.2-.2.1-.3.1-.3.2-.1 0-.1 0 0 0zM138.9 64.9c.1.1.1.2.2.2-.1-.1-.2-.4-.2-.2zM140.3 65.1c0-.1 0-.1 0 0z"/><path d="M140.3 65.1c-.1.1-.1.2-.2.3.1 0 .1-.1.2-.1v-.2zM137.4 68.1c0-.4.3-.8.6-.3.3-.3.1-1.6-.1-2.4 0 .2 0 .3-.3.6.1.2.6.5.4.9-.4.2-.3-.1-.5-.4.2.5-.5.7-.4 1.5l.3-.3c.1.1 0 .3 0 .4zM138.4 65.4l.1-.1c-.1-.1-.2-.2-.4-.5-.2.2-.2.3-.2.5l.5.1zM139.1 65.4c-.1.4-.4.6-.2 1.1.3 0 .2-.4.4-.6-.5.1.1-.2-.2-.5.1 0 .2 0 .3-.1-.1-.1-.2-.1-.3-.2V65.4c-.2-.1 0-.1 0-.2v-.1l-.5.2c.1.1.2.1.5.1zM141.7 67.6v-.1.1zM141.5 67.3c0-.1.1-.2.2-.2.1.1 0 .2 0 .4.1-.1.3-.3 0-.5v.1c-.2-.2-.5-.7-.5-.8.1.3.2.6.3 1zM140.3 66.4l-.4.2.2.4v-.2c.2.1.1-.2.2-.4zM137.8 65.1l.1-.5-.3.7zM137.3 65.1v-.4l-.2.3zM104.5 70.2l-.1.1.1-.1zM105.5 70.2V70v.2zM123 65.2c-.2-.4-.4-1-.4-.5l.1.4c.1-.1.2 0 .3.1zM113.3 67.8v.2l.2-.5zM113.1 69.7l-.3-.3.3.3zM99.4 70.6l-.2.5c.2 0 .1-.3.2-.5zM131.3 65.3c-.2-.2-.3-.2-.4-.3.2.3.4.7.4.3zM104.9 65.4c-.1.1-.1.2-.1.3.1-.1.1-.1.1-.3zM130.4 65l.1.1c.1-.1.2-.1.4-.1-.1-.2-.3-.3-.5 0zM80.6 70.3c-.1-.1-.1-.1 0 0-.1 0-.1 0 0 0zM75.1 65.8h.2c0-.1-.1-.1-.2 0zM134.9 64.9c.2 0 0 0 0 0zM135.5 66.7v0zM129.2 67.8c0 .1 0 .1 0 0zM135.1 65.1c0-.1-.1-.1-.2-.1.1 0 .1.1.2.1zM135.1 64.9h0zM134.8 65h.2v-.1c-.1 0-.2.1-.2.1zM90.6 69.1s0-.1 0 0c-.1.1-.1.1 0 0zM119.8 69.8zM119.4 70.1c.2-.6.3-.5.4-.4l-.1-1.3-.3 1.7z"/><path d="M102.3 70.3l.3.4c-.4.7-.6.4-.4 1 0-1.4 1.2-.1 1.2-1.5l.2.3c-.1 0-.1.1-.1.1.4.7.3-1 .8-.8.2.1.3.3.2.5l.4-.3c.1 0 .1.3 0 .2l.6-.1c.1-.2.3-.6.4-.7.2.2-.1.1 0 .3l.3-.3c.1.4-.1.7-.4.7.3 1.4.3-.4 1 .5l-.3.2c.2.8.5.5.8 1-.1-.3-.7-1.2-.4-1.6.1.1.2.2.4-.1 0 .5.2.4.4.3v.7c.3-.2.2-.5.4-.8.3.1.4.6.4 1 .5.1-.3-.8.2-.9.4.3.7 0 1.1-.4.3.2 0 .4 0 .6l.2-.5c.1 0 0 .2 0 .3.2-.2 0-.7.3-.8.1-.7.7 1.1 1 .2.1.2 0 .4 0 .7.5-.5.5-.4.9-1.1l.4.4c-.3-.5.1-1.1.4-1.5-.1-.2-.2-.4-.2-.5l.5-.4c.1.1 0 .3-.1.6l.1-.2c.2.2.1.6 0 1l-.2-.4c-.1.4-.2.8-.2 1.2 0-.1.1-.1.2-.2 0 .1-.1.2 0 .3 0 .1.1-.1.1-.2l.1.7v-.3l.6.5c.5-.7.9-1.8 1.6-2.1-.2.5 0 .9 0 1.5-.2-.7-.6.3-.9.1.2.1.2.4.1.5l.7-.6c0 .5.1.4.3.6-.1-1 .5-.7.8-1 0 .3 0 .7-.4.6.4.8.5-1.2.8-.5-.1 0-.1 0-.2.1.2-.3.7-.1.6.2h-.1c.5.1 1.7 0 1.7-.9 0 .1-.1 1-.1 1.2l1-2.9c-.1.7.2 2.5-.2 2.9.1.1.3.2.6 0-.1-.1-.2-1.1-.1-1.1.3.8.2.4.6 1.2-.1-.2 0-1.3.2-1.3 0 .2 0 1.2-.1 1.3l.5-1.1c-.1.2 0 1 .1 1.3-.1-.2.5 0 .6-.1l-.2-.3c.6.2.6-1.6 1.2-1.6-.1.2-.2 1.5.1 1.6.1-.6.6-2.8 1.1-3.3l.1.3.4-.4c-.2.9-.9 2.8-1.3 3.5.2.3.1.4.4.4.1.3-.2.5-.3.5l.8.2c0-.7.6-.7.6-1.3l-.8.7c0-.7.5-2 1-1.8.1.3-.1 1.2-.1 1.5.1-.2.5-.5.6-.3l-.2.4c.3.3.5-.9.9-.3.1 0 .4.9.4.5-.2-.8-.2-3.2-.1-3.8 0 .1.7.8.8 1.1.2.6-.3 1.5-.1 2 0-.2.1-.4.2-.5.1.2-.1.6.2.5 0-.7.6.1.1-.6.3-.2.3.1.6.1-.1-.5.3-1.5.6-1.7 0 .2 0 .4.1.5.6.1.9.4 1.4.4 0 .2.3.4.2.7.1-.1.1-.4.3-.4.3.6-.4.1-.1.8 0-.4.4-.6.7-.8-.1-.6-.5-.1-.8.1 0-.9.4-1.8 1-2.2.4-.2.2.6.3.4.8.2.7-1.5 1.4-.9.3.5 0 1.1.1 1.5-.4.2-.6-.3-.8-.3l.3.3c-.1.2-.4.3-.5.2.2.5 1.4.1 2.1.6.1-.2.3-.4.2-.6l-.2.1c-.2-.4.4-.6.1-.8.3-.3.6-.8 1-.6l.1.6c0-.2-.3-.4-.4-.2.2-.3.6.8.8 0l-.3-.4c.3-.3.6-1 1-.8-.2-.6-.1.1-.3-.7.2.9-.9 0-.5.9-.2-.8-.4-.4-.8-1.1 0 .2.1.4-.2.3 0 .1 0 .1-.1.2.1.1.1.2.1.3-.1.5-.6.5-.8.7-.2-.1.1-.2 0-.5l-.2.4c0-.5-.5-.8-.1-1h-.4c-.2-.3-.5-.4-.7-.2-.2-.1-.4.5-.3.1l-.6.3v-.1c-.6-.1-1.2.8-1.8-.1-.2.1-.4.3-.7.1l-.1-.4c-.2.1-.7-.4-.8 0-.3-1.1-1.2-.2-1.6-.4v.5c-.3 0-.6.1-.9.3v.5c-.3.4-.8-.3-1.3-.3 0-.2.2-.1.2 0-.6-1-1.3.8-1.8 0-.1.2-.2.1-.3 0h-.1c-.1-.1-.1-.2-.2-.2.1.1.1.2.2.2-.1 0-.3.1-.4.2l-.1-.5c-.2-.2-.1.2 0 .6-.1.1-.1.2-.2.3-.1-.8-.4.3-.6-.6-.1.4-.8.3-.9 1.2 0-.1-.1-.2 0-.2-.2-.1-.3-.2-.5 0l-.1-.6-.4.8c-.2-.4-.3-.6-.1-1.1-.5.7-.4.3-.9 1v-.4c-.2 0-.4.6-.5.2-.4-.8-1.8-.1-2.8-.8.2 1.2-.4-.5-.5.4-.1-.3-.2-.4 0-.7-.5.3-.7-.4-1.1.3-.1-.3.1-.4.1-.6 0 .1-.2.2-.2.1 0-.2.1-.2.1-.4-.5 0-.5.9-.6 1.7-.3-.4-.4-.3-.6.2-.1-.3-.2-.5.1-.6-.2 0-1.1-.4-1.1.3-.1-.2-.2 0-.3 0-.4 0-.4-.1-.8 0l.1.1c-.2.8-.3.2-.6.3v-.1c-.7-.6-.3.3-1-.4v.5c-.1 1.1-.6-.6-1-.2l.1.3c-.2.4-.6-1.4-.8-1.6 0-.1.1-.1.1-.2-.6-.6-.1.6-.5.8-.1-.3.1-.9-.2-.9-.1-.3-.8 1.1-1.2.5.1.3.2.5 0 .7-.3.1-.8-1-1.1-.2 0-.1-.1-.1-.1-.2-.2.2-.8.4-.9.8-.2-1.7-1.5.8-1.5-.7l-.7.1v-.2c-.5-.1-.6.3-.8.6-.1-.1 0-.3 0-.3-.7-.3-.7-.2-1.3.5l-.1-.5c-.2.3-1-.8-1.6-.2 0-.1 0-.2.1-.2-.7.6-1.8-1.4-2.1.4l-.5.5c.6.1-.1.8.2 1.1-.3.1-.6-.6-.3-.7v.1c.1-1-.8-.3-.8-1-1.3 0-2.5-.5-3.6-.5l.1.7h-.4c-.1-.2-.1-.6.1-.6-.2-.4-.5.4-.5.5-.6-.3.2-.9 0-.9l-.2.1.1.1c-.2.3-.2.6-.6.6-.2-.2-.1-.5-.2-.5 0-.1 0-.1-.1 0l-.5-.1.2.6c-.2.3-.5 0-.2.6-.3-1-1.9-.4-2.1-.7-.3.4-.6.4-1 .4.1.1.2.8-.2.7.1-1.4-.6-.6-.9-1.6.2.7-1 .2-.6 1.1-.3-.1 0-.5-.2-.8-.7.5-1.5-.3-2.3-.2 0 .2.1.5-.1.7l-.4-.9c-.2.1-.2 1-.5.4 0 .2.1.4 0 .4-1.6-.9-3.3.7-5-.9.2.3.1.4-.1.4.1.1 0 .4 0 .7l-.7-.7c-.1.7-.7 0-.8.7l.2-.1c-.3.8.4 1.7.4 2.7.3-.9.9 1.3 1.4 0 .1.2-.1.3 0 .5.1-.4.3-.5.6-.3v.1c.9-.1 1.2.3 2.2.6l-.1-.5c.2.1.2.2.3.3.2-.7-.6 0-.4-.9.3 1 1.5 0 1.6 1.1.3 0-.1-.6.2-.6l.1.3.1-.4c.2.1.3.4.3.7-.1 0-.1.1-.2.1.3.4.8-.1.9 0l-.3-.2c.9-.3 1.9.1 2.8-.5l-.1-.2c.6-.4.5.3 1.2.1v.1c.1-.2.3-.3.5-.3-.2.3.3.5.1.8.7-.5.3-.4.8-1.2l.1.4c.2-.3.2-.5.5-.6-.3.3.2.6-.1 1 .7.8 1.1-.8 1.4.4.3-1-.6-.6-.4-.8-.2-.3.3-.8.5-.7.2 0 .4 1.3 1 1.3-.1 0-.1.1-.1.1.2.3.4-.4.7.1.2-.6.4 0 .4-.8l-.5.2c.3-.2.6-1.2 1.1-.7 0 .2-.2.4-.3.5.1.2.3-.2.4.1 0 .8-.7.2-1 .8.2.3.6-.6.5.3.2-1.1.6.1 1-.7v.5c.1-.1.2-.3.3-.3l-.2.6c.3-.5.6.5.9.2-.6 0-.1-.6-.4-.9.8-.6.5 1.3 1.4 1-.1.1-.5-.3-.3-.5.2.1.4.3.5.5.6-.1-.1-.5.2-.8.2.6.3-.2.6-.4v.5c.7.3.2-1 .8-.6v.6l.3-.2-.1.6c.3-.4.5-.3.8-.2-.1-.3 0-.9.3-.9.2.3-.1.5.3.4-.1.3-.2.7-.4.2 0 .2-.1.3-.1.5.2.3.6.1.7.1-.1 0-.1 0-.2-.1l.6-.7c.1.2 0 .3-.1.5.1-.1.2-.3.4-.3 0 .4 0 .8-.3 1l.6-.4c0 .2.3.5.2.6.3.2.8-.8 1.2-.5 0-.1.1-.2.2-.2.4.1.8.6 1.2 0l.3.7c.4-.2-.4-.9.3-1.2.4-.2.2.6.3.8.2-.4.6-1.1 1-.5.1.1 0 0-.1.1zm4.6-.3c-.1.1-.3.4-.3.1.1-.6.2-.3.3-.1zm7.1-1.2c-.1.2-.2.1-.3-.1 0-.1.1-.1.3.1zm19.6-3.5c-.2-.1-.2-.1 0 0zm.4.3v-.2c0 .1-.1.1-.2.1 0 .1.1.2.2.1zm-44.7.1l.1.1c-.2.2-.1.1-.1-.1z"/><path d="M113.2 69.4v-.3c-.1.2-.1.3 0 .3zM99.4 70.5c0 .1 0 .1 0 0zM127.6 69.7c-.1-.1-.1-.2-.2-.3 0 .2 0 .3.2.3zM136.2 64.7l-.3.1c.1 0 .2.1.2.2.1-.1 0-.3.1-.3zM138.5 67.8c0-.1.1 0 .1-.1v-.2c-.1 0-.3.2-.1.3zM136.4 66.4c0 .4.2.3.4.2 0-.6-.2-.4-.4-.2zM136.9 66.5h.2c0-.2-.1 0-.2 0zM134.5 65.3c.1.1.1-.5.1-.4.1-.5-.6.7-.1.4zM136.6 67.7l-.1-.5-.1.4zM135.1 67.3l.3.1c0-.1 0-.1.1-.2-.2.1-.4 0-.4.1zM135.5 67.3c.1 0 .2 0 .2-.1 0 0-.1 0-.2.1zM136.2 67.9l-.1-.1-.2-.1zM131.9 67.2l-.3.1c0 .2.1.3.2.2 0 0 .2-.1.1-.3zM132.9 68.6c-.1-.1-.1-.2-.1-.4v.6l.1-.2zM132 68.8c0 .2-.5.5-.1.5 0-.2.4-.4.1-.5zM127 68h.1v-1.1zM122.7 70.5c.4.2.1-.6.4-.3.1-.2-.3-.3-.2-.5-.2.2-.3.1-.2.8zM123 69.7s.1-.1.1-.2c-.1.1-.1.1-.1.2zM74.2 65.2l-.3-.2.2.4zM73.7 66l-.1-.7-.1.6s.2-.1.2.1zM107.6 71.3v-.2c0-.2-.1-.2-.2-.2l.2.4zM104.2 70.8h.1l-.1-.6zM101.4 71.6c.1 0 .3-.1.4-.1-.3.1-.4-.7-.4.1z"/></g><g><path d="M67 84.5h-.1l-2.5-1.3-2.5 1.3h-.2c-.1-.1-.1-.1-.1-.2l.5-2.8-2-2c-.1-.1-.1-.2-.1-.2 0-.1.1-.1.2-.2l2.8-.4 1.3-2.5c.1-.2.3-.2.4 0l1.3 2.5 2.8.4c.1 0 .2.1.2.2s0 .2-.1.2l-2 2 .5 2.7v.1c-.2.1-.3.2-.4.2zM67 98.1h-.1l-2.5-1.3-2.6 1.2h-.2c-.1-.1-.1-.1-.1-.2L62 95l-2-2c-.1-.1-.1-.2-.1-.2 0-.1.1-.1.2-.2l2.8-.4 1.3-2.5c.1-.2.3-.2.4 0l1.3 2.5 2.8.4c.1 0 .2.1.2.2s0 .2-.1.2l-2 2 .5 2.7v.1c-.1.2-.2.3-.3.3zM61.7 71h-.1c-.1 0-.1-.1-.1-.2L62 68l-2-2c-.1-.1-.1-.2-.1-.2 0-.1.1-.1.2-.2l2.8-.4 1.3-2.5c.1-.2.3-.2.4 0l1.3 2.5 2.8.4c.1 0 .2.1.2.2s0 .2-.1.2l-2 2 .5 2.7v.1c0 .1-.1.2-.2.2H67l-2.5-1.3-2.7 1.3h-.1zM25.7 71h-.1l-2.5-1.3-2.5 1.3h-.2c-.1 0-.1-.1-.1-.2l.5-2.8-2-2c-.1-.1-.1-.2-.1-.2 0-.1.1-.1.2-.2l2.8-.4 1.3-2.5c.1-.2.3-.2.4 0l1.3 2.5 2.8.4c.1 0 .2.1.2.2s0 .2-.1.2l-2 2 .5 2.7v.1c-.1.1-.2.2-.4.2zM25.7 84.5h-.1l-2.5-1.3-2.5 1.3h-.2c-.1-.1-.1-.1-.1-.2l.5-2.8-2-2c-.1-.1-.1-.2-.1-.2 0-.1.1-.1.2-.2l2.8-.4 1.3-2.5c.1-.2.3-.2.4 0l1.3 2.5 2.8.4c.1 0 .2.1.2.2s0 .2-.1.2l-2 2 .5 2.7v.1c-.1.1-.2.2-.4.2zM25.7 98.1h-.1l-2.5-1.3-2.5 1.2h-.2c-.1-.1-.1-.1-.1-.2l.5-2.8-2-2c-.1-.1-.1-.2-.1-.2 0-.1.1-.1.2-.2l2.8-.4 1.3-2.5c.1-.2.3-.2.4 0l1.3 2.5 2.8.4c.1 0 .2.1.2.2s0 .2-.1.2l-2 2 .5 2.7v.1c-.1.2-.2.3-.4.3zM39.5 71h-.1l-2.5-1.3-2.5 1.3h-.2c-.1 0-.1-.1-.1-.2l.5-2.8-2-2c-.1-.1-.1-.2-.1-.2 0-.1.1-.1.2-.2l2.8-.4 1.3-2.5c.1-.2.3-.2.4 0l1.3 2.5 2.8.4c.1 0 .2.1.2.2s0 .2-.1.2l-2 2 .5 2.7v.1c-.2.1-.3.2-.4.2zM39.5 98.1h-.1l-2.5-1.3-2.5 1.2h-.2c-.2 0-.2-.1-.2-.2l.5-2.8-2-2c-.1-.1-.1-.2-.1-.2 0-.1.1-.1.2-.2l2.8-.4 1.3-2.5c0-.1.1-.1.2-.1s.2 0 .2.1l1.3 2.5 2.8.4c.1 0 .2.1.2.2s0 .2-.1.2l-2 2 .5 2.7v.1c-.1.2-.2.3-.3.3zM53.2 84.5h-.1l-2.5-1.3-2.5 1.3h-.2c-.1-.1-.1-.1-.1-.2l.5-2.8-2-2c-.1-.1-.1-.2-.1-.2 0-.1.1-.1.2-.2l2.8-.4 1.3-2.5c.1-.2.3-.2.4 0l1.3 2.5 2.8.4c.1 0 .2.1.2.2s0 .2-.1.2l-2 2 .5 2.7v.1c-.1.1-.2.2-.4.2zM53.2 98.1h-.1l-2.5-1.3-2.5 1.2h-.2c-.1-.1-.1-.1-.1-.2l.5-2.8-2-2c-.1-.1-.1-.2-.1-.2 0-.1.1-.1.2-.2l2.8-.4 1.3-2.5c.1-.2.3-.2.4 0l1.3 2.5 2.8.4c.1 0 .2.1.2.2s0 .2-.1.2l-2 2 .5 2.7v.1c-.1.2-.2.3-.4.3zM53.2 71h-.1l-2.5-1.3-2.5 1.3h-.2c-.1 0-.1-.1-.1-.2l.5-2.8-2-2c-.1-.1-.1-.2-.1-.2 0-.1.1-.1.2-.2l2.8-.4 1.3-2.5c0-.1.1-.1.2-.1s.2 0 .2.1l1.3 2.5 2.8.4c.1 0 .2.1.2.2s0 .2-.1.2l-2 2 .5 2.7v.1c-.1.1-.2.2-.4.2zM39.5 84.5h-.1l-2.5-1.3-2.5 1.3h-.2c-.2-.1-.2-.2-.2-.2l.5-2.8-2-2c-.1-.1-.1-.2-.1-.2 0-.1.1-.1.2-.2l2.8-.4 1.3-2.5c.1-.2.3-.2.4 0l1.3 2.5 2.8.4c.1 0 .2.1.2.2s0 .2-.1.2l-2 2 .5 2.7v.1c-.1.1-.2.2-.3.2z"/></g></g></svg>