<?xml version="1.0" encoding="utf-8"?>
<!-- Generator: Adobe Illustrator 22.0.1, SVG Export Plug-In . SVG Version: 6.00 Build 0)  -->
<svg version="1.1" id="Layer_1" xmlns="http://www.w3.org/2000/svg" xmlns:xlink="http://www.w3.org/1999/xlink" x="0px" y="0px"
	 viewBox="0 0 200 200" enable-background="new 0 0 200 200" xml:space="preserve">
<g id="Baseball_Badge">
	<g id="DAY">
		<path id="Y_3_" fill="#58585B" d="M114.5,145.2v4.9h1.2v3.3h-6.2v-3.3h1.2v-4.9l-3-7.4h-0.8v-3.4h5.3v3.4h-0.8l1.2,3l1.2-2.9h-0.8
			v-3.4h5.2v3.4h-1L114.5,145.2z"/>
		<path id="A_3_" fill="#58585B" d="M101.1,153.4h-5v-3.3h0.7l2.8-12.3h-0.8l0-3.4h5.6v3.4h-0.6l3.1,12.3h0.7v3.3h-5v-3.3h0.8
			l-0.3-1h-2.7l-0.3,1h0.9V153.4z M102.5,146.5l-0.7-2.9l-0.8,2.9H102.5z"/>
		<path id="D_3_" fill="#58585B" d="M91.9,153.4H81.5l0-3.3h1.4v-12.3h-1.4v-3.4H92l2.1,1.8v15.3L91.9,153.4z M90.1,137.8h-3.5v12.3
			h3.5V137.8z"/>
	</g>
	<path id="Bottom_Badge" fill="#59595C" d="M151.3,142.8c-0.9-1.5-2.7-2.5-4.8-2.6c-3.7-0.2-6.1-2.3-10.2-6.9
		c-1.2-1.4-8.3-9.3-17.4-19.5h31.6c0.7,0,1.2-0.6,1.2-1.2c0-0.7-0.6-1.2-1.2-1.2H49.6c-0.7,0-1.2,0.6-1.2,1.2c0,0.7,0.6,1.2,1.2,1.2
		h31.6C72,124.1,65,132,63.8,133.3c-4.1,4.6-6.6,6.8-10.2,6.9c-2.1,0.1-4,1.1-4.8,2.6c-0.7,1.1-0.7,2.5-0.1,3.7
		c0.9,1.8,2,3.3,3.3,4.7c1.4,1.4,2.9,2.5,4.7,3.3c0.6,0.3,1.2,0.4,1.8,0.4c0,0,0,0,0,0c2.4,0,4.3-2.3,4.5-5.4
		c0.2-3.6,2.3-6.1,6.9-10.2c1.7-1.5,14.2-12.7,28.8-25.7h2.6c14.6,13,27.1,24.2,28.8,25.7c4.6,4.1,6.7,6.6,6.9,10.2
		c0.2,3.1,2.1,5.4,4.5,5.4c0.6,0,1.2-0.1,1.8-0.4c1.8-0.9,3.3-2,4.7-3.3c1.4-1.4,2.5-2.9,3.3-4.7C152,145.3,151.9,143.9,151.3,142.8
		z M68.1,137.3c-5.1,4.6-7.6,7.5-7.9,12.2c-0.1,1.4-0.9,2.7-1.7,2.7c-0.2,0-0.4-0.1-0.6-0.2c-1.5-0.7-2.8-1.7-3.9-2.8
		c-1.1-1.1-2.1-2.5-2.8-3.9c-0.3-0.5-0.2-0.9,0-1.1c0.4-0.6,1.4-1.1,2.6-1.2c4.6-0.2,7.6-2.7,12.2-7.9c1.3-1.4,9.1-10.2,19.1-21.4
		h9.5C80.9,125.8,69.7,135.9,68.1,137.3z M148.8,145.3c-0.7,1.5-1.7,2.8-2.8,3.9c-1.1,1.1-2.5,2.1-3.9,2.8c-0.2,0.1-0.4,0.2-0.6,0.2
		c-0.8,0-1.6-1.3-1.7-2.7c-0.2-4.6-2.7-7.6-7.9-12.2c-1.6-1.4-12.9-11.5-26.4-23.6h9.5c10,11.2,17.8,19.9,19.1,21.4
		c4.6,5.2,7.5,7.6,12.2,7.9c1.1,0.1,2.2,0.5,2.6,1.2C149,144.4,149.1,144.8,148.8,145.3z"/>
	<g id="INDEPENDENCE">
		<path id="E_7_" fill="#58585B" d="M146,98.7v2.8h4.3v1.6H146v2.9h4.9v1.6h-6.4V97.1h6.3v1.6H146z"/>
		<path id="C_1_" fill="#58585B" d="M143,98.7l-0.9,1.3c-0.6-0.8-1.6-1.3-2.4-1.3c-1.8,0-3.1,1.6-3.1,3.7c0,2.1,1.4,3.7,3.1,3.7
			c0.9,0,1.8-0.5,2.4-1.2l0.9,1.2c-0.9,1.1-2.2,1.7-3.4,1.7c-2.6,0-4.6-2.3-4.6-5.4c0-3,2-5.3,4.6-5.3C140.9,97,142.1,97.7,143,98.7
			z"/>
		<path id="N_5_" fill="#58585B" d="M132,107.6l-4.7-7.6v7.6h-1.5V97.1h1.5l4.7,7.6v-7.6h1.5v10.5H132z"/>
		<path id="E_6_" fill="#58585B" d="M119.1,98.7v2.8h4.3v1.6h-4.3v2.9h4.9v1.6h-6.4V97.1h6.3v1.6H119.1z"/>
		<path id="D_5_" fill="#58585B" d="M111.5,97.1c2.6,0,4.5,2.2,4.5,5.3c0,3-1.9,5.3-4.6,5.3h-3.6V97.1H111.5z M109.3,106h2.2
			c1.7,0,3-1.5,3-3.7c0-2.2-1.3-3.7-3.1-3.7h-2.1V106z"/>
		<path id="N_4_" fill="#58585B" d="M104.1,107.6l-4.7-7.6v7.6h-1.5V97.1h1.5l4.7,7.6v-7.6h1.5v10.5H104.1z"/>
		<path id="E_5_" fill="#58585B" d="M91.2,98.7v2.8h4.3v1.6h-4.3v2.9h4.9v1.6h-6.4V97.1H96v1.6H91.2z"/>
		<path id="P_1_" fill="#58585B" d="M84.8,97.1c2.2,0,3.5,1.3,3.5,3.6c0,2.4-1.3,3.8-3.5,3.8h-2v3.2h-1.5V97.1H84.8z M82.7,102.8h2
			c1.4,0,2.1-0.7,2.1-2.1c0-1.4-0.8-2-2.1-2h-2V102.8z"/>
		<path id="E_4_" fill="#58585B" d="M74.5,98.7v2.8h4.3v1.6h-4.3v2.9h4.9v1.6H73V97.1h6.3v1.6H74.5z"/>
		<path id="D_4_" fill="#58585B" d="M66.9,97.1c2.6,0,4.5,2.2,4.5,5.3c0,3-1.9,5.3-4.6,5.3h-3.6V97.1H66.9z M64.8,106H67
			c1.7,0,3-1.5,3-3.7c0-2.2-1.3-3.7-3.1-3.7h-2.1V106z"/>
		<path id="N_3_" fill="#58585B" d="M59.5,107.6l-4.7-7.6v7.6h-1.5V97.1h1.5l4.7,7.6v-7.6H61v10.5H59.5z"/>
		<path id="I_1_" fill="#58585B" d="M49.6,107.6V97.1h1.5v10.5H49.6z"/>
	</g>
	<path id="Top_Badge" fill="#59595C" d="M51.6,69.3c1.1,1,11.2,10,23.8,21.2H49.6c-0.7,0-1.2,0.6-1.2,1.2c0,0.7,0.6,1.2,1.2,1.2
		h100.8c0.7,0,1.2-0.6,1.2-1.2c0-0.7-0.6-1.2-1.2-1.2h-25.7c12.6-11.2,22.6-20.2,23.8-21.2c3.8-3.5,3.5-6.7,3.1-7.9
		c-0.6-2.4-1.5-3.7-3.8-6c-2.3-2.3-3.6-3.1-6-3.8c-0.5-0.1-1-0.2-1.5-0.2c-1.5,0-3.9,0.6-6.4,3.3c-1.3,1.4-16.2,18.1-31.9,35.8h-3.9
		C82.3,72.9,67.4,56.2,66.1,54.8c-2.5-2.8-4.9-3.3-6.4-3.3c-0.5,0-1,0.1-1.5,0.2c-2.4,0.6-3.7,1.5-6,3.8c-2.3,2.3-3.1,3.6-3.8,6
		C48.1,62.6,47.7,65.9,51.6,69.3z M136,56.7c1.4-1.6,2.9-2.4,4.3-2.4c0.3,0,0.5,0,0.8,0.1c1.8,0.5,2.7,1,4.8,3.1
		c2.1,2.1,2.6,3,3.1,4.8c0.2,0.6,0.4,2.6-2.3,5.1c-1.2,1.1-12.5,11.1-26.1,23.3h-14.8C120.8,73.6,134.7,58,136,56.7z M51.1,62.1
		c0.5-1.8,1-2.7,3.1-4.8c2.1-2.1,3-2.6,4.8-3.1c0.2-0.1,0.5-0.1,0.8-0.1c1.4,0,2.9,0.9,4.3,2.4c1.2,1.3,15.1,16.9,30.3,33.9H79.5
		C65.9,78.4,54.6,68.3,53.4,67.2C50.7,64.8,51,62.7,51.1,62.1z"/>
	<path id="Ball" fill="#59595C" d="M100,45c-8,0-14.6,6.5-14.6,14.6c0,8,6.5,14.6,14.6,14.6c8,0,14.6-6.5,14.6-14.6
		C114.6,51.5,108,45,100,45z M109.2,67.7c-0.3-0.3-0.6-0.7-0.8-1.1l0.9-0.6c-0.1-0.2-0.2-0.4-0.3-0.6L108,66
		c-0.4-0.6-0.7-1.3-0.9-1.9l1-0.4c-0.1-0.2-0.2-0.4-0.2-0.6l-1,0.3c-0.2-0.7-0.4-1.4-0.5-2.1l1.1-0.1c0-0.2-0.1-0.4-0.1-0.7
		l-1.1,0.1c0-0.4-0.1-0.7-0.1-1.1c0-0.4,0-0.7,0.1-1.1l1.1,0.1c0-0.2,0-0.4,0.1-0.6l-1.1-0.2c0.1-0.7,0.3-1.4,0.5-2.1l1,0.3
		c0.1-0.2,0.1-0.4,0.2-0.6l-1-0.4c0.3-0.7,0.6-1.3,0.9-1.9l0.9,0.6c0.1-0.2,0.2-0.4,0.4-0.6l-0.9-0.6c0.3-0.4,0.5-0.7,0.8-1.1
		c1.9,2.2,3.1,5,3.1,8.2C112.3,62.7,111.1,65.5,109.2,67.7z M90.8,51.4c0.3,0.3,0.6,0.7,0.8,1.1l-0.9,0.6c0.1,0.2,0.2,0.4,0.3,0.6
		l0.9-0.6c0.4,0.6,0.7,1.3,0.9,1.9l-1,0.4c0.1,0.2,0.1,0.4,0.2,0.6l1-0.3c0.2,0.7,0.4,1.4,0.5,2.1l-1.1,0.2c0,0.2,0.1,0.4,0.1,0.6
		l1.1-0.1c0,0.4,0.1,0.7,0.1,1.1c0,0.4,0,0.7-0.1,1.1l-1.1-0.1c0,0.2,0,0.4-0.1,0.6l1.1,0.2c-0.1,0.7-0.2,1.4-0.5,2.1l-1-0.3
		c-0.1,0.2-0.1,0.4-0.2,0.6l1,0.4c-0.3,0.7-0.6,1.3-0.9,1.9l-0.9-0.6c-0.1,0.2-0.2,0.4-0.4,0.6l0.9,0.6c-0.3,0.4-0.5,0.7-0.8,1.1
		c-1.9-2.2-3.1-5-3.1-8.2C87.7,56.4,88.9,53.6,90.8,51.4z M91.9,68.8c0.4-0.4,0.7-0.9,1-1.3l0.9,0.6c0.2-0.2,0.3-0.5,0.5-0.7l-1-0.6
		c0.4-0.7,0.8-1.4,1-2.2l1,0.4c0.1-0.3,0.2-0.5,0.3-0.8l-1-0.3c0.2-0.8,0.4-1.5,0.5-2.3l1.1,0.2c0-0.3,0.1-0.6,0.1-0.9l-1.1-0.1
		c0-0.4,0.1-0.8,0.1-1.2c0-0.4,0-0.8-0.1-1.2l1.1-0.1c0-0.3-0.1-0.6-0.1-0.9l-1.1,0.2c-0.1-0.8-0.3-1.6-0.5-2.3l1-0.3
		c-0.1-0.3-0.2-0.5-0.3-0.8l-1,0.4c-0.3-0.7-0.6-1.5-1-2.2l1-0.6c-0.1-0.2-0.3-0.5-0.5-0.7l-0.9,0.6c-0.3-0.5-0.6-0.9-1-1.3
		c2.2-1.9,5-3.1,8.1-3.1c3.1,0,6,1.2,8.1,3.1c-0.4,0.4-0.7,0.8-1,1.3l-0.9-0.6c-0.2,0.2-0.3,0.5-0.5,0.7l1,0.6
		c-0.4,0.7-0.8,1.4-1,2.2l-1-0.4c-0.1,0.3-0.2,0.5-0.3,0.8l1,0.3c-0.2,0.8-0.4,1.5-0.5,2.3l-1.1-0.2c0,0.3-0.1,0.6-0.1,0.9l1.1,0.1
		c0,0.4-0.1,0.8-0.1,1.2c0,0.4,0,0.8,0.1,1.2l-1.1,0.1c0,0.3,0.1,0.6,0.1,0.9l1.1-0.2c0.1,0.8,0.3,1.6,0.5,2.3l-1,0.3
		c0.1,0.3,0.2,0.5,0.3,0.8l1-0.4c0.3,0.7,0.6,1.5,1,2.2l-1,0.6c0.1,0.2,0.3,0.5,0.5,0.7l0.9-0.6c0.3,0.5,0.6,0.9,1,1.3
		c-2.2,1.9-5,3.1-8.1,3.1C96.9,71.9,94,70.7,91.9,68.8z"/>
</g>
</svg>
