<svg xmlns="http://www.w3.org/2000/svg" x="0" y="0" version="1.1" viewBox="0 0 200 200" xml:space="preserve"><g><path d="M166.1 130.1h-15.5V97.3c0-3.5-2.9-6.4-6.4-6.4H84.4v-7.2H127c.7 0 1.3-.6 1.3-1.3V55.3c0-.7-.6-1.3-1.3-1.3H84.4v-.8c0-.7-.6-1.3-1.3-1.3-.7 0-1.3.6-1.3 1.3V91H50.7c-.8 0-1.5.7-1.5 1.5v37.6H33.9c-1.9 0-3.4 1.5-3.4 3.4v1.6c0 1.9 1.5 3.4 3.4 3.4h4.3c.2.3.4.8.7 1.7 1.5 5 5.5 7.8 10.8 7.8h100.7c5.3 0 9.2-2.9 10.8-7.8.3-.9.5-1.4.7-1.7h4.3c1.9 0 3.4-1.5 3.4-3.4v-1.6c-.1-1.9-1.6-3.4-3.5-3.4zM84.4 56.6h41.4v3.1h-23.3v2.1h23.3v3.3h-23.3v2.1h23.3v3.3H84.4V56.6zm0 16.1h41.4V76H84.4v-3.3zm0 5.4h41.4v3.1H84.4v-3.1zM52.2 94h92.1c1.9 0 3.4 1.5 3.4 3.4v7.1h-16.8c-2.8 0-5.1 2.3-5.1 5.1v8.4c0 1.1-.9 2.1-2.1 2.1-1.1 0-2.1-.9-2.1-2.1v-8.4c0-2.8-2.3-5.1-5.1-5.1H52.2V94zm95.4 13.4v8.6h-18.8v-6.5c0-1.1.9-2.1 2.1-2.1h16.7zm-95.4 0h64.4c1.1 0 2.1.9 2.1 2.1v6.5H90.5c-2.9 0-5 1.9-5 4.5v2.4c0 1-.8 1.8-1.8 1.8s-1.8-.8-1.8-1.8v-2.4c0-2.6-2.1-4.5-5-4.5H52.2v-8.6zm0 11.8h24.6c.4 0 1.8.1 1.8 1.4v2.4c0 2.8 2.2 5 5 5s5-2.2 5-5v-2.4c0-1.3 1.4-1.4 1.8-1.4h28.3c.6 2.2 2.5 3.8 4.9 3.8 2.4 0 4.3-1.6 4.9-3.8h19v10.9H52.2v-10.9zm106.1 20.1c-.8 2.7-2.9 5.8-8 5.8H49.7c-5.1 0-7.2-3.2-8-5.8l-.3-.9h117.3c-.2.3-.3.6-.4.9zm8.3-4.2c0 .3-.2.5-.5.5H33.9c-.3 0-.5-.2-.5-.5v-1.6c0-.3.2-.5.5-.5h132.2c.3 0 .5.2.5.5v1.6z"/><path d="M142.7 96.8c0 .3.3.6.6.6s.6-.3.6-.6-.3-.6-.6-.6-.6.3-.6.6zM132.9 96.8c0 .3.3.6.6.6s.6-.3.6-.6-.3-.6-.6-.6-.6.3-.6.6zM123.2 96.8c0 .3.3.6.6.6s.6-.3.6-.6-.3-.6-.6-.6c-.4 0-.6.3-.6.6zM113.4 96.8c0 .3.3.6.6.6s.6-.3.6-.6-.3-.6-.6-.6-.6.3-.6.6zM103.6 96.8c0 .3.3.6.6.6s.6-.3.6-.6-.3-.6-.6-.6-.6.3-.6.6zM93.8 96.8c0 .3.3.6.6.6s.6-.3.6-.6-.3-.6-.6-.6-.6.3-.6.6zM84.1 96.8c0 .3.3.6.6.6s.6-.3.6-.6-.3-.6-.6-.6c-.4 0-.6.3-.6.6zM74.3 96.8c0 .3.3.6.6.6s.6-.3.6-.6-.3-.6-.6-.6-.6.3-.6.6zM64.5 96.8c0 .3.3.6.6.6s.6-.3.6-.6-.3-.6-.6-.6-.6.3-.6.6zM54.8 96.8c0 .3.3.6.6.6s.6-.3.6-.6-.3-.6-.6-.6c-.4 0-.6.3-.6.6zM142.7 101.6c0 .3.3.6.6.6s.6-.3.6-.6-.3-.6-.6-.6-.6.3-.6.6zM132.9 101.6c0 .3.3.6.6.6s.6-.3.6-.6-.3-.6-.6-.6-.6.3-.6.6zM123.2 101.6c0 .3.3.6.6.6s.6-.3.6-.6-.3-.6-.6-.6c-.4 0-.6.3-.6.6zM113.4 101.6c0 .3.3.6.6.6s.6-.3.6-.6-.3-.6-.6-.6-.6.3-.6.6zM103.6 101.6c0 .3.3.6.6.6s.6-.3.6-.6-.3-.6-.6-.6-.6.3-.6.6zM93.8 101.6c0 .3.3.6.6.6s.6-.3.6-.6-.3-.6-.6-.6-.6.3-.6.6zM84.1 101.6c0 .3.3.6.6.6s.6-.3.6-.6-.3-.6-.6-.6c-.4 0-.6.3-.6.6zM74.3 101.6c0 .3.3.6.6.6s.6-.3.6-.6-.3-.6-.6-.6-.6.3-.6.6zM64.5 101.6c0 .3.3.6.6.6s.6-.3.6-.6-.3-.6-.6-.6-.6.3-.6.6zM54.8 101.6c0 .3.3.6.6.6s.6-.3.6-.6-.3-.6-.6-.6c-.4 0-.6.3-.6.6zM123.2 106.4c0 .3.3.6.6.6s.6-.3.6-.6-.3-.6-.6-.6c-.4 0-.6.2-.6.6zM123.2 111.2c0 .3.3.6.6.6s.6-.3.6-.6-.3-.6-.6-.6c-.4 0-.6.2-.6.6zM123.2 116c0 .3.3.6.6.6s.6-.3.6-.6-.3-.6-.6-.6c-.4-.1-.6.2-.6.6zM93.7 58.6c-.1 0-.2.1-.3.2L92 61.6l-3 .4c-.1 0-.2.1-.3.2 0 .1 0 .3.1.3l2.2 2.1-.5 3c0 .1 0 .3.1.3s.1.1.2.1h.2l2.7-1.4 2.7 1.4h.2c.1 0 .1 0 .2-.1s.2-.2.1-.3l-.5-3 2.2-2.1c.1-.1.1-.2.1-.3 0-.1-.1-.2-.3-.2l-3-.4-1.4-2.8c-.1-.1-.2-.2-.3-.2z"/></g></svg>