<svg xmlns="http://www.w3.org/2000/svg" x="0" y="0" version="1.1" viewBox="0 0 200 200" xml:space="preserve"><g><path d="M61.9 139.6v-2.1h2.8v2.1h1.2v2.6h-1.2v2.1h-2.8v-2.1h-4.3v-2.4l2.7-6.5h2.9l-2.5 6.2h1.2zM71.6 136.2v8.1h-3v-8.1H66v-2.9h8.2v2.9h-2.6zM80.7 144.3v-4h-2.8v4h-3v-10.9h3v4.2h2.8v-4.2h3v10.9h-3zM97.3 138.8c0 3.2-2.1 5.6-5 5.6s-5-2.4-5-5.6c0-3.2 2.1-5.6 5-5.6 2.9.1 5 2.4 5 5.6zm-6.9.1c0 1.5.9 2.6 2 2.6s1.9-1.1 1.9-2.6-.8-2.6-1.9-2.6c-1.1 0-2 1.1-2 2.6zM101.2 136.1v1.9h4v2.7h-4v3.6h-3v-10.9h7.3v2.7h-4.3zM115.4 140.6c0 2.5-1.3 3.9-3.4 3.9-1.5 0-2.6-.7-3.6-1.9l1.4-2.3c.7.9 1.4 1.2 1.9 1.2.4 0 .7-.3.7-.9v-4.3h-3.1v-2.9h6.1v7.2zM125.2 139.7c0 2.9-1.7 4.8-4.3 4.8-2.7 0-4.4-1.9-4.4-4.8v-6.3h3v6.3c0 1.1.7 1.8 1.4 1.8s1.3-.7 1.3-1.8v-6.3h3v6.3zM133.2 141.3v3h-6.8v-10.9h3v7.9h3.8zM139.5 144.3h-3V141l-3.3-7.6h3l1.8 4.2 1.8-4.2h3l-3.3 7.5v3.4zM179.3 86.8 126.6 61l.4-.9c.3-.5.3-1.1.1-1.7-.2-.6-.6-1-1.1-1.3l-2.9-1.4c-.3-.2-.6-.2-1-.2-.8 0-1.6.5-2 1.2L100 98 79.9 56.8c-.4-.8-1.2-1.2-2-1.2-.3 0-.7.1-1 .2L74 57.2c-.5.3-.9.7-1.1 1.3-.2.6-.2 1.2.1 1.7l.5 1-52.8 25.6c-.3.1-.5.4-.6.7-.1.3-.1.6.1.9l19.7 40.4c.2.4.6.7 1.1.7.2 0 .4 0 .5-.1l52.8-25.7 1.5 3.1-6.1 12.6c-.3.5-.3 1.1-.1 1.7.2.6.6 1 1.1 1.3l2.9 1.4c.3.2.6.2 1 .2.8 0 1.6-.5 2-1.2l3.5-7.2 3.5 7.2c.4.8 1.2 1.2 2 1.2.3 0 .7-.1 1-.2l2.9-1.4c.5-.3.9-.7 1.1-1.3.2-.6.2-1.2-.1-1.7l-6.1-12.6 1.5-3.2 52.7 25.8c.2.1.3.1.5.1.1 0 .3 0 .4-.1.3-.1.6-.3.7-.6l19.7-40.4c.3-.6 0-1.3-.6-1.6zM31.1 105.5l22.1-10.8-1.2-2.5L29.9 103l-1.7-3.6 22.1-10.8-1.3-2.5-22.1 10.8-1.7-3.6 22.1-10.8L46 80 23.9 90.8l-1.1-2.3 51.4-25 10 20.6-51.4 25-1.7-3.6zm3 6 51.4-25 1.7 3.6-51.4 25-1.7-3.6zm4.7 9.7-1.7-3.6 51.4-25 1.7 3.6-51.4 25zm2.7 5.5-1.5-3 51.4-25 1.5 3-51.4 25zM75 59.2l2.9-1.4 20.9 42.8-1.8 3.7-22-45.1zm33.4 61.1-2.9 1.4-4.3-8.7 1.8-3.7 5.4 11zm-13.9 1.5-2.9-1.4 30.5-62.6 2.9 1.4-30.5 62.6zm64 4.9L107 101.5l1.4-2.9 51.5 25.1-1.4 3zm2.7-5.5-51.5-25.1 1.7-3.6 51.5 25.1-1.7 3.6zm3-6.1L112.7 90l1.7-3.6 51.5 25.1-1.7 3.6zm11.9-24.3L154 80l-1.2 2.5 22.1 10.8-1.7 3.6L151 86.1l-1.2 2.5 22.1 10.8-1.7 3.6L148 92.2l-1.2 2.5 22.1 10.8-1.7 3.6L115.7 84l10.1-20.7 51.5 25.2-1.2 2.3z"/><g><path d="M144.6 81.7 145.8 83.3 146.4 81.4 148.3 80.7 146.6 79.6 146.6 77.5 145 78.8 143 78.1 143.7 80.1 142.5 81.8z"/><path d="M139.8 88.1 138.6 89.8 140.6 89.7 141.8 91.4 142.4 89.4 144.4 88.8 142.7 87.6 142.7 85.6 141 86.8 139.1 86.2z"/><path d="M136.5 77.8 137.7 79.4 138.3 77.5 140.3 76.8 138.6 75.6 138.6 73.6 136.9 74.9 135 74.2 135.7 76.2 134.5 77.8z"/><path d="M131.7 84.2 130.5 85.9 132.6 85.8 133.8 87.5 134.4 85.5 136.3 84.9 134.6 83.7 134.6 81.6 133 82.9 131 82.3z"/><path d="M128.5 73.9 129.7 75.5 130.3 73.5 132.2 72.9 130.5 71.7 130.5 69.7 128.9 70.9 126.9 70.3 127.6 72.2 126.4 73.9z"/><path d="M126.6 77.7 125 79 123 78.4 123.7 80.3 122.5 82 124.5 81.9 125.8 83.6 126.3 81.6 128.3 80.9 126.6 79.8z"/><path d="M57.5 82.1c.1 0 .2-.1.3-.2.1-.1 0-.2 0-.3L56.7 80l.6-1.7v-.1c0-.2-.1-.3-.3-.3h-.1l-1.8.6-1.5-1.2c-.1 0-.1-.1-.2-.1h-.1c-.1.1-.2.2-.2.3v1.9l-1.6 1.1c-.1.1-.2.2-.1.3 0 .1.1.2.2.3l1.8.6.5 1.8c0 .1.1.2.3.2h.1c.1 0 .2 0 .3-.1l1.1-1.5h1.8zM60.6 88.1l.6-1.7v-.1c0-.2-.1-.3-.3-.3h-.1l-1.8.5-1.5-1.2c-.1 0-.1-.1-.2-.1h-.1c-.1.1-.2.2-.2.3v1.9l-1.6 1.1c-.1.1-.2.2-.1.3 0 .1.1.2.2.3l1.8.6.5 1.8c0 .1.1.2.3.2h.1c.1 0 .2 0 .3-.1l1.1-1.5 1.9.1c.1 0 .2-.1.3-.2.1-.1 0-.2 0-.3l-1.2-1.6zM65.5 78.2c.1 0 .2-.1.3-.2.1-.1 0-.2 0-.3l-1.1-1.5.6-1.7v-.1c0-.2-.1-.3-.3-.3h-.1l-1.8.6-1.5-1.2c-.1 0-.1-.1-.2-.1h-.1c-.1.1-.2.2-.2.3v1.9l-1.6 1.1c-.1.1-.2.2-.1.3 0 .1.1.2.2.3l1.8.6.5 1.8c0 .1.1.2.3.2h.1c.1 0 .2 0 .3-.1l1.1-1.5 1.8-.1zM68.6 84.2l.6-1.7v-.1c0-.2-.1-.3-.3-.3h-.1l-1.8.6-1.5-1.2c-.1 0-.1-.1-.2-.1h-.1c-.1.1-.2.2-.2.3v1.9l-1.6 1.1c-.1.1-.2.2-.1.3 0 .1.1.2.2.3l1.8.6.5 1.8c0 .1.1.2.3.2h.1c.1 0 .2 0 .3-.1l1.1-1.5 1.9.1c.1 0 .2-.1.3-.2.1-.1 0-.2 0-.3l-1.2-1.7zM73.6 74.2c.1 0 .2-.1.3-.2.1-.1 0-.2 0-.3l-1.1-1.5.6-1.7v-.1c0-.2-.1-.3-.3-.3H73l-1.8.6-1.5-1.2c-.1 0-.1-.1-.2-.1h-.1c-.1.1-.2.2-.2.3v1.9l-1.6 1.1c-.1.1-.2.2-.1.3 0 .1.1.2.2.3l1.8.6.5 1.8c0 .1.1.2.3.2h.1c.1 0 .2 0 .3-.1l1.1-1.5 1.8-.1zM77.8 81.8l-1.1-1.5.6-1.7v-.1c0-.2-.1-.3-.3-.3h-.1l-1.8.6-1.5-1.2c-.1 0-.1-.1-.2-.1h-.1c-.1.1-.2.2-.2.3v1.9l-1.6 1.1c-.1.1-.2.2-.1.3 0 .1.1.2.2.3l1.8.6.5 1.8c0 .1.1.2.3.2h.1c.1 0 .2 0 .3-.1l1.1-1.5 1.9.1c.1 0 .2-.1.3-.2 0-.3-.1-.4-.1-.5z"/></g></g></svg>