<?xml version="1.0" encoding="utf-8"?>
<!-- Generator: Adobe Illustrator 22.0.1, SVG Export Plug-In . SVG Version: 6.00 Build 0)  -->
<svg version="1.1" id="Layer_1" xmlns="http://www.w3.org/2000/svg" xmlns:xlink="http://www.w3.org/1999/xlink" x="0px" y="0px"
	 viewBox="0 0 200 200" enable-background="new 0 0 200 200" xml:space="preserve">
<g id="Watermelon_1_">
	<path id="Watermelon" fill="#59595C" d="M160.3,68.1C160.3,68.1,160.3,68.1,160.3,68.1c-0.2-0.1-0.3-0.1-0.5-0.1
		c-0.1,0-0.2,0-0.2,0H40.4c-0.1,0-0.2,0-0.3,0.1c-0.1,0-0.2,0-0.4,0.1c0,0-0.1,0-0.1,0c-0.9,0.3-1.5,1.1-1.5,2
		c0,34.1,27.7,61.8,61.8,61.8c34.1,0,61.8-27.7,61.8-61.8C161.8,69.2,161.2,68.4,160.3,68.1z M147.6,71.5
		c-0.4,25.9-21.6,46.8-47.6,46.8c-26,0-47.2-20.9-47.6-46.8H147.6z M100,127.7c-31.2,0-56.7-25.1-57.4-56.1h6.3
		c0.4,27.8,23.2,50.3,51.1,50.3c27.9,0,50.7-22.5,51.1-50.3h6.3C156.7,102.6,131.2,127.7,100,127.7z"/>
	<path id="Seed_12_" fill="#59595C" d="M100,113.1c1.1,0,1.9-1.1,1.9-2.4c0-1.8-1.9-3.6-1.9-3.6s-1.9,1.8-1.9,3.6
		C98.1,112,98.9,113.1,100,113.1z"/>
	<path id="Seed_11_" fill="#59595C" d="M100,98.9c1.1,0,1.9-1.1,1.9-2.4c0-1.8-1.9-3.6-1.9-3.6s-1.9,1.8-1.9,3.6
		C98.1,97.8,98.9,98.9,100,98.9z"/>
	<path id="Seed_10_" fill="#59595C" d="M100,84.2c1.1,0,1.9-1.1,1.9-2.4c0-1.8-1.9-3.6-1.9-3.6s-1.9,1.8-1.9,3.6
		C98.1,83.1,98.9,84.2,100,84.2z"/>
	<path id="Seed_9_" fill="#59595C" d="M82.4,80.9c1.4-1.2,1.5-3.8,1.5-3.8s-2.6-0.3-4,0.9c-1,0.9-1.3,2.2-0.6,3.1
		C80,81.8,81.4,81.7,82.4,80.9z"/>
	<path id="Seed_8_" fill="#59595C" d="M86.1,92.8c1,0.5,2.2-0.1,2.8-1.3c0.8-1.6-0.1-4.1-0.1-4.1s-2.5,0.8-3.3,2.4
		C84.8,90.9,85.1,92.3,86.1,92.8z"/>
	<path id="Seed_7_" fill="#59595C" d="M62.4,76.3c-1.3,0.5-2,1.7-1.6,2.7c0.4,1,1.7,1.4,3,0.9c1.7-0.6,2.7-3.1,2.7-3.1
		S64.1,75.7,62.4,76.3z"/>
	<path id="Seed_6_" fill="#59595C" d="M70,93.4c1.4-1.1,1.5-3.8,1.5-3.8s-2.6-0.4-4,0.8c-1,0.9-1.3,2.2-0.6,3.1
		C67.6,94.3,69,94.3,70,93.4z"/>
	<path id="Seed_5_" fill="#59595C" d="M79.7,104c-0.6,1.2-0.3,2.6,0.7,3c1,0.5,2.2-0.2,2.8-1.4c0.8-1.6-0.2-4.1-0.2-4.1
		S80.5,102.4,79.7,104z"/>
	<path id="Seed_4_" fill="#59595C" d="M120.6,81c0.7-0.8,0.4-2.2-0.6-3.1c-1.4-1.2-4-0.9-4-0.9s0.1,2.7,1.5,3.8
		C118.6,81.7,120,81.8,120.6,81z"/>
	<path id="Seed_3_" fill="#59595C" d="M113.9,92.8c0.9-0.5,1.2-1.8,0.6-3c-0.8-1.6-3.4-2.4-3.4-2.4s-0.9,2.5-0.1,4.1
		C111.7,92.7,113,93.3,113.9,92.8z"/>
	<path id="Seed_2_" fill="#59595C" d="M136.2,79.8c1.3,0.5,2.6,0.1,3-0.9c0.4-1-0.3-2.2-1.6-2.7c-1.7-0.6-4.1,0.5-4.1,0.5
		S134.5,79.2,136.2,79.8z"/>
	<path id="Seed_1_" fill="#59595C" d="M133.1,93.4c0.7-0.9,0.4-2.2-0.6-3.1c-1.4-1.1-4-0.8-4-0.8s0.2,2.7,1.5,3.8
		C131,94.3,132.4,94.3,133.1,93.4z"/>
	<path id="Seed" fill="#59595C" d="M117,101.5c0,0-1,2.5-0.2,4.1c0.6,1.2,1.8,1.8,2.8,1.4c1-0.5,1.3-1.8,0.7-3
		C119.5,102.4,117,101.5,117,101.5z"/>
</g>
</svg>
