<?xml version="1.0" encoding="utf-8"?>
<!-- Generator: Adobe Illustrator 22.0.1, SVG Export Plug-In . SVG Version: 6.00 Build 0)  -->
<svg version="1.1" id="Layer_1" xmlns="http://www.w3.org/2000/svg" xmlns:xlink="http://www.w3.org/1999/xlink" x="0px" y="0px"
	 viewBox="0 0 200 200" enable-background="new 0 0 200 200" xml:space="preserve">
<g id="Baseball_Bat__x26__Ball">
	<path id="Baseball_Bat" fill="#59595C" d="M44.8,142c-1,0-2-0.4-2.9-1.1c-1.6-1.4-2.9-3-3.9-4.7c-1-1.8-1.7-3.7-2.1-5.8
		c-0.3-1.4,0-2.7,0.9-3.7c1-1.2,2.6-1.9,4.5-1.9c0.6,0,3,0.4,3.6,0.4c2.9,0,5.8-1.6,10.2-4.5c5-3.3,89-58.4,92.7-60.8
		c2.1-1.3,4.7-2.4,7.2-1.8c0.7,0.2,1.4,0.4,2,0.7c2.3,1.3,3.4,2.6,5.2,5.6c1.7,3,2.2,4.6,2.2,7.3c0,1.4-0.5,4.9-5.5,7.4
		c-3.9,2-93.7,47.3-99,49.9c-5.8,2.9-8.6,4.8-9.7,8.3C49.2,140.1,47,142,44.8,142z M41.2,128.3c-0.8,0-1.5,0.2-1.9,0.6
		c-0.1,0.1-0.2,0.3-0.1,0.8c0.3,1.7,0.9,3.3,1.7,4.7c0.8,1.4,1.9,2.7,3.2,3.8c0.3,0.3,0.6,0.3,0.6,0.3c0.6,0,1.5-0.9,2-2.2
		c1.5-4.7,4.9-7.1,11.5-10.4c5.3-2.6,95-47.9,99-49.9c3.4-1.7,3.6-3.7,3.6-4.3c0-1.9-0.3-2.9-1.8-5.5c-1.5-2.6-2.3-3.4-3.9-4.3
		c-1.7-1-4,0-5.5,1c-3.7,2.4-87.7,57.5-92.7,60.8c-6.1,4-9.9,5.8-14.7,4.7C41.8,128.3,41.5,128.3,41.2,128.3z"/>
	<path id="Ball_1_" fill="#59595C" d="M138.8,99.4c-8.8,0-16,7.2-16,16s7.2,16,16,16c8.8,0,16-7.2,16-16S147.7,99.4,138.8,99.4z
		 M148.7,124.1c-0.3-0.3-0.5-0.7-0.8-1l1.1-0.7c-0.1-0.2-0.3-0.4-0.4-0.6l-1.1,0.6c-0.4-0.7-0.7-1.4-1-2.1l1.2-0.4
		c-0.1-0.2-0.2-0.4-0.2-0.7l-1.2,0.4c-0.2-0.7-0.4-1.5-0.5-2.3l1.2-0.2c0-0.2-0.1-0.5-0.1-0.7l-1.3,0.1c0-0.4-0.1-0.8-0.1-1.2
		c0-0.4,0-0.8,0.1-1.2l1.3,0.1c0-0.2,0-0.5,0.1-0.7l-1.2-0.2c0.1-0.8,0.3-1.5,0.5-2.3l1.2,0.4c0.1-0.2,0.2-0.4,0.2-0.7l-1.2-0.4
		c0.3-0.7,0.6-1.4,1-2.1l1.1,0.6c0.1-0.2,0.2-0.4,0.4-0.6l-1.1-0.7c0.2-0.4,0.5-0.7,0.8-1c2.1,2.3,3.3,5.4,3.3,8.7
		C152,118.7,150.8,121.8,148.7,124.1z M125.6,115.4c0-3.3,1.3-6.4,3.3-8.7c0.3,0.3,0.5,0.7,0.8,1l-1,0.7c0.1,0.2,0.3,0.4,0.4,0.6
		l1.1-0.6c0.4,0.7,0.7,1.4,1,2.1l-1.2,0.4c0.1,0.2,0.2,0.4,0.2,0.7l1.2-0.4c0.2,0.7,0.4,1.5,0.5,2.3l-1.2,0.2c0,0.2,0.1,0.5,0.1,0.7
		l1.3-0.1c0,0.4,0.1,0.8,0.1,1.2c0,0.4,0,0.8-0.1,1.2l-1.3-0.1c0,0.2,0,0.5-0.1,0.7l1.2,0.2c-0.1,0.8-0.3,1.5-0.5,2.3l-1.2-0.4
		c-0.1,0.2-0.1,0.4-0.2,0.7l1.2,0.4c-0.3,0.7-0.6,1.4-1,2.1l-1.1-0.6c-0.1,0.2-0.2,0.4-0.4,0.6l1.1,0.7c-0.2,0.4-0.5,0.7-0.8,1
		C126.9,121.8,125.6,118.7,125.6,115.4z M130.1,125.3c0.4-0.4,0.7-0.8,1-1.3l1,0.7c0.2-0.3,0.3-0.5,0.5-0.8l-1.1-0.7
		c0.4-0.7,0.8-1.5,1.1-2.3l1.2,0.5c0.1-0.3,0.2-0.6,0.3-0.9l-1.2-0.4c0.3-0.8,0.4-1.7,0.6-2.5l1.3,0.2c0-0.3,0.1-0.6,0.1-0.9
		l-1.3-0.1c0-0.4,0.1-0.9,0.1-1.3c0-0.4,0-0.9-0.1-1.3l1.3-0.1c0-0.3-0.1-0.6-0.1-0.9l-1.3,0.2c-0.1-0.9-0.3-1.7-0.6-2.5l1.2-0.4
		c-0.1-0.3-0.2-0.6-0.3-0.9l-1.2,0.5c-0.3-0.8-0.7-1.6-1.1-2.3l1.1-0.7c-0.2-0.3-0.3-0.5-0.5-0.8l-1,0.7c-0.3-0.4-0.6-0.9-1-1.3
		c2.3-2.1,5.4-3.3,8.7-3.3c3.3,0,6.4,1.3,8.7,3.3c-0.3,0.4-0.7,0.8-1,1.3l-1-0.7c-0.2,0.3-0.3,0.5-0.5,0.8l1.1,0.7
		c-0.4,0.7-0.8,1.5-1.1,2.3l-1.2-0.5c-0.1,0.3-0.2,0.6-0.3,0.9l1.2,0.4c-0.3,0.8-0.4,1.7-0.6,2.5l-1.3-0.2c0,0.3-0.1,0.6-0.1,0.9
		l1.3,0.1c0,0.4-0.1,0.9-0.1,1.3c0,0.4,0,0.9,0.1,1.3l-1.3,0.1c0,0.3,0.1,0.6,0.1,0.9l1.3-0.2c0.1,0.9,0.3,1.7,0.6,2.5l-1.2,0.4
		c0.1,0.3,0.2,0.6,0.3,0.9l1.2-0.5c0.3,0.8,0.7,1.6,1.1,2.3l-1.1,0.7c0.2,0.3,0.3,0.5,0.5,0.8l1-0.7c0.3,0.4,0.6,0.9,1,1.3
		c-2.3,2.1-5.4,3.3-8.7,3.3C135.5,128.6,132.5,127.3,130.1,125.3z"/>
</g>
</svg>
