<?xml version="1.0" encoding="utf-8"?>
<!-- Generator: Adobe Illustrator 22.0.1, SVG Export Plug-In . SVG Version: 6.00 Build 0)  -->
<svg version="1.1" id="Layer_1" xmlns="http://www.w3.org/2000/svg" xmlns:xlink="http://www.w3.org/1999/xlink" x="0px" y="0px"
	 viewBox="0 0 200 200" enable-background="new 0 0 200 200" xml:space="preserve">
<g id="Barbecue">
	<path id="Bottom_Barbecue" fill="#58585B" d="M143.2,88.1H56.8c-1,0-1.8,0.8-1.8,1.8c0,1,0.8,1.8,1.8,1.8h3.3
		c0.9,14.1,12.1,25.5,26.1,26.7l-14.5,35.8c-0.3,0.9,0.1,1.8,0.9,2.2c0.2,0.1,0.4,0.1,0.6,0.1c0.7,0,1.3-0.4,1.5-1l15-36.9h8.6v36.3
		c0,0.9,0.7,1.7,1.7,1.7c0.9,0,1.7-0.7,1.7-1.7v-36.3h8.6l15,36.9c0.3,0.6,0.9,1,1.5,1c0.2,0,0.4,0,0.6-0.1c0.9-0.3,1.3-1.3,0.9-2.2
		l-14.5-35.8c14-1.2,25.2-12.6,26.1-26.7h3.4c1,0,1.8-0.8,1.8-1.8C145,88.9,144.2,88.1,143.2,88.1z M111.3,115.2H88.7
		c-13.3,0-24.2-10.4-25.2-23.5h73C135.6,104.8,124.7,115.2,111.3,115.2z"/>
	<path id="Line_3" fill="#58585B" d="M113.1,108.6H84.3c-0.6,0-1.1,0.5-1.1,1.1c0,0.6,0.5,1.1,1.1,1.1h28.8c0.6,0,1.1-0.5,1.1-1.1
		C114.2,109.1,113.7,108.6,113.1,108.6z"/>
	<path id="Line_2_1_" fill="#58585B" d="M120.1,102.3H77.3c-0.6,0-1.1,0.5-1.1,1.1c0,0.6,0.5,1.1,1.1,1.1h42.9
		c0.6,0,1.1-0.5,1.1-1.1C121.2,102.8,120.8,102.3,120.1,102.3z"/>
	<path id="Line_1_1_" fill="#58585B" d="M72.9,98.2h51.7c0.6,0,1.1-0.5,1.1-1.1c0-0.6-0.5-1.1-1.1-1.1H72.9c-0.6,0-1.1,0.5-1.1,1.1
		C71.7,97.7,72.2,98.2,72.9,98.2z"/>
	<path id="Top_Barbecue" fill="#58585B" d="M56.8,82.8h86.4c1,0,1.8-0.8,1.8-1.8c0-1-0.8-1.8-1.8-1.8h-3.3
		C139,64.7,127,53,112.3,52.5c0.2-0.5,0.3-1.1,0.3-1.7v-2.3c0-2.8-2.2-5-5-5H92.4c-2.8,0-5,2.2-5,5v2.3c0,0.6,0.1,1.2,0.3,1.7
		C73,53,61,64.7,60.1,79.3h-3.3c-1,0-1.8,0.8-1.8,1.8C55,82,55.8,82.8,56.8,82.8z M90.7,48.5c0-0.9,0.8-1.7,1.7-1.7h15.2
		c0.9,0,1.7,0.8,1.7,1.7v2.3c0,0.9-0.8,1.7-1.7,1.7H92.4c-0.9,0-1.7-0.8-1.7-1.7V48.5z M88.7,55.8h3.7h15.2h3.7
		c13.3,0,24.2,10.4,25.2,23.5h-73C64.4,66.2,75.3,55.8,88.7,55.8z"/>
	<path id="Star_43_" fill="#58585B" d="M105.9,66.1l-3.6-0.5l-1.6-3.3c-0.1-0.2-0.3-0.4-0.6-0.4c-0.3,0-0.5,0.1-0.6,0.4l-1.6,3.3
		l-3.6,0.5c-0.3,0-0.5,0.2-0.5,0.5c-0.1,0.2,0,0.5,0.2,0.7l2.6,2.6l-0.6,3.6c0,0.3,0.1,0.5,0.3,0.7c0.1,0.1,0.3,0.1,0.4,0.1
		c0.1,0,0.2,0,0.3-0.1l3.2-1.7l3.2,1.7c0.1,0.1,0.2,0.1,0.3,0.1c0.1,0,0.3,0,0.4-0.1c0.2-0.2,0.3-0.4,0.3-0.7l-0.6-3.6l2.6-2.6
		c0.2-0.2,0.3-0.4,0.2-0.7C106.3,66.3,106.1,66.1,105.9,66.1z"/>
</g>
</svg>
