<?xml version="1.0" encoding="utf-8"?>
<!-- Generator: Adobe Illustrator 22.0.1, SVG Export Plug-In . SVG Version: 6.00 Build 0)  -->
<svg version="1.1" id="Layer_1" xmlns="http://www.w3.org/2000/svg" xmlns:xlink="http://www.w3.org/1999/xlink" x="0px" y="0px"
	 viewBox="0 0 200 200" enable-background="new 0 0 200 200" xml:space="preserve">
<g id="Ornament">
	<path id="Ornament_Textile" fill="#58585B" d="M170.8,65.9H29.2c-0.7,0-1.2,0.6-1.2,1.2c0,0.7,0.6,1.2,1.2,1.2h5.4
		c-0.1,1.3-0.4,2.6-0.7,4c-0.6,2.6-1.2,5.3-0.7,8c0.6,2.8,2.2,5.1,3.8,7.3c1.1,1.5,2.1,2.9,2.7,4.4c0.6,1.5,0.9,3.3,1.3,5.1
		c0.5,2.7,0.9,5.4,2.5,7.7c1.6,2.3,3.9,3.8,6.2,5.3c1.6,1,3.1,1.9,4.2,3.1c1.2,1.1,2.1,2.6,3.1,4.2c1.4,2.3,2.9,4.7,5.3,6.2
		c2.3,1.5,5.1,2,7.7,2.5c1.8,0.3,3.6,0.6,5.1,1.3c1.5,0.6,2.9,1.6,4.4,2.7c2.2,1.6,4.5,3.2,7.3,3.8c2.7,0.5,5.4-0.1,8-0.7
		c1.9-0.4,3.6-0.8,5.3-0.8c1.7,0,3.4,0.4,5.3,0.8c1.9,0.4,3.9,0.9,5.8,0.9c0.7,0,1.4-0.1,2.2-0.2c2.8-0.6,5.1-2.2,7.3-3.8
		c1.5-1.1,2.9-2.1,4.4-2.7c1.5-0.6,3.3-0.9,5.1-1.3c2.7-0.5,5.4-0.9,7.7-2.5c2.3-1.6,3.8-3.9,5.3-6.2c1-1.6,1.9-3.1,3.1-4.2
		c1.1-1.2,2.6-2.1,4.2-3.1c2.3-1.4,4.7-2.9,6.2-5.3c1.5-2.3,2-5.1,2.5-7.7c0.3-1.8,0.6-3.6,1.3-5.1c0.6-1.5,1.6-2.9,2.7-4.4
		c1.6-2.2,3.2-4.5,3.8-7.3c0.5-2.7-0.1-5.4-0.7-8c-0.3-1.4-0.6-2.7-0.7-4h5.4c0.7,0,1.2-0.6,1.2-1.2C172,66.4,171.4,65.9,170.8,65.9
		z M153,72.3c0.6,2,1.1,3.8,0.8,5.5c-0.3,1.7-1.6,3.3-2.9,4.9c-1.1,1.3-2.2,2.7-2.8,4.3c-0.7,1.6-0.9,3.4-1.1,5.1
		c-0.2,2.1-0.5,4-1.4,5.4c-1,1.4-2.7,2.4-4.5,3.4c-1.5,0.8-3.1,1.7-4.3,2.9c-1.2,1.2-2.1,2.8-2.9,4.3c-1,1.8-2,3.5-3.4,4.5
		c-1.4,1-3.4,1.2-5.4,1.4c-1.7,0.2-3.5,0.4-5.1,1.1c-1.6,0.7-3,1.7-4.3,2.8c-1.6,1.3-3.2,2.5-4.9,2.9c-1.6,0.3-3.5-0.2-5.5-0.8
		c-1.7-0.5-3.4-1-5.2-1c-1.8,0-3.5,0.5-5.2,1c-2,0.6-3.8,1.1-5.5,0.8c-1.7-0.3-3.3-1.6-4.9-2.9c-1.3-1.1-2.7-2.2-4.3-2.8
		c-1.6-0.7-3.4-0.9-5.1-1.1c-2.1-0.2-4-0.5-5.4-1.4c-1.4-1-2.4-2.7-3.4-4.5c-0.8-1.5-1.7-3.1-2.9-4.3c-1.2-1.2-2.8-2.1-4.3-2.9
		c-1.8-1-3.5-2-4.5-3.4c-0.9-1.4-1.2-3.4-1.4-5.4c-0.2-1.7-0.4-3.5-1.1-5.1c-0.7-1.6-1.7-3-2.8-4.3c-1.3-1.6-2.5-3.2-2.9-4.9
		c-0.3-1.6,0.2-3.5,0.8-5.5c0.4-1.3,0.7-2.6,0.9-4H72c-0.2,0.6-0.4,1.1-0.6,1.7c-0.6,1.6-1.3,3.2-0.9,4.9c0.5,1.7,2,2.9,3.3,3.9
		c0.9,0.7,1.8,1.4,2.2,2.1c0.4,0.7,0.6,1.8,0.7,3c0.2,1.6,0.5,3.5,1.7,4.8c1.2,1.2,3.1,1.5,4.8,1.7c1.1,0.2,2.2,0.3,3,0.7
		c0.7,0.4,1.4,1.3,2.1,2.2c1,1.3,2.2,2.8,3.9,3.3c0.4,0.1,0.8,0.1,1.1,0.1c1.3,0,2.5-0.5,3.8-1c1.1-0.4,2.1-0.9,3-0.9
		c0.9,0,1.9,0.4,3,0.9c1.6,0.7,3.2,1.3,4.9,0.9c1.7-0.5,2.9-2,3.9-3.3c0.7-0.9,1.4-1.8,2.1-2.2c0.7-0.4,1.8-0.6,3-0.7
		c1.6-0.2,3.5-0.5,4.8-1.7c1.2-1.2,1.5-3.1,1.7-4.7c0.2-1.1,0.3-2.2,0.7-3c0.4-0.7,1.3-1.4,2.2-2.1c1.3-1,2.8-2.2,3.3-3.9
		c0.4-1.7-0.2-3.3-0.9-4.9c-0.2-0.6-0.5-1.2-0.6-1.7h24.1C152.2,69.7,152.6,71.1,153,72.3z M85.4,71.5c0.3,1.2,2.8,1.5,3.4,2.5
		c0.6,1.1-0.4,3.4,0.5,4.2c0.9,0.9,3.2-0.1,4.2,0.5c1,0.6,1.3,3.1,2.5,3.4c1.1,0.3,2.6-1.7,3.9-1.7c1.2,0,2.7,2,3.9,1.7
		c1.2-0.3,1.5-2.8,2.5-3.4c1.1-0.6,3.4,0.4,4.2-0.5c0.9-0.9-0.1-3.2,0.5-4.2c0.6-1,3.1-1.3,3.4-2.5c0.2-0.9-1-2.1-1.5-3.1h12.6
		c0.2,0.9,0.5,1.8,0.9,2.7c0.5,1.3,1,2.5,0.8,3.4c-0.3,0.9-1.3,1.8-2.4,2.6c-1,0.8-2.1,1.6-2.8,2.8c-0.7,1.1-0.8,2.5-1,3.8
		c-0.2,1.4-0.4,2.7-1,3.4c-0.7,0.7-2,0.8-3.4,1c-1.3,0.2-2.7,0.4-3.8,1c-1.1,0.7-2,1.7-2.8,2.8c-0.9,1.1-1.7,2.2-2.6,2.4
		c-0.9,0.2-2.1-0.3-3.4-0.8c-1.3-0.5-2.6-1-3.9-1c-1.4,0-2.7,0.5-3.9,1c-1.3,0.5-2.5,1-3.4,0.8C91.8,94,91,93,90.1,91.9
		c-0.8-1-1.6-2.1-2.8-2.8c-1.1-0.7-2.5-0.8-3.8-1c-1.4-0.2-2.7-0.4-3.4-1c-0.7-0.7-0.8-2-1-3.4c-0.2-1.3-0.4-2.7-1-3.8
		c-0.7-1.1-1.7-2-2.8-2.8c-1.1-0.9-2.2-1.7-2.4-2.6c-0.2-0.9,0.3-2.1,0.8-3.4c0.4-0.9,0.7-1.8,0.9-2.7h12.4
		C86.4,69.4,85.2,70.6,85.4,71.5z M163,73.1c0.5,2.4,1,4.7,0.6,6.7c-0.4,2.1-1.8,4-3.2,6.1c-1.1,1.6-2.3,3.2-3,5
		c-0.8,1.8-1.1,3.9-1.5,5.8c-0.4,2.4-0.8,4.7-2,6.5c-1.2,1.8-3.2,3-5.3,4.3c-1.7,1-3.4,2.1-4.8,3.5c-1.4,1.4-2.5,3.1-3.5,4.8
		c-1.3,2.1-2.6,4.1-4.3,5.3c-1.7,1.2-4,1.6-6.5,2c-1.9,0.3-3.9,0.7-5.8,1.5c-1.8,0.7-3.4,1.9-5,3c-2,1.4-4,2.8-6.1,3.2
		c-2,0.4-4.3-0.1-6.7-0.6c-1.9-0.4-3.9-0.9-6-0.9s-4,0.5-6,0.9c-2.4,0.5-4.7,1-6.7,0.6c-2.1-0.4-4-1.8-6.1-3.2c-1.6-1.1-3.2-2.3-5-3
		c-1.8-0.8-3.8-1.1-5.8-1.4c-2.4-0.4-4.7-0.8-6.5-2c-1.8-1.2-3-3.2-4.3-5.3c-1-1.7-2.1-3.4-3.5-4.8c-1.4-1.4-3.1-2.5-4.8-3.5
		c-2.1-1.3-4.1-2.6-5.3-4.3c-1.2-1.7-1.6-4-2-6.5c-0.3-1.9-0.7-3.9-1.5-5.8c-0.7-1.8-1.9-3.4-3-5c-1.4-2-2.8-4-3.2-6.1
		c-0.4-2,0.1-4.3,0.7-6.7c0.3-1.5,0.7-3.1,0.8-4.7h7.6c-0.1,1.1-0.5,2.2-0.8,3.3c-0.6,2.2-1.2,4.4-0.8,6.6c0.5,2.3,1.9,4.2,3.3,6
		c1,1.3,2,2.5,2.5,3.7c0.5,1.3,0.7,2.8,0.9,4.5c0.3,2.2,0.5,4.6,1.8,6.5c1.3,1.9,3.3,3.1,5.3,4.2c1.4,0.8,2.8,1.5,3.8,2.5
		c1,1,1.7,2.3,2.5,3.8c1.1,2,2.3,4,4.2,5.3c1.9,1.3,4.2,1.5,6.5,1.8c1.6,0.2,3.2,0.4,4.5,0.9c1.3,0.5,2.5,1.5,3.7,2.5
		c1.8,1.4,3.7,2.9,6,3.3c0.5,0.1,1,0.1,1.5,0.1c1.7,0,3.4-0.5,5.1-1c1.6-0.5,3.1-0.9,4.6-0.9c1.4,0,3,0.4,4.6,0.9
		c2.2,0.6,4.4,1.2,6.6,0.8c2.3-0.5,4.2-1.9,6-3.3c1.3-1,2.5-2,3.7-2.5c1.3-0.5,2.8-0.7,4.5-0.9c2.2-0.3,4.6-0.5,6.5-1.8
		c1.9-1.3,3.1-3.3,4.2-5.3c0.8-1.4,1.5-2.8,2.5-3.8c1-1,2.3-1.7,3.8-2.5c2-1.1,4-2.3,5.3-4.2c1.3-1.9,1.6-4.2,1.8-6.5
		c0.2-1.6,0.4-3.2,0.9-4.5c0.5-1.3,1.5-2.5,2.5-3.7c1.4-1.8,2.9-3.6,3.3-6c0.4-2.2-0.2-4.4-0.8-6.6c-0.3-1.1-0.6-2.2-0.8-3.3h7.6
		C162.3,70,162.6,71.6,163,73.1z"/>
	<path id="Star_52_" fill="#58585B" d="M64.2,77.8c0-0.1,0-0.2-0.1-0.3l-2.3-2.6l0.9-3.4c0-0.1,0-0.2-0.1-0.3
		c-0.1-0.1-0.1-0.1-0.2-0.1c0,0-0.1,0-0.1,0l-3.2,1.3l-2.9-1.9c-0.1,0-0.1-0.1-0.2-0.1c-0.1,0-0.1,0-0.2,0c-0.1,0.1-0.2,0.2-0.2,0.3
		l0.3,3.5l-2.7,2.2c-0.1,0.1-0.1,0.2-0.1,0.3c0,0.1,0.1,0.2,0.2,0.2l3.4,0.8l1.3,3.2c0,0.1,0.1,0.2,0.3,0.2c0,0,0,0,0,0
		c0.1,0,0.2-0.1,0.3-0.2l1.8-3l3.5-0.2C64,78,64.1,77.9,64.2,77.8z"/>
	<path id="Star_51_" fill="#58585B" d="M72.6,91.9l-3.2-1.4l-0.7-3.4c0-0.1-0.1-0.2-0.2-0.2c0,0-0.1,0-0.1,0c-0.1,0-0.2,0-0.2,0.1
		l-2.3,2.6l-3.5-0.4c0,0,0,0,0,0c-0.1,0-0.2,0.1-0.3,0.1c-0.1,0.1-0.1,0.2,0,0.3l1.8,3l-1.5,3.2c-0.1,0.1,0,0.2,0,0.3
		c0.1,0.1,0.2,0.1,0.3,0.1c0,0,0,0,0.1,0l3.4-0.7l2.5,2.4c0.1,0.1,0.1,0.1,0.2,0.1c0,0,0.1,0,0.1,0c0.1,0,0.2-0.1,0.2-0.3l0.3-3.5
		l3.1-1.7c0.1-0.1,0.2-0.2,0.2-0.3C72.8,92.1,72.7,92,72.6,91.9z"/>
	<path id="Star_50_" fill="#58585B" d="M86.5,101.3L86.5,101.3C86.5,101.3,86.5,101.3,86.5,101.3l-3.5,0.1l-2.1-2.8
		c-0.1-0.1-0.2-0.1-0.3-0.1c0,0,0,0-0.1,0c-0.1,0-0.2,0.1-0.3,0.2l-1,3.3l-3.3,1.1c-0.1,0-0.2,0.1-0.2,0.3c0,0.1,0,0.2,0.1,0.3
		l2.9,2l0,3.5c0,0.1,0.1,0.2,0.2,0.3c0,0,0.1,0,0.1,0c0.1,0,0.1,0,0.2-0.1l2.7-2.1l3.3,1c0,0,0.1,0,0.1,0c0.1,0,0.2,0,0.2-0.1
		c0.1-0.1,0.1-0.2,0.1-0.3l-1.2-3.3l2-2.8c0-0.1,0.1-0.1,0.1-0.2C86.8,101.4,86.7,101.3,86.5,101.3z"/>
	<path id="Star_49_" fill="#58585B" d="M103,107.4l0.6-3.4c0,0,0-0.1,0-0.1c0-0.2-0.1-0.3-0.3-0.3h0h0c0,0,0,0,0,0s0,0,0,0
		c0,0,0,0,0,0c-0.1,0-0.1,0-0.1,0l-3.1,1.6l-3.1-1.6c0,0-0.1,0-0.1,0c-0.1,0-0.1,0-0.2,0.1c-0.1,0.1-0.1,0.2-0.1,0.3l0.6,3.4
		l-2.5,2.4c-0.1,0.1-0.1,0.2-0.1,0.3c0,0.1,0.1,0.2,0.3,0.2l3.4,0.5l1.5,3.1c0.1,0.1,0.2,0.2,0.3,0.2c0.1,0,0.2-0.1,0.3-0.2l1.5-3.1
		l3.4-0.5c0.1,0,0.2-0.1,0.3-0.2c0-0.1,0-0.2-0.1-0.3L103,107.4z"/>
	<path id="Star_48_" fill="#58585B" d="M123.9,103.2l-3.3-1.1l-1-3.3c0-0.1-0.1-0.2-0.3-0.2c0,0,0,0-0.1,0c-0.1,0-0.2,0-0.3,0.1
		l-2.1,2.8l-3.5-0.1c0,0,0,0,0,0c-0.1,0-0.2,0.1-0.3,0.2c-0.1,0.1,0,0.2,0,0.3l2,2.8l-1.2,3.3c0,0.1,0,0.2,0.1,0.3
		c0.1,0.1,0.1,0.1,0.2,0.1c0,0,0.1,0,0.1,0l3.3-1l2.7,2.1c0.1,0,0.1,0.1,0.2,0.1c0,0,0.1,0,0.1,0c0.1-0.1,0.2-0.2,0.2-0.3l0-3.5
		l2.9-2c0.1-0.1,0.2-0.2,0.1-0.3C124.1,103.3,124,103.2,123.9,103.2z"/>
	<path id="Star_47_" fill="#58585B" d="M127.2,92.2c0,0.1,0.1,0.2,0.2,0.3l3.1,1.7l0.3,3.5c0,0.1,0.1,0.2,0.2,0.3c0,0,0.1,0,0.1,0
		c0.1,0,0.2,0,0.2-0.1l2.5-2.4l3.4,0.7c0,0,0,0,0.1,0c0.1,0,0.2,0,0.3-0.1c0.1-0.1,0.1-0.2,0-0.3l-1.5-3.2l1.7-3
		c0-0.1,0.1-0.1,0.1-0.2c0-0.2-0.1-0.3-0.3-0.3h0c0,0,0,0,0,0c0,0,0,0,0,0h0c0,0,0,0,0,0l-3.4,0.4l-2.3-2.6
		c-0.1-0.1-0.2-0.1-0.2-0.1c0,0-0.1,0-0.1,0c-0.1,0-0.2,0.1-0.2,0.2l-0.7,3.4l-3.2,1.4C127.3,92,127.2,92.1,127.2,92.2z"/>
	<path id="Star_46_" fill="#58585B" d="M136.1,78l3.5,0.2l1.8,3c0.1,0.1,0.2,0.2,0.3,0.2c0,0,0,0,0,0c0.1,0,0.2-0.1,0.3-0.2l1.3-3.2
		l3.4-0.8c0.1,0,0.2-0.1,0.2-0.2c0-0.1,0-0.2-0.1-0.3l-2.7-2.2l0.3-3.4c0,0,0,0,0-0.1c0-0.2-0.1-0.3-0.3-0.3h0c-0.1,0-0.1,0-0.2,0.1
		l-2.9,1.9l-3.2-1.3c0,0-0.1,0-0.1,0c-0.1,0-0.2,0-0.2,0.1c-0.1,0.1-0.1,0.2-0.1,0.3l0.9,3.4l-2.3,2.6c-0.1,0.1-0.1,0.2-0.1,0.3
		C135.9,77.9,136,78,136.1,78z"/>
</g>
</svg>
