<svg xmlns="http://www.w3.org/2000/svg" viewBox="0 0 200 200"><g><path d="M100 47c-29.2 0-53 23.8-53 53s23.8 53 53 53 53-23.8 53-53-23.8-53-53-53zm-20.2 98.6c-3.7-1.7-7.2-3.7-10.4-6.2h61.1c-3.2 2.5-6.7 4.6-10.4 6.2H79.8zm-16.7-12c-1.8-2-3.4-4.1-4.9-6.3h83.5c-1.5 2.2-3.1 4.3-4.9 6.3H63.1zM55 121.4c-1-2-1.8-4.1-2.5-6.3h38.6c2.6 1.5 5.6 2.4 8.9 2.4 3.2 0 6.3-.9 8.9-2.4h38.6c-.7 2.2-1.5 4.3-2.5 6.3H55zM82.7 103c.4 2.3 1.2 4.4 2.4 6.3H51c-.4-2.1-.7-4.2-.8-6.3h32.5zM100 85.4c8.1 0 14.6 6.5 14.6 14.6s-6.5 14.6-14.6 14.6-14.6-6.5-14.6-14.6 6.5-14.6 14.6-14.6zm9.2-.3c-2.3-1.4-4.9-2.3-7.8-2.6v-3.7h43.7c1 2 1.8 4.1 2.5 6.3h-38.4zm-7.7-12.2v-6.3h35.6c1.8 2 3.4 4.1 4.8 6.3h-40.4zm0-12.1v-6.2h19.3c3.6 1.7 7 3.7 10.1 6.2h-29.4zm13.4 48.5c1.2-1.9 2-4 2.4-6.3h32.5c-.1 2.1-.4 4.2-.8 6.3h-34.1zm2.4-12.1c-.4-2.3-1.2-4.4-2.3-6.3h34c.4 2.1.6 4.1.8 6.3h-32.5zm-18.8-47v32.3c-8.1.7-14.6 6.8-15.9 14.7H50.2c1.4-25.8 22.4-46.3 48.3-47z"/><path d="M56.1 86.3l2 2-.5 2.7c0 .1 0 .3.2.4.1.1.2.1.2.1h.2l2.5-1.3 2.5 1.3h.2c.1 0 .2 0 .2-.1.1-.1.2-.2.2-.4l-.5-2.8 2-2c.1-.1.1-.3.1-.4 0-.1-.2-.2-.3-.3l-2.8-.4-1.2-2.5c-.1-.1-.2-.2-.4-.2s-.3.1-.4.2l-1.2 2.5-2.8.4c-.2 0-.3.1-.3.3 0 .2 0 .3.1.5zM72.1 85.6c-.2 0-.3.1-.3.3 0 .1 0 .3.1.4l2 2-.5 2.7c0 .1 0 .3.2.4.1 0 .2.1.2.1h.2l2.5-1.3 2.5 1.3h.2c.1 0 .2 0 .2-.1.1-.1.2-.2.2-.4l-.6-2.8 2-2c.1-.1.1-.3.1-.4 0-.1-.2-.2-.3-.3l-2.8-.4-1.2-2.5c-.1-.1-.2-.2-.4-.2s-.3.1-.4.2l-1.2 2.5-2.7.5zM68.3 72.2l-.5 2.8c0 .1 0 .3.2.4.1.1.2.1.2.1h.2l2.5-1.3 2.5 1.3h.2c.1 0 .2 0 .2-.1.1-.1.2-.2.2-.4l-.5-2.8 2-2c.1-.1.1-.3.1-.4 0-.1-.2-.2-.3-.3l-2.8-.4-1.2-2.5c-.1-.1-.2-.2-.4-.2s-.3.1-.4.2l-1.2 2.5-2.8.4c-.1 0-.3.1-.3.3 0 .1 0 .3.1.4l2 2zM89.1 70.8c-.1-.1-.2-.2-.4-.2s-.3.1-.4.2l-1.2 2.5-2.8.4c-.1 0-.3.1-.3.3 0 .1 0 .3.1.4l2 2-.5 2.8c0 .1 0 .3.2.4.1 0 .2.1.2.1h.2l2.5-1.3 2.5 1.3h.2c.1 0 .2 0 .2-.1.1-.1.2-.2.2-.4l-.5-2.8 2-2c.1-.1.1-.3.1-.4 0-.1-.2-.2-.3-.3l-2.8-.4-1.2-2.5zM85.1 61.1l-.5 2.8c0 .1 0 .3.2.4.1.1.2.1.2.1h.2l2.5-1.3 2.5 1.3h.2c.1 0 .2 0 .2-.1.1-.1.2-.2.2-.4l-.5-2.8 2-2c.1-.1.1-.3.1-.4 0-.1-.2-.2-.3-.3l-2.8-.4-1.3-2.4c-.1-.1-.2-.2-.4-.2s-.3.1-.4.2L86 58.1l-2.8.4c-.1 0-.3.1-.3.3 0 .1 0 .3.1.4l2.1 1.9zM100 107.6c4.2 0 7.6-3.4 7.6-7.6 0-4.2-3.4-7.6-7.6-7.6-4.2 0-7.6 3.4-7.6 7.6 0 4.2 3.4 7.6 7.6 7.6zm0-12.3c2.6 0 4.7 2.1 4.7 4.7s-2.1 4.7-4.7 4.7-4.7-2.1-4.7-4.7 2.1-4.7 4.7-4.7z"/></g></svg>