<?xml version="1.0" encoding="utf-8"?>
<!-- Generator: Adobe Illustrator 22.0.1, SVG Export Plug-In . SVG Version: 6.00 Build 0)  -->
<svg version="1.1" id="Layer_1" xmlns="http://www.w3.org/2000/svg" xmlns:xlink="http://www.w3.org/1999/xlink" x="0px" y="0px"
	 viewBox="0 0 200 200" enable-background="new 0 0 200 200" xml:space="preserve">
<g id="Party_Flag">
	<path id="Flag_1_" fill="#59595C" d="M162.9,52.7h-18v-1.8c0-2.1-1.7-3.8-3.8-3.8H58.9c-2.1,0-3.8,1.7-3.8,3.8v1.8h-18
		c-0.9,0-1.6,0.7-1.6,1.6c0,0.9,0.7,1.6,1.6,1.6h18v3.8c0,0.4,0.1,1,0.5,1.6l42.1,90.2c0.4,0.9,1.3,1.5,2.3,1.5c1,0,1.9-0.6,2.3-1.5
		l42.1-90.2c0.2-0.5,0.5-1.3,0.5-1.9v-3.6h18c0.9,0,1.6-0.7,1.6-1.6C164.5,53.4,163.8,52.7,162.9,52.7z M142.1,60.2L100,150.5
		L57.9,59.9v-9c0-0.6,0.5-1.1,1.1-1.1h82.2c0.6,0,1.1,0.5,1.1,1.1L142.1,60.2z"/>
	<g id="Bars_Group_1_">
		<path id="Bar_13_" fill="#58585B" d="M102.8,134.6c-1.3,0-3.9,0-5.5,0c0,0,1.7,3.7,2.3,4.9c0.2,0.3,0.6,0.5,0.9,0
			C101,138.3,102.1,136,102.8,134.6z"/>
		<path id="Bar_15_" fill="#58585B" d="M105.9,128.4c0,0,2.6-5.6,3.4-7.4c-5.7,0-14.1,0-18.5,0l3.4,7.4L105.9,128.4z"/>
		<path id="Bar_17_" fill="#58585B" d="M112.3,114.5c0,0,2.5-5.4,3.4-7.4c-5.7,0-8.1,0-31.6,0l3.5,7.4L112.3,114.5z"/>
		<path id="Bar_18_" fill="#58585B" d="M118.9,100.5c0,0,2.4-5.3,3.4-7.4c-5.7,0-21.1,0-44.6,0l3.4,7.4L118.9,100.5z"/>
		<path id="Bar_16_" fill="#58585B" d="M125.4,86.6c0,0,2.6-5.5,3.4-7.4c-5.7,0-9.9,0-33.5,0v7.4L125.4,86.6z"/>
		<path id="Bar_14_" fill="#58585B" d="M131.8,73c0,0,2.7-6.2,3.7-8.2c-5.7,0-16.7,0-40.2,0V73H131.8z"/>
	</g>
	<path id="Star_121_" fill="#58585B" d="M87,65.1L87,65.1c-0.1,0-0.2,0.1-0.3,0.2l-1.2,2.4l-2.6,0.4c-0.1,0-0.2,0.1-0.3,0.2
		c0,0.1,0,0.2,0.1,0.3l1.9,1.8L84.2,73c0,0.1,0,0.2,0.1,0.3c0.1,0,0.1,0.1,0.2,0.1c0.1,0,0.1,0,0.1,0l2.3-1.2l2.3,1.2
		c0,0,0.1,0,0.1,0c0.1,0,0.1,0,0.2-0.1c0.1-0.1,0.1-0.2,0.1-0.3l-0.4-2.6l1.9-1.8c0.1-0.1,0.1-0.2,0.1-0.3c0-0.1-0.1-0.2-0.3-0.2
		l-2.6-0.4l-1.2-2.4C87.2,65.2,87.1,65.1,87,65.1L87,65.1z"/>
	<path id="Star_120_" fill="#58585B" d="M81,78.5c-0.1,0-0.2,0.1-0.3,0.2L79.6,81L77,81.4c-0.1,0-0.2,0.1-0.3,0.2
		c0,0.1,0,0.2,0.1,0.3l1.9,1.8l-0.4,2.6c0,0.1,0,0.2,0.1,0.3c0.1,0,0.1,0.1,0.2,0.1c0.1,0,0.1,0,0.1,0l2.3-1.2l2.3,1.2
		c0,0,0.1,0,0.1,0c0.1,0,0.1,0,0.2-0.1c0.1-0.1,0.1-0.2,0.1-0.3l-0.4-2.6l1.9-1.8c0.1-0.1,0.1-0.2,0.1-0.3c0-0.1-0.1-0.2-0.3-0.2
		L82.5,81l-1.2-2.4C81.2,78.5,81.1,78.5,81,78.5L81,78.5z"/>
	<path id="Star_119_" fill="#58585B" d="M72.5,65.1c-0.1,0-0.2,0.1-0.3,0.2L71,67.7l-2.6,0.4c-0.1,0-0.2,0.1-0.3,0.2
		c0,0.1,0,0.2,0.1,0.3l1.9,1.8L69.7,73c0,0.1,0,0.2,0.1,0.3c0.1,0,0.1,0.1,0.2,0.1c0.1,0,0.1,0,0.1,0l2.3-1.2l2.3,1.2
		c0,0,0.1,0,0.1,0c0.1,0,0.1,0,0.2-0.1c0.1-0.1,0.1-0.2,0.1-0.3l-0.4-2.6l1.9-1.8c0.1-0.1,0.1-0.2,0.1-0.3c0-0.1-0.1-0.2-0.3-0.2
		l-2.6-0.4l-1.2-2.4C72.7,65.2,72.6,65.1,72.5,65.1L72.5,65.1z"/>
	<path id="Top_Line_1_" fill="#59595C" d="M135,60.1H65c-0.9,0-1.6-0.7-1.6-1.6c0-0.9,0.7-1.6,1.6-1.6H135c0.9,0,1.6,0.7,1.6,1.6
		C136.5,59.4,135.8,60.1,135,60.1z"/>
</g>
</svg>
