<?xml version="1.0" encoding="utf-8"?>
<!-- Generator: Adobe Illustrator 22.0.1, SVG Export Plug-In . SVG Version: 6.00 Build 0)  -->
<svg version="1.1" id="Layer_1" xmlns="http://www.w3.org/2000/svg" xmlns:xlink="http://www.w3.org/1999/xlink" x="0px" y="0px"
	 viewBox="0 0 200 200" enable-background="new 0 0 200 200" xml:space="preserve">
<g id="Locator_USA">
	<path id="Locator_Shape" fill="#56585B" d="M100,48c-21.6,0-39.1,17.6-39.1,39.1c0,20.4,11.1,39.6,37,64c0.6,0.6,1.4,0.9,2.2,0.9
		c0.8,0,1.6-0.3,2.2-0.9c25.9-24.4,37-43.6,37-64C139.2,65.6,121.6,48,100,48z M100,148.8c-22.4-21.1-36-40.1-36-61.7
		c0-19.9,16.1-36,36-36c19.9,0,36,16.1,36,36C136,108.7,122.4,127.7,100,148.8z"/>
	<path id="Circle_1_" fill="#56585B" d="M100,62.9c-13,0-23.6,10.6-23.6,23.6c0,13,10.6,23.6,23.6,23.6c13,0,23.6-10.6,23.6-23.6
		C123.6,73.5,113,62.9,100,62.9z M100,106.9c-11.3,0-20.4-9.1-20.4-20.4c0-11.3,9.2-20.4,20.4-20.4c11.3,0,20.4,9.2,20.4,20.4
		C120.4,97.8,111.3,106.9,100,106.9z"/>
	<path id="Star_45_" fill="#58585B" d="M100,74.9c-0.4,0-0.7,0.2-0.8,0.5L96.4,81l-6.2,0.9c-0.4,0.1-0.7,0.3-0.8,0.6
		c-0.1,0.3,0,0.7,0.2,1l4.5,4.3L93.1,94c-0.1,0.4,0.1,0.7,0.4,0.9c0.2,0.1,0.4,0.2,0.6,0.2c0.2,0,0.3,0,0.4-0.1l5.5-2.9l5.5,2.9
		c0.1,0.1,0.3,0.1,0.4,0.1c0.2,0,0.4-0.1,0.6-0.2c0.3-0.2,0.4-0.6,0.4-0.9l-1.1-6.1l4.5-4.3c0.3-0.3,0.4-0.6,0.2-1
		c-0.1-0.3-0.4-0.6-0.8-0.6l-6.2-0.9l-2.8-5.6C100.7,75.1,100.4,74.9,100,74.9L100,74.9z"/>
</g>
</svg>
