<?xml version="1.0" encoding="utf-8"?>
<!-- Generator: Adobe Illustrator 22.0.1, SVG Export Plug-In . SVG Version: 6.00 Build 0)  -->
<svg version="1.1" id="Layer_1" xmlns="http://www.w3.org/2000/svg" xmlns:xlink="http://www.w3.org/1999/xlink" x="0px" y="0px"
	 viewBox="0 0 200 200" enable-background="new 0 0 200 200" xml:space="preserve">
<g id="Ribbon_Badge">
	<path id="Ribbon" fill="#56585B" d="M145.8,100.2l-3.4-6.9c-0.5-1.1-0.5-3,0-4.1l3.4-6.9c1-2.1,0.3-4.8-1.6-6.1l-6.4-4.3
		c-1-0.7-2-2.4-2-3.5l-0.5-7.7c-0.2-2.3-2.1-4.3-4.5-4.5l-7.7-0.5c-1.2-0.1-2.9-1.1-3.5-2.1l-4.3-6.4c-0.9-1.3-2.4-2.1-4.1-2.1
		c-0.7,0-1.4,0.2-2,0.5l-6.9,3.4c-1,0.5-3.1,0.5-4.1,0L91,45.5c-0.6-0.3-1.3-0.5-2-0.5c-1.6,0-3.2,0.8-4.1,2.1l-4.3,6.4
		c-0.7,1-2.4,2-3.5,2.1l-7.7,0.5c-2.3,0.2-4.3,2.1-4.5,4.5l-0.5,7.7c-0.1,1.2-1.1,2.9-2.1,3.5l-6.4,4.3c-1.9,1.3-2.7,4-1.6,6.1
		l3.4,6.9c0.5,1.1,0.5,3,0,4.1l-3.4,6.9c-1,2.1-0.3,4.8,1.6,6.1l6.4,4.3c1,0.7,2,2.4,2.1,3.5l0.5,7.7c0.1,1.9,1.5,3.6,3.3,4.2
		L61.2,143c-0.2,0.5-0.1,1,0.2,1.4c0.3,0.4,0.9,0.6,1.4,0.4l15.1-3.8l8.1,13.3c0.3,0.4,0.7,0.7,1.2,0.7c0,0,0.1,0,0.1,0
		c0.5,0,1-0.4,1.2-0.9l8.2-19.9l1.3-0.6c1-0.5,3.1-0.5,4.1,0l1.3,0.6l8.2,19.9c0.2,0.5,0.6,0.8,1.2,0.9c0,0,0.1,0,0.1,0
		c0.5,0,0.9-0.2,1.2-0.7l8.1-13.3l15.1,3.8c0.5,0.1,1,0,1.4-0.4c0.3-0.4,0.4-0.9,0.2-1.4l-6.9-16.9c1.8-0.6,3.1-2.3,3.3-4.2l0.5-7.7
		c0.1-1.2,1.1-2.9,2-3.5l6.4-4.3C146.1,105,146.8,102.3,145.8,100.2z M87,150.6l-7.2-11.8c-0.3-0.5-0.9-0.8-1.5-0.6l-13.4,3.3
		l6.2-15l6.1,0.4c1.2,0.1,2.9,1.1,3.5,2l4.3,6.4c0.9,1.3,2.4,2.1,4.1,2.1c0.7,0,1.4-0.2,2-0.5l1.9-0.9L87,150.6z M121.8,138.2
		c-0.6-0.1-1.2,0.1-1.5,0.6l-7.2,11.8l-6-14.5l1.9,0.9c0.6,0.3,1.3,0.5,2,0.5c1.6,0,3.2-0.8,4.1-2.1l4.3-6.4c0.7-1,2.4-2,3.5-2
		l6.1-0.4l6.2,15L121.8,138.2z M142.6,104l-6.4,4.3c-1.7,1.1-3.1,3.6-3.3,5.7l-0.5,7.7c-0.1,0.9-0.9,1.8-1.9,1.9l-7.7,0.5
		c-2,0.1-4.5,1.6-5.7,3.3l-4.3,6.4c-0.5,0.7-1.7,1.1-2.5,0.7l-6.9-3.4c-0.9-0.4-2.1-0.7-3.3-0.7c-1.2,0-2.4,0.2-3.3,0.7l-6.9,3.4
		c-0.8,0.4-2,0.1-2.5-0.7l-4.3-6.4c-1.1-1.7-3.6-3.1-5.7-3.3l-7.7-0.5c-0.9-0.1-1.8-0.9-1.9-1.9l-0.5-7.7c-0.1-2-1.6-4.5-3.3-5.7
		l-6.4-4.3c-0.8-0.5-1.1-1.7-0.7-2.5l3.4-6.9c0.9-1.8,0.9-4.7,0-6.6L56.8,81c-0.4-0.8-0.1-2,0.7-2.5l6.4-4.3
		c1.7-1.1,3.1-3.6,3.3-5.7l0.5-7.7c0.1-0.9,0.9-1.8,1.9-1.9l7.7-0.5c2-0.1,4.5-1.6,5.7-3.3l4.3-6.4c0.5-0.7,1.7-1.1,2.5-0.7l6.9,3.4
		c1.8,0.9,4.8,0.9,6.6,0l6.9-3.4c0.8-0.4,2-0.1,2.5,0.7l4.3,6.4c1.1,1.7,3.6,3.1,5.7,3.3l7.7,0.5c0.9,0.1,1.8,0.9,1.9,1.9l0.5,7.7
		c0.1,2,1.6,4.5,3.3,5.7l6.4,4.3c0.8,0.5,1.1,1.7,0.7,2.5l-3.4,6.9c-0.9,1.8-0.9,4.7,0,6.6l3.4,6.9
		C143.6,102.3,143.3,103.5,142.6,104z"/>
	<path id="Circle" fill="#56585B" d="M100,124c-18,0-32.7-14.7-32.7-32.7c0-18,14.7-32.7,32.7-32.7c18,0,32.7,14.7,32.7,32.7
		C132.7,109.3,118,124,100,124z M100,61.3c-16.5,0-30,13.4-30,30c0,16.5,13.4,30,30,30c16.5,0,30-13.4,30-30
		C130,74.7,116.5,61.3,100,61.3z"/>
	<path id="Line" fill="#56585B" d="M100.4,115.4c-3.8,0-7.4-0.8-10.7-2.5c-0.6-0.3-0.9-1-0.6-1.7c0.3-0.6,1-0.9,1.7-0.6
		c3,1.5,6.3,2.2,9.6,2.2c12,0,21.7-9.7,21.7-21.7c0-3.1-0.7-6.1-1.9-9c-0.3-0.6,0-1.4,0.6-1.6c0.6-0.3,1.4,0,1.6,0.6
		c1.4,3.1,2.2,6.5,2.2,10C124.6,104.6,113.8,115.4,100.4,115.4z"/>
	<path id="Line_1_" fill="#56585B" d="M79.3,101.4c-0.5,0-0.9-0.3-1.1-0.8c-1.3-3-1.9-6.1-1.9-9.4c0-13.3,10.8-24.2,24.2-24.2
		c3.5,0,6.8,0.7,10,2.2c0.6,0.3,0.9,1,0.6,1.6c-0.3,0.6-1,0.9-1.6,0.6c-2.8-1.3-5.8-1.9-9-1.9c-12,0-21.7,9.7-21.7,21.7
		c0,2.9,0.6,5.8,1.7,8.4c0.3,0.6,0,1.4-0.7,1.6C79.6,101.4,79.5,101.4,79.3,101.4z"/>
	<path id="Star_25_" fill="#58585B" d="M100,81.5c-0.3,0-0.6,0.2-0.8,0.5l-2.7,5.4l-5.9,0.9c-0.3,0-0.6,0.3-0.7,0.6
		c-0.1,0.3,0,0.7,0.2,0.9l4.3,4.2l-1,5.9c-0.1,0.3,0.1,0.7,0.4,0.9c0.2,0.1,0.3,0.2,0.5,0.2c0.1,0,0.3,0,0.4-0.1L100,98l5.3,2.8
		c0.1,0.1,0.3,0.1,0.4,0.1c0.2,0,0.4-0.1,0.5-0.2c0.3-0.2,0.4-0.5,0.4-0.9l-1-5.9l4.3-4.2c0.2-0.2,0.3-0.6,0.2-0.9
		c-0.1-0.3-0.4-0.6-0.7-0.6l-5.9-0.9l-2.7-5.4C100.6,81.7,100.3,81.5,100,81.5L100,81.5z"/>
</g>
</svg>
