<?xml version="1.0" encoding="utf-8"?>
<!-- Generator: Adobe Illustrator 22.0.1, SVG Export Plug-In . SVG Version: 6.00 Build 0)  -->
<svg version="1.1" id="Layer_1" xmlns="http://www.w3.org/2000/svg" xmlns:xlink="http://www.w3.org/1999/xlink" x="0px" y="0px"
	 viewBox="0 0 200 200" enable-background="new 0 0 200 200" xml:space="preserve">
<g id="Soda_USA">
	<path id="Glass" fill="#59595C" d="M133,77.6c0-2.7-2.2-4.9-4.9-4.9h-0.6v-2c0-4.1-3.3-7.4-7.4-7.4H89.3V51h-4.9v12.4h-4.5
		c-4.1,0-7.4,3.3-7.4,7.4v2h-0.6c-2.7,0-4.9,2.2-4.9,4.9c0,2.3,1.7,4.3,3.9,4.7l7.7,64.6c0.1,1.2,1.1,2.1,2.3,2.1h19h19
		c1.2,0,2.2-0.9,2.3-2.1l7.7-64.6C131.3,81.9,133,80,133,77.6z M75.2,70.7c0-2.6,2.1-4.6,4.6-4.6h40.3c2.6,0,4.6,2.1,4.6,4.6v1.4
		H75.2V70.7z M126.1,87.2l-0.7,5.8c-4.6,0-5.8,0-25.9,0v5.2h25.2l-0.7,5.8c-6,0-28,0-48.3,0l-2.6-21.5h26.3v4.8
		C99.5,87.2,122.9,87.2,126.1,87.2z M77.2,115l-0.7-5.8l47,0l-0.7,5.8C117.3,115,97.7,115,77.2,115z M122.2,120.1l-0.7,5.8
		c-6.3,0-36.9,0-43,0l-0.7-5.8L122.2,120.1z M100,146.7h-19l-0.5-4.5l39.1,0l-0.5,4.5H100z M120.2,136.9c-5.8,0-30.4,0-40.4,0
		l-0.7-5.8l41.8,0L120.2,136.9z M128.1,80.1H71.9c-1.4,0-2.5-1.1-2.5-2.5c0-1.4,1.1-2.5,2.5-2.5h56.2c1.4,0,2.5,1.1,2.5,2.5
		C130.6,79,129.5,80.1,128.1,80.1z"/>
	<path id="Star_107_" fill="#59595C" d="M96.1,87.5l-2.2-0.3l-1-2c-0.1-0.1-0.2-0.2-0.3-0.2c-0.1,0-0.2,0.1-0.3,0.2l-1,2l-2.2,0.3
		c-0.1,0-0.2,0.1-0.3,0.2c0,0.1,0,0.2,0.1,0.3l1.6,1.5l-0.4,2.2c0,0.1,0,0.2,0.1,0.3c0.1,0,0.1,0.1,0.2,0.1c0.1,0,0.1,0,0.2,0l2-1
		l2,1c0,0,0.1,0,0.2,0c0.1,0,0.1,0,0.2-0.1c0.1-0.1,0.2-0.2,0.1-0.3l-0.4-2.2l1.6-1.5c0.1-0.1,0.1-0.2,0.1-0.3
		C96.3,87.7,96.2,87.6,96.1,87.5z"/>
	<path id="Star_109_" fill="#59595C" d="M90.3,96.6l-2.2-0.3l-1-2c-0.1-0.1-0.2-0.2-0.3-0.2c-0.1,0-0.2,0.1-0.3,0.2l-1,2l-2.2,0.3
		c-0.1,0-0.2,0.1-0.3,0.2c0,0.1,0,0.2,0.1,0.3l1.6,1.5l-0.4,2.2c0,0.1,0,0.2,0.1,0.3c0.1,0,0.1,0.1,0.2,0.1c0.1,0,0.1,0,0.2,0l2-1
		l2,1c0,0,0.1,0,0.2,0c0.1,0,0.1,0,0.2-0.1c0.1-0.1,0.2-0.2,0.1-0.3l-0.4-2.2l1.6-1.5c0.1-0.1,0.1-0.2,0.1-0.3
		C90.5,96.7,90.4,96.6,90.3,96.6z"/>
	<path id="Star_108_" fill="#59595C" d="M84.2,88.1c0.1-0.1,0.1-0.2,0.1-0.3c0-0.1-0.1-0.2-0.3-0.2l-2.2-0.3l-1-2
		c-0.1-0.1-0.2-0.2-0.3-0.2c-0.1,0-0.2,0.1-0.3,0.2l-1,2l-2.2,0.3c-0.1,0-0.2,0.1-0.3,0.2c0,0.1,0,0.2,0.1,0.3l1.6,1.5l-0.4,2.2
		c0,0.1,0,0.2,0.1,0.3c0.1,0,0.1,0.1,0.2,0.1c0.1,0,0.1,0,0.2,0l2-1l2,1c0,0,0.1,0,0.2,0c0.1,0,0.1,0,0.2-0.1C83,92.1,83,92,83,91.8
		l-0.4-2.2L84.2,88.1z"/>
</g>
</svg>
