<svg xmlns="http://www.w3.org/2000/svg" viewBox="0 0 200 200"><g><path d="M147 84.6v-2.7c0-2.8-2.3-5-5-5H58c-2.8 0-5 2.3-5 5v2.7c0 2.4 1.8 4.5 4.1 4.9v50.8c-2.3.4-4.1 2.5-4.1 4.9v2.7c0 2.8 2.3 5 5 5h84c2.8 0 5-2.3 5-5v-2.7c0-2.4-1.8-4.5-4.1-4.9V89.5c2.4-.4 4.1-2.5 4.1-4.9zm-3.2 60.7v2.7c0 1-.8 1.8-1.8 1.8H58c-1 0-1.8-.8-1.8-1.8v-2.7c0-1 .8-1.8 1.8-1.8h4.9c.9 0 1.6-.7 1.6-1.6 0-.9-.7-1.6-1.6-1.6h-2.6V91.9c.6.3 1.2.5 1.9.5.9 0 1.8-.3 2.5-.8l10.4 48.7h-5.9c-.9 0-1.6.7-1.6 1.6 0 .9.7 1.6 1.6 1.6h6.2c.6 1.6 2.2 2.7 4.1 2.7 1.8 0 3.4-1.1 4.1-2.7h12c.9 0 1.6-.7 1.6-1.6 0-.9-.7-1.6-1.6-1.6H83.8l13.5-48.8c.7.6 1.7.9 2.7.9 1 0 1.9-.4 2.7-.9l13.5 48.8h-11.6c-.9 0-1.6.7-1.6 1.6 0 .9.7 1.6 1.6 1.6h12c.6 1.6 2.2 2.7 4.1 2.7 1.8 0 3.4-1.1 4.1-2.7h6.2c.9 0 1.6-.7 1.6-1.6 0-.9-.7-1.6-1.6-1.6h-6l10.2-48.7c.7.5 1.6.8 2.5.8.7 0 1.3-.2 1.9-.5v48.3h-1.9c-.9 0-1.6.7-1.6 1.6 0 .9.7 1.6 1.6 1.6h4.3c1 .1 1.8.9 1.8 1.9zM60.3 88c0-1.1.9-1.9 1.9-1.9 1.1 0 1.9.9 1.9 1.9 0 1.1-.9 1.9-1.9 1.9-1 0-1.9-.9-1.9-1.9zm17.2 53.9c0-1.1.9-1.9 1.9-1.9 1.1 0 1.9.9 1.9 1.9 0 1.1-.9 1.9-1.9 1.9-1 0-1.9-.9-1.9-1.9zM98.1 88c0-1.1.9-1.9 1.9-1.9 1.1 0 1.9.9 1.9 1.9 0 1.1-.9 1.9-1.9 1.9-1.1 0-1.9-.9-1.9-1.9zm20.7 53.9c0-1.1.9-1.9 1.9-1.9 1.1 0 1.9.9 1.9 1.9 0 1.1-.9 1.9-1.9 1.9-1.1 0-1.9-.9-1.9-1.9zM135.9 88c0-1.1.9-1.9 1.9-1.9 1.1 0 1.9.9 1.9 1.9 0 1.1-.9 1.9-1.9 1.9-1.1 0-1.9-.9-1.9-1.9zm6.1-1.7h-.2c-.6-1.6-2.2-2.8-4.1-2.8-1.8 0-3.4 1.1-4.1 2.8h-10.1c-.9 0-1.6.7-1.6 1.6 0 .9.7 1.6 1.6 1.6h9.9l-10.3 48.7c-.7-.5-1.6-.8-2.6-.8-1.1 0-2 .4-2.8 1l-13.5-48.9h9.8c.9 0 1.6-.7 1.6-1.6 0-.9-.7-1.6-1.6-1.6h-10.1c-.6-1.6-2.2-2.8-4.1-2.8-1.8 0-3.4 1.1-4.1 2.8h-9.9c-.9 0-1.6.7-1.6 1.6 0 .9.7 1.6 1.6 1.6h9.8l-13.5 48.8c-.7-.6-1.7-.9-2.7-.9-.9 0-1.8.3-2.5.8L66.5 89.6h9.9c.9 0 1.6-.7 1.6-1.6 0-.9-.7-1.6-1.6-1.6H66.3c-.6-1.6-2.2-2.8-4.1-2.8-1.8 0-3.4 1.1-4.1 2.8H58c-1 0-1.8-.8-1.8-1.8v-2.7c0-1 .8-1.8 1.8-1.8h84c1 0 1.8.8 1.8 1.8v2.7c0 1-.8 1.7-1.8 1.7z"/><path d="M81.3 97.6c-.1-.2-.2-.3-.4-.3s-.3.1-.4.3l-1.5 3.1-3.4.5c-.2 0-.3.2-.4.3-.1.2 0 .4.1.5l2.5 2.4-.6 3.4c0 .2 0 .3.2.5.1.1.2.1.3.1.1 0 .1 0 .2-.1l3.1-1.6 3.1 1.6c.1 0 .1.1.2.1s.2 0 .3-.1c.1-.1.2-.3.2-.5l-.6-3.4 2.5-2.4c.1-.1.2-.3.1-.5s-.2-.3-.4-.3l-3.4-.5-1.7-3.1zM120.6 97.4c-.2 0-.3.1-.4.3l-1.5 3.1-3.4.5c-.2 0-.3.1-.4.3-.1.2 0 .4.1.5l2.5 2.4-.6 3.4c0 .2 0 .3.2.5.1.1.2.1.3.1.1 0 .1 0 .2-.1l3.1-1.6 3.1 1.6c.1 0 .1.1.2.1s.2 0 .3-.1c.1-.1.2-.3.2-.5l-.6-3.4 2.5-2.4c.1-.1.2-.3.1-.5s-.2-.3-.4-.3l-3.4-.5-1.5-3.1c-.3-.2-.4-.3-.6-.3zM103.3 132.2c.1 0 .2 0 .3-.1.1-.1.2-.3.2-.5l-.6-3.4 2.5-2.4c.1-.1.2-.3.1-.5s-.2-.3-.4-.3l-3.4-.5-1.5-3.1c-.1-.2-.2-.3-.4-.3s-.3.1-.4.3l-1.5 3.1-3.4.5c-.2 0-.3.1-.4.3-.1.2 0 .4.1.5l2.5 2.4-.6 3.4c0 .2 0 .4.2.5.1.1.2.1.3.1.1 0 .1 0 .2-.1l3.1-1.6 3.1 1.6c-.2.1-.1.1 0 .1zM63 53.8c1.2.3 2.5.4 3.5.4 1.6 0 2.6-.3 3.2-.7.1 0 .1.1.2.1l23.2 5.3-33.8 7.7c-.8.2-1.3 1-1.1 1.8.2.7.8 1.2 1.5 1.2h.3l40-9.1 40 9.1h.3c.7 0 1.3-.5 1.5-1.2.2-.8-.3-1.6-1.1-1.8l-33.8-7.7 23.2-5.3c.1 0 .1-.1.2-.1.6.4 1.6.7 3.2.7 1.1 0 2.3-.1 3.5-.4 3.5-.8 6.7-2.6 6.2-4.8-.2-.9-1.1-2-4.1-2-1.1 0-2.3.2-3.5.4-2.6.6-5.1 1.7-5.9 3.2h-.3L100 57.3l-29.4-6.7h-.3c-.9-1.5-3.4-2.6-5.9-3.2-1.2-.2-2.4-.4-3.5-.4-3 0-3.9 1.1-4.1 2-.6 2.2 2.7 4 6.2 4.8z"/></g></svg>