<?xml version="1.0" encoding="utf-8"?>
<!-- Generator: Adobe Illustrator 22.0.1, SVG Export Plug-In . SVG Version: 6.00 Build 0)  -->
<svg version="1.1" id="Layer_1" xmlns="http://www.w3.org/2000/svg" xmlns:xlink="http://www.w3.org/1999/xlink" x="0px" y="0px"
	 viewBox="0 0 200 200" enable-background="new 0 0 200 200" xml:space="preserve">
<g id="USA_Classic_Ancient_Flag">
	<g id="Line_6_Group">
		<path fill="#58585B" d="M181.2,131.1c0.2,0,0.2-0.4,0.2-0.5C180.9,130.7,181.2,131.2,181.2,131.1z"/>
		<polygon fill="#58585B" points="177.2,132 177.3,131.9 176.7,132.3 		"/>
		<path fill="#58585B" d="M173.5,132c0.3,0.7,1.3-0.1,2,0.1l0.1,0.2l0.3-0.6C175.1,131.8,174.1,132.2,173.5,132z"/>
		<path fill="#58585B" d="M171.6,130.5c0.1,0.3-0.4,0.2,0.5,0.1c0,0-0.1,0-0.1-0.1C171.9,130.5,171.7,130.5,171.6,130.5z"/>
		<path fill="#58585B" d="M171.9,130.5C172.3,130.4,171.7,130.2,171.9,130.5L171.9,130.5z"/>
		<path fill="#58585B" d="M170.1,130.6l0.5-0.3c-0.1-0.2-0.6-0.2-0.4-0.3C169.7,130.2,169.8,130.4,170.1,130.6z"/>
		<path fill="#58585B" d="M169.7,131.2l0.3-0.1C169.9,131,169.8,131,169.7,131.2z"/>
		<path fill="#58585B" d="M170.5,130.8l-0.6,0.2c0.1,0.1,0.1,0.4,0.3-0.1C170.1,131.2,170.2,131,170.5,130.8z"/>
		<path fill="#58585B" d="M170.8,130.9c0.3,0.2,0.7,0.3,0.1,0.5C171.9,131.4,171.8,130.8,170.8,130.9z"/>
		<path fill="#58585B" d="M173.3,132.8l0.4,0.2l0.3-0.2C173.9,132.9,173.3,132.6,173.3,132.8z"/>
		<path fill="#58585B" d="M167,130.3c0,0.2,0.2,0.4,0.2,0.6l0.4-0.2C167.3,130.6,167,130.5,167,130.3z"/>
		<path fill="#58585B" d="M167.2,130.9l-0.6,0.3C167.1,131.2,167.2,131,167.2,130.9z"/>
		<polygon fill="#58585B" points="169.6,132 170.5,131.4 169.4,132 		"/>
		<polygon fill="#58585B" points="164.8,130.2 165.1,129.9 164.5,130.4 		"/>
		<path fill="#58585B" d="M163.4,130.3c0.2-0.3-0.3-0.5-0.1-0.7c-0.4,0.1-0.7,0.3-1,0.5C162.6,130,162.9,130.1,163.4,130.3z"/>
		<path fill="#58585B" d="M161.8,130.5c0.2-0.1,0.3-0.2,0.5-0.3C162.1,130.2,161.9,130.3,161.8,130.5z"/>
		<path fill="#58585B" d="M165.6,131.1c0-0.1-0.1-0.3-0.4-0.4l0.2,0.4L165.6,131.1z"/>
		<polygon fill="#58585B" points="165.4,131.1 165.4,131.1 164.9,131 		"/>
		<path fill="#58585B" d="M165.7,131.1L165.7,131.1C165.7,131.1,165.7,131.1,165.7,131.1z"/>
		<path fill="#58585B" d="M168.1,131.6c-0.3,0.2-1,0.5-0.4,0.9C168,132.2,167.6,131.9,168.1,131.6z"/>
		<path fill="#58585B" d="M166,131.6l0.6,0.1c0-0.1-0.1-0.3,0-0.4L166,131.6z"/>
		<polygon fill="#58585B" points="165.7,131.7 166,131.6 165.7,131.6 		"/>
		<path fill="#58585B" d="M162.8,130.9c-0.3,0.2-0.5,0.2-0.9,0.2c0.3,0.1,0.7,0.1,1,0.1C163,131.1,163.2,130.9,162.8,130.9z"/>
		<path fill="#58585B" d="M164.1,131L164.1,131C164,131.1,164.1,131.1,164.1,131z"/>
		<polygon fill="#58585B" points="158.8,131.1 158.8,131.2 158.8,131.1 		"/>
		<path fill="#58585B" d="M163,131.3c0.3,0.1,0.4,0,0.6-0.2C163.4,131.2,163.2,131.3,163,131.3C162.9,131.3,162.9,131.4,163,131.3z"
			/>
		<path fill="#58585B" d="M160.9,130.7c0.1,0.1,0.3,0.2,0.4,0.2C161.2,130.8,160.9,130.6,160.9,130.7z"/>
		<path fill="#58585B" d="M163.9,130.9C163.9,130.9,163.9,130.9,163.9,130.9C163.9,130.8,163.9,130.9,163.9,130.9z"/>
		<path fill="#58585B" d="M163.9,130.9c-0.1,0.1-0.2,0.2-0.3,0.3c0.2,0,0.3-0.1,0.4-0.1C164,131,163.9,131,163.9,130.9z"/>
		<path fill="#58585B" d="M157.8,133.9c0-0.4,0.7-0.8,1.3-0.3c0.6-0.3,0.2-1.6-0.3-2.4c0,0.2,0,0.3-0.6,0.6c0.2,0.2,1.3,0.5,0.8,0.9
			c-0.8,0.2-0.6-0.1-1-0.4c0.3,0.5-1,0.7-0.8,1.5l0.7-0.3C157.9,133.6,157.6,133.8,157.8,133.9z"/>
		<path fill="#58585B" d="M160,131.2l0.2-0.1c-0.3-0.1-0.5-0.2-0.8-0.5c-0.4,0.2-0.5,0.3-0.5,0.5L160,131.2L160,131.2z"/>
		<path fill="#58585B" d="M161.3,131.2c-0.2,0.4-0.8,0.6-0.4,1.1c0.7,0,0.5-0.4,0.9-0.6C160.7,131.9,162.1,131.5,161.3,131.2
			c0.2,0,0.4,0,0.6-0.1c-0.2-0.1-0.4-0.1-0.6-0.2l0,0l0,0l0,0c0,0.1,0.1,0.1,0,0.1c0,0,0,0,0,0C161.3,131.1,161.3,131.1,161.3,131.2
			c-0.3-0.1-0.1-0.1,0.1-0.2c0,0,0,0,0-0.1l0,0l-1.2,0.2C160.4,131.3,160.8,131.2,161.3,131.2z"/>
		<path fill="#58585B" d="M167.1,133.4c0,0,0-0.1,0-0.1C167,133.4,167,133.4,167.1,133.4z"/>
		<path fill="#58585B" d="M166.6,133.1c0.1-0.1,0.2-0.2,0.4-0.2c0.2,0.1,0,0.2,0,0.4c0.2-0.1,0.6-0.3,0.1-0.5l-0.1,0.1
			c-0.5-0.2-1.1-0.7-1-0.8C166.2,132.5,166.3,132.8,166.6,133.1z"/>
		<path fill="#58585B" d="M163.9,132.3l-1,0.2l0.5,0.4l0-0.2C164,132.7,163.9,132.5,163.9,132.3z"/>
		<polygon fill="#58585B" points="158.7,130.9 158.8,130.4 158.2,131.1 		"/>
		<polygon fill="#58585B" points="157.4,131 157.5,130.6 157.1,130.8 		"/>
		<path fill="#58585B" d="M86.7,136l-0.3,0.1C86.5,136.1,86.6,136,86.7,136z"/>
		<path fill="#58585B" d="M88.7,136l0.1-0.2C88.7,135.9,88.7,136,88.7,136z"/>
		<path fill="#58585B" d="M126.6,131c-0.4-0.4-0.9-1-0.8-0.5l0.1,0.4C126.2,130.9,126.4,130.9,126.6,131z"/>
		<polygon fill="#58585B" points="105.6,133.7 105.7,133.8 106,133.4 		"/>
		<path fill="#58585B" d="M105.3,135.5l-0.5-0.3C104.8,135.3,105,135.4,105.3,135.5z"/>
		<path fill="#58585B" d="M75.5,136.5l-0.3,0.5C75.7,136.9,75.4,136.7,75.5,136.5z"/>
		<path fill="#58585B" d="M144.6,131.1c-0.4-0.2-0.6-0.2-0.9-0.3C144.1,131.1,144.5,131.5,144.6,131.1z"/>
		<path fill="#58585B" d="M87.5,131.3c-0.2,0.1-0.2,0.2-0.2,0.3C87.4,131.5,87.5,131.4,87.5,131.3z"/>
		<path fill="#58585B" d="M142.7,130.9c0.1,0,0.1,0.1,0.2,0.1c0.3-0.1,0.5-0.1,0.8-0.1C143.4,130.7,143,130.6,142.7,130.9z"/>
		<path fill="#58585B" d="M34.9,136.1C34.8,136.1,34.8,136.1,34.9,136.1C34.8,136.1,34.8,136.1,34.9,136.1z"/>
		<path fill="#58585B" d="M23,131.6c0.1,0,0.3,0,0.5,0C23.4,131.5,23.3,131.5,23,131.6z"/>
		<path fill="#58585B" d="M152.4,130.8C152.6,130.7,152.4,130.7,152.4,130.8L152.4,130.8z"/>
		<path fill="#58585B" d="M153.7,132.5c-0.1,0.1-0.1,0.1-0.1,0.2C153.6,132.6,153.6,132.6,153.7,132.5z"/>
		<path fill="#58585B" d="M140,133.6L140,133.6C140.1,133.7,140.1,133.7,140,133.6z"/>
		<path fill="#58585B" d="M152.8,131c-0.1-0.1-0.2-0.1-0.3-0.1C152.5,130.9,152.6,130.9,152.8,131z"/>
		<path fill="#58585B" d="M152.7,130.8l0.2,0C153,130.7,153,130.7,152.7,130.8z"/>
		<path fill="#58585B" d="M152,130.8c0.2,0,0.3,0,0.4,0c-0.1,0-0.1-0.1-0.1-0.1L152,130.8z"/>
		<path fill="#58585B" d="M56.6,134.9C56.6,134.9,56.6,134.9,56.6,134.9C56.3,135,56.4,135,56.6,134.9z"/>
		<path fill="#58585B" d="M119.7,135.6C119.7,135.6,119.7,135.6,119.7,135.6L119.7,135.6L119.7,135.6z"/>
		<path fill="#58585B" d="M118.8,135.9c0.4-0.6,0.6-0.5,0.9-0.4l-0.3-1.3L118.8,135.9z"/>
		<path fill="#58585B" d="M81.8,136.1l0.7,0.4c-0.8,0.7-1.4,0.4-0.8,1c0.1-1.4,2.6-0.1,2.7-1.5l0.4,0.3c-0.1,0-0.1,0.1-0.3,0.1
			c0.9,0.7,0.6-1,1.7-0.8c0.4,0.1,0.7,0.3,0.4,0.5l0.9-0.3c0.3,0,0.2,0.3-0.1,0.2l1.3-0.1l0,0c0.2-0.2,0.6-0.6,0.8-0.7
			c0.3,0.2-0.2,0.1-0.1,0.3l0.7-0.3c0.3,0.4-0.3,0.7-0.8,0.7c0.7,1.4,0.6-0.4,2.1,0.5l-0.7,0.2c0.4,0.8,1,0.5,1.8,1
			c-0.2-0.3-1.6-1.2-0.8-1.6c0.2,0.1,0.5,0.2,0.9-0.1c0,0.5,0.4,0.4,0.9,0.3l0,0.7c0.6-0.2,0.5-0.5,0.8-0.8c0.6,0.1,0.8,0.6,0.9,1
			c1,0.1-0.7-0.8,0.5-0.9c0.8,0.3,1.4,0,2.4-0.4c0.6,0.2-0.1,0.4,0.1,0.6l0.5-0.5c0.1,0,0.1,0.2,0.1,0.3c0.4-0.2,0-0.7,0.7-0.8
			c0.2-0.7,1.4,1.1,2.3,0.2c0.2,0.2-0.1,0.4,0,0.7c1.2-0.5,1-0.4,2-1.1l0.8,0.4c-0.6-0.5,0.2-1.1,0.8-1.5c-0.2-0.2-0.4-0.4-0.5-0.5
			l1.1-0.4c0.1,0.1,0,0.3-0.2,0.6c0.1-0.1,0.1-0.1,0.2-0.2c0.4,0.2,0.2,0.6-0.1,1l-0.4-0.4c-0.3,0.4-0.5,0.8-0.5,1.2
			c0.1-0.1,0.2-0.1,0.3-0.2c-0.1,0.1-0.1,0.2-0.1,0.3c0,0.1,0.1-0.1,0.3-0.2l0.2,0.7l0.1-0.3l1.4,0.5c1-0.7,1.9-1.8,3.5-2.1
			c-0.4,0.5-0.1,0.9-0.1,1.5c-0.4-0.7-1.2,0.3-2.1,0.2c0.4,0.1,0.3,0.4,0.2,0.5l1.5-0.6c0,0.5,0.3,0.4,0.7,0.6c-0.3-1,1.1-0.7,1.7-1
			c0,0.3-0.1,0.7-0.8,0.6c0.8,0.8,1-1.2,1.8-0.5c-0.2,0-0.3,0-0.3,0.1c0.4-0.3,1.4-0.1,1.2,0.2l-0.2,0c1.2,0.1,3.6,0,3.8-0.9
			c0,0.1-0.2,1-0.2,1.2l2.1-2.9c-0.2,0.7,0.5,2.5-0.5,2.9c0.3,0.1,0.6,0.2,1.2,0c-0.2-0.1-0.5-1.1-0.2-1.1c0.7,0.8,0.5,0.4,1.4,1.2
			c-0.3-0.2,0-1.3,0.5-1.3c-0.1,0.2,0,1.2-0.1,1.3l1.1-1.1c-0.3,0.2-0.1,1,0.2,1.3c-0.1-0.2,1,0,1.3-0.1l-0.5-0.3
			c1.3,0.2,1.3-1.6,2.5-1.6c-0.2,0.2-0.4,1.5,0.3,1.6c0.3-0.6,1.3-2.8,2.4-3.3l0.2,0.3l0.9-0.4c-0.5,0.9-2,2.8-2.9,3.5
			c0.5,0.3,0.1,0.4,0.8,0.4c0.3,0.3-0.4,0.5-0.6,0.5l1.7,0.2c-0.1-0.7,1.3-0.7,1.2-1.3l-1.8,0.7c-0.1-0.7,1-2,2.2-1.8
			c0.3,0.3-0.2,1.2-0.2,1.5c0.2-0.2,1.1-0.5,1.2-0.3l-0.5,0.4c0.7,0.3,1.1-0.9,1.9-0.3c0.3,0,0.8,0.9,0.9,0.5
			c-0.4-0.8-0.5-3.2-0.2-3.8c0.1,0.1,1.4,0.8,1.7,1.1c0.4,0.6-0.7,1.5-0.3,2c0-0.2,0.3-0.4,0.4-0.5c0.3,0.2-0.1,0.6,0.5,0.5
			c0.1-0.7,1.3,0.1,0.3-0.6c0.6-0.2,0.6,0.1,1.4,0.1c-0.2-0.5,0.6-1.5,1.2-1.7c0,0.2,0.1,0.4,0.2,0.5c1.2,0.1,1.9,0.4,3.1,0.4
			c0.1,0.2,0.7,0.4,0.4,0.7c0.2-0.1,0.3-0.4,0.7-0.4c0.7,0.6-0.8,0.1-0.3,0.8c0-0.4,0.9-0.6,1.4-0.8c-0.2-0.6-1.2-0.1-1.7,0.1
			c0-0.9,0.9-1.8,2.1-2.2c1-0.2,0.4,0.6,0.6,0.4c1.8,0.2,1.5-1.5,3.1-0.9c0.6,0.5,0,1.1,0.2,1.5c-0.8,0.2-1.2-0.3-1.7-0.3l0.7,0.3
			c-0.3,0.2-0.8,0.3-1.1,0.2c0.5,0.5,3.1,0.1,4.5,0.5c0.2-0.2,0.7-0.4,0.5-0.6l-0.4,0.1c-0.4-0.4,0.8-0.6,0.3-0.8
			c0.6-0.3,1.3-0.8,2.1-0.6l0.2,0.6c0-0.2-0.5-0.4-0.8-0.2c0.3-0.3,1.3,0.8,1.7,0l-0.6-0.4c0.6-0.3,1.3-1,2.1-0.8
			c-0.3-0.6-0.2,0.1-0.7-0.7c0.5,0.9-1.9,0-1.2,0.9c-0.5-0.8-0.9-0.4-1.6-1.1c0,0.2,0.3,0.4-0.4,0.3c0,0.1-0.1,0.1-0.1,0.2l0,0l0,0
			c0,0,0,0,0,0c0.1,0.1,0.3,0.2,0.3,0.3c-0.3,0.5-1.3,0.5-1.6,0.7c-0.4-0.1,0.2-0.2,0-0.5l-0.5,0.4c0-0.5-1-0.8-0.1-1l-0.8,0
			c-0.5-0.3-1.1-0.4-1.5-0.2c-0.4-0.1-0.9,0.5-0.6,0.1l-1.2,0.3l0-0.1c-1.2-0.1-2.5,0.8-3.9-0.1c-0.4,0.1-0.8,0.3-1.5,0.1l-0.1-0.4
			c-0.5,0.1-1.6-0.4-1.8,0c-0.6-1.1-2.5-0.2-3.5-0.4l0,0.5c-0.6,0-1.2,0.1-2,0.3l0,0.5c-0.7,0.4-1.7-0.3-2.8-0.3
			c0.1-0.2,0.3-0.1,0.5,0c-1.3-1-2.7,0.8-3.9,0c-0.3,0.2-0.5,0.1-0.7,0c0,0,0.1,0,0.1,0c0,0-0.1,0-0.1,0c-0.1-0.1-0.3-0.2-0.4-0.2
			c0.1,0.1,0.2,0.2,0.3,0.2c-0.2,0-0.6,0.1-0.9,0.2l-0.1-0.5l-0.1,0c-0.3-0.2-0.3,0.2-0.1,0.6c-0.2,0.1-0.3,0.2-0.4,0.3
			c-0.3-0.8-0.9,0.3-1.2-0.6c-0.2,0.4-1.7,0.3-1.8,1.2c0-0.1-0.1-0.2,0.1-0.2c-0.4-0.1-0.7-0.2-1.1,0l-0.2-0.6l-0.8,0.8
			c-0.5-0.4-0.7-0.6-0.2-1.1c-1.2,0.7-1,0.3-2,1l0-0.4c-0.4,0-0.9,0.6-1.1,0.2c-0.8-0.8-4-0.1-6-0.8c0.4,1.2-1-0.5-1,0.4
			c-0.1-0.3-0.4-0.4-0.1-0.7c-1,0.3-1.6-0.4-2.3,0.3c-0.1-0.3,0.2-0.4,0.1-0.6c-0.1,0.1-0.3,0.2-0.4,0.1c-0.1-0.2,0.2-0.2,0.3-0.4
			c-1.1,0-1.2,0.9-1.3,1.7c-0.5-0.4-0.8-0.3-1.2,0.2c-0.2-0.3-0.5-0.5,0.2-0.6c-0.4,0-2.3-0.4-2.3,0.3c-0.1-0.2-0.5,0-0.6,0
			c-0.8,0-0.9-0.1-1.7,0l0.2,0.1c-0.3,0.8-0.7,0.2-1.4,0.3l0-0.1c-1.5-0.6-0.7,0.3-2.2-0.4l0.1,0.5c-0.1,1.1-1.3-0.6-2.2-0.2
			l0.3,0.3c-0.5,0.4-1.3-1.4-1.8-1.6c-0.1-0.1,0.2-0.1,0.3-0.2c-1.3-0.6-0.2,0.6-1.1,0.8c-0.2-0.3,0.2-0.9-0.4-0.9
			c-0.3-0.3-1.8,1.1-2.7,0.5c0.2,0.3,0.4,0.5-0.1,0.7c-0.7,0.1-1.8-1-2.4-0.2c-0.1-0.1-0.1-0.1-0.1-0.2c-0.5,0.2-1.7,0.4-2,0.8
			c-0.5-1.7-3.2,0.8-3.2-0.7l-1.6,0.1l0-0.2c-1-0.1-1.4,0.3-1.7,0.6c-0.2-0.1-0.1-0.3,0-0.3c-1.5-0.3-1.6-0.2-2.8,0.5l-0.1-0.5
			c-0.3,0.3-2.1-0.8-3.5-0.2c0-0.1,0-0.2,0.2-0.2c-1.6,0.6-3.9-1.4-4.5,0.4l-1.1,0.5c1.4,0.1-0.2,0.8,0.4,1.1
			c-0.5,0.1-1.4-0.6-0.7-0.7l0.1,0.1c0.2-1-1.7-0.3-1.7-1c-2.7,0-5.3-0.5-7.9-0.5l0.3,0.7l-0.9,0c-0.2-0.2-0.3-0.6,0.3-0.6
			c-0.3-0.4-1.1,0.4-1.1,0.5c-1.2-0.3,0.5-0.9,0.1-0.9l-0.5,0.1l0.1,0.1c-0.4,0.3-0.5,0.6-1.2,0.6c-0.5-0.2-0.2-0.5-0.4-0.5
			c0-0.1-0.1-0.1-0.3,0l-1.1-0.1l0.4,0.6c-0.5,0.3-1,0-0.5,0.6c-0.8-1-4.2-0.4-4.6-0.7c-0.7,0.4-1.4,0.4-2.2,0.4
			c0.2,0.1,0.3,0.8-0.4,0.7c0.3-1.4-1.3-0.6-1.9-1.6c0.5,0.7-2.1,0.2-1.2,1.1c-0.6-0.1,0-0.5-0.5-0.8c-1.5,0.5-3.2-0.3-5-0.2
			c0,0.2,0.3,0.5-0.1,0.7l-0.9-0.9c-0.4,0.1-0.3,1-1,0.4c0.1,0.2,0.2,0.4,0,0.4c-3.5-0.9-7.2,0.7-10.7-0.9c0.5,0.3,0.2,0.4-0.2,0.4
			c0.2,0.1,0,0.4,0,0.7l-1.5-0.7c-0.3,0.7-1.6,0-1.8,0.7l0.5-0.1c-0.6,0.8,0.9,1.7,0.8,2.7c0.7-0.9,1.9,1.3,3,0
			c0.3,0.2-0.2,0.3-0.1,0.5c0.3-0.4,0.6-0.5,1.3-0.3l-0.1,0.1c1.8-0.1,2.6,0.3,4.7,0.6l-0.2-0.5c0.4,0.1,0.5,0.2,0.7,0.3
			c0.5-0.7-1.2,0-0.8-0.8c0.6,1,3.1,0,3.5,1.1c0.7,0-0.2-0.6,0.5-0.6l0.2,0.3l0.2-0.4c0.4,0.1,0.7,0.4,0.7,0.7
			c-0.1,0-0.3,0.1-0.4,0.1c0.6,0.4,1.6-0.1,1.8,0l-0.7-0.2c1.9-0.3,4.1,0.1,5.9-0.5l-0.1-0.2c1.4-0.4,1.1,0.3,2.6,0.1l-0.1,0.1
			c0.3-0.2,0.7-0.3,1.1-0.3c-0.4,0.3,0.7,0.5,0.2,0.8c1.5-0.5,0.7-0.4,1.7-1.2l0.2,0.4c0.3-0.3,0.4-0.5,1.1-0.6
			c-0.6,0.3,0.5,0.6-0.2,1c1.6,0.8,2.4-0.8,3.1,0.4c0.7-1.1-1.4-0.6-1-0.8c-0.3-0.3,0.6-0.8,1.1-0.7c0.5,0,0.9,1.3,2.1,1.3
			c-0.1,0-0.1,0.1-0.3,0.1c0.5,0.3,0.9-0.4,1.5,0.1c0.3-0.6,0.8,0,0.9-0.8l-1.2,0.2c0.7-0.2,1.3-1.2,2.4-0.7
			c-0.1,0.2-0.4,0.4-0.6,0.5c0.3,0.2,0.6-0.2,0.9,0.1c-0.1,0.8-1.4,0.2-2.1,0.8c0.3,0.3,1.3-0.6,1,0.3c0.5-1.1,1.3,0.1,2.1-0.7
			l-0.1,0.5c0.1-0.1,0.4-0.3,0.7-0.3l-0.5,0.6c0.7-0.5,1.3,0.5,2,0.2c-1.4,0-0.3-0.6-0.9-0.9c1.7-0.6,1,1.3,2.9,1
			c-0.3,0.1-1-0.3-0.6-0.5c0.4,0.1,0.9,0.3,1.1,0.5c1.3-0.1-0.2-0.5,0.3-0.8c0.4,0.6,0.6-0.2,1.2-0.4l0,0.5c1.5,0.3,0.4-1,1.7-0.6
			l-0.6,0.7l0.7-0.2l-0.1,0.6c0.7-0.4,1-0.3,1.7-0.2c-0.2-0.3,0.1-0.9,0.7-0.9c0.4,0.3-0.2,0.5,0.7,0.4c-0.2,0.3-0.4,0.7-0.8,0.2
			c0,0.2-0.2,0.3-0.2,0.5c0.5,0.3,1.2,0.1,1.5,0.1c-0.1,0-0.3,0-0.4-0.1l1.3-0.7c0.2,0.2,0,0.3-0.1,0.5c0.3-0.1,0.5-0.3,0.9-0.3
			c-0.1,0.4-0.1,0.8-0.6,1l1.3-0.4c0.1,0.2,0.7,0.5,0.5,0.6c0.7,0.2,1.7-0.8,2.7-0.5c0-0.1,0.1-0.2,0.3-0.2c0.9,0.1,1.7,0.6,2.7,0
			l0.6,0.7c0.8-0.2-0.8-0.9,0.6-1.2c1-0.2,0.4,0.6,0.7,0.8c0.5-0.4,1.3-1.1,2.2-0.5C82.3,136.2,82.1,136.1,81.8,136.1z M91.8,135.8
			c-0.2,0.1-0.6,0.4-0.7,0.1C91.3,135.4,91.5,135.6,91.8,135.8z M107,134.6c-0.1,0.2-0.4,0.1-0.6-0.1
			C106.6,134.5,106.8,134.5,107,134.6z M149.5,131.2C149.4,131.2,149.4,131.2,149.5,131.2C149,131,149.2,131.1,149.5,131.2z
			 M150.4,131.4c0.1-0.1,0.1-0.1,0-0.2c-0.1,0.1-0.3,0.1-0.5,0.1C150,131.4,150.1,131.5,150.4,131.4z M53.8,131.6l0.2,0.1
			C53.6,131.9,53.7,131.7,53.8,131.6z"/>
		<path fill="#58585B" d="M105.3,135.3c-0.1-0.1-0.1-0.2-0.1-0.3C105.1,135.1,105.1,135.2,105.3,135.3z"/>
		<path fill="#58585B" d="M75.5,136.4L75.5,136.4C75.5,136.4,75.5,136.4,75.5,136.4L75.5,136.4z"/>
		<path fill="#58585B" d="M136.4,135.6c-0.2-0.1-0.3-0.2-0.4-0.3C136.1,135.4,136.1,135.5,136.4,135.6z"/>
		<path fill="#58585B" d="M155.1,130.5l-0.6,0.1c0.3,0,0.4,0.1,0.5,0.2C155,130.7,154.9,130.6,155.1,130.5z"/>
		<path fill="#58585B" d="M160.1,133.6c0.1-0.1,0.2,0,0.3-0.1l0-0.2C160,133.3,159.7,133.5,160.1,133.6z"/>
		<path fill="#58585B" d="M155.7,132.2c0,0.4,0.4,0.3,0.8,0.2c0,0,0,0-0.1,0C156.5,131.8,156.1,132,155.7,132.2z"/>
		<path fill="#58585B" d="M156.6,132.4c0.1,0,0.3,0,0.4,0C157,132.1,156.8,132.3,156.6,132.4z"/>
		<path fill="#58585B" d="M151.5,131.1c0.2,0.1,0.1-0.5,0.2-0.4C151.9,130.2,150.4,131.4,151.5,131.1z"/>
		<polygon fill="#58585B" points="156,133.6 155.8,133 155.6,133.5 		"/>
		<path fill="#58585B" d="M152.8,133.2l0.6,0.1c0-0.1,0.1-0.1,0.2-0.2C153.2,133.1,152.8,133,152.8,133.2z"/>
		<path fill="#58585B" d="M153.6,133.1c0.2,0,0.4,0,0.5-0.1C154,133.1,153.8,133.1,153.6,133.1z"/>
		<polygon fill="#58585B" points="155.1,133.7 154.9,133.6 154.5,133.6 		"/>
		<path fill="#58585B" d="M145.9,133.1l-0.7,0.1c-0.1,0.2,0.1,0.3,0.4,0.2C145.7,133.3,146,133.2,145.9,133.1z"/>
		<path fill="#58585B" d="M148,134.5c-0.2-0.1-0.2-0.2-0.3-0.4l0,0.6L148,134.5z"/>
		<path fill="#58585B" d="M145.9,134.6c-0.1,0.2-1,0.5-0.1,0.5C145.9,134.9,146.6,134.8,145.9,134.6z"/>
		<polygon fill="#58585B" points="135.3,133.8 135.5,133.8 135.5,132.8 		"/>
		<path fill="#58585B" d="M126,136.3c0.8,0.2,0.2-0.6,1-0.3c0.2-0.2-0.6-0.3-0.4-0.5C126,135.8,125.8,135.6,126,136.3z"/>
		<path fill="#58585B" d="M126.5,135.5c0.1,0,0.2-0.1,0.3-0.2C126.6,135.4,126.6,135.5,126.5,135.5z"/>
		<polygon fill="#58585B" points="21.1,131.1 20.5,130.8 20.9,131.2 		"/>
		<path fill="#58585B" d="M20,131.8l-0.1-0.7l-0.3,0.6C19.7,131.7,19.9,131.7,20,131.8z"/>
		<path fill="#58585B" d="M93.3,137.1l0-0.2c-0.1-0.2-0.2-0.2-0.5-0.2L93.3,137.1z"/>
		<polygon fill="#58585B" points="86,136.6 86.1,136.6 85.9,136 		"/>
		<path fill="#58585B" d="M79.9,137.4c0.2,0,0.5-0.1,0.8-0.1C80.2,137.4,79.8,136.6,79.9,137.4z"/>
	</g>
	<g id="Line_5_Group">
		<polygon fill="#58585B" points="175.8,118.8 175.7,118.3 174.9,118.9 		"/>
		<path fill="#58585B" d="M167.7,118.3c-0.7,0.5-2.1,0.8-2.1,1.8l1.3-0.9c0.2,0.7,1,0.7,1.8,0.4l-0.9,0c0.2-0.1,0.1-0.6,0.3-0.7
			c1.3,0.4,1.7-0.6,2.9,0.2l-0.1,0.1l1-0.5c0.3,0.1,0.2,0.5,0.1,0.6c0.9-0.4,1.5-0.8,2.7-0.7c-0.9-1.3-2.6,1-3.5-0.3l0.1-0.1
			C170.2,118.8,168.9,117.9,167.7,118.3z"/>
		<path fill="#58585B" d="M172,119.4L172,119.4C171.9,119.5,172,119.5,172,119.4z"/>
		<path fill="#58585B" d="M125.2,117.5l0,0.2C125.2,117.6,125.3,117.6,125.2,117.5z"/>
		<path fill="#58585B" d="M139.5,120.2L139.5,120.2C139.3,120.4,139.4,120.4,139.5,120.2z"/>
		<path fill="#58585B" d="M47.4,117.8l-0.3-0.3C47.2,117.8,47.3,117.9,47.4,117.8z"/>
		<path fill="#58585B" d="M28.2,117.6L28.2,117.6L28.2,117.6z"/>
		<path fill="#58585B" d="M37,121.7l0,0.3C37,121.8,37,121.7,37,121.7z"/>
		<path fill="#58585B" d="M30.7,122.2c-0.2-0.1-0.3-0.1-0.5-0.1C30.4,122.3,30.6,122.3,30.7,122.2z"/>
		<path fill="#58585B" d="M28.4,117.5c-0.1,0-0.1,0.1-0.2,0.1C28.3,117.6,28.3,117.5,28.4,117.5z"/>
		<path fill="#58585B" d="M46.3,122.2l0.2,0.7C46.5,122.7,46.4,122.4,46.3,122.2z"/>
		<path fill="#58585B" d="M29.2,122.8c-0.1-0.1-0.2-0.2-0.3-0.2C29,122.7,29.1,122.8,29.2,122.8z"/>
		<path fill="#58585B" d="M166.4,118.4c0.2,0,0.4,0,0.6-0.1C166.8,118.2,166.6,118.3,166.4,118.4z"/>
		<path fill="#58585B" d="M81.3,122.8c0,0.1-0.1,0.2-0.1,0.3C81.3,123,81.3,122.9,81.3,122.8z"/>
		<path fill="#58585B" d="M60.8,122.7L60.8,122.7c0,0.1,0,0.1,0,0.1L60.8,122.7z"/>
		<path fill="#58585B" d="M66.8,122.6c0,0-0.1,0.1-0.1,0.2C66.7,122.7,66.8,122.7,66.8,122.6z"/>
		<path fill="#58585B" d="M56.3,123.5c-0.1,0.1-0.1,0.1-0.2,0.2L56.3,123.5z"/>
		<path fill="#58585B" d="M51.9,122.7c0.2,0.3,0,0.5-0.2,0.7c1.1,0.3,1.4-0.5,2.6,0.1l-0.5-0.3c0.7-0.5,2.1-0.6,2.7,0.1l-0.2,0.2
			c0.7-0.6,1.8,0.5,2.1,0c-0.3-0.3,0-0.5-0.4-0.8l1.8-0.6l0.1,0.9l0.9-0.3c-0.2-0.4,1.2,0.3,1.3-0.6c0.5,0.3-0.2,0.7-0.4,1.1
			c0.5-0.3,0.6,0.1,1.1-0.4l0.5,0.8l1.4-0.6c-0.1,0.1,0,0.1,0,0.2c0.6-0.7,1.6,0.4,2.4-0.8c0,0,0,0.1,0,0.1c0.4-0.7,1.5-0.2,1.9,0
			c0.7-0.2,0.3-0.8,0.3-1.1c2,0.2,1.4,0.2,3.1-0.8c1,1-1.2,1.7,0.1,2.4c0.2-0.5,1.1-0.9,2.1-1.1c0.9,0.4,2.5,0.6,3.4,1.3l-0.1-0.7
			l1.3-0.4l-0.7,1c0.2-0.2,0.9-0.7,1.3-1c1.4-0.6,0.8,1.5,1.8,0.4c0,0.1,0.1,0.1,0.1,0.2c0.3-0.5,1.2-0.3,2.2-0.5l-0.4,0.9l-0.7-0.2
			c0.4,0.8,1.1-0.1,1.7-0.1c0.7-0.3,0.3-1,0.7-1.3c0.2,0,0.6-0.2,0.8,0c0.6,0.3,0.1,1-0.1,1.4c0.5-0.9,0.7-0.8,1.8-1.1
			c0.1,0.4,0,0.6-0.2,0.7c0.2-0.1,0.5-0.3,0.6-0.7l0.4,0.5c1.3,0.7,1.3-1.6,2.8-1.3c-0.4,0.5,1.3-0.1,1.8,0.4
			c-0.5,0.1,0.3,1.3-0.1,1.8c1.2,0.3,0.5-1,1.5-1.2l-0.4,1.1c1-0.5,0.2-0.6,1.2-0.9c-0.3,0.3,0.4,0.3-0.1,0.6c1.3,0.1,1,0,2.1,0.1
			l0.1-1c0.4-0.1,0.5,0.3,0.6,0.5c-0.2,0-0.4,0-0.4,0.1c0.4,0.9,0.7-0.5,1.2,0.3c-0.1-0.3-0.3-0.8,0.2-0.9c-0.1,0.6,0.7,0.6,0.8,0.9
			c-0.3-0.4,1-0.2,1.1-0.9c0.5,0.5-0.2,0.5-0.2,0.9c0.4-0.8,1.9-0.1,2.3-0.6c0,0.1,0,0.1,0,0.2c0.6-0.5,1.5-0.6,2.7-1.3l-0.4,0.6
			c1.2,0.3,0.7-1.3,1.7-1.3c-0.2,0.9,1.6-0.1,1.2,0.9c0.6-0.5,1.2-0.7,1.6-1.5c0.5,0.5-1,1.2-0.3,1.4l0.8-0.5l0.1,0.5
			c0-0.3,0.7-0.4,0.7-0.6c0.1,0.6,0.5,0.9,0.4,1.4c0.5-0.2,1.2,0.4,1.7-0.1l0,0.3c0.5-1,1.6-0.2,1.8-1.3l0.3,0.6
			c0.8-0.1,0.6-1.2,1-1.4c0.3,0,0.7-0.2,1-0.1c-1,0.7,0.5,0.8,0.7,1.2c0.4,0,1.6-0.1,1.9-0.6c-0.5,0.5-0.2,1-1.1,1
			c0.5,1,1.3-0.2,2.3-0.1l0,0.5c1.4-0.3,1.4-1.2,2-2c0.2,0.6,0,0.8-0.4,1.4c0.9,0.4,2.4,0,3.4,0c0.3,0.4,0.1,0.7-0.2,0.9
			c1.1-0.5,2.4,0.1,3.1-1c-0.3,0.4,0.4,0.3,0.8,0.5c0-0.2,0.1-0.5,0.1-0.5c0.7-0.4,2.1-0.8,2.9-0.5l-0.3,0.3
			c1.8,0.2,2.6-1.7,4.5-0.9c0.3,0.2-0.4,0.9,0.4,0.8c0.3-0.4,0.2-1.2,1.1-1l-0.1,0.7l0.6-0.7c-0.3-0.6-1.3-0.4-0.6-1
			c0.8,0.6,0.7-0.6,1.7,0.1c-0.2,0.1-0.5,0.6-0.7,0.9c2.1,0.8,2.9-0.7,5,0.2c1-0.6,2.4-0.7,3.1-1.2c-0.1,0.7-0.1,1.3-0.5,1.9
			c0.9,0.1,1.3-1.5,1.9-0.5c0.4-1,2.5-0.6,2.7-1.9c0,0.3,1,0,0,0.8c1.2-0.4,1.6,1.2,2.2,1.2c0.3,0-0.4-0.8,0.4-0.9
			c0.1,0.1,0.1,0.2,0.2,0.2l0.3-0.3c0.3,0.3-0.3,0.7-0.3,1c1,0.3,1.6-0.8,2.8-0.9l-0.2,0.2l1.2,0l-0.1,0.1l1-0.5l0,0.3
			c0.2-0.1,0.3-0.3,0.6-0.4l-0.1,0.4c0.3-0.7,1.5-1,2-1l0.1,0.2l1.3-0.9c0.7,0.5-0.9,1,0.5,0.7l-0.4,0.9c1-0.3,1.1,0.1,1.8-0.2
			c-0.3-0.4-0.8-0.4-0.4-0.8c0.8,1,1.2-0.3,2-0.7c-0.4,0-0.6,0-0.9,0.5c-0.4,0-0.1-0.5-0.4-0.5l-0.6,0.5l-0.2-0.6l-1,0.5
			c0.1-0.7-0.9-0.1-0.5-0.8c-0.7,0.3-1.1-0.2-1.7,0.5c-0.5-0.4,0.7-0.5,0.2-0.6c-2.7,0.6-5.5,0.5-8.3,0.2l0.3-0.3
			c-0.3,0.3-0.6,0.6-0.8,0.8c-0.5-0.6-2.3-1.3-3-0.2c-0.1-0.1,0.1-0.2,0.1-0.3c-0.9,0.1-2.6-0.6-4-0.5c-0.6,1.1-2-0.7-2.5,0.8
			l0.3-0.3c0.5,0.4-0.6,1-0.8,1.4c-0.4-1,0-0.8-0.5-1.7l0.5,0.3l-0.1-0.8c-1.7,2.1-3.2-1-4.2,0.6c0.1-0.1,0-0.2,0.1-0.3
			c-0.7-0.5-1.2,0.6-1.7,0.8c-0.1-0.4,0.3-0.7,0.6-1c-1.2-0.3-3.3,0.8-4.7,0.1c-0.5,0.5,0.2,0.7-0.3,1.1c-0.4-0.2-0.7-0.6-0.2-0.9
			c-1.2-1-3.9,0.7-5.7-0.3c-1,0.6-0.4,0.9-1.8,1.3c0.3-0.4-0.3-1.3,0.5-1.4l0.1-0.4c-1.4-0.1-3.4-0.2-4.2,1c0-0.9-0.3-0.2-0.8-0.7
			c-0.2,0.1,0,0.1,0.1,0.2c-0.5,0.8-0.8,0-1.2,0.1l0.1-0.2l-1,0.6c-0.2-0.1-0.4-0.3-0.5-0.6l0,0.6c-0.6,0-0.3-0.8-1-0.6l0.1,0.5
			c-0.4-0.3-1.1,0.4-1.2-0.3c0-0.1,0.1-0.1,0.2-0.1c-0.7-0.9-1.8,0.3-2.6-0.1l0.2,1c-0.8,0.3-0.5-0.2-0.5-0.6
			c-0.6,0-0.7-0.3-1.4-0.4c-0.4,0.3-0.2,0.4-0.3,0.7l-0.8-0.2l0.5-0.5c-1.2,1.5-2.9-0.2-3.7,1.2c-0.4-0.3,0.4-0.6,0.1-0.8
			c-1.4-0.6-3.1,1-4.2,0.2c-1.9-0.7-4,0-6-0.5l0,0.3l-1.5-0.2c-0.4,0.6-1.4,0.3-2,1c0.1-0.2-0.1-0.5,0.1-0.7c-0.6,0.1-1.3,0.4-1.7,0
			l0.2-0.2c-1.4-0.2-3.3-0.2-4,0.3c-0.5,0.1-0.5-0.4-0.6-0.7c-0.8,0-1.3,0.2-2,0.7c-0.2-0.1-0.4-0.2-0.5-0.5l-0.3,0.7
			c-0.3-0.1-0.1-0.5-0.3-0.7c-1.2,0.8-2.7,0.1-3.6,0.1l0.1,0.3c-0.4,0.3-1.1-0.2-0.6-0.5c-1.7-0.4-2.6,1-4.9,0.9
			c-0.3-1.2-2.1,0.4-2.4-1c-1,0.3-1.6-0.2-2.3,0.6c0-0.1-0.1-0.2,0.1-0.2c-0.4-0.5-1.7-0.1-2.7,0.2l-0.1-0.4
			c-0.4,0.9-2.1,0.6-2.4,1.5c-0.1-0.2,0.2-0.4,0.3-0.5c-0.5-0.8-0.9,0.4-1.6,0.2c0.1-0.2-0.1-0.5,0-0.6c-2.2-0.9-5.4,0.7-8.3,0
			c-0.8,0,0.3,0.9-0.8,0.9c-0.3-0.4,0.5-0.9-0.2-1.1c-0.5,0.5-0.7,0.4-1.3,0.4c0.1-0.3,0-0.5,0.5-0.7c-0.4-0.4-1.6,0.7-2.3,0
			c0,0.3-0.1,0.4-0.2,0.6c-1.1,0.8-2.5-0.8-2.6-0.3c0,0-0.4,0.1-0.1,0.2c-0.4,0-1-0.1-0.9-0.6c-0.2,0.2-0.4,0.6-0.7,0.6l0.2-0.5
			c-0.2,0.1-0.4,0.4-0.6,0.5l0.3,0.3c-0.5-0.4-1.4,0.6-1.3-0.4l0.2,0l-0.9-0.4c-0.3,0.4-0.7,0.8-1.3,0.7c-0.2-1-1.5-0.2-2.2-0.3
			l0-0.3c-0.6,0.5-2,0.3-1.8,0.4c-0.6,0-1.3-0.2-1-0.6c-0.5,0.2-1.4,0.2-1.6,0.8l-0.9-0.8c-0.5,1.2-1.8-0.4-1.9,0.9
			c-0.5-0.2-0.4-0.5-0.7-0.7c-0.7,0.6-1.4,0.5-2.2,0.4l0-0.1c-0.7-0.1-1.6,0.6-2.6,0.6l-0.2-1c-0.5,0.1-0.7,0.9-1.2,0.7
			c-0.1-0.2,0-0.2,0.1-0.3c-0.5,0.2-1.2-0.1-1.6-0.3c-0.8,0.7-1.4,0.5-2.1,1.2c-0.6-0.9,0.9-0.4,0.4-1.2c-1.1-0.5-2.2,0-3.4,0.5
			c-0.1-0.2,0-0.3,0.1-0.6c0,0-2.5,2.4-2,3.4c-0.3,0.7-0.6,1,0.4,1.6c0.3-0.4,1.3-0.9,1.5-0.1l0.1-0.7c1.4-0.3,0.1,1.4,1.8,1.4
			l-0.4-0.2c0.3,0,0.6-0.5,0.9-0.3c0.1,0.2-0.1,0.3-0.3,0.4l1.4-0.9c0.1,0.4,0,0.6-0.3,0.9c1.3,0-0.3-1.3,1.3-1
			c0.3,0.3-0.1,0.4-0.3,0.7c0.7,0.6,1.2,0,1.9-0.3c0,0.6-0.5,0.5,0.1,0.9c-0.1-0.3-0.2-0.9,0.3-0.9c-0.2,0.6,0.4,0.3,0.8,0.5
			c-0.1-0.2-0.1-0.5,0.1-0.6c0.2-0.1,0.4,0.2,0.7,0.1l-0.6-0.6c0.8-0.6,1.2,0.3,1.8,0.6c0,0.1-0.2,0.2-0.3,0.2
			c0.6,0.3,1.3,0.8,2.1,0.2l-0.1,0.1c1.5-0.6-0.5-1,1.3-1.6c0.6,0.1-0.3,2,1.1,1.3c-0.6-0.5,0.9-1.3,1.6-1.5l-0.8,1.2
			c0.3,0,0.8-0.3,1-0.2l0-0.3c-0.1-1,1,0.1,1.5-0.5c-0.7,1.4-0.7,1.1-0.8,2.5c0.5-0.8,1.2-1.5,2.1-1.3l-0.8,1.1
			c1.3,0.2,2.8-1.3,3.9-2.2c-0.3,0.8,0.2,1.1-0.3,1.8l1.3-0.2l-0.4,0.9c0.5-0.9,1.1-0.3,1-1.4c-0.1,0.2-0.1,0.3-0.4,0.3
			c0-0.3,0.2-1.1,0.9-1c0.4,0.3-0.3,0.4-0.1,0.8c0.4-0.5,0.4,0.3,0.9,0l-0.4-0.5c0.3-0.7,0.7,0,1.1-0.4c-0.5,0.3-0.3,0.7-0.2,1.1
			l0-0.1c0.3,0,0.7-0.5,0.9-0.1l-0.3,0.9l0.5-0.7c0.2,0.1,0.3,0.4,0,0.6c1.4,0.6,0-2,1.8-1.1c0,0.4-0.2,0.6-0.7,0.4
			c-0.1,0.6,0,0.9,0.6,1.1c0,0,0,0.1,0,0.1C50,123.3,51.3,123.4,51.9,122.7z"/>
		<path fill="#58585B" d="M49,123.3c-0.5,0-1,0-1.2,0.1C48,123.6,49.1,123.9,49,123.3z"/>
		<path fill="#58585B" d="M125.9,122.3c-0.1,0-0.1,0.1-0.2,0.1L125.9,122.3z"/>
		<path fill="#58585B" d="M130,122c0-0.1-0.1-0.2-0.2-0.2C129.8,122,129.9,122.1,130,122z"/>
		<path fill="#58585B" d="M87.3,122.6L87.3,122.6L87.3,122.6z"/>
		<path fill="#58585B" d="M110.8,122.9c0.4-0.3,0.5-0.5,0.5-0.8C111.1,122.2,110.9,122.4,110.8,122.9z"/>
		<path fill="#58585B" d="M102.9,122.5c-0.1,0-0.1,0.1-0.1,0.1C102.8,122.6,102.9,122.6,102.9,122.5z"/>
		<path fill="#58585B" d="M86,123.1c0.3-0.3,0.8-0.3,1.2-0.5C86.9,122.8,86.3,122.5,86,123.1z"/>
		<polygon fill="#58585B" points="135.1,121 134.7,121.5 135.1,121.1 		"/>
		<path fill="#58585B" d="M131.2,121.3c-0.2-0.1-0.9,0.2-0.7,0.4C130.8,121.5,131,121.4,131.2,121.3z"/>
		<polygon fill="#58585B" points="116.4,120.9 116.2,121.4 116.6,121 		"/>
	</g>
	<g id="Line_4_Group">
		<path fill="#58585B" d="M181.1,104.7c0.2,0,0.2-0.4,0.2-0.5C180.9,104.4,181.2,104.8,181.1,104.7z"/>
		<polygon fill="#58585B" points="177.2,105.7 177.3,105.5 176.7,106 		"/>
		<path fill="#58585B" d="M173.5,105.7c0.3,0.7,1.3-0.1,2,0.1l0.1,0.2l0.3-0.6C175.1,105.5,174.1,105.9,173.5,105.7z"/>
		<path fill="#58585B" d="M171.6,104.1c0.1,0.3-0.4,0.2,0.5,0.1c0,0-0.1,0-0.1-0.1C171.8,104.1,171.7,104.1,171.6,104.1z"/>
		<path fill="#58585B" d="M171.9,104.1C172.3,104.1,171.7,103.9,171.9,104.1L171.9,104.1z"/>
		<path fill="#58585B" d="M170.1,104.3l0.5-0.3c-0.1-0.2-0.6-0.2-0.4-0.3C169.7,103.9,169.8,104,170.1,104.3z"/>
		<path fill="#58585B" d="M169.7,104.8l0.3-0.1C169.9,104.7,169.8,104.6,169.7,104.8z"/>
		<path fill="#58585B" d="M170.5,104.5l-0.6,0.2c0.1,0.1,0.1,0.4,0.3-0.1C170.1,104.9,170.2,104.7,170.5,104.5z"/>
		<path fill="#58585B" d="M170.8,104.6c0.3,0.2,0.7,0.3,0.1,0.5C171.9,105,171.8,104.5,170.8,104.6z"/>
		<path fill="#58585B" d="M173.3,106.5l0.4,0.2l0.3-0.2C173.9,106.5,173.3,106.2,173.3,106.5z"/>
		<path fill="#58585B" d="M166.9,103.9c0,0.2,0.2,0.4,0.2,0.6l0.4-0.2C167.3,104.2,167,104.2,166.9,103.9z"/>
		<path fill="#58585B" d="M167.2,104.5l-0.6,0.3C167.1,104.8,167.2,104.7,167.2,104.5z"/>
		<polygon fill="#58585B" points="169.6,105.6 170.5,105.1 169.4,105.6 		"/>
		<polygon fill="#58585B" points="164.8,103.9 165.1,103.5 164.5,104.1 		"/>
		<path fill="#58585B" d="M163.4,104c0.2-0.3-0.3-0.5-0.1-0.7c-0.4,0.1-0.7,0.3-1,0.5C162.6,103.7,162.9,103.7,163.4,104z"/>
		<path fill="#58585B" d="M161.8,104.2c0.2-0.1,0.3-0.2,0.5-0.3C162.1,103.9,161.9,104,161.8,104.2z"/>
		<path fill="#58585B" d="M165.6,104.7c0-0.1-0.1-0.3-0.4-0.4l0.2,0.4L165.6,104.7z"/>
		<polygon fill="#58585B" points="165.4,104.7 165.4,104.7 164.9,104.7 		"/>
		<path fill="#58585B" d="M165.7,104.7L165.7,104.7C165.7,104.8,165.7,104.8,165.7,104.7z"/>
		<path fill="#58585B" d="M168.1,105.2c-0.3,0.2-1,0.5-0.4,0.9C168,105.8,167.6,105.6,168.1,105.2z"/>
		<path fill="#58585B" d="M166,105.3l0.6,0.1c0-0.1-0.1-0.3,0-0.4L166,105.3z"/>
		<polygon fill="#58585B" points="165.7,105.4 166,105.3 165.7,105.2 		"/>
		<path fill="#58585B" d="M162.8,104.6c-0.3,0.2-0.5,0.2-0.9,0.2c0.3,0.1,0.7,0.1,1,0.1C163,104.8,163.2,104.5,162.8,104.6z"/>
		<path fill="#58585B" d="M164.1,104.7L164.1,104.7C164,104.7,164.1,104.8,164.1,104.7z"/>
		<polygon fill="#58585B" points="158.8,104.8 158.8,104.9 158.8,104.8 		"/>
		<path fill="#58585B" d="M163,105c0.3,0.1,0.4,0,0.6-0.2C163.4,104.9,163.2,104.9,163,105C162.9,105,162.9,105,163,105z"/>
		<path fill="#58585B" d="M160.9,104.4c0.1,0.1,0.3,0.2,0.4,0.2C161.2,104.5,160.9,104.2,160.9,104.4z"/>
		<path fill="#58585B" d="M163.9,104.6C163.9,104.6,163.9,104.6,163.9,104.6C163.9,104.5,163.9,104.5,163.9,104.6z"/>
		<path fill="#58585B" d="M163.9,104.6c-0.1,0.1-0.2,0.2-0.3,0.3c0.2,0,0.3-0.1,0.4-0.1C164,104.7,163.9,104.6,163.9,104.6z"/>
		<path fill="#58585B" d="M157.8,107.6c0-0.4,0.7-0.8,1.3-0.3c0.6-0.3,0.2-1.6-0.3-2.4c0,0.2,0,0.3-0.6,0.6c0.2,0.2,1.3,0.5,0.8,0.9
			c-0.8,0.2-0.6-0.1-1-0.4c0.3,0.5-1,0.7-0.8,1.5l0.7-0.3C157.9,107.3,157.6,107.5,157.8,107.6z"/>
		<path fill="#58585B" d="M160,104.9l0.2-0.1c-0.3-0.1-0.5-0.2-0.8-0.5c-0.4,0.2-0.5,0.3-0.5,0.5L160,104.9L160,104.9z"/>
		<path fill="#58585B" d="M161.3,104.9c-0.2,0.4-0.8,0.6-0.4,1.1c0.7,0,0.5-0.4,0.9-0.6C160.7,105.5,162.1,105.2,161.3,104.9
			c0.2,0,0.4,0,0.6-0.1c-0.2-0.1-0.4-0.1-0.6-0.2l0,0l0,0l0,0c0,0.1,0.1,0.1,0,0.1c0,0,0,0,0,0C161.3,104.8,161.3,104.8,161.3,104.9
			c-0.3-0.1-0.1-0.1,0.1-0.2c0,0,0,0,0-0.1l0,0l-1.2,0.2C160.4,104.9,160.8,104.9,161.3,104.9z"/>
		<path fill="#58585B" d="M167.1,107.1c0,0,0-0.1,0-0.1C167,107,167,107.1,167.1,107.1z"/>
		<path fill="#58585B" d="M166.6,106.8c0.1-0.1,0.2-0.2,0.4-0.2c0.2,0.1,0,0.2,0,0.4c0.2-0.1,0.6-0.3,0.1-0.5l-0.1,0.1
			c-0.5-0.2-1.1-0.7-1-0.8C166.2,106.1,166.3,106.4,166.6,106.8z"/>
		<path fill="#58585B" d="M163.9,105.9l-1,0.2l0.5,0.4l0-0.2C164,106.4,163.9,106.1,163.9,105.9z"/>
		<polygon fill="#58585B" points="158.7,104.6 158.8,104.1 158.2,104.8 		"/>
		<polygon fill="#58585B" points="157.4,104.6 157.5,104.2 157.1,104.5 		"/>
		<path fill="#58585B" d="M86.7,109.6l-0.3,0.1C86.5,109.7,86.6,109.7,86.7,109.6z"/>
		<path fill="#58585B" d="M88.7,109.7l0-0.2C88.7,109.6,88.7,109.7,88.7,109.7z"/>
		<path fill="#58585B" d="M126.6,104.7c-0.4-0.4-0.9-1-0.8-0.5l0.1,0.4C126.2,104.5,126.4,104.6,126.6,104.7z"/>
		<polygon fill="#58585B" points="105.6,107.3 105.7,107.5 106,107 		"/>
		<path fill="#58585B" d="M105.3,109.2l-0.5-0.3C104.8,109,105,109.1,105.3,109.2z"/>
		<path fill="#58585B" d="M75.5,110.1l-0.3,0.5C75.7,110.6,75.4,110.3,75.5,110.1z"/>
		<path fill="#58585B" d="M144.6,104.8c-0.4-0.2-0.6-0.2-0.9-0.3C144.1,104.8,144.5,105.2,144.6,104.8z"/>
		<path fill="#58585B" d="M87.5,104.9c-0.2,0.1-0.2,0.2-0.2,0.3C87.4,105.1,87.5,105.1,87.5,104.9z"/>
		<path fill="#58585B" d="M142.7,104.5c0.1,0,0.1,0.1,0.2,0.1c0.3-0.1,0.5-0.1,0.8-0.1C143.4,104.3,143,104.2,142.7,104.5z"/>
		<path fill="#58585B" d="M34.9,109.8C34.8,109.7,34.8,109.7,34.9,109.8C34.8,109.8,34.8,109.8,34.9,109.8z"/>
		<path fill="#58585B" d="M23,105.3c0.1,0,0.3,0,0.5,0C23.4,105.2,23.3,105.2,23,105.3z"/>
		<path fill="#58585B" d="M152.4,104.4C152.6,104.4,152.4,104.4,152.4,104.4L152.4,104.4z"/>
		<path fill="#58585B" d="M153.7,106.2c-0.1,0.1-0.1,0.1-0.1,0.2C153.6,106.3,153.6,106.2,153.7,106.2z"/>
		<path fill="#58585B" d="M140,107.3L140,107.3C140.1,107.4,140.1,107.4,140,107.3z"/>
		<path fill="#58585B" d="M152.8,104.6c-0.1-0.1-0.2-0.1-0.3-0.1C152.5,104.5,152.6,104.6,152.8,104.6z"/>
		<path fill="#58585B" d="M152.7,104.4l0.2,0C153,104.4,152.9,104.4,152.7,104.4z"/>
		<path fill="#58585B" d="M152,104.5c0.2,0,0.3,0,0.4,0c-0.1,0-0.1-0.1-0.1-0.1L152,104.5z"/>
		<path fill="#58585B" d="M56.6,108.6C56.6,108.6,56.6,108.5,56.6,108.6C56.3,108.7,56.4,108.7,56.6,108.6z"/>
		<path fill="#58585B" d="M119.7,109.3C119.7,109.3,119.7,109.3,119.7,109.3L119.7,109.3L119.7,109.3z"/>
		<path fill="#58585B" d="M118.8,109.6c0.4-0.6,0.6-0.5,0.9-0.4l-0.3-1.3L118.8,109.6z"/>
		<path fill="#58585B" d="M81.8,109.8l0.7,0.4c-0.8,0.7-1.4,0.4-0.8,1c0.1-1.4,2.6-0.1,2.7-1.5l0.4,0.3c-0.1,0-0.1,0.1-0.3,0.1
			c0.9,0.7,0.6-1,1.7-0.8c0.4,0.1,0.7,0.3,0.4,0.5l0.9-0.3c0.2,0,0.2,0.3-0.1,0.2l1.3-0.1l0,0c0.2-0.2,0.6-0.6,0.8-0.7
			c0.3,0.2-0.2,0.1-0.1,0.3l0.7-0.3c0.3,0.4-0.3,0.7-0.8,0.7c0.7,1.4,0.6-0.4,2.1,0.5l-0.7,0.2c0.4,0.8,1,0.5,1.8,1
			c-0.2-0.3-1.6-1.2-0.8-1.6c0.2,0.1,0.5,0.2,0.9-0.1c0,0.5,0.4,0.4,0.9,0.3l0,0.7c0.6-0.2,0.5-0.5,0.8-0.8c0.6,0.1,0.8,0.6,0.9,1
			c1,0.1-0.7-0.8,0.5-0.9c0.8,0.3,1.4,0,2.4-0.4c0.6,0.2-0.1,0.4,0.1,0.6l0.5-0.5c0.1,0,0.1,0.2,0.1,0.3c0.4-0.2,0-0.7,0.7-0.8
			c0.2-0.7,1.4,1.1,2.3,0.2c0.2,0.2-0.1,0.4,0,0.7c1.2-0.5,1-0.4,2-1.1l0.8,0.4c-0.6-0.5,0.2-1.1,0.8-1.5c-0.2-0.2-0.4-0.4-0.5-0.5
			l1.1-0.4c0.1,0.1,0,0.3-0.2,0.6c0.1-0.1,0.1-0.1,0.2-0.2c0.4,0.2,0.2,0.6-0.1,1l-0.4-0.4c-0.3,0.4-0.5,0.8-0.5,1.2
			c0.1-0.1,0.2-0.1,0.3-0.2c-0.1,0.1-0.1,0.2-0.1,0.3c0,0.1,0.1-0.1,0.3-0.2l0.2,0.7l0.1-0.3l1.4,0.5c1-0.7,1.9-1.8,3.5-2.1
			c-0.4,0.5-0.1,0.9-0.1,1.5c-0.4-0.7-1.2,0.3-2.1,0.1c0.4,0.1,0.3,0.4,0.2,0.5l1.5-0.6c0,0.5,0.3,0.4,0.7,0.6c-0.3-1,1.1-0.7,1.7-1
			c0,0.3-0.1,0.7-0.8,0.6c0.8,0.8,1-1.2,1.8-0.5c-0.2,0-0.3,0-0.3,0.1c0.4-0.3,1.4-0.1,1.2,0.2l-0.2,0c1.2,0.1,3.6,0,3.8-0.9
			c0,0.1-0.2,1-0.2,1.2l2.1-2.9c-0.2,0.7,0.5,2.5-0.5,2.9c0.3,0.1,0.6,0.2,1.2,0c-0.2-0.1-0.5-1.1-0.2-1.1c0.7,0.8,0.5,0.4,1.4,1.2
			c-0.3-0.2,0-1.3,0.5-1.3c-0.1,0.2,0,1.2-0.1,1.3l1.1-1.1c-0.3,0.2,0,1,0.2,1.3c-0.1-0.2,1,0,1.3-0.1l-0.5-0.3
			c1.3,0.2,1.3-1.6,2.5-1.6c-0.2,0.2-0.4,1.5,0.3,1.6c0.3-0.6,1.3-2.8,2.4-3.3l0.2,0.3l0.9-0.4c-0.5,0.9-2,2.8-2.9,3.5
			c0.5,0.3,0.1,0.4,0.8,0.4c0.3,0.3-0.4,0.5-0.6,0.5l1.7,0.2c-0.1-0.7,1.3-0.7,1.2-1.3l-1.8,0.7c-0.1-0.7,1-2,2.2-1.8
			c0.3,0.3-0.2,1.2-0.2,1.5c0.2-0.2,1.1-0.5,1.2-0.3l-0.5,0.4c0.7,0.3,1.1-0.9,1.9-0.3c0.3,0,0.8,0.9,0.9,0.5
			c-0.4-0.8-0.5-3.2-0.2-3.8c0.1,0.1,1.4,0.8,1.7,1.1c0.4,0.6-0.7,1.5-0.3,2c0-0.2,0.3-0.4,0.4-0.5c0.3,0.2-0.1,0.6,0.5,0.5
			c0.1-0.7,1.3,0.1,0.3-0.6c0.6-0.2,0.6,0.1,1.4,0.1c-0.2-0.5,0.6-1.5,1.2-1.7c0,0.2,0.1,0.4,0.2,0.5c1.2,0.1,1.9,0.4,3.1,0.4
			c0.1,0.2,0.7,0.4,0.4,0.7c0.2-0.1,0.3-0.4,0.7-0.4c0.7,0.6-0.8,0.1-0.3,0.8c0-0.4,0.9-0.6,1.4-0.8c-0.2-0.6-1.2-0.1-1.7,0.1
			c0-0.9,0.9-1.8,2.1-2.2c1-0.2,0.4,0.6,0.6,0.4c1.8,0.2,1.5-1.5,3.1-0.9c0.6,0.5,0,1.1,0.2,1.5c-0.8,0.2-1.2-0.3-1.7-0.3l0.7,0.3
			c-0.2,0.2-0.8,0.3-1.1,0.2c0.5,0.5,3.1,0.1,4.5,0.6c0.2-0.2,0.7-0.4,0.5-0.6l-0.4,0.1c-0.4-0.4,0.8-0.6,0.3-0.8
			c0.6-0.3,1.3-0.8,2.1-0.6l0.2,0.6c0-0.2-0.5-0.4-0.8-0.2c0.3-0.3,1.3,0.8,1.7,0l-0.6-0.4c0.6-0.3,1.3-1,2.1-0.8
			c-0.3-0.6-0.2,0.1-0.7-0.7c0.5,0.9-1.9,0-1.2,0.9c-0.5-0.8-0.9-0.4-1.6-1.1c0,0.2,0.2,0.4-0.4,0.3c0,0.1-0.1,0.1-0.1,0.2l0,0l0,0
			c0,0,0,0,0,0c0.1,0.1,0.3,0.2,0.3,0.3c-0.3,0.5-1.3,0.5-1.6,0.7c-0.4-0.1,0.2-0.2,0-0.5l-0.5,0.4c0-0.5-1-0.8-0.1-1l-0.8,0
			c-0.5-0.3-1.1-0.4-1.5-0.2c-0.4-0.1-0.9,0.5-0.6,0.1l-1.2,0.3l0-0.1c-1.2-0.1-2.5,0.8-3.9-0.1c-0.4,0.1-0.8,0.3-1.5,0.1l-0.1-0.4
			c-0.5,0.1-1.6-0.4-1.8,0c-0.6-1.1-2.5-0.2-3.5-0.4l0,0.5c-0.6,0-1.2,0.1-2,0.3l0,0.5c-0.7,0.4-1.7-0.3-2.8-0.3
			c0.1-0.2,0.3-0.1,0.5,0c-1.3-1-2.7,0.8-3.9,0c-0.3,0.2-0.5,0.1-0.7,0c0,0,0.1,0,0.1,0c0,0-0.1,0-0.1,0c-0.1-0.1-0.3-0.2-0.4-0.2
			c0.1,0.1,0.2,0.2,0.3,0.2c-0.2,0-0.6,0.1-0.9,0.2l-0.1-0.5l-0.1,0c-0.3-0.2-0.3,0.2-0.1,0.6c-0.2,0.1-0.3,0.2-0.4,0.3
			c-0.3-0.8-0.9,0.3-1.2-0.6c-0.2,0.4-1.7,0.3-1.8,1.2c0-0.1-0.1-0.2,0.1-0.2c-0.4-0.1-0.7-0.2-1.1,0l-0.2-0.6l-0.8,0.8
			c-0.5-0.4-0.7-0.6-0.2-1.1c-1.2,0.7-1,0.3-2,1l0-0.4c-0.4,0-0.9,0.6-1.1,0.2c-0.8-0.8-4-0.1-6-0.8c0.4,1.2-1-0.5-1,0.4
			c-0.1-0.3-0.4-0.4-0.1-0.7c-1,0.3-1.6-0.4-2.3,0.3c-0.1-0.3,0.2-0.4,0.1-0.6c-0.1,0.1-0.3,0.2-0.4,0.1c-0.1-0.2,0.2-0.2,0.3-0.4
			c-1.1,0-1.2,0.9-1.3,1.7c-0.5-0.4-0.8-0.3-1.2,0.2c-0.2-0.3-0.5-0.5,0.2-0.6c-0.4,0-2.3-0.4-2.3,0.3c-0.1-0.2-0.5,0-0.6,0
			c-0.8,0-0.9-0.1-1.7,0l0.2,0.1c-0.3,0.8-0.7,0.2-1.4,0.3l0-0.1c-1.5-0.6-0.7,0.3-2.2-0.4l0.1,0.5c-0.1,1.1-1.3-0.6-2.2-0.2
			l0.3,0.3c-0.5,0.4-1.3-1.4-1.8-1.6c-0.1-0.1,0.2-0.1,0.3-0.2c-1.3-0.6-0.2,0.6-1.1,0.8c-0.2-0.3,0.2-0.9-0.4-0.9
			c-0.3-0.3-1.8,1.1-2.7,0.5c0.2,0.3,0.4,0.5-0.1,0.7c-0.7,0.1-1.8-1-2.4-0.2c-0.1-0.1-0.1-0.1-0.1-0.2c-0.5,0.2-1.7,0.4-2,0.8
			c-0.5-1.7-3.2,0.8-3.2-0.7l-1.6,0.1l0-0.2c-1-0.1-1.4,0.3-1.7,0.6c-0.2-0.1-0.1-0.3,0-0.3c-1.5-0.3-1.6-0.2-2.8,0.5l-0.1-0.5
			c-0.3,0.3-2.1-0.8-3.5-0.2c0-0.1,0-0.2,0.2-0.2c-1.6,0.6-3.9-1.4-4.5,0.4L67,106c1.4,0.1-0.2,0.8,0.4,1.1
			c-0.5,0.1-1.4-0.6-0.7-0.7l0.1,0.1c0.2-1-1.7-0.3-1.7-1c-2.7,0-5.3-0.5-7.9-0.5l0.3,0.7l-0.9,0c-0.2-0.2-0.3-0.6,0.3-0.6
			c-0.3-0.4-1.1,0.4-1.1,0.5c-1.2-0.3,0.5-0.9,0.1-0.9l-0.5,0.1l0.1,0.1c-0.4,0.3-0.5,0.6-1.2,0.6c-0.5-0.2-0.2-0.5-0.4-0.5
			c0-0.1-0.1-0.1-0.3,0l-1.1-0.1l0.4,0.6c-0.5,0.3-1,0-0.5,0.6c-0.8-1-4.2-0.4-4.6-0.7c-0.7,0.4-1.4,0.4-2.2,0.4
			c0.2,0.1,0.3,0.8-0.4,0.7c0.3-1.4-1.3-0.6-1.9-1.6c0.5,0.7-2.1,0.2-1.2,1.1c-0.6-0.1,0-0.5-0.5-0.8c-1.5,0.5-3.2-0.3-5-0.2
			c0,0.2,0.3,0.5-0.1,0.7l-0.9-0.9c-0.4,0.1-0.3,1-1,0.4c0.1,0.2,0.2,0.4,0,0.4c-3.5-0.9-7.2,0.7-10.7-0.9c0.5,0.3,0.2,0.4-0.2,0.4
			c0.2,0.1,0,0.4,0,0.7l-1.5-0.7c-0.3,0.7-1.6,0-1.8,0.7l0.5-0.1c-0.6,0.8,0.9,1.7,0.8,2.7c0.7-0.9,1.9,1.3,3,0
			c0.3,0.2-0.2,0.3-0.1,0.5c0.3-0.4,0.6-0.5,1.3-0.3l-0.1,0.1c1.8-0.1,2.6,0.3,4.7,0.6l-0.2-0.5c0.4,0.1,0.5,0.2,0.7,0.3
			c0.5-0.7-1.2,0-0.8-0.8c0.6,1,3.1,0,3.5,1.1c0.7,0-0.2-0.6,0.5-0.6l0.2,0.3l0.2-0.4c0.4,0.1,0.7,0.4,0.7,0.7
			c-0.1,0-0.3,0.1-0.4,0.1c0.6,0.4,1.6-0.1,1.8,0l-0.7-0.2c1.9-0.3,4.1,0.1,5.9-0.5l-0.1-0.2c1.4-0.4,1.1,0.3,2.6,0.1l-0.1,0.1
			c0.3-0.2,0.7-0.3,1.1-0.3c-0.4,0.3,0.7,0.5,0.2,0.8c1.5-0.5,0.7-0.4,1.7-1.2l0.2,0.4c0.3-0.3,0.4-0.5,1.1-0.6
			c-0.6,0.3,0.5,0.6-0.2,1c1.6,0.8,2.4-0.8,3.1,0.4c0.7-1-1.4-0.6-1-0.8c-0.3-0.3,0.6-0.8,1.1-0.7c0.5,0,0.9,1.3,2.1,1.3
			c-0.1,0-0.1,0.1-0.3,0.1c0.5,0.3,0.9-0.4,1.5,0.1c0.3-0.6,0.8,0,0.9-0.8l-1.2,0.2c0.7-0.2,1.3-1.2,2.4-0.7
			c-0.1,0.2-0.4,0.4-0.6,0.5c0.3,0.2,0.6-0.2,0.9,0.1c-0.1,0.8-1.4,0.2-2.1,0.8c0.3,0.3,1.3-0.6,1,0.3c0.5-1.1,1.3,0.1,2.1-0.7
			l-0.1,0.5c0.1-0.1,0.4-0.3,0.7-0.3l-0.5,0.6c0.7-0.5,1.3,0.5,2,0.2c-1.4,0-0.3-0.6-0.9-0.9c1.7-0.6,1,1.3,2.9,1
			c-0.3,0.1-1-0.3-0.6-0.5c0.4,0.1,0.9,0.3,1.1,0.5c1.3-0.1-0.2-0.5,0.3-0.8c0.4,0.6,0.6-0.2,1.2-0.4l0,0.5c1.5,0.3,0.4-1,1.7-0.6
			l-0.6,0.7l0.7-0.2l-0.1,0.6c0.7-0.4,1-0.3,1.7-0.2c-0.2-0.3,0.1-0.9,0.7-0.9c0.4,0.3-0.2,0.5,0.7,0.4c-0.2,0.3-0.4,0.7-0.8,0.2
			c0,0.2-0.2,0.3-0.2,0.5c0.5,0.3,1.2,0.1,1.5,0.1c-0.1,0-0.3,0-0.4-0.1l1.3-0.7c0.2,0.2,0,0.3-0.1,0.5c0.3-0.1,0.5-0.3,0.9-0.3
			c-0.1,0.4-0.1,0.8-0.6,1l1.3-0.4c0.1,0.2,0.6,0.5,0.5,0.6c0.7,0.2,1.7-0.8,2.7-0.5c0-0.1,0.1-0.2,0.3-0.2c0.9,0.1,1.7,0.6,2.7,0
			l0.6,0.7c0.8-0.2-0.8-0.9,0.6-1.2c1-0.2,0.4,0.6,0.7,0.8c0.5-0.4,1.3-1.1,2.2-0.5C82.3,109.8,82.1,109.7,81.8,109.8z M91.8,109.5
			c-0.2,0.1-0.6,0.4-0.7,0.1C91.3,109,91.5,109.3,91.8,109.5z M107,108.3c-0.1,0.2-0.4,0.1-0.6-0.1
			C106.6,108.1,106.8,108.1,107,108.3z M149.5,104.8C149.4,104.8,149.4,104.9,149.5,104.8C149,104.7,149.2,104.7,149.5,104.8z
			 M150.4,105.1c0.1-0.1,0.1-0.1,0-0.2c-0.1,0.1-0.3,0.1-0.5,0.1C150,105.1,150.1,105.2,150.4,105.1z M53.8,105.2l0.2,0.1
			C53.6,105.5,53.7,105.4,53.8,105.2z"/>
		<path fill="#58585B" d="M105.3,108.9c-0.1-0.1-0.1-0.2-0.1-0.3C105.1,108.8,105.1,108.9,105.3,108.9z"/>
		<path fill="#58585B" d="M75.5,110L75.5,110C75.5,110.1,75.5,110.1,75.5,110L75.5,110z"/>
		<path fill="#58585B" d="M136.4,109.2c-0.2-0.1-0.3-0.2-0.4-0.3C136.1,109.1,136.1,109.2,136.4,109.2z"/>
		<path fill="#58585B" d="M155.1,104.2l-0.6,0.1c0.3,0,0.4,0.1,0.5,0.2C155,104.4,154.9,104.2,155.1,104.2z"/>
		<path fill="#58585B" d="M160.1,107.3c0.1-0.1,0.2,0,0.3-0.1l0-0.2C160,107,159.7,107.2,160.1,107.3z"/>
		<path fill="#58585B" d="M155.7,105.9c0,0.4,0.4,0.3,0.8,0.2c0,0,0,0-0.1,0C156.5,105.5,156.1,105.7,155.7,105.9z"/>
		<path fill="#58585B" d="M156.6,106c0.1,0,0.3,0,0.4,0C157,105.8,156.8,106,156.6,106z"/>
		<path fill="#58585B" d="M151.5,104.8c0.2,0.1,0.1-0.5,0.2-0.4C151.9,103.9,150.4,105.1,151.5,104.8z"/>
		<polygon fill="#58585B" points="156,107.2 155.8,106.7 155.6,107.1 		"/>
		<path fill="#58585B" d="M152.8,106.8l0.6,0.1c0-0.1,0.1-0.1,0.2-0.2C153.2,106.8,152.8,106.7,152.8,106.8z"/>
		<path fill="#58585B" d="M153.6,106.8c0.2,0,0.4,0,0.5-0.1C154,106.7,153.8,106.7,153.6,106.8z"/>
		<polygon fill="#58585B" points="155.1,107.4 154.9,107.3 154.5,107.2 		"/>
		<path fill="#58585B" d="M145.9,106.7l-0.7,0.1c-0.1,0.2,0.1,0.3,0.4,0.2C145.7,107,146,106.9,145.9,106.7z"/>
		<path fill="#58585B" d="M148,108.1c-0.2-0.1-0.2-0.2-0.3-0.4l0,0.6L148,108.1z"/>
		<path fill="#58585B" d="M145.9,108.3c-0.1,0.2-1,0.5-0.1,0.5C145.9,108.6,146.6,108.4,145.9,108.3z"/>
		<polygon fill="#58585B" points="135.3,107.5 135.5,107.5 135.5,106.4 		"/>
		<path fill="#58585B" d="M126,110c0.8,0.2,0.2-0.6,1-0.3c0.2-0.2-0.6-0.3-0.4-0.5C126,109.4,125.8,109.3,126,110z"/>
		<path fill="#58585B" d="M126.5,109.2c0.1,0,0.2-0.1,0.3-0.2C126.6,109.1,126.6,109.1,126.5,109.2z"/>
		<polygon fill="#58585B" points="21.1,104.7 20.5,104.5 20.9,104.9 		"/>
		<path fill="#58585B" d="M20,105.5l-0.1-0.7l-0.3,0.6C19.7,105.4,19.9,105.3,20,105.5z"/>
		<path fill="#58585B" d="M93.3,110.8l0-0.2c-0.1-0.2-0.2-0.2-0.5-0.2L93.3,110.8z"/>
		<polygon fill="#58585B" points="86,110.3 86.1,110.3 85.9,109.7 		"/>
		<path fill="#58585B" d="M79.9,111.1c0.2,0,0.5-0.1,0.8-0.1C80.2,111.1,79.8,110.3,79.9,111.1z"/>
	</g>
	<g id="Line_3_Group">
		<path fill="#58585B" d="M162.5,91.6c0.1,0,0.1-0.4,0.1-0.5C162.4,91.2,162.5,91.7,162.5,91.6z"/>
		<polygon fill="#58585B" points="160.4,92.5 160.4,92.4 160.1,92.8 		"/>
		<path fill="#58585B" d="M158.3,92.5c0.2,0.7,0.7-0.1,1.1,0.1l0.1,0.2l0.2-0.6C159.2,92.3,158.6,92.7,158.3,92.5z"/>
		<path fill="#58585B" d="M157.2,91c0.1,0.3-0.2,0.2,0.3,0.1c0,0,0,0,0-0.1C157.4,91,157.3,91,157.2,91z"/>
		<path fill="#58585B" d="M157.4,91C157.7,90.9,157.3,90.7,157.4,91L157.4,91z"/>
		<path fill="#58585B" d="M156.5,91.1l0.3-0.3c-0.1-0.2-0.3-0.2-0.2-0.3C156.2,90.7,156.3,90.9,156.5,91.1z"/>
		<path fill="#58585B" d="M156.2,91.7l0.1-0.1C156.3,91.5,156.3,91.5,156.2,91.7z"/>
		<path fill="#58585B" d="M156.6,91.3l-0.3,0.2c0,0.1,0,0.4,0.1-0.1C156.5,91.7,156.5,91.5,156.6,91.3z"/>
		<path fill="#58585B" d="M156.8,91.4c0.2,0.2,0.4,0.3,0.1,0.5C157.4,91.9,157.4,91.3,156.8,91.4z"/>
		<path fill="#58585B" d="M158.2,93.3l0.2,0.2l0.2-0.2C158.5,93.4,158.2,93.1,158.2,93.3z"/>
		<path fill="#58585B" d="M154.7,90.8c0,0.2,0.1,0.4,0.1,0.6l0.2-0.2C154.9,91.1,154.7,91,154.7,90.8z"/>
		<path fill="#58585B" d="M154.8,91.4l-0.3,0.3C154.8,91.7,154.8,91.5,154.8,91.4z"/>
		<polygon fill="#58585B" points="156.1,92.5 156.7,91.9 156,92.5 		"/>
		<polygon fill="#58585B" points="153.5,90.7 153.7,90.4 153.4,90.9 		"/>
		<path fill="#58585B" d="M152.7,90.8c0.1-0.3-0.2-0.5,0-0.7c-0.2,0.1-0.4,0.3-0.6,0.5C152.3,90.5,152.5,90.6,152.7,90.8z"/>
		<path fill="#58585B" d="M151.8,91c0.1-0.1,0.2-0.2,0.3-0.3C152,90.7,151.9,90.8,151.8,91z"/>
		<path fill="#58585B" d="M154,91.6c0-0.1-0.1-0.3-0.2-0.4l0.1,0.4L154,91.6z"/>
		<polygon fill="#58585B" points="153.9,91.6 153.9,91.6 153.6,91.5 		"/>
		<path fill="#58585B" d="M154,91.6L154,91.6C154,91.6,154,91.6,154,91.6z"/>
		<path fill="#58585B" d="M155.3,92.1c-0.2,0.2-0.6,0.5-0.2,0.9C155.3,92.7,155,92.4,155.3,92.1z"/>
		<path fill="#58585B" d="M154.2,92.1l0.3,0.1c0-0.1-0.1-0.3,0-0.4L154.2,92.1z"/>
		<polygon fill="#58585B" points="154,92.2 154.2,92.1 154,92.1 		"/>
		<path fill="#58585B" d="M152.4,91.4c-0.1,0.2-0.3,0.2-0.5,0.2c0.2,0.1,0.4,0.1,0.6,0.1C152.5,91.6,152.6,91.4,152.4,91.4z"/>
		<path fill="#58585B" d="M153.1,91.5L153.1,91.5C153.1,91.6,153.1,91.6,153.1,91.5z"/>
		<polygon fill="#58585B" points="150.2,91.6 150.2,91.7 150.2,91.6 		"/>
		<path fill="#58585B" d="M152.5,91.8c0.1,0.1,0.2,0,0.3-0.2C152.7,91.7,152.6,91.8,152.5,91.8C152.5,91.8,152.5,91.9,152.5,91.8z"
			/>
		<path fill="#58585B" d="M151.4,91.2c0.1,0.1,0.2,0.2,0.2,0.2C151.5,91.3,151.4,91.1,151.4,91.2z"/>
		<path fill="#58585B" d="M153,91.4C153,91.4,153,91.4,153,91.4C153,91.3,153,91.4,153,91.4z"/>
		<path fill="#58585B" d="M153,91.4c-0.1,0.1-0.1,0.2-0.2,0.3c0.1,0,0.2-0.1,0.2-0.1C153.1,91.5,153,91.5,153,91.4z"/>
		<path fill="#58585B" d="M149.7,94.4c0-0.4,0.4-0.8,0.7-0.3c0.3-0.3,0.1-1.6-0.2-2.4c0,0.2,0,0.3-0.3,0.6c0.1,0.2,0.7,0.5,0.5,0.9
			c-0.4,0.2-0.4-0.1-0.6-0.4c0.2,0.5-0.6,0.7-0.5,1.5l0.4-0.3C149.7,94.1,149.6,94.3,149.7,94.4z"/>
		<path fill="#58585B" d="M150.8,91.7l0.1-0.1c-0.2-0.1-0.3-0.2-0.5-0.5c-0.2,0.2-0.3,0.3-0.3,0.5L150.8,91.7L150.8,91.7z"/>
		<path fill="#58585B" d="M151.6,91.7c-0.1,0.4-0.4,0.6-0.2,1.1c0.4,0,0.3-0.4,0.5-0.6C151.2,92.4,152.1,92,151.6,91.7
			c0.1,0,0.2,0,0.3-0.1c-0.1-0.1-0.2-0.1-0.3-0.2l0,0l0,0v0c0,0.1,0,0.1,0,0.1c0,0,0,0,0,0C151.6,91.6,151.6,91.6,151.6,91.7
			c-0.2-0.1,0-0.1,0-0.2l0-0.1l0,0l-0.6,0.2C151.1,91.8,151.3,91.7,151.6,91.7z"/>
		<path fill="#58585B" d="M154.8,93.9c0,0,0-0.1,0-0.1C154.7,93.9,154.7,93.9,154.8,93.9z"/>
		<path fill="#58585B" d="M154.5,93.6c0-0.1,0.1-0.2,0.2-0.2c0.1,0.1,0,0.2,0,0.4c0.1-0.1,0.3-0.3,0-0.5l0,0.1
			c-0.3-0.2-0.6-0.7-0.5-0.8C154.3,93,154.4,93.3,154.5,93.6z"/>
		<path fill="#58585B" d="M153,92.8l-0.5,0.2l0.3,0.4l0-0.2C153.1,93.2,153,93,153,92.8z"/>
		<polygon fill="#58585B" points="150.1,91.4 150.2,90.9 149.9,91.6 		"/>
		<polygon fill="#58585B" points="149.4,91.5 149.5,91.1 149.3,91.3 		"/>
		<path fill="#58585B" d="M110.5,96.5l-0.2,0.1C110.4,96.6,110.4,96.5,110.5,96.5z"/>
		<path fill="#58585B" d="M111.6,96.5l0-0.2C111.6,96.4,111.6,96.5,111.6,96.5z"/>
		<path fill="#58585B" d="M132.5,91.5c-0.2-0.4-0.5-1-0.5-0.5l0.1,0.4C132.3,91.4,132.4,91.4,132.5,91.5z"/>
		<polygon fill="#58585B" points="120.9,94.2 120.9,94.3 121.1,93.9 		"/>
		<path fill="#58585B" d="M120.7,96l-0.3-0.3C120.5,95.8,120.6,95.9,120.7,96z"/>
		<path fill="#58585B" d="M104.3,97l-0.2,0.5C104.4,97.4,104.3,97.2,104.3,97z"/>
		<path fill="#58585B" d="M142.4,91.6c-0.2-0.2-0.4-0.2-0.5-0.3C142.1,91.6,142.3,92,142.4,91.6z"/>
		<path fill="#58585B" d="M110.9,91.8c-0.1,0.1-0.1,0.2-0.1,0.3C110.9,92,110.9,91.9,110.9,91.8z"/>
		<path fill="#58585B" d="M141.3,91.4c0,0,0.1,0.1,0.1,0.1c0.1-0.1,0.3-0.1,0.5-0.1C141.7,91.2,141.5,91.1,141.3,91.4z"/>
		<path fill="#58585B" d="M81.9,96.6C81.9,96.6,81.9,96.6,81.9,96.6C81.9,96.6,81.9,96.6,81.9,96.6z"/>
		<path fill="#58585B" d="M75.4,92.1c0.1,0,0.2,0,0.3,0C75.6,92,75.5,92,75.4,92.1z"/>
		<path fill="#58585B" d="M146.7,91.3C146.8,91.2,146.7,91.2,146.7,91.3L146.7,91.3z"/>
		<path fill="#58585B" d="M147.4,93c0,0-0.1,0.1-0.1,0.2C147.3,93.1,147.4,93.1,147.4,93z"/>
		<path fill="#58585B" d="M139.9,94.1L139.9,94.1C139.9,94.2,139.9,94.2,139.9,94.1z"/>
		<path fill="#58585B" d="M146.9,91.5c-0.1-0.1-0.1-0.1-0.2-0.1C146.7,91.4,146.8,91.4,146.9,91.5z"/>
		<path fill="#58585B" d="M146.9,91.3l0.1,0C147,91.2,147,91.2,146.9,91.3z"/>
		<path fill="#58585B" d="M146.5,91.3c0.1,0,0.2,0,0.2,0c0,0,0-0.1,0-0.1L146.5,91.3z"/>
		<path fill="#58585B" d="M93.9,95.4C93.9,95.4,93.9,95.4,93.9,95.4C93.7,95.5,93.8,95.5,93.9,95.4z"/>
		<path fill="#58585B" d="M128.7,96.1C128.7,96.1,128.7,96.1,128.7,96.1L128.7,96.1L128.7,96.1z"/>
		<path fill="#58585B" d="M128.1,96.4c0.2-0.6,0.4-0.5,0.5-0.4l-0.2-1.3L128.1,96.4z"/>
		<path fill="#58585B" d="M107.8,96.6l0.4,0.4c-0.4,0.7-0.8,0.4-0.4,1c0.1-1.4,1.4-0.1,1.5-1.5l0.2,0.3c-0.1,0-0.1,0.1-0.2,0.1
			c0.5,0.7,0.4-1,1-0.8c0.2,0.1,0.4,0.3,0.2,0.5l0.5-0.3c0.1,0,0.1,0.3,0,0.2l0.7-0.1l0,0c0.1-0.2,0.3-0.6,0.5-0.7
			c0.2,0.2-0.1,0.1,0,0.3l0.4-0.3c0.2,0.4-0.2,0.7-0.4,0.7c0.4,1.4,0.3-0.3,1.1,0.5l-0.4,0.2c0.2,0.8,0.5,0.5,1,1
			c-0.1-0.3-0.9-1.2-0.4-1.6c0.1,0.1,0.3,0.2,0.5-0.1c0,0.5,0.2,0.4,0.5,0.3l0,0.7c0.3-0.2,0.3-0.5,0.5-0.8c0.3,0.1,0.4,0.6,0.5,1
			c0.6,0.1-0.4-0.8,0.3-0.9c0.5,0.3,0.8,0,1.3-0.4c0.3,0.2-0.1,0.4,0.1,0.6l0.3-0.5c0.1,0,0,0.2,0,0.3c0.2-0.2,0-0.7,0.4-0.8
			c0.1-0.7,0.8,1.1,1.2,0.2c0.1,0.2-0.1,0.4,0,0.7c0.6-0.5,0.5-0.4,1.1-1.1l0.4,0.4c-0.3-0.5,0.1-1.1,0.5-1.5
			c-0.1-0.2-0.2-0.4-0.3-0.5l0.6-0.4c0.1,0.1,0,0.3-0.1,0.6c0-0.1,0.1-0.1,0.1-0.2c0.2,0.2,0.1,0.6,0,1l-0.2-0.4
			c-0.1,0.4-0.3,0.8-0.3,1.2c0-0.1,0.1-0.1,0.2-0.2c0,0.1-0.1,0.2,0,0.3c0,0.1,0.1-0.1,0.2-0.2l0.1,0.7l0-0.3l0.8,0.5
			c0.6-0.7,1-1.8,1.9-2.1c-0.2,0.5,0,0.9-0.1,1.5c-0.2-0.7-0.7,0.3-1.1,0.1c0.2,0.1,0.2,0.4,0.1,0.5l0.8-0.6c0,0.5,0.2,0.4,0.4,0.6
			c-0.2-1,0.6-0.7,0.9-1c0,0.3-0.1,0.7-0.5,0.6c0.4,0.8,0.6-1.2,1-0.5c-0.1,0-0.2,0-0.2,0.1c0.2-0.3,0.8-0.1,0.7,0.2l-0.1,0
			c0.7,0.1,2,0,2.1-0.9c0,0.1-0.1,1-0.1,1.2l1.2-2.9c-0.1,0.7,0.3,2.5-0.2,2.9c0.2,0.1,0.3,0.2,0.7,0c-0.1-0.1-0.3-1.1-0.1-1.1
			c0.4,0.8,0.3,0.4,0.8,1.2c-0.2-0.2,0-1.3,0.3-1.3c0,0.2,0,1.2-0.1,1.3l0.6-1.1c-0.2,0.2,0,1,0.1,1.3c-0.1-0.2,0.5,0,0.7-0.1
			l-0.3-0.3c0.7,0.2,0.7-1.6,1.4-1.6c-0.1,0.2-0.2,1.5,0.1,1.6c0.2-0.6,0.7-2.8,1.3-3.3l0.1,0.3l0.5-0.4c-0.3,0.9-1.1,2.8-1.6,3.5
			c0.3,0.3,0.1,0.4,0.5,0.4c0.1,0.3-0.2,0.5-0.3,0.5l0.9,0.2c0-0.7,0.7-0.7,0.7-1.3l-1,0.7c0-0.7,0.6-2,1.2-1.8
			c0.2,0.3-0.1,1.2-0.1,1.5c0.1-0.2,0.6-0.5,0.7-0.3l-0.3,0.4c0.4,0.3,0.6-0.9,1-0.3c0.2,0,0.4,0.9,0.5,0.5
			c-0.2-0.8-0.3-3.2-0.1-3.8c0.1,0.1,0.8,0.7,1,1.1c0.2,0.6-0.4,1.5-0.2,2c0-0.2,0.1-0.4,0.2-0.5c0.2,0.2-0.1,0.6,0.3,0.5
			c0.1-0.7,0.7,0.1,0.2-0.6c0.3-0.2,0.4,0.1,0.8,0.1c-0.1-0.5,0.4-1.5,0.7-1.7c0,0.2,0.1,0.4,0.1,0.5c0.7,0.1,1.1,0.4,1.7,0.4
			c0.1,0.2,0.4,0.4,0.2,0.7c0.1-0.1,0.2-0.4,0.4-0.4c0.4,0.6-0.4,0.1-0.1,0.8c0-0.4,0.5-0.6,0.8-0.8c-0.1-0.6-0.7-0.1-0.9,0.1
			c0-0.9,0.5-1.8,1.2-2.2c0.5-0.2,0.2,0.6,0.3,0.4c1,0.2,0.9-1.5,1.7-0.9c0.3,0.5,0,1.1,0.1,1.5c-0.4,0.2-0.7-0.3-1-0.3l0.4,0.3
			c-0.1,0.2-0.4,0.3-0.6,0.2c0.3,0.5,1.7,0.1,2.5,0.6c0.1-0.2,0.4-0.4,0.3-0.6l-0.2,0.1c-0.2-0.4,0.5-0.6,0.2-0.8
			c0.3-0.3,0.7-0.8,1.2-0.6l0.1,0.6c0-0.2-0.3-0.4-0.4-0.2c0.2-0.3,0.7,0.8,0.9,0l-0.3-0.4c0.3-0.3,0.7-1,1.1-0.8
			c-0.2-0.6-0.1,0.1-0.4-0.7c0.3,0.9-1,0-0.6,0.9c-0.3-0.8-0.5-0.4-0.9-1.1c0,0.2,0.1,0.4-0.2,0.3c0,0.1-0.1,0.1-0.1,0.2l0,0l0,0
			c0,0,0,0,0,0c0.1,0.1,0.1,0.2,0.2,0.3c-0.2,0.5-0.7,0.5-0.9,0.7c-0.2-0.1,0.1-0.2,0-0.5l-0.3,0.4c0-0.5-0.5-0.8-0.1-1l-0.4,0
			c-0.3-0.3-0.6-0.4-0.8-0.2c-0.2-0.1-0.5,0.5-0.3,0.1l-0.7,0.3l0-0.1c-0.7-0.1-1.4,0.8-2.1-0.1c-0.2,0.1-0.5,0.3-0.8,0.1l-0.1-0.4
			c-0.3,0.1-0.9-0.4-1,0c-0.3-1.1-1.4-0.2-1.9-0.4l0,0.5c-0.3,0-0.7,0.1-1.1,0.3l0,0.5c-0.4,0.4-1-0.3-1.6-0.3c0-0.2,0.2-0.1,0.3,0
			c-0.7-1-1.5,0.8-2.1,0c-0.2,0.2-0.3,0.1-0.4,0c0,0,0,0,0,0c0,0,0,0-0.1,0c-0.1-0.1-0.1-0.2-0.2-0.2c0.1,0.1,0.1,0.2,0.2,0.2
			c-0.1,0-0.3,0.1-0.5,0.2l-0.1-0.5c0,0,0,0,0,0c-0.2-0.2-0.1,0.2,0,0.6c-0.1,0.1-0.2,0.2-0.2,0.3c-0.1-0.8-0.5,0.3-0.7-0.6
			c-0.1,0.4-0.9,0.3-1,1.2c0-0.1-0.1-0.2,0-0.2c-0.2-0.1-0.4-0.2-0.6,0l-0.1-0.6L129,93c-0.3-0.4-0.4-0.6-0.1-1.1
			c-0.6,0.7-0.5,0.3-1.1,1l0-0.4c-0.2,0-0.5,0.6-0.6,0.2c-0.4-0.8-2.2-0.1-3.3-0.8c0.2,1.2-0.5-0.5-0.6,0.4c-0.1-0.3-0.2-0.4,0-0.7
			c-0.6,0.3-0.9-0.4-1.3,0.3c-0.1-0.3,0.1-0.4,0.1-0.6c0,0.1-0.2,0.2-0.2,0.1c-0.1-0.2,0.1-0.2,0.2-0.4c-0.6,0-0.6,0.9-0.7,1.7
			c-0.3-0.4-0.4-0.3-0.7,0.2c-0.1-0.3-0.3-0.5,0.1-0.6c-0.2,0-1.3-0.4-1.3,0.3c-0.1-0.2-0.3,0-0.3,0c-0.5,0-0.5-0.1-1,0l0.1,0.1
			c-0.2,0.8-0.4,0.2-0.7,0.3l0-0.1c-0.8-0.6-0.4,0.3-1.2-0.4l0,0.5c-0.1,1.1-0.7-0.6-1.2-0.2l0.2,0.3c-0.3,0.4-0.7-1.4-1-1.6
			c-0.1-0.1,0.1-0.1,0.2-0.2c-0.7-0.6-0.1,0.6-0.6,0.8c-0.1-0.3,0.1-0.9-0.2-0.9c-0.2-0.3-1,1.1-1.5,0.5c0.1,0.3,0.2,0.5,0,0.7
			c-0.4,0.1-1-1-1.3-0.2c0-0.1-0.1-0.1-0.1-0.2c-0.3,0.2-0.9,0.4-1.1,0.8c-0.3-1.7-1.7,0.8-1.7-0.7l-0.9,0.1l0-0.2
			c-0.6-0.1-0.7,0.3-0.9,0.6c-0.1-0.1,0-0.3,0-0.3c-0.8-0.3-0.9-0.2-1.6,0.5l-0.1-0.5c-0.2,0.3-1.2-0.8-2-0.2c0-0.1,0-0.2,0.1-0.2
			c-0.9,0.6-2.1-1.4-2.5,0.4l-0.6,0.5c0.8,0.1-0.1,0.8,0.2,1.1c-0.3,0.1-0.8-0.6-0.4-0.7l0.1,0.1c0.1-1-0.9-0.3-0.9-1
			c-1.5,0-2.9-0.5-4.3-0.5l0.2,0.7l-0.5,0c-0.1-0.2-0.2-0.6,0.2-0.6c-0.2-0.4-0.6,0.4-0.6,0.5c-0.7-0.3,0.3-0.9,0.1-0.9l-0.3,0.1
			l0.1,0.1c-0.2,0.3-0.2,0.6-0.7,0.6c-0.3-0.2-0.1-0.5-0.2-0.5c0-0.1,0-0.1-0.2,0l-0.6-0.1l0.2,0.6c-0.3,0.3-0.6,0-0.3,0.6
			c-0.4-1-2.3-0.4-2.5-0.7c-0.4,0.4-0.8,0.4-1.2,0.4c0.1,0.1,0.2,0.8-0.2,0.7c0.1-1.4-0.7-0.6-1.1-1.6c0.3,0.7-1.1,0.2-0.7,1.1
			c-0.3-0.1,0-0.5-0.3-0.8c-0.8,0.5-1.8-0.3-2.7-0.2c0,0.2,0.1,0.5-0.1,0.7l-0.5-0.9c-0.2,0.1-0.2,1-0.5,0.4c0,0.2,0.1,0.4,0,0.4
			c-1.9-0.9-4,0.7-5.9-0.9c0.3,0.3,0.1,0.4-0.1,0.4c0.1,0.1,0,0.4,0,0.7l-0.8-0.7c-0.2,0.7-0.9,0-1,0.7l0.3-0.1
			c-0.3,0.8,0.5,1.7,0.4,2.7c0.4-0.9,1,1.3,1.7,0c0.1,0.2-0.1,0.3,0,0.5c0.2-0.4,0.4-0.5,0.7-0.3l0,0.1c1-0.1,1.4,0.3,2.6,0.6
			l-0.1-0.5c0.2,0.1,0.3,0.2,0.4,0.3c0.3-0.7-0.7,0-0.4-0.9c0.3,1,1.7,0,1.9,1.1c0.4,0-0.1-0.6,0.3-0.6l0.1,0.3l0.1-0.4
			c0.2,0.1,0.4,0.4,0.4,0.7c-0.1,0-0.2,0.1-0.2,0.1c0.3,0.4,0.9-0.1,1,0l-0.4-0.2c1-0.3,2.3,0.1,3.3-0.5l-0.1-0.2
			c0.8-0.4,0.6,0.3,1.4,0.1l0,0.1c0.2-0.2,0.4-0.3,0.6-0.3c-0.2,0.3,0.4,0.5,0.1,0.8c0.8-0.5,0.4-0.4,1-1.2l0.1,0.4
			c0.2-0.3,0.2-0.5,0.6-0.6c-0.3,0.3,0.3,0.6-0.1,1c0.9,0.8,1.3-0.8,1.7,0.4c0.4-1-0.8-0.6-0.5-0.8c-0.2-0.3,0.3-0.8,0.6-0.7
			c0.3,0,0.5,1.3,1.2,1.3c-0.1,0-0.1,0.1-0.1,0.1c0.3,0.3,0.5-0.4,0.8,0.1c0.2-0.6,0.4,0,0.5-0.8l-0.6,0.2c0.4-0.2,0.7-1.2,1.3-0.7
			c0,0.2-0.2,0.4-0.3,0.5c0.2,0.2,0.3-0.2,0.5,0.1c-0.1,0.8-0.8,0.2-1.2,0.8c0.2,0.3,0.7-0.6,0.5,0.3c0.3-1.1,0.7,0.1,1.2-0.7l0,0.5
			c0.1-0.1,0.2-0.3,0.4-0.3l-0.2,0.6c0.4-0.5,0.7,0.5,1.1,0.2c-0.8,0-0.2-0.6-0.5-0.9c1-0.6,0.5,1.3,1.6,1c-0.1,0.1-0.5-0.3-0.3-0.5
			c0.2,0.1,0.5,0.3,0.6,0.5c0.7-0.1-0.1-0.5,0.2-0.8c0.2,0.6,0.3-0.2,0.7-0.4l0,0.5c0.8,0.3,0.2-1,0.9-0.6L99,96.3l0.4-0.2l-0.1,0.6
			c0.4-0.4,0.5-0.3,0.9-0.2c-0.1-0.3,0.1-0.9,0.4-0.9c0.2,0.3-0.1,0.5,0.4,0.4c-0.1,0.3-0.2,0.7-0.5,0.2c0,0.2-0.1,0.3-0.1,0.5
			c0.3,0.3,0.7,0.1,0.8,0.1c-0.1,0-0.2,0-0.2-0.1l0.7-0.7c0.1,0.2,0,0.3-0.1,0.5c0.1-0.1,0.3-0.3,0.5-0.3c-0.1,0.4,0,0.8-0.4,1
			l0.7-0.4c0,0.2,0.4,0.5,0.3,0.6c0.4,0.2,0.9-0.8,1.5-0.5c0-0.1,0.1-0.2,0.2-0.2c0.5,0.1,0.9,0.6,1.5,0l0.3,0.7
			c0.4-0.2-0.4-0.9,0.3-1.2c0.5-0.2,0.2,0.6,0.4,0.8c0.3-0.4,0.7-1.1,1.2-0.5C108,96.7,107.9,96.6,107.8,96.6z M113.3,96.3
			c-0.1,0.1-0.3,0.4-0.4,0.1C113,95.9,113.1,96.1,113.3,96.3z M121.7,95.1c-0.1,0.2-0.2,0.1-0.3-0.1C121.4,95,121.6,95,121.7,95.1z
			 M145.1,91.7L145.1,91.7C144.8,91.5,144.9,91.6,145.1,91.7z M145.6,91.9c0-0.1,0-0.1,0-0.2c0,0.1-0.1,0.1-0.3,0.1
			C145.3,91.9,145.4,92,145.6,91.9z M92.3,92.1l0.1,0.1C92.2,92.4,92.3,92.2,92.3,92.1z"/>
		<path fill="#58585B" d="M120.7,95.8c0-0.1,0-0.2,0-0.3C120.6,95.6,120.6,95.7,120.7,95.8z"/>
		<path fill="#58585B" d="M104.3,96.9C104.3,96.9,104.3,96.9,104.3,96.9C104.3,96.9,104.3,96.9,104.3,96.9L104.3,96.9z"/>
		<path fill="#58585B" d="M137.9,96.1c-0.1-0.1-0.2-0.2-0.2-0.3C137.7,95.9,137.7,96,137.9,96.1z"/>
		<path fill="#58585B" d="M148.2,91l-0.3,0.1c0.2,0,0.2,0.1,0.3,0.2C148.1,91.2,148.1,91.1,148.2,91z"/>
		<path fill="#58585B" d="M150.9,94.1c0-0.1,0.1,0,0.1-0.1l0-0.2C150.9,93.8,150.7,94,150.9,94.1z"/>
		<path fill="#58585B" d="M148.5,92.7c0,0.4,0.2,0.3,0.4,0.2c0,0,0,0,0,0C148.9,92.3,148.7,92.5,148.5,92.7z"/>
		<path fill="#58585B" d="M149,92.9c0.1,0,0.1,0,0.2,0C149.2,92.6,149.1,92.8,149,92.9z"/>
		<path fill="#58585B" d="M146.2,91.6c0.1,0.1,0.1-0.5,0.1-0.4C146.4,90.7,145.6,91.9,146.2,91.6z"/>
		<polygon fill="#58585B" points="148.7,94.1 148.6,93.5 148.5,94 		"/>
		<path fill="#58585B" d="M146.9,93.7l0.4,0.1c0-0.1,0-0.1,0.1-0.2C147.1,93.6,146.9,93.5,146.9,93.7z"/>
		<path fill="#58585B" d="M147.4,93.6c0.1,0,0.2,0,0.3-0.1C147.6,93.6,147.4,93.6,147.4,93.6z"/>
		<polygon fill="#58585B" points="148.2,94.2 148.1,94.1 147.8,94.1 		"/>
		<path fill="#58585B" d="M143.1,93.6l-0.4,0.1c0,0.2,0.1,0.3,0.2,0.2C143,93.8,143.1,93.7,143.1,93.6z"/>
		<path fill="#58585B" d="M144.3,95c-0.1-0.1-0.1-0.2-0.2-0.4l0,0.6L144.3,95z"/>
		<path fill="#58585B" d="M143.1,95.1c0,0.2-0.6,0.5-0.1,0.5C143.1,95.4,143.5,95.3,143.1,95.1z"/>
		<polygon fill="#58585B" points="137.3,94.3 137.4,94.3 137.4,93.3 		"/>
		<path fill="#58585B" d="M132.1,96.8c0.5,0.2,0.1-0.6,0.5-0.3c0.1-0.2-0.3-0.3-0.2-0.5C132.2,96.3,132,96.1,132.1,96.8z"/>
		<path fill="#58585B" d="M132.4,96c0,0,0.1-0.1,0.1-0.2C132.5,95.9,132.5,96,132.4,96z"/>
		<polygon fill="#58585B" points="74.3,91.6 74,91.3 74.2,91.7 		"/>
		<path fill="#58585B" d="M73.7,92.3l-0.1-0.7l-0.2,0.6C73.6,92.2,73.7,92.2,73.7,92.3z"/>
		<path fill="#58585B" d="M114.1,97.6l0-0.2c0-0.2-0.1-0.2-0.3-0.2L114.1,97.6z"/>
		<polygon fill="#58585B" points="110.1,97.1 110.2,97.1 110,96.5 		"/>
		<path fill="#58585B" d="M106.7,97.9c0.1,0,0.3-0.1,0.4-0.1C106.9,97.9,106.7,97.1,106.7,97.9z"/>
	</g>
	<g id="Line_2_Group">
		<polygon fill="#58585B" points="175.8,79.3 175.7,78.8 175.2,79.4 		"/>
		<path fill="#58585B" d="M170.5,78.8c-0.5,0.5-1.4,0.8-1.4,1.8l0.9-0.9c0.1,0.7,0.7,0.7,1.2,0.4l-0.6,0c0.1-0.1,0.1-0.6,0.2-0.7
			c0.9,0.4,1.1-0.6,1.9,0.2l0,0.1l0.6-0.5c0.2,0.1,0.1,0.5,0.1,0.6c0.6-0.4,1-0.8,1.8-0.7c-0.6-1.3-1.7,1-2.3-0.3l0-0.1
			C172.1,79.3,171.3,78.4,170.5,78.8z"/>
		<path fill="#58585B" d="M173.3,79.9L173.3,79.9C173.3,80,173.3,80,173.3,79.9z"/>
		<path fill="#58585B" d="M142.7,78l0,0.2C142.7,78.1,142.7,78.1,142.7,78z"/>
		<path fill="#58585B" d="M152,80.7L152,80.7C151.9,80.9,152,80.9,152,80.7z"/>
		<path fill="#58585B" d="M91.7,78.3L91.5,78C91.6,78.3,91.7,78.4,91.7,78.3z"/>
		<path fill="#58585B" d="M79.1,78.1L79.1,78.1L79.1,78.1z"/>
		<path fill="#58585B" d="M84.9,82.2l0,0.3C84.9,82.3,84.9,82.2,84.9,82.2z"/>
		<path fill="#58585B" d="M80.8,82.7c-0.1-0.1-0.2-0.1-0.3-0.1C80.5,82.8,80.7,82.8,80.8,82.7z"/>
		<path fill="#58585B" d="M79.3,78c0,0-0.1,0.1-0.1,0.1C79.2,78.1,79.2,78,79.3,78z"/>
		<path fill="#58585B" d="M91,82.7l0.2,0.7C91.1,83.2,91.1,82.9,91,82.7z"/>
		<path fill="#58585B" d="M79.8,83.3c-0.1-0.1-0.1-0.2-0.2-0.2C79.6,83.2,79.7,83.3,79.8,83.3z"/>
		<path fill="#58585B" d="M169.7,78.9c0.1,0,0.2,0,0.4-0.1C169.9,78.7,169.8,78.8,169.7,78.9z"/>
		<path fill="#58585B" d="M113.9,83.3c0,0.1-0.1,0.2-0.1,0.3C113.9,83.5,113.9,83.4,113.9,83.3z"/>
		<path fill="#58585B" d="M100.5,83.2L100.5,83.2c0,0.1,0,0.1,0,0.1L100.5,83.2z"/>
		<path fill="#58585B" d="M104.4,83.1c0,0,0,0.1-0.1,0.2C104.4,83.2,104.4,83.2,104.4,83.1z"/>
		<path fill="#58585B" d="M97.5,84c0,0.1-0.1,0.1-0.1,0.2L97.5,84z"/>
		<path fill="#58585B" d="M94.7,83.2c0.1,0.3,0,0.5-0.1,0.7c0.7,0.3,0.9-0.5,1.7,0.1l-0.3-0.3c0.5-0.5,1.4-0.6,1.8,0.1L97.5,84
			c0.5-0.6,1.2,0.5,1.4,0c-0.2-0.3,0-0.5-0.3-0.8l1.1-0.6l0.1,0.9l0.6-0.3c-0.1-0.4,0.8,0.3,0.8-0.6c0.3,0.3-0.1,0.7-0.3,1.1
			c0.3-0.3,0.4,0.1,0.7-0.4l0.3,0.8l0.9-0.6c0,0.1,0,0.1,0,0.2c0.4-0.7,1,0.4,1.5-0.8c0,0,0,0.1,0,0.1c0.3-0.7,1-0.2,1.2,0
			c0.5-0.2,0.2-0.8,0.2-1.1c1.3,0.2,0.9,0.2,2-0.8c0.7,1-0.8,1.7,0.1,2.4c0.1-0.5,0.7-0.9,1.4-1.1c0.6,0.4,1.6,0.6,2.2,1.3l-0.1-0.7
			l0.9-0.4l-0.5,1c0.1-0.2,0.6-0.7,0.8-1c0.9-0.6,0.5,1.5,1.2,0.4c0,0.1,0,0.1,0.1,0.2c0.2-0.5,0.8-0.3,1.5-0.5l-0.2,0.9l-0.4-0.2
			c0.2,0.8,0.7-0.1,1.1-0.1c0.4-0.3,0.2-1,0.5-1.3c0.2,0,0.4-0.2,0.5,0c0.4,0.3,0,1-0.1,1.4c0.3-0.9,0.5-0.8,1.2-1.1
			c0,0.4,0,0.6-0.1,0.7c0.2-0.1,0.3-0.3,0.4-0.7l0.3,0.5c0.9,0.7,0.8-1.6,1.9-1.3c-0.3,0.5,0.9-0.1,1.2,0.4c-0.4,0.1,0.2,1.3,0,1.8
			c0.8,0.3,0.3-1,1-1.2l-0.3,1.1c0.6-0.5,0.2-0.6,0.8-0.9c-0.2,0.3,0.3,0.3-0.1,0.6c0.8,0.1,0.6,0,1.4,0.1l0.1-1
			c0.2-0.1,0.3,0.3,0.4,0.5c-0.1,0-0.3,0-0.2,0.1c0.3,0.9,0.5-0.5,0.8,0.3c-0.1-0.3-0.2-0.8,0.1-0.9c-0.1,0.6,0.5,0.6,0.5,0.9
			c-0.2-0.4,0.7-0.2,0.7-0.9c0.4,0.5-0.1,0.5-0.1,0.9c0.3-0.8,1.2-0.1,1.5-0.6c0,0.1,0,0.1,0,0.2c0.4-0.5,1-0.6,1.8-1.3l-0.3,0.6
			c0.8,0.3,0.5-1.3,1.1-1.3c-0.1,0.9,1-0.1,0.8,0.9c0.4-0.5,0.8-0.7,1-1.4c0.4,0.5-0.7,1.2-0.2,1.4l0.5-0.5l0.1,0.5
			c0-0.3,0.5-0.4,0.5-0.6c0.1,0.6,0.3,0.9,0.3,1.4c0.3-0.2,0.8,0.4,1.1-0.1l0,0.3c0.3-1,1-0.2,1.2-1.3l0.2,0.6
			c0.5-0.1,0.4-1.2,0.7-1.4c0.2,0,0.5-0.2,0.7-0.1c-0.7,0.7,0.3,0.8,0.5,1.2c0.3,0,1-0.1,1.3-0.6c-0.3,0.5-0.1,1-0.7,1
			c0.3,1,0.9-0.2,1.5-0.1l0,0.5c0.9-0.3,0.9-1.2,1.3-2c0.1,0.6,0,0.8-0.2,1.4c0.6,0.4,1.6,0,2.2,0c0.2,0.4,0.1,0.7-0.2,0.9
			c0.7-0.5,1.6,0.1,2-1c-0.2,0.4,0.3,0.3,0.5,0.5c0-0.2,0.1-0.5,0.1-0.5c0.4-0.4,1.4-0.8,1.9-0.5l-0.2,0.3c1.2,0.2,1.7-1.7,3-0.9
			c0.2,0.2-0.2,0.9,0.2,0.8c0.2-0.4,0.2-1.2,0.7-1l0,0.7l0.4-0.7c-0.2-0.6-0.9-0.4-0.4-1c0.5,0.7,0.5-0.6,1.1,0.1
			c-0.1,0.1-0.3,0.6-0.5,0.9c1.4,0.8,1.9-0.7,3.3,0.2c0.7-0.6,1.6-0.7,2-1.2c0,0.7,0,1.3-0.3,1.9c0.6,0.1,0.9-1.5,1.3-0.5
			c0.3-1,1.6-0.6,1.8-1.9c0,0.3,0.6,0,0,0.8c0.8-0.4,1,1.2,1.4,1.2c0.2,0-0.2-0.8,0.2-0.9c0.1,0.1,0.1,0.2,0.1,0.2l0.2-0.3
			c0.2,0.3-0.2,0.7-0.2,1c0.7,0.3,1.1-0.8,1.9-0.9l-0.1,0.2l0.8,0l0,0.1l0.6-0.5l0,0.3c0.1-0.1,0.2-0.3,0.4-0.4l-0.1,0.4
			c0.2-0.7,1-1,1.3-1l0.1,0.2l0.9-0.9c0.5,0.5-0.6,1,0.3,0.7l-0.2,0.9c0.6-0.3,0.7,0.1,1.2-0.2c-0.2-0.4-0.5-0.4-0.3-0.8
			c0.5,1,0.8-0.3,1.3-0.7c-0.2,0-0.4,0-0.6,0.5c-0.3,0-0.1-0.5-0.3-0.5l-0.4,0.5l-0.1-0.6l-0.6,0.5c0-0.7-0.6-0.1-0.3-0.8
			c-0.4,0.3-0.7-0.2-1.1,0.5c-0.3-0.4,0.5-0.5,0.2-0.6c-1.8,0.6-3.6,0.5-5.5,0.2l0.2-0.3c-0.2,0.3-0.4,0.6-0.6,0.8
			c-0.3-0.6-1.5-1.3-2-0.2c-0.1-0.1,0-0.2,0.1-0.3c-0.6,0.1-1.7-0.6-2.6-0.5c-0.4,1.1-1.3-0.7-1.7,0.8l0.2-0.3
			c0.3,0.4-0.4,1-0.5,1.4c-0.2-1,0-0.8-0.3-1.7l0.3,0.3l-0.1-0.8c-1.1,2.1-2.1-1-2.8,0.6c0-0.1,0-0.2,0.1-0.3
			c-0.5-0.5-0.8,0.6-1.1,0.8c0-0.4,0.2-0.7,0.4-1c-0.8-0.3-2.2,0.8-3.1,0.1c-0.3,0.5,0.1,0.7-0.2,1.1c-0.3-0.2-0.5-0.6-0.1-0.9
			c-0.8-1-2.5,0.7-3.7-0.3c-0.6,0.6-0.2,0.9-1.2,1.3c0.2-0.4-0.2-1.3,0.3-1.4l0.1-0.4c-0.9-0.1-2.2-0.2-2.7,1c0-0.9-0.2-0.2-0.5-0.7
			c-0.1,0.1,0,0.1,0.1,0.2c-0.3,0.8-0.5,0-0.8,0.1l0.1-0.2l-0.7,0.6c-0.1-0.1-0.3-0.3-0.3-0.6l0,0.6c-0.4,0-0.2-0.8-0.6-0.6l0.1,0.5
			c-0.3-0.3-0.8,0.4-0.8-0.3c0-0.1,0-0.1,0.1-0.1c-0.5-0.9-1.2,0.3-1.7-0.1l0.1,1c-0.5,0.3-0.3-0.2-0.3-0.6c-0.4,0-0.4-0.3-0.9-0.4
			c-0.2,0.3-0.1,0.4-0.2,0.7l-0.5-0.2l0.3-0.5c-0.8,1.5-1.9-0.2-2.4,1.2c-0.3-0.3,0.3-0.6,0.1-0.8c-0.9-0.6-2,1-2.7,0.2
			c-1.2-0.7-2.6,0-4-0.5l0,0.3l-1-0.2c-0.3,0.6-0.9,0.3-1.3,1c0-0.2-0.1-0.5,0-0.7c-0.4,0.1-0.9,0.4-1.1,0l0.1-0.2
			c-0.9-0.2-2.2-0.2-2.6,0.3c-0.3,0.1-0.3-0.4-0.4-0.7c-0.5,0-0.9,0.2-1.3,0.7c-0.1-0.1-0.2-0.2-0.4-0.5l-0.2,0.7
			c-0.2-0.1-0.1-0.5-0.2-0.7c-0.8,0.8-1.8,0.1-2.3,0.1l0.1,0.3c-0.2,0.3-0.7-0.2-0.4-0.5c-1.1-0.4-1.7,1-3.2,0.9
			c-0.2-1.2-1.4,0.4-1.6-1c-0.6,0.3-1.1-0.2-1.5,0.6c0-0.1-0.1-0.2,0-0.2c-0.3-0.5-1.1-0.1-1.8,0.2l0-0.4c-0.2,0.9-1.4,0.6-1.6,1.5
			c-0.1-0.2,0.1-0.4,0.2-0.5c-0.3-0.8-0.6,0.4-1,0.2c0-0.2-0.1-0.5,0-0.6c-1.4-0.9-3.5,0.7-5.4,0c-0.5,0,0.2,0.9-0.5,0.9
			c-0.2-0.4,0.3-0.9-0.1-1.1c-0.3,0.5-0.4,0.4-0.9,0.4c0.1-0.3,0-0.5,0.3-0.7c-0.2-0.4-1,0.7-1.5,0c0,0.3-0.1,0.4-0.2,0.6
			c-0.7,0.8-1.6-0.8-1.7-0.3c0,0-0.2,0.1,0,0.2c-0.3,0-0.6-0.1-0.6-0.6c-0.1,0.2-0.3,0.6-0.5,0.6l0.1-0.5c-0.1,0.1-0.3,0.4-0.4,0.5
			l0.2,0.3c-0.3-0.4-0.9,0.6-0.9-0.4l0.1,0l-0.6-0.4c-0.2,0.4-0.5,0.8-0.8,0.6c-0.1-1-1-0.2-1.4-0.3l0-0.3C88,78.3,87,78,87.2,78.2
			c-0.4,0-0.9-0.2-0.7-0.6c-0.3,0.2-0.9,0.2-1.1,0.8l-0.6-0.8c-0.4,1.2-1.2-0.4-1.2,0.9c-0.3-0.2-0.3-0.5-0.5-0.7
			c-0.5,0.6-0.9,0.5-1.4,0.4l0-0.1c-0.5-0.1-1,0.6-1.7,0.6l-0.1-1c-0.4,0.1-0.4,0.9-0.8,0.7c-0.1-0.2,0-0.2,0.1-0.3
			c-0.3,0.2-0.8-0.1-1-0.3c-0.5,0.7-0.9,0.5-1.3,1.2c-0.4-0.9,0.6-0.4,0.3-1.2c-0.7-0.5-1.5,0-2.3,0.5c-0.1-0.2,0-0.3,0.1-0.6
			c0,0-1.6,2.4-1.3,3.4c-0.2,0.7-0.4,1,0.3,1.6c0.2-0.4,0.9-0.9,1-0.1l0-0.7c0.9-0.3,0.1,1.4,1.2,1.4L75.7,83c0.2,0,0.4-0.5,0.6-0.3
			c0.1,0.2-0.1,0.3-0.2,0.4l0.9-0.9c0,0.4,0,0.6-0.2,0.9c0.8,0-0.2-1.3,0.8-1c0.2,0.3-0.1,0.4-0.2,0.7c0.5,0.6,0.8,0,1.3-0.3
			c0,0.6-0.3,0.5,0.1,0.9c-0.1-0.3-0.1-0.9,0.2-0.9c-0.1,0.6,0.2,0.3,0.5,0.5c-0.1-0.2,0-0.5,0.1-0.6c0.1-0.1,0.3,0.1,0.5,0.1
			l-0.4-0.6c0.5-0.6,0.8,0.3,1.2,0.6c0,0.1-0.1,0.2-0.2,0.2c0.4,0.3,0.8,0.8,1.4,0.2l0,0.1c1-0.6-0.3-1,0.8-1.6
			c0.4,0.1-0.2,2,0.7,1.3c-0.4-0.5,0.6-1.3,1.1-1.5l-0.5,1.2c0.2,0,0.5-0.3,0.7-0.2l0-0.3c0-1,0.6,0.1,1-0.5
			c-0.4,1.4-0.5,1.1-0.6,2.5c0.4-0.8,0.8-1.5,1.4-1.3l-0.5,1.1c0.9,0.2,1.9-1.3,2.6-2.2c-0.2,0.8,0.1,1.1-0.2,1.8l0.8-0.2L89.1,84
			c0.3-0.9,0.7-0.3,0.6-1.4c-0.1,0.2-0.1,0.3-0.2,0.3c0-0.4,0.2-1.1,0.6-1c0.3,0.3-0.2,0.4-0.1,0.8c0.3-0.5,0.3,0.3,0.6-0.1L90.3,82
			c0.2-0.7,0.5,0,0.7-0.4c-0.3,0.3-0.2,0.7-0.1,1.1l0-0.1c0.2,0,0.5-0.5,0.6-0.1l-0.2,0.9l0.3-0.7c0.1,0.1,0.2,0.4,0,0.6
			c0.9,0.6,0-2,1.2-1.1c0,0.3-0.2,0.6-0.5,0.4c-0.1,0.6,0,0.9,0.4,1.1c0,0,0,0.1,0,0.1C93.4,83.8,94.3,83.9,94.7,83.2z"/>
		<path fill="#58585B" d="M92.8,83.8c-0.3,0-0.6,0-0.8,0.1C92.1,84.1,92.8,84.4,92.8,83.8z"/>
		<path fill="#58585B" d="M143.1,82.8c0,0-0.1,0.1-0.1,0.1L143.1,82.8z"/>
		<path fill="#58585B" d="M145.8,82.5c0-0.1-0.1-0.2-0.1-0.2C145.7,82.5,145.7,82.6,145.8,82.5z"/>
		<path fill="#58585B" d="M117.8,83.1L117.8,83.1L117.8,83.1z"/>
		<path fill="#58585B" d="M133.2,83.4c0.2-0.3,0.3-0.5,0.3-0.8C133.4,82.7,133.3,82.9,133.2,83.4z"/>
		<path fill="#58585B" d="M128,83c0,0-0.1,0.1-0.1,0.1C128,83.1,128,83,128,83z"/>
		<path fill="#58585B" d="M117,83.6c0.2-0.3,0.5-0.3,0.8-0.5C117.6,83.3,117.2,83,117,83.6z"/>
		<polygon fill="#58585B" points="149.1,81.5 148.9,82 149.2,81.6 		"/>
		<path fill="#58585B" d="M146.6,81.8c-0.1-0.1-0.6,0.2-0.4,0.4C146.3,82,146.5,81.9,146.6,81.8z"/>
		<polygon fill="#58585B" points="136.9,81.4 136.8,81.9 137,81.5 		"/>
	</g>
	<g id="Line_1_Group">
		<path fill="#58585B" d="M148.2,65.2c0.1,0,0.1-0.4,0.1-0.5C148.1,64.9,148.2,65.3,148.2,65.2z"/>
		<polygon fill="#58585B" points="146.4,66.2 146.5,66 146.2,66.5 		"/>
		<path fill="#58585B" d="M144.7,66.2c0.2,0.7,0.6-0.1,0.9,0.1l0,0.2l0.1-0.6C145.5,66,145,66.4,144.7,66.2z"/>
		<path fill="#58585B" d="M143.8,64.6c0.1,0.3-0.2,0.2,0.2,0.1c0,0,0,0,0-0.1C143.9,64.6,143.9,64.6,143.8,64.6z"/>
		<path fill="#58585B" d="M144,64.6C144.2,64.6,143.9,64.4,144,64.6L144,64.6z"/>
		<path fill="#58585B" d="M143.1,64.8l0.2-0.3c0-0.2-0.3-0.2-0.2-0.3C143,64.4,143,64.5,143.1,64.8z"/>
		<path fill="#58585B" d="M142.9,65.3l0.1-0.1C143,65.2,143,65.1,142.9,65.3z"/>
		<path fill="#58585B" d="M143.3,65l-0.3,0.2c0,0.1,0,0.4,0.1-0.1C143.1,65.4,143.2,65.2,143.3,65z"/>
		<path fill="#58585B" d="M143.5,65.1c0.1,0.2,0.3,0.3,0.1,0.5C144,65.5,143.9,65,143.5,65.1z"/>
		<path fill="#58585B" d="M144.6,67l0.2,0.2l0.2-0.2C144.9,67,144.6,66.7,144.6,67z"/>
		<path fill="#58585B" d="M141.7,64.4c0,0.2,0.1,0.4,0.1,0.6l0.2-0.2C141.9,64.8,141.7,64.7,141.7,64.4z"/>
		<path fill="#58585B" d="M141.8,65l-0.3,0.3C141.7,65.3,141.8,65.2,141.8,65z"/>
		<polygon fill="#58585B" points="142.9,66.1 143.3,65.6 142.8,66.1 		"/>
		<polygon fill="#58585B" points="140.7,64.4 140.8,64 140.6,64.6 		"/>
		<path fill="#58585B" d="M140,64.5c0.1-0.3-0.2-0.5,0-0.7c-0.2,0.1-0.3,0.3-0.5,0.5C139.7,64.2,139.8,64.2,140,64.5z"/>
		<path fill="#58585B" d="M139.3,64.7c0.1-0.1,0.1-0.2,0.2-0.3C139.4,64.4,139.4,64.5,139.3,64.7z"/>
		<path fill="#58585B" d="M141.1,65.2c0-0.1-0.1-0.3-0.2-0.4l0.1,0.4L141.1,65.2z"/>
		<polygon fill="#58585B" points="141,65.2 141,65.2 140.7,65.2 		"/>
		<path fill="#58585B" d="M141.1,65.2L141.1,65.2C141.1,65.3,141.1,65.3,141.1,65.2z"/>
		<path fill="#58585B" d="M142.2,65.7c-0.2,0.2-0.5,0.5-0.2,0.9C142.1,66.3,142,66.1,142.2,65.7z"/>
		<path fill="#58585B" d="M141.2,65.8l0.3,0.1c0-0.1-0.1-0.3,0-0.4L141.2,65.8z"/>
		<polygon fill="#58585B" points="141.1,65.9 141.2,65.8 141.1,65.7 		"/>
		<path fill="#58585B" d="M139.8,65.1c-0.1,0.2-0.3,0.2-0.4,0.2c0.2,0.1,0.3,0.1,0.5,0.1C139.9,65.3,139.9,65,139.8,65.1z"/>
		<path fill="#58585B" d="M140.3,65.2L140.3,65.2C140.3,65.2,140.3,65.3,140.3,65.2z"/>
		<polygon fill="#58585B" points="137.9,65.3 137.9,65.4 137.9,65.3 		"/>
		<path fill="#58585B" d="M139.9,65.5c0.1,0.1,0.2,0,0.3-0.2C140,65.4,139.9,65.4,139.9,65.5C139.8,65.5,139.8,65.5,139.9,65.5z"/>
		<path fill="#58585B" d="M138.9,64.9c0.1,0.1,0.1,0.2,0.2,0.2C139,65,138.9,64.7,138.9,64.9z"/>
		<path fill="#58585B" d="M140.3,65.1C140.3,65.1,140.3,65.1,140.3,65.1C140.3,65,140.3,65,140.3,65.1z"/>
		<path fill="#58585B" d="M140.3,65.1c-0.1,0.1-0.1,0.2-0.2,0.3c0.1,0,0.1-0.1,0.2-0.1C140.3,65.2,140.3,65.1,140.3,65.1z"/>
		<path fill="#58585B" d="M137.4,68.1c0-0.4,0.3-0.8,0.6-0.3c0.3-0.3,0.1-1.6-0.1-2.4c0,0.2,0,0.3-0.3,0.6c0.1,0.2,0.6,0.5,0.4,0.9
			c-0.4,0.2-0.3-0.1-0.5-0.4c0.2,0.5-0.5,0.7-0.4,1.5l0.3-0.3C137.5,67.8,137.4,68,137.4,68.1z"/>
		<path fill="#58585B" d="M138.4,65.4l0.1-0.1c-0.1-0.1-0.2-0.2-0.4-0.5c-0.2,0.2-0.2,0.3-0.2,0.5L138.4,65.4L138.4,65.4z"/>
		<path fill="#58585B" d="M139.1,65.4c-0.1,0.4-0.4,0.6-0.2,1.1c0.3,0,0.2-0.4,0.4-0.6C138.8,66,139.4,65.7,139.1,65.4
			c0.1,0,0.2,0,0.3-0.1c-0.1-0.1-0.2-0.1-0.3-0.2l0,0l0,0l0,0c0,0.1,0,0.1,0,0.1c0,0,0,0,0,0C139.1,65.3,139.1,65.3,139.1,65.4
			c-0.2-0.1,0-0.1,0-0.2l0-0.1l0,0l-0.5,0.2C138.7,65.4,138.8,65.4,139.1,65.4z"/>
		<path fill="#58585B" d="M141.7,67.6c0,0,0-0.1,0-0.1C141.7,67.5,141.7,67.6,141.7,67.6z"/>
		<path fill="#58585B" d="M141.5,67.3c0-0.1,0.1-0.2,0.2-0.2c0.1,0.1,0,0.2,0,0.4c0.1-0.1,0.3-0.3,0-0.5l0,0.1
			c-0.2-0.2-0.5-0.7-0.5-0.8C141.3,66.6,141.4,66.9,141.5,67.3z"/>
		<path fill="#58585B" d="M140.3,66.4l-0.4,0.2l0.2,0.4l0-0.2C140.3,66.9,140.2,66.6,140.3,66.4z"/>
		<polygon fill="#58585B" points="137.8,65.1 137.9,64.6 137.6,65.3 		"/>
		<polygon fill="#58585B" points="137.3,65.1 137.3,64.7 137.1,65 		"/>
		<path fill="#58585B" d="M104.5,70.2l-0.1,0.1C104.5,70.2,104.5,70.2,104.5,70.2z"/>
		<path fill="#58585B" d="M105.5,70.2l0-0.2C105.5,70.1,105.5,70.2,105.5,70.2z"/>
		<path fill="#58585B" d="M123,65.2c-0.2-0.4-0.4-1-0.4-0.5l0.1,0.4C122.8,65,122.9,65.1,123,65.2z"/>
		<polygon fill="#58585B" points="113.3,67.8 113.3,68 113.5,67.5 		"/>
		<path fill="#58585B" d="M113.1,69.7l-0.3-0.3C112.9,69.5,113,69.6,113.1,69.7z"/>
		<path fill="#58585B" d="M99.4,70.6l-0.2,0.5C99.4,71.1,99.3,70.8,99.4,70.6z"/>
		<path fill="#58585B" d="M131.3,65.3c-0.2-0.2-0.3-0.2-0.4-0.3C131.1,65.3,131.3,65.7,131.3,65.3z"/>
		<path fill="#58585B" d="M104.9,65.4c-0.1,0.1-0.1,0.2-0.1,0.3C104.9,65.6,104.9,65.6,104.9,65.4z"/>
		<path fill="#58585B" d="M130.4,65c0,0,0.1,0.1,0.1,0.1c0.1-0.1,0.2-0.1,0.4-0.1C130.8,64.8,130.6,64.7,130.4,65z"/>
		<path fill="#58585B" d="M80.6,70.3C80.5,70.2,80.5,70.2,80.6,70.3C80.5,70.3,80.5,70.3,80.6,70.3z"/>
		<path fill="#58585B" d="M75.1,65.8c0.1,0,0.1,0,0.2,0C75.3,65.7,75.2,65.7,75.1,65.8z"/>
		<path fill="#58585B" d="M134.9,64.9C135.1,64.9,134.9,64.9,134.9,64.9L134.9,64.9z"/>
		<path fill="#58585B" d="M135.5,66.7c0,0,0,0.1,0,0.2C135.5,66.8,135.5,66.7,135.5,66.7z"/>
		<path fill="#58585B" d="M129.2,67.8L129.2,67.8C129.2,67.9,129.2,67.9,129.2,67.8z"/>
		<path fill="#58585B" d="M135.1,65.1c0-0.1-0.1-0.1-0.2-0.1C135,65,135,65.1,135.1,65.1z"/>
		<path fill="#58585B" d="M135.1,64.9l0.1,0C135.2,64.9,135.2,64.9,135.1,64.9z"/>
		<path fill="#58585B" d="M134.8,65c0.1,0,0.1,0,0.2,0c0,0,0-0.1,0-0.1C134.9,64.9,134.8,65,134.8,65z"/>
		<path fill="#58585B" d="M90.6,69.1C90.6,69.1,90.6,69,90.6,69.1C90.5,69.2,90.5,69.2,90.6,69.1z"/>
		<path fill="#58585B" d="M119.8,69.8C119.8,69.8,119.8,69.8,119.8,69.8L119.8,69.8L119.8,69.8z"/>
		<path fill="#58585B" d="M119.4,70.1c0.2-0.6,0.3-0.5,0.4-0.4l-0.1-1.3L119.4,70.1z"/>
		<path fill="#58585B" d="M102.3,70.3l0.3,0.4c-0.4,0.7-0.6,0.4-0.4,1c0-1.4,1.2-0.1,1.2-1.5l0.2,0.3c-0.1,0-0.1,0.1-0.1,0.1
			c0.4,0.7,0.3-1,0.8-0.8c0.2,0.1,0.3,0.3,0.2,0.5l0.4-0.3c0.1,0,0.1,0.3,0,0.2l0.6-0.1l0,0c0.1-0.2,0.3-0.6,0.4-0.7
			c0.2,0.2-0.1,0.1,0,0.3l0.3-0.3c0.1,0.4-0.1,0.7-0.4,0.7c0.3,1.4,0.3-0.4,1,0.5l-0.3,0.2c0.2,0.8,0.5,0.5,0.8,1
			c-0.1-0.3-0.7-1.2-0.4-1.6c0.1,0.1,0.2,0.2,0.4-0.1c0,0.5,0.2,0.4,0.4,0.3l0,0.7c0.3-0.2,0.2-0.5,0.4-0.8c0.3,0.1,0.4,0.6,0.4,1
			c0.5,0.1-0.3-0.8,0.2-0.9c0.4,0.3,0.7,0,1.1-0.4c0.3,0.2,0,0.4,0,0.6l0.2-0.5c0.1,0,0,0.2,0,0.3c0.2-0.2,0-0.7,0.3-0.8
			c0.1-0.7,0.7,1.1,1,0.2c0.1,0.2,0,0.4,0,0.7c0.5-0.5,0.5-0.4,0.9-1.1l0.4,0.4c-0.3-0.5,0.1-1.1,0.4-1.5c-0.1-0.2-0.2-0.4-0.2-0.5
			l0.5-0.4c0.1,0.1,0,0.3-0.1,0.6l0.1-0.2c0.2,0.2,0.1,0.6,0,1l-0.2-0.4c-0.1,0.4-0.2,0.8-0.2,1.2c0-0.1,0.1-0.1,0.2-0.2
			c0,0.1-0.1,0.2,0,0.3c0,0.1,0.1-0.1,0.1-0.2l0.1,0.7l0-0.3l0.6,0.5c0.5-0.7,0.9-1.8,1.6-2.1c-0.2,0.5,0,0.9,0,1.5
			c-0.2-0.7-0.6,0.3-0.9,0.1c0.2,0.1,0.2,0.4,0.1,0.5l0.7-0.6c0,0.5,0.1,0.4,0.3,0.6c-0.1-1,0.5-0.7,0.8-1c0,0.3,0,0.7-0.4,0.6
			c0.4,0.8,0.5-1.2,0.8-0.5c-0.1,0-0.1,0-0.2,0.1c0.2-0.3,0.7-0.1,0.6,0.2l-0.1,0c0.5,0.1,1.7,0,1.7-0.9c0,0.1-0.1,1-0.1,1.2l1-2.9
			c-0.1,0.7,0.2,2.5-0.2,2.9c0.1,0.1,0.3,0.2,0.6,0c-0.1-0.1-0.2-1.1-0.1-1.1c0.3,0.8,0.2,0.4,0.6,1.2c-0.1-0.2,0-1.3,0.2-1.3
			c0,0.2,0,1.2-0.1,1.3l0.5-1.1c-0.1,0.2,0,1,0.1,1.3c-0.1-0.2,0.5,0,0.6-0.1l-0.2-0.3c0.6,0.2,0.6-1.6,1.2-1.6
			c-0.1,0.2-0.2,1.5,0.1,1.6c0.1-0.6,0.6-2.8,1.1-3.3l0.1,0.3l0.4-0.4c-0.2,0.9-0.9,2.8-1.3,3.5c0.2,0.3,0.1,0.4,0.4,0.4
			c0.1,0.3-0.2,0.5-0.3,0.5l0.8,0.2c0-0.7,0.6-0.7,0.6-1.3l-0.8,0.7c0-0.7,0.5-2,1-1.8c0.1,0.3-0.1,1.2-0.1,1.5
			c0.1-0.2,0.5-0.5,0.6-0.3l-0.2,0.4c0.3,0.3,0.5-0.9,0.9-0.3c0.1,0,0.4,0.9,0.4,0.5c-0.2-0.8-0.2-3.2-0.1-3.8
			c0,0.1,0.7,0.8,0.8,1.1c0.2,0.6-0.3,1.5-0.1,2c0-0.2,0.1-0.4,0.2-0.5c0.1,0.2-0.1,0.6,0.2,0.5c0-0.7,0.6,0.1,0.1-0.6
			c0.3-0.2,0.3,0.1,0.6,0.1c-0.1-0.5,0.3-1.5,0.6-1.7c0,0.2,0,0.4,0.1,0.5c0.6,0.1,0.9,0.4,1.4,0.4c0,0.2,0.3,0.4,0.2,0.7
			c0.1-0.1,0.1-0.4,0.3-0.4c0.3,0.6-0.4,0.1-0.1,0.8c0-0.4,0.4-0.6,0.7-0.8c-0.1-0.6-0.5-0.1-0.8,0.1c0-0.9,0.4-1.8,1-2.2
			c0.4-0.2,0.2,0.6,0.3,0.4c0.8,0.2,0.7-1.5,1.4-0.9c0.3,0.5,0,1.1,0.1,1.5c-0.4,0.2-0.6-0.3-0.8-0.3l0.3,0.3
			c-0.1,0.2-0.4,0.3-0.5,0.2c0.2,0.5,1.4,0.1,2.1,0.6c0.1-0.2,0.3-0.4,0.2-0.6l-0.2,0.1c-0.2-0.4,0.4-0.6,0.1-0.8
			c0.3-0.3,0.6-0.8,1-0.6l0.1,0.6c0-0.2-0.3-0.4-0.4-0.2c0.2-0.3,0.6,0.8,0.8,0l-0.3-0.4c0.3-0.3,0.6-1,1-0.8
			c-0.2-0.6-0.1,0.1-0.3-0.7c0.2,0.9-0.9,0-0.5,0.9c-0.2-0.8-0.4-0.4-0.8-1.1c0,0.2,0.1,0.4-0.2,0.3c0,0.1,0,0.1-0.1,0.2l0,0l0,0
			c0,0,0,0,0,0c0.1,0.1,0.1,0.2,0.1,0.3c-0.1,0.5-0.6,0.5-0.8,0.7c-0.2-0.1,0.1-0.2,0-0.5l-0.2,0.4c0-0.5-0.5-0.8-0.1-1l-0.4,0
			c-0.2-0.3-0.5-0.4-0.7-0.2c-0.2-0.1-0.4,0.5-0.3,0.1l-0.6,0.3l0-0.1c-0.6-0.1-1.2,0.8-1.8-0.1c-0.2,0.1-0.4,0.3-0.7,0.1l-0.1-0.4
			c-0.2,0.1-0.7-0.4-0.8,0c-0.3-1.1-1.2-0.2-1.6-0.4l0,0.5c-0.3,0-0.6,0.1-0.9,0.3l0,0.5c-0.3,0.4-0.8-0.3-1.3-0.3
			c0-0.2,0.2-0.1,0.2,0c-0.6-1-1.3,0.8-1.8,0c-0.1,0.2-0.2,0.1-0.3,0c0,0,0,0,0,0c0,0,0,0-0.1,0c-0.1-0.1-0.1-0.2-0.2-0.2
			c0.1,0.1,0.1,0.2,0.2,0.2c-0.1,0-0.3,0.1-0.4,0.2l-0.1-0.5c0,0,0,0,0,0c-0.2-0.2-0.1,0.2,0,0.6c-0.1,0.1-0.1,0.2-0.2,0.3
			c-0.1-0.8-0.4,0.3-0.6-0.6c-0.1,0.4-0.8,0.3-0.9,1.2c0-0.1-0.1-0.2,0-0.2c-0.2-0.1-0.3-0.2-0.5,0l-0.1-0.6l-0.4,0.8
			c-0.2-0.4-0.3-0.6-0.1-1.1c-0.5,0.7-0.4,0.3-0.9,1l0-0.4c-0.2,0-0.4,0.6-0.5,0.2c-0.4-0.8-1.8-0.1-2.8-0.8
			c0.2,1.2-0.4-0.5-0.5,0.4c-0.1-0.3-0.2-0.4,0-0.7c-0.5,0.3-0.7-0.4-1.1,0.3c-0.1-0.3,0.1-0.4,0.1-0.6c0,0.1-0.2,0.2-0.2,0.1
			c0-0.2,0.1-0.2,0.1-0.4c-0.5,0-0.5,0.9-0.6,1.7c-0.3-0.4-0.4-0.3-0.6,0.2c-0.1-0.3-0.2-0.5,0.1-0.6c-0.2,0-1.1-0.4-1.1,0.3
			c-0.1-0.2-0.2,0-0.3,0c-0.4,0-0.4-0.1-0.8,0l0.1,0.1c-0.2,0.8-0.3,0.2-0.6,0.3l0-0.1c-0.7-0.6-0.3,0.3-1-0.4l0,0.5
			c-0.1,1.1-0.6-0.6-1-0.2l0.1,0.3c-0.2,0.4-0.6-1.4-0.8-1.6c0-0.1,0.1-0.1,0.1-0.2c-0.6-0.6-0.1,0.6-0.5,0.8
			c-0.1-0.3,0.1-0.9-0.2-0.9c-0.1-0.3-0.8,1.1-1.2,0.5c0.1,0.3,0.2,0.5,0,0.7c-0.3,0.1-0.8-1-1.1-0.2c0-0.1-0.1-0.1-0.1-0.2
			c-0.2,0.2-0.8,0.4-0.9,0.8c-0.2-1.7-1.5,0.8-1.5-0.7l-0.7,0.1l0-0.2c-0.5-0.1-0.6,0.3-0.8,0.6c-0.1-0.1,0-0.3,0-0.3
			c-0.7-0.3-0.7-0.2-1.3,0.5l-0.1-0.5c-0.2,0.3-1-0.8-1.6-0.2c0-0.1,0-0.2,0.1-0.2c-0.7,0.6-1.8-1.4-2.1,0.4l-0.5,0.5
			c0.6,0.1-0.1,0.8,0.2,1.1c-0.3,0.1-0.6-0.6-0.3-0.7l0,0.1c0.1-1-0.8-0.3-0.8-1c-1.3,0-2.5-0.5-3.6-0.5l0.1,0.7l-0.4,0
			c-0.1-0.2-0.1-0.6,0.1-0.6c-0.2-0.4-0.5,0.4-0.5,0.5c-0.6-0.3,0.2-0.9,0-0.9l-0.2,0.1l0.1,0.1c-0.2,0.3-0.2,0.6-0.6,0.6
			c-0.2-0.2-0.1-0.5-0.2-0.5c0-0.1,0-0.1-0.1,0l-0.5-0.1l0.2,0.6c-0.2,0.3-0.5,0-0.2,0.6c-0.3-1-1.9-0.4-2.1-0.7
			c-0.3,0.4-0.6,0.4-1,0.4c0.1,0.1,0.2,0.8-0.2,0.7c0.1-1.4-0.6-0.6-0.9-1.6c0.2,0.7-1,0.2-0.6,1.1c-0.3-0.1,0-0.5-0.2-0.8
			c-0.7,0.5-1.5-0.3-2.3-0.2c0,0.2,0.1,0.5-0.1,0.7l-0.4-0.9c-0.2,0.1-0.2,1-0.5,0.4c0,0.2,0.1,0.4,0,0.4c-1.6-0.9-3.3,0.7-5-0.9
			c0.2,0.3,0.1,0.4-0.1,0.4c0.1,0.1,0,0.4,0,0.7l-0.7-0.7c-0.1,0.7-0.7,0-0.8,0.7l0.2-0.1c-0.3,0.8,0.4,1.7,0.4,2.7
			c0.3-0.9,0.9,1.3,1.4,0c0.1,0.2-0.1,0.3,0,0.5c0.1-0.4,0.3-0.5,0.6-0.3l0,0.1c0.9-0.1,1.2,0.3,2.2,0.6l-0.1-0.5
			c0.2,0.1,0.2,0.2,0.3,0.3c0.2-0.7-0.6,0-0.4-0.9c0.3,1,1.5,0,1.6,1.1c0.3,0-0.1-0.6,0.2-0.6l0.1,0.3l0.1-0.4
			c0.2,0.1,0.3,0.4,0.3,0.7c-0.1,0-0.1,0.1-0.2,0.1c0.3,0.4,0.8-0.1,0.9,0l-0.3-0.2c0.9-0.3,1.9,0.1,2.8-0.5l-0.1-0.2
			c0.6-0.4,0.5,0.3,1.2,0.1l0,0.1c0.1-0.2,0.3-0.3,0.5-0.3c-0.2,0.3,0.3,0.5,0.1,0.8c0.7-0.5,0.3-0.4,0.8-1.2l0.1,0.4
			c0.2-0.3,0.2-0.5,0.5-0.6c-0.3,0.3,0.2,0.6-0.1,1c0.7,0.8,1.1-0.8,1.4,0.4c0.3-1-0.6-0.6-0.4-0.8c-0.2-0.3,0.3-0.8,0.5-0.7
			c0.2,0,0.4,1.3,1,1.3c-0.1,0-0.1,0.1-0.1,0.1c0.2,0.3,0.4-0.4,0.7,0.1c0.2-0.6,0.4,0,0.4-0.8l-0.5,0.2c0.3-0.2,0.6-1.2,1.1-0.7
			c0,0.2-0.2,0.4-0.3,0.5c0.1,0.2,0.3-0.2,0.4,0.1c0,0.8-0.7,0.2-1,0.8c0.2,0.3,0.6-0.6,0.5,0.3c0.2-1.1,0.6,0.1,1-0.7l0,0.5
			c0.1-0.1,0.2-0.3,0.3-0.3l-0.2,0.6c0.3-0.5,0.6,0.5,0.9,0.2c-0.6,0-0.1-0.6-0.4-0.9c0.8-0.6,0.5,1.3,1.4,1
			c-0.1,0.1-0.5-0.3-0.3-0.5c0.2,0.1,0.4,0.3,0.5,0.5c0.6-0.1-0.1-0.5,0.2-0.8c0.2,0.6,0.3-0.2,0.6-0.4l0,0.5c0.7,0.3,0.2-1,0.8-0.6
			L94.9,70l0.3-0.2l-0.1,0.6c0.3-0.4,0.5-0.3,0.8-0.2c-0.1-0.3,0-0.9,0.3-0.9c0.2,0.3-0.1,0.5,0.3,0.4c-0.1,0.3-0.2,0.7-0.4,0.2
			c0,0.2-0.1,0.3-0.1,0.5c0.2,0.3,0.6,0.1,0.7,0.1c-0.1,0-0.1,0-0.2-0.1l0.6-0.7c0.1,0.2,0,0.3-0.1,0.5c0.1-0.1,0.2-0.3,0.4-0.3
			c0,0.4,0,0.8-0.3,1l0.6-0.4c0,0.2,0.3,0.5,0.2,0.6c0.3,0.2,0.8-0.8,1.2-0.5c0-0.1,0.1-0.2,0.2-0.2c0.4,0.1,0.8,0.6,1.2,0l0.3,0.7
			c0.4-0.2-0.4-0.9,0.3-1.2c0.4-0.2,0.2,0.6,0.3,0.8c0.2-0.4,0.6-1.1,1-0.5C102.5,70.3,102.4,70.2,102.3,70.3z M106.9,70
			c-0.1,0.1-0.3,0.4-0.3,0.1C106.7,69.5,106.8,69.8,106.9,70z M114,68.8c-0.1,0.2-0.2,0.1-0.3-0.1C113.7,68.6,113.8,68.6,114,68.8z
			 M133.6,65.3L133.6,65.3C133.4,65.2,133.4,65.2,133.6,65.3z M134,65.6c0-0.1,0-0.1,0-0.2c0,0.1-0.1,0.1-0.2,0.1
			C133.8,65.6,133.9,65.7,134,65.6z M89.3,65.7l0.1,0.1C89.2,66,89.3,65.9,89.3,65.7z"/>
		<path fill="#58585B" d="M113.2,69.4c0-0.1,0-0.2,0-0.3C113.1,69.3,113.1,69.4,113.2,69.4z"/>
		<path fill="#58585B" d="M99.4,70.5C99.4,70.5,99.4,70.5,99.4,70.5C99.4,70.6,99.4,70.6,99.4,70.5L99.4,70.5z"/>
		<path fill="#58585B" d="M127.6,69.7c-0.1-0.1-0.1-0.2-0.2-0.3C127.4,69.6,127.4,69.7,127.6,69.7z"/>
		<path fill="#58585B" d="M136.2,64.7l-0.3,0.1c0.1,0,0.2,0.1,0.2,0.2C136.2,64.9,136.1,64.7,136.2,64.7z"/>
		<path fill="#58585B" d="M138.5,67.8c0-0.1,0.1,0,0.1-0.1l0-0.2C138.5,67.5,138.3,67.7,138.5,67.8z"/>
		<path fill="#58585B" d="M136.4,66.4c0,0.4,0.2,0.3,0.4,0.2c0,0,0,0,0,0C136.8,66,136.6,66.2,136.4,66.4z"/>
		<path fill="#58585B" d="M136.9,66.5c0.1,0,0.1,0,0.2,0C137.1,66.3,137,66.5,136.9,66.5z"/>
		<path fill="#58585B" d="M134.5,65.3c0.1,0.1,0.1-0.5,0.1-0.4C134.7,64.4,134,65.6,134.5,65.3z"/>
		<polygon fill="#58585B" points="136.6,67.7 136.5,67.2 136.4,67.6 		"/>
		<path fill="#58585B" d="M135.1,67.3l0.3,0.1c0-0.1,0-0.1,0.1-0.2C135.3,67.3,135.1,67.2,135.1,67.3z"/>
		<path fill="#58585B" d="M135.5,67.3c0.1,0,0.2,0,0.2-0.1C135.7,67.2,135.6,67.2,135.5,67.3z"/>
		<polygon fill="#58585B" points="136.2,67.9 136.1,67.8 135.9,67.7 		"/>
		<path fill="#58585B" d="M131.9,67.2l-0.3,0.1c0,0.2,0.1,0.3,0.2,0.2C131.8,67.5,132,67.4,131.9,67.2z"/>
		<path fill="#58585B" d="M132.9,68.6c-0.1-0.1-0.1-0.2-0.1-0.4l0,0.6L132.9,68.6z"/>
		<path fill="#58585B" d="M132,68.8c0,0.2-0.5,0.5-0.1,0.5C131.9,69.1,132.3,68.9,132,68.8z"/>
		<polygon fill="#58585B" points="127,68 127.1,68 127.1,66.9 		"/>
		<path fill="#58585B" d="M122.7,70.5c0.4,0.2,0.1-0.6,0.4-0.3c0.1-0.2-0.3-0.3-0.2-0.5C122.7,69.9,122.6,69.8,122.7,70.5z"/>
		<path fill="#58585B" d="M123,69.7c0,0,0.1-0.1,0.1-0.2C123,69.6,123,69.6,123,69.7z"/>
		<polygon fill="#58585B" points="74.2,65.2 73.9,65 74.1,65.4 		"/>
		<path fill="#58585B" d="M73.7,66l-0.1-0.7l-0.1,0.6C73.5,65.9,73.7,65.8,73.7,66z"/>
		<path fill="#58585B" d="M107.6,71.3l0-0.2c0-0.2-0.1-0.2-0.2-0.2L107.6,71.3z"/>
		<polygon fill="#58585B" points="104.2,70.8 104.3,70.8 104.2,70.2 		"/>
		<path fill="#58585B" d="M101.4,71.6c0.1,0,0.3-0.1,0.4-0.1C101.5,71.6,101.4,70.8,101.4,71.6z"/>
	</g>
	<g id="Stars_Group_1_">
		<path id="Star_24_" fill="#58585B" d="M67,84.5C67,84.5,67,84.5,67,84.5c0,0-0.1,0-0.1,0l-2.5-1.3l-2.5,1.3c-0.1,0-0.2,0-0.2,0
			c-0.1-0.1-0.1-0.1-0.1-0.2l0.5-2.8l-2-2c-0.1-0.1-0.1-0.2-0.1-0.2c0-0.1,0.1-0.1,0.2-0.2l2.8-0.4l1.3-2.5c0.1-0.2,0.3-0.2,0.4,0
			l1.3,2.5l2.8,0.4c0.1,0,0.2,0.1,0.2,0.2c0,0.1,0,0.2-0.1,0.2l-2,2l0.5,2.7c0,0,0,0.1,0,0.1C67.2,84.4,67.1,84.5,67,84.5z"/>
		<path id="Star_23_" fill="#58585B" d="M67,98.1C67,98.1,67,98.1,67,98.1c0,0-0.1,0-0.1,0l-2.5-1.3L61.8,98c-0.1,0-0.2,0-0.2,0
			c-0.1-0.1-0.1-0.1-0.1-0.2L62,95l-2-2c-0.1-0.1-0.1-0.2-0.1-0.2c0-0.1,0.1-0.1,0.2-0.2l2.8-0.4l1.3-2.5c0.1-0.2,0.3-0.2,0.4,0
			l1.3,2.5l2.8,0.4c0.1,0,0.2,0.1,0.2,0.2c0,0.1,0,0.2-0.1,0.2l-2,2l0.5,2.7c0,0,0,0.1,0,0.1C67.2,98,67.1,98.1,67,98.1z"/>
		<path id="Star_22_" fill="#58585B" d="M61.7,71c0,0-0.1,0-0.1,0c-0.1,0-0.1-0.1-0.1-0.2l0.5-2.8l-2-2c-0.1-0.1-0.1-0.2-0.1-0.2
			c0-0.1,0.1-0.1,0.2-0.2l2.8-0.4l1.3-2.5c0.1-0.2,0.3-0.2,0.4,0l1.3,2.5l2.8,0.4c0.1,0,0.2,0.1,0.2,0.2c0,0.1,0,0.2-0.1,0.2l-2,2
			l0.5,2.7c0,0,0,0.1,0,0.1c0,0.1-0.1,0.2-0.2,0.2c0,0-0.1,0-0.1,0l-2.5-1.3L61.8,71C61.8,71,61.8,71,61.7,71z"/>
		<path id="Star_21_" fill="#58585B" d="M25.7,71C25.7,71,25.7,71,25.7,71c0,0-0.1,0-0.1,0l-2.5-1.3L20.6,71c-0.1,0-0.2,0-0.2,0
			c-0.1,0-0.1-0.1-0.1-0.2l0.5-2.8l-2-2c-0.1-0.1-0.1-0.2-0.1-0.2c0-0.1,0.1-0.1,0.2-0.2l2.8-0.4l1.3-2.5c0.1-0.2,0.3-0.2,0.4,0
			l1.3,2.5l2.8,0.4c0.1,0,0.2,0.1,0.2,0.2c0,0.1,0,0.2-0.1,0.2l-2,2l0.5,2.7c0,0,0,0.1,0,0.1C26,70.9,25.9,71,25.7,71z"/>
		<path id="Star_20_" fill="#58585B" d="M25.7,84.5C25.7,84.5,25.7,84.5,25.7,84.5c0,0-0.1,0-0.1,0l-2.5-1.3l-2.5,1.3
			c-0.1,0-0.2,0-0.2,0c-0.1-0.1-0.1-0.1-0.1-0.2l0.5-2.8l-2-2c-0.1-0.1-0.1-0.2-0.1-0.2c0-0.1,0.1-0.1,0.2-0.2l2.8-0.4l1.3-2.5
			c0.1-0.2,0.3-0.2,0.4,0l1.3,2.5l2.8,0.4c0.1,0,0.2,0.1,0.2,0.2c0,0.1,0,0.2-0.1,0.2l-2,2l0.5,2.7c0,0,0,0.1,0,0.1
			C26,84.4,25.9,84.5,25.7,84.5z"/>
		<path id="Star_19_" fill="#58585B" d="M25.7,98.1C25.7,98.1,25.7,98.1,25.7,98.1c0,0-0.1,0-0.1,0l-2.5-1.3L20.6,98
			c-0.1,0-0.2,0-0.2,0c-0.1-0.1-0.1-0.1-0.1-0.2l0.5-2.8l-2-2c-0.1-0.1-0.1-0.2-0.1-0.2c0-0.1,0.1-0.1,0.2-0.2l2.8-0.4l1.3-2.5
			c0.1-0.2,0.3-0.2,0.4,0l1.3,2.5l2.8,0.4c0.1,0,0.2,0.1,0.2,0.2c0,0.1,0,0.2-0.1,0.2l-2,2l0.5,2.7c0,0,0,0.1,0,0.1
			C26,98,25.9,98.1,25.7,98.1z"/>
		<path id="Star_18_" fill="#58585B" d="M39.5,71C39.5,71,39.5,71,39.5,71c0,0-0.1,0-0.1,0l-2.5-1.3L34.4,71c-0.1,0-0.2,0-0.2,0
			c-0.1,0-0.1-0.1-0.1-0.2l0.5-2.8l-2-2c-0.1-0.1-0.1-0.2-0.1-0.2c0-0.1,0.1-0.1,0.2-0.2l2.8-0.4l1.3-2.5c0.1-0.2,0.3-0.2,0.4,0
			l1.3,2.5l2.8,0.4c0.1,0,0.2,0.1,0.2,0.2c0,0.1,0,0.2-0.1,0.2l-2,2l0.5,2.7c0,0,0,0.1,0,0.1C39.7,70.9,39.6,71,39.5,71z"/>
		<path id="Star_17_" fill="#58585B" d="M39.5,98.1C39.5,98.1,39.5,98.1,39.5,98.1c0,0-0.1,0-0.1,0l-2.5-1.3L34.4,98
			c-0.1,0-0.2,0-0.2,0C34,98,34,97.9,34,97.8l0.5-2.8l-2-2c-0.1-0.1-0.1-0.2-0.1-0.2c0-0.1,0.1-0.1,0.2-0.2l2.8-0.4l1.3-2.5
			c0-0.1,0.1-0.1,0.2-0.1l0,0c0.1,0,0.2,0,0.2,0.1l1.3,2.5l2.8,0.4c0.1,0,0.2,0.1,0.2,0.2c0,0.1,0,0.2-0.1,0.2l-2,2l0.5,2.7
			c0,0,0,0.1,0,0.1C39.7,98,39.6,98.1,39.5,98.1z"/>
		<path id="Star_16_" fill="#58585B" d="M53.2,84.5C53.2,84.5,53.2,84.5,53.2,84.5c0,0-0.1,0-0.1,0l-2.5-1.3l-2.5,1.3
			c-0.1,0-0.2,0-0.2,0c-0.1-0.1-0.1-0.1-0.1-0.2l0.5-2.8l-2-2c-0.1-0.1-0.1-0.2-0.1-0.2c0-0.1,0.1-0.1,0.2-0.2l2.8-0.4l1.3-2.5
			c0.1-0.2,0.3-0.2,0.4,0l1.3,2.5l2.8,0.4c0.1,0,0.2,0.1,0.2,0.2c0,0.1,0,0.2-0.1,0.2l-2,2l0.5,2.7c0,0,0,0.1,0,0.1
			C53.5,84.4,53.4,84.5,53.2,84.5z"/>
		<path id="Star_15_" fill="#58585B" d="M53.2,98.1C53.2,98.1,53.2,98.1,53.2,98.1c0,0-0.1,0-0.1,0l-2.5-1.3L48.1,98
			c-0.1,0-0.2,0-0.2,0c-0.1-0.1-0.1-0.1-0.1-0.2l0.5-2.8l-2-2c-0.1-0.1-0.1-0.2-0.1-0.2c0-0.1,0.1-0.1,0.2-0.2l2.8-0.4l1.3-2.5
			c0.1-0.2,0.3-0.2,0.4,0l1.3,2.5l2.8,0.4c0.1,0,0.2,0.1,0.2,0.2c0,0.1,0,0.2-0.1,0.2l-2,2l0.5,2.7c0,0,0,0.1,0,0.1
			C53.5,98,53.4,98.1,53.2,98.1z"/>
		<path id="Star_14_" fill="#58585B" d="M53.2,71C53.2,71,53.2,71,53.2,71c0,0-0.1,0-0.1,0l-2.5-1.3L48.1,71c-0.1,0-0.2,0-0.2,0
			c-0.1,0-0.1-0.1-0.1-0.2l0.5-2.8l-2-2c-0.1-0.1-0.1-0.2-0.1-0.2c0-0.1,0.1-0.1,0.2-0.2l2.8-0.4l1.3-2.5c0-0.1,0.1-0.1,0.2-0.1h0
			c0.1,0,0.2,0,0.2,0.1l1.3,2.5l2.8,0.4c0.1,0,0.2,0.1,0.2,0.2c0,0.1,0,0.2-0.1,0.2l-2,2l0.5,2.7c0,0,0,0.1,0,0.1
			C53.5,70.9,53.4,71,53.2,71z"/>
		<path id="Star_13_" fill="#58585B" d="M39.5,84.5C39.5,84.5,39.5,84.5,39.5,84.5c0,0-0.1,0-0.1,0l-2.5-1.3l-2.5,1.3
			c-0.1,0-0.2,0-0.2,0C34,84.4,34,84.3,34,84.3l0.5-2.8l-2-2c-0.1-0.1-0.1-0.2-0.1-0.2c0-0.1,0.1-0.1,0.2-0.2l2.8-0.4l1.3-2.5
			c0.1-0.2,0.3-0.2,0.4,0l1.3,2.5l2.8,0.4c0.1,0,0.2,0.1,0.2,0.2c0,0.1,0,0.2-0.1,0.2l-2,2l0.5,2.7c0,0,0,0.1,0,0.1
			C39.7,84.4,39.6,84.5,39.5,84.5z"/>
	</g>
</g>
</svg>
