<?xml version="1.0" encoding="utf-8"?>
<!-- Generator: Adobe Illustrator 22.0.1, SVG Export Plug-In . SVG Version: 6.00 Build 0)  -->
<svg version="1.1" id="Layer_1" xmlns="http://www.w3.org/2000/svg" xmlns:xlink="http://www.w3.org/1999/xlink" x="0px" y="0px"
	 viewBox="0 0 200 200" enable-background="new 0 0 200 200" xml:space="preserve">
<g id="Planes_Badge">
	<g id="Right_Line_Group">
		<path fill="#59595C" d="M145.6,60.4c-0.1-0.5-0.3,0.3-0.1-0.3C145.6,60.2,145.7,60.3,145.6,60.4z"/>
		<path fill="#59595C" d="M93.3,163.6c1-1.2,2.9-2.1,4.1-3.3c0.1-0.1,0.1,0.2,0.4-0.1c1.1-1.2,3.3-2.6,5.1-3.5l-0.1,0.1
			c0.3-0.2,0.6-0.6,0.9-0.8c0,0-0.1,0.1,0.1,0.1c0-0.2,0.5-0.5,0.6-0.7c0.2,0,0.2,0.1,0.4,0l0.1-0.3c0.3-0.7,1.3-0.9,1.8-1.6
			c0,0.1-0.1,0.1,0,0.1c1-1,2.4-2,3.6-3c0,0.1,0,0.2,0.1,0.2c0-0.2,0.3-0.5,0.6-0.8c0.3,0,0.5-0.6,0.9-0.8l0,0.1
			c0.2-0.4,0.5-0.2,0.6-0.6l0.3,0c0-0.3,0.5-0.2,0.7-0.5l0,0c0.2-0.2,0.4-0.2,0.6-0.4l0,0c0.4-0.4,0.8-0.5,0.7-0.7
			c0.3,0-0.4,0.4,0,0.4c1.5-1.4,3.2-2.6,4.8-3.8c0.2-0.1,0.4-0.1,0.5-0.1c0.1-0.2,0.6-0.5,0.7-0.7c-0.1,0,0.2,0,0.3,0
			c0.3-0.1,0.2-0.4,0.6-0.6c-0.1,0.1-0.1,0.2,0,0.3c0.2-0.4,0.6-0.6,0.8-0.9c0,0.1-0.1,0.1,0,0.2c0.2-0.4,0.7-0.4,0.9-0.8l0,0.2
			c0.6-0.2,0-0.3,0.5-0.6c-0.1,0.1,0,0.1,0,0.2c0.3-0.5,1-0.9,1.3-1.3c0,0,0,0.1,0,0.1c0.4-0.4,0.9-0.6,1.4-1.1
			c0.2-0.1,0.1,0.3,0.6-0.1c-0.2-0.2,0.7-0.7,0.3-0.7c0.4-0.3,1.1-0.6,1.3-0.9c-0.1,0.2,0.4,0.1,0.1,0.4l0.4,0
			c0,0.1-0.3,0.2-0.1,0.2c0.2-0.1,0.6-0.6,0.8-0.7c0.2-0.4,0.3-0.9,0.8-1.3c-0.2,0.3,0.3,0.2,0.2,0.3l0.4-1c0.2-0.1,0.2,0.2,0.4-0.1
			c-0.1-0.1,0-0.2,0-0.3c0.1,0,0.6-0.6,0.9-0.4c0.1,0-0.2,0.3,0,0.2c0.3-0.2,0.3-0.3,0.6-0.6l0,0c0.2-0.1,0.5-0.6,0.2-0.5
			c-0.1,0.1,0.2,0.1-0.1,0.2c0-0.2,0.4-0.6,0.7-0.8c-0.1,0.1,0,0.2,0,0.3c0.3-0.5,0.6-0.9,1-1.3c-0.1-0.1,0,0.3-0.1,0.3
			c0.7-0.3,0.9-1.2,1.6-1.4c-0.1,0.1-0.2-0.1-0.1-0.1c0.3-0.2,0.4-0.1,0.5-0.3c0.1,0.1,0.2-0.2,0.3-0.4c0-0.2,0.1,0,0,0.2
			c0.2-0.3,0.9-1.4,1.5-1.8c-0.1,0,0-0.5,0.2-0.7l0.1,0.2c0.2-0.1,0.3-0.5,0.5-0.4c0-0.4-0.7,1.2-0.5,0.7c0.2,0,0.2-0.7,0.3-0.5
			c0.2-0.3,0.2-0.7,0.6-0.8c-0.1,0.1,0.1,0.4,0.2,0.2c0.3-0.4,0-0.2,0.2-0.5l0.1-0.3c-0.1-0.1,0.3-0.3,0-0.3c0.2,0,0.3-0.6,0.5-0.4
			l0.2,0.2c0.1-0.2,0-0.4-0.1-0.6c0,0,0.1,0,0.1,0c-0.3-0.2,0.3-0.4,0.1-0.8c0.3-0.3,0.5-1,0.8-1.1c0-0.4,0.1-0.7,0.3-1
			c0,0.1,0,0.2,0,0.2c0.2-0.2,0.1-0.3,0.2-0.5c0,0.1,0.4-0.4,0.6-0.6c0-0.4-0.2-0.3-0.3-0.4c0.5-0.1,0.1-1,0.6-1.2
			c0,0.1,0,0.5,0.2,0.3c0.5-0.2-0.1-0.7,0.3-1.1l-0.4,0c0.3-0.1,0-0.8,0.3-0.6c-0.1-0.2,0.3-0.5-0.1-0.6c0.5-0.7,0.4-2,1-2.3
			c0-0.1,0.1-0.4-0.1-0.4c-0.2,0.2,0.1,0.3-0.1,0.3c0-0.1-0.1-0.1-0.1-0.2c0.1-0.2,0.2-0.4,0.4-0.1c0.3-0.5-0.4-0.7-0.2-1.4
			c0.1,0.1,0.2,0,0.2-0.2l-0.2-0.4c0.1-0.5,0.4-0.2,0.6-0.2c0-0.3,0.1-0.6-0.1-0.7l0.3-0.3c-0.2,0.2-0.1-0.2-0.2-0.4l0,0.1
			c0.1,0,0.1-0.3,0.1-0.5c-0.1,0-0.2,0.3-0.3,0.5c-0.1-0.1,0-0.3-0.1-0.5c0.2,0.1,0.2-0.4,0.3-0.6c0.1-0.2-0.2-0.3-0.2-0.3
			c0.1,0,0.1-0.4,0.2-0.2c0,0.1-0.1,0.2,0,0.3c0.1-0.1,0.3-0.1,0.2-0.4c-0.1-0.2-0.5,0-0.3-0.4c0,0.1,0.1,0.2,0.2,0.3l0.2-0.4
			l-0.2,0c0.1-0.1,0.1,0,0.1,0c-0.2-0.1,0-0.6-0.3-0.8c0-0.2,0.2-0.4,0.2-0.6l0,0c0.1-0.2,0.1-0.6-0.1-0.8l0,0c0-0.1,0-0.5-0.1-0.6
			c0.2-0.3,0.8-0.1,0.6-0.5c0-0.3-0.4-0.6-0.5-0.4c0.2-0.6-0.2-1.3,0.1-1.9c-0.1-0.1-0.1,0-0.2-0.2c0.1-0.9-0.3-1.9,0.1-2.7
			c0.1,0.3,0.2,0,0.3,0c-0.2-0.2,0.2-0.3-0.1-0.3c-0.2,0-0.3,0-0.4,0.3c-0.1-0.6-0.1-1.4,0-1.7c-0.1,0.2-0.2,0-0.2-0.1
			c0.3,0,0.4-0.4,0.2-0.7l-0.2,0l0.2-0.2c-0.1-0.1-0.4-0.1-0.2-0.4c0.1,0,0.2,0,0.2-0.1c-0.2-0.3-0.5-0.8-0.3-1.1l0.3-0.3
			c0-0.1-0.2-0.4-0.3-0.1c0.2-0.6,0.2-1,0.4-1.2c-0.7-1-0.7-2.5-0.7-3.7l0.2,0c0.1-0.3-0.3-0.2-0.2-0.4c0.1,0.1,0.3-0.3,0.5,0
			c0.1-0.5-0.3-0.6-0.4-0.9c-0.2,0,0.1,0.2-0.1,0.2c-0.1,0,0.1-0.6-0.2-0.7c0.1-0.1,0.3,0,0.5,0l-0.2-0.3c0.3-0.4,0.7,0.8,1.1,0.4
			l-0.1-0.3c0.3-0.3,0.4,0.7,0.5,0c-0.2-0.3-0.6-0.5-0.7-0.2c-0.1-0.6-0.7-0.2-0.7-0.9c0.2-0.2,0.1,0.5,0.3,0.4
			c0.2-0.3-0.2-0.6-0.1-0.9c-0.1,0.3-0.4,0.1-0.5-0.1c0.1-0.3,0.3,0.2,0.3-0.3c-0.2-0.1-0.3-0.5-0.4-0.1c-0.4-0.2,0.1-0.5-0.2-0.7
			c0.3-0.2,0.7,0.4,0.8-0.1c-0.3,0.1-0.4-0.6-0.8-0.3c0.1-0.2,0.3-0.2,0.5-0.1c0.2-0.3-0.5-0.7,0-0.8l-0.3-0.1
			c0.1-0.1,0.2-0.2,0.3-0.4c0-0.2-0.4-0.8,0-0.8c0-0.1,0-0.6-0.3-0.4c-0.2,0.4,0.2,0.4-0.2,0.6c0.3-0.3-0.1-0.5-0.2-0.7l0.2,0
			c-0.1-0.1,0-0.4-0.2-0.5c0.1,0.1,0.2,0,0.2-0.1l-0.3-0.1c-0.1-0.5,0.4-0.1,0.4-0.6l0.2,0.4c0-0.1,0.2-0.2,0.1-0.5
			c-0.2-0.1-0.5-0.2-0.7-0.3c-0.1-0.3,0.3-0.1,0-0.4l0.3,0.3c0.1,0.1,0.4-0.2,0.4-0.6c-0.1-0.2-0.4-0.6-0.6-0.2
			c0-0.2,0.1-0.4,0.3-0.3c-0.1-0.4-0.3,0.1-0.4-0.3c0.2-0.1,0.4-0.6,0.6-0.9l0.4,0.4l0-0.2c0.3,0.3,0.2-0.2,0.6,0
			c0-0.2-0.1-0.4-0.2-0.5c-0.5,0.5-0.8-0.5-1.2-0.4c-0.2-0.7,1.2-0.5,0.4-1.1c-0.1,0.1-0.5-0.2-0.4,0.2c0-0.4-0.5-0.3-0.3-0.8
			c0.2,0.4,0.5-0.4,0.8,0.1c-0.2,0-0.1,0.3-0.1,0.4c0.2-0.2,0.5,0,0.5-0.4c-0.1-0.3-0.1-0.6-0.3-0.5c-0.3,0,0,0.4-0.2,0.2
			c-0.1-0.5,0.3-0.6-0.2-0.8c0.1,0.3-0.2,0.4-0.4,0.4l-0.1-0.4l0.2,0.1c0.1-0.6-0.4-0.2-0.3-0.8l0.4-0.3c0.3,0.1-0.1,0.9,0.4,0.7
			c0-0.4-0.3-0.5-0.1-0.9c0,0.1,0.1,0.2,0.1,0.3c0-0.1,0.7-0.3,0.3-0.8c-0.2-0.3-0.2-0.1-0.4-0.1c-0.1-0.6-0.3-0.8-0.3-1.2
			c0.4,0.1,0-0.7,0.4-0.3c-0.2,0.2-0.2,1.1,0.2,1.3c0.4-0.2,0,0.5,0.4,0.6c0-0.5,0.4-0.5,0.7-0.6c0-0.1-0.1-0.3-0.2-0.3
			c-0.3,0-0.3,0.1-0.6,0.1c0.1-0.5-0.1-1.1-0.4-1.4c0.1-0.2,0.4-0.1,0.4,0.1c-0.1-0.6-0.1-1.3,0-2c-0.4,0.4-0.1-0.7-0.5-0.4
			c-0.1,0.3-0.4,0.6-0.6,0.5c0-0.2,0.2,0,0.3-0.1c-0.3-0.3,0.4-0.4,0-0.7c0.2,0.6,0.6,0.1,0.9,0.2c-0.2-0.4,0.3,0,0.2-0.4
			c-0.2-0.4-0.4-0.9-0.5-1.4c0.3-0.6,0-1.5-0.1-2c0.2-0.3,0.6-0.1,0.7-0.4c0-0.4-0.4,0.3-0.3-0.3l0.1,0c-0.1-0.2,0.3-1-0.4-1.1
			l0.5,0.1c0-0.1-0.1-0.2-0.1-0.3c0.1,0,0.3-0.1,0.4,0c0.3-0.3-0.1-0.7-0.1-1l-0.3,0.2c-0.2-0.6,0-1-0.1-1.6l0.3,0l-0.2-0.3
			c0.3,0.1,0.4-0.2,0.2-0.4l0.7,0.9c-0.1,0.3-0.3-0.3-0.6-0.1c-0.2,0.1-0.1,0.7,0.1,0.8c0-0.2,0-0.2-0.1-0.4
			c0.4-0.1,0.4,0.2,0.6,0.4c0-0.1,0.1-0.3,0-0.3c0.2,0.2,0.2,0.4,0.2,0.8c-0.1-0.2-0.2,0.1-0.3,0c0.3,0,0.4,0.4,0.4,0.8
			c-0.4,0.3,0.3,0.8,0.2,1.3c-0.3-0.2-0.6-0.5-0.7-0.8c-0.2,0.3,0,0.4-0.1,0.7c0.2,0.1,0.6,0.2,0.8,0.7l-0.2,0
			c0.1,0.4,0.5,0.4,0.4,0.8c-0.1,0.8-0.1,1.7-0.1,2.3l-0.2,0c0.5,0.3,0.2,1.2,0.5,1.6c-0.2,0.8,0.3,1.7-0.1,2.2
			c0.2,1.4,0.4,2.6,0.4,4.1l-0.3-0.2c0.3,0.3-0.2,0.2-0.1,0.4c0.3-0.3,0.4,0.3,0.6,0.5c-0.2,0.7,0.1,1.5,0.3,2.1l-0.2,0
			c0.4,0.6,0.1,1.3,0,2c-0.1,0.1-0.3,0.2-0.3,0.4c0.4,0.4,0.4,0.6,0.6,1.2c0,0.4-0.1,1.1-0.2,1.5c0.5,1.6,0.3,3.2,0.6,4.8l-0.2,0.1
			c0.6,1.6,0.1,3.6,0.4,4.9l-0.4-0.1c-0.1,0.4,0.1,1,0.4,0.9c-0.1,0.4,0.2,1.1-0.1,1.3c-0.1,0.4,0.2,0.5,0.3,0.9
			c-0.1,0.9-0.1,1.2,0,2l0-0.2c-0.1-0.1-0.3-0.1-0.3,0.1c0.1,0.3-0.1,1.1,0.4,0.8c-0.3,0.9,0.2,2.1-0.1,2.9c0.1-0.1,0.2,0.1,0.2,0.2
			c0,0.8-0.3,1.6-0.1,2.3c-0.1,0.1-0.2-0.2-0.2,0.1c0,0.2,0.2,0,0.2,0.2c0.2,1.3-0.4,2.6-0.5,3.8c0,2.1-0.5,4.3-1,6.2l-0.1,0
			c0.2,0.7-0.8,1.4-0.4,2.1c-0.1,0.1-0.2,0.6-0.4,0.4c0.1,0.6-0.7,1.4-0.7,2.2c0-0.1,0-0.1,0-0.2c-0.5,0.7-0.5,1.4-1,2.1
			c0-0.1,0-0.2,0-0.3c-0.3,0.2,0,0.8-0.5,0.8c-0.1,0.2,0.1,0.2,0.2,0.1c-1,1.6-1.7,3.3-2.8,4.9c-1,0.9-0.6-0.3-1,0.7
			c-0.1,0,0.1,0.1,0,0.1c-0.2,0.4-0.8,0.2-0.8,0.6c0.3,0.1,0,0.2,0.1,0.3c-0.7,0.5-0.9,0.5-1.3,1.1l-0.1-0.1c-0.3,0.8-1.1,1.3-1.3,2
			c-3.2,2.7-6.2,5.1-9.4,7.5c-3.2,2.3-6.3,4.6-9.6,6.8c-0.9,0.3-1,0.4-1.7,1.1c0-0.1,0.1-0.1,0-0.1c0.1,0.2-0.6,0.4-0.5,0.7
			c-1.2,0.8-2.3,1.7-3.5,2.5c0.2-0.2,0.2-0.4,0-0.2l-0.2,0.3l-0.1,0c-0.1,0.1-0.3,0.3,0,0.3c-3,2.4-6.3,4.2-9.3,6.4
			c-0.8,0.4-1.8,1.2-2.5,1.8c-2.5,1.4-4.7,2.8-7,4.6C92.3,165,92.4,164.4,93.3,163.6z"/>
		<path fill="#59595C" d="M145.7,61c-0.2,0.1-0.3,0.4-0.6,0.2C145.3,61.2,145.5,61,145.7,61z"/>
		<path fill="#59595C" d="M144,69.9c0.1,0-0.1,0.1-0.1,0.2c0-0.1-0.2-0.2-0.1-0.3C143.8,69.9,143.9,69.9,144,69.9z"/>
		<path fill="#59595C" d="M143.9,72.2c-0.2,0-0.3-0.5-0.4-0.8L143.9,72.2z"/>
		<path fill="#59595C" d="M143.3,74.3c-0.1,0.2-0.2,0.1-0.2-0.1C143.2,74.2,143.2,74.3,143.3,74.3z"/>
		<path fill="#59595C" d="M143.7,74.5c0,0.2-0.1,0.3-0.2,0.4C143.7,74.8,143.4,74.4,143.7,74.5z"/>
		<path fill="#59595C" d="M143.4,79.1c0,0.1,0.2,0.3,0,0.5C143.5,79.4,143.2,79,143.4,79.1z"/>
		<path fill="#59595C" d="M143.7,81.2c0,0.1,0,0.1,0,0.2c-0.1,0.1-0.2,0-0.2-0.1L143.7,81.2z"/>
		<polygon fill="#59595C" points="142.9,119.3 143,119.1 143.1,119.1 		"/>
		<path fill="#59595C" d="M133.6,132.6c-0.1,0.2-0.2,0-0.2,0C133.6,132.5,133.4,132.8,133.6,132.6z"/>
		<polygon fill="#59595C" points="126.7,138.6 126.8,138.6 126.9,138.8 		"/>
	</g>
	<g id="Left_Line_Group">
		<path fill="#59595C" d="M54.8,60.5c0.1-0.5,0.3,0.3,0.1-0.3C54.8,60.2,54.7,60.3,54.8,60.5z"/>
		<path fill="#59595C" d="M107.2,163.6c-1-1.2-2.9-2.1-4.1-3.3c-0.1-0.1-0.1,0.2-0.4-0.1c-1.1-1.2-3.3-2.6-5-3.5l0.1,0.1
			c-0.3-0.2-0.6-0.6-0.9-0.8c0,0,0.1,0.1-0.1,0.1c0-0.2-0.5-0.5-0.6-0.7c-0.2,0-0.2,0.1-0.4,0l-0.1-0.3c-0.3-0.7-1.3-0.9-1.8-1.6
			c0,0.1,0.1,0.1,0,0.1c-1-1-2.4-2-3.6-3c0,0.1,0,0.2-0.1,0.2c0-0.2-0.3-0.5-0.6-0.8c-0.3,0-0.5-0.6-0.9-0.8l0,0.1
			c-0.2-0.4-0.5-0.2-0.6-0.6l-0.3,0c0-0.3-0.5-0.2-0.7-0.5l0,0c-0.2-0.2-0.4-0.2-0.6-0.4l0,0c-0.4-0.4-0.8-0.5-0.7-0.7
			c-0.3,0,0.4,0.4,0,0.4c-1.5-1.4-3.2-2.6-4.8-3.8c-0.2-0.1-0.4-0.1-0.5-0.1c-0.1-0.2-0.6-0.5-0.7-0.7c0.1,0-0.2,0-0.3,0
			c-0.3-0.1-0.2-0.4-0.6-0.6c0.1,0.1,0.1,0.2,0,0.3c-0.2-0.3-0.6-0.6-0.8-0.9c0,0.1,0.1,0.1,0,0.2c-0.2-0.4-0.7-0.4-0.9-0.8l0,0.2
			c-0.6-0.2,0-0.3-0.5-0.6c0.1,0.1,0,0.1,0,0.2c-0.3-0.5-1-0.9-1.3-1.3c0,0,0,0.1,0,0.1c-0.4-0.4-0.9-0.6-1.3-1.1
			c-0.2-0.1-0.1,0.3-0.6-0.1c0.2-0.2-0.7-0.7-0.3-0.7c-0.4-0.3-1.1-0.7-1.3-0.9c0.1,0.2-0.4,0.1-0.1,0.4l-0.4-0.1
			c0,0.1,0.3,0.2,0.1,0.2c-0.2-0.1-0.6-0.6-0.8-0.7c-0.2-0.4-0.3-0.8-0.8-1.2c0.2,0.3-0.3,0.2-0.2,0.3l-0.4-1
			c-0.2-0.1-0.2,0.2-0.4-0.1c0.1-0.1,0-0.2-0.1-0.3c-0.1,0-0.6-0.6-0.9-0.4c-0.1,0,0.2,0.3,0,0.2c-0.3-0.2-0.3-0.3-0.6-0.6l0,0
			c-0.2-0.1-0.5-0.6-0.2-0.5c0.1,0.1-0.2,0.1,0.1,0.2c0-0.2-0.4-0.6-0.7-0.8c0.1,0.1,0,0.2,0,0.3c-0.3-0.5-0.6-0.9-1-1.3
			c0.1-0.1,0,0.3,0.1,0.3c-0.7-0.3-0.9-1.2-1.5-1.4c0.1,0.1,0.2-0.1,0.1-0.1c-0.3-0.2-0.4-0.1-0.5-0.3c-0.1,0.1-0.2-0.2-0.3-0.4
			c0-0.1-0.1,0,0,0.2c-0.2-0.3-0.9-1.4-1.5-1.8c0.1,0,0-0.5-0.1-0.7l-0.1,0.2c-0.2-0.1-0.3-0.5-0.5-0.4c0-0.4,0.7,1.2,0.5,0.7
			c-0.2,0-0.2-0.7-0.3-0.5c-0.2-0.3-0.2-0.7-0.5-0.8c0.1,0.1-0.1,0.4-0.2,0.1c-0.2-0.4,0-0.2-0.2-0.5l-0.1-0.3
			c0.2-0.1-0.2-0.4,0-0.3c-0.2,0-0.3-0.7-0.5-0.5l-0.2,0.2c-0.1-0.2,0.1-0.4,0.1-0.6c0,0-0.1,0-0.1,0c0.3-0.2-0.3-0.4-0.1-0.8
			c-0.3-0.3-0.5-1-0.8-1.1c0-0.4,0-0.7-0.2-1c0,0.1,0,0.2,0,0.2c-0.2-0.2-0.1-0.3-0.1-0.5c0,0.1-0.4-0.4-0.6-0.6
			c0-0.4,0.2-0.3,0.3-0.4c-0.5-0.2-0.1-1-0.5-1.2c0,0.1,0,0.5-0.2,0.3c-0.5-0.2,0.1-0.7-0.2-1.1l0.3,0c-0.3-0.2,0-0.8-0.3-0.6
			c0.1-0.2-0.2-0.5,0.1-0.6c-0.5-0.7-0.2-2-0.9-2.4c0-0.1-0.1-0.4,0.1-0.4c0.2,0.2-0.1,0.3,0,0.3c0-0.1,0.1-0.1,0.1-0.2
			c-0.1-0.2-0.2-0.4-0.4-0.2c-0.3-0.5,0.5-0.7,0.2-1.4c-0.1,0-0.2,0-0.2-0.2L57,113c-0.1-0.5-0.3-0.2-0.6-0.2c0-0.3,0-0.6,0.1-0.7
			l-0.3-0.3c0.2,0.2,0.1-0.2,0.2-0.3l0,0.1c-0.1,0-0.1-0.3,0-0.5c0.1,0,0.2,0.3,0.3,0.5c0.1-0.1,0.1-0.3,0.2-0.5
			c-0.2,0.1-0.2-0.4-0.2-0.6c-0.1-0.2,0.2-0.3,0.2-0.3c-0.1,0,0-0.4-0.2-0.2c0,0.1,0.1,0.2,0,0.3c-0.1-0.1-0.3-0.1-0.2-0.4
			c0.1-0.2,0.5,0,0.3-0.4c-0.1,0.1-0.1,0.1-0.2,0.2l-0.1-0.4l0.2,0c-0.1-0.1-0.1,0-0.1,0c0.2-0.1,0-0.6,0.3-0.7
			c0-0.2-0.2-0.4-0.2-0.6l0,0c-0.1-0.2-0.1-0.6,0.1-0.8l0,0c0-0.1,0-0.5,0.1-0.6c-0.2-0.3-0.8-0.1-0.5-0.5c0-0.4,0.4-0.5,0.5-0.4
			c-0.1-0.6,0.2-1.4-0.1-1.9c0.1-0.1,0.1,0,0.2-0.2c-0.1-0.9,0.3-2-0.2-2.7c-0.1,0.3-0.2,0-0.3,0c0.2-0.2-0.2-0.3,0.1-0.3
			c0.2,0,0.3,0,0.4,0.3c0.1-0.6,0.1-1.4-0.1-1.7c0.1,0.2,0.2,0,0.2-0.1c-0.3,0-0.4-0.4-0.3-0.7l0.2,0l-0.2-0.2
			c0.1-0.1,0.4-0.1,0.2-0.4c-0.1,0-0.2,0-0.2-0.1c0.2-0.3,0.4-0.8,0.3-1.1L56.7,96c0-0.1,0.2-0.4,0.3-0.1c-0.2-0.6-0.2-1-0.4-1.2
			c0.6-1,0.7-2.5,0.6-3.7L57,91c-0.1-0.3,0.3-0.2,0.2-0.4c-0.1,0.1-0.3-0.2-0.5,0c-0.2-0.5,0.3-0.6,0.3-0.9c0.2,0-0.1,0.2,0.1,0.2
			c0.1-0.1-0.1-0.6,0.2-0.7c-0.1-0.1-0.3,0-0.5,0L57,89c-0.4-0.3-0.6,0.8-1.1,0.4l0-0.3c-0.3-0.2-0.4,0.7-0.5,0
			c0.1-0.3,0.6-0.5,0.7-0.3c0.1-0.6,0.7-0.3,0.7-0.9c-0.2-0.2,0,0.5-0.3,0.4c-0.2-0.3,0.1-0.6,0.1-0.9c0.1,0.3,0.4,0,0.5-0.1
			c-0.1-0.3-0.3,0.2-0.3-0.2c0.2-0.1,0.3-0.5,0.4-0.1c0.4-0.2-0.1-0.5,0.2-0.7c-0.3-0.1-0.7,0.5-0.8,0c0.3,0.1,0.4-0.6,0.8-0.4
			c-0.1-0.2-0.3-0.2-0.5-0.1c-0.2-0.3,0.5-0.7,0-0.8l0.3-0.1c-0.1-0.1-0.2-0.2-0.3-0.4c0-0.2,0.4-0.8,0-0.8c0-0.1,0-0.6,0.3-0.4
			c0.2,0.3-0.2,0.4,0.2,0.6c-0.3-0.2,0-0.5,0.2-0.7l-0.2,0c0.1-0.1,0-0.4,0.2-0.5c-0.1,0.1-0.2,0-0.2-0.1l0.3-0.1
			c0.1-0.5-0.4-0.1-0.4-0.6L57,82.5c0-0.1-0.2-0.2-0.1-0.5c0.2-0.1,0.5-0.3,0.7-0.3c0.1-0.3-0.3-0.1,0-0.4l-0.3,0.3
			c-0.1,0.1-0.4-0.2-0.4-0.6c0.1-0.2,0.4-0.6,0.5-0.2c0-0.2-0.1-0.4-0.3-0.3c0.1-0.4,0.3,0.1,0.4-0.3c-0.2-0.1-0.4-0.6-0.6-0.9
			l-0.4,0.4l0-0.2c-0.3,0.3-0.2-0.2-0.6,0c-0.1-0.2,0.1-0.4,0.1-0.5c0.5,0.5,0.7-0.5,1.2-0.4c0.1-0.7-1.2-0.4-0.4-1.1
			c0.1,0.1,0.5-0.2,0.4,0.2c0-0.4,0.5-0.3,0.3-0.8c-0.2,0.4-0.5-0.4-0.8,0.1c0.2,0,0.1,0.3,0.1,0.4c-0.2-0.2-0.5,0-0.5-0.4
			c0-0.3,0.1-0.6,0.3-0.6c0.3,0,0,0.4,0.3,0.2c0.1-0.5-0.3-0.6,0.2-0.8c0,0.3,0.2,0.4,0.4,0.4l0.1-0.4L57.5,76
			c-0.1-0.6,0.3-0.2,0.3-0.8L57.5,75c-0.3,0.1,0.1,0.8-0.4,0.7c0-0.4,0.2-0.5,0.1-0.9c0,0.1-0.1,0.2-0.1,0.3c0-0.1-0.7-0.3-0.3-0.8
			c0.2-0.3,0.2-0.1,0.4-0.1c0.1-0.6,0.3-0.8,0.3-1.2c-0.4,0.1,0-0.7-0.4-0.3c0.2,0.2,0.2,1.1-0.2,1.3c-0.4-0.2,0.1,0.5-0.4,0.6
			c0-0.5-0.5-0.5-0.7-0.5c0-0.1,0.1-0.3,0.2-0.3c0.3-0.1,0.3,0.1,0.6,0.1c-0.1-0.5,0.1-1.1,0.4-1.4c-0.1-0.2-0.4-0.1-0.4,0.1
			c0.1-0.6,0-1.3,0-2c0.5,0.4,0.1-0.7,0.5-0.4c0.1,0.3,0.4,0.6,0.6,0.4c0-0.2-0.2,0-0.3-0.1c0.3-0.3-0.4-0.4,0-0.7
			c-0.2,0.6-0.6,0.1-0.9,0.2c0.2-0.4-0.3,0-0.3-0.4c0.2-0.4,0.4-0.9,0.4-1.4c-0.3-0.6,0-1.5,0-2c-0.2-0.3-0.6-0.1-0.7-0.4
			c0-0.4,0.4,0.3,0.3-0.3l-0.1,0.1c0.1-0.2-0.3-1,0.3-1.1l-0.4,0.2c0-0.1,0.1-0.2,0.1-0.3c-0.1,0-0.3-0.1-0.4,0
			c-0.3-0.3,0-0.7,0.1-1l0.3,0.2c0.2-0.6-0.1-1,0-1.6l-0.3,0l0.2-0.3c-0.3,0.1-0.4-0.2-0.2-0.4L55,62.3c0.2,0.2,0.3-0.3,0.6-0.1
			c0.2,0.1,0.2,0.7-0.1,0.8c0-0.2,0-0.2,0.1-0.4c-0.4-0.1-0.4,0.2-0.6,0.4c0-0.1-0.1-0.3,0-0.3c-0.2,0.2-0.2,0.4-0.2,0.8
			c0.1-0.2,0.2,0.1,0.3,0c-0.3,0-0.4,0.4-0.3,0.8c0.4,0.3-0.2,0.8-0.1,1.3c0.3-0.2,0.6-0.5,0.7-0.8c0.2,0.3,0,0.4,0.2,0.7
			c-0.2,0.2-0.6,0.3-0.8,0.7l0.2,0c-0.1,0.4-0.5,0.4-0.4,0.9c0.1,0.8,0.1,1.7,0.2,2.3l0.2,0c-0.5,0.3-0.2,1.2-0.4,1.6
			c0.2,0.8-0.2,1.7,0.2,2.1c-0.2,1.4-0.3,2.6-0.2,4.1l0.3-0.2c-0.2,0.3,0.2,0.2,0.1,0.4c-0.3-0.3-0.3,0.4-0.5,0.5
			c0.3,0.6,0,1.5-0.2,2.1l0.2,0c-0.4,0.6,0,1.3,0,2c0.1,0.1,0.3,0.2,0.3,0.4c-0.4,0.4-0.3,0.6-0.5,1.2c0,0.4,0.1,1.1,0.2,1.5
			c-0.5,1.6-0.2,3.2-0.4,4.8l0.2,0.1c-0.5,1.6,0,3.6-0.3,4.9l0.4-0.1c0.1,0.4-0.1,1-0.4,0.9c0.1,0.4-0.2,1.1,0.1,1.3
			c0.1,0.4-0.2,0.5-0.2,0.9c0.2,0.9,0.1,1.2,0.1,2l0-0.2c0.1-0.1,0.3-0.1,0.3,0.1c-0.1,0.3,0.1,1.1-0.4,0.8c0.3,0.9-0.2,2.1,0.2,2.9
			c-0.1-0.1-0.2,0.1-0.2,0.2c0,0.8,0.3,1.6,0.1,2.2c0.1,0.1,0.2-0.2,0.2,0.1c0,0.2-0.2,0-0.2,0.2c-0.2,1.3,0.3,2.6,0.3,3.7
			c-0.1,2.1,0.3,4.3,0.6,6.2l0.1,0c-0.2,0.7,0.7,1.5,0.3,2.1c0.1,0.1,0.2,0.6,0.3,0.4c-0.1,0.6,0.6,1.4,0.6,2.2c0-0.1,0-0.1,0-0.2
			c0.4,0.7,0.4,1.4,0.9,2.1c0-0.1,0-0.2,0-0.3c0.3,0.2,0,0.8,0.4,0.8c0.1,0.2-0.1,0.2-0.2,0.1c0.9,1.6,1.6,3.4,2.7,5
			c1,1,0.6-0.3,1,0.7c0.1,0-0.1,0.1,0,0.1c0.2,0.4,0.7,0.2,0.8,0.6c-0.3,0.1,0,0.2-0.1,0.3c0.7,0.5,0.9,0.5,1.3,1.1l0.1-0.1
			c0.3,0.8,1.1,1.3,1.3,2c3.2,2.7,6.2,5.1,9.4,7.5c3.2,2.2,6.2,4.6,9.6,6.8c0.9,0.3,1,0.4,1.7,1.1c0-0.1-0.1-0.1,0-0.1
			c-0.1,0.2,0.6,0.4,0.5,0.7c1.2,0.8,2.3,1.7,3.5,2.5c-0.2-0.2-0.2-0.4,0-0.2l0.2,0.3l0.1,0c0.1,0.1,0.3,0.3,0,0.3
			c3,2.3,6.3,4.2,9.3,6.4c0.8,0.4,1.8,1.2,2.5,1.8c2.5,1.4,4.7,2.8,6.9,4.6C108.1,165,108.1,164.4,107.2,163.6z"/>
		<path fill="#59595C" d="M54.8,61c0.2,0.1,0.3,0.4,0.6,0.2C55.1,61.2,54.9,61,54.8,61z"/>
		<path fill="#59595C" d="M56.7,69.9c-0.1,0,0.1,0.1,0.1,0.2c0-0.1,0.2-0.2,0.1-0.3C56.9,69.8,56.8,69.8,56.7,69.9z"/>
		<path fill="#59595C" d="M56.8,72.1c0.2,0,0.3-0.5,0.3-0.8L56.8,72.1z"/>
		<path fill="#59595C" d="M57.5,74.2c0.1,0.2,0.2,0.1,0.2-0.1C57.6,74.1,57.6,74.2,57.5,74.2z"/>
		<path fill="#59595C" d="M57.1,74.4c0,0.2,0.1,0.3,0.2,0.3C57.1,74.7,57.4,74.3,57.1,74.4z"/>
		<path fill="#59595C" d="M57.5,78.9c0,0.1-0.1,0.3,0,0.5C57.4,79.3,57.8,78.9,57.5,78.9z"/>
		<path fill="#59595C" d="M57.3,81.1c0,0.1,0,0.1,0,0.2c0.1,0.1,0.2,0,0.2-0.1L57.3,81.1z"/>
		<polygon fill="#59595C" points="58,119.3 58,119.1 57.9,119.1 		"/>
		<path fill="#59595C" d="M66.9,132.7c0.1,0.2,0.2,0,0.2,0C67,132.6,67.1,132.9,66.9,132.7z"/>
		<polygon fill="#59595C" points="73.8,138.7 73.7,138.6 73.6,138.8 		"/>
	</g>
	<g id="Stars_Group_3_">
		<path id="Star_36_" fill="#58585B" d="M100.8,133.4L100.8,133.4c-0.2,0-0.4,0.1-0.5,0.3l-1.7,3.4l-3.7,0.6c-0.2,0-0.4,0.2-0.4,0.4
			c-0.1,0.2,0,0.4,0.1,0.5l2.7,2.6l-0.6,3.7c0,0.2,0,0.4,0.2,0.5c0.1,0.1,0.2,0.1,0.3,0.1c0.1,0,0.2,0,0.2-0.1l3.3-1.8l3.3,1.8
			c0.1,0,0.2,0.1,0.2,0.1c0.1,0,0.2,0,0.3-0.1c0.2-0.1,0.2-0.3,0.2-0.5l-0.6-3.7l2.7-2.6c0.1-0.1,0.2-0.3,0.1-0.5
			c-0.1-0.2-0.2-0.3-0.4-0.4l-3.7-0.6l-1.7-3.4C101.2,133.5,101,133.4,100.8,133.4L100.8,133.4z"/>
		<path id="Star_35_" fill="#58585B" d="M114.6,117.1L114.6,117.1c-0.2,0-0.4,0.1-0.5,0.3l-1.7,3.4l-3.7,0.5c-0.2,0-0.4,0.2-0.4,0.4
			c-0.1,0.2,0,0.4,0.1,0.5l2.7,2.6l-0.6,3.7c0,0.2,0,0.4,0.2,0.5c0.1,0.1,0.2,0.1,0.3,0.1c0.1,0,0.2,0,0.2-0.1l3.3-1.8l3.3,1.8
			c0.1,0,0.2,0.1,0.2,0.1c0.1,0,0.2,0,0.3-0.1c0.2-0.1,0.2-0.3,0.2-0.5l-0.6-3.7l2.7-2.6c0.1-0.1,0.2-0.3,0.1-0.5
			c-0.1-0.2-0.2-0.3-0.4-0.4l-3.7-0.5l-1.7-3.4C115,117.2,114.8,117.1,114.6,117.1L114.6,117.1z"/>
		<path id="Star_34_" fill="#58585B" d="M87,117.1c-0.2,0-0.4,0.1-0.5,0.3l-1.7,3.4l-3.7,0.6c-0.2,0-0.4,0.2-0.4,0.4
			c-0.1,0.2,0,0.4,0.1,0.5l2.7,2.6l-0.6,3.7c0,0.2,0,0.4,0.2,0.5c0.1,0.1,0.2,0.1,0.3,0.1c0.1,0,0.2,0,0.2-0.1l3.3-1.8l3.3,1.8
			c0.1,0,0.2,0.1,0.2,0.1c0.1,0,0.2,0,0.3-0.1c0.2-0.1,0.2-0.3,0.2-0.5l-0.6-3.7l2.7-2.6c0.1-0.1,0.2-0.3,0.1-0.5
			c-0.1-0.2-0.2-0.3-0.4-0.4l-3.7-0.6l-1.7-3.4C87.4,117.2,87.2,117.1,87,117.1L87,117.1z"/>
		<path id="Star_33_" fill="#58585B" d="M128.2,100.7L128.2,100.7c-0.2,0-0.4,0.1-0.5,0.3l-1.7,3.4l-3.7,0.5c-0.2,0-0.4,0.2-0.4,0.4
			c-0.1,0.2,0,0.4,0.1,0.5l2.7,2.6l-0.6,3.7c0,0.2,0,0.4,0.2,0.5c0.1,0.1,0.2,0.1,0.3,0.1c0.1,0,0.2,0,0.2-0.1l3.3-1.8l3.3,1.8
			c0.1,0,0.2,0.1,0.2,0.1c0.1,0,0.2,0,0.3-0.1c0.2-0.1,0.2-0.3,0.2-0.5l-0.6-3.7l2.7-2.6c0.1-0.1,0.2-0.3,0.1-0.5
			c-0.1-0.2-0.2-0.3-0.4-0.4l-3.7-0.5l-1.7-3.4C128.6,100.8,128.4,100.7,128.2,100.7L128.2,100.7z"/>
		<path id="Star_32_" fill="#58585B" d="M100.8,100.7L100.8,100.7c-0.2,0-0.4,0.1-0.5,0.3l-1.7,3.4l-3.7,0.5c-0.2,0-0.4,0.2-0.4,0.4
			c-0.1,0.2,0,0.4,0.1,0.5l2.7,2.6l-0.6,3.7c0,0.2,0,0.4,0.2,0.5c0.1,0.1,0.2,0.1,0.3,0.1c0.1,0,0.2,0,0.2-0.1l3.3-1.8l3.3,1.8
			c0.1,0,0.2,0.1,0.2,0.1c0.1,0,0.2,0,0.3-0.1c0.2-0.1,0.2-0.3,0.2-0.5l-0.6-3.7l2.7-2.6c0.1-0.1,0.2-0.3,0.1-0.5
			c-0.1-0.2-0.2-0.3-0.4-0.4l-3.7-0.5l-1.7-3.4C101.2,100.8,101,100.7,100.8,100.7L100.8,100.7z"/>
		<path id="Star_31_" fill="#58585B" d="M73.4,100.7c-0.2,0-0.4,0.1-0.5,0.3l-1.7,3.4l-3.7,0.5c-0.2,0-0.4,0.2-0.4,0.4
			c-0.1,0.2,0,0.4,0.1,0.5l2.7,2.6l-0.6,3.7c0,0.2,0,0.4,0.2,0.5c0.1,0.1,0.2,0.1,0.3,0.1c0.1,0,0.2,0,0.2-0.1l3.3-1.8l3.3,1.8
			c0.1,0,0.2,0.1,0.2,0.1c0.1,0,0.2,0,0.3-0.1c0.2-0.1,0.2-0.3,0.2-0.5l-0.6-3.7l2.7-2.6c0.1-0.1,0.2-0.3,0.1-0.5
			c-0.1-0.2-0.2-0.3-0.4-0.4l-3.7-0.5l-1.7-3.4C73.8,100.8,73.6,100.7,73.4,100.7L73.4,100.7z"/>
	</g>
	<g id="USA_Group">
		<path id="A_1_" fill="#58585B" d="M119.3,88.5l-1.1,3.5h-6.9l8.6-24.5h6.9l8.3,24.5h-7.2l-1-3.5H119.3z M123.2,75.5l-2.2,7.2h4.3
			L123.2,75.5z"/>
		<path id="S_1_" fill="#58585B" d="M109.7,70l-2.4,6.2c-2.1-1.4-5.2-2.9-7-2.9c-0.8,0-1.3,0.3-1.3,1c0,3.1,10.6,1.2,10.6,10
			c0,5.5-4,7.9-8.6,7.9c-3.6,0-7.5-1.4-10.2-3.9l2.5-6.1c2.1,2.1,5.7,3.8,7.8,3.8c1,0,1.6-0.4,1.6-1.3c0-3.2-10.6-1.1-10.6-9.7
			c0-4.9,3.4-8,8.7-8C104,67.1,107.4,68.2,109.7,70z"/>
		<path id="U_2_" fill="#58585B" d="M87.3,81.5c0,6.5-3.8,10.7-9.7,10.7c-5.9,0-9.9-4.2-9.9-10.7V67.4h6.8v14.1c0,2.4,1.5,4,3.1,4
			c1.7,0,2.9-1.5,2.9-4V67.4h6.8V81.5z"/>
	</g>
	<path id="Plane_Right" fill="#59595C" d="M152.3,48.9l-0.6-0.4c-1.2-0.8-3.7-2.3-4.7-3.1c-0.1-0.8-0.2-3.1-0.3-4.1l0-0.6
		c0-0.5-0.2-1-0.5-1.3c-0.2-0.2-0.3-0.6-0.4-0.9c-0.2-0.8-0.5-2.2-0.6-3.1c0-0.1-0.1-0.5-0.4-0.5c-0.3,0-0.4,0.4-0.4,0.5
		c-0.2,0.8-0.4,2.2-0.6,3.1c-0.1,0.2-0.2,0.6-0.4,0.9c-0.2,0.3-0.4,0.8-0.5,1.3l0,0.6c-0.1,1.1-0.3,3.3-0.3,4.1
		c-1,0.7-3.5,2.3-4.7,3.1l-0.6,0.4c-0.4,0.2-0.7,0.5-0.6,1.2c0,0.3,0.2,1.3,0.2,1.3c0,0.1,0.1,0.2,0.3,0.2l6-0.7v1.9
		c-0.4,0.3-1.6,1.2-1.9,1.4c-0.6,0.4-0.9,0.9-0.9,1.5v1.1c0,0.1,0,0.2,0.1,0.2c0.1,0,0.2,0.1,0.2,0c0,0,1.6-0.7,2.6-1.2
		c0.3-0.2,0.8-0.2,0.8-0.2v0.3c0,0.1,0.1,0.3,0.3,0.3c0.1,0,0.3-0.1,0.3-0.3v-0.3h0.4v0.3c0,0.1,0.1,0.3,0.3,0.3
		c0.1,0,0.3-0.1,0.3-0.3v-0.3c0.2,0,0.6,0.1,0.8,0.2c1,0.5,2.6,1.2,2.6,1.2c0,0,0.1,0,0.1,0c0,0,0.1,0,0.1,0c0.1,0,0.1-0.1,0.1-0.2
		v-1.1c0-0.7-0.2-1.1-0.9-1.5c-0.3-0.2-1.5-1.1-1.9-1.4v-1.9l6,0.7c0.1,0,0.3-0.1,0.3-0.2c0,0,0.1-0.9,0.2-1.3
		C153,49.4,152.6,49.1,152.3,48.9z"/>
	<path id="Plane_Left" fill="#59595C" d="M62.9,48.9l-0.6-0.4c-1.2-0.8-3.7-2.3-4.7-3.1c-0.1-0.8-0.2-3.1-0.3-4.1l0-0.6
		c0-0.5-0.2-1-0.5-1.3c-0.2-0.2-0.3-0.6-0.4-0.9c-0.2-0.8-0.5-2.2-0.6-3.1c0-0.1-0.1-0.5-0.4-0.5c-0.3,0-0.4,0.4-0.4,0.5
		c-0.2,0.8-0.4,2.2-0.6,3.1c-0.1,0.2-0.2,0.6-0.4,0.9c-0.2,0.3-0.4,0.8-0.5,1.3l0,0.6c-0.1,1.1-0.3,3.3-0.3,4.1
		c-1,0.7-3.5,2.3-4.7,3.1l-0.6,0.4c-0.4,0.2-0.7,0.5-0.6,1.2c0,0.3,0.2,1.3,0.2,1.3c0,0.1,0.1,0.2,0.3,0.2l6-0.7v1.9
		c-0.4,0.3-1.6,1.2-1.9,1.4c-0.6,0.4-0.9,0.9-0.9,1.5v1.1c0,0.1,0,0.2,0.1,0.2c0,0,0.1,0,0.1,0c0,0,0.1,0,0.1,0c0,0,1.6-0.7,2.6-1.2
		c0.3-0.1,0.7-0.2,0.8-0.2v0.3c0,0.1,0.1,0.3,0.3,0.3c0.1,0,0.3-0.1,0.3-0.3v-0.3h0.4v0.3c0,0.1,0.1,0.3,0.3,0.3
		c0.1,0,0.3-0.1,0.3-0.3v-0.3c0,0,0.5,0,0.8,0.2c1,0.5,2.6,1.2,2.6,1.2c0.1,0,0.2,0,0.2,0c0.1,0,0.1-0.1,0.1-0.2v-1.1
		c0-0.7-0.2-1.1-0.9-1.5c-0.3-0.2-1.5-1.1-1.9-1.4v-1.9l6,0.7c0.1,0,0.3-0.1,0.3-0.2c0,0,0.1-0.9,0.2-1.3
		C63.6,49.4,63.2,49.1,62.9,48.9z"/>
</g>
</svg>
