<?xml version="1.0" encoding="utf-8"?>
<!-- Generator: Adobe Illustrator 22.0.1, SVG Export Plug-In . SVG Version: 6.00 Build 0)  -->
<svg version="1.1" id="Layer_1" xmlns="http://www.w3.org/2000/svg" xmlns:xlink="http://www.w3.org/1999/xlink" x="0px" y="0px"
	 viewBox="0 0 200 200" enable-background="new 0 0 200 200" xml:space="preserve">
<g id="Drum">
	<path id="Drum_1_" fill="#59595C" d="M147,84.6v-2.7c0-2.8-2.3-5-5-5H58c-2.8,0-5,2.3-5,5v2.7c0,2.4,1.8,4.5,4.1,4.9v50.8
		c-2.3,0.4-4.1,2.5-4.1,4.9v2.7c0,2.8,2.3,5,5,5h84c2.8,0,5-2.3,5-5v-2.7c0-2.4-1.8-4.5-4.1-4.9V89.5C145.3,89.1,147,87,147,84.6z
		 M143.8,145.3v2.7c0,1-0.8,1.8-1.8,1.8H58c-1,0-1.8-0.8-1.8-1.8v-2.7c0-1,0.8-1.8,1.8-1.8h4.9c0.9,0,1.6-0.7,1.6-1.6
		c0-0.9-0.7-1.6-1.6-1.6h-2.6V91.9c0.6,0.3,1.2,0.5,1.9,0.5c0.9,0,1.8-0.3,2.5-0.8l10.4,48.7h-5.9c-0.9,0-1.6,0.7-1.6,1.6
		c0,0.9,0.7,1.6,1.6,1.6h6.2c0.6,1.6,2.2,2.7,4.1,2.7c1.8,0,3.4-1.1,4.1-2.7h12c0.9,0,1.6-0.7,1.6-1.6c0-0.9-0.7-1.6-1.6-1.6H83.8
		l13.5-48.8c0.7,0.6,1.7,0.9,2.7,0.9c1,0,1.9-0.4,2.7-0.9l13.5,48.8h-11.6c-0.9,0-1.6,0.7-1.6,1.6c0,0.9,0.7,1.6,1.6,1.6h12
		c0.6,1.6,2.2,2.7,4.1,2.7c1.8,0,3.4-1.1,4.1-2.7h6.2c0.9,0,1.6-0.7,1.6-1.6c0-0.9-0.7-1.6-1.6-1.6H125l10.2-48.7
		c0.7,0.5,1.6,0.8,2.5,0.8c0.7,0,1.3-0.2,1.9-0.5v48.3h-1.9c-0.9,0-1.6,0.7-1.6,1.6c0,0.9,0.7,1.6,1.6,1.6h4.3
		C143,143.5,143.8,144.3,143.8,145.3z M60.3,88c0-1.1,0.9-1.9,1.9-1.9c1.1,0,1.9,0.9,1.9,1.9c0,1.1-0.9,1.9-1.9,1.9
		C61.2,89.9,60.3,89,60.3,88z M77.5,141.9c0-1.1,0.9-1.9,1.9-1.9c1.1,0,1.9,0.9,1.9,1.9c0,1.1-0.9,1.9-1.9,1.9
		C78.4,143.8,77.5,142.9,77.5,141.9z M98.1,88c0-1.1,0.9-1.9,1.9-1.9c1.1,0,1.9,0.9,1.9,1.9c0,1.1-0.9,1.9-1.9,1.9
		C98.9,89.9,98.1,89,98.1,88z M118.8,141.9c0-1.1,0.9-1.9,1.9-1.9c1.1,0,1.9,0.9,1.9,1.9c0,1.1-0.9,1.9-1.9,1.9
		C119.6,143.8,118.8,142.9,118.8,141.9z M135.9,88c0-1.1,0.9-1.9,1.9-1.9c1.1,0,1.9,0.9,1.9,1.9c0,1.1-0.9,1.9-1.9,1.9
		C136.7,89.9,135.9,89,135.9,88z M142,86.3h-0.2c-0.6-1.6-2.2-2.8-4.1-2.8c-1.8,0-3.4,1.1-4.1,2.8h-10.1c-0.9,0-1.6,0.7-1.6,1.6
		c0,0.9,0.7,1.6,1.6,1.6h9.9l-10.3,48.7c-0.7-0.5-1.6-0.8-2.6-0.8c-1.1,0-2,0.4-2.8,1l-13.5-48.9h9.8c0.9,0,1.6-0.7,1.6-1.6
		c0-0.9-0.7-1.6-1.6-1.6h-10.1c-0.6-1.6-2.2-2.8-4.1-2.8c-1.8,0-3.4,1.1-4.1,2.8H85.8c-0.9,0-1.6,0.7-1.6,1.6c0,0.9,0.7,1.6,1.6,1.6
		h9.8l-13.5,48.8c-0.7-0.6-1.7-0.9-2.7-0.9c-0.9,0-1.8,0.3-2.5,0.8L66.5,89.6h9.9c0.9,0,1.6-0.7,1.6-1.6c0-0.9-0.7-1.6-1.6-1.6H66.3
		c-0.6-1.6-2.2-2.8-4.1-2.8c-1.8,0-3.4,1.1-4.1,2.8H58c-1,0-1.8-0.8-1.8-1.8v-2.7c0-1,0.8-1.8,1.8-1.8h84c1,0,1.8,0.8,1.8,1.8v2.7
		C143.8,85.6,143,86.3,142,86.3z"/>
	<path id="Star_106_" fill="#59595C" d="M81.3,97.6c-0.1-0.2-0.2-0.3-0.4-0.3c0,0,0,0,0,0c-0.2,0-0.3,0.1-0.4,0.3l-1.5,3.1l-3.4,0.5
		c-0.2,0-0.3,0.2-0.4,0.3c-0.1,0.2,0,0.4,0.1,0.5l2.5,2.4l-0.6,3.4c0,0.2,0,0.3,0.2,0.5c0.1,0.1,0.2,0.1,0.3,0.1
		c0.1,0,0.1,0,0.2-0.1l3.1-1.6l3.1,1.6c0.1,0,0.1,0.1,0.2,0.1c0.1,0,0.2,0,0.3-0.1c0.1-0.1,0.2-0.3,0.2-0.5l-0.6-3.4l2.5-2.4
		c0.1-0.1,0.2-0.3,0.1-0.5c-0.1-0.2-0.2-0.3-0.4-0.3l-3.4-0.5L81.3,97.6z"/>
	<path id="Star_105_" fill="#59595C" d="M120.6,97.4c-0.2,0-0.3,0.1-0.4,0.3l-1.5,3.1l-3.4,0.5c-0.2,0-0.3,0.1-0.4,0.3
		c-0.1,0.2,0,0.4,0.1,0.5l2.5,2.4l-0.6,3.4c0,0.2,0,0.3,0.2,0.5c0.1,0.1,0.2,0.1,0.3,0.1c0.1,0,0.1,0,0.2-0.1l3.1-1.6l3.1,1.6
		c0.1,0,0.1,0.1,0.2,0.1c0.1,0,0.2,0,0.3-0.1c0.1-0.1,0.2-0.3,0.2-0.5l-0.6-3.4l2.5-2.4c0.1-0.1,0.2-0.3,0.1-0.5
		c-0.1-0.2-0.2-0.3-0.4-0.3l-3.4-0.5l-1.5-3.1C120.9,97.5,120.8,97.4,120.6,97.4z"/>
	<path id="Star_104_" fill="#59595C" d="M103.3,132.2c0.1,0,0.2,0,0.3-0.1c0.1-0.1,0.2-0.3,0.2-0.5l-0.6-3.4l2.5-2.4
		c0.1-0.1,0.2-0.3,0.1-0.5c-0.1-0.2-0.2-0.3-0.4-0.3l-3.4-0.5l-1.5-3.1c-0.1-0.2-0.2-0.3-0.4-0.3c0,0,0,0,0,0
		c-0.2,0-0.3,0.1-0.4,0.3l-1.5,3.1l-3.4,0.5c-0.2,0-0.3,0.1-0.4,0.3c-0.1,0.2,0,0.4,0.1,0.5l2.5,2.4l-0.6,3.4c0,0.2,0,0.4,0.2,0.5
		c0.1,0.1,0.2,0.1,0.3,0.1c0.1,0,0.1,0,0.2-0.1l3.1-1.6l3.1,1.6C103.1,132.2,103.2,132.2,103.3,132.2z"/>
	<path id="Drumsticks" fill="#59595C" d="M63,53.8c1.2,0.3,2.5,0.4,3.5,0.4c1.6,0,2.6-0.3,3.2-0.7c0.1,0,0.1,0.1,0.2,0.1l23.2,5.3
		l-33.8,7.7c-0.8,0.2-1.3,1-1.1,1.8c0.2,0.7,0.8,1.2,1.5,1.2c0.1,0,0.2,0,0.3,0l40-9.1l40,9.1c0.1,0,0.2,0,0.3,0
		c0.7,0,1.3-0.5,1.5-1.2c0.2-0.8-0.3-1.6-1.1-1.8l-33.8-7.7l23.2-5.3c0.1,0,0.1-0.1,0.2-0.1c0.6,0.4,1.6,0.7,3.2,0.7
		c1.1,0,2.3-0.1,3.5-0.4c3.5-0.8,6.7-2.6,6.2-4.8c-0.2-0.9-1.1-2-4.1-2c-1.1,0-2.3,0.2-3.5,0.4c-2.6,0.6-5.1,1.7-5.9,3.2
		c-0.1,0-0.2,0-0.3,0L100,57.3l-29.4-6.7c-0.1,0-0.2,0-0.3,0c-0.9-1.5-3.4-2.6-5.9-3.2C63.2,47.2,62,47,60.9,47c-3,0-3.9,1.1-4.1,2
		C56.2,51.2,59.5,53,63,53.8z"/>
</g>
</svg>
