<?xml version="1.0" encoding="utf-8"?>
<!-- Generator: Adobe Illustrator 22.0.1, SVG Export Plug-In . SVG Version: 6.00 Build 0)  -->
<svg version="1.1" id="Layer_1" xmlns="http://www.w3.org/2000/svg" xmlns:xlink="http://www.w3.org/1999/xlink" x="0px" y="0px"
	 viewBox="0 0 200 200" enable-background="new 0 0 200 200" xml:space="preserve">
<g id="Beer">
	<path id="Beer_1_" fill="#59595C" d="M141.8,64.5c0-7.1-5.8-12.9-12.9-12.9c-3,0-5.8,1.1-8.1,2.9c-2.4-2.8-5.9-4.4-9.7-4.4
		c-3.6,0-7,1.5-9.4,4.1c-2.2-1.7-4.9-2.6-7.7-2.6c-5.3,0-10,3.2-12,8.1c-1.3-0.4-2.7-0.7-4-0.7c-7.1,0-12.9,5.8-12.9,12.9
		c0,5.3,3.2,9.8,7.7,11.8v6.4h-7.6c-3.9,0-7,3.1-7,7v26.5c0,3.9,3.1,7,7,7h7.6v14.5c0,2.7,2.2,4.9,4.9,4.9h51.1
		c2.7,0,4.9-2.2,4.9-4.9V76.5C138.4,74.6,141.8,69.9,141.8,64.5z M65.2,126.6c-1.6,0-3-1.3-3-3V97.1c0-1.6,1.3-3,3-3h7.6v32.4H65.2z
		 M129.6,145.1c0,0.5-0.4,0.8-0.8,0.8H77.6c-0.5,0-0.8-0.4-0.8-0.8V84.7c0.4,0,0.8,0.1,1.2,0.1c5.3,0,10-3.2,12-8.1
		c1.3,0.4,2.7,0.7,4,0.7c3.6,0,7-1.5,9.4-4.1c2.2,1.7,4.9,2.6,7.7,2.6c3,0,5.8-1.1,8.1-2.9c2.4,2.8,5.9,4.4,9.7,4.4
		c0.2,0,0.5,0,0.7,0V145.1z M128.9,73.9c-3.3,0-6.2-1.7-8-4.5c-0.3-0.4-0.9-0.7-1.3-0.8c-0.5,0-1.1,0.2-1.5,0.6
		c-1.8,2.1-4.3,3.2-7,3.2c-2.1,0-4.1-0.7-5.7-1.9c0.3-0.5,0.5-1.1,0.7-1.6c0.3-0.9-0.1-1.9-1.1-2.2c-0.9-0.3-1.9,0.1-2.2,1.1
		c-0.3,0.8-0.6,1.5-1.1,2.2c-2.6,3.8-7.7,5.3-12.1,3c-0.8-0.4-1.5-0.9-2.2-1.6c-0.7-0.7-1.8-0.6-2.5,0.1c-0.7,0.7-0.6,1.8,0.1,2.5
		c0.5,0.5,1.1,1,1.7,1.4c-1.4,3.7-4.8,6.1-8.8,6.1c-5.2,0-9.4-4.2-9.4-9.4c0-5.2,4.2-9.4,9.4-9.4c1.1,0,2.1,0.2,3.1,0.6
		c-0.1,0.5-0.1,1-0.1,1.5c0,1,0.8,1.8,1.8,1.8c1,0,1.8-0.8,1.8-1.8c0-0.7,0.1-1.4,0.3-2.1c1-4.3,4.8-7.3,9.2-7.3
		c2.5,0,4.9,1,6.7,2.8c0.4,0.4,0.8,0.9,1.1,1.4c0.3,0.5,0.9,0.8,1.5,0.8c0.3,0,0.7-0.1,1-0.3c0.8-0.5,1-1.6,0.5-2.4
		c-0.2-0.2-0.3-0.5-0.5-0.7c1.8-1.9,4.3-3.1,6.9-3.1c3.3,0,6.2,1.7,8,4.5c0.6,0.9,2,1.1,2.8,0.2c1.8-2.1,4.3-3.2,7-3.2
		c5.2,0,9.4,4.2,9.4,9.4C138.3,69.7,134.1,73.9,128.9,73.9z"/>
	<path id="Bottom_Line" fill="#59595C" d="M124.2,135.6H82.2c-1.1,0-2,0.9-2,2c0,1.1,0.9,2,2,2h42.1c1.1,0,2-0.9,2-2
		C126.2,136.5,125.3,135.6,124.2,135.6z"/>
	<path id="Line_1_2_" fill="#59595C" d="M91.4,128.6c0.9,0,1.6-0.7,1.6-1.6V89.1c0-0.9-0.7-1.6-1.6-1.6c-0.9,0-1.6,0.7-1.6,1.6v37.8
		C89.7,127.8,90.5,128.6,91.4,128.6z"/>
	<path id="Line_2_2_" fill="#59595C" d="M103.2,128.6c0.9,0,1.6-0.7,1.6-1.6V86.4c0-0.9-0.7-1.6-1.6-1.6c-0.9,0-1.6,0.7-1.6,1.6
		v40.5C101.6,127.8,102.3,128.6,103.2,128.6z"/>
	<path id="Line_3_1_" fill="#59595C" d="M115,128.6c0.9,0,1.6-0.7,1.6-1.6V83.7c0-0.9-0.7-1.6-1.6-1.6c-0.9,0-1.6,0.7-1.6,1.6v43.2
		C113.4,127.8,114.1,128.6,115,128.6z"/>
	<g id="Dots">
		<path id="Dot_18_" fill="#59595C" d="M91.8,62c0,0.5-0.4,0.9-0.9,0.9S90,62.5,90,62c0-0.5,0.4-0.9,0.9-0.9S91.8,61.5,91.8,62z"/>
		<path id="Dot_19_" fill="#59595C" d="M80.6,74.6c0,0.5-0.4,0.9-0.9,0.9c-0.5,0-0.9-0.4-0.9-0.9c0-0.5,0.4-0.9,0.9-0.9
			C80.2,73.6,80.6,74.1,80.6,74.6z"/>
		<path id="Dot_20_" fill="#59595C" d="M98.8,66.2c0,0.5-0.4,0.9-0.9,0.9c-0.5,0-0.9-0.4-0.9-0.9c0-0.5,0.4-0.9,0.9-0.9
			C98.4,65.3,98.8,65.7,98.8,66.2z"/>
		<path id="Dot_21_" fill="#59595C" d="M76.6,69.9c0,0.5-0.4,0.9-0.9,0.9c-0.5,0-0.9-0.4-0.9-0.9c0-0.5,0.4-0.9,0.9-0.9
			C76.2,68.9,76.6,69.4,76.6,69.9z"/>
		<path id="Dot_22_" fill="#59595C" d="M114.6,60.2c0,0.5-0.4,0.9-0.9,0.9c-0.5,0-0.9-0.4-0.9-0.9c0-0.5,0.4-0.9,0.9-0.9
			C114.2,59.3,114.6,59.7,114.6,60.2z"/>
		<path id="Dot_23_" fill="#59595C" d="M111.2,66.3c0,0.5-0.4,0.9-0.9,0.9c-0.5,0-0.9-0.4-0.9-0.9c0-0.5,0.4-0.9,0.9-0.9
			C110.8,65.4,111.2,65.8,111.2,66.3z"/>
		<path id="Dot_24_" fill="#59595C" d="M124.7,66c0,0.5-0.4,0.9-0.9,0.9c-0.5,0-0.9-0.4-0.9-0.9c0-0.5,0.4-0.9,0.9-0.9
			C124.3,65,124.7,65.4,124.7,66z"/>
		<path id="Dot_25_" fill="#59595C" d="M132.5,62.6c0,0.5-0.4,0.9-0.9,0.9c-0.5,0-0.9-0.4-0.9-0.9c0-0.5,0.4-0.9,0.9-0.9
			C132.1,61.7,132.5,62.1,132.5,62.6z"/>
	</g>
</g>
</svg>
