<svg xmlns="http://www.w3.org/2000/svg" x="0" y="0" version="1.1" viewBox="0 0 200 200" xml:space="preserve"><path d="M106.5 139.8c0-.1-.2-.3-.3-.3l-4-.6-1.8-3.6c-.1-.1-.2-.2-.4-.2s-.3.1-.4.2l-1.8 3.6-4 .6c-.2 0-.3.1-.3.3 0 .2 0 .3.1.4l2.9 2.8-.7 4c0 .2 0 .3.2.4.1.1.2.1.2.1h.2l3.6-1.9 3.6 1.9h.2c.1 0 .2 0 .2-.1.1-.1.2-.3.2-.4l-.7-4 2.9-2.8c.1-.1.1-.2.1-.4z"/><path d="M125.4 131.7H74.6c-1 0-1.7-.8-1.7-1.7 0-1 .8-1.7 1.7-1.7h50.8c1 0 1.7.8 1.7 1.7.1.9-.7 1.7-1.7 1.7zM142.9 111.6h-19.4c-1 0-1.7-.8-1.7-1.7 0-1 .8-1.7 1.7-1.7h19.4c1 0 1.7.8 1.7 1.7 0 .9-.8 1.7-1.7 1.7z"/><g><path d="M92.8 124.5h-9.4v-2.9h1.3v-11h-1.3v-3h9.4l1.9 1.6v13.7l-1.9 1.6zm-1.6-14H88v11h3.2v-11zM101 124.4h-4.5v-2.9h.6l2.5-11h-.7v-3h5v3h-.6l2.8 11h.6v3h-4.5v-3h.7l-.2-.9h-2.4l-.3.9h.8v2.9zm1.3-6.1-.7-2.6-.7 2.6h1.4zM113 117.1v4.4h1.1v3h-5.5v-3h1v-4.4l-2.7-6.6h-.7v-3h4.7v3h-.7l1.1 2.6 1-2.6h-.8v-3h4.6v3h-.9l-2.2 6.6z"/></g><path d="M76.5 111.6H57.1c-1 0-1.7-.8-1.7-1.7 0-1 .8-1.7 1.7-1.7h19.4c1 0 1.7.8 1.7 1.7 0 .9-.8 1.7-1.7 1.7z"/><g><path d="M42.5 101.8v-12h1.7v12h-1.7zM53.9 101.8l-5.3-8.6v8.6h-1.7v-12h1.7l5.4 8.6v-8.6h1.7v12h-1.8zM62.3 89.8c3 0 5.2 2.5 5.2 6s-2.2 6-5.2 6h-4.1v-12h4.1zM59.9 100h2.5c1.9 0 3.4-1.7 3.4-4.2s-1.5-4.2-3.5-4.2h-2.4v8.4zM71 91.6v3.2h4.9v1.8H71v3.3h5.6v1.8h-7.3v-12h7.2v1.8H71zM82.6 89.8c2.5 0 4 1.5 4 4.1 0 2.7-1.4 4.3-4 4.3h-2.3v3.6h-1.7v-12h4zm-2.3 6.6h2.2c1.5 0 2.4-.8 2.4-2.4 0-1.6-.9-2.3-2.4-2.3h-2.2v4.7zM90 91.6v3.2h4.9v1.8H90v3.3h5.6v1.8h-7.3v-12h7.2v1.8H90zM104.7 101.8l-5.3-8.6v8.6h-1.7v-12h1.7l5.4 8.6v-8.6h1.7v12h-1.8zM113.1 89.8c3 0 5.2 2.5 5.2 6s-2.2 6-5.2 6H109v-12h4.1zm-2.4 10.2h2.5c1.9 0 3.4-1.7 3.4-4.2s-1.5-4.2-3.5-4.2h-2.4v8.4zM121.7 91.6v3.2h4.9v1.8h-4.9v3.3h5.6v1.8H120v-12h7.2v1.8h-5.5zM136.4 101.8l-5.3-8.6v8.6h-1.7v-12h1.7l5.4 8.6v-8.6h1.7v12h-1.8zM149 91.6l-1 1.5c-.7-.9-1.8-1.5-2.8-1.5-2 0-3.6 1.9-3.6 4.2 0 2.4 1.6 4.2 3.6 4.2 1 0 2-.5 2.8-1.4l1 1.3c-1 1.2-2.5 2-3.9 2-2.9 0-5.2-2.7-5.2-6.1 0-3.4 2.3-6 5.3-6 1.4-.1 2.8.6 3.8 1.8zM152.4 91.6v3.2h4.9v1.8h-4.9v3.3h5.6v1.8h-7.3v-12h7.2v1.8h-5.5z"/></g><path d="M60 84.2H42.6c-1 0-1.7-.8-1.7-1.7 0-1 .8-1.7 1.7-1.7H60c1 0 1.7.8 1.7 1.7 0 1-.7 1.7-1.7 1.7zM56.6 73.2H29.8c-1 0-1.7-.8-1.7-1.7 0-1 .8-1.7 1.7-1.7h26.8c1 0 1.7.8 1.7 1.7 0 .9-.7 1.7-1.7 1.7zM157.4 84.2H140c-1 0-1.7-.8-1.7-1.7 0-1 .8-1.7 1.7-1.7h17.4c1 0 1.7.8 1.7 1.7.1 1-.7 1.7-1.7 1.7zM170.2 73.2h-26.8c-1 0-1.7-.8-1.7-1.7 0-1 .8-1.7 1.7-1.7h26.8c1 0 1.7.8 1.7 1.7 0 .9-.7 1.7-1.7 1.7z"/><path d="M183 58.7h-44.7c-1 0-1.7.8-1.7 1.7v11.1c0 5.1-4.2 9.3-9.3 9.3h-15.4l-2.7-13.3h9.6c1.2 0 2.1-1.3 1.6-2.4-.1-.2-2.3-5.6-3.4-7.8-1.6-3.1-4.7-4.8-8.8-4.8H87.4c-1 0-1.7.8-1.7 1.7s.8 1.7 1.7 1.7h2.3L86 80.8H72.8c-5.1 0-9.3-4.2-9.3-9.3V60.4c0-1-.8-1.7-1.7-1.7H17c-1 0-1.7.8-1.7 1.7 0 1 .8 1.7 1.7 1.7h43v9.3c0 7 5.7 12.8 12.8 12.8h14.7c.8 0 1.6-.7 1.7-1.5l4-26.8h14.9c1.9 0 4.5.5 5.8 2.9.6 1.1 1.6 3.4 2.3 5.1h-13.4c-1 0-1.7.8-1.7 1.7 0 1 .8 1.7 1.7 1.7h2.8l3.1 15.4c.2.8.9 1.4 1.7 1.4h16.8c7 0 12.8-5.7 12.8-12.8V62h43c1 0 1.7-.8 1.7-1.7 0-.8-.8-1.6-1.7-1.6z"/></svg>