<svg xmlns="http://www.w3.org/2000/svg" viewBox="0 0 200 200"><path d="M100 145.5c-25.1 0-45.5-20.4-45.5-45.5 0-.7.6-1.3 1.3-1.3.7 0 1.3.6 1.3 1.3 0 23.6 19.2 42.8 42.8 42.8s42.8-19.2 42.8-42.8c0-23.6-19.2-42.8-42.8-42.8-.7 0-1.3-.6-1.3-1.3 0-.7.6-1.3 1.3-1.3 25.1 0 45.5 20.4 45.5 45.5.1 25-20.3 45.4-45.4 45.4zM56.2 95.5H56c-.7-.1-1.2-.8-1.1-1.5 2.7-20.5 19-36.6 39.5-39.1.7-.1 1.4.4 1.5 1.1.1.7-.4 1.4-1.1 1.5C75.4 59.8 60.1 75 57.5 94.3c0 .7-.6 1.2-1.3 1.2z"/><path d="M105 130.6c-.6 0-1.2-.5-1.3-1.1-.1-.7.4-1.4 1.1-1.5 11.8-2 21.1-11.3 23.2-23.1.1-.7.8-1.2 1.5-1.1.7.1 1.2.8 1.1 1.5-2.2 12.9-12.4 23-25.3 25.2-.2 0-.3.1-.3.1zM100 131c-17.1 0-31-13.9-31-31s13.9-31 31-31 31 13.9 31 31c0 .7-.6 1.3-1.3 1.3s-1.3-.6-1.3-1.3c0-15.6-12.7-28.3-28.3-28.3-15.6 0-28.3 12.7-28.3 28.3 0 15.6 12.7 28.3 28.3 28.3.7 0 1.3.6 1.3 1.3-.1.8-.7 1.4-1.4 1.4z"/><path d="M100 156c-30.9 0-56-25.1-56-56s25.1-56 56-56 56 25.1 56 56-25.1 56-56 56zm0-108c-28.7 0-52 23.3-52 52s23.3 52 52 52 52-23.3 52-52-23.3-52-52-52z"/><g><path d="M100 117.8c-7.8 0-14.8-5.2-17.1-12.7-.2-.7.2-1.4.9-1.6.7-.2 1.4.2 1.6.9 1.9 6.4 7.9 10.8 14.5 10.8 8.4 0 15.2-6.8 15.2-15.2 0-6.7-4.3-12.5-10.7-14.5-.7-.2-1.1-1-.9-1.6.2-.7 1-1.1 1.6-.9 7.5 2.3 12.5 9.2 12.5 17 .2 9.8-7.8 17.8-17.6 17.8zM83.5 101.1c-.7 0-1.3-.6-1.3-1.3.1-9.7 8.1-17.6 17.8-17.6.7 0 1.3.6 1.3 1.3 0 .7-.6 1.3-1.3 1.3-8.2 0-15 6.7-15.2 15 0 .7-.6 1.3-1.3 1.3z"/></g><g><path d="M100 89.1c-.3 0-.5.1-.6.4l-3.2 6.4-7.1 1c-.2 0-.5.2-.5.4-.1.2 0 .5.2.7l5.1 5-1.2 7.1c0 .2.1.5.3.6.1.1.3.1.4.1.1 0 .2 0 .3-.1l6.3-3.3 6.3 3.3c.1.1.2.1.3.1.1 0 .3 0 .4-.1.2-.1.3-.4.3-.6l-1.2-7.1 5.1-5c.2-.2.2-.4.2-.7-.1-.2-.3-.4-.5-.4l-7.1-1-3.2-6.4c-.1-.2-.3-.4-.6-.4z"/></g></svg>