<?xml version="1.0" encoding="utf-8"?>
<!-- Generator: Adobe Illustrator 22.0.1, SVG Export Plug-In . SVG Version: 6.00 Build 0)  -->
<svg version="1.1" id="Layer_1" xmlns="http://www.w3.org/2000/svg" xmlns:xlink="http://www.w3.org/1999/xlink" x="0px" y="0px"
	 viewBox="0 0 200 200" enable-background="new 0 0 200 200" xml:space="preserve">
<g id="Hot_Dog">
	<g id="Dots_Bottom">
		<circle id="Dot_9_" fill="#59595C" cx="82.9" cy="114.1" r="0.8"/>
		<path id="Dot_10_" fill="#59595C" d="M74.4,114.9c0.4,0,0.7-0.3,0.7-0.8c0-0.4-0.3-0.8-0.7-0.8c-0.4,0-0.8,0.3-0.8,0.8
			C73.6,114.6,74,114.9,74.4,114.9z"/>
		<path id="Dot_11_" fill="#59595C" d="M91.5,114.9c0.4,0,0.7-0.3,0.7-0.8c0-0.4-0.3-0.8-0.7-0.8c-0.4,0-0.8,0.3-0.8,0.8
			C90.7,114.6,91,114.9,91.5,114.9z"/>
		<path id="Dot_12_" fill="#59595C" d="M100,114.9c0.4,0,0.7-0.3,0.7-0.8c0-0.4-0.3-0.8-0.7-0.8c-0.4,0-0.8,0.3-0.8,0.8
			C99.3,114.6,99.6,114.9,100,114.9z"/>
		<circle id="Dot_13_" fill="#59595C" cx="108.5" cy="114.1" r="0.8"/>
		<circle id="Dot_14_" fill="#59595C" cx="117.1" cy="114.1" r="0.8"/>
		<path id="Dot_15_" fill="#59595C" d="M125.6,114.9c0.4,0,0.7-0.3,0.7-0.8c0-0.4-0.3-0.8-0.7-0.8c-0.4,0-0.8,0.3-0.8,0.8
			C124.9,114.6,125.2,114.9,125.6,114.9z"/>
		<path id="Dot_16_" fill="#59595C" d="M134.2,114.9c0.4,0,0.7-0.3,0.7-0.8c0-0.4-0.3-0.8-0.7-0.8c-0.4,0-0.8,0.3-0.8,0.8
			C133.4,114.6,133.7,114.9,134.2,114.9z"/>
		<circle id="Dot_17_" fill="#59595C" cx="65.8" cy="114.1" r="0.8"/>
	</g>
	<g id="Dots_Top">
		<circle id="Dot_8_" fill="#59595C" cx="82.9" cy="87.1" r="0.8"/>
		<path id="Dot_7_" fill="#59595C" d="M74.4,86.4c-0.4,0-0.8,0.3-0.8,0.8c0,0.4,0.3,0.8,0.8,0.8c0.4,0,0.8-0.3,0.8-0.8
			C75.1,86.7,74.8,86.4,74.4,86.4z"/>
		<path id="Dot_6_" fill="#59595C" d="M91.5,86.4c-0.4,0-0.8,0.3-0.8,0.8c0,0.4,0.3,0.8,0.8,0.8c0.4,0,0.7-0.3,0.7-0.8
			C92.2,86.7,91.9,86.4,91.5,86.4z"/>
		<path id="Dot_5_" fill="#59595C" d="M100,86.4c-0.4,0-0.8,0.3-0.8,0.8c0,0.4,0.3,0.8,0.8,0.8c0.4,0,0.7-0.3,0.7-0.8
			C100.7,86.7,100.4,86.4,100,86.4z"/>
		<circle id="Dot_4_" fill="#59595C" cx="108.5" cy="87.1" r="0.8"/>
		<path id="Dot_3_" fill="#59595C" d="M117.1,86.4c-0.4,0-0.8,0.3-0.8,0.8c0,0.4,0.3,0.8,0.8,0.8c0.4,0,0.8-0.3,0.8-0.8
			C117.8,86.7,117.5,86.4,117.1,86.4z"/>
		<path id="Dot_2_" fill="#59595C" d="M125.6,86.4c-0.4,0-0.8,0.3-0.8,0.8c0,0.4,0.3,0.8,0.8,0.8c0.4,0,0.7-0.3,0.7-0.8
			C126.4,86.7,126,86.4,125.6,86.4z"/>
		<path id="Dot_1_" fill="#59595C" d="M134.2,86.4c-0.4,0-0.8,0.3-0.8,0.8c0,0.4,0.3,0.8,0.8,0.8c0.4,0,0.7-0.3,0.7-0.8
			C134.9,86.7,134.6,86.4,134.2,86.4z"/>
		<path id="Dot" fill="#59595C" d="M65.8,86.4c-0.4,0-0.8,0.3-0.8,0.8c0,0.4,0.3,0.8,0.8,0.8c0.4,0,0.8-0.3,0.8-0.8
			C66.6,86.7,66.3,86.4,65.8,86.4z"/>
	</g>
	<path id="Hot_Dog_1_" fill="#59595C" d="M151.8,90.7h-5.4v-2.6c0-5.1-4.1-9.2-9.2-9.2H62.8c-5.1,0-9.2,4.1-9.2,9.2v2.6h-5.4
		c-5.1,0-9.3,4.2-9.3,9.3c0,5.1,4.2,9.3,9.3,9.3h5.4v2.6c0,5.1,4.1,9.2,9.2,9.2h74.4c5.1,0,9.2-4.1,9.2-9.2v-2.6h5.4
		c5.1,0,9.3-4.2,9.3-9.3C161.1,94.9,156.9,90.7,151.8,90.7z M56.6,88.2c0-3.4,2.8-6.2,6.2-6.2h74.4c3.4,0,6.2,2.8,6.2,6.2v2.6H56.6
		V88.2z M143.4,111.8c0,3.4-2.8,6.2-6.2,6.2H62.8c-3.4,0-6.2-2.8-6.2-6.2v-2.6h86.8V111.8z M151.8,106.3H48.2
		c-3.5,0-6.3-2.8-6.3-6.3c0-3.5,2.8-6.3,6.3-6.3h103.6c3.5,0,6.3,2.8,6.3,6.3C158.1,103.5,155.3,106.3,151.8,106.3z"/>
	<path id="Sauce" fill="#59595C" d="M151.8,99c-0.6,0-1,0.5-1,1c0,1-0.8,1.9-1.9,1.9c-1,0-1.9-0.8-1.9-1.9c0-2.1-1.7-3.9-3.9-3.9
		c-2.1,0-3.9,1.7-3.9,3.9c0,1-0.8,1.9-1.9,1.9c-1,0-1.9-0.8-1.9-1.9c0-2.1-1.7-3.9-3.9-3.9c-2.1,0-3.9,1.7-3.9,3.9
		c0,1-0.8,1.9-1.9,1.9c-1,0-1.9-0.8-1.9-1.9c0-2.1-1.7-3.9-3.9-3.9c-2.1,0-3.9,1.7-3.9,3.9c0,1-0.8,1.9-1.9,1.9
		c-1,0-1.9-0.8-1.9-1.9c0-2.1-1.7-3.9-3.9-3.9c-2.1,0-3.9,1.7-3.9,3.9c0,1-0.8,1.9-1.9,1.9c-1,0-1.9-0.8-1.9-1.9
		c0-2.1-1.7-3.9-3.9-3.9c-2.1,0-3.9,1.7-3.9,3.9c0,1-0.8,1.9-1.9,1.9c-1,0-1.9-0.8-1.9-1.9c0-2.1-1.7-3.9-3.9-3.9
		c-2.1,0-3.9,1.7-3.9,3.9c0,1-0.8,1.9-1.9,1.9c-1,0-1.9-0.8-1.9-1.9c0-2.1-1.7-3.9-3.9-3.9c-2.1,0-3.9,1.7-3.9,3.9
		c0,1-0.8,1.9-1.9,1.9c-1,0-1.9-0.8-1.9-1.9c0-2.1-1.7-3.9-3.9-3.9c-2.1,0-3.9,1.7-3.9,3.9c0,1-0.8,1.9-1.9,1.9
		c-1,0-1.9-0.8-1.9-1.9c0-2.1-1.7-3.9-3.9-3.9c-2.1,0-3.9,1.7-3.9,3.9c0,0.6,0.5,1,1,1c0.6,0,1-0.5,1-1c0-1,0.8-1.9,1.9-1.9
		c1,0,1.9,0.8,1.9,1.9c0,2.1,1.7,3.9,3.9,3.9c2.1,0,3.9-1.7,3.9-3.9c0-1,0.8-1.9,1.9-1.9c1,0,1.9,0.8,1.9,1.9c0,2.1,1.7,3.9,3.9,3.9
		c2.1,0,3.9-1.7,3.9-3.9c0-1,0.8-1.9,1.9-1.9c1,0,1.9,0.8,1.9,1.9c0,2.1,1.7,3.9,3.9,3.9c2.1,0,3.9-1.7,3.9-3.9c0-1,0.8-1.9,1.9-1.9
		c1,0,1.9,0.8,1.9,1.9c0,2.1,1.7,3.9,3.9,3.9c2.1,0,3.9-1.7,3.9-3.9c0-1,0.8-1.9,1.9-1.9c1,0,1.9,0.8,1.9,1.9c0,2.1,1.7,3.9,3.9,3.9
		c2.1,0,3.9-1.7,3.9-3.9c0-1,0.8-1.9,1.9-1.9c1,0,1.9,0.8,1.9,1.9c0,2.1,1.7,3.9,3.9,3.9c2.1,0,3.9-1.7,3.9-3.9c0-1,0.8-1.9,1.9-1.9
		c1,0,1.9,0.8,1.9,1.9c0,2.1,1.7,3.9,3.9,3.9c2.1,0,3.9-1.7,3.9-3.9c0-1,0.8-1.9,1.9-1.9c1,0,1.9,0.8,1.9,1.9c0,2.1,1.7,3.9,3.9,3.9
		c2.1,0,3.9-1.7,3.9-3.9c0-1,0.8-1.9,1.9-1.9c1,0,1.9,0.8,1.9,1.9c0,2.1,1.7,3.9,3.9,3.9c2.1,0,3.9-1.7,3.9-3.9
		C152.8,99.4,152.3,99,151.8,99z"/>
</g>
</svg>
