<svg xmlns="http://www.w3.org/2000/svg" x="0" y="0" version="1.1" viewBox="0 0 200 200" xml:space="preserve"><g><path d="M144.1 122.2c1.8-1 1.9-3.3 1.9-5.7v-9.4c0-9.4-3.8-22.9-11.1-30.5-7.3-7.6-15.7-11.8-26.7-13.1-.6-6.3-4.7-7.7-8.1-7.7-3.5 0-7.6 1.4-8.1 7.7-11 1.3-19.4 5.5-26.7 13.1C57.8 84.2 54 97.7 54 107.1v9.4c0 2.3.1 4.7 1.9 5.7.5.3 1 .4 1.6.4h.2c-.8 3.6-2.1 9.7-3.1 13.6-1 4.2.3 6.2 1.5 7.1.9.7 2.1 1 3.3 1 3.1 0 6.6-1.8 8.9-3.1 10.7-6.3 21.4-9.6 31.7-9.7 10.4.1 21.1 3.4 31.8 9.7 3.1 1.8 8.8 4.6 12.2 2.1 1.2-.9 2.5-2.9 1.5-7.1-1-3.9-2.3-10.1-3.1-13.6.5 0 1.1-.1 1.7-.4zM100 59.3c2.4 0 4.1.7 4.6 3.8-1.5-.1-3-.1-4.6-.1-1.6 0-3.1.1-4.6.1.5-3.1 2.2-3.8 4.6-3.8zm42.5 57.2c0 1.5-.1 2.2-.2 2.5-.4-.1-1.4-.4-3.5-1.7-1.5-.9-3.1-1.8-4.6-2.6-.9-.4-1.9-.1-2.4.8-.4.9-.1 1.9.8 2.4 1.5.8 3 1.6 4.4 2.5.5.3 1 .6 1.4.8.5 2.4 2.4 10.9 3.6 15.9.4 1.7.4 3-.2 3.4-.8.6-3.6.4-8.2-2.3-11.2-6.7-22.5-10.1-33.6-10.2-11 .1-22.3 3.6-33.5 10.2-4.6 2.8-7.5 2.9-8.2 2.3-.5-.4-.6-1.7-.2-3.4 1.2-5 3.1-13.5 3.6-15.9.5-.2.9-.5 1.4-.8 1.5-.9 3-1.7 4.4-2.5.9-.4 1.2-1.5.8-2.4-.4-.9-1.5-1.2-2.4-.8-1.6.8-3.1 1.7-4.6 2.6-2.1 1.3-3.1 1.6-3.5 1.7-.1-.3-.2-1-.2-2.5v-9.4C57.5 98.4 61 86 67.7 79c4-4.2 8.5-7.3 13.6-9.3-3.6 6.8-5.8 13.6-6.5 24.8 0 .8.5 1.5 1.3 1.5h.1c.7 0 1.4-.6 1.4-1.3.8-12.2 3.4-19 7.6-26.4 4.4-1.2 9.2-1.8 14.7-1.8s10.4.6 14.7 1.8c3.9 6.4 6.1 13.1 7.1 21.5.1.7.7 1.2 1.4 1.2h.2c.8-.1 1.3-.8 1.2-1.6-.9-7.6-2.8-13.9-5.9-19.8 5.1 2 9.5 5.1 13.5 9.3 6.7 7 10.2 19.4 10.2 28.1v9.5z"/><path d="M98.3 120.5c-7 0-14.1 1.4-21 4.2-.7.3-1.1 1.1-.8 1.8.2.6.8.9 1.3.9.2 0 .4 0 .5-.1 6.6-2.6 13.3-4 19.9-4 .8 0 1.4-.6 1.4-1.4.2-.7-.5-1.4-1.3-1.4zM73.1 126.5c-1.7.8-3.3 1.7-5 2.7-.7.4-.9 1.3-.5 1.9.3.5.7.7 1.2.7.2 0 .5-.1.7-.2 1.6-.9 3.2-1.8 4.8-2.6.7-.3 1-1.2.7-1.9-.3-.6-1.2-.9-1.9-.6zM127.3 111.6l-2.4-.9c.1-1.7.4-5.4.4-9.4 0-.8-.6-1.4-1.4-1.4-.8 0-1.4.6-1.4 1.4 0 3.4-.2 6.6-.4 8.5-7.3-2.4-14.7-3.7-22.2-3.8-7.4.1-14.8 1.4-22.1 3.8-.1-2.1-.4-6-.4-9.9 0-.8-.6-1.4-1.4-1.4-.8 0-1.4.6-1.4 1.4 0 4.5.3 9 .4 10.9l-2.4.9c-.9.4-1.3 1.4-1 2.3.4.9 1.4 1.3 2.3 1 8.6-3.5 17.3-5.3 26-5.4 8.7.1 17.4 1.9 26 5.4.2.1.4.1.7.1.7 0 1.4-.4 1.6-1.1.5-1 0-2-.9-2.4zM122.5 96.5c0 .8.6 1.4 1.4 1.4.8 0 1.4-.7 1.4-1.5 0-.9 0-1-.1-1.7v-.2c0-.8-.7-1.4-1.5-1.3-.8 0-1.4.7-1.3 1.5v.2c0 .7 0 .8.1 1.6zM95.7 90.7l-.8 4.8c0 .2.1.4.2.6.1.1.2.1.3.1.1 0 .2 0 .3-.1l4.3-2.3 4.3 2.3c.1 0 .2.1.3.1.1 0 .2 0 .3-.1.2-.1.3-.3.2-.6l-.8-4.8 3.5-3.4c.2-.2.2-.4.1-.6-.1-.2-.2-.4-.5-.4l-4.9-.7-2.2-4.4c-.1-.2-.3-.3-.5-.3s-.4.1-.5.3l-2.2 4.4-4.9.7c-.2 0-.4.2-.5.4-.1.2 0 .4.1.6l3.9 3.4z"/></g></svg>