<?xml version="1.0" encoding="utf-8"?>
<!-- Generator: Adobe Illustrator 22.0.1, SVG Export Plug-In . SVG Version: 6.00 Build 0)  -->
<svg version="1.1" id="Layer_1" xmlns="http://www.w3.org/2000/svg" xmlns:xlink="http://www.w3.org/1999/xlink" x="0px" y="0px"
	 viewBox="0 0 200 200" enable-background="new 0 0 200 200" xml:space="preserve">
<g id="Shield_USA">
	<g>
		<g>
			<path fill="#59595C" d="M100,145.5c-25.1,0-45.5-20.4-45.5-45.5c0-0.7,0.6-1.3,1.3-1.3c0.7,0,1.3,0.6,1.3,1.3
				c0,23.6,19.2,42.8,42.8,42.8s42.8-19.2,42.8-42.8c0-23.6-19.2-42.8-42.8-42.8c-0.7,0-1.3-0.6-1.3-1.3c0-0.7,0.6-1.3,1.3-1.3
				c25.1,0,45.5,20.4,45.5,45.5C145.5,125.1,125.1,145.5,100,145.5z"/>
		</g>
		<g>
			<path fill="#59595C" d="M56.2,95.5c-0.1,0-0.1,0-0.2,0c-0.7-0.1-1.2-0.8-1.1-1.5c2.7-20.5,19-36.6,39.5-39.1
				c0.7-0.1,1.4,0.4,1.5,1.1c0.1,0.7-0.4,1.4-1.1,1.5C75.4,59.8,60.1,75,57.5,94.3C57.5,95,56.9,95.5,56.2,95.5z"/>
		</g>
	</g>
	<g>
		<g>
			<path fill="#59595C" d="M105,130.6c-0.6,0-1.2-0.5-1.3-1.1c-0.1-0.7,0.4-1.4,1.1-1.5c11.8-2,21.1-11.3,23.2-23.1
				c0.1-0.7,0.8-1.2,1.5-1.1c0.7,0.1,1.2,0.8,1.1,1.5c-2.2,12.9-12.4,23-25.3,25.2C105.1,130.5,105,130.6,105,130.6z"/>
		</g>
		<g>
			<path fill="#59595C" d="M100,131c-17.1,0-31-13.9-31-31c0-17.1,13.9-31,31-31s31,13.9,31,31c0,0.7-0.6,1.3-1.3,1.3
				s-1.3-0.6-1.3-1.3c0-15.6-12.7-28.3-28.3-28.3c-15.6,0-28.3,12.7-28.3,28.3c0,15.6,12.7,28.3,28.3,28.3c0.7,0,1.3,0.6,1.3,1.3
				C101.3,130.4,100.7,131,100,131z"/>
		</g>
	</g>
	<g>
		<path fill="#59595C" d="M100,156c-30.9,0-56-25.1-56-56c0-30.9,25.1-56,56-56c30.9,0,56,25.1,56,56C156,130.9,130.9,156,100,156z
			 M100,48c-28.7,0-52,23.3-52,52c0,28.7,23.3,52,52,52s52-23.3,52-52C152,71.3,128.7,48,100,48z"/>
	</g>
	<g>
		<g>
			<path fill="#59595C" d="M100,117.8c-7.8,0-14.8-5.2-17.1-12.7c-0.2-0.7,0.2-1.4,0.9-1.6c0.7-0.2,1.4,0.2,1.6,0.9
				c1.9,6.4,7.9,10.8,14.5,10.8c8.4,0,15.2-6.8,15.2-15.2c0-6.7-4.3-12.5-10.7-14.5c-0.7-0.2-1.1-1-0.9-1.6c0.2-0.7,1-1.1,1.6-0.9
				c7.5,2.3,12.5,9.2,12.5,17C117.8,109.8,109.8,117.8,100,117.8z"/>
		</g>
		<g>
			<path fill="#59595C" d="M83.5,101.1C83.5,101.1,83.5,101.1,83.5,101.1c-0.7,0-1.3-0.6-1.3-1.3c0.1-9.7,8.1-17.6,17.8-17.6
				c0.7,0,1.3,0.6,1.3,1.3c0,0.7-0.6,1.3-1.3,1.3c-8.2,0-15,6.7-15.2,15C84.8,100.5,84.2,101.1,83.5,101.1z"/>
		</g>
	</g>
	<g>
		<g>
			<g>
				<path fill="#58585B" d="M100,89.1L100,89.1c-0.3,0-0.5,0.1-0.6,0.4l-3.2,6.4l-7.1,1c-0.2,0-0.5,0.2-0.5,0.4
					c-0.1,0.2,0,0.5,0.2,0.7l5.1,5l-1.2,7.1c0,0.2,0.1,0.5,0.3,0.6c0.1,0.1,0.3,0.1,0.4,0.1c0.1,0,0.2,0,0.3-0.1l6.3-3.3l6.3,3.3
					c0.1,0.1,0.2,0.1,0.3,0.1c0.1,0,0.3,0,0.4-0.1c0.2-0.1,0.3-0.4,0.3-0.6l-1.2-7.1l5.1-5c0.2-0.2,0.2-0.4,0.2-0.7
					c-0.1-0.2-0.3-0.4-0.5-0.4l-7.1-1l-3.2-6.4C100.5,89.3,100.3,89.1,100,89.1L100,89.1z"/>
			</g>
		</g>
	</g>
</g>
</svg>
