<svg xmlns="http://www.w3.org/2000/svg" x="0" y="0" version="1.1" viewBox="0 0 200 200" xml:space="preserve"><g><path d="M135.9 108.7c5.9 0 11.5-2.3 15.7-6.5 4.2-4.2 6.5-9.7 6.5-15.7 0-5.9-2.3-11.4-6.5-15.6-4.2-4.2-9.7-6.5-15.7-6.5-5.9 0-11.5 2.3-15.7 6.5-4.2 4.2-6.5 9.7-6.5 15.7 0 5.9 2.3 11.4 6.5 15.6 4.2 4.2 9.8 6.5 15.7 6.5zM149.6 73c3.4 3.4 5.3 7.8 5.6 12.6-1-.1-2-.2-3-.4l.5-2c-.4-.1-.7-.2-1.1-.3l-.6 2c-1.2-.4-2.4-.9-3.6-1.5l1-1.8c-.3-.2-.7-.4-1-.6l-1.1 1.7c-1.1-.7-2.1-1.5-3.1-2.4l1.4-1.5-.4-.4-.4-.4-1.5 1.4c-.9-1-1.7-2-2.4-3.1l1.7-1.1c-.2-.3-.4-.7-.6-1l-1.8 1c-.6-1.1-1.1-2.3-1.5-3.6l2-.6c-.1-.4-.2-.7-.3-1.1l-2 .5c-.2-1-.4-2-.4-3 4.8.3 9.2 2.2 12.6 5.6zm-27.2 0c3.4-3.4 7.8-5.3 12.6-5.6.1 1.2.2 2.3.5 3.5l-2 .5c.1.5.2 1 .4 1.5l2-.6c.4 1.4 1 2.7 1.6 4l-1.8 1c.2.5.5.9.8 1.4l1.8-1.1c.7 1.2 1.6 2.3 2.6 3.4l-1.5 1.4c.2.2.4.4.5.6.2.2.4.4.6.5l1.4-1.5c1.1 1 2.2 1.9 3.4 2.6l-1.1 1.8c.4.3.9.5 1.4.8l1-1.8c1.3.7 2.6 1.2 4 1.6l-.6 2c.5.1 1 .3 1.5.4l.5-2c1.1.3 2.3.4 3.5.5-.3 4.7-2.2 9.1-5.6 12.5-3.4 3.4-7.8 5.3-12.6 5.6 0-.8-.1-1.6-.3-2.3l2.1-.4c-.1-.5-.2-1-.3-1.6l-2 .5c-.3-1.4-.8-2.8-1.4-4.1l1.9-.9c-.2-.5-.5-1-.7-1.4l-1.8 1c-.7-1.3-1.5-2.4-2.5-3.6l1.6-1.4c-.3-.4-.7-.8-1.1-1.2l-1.5 1.5c-.1-.1-.1-.1-.1-.2-1-1-2.1-1.9-3.2-2.6l1.2-1.7c-.4-.3-.9-.6-1.3-.8l-1.1 1.8c-1.3-.7-2.6-1.3-4-1.8l.7-2c-.5-.2-1-.3-1.5-.5l-.5 2c-1.4-.4-2.8-.6-4.2-.7-.3-4.8 1.7-9.2 5.1-12.6zm-2 15.2-.5 2c.4.1.8.2 1.1.3l.7-1.9c1.2.4 2.4 1 3.6 1.6l-1 1.8c.3.2.7.4 1 .6l1.2-1.7c1 .7 2 1.5 2.9 2.4l.1.1-1.5 1.4c.3.3.5.6.8.9l1.6-1.3c.9 1 1.6 2.1 2.2 3.2l-1.8 1c.2.3.4.7.5 1l1.9-.9c.6 1.2 1 2.4 1.3 3.7l-2 .5c.1.4.2.8.2 1.1l2-.4c.1.7.2 1.3.2 2-4.8-.2-9.2-2.2-12.6-5.6-3.4-3.4-5.3-7.8-5.6-12.6 1.3.3 2.5.5 3.7.8zM162.1 131.8H37.9c-1 0-1.9.8-1.9 1.9 0 1 .8 1.9 1.9 1.9h124.3c1 0 1.9-.8 1.9-1.9-.1-1.1-.9-1.9-2-1.9zM36 118.3c0 1 .8 1.9 1.9 1.9h124.3c1 0 1.9-.8 1.9-1.9s-.8-1.9-1.9-1.9H37.9c-1.1 0-1.9.8-1.9 1.9zM91.7 101c-1 0-1.9.8-1.9 1.9 0 1 .8 1.9 1.9 1.9h14.4c.3 0 .6-.4.4-.6-.6-1.1-.9-1.8-1.4-2.8 0-.1-.2-.3-.4-.3-3-.1-13-.1-13-.1zM37.9 104.7h46.8c1 0 1.9-.8 1.9-1.9 0-1-.8-1.9-1.9-1.9H37.9c-1 0-1.9.8-1.9 1.9 0 1.1.8 1.9 1.9 1.9zM100.8 85.6H75.5c-1 0-1.9.8-1.9 1.9 0 1 .8 1.9 1.9 1.9h25.6c.3 0 .6-.3.5-.4-.1-.8 0-2.1 0-2.8 0-.3-.2-.6-.8-.6zM37.9 89.4H68c1 0 1.9-.8 1.9-1.9 0-1-.8-1.9-1.9-1.9H37.9c-1 0-1.9.8-1.9 1.9 0 1 .8 1.9 1.9 1.9zM55 74h48.1c.3 0 .6-.3.6-.4.3-1 .7-1.9 1.1-2.8.1-.2 0-.5-.3-.5H55c-1 0-1.9.8-1.9 1.9.1 1 .9 1.8 1.9 1.8zM37.9 74H48c1 0 1.9-.8 1.9-1.9 0-1-.8-1.9-1.9-1.9H37.9c-1 0-1.9.8-1.9 1.9 0 1.1.8 1.9 1.9 1.9z"/></g></svg>