<?xml version="1.0" encoding="utf-8"?>
<!-- Generator: Adobe Illustrator 22.0.1, SVG Export Plug-In . SVG Version: 6.00 Build 0)  -->
<svg version="1.1" id="Layer_1" xmlns="http://www.w3.org/2000/svg" xmlns:xlink="http://www.w3.org/1999/xlink" x="0px" y="0px"
	 viewBox="0 0 200 200" enable-background="new 0 0 200 200" xml:space="preserve">
<g id="Burguer">
	<path id="Burguer_1_" fill="#59595C" d="M149.3,101.1c0-2.5-2.3-5-6.8-5h-2.4v-1.5c0-15.5-12.6-28-28.1-28.1L88,66.5
		c-15.5,0-28.1,12.6-28.1,28v1.6h-2.4c-1.9,0-3.6,0.5-4.8,1.4c-1.2,0.9-1.9,2.2-1.9,3.6c0,1.9,1.4,3.9,4.3,4.7
		c-0.8,0.9-1.4,2.1-1.4,3.4v2.8c0,2.8,2.3,5,5,5h1.2v0.1c0,4.8,1.7,8.8,4.9,11.6c3.6,3.1,9.1,4.7,16.4,4.7l37.1,0h0
		c19.7,0,21.8-11.4,21.8-16.3v-0.2h1.2c2.8,0,5-2.3,5-5v-2.8c0-1.4-0.5-2.6-1.4-3.5C147.9,105,149.3,103,149.3,101.1z M63.1,94.5
		c0-13.7,11.2-24.9,24.9-24.9l24,0.1c13.7,0,24.9,11.2,24.9,24.9v1.5H63.1V94.5z M136.9,117.2c0,8.5-6.6,13.1-18.6,13.1l-37.1,0
		c-6.5,0-11.3-1.3-14.3-3.9c-2.5-2.2-3.8-5.3-3.8-9.2v-0.1h41.4l9.3,8.2c0.3,0.3,0.7,0.4,1,0.4c0.4,0,0.7-0.1,1-0.4l9.3-8.2h11.6
		V117.2z M120.5,117.1l-5.6,4.9l-5.6-4.9H120.5z M143.2,112c0,1-0.8,1.9-1.9,1.9H58.7c-1,0-1.9-0.8-1.9-1.9v-2.8
		c0-1,0.8-1.9,1.9-1.9h1.4c0.2,0.2,0.3,0.3,0.5,0.5c1.2,1.2,2.6,2.8,5.4,2.8c2.8,0,4.2-1.5,5.4-2.8c1.1-1.2,1.7-1.8,3.1-1.8
		c1.4,0,2,0.6,3.1,1.8c1.2,1.2,2.6,2.8,5.4,2.8c2.8,0,4.3-1.5,5.4-2.8c1.1-1.2,1.7-1.8,3.1-1.8c1.4,0,2,0.6,3.1,1.8
		c1.2,1.2,2.6,2.8,5.4,2.8c2.8,0,4.3-1.5,5.4-2.8c1.1-1.2,1.7-1.8,3.1-1.8c1.4,0,2,0.6,3.1,1.8c1.2,1.2,2.6,2.8,5.4,2.8
		c2.8,0,4.3-1.5,5.4-2.8c1.1-1.2,1.7-1.8,3.1-1.8c1.4,0,2,0.6,3.1,1.8c1.2,1.2,2.6,2.8,5.4,2.8c2.8,0,4.3-1.5,5.4-2.8
		c0.2-0.2,0.3-0.3,0.5-0.5h1.4c1,0,1.9,0.8,1.9,1.9V112z M142.3,103c-2.4,0-4,1.6-5.2,2.8c-1.1,1.2-1.7,1.8-3.1,1.8
		c-1.4,0-2-0.6-3.1-1.8c-1.2-1.2-2.6-2.8-5.4-2.8c-2.8,0-4.3,1.5-5.4,2.8c-1.1,1.2-1.7,1.8-3.1,1.8c-1.4,0-2-0.6-3.1-1.8
		c-1.2-1.2-2.6-2.8-5.4-2.8c-2.8,0-4.3,1.5-5.4,2.8c-1.1,1.2-1.7,1.8-3.1,1.8c-1.4,0-2-0.6-3.1-1.8c-1.2-1.2-2.6-2.8-5.4-2.8
		c-2.8,0-4.3,1.5-5.4,2.8c-1.1,1.2-1.7,1.8-3.1,1.8c-1.4,0-2-0.6-3.1-1.8c-1.2-1.2-2.6-2.8-5.4-2.8c-2.8,0-4.2,1.5-5.4,2.8
		c-1.1,1.2-1.7,1.8-3.1,1.8c-1.4,0-2-0.6-3.1-1.8c-1.2-1.2-2.6-2.8-5.4-2.8c-3.1,0-3.6-0.9-3.6-1.8c0-0.9,1.3-1.9,3.6-1.9h85
		c2.3,0,3.6,0.9,3.6,1.8C146.1,102,145.8,103,142.3,103z"/>
	<g id="Dots_Line_5">
		<path fill="#59595C" d="M80.3,125.4c-0.4,0-0.8,0.3-0.8,0.7c0,0.4,0.3,0.8,0.8,0.8c0.4,0,0.7-0.3,0.7-0.8
			C81.1,125.7,80.7,125.4,80.3,125.4z"/>
		<path fill="#59595C" d="M70.5,125.4c-0.4,0-0.8,0.3-0.8,0.7c0,0.4,0.3,0.8,0.8,0.8c0.4,0,0.7-0.3,0.7-0.8
			C71.2,125.7,70.9,125.4,70.5,125.4z"/>
		<path fill="#59595C" d="M90.2,125.4c-0.4,0-0.8,0.3-0.8,0.7c0,0.4,0.3,0.8,0.8,0.8c0.4,0,0.8-0.3,0.8-0.8
			C90.9,125.7,90.6,125.4,90.2,125.4z"/>
		<path fill="#59595C" d="M100,125.4c-0.4,0-0.8,0.3-0.8,0.7c0,0.4,0.3,0.8,0.8,0.8c0.4,0,0.8-0.3,0.8-0.8
			C100.8,125.7,100.4,125.4,100,125.4z"/>
		<path fill="#59595C" d="M109.8,125.4c-0.4,0-0.8,0.3-0.8,0.7c0,0.4,0.3,0.8,0.8,0.8c0.4,0,0.8-0.3,0.8-0.8
			C110.6,125.7,110.3,125.4,109.8,125.4z"/>
		<path fill="#59595C" d="M119.7,125.4c-0.4,0-0.8,0.3-0.8,0.7c0,0.4,0.3,0.8,0.8,0.8c0.4,0,0.8-0.3,0.8-0.8
			C120.4,125.7,120.1,125.4,119.7,125.4z"/>
		<path fill="#59595C" d="M129.5,125.4c-0.4,0-0.8,0.3-0.8,0.7c0,0.4,0.3,0.8,0.8,0.8c0.4,0,0.8-0.3,0.8-0.8
			C130.3,125.7,130,125.4,129.5,125.4z"/>
	</g>
	<g id="Dots_Line_4">
		<path fill="#59595C" d="M80.3,119.5c-0.4,0-0.8,0.3-0.8,0.7c0,0.4,0.3,0.7,0.8,0.7c0.4,0,0.7-0.3,0.7-0.7
			C81.1,119.8,80.7,119.5,80.3,119.5z"/>
		<path fill="#59595C" d="M70.5,119.5c-0.4,0-0.8,0.3-0.8,0.7c0,0.4,0.3,0.8,0.8,0.8c0.4,0,0.8-0.3,0.8-0.8
			C71.2,119.8,70.9,119.5,70.5,119.5z"/>
		<path fill="#59595C" d="M90.2,119.5c-0.4,0-0.8,0.3-0.8,0.7c0,0.4,0.3,0.7,0.8,0.7c0.4,0,0.8-0.3,0.8-0.7
			C90.9,119.8,90.6,119.5,90.2,119.5z"/>
		<path fill="#59595C" d="M100,119.5c-0.4,0-0.8,0.3-0.8,0.7c0,0.4,0.3,0.7,0.8,0.7c0.4,0,0.8-0.3,0.8-0.7
			C100.8,119.8,100.4,119.5,100,119.5z"/>
		<path fill="#59595C" d="M129.5,121c0.4,0,0.8-0.3,0.8-0.7c0-0.4-0.3-0.7-0.8-0.7c-0.4,0-0.7,0.3-0.7,0.7
			C128.8,120.6,129.1,121,129.5,121z"/>
	</g>
	<g id="Dots_Line_3">
		<path fill="#59595C" d="M80.3,90.6c-0.4,0-0.8,0.3-0.8,0.7c0,0.4,0.3,0.8,0.8,0.8c0.4,0,0.7-0.3,0.7-0.8
			C81.1,91,80.7,90.6,80.3,90.6z"/>
		<path fill="#59595C" d="M70.5,90.6c-0.4,0-0.8,0.3-0.8,0.7c0,0.4,0.3,0.8,0.8,0.8c0.4,0,0.8-0.3,0.8-0.8
			C71.2,91,70.9,90.6,70.5,90.6z"/>
		<path fill="#59595C" d="M90.2,90.6c-0.4,0-0.8,0.3-0.8,0.7c0,0.4,0.3,0.8,0.8,0.8c0.4,0,0.8-0.3,0.8-0.8
			C90.9,91,90.6,90.6,90.2,90.6z"/>
		<path fill="#59595C" d="M100,90.6c-0.4,0-0.8,0.3-0.8,0.7c0,0.4,0.3,0.8,0.8,0.8c0.4,0,0.8-0.3,0.8-0.8
			C100.8,91,100.4,90.6,100,90.6z"/>
		<path fill="#59595C" d="M109.8,90.6c-0.4,0-0.8,0.3-0.8,0.7c0,0.4,0.3,0.8,0.8,0.8c0.4,0,0.8-0.3,0.8-0.8
			C110.6,91,110.3,90.6,109.8,90.6z"/>
		<path fill="#59595C" d="M119.7,90.6c-0.4,0-0.8,0.3-0.8,0.7c0,0.4,0.3,0.8,0.8,0.8c0.4,0,0.8-0.3,0.8-0.8
			C120.4,91,120.1,90.6,119.7,90.6z"/>
		<path fill="#59595C" d="M129.5,90.6c-0.4,0-0.7,0.3-0.7,0.7c0,0.4,0.3,0.8,0.7,0.8c0.4,0,0.8-0.3,0.8-0.8
			C130.3,91,129.9,90.6,129.5,90.6z"/>
	</g>
	<g id="Dots_Line_2">
		<path fill="#59595C" d="M80.3,82.7c-0.4,0-0.8,0.3-0.8,0.8c0,0.4,0.3,0.7,0.8,0.7c0.4,0,0.7-0.3,0.7-0.7
			C81.1,83.1,80.7,82.7,80.3,82.7z"/>
		<path fill="#59595C" d="M70.5,82.8c-0.4,0-0.8,0.3-0.8,0.7c0,0.4,0.3,0.7,0.8,0.7c0.4,0,0.8-0.3,0.8-0.7
			C71.2,83.1,70.9,82.8,70.5,82.8z"/>
		<path fill="#59595C" d="M90.2,82.7c-0.4,0-0.8,0.3-0.8,0.8c0,0.4,0.3,0.7,0.8,0.7c0.4,0,0.8-0.3,0.8-0.7
			C90.9,83.1,90.6,82.7,90.2,82.7z"/>
		<path fill="#59595C" d="M100,82.7c-0.4,0-0.8,0.3-0.8,0.8c0,0.4,0.3,0.7,0.8,0.7c0.4,0,0.8-0.3,0.8-0.7
			C100.8,83.1,100.4,82.7,100,82.7z"/>
		<path fill="#59595C" d="M109.8,82.7c-0.4,0-0.8,0.3-0.8,0.8c0,0.4,0.3,0.7,0.8,0.7c0.4,0,0.8-0.3,0.8-0.7
			C110.6,83.1,110.3,82.7,109.8,82.7z"/>
		<path fill="#59595C" d="M119.7,82.7c-0.4,0-0.8,0.3-0.8,0.8c0,0.4,0.3,0.7,0.8,0.7c0.4,0,0.8-0.3,0.8-0.7
			C120.4,83.1,120.1,82.7,119.7,82.7z"/>
		<path fill="#59595C" d="M129.5,82.7c-0.4,0-0.7,0.3-0.7,0.8c0,0.4,0.3,0.7,0.7,0.7c0.4,0,0.8-0.3,0.8-0.7
			C130.3,83.1,129.9,82.7,129.5,82.7z"/>
	</g>
	<g id="Dots_Line_1">
		<path fill="#59595C" d="M80.3,76.3c0.4,0,0.7-0.3,0.7-0.7c0-0.4-0.3-0.8-0.7-0.8c-0.4,0-0.8,0.3-0.8,0.8
			C79.6,76,79.9,76.3,80.3,76.3z"/>
		<path fill="#59595C" d="M90.2,76.3c0.4,0,0.8-0.3,0.8-0.7c0-0.4-0.3-0.8-0.8-0.8c-0.4,0-0.7,0.3-0.7,0.8
			C89.4,76,89.7,76.3,90.2,76.3z"/>
		<path fill="#59595C" d="M100,76.3c0.4,0,0.8-0.3,0.8-0.7c0-0.4-0.3-0.8-0.8-0.8c-0.4,0-0.8,0.3-0.8,0.8
			C99.2,76,99.6,76.3,100,76.3z"/>
		<path fill="#59595C" d="M109.8,76.3c0.4,0,0.8-0.3,0.8-0.7c0-0.4-0.3-0.8-0.8-0.8c-0.4,0-0.8,0.3-0.8,0.8
			C109.1,76,109.4,76.3,109.8,76.3z"/>
		<path fill="#59595C" d="M119.7,76.3c0.4,0,0.7-0.3,0.7-0.7c0-0.4-0.3-0.8-0.7-0.8c-0.4,0-0.8,0.3-0.8,0.8
			C118.9,76,119.3,76.3,119.7,76.3z"/>
	</g>
</g>
</svg>
