<svg xmlns="http://www.w3.org/2000/svg" viewBox="0 0 200 200"><g><path d="M100.1 42.4c-.2 0-.4.1-.5.3l-1.9 3.8-4.2.6c-.2 0-.4.2-.4.4-.1.2 0 .4.1.6l3 3-.7 4.2c0 .2 0 .4.2.5.1.1.2.1.3.1.1 0 .2 0 .3-.1l3.8-2 3.8 2c.1 0 .2.1.3.1.1 0 .2 0 .3-.1.2-.1.3-.3.2-.5l-.7-4.2 3-3c.1-.1.2-.4.1-.6-.1-.2-.2-.3-.4-.4l-4.2-.6-1.9-3.8c-.1-.2-.3-.3-.5-.3zM82.9 58.3l-2.6-3.4 1.3-4v-.2c0-.3-.2-.5-.5-.5h-.2l-4 1.4-3.4-2.5c-.1-.1-.2-.1-.3-.1-.1 0-.2 0-.3.1-.2.1-.3.3-.3.5l.1 4.2-3.4 2.5c-.2.1-.3.3-.2.5 0 .2.2.4.4.4l4.1 1.2 1.3 4c.1.2.2.3.4.4h.1c.2 0 .3-.1.4-.2l2.4-3.5h4.2c.2 0 .4-.1.5-.3.2-.1.2-.3 0-.5zM60 64.7c-.1 0-.3.1-.4.2L56.8 68l-4.2-.6h-.1c-.2 0-.3.1-.4.2-.1.2-.1.4 0 .6l2.1 3.7-1.9 3.8c-.1.2-.1.4.1.6.1.1.3.2.4.2h.1l4.2-.8 3 3c.1.1.2.2.4.2h.2c.2-.1.3-.2.4-.4l.5-4.2 3.8-2c.2-.1.3-.3.3-.5s-.1-.4-.3-.5l-3.9-1.8-.7-4.2c0-.2-.2-.4-.4-.4-.3-.2-.3-.2-.4-.2zM48.1 87.4H48c-.2 0-.4.2-.4.4l-1.1 4.1-4 1.4c-.2.1-.3.2-.4.4 0 .2.1.4.2.5l3.6 2.3.1 4.3c0 .2.1.4.3.5.1 0 .1.1.2.1s.2 0 .3-.1l3.3-2.7 4.1 1.2h.2c.1 0 .3-.1.4-.2.1-.2.2-.4.1-.6l-1.5-4 2.4-3.5c.1-.2.1-.4 0-.6-.1-.2-.3-.3-.5-.3l-4.2.4-2.6-3.4c-.1-.1-.2-.2-.4-.2zM56.1 112.7c-.1 0-.2 0-.3.1l-3.7 2.2-3.8-1.8c-.1 0-.2-.1-.2-.1-.1 0-.2 0-.3.1-.2.1-.2.3-.2.5l.9 4.2-2.9 3.1c-.1.2-.2.4-.1.6.1.2.2.3.5.3l4.2.4 2.1 3.7c.1.2.3.3.5.3s.4-.1.5-.3l1.7-3.9 4.2-.8c.2 0 .4-.2.4-.4.1-.2 0-.4-.2-.5l-3.2-2.8.5-4.2c0-.2-.1-.4-.2-.5-.2-.2-.3-.2-.4-.2zM66.9 131.7c-.2 0-.4.1-.5.3l-2.2 3.6-4.2.2c-.2 0-.4.1-.5.3-.1.2-.1.4.1.6l2.7 3.3-1.1 4.1c-.1.2 0 .4.2.5.1.1.2.1.4.1h.2l3.9-1.6 3.6 2.3c.1.1.2.1.3.1.1 0 .2 0 .3-.1.2-.1.3-.3.3-.5l-.3-4.2 3.3-2.7c.2-.1.2-.3.2-.5s-.2-.4-.4-.4l-4.1-1-1.5-4c-.3-.3-.4-.4-.7-.4zM94.1 153.7l-2.2-3.6 1.7-3.9c0-.1.1-.2.1-.3 0-.3-.2-.5-.5-.5h-.1l-4.1 1-3.2-2.8c-.1-.1-.2-.1-.4-.1h-.2c-.2.1-.3.3-.3.5l-.3 4.2-3.7 2.1c-.2.1-.3.3-.3.5s.1.4.3.5l3.9 1.6.9 4.1c0 .2.2.4.4.4h.1c.2 0 .3-.1.4-.2l2.7-3.2 4.2.4h.1c.2 0 .4-.1.5-.3.2 0 .2-.2 0-.4zM114.9 143.5c-.1 0-.3 0-.4.1l-3.2 2.8-4.1-1h-.1c-.2 0-.3.1-.4.2-.1.2-.2.4-.1.6l1.7 3.9-2.3 3.6c-.1.2-.1.4 0 .6.1.2.3.3.5.3h.1l4.2-.4 2.7 3.2c.1.1.3.2.4.2h.1c.2 0 .4-.2.4-.4l.9-4.1 3.9-1.6c.2-.1.3-.3.3-.5s-.1-.4-.3-.5l-3.7-2.1-.3-4.2c0-.2-.1-.4-.3-.5.1-.2.1-.2 0-.2zM133.3 131.7c-.3 0-.4.2-.5.3l-1.5 4-4.1 1c-.2 0-.4.2-.4.4s0 .4.2.5l3.3 2.7-.3 4.2c0 .2.1.4.3.5.1.1.2.1.3.1.1 0 .2 0 .3-.1l3.6-2.3 3.9 1.6h.2c.1 0 .3 0 .4-.1.2-.1.2-.3.2-.5l-1.1-4.1 2.7-3.3c.1-.2.2-.4.1-.6-.1-.2-.3-.3-.5-.3l-4.2-.2-2.2-3.6c-.3-.1-.5-.2-.7-.2zM154.6 121l-2.9-3.1.9-4.1v-.2c0-.3-.2-.5-.5-.5-.1 0-.1 0-.2.1l-3.8 1.8-3.7-2.2c-.1 0-.2-.1-.3-.1-.1 0-.2 0-.3.1-.2.1-.3.3-.2.5l.5 4.2-3.2 2.8c-.2.1-.2.3-.2.5.1.2.2.3.4.4l4.2.8 1.7 3.9c.1.2.3.3.5.3s.4-.1.5-.3l2.1-3.7 4.2-.4c.2 0 .4-.2.5-.3 0-.2 0-.4-.2-.5zM152.1 87.4c-.2 0-.3.1-.4.2l-2.6 3.4-4.2-.2c-.2 0-.4.1-.5.3-.1.2-.1.4 0 .6l2.4 3.5-1.5 4c-.1.2 0 .4.1.6.1.1.2.2.4.2h.2l4.1-1.2 3.3 2.7c.1.1.2.1.3.1.1 0 .2 0 .2-.1.2-.1.3-.3.3-.5l.1-4.3 3.6-2.3c.2-.1.3-.3.2-.5 0-.2-.2-.4-.4-.4l-4-1.4-1.1-4.1c-.1-.2-.2-.3-.4-.4 0-.2-.1-.2-.1-.2zM148.3 67.9c0-.3-.2-.5-.5-.5h-.1l-4.2.6-2.9-3.1c-.1-.1-.2-.2-.4-.2h-.2c-.2.1-.3.2-.4.4l-.7 4.2-3.9 1.8c-.2.1-.3.3-.3.5s.1.4.3.5l3.8 2 .5 4.2c0 .2.2.4.4.4h.2c.1 0 .3-.1.4-.2l3-3 4.2.8h.1c.2 0 .3-.1.4-.2.1-.2.1-.4.1-.6l-1.9-3.8 2-3.7c0 .1.1 0 .1-.1zM127 49c-.1 0-.2 0-.3.1l-3.4 2.5-4-1.4h-.2c-.1 0-.3.1-.4.2-.1.1-.2.4-.1.6l1.3 4-2.6 3.4c-.1.2-.1.4-.1.6.1.2.3.3.5.3h4.3l2.4 3.5c.1.1.3.2.4.2h.1c.2 0 .4-.2.4-.4l1.3-4.1 4.1-1.2c.2-.1.3-.2.4-.4 0-.2 0-.4-.2-.5l-3.4-2.5.1-4.2v-.1c-.1-.3-.3-.6-.6-.6z"/><g><path d="M111.8 134.2h-1.4v-3.3l-3.2-6.9h1.4l2.4 5 2.4-5h1.5l-3.1 6.8v3.4zM106.9 132.6v1.6h-5.1V124h1.4v8.7h3.7zM99.7 130c0 2.7-1.4 4.3-3.7 4.3-2.3 0-3.7-1.6-3.7-4.3v-6h1.4v6c0 1.7.9 2.8 2.3 2.8s2.3-1 2.3-2.8v-6h1.4v6zM90.4 131c0 2.1-1 3.2-2.7 3.2-1 0-1.9-.5-2.5-1.5l.7-1.3c.6.7 1.2 1.1 1.8 1.1.8 0 1.2-.6 1.2-1.6v-5.5H86V124h4.4v7z"/></g><g><path d="M116.5 109.8l-1 3.2h-6.4l8-22.7h6.4l7.7 22.7h-6.7l-.9-3.2h-7.1zm3.7-12l-2 6.7h3.9l-1.9-6.7zM108.2 92.7l-2.3 5.7c-1.9-1.3-4.9-2.7-6.5-2.7-.7 0-1.2.3-1.2.9 0 2.9 9.8 1.1 9.8 9.3 0 5.1-3.7 7.3-8 7.3-3.3 0-7-1.3-9.5-3.6l2.3-5.6c1.9 1.9 5.3 3.5 7.2 3.5.9 0 1.5-.4 1.5-1.2 0-3-9.8-1-9.8-9 0-4.5 3.2-7.4 8.1-7.4 3.1.1 6.3 1.2 8.4 2.8zM88.2 103.4c0 6-3.5 10-9 10s-9.2-3.9-9.2-10V90.3h6.3v13.1c0 2.2 1.4 3.7 2.9 3.7s2.7-1.4 2.7-3.7V90.3h6.3v13.1z"/></g><g><path d="M109.5 80.5v-4.2H105v4.2h-1.4V70.3h1.4v4.4h4.5v-4.4h1.4v10.2h-1.4zM99.6 71.9v8.7h-1.4v-8.7h-2.7v-1.5h6.8v1.5h-2.7zM92.6 76.5v-2.4h1.3v2.4h1.2V78h-1.2v2.5h-1.3V78h-4.1v-1.3l2.9-6.4h1.4L90 76.5h2.6z"/></g></g></svg>