<svg xmlns="http://www.w3.org/2000/svg" x="0" y="0" version="1.1" viewBox="0 0 200 200" xml:space="preserve"><g><path d="M170.8 65.9H29.2c-.7 0-1.2.6-1.2 1.2 0 .7.6 1.2 1.2 1.2h5.4c-.1 1.3-.4 2.6-.7 4-.6 2.6-1.2 5.3-.7 8 .6 2.8 2.2 5.1 3.8 7.3 1.1 1.5 2.1 2.9 2.7 4.4.6 1.5.9 3.3 1.3 5.1.5 2.7.9 5.4 2.5 7.7s3.9 3.8 6.2 5.3c1.6 1 3.1 1.9 4.2 3.1 1.2 1.1 2.1 2.6 3.1 4.2 1.4 2.3 2.9 4.7 5.3 6.2 2.3 1.5 5.1 2 7.7 2.5 1.8.3 3.6.6 5.1 1.3 1.5.6 2.9 1.6 4.4 2.7 2.2 1.6 4.5 3.2 7.3 3.8 2.7.5 5.4-.1 8-.7 1.9-.4 3.6-.8 5.3-.8 1.7 0 3.4.4 5.3.8s3.9.9 5.8.9c.7 0 1.4-.1 2.2-.2 2.8-.6 5.1-2.2 7.3-3.8 1.5-1.1 2.9-2.1 4.4-2.7 1.5-.6 3.3-.9 5.1-1.3 2.7-.5 5.4-.9 7.7-2.5s3.8-3.9 5.3-6.2c1-1.6 1.9-3.1 3.1-4.2 1.1-1.2 2.6-2.1 4.2-3.1 2.3-1.4 4.7-2.9 6.2-5.3 1.5-2.3 2-5.1 2.5-7.7.3-1.8.6-3.6 1.3-5.1.6-1.5 1.6-2.9 2.7-4.4 1.6-2.2 3.2-4.5 3.8-7.3.5-2.7-.1-5.4-.7-8-.3-1.4-.6-2.7-.7-4h5.4c.7 0 1.2-.6 1.2-1.2-.2-.7-.8-1.2-1.4-1.2zM153 72.3c.6 2 1.1 3.8.8 5.5-.3 1.7-1.6 3.3-2.9 4.9-1.1 1.3-2.2 2.7-2.8 4.3-.7 1.6-.9 3.4-1.1 5.1-.2 2.1-.5 4-1.4 5.4-1 1.4-2.7 2.4-4.5 3.4-1.5.8-3.1 1.7-4.3 2.9-1.2 1.2-2.1 2.8-2.9 4.3-1 1.8-2 3.5-3.4 4.5s-3.4 1.2-5.4 1.4c-1.7.2-3.5.4-5.1 1.1-1.6.7-3 1.7-4.3 2.8-1.6 1.3-3.2 2.5-4.9 2.9-1.6.3-3.5-.2-5.5-.8-1.7-.5-3.4-1-5.2-1-1.8 0-3.5.5-5.2 1-2 .6-3.8 1.1-5.5.8-1.7-.3-3.3-1.6-4.9-2.9-1.3-1.1-2.7-2.2-4.3-2.8-1.6-.7-3.4-.9-5.1-1.1-2.1-.2-4-.5-5.4-1.4-1.4-1-2.4-2.7-3.4-4.5-.8-1.5-1.7-3.1-2.9-4.3-1.2-1.2-2.8-2.1-4.3-2.9-1.8-1-3.5-2-4.5-3.4-.9-1.4-1.2-3.4-1.4-5.4-.2-1.7-.4-3.5-1.1-5.1-.7-1.6-1.7-3-2.8-4.3-1.3-1.6-2.5-3.2-2.9-4.9-.3-1.6.2-3.5.8-5.5.4-1.3.7-2.6.9-4H72c-.2.6-.4 1.1-.6 1.7-.6 1.6-1.3 3.2-.9 4.9.5 1.7 2 2.9 3.3 3.9.9.7 1.8 1.4 2.2 2.1.4.7.6 1.8.7 3 .2 1.6.5 3.5 1.7 4.8 1.2 1.2 3.1 1.5 4.8 1.7 1.1.2 2.2.3 3 .7.7.4 1.4 1.3 2.1 2.2 1 1.3 2.2 2.8 3.9 3.3.4.1.8.1 1.1.1 1.3 0 2.5-.5 3.8-1 1.1-.4 2.1-.9 3-.9.9 0 1.9.4 3 .9 1.6.7 3.2 1.3 4.9.9 1.7-.5 2.9-2 3.9-3.3.7-.9 1.4-1.8 2.1-2.2.7-.4 1.8-.6 3-.7 1.6-.2 3.5-.5 4.8-1.7 1.2-1.2 1.5-3.1 1.7-4.7.2-1.1.3-2.2.7-3 .4-.7 1.3-1.4 2.2-2.1 1.3-1 2.8-2.2 3.3-3.9.4-1.7-.2-3.3-.9-4.9-.2-.6-.5-1.2-.6-1.7h24.1c-.1 1.3.3 2.7.7 3.9zm-67.6-.8c.3 1.2 2.8 1.5 3.4 2.5.6 1.1-.4 3.4.5 4.2.9.9 3.2-.1 4.2.5s1.3 3.1 2.5 3.4c1.1.3 2.6-1.7 3.9-1.7 1.2 0 2.7 2 3.9 1.7 1.2-.3 1.5-2.8 2.5-3.4 1.1-.6 3.4.4 4.2-.5.9-.9-.1-3.2.5-4.2s3.1-1.3 3.4-2.5c.2-.9-1-2.1-1.5-3.1h12.6c.2.9.5 1.8.9 2.7.5 1.3 1 2.5.8 3.4-.3.9-1.3 1.8-2.4 2.6-1 .8-2.1 1.6-2.8 2.8-.7 1.1-.8 2.5-1 3.8-.2 1.4-.4 2.7-1 3.4-.7.7-2 .8-3.4 1-1.3.2-2.7.4-3.8 1-1.1.7-2 1.7-2.8 2.8-.9 1.1-1.7 2.2-2.6 2.4-.9.2-2.1-.3-3.4-.8-1.3-.5-2.6-1-3.9-1-1.4 0-2.7.5-3.9 1-1.3.5-2.5 1-3.4.8-1-.3-1.8-1.3-2.7-2.4-.8-1-1.6-2.1-2.8-2.8-1.1-.7-2.5-.8-3.8-1-1.4-.2-2.7-.4-3.4-1-.7-.7-.8-2-1-3.4-.2-1.3-.4-2.7-1-3.8-.7-1.1-1.7-2-2.8-2.8-1.1-.9-2.2-1.7-2.4-2.6-.2-.9.3-2.1.8-3.4.4-.9.7-1.8.9-2.7H87c-.6 1-1.8 2.2-1.6 3.1zm77.6 1.6c.5 2.4 1 4.7.6 6.7-.4 2.1-1.8 4-3.2 6.1-1.1 1.6-2.3 3.2-3 5-.8 1.8-1.1 3.9-1.5 5.8-.4 2.4-.8 4.7-2 6.5-1.2 1.8-3.2 3-5.3 4.3-1.7 1-3.4 2.1-4.8 3.5s-2.5 3.1-3.5 4.8c-1.3 2.1-2.6 4.1-4.3 5.3-1.7 1.2-4 1.6-6.5 2-1.9.3-3.9.7-5.8 1.5-1.8.7-3.4 1.9-5 3-2 1.4-4 2.8-6.1 3.2-2 .4-4.3-.1-6.7-.6-1.9-.4-3.9-.9-6-.9s-4 .5-6 .9c-2.4.5-4.7 1-6.7.6-2.1-.4-4-1.8-6.1-3.2-1.6-1.1-3.2-2.3-5-3-1.8-.8-3.8-1.1-5.8-1.4-2.4-.4-4.7-.8-6.5-2-1.8-1.2-3-3.2-4.3-5.3-1-1.7-2.1-3.4-3.5-4.8s-3.1-2.5-4.8-3.5c-2.1-1.3-4.1-2.6-5.3-4.3-1.2-1.7-1.6-4-2-6.5-.3-1.9-.7-3.9-1.5-5.8-.7-1.8-1.9-3.4-3-5-1.4-2-2.8-4-3.2-6.1-.4-2 .1-4.3.7-6.7.3-1.5.7-3.1.8-4.7h7.6c-.1 1.1-.5 2.2-.8 3.3-.6 2.2-1.2 4.4-.8 6.6.5 2.3 1.9 4.2 3.3 6 1 1.3 2 2.5 2.5 3.7.5 1.3.7 2.8.9 4.5.3 2.2.5 4.6 1.8 6.5 1.3 1.9 3.3 3.1 5.3 4.2 1.4.8 2.8 1.5 3.8 2.5s1.7 2.3 2.5 3.8c1.1 2 2.3 4 4.2 5.3 1.9 1.3 4.2 1.5 6.5 1.8 1.6.2 3.2.4 4.5.9 1.3.5 2.5 1.5 3.7 2.5 1.8 1.4 3.7 2.9 6 3.3.5.1 1 .1 1.5.1 1.7 0 3.4-.5 5.1-1 1.6-.5 3.1-.9 4.6-.9 1.4 0 3 .4 4.6.9 2.2.6 4.4 1.2 6.6.8 2.3-.5 4.2-1.9 6-3.3 1.3-1 2.5-2 3.7-2.5 1.3-.5 2.8-.7 4.5-.9 2.2-.3 4.6-.5 6.5-1.8 1.9-1.3 3.1-3.3 4.2-5.3.8-1.4 1.5-2.8 2.5-3.8s2.3-1.7 3.8-2.5c2-1.1 4-2.3 5.3-4.2 1.3-1.9 1.6-4.2 1.8-6.5.2-1.6.4-3.2.9-4.5.5-1.3 1.5-2.5 2.5-3.7 1.4-1.8 2.9-3.6 3.3-6 .4-2.2-.2-4.4-.8-6.6-.3-1.1-.6-2.2-.8-3.3h7.6c.2 1.6.5 3.2.9 4.7z"/><path d="M64.2 77.8c0-.1 0-.2-.1-.3l-2.3-2.6.9-3.4c0-.1 0-.2-.1-.3-.1-.1-.1-.1-.2-.1h-.1l-3.2 1.3-2.9-1.9c-.1 0-.1-.1-.2-.1h-.2c-.1.1-.2.2-.2.3l.3 3.5-2.7 2.2c-.1.1-.1.2-.1.3 0 .1.1.2.2.2l3.4.8 1.3 3.2c0 .1.1.2.3.2.1 0 .2-.1.3-.2l1.8-3 3.5-.2c.1.3.2.2.3.1zM72.6 91.9l-3.2-1.4-.7-3.4c0-.1-.1-.2-.2-.2h-.1c-.1 0-.2 0-.2.1l-2.3 2.6-3.5-.4c-.1 0-.2.1-.3.1-.1.1-.1.2 0 .3l1.8 3-1.5 3.2c-.1.1 0 .2 0 .3.1.1.2.1.3.1h.1l3.4-.7 2.5 2.4c.1.1.1.1.2.1h.1c.1 0 .2-.1.2-.3l.3-3.5 3.1-1.7c.1-.1.2-.2.2-.3 0-.1-.1-.2-.2-.3zM86.5 101.3l-3.5.1-2.1-2.8c-.1-.1-.2-.1-.3-.1h-.1c-.1 0-.2.1-.3.2l-1 3.3-3.3 1.1c-.1 0-.2.1-.2.3 0 .1 0 .2.1.3l2.9 2v3.5c0 .1.1.2.2.3h.1c.1 0 .1 0 .2-.1l2.7-2.1 3.3 1h.1c.1 0 .2 0 .2-.1.1-.1.1-.2.1-.3l-1.2-3.3 2-2.8c0-.1.1-.1.1-.2.3-.2.2-.3 0-.3zM103 107.4l.6-3.4v-.1c0-.2-.1-.3-.3-.3h-.1l-3.1 1.6-3.1-1.6h-.1c-.1 0-.1 0-.2.1s-.1.2-.1.3l.6 3.4-2.5 2.4c-.1.1-.1.2-.1.3 0 .1.1.2.3.2l3.4.5 1.5 3.1c.1.1.2.2.3.2.1 0 .2-.1.3-.2l1.5-3.1 3.4-.5c.1 0 .2-.1.3-.2 0-.1 0-.2-.1-.3l-2.5-2.4zM123.9 103.2l-3.3-1.1-1-3.3c0-.1-.1-.2-.3-.2h-.1c-.1 0-.2 0-.3.1l-2.1 2.8-3.5-.1c-.1 0-.2.1-.3.2-.1.1 0 .2 0 .3l2 2.8-1.2 3.3c0 .1 0 .2.1.3.1.1.1.1.2.1h.1l3.3-1 2.7 2.1c.1 0 .1.1.2.1h.1c.1-.1.2-.2.2-.3v-3.5l2.9-2c.1-.1.2-.2.1-.3.4-.2.3-.3.2-.3zM127.2 92.2c0 .1.1.2.2.3l3.1 1.7.3 3.5c0 .1.1.2.2.3h.1c.1 0 .2 0 .2-.1l2.5-2.4 3.4.7h.1c.1 0 .2 0 .3-.1.1-.1.1-.2 0-.3l-1.5-3.2 1.7-3c0-.1.1-.1.1-.2 0-.2-.1-.3-.3-.3l-3.4.4-2.3-2.6c-.1-.1-.2-.1-.2-.1h-.1c-.1 0-.2.1-.2.2l-.7 3.4-3.2 1.4c-.2.2-.3.3-.3.4zM136.1 78l3.5.2 1.8 3c.1.1.2.2.3.2.1 0 .2-.1.3-.2l1.3-3.2 3.4-.8c.1 0 .2-.1.2-.2s0-.2-.1-.3l-2.7-2.2.3-3.4V71c0-.2-.1-.3-.3-.3-.1 0-.1 0-.2.1l-2.9 1.9-3.2-1.3h-.1c-.1 0-.2 0-.2.1-.1.1-.1.2-.1.3l.9 3.4-2.3 2.6c-.1.1-.1.2-.1.3 0-.2.1-.1.2-.1z"/></g></svg>