<svg viewBox="-46 0 512 512.00005" xmlns="http://www.w3.org/2000/svg"><path d="m54.023438 298.3125 17.359374 11.367188 6.566407-24.644532c11.621093-43.320312 10.390625-41.40625 11.554687-46.214844-.472656-2.699218-12.707031-35.246093-4.1875-74.789062l.167969-.910156c11.644531-76.882813 140.308594-97.808594 200.054687-47.78125 25.773438 21.582031 35.472657 53.96875 28.039063 93.660156-5.335937 28.503906-14.652344 49.757812-29.3125 66.886719-20.238281 23.648437-45.691406 25.570312-60.769531 17.347656-5.613282-3.058594-18.050782-12.261719-12.285156-31.554687 8.246093-27.613282 23.144531-69.203126 24.90625-99.363282 1.570312-26.867187-14.632813-48.734375-40.320313-54.414062-28.632813-6.332032-61.625 9.121094-75.890625 45.164062-10.265625 25.925782-10.238281 52.871094.085938 82.339844.335937 7.269531-7.0625 34.683594-13.03125 56.800781-18.042969 66.867188-42.757813 158.4375-18.6875 205.066407l7.605468 14.726562 13.890625-9.035156c39.699219-25.808594 62.890625-100.882813 75.601563-147.652344 33.460937 24.777344 80.875 26.867188 127.773437 3.964844 75.289063-36.769532 125.511719-124.511719 100.347657-222.199219-28.046876-108.878906-136.898438-151.082031-246.535157-133.050781-90.378906 14.859375-147.859375 73.402344-163.117187 145.558594-12.871094 60.878906 7.296875 120.648437 50.183594 148.726562zm-20.84375-142.523438c13.628906-64.464843 65.457031-110.136718 138.640624-122.171874 87.890626-14.453126 187.726563 14.246093 212.632813 110.941406 23.035156 89.421875-27.636719 160.019531-84.46875 187.773437-34.863281 17.023438-82.242187 22.070313-110.667969-14.824219l-18.546875-24.070312-7.820312 29.359375c-10.328125 38.734375-27.03125 104.492187-53.863281 139.636719-5.269532-43.472656 14.320312-116.078125 26.824218-162.410156 11.9375-44.230469 16.621094-62.625 12.628906-73.828126-8.074218-22.660156-8.320312-42.96875-.753906-62.09375 8.476563-21.410156 26.554688-30.234374 41.535156-26.921874 5.410157 1.199218 17.882813 5.871093 16.859376 23.386718-1.515626 25.910156-15.984376 66.6875-23.703126 92.53125-8.105468 27.128906 2.359376 53.21875 26.664063 66.46875 27.3125 14.886719 68.316406 10.390625 97.90625-24.179687 18.21875-21.289063 29.660156-46.984375 36.003906-80.867188 4.90625-26.195312 3.742188-50.28125-3.457031-71.597656-6.695312-19.828125-18.40625-36.84375-34.804688-50.578125-77.382812-64.792969-233.136718-35.035156-248.882812 65.820312-5.605469 26.367188-4.6875 53.8125 2.722656 81.640626-1.191406 5.21875-2.882812 11.902343-4.675781 18.773437-20.871094-24.542969-29.160156-63.109375-20.773437-102.789063zm0 0"/></svg>