<svg viewBox="0 0 512.00177 512" xmlns="http://www.w3.org/2000/svg"><path d="m255.433594 0c-136.070313 0-244.84375 61.941406-254.832032 199.300781-6.566406 90.59375 42.792969 130.667969 48.320313 140.148438l80.714844-63.832031c-3.871094-7.546876-28.492188-37.820313-26.566407-72.445313 2.710938-48.835937 60.871094-109.484375 150.636719-109.601563 90.972657 0 152.167969 60.921876 152.246094 117.820313.085937 59.3125-55.601563 79.328125-85.058594 81.625-18.445312 1.4375-35.285156-2.503906-43.953125-10.285156-3.886718-3.496094-5.792968-7.386719-5.976562-12.242188v-120.519531l-89.996094.152344v208.769531c-.574219 54.21875-29.773438 58.464844-38.664062 58.472656-7.867188-.019531-16.441407-3.914062-26.371094-8.425781l-21.632813-9.777344c-3.144531 34.03125-4.402343 45.429688-4.324219 58.132813.0625 10.832031.195313 33.367187 21.640626 42.851562 17.488281 7.738281 36.410156 11.832031 54.816406 11.832031 76.195312-.117187 103.347656-59.546874 104.527344-136.332031l.003906-1.300781c14.84375 2.972656 33.519531 6.125 54.03125 5.679688 87.785156-1.921876 173.8125-67.175782 185.539062-157.03125 17.25-132.152344-120.777344-222.992188-255.101562-222.992188zm225.355468 219.109375c-10.3125 78.976563-89.234374 129.449219-156.449218 130.921875-20.867188.453125-39.808594-3.484375-55.027344-6.652344-3.730469-.777344-7.257812-1.511718-10.585938-2.132812l-17.761718-3.328125v37.382812c-1.503906 95.507813-43.28125 106.628907-74.628906 106.675781-13.960938 0-29.082032-3.289062-42.582032-9.265624-1.648437-.726563-3.699218-1.636719-3.78125-15.59375-.027344-4.367188.167969-8.898438.503906-13.796876 6.851563 2.375 14.039063 4.023438 21.804688 4.042969 7.292969-.007812 26.039062-1.640625 42.53125-16.632812 17.03125-15.480469 25.828125-39.574219 26.152344-71.613281v-179.046876l30-.050781v90.71875l.003906.4375c.382812 13.144531 5.890625 24.855469 15.925781 33.871094 15.003907 13.480469 39.183594 19.992187 66.335938 17.875 59.15625-4.613281 112.8125-46.007813 112.722656-111.574219-.101563-72.367187-73.367187-147.777344-182.265625-147.777344-105.898438.140626-176.976562 73.261719-180.570312 137.9375-1.195313 21.542969 4.417968 43.574219 17.128906 67.015626l-36.308594 28.710937c-18.65625-27.566406-26.128906-58.371094-23.417969-95.761719 11.253907-154.765625 161.039063-171.472656 224.914063-171.472656 114.523437 0 240.1875 75.476562 225.355468 189.109375zm0 0"/></svg>