<svg xmlns="http://www.w3.org/2000/svg" x="0" y="0" version="1.1" xml:space="preserve" viewBox="0 0 32 32"><path d="M0 0v32h32V0H0zm8.4 19.1-.1.1c-.1 0-.1 0-.1-.1l-.3-1.5.3-1.5.1-.1c.1 0 .1 0 .1.1l.4 1.5-.4 1.5zm2.7.4c0 .1-.1.1-.3.1-.2 0-.3-.1-.3-.1l-.3-1.8.3-2.7c0-.1.1-.1.3-.1.1 0 .3.1.3.1l.3 2.7-.3 1.8zm3-.1c0 .1-.2.2-.5.2s-.5-.1-.5-.2l-.3-1.7.3-3.7c0-.1.2-.2.5-.2s.5.1.5.2l.3 3.7-.3 1.7zm7.9.2h-5.6c-.1 0-.2-.1-.2-.2v-6.5c0-.1 0-.2.2-.2.4-.2.8-.2 1.3-.2 1.9 0 3.4 1.4 3.6 3.3.2-.1.5-.2.8-.2 1.1 0 2 .9 2 2-.1 1.1-1 2-2.1 2z"/></svg>