<svg viewBox="-46 0 512 512" xmlns="http://www.w3.org/2000/svg"><path d="m225 122c-37.511719 0-66.238281 34.109375-58.828125 71.976562 5.5625 28.445313 31.9375 47.308594 60.789063 48.050782 43.378906 1.113281 78.6875 39.675781 72.289062 85.730468-5.050781 36.363282-38.773438 64.242188-78.015625 64.242188h-26.234375c-41.355469 0-75-33.644531-75-75v-257c0-33.085938-26.914062-60-60-60s-60 26.914062-60 60v257c0 107.523438 87.476562 195 195 195h23.738281c100.304688-.003906 187.167969-72.382812 199.617188-169.410156 15.265625-118.988282-77.566407-220.589844-193.355469-220.589844zm163.601562 216.773438c-10.476562 81.652343-83.5 143.226562-169.863281 143.226562h-23.738281c-90.980469 0-165-74.019531-165-165v-257c0-16.542969 13.457031-30 30-30s30 13.457031 30 30v257c0 57.898438 47.101562 105 105 105h26.234375c53.902344 0 100.570313-38.589844 107.730469-90.113281 8.886718-63.988281-40.175782-118.28125-101.238282-119.851563-13.710937-.351562-29.144531-8.644531-32.113281-23.816406-3.851562-19.691406 11.070313-36.21875 29.386719-36.21875 96.238281 0 176.769531 84.132812 163.601562 186.773438zm0 0"/></svg>