<svg viewBox="-30 0 512 512.00001" xmlns="http://www.w3.org/2000/svg"><path d="m31.839844 447.847656 195.148437 64.152344 194.125-64.167969 31.835938-447.832031h-452.949219zm388.917968-417.863281-28.128906 395.683594-165.667968 54.761719-166.640626-54.78125-28.128906-395.664063zm0 0"/><path d="m282.246094 286.835938-3.558594 50.394531-51.746094 17.171875-52.707031-17.226563-1.480469-20.359375h-89.972656l6.003906 86.625 138.210938 45.8125 137.148437-45.832031 14.726563-206.535156h-214.476563l-3.292969-46.972657h220.976563l6.410156-89.949218h-324.007812l15.890625 226.871094zm74.046875-196.886719-2.136719 29.980469h-225.214844l7.5 106.941406h210.234375l-11.015625 154.453125-108.707031 36.328125-109.644531-36.34375-2.394532-34.507813h29.960938l.917969 12.621094 81.21875 26.546875 80.175781-26.601562 7.234375-102.515626h-206.09375l-11.691406-166.902343zm0 0"/></svg>