<svg xmlns="http://www.w3.org/2000/svg" viewBox="0 0 32 32"><path d="M30.2 14.6l-11-11c-.5-.5-1-1.1-1.7-1.4-.7-.3-1.5-.4-2.3-.2-.7.2-1.3.5-1.7 1-4.2 4.1-8.3 8.2-12.4 12.3-.5.5-.8 1.1-1 1.7-.3 1.2.1 2.5 1 3.4l8.7 8.7c.6.7 1.6 1 2.5 1h7.1c1.1.1 2.1-.3 2.9-1.1l7.9-7.9c.4-.4.9-.8 1.2-1.3.6-.9.7-2.2.4-3.2-.3-.8-1-1.4-1.6-2zM9.6 19.3c-.4.5-1.2.4-1.8.3-.5-.4-1-.9-1.5-1.5-.2-.3.1-.6.3-.8l8.1-8.1c.4-.4.7-.7 1.1-1 .4-.2.6.2.9.4.5.5 1.1 1 1.5 1.6.2.3 0 .6-.2.8-2.8 2.7-5.6 5.5-8.4 8.3zm8.6 6.4c-.4.5-.9 1-1.4 1.4-.5.1-1 .1-1.4 0-.5-.2-.8-.7-1.1-1-.3-.3-.7-.6-.3-1l1.8-1.8c.2-.2.6-.1.8.1l1.6 1.6c.1.1.2.4 0 .7zm-.2-7.3L13.4 23c-.4.5-1.2.4-1.8.3-.6-.4-1-.9-1.5-1.4-.3-.3 0-.7.2-.9l4.6-4.6c.3-.3.5-.6.9-.8.3-.1.6.2.8.4.5.5 1.1 1 1.6 1.6.2.3 0 .6-.2.8z"/></svg>