<svg xmlns="http://www.w3.org/2000/svg" x="0" y="0" version="1.1" xml:space="preserve" viewBox="0 0 32 32"><path d="M17.1 13.1c-.2-.3-.5-.5-.8-.8-.1-.1-.3-.3-.4-.2-.2.2-.4.3-.5.5l-4.1 4.1c-.1.1-.3.3-.1.4.2.3.5.5.7.7.3 0 .7.1.9-.1l4.2-4.2c.1-.1.2-.3.1-.4zM16.3 16c-.1-.1-.2-.3-.4-.2-.2.1-.3.3-.4.4l-2.3 2.3c-.1.1-.3.3-.1.4.2.2.4.5.7.7.3 0 .7.1.9-.2l2.3-2.3c.1-.1.2-.2.1-.4-.2-.2-.5-.4-.8-.7zM16.2 19.7c-.1-.1-.3-.2-.4-.1l-.9.9c-.2.2 0 .4.2.5.2.2.3.4.6.5h.7c.3-.2.5-.4.7-.7.1-.1.1-.3 0-.4-.3-.2-.6-.5-.9-.7z"/><path d="M16 0C7.2 0 0 7.2 0 16s7.2 16 16 16 16-7.2 16-16S24.8 0 16 0zm7.7 17.9c-.2.3-.4.5-.6.7l-3.9 3.9c-.4.4-.9.6-1.5.5h-3.6c-.5 0-.9-.2-1.2-.5l-4.4-4.4c-.4-.4-.6-1.1-.5-1.7.1-.3.3-.6.5-.9l6.2-6.2.9-.3c.4-.1.8-.1 1.1.1.4.2.6.5.9.7l5.5 5.5c.3.3.7.6.8 1 .2.5.1 1.2-.2 1.6z"/></svg>