<svg xmlns="http://www.w3.org/2000/svg" viewBox="0 0 32 32"><path d="M14.832 18.184l-1.08-3.224 3.32-1.112 1.08 3.224z"/><path d="M0 0v32h32V0H0zm23.1 18.1l-1.6.5.6 1.7c.2.7-.1 1.4-.8 1.6-.1 0-.3.1-.4.1-.5 0-1-.4-1.2-.9l-.7-1.6-3.3 1.1.6 1.7c.2.7-.1 1.4-.8 1.6-.2.1-.4.1-.5.1-.5 0-1-.4-1.2-.9l-.6-1.7-1.6.6c-.1 0-.3.1-.4.1-.5 0-1-.4-1.2-.9-.2-.7.1-1.4.8-1.6l1.6-.5-1.1-3.2-1.6.5c-.1 0-.3.1-.4.1-.5 0-1-.4-1.2-.9-.2-.7.1-1.4.8-1.6l1.6-.5-.5-1.9c-.2-.7.1-1.4.8-1.6.7-.2 1.4.1 1.6.8l.6 1.7 3.3-1.1-.6-1.7c-.2-.7.1-1.4.8-1.6.7-.2 1.4.1 1.6.8l.6 1.7 1.6-.5c.7-.2 1.4.1 1.6.8.2.7-.1 1.4-.8 1.6l-1.5.5 1.1 3.2 1.6-.5c.7-.2 1.4.1 1.6.8.2.7-.1 1.4-.8 1.6z"/></svg>