<svg viewBox="0 -25 512.00034 512" xmlns="http://www.w3.org/2000/svg"><path d="m456.085938 195.617188c-41.441407-33.324219-66.585938-28.167969-80.386719-17.976563-24.785157 18.3125-26.75 65.417969-5.011719 120.015625 14.335938 35.992188 34.460938 63.847656 61.523438 85.15625l.027343.019531c23.527344 18.4375 57.574219 9.347657 68.1875-15.230469 25.738281-59.507812 7.507813-130.226562-44.339843-171.984374zm16.808593 160.085937c-2.8125 6.515625-14.121093 9.820313-22.15625 3.523437-22.789062-17.953124-39.859375-41.722656-52.183593-72.667968-18.578126-46.65625-13.988282-78.175782-5.035157-84.792969 5.375-3.96875 20.0625-1.839844 43.757813 17.214844 41.375 33.324219 56.023437 89.542969 35.617187 136.722656zm0 0"/><path d="m260.617188 173.027344 14.710937-6.246094-7.085937-14.125c-.101563-.214844-.203126-.425781-.308594-.628906-38.875-78.703125-109.4375-119.933594-175.460938-119.933594-38.183594 0-78.519531 12.742188-89.804687 49.347656-9.707031 31.472656 7.554687 67.84375 43.972656 92.664063 61.003906 41.636719 146.601563 27.519531 213.976563-1.078125zm-197.066407-23.695313-.007812-.003906c-24.921875-16.984375-37.867188-40.710937-32.214844-59.050781 5.445313-17.652344 28.300781-28.191406 61.144531-28.191406 44.207032 0 102.992188 23.808593 141.148438 89.390624-41.523438 15.363282-116.585938 34.359376-170.070313-2.144531zm0 0"/><path d="m330.660156 193.261719 8.992188-28.546875-28.25 9.890625c-34.148438 11.957031-58.703125 32.199219-72.984375 60.164062-12.367188 24.222657-16.132813 53.328125-10.886719 84.164063 5.902344 34.742187 23.148438 69.792968 47.304688 96.164062 26.378906 28.792969 58.226562 44.652344 89.671874 44.652344 21.757813 0 43.695313-6.082031 65.203126-18.074219l25.605468-14.28125-26.566406-12.40625c-64.296875-30.027343-119.300781-154.359375-98.089844-221.726562zm33.847656 236.496093c-46.726562 0-96.917968-54.136718-107.410156-115.847656-3.695312-21.753906-5.914062-70.492187 39.53125-99.253906-2.214844 33.691406 5.78125 74.277344 23.066406 114.199219 18.046876 41.671875 42.867188 75.648437 70.425782 97.183593-8.609375 2.472657-17.167969 3.71875-25.613282 3.71875zm0 0"/><path d="m307.585938 15.941406c-37.753907 32.132813-39.1875 83.144532-21.773438 129.359375l5.777344 15.332031 14.761718-7.109374c48.351563-23.28125 77.136719-57.402344 81.050782-96.101563 3.539062-35.453125-14.300782-48.8125-22.136719-52.914063-16.921875-8.855468-39.023437-4.4687495-57.679687 11.433594zm49.976562 38.480469c-3.023438 29.882813-27.628906 50.957031-48.824219 63.761719-5.707031-23.078125-7.933593-57.089844 18.296875-79.40625l.011719-.007813c6.421875-5.476562 17.441406-11.28125 24.3125-7.683593 5.078125 2.652343 7.394531 11.386718 6.203125 23.335937zm0 0"/><path d="m203.144531 312.546875-5.523437-43.769531-22.296875 38.070312c-16.625 28.390625-31.125 58.804688-43.089844 90.390625-4.394531 11.597657 1.003906 23.398438 12.890625 28.078125 30.453125 11.859375 62.40625 21.347656 94.976562 28.1875l42.878907 9.011719-28.363281-33.394531c-29.054688-34.207032-45.890626-72.339844-51.472657-116.574219zm-39.871093 87.589844c5.703124-14.433594 11.957031-28.582031 18.722656-42.355469 5.914062 19.996094 14.253906 38.832031 25.105468 56.714844-14.878906-4.21875-29.527343-9.019532-43.828124-14.359375zm0 0"/></svg>