<svg xmlns="http://www.w3.org/2000/svg" x="0" y="0" version="1.1" xml:space="preserve" viewBox="0 0 32 32"><path d="M0 0v32h32V0H0zm10.2 19c-.1-.1-.1-.4-.2-.7-.1-.9 0-2.2.3-2.6.1-.2.3-.3.5-.3.1 0 .2 0 2.8 1.1l.7.3c.3.1.4.4.4.7 0 .3-.2.6-.5.6l-1 .3c-2.3.8-2.4.8-2.6.8-.1.1-.3 0-.4-.2zm5.8 1.9c0 2.5 0 2.6-.1 2.7-.1.2-.2.3-.4.4-.6.1-2.6-.6-3-1.1-.1-.1-.1-.2-.1-.3v-.2c0-.1.1-.2 1.9-2.3l.5-.6c.2-.2.5-.3.8-.2.3.1.5.4.4.6v1zm-.4-5.3c-.1 0-.5.2-1-.6 0 0-3.2-5.2-3.3-5.3 0-.2 0-.4.2-.5.5-.6 3.1-1.3 3.8-1.2.2.1.4.2.4.4s.4 5 .4 6.1c0 1-.4 1.1-.5 1.1zm1.7.3.7-.9c1.4-2 1.5-2.1 1.6-2.2.2-.1.4-.1.6 0 .6.3 1.7 2 1.8 2.7 0 .2-.1.4-.2.5-.1.1-.2.1-2.9.8-.6.1-.8.2-.9.2-.3.1-.6-.1-.7-.3-.2-.3-.2-.6 0-.8zm2.7 6.9c-.2.1-.4.1-.6-.1-.1-.1-.2-.2-1.6-2.6l-.4-.7c-.2-.2-.1-.6.1-.8.2-.2.5-.3.7-.2l1 .4c2.3.8 2.4.8 2.5.9.2.1.2.3.2.5 0 .6-1.3 2.3-1.9 2.6z"/></svg>