<svg xmlns="http://www.w3.org/2000/svg" x="0" y="0" version="1.1" xml:space="preserve" viewBox="0 0 32 32"><path d="M28.2 0H3.8C1.7 0 0 1.7 0 3.8v24.4C0 30.3 1.7 32 3.8 32h24.4c2.1 0 3.8-1.7 3.8-3.8V3.8C32 1.7 30.3 0 28.2 0zM24 4h3c.6 0 1 .4 1 1v3c0 .6-.4 1-1 1h-3c-.6 0-1-.4-1-1V5c0-.6.4-1 1-1zm-8 5.9c3.4 0 6.2 2.7 6.2 6.1 0 3.4-2.8 6.1-6.2 6.1-3.4 0-6.2-2.7-6.2-6.1.1-3.4 2.8-6.1 6.2-6.1zM28 29H4c-.6 0-1-.4-1-1V13h4c-.5.8-.7 2.1-.7 3 0 5.4 4.4 9.7 9.7 9.7 5.4 0 9.7-4.4 9.7-9.7 0-.9-.1-2.3-.8-3h4v15c.1.6-.3 1-.9 1z"/></svg>