<svg xmlns="http://www.w3.org/2000/svg" x="0" y="0" version="1.1" xml:space="preserve" viewBox="0 0 32 32"><path d="M16 14.4 13.6 16 16 17.6 18.4 16z"/><path d="M9.4 14.8 9.4 17.2 11.1 16z"/><path d="M9.9 18.4 15.3 22 15.3 18.8 12.3 16.8z"/><path d="M22.1 13.6 16.7 10 16.7 13.2 19.7 15.2z"/><path d="M15.3 13.2 15.3 10 9.9 13.6 12.3 15.2z"/><path d="M16.7 18.8 16.7 22 22.1 18.4 19.7 16.8z"/><path d="M0 0v32h32V0H0zm24 18.4c0 .1 0 .1 0 0V18.7l-7.3 4.9c-.4.4-.6.4-.7.4-.1 0-.3 0-.4-.1L8.3 19V13.5l7.3-4.9c.2-.2.5-.2.8 0l7.3 4.9V18.4z"/><path d="M22.6 17.2 22.6 14.8 20.9 16z"/></svg>