<svg xmlns="http://www.w3.org/2000/svg" x="0" y="0" version="1.1" xml:space="preserve" viewBox="0 0 32 32"><path d="M0 0v32h32V0H0zm23.6 20.6-7.3 3.3c-.2.1-.5.1-.7 0l-7.3-3.3c-.2-.1-.2-.4 0-.5l1.5-.7c.2-.1.5-.1.7 0l5.1 2.3c.2.1.5.1.7 0l5.1-2.3c.2-.1.5-.1.7 0l1.5.7c.2.1.2.4 0 .5zm0-4.3-7.3 3.3c-.2.1-.5.1-.7 0l-7.3-3.3c-.2-.1-.2-.4 0-.5l1.5-.7c.2-.1.5-.1.7 0l5.1 2.3c.2.1.5.1.7 0l5.1-2.3c.2-.1.5-.1.7 0l1.5.7c.2.1.2.4 0 .5zm0-4.3-7.3 3.3c-.2.1-.5.1-.7 0L8.4 12c-.2-.1-.2-.4 0-.5l7.2-3.4c.3-.1.5-.1.8 0l7.2 3.4c.2.1.2.4 0 .5z"/></svg>