<svg viewBox="0 0 512 512" xmlns="http://www.w3.org/2000/svg"><path d="m151 121h-30v60h-60v150h90c0-10.117188 0-199.925781 0-210zm-30 180h-30v-90h30zm0 0"/><path d="m181 181h30v150h-30zm0 0"/><path d="m0 75v362c0 41.355469 33.644531 75 75 75h362c41.355469 0 75-33.644531 75-75v-362c0-41.355469-33.644531-75-75-75h-362c-41.355469 0-75 33.644531-75 75zm30 0c0-24.8125 20.1875-45 45-45h362c24.8125 0 45 20.1875 45 45v362c0 24.8125-20.1875 45-45 45h-362c-24.8125 0-45-20.1875-45-45zm0 0"/><path d="m181 121h30v30h-30zm0 0"/><path d="m331 181h-90v150h60v30h-60v30h90c0-10.5625 0-200.320312 0-210zm-60 120v-90h30v90zm0 0"/><path d="m451 181h-90v150h60v30h-60v30h90c0-10.5625 0-200.320312 0-210zm-60 120v-90h30v90zm0 0"/></svg>