<svg viewBox="0 -91 512 512" xmlns="http://www.w3.org/2000/svg"><path d="m482 90h-90v30h-30v90h30v30h90v-30h30v-90h-30zm0 90h-30v30h-30v-30h-30v-30h30v-30h30v30h30zm0 0"/><path d="m166 0c-91.53125 0-166 74.019531-166 165s74.46875 165 166 165 166-74.019531 166-165c0-11.097656-1.109375-22.195312-3.300781-32.984375l-2.4375-12.015625h-93.046875l61.0625-61.066406c-4.886719-3.421875-46.808594-58.933594-128.277344-58.933594zm63.820312 80.964844c-18.152343-13.449219-40.710937-20.964844-63.820312-20.964844-58.050781 0-106 47.117188-106 105 0 57.8125 47.886719 105 106 105 45.265625 0 85.398438-28.8125 99.996094-69.988281l7.097656-20.011719h-92.09375v-30h120.175781c.546875 4.96875.824219 9.984375.824219 15 0 74.4375-61.011719 135-136 135s-136-60.5625-136-135 61.011719-135 136-135c31.0625 0 61.382812 10.628906 85.238281 29.546875zm-3.0625 129.035156c-14.179687 18.339844-36.816406 30-60.757812 30-41.90625 0-76-33.644531-76-75s34.09375-75 76-75c39.195312 0 58.128906 27.207031 62.007812 30h-77.007812v90zm0 0"/></svg>