<svg viewBox="0 0 512 512" xmlns="http://www.w3.org/2000/svg"><path d="m256 0c-141.160156 0-256 114.394531-256 255 0 140.875 114.957031 257 256 257 140.992188 0 256-116.066406 256-257 0-140.605469-114.839844-255-256-255zm-106 362v-160.296875l90.929688-92.527344 121.070312 115.722657v137.101562zm212-305.664062v127.0625l-154.914062-148.074219c15.757812-3.476563 32.121093-5.324219 48.914062-5.324219 38.285156 0 74.367188 9.539062 106 26.335938zm-187.902344-11.039063 45.140625 43.144531-187.898437 191.214844c-.875-8.101562-1.339844-16.324219-1.339844-24.65625 0-95.320312 59.851562-176.976562 144.097656-209.703125zm-135.933594 270.214844 81.835938-83.277344v203.941406c-39.148438-29.722656-68.398438-71.925781-81.835938-120.664062zm217.835938 166.488281c-38.285156 0-74.367188-9.625-106-26.570312v-63.441407h286.074219c-41.308594 54.644531-106.652344 90.011719-180.074219 90.011719zm199.269531-120h-63.269531v-286.578125c54.628906 41.105469 90 106.304687 90 179.578125 0 38.667969-9.683594 75.101562-26.730469 107zm0 0"/></svg>