<svg viewBox="0 -136 512 512" xmlns="http://www.w3.org/2000/svg"><path d="m121 240c66.167969 0 120-53.832031 120-120s-53.832031-120-120-120c-66.71875 0-121 53.832031-121 120s54.28125 120 121 120zm0-210c49.625 0 90 40.375 90 90s-40.375 90-90 90c-50.179688 0-91-40.375-91-90s40.820312-90 91-90zm0 0"/><path d="m391 240c66.71875 0 121-53.832031 121-120s-54.28125-120-121-120c-66.167969 0-120 53.832031-120 120s53.832031 120 120 120zm0-210c50.179688 0 91 40.375 91 90s-40.820312 90-91 90c-49.625 0-90-40.375-90-90s40.375-90 90-90zm0 0"/></svg>