<svg viewBox="0 0 512 512" xmlns="http://www.w3.org/2000/svg"><path d="m0 347c0 90.980469 74.019531 165 165 165h182c90.980469 0 165-74.019531 165-165v-167h-75c-8.269531 0-15-6.730469-15-15 0-90.980469-74.019531-165-165-165h-92c-90.980469 0-165 74.019531-165 165zm30-182c0-74.4375 60.5625-135 135-135h92c74.4375 0 135 60.5625 135 135 0 24.8125 20.1875 45 45 45h45v137c0 74.4375-60.5625 135-135 135h-182c-74.4375 0-135-60.5625-135-135zm0 0"/><path d="m150 210h122c33.085938 0 60-26.914062 60-60s-26.914062-60-60-60h-122c-33.085938 0-60 26.914062-60 60s26.914062 60 60 60zm0-90h122c16.542969 0 30 13.457031 30 30s-13.457031 30-30 30h-122c-16.542969 0-30-13.457031-30-30s13.457031-30 30-30zm0 0"/><path d="m150 422h212c33.085938 0 60-26.914062 60-60s-26.914062-60-60-60h-212c-33.085938 0-60 26.914062-60 60s26.914062 60 60 60zm0-90h212c16.542969 0 30 13.457031 30 30s-13.457031 30-30 30h-212c-16.542969 0-30-13.457031-30-30s13.457031-30 30-30zm0 0"/></svg>