<svg viewBox="0 -53 512 512" xmlns="http://www.w3.org/2000/svg"><path d="m407 285c0 8.269531-6.730469 15-15 15s-15-6.730469-15-15v-86.6875l-61.148438 20.378906-43.851562-21.917968v88.226562c0 66.167969 53.832031 120 120 120s120-53.832031 120-120v-67.5h-105zm30 0v-37.5h45v37.5c0 49.625-40.375 90-90 90s-90-40.375-90-90v-39.691406l11.550781 5.773437 33.449219-11.148437v45.066406c0 24.8125 20.1875 45 45 45s45-20.1875 45-45zm0 0"/><path d="m240 285v-165c0-7.992188 7.476562-15 16-15s16 7.007812 16 15v43.226562l46.148438 23.082032 58.851562-19.621094v-46.6875c0-66.191406-54.71875-120-121-120-66.1875 0-121 53.71875-121 120v165c0 8.269531-6.730469 15-15 15s-15-6.730469-15-15v-67.5h-105v67.5c0 66.167969 53.832031 120 120 120s120-53.832031 120-120zm-210 0v-37.5h45v37.5c0 24.8125 20.1875 45 45 45s45-20.1875 45-45v-165c0-49.625 40.820312-90 91-90s91 40.375 91 90v25.066406l-26.550781 8.847656-18.449219-9.226562v-24.6875c0-24.394531-21.066406-45-46-45s-46 20.605469-46 45v165c0 49.625-40.375 90-90 90s-90-40.375-90-90zm0 0"/></svg>