<svg xmlns="http://www.w3.org/2000/svg" viewBox="0 0 32 32"><path d="M18 19.6c-.4.4-1 .6-2 .6s-1.6-.2-2-.6c-.2-.2-.4-.2-.6 0-.2.2-.2.4 0 .6.6.6 1.4.8 2.6.8 1.2 0 2.1-.3 2.6-.8.2-.2.2-.4 0-.6-.1-.2-.4-.2-.6 0zM14.7 17c0-.6-.5-1.1-1.1-1.1-.6 0-1.1.5-1.1 1.1 0 .6.5 1.1 1.1 1.1.6 0 1.1-.5 1.1-1.1zM18.4 15.9c-.6 0-1.1.5-1.1 1.1s.5 1.1 1.1 1.1 1.1-.5 1.1-1.1-.5-1.1-1.1-1.1z"/><path d="M16 0C7.2 0 0 7.2 0 16s7.2 16 16 16 16-7.2 16-16S24.8 0 16 0zm7.1 17.5v.4c0 1.3-.8 2.6-2.2 3.5-1.3.9-3.1 1.4-5 1.4s-3.7-.5-5-1.4c-1.4-.9-2.2-2.1-2.2-3.5v-.5c-.4-.3-.7-.9-.7-1.5 0-1.1.9-1.9 1.9-1.9.4 0 .9.2 1.2.4 1.3-.8 2.9-1.2 4.6-1.3l1-3.3c.1-.2.3-.3.5-.3l2.7.6c.3-.5.8-.9 1.4-.9.9 0 1.6.7 1.6 1.6 0 .9-.7 1.6-1.6 1.6-.8 0-1.5-.7-1.6-1.5l-2.3-.5-.8 2.6c1.6.1 3.1.5 4.3 1.3.3-.3.8-.4 1.2-.4 1.1 0 1.9.9 1.9 1.9 0 .7-.4 1.3-.9 1.7z"/></svg>