<svg xmlns="http://www.w3.org/2000/svg" viewBox="0 0 32 32"><path d="M16 0C7.2 0 0 7.2 0 16s7.2 16 16 16 16-7.2 16-16S24.8 0 16 0zm5.2 11.1c1.4 0 2.5 1.1 2.5 2.5s-1.1 2.5-2.5 2.5-2.5-1.1-2.5-2.5c0-1.3 1.1-2.5 2.5-2.5zm-5.7 1c1.3 0 2.3 1 2.3 2.3 0 1.3-1 2.3-2.3 2.3-1.3 0-2.3-1-2.3-2.3 0-1.3 1-2.3 2.3-2.3zm-5.2.9c1.1 0 2.1.9 2.1 2.1 0 1.1-.9 2.1-2.1 2.1-1.1 0-2.1-.9-2.1-2.1 0-1.2.9-2.1 2.1-2.1zm2.2 7.7c0 .1-.1.2-.2.2H8.2c-.1 0-.2-.1-.2-.2v-.8c0-1.2 1-2.3 2.3-2.3 1.3 0 2.3 1.1 2.3 2.3v.8zm5.5 0c0 .1-.1.2-.2.2h-4.6c-.1 0-.2-.1-.2-.2v-.9c0-1.3 1.1-2.6 2.5-2.6s2.5 1.3 2.5 2.6v.9zm6-.1c0 .1-.1.3-.3.3h-5.1c-.1 0-.3-.1-.3-.3v-1c0-1.5 1.2-2.9 2.8-2.9 1.6 0 2.8 1.4 2.8 2.9v1z"/></svg>