<svg xmlns="http://www.w3.org/2000/svg" x="0" y="0" version="1.1" xml:space="preserve" viewBox="0 0 32 32"><path d="M20.2 14.2c-.3 0-.6.1-.8.2-.3.1-.5.3-.8.5-.2.2-.5.4-.7.6l-.6.6.6.6c.2.2.5.4.7.6.2.2.5.3.8.4.3.1.6.2.9.2.5 0 1-.2 1.2-.5.3-.3.4-.8.4-1.3s-.2-.9-.5-1.3c-.2-.5-.7-.6-1.2-.6zM13.4 14.8c-.2-.2-.5-.3-.8-.5-.3-.1-.5-.2-.8-.2-.5 0-1 .2-1.3.5-.3.4-.5.8-.5 1.3s.1.9.4 1.3c.3.3.7.5 1.2.5.3 0 .6-.1.9-.2.3-.1.5-.2.8-.4.2-.2.5-.4.7-.6l.6-.6-.6-.6c-.1-.1-.3-.3-.6-.5z"/><path d="M0 0v32h32V0H0zm23.7 17.5c-.2.5-.4.9-.7 1.3-.3.4-.7.7-1.2.9-.5.2-1 .3-1.6.3-.5 0-.9-.1-1.3-.2s-.8-.3-1.1-.5c-.3-.2-.7-.5-1-.8l-.9-.9-.9.9c-.3.3-.6.6-1 .8-.3.2-.7.4-1.1.5-.4.1-.8.2-1.3.2-.6 0-1.1-.1-1.6-.3-.5-.2-.9-.5-1.2-.9-.3-.4-.6-.8-.7-1.3 0-.5-.1-1-.1-1.6 0-.6.1-1.1.3-1.6.2-.5.4-.9.7-1.3.3-.4.7-.6 1.2-.8.5-.2 1-.3 1.6-.3.5 0 .9.1 1.3.2s.8.3 1.1.6c.3.2.7.5 1 .8.3.3.6.6.9 1 .3-.3.6-.7.9-1 .3-.3.6-.6 1-.8.3-.2.7-.4 1.1-.6.4-.1.8-.2 1.3-.2.6 0 1.1.1 1.6.3.5.2.9.5 1.2.8.3.4.6.8.7 1.3.2.5.3 1 .3 1.6-.2.6-.3 1.1-.5 1.6z"/></svg>