<svg viewBox="0 0 512 512" xmlns="http://www.w3.org/2000/svg"><path d="m256 512c140.960938 0 256-115.050781 256-256 0-140.960938-115.050781-256-256-256-140.960938 0-256 115.050781-256 256 0 140.960938 115.050781 256 256 256zm0-482c124.617188 0 226 101.382812 226 226s-101.382812 226-226 226-226-101.382812-226-226 101.382812-226 226-226zm0 0"/><path d="m166 211c24.8125 0 45-20.1875 45-45s-20.1875-45-45-45-45 20.1875-45 45 20.1875 45 45 45zm0-60c8.269531 0 15 6.730469 15 15s-6.730469 15-15 15-15-6.730469-15-15 6.730469-15 15-15zm0 0"/><path d="m346 211c24.8125 0 45-20.1875 45-45s-20.1875-45-45-45-45 20.1875-45 45 20.1875 45 45 45zm0-60c8.269531 0 15 6.730469 15 15s-6.730469 15-15 15-15-6.730469-15-15 6.730469-15 15-15zm0 0"/><path d="m256 452c107.652344 0 196-88.367188 196-196v-15h-392v15c0 107.652344 88.367188 196 196 196zm0-30c-64.558594 0-120.621094-37.058594-148.0625-91.011719h296.125c-27.441406 53.953125-83.503906 91.011719-148.0625 91.011719zm165.328125-151c-.925781 10.296875-2.804687 20.324219-5.53125 30h-319.59375c-2.726563-9.675781-4.605469-19.703125-5.53125-30zm0 0"/></svg>