<svg viewBox="0 0 512 512" xmlns="http://www.w3.org/2000/svg"><path d="m482 90c0-24.03125-9.574219-46.667969-26.957031-63.734375-17.25-16.9375-39.992188-26.265625-64.042969-26.265625-49.625 0-90 40.375-90 90s40.375 90 90 90c24.050781 0 46.792969-9.328125 64.042969-26.265625 17.382812-17.066406 26.957031-39.703125 26.957031-63.734375zm-91 60c-33.085938 0-60-26.914062-60-60s26.914062-60 60-60c33.636719 0 61 26.914062 61 60s-27.363281 60-61 60zm0 0"/><path d="m270 90c0-33.085938-26.914062-60-60-60s-60 26.914062-60 60 26.914062 60 60 60 60-26.914062 60-60zm-60 30c-16.542969 0-30-13.457031-30-30s13.457031-30 30-30 30 13.457031 30 30-13.457031 30-30 30zm0 0"/><path d="m0 225v136h120v60h150v91h242v-212c0-66.167969-54.28125-120-121-120-37.144531 0-70.425781 16.6875-92.636719 42.894531-8.011719-41.472656-44.585937-72.894531-88.363281-72.894531-29.0625 0-54.949219 13.851562-71.414062 35.296875-13.269532-21.175781-36.804688-35.296875-63.585938-35.296875-41.355469 0-75 33.644531-75 75zm391-15c50.179688 0 91 40.375 91 90v182h-182c0-10.871094 0-172.492188 0-182 0-49.625 40.820312-90 91-90zm-181-30c33.085938 0 60 26.914062 60 60v151h-120c0-14.695312 0-133.867188 0-151 0-33.085938 26.914062-60 60-60zm-180 45c0-24.8125 20.1875-45 45-45s45 20.1875 45 45v106h-90zm0 0"/><path d="m120 105c0-24.8125-20.1875-45-45-45s-45 20.1875-45 45 20.1875 45 45 45 45-20.1875 45-45zm-45 15c-8.269531 0-15-6.730469-15-15s6.730469-15 15-15 15 6.730469 15 15-6.730469 15-15 15zm0 0"/></svg>