<svg viewBox="0 0 512 512" xmlns="http://www.w3.org/2000/svg"><path d="m256 0c-140.960938 0-256 115.050781-256 256 0 140.960938 115.050781 256 256 256 140.960938 0 256-115.050781 256-256 0-140.960938-115.050781-256-256-256zm0 482c-124.617188 0-226-101.382812-226-226s101.382812-226 226-226 226 101.382812 226 226-101.382812 226-226 226zm0 0"/><path d="m301 144.925781v66.074219h-90v-65.945312l-145.347656 110.945312 145.347656 110.945312v-65.945312h90v65.667969l144.527344-110.644531zm-120 126.074219v35.304688l-65.902344-50.304688 65.902344-50.304688v35.304688h150v-35.175781l65.238281 50.152343-65.238281 49.941407v-34.917969zm0 0"/></svg>