<svg xmlns="http://www.w3.org/2000/svg" id="Layer_1" x="0" y="0" enable-background="new 0 0 256 256" version="1.1" viewBox="0 0 256 256" xml:space="preserve"><style>.st0{fill:#DBFDFF;}
	.st1{fill:#FFFFFF;}
	.st2{fill:#48386A;}
	.st3{fill:#FF8584;}
	.st4{fill:#FEBE7F;}
	.st5{fill:#9FEAFF;}</style><path d="M243.4 83.2c0-20.6-11.5-38.5-28.4-47.7-9.6-15-26.5-25-45.7-25-12.7 0-24.4 4.4-33.6 11.7-4.4-1.2-9-1.8-13.8-1.8-8.4 0-16.4 1.9-23.5 5.4C89 18 77 13.4 63.8 13.4c-30 0-54.3 24.3-54.3 54.3 0 13.2 4.7 25.3 12.6 34.7-3.8 7.5-6 15.9-6 24.9 0 11.5 3.6 22.1 9.6 30.9-2.8 6.6-4.4 13.8-4.4 21.4 0 30 24.3 54.3 54.3 54.3 7.4 0 14.5-1.5 20.9-4.2 9.6 8.5 22.2 13.7 36.1 13.7 24 0 44.4-15.6 51.6-37.3 2.3.3 4.5.4 6.9.4 30 0 54.3-24.3 54.3-54.3 0-13.6-5-26-13.3-35.5 7-9.4 11.3-21 11.3-33.5z" class="st0"/><path d="M18.6 230.7H6.3V31.3c0-3.3 2.7-6 6-6h.4c3.3 0 6 2.7 6 6v199.4z" class="st1"/><path d="M18.6 231.7H6.3c-.6 0-1-.4-1-1V31.3c0-3.9 3.1-7 7-7h.4c3.9 0 7 3.1 7 7v199.3c-.1.6-.5 1.1-1.1 1.1zm-11.3-2h10.4V31.3c0-2.8-2.2-5-5-5h-.4c-2.8 0-5 2.2-5 5v198.4z" class="st2"/><path d="M249.8 78.8v151.9h-12.4V31.3c0-3.3 2.7-6 6-6h.4c3.3 0 6 2.7 6 6v47.5z" class="st1"/><path d="M249.8 231.7h-12.4c-.6 0-1-.4-1-1V31.3c0-3.9 3.1-7 7-7h.4c3.9 0 7 3.1 7 7V64c0 .6-.4 1-1 1s-1-.4-1-1V31.3c0-2.8-2.2-5-5-5h-.4c-2.8 0-5 2.2-5 5v198.3h10.4V78.8c0-.6.4-1 1-1s1 .4 1 1v151.9c0 .5-.5 1-1 1z" class="st2"/><path d="M249.8 75.8c-.6 0-1-.4-1-1V70c0-.6.4-1 1-1s1 .4 1 1v4.8c0 .5-.5 1-1 1z" class="st2"/><path d="M134.2 162.3v68.3h-12.4V31.5c0-3.4 2.8-6.2 6.2-6.2 3.4 0 6.2 2.8 6.2 6.2v130.8z" class="st1"/><path d="M134.2 231.7h-12.4c-.6 0-1-.4-1-1V31.5c0-4 3.2-7.2 7.2-7.2s7.2 3.2 7.2 7.2v122.9c0 .6-.4 1-1 1s-1-.4-1-1V31.5c0-2.9-2.3-5.2-5.2-5.2s-5.2 2.3-5.2 5.2v198.1h10.4v-67.3c0-.6.4-1 1-1s1 .4 1 1v68.3c0 .6-.5 1.1-1 1.1z" class="st2"/><path d="M18.6 121.3H121.80000000000001V133.7H18.6z" class="st1"/><path d="M121.8 134.7H18.6c-.6 0-1-.4-1-1v-12.4c0-.6.4-1 1-1h103.2c.6 0 1 .4 1 1v12.4c0 .5-.4 1-1 1zm-102.2-2h101.2v-10.4H19.6v10.4z" class="st2"/><path d="M134.2 202.5H237.39999999999998V214.9H134.2z" class="st1"/><path d="M237.4 215.9H134.2c-.6 0-1-.4-1-1v-12.4c0-.6.4-1 1-1h103.2c.6 0 1 .4 1 1v12.4c0 .6-.5 1-1 1zm-102.2-2h101.2v-10.4H135.2v10.4z" class="st2"/><path d="M50.1 52.3 121.8 52.3 121.8 64.7 18.6 64.7 18.6 52.3 41 52.3z" class="st1"/><path d="M121.8 65.7H18.6c-.6 0-1-.4-1-1V52.3c0-.6.4-1 1-1H41c.6 0 1 .4 1 1s-.4 1-1 1H19.6v10.4h101.2V53.3H50.1c-.6 0-1-.4-1-1s.4-1 1-1h71.7c.6 0 1 .4 1 1v12.4c0 .5-.4 1-1 1z" class="st2"/><path d="M134.2 52.3H237.39999999999998V64.7H134.2z" class="st1"/><path d="M237.4 65.7H134.2c-.6 0-1-.4-1-1V52.3c0-.6.4-1 1-1h103.2c.6 0 1 .4 1 1v12.4c0 .5-.5 1-1 1zm-102.2-2h101.2V53.3H135.2v10.4z" class="st2"/><path d="M93.2 93 93.2 121.3 39 121.3 39 77.3 93.2 77.3 93.2 87.8z" class="st1"/><path d="M93.2 122.3H39c-.6 0-1-.4-1-1v-44c0-.6.4-1 1-1h54.2c.6 0 1 .4 1 1v10.5c0 .6-.4 1-1 1s-1-.4-1-1v-9.5H40v42h52.2V93c0-.6.4-1 1-1s1 .4 1 1v28.3c0 .5-.5 1-1 1z" class="st2"/><path d="M75.5 89.7H56.7c-.3 0-.5-.2-.5-.5V77.3c0-.3.2-.5.5-.5h18.8c.3 0 .5.2.5.5v11.9c0 .3-.2.5-.5.5zm-18.3-1H75V77.8H57.2v10.9zM85.3 121.8H46.9c-.3 0-.5-.2-.5-.5v-11.9c0-.3.2-.5.5-.5h38.5c.3 0 .5.2.5.5v11.9c-.1.3-.3.5-.6.5zm-37.9-1h37.5v-10.9H47.4v10.9z" class="st2"/><path d="M147.6 25.5H180.6V52.3H147.6z" class="st1"/><path d="M180.6 53.3h-33c-.6 0-1-.4-1-1V25.5c0-.6.4-1 1-1h33c.6 0 1 .4 1 1v26.8c0 .6-.4 1-1 1zm-32-2h31V26.5h-31v24.8z" class="st2"/><path d="M169.8 33.2h-11.5c-.3 0-.5-.2-.5-.5v-7.3c0-.3.2-.5.5-.5h11.5c.3 0 .5.2.5.5v7.3c0 .3-.2.5-.5.5zm-10.9-1h10.5V26h-10.5v6.2zM175.8 52.8h-23.4c-.3 0-.5-.2-.5-.5V45c0-.3.2-.5.5-.5h23.4c.3 0 .5.2.5.5v7.3c0 .3-.2.5-.5.5zm-22.9-1h22.4v-6.3h-22.4v6.3z" class="st2"/><path d="M190.9 35.3 190.9 25.5 223.9 25.5 223.9 52.3 190.9 52.3 190.9 41z" class="st1"/><path d="M223.9 53.3h-33c-.6 0-1-.4-1-1V41c0-.6.4-1 1-1s1 .4 1 1v10.3h31V26.5h-31v8.8c0 .6-.4 1-1 1s-1-.4-1-1v-9.8c0-.6.4-1 1-1h33c.6 0 1 .4 1 1v26.8c0 .6-.4 1-1 1z" class="st2"/><path d="M213.2 33.2h-11.5c-.3 0-.5-.2-.5-.5v-7.3c0-.3.2-.5.5-.5h11.5c.3 0 .5.2.5.5v7.3c0 .3-.3.5-.5.5zm-11-1h10.5V26h-10.5v6.2zM219.2 52.8h-23.4c-.3 0-.5-.2-.5-.5V45c0-.3.2-.5.5-.5h23.4c.3 0 .5.2.5.5v7.3c0 .3-.3.5-.5.5zm-23-1h22.4v-6.3h-22.4v6.3z" class="st2"/><path d="M27.4 147.1H63.699999999999996V202.5H27.4z" class="st1"/><path d="M63.7 203.5H27.4c-.6 0-1-.4-1-1v-55.4c0-.6.4-1 1-1h36.3c.6 0 1 .4 1 1v55.4c0 .6-.4 1-1 1zm-35.3-2h34.3v-53.4H28.4v53.4z" class="st2"/><path d="M50.1 203H41c-.3 0-.5-.2-.5-.5v-55.4c0-.3.2-.5.5-.5h9.1c.3 0 .5.2.5.5v55.4c0 .3-.2.5-.5.5zm-8.6-1h8.1v-54.4h-8.1V202z" class="st2"/><path d="M63.7 170.8H113.7V202.5H63.7z" class="st1"/><path d="M113.7 203.5h-50c-.6 0-1-.4-1-1v-31.7c0-.6.4-1 1-1h50c.6 0 1 .4 1 1v31.7c0 .6-.4 1-1 1zm-49-2h48v-29.7h-48v29.7z" class="st2"/><path d="M113.7 203H97.6c-.3 0-.5-.2-.5-.5v-10.2c0-.3.2-.5.5-.5h16.1c.3 0 .5.2.5.5v10.2c0 .3-.2.5-.5.5zm-15.6-1h15.1v-9.2H98.1v9.2z" class="st2"/><path d="M146.2 182.9H225V202.5H146.2z" class="st1"/><path d="M225 203.5h-78.8c-.6 0-1-.4-1-1v-19.6c0-.6.4-1 1-1H225c.6 0 1 .4 1 1v19.6c0 .6-.5 1-1 1zm-77.8-2H224v-17.6h-76.8v17.6z" class="st2"/><path d="M150.2 188.9H229V196.6H150.2z" class="st3"/><path d="M162 144.3H209.1V182.9H162z" class="st1"/><path d="M209.2 183.9H162c-.6 0-1-.4-1-1v-38.6c0-.6.4-1 1-1h47.1c.6 0 1 .4 1 1v38.6c.1.6-.4 1-.9 1zm-46.2-2h45.1v-36.6H163v36.6z" class="st2"/><path d="M209.2 176.6h-18.9c-.3 0-.5-.2-.5-.5s.2-.5.5-.5h18.4v-7.3h-46.1v7.3h20.7c.3 0 .5.2.5.5s-.2.5-.5.5H162c-.3 0-.5-.2-.5-.5v-8.3c0-.3.2-.5.5-.5h47.1c.3 0 .5.2.5.5v8.3c.1.3-.2.5-.4.5zM193.7 159.1h-16.2c-.3 0-.5-.2-.5-.5v-14.3c0-.3.2-.5.5-.5h16.2c.3 0 .5.2.5.5v14.3c0 .3-.2.5-.5.5zm-15.7-1h15.2v-13.3H178v13.3z" class="st2"/><path d="M204.1 121.3h-36.7c-2.8 0-5-2.2-5-5V79.6c0-2.8 2.2-5 5-5h36.7c2.8 0 5 2.2 5 5v36.7c0 2.8-2.2 5-5 5z" class="st1"/><path d="M204.1 122.3h-36.7c-3.3 0-6-2.7-6-6V79.6c0-3.3 2.7-6 6-6h36.7c3.3 0 6 2.7 6 6v36.7c0 3.3-2.7 6-6 6zm-36.7-46.7c-2.2 0-4 1.8-4 4v36.7c0 2.2 1.8 4 4 4h36.7c2.2 0 4-1.8 4-4V79.6c0-2.2-1.8-4-4-4h-36.7z" class="st2"/><path d="M22.1 230.7H9.8V31.3c0-3.3 2.7-6 6-6h.4c3.3 0 6 2.7 6 6v199.4zM253.3 78.8v151.9h-12.4V31.3c0-3.3 2.7-6 6-6h.4c3.3 0 6 2.7 6 6v47.5zM137.7 162.3v68.3h-12.4V31.5c0-3.4 2.8-6.2 6.2-6.2 3.4 0 6.2 2.8 6.2 6.2v130.8z" class="st4"/><path d="M60.2 77.3H79V89.2H60.2z" class="st5"/><path d="M50.4 109.4H88.9V121.30000000000001H50.4z" class="st3"/><path d="M161.9 25.5H173.4V32.8H161.9z" class="st5"/><path d="M156.9 45H180.3V52.3H156.9z" class="st3"/><path d="M205.2 25.5H216.7V32.8H205.2z" class="st5"/><path d="M200.2 45H223.6V52.3H200.2z" class="st3"/><path d="M44.5 147.1H53.6V202.5H44.5z" class="st3"/><path d="M101.1 192.3H117.19999999999999V202.5H101.1z" class="st5"/><path d="M181 144.3H197.2V158.60000000000002H181z" class="st5"/><path d="M207.6 121.3h-36.7c-2.8 0-5-2.2-5-5V79.6c0-2.8 2.2-5 5-5h36.7c2.8 0 5 2.2 5 5v36.7c0 2.8-2.2 5-5 5z" class="st3"/><path d="M167.6 114.1V81.8c0-1.1.9-2 2-2H202c1.1 0 2 .9 2 2v32.4c0 1.1-.9 2-2 2h-32.4c-1.1-.1-2-1-2-2.1z" class="st1"/><path d="M202 116.6h-32.4c-1.4 0-2.5-1.1-2.5-2.5V81.8c0-1.4 1.1-2.5 2.5-2.5H202c1.4 0 2.5 1.1 2.5 2.5v32.4c0 1.3-1.2 2.4-2.5 2.4zm-32.4-36.3c-.8 0-1.5.7-1.5 1.5v32.4c0 .8.7 1.5 1.5 1.5H202c.8 0 1.5-.7 1.5-1.5V81.8c0-.8-.7-1.5-1.5-1.5h-32.4z" class="st2"/><path d="M185.6 121.8c-.3 0-.5-.2-.5-.5V74.6c0-.3.2-.5.5-.5s.5.2.5.5v46.7c0 .3-.2.5-.5.5zM172.5 98.4h-10.2c-.3 0-.5-.2-.5-.5s.2-.5.5-.5h10.2c.3 0 .5.2.5.5s-.2.5-.5.5z" class="st2"/><path d="M209 98.4h-29.7c-.3 0-.5-.2-.5-.5s.2-.5.5-.5H209c.3 0 .5.2.5.5s-.3.5-.5.5zM12.4 168.3c-.3 0-.5-.2-.5-.5V25.3c0-.3.2-.5.5-.5s.5.2.5.5v142.5c0 .3-.2.5-.5.5zM128 231.2c-.3 0-.5-.2-.5-.5V25.3c0-.3.2-.5.5-.5s.5.2.5.5v205.3c0 .3-.2.6-.5.6zM243.6 231.2c-.3 0-.5-.2-.5-.5V25.3c0-.3.2-.5.5-.5s.5.2.5.5v205.3c0 .3-.3.6-.5.6zM12.4 231.2c-.3 0-.5-.2-.5-.5v-54.5c0-.3.2-.5.5-.5s.5.2.5.5v54.5c0 .2-.2.5-.5.5z" class="st2"/><path d="M18.6 231.7H6.3c-.6 0-1-.4-1-1V31.3c0-3.9 3.1-7 7-7h.4c3.9 0 7 3.1 7 7v199.3c-.1.6-.5 1.1-1.1 1.1zm-11.3-2h10.4V31.3c0-2.8-2.2-5-5-5h-.4c-2.8 0-5 2.2-5 5v198.4zM249.8 231.7h-12.4c-.6 0-1-.4-1-1V31.3c0-3.9 3.1-7 7-7h.4c3.9 0 7 3.1 7 7V64c0 .6-.4 1-1 1s-1-.4-1-1V31.3c0-2.8-2.2-5-5-5h-.4c-2.8 0-5 2.2-5 5v198.3h10.4V78.8c0-.6.4-1 1-1s1 .4 1 1v151.9c0 .5-.5 1-1 1zM134.2 231.7h-12.4c-.6 0-1-.4-1-1V31.5c0-4 3.2-7.2 7.2-7.2s7.2 3.2 7.2 7.2v122.9c0 .6-.4 1-1 1s-1-.4-1-1V31.5c0-2.9-2.3-5.2-5.2-5.2s-5.2 2.3-5.2 5.2v198.1h10.4v-67.3c0-.6.4-1 1-1s1 .4 1 1v68.3c0 .6-.5 1.1-1 1.1zM75.5 89.7H56.7c-.3 0-.5-.2-.5-.5V77.3c0-.3.2-.5.5-.5h18.8c.3 0 .5.2.5.5v11.9c0 .3-.2.5-.5.5zm-18.3-1H75V77.8H57.2v10.9zM85.3 121.8H46.9c-.3 0-.5-.2-.5-.5v-11.9c0-.3.2-.5.5-.5h38.5c.3 0 .5.2.5.5v11.9c-.1.3-.3.5-.6.5zm-37.9-1h37.5v-10.9H47.4v10.9z" class="st2"/><g><path d="M169.8 33.2h-11.5c-.3 0-.5-.2-.5-.5v-7.3c0-.3.2-.5.5-.5h11.5c.3 0 .5.2.5.5v7.3c0 .3-.2.5-.5.5zm-10.9-1h10.5V26h-10.5v6.2z" class="st2"/></g><g><path d="M175.8 52.8h-23.4c-.3 0-.5-.2-.5-.5V45c0-.3.2-.5.5-.5h23.4c.3 0 .5.2.5.5v7.3c0 .3-.2.5-.5.5zm-22.9-1h22.4v-6.3h-22.4v6.3z" class="st2"/></g><g><path d="M213.2 33.2h-11.5c-.3 0-.5-.2-.5-.5v-7.3c0-.3.2-.5.5-.5h11.5c.3 0 .5.2.5.5v7.3c0 .3-.3.5-.5.5zm-11-1h10.5V26h-10.5v6.2z" class="st2"/></g><g><path d="M219.2 52.8h-23.4c-.3 0-.5-.2-.5-.5V45c0-.3.2-.5.5-.5h23.4c.3 0 .5.2.5.5v7.3c0 .3-.3.5-.5.5zm-23-1h22.4v-6.3h-22.4v6.3z" class="st2"/></g><g><path d="M50.1 203H41c-.3 0-.5-.2-.5-.5v-55.4c0-.3.2-.5.5-.5h9.1c.3 0 .5.2.5.5v55.4c0 .3-.2.5-.5.5zm-8.6-1h8.1v-54.4h-8.1V202z" class="st2"/></g><g><path d="M113.7 203H97.6c-.3 0-.5-.2-.5-.5v-10.2c0-.3.2-.5.5-.5h16.1c.3 0 .5.2.5.5v10.2c0 .3-.2.5-.5.5zm-15.6-1h15.1v-9.2H98.1v9.2z" class="st2"/></g><g><path d="M193.7 159.1h-16.2c-.3 0-.5-.2-.5-.5v-14.3c0-.3.2-.5.5-.5h16.2c.3 0 .5.2.5.5v14.3c0 .3-.2.5-.5.5zm-15.7-1h15.2v-13.3H178v13.3z" class="st2"/></g><g><path d="M93.2 122.3H39c-.6 0-1-.4-1-1v-44c0-.6.4-1 1-1h54.2c.6 0 1 .4 1 1v10.5c0 .6-.4 1-1 1s-1-.4-1-1v-9.5H40v42h52.2V93c0-.6.4-1 1-1s1 .4 1 1v28.3c0 .5-.5 1-1 1z" class="st2"/></g><g><path d="M180.6 53.3h-33c-.6 0-1-.4-1-1V25.5c0-.6.4-1 1-1h33c.6 0 1 .4 1 1v26.8c0 .6-.4 1-1 1zm-32-2h31V26.5h-31v24.8z" class="st2"/></g><g><path d="M223.9 53.3h-33c-.6 0-1-.4-1-1V41c0-.6.4-1 1-1s1 .4 1 1v10.3h31V26.5h-31v8.8c0 .6-.4 1-1 1s-1-.4-1-1v-9.8c0-.6.4-1 1-1h33c.6 0 1 .4 1 1v26.8c0 .6-.4 1-1 1z" class="st2"/></g><g><path d="M63.7 203.5H27.4c-.6 0-1-.4-1-1v-55.4c0-.6.4-1 1-1h36.3c.6 0 1 .4 1 1v55.4c0 .6-.4 1-1 1zm-35.3-2h34.3v-53.4H28.4v53.4z" class="st2"/></g><g><path d="M209.2 183.9H162c-.6 0-1-.4-1-1v-38.6c0-.6.4-1 1-1h47.1c.6 0 1 .4 1 1v38.6c.1.6-.4 1-.9 1zm-46.2-2h45.1v-36.6H163v36.6z" class="st2"/></g><g><path d="M204.1 122.3h-36.7c-3.3 0-6-2.7-6-6V79.6c0-3.3 2.7-6 6-6h36.7c3.3 0 6 2.7 6 6v36.7c0 3.3-2.7 6-6 6zm-36.7-46.7c-2.2 0-4 1.8-4 4v36.7c0 2.2 1.8 4 4 4h36.7c2.2 0 4-1.8 4-4V79.6c0-2.2-1.8-4-4-4h-36.7z" class="st2"/></g><g><path d="M113.7 203.5h-50c-.6 0-1-.4-1-1v-31.7c0-.6.4-1 1-1h50c.6 0 1 .4 1 1v31.7c0 .6-.4 1-1 1zm-49-2h48v-29.7h-48v29.7z" class="st2"/></g><g><path d="M18.6 202.5H121.80000000000001V214.9H18.6z" class="st1"/><path d="M121.8 215.9H18.6c-.6 0-1-.4-1-1v-12.4c0-.6.4-1 1-1h103.2c.6 0 1 .4 1 1v12.4c0 .6-.4 1-1 1zm-102.2-2h101.2v-10.4H19.6v10.4z" class="st2"/></g><g><path d="M157.3 133.7 134.2 133.7 134.2 121.3 237.4 121.3 237.4 133.7 165.3 133.7z" class="st1"/><path d="M237.4 134.7h-72.1c-.6 0-1-.4-1-1s.4-1 1-1h71.1v-10.4H135.2v10.4h22.1c.6 0 1 .4 1 1s-.4 1-1 1h-23.1c-.6 0-1-.4-1-1v-12.4c0-.6.4-1 1-1h103.2c.6 0 1 .4 1 1v12.4c0 .5-.5 1-1 1z" class="st2"/></g><g><path d="M225 197.1h-78.8c-.3 0-.5-.2-.5-.5v-7.7c0-.3.2-.5.5-.5H225c.3 0 .5.2.5.5v7.7c0 .3-.2.5-.5.5zm-78.3-1h77.8v-6.7h-77.8v6.7z" class="st2"/></g><g><path d="M225 203.5h-78.8c-.6 0-1-.4-1-1v-19.6c0-.6.4-1 1-1H225c.6 0 1 .4 1 1v19.6c0 .6-.5 1-1 1zm-77.8-2H224v-17.6h-76.8v17.6z" class="st2"/></g><g><path d="M162 14.8c-1.6 0-3-1.3-3-3s1.3-3 3-3 3 1.3 3 3-1.3 3-3 3zm0-4.9c-1.1 0-2 .9-2 2s.9 2 2 2 2-.9 2-2c0-1.2-.9-2-2-2z" class="st2"/></g><g><path d="M156.9 230.9c-1.6 0-3-1.3-3-3s1.3-3 3-3 3 1.3 3 3-1.4 3-3 3zm0-4.9c-1.1 0-2 .9-2 2s.9 2 2 2 2-.9 2-2-.9-2-2-2z" class="st3"/></g><g><path d="M68.8 231.2h-.1l-1-.3c-.3-.1-.4-.4-.3-.6.1-.3.4-.4.6-.3h.1l-.5-1.8v-.3l.5-1.8-1.8.5H66l-1.8-.5.5 1.8v.3l-.5 1.8 1.8-.5c.3-.1.5.1.6.3.1.3-.1.5-.3.6l-2.7.8c-.2.1-.4 0-.5-.1-.1-.1-.2-.3-.1-.5l.8-2.6-.8-2.6c-.1-.2 0-.4.1-.5.1-.1.3-.2.5-.1l2.6.8 2.6-.8c.2-.1.4 0 .5.1s.2.3.1.5l-.8 2.6.8 2.6c.1.2 0 .4-.1.5-.2 0-.4.1-.5.1z" class="st2"/></g><g><path d="M100.3 42.1h-.1l-1-.3c-.3-.1-.4-.4-.3-.6.1-.3.4-.4.6-.3h.1L99 39v-.3l.5-1.8-1.8.5h-.3l-1.8-.5.5 1.8v.3l-.5 1.8 1.8-.5c.3-.1.5.1.6.3.1.3-.1.5-.3.6l-2.7.9c-.2.1-.4 0-.5-.1s-.2-.3-.1-.5l.8-2.6-.8-2.6c-.1-.2 0-.4.1-.5s.3-.2.5-.1l2.6.8 2.6-.8c.2-.1.4 0 .5.1s.2.3.1.5l-.8 2.6.8 2.6c.1.2 0 .4-.1.5-.1 0-.2.1-.4.1z" class="st4"/></g><g><path d="M39 34c-.3 0-.5-.2-.5-.5V31c0-.3.2-.5.5-.5s.5.2.5.5v2.4c0 .3-.2.6-.5.6zM39 39.8c-.3 0-.5-.2-.5-.5v-2.4c0-.3.2-.5.5-.5s.5.2.5.5v2.4c0 .3-.2.5-.5.5zM43.2 35.7h-2.4c-.3 0-.5-.2-.5-.5s.2-.5.5-.5h2.4c.3 0 .5.2.5.5s-.3.5-.5.5zM37.3 35.7h-2.4c-.3 0-.5-.2-.5-.5s.2-.5.5-.5h2.4c.3 0 .5.2.5.5s-.2.5-.5.5z" class="st3"/></g><g><path d="M109.2 224.3c-.3 0-.5-.2-.5-.5v-2.4c0-.3.2-.5.5-.5s.5.2.5.5v2.4c0 .2-.3.5-.5.5zM109.2 230.1c-.3 0-.5-.2-.5-.5v-2.4c0-.3.2-.5.5-.5s.5.2.5.5v2.4c0 .3-.3.5-.5.5zM113.3 226h-2.4c-.3 0-.5-.2-.5-.5s.2-.5.5-.5h2.4c.3 0 .5.2.5.5s-.2.5-.5.5zM107.5 226H105c-.3 0-.5-.2-.5-.5s.2-.5.5-.5h2.4c.3 0 .5.2.5.5s-.2.5-.4.5z" class="st4"/></g><g><path d="M73 19c-.3 0-.5-.2-.5-.5v-2.4c0-.3.2-.5.5-.5s.5.2.5.5v2.4c0 .3-.3.5-.5.5zM73 24.9c-.3 0-.5-.2-.5-.5V22c0-.3.2-.5.5-.5s.5.2.5.5v2.4c0 .3-.3.5-.5.5zM77.1 20.7h-2.4c-.3 0-.5-.2-.5-.5s.2-.5.5-.5h2.4c.3 0 .5.2.5.5s-.2.5-.5.5zM71.2 20.7h-2.4c-.3 0-.5-.2-.5-.5s.2-.5.5-.5h2.4c.3 0 .5.2.5.5s-.2.5-.5.5z" class="st5"/></g></svg>