<?xml version="1.0" encoding="utf-8"?>
<!-- Generator: Adobe Illustrator 22.1.0, SVG Export Plug-In . SVG Version: 6.00 Build 0)  -->
<svg version="1.1" id="Layer_1" xmlns="http://www.w3.org/2000/svg" xmlns:xlink="http://www.w3.org/1999/xlink" x="0px" y="0px"
	 viewBox="0 0 256 256" style="enable-background:new 0 0 256 256;" xml:space="preserve">
<style type="text/css">
	.st0{fill:#DBFDFF;}
	.st1{fill:#FFFFFF;}
	.st2{fill:#48386A;}
	.st3{fill:#9FEAFF;}
	.st4{fill:#FF8584;}
	.st5{fill:#FEBE7F;}
</style>
<g>
	<path class="st0" d="M188.8,15.9c-10,0-19.4,2.7-27.4,7.4c-9.5-8-21.7-12.9-35.1-12.9c-13.1,0-25.1,4.6-34.5,12.4
		c-4.6-1.2-9.4-1.9-14.3-1.9c-30,0-54.3,24.3-54.3,54.3c0,11,3.3,21.2,8.9,29.8c-7.8,9.4-12.5,21.5-12.5,34.7
		c0,16.7,7.5,31.6,19.3,41.5c-0.4,2.8-0.7,5.6-0.7,8.5c0,30,24.3,54.3,54.3,54.3c15.8,0,30-6.8,39.9-17.5
		c9.9,10.8,24.1,17.5,39.9,17.5c30,0,54.3-24.3,54.3-54.3c0-4-0.4-7.8-1.2-11.5c9.9-9.8,16-23.4,16-38.5c0-12.8-4.4-24.5-11.8-33.7
		c8.4-9.5,13.4-22,13.4-35.7C243,40.2,218.7,15.9,188.8,15.9z"/>
	<g>
		<g>
			<path class="st1" d="M38.8,79.9V53l-4.3-2.5l4.7-8.1l10.1,5.9V192c-1.7-0.4-3.5-0.7-5.3-0.7c-1.8,0-3.6,0.2-5.3,0.7V97.2V79.9z"
				/>
			<path class="st2" d="M38.8,193c-0.2,0-0.4-0.1-0.6-0.2c-0.2-0.2-0.4-0.5-0.4-0.8V97.2c0-0.6,0.4-1,1-1s1,0.4,1,1v93.5
				c2.8-0.6,5.7-0.6,8.5,0V48.8l-8.8-5.1l-3.7,6.4l3.4,2c0.3,0.2,0.5,0.5,0.5,0.9v26.9c0,0.6-0.4,1-1,1s-1-0.4-1-1V53.6l-3.8-2.2
				c-0.5-0.3-0.6-0.9-0.4-1.4l4.7-8.1c0.1-0.2,0.4-0.4,0.6-0.5c0.3-0.1,0.5,0,0.8,0.1l10.1,5.9c0.3,0.2,0.5,0.5,0.5,0.9V192
				c0,0.3-0.1,0.6-0.4,0.8c-0.2,0.2-0.6,0.3-0.9,0.2c-3.3-0.9-6.8-0.9-10,0C39,193,38.9,193,38.8,193z"/>
		</g>
		<path class="st3" d="M42.3,79.9V53l-4.3-2.5l4.7-8.1l10.1,5.9V192c-1.7-0.4-3.5-0.7-5.3-0.7c-1.8,0-3.6,0.2-5.3,0.7V97.2V79.9z"/>
		<g>
			<path class="st1" d="M64.7,211.9c0,1.8-0.2,3.6-0.7,5.3c-2.3,8.8-10.3,15.3-19.9,15.3c-11.3,0-20.6-9.2-20.6-20.6
				c0-9.5,6.5-17.5,15.3-19.9c1.7-0.5,3.4-0.7,5.3-0.7c1.8,0,3.6,0.2,5.3,0.7c7.1,1.9,12.7,7.5,14.6,14.6
				C64.4,208.3,64.7,210,64.7,211.9z"/>
			<path class="st2" d="M44.1,233.4c-11.9,0-21.6-9.7-21.6-21.6c0-9.8,6.6-18.3,16-20.8c3.5-1,7.5-1,11.1,0
				c7.5,2,13.3,7.8,15.3,15.3c0.5,1.8,0.7,3.6,0.7,5.5s-0.2,3.7-0.7,5.5C62.5,226.8,53.9,233.4,44.1,233.4z M44.1,192.3
				c-1.7,0-3.4,0.2-5,0.7c-8.6,2.3-14.5,10-14.5,18.9c0,10.8,8.8,19.6,19.6,19.6c8.9,0,16.6-6,18.9-14.5c0.4-1.6,0.7-3.3,0.7-5
				s-0.2-3.4-0.7-5c-1.8-6.8-7.1-12.1-13.9-13.9C47.5,192.5,45.8,192.3,44.1,192.3z"/>
		</g>
		<circle class="st3" cx="48.1" cy="211.9" r="10.6"/>
		<g>
			<path class="st2" d="M44.1,228c-3.6,0-7-1.2-9.9-3.4c-0.2-0.2-0.3-0.5-0.1-0.7c0.2-0.2,0.5-0.3,0.7-0.1c2.7,2.1,5.9,3.2,9.2,3.2
				c6.9,0,12.9-4.6,14.6-11.3c0.3-1.2,0.5-2.5,0.5-3.9c0-1.3-0.2-2.6-0.5-3.9c-1.4-5.2-5.5-9.3-10.7-10.7c-2.5-0.7-5.3-0.7-7.8,0
				C33.6,199,29,205,29,211.9c0,3.4,1.1,6.5,3.1,9.2c0.2,0.2,0.1,0.5-0.1,0.7c-0.2,0.2-0.5,0.1-0.7-0.1c-2.2-2.8-3.3-6.2-3.3-9.8
				c0-7.3,4.9-13.7,12-15.6c2.7-0.7,5.6-0.7,8.3,0c5.6,1.5,10,5.9,11.4,11.4c0.4,1.3,0.5,2.7,0.5,4.1c0,1.4-0.2,2.8-0.5,4.1
				C57.8,223,51.4,228,44.1,228z"/>
		</g>
		<g>
			<path class="st2" d="M44.1,223.4c-6.4,0-11.6-5.2-11.6-11.6s5.2-11.6,11.6-11.6s11.6,5.2,11.6,11.6S50.5,223.4,44.1,223.4z
				 M44.1,202.3c-5.3,0-9.6,4.3-9.6,9.6s4.3,9.6,9.6,9.6s9.6-4.3,9.6-9.6S49.4,202.3,44.1,202.3z"/>
		</g>
		<g>
			<path class="st1" d="M44.1,216.5c-2.6,0-4.6-2.1-4.6-4.6c0-2.6,2.1-4.6,4.6-4.6c2.6,0,4.6,2.1,4.6,4.6
				C48.8,214.4,46.7,216.5,44.1,216.5z"/>
			<path class="st2" d="M44.1,217c-2.8,0-5.1-2.3-5.1-5.1s2.3-5.1,5.1-5.1s5.1,2.3,5.1,5.1S47,217,44.1,217z M44.1,207.7
				c-2.3,0-4.1,1.9-4.1,4.1s1.9,4.1,4.1,4.1s4.1-1.9,4.1-4.1S46.4,207.7,44.1,207.7z"/>
		</g>
		<g>
			<path class="st1" d="M236.2,211.9c0,1.8-0.2,3.6-0.7,5.3c-2.3,8.8-10.3,15.3-19.9,15.3c-9.5,0-17.6-6.5-19.9-15.3
				c-0.5-1.7-0.7-3.5-0.7-5.3c0-1.8,0.2-3.6,0.7-5.3c2.3-8.8,10.3-15.3,19.9-15.3c9.5,0,17.5,6.5,19.9,15.3
				C236,208.3,236.2,210,236.2,211.9z"/>
			<path class="st2" d="M215.6,233.4c-9.8,0-18.4-6.6-20.8-16c-0.5-1.8-0.7-3.6-0.7-5.5s0.2-3.8,0.7-5.5c2.5-9.4,11.1-16,20.8-16
				c9.8,0,18.3,6.6,20.8,16c0.5,1.8,0.7,3.6,0.7,5.5s-0.2,3.8-0.7,5.5C234,226.8,225.4,233.4,215.6,233.4z M215.6,192.3
				c-8.9,0-16.6,6-18.9,14.5c-0.4,1.6-0.7,3.3-0.7,5s0.2,3.4,0.7,5c2.3,8.6,10,14.5,18.9,14.5c8.9,0,16.6-6,18.9-14.5
				c0.4-1.6,0.7-3.3,0.7-5s-0.2-3.4-0.7-5C232.3,198.3,224.5,192.3,215.6,192.3z"/>
		</g>
		<path class="st3" d="M223.1,201.9c4.1,1.4,7.1,5.4,7.1,10c0,5.8-4.7,10.6-10.6,10.6s-10.6-4.7-10.6-10.6c0-5.1,3.6-9.3,8.3-10.3
			L223.1,201.9z"/>
		<g>
			<path class="st2" d="M215.6,228c-7.3,0-13.7-4.9-15.6-12c-0.4-1.3-0.5-2.7-0.5-4.1c0-1.4,0.2-2.8,0.5-4.1c1.9-7.1,8.3-12,15.6-12
				c7.3,0,13.7,4.9,15.6,12c0.4,1.3,0.5,2.7,0.5,4.1s-0.2,2.8-0.5,4.1C229.4,223,222.9,228,215.6,228z M215.6,196.7
				c-6.9,0-12.9,4.6-14.6,11.3c-0.3,1.2-0.5,2.5-0.5,3.9c0,1.3,0.2,2.6,0.5,3.9c1.7,6.6,7.8,11.2,14.6,11.2
				c6.9,0,12.9-4.6,14.6-11.3c0.3-1.2,0.5-2.5,0.5-3.9s-0.2-2.6-0.5-3.9C228.5,201.4,222.5,196.7,215.6,196.7z"/>
		</g>
		<g>
			<path class="st2" d="M215.6,223.4c-6.4,0-11.6-5.2-11.6-11.6c0-5.4,3.8-10.2,9.1-11.3c0.5-0.1,1.1,0.2,1.2,0.8
				c0.1,0.5-0.2,1.1-0.8,1.2c-4.4,0.9-7.6,4.9-7.6,9.3c0,5.3,4.3,9.6,9.6,9.6c5.3,0,9.5-4.3,9.5-9.6c0-4.1-2.6-7.7-6.4-9
				c-0.5-0.2-0.8-0.8-0.6-1.3c0.2-0.5,0.8-0.8,1.3-0.6c4.7,1.6,7.8,6,7.8,10.9C227.2,218.2,222,223.4,215.6,223.4z"/>
		</g>
		<g>
			<path class="st1" d="M215.6,216.5c-2.6,0-4.6-2.1-4.6-4.6c0-2.6,2.1-4.6,4.6-4.6c2.6,0,4.6,2.1,4.6,4.6
				C220.3,214.4,218.2,216.5,215.6,216.5z"/>
			<path class="st2" d="M215.6,217c-2.8,0-5.1-2.3-5.1-5.1s2.3-5.1,5.1-5.1s5.1,2.3,5.1,5.1S218.5,217,215.6,217z M215.6,207.7
				c-2.3,0-4.1,1.9-4.1,4.1s1.9,4.1,4.1,4.1s4.1-1.9,4.1-4.1S217.9,207.7,215.6,207.7z"/>
		</g>
		<g>
			<path class="st1" d="M131.3,217.1H64c0.5-1.7,0.7-3.5,0.7-5.3c0-1.8-0.2-3.6-0.7-5.3h131.8c-0.5,1.7-0.7,3.5-0.7,5.3
				c0,1.8,0.2,3.6,0.7,5.3h-57.5H131.3z"/>
			<path class="st2" d="M195.8,218.1h-57.5c-0.6,0-1-0.4-1-1s0.4-1,1-1h56.2c-0.3-1.4-0.4-2.8-0.4-4.3s0.1-2.9,0.4-4.3H65.3
				c0.3,1.4,0.4,2.8,0.4,4.3s-0.1,2.9-0.4,4.3h66c0.6,0,1,0.4,1,1s-0.4,1-1,1H64c-0.3,0-0.6-0.1-0.8-0.4c-0.2-0.2-0.3-0.6-0.2-0.9
				c0.4-1.6,0.7-3.3,0.7-5s-0.2-3.4-0.7-5c-0.1-0.3,0-0.6,0.2-0.9c0.2-0.2,0.5-0.4,0.8-0.4h131.8c0.3,0,0.6,0.1,0.8,0.4
				s0.3,0.6,0.2,0.9c-0.4,1.6-0.7,3.3-0.7,5s0.2,3.4,0.7,5c0.1,0.3,0,0.6-0.2,0.9S196.1,218.1,195.8,218.1z"/>
		</g>
		<g>
			<path class="st2" d="M38.8,93.5c-0.6,0-1-0.4-1-1v-4.9c0-0.6,0.4-1,1-1s1,0.4,1,1v4.9C39.8,93.1,39.4,93.5,38.8,93.5z"/>
		</g>
		<g>
			<path class="st1" d="M41.6,38.3l-9.4,16.2L8.9,41.1c-3-1.7-4.7-4.9-4.7-8.1c0-1.6,0.4-3.2,1.3-4.7s2.1-2.6,3.4-3.4
				c0.7-0.4,1.5-0.7,2.3-0.9c2.3-0.6,4.9-0.4,7.1,0.9L41.6,38.3z"/>
			<path class="st2" d="M32.2,55.6c-0.2,0-0.3,0-0.5-0.1L8.4,42c-3.2-1.8-5.2-5.3-5.2-9c0-1.8,0.5-3.6,1.4-5.2s2.2-2.9,3.8-3.8
				c0.8-0.4,1.6-0.8,2.5-1c2.7-0.7,5.5-0.3,7.9,1l23.3,13.5c0.5,0.3,0.6,0.9,0.4,1.4l-9.4,16.2C32.9,55.4,32.6,55.6,32.2,55.6z
				 M13.6,24.6c-0.7,0-1.5,0.1-2.2,0.3c-0.7,0.2-1.4,0.5-2,0.8c-1.3,0.7-2.3,1.8-3.1,3.1c-0.7,1.3-1.1,2.7-1.1,4.2
				c0,3,1.6,5.8,4.2,7.3l22.5,13l8.4-14.5l-22.5-13C16.5,25,15,24.6,13.6,24.6z"/>
		</g>
		<g>
			<path class="st1" d="M251.8,211.9c0,1.5-0.6,2.8-1.5,3.7c-1,1-2.3,1.5-3.7,1.5h-11c0.5-1.7,0.7-3.5,0.7-5.3
				c0-1.8-0.2-3.6-0.7-5.3h11C249.5,206.6,251.8,208.9,251.8,211.9z"/>
			<path class="st2" d="M246.5,218.1h-11c-0.3,0-0.6-0.1-0.8-0.4s-0.3-0.6-0.2-0.9c0.4-1.6,0.7-3.3,0.7-5s-0.2-3.4-0.7-5
				c-0.1-0.3,0-0.6,0.2-0.9s0.5-0.4,0.8-0.4h11c3.5,0,6.3,2.8,6.3,6.3c0,1.7-0.6,3.2-1.8,4.4C249.8,217.5,248.2,218.1,246.5,218.1z
				 M236.8,216.1h9.8c1.1,0,2.2-0.4,3-1.3c0.8-0.8,1.2-1.9,1.2-3c0-2.4-1.9-4.3-4.3-4.3h-9.8c0.3,1.4,0.4,2.8,0.4,4.3
				S237,214.7,236.8,216.1z"/>
		</g>
		<path class="st3" d="M131.3,220.6H64c0.5-1.7,0.7-3.5,0.7-5.3c0-1.8-0.2-3.6-0.7-5.3h131.8c-0.5,1.7-0.7,3.5-0.7,5.3
			c0,1.8,0.2,3.6,0.7,5.3h-57.5H131.3z"/>
		<path class="st4" d="M251.8,215.4c0,1.5-0.6,2.8-1.5,3.7c-1,1-2.3,1.5-3.7,1.5h-11c0.5-1.7,0.7-3.5,0.7-5.3c0-1.8-0.2-3.6-0.7-5.3
			h11C249.5,210.1,251.8,212.4,251.8,215.4z"/>
		<g>
			<path class="st1" d="M150.5,105.5v101.1H64c-0.5-1.9-1.3-3.7-2.3-5.3c-1.6-2.7-3.8-4.9-6.4-6.6c-1.8-1.2-3.8-2.1-5.9-2.6v-86.5
				H150.5z"/>
			<path class="st2" d="M150.5,207.6H64c-0.5,0-0.8-0.3-1-0.7c-0.5-1.8-1.2-3.5-2.1-5.1c-1.5-2.5-3.6-4.7-6.1-6.3
				c-1.7-1.1-3.6-2-5.6-2.5c-0.4-0.1-0.7-0.5-0.7-1v-86.5c0-0.6,0.4-1,1-1h101.1c0.6,0,1,0.4,1,1v101.1
				C151.5,207.1,151.1,207.6,150.5,207.6z M64.7,205.6h84.8v-99.1H50.4v84.8c1.9,0.6,3.8,1.4,5.5,2.6c2.7,1.8,5.1,4.2,6.7,7
				C63.5,202.2,64.2,203.9,64.7,205.6z"/>
		</g>
		<g>
			<path class="st2" d="M61.7,202.3c-0.4,0-0.7-0.2-0.9-0.5c-1.5-2.5-3.6-4.7-6.1-6.3c-0.3-0.2-0.5-0.5-0.5-0.8v-83.2
				c0-0.6,0.4-1,1-1h89.3c0.6,0,1,0.4,1,1V134c0,0.6-0.4,1-1,1s-1-0.4-1-1v-21.6H56.3v81.7c2.4,1.6,4.4,3.8,6,6.2l81.3-0.6v-59.2
				c0-0.6,0.4-1,1-1s1,0.4,1,1v60.2c0,0.5-0.4,1-1,1L61.7,202.3C61.7,202.3,61.7,202.3,61.7,202.3z"/>
		</g>
		<g>
			<path class="st1" d="M243.7,168.9v37.7h-8.2c-0.6-2.1-1.5-4.1-2.6-5.9c-3.7-5.6-10-9.4-17.2-9.4c-7.2,0-13.6,3.7-17.2,9.4
				c-1.2,1.8-2.1,3.8-2.6,5.9h-45.3v-93.1h93.2v43.7V168.9z"/>
			<path class="st2" d="M243.7,207.6h-8.2c-0.5,0-0.9-0.3-1-0.7c-0.5-2-1.4-3.9-2.5-5.6c-3.6-5.6-9.7-8.9-16.4-8.9
				c-6.6,0-12.8,3.3-16.4,8.9c-1.1,1.7-2,3.6-2.5,5.6c-0.1,0.4-0.5,0.7-1,0.7h-45.3c-0.6,0-1-0.4-1-1v-93.1c0-0.6,0.4-1,1-1h93.2
				c0.6,0,1,0.4,1,1v43.7c0,0.6-0.4,1-1,1s-1-0.4-1-1v-42.7h-91.2v91.1H195c0.6-2,1.4-3.8,2.5-5.5c4-6.1,10.8-9.8,18.1-9.8
				c7.3,0,14.1,3.7,18.1,9.8c1.1,1.7,2,3.5,2.6,5.5h6.4v-36.7c0-0.6,0.4-1,1-1s1,0.4,1,1v37.7C244.7,207.1,244.2,207.6,243.7,207.6z
				"/>
		</g>
		<g>
			<path class="st2" d="M237.7,201.7h-4.9c-0.3,0-0.7-0.2-0.8-0.5c-1.9-2.8-4.4-5.2-7.4-6.7c-2.8-1.5-5.8-2.2-9-2.2
				c-3.2,0-6.2,0.7-9,2.2c-3,1.6-5.6,3.9-7.4,6.7c-0.2,0.3-0.5,0.5-0.8,0.5h-42c-0.6,0-1-0.4-1-1v-81.3c0-0.6,0.4-1,1-1h81.3
				c0.6,0,1,0.4,1,1v81.3C238.7,201.2,238.3,201.7,237.7,201.7z M233.4,199.7h3.3v-79.3h-79.3v79.3h40.4c2-2.9,4.7-5.3,7.9-6.9
				c3.1-1.6,6.4-2.4,9.9-2.4c3.5,0,6.8,0.8,9.9,2.4C228.7,194.3,231.4,196.7,233.4,199.7z"/>
		</g>
		<g>
			<polygon class="st1" points="197.1,30.1 197.1,113.4 150.5,113.4 150.5,105.5 103.9,105.5 103.9,30.1 			"/>
			<path class="st2" d="M197.1,114.4h-46.6c-0.6,0-1-0.4-1-1v-7h-45.6c-0.6,0-1-0.4-1-1V30.1c0-0.6,0.4-1,1-1h93.1c0.6,0,1,0.4,1,1
				v83.3C198.1,114,197.6,114.4,197.1,114.4z M151.5,112.4h44.6V31.1h-91.1v73.3h45.6c0.6,0,1,0.4,1,1V112.4z"/>
		</g>
		<rect x="90.8" y="112.4" class="st4" width="28.3" height="24.3"/>
		<rect x="141.4" y="36.1" class="st4" width="28.3" height="18.7"/>
		<rect x="187.9" y="120.4" class="st4" width="28.3" height="16.3"/>
		<rect x="76.3" y="176.8" class="st5" width="57.4" height="16.8"/>
		<path class="st5" d="M202.1,176.8h28.7v16.8h-0.7c-2.8-1.5-6-2.3-9.4-2.3c-3.4,0-6.6,0.8-9.5,2.3h-37.8v-16.8h22.8H202.1z"/>
		<polygon class="st5" points="166.5,93.9 177.4,93.9 177.4,113.4 155.5,113.4 155.5,105.5 133.7,105.5 133.7,93.9 162.2,93.9 		"/>
		<g>
			<path class="st2" d="M191.2,114.4h-40.7c-0.6,0-1-0.4-1-1v-7h-39.7c-0.6,0-1-0.4-1-1V59.4c0-0.6,0.4-1,1-1s1,0.4,1,1v45.1h39.7
				c0.6,0,1,0.4,1,1v7h38.7V37.1h-79.3v16.1c0,0.6-0.4,1-1,1s-1-0.4-1-1V36.1c0-0.6,0.4-1,1-1h81.3c0.6,0,1,0.4,1,1v77.4
				C192.2,114,191.7,114.4,191.2,114.4z"/>
		</g>
		<g>
			<path class="st2" d="M114.1,136.6H85.8c-0.6,0-1-0.4-1-1v-24.3c0-0.6,0.4-1,1-1h28.3c0.6,0,1,0.4,1,1v24.3
				C115.1,136.2,114.6,136.6,114.1,136.6z M86.8,134.6h26.3v-22.3H86.8V134.6z"/>
		</g>
		<g>
			<path class="st2" d="M107.4,136.1h-15c-0.3,0-0.5-0.2-0.5-0.5v-24.3c0-0.3,0.2-0.5,0.5-0.5h15c0.3,0,0.5,0.2,0.5,0.5v24.3
				C107.9,135.9,107.7,136.1,107.4,136.1z M93,135.1h14v-23.3H93V135.1z"/>
		</g>
		<g>
			<path class="st2" d="M164.6,55.8h-28.3c-0.6,0-1-0.4-1-1V36.1c0-0.6,0.4-1,1-1h28.3c0.6,0,1,0.4,1,1v18.7
				C165.6,55.4,165.2,55.8,164.6,55.8z M137.4,53.8h26.3V37.1h-26.3V53.8z"/>
		</g>
		<g>
			<path class="st2" d="M157.9,55.3h-14.8c-0.3,0-0.5-0.2-0.5-0.5V36.1c0-0.3,0.2-0.5,0.5-0.5h14.8c0.3,0,0.5,0.2,0.5,0.5v18.7
				C158.4,55.1,158.2,55.3,157.9,55.3z M143.6,54.3h13.8V36.6h-13.8V54.3z"/>
		</g>
		<g>
			<path class="st2" d="M211.2,136.6h-28.3c-0.6,0-1-0.4-1-1v-16.3c0-0.6,0.4-1,1-1h28.3c0.6,0,1,0.4,1,1v16.3
				C212.2,136.2,211.8,136.6,211.2,136.6z M183.9,134.6h26.3v-14.3h-26.3V134.6z"/>
		</g>
		<g>
			<path class="st2" d="M205.4,136.1h-16.7c-0.3,0-0.5-0.2-0.5-0.5v-16.3c0-0.3,0.2-0.5,0.5-0.5h16.7c0.3,0,0.5,0.2,0.5,0.5v16.3
				C205.9,135.9,205.7,136.1,205.4,136.1z M189.2,135.1h15.7v-15.3h-15.7V135.1z"/>
		</g>
		<g>
			<path class="st2" d="M128.6,194.6H71.3c-0.6,0-1-0.4-1-1v-16.8c0-0.6,0.4-1,1-1h57.4c0.6,0,1,0.4,1,1v16.8
				C129.6,194.2,129.2,194.6,128.6,194.6z M72.3,192.6h55.4v-14.8H72.3V192.6z"/>
		</g>
		<g>
			<path class="st2" d="M124.7,190.2H75.2c-0.3,0-0.5-0.2-0.5-0.5v-8.9c0-0.3,0.2-0.5,0.5-0.5h32.2c0.3,0,0.5,0.2,0.5,0.5
				s-0.2,0.5-0.5,0.5H75.7v7.9h48.5v-7.9H113c-0.3,0-0.5-0.2-0.5-0.5s0.2-0.5,0.5-0.5h11.7c0.3,0,0.5,0.2,0.5,0.5v8.9
				C125.2,189.9,125,190.2,124.7,190.2z"/>
		</g>
		<g>
			<path class="st2" d="M225.8,194.6h-0.7c-0.2,0-0.3,0-0.5-0.1c-2.8-1.5-5.8-2.2-9-2.2c-3.2,0-6.2,0.7-9,2.2
				c-0.1,0.1-0.3,0.1-0.5,0.1h-37.8c-0.6,0-1-0.4-1-1v-16.8c0-0.6,0.4-1,1-1h22.8c0.6,0,1,0.4,1,1s-0.4,1-1,1h-21.8v14.8h36.5
				c3-1.5,6.3-2.3,9.7-2.3c3.2,0,6.3,0.7,9.1,2v-14.5h-27.7c-0.6,0-1-0.4-1-1s0.4-1,1-1h28.7c0.6,0,1,0.4,1,1v16.8
				C226.8,194.2,226.3,194.6,225.8,194.6z"/>
		</g>
		<g>
			<path class="st2" d="M221.8,190.2h-49.5c-0.3,0-0.5-0.2-0.5-0.5v-8.9c0-0.3,0.2-0.5,0.5-0.5h49.5c0.3,0,0.5,0.2,0.5,0.5v8.9
				C222.3,189.9,222.1,190.2,221.8,190.2z M172.8,189.2h48.5v-7.9h-48.5V189.2z"/>
		</g>
		<g>
			<path class="st3" d="M23.9,33.5l15.4,8.9l-4.7,8.1L4.2,33c0-1.6,0.4-3.2,1.3-4.7s2.1-2.6,3.4-3.4L20,31.2L23.9,33.5z"/>
			<path class="st2" d="M34.6,51c-0.1,0-0.2,0-0.3-0.1L3.9,33.4c-0.2-0.1-0.2-0.3-0.3-0.4c0-1.7,0.5-3.4,1.3-4.9
				c0.9-1.5,2.1-2.8,3.6-3.6c0.2-0.1,0.3-0.1,0.5,0l11.1,6.4c0.2,0.1,0.3,0.4,0.2,0.7c-0.1,0.2-0.4,0.3-0.7,0.2L8.9,25.4
				c-1.2,0.8-2.3,1.8-3,3.1c-0.7,1.3-1.1,2.7-1.2,4.1l29.7,17.1l4.2-7.3L23.6,34c-0.2-0.1-0.3-0.4-0.2-0.7c0.1-0.2,0.4-0.3,0.7-0.2
				L39.5,42c0.2,0.1,0.3,0.4,0.2,0.7L35,50.8C34.9,50.9,34.7,51,34.6,51z"/>
		</g>
		<g>
			<path class="st2" d="M172.4,114.4h-21.8c-0.6,0-1-0.4-1-1v-7h-20.8c-0.6,0-1-0.4-1-1V93.9c0-0.6,0.4-1,1-1h28.5c0.6,0,1,0.4,1,1
				s-0.4,1-1,1h-27.5v9.6h20.8c0.6,0,1,0.4,1,1v7h19.8V94.9h-9.9c-0.6,0-1-0.4-1-1s0.4-1,1-1h10.9c0.6,0,1,0.4,1,1v19.6
				C173.4,114,172.9,114.4,172.4,114.4z"/>
		</g>
		<g>
			<path class="st2" d="M168.2,113.9h-17.7c-0.3,0-0.5-0.2-0.5-0.5V106h-17.2c-0.3,0-0.5-0.2-0.5-0.5V98c0-0.3,0.2-0.5,0.5-0.5h35.4
				c0.3,0,0.5,0.2,0.5,0.5v15.4C168.7,113.7,168.5,113.9,168.2,113.9z M151,112.9h16.7V98.5h-34.4v6.5h17.2c0.3,0,0.5,0.2,0.5,0.5
				V112.9z"/>
		</g>
		<g>
			<path class="st2" d="M32.2,55.6c-0.2,0-0.3,0-0.5-0.1L8.4,42c-3.2-1.8-5.2-5.3-5.2-9c0-1.8,0.5-3.6,1.4-5.2s2.2-2.9,3.8-3.8
				c0.8-0.4,1.6-0.8,2.5-1c2.7-0.7,5.5-0.3,7.9,1l23.3,13.5c0.5,0.3,0.6,0.9,0.4,1.4l-9.4,16.2C32.9,55.4,32.6,55.6,32.2,55.6z
				 M13.6,24.6c-0.7,0-1.5,0.1-2.2,0.3c-0.7,0.2-1.4,0.5-2,0.8c-1.3,0.7-2.3,1.8-3.1,3.1c-0.7,1.3-1.1,2.7-1.1,4.2
				c0,3,1.6,5.8,4.2,7.3l22.5,13l8.4-14.5l-22.5-13C16.5,25,15,24.6,13.6,24.6z"/>
		</g>
		<g>
			<path class="st2" d="M38.8,193c-0.2,0-0.4-0.1-0.6-0.2c-0.2-0.2-0.4-0.5-0.4-0.8V97.2c0-0.6,0.4-1,1-1s1,0.4,1,1v93.5
				c2.8-0.6,5.7-0.6,8.5,0V48.8l-8.8-5.1l-3.7,6.4l3.4,2c0.3,0.2,0.5,0.5,0.5,0.9v26.9c0,0.6-0.4,1-1,1s-1-0.4-1-1V53.6l-3.8-2.2
				c-0.5-0.3-0.6-0.9-0.4-1.4l4.7-8.1c0.1-0.2,0.4-0.4,0.6-0.5c0.3-0.1,0.5,0,0.8,0.1l10.1,5.9c0.3,0.2,0.5,0.5,0.5,0.9V192
				c0,0.3-0.1,0.6-0.4,0.8c-0.2,0.2-0.6,0.3-0.9,0.2c-3.3-0.9-6.8-0.9-10,0C39,193,38.9,193,38.8,193z"/>
		</g>
		<g>
			<path class="st2" d="M38.8,93.5c-0.6,0-1-0.4-1-1v-4.9c0-0.6,0.4-1,1-1s1,0.4,1,1v4.9C39.8,93.1,39.4,93.5,38.8,93.5z"/>
		</g>
		<g>
			<path class="st2" d="M195.8,218.1h-57.5c-0.6,0-1-0.4-1-1s0.4-1,1-1h56.2c-0.3-1.4-0.4-2.8-0.4-4.3s0.1-2.9,0.4-4.3H65.3
				c0.3,1.4,0.4,2.8,0.4,4.3s-0.1,2.9-0.4,4.3h66c0.6,0,1,0.4,1,1s-0.4,1-1,1H64c-0.3,0-0.6-0.1-0.8-0.4c-0.2-0.2-0.3-0.6-0.2-0.9
				c0.4-1.6,0.7-3.3,0.7-5s-0.2-3.4-0.7-5c-0.1-0.3,0-0.6,0.2-0.9c0.2-0.2,0.5-0.4,0.8-0.4h131.8c0.3,0,0.6,0.1,0.8,0.4
				s0.3,0.6,0.2,0.9c-0.4,1.6-0.7,3.3-0.7,5s0.2,3.4,0.7,5c0.1,0.3,0,0.6-0.2,0.9S196.1,218.1,195.8,218.1z"/>
		</g>
		<g>
			<path class="st2" d="M246.5,218.1h-11c-0.3,0-0.6-0.1-0.8-0.4s-0.3-0.6-0.2-0.9c0.4-1.6,0.7-3.3,0.7-5s-0.2-3.4-0.7-5
				c-0.1-0.3,0-0.6,0.2-0.9s0.5-0.4,0.8-0.4h11c3.5,0,6.3,2.8,6.3,6.3c0,1.7-0.6,3.2-1.8,4.4C249.8,217.5,248.2,218.1,246.5,218.1z
				 M236.8,216.1h9.8c1.1,0,2.2-0.4,3-1.3c0.8-0.8,1.2-1.9,1.2-3c0-2.4-1.9-4.3-4.3-4.3h-9.8c0.3,1.4,0.4,2.8,0.4,4.3
				S237,214.7,236.8,216.1z"/>
		</g>
		<g>
			<path class="st2" d="M243.7,165.2c-0.6,0-1-0.4-1-1v-2.4c0-0.6,0.4-1,1-1s1,0.4,1,1v2.4C244.7,164.8,244.2,165.2,243.7,165.2z"/>
		</g>
	</g>
	<g>
		<path class="st2" d="M94.6,236.7c-1.6,0-3-1.3-3-3s1.3-3,3-3s3,1.3,3,3S96.2,236.7,94.6,236.7z M94.6,231.7c-1.1,0-2,0.9-2,2
			s0.9,2,2,2s2-0.9,2-2S95.6,231.7,94.6,231.7z"/>
	</g>
	<g>
		<path class="st4" d="M28.5,142.1c-1.6,0-3-1.3-3-3s1.3-3,3-3s3,1.3,3,3S30.1,142.1,28.5,142.1z M28.5,137.1c-1.1,0-2,0.9-2,2
			s0.9,2,2,2s2-0.9,2-2S29.6,137.1,28.5,137.1z"/>
	</g>
	<g>
		<path class="st2" d="M86.4,93.3c-0.1,0-0.3-0.1-0.4-0.1c-0.1-0.1-0.2-0.3-0.1-0.5l0.8-2.6l-0.8-2.6c-0.1-0.2,0-0.4,0.1-0.5
			c0.1-0.1,0.3-0.2,0.5-0.1l2.6,0.8l2.6-0.8c0.2-0.1,0.4,0,0.5,0.1s0.2,0.3,0.1,0.5l-0.8,2.6l0.8,2.6c0.1,0.2,0,0.4-0.1,0.5
			s-0.3,0.2-0.5,0.1l-1-0.3c-0.3-0.1-0.4-0.4-0.3-0.6c0.1-0.3,0.4-0.4,0.6-0.3l0.1,0l-0.5-1.8c0-0.1,0-0.2,0-0.3l0.5-1.8l-1.8,0.5
			c-0.1,0-0.2,0-0.3,0l-1.8-0.5l0.5,1.8c0,0.1,0,0.2,0,0.3l-0.5,1.8l1.8-0.5c0.3-0.1,0.5,0.1,0.6,0.3c0.1,0.3-0.1,0.5-0.3,0.6
			l-2.7,0.8C86.5,93.3,86.5,93.3,86.4,93.3z"/>
	</g>
	<g>
		<path class="st5" d="M167.4,235.6c0,0-0.1,0-0.1,0l-1-0.3c-0.3-0.1-0.4-0.4-0.3-0.6c0.1-0.3,0.4-0.4,0.6-0.3l0.1,0l-0.5-1.8
			c0-0.1,0-0.2,0-0.3l0.5-1.8l-1.8,0.5c-0.1,0-0.2,0-0.3,0l-1.8-0.5l0.5,1.8c0,0.1,0,0.2,0,0.3l-0.5,1.8l1.8-0.5
			c0.3-0.1,0.5,0.1,0.6,0.3c0.1,0.3-0.1,0.5-0.3,0.6l-2.7,0.8c-0.2,0.1-0.4,0-0.5-0.1c-0.1-0.1-0.2-0.3-0.1-0.5l0.8-2.6l-0.8-2.6
			c-0.1-0.2,0-0.4,0.1-0.5c0.1-0.1,0.3-0.2,0.5-0.1l2.6,0.8l2.6-0.8c0.2-0.1,0.4,0,0.5,0.1c0.1,0.1,0.2,0.3,0.1,0.5l-0.8,2.6
			l0.8,2.6c0.1,0.2,0,0.4-0.1,0.5C167.6,235.6,167.5,235.6,167.4,235.6z"/>
	</g>
	<g>
		<g>
			<path class="st4" d="M213.2,96.8c-0.3,0-0.5-0.2-0.5-0.5v-2.4c0-0.3,0.2-0.5,0.5-0.5s0.5,0.2,0.5,0.5v2.4
				C213.7,96.6,213.5,96.8,213.2,96.8z"/>
		</g>
		<g>
			<path class="st4" d="M213.2,102.7c-0.3,0-0.5-0.2-0.5-0.5v-2.4c0-0.3,0.2-0.5,0.5-0.5s0.5,0.2,0.5,0.5v2.4
				C213.7,102.4,213.5,102.7,213.2,102.7z"/>
		</g>
		<g>
			<path class="st4" d="M217.4,98.5h-2.4c-0.3,0-0.5-0.2-0.5-0.5s0.2-0.5,0.5-0.5h2.4c0.3,0,0.5,0.2,0.5,0.5S217.7,98.5,217.4,98.5z
				"/>
		</g>
		<g>
			<path class="st4" d="M211.5,98.5h-2.4c-0.3,0-0.5-0.2-0.5-0.5s0.2-0.5,0.5-0.5h2.4c0.3,0,0.5,0.2,0.5,0.5S211.8,98.5,211.5,98.5z
				"/>
		</g>
	</g>
	<g>
		<g>
			<path class="st5" d="M80.4,37.9c-0.3,0-0.5-0.2-0.5-0.5v-2.4c0-0.3,0.2-0.5,0.5-0.5s0.5,0.2,0.5,0.5v2.4
				C80.9,37.6,80.7,37.9,80.4,37.9z"/>
		</g>
		<g>
			<path class="st5" d="M80.4,43.7c-0.3,0-0.5-0.2-0.5-0.5v-2.4c0-0.3,0.2-0.5,0.5-0.5s0.5,0.2,0.5,0.5v2.4
				C80.9,43.5,80.7,43.7,80.4,43.7z"/>
		</g>
		<g>
			<path class="st5" d="M84.6,39.6h-2.4c-0.3,0-0.5-0.2-0.5-0.5s0.2-0.5,0.5-0.5h2.4c0.3,0,0.5,0.2,0.5,0.5S84.8,39.6,84.6,39.6z"/>
		</g>
		<g>
			<path class="st5" d="M78.7,39.6h-2.4c-0.3,0-0.5-0.2-0.5-0.5s0.2-0.5,0.5-0.5h2.4c0.3,0,0.5,0.2,0.5,0.5S79,39.6,78.7,39.6z"/>
		</g>
	</g>
	<g>
		<g>
			<path class="st3" d="M205.4,44.3c-0.3,0-0.5-0.2-0.5-0.5v-2.4c0-0.3,0.2-0.5,0.5-0.5s0.5,0.2,0.5,0.5v2.4
				C205.9,44,205.7,44.3,205.4,44.3z"/>
		</g>
		<g>
			<path class="st3" d="M205.4,50.1c-0.3,0-0.5-0.2-0.5-0.5v-2.4c0-0.3,0.2-0.5,0.5-0.5s0.5,0.2,0.5,0.5v2.4
				C205.9,49.9,205.7,50.1,205.4,50.1z"/>
		</g>
		<g>
			<path class="st3" d="M209.6,46h-2.4c-0.3,0-0.5-0.2-0.5-0.5s0.2-0.5,0.5-0.5h2.4c0.3,0,0.5,0.2,0.5,0.5S209.9,46,209.6,46z"/>
		</g>
		<g>
			<path class="st3" d="M203.7,46h-2.4c-0.3,0-0.5-0.2-0.5-0.5s0.2-0.5,0.5-0.5h2.4c0.3,0,0.5,0.2,0.5,0.5S204,46,203.7,46z"/>
		</g>
	</g>
</g>
</svg>
