<svg xmlns="http://www.w3.org/2000/svg" id="Layer_1" x="0" y="0" enable-background="new 0 0 256 256" version="1.1" viewBox="0 0 256 256" xml:space="preserve"><style>.st0{fill:#DBFDFF;}
	.st1{fill:#FFFFFF;}
	.st2{fill:#48386A;}
	.st3{fill:#FF8584;}
	.st4{fill:#9FEAFF;}
	.st5{fill:#FEBE7F;}</style><path d="M190.9 135.6c-1.1 0-2.3 0-3.4.1 1.2-2.8 2.3-5.6 3-8.6 26.4-3.7 46.7-26.3 46.7-53.7 0-30-24.3-54.3-54.3-54.3h-1.6c-6.1-2.3-12.6-3.6-19.5-3.6-10.8 0-20.9 3.2-29.3 8.6-2.9-.5-6-.8-9.1-.8-21.4 0-39.9 12.4-48.8 30.4-.9 0-1.9-.1-2.9-.1-30 0-54.3 24.3-54.3 54.3 0 15.8 6.7 30 17.5 39.9-15.3 9.6-25.4 26.6-25.4 46 0 30 24.3 54.3 54.3 54.3 14.9 0 28.4-6 38.2-15.7 8.5 5.5 18.5 8.6 29.4 8.6 10 0 19.3-2.7 27.3-7.4 9 6.6 20.1 10.5 32.1 10.5 30 0 54.3-24.3 54.3-54.3s-24.2-54.2-54.2-54.2z" class="st0"/><path d="M150.5 162.9H9.8c-3.2 0-5.8-2.6-5.8-5.8 0-3.2 2.6-5.8 5.8-5.8h236.3c3.2 0 5.8 2.6 5.8 5.8 0 3.2-2.6 5.8-5.8 5.8H150.5z" class="st1"/><path d="M246.2 163.9h-89.4c-.6 0-1-.4-1-1s.4-1 1-1h89.4c2.7 0 4.8-2.2 4.8-4.8s-2.2-4.8-4.8-4.8H9.8c-2.7 0-4.8 2.2-4.8 4.8s2.2 4.8 4.8 4.8h140.6c.6 0 1 .4 1 1s-.4 1-1 1H9.8c-3.8 0-6.8-3.1-6.8-6.8 0-3.8 3.1-6.8 6.8-6.8h236.3c3.8 0 6.8 3.1 6.8 6.8.1 3.8-3 6.8-6.7 6.8z" class="st2"/><path d="M156.8 162.9 244 162.9 244 174.6 12 174.6 12 162.9 148.5 162.9z" class="st0"/><path d="M244 175.6H12c-.6 0-1-.4-1-1v-11.7c0-.6.4-1 1-1h136.5c.6 0 1 .4 1 1s-.4 1-1 1H13v9.7h230v-9.7h-86.3c-.6 0-1-.4-1-1s.4-1 1-1H244c.6 0 1 .4 1 1v11.7c0 .5-.4 1-1 1z" class="st2"/><path d="M168.7 231.4H68.8c-11.4 0-22-3.4-30.9-9.2C22.3 212.1 12 194.6 12 174.6h232c0 20-10.3 37.5-25.9 47.7-8.9 5.8-19.5 9.2-30.9 9.2h-18.5z" class="st1"/><path d="M187.2 232.4h-12.4c-.6 0-1-.4-1-1s.4-1 1-1h12.4c10.8 0 21.4-3.1 30.4-9 15.6-10.2 25.1-27.3 25.4-45.8H13c.3 18.6 9.8 35.7 25.4 45.8 9 5.9 19.5 9 30.4 9h99.8c.6 0 1 .4 1 1s-.4 1-1 1H68.8c-11.2 0-22.1-3.2-31.5-9.3C20.8 212.4 11 194.2 11 174.6c0-.6.4-1 1-1h232c.6 0 1 .4 1 1 0 19.7-9.8 37.8-26.3 48.5-9.4 6.1-20.3 9.3-31.5 9.3zM244 169.3h-27.3c-.3 0-.5-.2-.5-.5s.2-.5.5-.5H244c.3 0 .5.2.5.5s-.2.5-.5.5zM211 169.3H12c-.3 0-.5-.2-.5-.5s.2-.5.5-.5h199c.3 0 .5.2.5.5s-.2.5-.5.5z" class="st2"/><path d="M20.2 112.9 12 112.9 12 151.3 81.2 151.3 81.2 112.9 25.2 112.9z" class="st1"/><path d="M81.2 152.3H12c-.6 0-1-.4-1-1V113c0-.6.4-1 1-1h8.2c.6 0 1 .4 1 1s-.4 1-1 1H13v36.3h67.2V114h-55c-.6 0-1-.4-1-1s.4-1 1-1h56c.6 0 1 .4 1 1v38.3c0 .5-.4 1-1 1z" class="st2"/><path d="M46.6 74.6H115.80000000000001V112.89999999999999H46.6z" class="st1"/><path d="M115.8 113.9H46.6c-.6 0-1-.4-1-1V74.6c0-.6.4-1 1-1h69.2c.6 0 1 .4 1 1v38.3c0 .6-.4 1-1 1zm-68.2-2h67.2V75.6H47.6v36.3z" class="st2"/><path d="M110.9 108.4H51.6c-.3 0-.5-.2-.5-.5V79.6c0-.3.2-.5.5-.5h22.6c.3 0 .5.2.5.5s-.2.5-.5.5H52.1v27.3h58.2V80.1H79.5c-.3 0-.5-.2-.5-.5s.2-.5.5-.5h31.4c.3 0 .5.2.5.5v28.3c0 .3-.3.5-.5.5z" class="st2"/><path d="M150.5 120.9 150.5 112.9 81.2 112.9 81.2 151.3 150.5 151.3 150.5 126.3z" class="st1"/><path d="M150.5 152.3H81.2c-.6 0-1-.4-1-1V113c0-.6.4-1 1-1h69.2c.6 0 1 .4 1 1v8c0 .6-.4 1-1 1s-1-.4-1-1v-7H82.2v36.3h67.2v-24c0-.6.4-1 1-1s1 .4 1 1v25c.1.5-.4 1-.9 1zM76.2 146.8H17c-.3 0-.5-.2-.5-.5V118c0-.3.2-.5.5-.5h59.2c.3 0 .5.2.5.5v28.3c0 .2-.2.5-.5.5zm-58.7-1h58.2v-27.3H17.5v27.3z" class="st2"/><path d="M145.5 146.8H86.2c-.3 0-.5-.2-.5-.5V118c0-.3.2-.5.5-.5h59.2c.3 0 .5.2.5.5v28.3c.1.2-.2.5-.4.5zm-58.8-1H145v-27.3H86.7v27.3z" class="st2"/><path d="M244 123.3 244 151.3 159.8 151.3 159.8 101.3 244 101.3 244 117.9z" class="st1"/><path d="M244 152.3h-84.2c-.6 0-1-.4-1-1v-50c0-.6.4-1 1-1H244c.6 0 1 .4 1 1V118c0 .6-.4 1-1 1s-1-.4-1-1v-15.7h-82.2v48H243v-27c0-.6.4-1 1-1s1 .4 1 1v28c0 .5-.4 1-1 1z" class="st2"/><path d="M174.8 89.7H229V101.3H174.8z" class="st0"/><path d="M229 102.3h-54.2c-.6 0-1-.4-1-1V89.7c0-.6.4-1 1-1H229c.6 0 1 .4 1 1v11.6c0 .5-.4 1-1 1zm-53.2-2H228v-9.6h-52.2v9.6z" class="st2"/><path d="M206.5 24.6 218.7 24.6 218.7 89.6 185.1 89.6 185.1 24.6 200.3 24.6z" class="st1"/><path d="M218.7 90.6h-33.6c-.6 0-1-.4-1-1v-65c0-.6.4-1 1-1h15.2c.6 0 1 .4 1 1s-.4 1-1 1h-14.2v63h31.6v-63h-11.1c-.6 0-1-.4-1-1s.4-1 1-1h12.1c.6 0 1 .4 1 1v65c0 .5-.5 1-1 1z" class="st2"/><path d="M159.8 139.9H244V151.20000000000002H159.8z" class="st0"/><path d="M244 151.8h-84.2c-.3 0-.5-.2-.5-.5V140c0-.3.2-.5.5-.5H244c.3 0 .5.2.5.5v11.3c0 .2-.2.5-.5.5zm-83.7-1h83.2v-10.3h-83.2v10.3zM181.8 133.7c-7.3 0-13.1-5.9-13.1-13.2s5.9-13.1 13.1-13.1 13.2 5.9 13.2 13.1-6 13.2-13.2 13.2zm0-24.3c-6.1 0-11.1 5-11.1 11.1s5 11.2 11.1 11.2 11.2-5 11.2-11.2c-.1-6.1-5.1-11.1-11.2-11.1zM221.8 133.7c-7.3 0-13.1-5.9-13.1-13.2s5.9-13.1 13.1-13.1 13.2 5.9 13.2 13.1-5.9 13.2-13.2 13.2zm0-24.3c-6.1 0-11.1 5-11.1 11.1s5 11.2 11.1 11.2 11.2-5 11.2-11.2c0-6.1-5-11.1-11.2-11.1z" class="st2"/><path d="M153.5 162.9H12.8c-3.2 0-5.8-2.6-5.8-5.8 0-3.2 2.6-5.8 5.8-5.8h236.3c3.2 0 5.8 2.6 5.8 5.8 0 3.2-2.6 5.8-5.8 5.8H153.5z" class="st3"/><circle cx="51.5" cy="193.4" r="4.5" class="st4"/><circle cx="90.7" cy="193.4" r="4.5" class="st4"/><circle cx="130" cy="193.4" r="4.5" class="st4"/><circle cx="169.3" cy="193.4" r="4.5" class="st4"/><circle cx="208.5" cy="193.4" r="4.5" class="st4"/><path d="M81.8 82.6H85.3V104.89999999999999H81.8z" class="st5"/><path d="M105 82.6H108.5V104.89999999999999H105z" class="st5"/><path d="M93.4 82.6H96.9V104.89999999999999H93.4z" class="st5"/><path d="M70.2 82.6H73.7V104.89999999999999H70.2z" class="st5"/><path d="M58.6 82.6H62.1V104.89999999999999H58.6z" class="st5"/><path d="M47.2 120.9H50.7V143.20000000000002H47.2z" class="st5"/><path d="M70.3 120.9H73.8V143.20000000000002H70.3z" class="st5"/><path d="M58.7 120.9H62.2V143.20000000000002H58.7z" class="st5"/><path d="M35.6 120.9H39.1V143.20000000000002H35.6z" class="st5"/><path d="M24 120.9H27.5V143.20000000000002H24z" class="st5"/><path d="M116.4 120.9H119.9V143.20000000000002H116.4z" class="st5"/><path d="M139.6 120.9H143.1V143.20000000000002H139.6z" class="st5"/><path d="M128 120.9H131.5V143.20000000000002H128z" class="st5"/><path d="M104.8 134.4 104.8 120.9 108.3 120.9 108.3 143.3 104.8 143.3 104.8 138z" class="st5"/><path d="M93.2 120.9H96.7V143.20000000000002H93.2z" class="st4"/><path d="M196.9 49.8 188.1 49.8 188.1 35.1 221.7 35.1 221.7 49.8 202.3 49.8z" class="st3"/><path d="M188.1 62.4H221.7V77.1H188.1z" class="st3"/><path d="M184.6 127.7c-3.9 0-7.1-3.2-7.1-7.2s3.2-7.1 7.1-7.1 7.1 3.2 7.1 7.1-3.2 7.2-7.1 7.2zM223.9 127.7c-3.9 0-7.1-3.2-7.1-7.2s3.2-7.1 7.1-7.1 7.1 3.2 7.1 7.1-3.2 7.2-7.1 7.2zM169.2 231.4H68.8c-11.4 0-22-3.4-30.9-9.2h180.2c-8.9 5.8-19.5 9.2-30.9 9.2h-18z" class="st4"/><path d="M252 157.6H49.5c-.3 0-.5-.2-.5-.5s.2-.5.5-.5H252c.3 0 .5.2.5.5s-.2.5-.5.5zM43.5 157.6H4c-.3 0-.5-.2-.5-.5s.2-.5.5-.5h39.5c.3 0 .5.2.5.5s-.2.5-.5.5zM49.2 143.8h-3.5c-.3 0-.5-.2-.5-.5V121c0-.3.2-.5.5-.5h3.5c.3 0 .5.2.5.5v22.3c0 .2-.2.5-.5.5zm-3-1h2.5v-21.3h-2.5v21.3zM72.4 143.8h-3.5c-.3 0-.5-.2-.5-.5V121c0-.3.2-.5.5-.5h3.5c.3 0 .5.2.5.5v22.3c0 .2-.3.5-.5.5zm-3.1-1h2.5v-21.3h-2.5v21.3zM60.8 143.8h-3.5c-.3 0-.5-.2-.5-.5V121c0-.3.2-.5.5-.5h3.5c.3 0 .5.2.5.5v22.3c0 .2-.2.5-.5.5zm-3-1h2.5v-21.3h-2.5v21.3zM37.6 143.8h-3.5c-.3 0-.5-.2-.5-.5V121c0-.3.2-.5.5-.5h3.5c.3 0 .5.2.5.5v22.3c0 .2-.2.5-.5.5zm-3-1h2.5v-21.3h-2.5v21.3zM26 143.8h-3.5c-.3 0-.5-.2-.5-.5V121c0-.3.2-.5.5-.5H26c.3 0 .5.2.5.5v22.3c0 .2-.2.5-.5.5zm-3-1h2.5v-21.3H23v21.3zM118.4 143.8h-3.5c-.3 0-.5-.2-.5-.5V121c0-.3.2-.5.5-.5h3.5c.3 0 .5.2.5.5v22.3c0 .2-.2.5-.5.5zm-3-1h2.5v-21.3h-2.5v21.3zM141.6 143.8h-3.5c-.3 0-.5-.2-.5-.5V121c0-.3.2-.5.5-.5h3.5c.3 0 .5.2.5.5v22.3c0 .2-.2.5-.5.5zm-3-1h2.5v-21.3h-2.5v21.3zM130 143.8h-3.5c-.3 0-.5-.2-.5-.5V121c0-.3.2-.5.5-.5h3.5c.3 0 .5.2.5.5v22.3c0 .2-.2.5-.5.5zm-3-1h2.5v-21.3H127v21.3zM106.8 143.8h-3.5c-.3 0-.5-.2-.5-.5V138c0-.3.2-.5.5-.5s.5.2.5.5v4.8h2.5v-21.3h-2.5v13c0 .3-.2.5-.5.5s-.5-.2-.5-.5V121c0-.3.2-.5.5-.5h3.5c.3 0 .5.2.5.5v22.3c0 .2-.2.5-.5.5z" class="st2"/><path d="M91.7 120.9H95.2V143.20000000000002H91.7z" class="st5"/><path d="M95.3 143.8h-3.5c-.3 0-.5-.2-.5-.5V121c0-.3.2-.5.5-.5h3.5c.3 0 .5.2.5.5v22.3c0 .2-.3.5-.5.5zm-3.1-1h2.5v-21.3h-2.5v21.3zM83.8 105.4h-3.5c-.3 0-.5-.2-.5-.5V82.6c0-.3.2-.5.5-.5h3.5c.3 0 .5.2.5.5v22.3c0 .3-.2.5-.5.5zm-3-1h2.5V83.1h-2.5v21.3zM107 105.4h-3.5c-.3 0-.5-.2-.5-.5V82.6c0-.3.2-.5.5-.5h3.5c.3 0 .5.2.5.5v22.3c0 .3-.2.5-.5.5zm-3-1h2.5V83.1H104v21.3zM95.4 105.4h-3.5c-.3 0-.5-.2-.5-.5V82.6c0-.3.2-.5.5-.5h3.5c.3 0 .5.2.5.5v22.3c0 .3-.2.5-.5.5zm-3-1h2.5V83.1h-2.5v21.3zM72.2 105.4h-3.5c-.3 0-.5-.2-.5-.5V82.6c0-.3.2-.5.5-.5h3.5c.3 0 .5.2.5.5v22.3c0 .3-.2.5-.5.5zm-3-1h2.5V83.1h-2.5v21.3zM60.7 105.4h-3.5c-.3 0-.5-.2-.5-.5V82.6c0-.3.2-.5.5-.5h3.5c.3 0 .5.2.5.5v22.3c0 .3-.3.5-.5.5zm-3.1-1h2.5V83.1h-2.5v21.3zM246.2 163.9h-89.4c-.6 0-1-.4-1-1s.4-1 1-1h89.4c2.7 0 4.8-2.2 4.8-4.8s-2.2-4.8-4.8-4.8H9.8c-2.7 0-4.8 2.2-4.8 4.8s2.2 4.8 4.8 4.8h140.6c.6 0 1 .4 1 1s-.4 1-1 1H9.8c-3.8 0-6.8-3.1-6.8-6.8 0-3.8 3.1-6.8 6.8-6.8h236.3c3.8 0 6.8 3.1 6.8 6.8.1 3.8-3 6.8-6.7 6.8zM49.5 201.9c-4.7 0-8.5-3.8-8.5-8.5 0-2.6 1.2-5.1 3.3-6.7.4-.3 1.1-.3 1.4.2s.3 1.1-.2 1.4c-1.6 1.2-2.5 3.1-2.5 5.1 0 3.6 2.9 6.5 6.5 6.5s6.5-2.9 6.5-6.5-2.9-6.5-6.5-6.5c-.6 0-1-.4-1-1s.4-1 1-1c4.7 0 8.5 3.8 8.5 8.5s-3.8 8.5-8.5 8.5z" class="st2"/><path d="M49.5 198.4c-2.8 0-5-2.2-5-5s2.2-5 5-5 5 2.2 5 5-2.3 5-5 5zm0-9c-2.2 0-4 1.8-4 4s1.8 4 4 4 4-1.8 4-4-1.8-4-4-4zM88.7 201.9c-4.7 0-8.5-3.8-8.5-8.5s3.8-8.5 8.5-8.5 8.5 3.8 8.5 8.5-3.8 8.5-8.5 8.5zm0-15c-3.6 0-6.5 2.9-6.5 6.5s2.9 6.5 6.5 6.5 6.5-2.9 6.5-6.5-2.9-6.5-6.5-6.5z" class="st2"/><path d="M88.7 198.4c-2.8 0-5-2.2-5-5s2.2-5 5-5 5 2.2 5 5-2.2 5-5 5zm0-9c-2.2 0-4 1.8-4 4s1.8 4 4 4 4-1.8 4-4-1.8-4-4-4zM128 201.9c-4.7 0-8.5-3.8-8.5-8.5s3.8-8.5 8.5-8.5 8.5 3.8 8.5 8.5-3.8 8.5-8.5 8.5zm0-15c-3.6 0-6.5 2.9-6.5 6.5s2.9 6.5 6.5 6.5 6.5-2.9 6.5-6.5-2.9-6.5-6.5-6.5z" class="st2"/><g><path d="M128 198.4c-2.8 0-5-2.2-5-5s2.2-5 5-5 5 2.2 5 5-2.2 5-5 5zm0-9c-2.2 0-4 1.8-4 4s1.8 4 4 4 4-1.8 4-4-1.8-4-4-4z" class="st2"/></g><g><path d="M167.3 201.9c-4.7 0-8.5-3.8-8.5-8.5s3.8-8.5 8.5-8.5 8.5 3.8 8.5 8.5-3.8 8.5-8.5 8.5zm0-15c-3.6 0-6.5 2.9-6.5 6.5s2.9 6.5 6.5 6.5 6.5-2.9 6.5-6.5-2.9-6.5-6.5-6.5z" class="st2"/></g><g><path d="M167.3 198.4c-2.8 0-5-2.2-5-5s2.2-5 5-5 5 2.2 5 5-2.3 5-5 5zm0-9c-2.2 0-4 1.8-4 4s1.8 4 4 4 4-1.8 4-4-1.8-4-4-4z" class="st2"/></g><g><path d="M206.5 201.9c-4.7 0-8.5-3.8-8.5-8.5 0-3.2 1.7-6.1 4.6-7.5.5-.3 1.1-.1 1.4.4.3.5.1 1.1-.4 1.4-2.1 1.1-3.5 3.3-3.5 5.8 0 3.6 2.9 6.5 6.5 6.5s6.5-2.9 6.5-6.5-2.9-6.5-6.5-6.5c-.6 0-1-.4-1-1s.4-1 1-1c4.7 0 8.5 3.8 8.5 8.5s-3.9 8.4-8.6 8.4z" class="st2"/></g><g><path d="M206.5 198.4c-2.8 0-5-2.2-5-5s2.2-5 5-5 5 2.2 5 5-2.2 5-5 5zm0-9c-2.2 0-4 1.8-4 4s1.8 4 4 4 4-1.8 4-4-1.8-4-4-4z" class="st2"/></g><g><path d="M182.6 128.2c-4.2 0-7.6-3.4-7.6-7.7 0-4.2 3.4-7.6 7.6-7.6 4.2 0 7.7 3.4 7.7 7.6-.1 4.3-3.5 7.7-7.7 7.7zm0-14.3c-3.7 0-6.6 3-6.6 6.6 0 3.7 3 6.7 6.6 6.7 3.7 0 6.7-3 6.7-6.7-.1-3.6-3-6.6-6.7-6.6z" class="st2"/></g><g><path d="M221.9 128.2c-4.2 0-7.7-3.4-7.7-7.7 0-4.2 3.4-7.6 7.7-7.6 4.2 0 7.6 3.4 7.6 7.6 0 4.3-3.4 7.7-7.6 7.7zm0-14.3c-3.7 0-6.7 3-6.7 6.6 0 3.7 3 6.7 6.7 6.7s6.6-3 6.6-6.7c0-3.6-3-6.6-6.6-6.6z" class="st2"/></g><g><path d="M218.7 50.3h-19.4c-.3 0-.5-.2-.5-.5s.2-.5.5-.5h18.9V35.6h-32.6v13.7h8.3c.3 0 .5.2.5.5s-.2.5-.5.5h-8.8c-.3 0-.5-.2-.5-.5V35.1c0-.3.2-.5.5-.5h33.6c.3 0 .5.2.5.5v14.7c0 .2-.3.5-.5.5z" class="st2"/></g><g><path d="M218.7 77.5h-33.6c-.3 0-.5-.2-.5-.5V62.4c0-.3.2-.5.5-.5h33.6c.3 0 .5.2.5.5V77c0 .3-.3.5-.5.5zm-33.1-1h32.6V62.9h-32.6v13.6z" class="st2"/></g><g><path d="M218.7 90.6h-33.6c-.6 0-1-.4-1-1v-65c0-.6.4-1 1-1h15.2c.6 0 1 .4 1 1s-.4 1-1 1h-14.2v63h31.6v-63h-11.1c-.6 0-1-.4-1-1s.4-1 1-1h12.1c.6 0 1 .4 1 1v65c0 .5-.5 1-1 1z" class="st2"/></g><g><path d="M187.2 231.9h-12.4c-.3 0-.5-.2-.5-.5s.2-.5.5-.5h12.4c10.4 0 20.4-2.8 29.2-8.2H39.6c8.8 5.3 18.8 8.2 29.2 8.2h100.3c.3 0 .5.2.5.5s-.2.5-.5.5H68.8c-11.1 0-21.9-3.2-31.2-9.2-.2-.1-.3-.3-.2-.6.1-.2.3-.4.5-.4h180.2c.2 0 .4.1.5.4.1.2 0 .4-.2.6-9.3 6-20.1 9.2-31.2 9.2z" class="st2"/></g><g><path d="M39.1 240.3c-1.6 0-3-1.3-3-3s1.3-3 3-3 3 1.3 3 3-1.3 3-3 3zm0-5c-1.1 0-2 .9-2 2s.9 2 2 2 2-.9 2-2-.9-2-2-2z" class="st2"/></g><g><path d="M137.2 101.6c-1.6 0-3-1.3-3-3s1.3-3 3-3 3 1.3 3 3-1.3 3-3 3zm0-5c-1.1 0-2 .9-2 2s.9 2 2 2 2-.9 2-2-.9-2-2-2z" class="st3"/></g><g><path d="M96.9 59.8c-.1 0-.3-.1-.4-.1-.1-.1-.2-.3-.1-.5l.8-2.6-.8-2.6c-.1-.2 0-.4.1-.5.1-.1.3-.2.5-.1l2.6.8 2.6-.8c.2-.1.4 0 .5.1s.2.3.1.5l-.8 2.6.8 2.6c.1.2 0 .4-.1.5-.1.1-.3.2-.5.1l-1-.3c-.3-.1-.4-.4-.3-.6.1-.3.4-.4.6-.3h.1l-.5-1.8v-.3l.5-1.8-1.8.5h-.3l-1.8-.5.5 1.8v.3l-.5 1.8 1.8-.5c.3-.1.5.1.6.3.1.3-.1.5-.3.6l-2.8.7c0 .1-.1.1-.1.1z" class="st2"/></g><g><path d="M169.2 67.3h-.1l-1-.3c-.3-.1-.4-.4-.3-.6.1-.3.4-.4.6-.3h.1l-.5-1.8V64l.5-1.8-1.8.5h-.3l-1.8-.5.5 1.8v.3l-.5 1.8 1.8-.5c.3-.1.5.1.6.3.1.3-.1.5-.3.6l-2.7.8c-.2.1-.4 0-.5-.1-.1-.1-.2-.3-.1-.5l.8-2.6-.8-2.6c-.1-.2 0-.4.1-.5s.3-.2.5-.1l2.6.8 2.6-.8c.2-.1.4 0 .5.1s.2.3.1.5l-.8 2.6.8 2.6c.1.2 0 .4-.1.5-.2 0-.4.1-.5.1z" class="st5"/></g><g><path d="M23.8 94.2c-.3 0-.5-.2-.5-.5v-2.4c0-.3.2-.5.5-.5s.5.2.5.5v2.4c0 .3-.3.5-.5.5zM23.8 100.1c-.3 0-.5-.2-.5-.5v-2.4c0-.3.2-.5.5-.5s.5.2.5.5v2.4c0 .3-.3.5-.5.5zM27.9 96h-2.4c-.3 0-.5-.2-.5-.5s.2-.5.5-.5h2.4c.3 0 .5.2.5.5s-.2.5-.5.5zM22 96h-2.4c-.3 0-.5-.2-.5-.5s.2-.5.5-.5H22c.3 0 .5.2.5.5s-.2.5-.5.5z" class="st3"/></g><g><path d="M213 234.4c-.3 0-.5-.2-.5-.5v-2.4c0-.3.2-.5.5-.5s.5.2.5.5v2.4c0 .3-.2.5-.5.5zM213 240.3c-.3 0-.5-.2-.5-.5v-2.4c0-.3.2-.5.5-.5s.5.2.5.5v2.4c0 .2-.2.5-.5.5zM217.2 236.1h-2.4c-.3 0-.5-.2-.5-.5s.2-.5.5-.5h2.4c.3 0 .5.2.5.5s-.2.5-.5.5zM211.3 236.1h-2.4c-.3 0-.5-.2-.5-.5s.2-.5.5-.5h2.4c.3 0 .5.2.5.5s-.2.5-.5.5z" class="st5"/></g><g><path d="M164.8 31.5c-.3 0-.5-.2-.5-.5v-2.4c0-.3.2-.5.5-.5s.5.2.5.5V31c0 .2-.3.5-.5.5zM164.8 37.3c-.3 0-.5-.2-.5-.5v-2.4c0-.3.2-.5.5-.5s.5.2.5.5v2.4c0 .3-.3.5-.5.5zM168.9 33.2h-2.4c-.3 0-.5-.2-.5-.5s.2-.5.5-.5h2.4c.3 0 .5.2.5.5s-.2.5-.5.5zM163.1 33.2h-2.4c-.3 0-.5-.2-.5-.5s.2-.5.5-.5h2.4c.3 0 .5.2.5.5s-.3.5-.5.5z" class="st4"/></g></svg>