<?xml version="1.0" encoding="utf-8"?>
<!-- Generator: Adobe Illustrator 22.1.0, SVG Export Plug-In . SVG Version: 6.00 Build 0)  -->
<svg version="1.1" id="Layer_1" xmlns="http://www.w3.org/2000/svg" xmlns:xlink="http://www.w3.org/1999/xlink" x="0px" y="0px"
	 viewBox="0 0 256 256" style="enable-background:new 0 0 256 256;" xml:space="preserve">
<style type="text/css">
	.st0{fill:#DBFDFF;}
	.st1{fill:#FFFFFF;}
	.st2{fill:#48386A;}
	.st3{fill:#9FEAFF;}
	.st4{fill:#FF8584;}
	.st5{fill:#FEBE7F;}
</style>
<g>
	<path class="st0" d="M218.2,141.4c12.6-9.9,20.6-25.3,20.6-42.6c0-26.5-19-48.5-44.1-53.3c-8-20.1-27.5-34.2-50.4-34.2
		c-15.9,0-30.3,6.9-40.2,17.8c-9.9-11-24.3-17.8-40.2-17.8c-30,0-54.3,24.3-54.3,54.3c0,23.4,14.9,43.4,35.7,51c1.1,5,3,9.6,5.3,14
		c-21.4,7.3-36.8,27.5-36.8,51.4c0,30,24.3,54.3,54.3,54.3c8.2,0,15.9-1.8,22.8-5c8.9,6.3,19.7,10,31.4,10c12.5,0,24-4.2,33.1-11.3
		c9.2,7.1,20.7,11.3,33.1,11.3c30,0,54.3-24.3,54.3-54.3C242.9,167.9,233.1,151.1,218.2,141.4z M148.3,139.2c-2-1.1-4.1-2.1-6.3-2.9
		c0.5-0.7,1-1.4,1.4-2.1C144.9,136,146.6,137.7,148.3,139.2z"/>
	<g>
		<g>
			<polygon class="st1" points="147.2,41.6 186.1,41.6 186.1,181.9 118.2,181.9 118.2,104.3 20.2,104.3 20.2,41.6 135,41.6 			"/>
			<path class="st2" d="M186.1,182.9h-67.9c-0.6,0-1-0.4-1-1v-76.6h-97c-0.6,0-1-0.4-1-1V41.6c0-0.6,0.4-1,1-1H135c0.6,0,1,0.4,1,1
				s-0.4,1-1,1H21.2v60.8h97c0.6,0,1,0.4,1,1v76.6h65.9V42.6h-37.9c-0.6,0-1-0.4-1-1s0.4-1,1-1h38.9c0.6,0,1,0.4,1,1v140.4
				C187.1,182.5,186.7,182.9,186.1,182.9z"/>
		</g>
		<g>
			<path class="st2" d="M143.7,42.6h-4.3c-0.6,0-1-0.4-1-1s0.4-1,1-1h4.3c0.6,0,1,0.4,1,1S144.3,42.6,143.7,42.6z"/>
		</g>
		<g>
			<path class="st2" d="M181.1,177.4h-62.9c-0.3,0-0.5-0.2-0.5-0.5v-72.1l-92.5,0c-0.3,0-0.5-0.2-0.5-0.5V46.6
				c0-0.3,0.2-0.5,0.5-0.5h39.7c0.3,0,0.5,0.2,0.5,0.5s-0.2,0.5-0.5,0.5H25.7v56.8l92.5,0c0.3,0,0.5,0.2,0.5,0.5v72.1h61.9V47.1
				H75.7c-0.3,0-0.5-0.2-0.5-0.5s0.2-0.5,0.5-0.5h105.4c0.3,0,0.5,0.2,0.5,0.5v130.4C181.6,177.2,181.4,177.4,181.1,177.4z"/>
		</g>
		<g>
			<path class="st2" d="M73.2,47.1H69c-0.3,0-0.5-0.2-0.5-0.5s0.2-0.5,0.5-0.5h4.3c0.3,0,0.5,0.2,0.5,0.5S73.5,47.1,73.2,47.1z"/>
		</g>
		<g>
			<path class="st1" d="M186.1,171.2h13.7c-2.2,3.1-3.7,6.7-4.2,10.7h-9.5V171.2z"/>
			<path class="st2" d="M195.7,182.9h-9.5c-0.6,0-1-0.4-1-1v-10.7c0-0.6,0.4-1,1-1h13.7c0.4,0,0.7,0.2,0.9,0.5
				c0.2,0.3,0.1,0.7-0.1,1c-2.2,3-3.6,6.6-4,10.3C196.6,182.6,196.2,182.9,195.7,182.9z M187.1,180.9h7.7c0.5-3.1,1.5-6,3.2-8.7
				h-10.8V180.9z"/>
		</g>
		<g>
			<path class="st1" d="M250.8,171.2v10.7h-9.5c-0.5-4-1.9-7.6-4.2-10.7H250.8z"/>
			<path class="st2" d="M250.8,182.9h-9.5c-0.5,0-0.9-0.4-1-0.9c-0.4-3.7-1.8-7.2-4-10.3c-0.2-0.3-0.2-0.7-0.1-1
				c0.2-0.3,0.5-0.5,0.9-0.5h13.7c0.6,0,1,0.4,1,1v10.7C251.8,182.5,251.4,182.9,250.8,182.9z M242.2,180.9h7.7v-8.7H239
				C240.6,174.9,241.7,177.9,242.2,180.9z"/>
		</g>
		<g>
			<path class="st1" d="M250.4,147.4c0.3,2,0.4,4.1,0.4,6.2v17.6h-13.7c-4.2-5.8-11-9.6-18.7-9.6c-7.7,0-14.5,3.8-18.7,9.6h-13.7
				V124h54v0c4.3,5.1,7.3,11,9.1,17.4L250.4,147.4z"/>
			<path class="st2" d="M250.8,172.2h-13.7c-0.3,0-0.6-0.2-0.8-0.4c-4.1-5.7-10.8-9.2-17.8-9.2c-7.1,0-13.7,3.4-17.9,9.2
				c-0.2,0.3-0.5,0.4-0.8,0.4h-13.7c-0.6,0-1-0.4-1-1V124c0-0.6,0.4-1,1-1h54c0.3,0,0.6,0.1,0.8,0.4c4.4,5.2,7.5,11.2,9.3,17.8
				c0.1,0.5-0.2,1.1-0.7,1.2c-0.5,0.1-1.1-0.2-1.2-0.7c-1.7-6.1-4.6-11.7-8.6-16.6h-52.5v45.2h12.2c4.5-6,11.6-9.6,19.2-9.6
				c7.5,0,14.7,3.6,19.2,9.6h12.2v-16.6c0-2-0.1-4.1-0.4-6.1c-0.1-0.5,0.3-1.1,0.9-1.1c0.5-0.1,1.1,0.3,1.1,0.9
				c0.3,2.1,0.4,4.2,0.4,6.3v17.6C251.8,171.8,251.4,172.2,250.8,172.2z"/>
		</g>
		<g>
			<polygon class="st1" points="239.9,124 186.1,124 186.1,82.4 218.1,82.4 			"/>
			<path class="st2" d="M239.9,125h-53.8c-0.6,0-1-0.4-1-1V82.4c0-0.6,0.4-1,1-1h32c0.4,0,0.7,0.2,0.9,0.5l21.9,41.7
				c0.2,0.3,0.2,0.7,0,1C240.6,124.8,240.3,125,239.9,125z M187.1,123h51.2l-20.8-39.7h-30.4V123z"/>
		</g>
		<polygon class="st3" points="181.1,52.3 181.1,171.2 123.2,171.2 123.2,104.3 34.9,104.3 34.9,52.3 		"/>
		<g>
			<path class="st2" d="M175.4,172.2h-57.2c-0.6,0-1-0.4-1-1v-65.9H30.9c-0.6,0-1-0.4-1-1v-52c0-0.6,0.4-1,1-1h144.5
				c0.6,0,1,0.4,1,1v118.9C176.4,171.8,175.9,172.2,175.4,172.2z M119.2,170.2h55.2V53.3H31.9v50h86.3c0.6,0,1,0.4,1,1V170.2z"/>
		</g>
		<g>
			<path class="st1" d="M233.5,202c-4,3.5-9.3,5.6-15,5.6c-12.7,0-23-10.3-23-23c0-0.9,0.1-1.8,0.2-2.7c0.5-4,1.9-7.6,4.2-10.7
				c4.2-5.8,11-9.6,18.7-9.6c7.7,0,14.5,3.8,18.7,9.6c2.2,3.1,3.7,6.7,4.2,10.7c0.1,0.9,0.2,1.8,0.2,2.7c0,5-1.6,9.6-4.3,13.4
				L233.5,202z"/>
			<path class="st2" d="M218.5,208.6c-13.2,0-24-10.8-24-24c0-0.9,0.1-1.9,0.2-2.8c0.5-4,2-7.9,4.3-11.2c4.5-6.3,11.8-10,19.5-10
				c7.7,0,15,3.7,19.5,10c2.4,3.3,3.9,7.2,4.3,11.2c0.1,0.9,0.2,1.8,0.2,2.8c0,5.1-1.6,9.9-4.5,14c-0.3,0.4-0.9,0.6-1.4,0.2
				s-0.6-0.9-0.2-1.4c2.7-3.8,4.1-8.2,4.1-12.8c0-0.9-0.1-1.7-0.2-2.5c-0.4-3.7-1.8-7.2-4-10.3c-4.1-5.7-10.8-9.2-17.8-9.2
				c-7.1,0-13.7,3.4-17.9,9.2c-2.2,3-3.6,6.6-4,10.3c-0.1,0.8-0.2,1.7-0.2,2.6c0,12.1,9.9,22,22,22c5.3,0,10.4-1.9,14.4-5.4
				c0.4-0.4,1-0.3,1.4,0.1c0.4,0.4,0.3,1-0.1,1.4C229.8,206.5,224.2,208.6,218.5,208.6z"/>
		</g>
		<path class="st4" d="M222.5,199.1c-8,0-14.5-6.5-14.5-14.5s6.5-14.5,14.5-14.5c8,0,14.5,6.5,14.5,14.5S230.4,199.1,222.5,199.1z"
			/>
		<g>
			<path class="st2" d="M243.4,167.2c-0.2,0-0.3-0.1-0.4-0.2c-5.6-7.9-14.8-12.6-24.5-12.6c-4.8,0-9.3,1.1-13.6,3.2
				c-0.2,0.1-0.5,0-0.7-0.2s0-0.5,0.2-0.7c4.4-2.2,9.1-3.3,14-3.3c10,0,19.5,4.9,25.3,13c0.2,0.2,0.1,0.5-0.1,0.7
				C243.6,167.2,243.5,167.2,243.4,167.2z"/>
		</g>
		<g>
			<path class="st2" d="M193.6,167.2c-0.1,0-0.2,0-0.3-0.1c-0.2-0.2-0.3-0.5-0.1-0.7c1.9-2.7,4.2-5,6.8-6.9c0.2-0.2,0.5-0.1,0.7,0.1
				c0.2,0.2,0.1,0.5-0.1,0.7c-2.5,1.9-4.8,4.1-6.6,6.7C193.9,167.2,193.7,167.2,193.6,167.2z"/>
		</g>
		<g>
			<path class="st2" d="M218.5,200.1c-8.5,0-15.5-6.9-15.5-15.5s6.9-15.5,15.5-15.5s15.5,6.9,15.5,15.5S227,200.1,218.5,200.1z
				 M218.5,171.1c-7.4,0-13.5,6-13.5,13.5c0,7.4,6,13.5,13.5,13.5s13.5-6,13.5-13.5C231.9,177.2,225.9,171.1,218.5,171.1z"/>
		</g>
		<g>
			<path class="st2" d="M218.5,193.6c-4.9,0-9-4-9-9s4-9,9-9c1.8,0,3.5,0.5,5,1.5c0.2,0.2,0.3,0.5,0.1,0.7c-0.2,0.2-0.5,0.3-0.7,0.1
				c-1.3-0.9-2.9-1.4-4.4-1.4c-4.4,0-8,3.6-8,8c0,4.4,3.6,8,8,8c4.4,0,8-3.6,8-8c0-1.3-0.3-2.6-1-3.8c-0.1-0.2,0-0.5,0.2-0.7
				c0.2-0.1,0.5,0,0.7,0.2c0.7,1.3,1.1,2.8,1.1,4.3C227.4,189.6,223.4,193.6,218.5,193.6z"/>
		</g>
		<g>
			<rect x="5.2" y="104.3" class="st1" width="113" height="103.3"/>
			<path class="st2" d="M118.2,208.6H5.2c-0.6,0-1-0.4-1-1V104.3c0-0.6,0.4-1,1-1h113c0.6,0,1,0.4,1,1v103.3
				C119.2,208.1,118.7,208.6,118.2,208.6z M6.2,206.6h111V105.3H6.2V206.6z"/>
		</g>
		<rect x="30.2" y="181.9" class="st4" width="71" height="25.6"/>
		<g>
			<path class="st2" d="M98.1,208.6H25.2c-0.6,0-1-0.4-1-1v-25.6c0-0.6,0.4-1,1-1h72.9c0.6,0,1,0.4,1,1v25.6
				C99.1,208.1,98.7,208.6,98.1,208.6z M26.2,206.6h70.9v-23.6H26.2V206.6z"/>
		</g>
		<g>
			<polygon class="st1" points="53.5,186.9 93.1,186.9 93.1,207.6 30.2,207.6 30.2,186.9 48.8,186.9 			"/>
			<path class="st2" d="M93.1,208.1H30.2c-0.3,0-0.5-0.2-0.5-0.5v-20.6c0-0.3,0.2-0.5,0.5-0.5h18.6c0.3,0,0.5,0.2,0.5,0.5
				s-0.2,0.5-0.5,0.5H30.7v19.6h61.9v-19.6H53.5c-0.3,0-0.5-0.2-0.5-0.5s0.2-0.5,0.5-0.5h39.6c0.3,0,0.5,0.2,0.5,0.5v20.6
				C93.6,207.9,93.4,208.1,93.1,208.1z"/>
		</g>
		<g>
			<g>
				<path class="st2" d="M42.4,204.2c-0.3,0-0.5-0.2-0.5-0.5v-11.2c0-0.3,0.2-0.5,0.5-0.5s0.5,0.2,0.5,0.5v11.2
					C42.9,204,42.6,204.2,42.4,204.2z"/>
			</g>
			<g>
				<path class="st2" d="M45.6,204.2c-0.3,0-0.5-0.2-0.5-0.5v-5.9c0-0.3,0.2-0.5,0.5-0.5s0.5,0.2,0.5,0.5v5.9
					C46.1,204,45.9,204.2,45.6,204.2z"/>
			</g>
			<g>
				<path class="st2" d="M48.8,204.2c-0.3,0-0.5-0.2-0.5-0.5v-5.9c0-0.3,0.2-0.5,0.5-0.5s0.5,0.2,0.5,0.5v5.9
					C49.3,204,49.1,204.2,48.8,204.2z"/>
			</g>
			<g>
				<path class="st2" d="M52,204.2c-0.3,0-0.5-0.2-0.5-0.5v-11.2c0-0.3,0.2-0.5,0.5-0.5s0.5,0.2,0.5,0.5v11.2
					C52.5,204,52.3,204.2,52,204.2z"/>
			</g>
			<g>
				<path class="st2" d="M55.2,204.2c-0.3,0-0.5-0.2-0.5-0.5v-5.9c0-0.3,0.2-0.5,0.5-0.5s0.5,0.2,0.5,0.5v5.9
					C55.7,204,55.5,204.2,55.2,204.2z"/>
			</g>
			<g>
				<path class="st2" d="M58.5,204.2c-0.3,0-0.5-0.2-0.5-0.5v-11.2c0-0.3,0.2-0.5,0.5-0.5s0.5,0.2,0.5,0.5v11.2
					C59,204,58.7,204.2,58.5,204.2z"/>
			</g>
			<g>
				<path class="st2" d="M61.7,204.2c-0.3,0-0.5-0.2-0.5-0.5v-5.9c0-0.3,0.2-0.5,0.5-0.5s0.5,0.2,0.5,0.5v5.9
					C62.2,204,61.9,204.2,61.7,204.2z"/>
			</g>
			<g>
				<path class="st2" d="M64.9,204.2c-0.3,0-0.5-0.2-0.5-0.5v-11.2c0-0.3,0.2-0.5,0.5-0.5s0.5,0.2,0.5,0.5v11.2
					C65.4,204,65.2,204.2,64.9,204.2z"/>
			</g>
			<g>
				<path class="st2" d="M68.1,204.2c-0.3,0-0.5-0.2-0.5-0.5v-5.9c0-0.3,0.2-0.5,0.5-0.5s0.5,0.2,0.5,0.5v5.9
					C68.6,204,68.4,204.2,68.1,204.2z"/>
			</g>
			<g>
				<path class="st2" d="M71.3,204.2c-0.3,0-0.5-0.2-0.5-0.5v-5.9c0-0.3,0.2-0.5,0.5-0.5s0.5,0.2,0.5,0.5v5.9
					C71.8,204,71.6,204.2,71.3,204.2z"/>
			</g>
			<g>
				<path class="st2" d="M74.5,204.2c-0.3,0-0.5-0.2-0.5-0.5v-5.9c0-0.3,0.2-0.5,0.5-0.5s0.5,0.2,0.5,0.5v5.9
					C75,204,74.8,204.2,74.5,204.2z"/>
			</g>
			<g>
				<path class="st2" d="M77.8,204.2c-0.3,0-0.5-0.2-0.5-0.5v-11.2c0-0.3,0.2-0.5,0.5-0.5s0.5,0.2,0.5,0.5v11.2
					C78.3,204,78,204.2,77.8,204.2z"/>
			</g>
			<g>
				<path class="st2" d="M81,204.2c-0.3,0-0.5-0.2-0.5-0.5v-11.2c0-0.3,0.2-0.5,0.5-0.5s0.5,0.2,0.5,0.5v11.2
					C81.5,204,81.3,204.2,81,204.2z"/>
			</g>
		</g>
		<g>
			<path class="st1" d="M148.4,120.8c-3.2,16.2-14.9,29.4-30.3,34.6v-51.1H57.6c3.5-22,22.6-38.8,45.6-38.8
				c25.5,0,46.2,20.7,46.2,46.2c0,0.8,0,1.7-0.1,2.5L148.4,120.8z"/>
			<path class="st2" d="M118.2,156.4c-0.2,0-0.4-0.1-0.6-0.2c-0.3-0.2-0.4-0.5-0.4-0.8v-50.1H57.6c-0.3,0-0.6-0.1-0.8-0.4
				c-0.2-0.2-0.3-0.5-0.2-0.8c3.7-22.9,23.3-39.6,46.6-39.6c26,0,47.2,21.2,47.2,47.2c0,0.9,0,1.7-0.1,2.5c0,0.6-0.5,1-1.1,0.9
				c-0.6,0-1-0.5-0.9-1.1c0-0.8,0.1-1.6,0.1-2.4c0-24.9-20.3-45.2-45.2-45.2c-21.9,0-40.4,15.4-44.4,36.8h59.4c0.6,0,1,0.4,1,1V154
				c14.5-5.5,25.3-18.2,28.3-33.4c0.1-0.5,0.6-0.9,1.2-0.8c0.5,0.1,0.9,0.6,0.8,1.2c-3.3,16.4-15.1,30-30.9,35.4
				C118.4,156.4,118.3,156.4,118.2,156.4z"/>
		</g>
		<g>
			<path class="st2" d="M118.2,150.7c-0.1,0-0.2,0-0.3-0.1c-0.1-0.1-0.2-0.3-0.2-0.4v-45.3h-55c-0.2,0-0.3-0.1-0.4-0.2
				s-0.1-0.3-0.1-0.4l0.2-1c4-19.2,21.2-33.1,40.8-33.1c23,0,41.7,18.7,41.7,41.7c0,16.2-9.6,31.1-24.4,37.9l-2.1,1
				C118.3,150.7,118.2,150.7,118.2,150.7z M63.3,103.8h54.9c0.3,0,0.5,0.2,0.5,0.5v45.1l1.4-0.6c14.5-6.6,23.8-21.2,23.8-37
				c0-22.4-18.2-40.7-40.7-40.7c-19.2,0-35.9,13.6-39.8,32.3L63.3,103.8z"/>
		</g>
		<path class="st5" d="M97.8,76.7c2.8-0.7,5.8-1.1,8.8-1.1c19.9,0,36.2,16.2,36.2,36.2c0,14.6-8.7,27.2-21.2,32.9v-40.3H71.2
			c2.4-11.3,10-20.6,20.1-25.4L97.8,76.7z"/>
		<polygon class="st3" points="214.7,119 196.8,119 196.8,87.4 223.5,87.4 240.1,119 220.3,119 		"/>
		<path class="st3" d="M212.6,136.9h-12.4c-1.9,0-3.4-1.5-3.4-3.4l0,0c0-1.9,1.5-3.4,3.4-3.4h12.4c1.9,0,3.4,1.5,3.4,3.4l0,0
			C216,135.4,214.5,136.9,212.6,136.9z"/>
		<g>
			<path class="st2" d="M179.4,208.6H126c-0.6,0-1-0.4-1-1s0.4-1,1-1h53.4c0.6,0,1,0.4,1,1S179.9,208.6,179.4,208.6z"/>
		</g>
		<g>
			<path class="st2" d="M218.5,208.6h-29.8c-0.6,0-1-0.4-1-1s0.4-1,1-1h29.8c0.6,0,1,0.4,1,1S219,208.6,218.5,208.6z"/>
		</g>
		<g>
			<path class="st2" d="M213.1,215.4H134c-0.6,0-1-0.4-1-1s0.4-1,1-1h79.1c0.6,0,1,0.4,1,1S213.7,215.4,213.1,215.4z"/>
		</g>
		<g>
			<path class="st2" d="M109.8,215.4H68.6c-0.6,0-1-0.4-1-1s0.4-1,1-1h41.1c0.6,0,1,0.4,1,1S110.3,215.4,109.8,215.4z"/>
		</g>
		<g>
			<path class="st2" d="M58.9,215.4H29.8c-0.6,0-1-0.4-1-1s0.4-1,1-1h29.1c0.6,0,1,0.4,1,1S59.4,215.4,58.9,215.4z"/>
		</g>
		<g>
			<path class="st2" d="M237.1,119.5h-19.8c-0.3,0-0.5-0.2-0.5-0.5s0.2-0.5,0.5-0.5h19l-16.1-30.7h-25.9v30.7h17.3
				c0.3,0,0.5,0.2,0.5,0.5s-0.2,0.5-0.5,0.5h-17.8c-0.3,0-0.5-0.2-0.5-0.5V87.4c0-0.3,0.2-0.5,0.5-0.5h26.7c0.2,0,0.4,0.1,0.4,0.3
				l16.6,31.7c0.1,0.2,0.1,0.3,0,0.5S237.3,119.5,237.1,119.5z"/>
		</g>
		<g>
			<path class="st2" d="M239.9,125h-53.8c-0.6,0-1-0.4-1-1V82.4c0-0.6,0.4-1,1-1h32c0.4,0,0.7,0.2,0.9,0.5l21.9,41.7
				c0.2,0.3,0.2,0.7,0,1C240.6,124.8,240.3,125,239.9,125z M187.1,123h51.2l-20.8-39.7h-30.4V123z"/>
		</g>
		<g>
			<path class="st2" d="M118.2,145.7c-0.2,0-0.4-0.1-0.5-0.2c-0.3-0.2-0.5-0.5-0.5-0.8v-39.3H67.7c-0.3,0-0.6-0.1-0.8-0.4
				c-0.2-0.2-0.3-0.5-0.2-0.8C69.1,92.8,76.9,83,87.4,78.1c0.5-0.2,1.1,0,1.3,0.5c0.2,0.5,0,1.1-0.5,1.3
				c-9.6,4.5-16.8,13.2-19.3,23.5h49.2c0.6,0,1,0.4,1,1v38.7c11.7-6,19.2-18.1,19.2-31.3c0-19.4-15.8-35.2-35.2-35.2
				c-2.9,0-5.8,0.4-8.6,1.1c-0.5,0.1-1.1-0.2-1.2-0.7c-0.1-0.5,0.2-1.1,0.7-1.2c3-0.7,6-1.1,9.1-1.1c20.5,0,37.2,16.7,37.2,37.2
				c0,14.5-8.5,27.8-21.7,33.8C118.5,145.6,118.3,145.7,118.2,145.7z"/>
		</g>
		<rect x="44.5" y="104.3" class="st5" width="42.5" height="29"/>
		<rect x="29.2" y="164.4" class="st3" width="32.5" height="6.8"/>
		<rect x="29.2" y="150.5" class="st3" width="16.3" height="6.8"/>
		<rect x="78.5" y="150.5" class="st3" width="23.6" height="20.7"/>
		<g>
			<path class="st2" d="M57.7,171.7H25.2c-0.3,0-0.5-0.2-0.5-0.5v-6.8c0-0.3,0.2-0.5,0.5-0.5h32.5c0.3,0,0.5,0.2,0.5,0.5v6.8
				C58.2,171.5,58,171.7,57.7,171.7z M25.7,170.7h31.5v-5.8H25.7V170.7z"/>
		</g>
		<g>
			<path class="st2" d="M41.5,157.8H25.2c-0.3,0-0.5-0.2-0.5-0.5v-6.8c0-0.3,0.2-0.5,0.5-0.5h16.3c0.3,0,0.5,0.2,0.5,0.5v6.8
				C42,157.5,41.7,157.8,41.5,157.8z M25.7,156.8H41V151H25.7V156.8z"/>
		</g>
		<g>
			<path class="st2" d="M98.1,171.7H74.5c-0.3,0-0.5-0.2-0.5-0.5v-20.7c0-0.3,0.2-0.5,0.5-0.5h23.6c0.3,0,0.5,0.2,0.5,0.5v20.7
				C98.6,171.5,98.4,171.7,98.1,171.7z M75,170.7h22.6V151H75V170.7z"/>
		</g>
		<g>
			<path class="st2" d="M83.9,134.3H39.5c-0.6,0-1-0.4-1-1v-29c0-0.6,0.4-1,1-1h44.4c0.6,0,1,0.4,1,1v29
				C84.9,133.9,84.4,134.3,83.9,134.3z M40.5,132.3h42.4v-27H40.5V132.3z"/>
		</g>
		<g>
			<rect x="44.5" y="104.3" class="st1" width="34.4" height="24"/>
			<path class="st2" d="M78.9,128.8H44.5c-0.3,0-0.5-0.2-0.5-0.5v-24c0-0.3,0.2-0.5,0.5-0.5h34.4c0.3,0,0.5,0.2,0.5,0.5v24
				C79.4,128.6,79.1,128.8,78.9,128.8z M45,127.8h33.4v-23H45V127.8z"/>
		</g>
		<g>
			<path class="st2" d="M112.8,202.7H98.1c-0.3,0-0.5-0.2-0.5-0.5v-19.8H25.7v19.8c0,0.3-0.2,0.5-0.5,0.5H10.5
				c-0.3,0-0.5-0.2-0.5-0.5v-63.4c0-0.3,0.2-0.5,0.5-0.5s0.5,0.2,0.5,0.5v62.9h13.7v-19.8c0-0.3,0.2-0.5,0.5-0.5h72.9
				c0.3,0,0.5,0.2,0.5,0.5v19.8h13.7v-91.5H84.4v23.1c0,0.3-0.2,0.5-0.5,0.5H39.5c-0.3,0-0.5-0.2-0.5-0.5v-23.1H11v24.4
				c0,0.3-0.2,0.5-0.5,0.5s-0.5-0.2-0.5-0.5v-24.9c0-0.3,0.2-0.5,0.5-0.5h28.9c0.3,0,0.5,0.2,0.5,0.5v23.1h43.4v-23.1
				c0-0.3,0.2-0.5,0.5-0.5h28.9c0.3,0,0.5,0.2,0.5,0.5v92.5C113.3,202.5,113.1,202.7,112.8,202.7z"/>
		</g>
		<g>
			<path class="st2" d="M209.6,137.4h-12.4c-2.1,0-3.9-1.7-3.9-3.9s1.7-3.9,3.9-3.9h12.4c2.1,0,3.9,1.7,3.9,3.9
				S211.8,137.4,209.6,137.4z M197.2,130.7c-1.6,0-2.9,1.3-2.9,2.9c0,1.6,1.3,2.9,2.9,2.9h12.4c1.6,0,2.9-1.3,2.9-2.9
				c0-1.6-1.3-2.9-2.9-2.9H197.2z"/>
		</g>
		<g>
			<path class="st2" d="M118.2,208.6H5.2c-0.6,0-1-0.4-1-1V104.3c0-0.6,0.4-1,1-1h113c0.6,0,1,0.4,1,1v103.3
				C119.2,208.1,118.7,208.6,118.2,208.6z M6.2,206.6h111V105.3H6.2V206.6z"/>
		</g>
	</g>
	<g>
		<path class="st2" d="M58.9,231.8c-1.6,0-3-1.3-3-3s1.3-3,3-3s3,1.3,3,3S60.5,231.8,58.9,231.8z M58.9,226.8c-1.1,0-2,0.9-2,2
			s0.9,2,2,2c1.1,0,2-0.9,2-2S60,226.8,58.9,226.8z"/>
	</g>
	<g>
		<path class="st4" d="M45.5,32.4c-1.6,0-3-1.3-3-3s1.3-3,3-3s3,1.3,3,3S47.1,32.4,45.5,32.4z M45.5,27.4c-1.1,0-2,0.9-2,2
			s0.9,2,2,2s2-0.9,2-2S46.6,27.4,45.5,27.4z"/>
	</g>
	<g>
		<path class="st2" d="M192.8,232c-0.1,0-0.3-0.1-0.4-0.1c-0.1-0.1-0.2-0.3-0.1-0.5l0.8-2.6l-0.8-2.6c-0.1-0.2,0-0.4,0.1-0.5
			c0.1-0.1,0.3-0.2,0.5-0.1l2.6,0.8l2.6-0.8c0.2-0.1,0.4,0,0.5,0.1s0.2,0.3,0.1,0.5l-0.8,2.6l0.8,2.6c0.1,0.2,0,0.4-0.1,0.5
			c-0.1,0.1-0.3,0.2-0.5,0.1l-1-0.3c-0.3-0.1-0.4-0.4-0.3-0.6c0.1-0.3,0.4-0.4,0.6-0.3l0.1,0l-0.5-1.8c0-0.1,0-0.2,0-0.3l0.5-1.8
			l-1.8,0.5c-0.1,0-0.2,0-0.3,0l-1.8-0.5l0.5,1.8c0,0.1,0,0.2,0,0.3l-0.5,1.8l1.8-0.5c0.3-0.1,0.5,0.1,0.6,0.3
			c0.1,0.3-0.1,0.5-0.3,0.6l-2.7,0.8C192.9,232,192.8,232,192.8,232z"/>
	</g>
	<g>
		<path class="st5" d="M139.3,27.2c-0.1,0-0.3-0.1-0.4-0.1c-0.1-0.1-0.2-0.3-0.1-0.5l0.8-2.6l-0.8-2.6c-0.1-0.2,0-0.4,0.1-0.5
			c0.1-0.1,0.3-0.2,0.5-0.1l2.6,0.8l2.6-0.8c0.2-0.1,0.4,0,0.5,0.1s0.2,0.3,0.1,0.5l-0.8,2.6l0.8,2.6c0.1,0.2,0,0.4-0.1,0.5
			c-0.1,0.1-0.3,0.2-0.5,0.1l-1-0.3c-0.3-0.1-0.4-0.4-0.3-0.6c0.1-0.3,0.4-0.4,0.6-0.3l0.1,0l-0.5-1.8c0-0.1,0-0.2,0-0.3L144,22
			l-1.8,0.5c-0.1,0-0.2,0-0.3,0L140,22l0.5,1.8c0,0.1,0,0.2,0,0.3L140,26l1.8-0.5c0.3-0.1,0.5,0.1,0.6,0.3c0.1,0.3-0.1,0.5-0.3,0.6
			l-2.7,0.8C139.4,27.2,139.3,27.2,139.3,27.2z"/>
	</g>
	<g>
		<g>
			<path class="st4" d="M125.3,227.1c-0.3,0-0.5-0.2-0.5-0.5v-2.4c0-0.3,0.2-0.5,0.5-0.5s0.5,0.2,0.5,0.5v2.4
				C125.8,226.9,125.6,227.1,125.3,227.1z"/>
		</g>
		<g>
			<path class="st4" d="M125.3,232.9c-0.3,0-0.5-0.2-0.5-0.5V230c0-0.3,0.2-0.5,0.5-0.5s0.5,0.2,0.5,0.5v2.4
				C125.8,232.7,125.6,232.9,125.3,232.9z"/>
		</g>
		<g>
			<path class="st4" d="M129.5,228.8H127c-0.3,0-0.5-0.2-0.5-0.5s0.2-0.5,0.5-0.5h2.4c0.3,0,0.5,0.2,0.5,0.5
				S129.7,228.8,129.5,228.8z"/>
		</g>
		<g>
			<path class="st4" d="M123.6,228.8h-2.4c-0.3,0-0.5-0.2-0.5-0.5s0.2-0.5,0.5-0.5h2.4c0.3,0,0.5,0.2,0.5,0.5
				S123.9,228.8,123.6,228.8z"/>
		</g>
	</g>
	<g>
		<g>
			<path class="st5" d="M202.6,68.5c-0.3,0-0.5-0.2-0.5-0.5v-2.4c0-0.3,0.2-0.5,0.5-0.5s0.5,0.2,0.5,0.5V68
				C203.1,68.3,202.9,68.5,202.6,68.5z"/>
		</g>
		<g>
			<path class="st5" d="M202.6,74.4c-0.3,0-0.5-0.2-0.5-0.5v-2.4c0-0.3,0.2-0.5,0.5-0.5s0.5,0.2,0.5,0.5v2.4
				C203.1,74.1,202.9,74.4,202.6,74.4z"/>
		</g>
		<g>
			<path class="st5" d="M206.8,70.2h-2.4c-0.3,0-0.5-0.2-0.5-0.5s0.2-0.5,0.5-0.5h2.4c0.3,0,0.5,0.2,0.5,0.5S207,70.2,206.8,70.2z"
				/>
		</g>
		<g>
			<path class="st5" d="M200.9,70.2h-2.4c-0.3,0-0.5-0.2-0.5-0.5s0.2-0.5,0.5-0.5h2.4c0.3,0,0.5,0.2,0.5,0.5S201.2,70.2,200.9,70.2z
				"/>
		</g>
	</g>
	<g>
		<g>
			<path class="st3" d="M81,22.8c-0.3,0-0.5-0.2-0.5-0.5v-2.4c0-0.3,0.2-0.5,0.5-0.5s0.5,0.2,0.5,0.5v2.4
				C81.5,22.6,81.3,22.8,81,22.8z"/>
		</g>
		<g>
			<path class="st3" d="M81,28.6c-0.3,0-0.5-0.2-0.5-0.5v-2.4c0-0.3,0.2-0.5,0.5-0.5s0.5,0.2,0.5,0.5v2.4
				C81.5,28.4,81.3,28.6,81,28.6z"/>
		</g>
		<g>
			<path class="st3" d="M85.1,24.5h-2.4c-0.3,0-0.5-0.2-0.5-0.5s0.2-0.5,0.5-0.5h2.4c0.3,0,0.5,0.2,0.5,0.5S85.4,24.5,85.1,24.5z"/>
		</g>
		<g>
			<path class="st3" d="M79.3,24.5h-2.4c-0.3,0-0.5-0.2-0.5-0.5s0.2-0.5,0.5-0.5h2.4c0.3,0,0.5,0.2,0.5,0.5S79.5,24.5,79.3,24.5z"/>
		</g>
	</g>
</g>
</svg>
