<?xml version="1.0" encoding="utf-8"?>
<!-- Generator: Adobe Illustrator 22.1.0, SVG Export Plug-In . SVG Version: 6.00 Build 0)  -->
<svg version="1.1" id="Layer_1" xmlns="http://www.w3.org/2000/svg" xmlns:xlink="http://www.w3.org/1999/xlink" x="0px" y="0px"
	 viewBox="0 0 256 256" style="enable-background:new 0 0 256 256;" xml:space="preserve">
<style type="text/css">
	.st0{fill:#DBFDFF;}
	.st1{fill:#FFFFFF;}
	.st2{fill:#48386A;}
	.st3{fill:#FF8584;}
	.st4{fill:#FEBE7F;}
	.st5{fill:#9FEAFF;}
</style>
<g>
	<path class="st0" d="M243.4,83.2c0-20.6-11.5-38.5-28.4-47.7c-9.6-15-26.5-25-45.7-25c-12.7,0-24.4,4.4-33.6,11.7
		c-4.4-1.2-9-1.8-13.8-1.8c-8.4,0-16.4,1.9-23.5,5.4c-9.4-7.8-21.4-12.4-34.6-12.4c-30,0-54.3,24.3-54.3,54.3
		c0,13.2,4.7,25.3,12.6,34.7c-3.8,7.5-6,15.9-6,24.9c0,11.5,3.6,22.1,9.6,30.9c-2.8,6.6-4.4,13.8-4.4,21.4c0,30,24.3,54.3,54.3,54.3
		c7.4,0,14.5-1.5,20.9-4.2c9.6,8.5,22.2,13.7,36.1,13.7c24,0,44.4-15.6,51.6-37.3c2.3,0.3,4.5,0.4,6.9,0.4c30,0,54.3-24.3,54.3-54.3
		c0-13.6-5-26-13.3-35.5C239.1,107.3,243.4,95.7,243.4,83.2z"/>
	<g>
		<g>
			<path class="st1" d="M18.6,230.7H6.3V31.3c0-3.3,2.7-6,6-6h0.4c3.3,0,6,2.7,6,6V230.7z"/>
			<path class="st2" d="M18.6,231.7H6.3c-0.6,0-1-0.4-1-1V31.3c0-3.9,3.1-7,7-7h0.4c3.9,0,7,3.1,7,7v199.3
				C19.6,231.2,19.2,231.7,18.6,231.7z M7.3,229.7h10.4V31.3c0-2.8-2.2-5-5-5h-0.4c-2.8,0-5,2.2-5,5V229.7z"/>
		</g>
		<g>
			<path class="st1" d="M249.8,78.8v151.9h-12.4V31.3c0-3.3,2.7-6,6-6h0.4c3.3,0,6,2.7,6,6v32.7V78.8z"/>
			<path class="st2" d="M249.8,231.7h-12.4c-0.6,0-1-0.4-1-1V31.3c0-3.9,3.1-7,7-7h0.4c3.9,0,7,3.1,7,7v32.7c0,0.6-0.4,1-1,1
				s-1-0.4-1-1V31.3c0-2.8-2.2-5-5-5h-0.4c-2.8,0-5,2.2-5,5v198.3h10.4V78.8c0-0.6,0.4-1,1-1s1,0.4,1,1v151.9
				C250.8,231.2,250.3,231.7,249.8,231.7z"/>
		</g>
		<g>
			<path class="st2" d="M249.8,75.8c-0.6,0-1-0.4-1-1V70c0-0.6,0.4-1,1-1s1,0.4,1,1v4.8C250.8,75.3,250.3,75.8,249.8,75.8z"/>
		</g>
		<g>
			<path class="st1" d="M134.2,162.3v68.3h-12.4V31.5c0-3.4,2.8-6.2,6.2-6.2h0c3.4,0,6.2,2.8,6.2,6.2v122.9V162.3z"/>
			<path class="st2" d="M134.2,231.7h-12.4c-0.6,0-1-0.4-1-1V31.5c0-4,3.2-7.2,7.2-7.2s7.2,3.2,7.2,7.2v122.9c0,0.6-0.4,1-1,1
				s-1-0.4-1-1V31.5c0-2.9-2.3-5.2-5.2-5.2s-5.2,2.3-5.2,5.2v198.1h10.4v-67.3c0-0.6,0.4-1,1-1s1,0.4,1,1v68.3
				C135.2,231.2,134.7,231.7,134.2,231.7z"/>
		</g>
		<g>
			<rect x="18.6" y="121.3" class="st1" width="103.2" height="12.4"/>
			<g>
				<path class="st2" d="M121.8,134.7H18.6c-0.6,0-1-0.4-1-1v-12.4c0-0.6,0.4-1,1-1h103.2c0.6,0,1,0.4,1,1v12.4
					C122.8,134.2,122.4,134.7,121.8,134.7z M19.6,132.7h101.2v-10.4H19.6V132.7z"/>
			</g>
		</g>
		<g>
			<rect x="134.2" y="202.5" class="st1" width="103.2" height="12.4"/>
			<g>
				<path class="st2" d="M237.4,215.9H134.2c-0.6,0-1-0.4-1-1v-12.4c0-0.6,0.4-1,1-1h103.2c0.6,0,1,0.4,1,1v12.4
					C238.4,215.5,237.9,215.9,237.4,215.9z M135.2,213.9h101.2v-10.4H135.2V213.9z"/>
			</g>
		</g>
		<g>
			<polygon class="st1" points="50.1,52.3 121.8,52.3 121.8,64.7 18.6,64.7 18.6,52.3 41,52.3 			"/>
			<g>
				<path class="st2" d="M121.8,65.7H18.6c-0.6,0-1-0.4-1-1V52.3c0-0.6,0.4-1,1-1H41c0.6,0,1,0.4,1,1s-0.4,1-1,1H19.6v10.4h101.2
					V53.3H50.1c-0.6,0-1-0.4-1-1s0.4-1,1-1h71.7c0.6,0,1,0.4,1,1v12.4C122.8,65.2,122.4,65.7,121.8,65.7z"/>
			</g>
		</g>
		<g>
			<rect x="134.2" y="52.3" class="st1" width="103.2" height="12.4"/>
			<g>
				<path class="st2" d="M237.4,65.7H134.2c-0.6,0-1-0.4-1-1V52.3c0-0.6,0.4-1,1-1h103.2c0.6,0,1,0.4,1,1v12.4
					C238.4,65.2,237.9,65.7,237.4,65.7z M135.2,63.7h101.2V53.3H135.2V63.7z"/>
			</g>
		</g>
		<g>
			<polygon class="st1" points="93.2,93 93.2,121.3 39,121.3 39,77.3 93.2,77.3 93.2,87.8 			"/>
			<path class="st2" d="M93.2,122.3H39c-0.6,0-1-0.4-1-1v-44c0-0.6,0.4-1,1-1h54.2c0.6,0,1,0.4,1,1v10.5c0,0.6-0.4,1-1,1s-1-0.4-1-1
				v-9.5H40v42h52.2V93c0-0.6,0.4-1,1-1s1,0.4,1,1v28.3C94.2,121.8,93.7,122.3,93.2,122.3z"/>
		</g>
		<g>
			<path class="st2" d="M75.5,89.7H56.7c-0.3,0-0.5-0.2-0.5-0.5V77.3c0-0.3,0.2-0.5,0.5-0.5h18.8c0.3,0,0.5,0.2,0.5,0.5v11.9
				C76,89.5,75.8,89.7,75.5,89.7z M57.2,88.7H75V77.8H57.2V88.7z"/>
		</g>
		<g>
			<path class="st2" d="M85.3,121.8H46.9c-0.3,0-0.5-0.2-0.5-0.5v-11.9c0-0.3,0.2-0.5,0.5-0.5h38.5c0.3,0,0.5,0.2,0.5,0.5v11.9
				C85.8,121.6,85.6,121.8,85.3,121.8z M47.4,120.8h37.5v-10.9H47.4V120.8z"/>
		</g>
		<g>
			<g>
				<rect x="147.6" y="25.5" class="st1" width="33" height="26.8"/>
				<path class="st2" d="M180.6,53.3h-33c-0.6,0-1-0.4-1-1V25.5c0-0.6,0.4-1,1-1h33c0.6,0,1,0.4,1,1v26.8
					C181.6,52.9,181.2,53.3,180.6,53.3z M148.6,51.3h31V26.5h-31V51.3z"/>
			</g>
			<g>
				<path class="st2" d="M169.8,33.2h-11.5c-0.3,0-0.5-0.2-0.5-0.5v-7.3c0-0.3,0.2-0.5,0.5-0.5h11.5c0.3,0,0.5,0.2,0.5,0.5v7.3
					C170.3,33,170.1,33.2,169.8,33.2z M158.9,32.2h10.5V26h-10.5V32.2z"/>
			</g>
			<g>
				<path class="st2" d="M175.8,52.8h-23.4c-0.3,0-0.5-0.2-0.5-0.5V45c0-0.3,0.2-0.5,0.5-0.5h23.4c0.3,0,0.5,0.2,0.5,0.5v7.3
					C176.3,52.6,176.1,52.8,175.8,52.8z M152.9,51.8h22.4v-6.3h-22.4V51.8z"/>
			</g>
		</g>
		<g>
			<polygon class="st1" points="190.9,35.3 190.9,25.5 223.9,25.5 223.9,52.3 190.9,52.3 190.9,41 			"/>
			<path class="st2" d="M223.9,53.3h-33c-0.6,0-1-0.4-1-1V41c0-0.6,0.4-1,1-1s1,0.4,1,1v10.3h31V26.5h-31v8.8c0,0.6-0.4,1-1,1
				s-1-0.4-1-1v-9.8c0-0.6,0.4-1,1-1h33c0.6,0,1,0.4,1,1v26.8C224.9,52.9,224.5,53.3,223.9,53.3z"/>
		</g>
		<g>
			<path class="st2" d="M213.2,33.2h-11.5c-0.3,0-0.5-0.2-0.5-0.5v-7.3c0-0.3,0.2-0.5,0.5-0.5h11.5c0.3,0,0.5,0.2,0.5,0.5v7.3
				C213.7,33,213.4,33.2,213.2,33.2z M202.2,32.2h10.5V26h-10.5V32.2z"/>
		</g>
		<g>
			<path class="st2" d="M219.2,52.8h-23.4c-0.3,0-0.5-0.2-0.5-0.5V45c0-0.3,0.2-0.5,0.5-0.5h23.4c0.3,0,0.5,0.2,0.5,0.5v7.3
				C219.7,52.6,219.4,52.8,219.2,52.8z M196.2,51.8h22.4v-6.3h-22.4V51.8z"/>
		</g>
		<g>
			<rect x="27.4" y="147.1" class="st1" width="36.3" height="55.4"/>
			<path class="st2" d="M63.7,203.5H27.4c-0.6,0-1-0.4-1-1v-55.4c0-0.6,0.4-1,1-1h36.3c0.6,0,1,0.4,1,1v55.4
				C64.7,203.1,64.3,203.5,63.7,203.5z M28.4,201.5h34.3v-53.4H28.4V201.5z"/>
		</g>
		<g>
			<path class="st2" d="M50.1,203H41c-0.3,0-0.5-0.2-0.5-0.5v-55.4c0-0.3,0.2-0.5,0.5-0.5h9.1c0.3,0,0.5,0.2,0.5,0.5v55.4
				C50.6,202.8,50.4,203,50.1,203z M41.5,202h8.1v-54.4h-8.1V202z"/>
		</g>
		<g>
			<rect x="63.7" y="170.8" class="st1" width="50" height="31.7"/>
			<path class="st2" d="M113.7,203.5h-50c-0.6,0-1-0.4-1-1v-31.7c0-0.6,0.4-1,1-1h50c0.6,0,1,0.4,1,1v31.7
				C114.7,203.1,114.3,203.5,113.7,203.5z M64.7,201.5h48v-29.7h-48V201.5z"/>
		</g>
		<g>
			<path class="st2" d="M113.7,203H97.6c-0.3,0-0.5-0.2-0.5-0.5v-10.2c0-0.3,0.2-0.5,0.5-0.5h16.1c0.3,0,0.5,0.2,0.5,0.5v10.2
				C114.2,202.8,114,203,113.7,203z M98.1,202h15.1v-9.2H98.1V202z"/>
		</g>
		<g>
			<rect x="146.2" y="182.9" class="st1" width="78.8" height="19.6"/>
			<path class="st2" d="M225,203.5h-78.8c-0.6,0-1-0.4-1-1v-19.6c0-0.6,0.4-1,1-1H225c0.6,0,1,0.4,1,1v19.6
				C226,203.1,225.5,203.5,225,203.5z M147.2,201.5H224v-17.6h-76.8V201.5z"/>
		</g>
		<rect x="150.2" y="188.9" class="st3" width="78.8" height="7.7"/>
		<g>
			<rect x="162" y="144.3" class="st1" width="47.1" height="38.6"/>
			<path class="st2" d="M209.2,183.9H162c-0.6,0-1-0.4-1-1v-38.6c0-0.6,0.4-1,1-1h47.1c0.6,0,1,0.4,1,1v38.6
				C210.2,183.5,209.7,183.9,209.2,183.9z M163,181.9h45.1v-36.6H163V181.9z"/>
		</g>
		<g>
			<path class="st2" d="M209.2,176.6h-18.9c-0.3,0-0.5-0.2-0.5-0.5s0.2-0.5,0.5-0.5h18.4v-7.3h-46.1v7.3h20.7c0.3,0,0.5,0.2,0.5,0.5
				s-0.2,0.5-0.5,0.5H162c-0.3,0-0.5-0.2-0.5-0.5v-8.3c0-0.3,0.2-0.5,0.5-0.5h47.1c0.3,0,0.5,0.2,0.5,0.5v8.3
				C209.7,176.4,209.4,176.6,209.2,176.6z"/>
		</g>
		<g>
			<path class="st2" d="M193.7,159.1h-16.2c-0.3,0-0.5-0.2-0.5-0.5v-14.3c0-0.3,0.2-0.5,0.5-0.5h16.2c0.3,0,0.5,0.2,0.5,0.5v14.3
				C194.2,158.9,194,159.1,193.7,159.1z M178,158.1h15.2v-13.3H178V158.1z"/>
		</g>
		<g>
			<path class="st1" d="M204.1,121.3h-36.7c-2.8,0-5-2.2-5-5V79.6c0-2.8,2.2-5,5-5h36.7c2.8,0,5,2.2,5,5v36.7
				C209.1,119.1,206.9,121.3,204.1,121.3z"/>
			<path class="st2" d="M204.1,122.3h-36.7c-3.3,0-6-2.7-6-6V79.6c0-3.3,2.7-6,6-6h36.7c3.3,0,6,2.7,6,6v36.7
				C210.1,119.6,207.4,122.3,204.1,122.3z M167.4,75.6c-2.2,0-4,1.8-4,4v36.7c0,2.2,1.8,4,4,4h36.7c2.2,0,4-1.8,4-4V79.6
				c0-2.2-1.8-4-4-4H167.4z"/>
		</g>
		<path class="st4" d="M22.1,230.7H9.8V31.3c0-3.3,2.7-6,6-6h0.4c3.3,0,6,2.7,6,6V230.7z"/>
		<path class="st4" d="M253.3,78.8v151.9h-12.4V31.3c0-3.3,2.7-6,6-6h0.4c3.3,0,6,2.7,6,6v32.7V78.8z"/>
		<path class="st4" d="M137.7,162.3v68.3h-12.4V31.5c0-3.4,2.8-6.2,6.2-6.2l0,0c3.4,0,6.2,2.8,6.2,6.2v122.9V162.3z"/>
		<rect x="60.2" y="77.3" class="st5" width="18.8" height="11.9"/>
		<rect x="50.4" y="109.4" class="st3" width="38.5" height="11.9"/>
		<rect x="161.9" y="25.5" class="st5" width="11.5" height="7.3"/>
		<rect x="156.9" y="45" class="st3" width="23.4" height="7.3"/>
		<rect x="205.2" y="25.5" class="st5" width="11.5" height="7.3"/>
		<rect x="200.2" y="45" class="st3" width="23.4" height="7.3"/>
		<rect x="44.5" y="147.1" class="st3" width="9.1" height="55.4"/>
		<rect x="101.1" y="192.3" class="st5" width="16.1" height="10.2"/>
		<rect x="181" y="144.3" class="st5" width="16.2" height="14.3"/>
		<path class="st3" d="M207.6,121.3h-36.7c-2.8,0-5-2.2-5-5V79.6c0-2.8,2.2-5,5-5h36.7c2.8,0,5,2.2,5,5v36.7
			C212.6,119.1,210.4,121.3,207.6,121.3z"/>
		<g>
			<path class="st1" d="M167.6,114.1V81.8c0-1.1,0.9-2,2-2H202c1.1,0,2,0.9,2,2v32.4c0,1.1-0.9,2-2,2h-32.4
				C168.5,116.1,167.6,115.2,167.6,114.1z"/>
			<path class="st2" d="M202,116.6h-32.4c-1.4,0-2.5-1.1-2.5-2.5V81.8c0-1.4,1.1-2.5,2.5-2.5H202c1.4,0,2.5,1.1,2.5,2.5v32.4
				C204.5,115.5,203.3,116.6,202,116.6z M169.6,80.3c-0.8,0-1.5,0.7-1.5,1.5v32.4c0,0.8,0.7,1.5,1.5,1.5H202c0.8,0,1.5-0.7,1.5-1.5
				V81.8c0-0.8-0.7-1.5-1.5-1.5H169.6z"/>
		</g>
		<g>
			<path class="st2" d="M185.6,121.8c-0.3,0-0.5-0.2-0.5-0.5V74.6c0-0.3,0.2-0.5,0.5-0.5s0.5,0.2,0.5,0.5v46.7
				C186.1,121.6,185.9,121.8,185.6,121.8z"/>
		</g>
		<g>
			<path class="st2" d="M172.5,98.4h-10.2c-0.3,0-0.5-0.2-0.5-0.5s0.2-0.5,0.5-0.5h10.2c0.3,0,0.5,0.2,0.5,0.5
				S172.8,98.4,172.5,98.4z"/>
		</g>
		<g>
			<path class="st2" d="M209,98.4h-29.7c-0.3,0-0.5-0.2-0.5-0.5s0.2-0.5,0.5-0.5H209c0.3,0,0.5,0.2,0.5,0.5S209.2,98.4,209,98.4z"/>
		</g>
		<g>
			<path class="st2" d="M12.4,168.3c-0.3,0-0.5-0.2-0.5-0.5V25.3c0-0.3,0.2-0.5,0.5-0.5s0.5,0.2,0.5,0.5v142.5
				C12.9,168.1,12.7,168.3,12.4,168.3z"/>
		</g>
		<g>
			<path class="st2" d="M128,231.2c-0.3,0-0.5-0.2-0.5-0.5V25.3c0-0.3,0.2-0.5,0.5-0.5s0.5,0.2,0.5,0.5v205.3
				C128.5,230.9,128.3,231.2,128,231.2z"/>
		</g>
		<g>
			<path class="st2" d="M243.6,231.2c-0.3,0-0.5-0.2-0.5-0.5V25.3c0-0.3,0.2-0.5,0.5-0.5s0.5,0.2,0.5,0.5v205.3
				C244.1,230.9,243.8,231.2,243.6,231.2z"/>
		</g>
		<g>
			<path class="st2" d="M12.4,231.2c-0.3,0-0.5-0.2-0.5-0.5v-54.5c0-0.3,0.2-0.5,0.5-0.5s0.5,0.2,0.5,0.5v54.5
				C12.9,230.9,12.7,231.2,12.4,231.2z"/>
		</g>
		<g>
			<path class="st2" d="M18.6,231.7H6.3c-0.6,0-1-0.4-1-1V31.3c0-3.9,3.1-7,7-7h0.4c3.9,0,7,3.1,7,7v199.3
				C19.6,231.2,19.2,231.7,18.6,231.7z M7.3,229.7h10.4V31.3c0-2.8-2.2-5-5-5h-0.4c-2.8,0-5,2.2-5,5V229.7z"/>
		</g>
		<g>
			<path class="st2" d="M249.8,231.7h-12.4c-0.6,0-1-0.4-1-1V31.3c0-3.9,3.1-7,7-7h0.4c3.9,0,7,3.1,7,7v32.7c0,0.6-0.4,1-1,1
				s-1-0.4-1-1V31.3c0-2.8-2.2-5-5-5h-0.4c-2.8,0-5,2.2-5,5v198.3h10.4V78.8c0-0.6,0.4-1,1-1s1,0.4,1,1v151.9
				C250.8,231.2,250.3,231.7,249.8,231.7z"/>
		</g>
		<g>
			<path class="st2" d="M134.2,231.7h-12.4c-0.6,0-1-0.4-1-1V31.5c0-4,3.2-7.2,7.2-7.2s7.2,3.2,7.2,7.2v122.9c0,0.6-0.4,1-1,1
				s-1-0.4-1-1V31.5c0-2.9-2.3-5.2-5.2-5.2s-5.2,2.3-5.2,5.2v198.1h10.4v-67.3c0-0.6,0.4-1,1-1s1,0.4,1,1v68.3
				C135.2,231.2,134.7,231.7,134.2,231.7z"/>
		</g>
		<g>
			<path class="st2" d="M75.5,89.7H56.7c-0.3,0-0.5-0.2-0.5-0.5V77.3c0-0.3,0.2-0.5,0.5-0.5h18.8c0.3,0,0.5,0.2,0.5,0.5v11.9
				C76,89.5,75.8,89.7,75.5,89.7z M57.2,88.7H75V77.8H57.2V88.7z"/>
		</g>
		<g>
			<path class="st2" d="M85.3,121.8H46.9c-0.3,0-0.5-0.2-0.5-0.5v-11.9c0-0.3,0.2-0.5,0.5-0.5h38.5c0.3,0,0.5,0.2,0.5,0.5v11.9
				C85.8,121.6,85.6,121.8,85.3,121.8z M47.4,120.8h37.5v-10.9H47.4V120.8z"/>
		</g>
		<g>
			<path class="st2" d="M169.8,33.2h-11.5c-0.3,0-0.5-0.2-0.5-0.5v-7.3c0-0.3,0.2-0.5,0.5-0.5h11.5c0.3,0,0.5,0.2,0.5,0.5v7.3
				C170.3,33,170.1,33.2,169.8,33.2z M158.9,32.2h10.5V26h-10.5V32.2z"/>
		</g>
		<g>
			<path class="st2" d="M175.8,52.8h-23.4c-0.3,0-0.5-0.2-0.5-0.5V45c0-0.3,0.2-0.5,0.5-0.5h23.4c0.3,0,0.5,0.2,0.5,0.5v7.3
				C176.3,52.6,176.1,52.8,175.8,52.8z M152.9,51.8h22.4v-6.3h-22.4V51.8z"/>
		</g>
		<g>
			<path class="st2" d="M213.2,33.2h-11.5c-0.3,0-0.5-0.2-0.5-0.5v-7.3c0-0.3,0.2-0.5,0.5-0.5h11.5c0.3,0,0.5,0.2,0.5,0.5v7.3
				C213.7,33,213.4,33.2,213.2,33.2z M202.2,32.2h10.5V26h-10.5V32.2z"/>
		</g>
		<g>
			<path class="st2" d="M219.2,52.8h-23.4c-0.3,0-0.5-0.2-0.5-0.5V45c0-0.3,0.2-0.5,0.5-0.5h23.4c0.3,0,0.5,0.2,0.5,0.5v7.3
				C219.7,52.6,219.4,52.8,219.2,52.8z M196.2,51.8h22.4v-6.3h-22.4V51.8z"/>
		</g>
		<g>
			<path class="st2" d="M50.1,203H41c-0.3,0-0.5-0.2-0.5-0.5v-55.4c0-0.3,0.2-0.5,0.5-0.5h9.1c0.3,0,0.5,0.2,0.5,0.5v55.4
				C50.6,202.8,50.4,203,50.1,203z M41.5,202h8.1v-54.4h-8.1V202z"/>
		</g>
		<g>
			<path class="st2" d="M113.7,203H97.6c-0.3,0-0.5-0.2-0.5-0.5v-10.2c0-0.3,0.2-0.5,0.5-0.5h16.1c0.3,0,0.5,0.2,0.5,0.5v10.2
				C114.2,202.8,114,203,113.7,203z M98.1,202h15.1v-9.2H98.1V202z"/>
		</g>
		<g>
			<path class="st2" d="M193.7,159.1h-16.2c-0.3,0-0.5-0.2-0.5-0.5v-14.3c0-0.3,0.2-0.5,0.5-0.5h16.2c0.3,0,0.5,0.2,0.5,0.5v14.3
				C194.2,158.9,194,159.1,193.7,159.1z M178,158.1h15.2v-13.3H178V158.1z"/>
		</g>
		<g>
			<path class="st2" d="M93.2,122.3H39c-0.6,0-1-0.4-1-1v-44c0-0.6,0.4-1,1-1h54.2c0.6,0,1,0.4,1,1v10.5c0,0.6-0.4,1-1,1s-1-0.4-1-1
				v-9.5H40v42h52.2V93c0-0.6,0.4-1,1-1s1,0.4,1,1v28.3C94.2,121.8,93.7,122.3,93.2,122.3z"/>
		</g>
		<g>
			<path class="st2" d="M180.6,53.3h-33c-0.6,0-1-0.4-1-1V25.5c0-0.6,0.4-1,1-1h33c0.6,0,1,0.4,1,1v26.8
				C181.6,52.9,181.2,53.3,180.6,53.3z M148.6,51.3h31V26.5h-31V51.3z"/>
		</g>
		<g>
			<path class="st2" d="M223.9,53.3h-33c-0.6,0-1-0.4-1-1V41c0-0.6,0.4-1,1-1s1,0.4,1,1v10.3h31V26.5h-31v8.8c0,0.6-0.4,1-1,1
				s-1-0.4-1-1v-9.8c0-0.6,0.4-1,1-1h33c0.6,0,1,0.4,1,1v26.8C224.9,52.9,224.5,53.3,223.9,53.3z"/>
		</g>
		<g>
			<path class="st2" d="M63.7,203.5H27.4c-0.6,0-1-0.4-1-1v-55.4c0-0.6,0.4-1,1-1h36.3c0.6,0,1,0.4,1,1v55.4
				C64.7,203.1,64.3,203.5,63.7,203.5z M28.4,201.5h34.3v-53.4H28.4V201.5z"/>
		</g>
		<g>
			<path class="st2" d="M209.2,183.9H162c-0.6,0-1-0.4-1-1v-38.6c0-0.6,0.4-1,1-1h47.1c0.6,0,1,0.4,1,1v38.6
				C210.2,183.5,209.7,183.9,209.2,183.9z M163,181.9h45.1v-36.6H163V181.9z"/>
		</g>
		<g>
			<path class="st2" d="M204.1,122.3h-36.7c-3.3,0-6-2.7-6-6V79.6c0-3.3,2.7-6,6-6h36.7c3.3,0,6,2.7,6,6v36.7
				C210.1,119.6,207.4,122.3,204.1,122.3z M167.4,75.6c-2.2,0-4,1.8-4,4v36.7c0,2.2,1.8,4,4,4h36.7c2.2,0,4-1.8,4-4V79.6
				c0-2.2-1.8-4-4-4H167.4z"/>
		</g>
		<g>
			<path class="st2" d="M113.7,203.5h-50c-0.6,0-1-0.4-1-1v-31.7c0-0.6,0.4-1,1-1h50c0.6,0,1,0.4,1,1v31.7
				C114.7,203.1,114.3,203.5,113.7,203.5z M64.7,201.5h48v-29.7h-48V201.5z"/>
		</g>
		<g>
			<rect x="18.6" y="202.5" class="st1" width="103.2" height="12.4"/>
			<g>
				<path class="st2" d="M121.8,215.9H18.6c-0.6,0-1-0.4-1-1v-12.4c0-0.6,0.4-1,1-1h103.2c0.6,0,1,0.4,1,1v12.4
					C122.8,215.5,122.4,215.9,121.8,215.9z M19.6,213.9h101.2v-10.4H19.6V213.9z"/>
			</g>
		</g>
		<g>
			<polygon class="st1" points="157.3,133.7 134.2,133.7 134.2,121.3 237.4,121.3 237.4,133.7 165.3,133.7 			"/>
			<g>
				<path class="st2" d="M237.4,134.7h-72.1c-0.6,0-1-0.4-1-1s0.4-1,1-1h71.1v-10.4H135.2v10.4h22.1c0.6,0,1,0.4,1,1s-0.4,1-1,1
					h-23.1c-0.6,0-1-0.4-1-1v-12.4c0-0.6,0.4-1,1-1h103.2c0.6,0,1,0.4,1,1v12.4C238.4,134.2,237.9,134.7,237.4,134.7z"/>
			</g>
		</g>
		<g>
			<path class="st2" d="M225,197.1h-78.8c-0.3,0-0.5-0.2-0.5-0.5v-7.7c0-0.3,0.2-0.5,0.5-0.5H225c0.3,0,0.5,0.2,0.5,0.5v7.7
				C225.5,196.9,225.3,197.1,225,197.1z M146.7,196.1h77.8v-6.7h-77.8V196.1z"/>
		</g>
		<g>
			<path class="st2" d="M225,203.5h-78.8c-0.6,0-1-0.4-1-1v-19.6c0-0.6,0.4-1,1-1H225c0.6,0,1,0.4,1,1v19.6
				C226,203.1,225.5,203.5,225,203.5z M147.2,201.5H224v-17.6h-76.8V201.5z"/>
		</g>
	</g>
	<g>
		<path class="st2" d="M162,14.8c-1.6,0-3-1.3-3-3s1.3-3,3-3s3,1.3,3,3S163.7,14.8,162,14.8z M162,9.9c-1.1,0-2,0.9-2,2
			c0,1.1,0.9,2,2,2s2-0.9,2-2C164,10.7,163.1,9.9,162,9.9z"/>
	</g>
	<g>
		<path class="st3" d="M156.9,230.9c-1.6,0-3-1.3-3-3s1.3-3,3-3s3,1.3,3,3S158.5,230.9,156.9,230.9z M156.9,226c-1.1,0-2,0.9-2,2
			s0.9,2,2,2s2-0.9,2-2S158,226,156.9,226z"/>
	</g>
	<g>
		<path class="st2" d="M68.8,231.2c0,0-0.1,0-0.1,0l-1-0.3c-0.3-0.1-0.4-0.4-0.3-0.6c0.1-0.3,0.4-0.4,0.6-0.3l0.1,0l-0.5-1.8
			c0-0.1,0-0.2,0-0.3l0.5-1.8l-1.8,0.5c-0.1,0-0.2,0-0.3,0l-1.8-0.5l0.5,1.8c0,0.1,0,0.2,0,0.3l-0.5,1.8l1.8-0.5
			c0.3-0.1,0.5,0.1,0.6,0.3c0.1,0.3-0.1,0.5-0.3,0.6l-2.7,0.8c-0.2,0.1-0.4,0-0.5-0.1c-0.1-0.1-0.2-0.3-0.1-0.5l0.8-2.6l-0.8-2.6
			c-0.1-0.2,0-0.4,0.1-0.5c0.1-0.1,0.3-0.2,0.5-0.1l2.6,0.8l2.6-0.8c0.2-0.1,0.4,0,0.5,0.1s0.2,0.3,0.1,0.5l-0.8,2.6l0.8,2.6
			c0.1,0.2,0,0.4-0.1,0.5C69.1,231.1,68.9,231.2,68.8,231.2z"/>
	</g>
	<g>
		<path class="st4" d="M100.3,42.1c0,0-0.1,0-0.1,0l-1-0.3c-0.3-0.1-0.4-0.4-0.3-0.6c0.1-0.3,0.4-0.4,0.6-0.3l0.1,0L99,39
			c0-0.1,0-0.2,0-0.3l0.5-1.8l-1.8,0.5c-0.1,0-0.2,0-0.3,0l-1.8-0.5l0.5,1.8c0,0.1,0,0.2,0,0.3l-0.5,1.8l1.8-0.5
			c0.3-0.1,0.5,0.1,0.6,0.3c0.1,0.3-0.1,0.5-0.3,0.6L95,42.1c-0.2,0.1-0.4,0-0.5-0.1s-0.2-0.3-0.1-0.5l0.8-2.6l-0.8-2.6
			c-0.1-0.2,0-0.4,0.1-0.5s0.3-0.2,0.5-0.1l2.6,0.8l2.6-0.8c0.2-0.1,0.4,0,0.5,0.1s0.2,0.3,0.1,0.5l-0.8,2.6l0.8,2.6
			c0.1,0.2,0,0.4-0.1,0.5C100.6,42,100.5,42.1,100.3,42.1z"/>
	</g>
	<g>
		<g>
			<path class="st3" d="M39,34c-0.3,0-0.5-0.2-0.5-0.5V31c0-0.3,0.2-0.5,0.5-0.5s0.5,0.2,0.5,0.5v2.4C39.5,33.7,39.3,34,39,34z"/>
		</g>
		<g>
			<path class="st3" d="M39,39.8c-0.3,0-0.5-0.2-0.5-0.5v-2.4c0-0.3,0.2-0.5,0.5-0.5s0.5,0.2,0.5,0.5v2.4
				C39.5,39.6,39.3,39.8,39,39.8z"/>
		</g>
		<g>
			<path class="st3" d="M43.2,35.7h-2.4c-0.3,0-0.5-0.2-0.5-0.5s0.2-0.5,0.5-0.5h2.4c0.3,0,0.5,0.2,0.5,0.5S43.4,35.7,43.2,35.7z"/>
		</g>
		<g>
			<path class="st3" d="M37.3,35.7h-2.4c-0.3,0-0.5-0.2-0.5-0.5s0.2-0.5,0.5-0.5h2.4c0.3,0,0.5,0.2,0.5,0.5S37.6,35.7,37.3,35.7z"/>
		</g>
	</g>
	<g>
		<g>
			<path class="st4" d="M109.2,224.3c-0.3,0-0.5-0.2-0.5-0.5v-2.4c0-0.3,0.2-0.5,0.5-0.5s0.5,0.2,0.5,0.5v2.4
				C109.7,224,109.4,224.3,109.2,224.3z"/>
		</g>
		<g>
			<path class="st4" d="M109.2,230.1c-0.3,0-0.5-0.2-0.5-0.5v-2.4c0-0.3,0.2-0.5,0.5-0.5s0.5,0.2,0.5,0.5v2.4
				C109.7,229.9,109.4,230.1,109.2,230.1z"/>
		</g>
		<g>
			<path class="st4" d="M113.3,226h-2.4c-0.3,0-0.5-0.2-0.5-0.5s0.2-0.5,0.5-0.5h2.4c0.3,0,0.5,0.2,0.5,0.5S113.6,226,113.3,226z"/>
		</g>
		<g>
			<path class="st4" d="M107.5,226H105c-0.3,0-0.5-0.2-0.5-0.5s0.2-0.5,0.5-0.5h2.4c0.3,0,0.5,0.2,0.5,0.5S107.7,226,107.5,226z"/>
		</g>
	</g>
	<g>
		<g>
			<path class="st5" d="M73,19c-0.3,0-0.5-0.2-0.5-0.5v-2.4c0-0.3,0.2-0.5,0.5-0.5s0.5,0.2,0.5,0.5v2.4C73.5,18.8,73.2,19,73,19z"/>
		</g>
		<g>
			<path class="st5" d="M73,24.9c-0.3,0-0.5-0.2-0.5-0.5V22c0-0.3,0.2-0.5,0.5-0.5s0.5,0.2,0.5,0.5v2.4C73.5,24.7,73.2,24.9,73,24.9
				z"/>
		</g>
		<g>
			<path class="st5" d="M77.1,20.7h-2.4c-0.3,0-0.5-0.2-0.5-0.5s0.2-0.5,0.5-0.5h2.4c0.3,0,0.5,0.2,0.5,0.5S77.4,20.7,77.1,20.7z"/>
		</g>
		<g>
			<path class="st5" d="M71.2,20.7h-2.4c-0.3,0-0.5-0.2-0.5-0.5s0.2-0.5,0.5-0.5h2.4c0.3,0,0.5,0.2,0.5,0.5S71.5,20.7,71.2,20.7z"/>
		</g>
	</g>
</g>
</svg>
