<?xml version="1.0" encoding="utf-8"?>
<!-- Generator: Adobe Illustrator 22.1.0, SVG Export Plug-In . SVG Version: 6.00 Build 0)  -->
<svg version="1.1" id="Layer_1" xmlns="http://www.w3.org/2000/svg" xmlns:xlink="http://www.w3.org/1999/xlink" x="0px" y="0px"
	 viewBox="0 0 256 256" style="enable-background:new 0 0 256 256;" xml:space="preserve">
<style type="text/css">
	.st0{fill:#DBFDFF;}
	.st1{fill:#48386A;}
	.st2{fill:#FFFFFF;}
	.st3{fill:#FEBE7F;}
	.st4{fill:#9FEAFF;}
	.st5{fill:#FF8584;}
</style>
<g>
	<path class="st0" d="M20.5,124c0,10.8,3.2,20.8,8.6,29.2c-6,8.7-9.6,19.3-9.6,30.8c0,30,24.3,54.3,54.3,54.3
		c10.5,0,20.4-3,28.7-8.2c9.7,9,22.7,14.6,37,14.6c8.2,0,15.9-1.8,22.9-5.1c7,3.2,14.7,5.1,22.9,5.1c30,0,54.3-24.3,54.3-54.3
		c0-13.3-4.8-25.4-12.7-34.8c5-8.2,7.9-17.8,7.9-28.1c0-8.8-2.1-17.2-5.9-24.6c7.3-9.2,11.6-20.9,11.6-33.5
		c0-30-24.3-54.3-54.3-54.3c-15.2,0-29,6.3-38.9,16.4C137.4,20.2,122.8,13,106.5,13c-10.7,0-20.7,3.1-29.1,8.4
		c-4.2-1-8.6-1.6-13.1-1.6c-30,0-54.3,24.3-54.3,54.3c0,13.2,4.7,25.3,12.5,34.7C21.3,113.7,20.5,118.8,20.5,124z"/>
	<g>
		<g>
			<path class="st0" d="M250.9,171.2v10.7h-9.5c-0.5-4-1.9-7.6-4.2-10.7H250.9z"/>
			<g>
				<path class="st1" d="M250.9,182.9h-9.5c-0.5,0-0.9-0.4-1-0.9c-0.4-3.7-1.8-7.2-4-10.3c-0.2-0.3-0.2-0.7-0.1-1s0.5-0.5,0.9-0.5
					h13.7c0.6,0,1,0.4,1,1v10.7C251.9,182.5,251.5,182.9,250.9,182.9z M242.3,180.9h7.7v-8.7h-10.8
					C240.7,174.9,241.8,177.9,242.3,180.9z"/>
			</g>
		</g>
		<g>
			<path class="st2" d="M73.3,41.6h113v140.4h-58.9c2.7-3.3,5.1-6.9,7.1-10.7c5.2-9.6,8.1-20.6,8.1-32.3c0-37.9-30.8-68.7-68.7-68.7
				c-16.2,0-31,5.6-42.8,14.9c-4,3.1-7.6,6.7-10.7,10.7V41.6h38.5H73.3z"/>
			<path class="st1" d="M186.2,182.9h-58.9c-0.4,0-0.7-0.2-0.9-0.6s-0.1-0.8,0.1-1.1c2.7-3.3,5-6.9,7-10.6c5.2-9.7,8-20.8,8-31.9
				c0-37.3-30.4-67.7-67.7-67.7c-15.5,0-30.1,5.1-42.1,14.7c-3.9,3.1-7.4,6.6-10.6,10.5c-0.3,0.3-0.7,0.5-1.1,0.3
				c-0.4-0.1-0.7-0.5-0.7-0.9V41.6c0-0.6,0.4-1,1-1h38.5c0.6,0,1,0.4,1,1s-0.4,1-1,1H21.3V93c2.8-3.2,5.8-6.1,9.1-8.7
				c12.4-9.9,27.4-15.1,43.4-15.1c38.4,0,69.7,31.3,69.7,69.7c0,11.4-2.8,22.8-8.2,32.8c-1.7,3.2-3.7,6.3-5.9,9.3h55.8V42.6h-112
				c-0.6,0-1-0.4-1-1s0.4-1,1-1h113c0.6,0,1,0.4,1,1v140.4C187.2,182.5,186.8,182.9,186.2,182.9z"/>
		</g>
		<g>
			<path class="st1" d="M69.3,42.6h-4.5c-0.6,0-1-0.4-1-1s0.4-1,1-1h4.5c0.6,0,1,0.4,1,1S69.8,42.6,69.3,42.6z"/>
		</g>
		<g>
			<path class="st0" d="M186.2,171.2h13.7c-2.2,3.1-3.7,6.7-4.2,10.7h-9.5V171.2z"/>
			<g>
				<path class="st1" d="M195.8,182.9h-9.5c-0.6,0-1-0.4-1-1v-10.7c0-0.6,0.4-1,1-1h13.7c0.4,0,0.7,0.2,0.9,0.5s0.1,0.7-0.1,1
					c-2.2,3-3.6,6.6-4,10.3C196.7,182.6,196.3,182.9,195.8,182.9z M187.2,180.9h7.7c0.5-3.1,1.5-6,3.2-8.7h-10.8V180.9z"/>
			</g>
		</g>
		<g>
			<path class="st2" d="M250.2,145.6c0.5,2.6,0.7,5.4,0.7,8.1v17.6h-13.7c-4.2-5.8-11-9.6-18.7-9.6c-7.7,0-14.5,3.8-18.7,9.6h-13.7
				V124h54v0c4,4.8,6.9,10.3,8.7,16.1L250.2,145.6z"/>
			<path class="st1" d="M250.9,172.2h-13.7c-0.3,0-0.6-0.2-0.8-0.4c-4.1-5.7-10.8-9.2-17.8-9.2c-7.1,0-13.7,3.4-17.9,9.2
				c-0.2,0.3-0.5,0.4-0.8,0.4h-13.7c-0.6,0-1-0.4-1-1V124c0-0.6,0.4-1,1-1h54c0.3,0,0.6,0.1,0.8,0.4c4.1,4.9,7.1,10.4,8.9,16.5
				c0.2,0.5-0.1,1.1-0.7,1.2c-0.5,0.2-1.1-0.1-1.2-0.7c-1.7-5.7-4.5-10.9-8.2-15.4h-52.5v45.2h12.2c4.5-6,11.6-9.6,19.2-9.6
				c7.5,0,14.7,3.6,19.2,9.6h12.2v-16.6c0-2.6-0.2-5.3-0.7-7.9c-0.1-0.5,0.3-1.1,0.8-1.2c0.6-0.1,1.1,0.3,1.2,0.8
				c0.5,2.7,0.7,5.5,0.7,8.2v17.6C251.9,171.8,251.5,172.2,250.9,172.2z"/>
		</g>
		<g>
			<polygon class="st2" points="240,124 186.2,124 186.2,82.4 218.2,82.4 			"/>
			<path class="st1" d="M240,125h-53.8c-0.6,0-1-0.4-1-1V82.4c0-0.6,0.4-1,1-1h32c0.4,0,0.7,0.2,0.9,0.5l21.9,41.7
				c0.2,0.3,0.2,0.7,0,1C240.7,124.8,240.4,125,240,125z M187.2,123h51.2l-20.8-39.7h-30.4V123z"/>
		</g>
		<path class="st3" d="M180.5,130.5v40.7h-41.1c5.2-9.6,8.1-20.6,8.1-32.3c0-37.9-30.8-68.7-68.7-68.7c-16.2,0-31,5.6-42.8,14.9
			V52.3h144.5v70.6V130.5z"/>
		<g>
			<path class="st1" d="M175.5,172.2h-41.1c-0.4,0-0.7-0.2-0.9-0.5s-0.2-0.7,0-1c5.2-9.7,8-20.8,8-31.9c0-37.3-30.4-67.7-67.7-67.7
				c-15.5,0-30.1,5.1-42.1,14.7c-0.3,0.2-0.7,0.3-1.1,0.1c-0.3-0.2-0.6-0.5-0.6-0.9V52.3c0-0.6,0.4-1,1-1h144.5c0.6,0,1,0.4,1,1
				v70.6c0,0.6-0.4,1-1,1s-1-0.4-1-1V53.3H32v29.8C44.1,74,58.5,69.2,73.8,69.2c38.4,0,69.7,31.3,69.7,69.7
				c0,10.9-2.6,21.7-7.4,31.3h38.4v-39.7c0-0.6,0.4-1,1-1s1,0.4,1,1v40.7C176.5,171.8,176,172.2,175.5,172.2z"/>
		</g>
		<g>
			<path class="st1" d="M165.5,161.7h-16.2c-0.3,0-0.5-0.2-0.5-0.5s0.2-0.5,0.5-0.5H165V62.8H92.1c-0.3,0-0.5-0.2-0.5-0.5
				s0.2-0.5,0.5-0.5h73.4c0.3,0,0.5,0.2,0.5,0.5v98.9C166,161.5,165.8,161.7,165.5,161.7z M41,67.8c-0.3,0-0.5-0.2-0.5-0.5v-5
				c0-0.3,0.2-0.5,0.5-0.5h14.6c0.3,0,0.5,0.2,0.5,0.5s-0.2,0.5-0.5,0.5H41.5v4.5C41.5,67.6,41.3,67.8,41,67.8z"/>
		</g>
		<g>
			<path class="st2" d="M228.7,205.3c-3,1.5-6.5,2.3-10.1,2.3c-12.7,0-23-10.3-23-23c0-0.9,0.1-1.8,0.2-2.7c0.5-4,1.9-7.6,4.2-10.7
				c4.2-5.8,11-9.6,18.7-9.6c7.7,0,14.5,3.8,18.7,9.6c2.2,3.1,3.7,6.7,4.2,10.7c0.1,0.9,0.2,1.8,0.2,2.7c0,5.8-2.1,11-5.6,15
				L228.7,205.3z"/>
			<path class="st1" d="M218.6,208.6c-13.2,0-24-10.8-24-24c0-0.9,0.1-1.9,0.2-2.8c0.5-4,2-7.9,4.3-11.2c4.5-6.3,11.8-10,19.5-10
				c7.7,0,15,3.7,19.5,10c2.4,3.3,3.9,7.2,4.3,11.2c0.1,0.9,0.2,1.8,0.2,2.8c0,5.8-2.1,11.3-5.8,15.7c-0.4,0.4-1,0.5-1.4,0.1
				c-0.4-0.4-0.5-1-0.1-1.4c3.5-4,5.4-9.1,5.4-14.4c0-0.9-0.1-1.7-0.2-2.5c-0.4-3.7-1.8-7.2-4-10.3c-4.1-5.7-10.8-9.2-17.8-9.2
				c-7.1,0-13.7,3.4-17.9,9.2c-2.2,3-3.6,6.6-4,10.3c-0.1,0.8-0.2,1.7-0.2,2.6c0,12.1,9.9,22,22,22c3.4,0,6.6-0.7,9.6-2.2
				c0.5-0.2,1.1,0,1.3,0.5c0.2,0.5,0,1.1-0.5,1.3C225.8,207.8,222.3,208.6,218.6,208.6z"/>
		</g>
		<polygon class="st4" points="197.4,119 197.4,87.4 224.1,87.4 240.7,119 		"/>
		<path class="st5" d="M222.6,199.1c-8,0-14.5-6.5-14.5-14.5s6.5-14.5,14.5-14.5c8,0,14.5,6.5,14.5,14.5S230.5,199.1,222.6,199.1z"
			/>
		<path class="st4" d="M210.5,135.8h-10.3c-1.5,0-2.8-1.2-2.8-2.8l0,0c0-1.5,1.2-2.8,2.8-2.8h10.3c1.5,0,2.8,1.2,2.8,2.8l0,0
			C213.3,134.5,212,135.8,210.5,135.8z"/>
		<g>
			<path class="st1" d="M243.5,167.2c-0.2,0-0.3-0.1-0.4-0.2c-5.6-7.9-14.8-12.6-24.5-12.6c-9.7,0-18.9,4.7-24.5,12.6
				c-0.2,0.2-0.5,0.3-0.7,0.1c-0.2-0.2-0.3-0.5-0.1-0.7c5.8-8.1,15.3-13,25.3-13c10,0,19.5,4.9,25.3,13c0.2,0.2,0.1,0.5-0.1,0.7
				C243.7,167.2,243.6,167.2,243.5,167.2z"/>
		</g>
		<g>
			<path class="st1" d="M218.6,200.1c-8.5,0-15.5-6.9-15.5-15.5s6.9-15.5,15.5-15.5s15.5,6.9,15.5,15.5S227.1,200.1,218.6,200.1z
				 M218.6,171.1c-7.4,0-13.5,6-13.5,13.5s6,13.5,13.5,13.5s13.5-6,13.5-13.5S226,171.1,218.6,171.1z"/>
		</g>
		<g>
			<path class="st1" d="M218.6,193.6c-4.9,0-9-4-9-9s4-9,9-9c1.7,0,3.4,0.5,4.9,1.4c0.2,0.1,0.3,0.5,0.1,0.7
				c-0.2,0.2-0.5,0.3-0.7,0.1c-1.3-0.8-2.8-1.3-4.3-1.3c-4.4,0-8,3.6-8,8s3.6,8,8,8s8-3.6,8-8c0-1.6-0.5-3.2-1.4-4.5
				c-0.2-0.2-0.1-0.5,0.1-0.7c0.2-0.2,0.5-0.1,0.7,0.1c1,1.5,1.6,3.3,1.6,5.1C227.5,189.6,223.5,193.6,218.6,193.6z"/>
		</g>
		<g>
			<path class="st1" d="M207,136.3h-10.3c-1.8,0-3.3-1.5-3.3-3.3s1.5-3.3,3.3-3.3H207c1.8,0,3.3,1.5,3.3,3.3S208.8,136.3,207,136.3z
				 M196.7,130.7c-1.3,0-2.3,1-2.3,2.3s1,2.3,2.3,2.3H207c1.3,0,2.3-1,2.3-2.3s-1-2.3-2.3-2.3H196.7z"/>
		</g>
		<g>
			<path class="st2" d="M38,197.6c-19.8-12.1-32.9-33.8-32.9-58.7c0-16.3,5.7-31.3,15.2-43.1c3.2-3.9,6.8-7.5,10.7-10.7
				c11.7-9.3,26.6-14.9,42.8-14.9c18.4,0,35.1,7.2,47.4,19c13.1,12.5,21.3,30.2,21.3,49.7c0,11.7-2.9,22.7-8.1,32.3
				c-2,3.8-4.4,7.4-7.1,10.7c-12.6,15.6-31.9,25.6-53.5,25.6c-10.1,0-19.8-2.2-28.4-6.1L38,197.6z"/>
			<path class="st1" d="M73.8,208.6c-10.1,0-19.8-2.1-28.9-6.2c-0.5-0.2-0.7-0.8-0.5-1.3s0.8-0.7,1.3-0.5c8.8,4,18.3,6.1,28,6.1
				c20.6,0,39.8-9.2,52.8-25.3c2.7-3.3,5-6.9,7-10.6c5.2-9.7,8-20.8,8-31.9c0-18.7-7.5-36.1-21-49c-12.6-12.1-29.2-18.7-46.7-18.7
				c-15.5,0-30.1,5.1-42.1,14.7c-3.9,3.1-7.4,6.6-10.6,10.5c-9.7,12-15,27.1-15,42.5c0,23.8,12.1,45.4,32.5,57.8
				c0.5,0.3,0.6,0.9,0.3,1.4s-0.9,0.6-1.4,0.3c-20.9-12.8-33.4-35-33.4-59.5c0-15.9,5.5-31.4,15.4-43.7c3.2-4,6.9-7.6,10.9-10.8
				c12.4-9.9,27.4-15.1,43.4-15.1c18,0,35.1,6.8,48.1,19.2c13.9,13.3,21.6,31.2,21.6,50.5c0,11.4-2.8,22.8-8.2,32.8
				c-2,3.8-4.5,7.5-7.2,10.9C114.8,199.1,95,208.6,73.8,208.6z"/>
		</g>
		<g>
			<path class="st1" d="M73.8,204.1c-36,0-65.2-29.3-65.2-65.2c0-3.5,0.3-7.1,0.9-10.6c0-0.3,0.3-0.5,0.6-0.4c0.3,0,0.5,0.3,0.4,0.6
				c-0.6,3.4-0.9,6.9-0.9,10.4c0,35.4,28.8,64.2,64.2,64.2c19.5,0,37.8-8.7,50-24c2.5-3.1,4.8-6.5,6.6-10c4.9-9.2,7.5-19.7,7.5-30.2
				c0-35.4-28.8-64.2-64.2-64.2c-14.7,0-28.5,4.8-40,14c-3.7,2.9-7.1,6.3-10,10c-5.3,6.6-9.3,14.1-11.6,22.3
				c-0.1,0.3-0.4,0.4-0.6,0.3c-0.3-0.1-0.4-0.4-0.3-0.6c2.4-8.3,6.4-16,11.8-22.7c3-3.7,6.4-7.1,10.2-10.1
				c11.6-9.3,25.7-14.2,40.6-14.2c36,0,65.2,29.2,65.2,65.2c0,10.7-2.7,21.3-7.7,30.7c-1.9,3.6-4.2,7-6.7,10.2
				C112.1,195.2,93.6,204.1,73.8,204.1z"/>
		</g>
		<path class="st5" d="M12.7,120.8c2.4-8.2,6.4-15.8,11.7-22.5c3-3.7,6.4-7.1,10.1-10C46.1,79,60,74.2,74.8,74.2
			c35.7,0,64.7,29,64.7,64.7c0,10.6-2.6,21.2-7.6,30.5c-1.9,3.6-4.1,7-6.7,10.1c-12.4,15.4-30.7,24.2-50.4,24.2
			c-35.7,0-64.7-29-64.7-64.7c0-3.5,0.3-7,0.9-10.5L12.7,120.8z"/>
		<g>
			<path class="st2" d="M113.7,184.6c-11,9.6-25.1,15-39.9,15c-33.5,0-60.7-27.2-60.7-60.7c0-14,4.6-27.2,13.4-38.1
				c2.8-3.5,6-6.7,9.5-9.4c10.8-8.6,23.9-13.2,37.8-13.2c33.5,0,60.7,27.2,60.7,60.7c0,10-2.5,19.8-7.1,28.6
				c-1.8,3.3-3.9,6.5-6.3,9.5c-0.8,1-1.6,1.9-2.4,2.8L113.7,184.6z"/>
			<path class="st1" d="M73.8,200.6c-34,0-61.7-27.7-61.7-61.7c0-14.3,4.7-27.7,13.7-38.7c2.9-3.5,6.1-6.8,9.6-9.6
				c11-8.8,24.3-13.4,38.4-13.4c34,0,61.7,27.7,61.7,61.7c0,10.1-2.5,20.2-7.3,29c-1.8,3.4-3.9,6.6-6.4,9.6c-0.8,1-1.6,1.9-2.4,2.8
				c-0.4,0.4-1,0.4-1.4,0.1c-0.4-0.4-0.4-1-0.1-1.4c0.8-0.9,1.6-1.8,2.3-2.7c2.3-2.9,4.4-6,6.2-9.3c4.6-8.6,7-18.3,7-28.1
				c0-32.9-26.8-59.7-59.7-59.7c-13.7,0-26.5,4.5-37.2,13c-3.4,2.7-6.6,5.8-9.3,9.3c-8.6,10.7-13.2,23.7-13.2,37.5
				c0,32.9,26.8,59.7,59.7,59.7c14.5,0,28.4-5.2,39.3-14.7c0.4-0.4,1-0.3,1.4,0.1c0.4,0.4,0.3,1-0.1,1.4
				C103.2,195.2,88.8,200.6,73.8,200.6z"/>
		</g>
		<g>
			<circle class="st4" cx="73.8" cy="87.4" r="3.6"/>
			<path class="st1" d="M73.8,91.5c-2.3,0-4.1-1.9-4.1-4.1s1.9-4.1,4.1-4.1s4.1,1.9,4.1,4.1S76.1,91.5,73.8,91.5z M73.8,84.2
				c-1.7,0-3.1,1.4-3.1,3.1s1.4,3.1,3.1,3.1s3.1-1.4,3.1-3.1S75.5,84.2,73.8,84.2z"/>
		</g>
		<g>
			<circle class="st4" cx="73.8" cy="190.4" r="3.6"/>
			<path class="st1" d="M73.8,194.5c-2.3,0-4.1-1.9-4.1-4.1s1.9-4.1,4.1-4.1s4.1,1.9,4.1,4.1S76.1,194.5,73.8,194.5z M73.8,187.3
				c-1.7,0-3.1,1.4-3.1,3.1s1.4,3.1,3.1,3.1s3.1-1.4,3.1-3.1S75.5,187.3,73.8,187.3z"/>
		</g>
		<g>
			<circle class="st4" cx="125.7" cy="139.1" r="3.6"/>
			<path class="st1" d="M125.7,143.2c-2.3,0-4.1-1.9-4.1-4.1s1.9-4.1,4.1-4.1s4.1,1.9,4.1,4.1S127.9,143.2,125.7,143.2z M125.7,136
				c-1.7,0-3.1,1.4-3.1,3.1s1.4,3.1,3.1,3.1s3.1-1.4,3.1-3.1S127.4,136,125.7,136z"/>
		</g>
		<g>
			<path class="st1" d="M73.8,146.2c-2,0-3.8-0.8-5.2-2.2c-0.4-0.4-0.4-1,0-1.4c0.4-0.4,1-0.4,1.4,0c1,1,2.3,1.6,3.8,1.6
				c2.9,0,5.3-2.4,5.3-5.3s-2.4-5.3-5.3-5.3s-5.3,2.4-5.3,5.3c0,0.6-0.4,1-1,1s-1-0.4-1-1c0-4,3.3-7.3,7.3-7.3s7.3,3.3,7.3,7.3
				S77.8,146.2,73.8,146.2z"/>
		</g>
		<g>
			<circle class="st4" cx="21.7" cy="139.2" r="3.6"/>
			<path class="st1" d="M21.7,143.3c-2.3,0-4.1-1.9-4.1-4.1s1.9-4.1,4.1-4.1s4.1,1.9,4.1,4.1S24,143.3,21.7,143.3z M21.7,136
				c-1.7,0-3.1,1.4-3.1,3.1s1.4,3.1,3.1,3.1s3.1-1.4,3.1-3.1S23.4,136,21.7,136z"/>
		</g>
		<g>
			<path class="st1" d="M73.8,133.6c-0.6,0-1-0.4-1-1V98.3c0-0.6,0.4-1,1-1s1,0.4,1,1v34.2C74.8,133.1,74.3,133.6,73.8,133.6z"/>
		</g>
		<g>
			<path class="st1" d="M100.5,165.6c-0.3,0-0.5-0.1-0.7-0.3L78,143.5c-0.4-0.4-0.4-1,0-1.4s1-0.4,1.4,0l21.8,21.8
				c0.4,0.4,0.4,1,0,1.4C101,165.5,100.8,165.6,100.5,165.6z"/>
		</g>
		<g>
			<path class="st0" d="M47.9,96.9c-0.9,0-1.8-0.5-2.3-1.3c-0.7-1.3-0.3-2.9,1-3.6c0.4-0.2,0.8-0.4,1.3-0.4c0.9,0,1.8,0.5,2.3,1.3
				c0.4,0.6,0.4,1.3,0.3,2s-0.6,1.2-1.2,1.6C48.8,96.8,48.3,96.9,47.9,96.9z"/>
			<g>
				<path class="st1" d="M47.9,97.4c-1.1,0-2.2-0.6-2.7-1.6c-0.4-0.7-0.5-1.6-0.3-2.4c0.2-0.8,0.7-1.5,1.5-1.9
					c0.5-0.3,1-0.4,1.6-0.4c1.1,0,2.2,0.6,2.7,1.6c0.4,0.7,0.5,1.6,0.3,2.4c-0.2,0.8-0.7,1.5-1.5,1.9C49,97.3,48.4,97.4,47.9,97.4z
					 M47.9,92.2c-0.4,0-0.7,0.1-1.1,0.3c-0.5,0.3-0.8,0.7-1,1.3c-0.1,0.5-0.1,1.1,0.2,1.6c0.6,1,1.9,1.3,2.9,0.8
					c0.5-0.3,0.8-0.7,1-1.3c0.1-0.5,0.1-1.1-0.2-1.6C49.3,92.6,48.6,92.2,47.9,92.2z"/>
			</g>
		</g>
		<g>
			<path class="st0" d="M28.9,115.9c-0.5,0-0.9-0.1-1.3-0.4c-1.3-0.7-1.7-2.3-1-3.6c0.5-0.8,1.3-1.3,2.3-1.3c0.5,0,0.9,0.1,1.3,0.4
				c0.6,0.3,1,0.9,1.2,1.6c0.2,0.7,0.1,1.4-0.3,2C30.7,115.4,29.9,115.9,28.9,115.9z"/>
			<g>
				<path class="st1" d="M28.9,116.4c-0.5,0-1.1-0.1-1.6-0.4c-1.5-0.9-2-2.8-1.1-4.3c0.6-1,1.6-1.6,2.7-1.6c0.5,0,1.1,0.1,1.6,0.4
					c0.7,0.4,1.2,1.1,1.5,1.9c0.2,0.8,0.1,1.6-0.3,2.4C31.1,115.8,30,116.4,28.9,116.4z M28.9,111.2c-0.8,0-1.5,0.4-1.8,1.1
					c-0.6,1-0.2,2.3,0.8,2.9c1,0.6,2.3,0.2,2.9-0.8c0.3-0.5,0.4-1.1,0.2-1.6c-0.1-0.5-0.5-1-1-1.3C29.7,111.3,29.3,111.2,28.9,111.2
					z"/>
			</g>
		</g>
		<g>
			<path class="st0" d="M29,167.7c-0.9,0-1.8-0.5-2.3-1.3c-0.7-1.3-0.3-2.9,1-3.6c0.4-0.2,0.8-0.4,1.3-0.4c0.9,0,1.8,0.5,2.3,1.3
				c0.7,1.3,0.3,2.9-1,3.6C29.9,167.6,29.4,167.7,29,167.7z"/>
			<g>
				<path class="st1" d="M29,168.2c-1.1,0-2.2-0.6-2.7-1.6c-0.9-1.5-0.3-3.4,1.1-4.3c0.5-0.3,1-0.4,1.6-0.4c1.1,0,2.2,0.6,2.7,1.6
					c0.4,0.7,0.5,1.6,0.3,2.4c-0.2,0.8-0.7,1.5-1.5,1.9C30.1,168.1,29.5,168.2,29,168.2z M29,163c-0.4,0-0.7,0.1-1.1,0.3
					c-1,0.6-1.4,1.9-0.8,2.9c0.6,1,1.9,1.3,2.9,0.8c0.5-0.3,0.8-0.7,1-1.3c0.1-0.5,0.1-1.1-0.2-1.6C30.4,163.4,29.7,163,29,163z"/>
			</g>
		</g>
		<g>
			<path class="st0" d="M48,186.7c-0.5,0-0.9-0.1-1.3-0.4c-0.6-0.3-1-0.9-1.2-1.6c-0.2-0.7-0.1-1.4,0.3-2c0.5-0.8,1.3-1.3,2.3-1.3
				c0.5,0,0.9,0.1,1.3,0.4c0.6,0.3,1,0.9,1.2,1.6c0.2,0.7,0.1,1.4-0.3,2C49.8,186.2,48.9,186.7,48,186.7z"/>
			<g>
				<path class="st1" d="M48,187.2c-0.5,0-1.1-0.1-1.6-0.4c-0.7-0.4-1.2-1.1-1.5-1.9c-0.2-0.8-0.1-1.7,0.3-2.4
					c0.6-1,1.6-1.6,2.7-1.6c0.5,0,1.1,0.1,1.6,0.4c0.7,0.4,1.2,1.1,1.5,1.9c0.2,0.8,0.1,1.7-0.3,2.4C50.1,186.6,49.1,187.2,48,187.2
					z M48,181.9c-0.8,0-1.5,0.4-1.8,1.1c-0.3,0.5-0.4,1.1-0.2,1.6c0.1,0.5,0.5,1,1,1.3c1,0.6,2.3,0.2,2.9-0.8
					c0.3-0.5,0.4-1.1,0.2-1.6c-0.1-0.5-0.5-1-1-1.3C48.7,182,48.3,181.9,48,181.9z"/>
			</g>
		</g>
		<g>
			<path class="st0" d="M99.8,186.6c-0.9,0-1.8-0.5-2.3-1.3c-0.3-0.6-0.4-1.3-0.3-2c0.2-0.7,0.6-1.2,1.2-1.6
				c0.4-0.2,0.8-0.4,1.3-0.4c0.9,0,1.8,0.5,2.3,1.3c0.4,0.6,0.4,1.3,0.3,2c-0.2,0.7-0.6,1.2-1.2,1.6
				C100.7,186.5,100.2,186.6,99.8,186.6z"/>
			<g>
				<path class="st1" d="M99.8,187.1c-1.1,0-2.2-0.6-2.7-1.6c-0.4-0.7-0.5-1.6-0.3-2.4c0.2-0.8,0.7-1.5,1.5-1.9
					c0.5-0.3,1-0.4,1.6-0.4c1.1,0,2.2,0.6,2.7,1.6c0.4,0.7,0.5,1.6,0.3,2.4c-0.2,0.8-0.7,1.5-1.5,1.9
					C100.9,187,100.3,187.1,99.8,187.1z M99.8,181.9c-0.4,0-0.7,0.1-1.1,0.3c-0.5,0.3-0.8,0.7-1,1.3c-0.1,0.5-0.1,1.1,0.2,1.6
					c0.6,1,1.9,1.3,2.9,0.8c0.5-0.3,0.8-0.7,1-1.3c0.1-0.5,0.1-1.1-0.2-1.6C101.2,182.3,100.5,181.9,99.8,181.9z"/>
			</g>
		</g>
		<g>
			<path class="st0" d="M118.7,167.7c-0.5,0-0.9-0.1-1.3-0.4c-1.3-0.7-1.7-2.3-1-3.6c0.5-0.8,1.3-1.3,2.3-1.3c0.5,0,0.9,0.1,1.3,0.4
				c1.3,0.7,1.7,2.3,1,3.6C120.5,167.2,119.7,167.7,118.7,167.7z"/>
			<g>
				<path class="st1" d="M118.7,168.2c-0.5,0-1.1-0.1-1.6-0.4c-1.5-0.9-2-2.8-1.1-4.3c0.6-1,1.6-1.6,2.7-1.6c0.5,0,1.1,0.1,1.6,0.4
					c0.7,0.4,1.2,1.1,1.5,1.9c0.2,0.8,0.1,1.6-0.3,2.4C120.9,167.6,119.8,168.2,118.7,168.2z M118.7,162.9c-0.8,0-1.5,0.4-1.8,1.1
					c-0.6,1-0.2,2.3,0.8,2.9c1,0.6,2.3,0.2,2.9-0.8c0.3-0.5,0.4-1.1,0.2-1.6c-0.1-0.5-0.5-1-1-1.3
					C119.5,163,119.1,162.9,118.7,162.9z"/>
			</g>
		</g>
		<g>
			<path class="st0" d="M118.7,115.8c-0.9,0-1.8-0.5-2.3-1.3c-0.4-0.6-0.4-1.3-0.3-2c0.2-0.7,0.6-1.2,1.2-1.6
				c0.4-0.2,0.8-0.4,1.3-0.4c0.9,0,1.8,0.5,2.3,1.3c0.3,0.6,0.4,1.3,0.3,2c-0.2,0.7-0.6,1.2-1.2,1.6
				C119.6,115.7,119.1,115.8,118.7,115.8z"/>
			<g>
				<path class="st1" d="M118.7,116.3c-1.1,0-2.2-0.6-2.7-1.6c-0.4-0.7-0.5-1.6-0.3-2.4c0.2-0.8,0.7-1.5,1.5-1.9
					c0.5-0.3,1-0.4,1.6-0.4c1.1,0,2.2,0.6,2.7,1.6c0.4,0.7,0.5,1.6,0.3,2.4c-0.2,0.8-0.7,1.5-1.5,1.9
					C119.8,116.2,119.2,116.3,118.7,116.3z M118.7,111.1c-0.4,0-0.7,0.1-1.1,0.3c-0.5,0.3-0.8,0.7-1,1.3c-0.1,0.5-0.1,1.1,0.2,1.6
					c0.6,1,1.9,1.3,2.9,0.8c0.5-0.3,0.8-0.7,1-1.3c0.1-0.5,0.1-1.1-0.2-1.6C120.1,111.5,119.4,111.1,118.7,111.1z"/>
			</g>
		</g>
		<g>
			<path class="st0" d="M99.7,96.9c-0.5,0-0.9-0.1-1.3-0.4c-0.6-0.3-1-0.9-1.2-1.6s-0.1-1.4,0.3-2c0.5-0.8,1.3-1.3,2.3-1.3
				c0.5,0,0.9,0.1,1.3,0.4c1.3,0.7,1.7,2.3,1,3.6C101.5,96.4,100.6,96.9,99.7,96.9z"/>
			<g>
				<path class="st1" d="M99.7,97.4c-0.5,0-1.1-0.1-1.6-0.4c-0.7-0.4-1.2-1.1-1.5-1.9c-0.2-0.8-0.1-1.6,0.3-2.4
					c0.6-1,1.6-1.6,2.7-1.6c0.5,0,1.1,0.1,1.6,0.4c1.5,0.9,2,2.8,1.1,4.3C101.9,96.8,100.8,97.4,99.7,97.4z M99.7,92.1
					c-0.8,0-1.5,0.4-1.8,1.1c-0.3,0.5-0.4,1.1-0.2,1.6c0.1,0.5,0.5,1,1,1.3c1,0.6,2.3,0.2,2.9-0.8c0.6-1,0.2-2.3-0.8-2.9
					C100.4,92.2,100.1,92.1,99.7,92.1z"/>
			</g>
		</g>
		<g>
			<path class="st1" d="M179.5,208.6H112c-0.6,0-1-0.4-1-1s0.4-1,1-1h67.5c0.6,0,1,0.4,1,1S180.1,208.6,179.5,208.6z"/>
		</g>
		<g>
			<path class="st1" d="M218.6,208.6h-29.8c-0.6,0-1-0.4-1-1s0.4-1,1-1h29.8c0.6,0,1,0.4,1,1S219.1,208.6,218.6,208.6z"/>
		</g>
		<g>
			<path class="st1" d="M73.8,208.6H18.1c-0.6,0-1-0.4-1-1s0.4-1,1-1h55.7c0.6,0,1,0.4,1,1S74.3,208.6,73.8,208.6z"/>
		</g>
		<g>
			<path class="st1" d="M213.3,215.4h-79.1c-0.6,0-1-0.4-1-1s0.4-1,1-1h79.1c0.6,0,1,0.4,1,1S213.8,215.4,213.3,215.4z"/>
		</g>
		<g>
			<path class="st1" d="M109.9,215.4H68.8c-0.6,0-1-0.4-1-1s0.4-1,1-1h41.1c0.6,0,1,0.4,1,1S110.4,215.4,109.9,215.4z"/>
		</g>
		<g>
			<path class="st1" d="M59,215.4H29.9c-0.6,0-1-0.4-1-1s0.4-1,1-1H59c0.6,0,1,0.4,1,1S59.6,215.4,59,215.4z"/>
		</g>
		<g>
			<path class="st1" d="M237.2,119.5h-43.3c-0.3,0-0.5-0.2-0.5-0.5V87.4c0-0.3,0.2-0.5,0.5-0.5h26.7c0.2,0,0.4,0.1,0.4,0.3
				l16.6,31.7c0.1,0.2,0.1,0.3,0,0.5S237.4,119.5,237.2,119.5z M194.4,118.5h42l-16.1-30.7h-25.9V118.5z"/>
		</g>
		<g>
			<path class="st1" d="M240,125h-53.8c-0.6,0-1-0.4-1-1V82.4c0-0.6,0.4-1,1-1h32c0.4,0,0.7,0.2,0.9,0.5l21.9,41.7
				c0.2,0.3,0.2,0.7,0,1C240.7,124.8,240.4,125,240,125z M187.2,123h51.2l-20.8-39.7h-30.4V123z"/>
		</g>
	</g>
	<g>
		<path class="st1" d="M175.5,235.9c-1.6,0-3-1.3-3-3s1.3-3,3-3s3,1.3,3,3S177.1,235.9,175.5,235.9z M175.5,231c-1.1,0-2,0.9-2,2
			c0,1.1,0.9,2,2,2s2-0.9,2-2C177.5,231.9,176.6,231,175.5,231z"/>
	</g>
	<g>
		<path class="st5" d="M199.9,65.3c-1.6,0-3-1.3-3-3s1.3-3,3-3s3,1.3,3,3S201.5,65.3,199.9,65.3z M199.9,60.3c-1.1,0-2,0.9-2,2
			s0.9,2,2,2s2-0.9,2-2S201,60.3,199.9,60.3z"/>
	</g>
	<g>
		<path class="st1" d="M57.9,32.2c-0.1,0-0.3-0.1-0.4-0.1c-0.1-0.1-0.2-0.3-0.1-0.5l0.8-2.6l-0.8-2.6c-0.1-0.2,0-0.4,0.1-0.5
			c0.1-0.1,0.3-0.2,0.5-0.1l2.6,0.8l2.6-0.8c0.2-0.1,0.4,0,0.5,0.1c0.1,0.1,0.2,0.3,0.1,0.5L63,29l0.8,2.6c0.1,0.2,0,0.4-0.1,0.5
			c-0.1,0.1-0.3,0.2-0.5,0.1l-1-0.3c-0.3-0.1-0.4-0.4-0.3-0.6c0.1-0.3,0.4-0.4,0.6-0.3l0.1,0L62,29.1c0-0.1,0-0.2,0-0.3l0.5-1.8
			l-1.8,0.5c-0.1,0-0.2,0-0.3,0L58.6,27l0.5,1.8c0,0.1,0,0.2,0,0.3l-0.5,1.8l1.8-0.5c0.3-0.1,0.5,0.1,0.6,0.3
			c0.1,0.3-0.1,0.5-0.3,0.6L58,32.2C58,32.2,57.9,32.2,57.9,32.2z"/>
	</g>
	<g>
		<path class="st3" d="M216,230.9c0,0-0.1,0-0.1,0l-1-0.3c-0.3-0.1-0.4-0.4-0.3-0.6c0.1-0.3,0.3-0.4,0.6-0.3l0.1,0l-0.5-1.8
			c0-0.1,0-0.2,0-0.3l0.5-1.8l-1.8,0.5c-0.1,0-0.2,0-0.3,0l-1.8-0.5l0.5,1.8c0,0.1,0,0.2,0,0.3l-0.5,1.8l1.8-0.5
			c0.3-0.1,0.5,0.1,0.6,0.3c0.1,0.3-0.1,0.5-0.3,0.6l-2.7,0.8c-0.2,0.1-0.4,0-0.5-0.1c-0.1-0.1-0.2-0.3-0.1-0.5l0.8-2.6l-0.8-2.6
			c-0.1-0.2,0-0.4,0.1-0.5c0.1-0.1,0.3-0.2,0.5-0.1l2.6,0.8l2.6-0.8c0.2-0.1,0.4,0,0.5,0.1s0.2,0.3,0.1,0.5l-0.8,2.6l0.8,2.6
			c0.1,0.2,0,0.4-0.1,0.5C216.2,230.8,216.1,230.9,216,230.9z"/>
	</g>
	<g>
		<g>
			<path class="st5" d="M125.7,227.4c-0.3,0-0.5-0.2-0.5-0.5v-2.4c0-0.3,0.2-0.5,0.5-0.5s0.5,0.2,0.5,0.5v2.4
				C126.2,227.1,125.9,227.4,125.7,227.4z"/>
		</g>
		<g>
			<path class="st5" d="M125.7,233.2c-0.3,0-0.5-0.2-0.5-0.5v-2.4c0-0.3,0.2-0.5,0.5-0.5s0.5,0.2,0.5,0.5v2.4
				C126.2,233,125.9,233.2,125.7,233.2z"/>
		</g>
		<g>
			<path class="st5" d="M129.8,229.1h-2.4c-0.3,0-0.5-0.2-0.5-0.5s0.2-0.5,0.5-0.5h2.4c0.3,0,0.5,0.2,0.5,0.5
				S130.1,229.1,129.8,229.1z"/>
		</g>
		<g>
			<path class="st5" d="M123.9,229.1h-2.4c-0.3,0-0.5-0.2-0.5-0.5s0.2-0.5,0.5-0.5h2.4c0.3,0,0.5,0.2,0.5,0.5
				S124.2,229.1,123.9,229.1z"/>
		</g>
	</g>
	<g>
		<g>
			<path class="st3" d="M116.1,25c-0.3,0-0.5-0.2-0.5-0.5v-2.4c0-0.3,0.2-0.5,0.5-0.5s0.5,0.2,0.5,0.5v2.4
				C116.6,24.8,116.4,25,116.1,25z"/>
		</g>
		<g>
			<path class="st3" d="M116.1,30.9c-0.3,0-0.5-0.2-0.5-0.5V28c0-0.3,0.2-0.5,0.5-0.5s0.5,0.2,0.5,0.5v2.4
				C116.6,30.7,116.4,30.9,116.1,30.9z"/>
		</g>
		<g>
			<path class="st3" d="M120.3,26.8h-2.4c-0.3,0-0.5-0.2-0.5-0.5s0.2-0.5,0.5-0.5h2.4c0.3,0,0.5,0.2,0.5,0.5S120.5,26.8,120.3,26.8z
				"/>
		</g>
		<g>
			<path class="st3" d="M114.4,26.8H112c-0.3,0-0.5-0.2-0.5-0.5s0.2-0.5,0.5-0.5h2.4c0.3,0,0.5,0.2,0.5,0.5S114.7,26.8,114.4,26.8z"
				/>
		</g>
	</g>
	<g>
		<g>
			<path class="st4" d="M59,230c-0.3,0-0.5-0.2-0.5-0.5v-2.4c0-0.3,0.2-0.5,0.5-0.5s0.5,0.2,0.5,0.5v2.4C59.5,229.8,59.3,230,59,230
				z"/>
		</g>
		<g>
			<path class="st4" d="M59,235.9c-0.3,0-0.5-0.2-0.5-0.5V233c0-0.3,0.2-0.5,0.5-0.5s0.5,0.2,0.5,0.5v2.4
				C59.5,235.7,59.3,235.9,59,235.9z"/>
		</g>
		<g>
			<path class="st4" d="M63.1,231.8h-2.4c-0.3,0-0.5-0.2-0.5-0.5s0.2-0.5,0.5-0.5h2.4c0.3,0,0.5,0.2,0.5,0.5S63.4,231.8,63.1,231.8z
				"/>
		</g>
		<g>
			<path class="st4" d="M57.3,231.8h-2.4c-0.3,0-0.5-0.2-0.5-0.5s0.2-0.5,0.5-0.5h2.4c0.3,0,0.5,0.2,0.5,0.5S57.6,231.8,57.3,231.8z
				"/>
		</g>
	</g>
</g>
</svg>
