<?xml version="1.0" encoding="utf-8"?>
<!-- Generator: Adobe Illustrator 22.1.0, SVG Export Plug-In . SVG Version: 6.00 Build 0)  -->
<svg version="1.1" id="Layer_1" xmlns="http://www.w3.org/2000/svg" xmlns:xlink="http://www.w3.org/1999/xlink" x="0px" y="0px"
	 viewBox="0 0 256 256" style="enable-background:new 0 0 256 256;" xml:space="preserve">
<style type="text/css">
	.st0{fill:#9FEAFF;}
	.st1{fill:#48386A;}
	.st2{fill:#FFFFFF;}
</style>
<g>
	<path class="st0" d="M221.9,183.9c-13.5,12.5-30.4,21.4-49.1,25.2h0c-1.8,0.4-3.6,0.7-5.5,1c-4.9,0.7-9.9,1.1-15,1.1
		c-5,0-10-0.4-14.8-1.1c3.8-8.4,5.9-17.7,5.9-27.5c0-17-6.3-32.5-16.7-44.3c-1.3-1.5-2.7-2.9-4.1-4.3c-1.3-1.3-2.7-2.5-4.1-3.6
		c-11.5-9.3-26.2-14.9-42.1-14.9c-9.1,0-17.8,1.8-25.8,5.1c-0.5-3.9-0.7-7.9-0.7-11.9c0-1,0-2,0.1-3c0.1-1.9,0.2-3.9,0.3-5.8
		C53.9,58,82.7,23.2,121.6,11c1.6-0.5,3.3-1,4.9-1.4c8.2-2.1,16.9-3.3,25.8-3.3c0.5,0,1.1,0,1.6,0c1.8,0,3.6,0.1,5.5,0.2
		c53.3,3.6,95.3,48,95.3,102.2c0,8.3-1,16.4-2.9,24.2c-0.4,1.8-0.9,3.5-1.4,5.3c-4.2,13.9-11.2,26.6-20.5,37.3L221.9,183.9z"/>
	<g>
		<path class="st1" d="M148.3,212.2c-5,0-10.1-0.4-14.9-1.1c-0.3,0-0.6-0.2-0.7-0.5c-0.2-0.3-0.2-0.6,0-0.9
			c3.9-8.5,5.8-17.6,5.8-27.1c0-16.1-5.9-31.6-16.5-43.7c-1.3-1.5-2.7-2.9-4-4.2c-1.2-1.2-2.6-2.4-4-3.6
			c-11.7-9.5-26.4-14.7-41.5-14.7c-8.8,0-17.3,1.7-25.4,5.1c-0.3,0.1-0.6,0.1-0.9-0.1c-0.3-0.2-0.5-0.4-0.5-0.7c-0.5-4-0.7-8-0.7-12
			c0-1,0-2.1,0.1-3.1c0.1-1.9,0.2-3.9,0.3-5.9c1.8-20.6,9.6-40,22.6-56.1c12.9-15.9,29.9-27.5,49.4-33.6c1.7-0.5,3.4-1,5-1.4
			c8.5-2.2,17.2-3.3,26-3.3c0.6,0,1.1,0,1.7,0c1.7,0,3.5,0.1,5.5,0.2c54,3.7,96.3,49,96.3,103.2c0,8.3-1,16.5-2.9,24.4
			c-0.4,1.7-0.9,3.4-1.4,5.3c-4.2,13.9-11.1,26.6-20.7,37.7c-0.4,0.4-1,0.5-1.4,0.1c-0.4-0.4-0.5-1-0.1-1.4
			c9.4-10.9,16.2-23.3,20.3-37c0.6-1.9,1-3.6,1.4-5.2c1.9-7.8,2.9-15.8,2.9-23.9c0-53.1-41.5-97.6-94.4-101.2
			c-1.9-0.1-3.7-0.2-5.4-0.2c-0.6,0-1.1,0-1.6,0c-8.6,0-17.2,1.1-25.5,3.2c-1.6,0.4-3.2,0.9-4.9,1.4c-39.4,12.4-67.1,46.9-70.6,88
			c-0.2,1.9-0.3,3.8-0.3,5.7c0,1-0.1,2-0.1,3c0,3.5,0.2,7,0.5,10.5c7.9-3.1,16.3-4.7,24.9-4.7c15.5,0,30.7,5.4,42.8,15.1
			c1.5,1.2,2.9,2.4,4.2,3.7c1.4,1.3,2.8,2.8,4.1,4.3c11,12.4,17,28.4,17,45c0,9.3-1.8,18.3-5.5,26.7c9.2,1.2,19,1.2,28.2-0.2
			c1.8-0.3,3.6-0.6,5.4-0.9c0,0,0,0,0.1,0c18.1-3.7,34.9-12.3,48.6-25c0.4-0.4,1-0.4,1.4,0.1c0.4,0.4,0.4,1-0.1,1.4
			c-13.9,12.9-31.1,21.7-49.6,25.5c0,0,0,0-0.1,0c-1.9,0.4-3.6,0.7-5.5,1C158.5,211.8,153.4,212.2,148.3,212.2z"/>
	</g>
	<g>
		<path class="st2" d="M124.9,31.9c-1.3,7.5-9.3,11.6-14.6,17.1c-6,6.3-8.7,15.5-7,24c0.3,1.7,0.9,3.5,0.7,5.2
			c-0.2,1.7-1.4,3.5-3.2,3.7c-2.4,0.3-4.2-2.4-6.6-2.6c-1.4-0.1-2.8,0.6-4,1.3c-2.6,1.5-5.1,3-7.7,4.5c-2.3,1.3-4.5,2.7-6.8,4
			c-5,2.9-10.1,5.8-15.2,8.6c-3,1.7-6.1,3.4-9.1,5.1c-1.8,1-3.6,2-5.5,2.8c0.1-1.9,0.2-3.9,0.3-5.8C49.9,58,78.7,23.2,117.6,11
			c1.6-0.5,3.3-1,4.9-1.4c0.1,0.4,0.1,0.9,0.2,1.3c0.6,4.7,1.3,9.4,1.9,14.1C125,27.3,125.3,29.6,124.9,31.9z"/>
		<path class="st1" d="M46,106.7c-0.2,0-0.4-0.1-0.6-0.2c-0.3-0.2-0.4-0.5-0.4-0.8c0.1-2,0.2-3.9,0.3-5.9c1.8-20.6,9.6-40,22.6-56.1
			c12.9-15.9,29.9-27.5,49.4-33.6c1.7-0.5,3.4-1,5-1.4c0.3-0.1,0.6,0,0.8,0.1c0.2,0.1,0.4,0.4,0.4,0.7c0.1,0.4,0.1,0.8,0.2,1.2
			l2,14.2c0.3,2.2,0.7,4.7,0.2,7.2c0,0,0,0,0,0c-1,5.7-5.5,9.4-9.8,13.1c-1.7,1.5-3.5,3-5.1,4.6c-5.8,6.1-8.3,14.9-6.7,23.1
			c0.1,0.3,0.1,0.6,0.2,0.9c0.3,1.5,0.7,3,0.5,4.6c-0.3,2.1-1.7,4.3-4,4.6c-1.6,0.2-3-0.7-4.2-1.4c-0.9-0.6-1.7-1.1-2.6-1.2
			c-1.1-0.1-2.2,0.5-3.4,1.2L83,86.1c-2.3,1.3-4.5,2.7-6.8,4c-5.3,3.1-10.6,6.1-15.2,8.6c-3,1.7-6.1,3.4-9.1,5.1
			c-1.9,1.1-3.7,2.1-5.6,2.8C46.2,106.7,46.1,106.7,46,106.7z M121.7,10.9c-1.2,0.3-2.5,0.7-3.8,1.1c-39.4,12.4-67.1,46.9-70.6,88
			c-0.1,1.4-0.2,2.8-0.3,4.2c1.3-0.6,2.6-1.3,3.9-2.1c3-1.7,6.1-3.4,9.1-5.1c4.6-2.6,9.9-5.6,15.2-8.6c2.3-1.3,4.5-2.6,6.8-4
			l7.7-4.5c1.2-0.7,2.8-1.6,4.6-1.5c1.3,0.1,2.5,0.8,3.5,1.5c1.1,0.7,2,1.2,2.9,1.1c1.3-0.1,2.1-1.6,2.3-2.9
			c0.1-1.3-0.1-2.6-0.4-3.9c-0.1-0.3-0.1-0.6-0.2-1c-1.7-8.8,1-18.4,7.2-24.9c1.6-1.7,3.4-3.2,5.2-4.7c4.3-3.6,8.3-6.9,9.1-11.9
			c0.4-2.2,0-4.5-0.2-6.6L121.7,10.9C121.7,10.9,121.7,10.9,121.7,10.9z M124.9,31.9L124.9,31.9L124.9,31.9z"/>
	</g>
	<g>
		<path class="st1" d="M46.3,100.4c-0.1,0-0.2,0-0.3-0.1c-0.2-0.1-0.2-0.3-0.2-0.5C47.5,79.3,55.3,60,68.3,44
			c12.8-15.8,29.8-27.4,49.1-33.4c0.1,0,0.3,0,0.4,0.1c0.1,0.1,0.2,0.2,0.2,0.3l2,14.7c0.3,1.9,0.5,3.9,0.3,5.5
			c-0.6,3.6-4,6.5-7.9,9.7l-0.3,0.2c-1.8,1.5-3.6,3-5.2,4.8c-1,1-1.9,2.1-2.7,3.3c-0.2,0.2-0.5,0.3-0.7,0.1
			c-0.2-0.2-0.3-0.5-0.1-0.7c0.9-1.2,1.8-2.3,2.8-3.4c1.7-1.8,3.5-3.3,5.3-4.8l0.3-0.2c3.8-3.1,7-5.8,7.5-9.1c0.2-1.5,0-3.3-0.3-5.2
			l-1.9-14.1C78.2,24.2,50.7,58.3,46.9,99c0.6-0.3,1.2-0.7,1.8-1l11.2-6.3c4.3-2.4,8.7-4.9,13-7.4c2.1-1.2,4.3-2.5,6.4-3.7l8.1-4.8
			c1.5-0.9,4.1-2.4,7.4-2.1c1.1,0.1,2.1,0.4,3.1,0.9c0-0.2-0.1-0.3-0.1-0.5c-1.2-6.2-0.6-12.8,1.9-18.8c0.1-0.3,0.4-0.4,0.7-0.3
			c0.3,0.1,0.4,0.4,0.3,0.7c-2.4,5.8-3,12.3-1.8,18.2c0.1,0.4,0.1,0.7,0.2,1.1c0,0.2,0.1,0.3,0.1,0.5c0.1,0.2,0,0.4-0.2,0.5
			c-0.2,0.1-0.4,0.1-0.5,0c-1.3-0.7-2.5-1.1-3.7-1.2c-3-0.3-5.4,1.1-6.8,1.9l-8.1,4.8c-2.1,1.2-4.2,2.5-6.4,3.7
			c-4.3,2.5-8.7,5-13,7.4l-11.2,6.3c-0.9,0.5-1.8,1-2.6,1.4C46.4,100.4,46.4,100.4,46.3,100.4z"/>
	</g>
	<g>
		<path class="st2" d="M250.7,108.8c0,8.3-1,16.4-2.9,24.2c-0.4,1.8-0.9,3.5-1.4,5.3c-5.8-4.1-11.6-8.3-17.3-12.4
			c2.4-3.4,2-8.5-1-11.4c-1.7-1.7-4.1-2.7-5.8-4.4c-3.4-3.6-2.3-10.2,1.9-12.6c-5-0.7-10.9-2.1-12.8-6.9c-1-2.5-0.5-5.4,0.1-8
			c0.5-2.7,1.1-5.5,0.2-8c-0.9-2.6-3.9-4.6-6.4-3.4c-3.3,1.6-2.6,6.5-4,9.9c-1.9,4.6-8.3,6-12.9,4.1c-4.6-1.9-7.9-6-11.1-9.9
			c-3.1-3.9-6.5-8-11.1-9.8c-4.5-1.7-10.4-1.5-13.1-5.6c-1.9-2.9-1.2-6.8,0.4-9.9c1.5-3.1,3.8-5.8,5.1-9c1.2-3.2,1.1-7.4-1.5-9.6
			c-3.6,1.8-7.6-2.4-7.9-6.4c-0.3-4,1.5-7.9,1.8-11.9c0.2-2.2-0.2-4.5-1-6.5c1.8,0,3.6,0.1,5.5,0.2
			C208.7,10.2,250.7,54.6,250.7,108.8z"/>
		<path class="st1" d="M246.4,139.2c-0.2,0-0.4-0.1-0.6-0.2l-17.3-12.4c-0.4-0.3-0.6-0.9-0.2-1.4c2.1-3,1.7-7.5-0.9-10.1
			c-0.8-0.7-1.7-1.3-2.6-2c-1.1-0.7-2.2-1.5-3.2-2.5c-1.8-1.9-2.6-4.7-2.2-7.6c0.3-2,1.2-3.8,2.4-5.1c-4.7-0.9-9.6-2.7-11.3-7.1
			c-1.1-2.7-0.6-5.6,0-8.6c0.5-2.4,1-5.2,0.2-7.5c-0.4-1.2-1.5-2.3-2.7-2.8c-0.6-0.2-1.5-0.4-2.4,0c-1.7,0.8-2.1,2.9-2.5,5.3
			c-0.2,1.4-0.5,2.8-1,4.1c-2.2,5.2-9.3,6.6-14.2,4.6c-5-2-8.4-6.4-11.5-10.2c-3.3-4.2-6.5-7.9-10.7-9.5c-1.3-0.5-2.9-0.9-4.4-1.2
			c-3.5-0.8-7.1-1.6-9.2-4.8c-2.6-4-0.7-8.9,0.3-10.9c0.7-1.3,1.5-2.6,2.2-3.8c1.1-1.7,2.1-3.3,2.8-5.1c1-2.6,1.1-6-0.8-8.1
			c-1.4,0.5-2.9,0.3-4.4-0.5c-2.3-1.3-4.1-4.2-4.3-7c-0.2-2.5,0.4-4.9,0.9-7.2c0.4-1.7,0.8-3.2,0.9-4.8c0.1-2-0.2-4.1-1-6.1
			c-0.1-0.3-0.1-0.7,0.1-0.9s0.5-0.5,0.8-0.4c1.7,0,3.5,0.1,5.5,0.2c54,3.7,96.3,49,96.3,103.2c0,8.3-1,16.5-2.9,24.4
			c-0.4,1.7-0.9,3.4-1.4,5.3c-0.1,0.3-0.3,0.6-0.6,0.7C246.6,139.2,246.5,139.2,246.4,139.2z M230.4,125.6l15.4,11
			c0.4-1.4,0.7-2.6,1-3.9c1.9-7.8,2.9-15.8,2.9-23.9c0-53.1-41.5-97.6-94.4-101.2c-1.4-0.1-2.7-0.2-4-0.2c0.5,1.8,0.8,3.7,0.6,5.6
			c-0.1,1.8-0.5,3.5-0.9,5.2c-0.5,2.3-1,4.4-0.9,6.6c0.2,2.1,1.5,4.4,3.3,5.4c0.8,0.4,1.9,0.8,3.1,0.2c0.4-0.2,0.8-0.1,1.1,0.1
			c3.1,2.6,3.1,7.3,1.8,10.7c-0.8,2-1.9,3.8-3,5.5c-0.7,1.2-1.5,2.4-2.1,3.6c-1.7,3.4-1.9,6.7-0.4,8.9c1.6,2.5,4.7,3.2,8,3.9
			c1.5,0.4,3.2,0.7,4.6,1.3c4.7,1.8,8,5.7,11.6,10.1c2.9,3.7,6.2,7.8,10.7,9.6c4.1,1.7,9.9,0.6,11.6-3.5c0.4-1.1,0.7-2.4,0.9-3.6
			c0.4-2.6,0.9-5.5,3.6-6.8c1.2-0.6,2.6-0.6,4,0c1.7,0.7,3.1,2.2,3.8,4c1,2.9,0.4,5.9-0.1,8.6c-0.5,2.7-1,5.3-0.1,7.5
			c1.6,4.2,7,5.5,12,6.2c0.4,0.1,0.8,0.4,0.8,0.8s-0.1,0.8-0.5,1.1c-1.7,1-3,2.9-3.3,5.2c-0.3,2.2,0.3,4.4,1.6,5.9
			c0.8,0.8,1.8,1.5,2.8,2.2c1,0.7,2,1.3,2.9,2.2C231.8,116.7,232.5,121.8,230.4,125.6z"/>
	</g>
	<g>
		<path class="st1" d="M247.8,133.4c-0.1,0-0.2,0-0.3-0.1l-12.5-8.9c-0.2-0.1-0.2-0.3-0.2-0.5c1.1-4.6-0.3-9.5-3.6-12.8
			c-1.1-1.1-2.3-1.9-3.4-2.6l-0.1-0.1c-0.8-0.5-1.7-1.1-2.2-1.6c-0.6-0.6-0.9-1.7-0.7-2.9c0.2-1.1,0.7-2.1,1.5-2.5
			c1.4-0.8,2-2,2.2-2.8c0.3-1.2,0.1-2.6-0.6-3.7c-0.1-0.2-0.1-0.5,0.2-0.7c0.2-0.1,0.5-0.1,0.7,0.2c0.8,1.3,1.1,3,0.7,4.5
			c-0.4,1.5-1.3,2.7-2.7,3.4c-0.5,0.3-0.9,1-1,1.8c-0.1,0.8,0,1.6,0.4,2c0.4,0.4,1.2,1,2,1.5l0.1,0.1c1.1,0.7,2.4,1.6,3.5,2.7
			c3.4,3.4,4.9,8.5,3.9,13.4l11.6,8.3c1.8-7.6,2.7-15.4,2.7-23.3c0-53.1-41.3-97.6-94.2-101.6c0.5,2,0.7,4.1,0.5,6.2
			c-0.2,2.1-0.6,4-1.1,5.9c-0.5,1.9-0.9,3.7-0.8,5.2c0,0.5,0.3,1,0.6,1.4l2.2-1.1c0.2-0.1,0.4-0.1,0.5,0.1l2.6,2.2
			c4.8,4,5.1,10.9,3.1,15.9c-0.9,2.4-2.2,4.4-3.3,6.3c-0.7,1.1-1.4,2.2-1.9,3.3c-1,2-1.1,3.7-0.7,4.3c0.6,0.9,2.9,1.4,5.1,1.9
			c1.8,0.4,3.5,0.8,5.3,1.5c6.3,2.4,10.5,7.7,13.5,11.6c2.7,3.4,5.4,6.8,8.8,8.2c0.7,0.3,1.5,0.4,2.2,0.4c1.3,0,3-0.4,3.4-1.4
			c0.2-0.5,0.4-1.5,0.6-2.5l0-0.1c0.5-3.2,1.3-7.9,6.2-10.2c1.2-0.6,2.5-0.9,3.9-0.9c4.3,0,8.6,3.1,10.2,7.5
			c1.5,4.1,0.7,8.1,0.1,11.1c-0.3,1.5-0.8,3.8-0.3,4.9c0.4,1.1,2.1,2,4.8,2.7c0.3,0.1,0.4,0.3,0.4,0.6c-0.1,0.3-0.3,0.4-0.6,0.4
			c-3.1-0.8-5-1.9-5.5-3.3c-0.5-1.4-0.1-3.7,0.3-5.4c0.6-2.8,1.4-6.7,0-10.5c-1.4-3.9-5.3-6.8-9.2-6.8c-1.2,0-2.4,0.3-3.5,0.8
			c-4.4,2-5.1,6.5-5.6,9.5l0,0.1c-0.2,1-0.3,2.1-0.6,2.7c-0.6,1.5-2.7,2-4.3,2c-0.9,0-1.8-0.2-2.6-0.5c-3.6-1.5-6.4-5-9.2-8.5
			c-3-3.8-7.1-8.9-13.1-11.3c-1.7-0.7-3.4-1-5.1-1.4c-2.7-0.6-5-1.1-5.8-2.4c-0.7-1-0.4-3.2,0.6-5.3c0.6-1.1,1.3-2.3,2-3.3
			c1.1-1.8,2.4-3.8,3.3-6.1c1.8-4.7,1.6-11.1-2.9-14.8l-2.3-2l-2.2,1.1c-0.2,0.1-0.4,0.1-0.6-0.1c-0.4-0.4-1.1-1.3-1.2-2.3
			c-0.1-1.6,0.3-3.4,0.8-5.4c0.5-2,0.9-3.8,1-5.8c0.2-2.2-0.1-4.4-0.7-6.5c0-0.2,0-0.3,0.1-0.5c0.1-0.1,0.3-0.2,0.4-0.2
			c53.7,3.7,95.8,48.8,95.8,102.7c0,8.2-1,16.4-2.9,24.3c0,0.2-0.2,0.3-0.3,0.4C248,133.4,247.9,133.4,247.8,133.4z"/>
	</g>
	<g>
		<path class="st2" d="M171.8,161.9c-2.5,3.5-4.3,7.4-3.9,11.6c0.5,5.4,4.3,10.4,3.5,15.7c-0.7,5-5.4,9-5.1,14
			c0.1,2.2,1.2,4.1,2.5,5.9c-1.8,0.4-3.6,0.7-5.5,1c-4.9,0.7-9.9,1.1-15,1.1c-5,0-10-0.4-14.8-1.1c3.8-8.4,5.9-17.7,5.9-27.5
			c0-17-6.3-32.5-16.7-44.3c-1.3-1.5-2.7-2.9-4.1-4.3c0.3-1.1,0.5-2.2,0.6-3.3c1-7.5-0.7-15-1.5-22.5c-0.9-7.5-0.8-15.6,3.3-21.9
			c5-7.8,16.6-11.1,24.2-5.8c5.8,4,8.5,11.6,14.6,15c4.3,2.4,10.2,2.6,12.9,6.8c2.6,4,0.6,9.5,1.9,14.2c1.9,6.7,10.2,9.8,12.8,16.3
			c2.9,7.4-2.6,15.2-8.2,20.8c-0.5,0.5-1.1,1.1-1.6,1.7L171.8,161.9z"/>
		<path class="st1" d="M148.3,212.2c-5,0-10.1-0.4-14.9-1.1c-0.3,0-0.6-0.2-0.7-0.5c-0.2-0.3-0.2-0.6,0-0.9
			c3.9-8.5,5.8-17.6,5.8-27.1c0-16.1-5.9-31.6-16.5-43.7c-1.3-1.5-2.7-2.9-4-4.2c-0.3-0.2-0.4-0.6-0.3-1c0.3-1,0.5-2.1,0.6-3.2
			c0.7-5.6-0.1-11.3-0.9-16.9c-0.2-1.7-0.5-3.6-0.7-5.3c-0.7-6.3-1.1-15.4,3.4-22.6c2.7-4.2,7.4-7.4,12.6-8.5c4.8-1,9.4-0.1,13,2.3
			c2.9,2,5,4.7,7,7.4c2.3,3,4.5,5.9,7.6,7.6c1.4,0.8,3.1,1.4,4.7,1.9c3.2,1.1,6.6,2.2,8.5,5.2c1.7,2.6,1.6,5.6,1.6,8.6
			c0,2.1-0.1,4,0.5,5.8c0.9,3.2,3.5,5.6,6.2,8.1c2.6,2.4,5.2,4.8,6.5,8.1c2.5,6.3-0.4,13.9-8.4,21.9l-0.3,0.3
			c-0.4,0.4-0.9,0.9-1.3,1.4c-0.4,0.4-1,0.4-1.4,0c-0.4-0.4-0.4-1,0-1.4c0.5-0.5,0.9-0.9,1.3-1.4l0.3-0.3
			c5.1-5.2,10.7-12.8,7.9-19.8c-1.1-2.9-3.5-5.1-6-7.4c-2.8-2.6-5.7-5.2-6.8-9c-0.6-2.1-0.6-4.3-0.5-6.4c0-2.8,0.1-5.4-1.3-7.5
			c-1.6-2.4-4.4-3.4-7.5-4.4c-1.7-0.6-3.5-1.2-5-2c-3.5-1.9-5.9-5.1-8.2-8.1c-2-2.7-4-5.2-6.6-7c-3.2-2.2-7.2-2.9-11.5-2
			c-4.7,1-8.9,3.8-11.3,7.6c-4.2,6.6-3.8,15.3-3.1,21.3c0.2,1.8,0.4,3.6,0.7,5.3c0.8,5.7,1.6,11.6,0.9,17.4c-0.1,1-0.3,1.9-0.5,2.9
			c1.3,1.2,2.5,2.5,3.7,3.9c11,12.4,17,28.4,17,45c0,9.3-1.8,18.3-5.5,26.7c9.2,1.2,19,1.2,28.2-0.2c1.3-0.2,2.6-0.4,4-0.7
			c-0.9-1.5-1.7-3.2-1.8-5.2c-0.2-3.1,1.3-5.7,2.7-8.3c1.1-2,2.1-3.9,2.4-5.9c0.4-2.8-0.6-5.6-1.7-8.5c-0.8-2.2-1.7-4.5-1.9-7
			c-0.3-4,1-8,4.1-12.3c0.3-0.4,0.9-0.5,1.4-0.2c0.4,0.3,0.5,0.9,0.2,1.4c-2.8,3.9-4,7.4-3.7,11c0.2,2.2,1,4.3,1.8,6.5
			c1.1,3,2.3,6.2,1.8,9.5c-0.4,2.4-1.5,4.5-2.6,6.6c-1.3,2.4-2.6,4.7-2.4,7.2c0.1,2.1,1.2,3.8,2.3,5.4c0.2,0.3,0.2,0.6,0.1,0.9
			c-0.1,0.3-0.4,0.5-0.7,0.6c-1.9,0.4-3.7,0.7-5.5,1C158.5,211.8,153.4,212.2,148.3,212.2z"/>
	</g>
	<g>
		<path class="st1" d="M148.3,211.7c-5,0-10-0.4-14.9-1.1c-0.2,0-0.3-0.1-0.4-0.3c-0.1-0.1-0.1-0.3,0-0.4c3.9-8.6,5.9-17.8,5.9-27.3
			c0-16.2-5.9-31.8-16.6-44c-0.1-0.1-0.2-0.3-0.1-0.5c0.8-2.2,1.3-4.5,1.6-6.8c0.8-6.3,0-12.5-0.8-18.4c-0.3-1.8-0.5-3.5-0.7-5.2
			c-1-8.6-0.1-14.6,2.6-18.9c2.4-3.7,7.1-6.3,11.7-6.3c2.2,0,4.3,0.6,6,1.7c2.1,1.5,3.9,3.8,5.7,6.2c2.4,3.2,5.2,6.8,9.3,9.1
			c1.9,1.1,4,1.7,5.6,2.3c2.5,0.8,4.7,1.6,5.6,2.9c0.8,1.2,0.7,3.3,0.7,5.5c0,2.3-0.1,4.9,0.7,7.5c1.4,4.8,4.8,7.9,7.8,10.7
			c2.2,2,4.3,3.9,5.1,6.1c2.1,5.4-3.6,12.3-7.1,15.9c0,0,0,0,0,0l-0.2,0.2c-5.9,6-13.2,13.4-12.4,23.3c0.3,2.9,1.2,5.6,2.1,7.9
			c0.9,2.6,1.8,4.8,1.5,6.7c-0.2,1.4-1.1,3-2,4.7c-1.5,2.7-3.3,6.1-3.1,10.2c0.1,2.1,0.8,4.2,2,6.4c0.1,0.1,0.1,0.3,0,0.5
			s-0.2,0.3-0.4,0.3C158.5,211.3,153.4,211.7,148.3,211.7z M134.2,209.7c9.3,1.3,19,1.3,28.3,0c-1.1-2.1-1.7-4.1-1.8-6.2
			c-0.2-4.4,1.7-7.9,3.2-10.7c0.9-1.7,1.7-3.2,1.9-4.4c0.2-1.7-0.5-3.8-1.4-6.2c-0.8-2.3-1.9-5.1-2.1-8.2
			c-0.9-10.3,6.6-18,12.7-24.1l0.3-0.3c3.4-3.5,8.8-10,6.9-14.8c-0.8-1.9-2.7-3.7-4.9-5.7c-3.1-2.9-6.6-6.1-8.1-11.1
			c-0.8-2.7-0.7-5.4-0.7-7.7c0-2,0.1-4-0.5-5c-0.7-1-2.9-1.8-5-2.5c-1.7-0.6-3.9-1.3-5.9-2.4c-4.3-2.4-7.1-6.1-9.6-9.4
			c-1.8-2.4-3.5-4.6-5.5-6c-1.5-1-3.4-1.6-5.4-1.6c-4.3,0-8.7,2.3-10.9,5.8c-2.6,4.1-3.4,9.9-2.5,18.3c0.2,1.7,0.4,3.4,0.7,5.2
			c0.8,6,1.7,12.2,0.9,18.7c-0.3,2.3-0.8,4.5-1.5,6.7c10.8,12.3,16.7,28.1,16.7,44.4C139.9,192,138,201.2,134.2,209.7z M175.6,150
			L175.6,150L175.6,150z"/>
	</g>
	<g>
		<path class="st2" d="M106.2,240.5c-9.9,5.8-21.5,9.1-33.8,9.1c-37,0-67.1-30-67.1-67.1c0-26.1,15-48.8,36.8-59.9
			c1.5-0.7,3-1.5,4.5-2.1c7.9-3.3,16.6-5.1,25.8-5.1c16,0,30.6,5.6,42.1,14.9c1.4,1.1,2.8,2.3,4.1,3.6c1.4,1.4,2.8,2.8,4.1,4.3
			c10.4,11.8,16.7,27.3,16.7,44.3c0,9.8-2.1,19.1-5.9,27.5c-0.1,0.3-0.2,0.5-0.3,0.8c-4.4,9.5-11,17.8-19.2,24.3L106.2,240.5z"/>
		<path class="st1" d="M72.3,250.7c-37.5,0-68.1-30.5-68.1-68.1c0-25.8,14.3-49.1,37.3-60.7c1.6-0.8,3.1-1.5,4.6-2.1
			c8.3-3.5,17.1-5.2,26.1-5.2c15.5,0,30.7,5.4,42.8,15.1c1.5,1.2,2.9,2.4,4.2,3.7c1.4,1.3,2.8,2.8,4.1,4.3c11,12.4,17,28.4,17,45
			c0,9.8-2,19.1-6,27.9c-0.1,0.3-0.2,0.5-0.4,0.8c-4.4,9.5-11.2,18.1-19.5,24.6c-0.4,0.3-1.1,0.3-1.4-0.2c-0.3-0.4-0.3-1.1,0.2-1.4
			c8-6.4,14.6-14.7,18.9-23.9c0.1-0.3,0.2-0.5,0.3-0.7c3.9-8.5,5.8-17.7,5.8-27.1c0-16.1-5.9-31.6-16.5-43.7c-1.3-1.5-2.7-2.9-4-4.2
			c-1.2-1.2-2.6-2.4-4-3.6c-11.7-9.5-26.4-14.7-41.5-14.7c-8.8,0-17.3,1.7-25.4,5.1c-1.4,0.6-2.9,1.3-4.5,2.1
			c-22.3,11.3-36.2,33.9-36.2,59c0,36.4,29.6,66.1,66.1,66.1c11.7,0,23.3-3.1,33.3-9c0.5-0.3,1.1-0.1,1.4,0.4
			c0.3,0.5,0.1,1.1-0.4,1.4C96.3,247.4,84.4,250.7,72.3,250.7z"/>
	</g>
	<polygon class="st0" points="114.9,181 114.9,216.6 37.8,216.6 37.8,148.6 114.9,148.6 114.9,173.2 	"/>
	<g>
		<rect x="57.8" y="148.6" class="st2" width="29" height="18.4"/>
		<path class="st1" d="M86.9,168h-29c-0.6,0-1-0.4-1-1v-18.4c0-0.6,0.4-1,1-1h29c0.6,0,1,0.4,1,1V167C87.9,167.5,87.4,168,86.9,168z
			 M58.8,166h27v-16.4h-27V166z"/>
	</g>
	<g>
		<path class="st1" d="M81.7,162.4H62.9c-0.3,0-0.5-0.2-0.5-0.5v-13.3c0-0.3,0.2-0.5,0.5-0.5h18.8c0.3,0,0.5,0.2,0.5,0.5v13.3
			C82.2,162.1,82,162.4,81.7,162.4z M63.4,161.4h17.8v-12.3H63.4V161.4z"/>
	</g>
	<g>
		<rect x="44.9" y="198.2" class="st2" width="54.8" height="18.4"/>
		<path class="st1" d="M99.7,217.6H44.9c-0.6,0-1-0.4-1-1v-18.4c0-0.6,0.4-1,1-1h54.8c0.6,0,1,0.4,1,1v18.4
			C100.7,217.1,100.3,217.6,99.7,217.6z M45.9,215.6h52.8v-16.4H45.9V215.6z"/>
	</g>
	<g>
		<path class="st1" d="M95,217.1H49.7c-0.3,0-0.5-0.2-0.5-0.5v-13.3c0-0.3,0.2-0.5,0.5-0.5h13.3c0.3,0,0.5,0.2,0.5,0.5
			s-0.2,0.5-0.5,0.5H50.2v12.3h44.4v-12.3H68.3c-0.3,0-0.5-0.2-0.5-0.5s0.2-0.5,0.5-0.5H95c0.3,0,0.5,0.2,0.5,0.5v13.3
			C95.5,216.9,95.3,217.1,95,217.1z"/>
	</g>
	<g>
		<path class="st1" d="M72.3,245c-34.4,0-62.5-28-62.5-62.4c0-11.9,3.4-23.4,9.7-33.4c0.1-0.2,0.5-0.3,0.7-0.2
			c0.2,0.1,0.3,0.5,0.2,0.7c-6.3,9.8-9.6,21.2-9.6,32.9c0,33.9,27.6,61.4,61.5,61.4c23.5,0,45.3-13.8,55.5-35c4-8.3,6-17.2,6-26.4
			c0-14-4.9-27.8-13.7-38.7c-1.1-1.4-2.4-2.8-3.7-4.1c-11.7-12-27.3-18.7-44.1-18.7c-8.6,0-17,1.8-24.8,5.2
			c-8.2,3.7-15.7,9.2-21.7,16.1c-0.2,0.2-0.5,0.2-0.7,0.1c-0.2-0.2-0.2-0.5-0.1-0.7c6-7,13.6-12.6,22-16.3c8-3.5,16.4-5.3,25.2-5.3
			c17,0,32.9,6.7,44.8,19c1.3,1.3,2.6,2.7,3.7,4.2c9,11.1,14,25,14,39.3c0,9.4-2,18.4-6.1,26.8C118.4,231.1,96.3,245,72.3,245z"/>
	</g>
	<g>
		<path class="st1" d="M110.9,217.6H33.8c-0.6,0-1-0.4-1-1v-68c0-0.6,0.4-1,1-1h77.2c0.6,0,1,0.4,1,1v24.6c0,0.6-0.4,1-1,1
			s-1-0.4-1-1v-23.6H34.8v66h75.2V181c0-0.6,0.4-1,1-1s1,0.4,1,1v35.6C111.9,217.1,111.5,217.6,110.9,217.6z"/>
	</g>
</g>
</svg>
