<?xml version="1.0" encoding="utf-8"?>
<!-- Generator: Adobe Illustrator 22.1.0, SVG Export Plug-In . SVG Version: 6.00 Build 0)  -->
<svg version="1.1" id="Layer_1" xmlns="http://www.w3.org/2000/svg" xmlns:xlink="http://www.w3.org/1999/xlink" x="0px" y="0px"
	 viewBox="0 0 256 256" style="enable-background:new 0 0 256 256;" xml:space="preserve">
<style type="text/css">
	.st0{fill:#DBFDFF;}
	.st1{fill:#FFFFFF;}
	.st2{fill:#48386A;}
	.st3{fill:#FF8584;}
	.st4{fill:#FEBE7F;}
	.st5{fill:#9FEAFF;}
</style>
<g>
	<path class="st0" d="M225,91.8c0-30-24.3-54.3-54.3-54.3c-8.4,0-16.3,1.9-23.4,5.3c-9.9-13.5-25.8-22.3-43.9-22.3
		c-20.7,0-38.7,11.6-47.9,28.7c-17.7,8.9-29.9,27.3-29.9,48.5c0,5.9,1,11.6,2.7,16.9C16,124.6,8,139.9,8,157.1
		c0,13.5,4.9,25.8,13,35.3c3.6,26.5,26.3,46.9,53.8,46.9c24.3,0,44.9-16,51.8-38c8.9,6.3,19.8,10.1,31.5,10.1
		c30,0,54.3-24.3,54.3-54.3c0-8.8-2.1-17.1-5.8-24.4C217.9,122.6,225,108.1,225,91.8z"/>
	<g>
		<g>
			<polygon class="st1" points="21.7,249.5 10.2,249.5 10.2,235.4 118.5,235.4 118.5,249.5 27.8,249.5 			"/>
			<path class="st2" d="M118.5,250.5H27.8c-0.6,0-1-0.4-1-1s0.4-1,1-1h89.7v-12.1H11.2v12.1h10.4c0.6,0,1,0.4,1,1s-0.4,1-1,1H10.2
				c-0.6,0-1-0.4-1-1v-14.1c0-0.6,0.4-1,1-1h108.3c0.6,0,1,0.4,1,1v14.1C119.5,250.1,119.1,250.5,118.5,250.5z"/>
		</g>
		<g>
			<rect x="10.2" y="183.1" class="st1" width="52.2" height="52.2"/>
			<path class="st2" d="M62.5,236.4H10.2c-0.6,0-1-0.4-1-1v-52.2c0-0.6,0.4-1,1-1h52.2c0.6,0,1,0.4,1,1v52.2
				C63.5,235.9,63,236.4,62.5,236.4z M11.2,234.4h50.2v-50.2H11.2V234.4z"/>
		</g>
		<g>
			<rect x="10.2" y="130.9" class="st1" width="52.2" height="52.2"/>
			<path class="st2" d="M62.5,184.1H10.2c-0.6,0-1-0.4-1-1v-52.2c0-0.6,0.4-1,1-1h52.2c0.6,0,1,0.4,1,1v52.2
				C63.5,183.7,63,184.1,62.5,184.1z M11.2,182.1h50.2v-50.2H11.2V182.1z"/>
		</g>
		<g>
			<path class="st2" d="M21.8,172.1c-0.1,0-0.3,0-0.4-0.1c-0.2-0.2-0.2-0.5,0-0.7L62,130.6c0.2-0.2,0.5-0.2,0.7,0s0.2,0.5,0,0.7
				L22.1,172C22,172.1,21.9,172.1,21.8,172.1z"/>
		</g>
		<g>
			<path class="st2" d="M10.2,183.6c-0.1,0-0.3,0-0.4-0.1c-0.2-0.2-0.2-0.5,0-0.7l8.5-8.5c0.2-0.2,0.5-0.2,0.7,0s0.2,0.5,0,0.7
				l-8.5,8.5C10.5,183.6,10.4,183.6,10.2,183.6z"/>
		</g>
		<g>
			<path class="st2" d="M62.4,183.6c-0.1,0-0.3,0-0.4-0.1L9.9,131.3c-0.2-0.2-0.2-0.5,0-0.7s0.5-0.2,0.7,0l52.2,52.2
				c0.2,0.2,0.2,0.5,0,0.7C62.7,183.6,62.5,183.6,62.4,183.6z"/>
		</g>
		<g>
			<polygon class="st1" points="62.5,109.7 62.5,130.9 10.2,130.9 10.2,78.6 62.5,78.6 62.5,99.3 			"/>
			<path class="st2" d="M62.5,131.9H10.2c-0.6,0-1-0.4-1-1V78.6c0-0.6,0.4-1,1-1h52.2c0.6,0,1,0.4,1,1v20.7c0,0.6-0.4,1-1,1
				s-1-0.4-1-1V79.6H11.2v50.2h50.2v-20.2c0-0.6,0.4-1,1-1s1,0.4,1,1v21.2C63.5,131.4,63,131.9,62.5,131.9z"/>
		</g>
		<g>
			<path class="st2" d="M62.5,106.7c-0.6,0-1-0.4-1-1v-1.6c0-0.6,0.4-1,1-1s1,0.4,1,1v1.6C63.5,106.3,63,106.7,62.5,106.7z"/>
		</g>
		<g>
			<polygon class="st1" points="10.2,43.3 10.2,25 62.5,25 62.5,60.1 97.6,60.1 97.6,78.6 10.2,78.6 10.2,47.6 			"/>
			<path class="st2" d="M97.6,79.6H10.2c-0.6,0-1-0.4-1-1v-31c0-0.6,0.4-1,1-1s1,0.4,1,1v30h85.3V61.1H62.5c-0.6,0-1-0.4-1-1V26
				H11.2v17.2c0,0.6-0.4,1-1,1s-1-0.4-1-1V25c0-0.6,0.4-1,1-1h52.2c0.6,0,1,0.4,1,1v34.1h34.1c0.6,0,1,0.4,1,1v18.5
				C98.6,79.2,98.1,79.6,97.6,79.6z"/>
		</g>
		<g>
			<polygon class="st1" points="52,70.9 97.6,70.9 97.6,78.6 10.2,78.6 10.2,70.9 46,70.9 			"/>
			<path class="st2" d="M97.6,79.6H10.2c-0.6,0-1-0.4-1-1v-7.8c0-0.6,0.4-1,1-1H46c0.6,0,1,0.4,1,1s-0.4,1-1,1H11.2v5.8h85.3v-5.8
				H52c-0.6,0-1-0.4-1-1s0.4-1,1-1h45.6c0.6,0,1,0.4,1,1v7.8C98.6,79.2,98.1,79.6,97.6,79.6z"/>
		</g>
		<g>
			<rect x="62.5" y="6.5" class="st1" width="35.1" height="53.6"/>
			<path class="st2" d="M97.6,61.1H62.5c-0.6,0-1-0.4-1-1V6.5c0-0.6,0.4-1,1-1h35.1c0.6,0,1,0.4,1,1v53.6
				C98.6,60.7,98.1,61.1,97.6,61.1z M63.5,59.1h33.1V7.5H63.5V59.1z"/>
		</g>
		<g>
			<rect x="27.4" y="14.8" class="st1" width="35.1" height="10.3"/>
			<path class="st2" d="M62.5,26H27.4c-0.6,0-1-0.4-1-1V14.8c0-0.6,0.4-1,1-1h35.1c0.6,0,1,0.4,1,1V25C63.5,25.6,63,26,62.5,26z
				 M28.4,24h33.1v-8.3H28.4V24z"/>
		</g>
		<g>
			<path class="st1" d="M184.4,69.8c0,1.9,0.5,3.6,1.4,5.1h-74.9V64.7h74.9C184.9,66.2,184.4,67.9,184.4,69.8z"/>
			<path class="st2" d="M185.8,75.9h-74.9c-0.6,0-1-0.4-1-1V64.7c0-0.6,0.4-1,1-1h74.9c0.4,0,0.7,0.2,0.9,0.5s0.2,0.7,0,1
				c-0.8,1.4-1.3,2.9-1.3,4.6c0,1.6,0.4,3.2,1.3,4.6c0.2,0.3,0.2,0.7,0,1C186.5,75.7,186.2,75.9,185.8,75.9z M111.9,73.9h72.3
				c-0.5-1.3-0.8-2.7-0.8-4.1c0-1.4,0.3-2.8,0.8-4.1h-72.3V73.9z"/>
		</g>
		<g>
			<path class="st1" d="M203.7,69.8c0,4.2-2.7,7.9-6.5,9.1c-1,0.3-2,0.5-3.1,0.5c-1.1,0-2.1-0.2-3.1-0.5c-2.1-0.7-3.9-2.2-5.1-4.1
				c-0.9-1.5-1.4-3.2-1.4-5.1c0-1.9,0.5-3.6,1.4-5.1c1.7-2.7,4.7-4.6,8.2-4.6C199.4,60.1,203.7,64.4,203.7,69.8z"/>
			<path class="st2" d="M194,80.4c-1.2,0-2.3-0.2-3.4-0.6c-2.3-0.8-4.3-2.4-5.6-4.5c-1-1.7-1.6-3.6-1.6-5.6c0-2,0.6-3.9,1.6-5.6
				c2-3.2,5.4-5,9.1-5c5.9,0,10.7,4.8,10.7,10.7c0,4.6-2.9,8.6-7.2,10.1C196.4,80.2,195.2,80.4,194,80.4z M194,61.1
				c-3,0-5.8,1.5-7.4,4.1c-0.8,1.4-1.3,2.9-1.3,4.6c0,1.6,0.4,3.2,1.3,4.6c1.1,1.7,2.7,3,4.6,3.6c1.8,0.6,3.8,0.6,5.6,0
				c3.5-1.2,5.9-4.5,5.9-8.2C202.7,65,198.8,61.1,194,61.1z"/>
		</g>
		<g>
			<path class="st1" d="M197.1,100.5v38.8c5.2,1.4,8.9,6.5,8.3,12.3c-0.6,5.6-5.3,10-10.9,10.2c-1.5,0.1-3-0.2-4.3-0.7
				c-3.3-1.2-5.9-3.8-7-7.1c-0.6-1.8,0.8-3.7,2.7-3.7c1.2,0,2.3,0.8,2.6,1.9c0.9,2.7,3.7,4.5,6.7,3.8c0,0,0,0,0,0
				c2.2-0.4,4-2.2,4.5-4.4c0.8-3.8-2-7.2-5.7-7.2h-3.1V78.9c1,0.3,2,0.5,3.1,0.5c1.1,0,2.1-0.2,3.1-0.5v16.8V100.5z"/>
			<path class="st2" d="M194.1,162.7c-1.5,0-2.9-0.2-4.2-0.7c-3.5-1.3-6.4-4.1-7.6-7.7c-0.4-1.2-0.2-2.4,0.5-3.4
				c0.7-1,1.9-1.6,3.1-1.6c1.6,0,3.1,1,3.6,2.6c0.8,2.3,3.2,3.7,5.6,3.2c0,0,0.1,0,0.1,0c1.8-0.4,3.3-1.8,3.7-3.6c0.3-1.5,0-3-1-4.2
				c-0.9-1.2-2.3-1.8-3.8-1.8h-3.1c-0.6,0-1-0.4-1-1V78.9c0-0.3,0.2-0.6,0.4-0.8c0.3-0.2,0.6-0.2,0.9-0.1c1.8,0.6,3.8,0.6,5.5,0
				c0.3-0.1,0.6-0.1,0.9,0.1c0.3,0.2,0.4,0.5,0.4,0.8v16.8c0,0.6-0.4,1-1,1s-1-0.4-1-1V80.2c-1.4,0.3-2.8,0.3-4.2,0v63.2h2.1
				c2.1,0,4,0.9,5.3,2.6c1.3,1.6,1.8,3.8,1.4,5.8c-0.6,2.6-2.7,4.7-5.3,5.2c0,0-0.1,0-0.1,0c-3.4,0.6-6.7-1.3-7.8-4.5
				c-0.2-0.7-0.9-1.2-1.7-1.2c-0.6,0-1.1,0.3-1.5,0.8c-0.3,0.5-0.4,1.1-0.2,1.6c1,3,3.4,5.4,6.4,6.5c1.2,0.4,2.6,0.7,3.9,0.6
				c5.1-0.2,9.4-4.2,10-9.3c0.6-5.1-2.6-9.9-7.6-11.2c-0.4-0.1-0.7-0.5-0.7-1v-38.8c0-0.6,0.4-1,1-1s1,0.4,1,1v38
				c5.5,1.9,8.9,7.3,8.3,13.2c-0.7,6.1-5.8,10.8-11.9,11.1C194.4,162.7,194.2,162.7,194.1,162.7z"/>
		</g>
		<g>
			<rect x="97.6" y="60.1" class="st3" width="13.4" height="18.5"/>
			<path class="st2" d="M110.9,79.6H97.6c-0.6,0-1-0.4-1-1V60.1c0-0.6,0.4-1,1-1h13.4c0.6,0,1,0.4,1,1v18.5
				C111.9,79.2,111.5,79.6,110.9,79.6z M98.6,77.6h11.4V61.1H98.6V77.6z"/>
		</g>
		<g>
			<path class="st2" d="M224.1,185.9c-0.3,0-0.5-0.1-0.7-0.3l-28.9-28.9c-0.4-0.4-0.4-1,0-1.4s1-0.4,1.4,0l28.9,28.9
				c0.4,0.4,0.4,1,0,1.4C224.6,185.8,224.4,185.9,224.1,185.9z"/>
		</g>
		<g>
			<path class="st2" d="M166.3,185.9c-0.3,0-0.5-0.1-0.7-0.3c-0.4-0.4-0.4-1,0-1.4l23.8-23.8c0.4-0.4,1-0.4,1.4,0s0.4,1,0,1.4
				L167,185.6C166.8,185.8,166.6,185.9,166.3,185.9z"/>
		</g>
		<g>
			<polygon class="st1" points="207.5,233 144.7,233 144.7,184.9 245.8,184.9 245.8,233 216.8,233 			"/>
			<path class="st2" d="M245.8,234h-28.9c-0.6,0-1-0.4-1-1s0.4-1,1-1h27.9v-46h-99v46h61.8c0.6,0,1,0.4,1,1s-0.4,1-1,1h-62.8
				c-0.6,0-1-0.4-1-1v-48c0-0.6,0.4-1,1-1h101c0.6,0,1,0.4,1,1v48C246.8,233.5,246.3,234,245.8,234z"/>
		</g>
		<g>
			<path class="st2" d="M240.9,227.5h-91.3c-0.3,0-0.5-0.2-0.5-0.5v-36.2c0-0.3,0.2-0.5,0.5-0.5h19.3c0.3,0,0.5,0.2,0.5,0.5
				s-0.2,0.5-0.5,0.5h-18.8v35.2h90.3v-35.2h-67.7c-0.3,0-0.5-0.2-0.5-0.5s0.2-0.5,0.5-0.5h68.2c0.3,0,0.5,0.2,0.5,0.5V227
				C241.4,227.3,241.2,227.5,240.9,227.5z"/>
		</g>
		<g>
			<path class="st2" d="M56,61.1H16.5c-0.6,0-1-0.4-1-1V31.6c0-0.6,0.4-1,1-1H56c0.6,0,1,0.4,1,1v28.5C57,60.7,56.6,61.1,56,61.1z
				 M17.5,59.1H55V32.6H17.5V59.1z"/>
		</g>
		<polygon class="st4" points="101.8,240 122,240 122,244.8 13.7,244.8 13.7,240 97,240 		"/>
		<rect x="13.7" y="183.1" class="st4" width="52.2" height="52.2"/>
		<polygon class="st4" points="66,109.7 66,130.9 13.7,130.9 13.7,78.6 66,78.6 66,99.3 		"/>
		<polygon class="st5" points="84.6,11.7 94.9,11.7 94.9,54.9 70.2,54.9 70.2,11.7 79.9,11.7 		"/>
		<path class="st4" d="M196.5,74.3c-1.6,0-3-0.8-3.8-2.1c-0.4-0.7-0.7-1.5-0.7-2.3c0-0.9,0.2-1.6,0.7-2.4c0.8-1.3,2.3-2.1,3.8-2.1
			c2.5,0,4.5,2,4.5,4.5C201,72.2,199,74.3,196.5,74.3z"/>
		
			<rect x="185.2" y="205.1" transform="matrix(-1.836970e-16 1 -1 -1.836970e-16 407.6723 10.1959)" class="st3" width="27.1" height="7.6"/>
		<polygon class="st3" points="212.6,204 212.6,195.4 220.2,195.4 220.2,222.5 212.6,222.5 212.6,207 		"/>
		
			<rect x="220.5" y="205.1" transform="matrix(-1.836970e-16 1 -1 -1.836970e-16 443.0155 -25.1473)" class="st3" width="27.1" height="7.6"/>
		
			<rect x="149.8" y="205.1" transform="matrix(-1.836970e-16 1 -1 -1.836970e-16 372.3291 45.5391)" class="st3" width="27.1" height="7.6"/>
		
			<rect x="167.5" y="205.1" transform="matrix(-1.836970e-16 1 -1 -1.836970e-16 390.0007 27.8675)" class="st3" width="27.1" height="7.6"/>
		
			<rect x="29.6" y="31.2" transform="matrix(-1.836970e-16 1 -1 -1.836970e-16 84.5839 7.1099)" class="st5" width="18.2" height="29.2"/>
		<g>
			<path class="st2" d="M140.5,70.3h-29.6c-0.3,0-0.5-0.2-0.5-0.5s0.2-0.5,0.5-0.5h29.6c0.3,0,0.5,0.2,0.5,0.5
				S140.8,70.3,140.5,70.3z"/>
		</g>
		<g>
			<path class="st2" d="M184.4,70.3H145c-0.3,0-0.5-0.2-0.5-0.5s0.2-0.5,0.5-0.5h39.4c0.3,0,0.5,0.2,0.5,0.5S184.6,70.3,184.4,70.3z
				"/>
		</g>
		<g>
			<g>
				<path class="st2" d="M71.2,37.3c-0.1,0-0.3,0-0.4-0.1c-0.2-0.2-0.2-0.5,0-0.7l12.4-12.4c0.2-0.2,0.5-0.2,0.7,0s0.2,0.5,0,0.7
					L71.5,37.2C71.4,37.3,71.3,37.3,71.2,37.3z"/>
			</g>
			<g>
				<path class="st2" d="M72.2,42.6c-0.1,0-0.3,0-0.4-0.1c-0.2-0.2-0.2-0.5,0-0.7l16.7-16.7c0.2-0.2,0.5-0.2,0.7,0s0.2,0.5,0,0.7
					L72.5,42.5C72.5,42.6,72.3,42.6,72.2,42.6z"/>
			</g>
		</g>
		<g>
			<g>
				<path class="st2" d="M30.1,52.2c-0.1,0-0.3,0-0.4-0.1c-0.2-0.2-0.2-0.5,0-0.7l11.7-11.7c0.2-0.2,0.5-0.2,0.7,0s0.2,0.5,0,0.7
					L30.4,52C30.3,52.1,30.2,52.2,30.1,52.2z"/>
			</g>
			<g>
				<path class="st2" d="M34.9,51.9c-0.1,0-0.3,0-0.4-0.1c-0.2-0.2-0.2-0.5,0-0.7l7.5-7.5c0.2-0.2,0.5-0.2,0.7,0s0.2,0.5,0,0.7
					l-7.5,7.5C35.1,51.8,35,51.9,34.9,51.9z"/>
			</g>
		</g>
		<g>
			<path class="st2" d="M118.5,245.3H10.2c-0.3,0-0.5-0.2-0.5-0.5V240c0-0.3,0.2-0.5,0.5-0.5h83.3c0.3,0,0.5,0.2,0.5,0.5
				s-0.2,0.5-0.5,0.5H10.7v3.8H118v-3.8H98.3c-0.3,0-0.5-0.2-0.5-0.5s0.2-0.5,0.5-0.5h20.2c0.3,0,0.5,0.2,0.5,0.5v4.8
				C119,245.1,118.8,245.3,118.5,245.3z"/>
		</g>
		<g>
			<path class="st2" d="M118.5,250.5H27.8c-0.6,0-1-0.4-1-1s0.4-1,1-1h89.7v-12.1H11.2v12.1h10.4c0.6,0,1,0.4,1,1s-0.4,1-1,1H10.2
				c-0.6,0-1-0.4-1-1v-14.1c0-0.6,0.4-1,1-1h108.3c0.6,0,1,0.4,1,1v14.1C119.5,250.1,119.1,250.5,118.5,250.5z"/>
		</g>
		<g>
			<path class="st2" d="M199,223h-7.6c-0.3,0-0.5-0.2-0.5-0.5v-27.1c0-0.3,0.2-0.5,0.5-0.5h7.6c0.3,0,0.5,0.2,0.5,0.5v27.1
				C199.5,222.8,199.3,223,199,223z M191.9,222h6.6v-26.1h-6.6V222z"/>
		</g>
		<g>
			<path class="st2" d="M216.7,223h-7.6c-0.3,0-0.5-0.2-0.5-0.5V207c0-0.3,0.2-0.5,0.5-0.5s0.5,0.2,0.5,0.5v15h6.6v-26.1h-6.6v8.1
				c0,0.3-0.2,0.5-0.5,0.5s-0.5-0.2-0.5-0.5v-8.6c0-0.3,0.2-0.5,0.5-0.5h7.6c0.3,0,0.5,0.2,0.5,0.5v27.1
				C217.2,222.8,217,223,216.7,223z"/>
		</g>
		<g>
			<path class="st2" d="M234.4,223h-7.6c-0.3,0-0.5-0.2-0.5-0.5v-27.1c0-0.3,0.2-0.5,0.5-0.5h7.6c0.3,0,0.5,0.2,0.5,0.5v27.1
				C234.9,222.8,234.7,223,234.4,223z M227.3,222h6.6v-26.1h-6.6V222z"/>
		</g>
		<g>
			<path class="st2" d="M163.7,223h-7.6c-0.3,0-0.5-0.2-0.5-0.5v-27.1c0-0.3,0.2-0.5,0.5-0.5h7.6c0.3,0,0.5,0.2,0.5,0.5v27.1
				C164.2,222.8,164,223,163.7,223z M156.6,222h6.6v-26.1h-6.6V222z"/>
		</g>
		<g>
			<path class="st2" d="M181.4,223h-7.6c-0.3,0-0.5-0.2-0.5-0.5v-27.1c0-0.3,0.2-0.5,0.5-0.5h7.6c0.3,0,0.5,0.2,0.5,0.5v27.1
				C181.9,222.8,181.6,223,181.4,223z M174.3,222h6.6v-26.1h-6.6V222z"/>
		</g>
		<g>
			<path class="st2" d="M212.8,234H212c-0.6,0-1-0.4-1-1s0.4-1,1-1h0.8c0.6,0,1,0.4,1,1S213.4,234,212.8,234z"/>
		</g>
		<g>
			<path class="st2" d="M10.2,235.9c-0.1,0-0.3,0-0.4-0.1c-0.2-0.2-0.2-0.5,0-0.7L62,182.9c0.2-0.2,0.5-0.2,0.7,0s0.2,0.5,0,0.7
				l-52.2,52.2C10.5,235.8,10.4,235.9,10.2,235.9z"/>
		</g>
		<g>
			<path class="st2" d="M62.4,235.9c-0.1,0-0.3,0-0.4-0.1L9.9,183.6c-0.2-0.2-0.2-0.5,0-0.7s0.5-0.2,0.7,0L62.8,235
				c0.2,0.2,0.2,0.5,0,0.7C62.7,235.8,62.5,235.9,62.4,235.9z"/>
		</g>
		<g>
			<path class="st2" d="M62.5,236.4H10.2c-0.6,0-1-0.4-1-1v-52.2c0-0.6,0.4-1,1-1h52.2c0.6,0,1,0.4,1,1v52.2
				C63.5,235.9,63,236.4,62.5,236.4z M11.2,234.4h50.2v-50.2H11.2V234.4z"/>
		</g>
		<g>
			<path class="st2" d="M10.2,131.4c-0.1,0-0.3,0-0.4-0.1c-0.2-0.2-0.2-0.5,0-0.7L62,78.4c0.2-0.2,0.5-0.2,0.7,0s0.2,0.5,0,0.7
				l-52.2,52.2C10.5,131.3,10.4,131.4,10.2,131.4z"/>
		</g>
		<g>
			<path class="st2" d="M62.4,131.4c-0.1,0-0.3,0-0.4-0.1L9.9,79.1c-0.2-0.2-0.2-0.5,0-0.7s0.5-0.2,0.7,0l52.2,52.2
				c0.2,0.2,0.2,0.5,0,0.7C62.7,131.3,62.5,131.4,62.4,131.4z"/>
		</g>
		<g>
			<path class="st2" d="M62.5,131.9H10.2c-0.6,0-1-0.4-1-1V78.6c0-0.6,0.4-1,1-1h52.2c0.6,0,1,0.4,1,1v20.7c0,0.6-0.4,1-1,1
				s-1-0.4-1-1V79.6H11.2v50.2h50.2v-20.2c0-0.6,0.4-1,1-1s1,0.4,1,1v21.2C63.5,131.4,63,131.9,62.5,131.9z"/>
		</g>
		<g>
			<path class="st2" d="M194,74.8c-1.7,0-3.3-0.9-4.3-2.4c-0.5-0.8-0.7-1.7-0.7-2.6c0-0.9,0.3-1.8,0.7-2.6c0.9-1.5,2.5-2.4,4.2-2.4
				c2.7,0,5,2.2,5,5C199,72.5,196.8,74.8,194,74.8z M194,65.8c-1.4,0-2.7,0.7-3.4,1.9c-0.4,0.6-0.6,1.3-0.6,2.1
				c0,0.8,0.2,1.5,0.6,2.1c0.7,1.2,2,1.9,3.4,1.9c2.2,0,4-1.8,4-4C198,67.6,196.2,65.8,194,65.8z"/>
		</g>
		<g>
			<path class="st2" d="M92.4,55.4H67.7c-0.3,0-0.5-0.2-0.5-0.5V11.7c0-0.3,0.2-0.5,0.5-0.5h9.7c0.3,0,0.5,0.2,0.5,0.5
				s-0.2,0.5-0.5,0.5h-9.2v42.3h23.7V12.2h-9.8c-0.3,0-0.5-0.2-0.5-0.5s0.2-0.5,0.5-0.5h10.3c0.3,0,0.5,0.2,0.5,0.5v43.3
				C92.9,55.2,92.7,55.4,92.4,55.4z"/>
		</g>
		<g>
			<path class="st2" d="M50.8,55.4H21.6c-0.3,0-0.5-0.2-0.5-0.5V36.8c0-0.3,0.2-0.5,0.5-0.5h29.2c0.3,0,0.5,0.2,0.5,0.5v18.2
				C51.3,55.2,51.1,55.4,50.8,55.4z M22.1,54.4h28.2V37.3H22.1V54.4z"/>
		</g>
	</g>
	<g>
		<path class="st2" d="M164.7,57.9c-1.6,0-3-1.3-3-3s1.3-3,3-3s3,1.3,3,3S166.3,57.9,164.7,57.9z M164.7,53c-1.1,0-2,0.9-2,2
			s0.9,2,2,2s2-0.9,2-2S165.8,53,164.7,53z"/>
	</g>
	<g>
		<path class="st3" d="M78.7,158.6c-1.6,0-3-1.3-3-3s1.3-3,3-3s3,1.3,3,3S80.4,158.6,78.7,158.6z M78.7,153.6c-1.1,0-2,0.9-2,2
			s0.9,2,2,2s2-0.9,2-2S79.8,153.6,78.7,153.6z"/>
	</g>
	<g>
		<path class="st2" d="M77.8,221.1c-0.1,0-0.3-0.1-0.4-0.1c-0.1-0.1-0.2-0.3-0.1-0.5l0.8-2.6l-0.8-2.6c-0.1-0.2,0-0.4,0.1-0.5
			c0.1-0.1,0.3-0.2,0.5-0.1l2.6,0.8l2.6-0.8c0.2-0.1,0.4,0,0.5,0.1c0.1,0.1,0.2,0.3,0.1,0.5l-0.8,2.6l0.8,2.6c0.1,0.2,0,0.4-0.1,0.5
			c-0.1,0.1-0.3,0.2-0.5,0.1l-1-0.3c-0.3-0.1-0.4-0.4-0.3-0.6c0.1-0.3,0.4-0.4,0.6-0.3l0.1,0L82,218c0-0.1,0-0.2,0-0.3l0.5-1.8
			l-1.8,0.5c-0.1,0-0.2,0-0.3,0l-1.8-0.5l0.5,1.8c0,0.1,0,0.2,0,0.3l-0.5,1.8l1.8-0.5c0.3-0.1,0.5,0.1,0.6,0.3
			c0.1,0.3-0.1,0.5-0.3,0.6l-2.7,0.8C77.9,221.1,77.9,221.1,77.8,221.1z"/>
	</g>
	<g>
		<path class="st4" d="M116.4,40c0,0-0.1,0-0.1,0l-1-0.3c-0.3-0.1-0.4-0.4-0.3-0.6c0.1-0.3,0.4-0.4,0.6-0.3l0.1,0l-0.5-1.8
			c0-0.1,0-0.2,0-0.3l0.5-1.8l-1.8,0.5c-0.1,0-0.2,0-0.3,0l-1.8-0.5l0.5,1.8c0,0.1,0,0.2,0,0.3l-0.5,1.8l1.8-0.5
			c0.3-0.1,0.5,0.1,0.6,0.3c0.1,0.3-0.1,0.5-0.3,0.6l-2.7,0.8c-0.2,0-0.4,0-0.5-0.1c-0.1-0.1-0.2-0.3-0.1-0.5l0.8-2.6l-0.8-2.6
			c-0.1-0.2,0-0.4,0.1-0.5c0.1-0.1,0.3-0.2,0.5-0.1l2.6,0.8l2.6-0.8c0.2-0.1,0.4,0,0.5,0.1s0.2,0.3,0.1,0.5l-0.8,2.6l0.8,2.6
			c0.1,0.2,0,0.4-0.1,0.5C116.6,39.9,116.5,40,116.4,40z"/>
	</g>
	<g>
		<g>
			<path class="st3" d="M82.9,90.6c-0.3,0-0.5-0.2-0.5-0.5v-2.4c0-0.3,0.2-0.5,0.5-0.5s0.5,0.2,0.5,0.5v2.4
				C83.4,90.4,83.1,90.6,82.9,90.6z"/>
		</g>
		<g>
			<path class="st3" d="M82.9,96.5c-0.3,0-0.5-0.2-0.5-0.5v-2.4c0-0.3,0.2-0.5,0.5-0.5s0.5,0.2,0.5,0.5V96
				C83.4,96.3,83.1,96.5,82.9,96.5z"/>
		</g>
		<g>
			<path class="st3" d="M87,92.3h-2.4c-0.3,0-0.5-0.2-0.5-0.5s0.2-0.5,0.5-0.5H87c0.3,0,0.5,0.2,0.5,0.5S87.3,92.3,87,92.3z"/>
		</g>
		<g>
			<path class="st3" d="M81.2,92.3h-2.4c-0.3,0-0.5-0.2-0.5-0.5s0.2-0.5,0.5-0.5h2.4c0.3,0,0.5,0.2,0.5,0.5S81.4,92.3,81.2,92.3z"/>
		</g>
	</g>
	<g>
		<g>
			<path class="st4" d="M170.8,96.5c-0.3,0-0.5-0.2-0.5-0.5v-2.4c0-0.3,0.2-0.5,0.5-0.5s0.5,0.2,0.5,0.5V96
				C171.3,96.3,171.1,96.5,170.8,96.5z"/>
		</g>
		<g>
			<path class="st4" d="M170.8,102.4c-0.3,0-0.5-0.2-0.5-0.5v-2.4c0-0.3,0.2-0.5,0.5-0.5s0.5,0.2,0.5,0.5v2.4
				C171.3,102.1,171.1,102.4,170.8,102.4z"/>
		</g>
		<g>
			<path class="st4" d="M175,98.2h-2.4c-0.3,0-0.5-0.2-0.5-0.5s0.2-0.5,0.5-0.5h2.4c0.3,0,0.5,0.2,0.5,0.5S175.3,98.2,175,98.2z"/>
		</g>
		<g>
			<path class="st4" d="M169.1,98.2h-2.4c-0.3,0-0.5-0.2-0.5-0.5s0.2-0.5,0.5-0.5h2.4c0.3,0,0.5,0.2,0.5,0.5S169.4,98.2,169.1,98.2z
				"/>
		</g>
	</g>
	<g>
		<g>
			<path class="st5" d="M159.6,163.9c-0.3,0-0.5-0.2-0.5-0.5V161c0-0.3,0.2-0.5,0.5-0.5s0.5,0.2,0.5,0.5v2.4
				C160.1,163.7,159.9,163.9,159.6,163.9z"/>
		</g>
		<g>
			<path class="st5" d="M159.6,169.8c-0.3,0-0.5-0.2-0.5-0.5v-2.4c0-0.3,0.2-0.5,0.5-0.5s0.5,0.2,0.5,0.5v2.4
				C160.1,169.5,159.9,169.8,159.6,169.8z"/>
		</g>
		<g>
			<path class="st5" d="M163.7,165.6h-2.4c-0.3,0-0.5-0.2-0.5-0.5s0.2-0.5,0.5-0.5h2.4c0.3,0,0.5,0.2,0.5,0.5S164,165.6,163.7,165.6
				z"/>
		</g>
		<g>
			<path class="st5" d="M157.9,165.6h-2.4c-0.3,0-0.5-0.2-0.5-0.5s0.2-0.5,0.5-0.5h2.4c0.3,0,0.5,0.2,0.5,0.5
				S158.2,165.6,157.9,165.6z"/>
		</g>
	</g>
</g>
</svg>
