<?xml version="1.0" encoding="utf-8"?>
<!-- Generator: Adobe Illustrator 22.1.0, SVG Export Plug-In . SVG Version: 6.00 Build 0)  -->
<svg version="1.1" id="Layer_1" xmlns="http://www.w3.org/2000/svg" xmlns:xlink="http://www.w3.org/1999/xlink" x="0px" y="0px"
	 viewBox="0 0 256 256" style="enable-background:new 0 0 256 256;" xml:space="preserve">
<style type="text/css">
	.st0{fill:#FFFFFF;}
	.st1{fill:#48386A;}
	.st2{fill:#9FEAFF;}
</style>
<g>
	<g>
		<polygon class="st0" points="193.8,197 17,197 17,186 250.9,186 250.9,197 201.5,197 		"/>
		<path class="st1" d="M250.9,198h-49.4c-0.6,0-1-0.4-1-1s0.4-1,1-1h48.4V187H18v8.9h175.8c0.6,0,1,0.4,1,1s-0.4,1-1,1H17
			c-0.6,0-1-0.4-1-1V186c0-0.6,0.4-1,1-1h233.9c0.6,0,1,0.4,1,1V197C251.9,197.5,251.5,198,250.9,198z"/>
	</g>
	<g>
		<polygon class="st0" points="173,225.8 29,225.8 29,214.9 239,214.9 239,225.8 179.2,225.8 		"/>
		<path class="st1" d="M239,226.8h-59.8c-0.6,0-1-0.4-1-1s0.4-1,1-1H238v-8.9H30v8.9h143c0.6,0,1,0.4,1,1s-0.4,1-1,1H29
			c-0.6,0-1-0.4-1-1v-10.9c0-0.6,0.4-1,1-1h210c0.6,0,1,0.4,1,1v10.9C240,226.4,239.6,226.8,239,226.8z"/>
	</g>
	<polygon class="st2" points="177,225.8 33,225.8 33,214.9 242,214.9 242,225.8 183.2,225.8 	"/>
	<g>
		<rect x="38.9" y="197" class="st0" width="9" height="17.9"/>
		<path class="st1" d="M47.9,215.9h-9c-0.6,0-1-0.4-1-1V197c0-0.6,0.4-1,1-1h9c0.6,0,1,0.4,1,1v17.9
			C48.9,215.4,48.5,215.9,47.9,215.9z M39.9,213.9h7V198h-7V213.9z"/>
	</g>
	<g>
		<polygon class="st0" points="38.9,117.5 38.9,59.2 47.9,59.2 47.9,186 38.9,186 38.9,127 		"/>
		<path class="st1" d="M47.9,187h-9c-0.6,0-1-0.4-1-1v-59c0-0.6,0.4-1,1-1s1,0.4,1,1v58h7V60.2h-7v57.2c0,0.6-0.4,1-1,1s-1-0.4-1-1
			V59.2c0-0.6,0.4-1,1-1h9c0.6,0,1,0.4,1,1V186C48.9,186.6,48.5,187,47.9,187z"/>
	</g>
	<g>
		<path class="st1" d="M38.9,124.3c-0.6,0-1-0.4-1-1v-2.2c0-0.6,0.4-1,1-1s1,0.4,1,1v2.2C39.9,123.9,39.5,124.3,38.9,124.3z"/>
	</g>
	<g>
		<polygon class="st0" points="25.5,17.2 82.3,17.2 82.3,59.2 4.6,59.2 4.6,17.2 16.8,17.2 		"/>
		<path class="st1" d="M82.3,60.2H4.6c-0.6,0-1-0.4-1-1v-42c0-0.6,0.4-1,1-1h12.3c0.6,0,1,0.4,1,1s-0.4,1-1,1H5.6v40h75.7v-40H25.5
			c-0.6,0-1-0.4-1-1s0.4-1,1-1h56.8c0.6,0,1,0.4,1,1v42C83.3,59.8,82.8,60.2,82.3,60.2z"/>
	</g>
	<polygon class="st2" points="197.3,197 20.5,197 20.5,186 253.4,186 253.4,197 205,197 	"/>
	<polygon class="st2" points="68.4,20.7 82.3,20.7 82.3,55.7 11.1,55.7 11.1,20.7 64.1,20.7 	"/>
	<g>
		<path class="st1" d="M22,18.2h-1.5c-0.6,0-1-0.4-1-1s0.4-1,1-1H22c0.6,0,1,0.4,1,1S22.6,18.2,22,18.2z"/>
	</g>
	<g>
		<path class="st1" d="M78.8,56.2H8.1c-0.3,0-0.5-0.2-0.5-0.5v-35c0-0.3,0.2-0.5,0.5-0.5h52.7c0.3,0,0.5,0.2,0.5,0.5
			s-0.2,0.5-0.5,0.5H8.6v34h69.7v-34H65c-0.3,0-0.5-0.2-0.5-0.5s0.2-0.5,0.5-0.5h13.8c0.3,0,0.5,0.2,0.5,0.5v35
			C79.3,56,79.1,56.2,78.8,56.2z"/>
	</g>
	<g>
		<rect x="38.9" y="225.8" class="st0" width="9" height="12.9"/>
		<path class="st1" d="M47.9,239.8h-9c-0.6,0-1-0.4-1-1v-12.9c0-0.6,0.4-1,1-1h9c0.6,0,1,0.4,1,1v12.9
			C48.9,239.3,48.5,239.8,47.9,239.8z M39.9,237.8h7v-10.9h-7V237.8z"/>
	</g>
	<g>
		<rect x="220.1" y="197" class="st0" width="9" height="17.9"/>
		<path class="st1" d="M229,215.9h-9c-0.6,0-1-0.4-1-1V197c0-0.6,0.4-1,1-1h9c0.6,0,1,0.4,1,1v17.9C230,215.4,229.6,215.9,229,215.9
			z M221.1,213.9h7V198h-7V213.9z"/>
	</g>
	<g>
		<rect x="220.1" y="225.8" class="st0" width="9" height="12.9"/>
		<path class="st1" d="M229,239.8h-9c-0.6,0-1-0.4-1-1v-12.9c0-0.6,0.4-1,1-1h9c0.6,0,1,0.4,1,1v12.9
			C230,239.3,229.6,239.8,229,239.8z M221.1,237.8h7v-10.9h-7V237.8z"/>
	</g>
	<g>
		<g>
			<path class="st1" d="M29.8,50.3c-0.1,0-0.3,0-0.4-0.1c-0.2-0.2-0.2-0.5,0-0.7l23.5-23.5c0.2-0.2,0.5-0.2,0.7,0s0.2,0.5,0,0.7
				L30.1,50.1C30,50.2,29.9,50.3,29.8,50.3z"/>
		</g>
		<g>
			<path class="st1" d="M37.7,50.7c-0.1,0-0.3,0-0.4-0.1c-0.2-0.2-0.2-0.5,0-0.7l19.3-19.3c0.2-0.2,0.5-0.2,0.7,0s0.2,0.5,0,0.7
				L38.1,50.6C38,50.7,37.9,50.7,37.7,50.7z"/>
		</g>
	</g>
	<g>
		<path class="st1" d="M251.4,192H88.9c-0.3,0-0.5-0.2-0.5-0.5s0.2-0.5,0.5-0.5h162.6c0.3,0,0.5,0.2,0.5,0.5S251.7,192,251.4,192z"
			/>
	</g>
	<g>
		<path class="st1" d="M86.4,192h-2.8c-0.3,0-0.5-0.2-0.5-0.5s0.2-0.5,0.5-0.5h2.8c0.3,0,0.5,0.2,0.5,0.5S86.7,192,86.4,192z"/>
	</g>
	<g>
		<path class="st1" d="M80.1,192H17.5c-0.3,0-0.5-0.2-0.5-0.5s0.2-0.5,0.5-0.5h62.6c0.3,0,0.5,0.2,0.5,0.5S80.4,192,80.1,192z"/>
	</g>
	<g>
		<path class="st1" d="M238.5,220.9h-209c-0.3,0-0.5-0.2-0.5-0.5s0.2-0.5,0.5-0.5h209c0.3,0,0.5,0.2,0.5,0.5
			S238.8,220.9,238.5,220.9z"/>
	</g>
	<g>
		<polygon class="st0" points="73.3,150.4 73.3,98.8 190.7,98.8 190.7,125.4 151.7,125.4 151.7,185.9 73.3,185.9 73.3,155.9 		"/>
		<path class="st1" d="M151.7,186.9H73.3c-0.6,0-1-0.4-1-1v-30c0-0.6,0.4-1,1-1s1,0.4,1,1v29h76.4v-59.6c0-0.6,0.4-1,1-1h38.1V99.8
			H74.3v50.5c0,0.6-0.4,1-1,1s-1-0.4-1-1V98.8c0-0.6,0.4-1,1-1h117.4c0.6,0,1,0.4,1,1v26.5c0,0.6-0.4,1-1,1h-38.1v59.6
			C152.7,186.5,152.2,186.9,151.7,186.9z"/>
	</g>
	<g>
		<polygon class="st0" points="234,153.9 234,186 151.7,186 151.7,125.4 234,125.4 234,149.2 		"/>
		<path class="st1" d="M234,187h-82.4c-0.6,0-1-0.4-1-1v-60.7c0-0.6,0.4-1,1-1H234c0.6,0,1,0.4,1,1v23.8c0,0.6-0.4,1-1,1s-1-0.4-1-1
			v-22.8h-80.4V185H233v-31.2c0-0.6,0.4-1,1-1s1,0.4,1,1V186C235,186.6,234.6,187,234,187z"/>
	</g>
	<g>
		<polygon class="st0" points="130.8,74.5 130.8,45.7 213.1,45.7 213.1,125.4 190.7,125.4 190.7,98.9 130.8,98.9 130.8,79 		"/>
		<path class="st1" d="M213.1,126.4h-22.4c-0.6,0-1-0.4-1-1V99.9h-59c-0.6,0-1-0.4-1-1V79c0-0.6,0.4-1,1-1s1,0.4,1,1v18.9h59
			c0.6,0,1,0.4,1,1v25.4h20.4V46.7h-80.4v27.8c0,0.6-0.4,1-1,1s-1-0.4-1-1V45.7c0-0.6,0.4-1,1-1h82.4c0.6,0,1,0.4,1,1v79.7
			C214.1,125.9,213.7,126.4,213.1,126.4z"/>
	</g>
	<rect x="178.7" y="171.1" class="st2" width="36.1" height="14.9"/>
	<polygon class="st2" points="175.9,66.6 161.6,66.6 161.6,45.7 190.2,45.7 190.2,66.6 181.3,66.6 	"/>
	
		<rect x="127" y="91" transform="matrix(-1.836970e-16 1 -1 -1.836970e-16 241.4016 -27.6165)" class="st2" width="14.9" height="31.9"/>
	
		<rect x="189.2" y="121.9" transform="matrix(-1.836970e-16 1 -1 -1.836970e-16 325.7544 -63.821)" class="st2" width="11.2" height="18.2"/>
	
		<rect x="117.2" y="151.6" transform="matrix(-1.836970e-16 1 -1 -1.836970e-16 303.231 53.8792)" class="st2" width="14.9" height="54"/>
	<g>
		<path class="st1" d="M191.2,72.6h-38.6c-0.6,0-1-0.4-1-1V45.7c0-0.6,0.4-1,1-1h38.6c0.6,0,1,0.4,1,1v25.9
			C192.2,72.1,191.8,72.6,191.2,72.6z M153.7,70.6h36.6V46.7h-36.6V70.6z"/>
	</g>
	<g>
		<path class="st1" d="M186.2,67.1h-9c-0.3,0-0.5-0.2-0.5-0.5s0.2-0.5,0.5-0.5h8.5V46.2h-27.6v19.9h13.8c0.3,0,0.5,0.2,0.5,0.5
			s-0.2,0.5-0.5,0.5h-14.3c-0.3,0-0.5-0.2-0.5-0.5V45.7c0-0.3,0.2-0.5,0.5-0.5h28.6c0.3,0,0.5,0.2,0.5,0.5v20.9
			C186.7,66.9,186.5,67.1,186.2,67.1z"/>
	</g>
	<g>
		<path class="st1" d="M151.4,120.3h-41.8c-0.6,0-1-0.4-1-1V99.4c0-0.6,0.4-1,1-1h41.8c0.6,0,1,0.4,1,1v19.9
			C152.4,119.9,152,120.3,151.4,120.3z M110.6,118.3h39.8v-17.9h-39.8V118.3z"/>
	</g>
	<g>
		<path class="st1" d="M146.4,114.9h-31.9c-0.3,0-0.5-0.2-0.5-0.5V99.4c0-0.3,0.2-0.5,0.5-0.5h31.9c0.3,0,0.5,0.2,0.5,0.5v14.9
			C146.9,114.6,146.7,114.9,146.4,114.9z M115.1,113.9h30.9V99.9h-30.9V113.9z"/>
	</g>
	<g>
		<path class="st1" d="M204.3,141.3h-27c-0.6,0-1-0.4-1-1v-14.9c0-0.6,0.4-1,1-1h27c0.6,0,1,0.4,1,1v14.9
			C205.3,140.9,204.8,141.3,204.3,141.3z M178.3,139.3h25v-12.9h-25V139.3z"/>
	</g>
	<g>
		<path class="st1" d="M199.9,137.1h-18.2c-0.3,0-0.5-0.2-0.5-0.5v-11.2c0-0.3,0.2-0.5,0.5-0.5h18.2c0.3,0,0.5,0.2,0.5,0.5v11.2
			C200.4,136.8,200.2,137.1,199.9,137.1z M182.2,136.1h17.2v-10.2h-17.2V136.1z"/>
	</g>
	<g>
		<path class="st1" d="M151.7,186.5h-58c-0.3,0-0.5-0.2-0.5-0.5v-14.9c0-0.3,0.2-0.5,0.5-0.5h58c0.3,0,0.5,0.2,0.5,0.5V186
			C152.2,186.3,151.9,186.5,151.7,186.5z M94.2,185.5h57v-13.9h-57V185.5z"/>
	</g>
	<g>
		<path class="st1" d="M211,186.5h-36.2c-0.3,0-0.5-0.2-0.5-0.5v-14.9c0-0.3,0.2-0.5,0.5-0.5H211c0.3,0,0.5,0.2,0.5,0.5V186
			C211.5,186.3,211.2,186.5,211,186.5z M175.2,185.5h35.2v-13.9h-35.2V185.5z"/>
	</g>
	<g>
		<path class="st1" d="M82.3,60.2H4.6c-0.6,0-1-0.4-1-1v-42c0-0.6,0.4-1,1-1h12.3c0.6,0,1,0.4,1,1s-0.4,1-1,1H5.6v40h75.7v-40H25.5
			c-0.6,0-1-0.4-1-1s0.4-1,1-1h56.8c0.6,0,1,0.4,1,1v42C83.3,59.8,82.8,60.2,82.3,60.2z"/>
	</g>
	<g>
		<path class="st1" d="M151.7,187h-63c-0.6,0-1-0.4-1-1v-19.9c0-0.6,0.4-1,1-1h38.2c0.6,0,1,0.4,1,1s-0.4,1-1,1H89.7V185h61v-17.9
			h-18.5c-0.6,0-1-0.4-1-1s0.4-1,1-1h19.5c0.6,0,1,0.4,1,1V186C152.7,186.6,152.2,187,151.7,187z"/>
	</g>
	<g>
		<path class="st1" d="M215.9,187h-46.2c-0.6,0-1-0.4-1-1v-19.9c0-0.6,0.4-1,1-1h46.2c0.6,0,1,0.4,1,1V186
			C216.9,186.6,216.5,187,215.9,187z M170.8,185h44.2v-17.9h-44.2V185z"/>
	</g>
	<g>
		<path class="st1" d="M250.9,198h-49.4c-0.6,0-1-0.4-1-1s0.4-1,1-1h48.4V187H18v8.9h175.8c0.6,0,1,0.4,1,1s-0.4,1-1,1H17
			c-0.6,0-1-0.4-1-1V186c0-0.6,0.4-1,1-1h233.9c0.6,0,1,0.4,1,1V197C251.9,197.5,251.5,198,250.9,198z"/>
	</g>
	<g>
		<path class="st1" d="M239,226.8h-59.8c-0.6,0-1-0.4-1-1s0.4-1,1-1H238v-8.9H30v8.9h143c0.6,0,1,0.4,1,1s-0.4,1-1,1H29
			c-0.6,0-1-0.4-1-1v-10.9c0-0.6,0.4-1,1-1h210c0.6,0,1,0.4,1,1v10.9C240,226.4,239.6,226.8,239,226.8z"/>
	</g>
</g>
</svg>
