<?xml version="1.0" encoding="utf-8"?>
<!-- Generator: Adobe Illustrator 22.1.0, SVG Export Plug-In . SVG Version: 6.00 Build 0)  -->
<svg version="1.1" id="Layer_1" xmlns="http://www.w3.org/2000/svg" xmlns:xlink="http://www.w3.org/1999/xlink" x="0px" y="0px"
	 viewBox="0 0 256 256" style="enable-background:new 0 0 256 256;" xml:space="preserve">
<style type="text/css">
	.st0{fill:#DBFDFF;}
	.st1{fill:#48386A;}
	.st2{fill:#9FEAFF;}
	.st3{fill:#FFFFFF;}
	.st4{fill:#FF8584;}
	.st5{fill:#FEBE7F;}
</style>
<g>
	<path class="st0" d="M206.6,137.1c21.7-7.1,37.4-27.5,37.4-51.6c0-28.2-21.5-51.4-49-54c-9.8-14.1-26.1-23.4-44.6-23.4
		c-11.6,0-22.4,3.7-31.2,9.9c-8-4.6-17.2-7.2-27-7.2c-29.1,0-52.8,22.9-54.2,51.7C20.7,71.6,9,89.6,9,110.4
		c0,23,14.3,42.6,34.4,50.5c-8.5,9.6-13.7,22.2-13.7,36c0,30,24.3,54.3,54.3,54.3c11.4,0,21.9-3.5,30.6-9.5
		c4.3,1.1,8.8,1.7,13.4,1.7c11.2,0,21.7-3.4,30.3-9.3c6.6,2.8,13.8,4.4,21.4,4.4c30,0,54.3-24.3,54.3-54.3
		C234,164.1,222.9,146.5,206.6,137.1z"/>
	<g>
		<circle class="st1" cx="47.3" cy="198" r="8.8"/>
		<circle class="st2" cx="24.2" cy="198" r="8.8"/>
	</g>
	<g>
		<g>
			<rect x="236" y="173" class="st3" width="8.8" height="43"/>
			<path class="st1" d="M244.8,217H236c-0.6,0-1-0.4-1-1v-43c0-0.6,0.4-1,1-1h8.8c0.6,0,1,0.4,1,1v43
				C245.8,216.6,245.3,217,244.8,217z M237,215h6.8v-41H237V215z"/>
		</g>
		<g>
			<path class="st3" d="M189.5,47.5c28.1,19.5,46.5,52,46.5,88.8V216H20v-79.8c0-59.6,48.4-108,108-108c19.8,0,38.5,5.4,54.4,14.8
				L189.5,47.5z"/>
			<path class="st1" d="M236,217H20c-0.6,0-1-0.4-1-1v-79.8c0-60.1,48.9-109,109-109c19.3,0,38.3,5.1,55,14.9
				c0.5,0.3,0.6,0.9,0.4,1.4c-0.3,0.5-0.9,0.6-1.4,0.4c-16.3-9.6-35-14.6-53.9-14.6c-59,0-107,48-107,107V215h214v-78.8
				c0-35-17.2-67.9-46.1-87.9c-0.5-0.3-0.6-0.9-0.3-1.4s0.9-0.6,1.4-0.3c29.4,20.4,47,53.9,47,89.6V216C237,216.6,236.6,217,236,217
				z"/>
		</g>
		<path class="st4" d="M194.5,47.5c28.1,19.5,46.5,52,46.5,88.8V216H25v-79.8c0-59.6,48.4-108,108-108c19.8,0,38.5,5.4,54.4,14.8
			L194.5,47.5z"/>
		<g>
			<path class="st3" d="M226,147.6V216H30v-79.8c0-54.1,43.9-98,98-98h0c54.1,0,98,43.9,98,98v5.3V147.6z"/>
			<path class="st1" d="M226,217H30c-0.6,0-1-0.4-1-1v-79.8c0-54.6,44.4-99,99-99s99,44.4,99,99v5.3c0,0.6-0.4,1-1,1s-1-0.4-1-1
				v-5.3c0-53.5-43.5-97-97-97s-97,43.5-97,97V215h194v-67.5c0-0.6,0.4-1,1-1s1,0.4,1,1V216C227,216.6,226.6,217,226,217z"/>
		</g>
		<g>
			<path class="st1" d="M236,217H20c-0.6,0-1-0.4-1-1v-79.8c0-60.1,48.9-109,109-109c19.3,0,38.3,5.1,55,14.9
				c0.5,0.3,0.6,0.9,0.4,1.4c-0.3,0.5-0.9,0.6-1.4,0.4c-16.3-9.6-35-14.6-53.9-14.6c-59,0-107,48-107,107V215h214v-78.8
				c0-35-17.2-67.9-46.1-87.9c-0.5-0.3-0.6-0.9-0.3-1.4s0.9-0.6,1.4-0.3c29.4,20.4,47,53.9,47,89.6V216C237,216.6,236.6,217,236,217
				z"/>
		</g>
		<g>
			<polygon class="st2" points="33.8,227.8 5,227.8 5,216 251,216 251,227.8 41.7,227.8 			"/>
			<path class="st1" d="M251,228.8H41.7c-0.6,0-1-0.4-1-1s0.4-1,1-1H250V217H6v9.7h27.8c0.6,0,1,0.4,1,1s-0.4,1-1,1H5
				c-0.6,0-1-0.4-1-1V216c0-0.6,0.4-1,1-1h246c0.6,0,1,0.4,1,1v11.7C252,228.3,251.6,228.8,251,228.8z"/>
		</g>
		<g>
			<polygon class="st3" points="11.3,185.3 11.3,173 20,173 20,216 11.3,216 11.3,191.8 			"/>
			<path class="st1" d="M20,217h-8.8c-0.6,0-1-0.4-1-1v-24.3c0-0.6,0.4-1,1-1s1,0.4,1,1V215H19v-41h-6.8v11.2c0,0.6-0.4,1-1,1
				s-1-0.4-1-1V173c0-0.6,0.4-1,1-1H20c0.6,0,1,0.4,1,1v43C21,216.6,20.6,217,20,217z"/>
		</g>
		<g>
			<path class="st1" d="M84,117.4H42.3c-0.3,0-0.6-0.1-0.8-0.4c-0.2-0.2-0.3-0.6-0.2-0.8c1.3-5.8,3.3-11.5,5.8-16.9
				c0.2-0.4,0.5-0.6,0.9-0.6h8.9c0.6,0,1,0.4,1,1s-0.4,1-1,1h-8.2c-2.1,4.7-3.8,9.7-5.1,14.7H83v-14.7H64.6c-0.6,0-1-0.4-1-1
				s0.4-1,1-1H84c0.6,0,1,0.4,1,1v16.7C85,117,84.6,117.4,84,117.4z"/>
		</g>
		<g>
			<path class="st1" d="M150.3,117.4h-11.5c-0.6,0-1-0.4-1-1s0.4-1,1-1h10.5v-14.7h-42.7v14.7h25c0.6,0,1,0.4,1,1s-0.4,1-1,1h-26
				c-0.6,0-1-0.4-1-1V99.7c0-0.6,0.4-1,1-1h44.7c0.6,0,1,0.4,1,1v16.7C151.3,117,150.9,117.4,150.3,117.4z"/>
		</g>
		<g>
			<path class="st1" d="M108.3,67.9h-3.8c-0.3,0-0.5-0.2-0.5-0.5s0.2-0.5,0.5-0.5h3.8c0.3,0,0.5,0.2,0.5,0.5S108.5,67.9,108.3,67.9z
				"/>
		</g>
		<g>
			<path class="st1" d="M213.7,117.4H172c-0.6,0-1-0.4-1-1V99.7c0-0.6,0.4-1,1-1h36c0.4,0,0.7,0.2,0.9,0.6
				c2.5,5.4,4.4,11.1,5.8,16.9c0.1,0.3,0,0.6-0.2,0.8C214.3,117.3,214,117.4,213.7,117.4z M173,115.4h39.5c-1.2-5-2.9-10-5.1-14.7
				H173V115.4z"/>
		</g>
		<path class="st2" d="M202.5,104.7h5.1c0.8,2.2,1.6,4.4,2.2,6.7H182v-6.7h14.6H202.5z"/>
		<path class="st2" d="M53.8,111.4c0.7-2.3,1.4-4.5,2.2-6.7h25.6v6.7H53.8z"/>
		
			<rect x="128.6" y="91.8" transform="matrix(-1.836970e-16 1 -1 -1.836970e-16 239.9759 -23.8573)" class="st2" width="6.7" height="32.5"/>
		<polygon class="st2" points="115.7,67.4 177.7,67.4 177.7,84 88.3,84 88.3,67.4 105.5,67.4 		"/>
		
			<rect x="90.2" y="89.8" transform="matrix(-1.836970e-16 1 -1 -1.836970e-16 306.2893 40.2893)" class="st5" width="85.5" height="166.9"/>
		<g>
			<path class="st1" d="M211.5,216.5H44.5c-0.3,0-0.5-0.2-0.5-0.5v-17c0-0.3,0.2-0.5,0.5-0.5h166.9c0.3,0,0.5,0.2,0.5,0.5v17
				C212,216.3,211.7,216.5,211.5,216.5z M45,215.5H211v-16H45V215.5z"/>
		</g>
		<g>
			<path class="st1" d="M211.5,199.4H44.5c-0.3,0-0.5-0.2-0.5-0.5v-17c0-0.3,0.2-0.5,0.5-0.5h166.9c0.3,0,0.5,0.2,0.5,0.5v17
				C212,199.2,211.7,199.4,211.5,199.4z M45,198.4H211v-16H45V198.4z"/>
		</g>
		<g>
			<path class="st1" d="M211.5,182.3H44.5c-0.3,0-0.5-0.2-0.5-0.5v-17c0-0.3,0.2-0.5,0.5-0.5H136c0.3,0,0.5,0.2,0.5,0.5
				s-0.2,0.5-0.5,0.5H45v16H211v-16h-65.6c-0.3,0-0.5-0.2-0.5-0.5s0.2-0.5,0.5-0.5h66.1c0.3,0,0.5,0.2,0.5,0.5v17
				C212,182.1,211.7,182.3,211.5,182.3z"/>
		</g>
		<g>
			<path class="st1" d="M211.5,165.2h-66.1c-0.3,0-0.5-0.2-0.5-0.5s0.2-0.5,0.5-0.5H211v-16H45v16h91c0.3,0,0.5,0.2,0.5,0.5
				s-0.2,0.5-0.5,0.5H44.5c-0.3,0-0.5-0.2-0.5-0.5v-17c0-0.3,0.2-0.5,0.5-0.5h166.9c0.3,0,0.5,0.2,0.5,0.5v17
				C212,165,211.7,165.2,211.5,165.2z"/>
		</g>
		<g>
			<path class="st1" d="M251,222.4H120.8c-0.3,0-0.5-0.2-0.5-0.5s0.2-0.5,0.5-0.5H251c0.3,0,0.5,0.2,0.5,0.5S251.3,222.4,251,222.4z
				"/>
		</g>
		<g>
			<path class="st1" d="M114,222.4H5c-0.3,0-0.5-0.2-0.5-0.5s0.2-0.5,0.5-0.5h109c0.3,0,0.5,0.2,0.5,0.5S114.3,222.4,114,222.4z"/>
		</g>
		<g>
			<path class="st1" d="M79,111.9H48.8c-0.2,0-0.3-0.1-0.4-0.2c-0.1-0.1-0.1-0.3-0.1-0.4c0.7-2.3,1.5-4.6,2.5-6.8
				c0.1-0.2,0.3-0.3,0.5-0.3H79c0.3,0,0.5,0.2,0.5,0.5v6.7C79.5,111.7,79.3,111.9,79,111.9z M49.5,110.9h29v-5.7H51.6
				C50.8,107.1,50.1,109,49.5,110.9z"/>
		</g>
		<g>
			<path class="st1" d="M145.3,111.9h-34.7c-0.3,0-0.5-0.2-0.5-0.5v-6.7c0-0.3,0.2-0.5,0.5-0.5h34.7c0.3,0,0.5,0.2,0.5,0.5v6.7
				C145.8,111.7,145.6,111.9,145.3,111.9z M111.2,110.9h33.7v-5.7h-33.7V110.9z"/>
		</g>
		<g>
			<path class="st1" d="M172.7,84.5H83.3c-0.3,0-0.5-0.2-0.5-0.5V67.4c0-0.3,0.2-0.5,0.5-0.5h17.2c0.3,0,0.5,0.2,0.5,0.5
				s-0.2,0.5-0.5,0.5H83.8v15.6h88.3V67.9h-61.5c-0.3,0-0.5-0.2-0.5-0.5s0.2-0.5,0.5-0.5h62c0.3,0,0.5,0.2,0.5,0.5V84
				C173.2,84.3,172.9,84.5,172.7,84.5z"/>
		</g>
		<g>
			<path class="st1" d="M211.5,216.5H44.5c-0.3,0-0.5-0.2-0.5-0.5v-85.5c0-0.3,0.2-0.5,0.5-0.5h166.9c0.3,0,0.5,0.2,0.5,0.5V216
				C212,216.3,211.7,216.5,211.5,216.5z M45,215.5H211V131H45V215.5z"/>
		</g>
		<g>
			<path class="st1" d="M207.2,111.9H177c-0.3,0-0.5-0.2-0.5-0.5v-6.7c0-0.3,0.2-0.5,0.5-0.5h15.9c0.3,0,0.5,0.2,0.5,0.5
				s-0.2,0.5-0.5,0.5h-15.4v5.7h29c-0.6-1.9-1.3-3.8-2.1-5.7h-5.2c-0.3,0-0.5-0.2-0.5-0.5s0.2-0.5,0.5-0.5h5.5
				c0.2,0,0.4,0.1,0.5,0.3c0.9,2.2,1.7,4.5,2.5,6.8c0,0.2,0,0.3-0.1,0.4C207.5,111.8,207.4,111.9,207.2,111.9z"/>
		</g>
		<g>
			<path class="st1" d="M216.7,217H39.3c-0.6,0-1-0.4-1-1v-70c0-0.6,0.4-1,1-1s1,0.4,1,1v69h175.3v-88.7H40.3v12.1c0,0.6-0.4,1-1,1
				s-1-0.4-1-1v-13.1c0-0.6,0.4-1,1-1h177.3c0.6,0,1,0.4,1,1V216C217.7,216.6,217.2,217,216.7,217z"/>
		</g>
		<g>
			<path class="st1" d="M177.7,90H78.3c-0.6,0-1-0.4-1-1V62.4c0-0.6,0.4-1,1-1h99.3c0.6,0,1,0.4,1,1V89
				C178.7,89.6,178.2,90,177.7,90z M79.3,88h97.3V63.4H79.3V88z"/>
		</g>
		<g>
			<path class="st1" d="M244.8,217H236c-0.6,0-1-0.4-1-1v-43c0-0.6,0.4-1,1-1h8.8c0.6,0,1,0.4,1,1v43
				C245.8,216.6,245.3,217,244.8,217z M237,215h6.8v-41H237V215z"/>
		</g>
	</g>
	<g>
		<path class="st1" d="M70.2,241.7c-1.6,0-3-1.3-3-3s1.3-3,3-3s3,1.3,3,3S71.9,241.7,70.2,241.7z M70.2,236.8c-1.1,0-2,0.9-2,2
			s0.9,2,2,2c1.1,0,2-0.9,2-2S71.3,236.8,70.2,236.8z"/>
	</g>
	<g>
		<path class="st4" d="M59.5,38.8c-1.6,0-3-1.3-3-3s1.3-3,3-3s3,1.3,3,3S61.1,38.8,59.5,38.8z M59.5,33.8c-1.1,0-2,0.9-2,2
			s0.9,2,2,2s2-0.9,2-2S60.6,33.8,59.5,33.8z"/>
	</g>
	<g>
		<path class="st1" d="M97.3,22.4c0,0-0.1,0-0.1,0l-1-0.3c-0.3-0.1-0.4-0.4-0.3-0.6c0.1-0.3,0.4-0.4,0.6-0.3l0.1,0l-0.5-1.8
			c0-0.1,0-0.2,0-0.3l0.5-1.8l-1.8,0.5c-0.1,0-0.2,0-0.3,0l-1.8-0.5l0.5,1.8c0,0.1,0,0.2,0,0.3l-0.5,1.8l1.8-0.5
			c0.3-0.1,0.5,0.1,0.6,0.3c0.1,0.3-0.1,0.5-0.3,0.6l-2.7,0.8c-0.2,0-0.4,0-0.5-0.1c-0.1-0.1-0.2-0.3-0.1-0.5l0.8-2.6l-0.8-2.6
			c-0.1-0.2,0-0.4,0.1-0.5c0.1-0.1,0.3-0.2,0.5-0.1l2.6,0.8l2.6-0.8c0.2-0.1,0.4,0,0.5,0.1s0.2,0.3,0.1,0.5l-0.8,2.6l0.8,2.6
			c0.1,0.2,0,0.4-0.1,0.5C97.6,22.3,97.5,22.4,97.3,22.4z"/>
	</g>
	<g>
		<path class="st5" d="M223.3,64.4c-0.1,0-0.3-0.1-0.4-0.1c-0.1-0.1-0.2-0.3-0.1-0.5l0.8-2.6l-0.8-2.6c-0.1-0.2,0-0.4,0.1-0.5
			c0.1-0.1,0.3-0.2,0.5-0.1l2.6,0.8l2.6-0.8c0.2-0.1,0.4,0,0.5,0.1s0.2,0.3,0.1,0.5l-0.8,2.6l0.8,2.6c0.1,0.2,0,0.4-0.1,0.5
			s-0.3,0.2-0.5,0.1l-1-0.3c-0.3-0.1-0.4-0.4-0.3-0.6c0.1-0.3,0.4-0.4,0.6-0.3l0.1,0l-0.5-1.8c0-0.1,0-0.2,0-0.3l0.5-1.8l-1.8,0.5
			c-0.1,0-0.2,0-0.3,0l-1.8-0.5l0.5,1.8c0,0.1,0,0.2,0,0.3l-0.5,1.8l1.8-0.5c0.3-0.1,0.5,0.1,0.6,0.3c0.1,0.3-0.1,0.5-0.3,0.6
			l-2.7,0.8C223.4,64.4,223.3,64.4,223.3,64.4z"/>
	</g>
	<g>
		<g>
			<path class="st4" d="M128.3,235.1c-0.3,0-0.5-0.2-0.5-0.5v-2.4c0-0.3,0.2-0.5,0.5-0.5s0.5,0.2,0.5,0.5v2.4
				C128.8,234.9,128.5,235.1,128.3,235.1z"/>
		</g>
		<g>
			<path class="st4" d="M128.3,240.9c-0.3,0-0.5-0.2-0.5-0.5V238c0-0.3,0.2-0.5,0.5-0.5s0.5,0.2,0.5,0.5v2.4
				C128.8,240.7,128.5,240.9,128.3,240.9z"/>
		</g>
		<g>
			<path class="st4" d="M132.4,236.8H130c-0.3,0-0.5-0.2-0.5-0.5s0.2-0.5,0.5-0.5h2.4c0.3,0,0.5,0.2,0.5,0.5
				S132.7,236.8,132.4,236.8z"/>
		</g>
		<g>
			<path class="st4" d="M126.5,236.8h-2.4c-0.3,0-0.5-0.2-0.5-0.5s0.2-0.5,0.5-0.5h2.4c0.3,0,0.5,0.2,0.5,0.5
				S126.8,236.8,126.5,236.8z"/>
		</g>
	</g>
	<g>
		<g>
			<path class="st5" d="M162.1,17.9c-0.3,0-0.5-0.2-0.5-0.5V15c0-0.3,0.2-0.5,0.5-0.5s0.5,0.2,0.5,0.5v2.4
				C162.6,17.7,162.4,17.9,162.1,17.9z"/>
		</g>
		<g>
			<path class="st5" d="M162.1,23.8c-0.3,0-0.5-0.2-0.5-0.5v-2.4c0-0.3,0.2-0.5,0.5-0.5s0.5,0.2,0.5,0.5v2.4
				C162.6,23.6,162.4,23.8,162.1,23.8z"/>
		</g>
		<g>
			<path class="st5" d="M166.3,19.7h-2.4c-0.3,0-0.5-0.2-0.5-0.5s0.2-0.5,0.5-0.5h2.4c0.3,0,0.5,0.2,0.5,0.5S166.6,19.7,166.3,19.7z
				"/>
		</g>
		<g>
			<path class="st5" d="M160.4,19.7H158c-0.3,0-0.5-0.2-0.5-0.5s0.2-0.5,0.5-0.5h2.4c0.3,0,0.5,0.2,0.5,0.5S160.7,19.7,160.4,19.7z"
				/>
		</g>
	</g>
	<g>
		<g>
			<path class="st2" d="M20.9,85.5c-0.3,0-0.5-0.2-0.5-0.5v-2.4c0-0.3,0.2-0.5,0.5-0.5s0.5,0.2,0.5,0.5V85
				C21.4,85.2,21.1,85.5,20.9,85.5z"/>
		</g>
		<g>
			<path class="st2" d="M20.9,91.3c-0.3,0-0.5-0.2-0.5-0.5v-2.4c0-0.3,0.2-0.5,0.5-0.5s0.5,0.2,0.5,0.5v2.4
				C21.4,91.1,21.1,91.3,20.9,91.3z"/>
		</g>
		<g>
			<path class="st2" d="M25,87.2h-2.4c-0.3,0-0.5-0.2-0.5-0.5s0.2-0.5,0.5-0.5H25c0.3,0,0.5,0.2,0.5,0.5S25.3,87.2,25,87.2z"/>
		</g>
		<g>
			<path class="st2" d="M19.1,87.2h-2.4c-0.3,0-0.5-0.2-0.5-0.5s0.2-0.5,0.5-0.5h2.4c0.3,0,0.5,0.2,0.5,0.5S19.4,87.2,19.1,87.2z"/>
		</g>
	</g>
</g>
</svg>
