<?xml version="1.0" encoding="utf-8"?>
<!-- Generator: Adobe Illustrator 22.1.0, SVG Export Plug-In . SVG Version: 6.00 Build 0)  -->
<svg version="1.1" id="Layer_1" xmlns="http://www.w3.org/2000/svg" xmlns:xlink="http://www.w3.org/1999/xlink" x="0px" y="0px"
	 viewBox="0 0 256 256" style="enable-background:new 0 0 256 256;" xml:space="preserve">
<style type="text/css">
	.st0{fill:#FFFFFF;}
	.st1{fill:#48386A;}
	.st2{fill:#9FEAFF;}
</style>
<g>
	<g>
		<rect x="103.5" y="92.9" class="st0" width="109.3" height="11.4"/>
		<path class="st1" d="M212.8,105.3H103.5c-0.6,0-1-0.4-1-1V92.9c0-0.6,0.4-1,1-1h109.3c0.6,0,1,0.4,1,1v11.4
			C213.8,104.8,213.3,105.3,212.8,105.3z M104.5,103.3h107.3v-9.4H104.5V103.3z"/>
	</g>
	<rect x="107.5" y="92.9" class="st2" width="109.3" height="11.4"/>
	<g>
		<path class="st1" d="M212.8,105.3H103.5c-0.6,0-1-0.4-1-1V92.9c0-0.6,0.4-1,1-1h109.3c0.6,0,1,0.4,1,1v11.4
			C213.8,104.8,213.3,105.3,212.8,105.3z M104.5,103.3h107.3v-9.4H104.5V103.3z"/>
	</g>
	<g>
		<polygon class="st0" points="80.5,142.2 80.5,104.3 235.7,104.3 235.7,227.7 80.5,227.7 80.5,148 		"/>
		<path class="st1" d="M235.7,228.7H80.5c-0.6,0-1-0.4-1-1V148c0-0.6,0.4-1,1-1s1,0.4,1,1v78.7h153.2V105.3H81.5v37c0,0.6-0.4,1-1,1
			s-1-0.4-1-1v-38c0-0.6,0.4-1,1-1h155.2c0.6,0,1,0.4,1,1v123.4C236.7,228.2,236.3,228.7,235.7,228.7z"/>
	</g>
	<polygon class="st2" points="143.3,194.6 189.3,194.6 189.3,227.7 131.4,227.7 131.4,194.6 137.8,194.6 	"/>
	<g>
		<rect x="14.4" y="211.1" class="st0" width="66.1" height="16.5"/>
		<path class="st1" d="M80.5,228.7H14.4c-0.6,0-1-0.4-1-1v-16.5c0-0.6,0.4-1,1-1h66.1c0.6,0,1,0.4,1,1v16.5
			C81.5,228.2,81.1,228.7,80.5,228.7z M15.4,226.7h64.1v-14.5H15.4V226.7z"/>
	</g>
	<g>
		<polygon class="st0" points="31.8,136.5 31.8,77.6 63.1,77.6 63.1,198.4 31.8,198.4 31.8,142.2 		"/>
		<path class="st1" d="M63.1,199.4H31.8c-0.6,0-1-0.4-1-1v-56.2c0-0.6,0.4-1,1-1s1,0.4,1,1v55.2h29.3V78.6H32.8v58c0,0.6-0.4,1-1,1
			s-1-0.4-1-1v-59c0-0.6,0.4-1,1-1h31.3c0.6,0,1,0.4,1,1v120.8C64.1,199,63.7,199.4,63.1,199.4z"/>
	</g>
	<g>
		<rect x="166.3" y="13.1" class="st0" width="29.1" height="79.7"/>
		<path class="st1" d="M195.4,93.9h-29.1c-0.6,0-1-0.4-1-1V13.1c0-0.6,0.4-1,1-1h29.1c0.6,0,1,0.4,1,1v79.7
			C196.4,93.4,195.9,93.9,195.4,93.9z M167.3,91.9h27.1V14.1h-27.1V91.9z"/>
	</g>
	<g>
		<polygon class="st0" points="144.6,45.9 144.6,92.9 116.5,92.9 116.5,29.5 144.6,29.5 144.6,40.2 		"/>
		<path class="st1" d="M144.6,93.9h-28.2c-0.6,0-1-0.4-1-1V29.5c0-0.6,0.4-1,1-1h28.2c0.6,0,1,0.4,1,1v10.7c0,0.6-0.4,1-1,1
			s-1-0.4-1-1v-9.7h-26.2v61.4h26.2v-46c0-0.6,0.4-1,1-1s1,0.4,1,1v47C145.6,93.4,145.2,93.9,144.6,93.9z"/>
	</g>
	<g>
		<polygon class="st0" points="161.8,242.9 249.5,242.9 249.5,227.7 6.5,227.7 6.5,242.9 150,242.9 		"/>
		<path class="st1" d="M249.5,243.9h-87.8c-0.6,0-1-0.4-1-1s0.4-1,1-1h86.8v-13.2H7.5v13.2H150c0.6,0,1,0.4,1,1s-0.4,1-1,1H6.5
			c-0.6,0-1-0.4-1-1v-15.2c0-0.6,0.4-1,1-1h243c0.6,0,1,0.4,1,1v15.2C250.5,243.4,250.1,243.9,249.5,243.9z"/>
	</g>
	<g>
		<path class="st1" d="M158.3,243.9H155c-0.6,0-1-0.4-1-1s0.4-1,1-1h3.3c0.6,0,1,0.4,1,1S158.8,243.9,158.3,243.9z"/>
	</g>
	<g>
		<path class="st1" d="M249.5,235.8H31.8c-0.3,0-0.5-0.2-0.5-0.5s0.2-0.5,0.5-0.5h217.7c0.3,0,0.5,0.2,0.5,0.5
			S249.8,235.8,249.5,235.8z"/>
	</g>
	<g>
		<path class="st1" d="M23.3,235.8H6.5c-0.3,0-0.5-0.2-0.5-0.5s0.2-0.5,0.5-0.5h16.8c0.3,0,0.5,0.2,0.5,0.5S23.6,235.8,23.3,235.8z"
			/>
	</g>
	<g>
		<path class="st1" d="M185.3,211.6h-57.8c-0.3,0-0.5-0.2-0.5-0.5s0.2-0.5,0.5-0.5h57.8c0.3,0,0.5,0.2,0.5,0.5
			S185.5,211.6,185.3,211.6z"/>
	</g>
	<g>
		<path class="st1" d="M185.3,203.5h-57.8c-0.3,0-0.5-0.2-0.5-0.5s0.2-0.5,0.5-0.5h57.8c0.3,0,0.5,0.2,0.5,0.5
			S185.5,203.5,185.3,203.5z"/>
	</g>
	<g>
		<path class="st1" d="M185.3,219.9h-57.8c-0.3,0-0.5-0.2-0.5-0.5s0.2-0.5,0.5-0.5h57.8c0.3,0,0.5,0.2,0.5,0.5
			S185.5,219.9,185.3,219.9z"/>
	</g>
	<g>
		<path class="st1" d="M117.1,219.3h-13.3c-0.6,0-1-0.4-1-1s0.4-1,1-1h12.3v-21.7H94.4v21.7h5.1c0.6,0,1,0.4,1,1s-0.4,1-1,1h-6.1
			c-0.6,0-1-0.4-1-1v-23.7c0-0.6,0.4-1,1-1h23.7c0.6,0,1,0.4,1,1v23.7C118.1,218.9,117.6,219.3,117.1,219.3z"/>
	</g>
	<g>
		<path class="st1" d="M221.8,219.3h-23.7c-0.6,0-1-0.4-1-1v-23.7c0-0.6,0.4-1,1-1h23.7c0.6,0,1,0.4,1,1v23.7
			C222.8,218.9,222.4,219.3,221.8,219.3z M199.1,217.3h21.7v-21.7h-21.7V217.3z"/>
	</g>
	<g>
		<path class="st1" d="M117.1,182H93.4c-0.6,0-1-0.4-1-1v-23.7c0-0.6,0.4-1,1-1h23.7c0.6,0,1,0.4,1,1V181
			C118.1,181.6,117.6,182,117.1,182z M94.4,180h21.7v-21.7H94.4V180z"/>
	</g>
	<g>
		<path class="st1" d="M221.8,182h-23.7c-0.6,0-1-0.4-1-1v-23.7c0-0.6,0.4-1,1-1h23.7c0.6,0,1,0.4,1,1V181
			C222.8,181.6,222.4,182,221.8,182z M199.1,180h21.7v-21.7h-21.7V180z"/>
	</g>
	<g>
		<path class="st1" d="M185.3,182h-23.7c-0.6,0-1-0.4-1-1v-23.7c0-0.6,0.4-1,1-1h23.7c0.6,0,1,0.4,1,1V181
			C186.3,181.6,185.8,182,185.3,182z M162.5,180h21.7v-21.7h-21.7V180z"/>
	</g>
	<g>
		<path class="st1" d="M151.2,182h-23.7c-0.6,0-1-0.4-1-1v-23.7c0-0.6,0.4-1,1-1h23.7c0.6,0,1,0.4,1,1V181
			C152.2,181.6,151.7,182,151.2,182z M128.4,180h21.7v-21.7h-21.7V180z"/>
	</g>
	<g>
		<path class="st1" d="M117.1,141.3H93.4c-0.6,0-1-0.4-1-1v-23.7c0-0.6,0.4-1,1-1h8.3c0.6,0,1,0.4,1,1s-0.4,1-1,1h-7.3v21.7h21.7
			v-21.7H108c-0.6,0-1-0.4-1-1s0.4-1,1-1h9.1c0.6,0,1,0.4,1,1v23.7C118.1,140.9,117.6,141.3,117.1,141.3z"/>
	</g>
	<g>
		<path class="st1" d="M221.8,141.3h-23.7c-0.6,0-1-0.4-1-1v-23.7c0-0.6,0.4-1,1-1h23.7c0.6,0,1,0.4,1,1v23.7
			C222.8,140.9,222.4,141.3,221.8,141.3z M199.1,139.3h21.7v-21.7h-21.7V139.3z"/>
	</g>
	<g>
		<path class="st1" d="M185.3,141.3h-23.7c-0.6,0-1-0.4-1-1v-23.7c0-0.6,0.4-1,1-1h23.7c0.6,0,1,0.4,1,1v7.5c0,0.6-0.4,1-1,1
			s-1-0.4-1-1v-6.5h-21.7v21.7h21.7v-10.9c0-0.6,0.4-1,1-1s1,0.4,1,1v11.9C186.3,140.9,185.8,141.3,185.3,141.3z"/>
	</g>
	<g>
		<path class="st1" d="M151.2,141.3h-23.7c-0.6,0-1-0.4-1-1v-23.7c0-0.6,0.4-1,1-1h23.7c0.6,0,1,0.4,1,1v23.7
			C152.2,140.9,151.7,141.3,151.2,141.3z M128.4,139.3h21.7v-21.7h-21.7V139.3z"/>
	</g>
	<g>
		<rect x="35.8" y="151.9" class="st2" width="31.3" height="19"/>
		<rect x="35.8" y="105.1" class="st2" width="31.3" height="19"/>
	</g>
	<rect x="120.5" y="53" class="st2" width="28.2" height="16.4"/>
	<rect x="170.8" y="29.5" class="st2" width="28.2" height="16.4"/>
	<polygon class="st2" points="184.8,61.2 198.9,61.2 198.9,77.6 170.8,77.6 170.8,61.2 179.5,61.2 	"/>
	
		<rect x="100.4" y="199.1" transform="matrix(-1.836970e-16 1 -1 -1.836970e-16 314.9609 97.9772)" class="st2" width="16.1" height="14.7"/>
	<polygon class="st2" points="215.6,198.4 220.8,198.4 220.8,214.5 204.8,214.5 204.8,198.4 211.1,198.4 	"/>
	
		<rect x="100.4" y="161.8" transform="matrix(-1.836970e-16 1 -1 -1.836970e-16 277.6244 60.6406)" class="st2" width="16.1" height="14.7"/>
	
		<rect x="204.7" y="161.1" transform="matrix(-1.836970e-16 1 -1 -1.836970e-16 381.8988 -43.6338)" class="st2" width="16.1" height="16"/>
	
		<rect x="168.4" y="161.3" transform="matrix(-1.836970e-16 1 -1 -1.836970e-16 345.568 -7.303)" class="st2" width="16.1" height="15.6"/>
	
		<rect x="134.4" y="161.6" transform="matrix(-1.836970e-16 1 -1 -1.836970e-16 311.5752 26.6898)" class="st2" width="16.1" height="15.1"/>
	
		<rect x="100.4" y="121.1" transform="matrix(-1.836970e-16 1 -1 -1.836970e-16 236.9665 19.9827)" class="st2" width="16.1" height="14.7"/>
	
		<rect x="204.7" y="120.5" transform="matrix(-1.836970e-16 1 -1 -1.836970e-16 341.2409 -84.2917)" class="st2" width="16.1" height="16"/>
	
		<rect x="168.4" y="120.7" transform="matrix(-1.836970e-16 1 -1 -1.836970e-16 304.9101 -47.9608)" class="st2" width="16.1" height="15.6"/>
	
		<rect x="134.4" y="120.9" transform="matrix(-1.836970e-16 1 -1 -1.836970e-16 270.9173 -13.9681)" class="st2" width="16.1" height="15.1"/>
	<g>
		<path class="st1" d="M80.5,219.9H53.3c-0.3,0-0.5-0.2-0.5-0.5s0.2-0.5,0.5-0.5h27.3c0.3,0,0.5,0.2,0.5,0.5S80.8,219.9,80.5,219.9z
			"/>
	</g>
	<g>
		<path class="st1" d="M45.5,219.9H14.4c-0.3,0-0.5-0.2-0.5-0.5s0.2-0.5,0.5-0.5h31.1c0.3,0,0.5,0.2,0.5,0.5S45.8,219.9,45.5,219.9z
			"/>
	</g>
	<g>
		<path class="st1" d="M185.3,228.7h-57.8c-0.6,0-1-0.4-1-1v-33.1c0-0.6,0.4-1,1-1h6.3c0.6,0,1,0.4,1,1s-0.4,1-1,1h-5.3v31.1h55.8
			v-31.1h-45c-0.6,0-1-0.4-1-1s0.4-1,1-1h46c0.6,0,1,0.4,1,1v33.1C186.3,228.2,185.8,228.7,185.3,228.7z"/>
	</g>
	<g>
		<path class="st1" d="M113.3,215H97.2c-0.3,0-0.5-0.2-0.5-0.5v-16.1c0-0.3,0.2-0.5,0.5-0.5h16.1c0.3,0,0.5,0.2,0.5,0.5v16.1
			C113.8,214.8,113.6,215,113.3,215z M97.7,214h15.1v-15.1H97.7V214z"/>
	</g>
	<g>
		<path class="st1" d="M218,215h-16.1c-0.3,0-0.5-0.2-0.5-0.5v-16.1c0-0.3,0.2-0.5,0.5-0.5h6.4c0.3,0,0.5,0.2,0.5,0.5
			s-0.2,0.5-0.5,0.5h-5.9V214h15.1v-15.1h-4.7c-0.3,0-0.5-0.2-0.5-0.5s0.2-0.5,0.5-0.5h5.2c0.3,0,0.5,0.2,0.5,0.5v16.1
			C218.5,214.8,218.3,215,218,215z"/>
	</g>
	<g>
		<path class="st1" d="M113.3,177.7H97.2c-0.3,0-0.5-0.2-0.5-0.5v-16.1c0-0.3,0.2-0.5,0.5-0.5h16.1c0.3,0,0.5,0.2,0.5,0.5v16.1
			C113.8,177.5,113.6,177.7,113.3,177.7z M97.7,176.7h15.1v-15.1H97.7V176.7z"/>
	</g>
	<g>
		<path class="st1" d="M218,177.7h-16.1c-0.3,0-0.5-0.2-0.5-0.5v-16.1c0-0.3,0.2-0.5,0.5-0.5H218c0.3,0,0.5,0.2,0.5,0.5v16.1
			C218.5,177.5,218.3,177.7,218,177.7z M202.4,176.7h15.1v-15.1h-15.1V176.7z"/>
	</g>
	<g>
		<path class="st1" d="M181.5,177.7h-16.1c-0.3,0-0.5-0.2-0.5-0.5v-16.1c0-0.3,0.2-0.5,0.5-0.5h16.1c0.3,0,0.5,0.2,0.5,0.5v16.1
			C182,177.5,181.7,177.7,181.5,177.7z M165.8,176.7H181v-15.1h-15.1V176.7z"/>
	</g>
	<g>
		<path class="st1" d="M147.4,177.7h-16.1c-0.3,0-0.5-0.2-0.5-0.5v-16.1c0-0.3,0.2-0.5,0.5-0.5h16.1c0.3,0,0.5,0.2,0.5,0.5v16.1
			C147.9,177.5,147.7,177.7,147.4,177.7z M131.7,176.7h15.1v-15.1h-15.1V176.7z"/>
	</g>
	<g>
		<path class="st1" d="M113.3,137H97.2c-0.3,0-0.5-0.2-0.5-0.5v-16.1c0-0.3,0.2-0.5,0.5-0.5h16.1c0.3,0,0.5,0.2,0.5,0.5v16.1
			C113.8,136.8,113.6,137,113.3,137z M97.7,136h15.1v-15.1H97.7V136z"/>
	</g>
	<g>
		<path class="st1" d="M218,137h-16.1c-0.3,0-0.5-0.2-0.5-0.5v-16.1c0-0.3,0.2-0.5,0.5-0.5H218c0.3,0,0.5,0.2,0.5,0.5v16.1
			C218.5,136.8,218.3,137,218,137z M202.4,136h15.1v-15.1h-15.1V136z"/>
	</g>
	<g>
		<path class="st1" d="M181.5,137h-16.1c-0.3,0-0.5-0.2-0.5-0.5v-16.1c0-0.3,0.2-0.5,0.5-0.5h16.1c0.3,0,0.5,0.2,0.5,0.5v16.1
			C182,136.8,181.7,137,181.5,137z M165.8,136H181v-15.1h-15.1V136z"/>
	</g>
	<g>
		<path class="st1" d="M147.4,137h-16.1c-0.3,0-0.5-0.2-0.5-0.5v-16.1c0-0.3,0.2-0.5,0.5-0.5h16.1c0.3,0,0.5,0.2,0.5,0.5v16.1
			C147.9,136.8,147.7,137,147.4,137z M131.7,136h15.1v-15.1h-15.1V136z"/>
	</g>
	<g>
		<rect x="25.8" y="198.4" class="st0" width="43.3" height="12.9"/>
		<path class="st1" d="M69.1,212.3H25.8c-0.6,0-1-0.4-1-1v-12.9c0-0.6,0.4-1,1-1h43.3c0.6,0,1,0.4,1,1v12.9
			C70.1,211.8,69.7,212.3,69.1,212.3z M26.8,210.3h41.3v-10.9H26.8V210.3z"/>
	</g>
	<g>
		<g>
			<path class="st1" d="M63.1,171.4H31.8c-0.3,0-0.5-0.2-0.5-0.5v-19c0-0.3,0.2-0.5,0.5-0.5h31.3c0.3,0,0.5,0.2,0.5,0.5v19
				C63.6,171.2,63.4,171.4,63.1,171.4z M32.3,170.4h30.3v-18H32.3V170.4z"/>
		</g>
		<g>
			<path class="st1" d="M63.1,124.6H31.8c-0.3,0-0.5-0.2-0.5-0.5v-19c0-0.3,0.2-0.5,0.5-0.5h31.3c0.3,0,0.5,0.2,0.5,0.5v19
				C63.6,124.4,63.4,124.6,63.1,124.6z M32.3,123.6h30.3v-18H32.3V123.6z"/>
		</g>
	</g>
	<rect x="29.8" y="198.4" class="st2" width="43.3" height="12.9"/>
	<g>
		<path class="st1" d="M69.1,212.3H25.8c-0.6,0-1-0.4-1-1v-12.9c0-0.6,0.4-1,1-1h43.3c0.6,0,1,0.4,1,1v12.9
			C70.1,211.8,69.7,212.3,69.1,212.3z M26.8,210.3h41.3v-10.9H26.8V210.3z"/>
	</g>
	<g>
		<path class="st1" d="M63.1,199.4H31.8c-0.6,0-1-0.4-1-1v-56.2c0-0.6,0.4-1,1-1s1,0.4,1,1v55.2h29.3V78.6H32.8v58c0,0.6-0.4,1-1,1
			s-1-0.4-1-1v-59c0-0.6,0.4-1,1-1h31.3c0.6,0,1,0.4,1,1v120.8C64.1,199,63.7,199.4,63.1,199.4z"/>
	</g>
	<g>
		<path class="st1" d="M144.6,69.9h-28.2c-0.3,0-0.5-0.2-0.5-0.5V53c0-0.3,0.2-0.5,0.5-0.5h28.2c0.3,0,0.5,0.2,0.5,0.5v16.4
			C145.1,69.7,144.9,69.9,144.6,69.9z M117,68.9h27.2V53.5H117V68.9z"/>
	</g>
	<g>
		<path class="st1" d="M194.9,46.4h-28.2c-0.3,0-0.5-0.2-0.5-0.5V29.5c0-0.3,0.2-0.5,0.5-0.5h28.2c0.3,0,0.5,0.2,0.5,0.5v16.4
			C195.4,46.2,195.2,46.4,194.9,46.4z M167.3,45.4h27.2V30h-27.2V45.4z"/>
	</g>
	<g>
		<path class="st1" d="M194.9,78.1h-28.2c-0.3,0-0.5-0.2-0.5-0.5V61.2c0-0.3,0.2-0.5,0.5-0.5h8.7c0.3,0,0.5,0.2,0.5,0.5
			s-0.2,0.5-0.5,0.5h-8.2v15.4h27.2V61.7h-13.6c-0.3,0-0.5-0.2-0.5-0.5s0.2-0.5,0.5-0.5h14.1c0.3,0,0.5,0.2,0.5,0.5v16.4
			C195.4,77.8,195.2,78.1,194.9,78.1z"/>
	</g>
	<g>
		<path class="st1" d="M195.4,93.9h-29.1c-0.6,0-1-0.4-1-1V13.1c0-0.6,0.4-1,1-1h29.1c0.6,0,1,0.4,1,1v79.7
			C196.4,93.4,195.9,93.9,195.4,93.9z M167.3,91.9h27.1V14.1h-27.1V91.9z"/>
	</g>
	<g>
		<path class="st1" d="M144.6,93.9h-28.2c-0.6,0-1-0.4-1-1V29.5c0-0.6,0.4-1,1-1h28.2c0.6,0,1,0.4,1,1v10.7c0,0.6-0.4,1-1,1
			s-1-0.4-1-1v-9.7h-26.2v61.4h26.2v-46c0-0.6,0.4-1,1-1s1,0.4,1,1v47C145.6,93.4,145.2,93.9,144.6,93.9z"/>
	</g>
</g>
</svg>
