<?xml version="1.0" encoding="utf-8"?>
<!-- Generator: Adobe Illustrator 22.1.0, SVG Export Plug-In . SVG Version: 6.00 Build 0)  -->
<svg version="1.1" id="Layer_1" xmlns="http://www.w3.org/2000/svg" xmlns:xlink="http://www.w3.org/1999/xlink" x="0px" y="0px"
	 viewBox="0 0 256 256" style="enable-background:new 0 0 256 256;" xml:space="preserve">
<style type="text/css">
	.st0{fill:#FFFFFF;}
	.st1{fill:#48386A;}
	.st2{fill:#9FEAFF;}
</style>
<g>
	<g>
		<polygon class="st0" points="232.3,98.4 232.3,237.3 23.7,237.3 23.7,46.6 232.3,46.6 232.3,86.8 		"/>
		<path class="st1" d="M232.3,238.3H23.7c-0.6,0-1-0.4-1-1V46.6c0-0.6,0.4-1,1-1h208.6c0.6,0,1,0.4,1,1v40.2c0,0.6-0.4,1-1,1
			s-1-0.4-1-1V47.6H24.7v188.6h206.6V98.4c0-0.6,0.4-1,1-1s1,0.4,1,1v138.9C233.3,237.8,232.9,238.3,232.3,238.3z"/>
	</g>
	<g>
		<path class="st1" d="M232.3,95.2c-0.6,0-1-0.4-1-1v-2.9c0-0.6,0.4-1,1-1s1,0.4,1,1v2.9C233.3,94.7,232.9,95.2,232.3,95.2z"/>
	</g>
	<polygon class="st2" points="201.5,193.8 222.3,193.8 222.3,222.5 137.7,222.5 137.7,193.8 195.4,193.8 	"/>
	<g>
		<g>
			<path class="st1" d="M143.8,219c-0.3,0-0.5-0.2-0.5-0.5v-18.7c0-0.3,0.2-0.5,0.5-0.5s0.5,0.2,0.5,0.5v18.7
				C144.3,218.8,144.1,219,143.8,219z"/>
		</g>
		<g>
			<path class="st1" d="M149.2,219c-0.3,0-0.5-0.2-0.5-0.5v-9.8c0-0.3,0.2-0.5,0.5-0.5s0.5,0.2,0.5,0.5v9.8
				C149.7,218.8,149.4,219,149.2,219z"/>
		</g>
		<g>
			<path class="st1" d="M154.5,219c-0.3,0-0.5-0.2-0.5-0.5v-9.8c0-0.3,0.2-0.5,0.5-0.5s0.5,0.2,0.5,0.5v9.8
				C155,218.8,154.8,219,154.5,219z"/>
		</g>
		<g>
			<path class="st1" d="M159.9,219c-0.3,0-0.5-0.2-0.5-0.5v-18.7c0-0.3,0.2-0.5,0.5-0.5s0.5,0.2,0.5,0.5v18.7
				C160.4,218.8,160.2,219,159.9,219z"/>
		</g>
		<g>
			<path class="st1" d="M165.3,219c-0.3,0-0.5-0.2-0.5-0.5v-9.8c0-0.3,0.2-0.5,0.5-0.5s0.5,0.2,0.5,0.5v9.8
				C165.8,218.8,165.6,219,165.3,219z"/>
		</g>
		<g>
			<path class="st1" d="M170.7,219c-0.3,0-0.5-0.2-0.5-0.5v-18.7c0-0.3,0.2-0.5,0.5-0.5s0.5,0.2,0.5,0.5v18.7
				C171.2,218.8,170.9,219,170.7,219z"/>
		</g>
		<g>
			<path class="st1" d="M176,219c-0.3,0-0.5-0.2-0.5-0.5v-9.8c0-0.3,0.2-0.5,0.5-0.5s0.5,0.2,0.5,0.5v9.8
				C176.5,218.8,176.3,219,176,219z"/>
		</g>
		<g>
			<path class="st1" d="M181.4,219c-0.3,0-0.5-0.2-0.5-0.5v-18.7c0-0.3,0.2-0.5,0.5-0.5s0.5,0.2,0.5,0.5v18.7
				C181.9,218.8,181.7,219,181.4,219z"/>
		</g>
		<g>
			<path class="st1" d="M186.8,219c-0.3,0-0.5-0.2-0.5-0.5v-9.8c0-0.3,0.2-0.5,0.5-0.5s0.5,0.2,0.5,0.5v9.8
				C187.3,218.8,187,219,186.8,219z"/>
		</g>
		<g>
			<path class="st1" d="M192.1,219c-0.3,0-0.5-0.2-0.5-0.5v-9.8c0-0.3,0.2-0.5,0.5-0.5s0.5,0.2,0.5,0.5v9.8
				C192.6,218.8,192.4,219,192.1,219z"/>
		</g>
		<g>
			<path class="st1" d="M197.5,219c-0.3,0-0.5-0.2-0.5-0.5v-9.8c0-0.3,0.2-0.5,0.5-0.5s0.5,0.2,0.5,0.5v9.8
				C198,218.8,197.8,219,197.5,219z"/>
		</g>
		<g>
			<path class="st1" d="M202.9,219c-0.3,0-0.5-0.2-0.5-0.5v-18.7c0-0.3,0.2-0.5,0.5-0.5s0.5,0.2,0.5,0.5v18.7
				C203.4,218.8,203.1,219,202.9,219z"/>
		</g>
		<g>
			<path class="st1" d="M208.2,219c-0.3,0-0.5-0.2-0.5-0.5v-18.7c0-0.3,0.2-0.5,0.5-0.5s0.5,0.2,0.5,0.5v18.7
				C208.7,218.8,208.5,219,208.2,219z"/>
		</g>
	</g>
	<g>
		<path class="st1" d="M79.7,42.9h-69c-0.3,0-0.5-0.2-0.5-0.5V22.9c0-0.3,0.2-0.5,0.5-0.5h69c0.3,0,0.5,0.2,0.5,0.5v19.5
			C80.2,42.7,80,42.9,79.7,42.9z M11.2,41.9h68V23.4h-68V41.9z"/>
	</g>
	<g>
		<path class="st1" d="M245.3,42.9h-69c-0.3,0-0.5-0.2-0.5-0.5V22.9c0-0.3,0.2-0.5,0.5-0.5h69c0.3,0,0.5,0.2,0.5,0.5v5.6
			c0,0.3-0.2,0.5-0.5,0.5s-0.5-0.2-0.5-0.5v-5.1h-68v18.5h68v-7.4c0-0.3,0.2-0.5,0.5-0.5s0.5,0.2,0.5,0.5v7.9
			C245.8,42.7,245.5,42.9,245.3,42.9z"/>
	</g>
	<g>
		<path class="st1" d="M69.9,214c-3.6,0-7.2-1.4-9.9-4.1c-5.5-5.5-5.5-14.3,0-19.8l37.3-37.3c3.5-3.5,8.7-4.8,13.5-3.2
			c1.9,0.6,3.7,1.7,5.1,3.2l1.2,1.2c1.5,1.5,2.5,3.2,3.2,5.1c1.6,4.8,0.4,9.9-3.2,13.5l-24.2,24.2c-0.4,0.4-1,0.4-1.4,0
			s-0.4-1,0-1.4l24.2-24.2c3-3,4-7.4,2.7-11.4c-0.5-1.6-1.4-3.1-2.7-4.3l-1.2-1.2c-1.2-1.2-2.7-2.1-4.3-2.7
			c-4.1-1.4-8.4-0.3-11.4,2.7l-37.3,37.3c-4.7,4.7-4.7,12.3,0,17c4.7,4.7,12.3,4.7,17,0l9.3-9.3c0.4-0.4,1-0.4,1.4,0s0.4,1,0,1.4
			l-9.3,9.3C77.1,212.6,73.5,214,69.9,214z"/>
	</g>
	<g>
		<path class="st1" d="M119.3,160.5c-0.1,0-0.2,0-0.2,0c-0.3-0.1-0.6-0.3-0.7-0.7c-0.5-1.6-1.4-3.1-2.7-4.3l-1.2-1.2
			c-1.2-1.2-2.7-2.1-4.3-2.7c-0.3-0.1-0.6-0.4-0.7-0.7c-0.1-0.3,0-0.7,0.3-0.9l15.6-15.6c0.2-0.2,0.5-0.3,0.8-0.3
			c0.3,0,0.6,0.2,0.7,0.4c1.2,1.6,2.5,3.2,4,4.6c1.4,1.4,3,2.8,4.6,4c0.2,0.2,0.4,0.4,0.4,0.7s-0.1,0.6-0.3,0.8L120,160.2
			C119.8,160.4,119.6,160.5,119.3,160.5z M112.3,150.3c1.3,0.6,2.6,1.5,3.6,2.6l1.2,1.2c1.1,1.1,1.9,2.3,2.6,3.6l13.7-13.7
			c-1.4-1.1-2.7-2.2-3.9-3.5c-1.3-1.3-2.4-2.6-3.5-3.9L112.3,150.3z"/>
	</g>
	<g>
		<path class="st1" d="M158.7,152.6c-8.6,0-17.2-2.7-24.4-7.9c-1.7-1.3-3.3-2.7-4.9-4.2c-1.5-1.5-2.9-3.2-4.2-4.9
			c-12.1-16.5-10.3-39.1,4.2-53.6c7.8-7.8,18.2-12.1,29.2-12.1c0,0,0,0,0,0c11,0,21.4,4.3,29.2,12.1c16.1,16.1,16.1,42.3,0,58.5
			c-0.8,0.8-1.6,1.6-2.5,2.3c-0.4,0.4-1,0.3-1.4-0.1c-0.4-0.4-0.3-1.1,0.1-1.4c0.8-0.7,1.6-1.4,2.3-2.2c15.3-15.3,15.3-40.3,0-55.6
			c-15.3-15.3-40.3-15.3-55.7,0c-13.8,13.8-15.5,35.3-4,51c1.2,1.6,2.5,3.2,4,4.6c1.4,1.4,3,2.8,4.6,4c12.3,9,28.9,10,42.3,2.6
			c0.5-0.3,1.1-0.1,1.4,0.4c0.3,0.5,0.1,1.1-0.4,1.4C172.5,150.9,165.6,152.6,158.7,152.6z"/>
	</g>
	<g>
		<g>
			<path class="st1" d="M158.7,136.3c-0.2,0-0.5-0.2-0.5-0.4L152,86.3c0-0.3,0.2-0.5,0.4-0.6c0.3,0,0.5,0.2,0.6,0.4l6.2,49.5
				C159.3,136,159.1,136.2,158.7,136.3C158.8,136.3,158.7,136.3,158.7,136.3z"/>
		</g>
		<g>
			<path class="st1" d="M167,126.7c-0.2,0-0.5-0.2-0.5-0.4l-4-31.5c0-0.3,0.2-0.5,0.4-0.6c0.3,0,0.5,0.2,0.6,0.4l4,31.5
				C167.5,126.4,167.3,126.6,167,126.7C167.1,126.7,167,126.7,167,126.7z"/>
		</g>
	</g>
	<path class="st2" d="M67.4,195.4l38.6-38.6c2.6-2.6,6.7-2.6,9.3,0l1.9,1.9c2.6,2.6,2.6,6.7,0,9.3l-38.6,38.6
		c-2.6,2.6-6.7,2.6-9.3,0l-1.9-1.9C64.8,202.1,64.8,197.9,67.4,195.4z"/>
	<path class="st2" d="M140.8,83.6c13.8-11,34.1-10.1,46.9,2.7c13.8,13.8,13.8,36.1,0,49.9c-13.8,13.8-36.1,13.8-49.9,0
		s-13.8-36.1,0-49.9L140.8,83.6z"/>
	<polygon class="st2" points="74.7,85.1 59,85.1 59,75.1 97,75.1 97,85.1 78,85.1 	"/>
	
		<rect x="78.3" y="86" transform="matrix(-1.836970e-16 1 -1 -1.836970e-16 193.5502 27.0184)" class="st2" width="10" height="48.5"/>
	<g>
		<path class="st1" d="M228.1,233.6H94.8c-0.3,0-0.5-0.2-0.5-0.5s0.2-0.5,0.5-0.5h132.8V51.4H28.4v181.2h59.9c0.3,0,0.5,0.2,0.5,0.5
			s-0.2,0.5-0.5,0.5H27.9c-0.3,0-0.5-0.2-0.5-0.5V50.9c0-0.3,0.2-0.5,0.5-0.5h200.2c0.3,0,0.5,0.2,0.5,0.5v182.2
			C228.6,233.3,228.4,233.6,228.1,233.6z"/>
	</g>
	<g>
		<path class="st1" d="M222.4,228.5H33.6c-0.6,0-1-0.4-1-1v-89.6c0-0.6,0.4-1,1-1s1,0.4,1,1v88.6h186.8V57.5H34.6v74.8
			c0,0.6-0.4,1-1,1s-1-0.4-1-1V56.5c0-0.6,0.4-1,1-1h188.8c0.6,0,1,0.4,1,1v170.9C223.4,228,223,228.5,222.4,228.5z"/>
	</g>
	<g>
		<polygon class="st0" points="33.6,18.7 6.5,18.7 6.5,46.6 249.5,46.6 249.5,18.7 45.6,18.7 39.2,18.7 		"/>
		<path class="st1" d="M249.5,47.6H6.5c-0.6,0-1-0.4-1-1V18.7c0-0.6,0.4-1,1-1h27.1c0.6,0,1,0.4,1,1s-0.4,1-1,1H7.5v25.9h241V19.7
			H39.2c-0.6,0-1-0.4-1-1s0.4-1,1-1h210.3c0.6,0,1,0.4,1,1v27.9C250.5,47.2,250.1,47.6,249.5,47.6z"/>
	</g>
	<polygon class="st2" points="166.7,35 166.7,46.6 99.3,46.6 99.3,18.7 166.7,18.7 166.7,30.1 	"/>
	<g>
		<path class="st1" d="M69.9,209c-1.8,0-3.6-0.7-5-2.1L63,205c-1.3-1.3-2.1-3.1-2.1-5s0.7-3.7,2.1-5l0,0l38.6-38.6
			c2.8-2.8,7.3-2.8,10,0l1.9,1.9c1.3,1.3,2.1,3.1,2.1,5s-0.7,3.7-2.1,5L75,206.9C73.6,208.3,71.8,209,69.9,209z M63.7,195.7
			c-1.1,1.1-1.8,2.7-1.8,4.3s0.6,3.2,1.8,4.3l1.9,1.9c2.4,2.4,6.2,2.4,8.6,0l38.6-38.6c1.1-1.1,1.8-2.7,1.8-4.3s-0.6-3.2-1.8-4.3
			l-1.9-1.9c-2.4-2.4-6.2-2.4-8.6,0L63.7,195.7z"/>
	</g>
	<g>
		<path class="st1" d="M158.7,147c-9.2,0-18.3-3.5-25.3-10.5c-6.7-6.7-10.5-15.7-10.5-25.3s3.7-18.6,10.5-25.3
			c0.2-0.2,0.5-0.2,0.7,0s0.2,0.5,0,0.7c-6.6,6.6-10.2,15.3-10.2,24.6s3.6,18,10.2,24.6c13.6,13.6,35.6,13.6,49.2,0
			c13.6-13.6,13.6-35.6,0-49.2C170.8,74.2,150.9,73,137.1,84c-0.2,0.2-0.5,0.1-0.7-0.1s-0.1-0.5,0.1-0.7
			c14.2-11.3,34.7-10.2,47.6,2.7c14,14,14,36.7,0,50.6C177,143.5,167.9,147,158.7,147z"/>
	</g>
	<g>
		<path class="st1" d="M93,85.6H74c-0.3,0-0.5-0.2-0.5-0.5s0.2-0.5,0.5-0.5h18.5v-9h-37v9h15.2c0.3,0,0.5,0.2,0.5,0.5
			s-0.2,0.5-0.5,0.5H55c-0.3,0-0.5-0.2-0.5-0.5v-10c0-0.3,0.2-0.5,0.5-0.5h38c0.3,0,0.5,0.2,0.5,0.5v10C93.5,85.4,93.2,85.6,93,85.6
			z"/>
	</g>
	<g>
		<path class="st1" d="M103.5,115.8H55c-0.3,0-0.5-0.2-0.5-0.5v-10c0-0.3,0.2-0.5,0.5-0.5h48.5c0.3,0,0.5,0.2,0.5,0.5v10
			C104,115.5,103.8,115.8,103.5,115.8z M55.5,114.8H103v-9H55.5V114.8z"/>
	</g>
	<g>
		<path class="st1" d="M176.3,47.6H79.7c-0.6,0-1-0.4-1-1V18.7c0-0.6,0.4-1,1-1h96.6c0.6,0,1,0.4,1,1v27.9
			C177.3,47.2,176.9,47.6,176.3,47.6z M80.7,45.6h94.6V19.7H80.7V45.6z"/>
	</g>
	<g>
		<path class="st1" d="M161.7,47.1H94.3c-0.3,0-0.5-0.2-0.5-0.5V18.7c0-0.3,0.2-0.5,0.5-0.5h67.5c0.3,0,0.5,0.2,0.5,0.5v11.4
			c0,0.3-0.2,0.5-0.5,0.5s-0.5-0.2-0.5-0.5V19.2H94.8v26.9h66.5V35c0-0.3,0.2-0.5,0.5-0.5s0.5,0.2,0.5,0.5v11.6
			C162.2,46.9,162,47.1,161.7,47.1z"/>
	</g>
	<g>
		<path class="st1" d="M97.2,90.3H50.8c-0.6,0-1-0.4-1-1V70.9c0-0.6,0.4-1,1-1h46.4c0.6,0,1,0.4,1,1v18.4
			C98.2,89.9,97.7,90.3,97.2,90.3z M51.8,88.3h44.4V71.9H51.8V88.3z"/>
	</g>
	<g>
		<path class="st1" d="M107.8,120.5h-57c-0.6,0-1-0.4-1-1v-18.4c0-0.6,0.4-1,1-1h57c0.6,0,1,0.4,1,1v18.4
			C108.8,120,108.3,120.5,107.8,120.5z M51.8,118.5h55v-16.4h-55V118.5z"/>
	</g>
	<g>
		<path class="st1" d="M218.3,223h-84.6c-0.3,0-0.5-0.2-0.5-0.5v-28.8c0-0.3,0.2-0.5,0.5-0.5h57.7c0.3,0,0.5,0.2,0.5,0.5
			s-0.2,0.5-0.5,0.5h-57.2V222h83.6v-27.8h-20.3c-0.3,0-0.5-0.2-0.5-0.5s0.2-0.5,0.5-0.5h20.8c0.3,0,0.5,0.2,0.5,0.5v28.8
			C218.8,222.8,218.6,223,218.3,223z"/>
	</g>
	<g>
		<path class="st1" d="M222.3,228.5h-92.5c-0.6,0-1-0.4-1-1v-37.6c0-0.6,0.4-1,1-1h92.5c0.6,0,1,0.4,1,1v37.6
			C223.3,228,222.8,228.5,222.3,228.5z M130.8,226.5h90.5v-35.6h-90.5V226.5z"/>
	</g>
</g>
</svg>
