<?xml version="1.0" encoding="utf-8"?>
<!-- Generator: Adobe Illustrator 22.1.0, SVG Export Plug-In . SVG Version: 6.00 Build 0)  -->
<svg version="1.1" id="Layer_1" xmlns="http://www.w3.org/2000/svg" xmlns:xlink="http://www.w3.org/1999/xlink" x="0px" y="0px"
	 viewBox="0 0 256 256" style="enable-background:new 0 0 256 256;" xml:space="preserve">
<style type="text/css">
	.st0{fill:#DBFDFF;}
	.st1{fill:#48386A;}
	.st2{fill:#FFFFFF;}
	.st3{fill:#FF8584;}
	.st4{fill:#FEBE7F;}
	.st5{fill:#9FEAFF;}
</style>
<g>
	<path class="st0" d="M242.9,102.8c0-11.9-3.8-22.8-10.3-31.8c0.1-1.2,0.1-2.3,0.1-3.5c0-30-24.3-54.3-54.3-54.3
		c-9.4,0-18.3,2.4-26,6.6c-2.7-0.4-5.4-0.6-8.2-0.6c-12.6,0-24.2,4.3-33.4,11.5c-7.9-4.5-17.1-7.1-26.9-7.1
		c-30,0-54.3,24.3-54.3,54.3c0,1.5,0.1,3,0.2,4.5c-10.4,9.9-17,23.9-17,39.4c0,30,24.3,54.3,54.3,54.3c2,0,4-0.1,6-0.3
		c5.6,24,27.1,41.8,52.8,41.8c11.5,0,22.2-3.6,31-9.7c8.4,5.4,18.4,8.5,29.1,8.5c30,0,54.3-24.3,54.3-54.3c0-10.1-2.8-19.6-7.6-27.7
		C239.2,125.4,242.9,114.5,242.9,102.8z"/>
	<g>
		<g>
			<path class="st1" d="M128.3,248h-3.6c-0.6,0-1-0.4-1-1s0.4-1,1-1h3.6c0.6,0,1,0.4,1,1S128.8,248,128.3,248z"/>
		</g>
		<g>
			<path class="st2" d="M120.4,247H31.8c-14.3,0-25.9-11.6-25.9-25.9v-0.8c0-14.3,11.6-25.9,25.9-25.9h192.4
				c14.3,0,25.9,11.6,25.9,25.9v0.8c0,14.3-11.6,25.9-25.9,25.9h-89.8H120.4z"/>
			<path class="st1" d="M224.2,248h-89.8c-0.6,0-1-0.4-1-1s0.4-1,1-1h89.8c13.7,0,24.9-11.2,24.9-24.9v-0.8
				c0-13.7-11.2-24.9-24.9-24.9H31.8c-13.7,0-24.9,11.2-24.9,24.9v0.8c0,13.7,11.2,24.9,24.9,24.9h88.6c0.6,0,1,0.4,1,1s-0.4,1-1,1
				H31.8C17,248,4.9,235.9,4.9,221.1v-0.8c0-14.8,12.1-26.9,26.9-26.9h192.4c14.8,0,26.9,12.1,26.9,26.9v0.8
				C251.1,235.9,239,248,224.2,248z"/>
		</g>
		<path class="st3" d="M123.9,247H35.3C21,247,9.4,235.4,9.4,221.1v-0.8c0-14.3,11.6-25.9,25.9-25.9h192.4
			c14.3,0,25.9,11.6,25.9,25.9v0.8c0,14.3-11.6,25.9-25.9,25.9h-89.8H123.9z"/>
		<g>
			<path class="st2" d="M155.7,199.5h68.1c11.7,0,21.2,9.5,21.2,21.2c0,11.7-9.5,21.2-21.2,21.2H32.2c-11.7,0-21.2-9.5-21.2-21.2
				c0-11.7,9.5-21.2,21.2-21.2h120.2H155.7z"/>
			<path class="st1" d="M223.8,242.3H32.2c-11.9,0-21.7-9.7-21.7-21.7S20.3,199,32.2,199h120.2c0.3,0,0.5,0.2,0.5,0.5
				s-0.2,0.5-0.5,0.5H32.2c-11.4,0-20.7,9.3-20.7,20.7s9.3,20.7,20.7,20.7h191.6c11.4,0,20.7-9.3,20.7-20.7s-9.3-20.7-20.7-20.7
				h-68.1c-0.3,0-0.5-0.2-0.5-0.5s0.2-0.5,0.5-0.5h68.1c11.9,0,21.7,9.7,21.7,21.7S235.7,242.3,223.8,242.3z"/>
		</g>
		<circle class="st4" cx="131.5" cy="220.7" r="16.3"/>
		<circle class="st4" cx="226.7" cy="220.7" r="16.3"/>
		<path class="st4" d="M195.3,222c-0.6,8.4-7.7,15-16.2,15c-9,0-16.3-7.3-16.3-16.3c0-9,7.3-16.3,16.3-16.3
			c7.8,0,14.3,5.5,15.9,12.7L195.3,222z"/>
		<circle class="st4" cx="83.9" cy="220.7" r="16.3"/>
		<path class="st4" d="M42.7,235.7c-1.9,0.8-4.1,1.3-6.3,1.3c-9,0-16.3-7.3-16.3-16.3c0-9,7.3-16.3,16.3-16.3s16.3,7.3,16.3,16.3
			c0,5.3-2.5,10-6.4,13L42.7,235.7z"/>
		<g>
			<path class="st1" d="M128,237.9c-9.5,0-17.3-7.7-17.3-17.3c0-9.5,7.7-17.3,17.3-17.3s17.3,7.7,17.3,17.3
				C145.3,230.2,137.5,237.9,128,237.9z M128,205.4c-8.4,0-15.3,6.8-15.3,15.3s6.8,15.3,15.3,15.3s15.3-6.8,15.3-15.3
				S136.4,205.4,128,205.4z"/>
		</g>
		<g>
			<circle class="st2" cx="128" cy="220.7" r="11.1"/>
			<path class="st1" d="M128,232.3c-6.4,0-11.6-5.2-11.6-11.6s5.2-11.6,11.6-11.6s11.6,5.2,11.6,11.6S134.4,232.3,128,232.3z
				 M128,210.1c-5.8,0-10.6,4.8-10.6,10.6s4.8,10.6,10.6,10.6s10.6-4.8,10.6-10.6S133.8,210.1,128,210.1z"/>
		</g>
		<g>
			<path class="st1" d="M223.2,237.9c-9.5,0-17.3-7.7-17.3-17.3c0-9.5,7.7-17.3,17.3-17.3c9.5,0,17.3,7.7,17.3,17.3
				C240.4,230.2,232.7,237.9,223.2,237.9z M223.2,205.4c-8.4,0-15.3,6.8-15.3,15.3s6.8,15.3,15.3,15.3s15.3-6.8,15.3-15.3
				S231.6,205.4,223.2,205.4z"/>
		</g>
		<g>
			<circle class="st2" cx="223.2" cy="220.7" r="11.1"/>
			<path class="st1" d="M223.2,232.3c-6.4,0-11.6-5.2-11.6-11.6s5.2-11.6,11.6-11.6s11.6,5.2,11.6,11.6S229.6,232.3,223.2,232.3z
				 M223.2,210.1c-5.8,0-10.6,4.8-10.6,10.6s4.8,10.6,10.6,10.6s10.6-4.8,10.6-10.6S229,210.1,223.2,210.1z"/>
		</g>
		<g>
			<path class="st1" d="M175.6,237.9c-9.5,0-17.3-7.7-17.3-17.3c0-9.5,7.7-17.3,17.3-17.3c8,0,15.1,5.7,16.8,13.5
				c0.1,0.5-0.2,1.1-0.8,1.2c-0.5,0.1-1.1-0.2-1.2-0.8c-1.5-6.9-7.8-12-14.9-12c-8.4,0-15.3,6.8-15.3,15.3s6.8,15.3,15.3,15.3
				c7.9,0,14.6-6.2,15.2-14.1c0-0.6,0.5-1,1.1-0.9c0.6,0,1,0.5,0.9,1.1C192.1,231,184.5,237.9,175.6,237.9z"/>
		</g>
		<g>
			<circle class="st2" cx="175.6" cy="220.7" r="11.1"/>
			<path class="st1" d="M175.6,232.3c-6.4,0-11.6-5.2-11.6-11.6s5.2-11.6,11.6-11.6s11.6,5.2,11.6,11.6S182,232.3,175.6,232.3z
				 M175.6,210.1c-5.8,0-10.6,4.8-10.6,10.6s4.8,10.6,10.6,10.6s10.6-4.8,10.6-10.6S181.4,210.1,175.6,210.1z"/>
		</g>
		<g>
			<path class="st1" d="M80.4,237.9c-9.5,0-17.3-7.7-17.3-17.3c0-9.5,7.7-17.3,17.3-17.3c9.5,0,17.3,7.7,17.3,17.3
				C97.7,230.2,89.9,237.9,80.4,237.9z M80.4,205.4c-8.4,0-15.3,6.8-15.3,15.3s6.8,15.3,15.3,15.3s15.3-6.8,15.3-15.3
				S88.8,205.4,80.4,205.4z"/>
		</g>
		<g>
			<path class="st2" d="M70,216.8c1.6-4.2,5.6-7.2,10.4-7.2c6.1,0,11.1,5,11.1,11.1c0,6.1-5,11.1-11.1,11.1s-11.1-5-11.1-11.1
				c0-0.3,0-0.5,0-0.8L70,216.8z"/>
			<path class="st1" d="M80.4,232.3c-6.4,0-11.6-5.2-11.6-11.6c0-0.3,0-0.5,0-0.8c0-0.3,0.3-0.5,0.5-0.5c0.3,0,0.5,0.3,0.5,0.5
				c0,0.2,0,0.5,0,0.7c0,5.8,4.8,10.6,10.6,10.6S91,226.5,91,220.7s-4.8-10.6-10.6-10.6c-4.4,0-8.4,2.8-9.9,6.9
				c-0.1,0.3-0.4,0.4-0.6,0.3c-0.3-0.1-0.4-0.4-0.3-0.6c1.7-4.5,6.1-7.5,10.8-7.5c6.4,0,11.6,5.2,11.6,11.6S86.8,232.3,80.4,232.3z"
				/>
		</g>
		<g>
			<path class="st1" d="M32.8,237.9c-9.5,0-17.3-7.7-17.3-17.3c0-9.5,7.7-17.3,17.3-17.3c9.5,0,17.3,7.7,17.3,17.3
				c0,5.4-2.5,10.5-6.8,13.8c-0.4,0.3-1.1,0.2-1.4-0.2c-0.3-0.4-0.2-1.1,0.2-1.4c3.8-2.9,6-7.3,6-12.2c0-8.4-6.8-15.3-15.3-15.3
				s-15.3,6.8-15.3,15.3s6.8,15.3,15.3,15.3c2.1,0,4.1-0.4,5.9-1.2c0.5-0.2,1.1,0,1.3,0.5c0.2,0.5,0,1.1-0.5,1.3
				C37.4,237.5,35.2,237.9,32.8,237.9z"/>
		</g>
		<g>
			<circle class="st2" cx="32.8" cy="220.7" r="11.1"/>
			<path class="st1" d="M32.8,232.3c-6.4,0-11.6-5.2-11.6-11.6s5.2-11.6,11.6-11.6s11.6,5.2,11.6,11.6S39.2,232.3,32.8,232.3z
				 M32.8,210.1c-5.8,0-10.6,4.8-10.6,10.6s4.8,10.6,10.6,10.6s10.6-4.8,10.6-10.6S38.7,210.1,32.8,210.1z"/>
		</g>
		<g>
			<polygon class="st2" points="29.4,155.5 29.4,194.4 122.1,194.4 122.1,110.9 29.4,110.9 29.4,149.8 			"/>
			<path class="st1" d="M122.1,195.4H29.4c-0.6,0-1-0.4-1-1v-38.9c0-0.6,0.4-1,1-1s1,0.4,1,1v37.9h90.8v-81.4H30.4v37.9
				c0,0.6-0.4,1-1,1s-1-0.4-1-1v-38.9c0-0.6,0.4-1,1-1h92.8c0.6,0,1,0.4,1,1v83.4C123.1,194.9,122.7,195.4,122.1,195.4z"/>
		</g>
		
			<rect x="66.1" y="113.2" transform="matrix(-1.836970e-16 1 -1 -1.836970e-16 204.3131 44.813)" class="st3" width="27.3" height="22.8"/>
		
			<rect x="57.7" y="164.3" transform="matrix(-1.836970e-16 1 -1 -1.836970e-16 238.589 111.6867)" class="st4" width="11.6" height="21.8"/>
		<polygon class="st5" points="105.2,168.4 120.1,168.4 120.1,165.4 91.6,165.4 91.6,168.4 102.2,168.4 		"/>
		<rect x="91.6" y="181.8" class="st5" width="28.4" height="3.1"/>
		<g>
			<path class="st1" d="M91.1,139.2H60.4c-0.6,0-1-0.4-1-1v-27.3c0-0.6,0.4-1,1-1h30.8c0.6,0,1,0.4,1,1v6.9c0,0.6-0.4,1-1,1
				s-1-0.4-1-1v-5.9H61.4v25.3h28.8v-15.1c0-0.6,0.4-1,1-1s1,0.4,1,1v16.1C92.1,138.7,91.7,139.2,91.1,139.2z"/>
		</g>
		<g>
			<path class="st1" d="M87.1,138.7H64.4c-0.3,0-0.5-0.2-0.5-0.5v-27.3c0-0.3,0.2-0.5,0.5-0.5h22.8c0.3,0,0.5,0.2,0.5,0.5v27.3
				C87.6,138.5,87.4,138.7,87.1,138.7z M64.9,137.7h21.8v-26.3H64.9V137.7z"/>
		</g>
		<g>
			<path class="st1" d="M75.3,185.9h-10c-0.6,0-1-0.4-1-1s0.4-1,1-1h9v-17.5H45.6v17.5h15.9c0.6,0,1,0.4,1,1s-0.4,1-1,1H44.6
				c-0.6,0-1-0.4-1-1v-19.5c0-0.6,0.4-1,1-1h30.8c0.6,0,1,0.4,1,1v19.5C76.3,185.5,75.9,185.9,75.3,185.9z"/>
		</g>
		<g>
			<path class="st1" d="M71.3,181.4H48.6c-0.3,0-0.5-0.2-0.5-0.5v-11.6c0-0.3,0.2-0.5,0.5-0.5h22.8c0.3,0,0.5,0.2,0.5,0.5v11.6
				C71.8,181.2,71.6,181.4,71.3,181.4z M49.1,180.4h21.8v-10.6H49.1V180.4z"/>
		</g>
		<g>
			<path class="st1" d="M118.9,168.9h-16.1c-0.3,0-0.5-0.2-0.5-0.5s0.2-0.5,0.5-0.5h15.6v-2.1H88.6v2.1h10.9c0.3,0,0.5,0.2,0.5,0.5
				s-0.2,0.5-0.5,0.5H88.1c-0.3,0-0.5-0.2-0.5-0.5v-3.1c0-0.3,0.2-0.5,0.5-0.5h30.8c0.3,0,0.5,0.2,0.5,0.5v3.1
				C119.4,168.7,119.2,168.9,118.9,168.9z"/>
		</g>
		<g>
			<path class="st1" d="M118.9,185.4H88.1c-0.3,0-0.5-0.2-0.5-0.5v-3.1c0-0.3,0.2-0.5,0.5-0.5h30.8c0.3,0,0.5,0.2,0.5,0.5v3.1
				C119.4,185.2,119.2,185.4,118.9,185.4z M88.6,184.4h29.8v-2.1H88.6V184.4z"/>
		</g>
		<g>
			<path class="st1" d="M118.9,177.2H88.1c-0.3,0-0.5-0.2-0.5-0.5v-3.1c0-0.3,0.2-0.5,0.5-0.5h30.8c0.3,0,0.5,0.2,0.5,0.5v3.1
				C119.4,177,119.2,177.2,118.9,177.2z M88.6,176.2h29.8v-2.1H88.6V176.2z"/>
		</g>
		<g>
			<polygon class="st2" points="147.6,128 147.6,177.4 221.5,177.4 221.5,110.9 147.6,110.9 147.6,123.3 			"/>
			<path class="st1" d="M221.5,178.4h-73.8c-0.6,0-1-0.4-1-1V128c0-0.6,0.4-1,1-1s1,0.4,1,1v48.4h71.8v-64.4h-71.8v11.3
				c0,0.6-0.4,1-1,1s-1-0.4-1-1v-12.3c0-0.6,0.4-1,1-1h73.8c0.6,0,1,0.4,1,1v66.4C222.5,177.9,222,178.4,221.5,178.4z"/>
		</g>
		<g>
			<path class="st1" d="M196.8,133.6h-24.5c-0.6,0-1-0.4-1-1v-21.7c0-0.6,0.4-1,1-1h24.5c0.6,0,1,0.4,1,1v21.7
				C197.8,133.2,197.4,133.6,196.8,133.6z M173.3,131.6h22.5v-19.7h-22.5V131.6z"/>
		</g>
		<g>
			<path class="st1" d="M214.9,163.8h-24.5c-0.3,0-0.5-0.2-0.5-0.5v-2.4c0-0.3,0.2-0.5,0.5-0.5h24.5c0.3,0,0.5,0.2,0.5,0.5v2.4
				C215.4,163.5,215.1,163.8,214.9,163.8z M190.9,162.8h23.5v-1.4h-23.5V162.8z"/>
		</g>
		<g>
			<polygon class="st5" points="214,79.4 237.8,94.8 237.8,163.3 221.5,163.3 221.5,158.7 229.6,156.7 229.6,99.3 184.6,70.3 
				139.5,99.3 139.5,156.7 147.6,158.7 147.6,163.3 131.3,163.3 131.3,94.8 178.9,64.2 178.9,23.4 190.3,23.4 190.3,64.2 
				209.9,76.8 			"/>
			<path class="st1" d="M237.8,164.3h-16.3c-0.6,0-1-0.4-1-1v-4.5c0-0.5,0.3-0.9,0.8-1l7.3-1.8V99.8l-44-28.3l-44,28.3v56.1l7.3,1.8
				c0.4,0.1,0.8,0.5,0.8,1v4.5c0,0.6-0.4,1-1,1h-16.4c-0.6,0-1-0.4-1-1V94.8c0-0.3,0.2-0.7,0.5-0.8l47.1-30.3V23.4c0-0.6,0.4-1,1-1
				h11.4c0.6,0,1,0.4,1,1v40.2L210.5,76c0.5,0.3,0.6,0.9,0.3,1.4c-0.3,0.5-0.9,0.6-1.4,0.3L189.7,65c-0.3-0.2-0.5-0.5-0.5-0.8V24.4
				h-9.4v39.7c0,0.3-0.2,0.7-0.5,0.8l-47.1,30.3v67h14.4v-2.7l-7.3-1.8c-0.4-0.1-0.8-0.5-0.8-1V99.3c0-0.3,0.2-0.7,0.5-0.8l45-29
				c0.3-0.2,0.8-0.2,1.1,0l45,29c0.3,0.2,0.5,0.5,0.5,0.8v57.5c0,0.5-0.3,0.9-0.8,1l-7.3,1.8v2.7h14.3v-67l-23.4-15
				c-0.5-0.3-0.6-0.9-0.3-1.4c0.3-0.5,0.9-0.6,1.4-0.3l23.9,15.3c0.3,0.2,0.5,0.5,0.5,0.8v68.5C238.8,163.8,238.4,164.3,237.8,164.3
				z"/>
		</g>
		<g>
			<rect x="159.8" y="9" class="st2" width="49.6" height="14.4"/>
			<path class="st1" d="M209.3,24.4h-49.6c-0.6,0-1-0.4-1-1V9c0-0.6,0.4-1,1-1h49.6c0.6,0,1,0.4,1,1v14.4
				C210.3,24,209.9,24.4,209.3,24.4z M160.8,22.4h47.6V10h-47.6V22.4z"/>
		</g>
		<polygon class="st5" points="195.2,19.3 162.8,19.3 162.8,13.1 212.3,13.1 212.3,19.3 198.9,19.3 		"/>
		<g>
			<polygon class="st5" points="192.2,19.3 159.8,19.3 159.8,13.1 209.3,13.1 209.3,19.3 195.9,19.3 			"/>
			<path class="st1" d="M209.3,19.8h-13.5c-0.3,0-0.5-0.2-0.5-0.5s0.2-0.5,0.5-0.5h13v-5.2h-48.6v5.2h31.9c0.3,0,0.5,0.2,0.5,0.5
				s-0.2,0.5-0.5,0.5h-32.4c-0.3,0-0.5-0.2-0.5-0.5v-6.2c0-0.3,0.2-0.5,0.5-0.5h49.6c0.3,0,0.5,0.2,0.5,0.5v6.2
				C209.8,19.6,209.6,19.8,209.3,19.8z"/>
		</g>
		
			<rect x="176.7" y="112.7" transform="matrix(-1.836970e-16 1 -1 -1.836970e-16 309.3416 -65.7773)" class="st3" width="21.7" height="18.1"/>
		<polygon class="st4" points="172.3,154.3 158.7,154.3 158.7,169.8 183.2,169.8 183.2,154.3 175.3,154.3 		"/>
		<rect x="193.4" y="154.3" class="st5" width="24.5" height="2.4"/>
		<rect x="193.4" y="167.4" class="st5" width="24.5" height="2.4"/>
		<g>
			<path class="st1" d="M193.6,133.1h-18.1c-0.3,0-0.5-0.2-0.5-0.5v-21.7c0-0.3,0.2-0.5,0.5-0.5h18.1c0.3,0,0.5,0.2,0.5,0.5v21.7
				C194.1,132.9,193.9,133.1,193.6,133.1z M176,132.1h17.1v-20.7H176V132.1z"/>
		</g>
		<g>
			<path class="st1" d="M180.2,170.3h-24.5c-0.3,0-0.5-0.2-0.5-0.5v-15.5c0-0.3,0.2-0.5,0.5-0.5h13.6c0.3,0,0.5,0.2,0.5,0.5
				s-0.2,0.5-0.5,0.5h-13.1v14.5h23.5v-14.5h-7.4c-0.3,0-0.5-0.2-0.5-0.5s0.2-0.5,0.5-0.5h7.9c0.3,0,0.5,0.2,0.5,0.5v15.5
				C180.7,170.1,180.5,170.3,180.2,170.3z"/>
		</g>
		<g>
			<path class="st1" d="M214.9,157.2h-24.5c-0.3,0-0.5-0.2-0.5-0.5v-2.4c0-0.3,0.2-0.5,0.5-0.5h24.5c0.3,0,0.5,0.2,0.5,0.5v2.4
				C215.4,157,215.1,157.2,214.9,157.2z M190.9,156.2h23.5v-1.4h-23.5V156.2z"/>
		</g>
		<g>
			<path class="st1" d="M214.9,170.3h-24.5c-0.3,0-0.5-0.2-0.5-0.5v-2.4c0-0.3,0.2-0.5,0.5-0.5h24.5c0.3,0,0.5,0.2,0.5,0.5v2.4
				C215.4,170.1,215.1,170.3,214.9,170.3z M190.9,169.3h23.5v-1.4h-23.5V169.3z"/>
		</g>
		<g>
			<path class="st1" d="M196.8,133.6h-24.5c-0.6,0-1-0.4-1-1v-21.7c0-0.6,0.4-1,1-1h24.5c0.6,0,1,0.4,1,1v21.7
				C197.8,133.2,197.4,133.6,196.8,133.6z M173.3,131.6h22.5v-19.7h-22.5V131.6z"/>
		</g>
		<g>
			<path class="st1" d="M209.3,24.4h-49.6c-0.6,0-1-0.4-1-1V9c0-0.6,0.4-1,1-1h49.6c0.6,0,1,0.4,1,1v14.4
				C210.3,24,209.9,24.4,209.3,24.4z M160.8,22.4h47.6V10h-47.6V22.4z"/>
		</g>
		<g>
			<path class="st1" d="M224.2,248h-89.8c-0.6,0-1-0.4-1-1s0.4-1,1-1h89.8c13.7,0,24.9-11.2,24.9-24.9v-0.8
				c0-13.7-11.2-24.9-24.9-24.9H31.8c-13.7,0-24.9,11.2-24.9,24.9v0.8c0,13.7,11.2,24.9,24.9,24.9h88.6c0.6,0,1,0.4,1,1s-0.4,1-1,1
				H31.8C17,248,4.9,235.9,4.9,221.1v-0.8c0-14.8,12.1-26.9,26.9-26.9h192.4c14.8,0,26.9,12.1,26.9,26.9v0.8
				C251.1,235.9,239,248,224.2,248z"/>
		</g>
	</g>
	<g>
		<path class="st1" d="M155.7,56.4c-1.6,0-3-1.3-3-3s1.3-3,3-3s3,1.3,3,3S157.3,56.4,155.7,56.4z M155.7,51.5c-1.1,0-2,0.9-2,2
			s0.9,2,2,2s2-0.9,2-2S156.8,51.5,155.7,51.5z"/>
	</g>
	<g>
		<path class="st3" d="M202.6,48.1c-1.6,0-3-1.3-3-3s1.3-3,3-3s3,1.3,3,3S204.3,48.1,202.6,48.1z M202.6,43.1c-1.1,0-2,0.9-2,2
			s0.9,2,2,2s2-0.9,2-2S203.7,43.1,202.6,43.1z"/>
	</g>
	<g>
		<path class="st1" d="M78.5,95.1c0,0-0.1,0-0.1,0l-1-0.3c-0.3-0.1-0.4-0.4-0.3-0.6c0.1-0.3,0.4-0.4,0.6-0.3l0.1,0L77.2,92
			c0-0.1,0-0.2,0-0.3l0.5-1.8l-1.8,0.5c-0.1,0-0.2,0-0.3,0l-1.8-0.5l0.5,1.8c0,0.1,0,0.2,0,0.3l-0.5,1.8l1.8-0.5
			c0.3-0.1,0.5,0.1,0.6,0.3c0.1,0.3-0.1,0.5-0.3,0.6L73.2,95c-0.2,0-0.4,0-0.5-0.1c-0.1-0.1-0.2-0.3-0.1-0.5l0.8-2.6l-0.8-2.6
			c-0.1-0.2,0-0.4,0.1-0.5c0.1-0.1,0.3-0.2,0.5-0.1l2.6,0.8l2.6-0.8c0.2-0.1,0.4,0,0.5,0.1s0.2,0.3,0.1,0.5l-0.8,2.6l0.8,2.6
			c0.1,0.2,0,0.4-0.1,0.5C78.7,95,78.6,95.1,78.5,95.1z"/>
	</g>
	<g>
		<path class="st4" d="M103.1,103.6c-0.1,0-0.3-0.1-0.4-0.1c-0.1-0.1-0.2-0.3-0.1-0.5l0.8-2.6l-0.8-2.6c-0.1-0.2,0-0.4,0.1-0.5
			s0.3-0.2,0.5-0.1l2.6,0.8l2.6-0.8c0.2-0.1,0.4,0,0.5,0.1s0.2,0.3,0.1,0.5l-0.8,2.6l0.8,2.6c0.1,0.2,0,0.4-0.1,0.5
			s-0.3,0.2-0.5,0.1l-1-0.3c-0.3-0.1-0.4-0.4-0.3-0.6c0.1-0.3,0.4-0.4,0.6-0.3l0.1,0l-0.5-1.8c0-0.1,0-0.2,0-0.3l0.5-1.8L106,99
			c-0.1,0-0.2,0-0.3,0l-1.8-0.5l0.5,1.8c0,0.1,0,0.2,0,0.3l-0.5,1.8l1.8-0.5c0.3-0.1,0.5,0.1,0.6,0.3c0.1,0.3-0.1,0.5-0.3,0.6
			l-2.7,0.8C103.2,103.6,103.2,103.6,103.1,103.6z"/>
	</g>
	<g>
		<g>
			<path class="st3" d="M16.6,119.4c-0.3,0-0.5-0.2-0.5-0.5v-2.4c0-0.3,0.2-0.5,0.5-0.5s0.5,0.2,0.5,0.5v2.4
				C17.1,119.2,16.9,119.4,16.6,119.4z"/>
		</g>
		<g>
			<path class="st3" d="M16.6,125.3c-0.3,0-0.5-0.2-0.5-0.5v-2.4c0-0.3,0.2-0.5,0.5-0.5s0.5,0.2,0.5,0.5v2.4
				C17.1,125.1,16.9,125.3,16.6,125.3z"/>
		</g>
		<g>
			<path class="st3" d="M20.7,121.1h-2.4c-0.3,0-0.5-0.2-0.5-0.5s0.2-0.5,0.5-0.5h2.4c0.3,0,0.5,0.2,0.5,0.5S21,121.1,20.7,121.1z"
				/>
		</g>
		<g>
			<path class="st3" d="M14.9,121.1h-2.4c-0.3,0-0.5-0.2-0.5-0.5s0.2-0.5,0.5-0.5h2.4c0.3,0,0.5,0.2,0.5,0.5S15.2,121.1,14.9,121.1z
				"/>
		</g>
	</g>
	<g>
		<g>
			<path class="st4" d="M118.9,64.4c-0.3,0-0.5-0.2-0.5-0.5v-2.4c0-0.3,0.2-0.5,0.5-0.5s0.5,0.2,0.5,0.5v2.4
				C119.4,64.2,119.2,64.4,118.9,64.4z"/>
		</g>
		<g>
			<path class="st4" d="M118.9,70.3c-0.3,0-0.5-0.2-0.5-0.5v-2.4c0-0.3,0.2-0.5,0.5-0.5s0.5,0.2,0.5,0.5v2.4
				C119.4,70,119.2,70.3,118.9,70.3z"/>
		</g>
		<g>
			<path class="st4" d="M123,66.1h-2.4c-0.3,0-0.5-0.2-0.5-0.5s0.2-0.5,0.5-0.5h2.4c0.3,0,0.5,0.2,0.5,0.5S123.3,66.1,123,66.1z"/>
		</g>
		<g>
			<path class="st4" d="M117.2,66.1h-2.4c-0.3,0-0.5-0.2-0.5-0.5s0.2-0.5,0.5-0.5h2.4c0.3,0,0.5,0.2,0.5,0.5S117.5,66.1,117.2,66.1z
				"/>
		</g>
	</g>
	<g>
		<g>
			<path class="st5" d="M45.6,92.1c-0.3,0-0.5-0.2-0.5-0.5v-2.4c0-0.3,0.2-0.5,0.5-0.5s0.5,0.2,0.5,0.5v2.4
				C46.1,91.9,45.9,92.1,45.6,92.1z"/>
		</g>
		<g>
			<path class="st5" d="M45.6,98c-0.3,0-0.5-0.2-0.5-0.5v-2.4c0-0.3,0.2-0.5,0.5-0.5s0.5,0.2,0.5,0.5v2.4C46.1,97.8,45.9,98,45.6,98
				z"/>
		</g>
		<g>
			<path class="st5" d="M49.7,93.9h-2.4c-0.3,0-0.5-0.2-0.5-0.5s0.2-0.5,0.5-0.5h2.4c0.3,0,0.5,0.2,0.5,0.5S50,93.9,49.7,93.9z"/>
		</g>
		<g>
			<path class="st5" d="M43.9,93.9h-2.4c-0.3,0-0.5-0.2-0.5-0.5s0.2-0.5,0.5-0.5h2.4c0.3,0,0.5,0.2,0.5,0.5S44.1,93.9,43.9,93.9z"/>
		</g>
	</g>
</g>
</svg>
