<?xml version="1.0" encoding="utf-8"?>
<!-- Generator: Adobe Illustrator 22.1.0, SVG Export Plug-In . SVG Version: 6.00 Build 0)  -->
<svg version="1.1" id="Layer_1" xmlns="http://www.w3.org/2000/svg" xmlns:xlink="http://www.w3.org/1999/xlink" x="0px" y="0px"
	 viewBox="0 0 256 256" style="enable-background:new 0 0 256 256;" xml:space="preserve">
<style type="text/css">
	.st0{fill:#FFFFFF;}
	.st1{fill:#48386A;}
	.st2{fill:#9FEAFF;}
</style>
<g>
	<g>
		<path class="st0" d="M230.2,24H25.1H230.2z"/>
		<path class="st1" d="M230.2,25H25.1c-0.6,0-1-0.4-1-1s0.4-1,1-1h205.1c0.6,0,1,0.4,1,1S230.8,25,230.2,25z"/>
	</g>
	<g>
		<polygon class="st0" points="217.8,79.6 191.5,79.6 184.6,24 207.4,24 		"/>
		<path class="st1" d="M217.8,80.6h-26.2c-0.5,0-0.9-0.4-1-0.9l-6.9-55.6c0-0.3,0.1-0.6,0.2-0.8c0.2-0.2,0.5-0.3,0.7-0.3h22.8
			c0.5,0,0.9,0.3,1,0.8l10.3,55.6c0.1,0.3,0,0.6-0.2,0.8C218.3,80.5,218.1,80.6,217.8,80.6z M192.4,78.6h24.1l-10-53.6h-20.8
			L192.4,78.6z"/>
	</g>
	<g>
		<polygon class="st0" points="165.3,79.6 139.1,79.6 139.1,24 161.9,24 		"/>
		<path class="st1" d="M165.3,80.6h-26.2c-0.6,0-1-0.4-1-1V24c0-0.6,0.4-1,1-1h22.8c0.5,0,1,0.4,1,0.9l3.4,55.6
			c0,0.3-0.1,0.5-0.3,0.7C165.8,80.5,165.6,80.6,165.3,80.6z M140.1,78.6h24.2L160.9,25h-20.8V78.6z"/>
	</g>
	<g>
		<polygon class="st0" points="112.8,79.6 86.6,79.6 93.5,24 116.3,24 		"/>
		<path class="st1" d="M112.8,80.6H86.6c-0.3,0-0.6-0.1-0.7-0.3c-0.2-0.2-0.3-0.5-0.2-0.8l6.9-55.6c0.1-0.5,0.5-0.9,1-0.9h22.8
			c0.3,0,0.5,0.1,0.7,0.3c0.2,0.2,0.3,0.5,0.3,0.7l-3.4,55.6C113.8,80.2,113.4,80.6,112.8,80.6z M87.7,78.6h24.2l3.3-53.6H94.4
			L87.7,78.6z"/>
	</g>
	<g>
		<polygon class="st0" points="60.4,79.6 34.1,79.6 47.9,24 70.7,24 		"/>
		<path class="st1" d="M60.4,80.6H34.1c-0.3,0-0.6-0.1-0.8-0.4s-0.3-0.6-0.2-0.9l13.8-55.6c0.1-0.4,0.5-0.8,1-0.8h22.8
			c0.3,0,0.6,0.1,0.8,0.4c0.2,0.2,0.3,0.5,0.2,0.8L61.4,79.8C61.3,80.3,60.9,80.6,60.4,80.6z M35.4,78.6h24.1l10-53.6H48.7
			L35.4,78.6z"/>
	</g>
	<g>
		<polygon class="st0" points="244,79.6 217.8,79.6 207.4,24 230.2,24 		"/>
		<path class="st1" d="M244,80.6h-26.2c-0.5,0-0.9-0.3-1-0.8l-10.3-55.6c-0.1-0.3,0-0.6,0.2-0.8c0.2-0.2,0.5-0.4,0.8-0.4h22.8
			c0.5,0,0.9,0.3,1,0.8L245,79.4c0.1,0.3,0,0.6-0.2,0.9S244.3,80.6,244,80.6z M218.6,78.6h24.1L229.4,25h-20.8L218.6,78.6z"/>
	</g>
	<g>
		<polygon class="st0" points="191.5,79.6 165.3,79.6 161.9,24 184.6,24 		"/>
		<path class="st1" d="M191.5,80.6h-26.2c-0.5,0-1-0.4-1-0.9l-3.4-55.6c0-0.3,0.1-0.5,0.3-0.7c0.2-0.2,0.5-0.3,0.7-0.3h22.8
			c0.5,0,0.9,0.4,1,0.9l6.9,55.6c0,0.3-0.1,0.6-0.2,0.8C192.1,80.5,191.8,80.6,191.5,80.6z M166.2,78.6h24.2L183.8,25h-20.8
			L166.2,78.6z"/>
	</g>
	<g>
		<polygon class="st0" points="139.1,79.6 112.8,79.6 116.3,24 139.1,24 		"/>
		<path class="st1" d="M139.1,80.6h-26.2c-0.3,0-0.5-0.1-0.7-0.3c-0.2-0.2-0.3-0.5-0.3-0.7l3.4-55.6c0-0.5,0.5-0.9,1-0.9h22.8
			c0.6,0,1,0.4,1,1v55.6C140.1,80.2,139.6,80.6,139.1,80.6z M113.9,78.6h24.2V25h-20.8L113.9,78.6z"/>
	</g>
	<g>
		<polygon class="st0" points="86.6,79.6 60.4,79.6 70.7,24 93.5,24 		"/>
		<path class="st1" d="M86.6,80.6H60.4c-0.3,0-0.6-0.1-0.8-0.4c-0.2-0.2-0.3-0.5-0.2-0.8l10.3-55.6c0.1-0.5,0.5-0.8,1-0.8h22.8
			c0.3,0,0.6,0.1,0.7,0.3c0.2,0.2,0.3,0.5,0.2,0.8l-6.9,55.6C87.5,80.3,87.1,80.6,86.6,80.6z M61.6,78.6h24.1L92.4,25H71.5
			L61.6,78.6z"/>
	</g>
	<g>
		<polygon class="st0" points="17.1,50 25.1,24 47.9,24 34.1,79.6 7.9,79.6 14.9,57.1 		"/>
		<path class="st1" d="M34.1,80.6H7.9c-0.3,0-0.6-0.2-0.8-0.4C6.9,80,6.9,79.6,7,79.3l7-22.5c0.2-0.5,0.7-0.8,1.3-0.7
			c0.5,0.2,0.8,0.7,0.7,1.3L9.3,78.6h24.1L46.6,25H25.9L18,50.3c-0.2,0.5-0.7,0.8-1.3,0.7c-0.5-0.2-0.8-0.7-0.7-1.3l8.1-26
			c0.1-0.4,0.5-0.7,1-0.7h22.8c0.3,0,0.6,0.1,0.8,0.4s0.3,0.6,0.2,0.9L35.1,79.9C35,80.3,34.6,80.6,34.1,80.6z"/>
	</g>
	<g>
		<path class="st0" d="M34.1,79.6V83c0,6.4-5.6,11.5-12.6,11.8c-0.2,0-0.4,0-0.6,0c-7.2,0-13.1-5.3-13.1-11.8v-3.4H34.1z"/>
		<path class="st1" d="M21,95.8c-7.8,0-14.1-5.7-14.1-12.8v-3.4c0-0.6,0.4-1,1-1h26.2c0.6,0,1,0.4,1,1V83c0,6.9-5.9,12.5-13.5,12.8
			C21.4,95.8,21.2,95.8,21,95.8z M8.9,80.6V83c0,6,5.4,10.8,12.1,10.8c0.2,0,0.3,0,0.5,0c6.5-0.2,11.6-5,11.6-10.8v-2.4H8.9z"/>
	</g>
	<g>
		<path class="st0" d="M137.5,232h109.4c1.7,0,3-1.3,3-3v-0.4c0-1.7-1.3-3-3-3H9.1c-1.7,0-3,1.3-3,3v0.4c0,1.7,1.3,3,3,3h103H137.5z
			"/>
		<path class="st1" d="M246.9,233H137.5c-0.6,0-1-0.4-1-1s0.4-1,1-1h109.4c1.1,0,2-0.9,2-2v-0.4c0-1.1-0.9-2-2-2H9.1
			c-1.1,0-2,0.9-2,2v0.4c0,1.1,0.9,2,2,2h103c0.6,0,1,0.4,1,1s-0.4,1-1,1H9.1c-2.2,0-4-1.8-4-4v-0.4c0-2.2,1.8-4,4-4h237.8
			c2.2,0,4,1.8,4,4v0.4C250.9,231.2,249.1,233,246.9,233z"/>
	</g>
	<g>
		<path class="st0" d="M244,79.6V83c0,5.4-4.1,10-9.6,11.4c-1.1,0.3-2.3,0.4-3.5,0.4c-7.2,0-13.1-5.3-13.1-11.8v-3.4H244z"/>
		<path class="st1" d="M230.9,95.8c-7.8,0-14.1-5.7-14.1-12.8v-3.4c0-0.6,0.4-1,1-1H244c0.6,0,1,0.4,1,1V83
			c0,5.7-4.3,10.8-10.3,12.3C233.4,95.7,232.2,95.8,230.9,95.8z M218.8,80.6V83c0,6,5.4,10.8,12.1,10.8c1.1,0,2.2-0.1,3.3-0.4
			c5.2-1.3,8.8-5.6,8.8-10.4v-2.4H218.8z"/>
	</g>
	<g>
		<path class="st0" d="M234.4,134.1v91.5H21.6V94.8c7-0.3,12.6-5.4,12.6-11.8c0,6.5,5.9,11.8,13.1,11.8c7.2,0,13.1-5.3,13.1-11.8
			c0,6.5,5.9,11.8,13.1,11.8c7.2,0,13.1-5.3,13.1-11.8c0,6.5,5.9,11.8,13.1,11.8c7.2,0,13.1-5.3,13.1-11.8c0,6.5,5.9,11.8,13.1,11.8
			c7.2,0,13.1-5.3,13.1-11.8c0,6.5,5.9,11.8,13.1,11.8c7.2,0,13.1-5.3,13.1-11.8c0,6.5,5.9,11.8,13.1,11.8c7.2,0,13.1-5.3,13.1-11.8
			c0,6.5,5.9,11.8,13.1,11.8c7.2,0,13.1-5.3,13.1-11.8c0,6.5,5.9,11.8,13.1,11.8c1.2,0,2.4-0.2,3.5-0.4v20.1V134.1z"/>
		<path class="st1" d="M234.4,226.6H21.6c-0.6,0-1-0.4-1-1V94.8c0-0.5,0.4-1,1-1c6.5-0.2,11.6-5,11.6-10.8c0-0.6,0.4-1,1-1
			s1,0.4,1,1c0,6,5.4,10.8,12.1,10.8c6.7,0,12.1-4.8,12.1-10.8c0-0.6,0.4-1,1-1s1,0.4,1,1c0,6,5.4,10.8,12.1,10.8S85.6,89,85.6,83
			c0-0.6,0.4-1,1-1s1,0.4,1,1c0,6,5.4,10.8,12.1,10.8c6.7,0,12.1-4.8,12.1-10.8c0-0.6,0.4-1,1-1s1,0.4,1,1c0,6,5.4,10.8,12.1,10.8
			c6.7,0,12.1-4.8,12.1-10.8c0-0.6,0.4-1,1-1s1,0.4,1,1c0,6,5.4,10.8,12.1,10.8c6.7,0,12.1-4.8,12.1-10.8c0-0.6,0.4-1,1-1s1,0.4,1,1
			c0,6,5.4,10.8,12.1,10.8c6.7,0,12.1-4.8,12.1-10.8c0-0.6,0.4-1,1-1s1,0.4,1,1c0,6,5.4,10.8,12.1,10.8S216.8,89,216.8,83
			c0-0.6,0.4-1,1-1s1,0.4,1,1c0,6,5.4,10.8,12.1,10.8c1.1,0,2.2-0.1,3.3-0.4c0.3-0.1,0.6,0,0.9,0.2c0.2,0.2,0.4,0.5,0.4,0.8v20.1
			c0,0.6-0.4,1-1,1s-1-0.4-1-1V95.6c-0.8,0.1-1.7,0.2-2.5,0.2c-5.9,0-11-3.3-13.1-8.1c-2.1,4.7-7.2,8.1-13.1,8.1s-11-3.3-13.1-8.1
			c-2.1,4.7-7.2,8.1-13.1,8.1c-5.9,0-11-3.3-13.1-8.1c-2.1,4.7-7.2,8.1-13.1,8.1c-5.9,0-11-3.3-13.1-8.1c-2.1,4.7-7.2,8.1-13.1,8.1
			c-5.9,0-11-3.3-13.1-8.1c-2.1,4.7-7.2,8.1-13.1,8.1c-5.9,0-11-3.3-13.1-8.1c-2.1,4.7-7.2,8.1-13.1,8.1s-11-3.3-13.1-8.1
			c-2.1,4.7-7.2,8.1-13.1,8.1c-5.9,0-11-3.3-13.1-8.1c-1.9,4.3-6.3,7.5-11.6,8v128.8h210.8v-90.5c0-0.6,0.4-1,1-1s1,0.4,1,1v91.5
			C235.4,226.1,235,226.6,234.4,226.6z"/>
	</g>
	
		<rect x="168.8" y="127.4" transform="matrix(6.123234e-17 -1 1 6.123234e-17 49.1689 342.7594)" class="st2" width="54.3" height="38.9"/>
	<g>
		<path class="st0" d="M60.4,79.6V83c0,6.5-5.9,11.8-13.1,11.8c-7.2,0-13.1-5.3-13.1-11.8v-3.4H60.4z"/>
		<path class="st1" d="M47.3,95.8c-7.8,0-14.1-5.7-14.1-12.8v-3.4c0-0.6,0.4-1,1-1h26.2c0.6,0,1,0.4,1,1V83
			C61.4,90.1,55,95.8,47.3,95.8z M35.1,80.6V83c0,6,5.4,10.8,12.1,10.8c6.7,0,12.1-4.8,12.1-10.8v-2.4H35.1z"/>
	</g>
	<g>
		<path class="st0" d="M112.8,79.6V83c0,6.5-5.9,11.8-13.1,11.8c-7.2,0-13.1-5.3-13.1-11.8v-3.4H112.8z"/>
		<path class="st1" d="M99.7,95.8c-7.8,0-14.1-5.7-14.1-12.8v-3.4c0-0.6,0.4-1,1-1h26.2c0.6,0,1,0.4,1,1V83
			C113.8,90.1,107.5,95.8,99.7,95.8z M87.6,80.6V83c0,6,5.4,10.8,12.1,10.8c6.7,0,12.1-4.8,12.1-10.8v-2.4H87.6z"/>
	</g>
	<g>
		<path class="st0" d="M165.3,79.6V83c0,6.5-5.9,11.8-13.1,11.8c-7.2,0-13.1-5.3-13.1-11.8v-3.4H165.3z"/>
		<path class="st1" d="M152.2,95.8c-7.8,0-14.1-5.7-14.1-12.8v-3.4c0-0.6,0.4-1,1-1h26.2c0.6,0,1,0.4,1,1V83
			C166.3,90.1,160,95.8,152.2,95.8z M140.1,80.6V83c0,6,5.4,10.8,12.1,10.8c6.7,0,12.1-4.8,12.1-10.8v-2.4H140.1z"/>
	</g>
	<g>
		<path class="st0" d="M217.8,79.6V83c0,6.5-5.9,11.8-13.1,11.8c-7.2,0-13.1-5.3-13.1-11.8v-3.4H217.8z"/>
		<path class="st1" d="M204.7,95.8c-7.8,0-14.1-5.7-14.1-12.8v-3.4c0-0.6,0.4-1,1-1h26.2c0.6,0,1,0.4,1,1V83
			C218.8,90.1,212.4,95.8,204.7,95.8z M192.5,80.6V83c0,6,5.4,10.8,12.1,10.8S216.8,89,216.8,83v-2.4H192.5z"/>
	</g>
	<g>
		<path class="st1" d="M221.6,226.6h-59.3c-0.6,0-1-0.4-1-1v-8c0-0.6,0.4-1,1-1h59.3c0.6,0,1,0.4,1,1v8
			C222.6,226.1,222.2,226.6,221.6,226.6z M163.3,224.6h57.3v-6h-57.3V224.6z"/>
	</g>
	<polygon class="st2" points="50.1,135 50.1,119.6 144.3,119.6 144.3,192.8 50.1,192.8 50.1,167.3 	"/>
	<g>
		<path class="st1" d="M211.4,174.5h-38.9c-0.3,0-0.5-0.2-0.5-0.5v-54.3c0-0.3,0.2-0.5,0.5-0.5h38.9c0.3,0,0.5,0.2,0.5,0.5V174
			C211.9,174.2,211.7,174.5,211.4,174.5z M173,173.5h37.9v-53.3H173V173.5z"/>
	</g>
	<g>
		<path class="st1" d="M145.4,199H41c-0.6,0-1-0.4-1-1v-83.4c0-0.6,0.4-1,1-1h104.4c0.6,0,1,0.4,1,1V151c0,0.6-0.4,1-1,1s-1-0.4-1-1
			v-35.5H42V197h102.4v-37.9c0-0.6,0.4-1,1-1s1,0.4,1,1V198C146.4,198.5,146,199,145.4,199z"/>
	</g>
	<g>
		<path class="st1" d="M46.1,153.5c-0.3,0-0.5-0.2-0.5-0.5V135c0-0.3,0.2-0.5,0.5-0.5s0.5,0.2,0.5,0.5V153
			C46.6,153.3,46.4,153.5,46.1,153.5z"/>
	</g>
	<g>
		<path class="st1" d="M46.1,162.6c-0.3,0-0.5-0.2-0.5-0.5v-1.9c0-0.3,0.2-0.5,0.5-0.5s0.5,0.2,0.5,0.5v1.9
			C46.6,162.4,46.4,162.6,46.1,162.6z"/>
	</g>
	<g>
		<path class="st1" d="M140.3,193.3H46.1c-0.3,0-0.5-0.2-0.5-0.5v-25.5c0-0.3,0.2-0.5,0.5-0.5s0.5,0.2,0.5,0.5v25h93.2v-72.2H46.6
			V135c0,0.3-0.2,0.5-0.5,0.5s-0.5-0.2-0.5-0.5v-15.4c0-0.3,0.2-0.5,0.5-0.5h94.2c0.3,0,0.5,0.2,0.5,0.5v73.2
			C140.8,193.1,140.6,193.3,140.3,193.3z"/>
	</g>
	<g>
		<path class="st0" d="M86.6,79.6V83c0,6.5-5.9,11.8-13.1,11.8c-7.2,0-13.1-5.3-13.1-11.8v-3.4H86.6z"/>
		<path class="st1" d="M73.5,95.8c-7.8,0-14.1-5.7-14.1-12.8v-3.4c0-0.6,0.4-1,1-1h26.2c0.6,0,1,0.4,1,1V83
			C87.6,90.1,81.3,95.8,73.5,95.8z M61.4,80.6V83c0,6,5.4,10.8,12.1,10.8S85.6,89,85.6,83v-2.4H61.4z"/>
	</g>
	<g>
		<path class="st0" d="M191.5,79.6V83c0,6.5-5.9,11.8-13.1,11.8c-7.2,0-13.1-5.3-13.1-11.8v-3.4H191.5z"/>
		<path class="st1" d="M178.4,95.8c-7.8,0-14.1-5.7-14.1-12.8v-3.4c0-0.6,0.4-1,1-1h26.2c0.6,0,1,0.4,1,1V83
			C192.5,90.1,186.2,95.8,178.4,95.8z M166.3,80.6V83c0,6,5.4,10.8,12.1,10.8c6.7,0,12.1-4.8,12.1-10.8v-2.4H166.3z"/>
	</g>
	<g>
		<path class="st1" d="M153.6,207.7H32.9c-0.6,0-1-0.4-1-1V198c0-0.6,0.4-1,1-1h120.7c0.6,0,1,0.4,1,1v8.8
			C154.6,207.3,154.1,207.7,153.6,207.7z M33.9,205.7h118.7V199H33.9V205.7z"/>
	</g>
	<g>
		<path class="st1" d="M71.7,162.3c-0.1,0-0.3,0-0.4-0.1c-0.2-0.2-0.2-0.5,0-0.7l29.3-29.3c0.2-0.2,0.5-0.2,0.7,0s0.2,0.5,0,0.7
			l-29.3,29.3C72,162.2,71.8,162.3,71.7,162.3z"/>
	</g>
	<g>
		<path class="st1" d="M71.9,182.5c-0.1,0-0.3,0-0.4-0.1c-0.2-0.2-0.2-0.5,0-0.7l45.8-45.8c0.2-0.2,0.5-0.2,0.7,0s0.2,0.5,0,0.7
			l-45.8,45.8C72.2,182.4,72.1,182.5,71.9,182.5z"/>
	</g>
	<g>
		<path class="st1" d="M178,150.1c-0.1,0-0.3,0-0.4-0.1c-0.2-0.2-0.2-0.5,0-0.7l17.8-17.8c0.2-0.2,0.5-0.2,0.7,0s0.2,0.5,0,0.7
			l-17.8,17.8C178.3,150,178.1,150.1,178,150.1z"/>
	</g>
	<g>
		<path class="st1" d="M178.1,162.3c-0.1,0-0.3,0-0.4-0.1c-0.2-0.2-0.2-0.5,0-0.7l27.8-27.8c0.2-0.2,0.5-0.2,0.7,0s0.2,0.5,0,0.7
			l-27.8,27.8C178.4,162.3,178.3,162.3,178.1,162.3z"/>
	</g>
	<g>
		<path class="st1" d="M234.4,129.2c-0.6,0-1-0.4-1-1v-6.5c0-0.6,0.4-1,1-1s1,0.4,1,1v6.5C235.4,128.8,235,129.2,234.4,129.2z"/>
	</g>
	<path class="st2" d="M38.1,79.6V83c0,6.4-5.6,11.5-12.6,11.8c-0.2,0-0.4,0-0.6,0c-7.2,0-13.1-5.3-13.1-11.8v-3.4H38.1z"/>
	<path class="st2" d="M141.5,232h109.4c1.7,0,3-1.3,3-3v-0.4c0-1.7-1.3-3-3-3H13.1c-1.7,0-3,1.3-3,3v0.4c0,1.7,1.3,3,3,3h103H141.5z
		"/>
	<path class="st2" d="M248,79.6V83c0,5.4-4.1,10-9.6,11.4c-1.1,0.3-2.3,0.4-3.5,0.4c-7.2,0-13.1-5.3-13.1-11.8v-3.4H248z"/>
	
		<rect x="190.3" y="187.4" transform="matrix(6.123234e-17 -1 1 6.123234e-17 11.6343 402.7944)" class="st2" width="33.8" height="16.4"/>
	
		<rect x="167.8" y="187.4" transform="matrix(6.123234e-17 -1 1 6.123234e-17 -10.8663 380.2938)" class="st2" width="33.8" height="16.4"/>
	<path class="st2" d="M90.6,79.6V83c0,6.5-5.9,11.8-13.1,11.8c-7.2,0-13.1-5.3-13.1-11.8v-3.4H90.6z"/>
	<path class="st2" d="M143.1,79.6V83c0,6.5-5.9,11.8-13.1,11.8c-7.2,0-13.1-5.3-13.1-11.8v-3.4H143.1z"/>
	<path class="st2" d="M195.5,79.6V83c0,6.5-5.9,11.8-13.1,11.8c-7.2,0-13.1-5.3-13.1-11.8v-3.4H195.5z"/>
	<polygon class="st2" points="107.2,101.8 238.4,101.8 238.4,107.3 25.6,107.3 25.6,101.8 98.2,101.8 	"/>
	<g>
		<path class="st1" d="M168.1,218.1H21.6c-0.3,0-0.5-0.2-0.5-0.5v-5.5c0-0.3,0.2-0.5,0.5-0.5h146.5c0.3,0,0.5,0.2,0.5,0.5v5.5
			C168.6,217.9,168.4,218.1,168.1,218.1z M22.1,217.1h145.5v-4.5H22.1V217.1z"/>
	</g>
	<g>
		<path class="st1" d="M234.4,218.1h-18.6c-0.3,0-0.5-0.2-0.5-0.5v-5.5c0-0.3,0.2-0.5,0.5-0.5h18.6c0.3,0,0.5,0.2,0.5,0.5v5.5
			C234.9,217.9,234.7,218.1,234.4,218.1z M216.3,217.1h17.6v-4.5h-17.6V217.1z"/>
	</g>
	<g>
		<path class="st1" d="M211.4,213H195c-0.3,0-0.5-0.2-0.5-0.5v-33.8c0-0.3,0.2-0.5,0.5-0.5h16.4c0.3,0,0.5,0.2,0.5,0.5v33.8
			C211.9,212.7,211.7,213,211.4,213z M195.5,212h15.4v-32.8h-15.4V212z"/>
	</g>
	<g>
		<path class="st1" d="M188.9,213h-16.4c-0.3,0-0.5-0.2-0.5-0.5v-33.8c0-0.3,0.2-0.5,0.5-0.5h16.4c0.3,0,0.5,0.2,0.5,0.5v33.8
			C189.4,212.7,189.2,213,188.9,213z M173,212h15.4v-32.8H173V212z"/>
	</g>
	<g>
		<path class="st1" d="M215.8,218.6h-47.7c-0.6,0-1-0.4-1-1V114.5c0-0.6,0.4-1,1-1h47.7c0.6,0,1,0.4,1,1v103.1
			C216.8,218.1,216.4,218.6,215.8,218.6z M169.1,216.6h45.7V115.5h-45.7V216.6z"/>
	</g>
	<g>
		<path class="st1" d="M246.9,233H137.5c-0.6,0-1-0.4-1-1s0.4-1,1-1h109.4c1.1,0,2-0.9,2-2v-0.4c0-1.1-0.9-2-2-2H9.1
			c-1.1,0-2,0.9-2,2v0.4c0,1.1,0.9,2,2,2h103c0.6,0,1,0.4,1,1s-0.4,1-1,1H9.1c-2.2,0-4-1.8-4-4v-0.4c0-2.2,1.8-4,4-4h237.8
			c2.2,0,4,1.8,4,4v0.4C250.9,231.2,249.1,233,246.9,233z"/>
	</g>
	<g>
		<path class="st1" d="M133,233h-16.3c-0.6,0-1-0.4-1-1s0.4-1,1-1H133c0.6,0,1,0.4,1,1S133.6,233,133,233z"/>
	</g>
	<g>
		<path class="st1" d="M234.4,107.8H21.6c-0.3,0-0.5-0.2-0.5-0.5v-5.5c0-0.3,0.2-0.5,0.5-0.5h72.6c0.3,0,0.5,0.2,0.5,0.5
			s-0.2,0.5-0.5,0.5H22.1v4.5h211.8v-4.5H103.2c-0.3,0-0.5-0.2-0.5-0.5s0.2-0.5,0.5-0.5h131.2c0.3,0,0.5,0.2,0.5,0.5v5.5
			C234.9,107.6,234.7,107.8,234.4,107.8z"/>
	</g>
	<g>
		<path class="st1" d="M126,95.8c-7.8,0-14.1-5.7-14.1-12.8v-3.4c0-0.6,0.4-1,1-1h26.2c0.6,0,1,0.4,1,1V83
			C140.1,90.1,133.7,95.8,126,95.8z M113.8,80.6V83c0,6,5.4,10.8,12.1,10.8c6.7,0,12.1-4.8,12.1-10.8v-2.4H113.8z"/>
	</g>
	<polygon class="st2" points="248,79.6 221.8,79.6 211.4,24 234.2,24 	"/>
	<polygon class="st2" points="195.5,79.6 169.3,79.6 165.9,24 188.6,24 	"/>
	<polygon class="st2" points="143.1,79.6 116.8,79.6 120.3,24 143.1,24 	"/>
	<polygon class="st2" points="90.6,79.6 64.4,79.6 74.7,24 97.5,24 	"/>
	<polygon class="st2" points="21.1,50 29.1,24 51.9,24 38.1,79.6 11.9,79.6 18.9,57.1 	"/>
	<g>
		<path class="st1" d="M195.2,76c-0.2,0-0.5-0.2-0.5-0.4l-5.9-47.4c0-0.3,0.2-0.5,0.4-0.6c0.3,0,0.5,0.2,0.6,0.4l5.9,47.4
			C195.7,75.8,195.5,76,195.2,76C195.2,76,195.2,76,195.2,76z"/>
	</g>
	<g>
		<path class="st1" d="M143.2,76c-0.3,0-0.5-0.2-0.5-0.5V28.1c0-0.3,0.2-0.5,0.5-0.5s0.5,0.2,0.5,0.5v47.4
			C143.7,75.8,143.4,76,143.2,76z"/>
	</g>
	<g>
		<path class="st1" d="M91.2,76C91.2,76,91.2,76,91.2,76c-0.3,0-0.5-0.3-0.5-0.6L96.6,28c0-0.3,0.3-0.5,0.6-0.4
			c0.3,0,0.5,0.3,0.4,0.6l-5.9,47.4C91.7,75.9,91.5,76,91.2,76z"/>
	</g>
	<g>
		<path class="st1" d="M39.4,76c0,0-0.1,0-0.1,0c-0.3-0.1-0.4-0.3-0.4-0.6L50.6,28c0.1-0.3,0.3-0.4,0.6-0.4c0.3,0.1,0.4,0.3,0.4,0.6
			L39.9,75.7C39.8,75.9,39.6,76,39.4,76z"/>
	</g>
	<g>
		<path class="st1" d="M221.2,76c-0.2,0-0.4-0.2-0.5-0.4l-8.8-47.4c-0.1-0.3,0.1-0.5,0.4-0.6c0.3-0.1,0.5,0.1,0.6,0.4l8.8,47.4
			C221.7,75.7,221.5,76,221.2,76C221.2,76,221.2,76,221.2,76z"/>
	</g>
	<g>
		<path class="st1" d="M169.1,76c-0.3,0-0.5-0.2-0.5-0.5l-2.9-47.4c0-0.3,0.2-0.5,0.5-0.5c0.3,0,0.5,0.2,0.5,0.5l2.9,47.4
			C169.7,75.8,169.5,76,169.1,76C169.2,76,169.2,76,169.1,76z"/>
	</g>
	<g>
		<path class="st1" d="M117.2,76C117.2,76,117.2,76,117.2,76c-0.3,0-0.5-0.3-0.5-0.5l2.9-47.4c0-0.3,0.2-0.5,0.5-0.5
			c0.3,0,0.5,0.3,0.5,0.5l-2.9,47.4C117.7,75.8,117.5,76,117.2,76z"/>
	</g>
	<g>
		<path class="st1" d="M65.3,76C65.3,76,65.2,76,65.3,76c-0.4-0.1-0.5-0.3-0.5-0.6L73.6,28c0-0.3,0.3-0.5,0.6-0.4
			c0.3,0.1,0.5,0.3,0.4,0.6l-8.8,47.4C65.7,75.9,65.5,76,65.3,76z"/>
	</g>
	<g>
		<path class="st1" d="M13.2,76c0,0-0.1,0-0.1,0c-0.3-0.1-0.4-0.4-0.3-0.6l14.7-47.4c0.1-0.3,0.4-0.4,0.6-0.3
			c0.3,0.1,0.4,0.4,0.3,0.6L13.7,75.7C13.6,75.9,13.4,76,13.2,76z"/>
	</g>
	<g>
		<path class="st1" d="M21,95.8c-7.8,0-14.1-5.7-14.1-12.8v-3.4c0-0.6,0.4-1,1-1h26.2c0.6,0,1,0.4,1,1V83c0,6.9-5.9,12.5-13.5,12.8
			C21.4,95.8,21.2,95.8,21,95.8z M8.9,80.6V83c0,6,5.4,10.8,12.1,10.8c0.2,0,0.3,0,0.5,0c6.5-0.2,11.6-5,11.6-10.8v-2.4H8.9z"/>
	</g>
	<g>
		<path class="st0" d="M139.1,79.6V83c0,6.5-5.9,11.8-13.1,11.8c-7.2,0-13.1-5.3-13.1-11.8v-3.4H139.1z"/>
		<path class="st1" d="M126,95.8c-7.8,0-14.1-5.7-14.1-12.8v-3.4c0-0.6,0.4-1,1-1h26.2c0.6,0,1,0.4,1,1V83
			C140.1,90.1,133.7,95.8,126,95.8z M113.8,80.6V83c0,6,5.4,10.8,12.1,10.8c6.7,0,12.1-4.8,12.1-10.8v-2.4H113.8z"/>
	</g>
	<g>
		<path class="st1" d="M230.9,95.8c-7.8,0-14.1-5.7-14.1-12.8v-3.4c0-0.6,0.4-1,1-1H244c0.6,0,1,0.4,1,1V83
			c0,5.7-4.3,10.8-10.3,12.3C233.4,95.7,232.2,95.8,230.9,95.8z M218.8,80.6V83c0,6,5.4,10.8,12.1,10.8c1.1,0,2.2-0.1,3.3-0.4
			c5.2-1.3,8.8-5.6,8.8-10.4v-2.4H218.8z"/>
	</g>
	<g>
		<path class="st1" d="M73.5,95.8c-7.8,0-14.1-5.7-14.1-12.8v-3.4c0-0.6,0.4-1,1-1h26.2c0.6,0,1,0.4,1,1V83
			C87.6,90.1,81.3,95.8,73.5,95.8z M61.4,80.6V83c0,6,5.4,10.8,12.1,10.8S85.6,89,85.6,83v-2.4H61.4z"/>
	</g>
	<g>
		<path class="st1" d="M178.4,95.8c-7.8,0-14.1-5.7-14.1-12.8v-3.4c0-0.6,0.4-1,1-1h26.2c0.6,0,1,0.4,1,1V83
			C192.5,90.1,186.2,95.8,178.4,95.8z M166.3,80.6V83c0,6,5.4,10.8,12.1,10.8c6.7,0,12.1-4.8,12.1-10.8v-2.4H166.3z"/>
	</g>
	<g>
		<path class="st1" d="M34.1,80.6H7.9c-0.3,0-0.6-0.2-0.8-0.4C6.9,80,6.9,79.6,7,79.3l7-22.5c0.2-0.5,0.7-0.8,1.3-0.7
			c0.5,0.2,0.8,0.7,0.7,1.3L9.3,78.6h24.1L46.6,25H25.9L18,50.3c-0.2,0.5-0.7,0.8-1.3,0.7c-0.5-0.2-0.8-0.7-0.7-1.3l8.1-26
			c0.1-0.4,0.5-0.7,1-0.7h22.8c0.3,0,0.6,0.1,0.8,0.4s0.3,0.6,0.2,0.9L35.1,79.9C35,80.3,34.6,80.6,34.1,80.6z"/>
	</g>
	<g>
		<path class="st1" d="M244,80.6h-26.2c-0.5,0-0.9-0.3-1-0.8l-10.3-55.6c-0.1-0.3,0-0.6,0.2-0.8c0.2-0.2,0.5-0.4,0.8-0.4h22.8
			c0.5,0,0.9,0.3,1,0.8L245,79.4c0.1,0.3,0,0.6-0.2,0.9S244.3,80.6,244,80.6z M218.6,78.6h24.1L229.4,25h-20.8L218.6,78.6z"/>
	</g>
	<g>
		<path class="st1" d="M191.5,80.6h-26.2c-0.5,0-1-0.4-1-0.9l-3.4-55.6c0-0.3,0.1-0.5,0.3-0.7c0.2-0.2,0.5-0.3,0.7-0.3h22.8
			c0.5,0,0.9,0.4,1,0.9l6.9,55.6c0,0.3-0.1,0.6-0.2,0.8C192.1,80.5,191.8,80.6,191.5,80.6z M166.2,78.6h24.2L183.8,25h-20.8
			L166.2,78.6z"/>
	</g>
	<g>
		<path class="st1" d="M139.1,80.6h-26.2c-0.3,0-0.5-0.1-0.7-0.3c-0.2-0.2-0.3-0.5-0.3-0.7l3.4-55.6c0-0.5,0.5-0.9,1-0.9h22.8
			c0.6,0,1,0.4,1,1v55.6C140.1,80.2,139.6,80.6,139.1,80.6z M113.9,78.6h24.2V25h-20.8L113.9,78.6z"/>
	</g>
	<g>
		<path class="st1" d="M86.6,80.6H60.4c-0.3,0-0.6-0.1-0.8-0.4c-0.2-0.2-0.3-0.5-0.2-0.8l10.3-55.6c0.1-0.5,0.5-0.8,1-0.8h22.8
			c0.3,0,0.6,0.1,0.7,0.3c0.2,0.2,0.3,0.5,0.2,0.8l-6.9,55.6C87.5,80.3,87.1,80.6,86.6,80.6z M61.6,78.6h24.1L92.4,25H71.5
			L61.6,78.6z"/>
	</g>
	<g>
		<path class="st1" d="M217.8,80.6h-26.2c-0.5,0-0.9-0.4-1-0.9l-6.9-55.6c0-0.3,0.1-0.6,0.2-0.8c0.2-0.2,0.5-0.3,0.7-0.3h22.8
			c0.5,0,0.9,0.3,1,0.8l10.3,55.6c0.1,0.3,0,0.6-0.2,0.8C218.3,80.5,218.1,80.6,217.8,80.6z M192.4,78.6h24.1l-10-53.6h-20.8
			L192.4,78.6z"/>
	</g>
	<g>
		<path class="st1" d="M165.3,80.6h-26.2c-0.6,0-1-0.4-1-1V24c0-0.6,0.4-1,1-1h22.8c0.5,0,1,0.4,1,0.9l3.4,55.6
			c0,0.3-0.1,0.5-0.3,0.7C165.8,80.5,165.6,80.6,165.3,80.6z M140.1,78.6h24.2L160.9,25h-20.8V78.6z"/>
	</g>
	<g>
		<path class="st1" d="M112.8,80.6H86.6c-0.3,0-0.6-0.1-0.7-0.3c-0.2-0.2-0.3-0.5-0.2-0.8l6.9-55.6c0.1-0.5,0.5-0.9,1-0.9h22.8
			c0.3,0,0.5,0.1,0.7,0.3c0.2,0.2,0.3,0.5,0.3,0.7l-3.4,55.6C113.8,80.2,113.4,80.6,112.8,80.6z M87.7,78.6h24.2l3.3-53.6H94.4
			L87.7,78.6z"/>
	</g>
	<g>
		<path class="st1" d="M60.4,80.6H34.1c-0.3,0-0.6-0.1-0.8-0.4s-0.3-0.6-0.2-0.9l13.8-55.6c0.1-0.4,0.5-0.8,1-0.8h22.8
			c0.3,0,0.6,0.1,0.8,0.4c0.2,0.2,0.3,0.5,0.2,0.8L61.4,79.8C61.3,80.3,60.9,80.6,60.4,80.6z M35.4,78.6h24.1l10-53.6H48.7
			L35.4,78.6z"/>
	</g>
</g>
</svg>
