<svg xmlns="http://www.w3.org/2000/svg" id="Layer_1" x="0" y="0" version="1.1" viewBox="0 0 256 256" xml:space="preserve"><style>.st0{fill:#fff}.st1{fill:#48386a}.st2{fill:#9feaff}</style><path d="M250.9 171.2v10.7h-9.5c-.5-4-1.9-7.6-4.2-10.7h13.7z" class="st0"/><path d="M250.9 182.9h-9.5c-.5 0-.9-.4-1-.9-.4-3.7-1.8-7.2-4-10.3-.2-.3-.2-.7-.1-1 .2-.3.5-.5.9-.5h13.7c.6 0 1 .4 1 1v10.7c0 .6-.4 1-1 1zm-8.6-2h7.7v-8.7h-10.8c1.5 2.7 2.6 5.7 3.1 8.7z" class="st1"/><path d="M73.3 41.6h113V182h-58.9c2.7-3.3 5.1-6.9 7.1-10.7 5.2-9.6 8.1-20.6 8.1-32.3 0-37.9-30.8-68.7-68.7-68.7-16.2 0-31 5.6-42.8 14.9-4 3.1-7.6 6.7-10.7 10.7V41.6h52.9z" class="st0"/><path d="M186.2 182.9h-58.9c-.4 0-.7-.2-.9-.6s-.1-.8.1-1.1c2.7-3.3 5-6.9 7-10.6 5.2-9.7 8-20.8 8-31.9 0-37.3-30.4-67.7-67.7-67.7-15.5 0-30.1 5.1-42.1 14.7-3.9 3.1-7.4 6.6-10.6 10.5-.3.3-.7.5-1.1.3-.4-.1-.7-.5-.7-.9v-54c0-.6.4-1 1-1h38.5c.6 0 1 .4 1 1s-.4 1-1 1H21.3V93c2.8-3.2 5.8-6.1 9.1-8.7 12.4-9.9 27.4-15.1 43.4-15.1 38.4 0 69.7 31.3 69.7 69.7 0 11.4-2.8 22.8-8.2 32.8-1.7 3.2-3.7 6.3-5.9 9.3h55.8V42.6h-112c-.6 0-1-.4-1-1s.4-1 1-1h113c.6 0 1 .4 1 1V182c0 .5-.4.9-1 .9z" class="st1"/><path d="M69.3 42.6h-4.5c-.6 0-1-.4-1-1s.4-1 1-1h4.5c.6 0 1 .4 1 1s-.5 1-1 1z" class="st1"/><path d="M186.2 171.2h13.7c-2.2 3.1-3.7 6.7-4.2 10.7h-9.5v-10.7z" class="st0"/><path d="M195.8 182.9h-9.5c-.6 0-1-.4-1-1v-10.7c0-.6.4-1 1-1H200c.4 0 .7.2.9.5.2.3.1.7-.1 1-2.2 3-3.6 6.6-4 10.3-.1.6-.5.9-1 .9zm-8.6-2h7.7c.5-3.1 1.5-6 3.2-8.7h-10.8v8.7z" class="st1"/><path d="M250.2 145.6c.5 2.6.7 5.4.7 8.1v17.6h-13.7c-4.2-5.8-11-9.6-18.7-9.6-7.7 0-14.5 3.8-18.7 9.6h-13.7V124h54c4 4.8 6.9 10.3 8.7 16.1l1.4 5.5z" class="st0"/><path d="M250.9 172.2h-13.7c-.3 0-.6-.2-.8-.4-4.1-5.7-10.8-9.2-17.8-9.2-7.1 0-13.7 3.4-17.9 9.2-.2.3-.5.4-.8.4h-13.7c-.6 0-1-.4-1-1V124c0-.6.4-1 1-1h54c.3 0 .6.1.8.4 4.1 4.9 7.1 10.4 8.9 16.5.2.5-.1 1.1-.7 1.2-.5.2-1.1-.1-1.2-.7-1.7-5.7-4.5-10.9-8.2-15.4h-52.5v45.2h12.2c4.5-6 11.6-9.6 19.2-9.6 7.5 0 14.7 3.6 19.2 9.6h12.2v-16.6c0-2.6-.2-5.3-.7-7.9-.1-.5.3-1.1.8-1.2.5-.1 1.1.3 1.2.8.5 2.7.7 5.5.7 8.2v17.6c-.2.7-.6 1.1-1.2 1.1z" class="st1"/><path d="M240 124h-53.8V82.4h32z" class="st0"/><path d="M240 125h-53.8c-.6 0-1-.4-1-1V82.4c0-.6.4-1 1-1h32c.4 0 .7.2.9.5l21.9 41.7c.2.3.2.7 0 1-.3.2-.6.4-1 .4zm-52.8-2h51.2l-20.8-39.7h-30.4V123z" class="st1"/><path d="M180.5 130.5v40.7h-41.1c5.2-9.6 8.1-20.6 8.1-32.3 0-37.9-30.8-68.7-68.7-68.7-16.2 0-31 5.6-42.8 14.9V52.3h144.5V130.5z" class="st2"/><path d="M175.5 172.2h-41.1c-.4 0-.7-.2-.9-.5s-.2-.7 0-1c5.2-9.7 8-20.8 8-31.9 0-37.3-30.4-67.7-67.7-67.7-15.5 0-30.1 5.1-42.1 14.7-.3.2-.7.3-1.1.1-.3-.2-.6-.5-.6-.9V52.3c0-.6.4-1 1-1h144.5c.6 0 1 .4 1 1v70.6c0 .6-.4 1-1 1s-1-.4-1-1V53.3H32v29.8C44.1 74 58.5 69.2 73.8 69.2c38.4 0 69.7 31.3 69.7 69.7 0 10.9-2.6 21.7-7.4 31.3h38.4v-39.7c0-.6.4-1 1-1s1 .4 1 1v40.7c0 .6-.5 1-1 1z" class="st1"/><path d="M165.5 161.7h-16.2c-.3 0-.5-.2-.5-.5s.2-.5.5-.5H165V62.8H92.1c-.3 0-.5-.2-.5-.5s.2-.5.5-.5h73.4c.3 0 .5.2.5.5v98.9c0 .3-.2.5-.5.5zM41 67.8c-.3 0-.5-.2-.5-.5v-5c0-.3.2-.5.5-.5h14.6c.3 0 .5.2.5.5s-.2.5-.5.5H41.5v4.5c0 .3-.2.5-.5.5z" class="st1"/><path d="M228.7 205.3c-3 1.5-6.5 2.3-10.1 2.3-12.7 0-23-10.3-23-23 0-.9.1-1.8.2-2.7.5-4 1.9-7.6 4.2-10.7 4.2-5.8 11-9.6 18.7-9.6 7.7 0 14.5 3.8 18.7 9.6 2.2 3.1 3.7 6.7 4.2 10.7.1.9.2 1.8.2 2.7 0 5.8-2.1 11-5.6 15l-7.5 5.7z" class="st0"/><path d="M218.6 208.6c-13.2 0-24-10.8-24-24 0-.9.1-1.9.2-2.8.5-4 2-7.9 4.3-11.2 4.5-6.3 11.8-10 19.5-10 7.7 0 15 3.7 19.5 10 2.4 3.3 3.9 7.2 4.3 11.2.1.9.2 1.8.2 2.8 0 5.8-2.1 11.3-5.9 15.7-.4.4-1 .5-1.4.1-.4-.4-.5-1-.1-1.4 3.5-4 5.4-9.1 5.4-14.4 0-.9-.1-1.7-.2-2.5-.4-3.7-1.8-7.2-4-10.3-4.1-5.7-10.8-9.2-17.8-9.2-7.1 0-13.7 3.4-17.9 9.2-2.2 3-3.6 6.6-4 10.3-.1.8-.2 1.7-.2 2.6 0 12.1 9.9 22 22 22 3.4 0 6.6-.7 9.6-2.2.5-.2 1.1 0 1.3.5.2.5 0 1.1-.5 1.3-3.1 1.5-6.6 2.3-10.3 2.3z" class="st1"/><path d="M197.4 119V87.4h26.7l16.6 31.6zM222.6 199.1c-8 0-14.5-6.5-14.5-14.5s6.5-14.5 14.5-14.5 14.5 6.5 14.5 14.5-6.6 14.5-14.5 14.5zM210.5 135.8h-10.3c-1.5 0-2.8-1.2-2.8-2.8 0-1.5 1.2-2.8 2.8-2.8h10.3c1.5 0 2.8 1.2 2.8 2.8 0 1.5-1.3 2.8-2.8 2.8z" class="st2"/><path d="M243.5 167.2c-.2 0-.3-.1-.4-.2-5.6-7.9-14.8-12.6-24.5-12.6s-18.9 4.7-24.5 12.6c-.2.2-.5.3-.7.1-.2-.2-.3-.5-.1-.7 5.8-8.1 15.3-13 25.3-13s19.5 4.9 25.3 13c.2.2.1.5-.1.7-.1.1-.2.1-.3.1zM218.6 200.1c-8.5 0-15.5-6.9-15.5-15.5s6.9-15.5 15.5-15.5c8.5 0 15.5 6.9 15.5 15.5s-7 15.5-15.5 15.5zm0-29c-7.4 0-13.5 6-13.5 13.5s6 13.5 13.5 13.5c7.4 0 13.5-6 13.5-13.5s-6.1-13.5-13.5-13.5z" class="st1"/><path d="M218.6 193.6c-4.9 0-9-4-9-9s4-9 9-9c1.7 0 3.4.5 4.9 1.4.2.1.3.5.1.7s-.5.3-.7.1c-1.3-.8-2.8-1.3-4.3-1.3-4.4 0-8 3.6-8 8s3.6 8 8 8 8-3.6 8-8c0-1.6-.5-3.2-1.4-4.5-.2-.2-.1-.5.1-.7.2-.2.5-.1.7.1 1 1.5 1.6 3.3 1.6 5.1-.1 5.1-4.1 9.1-9 9.1zM207 136.3h-10.3c-1.8 0-3.3-1.5-3.3-3.3s1.5-3.3 3.3-3.3H207c1.8 0 3.3 1.5 3.3 3.3s-1.5 3.3-3.3 3.3zm-10.3-5.6c-1.3 0-2.3 1-2.3 2.3s1 2.3 2.3 2.3H207c1.3 0 2.3-1 2.3-2.3s-1-2.3-2.3-2.3h-10.3z" class="st1"/><path d="M38 197.6c-19.8-12.1-32.9-33.8-32.9-58.7 0-16.3 5.7-31.3 15.2-43.1 3.2-3.9 6.8-7.5 10.7-10.7 11.7-9.3 26.6-14.9 42.8-14.9 18.4 0 35.1 7.2 47.4 19 13.1 12.5 21.3 30.2 21.3 49.7 0 11.7-2.9 22.7-8.1 32.3-2 3.8-4.4 7.4-7.1 10.7-12.6 15.6-31.9 25.6-53.5 25.6-10.1 0-19.8-2.2-28.4-6.1l-7.4-3.8z" class="st0"/><path d="M73.8 208.6c-10.1 0-19.8-2.1-28.9-6.2-.5-.2-.7-.8-.5-1.3.2-.5.8-.7 1.3-.5 8.8 4 18.3 6.1 28 6.1 20.6 0 39.8-9.2 52.8-25.3 2.7-3.3 5-6.9 7-10.6 5.2-9.7 8-20.8 8-31.9 0-18.7-7.5-36.1-21-49-12.6-12.1-29.2-18.7-46.7-18.7-15.5 0-30.1 5.1-42.1 14.7-3.9 3.1-7.4 6.6-10.6 10.5-9.7 12-15 27.1-15 42.5 0 23.8 12.1 45.4 32.5 57.8.5.3.6.9.3 1.4s-.9.6-1.4.3c-20.9-12.8-33.4-35-33.4-59.5 0-15.9 5.5-31.4 15.4-43.7 3.2-4 6.9-7.6 10.9-10.8 12.4-9.9 27.4-15.1 43.4-15.1 18 0 35.1 6.8 48.1 19.2 13.9 13.3 21.6 31.2 21.6 50.5 0 11.4-2.8 22.8-8.2 32.8-2 3.8-4.4 7.5-7.2 10.9-13.3 16.4-33.1 25.9-54.3 25.9z" class="st1"/><path d="M73.8 204.1c-36 0-65.2-29.3-65.2-65.2 0-3.5.3-7.1.9-10.6 0-.3.3-.5.6-.4.3 0 .5.3.4.6-.6 3.4-.9 7-.9 10.4 0 35.4 28.8 64.2 64.2 64.2 19.5 0 37.8-8.7 50-24 2.5-3.1 4.8-6.5 6.6-10 4.9-9.2 7.5-19.7 7.5-30.2 0-35.4-28.8-64.2-64.2-64.2-14.7 0-28.5 4.8-40 14-3.7 2.9-7.1 6.3-10 10-5.3 6.6-9.3 14.1-11.7 22.3-.1.3-.4.4-.6.3-.3-.1-.4-.4-.3-.6 2.4-8.3 6.4-16 11.8-22.7 3-3.7 6.4-7.1 10.2-10.1 11.6-9.3 25.7-14.2 40.6-14.2 36 0 65.2 29.2 65.2 65.2 0 10.7-2.7 21.3-7.7 30.7-1.9 3.6-4.2 7-6.7 10.2-12.4 15.4-30.9 24.3-50.7 24.3z" class="st1"/><path d="M12.7 120.8c2.4-8.2 6.4-15.8 11.7-22.5 3-3.7 6.4-7.1 10.1-10C46.1 79 60 74.2 74.8 74.2c35.7 0 64.7 29 64.7 64.7 0 10.6-2.6 21.2-7.6 30.5-1.9 3.6-4.1 7-6.7 10.1-12.4 15.4-30.7 24.2-50.4 24.2-35.7 0-64.7-29-64.7-64.7 0-3.5.3-7 .9-10.5l1.7-7.7z" class="st2"/><path d="M113.7 184.6c-11 9.6-25.1 15-39.9 15-33.5 0-60.7-27.2-60.7-60.7 0-14 4.6-27.2 13.4-38.1 2.8-3.5 6-6.7 9.5-9.4 10.8-8.6 23.9-13.2 37.8-13.2 33.5 0 60.7 27.2 60.7 60.7 0 10-2.5 19.8-7.1 28.6-1.8 3.3-3.9 6.5-6.3 9.5-.8 1-1.6 1.9-2.4 2.8l-5 4.8z" class="st0"/><path d="M73.8 200.6c-34 0-61.7-27.7-61.7-61.7 0-14.3 4.7-27.7 13.7-38.7 2.9-3.5 6.1-6.8 9.6-9.6 11-8.8 24.3-13.4 38.4-13.4 34 0 61.7 27.7 61.7 61.7 0 10.1-2.5 20.2-7.3 29-1.8 3.4-3.9 6.6-6.4 9.6-.8 1-1.6 1.9-2.4 2.8-.4.4-1 .4-1.4.1-.4-.4-.4-1-.1-1.4.8-.9 1.6-1.8 2.3-2.7 2.3-2.9 4.4-6 6.2-9.3 4.6-8.6 7-18.3 7-28.1 0-32.9-26.8-59.7-59.7-59.7-13.7 0-26.5 4.5-37.2 13-3.4 2.7-6.6 5.8-9.3 9.3C18.6 112.2 14 125.2 14 139c0 32.9 26.8 59.7 59.7 59.7 14.5 0 28.4-5.2 39.3-14.7.4-.4 1-.3 1.4.1.4.4.3 1-.1 1.4-11.1 9.7-25.5 15.1-40.5 15.1z" class="st1"/><path d="M73.8 91.5c-2.3 0-4.1-1.9-4.1-4.1s1.9-4.1 4.1-4.1 4.1 1.9 4.1 4.1-1.8 4.1-4.1 4.1zm0-7.3c-1.7 0-3.1 1.4-3.1 3.1s1.4 3.1 3.1 3.1 3.1-1.4 3.1-3.1-1.4-3.1-3.1-3.1zM73.8 194.5c-2.3 0-4.1-1.9-4.1-4.1s1.9-4.1 4.1-4.1 4.1 1.9 4.1 4.1-1.8 4.1-4.1 4.1zm0-7.2c-1.7 0-3.1 1.4-3.1 3.1s1.4 3.1 3.1 3.1 3.1-1.4 3.1-3.1-1.4-3.1-3.1-3.1zM125.7 143.2c-2.3 0-4.1-1.9-4.1-4.1s1.9-4.1 4.1-4.1 4.1 1.9 4.1 4.1-1.9 4.1-4.1 4.1zm0-7.2c-1.7 0-3.1 1.4-3.1 3.1s1.4 3.1 3.1 3.1 3.1-1.4 3.1-3.1-1.4-3.1-3.1-3.1zM73.8 146.2c-2 0-3.8-.8-5.2-2.2-.4-.4-.4-1 0-1.4.4-.4 1-.4 1.4 0 1 1 2.3 1.6 3.8 1.6 2.9 0 5.3-2.4 5.3-5.3s-2.4-5.3-5.3-5.3-5.3 2.4-5.3 5.3c0 .6-.4 1-1 1s-1-.4-1-1c0-4 3.3-7.3 7.3-7.3s7.3 3.3 7.3 7.3-3.3 7.3-7.3 7.3zM21.7 143.3c-2.3 0-4.1-1.9-4.1-4.1s1.9-4.1 4.1-4.1 4.1 1.9 4.1 4.1-1.8 4.1-4.1 4.1zm0-7.3c-1.7 0-3.1 1.4-3.1 3.1s1.4 3.1 3.1 3.1 3.1-1.4 3.1-3.1-1.4-3.1-3.1-3.1z" class="st1"/><path d="M73.8 133.6c-.6 0-1-.4-1-1V98.3c0-.6.4-1 1-1s1 .4 1 1v34.2c0 .6-.5 1.1-1 1.1zM100.5 165.6c-.3 0-.5-.1-.7-.3L78 143.5c-.4-.4-.4-1 0-1.4s1-.4 1.4 0l21.8 21.8c.4.4.4 1 0 1.4-.2.2-.4.3-.7.3zM47.9 97.4c-1.1 0-2.2-.6-2.7-1.6-.4-.7-.5-1.6-.3-2.4.2-.8.7-1.5 1.5-1.9.5-.3 1-.4 1.6-.4 1.1 0 2.2.6 2.7 1.6.4.7.5 1.6.3 2.4-.2.8-.7 1.5-1.5 1.9-.5.3-1.1.4-1.6.4zm0-5.2c-.4 0-.7.1-1.1.3-1 .6-1.4 1.9-.8 2.9.6 1 1.9 1.3 2.9.8.5-.3.8-.7 1-1.3.1-.5.1-1.1-.2-1.6-.4-.7-1.1-1.1-1.8-1.1zM28.9 116.4c-.5 0-1.1-.1-1.6-.4-.7-.4-1.2-1.1-1.5-1.9-.2-.8-.1-1.6.3-2.4.6-1 1.6-1.6 2.7-1.6.5 0 1.1.1 1.6.4.7.4 1.2 1.1 1.5 1.9.2.8.1 1.6-.3 2.4-.5 1-1.6 1.6-2.7 1.6zm0-5.2c-.8 0-1.5.4-1.8 1.1-.3.5-.4 1.1-.2 1.6.1.5.5 1 1 1.3 1 .6 2.3.2 2.9-.8.3-.5.4-1.1.2-1.6-.1-.5-.5-1-1-1.3-.3-.2-.7-.3-1.1-.3zM29 168.2c-1.1 0-2.2-.6-2.7-1.6-.9-1.5-.3-3.4 1.1-4.3.5-.3 1-.4 1.6-.4 1.1 0 2.2.6 2.7 1.6.4.7.5 1.6.3 2.4-.2.8-.7 1.5-1.5 1.9-.4.3-1 .4-1.5.4zm0-5.2c-.4 0-.7.1-1.1.3-1 .6-1.4 1.9-.8 2.9.6 1 1.9 1.3 2.9.8 1-.6 1.4-1.9.8-2.9-.4-.7-1.1-1.1-1.8-1.1zM48 187.2c-.5 0-1.1-.1-1.6-.4-.7-.4-1.2-1.1-1.5-1.9-.2-.8-.1-1.7.3-2.4.6-1 1.6-1.6 2.7-1.6.5 0 1.1.1 1.6.4.7.4 1.2 1.1 1.5 1.9.2.8.1 1.6-.3 2.4-.6 1-1.6 1.6-2.7 1.6zm0-5.3c-.8 0-1.5.4-1.8 1.1-.3.5-.4 1.1-.2 1.6.1.5.5 1 1 1.3 1 .6 2.3.2 2.9-.8.3-.5.4-1.1.2-1.6-.1-.5-.5-1-1-1.3-.4-.2-.8-.3-1.1-.3zM99.8 187.1c-1.1 0-2.2-.6-2.7-1.6-.4-.7-.5-1.6-.3-2.4.2-.8.7-1.5 1.5-1.9.5-.3 1-.4 1.6-.4 1.1 0 2.2.6 2.7 1.6.4.7.5 1.6.3 2.4s-.7 1.5-1.5 1.9c-.5.3-1.1.4-1.6.4zm0-5.2c-.4 0-.7.1-1.1.3-.5.3-.8.7-1 1.3-.1.5-.1 1.1.2 1.6.6 1 1.9 1.3 2.9.8.5-.3.8-.7 1-1.3.1-.5.1-1.1-.2-1.6-.4-.7-1.1-1.1-1.8-1.1zM118.7 168.2c-.5 0-1.1-.1-1.6-.4-.7-.4-1.2-1.1-1.5-1.9-.2-.8-.1-1.6.3-2.4.6-1 1.6-1.6 2.7-1.6.5 0 1.1.1 1.6.4.7.4 1.2 1.1 1.5 1.9.2.8.1 1.6-.3 2.4-.5 1-1.6 1.6-2.7 1.6zm0-5.3c-.8 0-1.5.4-1.8 1.1-.6 1-.2 2.3.8 2.9 1 .6 2.3.2 2.9-.8.3-.5.4-1.1.2-1.6-.1-.5-.5-1-1-1.3-.3-.2-.7-.3-1.1-.3zM118.7 116.3c-1.1 0-2.2-.6-2.7-1.6-.4-.7-.5-1.6-.3-2.4s.7-1.5 1.5-1.9c.5-.3 1-.4 1.6-.4 1.1 0 2.2.6 2.7 1.6.4.7.5 1.6.3 2.4-.2.8-.7 1.5-1.5 1.9-.5.3-1.1.4-1.6.4zm0-5.2c-.4 0-.7.1-1.1.3-.5.3-.8.7-1 1.3-.1.5-.1 1.1.2 1.6.6 1 1.9 1.3 2.9.8.5-.3.8-.7 1-1.3.1-.5.1-1.1-.2-1.6-.4-.7-1.1-1.1-1.8-1.1zM99.7 97.4c-.5 0-1.1-.1-1.6-.4-.7-.4-1.2-1.1-1.5-1.9-.2-.8-.1-1.6.3-2.4.6-1 1.6-1.6 2.7-1.6.5 0 1.1.1 1.6.4.7.4 1.2 1.1 1.5 1.9.2.8.1 1.6-.3 2.4-.5 1-1.6 1.6-2.7 1.6zm0-5.3c-.8 0-1.5.4-1.8 1.1-.3.5-.4 1.1-.2 1.6.1.5.5 1 1 1.3 1 .6 2.3.2 2.9-.8.6-1 .2-2.3-.8-2.9-.4-.2-.7-.3-1.1-.3z" class="st1"/><g><path d="M179.5 208.6H112c-.6 0-1-.4-1-1s.4-1 1-1h67.5c.6 0 1 .4 1 1s-.4 1-1 1z" class="st1"/></g><g><path d="M218.6 208.6h-29.8c-.6 0-1-.4-1-1s.4-1 1-1h29.8c.6 0 1 .4 1 1s-.5 1-1 1z" class="st1"/></g><g><path d="M73.8 208.6H18.1c-.6 0-1-.4-1-1s.4-1 1-1h55.7c.6 0 1 .4 1 1s-.5 1-1 1z" class="st1"/></g><g><path d="M213.3 215.4h-79.1c-.6 0-1-.4-1-1s.4-1 1-1h79.1c.6 0 1 .4 1 1s-.5 1-1 1z" class="st1"/></g><g><path d="M109.9 215.4H68.8c-.6 0-1-.4-1-1s.4-1 1-1h41.1c.6 0 1 .4 1 1s-.5 1-1 1z" class="st1"/></g><g><path d="M59 215.4H29.9c-.6 0-1-.4-1-1s.4-1 1-1H59c.6 0 1 .4 1 1s-.4 1-1 1z" class="st1"/></g><g><path d="M237.2 119.5h-43.3c-.3 0-.5-.2-.5-.5V87.4c0-.3.2-.5.5-.5h26.7c.2 0 .4.1.4.3l16.6 31.7c.1.2.1.3 0 .5 0 0-.2.1-.4.1zm-42.8-1h42l-16.1-30.7h-25.9v30.7z" class="st1"/></g><g><path d="M240 125h-53.8c-.6 0-1-.4-1-1V82.4c0-.6.4-1 1-1h32c.4 0 .7.2.9.5l21.9 41.7c.2.3.2.7 0 1-.3.2-.6.4-1 .4zm-52.8-2h51.2l-20.8-39.7h-30.4V123z" class="st1"/></g></svg>