<?xml version="1.0" encoding="utf-8"?>
<!-- Generator: Adobe Illustrator 22.1.0, SVG Export Plug-In . SVG Version: 6.00 Build 0)  -->
<svg version="1.1" id="Layer_1" xmlns="http://www.w3.org/2000/svg" xmlns:xlink="http://www.w3.org/1999/xlink" x="0px" y="0px"
	 viewBox="0 0 256 256" style="enable-background:new 0 0 256 256;" xml:space="preserve">
<style type="text/css">
	.st0{fill:#FFFFFF;}
	.st1{fill:#48386A;}
	.st2{fill:#9FEAFF;}
</style>
<g>
	<g>
		<path class="st0" d="M150.5,162.9H9.8c-3.2,0-5.8-2.6-5.8-5.8v0c0-3.2,2.6-5.8,5.8-5.8h236.3c3.2,0,5.8,2.6,5.8,5.8v0
			c0,3.2-2.6,5.8-5.8,5.8h-89.4H150.5z"/>
		<path class="st1" d="M246.2,163.9h-89.4c-0.6,0-1-0.4-1-1s0.4-1,1-1h89.4c2.7,0,4.8-2.2,4.8-4.8s-2.2-4.8-4.8-4.8H9.8
			c-2.7,0-4.8,2.2-4.8,4.8s2.2,4.8,4.8,4.8h140.6c0.6,0,1,0.4,1,1s-0.4,1-1,1H9.8c-3.8,0-6.8-3.1-6.8-6.8c0-3.8,3.1-6.8,6.8-6.8
			h236.3c3.8,0,6.8,3.1,6.8,6.8C253,160.9,249.9,163.9,246.2,163.9z"/>
	</g>
	<g>
		<polygon class="st0" points="156.8,162.9 244,162.9 244,174.6 12,174.6 12,162.9 148.5,162.9 		"/>
		<path class="st1" d="M244,175.6H12c-0.6,0-1-0.4-1-1v-11.7c0-0.6,0.4-1,1-1h136.5c0.6,0,1,0.4,1,1s-0.4,1-1,1H13v9.7h230v-9.7
			h-86.3c-0.6,0-1-0.4-1-1s0.4-1,1-1H244c0.6,0,1,0.4,1,1v11.7C245,175.1,244.6,175.6,244,175.6z"/>
	</g>
	<g>
		<path class="st0" d="M168.7,231.4H68.8c-11.4,0-22-3.4-30.9-9.2C22.3,212.1,12,194.6,12,174.6h232c0,20-10.3,37.5-25.9,47.7
			c-8.9,5.8-19.5,9.2-30.9,9.2h-12.4H168.7z"/>
		<path class="st1" d="M187.2,232.4h-12.4c-0.6,0-1-0.4-1-1s0.4-1,1-1h12.4c10.8,0,21.4-3.1,30.4-9c15.6-10.2,25.1-27.3,25.4-45.8
			H13c0.3,18.6,9.8,35.7,25.4,45.8c9,5.9,19.5,9,30.4,9h99.8c0.6,0,1,0.4,1,1s-0.4,1-1,1H68.8c-11.2,0-22.1-3.2-31.5-9.3
			C20.8,212.4,11,194.2,11,174.6c0-0.6,0.4-1,1-1h232c0.6,0,1,0.4,1,1c0,19.7-9.8,37.8-26.3,48.5
			C209.3,229.2,198.4,232.4,187.2,232.4z"/>
	</g>
	<g>
		<path class="st1" d="M244,169.3h-27.3c-0.3,0-0.5-0.2-0.5-0.5s0.2-0.5,0.5-0.5H244c0.3,0,0.5,0.2,0.5,0.5S244.3,169.3,244,169.3z"
			/>
	</g>
	<g>
		<path class="st1" d="M211,169.3H12c-0.3,0-0.5-0.2-0.5-0.5s0.2-0.5,0.5-0.5h199c0.3,0,0.5,0.2,0.5,0.5S211.3,169.3,211,169.3z"/>
	</g>
	<g>
		<polygon class="st0" points="20.2,112.9 12,112.9 12,151.3 81.2,151.3 81.2,112.9 25.2,112.9 		"/>
		<path class="st1" d="M81.2,152.3H12c-0.6,0-1-0.4-1-1v-38.3c0-0.6,0.4-1,1-1h8.2c0.6,0,1,0.4,1,1s-0.4,1-1,1H13v36.3h67.2v-36.3
			h-55c-0.6,0-1-0.4-1-1s0.4-1,1-1h56c0.6,0,1,0.4,1,1v38.3C82.2,151.8,81.8,152.3,81.2,152.3z"/>
	</g>
	<g>
		<rect x="46.6" y="74.6" class="st0" width="69.2" height="38.3"/>
		<path class="st1" d="M115.8,113.9H46.6c-0.6,0-1-0.4-1-1V74.6c0-0.6,0.4-1,1-1h69.2c0.6,0,1,0.4,1,1v38.3
			C116.8,113.5,116.4,113.9,115.8,113.9z M47.6,111.9h67.2V75.6H47.6V111.9z"/>
	</g>
	<g>
		<path class="st1" d="M110.9,108.4H51.6c-0.3,0-0.5-0.2-0.5-0.5V79.6c0-0.3,0.2-0.5,0.5-0.5h22.6c0.3,0,0.5,0.2,0.5,0.5
			s-0.2,0.5-0.5,0.5H52.1v27.3h58.2V80.1H79.5c-0.3,0-0.5-0.2-0.5-0.5s0.2-0.5,0.5-0.5h31.4c0.3,0,0.5,0.2,0.5,0.5v28.3
			C111.4,108.2,111.1,108.4,110.9,108.4z"/>
	</g>
	<g>
		<polygon class="st0" points="150.5,120.9 150.5,112.9 81.2,112.9 81.2,151.3 150.5,151.3 150.5,126.3 		"/>
		<path class="st1" d="M150.5,152.3H81.2c-0.6,0-1-0.4-1-1v-38.3c0-0.6,0.4-1,1-1h69.2c0.6,0,1,0.4,1,1v8c0,0.6-0.4,1-1,1
			s-1-0.4-1-1v-7H82.2v36.3h67.2v-24c0-0.6,0.4-1,1-1s1,0.4,1,1v25C151.5,151.8,151,152.3,150.5,152.3z"/>
	</g>
	<g>
		<path class="st1" d="M76.2,146.8H17c-0.3,0-0.5-0.2-0.5-0.5v-28.3c0-0.3,0.2-0.5,0.5-0.5h59.2c0.3,0,0.5,0.2,0.5,0.5v28.3
			C76.7,146.5,76.5,146.8,76.2,146.8z M17.5,145.8h58.2v-27.3H17.5V145.8z"/>
	</g>
	<g>
		<path class="st1" d="M145.5,146.8H86.2c-0.3,0-0.5-0.2-0.5-0.5v-28.3c0-0.3,0.2-0.5,0.5-0.5h59.2c0.3,0,0.5,0.2,0.5,0.5v28.3
			C146,146.5,145.7,146.8,145.5,146.8z M86.7,145.8H145v-27.3H86.7V145.8z"/>
	</g>
	<g>
		<polygon class="st0" points="244,123.3 244,151.3 159.8,151.3 159.8,101.3 244,101.3 244,117.9 		"/>
		<path class="st1" d="M244,152.3h-84.2c-0.6,0-1-0.4-1-1v-50c0-0.6,0.4-1,1-1H244c0.6,0,1,0.4,1,1v16.7c0,0.6-0.4,1-1,1s-1-0.4-1-1
			v-15.7h-82.2v48H243v-27c0-0.6,0.4-1,1-1s1,0.4,1,1v28C245,151.8,244.6,152.3,244,152.3z"/>
	</g>
	<g>
		<rect x="174.8" y="89.7" class="st0" width="54.2" height="11.6"/>
		<path class="st1" d="M229,102.3h-54.2c-0.6,0-1-0.4-1-1V89.7c0-0.6,0.4-1,1-1H229c0.6,0,1,0.4,1,1v11.6
			C230,101.8,229.6,102.3,229,102.3z M175.8,100.3H228v-9.6h-52.2V100.3z"/>
	</g>
	<g>
		<polygon class="st0" points="206.5,24.6 218.7,24.6 218.7,89.6 185.1,89.6 185.1,24.6 200.3,24.6 		"/>
		<path class="st1" d="M218.7,90.6h-33.6c-0.6,0-1-0.4-1-1v-65c0-0.6,0.4-1,1-1h15.2c0.6,0,1,0.4,1,1s-0.4,1-1,1h-14.2v63h31.6v-63
			h-11.1c-0.6,0-1-0.4-1-1s0.4-1,1-1h12.1c0.6,0,1,0.4,1,1v65C219.7,90.1,219.2,90.6,218.7,90.6z"/>
	</g>
	<g>
		<path class="st1" d="M244,151.8h-84.2c-0.3,0-0.5-0.2-0.5-0.5v-11.3c0-0.3,0.2-0.5,0.5-0.5H244c0.3,0,0.5,0.2,0.5,0.5v11.3
			C244.5,151.5,244.3,151.8,244,151.8z M160.3,150.8h83.2v-10.3h-83.2V150.8z"/>
	</g>
	<g>
		<path class="st1" d="M181.8,133.7c-7.3,0-13.1-5.9-13.1-13.2s5.9-13.1,13.1-13.1s13.2,5.9,13.2,13.1S189,133.7,181.8,133.7z
			 M181.8,109.4c-6.1,0-11.1,5-11.1,11.1c0,6.1,5,11.2,11.1,11.2c6.1,0,11.2-5,11.2-11.2C192.9,114.4,187.9,109.4,181.8,109.4z"/>
	</g>
	<g>
		<path class="st1" d="M221.8,133.7c-7.3,0-13.1-5.9-13.1-13.2s5.9-13.1,13.1-13.1s13.2,5.9,13.2,13.1S229.1,133.7,221.8,133.7z
			 M221.8,109.4c-6.1,0-11.1,5-11.1,11.1c0,6.1,5,11.2,11.1,11.2c6.1,0,11.2-5,11.2-11.2C233,114.4,228,109.4,221.8,109.4z"/>
	</g>
	<path class="st2" d="M153.5,162.9H12.8c-3.2,0-5.8-2.6-5.8-5.8v0c0-3.2,2.6-5.8,5.8-5.8h236.3c3.2,0,5.8,2.6,5.8,5.8v0
		c0,3.2-2.6,5.8-5.8,5.8h-89.4H153.5z"/>
	<circle class="st2" cx="51.5" cy="193.4" r="4.5"/>
	<circle class="st2" cx="90.7" cy="193.4" r="4.5"/>
	<circle class="st2" cx="130" cy="193.4" r="4.5"/>
	<circle class="st2" cx="169.3" cy="193.4" r="4.5"/>
	<circle class="st2" cx="208.5" cy="193.4" r="4.5"/>
	<rect x="81.8" y="82.6" class="st2" width="3.5" height="22.3"/>
	<rect x="105" y="82.6" class="st2" width="3.5" height="22.3"/>
	<rect x="93.4" y="82.6" class="st2" width="3.5" height="22.3"/>
	<rect x="70.2" y="82.6" class="st2" width="3.5" height="22.3"/>
	<rect x="58.6" y="82.6" class="st2" width="3.5" height="22.3"/>
	<rect x="47.2" y="120.9" class="st2" width="3.5" height="22.3"/>
	<rect x="70.3" y="120.9" class="st2" width="3.5" height="22.3"/>
	<rect x="58.7" y="120.9" class="st2" width="3.5" height="22.3"/>
	<rect x="35.6" y="120.9" class="st2" width="3.5" height="22.3"/>
	<rect x="24" y="120.9" class="st2" width="3.5" height="22.3"/>
	<rect x="116.4" y="120.9" class="st2" width="3.5" height="22.3"/>
	<rect x="139.6" y="120.9" class="st2" width="3.5" height="22.3"/>
	<rect x="128" y="120.9" class="st2" width="3.5" height="22.3"/>
	<polygon class="st2" points="104.8,134.4 104.8,120.9 108.3,120.9 108.3,143.3 104.8,143.3 104.8,138 	"/>
	<rect x="93.2" y="120.9" class="st2" width="3.5" height="22.3"/>
	<polygon class="st2" points="196.9,49.8 188.1,49.8 188.1,35.1 221.7,35.1 221.7,49.8 202.3,49.8 	"/>
	<rect x="188.1" y="62.4" class="st2" width="33.6" height="14.7"/>
	<path class="st2" d="M184.6,127.7c-3.9,0-7.1-3.2-7.1-7.2s3.2-7.1,7.1-7.1s7.1,3.2,7.1,7.1S188.5,127.7,184.6,127.7z"/>
	<path class="st2" d="M223.9,127.7c-3.9,0-7.1-3.2-7.1-7.2s3.2-7.1,7.1-7.1s7.1,3.2,7.1,7.1S227.8,127.7,223.9,127.7z"/>
	<path class="st2" d="M169.2,231.4H68.8c-11.4,0-22-3.4-30.9-9.2H101h8.3h108.8c-8.9,5.8-19.5,9.2-30.9,9.2h-12.4H169.2z"/>
	<g>
		<path class="st1" d="M252,157.6H49.5c-0.3,0-0.5-0.2-0.5-0.5s0.2-0.5,0.5-0.5H252c0.3,0,0.5,0.2,0.5,0.5S252.3,157.6,252,157.6z"
			/>
	</g>
	<g>
		<path class="st1" d="M43.5,157.6H4c-0.3,0-0.5-0.2-0.5-0.5s0.2-0.5,0.5-0.5h39.5c0.3,0,0.5,0.2,0.5,0.5S43.8,157.6,43.5,157.6z"/>
	</g>
	<g>
		<path class="st1" d="M49.2,143.8h-3.5c-0.3,0-0.5-0.2-0.5-0.5v-22.3c0-0.3,0.2-0.5,0.5-0.5h3.5c0.3,0,0.5,0.2,0.5,0.5v22.3
			C49.7,143.5,49.5,143.8,49.2,143.8z M46.2,142.8h2.5v-21.3h-2.5V142.8z"/>
	</g>
	<g>
		<path class="st1" d="M72.4,143.8h-3.5c-0.3,0-0.5-0.2-0.5-0.5v-22.3c0-0.3,0.2-0.5,0.5-0.5h3.5c0.3,0,0.5,0.2,0.5,0.5v22.3
			C72.9,143.5,72.6,143.8,72.4,143.8z M69.3,142.8h2.5v-21.3h-2.5V142.8z"/>
	</g>
	<g>
		<path class="st1" d="M60.8,143.8h-3.5c-0.3,0-0.5-0.2-0.5-0.5v-22.3c0-0.3,0.2-0.5,0.5-0.5h3.5c0.3,0,0.5,0.2,0.5,0.5v22.3
			C61.3,143.5,61.1,143.8,60.8,143.8z M57.8,142.8h2.5v-21.3h-2.5V142.8z"/>
	</g>
	<g>
		<path class="st1" d="M37.6,143.8h-3.5c-0.3,0-0.5-0.2-0.5-0.5v-22.3c0-0.3,0.2-0.5,0.5-0.5h3.5c0.3,0,0.5,0.2,0.5,0.5v22.3
			C38.1,143.5,37.9,143.8,37.6,143.8z M34.6,142.8h2.5v-21.3h-2.5V142.8z"/>
	</g>
	<g>
		<path class="st1" d="M26,143.8h-3.5c-0.3,0-0.5-0.2-0.5-0.5v-22.3c0-0.3,0.2-0.5,0.5-0.5H26c0.3,0,0.5,0.2,0.5,0.5v22.3
			C26.5,143.5,26.3,143.8,26,143.8z M23,142.8h2.5v-21.3H23V142.8z"/>
	</g>
	<g>
		<path class="st1" d="M118.4,143.8h-3.5c-0.3,0-0.5-0.2-0.5-0.5v-22.3c0-0.3,0.2-0.5,0.5-0.5h3.5c0.3,0,0.5,0.2,0.5,0.5v22.3
			C118.9,143.5,118.7,143.8,118.4,143.8z M115.4,142.8h2.5v-21.3h-2.5V142.8z"/>
	</g>
	<g>
		<path class="st1" d="M141.6,143.8h-3.5c-0.3,0-0.5-0.2-0.5-0.5v-22.3c0-0.3,0.2-0.5,0.5-0.5h3.5c0.3,0,0.5,0.2,0.5,0.5v22.3
			C142.1,143.5,141.9,143.8,141.6,143.8z M138.6,142.8h2.5v-21.3h-2.5V142.8z"/>
	</g>
	<g>
		<path class="st1" d="M130,143.8h-3.5c-0.3,0-0.5-0.2-0.5-0.5v-22.3c0-0.3,0.2-0.5,0.5-0.5h3.5c0.3,0,0.5,0.2,0.5,0.5v22.3
			C130.5,143.5,130.3,143.8,130,143.8z M127,142.8h2.5v-21.3H127V142.8z"/>
	</g>
	<g>
		<path class="st1" d="M106.8,143.8h-3.5c-0.3,0-0.5-0.2-0.5-0.5V138c0-0.3,0.2-0.5,0.5-0.5s0.5,0.2,0.5,0.5v4.8h2.5v-21.3h-2.5v13
			c0,0.3-0.2,0.5-0.5,0.5s-0.5-0.2-0.5-0.5v-13.5c0-0.3,0.2-0.5,0.5-0.5h3.5c0.3,0,0.5,0.2,0.5,0.5v22.3
			C107.3,143.5,107.1,143.8,106.8,143.8z"/>
	</g>
	<g>
		<path class="st1" d="M95.3,143.8h-3.5c-0.3,0-0.5-0.2-0.5-0.5v-22.3c0-0.3,0.2-0.5,0.5-0.5h3.5c0.3,0,0.5,0.2,0.5,0.5v22.3
			C95.8,143.5,95.5,143.8,95.3,143.8z M92.2,142.8h2.5v-21.3h-2.5V142.8z"/>
	</g>
	<g>
		<path class="st1" d="M83.8,105.4h-3.5c-0.3,0-0.5-0.2-0.5-0.5V82.6c0-0.3,0.2-0.5,0.5-0.5h3.5c0.3,0,0.5,0.2,0.5,0.5v22.3
			C84.3,105.2,84.1,105.4,83.8,105.4z M80.8,104.4h2.5V83.1h-2.5V104.4z"/>
	</g>
	<g>
		<path class="st1" d="M107,105.4h-3.5c-0.3,0-0.5-0.2-0.5-0.5V82.6c0-0.3,0.2-0.5,0.5-0.5h3.5c0.3,0,0.5,0.2,0.5,0.5v22.3
			C107.5,105.2,107.3,105.4,107,105.4z M104,104.4h2.5V83.1H104V104.4z"/>
	</g>
	<g>
		<path class="st1" d="M95.4,105.4h-3.5c-0.3,0-0.5-0.2-0.5-0.5V82.6c0-0.3,0.2-0.5,0.5-0.5h3.5c0.3,0,0.5,0.2,0.5,0.5v22.3
			C95.9,105.2,95.7,105.4,95.4,105.4z M92.4,104.4h2.5V83.1h-2.5V104.4z"/>
	</g>
	<g>
		<path class="st1" d="M72.2,105.4h-3.5c-0.3,0-0.5-0.2-0.5-0.5V82.6c0-0.3,0.2-0.5,0.5-0.5h3.5c0.3,0,0.5,0.2,0.5,0.5v22.3
			C72.7,105.2,72.5,105.4,72.2,105.4z M69.2,104.4h2.5V83.1h-2.5V104.4z"/>
	</g>
	<g>
		<path class="st1" d="M60.7,105.4h-3.5c-0.3,0-0.5-0.2-0.5-0.5V82.6c0-0.3,0.2-0.5,0.5-0.5h3.5c0.3,0,0.5,0.2,0.5,0.5v22.3
			C61.2,105.2,60.9,105.4,60.7,105.4z M57.6,104.4h2.5V83.1h-2.5V104.4z"/>
	</g>
	<g>
		<path class="st1" d="M246.2,163.9h-89.4c-0.6,0-1-0.4-1-1s0.4-1,1-1h89.4c2.7,0,4.8-2.2,4.8-4.8s-2.2-4.8-4.8-4.8H9.8
			c-2.7,0-4.8,2.2-4.8,4.8s2.2,4.8,4.8,4.8h140.6c0.6,0,1,0.4,1,1s-0.4,1-1,1H9.8c-3.8,0-6.8-3.1-6.8-6.8c0-3.8,3.1-6.8,6.8-6.8
			h236.3c3.8,0,6.8,3.1,6.8,6.8C253,160.9,249.9,163.9,246.2,163.9z"/>
	</g>
	<g>
		<path class="st1" d="M49.5,201.9c-4.7,0-8.5-3.8-8.5-8.5c0-2.6,1.2-5.1,3.3-6.7c0.4-0.3,1.1-0.3,1.4,0.2c0.3,0.4,0.3,1.1-0.2,1.4
			c-1.6,1.2-2.5,3.1-2.5,5.1c0,3.6,2.9,6.5,6.5,6.5s6.5-2.9,6.5-6.5s-2.9-6.5-6.5-6.5c-0.6,0-1-0.4-1-1s0.4-1,1-1
			c4.7,0,8.5,3.8,8.5,8.5S54.2,201.9,49.5,201.9z"/>
	</g>
	<g>
		<path class="st1" d="M49.5,198.4c-2.8,0-5-2.2-5-5s2.2-5,5-5s5,2.2,5,5S52.2,198.4,49.5,198.4z M49.5,189.4c-2.2,0-4,1.8-4,4
			s1.8,4,4,4s4-1.8,4-4S51.7,189.4,49.5,189.4z"/>
	</g>
	<g>
		<path class="st1" d="M88.7,201.9c-4.7,0-8.5-3.8-8.5-8.5s3.8-8.5,8.5-8.5s8.5,3.8,8.5,8.5S93.4,201.9,88.7,201.9z M88.7,186.9
			c-3.6,0-6.5,2.9-6.5,6.5s2.9,6.5,6.5,6.5s6.5-2.9,6.5-6.5S92.3,186.9,88.7,186.9z"/>
	</g>
	<g>
		<path class="st1" d="M88.7,198.4c-2.8,0-5-2.2-5-5s2.2-5,5-5s5,2.2,5,5S91.5,198.4,88.7,198.4z M88.7,189.4c-2.2,0-4,1.8-4,4
			s1.8,4,4,4s4-1.8,4-4S90.9,189.4,88.7,189.4z"/>
	</g>
	<g>
		<path class="st1" d="M128,201.9c-4.7,0-8.5-3.8-8.5-8.5s3.8-8.5,8.5-8.5s8.5,3.8,8.5,8.5S132.7,201.9,128,201.9z M128,186.9
			c-3.6,0-6.5,2.9-6.5,6.5s2.9,6.5,6.5,6.5s6.5-2.9,6.5-6.5S131.6,186.9,128,186.9z"/>
	</g>
	<g>
		<path class="st1" d="M128,198.4c-2.8,0-5-2.2-5-5s2.2-5,5-5s5,2.2,5,5S130.8,198.4,128,198.4z M128,189.4c-2.2,0-4,1.8-4,4
			s1.8,4,4,4s4-1.8,4-4S130.2,189.4,128,189.4z"/>
	</g>
	<g>
		<path class="st1" d="M167.3,201.9c-4.7,0-8.5-3.8-8.5-8.5s3.8-8.5,8.5-8.5s8.5,3.8,8.5,8.5S172,201.9,167.3,201.9z M167.3,186.9
			c-3.6,0-6.5,2.9-6.5,6.5s2.9,6.5,6.5,6.5s6.5-2.9,6.5-6.5S170.9,186.9,167.3,186.9z"/>
	</g>
	<g>
		<path class="st1" d="M167.3,198.4c-2.8,0-5-2.2-5-5s2.2-5,5-5s5,2.2,5,5S170,198.4,167.3,198.4z M167.3,189.4c-2.2,0-4,1.8-4,4
			s1.8,4,4,4s4-1.8,4-4S169.5,189.4,167.3,189.4z"/>
	</g>
	<g>
		<path class="st1" d="M206.5,201.9c-4.7,0-8.5-3.8-8.5-8.5c0-3.2,1.7-6.1,4.6-7.5c0.5-0.3,1.1-0.1,1.4,0.4c0.3,0.5,0.1,1.1-0.4,1.4
			c-2.1,1.1-3.5,3.3-3.5,5.8c0,3.6,2.9,6.5,6.5,6.5s6.5-2.9,6.5-6.5s-2.9-6.5-6.5-6.5c-0.6,0-1-0.4-1-1s0.4-1,1-1
			c4.7,0,8.5,3.8,8.5,8.5S211.2,201.9,206.5,201.9z"/>
	</g>
	<g>
		<path class="st1" d="M206.5,198.4c-2.8,0-5-2.2-5-5s2.2-5,5-5s5,2.2,5,5S209.3,198.4,206.5,198.4z M206.5,189.4c-2.2,0-4,1.8-4,4
			s1.8,4,4,4s4-1.8,4-4S208.7,189.4,206.5,189.4z"/>
	</g>
	<g>
		<path class="st1" d="M182.6,128.2c-4.2,0-7.6-3.4-7.6-7.7c0-4.2,3.4-7.6,7.6-7.6c4.2,0,7.7,3.4,7.7,7.6
			C190.2,124.8,186.8,128.2,182.6,128.2z M182.6,113.9c-3.7,0-6.6,3-6.6,6.6c0,3.7,3,6.7,6.6,6.7c3.7,0,6.7-3,6.7-6.7
			C189.2,116.9,186.3,113.9,182.6,113.9z"/>
	</g>
	<g>
		<path class="st1" d="M221.9,128.2c-4.2,0-7.7-3.4-7.7-7.7c0-4.2,3.4-7.6,7.7-7.6c4.2,0,7.6,3.4,7.6,7.6
			C229.5,124.8,226.1,128.2,221.9,128.2z M221.9,113.9c-3.7,0-6.7,3-6.7,6.6c0,3.7,3,6.7,6.7,6.7c3.7,0,6.6-3,6.6-6.7
			C228.5,116.9,225.5,113.9,221.9,113.9z"/>
	</g>
	<g>
		<path class="st1" d="M218.7,50.3h-19.4c-0.3,0-0.5-0.2-0.5-0.5s0.2-0.5,0.5-0.5h18.9V35.6h-32.6v13.7h8.3c0.3,0,0.5,0.2,0.5,0.5
			s-0.2,0.5-0.5,0.5h-8.8c-0.3,0-0.5-0.2-0.5-0.5V35.1c0-0.3,0.2-0.5,0.5-0.5h33.6c0.3,0,0.5,0.2,0.5,0.5v14.7
			C219.2,50,218.9,50.3,218.7,50.3z"/>
	</g>
	<g>
		<path class="st1" d="M218.7,77.5h-33.6c-0.3,0-0.5-0.2-0.5-0.5V62.4c0-0.3,0.2-0.5,0.5-0.5h33.6c0.3,0,0.5,0.2,0.5,0.5V77
			C219.2,77.3,218.9,77.5,218.7,77.5z M185.6,76.5h32.6V62.9h-32.6V76.5z"/>
	</g>
	<g>
		<path class="st1" d="M218.7,90.6h-33.6c-0.6,0-1-0.4-1-1v-65c0-0.6,0.4-1,1-1h15.2c0.6,0,1,0.4,1,1s-0.4,1-1,1h-14.2v63h31.6v-63
			h-11.1c-0.6,0-1-0.4-1-1s0.4-1,1-1h12.1c0.6,0,1,0.4,1,1v65C219.7,90.1,219.2,90.6,218.7,90.6z"/>
	</g>
	<g>
		<path class="st1" d="M187.2,231.9h-12.4c-0.3,0-0.5-0.2-0.5-0.5s0.2-0.5,0.5-0.5h12.4c10.4,0,20.4-2.8,29.2-8.2H39.6
			c8.8,5.3,18.8,8.2,29.2,8.2h100.3c0.3,0,0.5,0.2,0.5,0.5s-0.2,0.5-0.5,0.5H68.8c-11.1,0-21.9-3.2-31.2-9.2
			c-0.2-0.1-0.3-0.3-0.2-0.6c0.1-0.2,0.3-0.4,0.5-0.4h180.2c0.2,0,0.4,0.1,0.5,0.4c0.1,0.2,0,0.4-0.2,0.6
			C209.1,228.7,198.3,231.9,187.2,231.9z"/>
	</g>
</g>
</svg>
