<svg xmlns="http://www.w3.org/2000/svg" id="Layer_1" x="0" y="0" enable-background="new 0 0 256 256" version="1.1" viewBox="0 0 256 256" xml:space="preserve"><style>.st0{fill:#DBFDFF;}
	.st1{fill:#FFFFFF;}
	.st2{fill:#48386A;}
	.st3{fill:#FF8584;}
	.st4{fill:#9FEAFF;}
	.st5{fill:#FEBE7F;}</style><path d="M192.1 20.3c-23 0-42.6 14.3-50.5 34.4-6.6-4.6-14.3-7.8-22.6-9.1-8-19.8-27.5-33.8-50.2-33.8-30 0-54.3 24.3-54.3 54.3 0 6.3 1.1 12.4 3.1 18-2 5.6-3.1 11.7-3.1 18 0 18.3 9.1 34.5 23 44.3-2.2 6-3.5 12.4-3.5 19.2 0 30 24.3 54.3 54.3 54.3 13.1 0 25.1-4.6 34.5-12.4 9.5 15.6 26.7 26.1 46.4 26.1 30 0 54.3-24.3 54.3-54.3 0-9.4-2.4-18.2-6.6-25.9 12-10 19.6-25 19.6-41.8 0-1.8-.1-3.7-.3-5.5 6.4-8.9 10.2-19.8 10.2-31.6 0-29.9-24.3-54.2-54.3-54.2z" class="st0"/><path d="M97 171.6 94.5 179.3 90.4 192.1 85.5 207.6 79.1 227.5 74.1 243.1 71.2 252 59.1 252 85 171.6z" class="st1"/><path d="M71.2 253H59.1c-.3 0-.6-.2-.8-.4-.2-.3-.2-.6-.1-.9L84 171.2c.1-.4.5-.7 1-.7h12c.3 0 .6.2.8.4.2.3.2.6.1.9l-25.8 80.4c-.1.5-.5.8-.9.8zm-10.7-2h10l25.2-78.4h-10L60.5 251z" class="st2"/><path d="M100 171.6 97.5 179.3 93.4 192.1 88.5 207.6 82.1 227.5 77.1 243.1 74.2 252 62.1 252 88 171.6z" class="st3"/><path d="M65.2 252.5H65c-.3-.1-.4-.4-.3-.6l8.9-27.4c.1-.3.4-.4.6-.3.3.1.4.4.3.6l-8.9 27.4c0 .2-.2.3-.4.3zM75.7 220.1h-.2c-.3-.1-.4-.4-.3-.6l15.6-48c.1-.3.4-.4.6-.3.3.1.4.4.3.6l-15.6 48c0 .2-.2.3-.4.3z" class="st2"/><path d="M177.5 191.7 196.9 252 184.8 252 181.9 243.1 176.9 227.5 170.5 207.6 165.6 192.1 161.5 179.3 159 171.6 171 171.6 174 180.8z" class="st1"/><path d="M196.9 253h-12.1c-.4 0-.8-.3-1-.7L158 171.9c-.1-.3 0-.6.1-.9.2-.3.5-.4.8-.4H171c.4 0 .8.3 1 .7l3 9.3c.2.5-.1 1.1-.6 1.3-.5.2-1.1-.1-1.3-.6l-2.8-8.6h-10l25.2 78.4h10l-19-59c-.2-.5.1-1.1.6-1.3.5-.2 1.1.1 1.3.6l19.4 60.3c.1.3 0 .6-.1.9-.2.2-.5.4-.8.4z" class="st2"/><path d="M180.5 191.7 199.9 252 187.8 252 184.9 243.1 179.9 227.5 173.5 207.6 168.6 192.1 164.5 179.3 162 171.6 174 171.6 177 180.8z" class="st3"/><path d="M175.9 188.6c-.4 0-.8-.3-1-.7l-1-3c-.2-.5.1-1.1.6-1.3.5-.2 1.1.1 1.3.6l1 3c.2.5-.1 1.1-.6 1.3-.1.1-.2.1-.3.1zM190.8 252.5c-.2 0-.4-.1-.5-.3l-26.1-80.4c-.1-.3.1-.5.3-.6.3-.1.5.1.6.3l26.1 80.4c.1.3-.1.5-.3.6h-.1z" class="st2"/><path d="M170.5 207.6 85.5 207.6 90.4 192.1 165.6 192.1z" class="st1"/><path d="M170.5 208.6h-85c-.3 0-.6-.2-.8-.4-.2-.3-.2-.6-.1-.9l5-15.6c.1-.4.5-.7 1-.7h75.1c.4 0 .8.3 1 .7l5 15.6c.1.3 0 .6-.1.9-.4.3-.7.4-1.1.4zm-83.7-2h82.3l-4.4-13.6H91.2l-4.4 13.6z" class="st2"/><path d="M161.5 179.3 94.5 179.3 97 171.6 159 171.6z" class="st1"/><path d="M161.5 180.3h-67c-.3 0-.6-.2-.8-.4-.2-.3-.2-.6-.1-.9l2.5-7.8c.1-.4.5-.7 1-.7H159c.4 0 .8.3 1 .7l2.5 7.8c.1.3 0 .6-.1.9-.3.3-.6.4-.9.4zm-65.6-2h64.2l-1.9-5.8H97.8l-1.9 5.8z" class="st2"/><path d="M142.5 227.5 176.9 227.5 181.9 243.1 74.1 243.1 79.1 227.5 134 227.5z" class="st1"/><path d="M181.9 244.1H74.1c-.3 0-.6-.2-.8-.4-.2-.3-.2-.6-.1-.9l5-15.6c.1-.4.5-.7 1-.7H134c.6 0 1 .4 1 1s-.4 1-1 1H79.8l-4.4 13.6h105.1l-4.4-13.6h-33.7c-.6 0-1-.4-1-1s.4-1 1-1h34.4c.4 0 .8.3 1 .7l5 15.6c.1.3 0 .6-.1.9-.1.2-.4.4-.8.4zM167.4 200.3H88c-.3 0-.5-.2-.5-.5s.2-.5.5-.5h79.5c.3 0 .5.2.5.5s-.3.5-.6.5z" class="st2"/><path d="M179 235.8H76.6c-.3 0-.5-.2-.5-.5s.2-.5.5-.5H179c.3 0 .5.2.5.5s-.3.5-.5.5z" class="st2"/><path d="M185.8 35.2V156c0 8.6-7 15.6-15.6 15.6H84.4c-8.6 0-15.6-7-15.6-15.6V35.2c0-8.6 7-15.6 15.6-15.6h85.9c8.5.1 15.5 7 15.5 15.6z" class="st1"/><path d="M170.2 172.6H84.4c-9.1 0-16.6-7.4-16.6-16.6V35.2c0-9.1 7.4-16.6 16.6-16.6h85.9c9.1 0 16.6 7.4 16.6 16.6V156c-.1 9.1-7.5 16.6-16.7 16.6zM84.4 20.7c-8 0-14.6 6.5-14.6 14.6V156c0 8 6.5 14.6 14.6 14.6h85.9c8 0 14.6-6.5 14.6-14.6V35.2c0-8-6.5-14.6-14.6-14.6H84.4z" class="st2"/><path d="M180.6 112.7H74c-.6 0-1-.4-1-1V35.2c0-6.3 5.1-11.4 11.4-11.4h85.9c6.3 0 11.4 5.1 11.4 11.4v8.3c0 .6-.4 1-1 1s-1-.4-1-1v-8.3c0-5.2-4.2-9.4-9.4-9.4H84.4c-5.2 0-9.4 4.2-9.4 9.4v75.5h104.6V50c0-.6.4-1 1-1s1 .4 1 1v61.7c0 .5-.5 1-1 1z" class="st2"/><path d="M79.2 65.4c-.3 0-.5-.2-.5-.5v-3.4c0-.3.2-.5.5-.5s.5.2.5.5v3.4c0 .3-.3.5-.5.5z" class="st2"/><path d="M68.8 116.9H185.8V128H68.8z" class="st3"/><path d="M185.8 129h-117c-.6 0-1-.4-1-1v-11.1c0-.6.4-1 1-1h117c.6 0 1 .4 1 1V128c0 .5-.5 1-1 1zm-116-2h115v-9.1h-115v9.1z" class="st2"/><path d="M116.6 4 158.6 4 158.6 19.7 96 19.7 96 4 108.7 4z" class="st1"/><path d="M158.6 20.7H96c-.6 0-1-.4-1-1V4c0-.6.4-1 1-1h12.7c.6 0 1 .4 1 1s-.4 1-1 1H97v13.7h60.7V5h-41c-.6 0-1-.4-1-1s.4-1 1-1h42c.6 0 1 .4 1 1v15.7c-.1.5-.5 1-1.1 1zM185.8 122.9H88.4c-.3 0-.5-.2-.5-.5s.2-.5.5-.5h97.4c.3 0 .5.2.5.5s-.2.5-.5.5zM81.8 122.9h-13c-.3 0-.5-.2-.5-.5s.2-.5.5-.5h13c.3 0 .5.2.5.5s-.3.5-.5.5z" class="st2"/><path d="M82.2 56.4V35.2c0-2.9 2.3-5.2 5.2-5.2h85.9c2.9 0 5.2 2.3 5.2 5.2v71.3H82.2V56.4z" class="st4"/><path d="M125.1-11.7H135.6V40.599999999999994H125.1z" class="st4" transform="rotate(90 130.286 14.422)"/><path d="M98.6 145.9H162V153.20000000000002H98.6z" class="st4"/><path d="M111 140.8 98.6 140.8 98.6 133.6 162 133.6 162 140.8 115.6 140.8z" class="st4"/><path d="M150 165.7 98.6 165.7 98.6 158.4 162 158.4 162 165.7 155.6 165.7z" class="st4"/><circle cx="83.8" cy="149.6" r="4.7" class="st5"/><circle cx="174.8" cy="149.6" r="4.7" class="st5"/><path d="M71.2 253H59.1c-.3 0-.6-.2-.8-.4-.2-.3-.2-.6-.1-.9L84 171.2c.1-.4.5-.7 1-.7h12c.3 0 .6.2.8.4.2.3.2.6.1.9l-25.8 80.4c-.1.5-.5.8-.9.8zm-10.7-2h10l25.2-78.4h-10L60.5 251zM196.9 253h-12.1c-.4 0-.8-.3-1-.7L158 171.9c-.1-.3 0-.6.1-.9.2-.3.5-.4.8-.4H171c.4 0 .8.3 1 .7l3 9.3c.2.5-.1 1.1-.6 1.3-.5.2-1.1-.1-1.3-.6l-2.8-8.6h-10l25.2 78.4h10l-19-59c-.2-.5.1-1.1.6-1.3.5-.2 1.1.1 1.3.6l19.4 60.3c.1.3 0 .6-.1.9-.2.2-.5.4-.8.4zM153.4 20.2h-52.3c-.3 0-.5-.2-.5-.5V9.2c0-.3.2-.5.5-.5h52.3c.3 0 .5.2.5.5v10.5c0 .2-.2.5-.5.5zm-51.8-1h51.3V9.7h-51.3v9.5z" class="st2"/><path d="M158.6 20.7H96c-.6 0-1-.4-1-1V4c0-.6.4-1 1-1h12.7c.6 0 1 .4 1 1s-.4 1-1 1H97v13.7h60.7V5h-41c-.6 0-1-.4-1-1s.4-1 1-1h42c.6 0 1 .4 1 1v15.7c-.1.5-.5 1-1.1 1zM175.4 107H79.2c-.3 0-.5-.2-.5-.5V68.1c0-.3.2-.5.5-.5s.5.2.5.5V106h95.2V35.2c0-2.6-2.1-4.7-4.7-4.7H84.4c-2.6 0-4.7 2.1-4.7 4.7v21.1c0 .3-.2.5-.5.5s-.5-.2-.5-.5V35.2c0-3.1 2.6-5.7 5.7-5.7h85.9c3.1 0 5.7 2.6 5.7 5.7v71.3c-.1.3-.3.5-.6.5z" class="st2"/><path d="M101.5 97.1c-.1 0-.3 0-.4-.1-.2-.2-.2-.5 0-.7l51.7-51.7c.2-.2.5-.2.7 0s.2.5 0 .7L101.8 97c-.1.1-.2.1-.3.1zM114.2 96.2c-.1 0-.3 0-.4-.1-.2-.2-.2-.5 0-.7l35.6-35.6c.2-.2.5-.2.7 0s.2.5 0 .7l-35.6 35.6c0 .1-.2.1-.3.1zM159 153.7H95.6c-.3 0-.5-.2-.5-.5v-7.3c0-.3.2-.5.5-.5H159c.3 0 .5.2.5.5v7.3c0 .3-.3.5-.5.5zm-62.9-1h62.4v-6.3H96.1v6.3z" class="st2"/><g><path d="M159 141.3h-46.4c-.3 0-.5-.2-.5-.5s.2-.5.5-.5h45.9V134H96.1v6.3H108c.3 0 .5.2.5.5s-.2.5-.5.5H95.6c-.3 0-.5-.2-.5-.5v-7.3c0-.3.2-.5.5-.5H159c.3 0 .5.2.5.5v7.3c0 .3-.3.5-.5.5z" class="st2"/></g><g><path d="M159 166.2h-6.4c-.3 0-.5-.2-.5-.5s.2-.5.5-.5h5.9v-6.3H96.1v6.3H147c.3 0 .5.2.5.5s-.2.5-.5.5H95.6c-.3 0-.5-.2-.5-.5v-7.3c0-.3.2-.5.5-.5H159c.3 0 .5.2.5.5v7.3c0 .2-.3.5-.5.5z" class="st2"/></g><g><path d="M81.8 154.8c-2.9 0-5.2-2.3-5.2-5.2s2.3-5.2 5.2-5.2 5.2 2.3 5.2 5.2-2.4 5.2-5.2 5.2zm0-9.4c-2.3 0-4.2 1.9-4.2 4.2s1.9 4.2 4.2 4.2 4.2-1.9 4.2-4.2-1.9-4.2-4.2-4.2z" class="st2"/></g><g><path d="M172.8 154.8c-2.9 0-5.2-2.3-5.2-5.2s2.3-5.2 5.2-5.2 5.2 2.3 5.2 5.2-2.3 5.2-5.2 5.2zm0-9.4c-2.3 0-4.2 1.9-4.2 4.2s1.9 4.2 4.2 4.2c2.3 0 4.2-1.9 4.2-4.2s-1.9-4.2-4.2-4.2z" class="st2"/></g><g><path d="M159 137.7H95.6c-.3 0-.5-.2-.5-.5s.2-.5.5-.5H159c.3 0 .5.2.5.5s-.3.5-.5.5z" class="st2"/></g><g><path d="M159 150.1H95.6c-.3 0-.5-.2-.5-.5s.2-.5.5-.5H159c.3 0 .5.2.5.5s-.3.5-.5.5z" class="st2"/></g><g><path d="M159 162.5H95.6c-.3 0-.5-.2-.5-.5s.2-.5.5-.5H159c.3 0 .5.2.5.5s-.3.5-.5.5z" class="st2"/></g><g><path d="M81.8 158.4c-4.8 0-8.8-3.9-8.8-8.8s3.9-8.8 8.8-8.8 8.8 3.9 8.8 8.8-4 8.8-8.8 8.8zm0-15.6c-3.7 0-6.8 3-6.8 6.8s3 6.8 6.8 6.8 6.8-3 6.8-6.8-3.1-6.8-6.8-6.8z" class="st2"/></g><g><path d="M172.8 158.4c-4.8 0-8.8-3.9-8.8-8.8s3.9-8.8 8.8-8.8h.5c.6 0 1 .5.9 1.1 0 .6-.5 1-1.1.9h-.4c-3.7 0-6.8 3-6.8 6.8s3 6.8 6.8 6.8 6.8-3 6.8-6.8c0-2.2-1.1-4.2-2.8-5.5-.4-.3-.5-.9-.2-1.4.3-.4.9-.5 1.4-.2 2.3 1.6 3.6 4.3 3.6 7.1.1 4.8-3.8 8.8-8.7 8.8z" class="st2"/></g><g><path d="M204 83.4c-1.6 0-3-1.3-3-3s1.3-3 3-3 3 1.3 3 3-1.4 3-3 3zm0-4.9c-1.1 0-2 .9-2 2s.9 2 2 2 2-.9 2-2-.9-2-2-2z" class="st2"/></g><g><path d="M43.6 102.3c-1.6 0-3-1.3-3-3s1.3-3 3-3 3 1.3 3 3-1.4 3-3 3zm0-5c-1.1 0-2 .9-2 2s.9 2 2 2 2-.9 2-2-.9-2-2-2z" class="st3"/></g><g><path d="M53.7 185.3c-.1 0-.3-.1-.4-.1-.1-.1-.2-.3-.1-.5l.8-2.6-.8-2.6c-.1-.2 0-.4.1-.5.1-.1.3-.2.5-.1l2.6.8 2.6-.8c.2-.1.4 0 .5.1s.2.3.1.5l-.8 2.6.8 2.6c.1.2 0 .4-.1.5-.1.1-.3.2-.5.1l-1-.3c-.3-.1-.4-.4-.3-.6.1-.3.4-.4.6-.3h.1l-.5-1.8v-.3l.5-1.8-1.8.5h-.3l-1.8-.5.5 1.8v.3l-.5 1.8 1.8-.5c.3-.1.5.1.6.3.1.3-.1.5-.3.6l-2.7.8h-.2z" class="st2"/></g><g><path d="M46.1 39.3c-.1 0-.3-.1-.4-.1-.1-.1-.2-.3-.1-.5l.8-2.6-.8-2.6c-.1-.2 0-.4.1-.5.1-.1.3-.2.5-.1l2.6.8 2.6-.8c.2-.1.4 0 .5.1.1.1.2.3.1.5l-.8 2.6.8 2.6c.1.2 0 .4-.1.5-.1.1-.3.2-.5.1l-1-.3c-.3-.1-.4-.4-.3-.6.1-.3.4-.4.6-.3h.1l-.5-1.8V36l.5-1.8-1.8.5h-.3l-1.8-.5.5 1.8v.3l-.6 1.7 1.8-.5c.3-.1.5.1.6.3.1.3-.1.5-.3.6l-2.7.8c0 .1-.1.1-.1.1z" class="st5"/></g><g><path d="M199.9 41.9c-.3 0-.5-.2-.5-.5V39c0-.3.2-.5.5-.5s.5.2.5.5v2.4c0 .3-.3.5-.5.5zM199.9 47.8c-.3 0-.5-.2-.5-.5v-2.4c0-.3.2-.5.5-.5s.5.2.5.5v2.4c0 .3-.3.5-.5.5zM204 43.6h-2.4c-.3 0-.5-.2-.5-.5s.2-.5.5-.5h2.4c.3 0 .5.2.5.5s-.2.5-.5.5zM198.1 43.6h-2.4c-.3 0-.5-.2-.5-.5s.2-.5.5-.5h2.4c.3 0 .5.2.5.5s-.2.5-.5.5z" class="st3"/></g><g><path d="M198.1 180.9c-.3 0-.5-.2-.5-.5V178c0-.3.2-.5.5-.5s.5.2.5.5v2.4c0 .2-.2.5-.5.5zM198.1 186.7c-.3 0-.5-.2-.5-.5v-2.4c0-.3.2-.5.5-.5s.5.2.5.5v2.4c0 .3-.2.5-.5.5zM202.3 182.6h-2.4c-.3 0-.5-.2-.5-.5s.2-.5.5-.5h2.4c.3 0 .5.2.5.5s-.2.5-.5.5zM196.4 182.6H194c-.3 0-.5-.2-.5-.5s.2-.5.5-.5h2.4c.3 0 .5.2.5.5s-.2.5-.5.5z" class="st5"/></g><g><path d="M210.6 126.8c-.3 0-.5-.2-.5-.5v-2.4c0-.3.2-.5.5-.5s.5.2.5.5v2.4c0 .3-.2.5-.5.5zM210.6 132.6c-.3 0-.5-.2-.5-.5v-2.4c0-.3.2-.5.5-.5s.5.2.5.5v2.4c0 .3-.2.5-.5.5zM214.8 128.5h-2.4c-.3 0-.5-.2-.5-.5s.2-.5.5-.5h2.4c.3 0 .5.2.5.5s-.3.5-.5.5zM208.9 128.5h-2.4c-.3 0-.5-.2-.5-.5s.2-.5.5-.5h2.4c.3 0 .5.2.5.5s-.2.5-.5.5z" class="st4"/></g></svg>