<svg xmlns="http://www.w3.org/2000/svg" data-name="Layer 1" viewBox="0 0 128 128"><path d="M51.061 50.9a9.552 9.552 0 109.551 9.552 9.563 9.563 0 00-9.551-9.552zm0 16.6a7.052 7.052 0 117.051-7.052 7.06 7.06 0 01-7.051 7.052zM86.491 60.45A9.552 9.552 0 1076.939 70a9.563 9.563 0 009.552-9.55zm-9.552 7.05a7.052 7.052 0 117.052-7.052 7.059 7.059 0 01-7.052 7.052zM64 65.326c-3.8 0-5.888 7.518-5.888 10.01a2.374 2.374 0 00.89 2.08c.9.568 1.839.126 2.752-.3a5.622 5.622 0 012.246-.7 5.622 5.622 0 012.246.7 4.532 4.532 0 001.827.574 1.691 1.691 0 00.926-.27 2.374 2.374 0 00.89-2.08C69.888 72.844 67.8 65.326 64 65.326zm3.31 9.523a7.773 7.773 0 00-3.31-.935 7.773 7.773 0 00-3.31.935l-.059.028c.211-2.779 2.2-7.052 3.37-7.052s3.159 4.272 3.37 7.052z"/><path d="M108.362 86.018c-1.317-1.318-3.414-1.825-6.232-1.509A14.6 14.6 0 0190.153 80.2l-2.07-2.069c5.172-4.691 8.083-10.766 8.083-17.108a22.17 22.17 0 00-5.157-13.991 14.505 14.505 0 0111.12-3.54c2.821.315 4.914-.19 6.231-1.509a9.04 9.04 0 00-6.922-15.422 9.041 9.041 0 00-15.422-6.922c-1.317 1.316-1.824 3.413-1.508 6.231A14.606 14.606 0 0180.2 37.848l-.609.608a39.075 39.075 0 00-31.182 0l-.609-.608a14.606 14.606 0 01-4.309-11.978c.316-2.818-.191-4.915-1.508-6.231a9.041 9.041 0 00-15.422 6.922 9.04 9.04 0 00-6.922 15.422c1.317 1.318 3.413 1.822 6.232 1.509a14.512 14.512 0 0111.121 3.54 22.17 22.17 0 00-5.157 13.991c0 6.342 2.912 12.417 8.083 17.108L37.847 80.2a14.606 14.606 0 01-11.977 4.309c-2.819-.316-4.914.19-6.231 1.509a9.04 9.04 0 006.922 15.422 9.045 9.045 0 0015.422 6.922c1.317-1.316 1.824-3.413 1.508-6.231A14.522 14.522 0 0147.126 90.9a3.473 3.473 0 003.074 1.889h2.175a3.487 3.487 0 003.483-3.483V88.1a1.727 1.727 0 01.61-1.329 1.764 1.764 0 011.47-.395 1.743 1.743 0 011.489 1.733v1.2a3.487 3.487 0 003.483 3.483h2.176a3.487 3.487 0 003.483-3.483v-1.2a1.762 1.762 0 011.551-1.743 1.754 1.754 0 012.02 1.734v1.208a3.487 3.487 0 003.483 3.483H77.8a3.473 3.473 0 003.074-1.891 14.522 14.522 0 013.635 11.226c-.316 2.818.191 4.915 1.508 6.231a9.041 9.041 0 0015.422-6.922 9.04 9.04 0 006.922-15.422zm-26.394-46.4a17.092 17.092 0 005.026-14.024c-.156-1.392-.145-3.247.791-4.184a6.543 6.543 0 0110.946 6.331 1.25 1.25 0 001.531 1.531 6.543 6.543 0 016.331 10.946c-.937.938-2.793.951-4.184.792a17 17 0 00-13.057 4.158 30.751 30.751 0 00-7.39-5.545zm-56.377 1.389c-1.391.158-3.247.145-4.184-.792a6.543 6.543 0 016.331-10.946 1.25 1.25 0 001.531-1.531 6.543 6.543 0 0110.946-6.331c.937.938.948 2.793.791 4.185a17.092 17.092 0 005.026 14.024 30.752 30.752 0 00-7.39 5.545 16.991 16.991 0 00-13.051-4.154zm15.416 61.4c.156 1.392.145 3.247-.791 4.185a6.543 6.543 0 01-10.946-6.331 1.25 1.25 0 00-1.531-1.531 6.543 6.543 0 01-6.331-10.946c.938-.937 2.793-.95 4.184-.792a17.072 17.072 0 0014.024-5.025l2.231-2.232c.3.231.6.462.919.684a9.4 9.4 0 013.93 7.3l-.662.662a17.092 17.092 0 00-5.027 14.028zM77.8 90.289h-2.177a.984.984 0 01-.983-.983V88.1a4.245 4.245 0 00-4.264-4.248 4.522 4.522 0 00-.693.054 4.228 4.228 0 00-3.612 4.2v1.2a.984.984 0 01-.983.983h-2.176a.984.984 0 01-.983-.983v-1.2a4.284 4.284 0 00-8.569-.01v1.208a.984.984 0 01-.983.983H50.2a.984.984 0 01-.983-.983v-.9a1.226 1.226 0 00-.016-.552 11.91 11.91 0 00-5-9.476c-6.273-4.424-9.872-10.749-9.872-17.354a19.93 19.93 0 015.209-13.175c.022-.019.051-.027.072-.048a1.188 1.188 0 00.079-.119c5.369-6.022 14.259-9.97 24.306-9.97s18.937 3.948 24.306 9.97a1.188 1.188 0 00.079.119c.021.021.05.028.072.048a19.93 19.93 0 015.209 13.175c0 6.605-3.6 12.931-9.872 17.354a11.91 11.91 0 00-5 9.476 1.226 1.226 0 00-.016.552v.9a.984.984 0 01-.973.985zm28.8 6.756a6.564 6.564 0 01-6.332 1.686 1.25 1.25 0 00-1.531 1.531 6.543 6.543 0 01-10.946 6.331c-.937-.937-.948-2.793-.791-4.185a17.092 17.092 0 00-5.026-14.024l-.662-.662a9.4 9.4 0 013.93-7.3c.314-.222.616-.453.918-.684l2.231 2.231a17.066 17.066 0 0014.024 5.025c1.39-.158 3.247-.145 4.185.792a6.556 6.556 0 01-.006 9.259z"/></svg>