<svg id="Layer_1" data-name="Layer 1" xmlns="http://www.w3.org/2000/svg" viewBox="0 0 128 128"><title>SKULL AND CROSSBONE-11</title><path d="M51.026,50.867A9.574,9.574,0,1,0,60.6,60.44,9.585,9.585,0,0,0,51.026,50.867Zm0,16.647A7.074,7.074,0,1,1,58.1,60.44,7.083,7.083,0,0,1,51.026,67.515Z"/><path d="M86.548,60.44a9.574,9.574,0,1,0-9.574,9.574A9.585,9.585,0,0,0,86.548,60.44Zm-9.574,7.074a7.074,7.074,0,1,1,7.074-7.074A7.082,7.082,0,0,1,76.974,67.515Z"/><path d="M64,65.333c-3.808,0-5.9,7.536-5.9,10.034a2.376,2.376,0,0,0,.891,2.082c.895.57,1.842.126,2.756-.3a5.628,5.628,0,0,1,2.254-.7,5.628,5.628,0,0,1,2.254.7,4.545,4.545,0,0,0,1.83.574,1.683,1.683,0,0,0,.926-.27,2.376,2.376,0,0,0,.891-2.082C69.9,72.869,67.808,65.333,64,65.333Zm3.317,9.549A7.787,7.787,0,0,0,64,73.944a7.787,7.787,0,0,0-3.317.938l-.064.029c.214-2.628,2.123-7.078,3.381-7.078s3.167,4.45,3.381,7.078Z"/><path d="M102.13,84.509a14.22,14.22,0,0,1-6.877-.953c1.7-2.515,1.179-6.254-1.384-8.818A8.413,8.413,0,0,0,91.88,73.26a21.6,21.6,0,0,0,3.87-12.2A21.873,21.873,0,0,0,90.7,47.306a14.53,14.53,0,0,1,11.426-3.814c2.817.315,4.913-.19,6.231-1.509a9.04,9.04,0,0,0-6.922-15.422,9.04,9.04,0,0,0-15.422-6.922c-1.317,1.317-1.825,3.414-1.509,6.231A14.605,14.605,0,0,1,80.2,37.848l-.9.9a38.592,38.592,0,0,0-30.6,0l-.9-.9A14.605,14.605,0,0,1,43.491,25.87c.316-2.817-.191-4.914-1.509-6.231A9.04,9.04,0,0,0,26.56,26.561a9.04,9.04,0,0,0-6.922,15.422c1.317,1.318,3.414,1.822,6.231,1.509A14.528,14.528,0,0,1,37.3,47.305,21.873,21.873,0,0,0,32.25,61.063a21.6,21.6,0,0,0,3.87,12.2,8.413,8.413,0,0,0-1.989,1.478c-2.563,2.564-3.079,6.3-1.384,8.819a14.2,14.2,0,0,1-6.877.952c-2.817-.317-4.914.19-6.231,1.509A9.04,9.04,0,0,0,26.56,101.44a9.045,9.045,0,0,0,15.422,6.922c1.317-1.317,1.825-3.414,1.509-6.231a14.548,14.548,0,0,1,3.887-11.508,3.441,3.441,0,0,0,3.009,1.8h2.146a3.457,3.457,0,0,0,3.453-3.453V87.773a1.69,1.69,0,0,1,.6-1.3,1.724,1.724,0,0,1,1.435-.384,1.7,1.7,0,0,1,1.454,1.693v1.182a3.457,3.457,0,0,0,3.453,3.453h2.146a3.457,3.457,0,0,0,3.453-3.453V87.783a1.722,1.722,0,0,1,1.517-1.7,1.712,1.712,0,0,1,1.97,1.693v1.191a3.457,3.457,0,0,0,3.453,3.453h2.146a3.441,3.441,0,0,0,3.009-1.8,14.548,14.548,0,0,1,3.887,11.508c-.316,2.817.191,4.914,1.509,6.231a9.04,9.04,0,0,0,15.422-6.922,9.04,9.04,0,0,0,6.922-15.422C107.043,84.7,104.945,84.191,102.13,84.509ZM81.968,39.615a17.09,17.09,0,0,0,5.025-14.024c-.156-1.392-.145-3.246.792-4.184a6.543,6.543,0,0,1,10.946,6.331,1.25,1.25,0,0,0,1.531,1.531,6.543,6.543,0,0,1,6.331,10.946c-.939.937-2.793.949-4.185.792A17,17,0,0,0,89.05,45.435a30.359,30.359,0,0,0-7.375-5.528ZM25.591,41.007c-1.389.158-3.246.147-4.184-.792a6.543,6.543,0,0,1,6.331-10.946,1.25,1.25,0,0,0,1.531-1.531,6.543,6.543,0,0,1,10.946-6.331c.937.938.948,2.793.792,4.185a17.09,17.09,0,0,0,5.025,14.024l.292.292a30.356,30.356,0,0,0-7.375,5.528A17.017,17.017,0,0,0,25.591,41.007Zm15.416,61.4c.156,1.392.145,3.246-.792,4.185a6.543,6.543,0,0,1-10.946-6.331,1.25,1.25,0,0,0-1.531-1.531,6.543,6.543,0,0,1-6.331-10.946c.938-.937,2.793-.95,4.184-.792a16.781,16.781,0,0,0,9.217-1.618,7.246,7.246,0,0,0,8.227-1.731,8.332,8.332,0,0,0,1.517-2.065A9.343,9.343,0,0,1,46.921,87.5l-.889.888A17.09,17.09,0,0,0,41.007,102.409ZM78.564,88.965a.954.954,0,0,1-.952.953H75.466a.954.954,0,0,1-.953-.953V87.773a4.2,4.2,0,0,0-4.222-4.207,4.457,4.457,0,0,0-.688.053,4.188,4.188,0,0,0-3.577,4.164v1.182a.955.955,0,0,1-.953.953H62.927a.955.955,0,0,1-.953-.953V87.783a4.243,4.243,0,0,0-8.486-.01v1.191a.954.954,0,0,1-.953.953H50.388a.954.954,0,0,1-.952-.953V87.8a11.828,11.828,0,0,0-4.657-9.4,1.249,1.249,0,0,0-1.975.729,5.59,5.59,0,0,1-1.536,2.742c-1.881,1.881-4.614,2.2-6.095.725s-1.154-4.214.725-6.095a5.67,5.67,0,0,1,2.5-1.48,1.25,1.25,0,0,0,.657-1.976,19.409,19.409,0,0,1-4.31-11.987c0-12.672,13.121-22.98,29.25-22.98S93.25,48.391,93.25,61.063A19.409,19.409,0,0,1,88.939,73.05a1.25,1.25,0,0,0,.657,1.976,5.67,5.67,0,0,1,2.5,1.48c1.88,1.881,2.2,4.615.725,6.095s-4.214,1.155-6.095-.725A5.59,5.59,0,0,1,85.2,79.134a1.249,1.249,0,0,0-1.975-.729,11.828,11.828,0,0,0-4.657,9.4Zm28.029,8.08a6.57,6.57,0,0,1-6.331,1.686,1.25,1.25,0,0,0-1.531,1.531,6.543,6.543,0,0,1-10.946,6.331c-.937-.939-.948-2.793-.792-4.185a17.09,17.09,0,0,0-5.025-14.024l-.889-.888a9.343,9.343,0,0,1,2.369-5.918,8.332,8.332,0,0,0,1.517,2.066,7.25,7.25,0,0,0,8.226,1.731,16.793,16.793,0,0,0,9.218,1.618c1.391-.156,3.247-.145,4.185.792A6.555,6.555,0,0,1,106.594,97.045Z"/></svg>