<svg id="Layer_1" data-name="Layer 1" xmlns="http://www.w3.org/2000/svg" viewBox="0 0 128 128"><title>SKULL AND CROSSBONE-9</title><path d="M51.061,50.9a9.552,9.552,0,1,0,9.551,9.552A9.563,9.563,0,0,0,51.061,50.9Zm0,16.6a7.052,7.052,0,1,1,7.051-7.052A7.06,7.06,0,0,1,51.061,67.5Z"/><path d="M86.491,60.45A9.552,9.552,0,1,0,76.939,70,9.563,9.563,0,0,0,86.491,60.45ZM76.939,67.5a7.052,7.052,0,1,1,7.052-7.052A7.059,7.059,0,0,1,76.939,67.5Z"/><path d="M64,65.326c-3.8,0-5.888,7.518-5.888,10.01a2.374,2.374,0,0,0,.89,2.08c.9.568,1.839.126,2.752-.3a5.622,5.622,0,0,1,2.246-.7,5.622,5.622,0,0,1,2.246.7,4.532,4.532,0,0,0,1.827.574,1.691,1.691,0,0,0,.926-.27,2.374,2.374,0,0,0,.89-2.08C69.888,72.844,67.8,65.326,64,65.326Zm3.31,9.523A7.773,7.773,0,0,0,64,73.914a7.773,7.773,0,0,0-3.31.935l-.059.028c.211-2.779,2.2-7.052,3.37-7.052s3.159,4.272,3.37,7.052Z"/><path d="M108.362,86.018c-1.317-1.318-3.414-1.825-6.232-1.509A14.6,14.6,0,0,1,90.153,80.2l-2.07-2.069c5.172-4.691,8.083-10.766,8.083-17.108a22.17,22.17,0,0,0-5.157-13.991,14.505,14.505,0,0,1,11.12-3.54c2.821.315,4.914-.19,6.231-1.509a9.04,9.04,0,0,0-6.922-15.422,9.041,9.041,0,0,0-15.422-6.922c-1.317,1.316-1.824,3.413-1.508,6.231A14.606,14.606,0,0,1,80.2,37.848l-.609.608a39.075,39.075,0,0,0-31.182,0l-.609-.608A14.606,14.606,0,0,1,43.491,25.87c.316-2.818-.191-4.915-1.508-6.231a9.041,9.041,0,0,0-15.422,6.922,9.04,9.04,0,0,0-6.922,15.422c1.317,1.318,3.413,1.822,6.232,1.509a14.512,14.512,0,0,1,11.121,3.54,22.17,22.17,0,0,0-5.157,13.991c0,6.342,2.912,12.417,8.083,17.108L37.847,80.2A14.606,14.606,0,0,1,25.87,84.509c-2.819-.316-4.914.19-6.231,1.509a9.04,9.04,0,0,0,6.922,15.422,9.045,9.045,0,0,0,15.422,6.922c1.317-1.316,1.824-3.413,1.508-6.231A14.522,14.522,0,0,1,47.126,90.9,3.473,3.473,0,0,0,50.2,92.789h2.175a3.487,3.487,0,0,0,3.483-3.483V88.1a1.727,1.727,0,0,1,.61-1.329,1.764,1.764,0,0,1,1.47-.395,1.743,1.743,0,0,1,1.489,1.733v1.2a3.487,3.487,0,0,0,3.483,3.483h2.176a3.487,3.487,0,0,0,3.483-3.483v-1.2a1.762,1.762,0,0,1,1.551-1.743A1.754,1.754,0,0,1,72.14,88.1v1.208a3.487,3.487,0,0,0,3.483,3.483H77.8A3.473,3.473,0,0,0,80.874,90.9a14.522,14.522,0,0,1,3.635,11.226c-.316,2.818.191,4.915,1.508,6.231a9.041,9.041,0,0,0,15.422-6.922,9.04,9.04,0,0,0,6.922-15.422Zm-26.394-46.4a17.092,17.092,0,0,0,5.026-14.024c-.156-1.392-.145-3.247.791-4.184a6.543,6.543,0,0,1,10.946,6.331,1.25,1.25,0,0,0,1.531,1.531,6.543,6.543,0,0,1,6.331,10.946c-.937.938-2.793.951-4.184.792a17,17,0,0,0-13.057,4.158,30.751,30.751,0,0,0-7.39-5.545ZM25.591,41.007c-1.391.158-3.247.145-4.184-.792a6.543,6.543,0,0,1,6.331-10.946,1.25,1.25,0,0,0,1.531-1.531,6.543,6.543,0,0,1,10.946-6.331c.937.938.948,2.793.791,4.185a17.092,17.092,0,0,0,5.026,14.024l0,0a30.752,30.752,0,0,0-7.39,5.545A16.991,16.991,0,0,0,25.591,41.007Zm15.416,61.4c.156,1.392.145,3.247-.791,4.185a6.543,6.543,0,0,1-10.946-6.331,1.25,1.25,0,0,0-1.531-1.531,6.543,6.543,0,0,1-6.331-10.946c.938-.937,2.793-.95,4.184-.792a17.072,17.072,0,0,0,14.024-5.025l2.231-2.232c.3.231.6.462.919.684a9.4,9.4,0,0,1,3.93,7.3l-.662.662A17.092,17.092,0,0,0,41.007,102.409ZM77.8,90.289H75.623a.984.984,0,0,1-.983-.983V88.1a4.245,4.245,0,0,0-4.264-4.248,4.522,4.522,0,0,0-.693.054,4.228,4.228,0,0,0-3.612,4.2v1.2a.984.984,0,0,1-.983.983H62.912a.984.984,0,0,1-.983-.983v-1.2a4.284,4.284,0,0,0-8.569-.01v1.208a.984.984,0,0,1-.983.983H50.2a.984.984,0,0,1-.983-.983v-.9a1.226,1.226,0,0,0-.016-.552,11.91,11.91,0,0,0-5-9.476c-6.273-4.424-9.872-10.749-9.872-17.354a19.93,19.93,0,0,1,5.209-13.175c.022-.019.051-.027.072-.048a1.188,1.188,0,0,0,.079-.119c5.369-6.022,14.259-9.97,24.306-9.97s18.937,3.948,24.306,9.97a1.188,1.188,0,0,0,.079.119c.021.021.05.028.072.048a19.93,19.93,0,0,1,5.209,13.175c0,6.605-3.6,12.931-9.872,17.354a11.91,11.91,0,0,0-5,9.476,1.226,1.226,0,0,0-.016.552v.9A.984.984,0,0,1,77.8,90.289Zm28.8,6.756a6.564,6.564,0,0,1-6.332,1.686,1.25,1.25,0,0,0-1.531,1.531,6.543,6.543,0,0,1-10.946,6.331c-.937-.937-.948-2.793-.791-4.185a17.092,17.092,0,0,0-5.026-14.024l-.662-.662a9.4,9.4,0,0,1,3.93-7.3c.314-.222.616-.453.918-.684l2.231,2.231a17.066,17.066,0,0,0,14.024,5.025c1.39-.158,3.247-.145,4.185.792A6.556,6.556,0,0,1,106.594,97.045Z"/></svg>