<svg id="Layer_1" data-name="Layer 1" xmlns="http://www.w3.org/2000/svg" viewBox="0 0 128 128"><title>SKULL AND CROSSBONE-16</title><path d="M52.593,51.684a8.568,8.568,0,1,0-8.568-8.568A8.578,8.578,0,0,0,52.593,51.684Zm0-14.637a6.068,6.068,0,1,1-6.068,6.068A6.076,6.076,0,0,1,52.593,37.047Z"/><path d="M75.407,51.684a8.568,8.568,0,1,0-8.569-8.568A8.578,8.578,0,0,0,75.407,51.684Zm0-14.637a6.068,6.068,0,1,1-6.069,6.068A6.076,6.076,0,0,1,75.407,37.047Z"/><path d="M59.515,58.2a2.576,2.576,0,0,0,2.568-.259,4.845,4.845,0,0,1,1.917-.6,4.846,4.846,0,0,1,1.917.6,4.131,4.131,0,0,0,1.677.519,1.625,1.625,0,0,0,.892-.26,2.225,2.225,0,0,0,.852-1.958c0-2.306-1.835-8.973-5.338-8.973s-5.338,6.667-5.338,8.973A2.225,2.225,0,0,0,59.515,58.2ZM64,49.766c.919,0,2.521,3.469,2.8,5.823a5.577,5.577,0,0,0-5.594,0C61.478,53.234,63.081,49.766,64,49.766Z"/><path d="M96.059,87.99c-1.3-.807-3.043-.829-5.187-.068a10.965,10.965,0,0,1-9.494-1.111l-6.564-4.082,6.564-4.082a10.968,10.968,0,0,1,9.494-1.111c2.147.763,3.892.738,5.187-.068a7.253,7.253,0,0,0-2.29-13.25,7.271,7.271,0,0,0-.874-5.583A7.19,7.19,0,0,0,89,55.571,23.468,23.468,0,0,0,92.506,43.3c0-14.093-12.788-25.559-28.506-25.559S35.494,29.205,35.494,43.3A23.468,23.468,0,0,0,39,55.571a7.19,7.19,0,0,0-3.9,3.063,7.271,7.271,0,0,0-.874,5.583,7.254,7.254,0,0,0-2.29,13.25c1.3.807,3.044.829,5.187.068a10.968,10.968,0,0,1,9.494,1.111l6.564,4.082-6.564,4.082a10.965,10.965,0,0,1-9.494,1.111c-2.148-.763-3.893-.738-5.187.068a7.252,7.252,0,0,0,2.29,13.25A7.256,7.256,0,0,0,45.1,109.154c1.3-.8,2.088-2.36,2.356-4.622a10.969,10.969,0,0,1,5.2-8.024L64,89.453l11.346,7.055a10.969,10.969,0,0,1,5.2,8.024c.268,2.262,1.06,3.817,2.355,4.622a7.252,7.252,0,0,0,10.871-7.914,7.252,7.252,0,0,0,2.29-13.25ZM64,20.239c14.34,0,26.006,10.344,26.006,23.059A21.085,21.085,0,0,1,86.255,55.22a1.25,1.25,0,0,0,.225,1.659A9.936,9.936,0,0,1,89.5,61.5a1.757,1.757,0,0,1-.244,1.563,1.175,1.175,0,0,1-.928.516H82.957a6.332,6.332,0,0,0-6.074,6.542V71.29c0,.52-.329.96-.719.96H74.246c-.39,0-.719-.439-.719-.96v-1.2a4.331,4.331,0,0,0-1.5-3.333,3.709,3.709,0,0,0-2.405-.883,3.932,3.932,0,0,0-.655.056A4.116,4.116,0,0,0,65.678,70.1V71.29c0,.52-.329.96-.719.96H63.041c-.39,0-.719-.439-.719-.96V70.1a4.128,4.128,0,0,0-3.343-4.181,3.7,3.7,0,0,0-3,.837,4.332,4.332,0,0,0-1.5,3.334v1.2c0,.52-.329.96-.719.96H51.836c-.39,0-.719-.439-.719-.96V70.06a6.315,6.315,0,0,0-6.074-6.48H39.672a1.175,1.175,0,0,1-.928-.516A1.755,1.755,0,0,1,38.5,61.5a9.934,9.934,0,0,1,3.02-4.624,1.25,1.25,0,0,0,.225-1.659A21.085,21.085,0,0,1,37.994,43.3C37.994,30.583,49.66,20.239,64,20.239ZM64,76l-7.058-4.389c.01-.109.031-.214.031-.326v-1.2a1.866,1.866,0,0,1,.614-1.423,1.2,1.2,0,0,1,1.026-.273A1.654,1.654,0,0,1,59.822,70.1V71.29a3.35,3.35,0,0,0,3.219,3.46h1.918a3.35,3.35,0,0,0,3.219-3.46V70.1a1.66,1.66,0,0,1,1.265-1.716,1.173,1.173,0,0,1,.971.283,1.865,1.865,0,0,1,.614,1.422v1.2c0,.112.021.217.031.326Zm-16.057.519a13.455,13.455,0,0,0-11.65-1.344,3.811,3.811,0,0,1-3.031.164,4.758,4.758,0,0,1-1.528-6.553,4.845,4.845,0,0,1,4.2-2.239,1.217,1.217,0,0,0,1.1-.589,1.247,1.247,0,0,0,.16-.909,3.568,3.568,0,0,0,2.473,1.026h5.371a3.833,3.833,0,0,1,3.574,4.042V71.29a3.35,3.35,0,0,0,3.219,3.46h1.918a3.069,3.069,0,0,0,2.1-.864l5.774,3.59-6.078,3.78Zm3.391,17.861a13.452,13.452,0,0,0-6.358,9.855,3.806,3.806,0,0,1-1.193,2.792,4.755,4.755,0,0,1-6.7-6.287,1.252,1.252,0,0,0-.041-1.25,1.217,1.217,0,0,0-1.1-.589,4.841,4.841,0,0,1-4.2-2.238,4.759,4.759,0,0,1,1.528-6.554c.6-.376,1.677-.314,3.031.164a13.455,13.455,0,0,0,11.65-1.344l24.2-15.047a3.069,3.069,0,0,0,2.1.864h1.918a3.35,3.35,0,0,0,3.219-3.46V70.071a3.818,3.818,0,0,1,3.574-3.991h5.371A3.568,3.568,0,0,0,90.8,65.054a1.247,1.247,0,0,0,.16.909,1.227,1.227,0,0,0,1.1.589,4.84,4.84,0,0,1,4.2,2.239,4.758,4.758,0,0,1-1.528,6.553c-.6.376-1.678.314-3.031-.164a13.448,13.448,0,0,0-11.65,1.344l-8.043,5a1.22,1.22,0,0,0-.473.294Zm44.933,2.282a4.835,4.835,0,0,1-4.2,2.238,1.228,1.228,0,0,0-1.1.589,1.252,1.252,0,0,0-.041,1.25,4.755,4.755,0,0,1-6.7,6.287,3.806,3.806,0,0,1-1.193-2.792,13.452,13.452,0,0,0-6.358-9.855l-10.3-6.4,6.078-3.78,7.611,4.733a13.452,13.452,0,0,0,11.65,1.344,3.81,3.81,0,0,1,3.031-.164A4.763,4.763,0,0,1,96.267,96.667Z"/></svg>