<svg id="Layer_1" data-name="Layer 1" xmlns="http://www.w3.org/2000/svg" viewBox="0 0 128 128"><title>SKULL AND CROSSBONE-12</title><path d="M51.026,50.866A9.574,9.574,0,1,0,60.6,60.44,9.585,9.585,0,0,0,51.026,50.866Zm0,16.648A7.074,7.074,0,1,1,58.1,60.44,7.083,7.083,0,0,1,51.026,67.515Z"/><path d="M86.548,60.44a9.574,9.574,0,1,0-9.574,9.574A9.585,9.585,0,0,0,86.548,60.44Zm-9.574,7.074a7.074,7.074,0,1,1,7.074-7.074A7.082,7.082,0,0,1,76.974,67.515Z"/><path d="M64,65.333c-3.808,0-5.9,7.536-5.9,10.033a2.377,2.377,0,0,0,.891,2.083c.895.567,1.843.125,2.756-.3a5.632,5.632,0,0,1,2.254-.7,5.632,5.632,0,0,1,2.254.7,4.561,4.561,0,0,0,1.829.574,1.692,1.692,0,0,0,.927-.27,2.377,2.377,0,0,0,.891-2.083C69.9,72.869,67.808,65.333,64,65.333Zm3.317,9.549A7.787,7.787,0,0,0,64,73.944a7.787,7.787,0,0,0-3.317.938l-.063.029c.214-2.627,2.123-7.078,3.381-7.078s3.167,4.451,3.381,7.078Z"/><path d="M102.13,84.509a14.234,14.234,0,0,1-6.673-.871,4.706,4.706,0,0,0,.095-3.086,14.115,14.115,0,0,0-3.439-5.742,26.262,26.262,0,0,0-.153-28.535,14.6,14.6,0,0,1,10.17-2.783c2.817.315,4.913-.19,6.231-1.509a9.04,9.04,0,0,0-6.922-15.422,9.04,9.04,0,0,0-15.422-6.922c-1.317,1.317-1.825,3.414-1.509,6.231A14.577,14.577,0,0,1,81.47,36.377a35.3,35.3,0,0,0-34.94,0A14.577,14.577,0,0,1,43.491,25.87c.316-2.817-.191-4.914-1.509-6.231A9.04,9.04,0,0,0,26.56,26.561a9.04,9.04,0,0,0-6.922,15.422c1.317,1.318,3.414,1.821,6.231,1.509a14.592,14.592,0,0,1,10.171,2.783,26.262,26.262,0,0,0-.153,28.536,14.113,14.113,0,0,0-3.439,5.743,4.7,4.7,0,0,0,.095,3.085,14.235,14.235,0,0,1-6.673.871c-2.817-.317-4.914.19-6.231,1.509A9.04,9.04,0,0,0,26.56,101.44a9.045,9.045,0,0,0,15.422,6.922c1.317-1.317,1.825-3.414,1.509-6.231a14.488,14.488,0,0,1,3.185-10.725v1.081a3.639,3.639,0,0,0,3.489,3.764h2.182a3.638,3.638,0,0,0,3.488-3.764v-1.36a2.264,2.264,0,0,1,.76-1.748,1.551,1.551,0,0,1,1.308-.35,2.053,2.053,0,0,1,1.518,2.11v1.348a3.639,3.639,0,0,0,3.489,3.764h2.182a3.639,3.639,0,0,0,3.489-3.764V91.138a2.058,2.058,0,0,1,1.581-2.12,1.494,1.494,0,0,1,1.244.36,2.263,2.263,0,0,1,.76,1.748v1.36a3.638,3.638,0,0,0,3.488,3.764h2.182a3.639,3.639,0,0,0,3.489-3.764V91.405a14.488,14.488,0,0,1,3.185,10.725c-.316,2.817.191,4.914,1.509,6.231a9.04,9.04,0,0,0,15.422-6.922,9.04,9.04,0,0,0,6.922-15.422C107.043,84.7,104.947,84.192,102.13,84.509ZM86.993,25.591c-.156-1.392-.145-3.246.792-4.184a6.543,6.543,0,0,1,10.946,6.331,1.25,1.25,0,0,0,1.531,1.531,6.543,6.543,0,0,1,6.331,10.946c-.939.937-2.793.949-4.185.792A17.1,17.1,0,0,0,90.52,44.232a30.808,30.808,0,0,0-6.926-6.514A17.069,17.069,0,0,0,86.993,25.591Zm-61.4,15.416c-1.389.158-3.247.147-4.184-.792a6.543,6.543,0,0,1,6.331-10.946,1.25,1.25,0,0,0,1.531-1.531,6.543,6.543,0,0,1,10.946-6.331c.937.938.948,2.793.792,4.185a17.069,17.069,0,0,0,3.4,12.127,30.808,30.808,0,0,0-6.926,6.515A17.141,17.141,0,0,0,25.591,41.007Zm15.416,61.4c.156,1.392.145,3.246-.792,4.185a6.543,6.543,0,0,1-10.946-6.331,1.25,1.25,0,0,0-1.531-1.531,6.543,6.543,0,0,1-6.331-10.946c.938-.937,2.792-.95,4.184-.792a16.8,16.8,0,0,0,8.533-1.3,3.854,3.854,0,0,0,2.207.7h6.108a4.124,4.124,0,0,1,3.5,2.094A17.078,17.078,0,0,0,41.007,102.409Zm37.817-9.923a1.168,1.168,0,0,1-.989,1.264H75.653a1.168,1.168,0,0,1-.988-1.264v-1.36a4.751,4.751,0,0,0-1.648-3.659A3.987,3.987,0,0,0,70.41,86.5a4.405,4.405,0,0,0-.734.064,4.51,4.51,0,0,0-3.6,4.574v1.349a1.168,1.168,0,0,1-.989,1.264H62.909a1.168,1.168,0,0,1-.989-1.264V91.139a4.523,4.523,0,0,0-3.658-4.586,3.977,3.977,0,0,0-3.278.914,4.753,4.753,0,0,0-1.648,3.659v1.36a1.168,1.168,0,0,1-.988,1.264H50.165a1.168,1.168,0,0,1-.989-1.264v-1.4a7.63,7.63,0,0,0-.556-2.833l0,0a6.76,6.76,0,0,0-6.18-4.362H36.33a1.506,1.506,0,0,1-1.194-.657,2.17,2.17,0,0,1-.3-1.929,11.472,11.472,0,0,1,3.488-5.34,1.25,1.25,0,0,0,.225-1.659,24.154,24.154,0,0,1-4.3-13.656c0-14.556,13.346-26.4,29.75-26.4s29.75,11.843,29.75,26.4a24.154,24.154,0,0,1-4.3,13.656,1.25,1.25,0,0,0,.225,1.659A11.474,11.474,0,0,1,93.167,81.3a2.171,2.171,0,0,1-.3,1.93,1.506,1.506,0,0,1-1.194.657H85.561a6.733,6.733,0,0,0-6.139,4.3,1.2,1.2,0,0,0-.053.117,7.819,7.819,0,0,0-.546,2.851Zm27.77,4.559a6.57,6.57,0,0,1-6.331,1.686,1.25,1.25,0,0,0-1.531,1.531,6.543,6.543,0,0,1-10.946,6.331c-.937-.939-.948-2.793-.792-4.185a17.079,17.079,0,0,0-4.941-13.93,4.141,4.141,0,0,1,3.509-2.089H91.67a3.855,3.855,0,0,0,2.207-.7,16.822,16.822,0,0,0,8.532,1.3c1.39-.156,3.247-.145,4.185.792A6.555,6.555,0,0,1,106.594,97.045Z"/></svg>