<svg id="Layer_1" data-name="Layer 1" xmlns="http://www.w3.org/2000/svg" viewBox="0 0 128 128"><title>SKULL-7</title><path d="M83.609,97.05A3.812,3.812,0,0,0,79.8,93.242H77.31A3.812,3.812,0,0,0,73.5,97.05v1.384a2.186,2.186,0,0,1-.763,1.66,2.225,2.225,0,0,1-1.829.493,2.177,2.177,0,0,1-1.859-2.164V97.05a3.812,3.812,0,0,0-3.807-3.808H62.754a3.812,3.812,0,0,0-3.807,3.808v1.372a2.226,2.226,0,0,1-4.451.012V97.05a3.812,3.812,0,0,0-3.807-3.808H48.2a3.812,3.812,0,0,0-3.807,3.808l-.007,1.983c-.03,1.988-.072,4.711,2.185,7,2.791,2.835,8.493,4.212,17.431,4.212s14.64-1.378,17.431-4.212c2.258-2.293,2.216-5.016,2.185-7Zm-3.96,7.234c-2.266,2.3-7.53,3.466-15.649,3.466s-13.384-1.166-15.649-3.466c-1.523-1.548-1.5-3.411-1.467-5.212,0-.23.007-.454.007-.67V97.05A1.308,1.308,0,0,1,48.2,95.742h2.492A1.308,1.308,0,0,1,52,97.05v1.384a4.726,4.726,0,0,0,9.451-.012V97.05a1.308,1.308,0,0,1,1.307-1.308h2.492a1.308,1.308,0,0,1,1.307,1.308v1.372A4.726,4.726,0,0,0,76,98.434V97.05a1.308,1.308,0,0,1,1.307-1.308H79.8a1.308,1.308,0,0,1,1.307,1.308V98.4c0,.216,0,.44.007.67C81.144,100.873,81.173,102.736,79.649,104.284Z"/><path d="M49.17,39.6A10.765,10.765,0,1,0,59.935,50.367,10.777,10.777,0,0,0,49.17,39.6Zm0,19.03a8.265,8.265,0,1,1,8.265-8.265A8.275,8.275,0,0,1,49.17,58.632Z"/><path d="M78.83,39.6A10.765,10.765,0,1,0,89.6,50.367,10.777,10.777,0,0,0,78.83,39.6Zm0,19.03A8.265,8.265,0,1,1,87.1,50.367,8.274,8.274,0,0,1,78.83,58.632Z"/><path d="M64,56.138c-4.237,0-6.565,8.48-6.565,11.29a2.52,2.52,0,0,0,.934,2.23c.943.6,1.978.11,2.979-.359A6.566,6.566,0,0,1,64,68.481a6.566,6.566,0,0,1,2.652.817,5.043,5.043,0,0,0,2.016.637,1.753,1.753,0,0,0,.963-.277,2.52,2.52,0,0,0,.934-2.23C70.565,64.618,68.237,56.138,64,56.138Zm3.716,10.9A8.749,8.749,0,0,0,64,65.981a8.749,8.749,0,0,0-3.716,1.055l-.345.161c.116-3.08,2.466-8.559,4.061-8.559s3.944,5.479,4.06,8.559Z"/><path d="M100.685,50.6C100.685,32.488,84.228,17.75,64,17.75S27.314,32.488,27.314,50.6a30.17,30.17,0,0,0,3.958,14.844,8.442,8.442,0,0,0-1.891,5.383c0,4.406,3.254,7.991,7.254,7.991a6.824,6.824,0,0,0,4.738-1.94,13.433,13.433,0,0,1,3,8.6V87a3.98,3.98,0,0,0,3.809,4.123h2.493A3.98,3.98,0,0,0,54.488,87V85.442a2.764,2.764,0,0,1,.932-2.135,1.945,1.945,0,0,1,1.64-.44,2.526,2.526,0,0,1,1.885,2.588V87a3.98,3.98,0,0,0,3.809,4.123h2.494A3.98,3.98,0,0,0,69.056,87V85.456a2.535,2.535,0,0,1,1.957-2.6,1.908,1.908,0,0,1,1.567.453,2.764,2.764,0,0,1,.932,2.135V87a3.98,3.98,0,0,0,3.81,4.123h2.493A3.98,3.98,0,0,0,83.624,87V85.479a13.433,13.433,0,0,1,3-8.6,6.824,6.824,0,0,0,4.738,1.941c4,0,7.254-3.585,7.254-7.991a8.442,8.442,0,0,0-1.891-5.383A30.17,30.17,0,0,0,100.685,50.6ZM91.364,76.323a4.53,4.53,0,0,1-3.683-2.029,1.25,1.25,0,0,0-1.885-.182,15.722,15.722,0,0,0-4.673,11.366V87a1.494,1.494,0,0,1-1.31,1.623H77.321A1.494,1.494,0,0,1,76.012,87V85.442a5.254,5.254,0,0,0-1.82-4.046,4.381,4.381,0,0,0-2.864-1.063,4.776,4.776,0,0,0-.808.07,4.976,4.976,0,0,0-3.963,5.052V87a1.493,1.493,0,0,1-1.309,1.623H62.753A1.493,1.493,0,0,1,61.444,87V85.456a4.991,4.991,0,0,0-4.035-5.065,4.366,4.366,0,0,0-3.6,1.005,5.254,5.254,0,0,0-1.82,4.046V87a1.494,1.494,0,0,1-1.31,1.623H48.185A1.494,1.494,0,0,1,46.876,87V85.479A15.722,15.722,0,0,0,42.2,74.112a1.25,1.25,0,0,0-1.885.182,4.53,4.53,0,0,1-3.683,2.029c-2.621,0-4.754-2.463-4.754-5.491a5.817,5.817,0,0,1,1.79-4.289,1.249,1.249,0,0,0,.221-1.567A27.731,27.731,0,0,1,29.814,50.6C29.814,33.867,45.15,20.25,64,20.25S98.185,33.867,98.185,50.6a27.731,27.731,0,0,1-4.078,14.371,1.249,1.249,0,0,0,.221,1.567,5.817,5.817,0,0,1,1.79,4.289C96.118,73.859,93.985,76.323,91.364,76.323Z"/></svg>