<svg id="Layer_1" data-name="Layer 1" xmlns="http://www.w3.org/2000/svg" viewBox="0 0 128 128"><title>SKULL AND CROSSBONE-14</title><path d="M52.575,51.647a8.581,8.581,0,1,0-8.581-8.58A8.59,8.59,0,0,0,52.575,51.647Zm0-14.661a6.081,6.081,0,1,1-6.081,6.081A6.087,6.087,0,0,1,52.575,36.985Z"/><path d="M75.425,51.647a8.581,8.581,0,1,0-8.581-8.58A8.59,8.59,0,0,0,75.425,51.647Zm0-14.661a6.081,6.081,0,1,1-6.081,6.081A6.087,6.087,0,0,1,75.425,36.985Z"/><path d="M59.509,58.17c.858.546,1.768.119,2.57-.26a4.865,4.865,0,0,1,1.921-.6,4.865,4.865,0,0,1,1.921.6,4.127,4.127,0,0,0,1.678.518,1.623,1.623,0,0,0,.892-.259,2.227,2.227,0,0,0,.853-1.96c0-2.309-1.838-8.984-5.345-8.984S58.655,53.9,58.655,56.21A2.227,2.227,0,0,0,59.509,58.17ZM64,49.726c.921,0,2.529,3.478,2.8,5.838a5.586,5.586,0,0,0-5.608,0C61.471,53.2,63.079,49.726,64,49.726Z"/><path d="M96.059,87.99c-1.3-.808-3.043-.829-5.188-.068a10.966,10.966,0,0,1-9.495-1.111l-6.564-4.082,6.564-4.082a10.976,10.976,0,0,1,9.495-1.111c2.146.763,3.891.737,5.188-.068a7.253,7.253,0,0,0-2.291-13.25,7.2,7.2,0,0,0-3.325-7.97,6.544,6.544,0,0,0-.884-1.59A23.515,23.515,0,0,0,92.55,43.249c0-14.115-12.808-25.6-28.55-25.6s-28.55,11.483-28.55,25.6a23.515,23.515,0,0,0,2.991,11.408,6.545,6.545,0,0,0-.884,1.589,7.2,7.2,0,0,0-3.325,7.97,7.254,7.254,0,0,0-2.291,13.25c1.3.806,3.042.828,5.188.068a10.975,10.975,0,0,1,9.495,1.111l6.564,4.082-6.564,4.082a10.965,10.965,0,0,1-9.495,1.111c-2.146-.763-3.891-.738-5.188.068a7.252,7.252,0,0,0,2.291,13.25,7.251,7.251,0,0,0,10.87,7.914c1.3-.806,2.09-2.361,2.355-4.622a10.97,10.97,0,0,1,5.2-8.024L64,89.452l11.346,7.056a10.97,10.97,0,0,1,5.2,8.024c.266,2.261,1.058,3.816,2.355,4.622a7.21,7.21,0,0,0,3.819,1.1,7.3,7.3,0,0,0,1.662-.192,7.247,7.247,0,0,0,5.39-8.819,7.254,7.254,0,0,0,2.291-13.25ZM37.95,43.249c0-12.736,11.686-23.1,26.05-23.1s26.05,10.362,26.05,23.1a21.08,21.08,0,0,1-3.1,10.923,1.25,1.25,0,0,0,.22,1.566,4.2,4.2,0,0,1,1.287,3.094,3.7,3.7,0,0,1-3.376,3.943,3.2,3.2,0,0,1-2.6-1.441,1.251,1.251,0,0,0-1.885-.182,12.4,12.4,0,0,0-3.689,8.964v1.17c0,.522-.331.964-.722.964H74.263c-.391,0-.722-.441-.722-.964v-1.2a4.333,4.333,0,0,0-1.5-3.337,3.711,3.711,0,0,0-2.407-.884,3.948,3.948,0,0,0-.656.056A4.12,4.12,0,0,0,65.682,70.1v1.188c0,.522-.33.964-.722.964H63.04c-.391,0-.722-.441-.722-.964V70.1a4.132,4.132,0,0,0-3.346-4.184,3.7,3.7,0,0,0-3.008.838,4.333,4.333,0,0,0-1.5,3.337v1.2c0,.522-.331.964-.722.964H51.816c-.391,0-.722-.441-.722-.964v-1.17a12.4,12.4,0,0,0-3.689-8.964,1.251,1.251,0,0,0-1.885.182,3.2,3.2,0,0,1-2.6,1.441,3.7,3.7,0,0,1-3.375-3.943,4.2,4.2,0,0,1,1.287-3.094,1.25,1.25,0,0,0,.22-1.566A21.08,21.08,0,0,1,37.95,43.249ZM64,76l-7.071-4.4c.009-.108.03-.212.03-.322v-1.2a1.869,1.869,0,0,1,.616-1.426,1.212,1.212,0,0,1,1.03-.274,1.658,1.658,0,0,1,1.213,1.71v1.188A3.353,3.353,0,0,0,63.04,74.75H64.96a3.353,3.353,0,0,0,3.222-3.464V70.1a1.664,1.664,0,0,1,1.269-1.72,1.176,1.176,0,0,1,.974.284,1.869,1.869,0,0,1,.616,1.426v1.2c0,.11.021.214.03.322Zm-16.056.519A13.447,13.447,0,0,0,36.293,75.18c-1.355.478-2.432.538-3.032.164a4.758,4.758,0,0,1-1.528-6.553,4.844,4.844,0,0,1,4.2-2.239,1.225,1.225,0,0,0,1.1-.589,1.25,1.25,0,0,0,.04-1.25,4.77,4.77,0,0,1,.077-4.624,6.053,6.053,0,0,0,5.762,5.187,5.515,5.515,0,0,0,3.618-1.364,10.112,10.112,0,0,1,2.058,6.205v1.17a3.353,3.353,0,0,0,3.222,3.464h1.921a3.072,3.072,0,0,0,2.112-.869l5.784,3.6-6.078,3.78Zm3.39,17.861a13.457,13.457,0,0,0-6.358,9.855,3.8,3.8,0,0,1-1.193,2.792,4.758,4.758,0,0,1-6.554-1.527,4.774,4.774,0,0,1-.148-4.76,1.25,1.25,0,0,0-.04-1.25,1.2,1.2,0,0,0-1.1-.589,4.849,4.849,0,0,1-4.2-2.238,4.758,4.758,0,0,1,1.528-6.554c.6-.376,1.678-.314,3.032.164a13.457,13.457,0,0,0,11.651-1.344L72.15,73.881a3.072,3.072,0,0,0,2.112.869h1.921a3.353,3.353,0,0,0,3.222-3.464v-1.17a10.112,10.112,0,0,1,2.058-6.205,5.515,5.515,0,0,0,3.618,1.364,6.053,6.053,0,0,0,5.762-5.187,4.77,4.77,0,0,1,.077,4.624,1.25,1.25,0,0,0,.041,1.25,1.206,1.206,0,0,0,1.1.589,4.829,4.829,0,0,1,4.2,2.239,4.758,4.758,0,0,1-1.528,6.553c-.6.376-1.678.314-3.032-.164a13.446,13.446,0,0,0-11.651,1.344Zm44.933,2.282a4.823,4.823,0,0,1-4.2,2.238,1.177,1.177,0,0,0-1.1.589,1.25,1.25,0,0,0-.041,1.25,4.756,4.756,0,0,1-6.7,6.287,3.8,3.8,0,0,1-1.192-2.792,13.457,13.457,0,0,0-6.358-9.855l-10.3-6.4,6.078-3.78,7.611,4.733a13.456,13.456,0,0,0,11.651,1.344c1.354-.479,2.431-.54,3.032-.164a4.758,4.758,0,0,1,1.528,6.554Z"/></svg>