<svg id="Layer_1" data-name="Layer 1" xmlns="http://www.w3.org/2000/svg" viewBox="0 0 128 128"><title>SKULL-1</title><path d="M64,22.667c-25.5,0-46.25,16.6-46.25,37,0,10.625,5.711,20.746,15.67,27.768a14.282,14.282,0,0,1,6,11.681v1.718a4.5,4.5,0,0,0,4.5,4.5h3.167a4.5,4.5,0,0,0,4.5-4.5V99.075a3.118,3.118,0,0,1,1.087-2.367,3.172,3.172,0,0,1,2.6-.7,3.1,3.1,0,0,1,2.65,3.085v1.744a4.5,4.5,0,0,0,4.5,4.5h3.167a4.5,4.5,0,0,0,4.5-4.5V99.089a3.167,3.167,0,0,1,6.333-.015v1.759a4.5,4.5,0,0,0,4.5,4.5h3.167a4.5,4.5,0,0,0,4.5-4.5V99.115a14.282,14.282,0,0,1,6-11.681c9.958-7.022,15.67-17.143,15.67-27.768C110.25,39.265,89.5,22.667,64,22.667ZM93.14,85.391a16.784,16.784,0,0,0-7.056,13.724v1.718a2,2,0,0,1-2,2H80.917a2,2,0,0,1-2-2V99.075a5.606,5.606,0,0,0-5.635-5.613,6.152,6.152,0,0,0-.924.071,5.589,5.589,0,0,0-4.773,5.557v1.744a2,2,0,0,1-2,2H62.417a2,2,0,0,1-2-2V99.089a5.667,5.667,0,0,0-11.333-.015v1.759a2,2,0,0,1-2,2H43.917a2,2,0,0,1-2-2V99.115A16.784,16.784,0,0,0,34.86,85.391c-9.285-6.547-14.61-15.923-14.61-25.725,0-19.023,19.626-34.5,43.75-34.5s43.75,15.477,43.75,34.5C107.75,69.468,102.425,78.844,93.14,85.391Z"/><path d="M45.167,45.5A13.333,13.333,0,1,0,58.5,58.834,13.348,13.348,0,0,0,45.167,45.5Zm0,24.167A10.833,10.833,0,1,1,56,58.834,10.846,10.846,0,0,1,45.167,69.667Z"/><path d="M82.834,45.5A13.333,13.333,0,1,0,96.167,58.834,13.349,13.349,0,0,0,82.834,45.5Zm0,24.167A10.833,10.833,0,1,1,93.667,58.834,10.846,10.846,0,0,1,82.834,69.667Z"/><path d="M64,66.5c-4.812,0-8,9.962-8,14a2.846,2.846,0,0,0,1.031,2.546c1.041.662,2.215.108,3.458-.477A8.586,8.586,0,0,1,64,81.5a8.586,8.586,0,0,1,3.511,1.069,6.13,6.13,0,0,0,2.41.777,1.9,1.9,0,0,0,1.048-.3A2.846,2.846,0,0,0,72,80.5C72,76.462,68.812,66.5,64,66.5Zm5.5,14.22c-.28-.111-.632-.277-.92-.413A10.836,10.836,0,0,0,64,79a10.836,10.836,0,0,0-4.575,1.307c-.288.135-.64.3-.92.413,0-.064,0-.137,0-.22C58.5,76.7,61.525,69,64,69s5.5,7.7,5.5,11.5C69.5,80.583,69.5,80.655,69.5,80.72Z"/></svg>