<svg id="Layer_1" data-name="Layer 1" xmlns="http://www.w3.org/2000/svg" viewBox="0 0 128 128"><title>SKULL-8</title><path d="M85.357,97.393V95.912a4.056,4.056,0,0,0-4.051-4.051H78.578a4.056,4.056,0,0,0-4.051,4.051v1.516a2.513,2.513,0,0,1-.877,1.909,2.568,2.568,0,0,1-2.1.566,2.5,2.5,0,0,1-2.138-2.488v-1.5a4.056,4.056,0,0,0-4.051-4.051H62.636a4.056,4.056,0,0,0-4.051,4.051v1.5a2.556,2.556,0,0,1-5.112.013V95.912a4.056,4.056,0,0,0-4.051-4.051H46.693a4.056,4.056,0,0,0-4.051,4.051v1.481c0,.224,0,.456-.007.694-.034,2.156-.079,5.109,2.359,7.585,3.033,3.081,9.25,4.578,19,4.578s15.972-1.5,19-4.578c2.438-2.476,2.393-5.429,2.359-7.585C85.361,97.848,85.357,97.616,85.357,97.393Zm-4.134,6.525c-2.5,2.543-8.3,3.832-17.224,3.832s-14.72-1.289-17.224-3.832c-1.7-1.731-1.672-3.8-1.642-5.794,0-.251.008-.5.008-.732V95.912a1.552,1.552,0,0,1,1.551-1.551h2.728a1.552,1.552,0,0,1,1.551,1.551v1.516a5.056,5.056,0,0,0,10.112-.013v-1.5a1.552,1.552,0,0,1,1.551-1.551h2.729a1.552,1.552,0,0,1,1.551,1.551v1.5a5.056,5.056,0,0,0,10.112.013V95.912a1.552,1.552,0,0,1,1.551-1.551h2.728a1.552,1.552,0,0,1,1.551,1.551v1.481c0,.236,0,.481.008.732C82.9,100.122,82.928,102.188,81.224,103.918Z"/><path d="M64,18.114c-22.089,0-40.059,14.392-40.059,32.081,0,9.219,4.952,18,13.587,24.087a12.146,12.146,0,0,1,5.1,9.933V85.7A4.057,4.057,0,0,0,46.68,89.75h2.731A4.057,4.057,0,0,0,53.464,85.7V84.181a2.518,2.518,0,0,1,.878-1.911,2.566,2.566,0,0,1,2.1-.567,2.5,2.5,0,0,1,2.14,2.491v1.5a4.057,4.057,0,0,0,4.053,4.053h2.73A4.057,4.057,0,0,0,69.418,85.7v-1.5a2.559,2.559,0,0,1,5.118-.013V85.7a4.057,4.057,0,0,0,4.053,4.053H81.32A4.057,4.057,0,0,0,85.373,85.7V84.215a12.146,12.146,0,0,1,5.1-9.933c8.635-6.089,13.587-14.868,13.587-24.087C104.059,32.505,86.089,18.114,64,18.114ZM89.03,72.239a14.648,14.648,0,0,0-6.157,11.976V85.7A1.554,1.554,0,0,1,81.32,87.25H78.589A1.554,1.554,0,0,1,77.036,85.7V84.181A5.007,5.007,0,0,0,72,79.168a5.491,5.491,0,0,0-.823.063,4.992,4.992,0,0,0-4.263,4.962v1.5a1.555,1.555,0,0,1-1.553,1.553h-2.73A1.554,1.554,0,0,1,61.082,85.7v-1.5a5.059,5.059,0,0,0-10.118-.013V85.7a1.554,1.554,0,0,1-1.553,1.553H46.68A1.554,1.554,0,0,1,45.127,85.7V84.215A14.648,14.648,0,0,0,38.97,72.239C31.008,66.625,26.441,58.59,26.441,50.195,26.441,33.884,43.29,20.614,64,20.614s37.559,13.27,37.559,29.581C101.559,58.59,96.992,66.625,89.03,72.239Z"/><path d="M47.758,37.806a11.671,11.671,0,1,0,11.671,11.67A11.684,11.684,0,0,0,47.758,37.806Zm0,20.841a9.171,9.171,0,1,1,9.171-9.171A9.182,9.182,0,0,1,47.758,58.647Z"/><path d="M80.242,37.806a11.671,11.671,0,1,0,11.671,11.67A11.684,11.684,0,0,0,80.242,37.806Zm0,20.841a9.171,9.171,0,1,1,9.171-9.171A9.182,9.182,0,0,1,80.242,58.647Z"/><path d="M64,55.916c-4.564,0-7.071,9.2-7.071,12.246A2.6,2.6,0,0,0,57.9,70.5c.974.619,2.03.125,3.147-.4A7.281,7.281,0,0,1,64,69.2a7.281,7.281,0,0,1,2.955.906,5.425,5.425,0,0,0,2.151.689,1.808,1.808,0,0,0,1-.289,2.6,2.6,0,0,0,.969-2.341C71.071,65.113,68.563,55.916,64,55.916ZM68.019,67.84A9.492,9.492,0,0,0,64,66.7a9.492,9.492,0,0,0-4.019,1.144c-.171.08-.369.173-.553.254C59.465,64.928,62,58.416,64,58.416s4.535,6.512,4.571,9.678C68.388,68.013,68.189,67.92,68.019,67.84Z"/></svg>