<svg id="Layer_1" data-name="Layer 1" xmlns="http://www.w3.org/2000/svg" viewBox="0 0 128 128"><title>SKULL-6</title><path d="M84.657,97.8V96.368A3.957,3.957,0,0,0,80.7,92.415H78.07a3.957,3.957,0,0,0-3.953,3.953v1.463a2.381,2.381,0,0,1-.831,1.809,2.413,2.413,0,0,1-1.991.537,2.372,2.372,0,0,1-2.025-2.358V96.368a3.957,3.957,0,0,0-3.953-3.953H62.683a3.957,3.957,0,0,0-3.953,3.953v1.451a2.424,2.424,0,0,1-4.847.012V96.368a3.957,3.957,0,0,0-3.953-3.953H47.3a3.957,3.957,0,0,0-3.953,3.953V97.8c0,.216,0,.439-.007.669-.032,2.089-.077,4.95,2.29,7.353C48.562,108.8,54.573,110.25,64,110.25s15.437-1.45,18.374-4.432c2.366-2.4,2.322-5.264,2.29-7.353C84.66,98.236,84.657,98.013,84.657,97.8Zm-4.064,6.268C78.185,106.51,72.6,107.75,64,107.75s-14.185-1.24-16.592-3.686c-1.632-1.657-1.6-3.641-1.572-5.56,0-.243.007-.48.007-.708V96.368A1.455,1.455,0,0,1,47.3,94.915H49.93a1.455,1.455,0,0,1,1.453,1.453v1.463a4.924,4.924,0,0,0,9.847-.012V96.368a1.455,1.455,0,0,1,1.453-1.453h2.634a1.455,1.455,0,0,1,1.453,1.453v1.451a4.924,4.924,0,0,0,9.847.012V96.368a1.455,1.455,0,0,1,1.453-1.453H80.7a1.455,1.455,0,0,1,1.453,1.453V97.8c0,.228,0,.464.007.708C82.194,100.423,82.224,102.407,80.592,104.065Z"/><path d="M47.207,37.534A12.024,12.024,0,1,0,59.231,49.558,12.038,12.038,0,0,0,47.207,37.534Zm0,21.548a9.524,9.524,0,1,1,9.524-9.524A9.535,9.535,0,0,1,47.207,59.082Z"/><path d="M80.793,37.534A12.024,12.024,0,1,0,92.817,49.558,12.038,12.038,0,0,0,80.793,37.534Zm0,21.548a9.524,9.524,0,1,1,9.524-9.524A9.535,9.535,0,0,1,80.793,59.082Z"/><path d="M64,56.259c-4.691,0-7.269,9.478-7.269,12.619a2.655,2.655,0,0,0,.982,2.385c.991.628,2.07.121,3.213-.417A7.551,7.551,0,0,1,64,69.9a7.551,7.551,0,0,1,3.073.941,5.572,5.572,0,0,0,2.207.708,1.832,1.832,0,0,0,1.007-.291,2.655,2.655,0,0,0,.982-2.385C71.269,65.736,68.691,56.259,64,56.259Zm4.138,12.324A9.773,9.773,0,0,0,64,67.4a9.773,9.773,0,0,0-4.138,1.179c-.195.092-.424.2-.631.289,0-3.262,2.673-10.113,4.769-10.113s4.766,6.852,4.769,10.113C68.562,68.783,68.332,68.675,68.138,68.583Z"/><path d="M105.339,74.377a9.925,9.925,0,0,0-2.937-6.052,10.458,10.458,0,0,0-2.858-2.036,27.663,27.663,0,0,0,5.185-15.925C104.728,32.38,86.457,17.75,64,17.75S23.272,32.38,23.272,50.363a27.663,27.663,0,0,0,5.184,15.925A10.458,10.458,0,0,0,25.6,68.325a9.925,9.925,0,0,0-2.937,6.052,7.217,7.217,0,0,0,2,5.892c3.034,3.036,8.393,2.614,11.944-.939a10.378,10.378,0,0,0,2.127-3.054,12.463,12.463,0,0,1,3.549,8.7v1.507a4.106,4.106,0,0,0,4.1,4.1h2.778a4.106,4.106,0,0,0,4.1-4.1V84.936a2.582,2.582,0,0,1,.9-1.96,2.624,2.624,0,0,1,2.154-.582,2.57,2.57,0,0,1,2.195,2.555v1.53a4.106,4.106,0,0,0,4.1,4.1h2.778a4.106,4.106,0,0,0,4.1-4.1v-1.53a2.625,2.625,0,0,1,5.249-.013v1.543a4.106,4.106,0,0,0,4.1,4.1h2.778a4.106,4.106,0,0,0,4.1-4.1V84.971a12.463,12.463,0,0,1,3.549-8.7A10.378,10.378,0,0,0,91.4,79.33c3.552,3.553,8.911,3.973,11.944.939A7.217,7.217,0,0,0,105.339,74.377ZM101.572,78.5a4.755,4.755,0,0,1-3.9,1.277,7.429,7.429,0,0,1-4.514-2.216,7.6,7.6,0,0,1-2.086-3.731A1.251,1.251,0,0,0,89.1,73.1,14.939,14.939,0,0,0,83.22,84.971v1.507a1.6,1.6,0,0,1-1.6,1.6H78.841a1.6,1.6,0,0,1-1.6-1.6V84.936a5.071,5.071,0,0,0-5.1-5.077,5.563,5.563,0,0,0-.833.063,5.056,5.056,0,0,0-4.318,5.027v1.53a1.6,1.6,0,0,1-1.6,1.6H62.611a1.6,1.6,0,0,1-1.6-1.6v-1.53a5.125,5.125,0,0,0-10.249-.013v1.543a1.6,1.6,0,0,1-1.6,1.6H46.381a1.6,1.6,0,0,1-1.6-1.6V84.971A14.939,14.939,0,0,0,38.9,73.1a1.251,1.251,0,0,0-1.975.729,7.6,7.6,0,0,1-2.086,3.731,7.429,7.429,0,0,1-4.514,2.216,4.539,4.539,0,0,1-5.173-5.172,7.428,7.428,0,0,1,2.216-4.514,7.718,7.718,0,0,1,3.406-2.012,1.25,1.25,0,0,0,.657-1.976,25.487,25.487,0,0,1-5.657-15.742c0-16.6,17.149-30.113,38.228-30.113s38.228,13.509,38.228,30.113a25.487,25.487,0,0,1-5.657,15.742,1.25,1.25,0,0,0,.657,1.976,7.718,7.718,0,0,1,3.406,2.012,7.428,7.428,0,0,1,2.216,4.514A4.764,4.764,0,0,1,101.572,78.5Z"/></svg>