<svg xmlns="http://www.w3.org/2000/svg" data-name="Layer 1" viewBox="0 0 128 128"><path d="M64 110.25c-8.416 0-13.788-1.3-16.424-3.979-2.144-2.176-2.1-4.752-2.075-6.632l.006-1.862a3.656 3.656 0 0 1 3.652-3.652H51.5a3.656 3.656 0 0 1 3.652 3.652v1.3a2.014 2.014 0 0 0 4.027-.011v-1.289a3.656 3.656 0 0 1 3.652-3.652h2.34a3.656 3.656 0 0 1 3.652 3.652v1.288a1.968 1.968 0 0 0 1.682 1.958 2 2 0 0 0 1.656-.445 1.977 1.977 0 0 0 .69-1.5v-1.3a3.656 3.656 0 0 1 3.649-3.653h2.34a3.656 3.656 0 0 1 3.652 3.652l.006 1.862c.029 1.88.069 4.456-2.075 6.632-2.635 2.678-8.007 3.979-16.423 3.979zM49.159 96.625a1.153 1.153 0 0 0-1.152 1.152l-.007 1.9c-.026 1.676-.053 3.409 1.356 4.84 2.113 2.145 7.044 3.233 14.644 3.233s12.531-1.088 14.643-3.233c1.409-1.431 1.382-3.164 1.356-4.84l-.006-1.9a1.153 1.153 0 0 0-1.152-1.152H76.5a1.153 1.153 0 0 0-1.152 1.152v1.3a4.514 4.514 0 0 1-9.027-.011v-1.289a1.153 1.153 0 0 0-1.152-1.152H62.83a1.153 1.153 0 0 0-1.152 1.152v1.288a4.455 4.455 0 0 1-3.8 4.429 4.48 4.48 0 0 1-5.223-4.418v-1.3a1.153 1.153 0 0 0-1.155-1.151zM48.91 61.847a10.931 10.931 0 1 1 10.932-10.931A10.944 10.944 0 0 1 48.91 61.847zm0-19.363a8.431 8.431 0 1 0 8.432 8.432 8.441 8.441 0 0 0-8.432-8.432zM79.09 61.847a10.931 10.931 0 1 1 10.932-10.931A10.944 10.944 0 0 1 79.09 61.847zm0-19.363a8.431 8.431 0 1 0 8.432 8.432 8.441 8.441 0 0 0-8.432-8.432zM68.749 70.8a5.113 5.113 0 0 1-2.041-.645A6.7 6.7 0 0 0 64 69.326a6.7 6.7 0 0 0-2.708.833c-1.013.477-2.061.968-3.01.367a2.5 2.5 0 0 1-.941-2.25C57.342 65.422 59.7 56.81 64 56.81s6.658 8.612 6.658 11.466a2.5 2.5 0 0 1-.941 2.25 1.765 1.765 0 0 1-.968.274zM64 66.826a8.893 8.893 0 0 1 3.772 1.074c.119.056.252.119.383.178-.1-3.134-2.518-8.765-4.155-8.765s-4.053 5.63-4.155 8.765c.131-.06.265-.122.383-.178A8.893 8.893 0 0 1 64 66.826z"/><path d="M80.091 92.361h-2.537a4.028 4.028 0 0 1-3.854-4.173v-1.583a2.834 2.834 0 0 0-.956-2.189 1.964 1.964 0 0 0-1.613-.465 2.6 2.6 0 0 0-2.009 2.668v1.568a4.028 4.028 0 0 1-3.854 4.173h-2.537a4.028 4.028 0 0 1-3.854-4.173V86.62a2.593 2.593 0 0 0-1.936-2.656 2.012 2.012 0 0 0-1.686.453 2.833 2.833 0 0 0-.956 2.189v1.582a4.028 4.028 0 0 1-3.854 4.173h-2.536a4.028 4.028 0 0 1-3.854-4.173v-1.546c-.016-3.2-2.318-5.75-5.133-5.75h-7.1a4.417 4.417 0 0 1-3.569-1.869 5.234 5.234 0 0 1-.751-4.655 16.182 16.182 0 0 1 4.066-6.71 30.7 30.7 0 0 1-4.869-16.5C26.694 32.737 43.43 17.75 64 17.75s37.306 14.987 37.306 33.408a30.7 30.7 0 0 1-4.869 16.5 16.182 16.182 0 0 1 4.066 6.71 5.234 5.234 0 0 1-.751 4.655 4.417 4.417 0 0 1-3.569 1.869h-7.1c-2.815 0-5.117 2.549-5.132 5.681v1.614a4.028 4.028 0 0 1-3.86 4.174zm-8.636-10.932a4.441 4.441 0 0 1 2.9 1.076 5.326 5.326 0 0 1 1.844 4.1v1.582a1.541 1.541 0 0 0 1.354 1.673h2.537a1.541 1.541 0 0 0 1.354-1.673v-1.545c.022-4.585 3.446-8.25 7.633-8.25h7.1a1.946 1.946 0 0 0 1.553-.848 2.726 2.726 0 0 0 .382-2.425 13.537 13.537 0 0 0-4.12-6.3 1.25 1.25 0 0 1-.225-1.659 28.3 28.3 0 0 0 5.032-16C98.806 34.115 83.192 20.25 64 20.25S29.194 34.115 29.194 51.158a28.3 28.3 0 0 0 5.032 16A1.25 1.25 0 0 1 34 68.815a13.537 13.537 0 0 0-4.12 6.3 2.726 2.726 0 0 0 .382 2.425 1.946 1.946 0 0 0 1.553.848h7.1c4.187 0 7.611 3.665 7.632 8.169v1.626a1.541 1.541 0 0 0 1.354 1.673h2.537a1.541 1.541 0 0 0 1.362-1.668v-1.582a5.325 5.325 0 0 1 1.845-4.1 4.433 4.433 0 0 1 3.647-1.017 5.057 5.057 0 0 1 4.086 5.132v1.568a1.541 1.541 0 0 0 1.354 1.673h2.537a1.541 1.541 0 0 0 1.354-1.673v-1.57a5.043 5.043 0 0 1 4.012-5.119 4.86 4.86 0 0 1 .82-.071z"/></svg>