<svg id="Layer_1" data-name="Layer 1" xmlns="http://www.w3.org/2000/svg" viewBox="0 0 128 128"><title>SKULL-3</title><path d="M45.167,45.5A13.333,13.333,0,1,0,58.5,58.834,13.349,13.349,0,0,0,45.167,45.5Zm0,24.167A10.833,10.833,0,1,1,56,58.834,10.846,10.846,0,0,1,45.167,69.667Z"/><path d="M82.833,45.5A13.333,13.333,0,1,0,96.167,58.834,13.349,13.349,0,0,0,82.833,45.5Zm0,24.167A10.833,10.833,0,1,1,93.667,58.834,10.845,10.845,0,0,1,82.833,69.667Z"/><path d="M64,66.5c-4.812,0-8,9.962-8,14a2.846,2.846,0,0,0,1.03,2.546c1.041.66,2.215.108,3.459-.477A8.582,8.582,0,0,1,64,81.5a8.582,8.582,0,0,1,3.511,1.069,6.132,6.132,0,0,0,2.41.777,1.906,1.906,0,0,0,1.049-.3A2.846,2.846,0,0,0,72,80.5C72,76.462,68.811,66.5,64,66.5Zm5.5,14.22c-.28-.111-.633-.277-.92-.413A10.836,10.836,0,0,0,64,79a10.836,10.836,0,0,0-4.575,1.307c-.287.135-.64.3-.92.413,0-.064,0-.137,0-.22C58.5,76.7,61.525,69,64,69s5.5,7.7,5.5,11.5C69.5,80.583,69.5,80.656,69.5,80.72Z"/><path d="M110.21,86.681a10.982,10.982,0,0,0-3.251-6.693,11.554,11.554,0,0,0-3.325-2.33,30.9,30.9,0,0,0,5.891-17.921C109.524,39.652,89.1,23.313,64,23.313S18.476,39.652,18.476,59.736a30.9,30.9,0,0,0,5.891,17.921,11.554,11.554,0,0,0-3.325,2.33,10.981,10.981,0,0,0-3.251,6.693,7.735,7.735,0,0,0,8.686,8.686,10.982,10.982,0,0,0,6.693-3.251,11.452,11.452,0,0,0,2.442-3.583,14.129,14.129,0,0,1,4.182,10.017v1.69a4.452,4.452,0,0,0,4.447,4.447h3.116A4.452,4.452,0,0,0,51.8,100.24v-1.73A3.049,3.049,0,0,1,52.866,96.2a3.1,3.1,0,0,1,2.538-.687,3.032,3.032,0,0,1,2.59,3.016v1.716a4.453,4.453,0,0,0,4.448,4.447h3.115a4.453,4.453,0,0,0,4.448-4.447V98.524a3.1,3.1,0,0,1,6.19-.015v1.73a4.452,4.452,0,0,0,4.447,4.447H83.76a4.452,4.452,0,0,0,4.447-4.447v-1.69a14.129,14.129,0,0,1,4.182-10.017,11.452,11.452,0,0,0,2.442,3.583,10.982,10.982,0,0,0,6.693,3.251,7.735,7.735,0,0,0,8.686-8.686Zm-3.966,4.72a5.509,5.509,0,0,1-4.489,1.477A8.485,8.485,0,0,1,96.6,90.348a8.683,8.683,0,0,1-2.381-4.259,1.25,1.25,0,0,0-1.975-.729,16.6,16.6,0,0,0-6.536,13.189v1.69a1.95,1.95,0,0,1-1.947,1.947H80.644A1.95,1.95,0,0,1,78.7,100.24v-1.73a5.536,5.536,0,0,0-5.564-5.542,6.053,6.053,0,0,0-.913.07,5.519,5.519,0,0,0-4.713,5.487v1.716a1.95,1.95,0,0,1-1.948,1.947H62.442a1.95,1.95,0,0,1-1.948-1.947V98.524a5.6,5.6,0,0,0-11.19-.015v1.73a1.95,1.95,0,0,1-1.947,1.947H44.24a1.95,1.95,0,0,1-1.947-1.947v-1.69A16.6,16.6,0,0,0,35.757,85.36a1.25,1.25,0,0,0-1.975.729A8.683,8.683,0,0,1,31.4,90.348a8.485,8.485,0,0,1-5.156,2.529,5.242,5.242,0,0,1-5.966-5.966,8.481,8.481,0,0,1,2.529-5.156A8.8,8.8,0,0,1,26.7,79.46a1.25,1.25,0,0,0,.657-1.976,28.735,28.735,0,0,1-6.377-17.748c0-18.705,19.3-33.923,43.024-33.923s43.024,15.218,43.024,33.923a28.735,28.735,0,0,1-6.377,17.748,1.25,1.25,0,0,0,.657,1.976,8.8,8.8,0,0,1,3.887,2.295,8.481,8.481,0,0,1,2.529,5.156A5.492,5.492,0,0,1,106.244,91.4Z"/></svg>