<svg xmlns="http://www.w3.org/2000/svg" data-name="Layer 1" viewBox="0 0 128 128"><path d="M45.166 45.5A13.333 13.333 0 1 0 58.5 58.834 13.348 13.348 0 0 0 45.166 45.5zm0 24.167A10.833 10.833 0 1 1 56 58.834a10.846 10.846 0 0 1-10.834 10.833zM82.833 45.5a13.333 13.333 0 1 0 13.333 13.334A13.349 13.349 0 0 0 82.833 45.5zm0 24.167a10.833 10.833 0 1 1 10.833-10.833 10.846 10.846 0 0 1-10.833 10.833zM64 66.5c-4.812 0-8 9.962-8 14a2.846 2.846 0 0 0 1.031 2.546c1.04.662 2.214.108 3.458-.477A8.586 8.586 0 0 1 64 81.5a8.586 8.586 0 0 1 3.511 1.069 6.13 6.13 0 0 0 2.41.777 1.9 1.9 0 0 0 1.048-.3A2.846 2.846 0 0 0 72 80.5c0-4.038-3.189-14-8-14zm5.5 14.22c-.28-.111-.632-.277-.92-.413A10.836 10.836 0 0 0 64 79a10.836 10.836 0 0 0-4.575 1.307c-.288.135-.64.3-.92.413v-.22C58.5 76.7 61.525 69 64 69s5.5 7.7 5.5 11.5v.22z"/><path d="M110.25 59.135c0-22.82-20.75-41.385-46.25-41.385S17.75 36.315 17.75 59.135a37.982 37.982 0 0 0 5.1 18.889 10.357 10.357 0 0 0-2.474 6.8c0 5.41 3.981 9.811 8.875 9.811a8.368 8.368 0 0 0 6.037-2.622 17.338 17.338 0 0 1 4.129 11.412v1.929a4.717 4.717 0 0 0 4.5 4.9h3.167a4.717 4.717 0 0 0 4.5-4.9v-1.975a3.846 3.846 0 0 1 1.3-2.969 2.8 2.8 0 0 1 2.357-.633 3.545 3.545 0 0 1 2.673 3.619v1.958a4.717 4.717 0 0 0 4.5 4.9h3.167a4.717 4.717 0 0 0 4.5-4.9v-1.958a3.557 3.557 0 0 1 2.765-3.635 2.756 2.756 0 0 1 2.265.649 3.846 3.846 0 0 1 1.3 2.969v1.975a4.717 4.717 0 0 0 4.5 4.9h3.167a4.717 4.717 0 0 0 4.5-4.9v-1.929a17.338 17.338 0 0 1 4.129-11.412 8.368 8.368 0 0 0 6.037 2.622c4.894 0 8.875-4.4 8.875-9.811a10.357 10.357 0 0 0-2.474-6.8 37.982 37.982 0 0 0 5.105-18.889zm-11.5 33a6.082 6.082 0 0 1-4.95-2.721 1.25 1.25 0 0 0-1.884-.182 19.626 19.626 0 0 0-5.831 14.19v1.929a2.229 2.229 0 0 1-2 2.4h-3.169a2.229 2.229 0 0 1-2-2.4v-1.975a6.339 6.339 0 0 0-2.191-4.88 5.237 5.237 0 0 0-3.423-1.27 5.718 5.718 0 0 0-.967.084 5.983 5.983 0 0 0-4.751 6.083v1.958a2.229 2.229 0 0 1-2 2.4h-3.168a2.229 2.229 0 0 1-2-2.4v-1.958a6 6 0 0 0-4.843-6.1 5.212 5.212 0 0 0-4.3 1.2 6.339 6.339 0 0 0-2.191 4.88v1.975a2.229 2.229 0 0 1-2 2.4h-3.166a2.229 2.229 0 0 1-2-2.4v-1.929a19.626 19.626 0 0 0-5.831-14.19 1.25 1.25 0 0 0-1.884.182 6.082 6.082 0 0 1-4.951 2.719c-3.515 0-6.375-3.279-6.375-7.311a7.732 7.732 0 0 1 2.382-5.7 1.25 1.25 0 0 0 .22-1.566 35.551 35.551 0 0 1-5.227-18.418C20.25 37.694 39.876 20.25 64 20.25s43.75 17.444 43.75 38.885a35.551 35.551 0 0 1-5.228 18.425 1.25 1.25 0 0 0 .22 1.566 7.732 7.732 0 0 1 2.382 5.7c.001 4.028-2.859 7.307-6.374 7.307z"/></svg>