<svg id="Layer_1" data-name="Layer 1" xmlns="http://www.w3.org/2000/svg" viewBox="0 0 128 128"><title>SKULL AND CROSSBONE-13</title><path d="M51.618,51.15a9.194,9.194,0,1,0-9.194-9.194A9.2,9.2,0,0,0,51.618,51.15Zm0-15.889a6.694,6.694,0,1,1-6.694,6.694A6.7,6.7,0,0,1,51.618,35.262Z"/><path d="M76.382,51.15a9.194,9.194,0,1,0-9.194-9.194A9.205,9.205,0,0,0,76.382,51.15Zm0-15.889a6.694,6.694,0,1,1-6.694,6.694A6.7,6.7,0,0,1,76.382,35.262Z"/><path d="M59.189,58.237c.882.559,1.84.109,2.685-.288A5.331,5.331,0,0,1,64,57.287a5.331,5.331,0,0,1,2.126.662A4.39,4.39,0,0,0,67.9,58.5a1.66,1.66,0,0,0,.911-.263,2.32,2.32,0,0,0,.877-2.036c0-2.4-2.017-9.632-5.688-9.632S58.312,53.8,58.312,56.2A2.32,2.32,0,0,0,59.189,58.237ZM64,49.069c1.087,0,2.93,3.965,3.164,6.605A7.421,7.421,0,0,0,64,54.787a7.421,7.421,0,0,0-3.164.888C61.07,53.034,62.913,49.069,64,49.069Z"/><path d="M96.059,87.99c-1.3-.808-3.043-.829-5.188-.068a10.966,10.966,0,0,1-9.495-1.111l-6.564-4.082,6.564-4.082a10.976,10.976,0,0,1,9.495-1.111c2.145.762,3.891.737,5.188-.068a7.253,7.253,0,0,0-2.291-13.25,7.218,7.218,0,0,0-3.874-8.271A21.4,21.4,0,0,0,94.836,42.5C94.836,28.855,81,17.75,64,17.75S33.164,28.855,33.164,42.5a21.4,21.4,0,0,0,4.942,13.441,7.221,7.221,0,0,0-3.874,8.272,7.254,7.254,0,0,0-2.291,13.25c1.3.806,3.041.828,5.188.068a10.975,10.975,0,0,1,9.495,1.111l6.564,4.082-6.564,4.082a10.966,10.966,0,0,1-9.495,1.111c-2.146-.763-3.891-.738-5.188.068a7.252,7.252,0,0,0,2.291,13.25,7.251,7.251,0,0,0,10.87,7.914c1.3-.806,2.09-2.361,2.355-4.622a10.97,10.97,0,0,1,5.2-8.024L64,89.452l11.346,7.056a10.97,10.97,0,0,1,5.2,8.024c.266,2.261,1.058,3.816,2.355,4.622a7.21,7.21,0,0,0,3.819,1.1,7.3,7.3,0,0,0,1.662-.192,7.247,7.247,0,0,0,5.39-8.819,7.254,7.254,0,0,0,2.291-13.25ZM64,20.25c15.624,0,28.336,9.983,28.336,22.254,0,6.3-3.435,12.34-9.424,16.563a11.465,11.465,0,0,0-4.821,9.373v1.13a.888.888,0,0,1-.887.887H75.122a.888.888,0,0,1-.887-.887V68.414A4.115,4.115,0,0,0,70.1,64.295a4.357,4.357,0,0,0-.672.052,4.1,4.1,0,0,0-3.5,4.077V69.57a.888.888,0,0,1-.887.887H62.959a.888.888,0,0,1-.887-.887V68.424a4.154,4.154,0,0,0-8.308-.01V69.57a.888.888,0,0,1-.887.887H50.8a.888.888,0,0,1-.887-.887V68.44a11.465,11.465,0,0,0-4.821-9.373C39.1,54.844,35.664,48.807,35.664,42.5,35.664,30.233,48.376,20.25,64,20.25ZM64,76l-8.06-5.012a3.351,3.351,0,0,0,.324-1.423V68.414a1.6,1.6,0,0,1,.566-1.233,1.643,1.643,0,0,1,1.362-.364,1.617,1.617,0,0,1,1.379,1.606V69.57a3.391,3.391,0,0,0,3.387,3.387h2.082a3.391,3.391,0,0,0,3.387-3.387V68.424a1.633,1.633,0,0,1,1.439-1.615,1.623,1.623,0,0,1,1.868,1.606V69.57a3.351,3.351,0,0,0,.324,1.423Zm-16.057.519A13.447,13.447,0,0,0,36.293,75.18c-1.355.478-2.432.538-3.032.164a4.758,4.758,0,0,1-1.528-6.553,4.84,4.84,0,0,1,4.2-2.239,1.224,1.224,0,0,0,1.1-.589,1.25,1.25,0,0,0,.041-1.25,4.711,4.711,0,0,1,2.814-6.774,28.1,28.1,0,0,0,3.754,3.172,8.963,8.963,0,0,1,3.761,7.33v1.13A3.391,3.391,0,0,0,50.8,72.957h2.082a3.351,3.351,0,0,0,1.144-.213l7.611,4.733-6.079,3.78Zm3.39,17.861a13.457,13.457,0,0,0-6.358,9.855,3.8,3.8,0,0,1-1.193,2.792,4.755,4.755,0,0,1-6.7-6.287,1.25,1.25,0,0,0-.041-1.25,1.2,1.2,0,0,0-1.1-.589,4.846,4.846,0,0,1-4.2-2.238,4.758,4.758,0,0,1,1.528-6.554c.6-.376,1.679-.314,3.032.164a13.458,13.458,0,0,0,11.651-1.344L73.978,72.744a3.349,3.349,0,0,0,1.144.213H77.2a3.391,3.391,0,0,0,3.387-3.387V68.44a8.963,8.963,0,0,1,3.761-7.33,28.1,28.1,0,0,0,3.754-3.172,4.711,4.711,0,0,1,2.814,6.774,1.25,1.25,0,0,0,.041,1.25,1.206,1.206,0,0,0,1.1.589,4.832,4.832,0,0,1,4.2,2.239,4.758,4.758,0,0,1-1.528,6.553c-.6.376-1.678.314-3.032-.164a13.447,13.447,0,0,0-11.651,1.344l-8.14,5.062a1.2,1.2,0,0,0-.315.2Zm44.933,2.282a4.854,4.854,0,0,1-4.2,2.238,1.178,1.178,0,0,0-1.1.589,1.25,1.25,0,0,0-.041,1.25,4.756,4.756,0,0,1-6.7,6.287,3.8,3.8,0,0,1-1.192-2.792,13.457,13.457,0,0,0-6.358-9.855l-10.3-6.4L72.445,84.2l7.611,4.733a13.456,13.456,0,0,0,11.651,1.344c1.354-.479,2.431-.54,3.032-.164a4.758,4.758,0,0,1,1.528,6.554Z"/></svg>