<svg id="Layer_1" data-name="Layer 1" xmlns="http://www.w3.org/2000/svg" viewBox="0 0 128 128"><title>SKULL AND CROSSBONE-10</title><path d="M51.026,50.866A9.574,9.574,0,1,0,60.6,60.44,9.585,9.585,0,0,0,51.026,50.866Zm0,16.648A7.074,7.074,0,1,1,58.1,60.44,7.082,7.082,0,0,1,51.026,67.515Z"/><path d="M86.548,60.44a9.574,9.574,0,1,0-9.574,9.574A9.585,9.585,0,0,0,86.548,60.44Zm-9.574,7.074a7.074,7.074,0,1,1,7.074-7.074A7.082,7.082,0,0,1,76.974,67.515Z"/><path d="M64,65.333c-3.808,0-5.9,7.536-5.9,10.033a2.377,2.377,0,0,0,.891,2.083c.9.567,1.841.124,2.756-.3a5.625,5.625,0,0,1,2.253-.7,5.625,5.625,0,0,1,2.253.7,4.561,4.561,0,0,0,1.83.574,1.692,1.692,0,0,0,.926-.27,2.377,2.377,0,0,0,.891-2.083C69.9,72.869,67.808,65.333,64,65.333Zm3.317,9.549A7.789,7.789,0,0,0,64,73.944a7.789,7.789,0,0,0-3.317.938l-.063.029c.213-2.627,2.123-7.078,3.38-7.078s3.167,4.451,3.38,7.078Z"/><path d="M108.362,86.018c-1.318-1.318-3.418-1.825-6.231-1.509a14.4,14.4,0,0,1-8.945-1.959,7.679,7.679,0,0,0-.366-8.931,26.229,26.229,0,0,0-.86-27.345,14.567,14.567,0,0,1,10.171-2.783c2.819.315,4.914-.19,6.231-1.509a9.04,9.04,0,0,0-6.922-15.422,9.041,9.041,0,0,0-15.422-6.922c-1.317,1.316-1.824,3.413-1.508,6.231A14.577,14.577,0,0,1,81.47,36.377a35.3,35.3,0,0,0-34.94,0A14.577,14.577,0,0,1,43.491,25.87c.316-2.818-.191-4.915-1.508-6.231A9.041,9.041,0,0,0,26.56,26.561a9.04,9.04,0,0,0-6.922,15.422c1.317,1.318,3.414,1.821,6.232,1.509a14.6,14.6,0,0,1,10.17,2.783,26.229,26.229,0,0,0-.86,27.345,7.679,7.679,0,0,0-.366,8.93,14.417,14.417,0,0,1-8.945,1.959c-2.819-.314-4.914.19-6.231,1.509A9.04,9.04,0,0,0,26.56,101.44a9.045,9.045,0,0,0,15.422,6.922c1.317-1.316,1.824-3.413,1.508-6.231a14.49,14.49,0,0,1,3.185-10.724v1.081a3.638,3.638,0,0,0,3.489,3.764h2.182a3.638,3.638,0,0,0,3.489-3.764v-1.36a2.261,2.261,0,0,1,.76-1.748,1.55,1.55,0,0,1,1.308-.35,2.052,2.052,0,0,1,1.518,2.109v1.349a3.638,3.638,0,0,0,3.489,3.764h2.182a3.638,3.638,0,0,0,3.489-3.764V91.138a2.058,2.058,0,0,1,1.582-2.12,1.5,1.5,0,0,1,1.244.36,2.261,2.261,0,0,1,.76,1.748v1.36a3.638,3.638,0,0,0,3.489,3.764h2.182a3.638,3.638,0,0,0,3.489-3.764V91.406a14.49,14.49,0,0,1,3.185,10.724c-.316,2.818.191,4.915,1.508,6.231a9.041,9.041,0,0,0,15.422-6.922,9.04,9.04,0,0,0,6.922-15.422ZM86.993,25.591c-.156-1.392-.145-3.247.791-4.184a6.543,6.543,0,0,1,10.946,6.331,1.25,1.25,0,0,0,1.531,1.531,6.543,6.543,0,0,1,6.331,10.946c-.937.938-2.792.951-4.184.792A17.07,17.07,0,0,0,90.52,44.232a30.809,30.809,0,0,0-6.926-6.515A17.07,17.07,0,0,0,86.993,25.591Zm-61.4,15.416c-1.39.158-3.247.145-4.184-.792a6.543,6.543,0,0,1,6.331-10.946,1.25,1.25,0,0,0,1.531-1.531,6.543,6.543,0,0,1,10.946-6.331c.937.938.948,2.793.791,4.185a17.07,17.07,0,0,0,3.4,12.126,30.805,30.805,0,0,0-6.927,6.515A17.125,17.125,0,0,0,25.591,41.007Zm15.416,61.4c.156,1.392.145,3.247-.791,4.185a6.543,6.543,0,0,1-10.946-6.331,1.25,1.25,0,0,0-1.531-1.531,6.543,6.543,0,0,1-6.331-10.946c.937-.937,2.792-.95,4.185-.792a16.957,16.957,0,0,0,11-2.617,6.041,6.041,0,0,0,3.473,1.115,6.107,6.107,0,0,0,4.129-1.625,11.18,11.18,0,0,1,2.1,4.257l-.262.262A17.092,17.092,0,0,0,41.007,102.409Zm37.817-9.923a1.168,1.168,0,0,1-.989,1.264H75.654a1.168,1.168,0,0,1-.989-1.264v-1.36a4.753,4.753,0,0,0-1.648-3.659A3.987,3.987,0,0,0,70.41,86.5a4.4,4.4,0,0,0-.734.064,4.51,4.51,0,0,0-3.6,4.574v1.349a1.168,1.168,0,0,1-.989,1.264H62.909a1.168,1.168,0,0,1-.989-1.264V91.138a4.523,4.523,0,0,0-3.659-4.585,3.974,3.974,0,0,0-3.278.914,4.753,4.753,0,0,0-1.648,3.659v1.36a1.168,1.168,0,0,1-.989,1.264H50.165a1.168,1.168,0,0,1-.989-1.264V91.158A13.909,13.909,0,0,0,45.039,81.1a1.25,1.25,0,0,0-1.884.182,3.806,3.806,0,0,1-3.093,1.708c-2.207,0-4-2.085-4-4.647a4.937,4.937,0,0,1,1.517-3.638,1.25,1.25,0,0,0,.22-1.567A24.1,24.1,0,0,1,34.25,60.648c0-14.556,13.346-26.4,29.75-26.4s29.75,11.843,29.75,26.4A24.1,24.1,0,0,1,90.205,73.14a1.25,1.25,0,0,0,.22,1.567,4.937,4.937,0,0,1,1.517,3.638c0,2.563-1.8,4.647-4,4.647a3.806,3.806,0,0,1-3.093-1.708,1.25,1.25,0,0,0-1.884-.182,13.909,13.909,0,0,0-4.137,10.057Zm27.77,4.559a6.564,6.564,0,0,1-6.332,1.686,1.25,1.25,0,0,0-1.531,1.531,6.543,6.543,0,0,1-10.946,6.331c-.937-.937-.948-2.793-.791-4.185a17.092,17.092,0,0,0-5.026-14.024l-.262-.262a11.18,11.18,0,0,1,2.1-4.257,6.107,6.107,0,0,0,4.129,1.625,6.041,6.041,0,0,0,3.473-1.115,16.943,16.943,0,0,0,11,2.617c1.39-.158,3.247-.145,4.185.792A6.556,6.556,0,0,1,106.594,97.045Z"/></svg>