<svg xmlns="http://www.w3.org/2000/svg" data-name="Layer 1" viewBox="0 0 128 128"><path d="M45.167 45.5A13.333 13.333 0 1 0 58.5 58.834 13.349 13.349 0 0 0 45.167 45.5zm0 24.167A10.833 10.833 0 1 1 56 58.834a10.846 10.846 0 0 1-10.833 10.833zM82.833 45.5a13.333 13.333 0 1 0 13.334 13.334A13.349 13.349 0 0 0 82.833 45.5zm0 24.167a10.833 10.833 0 1 1 10.834-10.833 10.845 10.845 0 0 1-10.834 10.833zM64 66.5c-4.812 0-8 9.962-8 14a2.846 2.846 0 0 0 1.03 2.546c1.041.66 2.215.108 3.459-.477A8.582 8.582 0 0 1 64 81.5a8.582 8.582 0 0 1 3.511 1.069 6.132 6.132 0 0 0 2.41.777 1.906 1.906 0 0 0 1.049-.3A2.846 2.846 0 0 0 72 80.5c0-4.038-3.189-14-8-14zm5.5 14.22c-.28-.111-.633-.277-.92-.413A10.836 10.836 0 0 0 64 79a10.836 10.836 0 0 0-4.575 1.307c-.287.135-.64.3-.92.413v-.22C58.5 76.7 61.525 69 64 69s5.5 7.7 5.5 11.5v.22z"/><path d="M104.086 79.775a38.023 38.023 0 0 0 6.164-20.64c0-22.82-20.75-41.385-46.25-41.385S17.75 36.315 17.75 59.135a38.023 38.023 0 0 0 6.164 20.64 19.85 19.85 0 0 0-5.177 8.425 6.22 6.22 0 0 0 .892 5.533 5.206 5.206 0 0 0 4.205 2.207H32.7c3.685 0 6.7 3.319 6.717 7.486v1.929a4.717 4.717 0 0 0 4.5 4.9h3.166a4.717 4.717 0 0 0 4.5-4.9v-1.975a3.847 3.847 0 0 1 1.3-2.969 2.812 2.812 0 0 1 2.357-.633 3.547 3.547 0 0 1 2.673 3.62v1.957a4.717 4.717 0 0 0 4.5 4.9h3.166a4.717 4.717 0 0 0 4.5-4.9v-1.958a3.558 3.558 0 0 1 2.766-3.635 2.761 2.761 0 0 1 2.266.649 3.843 3.843 0 0 1 1.3 2.968v1.976a4.717 4.717 0 0 0 4.5 4.9h3.166a4.717 4.717 0 0 0 4.5-4.9v-2.017c.018-4.08 3.031-7.4 6.716-7.4h8.866a5.206 5.206 0 0 0 4.205-2.207 6.22 6.22 0 0 0 .892-5.533 19.85 19.85 0 0 0-5.17-8.423zm2.27 12.476a2.735 2.735 0 0 1-2.189 1.185H95.3c-5.057 0-9.19 4.436-9.215 9.854v2.061a2.23 2.23 0 0 1-2 2.4h-3.168a2.229 2.229 0 0 1-2-2.4v-1.976a6.337 6.337 0 0 0-2.191-4.88 5.239 5.239 0 0 0-3.426-1.268 5.726 5.726 0 0 0-.969.084 5.985 5.985 0 0 0-4.751 6.083v1.958a2.23 2.23 0 0 1-2 2.4h-3.163a2.229 2.229 0 0 1-2-2.4v-1.957a6 6 0 0 0-4.843-6.1 5.2 5.2 0 0 0-4.3 1.2 6.335 6.335 0 0 0-2.192 4.88v1.975a2.23 2.23 0 0 1-2 2.4h-3.165a2.229 2.229 0 0 1-2-2.4v-2.028c-.025-5.452-4.159-9.887-9.216-9.887h-8.867a2.735 2.735 0 0 1-2.19-1.185 3.714 3.714 0 0 1-.522-3.3 17.212 17.212 0 0 1 5.237-8.011 1.25 1.25 0 0 0 .225-1.659 35.629 35.629 0 0 1-6.334-20.145C20.25 37.694 39.876 20.25 64 20.25s43.75 17.444 43.75 38.885a35.63 35.63 0 0 1-6.334 20.142 1.25 1.25 0 0 0 .225 1.659 17.212 17.212 0 0 1 5.237 8.011 3.714 3.714 0 0 1-.523 3.304z"/></svg>