<svg xmlns="http://www.w3.org/2000/svg" data-name="Layer 3" viewBox="0 0 128 128"><path d="M92.68 22.739c-10.1 0-18.325 7.857-18.325 17.517v14.18H45.569a14.332 14.332 0 1 0-15.851 15.849V94.5a10.778 10.778 0 0 0 10.767 10.765h37.534A10.777 10.777 0 0 0 88.783 94.5V56.047a1.61 1.61 0 0 0-1.61-1.61h-9.6V40.255c0-7.882 6.775-14.3 15.1-14.3s15.1 6.414 15.1 14.3v15.792a1.61 1.61 0 1 0 3.221 0V40.255c.011-9.655-8.21-17.516-18.314-17.516zM20.216 56.047a11.106 11.106 0 0 1 19.756-6.973 1.54 1.54 0 0 0-.184.1L29.1 58.252 25.488 53a1.611 1.611 0 0 0-2.655 1.824l4.617 6.717a1.612 1.612 0 0 0 2.37.316L41.615 51.85a11.112 11.112 0 1 1-21.4 4.2zM85.562 94.5a7.552 7.552 0 0 1-7.543 7.544H40.485a7.553 7.553 0 0 1-7.546-7.544V70.286a14.355 14.355 0 0 0 12.63-12.628h39.993z"/><path d="M59.25 65.422a8.931 8.931 0 0 0-1.61 17.716v8.612a1.61 1.61 0 0 0 3.221 0v-8.612a8.931 8.931 0 0 0-1.61-17.716zm0 14.648a5.714 5.714 0 1 1 5.715-5.714 5.719 5.719 0 0 1-5.715 5.714z"/></svg>