<svg xmlns="http://www.w3.org/2000/svg" data-name="Layer 3" viewBox="0 0 128 128"><path d="M86.266 82.533a4.765 4.765 0 00-1.61 9.253v3.039a1.61 1.61 0 003.221 0v-3.039a4.765 4.765 0 00-1.61-9.253zm0 3.221a1.555 1.555 0 11-1.554 1.554 1.555 1.555 0 011.554-1.554z"/><path d="M106.675 34.908h-8.021c-.407-4.753-4.1-8.486-8.586-8.486H73.092c-4.483 0-8.178 3.734-8.585 8.486H21.325a1.61 1.61 0 00-1.61 1.611v50.93a1.61 1.61 0 001.61 1.61h51.264v6.952a5.572 5.572 0 005.564 5.567h16.221a5.574 5.574 0 005.567-5.567v-6.952h6.734a1.61 1.61 0 001.61-1.61v-50.93a1.61 1.61 0 00-1.61-1.611zm-40.594 3.221a1.61 1.61 0 001.61-1.61v-.736c0-3.387 2.423-6.14 5.4-6.14h16.977c2.979 0 5.4 2.752 5.4 6.14a1.636 1.636 0 00.043.368 1.638 1.638 0 00-.043.368 1.61 1.61 0 001.61 1.61h7.985v16.708H60.911a8.868 8.868 0 00-8.486-7.75H38.67a8.867 8.867 0 00-8.485 7.75h-7.25V38.129zm-8.467 16.708H33.482a5.562 5.562 0 015.188-4.529h13.755a5.564 5.564 0 015.189 4.529zm39.107 41.174a2.349 2.349 0 01-2.346 2.346H78.154a2.347 2.347 0 01-2.343-2.346v-15h20.91zm-4.844-18.225H80.651v-5.215a5.625 5.625 0 0111.226 0zm8.065 8.052V79.4a1.61 1.61 0 00-1.61-1.61H95.1v-5.219a8.841 8.841 0 00-17.668 0v5.215H74.2a1.61 1.61 0 00-1.61 1.61v6.442H22.935v-27.78h82.13v27.78z"/></svg>