<svg id="Layer_3" data-name="Layer 3" xmlns="http://www.w3.org/2000/svg" viewBox="0 0 128 128"><title>Artboard 102</title><path d="M91.626,90.579H87.243V61.058a23.243,23.243,0,1,0-46.486,0V90.579H36.373a10.091,10.091,0,0,0,0,20.181H91.626a10.091,10.091,0,0,0,0-20.181ZM64,41.035A20.045,20.045,0,0,1,84.022,61.058v22.41H43.978V61.058A20.045,20.045,0,0,1,64,41.035ZM43.978,86.688H84.022v3.891H43.978Zm-7.6,7.112H91.626a6.868,6.868,0,0,1,6.658,5.259H29.716A6.866,6.866,0,0,1,36.373,93.8Zm55.253,13.739H36.373a6.867,6.867,0,0,1-6.657-5.259H98.284A6.868,6.868,0,0,1,91.626,107.539Z" style="fill:#231f20"/><path d="M65.61,31.143V18.851a1.61,1.61,0,1,0-3.221,0V31.143a1.61,1.61,0,1,0,3.221,0Z" style="fill:#231f20"/><path d="M30.946,65.807a1.61,1.61,0,0,0-1.61-1.61H17.044a1.61,1.61,0,0,0,0,3.221H29.336A1.61,1.61,0,0,0,30.946,65.807Z" style="fill:#231f20"/><path d="M38.829,44.384a1.61,1.61,0,0,0-.183-2.27L29.284,34.15A1.611,1.611,0,0,0,27.2,36.6l9.361,7.964a1.61,1.61,0,0,0,2.27-.183Z" style="fill:#231f20"/><path d="M103.161,37.087a1.608,1.608,0,0,0-2.251-.346L91,44.01a1.61,1.61,0,1,0,1.9,2.6l9.91-7.269A1.61,1.61,0,0,0,103.161,37.087Z" style="fill:#231f20"/><path d="M110.955,64.2H98.664a1.61,1.61,0,0,0,0,3.221h12.291a1.61,1.61,0,0,0,0-3.221Z" style="fill:#231f20"/></svg>