<svg id="Layer_3" data-name="Layer 3" xmlns="http://www.w3.org/2000/svg" viewBox="0 0 128 128"><title>Artboard 106</title><path d="M74.337,38.819A10.337,10.337,0,1,0,64,49.157,10.349,10.349,0,0,0,74.337,38.819Zm-17.454,0A7.116,7.116,0,1,1,64,45.936,7.125,7.125,0,0,1,56.883,38.819Z" style="fill:#231f20"/><path d="M90.681,28.482a10.337,10.337,0,1,0,10.337,10.337A10.35,10.35,0,0,0,90.681,28.482Zm0,17.454A7.117,7.117,0,1,1,97.8,38.819,7.125,7.125,0,0,1,90.681,45.936Z" style="fill:#231f20"/><path d="M37.319,53.663A10.337,10.337,0,1,0,47.657,64,10.349,10.349,0,0,0,37.319,53.663Zm0,17.454A7.117,7.117,0,1,1,44.436,64,7.125,7.125,0,0,1,37.319,71.117Z" style="fill:#231f20"/><path d="M90.681,53.663A10.337,10.337,0,1,0,101.018,64,10.35,10.35,0,0,0,90.681,53.663Zm0,17.454A7.117,7.117,0,1,1,97.8,64,7.125,7.125,0,0,1,90.681,71.117Z" style="fill:#231f20"/><path d="M37.319,78.843A10.337,10.337,0,1,0,47.657,89.181,10.349,10.349,0,0,0,37.319,78.843Zm0,17.454a7.117,7.117,0,1,1,7.117-7.117A7.125,7.125,0,0,1,37.319,96.3Z" style="fill:#231f20"/><path d="M53.663,89.181A10.337,10.337,0,1,0,64,78.843,10.349,10.349,0,0,0,53.663,89.181Zm17.454,0A7.116,7.116,0,1,1,64,82.064,7.125,7.125,0,0,1,71.116,89.181Z" style="fill:#231f20"/><path d="M90.681,99.518a10.337,10.337,0,1,0-6.31-18.507L72.527,69.832a10.323,10.323,0,0,0-14.837-14L45.846,44.652a10.426,10.426,0,1,0-2.218,2.337L55.473,58.168a10.323,10.323,0,0,0,14.837,14L82.154,83.348a10.328,10.328,0,0,0,8.527,16.17Zm0-17.454a7.117,7.117,0,1,1-7.117,7.117,7.034,7.034,0,0,1,.993-3.564l2.577,2.432a3.7,3.7,0,0,0-.194,1.132,3.771,3.771,0,1,0,2.4-3.481L86.75,83.256A7.071,7.071,0,0,1,90.681,82.064ZM64,56.884A7.125,7.125,0,0,1,71.116,64a7.033,7.033,0,0,1-.993,3.564l-2.577-2.432A3.7,3.7,0,0,0,67.74,64a3.719,3.719,0,0,0-5.082-3.481L60.07,58.076A7.07,7.07,0,0,1,64,56.884ZM37.319,45.936a7.117,7.117,0,1,1,7.117-7.116,7.034,7.034,0,0,1-.993,3.564l-2.577-2.432a3.7,3.7,0,0,0,.194-1.133,3.771,3.771,0,1,0-2.4,3.481l2.589,2.443A7.071,7.071,0,0,1,37.319,45.936ZM64,71.117A7.125,7.125,0,0,1,56.883,64a7.033,7.033,0,0,1,.993-3.564l2.577,2.432A3.7,3.7,0,0,0,60.26,64a3.719,3.719,0,0,0,5.082,3.481l2.589,2.443A7.07,7.07,0,0,1,64,71.117Z" style="fill:#231f20"/></svg>