<svg xmlns="http://www.w3.org/2000/svg" data-name="Layer 3" viewBox="0 0 128 128"><path d="M56.172 87.975a30.662 30.662 0 0 0 17.27-5.3l16.92 16.921A7.207 7.207 0 1 0 100.555 89.4L99.3 88.145v-.007h-.007L83.169 72.013a30.829 30.829 0 1 0-27 15.962zm42.1 9.34a4.08 4.08 0 0 1-5.637 0l-.122-.122 5.638-5.638.123.123a3.981 3.981 0 0 1 0 5.637zm-2.4-8.037-5.632 5.638L76.025 80.7a31.08 31.08 0 0 0 5.384-5.893zm-39.7-59.761a27.619 27.619 0 1 1-27.619 27.619 27.65 27.65 0 0 1 27.619-27.619z"/><path d="M56.172 79.354a22.219 22.219 0 1 0-22.217-22.218 22.244 22.244 0 0 0 22.217 22.218zm0-41.217a19 19 0 1 1-19 19 19.02 19.02 0 0 1 19-19z"/></svg>