<svg id="Layer_3" data-name="Layer 3" xmlns="http://www.w3.org/2000/svg" viewBox="0 0 128 128"><title>Artboard 99</title><path d="M63.369,106.42a1.616,1.616,0,0,0,1.261,0C111.686,86.4,100.712,32.15,100.6,31.6a1.609,1.609,0,0,0-1.178-1.225L64.4,21.5a1.609,1.609,0,0,0-.793,0L28.583,30.38A1.609,1.609,0,0,0,27.4,31.6C27.288,32.15,16.314,86.4,63.369,106.42Zm-33-73.17L64,24.724,97.634,33.25c1.319,7.386,7.415,51.992-33.634,69.934C22.951,85.242,29.047,40.636,30.366,33.25Z" style="fill:#231f20"/><path d="M63.369,95.728a1.617,1.617,0,0,0,1.261,0c36.282-15.434,27.824-57.239,27.735-57.66a1.609,1.609,0,0,0-1.178-1.225L64.4,30.052a1.609,1.609,0,0,0-.793,0L36.813,36.843a1.609,1.609,0,0,0-1.178,1.225C35.545,38.488,27.087,80.294,63.369,95.728ZM38.6,39.712,64,33.274l25.4,6.438C90.47,45.955,94.558,79.019,64,92.49,33.442,79.019,37.53,45.955,38.6,39.712Z" style="fill:#231f20"/><path d="M64,76.712A15.133,15.133,0,1,0,48.867,61.579,15.149,15.149,0,0,0,64,76.712Zm0-27.045A11.885,11.885,0,0,1,73.334,54.2a1.553,1.553,0,0,0-.278.153L61.606,64.071l-3.9-5.669a1.611,1.611,0,1,0-2.655,1.824l4.905,7.139a1.611,1.611,0,0,0,2.37.315L74.975,56.949A11.912,11.912,0,1,1,64,49.667Z" style="fill:#231f20"/></svg>