<svg xmlns="http://www.w3.org/2000/svg" data-name="Layer 3" viewBox="0 0 128 128"><path d="M107.158 32.615A14.335 14.335 0 1 0 121.5 46.952a14.351 14.351 0 0 0-14.342-14.337zm0 25.45a11.114 11.114 0 1 1 8.642-18.088 1.5 1.5 0 0 0-.183.1l-10.693 9.079-3.608-5.25a1.611 1.611 0 0 0-2.655 1.824l4.617 6.719a1.612 1.612 0 0 0 2.37.316l11.795-10.013a11.1 11.1 0 0 1-10.286 15.311zM91.8 61.446H23.474a16.97 16.97 0 0 0 0 33.939H91.8a16.97 16.97 0 0 0 0-33.939zm0 30.718H23.474a13.749 13.749 0 0 1 0-27.5H91.8a13.749 13.749 0 0 1 0 27.5z"/><path d="M36.99 76.805h-1.916l2.3-2.188a1.611 1.611 0 0 0-2.224-2.331l-2.483 2.367v-2.176a1.61 1.61 0 1 0-3.221 0v1.913l-2.189-2.29a1.611 1.611 0 1 0-2.331 2.224l2.367 2.483h-2.18a1.61 1.61 0 1 0 0 3.221h1.913l-2.292 2.182a1.611 1.611 0 0 0 2.224 2.331l2.483-2.367v2.18a1.61 1.61 0 0 0 3.221 0v-1.916l2.188 2.3a1.611 1.611 0 1 0 2.331-2.224l-2.367-2.483h2.176a1.61 1.61 0 1 0 0-3.221zM54.715 76.805H52.8l2.3-2.188a1.611 1.611 0 0 0-2.224-2.331l-2.483 2.367v-2.176a1.61 1.61 0 1 0-3.221 0v1.916l-2.188-2.3a1.611 1.611 0 1 0-2.331 2.224L45.02 76.8h-2.182a1.61 1.61 0 1 0 0 3.221h1.912l-2.291 2.189a1.611 1.611 0 0 0 2.224 2.331l2.483-2.367v2.18a1.61 1.61 0 0 0 3.221 0v-1.913l2.184 2.292a1.611 1.611 0 1 0 2.329-2.224l-2.367-2.483h2.18a1.61 1.61 0 1 0 0-3.221zM72.436 76.805H70.52l2.3-2.188a1.611 1.611 0 0 0-2.224-2.331l-2.483 2.367v-2.176a1.61 1.61 0 1 0-3.221 0v1.913L62.7 72.1a1.611 1.611 0 1 0-2.331 2.224l2.367 2.483h-2.18a1.61 1.61 0 0 0 0 3.221h1.913L60.18 82.21a1.611 1.611 0 0 0 2.22 2.331l2.483-2.367v2.18a1.61 1.61 0 0 0 3.221 0v-1.916l2.188 2.3a1.611 1.611 0 1 0 2.331-2.224l-2.367-2.483h2.177a1.61 1.61 0 0 0 0-3.221zM90.16 76.805h-1.916l2.3-2.188a1.611 1.611 0 1 0-2.224-2.331l-2.483 2.367v-2.176a1.61 1.61 0 1 0-3.221 0v1.916l-2.188-2.3a1.611 1.611 0 1 0-2.331 2.224l2.367 2.483h-2.181a1.61 1.61 0 0 0 0 3.221H80.2l-2.3 2.189a1.611 1.611 0 0 0 2.224 2.331l2.483-2.367v2.18a1.61 1.61 0 0 0 3.221 0v-1.913l2.184 2.292a1.611 1.611 0 1 0 2.331-2.224l-2.363-2.483h2.18a1.61 1.61 0 0 0 0-3.221z"/></svg>