<svg id="Layer_3" data-name="Layer 3" xmlns="http://www.w3.org/2000/svg" viewBox="0 0 128 128"><title>Artboard 97</title><path d="M56.172,87.975a30.662,30.662,0,0,0,17.27-5.3l16.92,16.921A7.207,7.207,0,1,0,100.555,89.4L99.3,88.145l0-.007-.007,0L83.169,72.013a30.829,30.829,0,1,0-27,15.962Zm42.1,9.34a4.08,4.08,0,0,1-5.637,0l-.122-.122,5.638-5.638.123.123a3.981,3.981,0,0,1,0,5.637Zm-2.4-8.037L90.24,94.916,76.025,80.7a31.08,31.08,0,0,0,5.384-5.893ZM56.172,29.517A27.619,27.619,0,1,1,28.553,57.136,27.65,27.65,0,0,1,56.172,29.517Z" style="fill:#231f20"/><path d="M56.172,79.354A22.219,22.219,0,1,0,33.955,57.136,22.244,22.244,0,0,0,56.172,79.354Zm0-41.217a19,19,0,1,1-19,19A19.02,19.02,0,0,1,56.172,38.137Z" style="fill:#231f20"/></svg>