<svg id="Layer_3" data-name="Layer 3" xmlns="http://www.w3.org/2000/svg" viewBox="0 0 128 128"><title>Artboard 108</title><path d="M32.9,85.073H65.87v9.661a6.091,6.091,0,0,0,6.085,6.083H90.3a6.09,6.09,0,0,0,6.083-6.083V84.993a11.048,11.048,0,0,0,9.76-10.956V38.219A11.049,11.049,0,0,0,95.105,27.183H32.9A11.049,11.049,0,0,0,21.859,38.219V74.037A11.049,11.049,0,0,0,32.9,85.073Zm60.264,9.661A2.865,2.865,0,0,1,90.3,97.6H71.955a2.866,2.866,0,0,1-2.864-2.862V77.554H93.159Zm-5.476-20.4H74.565v-6.11a6.572,6.572,0,0,1,13.118,0ZM25.08,43.6h77.84v5.5H25.08ZM32.9,30.4h62.21a7.823,7.823,0,0,1,7.815,7.815V40.38H25.08V38.219A7.823,7.823,0,0,1,32.9,30.4ZM25.08,52.318h77.84V74.037a7.809,7.809,0,0,1-6.539,7.686v-5.78a1.61,1.61,0,0,0-1.61-1.61H90.9v-6.11a9.789,9.789,0,0,0-19.56,0v6.11H67.48a1.61,1.61,0,0,0-1.61,1.61v5.909H32.9a7.824,7.824,0,0,1-7.815-7.815Z" style="fill:#231f20"/><path d="M33.131,75.648H58.815a1.61,1.61,0,0,0,0-3.221H33.131a1.61,1.61,0,0,0,0,3.221Z" style="fill:#231f20"/><path d="M81.125,79.7a5.175,5.175,0,0,0-1.61,10.1v3.592a1.61,1.61,0,1,0,3.221,0V89.8a5.175,5.175,0,0,0-1.61-10.1Zm0,7.159a1.969,1.969,0,1,1,1.969-1.969A1.971,1.971,0,0,1,81.125,86.861Z" style="fill:#231f20"/></svg>