<svg xmlns="http://www.w3.org/2000/svg" data-name="Layer 3" viewBox="0 0 128 128"><path d="M39.456 45.694H79.5a11.535 11.535 0 0 0 0-23.07H39.456a11.535 11.535 0 0 0 0 23.07zm0-19.849H79.5a8.314 8.314 0 0 1 0 16.628H39.456a8.314 8.314 0 0 1 0-16.628zM78.676 105.376H94.9a5.574 5.574 0 0 0 5.567-5.567V83.193a1.61 1.61 0 0 0-1.61-1.61h-3.236v-5.214a8.624 8.624 0 0 0-7.821-8.423 11.52 11.52 0 0 0-7.909-19.909H39.843a11.535 11.535 0 0 0 0 23.07h40.028A8.384 8.384 0 0 0 78.5 73.45H39.069a11.535 11.535 0 0 0 0 23.07h34.043v3.288a5.572 5.572 0 0 0 5.564 5.568zm18.567-5.567a2.349 2.349 0 0 1-2.346 2.347H78.676a2.347 2.347 0 0 1-2.343-2.347V84.8h20.911zM92.4 76.369v5.214H81.174v-5.214a5.625 5.625 0 0 1 11.226 0zm-60.87-16.8a8.322 8.322 0 0 1 8.313-8.313h40.048a8.314 8.314 0 0 1 0 16.628H39.843a8.324 8.324 0 0 1-8.313-8.313zM39.069 93.3a8.314 8.314 0 0 1 0-16.628h38.884v4.912h-3.23a1.61 1.61 0 0 0-1.61 1.61V93.3z"/><path d="M86.788 86.331a4.764 4.764 0 0 0-1.61 9.252v3.04a1.61 1.61 0 1 0 3.221 0v-3.04a4.764 4.764 0 0 0-1.611-9.252zm0 3.221a1.555 1.555 0 1 1-1.554 1.554 1.555 1.555 0 0 1 1.554-1.554z"/><circle cx="77.582" cy="34.158" r="3.653"/><circle cx="78.376" cy="59.573" r="3.653"/></svg>