<svg id="Layer_3" data-name="Layer 3" xmlns="http://www.w3.org/2000/svg" viewBox="0 0 128 128"><title>Artboard 107</title><path d="M39.456,45.694H79.5a11.535,11.535,0,0,0,0-23.07H39.456a11.535,11.535,0,0,0,0,23.07Zm0-19.849H79.5a8.314,8.314,0,0,1,0,16.628H39.456a8.314,8.314,0,0,1,0-16.628Z" style="fill:#231f20"/><path d="M78.676,105.376H94.9a5.574,5.574,0,0,0,5.567-5.567V83.193a1.61,1.61,0,0,0-1.61-1.61H95.621V76.369A8.624,8.624,0,0,0,87.8,67.946a11.52,11.52,0,0,0-7.909-19.909H39.843a11.535,11.535,0,0,0,0,23.07H79.871A8.384,8.384,0,0,0,78.5,73.45H39.069a11.535,11.535,0,0,0,0,23.07H73.112v3.288A5.572,5.572,0,0,0,78.676,105.376Zm18.567-5.567a2.349,2.349,0,0,1-2.346,2.347H78.676a2.347,2.347,0,0,1-2.343-2.347V84.8H97.244ZM92.4,76.369v5.214H81.174V76.369a5.625,5.625,0,0,1,11.226,0Zm-60.87-16.8a8.322,8.322,0,0,1,8.313-8.313H79.891a8.314,8.314,0,0,1,0,16.628H39.843A8.324,8.324,0,0,1,31.53,59.571ZM39.069,93.3a8.314,8.314,0,0,1,0-16.628H77.953v4.912h-3.23a1.61,1.61,0,0,0-1.61,1.61V93.3Z" style="fill:#231f20"/><path d="M86.788,86.331a4.764,4.764,0,0,0-1.61,9.252v3.04a1.61,1.61,0,1,0,3.221,0v-3.04a4.764,4.764,0,0,0-1.611-9.252Zm0,3.221a1.555,1.555,0,1,1-1.554,1.554A1.555,1.555,0,0,1,86.788,89.552Z" style="fill:#231f20"/><circle cx="77.582" cy="34.158" r="3.653" style="fill:#231f20"/><circle cx="78.376" cy="59.573" r="3.653" style="fill:#231f20"/></svg>