<svg id="Layer_3" data-name="Layer 3" xmlns="http://www.w3.org/2000/svg" viewBox="0 0 128 128"><title>Artboard 112</title><path d="M107.158,32.615A14.335,14.335,0,1,0,121.5,46.952,14.351,14.351,0,0,0,107.158,32.615Zm0,25.45A11.114,11.114,0,1,1,115.8,39.977a1.5,1.5,0,0,0-.183.1l-10.693,9.079-3.608-5.25a1.611,1.611,0,0,0-2.655,1.824l4.617,6.719a1.612,1.612,0,0,0,2.37.316l11.795-10.013a11.1,11.1,0,0,1-10.286,15.311Z" style="fill:#231f20"/><path d="M91.8,61.446H23.474a16.97,16.97,0,0,0,0,33.939H91.8a16.97,16.97,0,0,0,0-33.939Zm0,30.718H23.474a13.749,13.749,0,0,1,0-27.5H91.8a13.749,13.749,0,0,1,0,27.5Z" style="fill:#231f20"/><path d="M36.99,76.805H35.074l2.3-2.188a1.611,1.611,0,0,0-2.224-2.331l-2.483,2.367V72.477a1.61,1.61,0,1,0-3.221,0V74.39L27.257,72.1a1.611,1.611,0,1,0-2.331,2.224l2.367,2.483h-2.18a1.61,1.61,0,1,0,0,3.221h1.913L24.734,82.21a1.611,1.611,0,0,0,2.224,2.331l2.483-2.367v2.18a1.61,1.61,0,0,0,3.221,0V82.438l2.188,2.3a1.611,1.611,0,1,0,2.331-2.224l-2.367-2.483H36.99a1.61,1.61,0,1,0,0-3.221Z" style="fill:#231f20"/><path d="M54.715,76.805H52.8l2.3-2.188a1.611,1.611,0,0,0-2.224-2.331l-2.483,2.367V72.477a1.61,1.61,0,1,0-3.221,0v1.916l-2.188-2.3a1.611,1.611,0,1,0-2.331,2.224l2.367,2.483H42.838a1.61,1.61,0,1,0,0,3.221H44.75L42.459,82.21a1.611,1.611,0,0,0,2.224,2.331l2.483-2.367v2.18a1.61,1.61,0,0,0,3.221,0V82.441l2.184,2.292A1.611,1.611,0,1,0,54.9,82.509l-2.367-2.483h2.18a1.61,1.61,0,1,0,0-3.221Z" style="fill:#231f20"/><path d="M72.436,76.805H70.52l2.3-2.188a1.611,1.611,0,0,0-2.224-2.331l-2.483,2.367V72.477a1.61,1.61,0,1,0-3.221,0V74.39L62.7,72.1a1.611,1.611,0,1,0-2.331,2.224l2.367,2.483h-2.18a1.61,1.61,0,0,0,0,3.221h1.913L60.18,82.21A1.611,1.611,0,0,0,62.4,84.541l2.483-2.367v2.18a1.61,1.61,0,0,0,3.221,0V82.438l2.188,2.3a1.611,1.611,0,1,0,2.331-2.224l-2.367-2.483h2.177a1.61,1.61,0,0,0,0-3.221Z" style="fill:#231f20"/><path d="M90.16,76.805H88.244l2.3-2.188a1.611,1.611,0,1,0-2.224-2.331l-2.483,2.367V72.477a1.61,1.61,0,1,0-3.221,0v1.916l-2.188-2.3a1.611,1.611,0,1,0-2.331,2.224l2.367,2.483H78.283a1.61,1.61,0,0,0,0,3.221H80.2L77.9,82.21a1.611,1.611,0,0,0,2.224,2.331l2.483-2.367v2.18a1.61,1.61,0,0,0,3.221,0V82.441l2.184,2.292a1.611,1.611,0,1,0,2.331-2.224L87.98,80.026h2.18a1.61,1.61,0,0,0,0-3.221Z" style="fill:#231f20"/></svg>