<svg xmlns="http://www.w3.org/2000/svg" data-name="Layer 3" viewBox="0 0 128 128"><path d="M108.221 51.352 49.312 24.833a16.711 16.711 0 0 0-15.019 29.822 7.646 7.646 0 0 0 4.324 8.652l13.7 6.166a1.53 1.53 0 0 0-.137.18L47.434 79.4a7.153 7.153 0 0 0-8.675 5.427H22.05V69.849a1.61 1.61 0 1 0-3.221 0v33.184a1.61 1.61 0 0 0 3.221 0V88.05h16.709a7.228 7.228 0 1 0 11.563-7.22l4.751-9.768a1.53 1.53 0 0 0 .08-.31l13.978 6.293a7.625 7.625 0 0 0 9.284-2.445l10.146 4.567 5.931 2.67a1.611 1.611 0 0 0 2.129-.808l12.4-27.548a1.61 1.61 0 0 0-.807-2.129zM45.8 90.461a4.02 4.02 0 1 1 4.019-4.021 4.024 4.024 0 0 1-4.019 4.021zM78.448 71.08 37.934 52.842l11.079-24.61L99.5 50.958l-11.082 24.61zm-48.3-36.546a13.524 13.524 0 0 1 12.313-7.956 13.332 13.332 0 0 1 3.547.5L35.072 51.356a13.507 13.507 0 0 1-4.928-16.822zm40.306 39.572L39.94 60.369a4.407 4.407 0 0 1-2.6-4.262l38.026 17.118a4.427 4.427 0 0 1-4.912.881zm23.9 4.133-3-1.349 11.08-24.611 3 1.349z"/></svg>