<svg xmlns="http://www.w3.org/2000/svg" data-name="Layer 3" viewBox="0 0 128 128"><path d="M32.9 85.073h32.97v9.661a6.091 6.091 0 0 0 6.085 6.083H90.3a6.09 6.09 0 0 0 6.083-6.083v-9.741a11.048 11.048 0 0 0 9.76-10.956V38.219a11.049 11.049 0 0 0-11.038-11.036H32.9a11.049 11.049 0 0 0-11.041 11.036v35.818A11.049 11.049 0 0 0 32.9 85.073zm60.264 9.661A2.865 2.865 0 0 1 90.3 97.6H71.955a2.866 2.866 0 0 1-2.864-2.862V77.554h24.068zm-5.476-20.4H74.565v-6.11a6.572 6.572 0 0 1 13.118 0zM25.08 43.6h77.84v5.5H25.08zm7.82-13.2h62.21a7.823 7.823 0 0 1 7.815 7.815v2.165H25.08v-2.161A7.823 7.823 0 0 1 32.9 30.4zm-7.82 21.918h77.84v21.719a7.809 7.809 0 0 1-6.539 7.686v-5.78a1.61 1.61 0 0 0-1.61-1.61H90.9v-6.11a9.789 9.789 0 0 0-19.56 0v6.11h-3.86a1.61 1.61 0 0 0-1.61 1.61v5.909H32.9a7.824 7.824 0 0 1-7.815-7.815z"/><path d="M33.131 75.648h25.684a1.61 1.61 0 0 0 0-3.221H33.131a1.61 1.61 0 0 0 0 3.221zM81.125 79.7a5.175 5.175 0 0 0-1.61 10.1v3.592a1.61 1.61 0 1 0 3.221 0V89.8a5.175 5.175 0 0 0-1.61-10.1zm0 7.159a1.969 1.969 0 1 1 1.969-1.969 1.971 1.971 0 0 1-1.969 1.971z"/></svg>