<svg xmlns="http://www.w3.org/2000/svg" data-name="Layer 3" viewBox="0 0 128 128"><path d="M25.186 100.637l.007.009a8.585 8.585 0 0012.143 0l1.908-1.909 7.3 7.3a1.61 1.61 0 002.277 0l7.646-7.647a1.61 1.61 0 000-2.277l-7.3-7.3 2.716-2.713 7.3 7.3a1.658 1.658 0 002.277 0l7.646-7.647a1.61 1.61 0 000-2.277l-7.3-7.3 15.356-15.35A25.79 25.79 0 0090.26 64.8a14.987 14.987 0 0010.891-4.19C108.2 53.562 106.1 40 96.47 30.371c-5.558-5.56-12.781-8.88-19.322-8.88a15.025 15.025 0 00-10.915 4.2c-5.22 5.219-5.553 14.231-.942 22.72L25.2 88.508a8.577 8.577 0 00-.015 12.124zm2.288-9.852L68.437 49.82a1.608 1.608 0 00.244-1.964c-4.485-7.512-4.554-15.5-.17-19.888a11.883 11.883 0 018.637-3.256c5.706 0 12.077 2.967 17.045 7.937 8.37 8.371 10.469 19.892 4.68 25.682a11.842 11.842 0 01-8.614 3.246 23.056 23.056 0 01-12.432-4.142 1.608 1.608 0 00-2.03.2L58.39 75.04a1.61 1.61 0 000 2.277l7.3 7.3-5.369 5.37-7.3-7.3a1.61 1.61 0 00-2.277 0l-4.99 4.989a1.61 1.61 0 000 2.277l7.3 7.3-5.369 5.37-7.3-7.3a1.609 1.609 0 00-2.277 0l-3.046 3.048a5.5 5.5 0 01-6.223.939l50.372-49.424a14.5 14.5 0 008.96 3.8 6.483 6.483 0 004.715-1.8c3.295-3.295 1.936-9.816-3.094-14.846-3.064-3.061-6.852-4.889-10.134-4.889a6.482 6.482 0 00-4.713 1.8c-1.68 1.679-2.2 4.224-1.481 7.168a16.294 16.294 0 003.5 6.462L26.535 97.057a5.286 5.286 0 01.939-6.272zm52.841-44.26a13.7 13.7 0 01-3.724-6.172c-.258-1.046-.517-2.972.631-4.12a3.308 3.308 0 012.436-.852c2.411 0 5.423 1.512 7.857 3.946 3.944 3.944 4.8 8.589 3.093 10.291a3.312 3.312 0 01-2.438.852c-2.411 0-5.422-1.511-7.855-3.944z"/></svg>