<svg id="Layer_3" data-name="Layer 3" xmlns="http://www.w3.org/2000/svg" viewBox="0 0 128 128"><title>Artboard 111</title><path d="M92.68,22.739c-10.1,0-18.325,7.857-18.325,17.517V54.436H45.569A14.332,14.332,0,1,0,29.718,70.285V94.5a10.778,10.778,0,0,0,10.767,10.765H78.019A10.777,10.777,0,0,0,88.783,94.5V56.047a1.61,1.61,0,0,0-1.61-1.61h-9.6V40.255c0-7.882,6.775-14.3,15.1-14.3s15.1,6.414,15.1,14.3V56.047a1.61,1.61,0,1,0,3.221,0V40.255C111.005,30.6,102.784,22.739,92.68,22.739ZM20.216,56.047a11.106,11.106,0,0,1,19.756-6.973,1.54,1.54,0,0,0-.184.1L29.1,58.252,25.488,53a1.611,1.611,0,0,0-2.655,1.824l4.617,6.717a1.612,1.612,0,0,0,2.37.316L41.615,51.85a11.112,11.112,0,1,1-21.4,4.2ZM85.562,94.5a7.552,7.552,0,0,1-7.543,7.544H40.485A7.553,7.553,0,0,1,32.939,94.5V70.286a14.355,14.355,0,0,0,12.63-12.628H85.562Z" style="fill:#231f20"/><path d="M59.25,65.422a8.931,8.931,0,0,0-1.61,17.716V91.75a1.61,1.61,0,0,0,3.221,0V83.138a8.931,8.931,0,0,0-1.61-17.716Zm0,14.648a5.714,5.714,0,1,1,5.715-5.714A5.719,5.719,0,0,1,59.25,80.07Z" style="fill:#231f20"/></svg>