<svg xmlns="http://www.w3.org/2000/svg" data-name="Layer 1" viewBox="0 0 128 128"><path fill="#ede6f5" d="M81.242 97.778a2.4 2.4 0 00-2.4-2.4H76.5a2.4 2.4 0 00-2.4 2.4v1.3a3.23 3.23 0 01-3.717 3.193l-.068-.01a3.23 3.23 0 01-2.743-3.193v-1.29a2.4 2.4 0 00-2.4-2.4H62.83a2.4 2.4 0 00-2.4 2.4v1.289a3.23 3.23 0 01-2.743 3.193l-.068.01a3.23 3.23 0 01-3.719-3.193v-1.3a2.4 2.4 0 00-2.4-2.4h-2.34a2.4 2.4 0 00-2.4 2.4v1.27C46.757 102.771 45.634 109 64 109s17.243-6.23 17.243-9.954zM94.806 67.862a29.466 29.466 0 005.25-16.7C100.055 33.4 83.913 19 64 19S27.944 33.4 27.944 51.159a29.467 29.467 0 005.25 16.7 14.84 14.84 0 00-4.5 6.882c-.753 2.392.867 4.9 3.128 4.9h7.1a6.712 6.712 0 016.378 6.927v1.62a2.778 2.778 0 002.6 2.923h2.537a2.778 2.778 0 002.6-2.923v-1.581a3.659 3.659 0 014.03-3.886l.073.013a3.821 3.821 0 012.974 3.888v1.568a2.778 2.778 0 002.6 2.923h2.537a2.778 2.778 0 002.6-2.923v-1.57a3.82 3.82 0 012.974-3.887l.074-.013a3.658 3.658 0 014.03 3.886v1.583a2.778 2.778 0 002.6 2.923h2.537a2.778 2.778 0 002.6-2.923v-1.62a6.712 6.712 0 016.383-6.925h7.1c2.26 0 3.881-2.506 3.128-4.9a14.84 14.84 0 00-4.471-6.882z"/><path fill="#e0d3f2" d="M81.242 97.778a2.4 2.4 0 00-2.4-2.4H76.5a2.4 2.4 0 00-2.4 2.4v1.3a3.23 3.23 0 01-3.717 3.193l-.068-.01a3.23 3.23 0 01-2.743-3.193v-1.29a2.4 2.4 0 00-2.4-2.4H64V109c18.366 0 17.243-6.23 17.243-9.954zM65.268 91.112a2.778 2.778 0 002.6-2.923V86.62a3.82 3.82 0 012.974-3.887l.074-.013a3.658 3.658 0 014.03 3.886v1.583a2.778 2.778 0 002.6 2.923h2.537a2.778 2.778 0 002.6-2.923v-1.62a6.712 6.712 0 016.383-6.925h7.1c2.26 0 3.881-2.506 3.128-4.9a14.84 14.84 0 00-4.5-6.882 29.466 29.466 0 005.25-16.7C100.055 33.4 83.913 19 64 19v72.112z"/><circle cx="48.91" cy="50.917" r="9.682" fill="#cec1e7"/><circle cx="79.09" cy="50.917" r="9.682" fill="#cec1e7"/><path fill="#cec1e7" d="M69.408 68.277c0 2.987-2.421-.2-5.408-.2s-5.408 3.187-5.408.2S61.013 58.061 64 58.061s5.408 7.229 5.408 10.216z"/></svg>