<svg id="Layer_1" data-name="Layer 1" xmlns="http://www.w3.org/2000/svg" viewBox="0 0 128 128"><title>SKULL-8</title><path d="M64,109c-21.417,0-20.107-7.265-20.107-11.607V95.913a2.8,2.8,0,0,1,2.8-2.8h2.729a2.8,2.8,0,0,1,2.8,2.8v1.516a3.766,3.766,0,0,0,4.334,3.723l.079-.012a3.767,3.767,0,0,0,3.2-3.724v-1.5a2.8,2.8,0,0,1,2.8-2.8h2.729a2.8,2.8,0,0,1,2.8,2.8v1.5a3.767,3.767,0,0,0,3.2,3.724l.079.012a3.766,3.766,0,0,0,4.334-3.723V95.913a2.8,2.8,0,0,1,2.8-2.8h2.729a2.8,2.8,0,0,1,2.8,2.8v1.481C84.107,101.736,85.416,109,64,109Z" style="fill:#ede6f5"/><path d="M102.808,50.2c0-17.028-17.375-30.831-38.808-30.831S25.192,33.168,25.192,50.2c0,9.177,5.047,17.418,13.057,23.066a13.389,13.389,0,0,1,5.629,10.955V85.7a2.8,2.8,0,0,0,2.8,2.8h2.731a2.8,2.8,0,0,0,2.8-2.8V84.182a3.769,3.769,0,0,1,4.337-3.726l.079.012a3.77,3.77,0,0,1,3.2,3.727v1.5a2.8,2.8,0,0,0,2.8,2.8h2.731a2.8,2.8,0,0,0,2.8-2.8v-1.5a3.77,3.77,0,0,1,3.2-3.727l.079-.012a3.769,3.769,0,0,1,4.337,3.726V85.7a2.8,2.8,0,0,0,2.8,2.8H81.32a2.8,2.8,0,0,0,2.8-2.8V84.217a13.389,13.389,0,0,1,5.629-10.955C97.761,67.614,102.808,59.373,102.808,50.2Z" style="fill:#ede6f5"/><path d="M84.107,95.913a2.8,2.8,0,0,0-2.8-2.8H78.578a2.8,2.8,0,0,0-2.8,2.8v1.516a3.766,3.766,0,0,1-4.334,3.723l-.079-.012a3.767,3.767,0,0,1-3.2-3.724v-1.5a2.8,2.8,0,0,0-2.8-2.8H64V109c21.417,0,20.107-7.265,20.107-11.607Z" style="fill:#e0d3f2"/><path d="M65.365,88.5a2.8,2.8,0,0,0,2.8-2.8v-1.5a3.77,3.77,0,0,1,3.2-3.727l.079-.012a3.769,3.769,0,0,1,4.337,3.726V85.7a2.8,2.8,0,0,0,2.8,2.8H81.32a2.8,2.8,0,0,0,2.8-2.8V84.217a13.39,13.39,0,0,1,5.629-10.955c8.01-5.648,13.057-13.889,13.057-23.066,0-17.028-17.375-30.831-38.808-30.831V88.5Z" style="fill:#e0d3f2"/><circle cx="47.758" cy="49.477" r="10.421" style="fill:#cec1e7"/><circle cx="80.242" cy="49.477" r="10.421" style="fill:#cec1e7"/><path d="M69.821,68.163c0,3.215-2.606-.216-5.821-.216s-5.821,3.431-5.821.216,2.606-11,5.821-11S69.821,64.948,69.821,68.163Z" style="fill:#cec1e7"/></svg>