<svg xmlns="http://www.w3.org/2000/svg" data-name="Layer 1" viewBox="0 0 128 128"><path fill="#ede6f5" d="M109 59.668c0-19.744-20.147-35.75-45-35.75s-45 16.006-45 35.75c0 10.642 5.853 20.2 15.14 26.746a15.526 15.526 0 016.527 12.7v1.718a3.25 3.25 0 003.25 3.25h3.167a3.25 3.25 0 003.25-3.25v-1.756a4.37 4.37 0 015.029-4.32l.092.014a4.371 4.371 0 013.712 4.321v1.744a3.25 3.25 0 003.25 3.25h3.167a3.25 3.25 0 003.25-3.25v-1.744a4.371 4.371 0 013.712-4.321l.092-.014a4.37 4.37 0 015.029 4.32v1.759a3.25 3.25 0 003.25 3.25h3.167a3.25 3.25 0 003.25-3.25v-1.719a15.526 15.526 0 016.527-12.7C103.147 79.865 109 70.309 109 59.668z"/><path fill="#e0d3f2" d="M64 23.918v80.167h1.583a3.25 3.25 0 003.25-3.25v-1.744a4.371 4.371 0 013.712-4.321l.092-.014a4.37 4.37 0 015.029 4.32v1.759a3.25 3.25 0 003.25 3.25h3.167a3.25 3.25 0 003.25-3.25v-1.719a15.526 15.526 0 016.527-12.7c9.287-6.549 15.14-16.1 15.14-26.746 0-19.746-20.147-35.752-45-35.752z"/><circle cx="45.167" cy="58.834" r="12.083" fill="#cec1e7"/><circle cx="82.833" cy="58.834" r="12.083" fill="#cec1e7"/><path fill="#cec1e7" d="M70.75 80.5c0 3.728-3.022-.25-6.75-.25s-6.75 3.978-6.75.25S60.272 67.75 64 67.75s6.75 9.023 6.75 12.75z"/></svg>