<svg id="Layer_1" data-name="Layer 1" xmlns="http://www.w3.org/2000/svg" viewBox="0 0 128 128"><title>SKULL AND CROSSBONE-16</title><path d="M80.716,87.873,51.994,70.012a12.29,12.29,0,0,1-5.777-8.939c-.183-1.552-.675-3.024-1.774-3.707A6.005,6.005,0,0,0,35.978,65.3a6.005,6.005,0,0,0-3.377,11.1c1.1.683,2.636.474,4.11-.048a12.291,12.291,0,0,1,10.572,1.228L76.006,95.448a12.29,12.29,0,0,1,5.777,8.939c.183,1.553.675,3.024,1.774,3.707a6.005,6.005,0,0,0,8.465-7.939,6.005,6.005,0,0,0,3.377-11.1c-1.1-.683-2.636-.474-4.11.048A12.29,12.29,0,0,1,80.716,87.873Z" style="fill:#cec1e7"/><path d="M47.283,87.873,76.006,70.012a12.29,12.29,0,0,0,5.777-8.939c.183-1.552.675-3.024,1.774-3.707A6.005,6.005,0,0,1,92.022,65.3a6.005,6.005,0,0,1,3.377,11.1c-1.1.683-2.636.474-4.11-.048a12.291,12.291,0,0,0-10.572,1.228L51.994,95.448a12.29,12.29,0,0,0-5.777,8.939c-.183,1.553-.675,3.024-1.774,3.707a6.005,6.005,0,0,1-8.464-7.939,6.005,6.005,0,0,1-3.377-11.1c1.1-.683,2.636-.474,4.11.048A12.29,12.29,0,0,0,47.283,87.873Z" style="fill:#cec1e7"/><path d="M87.287,55.926A22.275,22.275,0,0,0,91.255,43.3c0-13.426-12.2-24.309-27.256-24.309S36.744,29.873,36.744,43.3a22.275,22.275,0,0,0,3.968,12.627,11.218,11.218,0,0,0-3.4,5.2,2.763,2.763,0,0,0,2.364,3.7h5.37a5.074,5.074,0,0,1,4.825,5.235v1.225a2.1,2.1,0,0,0,1.968,2.21h1.918a2.1,2.1,0,0,0,1.968-2.21V70.1a2.766,2.766,0,0,1,3.047-2.938l.055.009a2.889,2.889,0,0,1,2.248,2.939v1.185a2.1,2.1,0,0,0,1.968,2.21h1.918a2.1,2.1,0,0,0,1.968-2.21V70.105a2.888,2.888,0,0,1,2.248-2.938l.056-.01a2.765,2.765,0,0,1,3.046,2.937v1.2a2.1,2.1,0,0,0,1.968,2.21h1.918a2.1,2.1,0,0,0,1.968-2.21V70.066a5.074,5.074,0,0,1,4.825-5.235h5.37a2.763,2.763,0,0,0,2.364-3.7A11.218,11.218,0,0,0,87.287,55.926Z" style="fill:#ede6f5"/><path d="M63.953,19.034V73.639h.96a2.1,2.1,0,0,0,1.972-2.214V70.237a2.893,2.893,0,0,1,2.252-2.943l.056-.01a2.77,2.77,0,0,1,3.051,2.942v1.2a2.1,2.1,0,0,0,1.972,2.214h1.921a2.1,2.1,0,0,0,1.972-2.214V70.2a5.083,5.083,0,0,1,4.833-5.244h5.38a2.767,2.767,0,0,0,2.368-3.709,11.237,11.237,0,0,0-3.411-5.212,22.312,22.312,0,0,0,3.975-12.649C91.255,29.936,79.032,19.034,63.953,19.034Z" style="fill:#e0d3f2"/><circle cx="52.593" cy="43.116" r="7.319" style="fill:#cec1e7"/><circle cx="75.407" cy="43.116" r="7.319" style="fill:#cec1e7"/><path d="M68.088,56.239c0,2.258-1.83-.151-4.088-.151s-4.088,2.409-4.088.151,1.83-7.722,4.088-7.722S68.088,53.981,68.088,56.239Z" style="fill:#cec1e7"/></svg>