<svg id="Layer_1" data-name="Layer 1" xmlns="http://www.w3.org/2000/svg" viewBox="0 0 128 128"><title>SKULL-7</title><path d="M64,109c-19.555,0-18.36-6.634-18.36-10.6V97.051A2.557,2.557,0,0,1,48.2,94.493h2.492a2.557,2.557,0,0,1,2.557,2.557v1.384a3.439,3.439,0,0,0,3.957,3.4l.072-.011a3.439,3.439,0,0,0,2.921-3.4V97.051a2.557,2.557,0,0,1,2.557-2.557h2.492A2.557,2.557,0,0,1,67.8,97.051v1.372a3.439,3.439,0,0,0,2.921,3.4l.072.011a3.439,3.439,0,0,0,3.957-3.4V97.051a2.557,2.557,0,0,1,2.557-2.557H79.8a2.557,2.557,0,0,1,2.557,2.557V98.4C82.359,102.367,83.555,109,64,109Z" style="fill:#ede6f5"/><path d="M95.175,65.625a28.807,28.807,0,0,0,4.26-15.019C99.435,33.151,83.57,19,64,19s-35.435,14.15-35.435,31.6a28.807,28.807,0,0,0,4.26,15.019,7.073,7.073,0,0,0-2.193,5.208c0,3.723,2.688,6.741,6,6.741a5.778,5.778,0,0,0,4.7-2.557A14.5,14.5,0,0,1,45.626,85.48V87a2.73,2.73,0,0,0,2.559,2.873h2.494A2.73,2.73,0,0,0,53.238,87V85.444a3.6,3.6,0,0,1,3.96-3.819l.072.012a3.754,3.754,0,0,1,2.923,3.82V87a2.73,2.73,0,0,0,2.559,2.873h2.493A2.73,2.73,0,0,0,67.806,87V85.457a3.754,3.754,0,0,1,2.923-3.82l.072-.012a3.6,3.6,0,0,1,3.96,3.819V87a2.73,2.73,0,0,0,2.559,2.873h2.494A2.73,2.73,0,0,0,82.374,87V85.48a14.5,14.5,0,0,1,4.288-10.463,5.778,5.778,0,0,0,4.7,2.557c3.316,0,6-3.018,6-6.741A7.073,7.073,0,0,0,95.175,65.625Z" style="fill:#ede6f5"/><path d="M82.359,97.051A2.557,2.557,0,0,0,79.8,94.493H77.31a2.557,2.557,0,0,0-2.557,2.557v1.384a3.439,3.439,0,0,1-3.957,3.4l-.072-.011a3.439,3.439,0,0,1-2.921-3.4V97.051a2.557,2.557,0,0,0-2.557-2.557H64V109c19.555,0,18.36-6.634,18.36-10.6Z" style="fill:#e0d3f2"/><path d="M65.247,89.872A2.73,2.73,0,0,0,67.806,87V85.457a3.754,3.754,0,0,1,2.923-3.82l.072-.012a3.6,3.6,0,0,1,3.96,3.819V87a2.73,2.73,0,0,0,2.559,2.873h2.494A2.73,2.73,0,0,0,82.374,87V85.48a14.5,14.5,0,0,1,4.288-10.463,5.778,5.778,0,0,0,4.7,2.557c3.316,0,6-3.018,6-6.741a7.073,7.073,0,0,0-2.193-5.208,28.807,28.807,0,0,0,4.26-15.019C99.435,33.151,83.57,19,64,19V89.872Z" style="fill:#e0d3f2"/><circle cx="49.17" cy="50.368" r="9.515" style="fill:#cec1e7"/><circle cx="78.83" cy="50.368" r="9.515" style="fill:#cec1e7"/><path d="M69.315,67.429c0,2.936-2.38-.2-5.315-.2s-5.315,3.132-5.315.2,2.38-10.04,5.315-10.04S69.315,64.494,69.315,67.429Z" style="fill:#cec1e7"/></svg>