<svg id="Layer_1" data-name="Layer 1" xmlns="http://www.w3.org/2000/svg" viewBox="0 0 128 128"><title>SKULL-6</title><path d="M64,109c-20.671,0-19.407-7.012-19.407-11.2V96.369a2.7,2.7,0,0,1,2.7-2.7H49.93a2.7,2.7,0,0,1,2.7,2.7v1.463a3.635,3.635,0,0,0,4.183,3.593l.076-.012a3.636,3.636,0,0,0,3.087-3.594v-1.45a2.7,2.7,0,0,1,2.7-2.7h2.634a2.7,2.7,0,0,1,2.7,2.7v1.45a3.636,3.636,0,0,0,3.087,3.594l.076.012a3.635,3.635,0,0,0,4.183-3.593V96.369a2.7,2.7,0,0,1,2.7-2.7H80.7a2.7,2.7,0,0,1,2.7,2.7V97.8C83.407,101.989,84.671,109,64,109Z" style="fill:#ede6f5"/><path d="M101.517,69.209a8.964,8.964,0,0,0-3.962-2.334,26.678,26.678,0,0,0,5.922-16.511C103.478,33.043,85.8,19,64,19S24.522,33.043,24.522,50.364a26.677,26.677,0,0,0,5.922,16.511,8.964,8.964,0,0,0-3.962,2.334c-3.069,3.069-3.489,7.625-.938,10.176s7.107,2.131,10.176-.938A8.88,8.88,0,0,0,38.144,74.1,13.618,13.618,0,0,1,43.53,84.972v1.507a2.851,2.851,0,0,0,2.851,2.851h2.778a2.851,2.851,0,0,0,2.851-2.851V84.937a3.834,3.834,0,0,1,4.412-3.79l.081.012A3.835,3.835,0,0,1,59.76,84.95v1.53a2.851,2.851,0,0,0,2.851,2.851h2.778a2.851,2.851,0,0,0,2.851-2.851V84.95A3.835,3.835,0,0,1,71.5,81.159l.081-.012a3.834,3.834,0,0,1,4.412,3.79v1.543a2.851,2.851,0,0,0,2.851,2.851h2.778a2.851,2.851,0,0,0,2.851-2.851V84.972A13.618,13.618,0,0,1,89.856,74.1a8.881,8.881,0,0,0,2.423,4.347c3.069,3.069,7.625,3.489,10.176.938S104.587,72.279,101.517,69.209Z" style="fill:#ede6f5"/><path d="M83.407,96.369a2.7,2.7,0,0,0-2.7-2.7H78.07a2.7,2.7,0,0,0-2.7,2.7v1.463a3.635,3.635,0,0,1-4.183,3.593l-.076-.012a3.636,3.636,0,0,1-3.087-3.594v-1.45a2.7,2.7,0,0,0-2.7-2.7H64V109c20.671,0,19.407-7.012,19.407-11.2Z" style="fill:#e0d3f2"/><path d="M65.389,89.331a2.851,2.851,0,0,0,2.851-2.851V84.95A3.835,3.835,0,0,1,71.5,81.159l.081-.012a3.834,3.834,0,0,1,4.412,3.79v1.543a2.851,2.851,0,0,0,2.851,2.851h2.778a2.851,2.851,0,0,0,2.851-2.851V84.972A13.618,13.618,0,0,1,89.856,74.1a8.881,8.881,0,0,0,2.424,4.347c3.069,3.069,7.625,3.489,10.176.938s2.131-7.107-.938-10.176a8.964,8.964,0,0,0-3.962-2.334,26.678,26.678,0,0,0,5.922-16.511C103.478,33.043,85.8,19,64,19v70.33Z" style="fill:#e0d3f2"/><circle cx="47.207" cy="49.559" r="10.774" style="fill:#cec1e7"/><circle cx="80.793" cy="49.559" r="10.774" style="fill:#cec1e7"/><path d="M70.019,68.878c0,3.324-2.695-.223-6.019-.223s-6.019,3.547-6.019.223S60.676,57.51,64,57.51,70.019,65.554,70.019,68.878Z" style="fill:#cec1e7"/></svg>