<svg id="Layer_1" data-name="Layer 1" xmlns="http://www.w3.org/2000/svg" viewBox="0 0 128 128"><title>SKULL AND CROSSBONE-14</title><path d="M80.716,87.873,51.994,70.012a12.29,12.29,0,0,1-5.777-8.939c-.183-1.552-.675-3.024-1.774-3.707A6.005,6.005,0,0,0,35.978,65.3a6.005,6.005,0,0,0-3.377,11.1c1.1.683,2.636.474,4.11-.048a12.291,12.291,0,0,1,10.572,1.228L76.006,95.448a12.29,12.29,0,0,1,5.777,8.939c.183,1.553.675,3.024,1.774,3.707a6.005,6.005,0,0,0,8.465-7.939,6.005,6.005,0,0,0,3.377-11.1c-1.1-.683-2.636-.474-4.11.048A12.29,12.29,0,0,1,80.716,87.873Z" style="fill:#cec1e7"/><path d="M47.283,87.873,76.006,70.012a12.29,12.29,0,0,0,5.777-8.939c.183-1.552.675-3.024,1.774-3.707A6.005,6.005,0,0,1,92.022,65.3a6.005,6.005,0,0,1,3.377,11.1c-1.1.683-2.636.474-4.11-.048a12.291,12.291,0,0,0-10.572,1.228L51.994,95.448a12.29,12.29,0,0,0-5.777,8.939c-.183,1.553-.675,3.024-1.774,3.707a6.005,6.005,0,0,1-8.464-7.939,6.005,6.005,0,0,1-3.377-11.1c1.1-.683,2.636-.474,4.11.048A12.29,12.29,0,0,0,47.283,87.873Z" style="fill:#cec1e7"/><path d="M88.018,54.821A22.193,22.193,0,0,0,91.3,43.25C91.3,29.8,79.077,18.9,64,18.9S36.7,29.8,36.7,43.25a22.194,22.194,0,0,0,3.282,11.571,5.449,5.449,0,0,0-1.689,4.012,4.934,4.934,0,0,0,4.626,5.193,4.452,4.452,0,0,0,3.623-1.97,11.169,11.169,0,0,1,3.3,8.061v1.17A2.1,2.1,0,0,0,51.816,73.5h1.921a2.1,2.1,0,0,0,1.972-2.214v-1.2a2.77,2.77,0,0,1,3.051-2.942l.056.01A2.893,2.893,0,0,1,61.068,70.1v1.188A2.1,2.1,0,0,0,63.039,73.5H64.96a2.1,2.1,0,0,0,1.972-2.214V70.1a2.893,2.893,0,0,1,2.252-2.943l.056-.01a2.77,2.77,0,0,1,3.051,2.942v1.2A2.1,2.1,0,0,0,74.262,73.5h1.921a2.1,2.1,0,0,0,1.972-2.214v-1.17a11.169,11.169,0,0,1,3.3-8.061,4.452,4.452,0,0,0,3.623,1.97,4.934,4.934,0,0,0,4.626-5.193A5.449,5.449,0,0,0,88.018,54.821Z" style="fill:#ede6f5"/><path d="M63.983,18.913V73.546h.961a2.1,2.1,0,0,0,1.973-2.215V70.143A2.894,2.894,0,0,1,69.17,67.2l.056-.01a2.772,2.772,0,0,1,3.053,2.944v1.2a2.1,2.1,0,0,0,1.973,2.215h1.922a2.1,2.1,0,0,0,1.973-2.215V70.16a11.176,11.176,0,0,1,3.305-8.066,4.455,4.455,0,0,0,3.625,1.971,4.937,4.937,0,0,0,4.629-5.2,5.453,5.453,0,0,0-1.69-4.015A22.207,22.207,0,0,0,91.3,43.276C91.3,29.821,79.069,18.913,63.983,18.913Z" style="fill:#e0d3f2"/><circle cx="52.574" cy="43.067" r="7.33" style="fill:#cec1e7"/><circle cx="75.425" cy="43.067" r="7.33" style="fill:#cec1e7"/><path d="M68.095,56.211c0,2.261-1.833-.152-4.095-.152s-4.095,2.413-4.095.152S61.738,48.476,64,48.476,68.095,53.95,68.095,56.211Z" style="fill:#cec1e7"/></svg>