<svg id="Layer_1" data-name="Layer 1" xmlns="http://www.w3.org/2000/svg" viewBox="0 0 128 128"><title>SKULL AND CROSSBONE-15</title><path d="M80.716,87.873,51.994,70.012a12.29,12.29,0,0,1-5.777-8.939c-.183-1.552-.675-3.024-1.774-3.707A6.005,6.005,0,0,0,35.978,65.3a6.005,6.005,0,0,0-3.377,11.1c1.1.683,2.636.474,4.11-.048a12.291,12.291,0,0,1,10.572,1.228L76.006,95.448a12.29,12.29,0,0,1,5.777,8.939c.183,1.553.675,3.024,1.774,3.707a6.005,6.005,0,0,0,8.465-7.939,6.005,6.005,0,0,0,3.377-11.1c-1.1-.683-2.636-.474-4.11.048A12.29,12.29,0,0,1,80.716,87.873Z" style="fill:#cec1e7"/><path d="M47.283,87.873,76.006,70.012a12.29,12.29,0,0,0,5.777-8.939c.183-1.552.675-3.024,1.774-3.707A6.005,6.005,0,0,1,92.022,65.3a6.005,6.005,0,0,1,3.377,11.1c-1.1.683-2.636.474-4.11-.048a12.291,12.291,0,0,0-10.572,1.228L51.994,95.448a12.29,12.29,0,0,0-5.777,8.939c-.183,1.553-.675,3.024-1.774,3.707a6.005,6.005,0,0,1-8.464-7.939,6.005,6.005,0,0,1-3.377-11.1c1.1-.683,2.636-.474,4.11.048A12.29,12.29,0,0,0,47.283,87.873Z" style="fill:#cec1e7"/><path d="M92.1,56.638a6.713,6.713,0,0,0-2.967-1.748,19.98,19.98,0,0,0,4.436-12.366c0-12.973-13.238-23.49-29.568-23.49S34.432,29.55,34.432,42.524A19.98,19.98,0,0,0,38.868,54.89,6.713,6.713,0,0,0,35.9,56.638c-2.3,2.3-2.613,5.711-.7,7.622s5.323,1.6,7.622-.7A6.652,6.652,0,0,0,44.635,60.3a10.2,10.2,0,0,1,4.034,8.142v1.129A2.135,2.135,0,0,0,50.8,71.708h2.081a2.135,2.135,0,0,0,2.135-2.136V68.417a2.871,2.871,0,0,1,3.3-2.839l.06.009a2.872,2.872,0,0,1,2.439,2.839v1.146a2.135,2.135,0,0,0,2.135,2.136H65.04a2.135,2.135,0,0,0,2.135-2.136V68.427a2.872,2.872,0,0,1,2.439-2.839l.061-.009a2.871,2.871,0,0,1,3.3,2.839v1.156a2.136,2.136,0,0,0,2.135,2.136H77.2a2.135,2.135,0,0,0,2.135-2.136V68.444A10.2,10.2,0,0,1,83.365,60.3a6.652,6.652,0,0,0,1.815,3.255c2.3,2.3,5.711,2.613,7.622.7S94.4,58.937,92.1,56.638Z" style="fill:#ede6f5"/><path d="M89.132,54.89a19.98,19.98,0,0,0,4.436-12.366c0-12.973-13.238-23.49-29.567-23.49V71.708h1.04a2.135,2.135,0,0,0,2.135-2.136V68.426a2.872,2.872,0,0,1,2.439-2.839l.06-.009a2.872,2.872,0,0,1,3.3,2.839v1.155a2.135,2.135,0,0,0,2.135,2.136H77.2a2.135,2.135,0,0,0,2.135-2.136V68.443A10.2,10.2,0,0,1,83.365,60.3a6.651,6.651,0,0,0,1.815,3.255c2.3,2.3,5.711,2.614,7.622.7s1.6-5.323-.7-7.622A6.714,6.714,0,0,0,89.132,54.89Z" style="fill:#e0d3f2"/><circle cx="51.422" cy="41.92" r="8.07" style="fill:#cec1e7"/><circle cx="76.577" cy="41.92" r="8.07" style="fill:#cec1e7"/><path d="M68.508,56.39c0,2.49-2.018-.167-4.508-.167s-4.508,2.657-4.508.167S61.51,47.875,64,47.875,68.508,53.9,68.508,56.39Z" style="fill:#cec1e7"/></svg>