<svg xmlns="http://www.w3.org/2000/svg" data-name="Layer 1" viewBox="0 0 128 128"><path fill="#cec1e7" d="M89.269 81.085 46.916 38.732a15.95 15.95 0 0 1-4.667-13c.226-2.016.037-4.021-1.15-5.208a7.793 7.793 0 0 0-13.037 7.539 7.793 7.793 0 0 0-7.54 13.037c1.187 1.187 3.192 1.376 5.208 1.15a15.95 15.95 0 0 1 13 4.668L81.083 89.27a15.95 15.95 0 0 1 4.667 13c-.226 2.016-.038 4.021 1.15 5.208a7.793 7.793 0 0 0 13.037-7.539 7.793 7.793 0 0 0 7.541-13.039c-1.187-1.187-3.192-1.376-5.208-1.15a15.95 15.95 0 0 1-13.001-4.665z"/><path fill="#cec1e7" d="m38.731 81.085 42.352-42.353a15.95 15.95 0 0 0 4.667-13c-.226-2.016-.038-4.021 1.15-5.208a7.793 7.793 0 0 1 13.037 7.539 7.793 7.793 0 0 1 7.541 13.037c-1.187 1.187-3.192 1.376-5.208 1.15a15.95 15.95 0 0 0-13 4.668L46.916 89.27a15.95 15.95 0 0 0-4.667 13c.226 2.016.037 4.021-1.15 5.208a7.793 7.793 0 0 1-13.037-7.539 7.793 7.793 0 0 1-7.54-13.039c1.187-1.187 3.192-1.376 5.208-1.15a15.95 15.95 0 0 0 13.001-4.665z"/><path fill="#ede6f5" d="M90.486 75.011A25.335 25.335 0 0 0 95 60.65C95 45.38 81.121 33 64 33S33 45.38 33 60.65a25.335 25.335 0 0 0 4.513 14.362 12.759 12.759 0 0 0-3.873 5.917 3.142 3.142 0 0 0 2.69 4.211h6.108a5.771 5.771 0 0 1 5.488 5.954v1.393A2.388 2.388 0 0 0 50.165 95h2.181a2.388 2.388 0 0 0 2.239-2.514v-1.36a3.146 3.146 0 0 1 3.465-3.341l.063.011a3.285 3.285 0 0 1 2.557 3.343v1.348A2.388 2.388 0 0 0 62.909 95h2.181a2.388 2.388 0 0 0 2.239-2.514v-1.347a3.284 3.284 0 0 1 2.557-3.339l.064-.011a3.145 3.145 0 0 1 3.465 3.341v1.361A2.388 2.388 0 0 0 75.654 95h2.181a2.388 2.388 0 0 0 2.239-2.514v-1.391a5.771 5.771 0 0 1 5.488-5.954h6.108a3.142 3.142 0 0 0 2.689-4.212 12.759 12.759 0 0 0-3.873-5.918z"/><path fill="#e0d3f2" d="M64 33v62h1.091a2.388 2.388 0 0 0 2.239-2.514v-1.347a3.285 3.285 0 0 1 2.556-3.339l.064-.011a3.145 3.145 0 0 1 3.465 3.341v1.361A2.388 2.388 0 0 0 75.654 95h2.181a2.388 2.388 0 0 0 2.239-2.514v-1.391a5.771 5.771 0 0 1 5.488-5.954h6.108a3.142 3.142 0 0 0 2.689-4.212 12.759 12.759 0 0 0-3.873-5.918A25.334 25.334 0 0 0 95 60.65C95 45.38 81.121 33 64 33z"/><circle cx="51.026" cy="60.442" r="8.324" fill="#cec1e7"/><circle cx="76.974" cy="60.442" r="8.324" fill="#cec1e7"/><path fill="#cec1e7" d="M68.65 75.368c0 2.568-2.082-.172-4.65-.172s-4.65 2.74-4.65.172 2.082-8.783 4.65-8.783 4.65 6.215 4.65 8.783z"/></svg>