<svg id="Layer_1" data-name="Layer 1" xmlns="http://www.w3.org/2000/svg" viewBox="0 0 128 128"><title>SKULL-4</title><path d="M102.448,79.984A36.776,36.776,0,0,0,109,59.136C109,36.97,88.853,19,64,19S19,36.97,19,59.136a36.776,36.776,0,0,0,6.552,20.847,18.521,18.521,0,0,0-5.622,8.59c-.94,2.986,1.083,6.114,3.9,6.114H32.7c4.3,0,7.943,3.82,7.966,8.643v2.022A3.467,3.467,0,0,0,43.916,109h3.167a3.467,3.467,0,0,0,3.25-3.649v-1.974c0-3,2.384-5.3,5.03-4.85l.091.016a4.769,4.769,0,0,1,3.712,4.852v1.957A3.467,3.467,0,0,0,62.416,109h3.167a3.467,3.467,0,0,0,3.25-3.649v-1.958a4.768,4.768,0,0,1,3.711-4.851l.093-.016c2.645-.454,5.029,1.845,5.029,4.849v1.975A3.467,3.467,0,0,0,80.916,109h3.167a3.467,3.467,0,0,0,3.25-3.649V103.33c.023-4.823,3.67-8.643,7.966-8.643h8.867c2.821,0,4.844-3.128,3.9-6.114A18.521,18.521,0,0,0,102.448,79.984Z" style="fill:#ede6f5"/><path d="M64,19v90h1.583a3.467,3.467,0,0,0,3.25-3.649v-1.958a4.768,4.768,0,0,1,3.711-4.851l.093-.016c2.646-.454,5.029,1.845,5.029,4.849v1.975A3.467,3.467,0,0,0,80.916,109h3.167a3.467,3.467,0,0,0,3.25-3.649V103.33c.023-4.823,3.67-8.643,7.966-8.643h8.867c2.821,0,4.844-3.128,3.9-6.114a18.521,18.521,0,0,0-5.622-8.59A36.776,36.776,0,0,0,109,59.136C109,36.97,88.853,19,64,19Z" style="fill:#e0d3f2"/><circle cx="45.166" cy="58.834" r="12.083" style="fill:#cec1e7"/><circle cx="82.833" cy="58.834" r="12.083" style="fill:#cec1e7"/><path d="M70.75,80.5c0,3.728-3.022-.25-6.75-.25s-6.75,3.978-6.75.25,3.022-12.75,6.75-12.75S70.75,76.773,70.75,80.5Z" style="fill:#cec1e7"/></svg>