<svg xmlns="http://www.w3.org/2000/svg" data-name="Layer 1" viewBox="0 0 128 128"><path fill="#ede6f5" d="M102.448 79.984A36.776 36.776 0 00109 59.136C109 36.97 88.853 19 64 19S19 36.97 19 59.136a36.776 36.776 0 006.552 20.847 18.521 18.521 0 00-5.622 8.59c-.94 2.986 1.083 6.114 3.9 6.114h8.87c4.3 0 7.943 3.82 7.966 8.643v2.022a3.467 3.467 0 003.25 3.648h3.167a3.467 3.467 0 003.25-3.649v-1.974c0-3 2.384-5.3 5.03-4.85l.091.016a4.769 4.769 0 013.712 4.852v1.957a3.467 3.467 0 003.25 3.648h3.167a3.467 3.467 0 003.25-3.649v-1.958a4.768 4.768 0 013.711-4.851l.093-.016c2.645-.454 5.029 1.845 5.029 4.849v1.975a3.467 3.467 0 003.25 3.65h3.167a3.467 3.467 0 003.25-3.649v-2.021c.023-4.823 3.67-8.643 7.966-8.643h8.867c2.821 0 4.844-3.128 3.9-6.114a18.521 18.521 0 00-5.618-8.589z"/><path fill="#e0d3f2" d="M64 19v90h1.583a3.467 3.467 0 003.25-3.649v-1.958a4.768 4.768 0 013.711-4.851l.093-.016c2.646-.454 5.029 1.845 5.029 4.849v1.975a3.467 3.467 0 003.25 3.65h3.167a3.467 3.467 0 003.25-3.649v-2.021c.023-4.823 3.67-8.643 7.966-8.643h8.867c2.821 0 4.844-3.128 3.9-6.114a18.521 18.521 0 00-5.622-8.59A36.776 36.776 0 00109 59.136C109 36.97 88.853 19 64 19z"/><circle cx="45.166" cy="58.834" r="12.083" fill="#cec1e7"/><circle cx="82.833" cy="58.834" r="12.083" fill="#cec1e7"/><path fill="#cec1e7" d="M70.75 80.5c0 3.728-3.022-.25-6.75-.25s-6.75 3.978-6.75.25S60.272 67.75 64 67.75s6.75 9.023 6.75 12.75z"/></svg>