<svg id="Layer_1" data-name="Layer 1" xmlns="http://www.w3.org/2000/svg" viewBox="0 0 128 128"><title>SKULL AND CROSSBONE-9</title><path d="M89.269,81.085,46.916,38.732a15.95,15.95,0,0,1-4.667-13c.226-2.016.037-4.021-1.15-5.208a7.793,7.793,0,0,0-13.038,7.539A7.793,7.793,0,0,0,20.522,41.1c1.187,1.187,3.192,1.376,5.208,1.15a15.95,15.95,0,0,1,13,4.668L81.083,89.27a15.95,15.95,0,0,1,4.668,13c-.226,2.016-.038,4.021,1.15,5.208a7.793,7.793,0,0,0,13.037-7.539A7.793,7.793,0,0,0,107.478,86.9c-1.187-1.187-3.192-1.376-5.208-1.15A15.95,15.95,0,0,1,89.269,81.085Z" style="fill:#cec1e7"/><path d="M38.731,81.085,81.083,38.732a15.95,15.95,0,0,0,4.668-13c-.226-2.016-.038-4.021,1.15-5.208a7.793,7.793,0,0,1,13.037,7.539A7.793,7.793,0,0,1,107.478,41.1c-1.187,1.187-3.192,1.376-5.208,1.15a15.95,15.95,0,0,0-13,4.668L46.916,89.27a15.95,15.95,0,0,0-4.667,13c.226,2.016.037,4.021-1.15,5.208a7.793,7.793,0,0,1-13.038-7.539A7.793,7.793,0,0,1,20.522,86.9c1.187-1.187,3.192-1.376,5.208-1.15A15.95,15.95,0,0,0,38.731,81.085Z" style="fill:#cec1e7"/><path d="M94.917,61.024c0-13.565-13.842-24.562-30.917-24.562s-30.917,11-30.917,24.562c0,7.311,4.021,13.876,10.4,18.375a10.667,10.667,0,0,1,4.484,8.727v1.18A2.233,2.233,0,0,0,50.2,91.54h2.176a2.233,2.233,0,0,0,2.233-2.233V88.1a3,3,0,0,1,3.455-2.968l.063.01a3,3,0,0,1,2.55,2.969v1.2a2.233,2.233,0,0,0,2.233,2.233h2.176a2.233,2.233,0,0,0,2.233-2.233v-1.2a3,3,0,0,1,2.55-2.969l.063-.01A3,3,0,0,1,73.389,88.1v1.208a2.233,2.233,0,0,0,2.233,2.233H77.8a2.233,2.233,0,0,0,2.233-2.233v-1.18A10.667,10.667,0,0,1,84.515,79.4C90.9,74.9,94.917,68.335,94.917,61.024Z" style="fill:#ede6f5"/><path d="M64,36.462V91.54h1.088a2.233,2.233,0,0,0,2.233-2.233v-1.2a3,3,0,0,1,2.55-2.969l.063-.01A3,3,0,0,1,73.389,88.1v1.208a2.233,2.233,0,0,0,2.233,2.233H77.8a2.233,2.233,0,0,0,2.233-2.233v-1.18A10.667,10.667,0,0,1,84.515,79.4c6.381-4.5,10.4-11.064,10.4-18.375C94.917,47.459,81.075,36.462,64,36.462Z" style="fill:#e0d3f2"/><circle cx="51.061" cy="60.451" r="8.302" style="fill:#cec1e7"/><circle cx="76.939" cy="60.451" r="8.302" style="fill:#cec1e7"/><path d="M68.637,75.337c0,2.561-2.076-.172-4.637-.172s-4.638,2.733-4.638.172,2.076-8.76,4.638-8.76S68.637,72.776,68.637,75.337Z" style="fill:#cec1e7"/></svg>