<svg xmlns="http://www.w3.org/2000/svg" data-name="Layer 1" viewBox="0 0 128 128"><path fill="#ede6f5" d="M103.59 78.21A36.582 36.582 0 0 0 109 59.136C109 36.97 88.853 19 64 19S19 36.97 19 59.136a36.582 36.582 0 0 0 5.409 19.074 8.982 8.982 0 0 0-2.784 6.614c0 4.728 3.414 8.56 7.625 8.56a7.338 7.338 0 0 0 5.972-3.247 18.41 18.41 0 0 1 5.445 13.287v1.929A3.467 3.467 0 0 0 43.916 109h3.167a3.467 3.467 0 0 0 3.25-3.649v-1.974c0-3 2.384-5.3 5.029-4.85l.092.016a4.768 4.768 0 0 1 3.712 4.851v1.958a3.467 3.467 0 0 0 3.25 3.648h3.167a3.467 3.467 0 0 0 3.25-3.649v-1.958a4.768 4.768 0 0 1 3.712-4.851l.092-.016c2.646-.453 5.029 1.846 5.029 4.85v1.974a3.467 3.467 0 0 0 3.25 3.65h3.167a3.467 3.467 0 0 0 3.25-3.649v-1.929a18.41 18.41 0 0 1 5.445-13.287 7.338 7.338 0 0 0 5.972 3.247c4.211 0 7.625-3.832 7.625-8.56a8.982 8.982 0 0 0-2.785-6.612z"/><path fill="#e0d3f2" d="M64 19v90h1.583a3.467 3.467 0 0 0 3.25-3.649v-1.958a4.768 4.768 0 0 1 3.712-4.851l.092-.016c2.646-.453 5.029 1.846 5.029 4.85v1.974a3.467 3.467 0 0 0 3.25 3.65h3.167a3.467 3.467 0 0 0 3.25-3.649v-1.929a18.411 18.411 0 0 1 5.445-13.287 7.338 7.338 0 0 0 5.972 3.247c4.211 0 7.625-3.832 7.625-8.56a8.983 8.983 0 0 0-2.784-6.614A36.584 36.584 0 0 0 109 59.136C109 36.97 88.853 19 64 19z"/><circle cx="45.166" cy="58.834" r="12.083" fill="#cec1e7"/><circle cx="82.833" cy="58.834" r="12.083" fill="#cec1e7"/><path fill="#cec1e7" d="M70.75 80.5c0 3.728-3.022-.25-6.75-.25s-6.75 3.978-6.75.25S60.272 67.75 64 67.75s6.75 9.023 6.75 12.75z"/></svg>