<svg xmlns="http://www.w3.org/2000/svg" data-name="Layer 1" viewBox="0 0 128 128"><path fill="#cec1e7" d="M80.716 87.873 51.994 70.012a12.29 12.29 0 0 1-5.777-8.939c-.183-1.552-.675-3.024-1.774-3.707a6.005 6.005 0 0 0-8.465 7.934 6.005 6.005 0 0 0-3.377 11.1c1.1.683 2.636.474 4.11-.048a12.291 12.291 0 0 1 10.572 1.228l28.723 17.868a12.29 12.29 0 0 1 5.777 8.939c.183 1.553.675 3.024 1.774 3.707a6.005 6.005 0 0 0 8.465-7.939 6.005 6.005 0 0 0 3.377-11.1c-1.1-.683-2.636-.474-4.11.048a12.29 12.29 0 0 1-10.573-1.23z"/><path fill="#cec1e7" d="m47.283 87.873 28.723-17.861a12.29 12.29 0 0 0 5.777-8.939c.183-1.552.675-3.024 1.774-3.707a6.005 6.005 0 0 1 8.465 7.934 6.005 6.005 0 0 1 3.377 11.1c-1.1.683-2.636.474-4.11-.048a12.291 12.291 0 0 0-10.573 1.228L51.994 95.448a12.29 12.29 0 0 0-5.777 8.939c-.183 1.553-.675 3.024-1.774 3.707a6.005 6.005 0 0 1-8.465-7.939 6.005 6.005 0 0 1-3.377-11.1c1.1-.683 2.636-.474 4.11.048a12.29 12.29 0 0 0 10.572-1.23z"/><path fill="#ede6f5" d="M93.586 42.505C93.586 29.524 80.34 19 64 19S34.414 29.523 34.414 42.5c0 7 3.848 13.279 9.954 17.585a10.208 10.208 0 0 1 4.291 8.352v1.129a2.137 2.137 0 0 0 2.141 2.142h2.082a2.137 2.137 0 0 0 2.137-2.137v-1.156a2.873 2.873 0 0 1 3.307-2.841l.06.009a2.874 2.874 0 0 1 2.441 2.841v1.147a2.137 2.137 0 0 0 2.137 2.137h2.082a2.137 2.137 0 0 0 2.137-2.137v-1.146a2.874 2.874 0 0 1 2.441-2.841l.061-.009a2.873 2.873 0 0 1 3.307 2.841v1.156a2.137 2.137 0 0 0 2.137 2.137H77.2a2.137 2.137 0 0 0 2.137-2.137v-1.13a10.208 10.208 0 0 1 4.291-8.352c6.11-4.306 9.958-10.59 9.958-17.585z"/><path fill="#e0d3f2" d="M64 19.092V71.8h1.041a2.137 2.137 0 0 0 2.137-2.137v-1.147a2.874 2.874 0 0 1 2.441-2.841l.061-.009a2.873 2.873 0 0 1 3.307 2.84v1.156a2.137 2.137 0 0 0 2.135 2.138H77.2a2.137 2.137 0 0 0 2.137-2.137v-1.13a10.207 10.207 0 0 1 4.291-8.352c6.106-4.306 9.954-10.588 9.954-17.585C93.586 29.616 80.34 19.092 64 19.092z"/><circle cx="51.618" cy="41.957" r="7.944" fill="#cec1e7"/><circle cx="76.382" cy="41.957" r="7.944" fill="#cec1e7"/><path fill="#cec1e7" d="M68.438 56.2c0 2.451-1.987-.164-4.438-.164s-4.438 2.615-4.438.164 1.987-8.38 4.438-8.38 4.438 5.932 4.438 8.38z"/></svg>