<svg id="Layer_1" data-name="Layer 1" xmlns="http://www.w3.org/2000/svg" viewBox="0 0 128 128"><title>SKULL AND CROSSBONE-10</title><path d="M89.269,81.085,46.916,38.732a15.95,15.95,0,0,1-4.667-13c.226-2.016.037-4.021-1.15-5.208a7.793,7.793,0,0,0-13.037,7.539A7.793,7.793,0,0,0,20.522,41.1c1.187,1.187,3.192,1.376,5.208,1.15a15.95,15.95,0,0,1,13,4.668L81.083,89.27a15.95,15.95,0,0,1,4.667,13c-.226,2.016-.037,4.021,1.15,5.208a7.793,7.793,0,0,0,13.037-7.539A7.793,7.793,0,0,0,107.478,86.9c-1.187-1.187-3.192-1.376-5.208-1.15A15.95,15.95,0,0,1,89.269,81.085Z" style="fill:#cec1e7"/><path d="M38.731,81.085,81.083,38.732a15.95,15.95,0,0,0,4.667-13c-.226-2.016-.037-4.021,1.15-5.208a7.793,7.793,0,0,1,13.037,7.539A7.793,7.793,0,0,1,107.478,41.1c-1.187,1.187-3.192,1.376-5.208,1.15a15.95,15.95,0,0,0-13,4.668L46.916,89.27a15.95,15.95,0,0,0-4.667,13c.226,2.016.037,4.021-1.15,5.208a7.793,7.793,0,0,1-13.037-7.539A7.793,7.793,0,0,1,20.522,86.9c1.187-1.187,3.192-1.376,5.208-1.15A15.95,15.95,0,0,0,38.731,81.085Z" style="fill:#cec1e7"/><path d="M91.273,73.789A25.2,25.2,0,0,0,95,60.65C95,45.38,81.121,33,64,33S33,45.38,33,60.65a25.2,25.2,0,0,0,3.726,13.14,6.188,6.188,0,0,0-1.918,4.556c0,3.257,2.352,5.9,5.253,5.9a5.055,5.055,0,0,0,4.114-2.237,12.683,12.683,0,0,1,3.751,9.153v1.329A2.388,2.388,0,0,0,50.165,95h2.181a2.388,2.388,0,0,0,2.239-2.514v-1.36a3.146,3.146,0,0,1,3.465-3.341l.063.011a3.284,3.284,0,0,1,2.557,3.342v1.349A2.388,2.388,0,0,0,62.909,95h2.181a2.388,2.388,0,0,0,2.239-2.514V91.139A3.284,3.284,0,0,1,69.887,87.8l.063-.011a3.146,3.146,0,0,1,3.465,3.341v1.36A2.388,2.388,0,0,0,75.654,95h2.181a2.388,2.388,0,0,0,2.239-2.514V91.159a12.683,12.683,0,0,1,3.751-9.153,5.055,5.055,0,0,0,4.114,2.237c2.9,0,5.253-2.64,5.253-5.9A6.188,6.188,0,0,0,91.273,73.789Z" style="fill:#ede6f5"/><path d="M64,33V95h1.091a2.388,2.388,0,0,0,2.239-2.514V91.139A3.285,3.285,0,0,1,69.887,87.8l.063-.011a3.146,3.146,0,0,1,3.465,3.341v1.36A2.388,2.388,0,0,0,75.654,95h2.181a2.388,2.388,0,0,0,2.239-2.514V91.159a12.683,12.683,0,0,1,3.751-9.153,5.055,5.055,0,0,0,4.114,2.237c2.9,0,5.253-2.64,5.253-5.9a6.188,6.188,0,0,0-1.918-4.556A25.2,25.2,0,0,0,95,60.65C95,45.38,81.121,33,64,33Z" style="fill:#e0d3f2"/><circle cx="51.026" cy="60.442" r="8.324" style="fill:#cec1e7"/><circle cx="76.974" cy="60.442" r="8.324" style="fill:#cec1e7"/><path d="M68.65,75.368c0,2.568-2.082-.172-4.65-.172s-4.65,2.74-4.65.172,2.082-8.783,4.65-8.783S68.65,72.8,68.65,75.368Z" style="fill:#cec1e7"/></svg>