<svg id="Layer_1" data-name="Layer 1" xmlns="http://www.w3.org/2000/svg" viewBox="0 0 128 128"><title>SKULL AND CROSSBONE-11</title><path d="M89.269,81.085,46.916,38.732a15.95,15.95,0,0,1-4.667-13c.226-2.016.037-4.021-1.15-5.208a7.793,7.793,0,0,0-13.037,7.539A7.793,7.793,0,0,0,20.522,41.1c1.187,1.187,3.192,1.376,5.208,1.15a15.95,15.95,0,0,1,13,4.668L81.083,89.27a15.95,15.95,0,0,1,4.667,13c-.226,2.016-.037,4.021,1.15,5.208a7.793,7.793,0,0,0,13.037-7.539A7.793,7.793,0,0,0,107.478,86.9c-1.187-1.187-3.192-1.376-5.208-1.15A15.95,15.95,0,0,1,89.269,81.085Z" style="fill:#cec1e7"/><path d="M38.731,81.085,81.083,38.732a15.95,15.95,0,0,0,4.667-13c-.226-2.016-.037-4.021,1.15-5.208a7.793,7.793,0,0,1,13.037,7.539A7.793,7.793,0,0,1,107.478,41.1c-1.187,1.187-3.192,1.376-5.208,1.15a15.95,15.95,0,0,0-13,4.668L46.916,89.27a15.95,15.95,0,0,0-4.667,13c.226,2.016.037,4.021-1.15,5.208a7.793,7.793,0,0,1-13.037-7.539A7.793,7.793,0,0,1,20.522,86.9c1.187-1.187,3.192-1.376,5.208-1.15A15.95,15.95,0,0,0,38.731,81.085Z" style="fill:#cec1e7"/><path d="M92.985,75.623a6.925,6.925,0,0,0-3.061-1.8A20.61,20.61,0,0,0,94.5,61.064c0-13.382-13.655-24.231-30.5-24.231S33.5,47.682,33.5,61.064a20.61,20.61,0,0,0,4.575,12.756,6.925,6.925,0,0,0-3.061,1.8c-2.371,2.371-2.7,5.891-.725,7.862s5.491,1.646,7.862-.725A6.861,6.861,0,0,0,44.024,79.4a10.521,10.521,0,0,1,4.161,8.4v1.164a2.2,2.2,0,0,0,2.2,2.2h2.146a2.2,2.2,0,0,0,2.2-2.2V87.774a2.962,2.962,0,0,1,3.409-2.928l.062.009a2.963,2.963,0,0,1,2.516,2.929v1.182a2.2,2.2,0,0,0,2.2,2.2h2.146a2.2,2.2,0,0,0,2.2-2.2V87.784a2.963,2.963,0,0,1,2.516-2.929l.062-.009a2.962,2.962,0,0,1,3.409,2.928v1.192a2.2,2.2,0,0,0,2.2,2.2h2.146a2.2,2.2,0,0,0,2.2-2.2V87.8a10.521,10.521,0,0,1,4.161-8.4,6.861,6.861,0,0,0,1.872,3.358c2.371,2.371,5.891,2.7,7.862.725S95.357,77.995,92.985,75.623Z" style="fill:#ede6f5"/><path d="M89.925,73.821A20.611,20.611,0,0,0,94.5,61.064c0-13.382-13.655-24.231-30.5-24.231V91.169h1.073a2.2,2.2,0,0,0,2.2-2.2V87.784a2.963,2.963,0,0,1,2.516-2.929l.062-.01a2.962,2.962,0,0,1,3.409,2.928v1.192a2.2,2.2,0,0,0,2.2,2.2h2.146a2.2,2.2,0,0,0,2.2-2.2V87.8a10.521,10.521,0,0,1,4.161-8.4,6.862,6.862,0,0,0,1.872,3.358c2.371,2.371,5.891,2.7,7.862.725s1.646-5.491-.725-7.862A6.925,6.925,0,0,0,89.925,73.821Z" style="fill:#e0d3f2"/><circle cx="51.026" cy="60.442" r="8.324" style="fill:#cec1e7"/><circle cx="76.974" cy="60.442" r="8.324" style="fill:#cec1e7"/><path d="M68.65,75.368c0,2.568-2.082-.172-4.65-.172s-4.65,2.74-4.65.172,2.082-8.783,4.65-8.783S68.65,72.8,68.65,75.368Z" style="fill:#cec1e7"/></svg>