<svg id="Layer_1" data-name="Layer 1" xmlns="http://www.w3.org/2000/svg" viewBox="0 0 128 128"><title>SKULL-1</title><path d="M109,59.668c0-19.744-20.147-35.75-45-35.75S19,39.924,19,59.668c0,10.642,5.853,20.2,15.14,26.746a15.526,15.526,0,0,1,6.527,12.7v1.718a3.25,3.25,0,0,0,3.25,3.25h3.167a3.25,3.25,0,0,0,3.25-3.25V99.076a4.37,4.37,0,0,1,5.029-4.32l.092.014a4.371,4.371,0,0,1,3.712,4.321v1.744a3.25,3.25,0,0,0,3.25,3.25h3.167a3.25,3.25,0,0,0,3.25-3.25V99.091a4.371,4.371,0,0,1,3.712-4.321l.092-.014a4.37,4.37,0,0,1,5.029,4.32v1.759a3.25,3.25,0,0,0,3.25,3.25h3.167a3.25,3.25,0,0,0,3.25-3.25V99.116a15.526,15.526,0,0,1,6.527-12.7C103.147,79.865,109,70.309,109,59.668Z" style="fill:#ede6f5"/><path d="M64,23.918v80.167h1.583a3.25,3.25,0,0,0,3.25-3.25V99.091a4.371,4.371,0,0,1,3.712-4.321l.092-.014a4.37,4.37,0,0,1,5.029,4.32v1.759a3.25,3.25,0,0,0,3.25,3.25h3.167a3.25,3.25,0,0,0,3.25-3.25V99.116a15.526,15.526,0,0,1,6.527-12.7c9.287-6.549,15.14-16.1,15.14-26.746C109,39.924,88.853,23.918,64,23.918Z" style="fill:#e0d3f2"/><circle cx="45.167" cy="58.834" r="12.083" style="fill:#cec1e7"/><circle cx="82.833" cy="58.834" r="12.083" style="fill:#cec1e7"/><path d="M70.75,80.5c0,3.728-3.022-.25-6.75-.25s-6.75,3.978-6.75.25,3.022-12.75,6.75-12.75S70.75,76.773,70.75,80.5Z" style="fill:#cec1e7"/></svg>