<svg id="Layer_1" data-name="Layer 1" xmlns="http://www.w3.org/2000/svg" viewBox="0 0 128 128"><title>SKULL-3</title><path d="M106.075,80.872a10.052,10.052,0,0,0-4.443-2.617,29.919,29.919,0,0,0,6.642-18.518c0-19.426-19.822-35.174-44.275-35.174S19.725,40.312,19.725,59.738a29.919,29.919,0,0,0,6.642,18.518,10.052,10.052,0,0,0-4.443,2.617c-3.442,3.442-3.913,8.552-1.052,11.413s7.971,2.39,11.413-1.052A9.96,9.96,0,0,0,35,86.358a15.273,15.273,0,0,1,6.04,12.192v1.69a3.2,3.2,0,0,0,3.2,3.2h3.116a3.2,3.2,0,0,0,3.2-3.2V98.51A4.3,4.3,0,0,1,55.5,94.26l.09.014a4.3,4.3,0,0,1,3.652,4.251v1.716a3.2,3.2,0,0,0,3.2,3.2h3.116a3.2,3.2,0,0,0,3.2-3.2V98.525a4.3,4.3,0,0,1,3.652-4.251l.091-.014a4.3,4.3,0,0,1,4.948,4.251v1.73a3.2,3.2,0,0,0,3.2,3.2h3.116a3.2,3.2,0,0,0,3.2-3.2V98.55A15.273,15.273,0,0,1,93,86.358a9.961,9.961,0,0,0,2.718,4.875c3.442,3.442,8.552,3.913,11.413,1.052S109.518,84.315,106.075,80.872Z" style="fill:#ede6f5"/><path d="M101.633,78.255a29.919,29.919,0,0,0,6.642-18.518c0-19.426-19.822-35.174-44.274-35.174v78.874h1.558a3.2,3.2,0,0,0,3.2-3.2V98.525a4.3,4.3,0,0,1,3.652-4.251l.09-.014a4.3,4.3,0,0,1,4.948,4.251v1.73a3.2,3.2,0,0,0,3.2,3.2h3.116a3.2,3.2,0,0,0,3.2-3.2V98.55A15.273,15.273,0,0,1,93,86.358a9.959,9.959,0,0,0,2.718,4.875c3.442,3.442,8.552,3.913,11.413,1.052s2.39-7.971-1.052-11.413A10.052,10.052,0,0,0,101.633,78.255Z" style="fill:#e0d3f2"/><circle cx="45.166" cy="58.834" r="12.083" style="fill:#cec1e7"/><circle cx="82.833" cy="58.834" r="12.083" style="fill:#cec1e7"/><path d="M70.75,80.5c0,3.728-3.022-.25-6.75-.25s-6.75,3.978-6.75.25,3.022-12.75,6.75-12.75S70.75,76.773,70.75,80.5Z" style="fill:#cec1e7"/></svg>