<?xml version="1.0" encoding="utf-8"?>
<!-- Generator: Adobe Illustrator 22.0.1, SVG Export Plug-In . SVG Version: 6.00 Build 0)  -->
<svg version="1.1" id="Layer_1" xmlns="http://www.w3.org/2000/svg" xmlns:xlink="http://www.w3.org/1999/xlink" x="0px" y="0px"
	 viewBox="0 0 200 200" enable-background="new 0 0 200 200" xml:space="preserve">
<g id="Kids_Bengal">
	<path id="Bengal" fill="#59595C" d="M100,84.6c-1.4,0-2.5,1.1-2.5,2.5v49.1c0,0.9,0.5,1.7,1.2,2.1v26.4c0,0.7,0.6,1.2,1.2,1.2
		s1.2-0.6,1.2-1.2v-26.4c0.7-0.4,1.2-1.2,1.2-2.1V87.1C102.5,85.8,101.4,84.6,100,84.6z"/>
	<g id="Lines_Thickness">
		<path id="Line_26_" fill="#59595C" d="M99.9,52c-0.8,0.1-1.5,0.8-1.4,1.6l1.1,16.8c0,0.2,0.2,0.4,0.4,0.4c0.2,0,0.4-0.2,0.5-0.4
			l1.1-16.8c0-0.1,0-0.1,0-0.2C101.5,52.5,100.7,51.9,99.9,52z"/>
		<path id="Line_27_" fill="#59595C" d="M87.7,55.5c-0.4-0.8-1.3-1.1-2-0.7c-0.8,0.4-1.1,1.3-0.7,2L92.4,72c0.1,0.2,0.3,0.3,0.5,0.2
			c0.2-0.1,0.3-0.3,0.3-0.5l-5.4-16C87.7,55.7,87.7,55.6,87.7,55.5z"/>
		<path id="Line_28_" fill="#59595C" d="M86.3,76.2c0.2,0.1,0.4,0.1,0.6,0c0.2-0.2,0.2-0.4,0-0.6L75.8,63c0,0-0.1-0.1-0.1-0.1
			c-0.6-0.6-1.6-0.5-2.2,0.1c-0.6,0.6-0.5,1.6,0.1,2.2L86.3,76.2z"/>
		<path id="Line_29_" fill="#59595C" d="M66.4,77l16,5.4c0.2,0.1,0.4,0,0.5-0.2c0.1-0.2,0-0.5-0.2-0.6l-15.1-7.5
			c-0.1,0-0.1-0.1-0.2-0.1c-0.8-0.3-1.7,0.2-1.9,1C65.2,75.9,65.6,76.8,66.4,77z"/>
		<path id="Line_30_" fill="#59595C" d="M81.5,89.3c0-0.2-0.2-0.4-0.4-0.5l-16.8-1.1c-0.1,0-0.1,0-0.2,0c-0.8,0.1-1.5,0.8-1.4,1.6
			c0.1,0.8,0.8,1.5,1.6,1.4l16.8-1.1C81.3,89.7,81.5,89.6,81.5,89.3z"/>
		<path id="Line_31_" fill="#59595C" d="M82.9,96.4c-0.1-0.2-0.3-0.3-0.5-0.3l-16,5.4c-0.1,0-0.1,0.1-0.2,0.1
			c-0.8,0.4-1.1,1.3-0.7,2c0.4,0.8,1.3,1.1,2,0.7l15.1-7.5C82.9,96.8,83,96.6,82.9,96.4z"/>
		<path id="Line_32_" fill="#59595C" d="M86.9,102.4c-0.2-0.2-0.4-0.2-0.6,0l-12.7,11.1c0,0-0.1,0.1-0.1,0.1
			c-0.6,0.6-0.5,1.6,0.1,2.2c0.6,0.6,1.6,0.5,2.2-0.1L86.9,103C87.1,102.8,87.1,102.6,86.9,102.4z"/>
		<path id="Line_33_" fill="#59595C" d="M92.4,106.6l-7.5,15.1c0,0.1-0.1,0.1-0.1,0.2c-0.3,0.8,0.2,1.7,1,1.9c0.8,0.3,1.7-0.2,1.9-1
			l5.4-16c0.1-0.2,0-0.4-0.2-0.5C92.7,106.3,92.5,106.4,92.4,106.6z"/>
		<path id="Line_25_" fill="#59595C" d="M107.6,106.6c-0.1-0.2-0.3-0.3-0.5-0.2c-0.2,0.1-0.3,0.3-0.3,0.5l5.4,16
			c0,0.1,0,0.1,0.1,0.2c0.4,0.8,1.3,1.1,2,0.7c0.8-0.4,1.1-1.3,0.7-2L107.6,106.6z"/>
		<path id="Line_24_" fill="#59595C" d="M113.7,102.4c-0.2-0.1-0.4-0.1-0.6,0c-0.2,0.2-0.2,0.4,0,0.6l11.1,12.7c0,0,0.1,0.1,0.1,0.1
			c0.6,0.6,1.6,0.5,2.2-0.1c0.6-0.6,0.5-1.6-0.1-2.2L113.7,102.4z"/>
		<path id="Line_23_" fill="#59595C" d="M133.6,101.6l-16-5.4c-0.2-0.1-0.4,0-0.5,0.2c-0.1,0.2,0,0.5,0.2,0.6l15.1,7.5
			c0.1,0,0.1,0.1,0.2,0.1c0.8,0.3,1.7-0.2,1.9-1C134.8,102.7,134.4,101.8,133.6,101.6z"/>
		<path id="Line_22_" fill="#59595C" d="M135.7,87.8l-16.8,1.1c-0.2,0-0.4,0.2-0.4,0.4c0,0.2,0.2,0.4,0.4,0.5l16.8,1.1
			c0.1,0,0.1,0,0.2,0c0.8-0.1,1.5-0.8,1.4-1.6C137.3,88.4,136.6,87.7,135.7,87.8z"/>
		<path id="Line_21_" fill="#59595C" d="M117.1,82.2c0.1,0.2,0.3,0.3,0.5,0.3l16-5.4c0.1,0,0.1-0.1,0.2-0.1c0.8-0.4,1.1-1.3,0.7-2
			c-0.4-0.8-1.3-1.1-2-0.7l-15.1,7.5C117.1,81.8,117,82,117.1,82.2z"/>
		<path id="Line_20_" fill="#59595C" d="M113.1,76.2c0.2,0.2,0.4,0.2,0.6,0l12.7-11.1c0,0,0.1-0.1,0.1-0.1c0.6-0.6,0.5-1.6-0.1-2.2
			c-0.6-0.6-1.6-0.5-2.2,0.1l-11.1,12.7C112.9,75.8,112.9,76,113.1,76.2z"/>
		<path id="Line_19_" fill="#59595C" d="M107.6,72l7.5-15.1c0-0.1,0.1-0.1,0.1-0.2c0.3-0.8-0.2-1.7-1-1.9c-0.8-0.3-1.7,0.2-1.9,1
			l-5.4,16c-0.1,0.2,0,0.4,0.2,0.5C107.3,72.3,107.5,72.2,107.6,72z"/>
	</g>
	<g id="Thin_Lines">
		<path id="Line_61_" fill="#59595C" d="M90.5,41.5c-0.4,0.1-0.6,0.4-0.5,0.8l3.9,19.5c0.1,0.3,0.3,0.5,0.6,0.5c0,0,0.1,0,0.1,0
			c0.4-0.1,0.6-0.4,0.5-0.8L91.3,42C91.2,41.7,90.8,41.4,90.5,41.5z"/>
		<path id="Line_60_" fill="#59595C" d="M83.8,66.2c0.1,0.2,0.3,0.3,0.5,0.3c0.1,0,0.3,0,0.4-0.1c0.3-0.2,0.4-0.6,0.2-0.9L84,64.2
			c-0.2-0.3-0.6-0.4-0.9-0.2c-0.3,0.2-0.4,0.6-0.2,0.9L83.8,66.2z"/>
		<path id="Line_59_" fill="#59595C" d="M79.5,59.9c0.1,0.2,0.3,0.3,0.5,0.3c0.1,0,0.2,0,0.4-0.1c0.3-0.2,0.4-0.6,0.2-0.9l-0.8-1.3
			c-0.2-0.3-0.6-0.4-0.9-0.2c-0.3,0.2-0.4,0.6-0.2,0.9L79.5,59.9z"/>
		<path id="Line_58_" fill="#59595C" d="M75.3,53.5c0.1,0.2,0.3,0.3,0.5,0.3c0.1,0,0.2,0,0.4-0.1c0.3-0.2,0.4-0.6,0.2-0.9l-0.8-1.3
			c-0.2-0.3-0.6-0.4-0.9-0.2c-0.3,0.2-0.4,0.6-0.2,0.9L75.3,53.5z"/>
		<path id="Line_57_" fill="#59595C" d="M76.1,74.2c0.1,0.1,0.2,0.1,0.4,0.1c0.2,0,0.4-0.1,0.5-0.3c0.2-0.3,0.1-0.7-0.2-0.9
			l-16.5-11c-0.3-0.2-0.7-0.1-0.9,0.2c-0.2,0.3-0.1,0.7,0.2,0.9L76.1,74.2z"/>
		<path id="Line_56_" fill="#59595C" d="M55.8,81.2l1.5,0.3c0,0,0.1,0,0.1,0c0.3,0,0.6-0.2,0.6-0.5c0.1-0.4-0.2-0.7-0.5-0.8L56,79.9
			c-0.4-0.1-0.7,0.2-0.8,0.5C55.2,80.8,55.4,81.1,55.8,81.2z"/>
		<path id="Line_55_" fill="#59595C" d="M63.5,81.4c-0.4-0.1-0.7,0.2-0.8,0.5c-0.1,0.4,0.2,0.7,0.5,0.8l1.5,0.3c0,0,0.1,0,0.1,0
			c0.3,0,0.6-0.2,0.6-0.5c0.1-0.4-0.2-0.7-0.5-0.8L63.5,81.4z"/>
		<path id="Line_54_" fill="#59595C" d="M70.9,82.9c-0.4-0.1-0.7,0.2-0.8,0.5c-0.1,0.4,0.2,0.7,0.5,0.8l1.5,0.3c0,0,0.1,0,0.1,0
			c0.3,0,0.6-0.2,0.6-0.5c0.1-0.4-0.2-0.7-0.5-0.8L70.9,82.9z"/>
		<path id="Line_53_" fill="#59595C" d="M72.9,94.7c-0.1-0.4-0.4-0.6-0.8-0.5l-19.5,3.9c-0.4,0.1-0.6,0.4-0.5,0.8
			c0.1,0.3,0.3,0.5,0.6,0.5c0,0,0.1,0,0.1,0l19.5-3.9C72.8,95.4,73,95.1,72.9,94.7z"/>
		<path id="Line_52_" fill="#59595C" d="M69.8,108.7l-1.3,0.8c-0.3,0.2-0.4,0.6-0.2,0.9c0.1,0.2,0.3,0.3,0.5,0.3
			c0.1,0,0.3,0,0.4-0.1l1.3-0.8c0.3-0.2,0.4-0.6,0.2-0.9C70.5,108.6,70.1,108.5,69.8,108.7z"/>
		<path id="Line_51_" fill="#59595C" d="M63.5,112.9l-1.3,0.8c-0.3,0.2-0.4,0.6-0.2,0.9c0.1,0.2,0.3,0.3,0.5,0.3
			c0.1,0,0.2,0,0.4-0.1l1.3-0.8c0.3-0.2,0.4-0.6,0.2-0.9C64.2,112.8,63.8,112.7,63.5,112.9z"/>
		<path id="Line_50_" fill="#59595C" d="M76.1,104.5l-1.3,0.8c-0.3,0.2-0.4,0.6-0.2,0.9c0.1,0.2,0.3,0.3,0.5,0.3
			c0.1,0,0.3,0,0.4-0.1l1.3-0.8c0.3-0.2,0.4-0.6,0.2-0.9C76.9,104.4,76.4,104.3,76.1,104.5z"/>
		<path id="Line_49_" fill="#59595C" d="M83.8,112.4l-11,16.5c-0.2,0.3-0.1,0.7,0.2,0.9c0.1,0.1,0.2,0.1,0.4,0.1
			c0.2,0,0.4-0.1,0.5-0.3l11-16.5c0.2-0.3,0.1-0.7-0.2-0.9C84.4,112.1,84,112.1,83.8,112.4z"/>
		<path id="Line_48_" fill="#59595C" d="M120.5,118.8c-0.2-0.3-0.6-0.4-0.9-0.2c-0.3,0.2-0.4,0.6-0.2,0.9l0.8,1.3
			c0.1,0.2,0.3,0.3,0.5,0.3c0.1,0,0.2,0,0.4-0.1c0.3-0.2,0.4-0.6,0.2-0.9L120.5,118.8z"/>
		<path id="Line_47_" fill="#59595C" d="M124.7,125.1c-0.2-0.3-0.6-0.4-0.9-0.2c-0.3,0.2-0.4,0.6-0.2,0.9l0.8,1.3
			c0.1,0.2,0.3,0.3,0.5,0.3c0.1,0,0.2,0,0.4-0.1c0.3-0.2,0.4-0.6,0.2-0.9L124.7,125.1z"/>
		<path id="Line_46_" fill="#59595C" d="M116.2,112.4c-0.2-0.3-0.6-0.4-0.9-0.2c-0.3,0.2-0.4,0.6-0.2,0.9l0.8,1.3
			c0.1,0.2,0.3,0.3,0.5,0.3c0.1,0,0.3,0,0.4-0.1c0.3-0.2,0.4-0.6,0.2-0.9L116.2,112.4z"/>
		<path id="Line_45_" fill="#59595C" d="M123.9,104.5c-0.3-0.2-0.7-0.1-0.9,0.2c-0.2,0.3-0.1,0.7,0.2,0.9l16.5,11
			c0.1,0.1,0.2,0.1,0.4,0.1c0.2,0,0.4-0.1,0.5-0.3c0.2-0.3,0.1-0.7-0.2-0.9L123.9,104.5z"/>
		<path id="Line_44_" fill="#59595C" d="M144.2,97.5l-1.5-0.3c-0.4-0.1-0.7,0.2-0.8,0.5c-0.1,0.4,0.2,0.7,0.5,0.8l1.5,0.3
			c0,0,0.1,0,0.1,0c0.3,0,0.6-0.2,0.6-0.5C144.8,97.9,144.6,97.5,144.2,97.5z"/>
		<path id="Line_43_" fill="#59595C" d="M136.5,97.3c0,0,0.1,0,0.1,0c0.3,0,0.6-0.2,0.6-0.5c0.1-0.4-0.2-0.7-0.5-0.8l-1.5-0.3
			c-0.4-0.1-0.7,0.2-0.8,0.5c-0.1,0.4,0.2,0.7,0.5,0.8L136.5,97.3z"/>
		<path id="Line_42_" fill="#59595C" d="M129.1,95.8c0,0,0.1,0,0.1,0c0.3,0,0.6-0.2,0.6-0.5c0.1-0.4-0.2-0.7-0.5-0.8l-1.5-0.3
			c-0.4-0.1-0.7,0.2-0.8,0.5c-0.1,0.4,0.2,0.7,0.5,0.8L129.1,95.8z"/>
		<path id="Line_41_" fill="#59595C" d="M147,79.3l-19.5,3.9c-0.4,0.1-0.6,0.4-0.5,0.8c0.1,0.3,0.3,0.5,0.6,0.5c0,0,0.1,0,0.1,0
			l19.4-3.9c0.4-0.1,0.6-0.4,0.5-0.8C147.7,79.5,147.4,79.2,147,79.3z"/>
		<path id="Line_40_" fill="#59595C" d="M129.8,70.1c0.1,0,0.3,0,0.4-0.1l1.3-0.8c0.3-0.2,0.4-0.6,0.2-0.9c-0.2-0.3-0.6-0.4-0.9-0.2
			l-1.3,0.8c-0.3,0.2-0.4,0.6-0.2,0.9C129.4,69.9,129.6,70.1,129.8,70.1z"/>
		<path id="Line_39_" fill="#59595C" d="M136.1,65.8c0.1,0,0.2,0,0.4-0.1l1.3-0.8c0.3-0.2,0.4-0.6,0.2-0.9c-0.2-0.3-0.6-0.4-0.9-0.2
			l-1.3,0.8c-0.3,0.2-0.4,0.6-0.2,0.9C135.7,65.7,135.9,65.8,136.1,65.8z"/>
		<path id="Line_38_" fill="#59595C" d="M123.5,74.3c0.1,0,0.2,0,0.4-0.1l1.3-0.8c0.3-0.2,0.4-0.6,0.2-0.9c-0.2-0.3-0.6-0.4-0.9-0.2
			l-1.3,0.8c-0.3,0.2-0.4,0.6-0.2,0.9C123.1,74.2,123.3,74.3,123.5,74.3z"/>
		<path id="Line_37_" fill="#59595C" d="M115.7,66.5c0.2,0,0.4-0.1,0.5-0.3l11-16.5c0.2-0.3,0.1-0.7-0.2-0.9
			c-0.3-0.2-0.7-0.1-0.9,0.2l-11,16.5c-0.2,0.3-0.1,0.7,0.2,0.9C115.4,66.4,115.6,66.5,115.7,66.5z"/>
		<path id="Line_36_" fill="#59595C" d="M107.4,52c-0.4-0.1-0.7,0.2-0.8,0.5l-0.3,1.5c-0.1,0.4,0.2,0.7,0.5,0.8c0,0,0.1,0,0.1,0
			c0.3,0,0.6-0.2,0.6-0.5l0.3-1.5C108,52.4,107.8,52.1,107.4,52z"/>
		<path id="Line_35_" fill="#59595C" d="M105.9,59.5c-0.4-0.1-0.7,0.2-0.8,0.5l-0.3,1.5c-0.1,0.4,0.2,0.7,0.5,0.8c0,0,0.1,0,0.1,0
			c0.3,0,0.6-0.2,0.6-0.5l0.3-1.5C106.5,59.9,106.3,59.6,105.9,59.5z"/>
		<path id="Line_34_" fill="#59595C" d="M108.9,44.6c-0.4-0.1-0.7,0.2-0.8,0.5l-0.3,1.5c-0.1,0.4,0.2,0.7,0.5,0.8c0,0,0.1,0,0.1,0
			c0.3,0,0.6-0.2,0.6-0.5l0.3-1.5C109.5,45,109.3,44.6,108.9,44.6z"/>
	</g>
	<g id="Star_Group">
		<path id="Star_85_" fill="#58585B" d="M101.3,36.3l-1.1-2.3c0-0.1-0.1-0.1-0.1-0.1c-0.1,0-0.1,0-0.1,0.1l-1.1,2.3l-2.5,0.4
			c-0.1,0-0.1,0-0.1,0.1c0,0.1,0,0.1,0,0.2l1.8,1.8l-0.4,2.5c0,0.1,0,0.1,0.1,0.1c0,0,0.1,0,0.1,0c0,0,0,0,0.1,0l2.2-1.2l2.2,1.2
			c0,0,0,0,0.1,0c0,0,0.1,0,0.1,0c0,0,0.1-0.1,0.1-0.1l-0.4-2.5l1.8-1.8c0,0,0.1-0.1,0-0.2c0-0.1-0.1-0.1-0.1-0.1L101.3,36.3z
			 M100.4,35l-0.4-0.8l0,0L100.4,35z M97.2,36.7l-0.9,0.2l0,0L97.2,36.7z M97.9,40.3l-0.1,0.9l0,0L97.9,40.3z M103.1,37.5l0.6-0.7
			l0.1,0L103.1,37.5z"/>
		<path id="Star_84_" fill="#58585B" d="M78.8,43.4l0.6,2.5c0,0.1,0.1,0.1,0.1,0.1c0,0,0,0,0,0c0,0,0.1,0,0.1-0.1l1.6-1.9l2.5,0.2
			c0,0,0,0,0,0c0,0,0.1,0,0.1-0.1c0,0,0-0.1,0-0.2l-1.4-2.1l1-2.3c0,0,0,0,0-0.1c0-0.1-0.1-0.1-0.1-0.1h0h0c0,0,0,0,0,0c0,0,0,0,0,0
			l-2.5,0.6L79,38.2c0,0-0.1,0-0.1,0c0,0,0,0-0.1,0c-0.1,0-0.1,0.1-0.1,0.1l-0.2,2.5l-2.2,1.3c0,0-0.1,0.1-0.1,0.1
			c0,0.1,0,0.1,0.1,0.1L78.8,43.4z M82.8,43.9l0.9,0l0,0L82.8,43.9z M83.4,39.4L83,40.3L83.4,39.4L83.4,39.4z M79.6,39l-0.7-0.6
			l0-0.1L79.6,39z M77.3,41.8l-0.8,0.5l0,0L77.3,41.8z"/>
		<path id="Star_83_" fill="#58585B" d="M65.7,52.1l0-2.5c0-0.1,0-0.1-0.1-0.1c0,0,0,0-0.1,0c0,0-0.1,0-0.1,0l-2,1.5l-2.4-0.8
			c0,0,0,0,0,0c0,0-0.1,0-0.1,0c0,0-0.1,0.1,0,0.2l0.8,2.4l-1.5,2c0,0,0,0.1,0,0.2c0,0,0.1,0.1,0.1,0.1c0,0,0,0,0,0l2.5,0l1.5,2.1
			c0,0,0.1,0.1,0.1,0.1c0,0,0,0,0,0c0.1,0,0.1,0,0.1-0.1l0.7-2.4l2.4-0.8c0.1,0,0.1-0.1,0.1-0.1c0-0.1,0-0.1-0.1-0.1L65.7,52.1z
			 M65.6,50.5l0-0.9l0,0L65.6,50.5z M61.9,50.6L61,50.3l0-0.1L61.9,50.6z M60.9,54.1l-0.5,0.8h-0.1L60.9,54.1z M66.8,54l0.9-0.3l0,0
			L66.8,54z"/>
		<path id="Star_82_" fill="#58585B" d="M54.1,68.1l-0.9-2.3c0-0.1-0.1-0.1-0.1-0.1c0,0,0,0,0,0c-0.1,0-0.1,0-0.1,0.1l-1.3,2.2
			L49,68c-0.1,0-0.1,0-0.1,0.1c0,0.1,0,0.1,0,0.2l1.7,1.9L50,72.6c0,0.1,0,0.1,0,0.1c0,0,0.1,0,0.1,0c0,0,0,0,0.1,0l2.3-1l2.1,1.4
			c0,0,0.1,0,0.1,0c0,0,0.1,0,0.1,0c0,0,0.1-0.1,0.1-0.1l-0.2-2.5l1.9-1.6c0,0,0.1-0.1,0.1-0.1c0-0.1-0.1-0.1-0.1-0.1L54.1,68.1z
			 M53.3,66.7L53,65.8l0,0L53.3,66.7z M50,68.1l-0.9,0.1l0,0L50,68.1z M50.4,71.8l-0.2,0.9l0,0L50.4,71.8z M55.8,69.4l0.7-0.6l0,0
			L55.8,69.4z"/>
		<path id="Star_81_" fill="#58585B" d="M51.9,91.7C51.9,91.7,52,91.7,51.9,91.7c0.1,0,0.1,0,0.1-0.1c0,0,0-0.1,0-0.2l-1.2-2.2
			l1.2-2.2c0-0.1,0-0.1,0-0.2c0,0-0.1-0.1-0.1-0.1c0,0,0,0,0,0l-2.5,0.4l-1.8-1.8c0,0-0.1,0-0.1,0c0,0,0,0,0,0
			c-0.1,0-0.1,0.1-0.1,0.1L47.1,88l-2.3,1.1c-0.1,0-0.1,0.1-0.1,0.1c0,0.1,0,0.1,0.1,0.1l2.3,1.1l0.4,2.5c0,0.1,0,0.1,0.1,0.1
			c0,0,0,0,0,0c0,0,0.1,0,0.1,0l1.8-1.8L51.9,91.7z M51,91.4l0.9,0.1l0,0L51,91.4z M51.5,87.8l0.4-0.8l0,0L51.5,87.8z M48.2,86.2
			l-0.7-0.6l0-0.1L48.2,86.2z M45.7,88.9l-0.8,0.4l0,0L45.7,88.9z"/>
		<path id="Star_80_" fill="#58585B" d="M54.7,108.1l0.2-2.5c0-0.1,0-0.1-0.1-0.1c0,0-0.1,0-0.1,0c0,0-0.1,0-0.1,0l-2.1,1.4l-2.3-1
			c0,0,0,0-0.1,0c0,0-0.1,0-0.1,0c0,0-0.1,0.1,0,0.2l0.6,2.5l-1.7,1.9c0,0,0,0.1,0,0.2c0,0.1,0.1,0.1,0.1,0.1l2.5,0.2l1.3,2.2
			c0,0,0.1,0.1,0.1,0.1c0,0,0,0,0,0c0.1,0,0.1,0,0.1-0.1l0.9-2.3l2.5-0.6c0.1,0,0.1-0.1,0.1-0.1c0-0.1,0-0.1-0.1-0.1L54.7,108.1z
			 M54.6,106.5l0-0.9l0,0L54.6,106.5z M51,106.3l-0.9-0.3l0-0.1L51,106.3z M49.7,109.7l-0.6,0.7l-0.1,0L49.7,109.7z M55.6,110
			l0.9-0.2l0,0L55.6,110z"/>
		<path id="Star_79_" fill="#58585B" d="M65.3,124l-0.8-2.4c0-0.1-0.1-0.1-0.1-0.1c0,0,0,0,0,0c0,0-0.1,0-0.1,0.1l-1.5,2.1l-2.5,0
			c0,0,0,0,0,0c-0.1,0-0.1,0-0.1,0.1c0,0.1,0,0.1,0,0.2l1.5,2l-0.8,2.4c0,0.1,0,0.1,0,0.2c0,0,0.1,0,0.1,0c0,0,0,0,0,0l2.4-0.8
			l2,1.5c0,0,0.1,0,0.1,0c0,0,0,0,0.1,0c0,0,0.1-0.1,0.1-0.1l0-2.5l2.1-1.5c0,0,0.1-0.1,0.1-0.1c0-0.1,0-0.1-0.1-0.1L65.3,124z
			 M64.7,122.5l-0.3-0.9l0,0L64.7,122.5z M61.2,123.7l-0.9,0l0,0L61.2,123.7z M61.3,127.4l-0.3,0.9l0,0L61.3,127.4z M66.9,125.4
			l0.7-0.6l0.1,0L66.9,125.4z"/>
		<path id="Star_78_" fill="#58585B" d="M83.8,134.4L83.8,134.4C83.8,134.4,83.8,134.4,83.8,134.4C83.7,134.4,83.7,134.4,83.8,134.4
			C83.7,134.4,83.7,134.4,83.8,134.4l-2.5,0.2l-1.6-1.9c0,0-0.1-0.1-0.1-0.1c0,0,0,0,0,0c-0.1,0-0.1,0.1-0.1,0.1l-0.6,2.5l-2.4,0.9
			c-0.1,0-0.1,0.1-0.1,0.1c0,0.1,0,0.1,0.1,0.1l2.2,1.3l0.2,2.5c0,0.1,0,0.1,0.1,0.1c0,0,0,0,0.1,0c0,0,0.1,0,0.1,0l1.9-1.7l2.5,0.6
			c0,0,0,0,0,0c0,0,0.1,0,0.1-0.1c0,0,0-0.1,0-0.2l-1-2.3l1.3-2.1c0,0,0-0.1,0-0.1C83.9,134.5,83.8,134.4,83.8,134.4z M80.1,133.5
			l-0.6-0.7l0-0.1L80.1,133.5z M77.4,135.9l-0.8,0.4l0,0L77.4,135.9z M82.5,138.9l0.9,0.2l0,0L82.5,138.9z M83.2,135.4l0.5-0.8
			l0.1,0L83.2,135.4z"/>
		<path id="Star_77_" fill="#58585B" d="M121.2,135.2l-0.6-2.5c0-0.1-0.1-0.1-0.1-0.1c0,0,0,0,0,0c0,0-0.1,0-0.1,0.1l-1.6,1.9
			l-2.5-0.2c0,0,0,0,0,0c0,0-0.1,0-0.1,0.1c0,0,0,0.1,0,0.2l1.4,2.1l-1,2.3c0,0.1,0,0.1,0,0.2c0,0,0.1,0.1,0.1,0.1c0,0,0,0,0,0
			l2.5-0.6l1.9,1.7c0,0,0.1,0,0.1,0c0,0,0,0,0.1,0c0.1,0,0.1-0.1,0.1-0.1l0.2-2.5l2.2-1.3c0,0,0.1-0.1,0.1-0.1c0-0.1,0-0.1-0.1-0.1
			L121.2,135.2z M120.7,133.7l-0.2-0.9l0,0L120.7,133.7z M117.2,134.6l-0.9,0l0,0L117.2,134.6z M117,138.3l-0.3,0.9l0,0L117,138.3z
			 M122.7,136.8l0.8-0.5l0.1,0L122.7,136.8z"/>
		<path id="Star_76_" fill="#58585B" d="M139.7,123.6L139.7,123.6C139.7,123.6,139.7,123.6,139.7,123.6l-2.5,0l-1.5-2.1
			c0,0-0.1-0.1-0.1-0.1c0,0,0,0,0,0c-0.1,0-0.1,0-0.1,0.1l-0.7,2.4l-2.4,0.7c-0.1,0-0.1,0.1-0.1,0.1c0,0.1,0,0.1,0.1,0.1l2.1,1.5
			l0,2.5c0,0.1,0,0.1,0.1,0.1c0,0,0,0,0.1,0c0,0,0.1,0,0.1,0l2-1.5l2.4,0.8c0,0,0,0,0,0c0,0,0.1,0,0.1,0c0,0,0.1-0.1,0-0.2l-0.8-2.4
			l1.5-2c0,0,0-0.1,0-0.1C139.9,123.6,139.8,123.6,139.7,123.6z M136.2,122.4l-0.6-0.7l0-0.1L136.2,122.4z M133.2,124.6l-0.9,0.3
			l0,0L133.2,124.6z M138.1,128l0.9,0.3l0,0.1L138.1,128z M139.1,124.5l0.5-0.8l0,0L139.1,124.5z"/>
		<path id="Star_75_" fill="#58585B" d="M149.4,108.4l0.6-2.4c0,0,0,0,0-0.1c0-0.1-0.1-0.1-0.1-0.1h0c0,0,0,0-0.1,0l-2.3,1l-2.1-1.4
			c0,0-0.1,0-0.1,0c0,0-0.1,0-0.1,0c0,0-0.1,0.1-0.1,0.1l0.2,2.5l-1.9,1.6c0,0-0.1,0.1-0.1,0.1c0,0.1,0.1,0.1,0.1,0.1l2.5,0.6
			l0.9,2.3c0,0.1,0.1,0.1,0.1,0.1c0,0,0,0,0,0c0,0,0.1,0,0.1-0.1l1.3-2.2l2.5-0.2c0.1,0,0.1,0,0.1-0.1c0-0.1,0-0.1,0-0.2
			L149.4,108.4z M149.6,106.8l0.2-0.9l0,0L149.6,106.8z M146.1,106l-0.8-0.5l0-0.1L146.1,106z M144.2,109.2l-0.7,0.6l0,0
			L144.2,109.2z M150,110.5l0.9-0.1l0,0L150,110.5z"/>
		<path id="Star_74_" fill="#58585B" d="M155.2,89.2l-2.3-1.1l-0.4-2.5c0-0.1,0-0.1-0.1-0.1c0,0,0,0,0,0c0,0-0.1,0-0.1,0l-1.8,1.8
			l-2.5-0.4c0,0,0,0,0,0c0,0-0.1,0-0.1,0.1c0,0,0,0.1,0,0.2l1.2,2.2l-1.2,2.2c0,0.1,0,0.1,0,0.2c0,0,0.1,0.1,0.1,0.1c0,0,0,0,0,0
			l2.5-0.4l1.8,1.8c0,0,0.1,0,0.1,0c0,0,0,0,0,0c0.1,0,0.1-0.1,0.1-0.1l0.4-2.5l2.3-1.1c0.1,0,0.1-0.1,0.1-0.1
			C155.3,89.2,155.3,89.2,155.2,89.2z M152.6,86.5l-0.2-0.9l0,0L152.6,86.5z M149,87.1l-0.9-0.1l0,0L149,87.1z M148.5,90.8l-0.4,0.8
			l0,0L148.5,90.8z M154.3,89.7l0.8-0.4l0,0L154.3,89.7z"/>
		<path id="Star_73_" fill="#58585B" d="M145.3,70.5l-0.2,2.5c0,0.1,0,0.1,0.1,0.1c0,0,0.1,0,0.1,0c0,0,0.1,0,0.1,0l2.1-1.4l2.3,1
			c0,0,0,0,0.1,0c0,0,0.1,0,0.1,0c0,0,0.1-0.1,0-0.1l-0.6-2.5l1.7-1.9c0,0,0-0.1,0-0.2c0-0.1-0.1-0.1-0.1-0.1l-2.5-0.2l-1.3-2.2
			c0,0-0.1-0.1-0.1-0.1c0,0,0,0,0,0c-0.1,0-0.1,0-0.1,0.1l-0.9,2.4l-2.5,0.6c-0.1,0-0.1,0.1-0.1,0.1c0,0.1,0,0.1,0.1,0.1L145.3,70.5
			z M149,72.3l0.9,0.3l0,0.1L149,72.3z M150.3,68.9l0.6-0.7l0.1,0L150.3,68.9z M147,65.8l0.5,0.8L147,65.8L147,65.8z M144.4,68.6
			l-0.9,0.2l0,0L144.4,68.6z"/>
		<path id="Star_72_" fill="#58585B" d="M134.7,54.6l0.8,2.4c0,0.1,0.1,0.1,0.1,0.1c0,0,0,0,0,0c0,0,0.1,0,0.1-0.1l1.5-2.1l2.5,0
			c0,0,0,0,0,0c0.1,0,0.1,0,0.1-0.1c0-0.1,0-0.1,0-0.2l-1.5-2l0.8-2.4c0,0,0,0,0-0.1c0-0.1-0.1-0.1-0.1-0.1h0c0,0,0,0,0,0h0l0,0
			c0,0,0,0,0,0l-2.4,0.8l-2-1.5c0,0-0.1,0-0.1,0c0,0,0,0-0.1,0c0,0-0.1,0.1-0.1,0.1l0,2.5l-2.1,1.5c0,0-0.1,0.1-0.1,0.1
			c0,0.1,0,0.1,0.1,0.1L134.7,54.6z M138.8,54.8l0.9,0l0,0L138.8,54.8z M139,50.3l-0.3,0.9L139,50.3L139,50.3z M135.2,50.1l-0.8-0.5
			l0-0.1L135.2,50.1z M133.1,53.1l-0.7,0.6l-0.1,0L133.1,53.1z"/>
		<path id="Star_71_" fill="#58585B" d="M116.3,44.2l2.5-0.2l1.6,1.9c0,0,0.1,0.1,0.1,0.1c0,0,0,0,0,0c0.1,0,0.1-0.1,0.1-0.1
			l0.6-2.5l2.4-0.9c0.1,0,0.1-0.1,0.1-0.1c0-0.1,0-0.1-0.1-0.1l-2.2-1.3l-0.2-2.5c0-0.1,0-0.1-0.1-0.1c0,0,0,0-0.1,0
			c0,0-0.1,0-0.1,0l-1.9,1.7l-2.5-0.6c0,0,0,0,0,0c0,0-0.1,0-0.1,0.1c0,0,0,0.1,0,0.2l1,2.3l-1.3,2.1c0,0,0,0.1,0,0.2
			C116.2,44.1,116.2,44.2,116.3,44.2C116.3,44.2,116.3,44.2,116.3,44.2z M122.6,42.6l0.8-0.4l0,0L122.6,42.6z M121.2,39.3l-0.1-0.9
			l0,0L121.2,39.3z M117.5,39.7l-0.9-0.2l0,0L117.5,39.7z M116.8,43.2l-0.5,0.8l-0.1,0L116.8,43.2z"/>
	</g>
</g>
</svg>
