<?xml version="1.0" encoding="utf-8"?>
<!-- Generator: Adobe Illustrator 22.0.1, SVG Export Plug-In . SVG Version: 6.00 Build 0)  -->
<svg version="1.1" id="Layer_1" xmlns="http://www.w3.org/2000/svg" xmlns:xlink="http://www.w3.org/1999/xlink" x="0px" y="0px"
	 viewBox="0 0 200 200" enable-background="new 0 0 200 200" xml:space="preserve">
<g id="_x32__Flags">
	<g id="_x34_TH_JULY">
		<path id="_x34__2_" fill="#58585B" d="M61.9,139.6v-2.1h2.8v2.1h1.2v2.6h-1.2v2.1h-2.8v-2.1h-4.3v-2.4l2.7-6.5h2.9l-2.5,6.2H61.9z
			"/>
		<path id="T_1_" fill="#58585B" d="M71.6,136.2v8.1h-3v-8.1h-2.6v-2.9h8.2v2.9H71.6z"/>
		<path id="H_1_" fill="#58585B" d="M80.7,144.3v-4h-2.8v4h-3v-10.9h3v4.2h2.8v-4.2h3v10.9H80.7z"/>
		<path id="O" fill="#58585B" d="M97.3,138.8c0,3.2-2.1,5.6-5,5.6c-2.9,0-5-2.4-5-5.6c0-3.2,2.1-5.6,5-5.6
			C95.2,133.3,97.3,135.6,97.3,138.8z M90.4,138.9c0,1.5,0.9,2.6,2,2.6s1.9-1.1,1.9-2.6s-0.8-2.6-1.9-2.6
			C91.3,136.3,90.4,137.4,90.4,138.9z"/>
		<path id="F" fill="#58585B" d="M101.2,136.1v1.9h4v2.7h-4v3.6h-3v-10.9h7.3v2.7H101.2z"/>
		<path id="J_2_" fill="#58585B" d="M115.4,140.6c0,2.5-1.3,3.9-3.4,3.9c-1.5,0-2.6-0.7-3.6-1.9l1.4-2.3c0.7,0.9,1.4,1.2,1.9,1.2
			c0.4,0,0.7-0.3,0.7-0.9v-4.3h-3.1v-2.9h6.1V140.6z"/>
		<path id="U_4_" fill="#58585B" d="M125.2,139.7c0,2.9-1.7,4.8-4.3,4.8c-2.7,0-4.4-1.9-4.4-4.8v-6.3h3v6.3c0,1.1,0.7,1.8,1.4,1.8
			c0.7,0,1.3-0.7,1.3-1.8v-6.3h3V139.7z"/>
		<path id="L_2_" fill="#58585B" d="M133.2,141.3v3h-6.8v-10.9h3v7.9H133.2z"/>
		<path id="Y_5_" fill="#58585B" d="M139.5,144.3h-3V141l-3.3-7.6h3l1.8,4.2l1.8-4.2h3l-3.3,7.5V144.3z"/>
	</g>
	<path id="Flags" fill="#58585B" d="M179.3,86.8L126.6,61l0.4-0.9c0.3-0.5,0.3-1.1,0.1-1.7c-0.2-0.6-0.6-1-1.1-1.3l-2.9-1.4
		c-0.3-0.2-0.6-0.2-1-0.2c-0.8,0-1.6,0.5-2,1.2L100,98L79.9,56.8c-0.4-0.8-1.2-1.2-2-1.2c-0.3,0-0.7,0.1-1,0.2L74,57.2
		c-0.5,0.3-0.9,0.7-1.1,1.3c-0.2,0.6-0.2,1.2,0.1,1.7l0.5,1L20.7,86.8c-0.3,0.1-0.5,0.4-0.6,0.7c-0.1,0.3-0.1,0.6,0.1,0.9l19.7,40.4
		c0.2,0.4,0.6,0.7,1.1,0.7c0.2,0,0.4,0,0.5-0.1l52.8-25.7l1.5,3.1l-6.1,12.6c-0.3,0.5-0.3,1.1-0.1,1.7c0.2,0.6,0.6,1,1.1,1.3
		l2.9,1.4c0.3,0.2,0.6,0.2,1,0.2c0.8,0,1.6-0.5,2-1.2l3.5-7.2l3.5,7.2c0.4,0.8,1.2,1.2,2,1.2c0.3,0,0.7-0.1,1-0.2l2.9-1.4
		c0.5-0.3,0.9-0.7,1.1-1.3c0.2-0.6,0.2-1.2-0.1-1.7l-6.1-12.6l1.5-3.2l52.7,25.8c0.2,0.1,0.3,0.1,0.5,0.1c0.1,0,0.3,0,0.4-0.1
		c0.3-0.1,0.6-0.3,0.7-0.6l19.7-40.4C180.2,87.8,179.9,87.1,179.3,86.8z M31.1,105.5l22.1-10.8L52,92.2l-22.1,10.8l-1.7-3.6
		l22.1-10.8L49,86.1L26.9,96.9l-1.7-3.6l22.1-10.8L46,80L23.9,90.8l-1.1-2.3l51.4-25l10,20.6l-51.4,25L31.1,105.5z M34.1,111.5
		l51.4-25l1.7,3.6l-51.4,25L34.1,111.5z M38.8,121.2l-1.7-3.6l51.4-25l1.7,3.6L38.8,121.2z M41.5,126.7l-1.5-3l51.4-25l1.5,3
		L41.5,126.7z M75,59.2l2.9-1.4l20.9,42.8l-1.8,3.7L75,59.2z M108.4,120.3l-2.9,1.4l-4.3-8.7l1.8-3.7L108.4,120.3z M94.5,121.8
		l-2.9-1.4l30.5-62.6l2.9,1.4L94.5,121.8z M158.5,126.7l-51.5-25.2l1.4-2.9l51.5,25.1L158.5,126.7z M161.2,121.2l-51.5-25.1l1.7-3.6
		l51.5,25.1L161.2,121.2z M164.2,115.1L112.7,90l1.7-3.6l51.5,25.1L164.2,115.1z M176.1,90.8L154,80l-1.2,2.5l22.1,10.8l-1.7,3.6
		L151,86.1l-1.2,2.5l22.1,10.8l-1.7,3.6L148,92.2l-1.2,2.5l22.1,10.8l-1.7,3.6l-51.5-25.1l10.1-20.7l51.5,25.2L176.1,90.8z"/>
	<g id="Stars">
		<polygon id="Star_86_" fill="#58585B" points="144.6,81.7 145.8,83.3 146.4,81.4 148.3,80.7 146.6,79.6 146.6,77.5 145,78.8 
			143,78.1 143.7,80.1 142.5,81.8 		"/>
		<polygon id="Star_87_" fill="#58585B" points="139.8,88.1 138.6,89.8 140.6,89.7 141.8,91.4 142.4,89.4 144.4,88.8 142.7,87.6 
			142.7,85.6 141,86.8 139.1,86.2 		"/>
		<polygon id="Star_88_" fill="#58585B" points="136.5,77.8 137.7,79.4 138.3,77.5 140.3,76.8 138.6,75.6 138.6,73.6 136.9,74.9 
			135,74.2 135.7,76.2 134.5,77.8 		"/>
		<polygon id="Star_89_" fill="#58585B" points="131.7,84.2 130.5,85.9 132.6,85.8 133.8,87.5 134.4,85.5 136.3,84.9 134.6,83.7 
			134.6,81.6 133,82.9 131,82.3 		"/>
		<polygon id="Star_90_" fill="#58585B" points="128.5,73.9 129.7,75.5 130.3,73.5 132.2,72.9 130.5,71.7 130.5,69.7 128.9,70.9 
			126.9,70.3 127.6,72.2 126.4,73.9 		"/>
		<polygon id="Star_91_" fill="#58585B" points="126.6,77.7 125,79 123,78.4 123.7,80.3 122.5,82 124.5,81.9 125.8,83.6 126.3,81.6 
			128.3,80.9 126.6,79.8 		"/>
		<path id="Star_92_" fill="#58585B" d="M57.5,82.1C57.5,82.1,57.5,82.1,57.5,82.1c0.1,0,0.2-0.1,0.3-0.2c0.1-0.1,0-0.2,0-0.3
			L56.7,80l0.6-1.7c0,0,0-0.1,0-0.1c0-0.2-0.1-0.3-0.3-0.3h0l0,0c0,0,0,0,0,0c0,0,0,0,0,0c0,0-0.1,0-0.1,0l-1.8,0.6l-1.5-1.2
			c-0.1,0-0.1-0.1-0.2-0.1c0,0-0.1,0-0.1,0c-0.1,0.1-0.2,0.2-0.2,0.3l0,1.9l-1.6,1.1c-0.1,0.1-0.2,0.2-0.1,0.3
			c0,0.1,0.1,0.2,0.2,0.3l1.8,0.6l0.5,1.8c0,0.1,0.1,0.2,0.3,0.2c0,0,0,0,0.1,0c0.1,0,0.2,0,0.3-0.1l1.1-1.5L57.5,82.1z"/>
		<path id="Star_93_" fill="#58585B" d="M60.6,88.1l0.6-1.7c0,0,0-0.1,0-0.1c0-0.2-0.1-0.3-0.3-0.3h0c0,0,0,0,0,0c0,0,0,0,0,0
			c0,0-0.1,0-0.1,0L59,86.5l-1.5-1.2c-0.1,0-0.1-0.1-0.2-0.1c0,0-0.1,0-0.1,0c-0.1,0.1-0.2,0.2-0.2,0.3l0,1.9l-1.6,1.1
			c-0.1,0.1-0.2,0.2-0.1,0.3c0,0.1,0.1,0.2,0.2,0.3l1.8,0.6l0.5,1.8c0,0.1,0.1,0.2,0.3,0.2c0,0,0,0,0.1,0c0.1,0,0.2,0,0.3-0.1
			l1.1-1.5l1.9,0.1c0,0,0,0,0,0c0.1,0,0.2-0.1,0.3-0.2c0.1-0.1,0-0.2,0-0.3L60.6,88.1z"/>
		<path id="Star_94_" fill="#58585B" d="M65.5,78.2C65.5,78.2,65.5,78.2,65.5,78.2c0.1,0,0.2-0.1,0.3-0.2c0.1-0.1,0-0.2,0-0.3
			l-1.1-1.5l0.6-1.7c0,0,0-0.1,0-0.1c0-0.2-0.1-0.3-0.3-0.3h0c0,0,0,0,0,0c0,0,0,0,0,0c0,0-0.1,0-0.1,0l-1.8,0.6l-1.5-1.2
			c-0.1,0-0.1-0.1-0.2-0.1c0,0-0.1,0-0.1,0c-0.1,0.1-0.2,0.2-0.2,0.3l0,1.9l-1.6,1.1c-0.1,0.1-0.2,0.2-0.1,0.3
			c0,0.1,0.1,0.2,0.2,0.3l1.8,0.6l0.5,1.8c0,0.1,0.1,0.2,0.3,0.2c0,0,0,0,0.1,0c0.1,0,0.2,0,0.3-0.1l1.1-1.5L65.5,78.2z"/>
		<path id="Star_95_" fill="#58585B" d="M68.6,84.2l0.6-1.7c0,0,0-0.1,0-0.1c0-0.2-0.1-0.3-0.3-0.3h0c0,0,0,0,0,0c0,0,0,0,0,0
			c0,0,0,0,0,0c0,0-0.1,0-0.1,0l-1.8,0.6l-1.5-1.2c-0.1,0-0.1-0.1-0.2-0.1c0,0-0.1,0-0.1,0c-0.1,0.1-0.2,0.2-0.2,0.3l0,1.9l-1.6,1.1
			c-0.1,0.1-0.2,0.2-0.1,0.3c0,0.1,0.1,0.2,0.2,0.3l1.8,0.6l0.5,1.8c0,0.1,0.1,0.2,0.3,0.2c0,0,0,0,0.1,0c0.1,0,0.2,0,0.3-0.1
			l1.1-1.5l1.9,0.1c0,0,0,0,0,0c0.1,0,0.2-0.1,0.3-0.2c0.1-0.1,0-0.2,0-0.3L68.6,84.2z"/>
		<path id="Star_96_" fill="#58585B" d="M73.6,74.2C73.6,74.2,73.6,74.2,73.6,74.2c0.1,0,0.2-0.1,0.3-0.2c0.1-0.1,0-0.2,0-0.3
			l-1.1-1.5l0.6-1.7c0,0,0-0.1,0-0.1c0-0.2-0.1-0.3-0.3-0.3h0h0c0,0,0,0,0,0c0,0-0.1,0-0.1,0l-1.8,0.6l-1.5-1.2
			c-0.1,0-0.1-0.1-0.2-0.1c0,0-0.1,0-0.1,0c-0.1,0.1-0.2,0.2-0.2,0.3l0,1.9l-1.6,1.1c-0.1,0.1-0.2,0.2-0.1,0.3
			c0,0.1,0.1,0.2,0.2,0.3l1.8,0.6l0.5,1.8c0,0.1,0.1,0.2,0.3,0.2c0,0,0,0,0.1,0c0.1,0,0.2,0,0.3-0.1l1.1-1.5L73.6,74.2z"/>
		<path id="Star_97_" fill="#58585B" d="M77.8,81.8l-1.1-1.5l0.6-1.7c0,0,0-0.1,0-0.1c0-0.2-0.1-0.3-0.3-0.3h0h0c0,0,0,0,0,0
			c0,0,0,0,0,0c0,0,0,0,0,0c0,0-0.1,0-0.1,0l-1.8,0.6l-1.5-1.2c-0.1,0-0.1-0.1-0.2-0.1c0,0-0.1,0-0.1,0c-0.1,0.1-0.2,0.2-0.2,0.3
			l0,1.9l-1.6,1.1c-0.1,0.1-0.2,0.2-0.1,0.3c0,0.1,0.1,0.2,0.2,0.3l1.8,0.6l0.5,1.8c0,0.1,0.1,0.2,0.3,0.2c0,0,0,0,0.1,0
			c0.1,0,0.2,0,0.3-0.1l1.1-1.5l1.9,0.1c0,0,0,0,0,0c0.1,0,0.2-0.1,0.3-0.2C77.9,82,77.8,81.9,77.8,81.8z"/>
	</g>
</g>
</svg>
