<?xml version="1.0" encoding="utf-8"?>
<!-- Generator: Adobe Illustrator 22.0.1, SVG Export Plug-In . SVG Version: 6.00 Build 0)  -->
<svg version="1.1" id="Layer_1" xmlns="http://www.w3.org/2000/svg" xmlns:xlink="http://www.w3.org/1999/xlink" x="0px" y="0px"
	 viewBox="0 0 200 200" enable-background="new 0 0 200 200" xml:space="preserve">
<g id="USA_Sunglasses">
	<path id="Star_56_" fill="#58585B" d="M65.4,81.3L65.4,81.3c-0.2,0-0.3,0.1-0.4,0.2l-1.1,2.2l-2.5,0.4c-0.2,0-0.3,0.1-0.3,0.3
		c0,0.2,0,0.3,0.1,0.4l1.8,1.7L62.5,89c0,0.2,0,0.3,0.2,0.4c0.1,0.1,0.2,0.1,0.2,0.1c0.1,0,0.1,0,0.2,0l2.2-1.2l2.2,1.2
		c0.1,0,0.1,0,0.2,0c0.1,0,0.2,0,0.2-0.1c0.1-0.1,0.2-0.3,0.2-0.4l-0.4-2.5l1.8-1.7c0.1-0.1,0.2-0.3,0.1-0.4c0-0.2-0.2-0.3-0.3-0.3
		l-2.5-0.4l-1.1-2.2C65.7,81.4,65.5,81.3,65.4,81.3L65.4,81.3z"/>
	<path id="Star_55_" fill="#58585B" d="M65.3,93.3L65.3,93.3c-0.2,0-0.3,0.1-0.4,0.2l-1.1,2.2l-2.5,0.4c-0.2,0-0.3,0.1-0.3,0.3
		c-0.1,0.2,0,0.3,0.1,0.4l1.8,1.7l-0.4,2.5c0,0.2,0,0.3,0.2,0.4c0.1,0.1,0.2,0.1,0.2,0.1c0.1,0,0.1,0,0.2,0l2.2-1.2l2.2,1.2
		c0.1,0,0.1,0,0.2,0c0.1,0,0.2,0,0.2-0.1c0.1-0.1,0.2-0.3,0.2-0.4l-0.4-2.5l1.8-1.7c0.1-0.1,0.2-0.3,0.1-0.4
		c-0.1-0.2-0.2-0.3-0.3-0.3l-2.5-0.4l-1.1-2.2C65.7,93.4,65.5,93.3,65.3,93.3L65.3,93.3z"/>
	<path id="Star_54_" fill="#58585B" d="M52.5,81.3c-0.2,0-0.3,0.1-0.4,0.2L51,83.8l-2.5,0.4c-0.2,0-0.3,0.1-0.3,0.3
		c0,0.2,0,0.3,0.1,0.4l1.8,1.7L49.7,89c0,0.2,0,0.3,0.2,0.4c0.1,0.1,0.2,0.1,0.2,0.1c0.1,0,0.1,0,0.2,0l2.2-1.2l2.2,1.2
		c0.1,0,0.1,0,0.2,0c0.1,0,0.2,0,0.2-0.1c0.1-0.1,0.2-0.3,0.2-0.4l-0.4-2.5l1.8-1.7c0.1-0.1,0.2-0.3,0.1-0.4c0-0.2-0.2-0.3-0.3-0.3
		L54,83.8l-1.1-2.2C52.8,81.4,52.7,81.3,52.5,81.3L52.5,81.3z"/>
	<path id="Star_53_" fill="#58585B" d="M52.5,93.3c-0.2,0-0.3,0.1-0.4,0.2L51,95.8l-2.5,0.4c-0.2,0-0.3,0.1-0.3,0.3
		c0,0.2,0,0.3,0.1,0.4l1.8,1.7l-0.4,2.5c0,0.2,0,0.3,0.2,0.4c0.1,0.1,0.2,0.1,0.2,0.1c0.1,0,0.1,0,0.2,0l2.2-1.2l2.2,1.2
		c0.1,0,0.1,0,0.2,0c0.1,0,0.2,0,0.2-0.1c0.1-0.1,0.2-0.3,0.2-0.4l-0.4-2.5l1.8-1.7c0.1-0.1,0.2-0.3,0.1-0.4c0-0.2-0.2-0.3-0.3-0.3
		L54,95.8l-1.1-2.2C52.8,93.4,52.7,93.3,52.5,93.3L52.5,93.3z"/>
	<path id="Sunglasses_3_" fill="#59595C" d="M164.3,93.8h-3.6v-3.3c0-10.5-7.6-15.9-15.1-15.9h-27.8c-4.6,0-8.2,1.8-10.6,5.1
		c-1,1.4-1.6,2.9-2.1,4.6c-3.5-0.7-6.9-0.7-10.3,0c-0.5-1.7-1.2-3.2-2.1-4.6c-2.3-3.3-6-5.1-10.6-5.1H54.4
		c-7.5,0-15.1,5.5-15.1,15.9v3.3h-3.6c-1,0-1.7,0.8-1.7,1.7c0,1,0.8,1.7,1.7,1.7h3.6v7c0,10.5,7.3,21.1,21.2,21.1
		c11,0,25.7-4.3,33.3-24.9c1.4-3.8,2.1-8.4,1.7-12.8c3-0.6,6-0.6,9,0c-0.5,4.4,0.3,9.1,1.7,12.8c7.6,20.6,22.3,24.9,33.3,24.9
		c13.9,0,21.2-10.6,21.2-21.1v-7h3.6c1,0,1.7-0.8,1.7-1.7C166,94.6,165.2,93.8,164.3,93.8z M60.5,121.9c-4.7,0-8.5-1.5-11.3-3.8
		h26.6C70.6,121.1,65.2,121.9,60.5,121.9z M81.1,114.3H45.7c-0.9-1.4-1.6-2.9-2.1-4.5H85C83.8,111.6,82.5,113,81.1,114.3z M92,93.2
		c-0.2,1.5-0.5,3-0.9,4.5H73.7v3.9h16c-0.7,1.6-1.4,3.1-2.2,4.5H42.9c-0.1-0.6-0.1-1.1-0.1-1.7V90.5c0-8.6,6-12.5,11.6-12.5h27.8
		c3.1,0,5.5,1,7.2,3H73.7v3.9h17.7c0.4,1.4,0.7,2.9,0.7,4.5H73.7v3.9H92z M157.1,106h-44.7c-0.8-1.4-1.5-2.9-2.2-4.5h46.9v2.7
		C157.2,104.8,157.2,105.4,157.1,106z M108.9,97.7c-0.4-1.4-0.7-2.9-0.9-4.5h49.2v4.5H108.9z M107.9,89.3c0.1-1.6,0.3-3.1,0.7-4.5
		h47.6c0.5,1.3,0.9,2.8,1,4.5H107.9z M117.9,78.1h27.8c2.8,0,5.6,1,7.8,3h-42.8C112.3,79.1,114.7,78.1,117.9,78.1z M115,109.9h41.4
		c-0.5,1.6-1.2,3.1-2.1,4.5h-35.4C117.5,113,116.2,111.6,115,109.9z M124.2,118.2h26.6c-2.9,2.3-6.6,3.8-11.3,3.8
		C134.8,121.9,129.4,121.1,124.2,118.2z"/>
</g>
</svg>
