<?xml version="1.0" encoding="utf-8"?>
<!-- Generator: Adobe Illustrator 22.0.1, SVG Export Plug-In . SVG Version: 6.00 Build 0)  -->
<svg version="1.1" id="Layer_1" xmlns="http://www.w3.org/2000/svg" xmlns:xlink="http://www.w3.org/1999/xlink" x="0px" y="0px"
	 viewBox="0 0 200 200" enable-background="new 0 0 200 200" xml:space="preserve">
<g id="USA_Shield">
	<path id="Bottom_Shield" fill="#59595C" d="M100,155c-0.3,0-0.6-0.1-0.8-0.3c-0.2-0.1-20.4-14.4-28.8-21c-6.4-5-9.7-14-9.7-26.1
		V92.3c0-0.8,0.6-1.4,1.4-1.4c0.8,0,1.4,0.6,1.4,1.4v15.4c0,11.2,3,19.5,8.7,23.9c7.4,5.8,24,17.6,27.9,20.4
		c3.8-2.7,20.5-14.6,27.9-20.4c5.7-4.4,8.7-12.7,8.7-23.9V92.3c0-0.8,0.6-1.4,1.4-1.4c0.8,0,1.4,0.6,1.4,1.4v15.4
		c0,12.1-3.4,21.1-9.7,26.1c-8.4,6.6-28.6,20.9-28.8,21C100.6,154.9,100.3,155,100,155z"/>
	<g id="Bars_Group">
		<path id="Bar_4_" fill="#58585B" d="M124.9,128.1c6.5-5.7,7.1-15.8,7.1-20.6c0-2,0-6.1,0-14.5h-7.1V128.1z"/>
		<path id="Bar_3_" fill="#58585B" d="M110.7,138.8c2.3-1.7,4.8-3.5,7.1-5.2v-17.9h-7.1V138.8z"/>
		<path id="Bar_2_" fill="#58585B" d="M96.4,143.9v-28.2h7.1v28.2c-2.2,1.5-3.6,2.5-3.6,2.5S98.6,145.5,96.4,143.9z"/>
		<path id="Bar_1_" fill="#58585B" d="M89.3,115.7h-7.1v17.9c2.3,1.7,4.8,3.5,7.1,5.2V115.7z"/>
		<path id="Bar" fill="#58585B" d="M67.9,93h7.1v35.1c-5.7-5-6.9-13.3-7.1-18.6V93z"/>
	</g>
	<g id="DAY_Group">
		<path id="Y_1_" fill="#58585B" d="M114.1,103.9v4.5h1.1v3h-5.6v-3h1.1v-4.5l-2.7-6.7h-0.7v-3.1h4.9v3.1h-0.8l1.1,2.7l1.1-2.7h-0.8
			v-3.1h4.7v3.1h-0.9L114.1,103.9z"/>
		<path id="A_2_" fill="#58585B" d="M101,111.4h-4.6v-3H97l2.6-11.2h-0.8l0-3.1h5.2v3.1h-0.6l2.9,11.2h0.6v3h-4.6v-3h0.8l-0.2-0.9
			h-2.4l-0.3,0.9h0.8V111.4z M102.3,105.1l-0.7-2.7l-0.7,2.7H102.3z"/>
		<path id="D_2_" fill="#58585B" d="M92.6,111.4h-9.6l0-3h1.3V97.2H83V94h9.6l1.9,1.7v14L92.6,111.4z M90.9,97.2h-3.2v11.2h3.2V97.2
			z"/>
	</g>
	<path id="Line_2" fill="#59595C" d="M153.7,89H46.3c-0.8,0-1.4-0.6-1.4-1.4c0-0.8,0.6-1.4,1.4-1.4h107.4c0.8,0,1.4,0.6,1.4,1.4
		C155,88.4,154.4,89,153.7,89z"/>
	<g id="Independence">
		<path id="E_3_" fill="#58585B" d="M149,72.9v3h4.6v1.7H149v3.1h5.3v1.7h-6.8V71.2h6.7v1.7H149z"/>
		<path id="C" fill="#58585B" d="M145.8,72.9l-0.9,1.4c-0.7-0.9-1.7-1.4-2.6-1.4c-1.9,0-3.3,1.7-3.3,3.9c0,2.2,1.5,4,3.3,4
			c0.9,0,1.9-0.5,2.6-1.3l0.9,1.2c-0.9,1.1-2.3,1.8-3.6,1.8c-2.7,0-4.9-2.5-4.9-5.7c0-3.2,2.2-5.6,4.9-5.6
			C143.5,71.2,144.9,71.8,145.8,72.9z"/>
		<path id="N_2_" fill="#58585B" d="M134.1,82.4l-5-8.1v8.1h-1.6V71.2h1.5l5,8.1v-8.1h1.5v11.2H134.1z"/>
		<path id="E_2_" fill="#58585B" d="M120.3,72.9v3h4.6v1.7h-4.6v3.1h5.3v1.7h-6.8V71.2h6.7v1.7H120.3z"/>
		<path id="D_1_" fill="#58585B" d="M112.2,71.2c2.8,0,4.8,2.4,4.8,5.6c0,3.2-2,5.6-4.9,5.6h-3.8V71.2H112.2z M110,80.7h2.3
			c1.8,0,3.2-1.6,3.2-3.9c0-2.3-1.4-3.9-3.3-3.9H110V80.7z"/>
		<path id="N_1_" fill="#58585B" d="M104.4,82.4l-5-8.1v8.1h-1.6V71.2h1.5l5,8.1v-8.1h1.6v11.2H104.4z"/>
		<path id="E_1_" fill="#58585B" d="M90.6,72.9v3h4.6v1.7h-4.6v3.1h5.3v1.7H89V71.2h6.7v1.7H90.6z"/>
		<path id="P" fill="#58585B" d="M83.8,71.2c2.4,0,3.7,1.4,3.7,3.8c0,2.5-1.3,4-3.7,4h-2.2v3.4H80V71.2H83.8z M81.6,77.3h2.1
			c1.4,0,2.3-0.7,2.3-2.3c0-1.5-0.8-2.2-2.3-2.2h-2.1V77.3z"/>
		<path id="E" fill="#58585B" d="M72.9,72.9v3h4.6v1.7h-4.6v3.1h5.3v1.7h-6.8V71.2H78v1.7H72.9z"/>
		<path id="D" fill="#58585B" d="M64.8,71.2c2.8,0,4.8,2.4,4.8,5.6c0,3.2-2,5.6-4.9,5.6h-3.8V71.2H64.8z M62.5,80.7h2.3
			c1.8,0,3.2-1.6,3.2-3.9c0-2.3-1.4-3.9-3.3-3.9h-2.2V80.7z"/>
		<path id="N" fill="#58585B" d="M56.9,82.4l-5-8.1v8.1h-1.6V71.2h1.6l5,8.1v-8.1h1.6v11.2H56.9z"/>
		<path id="I" fill="#58585B" d="M46.3,82.4V71.2h1.6v11.2H46.3z"/>
	</g>
	<path id="Line_1" fill="#59595C" d="M153.7,66.9H46.3c-0.8,0-1.4-0.6-1.4-1.4c0-0.8,0.6-1.4,1.4-1.4h107.4c0.8,0,1.4,0.6,1.4,1.4
		C155,66.3,154.4,66.9,153.7,66.9z"/>
	<g id="_x35__Stars_Group">
		<path id="Star_37_" fill="#59595C" d="M100,51.6L100,51.6c-0.2,0-0.3,0.1-0.4,0.2L98.5,54l-2.5,0.4c-0.2,0-0.3,0.1-0.3,0.3
			c0,0.2,0,0.3,0.1,0.4l1.8,1.7l-0.4,2.5c0,0.2,0,0.3,0.2,0.4c0.1,0.1,0.2,0.1,0.2,0.1c0.1,0,0.1,0,0.2,0l2.2-1.2l2.2,1.2
			c0.1,0,0.1,0,0.2,0c0.1,0,0.2,0,0.2-0.1c0.1-0.1,0.2-0.3,0.2-0.4l-0.4-2.5l1.8-1.7c0.1-0.1,0.2-0.3,0.1-0.4c0-0.2-0.2-0.3-0.3-0.3
			l-2.5-0.4l-1.1-2.2C100.3,51.7,100.2,51.6,100,51.6L100,51.6z"/>
		<path id="Star_38_" fill="#59595C" d="M113.8,51.6L113.8,51.6c-0.2,0-0.3,0.1-0.4,0.2l-1.1,2.2l-2.5,0.4c-0.2,0-0.3,0.1-0.3,0.3
			c0,0.2,0,0.3,0.1,0.4l1.8,1.7l-0.4,2.5c0,0.2,0,0.3,0.2,0.4c0.1,0.1,0.2,0.1,0.2,0.1c0.1,0,0.1,0,0.2,0l2.2-1.2l2.2,1.2
			c0.1,0,0.1,0,0.2,0c0.1,0,0.2,0,0.2-0.1c0.1-0.1,0.2-0.3,0.2-0.4l-0.4-2.5l1.8-1.7c0.1-0.1,0.2-0.3,0.1-0.4c0-0.2-0.2-0.3-0.3-0.3
			l-2.5-0.4l-1.1-2.2C114.1,51.7,114,51.6,113.8,51.6L113.8,51.6z"/>
		<path id="Star_39_" fill="#59595C" d="M127.6,51.6L127.6,51.6c-0.2,0-0.3,0.1-0.4,0.2l-1.1,2.2l-2.5,0.4c-0.2,0-0.3,0.1-0.3,0.3
			c-0.1,0.2,0,0.3,0.1,0.4l1.8,1.7l-0.4,2.5c0,0.2,0,0.3,0.2,0.4c0.1,0.1,0.2,0.1,0.2,0.1c0.1,0,0.1,0,0.2,0l2.2-1.2l2.2,1.2
			c0.1,0,0.1,0,0.2,0c0.1,0,0.2,0,0.2-0.1c0.1-0.1,0.2-0.3,0.2-0.4l-0.4-2.5l1.8-1.7c0.1-0.1,0.2-0.3,0.1-0.4c0-0.2-0.2-0.3-0.3-0.3
			l-2.5-0.4l-1.1-2.2C127.9,51.7,127.8,51.6,127.6,51.6L127.6,51.6z"/>
		<path id="Star_40_" fill="#59595C" d="M86.2,51.6L86.2,51.6c-0.2,0-0.3,0.1-0.4,0.2L84.7,54l-2.5,0.4c-0.2,0-0.3,0.1-0.3,0.3
			c0,0.2,0,0.3,0.1,0.4l1.8,1.7l-0.4,2.5c0,0.2,0,0.3,0.2,0.4c0.1,0.1,0.2,0.1,0.2,0.1c0.1,0,0.1,0,0.2,0l2.2-1.2l2.2,1.2
			c0.1,0,0.1,0,0.2,0c0.1,0,0.2,0,0.2-0.1c0.1-0.1,0.2-0.3,0.2-0.4l-0.4-2.5l1.8-1.7c0.1-0.1,0.2-0.3,0.1-0.4c0-0.2-0.2-0.3-0.3-0.3
			L87.7,54l-1.1-2.2C86.5,51.7,86.3,51.6,86.2,51.6L86.2,51.6z"/>
		<path id="Star_41_" fill="#59595C" d="M72.4,51.6L72.4,51.6c-0.2,0-0.3,0.1-0.4,0.2L70.9,54l-2.5,0.4c-0.2,0-0.3,0.1-0.3,0.3
			c0,0.2,0,0.3,0.1,0.4l1.8,1.7l-0.4,2.5c0,0.2,0,0.3,0.2,0.4c0.1,0.1,0.2,0.1,0.2,0.1c0.1,0,0.1,0,0.2,0l2.2-1.2l2.2,1.2
			c0.1,0,0.1,0,0.2,0c0.1,0,0.2,0,0.2-0.1c0.1-0.1,0.2-0.3,0.2-0.4l-0.4-2.5l1.8-1.7c0.1-0.1,0.2-0.3,0.1-0.4
			c-0.1-0.2-0.2-0.3-0.3-0.3L73.8,54l-1.1-2.2C72.7,51.7,72.5,51.6,72.4,51.6L72.4,51.6z"/>
	</g>
	<path id="Top_Line" fill="#59595C" d="M137.9,62.6c-0.8,0-1.4-0.6-1.4-1.4V47.7H63.5v13.5c0,0.8-0.6,1.4-1.4,1.4
		c-0.8,0-1.4-0.6-1.4-1.4V46.4c0-0.8,0.6-1.4,1.4-1.4h75.8c0.8,0,1.4,0.6,1.4,1.4v14.9C139.3,62,138.7,62.6,137.9,62.6z"/>
</g>
</svg>
