<?xml version="1.0" encoding="utf-8"?>
<!-- Generator: Adobe Illustrator 22.0.1, SVG Export Plug-In . SVG Version: 6.00 Build 0)  -->
<svg version="1.1" id="Layer_1" xmlns="http://www.w3.org/2000/svg" xmlns:xlink="http://www.w3.org/1999/xlink" x="0px" y="0px"
	 viewBox="0 0 200 200" enable-background="new 0 0 200 200" xml:space="preserve">
<g id="Cupcacke">
	<path id="Cupcake" fill="#58585B" d="M132.8,82.8c-0.5-9-7.9-16.1-17-16.1c-1.4,0-2.8,0.2-4.1,0.5c-1-1.1-2.1-2.1-3.4-3
		c1.3-1.6,2.1-3.7,2.1-5.9c0-4.1-2.6-7.6-6.2-9c0,0,0-0.1,0.1-0.1c1-1,2.3-1.5,3.9-1.5c0.7,0,1.3-0.6,1.3-1.3c0-0.7-0.6-1.3-1.3-1.3
		c-2.3,0-4.2,0.8-5.7,2.3c-0.4,0.4-0.7,0.8-1,1.3c-0.2,0-0.4,0-0.7,0c-5.3,0-9.7,4.3-9.7,9.7c0,2,0.6,3.8,1.6,5.3
		c-1.7,0.9-3.3,2.2-4.5,3.7c-1.4-0.4-2.9-0.6-4.3-0.6c-9.1,0-16.5,7.2-17,16.1c-6.9,0.7-12.3,6.5-12.3,13.6c0,4.8,2.6,9.3,6.7,11.7
		c0,0,0,0,0,0c0.5,2.1,2.2,9.2,9.1,36.5c0.7,2.9,1.3,5,1.4,5.5c0.8,3.3,2.7,4.9,6,4.9h44.5c3.3,0,5.2-1.6,6-4.9
		c0.1-0.5,0.6-2.4,1.3-5.2c7-27.9,8.8-35,9.2-36.9c0.1,0,0.2-0.1,0.3-0.1c4-2.5,6.3-6.8,6.3-11.5C145.4,89.2,139.9,83.3,132.8,82.8z
		 M100.2,51.9c-0.1,0.7-0.2,1.3-0.2,2c0,0.7,0.6,1.3,1.3,1.3c0,0,0,0,0,0c0.7,0,1.3-0.6,1.3-1.3c0-0.6,0.1-1.1,0.2-1.6
		c2.6,0.8,4.5,3.2,4.5,6.1c0,3.5-2.9,6.4-6.4,6.4c-3.6,0-6.4-2.9-6.4-6.4C94.3,54.9,96.9,52.2,100.2,51.9z M126.4,144.1
		c-0.7,2.7-1.2,4.7-1.3,5.2c-0.5,2.1-1.3,2.4-2.9,2.4H77.8c-1.6,0-2.3-0.3-2.9-2.4c-0.1-0.6-0.7-2.6-1.4-5.5
		c-2.4-9.5-8.7-34.6-9.1-36.7c0.1-4.1,3.4-7.3,7.7-7.3c4.3,0,7.7,3.3,7.7,7.4c0,0.9,0.7,1.6,1.6,1.6c0.9,0,1.6-0.7,1.6-1.6
		c0-4.2,3.4-7.4,7.7-7.4c4.3,0,7.7,3.3,7.7,7.4c0,0.9,0.7,1.6,1.6,1.6c0.9,0,1.6-0.7,1.6-1.6c0-4.2,3.4-7.4,7.7-7.4
		c4.2,0,7.6,3.1,7.7,7c0,0.1,0,0.3,0,0.4c0,0.9,0.7,1.6,1.6,1.6c0.9,0,1.6-0.7,1.6-1.6c0-0.1,0-0.3,0-0.3c0.1-4.1,3.5-7.2,7.7-7.2
		c4.3,0,7.6,3.2,7.7,7.3C135.3,109.2,128.9,134.5,126.4,144.1z M138.5,104.3c-1.3-4.5-5.4-7.8-10.5-7.8c-3.9,0-7.4,2-9.3,5.1
		c-1.9-3-5.4-5.1-9.3-5.1c-4,0-7.4,2-9.3,5c-1.9-3-5.3-5-9.3-5c-4,0-7.4,2-9.3,5c-1.9-3-5.3-5-9.3-5c-5.1,0-9.3,3.3-10.5,7.8
		c-2.3-2-3.7-4.9-3.7-8c0-5.7,4.7-10.4,10.4-10.4H71c0.9,0,1.6-0.7,1.6-1.6s-0.7-1.6-1.6-1.6h-0.9c0.5-7.2,6.5-12.8,13.7-12.8
		c0.8,0,1.6,0.1,2.4,0.2c-0.4,0.8-0.8,1.7-1.1,2.6c-0.2,0.9,0.2,1.8,1.1,2c0.2,0,0.3,0.1,0.5,0.1c0.7,0,1.3-0.5,1.6-1.2
		c1-3.4,3.4-6.2,6.7-7.7c1.6,1.2,3.6,1.9,5.8,1.9c1.9,0,3.6-0.6,5.1-1.5c0,0,0,0.1,0.1,0.1c2.7,1.6,4.8,4.2,5.7,7.2
		c0.2,0.7,0.9,1.2,1.6,1.2c0.1,0,0.3,0,0.5-0.1c0.9-0.2,1.4-1.1,1.1-2c-0.3-0.9-0.6-1.8-1.1-2.7c0.7-0.1,1.4-0.2,2.2-0.2
		c7.3,0,13.2,5.7,13.7,12.8H129c-0.9,0-1.6,0.7-1.6,1.6s0.7,1.6,1.6,1.6h2.8c5.7,0,10.4,4.7,10.4,10.4
		C142.2,99.5,140.8,102.3,138.5,104.3z"/>
	<path id="Star_57_" fill="#58585B" d="M78.9,118.6l-0.4,2.5c0,0.2,0,0.3,0.2,0.4c0.1,0.1,0.2,0.1,0.3,0.1c0.1,0,0.1,0,0.2-0.1
		l2.3-1.2l2.3,1.2c0.1,0,0.1,0.1,0.2,0.1c0.1,0,0.2,0,0.3-0.1c0.1-0.1,0.2-0.3,0.2-0.4l-0.4-2.5l1.8-1.8c0.1-0.1,0.2-0.3,0.1-0.4
		c-0.1-0.2-0.2-0.3-0.4-0.3l-2.5-0.4l-1.1-2.3c-0.1-0.1-0.2-0.2-0.4-0.2c-0.2,0-0.3,0.1-0.4,0.2l-1.1,2.3l-2.5,0.4
		c-0.2,0-0.3,0.1-0.4,0.3c-0.1,0.2,0,0.3,0.1,0.4L78.9,118.6z"/>
	<path id="Star_61_" fill="#58585B" d="M97.6,118.6l-0.4,2.5c0,0.2,0,0.3,0.2,0.4c0.1,0.1,0.2,0.1,0.3,0.1c0.1,0,0.1,0,0.2-0.1
		l2.3-1.2l2.3,1.2c0.1,0,0.1,0,0.2,0c0.1,0,0.2,0,0.3-0.1c0.1-0.1,0.2-0.3,0.2-0.4l-0.4-2.5l1.8-1.8c0.1-0.1,0.2-0.3,0.1-0.4
		c-0.1-0.2-0.2-0.3-0.4-0.3l-2.5-0.4l-1.1-2.3c-0.1-0.1-0.2-0.2-0.4-0.2c-0.2,0-0.3,0.1-0.4,0.2l-1.1,2.3l-2.5,0.4
		c-0.2,0-0.3,0.1-0.4,0.3c-0.1,0.2,0,0.3,0.1,0.4L97.6,118.6z"/>
	<path id="Star_62_" fill="#58585B" d="M116.2,118.6l-0.4,2.5c0,0.2,0,0.3,0.2,0.4c0.1,0.1,0.2,0.1,0.3,0.1c0.1,0,0.1,0,0.2-0.1
		l2.3-1.2l2.3,1.2c0.1,0,0.1,0,0.2,0c0.1,0,0.2,0,0.3-0.1c0.1-0.1,0.2-0.3,0.2-0.4l-0.4-2.5l1.8-1.8c0.1-0.1,0.2-0.3,0.1-0.4
		c-0.1-0.2-0.2-0.3-0.4-0.3l-2.5-0.4l-1.1-2.3c-0.1-0.1-0.2-0.2-0.4-0.2c-0.2,0-0.3,0.1-0.4,0.2l-1.1,2.3l-2.5,0.4
		c-0.2,0-0.3,0.1-0.4,0.3c-0.1,0.2,0,0.3,0.1,0.4L116.2,118.6z"/>
	<path id="Line_3_2_" fill="#58585B" d="M120,143.7H80.1c-0.6,0-1.2,0.5-1.2,1.2c0,0.6,0.5,1.2,1.2,1.2H120c0.6,0,1.2-0.5,1.2-1.2
		C121.2,144.2,120.6,143.7,120,143.7z"/>
	<path id="Line_2_3_" fill="#58585B" d="M121.3,135.9H78.7c-0.6,0-1.2,0.5-1.2,1.2c0,0.6,0.5,1.2,1.2,1.2h42.6
		c0.6,0,1.2-0.5,1.2-1.2C122.5,136.4,122,135.9,121.3,135.9z"/>
	<path id="Line_1_3_" fill="#58585B" d="M122.6,128.1H77.4c-0.6,0-1.2,0.5-1.2,1.2c0,0.6,0.5,1.2,1.2,1.2h45.2
		c0.6,0,1.2-0.5,1.2-1.2C123.8,128.6,123.3,128.1,122.6,128.1z"/>
	<g id="Lines">
		<path id="Line_18_" fill="#58585B" d="M74.4,90.9l-2.2-0.5c-0.7-0.1-1.3,0.3-1.5,0.9c-0.1,0.7,0.3,1.3,0.9,1.5l2.2,0.5
			c0.1,0,0.2,0,0.3,0c0.6,0,1.1-0.4,1.2-1C75.4,91.7,75,91.1,74.4,90.9z"/>
		<path id="Line_17_" fill="#58585B" d="M93.4,77.4c-0.5-0.4-1.3-0.3-1.7,0.2c-0.4,0.5-0.3,1.3,0.2,1.7l1.6,1.3
			c0.2,0.2,0.5,0.3,0.8,0.3c0.4,0,0.7-0.2,1-0.5c0.4-0.5,0.3-1.3-0.2-1.7L93.4,77.4z"/>
		<path id="Line_16_" fill="#58585B" d="M121.3,75.5c-0.5-0.4-1.3-0.3-1.7,0.2c-0.4,0.5-0.3,1.3,0.2,1.7l1.6,1.3
			c0.2,0.2,0.5,0.3,0.8,0.3c0.4,0,0.7-0.2,1-0.5c0.4-0.5,0.3-1.3-0.2-1.7L121.3,75.5z"/>
		<path id="Line_15_" fill="#58585B" d="M86.8,85.6l-2.4,0.7c-0.6,0.2-1,0.9-0.8,1.5c0.2,0.5,0.6,0.9,1.2,0.9c0.1,0,0.2,0,0.4-0.1
			l2.4-0.7c0.6-0.2,1-0.9,0.8-1.5C88.1,85.8,87.4,85.4,86.8,85.6z"/>
		<path id="Line_14_" fill="#58585B" d="M101.7,87.4c-0.6-0.3-1.3-0.1-1.7,0.5L99,89.8c-0.3,0.6-0.1,1.3,0.5,1.7
			c0.2,0.1,0.4,0.2,0.6,0.2c0.4,0,0.8-0.2,1.1-0.6l1.1-1.8C102.5,88.5,102.3,87.8,101.7,87.4z"/>
		<path id="Line_13_" fill="#58585B" d="M104.5,72.3l-1.7,1.1c-0.6,0.4-0.7,1.1-0.4,1.7c0.2,0.4,0.6,0.6,1,0.6
			c0.2,0,0.5-0.1,0.7-0.2l1.7-1.1c0.6-0.4,0.7-1.1,0.4-1.7C105.8,72.1,105.1,71.9,104.5,72.3z"/>
		<path id="Line_12_" fill="#58585B" d="M112.6,81.8l-2.1,0.3c-0.7,0.1-1.1,0.7-1,1.4c0.1,0.6,0.6,1,1.2,1c0.1,0,0.1,0,0.2,0
			l2.1-0.3c0.7-0.1,1.1-0.7,1-1.4C113.9,82.2,113.3,81.7,112.6,81.8z"/>
		<path id="Line_8_" fill="#58585B" d="M79.9,76.3l-2.1,0.3c-0.7,0.1-1.1,0.7-1,1.4c0.1,0.6,0.6,1,1.2,1c0.1,0,0.1,0,0.2,0l2.1-0.3
			c0.7-0.1,1.1-0.7,1-1.4C81.2,76.7,80.5,76.2,79.9,76.3z"/>
		<path id="Line_7_" fill="#58585B" d="M117.6,91.2l-1.3-0.8c-0.6-0.3-1.3-0.1-1.7,0.5c-0.3,0.6-0.1,1.3,0.5,1.7l1.3,0.8
			c0.2,0.1,0.4,0.2,0.6,0.2c0.4,0,0.8-0.2,1.1-0.6C118.4,92.3,118.1,91.6,117.6,91.2z"/>
		<path id="Line_6_" fill="#58585B" d="M131.3,89.8l-1.9,0.8c-0.6,0.3-0.9,1-0.7,1.6c0.2,0.5,0.7,0.8,1.1,0.8c0.2,0,0.3,0,0.5-0.1
			l1.9-0.8c0.6-0.3,0.9-1,0.7-1.6C132.6,89.8,131.9,89.5,131.3,89.8z"/>
	</g>
</g>
</svg>
