<?xml version="1.0" encoding="utf-8"?>
<!-- Generator: Adobe Illustrator 22.0.1, SVG Export Plug-In . SVG Version: 6.00 Build 0)  -->
<svg version="1.1" id="Layer_1" xmlns="http://www.w3.org/2000/svg" xmlns:xlink="http://www.w3.org/1999/xlink" x="0px" y="0px"
	 viewBox="0 0 200 200" enable-background="new 0 0 200 200" xml:space="preserve">
<g id="Cap_Star">
	<path id="Cap" fill="#59595C" d="M144.1,122.2c1.8-1,1.9-3.3,1.9-5.7v-9.4c0-9.4-3.8-22.9-11.1-30.5c-7.3-7.6-15.7-11.8-26.7-13.1
		c-0.6-6.3-4.7-7.7-8.1-7.7c-3.5,0-7.6,1.4-8.1,7.7c-11,1.3-19.4,5.5-26.7,13.1C57.8,84.2,54,97.7,54,107.1v9.4
		c0,2.3,0.1,4.7,1.9,5.7c0.5,0.3,1,0.4,1.6,0.4c0.1,0,0.1,0,0.2,0c-0.8,3.6-2.1,9.7-3.1,13.6c-1,4.2,0.3,6.2,1.5,7.1
		c0.9,0.7,2.1,1,3.3,1c3.1,0,6.6-1.8,8.9-3.1c10.7-6.3,21.4-9.6,31.7-9.7c10.4,0.1,21.1,3.4,31.8,9.7c3.1,1.8,8.8,4.6,12.2,2.1
		c1.2-0.9,2.5-2.9,1.5-7.1c-1-3.9-2.3-10.1-3.1-13.6C142.9,122.6,143.5,122.5,144.1,122.2z M100,59.3c2.4,0,4.1,0.7,4.6,3.8
		c-1.5-0.1-3-0.1-4.6-0.1c-1.6,0-3.1,0.1-4.6,0.1C95.9,60,97.6,59.3,100,59.3z M142.5,116.5c0,1.5-0.1,2.2-0.2,2.5
		c-0.4-0.1-1.4-0.4-3.5-1.7c-1.5-0.9-3.1-1.8-4.6-2.6c-0.9-0.4-1.9-0.1-2.4,0.8c-0.4,0.9-0.1,1.9,0.8,2.4c1.5,0.8,3,1.6,4.4,2.5
		c0.5,0.3,1,0.6,1.4,0.8c0.5,2.4,2.4,10.9,3.6,15.9c0.4,1.7,0.4,3-0.2,3.4c-0.8,0.6-3.6,0.4-8.2-2.3c-11.2-6.7-22.5-10.1-33.6-10.2
		c-11,0.1-22.3,3.6-33.5,10.2c-4.6,2.8-7.5,2.9-8.2,2.3c-0.5-0.4-0.6-1.7-0.2-3.4c1.2-5,3.1-13.5,3.6-15.9c0.5-0.2,0.9-0.5,1.4-0.8
		c1.5-0.9,3-1.7,4.4-2.5c0.9-0.4,1.2-1.5,0.8-2.4c-0.4-0.9-1.5-1.2-2.4-0.8c-1.6,0.8-3.1,1.7-4.6,2.6c-2.1,1.3-3.1,1.6-3.5,1.7
		c-0.1-0.3-0.2-1-0.2-2.5v-9.4C57.5,98.4,61,86,67.7,79c4-4.2,8.5-7.3,13.6-9.3c-3.6,6.8-5.8,13.6-6.5,24.8c0,0.8,0.5,1.5,1.3,1.5
		c0,0,0.1,0,0.1,0c0.7,0,1.4-0.6,1.4-1.3c0.8-12.2,3.4-19,7.6-26.4c4.4-1.2,9.2-1.8,14.7-1.8c5.5,0,10.4,0.6,14.7,1.8
		c3.9,6.4,6.1,13.1,7.1,21.5c0.1,0.7,0.7,1.2,1.4,1.2c0.1,0,0.1,0,0.2,0c0.8-0.1,1.3-0.8,1.2-1.6c-0.9-7.6-2.8-13.9-5.9-19.8
		c5.1,2,9.5,5.1,13.5,9.3c6.7,7,10.2,19.4,10.2,28.1V116.5z"/>
	<path id="Line_3_" fill="#59595C" d="M98.3,120.5c-7,0-14.1,1.4-21,4.2c-0.7,0.3-1.1,1.1-0.8,1.8c0.2,0.6,0.8,0.9,1.3,0.9
		c0.2,0,0.4,0,0.5-0.1c6.6-2.6,13.3-4,19.9-4c0.8,0,1.4-0.6,1.4-1.4C99.8,121.2,99.1,120.5,98.3,120.5z"/>
	<path id="Line_4_" fill="#59595C" d="M73.1,126.5c-1.7,0.8-3.3,1.7-5,2.7c-0.7,0.4-0.9,1.3-0.5,1.9c0.3,0.5,0.7,0.7,1.2,0.7
		c0.2,0,0.5-0.1,0.7-0.2c1.6-0.9,3.2-1.8,4.8-2.6c0.7-0.3,1-1.2,0.7-1.9C74.7,126.5,73.8,126.2,73.1,126.5z"/>
	<path id="Line_5_" fill="#59595C" d="M127.3,111.6c-0.8-0.3-1.6-0.6-2.4-0.9c0.1-1.7,0.4-5.4,0.4-9.4c0-0.8-0.6-1.4-1.4-1.4
		c-0.8,0-1.4,0.6-1.4,1.4c0,3.4-0.2,6.6-0.4,8.5c-7.3-2.4-14.7-3.7-22.2-3.8c-7.4,0.1-14.8,1.4-22.1,3.8c-0.1-2.1-0.4-6-0.4-9.9
		c0-0.8-0.6-1.4-1.4-1.4c0,0,0,0,0,0c-0.8,0-1.4,0.6-1.4,1.4c0,4.5,0.3,9,0.4,10.9c-0.8,0.3-1.6,0.6-2.4,0.9c-0.9,0.4-1.3,1.4-1,2.3
		c0.4,0.9,1.4,1.3,2.3,1c8.6-3.5,17.3-5.3,26-5.4c8.7,0.1,17.4,1.9,26,5.4c0.2,0.1,0.4,0.1,0.7,0.1c0.7,0,1.4-0.4,1.6-1.1
		C128.7,113,128.2,112,127.3,111.6z"/>
	<path id="Line_2_" fill="#59595C" d="M122.5,96.5c0,0.8,0.6,1.4,1.4,1.4c0,0,0,0,0,0c0.8,0,1.4-0.7,1.4-1.5c0-0.9,0-1-0.1-1.7
		l0-0.2c0-0.8-0.7-1.4-1.5-1.3c-0.8,0-1.4,0.7-1.3,1.5l0,0.2C122.4,95.6,122.4,95.7,122.5,96.5z"/>
	<path id="Star_42_" fill="#59595C" d="M95.7,90.7l-0.8,4.8c0,0.2,0.1,0.4,0.2,0.6c0.1,0.1,0.2,0.1,0.3,0.1c0.1,0,0.2,0,0.3-0.1
		l4.3-2.3l4.3,2.3c0.1,0,0.2,0.1,0.3,0.1c0.1,0,0.2,0,0.3-0.1c0.2-0.1,0.3-0.3,0.2-0.6l-0.8-4.8l3.5-3.4c0.2-0.2,0.2-0.4,0.1-0.6
		c-0.1-0.2-0.2-0.4-0.5-0.4l-4.9-0.7l-2.2-4.4c-0.1-0.2-0.3-0.3-0.5-0.3c-0.2,0-0.4,0.1-0.5,0.3l-2.2,4.4l-4.9,0.7
		c-0.2,0-0.4,0.2-0.5,0.4c-0.1,0.2,0,0.4,0.1,0.6L95.7,90.7z"/>
</g>
</svg>
