<?xml version="1.0" encoding="utf-8"?>
<!-- Generator: Adobe Illustrator 22.0.1, SVG Export Plug-In . SVG Version: 6.00 Build 0)  -->
<svg version="1.1" id="Layer_1" xmlns="http://www.w3.org/2000/svg" xmlns:xlink="http://www.w3.org/1999/xlink" x="0px" y="0px"
	 viewBox="0 0 200 200" enable-background="new 0 0 200 200" xml:space="preserve">
<g id="Ice_cream">
	<path id="Ice_cream_1_" fill="#59595C" d="M100,46c-19.1,0-27.7,12.8-27.7,25.5v46.3c0,5.6,4.5,10.1,10.1,10.1h8.1v16.9
		c0,5.1,4.1,9.2,9.2,9.2h0.5c5.1,0,9.2-4.1,9.2-9.2v-16.9h8.1c5.6,0,10.1-4.5,10.1-10.1V71.5C127.7,59.7,120.4,46,100,46z
		 M106.5,144.8c0,3.4-2.8,6.2-6.2,6.2h-0.5c-3.4,0-6.2-2.8-6.2-6.2v-16.9h12.9V144.8z M124.5,117.7c0,3.8-3.1,7-7,7H82.4
		c-3.8,0-7-3.1-7-7V71.5c0-10.3,6.4-22.3,24.5-22.3c18.1,0,24.5,12,24.5,22.3V117.7z"/>
	<path id="Line_4" fill="#59595C" d="M116.8,116.4H83.2c-0.8,0-1.5-0.7-1.5-1.5c0-0.8,0.7-1.5,1.5-1.5h33.6c0.8,0,1.5,0.7,1.5,1.5
		C118.3,115.7,117.6,116.4,116.8,116.4z"/>
	<path id="Line_3_3_" fill="#59595C" d="M116.8,107.7H83.2c-0.8,0-1.5-0.7-1.5-1.5c0-0.8,0.7-1.5,1.5-1.5h33.6
		c0.8,0,1.5,0.7,1.5,1.5C118.3,107,117.6,107.7,116.8,107.7z"/>
	<path id="Line_2_4_" fill="#59595C" d="M116.8,99.1H83.2c-0.8,0-1.5-0.7-1.5-1.5c0-0.8,0.7-1.5,1.5-1.5h33.6c0.8,0,1.5,0.7,1.5,1.5
		C118.3,98.4,117.6,99.1,116.8,99.1z"/>
	<path id="Line_1_4_" fill="#59595C" d="M116.8,90.4H83.2c-0.8,0-1.5-0.7-1.5-1.5c0-0.8,0.7-1.5,1.5-1.5h33.6c0.8,0,1.5,0.7,1.5,1.5
		C118.3,89.7,117.6,90.4,116.8,90.4z"/>
	<path id="Star_67_" fill="#58585B" d="M89.2,73.3l-2.6-0.4l-1.2-2.4c-0.1-0.2-0.2-0.2-0.4-0.2c-0.2,0-0.3,0.1-0.4,0.2l-1.2,2.4
		l-2.6,0.4c-0.2,0-0.3,0.1-0.4,0.3c-0.1,0.2,0,0.3,0.1,0.5l1.9,1.8l-0.4,2.6c0,0.2,0,0.3,0.2,0.4c0.1,0.1,0.2,0.1,0.3,0.1
		c0.1,0,0.1,0,0.2-0.1l2.3-1.2l2.3,1.2c0.1,0,0.1,0.1,0.2,0.1c0.1,0,0.2,0,0.3-0.1c0.1-0.1,0.2-0.3,0.2-0.4l-0.4-2.6l1.9-1.8
		c0.1-0.1,0.2-0.3,0.1-0.5C89.6,73.4,89.4,73.3,89.2,73.3z"/>
	<path id="Star_66_" fill="#58585B" d="M104.2,73.3l-2.6-0.4l-1.2-2.4c-0.1-0.2-0.2-0.2-0.4-0.2c-0.2,0-0.3,0.1-0.4,0.2l-1.2,2.4
		l-2.6,0.4c-0.2,0-0.3,0.1-0.4,0.3c-0.1,0.2,0,0.3,0.1,0.5l1.9,1.8L97,78.4c0,0.2,0,0.3,0.2,0.4c0.1,0.1,0.2,0.1,0.3,0.1
		c0.1,0,0.1,0,0.2-0.1l2.3-1.2l2.3,1.2c0.1,0,0.1,0.1,0.2,0.1c0.1,0,0.2,0,0.3-0.1c0.1-0.1,0.2-0.3,0.2-0.4l-0.4-2.6l1.9-1.8
		c0.1-0.1,0.2-0.3,0.1-0.5C104.5,73.4,104.3,73.3,104.2,73.3z"/>
	<path id="Star_65_" fill="#58585B" d="M119.4,73.6c-0.1-0.2-0.2-0.3-0.4-0.3l-2.6-0.4l-1.2-2.4c-0.1-0.2-0.2-0.2-0.4-0.2
		c-0.2,0-0.3,0.1-0.4,0.2l-1.2,2.4l-2.6,0.4c-0.2,0-0.3,0.1-0.4,0.3c-0.1,0.2,0,0.3,0.1,0.5l1.9,1.8l-0.4,2.6c0,0.2,0,0.3,0.2,0.4
		c0.1,0.1,0.2,0.1,0.3,0.1c0.1,0,0.1,0,0.2-0.1l2.3-1.2l2.3,1.2c0.1,0,0.1,0.1,0.2,0.1c0.1,0,0.2,0,0.3-0.1c0.1-0.1,0.2-0.3,0.2-0.4
		l-0.4-2.6l1.9-1.8C119.4,73.9,119.5,73.7,119.4,73.6z"/>
	<path id="Star_64_" fill="#58585B" d="M95.8,65.8c0.1-0.1,0.2-0.3,0.2-0.4l-0.4-2.6l1.9-1.8c0.1-0.1,0.2-0.3,0.1-0.5
		c-0.1-0.2-0.2-0.3-0.4-0.3l-2.6-0.4l-1.2-2.4c-0.1-0.2-0.2-0.2-0.4-0.2c-0.2,0-0.3,0.1-0.4,0.2l-1.2,2.4l-2.6,0.4
		c-0.2,0-0.3,0.1-0.4,0.3c-0.1,0.2,0,0.3,0.1,0.5l1.9,1.8L90,65.3c0,0.2,0,0.3,0.2,0.4c0.1,0.1,0.2,0.1,0.3,0.1c0.1,0,0.1,0,0.2-0.1
		l2.3-1.2l2.3,1.2c0.1,0,0.1,0.1,0.2,0.1C95.6,65.8,95.7,65.8,95.8,65.8z"/>
	<path id="Star_63_" fill="#58585B" d="M111.4,60.9c0.1-0.1,0.2-0.3,0.1-0.5c-0.1-0.2-0.2-0.3-0.4-0.3l-2.6-0.4l-1.2-2.4
		c-0.1-0.2-0.2-0.2-0.4-0.2c-0.2,0-0.3,0.1-0.4,0.2l-1.2,2.4l-2.6,0.4c-0.2,0-0.3,0.1-0.4,0.3c-0.1,0.2,0,0.3,0.1,0.5l1.9,1.8
		l-0.4,2.6c0,0.2,0,0.3,0.2,0.4c0.1,0.1,0.2,0.1,0.3,0.1c0.1,0,0.1,0,0.2-0.1l2.3-1.2l2.3,1.2c0.1,0,0.1,0.1,0.2,0.1
		c0.1,0,0.2,0,0.3-0.1c0.1-0.1,0.2-0.3,0.2-0.4l-0.4-2.6L111.4,60.9z"/>
</g>
</svg>
