<?xml version="1.0" encoding="utf-8"?>
<!-- Generator: Adobe Illustrator 22.0.1, SVG Export Plug-In . SVG Version: 6.00 Build 0)  -->
<svg version="1.1" id="Layer_1" xmlns="http://www.w3.org/2000/svg" xmlns:xlink="http://www.w3.org/1999/xlink" x="0px" y="0px"
	 viewBox="0 0 200 200" enable-background="new 0 0 200 200" xml:space="preserve">
<g id="Micro">
	<path id="Micro_1_" fill="#59595C" d="M127.2,71.2c0-0.9-0.7-1.6-1.6-1.6c-0.8-12.1-10.8-21.7-23.1-21.7s-22.3,9.6-23.1,21.7
		c-0.9,0-1.6,0.7-1.6,1.6c0,0.9,0.7,1.6,1.6,1.6c0.4,5.6,2.9,10.7,6.6,14.4c-0.3,0.5-0.5,1.1-0.5,1.7v1.8c0,1.8,1.4,3.2,3.2,3.4
		l1.1,7.7c0.1,2.4,1.4,40.1,1.5,41.5c0.2,2.1,2,3.7,4.3,3.7h0.1v3.6c0,0.9,0.7,1.6,1.6,1.6h3.6c-0.2,4-0.4,10.2,2.9,13.5
		c1.4,1.5,3.3,2.2,5.7,2.2c0.1,0,0.2,0,0.3,0c4-0.1,5.7-2.4,7.1-4.2c1.4-1.8,2.2-2.9,4.8-2c0.7,0.2,1.4-0.2,1.6-0.8
		c0.2-0.7-0.2-1.4-0.8-1.6c-4.3-1.4-6.1,1-7.6,2.9c-1.3,1.7-2.4,3.2-5.2,3.2c-1.8,0.1-3.1-0.4-4.1-1.4c-2.5-2.6-2.3-8.3-2.2-11.7
		h4.4c0.9,0,1.6-0.7,1.6-1.6v-3.6h0.1c2.2,0,4.1-1.6,4.3-3.7c0.1-1.4,1.4-39.1,1.5-41.5l1.1-7.7c1.8-0.1,3.2-1.6,3.2-3.4V89
		c0-0.6-0.2-1.2-0.5-1.7c3.7-3.8,6.2-8.8,6.6-14.4C126.5,72.8,127.2,72.1,127.2,71.2z M117,85.8c-0.3-0.1-0.5-0.1-0.8-0.1H89
		c-0.3,0-0.6,0-0.8,0.1c-3.4-3.3-5.7-7.9-6.1-12.9h41.1C122.6,77.9,120.4,82.4,117,85.8z M102.6,50.4c10.9,0,19.8,8.4,20.5,19.1H82
		C82.8,58.9,91.7,50.4,102.6,50.4z M106.9,149.8h-8.7v-2.6h8.7V149.8z M111.3,143.2c-0.1,0.7-0.7,1.4-1.7,1.4h-14
		c-0.9,0-1.7-0.6-1.7-1.4c-0.1-1-0.9-26-1.4-40.1h20.3C112.2,117.2,111.4,142.2,111.3,143.2z M92.2,100.6l-0.9-6.3h22.5l-0.9,6.3
		H92.2z M117,90.8c0,0.5-0.4,0.8-0.8,0.8H89c-0.5,0-0.8-0.4-0.8-0.8V89c0-0.5,0.4-0.8,0.8-0.8h27.2c0.5,0,0.8,0.4,0.8,0.8V90.8z"/>
	<path id="Button" fill="#59595C" d="M102.6,119.4c-1.1,0-2-0.9-2-2v-5.1c0-1.1,0.9-2,2-2c1.1,0,2,0.9,2,2v5.1
		C104.6,118.5,103.7,119.4,102.6,119.4z"/>
	<g id="Dots_Group">
		<path id="Dot_27_" fill="#58585B" d="M98.2,54.5c-0.6,0-1.2,0.5-1.2,1.2c0,0.6,0.5,1.2,1.2,1.2c0.6,0,1.2-0.5,1.2-1.2
			C99.4,55.1,98.8,54.5,98.2,54.5z"/>
		<path id="Dot_28_" fill="#58585B" d="M107.1,54.5c-0.6,0-1.2,0.5-1.2,1.2c0,0.6,0.5,1.2,1.2,1.2c0.6,0,1.2-0.5,1.2-1.2
			C108.3,55.1,107.8,54.5,107.1,54.5z"/>
		<path id="Dot_29_" fill="#58585B" d="M89.1,64.2c-0.6,0-1.2,0.5-1.2,1.2c0,0.6,0.5,1.2,1.2,1.2c0.6,0,1.2-0.5,1.2-1.2
			C90.3,64.7,89.7,64.2,89.1,64.2z"/>
		<path id="Dot_30_" fill="#58585B" d="M98.1,66.6c0.6,0,1.2-0.5,1.2-1.2c0-0.6-0.5-1.2-1.2-1.2c-0.6,0-1.2,0.5-1.2,1.2
			C96.9,66,97.4,66.6,98.1,66.6z"/>
		<path id="Dot_31_" fill="#58585B" d="M107,64.2c-0.6,0-1.2,0.5-1.2,1.2c0,0.6,0.5,1.2,1.2,1.2c0.6,0,1.2-0.5,1.2-1.2
			C108.2,64.7,107.7,64.2,107,64.2z"/>
		<path id="Dot_32_" fill="#58585B" d="M116,66.6c0.6,0,1.2-0.5,1.2-1.2c0-0.6-0.5-1.2-1.2-1.2c-0.6,0-1.2,0.5-1.2,1.2
			C114.8,66,115.4,66.6,116,66.6z"/>
		<path id="Dot_33_" fill="#58585B" d="M93.8,59.4c-0.6,0-1.2,0.5-1.2,1.2s0.5,1.2,1.2,1.2c0.6,0,1.2-0.5,1.2-1.2
			S94.4,59.4,93.8,59.4z"/>
		<path id="Dot_34_" fill="#58585B" d="M102.8,59.4c-0.6,0-1.2,0.5-1.2,1.2s0.5,1.2,1.2,1.2c0.6,0,1.2-0.5,1.2-1.2
			S103.4,59.4,102.8,59.4z"/>
		<path id="Dot_35_" fill="#58585B" d="M111.7,59.4c-0.6,0-1.2,0.5-1.2,1.2s0.5,1.2,1.2,1.2c0.6,0,1.2-0.5,1.2-1.2
			S112.4,59.4,111.7,59.4z"/>
		<path id="Dot_36_" fill="#58585B" d="M116,75.8c-0.6,0-1.2,0.5-1.2,1.2c0,0.6,0.5,1.2,1.2,1.2c0.6,0,1.2-0.5,1.2-1.2
			C117.2,76.4,116.7,75.8,116,75.8z"/>
		<path id="Dot_37_" fill="#58585B" d="M107,75.8c-0.6,0-1.2,0.5-1.2,1.2c0,0.6,0.5,1.2,1.2,1.2c0.6,0,1.2-0.5,1.2-1.2
			C108.2,76.4,107.7,75.8,107,75.8z"/>
		<path id="Dot_38_" fill="#58585B" d="M98.1,75.8c-0.6,0-1.2,0.5-1.2,1.2c0,0.6,0.5,1.2,1.2,1.2c0.6,0,1.2-0.5,1.2-1.2
			C99.2,76.4,98.7,75.8,98.1,75.8z"/>
		<path id="Dot_39_" fill="#58585B" d="M89.1,75.8c-0.6,0-1.2,0.5-1.2,1.2c0,0.6,0.5,1.2,1.2,1.2c0.6,0,1.2-0.5,1.2-1.2
			C90.3,76.4,89.7,75.8,89.1,75.8z"/>
		<path id="Dot_40_" fill="#58585B" d="M111.3,80.7c-0.6,0-1.2,0.5-1.2,1.2c0,0.6,0.5,1.2,1.2,1.2c0.6,0,1.2-0.5,1.2-1.2
			C112.5,81.2,112,80.7,111.3,80.7z"/>
		<path id="Dot_41_" fill="#58585B" d="M102.3,80.7c-0.6,0-1.2,0.5-1.2,1.2c0,0.6,0.5,1.2,1.2,1.2c0.6,0,1.2-0.5,1.2-1.2
			C103.5,81.2,103,80.7,102.3,80.7z"/>
		<path id="Dot_26_" fill="#58585B" d="M93.4,80.7c-0.6,0-1.2,0.5-1.2,1.2c0,0.6,0.5,1.2,1.2,1.2c0.6,0,1.2-0.5,1.2-1.2
			C94.5,81.2,94,80.7,93.4,80.7z"/>
	</g>
	<g id="Stars_Group_4_">
		<path id="Star_103_" fill="#58585B" d="M89.1,39.8l0.9-2.1c0-0.1,0-0.1,0-0.2c0-0.2-0.2-0.4-0.4-0.4h0c0,0,0,0,0,0c0,0,0,0,0,0
			c0,0-0.1,0-0.1,0l-2.2,0.6l-1.8-1.5c-0.1-0.1-0.2-0.1-0.3-0.1c-0.1,0-0.1,0-0.2,0c-0.1,0.1-0.2,0.2-0.2,0.3l-0.1,2.3l-2,1.2
			c-0.1,0.1-0.2,0.2-0.2,0.4c0,0.1,0.1,0.3,0.3,0.3l2.2,0.8l0.6,2.2c0,0.1,0.1,0.3,0.3,0.3c0,0,0.1,0,0.1,0c0.1,0,0.2-0.1,0.3-0.1
			l1.5-1.8l2.3,0.2c0,0,0,0,0,0c0.1,0,0.3-0.1,0.3-0.2c0.1-0.1,0.1-0.3,0-0.4L89.1,39.8z"/>
		<path id="Star_102_" fill="#58585B" d="M137.2,55.2l-1.5-1.6l0.4-2.2c0-0.1,0-0.3-0.1-0.4c-0.1-0.1-0.2-0.1-0.2-0.1
			c-0.1,0-0.1,0-0.2,0l-2,1l-1.9-1.1c-0.1,0-0.1-0.1-0.2-0.1c-0.1,0-0.2,0-0.2,0.1c-0.1,0.1-0.2,0.2-0.2,0.4l0.3,2.2l-1.6,1.5
			c-0.1,0.1-0.2,0.3-0.1,0.4c0,0.1,0.2,0.3,0.3,0.3L132,56l0.9,2c0.1,0.1,0.2,0.2,0.3,0.2c0,0,0,0,0,0c0.1,0,0.3-0.1,0.3-0.2l1.1-2
			l2.2-0.2c0.2,0,0.3-0.1,0.3-0.3C137.3,55.5,137.3,55.3,137.2,55.2z"/>
		<path id="Star_101_" fill="#58585B" d="M122.5,37.4l-3.1-1.6l-0.4-3.5c0-0.1-0.1-0.3-0.2-0.3c0,0-0.1,0-0.1,0
			c-0.1,0-0.2,0-0.3,0.1l-2.5,2.4l-3.4-0.7c0,0,0,0-0.1,0c-0.1,0-0.2,0.1-0.3,0.1c-0.1,0.1-0.1,0.3,0,0.4l1.6,3.1l-1.7,3.1
			c-0.1,0.1-0.1,0.3,0,0.4c0.1,0.1,0.2,0.2,0.3,0.2c0,0,0,0,0.1,0l3.5-0.5l2.4,2.6c0.1,0.1,0.2,0.1,0.3,0.1c0,0,0.1,0,0.1,0
			c0.1,0,0.2-0.2,0.3-0.3l0.6-3.5l3.2-1.5c0.1-0.1,0.2-0.2,0.2-0.3C122.7,37.6,122.7,37.5,122.5,37.4z"/>
		<path id="Star_100_" fill="#58585B" d="M70.4,56.5L70.1,53c0-0.1-0.1-0.3-0.2-0.3c0,0-0.1,0-0.1,0c-0.1,0-0.2,0-0.2,0.1l-2.5,2.4
			l-3.4-0.8c0,0-0.1,0-0.1,0c-0.1,0-0.2,0-0.3,0.1c-0.1,0.1-0.1,0.3,0,0.4l1.4,3.1l-1.8,3c-0.1,0.1-0.1,0.3,0,0.4
			c0.1,0.1,0.2,0.2,0.3,0.2c0,0,0,0,0,0l3.4-0.4l2.3,2.6c0.1,0.1,0.2,0.1,0.3,0.1c0,0,0.1,0,0.1,0c0.1,0,0.2-0.1,0.3-0.3l0.7-3.4
			l3.2-1.4c0.1-0.1,0.2-0.2,0.2-0.3c0-0.1-0.1-0.3-0.2-0.3L70.4,56.5z"/>
	</g>
</g>
</svg>
