<?xml version="1.0" encoding="utf-8"?>
<!-- Generator: Adobe Illustrator 22.0.1, SVG Export Plug-In . SVG Version: 6.00 Build 0)  -->
<svg version="1.1" id="Layer_1" xmlns="http://www.w3.org/2000/svg" xmlns:xlink="http://www.w3.org/1999/xlink" x="0px" y="0px"
	 viewBox="0 0 200 200" enable-background="new 0 0 200 200" xml:space="preserve">
<g id="_x34_th_July_Hat">
	<path id="Hat" fill="#58585B" d="M148.8,142.4H134l2.3-85.3c0-1.7-1.4-3.1-3.1-3.1H66.8c-1.7,0-3.1,1.4-3.1,3.2l2.3,85.3H51.2
		c-1,0-1.8,0.8-1.8,1.8c0,1,0.8,1.8,1.8,1.8h97.6c1,0,1.8-0.8,1.8-1.8C150.6,143.2,149.8,142.4,148.8,142.4z M76.9,56.7h14.8v61.6
		H76.9V56.7z M108.3,56.7h14.8v61.6h-14.8V56.7z M68.1,120.9h63.8l-0.6,21.5H68.7L68.1,120.9z"/>
	<path id="Star_70_" fill="#58585B" d="M86,130.1l-3.6-0.5l-1.6-3.2c-0.1-0.2-0.3-0.3-0.5-0.3c-0.2,0-0.4,0.1-0.5,0.3l-1.6,3.2
		l-3.6,0.5c-0.2,0-0.4,0.2-0.5,0.4c-0.1,0.2,0,0.5,0.2,0.6l2.6,2.5l-0.6,3.6c0,0.2,0.1,0.4,0.2,0.6c0.1,0.1,0.2,0.1,0.4,0.1
		c0.1,0,0.2,0,0.3-0.1l3.2-1.7l3.2,1.7c0.1,0,0.2,0.1,0.3,0.1c0.1,0,0.2,0,0.4-0.1c0.2-0.1,0.3-0.4,0.2-0.6l-0.6-3.6l2.6-2.5
		c0.2-0.2,0.2-0.4,0.2-0.6C86.4,130.2,86.3,130.1,86,130.1z"/>
	<path id="Star_69_" fill="#58585B" d="M105.7,130.1l-3.6-0.5l-1.6-3.2c-0.1-0.2-0.3-0.3-0.5-0.3c-0.2,0-0.4,0.1-0.5,0.3l-1.6,3.2
		l-3.6,0.5c-0.2,0-0.4,0.2-0.5,0.4c-0.1,0.2,0,0.5,0.2,0.6l2.6,2.5l-0.6,3.6c0,0.2,0.1,0.4,0.2,0.6c0.1,0.1,0.2,0.1,0.3,0.1
		c0.1,0,0.2,0,0.3-0.1l3.2-1.7l3.2,1.7c0.1,0,0.2,0.1,0.3,0.1c0.1,0,0.2,0,0.3-0.1c0.2-0.1,0.3-0.4,0.2-0.6l-0.6-3.6l2.6-2.5
		c0.2-0.2,0.2-0.4,0.2-0.6C106.1,130.2,105.9,130.1,105.7,130.1z"/>
	<path id="Star_68_" fill="#58585B" d="M125.9,130.5c-0.1-0.2-0.3-0.4-0.5-0.4l-3.6-0.5l-1.6-3.2c-0.1-0.2-0.3-0.3-0.5-0.3
		c-0.2,0-0.4,0.1-0.5,0.3l-1.6,3.2l-3.6,0.5c-0.2,0-0.4,0.2-0.5,0.4c-0.1,0.2,0,0.5,0.2,0.6l2.6,2.5l-0.6,3.6c0,0.2,0.1,0.4,0.2,0.6
		c0.1,0.1,0.2,0.1,0.3,0.1c0.1,0,0.2,0,0.3-0.1l3.2-1.7l3.2,1.7c0.1,0,0.2,0.1,0.3,0.1c0.1,0,0.2,0,0.3-0.1c0.2-0.1,0.3-0.4,0.2-0.6
		l-0.6-3.6l2.6-2.5C125.9,130.9,125.9,130.7,125.9,130.5z"/>
</g>
</svg>
