<?xml version="1.0" encoding="utf-8"?>
<!-- Generator: Adobe Illustrator 22.0.1, SVG Export Plug-In . SVG Version: 6.00 Build 0)  -->
<svg version="1.1" id="Layer_1" xmlns="http://www.w3.org/2000/svg" xmlns:xlink="http://www.w3.org/1999/xlink" x="0px" y="0px"
	 viewBox="0 0 200 200" enable-background="new 0 0 200 200" xml:space="preserve">
<g id="Majorette_Baton_Badge">
	<path id="Baton" fill="#58585B" d="M142.9,133.2c-0.7-0.1-1.8-0.4-2.9-1.3c-0.8-0.7-2.3-2-2.4-2c-0.9-0.7-2-0.7-2.9-0.1l-32.2-32.2
		l32.3-32.3c0.4,0.3,0.9,0.4,1.4,0.4c0.5,0,1.1-0.2,1.5-0.5c0,0,1.6-1.3,2.4-2c1.1-0.9,2.2-1.2,2.9-1.3c1.7-0.2,2.4-1.4,2.3-2.5
		c-0.1-0.8-0.5-2.9-2.3-4.7c-1.8-1.8-3.9-2.2-4.7-2.3c-1-0.1-1.8,0.4-2.3,1.3c-0.2,0.3-0.2,0.6-0.3,1c-0.1,0.7-0.4,1.8-1.3,2.9
		c-0.6,0.8-2,2.4-2,2.4c-0.7,0.9-0.7,2-0.1,2.9L100,95.1L67.7,62.7c0.6-0.9,0.6-2-0.1-2.9c0,0-1.4-1.6-2-2.4
		c-0.9-1.1-1.2-2.2-1.3-2.9c-0.2-1.8-1.5-2.4-2.5-2.3c-0.8,0.1-2.9,0.5-4.7,2.3c-1.8,1.8-2.2,3.9-2.3,4.7c-0.1,1.1,0.5,2.3,2.3,2.5
		c0.7,0.1,1.8,0.4,2.9,1.3c0.8,0.6,2.3,2,2.4,2c0.5,0.4,1,0.5,1.5,0.5c0.5,0,0.9-0.2,1.4-0.4l32.3,32.3l-32.2,32.2
		c-0.9-0.6-2-0.6-2.9,0.1c0,0-1.6,1.3-2.4,2c-1.1,0.9-2.2,1.2-2.9,1.3c-1.7,0.2-2.4,1.4-2.3,2.5c0.1,0.8,0.5,2.9,2.3,4.7
		c0.9,0.9,1.9,1.5,3.1,1.9c0.6,0.2,1.3,0.4,1.9,0.4c0.9,0,2-0.6,2.3-2.3c0.1-0.7,0.4-1.8,1.3-2.9c0.7-0.8,2-2.3,2-2.4
		c0.7-0.9,0.7-2,0.1-2.9l32.2-32.2l32.2,32.2c-0.6,0.9-0.6,2,0.1,2.9c0,0,1.3,1.6,2,2.4c0.9,1.1,1.2,2.2,1.3,2.9
		c0.2,1.7,1.4,2.3,2.3,2.3c0.1,0,0.2,0,0.3,0c0.8-0.1,2.9-0.5,4.7-2.3c1.8-1.8,2.2-3.9,2.3-4.7C145.3,134.6,144.7,133.4,142.9,133.2
		z M134.2,61.2c0-0.1,1.3-1.5,1.9-2.3c1.2-1.5,1.7-3,1.8-4c0-0.2,0.1-0.3,0-0.3c0.6,0.1,2.1,0.4,3.3,1.7c1.3,1.3,1.6,2.8,1.7,3.3
		c0,0-0.1,0.1-0.3,0.1c-1,0.1-2.5,0.6-4,1.8c-0.8,0.7-2.3,1.9-2.3,1.9c-0.1,0.1-0.2,0.1-0.4,0l-1.7-1.7
		C134.1,61.4,134.2,61.3,134.2,61.2z M65.7,61.5L64,63.3c-0.1,0.1-0.3,0.1-0.3,0c-0.1,0-1.5-1.3-2.3-2c-1.5-1.2-3-1.7-4-1.8
		c-0.1,0-0.2,0-0.3,0c0,0,0,0,0,0c0.1-0.6,0.4-2.1,1.7-3.3c1.3-1.3,2.8-1.6,3.3-1.7c0,0,0.1,0.1,0.1,0.3c0.1,1,0.5,2.5,1.8,4
		c0.7,0.8,1.9,2.3,1.9,2.3C65.8,61.3,65.9,61.4,65.7,61.5z M65.9,133.8c0,0-1.3,1.5-2,2.3c-1.2,1.5-1.7,3-1.8,4c0,0.1,0,0.2-0.1,0.3
		c-0.6-0.1-2-0.4-3.3-1.7c-1.3-1.3-1.6-2.8-1.7-3.3c0,0,0.1-0.1,0.3-0.1c1-0.1,2.5-0.6,4-1.8c0.8-0.7,2.3-1.9,2.3-1.9
		c0,0,0.1-0.1,0.2-0.1c0.1,0,0.1,0,0.2,0.1l1.7,1.7C66,133.6,65.9,133.7,65.9,133.8z M141.3,138.8c-1.3,1.3-2.7,1.6-3.3,1.7
		c0-0.1-0.1-0.1-0.1-0.3c-0.1-1-0.5-2.5-1.8-4c-0.7-0.8-1.9-2.3-1.9-2.3c-0.1-0.1-0.1-0.2,0-0.3l1.7-1.7c0.1-0.1,0.1-0.1,0.2-0.1
		c0,0,0.1,0,0.1,0.1c0,0,1.5,1.3,2.3,2c1.5,1.2,3,1.7,4,1.8c0.2,0,0.3,0.1,0.3,0C142.9,136.1,142.6,137.5,141.3,138.8z"/>
	<polygon id="Y_2_" fill="#58585B" points="116.2,137.5 117,137.5 115.9,140.4 114.7,137.4 115.5,137.4 115.5,134.1 110.2,134.1 
		110.2,137.4 111,137.4 114,144.8 114,149.6 112.8,149.6 112.8,152.9 119,152.9 119,149.6 117.8,149.6 117.8,144.7 120.3,137.4 
		121.4,137.4 121.4,134.1 116.2,134.1 	"/>
	<polygon id="L_1_" fill="#58585B" points="107.8,149.6 104.3,149.6 104.3,137.4 105.6,137.4 105.6,134 99.2,134 99.2,137.4 
		100.6,137.4 100.6,149.6 99.2,149.6 99.2,152.9 111.4,152.9 111.4,147.1 107.8,147.1 	"/>
	<polygon id="U_3_" fill="#58585B" points="93.6,137.4 94.5,137.4 94.5,149.6 91.3,149.6 91.3,137.4 92.2,137.4 92.2,134.1 
		87.1,134.1 87.1,137.4 88.1,137.4 88.1,150.9 90.1,153 95.7,153 97.7,150.9 97.7,137.4 98.7,137.4 98.7,134.1 93.6,134.1 	"/>
	<polygon id="J_1_" fill="#58585B" points="79.9,137.4 81.3,137.4 81.3,149.7 78.5,149.7 78.5,146.7 74.9,146.7 74.9,151 
		76.7,152.9 83.1,152.9 85,151 85,137.4 86.3,137.4 86.3,134 79.9,134 	"/>
	<path id="f" fill="#58585B" d="M100.3,126.6v0.9h3.4v-0.9h-1.6v-7.5h1.7v-0.9h-1.7v-2.4c0-0.6,0.1-1.1,0.6-1.1
		c0.3,0,0.5,0.2,0.5,1.1v0.5h0.9V116c0-1.2-0.3-2-1.5-2c-0.8,0-1.5,0.4-1.5,2v2.2h-0.8v0.9h0.8v7.5H100.3z"/>
	<path id="o" fill="#58585B" d="M99.3,125.2v-4.8c0-1.4-0.6-2.4-2.1-2.4c-1.2,0-2.1,0.7-2.1,2.4v4.8c0,1.4,0.6,2.4,2.1,2.4
		C98.4,127.6,99.3,126.9,99.3,125.2z M96,125.3v-5c0-0.8,0.3-1.4,1.1-1.4c0.7,0,1.1,0.4,1.1,1.4v4.9c0,0.8-0.3,1.4-1.1,1.4
		C96.5,126.7,96,126.3,96,125.3z"/>
	<path id="Star_Right" fill="#58585B" d="M147.2,95.6c-0.1-0.2-0.3-0.4-0.5-0.5l-5-0.7l-2.3-4.6c-0.1-0.2-0.3-0.4-0.6-0.4
		c-0.3,0-0.5,0.1-0.6,0.4l-2.3,4.6l-5,0.7c-0.3,0-0.5,0.2-0.5,0.5c-0.1,0.2,0,0.5,0.2,0.7l3.6,3.5l-0.9,5c0,0.3,0.1,0.5,0.3,0.7
		c0.2,0.1,0.5,0.2,0.7,0.1l4.5-2.4l4.5,2.4c0.2,0.1,0.5,0.1,0.7-0.1c0.2-0.2,0.3-0.4,0.3-0.7l-0.9-5l3.6-3.5
		C147.2,96.1,147.3,95.8,147.2,95.6z"/>
	<path id="Star_Left" fill="#58585B" d="M55.7,104.8c0,0.3,0.1,0.5,0.3,0.7c0.2,0.1,0.5,0.2,0.7,0.1l4.5-2.4l4.5,2.4
		c0.2,0.1,0.5,0.1,0.7-0.1c0.2-0.2,0.3-0.4,0.3-0.7l-0.9-5l3.7-3.5c0.2-0.2,0.2-0.4,0.2-0.7c-0.1-0.2-0.3-0.4-0.5-0.5l-5-0.7
		l-2.3-4.6c-0.1-0.2-0.3-0.4-0.6-0.4c-0.3,0-0.5,0.1-0.6,0.4l-2.3,4.6l-5,0.7c-0.3,0-0.5,0.2-0.5,0.5c-0.1,0.2,0,0.5,0.2,0.7
		l3.6,3.5L55.7,104.8z"/>
	<path id="h" fill="#58585B" d="M111.4,58.7h-0.7v-5.5c0-0.9,0.3-1.6,1.1-1.6c0.6,0,1.1,0.5,1.1,1.6v5.5h-0.8v0.8h2.4v-0.8h-0.7
		v-5.8c0-1.3-0.5-2.2-1.7-2.2c-0.5,0-1,0.2-1.4,0.9h0V47H109v0.8h0.7v10.9H109v0.8h2.4V58.7z"/>
	<path id="t" fill="#58585B" d="M105.7,58.3c0,1,0.4,1.2,1.5,1.2h0.7v-0.8h-0.7c-0.4,0-0.5-0.2-0.5-0.4v-6.6h1.2v-0.8h-1.2V48h-1
		v2.8h-0.7v0.8h0.7V58.3z"/>
	<path id="_x34__1_" fill="#58585B" d="M97.2,80h4.3v-7.3h1.7v-4.2h-1.7V50.1H96l-7.5,18.8v3.8h8.7V80z M92.7,68.4L97.2,57v11.4
		H92.7z"/>
</g>
</svg>
