<?xml version="1.0" encoding="utf-8"?>
<!-- Generator: Adobe Illustrator 22.0.1, SVG Export Plug-In . SVG Version: 6.00 Build 0)  -->
<svg version="1.1" id="Layer_1" xmlns="http://www.w3.org/2000/svg" xmlns:xlink="http://www.w3.org/1999/xlink" x="0px" y="0px"
	 viewBox="0 0 200 200" enable-background="new 0 0 200 200" xml:space="preserve">
<g id="Balloon">
	<path id="Balloon_1_" fill="#58585B" d="M134.1,79.2c0-11.9-3.4-22.1-9.8-29.4c-6.1-7-14.6-10.8-23.9-10.8h-0.7
		c-9.3,0-17.8,3.9-23.9,10.8c-6.4,7.3-9.8,17.5-9.8,29.4c0,15.5,5,28.6,29.2,45.5c-0.2,0.4-0.3,0.8-0.3,1.3c0,1.5,1.2,2.8,2.8,2.8
		h1.7c1.8,14.2,4.1,22.1,16.5,31.9c0.2,0.2,0.5,0.3,0.8,0.3c0.4,0,0.8-0.2,1-0.5c0.4-0.6,0.3-1.4-0.2-1.8
		c-11.6-9.1-13.7-16.2-15.5-29.8h0.6c1.5,0,2.8-1.2,2.8-2.8c0-0.5-0.1-0.9-0.3-1.3C129.1,107.9,134.1,94.7,134.1,79.2z M101.7,123.3
		h-3.4c-24.3-16.6-29.3-29-29.3-44.1c0-23.5,14-37.2,30.7-37.2h0.7c16.7,0,30.7,13.7,30.7,37.2C131.1,94.3,126,106.7,101.7,123.3z"
		/>
	<path id="Bar_6_" fill="#58585B" d="M90.4,111.9h20.2c2.5-2.2,4.2-3.8,5.9-6.1H84.3C86,108,88.1,110.2,90.4,111.9z"/>
	<path id="Bar_11_" fill="#58585B" d="M78.5,98.6h42.2c1.4-1.8,2.9-4.1,3.6-6.1H75.6C76.3,94.5,77.2,96.6,78.5,98.6z"/>
	<path id="Bar_12_" fill="#58585B" d="M126.9,79.2H73.6c-0.3,1.6-0.2,4.6,0.1,6.1h52.9C127,83.8,127.1,80.4,126.9,79.2z"/>
	<path id="Bar_7_" fill="#58585B" d="M105,72h21.3c-0.1-2.1-0.8-4.2-1.8-6.1H105V72z"/>
	<path id="Bar_5_" fill="#58585B" d="M116.7,52.4h-12c0,1.4,0,3.6,0,6.1h16.8C120.3,56,118.3,53.6,116.7,52.4z"/>
	<path id="Star_117_" fill="#58585B" d="M77.9,69.4l-0.5,2.8c0,0.2,0,0.3,0.2,0.4c0.1,0.1,0.2,0.1,0.3,0.1c0.1,0,0.1,0,0.2-0.1
		l2.5-1.3l2.5,1.3c0.1,0,0.1,0,0.2,0c0.1,0,0.2,0,0.3-0.1c0.1-0.1,0.2-0.3,0.2-0.4l-0.5-2.8l2-2c0.1-0.1,0.2-0.3,0.1-0.4
		c-0.1-0.2-0.2-0.3-0.3-0.3l-2.8-0.4l-1.3-2.6c-0.1-0.1-0.2-0.2-0.4-0.2c-0.2,0-0.3,0.1-0.4,0.2l-1.3,2.6l-2.8,0.4
		c-0.2,0-0.3,0.1-0.4,0.3c-0.1,0.2,0,0.3,0.1,0.4L77.9,69.4z"/>
	<path id="Star_116_" fill="#58585B" d="M91.8,67c-0.1,0.2,0,0.3,0.1,0.4l2,2l-0.5,2.8c0,0.2,0,0.3,0.2,0.4c0.1,0.1,0.2,0.1,0.3,0.1
		c0.1,0,0.1,0,0.2-0.1l2.5-1.3l2.5,1.3c0.1,0,0.1,0.1,0.2,0.1c0.1,0,0.2,0,0.3-0.1c0.1-0.1,0.2-0.3,0.2-0.4l-0.5-2.8l2-2
		c0.1-0.1,0.2-0.3,0.1-0.4c0-0.2-0.2-0.3-0.3-0.3l-2.8-0.4L97,63.7c-0.1-0.1-0.2-0.2-0.4-0.2c-0.2,0-0.3,0.1-0.4,0.2l-1.3,2.6
		l-2.8,0.4C92,66.7,91.8,66.8,91.8,67z"/>
	<path id="Star_115_" fill="#58585B" d="M87.3,56.5l-0.5,2.8c0,0.2,0,0.3,0.2,0.4c0.1,0.1,0.2,0.1,0.3,0.1c0.1,0,0.1,0,0.2,0
		l2.5-1.3l2.5,1.3c0.1,0,0.1,0,0.2,0c0.1,0,0.2,0,0.3-0.1c0.1-0.1,0.2-0.3,0.2-0.4l-0.5-2.8l2-2c0.1-0.1,0.2-0.3,0.1-0.4
		c0-0.2-0.2-0.3-0.3-0.3l-2.8-0.4l-1.3-2.6c-0.1-0.1-0.2-0.2-0.4-0.2c-0.2,0-0.3,0.1-0.4,0.2l-1.3,2.6l-2.8,0.4
		c-0.2,0-0.3,0.1-0.3,0.3c-0.1,0.2,0,0.3,0.1,0.4L87.3,56.5z"/>
</g>
</svg>
