<?xml version="1.0" encoding="utf-8"?>
<!-- Generator: Adobe Illustrator 22.0.1, SVG Export Plug-In . SVG Version: 6.00 Build 0)  -->
<svg version="1.1" id="Layer_1" xmlns="http://www.w3.org/2000/svg" xmlns:xlink="http://www.w3.org/1999/xlink" x="0px" y="0px"
	 viewBox="0 0 200 200" enable-background="new 0 0 200 200" xml:space="preserve">
<g id="Statue_of_Liberty">
	<path id="Statue_of_Liberty_1_" fill="#59585B" d="M135,83.6c-0.1-0.3-0.3-0.6-0.6-0.7l-14-7.6c-0.6-0.3-1.3-0.1-1.6,0.5l-6.7,11.5
		c-1-2.3-2.5-4.2-4.4-5.3c-0.8-0.4-2.8-1.3-4.2-1.8c2.4-2.8,2.5-2.9,2.6-3c0.3-0.4,0.6-0.9,0.5-1.7v-2.1c1.3,3.6,2.8,7.3,2.9,7.6
		c0.2,0.5,0.6,0.8,1.1,0.8c0.1,0,0.3,0,0.4-0.1c0.6-0.2,0.9-0.9,0.7-1.6c0-0.1-3.3-8.7-4.7-12.6l4.7-0.6c0.3,0,0.6-0.3,0.6-0.6
		c0.1-0.4-0.2-0.8-0.6-0.8c0,0-5.2-0.7-5.3-0.7c-0.1-0.5-0.2-0.9-0.3-1.4l6.7-4.8c0.3-0.2,0.4-0.6,0.2-0.9c-0.2-0.4-0.6-0.5-1-0.4
		l-7.4,3.5c-0.5-0.6-1-1.2-1.6-1.7l3.7-8.1c0.1-0.3,0.1-0.7-0.2-0.9c-0.3-0.2-0.8-0.2-1,0.2l-5.1,7.2c-0.7-0.3-1.4-0.5-2.1-0.6
		c0-0.1-0.8-9.6-0.8-9.6c0-0.4-0.4-0.7-0.8-0.8c-0.5,0-0.9,0.3-0.9,0.8c0,0-0.8,9.5-0.8,9.6c-0.7,0.1-1.4,0.3-2.1,0.6l-5.1-7.2
		c-0.2-0.3-0.6-0.4-0.9-0.2c-0.4,0.2-0.5,0.6-0.4,1l3.7,8c-0.6,0.5-1.1,1.1-1.6,1.7l-7.3-3.4c-0.3-0.2-0.7-0.1-0.9,0.2
		c-0.2,0.3-0.2,0.8,0.2,1l6.7,4.8c-0.2,0.5-0.3,0.9-0.4,1.4c-0.1,0-4.9,0.7-4.9,0.7c-0.3,0-0.6,0.3-0.6,0.6
		c-0.1,0.4,0.2,0.8,0.6,0.8c0,0,4.7,0.7,4.7,0.7v5.9c0,0.9,0.3,1.6,0.9,2.3c0.3,0.3,1.1,1.1,1.9,2c0,0.1,0,0.1,0,0.2v2.5l-5.4-5.3
		l0.4-0.2c0.6-0.3,0.8-1,0.5-1.6c-0.3-0.6-1-0.8-1.6-0.5l-1.2,0.7l-5.3-22.3c0.6-1,1-2.3,0.9-3.7c-0.1-2.3-1.5-4.1-3.5-5v-1.8h5.7
		c0.7,0,1.3-0.6,1.3-1.3c0-0.7-0.6-1.3-1.3-1.3H79c1-1.8,1.2-4,0.3-6c-1-2.2-1.2-4.3-0.5-6.1c0.3-0.7,0.1-1.5-0.5-2
		c-0.7-0.7-1.9-0.8-3-0.3c-2.3,1-3.9,2.8-4.5,5.2c0.1-0.2-0.8-0.9-1-1c-0.5-0.2-1-0.2-1.4,0.2c-2.1,1.8-3.1,4.3-2.7,6.7
		c0.2,1.3,0.7,2.4,1.5,3.4h-0.9c-0.7,0-1.3,0.6-1.3,1.3c0,0.7,0.6,1.3,1.3,1.3h5.6V42c-0.3,0-0.6,0-0.9,0.1l-4,0.5
		c-0.7,0.1-1.1,0.7-1.1,1.3c0,0,1,9.7,1,9.7c0.1,0.9,1,1.1,1.7,1l1.7,25.3L69,80.6c-0.4,0.2-0.6,0.6-0.6,1.1c0,0,0,8.9,0,8.9
		c0,0.9,1,1.5,1.7,1.1l1.9-0.9c0.1,2.8,0.3,8.7,0.7,11.9c0.1,0.9,1.1,1.4,1.8,0.9c0.5-0.3,1.2-0.7,2-1.2c1.2,2.8,1.9,8.5,1.9,11.8
		c-0.8,0.8-1.4,1.4-1.5,1.6c-1.3,1.6-1.5,5.3-1.1,8.2c0.3,2.3,1,3.8,1.9,4.4c0.2,0.1,0.4,0.2,0.7,0.2c0.3,0,0.5-0.1,0.7-0.3
		c0.7,4.4,0.7,11.4-0.9,17.9c-2.4,9.7-2.1,17.1,0.9,22.4c0.2,0.3,0.6,0.8,1.2,0.6c-0.1,0.6-0.2,1.1-0.2,1.6c-0.4,2-3.6,3.5-5.1,3.5
		h-4.6c-0.7,0-1.2,0.5-1.2,1.2c0,0.7,0.5,1.2,1.2,1.2h52.1c0.7,0,1.2-0.5,1.2-1.2c0-0.7-0.5-1.2-1.2-1.2h-6.6c-1.8,0-4.1-3-4.1-6.1
		v-31.1l1.4-1.2c0.3-0.2,0.4-0.6,0.4-0.9v-11c3.4-0.1,6.2-3,6.2-6.4v-7.2l5.7-9.6l1.5,0.8c0.2,0.1,0.4,0.2,0.6,0.2
		c0.1,0,0.2,0,0.3,0c0.3-0.1,0.6-0.3,0.7-0.6l4.3-7.9c0.2-0.3,0.2-0.6,0.1-0.9c-0.1-0.3-0.3-0.6-0.6-0.7L131,91l3.8-6.5
		C135,84.2,135,83.9,135,83.6z M69.2,31l2.2,2.9c0.4,0.6,1.3,0.7,1.9,0.2c0.6-0.4,0.7-1.3,0.2-1.9l-0.4-0.5c0-0.1,0.1-0.3,0.1-0.4
		c-0.1-2.5,0.9-4.2,2.8-5.2c-0.5,2.2-0.2,4.6,0.9,7c0.7,1.6,0.3,3.3-0.9,4.5h-5.1c-1.4-0.8-2.3-2-2.5-3.3C68.2,33.1,68.5,32,69.2,31
		z M106.5,84c1.3,0.7,2.4,2,3.2,3.7c-0.2,0.1-0.5,0.1-0.9,0.1c-0.5,0-1.3-0.3-2-1.1C106.5,86.4,105.7,85.5,106.5,84z M97.5,61.7
		c-0.5-0.4-1.3-0.2-1.7,0.3c-1.4,2-3.1,2.9-6.3,3c0.6-3.4,3.6-6,7.2-6c3.6,0,6.7,2.7,7.3,6.1c-2.8-0.1-4.4-0.6-6.2-2
		C98.1,62.7,98,62.1,97.5,61.7z M89.7,74.1c-0.2-0.2-0.2-0.3-0.2-0.6v-6c3.1-0.1,5.2-0.9,6.9-2.4c2.3,1.7,4.3,2.4,7.8,2.5l0,7.9
		c0,0-0.1,0.2-0.1,0.2c-0.2,0.2-1.7,2-3.1,3.6c-0.2,0.2-0.4,0.5-0.4,0.9v0.6c0,0.5,0.3,0.9,0.8,1.1c0.6,0.3,1.9,0.7,3,1.2
		c-0.2,0.5-0.4,0.9-0.5,1.4c0,0,0,0-0.1,0c-4.3,1.4-8.8,0.9-11.2-1.3l-0.4-0.4c0-0.1,0-0.1,0-0.2v-2.5c0.2,0.2,0.4,0.4,0.4,0.4
		c1.1,1.1,2.8-0.6,1.7-1.7C94.3,78.7,90.5,74.9,89.7,74.1z M80.3,74.6l-7.5,4l-1.6-24.4l0.8-0.1v2.3c0,0.7,0.6,1.3,1.3,1.3
		s1.3-0.6,1.3-1.3v-3c0.2-0.1,0.4-0.2,0.6-0.3L80.3,74.6z M69.2,52.1l-0.8-7.3l2.9-0.4c2.3-0.4,4.2,1.1,4.3,3.2
		c0.1,2.1-1.1,3.6-3.4,4L69.2,52.1z M74.9,100.5c-0.3-3.9-0.5-9.4-0.5-10.9l6.3-3.1c0.6-0.3,0.8-1,0.5-1.6c-0.3-0.6-1-0.8-1.6-0.5
		l-8.8,4.4v-6.3l11.3-6.1c0,0,10.8,10.6,14.4,14.1c0.4,0.3,1.2,0.4,1.7,0c0.5-0.4,0.5-1.2,0-1.7L97,87.5c0.7,0.1,1.3,0.1,2,0.1
		c1.6,0,3.3-0.3,5-0.7c0.2,0.5,0.5,1,0.9,1.5c-3.3,3.1-17.3,16.7-24.2,23.5c-0.2-3.5-0.9-8.1-2.2-10.8c0.7-0.5,1.5-0.9,2.2-1.3
		c1.3-0.8,2.5-1.5,2.9-1.8c0.6-0.3,0.8-1.1,0.4-1.7c-0.3-0.6-1.1-0.8-1.7-0.4c-0.4,0.3-1.6,1-2.9,1.8C78,98.6,76.3,99.7,74.9,100.5z
		 M80.5,146.7c1.9-7.6,1.8-15.9,0.7-20.4c3.4-3.2,9.2-8.6,9.2-8.7c0.5-0.5,0.5-1.2,0-1.7c-0.5-0.5-1.2-0.5-1.7,0
		c-0.1,0.1-7.1,6.7-10.1,9.6c-0.2-0.6-0.4-1.5-0.5-2.8c-0.2-2.6,0.2-4.8,0.7-5.4c1.1-1.3,20.3-19.9,28.2-27.5
		c1.1,0.5,2.4,0.6,3.6,0.2c0.3,1.3,0.5,2.7,0.5,4.3v40.2l-4.8,4.2l0-23.9c0-0.7-0.5-1.2-1.2-1.2c-0.7,0-1.2,0.5-1.2,1.2l0,34.5
		l-3.4,4.2V132c0-0.7-0.6-1.2-1.2-1.2c-0.7,0-1.2,0.6-1.2,1.2l0.2,16.3c-1.5,1.5-12.8,12.9-17.8,17.7
		C78.4,161.3,78.4,155,80.5,146.7z M87.3,174.4h-6.9c0.9-0.8,1.7-1.9,1.9-3.1c0.3-1.5,0.5-3.6,0.5-4.2c1.3-1.2,2.8-2.8,4.5-4.4
		V174.4z M94.4,174.4h-4.7v-14.1c1.7-1.7,3.2-3.3,4.7-4.8V174.4z M97.8,174.4h-1V153c0.4-0.4,1.1-1.1,1.4-1.3c0,0,0.1,5.2,0.1,5.6
		c0.1,1,1.5,1.3,2.1,0.5c0.4-0.5,1.5-2,1.5-2v14.5C99.9,170.8,98.3,172.3,97.8,174.4z M100.4,174.4c0.5-1.1,1.5-1.8,2.8-1.8
		c1.2,0,2.3,0.7,2.8,1.8H100.4z M108.4,174.4c-0.5-2-2.1-3.6-4.1-4.1v-17.5c0.5-0.8,1.1-1.6,1.6-2.4c0.2-0.3,0.3-0.5,0.3-0.9v-7.7
		l3-2.6v29c0,2.3,0.9,4.5,2.2,6.1H108.4z M117.2,117.6c0,2.1-1.7,3.9-3.8,4v-12.8l3.8,1.9V117.6z M126.9,98.9l-0.4-0.2l-2-1.4
		c-0.8-1-0.9-2.4-0.2-3.6c0.6-1,1.6-1.6,2.8-1.6c0.1,0,0.3,0,0.4,0.1l2.3,0.9l0.2,0.1L126.9,98.9z M128.8,90
		c-0.6-0.2-1.1-0.3-1.7-0.3c-2,0-3.9,1.1-4.9,2.8c-1.3,2.3-0.8,5.2,1,6.9l-5.3,9l-4.5-2.3V94.3c0-1.4-0.1-2.7-0.4-4l7.2-12.3
		l11.9,6.4L128.8,90z"/>
	<path id="Line_114_" fill="#59585B" d="M119.1,83.8c-0.3,0.5-0.1,1.1,0.4,1.4l6,3.3c0.2,0.1,0.3,0.1,0.5,0.1c0.4,0,0.7-0.2,0.9-0.5
		c0.3-0.5,0.1-1.1-0.4-1.4l-6-3.3C120,83.1,119.3,83.3,119.1,83.8z"/>
	<path id="Line_113_" fill="#59585B" d="M81.8,92.9c0.2,0,0.3,0,0.5-0.1l5.2-2.4c0.6-0.3,0.9-1,0.6-1.6c-0.3-0.6-1-0.9-1.6-0.6
		l-5.2,2.5c-0.6,0.3-0.9,1-0.6,1.6C80.9,92.7,81.4,92.9,81.8,92.9z"/>
	<path id="Line_112_" fill="#59585B" d="M92.1,139.1c-0.5-0.5-1.2-0.5-1.7,0l-7.1,7.3c-0.5,0.5-0.5,1.2,0,1.7
		c0.2,0.2,0.5,0.3,0.8,0.3c0.3,0,0.6-0.1,0.9-0.4l7.1-7.3C92.6,140.3,92.6,139.5,92.1,139.1z"/>
	<path id="Line_111_" fill="#59585B" d="M87.7,133.4c0.3,0,0.6-0.1,0.9-0.4l8.4-8.6c0.5-0.5,0.5-1.2,0-1.7c-0.5-0.5-1.2-0.5-1.7,0
		l-8.4,8.6c-0.5,0.5-0.5,1.2,0,1.7C87.1,133.3,87.4,133.4,87.7,133.4z"/>
	<path id="Line_110_" fill="#59585B" d="M105,107.1c0.7,0,1.2-0.5,1.2-1.2v-4.6c0-0.7-0.5-1.2-1.2-1.2c-0.7,0-1.2,0.5-1.2,1.2v4.6
		C103.8,106.5,104.3,107.1,105,107.1z"/>
	<path id="Nose" fill="#59585B" d="M96.3,75.2h1.4c0.5,0,1-0.4,1-1c0-0.5-0.4-1-1-1h-0.5l0-3.9c0-0.5-0.4-1-1-1c-0.5,0-1,0.4-1,1
		v4.9c0,0.3,0.1,0.5,0.3,0.7C95.8,75.1,96,75.2,96.3,75.2z"/>
</g>
</svg>
