<?xml version="1.0" encoding="utf-8"?>
<!-- Generator: Adobe Illustrator 22.0.1, SVG Export Plug-In . SVG Version: 6.00 Build 0)  -->
<svg version="1.1" id="Layer_1" xmlns="http://www.w3.org/2000/svg" xmlns:xlink="http://www.w3.org/1999/xlink" x="0px" y="0px"
	 viewBox="0 0 200 200" enable-background="new 0 0 200 200" xml:space="preserve">
<g id="USA_Map">
	<path fill="#59585B" d="M167.1,68.5c-0.4-0.3-1.1-1.4-1.2-2.3c0-1.6-0.9-3.6-3.3-3.2c-1.1,0.2-2.3,0.7-3,1.7
		c-0.9,1.2-1.1,2.8-0.6,4.4c0.2,0.5,0.1,1.1-0.3,1.6c-0.6,1-1.9,1.5-2.8,1.6c-4.4,0.4-6.4,1.9-8.3,6.7c-0.2,0.4-1,1.2-2.3,1.4
		c-2.4,0.3-3.9,1.6-4.5,3.4c-0.3,1.2-0.8,1.8-3.7,3.6c-1,0.6-3,1.1-4.6,1c0.3-0.3,2.1-2,2.5-2.5c0.8-0.8,1-2,0.6-3
		c-0.5-1.3-2-1.8-3.5-1.1c-0.4,0.2-0.7,0.2-0.9,0.2c-0.2,0-0.3-0.3,0.3-1c1.1-1.2,0.8-2.2,0.6-2.6c-0.5-1.2-2.4-1.7-4-0.9
		c-1.5,0.7-2.8,1.9-3.5,3c-0.6,1.1-1.2,3-0.8,4.9c0,0.2,0.1,0.4,0.2,0.6c0.3,1.2,0.4,1.6-0.2,2.2c-0.7,0.7-1.1,0.8-1.2,0.8
		c0,0-0.2,0-0.3-0.2c-0.2-0.2-0.2-0.5-0.1-0.6c0.4-1,0.9-2.6,0-4.1c-0.4-0.6-0.2-1.2-0.1-1.3c1-1.2,1.2-2.5,1.2-3.5
		c0-1,0.8-1.8,1.2-2.1c0.7-0.6,1.6-1.1,4.1-1.7c0.9-0.2,1.4-1,1.3-1.9c-0.1-1.2-1.6-2.8-2.9-2.8c-0.7,0-1.3,0.4-1.6,1
		c-0.4,0.7-0.5,0.8-1.7,1c-0.3,0-0.6,0.1-1,0.2c-0.4,0.1-1,0.4-1.3,0.2c-1.4-0.7-3.1-0.6-4.6,0c-1.8,0.7-3.7-0.2-3.9-0.5
		c0.4-0.3,1.9-1.4,2.9-2c0.7-0.5,0.6-1.9-0.4-2.1c-2.4-0.6-9.5-2.4-9.5-2.4c-1.2-0.3-3.4-0.6-5.3-0.7c-1.3,0-17.1-0.3-19-0.3
		c-3-0.1-5.9-0.4-9.1-1.2C69.6,63.4,45.8,58,45.8,58c-0.3-0.1-0.6,0-0.9,0.2c-0.3,0.2-0.5,0.4-0.5,0.8L44,60.8l-3-1.7
		c-0.7-0.3-1.7,0-1.8,1l-0.1,6.7l-4.7,9.6c-0.1,0.1-0.1,0.3-0.1,0.5c0,0-0.1,2.5-0.1,4.8c0,1.6-0.8,2.3-1.6,3.1
		c-1,1-1.5,2.4-1.3,3.6c0.2,1.2,1,2.2,2.1,2.6c0.6,0.2,0.9,0.9,0.7,1.4c-1,1.9-0.7,3.7,0.9,4.8c0.1,0.1,0.1,0.5-0.1,0.6
		c-0.7,0.5-1,1.3-0.9,2.3c0.1,0.5,0.3,1.4,1.4,2.2c-0.4,0.7-0.6,1.5-0.4,2.3c0.2,1.1,1,2,2.2,2.4c2.9,2.2,3.8,2.8,5.5,4.1
		c0.1,0.1,0.2,0.1,0.3,0.2c0.7,0.2,1,0.7,1.2,3c0,0.4,0.3,0.8,0.7,1c0.5,0.2,3,1.1,3.1,1.1c3.1,0.4,4.7,1.1,6.8,2.9
		c3.1,2.6,9.1,4.8,13.4,5.7c0.4,0.1,0.8-0.1,1.1-0.4c0,0,0.7-0.7,0.9-1c1.3,0.5,3.9,1.9,7.4,5.9c0.2,0.2,2,2,2.8,2.6
		c0.4,0.3,0.9,0.4,1.4,0.1c1.3-0.8,2.6-1.2,3.7-1.2c1.8,0,2.8,1.2,2.9,3.5c0,0.4,0.2,0.7,0.5,0.9c0.6,0.4,1.2,0.8,2,1.3
		c0.3,0.7,1.1,2.7,1.7,4.5c0.2,0.5,0.6,0.8,1.1,0.8h3.9c0.7,0,1.2-0.5,1.2-1.2c0-0.9-0.1-3.4-0.1-3.4c0-0.5,0.6-1.6,2.3-2.2
		c2.5-0.8,3.5-1.4,5.6-3.4c1.1-1,2.2-1.2,3.1-0.6c1.4,0.8,2.9,0.8,4.2,0c0.7-0.4,1.3-0.4,2,0.1c0.7,0.5,1.5,1.2,2.7,1.2
		c1.4,0,3.1-1,3.5-2.4c0.1-0.5,0.1-1.1,0-1.6c0.4-0.1,0.6-0.2,0.9-0.3c0.9-0.5,1.2-0.4,1.6-0.3c1,0.2,2,0.1,3.3-0.2
		c0.9-0.2,1-0.3,2.4,0.6c1.8,1.2,3.3,1.1,4.7-0.3c0.4-0.4,0.8-0.2,1.2,0c0,0,2,1.3,3,2c0,0,0.1,0.2,0.1,0.2
		c-0.7,1.4-0.3,2.7,0.8,3.5c0.3,0.2,0.5,0.5,0.4,0.7c-0.3,1.6-0.1,2.8,1.3,4c0.4,0.4,2.3,1.9,2.3,1.9c0.5,0.4,1.2,0.7,1.9,0.7
		c1.3,0,2.4-0.8,2.8-1.9c0.6-1.7,0.8-2.4,0.9-2.7c0.5-2.2-1.1-3.3-1.9-3.8c-1-0.7-1.5-1.3-1.6-2.1c-0.4-2.2-0.9-3.1-2-4.6
		c-1-1.3-0.9-2.4-0.9-2.6c0.1-0.7,0.5-2.7,0.9-4.3c0.2-0.9,0.7-1.1,1.3-1.2c1-0.1,1.7-0.6,2.2-1.3c0.5-0.8,0.2-2.6,0-3.2
		c0.5,0,1.7-0.3,2.2-0.9c0.4-0.5,0.6-1.1,0.6-1.8c0.1,0,0.1,0,0.3,0c1,0.1,1.7-0.3,2.2-0.9c0.5-0.7,0.6-1.7,0.4-2.3
		c-0.1-0.2,0-0.4,0-0.4c1,0.3,2.1-0.1,2.7-0.9c0.4-0.6,0.4-1.5,0.1-2.2c-0.1-0.3-3.8-5.4-4.4-6.3c0.8,0.2,1.5,0.4,2.2,0.6
		c1.2,0.3,2.3-0.4,2.6-1.7c0.2-1.1-0.3-2.5-2.3-3.4c1,0,1.8-0.6,2.3-1.5c0.4-0.8,0.3-1.8-0.1-2.6c0.1,0,0.5,0,0.6,0
		c0.8,0,2.6-0.3,3.2-3.3c0.1-0.5,0.4-0.9,0.6-1.1c1.3,0.3,2.4-0.4,2.8-1.7c0.3-1.1,0-2.6-1-3.2c-0.7-0.4-0.7-1.2-0.6-1.4
		c0.2-0.5,1-2,1.1-2.2c0.7-1.4,1.4-2,2.7-2.2c2.1-0.4,2.6-1.7,2.7-2.3C168.8,70.4,168.2,69.2,167.1,68.5z M129.9,79.5
		c-1.5,1.7-1.2,3-1,3.5c0.1,0.2,0.2,0.4,0.4,0.6h-3C126.4,81.1,128.7,79.6,129.9,79.5z M100.4,133c-2.7,0.9-3.9,2.9-3.9,4.5l0.1,2.2
		h-1.9c-0.5-1.4-1.4-3.8-1.7-4.3c-0.1-0.2-0.3-0.3-0.4-0.4c-0.7-0.4-1.2-0.7-1.7-1c-0.1-1.2-0.4-2.1-0.9-2.9h14.3
		C102.9,132,102.1,132.4,100.4,133z M128.8,125.2c-0.4,0-0.8,0-1.2,0.2c-1,0.2-1.8,0.3-2.4,0.1c-1.1-0.2-2,0-3.1,0.6
		c-0.2,0.1-0.5,0.1-0.8,0.1c-0.4-0.1-0.8,0.1-1,0.3h-42c-2.9-3-5.7-4.9-8-5.4c-0.5-0.1-0.9,0.1-1.2,0.5c-0.3,0.4-0.5,0.7-0.8,1
		c-2.4-0.5-4.9-1.4-7-2.3h80.5c-0.3,1.1-0.5,2.3-0.6,3c-0.1,0.5,0,1.8,0.8,3.3h-3.5c-0.1-0.1-0.6-0.4-0.6-0.4
		c-0.7-0.5-1.4-0.7-2.1-0.7c-0.6,0-1.4,0.2-2.2,1.1H132c-0.1,0-0.1-0.1-0.2-0.1C130.8,125.6,129.9,125.2,128.8,125.2z M146.7,134.6
		c1,0.7,1,0.9,0.9,1.3c-0.1,0.3-0.4,1.4-0.8,2.5c-0.1,0.3-0.7,0.5-1,0.2c0,0-1.9-1.5-2.3-1.9c-0.5-0.4-0.7-0.6-0.5-1.8
		c0.2-1.2-0.3-2.3-1.4-3c-0.2-0.1-0.3-0.2-0.1-0.6c0-0.1,0.1-0.2,0.1-0.3h2.4c0,0,0,0.1,0,0.1C144.3,132.4,145.2,133.6,146.7,134.6z
		 M147.7,111.1c-0.3,0-1.4,0-2,0.8c-0.6,0.8-0.3,1.8,0.1,2.6c0.1,0.3-0.2,1-1,1.1H54.1c-1.5-0.9-3.2-1.4-5.4-1.7
		c-0.4-0.1-1.7-0.6-1.9-0.7c-0.1-1.4-0.5-3-1.9-3.9h103.8c-0.3,0.4-0.4,1-0.3,1.6C148.2,111.1,147.7,111.1,147.7,111.1z M154,90.8
		c-1.3-0.3-2.4,0.3-2.7,1.5c-0.1,0.7,0.1,1.3,0.5,1.9H89.3v4.5h60.3c0,0.1,3.6,5.1,4.3,6.2c-0.5-0.1-1,0-1.4,0.1H38.4
		c-0.1-0.1-1-0.5-1.1-0.8c-0.1-0.3,0.1-0.8,0.7-1.3c0.3-0.3,0.5-0.7,0.4-1.1c-0.1-0.4-0.4-0.8-0.7-0.9c-0.8-0.3-1.1-0.7-1.2-0.9
		c-0.1-0.1-0.1-0.3,0-0.4c0.5-0.3,1.3-1.1,1.3-2.1c0-0.8-0.4-1.5-1.3-2.2c-0.3-0.2-0.8-0.6-0.2-1.8c0.2-0.4,0.8-1.5,0.4-2.7
		c-0.3-0.8-1-1.5-2.2-2c-0.5-0.2-0.6-0.6-0.7-0.9c-0.1-0.5,0.2-1.1,0.6-1.4c0.9-0.8,2.3-2.2,2.3-4.8c0-1.8,0.1-3.7,0.1-4.4l4.7-9.6
		c0.1-0.2,0.1-0.3,0.1-0.5l0.1-5l2.7,1.5c0.3,0.2,0.7,0.2,1.1,0c0.3-0.2,0.6-0.5,0.7-0.8l0.5-2.2c4.8,1.1,22.9,5.2,25.4,5.8
		c3.4,0.8,6.4,1.1,9.6,1.2c1.9,0,17.7,0.3,19,0.3c1.9,0,3.9,0.4,4.8,0.6l7,1.8c-0.4,0.3-0.8,0.6-1,0.7c-0.6,0.5-0.9,1.1-0.9,1.8
		H89.3v4.5h32.4c-0.3,0.6-0.6,1.3-0.6,2.1c0,1-0.2,1.5-0.6,2c-0.5,0.5-0.8,1.3-0.7,2.2H89.3V88H120c-0.1,0.7,0,1.6,0.5,2.2
		c0.5,0.8,1.4,1.3,2.3,1.3c1,0,2-0.5,2.9-1.5c0.7-0.7,0.9-1.4,1-2h3.4c-0.1,0.4,0,0.7,0.2,1.2c0.3,0.9,1,1.4,1.8,1.5
		c0.3,0,0.6,0,0.9,0c1.7,0,4-0.4,5.5-1.4c0.8-0.5,1.4-0.9,2-1.3h13.2c-0.2,0.7,0,1.4,0.7,2.2C154.7,90.5,154.3,90.9,154,90.8z
		 M161.4,82.4c0,0-0.5-0.1-0.6-0.1c-0.8,0-1.4,0.5-1.9,1.2h-15.1c0.4-0.5,1.1-0.8,2-0.9c2.1-0.3,3.7-1.7,4.2-2.9
		c0.4-1,0.8-1.9,1.2-2.5h8.8c0,0.1-0.1,0.1-0.1,0.2c-0.6,1.3-0.1,3.3,1.4,4.3C161.4,81.9,161.4,82.3,161.4,82.4z M165.4,71.6
		c-1,0.2-1.9,0.6-2.7,1.2H160c0.3-0.3,0.6-0.6,0.8-0.9c0.8-1.1,0.9-2.3,0.6-3.6c-0.4-1.2,0-2,0.3-2.4c0.7-1.2,1.8-0.6,1.9,0.5
		c0.1,1.1,1.1,3.3,2.2,4c0.3,0.2,0.5,0.5,0.4,0.7C166.2,71.3,165.9,71.5,165.4,71.6z"/>
	<path fill="#59585B" d="M81.3,72.2l-1.1-2.3c-0.1-0.1-0.2-0.1-0.3,0l-1.1,2.3l-2.5,0.4c-0.1,0-0.1,0.1-0.1,0.1c0,0.1,0,0.1,0,0.2
		l1.8,1.8l-0.4,2.5c0,0.1,0,0.1,0.1,0.2c0,0,0.1,0,0.1,0c0,0,0.1,0,0.1,0l2.2-1.2l2.2,1.2c0,0,0.1,0,0.1,0c0.1,0,0.2-0.1,0.2-0.2
		c0,0,0-0.1,0-0.1l-0.4-2.5l1.8-1.8c0,0,0.1-0.1,0-0.2c0-0.1-0.1-0.1-0.1-0.1L81.3,72.2z"/>
	<path fill="#59585B" d="M64.8,72.2l-1.1-2.3c-0.1-0.1-0.2-0.1-0.3,0l-1.1,2.3l-2.5,0.4c-0.1,0-0.1,0.1-0.1,0.1c0,0.1,0,0.1,0,0.2
		l1.8,1.8L61,77.1c0,0.1,0,0.1,0.1,0.2c0.1,0,0.1,0,0.2,0l2.2-1.2l2.2,1.2c0,0,0,0,0.1,0c0,0,0,0,0,0c0.1,0,0.2-0.1,0.2-0.2
		c0,0,0-0.1,0-0.1l-0.4-2.5l1.8-1.8c0,0,0.1-0.1,0-0.2c0-0.1-0.1-0.1-0.1-0.1L64.8,72.2z"/>
	<path fill="#59585B" d="M48.2,72.2l-1.1-2.3c-0.1-0.1-0.2-0.1-0.3,0l-1.1,2.3l-2.5,0.4c-0.1,0-0.1,0.1-0.1,0.1c0,0.1,0,0.1,0,0.2
		l1.8,1.8l-0.4,2.5c0,0.1,0,0.1,0.1,0.2c0.1,0,0.1,0,0.2,0l2.2-1.2l2.2,1.2c0,0,0.1,0,0.1,0c0,0,0,0,0,0c0.1,0,0.2-0.1,0.2-0.2
		c0,0,0-0.1,0-0.1L49,74.6l1.8-1.8c0,0,0.1-0.1,0-0.2c0-0.1-0.1-0.1-0.1-0.1L48.2,72.2z"/>
	<path fill="#59585B" d="M81.3,83.8l-1.1-2.3c0-0.1-0.1-0.1-0.1-0.1s-0.1,0-0.1,0.1l-1.1,2.3l-2.5,0.4c-0.1,0-0.1,0.1-0.1,0.1
		c0,0.1,0,0.1,0,0.2l1.8,1.8l-0.4,2.5c0,0.1,0,0.1,0.1,0.2c0.1,0,0.1,0,0.2,0l2.2-1.2l2.2,1.2c0,0,0.1,0,0.1,0c0,0,0,0,0,0
		c0.1,0,0.2-0.1,0.2-0.2c0,0,0-0.1,0-0.1l-0.4-2.5l1.8-1.8c0,0,0.1-0.1,0-0.2c0-0.1-0.1-0.1-0.1-0.1L81.3,83.8z"/>
	<path fill="#59585B" d="M64.8,83.8l-1.1-2.3c-0.1-0.1-0.2-0.1-0.3,0l-1.1,2.3l-2.5,0.4c-0.1,0-0.1,0.1-0.1,0.1c0,0.1,0,0.1,0,0.2
		l1.8,1.8L61,88.7c0,0.1,0,0.1,0.1,0.2c0.1,0,0.1,0,0.2,0l2.2-1.2l2.2,1.2c0,0,0,0,0.1,0c0,0,0,0,0,0c0.1,0,0.2-0.1,0.2-0.2
		c0,0,0-0.1,0-0.1l-0.4-2.5l1.8-1.8c0,0,0.1-0.1,0-0.2c0-0.1-0.1-0.1-0.1-0.1L64.8,83.8z"/>
	<path fill="#59585B" d="M48.2,83.8l-1.1-2.3c-0.1-0.1-0.2-0.1-0.3,0l-1.1,2.3l-2.5,0.4c-0.1,0-0.1,0.1-0.1,0.1c0,0.1,0,0.1,0,0.2
		l1.8,1.8l-0.4,2.5c0,0.1,0,0.1,0.1,0.2c0,0,0.1,0,0.1,0c0,0,0.1,0,0.1,0l2.2-1.2l2.2,1.2c0,0,0.1,0,0.1,0c0.1,0,0.2-0.1,0.2-0.2
		c0,0,0-0.1,0-0.1L49,86.2l1.8-1.8c0,0,0.1-0.1,0-0.2c0-0.1-0.1-0.1-0.1-0.1L48.2,83.8z"/>
	<path fill="#59585B" d="M81.3,95.4l-1.1-2.3c0-0.1-0.1-0.1-0.1-0.1s-0.1,0-0.1,0.1l-1.1,2.3l-2.5,0.4c-0.1,0-0.1,0.1-0.1,0.1
		c0,0.1,0,0.1,0,0.2l1.8,1.8l-0.4,2.5c0,0.1,0,0.1,0.1,0.2c0,0,0.1,0,0.2,0l2.2-1.2l2.2,1.2c0,0,0.1,0,0.1,0c0,0,0,0,0,0
		c0.1,0,0.2-0.1,0.2-0.2c0,0,0-0.1,0-0.1l-0.4-2.5l1.8-1.8c0,0,0.1-0.1,0-0.2c0-0.1-0.1-0.1-0.1-0.1L81.3,95.4z"/>
	<path fill="#59585B" d="M64.8,95.4l-1.1-2.3c-0.1-0.1-0.2-0.1-0.3,0l-1.1,2.3l-2.5,0.4c-0.1,0-0.1,0.1-0.1,0.1c0,0.1,0,0.1,0,0.2
		l1.8,1.8l-0.4,2.5c0,0.1,0,0.1,0.1,0.2c0.1,0,0.1,0,0.2,0l2.2-1.2l2.2,1.2c0,0,0.1,0,0.1,0c0,0,0,0,0,0c0.1,0,0.2-0.1,0.2-0.2
		c0,0,0-0.1,0-0.1l-0.4-2.5l1.8-1.8c0,0,0.1-0.1,0-0.2c0-0.1-0.1-0.1-0.1-0.1L64.8,95.4z"/>
	<path fill="#59585B" d="M48.2,95.4l-1.1-2.3c0-0.1-0.1-0.1-0.1-0.1c-0.1,0-0.1,0-0.1,0.1l-1.1,2.3l-2.5,0.4c-0.1,0-0.1,0.1-0.1,0.1
		c0,0.1,0,0.1,0,0.2l1.8,1.8l-0.4,2.5c0,0.1,0,0.1,0.1,0.2c0.1,0,0.1,0,0.2,0l2.2-1.2l2.2,1.2c0,0,0.1,0,0.1,0c0,0,0,0,0,0
		c0.1,0,0.2-0.1,0.2-0.2c0,0,0-0.1,0-0.1L49,97.8l1.8-1.8c0,0,0.1-0.1,0-0.2c0-0.1-0.1-0.1-0.1-0.1L48.2,95.4z"/>
</g>
</svg>
