<?xml version="1.0" encoding="utf-8"?>
<!-- Generator: Adobe Illustrator 22.0.1, SVG Export Plug-In . SVG Version: 6.00 Build 0)  -->
<svg version="1.1" id="Layer_1" xmlns="http://www.w3.org/2000/svg" xmlns:xlink="http://www.w3.org/1999/xlink" x="0px" y="0px"
	 viewBox="0 0 200 200" enable-background="new 0 0 200 200" xml:space="preserve">
<g id="Flag_with_Ball">
	<path id="Ball_2_" fill="#59595C" d="M135.9,108.7c5.9,0,11.5-2.3,15.7-6.5c4.2-4.2,6.5-9.7,6.5-15.7c0-5.9-2.3-11.4-6.5-15.6
		c-4.2-4.2-9.7-6.5-15.7-6.5c-5.9,0-11.5,2.3-15.7,6.5c-4.2,4.2-6.5,9.7-6.5,15.7c0,5.9,2.3,11.4,6.5,15.6
		C124.4,106.4,130,108.7,135.9,108.7z M149.6,73c3.4,3.4,5.3,7.8,5.6,12.6c-1-0.1-2-0.2-3-0.4l0.5-2c-0.4-0.1-0.7-0.2-1.1-0.3
		l-0.6,2c-1.2-0.4-2.4-0.9-3.6-1.5l1-1.8c-0.3-0.2-0.7-0.4-1-0.6l-1.1,1.7c-1.1-0.7-2.1-1.5-3.1-2.4l1.4-1.5
		c-0.1-0.1-0.3-0.3-0.4-0.4c-0.1-0.1-0.3-0.3-0.4-0.4l-1.5,1.4c-0.9-1-1.7-2-2.4-3.1l1.7-1.1c-0.2-0.3-0.4-0.7-0.6-1l-1.8,1
		c-0.6-1.1-1.1-2.3-1.5-3.6l2-0.6c-0.1-0.4-0.2-0.7-0.3-1.1l-2,0.5c-0.2-1-0.4-2-0.4-3C141.8,67.7,146.2,69.6,149.6,73z M122.4,73
		c3.4-3.4,7.8-5.3,12.6-5.6c0.1,1.2,0.2,2.3,0.5,3.5l-2,0.5c0.1,0.5,0.2,1,0.4,1.5l2-0.6c0.4,1.4,1,2.7,1.6,4l-1.8,1
		c0.2,0.5,0.5,0.9,0.8,1.4l1.8-1.1c0.7,1.2,1.6,2.3,2.6,3.4l-1.5,1.4c0.2,0.2,0.4,0.4,0.5,0.6c0.2,0.2,0.4,0.4,0.6,0.5l1.4-1.5
		c1.1,1,2.2,1.9,3.4,2.6l-1.1,1.8c0.4,0.3,0.9,0.5,1.4,0.8l1-1.8c1.3,0.7,2.6,1.2,4,1.6l-0.6,2c0.5,0.1,1,0.3,1.5,0.4l0.5-2
		c1.1,0.3,2.3,0.4,3.5,0.5c-0.3,4.7-2.2,9.1-5.6,12.5c-3.4,3.4-7.8,5.3-12.6,5.6c0-0.8-0.1-1.6-0.3-2.3l2.1-0.4
		c-0.1-0.5-0.2-1-0.3-1.6l-2,0.5c-0.3-1.4-0.8-2.8-1.4-4.1l1.9-0.9c-0.2-0.5-0.5-1-0.7-1.4l-1.8,1c-0.7-1.3-1.5-2.4-2.5-3.6l1.6-1.4
		c-0.3-0.4-0.7-0.8-1.1-1.2l-1.5,1.5c-0.1-0.1-0.1-0.1-0.1-0.2c-1-1-2.1-1.9-3.2-2.6l1.2-1.7c-0.4-0.3-0.9-0.6-1.3-0.8l-1.1,1.8
		c-1.3-0.7-2.6-1.3-4-1.8l0.7-2c-0.5-0.2-1-0.3-1.5-0.5l-0.5,2c-1.4-0.4-2.8-0.6-4.2-0.7C117,80.8,119,76.4,122.4,73z M120.4,88.2
		l-0.5,2c0.4,0.1,0.8,0.2,1.1,0.3l0.7-1.9c1.2,0.4,2.4,1,3.6,1.6l-1,1.8c0.3,0.2,0.7,0.4,1,0.6l1.2-1.7c1,0.7,2,1.5,2.9,2.4
		c0,0,0.1,0.1,0.1,0.1l-1.5,1.4c0.3,0.3,0.5,0.6,0.8,0.9l1.6-1.3c0.9,1,1.6,2.1,2.2,3.2l-1.8,1c0.2,0.3,0.4,0.7,0.5,1l1.9-0.9
		c0.6,1.2,1,2.4,1.3,3.7l-2,0.5c0.1,0.4,0.2,0.8,0.2,1.1l2-0.4c0.1,0.7,0.2,1.3,0.2,2c-4.8-0.2-9.2-2.2-12.6-5.6
		c-3.4-3.4-5.3-7.8-5.6-12.6C118,87.7,119.2,87.9,120.4,88.2z"/>
	<path id="Line_5" fill="#59595C" d="M162.1,131.8H37.9c-1,0-1.9,0.8-1.9,1.9c0,1,0.8,1.9,1.9,1.9h124.3c1,0,1.9-0.8,1.9-1.9
		C164,132.6,163.2,131.8,162.1,131.8z"/>
	<path id="Line_4_1_" fill="#59595C" d="M36,118.3c0,1,0.8,1.9,1.9,1.9h124.3c1,0,1.9-0.8,1.9-1.9s-0.8-1.9-1.9-1.9H37.9
		C36.8,116.4,36,117.2,36,118.3z"/>
	<path id="Line_3_6_" fill="#59595C" d="M91.7,101c-1,0-1.9,0.8-1.9,1.9c0,1,0.8,1.9,1.9,1.9h14.4c0.3,0,0.6-0.4,0.4-0.6
		c-0.6-1.1-0.9-1.8-1.4-2.8c0-0.1-0.2-0.3-0.4-0.3C101.7,101,91.7,101,91.7,101z"/>
	<path id="Line_3_5_" fill="#59595C" d="M37.9,104.7h46.8c1,0,1.9-0.8,1.9-1.9c0-1-0.8-1.9-1.9-1.9H37.9c-1,0-1.9,0.8-1.9,1.9
		C36,103.9,36.8,104.7,37.9,104.7z"/>
	<path id="Line_2_7_" fill="#59595C" d="M100.8,85.6H75.5c-1,0-1.9,0.8-1.9,1.9c0,1,0.8,1.9,1.9,1.9h25.6c0.3,0,0.6-0.3,0.5-0.4
		c-0.1-0.8,0-2.1,0-2.8C101.6,85.9,101.4,85.6,100.8,85.6z"/>
	<path id="Line_2_5_" fill="#59595C" d="M37.9,89.4H68c1,0,1.9-0.8,1.9-1.9c0-1-0.8-1.9-1.9-1.9H37.9c-1,0-1.9,0.8-1.9,1.9
		C36,88.5,36.8,89.4,37.9,89.4z"/>
	<path id="Line_1_7_" fill="#59595C" d="M55,74c0,0,36.3,0,48.1,0c0.3,0,0.6-0.3,0.6-0.4c0.3-1,0.7-1.9,1.1-2.8
		c0.1-0.2,0-0.5-0.3-0.5c-0.3,0-49.5,0-49.5,0c-1,0-1.9,0.8-1.9,1.9C53.2,73.2,54,74,55,74z"/>
	<path id="Line_1_6_" fill="#59595C" d="M37.9,74H48c1,0,1.9-0.8,1.9-1.9c0-1-0.8-1.9-1.9-1.9H37.9c-1,0-1.9,0.8-1.9,1.9
		C36,73.2,36.8,74,37.9,74z"/>
</g>
</svg>
