<?xml version="1.0" encoding="utf-8"?>
<!-- Generator: Adobe Illustrator 22.0.1, SVG Export Plug-In . SVG Version: 6.00 Build 0)  -->
<svg version="1.1" id="Layer_1" xmlns="http://www.w3.org/2000/svg" xmlns:xlink="http://www.w3.org/1999/xlink" x="0px" y="0px"
	 viewBox="0 0 200 200" enable-background="new 0 0 200 200" xml:space="preserve">
<g id="Donut">
	<path id="Donut_Circle" fill="#59595C" d="M100,148c-26.5,0-48-21.5-48-48c0-26.5,21.5-48,48-48c26.5,0,48,21.5,48,48
		C148,126.5,126.5,148,100,148z M100,55.3c-24.6,0-44.7,20-44.7,44.7c0,24.6,20,44.7,44.7,44.7c24.6,0,44.7-20,44.7-44.7
		C144.7,75.4,124.6,55.3,100,55.3z"/>
	<path id="Cream" fill="#59595C" d="M110.5,138.3L110.5,138.3c-1.9,0-3.9-0.9-5.8-1.7c-1.6-0.7-3.4-1.5-4.7-1.5
		c-1.4,0-3.1,0.7-4.8,1.5c-1.9,0.8-3.8,1.7-5.8,1.7c-0.6,0-1.2-0.1-1.8-0.3c-2.6-0.9-4.1-3.5-5.5-5.8c-0.9-1.6-1.8-3.1-2.8-3.8
		c-1.1-0.8-2.8-1.2-4.6-1.5c-2.7-0.6-5.5-1.2-7.1-3.4c-1.6-2.2-1.3-5-1-7.8c0.2-1.8,0.3-3.6-0.1-4.9c-0.4-1.2-1.5-2.5-2.7-3.8
		c-1.8-2-3.8-4.3-3.8-7.1c0-2.8,2-5.1,3.8-7.1c1.2-1.3,2.3-2.6,2.7-3.8c0.4-1.3,0.2-3.1,0.1-4.9c-0.3-2.7-0.5-5.6,1-7.8
		c1.6-2.2,4.4-2.8,7.1-3.4c1.7-0.4,3.5-0.8,4.6-1.5c1-0.8,1.9-2.3,2.8-3.8c1.3-2.3,2.9-4.9,5.5-5.8c0.6-0.2,1.2-0.3,1.8-0.3
		c1.9,0,3.9,0.9,5.8,1.7c1.7,0.7,3.4,1.5,4.7,1.5c1.4,0,3.1-0.7,4.7-1.5c1.9-0.8,3.8-1.7,5.8-1.7c0.6,0,1.3,0.1,1.8,0.3
		c2.6,0.9,4.1,3.5,5.5,5.8c0.9,1.5,1.8,3.1,2.8,3.8c1.1,0.8,2.8,1.2,4.6,1.5c2.7,0.6,5.5,1.2,7.1,3.4c1.6,2.2,1.3,5,1.1,7.8
		c-0.2,1.8-0.3,3.6,0.1,4.9c0.4,1.2,1.5,2.5,2.7,3.8c1.8,2,3.8,4.3,3.8,7.1c0,2.8-2,5.1-3.8,7.1c-1.2,1.3-2.3,2.6-2.7,3.8
		c-0.4,1.3-0.2,3.1-0.1,4.9c0.3,2.7,0.5,5.6-1.1,7.8c-1.6,2.2-4.4,2.8-7.1,3.4c-1.7,0.4-3.5,0.8-4.6,1.5c-1,0.8-2,2.3-2.8,3.8
		c-1.3,2.3-2.9,4.9-5.5,5.8C111.8,138.2,111.2,138.3,110.5,138.3z M100,132c2.1,0,4.1,0.9,6,1.7c1.7,0.7,3.2,1.4,4.5,1.4l0,0
		c0.3,0,0.6,0,0.8-0.1c1.5-0.5,2.6-2.4,3.7-4.3c1-1.8,2.1-3.6,3.7-4.8c1.6-1.2,3.7-1.6,5.7-2.1c2.2-0.5,4.3-1,5.2-2.2
		c0.9-1.2,0.7-3.3,0.5-5.6c-0.2-2.1-0.4-4.2,0.2-6.1c0.6-1.8,2-3.4,3.4-4.9c1.5-1.7,3-3.4,3-5c0-1.6-1.5-3.2-3-5
		c-1.4-1.5-2.8-3.1-3.4-4.9c-0.6-1.9-0.4-4.1-0.2-6.2c0.2-2.3,0.4-4.4-0.5-5.6c-0.9-1.2-3-1.7-5.2-2.2c-2-0.4-4.1-0.9-5.7-2.1
		c-1.6-1.1-2.7-3-3.7-4.8c-1.2-2-2.2-3.9-3.7-4.3c-1.3-0.4-3.3,0.4-5.4,1.3c-1.9,0.8-4,1.7-6,1.7c-2.1,0-4.1-0.9-6-1.7
		c-2.1-0.9-4.1-1.7-5.4-1.3c-1.5,0.5-2.6,2.3-3.7,4.3c-1,1.8-2.1,3.6-3.7,4.8c-1.6,1.2-3.7,1.6-5.7,2.1c-2.2,0.5-4.3,1-5.2,2.2
		c-0.9,1.2-0.7,3.3-0.5,5.6c0.2,2.1,0.4,4.2-0.2,6.2c-0.6,1.8-2,3.4-3.4,4.9c-1.5,1.7-3,3.4-3,5c0,1.6,1.5,3.2,3,5
		c1.4,1.5,2.8,3.1,3.4,4.9c0.6,1.9,0.4,4.1,0.2,6.2c-0.2,2.2-0.4,4.4,0.5,5.6c0.9,1.2,3,1.7,5.2,2.2c2,0.4,4.1,0.9,5.7,2.1
		c1.6,1.1,2.7,3,3.7,4.8c1.2,2,2.3,3.9,3.7,4.3c1.3,0.4,3.3-0.4,5.4-1.3C95.9,132.9,97.9,132,100,132z"/>
	<path id="Inner_Star" fill="#59595C" d="M108.6,114.9c-0.3,0-0.5-0.1-0.8-0.2l-7.8-4.1l-7.8,4.1c-0.6,0.3-1.2,0.2-1.7-0.1
		c-0.5-0.4-0.8-1-0.7-1.6l1.5-8.7l-6.3-6.2c-0.5-0.4-0.6-1.1-0.4-1.7c0.2-0.6,0.7-1,1.3-1.1l8.8-1.3l3.9-7.9
		c0.3-0.6,0.9-0.9,1.5-0.9c0,0,0,0,0,0c0.6,0,1.2,0.4,1.5,0.9l3.9,7.9l8.7,1.3c0.6,0.1,1.1,0.5,1.3,1.1c0.2,0.6,0,1.3-0.4,1.7
		l-6.3,6.2l1.5,8.4c0.1,0.2,0.1,0.4,0.1,0.6C110.3,114.1,109.5,114.9,108.6,114.9C108.6,114.9,108.6,114.9,108.6,114.9z M89.7,98
		l4.6,4.4c0.4,0.4,0.6,0.9,0.5,1.5l-1.1,6.3l5.6-3c0.5-0.3,1.1-0.3,1.5,0l5.6,3l-1.1-6.3c-0.1-0.5,0.1-1.1,0.5-1.5l4.6-4.4l-6.3-0.9
		c-0.5-0.1-1-0.4-1.2-0.9l-2.8-5.7l-2.8,5.7c-0.2,0.5-0.7,0.8-1.2,0.9L89.7,98z"/>
	<g id="Lines_Group">
		<path id="Line_83_" fill="#58585B" d="M96.1,75.9c-0.1,0-0.2,0-0.4-0.1L93.3,75c-0.5-0.2-0.8-0.8-0.6-1.3c0.2-0.5,0.8-0.8,1.3-0.6
			l2.4,0.9c0.5,0.2,0.8,0.8,0.6,1.3C96.8,75.7,96.5,75.9,96.1,75.9z"/>
		<path id="Line_84_" fill="#58585B" d="M108.2,77.3c-0.5,0-0.9-0.4-1-0.9c-0.1-0.5,0.3-1,0.9-1.1l2.9-0.3c0.5-0.1,1,0.3,1.1,0.9
			c0.1,0.5-0.3,1-0.9,1.1l-2.9,0.3C108.2,77.3,108.2,77.3,108.2,77.3z"/>
		<path id="Line_85_" fill="#58585B" d="M112.7,89.1c-0.3,0-0.6-0.1-0.7-0.3l-2.1-2.4c-0.4-0.4-0.3-1,0.1-1.4c0.4-0.4,1-0.3,1.4,0.1
			l2.1,2.4c0.4,0.4,0.3,1-0.1,1.4C113.1,89,112.9,89.1,112.7,89.1z"/>
		<path id="Line_82_" fill="#58585B" d="M122.8,87.9c-0.2,0-0.3,0-0.5-0.1c-0.5-0.3-0.6-0.9-0.4-1.4l1.4-2.4
			c0.3-0.5,0.9-0.6,1.4-0.4c0.5,0.3,0.6,0.9,0.4,1.4l-1.4,2.4C123.5,87.8,123.1,87.9,122.8,87.9z"/>
		<path id="Line_81_" fill="#58585B" d="M125.2,100.2c-0.4,0-0.8-0.3-0.9-0.7c-0.2-0.5,0.1-1.1,0.6-1.3l2.9-1.1
			c0.5-0.2,1.1,0.1,1.3,0.6c0.2,0.5-0.1,1.1-0.6,1.3l-2.9,1.1C125.4,100.1,125.3,100.2,125.2,100.2z"/>
		<path id="Line_80_" fill="#58585B" d="M120.1,109.3c-0.5,0-0.9-0.3-1-0.8l-0.6-2.8c-0.1-0.5,0.2-1.1,0.8-1.2
			c0.5-0.1,1.1,0.2,1.2,0.8l0.6,2.8c0.1,0.5-0.2,1.1-0.8,1.2C120.3,109.3,120.2,109.3,120.1,109.3z"/>
		<path id="Line_79_" fill="#58585B" d="M122.4,118.5c-0.1,0-0.1,0-0.2,0l-2.7-0.5c-0.5-0.1-0.9-0.6-0.8-1.2
			c0.1-0.5,0.6-0.9,1.1-0.8l2.7,0.5c0.5,0.1,0.9,0.6,0.8,1.2C123.3,118.2,122.8,118.5,122.4,118.5z"/>
		<path id="Line_78_" fill="#58585B" d="M88.4,86.3c-0.1,0-0.1,0-0.2,0c-0.5-0.1-0.9-0.6-0.8-1.1l0.4-2.1c0.1-0.5,0.6-0.9,1.1-0.8
			c0.5,0.1,0.9,0.6,0.8,1.1l-0.4,2.1C89.3,86,88.9,86.3,88.4,86.3z"/>
		<path id="Line_77_" fill="#58585B" d="M75.7,99.1c-0.1,0-0.3,0-0.4-0.1l-2.1-0.9c-0.5-0.2-0.7-0.8-0.5-1.3
			c0.2-0.5,0.8-0.7,1.3-0.5l2.1,0.9c0.5,0.2,0.7,0.8,0.5,1.3C76.4,98.9,76,99.1,75.7,99.1z"/>
		<path id="Line_76_" fill="#58585B" d="M77.8,86c-0.2,0-0.5-0.1-0.6-0.2c-0.4-0.4-0.5-1-0.1-1.4l1.4-1.6c0.4-0.4,1-0.5,1.4-0.1
			c0.4,0.4,0.5,1,0.1,1.4l-1.4,1.6C78.4,85.9,78.1,86,77.8,86z"/>
		<path id="Line_75_" fill="#58585B" d="M77,110.5c-0.3,0-0.6-0.1-0.8-0.4c-0.3-0.4-0.3-1.1,0.2-1.4l2.1-1.6
			c0.4-0.3,1.1-0.3,1.4,0.2c0.3,0.4,0.3,1.1-0.2,1.4l-2.1,1.7C77.4,110.4,77.2,110.5,77,110.5z"/>
		<path id="Line_74_" fill="#58585B" d="M81.5,119.4c-0.3,0-0.6-0.1-0.8-0.4c-0.4-0.4-0.3-1,0.1-1.4l2-1.7c0.4-0.4,1-0.3,1.4,0.1
			c0.4,0.4,0.3,1-0.1,1.4l-2,1.7C81.9,119.3,81.7,119.4,81.5,119.4z"/>
		<path id="Line_73_" fill="#58585B" d="M93.4,128.7c-0.3,0-0.5-0.1-0.7-0.3l-1.8-1.9c-0.4-0.4-0.4-1,0-1.4c0.4-0.4,1-0.4,1.4,0
			l1.8,1.9c0.4,0.4,0.4,1,0,1.4C94,128.6,93.7,128.7,93.4,128.7z"/>
		<path id="Line_72_" fill="#58585B" d="M100.2,121.2c-0.4,0-0.8-0.3-0.9-0.7c-0.2-0.5,0.1-1.1,0.6-1.3l2.2-0.8
			c0.5-0.2,1.1,0.1,1.3,0.6c0.2,0.5-0.1,1.1-0.6,1.3l-2.2,0.8C100.4,121.2,100.3,121.2,100.2,121.2z"/>
		<path id="Line_62_" fill="#58585B" d="M111.1,126.4c-0.1,0-0.1,0-0.2,0c-0.5-0.1-0.9-0.6-0.8-1.2l0.4-2.3c0.1-0.5,0.6-0.9,1.2-0.8
			c0.5,0.1,0.9,0.6,0.8,1.2l-0.4,2.3C112,126,111.6,126.4,111.1,126.4z"/>
	</g>
</g>
</svg>
