<?xml version="1.0" encoding="utf-8"?>
<!-- Generator: Adobe Illustrator 22.0.1, SVG Export Plug-In . SVG Version: 6.00 Build 0)  -->
<svg version="1.1" id="Layer_1" xmlns="http://www.w3.org/2000/svg" xmlns:xlink="http://www.w3.org/1999/xlink" x="0px" y="0px"
	 viewBox="0 0 200 200" enable-background="new 0 0 200 200" xml:space="preserve">
<g id="CD_USA">
	<path id="CD" fill="#59595C" d="M100,47c-29.2,0-53,23.8-53,53c0,29.2,23.8,53,53,53c29.2,0,53-23.8,53-53
		C153,70.8,129.2,47,100,47z M79.8,145.6c-3.7-1.7-7.2-3.7-10.4-6.2h61.1c-3.2,2.5-6.7,4.6-10.4,6.2H79.8z M63.1,133.6
		c-1.8-2-3.4-4.1-4.9-6.3h83.5c-1.5,2.2-3.1,4.3-4.9,6.3H63.1z M55,121.4c-1-2-1.8-4.1-2.5-6.3h38.6c2.6,1.5,5.6,2.4,8.9,2.4
		c3.2,0,6.3-0.9,8.9-2.4h38.6c-0.7,2.2-1.5,4.3-2.5,6.3H55z M82.7,103c0.4,2.3,1.2,4.4,2.4,6.3H51c-0.4-2.1-0.7-4.2-0.8-6.3H82.7z
		 M100,85.4c8.1,0,14.6,6.5,14.6,14.6c0,8.1-6.5,14.6-14.6,14.6c-8.1,0-14.6-6.5-14.6-14.6C85.4,91.9,91.9,85.4,100,85.4z
		 M109.2,85.1c-2.3-1.4-4.9-2.3-7.8-2.6v-3.7h43.7c1,2,1.8,4.1,2.5,6.3H109.2z M101.5,72.9v-6.3h35.6c1.8,2,3.4,4.1,4.8,6.3H101.5z
		 M101.5,60.8v-6.2h19.3c3.6,1.7,7,3.7,10.1,6.2H101.5z M114.9,109.3c1.2-1.9,2-4,2.4-6.3h32.5c-0.1,2.1-0.4,4.2-0.8,6.3H114.9z
		 M117.3,97.2c-0.4-2.3-1.2-4.4-2.3-6.3h34c0.4,2.1,0.6,4.1,0.8,6.3H117.3z M98.5,50.2v32.3c-8.1,0.7-14.6,6.8-15.9,14.7H50.2
		C51.6,71.4,72.6,50.9,98.5,50.2z"/>
	<path id="Star_110_" fill="#59595C" d="M56.1,86.3l2,2L57.6,91c0,0.1,0,0.3,0.2,0.4c0.1,0.1,0.2,0.1,0.2,0.1c0.1,0,0.1,0,0.2,0
		l2.5-1.3l2.5,1.3c0.1,0,0.1,0,0.2,0c0.1,0,0.2,0,0.2-0.1c0.1-0.1,0.2-0.2,0.2-0.4l-0.5-2.8l2-2c0.1-0.1,0.1-0.3,0.1-0.4
		c0-0.1-0.2-0.2-0.3-0.3l-2.8-0.4l-1.2-2.5c-0.1-0.1-0.2-0.2-0.4-0.2c-0.2,0-0.3,0.1-0.4,0.2l-1.2,2.5l-2.8,0.4
		c-0.2,0-0.3,0.1-0.3,0.3C56,86,56,86.1,56.1,86.3z"/>
	<path id="Star_111_" fill="#59595C" d="M72.1,85.6c-0.2,0-0.3,0.1-0.3,0.3c0,0.1,0,0.3,0.1,0.4l2,2L73.4,91c0,0.1,0,0.3,0.2,0.4
		c0.1,0,0.2,0.1,0.2,0.1c0.1,0,0.1,0,0.2,0l2.5-1.3l2.5,1.3c0.1,0,0.1,0,0.2,0c0.1,0,0.2,0,0.2-0.1c0.1-0.1,0.2-0.2,0.2-0.4L79,88.2
		l2-2c0.1-0.1,0.1-0.3,0.1-0.4c0-0.1-0.2-0.2-0.3-0.3l-2.8-0.4l-1.2-2.5c-0.1-0.1-0.2-0.2-0.4-0.2c-0.2,0-0.3,0.1-0.4,0.2l-1.2,2.5
		L72.1,85.6z"/>
	<path id="Star_112_" fill="#59595C" d="M68.3,72.2l-0.5,2.8c0,0.1,0,0.3,0.2,0.4c0.1,0.1,0.2,0.1,0.2,0.1c0.1,0,0.1,0,0.2,0
		l2.5-1.3l2.5,1.3c0.1,0,0.1,0,0.2,0c0.1,0,0.2,0,0.2-0.1c0.1-0.1,0.2-0.2,0.2-0.4l-0.5-2.8l2-2c0.1-0.1,0.1-0.3,0.1-0.4
		c0-0.1-0.2-0.2-0.3-0.3l-2.8-0.4l-1.2-2.5c-0.1-0.1-0.2-0.2-0.4-0.2c-0.2,0-0.3,0.1-0.4,0.2l-1.2,2.5l-2.8,0.4
		c-0.1,0-0.3,0.1-0.3,0.3c0,0.1,0,0.3,0.1,0.4L68.3,72.2z"/>
	<path id="Star_113_" fill="#59595C" d="M89.1,70.8c-0.1-0.1-0.2-0.2-0.4-0.2c-0.2,0-0.3,0.1-0.4,0.2l-1.2,2.5l-2.8,0.4
		c-0.1,0-0.3,0.1-0.3,0.3c0,0.1,0,0.3,0.1,0.4l2,2l-0.5,2.8c0,0.1,0,0.3,0.2,0.4c0.1,0,0.2,0.1,0.2,0.1c0.1,0,0.1,0,0.2,0l2.5-1.3
		l2.5,1.3c0.1,0,0.1,0,0.2,0c0.1,0,0.2,0,0.2-0.1c0.1-0.1,0.2-0.2,0.2-0.4l-0.5-2.8l2-2c0.1-0.1,0.1-0.3,0.1-0.4
		c0-0.1-0.2-0.2-0.3-0.3l-2.8-0.4L89.1,70.8z"/>
	<path id="Star_114_" fill="#59595C" d="M85.1,61.1l-0.5,2.8c0,0.1,0,0.3,0.2,0.4c0.1,0.1,0.2,0.1,0.2,0.1c0.1,0,0.1,0,0.2,0
		l2.5-1.3l2.5,1.3c0.1,0,0.1,0,0.2,0c0.1,0,0.2,0,0.2-0.1c0.1-0.1,0.2-0.2,0.2-0.4l-0.5-2.8l2-2c0.1-0.1,0.1-0.3,0.1-0.4
		c0-0.1-0.2-0.2-0.3-0.3l-2.8-0.4L88,55.6c-0.1-0.1-0.2-0.2-0.4-0.2c-0.2,0-0.3,0.1-0.4,0.2l-1.2,2.5l-2.8,0.4
		c-0.1,0-0.3,0.1-0.3,0.3c0,0.1,0,0.3,0.1,0.4L85.1,61.1z"/>
	<path id="Inner_Circle" fill="#59595C" d="M100,107.6c4.2,0,7.6-3.4,7.6-7.6c0-4.2-3.4-7.6-7.6-7.6c-4.2,0-7.6,3.4-7.6,7.6
		C92.4,104.2,95.8,107.6,100,107.6z M100,95.3c2.6,0,4.7,2.1,4.7,4.7c0,2.6-2.1,4.7-4.7,4.7c-2.6,0-4.7-2.1-4.7-4.7
		C95.3,97.4,97.4,95.3,100,95.3z"/>
</g>
</svg>
