<svg id="Layer_1" data-name="Layer 1" xmlns="http://www.w3.org/2000/svg" viewBox="0 0 64 64"><title>Artboard 9</title><polygon points="8.691 53.679 8.529 53.658 7.7 53.515 7.7 48.392 8.613 48.232 8.777 48.227 9.832 48.227 9.832 46.226 10.712 46.011 10.91 46.001 24.141 46.001 24.335 46.039 25.098 46.226 25.098 48.227 26.24 48.227 26.402 48.247 27.231 48.392 27.231 53.515 26.317 53.673 26.153 53.679 8.691 53.679" style="fill:#ffd98d"/><polygon points="26.24 48.227 25.098 48.227 25.098 46.226 24.335 46.039 24.141 46.001 20.999 46.001 20.999 53.679 26.153 53.679 26.317 53.673 27.231 53.515 27.231 48.392 26.402 48.247 26.24 48.227" style="fill:#f2bf81"/><path d="M38.278,22.825a5.9,5.9,0,0,1-1.388-.183l-.255-.062-8.3-7.789-.079-.249c-.472-1.493-.348-2.726.35-3.471a2.687,2.687,0,0,1,2.055-.766c1.945,0,4.484,1.248,6.625,3.258A12.739,12.739,0,0,1,40.6,18.331c.575,1.607.477,2.934-.276,3.735a2.676,2.676,0,0,1-2.047.759Z" style="fill:#fff"/><rect x="20.226" y="17.813" width="14.554" height="12.356" transform="translate(-8.811 27.639) rotate(-46.836)" style="fill:#ed7d45"/><path d="M24.35,37.675c-1.946,0-4.485-1.248-6.627-3.257-3.232-3.031-4.6-6.846-3.043-8.5a2.674,2.674,0,0,1,2.045-.759,5.866,5.866,0,0,1,1.39.183l.254.063,8.307,7.79.079.249c.471,1.492.346,2.724-.352,3.469a2.679,2.679,0,0,1-2.053.765Z" style="fill:#fff"/><path d="M40.6,18.331a11.963,11.963,0,0,0-2.451-3.868,9.316,9.316,0,0,1,.535,1.2c.575,1.607.477,2.934-.276,3.735a2.676,2.676,0,0,1-2.047.759,5.9,5.9,0,0,1-1.388-.183l-.255-.062L28.051,13.66a6.218,6.218,0,0,0,.2.882l.079.249,8.3,7.789.255.063a5.9,5.9,0,0,0,1.388.183,2.676,2.676,0,0,0,2.047-.759C41.078,21.265,41.176,19.939,40.6,18.331Z" style="fill:#e5e5e5"/><polygon points="34.636 20.705 25.114 30.859 18.452 24.61 18.019 25.072 27.031 33.525 36.987 22.909 34.636 20.705" style="fill:#dd603e"/><path d="M26.755,33.441l-.079-.249-1.638-1.536a2.971,2.971,0,0,1-.552,2.587,2.679,2.679,0,0,1-2.053.765h0c-1.946,0-4.485-1.248-6.627-3.257-.3-.281-.577-.57-.844-.862a13.917,13.917,0,0,0,2.761,3.529c2.143,2.009,4.682,3.257,6.627,3.257h0A2.679,2.679,0,0,0,26.4,36.91C27.1,36.165,27.227,34.934,26.755,33.441Z" style="fill:#e5e5e5"/><path d="M52.136,51.265a4.162,4.162,0,0,1-2.82-1.1l-19.324-19.8,4.035-4.3,20.93,17.957a4.17,4.17,0,0,1-2.821,7.242Z" style="fill:#ffd98d"/><path d="M55.178,46.706a4.172,4.172,0,0,1-5.863.222L31.541,28.717l-1.55,1.653,19.324,19.8a4.162,4.162,0,0,0,6.652-4.7A4.15,4.15,0,0,1,55.178,46.706Z" style="fill:#f2bf81"/><path d="M35.471,25.987l2.071-2.208a6.054,6.054,0,0,0,.724.057,3.69,3.69,0,0,0,2.789-1.085c1.022-1.09,1.2-2.779.488-4.757a13.748,13.748,0,0,0-3.578-5.16C34.272,9.368,29.839,8.3,27.872,10.387a3.97,3.97,0,0,0-.8,3.574L17.466,24.2a3.969,3.969,0,0,0-3.515,1.031c-1.964,2.095-.607,6.45,3.088,9.917,2.421,2.27,5.159,3.515,7.312,3.515a3.689,3.689,0,0,0,2.783-1.067,3.966,3.966,0,0,0,.8-3.574l2.069-2.206L48.6,50.865a5.17,5.17,0,1,0,7.041-7.572Zm-6.14-14.232c1.01-1.075,4.33-.218,7.266,2.538a11.729,11.729,0,0,1,3.063,4.375c.435,1.218.413,2.207-.063,2.714a2.591,2.591,0,0,1-2.468.289L29.205,14.24A2.588,2.588,0,0,1,29.331,11.755ZM25.674,36.226c-1.006,1.075-4.329.218-7.267-2.537s-4-6.016-3-7.09a2.586,2.586,0,0,1,2.467-.288L25.8,33.743A2.58,2.58,0,0,1,25.674,36.226Zm2.933-5.844-1.622,1.73-7.553-7.084L28.02,15.87l7.553,7.084-4.294,4.579ZM54.449,49.263a3.172,3.172,0,0,1-4.45.175L31.375,30.356,34.1,27.447l20.2,17.334A3.174,3.174,0,0,1,54.449,49.263Z" style="fill:#281a10"/><path d="M26.153,47.227H26.1v-.335A1.993,1.993,0,0,0,24.021,45H10.91a1.993,1.993,0,0,0-2.078,1.891v.335H8.777A1.925,1.925,0,0,0,6.7,49.006V52.9a1.925,1.925,0,0,0,2.078,1.778H26.153A1.925,1.925,0,0,0,28.231,52.9V49.006A1.925,1.925,0,0,0,26.153,47.227Zm.078,5.446a.459.459,0,0,1-.078.006H8.777a.458.458,0,0,1-.078-.006v-3.44a.458.458,0,0,1,.078-.006H9.832a1,1,0,0,0,1-1V47.011A.33.33,0,0,1,10.91,47H24.021a.328.328,0,0,1,.078.01v1.216a1,1,0,0,0,1,1h1.055a.459.459,0,0,1,.078.006Z" style="fill:#281a10"/></svg>