<svg id="Layer_1" data-name="Layer 1" xmlns="http://www.w3.org/2000/svg" viewBox="0 0 64 64"><title>Artboard 16</title><path d="M16.312,49.656V9.031H47.687V49.656Z" style="fill:#fff"/><path d="M42.625,49.656V9.031h5.062V49.656Z" style="fill:#e5e5e5"/><circle cx="24.384" cy="43.157" r="4.666" style="fill:#ffd98d"/><path d="M24.384,38.49a4.608,4.608,0,0,0-1.48.263,4.636,4.636,0,0,1,0,8.807,4.6,4.6,0,0,0,1.48.263,4.667,4.667,0,1,0,0-9.333Z" style="fill:#f2bf81"/><path d="M24.384,51.531l-2.959,3.438v-7.94l1.348.5a4.564,4.564,0,0,0,3.223,0l1.348-.5v7.94Z" style="fill:#ed7d45"/><path d="M24.384,51.531V47.823A8.588,8.588,0,0,0,26,47.529l1.348-.5v7.94Z" style="fill:#dd603e"/><path d="M46.687,8.031H17.312a2,2,0,0,0-2,2V48.656a2,2,0,0,0,2,2h3.112v4.313a1,1,0,0,0,1.758.652l2.2-2.557,2.2,2.557a1,1,0,0,0,1.758-.652V50.656H46.687a2,2,0,0,0,2-2V10.031A2,2,0,0,0,46.687,8.031ZM26.343,52.274l-1.2-1.4a1.033,1.033,0,0,0-1.516,0l-1.2,1.4V48.467a5.562,5.562,0,0,0,3.918,0Zm-1.959-5.451a3.667,3.667,0,1,1,3.667-3.667A3.67,3.67,0,0,1,24.384,46.823Zm22.3,1.833H28.343V47.2a5.667,5.667,0,1,0-7.918,0v1.453H17.312V10.031H46.687Z" style="fill:#281a10"/><path d="M23.312,17.906H40.687a1,1,0,0,0,0-2H23.312a1,1,0,0,0,0,2Z" style="fill:#281a10"/><path d="M23.312,23.656H40.687a1,1,0,0,0,0-2H23.312a1,1,0,0,0,0,2Z" style="fill:#281a10"/><path d="M23.312,29.406H40.687a1,1,0,0,0,0-2H23.312a1,1,0,0,0,0,2Z" style="fill:#281a10"/><path d="M23.312,35.156H40.687a1,1,0,0,0,0-2H23.312a1,1,0,0,0,0,2Z" style="fill:#281a10"/><path d="M40.687,38.906H32.75a1,1,0,0,0,0,2h7.937a1,1,0,0,0,0-2Z" style="fill:#281a10"/></svg>