<svg id="Layer_1" data-name="Layer 1" xmlns="http://www.w3.org/2000/svg" viewBox="0 0 64 64"><title>Artboard 8</title><path d="M49.6,53.8a4.251,4.251,0,0,1-2.994-1.209L35.56,41.55l5.99-5.989L52.594,46.6a4.236,4.236,0,0,1,0,5.989A4.25,4.25,0,0,1,49.6,53.8Z" style="fill:#ed7d45"/><path d="M24.658,35.576a10.917,10.917,0,1,1,7.721-3.2A10.845,10.845,0,0,1,24.658,35.576Z" style="fill:#fff"/><path d="M32.377,16.939a10.845,10.845,0,0,0-7.719-3.2,11.019,11.019,0,0,0-1.625.133,10.9,10.9,0,0,1,0,21.57,11.035,11.035,0,0,0,1.625.133,10.917,10.917,0,0,0,7.719-18.638Z" style="fill:#e5e5e5"/><path d="M24.658,39.15a14.492,14.492,0,1,1,10.248-4.244A14.4,14.4,0,0,1,24.658,39.15Zm0-25.41a10.919,10.919,0,1,0,7.719,3.2A10.841,10.841,0,0,0,24.658,13.74Z" style="fill:#ffd98d"/><path d="M31.5,37.492l1.035-.673a14.665,14.665,0,0,0,2.369-1.913,14.428,14.428,0,0,0,1.91-2.368l.672-1.038,4.062,4.061L35.56,41.55Z" style="fill:#fff"/><path d="M52.594,47.844a4.311,4.311,0,0,1-5.988,0l-8.67-8.669L35.56,41.55,46.605,52.594a4.311,4.311,0,0,0,5.988,0,4.231,4.231,0,0,0,.509-5.37A4.275,4.275,0,0,1,52.594,47.844Z" style="fill:#dd603e"/><path d="M36.059,37.025,34.4,35.363a14.737,14.737,0,0,1-1.859,1.455l-1.035.673L35.56,41.55l5.99-5.989-2.014-2.013Z" style="fill:#e5e5e5"/><path d="M33.084,16.231a11.917,11.917,0,1,0,0,16.854A11.839,11.839,0,0,0,33.084,16.231ZM31.672,31.671a9.919,9.919,0,1,1,0-14.025A9.86,9.86,0,0,1,31.672,31.671Z" style="fill:#281a10"/><path d="M38.658,31.254a15.5,15.5,0,1,0-7.4,7.409L45.9,53.3a5.235,5.235,0,0,0,7.4-7.4Zm-14,6.9A13.492,13.492,0,1,1,34.2,34.2,13.4,13.4,0,0,1,24.658,38.15Zm8.424-.493a15.637,15.637,0,0,0,2.531-2.044,15.425,15.425,0,0,0,2.043-2.532l2.48,2.479L35.56,40.136Zm18.8,14.229a3.313,3.313,0,0,1-4.574,0L36.975,41.55l4.576-4.575L51.887,47.312a3.236,3.236,0,0,1,0,4.575Z" style="fill:#281a10"/></svg>