<svg id="Layer_1" data-name="Layer 1" xmlns="http://www.w3.org/2000/svg" viewBox="0 0 64 64"><title>Artboard 15</title><path d="M35.082,32.416a1.109,1.109,0,0,0-1.108-1.108H30.026a1.109,1.109,0,0,0-1.108,1.108v2.433l-1.218-.27C18.144,32.45,13.034,23.6,12.106,21.846l-.537-1.015,1-.364.164-.095.29-.008H51.245l.179.1,1.007.366-.537,1.015C50.966,23.6,45.855,32.45,36.3,34.578l-1.218.27Z" style="fill:#ed7d45"/><path d="M51.424,20.465l-.179-.1h-4.5l.179.1,1.007.366-.537,1.015c-.815,1.54-4.861,8.555-12.31,11.681v1.322l1.218-.27C45.855,32.45,50.966,23.6,51.894,21.846l.537-1.015Z" style="fill:#dd603e"/><path d="M13.023,49.73a1.109,1.109,0,0,1-1.108-1.107V21.891l1.823,2.646c2.17,3.147,6.922,8.649,14.374,10.128l.806.159v3.41a1.109,1.109,0,0,0,1.108,1.108h3.947a1.109,1.109,0,0,0,1.108-1.108v-3.41l.806-.159c7.452-1.479,12.2-6.98,14.374-10.128l1.823-2.646V48.622a1.109,1.109,0,0,1-1.108,1.107Z" style="fill:#fff"/><path d="M50.262,24.536a28.762,28.762,0,0,1-2.678,3.319V48.622a1.109,1.109,0,0,1-1.108,1.107h4.5a1.109,1.109,0,0,0,1.108-1.107V21.891Z" style="fill:#e5e5e5"/><rect x="28.918" y="31.308" width="6.164" height="8.034" rx="1.108" ry="1.108" style="fill:#ffd98d"/><path d="M32.554,39.342c-.306,0-.554-.5-.554-1.108V32.416c0-.611.248-1.108.554-1.108h1.974c.306,0,.554.5.554,1.108v5.817c0,.611-.249,1.108-.554,1.108Z" style="fill:#f2bf81"/><path d="M50.977,19.364H38.842c0-.036.011-.07.011-.108V15.378a2.11,2.11,0,0,0-2.108-2.107H27.256a2.111,2.111,0,0,0-2.108,2.107v3.879c0,.037.009.071.011.108H13.023a2.111,2.111,0,0,0-2.108,2.108V48.622a2.111,2.111,0,0,0,2.108,2.107H50.977a2.111,2.111,0,0,0,2.108-2.107V21.473A2.111,2.111,0,0,0,50.977,19.364ZM27.147,15.378a.107.107,0,0,1,.108-.107h9.488a.107.107,0,0,1,.108.107v3.879a.107.107,0,0,1-.108.108H27.256a.107.107,0,0,1-.108-.108ZM13.023,21.364H50.977c.013,0,.022.01.033.014-.939,1.775-5.834,10.2-14.928,12.224V32.416a2.111,2.111,0,0,0-2.108-2.108H30.026a2.111,2.111,0,0,0-2.108,2.108V33.6C18.824,31.577,13.93,23.153,12.99,21.378,13,21.374,13.011,21.364,13.023,21.364ZM34.082,32.416v5.817a.109.109,0,0,1-.108.108H30.026a.109.109,0,0,1-.108-.108V32.416a.108.108,0,0,1,.108-.108h3.947A.108.108,0,0,1,34.082,32.416Zm17,16.206a.107.107,0,0,1-.108.107H13.023a.107.107,0,0,1-.108-.107V25.1c2.462,3.571,7.358,9.024,15,10.541v2.589a2.111,2.111,0,0,0,2.108,2.108h3.947a2.111,2.111,0,0,0,2.108-2.108V35.645c7.645-1.517,12.541-6.97,15-10.541Z" style="fill:#281a10"/></svg>