<svg id="Layer_1" data-name="Layer 1" xmlns="http://www.w3.org/2000/svg" viewBox="0 0 64 64"><title>Artboard 10</title><path d="M45.361,8.375H18.639c-3.185,0-5.086,1.9-5.086,5.085V50.445c0,3.243,1.9,5.18,5.086,5.18H45.361c2.458,0,5.085-1.36,5.085-5.18V13.46C50.447,10.276,48.546,8.375,45.361,8.375Z" style="fill:#ffd98d"/><path d="M13.553,38.981V25.019h13.87V38.981Z" style="fill:#ed7d45"/><path d="M23.667,38.981V25.019h3.756V38.981Z" style="fill:#dd603e"/><circle cx="20.488" cy="30.428" r="1.826" style="fill:#fff"/><path d="M47.095,8.375H44.667v47.25h3.458c.447,0,2.322-1.36,2.322-5.18V13.46C50.447,10.276,47.673,8.375,47.095,8.375Z" style="fill:#f2bf81"/><path d="M20.257,25.019V15.31h5.316v9.709ZM25.574,48.69V38.981H20.257V48.69Zm12.853,0V15.31H31.769V48.69Zm-6.658,0V15.31h-6.2v9.709h1.849V38.981H25.574V48.69Zm11.974,0V15.31H38.427V48.69Z" style="fill:#fff"/><path d="M43.743,48.69V15.31H38.427V48.69Z" style="fill:#e5e5e5"/><path d="M45.361,7.375H18.639c-4.487,0-6.086,3.144-6.086,6.085V50.445c0,2.987,1.6,6.18,6.086,6.18H45.361a5.757,5.757,0,0,0,6.085-6.18V13.46C51.447,8.974,48.3,7.375,45.361,7.375ZM14.553,26.019h11.87V37.981H14.553Zm6.7-2V16.31h3.316v7.709Zm3.316,15.963V47.69H21.257V39.981ZM49.447,50.445c0,3.772-2.857,4.18-4.085,4.18H18.639c-3.555,0-4.086-2.619-4.086-4.18V39.981h4.7V48.69a1,1,0,0,0,1,1H43.743a1,1,0,0,0,1-1V15.31a1,1,0,0,0-1-1H20.257a1,1,0,0,0-1,1v8.709h-4.7V13.46c0-1.525.531-4.085,4.086-4.085H45.361c1.526,0,4.085.53,4.085,4.085ZM27.423,24.019h-.849V16.31h4.2V47.69h-4.2V39.981h.849a1,1,0,0,0,1-1V25.019A1,1,0,0,0,27.423,24.019ZM32.769,47.69V16.31h4.658V47.69Zm6.658,0V16.31h3.316V47.69Z" style="fill:#281a10"/><path d="M20.488,27.6a2.822,2.822,0,0,0-1,5.462V35.4a1,1,0,1,0,2,0V33.064a2.822,2.822,0,0,0-1-5.462Zm0,3.653a.827.827,0,1,1,.826-.827A.828.828,0,0,1,20.488,31.255Z" style="fill:#281a10"/></svg>