<svg xmlns="http://www.w3.org/2000/svg" data-name="Layer 1" viewBox="0 0 64 64"><path fill="#ed7d45" d="M49.6 53.8a4.251 4.251 0 01-2.994-1.209L35.56 41.55l5.99-5.989L52.594 46.6a4.236 4.236 0 010 5.989A4.25 4.25 0 0149.6 53.8z"/><path fill="#fff" d="M24.658 35.576a10.917 10.917 0 117.721-3.2 10.845 10.845 0 01-7.721 3.2z"/><path fill="#e5e5e5" d="M32.377 16.939a10.845 10.845 0 00-7.719-3.2 11.019 11.019 0 00-1.625.133 10.9 10.9 0 010 21.57 11.035 11.035 0 001.625.133 10.917 10.917 0 007.719-18.638z"/><path fill="#ffd98d" d="M24.658 39.15a14.492 14.492 0 1110.248-4.244 14.4 14.4 0 01-10.248 4.244zm0-25.41a10.919 10.919 0 107.719 3.2 10.841 10.841 0 00-7.719-3.2z"/><path fill="#fff" d="M31.5 37.492l1.035-.673a14.665 14.665 0 002.369-1.913 14.428 14.428 0 001.91-2.368l.672-1.038 4.062 4.061-5.988 5.989z"/><path fill="#dd603e" d="M52.594 47.844a4.311 4.311 0 01-5.988 0l-8.67-8.669-2.376 2.375 11.045 11.044a4.311 4.311 0 005.988 0 4.231 4.231 0 00.509-5.37 4.275 4.275 0 01-.508.62z"/><path fill="#e5e5e5" d="M36.059 37.025L34.4 35.363a14.737 14.737 0 01-1.859 1.455l-1.035.673 4.054 4.059 5.99-5.989-2.014-2.013z"/><path fill="#281a10" d="M33.084 16.231a11.917 11.917 0 100 16.854 11.839 11.839 0 000-16.854zm-1.412 15.44a9.919 9.919 0 110-14.025 9.86 9.86 0 010 14.025z"/><path fill="#281a10" d="M38.658 31.254a15.5 15.5 0 10-7.4 7.409L45.9 53.3a5.235 5.235 0 007.4-7.4zm-14 6.9A13.492 13.492 0 1134.2 34.2a13.4 13.4 0 01-9.542 3.95zm8.424-.493a15.637 15.637 0 002.531-2.044 15.425 15.425 0 002.043-2.532l2.48 2.479-4.576 4.572zm18.8 14.229a3.313 3.313 0 01-4.574 0L36.975 41.55l4.576-4.575 10.336 10.337a3.236 3.236 0 010 4.575z"/></svg>