<svg xmlns="http://www.w3.org/2000/svg" data-name="Layer 1" viewBox="0 0 64 64"><path fill="#fff" d="M16.312 49.656V9.031h31.375v40.625z"/><path fill="#e5e5e5" d="M42.625 49.656V9.031h5.062v40.625z"/><circle cx="24.384" cy="43.157" r="4.666" fill="#ffd98d"/><path fill="#f2bf81" d="M24.384 38.49a4.608 4.608 0 0 0-1.48.263 4.636 4.636 0 0 1 0 8.807 4.6 4.6 0 0 0 1.48.263 4.667 4.667 0 1 0 0-9.333z"/><path fill="#ed7d45" d="m24.384 51.531-2.959 3.438v-7.94l1.348.5a4.564 4.564 0 0 0 3.223 0l1.348-.5v7.94z"/><path fill="#dd603e" d="M24.384 51.531v-3.708A8.588 8.588 0 0 0 26 47.529l1.348-.5v7.94z"/><path fill="#281a10" d="M46.687 8.031H17.312a2 2 0 0 0-2 2v38.625a2 2 0 0 0 2 2h3.112v4.313a1 1 0 0 0 1.758.652l2.2-2.557 2.2 2.557a1 1 0 0 0 1.758-.652v-4.313h18.347a2 2 0 0 0 2-2V10.031a2 2 0 0 0-2-2zM26.343 52.274l-1.2-1.4a1.033 1.033 0 0 0-1.516 0l-1.2 1.4v-3.807a5.562 5.562 0 0 0 3.918 0zm-1.959-5.451a3.667 3.667 0 1 1 3.667-3.667 3.67 3.67 0 0 1-3.667 3.667zm22.3 1.833H28.343V47.2a5.667 5.667 0 1 0-7.918 0v1.453h-3.113V10.031h29.375z"/><path fill="#281a10" d="M23.312 17.906h17.375a1 1 0 0 0 0-2H23.312a1 1 0 0 0 0 2zM23.312 23.656h17.375a1 1 0 0 0 0-2H23.312a1 1 0 0 0 0 2zM23.312 29.406h17.375a1 1 0 0 0 0-2H23.312a1 1 0 0 0 0 2zM23.312 35.156h17.375a1 1 0 0 0 0-2H23.312a1 1 0 0 0 0 2zM40.687 38.906H32.75a1 1 0 0 0 0 2h7.937a1 1 0 0 0 0-2z"/></svg>