<svg xmlns="http://www.w3.org/2000/svg" data-name="Layer 1" viewBox="0 0 64 64"><path fill="#ffd98d" d="M14.292 29.583H19.208V46.501H14.292z"/><path fill="#ffd98d" d="M44.792 29.583H49.708V46.501H44.792z"/><path fill="#f2bf81" d="M47.25 29.583H49.708V46.501H47.25z"/><path fill="#ffd98d" d="M29.542 29.583H34.458V46.501H29.542z"/><path fill="#f2bf81" d="M32 29.583H34.458V46.501H32z"/><path fill="#f2bf81" d="M16.75 29.583H19.208V46.501H16.75z"/><path fill="#ed7d45" d="M11.333 25.834v-3L32 10.5l20.667 12.334v3z"/><path fill="#dd603e" d="M11.612 22.667 11.333 22.833 11.333 25.833 52.667 25.833 52.667 22.833 52.388 22.667 11.612 22.667z"/><circle cx="32" cy="19.584" r="3.083" fill="#fff"/><path fill="#e5e5e5" d="M32 16.5a3.051 3.051 0 0 0-1.062.2 3.067 3.067 0 0 1 0 5.766 3.049 3.049 0 0 0 1.063.2A3.083 3.083 0 0 0 32 16.5z"/><path fill="#281a10" d="M53.18 21.975 32.513 9.641a1 1 0 0 0-1.025 0L10.82 21.975a1 1 0 0 0-.487.859v3a1 1 0 0 0 1 1h41.334a1 1 0 0 0 1-1v-3a1 1 0 0 0-.487-.859zm-1.513 2.859H12.333V23.4L32 11.665 51.667 23.4zM19.208 47.5a1 1 0 0 0 1-1V29.584a1 1 0 0 0-1-1h-4.916a1 1 0 0 0-1 1V46.5a1 1 0 0 0 1 1zm-3.916-16.916h2.916V45.5h-2.916zM34.458 47.5a1 1 0 0 0 1-1V29.584a1 1 0 0 0-1-1h-4.916a1 1 0 0 0-1 1V46.5a1 1 0 0 0 1 1zm-3.916-16.916h2.916V45.5h-2.916zM49.708 47.5a1 1 0 0 0 1-1V29.584a1 1 0 0 0-1-1h-4.916a1 1 0 0 0-1 1V46.5a1 1 0 0 0 1 1zm-3.916-16.916h2.916V45.5h-2.916z"/><path fill="#281a10" d="M27.917 19.584A4.083 4.083 0 1 0 32 15.5a4.088 4.088 0 0 0-4.083 4.084zm6.166 0A2.083 2.083 0 1 1 32 17.5a2.086 2.086 0 0 1 2.083 2.084zM12.667 50.167a1 1 0 0 0 1 1h36.666a1 1 0 0 0 0-2H13.667a1 1 0 0 0-1 1zM52.667 52.5H11.333a1 1 0 1 0 0 2h41.334a1 1 0 0 0 0-2z"/></svg>