<svg id="Layer_1" data-name="Layer 1" xmlns="http://www.w3.org/2000/svg" viewBox="0 0 64 64"><title>Artboard 1</title><path d="M16.813,40.094a7.278,7.278,0,0,1-7.221-6.155l-.185-1.158H24.218l-.185,1.158A7.278,7.278,0,0,1,16.813,40.094Z" style="fill:#ed7d45"/><path d="M47.188,40.094a7.278,7.278,0,0,1-7.221-6.155l-.185-1.158H54.593l-.185,1.158A7.278,7.278,0,0,1,47.188,40.094Z" style="fill:#ed7d45"/><path d="M23.211,53.281l.456-1.325c.895-2.6,4.373-4.487,8.27-4.487s7.376,1.887,8.27,4.487l.456,1.325Z" style="fill:#ffd98d"/><path d="M20.718,32.781l-.185,1.158a7.267,7.267,0,0,1-5.471,5.94,7.4,7.4,0,0,0,1.75.215,7.278,7.278,0,0,0,7.221-6.155l.185-1.158Z" style="fill:#dd603e"/><path d="M51.093,32.781l-.185,1.158a7.267,7.267,0,0,1-5.471,5.94,7.4,7.4,0,0,0,1.75.215,7.278,7.278,0,0,0,7.221-6.155l.185-1.158Z" style="fill:#dd603e"/><path d="M40.208,51.956c-.895-2.6-4.373-4.487-8.27-4.487a11.95,11.95,0,0,0-1.75.133c3.149.466,5.763,2.152,6.52,4.354l.456,1.325h3.5Z" style="fill:#f2bf81"/><path d="M55.428,32.408l-.006-.016h0l-6.753-16.8H51.75a1,1,0,0,0,0-2H32.938V10.719a1,1,0,1,0-2,0v2.875H12.125a1,1,0,0,0,0,2h3.207l-6.753,16.8h0l-.006.016h0a.994.994,0,0,0-.075.372,8.313,8.313,0,0,0,16.625,0,.994.994,0,0,0-.075-.372h0l-.006-.016h0l-6.753-16.8H30.938V46.507c-4.767.36-8.5,3.26-8.5,6.774a1,1,0,0,0,1,1h16.99a1,1,0,0,0,1-1c0-3.514-3.728-6.414-8.5-6.774V15.594h12.77l-6.753,16.8h0l-.006.016h0a.994.994,0,0,0-.075.372,8.313,8.313,0,0,0,16.625,0,.994.994,0,0,0-.075-.372ZM16.813,39.094a6.322,6.322,0,0,1-6.233-5.312H23.046A6.322,6.322,0,0,1,16.813,39.094Zm5.833-7.312H10.98l5.833-14.507Zm16.617,20.5H24.613c.739-2.148,3.794-3.812,7.325-3.812S38.523,50.133,39.262,52.281Zm7.925-35.007L53.02,31.781H41.355Zm0,21.819a6.322,6.322,0,0,1-6.233-5.312H53.421A6.322,6.322,0,0,1,47.188,39.094Z" style="fill:#281a10"/></svg>