<svg id="Layer_1" data-name="Layer 1" xmlns="http://www.w3.org/2000/svg" viewBox="0 0 64 64"><title>Artboard 4</title><path d="M30.529,47.5a2.724,2.724,0,0,0-1.3-.324L7.666,47.164V17.006H29.232A2.771,2.771,0,0,1,32,19.773V48.281Z" style="fill:#fff"/><path d="M32,47.166V19.773a2.771,2.771,0,0,0-2.768-2.767H27.494V47.164Z" style="fill:#e5e5e5"/><rect x="10.894" y="12.974" width="4.326" height="4.032" style="fill:#ed7d45"/><rect x="13.058" y="12.974" width="2.163" height="4.032" style="fill:#dd603e"/><path d="M32,19.773a2.771,2.771,0,0,1,2.768-2.767H56.334V47.164l-21.566.009a2.725,2.725,0,0,0-1.3.324L32,48.281Z" style="fill:#fff"/><rect x="51.828" y="17.006" width="4.506" height="30.158" style="fill:#e5e5e5"/><path d="M56.334,16.006H34.768A3.746,3.746,0,0,0,32,17.238a3.746,3.746,0,0,0-2.768-1.232H16.221V12.974a1,1,0,0,0-1-1H10.894a1,1,0,0,0-1,1v3.032H7.666a1,1,0,0,0-1,1V47.164a1,1,0,0,0,1,1l21.566.009A1.77,1.77,0,0,1,31,49.94a1,1,0,0,0,2,0,1.77,1.77,0,0,1,1.768-1.767l21.566-.009a1,1,0,0,0,1-1V17.006A1,1,0,0,0,56.334,16.006Zm-44.44-2.032h2.326v2.032H11.894ZM31,46.614a3.744,3.744,0,0,0-1.768-.441L8.666,46.164V18.006H29.232A1.77,1.77,0,0,1,31,19.773Zm24.334-.45-20.566.009A3.744,3.744,0,0,0,33,46.614V19.773a1.77,1.77,0,0,1,1.768-1.767H55.334Z" style="fill:#281a10"/><path d="M27.488,50.026H9.412a1,1,0,0,0,0,2H27.488a1,1,0,0,0,0-2Z" style="fill:#281a10"/><path d="M54.5,50.026H36.426a1,1,0,0,0,0,2H54.5a1,1,0,0,0,0-2Z" style="fill:#281a10"/><path d="M13.174,23.945h8.32a1,1,0,0,0,0-2h-8.32a1,1,0,0,0,0,2Z" style="fill:#281a10"/><path d="M26.494,27.654H13.174a1,1,0,0,0,0,2h13.32a1,1,0,0,0,0-2Z" style="fill:#281a10"/><path d="M26.494,33.362H13.174a1,1,0,0,0,0,2h13.32a1,1,0,0,0,0-2Z" style="fill:#281a10"/><path d="M26.494,39.071H13.174a1,1,0,0,0,0,2h13.32a1,1,0,0,0,0-2Z" style="fill:#281a10"/><path d="M37.508,23.945h8.32a1,1,0,0,0,0-2h-8.32a1,1,0,0,0,0,2Z" style="fill:#281a10"/><path d="M37.508,29.654h13.32a1,1,0,0,0,0-2H37.508a1,1,0,0,0,0,2Z" style="fill:#281a10"/><path d="M37.508,35.362h13.32a1,1,0,0,0,0-2H37.508a1,1,0,0,0,0,2Z" style="fill:#281a10"/><path d="M37.508,41.071h13.32a1,1,0,0,0,0-2H37.508a1,1,0,0,0,0,2Z" style="fill:#281a10"/></svg>