<svg id="Layer_1" data-name="Layer 1" xmlns="http://www.w3.org/2000/svg" viewBox="0 0 64 64"><title>Artboard 6</title><path d="M31.917,53.954C23.314,53.237,16.6,49.2,13.5,42.886c-2.291-4.666-2.259-10,.082-13.592,3.849-5.905.548-11.526-1.049-13.668l-.513-.687,4.8-4.883.691.473a13.691,13.691,0,0,0,7.622,2.738,8.952,8.952,0,0,0,6.176-2.472L32,10.139l.689.655a8.944,8.944,0,0,0,6.175,2.472,13.681,13.681,0,0,0,7.621-2.739l.691-.473,4.8,4.884-.513.687c-1.6,2.143-4.9,7.763-1.049,13.668,2.34,3.591,2.373,8.927.082,13.593-3.1,6.316-9.813,10.35-18.415,11.067L32,53.96ZM32,20.294a13.25,13.25,0,1,0,13.25,13.25A13.265,13.265,0,0,0,32,20.294Z" style="fill:#ffd98d"/><path d="M32,46.794a13.25,13.25,0,1,1,13.25-13.25A13.265,13.265,0,0,1,32,46.794Z" style="fill:#ed7d45"/><path d="M32,20.294a13.244,13.244,0,0,0-1.74.128,13.235,13.235,0,0,1,0,26.245A13.244,13.244,0,1,0,32,20.294Z" style="fill:#dd603e"/><path d="M50.416,29.294c-3.849-5.905-.548-11.526,1.049-13.668l.513-.687-4.8-4.884-.691.473c-.553.378-1.1.708-1.644,1.009l3.345,3.4-.513.687c-1.6,2.143-4.9,7.763-1.049,13.668,2.34,3.591,2.373,8.927.082,13.593-2.879,5.865-8.874,9.757-16.6,10.858.6.085,1.2.158,1.813.209L32,53.96l.083-.007C40.685,53.237,47.4,49.2,50.5,42.887,52.789,38.221,52.757,32.885,50.416,29.294Z" style="fill:#f2bf81"/><polygon points="32 38.869 26.201 41.918 27.309 35.46 22.617 30.887 29.1 29.945 32 24.071 34.9 29.945 41.383 30.887 36.691 35.46 37.799 41.918 32 38.869" style="fill:#fff"/><polygon points="41.383 30.887 34.9 29.945 32 24.071 30.75 26.603 32.4 29.945 38.883 30.887 34.191 35.46 35.051 40.473 37.799 41.918 36.691 35.46 41.383 30.887" style="fill:#e5e5e5"/><path d="M52.734,15.639a1,1,0,0,0-.021-1.38L47.879,9.343a1,1,0,0,0-1.306-.1c-2.725,2.008-5.318,3.027-7.709,3.027a7.841,7.841,0,0,1-6.058-2.814,1,1,0,0,0-.8-.406.9.9,0,0,0-.806.4,7.845,7.845,0,0,1-6.062,2.818c-2.391,0-4.984-1.018-7.709-3.027a1,1,0,0,0-1.306.1l-4.833,4.916a1,1,0,0,0-.02,1.381c.059.064,5.835,6.422,1.479,13.107-2.529,3.88-2.585,9.6-.142,14.579,3.272,6.665,10.311,10.9,19.315,11.63.027,0,.054,0,.081,0s.054,0,.081,0c9-.727,16.044-4.965,19.315-11.63,2.443-4.976,2.387-10.7-.142-14.579C46.915,22.09,52.495,15.9,52.734,15.639ZM49.6,42.446c-2.943,6-9.355,9.824-17.6,10.511-8.245-.687-14.657-4.515-17.6-10.511-2.139-4.356-2.13-9.3.022-12.606,4.247-6.516.477-12.717-1.085-14.812l3.613-3.675a14.644,14.644,0,0,0,8.186,2.913h0A9.912,9.912,0,0,0,32,11.519a9.908,9.908,0,0,0,6.864,2.747,14.641,14.641,0,0,0,8.186-2.914l3.613,3.675c-1.562,2.1-5.332,8.3-1.085,14.812C51.73,33.142,51.739,38.09,49.6,42.446Z" style="fill:#281a10"/><path d="M32.722,24.154a.839.839,0,0,0-1.444,0l-2.583,5.233-5.775.839a.8.8,0,0,0-.446,1.374l4.179,4.074-.987,5.753a.806.806,0,0,0,1.169.849L32,39.559l5.165,2.716a.806.806,0,0,0,1.169-.849l-.987-5.753L41.527,31.6a.8.8,0,0,0-.446-1.373l-5.775-.839Zm3.2,10.662a.806.806,0,0,0-.232.713l.783,4.561-4.1-2.154a.809.809,0,0,0-.75,0l-4.1,2.154.783-4.561a.806.806,0,0,0-.232-.713l-3.313-3.23,4.579-.665a.805.805,0,0,0,.606-.44L32,26.33l2.048,4.15a.805.805,0,0,0,.606.44l4.579.665Z" style="fill:#281a10"/><path d="M32,19.294a14.25,14.25,0,1,0,14.25,14.25A14.266,14.266,0,0,0,32,19.294Zm0,26.5a12.25,12.25,0,1,1,12.25-12.25A12.264,12.264,0,0,1,32,45.794Z" style="fill:#281a10"/></svg>