<svg id="Layer_1" data-name="Layer 1" xmlns="http://www.w3.org/2000/svg" viewBox="0 0 64 64"><title>Artboard 3</title><path d="M13.91,54.759V18.022H45.7a4.336,4.336,0,0,0,2.76-.979l1.63-1.321V50.369a4.394,4.394,0,0,1-4.39,4.39Z" style="fill:#ed7d45"/><path d="M50.09,50.369V15.721l-1.63,1.321a4.336,4.336,0,0,1-2.76.979H44.41V54.759H45.7A4.394,4.394,0,0,0,50.09,50.369Z" style="fill:#dd603e"/><polygon points="32.458 18.021 40.562 18.021 40.562 33.529 36.51 29.55 32.458 33.53 32.458 18.021" style="fill:#ffd98d"/><polygon points="40.562 33.529 40.562 18.021 36.51 18.021 36.51 29.55 40.562 33.529" style="fill:#f2bf81"/><path d="M19.795,18.022V9.241H45.7a4.39,4.39,0,0,1,0,8.78Z" style="fill:#fff"/><path d="M45.7,9.241H39.815a4.39,4.39,0,0,1,0,8.78H45.7a4.39,4.39,0,0,0,0-8.78Z" style="fill:#e5e5e5"/><path d="M45.7,8.241H19.795a1,1,0,0,0-1,1v7.78H13.91a1,1,0,0,0-1,1V54.759a1,1,0,0,0,1,1H45.7a5.4,5.4,0,0,0,5.39-5.39V13.631A5.4,5.4,0,0,0,45.7,8.241Zm3.39,42.127a3.394,3.394,0,0,1-3.39,3.39H14.91V19.022H31.458V33.53a1,1,0,0,0,1.7.713l3.351-3.292,3.352,3.292a1,1,0,0,0,1.7-.713V19.022H45.7a5.364,5.364,0,0,0,3.39-1.2ZM33.458,31.146V19.022h6.1V31.146l-2.352-2.31a1,1,0,0,0-1.4,0ZM45.7,17.022H20.795v-6.78H45.7a3.39,3.39,0,0,1,0,6.78Z" style="fill:#281a10"/></svg>