<svg id="Layer_1" data-name="Layer 1" xmlns="http://www.w3.org/2000/svg" viewBox="0 0 64 64"><title>Artboard 14</title><path d="M7.174,45.487,13.381,30.11l-1.668-7.874,4.168-.37,1.945-5.187h39V26.22H36.261c-.033.259-.832,6.207-4.538,6.207H24.5L19.31,49.656Z" style="fill:#ffd98d"/><path d="M56.75,23.25h-30l-4.5,13.583.891.1,1.356-4.5h7.226c3.706,0,4.506-5.948,4.538-6.207H56.825V23.444Z" style="fill:#f2bf81"/><rect x="47.979" y="12.302" width="5.419" height="4.377" style="fill:#fff"/><rect x="50.688" y="12.302" width="2.709" height="4.377" style="fill:#e5e5e5"/><polygon points="7.833 48.365 8.751 46.029 17.177 48.924 16 51.698 7.833 48.365" style="fill:#ed7d45"/><polygon points="12.505 50.032 13.422 47.696 17.177 48.924 16 51.698 12.505 50.032" style="fill:#dd603e"/><path d="M56.825,15.679H54.4V12.3a1,1,0,0,0-1-1H47.979a1,1,0,0,0-1,1v3.377H17.827a1,1,0,0,0-.936.648l-1.724,4.6-3.541.314a1,1,0,0,0-.89,1.2l1.6,7.575L6.247,45.113a1,1,0,0,0,.6,1.319l.589.2L6.9,48a1,1,0,0,0,.553,1.291l8.166,3.333A.989.989,0,0,0,16,52.7a1,1,0,0,0,.921-.609l.814-1.917,1.25.43a.977.977,0,0,0,.325.055,1,1,0,0,0,.957-.712L25.24,33.427h6.482c3.684,0,4.985-4.3,5.381-6.207H56.825a1,1,0,0,0,1-1V16.679A1,1,0,0,0,56.825,15.679ZM48.979,13.3H52.4v2.377H48.979ZM15.465,50.4l-6.34-2.587.207-.526,6.019,2.066.488.168Zm40.36-30.784H39.916a1,1,0,0,0,0,2H55.825v3.6H36.261a1,1,0,0,0-.993.88c-.007.054-.728,5.327-3.546,5.327H24.5a1,1,0,0,0-.957.712L20.992,40.6l-3.277-1.187a1,1,0,0,0-.682,1.881l3.381,1.226-.525,1.746-3.509-1.258a1,1,0,1,0-.675,1.883l3.606,1.293-.66,2.191L8.5,44.884l5.812-14.4a1,1,0,0,0,.051-.581l-1.434-6.771,3.045-.27a1,1,0,0,0,.848-.645l1.7-4.539H55.825Z" style="fill:#281a10"/><path d="M32.695,25.058H26.79a1,1,0,0,0-.942.664l-1.181,3.313a1,1,0,0,0,.606,1.278,1.012,1.012,0,0,0,.336.058,1,1,0,0,0,.942-.664l.944-2.648h5.2a1,1,0,0,0,0-2Z" style="fill:#281a10"/></svg>