<svg id="Layer_1" data-name="Layer 1" xmlns="http://www.w3.org/2000/svg" viewBox="0 0 64 64"><title>Artboard 7</title><path d="M38.912,18.64l-2.144-1.364a4.252,4.252,0,0,1-1.965.47,4.078,4.078,0,0,1-3.166-1.4,4.079,4.079,0,0,1-3.165,1.4,4.261,4.261,0,0,1-1.968-.471L24.359,18.64V41.426L19.33,36.657a4.232,4.232,0,0,1-2.273.652,3.6,3.6,0,0,1-3.836-3.283,3.508,3.508,0,0,1,3.39-3.245h0c-.028,0,0-.05-.008-.079a3.507,3.507,0,0,1-3.381-3.244,3.6,3.6,0,0,1,3.836-3.284,3.674,3.674,0,0,1,.472.039l.1-.112a3.464,3.464,0,0,1-3.038-3.21,3.581,3.581,0,0,1,3.81-3.285,4.7,4.7,0,0,1,.819.073,3.061,3.061,0,0,1-1.29-2.44,3.6,3.6,0,0,1,3.834-3.284A4.079,4.079,0,0,1,24.752,13.2a2.875,2.875,0,0,1-.1-.721,3.6,3.6,0,0,1,3.835-3.284,4.06,4.06,0,0,1,3.148,1.415,4.06,4.06,0,0,1,3.148-1.415,3.6,3.6,0,0,1,3.836,3.284,2.819,2.819,0,0,1-.1.718A4.084,4.084,0,0,1,41.5,11.956a3.6,3.6,0,0,1,3.834,3.284,3.06,3.06,0,0,1-1.291,2.44,4.754,4.754,0,0,1,.827-.073,3.534,3.534,0,0,1,3.8,3.285,3.464,3.464,0,0,1-3.039,3.21l.052.118c-.006-.013,0-.017.013-.017s.043.007.066.007a3.549,3.549,0,0,1,.448-.036,3.6,3.6,0,0,1,3.835,3.284,3.509,3.509,0,0,1-3.38,3.245h0c.026,0,0,.048-.008.077a3.509,3.509,0,0,1,3.388,3.246,3.6,3.6,0,0,1-3.835,3.283,4.229,4.229,0,0,1-2.274-.653l-5.029,4.769Z" style="fill:#ffd98d"/><path d="M46.663,30.781c0-.029.034-.077.008-.077a3.509,3.509,0,0,0,3.38-3.245,3.6,3.6,0,0,0-3.835-3.284,3.549,3.549,0,0,0-.448.036c-.023,0-.05-.007-.066-.007s-.019,0-.013.017l-.052-.118a3.464,3.464,0,0,0,3.039-3.21,3.534,3.534,0,0,0-3.8-3.285,4.754,4.754,0,0,0-.827.073,3.06,3.06,0,0,0,1.291-2.44A3.6,3.6,0,0,0,41.5,11.956a4.192,4.192,0,0,0-2.384.728,3.125,3.125,0,0,1,1.457,2.557,3.06,3.06,0,0,1-1.291,2.44,4.754,4.754,0,0,1,.827-.073,3.534,3.534,0,0,1,3.8,3.285,3.464,3.464,0,0,1-3.039,3.21l.052.118c-.006-.013,0-.017.013-.017s.043.007.065.007a3.551,3.551,0,0,1,.448-.036,3.6,3.6,0,0,1,3.835,3.284A3.509,3.509,0,0,1,41.91,30.7c.026,0,0,.048-.008.077a3.509,3.509,0,0,1,3.388,3.246,3.6,3.6,0,0,1-3.835,3.283,4.228,4.228,0,0,1-2.274-.653l-.269.255v4.514l5.029-4.769a4.229,4.229,0,0,0,2.274.653,3.6,3.6,0,0,0,3.835-3.283A3.509,3.509,0,0,0,46.663,30.781Z" style="fill:#f2bf81"/><path d="M27.786,42.4l1.568-4.607h-5V28.984l1.658,1.449a9.172,9.172,0,0,0,5.693,2.485h0a8.028,8.028,0,0,0,5.52-2.4l1.678-1.548V37.79h-5L35.484,42.4Z" style="fill:#ffd98d"/><path d="M37.247,30.509l-.013.012A10.514,10.514,0,0,1,35.5,31.826V37.79h3.414V31.715A11.906,11.906,0,0,1,37.247,30.509Z" style="fill:#f2bf81"/><path d="M12.543,54.806l.024-1.024c.222-9.117,3.285-14.6,4.22-16.068l.258-.406.478-.051a4.236,4.236,0,0,0,1.24-.3l.606-.264,4.989,4.732V37.79h5L27.786,42.4h7.7L33.917,37.79h5v3.636l4.99-4.732.606.264a4.159,4.159,0,0,0,.621.193l.371.1.213.319c.679,1.022,4.08,6.607,4.312,16.216l.024,1.024Z" style="fill:#ed7d45"/><path d="M50.026,53.782c-.232-9.609-3.634-15.194-4.312-16.216l-.213-.319-.371-.1a4.159,4.159,0,0,1-.621-.193l-.606-.264-2.058,1.951a33.351,33.351,0,0,1,3.668,15.136l.024,1.024h4.514Z" style="fill:#dd603e"/><path d="M31.751,32.919c-3.6-.046-6.388-3.023-7.156-3.934l-.235-.279V18.64l2.115-1.346.471.181a4.227,4.227,0,0,0,1.522.275,4.3,4.3,0,0,0,2.562-.819l.605-.461.605.461a4.3,4.3,0,0,0,2.562.819,4.228,4.228,0,0,0,1.522-.275l.471-.181,2.115,1.346V28.687l-.227.276c-2.154,2.625-4.468,3.956-6.879,3.956Z" style="fill:#fff"/><path d="M38.912,18.64,36.8,17.294l-.471.181a4.088,4.088,0,0,1-.828.214V31.825a12.634,12.634,0,0,0,3.187-2.861l.227-.276Z" style="fill:#e5e5e5"/><path d="M34.86,45.212a1,1,0,1,0-1.893.645l1.118,3.284H29.181L30.3,45.856a1,1,0,1,0-1.892-.645l-1.569,4.606a1,1,0,0,0,.946,1.322h7.7a1,1,0,0,0,.946-1.322Z" style="fill:#281a10"/><path d="M57.288,53.806H51.026a34.031,34.031,0,0,0-3.764-15.6,4.441,4.441,0,0,0,3.788-4.176A4.088,4.088,0,0,0,49.3,30.742a4.087,4.087,0,0,0,1.746-3.283A4.25,4.25,0,0,0,48.5,23.685a4.009,4.009,0,0,0,1.175-2.793,4.426,4.426,0,0,0-3.648-4.153,3.816,3.816,0,0,0,.31-1.5A4.59,4.59,0,0,0,41.5,10.956a5.3,5.3,0,0,0-2.05.409,4.784,4.784,0,0,0-4.67-3.171A5.228,5.228,0,0,0,31.636,9.23a5.228,5.228,0,0,0-3.148-1.035,4.785,4.785,0,0,0-4.67,3.171,5.292,5.292,0,0,0-2.05-.409,4.589,4.589,0,0,0-4.834,4.284,3.816,3.816,0,0,0,.31,1.5,4.425,4.425,0,0,0-3.648,4.153,4.009,4.009,0,0,0,1.175,2.793,4.252,4.252,0,0,0-2.549,3.774,4.086,4.086,0,0,0,1.747,3.283,4.086,4.086,0,0,0-1.747,3.284,4.346,4.346,0,0,0,3.2,4.014c-1.3,2.313-3.668,7.629-3.852,15.766H6.712a1,1,0,0,0,0,2H57.288a1,1,0,0,0,0-2ZM14.221,34.026a2.524,2.524,0,0,1,2.489-2.25A1.071,1.071,0,0,0,17.6,30.6a1,1,0,0,0-.893-.895,2.525,2.525,0,0,1-2.483-2.25,2.609,2.609,0,0,1,2.836-2.284,3.362,3.362,0,0,1,.407.039,1,1,0,0,0,1.037-.6l.051-.118a1,1,0,0,0-.74-1.379,2.475,2.475,0,0,1-2.217-2.227c0-1.42,1.6-2.558,3.454-2.227a1,1,0,0,0,.783-1.778,2.085,2.085,0,0,1-.9-1.646,2.607,2.607,0,0,1,2.834-2.284,3.076,3.076,0,0,1,2.254.927,1,1,0,0,0,1.7-.934,1.9,1.9,0,0,1-.067-.471,2.608,2.608,0,0,1,2.835-2.284,3.052,3.052,0,0,1,2.372,1.045,1.033,1.033,0,0,0,1.553,0,3.052,3.052,0,0,1,2.372-1.045,2.609,2.609,0,0,1,2.836,2.284,1.851,1.851,0,0,1-.067.467,1,1,0,0,0,1.7.938,3.076,3.076,0,0,1,2.254-.927,2.607,2.607,0,0,1,2.834,2.284,2.085,2.085,0,0,1-.9,1.646,1,1,0,0,0,.782,1.778c1.876-.331,3.455.806,3.455,2.227a2.475,2.475,0,0,1-2.217,2.227,1,1,0,0,0-.74,1.379l.051.118a1.112,1.112,0,0,0,1.117.589,2.8,2.8,0,0,1,3.163,2.255,2.525,2.525,0,0,1-2.482,2.25,1.089,1.089,0,0,0-.9.96,1,1,0,0,0,.893,1.107,2.524,2.524,0,0,1,2.489,2.25,2.607,2.607,0,0,1-2.835,2.283,3.234,3.234,0,0,1-1.738-.5,1,1,0,0,0-1.225.119L39.912,39.1V18.64a1,1,0,0,0-.463-.844L37.3,16.432a1,1,0,0,0-1-.042,3.29,3.29,0,0,1-3.892-.672,1.033,1.033,0,0,0-1.553,0,3.285,3.285,0,0,1-3.893.672,1,1,0,0,0-1,.042L23.822,17.8a1,1,0,0,0-.463.844V39.1l-3.341-3.168a1,1,0,0,0-1.225-.118,3.238,3.238,0,0,1-1.737.5A2.608,2.608,0,0,1,14.221,34.026ZM32.97,38.112,34.088,41.4H29.183L30.3,38.112a1,1,0,0,0-.946-1.322h-4v-5.6A10.114,10.114,0,0,0,31.7,33.919h.113a8.936,8.936,0,0,0,6.1-2.664V36.79h-4a1,1,0,0,0-.946,1.322ZM31.807,31.92h-.071c-3.159-.04-5.679-2.751-6.376-3.578V19.189l1.226-.78a5.388,5.388,0,0,0,5.05-.682,5.389,5.389,0,0,0,5.05.682l1.227.78v9.141C35.964,30.7,33.912,31.92,31.807,31.92ZM13.567,53.806c.216-8.876,3.207-14.213,4.062-15.555a5.221,5.221,0,0,0,1.532-.376l4.509,4.276a1,1,0,0,0,1.688-.726V38.79h2.6L26.84,42.074a1,1,0,0,0,.946,1.322h7.7a1,1,0,0,0,.946-1.322L35.313,38.79h2.6v2.636a1,1,0,0,0,1.688.726l4.51-4.276a5.108,5.108,0,0,0,.77.244c.7,1.061,3.922,6.418,4.145,15.687Z" style="fill:#281a10"/><path d="M33.923,27.509A4.538,4.538,0,0,1,29.81,27.5a1,1,0,0,0-.958,1.756,7.068,7.068,0,0,0,3.141.754,5.849,5.849,0,0,0,2.916-.761,1,1,0,0,0-.986-1.74Z" style="fill:#281a10"/></svg>