<svg id="Layer_1" data-name="Layer 1" xmlns="http://www.w3.org/2000/svg" viewBox="0 0 64 64"><title>Artboard 12</title><path d="M35.3,53.291a1.142,1.142,0,0,1-1.141-1.141V11.85A1.142,1.142,0,0,1,35.3,10.709H50.512a1.142,1.142,0,0,1,1.141,1.141v40.3a1.142,1.142,0,0,1-1.141,1.141Z" style="fill:#ed7d45"/><path d="M13.488,53.291a1.142,1.142,0,0,1-1.141-1.141V11.85a1.142,1.142,0,0,1,1.141-1.141H28.7a1.142,1.142,0,0,1,1.141,1.141v40.3A1.142,1.142,0,0,1,28.7,53.291Z" style="fill:#ed7d45"/><path d="M25,53.291c-.186,0-.337-.512-.337-1.141V11.85c0-.629.151-1.141.337-1.141h4.5c.186,0,.337.512.337,1.141v40.3c0,.629-.151,1.141-.337,1.141Z" style="fill:#dd603e"/><path d="M46.818,53.291c-.186,0-.337-.512-.337-1.141V11.85c0-.629.151-1.141.337-1.141h4.5c.186,0,.337.512.337,1.141v40.3c0,.629-.151,1.141-.337,1.141Z" style="fill:#dd603e"/><circle cx="21.093" cy="19.977" r="4.23" style="fill:#fff"/><path d="M21.093,15.746a4.185,4.185,0,0,0-1.459.275,4.209,4.209,0,0,1,0,7.911,4.185,4.185,0,0,0,1.459.275,4.23,4.23,0,0,0,0-8.461Z" style="fill:#e5e5e5"/><circle cx="42.907" cy="19.977" r="4.23" style="fill:#fff"/><path d="M42.907,15.746a4.186,4.186,0,0,0-1.459.275,4.209,4.209,0,0,1,0,7.911,4.186,4.186,0,0,0,1.459.275,4.23,4.23,0,0,0,0-8.461Z" style="fill:#e5e5e5"/><path d="M28.7,9.709H13.488a2.142,2.142,0,0,0-2.141,2.141v40.3a2.142,2.142,0,0,0,2.141,2.141H28.7a2.142,2.142,0,0,0,2.141-2.141V11.85A2.142,2.142,0,0,0,28.7,9.709Zm.141,42.441a.138.138,0,0,1-.141.141H13.488a.138.138,0,0,1-.141-.141V11.85a.138.138,0,0,1,.141-.141H28.7a.138.138,0,0,1,.141.141Z" style="fill:#281a10"/><path d="M21.093,14.746a5.23,5.23,0,1,0,5.229,5.231A5.237,5.237,0,0,0,21.093,14.746Zm0,8.461a3.23,3.23,0,1,1,3.229-3.23A3.234,3.234,0,0,1,21.093,23.207Z" style="fill:#281a10"/><path d="M25.322,31.477h-8.46a1,1,0,0,0,0,2h8.46a1,1,0,0,0,0-2Z" style="fill:#281a10"/><path d="M25.322,36.895h-8.46a1,1,0,0,0,0,2h8.46a1,1,0,0,0,0-2Z" style="fill:#281a10"/><path d="M25.322,42.313h-8.46a1,1,0,0,0,0,2h8.46a1,1,0,0,0,0-2Z" style="fill:#281a10"/><path d="M50.512,9.709H35.3a2.142,2.142,0,0,0-2.141,2.141v40.3A2.142,2.142,0,0,0,35.3,54.291H50.512a2.142,2.142,0,0,0,2.141-2.141V11.85A2.142,2.142,0,0,0,50.512,9.709Zm.141,42.441a.138.138,0,0,1-.141.141H35.3a.138.138,0,0,1-.141-.141V11.85a.138.138,0,0,1,.141-.141H50.512a.138.138,0,0,1,.141.141Z" style="fill:#281a10"/><path d="M42.907,14.746a5.23,5.23,0,1,0,5.229,5.231A5.237,5.237,0,0,0,42.907,14.746Zm0,8.461a3.23,3.23,0,1,1,3.229-3.23A3.234,3.234,0,0,1,42.907,23.207Z" style="fill:#281a10"/><path d="M47.137,31.477h-8.46a1,1,0,0,0,0,2h8.46a1,1,0,0,0,0-2Z" style="fill:#281a10"/><path d="M47.137,36.895h-8.46a1,1,0,0,0,0,2h8.46a1,1,0,0,0,0-2Z" style="fill:#281a10"/><path d="M47.137,42.313h-8.46a1,1,0,0,0,0,2h8.46a1,1,0,0,0,0-2Z" style="fill:#281a10"/></svg>