<svg xmlns="http://www.w3.org/2000/svg" data-name="Layer 1" viewBox="0 0 64 64"><path fill="#ffd98d" d="M51.416 29.981H12.585a1.1 1.1 0 0 0-1.1 1.1v6.244a1.1 1.1 0 0 0 1.1 1.1h2.754v15.516a1.1 1.1 0 0 0 1.1 1.1H47.56a1.1 1.1 0 0 0 1.1-1.1V38.428h2.754a1.1 1.1 0 0 0 1.1-1.1v-6.246a1.1 1.1 0 0 0-1.098-1.101z"/><path fill="#fff" d="M23.21 16.279c-1.755 0-3.075-2.576-3.075-4.246a3.075 3.075 0 1 1 6.151 0c-.001 1.667-1.322 4.246-3.076 4.246z"/><path fill="#e5e5e5" d="M23.21 8.957a3.043 3.043 0 0 0-1.292.294 3.073 3.073 0 0 1 1.782 2.782 5.279 5.279 0 0 1-1.784 3.76 2.117 2.117 0 0 0 1.292.486c1.755 0 3.076-2.576 3.076-4.246a3.079 3.079 0 0 0-3.074-3.076z"/><path fill="#ed7d45" d="M17.151 26.537 17.151 20.892 20.732 19.102 23.21 22.545 25.688 19.102 29.269 20.892 29.269 26.537 17.151 26.537z"/><path fill="#dd603e" d="M25.688 19.102 25.28 19.668 26.644 20.35 26.644 25.995 17.151 25.995 17.151 26.537 29.269 26.537 29.269 20.892 25.688 19.102z"/><path fill="#fff" d="M40.738 16.279c-1.754 0-3.075-2.576-3.075-4.246a3.075 3.075 0 1 1 6.15 0c.001 1.667-1.32 4.246-3.075 4.246z"/><path fill="#ed7d45" d="M34.68 26.537 34.68 20.892 38.26 19.102 40.739 22.545 43.217 19.102 46.798 20.892 46.798 26.537 34.68 26.537z"/><path fill="#e5e5e5" d="M40.739 8.957a3.043 3.043 0 0 0-1.292.294 3.073 3.073 0 0 1 1.784 2.782 5.279 5.279 0 0 1-1.784 3.76 2.117 2.117 0 0 0 1.292.486c1.755 0 3.076-2.576 3.076-4.246a3.079 3.079 0 0 0-3.076-3.076z"/><path fill="#dd603e" d="M43.217 19.102 42.809 19.668 44.173 20.35 44.173 25.995 34.681 25.995 34.681 26.537 46.798 26.537 46.798 20.892 43.217 19.102z"/><rect width="21.573" height="11.752" x="21.214" y="36.609" fill="#fff" rx="1.102" ry="1.102"/><path fill="#e5e5e5" d="M39.193 48.361c-.107 0-.193-.494-.193-1.1v-9.55c0-.607.087-1.1.193-1.1h3.4c.107 0 .193.494.193 1.1v9.549c0 .607-.087 1.1-.193 1.1z"/><path fill="#f2bf81" d="M51.416 29.981h-7.629v25.062h3.773a1.1 1.1 0 0 0 1.1-1.1V38.428h2.754a1.1 1.1 0 0 0 1.1-1.1v-6.246a1.1 1.1 0 0 0-1.098-1.101z"/><path fill="#281a10" d="M17.151 27.537h12.118a1 1 0 0 0 1-1v-5.644a1 1 0 0 0-.553-.893l-3.58-1.791a1 1 0 0 0-1.259.311l-1.667 2.312-1.667-2.314a1 1 0 0 0-1.259-.311L16.7 20a1 1 0 0 0-.553.895v5.644a1 1 0 0 0 1.004.998zm1-6.027 2.266-1.133 1.983 2.752a1.035 1.035 0 0 0 1.623 0L26 20.377l2.266 1.133v4.027H18.151zM23.21 17.279c2.45 0 4.076-3.158 4.076-5.246a4.075 4.075 0 1 0-8.151 0c-.001 2.088 1.625 5.246 4.075 5.246zm0-7.322a2.079 2.079 0 0 1 2.076 2.076c0 1.311-1.093 3.246-2.076 3.246s-2.075-1.935-2.075-3.246a2.078 2.078 0 0 1 2.075-2.076zM34.68 27.537H46.8a1 1 0 0 0 1-1v-5.644a1 1 0 0 0-.555-.893l-3.58-1.791a1 1 0 0 0-1.259.311l-1.667 2.316-1.667-2.316a1 1 0 0 0-1.259-.311L34.233 20a1 1 0 0 0-.553.895v5.644a1 1 0 0 0 1 .998zm1-6.027 2.266-1.133 1.981 2.752a1.035 1.035 0 0 0 1.623 0l1.981-2.752L45.8 21.51v4.027H35.68zM40.738 17.279c2.45 0 4.076-3.158 4.076-5.246a4.075 4.075 0 1 0-8.15 0c0 2.088 1.625 5.246 4.074 5.246zm0-7.322a2.079 2.079 0 0 1 2.076 2.076c0 1.311-1.093 3.246-2.076 3.246s-2.075-1.935-2.075-3.246a2.078 2.078 0 0 1 2.075-2.076zM51.416 28.981H12.585a2.1 2.1 0 0 0-2.1 2.1v6.244a2.1 2.1 0 0 0 2.1 2.1h1.754v14.516a2.1 2.1 0 0 0 2.1 2.1H47.56a2.1 2.1 0 0 0 2.1-2.1V39.428h1.754a2.1 2.1 0 0 0 2.1-2.1v-6.246a2.1 2.1 0 0 0-2.098-2.101zm.1 8.346a.1.1 0 0 1-.1.1h-2.754a1 1 0 0 0-1 1v15.514a.1.1 0 0 1-.1.1H16.44a.1.1 0 0 1-.1-.1V38.428a1 1 0 0 0-1-1h-2.755a.1.1 0 0 1-.1-.1v-6.246a.1.1 0 0 1 .1-.1h38.831a.1.1 0 0 1 .1.1z"/><path fill="#281a10" d="M41.685 35.609h-19.37a2.1 2.1 0 0 0-2.1 2.1v9.551a2.1 2.1 0 0 0 2.1 2.1h19.37a2.1 2.1 0 0 0 2.1-2.1v-9.549a2.1 2.1 0 0 0-2.1-2.102zm.1 11.65a.1.1 0 0 1-.1.1h-19.37a.1.1 0 0 1-.1-.1v-9.548a.1.1 0 0 1 .1-.1h19.37a.1.1 0 0 1 .1.1z"/></svg>