<svg xmlns="http://www.w3.org/2000/svg" data-name="Layer 1" viewBox="0 0 64 64"><path fill="#ffd98d" d="M8.691 53.679 8.529 53.658 7.7 53.515 7.7 48.392 8.613 48.232 8.777 48.227 9.832 48.227 9.832 46.226 10.712 46.011 10.91 46.001 24.141 46.001 24.335 46.039 25.098 46.226 25.098 48.227 26.24 48.227 26.402 48.247 27.231 48.392 27.231 53.515 26.317 53.673 26.153 53.679 8.691 53.679z"/><path fill="#f2bf81" d="M26.24 48.227 25.098 48.227 25.098 46.226 24.335 46.039 24.141 46.001 20.999 46.001 20.999 53.679 26.153 53.679 26.317 53.673 27.231 53.515 27.231 48.392 26.402 48.247 26.24 48.227z"/><path fill="#fff" d="M38.278 22.825a5.9 5.9 0 0 1-1.388-.183l-.255-.062-8.3-7.789-.079-.249c-.472-1.493-.348-2.726.35-3.471a2.687 2.687 0 0 1 2.055-.766c1.945 0 4.484 1.248 6.625 3.258a12.739 12.739 0 0 1 3.314 4.768c.575 1.607.477 2.934-.276 3.735a2.676 2.676 0 0 1-2.047.759z"/><path fill="#ed7d45" d="M20.226 17.813H34.78V30.168999999999997H20.226z" transform="rotate(-46.836 27.502 23.991)"/><path fill="#fff" d="M24.35 37.675c-1.946 0-4.485-1.248-6.627-3.257-3.232-3.031-4.6-6.846-3.043-8.5a2.674 2.674 0 0 1 2.045-.759 5.866 5.866 0 0 1 1.39.183l.254.063 8.307 7.79.079.249c.471 1.492.346 2.724-.352 3.469a2.679 2.679 0 0 1-2.053.765z"/><path fill="#e5e5e5" d="M40.6 18.331a11.963 11.963 0 0 0-2.451-3.868 9.316 9.316 0 0 1 .535 1.2c.575 1.607.477 2.934-.276 3.735a2.676 2.676 0 0 1-2.047.759 5.9 5.9 0 0 1-1.388-.183l-.255-.062-6.667-6.252a6.218 6.218 0 0 0 .2.882l.079.249 8.3 7.789.255.063a5.9 5.9 0 0 0 1.388.183 2.676 2.676 0 0 0 2.047-.759c.758-.802.856-2.128.28-3.736z"/><path fill="#dd603e" d="M34.636 20.705 25.114 30.859 18.452 24.61 18.019 25.072 27.031 33.525 36.987 22.909 34.636 20.705z"/><path fill="#e5e5e5" d="m26.755 33.441-.079-.249-1.638-1.536a2.971 2.971 0 0 1-.552 2.587 2.679 2.679 0 0 1-2.053.765c-1.946 0-4.485-1.248-6.627-3.257-.3-.281-.577-.57-.844-.862a13.917 13.917 0 0 0 2.761 3.529c2.143 2.009 4.682 3.257 6.627 3.257a2.679 2.679 0 0 0 2.05-.765c.7-.745.827-1.976.355-3.469z"/><path fill="#ffd98d" d="M52.136 51.265a4.162 4.162 0 0 1-2.82-1.1l-19.324-19.8 4.035-4.3 20.93 17.957a4.17 4.17 0 0 1-2.821 7.242z"/><path fill="#f2bf81" d="M55.178 46.706a4.172 4.172 0 0 1-5.863.222L31.541 28.717l-1.55 1.653 19.324 19.8a4.162 4.162 0 0 0 6.652-4.7 4.15 4.15 0 0 1-.789 1.236z"/><path fill="#281a10" d="m35.471 25.987 2.071-2.208a6.054 6.054 0 0 0 .724.057 3.69 3.69 0 0 0 2.789-1.085c1.022-1.09 1.2-2.779.488-4.757a13.748 13.748 0 0 0-3.578-5.16c-3.693-3.466-8.126-4.534-10.093-2.447a3.97 3.97 0 0 0-.8 3.574L17.466 24.2a3.969 3.969 0 0 0-3.515 1.031c-1.964 2.095-.607 6.45 3.088 9.917 2.421 2.27 5.159 3.515 7.312 3.515a3.689 3.689 0 0 0 2.783-1.067 3.966 3.966 0 0 0 .8-3.574l2.069-2.206L48.6 50.865a5.17 5.17 0 1 0 7.041-7.572zm-6.14-14.232c1.01-1.075 4.33-.218 7.266 2.538a11.729 11.729 0 0 1 3.063 4.375c.435 1.218.413 2.207-.063 2.714a2.591 2.591 0 0 1-2.468.289l-7.924-7.431a2.588 2.588 0 0 1 .126-2.485zm-3.657 24.471c-1.006 1.075-4.329.218-7.267-2.537s-4-6.016-3-7.09a2.586 2.586 0 0 1 2.467-.288l7.926 7.432a2.58 2.58 0 0 1-.126 2.483zm2.933-5.844-1.622 1.73-7.553-7.084 8.588-9.158 7.553 7.084-4.294 4.579zm25.842 18.881a3.172 3.172 0 0 1-4.45.175L31.375 30.356l2.725-2.909 20.2 17.334a3.174 3.174 0 0 1 .149 4.482zM26.153 47.227H26.1v-.335A1.993 1.993 0 0 0 24.021 45H10.91a1.993 1.993 0 0 0-2.078 1.891v.335h-.055a1.925 1.925 0 0 0-2.077 1.78V52.9a1.925 1.925 0 0 0 2.078 1.778h17.375a1.925 1.925 0 0 0 2.078-1.778v-3.894a1.925 1.925 0 0 0-2.078-1.779zm.078 5.446a.459.459 0 0 1-.078.006H8.777a.458.458 0 0 1-.078-.006v-3.44a.458.458 0 0 1 .078-.006h1.055a1 1 0 0 0 1-1v-1.216A.33.33 0 0 1 10.91 47h13.111a.328.328 0 0 1 .078.01v1.216a1 1 0 0 0 1 1h1.055a.459.459 0 0 1 .078.006z"/></svg>