<svg id="Layer_1" data-name="Layer 1" xmlns="http://www.w3.org/2000/svg" viewBox="0 0 128 128"><title>COUNTDOWN TIMER</title><path d="M64,12.75a51.186,51.186,0,0,0-37.2,16l-1.059-7.918a1.25,1.25,0,0,0-2.479.332L24.68,31.773a1.251,1.251,0,0,0,1.239,1.084h9.807a1.25,1.25,0,0,0,0-2.5h-7a48.594,48.594,0,1,1-6.729,8.887,1.25,1.25,0,1,0-2.152-1.271A51.256,51.256,0,1,0,64,12.75Z"/><path d="M94.009,86.526a1.249,1.249,0,0,0,1.741-.306,38.764,38.764,0,1,0-7.2,7.759,1.25,1.25,0,0,0-1.586-1.934A36.218,36.218,0,1,1,93.7,84.785,1.25,1.25,0,0,0,94.009,86.526Z"/><path d="M62.75,38.356v24.4l-17.361.094a1.25,1.25,0,0,0,.007,2.5H45.4l18.6-.1A1.25,1.25,0,0,0,65.25,64V38.356a1.25,1.25,0,0,0-2.5,0Z"/></svg>