<svg id="Layer_1" data-name="Layer 1" xmlns="http://www.w3.org/2000/svg" viewBox="0 0 128 128"><title>HOURGLASS IS TICKING</title><path d="M94.208,101.417H89.917V80.574c0-5.1-3.108-9.895-8.113-12.519l-7.027-3.671a.4.4,0,0,1,0-.77L81.8,59.944c5-2.624,8.112-7.421,8.112-12.518V31.333a1.25,1.25,0,0,0-2.5,0V47.426c0,4.165-2.595,8.113-6.772,10.3L73.62,61.4a2.876,2.876,0,0,0,0,5.2l7.024,3.669c4.178,2.19,6.773,6.139,6.773,10.3v20.843H33.792a6.917,6.917,0,1,0,0,13.833H94.208a6.917,6.917,0,1,0,0-13.833Zm0,11.333H33.792a4.417,4.417,0,1,1,0-8.833H94.208a4.417,4.417,0,1,1,0,8.833Z"/><path d="M33.792,26.583h4.291V47.426c0,5.1,3.108,9.895,8.113,12.518l7.027,3.671a.4.4,0,0,1,0,.77L46.2,68.056c-5,2.624-8.112,7.421-8.112,12.519V96.667a1.25,1.25,0,0,0,2.5,0V80.574c0-4.165,2.595-8.113,6.771-10.3L54.38,66.6a2.876,2.876,0,0,0,0-5.2L47.355,57.73c-4.178-2.19-6.772-6.139-6.772-10.3V26.583H94.208a6.917,6.917,0,1,0,0-13.833H33.792a6.917,6.917,0,1,0,0,13.833Zm0-11.333H94.208a4.417,4.417,0,1,1,0,8.833H33.792a4.417,4.417,0,1,1,0-8.833Z"/><path d="M75.878,52.519c-.025.011-2.556,1.037-5.389,1.979a7.72,7.72,0,0,0-5.3,7.326,1.25,1.25,0,1,0,2.5,0,5.223,5.223,0,0,1,3.591-4.954c2.909-.968,5.435-1.992,5.607-2.064,3.731-1.776,6.049-5.055,6.049-8.556V35.682a5.27,5.27,0,0,0-5.446-5.06H50.512a5.27,5.27,0,0,0-5.446,5.06V46.25c0,3.5,2.317,6.779,6.115,8.585.106.043,2.632,1.067,5.541,2.036a5.221,5.221,0,0,1,3.591,4.953v9.014a5.244,5.244,0,0,1-3.417,4.9c-1.027.38-1.733.667-1.8.7a7.028,7.028,0,0,0-4.328,6.161v7.161a3.973,3.973,0,0,0,4.093,3.831H73.14a3.973,3.973,0,0,0,4.093-3.831V82.591a7.06,7.06,0,0,0-4.394-6.19s-.706-.287-1.733-.668a5.242,5.242,0,0,1-3.417-4.894V68a1.25,1.25,0,1,0-2.5,0v2.838a7.751,7.751,0,0,0,5.05,7.239c.934.347,1.591.612,1.6.612h0a4.573,4.573,0,0,1,2.9,3.9v7.161a1.481,1.481,0,0,1-1.593,1.331H54.86a1.481,1.481,0,0,1-1.593-1.331V82.591A4.539,4.539,0,0,1,56.1,78.717c.009,0,.683-.277,1.659-.639a7.753,7.753,0,0,0,5.05-7.24V61.824a7.717,7.717,0,0,0-5.3-7.325c-2.8-.934-5.317-1.951-5.322-1.951-2.852-1.358-4.623-3.771-4.623-6.3V35.682a2.776,2.776,0,0,1,2.946-2.559H77.488a2.776,2.776,0,0,1,2.946,2.56V46.25C80.435,48.777,78.663,51.19,75.878,52.519Z"/></svg>