<svg id="Layer_1" data-name="Layer 1" xmlns="http://www.w3.org/2000/svg" viewBox="0 0 128 128"><title>CLOCK_3</title><path d="M32.645,95.191a1.175,1.175,0,0,0,.065.1,1.152,1.152,0,0,0,.1.065,44.17,44.17,0,0,0,62.383,0,1.152,1.152,0,0,0,.1-.065,1.175,1.175,0,0,0,.065-.1,44.17,44.17,0,0,0,0-62.382,1.175,1.175,0,0,0-.065-.1,1.155,1.155,0,0,0-.1-.065,44.17,44.17,0,0,0-62.383,0,1.155,1.155,0,0,0-.1.065,1.175,1.175,0,0,0-.065.1,44.17,44.17,0,0,0,0,62.382ZM25.333,62.75H22.282A41.585,41.585,0,0,1,33.629,35.4l2.146,2.145a1.25,1.25,0,1,0,1.768-1.768L35.4,33.629A41.585,41.585,0,0,1,62.75,22.282v3.051a1.25,1.25,0,0,0,2.5,0V22.282A41.585,41.585,0,0,1,92.6,33.629l-2.146,2.145a1.25,1.25,0,1,0,1.768,1.768L94.371,35.4A41.585,41.585,0,0,1,105.718,62.75h-3.052a1.25,1.25,0,1,0,0,2.5h3.052A41.585,41.585,0,0,1,94.371,92.6l-2.146-2.145a1.25,1.25,0,0,0-1.768,1.768L92.6,94.371A41.585,41.585,0,0,1,65.25,105.718v-3.051a1.25,1.25,0,0,0-2.5,0v3.051A41.585,41.585,0,0,1,35.4,94.371l2.146-2.145a1.25,1.25,0,0,0-1.768-1.768L33.629,92.6A41.585,41.585,0,0,1,22.282,65.25h3.052a1.25,1.25,0,0,0,0-2.5Z"/><path d="M49.666,81.583a1.245,1.245,0,0,0,.94-.426L64.939,64.824A1.248,1.248,0,0,0,65.25,64V34.595a1.25,1.25,0,0,0-2.5,0V63.529L48.727,79.509a1.25,1.25,0,0,0,.939,2.074Z"/><path d="M99.75,12.75h-62a1.25,1.25,0,0,0,0,2.5h62a13.015,13.015,0,0,1,13,13v71.5a13.015,13.015,0,0,1-13,13H28.25a13.015,13.015,0,0,1-13-13V28.25a13.015,13.015,0,0,1,13-13,1.25,1.25,0,0,0,0-2.5,15.517,15.517,0,0,0-15.5,15.5v71.5a15.517,15.517,0,0,0,15.5,15.5h71.5a15.517,15.517,0,0,0,15.5-15.5V28.25A15.517,15.517,0,0,0,99.75,12.75Z"/></svg>