<svg xmlns="http://www.w3.org/2000/svg" data-name="Layer 1" viewBox="0 0 128 128"><path d="M64 12.75a51.186 51.186 0 0 0-37.2 16l-1.059-7.918a1.25 1.25 0 0 0-2.479.332l1.418 10.609a1.251 1.251 0 0 0 1.239 1.084h9.807a1.25 1.25 0 0 0 0-2.5h-7a48.594 48.594 0 1 1-6.729 8.887 1.25 1.25 0 1 0-2.152-1.271A51.256 51.256 0 1 0 64 12.75z"/><path d="M94.009 86.526a1.249 1.249 0 0 0 1.741-.306 38.764 38.764 0 1 0-7.2 7.759 1.25 1.25 0 0 0-1.586-1.934 36.218 36.218 0 1 1 6.736-7.26 1.25 1.25 0 0 0 .309 1.741z"/><path d="M62.75 38.356v24.4l-17.361.094a1.25 1.25 0 0 0 .007 2.5h.004l18.6-.1A1.25 1.25 0 0 0 65.25 64V38.356a1.25 1.25 0 0 0-2.5 0z"/></svg>