<svg id="Layer_1" data-name="Layer 1" xmlns="http://www.w3.org/2000/svg" viewBox="0 0 128 128"><title>HOURGLASS IS ENDING</title><path d="M33.791,26.583h4.292V47.426c0,5.1,3.108,9.895,8.113,12.518l7.028,3.671a.4.4,0,0,1,0,.77l-7.029,3.671c-5,2.624-8.111,7.42-8.111,12.519V96.667a1.25,1.25,0,1,0,2.5,0V80.574c0-4.166,2.6-8.114,6.771-10.3L54.379,66.6a2.876,2.876,0,0,0,0-5.2L47.356,57.73c-4.177-2.19-6.773-6.138-6.773-10.3V26.583H94.208a6.917,6.917,0,1,0,0-13.833H33.791a6.917,6.917,0,0,0,0,13.833Zm0-11.333H94.208a4.417,4.417,0,1,1,0,8.833H33.791a4.417,4.417,0,0,1,0-8.833Z"/><path d="M94.208,101.417H89.916V80.574c0-5.1-3.108-9.895-8.113-12.519l-7.028-3.671a.4.4,0,0,1,0-.77l7.029-3.671c5-2.624,8.111-7.42,8.111-12.518V31.333a1.25,1.25,0,1,0-2.5,0V47.426c0,4.166-2.6,8.114-6.771,10.3L73.621,61.4a2.876,2.876,0,0,0,0,5.2l7.024,3.669c4.177,2.189,6.772,6.138,6.772,10.3v20.843H33.791a6.917,6.917,0,0,0,0,13.833H94.208a6.917,6.917,0,1,0,0-13.833Zm0,11.333H33.791a4.417,4.417,0,0,1,0-8.833H94.208a4.417,4.417,0,1,1,0,8.833Z"/><path d="M51.114,73.194c-3.731,1.775-6.048,5.054-6.048,8.556V92.318a5.27,5.27,0,0,0,5.446,5.06H77.488a5.27,5.27,0,0,0,5.446-5.059V81.75c0-3.5-2.317-6.78-6.115-8.585-.937-.381-9.256-3.72-12.82-3.72s-11.883,3.339-12.82,3.72C51.158,73.175,51.136,73.184,51.114,73.194ZM64,71.945c2.605,0,9.458,2.553,11.812,3.507,2.852,1.356,4.623,3.77,4.623,6.3V92.318a2.777,2.777,0,0,1-2.946,2.56H50.512a2.777,2.777,0,0,1-2.946-2.559V81.75c0-2.519,1.758-4.924,4.59-6.282C54.606,74.474,61.406,71.945,64,71.945Z"/></svg>