<svg xmlns="http://www.w3.org/2000/svg" data-name="Layer 1" viewBox="0 0 128 128"><path d="M72.659 36.709a1.25 1.25 0 1 0-.756 2.383A26.146 26.146 0 1 1 64 37.875a1.25 1.25 0 0 0 0-2.5 28.6 28.6 0 1 0 8.659 1.334z"/><path d="M64 44.03a1.25 1.25 0 0 0-1.25 1.25v17.477l-12.338.066a1.25 1.25 0 0 0 .007 2.5h.007l13.581-.073A1.25 1.25 0 0 0 65.25 64V45.28A1.25 1.25 0 0 0 64 44.03z"/><path d="M101.479 57.417h-3.15A35 35 0 0 0 85.15 36.189l-2.023-22.3a1.251 1.251 0 0 0-1.245-1.137H46.118a1.251 1.251 0 0 0-1.245 1.137L43.512 28.9a1.25 1.25 0 0 0 1.132 1.358A1.232 1.232 0 0 0 46 29.121l1.26-13.871h33.48l1.731 19.089A34.94 34.94 0 0 0 42.85 91.812l2.023 22.3a1.251 1.251 0 0 0 1.245 1.137h35.764a1.251 1.251 0 0 0 1.245-1.137l1.345-14.828a1.25 1.25 0 1 0-2.49-.226L80.74 112.75H47.26l-1.731-19.088a34.926 34.926 0 0 0 52.8-23.078h3.151a4.442 4.442 0 0 0 4.438-4.437v-4.293a4.442 4.442 0 0 0-4.439-4.437zM64 96.46A32.46 32.46 0 1 1 96.459 64 32.5 32.5 0 0 1 64 96.46zm39.417-30.314a1.94 1.94 0 0 1-1.938 1.938h-2.766a33.959 33.959 0 0 0 0-8.167h2.767a1.94 1.94 0 0 1 1.938 1.938z"/></svg>