<svg id="Layer_1" data-name="Layer 1" xmlns="http://www.w3.org/2000/svg" viewBox="0 0 128 128"><title>HOURGLASS</title><path d="M33.792,26.583h4.292V47.426c0,5.1,3.108,9.895,8.113,12.518l7.028,3.671a.4.4,0,0,1,0,.77l-7.029,3.671c-5,2.624-8.111,7.42-8.111,12.519V96.667a1.25,1.25,0,0,0,2.5,0V80.574c0-4.166,2.6-8.114,6.771-10.3L54.379,66.6a2.876,2.876,0,0,0,0-5.2L47.356,57.73c-4.177-2.19-6.773-6.138-6.773-10.3V26.583H94.209a6.916,6.916,0,1,0,0-13.833H33.792a6.917,6.917,0,1,0,0,13.833Zm0-11.333H94.209a4.417,4.417,0,1,1,0,8.833H33.792a4.416,4.416,0,1,1,0-8.833Z"/><path d="M94.209,101.417H89.917V80.574c0-5.1-3.108-9.895-8.113-12.519l-7.028-3.671a.4.4,0,0,1,0-.77l7.029-3.671c5-2.624,8.111-7.42,8.111-12.518V31.333a1.25,1.25,0,0,0-2.5,0V47.426c0,4.166-2.6,8.114-6.771,10.3L73.621,61.4a2.876,2.876,0,0,0,0,5.2l7.024,3.669c4.177,2.189,6.772,6.138,6.772,10.3v20.843H33.792a6.917,6.917,0,1,0,0,13.833H94.209a6.916,6.916,0,1,0,0-13.833Zm0,11.333H33.792a4.416,4.416,0,1,1,0-8.833H94.209a4.416,4.416,0,1,1,0,8.833Z"/></svg>