<svg xmlns="http://www.w3.org/2000/svg" data-name="Layer 1" viewBox="0 0 128 128"><path d="M54.918 104.76a41.749 41.749 0 0 1 6.248-82.4l-4.621 5.324a1.25 1.25 0 1 0 1.888 1.639l6.511-7.5a1.25 1.25 0 0 0-.055-1.7l-6.511-6.579A1.25 1.25 0 1 0 56.6 15.3l4.507 4.554a44.249 44.249 0 0 0-6.73 87.345 1.235 1.235 0 0 0 .271.03 1.25 1.25 0 0 0 .27-2.471zM108.25 64a44.5 44.5 0 0 0-34.7-43.217 1.25 1.25 0 0 0-.537 2.441 41.749 41.749 0 0 1-6.048 82.409l4.25-4.294a1.25 1.25 0 1 0-1.777-1.759l-6.511 6.579a1.251 1.251 0 0 0 .005 1.764l6.511 6.5a1.25 1.25 0 0 0 1.767-1.769l-4.5-4.494A44.3 44.3 0 0 0 108.25 64z"/><path d="M62.262 71.5a3.58 3.58 0 0 0-2.813-1.3q-.538 0-1.368.022t-1.452.044l-.659.021q-1.926.036-3.393.05l1.91-1.7q.313-.267 1.274-1.139t1.232-1.123q.288-.265 1.082-1.016c.559-.527.932-.9 1.142-1.146l.847-.977a6.349 6.349 0 0 0 .975-1.38q.182-.384.526-.989a5.908 5.908 0 0 0 .635-1.527q.142-.589.26-1.344a10.325 10.325 0 0 0 .12-1.596 9.557 9.557 0 0 0-3.611-7.773 12.641 12.641 0 0 0-8.458-2.751 11.9 11.9 0 0 0-7.78 2.919c-1.841 1.381-2.775 2.9-2.775 4.5a4.09 4.09 0 0 0 1.1 2.859 3.743 3.743 0 0 0 2.822 1.234 4.878 4.878 0 0 0 3.553-1.5 4.912 4.912 0 0 1 3.316-1.734 3.517 3.517 0 0 1 2.332.743 2 2 0 0 1 .792 1.639 1.892 1.892 0 0 1-.038.393 1.944 1.944 0 0 1-.149.409l-.312.662a2.273 2.273 0 0 1-.3.42q-.358.424-.558.669-.179.217-.615.672-.5.522-.7.75c-.121.135-.371.382-.748.746q-.624.6-.847.825-.908.908-2.379 2.292t-3.072 2.855a161.288 161.288 0 0 1-1.941 1.765 7.094 7.094 0 0 0-2.422 4.953 4.475 4.475 0 0 0 1.2 3.2 4.166 4.166 0 0 0 3.137 1.286c3.5.058 6.848.087 9.952.087h5.181a4 4 0 0 0 2.84-1.042 4.129 4.129 0 0 0 1.179-3.14 4.277 4.277 0 0 0-1.017-2.838zm-1.877 4.165a1.616 1.616 0 0 1-1.286.358h-5.031c-3.09 0-6.424-.029-9.931-.087a1.7 1.7 0 0 1-1.348-.509 2.041 2.041 0 0 1-.508-1.479 4.67 4.67 0 0 1 1.621-3.12q.311-.267 1.933-1.755 1.6-1.471 3.1-2.876t2.434-2.345q.215-.215.815-.793c.44-.425.729-.716.871-.873q.19-.21.651-.693a15 15 0 0 0 .743-.817q.193-.235.536-.643a4.529 4.529 0 0 0 .66-.981l.3-.647a4.5 4.5 0 0 0-1.276-5.435 5.987 5.987 0 0 0-3.923-1.314 7.257 7.257 0 0 0-5.083 2.466 2.4 2.4 0 0 1-1.785.771 1.24 1.24 0 0 1-.983-.428 1.621 1.621 0 0 1-.435-1.165c0-.775.6-1.617 1.838-2.551a9.411 9.411 0 0 1 6.254-2.368 10.07 10.07 0 0 1 6.843 2.192A7.073 7.073 0 0 1 60.08 56.4a7.841 7.841 0 0 1-.094 1.208q-.1.645-.221 1.146a3.519 3.519 0 0 1-.375.879q-.4.707-.611 1.153a4.084 4.084 0 0 1-.6.808q-.6.684-.859.991c-.084.1-.32.352-.96.956q-.78.737-1.061 1t-1.216 1.108c-.614.557-1.021.921-1.239 1.108L48.47 70.65a1.25 1.25 0 0 0 .8 2.183c1.294.03 3.562.015 6.722-.043.031 0 .27-.007.722-.022q.63-.021 1.433-.043c1.127-.031 1.749-.151 2.206.389a2.179 2.179 0 0 1 .031 2.549zM78.065 57.46c1.378-2.3 2.437-4.173 3.111-5.5a4.3 4.3 0 0 0 .61-2.209 3.434 3.434 0 0 0-1.568-2.77 4.919 4.919 0 0 0-3.006-1.062 4.333 4.333 0 0 0-3.943 2.494c-4 7.422-6.835 12.561-8.4 15.24a8.559 8.559 0 0 0-1.373 4.6 4.946 4.946 0 0 0 1.069 3.081 3.89 3.89 0 0 0 3.2 1.538q1.446 0 5.1-.022 2.436-.015 3.927-.019v2.16a3.636 3.636 0 0 0 1.013 2.727 3.869 3.869 0 0 0 2.786.977h.207c2.49 0 3.966-1.349 4.049-3.7q.029-.94.04-2.114h1.293c1.1 0 3.656-.416 3.656-4.269a3.524 3.524 0 0 0-3.809-3.831l-1.179.021v-3.845a3.706 3.706 0 0 0-1.209-2.708 4.392 4.392 0 0 0-2.925-.861c-2.462 0-3.875 1.54-3.875 4.213l-.032 3.328-3.058.042 1.709-3.093q.564-1.006 2.607-4.418zm-7.525 9.428a1.329 1.329 0 0 0 1.089.607l6.431-.088a1.25 1.25 0 0 0 1.233-1.238l.043-4.561c0-1.6.6-1.725 1.375-1.725a2.1 2.1 0 0 1 1.319.277 1.349 1.349 0 0 1 .318.879v5.031a1.249 1.249 0 0 0 .374.892 1.3 1.3 0 0 0 .9.358l2.438-.043c.99 0 1.277.3 1.277 1.331 0 1.769-.641 1.769-1.156 1.769h-2.538a1.25 1.25 0 0 0-1.25 1.25q0 1.9-.043 3.281c-.03.854-.278 1.288-1.59 1.288a1.776 1.776 0 0 1-1.214-.269 1.389 1.389 0 0 1-.252-.932v-3.413a1.25 1.25 0 0 0-1.25-1.25q-1.534 0-5.191.022t-5.089.022a1.4 1.4 0 0 1-1.219-.564 2.471 2.471 0 0 1-.549-1.555A6.062 6.062 0 0 1 67 64.951c1.6-2.737 4.449-7.9 8.461-15.342a1.861 1.861 0 0 1 1.747-1.187 2.45 2.45 0 0 1 1.5.557c.262.2.575.493.575.774a1.917 1.917 0 0 1-.3 1.006c-.683 1.341-1.713 3.163-3.063 5.416q-2.068 3.456-2.646 4.478l-2.756 4.987a1.25 1.25 0 0 0 .022 1.248z"/></svg>