<svg id="Layer_1" data-name="Layer 1" xmlns="http://www.w3.org/2000/svg" viewBox="0 0 128 128"><title>CLOCK_2</title><path d="M39.971,94.944a34.026,34.026,0,0,0,48.058,0c.023-.02.052-.027.074-.049s.029-.051.049-.074a34.026,34.026,0,0,0,0-48.055c-.021-.024-.028-.054-.051-.077s-.053-.031-.077-.051a34.025,34.025,0,0,0-48.051,0c-.024.021-.054.029-.077.051s-.031.053-.051.077a34.026,34.026,0,0,0,0,48.055c.02.023.027.052.049.074S39.948,94.924,39.971,94.944Zm-7.526-22.9h2.027a1.25,1.25,0,0,0,0-2.5H32.445a31.462,31.462,0,0,1,8.368-20.17L42.237,50.8A1.25,1.25,0,0,0,44,49.028L42.58,47.6a31.462,31.462,0,0,1,20.17-8.367v2.027a1.25,1.25,0,0,0,2.5,0V39.237A31.462,31.462,0,0,1,85.42,47.6L84,49.028A1.25,1.25,0,1,0,85.763,50.8l1.424-1.424a31.462,31.462,0,0,1,8.368,20.17H93.528a1.25,1.25,0,1,0,0,2.5h2.027a31.462,31.462,0,0,1-8.367,20.17l-1.425-1.425A1.25,1.25,0,0,0,84,92.555l1.425,1.425a31.462,31.462,0,0,1-20.17,8.368v-2.028a1.25,1.25,0,0,0-2.5,0v2.028a31.462,31.462,0,0,1-20.17-8.368L44,92.555a1.25,1.25,0,1,0-1.768-1.768l-1.425,1.425A31.462,31.462,0,0,1,32.445,72.042Z"/><path d="M53.054,84.515a1.245,1.245,0,0,0,.94-.426L64.939,71.616a1.248,1.248,0,0,0,.311-.824V48.336a1.25,1.25,0,0,0-2.5,0V70.321L52.115,82.44a1.25,1.25,0,0,0,.939,2.074Z"/><path d="M105.3,57.417a1.25,1.25,0,0,0-1.25,1.25v47.511a5.882,5.882,0,0,1-5.876,5.876H29.826a5.882,5.882,0,0,1-5.876-5.876,1.25,1.25,0,0,0-2.5,0,8.386,8.386,0,0,0,8.376,8.376H98.174a8.386,8.386,0,0,0,8.376-8.376V58.667A1.25,1.25,0,0,0,105.3,57.417Z"/><path d="M114.173,48.191,70.09,15.46a10.161,10.161,0,0,0-12.181,0L13.827,48.191a2.548,2.548,0,0,0-.947,2.875,2.8,2.8,0,0,0,2.7,1.87H21.45V99a1.25,1.25,0,0,0,2.5,0V51.687a1.25,1.25,0,0,0-1.25-1.25H15.581a.392.392,0,0,1-.291-.1l.027-.14L59.4,17.468a7.673,7.673,0,0,1,9.2,0L112.683,50.2l.745-1-.718,1.144a.392.392,0,0,1-.291.1H105.3a1.25,1.25,0,0,0,0,2.5h7.119a2.8,2.8,0,0,0,2.7-1.87A2.548,2.548,0,0,0,114.173,48.191Z"/></svg>