<svg id="Layer_1" data-name="Layer 1" xmlns="http://www.w3.org/2000/svg" viewBox="0 0 128 128"><title>ALARM CLOCK</title><path d="M94.2,94.315c.028-.028.038-.064.062-.094a42.632,42.632,0,0,0,0-60.213c-.024-.03-.035-.066-.062-.094s-.064-.038-.094-.062a42.634,42.634,0,0,0-60.213,0c-.029.025-.066.035-.094.062s-.038.064-.062.094a42.632,42.632,0,0,0,0,60.213c.025.03.035.066.062.094s.064.038.094.062a42.634,42.634,0,0,0,60.213,0C94.136,94.353,94.172,94.343,94.2,94.315Zm-2.954-4.722a1.25,1.25,0,1,0-1.768,1.767L91.514,93.4a40.051,40.051,0,0,1-26.264,10.9v-2.9a1.25,1.25,0,0,0-2.5,0v2.9A40.051,40.051,0,0,1,36.485,93.4l2.036-2.036a1.25,1.25,0,1,0-1.768-1.767L34.718,91.63a40.049,40.049,0,0,1-10.9-26.264h2.9a1.25,1.25,0,0,0,0-2.5h-2.9A40.049,40.049,0,0,1,34.718,36.6l2.036,2.036a1.25,1.25,0,0,0,1.768-1.768l-2.036-2.036a40.05,40.05,0,0,1,26.265-10.9v2.9a1.25,1.25,0,1,0,2.5,0v-2.9a40.05,40.05,0,0,1,26.264,10.9L89.478,36.87a1.25,1.25,0,1,0,1.768,1.768L93.282,36.6a40.049,40.049,0,0,1,10.9,26.264h-2.9a1.25,1.25,0,0,0,0,2.5h2.9a40.049,40.049,0,0,1-10.9,26.264Z"/><path d="M64,34.513a1.25,1.25,0,0,0-1.25,1.25V63.645L49.24,79.039a1.25,1.25,0,0,0,1.879,1.649L64.939,64.94a1.251,1.251,0,0,0,.311-.825V35.763A1.25,1.25,0,0,0,64,34.513Z"/><path d="M102.3,95.3a49.254,49.254,0,0,0,5.214-54.677,15.707,15.707,0,0,0,5.535-12.009,15.867,15.867,0,0,0-28.572-9.5A49.388,49.388,0,0,0,21.75,38.429a13.239,13.239,0,0,1-4.3-9.811A13.372,13.372,0,0,1,37.139,16.836a1.25,1.25,0,0,0,1.184-2.2A15.872,15.872,0,0,0,14.95,28.617a15.707,15.707,0,0,0,5.535,12.009A49.357,49.357,0,0,0,25.679,95.34L19,107.148a5.428,5.428,0,0,0,9.234,5.694l6.133-9.155A49.2,49.2,0,0,0,64,113.574a1.25,1.25,0,0,0,0-2.5,46.9,46.9,0,1,1,9.955-1.057,1.25,1.25,0,0,0,.527,2.443,48.873,48.873,0,0,0,19.142-8.786l6.141,9.167A5.429,5.429,0,0,0,109,107.148ZM32.4,102.13l-6.245,9.321a2.928,2.928,0,0,1-4.981-3.072L27.41,97.358A49.892,49.892,0,0,0,32.4,102.13ZM86.785,20.24A13.357,13.357,0,1,1,106.25,38.429,49.808,49.808,0,0,0,86.785,20.24Zm19.027,92.074a2.92,2.92,0,0,1-3.97-.863l-6.259-9.341a50.039,50.039,0,0,0,4.982-4.795l6.259,11.064A2.921,2.921,0,0,1,105.812,112.314Z"/></svg>