<svg id="Layer_1" data-name="Layer 1" xmlns="http://www.w3.org/2000/svg" viewBox="0 0 128 128"><title>CLOCK_1</title><path d="M74.328,13.791a1.25,1.25,0,0,0-.5,2.449A48.8,48.8,0,1,1,64,15.25a1.25,1.25,0,0,0,0-2.5,51.193,51.193,0,1,0,10.328,1.041Z"/><path d="M19.75,64A44.25,44.25,0,1,0,64,19.75,44.3,44.3,0,0,0,19.75,64Zm86,0A41.75,41.75,0,1,1,64,22.25,41.8,41.8,0,0,1,105.75,64Z"/><path d="M62.75,34.594V62.757l-20.09.108a1.25,1.25,0,0,0,.007,2.5h.007l21.333-.115A1.25,1.25,0,0,0,65.25,64V34.594a1.25,1.25,0,0,0-2.5,0Z"/></svg>