<svg id="Layer_1" data-name="Layer 1" xmlns="http://www.w3.org/2000/svg" viewBox="0 0 128 128"><title>CLOCK</title><path d="M73.545,13.638a1.25,1.25,0,1,0-.463,2.457A48.793,48.793,0,1,1,64,15.25a1.25,1.25,0,0,0,0-2.5,51.2,51.2,0,1,0,9.545.888Z"/><path d="M32.81,32.644a.3.3,0,0,0-.166.166,44.17,44.17,0,0,0,0,62.38.3.3,0,0,0,.166.166,44.17,44.17,0,0,0,62.38,0,.3.3,0,0,0,.166-.166,44.17,44.17,0,0,0,0-62.38.3.3,0,0,0-.166-.166,44.17,44.17,0,0,0-62.38,0Zm57.647,4.9a1.25,1.25,0,0,0,1.768,0L94.371,35.4A41.584,41.584,0,0,1,105.718,62.75h-3.052a1.25,1.25,0,0,0,0,2.5h3.052A41.584,41.584,0,0,1,94.371,92.6l-2.145-2.145a1.25,1.25,0,1,0-1.768,1.768L92.6,94.371A41.584,41.584,0,0,1,65.25,105.718v-3.052a1.25,1.25,0,1,0-2.5,0v3.052A41.584,41.584,0,0,1,35.4,94.371l2.145-2.145a1.25,1.25,0,1,0-1.768-1.768L33.629,92.6A41.584,41.584,0,0,1,22.282,65.25h3.052a1.25,1.25,0,0,0,0-2.5H22.282A41.584,41.584,0,0,1,33.629,35.4l2.146,2.145a1.25,1.25,0,0,0,1.768-1.768L35.4,33.629A41.584,41.584,0,0,1,62.75,22.282v3.052a1.25,1.25,0,0,0,2.5,0V22.282A41.584,41.584,0,0,1,92.6,33.629l-2.145,2.146A1.25,1.25,0,0,0,90.458,37.543Z"/><path d="M64,33.344a1.25,1.25,0,0,0-1.25,1.25V63.529L48.727,79.509a1.25,1.25,0,0,0,1.879,1.649L64.939,64.825A1.251,1.251,0,0,0,65.25,64V34.594A1.25,1.25,0,0,0,64,33.344Z"/></svg>