<svg id="Layer_1" data-name="Layer 1" xmlns="http://www.w3.org/2000/svg" viewBox="0 0 128 128"><title>WATCH</title><path d="M71.931,36.441a1.25,1.25,0,0,0-.677,2.406,26.149,26.149,0,1,1-7.087-.972,1.25,1.25,0,0,0,0-2.5,28.6,28.6,0,1,0,7.764,1.066Z"/><path d="M64.167,44.03a1.25,1.25,0,0,0-1.25,1.25V62.757l-12.338.066a1.25,1.25,0,0,0,.007,2.5h.007l13.581-.073A1.25,1.25,0,0,0,65.417,64V45.28A1.25,1.25,0,0,0,64.167,44.03Z"/><path d="M101.646,57.417h-2.52V43.041A13.767,13.767,0,0,0,85.374,29.289h-.683l-1.4-15.4a1.25,1.25,0,0,0-1.245-1.137H46.285a1.25,1.25,0,0,0-1.245,1.137L44.031,25a1.25,1.25,0,1,0,2.49.226l.9-9.979H80.907L82.18,29.289H42.96A13.768,13.768,0,0,0,29.207,43.041V85.456A13.768,13.768,0,0,0,42.96,99.208h.728l1.352,14.905a1.25,1.25,0,0,0,1.245,1.137H82.049a1.25,1.25,0,0,0,1.245-1.137l1-11.007a1.25,1.25,0,1,0-2.49-.226l-.895,9.87H47.426L46.2,99.208H85.374A13.767,13.767,0,0,0,99.126,85.456V70.584h2.52a4.443,4.443,0,0,0,4.437-4.437V61.854A4.443,4.443,0,0,0,101.646,57.417Zm-5.02,28.039A11.264,11.264,0,0,1,85.374,96.708H42.96A11.265,11.265,0,0,1,31.707,85.456V43.041A11.265,11.265,0,0,1,42.96,31.789H85.374A11.264,11.264,0,0,1,96.626,43.041Zm6.957-19.31a1.94,1.94,0,0,1-1.937,1.938h-2.52V59.917h2.52a1.94,1.94,0,0,1,1.937,1.938Z"/></svg>