<svg xmlns="http://www.w3.org/2000/svg" data-name="Layer 1" viewBox="0 0 128 128"><path d="M32.645 95.191a1.175 1.175 0 0 0 .065.1 1.152 1.152 0 0 0 .1.065 44.17 44.17 0 0 0 62.383 0 1.152 1.152 0 0 0 .1-.065 1.175 1.175 0 0 0 .065-.1 44.17 44.17 0 0 0 0-62.382 1.175 1.175 0 0 0-.065-.1 1.155 1.155 0 0 0-.1-.065 44.17 44.17 0 0 0-62.383 0 1.155 1.155 0 0 0-.1.065 1.175 1.175 0 0 0-.065.1 44.17 44.17 0 0 0 0 62.382zM25.333 62.75h-3.051A41.585 41.585 0 0 1 33.629 35.4l2.146 2.145a1.25 1.25 0 1 0 1.768-1.768L35.4 33.629a41.585 41.585 0 0 1 27.35-11.347v3.051a1.25 1.25 0 0 0 2.5 0v-3.051A41.585 41.585 0 0 1 92.6 33.629l-2.146 2.145a1.25 1.25 0 1 0 1.768 1.768l2.149-2.142a41.585 41.585 0 0 1 11.347 27.35h-3.052a1.25 1.25 0 1 0 0 2.5h3.052A41.585 41.585 0 0 1 94.371 92.6l-2.146-2.145a1.25 1.25 0 0 0-1.768 1.768l2.143 2.148a41.585 41.585 0 0 1-27.35 11.347v-3.051a1.25 1.25 0 0 0-2.5 0v3.051A41.585 41.585 0 0 1 35.4 94.371l2.146-2.145a1.25 1.25 0 0 0-1.768-1.768L33.629 92.6a41.585 41.585 0 0 1-11.347-27.35h3.052a1.25 1.25 0 0 0 0-2.5z"/><path d="M49.666 81.583a1.245 1.245 0 0 0 .94-.426l14.333-16.333A1.248 1.248 0 0 0 65.25 64V34.595a1.25 1.25 0 0 0-2.5 0v28.934l-14.023 15.98a1.25 1.25 0 0 0 .939 2.074z"/><path d="M99.75 12.75h-62a1.25 1.25 0 0 0 0 2.5h62a13.015 13.015 0 0 1 13 13v71.5a13.015 13.015 0 0 1-13 13h-71.5a13.015 13.015 0 0 1-13-13v-71.5a13.015 13.015 0 0 1 13-13 1.25 1.25 0 0 0 0-2.5 15.517 15.517 0 0 0-15.5 15.5v71.5a15.517 15.517 0 0 0 15.5 15.5h71.5a15.517 15.517 0 0 0 15.5-15.5v-71.5a15.517 15.517 0 0 0-15.5-15.5z"/></svg>