<svg xmlns="http://www.w3.org/2000/svg" data-name="Layer 1" viewBox="0 0 128 128"><path d="m97.884 41.828 2.729-2.728a5.2 5.2 0 1 0-7.356-7.356l-3 3A44.429 44.429 0 0 0 57 26.706v-4.062a1.25 1.25 0 0 0-.815-1.172A3.209 3.209 0 0 1 57.3 15.25h13.4a3.209 3.209 0 0 1 1.111 6.222 1.25 1.25 0 0 0 .869 2.344A5.708 5.708 0 0 0 70.7 12.75H57.3a5.707 5.707 0 0 0-2.8 10.688v3.744a44.6 44.6 0 1 0 43.384 14.646zm-2.86-8.317a2.766 2.766 0 0 1 3.821 0 2.707 2.707 0 0 1 0 3.821l-2.639 2.639a44.91 44.91 0 0 0-3.955-3.687zM64 112.75a42.049 42.049 0 1 1 42.049-42.05A42.1 42.1 0 0 1 64 112.75z"/><path d="M64 34.056a36.65 36.65 0 0 0-9.3 72.1 1.25 1.25 0 0 0 .633-2.418A34.174 34.174 0 1 1 64 104.847a1.25 1.25 0 0 0 0 2.5 36.646 36.646 0 0 0 0-73.291z"/><path d="M70.149 70.7a6.16 6.16 0 0 0-4.9-6.021V46.5a1.25 1.25 0 0 0-2.5 0v18.18a6.149 6.149 0 1 0 7.4 6.021zm-9.8 0A3.649 3.649 0 1 1 64 74.351a3.653 3.653 0 0 1-3.649-3.651z"/></svg>