<svg id="Layer_3" data-name="Layer 3" xmlns="http://www.w3.org/2000/svg" viewBox="0 0 128 128"><title>Artboard 105</title><path d="M102.275,59.979A15.2,15.2,0,0,0,87.338,44.536H40.661A15.2,15.2,0,0,0,25.724,59.979s-1.029,19.949,9.009,19.949H58.154L64,75.423l5.846,4.506H93.267C103.3,79.929,102.275,59.979,102.275,59.979Z" style="fill:#50b8c9"/><path d="M92.569,62.233a5.212,5.212,0,0,1-5.212,5.212H40.642a5.212,5.212,0,0,1-5.212-5.212h0a5.213,5.213,0,0,1,5.212-5.212H87.357a5.212,5.212,0,0,1,5.212,5.212Z" style="fill:#c5f3ff"/><path d="M24.181,59.9c-.029.547-.631,13.469,4.625,19a7.906,7.906,0,0,0,5.926,2.571h3.732v3.861l.03.3A37.052,37.052,0,0,0,44.974,99.3h-.065v10.415H48V102.6a22.835,22.835,0,0,0,16,6.153,22.845,22.845,0,0,0,16-6.145v6.075h3.089V99.228a37.038,37.038,0,0,0,6.416-13.592l.021-4.162h3.74A7.9,7.9,0,0,0,99.193,78.9c5.256-5.533,4.653-18.455,4.627-18.922a17.034,17.034,0,0,0-9.5-15.368c.079-.889.786-10.777-6-18.269-4.845-5.348-12.22-8.059-21.923-8.059s-17.078,2.711-21.923,8.059C38.994,32.384,38.4,39.98,38.412,43.169A16.807,16.807,0,0,0,24.181,59.9ZM86.446,85.174a32.391,32.391,0,0,1-6.441,13.1h0v.005a20.255,20.255,0,0,1-16,7.39c-17.5,0-22.015-18.514-22.447-20.494v-3.7h16.6a1.544,1.544,0,0,0,.942-.321L64,77.373l4.9,3.779a1.545,1.545,0,0,0,.943.321h16.6ZM46.757,28.416c4.234-4.675,10.84-7.044,19.634-7.044,8.779,0,15.377,2.362,19.612,7.02,4.955,5.45,5.308,12.637,5.27,15.11a15.945,15.945,0,0,0-3.934-.51H41.5C41.521,40.165,42.1,33.555,46.757,28.416Zm-6.1,17.664H87.338c7.384,0,13.393,6.235,13.395,13.979.174,3.36-.168,12.913-3.78,16.716a4.859,4.859,0,0,1-3.687,1.609h-22.9L64.942,74.2a1.543,1.543,0,0,0-1.885,0l-5.429,4.185h-22.9a4.859,4.859,0,0,1-3.685-1.608c-3.607-3.793-3.953-13.354-3.78-16.8A13.668,13.668,0,0,1,40.661,46.081Z" style="fill:#000a3a"/><path d="M40.642,68.989H87.357a6.756,6.756,0,1,0,0-13.513H40.642a6.756,6.756,0,0,0,0,13.513Zm0-10.424H87.357a3.668,3.668,0,0,1,0,7.336H40.642a3.668,3.668,0,0,1,0-7.336Z" style="fill:#000a3a"/><path d="M58.5,52.741h11a1.544,1.544,0,0,0,0-3.089h-11a1.544,1.544,0,0,0,0,3.089Z" style="fill:#000a3a"/><circle cx="40.008" cy="73.878" r="2.316" style="fill:#000a3a"/><circle cx="47.473" cy="73.878" r="2.317" style="fill:#000a3a"/></svg>