<svg xmlns="http://www.w3.org/2000/svg" data-name="Layer 3" viewBox="0 0 128 128"><path fill="#8bd5e4" d="M37.186 49.51H88.74199999999999V85.527H37.186z"/><path fill="#50b8c9" d="M37.186 86.076 54.549 64.706 64 75.391 72.507 68.11 88.879 85.682 37.186 86.076z"/><path fill="#000a3a" d="M30.921 57.681a1.544 1.544 0 0 0 1.544-1.544V44.428h10.988a1.544 1.544 0 0 0 0-3.089H30.921a1.543 1.543 0 0 0-1.544 1.544v13.254a1.544 1.544 0 0 0 1.544 1.544zM95.007 76.358a1.543 1.543 0 0 0-1.545 1.542v11.714H82.477a1.544 1.544 0 0 0 0 3.089h12.53a1.543 1.543 0 0 0 1.544-1.544V77.9a1.543 1.543 0 0 0-1.544-1.542zM96.617 42.883a1.543 1.543 0 0 0-1.544-1.544h-13.25a1.544 1.544 0 0 0 0 3.089h11.706v10.988a1.544 1.544 0 1 0 3.089 0zM30.966 92.7H44.22a1.544 1.544 0 0 0 0-3.089H32.511V78.626a1.544 1.544 0 1 0-3.089 0v12.532a1.543 1.543 0 0 0 1.544 1.542z"/><path fill="#000a3a" d="M97.5 32.3a1.544 1.544 0 0 0-.009 2.184A47.186 47.186 0 1 1 64 20.539a47.592 47.592 0 0 1 7.724.649l-6.874 4.268a1.544 1.544 0 1 0 1.629 2.624l10.183-6.322c.027-.017.041-.045.067-.063a2.43 2.43 0 0 0 .4-.407c.013-.019.032-.032.044-.052a1.529 1.529 0 0 0 .142-.362c.009-.031.028-.057.035-.088a1.54 1.54 0 0 0 .02-.541c-.007-.051-.028-.1-.04-.149a1.515 1.515 0 0 0-.142-.382c-.014-.026-.015-.056-.031-.082s-.054-.05-.076-.081a1.476 1.476 0 0 0-.1-.148l-8.168-8.9a1.545 1.545 0 1 0-2.277 2.087l4.977 5.425A50.279 50.279 0 1 0 114.27 67.73a49.963 49.963 0 0 0-14.587-35.42 1.542 1.542 0 0 0-2.183-.01z"/><path fill="#000a3a" d="M35.641 49.51v36.017c0 .028.015.052.016.08a1.773 1.773 0 0 0 .507 1.061c.02.018.029.044.051.061a1.454 1.454 0 0 0 .178.093 1.143 1.143 0 0 0 .6.211 1.452 1.452 0 0 0 .192.039h51.557a1.544 1.544 0 0 0 1.544-1.544V49.51a1.543 1.543 0 0 0-1.544-1.544H37.186a1.544 1.544 0 0 0-1.545 1.544zM72.65 83.983l-6.956-8.625 6.77-5.7 12.82 14.32zm-3.968 0H40.415L54.55 66.46zM87.2 51.054v30.434l-13.43-15a1.545 1.545 0 0 0-2.145-.152l-7.869 6.618-8-9.923a1.545 1.545 0 0 0-2.4 0L38.73 81.153v-30.1z"/><circle cx="65.966" cy="60.55" r="4.155" fill="#000a3a"/></svg>