<svg id="Layer_3" data-name="Layer 3" xmlns="http://www.w3.org/2000/svg" viewBox="0 0 128 128"><title>Artboard 112</title><path d="M32.265,89.7C19.94,89.7,9.949,79.136,9.949,66.1V61.9c0-13.036,9.991-23.6,22.316-23.6H95.738c12.321,0,22.312,10.569,22.312,23.6v4.2c0,13.036-9.991,23.6-22.312,23.6Z" style="fill:#c5f3ff"/><circle cx="93.082" cy="66.108" r="12.785" style="fill:#8bd5e4"/><path d="M95.738,36.752H32.265C19.108,36.752,8.4,48.034,8.4,61.9v4.2c0,13.867,10.7,25.149,23.86,25.149H95.738c13.155,0,23.857-11.282,23.857-25.149V61.9C119.6,48.034,108.893,36.752,95.738,36.752ZM116.506,66.1c0,12.164-9.317,22.061-20.768,22.061H32.265c-11.453,0-20.771-9.9-20.771-22.061V61.9c0-12.164,9.319-22.061,20.771-22.061H95.738c11.451,0,20.768,9.9,20.768,22.061Z" style="fill:#000a3a"/><circle cx="34.945" cy="56.004" r="3.873" style="fill:#000a3a"/><circle cx="34.945" cy="73.882" r="3.874" style="fill:#000a3a"/><circle cx="43.883" cy="64.943" r="3.874" style="fill:#000a3a"/><circle cx="26.006" cy="64.943" r="3.874" style="fill:#000a3a"/><path d="M93.082,51.778a14.329,14.329,0,1,0,14.329,14.33A14.347,14.347,0,0,0,93.082,51.778Zm1.544,25.45v-6.8a1.544,1.544,0,1,0-3.089,0v6.8a11.248,11.248,0,0,1-9.58-9.575h6.8a1.544,1.544,0,0,0,0-3.089h-6.8a11.25,11.25,0,0,1,9.58-9.578v6.8a1.544,1.544,0,1,0,3.089,0v-6.8a11.248,11.248,0,0,1,9.577,9.578h-6.8a1.544,1.544,0,0,0,0,3.089h6.8A11.246,11.246,0,0,1,94.627,77.228Z" style="fill:#000a3a"/><path d="M76.431,44.44H51.569a1.544,1.544,0,0,0,0,3.089H76.431a1.544,1.544,0,0,0,0-3.089Z" style="fill:#000a3a"/></svg>