<svg id="Layer_3" data-name="Layer 3" xmlns="http://www.w3.org/2000/svg" viewBox="0 0 128 128"><title>Artboard 104</title><path d="M107.755,82.339S97.2,93.407,64,93.407,20.245,82.339,20.245,82.339V48.893S30.8,59.96,64,59.96s43.755-11.066,43.755-11.066Z" style="fill:#50b8c9"/><path d="M46.874,68.18c0-1.8,1.282-2.538,2.837-1.638L62.83,74.113c1.559.9,1.559,2.38,0,3.279L49.711,84.969c-1.555.9-2.837.163-2.837-1.641Z" style="fill:#c5f3ff"/><path d="M64,68.18c0-1.8,1.282-2.538,2.837-1.638l13.119,7.571c1.559.9,1.559,2.38,0,3.279L66.837,84.969c-1.555.9-2.837.163-2.837-1.641Z" style="fill:#c5f3ff"/><path d="M36.2,50.438a1.544,1.544,0,0,0,1.544-1.544v-14.3A1.544,1.544,0,0,0,36.2,33.049c-17.3,0-17.5,15.686-17.5,15.844V82.339a1.541,1.541,0,0,0,.427,1.065c.449.471,11.394,11.547,44.872,11.547S108.423,83.876,108.872,83.4a1.541,1.541,0,0,0,.427-1.065V48.893c0-.158-.2-15.844-17.5-15.844a1.544,1.544,0,0,0-1.544,1.544v14.3a1.544,1.544,0,1,0,3.089,0V36.188c11.075.75,12.621,9.542,12.835,12.057C103.874,50.2,92.492,58.416,64,58.416c-28.33,0-39.854-8.237-42.175-10.178.218-2.526,1.773-11.3,12.833-12.05V48.893A1.544,1.544,0,0,0,36.2,50.438Zm70.008,1.639V81.654C103.942,83.562,92.426,91.862,64,91.862c-28.443,0-39.955-8.31-42.211-10.208V52.077C26.744,55.417,39.179,61.5,64,61.5S101.256,55.417,106.211,52.076Z" style="fill:#000a3a"/><path d="M48.453,86.9a4.042,4.042,0,0,0,2.03-.591l11.973-6.915v3.937c0,2.1,1.285,3.569,3.123,3.569a4.042,4.042,0,0,0,2.03-.591L80.727,78.73a3.252,3.252,0,0,0,0-5.954L67.61,65.207a4.045,4.045,0,0,0-2.033-.593c-1.838,0-3.122,1.467-3.122,3.567v3.934L50.484,65.207a4.045,4.045,0,0,0-2.033-.593c-1.838,0-3.122,1.467-3.122,3.567V83.328C45.33,85.43,46.614,86.9,48.453,86.9ZM65.544,68.18A2.173,2.173,0,0,1,65.6,67.7a1.213,1.213,0,0,1,.465.177l13.118,7.57a3.2,3.2,0,0,1,.39.283,1.137,1.137,0,0,1-.389.321L66.063,83.633a1.271,1.271,0,0,1-.445.174,1.231,1.231,0,0,1-.074-.478Zm-17.126,0a2.173,2.173,0,0,1,.056-.477,1.214,1.214,0,0,1,.464.177l13.118,7.57a3.151,3.151,0,0,1,.39.283,1.132,1.132,0,0,1-.389.321L48.937,83.633a1.273,1.273,0,0,1-.445.174,1.235,1.235,0,0,1-.074-.478Z" style="fill:#000a3a"/></svg>