<svg xmlns="http://www.w3.org/2000/svg" data-name="Layer 3" viewBox="0 0 128 128"><path fill="#c5f3ff" d="M39.446 52.575 65.659 37.442 91.87 52.575 91.87 82.843 65.659 97.975 39.446 82.843 39.446 52.575z"/><path fill="#2effbe" d="M65.659 67.71 39.446 82.843"/><path fill="#000a3a" d="M97.318 32.461a1.545 1.545 0 0 0-.008 2.184A46.931 46.931 0 1 1 64 20.775a47.3 47.3 0 0 1 7.662.643l-6.818 4.231a1.544 1.544 0 1 0 1.629 2.624L76.6 21.987c.026-.016.039-.042.063-.059a2.4 2.4 0 0 0 .406-.411c.013-.019.032-.032.044-.052a1.521 1.521 0 0 0 .141-.358c.01-.032.029-.06.037-.093a1.535 1.535 0 0 0 .02-.54c-.007-.051-.028-.1-.04-.15a1.508 1.508 0 0 0-.142-.381c-.014-.027-.015-.057-.031-.083s-.055-.052-.078-.083a1.479 1.479 0 0 0-.1-.146l-8.12-8.858a1.544 1.544 0 1 0-2.276 2.087l4.934 5.38a50.024 50.024 0 1 0 42.562 49.468A49.715 49.715 0 0 0 99.5 32.47a1.545 1.545 0 0 0-2.182-.009z"/><path fill="#000a3a" d="M97.5 52.575a5.623 5.623 0 0 0-9.542-4.041L71.106 38.8a5.633 5.633 0 1 0-10.9 0l-16.853 9.73a5.619 5.619 0 1 0-5.454 9.43v19.493a5.619 5.619 0 1 0 5.455 9.431l16.856 9.729a5.633 5.633 0 1 0 10.9 0l16.85-9.73a5.62 5.62 0 1 0 5.454-9.434V57.965a5.614 5.614 0 0 0 4.086-5.39zM86.239 82.843a5.584 5.584 0 0 0 .185 1.361l-16.854 9.73a5.609 5.609 0 0 0-2.37-1.349V73.1a5.522 5.522 0 0 0 3.9-6.748l16.86-9.736a5.608 5.608 0 0 0 2.366 1.349V77.45a5.615 5.615 0 0 0-4.087 5.393zm.185-28.906-16.853 9.731a5.607 5.607 0 0 0-2.371-1.351V42.832a5.61 5.61 0 0 0 2.366-1.349l16.854 9.73a5.109 5.109 0 0 0 0 2.723zm-22.309-11.1v19.48a5.613 5.613 0 0 0-2.369 1.35l-16.854-9.731a5.111 5.111 0 0 0 0-2.722l16.855-9.731a5.614 5.614 0 0 0 2.368 1.349zM43.356 56.616l16.854 9.731a5.1 5.1 0 0 0 0 2.725L43.356 78.8a5.606 5.606 0 0 0-2.365-1.349V57.964a5.606 5.606 0 0 0 2.365-1.348zm1.536 24.867 16.857-9.732a5.614 5.614 0 0 0 2.366 1.349v19.485a5.613 5.613 0 0 0-2.368 1.349L44.892 84.2a5.112 5.112 0 0 0 0-2.721z"/></svg>