<svg id="Layer_3" data-name="Layer 3" xmlns="http://www.w3.org/2000/svg" viewBox="0 0 128 128"><title>Artboard 98</title><path d="M54.681,40.671H73.319a4.141,4.141,0,0,1,4.141,4.141V83.192a4.141,4.141,0,0,1-4.141,4.141H54.681a4.142,4.142,0,0,1-4.142-4.142V44.813A4.142,4.142,0,0,1,54.681,40.671Z" style="fill:#8bd5e4"/><rect x="50.243" y="46.425" width="27.218" height="34.488" style="fill:#c5f3ff"/><path d="M91.378,36.708a64.148,64.148,0,0,0-3.058-7.456C82.314,16.958,73.449,9.907,64,9.907c-8.622,0-16.661,5.741-22.638,16.168C35.54,36.23,32.334,49.7,32.334,64a87.218,87.218,0,0,0,3.2,23.7C21.944,82.563,12.993,73.857,12.993,64c0-8.69,7.022-16.824,19.265-22.316a1.545,1.545,0,1,0-1.264-2.819C17.591,44.88,9.9,54.041,9.9,64c0,11.625,10.764,21.8,26.757,27.308a61.105,61.105,0,0,0,4.7,10.617C47.337,112.352,55.375,118.093,64,118.093h.009c10,0,19.19-7.746,25.2-21.25a1.544,1.544,0,1,0-2.822-1.256C80.892,107.928,72.734,115,64,115H64c-7.467,0-14.555-5.19-19.956-14.614a56.229,56.229,0,0,1-3.72-7.924A86.505,86.505,0,0,0,64,95.667c29.828,0,54.1-14.2,54.1-31.666C118.1,52.386,107.349,42.218,91.378,36.708ZM64,92.579a83.543,83.543,0,0,1-24.893-3.648A82.956,82.956,0,0,1,35.423,64c0-13.77,3.06-26.693,8.617-36.388C49.443,18.186,56.53,13,64,13c8.225,0,16.079,6.419,21.547,17.611.76,1.559,1.447,3.221,2.095,4.92A86.532,86.532,0,0,0,64,32.337a88.129,88.129,0,0,0-21.3,2.53,1.544,1.544,0,0,0,.748,3A85.029,85.029,0,0,1,64,35.425a83.552,83.552,0,0,1,24.875,3.642c.682,2.15,1.3,4.371,1.8,6.663A86.323,86.323,0,0,1,92.576,64a85.263,85.263,0,0,1-2.39,20.361,1.545,1.545,0,0,0,3,.739A88.393,88.393,0,0,0,95.665,64a89.353,89.353,0,0,0-1.976-18.925c-.351-1.621-.762-3.208-1.2-4.769,13.577,5.14,22.521,13.843,22.521,23.694C115.007,79.759,92.125,92.579,64,92.579Z" style="fill:#000a3a"/><path d="M73.319,39.127H54.68A5.691,5.691,0,0,0,49,44.812V83.191a5.692,5.692,0,0,0,5.685,5.686H73.319a5.692,5.692,0,0,0,5.686-5.686V44.812A5.692,5.692,0,0,0,73.319,39.127ZM52.084,79.369V48.635H75.916V79.369Zm2.6-37.154H73.319a2.6,2.6,0,0,1,2.6,2.6v.734H52.084v-.734A2.6,2.6,0,0,1,54.68,42.215ZM73.319,85.788H54.68a2.6,2.6,0,0,1-2.6-2.6v-.733H75.916v.733A2.6,2.6,0,0,1,73.319,85.788Z" style="fill:#000a3a"/><path d="M60.243,64.92H57.772V60.442a1.444,1.444,0,0,0-.037-.182,1.784,1.784,0,0,0,.327-.985,1.833,1.833,0,1,0-3.666,0,1.784,1.784,0,0,0,.325.982,1.453,1.453,0,0,0-.038.186v6.022a1.544,1.544,0,0,0,1.544,1.544H58.7v4.569a1.544,1.544,0,1,0,3.089,0V66.464A1.544,1.544,0,0,0,60.243,64.92Z" style="fill:#000a3a"/><path d="M73.6,59.275a1.833,1.833,0,0,0-3.666,0,1.787,1.787,0,0,0,.358,1.03,1.479,1.479,0,0,0-.069.344v4.479H67.757a1.544,1.544,0,0,0-1.544,1.544v6.115a1.544,1.544,0,1,0,3.089,0v-4.57H71.77a1.544,1.544,0,0,0,1.544-1.544V60.649a1.483,1.483,0,0,0-.069-.342A1.787,1.787,0,0,0,73.6,59.275Z" style="fill:#000a3a"/><path d="M64,53.269A1.835,1.835,0,0,0,62.167,55.1a1.781,1.781,0,0,0,.326.983,1.453,1.453,0,0,0-.038.186V75.391a1.544,1.544,0,1,0,3.089,0V56.273a1.453,1.453,0,0,0-.038-.186,1.781,1.781,0,0,0,.326-.983A1.835,1.835,0,0,0,64,53.269Z" style="fill:#000a3a"/></svg>