<svg id="Layer_3" data-name="Layer 3" xmlns="http://www.w3.org/2000/svg" viewBox="0 0 128 128"><title>Artboard 101</title><circle cx="63.999" cy="64" r="43.68" style="fill:#8bd5e4"/><path d="M55.071,49.225c-2.125,0-2.992-1.507-1.93-3.346l8.925-15.464c1.065-1.84,2.8-1.84,3.867,0l8.925,15.464c1.065,1.84.2,3.346-1.93,3.346Z" style="fill:#c5f3ff"/><path d="M78.775,55.072c0-2.126,1.505-2.992,3.345-1.932l15.464,8.926c1.84,1.063,1.84,2.8,0,3.867L82.12,74.859c-1.84,1.065-3.345.194-3.345-1.93Z" style="fill:#c5f3ff"/><path d="M72.927,78.775c2.126,0,2.994,1.507,1.933,3.347L65.932,97.586c-1.062,1.84-2.8,1.84-3.867,0L53.14,82.122c-1.065-1.84-.193-3.347,1.93-3.347Z" style="fill:#c5f3ff"/><path d="M49.225,72.928c0,2.126-1.508,2.992-3.348,1.932L30.413,65.934c-1.84-1.063-1.84-2.8,0-3.867l15.464-8.925c1.84-1.065,3.348-.195,3.348,1.93Z" style="fill:#c5f3ff"/><path d="M64,18.776A45.224,45.224,0,1,0,109.224,64,45.274,45.274,0,0,0,64,18.776Zm0,87.359A42.135,42.135,0,1,1,106.135,64,42.182,42.182,0,0,1,64,106.135Z" style="fill:#000a3a"/><path d="M55.071,50.769H72.927a3.558,3.558,0,0,0,3.268-5.663L67.269,29.641a3.562,3.562,0,0,0-6.541,0L51.8,45.106a3.559,3.559,0,0,0,3.268,5.663Zm-.593-4.119L63.4,31.188c.292-.506.545-.609.6-.609s.3.1.6.608L73.52,46.652c.292.5.256.774.231.818s-.241.21-.824.21H55.071c-.582,0-.8-.166-.822-.21S54.186,47.156,54.478,46.651Z" style="fill:#000a3a"/><path d="M80.634,51.143c-2,0-3.4,1.615-3.4,3.929V72.928c0,2.313,1.4,3.929,3.4,3.929a4.513,4.513,0,0,0,2.259-.661L98.358,67.27a3.562,3.562,0,0,0,0-6.541L82.891,51.8A4.522,4.522,0,0,0,80.634,51.143ZM97.42,64c0,.052-.1.3-.608.6L81.346,73.521a1.5,1.5,0,0,1-.713.248c-.3,0-.314-.755-.314-.841V55.072c0-.086.009-.84.314-.84a1.5,1.5,0,0,1,.714.246L96.811,63.4C97.317,63.7,97.42,63.948,97.42,64Z" style="fill:#000a3a"/><path d="M72.927,77.231H55.071A3.559,3.559,0,0,0,51.8,82.894L60.729,98.36a3.562,3.562,0,0,0,6.541,0L76.2,82.893a3.56,3.56,0,0,0-3.271-5.662Zm.6,4.119L64.594,96.814c-.291.5-.543.608-.594.608s-.306-.1-.6-.608L54.477,81.348c-.292-.5-.255-.773-.23-.817s.24-.211.824-.211H72.927c.583,0,.8.167.824.211S73.813,80.845,73.522,81.349Z" style="fill:#000a3a"/><path d="M47.365,51.143a4.514,4.514,0,0,0-2.26.661L29.639,60.73a3.562,3.562,0,0,0,0,6.542L45.106,76.2a4.522,4.522,0,0,0,2.258.659c2.005,0,3.405-1.615,3.405-3.928V55.072C50.769,52.759,49.369,51.143,47.365,51.143Zm.316,21.786c0,.086-.009.84-.317.84a1.5,1.5,0,0,1-.715-.246L31.186,64.6c-.505-.292-.609-.544-.609-.6s.1-.3.608-.6l15.466-8.926a1.5,1.5,0,0,1,.714-.248c.307,0,.316.755.316.841Z" style="fill:#000a3a"/></svg>