<svg xmlns="http://www.w3.org/2000/svg" data-name="Layer 3" viewBox="0 0 128 128"><path fill="#8bd5e4" d="M107.136 64S99.242 89.545 64 89.545 20.864 64 20.864 64 28.758 38.468 64 38.468 107.136 64 107.136 64z"/><circle cx="63.999" cy="64.004" r="17.389" fill="#c5f3ff"/><path fill="#8bd5e4" d="M68.776 64a4.762 4.762 0 0 1-2.422-8.871A9.072 9.072 0 0 0 64 54.792a9.372 9.372 0 1 0 8.871 6.856A4.753 4.753 0 0 1 68.776 64z"/><path fill="#000a3a" d="m88.2 41.983 11.807-11.805-.166 12.281a1.545 1.545 0 0 0 1.523 1.566h.022a1.544 1.544 0 0 0 1.544-1.523l.217-16.079a1.546 1.546 0 0 0-.452-1.113 1.757 1.757 0 0 0-1.112-.453L85.5 25.07a1.544 1.544 0 0 0 .02 3.089h.007l12.183-.051-12.556 12.555A56.876 56.876 0 0 0 64 36.924a56.874 56.874 0 0 0-21.159 3.741L30.172 27.994l12.282.164a1.6 1.6 0 0 0 1.565-1.523 1.545 1.545 0 0 0-1.524-1.565l-16.082-.214a1.371 1.371 0 0 0-1.112.453 1.546 1.546 0 0 0-.452 1.113l.218 16.08a1.545 1.545 0 0 0 1.544 1.523h.014a1.544 1.544 0 0 0 1.531-1.55L28.1 30.293l11.694 11.693C23.9 49.655 19.448 63.356 19.389 63.548a1.551 1.551 0 0 0 0 .911c.059.192 4.512 13.9 20.4 21.567l-11.8 11.8.165-12.281a1.544 1.544 0 0 0-3.089-.042l-.216 16.079a1.545 1.545 0 0 0 1.544 1.565h.021l16.083-.217a1.544 1.544 0 0 0-.021-3.089h-.006l-12.182.059L42.84 87.347A56.861 56.861 0 0 0 64 91.089a56.86 56.86 0 0 0 21.159-3.742l12.662 12.666-12.282-.164a1.544 1.544 0 1 0-.041 3.089l16.083.214h.02a1.545 1.545 0 0 0 1.544-1.565l-.217-16.079a1.545 1.545 0 0 0-1.544-1.523h-.014a1.544 1.544 0 0 0-1.531 1.55l.052 12.181-11.685-11.689c15.894-7.671 20.347-21.376 20.406-21.568a1.551 1.551 0 0 0 0-.911c-.06-.192-4.512-13.896-20.412-21.565zm-3.08 42.133a1.486 1.486 0 0 0-.238.1A54.161 54.161 0 0 1 64 88a54.173 54.173 0 0 1-20.865-3.782 1.482 1.482 0 0 0-.272-.11C28.3 77.986 23.418 66.536 22.5 64.013c1.258-3.329 10.343-24 41.5-24A54.176 54.176 0 0 1 84.878 43.8a1.48 1.48 0 0 0 .236.1C99.711 50.02 104.593 61.5 105.5 64c-.907 2.51-5.788 13.988-20.38 20.116z"/><path fill="#000a3a" d="M64 45.071A18.933 18.933 0 1 0 82.933 64 18.955 18.955 0 0 0 64 45.071zm0 34.777A15.844 15.844 0 1 1 79.844 64 15.862 15.862 0 0 1 64 79.848z"/><path fill="#000a3a" d="M73.083 60.119a1.53 1.53 0 0 0-1.541.742 3.2 3.2 0 0 1-2.767 1.6 3.235 3.235 0 0 1-3.232-3.23 3.2 3.2 0 0 1 1.6-2.767 1.544 1.544 0 0 0-.388-2.82A10.562 10.562 0 0 0 64 53.248 10.757 10.757 0 1 0 74.757 64a10.547 10.547 0 0 0-.394-2.751 1.545 1.545 0 0 0-1.28-1.13zM64 71.674a7.67 7.67 0 0 1-.869-15.289 6.32 6.32 0 0 0 8.49 8.486A7.681 7.681 0 0 1 64 71.674z"/></svg>