<svg id="Layer_3" data-name="Layer 3" xmlns="http://www.w3.org/2000/svg" viewBox="0 0 128 128"><title>Artboard 106</title><path d="M69.807,49.216H56.246a11.773,11.773,0,0,0-19.382,0H19.215V62.6H36.863a11.771,11.771,0,0,0,19.384,0H69.091Z" style="fill:#c5f3ff"/><path d="M108.785,56.421V77.013H88.512c-36.094,0-34.116-41.184,0-41.184h20.273Z" style="fill:#50b8c9"/><circle cx="46.555" cy="55.908" r="5.106" style="fill:#50b8c9"/><path d="M108.785,78.557a1.544,1.544,0,0,0,1.544-1.544V35.829a1.544,1.544,0,0,0-1.544-1.544H89.3c-2.39-3.139-13.32-15.381-36.273-12.08a42.807,42.807,0,0,0-7.48,1.754A36.806,36.806,0,0,0,39.1,26.818,35.5,35.5,0,0,0,22.647,47.671H19.215a1.544,1.544,0,0,0-1.544,1.544V62.6a1.544,1.544,0,0,0,1.544,1.544H22.44c.849,5.552,5.849,11.729,7.328,13.451V102.3a1.544,1.544,0,1,0,3.089,0V77.013a1.543,1.543,0,0,0-.4-1.036c-1.753-1.939-5.992-7.428-6.887-11.834H36.085a13.311,13.311,0,0,0,20.94,0h5.046a20.3,20.3,0,0,0,5.592,7.765c5.029,4.349,12.239,6.649,20.85,6.649H91.1a1.511,1.511,0,0,0,.141.671l1.632,3.383H88.512a1.544,1.544,0,0,0,0,3.089h3.832L87.9,91.948a1.542,1.542,0,0,0-.27,1.116c.246,1.7.447,6.6-1.552,8.913a3.849,3.849,0,0,1-3.1,1.289c-.938,0-22.972-.189-22.972-16.6a1.544,1.544,0,1,0-3.089,0c0,15.543,16.381,19.69,26.06,19.69A6.855,6.855,0,0,0,88.414,104c2.792-3.227,2.528-8.848,2.347-10.742l5.834-8.205c.006-.009.007-.02.013-.029s.027-.028.037-.045a1.526,1.526,0,0,0,.18-.441c.01-.04.015-.078.022-.119a1.527,1.527,0,0,0,.012-.464c0-.023,0-.047,0-.07a1.535,1.535,0,0,0-.126-.4l-2.378-4.927Zm-1.544-3.089h-5.148V37.374h5.148ZM85.346,34.409C73.939,35.274,66.387,40.8,62.89,47.671H57.024a13.342,13.342,0,0,0-2.233-2.224V25.1C72.076,23.043,81.608,30.475,85.346,34.409ZM46.528,26.888A38.929,38.929,0,0,1,51.7,25.6V43.643a13.029,13.029,0,0,0-10.3,0V29.113A33.985,33.985,0,0,1,46.528,26.888Zm-8.21,4.063v14.5a13.346,13.346,0,0,0-2.233,2.224H25.89A33.116,33.116,0,0,1,38.318,30.951Zm17.928,30.1a1.545,1.545,0,0,0-1.27.665,10.226,10.226,0,0,1-16.844,0,1.545,1.545,0,0,0-1.27-.665h-16.1V50.76h16.1a1.545,1.545,0,0,0,1.27-.665,10.228,10.228,0,0,1,16.842,0,1.545,1.545,0,0,0,1.27.665H61.6a20.047,20.047,0,0,0-.963,6.1,19.589,19.589,0,0,0,.454,4.2Zm13.436,8.518a16.657,16.657,0,0,1-5.961-12.716c0-9.681,8.515-19.482,24.79-19.482H99v38.1H88.512C80.654,75.469,74.143,73.43,69.683,69.572Z" style="fill:#000a3a"/><path d="M46.555,49.258a6.651,6.651,0,1,0,6.65,6.651A6.657,6.657,0,0,0,46.555,49.258Zm0,10.213a3.562,3.562,0,1,1,3.561-3.562A3.566,3.566,0,0,1,46.555,59.471Z" style="fill:#000a3a"/></svg>