<svg id="Layer_3" data-name="Layer 3" xmlns="http://www.w3.org/2000/svg" viewBox="0 0 128 128"><title>Artboard 107</title><path d="M89.644,38.436a60.171,60.171,0,0,0-2.839-6.929C81.177,19.992,72.865,13.386,64,13.386c-16.36,0-29.669,22.7-29.669,50.612a81.645,81.645,0,0,0,2.935,21.966C24.725,81.174,16.475,73.118,16.475,64c0-6.839,4.8-13.4,13.278-18.352l-1.4,5.052a1.544,1.544,0,0,0,2.977.823l2.36-8.533c0-.008,0-.016,0-.025a1.536,1.536,0,0,0,.051-.49c0-.019-.01-.036-.012-.056a1.486,1.486,0,0,0-.032-.146,1.485,1.485,0,0,0-.472-.83c-.033-.03-.059-.064-.1-.092a1.535,1.535,0,0,0-.442-.24l-7.814-2.6a1.545,1.545,0,0,0-.974,2.932l4.4,1.461C18.773,48.442,13.386,55.995,13.386,64c0,10.885,10.058,20.414,25.005,25.577a57.151,57.151,0,0,0,4.38,9.888c5.6,9.768,13.137,15.148,21.225,15.148h.011c9.382,0,17.995-7.254,23.626-19.9a1.544,1.544,0,1,0-2.82-1.258c-5.115,11.486-12.7,18.072-20.807,18.072H64c-6.934,0-13.522-4.829-18.547-13.6a52.252,52.252,0,0,1-3.391-7.193A80.96,80.96,0,0,0,64,93.672c27.908,0,50.612-13.311,50.612-29.671C114.614,53.125,104.572,43.6,89.644,38.436ZM64,90.584A77.988,77.988,0,0,1,40.836,87.2,77.392,77.392,0,0,1,37.418,64c0-26.2,11.925-47.524,26.58-47.524,7.64,0,14.942,5.974,20.031,16.389.682,1.4,1.3,2.88,1.879,4.393A80.965,80.965,0,0,0,64,34.331,82.179,82.179,0,0,0,44.087,36.7a1.544,1.544,0,1,0,.748,3A79.224,79.224,0,0,1,64,37.42,77.994,77.994,0,0,1,87.145,40.8c.625,1.975,1.2,4.027,1.66,6.168A80.447,80.447,0,0,1,90.582,64a82,82,0,0,1-1.105,13.54l-3.4-3.917a1.544,1.544,0,0,0-2.331,2.024l5.491,6.325a1.525,1.525,0,0,0,.425.329c.039.021.076.037.116.055a1.534,1.534,0,0,0,.608.145c.006,0,.011,0,.017,0,.052,0,.1-.018.153-.023a1.5,1.5,0,0,0,.233-.026c.012,0,.023-.011.035-.014a1.555,1.555,0,0,0,.165-.068,1.522,1.522,0,0,0,.254-.126c.017-.011.037-.015.053-.026l7.127-5.064a1.544,1.544,0,1,0-1.789-2.519L92.6,77.5A85.241,85.241,0,0,0,93.671,64a83.653,83.653,0,0,0-1.846-17.693c-.316-1.454-.676-2.873-1.065-4.261C103.286,46.839,111.525,54.891,111.525,64,111.525,78.659,90.206,90.584,64,90.584Z" style="fill:#000a3a"/></svg>