<svg xmlns="http://www.w3.org/2000/svg" data-name="Layer 3" viewBox="0 0 128 128"><path fill="#8bd5e4" d="M54.681 40.671h18.638a4.141 4.141 0 0 1 4.141 4.141v38.38a4.141 4.141 0 0 1-4.141 4.141H54.681a4.142 4.142 0 0 1-4.142-4.142V44.813a4.142 4.142 0 0 1 4.142-4.142z"/><path fill="#c5f3ff" d="M50.243 46.425H77.461V80.913H50.243z"/><path fill="#000a3a" d="M91.378 36.708a64.148 64.148 0 0 0-3.058-7.456C82.314 16.958 73.449 9.907 64 9.907c-8.622 0-16.661 5.741-22.638 16.168C35.54 36.23 32.334 49.7 32.334 64a87.218 87.218 0 0 0 3.2 23.7C21.944 82.563 12.993 73.857 12.993 64c0-8.69 7.022-16.824 19.265-22.316a1.545 1.545 0 1 0-1.264-2.819C17.591 44.88 9.9 54.041 9.9 64c0 11.625 10.764 21.8 26.757 27.308a61.105 61.105 0 0 0 4.7 10.617c5.98 10.427 14.018 16.168 22.643 16.168h.009c10 0 19.19-7.746 25.2-21.25a1.544 1.544 0 1 0-2.822-1.256C80.892 107.928 72.734 115 64 115c-7.467 0-14.555-5.19-19.956-14.614a56.229 56.229 0 0 1-3.72-7.924A86.505 86.505 0 0 0 64 95.667c29.828 0 54.1-14.2 54.1-31.666 0-11.615-10.751-21.783-26.722-27.293zM64 92.579a83.543 83.543 0 0 1-24.893-3.648A82.956 82.956 0 0 1 35.423 64c0-13.77 3.06-26.693 8.617-36.388C49.443 18.186 56.53 13 64 13c8.225 0 16.079 6.419 21.547 17.611.76 1.559 1.447 3.221 2.095 4.92A86.532 86.532 0 0 0 64 32.337a88.129 88.129 0 0 0-21.3 2.53 1.544 1.544 0 0 0 .748 3A85.029 85.029 0 0 1 64 35.425a83.552 83.552 0 0 1 24.875 3.642c.682 2.15 1.3 4.371 1.8 6.663A86.323 86.323 0 0 1 92.576 64a85.263 85.263 0 0 1-2.39 20.361 1.545 1.545 0 0 0 3 .739A88.393 88.393 0 0 0 95.665 64a89.353 89.353 0 0 0-1.976-18.925 81.432 81.432 0 0 0-1.2-4.769C106.066 45.446 115.01 54.149 115.01 64 115.007 79.759 92.125 92.579 64 92.579z"/><path fill="#000a3a" d="M73.319 39.127H54.68A5.691 5.691 0 0 0 49 44.812v38.379a5.692 5.692 0 0 0 5.685 5.686h18.634a5.692 5.692 0 0 0 5.686-5.686V44.812a5.692 5.692 0 0 0-5.686-5.685zM52.084 79.369V48.635h23.832v30.734zm2.6-37.154h18.635a2.6 2.6 0 0 1 2.6 2.6v.734H52.084v-.734a2.6 2.6 0 0 1 2.596-2.6zm18.635 43.573H54.68a2.6 2.6 0 0 1-2.6-2.6v-.733h23.836v.733a2.6 2.6 0 0 1-2.597 2.6z"/><path fill="#000a3a" d="M60.243 64.92h-2.471v-4.478a1.444 1.444 0 0 0-.037-.182 1.784 1.784 0 0 0 .327-.985 1.833 1.833 0 1 0-3.666 0 1.784 1.784 0 0 0 .325.982 1.453 1.453 0 0 0-.038.186v6.022a1.544 1.544 0 0 0 1.544 1.544H58.7v4.569a1.544 1.544 0 1 0 3.089 0v-6.114a1.544 1.544 0 0 0-1.546-1.544zM73.6 59.275a1.833 1.833 0 0 0-3.666 0 1.787 1.787 0 0 0 .358 1.03 1.479 1.479 0 0 0-.069.344v4.479h-2.466a1.544 1.544 0 0 0-1.544 1.544v6.115a1.544 1.544 0 1 0 3.089 0v-4.57h2.468a1.544 1.544 0 0 0 1.544-1.544v-6.024a1.483 1.483 0 0 0-.069-.342 1.787 1.787 0 0 0 .355-1.032zM64 53.269a1.835 1.835 0 0 0-1.833 1.831 1.781 1.781 0 0 0 .326.983 1.453 1.453 0 0 0-.038.186v19.122a1.544 1.544 0 1 0 3.089 0V56.273a1.453 1.453 0 0 0-.038-.186 1.781 1.781 0 0 0 .326-.983A1.835 1.835 0 0 0 64 53.269z"/></svg>