<svg id="Layer_3" data-name="Layer 3" xmlns="http://www.w3.org/2000/svg" viewBox="0 0 128 128"><title>Artboard 111</title><rect x="37.186" y="49.51" width="51.556" height="36.017" style="fill:#8bd5e4"/><polygon points="37.186 86.076 54.549 64.706 64 75.391 72.507 68.11 88.879 85.682 37.186 86.076" style="fill:#50b8c9"/><path d="M30.921,57.681a1.544,1.544,0,0,0,1.544-1.544V44.428H43.453a1.544,1.544,0,0,0,0-3.089H30.921a1.543,1.543,0,0,0-1.544,1.544V56.137A1.544,1.544,0,0,0,30.921,57.681Z" style="fill:#000a3a"/><path d="M95.007,76.358A1.543,1.543,0,0,0,93.462,77.9V89.614H82.477a1.544,1.544,0,0,0,0,3.089H95.007a1.543,1.543,0,0,0,1.544-1.544V77.9A1.543,1.543,0,0,0,95.007,76.358Z" style="fill:#000a3a"/><path d="M96.617,42.883a1.543,1.543,0,0,0-1.544-1.544H81.823a1.544,1.544,0,0,0,0,3.089H93.529V55.416a1.544,1.544,0,1,0,3.089,0Z" style="fill:#000a3a"/><path d="M30.966,92.7H44.22a1.544,1.544,0,0,0,0-3.089H32.511V78.626a1.544,1.544,0,1,0-3.089,0V91.158A1.543,1.543,0,0,0,30.966,92.7Z" style="fill:#000a3a"/><path d="M97.5,32.3a1.544,1.544,0,0,0-.009,2.184A47.186,47.186,0,1,1,64,20.539a47.592,47.592,0,0,1,7.724.649l-6.874,4.268a1.544,1.544,0,1,0,1.629,2.624l10.183-6.322c.027-.017.041-.045.067-.063a2.43,2.43,0,0,0,.4-.407c.013-.019.032-.032.044-.052a1.529,1.529,0,0,0,.142-.362c.009-.031.028-.057.035-.088a1.54,1.54,0,0,0,.02-.541c-.007-.051-.028-.1-.04-.149a1.515,1.515,0,0,0-.142-.382c-.014-.026-.015-.056-.031-.082s-.054-.05-.076-.081a1.476,1.476,0,0,0-.1-.148l-8.168-8.9a1.545,1.545,0,1,0-2.277,2.087l4.977,5.425a50.279,50.279,0,1,0,42.757,49.715A49.963,49.963,0,0,0,99.683,32.31,1.542,1.542,0,0,0,97.5,32.3Z" style="fill:#000a3a"/><path d="M35.641,49.51V85.527c0,.028.015.052.016.08a1.773,1.773,0,0,0,.507,1.061c.02.018.029.044.051.061a1.454,1.454,0,0,0,.178.093,1.143,1.143,0,0,0,.6.211,1.452,1.452,0,0,0,.192.039H88.742a1.544,1.544,0,0,0,1.544-1.544V49.51a1.543,1.543,0,0,0-1.544-1.544H37.186A1.544,1.544,0,0,0,35.641,49.51ZM72.65,83.983l-6.956-8.625,6.77-5.7,12.82,14.32Zm-3.968,0H40.415L54.55,66.46ZM87.2,51.054V81.488l-13.43-15a1.545,1.545,0,0,0-2.145-.152l-7.869,6.618-8-9.923a1.545,1.545,0,0,0-2.4,0L38.73,81.153v-30.1Z" style="fill:#000a3a"/><circle cx="65.966" cy="60.55" r="4.155" style="fill:#000a3a"/></svg>