<svg id="Layer_3" data-name="Layer 3" xmlns="http://www.w3.org/2000/svg" viewBox="0 0 128 128"><title>Artboard 100</title><rect x="44.03" y="45.838" width="39.945" height="37.604" style="fill:#50b8c9"/><rect x="44.03" y="45.838" width="9.276" height="37.604" style="fill:#c5f3ff"/><rect x="74.623" y="45.838" width="9.276" height="37.604" style="fill:#c5f3ff"/><path d="M57.836,59.187c0-1.3.923-1.827,2.042-1.179l9.444,5.45a1.248,1.248,0,0,1,0,2.36l-9.444,5.453c-1.119.648-2.042.118-2.042-1.181Z" style="fill:#c5f3ff"/><path d="M36.662,91.309a61.123,61.123,0,0,0,4.7,10.617C47.338,112.352,55.378,118.093,64,118.093h.011c10,0,19.188-7.746,25.2-21.25a1.544,1.544,0,1,0-2.82-1.256C80.894,107.928,72.736,115,64.007,115H64c-7.468,0-14.556-5.19-19.958-14.614a56.248,56.248,0,0,1-3.72-7.925A86.52,86.52,0,0,0,64,95.667C93.83,95.667,118.1,81.462,118.1,64c0-11.616-10.747-21.785-26.72-27.3a62.568,62.568,0,0,0-3.056-7.455C82.316,16.958,73.451,9.907,64,9.907,46.539,9.907,32.334,34.173,32.334,64a87.206,87.206,0,0,0,3.2,23.7C21.944,82.563,12.993,73.857,12.993,64c0-8.689,7.023-16.823,19.268-22.316A1.544,1.544,0,0,0,31,38.867C17.592,44.88,9.9,54.042,9.9,64,9.9,75.627,20.668,85.8,36.662,91.309ZM35.423,64c0-28.123,12.819-51,28.577-51,8.225,0,16.078,6.419,21.545,17.613.765,1.561,1.451,3.221,2.1,4.917A86.528,86.528,0,0,0,64,32.337a88.1,88.1,0,0,0-21.3,2.53,1.544,1.544,0,1,0,.748,3A85,85,0,0,1,64,35.425a83.553,83.553,0,0,1,24.87,3.641c.685,2.157,1.3,4.38,1.8,6.665A86.452,86.452,0,0,1,92.577,64a85.138,85.138,0,0,1-2.39,20.361,1.544,1.544,0,0,0,3,.739A88.183,88.183,0,0,0,95.666,64a89.535,89.535,0,0,0-1.974-18.926c-.351-1.618-.763-3.206-1.207-4.769C106.063,45.447,115.007,54.15,115.007,64c0,15.758-22.881,28.577-51,28.577a83.557,83.557,0,0,1-24.9-3.648A82.946,82.946,0,0,1,35.423,64Z" style="fill:#000a3a"/><path d="M83.975,84.986a1.544,1.544,0,0,0,1.544-1.544v-37.6a1.544,1.544,0,0,0-1.544-1.544H44.03a1.544,1.544,0,0,0-1.544,1.544v37.6a1.544,1.544,0,0,0,1.544,1.544ZM51.762,65.568H45.574V63.712h6.188Zm0-4.945H45.574V58.767h6.188Zm-6.188,8.034h6.188v1.855H45.574Zm6.188-12.979H45.574V53.823h6.188ZM45.574,73.6h6.188v1.855H45.574ZM54.85,47.382h18.3V81.9H54.85Zm21.391,16.33h6.189v1.856H76.241Zm0,4.945h6.189v1.855H76.241Zm6.189-8.034H76.241V58.767h6.189ZM76.241,73.6h6.189v1.855H76.241Zm6.189-17.923H76.241V53.823h6.189ZM76.241,81.9V78.544h6.189V81.9Zm6.189-31.163H76.241V47.382h6.189ZM51.762,47.382v3.353H45.574V47.382ZM45.574,78.544h6.188V81.9H45.574Z" style="fill:#000a3a"/><path d="M70.094,62.12l-9.442-5.448a3.335,3.335,0,0,0-1.68-.485,2.753,2.753,0,0,0-2.68,3v10.9a2.754,2.754,0,0,0,2.681,3,3.335,3.335,0,0,0,1.677-.483l9.444-5.453a2.77,2.77,0,0,0,0-5.035ZM59.381,69.775V59.5l8.9,5.134Z" style="fill:#000a3a"/></svg>