<svg xmlns="http://www.w3.org/2000/svg" data-name="Layer 3" viewBox="0 0 128 128"><path fill="#50b8c9" d="M102.275 59.979a15.2 15.2 0 0 0-14.937-15.443H40.661a15.2 15.2 0 0 0-14.937 15.443s-1.029 19.949 9.009 19.949h23.421L64 75.423l5.846 4.506h23.421c10.033 0 9.008-19.95 9.008-19.95z"/><path fill="#c5f3ff" d="M92.569 62.233a5.212 5.212 0 0 1-5.212 5.212H40.642a5.212 5.212 0 0 1-5.212-5.212 5.213 5.213 0 0 1 5.212-5.212h46.715a5.212 5.212 0 0 1 5.212 5.212z"/><path fill="#000a3a" d="M24.181 59.9c-.029.547-.631 13.469 4.625 19a7.906 7.906 0 0 0 5.926 2.571h3.732v3.861l.03.3a37.052 37.052 0 0 0 6.48 13.668h-.065v10.415H48V102.6a22.835 22.835 0 0 0 16 6.153 22.845 22.845 0 0 0 16-6.145v6.075h3.089v-9.455a37.038 37.038 0 0 0 6.416-13.592l.021-4.162h3.74a7.9 7.9 0 0 0 5.927-2.574c5.256-5.533 4.653-18.455 4.627-18.922a17.034 17.034 0 0 0-9.5-15.368c.079-.889.786-10.777-6-18.269-4.845-5.348-12.22-8.059-21.923-8.059s-17.078 2.711-21.923 8.059c-5.48 6.043-6.074 13.639-6.062 16.828A16.807 16.807 0 0 0 24.181 59.9zm62.265 25.274a32.391 32.391 0 0 1-6.441 13.1v.005a20.255 20.255 0 0 1-16 7.39c-17.5 0-22.015-18.514-22.447-20.494v-3.7h16.6a1.544 1.544 0 0 0 .942-.321l4.9-3.781 4.9 3.779a1.545 1.545 0 0 0 .943.321h16.6zM46.757 28.416c4.234-4.675 10.84-7.044 19.634-7.044 8.779 0 15.377 2.362 19.612 7.02 4.955 5.45 5.308 12.637 5.27 15.11a15.945 15.945 0 0 0-3.934-.51H41.5c.021-2.827.6-9.437 5.257-14.576zm-6.1 17.664h46.681c7.384 0 13.393 6.235 13.395 13.979.174 3.36-.168 12.913-3.78 16.716a4.859 4.859 0 0 1-3.687 1.609h-22.9L64.942 74.2a1.543 1.543 0 0 0-1.885 0l-5.429 4.185h-22.9a4.859 4.859 0 0 1-3.685-1.608c-3.607-3.793-3.953-13.354-3.78-16.8a13.668 13.668 0 0 1 13.398-13.896z"/><path fill="#000a3a" d="M40.642 68.989h46.715a6.756 6.756 0 1 0 0-13.513H40.642a6.756 6.756 0 0 0 0 13.513zm0-10.424h46.715a3.668 3.668 0 0 1 0 7.336H40.642a3.668 3.668 0 0 1 0-7.336zM58.5 52.741h11a1.544 1.544 0 0 0 0-3.089h-11a1.544 1.544 0 0 0 0 3.089z"/><circle cx="40.008" cy="73.878" r="2.316" fill="#000a3a"/><circle cx="47.473" cy="73.878" r="2.317" fill="#000a3a"/></svg>