<?xml version="1.0" encoding="utf-8"?>
<!-- Generator: Adobe Illustrator 16.0.0, SVG Export Plug-In . SVG Version: 6.00 Build 0)  -->
<!DOCTYPE svg PUBLIC "-//W3C//DTD SVG 1.1//EN" "http://www.w3.org/Graphics/SVG/1.1/DTD/svg11.dtd">
<svg version="1.1" xmlns="http://www.w3.org/2000/svg" xmlns:xlink="http://www.w3.org/1999/xlink" x="0px" y="0px" width="64px"
	 height="64px" viewBox="0 0 64 64" enable-background="new 0 0 64 64" xml:space="preserve">
<g id="_x35_0_code_x2C__programming_x2C__program_x2C__bitcoin_x2C__block_x2C__chain_x2C__cryptocurrency">
</g>
<g id="_x34_9_balloon_x2C__takeoff_x2C__bitcoin_x2C__coin_x2C__block_x2C__chain_x2C__cryptocurrency">
</g>
<g id="_x34_8_video_card_x2C__mining_x2C__farm_x2C__computer_x2C__block_x2C__chain_x2C__cryptocurrency">
</g>
<g id="_x34_7_money_box_x2C__saving_x2C__bitcoin_x2C__coin_x2C__block_x2C__chain_x2C__cryptocurrency">
</g>
<g id="_x34_6_portfolio_x2C__finance_x2C__bank_note_x2C__bitcoin_x2C__coin_x2C__cryptocurrency">
</g>
<g id="_x34_5_tap_x2C__water_x2C__bitcoin_x2C__coin_x2C__block_x2C__chain_x2C__cryptocurrency">
</g>
<g id="_x34_4_phone_x2C__bitcoin_x2C__coin_x2C__block_x2C__chain_x2C__cryptocurrency">
</g>
<g id="_x34_3_rocket_x2C__sun_x2C__bitcoin_x2C__coin_x2C__block_x2C__chain_x2C__cryptocurrency">
</g>
<g id="_x34_2_transfer_x2C__network_x2C__bitcoin_x2C__coin_x2C__block_x2C__chain_x2C__cryptocurrency">
</g>
<g id="_x34_1_scales_x2C__comparison_x2C__bitcoin_x2C__coin_x2C__block_x2C__chain_x2C__cryptocurrency">
</g>
<g id="_x34_0_calculator_x2C__calculating_x2C__bitcoin_x2C__coin_x2C__block_x2C__chain_x2C__cryptocurrency">
</g>
<g id="_x33_9_start-up_x2C__plant_x2C__hand_x2C__bitcoin_x2C__coin_x2C__cryptocurrency">
</g>
<g id="_x33_8_idea_x2C__bulb_x2C__bitcoin_x2C__coin_x2C__block_x2C__chain_x2C__cryptocurrency">
</g>
<g id="_x33_7_users_x2C__user_x2C__co-founder_x2C__bitcoin_x2C__coin_x2C__cryptocurrency">
</g>
<g id="_x33_6_safe_x2C__protection_x2C__bitcoin_x2C__coin_x2C__block_x2C__chain_x2C__cryptocurrency">
</g>
<g id="_x33_5_flash_drive_x2C__key_x2C__block_x2C__chain_x2C__cryptocurrency">
</g>
<g id="_x33_4_cloud_x2C__mining_x2C__bitcoin_x2C__coin_x2C__block_x2C__chain_x2C__cryptocurrency">
</g>
<g id="_x33_3_start_up_x2C__plant_x2C__bitcoin_x2C__coin_x2C__block_x2C__chain_x2C__cryptocurrency">
</g>
<g id="_x33_2_planet_x2C__bitcoin_x2C__coin_x2C__block_x2C__chain_x2C__cryptocurrency">
</g>
<g id="_x33_1_payment_x2C__hand_x2C__bitcoin_x2C__coin_x2C__block_x2C__chain_x2C__cryptocurrency">
</g>
<g id="_x33_0_user_x2C__laptop_x2C__bitcoin_x2C__coin_x2C__block_x2C__chain_x2C__cryptocurrency">
	<g>
		<g>
			<path fill="#EDAB37" d="M19,25.16c-1.47,0.851-3.17,1.34-5,1.34c-1.819,0-3.53-0.489-5-1.34c-2.99-1.729-5-4.96-5-8.66v4
				c0,3.7,2.01,6.931,5,8.66c1.47,0.851,3.181,1.34,5,1.34c1.83,0,3.53-0.489,5-1.34c2.99-1.729,5-4.96,5-8.66v-4
				C24,20.2,21.99,23.431,19,25.16z"/>
		</g>
		<g>
			<path fill="#FFCE54" d="M15.5,20.5c1.38,0,2.5-1.119,2.5-2.5c0-1.38-1.12-2.5-2.5-2.5H15c1.11,0,2-0.89,2-2c0-1.1-0.89-2-2-2h-1
				h-2v4v5h2H15.5z M24,16.5c0,3.7-2.01,6.931-5,8.66c-1.47,0.851-3.17,1.34-5,1.34c-1.819,0-3.53-0.489-5-1.34
				c-2.99-1.729-5-4.96-5-8.66c0-5.52,4.48-10,10-10C19.53,6.5,24,10.98,24,16.5z"/>
		</g>
		<g>
			<g>
				<path fill="#F6BB42" d="M14,6.5c-0.685,0-1.353,0.069-1.999,0.201C16.569,7.628,20,11.665,20,16.5c0,3.7-2.01,6.931-5,8.66
					c-0.915,0.53-1.928,0.898-2.998,1.117C12.65,26.41,13.313,26.5,14,26.5c1.83,0,3.53-0.489,5-1.34c2.99-1.729,5-4.96,5-8.66
					C24,10.98,19.53,6.5,14,6.5z"/>
			</g>
		</g>
		<g>
			<path fill="#EDAB37" d="M15,11.5c1.11,0,2,0.9,2,2c0,1.11-0.89,2-2,2h-3v-4h2H15z"/>
		</g>
		<g>
			<path fill="#EDAB37" d="M15.5,15.5c1.38,0,2.5,1.12,2.5,2.5c0,1.381-1.12,2.5-2.5,2.5H14h-2v-5h3H15.5z"/>
		</g>
		<g>
			<path fill="#965353" d="M40,23.5l-3,3v-5c0-4.97,4.03-9,9-9h8v4c2.771,0,5,2.24,5,5v5l-3-3c0,0-3.71,2-8,2
				C43.72,25.5,40,23.5,40,23.5z"/>
		</g>
		<g>
			<g>
				<path fill="#844646" d="M54,16.5v-4h-4v6c2.771,0,5,2.24,5,5v0.468c0.634-0.271,1-0.468,1-0.468l3,3v-5
					C59,18.74,56.771,16.5,54,16.5z"/>
			</g>
		</g>
		<g>
			<path fill="#EAC6BB" d="M59,26.5v4c0,4.28-2.439,7.98-6,9.801c-1.5,0.77-3.2,1.199-5,1.199s-3.5-0.43-5-1.199
				c-3.56-1.82-6-5.521-6-9.801v-4l3-3c0,0,3.72,2,8,2c4.29,0,8-2,8-2L59,26.5z"/>
		</g>
		<g>
			<path fill="#D3B1A9" d="M56,23.5c0,0-0.366,0.197-1,0.468V30.5c0,4.28-2.439,7.98-6,9.801c-0.929,0.477-1.941,0.805-3,0.999
				c0.65,0.119,1.315,0.2,2,0.2c1.8,0,3.5-0.43,5-1.199c3.561-1.82,6-5.521,6-9.801v-4L56,23.5z"/>
		</g>
		<g>
			<path fill="#F5F7FA" d="M48,44.5l-3,1l-2-2v-3.199c1.5,0.77,3.2,1.199,5,1.199s3.5-0.43,5-1.199V43.5l-2,2L48,44.5z"/>
		</g>
		<g>
			<path fill="#5D9CEC" d="M45,45.5l3-1l3,1l2-2h4c3.32,0,6,2.69,6,6v0.29v5.71c0,1.11-0.89,2-2,2H37c1.11,0,2-0.89,2-2v-3h-6v-2.71
				V49.5c0-3.31,2.69-6,6-6h4L45,45.5z"/>
		</g>
		<g>
			<g>
				<path fill="#4A89DC" d="M57,43.5h-4c3.32,0,6,2.69,6,6v0.29v5.71c0,1.11-0.89,2-2,2h4c1.11,0,2-0.89,2-2v-5.71V49.5
					C63,46.19,60.32,43.5,57,43.5z"/>
			</g>
		</g>
		<g>
			<path fill="#CCD1D9" d="M39,55.5c0,1.11-0.89,2-2,2H25c1.11,0,2-0.89,2-2v-3h6h6V55.5z"/>
		</g>
		<g>
			<path fill="#FFFFFF" d="M14,44.5c1.11,0,2,0.9,2,2c0,1.11-0.89,2-2,2c-1.1,0-2-0.89-2-2C12,45.4,12.9,44.5,14,44.5z"/>
		</g>
		<g>
			<path fill="#E6E9ED" d="M27,55.5c0,1.11-0.89,2-2,2H3c-1.1,0-2-0.89-2-2v-18c0-1.1,0.9-2,2-2h22c1.11,0,2,0.9,2,2v15V55.5z
				 M16,46.5c0-1.1-0.89-2-2-2c-1.1,0-2,0.9-2,2c0,1.11,0.9,2,2,2C15.11,48.5,16,47.61,16,46.5z"/>
		</g>
	</g>
	<g>
		<g>
			<g>
				<path d="M14,27.5c-6.065,0-11-4.935-11-11s4.935-11,11-11s11,4.935,11,11S20.065,27.5,14,27.5z M14,7.5c-4.963,0-9,4.037-9,9
					s4.037,9,9,9s9-4.037,9-9S18.963,7.5,14,7.5z"/>
			</g>
			<g>
				<path d="M14,31.499c-6.065,0-11-4.935-11-11c0-0.553,0.447-1,1-1s1,0.447,1,1c0,4.963,4.037,9,9,9s9-4.037,9-9
					c0-0.553,0.447-1,1-1s1,0.447,1,1C25,26.564,20.065,31.499,14,31.499z"/>
			</g>
			<g>
				<path d="M24,21.499c-0.553,0-1-0.447-1-1V16.5c0-0.553,0.447-1,1-1s1,0.447,1,1v3.999C25,21.052,24.553,21.499,24,21.499z"/>
			</g>
			<g>
				<g>
					<path d="M12,21.5c-0.553,0-1-0.447-1-1v-9c0-0.553,0.447-1,1-1s1,0.447,1,1v9C13,21.053,12.553,21.5,12,21.5z"/>
				</g>
				<g>
					<path d="M15,16.499c-0.553,0-1-0.447-1-1s0.447-1,1-1c0.552,0,1-0.448,1-1c0-0.551-0.448-0.999-1-0.999c-0.553,0-1-0.447-1-1
						s0.447-1,1-1c1.654,0,3,1.346,3,2.999C18,15.153,16.654,16.499,15,16.499z"/>
				</g>
				<g>
					<path d="M15.499,21.5c-0.553,0-1-0.447-1-1s0.447-1,1-1C16.326,19.5,17,18.827,17,18c0-0.828-0.674-1.502-1.501-1.502
						c-0.553,0-1-0.447-1-1s0.447-1,1-1C17.43,14.498,19,16.069,19,18C19,19.93,17.43,21.5,15.499,21.5z"/>
				</g>
				<g>
					<path d="M15,12.5h-4c-0.553,0-1-0.447-1-1s0.447-1,1-1h4c0.553,0,1,0.447,1,1S15.553,12.5,15,12.5z"/>
				</g>
				<g>
					<path d="M15.499,21.5H11c-0.553,0-1-0.447-1-1s0.447-1,1-1h4.499c0.553,0,1,0.447,1,1S16.052,21.5,15.499,21.5z"/>
				</g>
				<g>
					<path d="M12,16.5c-0.552,0-1-0.447-1-0.999c0-0.553,0.447-1.001,0.999-1.001l3.499-0.002c0.001,0,0.001,0,0.001,0
						c0.552,0,1,0.447,1,0.999c0,0.553-0.447,1.001-0.999,1.001L12,16.5C12,16.5,12,16.5,12,16.5z"/>
				</g>
				<g>
					<path d="M14,12.5c-0.553,0-1-0.447-1-1v-1.001c0-0.553,0.447-1,1-1s1,0.447,1,1V11.5C15,12.053,14.553,12.5,14,12.5z"/>
				</g>
				<g>
					<path d="M14,22.5c-0.553,0-1-0.447-1-1v-1c0-0.553,0.447-1,1-1s1,0.447,1,1v1C15,22.053,14.553,22.5,14,22.5z"/>
				</g>
			</g>
			<g>
				<path d="M14,31.499c-0.553,0-1-0.447-1-1V26.5c0-0.553,0.447-1,1-1s1,0.447,1,1v3.999C15,31.052,14.553,31.499,14,31.499z"/>
			</g>
			<g>
				<path d="M19,30.16c-0.553,0-1-0.447-1-1v-3.998c0-0.553,0.447-1,1-1s1,0.447,1,1v3.998C20,29.713,19.553,30.16,19,30.16z"/>
			</g>
			<g>
				<path d="M9,30.16c-0.553,0-1-0.447-1-1v-3.998c0-0.553,0.447-1,1-1s1,0.447,1,1v3.998C10,29.713,9.553,30.16,9,30.16z"/>
			</g>
			<g>
				<path d="M4,21.499c-0.553,0-1-0.447-1-1V16.5c0-0.553,0.447-1,1-1s1,0.447,1,1v3.999C5,21.052,4.553,21.499,4,21.499z"/>
			</g>
		</g>
		<g>
			<path d="M33,50.499c-0.553,0-1-0.447-1-1c0-3.859,3.141-6.999,7-6.999c0.553,0,1,0.447,1,1s-0.447,1-1,1
				c-2.757,0-5,2.242-5,4.999C34,50.052,33.553,50.499,33,50.499z"/>
		</g>
		<g>
			<path d="M43,44.501L43,44.501L39,44.5c-0.553,0-1-0.448-1-1c0-0.553,0.448-1,1-1l0,0l4,0.001c0.553,0,1,0.448,1,1
				C44,44.054,43.552,44.501,43,44.501z"/>
		</g>
		<g>
			<path d="M33,53.501c-0.553,0-1-0.447-1-1v-2.715c0-0.553,0.447-1,1-1s1,0.447,1,1v2.715C34,53.054,33.553,53.501,33,53.501z"/>
		</g>
		<g>
			<path d="M63,50.499c-0.553,0-1-0.447-1-1c0-2.757-2.243-4.999-5-4.999c-0.553,0-1-0.447-1-1s0.447-1,1-1c3.859,0,7,3.14,7,6.999
				C64,50.052,63.553,50.499,63,50.499z"/>
		</g>
		<g>
			<path d="M53,44.501c-0.552,0-1-0.447-1-1c0-0.552,0.447-1,1-1l4-0.001c0.552,0,1,0.447,1,1c0,0.552-0.447,1-1,1L53,44.501z"/>
		</g>
		<g>
			<path d="M63,56.5c-0.553,0-1-0.447-1-1v-5.714c0-0.553,0.447-1,1-1s1,0.447,1,1V55.5C64,56.053,63.553,56.5,63,56.5z"/>
		</g>
		<g>
			<path d="M61,58.5H37c-0.553,0-1-0.447-1-1s0.447-1,1-1h24c0.553,0,1,0.447,1,1S61.553,58.5,61,58.5z"/>
		</g>
		<g>
			<path d="M43,44.501c-0.553,0-1-0.447-1-1V40.3c0-0.553,0.447-1,1-1s1,0.447,1,1v3.201C44,44.054,43.553,44.501,43,44.501z"/>
		</g>
		<g>
			<path d="M53,44.5c-0.553,0-1-0.447-1-1v-3.2c0-0.553,0.447-1,1-1s1,0.447,1,1v3.2C54,44.053,53.553,44.5,53,44.5z"/>
		</g>
		<g>
			<path d="M48,42.5c-6.617,0-12-5.383-12-12c0-0.553,0.447-1,1-1s1,0.447,1,1c0,5.514,4.486,10,10,10s10-4.486,10-10
				c0-0.553,0.447-1,1-1s1,0.447,1,1C60,37.117,54.617,42.5,48,42.5z"/>
		</g>
		<g>
			<path d="M37,31.501c-0.553,0-1-0.447-1-1V21.5c0-0.553,0.447-1,1-1s1,0.447,1,1v9.001C38,31.054,37.553,31.501,37,31.501z"/>
		</g>
		<g>
			<path d="M59,31.502c-0.553,0-1-0.447-1-1V21.5c0-0.553,0.447-1,1-1s1,0.447,1,1v9.002C60,31.055,59.553,31.502,59,31.502z"/>
		</g>
		<g>
			<path d="M59,22.5c-0.553,0-1-0.447-1-1c0-2.206-1.794-4-4-4c-0.553,0-1-0.447-1-1s0.447-1,1-1c3.309,0,6,2.691,6,6
				C60,22.053,59.553,22.5,59,22.5z"/>
		</g>
		<g>
			<path d="M54,17.5c-0.553,0-1-0.447-1-1v-4c0-0.553,0.447-1,1-1s1,0.447,1,1v4C55,17.053,54.553,17.5,54,17.5z"/>
		</g>
		<g>
			<path d="M54,13.5h-8c-0.553,0-1-0.447-1-1s0.447-1,1-1h8c0.553,0,1,0.447,1,1S54.553,13.5,54,13.5z"/>
		</g>
		<g>
			<path d="M37,22.5c-0.553,0-1-0.447-1-1c0-5.514,4.486-9.999,10-9.999c0.553,0,1,0.447,1,1s-0.447,1-1,1c-4.411,0-8,3.588-8,7.999
				C38,22.053,37.553,22.5,37,22.5z"/>
		</g>
		<g>
			<g>
				<path d="M59,27.5c-0.256,0-0.512-0.098-0.707-0.293l-3-3c-0.391-0.391-0.391-1.023,0-1.414s1.023-0.391,1.414,0l3,3
					c0.391,0.391,0.391,1.023,0,1.414C59.512,27.402,59.256,27.5,59,27.5z"/>
			</g>
			<g>
				<path d="M48,26.5c-4.485,0-8.313-2.033-8.474-2.119c-0.486-0.262-0.668-0.867-0.407-1.354c0.262-0.486,0.865-0.671,1.354-0.408
					C40.508,22.638,44.032,24.5,48,24.5c3.987,0,7.491-1.861,7.526-1.881c0.484-0.261,1.093-0.079,1.354,0.407
					s0.079,1.093-0.407,1.354C56.313,24.467,52.485,26.5,48,26.5z"/>
			</g>
			<g>
				<path d="M37,27.5c-0.256,0-0.512-0.098-0.707-0.293c-0.391-0.391-0.391-1.023,0-1.414l3-3c0.391-0.391,1.023-0.391,1.414,0
					s0.391,1.023,0,1.414l-3,3C37.512,27.402,37.256,27.5,37,27.5z"/>
			</g>
		</g>
		<g>
			<path d="M45,46.5c-0.256,0-0.512-0.098-0.707-0.293l-2-1.999c-0.391-0.391-0.391-1.023,0-1.414s1.023-0.391,1.414,0l2,1.999
				c0.391,0.391,0.391,1.023,0,1.414C45.512,46.402,45.256,46.5,45,46.5z"/>
		</g>
		<g>
			<path d="M45,46.5c-0.419,0-0.809-0.265-0.948-0.684c-0.175-0.524,0.108-1.091,0.632-1.265l3-1
				c0.529-0.176,1.09,0.108,1.265,0.632c0.175,0.524-0.108,1.091-0.632,1.265l-3,1C45.211,46.483,45.104,46.5,45,46.5z"/>
		</g>
		<g>
			<path d="M51,46.5c-0.256,0-0.512-0.098-0.707-0.293c-0.391-0.391-0.391-1.023,0-1.414l2-1.999c0.391-0.391,1.023-0.391,1.414,0
				s0.391,1.023,0,1.414l-2,1.999C51.512,46.402,51.256,46.5,51,46.5z"/>
		</g>
		<g>
			<path d="M51,46.5c-0.104,0-0.211-0.017-0.316-0.052l-3-1c-0.523-0.174-0.807-0.74-0.632-1.265
				c0.175-0.523,0.735-0.808,1.265-0.632l3,1c0.523,0.174,0.807,0.74,0.632,1.265C51.809,46.235,51.419,46.5,51,46.5z"/>
		</g>
		<g>
			<path d="M61,58.5c-0.553,0-1-0.447-1-1s0.447-1,1-1c0.552,0,1-0.448,1-1c0-0.553,0.447-1,1-1s1,0.447,1,1
				C64,57.154,62.654,58.5,61,58.5z"/>
		</g>
		<g>
			<path d="M1,38.5c-0.553,0-1-0.447-1-1c0-1.654,1.346-3,3-3c0.553,0,1,0.447,1,1s-0.447,1-1,1c-0.552,0-1,0.448-1,1
				C2,38.053,1.553,38.5,1,38.5z"/>
		</g>
		<g>
			<path d="M3,58.5c-1.654,0-3-1.346-3-3c0-0.553,0.447-1,1-1s1,0.447,1,1c0,0.552,0.448,1,1,1c0.553,0,1,0.447,1,1
				S3.553,58.5,3,58.5z"/>
		</g>
		<g>
			<path d="M1,56.5c-0.553,0-1-0.447-1-1v-18c0-0.553,0.447-1,1-1s1,0.447,1,1v18C2,56.053,1.553,56.5,1,56.5z"/>
		</g>
		<g>
			<path d="M27,38.5c-0.553,0-1-0.447-1-1c0-0.552-0.448-1-1-1c-0.553,0-1-0.447-1-1s0.447-1,1-1c1.654,0,3,1.346,3,3
				C28,38.053,27.553,38.5,27,38.5z"/>
		</g>
		<g>
			<path d="M25,58.5c-0.553,0-1-0.447-1-1s0.447-1,1-1c0.552,0,1-0.448,1-1c0-0.553,0.447-1,1-1s1,0.447,1,1
				C28,57.154,26.654,58.5,25,58.5z"/>
		</g>
		<g>
			<path d="M37,58.5c-0.553,0-1-0.447-1-1s0.447-1,1-1c0.552,0,1-0.448,1-1c0-0.553,0.447-1,1-1s1,0.447,1,1
				C40,57.154,38.654,58.5,37,58.5z"/>
		</g>
		<g>
			<path d="M27,56.5c-0.553,0-1-0.447-1-1v-18c0-0.553,0.447-1,1-1s1,0.447,1,1v18C28,56.053,27.553,56.5,27,56.5z"/>
		</g>
		<g>
			<path d="M25,58.5H3c-0.553,0-1-0.447-1-1s0.447-1,1-1h22c0.553,0,1,0.447,1,1S25.553,58.5,25,58.5z"/>
		</g>
		<g>
			<path d="M25,36.5H3c-0.553,0-1-0.447-1-1s0.447-1,1-1h22c0.553,0,1,0.447,1,1S25.553,36.5,25,36.5z"/>
		</g>
		<g>
			<path d="M39,56.5c-0.553,0-1-0.447-1-1v-3c0-0.553,0.447-1,1-1s1,0.447,1,1v3C40,56.053,39.553,56.5,39,56.5z"/>
		</g>
		<g>
			<path d="M39,53.5H27c-0.553,0-1-0.447-1-1s0.447-1,1-1h12c0.553,0,1,0.447,1,1S39.553,53.5,39,53.5z"/>
		</g>
		<g>
			<path d="M37,58.5H25c-0.553,0-1-0.447-1-1s0.447-1,1-1h12c0.553,0,1,0.447,1,1S37.553,58.5,37,58.5z"/>
		</g>
		<g>
			<path d="M14,49.5c-1.654,0-3-1.346-3-3s1.346-3,3-3s3,1.346,3,3S15.654,49.5,14,49.5z M14,45.5c-0.552,0-1,0.448-1,1s0.448,1,1,1
				s1-0.448,1-1S14.552,45.5,14,45.5z"/>
		</g>
	</g>
</g>
<g id="_x32_9_thief_x2C__bag_x2C__bitcoin_x2C__coin_x2C__block_x2C__chain_x2C__cryptocurrency">
</g>
<g id="_x32_8_code_x2C__programming_x2C__program_x2C__bitcoin_x2C__coin_x2C__cryptocurrency">
</g>
<g id="_x32_7_bitcoin_x2C__coin_x2C__block_x2C__chain_x2C__cryptocurrency">
</g>
<g id="_x32_6_shield_x2C__protection_x2C__bitcoin_x2C__coin_x2C__block_x2C__chain_x2C__cryptocurrency">
</g>
<g id="_x32_5_bug_x2C__laptop_x2C__miner_x2C__program_x2C__block_x2C__chain_x2C__cryptocurrency">
</g>
<g id="_x32_4_computer_x2C__monitor_x2C__bitcoin_x2C__coin_x2C__block_x2C__chain_x2C__cryptocurrency">
</g>
<g id="_x32_3_network_x2C__idea_x2C__bitcoin_x2C__coin_x2C__block_x2C__chain_x2C__cryptocurrency">
</g>
<g id="_x32_2_block_x2C__chain_x2C__cryptocurrency_x2C__technology_x2C__future">
</g>
<g id="_x32_1_smart_contact_x2C__contact_x2C__block_x2C__chain_x2C__cryptocurrency">
</g>
<g id="_x32_0_lock_x2C__safe_x2C__protection_x2C__block_x2C__chain_x2C__cryptocurrency_x2C__program">
</g>
<g id="_x31_9_server_x2C__data_x2C__bitcoin_x2C__coin_x2C__block_x2C__chain_x2C__cryptocurrency">
</g>
<g id="_x31_8_key_x2C__bitcoin_x2C__coin_x2C__block_x2C__chain_x2C__cryptocurrency">
</g>
<g id="_x31_7_pool_x2C__network_x2C__bitcoin_x2C__coin_x2C__block_x2C__chain_x2C__cryptocurrency">
</g>
<g id="_x31_6_mining_x2C__shovel_x2C__mine_x2C__coin_x2C__block_x2C__chain_x2C__cryptocurrency">
</g>
<g id="_x31_5_purse_x2C__bitcoin_x2C__coin_x2C__block_x2C__chain_x2C__cryptocurrency">
</g>
<g id="_x31_4_safe_x2C__protection_x2C__block_x2C__chain_x2C__cryptocurrency_x2C__program">
</g>
<g id="_x31_3_mining_x2C__funnel_x2C__satoshi_x2C__bitcoin_x2C__coin_x2C__cryptocurrency">
</g>
<g id="_x31_2_chart_x2C__bitcoin_x2C__coin_x2C__block_x2C__chain_x2C__cryptocurrency">
</g>
<g id="_x31_1_computer_x2C__monitor_x2C__bitcoin_x2C__coin_x2C__block_x2C__chain_x2C__cryptocurrency">
</g>
<g id="_x31_0_mining_x2C__pickaxe_x2C__stone_x2C__mine_x2C___bitcoin_x2C__coin_x2C__cryptocurrency">
</g>
<g id="_x39__miner_x2C__mining_x2C__computer_x2C__pickaxe_x2C__program_x2C__cryptocurrency">
</g>
<g id="_x38__video_card_x2C__mining_x2C__bitcoin_x2C__coin_x2C__block_x2C__chain_x2C__cryptocurrency">
</g>
<g id="_x37__exchanger_x2C__site_x2C__bitcoin_x2C__coin_x2C__block_x2C__chain_x2C__cryptocurrency">
</g>
<g id="_x36__shop_x2C__product_x2C__bitcoin_x2C__coin_x2C__block_x2C__chain_x2C__cryptocurrency">
</g>
<g id="_x35__bitcoin_x2C__coin_x2C__exchange_x2C__block_x2C__chain_x2C__cryptocurrency_x2C__product">
</g>
<g id="_x34__bitcoin_x2C__coin_x2C__exchange_x2C__block_x2C__chain_x2C__cryptocurrency">
</g>
<g id="_x33__bitcoin_x2C__coin_x2C__exchange_x2C__block_x2C__chain_x2C__cryptocurrency">
</g>
<g id="_x32__brain_x2C__smart_x2C__coin_x2C__block_x2C__chain_x2C__cryptocurrency">
</g>
<g id="_x31__bitcoin_x2C__coin_x2C__block_x2C__chain_x2C__cryptocurrency">
</g>
</svg>
