<?xml version="1.0" encoding="utf-8"?>
<!-- Generator: Adobe Illustrator 16.0.0, SVG Export Plug-In . SVG Version: 6.00 Build 0)  -->
<!DOCTYPE svg PUBLIC "-//W3C//DTD SVG 1.1//EN" "http://www.w3.org/Graphics/SVG/1.1/DTD/svg11.dtd">
<svg version="1.1" xmlns="http://www.w3.org/2000/svg" xmlns:xlink="http://www.w3.org/1999/xlink" x="0px" y="0px" width="64px"
	 height="64px" viewBox="0 0 64 64" enable-background="new 0 0 64 64" xml:space="preserve">
<g id="_x35_0_code_x2C__programming_x2C__program_x2C__bitcoin_x2C__block_x2C__chain_x2C__cryptocurrency">
</g>
<g id="_x34_9_balloon_x2C__takeoff_x2C__bitcoin_x2C__coin_x2C__block_x2C__chain_x2C__cryptocurrency">
</g>
<g id="_x34_8_video_card_x2C__mining_x2C__farm_x2C__computer_x2C__block_x2C__chain_x2C__cryptocurrency">
</g>
<g id="_x34_7_money_box_x2C__saving_x2C__bitcoin_x2C__coin_x2C__block_x2C__chain_x2C__cryptocurrency">
</g>
<g id="_x34_6_portfolio_x2C__finance_x2C__bank_note_x2C__bitcoin_x2C__coin_x2C__cryptocurrency">
</g>
<g id="_x34_5_tap_x2C__water_x2C__bitcoin_x2C__coin_x2C__block_x2C__chain_x2C__cryptocurrency">
</g>
<g id="_x34_4_phone_x2C__bitcoin_x2C__coin_x2C__block_x2C__chain_x2C__cryptocurrency">
</g>
<g id="_x34_3_rocket_x2C__sun_x2C__bitcoin_x2C__coin_x2C__block_x2C__chain_x2C__cryptocurrency">
</g>
<g id="_x34_2_transfer_x2C__network_x2C__bitcoin_x2C__coin_x2C__block_x2C__chain_x2C__cryptocurrency">
</g>
<g id="_x34_1_scales_x2C__comparison_x2C__bitcoin_x2C__coin_x2C__block_x2C__chain_x2C__cryptocurrency">
</g>
<g id="_x34_0_calculator_x2C__calculating_x2C__bitcoin_x2C__coin_x2C__block_x2C__chain_x2C__cryptocurrency">
</g>
<g id="_x33_9_start-up_x2C__plant_x2C__hand_x2C__bitcoin_x2C__coin_x2C__cryptocurrency">
</g>
<g id="_x33_8_idea_x2C__bulb_x2C__bitcoin_x2C__coin_x2C__block_x2C__chain_x2C__cryptocurrency">
</g>
<g id="_x33_7_users_x2C__user_x2C__co-founder_x2C__bitcoin_x2C__coin_x2C__cryptocurrency">
	<g>
		<g>
			<path fill="#EDAB37" d="M36.975,19.66c-1.471,0.851-3.17,1.34-4.99,1.34s-3.52-0.489-4.99-1.34c-3-1.72-5.01-4.949-5.01-8.66v4
				c0,3.7,2.01,6.931,5,8.66c1.471,0.851,3.18,1.34,5,1.34s3.531-0.489,5-1.34c2.99-1.729,5-4.96,5-8.66v-4
				C41.984,14.711,39.965,17.94,36.975,19.66z"/>
		</g>
		<g>
			<path fill="#EDAB37" d="M31.984,6h1c1.1,0,2,0.9,2,2c0,1.11-0.9,2-2,2h-3V6H31.984z"/>
		</g>
		<g>
			<path fill="#EDAB37" d="M33.484,10c1.381,0,2.5,1.12,2.5,2.5c0,1.381-1.119,2.5-2.5,2.5h-1.5h-2v-5h3H33.484z"/>
		</g>
		<g>
			<path fill="#FFCE54" d="M33.484,15c1.381,0,2.5-1.119,2.5-2.5c0-1.38-1.119-2.5-2.5-2.5h-0.5c1.1,0,2-0.89,2-2c0-1.1-0.9-2-2-2
				h-1h-2v4v5h2H33.484z M41.984,11c0,3.711-2.02,6.94-5.01,8.66c-1.471,0.851-3.17,1.34-4.99,1.34s-3.52-0.489-4.99-1.34
				c-3-1.72-5.01-4.949-5.01-8.66c0-5.52,4.471-10,10-10C37.504,1,41.984,5.48,41.984,11z"/>
		</g>
		<g>
			<g>
				<path fill="#F6BB42" d="M31.984,1c-0.686,0-1.354,0.069-2.002,0.201c4.564,0.927,8.002,4.964,8.002,9.799
					c0,3.711-2.02,6.94-5.01,8.66c-0.914,0.529-1.924,0.897-2.99,1.116c0.648,0.133,1.313,0.224,2,0.224
					c1.82,0,3.52-0.489,4.99-1.34c2.99-1.72,5.01-4.949,5.01-8.66C41.984,5.48,37.504,1,31.984,1z"/>
			</g>
		</g>
		<g>
			<path fill="#EAC6BB" d="M23.016,42.011c0,3.529-2.041,6.58-5,8.05c-1.201,0.6-2.561,0.939-4,0.939c-1.441,0-2.801-0.34-4-0.939
				c-2.951-1.46-4.98-4.49-5-8v-0.05v-2.98l3-2.03c0,0,3.01,1,6.5,1c3.488,0,5.5-1,5.5-1l3,2.03V42.011z"/>
		</g>
		<g>
			<path fill="#D3B1A9" d="M20.016,37c0,0-0.357,0.17-1,0.369v4.642c0,3.529-2.041,6.58-5,8.05c-0.627,0.313-1.299,0.551-2,0.711
				c0.643,0.146,1.311,0.229,2,0.229c1.439,0,2.799-0.34,4-0.939c2.959-1.47,5-4.521,5-8.05v-2.98L20.016,37z"/>
		</g>
		<g>
			<path fill="#F5F7FA" d="M14.016,54l-2,1l-2-1v-3.93v-0.01c1.199,0.6,2.559,0.939,4,0.939c1.439,0,2.799-0.34,4-0.939v0.01V54
				l-2,1L14.016,54z"/>
		</g>
		<g>
			<path fill="#5D9CEC" d="M16.016,55l2-1h3c2.77,0,5,2.24,5,5v3c0,0.561-0.451,1-1,1h-22c-0.551,0-1-0.439-1-1v-3
				c0-2.76,2.238-5,5-5h3l2,1l2-1L16.016,55z"/>
		</g>
		<g>
			<g>
				<path fill="#4A89DC" d="M21.016,54h-3l-0.168,0.084c2.369,0.397,4.168,2.44,4.168,4.916v3c0,0.561-0.451,1-1,1h4
					c0.549,0,1-0.439,1-1v-3C26.016,56.24,23.785,54,21.016,54z"/>
			</g>
		</g>
		<g>
			<path fill="#F5F7FA" d="M49.984,51c1.43,0,2.801-0.34,4-0.939v0.01V54l-2,1l-2-1l-2,1l-2-1v-3.93
				C47.195,50.66,48.545,51,49.984,51z"/>
		</g>
		<g>
			<path fill="#E6E9ED" d="M61.984,59v3c0,0.561-0.449,1-1,1h-22c-0.559,0-1-0.439-1-1v-3c0-2.76,2.23-5,5-5h3l2,1l2-1l2,1l2-1h3
				C59.744,54,61.984,56.24,61.984,59z"/>
		</g>
		<g>
			<g>
				<path fill="#CCD1D9" d="M56.984,54h-3l-0.168,0.084c2.363,0.398,4.168,2.441,4.168,4.916v3c0,0.561-0.449,1-1,1h4
					c0.551,0,1-0.439,1-1v-3C61.984,56.24,59.744,54,56.984,54z"/>
			</g>
		</g>
		<g>
			<path fill="#EAC6BB" d="M40.984,41.961v-4.32c7.08,0.87,10.34-1.46,13-1.8c1.641-0.21,3.061,0.34,5,2.88V42v0.011
				c0,3.529-2.039,6.58-5,8.05c-1.199,0.6-2.57,0.939-4,0.939c-1.439,0-2.789-0.34-4-0.93c-2.969-1.47-5-4.52-5-8.06V41.961z"/>
		</g>
		<g>
			<path fill="#D3B1A9" d="M54.984,35.83V42v0.011c0,3.529-2.039,6.58-5,8.05c-0.625,0.313-1.301,0.551-2.004,0.711
				C48.625,50.918,49.293,51,49.984,51c1.43,0,2.801-0.34,4-0.939c2.961-1.47,5-4.521,5-8.05V42v-3.279
				C57.447,36.709,56.236,35.956,54.984,35.83z"/>
		</g>
		<g>
			<path fill="#F6BB42" d="M58.984,37.5v1.221c-1.939-2.54-3.359-3.09-5-2.88l3-4.17C58.234,33.28,58.984,35.301,58.984,37.5z"/>
		</g>
		<g>
			<path fill="#FFCE54" d="M56.984,31.671l-3,4.17c-2.66,0.34-5.92,2.67-13,1.8c-0.33-0.04-0.66-0.09-1-0.141
				c0-5.239,4.25-9.5,9.5-9.5C52.525,28,55.244,29.44,56.984,31.671z"/>
		</g>
		<g>
			<path fill="#F6BB42" d="M53.141,31.671c0.715,0.92,1.26,1.976,1.6,3.12l2.244-3.12c-1.74-2.23-4.459-3.671-7.5-3.671
				c-0.67,0-1.322,0.071-1.953,0.203C49.793,28.663,51.771,29.916,53.141,31.671z"/>
		</g>
		<g>
			<path fill="#EDAB37" d="M56.984,31.671l-2.244,3.12c0.102,0.34,0.188,0.685,0.252,1.039c0,0,0.002,0,0.004,0.001
				c0.139,0.015,0.279,0.039,0.418,0.07c0.033,0.007,0.066,0.016,0.098,0.024c0.133,0.033,0.266,0.072,0.398,0.123
				c0.033,0.012,0.066,0.029,0.1,0.043c0.225,0.093,0.453,0.214,0.684,0.362c0.068,0.044,0.139,0.083,0.209,0.133
				c0.092,0.065,0.188,0.144,0.281,0.219c0.1,0.081,0.201,0.165,0.305,0.257c0.086,0.077,0.174,0.159,0.26,0.245
				c0.125,0.121,0.252,0.254,0.379,0.394c0.074,0.079,0.146,0.155,0.221,0.241c0.207,0.237,0.418,0.492,0.637,0.778V37.5
				C58.984,35.301,58.234,33.28,56.984,31.671z"/>
		</g>
		<g>
			<path fill="#965353" d="M23.016,36v3.03l-3-2.03c0,0-2.012,1-5.5,1c-3.49,0-6.5-1-6.5-1l-3,2.03V36c0-4.42,3.58-8,8-8h6v4
				C21.225,32,23.016,33.79,23.016,36z"/>
		</g>
		<g>
			<g>
				<path fill="#844646" d="M19.016,32v-4h-4v6c2.209,0,4,0.79,4,3v0.369c0.643-0.199,1-0.369,1-0.369l3,2.03V36
					C23.016,33.79,21.225,32,19.016,32z"/>
			</g>
		</g>
	</g>
	<g>
		<g>
			<g>
				<path d="M31.982,22c-6.065,0-11-4.935-11-11s4.935-11,11-11s11,4.935,11,11S38.048,22,31.982,22z M31.982,2
					c-4.963,0-9,4.037-9,9s4.037,9,9,9s9-4.037,9-9S36.945,2,31.982,2z"/>
			</g>
			<g>
				<path d="M31.982,25.999c-6.065,0-11-4.935-11-11c0-0.553,0.447-1,1-1s1,0.447,1,1c0,4.963,4.037,9,9,9s9-4.037,9-9
					c0-0.553,0.447-1,1-1s1,0.447,1,1C42.982,21.064,38.048,25.999,31.982,25.999z"/>
			</g>
			<g>
				<path d="M41.982,15.999c-0.553,0-1-0.447-1-1V11c0-0.553,0.447-1,1-1s1,0.447,1,1v3.999
					C42.982,15.552,42.535,15.999,41.982,15.999z"/>
			</g>
			<g>
				<g>
					<path d="M29.982,16c-0.553,0-1-0.447-1-1V6c0-0.553,0.447-1,1-1s1,0.447,1,1v9C30.982,15.553,30.535,16,29.982,16z"/>
				</g>
				<g>
					<path d="M32.982,10.999c-0.553,0-1-0.447-1-1s0.447-1,1-1c0.552,0,1-0.448,1-1c0-0.551-0.448-0.999-1-0.999
						c-0.553,0-1-0.447-1-1s0.447-1,1-1c1.654,0,3,1.346,3,2.999C35.982,9.653,34.637,10.999,32.982,10.999z"/>
				</g>
				<g>
					<path d="M33.481,16c-0.553,0-1-0.447-1-1s0.447-1,1-1c0.827,0,1.501-0.673,1.501-1.5c0-0.828-0.674-1.502-1.501-1.502
						c-0.553,0-1-0.447-1-1s0.447-1,1-1c1.931,0,3.501,1.571,3.501,3.502C36.982,14.43,35.412,16,33.481,16z"/>
				</g>
				<g>
					<path d="M32.982,7h-4c-0.553,0-1-0.447-1-1s0.447-1,1-1h4c0.553,0,1,0.447,1,1S33.535,7,32.982,7z"/>
				</g>
				<g>
					<path d="M33.481,16h-4.499c-0.553,0-1-0.447-1-1s0.447-1,1-1h4.499c0.553,0,1,0.447,1,1S34.034,16,33.481,16z"/>
				</g>
				<g>
					<path d="M29.982,11c-0.552,0-1-0.447-1-0.999C28.982,9.448,29.43,9,29.981,9l3.499-0.002c0.001,0,0.001,0,0.001,0
						c0.552,0,1,0.447,1,0.999c0,0.553-0.447,1.001-0.999,1.001L29.982,11C29.982,11,29.982,11,29.982,11z"/>
				</g>
				<g>
					<path d="M31.982,7c-0.553,0-1-0.447-1-1V4.999c0-0.553,0.447-1,1-1s1,0.447,1,1V6C32.982,6.553,32.535,7,31.982,7z"/>
				</g>
				<g>
					<path d="M31.982,17c-0.553,0-1-0.447-1-1v-1c0-0.553,0.447-1,1-1s1,0.447,1,1v1C32.982,16.553,32.535,17,31.982,17z"/>
				</g>
			</g>
			<g>
				<path d="M31.982,25.999c-0.553,0-1-0.447-1-1V21c0-0.553,0.447-1,1-1s1,0.447,1,1v3.999
					C32.982,25.552,32.535,25.999,31.982,25.999z"/>
			</g>
			<g>
				<path d="M36.982,24.66c-0.553,0-1-0.447-1-1v-3.998c0-0.553,0.447-1,1-1s1,0.447,1,1v3.998
					C37.982,24.213,37.535,24.66,36.982,24.66z"/>
			</g>
			<g>
				<path d="M26.982,24.66c-0.553,0-1-0.447-1-1v-3.998c0-0.553,0.447-1,1-1s1,0.447,1,1v3.998
					C27.982,24.213,27.535,24.66,26.982,24.66z"/>
			</g>
			<g>
				<path d="M21.982,15.999c-0.553,0-1-0.447-1-1V11c0-0.553,0.447-1,1-1s1,0.447,1,1v3.999
					C22.982,15.552,22.535,15.999,21.982,15.999z"/>
			</g>
		</g>
		<g>
			<g>
				<path d="M2.018,60c-0.553,0-1-0.447-1-1c0-3.309,2.691-6,6-6c0.553,0,1,0.447,1,1s-0.447,1-1,1c-2.206,0-4,1.794-4,4
					C3.018,59.553,2.57,60,2.018,60z"/>
			</g>
			<g>
				<path d="M10.018,55h-3c-0.553,0-1-0.447-1-1s0.447-1,1-1h3c0.553,0,1,0.447,1,1S10.57,55,10.018,55z"/>
			</g>
			<g>
				<path d="M2.018,63c-0.553,0-1-0.447-1-1v-3c0-0.553,0.447-1,1-1s1,0.447,1,1v3C3.018,62.553,2.57,63,2.018,63z"/>
			</g>
			<g>
				<path d="M3.018,64c-1.103,0-2-0.897-2-2c0-0.531,0.418-0.914,0.948-0.943c0.558-0.046,0.992,0.416,1.052,0.942
					c0.552,0,1,0.448,1,1C4.018,63.552,3.57,64,3.018,64z"/>
			</g>
			<g>
				<path d="M26.018,60c-0.553,0-1-0.447-1-1c0-2.206-1.794-4-4-4c-0.553,0-1-0.447-1-1s0.447-1,1-1c3.309,0,6,2.691,6,6
					C27.018,59.553,26.57,60,26.018,60z"/>
			</g>
			<g>
				<path d="M21.018,55h-3c-0.553,0-1-0.447-1-1s0.447-1,1-1h3c0.553,0,1,0.447,1,1S21.57,55,21.018,55z"/>
			</g>
			<g>
				<path d="M26.018,63c-0.553,0-1-0.447-1-1v-3c0-0.553,0.447-1,1-1s1,0.447,1,1v3C27.018,62.553,26.57,63,26.018,63z"/>
			</g>
			<g>
				<path d="M25.018,64c-0.553,0-1-0.447-1-1s0.447-1,1-1c0-0.553,0.447-1,1-1s1,0.447,1,1C27.018,63.103,26.12,64,25.018,64z"/>
			</g>
			<g>
				<path d="M25.018,64h-22c-0.553,0-1-0.447-1-1s0.447-1,1-1h22c0.553,0,1,0.447,1,1S25.57,64,25.018,64z"/>
			</g>
			<g>
				<path d="M10.018,55c-0.553,0-1-0.447-1-1v-3.936c0-0.553,0.447-1,1-1s1,0.447,1,1V54C11.018,54.553,10.57,55,10.018,55z"/>
			</g>
			<g>
				<path d="M18.018,55c-0.553,0-1-0.447-1-1v-3.936c0-0.553,0.447-1,1-1s1,0.447,1,1V54C19.018,54.553,18.57,55,18.018,55z"/>
			</g>
			<g>
				<path d="M14.017,52c-5.514,0-9.999-4.485-9.999-9.998c0-0.553,0.447-1,1-1s1,0.447,1,1c0,4.41,3.588,7.998,7.999,7.998
					c4.412,0,8.001-3.588,8.001-7.998c0-0.553,0.447-1,1-1s1,0.447,1,1C24.018,47.515,19.531,52,14.017,52z"/>
			</g>
			<g>
				<path d="M5.018,43.051c-0.553,0-1-0.447-1-1V36c0-0.553,0.447-1,1-1s1,0.447,1,1v6.051C6.018,42.604,5.57,43.051,5.018,43.051z"
					/>
			</g>
			<g>
				<path d="M23.018,43.002c-0.553,0-1-0.447-1-1V36c0-0.553,0.447-1,1-1s1,0.447,1,1v6.002
					C24.018,42.555,23.57,43.002,23.018,43.002z"/>
			</g>
			<g>
				<path d="M23.018,36.999c-0.553,0-1-0.447-1-1c0-1.653-1.346-2.999-3-2.999c-0.553,0-1-0.447-1-1s0.447-1,1-1
					c2.757,0,5,2.242,5,4.999C24.018,36.552,23.57,36.999,23.018,36.999z"/>
			</g>
			<g>
				<path d="M19.018,33c-0.553,0-1-0.447-1-1v-4c0-0.553,0.447-1,1-1s1,0.447,1,1v4C20.018,32.553,19.57,33,19.018,33z"/>
			</g>
			<g>
				<path d="M19.018,29h-6c-0.553,0-1-0.447-1-1s0.447-1,1-1h6c0.553,0,1,0.447,1,1S19.57,29,19.018,29z"/>
			</g>
			<g>
				<path d="M5.018,37c-0.553,0-1-0.447-1-1c0-4.963,4.037-9,9-9c0.553,0,1,0.447,1,1s-0.447,1-1,1c-3.859,0-7,3.141-7,7
					C6.018,36.553,5.57,37,5.018,37z"/>
			</g>
			<g>
				<g>
					<path d="M23.017,40.025c-0.192,0-0.387-0.056-0.559-0.171l-3-2.025c-0.458-0.31-0.578-0.931-0.27-1.389
						c0.309-0.457,0.93-0.577,1.389-0.27l3,2.025c0.458,0.31,0.578,0.931,0.27,1.389C23.653,39.871,23.338,40.025,23.017,40.025z"/>
				</g>
				<g>
					<path d="M14.518,39c-3.612,0-6.687-1.008-6.815-1.051c-0.523-0.175-0.807-0.74-0.634-1.264c0.174-0.523,0.74-0.81,1.264-0.635
						C8.361,36.061,11.24,37,14.518,37c3.178,0,5.04-0.888,5.059-0.897c0.494-0.241,1.094-0.037,1.337,0.457s0.043,1.09-0.449,1.336
						C20.373,37.94,18.203,39,14.518,39z"/>
				</g>
				<g>
					<path d="M5.019,40.025c-0.321,0-0.637-0.154-0.83-0.44C3.88,39.127,4,38.506,4.458,38.196l3-2.025
						c0.459-0.308,1.08-0.188,1.389,0.27c0.309,0.458,0.188,1.079-0.27,1.389l-3,2.025C5.405,39.97,5.211,40.025,5.019,40.025z"/>
				</g>
			</g>
			<g>
				<path d="M12.017,56c-0.15,0-0.303-0.034-0.446-0.105l-2-1c-0.494-0.247-0.694-0.848-0.447-1.342
					c0.248-0.494,0.849-0.693,1.342-0.447l2,1c0.494,0.247,0.694,0.848,0.447,1.342C12.736,55.798,12.384,56,12.017,56z"/>
			</g>
			<g>
				<path d="M12.019,56c-0.367,0-0.72-0.202-0.896-0.553c-0.247-0.494-0.047-1.095,0.447-1.342l2-1
					c0.495-0.246,1.094-0.047,1.342,0.447c0.247,0.494,0.047,1.095-0.447,1.342l-2,1C12.321,55.966,12.169,56,12.019,56z"/>
			</g>
			<g>
				<path d="M16.019,56c-0.367,0-0.72-0.202-0.896-0.553c-0.247-0.494-0.047-1.095,0.447-1.342l2-1
					c0.494-0.246,1.094-0.047,1.342,0.447c0.247,0.494,0.047,1.095-0.447,1.342l-2,1C16.321,55.966,16.169,56,16.019,56z"/>
			</g>
			<g>
				<path d="M16.017,56c-0.15,0-0.303-0.034-0.446-0.105l-2-1c-0.494-0.247-0.694-0.848-0.447-1.342
					c0.248-0.494,0.848-0.693,1.342-0.447l2,1c0.494,0.247,0.694,0.848,0.447,1.342C16.736,55.798,16.384,56,16.017,56z"/>
			</g>
		</g>
		<g>
			<g>
				<path d="M40.982,42.96c-0.553,0-1-0.447-1-1v-4.32c0-0.553,0.447-1,1-1s1,0.447,1,1v4.32
					C41.982,42.513,41.535,42.96,40.982,42.96z"/>
			</g>
			<g>
				<path d="M58.982,43c-0.553,0-1-0.447-1-1v-4.501c0-0.553,0.447-1,1-1s1,0.447,1,1V42C59.982,42.553,59.535,43,58.982,43z"/>
			</g>
			<g>
				<path d="M58.982,38.499c-0.553,0-1-0.447-1-1c0-4.687-3.813-8.499-8.501-8.499c-4.687,0-8.499,3.813-8.499,8.499
					c0,0.553-0.447,1-1,1s-1-0.447-1-1C38.982,31.71,43.692,27,49.481,27c5.79,0,10.501,4.71,10.501,10.499
					C59.982,38.052,59.535,38.499,58.982,38.499z"/>
			</g>
			<g>
				<path d="M58.552,39.716c-0.301,0-0.598-0.135-0.795-0.392c-2.406-3.143-3.422-2.8-6.13-1.887
					c-2.484,0.837-5.884,1.986-11.801,1.049c-0.545-0.086-0.918-0.598-0.831-1.144c0.086-0.545,0.6-0.921,1.144-0.831
					c5.423,0.854,8.562-0.198,10.851-0.97c3.245-1.093,5.232-1.513,8.355,2.565c0.336,0.438,0.253,1.066-0.186,1.402
					C58.978,39.648,58.764,39.716,58.552,39.716z"/>
			</g>
			<g>
				<path d="M53.981,36.794c-0.204,0-0.409-0.063-0.587-0.191c-0.447-0.324-0.546-0.95-0.221-1.396l3-4.126
					c0.323-0.447,0.948-0.546,1.396-0.221c0.447,0.324,0.546,0.95,0.221,1.396l-3,4.126C54.596,36.651,54.291,36.794,53.981,36.794z
					"/>
			</g>
			<g>
				<path d="M37.982,60c-0.553,0-1-0.447-1-1c0-3.309,2.691-6,6-6c0.553,0,1,0.447,1,1s-0.447,1-1,1c-2.206,0-4,1.794-4,4
					C38.982,59.553,38.535,60,37.982,60z"/>
			</g>
			<g>
				<path d="M45.982,55h-3c-0.553,0-1-0.447-1-1s0.447-1,1-1h3c0.553,0,1,0.447,1,1S46.535,55,45.982,55z"/>
			</g>
			<g>
				<path d="M37.982,63c-0.553,0-1-0.447-1-1v-3c0-0.553,0.447-1,1-1s1,0.447,1,1v3C38.982,62.553,38.535,63,37.982,63z"/>
			</g>
			<g>
				<path d="M38.982,64c-1.103,0-2-0.897-2-2c0-0.531,0.418-0.914,0.948-0.943c0.548-0.046,0.993,0.416,1.052,0.942
					c0.552,0,1,0.448,1,1C39.982,63.552,39.535,64,38.982,64z"/>
			</g>
			<g>
				<path d="M61.982,60c-0.553,0-1-0.447-1-1c0-2.206-1.794-4-4-4c-0.553,0-1-0.447-1-1s0.447-1,1-1c3.309,0,6,2.691,6,6
					C62.982,59.553,62.535,60,61.982,60z"/>
			</g>
			<g>
				<path d="M56.982,55h-3c-0.553,0-1-0.447-1-1s0.447-1,1-1h3c0.553,0,1,0.447,1,1S57.535,55,56.982,55z"/>
			</g>
			<g>
				<path d="M61.982,63c-0.553,0-1-0.447-1-1v-3c0-0.553,0.447-1,1-1s1,0.447,1,1v3C62.982,62.553,62.535,63,61.982,63z"/>
			</g>
			<g>
				<path d="M60.982,64c-0.553,0-1-0.447-1-1s0.447-1,1-1c0-0.553,0.447-1,1-1s1,0.447,1,1C62.982,63.103,62.085,64,60.982,64z"/>
			</g>
			<g>
				<path d="M60.982,64h-22c-0.553,0-1-0.447-1-1s0.447-1,1-1h22c0.553,0,1,0.447,1,1S61.535,64,60.982,64z"/>
			</g>
			<g>
				<path d="M45.982,55c-0.553,0-1-0.447-1-1v-3.936c0-0.553,0.447-1,1-1s1,0.447,1,1V54C46.982,54.553,46.535,55,45.982,55z"/>
			</g>
			<g>
				<path d="M53.982,55c-0.553,0-1-0.447-1-1v-3.936c0-0.553,0.447-1,1-1s1,0.447,1,1V54C54.982,54.553,54.535,55,53.982,55z"/>
			</g>
			<g>
				<path d="M49.981,52c-5.514,0-9.999-4.485-9.999-9.998c0-0.553,0.447-1,1-1s1,0.447,1,1c0,4.41,3.588,7.998,7.999,7.998
					c4.412,0,8.001-3.588,8.001-7.998c0-0.553,0.447-1,1-1s1,0.447,1,1C59.982,47.515,55.496,52,49.981,52z"/>
			</g>
			<g>
				<path d="M47.981,56c-0.15,0-0.303-0.034-0.446-0.105l-2-1c-0.494-0.247-0.694-0.848-0.447-1.342
					c0.248-0.494,0.847-0.693,1.342-0.447l2,1c0.494,0.247,0.694,0.848,0.447,1.342C48.701,55.798,48.349,56,47.981,56z"/>
			</g>
			<g>
				<path d="M47.983,56c-0.367,0-0.72-0.202-0.896-0.553c-0.247-0.494-0.047-1.095,0.447-1.342l2-1
					c0.493-0.246,1.094-0.047,1.342,0.447c0.247,0.494,0.047,1.095-0.447,1.342l-2,1C48.286,55.966,48.134,56,47.983,56z"/>
			</g>
			<g>
				<path d="M51.983,56c-0.367,0-0.72-0.202-0.896-0.553c-0.247-0.494-0.047-1.095,0.447-1.342l2-1
					c0.494-0.246,1.094-0.047,1.342,0.447c0.247,0.494,0.047,1.095-0.447,1.342l-2,1C52.286,55.966,52.134,56,51.983,56z"/>
			</g>
			<g>
				<path d="M51.981,56c-0.15,0-0.303-0.034-0.446-0.105l-2-1c-0.494-0.247-0.694-0.848-0.447-1.342
					c0.248-0.494,0.848-0.693,1.342-0.447l2,1c0.494,0.247,0.694,0.848,0.447,1.342C52.701,55.798,52.349,56,51.981,56z"/>
			</g>
		</g>
		<g>
			<path d="M49.982,25c-0.553,0-1-0.447-1-1V11c0-0.553,0.447-1,1-1s1,0.447,1,1v13C50.982,24.553,50.535,25,49.982,25z"/>
		</g>
		<g>
			<path d="M49.982,12h-4c-0.553,0-1-0.447-1-1s0.447-1,1-1h4c0.553,0,1,0.447,1,1S50.535,12,49.982,12z"/>
		</g>
		<g>
			<path d="M13.982,25c-0.553,0-1-0.447-1-1V11c0-0.553,0.447-1,1-1s1,0.447,1,1v13C14.982,24.553,14.535,25,13.982,25z"/>
		</g>
		<g>
			<path d="M17.982,12h-4c-0.553,0-1-0.447-1-1s0.447-1,1-1h4c0.553,0,1,0.447,1,1S18.535,12,17.982,12z"/>
		</g>
	</g>
</g>
<g id="_x33_6_safe_x2C__protection_x2C__bitcoin_x2C__coin_x2C__block_x2C__chain_x2C__cryptocurrency">
</g>
<g id="_x33_5_flash_drive_x2C__key_x2C__block_x2C__chain_x2C__cryptocurrency">
</g>
<g id="_x33_4_cloud_x2C__mining_x2C__bitcoin_x2C__coin_x2C__block_x2C__chain_x2C__cryptocurrency">
</g>
<g id="_x33_3_start_up_x2C__plant_x2C__bitcoin_x2C__coin_x2C__block_x2C__chain_x2C__cryptocurrency">
</g>
<g id="_x33_2_planet_x2C__bitcoin_x2C__coin_x2C__block_x2C__chain_x2C__cryptocurrency">
</g>
<g id="_x33_1_payment_x2C__hand_x2C__bitcoin_x2C__coin_x2C__block_x2C__chain_x2C__cryptocurrency">
</g>
<g id="_x33_0_user_x2C__laptop_x2C__bitcoin_x2C__coin_x2C__block_x2C__chain_x2C__cryptocurrency">
</g>
<g id="_x32_9_thief_x2C__bag_x2C__bitcoin_x2C__coin_x2C__block_x2C__chain_x2C__cryptocurrency">
</g>
<g id="_x32_8_code_x2C__programming_x2C__program_x2C__bitcoin_x2C__coin_x2C__cryptocurrency">
</g>
<g id="_x32_7_bitcoin_x2C__coin_x2C__block_x2C__chain_x2C__cryptocurrency">
</g>
<g id="_x32_6_shield_x2C__protection_x2C__bitcoin_x2C__coin_x2C__block_x2C__chain_x2C__cryptocurrency">
</g>
<g id="_x32_5_bug_x2C__laptop_x2C__miner_x2C__program_x2C__block_x2C__chain_x2C__cryptocurrency">
</g>
<g id="_x32_4_computer_x2C__monitor_x2C__bitcoin_x2C__coin_x2C__block_x2C__chain_x2C__cryptocurrency">
</g>
<g id="_x32_3_network_x2C__idea_x2C__bitcoin_x2C__coin_x2C__block_x2C__chain_x2C__cryptocurrency">
</g>
<g id="_x32_2_block_x2C__chain_x2C__cryptocurrency_x2C__technology_x2C__future">
</g>
<g id="_x32_1_smart_contact_x2C__contact_x2C__block_x2C__chain_x2C__cryptocurrency">
</g>
<g id="_x32_0_lock_x2C__safe_x2C__protection_x2C__block_x2C__chain_x2C__cryptocurrency_x2C__program">
</g>
<g id="_x31_9_server_x2C__data_x2C__bitcoin_x2C__coin_x2C__block_x2C__chain_x2C__cryptocurrency">
</g>
<g id="_x31_8_key_x2C__bitcoin_x2C__coin_x2C__block_x2C__chain_x2C__cryptocurrency">
</g>
<g id="_x31_7_pool_x2C__network_x2C__bitcoin_x2C__coin_x2C__block_x2C__chain_x2C__cryptocurrency">
</g>
<g id="_x31_6_mining_x2C__shovel_x2C__mine_x2C__coin_x2C__block_x2C__chain_x2C__cryptocurrency">
</g>
<g id="_x31_5_purse_x2C__bitcoin_x2C__coin_x2C__block_x2C__chain_x2C__cryptocurrency">
</g>
<g id="_x31_4_safe_x2C__protection_x2C__block_x2C__chain_x2C__cryptocurrency_x2C__program">
</g>
<g id="_x31_3_mining_x2C__funnel_x2C__satoshi_x2C__bitcoin_x2C__coin_x2C__cryptocurrency">
</g>
<g id="_x31_2_chart_x2C__bitcoin_x2C__coin_x2C__block_x2C__chain_x2C__cryptocurrency">
</g>
<g id="_x31_1_computer_x2C__monitor_x2C__bitcoin_x2C__coin_x2C__block_x2C__chain_x2C__cryptocurrency">
</g>
<g id="_x31_0_mining_x2C__pickaxe_x2C__stone_x2C__mine_x2C___bitcoin_x2C__coin_x2C__cryptocurrency">
</g>
<g id="_x39__miner_x2C__mining_x2C__computer_x2C__pickaxe_x2C__program_x2C__cryptocurrency">
</g>
<g id="_x38__video_card_x2C__mining_x2C__bitcoin_x2C__coin_x2C__block_x2C__chain_x2C__cryptocurrency">
</g>
<g id="_x37__exchanger_x2C__site_x2C__bitcoin_x2C__coin_x2C__block_x2C__chain_x2C__cryptocurrency">
</g>
<g id="_x36__shop_x2C__product_x2C__bitcoin_x2C__coin_x2C__block_x2C__chain_x2C__cryptocurrency">
</g>
<g id="_x35__bitcoin_x2C__coin_x2C__exchange_x2C__block_x2C__chain_x2C__cryptocurrency_x2C__product">
</g>
<g id="_x34__bitcoin_x2C__coin_x2C__exchange_x2C__block_x2C__chain_x2C__cryptocurrency">
</g>
<g id="_x33__bitcoin_x2C__coin_x2C__exchange_x2C__block_x2C__chain_x2C__cryptocurrency">
</g>
<g id="_x32__brain_x2C__smart_x2C__coin_x2C__block_x2C__chain_x2C__cryptocurrency">
</g>
<g id="_x31__bitcoin_x2C__coin_x2C__block_x2C__chain_x2C__cryptocurrency">
</g>
</svg>
