<?xml version="1.0" encoding="utf-8"?>
<!-- Generator: Adobe Illustrator 16.0.0, SVG Export Plug-In . SVG Version: 6.00 Build 0)  -->
<!DOCTYPE svg PUBLIC "-//W3C//DTD SVG 1.1//EN" "http://www.w3.org/Graphics/SVG/1.1/DTD/svg11.dtd">
<svg version="1.1" xmlns="http://www.w3.org/2000/svg" xmlns:xlink="http://www.w3.org/1999/xlink" x="0px" y="0px" width="64px"
	 height="64px" viewBox="0 0 64 64" enable-background="new 0 0 64 64" xml:space="preserve">
<g id="_x35_0_code_x2C__programming_x2C__program_x2C__bitcoin_x2C__block_x2C__chain_x2C__cryptocurrency">
	<g>
		<g>
			<rect x="1.005" y="8.01" fill="#AC92EC" width="62" height="51.98"/>
		</g>
		<g>
			<rect x="59.005" y="8.01" fill="#967ADC" width="4" height="51.98"/>
		</g>
		<g>
			<path fill="#CCD1D9" d="M62.995,6.01v2H1.005h-0.01v-2c0-1.11,0.89-2,2-2h58C62.095,4.01,62.995,4.899,62.995,6.01z"/>
		</g>
		<g>
			<path fill="#AAB2BD" d="M60.995,4.01h-4c1.1,0,2,0.89,2,2v2h4v-2C62.995,4.899,62.095,4.01,60.995,4.01z"/>
		</g>
		<g>
			<path fill="#EDAB37" d="M32.995,28.99c1.1,0,2,0.89,2,2c0,1.029-0.79,1.89-1.8,1.989h-0.021l-3.18,0.011v-4h2H32.995z"/>
		</g>
		<g>
			<path fill="#EDAB37" d="M33.175,32.979h0.021h0.29c1.39,0,2.51,1.12,2.51,2.511c0,1.38-1.12,2.5-2.51,2.5h-1.49h-2v-5
				L33.175,32.979z"/>
		</g>
		<g>
			<path fill="#FFCE54" d="M33.485,37.99c1.39,0,2.51-1.12,2.51-2.5c0-1.391-1.12-2.511-2.51-2.511h-0.29
				c1.01-0.1,1.8-0.96,1.8-1.989c0-1.11-0.9-2-2-2h-1h-2v4v5h2H33.485z M31.995,23.99c5.52,0,10,4.47,10,10c0,5.52-4.48,10-10,10
				c-5.53,0-10-4.48-10-10C21.995,28.46,26.465,23.99,31.995,23.99z"/>
		</g>
		<g>
			<g>
				<path fill="#F6BB42" d="M31.995,23.99c-0.686,0-1.354,0.069-2.001,0.2c4.563,0.926,8.001,4.955,8.001,9.8
					c0,4.835-3.438,8.872-8.001,9.799c0.646,0.132,1.315,0.201,2.001,0.201c5.52,0,10-4.48,10-10
					C41.995,28.46,37.515,23.99,31.995,23.99z"/>
			</g>
		</g>
	</g>
	<g>
		<g>
			<g>
				<path d="M31.991,44.988c-6.065,0-11-4.935-11-11s4.935-11,11-11s11,4.935,11,11S38.057,44.988,31.991,44.988z M31.991,24.988
					c-4.963,0-9,4.037-9,9s4.037,9,9,9s9-4.037,9-9S36.954,24.988,31.991,24.988z"/>
			</g>
			<g>
				<g>
					<path d="M29.991,38.988c-0.553,0-1-0.447-1-1v-9c0-0.553,0.447-1,1-1s1,0.447,1,1v9C30.991,38.541,30.544,38.988,29.991,38.988
						z"/>
				</g>
				<g>
					<path d="M32.991,33.987c-0.553,0-1-0.447-1-1s0.447-1,1-1c0.552,0,1-0.448,1-1c0-0.551-0.448-0.999-1-0.999
						c-0.553,0-1-0.447-1-1s0.447-1,1-1c1.654,0,3,1.346,3,2.999C35.991,32.642,34.646,33.987,32.991,33.987z"/>
				</g>
				<g>
					<path d="M33.49,38.988c-0.553,0-1-0.447-1-1s0.447-1,1-1c0.828,0,1.501-0.673,1.501-1.5c0-0.828-0.673-1.502-1.501-1.502
						c-0.553,0-1-0.447-1-1s0.447-1,1-1c1.931,0,3.501,1.571,3.501,3.502C36.991,37.418,35.421,38.988,33.49,38.988z"/>
				</g>
				<g>
					<path d="M32.991,29.988h-4c-0.553,0-1-0.447-1-1s0.447-1,1-1h4c0.553,0,1,0.447,1,1S33.544,29.988,32.991,29.988z"/>
				</g>
				<g>
					<path d="M33.49,38.988h-4.499c-0.553,0-1-0.447-1-1s0.447-1,1-1h4.499c0.553,0,1,0.447,1,1S34.043,38.988,33.49,38.988z"/>
				</g>
				<g>
					<path d="M29.991,33.988c-0.552,0-1-0.447-1-0.999c0-0.553,0.447-1.001,0.999-1.001l3.499-0.002c0.001,0,0.001,0,0.001,0
						c0.552,0,1,0.447,1,0.999c0,0.553-0.447,1.001-0.999,1.001L29.991,33.988C29.991,33.988,29.991,33.988,29.991,33.988z"/>
				</g>
				<g>
					<path d="M31.991,29.988c-0.553,0-1-0.447-1-1v-1.001c0-0.553,0.447-1,1-1s1,0.447,1,1v1.001
						C32.991,29.541,32.544,29.988,31.991,29.988z"/>
				</g>
				<g>
					<path d="M31.991,39.988c-0.553,0-1-0.447-1-1v-1c0-0.553,0.447-1,1-1s1,0.447,1,1v1C32.991,39.541,32.544,39.988,31.991,39.988
						z"/>
				</g>
			</g>
		</g>
		<g>
			<g>
				<path d="M7.991,18.988c-0.553,0-1-0.447-1-1v-4c0-0.553,0.447-1,1-1s1,0.447,1,1v4C8.991,18.541,8.544,18.988,7.991,18.988z"/>
			</g>
			<g>
				<path d="M13.991,18.988c-1.654,0-3-1.346-3-3s1.346-3,3-3s3,1.346,3,3S15.646,18.988,13.991,18.988z M13.991,14.988
					c-0.552,0-1,0.448-1,1s0.448,1,1,1s1-0.448,1-1S14.543,14.988,13.991,14.988z"/>
			</g>
			<g>
				<path d="M19.991,18.988c-0.553,0-1-0.447-1-1v-4c0-0.553,0.447-1,1-1s1,0.447,1,1v4C20.991,18.541,20.544,18.988,19.991,18.988z
					"/>
			</g>
			<g>
				<path d="M25.991,18.988c-1.654,0-3-1.346-3-3s1.346-3,3-3s3,1.346,3,3S27.646,18.988,25.991,18.988z M25.991,14.988
					c-0.552,0-1,0.448-1,1s0.448,1,1,1s1-0.448,1-1S26.543,14.988,25.991,14.988z"/>
			</g>
			<g>
				<path d="M31.991,18.988c-0.553,0-1-0.447-1-1v-4c0-0.553,0.447-1,1-1s1,0.447,1,1v4C32.991,18.541,32.544,18.988,31.991,18.988z
					"/>
			</g>
			<g>
				<path d="M37.991,18.988c-1.654,0-3-1.346-3-3s1.346-3,3-3s3,1.346,3,3S39.646,18.988,37.991,18.988z M37.991,14.988
					c-0.552,0-1,0.448-1,1s0.448,1,1,1s1-0.448,1-1S38.543,14.988,37.991,14.988z"/>
			</g>
			<g>
				<path d="M43.991,18.988c-0.553,0-1-0.447-1-1v-4c0-0.553,0.447-1,1-1s1,0.447,1,1v4C44.991,18.541,44.544,18.988,43.991,18.988z
					"/>
			</g>
			<g>
				<path d="M49.991,18.988c-1.654,0-3-1.346-3-3s1.346-3,3-3s3,1.346,3,3S51.646,18.988,49.991,18.988z M49.991,14.988
					c-0.552,0-1,0.448-1,1s0.448,1,1,1s1-0.448,1-1S50.543,14.988,49.991,14.988z"/>
			</g>
			<g>
				<path d="M55.991,18.988c-0.553,0-1-0.447-1-1v-4c0-0.553,0.447-1,1-1s1,0.447,1,1v4C56.991,18.541,56.544,18.988,55.991,18.988z
					"/>
			</g>
			<g>
				<path d="M7.991,36.988c-0.553,0-1-0.447-1-1v-4c0-0.553,0.447-1,1-1s1,0.447,1,1v4C8.991,36.541,8.544,36.988,7.991,36.988z"/>
			</g>
			<g>
				<path d="M13.991,36.988c-1.654,0-3-1.346-3-3s1.346-3,3-3s3,1.346,3,3S15.646,36.988,13.991,36.988z M13.991,32.988
					c-0.552,0-1,0.448-1,1s0.448,1,1,1s1-0.448,1-1S14.543,32.988,13.991,32.988z"/>
			</g>
			<g>
				<path d="M13.991,27.988c-0.553,0-1-0.447-1-1v-4c0-0.553,0.447-1,1-1s1,0.447,1,1v4C14.991,27.541,14.544,27.988,13.991,27.988z
					"/>
			</g>
			<g>
				<path d="M49.991,27.988c-0.553,0-1-0.447-1-1v-4c0-0.553,0.447-1,1-1s1,0.447,1,1v4C50.991,27.541,50.544,27.988,49.991,27.988z
					"/>
			</g>
			<g>
				<path d="M13.991,45.988c-0.553,0-1-0.447-1-1v-4c0-0.553,0.447-1,1-1s1,0.447,1,1v4C14.991,45.541,14.544,45.988,13.991,45.988z
					"/>
			</g>
			<g>
				<path d="M49.991,45.988c-0.553,0-1-0.447-1-1v-4c0-0.553,0.447-1,1-1s1,0.447,1,1v4C50.991,45.541,50.544,45.988,49.991,45.988z
					"/>
			</g>
			<g>
				<path d="M49.991,36.988c-1.654,0-3-1.346-3-3s1.346-3,3-3s3,1.346,3,3S51.646,36.988,49.991,36.988z M49.991,32.988
					c-0.552,0-1,0.448-1,1s0.448,1,1,1s1-0.448,1-1S50.543,32.988,49.991,32.988z"/>
			</g>
			<g>
				<path d="M55.991,27.988c-1.654,0-3-1.346-3-3s1.346-3,3-3s3,1.346,3,3S57.646,27.988,55.991,27.988z M55.991,23.988
					c-0.552,0-1,0.448-1,1s0.448,1,1,1s1-0.448,1-1S56.543,23.988,55.991,23.988z"/>
			</g>
			<g>
				<path d="M55.991,45.988c-1.654,0-3-1.346-3-3s1.346-3,3-3s3,1.346,3,3S57.646,45.988,55.991,45.988z M55.991,41.988
					c-0.552,0-1,0.448-1,1s0.448,1,1,1s1-0.448,1-1S56.543,41.988,55.991,41.988z"/>
			</g>
			<g>
				<path d="M7.991,45.988c-1.654,0-3-1.346-3-3s1.346-3,3-3s3,1.346,3,3S9.646,45.988,7.991,45.988z M7.991,41.988
					c-0.552,0-1,0.448-1,1s0.448,1,1,1s1-0.448,1-1S8.543,41.988,7.991,41.988z"/>
			</g>
			<g>
				<path d="M7.991,27.988c-1.654,0-3-1.346-3-3s1.346-3,3-3s3,1.346,3,3S9.646,27.988,7.991,27.988z M7.991,23.988
					c-0.552,0-1,0.448-1,1s0.448,1,1,1s1-0.448,1-1S8.543,23.988,7.991,23.988z"/>
			</g>
			<g>
				<path d="M55.991,36.988c-0.553,0-1-0.447-1-1v-4c0-0.553,0.447-1,1-1s1,0.447,1,1v4C56.991,36.541,56.544,36.988,55.991,36.988z
					"/>
			</g>
			<g>
				<path d="M7.991,54.988c-0.553,0-1-0.447-1-1v-4c0-0.553,0.447-1,1-1s1,0.447,1,1v4C8.991,54.541,8.544,54.988,7.991,54.988z"/>
			</g>
			<g>
				<path d="M13.991,54.988c-1.654,0-3-1.346-3-3s1.346-3,3-3s3,1.346,3,3S15.646,54.988,13.991,54.988z M13.991,50.988
					c-0.552,0-1,0.448-1,1s0.448,1,1,1s1-0.448,1-1S14.543,50.988,13.991,50.988z"/>
			</g>
			<g>
				<path d="M19.991,54.988c-0.553,0-1-0.447-1-1v-4c0-0.553,0.447-1,1-1s1,0.447,1,1v4C20.991,54.541,20.544,54.988,19.991,54.988z
					"/>
			</g>
			<g>
				<path d="M25.991,54.988c-1.654,0-3-1.346-3-3s1.346-3,3-3s3,1.346,3,3S27.646,54.988,25.991,54.988z M25.991,50.988
					c-0.552,0-1,0.448-1,1s0.448,1,1,1s1-0.448,1-1S26.543,50.988,25.991,50.988z"/>
			</g>
			<g>
				<path d="M31.991,54.988c-0.553,0-1-0.447-1-1v-4c0-0.553,0.447-1,1-1s1,0.447,1,1v4C32.991,54.541,32.544,54.988,31.991,54.988z
					"/>
			</g>
			<g>
				<path d="M37.991,54.988c-1.654,0-3-1.346-3-3s1.346-3,3-3s3,1.346,3,3S39.646,54.988,37.991,54.988z M37.991,50.988
					c-0.552,0-1,0.448-1,1s0.448,1,1,1s1-0.448,1-1S38.543,50.988,37.991,50.988z"/>
			</g>
			<g>
				<path d="M43.991,54.988c-0.553,0-1-0.447-1-1v-4c0-0.553,0.447-1,1-1s1,0.447,1,1v4C44.991,54.541,44.544,54.988,43.991,54.988z
					"/>
			</g>
			<g>
				<path d="M49.991,54.988c-1.654,0-3-1.346-3-3s1.346-3,3-3s3,1.346,3,3S51.646,54.988,49.991,54.988z M49.991,50.988
					c-0.552,0-1,0.448-1,1s0.448,1,1,1s1-0.448,1-1S50.543,50.988,49.991,50.988z"/>
			</g>
			<g>
				<path d="M55.991,54.988c-0.553,0-1-0.447-1-1v-4c0-0.553,0.447-1,1-1s1,0.447,1,1v4C56.991,54.541,56.544,54.988,55.991,54.988z
					"/>
			</g>
		</g>
		<g>
			<g>
				<path d="M4.021,7.012c-0.553,0-1.005-0.447-1.005-1s0.442-1,0.994-1h0.011c0.552,0,1,0.447,1,1S4.573,7.012,4.021,7.012z"/>
			</g>
			<g>
				<path d="M7.021,7.012c-0.553,0-1.005-0.447-1.005-1s0.442-1,0.994-1h0.011c0.552,0,1,0.447,1,1S7.573,7.012,7.021,7.012z"/>
			</g>
			<g>
				<path d="M10.021,7.012c-0.553,0-1.005-0.447-1.005-1s0.442-1,0.994-1h0.011c0.552,0,1,0.447,1,1S10.573,7.012,10.021,7.012z"/>
			</g>
			<g>
				<path d="M63.009,60.988h-62c-0.553,0-1-0.447-1-1V8.012c0-0.553,0.447-1,1-1h62c0.553,0,1,0.447,1,1v51.977
					C64.009,60.541,63.562,60.988,63.009,60.988z M2.009,58.988h60V9.012h-60V58.988z"/>
			</g>
			<g>
				<path d="M0.991,7.012c-0.553,0-1-0.447-1-1c0-1.654,1.346-3,3-3c0.553,0,1,0.447,1,1s-0.447,1-1,1c-0.552,0-1,0.448-1,1
					C1.991,6.564,1.544,7.012,0.991,7.012z"/>
			</g>
			<g>
				<path d="M0.991,9.012c-0.553,0-1-0.447-1-1v-2c0-0.553,0.447-1,1-1s1,0.447,1,1v2C1.991,8.564,1.544,9.012,0.991,9.012z"/>
			</g>
			<g>
				<path d="M62.991,7.012c-0.553,0-1-0.447-1-1c0-0.552-0.448-1-1-1c-0.553,0-1-0.447-1-1s0.447-1,1-1c1.654,0,3,1.346,3,3
					C63.991,6.564,63.544,7.012,62.991,7.012z"/>
			</g>
			<g>
				<path d="M62.991,9.012c-0.553,0-1-0.447-1-1v-2c0-0.553,0.447-1,1-1s1,0.447,1,1v2C63.991,8.564,63.544,9.012,62.991,9.012z"/>
			</g>
			<g>
				<path d="M60.991,5.012h-58c-0.553,0-1-0.447-1-1s0.447-1,1-1h58c0.553,0,1,0.447,1,1S61.544,5.012,60.991,5.012z"/>
			</g>
		</g>
	</g>
</g>
<g id="_x34_9_balloon_x2C__takeoff_x2C__bitcoin_x2C__coin_x2C__block_x2C__chain_x2C__cryptocurrency">
</g>
<g id="_x34_8_video_card_x2C__mining_x2C__farm_x2C__computer_x2C__block_x2C__chain_x2C__cryptocurrency">
</g>
<g id="_x34_7_money_box_x2C__saving_x2C__bitcoin_x2C__coin_x2C__block_x2C__chain_x2C__cryptocurrency">
</g>
<g id="_x34_6_portfolio_x2C__finance_x2C__bank_note_x2C__bitcoin_x2C__coin_x2C__cryptocurrency">
</g>
<g id="_x34_5_tap_x2C__water_x2C__bitcoin_x2C__coin_x2C__block_x2C__chain_x2C__cryptocurrency">
</g>
<g id="_x34_4_phone_x2C__bitcoin_x2C__coin_x2C__block_x2C__chain_x2C__cryptocurrency">
</g>
<g id="_x34_3_rocket_x2C__sun_x2C__bitcoin_x2C__coin_x2C__block_x2C__chain_x2C__cryptocurrency">
</g>
<g id="_x34_2_transfer_x2C__network_x2C__bitcoin_x2C__coin_x2C__block_x2C__chain_x2C__cryptocurrency">
</g>
<g id="_x34_1_scales_x2C__comparison_x2C__bitcoin_x2C__coin_x2C__block_x2C__chain_x2C__cryptocurrency">
</g>
<g id="_x34_0_calculator_x2C__calculating_x2C__bitcoin_x2C__coin_x2C__block_x2C__chain_x2C__cryptocurrency">
</g>
<g id="_x33_9_start-up_x2C__plant_x2C__hand_x2C__bitcoin_x2C__coin_x2C__cryptocurrency">
</g>
<g id="_x33_8_idea_x2C__bulb_x2C__bitcoin_x2C__coin_x2C__block_x2C__chain_x2C__cryptocurrency">
</g>
<g id="_x33_7_users_x2C__user_x2C__co-founder_x2C__bitcoin_x2C__coin_x2C__cryptocurrency">
</g>
<g id="_x33_6_safe_x2C__protection_x2C__bitcoin_x2C__coin_x2C__block_x2C__chain_x2C__cryptocurrency">
</g>
<g id="_x33_5_flash_drive_x2C__key_x2C__block_x2C__chain_x2C__cryptocurrency">
</g>
<g id="_x33_4_cloud_x2C__mining_x2C__bitcoin_x2C__coin_x2C__block_x2C__chain_x2C__cryptocurrency">
</g>
<g id="_x33_3_start_up_x2C__plant_x2C__bitcoin_x2C__coin_x2C__block_x2C__chain_x2C__cryptocurrency">
</g>
<g id="_x33_2_planet_x2C__bitcoin_x2C__coin_x2C__block_x2C__chain_x2C__cryptocurrency">
</g>
<g id="_x33_1_payment_x2C__hand_x2C__bitcoin_x2C__coin_x2C__block_x2C__chain_x2C__cryptocurrency">
</g>
<g id="_x33_0_user_x2C__laptop_x2C__bitcoin_x2C__coin_x2C__block_x2C__chain_x2C__cryptocurrency">
</g>
<g id="_x32_9_thief_x2C__bag_x2C__bitcoin_x2C__coin_x2C__block_x2C__chain_x2C__cryptocurrency">
</g>
<g id="_x32_8_code_x2C__programming_x2C__program_x2C__bitcoin_x2C__coin_x2C__cryptocurrency">
</g>
<g id="_x32_7_bitcoin_x2C__coin_x2C__block_x2C__chain_x2C__cryptocurrency">
</g>
<g id="_x32_6_shield_x2C__protection_x2C__bitcoin_x2C__coin_x2C__block_x2C__chain_x2C__cryptocurrency">
</g>
<g id="_x32_5_bug_x2C__laptop_x2C__miner_x2C__program_x2C__block_x2C__chain_x2C__cryptocurrency">
</g>
<g id="_x32_4_computer_x2C__monitor_x2C__bitcoin_x2C__coin_x2C__block_x2C__chain_x2C__cryptocurrency">
</g>
<g id="_x32_3_network_x2C__idea_x2C__bitcoin_x2C__coin_x2C__block_x2C__chain_x2C__cryptocurrency">
</g>
<g id="_x32_2_block_x2C__chain_x2C__cryptocurrency_x2C__technology_x2C__future">
</g>
<g id="_x32_1_smart_contact_x2C__contact_x2C__block_x2C__chain_x2C__cryptocurrency">
</g>
<g id="_x32_0_lock_x2C__safe_x2C__protection_x2C__block_x2C__chain_x2C__cryptocurrency_x2C__program">
</g>
<g id="_x31_9_server_x2C__data_x2C__bitcoin_x2C__coin_x2C__block_x2C__chain_x2C__cryptocurrency">
</g>
<g id="_x31_8_key_x2C__bitcoin_x2C__coin_x2C__block_x2C__chain_x2C__cryptocurrency">
</g>
<g id="_x31_7_pool_x2C__network_x2C__bitcoin_x2C__coin_x2C__block_x2C__chain_x2C__cryptocurrency">
</g>
<g id="_x31_6_mining_x2C__shovel_x2C__mine_x2C__coin_x2C__block_x2C__chain_x2C__cryptocurrency">
</g>
<g id="_x31_5_purse_x2C__bitcoin_x2C__coin_x2C__block_x2C__chain_x2C__cryptocurrency">
</g>
<g id="_x31_4_safe_x2C__protection_x2C__block_x2C__chain_x2C__cryptocurrency_x2C__program">
</g>
<g id="_x31_3_mining_x2C__funnel_x2C__satoshi_x2C__bitcoin_x2C__coin_x2C__cryptocurrency">
</g>
<g id="_x31_2_chart_x2C__bitcoin_x2C__coin_x2C__block_x2C__chain_x2C__cryptocurrency">
</g>
<g id="_x31_1_computer_x2C__monitor_x2C__bitcoin_x2C__coin_x2C__block_x2C__chain_x2C__cryptocurrency">
</g>
<g id="_x31_0_mining_x2C__pickaxe_x2C__stone_x2C__mine_x2C___bitcoin_x2C__coin_x2C__cryptocurrency">
</g>
<g id="_x39__miner_x2C__mining_x2C__computer_x2C__pickaxe_x2C__program_x2C__cryptocurrency">
</g>
<g id="_x38__video_card_x2C__mining_x2C__bitcoin_x2C__coin_x2C__block_x2C__chain_x2C__cryptocurrency">
</g>
<g id="_x37__exchanger_x2C__site_x2C__bitcoin_x2C__coin_x2C__block_x2C__chain_x2C__cryptocurrency">
</g>
<g id="_x36__shop_x2C__product_x2C__bitcoin_x2C__coin_x2C__block_x2C__chain_x2C__cryptocurrency">
</g>
<g id="_x35__bitcoin_x2C__coin_x2C__exchange_x2C__block_x2C__chain_x2C__cryptocurrency_x2C__product">
</g>
<g id="_x34__bitcoin_x2C__coin_x2C__exchange_x2C__block_x2C__chain_x2C__cryptocurrency">
</g>
<g id="_x33__bitcoin_x2C__coin_x2C__exchange_x2C__block_x2C__chain_x2C__cryptocurrency">
</g>
<g id="_x32__brain_x2C__smart_x2C__coin_x2C__block_x2C__chain_x2C__cryptocurrency">
</g>
<g id="_x31__bitcoin_x2C__coin_x2C__block_x2C__chain_x2C__cryptocurrency">
</g>
</svg>
