<?xml version="1.0" encoding="utf-8"?>
<!-- Generator: Adobe Illustrator 16.0.0, SVG Export Plug-In . SVG Version: 6.00 Build 0)  -->
<!DOCTYPE svg PUBLIC "-//W3C//DTD SVG 1.1//EN" "http://www.w3.org/Graphics/SVG/1.1/DTD/svg11.dtd">
<svg version="1.1" xmlns="http://www.w3.org/2000/svg" xmlns:xlink="http://www.w3.org/1999/xlink" x="0px" y="0px" width="64px"
	 height="64px" viewBox="0 0 64 64" enable-background="new 0 0 64 64" xml:space="preserve">
<g id="_x35_0_code_x2C__programming_x2C__program_x2C__bitcoin_x2C__block_x2C__chain_x2C__cryptocurrency">
</g>
<g id="_x34_9_balloon_x2C__takeoff_x2C__bitcoin_x2C__coin_x2C__block_x2C__chain_x2C__cryptocurrency">
	<g>
		<g>
			<path fill="#EDAB37" d="M33.544,23c1.101,0,2,0.9,2,2c0,1.11-0.899,2-2,2h-4v-4h2H33.544z"/>
		</g>
		<g>
			<path fill="#EDAB37" d="M33.544,27c1.65,0,3,1.34,3,3s-1.35,3-3,3h-2h-2v-6H33.544z"/>
		</g>
		<g>
			<path fill="#FFCE54" d="M33.544,33c1.65,0,3-1.34,3-3s-1.35-3-3-3c1.101,0,2-0.89,2-2c0-1.1-0.899-2-2-2h-2h-2v4v6h2H33.544z
				 M32.544,16c6.63,0,12,5.37,12,12s-5.37,12-12,12s-12-5.37-12-12S25.914,16,32.544,16z"/>
		</g>
		<g>
			<g>
				<path fill="#F6BB42" d="M32.544,16c-0.683,0-1.348,0.07-2,0.18c5.675,0.953,10,5.873,10,11.82s-4.325,10.867-10,11.82
					c0.652,0.109,1.317,0.18,2,0.18c6.63,0,12-5.37,12-12S39.174,16,32.544,16z"/>
			</g>
		</g>
		<g>
			<path fill="#FFCE54" d="M37.544,57v4c0,1.11-0.899,2-2,2h-0.05h-5.95c-0.02,0-0.03,0-0.05,0c-1.09-0.03-1.95-0.91-1.95-2v-4h1h4
				h4H37.544z"/>
		</g>
		<g>
			<path fill="#F6BB42" d="M36.544,57h-3v4c0,1.11-0.899,2-2,2h3.95h0.05c1.101,0,2-0.89,2-2v-4H36.544z"/>
		</g>
		<g>
			<path fill="#ED5565" d="M32.544,9c10.49,0,19,8.51,19,19c0,13-15,24-15,24h-8c0,0-15-11-15-24C13.544,17.51,22.044,9,32.544,9z
				 M44.544,28c0-6.63-5.37-12-12-12s-12,5.37-12,12s5.37,12,12,12S44.544,34.63,44.544,28z"/>
		</g>
		<g>
			<g>
				<path fill="#DA4453" d="M32.544,9c-0.676,0-1.343,0.038-2.001,0.106c9.551,1,17.001,9.079,17.001,18.894c0,13-15,24-15,24h4
					c0,0,15-11,15-24C51.544,17.51,43.034,9,32.544,9z"/>
			</g>
		</g>
		<g>
			<path fill="#F5F7FA" d="M12.994,51h-5.5c-1.66,0-3-1.34-3-3c0-1.65,1.34-3,3-3s3,1.35,3,3h2.5c0.83,0,1.5,0.67,1.5,1.5
				S13.824,51,12.994,51z"/>
		</g>
		<g>
			<path fill="#F5F7FA" d="M59.504,55c1.11,0,2,0.9,2,2c0,1.11-0.89,2-2,2h-7.99c-2.199,0-4-1.79-4-4s1.801-4,4-4c2.21,0,4,1.79,4,4
				H59.504z"/>
		</g>
		<g>
			<path fill="#F5F7FA" d="M60.994,12h-6.5c-1.66,0-3-1.34-3-3c0-1.65,1.34-3,3-3s3,1.35,3,3h3.5c0.83,0,1.5,0.67,1.5,1.5
				S61.824,12,60.994,12z"/>
		</g>
		<g>
			<path fill="#FFCE54" d="M8.494,5c1.66,0,3,1.35,3,3c0,1.66-1.34,3-3,3s-3-1.34-3-3C5.494,6.35,6.834,5,8.494,5z"/>
		</g>
	</g>
	<g>
		<g>
			<g>
				<path d="M60.994,13c-0.553,0-1-0.447-1-1s0.447-1,1-1c0.275,0,0.5-0.225,0.5-0.5s-0.225-0.5-0.5-0.5c-0.553,0-1-0.447-1-1
					s0.447-1,1-1c1.379,0,2.5,1.121,2.5,2.5S62.373,13,60.994,13z"/>
			</g>
			<g>
				<path d="M54.494,13c-2.206,0-4-1.794-4-4s1.794-4,4-4s4,1.794,4,4c0,0.553-0.447,1-1,1s-1-0.447-1-1c0-1.103-0.897-2-2-2
					s-2,0.897-2,2s0.897,2,2,2c0.553,0,1,0.447,1,1S55.047,13,54.494,13z"/>
			</g>
			<g>
				<path d="M60.994,13h-6.5c-0.553,0-1-0.447-1-1s0.447-1,1-1h6.5c0.553,0,1,0.447,1,1S61.547,13,60.994,13z"/>
			</g>
			<g>
				<path d="M60.994,10h-3.5c-0.553,0-1-0.447-1-1s0.447-1,1-1h3.5c0.553,0,1,0.447,1,1S61.547,10,60.994,10z"/>
			</g>
		</g>
		<g>
			<g>
				<path d="M12.994,52c-0.553,0-1-0.447-1-1s0.447-1,1-1c0.275,0,0.5-0.225,0.5-0.5s-0.225-0.5-0.5-0.5c-0.553,0-1-0.447-1-1
					s0.447-1,1-1c1.379,0,2.5,1.121,2.5,2.5S14.373,52,12.994,52z"/>
			</g>
			<g>
				<path d="M7.494,52c-2.206,0-4-1.794-4-4s1.794-4,4-4s4,1.794,4,4c0,0.553-0.447,1-1,1s-1-0.447-1-1c0-1.103-0.897-2-2-2
					s-2,0.897-2,2s0.897,2,2,2c0.553,0,1,0.447,1,1S8.047,52,7.494,52z"/>
			</g>
			<g>
				<path d="M12.994,52h-5.5c-0.553,0-1-0.447-1-1s0.447-1,1-1h5.5c0.553,0,1,0.447,1,1S13.547,52,12.994,52z"/>
			</g>
			<g>
				<path d="M12.994,49h-2.5c-0.553,0-1-0.447-1-1s0.447-1,1-1h2.5c0.553,0,1,0.447,1,1S13.547,49,12.994,49z"/>
			</g>
		</g>
		<g>
			<path d="M35.494,64h-6c-0.553,0-1-0.447-1-1s0.447-1,1-1h6c0.553,0,1,0.447,1,1S36.047,64,35.494,64z"/>
		</g>
		<g>
			<g>
				<path d="M28.54,53c-0.205,0-0.412-0.063-0.591-0.193C27.32,52.345,12.541,41.354,12.541,28c0-11.028,8.972-20,20-20
					s20,8.972,20,20c0,13.354-14.779,24.345-15.408,24.807c-0.447,0.326-1.072,0.229-1.397-0.215
					c-0.327-0.445-0.231-1.071,0.214-1.398C36.096,51.087,50.541,40.335,50.541,28c0-9.925-8.075-18-18-18s-18,8.075-18,18
					c0,12.351,14.445,23.087,14.592,23.193c0.445,0.327,0.541,0.953,0.215,1.398C29.151,52.858,28.848,53,28.54,53z"/>
			</g>
			<g>
				<path d="M36.541,53h-8c-0.553,0-1-0.447-1-1s0.447-1,1-1h8c0.553,0,1,0.447,1,1S37.094,53,36.541,53z"/>
			</g>
			<g>
				<path d="M28.541,58c-0.553,0-1-0.447-1-1v-5c0-0.553,0.447-1,1-1s1,0.447,1,1v5C29.541,57.553,29.094,58,28.541,58z"/>
			</g>
			<g>
				<path d="M36.541,58c-0.553,0-1-0.447-1-1v-5c0-0.553,0.447-1,1-1s1,0.447,1,1v5C37.541,57.553,37.094,58,36.541,58z"/>
			</g>
			<g>
				<path d="M37.541,58h-10c-0.553,0-1-0.447-1-1s0.447-1,1-1h10c0.553,0,1,0.447,1,1S38.094,58,37.541,58z"/>
			</g>
			<g>
				<path d="M37.541,62c-0.553,0-1-0.447-1-1v-4c0-0.553,0.447-1,1-1s1,0.447,1,1v4C38.541,61.553,38.094,62,37.541,62z"/>
			</g>
			<g>
				<path d="M35.541,64c-0.553,0-1-0.447-1-1s0.447-1,1-1c0.552,0,1-0.448,1-1c0-0.553,0.447-1,1-1s1,0.447,1,1
					C38.541,62.654,37.195,64,35.541,64z"/>
			</g>
			<g>
				<path d="M27.541,62c-0.553,0-1-0.447-1-1v-4c0-0.553,0.447-1,1-1s1,0.447,1,1v4C28.541,61.553,28.094,62,27.541,62z"/>
			</g>
			<g>
				<path d="M29.541,64c-1.654,0-3-1.346-3-3c0-0.553,0.447-1,1-1s1,0.447,1,1c0,0.552,0.448,1,1,1c0.553,0,1,0.447,1,1
					S30.094,64,29.541,64z"/>
			</g>
			<g>
				<path d="M32.541,58c-0.553,0-1-0.447-1-1v-2c0-0.553,0.447-1,1-1s1,0.447,1,1v2C33.541,57.553,33.094,58,32.541,58z"/>
			</g>
			<g>
				<g>
					<path d="M32.541,41c-7.168,0-13-5.832-13-13s5.832-13,13-13s13,5.832,13,13S39.709,41,32.541,41z M32.541,17
						c-6.065,0-11,4.935-11,11s4.935,11,11,11s11-4.935,11-11S38.606,17,32.541,17z"/>
				</g>
				<g>
					<g>
						<path d="M29.541,34c-0.553,0-1-0.447-1-1V23c0-0.553,0.447-1,1-1s1,0.447,1,1v10C30.541,33.553,30.094,34,29.541,34z"/>
					</g>
					<g>
						<path d="M33.542,27.998c-0.553,0-1-0.447-1-1s0.447-1,1-1c0.551,0,0.999-0.448,0.999-0.999S34.093,24,33.542,24
							c-0.553,0-1-0.447-1-1s0.447-1,1-1c1.653,0,2.999,1.346,2.999,2.999S35.195,27.998,33.542,27.998z"/>
					</g>
					<g>
						<path d="M33.54,34c-0.553,0-1-0.447-1-1s0.447-1,1-1c1.104,0,2.001-0.897,2.001-2c0-1.104-0.897-2.002-2.001-2.002
							c-0.553,0-1-0.447-1-1s0.447-1,1-1c2.206,0,4.001,1.795,4.001,4.002C37.541,32.206,35.746,34,33.54,34z"/>
					</g>
					<g>
						<path d="M33.542,24h-5.001c-0.553,0-1-0.447-1-1s0.447-1,1-1h5.001c0.553,0,1,0.447,1,1S34.095,24,33.542,24z"/>
					</g>
					<g>
						<path d="M33.54,34h-4.999c-0.553,0-1-0.447-1-1s0.447-1,1-1h4.999c0.553,0,1,0.447,1,1S34.093,34,33.54,34z"/>
					</g>
					<g>
						<path d="M33.542,27.998h-4.001c-0.553,0-1-0.447-1-1s0.447-1,1-1h4.001c0.553,0,1,0.447,1,1S34.095,27.998,33.542,27.998z"/>
					</g>
					<g>
						<path d="M31.541,24c-0.553,0-1-0.447-1-1v-1c0-0.553,0.447-1,1-1s1,0.447,1,1v1C32.541,23.553,32.094,24,31.541,24z"/>
					</g>
					<g>
						<path d="M31.541,35c-0.553,0-1-0.447-1-1v-1c0-0.553,0.447-1,1-1s1,0.447,1,1v1C32.541,34.553,32.094,35,31.541,35z"/>
					</g>
				</g>
			</g>
		</g>
		<g>
			<path d="M8.494,12c-2.206,0-4-1.794-4-4s1.794-4,4-4s4,1.794,4,4S10.7,12,8.494,12z M8.494,6c-1.103,0-2,0.897-2,2s0.897,2,2,2
				s2-0.897,2-2S9.597,6,8.494,6z"/>
		</g>
		<g>
			<path d="M8.494,3c-0.553,0-1-0.447-1-1V1c0-0.553,0.447-1,1-1s1,0.447,1,1v1C9.494,2.553,9.047,3,8.494,3z"/>
		</g>
		<g>
			<path d="M8.494,16c-0.553,0-1-0.447-1-1v-1c0-0.553,0.447-1,1-1s1,0.447,1,1v1C9.494,15.553,9.047,16,8.494,16z"/>
		</g>
		<g>
			<path d="M4.252,4.758c-0.256,0-0.512-0.098-0.707-0.293L2.838,3.758c-0.391-0.391-0.391-1.023,0-1.414s1.023-0.391,1.414,0
				l0.707,0.707c0.391,0.391,0.391,1.023,0,1.414C4.764,4.66,4.508,4.758,4.252,4.758z"/>
		</g>
		<g>
			<path d="M13.443,13.949c-0.256,0-0.512-0.098-0.707-0.293l-0.707-0.707c-0.391-0.391-0.391-1.023,0-1.414s1.023-0.391,1.414,0
				l0.707,0.707c0.391,0.391,0.391,1.023,0,1.414C13.955,13.852,13.699,13.949,13.443,13.949z"/>
		</g>
		<g>
			<path d="M2.494,9h-1c-0.553,0-1-0.447-1-1s0.447-1,1-1h1c0.553,0,1,0.447,1,1S3.047,9,2.494,9z"/>
		</g>
		<g>
			<path d="M15.494,9h-1c-0.553,0-1-0.447-1-1s0.447-1,1-1h1c0.553,0,1,0.447,1,1S16.047,9,15.494,9z"/>
		</g>
		<g>
			<path d="M3.544,13.95c-0.256,0-0.512-0.098-0.707-0.293c-0.391-0.391-0.391-1.023,0-1.414l0.708-0.708
				c0.391-0.391,1.023-0.391,1.414,0s0.391,1.023,0,1.414l-0.708,0.708C4.056,13.853,3.8,13.95,3.544,13.95z"/>
		</g>
		<g>
			<path d="M12.736,4.758c-0.256,0-0.512-0.098-0.707-0.293c-0.391-0.391-0.391-1.023,0-1.414l0.707-0.707
				c0.391-0.391,1.023-0.391,1.414,0s0.391,1.023,0,1.414l-0.707,0.707C13.248,4.66,12.992,4.758,12.736,4.758z"/>
		</g>
		<g>
			<path d="M59.506,60h-7.988c-2.757,0-5-2.243-5-5s2.243-5,5-5c2.415,0,4.435,1.721,4.899,4h3.089c1.654,0,3,1.346,3,3
				S61.16,60,59.506,60z M51.518,52c-1.654,0-3,1.346-3,3s1.346,3,3,3h7.988c0.552,0,1-0.448,1-1s-0.448-1-1-1h-3.988
				c-0.553,0-1-0.447-1-1C54.518,53.346,53.172,52,51.518,52z"/>
		</g>
	</g>
</g>
<g id="_x34_8_video_card_x2C__mining_x2C__farm_x2C__computer_x2C__block_x2C__chain_x2C__cryptocurrency">
</g>
<g id="_x34_7_money_box_x2C__saving_x2C__bitcoin_x2C__coin_x2C__block_x2C__chain_x2C__cryptocurrency">
</g>
<g id="_x34_6_portfolio_x2C__finance_x2C__bank_note_x2C__bitcoin_x2C__coin_x2C__cryptocurrency">
</g>
<g id="_x34_5_tap_x2C__water_x2C__bitcoin_x2C__coin_x2C__block_x2C__chain_x2C__cryptocurrency">
</g>
<g id="_x34_4_phone_x2C__bitcoin_x2C__coin_x2C__block_x2C__chain_x2C__cryptocurrency">
</g>
<g id="_x34_3_rocket_x2C__sun_x2C__bitcoin_x2C__coin_x2C__block_x2C__chain_x2C__cryptocurrency">
</g>
<g id="_x34_2_transfer_x2C__network_x2C__bitcoin_x2C__coin_x2C__block_x2C__chain_x2C__cryptocurrency">
</g>
<g id="_x34_1_scales_x2C__comparison_x2C__bitcoin_x2C__coin_x2C__block_x2C__chain_x2C__cryptocurrency">
</g>
<g id="_x34_0_calculator_x2C__calculating_x2C__bitcoin_x2C__coin_x2C__block_x2C__chain_x2C__cryptocurrency">
</g>
<g id="_x33_9_start-up_x2C__plant_x2C__hand_x2C__bitcoin_x2C__coin_x2C__cryptocurrency">
</g>
<g id="_x33_8_idea_x2C__bulb_x2C__bitcoin_x2C__coin_x2C__block_x2C__chain_x2C__cryptocurrency">
</g>
<g id="_x33_7_users_x2C__user_x2C__co-founder_x2C__bitcoin_x2C__coin_x2C__cryptocurrency">
</g>
<g id="_x33_6_safe_x2C__protection_x2C__bitcoin_x2C__coin_x2C__block_x2C__chain_x2C__cryptocurrency">
</g>
<g id="_x33_5_flash_drive_x2C__key_x2C__block_x2C__chain_x2C__cryptocurrency">
</g>
<g id="_x33_4_cloud_x2C__mining_x2C__bitcoin_x2C__coin_x2C__block_x2C__chain_x2C__cryptocurrency">
</g>
<g id="_x33_3_start_up_x2C__plant_x2C__bitcoin_x2C__coin_x2C__block_x2C__chain_x2C__cryptocurrency">
</g>
<g id="_x33_2_planet_x2C__bitcoin_x2C__coin_x2C__block_x2C__chain_x2C__cryptocurrency">
</g>
<g id="_x33_1_payment_x2C__hand_x2C__bitcoin_x2C__coin_x2C__block_x2C__chain_x2C__cryptocurrency">
</g>
<g id="_x33_0_user_x2C__laptop_x2C__bitcoin_x2C__coin_x2C__block_x2C__chain_x2C__cryptocurrency">
</g>
<g id="_x32_9_thief_x2C__bag_x2C__bitcoin_x2C__coin_x2C__block_x2C__chain_x2C__cryptocurrency">
</g>
<g id="_x32_8_code_x2C__programming_x2C__program_x2C__bitcoin_x2C__coin_x2C__cryptocurrency">
</g>
<g id="_x32_7_bitcoin_x2C__coin_x2C__block_x2C__chain_x2C__cryptocurrency">
</g>
<g id="_x32_6_shield_x2C__protection_x2C__bitcoin_x2C__coin_x2C__block_x2C__chain_x2C__cryptocurrency">
</g>
<g id="_x32_5_bug_x2C__laptop_x2C__miner_x2C__program_x2C__block_x2C__chain_x2C__cryptocurrency">
</g>
<g id="_x32_4_computer_x2C__monitor_x2C__bitcoin_x2C__coin_x2C__block_x2C__chain_x2C__cryptocurrency">
</g>
<g id="_x32_3_network_x2C__idea_x2C__bitcoin_x2C__coin_x2C__block_x2C__chain_x2C__cryptocurrency">
</g>
<g id="_x32_2_block_x2C__chain_x2C__cryptocurrency_x2C__technology_x2C__future">
</g>
<g id="_x32_1_smart_contact_x2C__contact_x2C__block_x2C__chain_x2C__cryptocurrency">
</g>
<g id="_x32_0_lock_x2C__safe_x2C__protection_x2C__block_x2C__chain_x2C__cryptocurrency_x2C__program">
</g>
<g id="_x31_9_server_x2C__data_x2C__bitcoin_x2C__coin_x2C__block_x2C__chain_x2C__cryptocurrency">
</g>
<g id="_x31_8_key_x2C__bitcoin_x2C__coin_x2C__block_x2C__chain_x2C__cryptocurrency">
</g>
<g id="_x31_7_pool_x2C__network_x2C__bitcoin_x2C__coin_x2C__block_x2C__chain_x2C__cryptocurrency">
</g>
<g id="_x31_6_mining_x2C__shovel_x2C__mine_x2C__coin_x2C__block_x2C__chain_x2C__cryptocurrency">
</g>
<g id="_x31_5_purse_x2C__bitcoin_x2C__coin_x2C__block_x2C__chain_x2C__cryptocurrency">
</g>
<g id="_x31_4_safe_x2C__protection_x2C__block_x2C__chain_x2C__cryptocurrency_x2C__program">
</g>
<g id="_x31_3_mining_x2C__funnel_x2C__satoshi_x2C__bitcoin_x2C__coin_x2C__cryptocurrency">
</g>
<g id="_x31_2_chart_x2C__bitcoin_x2C__coin_x2C__block_x2C__chain_x2C__cryptocurrency">
</g>
<g id="_x31_1_computer_x2C__monitor_x2C__bitcoin_x2C__coin_x2C__block_x2C__chain_x2C__cryptocurrency">
</g>
<g id="_x31_0_mining_x2C__pickaxe_x2C__stone_x2C__mine_x2C___bitcoin_x2C__coin_x2C__cryptocurrency">
</g>
<g id="_x39__miner_x2C__mining_x2C__computer_x2C__pickaxe_x2C__program_x2C__cryptocurrency">
</g>
<g id="_x38__video_card_x2C__mining_x2C__bitcoin_x2C__coin_x2C__block_x2C__chain_x2C__cryptocurrency">
</g>
<g id="_x37__exchanger_x2C__site_x2C__bitcoin_x2C__coin_x2C__block_x2C__chain_x2C__cryptocurrency">
</g>
<g id="_x36__shop_x2C__product_x2C__bitcoin_x2C__coin_x2C__block_x2C__chain_x2C__cryptocurrency">
</g>
<g id="_x35__bitcoin_x2C__coin_x2C__exchange_x2C__block_x2C__chain_x2C__cryptocurrency_x2C__product">
</g>
<g id="_x34__bitcoin_x2C__coin_x2C__exchange_x2C__block_x2C__chain_x2C__cryptocurrency">
</g>
<g id="_x33__bitcoin_x2C__coin_x2C__exchange_x2C__block_x2C__chain_x2C__cryptocurrency">
</g>
<g id="_x32__brain_x2C__smart_x2C__coin_x2C__block_x2C__chain_x2C__cryptocurrency">
</g>
<g id="_x31__bitcoin_x2C__coin_x2C__block_x2C__chain_x2C__cryptocurrency">
</g>
</svg>
