<?xml version="1.0" encoding="utf-8"?>
<!-- Generator: Adobe Illustrator 16.0.0, SVG Export Plug-In . SVG Version: 6.00 Build 0)  -->
<!DOCTYPE svg PUBLIC "-//W3C//DTD SVG 1.1//EN" "http://www.w3.org/Graphics/SVG/1.1/DTD/svg11.dtd">
<svg version="1.1" xmlns="http://www.w3.org/2000/svg" xmlns:xlink="http://www.w3.org/1999/xlink" x="0px" y="0px" width="64px"
	 height="64px" viewBox="0 0 64 64" enable-background="new 0 0 64 64" xml:space="preserve">
<g id="_x35_0_code_x2C__programming_x2C__program_x2C__bitcoin_x2C__block_x2C__chain_x2C__cryptocurrency">
</g>
<g id="_x34_9_balloon_x2C__takeoff_x2C__bitcoin_x2C__coin_x2C__block_x2C__chain_x2C__cryptocurrency">
</g>
<g id="_x34_8_video_card_x2C__mining_x2C__farm_x2C__computer_x2C__block_x2C__chain_x2C__cryptocurrency">
</g>
<g id="_x34_7_money_box_x2C__saving_x2C__bitcoin_x2C__coin_x2C__block_x2C__chain_x2C__cryptocurrency">
</g>
<g id="_x34_6_portfolio_x2C__finance_x2C__bank_note_x2C__bitcoin_x2C__coin_x2C__cryptocurrency">
</g>
<g id="_x34_5_tap_x2C__water_x2C__bitcoin_x2C__coin_x2C__block_x2C__chain_x2C__cryptocurrency">
	<g>
		<g>
			<rect x="22.484" y="7.01" fill="#CCD1D9" width="6" height="5"/>
		</g>
		<g>
			<path fill="#ED5565" d="M33.484,1.01c1.66,0,3,1.351,3,3c0,1.66-1.34,3-3,3h-5h-6h-5c-1.648,0-3-1.34-3-3c0-1.649,1.352-3,3-3
				H33.484z"/>
		</g>
		<g>
			<path fill="#DA4453" d="M33.484,1.01h-4c1.66,0,3,1.351,3,3c0,1.66-1.34,3-3,3h4c1.66,0,3-1.34,3-3
				C36.484,2.36,35.145,1.01,33.484,1.01z"/>
		</g>
		<g>
			<path fill="#EDAB37" d="M49.984,54.49c1.111,0,2,0.9,2,2s-0.889,2-2,2h-2h-1v-4h2.5H49.984z"/>
		</g>
		<g>
			<path fill="#EDAB37" d="M49.484,51.49c0.83,0,1.5,0.67,1.5,1.5s-0.67,1.5-1.5,1.5h-2.5v-3h1H49.484z"/>
		</g>
		<g>
			<path fill="#FFCE54" d="M49.984,58.49c1.111,0,2-0.9,2-2s-0.889-2-2-2h-0.5c0.83,0,1.5-0.67,1.5-1.5s-0.67-1.5-1.5-1.5h-1.5h-1v3
				v4h1H49.984z M56.484,54.99c0,4.42-3.58,8-8,8s-8-3.58-8-8s6-13,8-13S56.484,50.57,56.484,54.99z"/>
		</g>
		<g>
			<g>
				<path fill="#F6BB42" d="M48.484,41.99c-0.48,0-1.195,0.505-2,1.319c2.541,2.575,6,8.323,6,11.681c0,3.728-2.551,6.85-6,7.738
					c0.641,0.165,1.309,0.262,2,0.262c4.42,0,8-3.58,8-8S50.484,41.99,48.484,41.99z"/>
			</g>
		</g>
		<g>
			<polygon fill="#E6E9ED" points="54.484,32.99 56.484,32.99 56.484,37.99 40.484,37.99 40.484,32.99 42.484,32.99 			"/>
		</g>
		<g>
			<polygon fill="#CCD1D9" points="54.484,32.99 52.484,32.99 52.484,37.99 56.484,37.99 56.484,32.99 			"/>
		</g>
		<g>
			<path fill="#CCD1D9" d="M36.484,15.01c9.941,0,17.99,8.04,18,17.98h-12c-0.01-3.3-2.689-5.98-6-5.98h-2v-12H36.484z"/>
		</g>
		<g>
			<path fill="#AAB2BD" d="M36.484,15.01h-2v0.117c8.998,0.994,15.992,8.6,16,17.863h4C54.475,23.05,46.426,15.01,36.484,15.01z"/>
		</g>
		<g>
			<path fill="#E6E9ED" d="M34.484,27.01v1c0,1.11-0.889,2-2,2h-13.99c-1.1,0-2-0.89-2-2h-0.01v-1v-12v-1h0.01c0-1.1,0.9-2,2-2h3.99
				h6h4c1.111,0,2,0.9,2,2v1V27.01z"/>
		</g>
		<g>
			<rect x="7.516" y="15.01" fill="#CCD1D9" width="8.969" height="12"/>
		</g>
	</g>
	<g>
		<g>
			<g>
				<g>
					<path d="M49.488,55.488c-0.553,0-1-0.447-1-1s0.447-1,1-1c0.275,0,0.5-0.225,0.5-0.5s-0.225-0.5-0.5-0.5c-0.553,0-1-0.447-1-1
						s0.447-1,1-1c1.379,0,2.5,1.121,2.5,2.5S50.867,55.488,49.488,55.488z"/>
				</g>
				<g>
					<path d="M49.988,59.488c-0.553,0-1-0.447-1-1s0.447-1,1-1c0.552,0,1-0.448,1-1s-0.448-1-1-1c-0.553,0-1-0.447-1-1s0.447-1,1-1
						c1.654,0,3,1.346,3,3S51.643,59.488,49.988,59.488z"/>
				</g>
				<g>
					<path d="M49.988,55.488h-3c-0.553,0-1-0.447-1-1s0.447-1,1-1h3c0.553,0,1,0.447,1,1S50.541,55.488,49.988,55.488z"/>
				</g>
				<g>
					<path d="M49.988,59.488h-4c-0.553,0-1-0.447-1-1s0.447-1,1-1h4c0.553,0,1,0.447,1,1S50.541,59.488,49.988,59.488z"/>
				</g>
				<g>
					<path d="M49.488,52.488h-3.5c-0.553,0-1-0.447-1-1s0.447-1,1-1h3.5c0.553,0,1,0.447,1,1S50.041,52.488,49.488,52.488z"/>
				</g>
				<g>
					<path d="M46.988,59.488c-0.553,0-1-0.447-1-1v-7c0-0.553,0.447-1,1-1s1,0.447,1,1v7C47.988,59.041,47.541,59.488,46.988,59.488
						z"/>
				</g>
				<g>
					<path d="M47.988,52.488c-0.553,0-1-0.447-1-1v-1c0-0.553,0.447-1,1-1s1,0.447,1,1v1C48.988,52.041,48.541,52.488,47.988,52.488
						z"/>
				</g>
				<g>
					<path d="M47.988,60.488c-0.553,0-1-0.447-1-1v-1c0-0.553,0.447-1,1-1s1,0.447,1,1v1C48.988,60.041,48.541,60.488,47.988,60.488
						z"/>
				</g>
			</g>
			<g>
				<path d="M48.488,63.988c-4.963,0-9-4.037-9-9c0-4.579,6.056-14,9-14s9,9.421,9,14C57.488,59.951,53.451,63.988,48.488,63.988z
					 M48.457,42.986c-1.435,0.28-6.969,8.001-6.969,12.002c0,3.859,3.141,7,7,7s7-3.141,7-7
					C55.488,50.987,49.954,43.267,48.457,42.986z"/>
			</g>
		</g>
		<g>
			<path d="M16.5,16.012H7.512c-0.553,0-1-0.447-1-1s0.447-1,1-1H16.5c0.553,0,1,0.447,1,1S17.053,16.012,16.5,16.012z"/>
		</g>
		<g>
			<path d="M16.5,28.012H7.512c-0.553,0-1-0.447-1-1s0.447-1,1-1H16.5c0.553,0,1,0.447,1,1S17.053,28.012,16.5,28.012z"/>
		</g>
		<g>
			<path d="M54.488,34.012c-0.553,0-1-0.447-1-1c0-9.374-7.626-17-17-17c-0.553,0-1-0.447-1-1s0.447-1,1-1c10.477,0,19,8.523,19,19
				C55.488,33.564,55.041,34.012,54.488,34.012z"/>
		</g>
		<g>
			<path d="M42.488,34.012c-0.553,0-1-0.447-1-1c0-2.757-2.243-5-5-5c-0.553,0-1-0.447-1-1s0.447-1,1-1c3.859,0,7,3.141,7,7
				C43.488,33.564,43.041,34.012,42.488,34.012z"/>
		</g>
		<g>
			<path d="M56.488,38.988h-16c-0.553,0-1-0.447-1-1v-5c0-0.553,0.447-1,1-1h16c0.553,0,1,0.447,1,1v5
				C57.488,38.541,57.041,38.988,56.488,38.988z M41.488,36.988h14v-3h-14V36.988z"/>
		</g>
		<g>
			<path d="M16.488,29.012c-0.553,0-1-0.447-1-1v-14c0-0.553,0.447-1,1-1s1,0.447,1,1v14C17.488,28.564,17.041,29.012,16.488,29.012
				z"/>
		</g>
		<g>
			<path d="M34.488,29.012c-0.553,0-1-0.447-1-1v-14c0-0.553,0.447-1,1-1s1,0.447,1,1v14C35.488,28.564,35.041,29.012,34.488,29.012
				z"/>
		</g>
		<g>
			<path d="M22.488,13.012c-0.553,0-1-0.447-1-1v-5c0-0.553,0.447-1,1-1s1,0.447,1,1v5C23.488,12.564,23.041,13.012,22.488,13.012z"
				/>
		</g>
		<g>
			<path d="M28.488,13.012c-0.553,0-1-0.447-1-1v-5c0-0.553,0.447-1,1-1s1,0.447,1,1v5C29.488,12.564,29.041,13.012,28.488,13.012z"
				/>
		</g>
		<g>
			<path d="M17.488,8.012c-2.206,0-4-1.794-4-4s1.794-4,4-4c0.553,0,1,0.447,1,1s-0.447,1-1,1c-1.103,0-2,0.897-2,2s0.897,2,2,2
				c0.553,0,1,0.447,1,1S18.041,8.012,17.488,8.012z"/>
		</g>
		<g>
			<path d="M33.488,8.012c-0.553,0-1-0.447-1-1s0.447-1,1-1c1.103,0,2-0.897,2-2s-0.897-2-2-2c-0.553,0-1-0.447-1-1s0.447-1,1-1
				c2.206,0,4,1.794,4,4S35.694,8.012,33.488,8.012z"/>
		</g>
		<g>
			<path d="M33.488,2.012h-16c-0.553,0-1-0.447-1-1s0.447-1,1-1h16c0.553,0,1,0.447,1,1S34.041,2.012,33.488,2.012z"/>
		</g>
		<g>
			<path d="M33.488,8.012h-16c-0.553,0-1-0.447-1-1s0.447-1,1-1h16c0.553,0,1,0.447,1,1S34.041,8.012,33.488,8.012z"/>
		</g>
		<g>
			<path d="M16.5,15.012c-0.553,0-1-0.447-1-1c0-1.654,1.346-3,3-3c0.553,0,1,0.447,1,1s-0.447,1-1,1c-0.552,0-1,0.448-1,1
				C17.5,14.564,17.053,15.012,16.5,15.012z"/>
		</g>
		<g>
			<path d="M34.488,15.012c-0.553,0-1-0.447-1-1c0-0.552-0.448-1-1-1c-0.553,0-1-0.447-1-1s0.447-1,1-1c1.654,0,3,1.346,3,3
				C35.488,14.564,35.041,15.012,34.488,15.012z"/>
		</g>
		<g>
			<path d="M32.488,13.012H18.5c-0.553,0-1-0.447-1-1s0.447-1,1-1h13.988c0.553,0,1,0.447,1,1S33.041,13.012,32.488,13.012z"/>
		</g>
		<g>
			<path d="M32.488,31.012c-0.553,0-1-0.447-1-1s0.447-1,1-1c0.552,0,1-0.448,1-1c0-0.553,0.447-1,1-1s1,0.447,1,1
				C35.488,29.666,34.143,31.012,32.488,31.012z"/>
		</g>
		<g>
			<path d="M18.5,31.012c-1.654,0-3-1.346-3-3c0-0.553,0.447-1,1-1s1,0.447,1,1c0,0.552,0.448,1,1,1c0.553,0,1,0.447,1,1
				S19.053,31.012,18.5,31.012z"/>
		</g>
		<g>
			<path d="M32.488,31.012H18.5c-0.553,0-1-0.447-1-1s0.447-1,1-1h13.988c0.553,0,1,0.447,1,1S33.041,31.012,32.488,31.012z"/>
		</g>
		<g>
			<path d="M36.488,28.012h-2c-0.553,0-1-0.447-1-1s0.447-1,1-1h2c0.553,0,1,0.447,1,1S37.041,28.012,36.488,28.012z"/>
		</g>
		<g>
			<path d="M36.488,16.012h-2c-0.553,0-1-0.447-1-1s0.447-1,1-1h2c0.553,0,1,0.447,1,1S37.041,16.012,36.488,16.012z"/>
		</g>
	</g>
</g>
<g id="_x34_4_phone_x2C__bitcoin_x2C__coin_x2C__block_x2C__chain_x2C__cryptocurrency">
</g>
<g id="_x34_3_rocket_x2C__sun_x2C__bitcoin_x2C__coin_x2C__block_x2C__chain_x2C__cryptocurrency">
</g>
<g id="_x34_2_transfer_x2C__network_x2C__bitcoin_x2C__coin_x2C__block_x2C__chain_x2C__cryptocurrency">
</g>
<g id="_x34_1_scales_x2C__comparison_x2C__bitcoin_x2C__coin_x2C__block_x2C__chain_x2C__cryptocurrency">
</g>
<g id="_x34_0_calculator_x2C__calculating_x2C__bitcoin_x2C__coin_x2C__block_x2C__chain_x2C__cryptocurrency">
</g>
<g id="_x33_9_start-up_x2C__plant_x2C__hand_x2C__bitcoin_x2C__coin_x2C__cryptocurrency">
</g>
<g id="_x33_8_idea_x2C__bulb_x2C__bitcoin_x2C__coin_x2C__block_x2C__chain_x2C__cryptocurrency">
</g>
<g id="_x33_7_users_x2C__user_x2C__co-founder_x2C__bitcoin_x2C__coin_x2C__cryptocurrency">
</g>
<g id="_x33_6_safe_x2C__protection_x2C__bitcoin_x2C__coin_x2C__block_x2C__chain_x2C__cryptocurrency">
</g>
<g id="_x33_5_flash_drive_x2C__key_x2C__block_x2C__chain_x2C__cryptocurrency">
</g>
<g id="_x33_4_cloud_x2C__mining_x2C__bitcoin_x2C__coin_x2C__block_x2C__chain_x2C__cryptocurrency">
</g>
<g id="_x33_3_start_up_x2C__plant_x2C__bitcoin_x2C__coin_x2C__block_x2C__chain_x2C__cryptocurrency">
</g>
<g id="_x33_2_planet_x2C__bitcoin_x2C__coin_x2C__block_x2C__chain_x2C__cryptocurrency">
</g>
<g id="_x33_1_payment_x2C__hand_x2C__bitcoin_x2C__coin_x2C__block_x2C__chain_x2C__cryptocurrency">
</g>
<g id="_x33_0_user_x2C__laptop_x2C__bitcoin_x2C__coin_x2C__block_x2C__chain_x2C__cryptocurrency">
</g>
<g id="_x32_9_thief_x2C__bag_x2C__bitcoin_x2C__coin_x2C__block_x2C__chain_x2C__cryptocurrency">
</g>
<g id="_x32_8_code_x2C__programming_x2C__program_x2C__bitcoin_x2C__coin_x2C__cryptocurrency">
</g>
<g id="_x32_7_bitcoin_x2C__coin_x2C__block_x2C__chain_x2C__cryptocurrency">
</g>
<g id="_x32_6_shield_x2C__protection_x2C__bitcoin_x2C__coin_x2C__block_x2C__chain_x2C__cryptocurrency">
</g>
<g id="_x32_5_bug_x2C__laptop_x2C__miner_x2C__program_x2C__block_x2C__chain_x2C__cryptocurrency">
</g>
<g id="_x32_4_computer_x2C__monitor_x2C__bitcoin_x2C__coin_x2C__block_x2C__chain_x2C__cryptocurrency">
</g>
<g id="_x32_3_network_x2C__idea_x2C__bitcoin_x2C__coin_x2C__block_x2C__chain_x2C__cryptocurrency">
</g>
<g id="_x32_2_block_x2C__chain_x2C__cryptocurrency_x2C__technology_x2C__future">
</g>
<g id="_x32_1_smart_contact_x2C__contact_x2C__block_x2C__chain_x2C__cryptocurrency">
</g>
<g id="_x32_0_lock_x2C__safe_x2C__protection_x2C__block_x2C__chain_x2C__cryptocurrency_x2C__program">
</g>
<g id="_x31_9_server_x2C__data_x2C__bitcoin_x2C__coin_x2C__block_x2C__chain_x2C__cryptocurrency">
</g>
<g id="_x31_8_key_x2C__bitcoin_x2C__coin_x2C__block_x2C__chain_x2C__cryptocurrency">
</g>
<g id="_x31_7_pool_x2C__network_x2C__bitcoin_x2C__coin_x2C__block_x2C__chain_x2C__cryptocurrency">
</g>
<g id="_x31_6_mining_x2C__shovel_x2C__mine_x2C__coin_x2C__block_x2C__chain_x2C__cryptocurrency">
</g>
<g id="_x31_5_purse_x2C__bitcoin_x2C__coin_x2C__block_x2C__chain_x2C__cryptocurrency">
</g>
<g id="_x31_4_safe_x2C__protection_x2C__block_x2C__chain_x2C__cryptocurrency_x2C__program">
</g>
<g id="_x31_3_mining_x2C__funnel_x2C__satoshi_x2C__bitcoin_x2C__coin_x2C__cryptocurrency">
</g>
<g id="_x31_2_chart_x2C__bitcoin_x2C__coin_x2C__block_x2C__chain_x2C__cryptocurrency">
</g>
<g id="_x31_1_computer_x2C__monitor_x2C__bitcoin_x2C__coin_x2C__block_x2C__chain_x2C__cryptocurrency">
</g>
<g id="_x31_0_mining_x2C__pickaxe_x2C__stone_x2C__mine_x2C___bitcoin_x2C__coin_x2C__cryptocurrency">
</g>
<g id="_x39__miner_x2C__mining_x2C__computer_x2C__pickaxe_x2C__program_x2C__cryptocurrency">
</g>
<g id="_x38__video_card_x2C__mining_x2C__bitcoin_x2C__coin_x2C__block_x2C__chain_x2C__cryptocurrency">
</g>
<g id="_x37__exchanger_x2C__site_x2C__bitcoin_x2C__coin_x2C__block_x2C__chain_x2C__cryptocurrency">
</g>
<g id="_x36__shop_x2C__product_x2C__bitcoin_x2C__coin_x2C__block_x2C__chain_x2C__cryptocurrency">
</g>
<g id="_x35__bitcoin_x2C__coin_x2C__exchange_x2C__block_x2C__chain_x2C__cryptocurrency_x2C__product">
</g>
<g id="_x34__bitcoin_x2C__coin_x2C__exchange_x2C__block_x2C__chain_x2C__cryptocurrency">
</g>
<g id="_x33__bitcoin_x2C__coin_x2C__exchange_x2C__block_x2C__chain_x2C__cryptocurrency">
</g>
<g id="_x32__brain_x2C__smart_x2C__coin_x2C__block_x2C__chain_x2C__cryptocurrency">
</g>
<g id="_x31__bitcoin_x2C__coin_x2C__block_x2C__chain_x2C__cryptocurrency">
</g>
</svg>
