<svg xmlns="http://www.w3.org/2000/svg" x="0" y="0" xml:space="preserve" viewBox="0 0 64 64"><path fill="#FFCE54" d="M57.5 44.995 57.5 46.995 55.5 49.995 53.5 46.995 53.5 44.995z"/><path fill="#656D78" d="M53.5 22.995H57.5V44.995000000000005H53.5z"/><path fill="#656D78" d="M57.5 13.995v9h-4v-10a2 2 0 0 1 4 0v1z"/><path fill="#FFF" d="M49.5 6.995 43.5 6.995 43.5 6.865 43.5 1.005z"/><path fill="#CCD1D9" d="M6.51 59.995 43.5 59.995 43.51 62.995 3.51 62.995 3.51 6.995 6.5 6.995 6.51 6.995z"/><path fill="#E6E9ED" d="M9.5 57.005 46.5 57.005 46.51 59.995 43.5 59.995 6.51 59.995 6.51 6.995 6.51 3.995 9.5 4.005z"/><path fill="#F5F7FA" d="M49.5 6.995v50.01h-40v-56h34v5.99h6z"/><path fill="#E6E9ED" d="M45.5 6.995 45.5 57.005 46.5 57.005 49.5 57.005 49.5 6.995z"/><path fill="#FFCE54" d="M17.5 43.998a2 2 0 0 1 2 2v3c0 1.1-.9 2-2 2-1.101 0-2-.9-2-2v-3c0-1.11.899-2 2-2zM17.5 31.998a2 2 0 0 1 2 2v3c0 1.1-.9 2-2 2-1.101 0-2-.9-2-2v-3c0-1.11.899-2 2-2zM17.5 19.998a2 2 0 0 1 2 2v3c0 1.1-.9 2-2 2-1.101 0-2-.9-2-2v-3c0-1.11.899-2 2-2zM17.5 14.998c-1.101 0-2-.9-2-2v-3a2 2 0 1 1 4 0v3c0 1.1-.9 2-2 2z"/><g><path d="M49.5 58.008h-40a1 1 0 0 1-1-1v-56a1 1 0 0 1 1-1h34c.265 0 .519.105.706.292l6 5.99a.996.996 0 0 1 .294.708v50.01a1 1 0 0 1-1 1zm-39-2h38V7.413l-5.414-5.405H10.5v54z"/><path d="M46.51 60.998a1 1 0 0 1-1-.997l-.01-2.99a1 1 0 0 1 .997-1.003h.003a1 1 0 0 1 1 .997l.01 2.99a1 1 0 0 1-.997 1.003h-.003z"/><path d="M46.51 60.998h-40c-.552 0-1.005-.447-1.005-1s.443-1 .995-1h40.01a1 1 0 1 1 0 2zM9.5 5.008h-.003l-2.99-.01a1 1 0 0 1 .003-2h.003l2.99.01a1 1 0 0 1-.003 2z"/><path d="M6.51 60.998a1 1 0 0 1-1-1v-56a1 1 0 1 1 2 0v56a1 1 0 0 1-1 1zM43.51 63.998a1 1 0 0 1-1-.997l-.01-3a1 1 0 0 1 .997-1.003h.003a1 1 0 0 1 1 .997l.01 3a1 1 0 0 1-.997 1.003h-.003z"/><path d="M43.51 63.998h-40c-.552 0-1.005-.447-1.005-1s.443-1 .995-1h40.01a1 1 0 1 1 0 2zM6.5 7.998H3.51a1 1 0 1 1 0-2H6.5a1 1 0 1 1 0 2z"/><path d="M3.51 63.998a1 1 0 0 1-1-1v-56a1 1 0 1 1 2 0v56a1 1 0 0 1-1 1zM49.5 7.998h-6a1 1 0 1 1 0-2h6a1 1 0 1 1 0 2z"/><path d="M43.5 7.868a1 1 0 0 1-1-1v-5.86a1 1 0 1 1 2 0v5.86a1 1 0 0 1-1 1zM57.5 13.998a1 1 0 0 1-1-1 1 1 0 0 0-2 0 1 1 0 1 1-2 0c0-1.654 1.346-3 3-3s3 1.346 3 3a1 1 0 0 1-1 1z"/><path d="M53.5 47.998a1 1 0 0 1-1-1v-34a1 1 0 1 1 2 0v34a1 1 0 0 1-1 1zM57.5 47.998a1 1 0 0 1-1-1v-34a1 1 0 1 1 2 0v34a1 1 0 0 1-1 1z"/><path d="M55.501 50.998a.998.998 0 0 1-.833-.445l-2-3a1 1 0 1 1 1.664-1.11l2 3a1 1 0 0 1-.831 1.555z"/><path d="M55.499 50.998a1 1 0 0 1-.831-1.555l2-3a.999.999 0 1 1 1.664 1.11l-2 3a.998.998 0 0 1-.833.445z"/><path d="M55.5 51.998a1 1 0 0 1-1-1v-1a1 1 0 1 1 2 0v1a1 1 0 0 1-1 1zM57.5 45.998h-4a1 1 0 1 1 0-2h4a1 1 0 1 1 0 2zM60.5 16.998a1 1 0 0 1-1-1 .99.99 0 0 0-1-1 1 1 0 1 1 0-2c1.654 0 3 1.346 3 3a1 1 0 0 1-1 1z"/><path d="M60.5 28.998a1 1 0 0 1-1-1v-12a1 1 0 1 1 2 0v12a1 1 0 0 1-1 1zM58.5 14.998h-1a1 1 0 1 1 0-2h1a1 1 0 1 1 0 2zM57.5 23.998h-4a1 1 0 1 1 0-2h4a1 1 0 1 1 0 2zM17.5 15.998c-1.654 0-3-1.346-3-3v-3c0-1.654 1.346-3 3-3s3 1.346 3 3v3c0 1.654-1.346 3-3 3zm0-7c-.551 0-1 .448-1 1v3a1.001 1.001 0 0 0 2 0v-3c0-.552-.449-1-1-1zM17.5 27.998c-1.654 0-3-1.346-3-3v-3c0-1.654 1.346-3 3-3s3 1.346 3 3v3c0 1.654-1.346 3-3 3zm0-7c-.551 0-1 .448-1 1v3a1.001 1.001 0 0 0 2 0v-3c0-.552-.449-1-1-1z"/><path d="M17.5 21.998a1 1 0 0 1-1-1v-7a1 1 0 1 1 2 0v7a1 1 0 0 1-1 1zM17.5 39.998c-1.654 0-3-1.346-3-3v-3c0-1.654 1.346-3 3-3s3 1.346 3 3v3c0 1.654-1.346 3-3 3zm0-7c-.551 0-1 .448-1 1v3a1.001 1.001 0 0 0 2 0v-3c0-.552-.449-1-1-1z"/><path d="M17.5 33.998a1 1 0 0 1-1-1v-7a1 1 0 1 1 2 0v7a1 1 0 0 1-1 1zM17.5 51.998c-1.654 0-3-1.346-3-3v-3c0-1.654 1.346-3 3-3s3 1.346 3 3v3c0 1.654-1.346 3-3 3zm0-7c-.551 0-1 .448-1 1v3a1.001 1.001 0 0 0 2 0v-3c0-.552-.449-1-1-1z"/><path d="M17.5 45.998a1 1 0 0 1-1-1v-7a1 1 0 1 1 2 0v7a1 1 0 0 1-1 1zM43.5 18.998h-18a1 1 0 1 1 0-2h18a1 1 0 1 1 0 2zM43.5 24.998h-18a1 1 0 1 1 0-2h18a1 1 0 1 1 0 2zM43.5 30.998h-18a1 1 0 1 1 0-2h18a1 1 0 1 1 0 2zM43.5 36.998h-18a1 1 0 1 1 0-2h18a1 1 0 1 1 0 2zM43.5 42.998h-18a1 1 0 1 1 0-2h18a1 1 0 1 1 0 2z"/></g></svg>