<svg xmlns="http://www.w3.org/2000/svg" x="0" y="0" xml:space="preserve" viewBox="0 0 64 64"><path fill="#EDAB37" d="M52.98 44.98a26.981 26.981 0 0 1-9.99 7.68A26.738 26.738 0 0 1 32 55c-3.92 0-7.64-.83-11-2.34-3.92-1.75-7.34-4.4-9.99-7.7C7.24 40.33 5 34.43 5 28v8c0 6.43 2.24 12.33 6 16.96 2.66 3.3 6.08 5.95 10 7.7C24.36 62.17 28.08 63 32 63s7.641-.83 11-2.34c3.92-1.75 7.34-4.4 10-7.7 3.76-4.63 6-10.53 6-16.96v-8c0 6.44-2.25 12.35-6.02 16.98z"/><path fill="#FFCE54" d="M59 28c0 6.44-2.25 12.35-6.02 16.98a26.981 26.981 0 0 1-9.99 7.68A26.738 26.738 0 0 1 32 55c-3.92 0-7.64-.83-11-2.34-3.92-1.75-7.34-4.4-9.99-7.7C7.24 40.33 5 34.43 5 28 5 13.09 17.08 1 32 1c14.91 0 27 12.09 27 27z"/><path fill="#F6BB42" d="M32 1c-.675 0-1.341.033-2.003.082C43.972 2.107 54.996 13.764 54.996 28c0 6.44-2.25 12.35-6.02 16.98a26.981 26.981 0 0 1-9.99 7.68 26.649 26.649 0 0 1-8.99 2.258c.662.049 1.329.082 2.004.082 3.91 0 7.63-.83 10.99-2.34a26.971 26.971 0 0 0 9.99-7.68A26.79 26.79 0 0 0 59 28C59 13.09 46.91 1 32 1z"/><path fill="#EC87C0" d="M44.67 20.561a4.495 4.495 0 0 1 2.32 3.939c0 1.27-.52 2.41-1.37 3.23h.01c.83.64 1.36 1.64 1.36 2.77 0 1.109-.52 2.1-1.32 2.74.21.55.32 1.14.32 1.76 0 2.76-2.26 4.99-5.03 5-.25 2.25-2.149 4-4.47 4a4.5 4.5 0 0 1-4.5-4.5v-24c0-1.93 1.57-3.5 3.5-3.5s3.5 1.57 3.5 3.5v.02h.02c.58-.33 1.261-.52 1.98-.52a3.999 3.999 0 0 1 3.68 5.561z"/><path fill="#D770AD" d="M45.63 27.73h-.01a4.458 4.458 0 0 0 1.37-3.23c0-1.689-.93-3.17-2.32-3.939A3.999 3.999 0 0 0 40.99 15c-.72 0-1.4.189-1.98.52h-.02v-.02c0-1.93-1.57-3.5-3.5-3.5-.744 0-1.432.237-2 .635.904.634 1.5 1.68 1.5 2.865v.02h.02c.58-.33 1.261-.52 1.98-.52a3.999 3.999 0 0 1 3.68 5.561 4.495 4.495 0 0 1 2.32 3.939c0 1.27-.52 2.41-1.37 3.23h.01c.83.64 1.36 1.64 1.36 2.77 0 1.109-.52 2.1-1.32 2.74.21.55.32 1.14.32 1.76 0 2.76-2.26 4.99-5.03 5a4.487 4.487 0 0 1-2.469 3.512A4.457 4.457 0 0 0 36.49 44c2.32 0 4.22-1.75 4.47-4 2.771-.01 5.03-2.24 5.03-5 0-.62-.11-1.21-.32-1.76a3.507 3.507 0 0 0 1.32-2.74c0-1.13-.53-2.13-1.36-2.77z"/><path fill="#EC87C0" d="M19.311 20.561A3.999 3.999 0 0 1 22.991 15c.72 0 1.4.189 1.98.52h.02v-.02c0-1.93 1.57-3.5 3.5-3.5s3.5 1.57 3.5 3.5v24a4.5 4.5 0 0 1-4.5 4.5c-2.32 0-4.22-1.75-4.47-4-2.771-.01-5.03-2.24-5.03-5 0-.62.11-1.21.32-1.76a3.507 3.507 0 0 1-1.32-2.74c0-1.13.53-2.13 1.36-2.77h.01a4.458 4.458 0 0 1-1.37-3.23 4.514 4.514 0 0 1 2.32-3.939z"/><g><path d="M32.024 5c-.553 0-1.005-.448-1.005-1s.442-1 .994-1h.011a1 1 0 0 1 0 2zM32.024 53c-.553 0-1.005-.447-1.005-1s.442-1 .994-1h.011a1 1 0 1 1 0 2zM27.857 5.365c-.553 0-1.005-.448-1.005-1s.442-1 .994-1h.011a1 1 0 0 1 0 2zM36.192 52.636c-.553 0-1.005-.447-1.005-1s.442-1 .994-1h.011a1 1 0 1 1 0 2zM23.816 6.448c-.553 0-1.005-.448-1.005-1s.442-1 .994-1h.011a1 1 0 0 1 0 2zM40.233 51.553c-.553 0-1.005-.447-1.005-1s.442-1 .994-1h.011a1 1 0 1 1 0 2zM20.025 8.216c-.553 0-1.005-.448-1.005-1s.442-1 .994-1h.011a1 1 0 0 1 0 2zM44.025 49.785c-.553 0-1.005-.447-1.005-1s.442-1 .994-1h.011a1 1 0 1 1 0 2zM16.6 10.615c-.553 0-1.005-.448-1.005-1s.442-1 .994-1h.011a1 1 0 0 1 0 2zM47.453 47.386c-.553 0-1.005-.447-1.005-1s.442-1 .994-1h.011a1 1 0 1 1 0 2zM13.642 13.573c-.553 0-1.005-.448-1.005-1s.442-1 .994-1h.011a1 1 0 0 1 0 2zM50.412 44.428c-.553 0-1.005-.447-1.005-1s.442-1 .994-1h.011a1 1 0 1 1 0 2zM11.242 16.999c-.553 0-1.005-.448-1.005-1s.442-1 .994-1h.011a1 1 0 0 1 0 2zM52.813 41c-.553 0-1.005-.447-1.005-1s.442-1 .994-1h.011a1 1 0 1 1 0 2zM9.475 20.79c-.553 0-1.005-.448-1.005-1s.442-1 .994-1h.011a1 1 0 0 1 0 2zM54.581 37.208c-.553 0-1.005-.447-1.005-1s.442-1 .994-1h.011a1 1 0 1 1 0 2zM8.392 24.83c-.553 0-1.005-.448-1.005-1s.442-1 .994-1h.011a1 1 0 0 1 0 2zM55.664 33.166c-.553 0-1.005-.448-1.005-1s.442-1 .994-1h.011a1 1 0 0 1 0 2zM8.027 28.998c-.553 0-1.005-.448-1.005-1s.442-1 .994-1h.011a1 1 0 0 1 0 2zM56.029 28.998c-.553 0-1.005-.448-1.005-1s.442-1 .994-1h.011a1 1 0 0 1 0 2zM8.392 33.166c-.553 0-1.005-.448-1.005-1s.442-1 .994-1h.011a1 1 0 0 1 0 2zM55.665 24.83c-.553 0-1.005-.448-1.005-1s.442-1 .994-1h.011a1 1 0 0 1 0 2zM9.475 37.207c-.553 0-1.005-.447-1.005-1s.442-1 .994-1h.011a1 1 0 1 1 0 2zM54.583 20.788c-.553 0-1.005-.448-1.005-1s.442-1 .994-1h.011a1 1 0 0 1 0 2zM11.243 40.998c-.553 0-1.005-.447-1.005-1s.442-1 .994-1h.011a1 1 0 1 1 0 2zM52.814 16.996c-.553 0-1.005-.448-1.005-1s.442-1 .994-1h.011a1 1 0 0 1 0 2zM13.643 44.424c-.553 0-1.005-.447-1.005-1s.442-1 .994-1h.011a1 1 0 1 1 0 2zM50.415 13.568c-.553 0-1.005-.448-1.005-1s.442-1 .994-1h.011a1 1 0 0 1 0 2zM16.601 47.382c-.553 0-1.005-.447-1.005-1s.442-1 .994-1h.011a1 1 0 1 1 0 2zM47.456 10.609c-.553 0-1.005-.448-1.005-1s.442-1 .994-1h.011a1 1 0 0 1 0 2zM20.027 49.781c-.553 0-1.005-.447-1.005-1s.442-1 .994-1h.011a1 1 0 1 1 0 2zM44.028 8.209c-.553 0-1.005-.448-1.005-1s.442-1 .994-1h.011a1 1 0 0 1 0 2zM23.818 51.549c-.553 0-1.005-.447-1.005-1s.442-1 .994-1h.011a1 1 0 1 1 0 2zM40.236 6.441c-.553 0-1.005-.448-1.005-1s.442-1 .994-1h.011a1 1 0 0 1 0 2zM27.859 52.631c-.553 0-1.005-.447-1.005-1s.442-1 .994-1h.011a1 1 0 1 1 0 2zM36.195 5.357c-.553 0-1.005-.448-1.005-1s.442-1 .994-1h.011a1 1 0 0 1 0 2z"/><path d="M32 56C16.561 56 4 43.439 4 28S16.561 0 32 0s28 12.561 28 28-12.561 28-28 28zm0-54C17.663 2 6 13.664 6 28c0 14.337 11.663 26 26 26s26-11.663 26-26C58 13.664 46.337 2 32 2z"/><path d="M32 64C16.561 64 4 51.439 4 36a1 1 0 1 1 2 0c0 14.337 11.663 26 26 26s26-11.663 26-26a1 1 0 1 1 2 0c0 15.439-12.561 28-28 28z"/><path d="M5 37a1 1 0 0 1-1-1v-8a1 1 0 1 1 2 0v8a1 1 0 0 1-1 1zM59 37a1 1 0 0 1-1-1v-8a1 1 0 1 1 2 0v8a1 1 0 0 1-1 1zM32 64a1 1 0 0 1-1-1v-8a1 1 0 1 1 2 0v8a1 1 0 0 1-1 1zM21 61.665a1 1 0 0 1-1-1v-8a1 1 0 1 1 2 0v8a1 1 0 0 1-1 1zM11 53.973a1 1 0 0 1-1-1v-8a1 1 0 1 1 2 0v8a1 1 0 0 1-1 1zM43 61.679a1 1 0 0 1-1-1v-8a1 1 0 1 1 2 0v8a1 1 0 0 1-1 1zM53 53.986a1 1 0 0 1-1-1v-8a1 1 0 1 1 2 0v8a1 1 0 0 1-1 1z"/><g><path d="M28.494 20a4.505 4.505 0 0 1-4.5-4.5c0-2.482 2.019-4.501 4.5-4.501s4.501 2.019 4.501 4.501a1 1 0 1 1-2 0c0-1.379-1.122-2.501-2.501-2.501s-2.5 1.122-2.5 2.501c0 1.378 1.121 2.5 2.5 2.5a1 1 0 1 1 0 2zM27.494 45a5.507 5.507 0 0 1-5.5-5.5c0-1.254.435-2.481 1.223-3.456a1 1 0 0 1 1.554 1.258 3.457 3.457 0 0 0-.777 2.198c0 1.93 1.57 3.5 3.5 3.5s3.5-1.57 3.5-3.5a1 1 0 1 1 2 0c0 3.032-2.468 5.5-5.5 5.5z"/><path d="M23.031 41c-3.329 0-6.037-2.691-6.037-6s2.691-6 6-6a1 1 0 1 1 0 2c-2.206 0-4 1.794-4 4s1.812 4 4.037 4a1 1 0 1 1 0 2z"/><path d="M18.316 34.24a.993.993 0 0 1-.622-.218 4.482 4.482 0 0 1-1.7-3.522c0-1.405.639-2.704 1.753-3.564a.999.999 0 1 1 1.222 1.583 2.488 2.488 0 0 0-.976 1.981c0 .766.345 1.479.946 1.958a1 1 0 0 1-.623 1.782z"/><path d="M18.36 28.729a.997.997 0 0 1-.696-.282 5.453 5.453 0 0 1-1.67-3.947 5.51 5.51 0 0 1 2.833-4.812 1 1 0 1 1 .97 1.748 3.51 3.51 0 0 0-1.804 3.063 3.47 3.47 0 0 0 1.063 2.512 1 1 0 0 1-.696 1.718z"/><path d="M20.991 23.464a.998.998 0 0 1-.5-.134A5.017 5.017 0 0 1 17.994 19c0-2.757 2.243-5 5-5 .868 0 1.725.227 2.476.655a1 1 0 0 1-.99 1.738A3.004 3.004 0 0 0 19.994 19a3.01 3.01 0 0 0 1.499 2.598.998.998 0 0 1 .364 1.366.996.996 0 0 1-.866.5z"/><g><path d="M38.031 18.912a1 1 0 0 1-.724-1.689 2.503 2.503 0 0 0-1.812-4.224 2.504 2.504 0 0 0-2.501 2.501 1 1 0 1 1-2 0c0-2.482 2.02-4.501 4.501-4.501s4.5 2.019 4.5 4.501c0 1.159-.44 2.26-1.239 3.101a.995.995 0 0 1-.725.311zM36.495 45a5.507 5.507 0 0 1-5.5-5.5 1 1 0 1 1 2 0c0 1.93 1.57 3.5 3.5 3.5s3.5-1.57 3.5-3.5-1.57-3.5-3.5-3.5a1 1 0 1 1 0-2c3.032 0 5.5 2.468 5.5 5.5s-2.468 5.5-5.5 5.5z"/><path d="M40.958 41a1 1 0 1 1 0-2c2.226 0 4.037-1.794 4.037-4a3.972 3.972 0 0 0-1.603-3.203 1.001 1.001 0 0 1 1.201-1.599 5.956 5.956 0 0 1 2.401 4.803C46.995 38.309 44.287 41 40.958 41z"/><path d="M45.673 34.24a1 1 0 0 1-.624-1.782 2.489 2.489 0 0 0 .946-1.958c0-.78-.355-1.502-.976-1.981a1 1 0 1 1 1.222-1.583 4.473 4.473 0 0 1 1.753 3.564 4.48 4.48 0 0 1-1.7 3.522.99.99 0 0 1-.621.218z"/><path d="M45.629 28.729a1 1 0 0 1-.697-1.718 3.47 3.47 0 0 0 1.063-2.512 3.506 3.506 0 0 0-1.804-3.063 1 1 0 0 1 .97-1.748 5.508 5.508 0 0 1 2.833 4.812 5.453 5.453 0 0 1-1.67 3.947.989.989 0 0 1-.695.282z"/><path d="M40.995 24a1 1 0 1 1 0-2c1.654 0 3-1.346 3-3a3.004 3.004 0 0 0-4.485-2.608 1 1 0 0 1-.99-1.738A5.006 5.006 0 0 1 45.995 19c0 2.757-2.243 5-5 5z"/></g><g><path d="M31.994 40.5a1 1 0 0 1-1-1v-24a1 1 0 1 1 2 0v24a1 1 0 0 1-1 1z"/></g><g><path d="M32 32a1 1 0 0 1-1-1c0-2.206 1.794-4 4-4a1 1 0 1 1 0 2c-1.103 0-2 .897-2 2a1 1 0 0 1-1 1z"/></g><g><path d="M32 32a1 1 0 0 1-1-1c0-1.103-.897-2-2-2a1 1 0 1 1 0-2c2.206 0 4 1.794 4 4a1 1 0 0 1-1 1z"/></g></g></g></svg>