<?xml version="1.0" encoding="utf-8"?>
<!-- Generator: Adobe Illustrator 16.0.0, SVG Export Plug-In . SVG Version: 6.00 Build 0)  -->
<!DOCTYPE svg PUBLIC "-//W3C//DTD SVG 1.1//EN" "http://www.w3.org/Graphics/SVG/1.1/DTD/svg11.dtd">
<svg version="1.1" xmlns="http://www.w3.org/2000/svg" xmlns:xlink="http://www.w3.org/1999/xlink" x="0px" y="0px" width="64px"
	 height="64px" viewBox="0 0 64 64" enable-background="new 0 0 64 64" xml:space="preserve">
<g id="_x35_0_code_x2C__programming_x2C__program_x2C__bitcoin_x2C__block_x2C__chain_x2C__cryptocurrency">
</g>
<g id="_x34_9_balloon_x2C__takeoff_x2C__bitcoin_x2C__coin_x2C__block_x2C__chain_x2C__cryptocurrency">
</g>
<g id="_x34_8_video_card_x2C__mining_x2C__farm_x2C__computer_x2C__block_x2C__chain_x2C__cryptocurrency">
</g>
<g id="_x34_7_money_box_x2C__saving_x2C__bitcoin_x2C__coin_x2C__block_x2C__chain_x2C__cryptocurrency">
</g>
<g id="_x34_6_portfolio_x2C__finance_x2C__bank_note_x2C__bitcoin_x2C__coin_x2C__cryptocurrency">
</g>
<g id="_x34_5_tap_x2C__water_x2C__bitcoin_x2C__coin_x2C__block_x2C__chain_x2C__cryptocurrency">
</g>
<g id="_x34_4_phone_x2C__bitcoin_x2C__coin_x2C__block_x2C__chain_x2C__cryptocurrency">
</g>
<g id="_x34_3_rocket_x2C__sun_x2C__bitcoin_x2C__coin_x2C__block_x2C__chain_x2C__cryptocurrency">
</g>
<g id="_x34_2_transfer_x2C__network_x2C__bitcoin_x2C__coin_x2C__block_x2C__chain_x2C__cryptocurrency">
</g>
<g id="_x34_1_scales_x2C__comparison_x2C__bitcoin_x2C__coin_x2C__block_x2C__chain_x2C__cryptocurrency">
</g>
<g id="_x34_0_calculator_x2C__calculating_x2C__bitcoin_x2C__coin_x2C__block_x2C__chain_x2C__cryptocurrency">
</g>
<g id="_x33_9_start-up_x2C__plant_x2C__hand_x2C__bitcoin_x2C__coin_x2C__cryptocurrency">
</g>
<g id="_x33_8_idea_x2C__bulb_x2C__bitcoin_x2C__coin_x2C__block_x2C__chain_x2C__cryptocurrency">
</g>
<g id="_x33_7_users_x2C__user_x2C__co-founder_x2C__bitcoin_x2C__coin_x2C__cryptocurrency">
</g>
<g id="_x33_6_safe_x2C__protection_x2C__bitcoin_x2C__coin_x2C__block_x2C__chain_x2C__cryptocurrency">
</g>
<g id="_x33_5_flash_drive_x2C__key_x2C__block_x2C__chain_x2C__cryptocurrency">
</g>
<g id="_x33_4_cloud_x2C__mining_x2C__bitcoin_x2C__coin_x2C__block_x2C__chain_x2C__cryptocurrency">
</g>
<g id="_x33_3_start_up_x2C__plant_x2C__bitcoin_x2C__coin_x2C__block_x2C__chain_x2C__cryptocurrency">
</g>
<g id="_x33_2_planet_x2C__bitcoin_x2C__coin_x2C__block_x2C__chain_x2C__cryptocurrency">
</g>
<g id="_x33_1_payment_x2C__hand_x2C__bitcoin_x2C__coin_x2C__block_x2C__chain_x2C__cryptocurrency">
</g>
<g id="_x33_0_user_x2C__laptop_x2C__bitcoin_x2C__coin_x2C__block_x2C__chain_x2C__cryptocurrency">
</g>
<g id="_x32_9_thief_x2C__bag_x2C__bitcoin_x2C__coin_x2C__block_x2C__chain_x2C__cryptocurrency">
</g>
<g id="_x32_8_code_x2C__programming_x2C__program_x2C__bitcoin_x2C__coin_x2C__cryptocurrency">
</g>
<g id="_x32_7_bitcoin_x2C__coin_x2C__block_x2C__chain_x2C__cryptocurrency">
</g>
<g id="_x32_6_shield_x2C__protection_x2C__bitcoin_x2C__coin_x2C__block_x2C__chain_x2C__cryptocurrency">
</g>
<g id="_x32_5_bug_x2C__laptop_x2C__miner_x2C__program_x2C__block_x2C__chain_x2C__cryptocurrency">
</g>
<g id="_x32_4_computer_x2C__monitor_x2C__bitcoin_x2C__coin_x2C__block_x2C__chain_x2C__cryptocurrency">
</g>
<g id="_x32_3_network_x2C__idea_x2C__bitcoin_x2C__coin_x2C__block_x2C__chain_x2C__cryptocurrency">
	<g>
		<g>
			<g>
				<path fill="#656D78" d="M9.211,44c0,1.109,0.889,2,2,2c-2.131,0.01-3.861,1.67-3.98,3.76c-1.82-1.26-3.01-3.36-3.01-5.75
					c0-3.86,3.129-7,7-7c3.869,0,7,3.14,7,7c0,2.39-1.189,4.49-3.01,5.76C15.09,47.67,13.35,46,11.221,46
					c1.1-0.01,1.99-0.891,1.99-2c0-1.101-0.9-2-2-2C10.1,42,9.211,42.899,9.211,44z"/>
			</g>
			<g>
				<path fill="#EAC6BB" d="M11.211,42c1.1,0,2,0.899,2,2c0,1.109-0.891,1.99-1.99,2h-0.01c-1.111,0-2-0.891-2-2
					C9.211,42.899,10.1,42,11.211,42z"/>
			</g>
			<g>
				<path fill="#ED5565" d="M11.221,46c2.129,0,3.869,1.67,3.99,3.77c-1.131,0.78-2.51,1.24-3.99,1.24s-2.859-0.46-3.99-1.25
					c0.119-2.09,1.85-3.75,3.98-3.76H11.221z"/>
			</g>
			<g>
				<path fill="#434A54" d="M11.221,37.01c-0.695,0-1.367,0.104-2,0.294c2.893,0.861,5,3.54,5,6.706c0,2.39-1.189,4.49-3.01,5.76
					c-0.6,0.413-1.271,0.729-1.988,0.941c0.635,0.189,1.303,0.299,1.998,0.299c1.48,0,2.859-0.46,3.99-1.24
					c1.82-1.27,3.01-3.37,3.01-5.76C18.221,40.149,15.09,37.01,11.221,37.01z"/>
			</g>
			<g>
				<path fill="#DA4453" d="M13.621,46.823c-0.521,1.189-1.355,2.21-2.41,2.946c-0.6,0.413-1.271,0.729-1.988,0.941
					c0.316,0.095,0.641,0.169,0.973,0.22c0.336,0.049,0.676,0.079,1.025,0.079c1.48,0,2.859-0.46,3.99-1.24
					C15.141,48.563,14.527,47.511,13.621,46.823z"/>
			</g>
		</g>
		<g>
			<g>
				<path fill="#656D78" d="M29.99,8c0,1.109,0.891,2,2,2c-2.129,0.01-3.859,1.67-3.98,3.76C26.191,12.5,25,10.399,25,8.01
					c0-3.86,3.131-7,7-7c3.871,0,7,3.14,7,7c0,2.39-1.189,4.49-3.01,5.76C35.871,11.67,34.131,10,32,10
					c1.102-0.01,1.99-0.891,1.99-2c0-1.101-0.9-2-2-2C30.881,6,29.99,6.899,29.99,8z"/>
			</g>
			<g>
				<path fill="#EAC6BB" d="M31.99,6c1.1,0,2,0.899,2,2c0,1.109-0.889,1.99-1.99,2h-0.01c-1.109,0-2-0.891-2-2
					C29.99,6.899,30.881,6,31.99,6z"/>
			</g>
			<g>
				<path fill="#5D9CEC" d="M32,10c2.131,0,3.871,1.67,3.99,3.77c-1.129,0.78-2.51,1.24-3.99,1.24c-1.479,0-2.859-0.46-3.99-1.25
					c0.121-2.09,1.852-3.75,3.98-3.76H32z"/>
			</g>
			<g>
				<path fill="#434A54" d="M32,1.01c-0.695,0-1.365,0.104-2,0.294c2.893,0.861,5,3.54,5,6.706c0,2.39-1.189,4.49-3.01,5.76
					c-0.598,0.413-1.27,0.729-1.986,0.941C30.639,14.9,31.307,15.01,32,15.01c1.48,0,2.861-0.46,3.99-1.24
					c1.82-1.27,3.01-3.37,3.01-5.76C39,4.149,35.871,1.01,32,1.01z"/>
			</g>
			<g>
				<path fill="#4A89DC" d="M34.402,10.823c-0.523,1.189-1.355,2.21-2.412,2.946c-0.598,0.413-1.27,0.729-1.986,0.941
					c0.316,0.095,0.641,0.169,0.971,0.22c0.336,0.049,0.678,0.079,1.025,0.079c1.48,0,2.861-0.46,3.99-1.24
					C35.922,12.563,35.307,11.511,34.402,10.823z"/>
			</g>
		</g>
		<g>
			<g>
				<path fill="#656D78" d="M29.99,55.98c0,1.109,0.891,2,2,2c-2.129,0.01-3.859,1.67-3.98,3.76C26.191,60.48,25,58.38,25,55.99
					c0-3.86,3.131-7,7-7c3.871,0,7,3.14,7,7c0,2.39-1.189,4.49-3.01,5.76c-0.119-2.1-1.859-3.77-3.99-3.77
					c1.102-0.01,1.99-0.891,1.99-2c0-1.101-0.9-2-2-2C30.881,53.98,29.99,54.88,29.99,55.98z"/>
			</g>
			<g>
				<path fill="#EAC6BB" d="M31.99,53.98c1.1,0,2,0.899,2,2c0,1.109-0.889,1.99-1.99,2h-0.01c-1.109,0-2-0.891-2-2
					C29.99,54.88,30.881,53.98,31.99,53.98z"/>
			</g>
			<g>
				<path fill="#5D9CEC" d="M32,57.98c2.131,0,3.871,1.67,3.99,3.77c-1.129,0.78-2.51,1.24-3.99,1.24c-1.479,0-2.859-0.46-3.99-1.25
					c0.121-2.09,1.852-3.75,3.98-3.76H32z"/>
			</g>
			<g>
				<path fill="#434A54" d="M32,48.99c-0.695,0-1.365,0.104-2,0.294c2.893,0.861,5,3.54,5,6.706c0,2.39-1.189,4.49-3.01,5.76
					c-0.598,0.413-1.27,0.729-1.986,0.941c0.635,0.189,1.303,0.299,1.996,0.299c1.48,0,2.861-0.46,3.99-1.24
					c1.82-1.27,3.01-3.37,3.01-5.76C39,52.13,35.871,48.99,32,48.99z"/>
			</g>
			<g>
				<path fill="#4A89DC" d="M34.402,58.804c-0.523,1.189-1.355,2.21-2.412,2.946c-0.598,0.413-1.27,0.729-1.986,0.941
					c0.316,0.095,0.641,0.169,0.971,0.22C31.311,62.96,31.652,62.99,32,62.99c1.48,0,2.861-0.46,3.99-1.24
					C35.922,60.543,35.307,59.491,34.402,58.804z"/>
			</g>
		</g>
		<g>
			<g>
				<path fill="#656D78" d="M50.77,44c0,1.109,0.891,2,2,2c-2.129,0.01-3.859,1.67-3.98,3.76c-1.818-1.26-3.01-3.36-3.01-5.75
					c0-3.86,3.131-7,7-7c3.871,0,7,3.14,7,7c0,2.39-1.189,4.49-3.01,5.76C56.65,47.67,54.91,46,52.779,46
					c1.102-0.01,1.99-0.891,1.99-2c0-1.101-0.9-2-2-2C51.66,42,50.77,42.899,50.77,44z"/>
			</g>
			<g>
				<path fill="#EAC6BB" d="M52.77,42c1.1,0,2,0.899,2,2c0,1.109-0.889,1.99-1.99,2h-0.01c-1.109,0-2-0.891-2-2
					C50.77,42.899,51.66,42,52.77,42z"/>
			</g>
			<g>
				<path fill="#48CFAD" d="M52.779,46c2.131,0,3.871,1.67,3.99,3.77c-1.129,0.78-2.51,1.24-3.99,1.24
					c-1.479,0-2.859-0.46-3.99-1.25c0.121-2.09,1.852-3.75,3.98-3.76H52.779z"/>
			</g>
			<g>
				<path fill="#434A54" d="M52.779,37.01c-0.695,0-1.365,0.104-2,0.294c2.893,0.861,5,3.54,5,6.706c0,2.39-1.189,4.49-3.01,5.76
					c-0.598,0.413-1.27,0.729-1.986,0.941c0.635,0.189,1.303,0.299,1.996,0.299c1.48,0,2.861-0.46,3.99-1.24
					c1.82-1.27,3.01-3.37,3.01-5.76C59.779,40.149,56.65,37.01,52.779,37.01z"/>
			</g>
			<g>
				<path fill="#37BC9B" d="M55.182,46.823c-0.523,1.189-1.355,2.21-2.412,2.946c-0.598,0.413-1.27,0.729-1.986,0.941
					c0.316,0.095,0.641,0.169,0.971,0.22c0.336,0.049,0.678,0.079,1.025,0.079c1.48,0,2.861-0.46,3.99-1.24
					C56.701,48.563,56.086,47.511,55.182,46.823z"/>
			</g>
		</g>
		<g>
			<g>
				<path fill="#656D78" d="M9.211,20c0,1.109,0.889,2,2,2c-2.131,0.01-3.861,1.67-3.98,3.76c-1.82-1.26-3.01-3.36-3.01-5.75
					c0-3.86,3.129-7,7-7c3.869,0,7,3.14,7,7c0,2.39-1.189,4.49-3.01,5.76C15.09,23.67,13.35,22,11.221,22
					c1.1-0.01,1.99-0.891,1.99-2c0-1.101-0.9-2-2-2C10.1,18,9.211,18.899,9.211,20z"/>
			</g>
			<g>
				<path fill="#EAC6BB" d="M11.211,18c1.1,0,2,0.899,2,2c0,1.109-0.891,1.99-1.99,2h-0.01c-1.111,0-2-0.891-2-2
					C9.211,18.899,10.1,18,11.211,18z"/>
			</g>
			<g>
				<path fill="#48CFAD" d="M11.221,22c2.129,0,3.869,1.67,3.99,3.77c-1.131,0.78-2.51,1.24-3.99,1.24s-2.859-0.46-3.99-1.25
					c0.119-2.09,1.85-3.75,3.98-3.76H11.221z"/>
			</g>
			<g>
				<path fill="#434A54" d="M11.221,13.01c-0.695,0-1.367,0.104-2,0.294c2.893,0.861,5,3.54,5,6.706c0,2.39-1.189,4.49-3.01,5.76
					c-0.6,0.413-1.271,0.729-1.988,0.941c0.635,0.189,1.303,0.299,1.998,0.299c1.48,0,2.859-0.46,3.99-1.24
					c1.82-1.27,3.01-3.37,3.01-5.76C18.221,16.149,15.09,13.01,11.221,13.01z"/>
			</g>
			<g>
				<path fill="#37BC9B" d="M13.621,22.823c-0.521,1.189-1.355,2.21-2.41,2.946c-0.6,0.413-1.271,0.729-1.988,0.941
					c0.316,0.095,0.641,0.169,0.973,0.22c0.336,0.049,0.676,0.079,1.025,0.079c1.48,0,2.859-0.46,3.99-1.24
					C15.141,24.563,14.527,23.511,13.621,22.823z"/>
			</g>
		</g>
		<g>
			<g>
				<path fill="#656D78" d="M50.77,19.99c0,1.109,0.891,2,2,2c-2.129,0.01-3.859,1.67-3.98,3.76c-1.818-1.26-3.01-3.36-3.01-5.75
					c0-3.86,3.131-7,7-7c3.871,0,7,3.14,7,7c0,2.39-1.189,4.49-3.01,5.76c-0.119-2.1-1.859-3.77-3.99-3.77
					c1.102-0.01,1.99-0.891,1.99-2c0-1.101-0.9-2-2-2C51.66,17.99,50.77,18.89,50.77,19.99z"/>
			</g>
			<g>
				<path fill="#EAC6BB" d="M52.77,17.99c1.1,0,2,0.899,2,2c0,1.109-0.889,1.99-1.99,2h-0.01c-1.109,0-2-0.891-2-2
					C50.77,18.89,51.66,17.99,52.77,17.99z"/>
			</g>
			<g>
				<path fill="#ED5565" d="M52.779,21.99c2.131,0,3.871,1.67,3.99,3.77c-1.129,0.78-2.51,1.24-3.99,1.24
					c-1.479,0-2.859-0.46-3.99-1.25c0.121-2.09,1.852-3.75,3.98-3.76H52.779z"/>
			</g>
			<g>
				<path fill="#434A54" d="M52.779,13c-0.695,0-1.365,0.104-2,0.294c2.893,0.861,5,3.54,5,6.706c0,2.39-1.189,4.49-3.01,5.76
					c-0.598,0.413-1.27,0.729-1.986,0.941C51.418,26.891,52.086,27,52.779,27c1.48,0,2.861-0.46,3.99-1.24
					c1.82-1.27,3.01-3.37,3.01-5.76C59.779,16.14,56.65,13,52.779,13z"/>
			</g>
			<g>
				<path fill="#DA4453" d="M55.182,22.813c-0.523,1.189-1.355,2.21-2.412,2.946c-0.598,0.413-1.27,0.729-1.986,0.941
					c0.316,0.095,0.641,0.169,0.971,0.22C52.09,26.97,52.432,27,52.779,27c1.48,0,2.861-0.46,3.99-1.24
					C56.701,24.553,56.086,23.501,55.182,22.813z"/>
			</g>
		</g>
		<g>
			<path fill="#EDAB37" d="M33,30.99c1.66,0,3,1.35,3,3c0,1.66-1.34,3-3,3h-2h-2v-6H33z"/>
		</g>
		<g>
			<path fill="#EDAB37" d="M31,26.99h2c1.109,0,2,0.899,2,2c0,1.109-0.891,2-2,2h-4v-4H31z"/>
		</g>
		<g>
			<path fill="#FFCE54" d="M31,36.99h2c1.66,0,3-1.34,3-3c0-1.65-1.34-3-3-3c1.109,0,2-0.891,2-2c0-1.101-0.891-2-2-2h-2h-2v4v6H31z
				 M42.391,38c-2.221,3.86-6.25,6.01-10.4,6.01c-2.041,0-4.1-0.529-5.99-1.62c-5.74-3.31-7.699-10.64-4.391-16.38
				c2.221-3.84,6.24-5.99,10.381-6C34.029,20,36.1,20.52,38,21.62c1.891,1.09,3.369,2.61,4.381,4.38
				C44.461,29.59,44.609,34.16,42.391,38z"/>
		</g>
		<g>
			<g>
				<path fill="#F6BB42" d="M42.381,26c-1.012-1.77-2.49-3.29-4.381-4.38c-1.9-1.101-3.971-1.62-6.01-1.61
					c-0.666,0.002-1.324,0.078-1.975,0.188c1.363,0.231,2.713,0.686,3.984,1.422c1.891,1.09,3.369,2.61,4.381,4.38
					c2.08,3.59,2.229,8.16,0.01,12c-1.857,3.23-4.986,5.242-8.391,5.819c0.662,0.113,1.326,0.19,1.99,0.19
					c4.15,0,8.18-2.149,10.4-6.01C44.609,34.16,44.461,29.59,42.381,26z"/>
			</g>
		</g>
	</g>
	<g>
		<g>
			<g>
				<g>
					<path d="M29,37.994c-0.553,0-1-0.447-1-1v-10c0-0.553,0.447-1,1-1s1,0.447,1,1v10C30,37.547,29.553,37.994,29,37.994z"/>
				</g>
				<g>
					<path d="M33,31.992c-0.553,0-1-0.447-1-1s0.447-1,1-1c0.552,0,1-0.448,1-0.999s-0.448-0.999-1-0.999c-0.553,0-1-0.447-1-1
						s0.447-1,1-1c1.654,0,3,1.346,3,2.999S34.654,31.992,33,31.992z"/>
				</g>
				<g>
					<path d="M32.998,37.994c-0.553,0-1-0.447-1-1s0.447-1,1-1c1.104,0,2.002-0.897,2.002-2c0-1.104-0.898-2.002-2.002-2.002
						c-0.553,0-1-0.447-1-1s0.447-1,1-1c2.207,0,4.002,1.795,4.002,4.002C37,36.2,35.205,37.994,32.998,37.994z"/>
				</g>
				<g>
					<path d="M33,27.994h-5c-0.553,0-1-0.447-1-1s0.447-1,1-1h5c0.553,0,1,0.447,1,1S33.553,27.994,33,27.994z"/>
				</g>
				<g>
					<path d="M32.998,37.994H28c-0.553,0-1-0.447-1-1s0.447-1,1-1h4.998c0.553,0,1,0.447,1,1S33.551,37.994,32.998,37.994z"/>
				</g>
				<g>
					<path d="M33,31.992h-4c-0.553,0-1-0.447-1-1s0.447-1,1-1h4c0.553,0,1,0.447,1,1S33.553,31.992,33,31.992z"/>
				</g>
				<g>
					<path d="M31,27.994c-0.553,0-1-0.447-1-1v-1c0-0.553,0.447-1,1-1s1,0.447,1,1v1C32,27.547,31.553,27.994,31,27.994z"/>
				</g>
				<g>
					<path d="M31,38.994c-0.553,0-1-0.447-1-1v-1c0-0.553,0.447-1,1-1s1,0.447,1,1v1C32,38.547,31.553,38.994,31,38.994z"/>
				</g>
			</g>
			<g>
				<path d="M31.99,45.006c-2.27,0-4.514-0.604-6.49-1.745c-3.008-1.735-5.158-4.537-6.057-7.891s-0.437-6.856,1.3-9.863
					c2.314-4.01,6.631-6.501,11.266-6.501c2.27,0,4.514,0.604,6.489,1.744c3.007,1.735,5.158,4.538,6.057,7.892
					s0.437,6.856-1.3,9.863C40.94,42.515,36.625,45.006,31.99,45.006z M32.009,21.006c-3.922,0-7.575,2.107-9.533,5.501
					c-1.47,2.545-1.86,5.509-1.101,8.346s2.58,5.208,5.125,6.676c1.673,0.967,3.571,1.478,5.49,1.478
					c3.922,0,7.574-2.108,9.532-5.501c1.47-2.545,1.86-5.509,1.101-8.346c-0.76-2.838-2.58-5.209-5.125-6.677
					C35.825,21.517,33.928,21.006,32.009,21.006z"/>
			</g>
		</g>
		<g>
			<path d="M31.986,21.008c-0.553,0-1-0.447-1-1v-5.002c0-0.553,0.447-1,1-1s1,0.447,1,1v5.002
				C32.986,20.561,32.539,21.008,31.986,21.008z"/>
		</g>
		<g>
			<path d="M31.986,49.994c-0.553,0-1-0.447-1-1v-5.009c0-0.553,0.447-1,1-1s1,0.447,1,1v5.009
				C32.986,49.547,32.539,49.994,31.986,49.994z"/>
		</g>
		<g>
			<path d="M21.601,27.004c-0.17,0-0.342-0.043-0.499-0.134l-4.332-2.501c-0.479-0.276-0.643-0.888-0.366-1.366
				s0.888-0.644,1.366-0.366l4.332,2.501c0.479,0.276,0.643,0.888,0.366,1.366C22.282,26.824,21.946,27.004,21.601,27.004z"/>
		</g>
		<g>
			<path d="M46.704,41.497c-0.17,0-0.342-0.043-0.499-0.134l-4.338-2.505c-0.479-0.276-0.643-0.888-0.366-1.366
				c0.276-0.479,0.889-0.643,1.366-0.366l4.338,2.505c0.479,0.276,0.643,0.888,0.366,1.366
				C47.386,41.318,47.05,41.497,46.704,41.497z"/>
		</g>
		<g>
			<path d="M17.271,41.498c-0.346,0-0.682-0.179-0.867-0.5c-0.276-0.479-0.112-1.09,0.366-1.366l4.332-2.502
				c0.476-0.276,1.089-0.113,1.366,0.366c0.276,0.479,0.112,1.09-0.366,1.366l-4.332,2.502
				C17.612,41.455,17.44,41.498,17.271,41.498z"/>
		</g>
		<g>
			<path d="M42.368,27.007c-0.346,0-0.682-0.179-0.867-0.5c-0.276-0.479-0.112-1.09,0.366-1.366l4.338-2.505
				c0.477-0.276,1.09-0.113,1.366,0.366c0.276,0.479,0.112,1.09-0.366,1.366l-4.338,2.505C42.71,26.964,42.538,27.007,42.368,27.007
				z"/>
		</g>
		<g>
			<g>
				<path d="M31.998,16.006c-4.411,0-8-3.589-8-8s3.589-8,8-8s8,3.589,8,8S36.409,16.006,31.998,16.006z M31.998,2.006
					c-3.309,0-6,2.691-6,6s2.691,6,6,6s6-2.691,6-6S35.307,2.006,31.998,2.006z"/>
			</g>
			<g>
				<path d="M31.986,10.994c-1.654,0-3-1.346-3-3s1.346-3,3-3s3,1.346,3,3S33.641,10.994,31.986,10.994z M31.986,6.994
					c-0.552,0-1,0.448-1,1s0.448,1,1,1s1-0.448,1-1S32.538,6.994,31.986,6.994z"/>
			</g>
			<g>
				<path d="M35.991,14.757c-0.525,0-0.966-0.41-0.997-0.941c-0.093-1.582-1.409-2.821-2.996-2.821
					c-1.586,0-2.901,1.238-2.994,2.819c-0.032,0.551-0.509,0.963-1.057,0.939c-0.552-0.032-0.972-0.505-0.939-1.057
					c0.154-2.637,2.347-4.702,4.99-4.702c2.645,0,4.838,2.066,4.992,4.704c0.032,0.552-0.388,1.024-0.939,1.057
					C36.031,14.756,36.011,14.757,35.991,14.757z"/>
			</g>
		</g>
		<g>
			<g>
				<path d="M31.998,63.994c-4.411,0-8-3.589-8-8s3.589-8,8-8s8,3.589,8,8S36.409,63.994,31.998,63.994z M31.998,49.994
					c-3.309,0-6,2.691-6,6s2.691,6,6,6s6-2.691,6-6S35.307,49.994,31.998,49.994z"/>
			</g>
			<g>
				<path d="M31.986,58.982c-1.654,0-3-1.346-3-3s1.346-3,3-3s3,1.346,3,3S33.641,58.982,31.986,58.982z M31.986,54.982
					c-0.552,0-1,0.448-1,1s0.448,1,1,1s1-0.448,1-1S32.538,54.982,31.986,54.982z"/>
			</g>
			<g>
				<path d="M35.991,62.745c-0.525,0-0.966-0.41-0.997-0.941c-0.093-1.582-1.409-2.821-2.996-2.821
					c-1.586,0-2.901,1.238-2.994,2.819c-0.032,0.551-0.509,0.969-1.057,0.939c-0.552-0.032-0.972-0.505-0.939-1.057
					c0.154-2.637,2.347-4.702,4.99-4.702c2.645,0,4.838,2.066,4.992,4.704c0.032,0.552-0.388,1.024-0.939,1.057
					C36.031,62.744,36.011,62.745,35.991,62.745z"/>
			</g>
		</g>
		<g>
			<g>
				<path d="M11.219,28.004L11.219,28.004c-4.411-0.001-8-3.59-8-8c0-4.411,3.589-8,8-8c2.137,0,4.146,0.832,5.657,2.344
					c1.512,1.511,2.344,3.521,2.343,5.657C19.219,24.414,15.63,28.003,11.219,28.004z M11.219,14.004c-3.309,0-6,2.691-6,6
					c0,3.308,2.691,5.999,6,6c3.309-0.001,6-2.692,6-6c0.001-1.603-0.623-3.108-1.757-4.242S12.821,14.004,11.219,14.004z"/>
			</g>
			<g>
				<path d="M11.207,22.992L11.207,22.992c-1.654-0.002-3-1.348-3-3c0-1.654,1.346-3,3-3s3,1.345,3,2.998
					C14.207,21.646,12.861,22.992,11.207,22.992z M11.207,18.992c-0.552,0-1,0.448-1,1c0,0.551,0.449,0.999,1.001,1
					c0.551,0,0.999-0.449,0.999-1.002C12.207,19.439,11.759,18.992,11.207,18.992z"/>
			</g>
			<g>
				<path d="M15.21,26.756c-0.525,0-0.966-0.41-0.997-0.941c-0.093-1.583-1.408-2.822-2.994-2.822s-2.901,1.239-2.994,2.82
					c-0.032,0.551-0.519,0.966-1.057,0.939c-0.552-0.032-0.972-0.505-0.939-1.057c0.154-2.638,2.347-4.703,4.99-4.703
					s4.836,2.066,4.99,4.705c0.032,0.552-0.389,1.024-0.939,1.057C15.25,26.755,15.229,26.756,15.21,26.756z"/>
			</g>
		</g>
		<g>
			<g>
				<path d="M52.777,51.998c-4.41,0-7.998-3.589-7.998-8s3.587-8,7.996-8c4.412,0,8.002,3.589,8.002,8
					c0.001,2.137-0.831,4.146-2.342,5.657C56.924,51.166,54.915,51.998,52.777,51.998z M52.777,37.998
					c-1.603,0-3.108,0.624-4.241,1.758c-1.133,1.133-1.757,2.64-1.757,4.242c0,3.309,2.69,6,5.998,6c1.604,0,3.11-0.624,4.244-1.757
					c1.133-1.134,1.757-2.641,1.756-4.242C58.777,40.689,56.086,37.998,52.777,37.998z"/>
			</g>
			<g>
				<path d="M52.768,46.986c-1.652,0-2.999-1.345-3.002-2.998c0-1.656,1.346-3.002,3-3.002c1.652,0,2.999,1.345,3.002,2.998
					C55.765,45.642,54.419,46.986,52.768,46.986z M52.766,42.986c-0.552,0-1,0.448-1,1c0.001,0.551,0.45,1,1.002,1
					c0.551,0,0.999-0.449,1-1.002C53.767,43.436,53.317,42.986,52.766,42.986z"/>
			</g>
			<g>
				<path d="M56.771,50.75c-0.525,0-0.966-0.41-0.997-0.941c-0.093-1.583-1.409-2.822-2.996-2.822c-1.585,0-2.899,1.239-2.992,2.82
					c-0.032,0.551-0.515,0.962-1.057,0.939c-0.552-0.032-0.972-0.505-0.939-1.057c0.154-2.638,2.346-4.703,4.988-4.703
					c2.645,0,4.838,2.066,4.992,4.705c0.032,0.552-0.389,1.024-0.939,1.057C56.811,50.749,56.79,50.75,56.771,50.75z"/>
			</g>
		</g>
		<g>
			<g>
				<path d="M11.225,51.996c0,0-0.004,0-0.005,0c-4.412,0-7.999-3.588-7.999-7.998c0.002-4.411,3.591-8,8-8
					c4.412,0,8,3.589,8.002,7.999C19.221,48.408,15.633,51.996,11.225,51.996z M11.225,37.998c-3.311,0-6.002,2.691-6.004,6.001
					c0,3.307,2.69,5.997,5.996,5.997l0.008,1v-1c3.306,0,5.996-2.691,5.998-5.999C17.221,40.689,14.53,37.998,11.225,37.998z"/>
			</g>
			<g>
				<path d="M11.209,46.984c-1.654,0-3-1.346-3-3c0-1.653,1.347-2.998,3.002-2.998c0.802,0,1.556,0.312,2.121,0.879
					c0.565,0.565,0.877,1.317,0.877,2.118C14.209,45.638,12.863,46.984,11.209,46.984z M11.213,42.986
					c-0.554,0-1.004,0.447-1.004,0.998c0,0.552,0.448,1,1,1s1-0.449,1-1.001C12.209,43.434,11.762,42.986,11.213,42.986z"/>
			</g>
			<g>
				<path d="M15.214,50.748c-0.525,0-0.966-0.409-0.997-0.94c-0.095-1.583-1.41-2.823-2.996-2.823s-2.901,1.239-2.994,2.82
					c-0.032,0.551-0.521,0.964-1.057,0.939c-0.552-0.032-0.972-0.505-0.939-1.057c0.154-2.638,2.347-4.703,4.99-4.703
					c2.643,0,4.835,2.066,4.992,4.704c0.033,0.552-0.388,1.025-0.938,1.058C15.254,50.747,15.234,50.748,15.214,50.748z"/>
			</g>
		</g>
		<g>
			<g>
				<path d="M52.779,28.004C52.779,28.004,52.779,28.004,52.779,28.004c-4.41-0.002-7.998-3.591-7.998-8c0-4.411,3.587-8,7.996-8
					c4.411,0,8.002,3.589,8.004,7.999C60.779,24.415,57.189,28.004,52.779,28.004z M52.779,14.004c-1.603,0-3.108,0.624-4.241,1.758
					c-1.133,1.133-1.757,2.64-1.757,4.242c0,3.307,2.691,5.998,5.999,6c3.307,0,5.999-2.692,6.001-6.001
					C58.779,16.695,56.087,14.004,52.779,14.004z"/>
			</g>
			<g>
				<path d="M52.77,22.991c-1.655,0-3.002-1.346-3.002-2.999c0-1.654,1.347-3,3.002-3c1.654,0,3,1.346,3,3
					C55.767,21.646,54.421,22.991,52.77,22.991z M52.77,18.992c-0.553,0-1.002,0.448-1.002,1c0,0.551,0.448,0.999,1,0.999h0.002
					c0.551,0,0.999-0.449,1-1.001C53.77,19.44,53.321,18.992,52.77,18.992z"/>
			</g>
			<g>
				<path d="M56.772,26.756c-0.525,0-0.966-0.41-0.997-0.941c-0.093-1.583-1.409-2.822-2.996-2.822c-1.585,0-2.899,1.239-2.994,2.82
					c-0.033,0.552-0.514,0.96-1.058,0.938c-0.552-0.032-0.972-0.506-0.938-1.058c0.157-2.636,2.349-4.701,4.99-4.701
					c2.645,0,4.838,2.066,4.992,4.705c0.032,0.552-0.389,1.024-0.939,1.057C56.813,26.755,56.792,26.756,56.772,26.756z"/>
			</g>
		</g>
	</g>
</g>
<g id="_x32_2_block_x2C__chain_x2C__cryptocurrency_x2C__technology_x2C__future">
</g>
<g id="_x32_1_smart_contact_x2C__contact_x2C__block_x2C__chain_x2C__cryptocurrency">
</g>
<g id="_x32_0_lock_x2C__safe_x2C__protection_x2C__block_x2C__chain_x2C__cryptocurrency_x2C__program">
</g>
<g id="_x31_9_server_x2C__data_x2C__bitcoin_x2C__coin_x2C__block_x2C__chain_x2C__cryptocurrency">
</g>
<g id="_x31_8_key_x2C__bitcoin_x2C__coin_x2C__block_x2C__chain_x2C__cryptocurrency">
</g>
<g id="_x31_7_pool_x2C__network_x2C__bitcoin_x2C__coin_x2C__block_x2C__chain_x2C__cryptocurrency">
</g>
<g id="_x31_6_mining_x2C__shovel_x2C__mine_x2C__coin_x2C__block_x2C__chain_x2C__cryptocurrency">
</g>
<g id="_x31_5_purse_x2C__bitcoin_x2C__coin_x2C__block_x2C__chain_x2C__cryptocurrency">
</g>
<g id="_x31_4_safe_x2C__protection_x2C__block_x2C__chain_x2C__cryptocurrency_x2C__program">
</g>
<g id="_x31_3_mining_x2C__funnel_x2C__satoshi_x2C__bitcoin_x2C__coin_x2C__cryptocurrency">
</g>
<g id="_x31_2_chart_x2C__bitcoin_x2C__coin_x2C__block_x2C__chain_x2C__cryptocurrency">
</g>
<g id="_x31_1_computer_x2C__monitor_x2C__bitcoin_x2C__coin_x2C__block_x2C__chain_x2C__cryptocurrency">
</g>
<g id="_x31_0_mining_x2C__pickaxe_x2C__stone_x2C__mine_x2C___bitcoin_x2C__coin_x2C__cryptocurrency">
</g>
<g id="_x39__miner_x2C__mining_x2C__computer_x2C__pickaxe_x2C__program_x2C__cryptocurrency">
</g>
<g id="_x38__video_card_x2C__mining_x2C__bitcoin_x2C__coin_x2C__block_x2C__chain_x2C__cryptocurrency">
</g>
<g id="_x37__exchanger_x2C__site_x2C__bitcoin_x2C__coin_x2C__block_x2C__chain_x2C__cryptocurrency">
</g>
<g id="_x36__shop_x2C__product_x2C__bitcoin_x2C__coin_x2C__block_x2C__chain_x2C__cryptocurrency">
</g>
<g id="_x35__bitcoin_x2C__coin_x2C__exchange_x2C__block_x2C__chain_x2C__cryptocurrency_x2C__product">
</g>
<g id="_x34__bitcoin_x2C__coin_x2C__exchange_x2C__block_x2C__chain_x2C__cryptocurrency">
</g>
<g id="_x33__bitcoin_x2C__coin_x2C__exchange_x2C__block_x2C__chain_x2C__cryptocurrency">
</g>
<g id="_x32__brain_x2C__smart_x2C__coin_x2C__block_x2C__chain_x2C__cryptocurrency">
</g>
<g id="_x31__bitcoin_x2C__coin_x2C__block_x2C__chain_x2C__cryptocurrency">
</g>
</svg>
