<?xml version="1.0" encoding="utf-8"?>
<!-- Generator: Adobe Illustrator 16.0.0, SVG Export Plug-In . SVG Version: 6.00 Build 0)  -->
<!DOCTYPE svg PUBLIC "-//W3C//DTD SVG 1.1//EN" "http://www.w3.org/Graphics/SVG/1.1/DTD/svg11.dtd">
<svg version="1.1" xmlns="http://www.w3.org/2000/svg" xmlns:xlink="http://www.w3.org/1999/xlink" x="0px" y="0px" width="64px"
	 height="64px" viewBox="0 0 64 64" enable-background="new 0 0 64 64" xml:space="preserve">
<g id="_x35_0_code_x2C__programming_x2C__program_x2C__bitcoin_x2C__block_x2C__chain_x2C__cryptocurrency">
</g>
<g id="_x34_9_balloon_x2C__takeoff_x2C__bitcoin_x2C__coin_x2C__block_x2C__chain_x2C__cryptocurrency">
</g>
<g id="_x34_8_video_card_x2C__mining_x2C__farm_x2C__computer_x2C__block_x2C__chain_x2C__cryptocurrency">
</g>
<g id="_x34_7_money_box_x2C__saving_x2C__bitcoin_x2C__coin_x2C__block_x2C__chain_x2C__cryptocurrency">
</g>
<g id="_x34_6_portfolio_x2C__finance_x2C__bank_note_x2C__bitcoin_x2C__coin_x2C__cryptocurrency">
	<g>
		<g>
			<path fill="#8CC152" d="M40.98,33c2.209,0,4,1.79,4,4c0,2.211-1.791,4-4,4c-2.201,0-4-1.789-4-4C36.98,34.79,38.779,33,40.98,33z
				"/>
		</g>
		<g>
			<path fill="#8CC152" d="M25.98,29h4c0,2.211-1.781,4-4,4V29z"/>
		</g>
		<g>
			<path fill="#8CC152" d="M29.98,45h-4v-4C28.199,41,29.98,42.79,29.98,45z"/>
		</g>
		<g>
			<path fill="#8CC152" d="M55.98,41v4h-4C51.98,42.79,53.77,41,55.98,41z"/>
		</g>
		<g>
			<path fill="#8CC152" d="M55.98,29v4c-2.211,0-4-1.789-4-4H55.98z"/>
		</g>
		<g>
			<path fill="#A0D468" d="M55.98,33v8c-2.211,0-4,1.79-4,4h-22c0-2.21-1.781-4-4-4v-8c2.219,0,4-1.789,4-4h22
				C51.98,31.211,53.77,33,55.98,33z M44.98,37c0-2.21-1.791-4-4-4c-2.201,0-4,1.79-4,4c0,2.211,1.799,4,4,4
				C43.189,41,44.98,39.211,44.98,37z"/>
		</g>
		<g>
			<path fill="#ED5565" d="M46.98,13v2h-3h-12h-3v-2c0-1.109,0.898-2,2-2h14C46.09,11,46.98,11.891,46.98,13z"/>
		</g>
		<g>
			<path fill="#DA4453" d="M44.98,11h-4c1.109,0,2,0.891,2,2v2h1h3v-2C46.98,11.891,46.09,11,44.98,11z"/>
		</g>
		<g>
			<path fill="#844646" d="M19.02,21v32l-6-6v-6.069c1.26-0.73,2.291-1.78,3-3.05v-7.75c-0.699-1.28-1.74-2.33-3-3.061V15L19.02,21z
				"/>
		</g>
		<g>
			<polygon fill="#773E3E" points="46.98,15 56.98,15 62.98,21 19.02,21 13.02,15 28.98,15 31.98,15 43.98,15 			"/>
		</g>
		<g>
			<path fill="#965353" d="M62.98,21v32H19.02V21H62.98z M55.98,45v-4v-8v-4h-4h-22h-4v4v8v4h4h22H55.98z"/>
		</g>
		<g>
			<g>
				<rect x="58.98" y="21" fill="#844646" width="4" height="32"/>
			</g>
		</g>
		<g>
			<path fill="#EDAB37" d="M9.52,30c0.83,0,1.5,0.671,1.5,1.5c0,0.83-0.67,1.5-1.5,1.5h-2.5v-3h1H9.52z"/>
		</g>
		<g>
			<path fill="#EDAB37" d="M10.02,33c1.1,0,2,0.9,2,2c0,1.101-0.9,2-2,2h-2h-1v-4h2.5H10.02z"/>
		</g>
		<g>
			<path fill="#FFCE54" d="M9.52,33c0.83,0,1.5-0.67,1.5-1.5c0-0.829-0.67-1.5-1.5-1.5h-1.5h-1v3v4h1h2c1.1,0,2-0.899,2-2
				c0-1.1-0.9-2-2-2H9.52z M16.02,30.131v7.75c-0.709,1.27-1.74,2.319-3,3.05C11.85,41.61,10.48,42,9.02,42c-4.42,0-8-3.579-8-8
				c0-4.42,3.58-8,8-8c1.461,0,2.82,0.381,4,1.07C14.279,27.801,15.32,28.851,16.02,30.131z"/>
		</g>
		<g>
			<rect x="28.982" y="15" fill="#CCD1D9" width="2.998" height="3"/>
		</g>
		<g>
			<rect x="43.98" y="15" fill="#CCD1D9" width="2.998" height="3"/>
		</g>
	</g>
	<g>
		<g>
			<g>
				<g>
					<path d="M9.518,34c-0.553,0-1-0.447-1-1s0.447-1,1-1c0.275,0,0.5-0.225,0.5-0.5S9.793,31,9.518,31c-0.553,0-1-0.447-1-1
						s0.447-1,1-1c1.379,0,2.5,1.121,2.5,2.5S10.896,34,9.518,34z"/>
				</g>
				<g>
					<path d="M10.018,38c-0.553,0-1-0.447-1-1s0.447-1,1-1c0.552,0,1-0.448,1-1s-0.448-1-1-1c-0.553,0-1-0.447-1-1s0.447-1,1-1
						c1.654,0,3,1.346,3,3S11.672,38,10.018,38z"/>
				</g>
				<g>
					<path d="M10.018,34h-3c-0.553,0-1-0.447-1-1s0.447-1,1-1h3c0.553,0,1,0.447,1,1S10.57,34,10.018,34z"/>
				</g>
				<g>
					<path d="M10.018,38h-4c-0.553,0-1-0.447-1-1s0.447-1,1-1h4c0.553,0,1,0.447,1,1S10.57,38,10.018,38z"/>
				</g>
				<g>
					<path d="M9.518,31h-3.5c-0.553,0-1-0.447-1-1s0.447-1,1-1h3.5c0.553,0,1,0.447,1,1S10.07,31,9.518,31z"/>
				</g>
				<g>
					<path d="M7.018,38c-0.553,0-1-0.447-1-1v-7c0-0.553,0.447-1,1-1s1,0.447,1,1v7C8.018,37.553,7.57,38,7.018,38z"/>
				</g>
				<g>
					<path d="M8.018,31c-0.553,0-1-0.447-1-1v-1c0-0.553,0.447-1,1-1s1,0.447,1,1v1C9.018,30.553,8.57,31,8.018,31z"/>
				</g>
				<g>
					<path d="M8.018,39c-0.553,0-1-0.447-1-1v-1c0-0.553,0.447-1,1-1s1,0.447,1,1v1C9.018,38.553,8.57,39,8.018,39z"/>
				</g>
			</g>
			<g>
				<g>
					<path d="M9.018,43c-4.963,0-9-4.037-9-9s4.037-9,9-9c3.271,0,6.289,1.778,7.875,4.642c0.268,0.482,0.093,1.092-0.391,1.359
						c-0.481,0.267-1.092,0.094-1.359-0.391C13.909,28.384,11.563,27,9.018,27c-3.859,0-7,3.141-7,7s3.141,7,7,7
						c2.543,0,4.89-1.383,6.126-3.609c0.268-0.482,0.874-0.658,1.359-0.389c0.482,0.268,0.657,0.876,0.389,1.359
						C15.304,41.223,12.287,43,9.018,43z"/>
				</g>
			</g>
		</g>
		<g>
			<path d="M62.982,54H19.018c-0.553,0-1-0.447-1-1V21c0-0.553,0.447-1,1-1h43.965c0.553,0,1,0.447,1,1v32
				C63.982,53.553,63.535,54,62.982,54z M20.018,52h41.965V22H20.018V52z"/>
		</g>
		<g>
			<path d="M56.982,16H13.018c-0.553,0-1-0.447-1-1s0.447-1,1-1h43.965c0.553,0,1,0.447,1,1S57.535,16,56.982,16z"/>
		</g>
		<g>
			<path d="M19.018,54c-0.256,0-0.512-0.098-0.707-0.293l-6-6c-0.391-0.391-0.391-1.023,0-1.414s1.023-0.391,1.414,0l6,6
				c0.391,0.391,0.391,1.023,0,1.414C19.529,53.902,19.273,54,19.018,54z"/>
		</g>
		<g>
			<path d="M62.982,22c-0.256,0-0.512-0.098-0.707-0.293l-6-6c-0.391-0.391-0.391-1.023,0-1.414s1.023-0.391,1.414,0l6,6
				c0.391,0.391,0.391,1.023,0,1.414C63.494,21.902,63.238,22,62.982,22z"/>
		</g>
		<g>
			<path d="M19.018,22c-0.256,0-0.512-0.098-0.707-0.293l-6-6c-0.391-0.391-0.391-1.023,0-1.414s1.023-0.391,1.414,0l6,6
				c0.391,0.391,0.391,1.023,0,1.414C19.529,21.902,19.273,22,19.018,22z"/>
		</g>
		<g>
			<path d="M16.018,43c-0.553,0-1-0.447-1-1V26c0-0.553,0.447-1,1-1s1,0.447,1,1v16C17.018,42.553,16.57,43,16.018,43z"/>
		</g>
		<g>
			<path d="M13.018,28.071c-0.553,0-1-0.447-1-1V15c0-0.553,0.447-1,1-1s1,0.447,1,1v12.071
				C14.018,27.624,13.57,28.071,13.018,28.071z"/>
		</g>
		<g>
			<path d="M13.018,48c-0.553,0-1-0.447-1-1v-6.07c0-0.553,0.447-1,1-1s1,0.447,1,1V47C14.018,47.553,13.57,48,13.018,48z"/>
		</g>
		<g>
			<path d="M55.982,46h-30c-0.553,0-1-0.447-1-1V29c0-0.553,0.447-1,1-1h30c0.553,0,1,0.447,1,1v16
				C56.982,45.553,56.535,46,55.982,46z M26.982,44h28V30h-28V44z"/>
		</g>
		<g>
			<path d="M25.982,34c-0.553,0-1-0.447-1-1s0.447-1,1-1c1.654,0,3-1.346,3-3c0-0.553,0.447-1,1-1s1,0.447,1,1
				C30.982,31.757,28.739,34,25.982,34z"/>
		</g>
		<g>
			<path d="M55.982,34c-2.757,0-5-2.243-5-5c0-0.553,0.447-1,1-1s1,0.447,1,1c0,1.654,1.346,3,3,3c0.553,0,1,0.447,1,1
				S56.535,34,55.982,34z"/>
		</g>
		<g>
			<path d="M29.982,46c-0.553,0-1-0.447-1-1c0-1.654-1.346-3-3-3c-0.553,0-1-0.447-1-1s0.447-1,1-1c2.757,0,5,2.243,5,5
				C30.982,45.553,30.535,46,29.982,46z"/>
		</g>
		<g>
			<path d="M51.982,46c-0.553,0-1-0.447-1-1c0-2.757,2.243-5,5-5c0.553,0,1,0.447,1,1s-0.447,1-1,1c-1.654,0-3,1.346-3,3
				C52.982,45.553,52.535,46,51.982,46z"/>
		</g>
		<g>
			<path d="M40.982,42c-2.757,0-5-2.243-5-5s2.243-5,5-5s5,2.243,5,5S43.739,42,40.982,42z M40.982,34c-1.654,0-3,1.346-3,3
				s1.346,3,3,3s3-1.346,3-3S42.637,34,40.982,34z"/>
		</g>
		<g>
			<path d="M44.982,12h-14c-0.553,0-1-0.447-1-1s0.447-1,1-1h14c0.553,0,1,0.447,1,1S45.535,12,44.982,12z"/>
		</g>
		<g>
			<path d="M46.982,14c-0.553,0-1-0.447-1-1c0-0.552-0.448-1-1-1c-0.553,0-1-0.447-1-1s0.447-1,1-1c1.654,0,3,1.346,3,3
				C47.982,13.553,47.535,14,46.982,14z"/>
		</g>
		<g>
			<path d="M28.982,14c-0.553,0-1-0.447-1-1c0-1.654,1.346-3,3-3c0.553,0,1,0.447,1,1s-0.447,1-1,1c-0.552,0-1,0.448-1,1
				C29.982,13.553,29.535,14,28.982,14z"/>
		</g>
		<g>
			<path d="M28.982,16c-0.553,0-1-0.447-1-1v-2c0-0.553,0.447-1,1-1s1,0.447,1,1v2C29.982,15.553,29.535,16,28.982,16z"/>
		</g>
		<g>
			<path d="M46.982,16c-0.553,0-1-0.447-1-1v-2c0-0.553,0.447-1,1-1s1,0.447,1,1v2C47.982,15.553,47.535,16,46.982,16z"/>
		</g>
		<g>
			<path d="M43.982,19c-0.553,0-1-0.447-1-1v-3c0-0.553,0.447-1,1-1s1,0.447,1,1v3C44.982,18.553,44.535,19,43.982,19z"/>
		</g>
		<g>
			<path d="M46.982,19c-0.553,0-1-0.447-1-1v-3c0-0.553,0.447-1,1-1s1,0.447,1,1v3C47.982,18.553,47.535,19,46.982,19z"/>
		</g>
		<g>
			<path d="M28.982,19c-0.553,0-1-0.447-1-1v-3c0-0.553,0.447-1,1-1s1,0.447,1,1v3C29.982,18.553,29.535,19,28.982,19z"/>
		</g>
		<g>
			<path d="M31.982,19c-0.553,0-1-0.447-1-1v-3c0-0.553,0.447-1,1-1s1,0.447,1,1v3C32.982,18.553,32.535,19,31.982,19z"/>
		</g>
	</g>
</g>
<g id="_x34_5_tap_x2C__water_x2C__bitcoin_x2C__coin_x2C__block_x2C__chain_x2C__cryptocurrency">
</g>
<g id="_x34_4_phone_x2C__bitcoin_x2C__coin_x2C__block_x2C__chain_x2C__cryptocurrency">
</g>
<g id="_x34_3_rocket_x2C__sun_x2C__bitcoin_x2C__coin_x2C__block_x2C__chain_x2C__cryptocurrency">
</g>
<g id="_x34_2_transfer_x2C__network_x2C__bitcoin_x2C__coin_x2C__block_x2C__chain_x2C__cryptocurrency">
</g>
<g id="_x34_1_scales_x2C__comparison_x2C__bitcoin_x2C__coin_x2C__block_x2C__chain_x2C__cryptocurrency">
</g>
<g id="_x34_0_calculator_x2C__calculating_x2C__bitcoin_x2C__coin_x2C__block_x2C__chain_x2C__cryptocurrency">
</g>
<g id="_x33_9_start-up_x2C__plant_x2C__hand_x2C__bitcoin_x2C__coin_x2C__cryptocurrency">
</g>
<g id="_x33_8_idea_x2C__bulb_x2C__bitcoin_x2C__coin_x2C__block_x2C__chain_x2C__cryptocurrency">
</g>
<g id="_x33_7_users_x2C__user_x2C__co-founder_x2C__bitcoin_x2C__coin_x2C__cryptocurrency">
</g>
<g id="_x33_6_safe_x2C__protection_x2C__bitcoin_x2C__coin_x2C__block_x2C__chain_x2C__cryptocurrency">
</g>
<g id="_x33_5_flash_drive_x2C__key_x2C__block_x2C__chain_x2C__cryptocurrency">
</g>
<g id="_x33_4_cloud_x2C__mining_x2C__bitcoin_x2C__coin_x2C__block_x2C__chain_x2C__cryptocurrency">
</g>
<g id="_x33_3_start_up_x2C__plant_x2C__bitcoin_x2C__coin_x2C__block_x2C__chain_x2C__cryptocurrency">
</g>
<g id="_x33_2_planet_x2C__bitcoin_x2C__coin_x2C__block_x2C__chain_x2C__cryptocurrency">
</g>
<g id="_x33_1_payment_x2C__hand_x2C__bitcoin_x2C__coin_x2C__block_x2C__chain_x2C__cryptocurrency">
</g>
<g id="_x33_0_user_x2C__laptop_x2C__bitcoin_x2C__coin_x2C__block_x2C__chain_x2C__cryptocurrency">
</g>
<g id="_x32_9_thief_x2C__bag_x2C__bitcoin_x2C__coin_x2C__block_x2C__chain_x2C__cryptocurrency">
</g>
<g id="_x32_8_code_x2C__programming_x2C__program_x2C__bitcoin_x2C__coin_x2C__cryptocurrency">
</g>
<g id="_x32_7_bitcoin_x2C__coin_x2C__block_x2C__chain_x2C__cryptocurrency">
</g>
<g id="_x32_6_shield_x2C__protection_x2C__bitcoin_x2C__coin_x2C__block_x2C__chain_x2C__cryptocurrency">
</g>
<g id="_x32_5_bug_x2C__laptop_x2C__miner_x2C__program_x2C__block_x2C__chain_x2C__cryptocurrency">
</g>
<g id="_x32_4_computer_x2C__monitor_x2C__bitcoin_x2C__coin_x2C__block_x2C__chain_x2C__cryptocurrency">
</g>
<g id="_x32_3_network_x2C__idea_x2C__bitcoin_x2C__coin_x2C__block_x2C__chain_x2C__cryptocurrency">
</g>
<g id="_x32_2_block_x2C__chain_x2C__cryptocurrency_x2C__technology_x2C__future">
</g>
<g id="_x32_1_smart_contact_x2C__contact_x2C__block_x2C__chain_x2C__cryptocurrency">
</g>
<g id="_x32_0_lock_x2C__safe_x2C__protection_x2C__block_x2C__chain_x2C__cryptocurrency_x2C__program">
</g>
<g id="_x31_9_server_x2C__data_x2C__bitcoin_x2C__coin_x2C__block_x2C__chain_x2C__cryptocurrency">
</g>
<g id="_x31_8_key_x2C__bitcoin_x2C__coin_x2C__block_x2C__chain_x2C__cryptocurrency">
</g>
<g id="_x31_7_pool_x2C__network_x2C__bitcoin_x2C__coin_x2C__block_x2C__chain_x2C__cryptocurrency">
</g>
<g id="_x31_6_mining_x2C__shovel_x2C__mine_x2C__coin_x2C__block_x2C__chain_x2C__cryptocurrency">
</g>
<g id="_x31_5_purse_x2C__bitcoin_x2C__coin_x2C__block_x2C__chain_x2C__cryptocurrency">
</g>
<g id="_x31_4_safe_x2C__protection_x2C__block_x2C__chain_x2C__cryptocurrency_x2C__program">
</g>
<g id="_x31_3_mining_x2C__funnel_x2C__satoshi_x2C__bitcoin_x2C__coin_x2C__cryptocurrency">
</g>
<g id="_x31_2_chart_x2C__bitcoin_x2C__coin_x2C__block_x2C__chain_x2C__cryptocurrency">
</g>
<g id="_x31_1_computer_x2C__monitor_x2C__bitcoin_x2C__coin_x2C__block_x2C__chain_x2C__cryptocurrency">
</g>
<g id="_x31_0_mining_x2C__pickaxe_x2C__stone_x2C__mine_x2C___bitcoin_x2C__coin_x2C__cryptocurrency">
</g>
<g id="_x39__miner_x2C__mining_x2C__computer_x2C__pickaxe_x2C__program_x2C__cryptocurrency">
</g>
<g id="_x38__video_card_x2C__mining_x2C__bitcoin_x2C__coin_x2C__block_x2C__chain_x2C__cryptocurrency">
</g>
<g id="_x37__exchanger_x2C__site_x2C__bitcoin_x2C__coin_x2C__block_x2C__chain_x2C__cryptocurrency">
</g>
<g id="_x36__shop_x2C__product_x2C__bitcoin_x2C__coin_x2C__block_x2C__chain_x2C__cryptocurrency">
</g>
<g id="_x35__bitcoin_x2C__coin_x2C__exchange_x2C__block_x2C__chain_x2C__cryptocurrency_x2C__product">
</g>
<g id="_x34__bitcoin_x2C__coin_x2C__exchange_x2C__block_x2C__chain_x2C__cryptocurrency">
</g>
<g id="_x33__bitcoin_x2C__coin_x2C__exchange_x2C__block_x2C__chain_x2C__cryptocurrency">
</g>
<g id="_x32__brain_x2C__smart_x2C__coin_x2C__block_x2C__chain_x2C__cryptocurrency">
</g>
<g id="_x31__bitcoin_x2C__coin_x2C__block_x2C__chain_x2C__cryptocurrency">
</g>
</svg>
