<svg xmlns="http://www.w3.org/2000/svg" x="0" y="0" xml:space="preserve" viewBox="0 0 64 64"><path fill="#656D78" d="M26.79 59.99h10.42A6.017 6.017 0 0 1 32 63.01a6.017 6.017 0 0 1-5.21-3.02z"/><path fill="#CCD1D9" d="M20 46.99 20 51.949 20 55.949 20 57.99 22 59.99 26.79 59.99 37.21 59.99 42 59.99 44 57.99 44 55.029 44 51.029 44 46.99z"/><path fill="#AAB2BD" d="M40 46.99 40 51.029 40 55.029 40 57.99 38 59.99 42 59.99 44 57.99 44 55.029 44 51.029 44 46.99z"/><path fill="#F5F7FA" d="M55 23.99c0 8.299-4.4 15.58-11 19.619v3.381H20v-3.381C13.4 39.57 9 32.289 9 23.99c0-12.711 10.3-23 23-23s23 10.289 23 23zm-11.96 2v-4c0-6.08-4.92-11-11-11-6.07 0-11 4.92-11 11v4a11.002 11.002 0 0 0 16 9.799c3.56-1.818 6-5.529 6-9.799z"/><path fill="#E6E9ED" d="M32 .99c-.675 0-1.341.035-2 .092C41.764 2.096 51 11.955 51 23.99c0 8.299-4.4 14.58-11 18.619v4.381h4v-3.381c6.6-4.039 11-11.32 11-19.619 0-12.711-10.3-23-23-23z"/><path fill="#EDAB37" d="M37.04 31.789c-1.5.771-3.2 1.201-5 1.201s-3.5-.43-5-1.201a11 11 0 0 1-6-9.799v4a11.002 11.002 0 0 0 16 9.799c3.56-1.818 6-5.529 6-9.799v-4c0 4.27-2.44 7.981-6 9.799zM31.04 16.99h2c1.11 0 2 .891 2 2a2 2 0 0 1-2 2h-4v-4h2z"/><path fill="#EDAB37" d="M33.04 20.99c1.66 0 3 1.34 3 3 0 1.65-1.34 3-3 3h-4v-6h4z"/><path fill="#FFCE54" d="M33.04 26.99c1.66 0 3-1.35 3-3 0-1.66-1.34-3-3-3a2 2 0 0 0 2-2c0-1.109-.89-2-2-2h-4v10h4zm10-5a11.004 11.004 0 0 1-11 11 11 11 0 0 1-11-11c0-6.08 4.93-11 11-11 6.08 0 11 4.92 11 11z"/><path fill="#F6BB42" d="M32.04 10.99c-.684 0-1.35.07-1.999.189 5.122.941 8.999 5.414 8.999 10.811 0 4.27-2.44 7.98-6 9.799-.929.479-1.941.805-3 1 .65.119 1.314.201 2 .201a11.002 11.002 0 0 0 11-11c0-6.08-4.92-11-11-11z"/><g><path d="M32.041 33.991c-6.617 0-12-5.383-12-12s5.383-12 12-12 12 5.383 12 12-5.383 12-12 12zm0-22c-5.514 0-10 4.486-10 10s4.486 10 10 10 10-4.486 10-10-4.486-10-10-10z"/><path d="M32.041 37.991c-6.617 0-12-5.383-12-12a1 1 0 1 1 2 0c0 5.514 4.486 10 10 10s10-4.486 10-10a1 1 0 1 1 2 0c0 6.617-5.383 12-12 12z"/><path d="M43.041 26.991a1 1 0 0 1-1-1v-4a1 1 0 1 1 2 0v4a1 1 0 0 1-1 1zM21.041 26.991a1 1 0 0 1-1-1v-4a1 1 0 1 1 2 0v4a1 1 0 0 1-1 1zM29.041 27.991a1 1 0 0 1-1-1v-10a1 1 0 1 1 2 0v10a1 1 0 0 1-1 1zM33.042 21.989a1 1 0 1 1 0-2 1 1 0 0 0 0-1.998 1 1 0 1 1 0-2c1.653 0 2.999 1.346 2.999 2.999s-1.346 2.999-2.999 2.999z"/><path d="M33.04 27.991a1 1 0 1 1 0-2 2.002 2.002 0 0 0 0-4.002 1 1 0 1 1 0-2 4.006 4.006 0 0 1 4.001 4.002c0 2.206-1.795 4-4.001 4zM33.042 17.991h-5.001a1 1 0 1 1 0-2h5.001a1 1 0 1 1 0 2z"/><path d="M33.04 27.991h-4.999a1 1 0 1 1 0-2h4.999a1 1 0 1 1 0 2zM33.042 21.989h-4.001a1 1 0 1 1 0-2h4.001a1 1 0 1 1 0 2zM31.041 17.991a1 1 0 0 1-1-1v-1a1 1 0 1 1 2 0v1a1 1 0 0 1-1 1z"/><path d="M31.041 28.991a1 1 0 0 1-1-1v-1a1 1 0 1 1 2 0v1a1 1 0 0 1-1 1z"/><g><path d="M27.041 36.791a1 1 0 0 1-1-1v-4a1 1 0 1 1 2 0v4a1 1 0 0 1-1 1z"/></g><g><path d="M37.041 36.791a1 1 0 0 1-1-1v-4a1 1 0 1 1 2 0v4a1 1 0 0 1-1 1z"/></g><g><path d="M32.041 37.991a1 1 0 0 1-1-1v-4a1 1 0 1 1 2 0v4a1 1 0 0 1-1 1z"/></g><g><path d="M44 47.991H20a1 1 0 0 1-1-1v-2.824C12.101 39.721 8 32.221 8 23.991c0-13.233 10.767-24 24-24s24 10.767 24 24c0 8.229-4.101 15.729-11 20.176v2.824a1 1 0 0 1-1 1zm-23-2h22v-2.377a1 1 0 0 1 .478-.853C50.066 38.724 54 31.707 54 23.991c0-12.131-9.869-22-22-22s-22 9.869-22 22c0 7.716 3.934 14.732 10.522 18.771a.999.999 0 0 1 .478.852v2.377z"/></g><g><path d="M41.999 60.991H22a.996.996 0 0 1-.707-.293l-2-2a.996.996 0 0 1-.293-.707v-11a1 1 0 0 1 1-1h24a1 1 0 0 1 1 1v11c0 .266-.105.52-.293.707l-2.001 2a.997.997 0 0 1-.707.293zm-19.585-2h19.171L43 57.577v-9.586H21v9.586l1.414 1.414z"/></g><g><path d="M18.999 52.991a1 1 0 0 1-.037-1.999l26-1c.516-.036 1.017.409 1.037.961a.999.999 0 0 1-.961 1.037l-26 1-.039.001z"/></g><g><path d="M18.999 56.991a1 1 0 0 1-.037-1.999l26-1c.516-.045 1.017.408 1.037.961a.999.999 0 0 1-.961 1.037l-26 1-.039.001z"/></g><g><path d="M32 64.009a7.02 7.02 0 0 1-6.074-3.52 1 1 0 0 1 1.734-.996c.891 1.552 2.553 2.516 4.34 2.516s3.449-.964 4.34-2.516a.998.998 0 0 1 1.365-.369.999.999 0 0 1 .369 1.365A7.02 7.02 0 0 1 32 64.009z"/></g></g></svg>