<svg xmlns="http://www.w3.org/2000/svg" x="0" y="0" xml:space="preserve" viewBox="0 0 64 64"><path fill="#DA4453" d="M37.5 1 37.5 4 34.5 4 29.5 4 26.5 4 26.5 1z"/><path fill="#CCD1D9" d="M37.5 10.01c.01 1.101-.89 2-2 2h-7c-1.11 0-2-.899-2-2V4h3v5h5V4h3v6.01z"/><path fill="#EDAB37" d="M55.5 59H60.5V63H55.5z"/><path fill="#F6BB42" d="M48.5 59H55.5V63H48.5z"/><path fill="#EDAB37" d="M45.5 52H50.5V56H45.5z"/><path fill="#FFCE54" d="M43.5 59H48.5V63H43.5z"/><path fill="#F6BB42" d="M38.5 52H45.5V56H38.5z"/><path fill="#EDAB37" d="M35.5 59H40.5V63H35.5z"/><path fill="#EDAB37" d="M35.5 45H40.5V49H35.5z"/><path fill="#FFCE54" d="M33.5 52H38.5V56H33.5z"/><path fill="#CCD1D9" d="M38.5 30v4c0 8-6.5 8-6.5 8s-6.5 0-6.5-8v-4h13z"/><path fill="#AAB2BD" d="M34.5 30v4c0 5.052-2.59 6.91-4.5 7.597 1.115.4 2 .403 2 .403s6.5 0 6.5-8v-4h-4z"/><path fill="#F6BB42" d="M28.5 59H35.5V63H28.5z"/><path fill="#F6BB42" d="M28.5 45H35.5V49H28.5z"/><path fill="#965353" d="M30.5 12.01H33.5V30H30.5z"/><path fill="#EDAB37" d="M25.5 52H30.5V56H25.5z"/><path fill="#FFCE54" d="M23.5 59H28.5V63H23.5z"/><path fill="#FFCE54" d="M23.5 45H28.5V49H23.5z"/><path fill="#F6BB42" d="M18.5 52H25.5V56H18.5z"/><path fill="#EDAB37" d="M15.5 59H20.5V63H15.5z"/><path fill="#FFCE54" d="M13.5 52H18.5V56H13.5z"/><path fill="#F6BB42" d="M8.5 59H15.5V63H8.5z"/><path fill="#FFCE54" d="M3.5 59H8.5V63H3.5z"/><g><path d="M60.5 63.997h-17a1 1 0 0 1-1-1v-3.998a1 1 0 0 1 1-1h17a1 1 0 0 1 1 1v3.998a1 1 0 0 1-1 1zm-16-2h15v-1.998h-15v1.998z"/><path d="M55.5 63.997a1 1 0 0 1-1-1v-3.998a1 1 0 1 1 2 0v3.998a1 1 0 0 1-1 1zM48.5 63.997a1 1 0 0 1-1-1v-4a1 1 0 1 1 2 0v4a1 1 0 0 1-1 1zM40.5 63.997h-17a1 1 0 0 1-1-1v-3.998a1 1 0 0 1 1-1h17a1 1 0 0 1 1 1v3.998a1 1 0 0 1-1 1zm-16-2h15v-1.998h-15v1.998z"/><path d="M35.5 63.997a1 1 0 0 1-1-1v-3.998a1 1 0 1 1 2 0v3.998a1 1 0 0 1-1 1zM28.5 63.997a1 1 0 0 1-1-1v-4a1 1 0 1 1 2 0v4a1 1 0 0 1-1 1zM20.5 63.997h-17a1 1 0 0 1-1-1v-3.998a1 1 0 0 1 1-1h17a1 1 0 0 1 1 1v3.998a1 1 0 0 1-1 1zm-16-2h15v-1.998h-15v1.998z"/><path d="M15.5 63.997a1 1 0 0 1-1-1v-3.998a1 1 0 1 1 2 0v3.998a1 1 0 0 1-1 1zM8.5 63.997a1 1 0 0 1-1-1v-4a1 1 0 1 1 2 0v4a1 1 0 0 1-1 1z"/><g><path d="M30.5 56.997h-17a1 1 0 0 1-1-1v-3.998a1 1 0 0 1 1-1h17a1 1 0 0 1 1 1v3.998a1 1 0 0 1-1 1zm-16-2h15v-1.998h-15v1.998z"/><path d="M25.5 56.997a1 1 0 0 1-1-1v-3.998a1 1 0 1 1 2 0v3.998a1 1 0 0 1-1 1zM18.5 56.997a1 1 0 0 1-1-1v-4a1 1 0 1 1 2 0v4a1 1 0 0 1-1 1z"/></g><g><path d="M40.5 49.997h-17a1 1 0 0 1-1-1v-3.998a1 1 0 0 1 1-1h17a1 1 0 0 1 1 1v3.998a1 1 0 0 1-1 1zm-16-2h15v-1.998h-15v1.998z"/><path d="M35.5 49.997a1 1 0 0 1-1-1v-3.998a1 1 0 1 1 2 0v3.998a1 1 0 0 1-1 1zM28.5 49.997a1 1 0 0 1-1-1v-4a1 1 0 1 1 2 0v4a1 1 0 0 1-1 1z"/></g><g><path d="M50.5 56.997h-17a1 1 0 0 1-1-1v-3.998a1 1 0 0 1 1-1h17a1 1 0 0 1 1 1v3.998a1 1 0 0 1-1 1zm-16-2h15v-1.998h-15v1.998z"/><path d="M45.5 56.997a1 1 0 0 1-1-1v-3.998a1 1 0 1 1 2 0v3.998a1 1 0 0 1-1 1zM38.5 56.997a1 1 0 0 1-1-1v-4a1 1 0 1 1 2 0v4a1 1 0 0 1-1 1z"/></g><g><path d="M30.501 31.004a1 1 0 0 1-1-1V12.013a1 1 0 1 1 2 0v17.991a1 1 0 0 1-1 1zM33.5 31.004a1 1 0 0 1-1-1l.001-17.99a1 1 0 1 1 2 0l-.001 17.99a1 1 0 0 1-1 1z"/><path d="M35.507 13.007h-.003a1 1 0 0 1 .001-2h.002a.993.993 0 0 0 .998-.999 1 1 0 0 1 .999-1.001h.001a1 1 0 0 1 1 .999 2.974 2.974 0 0 1-.878 2.123 2.979 2.979 0 0 1-2.12.878zM28.497 13.007a3.006 3.006 0 0 1-2.999-2.998.988.988 0 0 1 1-1.002 1 1 0 0 1 1 .998c.001.553.449 1.002.999 1.002a1 1 0 1 1 0 2z"/><path d="M28.501 13.013a1 1 0 0 1-.001-2l7.004-.006h.001a1 1 0 0 1 .001 2l-7.005.006zM26.498 11.007a1 1 0 0 1-1-1l.002-9.004a1 1 0 1 1 2 0l-.002 9.004a1 1 0 0 1-1 1z"/><path d="M37.505 2.003H26.5a1 1 0 1 1 0-2h11.005a1 1 0 1 1 0 2z"/><path d="M37.505 11.007a1 1 0 0 1-1-1V1.003a1 1 0 1 1 2 0v9.004a1 1 0 0 1-1 1z"/><path d="M37.505 5.003H26.5a1 1 0 1 1 0-2h11.005a1 1 0 1 1 0 2z"/><path d="M34.501 10.003a1 1 0 0 1-1-.999l-.003-5a1 1 0 0 1 .999-1.001h.001a1 1 0 0 1 1 .999l.003 5a1 1 0 0 1-1 1.001z"/><path d="M34.501 10.003h-5.002a1 1 0 1 1 0-2h5.002a1 1 0 1 1 0 2z"/><path d="M29.499 10.003a1 1 0 0 1-1-1v-5a1 1 0 1 1 2 0v5a1 1 0 0 1-1 1zM32 42.997a1 1 0 0 1-.004-2c.569-.006 5.504-.257 5.504-6.999a1 1 0 1 1 2 0c0 8.897-7.425 8.999-7.5 8.999z"/><path d="M32 42.997c-.075 0-7.5-.103-7.5-8.999a1 1 0 1 1 2 0c0 6.92 5.275 6.999 5.5 6.999a1 1 0 1 1 0 2z"/><path d="M25.5 34.998a1 1 0 0 1-1-1v-4a1 1 0 1 1 2 0v4a1 1 0 0 1-1 1zM38.5 34.998a1 1 0 0 1-1-1l.001-4a1 1 0 1 1 2 0l-.001 4a1 1 0 0 1-1 1z"/><path d="M38.501 30.998H25.5a1 1 0 1 1 0-2h13.001a1 1 0 1 1 0 2z"/></g></g></svg>