<svg xmlns="http://www.w3.org/2000/svg" viewBox="0 0 64 64"><path fill="#AC92EC" d="M61 3.5H3c-1.1 0-2 .9-2 2v40h62v-40c0-1.1-.899-2-2-2z"/><path fill="#967ADC" d="M61 3.5h-4c1.101 0 2 .9 2 2v40h4v-40c0-1.1-.899-2-2-2z"/><path fill="#F5F7FA" d="M45 59.5v1H19v-1c0-1.109.891-2 2-2h22a2 2 0 012 2z"/><path fill="#E6E9ED" d="M39 49.5l2 8H23l2-8z"/><path fill="#656D78" d="M48.98 33.5a2 2 0 012 2c0 1.09-.89 1.99-1.98 2H31.98c3.42 0 6.47-1.56 8.49-4h8.51z"/><path fill="#EDAB37" d="M32.98 17.5c1.11 0 2 .891 2 1.99 0 1.11-.89 2-2 2h-4V17.5h4zM32.98 21.49c1.66 0 3 1.35 3 3.01 0 1.65-1.34 3-3 3h-4v-6.01h4z"/><path fill="#EDAB37" d="M42.98 22.5v4a10.995 10.995 0 01-11 11c-3.58 0-6.75-1.71-8.76-4.35a10.92 10.92 0 01-2.24-6.65v-4c0 6.07 4.92 11 11 11s11-4.93 11-11z"/><path fill="#FFCE54" d="M32.98 27.5c1.66 0 3-1.35 3-3 0-1.66-1.34-3.01-3-3.01 1.11 0 2-.89 2-2 0-1.1-.89-1.99-2-1.99h-4v10h4zm10-5c0 6.07-4.92 11-11 11s-11-4.93-11-11c0-6.08 4.92-11 11-11s11 4.92 11 11z"/><path fill="#F6BB42" d="M31.98 11.5c-.684 0-1.351.07-2 .19 5.122.939 9 5.413 9 10.81 0 5.388-3.878 9.868-9 10.81.649.119 1.316.19 2 .19 6.08 0 11-4.93 11-11 0-6.08-4.919-11-11-11z"/><path fill="#F5F7FA" d="M1.04 45.5H63v2c0 1.101-.899 2-2 2H3c-1.1 0-2-.899-2-2v-2h.04z"/><path fill="#E6E9ED" d="M59 45.5v2c0 1.101-.899 2-2 2h4c1.101 0 2-.899 2-2v-2h-4z"/><path fill="#656D78" d="M23.52 33.5h-8.54a2 2 0 000 4h17c-3.414 0-6.443-1.566-8.46-4z"/><path d="M31.982 34.5c-6.617 0-12-5.383-12-12s5.383-12 12-12 12 5.383 12 12-5.382 12-12 12zm0-22c-5.514 0-10 4.486-10 10s4.486 10 10 10 10-4.486 10-10-4.486-10-10-10z"/><path d="M31.982 38.5c-6.617 0-12-5.383-12-12a1 1 0 112 0c0 5.514 4.486 10 10 10s10-4.486 10-10a1 1 0 112 0c0 6.617-5.382 12-12 12z"/><path d="M42.982 27.5a1 1 0 01-1-1v-4a1 1 0 112 0v4a1 1 0 01-1 1zM20.982 27.5a1 1 0 01-1-1v-4a1 1 0 112 0v4a1 1 0 01-1 1zM28.982 28.5a1 1 0 01-1-1v-10a1 1 0 112 0v10a1 1 0 01-1 1zM32.983 22.498a1 1 0 110-2 1 1 0 000-1.998 1 1 0 110-2c1.653 0 2.999 1.346 2.999 2.999s-1.345 2.999-2.999 2.999z"/><path d="M32.981 28.5a1 1 0 110-2 2.002 2.002 0 000-4.002 1 1 0 110-2 4.006 4.006 0 014.001 4.002c0 2.206-1.794 4-4.001 4zM32.983 18.5h-5.001a1 1 0 110-2h5.001a1 1 0 110 2z"/><path d="M32.981 28.5h-4.999a1 1 0 110-2h4.999a1 1 0 110 2zM32.983 22.498h-4.001a1 1 0 110-2h4.001a1 1 0 110 2zM30.982 18.5a1 1 0 01-1-1v-1a1 1 0 112 0v1a1 1 0 01-1 1z"/><path d="M30.982 29.5a1 1 0 01-1-1v-1a1 1 0 112 0v1a1 1 0 01-1 1z"/><g><path d="M32.03 48.5c-.553 0-1.005-.447-1.005-1s.442-1 .994-1h.011a1 1 0 110 2zM63 46.5H1.047a1 1 0 110-2H63a1 1 0 110 2z"/><path d="M61 50.5H3c-1.654 0-3-1.346-3-3v-42c0-1.654 1.346-3 3-3h58c1.654 0 3 1.346 3 3v42c0 1.654-1.346 3-3 3zM3 4.5a1 1 0 00-1 1v42a1 1 0 001 1h58a1 1 0 001-1v-42a1 1 0 00-1-1H3z"/><path d="M23.001 58.5a1 1 0 01-.971-1.242l2-8a1 1 0 011.94.484l-2 8a1 1 0 01-.969.758zM40.999 58.5a1 1 0 01-.969-.758l-2-8a.998.998 0 01.728-1.212.996.996 0 011.212.728l2 8a.998.998 0 01-.971 1.242z"/><path d="M19 60.5a1 1 0 01-1-1c0-1.654 1.346-3 3-3a1 1 0 110 2 1 1 0 00-1 1 1 1 0 01-1 1zM45 60.5a1 1 0 01-1-1 1 1 0 00-1-1 1 1 0 110-2c1.654 0 3 1.346 3 3a1 1 0 01-1 1z"/><path d="M43 58.5H21a1 1 0 110-2h22a1 1 0 110 2zM19 61.5a1 1 0 01-1-1v-1a1 1 0 112 0v1a1 1 0 01-1 1z"/><path d="M45 61.5H19a1 1 0 110-2h26a1 1 0 110 2z"/><path d="M45 61.5a1 1 0 01-1-1v-1a1 1 0 112 0v1a1 1 0 01-1 1z"/></g><g><path d="M49 38.508H15a1 1 0 110-2h34a1 1 0 110 2z"/><path d="M14.982 38.501c-1.654 0-3-1.347-3-3.001s1.346-3 3-3a1 1 0 110 2 1 1 0 000 2.001 1 1 0 110 2z"/><path d="M23.497 34.5h-8.515a1 1 0 110-2h8.515a1 1 0 110 2zM48.982 38.501a1 1 0 110-2 1.001 1.001 0 000-2.001 1 1 0 110-2c1.654 0 3 1.346 3 3s-1.345 3.001-3 3.001z"/><path d="M48.982 34.5h-8.515a1 1 0 110-2h8.515a1 1 0 110 2z"/></g><g><path d="M55.982 25.5h-6c-1.654 0-3-1.346-3-3s1.346-3 3-3h6c1.654 0 3 1.346 3 3s-1.345 3-3 3zm-6-4a1 1 0 000 2h6a1 1 0 000-2h-6z"/><path d="M62.982 23.5h-6a1 1 0 110-2h6a1 1 0 110 2zM48.982 23.5h-6a1 1 0 110-2h6a1 1 0 110 2z"/></g><g><path d="M14 25.5H8c-1.654 0-3-1.346-3-3s1.346-3 3-3h6c1.654 0 3 1.346 3 3s-1.346 3-3 3zm-6-4a1 1 0 000 2h6a1 1 0 000-2H8z"/><path d="M21 23.5h-6a1 1 0 110-2h6a1 1 0 110 2zM7 23.5H1a1 1 0 110-2h6a1 1 0 110 2z"/></g></svg>