<svg xmlns="http://www.w3.org/2000/svg" viewBox="0 0 64 64"><path fill="#656D78" d="M11 58.5v2H1v-27h10v2z"/><path fill="#EAC6BB" d="M39 42.5l19.32-2.939c.22-.04.45-.061.68-.061a3.999 3.999 0 012 7.461L34 61.5l-23-3v-23h9l15.69 3.061A3.99 3.99 0 0139 42.5z"/><path fill="#D3B1A9" d="M60.964 40.035A3.983 3.983 0 0159 42.961L32.708 56.607 11 53.67v4.83l23 3 27-14.539c1.2-.69 2-1.98 2-3.461 0-1.492-.825-2.777-2.036-3.465z"/><path fill="#EDAB37" d="M42 26.66c-1.4.54-2.91.84-4.5.84s-3.1-.3-4.5-.84c-4.68-1.8-8-6.35-8-11.66v4c0 5.311 3.32 9.86 8 11.66 1.4.54 2.91.84 4.5.84s3.1-.3 4.5-.84c4.68-1.8 8-6.35 8-11.66v-4c0 5.311-3.32 9.86-8 11.66zM39.54 8.54a2.5 2.5 0 010 5h-5.5v-5h5.5z"/><path fill="#EDAB37" d="M39.54 13.54c1.93 0 3.5 1.561 3.5 3.5 0 1.931-1.57 3.5-3.5 3.5h-5.5v-7h5.5z"/><path fill="#FFCE54" d="M37.04 20.54h2.5c1.93 0 3.5-1.569 3.5-3.5 0-1.939-1.57-3.5-3.5-3.5a2.5 2.5 0 000-5h-5.5v12h3zM50 15c0 5.311-3.32 9.86-8 11.66-1.4.54-2.91.84-4.5.84s-3.1-.3-4.5-.84c-4.68-1.8-8-6.35-8-11.66 0-6.899 5.6-12.5 12.5-12.5S50 8.101 50 15z"/><path fill="#F6BB42" d="M37.5 2.5c-.683 0-1.347.069-2 .175C41.448 3.635 46 8.783 46 15c0 5.311-3.32 9.86-8 11.66-.799.308-1.636.527-2.5.668.651.106 1.316.172 2 .172 1.59 0 3.1-.3 4.5-.84 4.68-1.8 8-6.35 8-11.66 0-6.899-5.6-12.5-12.5-12.5z"/><path d="M6.03 58.5c-.552 0-1.005-.447-1.005-1s.443-1 .995-1h.01a1 1 0 110 2zM61.002 47.965A1 1 0 0160.5 46.1a3.01 3.01 0 001.5-2.6c0-1.654-1.346-3-3-3a1 1 0 110-2c2.757 0 5 2.243 5 5a5.017 5.017 0 01-2.498 4.33.99.99 0 01-.5.135z"/><path d="M34.001 62.5a1 1 0 01-.475-1.88l27-14.536a1 1 0 01.947 1.761l-27 14.536a.99.99 0 01-.472.119z"/><path d="M34.001 62.5a.958.958 0 01-.13-.009l-23-3a1 1 0 01-.862-1.12c.072-.548.583-.93 1.121-.862l23 3a1 1 0 01-.129 1.991z"/><path d="M11 61.5H1a1 1 0 01-1-1v-27a1 1 0 011-1h10a1 1 0 011 1v27a1 1 0 01-1 1zm-9-2h8v-25H2v25zM38.999 43.5a1 1 0 01-.149-1.989l19.317-2.94a1 1 0 11.301 1.977l-19.317 2.94a.983.983 0 01-.152.012z"/><path d="M35 47.5a1 1 0 110-2c1.654 0 3-1.346 3-3a2.989 2.989 0 00-2.483-2.955 1 1 0 11.34-1.97A4.982 4.982 0 0140 42.5c0 2.757-2.243 5-5 5z"/><path d="M35.688 39.56a.969.969 0 01-.192-.019l-15.688-3.06a1 1 0 11.383-1.963l15.688 3.06a1 1 0 01-.191 1.982z"/><path d="M20 36.5h-9a1 1 0 110-2h9a1 1 0 110 2zM34.58 47.478l-.078-.003-12.58-.978a1 1 0 11.156-1.994l12.579.978a1 1 0 01-.077 1.997zM58.315 40.558a.999.999 0 01-.168-1.985c.279-.049.565-.073.853-.073a1 1 0 110 2c-.176 0-.348.015-.515.043a.976.976 0 01-.17.015z"/><path d="M35 47.5c-.178 0-.353-.01-.524-.028a1 1 0 01-.889-1.1.992.992 0 011.1-.889c.103.011.208.017.313.017a1 1 0 110 2zM34.035 21.54a1 1 0 01-1-1v-12a1 1 0 112 0v12a1 1 0 01-1 1zM39.535 21.54a1 1 0 110-2c1.379 0 2.5-1.121 2.5-2.5s-1.121-2.5-2.5-2.5a1 1 0 110-2c2.481 0 4.5 2.019 4.5 4.5s-2.018 4.5-4.5 4.5z"/><path d="M39.535 14.54a1 1 0 110-2c.827 0 1.5-.673 1.5-1.5s-.673-1.5-1.5-1.5a1 1 0 110-2c1.93 0 3.5 1.57 3.5 3.5s-1.57 3.5-3.5 3.5z"/><path d="M39.535 9.54h-6.5a1 1 0 110-2h6.5a1 1 0 110 2zM39.535 14.54h-5.5a1 1 0 110-2h5.5a1 1 0 110 2zM39.535 21.54h-6.5a1 1 0 110-2h6.5a1 1 0 110 2z"/><path d="M37.035 9.54a1 1 0 01-1-1v-1a1 1 0 112 0v1a1 1 0 01-1 1zM37.035 22.54a1 1 0 01-1-1v-1a1 1 0 112 0v1a1 1 0 01-1 1z"/><path d="M37.5 28.501c-7.444 0-13.5-6.056-13.5-13.5S30.056 1.5 37.5 1.5 51 7.557 51 15.001s-6.056 13.5-13.5 13.5zm0-25.001C31.159 3.5 26 8.659 26 15.001c0 6.341 5.159 11.5 11.5 11.5S49 21.342 49 15.001C49 8.659 43.841 3.5 37.5 3.5z"/><path d="M37.5 32.502c-7.444 0-13.5-6.056-13.5-13.5a1 1 0 112 0c0 6.341 5.159 11.5 11.5 11.5S49 25.343 49 19.002a1 1 0 112 0c0 7.444-6.056 13.5-13.5 13.5z"/><path d="M50 20.002a1 1 0 01-1-1v-4.001a1 1 0 112 0v4.001a1 1 0 01-1 1z"/><g><path d="M25 20.002a1 1 0 01-1-1v-4.001a1 1 0 112 0v4.001a1 1 0 01-1 1z"/></g><g><path d="M33 31.666a1 1 0 01-1-1v-4.001a1 1 0 112 0v4.001a1 1 0 01-1 1z"/></g><g><path d="M42 31.666a1 1 0 01-1-1v-4.001a1 1 0 112 0v4.001a1 1 0 01-1 1z"/></g></svg>