<?xml version="1.0" encoding="utf-8"?>
<!-- Generator: Adobe Illustrator 16.0.0, SVG Export Plug-In . SVG Version: 6.00 Build 0)  -->
<!DOCTYPE svg PUBLIC "-//W3C//DTD SVG 1.1//EN" "http://www.w3.org/Graphics/SVG/1.1/DTD/svg11.dtd">
<svg version="1.1" xmlns="http://www.w3.org/2000/svg" xmlns:xlink="http://www.w3.org/1999/xlink" x="0px" y="0px" width="64px"
	 height="64px" viewBox="0 0 64 64" enable-background="new 0 0 64 64" xml:space="preserve">
<g id="_x35_0_code_x2C__programming_x2C__program_x2C__bitcoin_x2C__block_x2C__chain_x2C__cryptocurrency">
</g>
<g id="_x34_9_balloon_x2C__takeoff_x2C__bitcoin_x2C__coin_x2C__block_x2C__chain_x2C__cryptocurrency">
</g>
<g id="_x34_8_video_card_x2C__mining_x2C__farm_x2C__computer_x2C__block_x2C__chain_x2C__cryptocurrency">
</g>
<g id="_x34_7_money_box_x2C__saving_x2C__bitcoin_x2C__coin_x2C__block_x2C__chain_x2C__cryptocurrency">
</g>
<g id="_x34_6_portfolio_x2C__finance_x2C__bank_note_x2C__bitcoin_x2C__coin_x2C__cryptocurrency">
</g>
<g id="_x34_5_tap_x2C__water_x2C__bitcoin_x2C__coin_x2C__block_x2C__chain_x2C__cryptocurrency">
</g>
<g id="_x34_4_phone_x2C__bitcoin_x2C__coin_x2C__block_x2C__chain_x2C__cryptocurrency">
</g>
<g id="_x34_3_rocket_x2C__sun_x2C__bitcoin_x2C__coin_x2C__block_x2C__chain_x2C__cryptocurrency">
</g>
<g id="_x34_2_transfer_x2C__network_x2C__bitcoin_x2C__coin_x2C__block_x2C__chain_x2C__cryptocurrency">
</g>
<g id="_x34_1_scales_x2C__comparison_x2C__bitcoin_x2C__coin_x2C__block_x2C__chain_x2C__cryptocurrency">
</g>
<g id="_x34_0_calculator_x2C__calculating_x2C__bitcoin_x2C__coin_x2C__block_x2C__chain_x2C__cryptocurrency">
</g>
<g id="_x33_9_start-up_x2C__plant_x2C__hand_x2C__bitcoin_x2C__coin_x2C__cryptocurrency">
</g>
<g id="_x33_8_idea_x2C__bulb_x2C__bitcoin_x2C__coin_x2C__block_x2C__chain_x2C__cryptocurrency">
</g>
<g id="_x33_7_users_x2C__user_x2C__co-founder_x2C__bitcoin_x2C__coin_x2C__cryptocurrency">
</g>
<g id="_x33_6_safe_x2C__protection_x2C__bitcoin_x2C__coin_x2C__block_x2C__chain_x2C__cryptocurrency">
</g>
<g id="_x33_5_flash_drive_x2C__key_x2C__block_x2C__chain_x2C__cryptocurrency">
</g>
<g id="_x33_4_cloud_x2C__mining_x2C__bitcoin_x2C__coin_x2C__block_x2C__chain_x2C__cryptocurrency">
</g>
<g id="_x33_3_start_up_x2C__plant_x2C__bitcoin_x2C__coin_x2C__block_x2C__chain_x2C__cryptocurrency">
</g>
<g id="_x33_2_planet_x2C__bitcoin_x2C__coin_x2C__block_x2C__chain_x2C__cryptocurrency">
</g>
<g id="_x33_1_payment_x2C__hand_x2C__bitcoin_x2C__coin_x2C__block_x2C__chain_x2C__cryptocurrency">
</g>
<g id="_x33_0_user_x2C__laptop_x2C__bitcoin_x2C__coin_x2C__block_x2C__chain_x2C__cryptocurrency">
</g>
<g id="_x32_9_thief_x2C__bag_x2C__bitcoin_x2C__coin_x2C__block_x2C__chain_x2C__cryptocurrency">
</g>
<g id="_x32_8_code_x2C__programming_x2C__program_x2C__bitcoin_x2C__coin_x2C__cryptocurrency">
</g>
<g id="_x32_7_bitcoin_x2C__coin_x2C__block_x2C__chain_x2C__cryptocurrency">
</g>
<g id="_x32_6_shield_x2C__protection_x2C__bitcoin_x2C__coin_x2C__block_x2C__chain_x2C__cryptocurrency">
</g>
<g id="_x32_5_bug_x2C__laptop_x2C__miner_x2C__program_x2C__block_x2C__chain_x2C__cryptocurrency">
</g>
<g id="_x32_4_computer_x2C__monitor_x2C__bitcoin_x2C__coin_x2C__block_x2C__chain_x2C__cryptocurrency">
	<g>
		<g>
			<path fill="#AC92EC" d="M61,3.5H3c-1.1,0-2,0.9-2,2v17v23h0.04H63v-23v-17C63,4.4,62.101,3.5,61,3.5z"/>
		</g>
		<g>
			<g>
				<path fill="#967ADC" d="M61,3.5h-4c1.101,0,2,0.9,2,2v17v23h4v-23v-17C63,4.4,62.101,3.5,61,3.5z"/>
			</g>
		</g>
		<g>
			<path fill="#F5F7FA" d="M45,59.5v1H19v-1c0-1.109,0.891-2,2-2h2h18h2C44.101,57.5,45,58.391,45,59.5z"/>
		</g>
		<g>
			<polygon fill="#E6E9ED" points="39,49.5 41,57.5 23,57.5 25,49.5 			"/>
		</g>
		<g>
			<path fill="#656D78" d="M48.98,33.5c1.1,0,2,0.891,2,2c0,1.09-0.89,1.99-1.98,2c-0.01,0-0.01,0-0.02,0h-17
				c3.42,0,6.47-1.56,8.49-4h0.75H48.98z"/>
		</g>
		<g>
			<path fill="#EDAB37" d="M32.98,17.5c1.11,0,2,0.891,2,1.99c0,1.11-0.89,2-2,2h-4V17.5h2H32.98z"/>
		</g>
		<g>
			<path fill="#EDAB37" d="M32.98,21.49c1.66,0,3,1.35,3,3.01c0,1.65-1.34,3-3,3h-2h-2v-6.01H32.98z"/>
		</g>
		<g>
			<path fill="#EDAB37" d="M42.98,22.5v4c0,2.66-0.94,5.09-2.51,7c-2.021,2.44-5.07,4-8.49,4c-3.58,0-6.75-1.71-8.76-4.35
				c-1.41-1.851-2.24-4.15-2.24-6.65v-4c0,6.07,4.92,11,11,11S42.98,28.57,42.98,22.5z"/>
		</g>
		<g>
			<path fill="#FFCE54" d="M32.98,27.5c1.66,0,3-1.35,3-3c0-1.66-1.34-3.01-3-3.01c1.11,0,2-0.89,2-2c0-1.1-0.89-1.99-2-1.99h-2h-2
				v3.99v6.01h2H32.98z M42.98,22.5c0,6.07-4.92,11-11,11s-11-4.93-11-11c0-6.08,4.92-11,11-11S42.98,16.42,42.98,22.5z"/>
		</g>
		<g>
			<g>
				<path fill="#F6BB42" d="M31.98,11.5c-0.684,0-1.351,0.07-2,0.19c5.122,0.939,9,5.413,9,10.81c0,5.388-3.878,9.868-9,10.81
					c0.649,0.119,1.316,0.19,2,0.19c6.08,0,11-4.93,11-11C42.98,16.42,38.061,11.5,31.98,11.5z"/>
			</g>
		</g>
		<g>
			<path fill="#F5F7FA" d="M1.04,45.5H63v2c0,1.101-0.899,2-2,2H39H25H3c-1.1,0-2-0.899-2-2v-2H1.04z"/>
		</g>
		<g>
			<path fill="#E6E9ED" d="M59,45.5v2c0,1.101-0.899,2-2,2h4c1.101,0,2-0.899,2-2v-2H59z"/>
		</g>
		<g>
			<path fill="#656D78" d="M23.52,33.5h-0.749h-7.642H14.98c-1.1,0-2,0.891-2,2c0,1.101,0.9,2,2,2H15h16.98
				C28.566,37.5,25.537,35.934,23.52,33.5z"/>
		</g>
	</g>
	<g>
		<g>
			<g>
				<g>
					<path d="M31.982,34.5c-6.617,0-12-5.383-12-12s5.383-12,12-12s12,5.383,12,12S38.6,34.5,31.982,34.5z M31.982,12.5
						c-5.514,0-10,4.486-10,10s4.486,10,10,10s10-4.486,10-10S37.496,12.5,31.982,12.5z"/>
				</g>
				<g>
					<path d="M31.982,38.5c-6.617,0-12-5.383-12-12c0-0.553,0.447-1,1-1s1,0.447,1,1c0,5.514,4.486,10,10,10s10-4.486,10-10
						c0-0.553,0.447-1,1-1s1,0.447,1,1C43.982,33.117,38.6,38.5,31.982,38.5z"/>
				</g>
			</g>
			<g>
				<path d="M42.982,27.5c-0.553,0-1-0.447-1-1v-4c0-0.553,0.447-1,1-1s1,0.447,1,1v4C43.982,27.053,43.535,27.5,42.982,27.5z"/>
			</g>
			<g>
				<path d="M20.982,27.5c-0.553,0-1-0.447-1-1v-4c0-0.553,0.447-1,1-1s1,0.447,1,1v4C21.982,27.053,21.535,27.5,20.982,27.5z"/>
			</g>
			<g>
				<g>
					<path d="M28.982,28.5c-0.553,0-1-0.447-1-1v-10c0-0.553,0.447-1,1-1s1,0.447,1,1v10C29.982,28.053,29.535,28.5,28.982,28.5z"/>
				</g>
				<g>
					<path d="M32.983,22.498c-0.553,0-1-0.447-1-1s0.447-1,1-1c0.551,0,0.999-0.448,0.999-0.999S33.534,18.5,32.983,18.5
						c-0.553,0-1-0.447-1-1s0.447-1,1-1c1.653,0,2.999,1.346,2.999,2.999S34.637,22.498,32.983,22.498z"/>
				</g>
				<g>
					<path d="M32.981,28.5c-0.553,0-1-0.447-1-1s0.447-1,1-1c1.104,0,2.001-0.897,2.001-2c0-1.104-0.897-2.002-2.001-2.002
						c-0.553,0-1-0.447-1-1s0.447-1,1-1c2.206,0,4.001,1.795,4.001,4.002C36.982,26.706,35.188,28.5,32.981,28.5z"/>
				</g>
				<g>
					<path d="M32.983,18.5h-5.001c-0.553,0-1-0.447-1-1s0.447-1,1-1h5.001c0.553,0,1,0.447,1,1S33.536,18.5,32.983,18.5z"/>
				</g>
				<g>
					<path d="M32.981,28.5h-4.999c-0.553,0-1-0.447-1-1s0.447-1,1-1h4.999c0.553,0,1,0.447,1,1S33.534,28.5,32.981,28.5z"/>
				</g>
				<g>
					<path d="M32.983,22.498h-4.001c-0.553,0-1-0.447-1-1s0.447-1,1-1h4.001c0.553,0,1,0.447,1,1S33.536,22.498,32.983,22.498z"/>
				</g>
				<g>
					<path d="M30.982,18.5c-0.553,0-1-0.447-1-1v-1c0-0.553,0.447-1,1-1s1,0.447,1,1v1C31.982,18.053,31.535,18.5,30.982,18.5z"/>
				</g>
				<g>
					<path d="M30.982,29.5c-0.553,0-1-0.447-1-1v-1c0-0.553,0.447-1,1-1s1,0.447,1,1v1C31.982,29.053,31.535,29.5,30.982,29.5z"/>
				</g>
			</g>
		</g>
		<g>
			<g>
				<path d="M32.03,48.5c-0.553,0-1.005-0.447-1.005-1s0.442-1,0.994-1h0.011c0.552,0,1,0.447,1,1S32.582,48.5,32.03,48.5z"/>
			</g>
			<g>
				<path d="M63,46.5H1.047c-0.553,0-1-0.447-1-1s0.447-1,1-1H63c0.553,0,1,0.447,1,1S63.553,46.5,63,46.5z"/>
			</g>
			<g>
				<path d="M61,50.5H3c-1.654,0-3-1.346-3-3v-42c0-1.654,1.346-3,3-3h58c1.654,0,3,1.346,3,3v42C64,49.154,62.654,50.5,61,50.5z
					 M3,4.5c-0.552,0-1,0.448-1,1v42c0,0.552,0.448,1,1,1h58c0.552,0,1-0.448,1-1v-42c0-0.552-0.448-1-1-1H3z"/>
			</g>
			<g>
				<path d="M23.001,58.5c-0.08,0-0.162-0.01-0.243-0.03c-0.536-0.134-0.862-0.677-0.728-1.212l2-8
					c0.133-0.537,0.677-0.866,1.212-0.728c0.536,0.134,0.862,0.677,0.728,1.212l-2,8C23.856,58.197,23.449,58.5,23.001,58.5z"/>
			</g>
			<g>
				<path d="M40.999,58.5c-0.448,0-0.855-0.303-0.969-0.758l-2-8c-0.135-0.535,0.191-1.078,0.728-1.212
					c0.533-0.138,1.078,0.19,1.212,0.728l2,8c0.135,0.535-0.191,1.078-0.728,1.212C41.161,58.49,41.079,58.5,40.999,58.5z"/>
			</g>
			<g>
				<path d="M19,60.5c-0.553,0-1-0.447-1-1c0-1.654,1.346-3,3-3c0.553,0,1,0.447,1,1s-0.447,1-1,1c-0.552,0-1,0.448-1,1
					C20,60.053,19.553,60.5,19,60.5z"/>
			</g>
			<g>
				<path d="M45,60.5c-0.553,0-1-0.447-1-1c0-0.552-0.448-1-1-1c-0.553,0-1-0.447-1-1s0.447-1,1-1c1.654,0,3,1.346,3,3
					C46,60.053,45.553,60.5,45,60.5z"/>
			</g>
			<g>
				<path d="M43,58.5H21c-0.553,0-1-0.447-1-1s0.447-1,1-1h22c0.553,0,1,0.447,1,1S43.553,58.5,43,58.5z"/>
			</g>
			<g>
				<path d="M19,61.5c-0.553,0-1-0.447-1-1v-1c0-0.553,0.447-1,1-1s1,0.447,1,1v1C20,61.053,19.553,61.5,19,61.5z"/>
			</g>
			<g>
				<path d="M45,61.5H19c-0.553,0-1-0.447-1-1s0.447-1,1-1h26c0.553,0,1,0.447,1,1S45.553,61.5,45,61.5z"/>
			</g>
			<g>
				<path d="M45,61.5c-0.553,0-1-0.447-1-1v-1c0-0.553,0.447-1,1-1s1,0.447,1,1v1C46,61.053,45.553,61.5,45,61.5z"/>
			</g>
		</g>
		<g>
			<g>
				<path d="M49,38.508H15c-0.553,0-1-0.447-1-1s0.447-1,1-1h34c0.553,0,1,0.447,1,1S49.553,38.508,49,38.508z"/>
			</g>
			<g>
				<path d="M14.982,38.501c-1.654,0-3-1.347-3-3.001s1.346-3,3-3c0.553,0,1,0.447,1,1s-0.447,1-1,1c-0.552,0-1,0.448-1,1
					s0.448,1.001,1,1.001c0.553,0,1,0.447,1,1S15.535,38.501,14.982,38.501z"/>
			</g>
			<g>
				<path d="M23.497,34.5h-8.515c-0.553,0-1-0.447-1-1s0.447-1,1-1h8.515c0.553,0,1,0.447,1,1S24.05,34.5,23.497,34.5z"/>
			</g>
			<g>
				<path d="M48.982,38.501c-0.553,0-1-0.447-1-1s0.447-1,1-1c0.552,0,1-0.449,1-1.001s-0.448-1-1-1c-0.553,0-1-0.447-1-1
					s0.447-1,1-1c1.654,0,3,1.346,3,3S50.637,38.501,48.982,38.501z"/>
			</g>
			<g>
				<path d="M48.982,34.5h-8.515c-0.553,0-1-0.447-1-1s0.447-1,1-1h8.515c0.553,0,1,0.447,1,1S49.535,34.5,48.982,34.5z"/>
			</g>
		</g>
		<g>
			<g>
				<path d="M55.982,25.5h-6c-1.654,0-3-1.346-3-3s1.346-3,3-3h6c1.654,0,3,1.346,3,3S57.637,25.5,55.982,25.5z M49.982,21.5
					c-0.552,0-1,0.448-1,1s0.448,1,1,1h6c0.552,0,1-0.448,1-1s-0.448-1-1-1H49.982z"/>
			</g>
			<g>
				<path d="M62.982,23.5h-6c-0.553,0-1-0.447-1-1s0.447-1,1-1h6c0.553,0,1,0.447,1,1S63.535,23.5,62.982,23.5z"/>
			</g>
			<g>
				<path d="M48.982,23.5h-6c-0.553,0-1-0.447-1-1s0.447-1,1-1h6c0.553,0,1,0.447,1,1S49.535,23.5,48.982,23.5z"/>
			</g>
		</g>
		<g>
			<g>
				<path d="M14,25.5H8c-1.654,0-3-1.346-3-3s1.346-3,3-3h6c1.654,0,3,1.346,3,3S15.654,25.5,14,25.5z M8,21.5c-0.552,0-1,0.448-1,1
					s0.448,1,1,1h6c0.552,0,1-0.448,1-1s-0.448-1-1-1H8z"/>
			</g>
			<g>
				<path d="M21,23.5h-6c-0.553,0-1-0.447-1-1s0.447-1,1-1h6c0.553,0,1,0.447,1,1S21.553,23.5,21,23.5z"/>
			</g>
			<g>
				<path d="M7,23.5H1c-0.553,0-1-0.447-1-1s0.447-1,1-1h6c0.553,0,1,0.447,1,1S7.553,23.5,7,23.5z"/>
			</g>
		</g>
	</g>
</g>
<g id="_x32_3_network_x2C__idea_x2C__bitcoin_x2C__coin_x2C__block_x2C__chain_x2C__cryptocurrency">
</g>
<g id="_x32_2_block_x2C__chain_x2C__cryptocurrency_x2C__technology_x2C__future">
</g>
<g id="_x32_1_smart_contact_x2C__contact_x2C__block_x2C__chain_x2C__cryptocurrency">
</g>
<g id="_x32_0_lock_x2C__safe_x2C__protection_x2C__block_x2C__chain_x2C__cryptocurrency_x2C__program">
</g>
<g id="_x31_9_server_x2C__data_x2C__bitcoin_x2C__coin_x2C__block_x2C__chain_x2C__cryptocurrency">
</g>
<g id="_x31_8_key_x2C__bitcoin_x2C__coin_x2C__block_x2C__chain_x2C__cryptocurrency">
</g>
<g id="_x31_7_pool_x2C__network_x2C__bitcoin_x2C__coin_x2C__block_x2C__chain_x2C__cryptocurrency">
</g>
<g id="_x31_6_mining_x2C__shovel_x2C__mine_x2C__coin_x2C__block_x2C__chain_x2C__cryptocurrency">
</g>
<g id="_x31_5_purse_x2C__bitcoin_x2C__coin_x2C__block_x2C__chain_x2C__cryptocurrency">
</g>
<g id="_x31_4_safe_x2C__protection_x2C__block_x2C__chain_x2C__cryptocurrency_x2C__program">
</g>
<g id="_x31_3_mining_x2C__funnel_x2C__satoshi_x2C__bitcoin_x2C__coin_x2C__cryptocurrency">
</g>
<g id="_x31_2_chart_x2C__bitcoin_x2C__coin_x2C__block_x2C__chain_x2C__cryptocurrency">
</g>
<g id="_x31_1_computer_x2C__monitor_x2C__bitcoin_x2C__coin_x2C__block_x2C__chain_x2C__cryptocurrency">
</g>
<g id="_x31_0_mining_x2C__pickaxe_x2C__stone_x2C__mine_x2C___bitcoin_x2C__coin_x2C__cryptocurrency">
</g>
<g id="_x39__miner_x2C__mining_x2C__computer_x2C__pickaxe_x2C__program_x2C__cryptocurrency">
</g>
<g id="_x38__video_card_x2C__mining_x2C__bitcoin_x2C__coin_x2C__block_x2C__chain_x2C__cryptocurrency">
</g>
<g id="_x37__exchanger_x2C__site_x2C__bitcoin_x2C__coin_x2C__block_x2C__chain_x2C__cryptocurrency">
</g>
<g id="_x36__shop_x2C__product_x2C__bitcoin_x2C__coin_x2C__block_x2C__chain_x2C__cryptocurrency">
</g>
<g id="_x35__bitcoin_x2C__coin_x2C__exchange_x2C__block_x2C__chain_x2C__cryptocurrency_x2C__product">
</g>
<g id="_x34__bitcoin_x2C__coin_x2C__exchange_x2C__block_x2C__chain_x2C__cryptocurrency">
</g>
<g id="_x33__bitcoin_x2C__coin_x2C__exchange_x2C__block_x2C__chain_x2C__cryptocurrency">
</g>
<g id="_x32__brain_x2C__smart_x2C__coin_x2C__block_x2C__chain_x2C__cryptocurrency">
</g>
<g id="_x31__bitcoin_x2C__coin_x2C__block_x2C__chain_x2C__cryptocurrency">
</g>
</svg>
