<?xml version="1.0" encoding="utf-8"?>
<!-- Generator: Adobe Illustrator 16.0.0, SVG Export Plug-In . SVG Version: 6.00 Build 0)  -->
<!DOCTYPE svg PUBLIC "-//W3C//DTD SVG 1.1//EN" "http://www.w3.org/Graphics/SVG/1.1/DTD/svg11.dtd">
<svg version="1.1" xmlns="http://www.w3.org/2000/svg" xmlns:xlink="http://www.w3.org/1999/xlink" x="0px" y="0px" width="64px"
	 height="64px" viewBox="0 0 64 64" enable-background="new 0 0 64 64" xml:space="preserve">
<g id="_x35_0_code_x2C__programming_x2C__program_x2C__bitcoin_x2C__block_x2C__chain_x2C__cryptocurrency">
</g>
<g id="_x34_9_balloon_x2C__takeoff_x2C__bitcoin_x2C__coin_x2C__block_x2C__chain_x2C__cryptocurrency">
</g>
<g id="_x34_8_video_card_x2C__mining_x2C__farm_x2C__computer_x2C__block_x2C__chain_x2C__cryptocurrency">
</g>
<g id="_x34_7_money_box_x2C__saving_x2C__bitcoin_x2C__coin_x2C__block_x2C__chain_x2C__cryptocurrency">
</g>
<g id="_x34_6_portfolio_x2C__finance_x2C__bank_note_x2C__bitcoin_x2C__coin_x2C__cryptocurrency">
</g>
<g id="_x34_5_tap_x2C__water_x2C__bitcoin_x2C__coin_x2C__block_x2C__chain_x2C__cryptocurrency">
</g>
<g id="_x34_4_phone_x2C__bitcoin_x2C__coin_x2C__block_x2C__chain_x2C__cryptocurrency">
</g>
<g id="_x34_3_rocket_x2C__sun_x2C__bitcoin_x2C__coin_x2C__block_x2C__chain_x2C__cryptocurrency">
</g>
<g id="_x34_2_transfer_x2C__network_x2C__bitcoin_x2C__coin_x2C__block_x2C__chain_x2C__cryptocurrency">
</g>
<g id="_x34_1_scales_x2C__comparison_x2C__bitcoin_x2C__coin_x2C__block_x2C__chain_x2C__cryptocurrency">
</g>
<g id="_x34_0_calculator_x2C__calculating_x2C__bitcoin_x2C__coin_x2C__block_x2C__chain_x2C__cryptocurrency">
</g>
<g id="_x33_9_start-up_x2C__plant_x2C__hand_x2C__bitcoin_x2C__coin_x2C__cryptocurrency">
</g>
<g id="_x33_8_idea_x2C__bulb_x2C__bitcoin_x2C__coin_x2C__block_x2C__chain_x2C__cryptocurrency">
</g>
<g id="_x33_7_users_x2C__user_x2C__co-founder_x2C__bitcoin_x2C__coin_x2C__cryptocurrency">
</g>
<g id="_x33_6_safe_x2C__protection_x2C__bitcoin_x2C__coin_x2C__block_x2C__chain_x2C__cryptocurrency">
</g>
<g id="_x33_5_flash_drive_x2C__key_x2C__block_x2C__chain_x2C__cryptocurrency">
</g>
<g id="_x33_4_cloud_x2C__mining_x2C__bitcoin_x2C__coin_x2C__block_x2C__chain_x2C__cryptocurrency">
</g>
<g id="_x33_3_start_up_x2C__plant_x2C__bitcoin_x2C__coin_x2C__block_x2C__chain_x2C__cryptocurrency">
</g>
<g id="_x33_2_planet_x2C__bitcoin_x2C__coin_x2C__block_x2C__chain_x2C__cryptocurrency">
</g>
<g id="_x33_1_payment_x2C__hand_x2C__bitcoin_x2C__coin_x2C__block_x2C__chain_x2C__cryptocurrency">
</g>
<g id="_x33_0_user_x2C__laptop_x2C__bitcoin_x2C__coin_x2C__block_x2C__chain_x2C__cryptocurrency">
</g>
<g id="_x32_9_thief_x2C__bag_x2C__bitcoin_x2C__coin_x2C__block_x2C__chain_x2C__cryptocurrency">
</g>
<g id="_x32_8_code_x2C__programming_x2C__program_x2C__bitcoin_x2C__coin_x2C__cryptocurrency">
</g>
<g id="_x32_7_bitcoin_x2C__coin_x2C__block_x2C__chain_x2C__cryptocurrency">
</g>
<g id="_x32_6_shield_x2C__protection_x2C__bitcoin_x2C__coin_x2C__block_x2C__chain_x2C__cryptocurrency">
</g>
<g id="_x32_5_bug_x2C__laptop_x2C__miner_x2C__program_x2C__block_x2C__chain_x2C__cryptocurrency">
</g>
<g id="_x32_4_computer_x2C__monitor_x2C__bitcoin_x2C__coin_x2C__block_x2C__chain_x2C__cryptocurrency">
</g>
<g id="_x32_3_network_x2C__idea_x2C__bitcoin_x2C__coin_x2C__block_x2C__chain_x2C__cryptocurrency">
</g>
<g id="_x32_2_block_x2C__chain_x2C__cryptocurrency_x2C__technology_x2C__future">
</g>
<g id="_x32_1_smart_contact_x2C__contact_x2C__block_x2C__chain_x2C__cryptocurrency">
</g>
<g id="_x32_0_lock_x2C__safe_x2C__protection_x2C__block_x2C__chain_x2C__cryptocurrency_x2C__program">
</g>
<g id="_x31_9_server_x2C__data_x2C__bitcoin_x2C__coin_x2C__block_x2C__chain_x2C__cryptocurrency">
</g>
<g id="_x31_8_key_x2C__bitcoin_x2C__coin_x2C__block_x2C__chain_x2C__cryptocurrency">
</g>
<g id="_x31_7_pool_x2C__network_x2C__bitcoin_x2C__coin_x2C__block_x2C__chain_x2C__cryptocurrency">
</g>
<g id="_x31_6_mining_x2C__shovel_x2C__mine_x2C__coin_x2C__block_x2C__chain_x2C__cryptocurrency">
</g>
<g id="_x31_5_purse_x2C__bitcoin_x2C__coin_x2C__block_x2C__chain_x2C__cryptocurrency">
</g>
<g id="_x31_4_safe_x2C__protection_x2C__block_x2C__chain_x2C__cryptocurrency_x2C__program">
</g>
<g id="_x31_3_mining_x2C__funnel_x2C__satoshi_x2C__bitcoin_x2C__coin_x2C__cryptocurrency">
</g>
<g id="_x31_2_chart_x2C__bitcoin_x2C__coin_x2C__block_x2C__chain_x2C__cryptocurrency">
</g>
<g id="_x31_1_computer_x2C__monitor_x2C__bitcoin_x2C__coin_x2C__block_x2C__chain_x2C__cryptocurrency">
</g>
<g id="_x31_0_mining_x2C__pickaxe_x2C__stone_x2C__mine_x2C___bitcoin_x2C__coin_x2C__cryptocurrency">
</g>
<g id="_x39__miner_x2C__mining_x2C__computer_x2C__pickaxe_x2C__program_x2C__cryptocurrency">
</g>
<g id="_x38__video_card_x2C__mining_x2C__bitcoin_x2C__coin_x2C__block_x2C__chain_x2C__cryptocurrency">
</g>
<g id="_x37__exchanger_x2C__site_x2C__bitcoin_x2C__coin_x2C__block_x2C__chain_x2C__cryptocurrency">
</g>
<g id="_x36__shop_x2C__product_x2C__bitcoin_x2C__coin_x2C__block_x2C__chain_x2C__cryptocurrency">
</g>
<g id="_x35__bitcoin_x2C__coin_x2C__exchange_x2C__block_x2C__chain_x2C__cryptocurrency_x2C__product">
	<g>
		<g>
			<rect x="56.01" y="36" fill="#DA4453" width="6" height="27"/>
		</g>
		<g>
			<polygon fill="#ED5565" points="49.99,36 55.99,36 55.99,36.061 55.99,63 33.99,63 33.99,36 39.99,36 45.99,36 			"/>
		</g>
		<g>
			<path fill="#EDAB37" d="M21.98,24.95c-2.021,1.3-4.42,2.05-6.99,2.05s-4.97-0.75-6.99-2.05C4.391,22.65,1.99,18.61,1.99,14v6
				c0,4.601,2.39,8.641,6,10.95c2.02,1.3,4.42,2.05,7,2.05s4.98-0.75,7-2.05c3.61-2.31,6-6.35,6-10.95v-6
				C27.99,18.61,25.59,22.65,21.98,24.95z"/>
		</g>
		<g>
			<path fill="#FFCE54" d="M16.49,20c1.93,0,3.5-1.56,3.5-3.5c0-1.93-1.57-3.5-3.5-3.5c1.38,0,2.5-1.12,2.5-2.5S17.87,8,16.49,8
				h-1.5h-3v5v7h3H16.49z M27.99,14c0,4.61-2.4,8.65-6.01,10.95c-2.021,1.3-4.42,2.05-6.99,2.05s-4.97-0.75-6.99-2.05
				C4.391,22.65,1.99,18.61,1.99,14c0-7.18,5.82-13,13-13S27.99,6.82,27.99,14z"/>
		</g>
		<g>
			<g>
				<path fill="#F6BB42" d="M14.99,1c-0.682,0-1.347,0.068-2,0.17c6.228,0.964,11,6.332,11,12.83c0,4.61-2.4,8.65-6.01,10.95
					c-1.485,0.956-3.178,1.611-4.99,1.893c0.652,0.102,1.319,0.157,2,0.157c2.57,0,4.97-0.75,6.99-2.05
					c3.609-2.3,6.01-6.34,6.01-10.95C27.99,6.82,22.17,1,14.99,1z"/>
			</g>
		</g>
		<g>
			<path fill="#EDAB37" d="M16.49,8c1.38,0,2.5,1.12,2.5,2.5s-1.12,2.5-2.5,2.5h-4.5V8h3H16.49z"/>
		</g>
		<g>
			<path fill="#EDAB37" d="M16.49,13c1.93,0,3.5,1.57,3.5,3.5c0,1.94-1.57,3.5-3.5,3.5h-1.5h-3v-7H16.49z"/>
		</g>
	</g>
	<g>
		<g>
			<g>
				<path d="M55.988,64h-22c-0.553,0-1-0.447-1-1V36c0-0.553,0.447-1,1-1h22c0.553,0,1,0.447,1,1v27
					C56.988,63.553,56.541,64,55.988,64z M34.988,62h20V37h-20V62z"/>
			</g>
			<g>
				<path d="M62.012,64h-6c-0.553,0-1-0.447-1-1V36c0-0.553,0.447-1,1-1h6c0.553,0,1,0.447,1,1v27
					C63.012,63.553,62.564,64,62.012,64z M57.012,62h4V37h-4V62z"/>
			</g>
			<g>
				<path d="M49.988,34c-0.553,0-1-0.447-1-1c0-2.206-1.794-4-4-4s-4,1.794-4,4c0,0.553-0.447,1-1,1s-1-0.447-1-1
					c0-3.309,2.691-6,6-6s6,2.691,6,6C50.988,33.553,50.541,34,49.988,34z"/>
			</g>
			<g>
				<path d="M39.988,41c-0.553,0-1-0.447-1-1v-7c0-0.552,0.447-1,1-1s1,0.448,1,1v7C40.988,40.553,40.541,41,39.988,41z"/>
			</g>
			<g>
				<path d="M49.988,41c-0.553,0-1-0.447-1-1v-7c0-0.552,0.447-1,1-1s1,0.448,1,1v7C50.988,40.553,50.541,41,49.988,41z"/>
			</g>
			<g>
				<path d="M55.988,34c-0.553,0-1-0.447-1-1c0-2.206-1.794-4-4-4s-4,1.794-4,4c0,0.553-0.447,1-1,1s-1-0.447-1-1
					c0-3.309,2.691-6,6-6s6,2.691,6,6C56.988,33.553,56.541,34,55.988,34z"/>
			</g>
			<g>
				<path d="M45.988,37c-0.553,0-1-0.447-1-1v-3c0-0.552,0.447-1,1-1s1,0.448,1,1v3C46.988,36.553,46.541,37,45.988,37z"/>
			</g>
			<g>
				<path d="M55.988,37.063c-0.553,0-1-0.447-1-1V33c0-0.552,0.447-1,1-1s1,0.448,1,1v3.063
					C56.988,36.615,56.541,37.063,55.988,37.063z"/>
			</g>
		</g>
		<g>
			<g>
				<path d="M14.988,28c-7.72,0-14-6.28-14-14s6.28-14,14-14s14,6.28,14,14S22.708,28,14.988,28z M14.988,2c-6.617,0-12,5.383-12,12
					s5.383,12,12,12s12-5.383,12-12S21.605,2,14.988,2z"/>
			</g>
			<g>
				<path d="M14.988,34c-7.72,0-14-6.28-14-14c0-0.552,0.447-1,1-1s1,0.448,1,1c0,6.617,5.383,12,12,12s12-5.383,12-12
					c0-0.552,0.447-1,1-1s1,0.448,1,1C28.988,27.72,22.708,34,14.988,34z"/>
			</g>
			<g>
				<path d="M1.988,21c-0.553,0-1-0.448-1-1v-6c0-0.552,0.447-1,1-1s1,0.448,1,1v6C2.988,20.552,2.541,21,1.988,21z"/>
			</g>
			<g>
				<path d="M27.988,21c-0.553,0-1-0.448-1-1v-6c0-0.552,0.447-1,1-1s1,0.448,1,1v6C28.988,20.552,28.541,21,27.988,21z"/>
			</g>
			<g>
				<path d="M14.988,34c-0.553,0-1-0.447-1-1v-6c0-0.552,0.447-1,1-1s1,0.448,1,1v6C15.988,33.553,15.541,34,14.988,34z"/>
			</g>
			<g>
				<path d="M21.988,31.955c-0.553,0-1-0.448-1-1v-6c0-0.552,0.447-1,1-1s1,0.448,1,1v6C22.988,31.507,22.541,31.955,21.988,31.955z
					"/>
			</g>
			<g>
				<path d="M7.988,31.955c-0.553,0-1-0.448-1-1v-6c0-0.552,0.447-1,1-1s1,0.448,1,1v6C8.988,31.507,8.541,31.955,7.988,31.955z"/>
			</g>
		</g>
		<g>
			<g>
				<path d="M28.988,49h-14c-0.553,0-1-0.447-1-1s0.447-1,1-1h14c0.553,0,1,0.447,1,1S29.541,49,28.988,49z"/>
			</g>
			<g>
				<path d="M14.988,49c-0.553,0-1-0.447-1-1V38c0-0.553,0.447-1,1-1s1,0.447,1,1v10C15.988,48.553,15.541,49,14.988,49z"/>
			</g>
			<g>
				<path d="M11.988,42c-0.256,0-0.512-0.098-0.707-0.293c-0.391-0.391-0.391-1.023,0-1.414l3-3c0.391-0.391,1.023-0.391,1.414,0
					s0.391,1.023,0,1.414l-3,3C12.5,41.902,12.244,42,11.988,42z"/>
			</g>
			<g>
				<path d="M17.988,42c-0.256,0-0.512-0.098-0.707-0.293l-3-3c-0.391-0.391-0.391-1.023,0-1.414s1.023-0.391,1.414,0l3,3
					c0.391,0.391,0.391,1.023,0,1.414C18.5,41.902,18.244,42,17.988,42z"/>
			</g>
		</g>
		<g>
			<g>
				<path d="M47.988,15h-15c-0.553,0-1-0.448-1-1s0.447-1,1-1h15c0.553,0,1,0.448,1,1S48.541,15,47.988,15z"/>
			</g>
			<g>
				<path d="M47.988,24c-0.553,0-1-0.448-1-1v-9c0-0.552,0.447-1,1-1s1,0.448,1,1v9C48.988,23.552,48.541,24,47.988,24z"/>
			</g>
			<g>
				<path d="M47.988,24c-0.256,0-0.512-0.098-0.707-0.293c-0.391-0.391-0.391-1.023,0-1.414l3-3c0.391-0.391,1.023-0.391,1.414,0
					s0.391,1.023,0,1.414l-3,3C48.5,23.902,48.244,24,47.988,24z"/>
			</g>
			<g>
				<path d="M47.988,24c-0.256,0-0.512-0.098-0.707-0.293l-3-3c-0.391-0.391-0.391-1.023,0-1.414s1.023-0.391,1.414,0l3,3
					c0.391,0.391,0.391,1.023,0,1.414C48.5,23.902,48.244,24,47.988,24z"/>
			</g>
		</g>
		<g>
			<g>
				<path d="M11.988,21c-0.553,0-1-0.448-1-1V8c0-0.552,0.447-1,1-1s1,0.448,1,1v12C12.988,20.552,12.541,21,11.988,21z"/>
			</g>
			<g>
				<path d="M16.488,21c-0.553,0-1-0.448-1-1s0.447-1,1-1c1.379,0,2.5-1.122,2.5-2.5s-1.121-2.5-2.5-2.5c-0.553,0-1-0.448-1-1
					s0.447-1,1-1c2.481,0,4.5,2.019,4.5,4.5S18.97,21,16.488,21z"/>
			</g>
			<g>
				<path d="M16.488,14c-0.553,0-1-0.448-1-1s0.447-1,1-1c0.827,0,1.5-0.673,1.5-1.5S17.315,9,16.488,9c-0.553,0-1-0.448-1-1
					s0.447-1,1-1c1.93,0,3.5,1.57,3.5,3.5S18.418,14,16.488,14z"/>
			</g>
			<g>
				<path d="M16.488,9h-5.5c-0.553,0-1-0.448-1-1s0.447-1,1-1h5.5c0.553,0,1,0.448,1,1S17.041,9,16.488,9z"/>
			</g>
			<g>
				<path d="M16.488,14h-4.5c-0.553,0-1-0.448-1-1s0.447-1,1-1h4.5c0.553,0,1,0.448,1,1S17.041,14,16.488,14z"/>
			</g>
			<g>
				<path d="M16.488,21h-5.5c-0.553,0-1-0.448-1-1s0.447-1,1-1h5.5c0.553,0,1,0.448,1,1S17.041,21,16.488,21z"/>
			</g>
			<g>
				<path d="M14.988,9c-0.553,0-1-0.448-1-1V7c0-0.552,0.447-1,1-1s1,0.448,1,1v1C15.988,8.552,15.541,9,14.988,9z"/>
			</g>
			<g>
				<path d="M14.988,22c-0.553,0-1-0.448-1-1v-1c0-0.552,0.447-1,1-1s1,0.448,1,1v1C15.988,21.552,15.541,22,14.988,22z"/>
			</g>
		</g>
	</g>
</g>
<g id="_x34__bitcoin_x2C__coin_x2C__exchange_x2C__block_x2C__chain_x2C__cryptocurrency">
</g>
<g id="_x33__bitcoin_x2C__coin_x2C__exchange_x2C__block_x2C__chain_x2C__cryptocurrency">
</g>
<g id="_x32__brain_x2C__smart_x2C__coin_x2C__block_x2C__chain_x2C__cryptocurrency">
</g>
<g id="_x31__bitcoin_x2C__coin_x2C__block_x2C__chain_x2C__cryptocurrency">
</g>
</svg>
