<svg xmlns="http://www.w3.org/2000/svg" x="0" y="0" xml:space="preserve" viewBox="0 0 64 64"><path fill="#EDAB37" d="M58 52.66c-1.469.85-3.18 1.34-5 1.34s-3.529-.49-5-1.34A9.992 9.992 0 0 1 43 44v4c0 3.7 2.01 6.931 5 8.66 1.471.85 3.18 1.34 5 1.34s3.531-.49 5-1.34c2.99-1.729 5-4.96 5-8.66v-4c0 3.7-2.01 6.931-5 8.66z"/><path fill="#EDAB37" d="M54.5 43a2.5 2.5 0 0 1 0 5H51v-5h3.5zM54 39c1.111 0 2 .9 2 2 0 1.11-.889 2-2 2h-3v-4h3z"/><path fill="#FFCE54" d="M54.5 48a2.5 2.5 0 0 0 0-5H54c1.111 0 2-.89 2-2 0-1.1-.889-2-2-2h-3v9h3.5zm8.5-4c0 3.7-2.01 6.931-5 8.66-1.469.85-3.18 1.34-5 1.34s-3.529-.49-5-1.34A9.992 9.992 0 0 1 43 44c0-5.52 4.48-10 10-10h.02c5.511.01 9.98 4.49 9.98 10z"/><path fill="#F6BB42" d="M53.02 34H53c-.686 0-1.355.069-2.002.201C55.563 35.128 59 39.168 59 44c0 3.7-2.01 6.931-5 8.66a9.965 9.965 0 0 1-3 1.116A9.914 9.914 0 0 0 53 54c1.82 0 3.531-.49 5-1.34 2.99-1.729 5-4.96 5-8.66 0-5.51-4.469-9.99-9.98-10z"/><path fill="#AAB2BD" d="M1.02 10H4V46H1.02z"/><path fill="#656D78" d="M43 44v2H4V10h49.02v24H53c-5.52 0-10 4.48-10 10z"/><path fill="#656D78" d="M43 44v2H4V10h49.02v24H53c-5.52 0-10 4.48-10 10z"/><path fill="#CCD1D9" d="M53 8v2H1V8c0-1.1.9-2 2-2h48c1.111 0 2 .9 2 2z"/><path fill="#AAB2BD" d="M51 6h-4c1.111 0 2 .9 2 2v2h4V8c0-1.1-.889-2-2-2z"/><path fill="#434A54" d="M49 10v24.839A9.948 9.948 0 0 1 53 34V10h-4z"/><g><path d="M53 55c-6.065 0-11-4.935-11-11s4.935-11 11-11 11 4.935 11 11-4.935 11-11 11zm0-20c-4.963 0-9 4.037-9 9s4.037 9 9 9 9-4.037 9-9-4.037-9-9-9z"/><path d="M53 59c-6.065 0-11-4.935-11-11a1 1 0 1 1 2 0c0 4.963 4.037 9 9 9s9-4.037 9-9a1 1 0 1 1 2 0c0 6.065-4.935 11-11 11z"/><path d="M63 49a1 1 0 0 1-1-1v-4a1 1 0 1 1 2 0v4a1 1 0 0 1-1 1zM51 49a1 1 0 0 1-1-1v-9a1 1 0 1 1 2 0v9a1 1 0 0 1-1 1zM54 44a1 1 0 1 1 0-2 1 1 0 0 0 0-2 1 1 0 1 1 0-2c1.654 0 3 1.346 3 3s-1.346 3-3 3z"/><path d="M54.499 49a1 1 0 1 1 0-2c.827 0 1.501-.673 1.501-1.5 0-.828-.674-1.502-1.501-1.502a1 1 0 1 1 0-2A3.505 3.505 0 0 1 58 45.5c0 1.93-1.57 3.5-3.501 3.5zM54 40h-4a1 1 0 1 1 0-2h4a1 1 0 1 1 0 2z"/><path d="M54.499 49H50a1 1 0 1 1 0-2h4.499a1 1 0 1 1 0 2zM51 44a1 1 0 0 1-.001-2l3.499-.002h.001a1 1 0 0 1 .001 2L51 44zM53 40a1 1 0 0 1-1-1v-1a1 1 0 1 1 2 0v1a1 1 0 0 1-1 1z"/><path d="M53 50a1 1 0 0 1-1-1v-1a1 1 0 1 1 2 0v1a1 1 0 0 1-1 1z"/><g><path d="M53 59a1 1 0 0 1-1-1v-4a1 1 0 1 1 2 0v4a1 1 0 0 1-1 1z"/></g><g><path d="M58 57.66a1 1 0 0 1-1-1v-3.998a1 1 0 1 1 2 0v3.998a1 1 0 0 1-1 1z"/></g><g><path d="M48 57.66a1 1 0 0 1-1-1v-3.998a1 1 0 1 1 2 0v3.998a1 1 0 0 1-1 1z"/></g><g><path d="M43 49a1 1 0 0 1-1-1v-4a1 1 0 1 1 2 0v4a1 1 0 0 1-1 1z"/></g><g><path d="M4.03 9c-.552 0-1.005-.447-1.005-1s.443-1 .995-1h.01a1 1 0 1 1 0 2zM7.03 9c-.552 0-1.005-.447-1.005-1s.443-1 .995-1h.01a1 1 0 1 1 0 2zM10.03 9c-.552 0-1.005-.447-1.005-1s.442-1 .994-1h.011a1 1 0 1 1 0 2zM42.999 47H1.018a1 1 0 0 1-1-1V10a1 1 0 0 1 1-1h52a1 1 0 0 1 1 1v24a1 1 0 1 1-2 0V11h-50v34h40.981a1 1 0 1 1 0 2z"/><path d="M1 9a1 1 0 0 1-1-1c0-1.654 1.346-3 3-3a1 1 0 1 1 0 2 1 1 0 0 0-1 1 1 1 0 0 1-1 1z"/><path d="M1 11a1 1 0 0 1-1-1V8a1 1 0 1 1 2 0v2a1 1 0 0 1-1 1zM53 9a1 1 0 0 1-1-1 1 1 0 0 0-1-1 1 1 0 1 1 0-2c1.654 0 3 1.346 3 3a1 1 0 0 1-1 1z"/><path d="M53 11a1 1 0 0 1-1-1V8a1 1 0 1 1 2 0v2a1 1 0 0 1-1 1zM51 7H3a1 1 0 1 1 0-2h48a1 1 0 1 1 0 2z"/></g><g><path d="M4 47a1 1 0 0 1-1-1V10a1 1 0 1 1 2 0v36a1 1 0 0 1-1 1z"/></g><g><path d="M25 15H8a1 1 0 1 1 0-2h17a1 1 0 1 1 0 2zM28 19H10a1 1 0 1 1 0-2h18a1 1 0 1 1 0 2zM20 39.012H10a1 1 0 1 1 0-2h10a1 1 0 1 1 0 2zM34 19h-2a1 1 0 1 1 0-2h2a1 1 0 1 1 0 2zM14 43H8a1 1 0 1 1 0-2h6a1 1 0 1 1 0 2zM16 23h-4a1 1 0 1 1 0-2h4a1 1 0 1 1 0 2zM39 23H20a1 1 0 1 1 0-2h19a1 1 0 1 1 0 2zM33 27H12a1 1 0 1 1 0-2h21a1 1 0 1 1 0 2zM23 31H12a1 1 0 1 1 0-2h11a1 1 0 1 1 0 2zM33 35H18a1 1 0 1 1 0-2h15a1 1 0 1 1 0 2zM14 35h-2a1 1 0 1 1 0-2h2a1 1 0 1 1 0 2zM41 27h-4a1 1 0 1 1 0-2h4a1 1 0 1 1 0 2z"/></g></g></svg>