<?xml version="1.0" encoding="utf-8"?>
<!-- Generator: Adobe Illustrator 16.0.0, SVG Export Plug-In . SVG Version: 6.00 Build 0)  -->
<!DOCTYPE svg PUBLIC "-//W3C//DTD SVG 1.1//EN" "http://www.w3.org/Graphics/SVG/1.1/DTD/svg11.dtd">
<svg version="1.1" xmlns="http://www.w3.org/2000/svg" xmlns:xlink="http://www.w3.org/1999/xlink" x="0px" y="0px" width="64px"
	 height="64px" viewBox="0 0 64 64" enable-background="new 0 0 64 64" xml:space="preserve">
<g id="_x35_0_code_x2C__programming_x2C__program_x2C__bitcoin_x2C__block_x2C__chain_x2C__cryptocurrency">
</g>
<g id="_x34_9_balloon_x2C__takeoff_x2C__bitcoin_x2C__coin_x2C__block_x2C__chain_x2C__cryptocurrency">
</g>
<g id="_x34_8_video_card_x2C__mining_x2C__farm_x2C__computer_x2C__block_x2C__chain_x2C__cryptocurrency">
</g>
<g id="_x34_7_money_box_x2C__saving_x2C__bitcoin_x2C__coin_x2C__block_x2C__chain_x2C__cryptocurrency">
</g>
<g id="_x34_6_portfolio_x2C__finance_x2C__bank_note_x2C__bitcoin_x2C__coin_x2C__cryptocurrency">
</g>
<g id="_x34_5_tap_x2C__water_x2C__bitcoin_x2C__coin_x2C__block_x2C__chain_x2C__cryptocurrency">
</g>
<g id="_x34_4_phone_x2C__bitcoin_x2C__coin_x2C__block_x2C__chain_x2C__cryptocurrency">
</g>
<g id="_x34_3_rocket_x2C__sun_x2C__bitcoin_x2C__coin_x2C__block_x2C__chain_x2C__cryptocurrency">
</g>
<g id="_x34_2_transfer_x2C__network_x2C__bitcoin_x2C__coin_x2C__block_x2C__chain_x2C__cryptocurrency">
</g>
<g id="_x34_1_scales_x2C__comparison_x2C__bitcoin_x2C__coin_x2C__block_x2C__chain_x2C__cryptocurrency">
</g>
<g id="_x34_0_calculator_x2C__calculating_x2C__bitcoin_x2C__coin_x2C__block_x2C__chain_x2C__cryptocurrency">
</g>
<g id="_x33_9_start-up_x2C__plant_x2C__hand_x2C__bitcoin_x2C__coin_x2C__cryptocurrency">
</g>
<g id="_x33_8_idea_x2C__bulb_x2C__bitcoin_x2C__coin_x2C__block_x2C__chain_x2C__cryptocurrency">
</g>
<g id="_x33_7_users_x2C__user_x2C__co-founder_x2C__bitcoin_x2C__coin_x2C__cryptocurrency">
</g>
<g id="_x33_6_safe_x2C__protection_x2C__bitcoin_x2C__coin_x2C__block_x2C__chain_x2C__cryptocurrency">
</g>
<g id="_x33_5_flash_drive_x2C__key_x2C__block_x2C__chain_x2C__cryptocurrency">
</g>
<g id="_x33_4_cloud_x2C__mining_x2C__bitcoin_x2C__coin_x2C__block_x2C__chain_x2C__cryptocurrency">
</g>
<g id="_x33_3_start_up_x2C__plant_x2C__bitcoin_x2C__coin_x2C__block_x2C__chain_x2C__cryptocurrency">
</g>
<g id="_x33_2_planet_x2C__bitcoin_x2C__coin_x2C__block_x2C__chain_x2C__cryptocurrency">
</g>
<g id="_x33_1_payment_x2C__hand_x2C__bitcoin_x2C__coin_x2C__block_x2C__chain_x2C__cryptocurrency">
</g>
<g id="_x33_0_user_x2C__laptop_x2C__bitcoin_x2C__coin_x2C__block_x2C__chain_x2C__cryptocurrency">
</g>
<g id="_x32_9_thief_x2C__bag_x2C__bitcoin_x2C__coin_x2C__block_x2C__chain_x2C__cryptocurrency">
</g>
<g id="_x32_8_code_x2C__programming_x2C__program_x2C__bitcoin_x2C__coin_x2C__cryptocurrency">
</g>
<g id="_x32_7_bitcoin_x2C__coin_x2C__block_x2C__chain_x2C__cryptocurrency">
</g>
<g id="_x32_6_shield_x2C__protection_x2C__bitcoin_x2C__coin_x2C__block_x2C__chain_x2C__cryptocurrency">
</g>
<g id="_x32_5_bug_x2C__laptop_x2C__miner_x2C__program_x2C__block_x2C__chain_x2C__cryptocurrency">
</g>
<g id="_x32_4_computer_x2C__monitor_x2C__bitcoin_x2C__coin_x2C__block_x2C__chain_x2C__cryptocurrency">
</g>
<g id="_x32_3_network_x2C__idea_x2C__bitcoin_x2C__coin_x2C__block_x2C__chain_x2C__cryptocurrency">
</g>
<g id="_x32_2_block_x2C__chain_x2C__cryptocurrency_x2C__technology_x2C__future">
</g>
<g id="_x32_1_smart_contact_x2C__contact_x2C__block_x2C__chain_x2C__cryptocurrency">
</g>
<g id="_x32_0_lock_x2C__safe_x2C__protection_x2C__block_x2C__chain_x2C__cryptocurrency_x2C__program">
	<g>
		<g>
			<path fill="#E6E9ED" d="M44.01,13v14.01c-1.229-0.93-2.569-1.72-4.01-2.34v-0.01V13c0-4.42-3.59-8-8-8c-4.42,0-8,3.58-8,8v11.66
				v0.01c-1.43,0.62-2.77,1.41-4,2.33V13c0-6.63,5.37-12,12-12c6.62,0,12,5.37,12,12H44.01z"/>
		</g>
		<g>
			<g>
				<path fill="#CCD1D9" d="M44,13c0-6.63-5.38-12-12-12c-0.684,0-1.349,0.07-2.001,0.18C35.668,2.134,40,7.054,40,13h0.01v11.675
					c1.437,0.619,2.773,1.407,4,2.335V13H44z"/>
			</g>
		</g>
		<g>
			<path fill="#EDAB37" d="M33,38c1.101,0,2,0.89,2,2c0,1.1-0.899,1.99-2,1.99h-0.01H29V38h2H33z"/>
		</g>
		<g>
			<path fill="#EDAB37" d="M33,41.99c1.66,0.01,3,1.35,3,3.01c0,1.649-1.35,3-3.01,3H31h-2v-6.01h3.99H33z"/>
		</g>
		<g>
			<path fill="#FFCE54" d="M32.99,48c1.66,0,3.01-1.351,3.01-3c0-1.66-1.34-3-3-3.01c1.101,0,2-0.891,2-1.99c0-1.11-0.899-2-2-2h-2
				h-2v3.99V48h2H32.99z M43,43c0,2-0.54,3.88-1.479,5.5c-0.96,1.67-2.351,3.06-4.021,4.02C35.88,53.46,34.01,54,32,54
				c-2,0-3.88-0.53-5.5-1.471c-1.67-0.97-3.06-2.359-4.03-4.029C21.54,46.88,21,45,21,43s0.54-3.88,1.47-5.5
				c0.971-1.67,2.36-3.061,4.03-4.03C28.12,32.529,30,32,32,32s3.88,0.529,5.49,1.47c1.68,0.97,3.07,2.36,4.03,4.03
				C42.46,39.12,43,41,43,43z"/>
		</g>
		<g>
			<path fill="#F6BB42" d="M43,43c0-2-0.54-3.88-1.479-5.5c-0.96-1.67-2.351-3.061-4.03-4.03C35.88,32.529,34,32,32,32
				s-3.88,0.529-5.5,1.47c-1.67,0.97-3.06,2.36-4.03,4.03C21.54,39.12,21,41,21,43s0.54,3.88,1.47,5.5
				c0.971,1.67,2.36,3.06,4.03,4.029C28.12,53.47,30,54,32,54c2.01,0,3.88-0.54,5.5-1.48c1.67-0.96,3.061-2.35,4.021-4.02
				C42.46,46.88,43,45,43,43z M32,28c8.28,0,15,6.72,15,15c0,8.279-6.72,15-15,15c-8.29,0-15-6.721-15-15C17,34.72,23.71,28,32,28z"
				/>
		</g>
		<g>
			<path fill="#656D78" d="M44.01,27.01C48.86,30.66,52,36.46,52,43c0,11.04-8.96,20-20,20c-11.05,0-20-8.96-20-20
				c0-6.54,3.14-12.351,8-15.99V27c1.23-0.92,2.57-1.71,4-2.33C26.45,23.6,29.15,23,32,23c2.851,0,5.55,0.6,8,1.67
				C41.44,25.29,42.78,26.08,44.01,27.01z M47,43c0-8.28-6.72-15-15-15c-8.29,0-15,6.72-15,15c0,8.279,6.71,15,15,15
				C40.28,58,47,51.279,47,43z"/>
		</g>
		<g>
			<g>
				<path fill="#434A54" d="M44.01,27.01c-1.229-0.93-2.569-1.72-4.01-2.34C37.55,23.6,34.851,23,32,23
					c-0.676,0-1.342,0.039-2,0.104c2.115,0.212,4.131,0.749,6,1.565c1.44,0.62,2.78,1.41,4.01,2.34C44.86,30.66,48,36.46,48,43
					c0,10.365-7.898,18.895-18.001,19.898C30.657,62.964,31.324,63,32,63c11.04,0,20-8.96,20-20C52,36.46,48.86,30.66,44.01,27.01z"
					/>
			</g>
		</g>
	</g>
	<g>
		<g>
			<g>
				<path d="M29,49c-0.553,0-1-0.447-1-1V38c0-0.553,0.447-1,1-1s1,0.447,1,1v10C30,48.553,29.553,49,29,49z"/>
			</g>
			<g>
				<path d="M33.001,42.998c-0.553,0-1-0.447-1-1s0.447-1,1-1c0.551,0,0.999-0.448,0.999-0.999S33.552,39,33.001,39
					c-0.553,0-1-0.447-1-1s0.447-1,1-1C34.654,37,36,38.346,36,39.999S34.654,42.998,33.001,42.998z"/>
			</g>
			<g>
				<path d="M32.999,49c-0.553,0-1-0.447-1-1s0.447-1,1-1C34.103,47,35,46.103,35,45c0-1.104-0.897-2.002-2.001-2.002
					c-0.553,0-1-0.447-1-1s0.447-1,1-1C35.205,40.998,37,42.793,37,45C37,47.206,35.205,49,32.999,49z"/>
			</g>
			<g>
				<path d="M33.001,39H28c-0.553,0-1-0.447-1-1s0.447-1,1-1h5.001c0.553,0,1,0.447,1,1S33.554,39,33.001,39z"/>
			</g>
			<g>
				<path d="M32.999,49H28c-0.553,0-1-0.447-1-1s0.447-1,1-1h4.999c0.553,0,1,0.447,1,1S33.552,49,32.999,49z"/>
			</g>
			<g>
				<path d="M33.001,42.998H29c-0.553,0-1-0.447-1-1s0.447-1,1-1h4.001c0.553,0,1,0.447,1,1S33.554,42.998,33.001,42.998z"/>
			</g>
			<g>
				<path d="M31,39c-0.553,0-1-0.447-1-1v-1c0-0.553,0.447-1,1-1s1,0.447,1,1v1C32,38.553,31.553,39,31,39z"/>
			</g>
			<g>
				<path d="M31,50c-0.553,0-1-0.447-1-1v-1c0-0.553,0.447-1,1-1s1,0.447,1,1v1C32,49.553,31.553,50,31,50z"/>
			</g>
		</g>
		<g>
			<path d="M32,64c-11.579,0-21-9.421-21-21s9.421-21,21-21s21,9.421,21,21S43.579,64,32,64z M32,24c-10.477,0-19,8.523-19,19
				s8.523,19,19,19s19-8.523,19-19S42.477,24,32,24z"/>
		</g>
		<g>
			<path d="M32,59c-8.822,0-16-7.178-16-16s7.178-16,16-16s16,7.178,16,16S40.822,59,32,59z M32,29c-7.72,0-14,6.28-14,14
				s6.28,14,14,14s14-6.28,14-14S39.72,29,32,29z"/>
		</g>
		<g>
			<path d="M32,55c-6.617,0-12-5.383-12-12s5.383-12,12-12s12,5.383,12,12S38.617,55,32,55z M32,33c-5.514,0-10,4.486-10,10
				s4.486,10,10,10s10-4.486,10-10S37.514,33,32,33z"/>
		</g>
		<g>
			<path d="M44,14c-0.553,0-1-0.447-1-1c0-6.065-4.935-11-11-11S21,6.935,21,13c0,0.553-0.447,1-1,1s-1-0.447-1-1
				c0-7.168,5.832-13,13-13s13,5.832,13,13C45,13.553,44.553,14,44,14z"/>
		</g>
		<g>
			<path d="M40,14c-0.553,0-1-0.447-1-1c0-3.859-3.141-7-7-7s-7,3.141-7,7c0,0.553-0.447,1-1,1s-1-0.447-1-1c0-4.963,4.037-9,9-9
				s9,4.037,9,9C41,13.553,40.553,14,40,14z"/>
		</g>
		<g>
			<path d="M20,28.009c-0.553,0-1-0.447-1-1V13c0-0.553,0.447-1,1-1s1,0.447,1,1v14.009C21,27.562,20.553,28.009,20,28.009z"/>
		</g>
		<g>
			<path d="M44.011,28.009c-0.553,0-1-0.447-1-1V13c0-0.553,0.447-1,1-1s1,0.447,1,1v14.009
				C45.011,27.562,44.563,28.009,44.011,28.009z"/>
		</g>
		<g>
			<path d="M24,25.665c-0.553,0-1-0.447-1-1V13c0-0.553,0.447-1,1-1s1,0.447,1,1v11.665C25,25.218,24.553,25.665,24,25.665z"/>
		</g>
		<g>
			<path d="M40,25.665c-0.553,0-1-0.447-1-1V13c0-0.553,0.447-1,1-1s1,0.447,1,1v11.665C41,25.218,40.553,25.665,40,25.665z"/>
		</g>
		<g>
			<path d="M32,33c-0.553,0-1-0.447-1-1v-1c0-0.553,0.447-1,1-1s1,0.447,1,1v1C33,32.553,32.553,33,32,33z"/>
		</g>
		<g>
			<path d="M32,56c-0.553,0-1-0.447-1-1v-1c0-0.553,0.447-1,1-1s1,0.447,1,1v1C33,55.553,32.553,56,32,56z"/>
		</g>
		<g>
			<path d="M26.501,34.474c-0.346,0-0.682-0.18-0.867-0.5l-0.5-0.866c-0.276-0.479-0.112-1.09,0.366-1.366
				c0.477-0.276,1.09-0.112,1.366,0.366l0.5,0.866c0.276,0.479,0.112,1.09-0.366,1.366C26.843,34.431,26.671,34.474,26.501,34.474z"
				/>
		</g>
		<g>
			<path d="M38.001,54.393c-0.346,0-0.683-0.18-0.867-0.501l-0.5-0.867c-0.276-0.478-0.111-1.09,0.367-1.365
				c0.479-0.277,1.091-0.111,1.365,0.367l0.5,0.867c0.276,0.478,0.111,1.09-0.367,1.365C38.342,54.35,38.17,54.393,38.001,54.393z"
				/>
		</g>
		<g>
			<path d="M22.473,38.5c-0.17,0-0.342-0.043-0.499-0.134l-0.866-0.5c-0.479-0.276-0.643-0.888-0.366-1.366s0.888-0.643,1.366-0.366
				l0.866,0.5c0.479,0.276,0.643,0.888,0.366,1.366C23.154,38.32,22.818,38.5,22.473,38.5z"/>
		</g>
		<g>
			<path d="M42.392,50c-0.17,0-0.342-0.043-0.499-0.134l-0.867-0.501c-0.479-0.276-0.643-0.889-0.366-1.366
				c0.276-0.479,0.888-0.643,1.366-0.366l0.867,0.501c0.479,0.276,0.643,0.889,0.366,1.366C43.073,49.821,42.737,50,42.392,50z"/>
		</g>
		<g>
			<path d="M21,44h-1c-0.553,0-1-0.447-1-1s0.447-1,1-1h1c0.553,0,1,0.447,1,1S21.553,44,21,44z"/>
		</g>
		<g>
			<path d="M44,44h-1.002c-0.553,0-1-0.447-1-1s0.447-1,1-1H44c0.553,0,1,0.447,1,1S44.553,44,44,44z"/>
		</g>
		<g>
			<path d="M21.608,50c-0.346,0-0.682-0.18-0.867-0.5c-0.276-0.479-0.112-1.09,0.366-1.366l0.866-0.5
				c0.477-0.276,1.09-0.112,1.366,0.366s0.112,1.09-0.366,1.366l-0.866,0.5C21.95,49.957,21.778,50,21.608,50z"/>
		</g>
		<g>
			<path d="M41.525,38.501c-0.346,0-0.682-0.18-0.867-0.5c-0.276-0.479-0.112-1.09,0.366-1.366l0.868-0.501
				c0.477-0.276,1.089-0.112,1.366,0.366c0.276,0.479,0.112,1.09-0.366,1.366l-0.868,0.501
				C41.867,38.458,41.695,38.501,41.525,38.501z"/>
		</g>
		<g>
			<path d="M25.999,54.393c-0.17,0-0.341-0.043-0.498-0.134c-0.479-0.275-0.644-0.888-0.367-1.365l0.5-0.867
				c0.274-0.479,0.888-0.643,1.365-0.367c0.479,0.275,0.644,0.888,0.367,1.365l-0.5,0.867
				C26.682,54.213,26.345,54.393,25.999,54.393z"/>
		</g>
		<g>
			<path d="M37.497,34.475c-0.17,0-0.342-0.043-0.5-0.135c-0.478-0.276-0.642-0.889-0.364-1.366l0.502-0.867
				c0.276-0.479,0.885-0.645,1.366-0.364c0.478,0.276,0.642,0.889,0.364,1.366l-0.502,0.867
				C38.178,34.296,37.843,34.475,37.497,34.475z"/>
		</g>
	</g>
</g>
<g id="_x31_9_server_x2C__data_x2C__bitcoin_x2C__coin_x2C__block_x2C__chain_x2C__cryptocurrency">
</g>
<g id="_x31_8_key_x2C__bitcoin_x2C__coin_x2C__block_x2C__chain_x2C__cryptocurrency">
</g>
<g id="_x31_7_pool_x2C__network_x2C__bitcoin_x2C__coin_x2C__block_x2C__chain_x2C__cryptocurrency">
</g>
<g id="_x31_6_mining_x2C__shovel_x2C__mine_x2C__coin_x2C__block_x2C__chain_x2C__cryptocurrency">
</g>
<g id="_x31_5_purse_x2C__bitcoin_x2C__coin_x2C__block_x2C__chain_x2C__cryptocurrency">
</g>
<g id="_x31_4_safe_x2C__protection_x2C__block_x2C__chain_x2C__cryptocurrency_x2C__program">
</g>
<g id="_x31_3_mining_x2C__funnel_x2C__satoshi_x2C__bitcoin_x2C__coin_x2C__cryptocurrency">
</g>
<g id="_x31_2_chart_x2C__bitcoin_x2C__coin_x2C__block_x2C__chain_x2C__cryptocurrency">
</g>
<g id="_x31_1_computer_x2C__monitor_x2C__bitcoin_x2C__coin_x2C__block_x2C__chain_x2C__cryptocurrency">
</g>
<g id="_x31_0_mining_x2C__pickaxe_x2C__stone_x2C__mine_x2C___bitcoin_x2C__coin_x2C__cryptocurrency">
</g>
<g id="_x39__miner_x2C__mining_x2C__computer_x2C__pickaxe_x2C__program_x2C__cryptocurrency">
</g>
<g id="_x38__video_card_x2C__mining_x2C__bitcoin_x2C__coin_x2C__block_x2C__chain_x2C__cryptocurrency">
</g>
<g id="_x37__exchanger_x2C__site_x2C__bitcoin_x2C__coin_x2C__block_x2C__chain_x2C__cryptocurrency">
</g>
<g id="_x36__shop_x2C__product_x2C__bitcoin_x2C__coin_x2C__block_x2C__chain_x2C__cryptocurrency">
</g>
<g id="_x35__bitcoin_x2C__coin_x2C__exchange_x2C__block_x2C__chain_x2C__cryptocurrency_x2C__product">
</g>
<g id="_x34__bitcoin_x2C__coin_x2C__exchange_x2C__block_x2C__chain_x2C__cryptocurrency">
</g>
<g id="_x33__bitcoin_x2C__coin_x2C__exchange_x2C__block_x2C__chain_x2C__cryptocurrency">
</g>
<g id="_x32__brain_x2C__smart_x2C__coin_x2C__block_x2C__chain_x2C__cryptocurrency">
</g>
<g id="_x31__bitcoin_x2C__coin_x2C__block_x2C__chain_x2C__cryptocurrency">
</g>
</svg>
