<?xml version="1.0" encoding="utf-8"?>
<!-- Generator: Adobe Illustrator 16.0.0, SVG Export Plug-In . SVG Version: 6.00 Build 0)  -->
<!DOCTYPE svg PUBLIC "-//W3C//DTD SVG 1.1//EN" "http://www.w3.org/Graphics/SVG/1.1/DTD/svg11.dtd">
<svg version="1.1" xmlns="http://www.w3.org/2000/svg" xmlns:xlink="http://www.w3.org/1999/xlink" x="0px" y="0px" width="64px"
	 height="64px" viewBox="0 0 64 64" enable-background="new 0 0 64 64" xml:space="preserve">
<g id="_x35_0_code_x2C__programming_x2C__program_x2C__bitcoin_x2C__block_x2C__chain_x2C__cryptocurrency">
</g>
<g id="_x34_9_balloon_x2C__takeoff_x2C__bitcoin_x2C__coin_x2C__block_x2C__chain_x2C__cryptocurrency">
</g>
<g id="_x34_8_video_card_x2C__mining_x2C__farm_x2C__computer_x2C__block_x2C__chain_x2C__cryptocurrency">
</g>
<g id="_x34_7_money_box_x2C__saving_x2C__bitcoin_x2C__coin_x2C__block_x2C__chain_x2C__cryptocurrency">
</g>
<g id="_x34_6_portfolio_x2C__finance_x2C__bank_note_x2C__bitcoin_x2C__coin_x2C__cryptocurrency">
</g>
<g id="_x34_5_tap_x2C__water_x2C__bitcoin_x2C__coin_x2C__block_x2C__chain_x2C__cryptocurrency">
</g>
<g id="_x34_4_phone_x2C__bitcoin_x2C__coin_x2C__block_x2C__chain_x2C__cryptocurrency">
</g>
<g id="_x34_3_rocket_x2C__sun_x2C__bitcoin_x2C__coin_x2C__block_x2C__chain_x2C__cryptocurrency">
</g>
<g id="_x34_2_transfer_x2C__network_x2C__bitcoin_x2C__coin_x2C__block_x2C__chain_x2C__cryptocurrency">
</g>
<g id="_x34_1_scales_x2C__comparison_x2C__bitcoin_x2C__coin_x2C__block_x2C__chain_x2C__cryptocurrency">
</g>
<g id="_x34_0_calculator_x2C__calculating_x2C__bitcoin_x2C__coin_x2C__block_x2C__chain_x2C__cryptocurrency">
</g>
<g id="_x33_9_start-up_x2C__plant_x2C__hand_x2C__bitcoin_x2C__coin_x2C__cryptocurrency">
</g>
<g id="_x33_8_idea_x2C__bulb_x2C__bitcoin_x2C__coin_x2C__block_x2C__chain_x2C__cryptocurrency">
</g>
<g id="_x33_7_users_x2C__user_x2C__co-founder_x2C__bitcoin_x2C__coin_x2C__cryptocurrency">
</g>
<g id="_x33_6_safe_x2C__protection_x2C__bitcoin_x2C__coin_x2C__block_x2C__chain_x2C__cryptocurrency">
</g>
<g id="_x33_5_flash_drive_x2C__key_x2C__block_x2C__chain_x2C__cryptocurrency">
</g>
<g id="_x33_4_cloud_x2C__mining_x2C__bitcoin_x2C__coin_x2C__block_x2C__chain_x2C__cryptocurrency">
</g>
<g id="_x33_3_start_up_x2C__plant_x2C__bitcoin_x2C__coin_x2C__block_x2C__chain_x2C__cryptocurrency">
	<g>
		<g>
			<polygon fill="#ED5565" points="42.818,43 42.818,46 41.818,46 19.818,46 18.838,46 18.838,43 30.818,43 			"/>
		</g>
		<g>
			<polygon fill="#DA4453" points="38.818,43 38.818,46 41.818,46 42.818,46 42.818,43 			"/>
		</g>
		<g>
			<polygon fill="#DA4453" points="34.818,63 30.818,63 26.818,63 22.828,63 19.818,46 41.818,46 38.809,63 			"/>
		</g>
		<g>
			<polygon fill="#D3374E" points="37.818,46 34.809,63 35.818,63 38.809,63 41.818,46 			"/>
		</g>
		<g>
			<path fill="#A0D468" d="M34.988,36.83c-1.56-1.56-1.56-4.1,0-5.66c1.56-1.56,8.27-5.729,9.83-4.17
				c1.56,1.561-2.61,8.271-4.17,9.83C39.078,38.391,36.548,38.391,34.988,36.83z"/>
		</g>
		<g>
			<path fill="#A0D468" d="M27.088,29.75c0.971,0.98,0.971,2.561,0,3.53c-0.979,0.979-2.56,0.979-3.54,0
				c-0.979-0.97-2.979-4.55-2-5.53C22.528,26.771,26.108,28.771,27.088,29.75z"/>
		</g>
		<g>
			<path fill="#EDAB37" d="M35.828,19.66c-1.47,0.85-3.18,1.34-5,1.34s-3.53-0.49-5-1.34c-2.99-1.729-5-4.96-5-8.66v4
				c0,3.7,2.01,6.931,5,8.66c1.47,0.85,3.18,1.34,5,1.34s3.53-0.49,5-1.34c2.99-1.729,5-4.96,5-8.66v-4
				C40.828,14.7,38.818,17.931,35.828,19.66z"/>
		</g>
		<g>
			<path fill="#FFCE54" d="M32.328,15c1.38,0,2.5-1.12,2.5-2.5s-1.12-2.5-2.5-2.5h-0.5c1.11,0,2-0.899,2-2c0-1.109-0.89-2-2-2h-1h-2
				v4v5h2H32.328z M40.828,11c0,3.7-2.01,6.931-5,8.66c-1.47,0.85-3.18,1.34-5,1.34s-3.53-0.49-5-1.34c-2.99-1.729-5-4.96-5-8.66
				c0-5.52,4.48-10,10-10C36.349,1,40.828,5.48,40.828,11z"/>
		</g>
		<g>
			<g>
				<path fill="#F6BB42" d="M30.828,1c-0.685,0-1.354,0.069-2,0.201c4.563,0.928,8,4.964,8,9.799c0,3.7-2.01,6.931-5,8.66
					c-0.915,0.529-1.931,0.897-3,1.116c0.648,0.133,1.313,0.224,2,0.224c1.82,0,3.53-0.49,5-1.34c2.99-1.729,5-4.96,5-8.66
					C40.828,5.48,36.349,1,30.828,1z"/>
			</g>
		</g>
		<g>
			<path fill="#EDAB37" d="M31.828,6c1.11,0,2,0.891,2,2c0,1.101-0.89,2-2,2h-3V6h2H31.828z"/>
		</g>
		<g>
			<path fill="#EDAB37" d="M32.328,10c1.38,0,2.5,1.12,2.5,2.5s-1.12,2.5-2.5,2.5h-1.5h-2v-5h3H32.328z"/>
		</g>
	</g>
	<g>
		<g>
			<g>
				<path d="M30.828,22c-6.065,0-11-4.935-11-11s4.935-11,11-11s11,4.935,11,11S36.894,22,30.828,22z M30.828,2
					c-4.963,0-9,4.037-9,9s4.037,9,9,9s9-4.037,9-9S35.791,2,30.828,2z"/>
			</g>
			<g>
				<path d="M30.828,25.999c-6.065,0-11-4.935-11-11c0-0.553,0.447-1,1-1s1,0.447,1,1c0,4.963,4.037,9,9,9s9-4.037,9-9
					c0-0.553,0.447-1,1-1s1,0.447,1,1C41.828,21.064,36.894,25.999,30.828,25.999z"/>
			</g>
			<g>
				<path d="M40.828,15.999c-0.553,0-1-0.447-1-1V11c0-0.553,0.447-1,1-1s1,0.447,1,1v3.999
					C41.828,15.552,41.381,15.999,40.828,15.999z"/>
			</g>
			<g>
				<g>
					<path d="M28.828,16c-0.553,0-1-0.447-1-1V6c0-0.553,0.447-1,1-1s1,0.447,1,1v9C29.828,15.553,29.381,16,28.828,16z"/>
				</g>
				<g>
					<path d="M31.828,10.999c-0.553,0-1-0.447-1-1s0.447-1,1-1c0.552,0,1-0.448,1-1c0-0.551-0.448-0.999-1-0.999
						c-0.553,0-1-0.447-1-1s0.447-1,1-1c1.654,0,3,1.346,3,2.999C34.828,9.653,33.482,10.999,31.828,10.999z"/>
				</g>
				<g>
					<path d="M32.327,16c-0.553,0-1-0.447-1-1s0.447-1,1-1c0.827,0,1.501-0.673,1.501-1.5c0-0.828-0.674-1.502-1.501-1.502
						c-0.553,0-1-0.447-1-1s0.447-1,1-1c1.931,0,3.501,1.571,3.501,3.502C35.828,14.43,34.258,16,32.327,16z"/>
				</g>
				<g>
					<path d="M31.828,7h-4c-0.553,0-1-0.447-1-1s0.447-1,1-1h4c0.553,0,1,0.447,1,1S32.381,7,31.828,7z"/>
				</g>
				<g>
					<path d="M32.327,16h-4.499c-0.553,0-1-0.447-1-1s0.447-1,1-1h4.499c0.553,0,1,0.447,1,1S32.88,16,32.327,16z"/>
				</g>
				<g>
					<path d="M28.828,11c-0.552,0-1-0.447-1-0.999C27.828,9.448,28.275,9,28.827,9l3.499-0.002c0.001,0,0.001,0,0.001,0
						c0.552,0,1,0.447,1,0.999c0,0.553-0.447,1.001-0.999,1.001L28.828,11C28.828,11,28.828,11,28.828,11z"/>
				</g>
				<g>
					<path d="M30.828,7c-0.553,0-1-0.447-1-1V4.999c0-0.553,0.447-1,1-1s1,0.447,1,1V6C31.828,6.553,31.381,7,30.828,7z"/>
				</g>
				<g>
					<path d="M30.828,17c-0.553,0-1-0.447-1-1v-1c0-0.553,0.447-1,1-1s1,0.447,1,1v1C31.828,16.553,31.381,17,30.828,17z"/>
				</g>
			</g>
			<g>
				<path d="M30.828,25.999c-0.553,0-1-0.447-1-1V21c0-0.553,0.447-1,1-1s1,0.447,1,1v3.999
					C31.828,25.552,31.381,25.999,30.828,25.999z"/>
			</g>
			<g>
				<path d="M35.828,24.66c-0.553,0-1-0.447-1-1v-3.998c0-0.553,0.447-1,1-1s1,0.447,1,1v3.998
					C36.828,24.213,36.381,24.66,35.828,24.66z"/>
			</g>
			<g>
				<path d="M25.828,24.66c-0.553,0-1-0.447-1-1v-3.998c0-0.553,0.447-1,1-1s1,0.447,1,1v3.998
					C26.828,24.213,26.381,24.66,25.828,24.66z"/>
			</g>
			<g>
				<path d="M20.828,15.999c-0.553,0-1-0.447-1-1V11c0-0.553,0.447-1,1-1s1,0.447,1,1v3.999
					C21.828,15.552,21.381,15.999,20.828,15.999z"/>
			</g>
		</g>
		<g>
			<path d="M42.816,47H18.84c-0.553,0-1-0.447-1-1v-3c0-0.553,0.447-1,1-1h23.977c0.553,0,1,0.447,1,1v3
				C43.816,46.553,43.369,47,42.816,47z M19.84,45h21.977v-1H19.84V45z"/>
		</g>
		<g>
			<path d="M22.827,64c-0.476,0-0.897-0.341-0.983-0.825l-3.012-17c-0.097-0.544,0.267-1.063,0.81-1.159
				c0.553-0.097,1.063,0.267,1.159,0.81l3.012,17c0.097,0.544-0.267,1.063-0.81,1.159C22.943,63.995,22.885,64,22.827,64z"/>
		</g>
		<g>
			<path d="M38.812,64c-0.058,0-0.116-0.005-0.176-0.016c-0.543-0.096-0.906-0.615-0.81-1.159l3.012-17
				c0.097-0.543,0.604-0.909,1.159-0.81c0.543,0.096,0.906,0.615,0.81,1.159l-3.012,17C39.709,63.659,39.287,64,38.812,64z"/>
		</g>
		<g>
			<path d="M38.811,64H22.828c-0.553,0-1-0.447-1-1s0.447-1,1-1h15.982c0.553,0,1,0.447,1,1S39.363,64,38.811,64z"/>
		</g>
		<g>
			<path d="M30.816,44C30.816,44,30.816,44,30.816,44c-0.553,0-1-0.448-1-1.001l0.012-18.001c0-0.552,0.448-0.999,1-0.999
				c0,0,0,0,0.001,0c0.552,0,0.999,0.448,0.999,1.001l-0.012,18.001C31.816,43.553,31.368,44,30.816,44z"/>
		</g>
		<g>
			<path d="M37.816,39c-1.336,0-2.592-0.521-3.535-1.465c-0.944-0.943-1.465-2.199-1.465-3.535s0.521-2.592,1.465-3.535
				c1.386-1.387,6.673-4.81,9.491-4.81c0.739,0,1.328,0.215,1.751,0.638c1.045,1.044,0.807,3.03-0.729,6.071
				c-1.004,1.989-2.484,4.212-3.443,5.171C40.408,38.479,39.152,39,37.816,39z M43.772,27.655c-1.992,0-6.759,2.904-8.077,4.224
				c-0.566,0.566-0.879,1.319-0.879,2.121s0.313,1.555,0.879,2.121c1.133,1.133,3.109,1.133,4.242,0
				c1.846-1.845,4.816-7.524,4.169-8.417l0,0C44.104,27.704,44.018,27.655,43.772,27.655z"/>
		</g>
		<g>
			<path d="M30.828,42c-0.256,0-0.512-0.098-0.706-0.292c-0.392-0.391-0.392-1.023-0.002-1.414l7.16-7.172
				c0.391-0.393,1.025-0.391,1.414-0.002c0.392,0.391,0.392,1.023,0.002,1.414l-7.16,7.172C31.341,41.902,31.084,42,30.828,42z"/>
		</g>
		<g>
			<path d="M25.316,35.018c-0.935,0-1.813-0.364-2.475-1.025c-0.622-0.622-1.42-1.886-1.941-3.073
				c-0.796-1.814-0.815-3.119-0.059-3.876c0.253-0.253,0.718-0.555,1.498-0.555c1.797,0,4.551,1.654,5.451,2.555
				c1.364,1.364,1.364,3.585,0,4.949C27.13,34.653,26.251,35.018,25.316,35.018z M22.28,28.49c-0.089,0.753,1.065,3.178,1.976,4.088
				c0.566,0.566,1.555,0.566,2.121,0c0.585-0.585,0.585-1.536,0-2.121c-0.724-0.723-2.991-1.969-4.037-1.969
				C22.317,28.488,22.297,28.489,22.28,28.49z"/>
		</g>
		<g>
			<path d="M30.809,38.01c-0.256,0-0.512-0.098-0.707-0.293l-3.725-3.725c-0.391-0.391-0.391-1.023,0-1.414s1.023-0.391,1.414,0
				l3.725,3.725c0.391,0.391,0.391,1.023,0,1.414C31.32,37.912,31.064,38.01,30.809,38.01z"/>
		</g>
		<g>
			<path d="M26.816,64c-0.553,0-1-0.447-1-1v-1c0-0.553,0.447-1,1-1s1,0.447,1,1v1C27.816,63.553,27.369,64,26.816,64z"/>
		</g>
		<g>
			<path d="M30.816,64c-0.553,0-1-0.447-1-1v-1c0-0.553,0.447-1,1-1s1,0.447,1,1v1C31.816,63.553,31.369,64,30.816,64z"/>
		</g>
		<g>
			<path d="M34.816,64c-0.553,0-1-0.447-1-1v-1c0-0.553,0.447-1,1-1s1,0.447,1,1v1C35.816,63.553,35.369,64,34.816,64z"/>
		</g>
	</g>
</g>
<g id="_x33_2_planet_x2C__bitcoin_x2C__coin_x2C__block_x2C__chain_x2C__cryptocurrency">
</g>
<g id="_x33_1_payment_x2C__hand_x2C__bitcoin_x2C__coin_x2C__block_x2C__chain_x2C__cryptocurrency">
</g>
<g id="_x33_0_user_x2C__laptop_x2C__bitcoin_x2C__coin_x2C__block_x2C__chain_x2C__cryptocurrency">
</g>
<g id="_x32_9_thief_x2C__bag_x2C__bitcoin_x2C__coin_x2C__block_x2C__chain_x2C__cryptocurrency">
</g>
<g id="_x32_8_code_x2C__programming_x2C__program_x2C__bitcoin_x2C__coin_x2C__cryptocurrency">
</g>
<g id="_x32_7_bitcoin_x2C__coin_x2C__block_x2C__chain_x2C__cryptocurrency">
</g>
<g id="_x32_6_shield_x2C__protection_x2C__bitcoin_x2C__coin_x2C__block_x2C__chain_x2C__cryptocurrency">
</g>
<g id="_x32_5_bug_x2C__laptop_x2C__miner_x2C__program_x2C__block_x2C__chain_x2C__cryptocurrency">
</g>
<g id="_x32_4_computer_x2C__monitor_x2C__bitcoin_x2C__coin_x2C__block_x2C__chain_x2C__cryptocurrency">
</g>
<g id="_x32_3_network_x2C__idea_x2C__bitcoin_x2C__coin_x2C__block_x2C__chain_x2C__cryptocurrency">
</g>
<g id="_x32_2_block_x2C__chain_x2C__cryptocurrency_x2C__technology_x2C__future">
</g>
<g id="_x32_1_smart_contact_x2C__contact_x2C__block_x2C__chain_x2C__cryptocurrency">
</g>
<g id="_x32_0_lock_x2C__safe_x2C__protection_x2C__block_x2C__chain_x2C__cryptocurrency_x2C__program">
</g>
<g id="_x31_9_server_x2C__data_x2C__bitcoin_x2C__coin_x2C__block_x2C__chain_x2C__cryptocurrency">
</g>
<g id="_x31_8_key_x2C__bitcoin_x2C__coin_x2C__block_x2C__chain_x2C__cryptocurrency">
</g>
<g id="_x31_7_pool_x2C__network_x2C__bitcoin_x2C__coin_x2C__block_x2C__chain_x2C__cryptocurrency">
</g>
<g id="_x31_6_mining_x2C__shovel_x2C__mine_x2C__coin_x2C__block_x2C__chain_x2C__cryptocurrency">
</g>
<g id="_x31_5_purse_x2C__bitcoin_x2C__coin_x2C__block_x2C__chain_x2C__cryptocurrency">
</g>
<g id="_x31_4_safe_x2C__protection_x2C__block_x2C__chain_x2C__cryptocurrency_x2C__program">
</g>
<g id="_x31_3_mining_x2C__funnel_x2C__satoshi_x2C__bitcoin_x2C__coin_x2C__cryptocurrency">
</g>
<g id="_x31_2_chart_x2C__bitcoin_x2C__coin_x2C__block_x2C__chain_x2C__cryptocurrency">
</g>
<g id="_x31_1_computer_x2C__monitor_x2C__bitcoin_x2C__coin_x2C__block_x2C__chain_x2C__cryptocurrency">
</g>
<g id="_x31_0_mining_x2C__pickaxe_x2C__stone_x2C__mine_x2C___bitcoin_x2C__coin_x2C__cryptocurrency">
</g>
<g id="_x39__miner_x2C__mining_x2C__computer_x2C__pickaxe_x2C__program_x2C__cryptocurrency">
</g>
<g id="_x38__video_card_x2C__mining_x2C__bitcoin_x2C__coin_x2C__block_x2C__chain_x2C__cryptocurrency">
</g>
<g id="_x37__exchanger_x2C__site_x2C__bitcoin_x2C__coin_x2C__block_x2C__chain_x2C__cryptocurrency">
</g>
<g id="_x36__shop_x2C__product_x2C__bitcoin_x2C__coin_x2C__block_x2C__chain_x2C__cryptocurrency">
</g>
<g id="_x35__bitcoin_x2C__coin_x2C__exchange_x2C__block_x2C__chain_x2C__cryptocurrency_x2C__product">
</g>
<g id="_x34__bitcoin_x2C__coin_x2C__exchange_x2C__block_x2C__chain_x2C__cryptocurrency">
</g>
<g id="_x33__bitcoin_x2C__coin_x2C__exchange_x2C__block_x2C__chain_x2C__cryptocurrency">
</g>
<g id="_x32__brain_x2C__smart_x2C__coin_x2C__block_x2C__chain_x2C__cryptocurrency">
</g>
<g id="_x31__bitcoin_x2C__coin_x2C__block_x2C__chain_x2C__cryptocurrency">
</g>
</svg>
