<?xml version="1.0" encoding="utf-8"?>
<!-- Generator: Adobe Illustrator 16.0.0, SVG Export Plug-In . SVG Version: 6.00 Build 0)  -->
<!DOCTYPE svg PUBLIC "-//W3C//DTD SVG 1.1//EN" "http://www.w3.org/Graphics/SVG/1.1/DTD/svg11.dtd">
<svg version="1.1" xmlns="http://www.w3.org/2000/svg" xmlns:xlink="http://www.w3.org/1999/xlink" x="0px" y="0px" width="64px"
	 height="64px" viewBox="0 0 64 64" enable-background="new 0 0 64 64" xml:space="preserve">
<g id="_x35_0_code_x2C__programming_x2C__program_x2C__bitcoin_x2C__block_x2C__chain_x2C__cryptocurrency">
</g>
<g id="_x34_9_balloon_x2C__takeoff_x2C__bitcoin_x2C__coin_x2C__block_x2C__chain_x2C__cryptocurrency">
</g>
<g id="_x34_8_video_card_x2C__mining_x2C__farm_x2C__computer_x2C__block_x2C__chain_x2C__cryptocurrency">
</g>
<g id="_x34_7_money_box_x2C__saving_x2C__bitcoin_x2C__coin_x2C__block_x2C__chain_x2C__cryptocurrency">
</g>
<g id="_x34_6_portfolio_x2C__finance_x2C__bank_note_x2C__bitcoin_x2C__coin_x2C__cryptocurrency">
</g>
<g id="_x34_5_tap_x2C__water_x2C__bitcoin_x2C__coin_x2C__block_x2C__chain_x2C__cryptocurrency">
</g>
<g id="_x34_4_phone_x2C__bitcoin_x2C__coin_x2C__block_x2C__chain_x2C__cryptocurrency">
</g>
<g id="_x34_3_rocket_x2C__sun_x2C__bitcoin_x2C__coin_x2C__block_x2C__chain_x2C__cryptocurrency">
</g>
<g id="_x34_2_transfer_x2C__network_x2C__bitcoin_x2C__coin_x2C__block_x2C__chain_x2C__cryptocurrency">
</g>
<g id="_x34_1_scales_x2C__comparison_x2C__bitcoin_x2C__coin_x2C__block_x2C__chain_x2C__cryptocurrency">
</g>
<g id="_x34_0_calculator_x2C__calculating_x2C__bitcoin_x2C__coin_x2C__block_x2C__chain_x2C__cryptocurrency">
</g>
<g id="_x33_9_start-up_x2C__plant_x2C__hand_x2C__bitcoin_x2C__coin_x2C__cryptocurrency">
</g>
<g id="_x33_8_idea_x2C__bulb_x2C__bitcoin_x2C__coin_x2C__block_x2C__chain_x2C__cryptocurrency">
</g>
<g id="_x33_7_users_x2C__user_x2C__co-founder_x2C__bitcoin_x2C__coin_x2C__cryptocurrency">
</g>
<g id="_x33_6_safe_x2C__protection_x2C__bitcoin_x2C__coin_x2C__block_x2C__chain_x2C__cryptocurrency">
</g>
<g id="_x33_5_flash_drive_x2C__key_x2C__block_x2C__chain_x2C__cryptocurrency">
</g>
<g id="_x33_4_cloud_x2C__mining_x2C__bitcoin_x2C__coin_x2C__block_x2C__chain_x2C__cryptocurrency">
</g>
<g id="_x33_3_start_up_x2C__plant_x2C__bitcoin_x2C__coin_x2C__block_x2C__chain_x2C__cryptocurrency">
</g>
<g id="_x33_2_planet_x2C__bitcoin_x2C__coin_x2C__block_x2C__chain_x2C__cryptocurrency">
</g>
<g id="_x33_1_payment_x2C__hand_x2C__bitcoin_x2C__coin_x2C__block_x2C__chain_x2C__cryptocurrency">
</g>
<g id="_x33_0_user_x2C__laptop_x2C__bitcoin_x2C__coin_x2C__block_x2C__chain_x2C__cryptocurrency">
</g>
<g id="_x32_9_thief_x2C__bag_x2C__bitcoin_x2C__coin_x2C__block_x2C__chain_x2C__cryptocurrency">
</g>
<g id="_x32_8_code_x2C__programming_x2C__program_x2C__bitcoin_x2C__coin_x2C__cryptocurrency">
</g>
<g id="_x32_7_bitcoin_x2C__coin_x2C__block_x2C__chain_x2C__cryptocurrency">
</g>
<g id="_x32_6_shield_x2C__protection_x2C__bitcoin_x2C__coin_x2C__block_x2C__chain_x2C__cryptocurrency">
</g>
<g id="_x32_5_bug_x2C__laptop_x2C__miner_x2C__program_x2C__block_x2C__chain_x2C__cryptocurrency">
</g>
<g id="_x32_4_computer_x2C__monitor_x2C__bitcoin_x2C__coin_x2C__block_x2C__chain_x2C__cryptocurrency">
</g>
<g id="_x32_3_network_x2C__idea_x2C__bitcoin_x2C__coin_x2C__block_x2C__chain_x2C__cryptocurrency">
</g>
<g id="_x32_2_block_x2C__chain_x2C__cryptocurrency_x2C__technology_x2C__future">
</g>
<g id="_x32_1_smart_contact_x2C__contact_x2C__block_x2C__chain_x2C__cryptocurrency">
</g>
<g id="_x32_0_lock_x2C__safe_x2C__protection_x2C__block_x2C__chain_x2C__cryptocurrency_x2C__program">
</g>
<g id="_x31_9_server_x2C__data_x2C__bitcoin_x2C__coin_x2C__block_x2C__chain_x2C__cryptocurrency">
</g>
<g id="_x31_8_key_x2C__bitcoin_x2C__coin_x2C__block_x2C__chain_x2C__cryptocurrency">
	<g>
		<g>
			<path fill="#E6E9ED" d="M42.001,21.995c0,7.892-4.463,14.743-11.003,18.172c-2.143,1.124-4.504,1.874-7,2.178
				c-0.82,0.1-1.655,0.156-2.503,0.156c-3.309,0-6.428-0.785-9.192-2.179C5.6,36.958,0.996,30.006,0.996,22.001
				C0.995,10.675,10.175,1.495,21.494,1.503C32.816,1.496,41.994,10.673,42.001,21.995z"/>
		</g>
		<g>
			<path fill="#CCD1D9" d="M41.063,28.126l21.94,21.951v9.89l-14.009,2.53l-4.001-4v-4l-4-0.001l-2-1.999v-4l-4-0.001l-7.04-7.04
				c2.939-0.97,5.7-2.62,8.04-4.96c0.6-0.6,1.149-1.229,1.66-1.88C39.204,32.637,40.344,30.437,41.063,28.126z"/>
		</g>
		<g>
			<path fill="#EDAB37" d="M23.535,13.537c1.379,0,2.499,1.12,2.499,2.499c0,1.38-1.12,2.5-2.499,2.5l-5.501,0.001v-5.001
				l3.001,0.001H23.535z"/>
		</g>
		<g>
			<path fill="#EDAB37" d="M23.535,18.536c1.929,0,3.499,1.57,3.5,3.5c0,1.932-1.571,3.501-3.5,3.501l-2.501-0.001h-3v-6.999
				L23.535,18.536z"/>
		</g>
		<g>
			<path fill="#FFCE54" d="M23.535,25.537c1.929,0,3.5-1.569,3.5-3.501c-0.001-1.93-1.571-3.5-3.5-3.5c1.379,0,2.499-1.12,2.499-2.5
				c0-1.379-1.12-2.499-2.499-2.499h-2.5l-3.001-0.001v5.001v6.999h3L23.535,25.537z M33.994,19.997c0,5.31-3.32,9.859-8,11.659
				c-1.4,0.54-2.91,0.84-4.5,0.841c-1.59,0-3.101-0.3-4.5-0.84c-4.681-1.801-8-6.351-8-11.66c0-6.9,5.601-12.5,12.5-12.5
				S33.994,13.097,33.994,19.997z"/>
		</g>
		<g>
			<g>
				<path fill="#F6BB42" d="M21.494,7.497c-0.683,0-1.348,0.069-2,0.175c5.947,0.96,10.5,6.107,10.5,12.325
					c0,5.31-3.32,9.859-8,11.659c-0.799,0.309-1.638,0.527-2.503,0.669c0.652,0.105,1.318,0.172,2.003,0.172
					c1.59-0.001,3.1-0.301,4.5-0.841c4.68-1.8,8-6.35,8-11.659C33.994,13.097,28.394,7.497,21.494,7.497z"/>
			</g>
		</g>
		<g>
			<path fill="#EDAB37" d="M25.994,31.656c-1.4,0.54-2.91,0.84-4.5,0.841c-1.59,0-3.101-0.3-4.5-0.84c-4.681-1.801-8-6.351-8-11.66
				v3.999c0.001,5.312,3.319,9.86,8.001,11.66c1.398,0.54,2.909,0.84,4.499,0.84s3.101-0.3,4.501-0.84
				c4.679-1.799,8-6.349,7.999-11.66v-3.999C33.994,25.307,30.674,29.856,25.994,31.656z"/>
		</g>
		<g>
			<path fill="#CCD1D9" d="M21.494,1.503c-0.674,0-1.341,0.036-1.999,0.1c10.381,1,18.499,9.746,18.506,20.393
				c0,7.892-4.462,14.743-11.004,18.172c-2.142,1.125-4.503,1.875-7,2.178c-0.172,0.021-0.349,0.032-0.523,0.05
				c0.666,0.065,1.339,0.106,2.021,0.106c0.848,0,1.683-0.057,2.503-0.156c2.496-0.304,4.857-1.054,7-2.178
				c6.54-3.429,11.003-10.28,11.003-18.172C41.994,10.673,32.816,1.496,21.494,1.503z"/>
		</g>
		<g>
			<g>
				<path fill="#AAB2BD" d="M39.341,32.062l20.128,20.137l0.1,8.39l3.436-0.621v-9.89l-21.94-21.951
					C40.64,29.486,40.054,30.8,39.341,32.062z"/>
			</g>
		</g>
	</g>
	<g>
		<g>
			<path d="M21.495,43.499c-5.744,0-11.143-2.236-15.202-6.298c-4.062-4.06-6.298-9.458-6.298-15.202
				c0-5.742,2.236-11.142,6.297-15.202s9.46-6.298,15.204-6.298c5.743,0,11.142,2.236,15.202,6.297
				c8.383,8.383,8.383,22.022,0,30.406C32.638,41.263,27.238,43.499,21.495,43.499z M21.496,2.499
				c-5.209,0-10.106,2.028-13.79,5.712c-3.683,3.683-5.711,8.58-5.711,13.788c0,5.209,2.028,10.105,5.712,13.788
				c3.683,3.684,8.579,5.712,13.788,5.712s10.105-2.028,13.789-5.711c7.603-7.604,7.603-19.976,0-27.578
				C31.602,4.527,26.705,2.499,21.496,2.499z"/>
		</g>
		<g>
			<path d="M63.005,51.075c-0.256,0-0.512-0.098-0.707-0.293L40.354,28.837c-0.391-0.391-0.391-1.023,0-1.414s1.023-0.391,1.414,0
				l21.943,21.945c0.391,0.391,0.391,1.023,0,1.414C63.517,50.978,63.261,51.075,63.005,51.075z"/>
		</g>
		<g>
			<path d="M48.995,63.5c-0.256,0-0.512-0.098-0.707-0.293l-4-4c-0.188-0.188-0.293-0.441-0.293-0.707v-3h-3
				c-0.266,0-0.52-0.105-0.707-0.293l-2-2c-0.188-0.188-0.293-0.441-0.293-0.707v-3h-3c-0.266,0-0.52-0.105-0.707-0.293
				l-7.039-7.039c-0.391-0.391-0.391-1.023,0-1.414s1.023-0.391,1.414,0l6.746,6.746h3.586c0.553,0,1,0.447,1,1v3.586l1.414,1.414
				h3.586c0.553,0,1,0.447,1,1v3.586l3.707,3.707c0.391,0.391,0.391,1.023,0,1.414C49.507,63.402,49.251,63.5,48.995,63.5z"/>
		</g>
		<g>
			<path d="M63.005,60.973c-0.553,0-1-0.447-1-1v-9.897c0-0.553,0.447-1,1-1s1,0.447,1,1v9.897
				C64.005,60.525,63.558,60.973,63.005,60.973z"/>
		</g>
		<g>
			<path d="M48.994,63.5c-0.475,0-0.896-0.339-0.983-0.822c-0.098-0.544,0.264-1.063,0.807-1.162l14.01-2.527
				c0.55-0.099,1.063,0.264,1.162,0.807c0.098,0.544-0.264,1.063-0.807,1.162l-14.01,2.527C49.112,63.495,49.053,63.5,48.994,63.5z"
				/>
		</g>
		<g>
			<path d="M56.642,54.609c-0.256,0-0.512-0.098-0.707-0.293l-18.99-18.989c-0.391-0.391-0.391-1.023,0-1.414s1.023-0.391,1.414,0
				l18.99,18.989c0.391,0.391,0.391,1.023,0,1.414C57.153,54.512,56.897,54.609,56.642,54.609z"/>
		</g>
		<g>
			<g>
				<g>
					<path d="M18.03,26.539c-0.553,0-1-0.447-1-1v-12c0-0.553,0.447-1,1-1s1,0.447,1,1v12C19.03,26.092,18.583,26.539,18.03,26.539z
						"/>
				</g>
				<g>
					<path d="M23.53,26.539c-0.553,0-1-0.447-1-1s0.447-1,1-1c1.379,0,2.5-1.121,2.5-2.5s-1.121-2.5-2.5-2.5c-0.553,0-1-0.447-1-1
						s0.447-1,1-1c2.481,0,4.5,2.019,4.5,4.5S26.012,26.539,23.53,26.539z"/>
				</g>
				<g>
					<path d="M23.53,19.539c-0.553,0-1-0.447-1-1s0.447-1,1-1c0.827,0,1.5-0.673,1.5-1.5s-0.673-1.5-1.5-1.5c-0.553,0-1-0.447-1-1
						s0.447-1,1-1c1.93,0,3.5,1.57,3.5,3.5S25.46,19.539,23.53,19.539z"/>
				</g>
				<g>
					<path d="M23.53,14.539h-6.5c-0.553,0-1-0.447-1-1s0.447-1,1-1h6.5c0.553,0,1,0.447,1,1S24.083,14.539,23.53,14.539z"/>
				</g>
				<g>
					<path d="M23.53,19.539h-5.5c-0.553,0-1-0.447-1-1s0.447-1,1-1h5.5c0.553,0,1,0.447,1,1S24.083,19.539,23.53,19.539z"/>
				</g>
				<g>
					<path d="M23.53,26.539h-6.5c-0.553,0-1-0.447-1-1s0.447-1,1-1h6.5c0.553,0,1,0.447,1,1S24.083,26.539,23.53,26.539z"/>
				</g>
				<g>
					<path d="M21.03,14.539c-0.553,0-1-0.447-1-1v-1c0-0.553,0.447-1,1-1s1,0.447,1,1v1C22.03,14.092,21.583,14.539,21.03,14.539z"
						/>
				</g>
				<g>
					<path d="M21.03,27.539c-0.553,0-1-0.447-1-1v-1c0-0.553,0.447-1,1-1s1,0.447,1,1v1C22.03,27.092,21.583,27.539,21.03,27.539z"
						/>
				</g>
			</g>
			<g>
				<path d="M21.495,33.5c-7.444,0-13.5-6.056-13.5-13.5s6.056-13.501,13.5-13.501s13.5,6.057,13.5,13.501S28.939,33.5,21.495,33.5z
					 M21.495,8.499c-6.341,0-11.5,5.159-11.5,11.501c0,6.341,5.159,11.5,11.5,11.5s11.5-5.159,11.5-11.5
					C32.995,13.658,27.836,8.499,21.495,8.499z"/>
			</g>
			<g>
				<path d="M21.495,37.501c-7.444,0-13.5-6.056-13.5-13.5c0-0.553,0.447-1,1-1s1,0.447,1,1c0,6.341,5.159,11.5,11.5,11.5
					s11.5-5.159,11.5-11.5c0-0.553,0.447-1,1-1s1,0.447,1,1C34.995,31.445,28.939,37.501,21.495,37.501z"/>
			</g>
			<g>
				<path d="M33.995,25.001c-0.553,0-1-0.447-1-1V20c0-0.553,0.447-1,1-1s1,0.447,1,1v4.001
					C34.995,24.554,34.548,25.001,33.995,25.001z"/>
			</g>
			<g>
				<path d="M8.995,25.001c-0.553,0-1-0.447-1-1V20c0-0.553,0.447-1,1-1s1,0.447,1,1v4.001C9.995,24.554,9.548,25.001,8.995,25.001z
					"/>
			</g>
			<g>
				<path d="M16.995,36.665c-0.553,0-1-0.447-1-1v-4.001c0-0.553,0.447-1,1-1s1,0.447,1,1v4.001
					C17.995,36.218,17.548,36.665,16.995,36.665z"/>
			</g>
			<g>
				<path d="M25.995,36.665c-0.553,0-1-0.447-1-1v-4.001c0-0.553,0.447-1,1-1s1,0.447,1,1v4.001
					C26.995,36.218,26.548,36.665,25.995,36.665z"/>
			</g>
		</g>
	</g>
</g>
<g id="_x31_7_pool_x2C__network_x2C__bitcoin_x2C__coin_x2C__block_x2C__chain_x2C__cryptocurrency">
</g>
<g id="_x31_6_mining_x2C__shovel_x2C__mine_x2C__coin_x2C__block_x2C__chain_x2C__cryptocurrency">
</g>
<g id="_x31_5_purse_x2C__bitcoin_x2C__coin_x2C__block_x2C__chain_x2C__cryptocurrency">
</g>
<g id="_x31_4_safe_x2C__protection_x2C__block_x2C__chain_x2C__cryptocurrency_x2C__program">
</g>
<g id="_x31_3_mining_x2C__funnel_x2C__satoshi_x2C__bitcoin_x2C__coin_x2C__cryptocurrency">
</g>
<g id="_x31_2_chart_x2C__bitcoin_x2C__coin_x2C__block_x2C__chain_x2C__cryptocurrency">
</g>
<g id="_x31_1_computer_x2C__monitor_x2C__bitcoin_x2C__coin_x2C__block_x2C__chain_x2C__cryptocurrency">
</g>
<g id="_x31_0_mining_x2C__pickaxe_x2C__stone_x2C__mine_x2C___bitcoin_x2C__coin_x2C__cryptocurrency">
</g>
<g id="_x39__miner_x2C__mining_x2C__computer_x2C__pickaxe_x2C__program_x2C__cryptocurrency">
</g>
<g id="_x38__video_card_x2C__mining_x2C__bitcoin_x2C__coin_x2C__block_x2C__chain_x2C__cryptocurrency">
</g>
<g id="_x37__exchanger_x2C__site_x2C__bitcoin_x2C__coin_x2C__block_x2C__chain_x2C__cryptocurrency">
</g>
<g id="_x36__shop_x2C__product_x2C__bitcoin_x2C__coin_x2C__block_x2C__chain_x2C__cryptocurrency">
</g>
<g id="_x35__bitcoin_x2C__coin_x2C__exchange_x2C__block_x2C__chain_x2C__cryptocurrency_x2C__product">
</g>
<g id="_x34__bitcoin_x2C__coin_x2C__exchange_x2C__block_x2C__chain_x2C__cryptocurrency">
</g>
<g id="_x33__bitcoin_x2C__coin_x2C__exchange_x2C__block_x2C__chain_x2C__cryptocurrency">
</g>
<g id="_x32__brain_x2C__smart_x2C__coin_x2C__block_x2C__chain_x2C__cryptocurrency">
</g>
<g id="_x31__bitcoin_x2C__coin_x2C__block_x2C__chain_x2C__cryptocurrency">
</g>
</svg>
