<svg xmlns="http://www.w3.org/2000/svg" x="0" y="0" xml:space="preserve" viewBox="0 0 64 64"><path fill="#EDAB37" d="M31.021 7.005c1.109 0 2 .89 2 2a2 2 0 0 1-2 2h-4v-4h4zM31.021 11.005c1.66 0 3 1.34 3 3s-1.34 3-3 3h-4v-6h4z"/><path fill="#FFCE54" d="M31.021 17.005c1.66 0 3-1.34 3-3s-1.34-3-3-3a2 2 0 0 0 2-2c0-1.11-.891-2-2-2h-4v10h4zm10-5c0 6.08-4.92 11-11 11-6.07 0-11-4.92-11-11s4.93-11 11-11c6.08 0 11 4.92 11 11z"/><path fill="#F6BB42" d="M30.021 1.005c-.684 0-1.35.07-1.999.19 5.122.94 8.999 5.414 8.999 10.81s-3.877 9.869-8.999 10.81c.649.12 1.315.19 1.999.19 6.08 0 11-4.92 11-11s-4.92-11-11-11z"/><path fill="#EDAB37" d="M19.021 12.005c0 6.08 4.93 11 11 11 6.08 0 11-4.92 11-11v4c0 2.22-.66 4.28-1.78 6a11.089 11.089 0 0 1-4.63 4h-9.18c-1.891-.87-3.5-2.27-4.631-4a10.969 10.969 0 0 1-1.779-6v-4z"/><path fill="#BC2E49" d="M34.61 26.005c1.89-.87 3.5-2.27 4.63-4H50c2.21 0 4 1.79 4 4v8c0-2.21-1.79-4-4-4H10c-2.21 0-4-1.79-4-4s1.79-4 4-4h10.8a11.092 11.092 0 0 0 4.631 4h9.179zM56 35.995a2 2 0 1 1 0 4h-2v-4h2z"/><path fill="#FFCE54" d="M48 44.995a2 2 0 1 1 0 4 2 2 0 0 1 0-4z"/><path fill="#ED5565" d="M56 39.995a2 2 0 0 0 2-2v14a2 2 0 0 1-2 2H44l-5-6.75 5-7.25h12zm-6 7a2 2 0 1 0-4 0c0 1.109.891 2 2 2a2 2 0 0 0 2-2z"/><path fill="#DA4453" d="M6 26.005c0 2.21 1.79 4 4 4h40c2.21 0 4 1.79 4 4v5.99H44l-5 7.25 5 6.75h10v5c0 2.22-1.79 4-4 4H10c-2.21 0-4-1.78-4-4v-32.99z"/><path fill="#D3374E" d="M50 58.995c0 2.22-1.79 4-4 4h4c2.21 0 4-1.78 4-4v-5h-4v5zM50 30.005h-4c2.21 0 4 1.79 4 4v5.99h4v-5.99c0-2.21-1.79-4-4-4z"/><g><path fill="#DA4453" d="M56 39.995h-2v14h2a2 2 0 0 0 2-2v-14a2 2 0 0 1-2 2z"/></g><g><path d="M54 59.997a1 1 0 0 1-1-1v-5a1 1 0 1 1 2 0v5a1 1 0 0 1-1 1z"/><path d="M50 63.997a1 1 0 1 1 0-2c1.654 0 3-1.346 3-3a1 1 0 1 1 2 0c0 2.757-2.243 5-5 5zM54 35.003a1 1 0 0 1-1-1c0-1.654-1.346-3-3-3a1 1 0 1 1 0-2c2.757 0 5 2.243 5 5a1 1 0 0 1-1 1zM54 27.003a1 1 0 0 1-1-1c0-1.654-1.346-3-3-3a1 1 0 1 1 0-2c2.757 0 5 2.243 5 5a1 1 0 0 1-1 1zM10 63.997c-2.757 0-5-2.243-5-5a1 1 0 1 1 2 0c0 1.654 1.346 3 3 3a1 1 0 1 1 0 2zM10 31.003c-2.757 0-5-2.243-5-5a1 1 0 1 1 2 0c0 1.654 1.346 3 3 3a1 1 0 1 1 0 2z"/><path d="M6 27.003a1 1 0 0 1-1-1c0-2.757 2.243-5 5-5a1 1 0 1 1 0 2c-1.654 0-3 1.346-3 3a1 1 0 0 1-1 1zM50 63.997H10a1 1 0 1 1 0-2h40a1 1 0 1 1 0 2zM50 31.003H10a1 1 0 1 1 0-2h40a1 1 0 1 1 0 2z"/><path d="M20.803 23.004H10a1 1 0 1 1 0-2h10.803a1 1 0 1 1 0 2zM6 59.997a1 1 0 0 1-1-1V26.003a1 1 0 1 1 2 0v32.994a1 1 0 0 1-1 1zM50 23.003H39.246a1 1 0 1 1 0-2H50a1 1 0 1 1 0 2zM47 27.003H13a1 1 0 1 1 0-2h34a1 1 0 1 1 0 2zM58 38.997a1 1 0 0 1-1-1 1 1 0 0 0-1-1 1 1 0 1 1 0-2c1.654 0 3 1.346 3 3a1 1 0 0 1-1 1z"/><g><path d="M56 40.997a1 1 0 1 1 0-2 1 1 0 0 0 1-1 1 1 0 1 1 2 0c0 1.654-1.346 3-3 3z"/></g><g><path d="M56 36.997h-2a1 1 0 1 1 0-2h2a1 1 0 1 1 0 2z"/></g><g><path d="M56 40.997H44a1 1 0 1 1 0-2h12a1 1 0 1 1 0 2z"/></g><g><path d="M56 54.997a1 1 0 1 1 0-2 1 1 0 0 0 1-1 1 1 0 1 1 2 0c0 1.654-1.346 3-3 3z"/></g><g><path d="M56 54.997H44a1 1 0 1 1 0-2h12a1 1 0 1 1 0 2z"/></g><g><path d="M58 52.997a1 1 0 0 1-1-1v-14a1 1 0 1 1 2 0v14a1 1 0 0 1-1 1z"/></g><g><path d="M54 40.997a1 1 0 0 1-1-1V26.003a1 1 0 1 1 2 0v13.994a1 1 0 0 1-1 1z"/></g><g><path d="M44.001 54.997a1 1 0 0 1-.805-.405l-5-6.752a1 1 0 0 1 1.607-1.189l5 6.752a1 1 0 0 1-.802 1.594z"/></g><g><path d="M38.999 48.245a1 1 0 0 1-.822-1.568l5-7.248a1 1 0 0 1 1.647 1.135l-5 7.248a1.002 1.002 0 0 1-.825.433z"/></g><g><path d="M48 49.997c-1.654 0-3-1.346-3-3s1.346-3 3-3 3 1.346 3 3-1.346 3-3 3zm0-4a1 1 0 1 0 0 2 1 1 0 0 0 0-2z"/></g><g><path d="M30.023 24.003c-6.617 0-12-5.383-12-12s5.383-12 12-12 12 5.383 12 12-5.382 12-12 12zm0-22c-5.514 0-10 4.486-10 10s4.486 10 10 10 10-4.486 10-10-4.486-10-10-10z"/><path d="M25.435 27.004a.986.986 0 0 1-.417-.092 12.04 12.04 0 0 1-6.994-10.909 1 1 0 1 1 2 0c0 3.896 2.288 7.464 5.83 9.093a1 1 0 0 1-.419 1.908zM34.612 27.005a1 1 0 0 1-.418-1.909 10.032 10.032 0 0 0 5.829-9.093 1 1 0 1 1 2 0 12.04 12.04 0 0 1-6.995 10.911.989.989 0 0 1-.416.091z"/><path d="M41.023 17.003a1 1 0 0 1-1-1v-4a1 1 0 1 1 2 0v4a1 1 0 0 1-1 1z"/><g><path d="M19.023 17.003a1 1 0 0 1-1-1v-4a1 1 0 1 1 2 0v4a1 1 0 0 1-1 1z"/></g><g><path d="M27.023 18.003a1 1 0 0 1-1-1v-10a1 1 0 1 1 2 0v10a1 1 0 0 1-1 1zM31.025 12.001a1 1 0 1 1 0-2 1 1 0 0 0 0-1.998 1 1 0 1 1 0-2c1.653 0 2.998 1.346 2.998 2.999s-1.344 2.999-2.998 2.999z"/><path d="M31.023 18.003a1 1 0 1 1 0-2 2.002 2.002 0 0 0 0-4.002 1 1 0 1 1 0-2c2.206 0 4 1.795 4 4.002 0 2.206-1.794 4-4 4zM31.025 8.003h-5.002a1 1 0 1 1 0-2h5.002a1 1 0 1 1 0 2z"/><path d="M31.023 18.003h-5a1 1 0 1 1 0-2h5a1 1 0 1 1 0 2zM31.025 12.001h-4.002a1 1 0 1 1 0-2h4.002a1 1 0 1 1 0 2zM29.023 8.003a1 1 0 0 1-1-1v-1a1 1 0 1 1 2 0v1a1 1 0 0 1-1 1z"/><path d="M29.023 19.003a1 1 0 0 1-1-1v-1a1 1 0 1 1 2 0v1a1 1 0 0 1-1 1z"/></g></g></g></svg>