<?xml version="1.0" encoding="utf-8"?>
<!-- Generator: Adobe Illustrator 16.0.0, SVG Export Plug-In . SVG Version: 6.00 Build 0)  -->
<!DOCTYPE svg PUBLIC "-//W3C//DTD SVG 1.1//EN" "http://www.w3.org/Graphics/SVG/1.1/DTD/svg11.dtd">
<svg version="1.1" xmlns="http://www.w3.org/2000/svg" xmlns:xlink="http://www.w3.org/1999/xlink" x="0px" y="0px" width="64px"
	 height="64px" viewBox="0 0 64 64" enable-background="new 0 0 64 64" xml:space="preserve">
<g id="_x35_0_code_x2C__programming_x2C__program_x2C__bitcoin_x2C__block_x2C__chain_x2C__cryptocurrency">
</g>
<g id="_x34_9_balloon_x2C__takeoff_x2C__bitcoin_x2C__coin_x2C__block_x2C__chain_x2C__cryptocurrency">
</g>
<g id="_x34_8_video_card_x2C__mining_x2C__farm_x2C__computer_x2C__block_x2C__chain_x2C__cryptocurrency">
</g>
<g id="_x34_7_money_box_x2C__saving_x2C__bitcoin_x2C__coin_x2C__block_x2C__chain_x2C__cryptocurrency">
</g>
<g id="_x34_6_portfolio_x2C__finance_x2C__bank_note_x2C__bitcoin_x2C__coin_x2C__cryptocurrency">
</g>
<g id="_x34_5_tap_x2C__water_x2C__bitcoin_x2C__coin_x2C__block_x2C__chain_x2C__cryptocurrency">
</g>
<g id="_x34_4_phone_x2C__bitcoin_x2C__coin_x2C__block_x2C__chain_x2C__cryptocurrency">
</g>
<g id="_x34_3_rocket_x2C__sun_x2C__bitcoin_x2C__coin_x2C__block_x2C__chain_x2C__cryptocurrency">
</g>
<g id="_x34_2_transfer_x2C__network_x2C__bitcoin_x2C__coin_x2C__block_x2C__chain_x2C__cryptocurrency">
</g>
<g id="_x34_1_scales_x2C__comparison_x2C__bitcoin_x2C__coin_x2C__block_x2C__chain_x2C__cryptocurrency">
</g>
<g id="_x34_0_calculator_x2C__calculating_x2C__bitcoin_x2C__coin_x2C__block_x2C__chain_x2C__cryptocurrency">
</g>
<g id="_x33_9_start-up_x2C__plant_x2C__hand_x2C__bitcoin_x2C__coin_x2C__cryptocurrency">
</g>
<g id="_x33_8_idea_x2C__bulb_x2C__bitcoin_x2C__coin_x2C__block_x2C__chain_x2C__cryptocurrency">
</g>
<g id="_x33_7_users_x2C__user_x2C__co-founder_x2C__bitcoin_x2C__coin_x2C__cryptocurrency">
</g>
<g id="_x33_6_safe_x2C__protection_x2C__bitcoin_x2C__coin_x2C__block_x2C__chain_x2C__cryptocurrency">
</g>
<g id="_x33_5_flash_drive_x2C__key_x2C__block_x2C__chain_x2C__cryptocurrency">
</g>
<g id="_x33_4_cloud_x2C__mining_x2C__bitcoin_x2C__coin_x2C__block_x2C__chain_x2C__cryptocurrency">
</g>
<g id="_x33_3_start_up_x2C__plant_x2C__bitcoin_x2C__coin_x2C__block_x2C__chain_x2C__cryptocurrency">
</g>
<g id="_x33_2_planet_x2C__bitcoin_x2C__coin_x2C__block_x2C__chain_x2C__cryptocurrency">
</g>
<g id="_x33_1_payment_x2C__hand_x2C__bitcoin_x2C__coin_x2C__block_x2C__chain_x2C__cryptocurrency">
</g>
<g id="_x33_0_user_x2C__laptop_x2C__bitcoin_x2C__coin_x2C__block_x2C__chain_x2C__cryptocurrency">
</g>
<g id="_x32_9_thief_x2C__bag_x2C__bitcoin_x2C__coin_x2C__block_x2C__chain_x2C__cryptocurrency">
</g>
<g id="_x32_8_code_x2C__programming_x2C__program_x2C__bitcoin_x2C__coin_x2C__cryptocurrency">
	<g>
		<g>
			<path fill="#EDAB37" d="M58,52.66C56.531,53.51,54.82,54,53,54s-3.529-0.49-5-1.34c-2.99-1.729-5-4.96-5-8.66v2v2
				c0,3.7,2.01,6.931,5,8.66c1.471,0.85,3.18,1.34,5,1.34s3.531-0.49,5-1.34c2.99-1.729,5-4.96,5-8.66v-4
				C63,47.7,60.99,50.931,58,52.66z"/>
		</g>
		<g>
			<path fill="#EDAB37" d="M54.5,43c1.381,0,2.5,1.12,2.5,2.5S55.881,48,54.5,48H53h-2v-5h3H54.5z"/>
		</g>
		<g>
			<path fill="#EDAB37" d="M54,39c1.111,0,2,0.9,2,2c0,1.11-0.889,2-2,2h-3v-4h2H54z"/>
		</g>
		<g>
			<path fill="#FFCE54" d="M54.5,48c1.381,0,2.5-1.12,2.5-2.5S55.881,43,54.5,43H54c1.111,0,2-0.89,2-2c0-1.1-0.889-2-2-2h-1h-2v4v5
				h2H54.5z M63,44c0,3.7-2.01,6.931-5,8.66C56.531,53.51,54.82,54,53,54s-3.529-0.49-5-1.34c-2.99-1.729-5-4.96-5-8.66
				c0-5.52,4.48-10,10-10c0.01,0,0.01,0,0.02,0C58.531,34.01,63,38.49,63,44z"/>
		</g>
		<g>
			<g>
				<path fill="#F6BB42" d="M53.02,34c-0.01,0-0.01,0-0.02,0c-0.686,0-1.355,0.069-2.002,0.201C55.563,35.128,59,39.168,59,44
					c0,3.7-2.01,6.931-5,8.66c-0.914,0.529-1.93,0.897-3,1.116C51.648,53.909,52.313,54,53,54c1.82,0,3.531-0.49,5-1.34
					c2.99-1.729,5-4.96,5-8.66C63,38.49,58.531,34.01,53.02,34z"/>
			</g>
		</g>
		<g>
			<rect x="1.02" y="10" fill="#AAB2BD" width="2.98" height="36"/>
		</g>
		<g>
			<path fill="#656D78" d="M43,44v2H4V10h49h0.02v24c-0.01,0-0.01,0-0.02,0C47.48,34,43,38.48,43,44z"/>
		</g>
		<g>
			<path fill="#656D78" d="M43,44v2H4V10h49h0.02v24c-0.01,0-0.01,0-0.02,0C47.48,34,43,38.48,43,44z"/>
		</g>
		<g>
			<path fill="#CCD1D9" d="M53,8v2H4H1.02H1V8c0-1.1,0.9-2,2-2h48C52.111,6,53,6.9,53,8z"/>
		</g>
		<g>
			<path fill="#AAB2BD" d="M51,6h-4c1.111,0,2,0.9,2,2v2h4V8C53,6.9,52.111,6,51,6z"/>
		</g>
		<g>
			<path fill="#434A54" d="M49,10v24.839C50.227,34.302,51.578,34,53,34V10H49z"/>
		</g>
	</g>
	<g>
		<g>
			<g>
				<path d="M53,55c-6.065,0-11-4.935-11-11s4.935-11,11-11s11,4.935,11,11S59.065,55,53,55z M53,35c-4.963,0-9,4.037-9,9
					s4.037,9,9,9s9-4.037,9-9S57.963,35,53,35z"/>
			</g>
			<g>
				<path d="M53,59c-6.065,0-11-4.935-11-11c0-0.553,0.447-1,1-1s1,0.447,1,1c0,4.963,4.037,9,9,9s9-4.037,9-9c0-0.553,0.447-1,1-1
					s1,0.447,1,1C64,54.065,59.065,59,53,59z"/>
			</g>
			<g>
				<path d="M63,49c-0.553,0-1-0.447-1-1v-4c0-0.553,0.447-1,1-1s1,0.447,1,1v4C64,48.553,63.553,49,63,49z"/>
			</g>
			<g>
				<g>
					<path d="M51,49c-0.553,0-1-0.447-1-1v-9c0-0.553,0.447-1,1-1s1,0.447,1,1v9C52,48.553,51.553,49,51,49z"/>
				</g>
				<g>
					<path d="M54,44c-0.553,0-1-0.447-1-1s0.447-1,1-1c0.552,0,1-0.448,1-1s-0.448-1-1-1c-0.553,0-1-0.447-1-1s0.447-1,1-1
						c1.654,0,3,1.346,3,3S55.654,44,54,44z"/>
				</g>
				<g>
					<path d="M54.499,49c-0.553,0-1-0.447-1-1s0.447-1,1-1C55.326,47,56,46.327,56,45.5c0-0.828-0.674-1.502-1.501-1.502
						c-0.553,0-1-0.447-1-1s0.447-1,1-1C56.43,41.998,58,43.569,58,45.5C58,47.43,56.43,49,54.499,49z"/>
				</g>
				<g>
					<path d="M54,40h-4c-0.553,0-1-0.447-1-1s0.447-1,1-1h4c0.553,0,1,0.447,1,1S54.553,40,54,40z"/>
				</g>
				<g>
					<path d="M54.499,49H50c-0.553,0-1-0.447-1-1s0.447-1,1-1h4.499c0.553,0,1,0.447,1,1S55.052,49,54.499,49z"/>
				</g>
				<g>
					<path d="M51,44c-0.552,0-1-0.447-1-0.999C50,42.448,50.447,42,50.999,42l3.499-0.002c0.001,0,0.001,0,0.001,0
						c0.552,0,1,0.447,1,0.999c0,0.553-0.447,1.001-0.999,1.001L51,44C51,44,51,44,51,44z"/>
				</g>
				<g>
					<path d="M53,40c-0.553,0-1-0.447-1-1v-1c0-0.553,0.447-1,1-1s1,0.447,1,1v1C54,39.553,53.553,40,53,40z"/>
				</g>
				<g>
					<path d="M53,50c-0.553,0-1-0.447-1-1v-1c0-0.553,0.447-1,1-1s1,0.447,1,1v1C54,49.553,53.553,50,53,50z"/>
				</g>
			</g>
			<g>
				<path d="M53,59c-0.553,0-1-0.447-1-1v-4c0-0.553,0.447-1,1-1s1,0.447,1,1v4C54,58.553,53.553,59,53,59z"/>
			</g>
			<g>
				<path d="M58,57.66c-0.553,0-1-0.447-1-1v-3.998c0-0.553,0.447-1,1-1s1,0.447,1,1v3.998C59,57.213,58.553,57.66,58,57.66z"/>
			</g>
			<g>
				<path d="M48,57.66c-0.553,0-1-0.447-1-1v-3.998c0-0.553,0.447-1,1-1s1,0.447,1,1v3.998C49,57.213,48.553,57.66,48,57.66z"/>
			</g>
			<g>
				<path d="M43,49c-0.553,0-1-0.447-1-1v-4c0-0.553,0.447-1,1-1s1,0.447,1,1v4C44,48.553,43.553,49,43,49z"/>
			</g>
		</g>
		<g>
			<g>
				<path d="M4.03,9C3.478,9,3.025,8.553,3.025,8S3.468,7,4.02,7H4.03c0.552,0,1,0.447,1,1S4.582,9,4.03,9z"/>
			</g>
			<g>
				<path d="M7.03,9C6.478,9,6.025,8.553,6.025,8S6.468,7,7.02,7H7.03c0.552,0,1,0.447,1,1S7.582,9,7.03,9z"/>
			</g>
			<g>
				<path d="M10.03,9C9.478,9,9.025,8.553,9.025,8s0.442-1,0.994-1h0.011c0.552,0,1,0.447,1,1S10.582,9,10.03,9z"/>
			</g>
			<g>
				<path d="M42.999,47H1.018c-0.553,0-1-0.447-1-1V10c0-0.553,0.447-1,1-1h52c0.553,0,1,0.447,1,1v24c0,0.553-0.447,1-1,1
					s-1-0.447-1-1V11h-50v34h40.981c0.553,0,1,0.447,1,1S43.552,47,42.999,47z"/>
			</g>
			<g>
				<path d="M1,9C0.447,9,0,8.553,0,8c0-1.654,1.346-3,3-3c0.553,0,1,0.447,1,1S3.553,7,3,7C2.448,7,2,7.448,2,8
					C2,8.553,1.553,9,1,9z"/>
			</g>
			<g>
				<path d="M1,11c-0.553,0-1-0.447-1-1V8c0-0.553,0.447-1,1-1s1,0.447,1,1v2C2,10.553,1.553,11,1,11z"/>
			</g>
			<g>
				<path d="M53,9c-0.553,0-1-0.447-1-1c0-0.552-0.448-1-1-1c-0.553,0-1-0.447-1-1s0.447-1,1-1c1.654,0,3,1.346,3,3
					C54,8.553,53.553,9,53,9z"/>
			</g>
			<g>
				<path d="M53,11c-0.553,0-1-0.447-1-1V8c0-0.553,0.447-1,1-1s1,0.447,1,1v2C54,10.553,53.553,11,53,11z"/>
			</g>
			<g>
				<path d="M51,7H3C2.447,7,2,6.553,2,6s0.447-1,1-1h48c0.553,0,1,0.447,1,1S51.553,7,51,7z"/>
			</g>
		</g>
		<g>
			<path d="M4,47c-0.553,0-1-0.447-1-1V10c0-0.553,0.447-1,1-1s1,0.447,1,1v36C5,46.553,4.553,47,4,47z"/>
		</g>
		<g>
			<g>
				<path d="M25,15H8c-0.553,0-1-0.447-1-1s0.447-1,1-1h17c0.553,0,1,0.447,1,1S25.553,15,25,15z"/>
			</g>
			<g>
				<path d="M28,19H10c-0.553,0-1-0.447-1-1s0.447-1,1-1h18c0.553,0,1,0.447,1,1S28.553,19,28,19z"/>
			</g>
			<g>
				<path d="M20,39.012H10c-0.553,0-1-0.447-1-1s0.447-1,1-1h10c0.553,0,1,0.447,1,1S20.553,39.012,20,39.012z"/>
			</g>
			<g>
				<path d="M34,19h-2c-0.553,0-1-0.447-1-1s0.447-1,1-1h2c0.553,0,1,0.447,1,1S34.553,19,34,19z"/>
			</g>
			<g>
				<path d="M14,43H8c-0.553,0-1-0.447-1-1s0.447-1,1-1h6c0.553,0,1,0.447,1,1S14.553,43,14,43z"/>
			</g>
			<g>
				<path d="M16,23h-4c-0.553,0-1-0.447-1-1s0.447-1,1-1h4c0.553,0,1,0.447,1,1S16.553,23,16,23z"/>
			</g>
			<g>
				<path d="M39,23H20c-0.553,0-1-0.447-1-1s0.447-1,1-1h19c0.553,0,1,0.447,1,1S39.553,23,39,23z"/>
			</g>
			<g>
				<path d="M33,27H12c-0.553,0-1-0.447-1-1s0.447-1,1-1h21c0.553,0,1,0.447,1,1S33.553,27,33,27z"/>
			</g>
			<g>
				<path d="M23,31H12c-0.553,0-1-0.447-1-1s0.447-1,1-1h11c0.553,0,1,0.447,1,1S23.553,31,23,31z"/>
			</g>
			<g>
				<path d="M33,35H18c-0.553,0-1-0.447-1-1s0.447-1,1-1h15c0.553,0,1,0.447,1,1S33.553,35,33,35z"/>
			</g>
			<g>
				<path d="M14,35h-2c-0.553,0-1-0.447-1-1s0.447-1,1-1h2c0.553,0,1,0.447,1,1S14.553,35,14,35z"/>
			</g>
			<g>
				<path d="M41,27h-4c-0.553,0-1-0.447-1-1s0.447-1,1-1h4c0.553,0,1,0.447,1,1S41.553,27,41,27z"/>
			</g>
		</g>
	</g>
</g>
<g id="_x32_7_bitcoin_x2C__coin_x2C__block_x2C__chain_x2C__cryptocurrency">
</g>
<g id="_x32_6_shield_x2C__protection_x2C__bitcoin_x2C__coin_x2C__block_x2C__chain_x2C__cryptocurrency">
</g>
<g id="_x32_5_bug_x2C__laptop_x2C__miner_x2C__program_x2C__block_x2C__chain_x2C__cryptocurrency">
</g>
<g id="_x32_4_computer_x2C__monitor_x2C__bitcoin_x2C__coin_x2C__block_x2C__chain_x2C__cryptocurrency">
</g>
<g id="_x32_3_network_x2C__idea_x2C__bitcoin_x2C__coin_x2C__block_x2C__chain_x2C__cryptocurrency">
</g>
<g id="_x32_2_block_x2C__chain_x2C__cryptocurrency_x2C__technology_x2C__future">
</g>
<g id="_x32_1_smart_contact_x2C__contact_x2C__block_x2C__chain_x2C__cryptocurrency">
</g>
<g id="_x32_0_lock_x2C__safe_x2C__protection_x2C__block_x2C__chain_x2C__cryptocurrency_x2C__program">
</g>
<g id="_x31_9_server_x2C__data_x2C__bitcoin_x2C__coin_x2C__block_x2C__chain_x2C__cryptocurrency">
</g>
<g id="_x31_8_key_x2C__bitcoin_x2C__coin_x2C__block_x2C__chain_x2C__cryptocurrency">
</g>
<g id="_x31_7_pool_x2C__network_x2C__bitcoin_x2C__coin_x2C__block_x2C__chain_x2C__cryptocurrency">
</g>
<g id="_x31_6_mining_x2C__shovel_x2C__mine_x2C__coin_x2C__block_x2C__chain_x2C__cryptocurrency">
</g>
<g id="_x31_5_purse_x2C__bitcoin_x2C__coin_x2C__block_x2C__chain_x2C__cryptocurrency">
</g>
<g id="_x31_4_safe_x2C__protection_x2C__block_x2C__chain_x2C__cryptocurrency_x2C__program">
</g>
<g id="_x31_3_mining_x2C__funnel_x2C__satoshi_x2C__bitcoin_x2C__coin_x2C__cryptocurrency">
</g>
<g id="_x31_2_chart_x2C__bitcoin_x2C__coin_x2C__block_x2C__chain_x2C__cryptocurrency">
</g>
<g id="_x31_1_computer_x2C__monitor_x2C__bitcoin_x2C__coin_x2C__block_x2C__chain_x2C__cryptocurrency">
</g>
<g id="_x31_0_mining_x2C__pickaxe_x2C__stone_x2C__mine_x2C___bitcoin_x2C__coin_x2C__cryptocurrency">
</g>
<g id="_x39__miner_x2C__mining_x2C__computer_x2C__pickaxe_x2C__program_x2C__cryptocurrency">
</g>
<g id="_x38__video_card_x2C__mining_x2C__bitcoin_x2C__coin_x2C__block_x2C__chain_x2C__cryptocurrency">
</g>
<g id="_x37__exchanger_x2C__site_x2C__bitcoin_x2C__coin_x2C__block_x2C__chain_x2C__cryptocurrency">
</g>
<g id="_x36__shop_x2C__product_x2C__bitcoin_x2C__coin_x2C__block_x2C__chain_x2C__cryptocurrency">
</g>
<g id="_x35__bitcoin_x2C__coin_x2C__exchange_x2C__block_x2C__chain_x2C__cryptocurrency_x2C__product">
</g>
<g id="_x34__bitcoin_x2C__coin_x2C__exchange_x2C__block_x2C__chain_x2C__cryptocurrency">
</g>
<g id="_x33__bitcoin_x2C__coin_x2C__exchange_x2C__block_x2C__chain_x2C__cryptocurrency">
</g>
<g id="_x32__brain_x2C__smart_x2C__coin_x2C__block_x2C__chain_x2C__cryptocurrency">
</g>
<g id="_x31__bitcoin_x2C__coin_x2C__block_x2C__chain_x2C__cryptocurrency">
</g>
</svg>
