<svg xmlns="http://www.w3.org/2000/svg" x="0" y="0" xml:space="preserve" viewBox="0 0 64 64"><path fill="#CCD1D9" d="M60.952 53 62.952 60 22.952 60 33.952 47 36.952 49 46.952 39z"/><path fill="#AAB2BD" d="M60.952 53 46.952 39 44.952 41 57.952 54 59.5 60 62.952 60z"/><path fill="#EDAB37" d="M55.452 9c.82 0 1.5.67 1.5 1.5s-.68 1.5-1.5 1.5h-2.5V9h2.5zM55.952 12a1.999 1.999 0 1 1 0 4h-3v-4h3z"/><path fill="#FFCE54" d="M55.952 16a1.999 1.999 0 1 0 0-4h-.5c.82 0 1.5-.67 1.5-1.5s-.68-1.5-1.5-1.5h-2.5v7h3zm7-3.5a8.48 8.48 0 0 1-5 7.74c-1.069.49-2.25.76-3.5.76s-2.43-.27-3.5-.75c-2.949-1.33-5-4.3-5-7.75 0-4.7 3.801-8.5 8.5-8.5 4.691 0 8.5 3.8 8.5 8.5z"/><path fill="#F6BB42" d="M54.452 4c-.69 0-1.358.091-2.002.246 3.727.899 6.502 4.245 6.502 8.254a8.48 8.48 0 0 1-6.503 8.254 8.362 8.362 0 0 0 5.503-.514 8.48 8.48 0 0 0 5-7.74c0-4.7-3.809-8.5-8.5-8.5z"/><path fill="#EDAB37" d="M57.952 20.24c-1.069.49-2.25.76-3.5.76s-2.43-.27-3.5-.75c-2.949-1.33-5-4.3-5-7.75v4c0 3.44 2.051 6.41 5 7.75 1.07.48 2.25.75 3.5.75s2.431-.27 3.5-.76c2.95-1.33 5-4.3 5-7.74v-4a8.48 8.48 0 0 1-5 7.74zM63.003 36.5v3c0 1.93-1.57 3.5-3.5 3.5-1.931 0-3.5-1.57-3.5-3.5v-3c0 1.93 1.569 3.5 3.5 3.5 1.93 0 3.5-1.57 3.5-3.5z"/><path fill="#FFCE54" d="M63.003 36.5c0 1.93-1.57 3.5-3.5 3.5-1.931 0-3.5-1.57-3.5-3.5s1.569-3.5 3.5-3.5c1.93 0 3.5 1.57 3.5 3.5z"/><circle cx="50.503" cy="31.5" r="2.5" fill="#FFCE54"/><path fill="#CCD1D9" d="m39.063 38.39-11.31-11.31-2.83-2.83-11.311-11.31s7.87 3.02 14.09 8.529a31.518 31.518 0 0 1 2.83 2.83c5.51 6.221 8.531 14.091 8.531 14.091z"/><path fill="#965353" d="m32.702 22.13-2.17 2.17a31.518 31.518 0 0 0-2.83-2.83l2.17-2.17 2.83 2.83zM4.412 50.42c-.779.78-2.04.78-2.83 0a2.006 2.006 0 0 1 0-2.83l23.341-23.34 2.83 2.83L4.412 50.42z"/><g><path d="M1.586 48.586a.999.999 0 0 1-.707-1.707l23.335-23.334a.999.999 0 1 1 1.414 1.414L2.293 48.293a.997.997 0 0 1-.707.293zM4.415 51.415a.999.999 0 0 1-.707-1.707l23.334-23.335a.999.999 0 1 1 1.414 1.414L5.122 51.122a.997.997 0 0 1-.707.293z"/><path d="M3.001 51.999a2.993 2.993 0 0 1-2.122-.876 3.006 3.006 0 0 1 0-4.244.999.999 0 1 1 1.414 1.414 1.001 1.001 0 0 0 1.415 1.414 1.001 1.001 0 0 1 1.414 1.416 2.993 2.993 0 0 1-2.121.876zM39.063 39.394a.997.997 0 0 1-.707-.293L12.9 13.645a.999.999 0 1 1 1.414-1.414L39.77 37.687a.999.999 0 0 1-.707 1.707z"/><path d="M39.063 39.394c-.401 0-.78-.243-.934-.641-.034-.09-3.539-9.075-9.673-15.208-6.133-6.133-15.118-9.64-15.208-9.674a1 1 0 0 1 .719-1.866c.383.147 9.464 3.686 15.903 10.126 6.44 6.44 9.979 15.521 10.126 15.903a1 1 0 0 1-.933 1.36z"/><path d="M27.705 22.468a.999.999 0 0 1-.707-1.707l2.166-2.166a.999.999 0 1 1 1.414 1.414l-2.166 2.166a.997.997 0 0 1-.707.293z"/><path d="M32.699 23.131a.997.997 0 0 1-.707-.293l-2.828-2.829a.999.999 0 1 1 1.414-1.414l2.828 2.829a.999.999 0 0 1-.707 1.707z"/><path d="M30.533 25.297a.999.999 0 0 1-.707-1.707l2.166-2.166a.999.999 0 1 1 1.414 1.414l-2.166 2.166a.997.997 0 0 1-.707.293zM22.946 61a1 1 0 0 1-.763-1.645l11-13a1 1 0 1 1 1.527 1.291l-11 13a.996.996 0 0 1-.764.354z"/><path d="M36.946 50c-.19 0-.383-.055-.554-.168l-3-2a1 1 0 1 1 1.11-1.664l3 2A1 1 0 0 1 36.946 50z"/><path d="M36.947 50a.999.999 0 0 1-.707-1.707l10-10a.999.999 0 1 1 1.414 1.414l-10 10a.997.997 0 0 1-.707.293z"/><path d="M60.947 54a.997.997 0 0 1-.707-.293l-14-14a.999.999 0 1 1 1.414-1.414l14 14A.999.999 0 0 1 60.947 54z"/><g><path d="M62.946 61a1 1 0 0 1-.961-.726l-2-7a1 1 0 0 1 .688-1.236 1.006 1.006 0 0 1 1.236.688l2 7A1 1 0 0 1 62.946 61z"/></g><g><path d="M42.947 39a1 1 0 0 1-1-1v-6a1 1 0 1 1 2 0v6a1 1 0 0 1-1 1z"/></g><g><path d="M37.947 43h-6a1 1 0 1 1 0-2h6a1 1 0 1 1 0 2z"/></g><g><path d="M55.447 13a1 1 0 1 1 0-2 .5.5 0 0 0 0-1 1 1 0 1 1 0-2c1.379 0 2.5 1.122 2.5 2.5s-1.121 2.5-2.5 2.5z"/><path d="M55.947 17a1 1 0 1 1 0-2 1.001 1.001 0 0 0 0-2 1 1 0 1 1 0-2c1.654 0 3 1.346 3 3s-1.345 3-3 3z"/><path d="M55.947 13h-3a1 1 0 1 1 0-2h3a1 1 0 1 1 0 2zM55.947 17h-4a1 1 0 1 1 0-2h4a1 1 0 1 1 0 2zM55.447 10h-3.5a1 1 0 1 1 0-2h3.5a1 1 0 1 1 0 2z"/><path d="M52.947 17a1 1 0 0 1-1-1V9a1 1 0 1 1 2 0v7a1 1 0 0 1-1 1z"/><path d="M53.947 10a1 1 0 0 1-1-1V8a1 1 0 1 1 2 0v1a1 1 0 0 1-1 1zM53.947 18a1 1 0 0 1-1-1v-1a1 1 0 1 1 2 0v1a1 1 0 0 1-1 1z"/><g><path d="M54.447 22c-5.238 0-9.5-4.262-9.5-9.5s4.262-9.5 9.5-9.5 9.5 4.262 9.5 9.5-4.261 9.5-9.5 9.5zm0-17c-4.136 0-7.5 3.364-7.5 7.5s3.364 7.5 7.5 7.5 7.5-3.364 7.5-7.5-3.364-7.5-7.5-7.5z"/></g><g><path d="M54.447 26c-5.238 0-9.5-4.262-9.5-9.5a1 1 0 1 1 2 0c0 4.136 3.364 7.5 7.5 7.5s7.5-3.364 7.5-7.5a1 1 0 1 1 2 0c0 5.238-4.261 9.5-9.5 9.5z"/></g><g><path d="M45.947 17.5a1 1 0 0 1-1-1v-4a1 1 0 1 1 2 0v4a1 1 0 0 1-1 1z"/></g><g><path d="M62.947 17.5a1 1 0 0 1-1-1v-4a1 1 0 1 1 2 0v4a1 1 0 0 1-1 1z"/></g><g><path d="M57.947 25.247a1 1 0 0 1-1-1v-4a1 1 0 1 1 2 0v4a1 1 0 0 1-1 1z"/></g><g><path d="M50.947 25.247a1 1 0 0 1-1-1v-3.999a1 1 0 1 1 2 0v3.999a1 1 0 0 1-1 1z"/></g></g><g><path d="M59.5 41c-2.481 0-4.5-2.019-4.5-4.5s2.019-4.5 4.5-4.5 4.5 2.019 4.5 4.5-2.019 4.5-4.5 4.5zm0-7c-1.379 0-2.5 1.121-2.5 2.5s1.121 2.5 2.5 2.5 2.5-1.121 2.5-2.5-1.121-2.5-2.5-2.5z"/><path d="M59.5 44a4.505 4.505 0 0 1-4.5-4.5 1 1 0 1 1 2 0c0 1.379 1.121 2.5 2.5 2.5s2.5-1.121 2.5-2.5a1 1 0 1 1 2 0c0 2.481-2.019 4.5-4.5 4.5z"/><path d="M56 40.5a1 1 0 0 1-1-1v-3a1 1 0 1 1 2 0v3a1 1 0 0 1-1 1zM63 40.5a1 1 0 0 1-1-1v-3a1 1 0 1 1 2 0v3a1 1 0 0 1-1 1z"/></g><g><path d="M50.5 35c-1.93 0-3.5-1.57-3.5-3.5s1.57-3.5 3.5-3.5 3.5 1.57 3.5 3.5-1.57 3.5-3.5 3.5zm0-5c-.827 0-1.5.673-1.5 1.5s.673 1.5 1.5 1.5 1.5-.673 1.5-1.5-.673-1.5-1.5-1.5z"/></g><g><path d="M62.947 61h-40a1 1 0 1 1 0-2h40a1 1 0 1 1 0 2z"/></g></g></svg>