<svg xmlns="http://www.w3.org/2000/svg" viewBox="0 0 64 64"><path fill="#EDAB37" d="M52.99 44.97A26.826 26.826 0 0143 52.66C39.64 54.17 35.92 55 32 55s-7.64-.83-11-2.34c-3.92-1.75-7.34-4.4-9.99-7.7A26.788 26.788 0 015 28v8c0 6.42 2.24 12.33 6 16.96 2.66 3.3 6.08 5.95 10 7.7C24.36 62.17 28.08 63 32 63s7.64-.83 11-2.34c3.92-1.75 7.34-4.4 10-7.7 3.76-4.63 6-10.54 6-16.96v-8c0 6.43-2.25 12.33-6.01 16.97z"/><path fill="#FFCE54" d="M59 28c0 6.43-2.25 12.33-6.01 16.97A26.826 26.826 0 0143 52.66C39.64 54.17 35.92 55 32 55s-7.64-.83-11-2.34c-3.92-1.75-7.34-4.4-9.99-7.7A26.788 26.788 0 015 28C5 13.08 17.09 1 32 1s27 12.08 27 27z"/><path fill="#F6BB42" d="M32 1c-.673 0-1.339.033-2 .082C43.975 2.105 55 13.754 55 28c0 6.43-2.25 12.33-6.01 16.97A26.826 26.826 0 0139 52.66a26.663 26.663 0 01-9 2.258c.661.049 1.326.082 2 .082 3.92 0 7.64-.83 11-2.34 3.92-1.74 7.34-4.4 9.99-7.69A26.852 26.852 0 0059 28C59 13.08 46.91 1 32 1z"/><path fill="#EDAB37" d="M35 27c3.32 0 6 2.69 6 6s-2.68 6-6 6H25V27h10zM34 17c2.76 0 5 2.24 5 5s-2.24 5-5 5h-9V17h9z"/><g><path d="M32 56C16.561 56 4 43.439 4 28S16.561 0 32 0s28 12.561 28 28-12.561 28-28 28zm0-54C17.664 2 6 13.664 6 28c0 14.337 11.664 26 26 26 14.337 0 26-11.663 26-26C58 13.664 46.337 2 32 2z"/><path d="M32.144 52a1 1 0 01-.006-2 22.173 22.173 0 003.805-.353 1.001 1.001 0 01.355 1.969A24.336 24.336 0 0132.15 52h-.006zm-3.98-.318c-.055 0-.111-.005-.167-.014a23.904 23.904 0 01-4.035-1.047 1 1 0 01.669-1.884c1.199.426 2.442.748 3.697.959a1 1 0 01-.164 1.986zm11.81-1.101a1 1 0 01-.347-1.937 21.944 21.944 0 003.452-1.632 1 1 0 011.008 1.726 23.87 23.87 0 01-3.767 1.78.956.956 0 01-.346.063zm-19.311-1.564c-.167 0-.336-.042-.493-.13a24.155 24.155 0 01-3.433-2.364 1 1 0 011.273-1.543 21.92 21.92 0 003.147 2.167 1 1 0 01-.494 1.87zm26.182-2.449a1.001 1.001 0 01-.647-1.763c.97-.82 1.876-1.732 2.693-2.71a1.001 1.001 0 011.535 1.283 24.327 24.327 0 01-2.938 2.954.987.987 0 01-.643.236zm-32.32-2.615a.995.995 0 01-.76-.35 24.154 24.154 0 01-2.427-3.387.999.999 0 111.721-1.019 21.948 21.948 0 002.225 3.105 1 1 0 01-.759 1.651zm37.419-3.492a1 1 0 01-.866-1.499 21.91 21.91 0 001.611-3.465 1.001 1.001 0 011.881.681 24.057 24.057 0 01-1.758 3.781.999.999 0 01-.868.502zM10.47 37.107c-.404 0-.785-.247-.936-.647a23.876 23.876 0 01-1.123-4.014 1 1 0 011.966-.368c.234 1.249.58 2.486 1.029 3.677a1 1 0 01-.936 1.352zm44.188-4.129a1 1 0 01-.986-1.172 22.132 22.132 0 00.321-4.355 1 1 0 01.975-1.025c.525-.051 1.011.421 1.025.974a24.212 24.212 0 01-.35 4.75 1.001 1.001 0 01-.985.828zM9.001 29.287a1 1 0 01-1-.99L8 28c0-1.291.104-2.587.308-3.854a1 1 0 011.974.318A22.327 22.327 0 0010 28l.001.277a1.001 1.001 0 01-.99 1.01h-.01zm45.549-4.83a1 1 0 01-.979-.804 21.986 21.986 0 00-1.074-3.665 1 1 0 011.863-.727 24 24 0 011.172 4 1 1 0 01-.982 1.196zm-44.276-3.024a1 1 0 01-.944-1.329 23.968 23.968 0 011.71-3.802 1 1 0 111.745.977 21.998 21.998 0 00-1.567 3.484 1 1 0 01-.944.67zm41.38-4.385a.999.999 0 01-.855-.48 22.085 22.085 0 00-2.262-3.078 1 1 0 011.502-1.321 24.051 24.051 0 012.469 3.358 1 1 0 01-.854 1.521zm-37.497-2.563a1 1 0 01-.775-1.632 24.19 24.19 0 012.901-2.992 1 1 0 011.311 1.511 22.252 22.252 0 00-2.661 2.744.999.999 0 01-.776.369zm32.245-3.417a.994.994 0 01-.626-.221 22.026 22.026 0 00-3.173-2.128 1.001 1.001 0 01-.394-1.359 1.001 1.001 0 011.358-.393 24.128 24.128 0 013.462 2.321 1 1 0 01-.627 1.78zM20.171 9.271a1 1 0 01-.516-1.857A23.917 23.917 0 0123.4 5.587a1 1 0 11.717 1.867 21.981 21.981 0 00-3.431 1.674.988.988 0 01-.515.143zm19.261-2.043c-.106 0-.216-.018-.322-.054a21.956 21.956 0 00-3.709-.913 1 1 0 11.307-1.977c1.371.213 2.732.548 4.047.996a1 1 0 01-.323 1.948zm-11.835-.807a1.001 1.001 0 01-.189-1.982 24.192 24.192 0 014.144-.435.992.992 0 011.019.981c.01.552-.43 1.008-.981 1.019a22.115 22.115 0 00-3.8.399c-.066.012-.13.018-.193.018z"/><path d="M32 64C16.561 64 4 51.439 4 36a1 1 0 112 0c0 14.337 11.664 26 26 26 14.337 0 26-11.663 26-26a1 1 0 112 0c0 15.439-12.561 28-28 28z"/><path d="M5 37a1 1 0 01-1-1v-8a1 1 0 012 0v8a1 1 0 01-1 1zM59 37a1 1 0 01-1-1v-8a1 1 0 112 0v8a1 1 0 01-1 1zM32 64a1 1 0 01-1-1v-8a1 1 0 112 0v8a1 1 0 01-1 1zM21 61.665a1 1 0 01-1-1v-8a1 1 0 112 0v8a1 1 0 01-1 1zM11 53.973a1 1 0 01-1-1v-8a1 1 0 112 0v8a1 1 0 01-1 1zM43 61.679a1 1 0 01-1-1v-8a1 1 0 112 0v8a1 1 0 01-1 1zM53 53.986a1 1 0 01-1-1v-8a1 1 0 112 0v8a1 1 0 01-1 1z"/><g><path d="M25 40a1 1 0 01-1-1V17a1 1 0 012 0v22a1 1 0 01-1 1zM34 28a1 1 0 110-2c2.206 0 4-1.794 4-4s-1.794-4-4-4a1 1 0 110-2c3.309 0 6 2.691 6 6s-2.691 6-6 6z"/><path d="M35 40a1 1 0 110-2c2.757 0 5-2.243 5-5s-2.243-5-5-5a1 1 0 110-2c3.859 0 7 3.14 7 7 0 3.859-3.141 7-7 7z"/><path d="M35 28H25a1 1 0 010-2h10a1 1 0 110 2zM34 18H24a1 1 0 010-2h10a1 1 0 110 2zM35 40H24a1 1 0 110-2h11a1 1 0 110 2z"/><path d="M28 18a1 1 0 01-1-1v-2a1 1 0 012 0v2a1 1 0 01-1 1zM32 18a1 1 0 01-1-1v-2a1 1 0 012 0v2a1 1 0 01-1 1zM28 42a1 1 0 01-1-1v-2a1 1 0 112 0v2a1 1 0 01-1 1zM32 42a1 1 0 01-1-1v-2a1 1 0 112 0v2a1 1 0 01-1 1z"/></g></g></svg>