<?xml version="1.0" encoding="utf-8"?>
<!-- Generator: Adobe Illustrator 16.0.0, SVG Export Plug-In . SVG Version: 6.00 Build 0)  -->
<!DOCTYPE svg PUBLIC "-//W3C//DTD SVG 1.1//EN" "http://www.w3.org/Graphics/SVG/1.1/DTD/svg11.dtd">
<svg version="1.1" xmlns="http://www.w3.org/2000/svg" xmlns:xlink="http://www.w3.org/1999/xlink" x="0px" y="0px" width="64px"
	 height="64px" viewBox="0 0 64 64" enable-background="new 0 0 64 64" xml:space="preserve">
<g id="_x35_0_code_x2C__programming_x2C__program_x2C__bitcoin_x2C__block_x2C__chain_x2C__cryptocurrency">
</g>
<g id="_x34_9_balloon_x2C__takeoff_x2C__bitcoin_x2C__coin_x2C__block_x2C__chain_x2C__cryptocurrency">
</g>
<g id="_x34_8_video_card_x2C__mining_x2C__farm_x2C__computer_x2C__block_x2C__chain_x2C__cryptocurrency">
</g>
<g id="_x34_7_money_box_x2C__saving_x2C__bitcoin_x2C__coin_x2C__block_x2C__chain_x2C__cryptocurrency">
</g>
<g id="_x34_6_portfolio_x2C__finance_x2C__bank_note_x2C__bitcoin_x2C__coin_x2C__cryptocurrency">
</g>
<g id="_x34_5_tap_x2C__water_x2C__bitcoin_x2C__coin_x2C__block_x2C__chain_x2C__cryptocurrency">
</g>
<g id="_x34_4_phone_x2C__bitcoin_x2C__coin_x2C__block_x2C__chain_x2C__cryptocurrency">
</g>
<g id="_x34_3_rocket_x2C__sun_x2C__bitcoin_x2C__coin_x2C__block_x2C__chain_x2C__cryptocurrency">
</g>
<g id="_x34_2_transfer_x2C__network_x2C__bitcoin_x2C__coin_x2C__block_x2C__chain_x2C__cryptocurrency">
</g>
<g id="_x34_1_scales_x2C__comparison_x2C__bitcoin_x2C__coin_x2C__block_x2C__chain_x2C__cryptocurrency">
</g>
<g id="_x34_0_calculator_x2C__calculating_x2C__bitcoin_x2C__coin_x2C__block_x2C__chain_x2C__cryptocurrency">
</g>
<g id="_x33_9_start-up_x2C__plant_x2C__hand_x2C__bitcoin_x2C__coin_x2C__cryptocurrency">
</g>
<g id="_x33_8_idea_x2C__bulb_x2C__bitcoin_x2C__coin_x2C__block_x2C__chain_x2C__cryptocurrency">
</g>
<g id="_x33_7_users_x2C__user_x2C__co-founder_x2C__bitcoin_x2C__coin_x2C__cryptocurrency">
</g>
<g id="_x33_6_safe_x2C__protection_x2C__bitcoin_x2C__coin_x2C__block_x2C__chain_x2C__cryptocurrency">
</g>
<g id="_x33_5_flash_drive_x2C__key_x2C__block_x2C__chain_x2C__cryptocurrency">
</g>
<g id="_x33_4_cloud_x2C__mining_x2C__bitcoin_x2C__coin_x2C__block_x2C__chain_x2C__cryptocurrency">
</g>
<g id="_x33_3_start_up_x2C__plant_x2C__bitcoin_x2C__coin_x2C__block_x2C__chain_x2C__cryptocurrency">
</g>
<g id="_x33_2_planet_x2C__bitcoin_x2C__coin_x2C__block_x2C__chain_x2C__cryptocurrency">
</g>
<g id="_x33_1_payment_x2C__hand_x2C__bitcoin_x2C__coin_x2C__block_x2C__chain_x2C__cryptocurrency">
</g>
<g id="_x33_0_user_x2C__laptop_x2C__bitcoin_x2C__coin_x2C__block_x2C__chain_x2C__cryptocurrency">
</g>
<g id="_x32_9_thief_x2C__bag_x2C__bitcoin_x2C__coin_x2C__block_x2C__chain_x2C__cryptocurrency">
</g>
<g id="_x32_8_code_x2C__programming_x2C__program_x2C__bitcoin_x2C__coin_x2C__cryptocurrency">
</g>
<g id="_x32_7_bitcoin_x2C__coin_x2C__block_x2C__chain_x2C__cryptocurrency">
</g>
<g id="_x32_6_shield_x2C__protection_x2C__bitcoin_x2C__coin_x2C__block_x2C__chain_x2C__cryptocurrency">
</g>
<g id="_x32_5_bug_x2C__laptop_x2C__miner_x2C__program_x2C__block_x2C__chain_x2C__cryptocurrency">
</g>
<g id="_x32_4_computer_x2C__monitor_x2C__bitcoin_x2C__coin_x2C__block_x2C__chain_x2C__cryptocurrency">
</g>
<g id="_x32_3_network_x2C__idea_x2C__bitcoin_x2C__coin_x2C__block_x2C__chain_x2C__cryptocurrency">
</g>
<g id="_x32_2_block_x2C__chain_x2C__cryptocurrency_x2C__technology_x2C__future">
</g>
<g id="_x32_1_smart_contact_x2C__contact_x2C__block_x2C__chain_x2C__cryptocurrency">
</g>
<g id="_x32_0_lock_x2C__safe_x2C__protection_x2C__block_x2C__chain_x2C__cryptocurrency_x2C__program">
</g>
<g id="_x31_9_server_x2C__data_x2C__bitcoin_x2C__coin_x2C__block_x2C__chain_x2C__cryptocurrency">
</g>
<g id="_x31_8_key_x2C__bitcoin_x2C__coin_x2C__block_x2C__chain_x2C__cryptocurrency">
</g>
<g id="_x31_7_pool_x2C__network_x2C__bitcoin_x2C__coin_x2C__block_x2C__chain_x2C__cryptocurrency">
</g>
<g id="_x31_6_mining_x2C__shovel_x2C__mine_x2C__coin_x2C__block_x2C__chain_x2C__cryptocurrency">
</g>
<g id="_x31_5_purse_x2C__bitcoin_x2C__coin_x2C__block_x2C__chain_x2C__cryptocurrency">
</g>
<g id="_x31_4_safe_x2C__protection_x2C__block_x2C__chain_x2C__cryptocurrency_x2C__program">
</g>
<g id="_x31_3_mining_x2C__funnel_x2C__satoshi_x2C__bitcoin_x2C__coin_x2C__cryptocurrency">
</g>
<g id="_x31_2_chart_x2C__bitcoin_x2C__coin_x2C__block_x2C__chain_x2C__cryptocurrency">
</g>
<g id="_x31_1_computer_x2C__monitor_x2C__bitcoin_x2C__coin_x2C__block_x2C__chain_x2C__cryptocurrency">
</g>
<g id="_x31_0_mining_x2C__pickaxe_x2C__stone_x2C__mine_x2C___bitcoin_x2C__coin_x2C__cryptocurrency">
</g>
<g id="_x39__miner_x2C__mining_x2C__computer_x2C__pickaxe_x2C__program_x2C__cryptocurrency">
</g>
<g id="_x38__video_card_x2C__mining_x2C__bitcoin_x2C__coin_x2C__block_x2C__chain_x2C__cryptocurrency">
</g>
<g id="_x37__exchanger_x2C__site_x2C__bitcoin_x2C__coin_x2C__block_x2C__chain_x2C__cryptocurrency">
</g>
<g id="_x36__shop_x2C__product_x2C__bitcoin_x2C__coin_x2C__block_x2C__chain_x2C__cryptocurrency">
</g>
<g id="_x35__bitcoin_x2C__coin_x2C__exchange_x2C__block_x2C__chain_x2C__cryptocurrency_x2C__product">
</g>
<g id="_x34__bitcoin_x2C__coin_x2C__exchange_x2C__block_x2C__chain_x2C__cryptocurrency">
</g>
<g id="_x33__bitcoin_x2C__coin_x2C__exchange_x2C__block_x2C__chain_x2C__cryptocurrency">
	<g>
		<g>
			<path fill="#FFCE54" d="M47.02,39.81c-3.57-1.819-6.021-5.52-6.021-9.81c0-6.08,4.931-11,11-11c6.08,0,11,4.92,11,11
				c0,4.27-2.43,7.97-5.979,9.79c-1.5,0.77-3.2,1.21-5,1.21c-0.011,0-0.011,0-0.021,0C50.209,41,48.52,40.57,47.02,39.81z"/>
		</g>
		<g>
			<path fill="#FFCE54" d="M22.999,30c0,4.28-2.439,7.98-6,9.8c-1.5,0.771-3.2,1.2-5,1.2s-3.5-0.43-5-1.2c-3.56-1.819-6-5.52-6-9.8
				c0-6.08,4.931-11,11-11C18.079,19,22.999,23.92,22.999,30z"/>
		</g>
		<g>
			<path fill="#F6BB42" d="M11.999,19c-0.684,0-1.35,0.071-1.999,0.19c5.122,0.94,8.999,5.414,8.999,10.81c0,4.28-2.439,7.98-6,9.8
				c-0.929,0.478-1.941,0.806-3,1c0.65,0.119,1.314,0.2,2,0.2c1.8,0,3.5-0.43,5-1.2c3.561-1.819,6-5.52,6-9.8
				C22.999,23.92,18.079,19,11.999,19z"/>
		</g>
		<g>
			<path fill="#F6BB42" d="M52.001,19c-0.684,0-1.35,0.071-1.999,0.19c5.122,0.94,8.999,5.414,8.999,10.81c0,4.28-2.439,7.98-6,9.8
				c-0.929,0.478-1.941,0.806-3,1c0.65,0.119,1.314,0.2,2,0.2c1.8,0,3.5-0.43,5-1.2c3.561-1.819,6-5.52,6-9.8
				C63.001,23.92,58.081,19,52.001,19z"/>
		</g>
		<g>
			<path fill="#EDAB37" d="M57.02,39.79c-1.5,0.77-3.2,1.21-5,1.21c-0.011,0-0.011,0-0.021,0c-1.79,0-3.479-0.43-4.979-1.19
				c-3.57-1.819-6.021-5.52-6.021-9.81v4c0,4.29,2.45,7.99,6.021,9.81c1.5,0.761,3.189,1.19,4.979,1.19c0.01,0,0.01,0,0.021,0
				c1.8,0,3.5-0.44,5-1.21c3.55-1.82,5.979-5.521,5.979-9.79v-4C62.999,34.27,60.569,37.97,57.02,39.79z"/>
		</g>
		<g>
			
				<rect x="49.171" y="27.172" transform="matrix(0.7071 -0.7071 0.7071 0.7071 -5.983 45.5557)" fill="#EDAB37" width="5.657" height="5.657"/>
		</g>
		<g>
			<path fill="#EDAB37" d="M16.999,39.8c-1.5,0.771-3.2,1.2-5,1.2s-3.5-0.43-5-1.2c-3.56-1.819-6-5.52-6-9.8v4
				c0,4.28,2.44,7.98,6,9.8c1.5,0.771,3.2,1.2,5,1.2s3.5-0.43,5-1.2c3.561-1.819,6-5.52,6-9.8v-4
				C22.999,34.28,20.56,37.98,16.999,39.8z"/>
		</g>
		<g>
			<path fill="#EDAB37" d="M12.999,25c1.11,0,2,0.9,2,2s-0.89,2-2,2h-4v-4h2H12.999z"/>
		</g>
		<g>
			<path fill="#EDAB37" d="M12.999,29c1.66,0,3,1.34,3,3s-1.34,3-3,3h-2h-2v-6H12.999z"/>
		</g>
	</g>
	<g>
		<g>
			<g>
				<path d="M52,42c-6.617,0-12-5.383-12-12c0-6.617,5.383-12,12-12s12,5.383,12,12C64,36.617,58.617,42,52,42z M52,20
					c-5.514,0-10,4.486-10,10c0,5.514,4.486,10,10,10s10-4.486,10-10C62,24.486,57.514,20,52,20z"/>
			</g>
			<g>
				<path d="M52,46c-6.617,0-12-5.383-12-12c0-0.553,0.447-1,1-1s1,0.447,1,1c0,5.514,4.486,10,10,10s10-4.486,10-10
					c0-0.553,0.447-1,1-1s1,0.447,1,1C64,40.617,58.617,46,52,46z"/>
			</g>
		</g>
		<g>
			<path d="M32,56.99c-5.378,0-10.756-2.047-14.85-6.141c-0.391-0.391-0.391-1.023,0-1.414s1.023-0.391,1.414,0
				c7.408,7.406,19.463,7.406,26.871,0c0.391-0.391,1.023-0.391,1.414,0s0.391,1.023,0,1.414C42.756,54.943,37.378,56.99,32,56.99z"
				/>
		</g>
		<g>
			<path d="M46.143,14.857c-0.256,0-0.512-0.098-0.707-0.293c-7.408-7.407-19.463-7.407-26.871,0c-0.391,0.391-1.023,0.391-1.414,0
				s-0.391-1.024,0-1.414c8.188-8.188,21.512-8.188,29.699,0c0.391,0.39,0.391,1.023,0,1.414
				C46.654,14.76,46.398,14.857,46.143,14.857z"/>
		</g>
		<g>
			<path d="M42.999,15c-0.531,0-0.974-0.418-0.998-0.955c-0.025-0.552,0.402-1.02,0.954-1.044l3.143-0.143
				c0.517-0.025,1.02,0.402,1.044,0.954c0.025,0.552-0.402,1.02-0.954,1.044l-3.143,0.143C43.03,15,43.015,15,42.999,15z"/>
		</g>
		<g>
			<path d="M46.142,14.857c-0.529,0-0.971-0.416-0.998-0.95l-0.143-2.857c-0.027-0.552,0.397-1.021,0.949-1.048
				c0.528-0.033,1.021,0.397,1.049,0.949l0.143,2.857c0.027,0.552-0.397,1.021-0.949,1.048
				C46.176,14.857,46.158,14.857,46.142,14.857z"/>
		</g>
		<g>
			<path d="M17.999,54c-0.529,0-0.971-0.415-0.998-0.95l-0.143-2.857c-0.027-0.552,0.397-1.021,0.949-1.049
				c0.541-0.047,1.021,0.397,1.049,0.949l0.143,2.857c0.027,0.552-0.397,1.021-0.949,1.049C18.033,54,18.016,54,17.999,54z"/>
		</g>
		<g>
			<path d="M17.856,51.143c-0.531,0-0.974-0.418-0.998-0.955c-0.025-0.552,0.402-1.019,0.954-1.044l3.143-0.143
				c0.503-0.04,1.019,0.401,1.044,0.954c0.025,0.552-0.402,1.019-0.954,1.044l-3.143,0.143
				C17.888,51.143,17.872,51.143,17.856,51.143z"/>
		</g>
		<g>
			<path d="M41,35c-0.553,0-1-0.447-1-1v-4c0-0.552,0.447-1,1-1s1,0.448,1,1v4C42,34.553,41.553,35,41,35z"/>
		</g>
		<g>
			<path d="M63,35c-0.553,0-1-0.447-1-1v-4c0-0.552,0.447-1,1-1s1,0.448,1,1v4C64,34.553,63.553,35,63,35z"/>
		</g>
		<g>
			<g>
				<g>
					<path d="M12,42C5.383,42,0,36.617,0,30c0-6.617,5.383-12,12-12s12,5.383,12,12C24,36.617,18.617,42,12,42z M12,20
						C6.486,20,2,24.486,2,30c0,5.514,4.486,10,10,10s10-4.486,10-10C22,24.486,17.514,20,12,20z"/>
				</g>
				<g>
					<path d="M12,46C5.383,46,0,40.617,0,34c0-0.553,0.447-1,1-1s1,0.447,1,1c0,5.514,4.486,10,10,10s10-4.486,10-10
						c0-0.553,0.447-1,1-1s1,0.447,1,1C24,40.617,18.617,46,12,46z"/>
				</g>
			</g>
			<g>
				<path d="M23,35c-0.553,0-1-0.447-1-1v-4c0-0.552,0.447-1,1-1s1,0.448,1,1v4C24,34.553,23.553,35,23,35z"/>
			</g>
			<g>
				<path d="M1,35c-0.553,0-1-0.447-1-1v-4c0-0.552,0.447-1,1-1s1,0.448,1,1v4C2,34.553,1.553,35,1,35z"/>
			</g>
			<g>
				<g>
					<path d="M9,36c-0.553,0-1-0.447-1-1V25c0-0.552,0.447-1,1-1s1,0.448,1,1v10C10,35.553,9.553,36,9,36z"/>
				</g>
				<g>
					<path d="M13.001,29.998c-0.553,0-1-0.448-1-1s0.447-1,1-1c0.551,0,0.999-0.448,0.999-0.999S13.552,26,13.001,26
						c-0.553,0-1-0.448-1-1s0.447-1,1-1C14.654,24,16,25.345,16,26.999S14.654,29.998,13.001,29.998z"/>
				</g>
				<g>
					<path d="M12.999,36c-0.553,0-1-0.447-1-1s0.447-1,1-1C14.103,34,15,33.103,15,32c0-1.104-0.897-2.002-2.001-2.002
						c-0.553,0-1-0.448-1-1s0.447-1,1-1C15.205,27.998,17,29.793,17,32C17,34.206,15.205,36,12.999,36z"/>
				</g>
				<g>
					<path d="M13.001,26H8c-0.553,0-1-0.448-1-1s0.447-1,1-1h5.001c0.553,0,1,0.448,1,1S13.554,26,13.001,26z"/>
				</g>
				<g>
					<path d="M12.999,36H8c-0.553,0-1-0.447-1-1s0.447-1,1-1h4.999c0.553,0,1,0.447,1,1S13.552,36,12.999,36z"/>
				</g>
				<g>
					<path d="M13.001,29.998H9c-0.553,0-1-0.448-1-1s0.447-1,1-1h4.001c0.553,0,1,0.448,1,1S13.554,29.998,13.001,29.998z"/>
				</g>
				<g>
					<path d="M11,26c-0.553,0-1-0.448-1-1v-1c0-0.552,0.447-1,1-1s1,0.448,1,1v1C12,25.552,11.553,26,11,26z"/>
				</g>
				<g>
					<path d="M11,37c-0.553,0-1-0.447-1-1v-1c0-0.553,0.447-1,1-1s1,0.447,1,1v1C12,36.553,11.553,37,11,37z"/>
				</g>
			</g>
			<g>
				<path d="M7,44.8c-0.553,0-1-0.447-1-1v-4c0-0.553,0.447-1,1-1s1,0.447,1,1v4C8,44.353,7.553,44.8,7,44.8z"/>
			</g>
			<g>
				<path d="M17,44.8c-0.553,0-1-0.447-1-1v-4c0-0.553,0.447-1,1-1s1,0.447,1,1v4C18,44.353,17.553,44.8,17,44.8z"/>
			</g>
			<g>
				<path d="M12,46c-0.553,0-1-0.447-1-1v-4c0-0.553,0.447-1,1-1s1,0.447,1,1v4C13,45.553,12.553,46,12,46z"/>
			</g>
		</g>
		<g>
			<path d="M47.016,44.8c-0.553,0-1-0.447-1-1v-4c0-0.553,0.447-1,1-1s1,0.447,1,1v4C48.016,44.353,47.568,44.8,47.016,44.8z"/>
		</g>
		<g>
			<path d="M57.016,44.8c-0.553,0-1-0.447-1-1v-4c0-0.553,0.447-1,1-1s1,0.447,1,1v4C58.016,44.353,57.568,44.8,57.016,44.8z"/>
		</g>
		<g>
			<path d="M52.016,46c-0.553,0-1-0.447-1-1v-4c0-0.553,0.447-1,1-1s1,0.447,1,1v4C53.016,45.553,52.568,46,52.016,46z"/>
		</g>
		<g>
			<path d="M52.046,23c-0.553,0-1.005-0.448-1.005-1s0.442-1,0.994-1h0.011c0.552,0,1,0.448,1,1S52.598,23,52.046,23z"/>
		</g>
		<g>
			<path d="M52.046,39c-0.553,0-1.005-0.447-1.005-1s0.442-1,0.994-1h0.011c0.552,0,1,0.447,1,1S52.598,39,52.046,39z"/>
		</g>
		<g>
			<path d="M48.046,24.072c-0.553,0-1.005-0.448-1.005-1s0.442-1,0.994-1h0.011c0.552,0,1,0.448,1,1S48.598,24.072,48.046,24.072z"
				/>
		</g>
		<g>
			<path d="M56.046,37.928c-0.553,0-1.005-0.447-1.005-1s0.442-1,0.994-1h0.011c0.552,0,1,0.447,1,1S56.598,37.928,56.046,37.928z"
				/>
		</g>
		<g>
			<path d="M45.118,27c-0.553,0-1.005-0.448-1.005-1s0.442-1,0.994-1h0.011c0.552,0,1,0.448,1,1S45.67,27,45.118,27z"/>
		</g>
		<g>
			<path d="M58.974,35c-0.553,0-1.005-0.447-1.005-1s0.442-1,0.994-1h0.011c0.552,0,1,0.447,1,1S59.525,35,58.974,35z"/>
		</g>
		<g>
			<path d="M44.046,31c-0.553,0-1.005-0.448-1.005-1s0.442-1,0.994-1h0.011c0.552,0,1,0.448,1,1S44.598,31,44.046,31z"/>
		</g>
		<g>
			<path d="M60.046,31c-0.553,0-1.005-0.448-1.005-1s0.442-1,0.994-1h0.011c0.552,0,1,0.448,1,1S60.598,31,60.046,31z"/>
		</g>
		<g>
			<path d="M45.118,35c-0.553,0-1.005-0.447-1.005-1s0.442-1,0.994-1h0.011c0.552,0,1,0.447,1,1S45.67,35,45.118,35z"/>
		</g>
		<g>
			<path d="M58.975,27c-0.553,0-1.005-0.448-1.005-1s0.442-1,0.994-1h0.011c0.552,0,1,0.448,1,1S59.526,27,58.975,27z"/>
		</g>
		<g>
			<path d="M48.046,37.928c-0.553,0-1.005-0.447-1.005-1s0.442-1,0.994-1h0.011c0.552,0,1,0.447,1,1S48.598,37.928,48.046,37.928z"
				/>
		</g>
		<g>
			<path d="M56.047,24.072c-0.553,0-1.005-0.448-1.005-1s0.442-1,0.994-1h0.011c0.552,0,1,0.448,1,1S56.599,24.072,56.047,24.072z"
				/>
		</g>
		<g>
			<path d="M52,35c-0.256,0-0.512-0.098-0.707-0.293l-4-4c-0.391-0.391-0.391-1.023,0-1.414l4-4c0.391-0.391,1.023-0.391,1.414,0
				l4,4c0.391,0.391,0.391,1.023,0,1.414l-4,4C52.512,34.902,52.256,35,52,35z M49.414,30L52,32.586L54.586,30L52,27.414L49.414,30z
				"/>
		</g>
	</g>
</g>
<g id="_x32__brain_x2C__smart_x2C__coin_x2C__block_x2C__chain_x2C__cryptocurrency">
</g>
<g id="_x31__bitcoin_x2C__coin_x2C__block_x2C__chain_x2C__cryptocurrency">
</g>
</svg>
