<?xml version="1.0" encoding="utf-8"?>
<!-- Generator: Adobe Illustrator 16.0.0, SVG Export Plug-In . SVG Version: 6.00 Build 0)  -->
<!DOCTYPE svg PUBLIC "-//W3C//DTD SVG 1.1//EN" "http://www.w3.org/Graphics/SVG/1.1/DTD/svg11.dtd">
<svg version="1.1" xmlns="http://www.w3.org/2000/svg" xmlns:xlink="http://www.w3.org/1999/xlink" x="0px" y="0px" width="64px"
	 height="64px" viewBox="0 0 64 64" enable-background="new 0 0 64 64" xml:space="preserve">
<g id="_x35_0_code_x2C__programming_x2C__program_x2C__bitcoin_x2C__block_x2C__chain_x2C__cryptocurrency">
</g>
<g id="_x34_9_balloon_x2C__takeoff_x2C__bitcoin_x2C__coin_x2C__block_x2C__chain_x2C__cryptocurrency">
</g>
<g id="_x34_8_video_card_x2C__mining_x2C__farm_x2C__computer_x2C__block_x2C__chain_x2C__cryptocurrency">
</g>
<g id="_x34_7_money_box_x2C__saving_x2C__bitcoin_x2C__coin_x2C__block_x2C__chain_x2C__cryptocurrency">
</g>
<g id="_x34_6_portfolio_x2C__finance_x2C__bank_note_x2C__bitcoin_x2C__coin_x2C__cryptocurrency">
</g>
<g id="_x34_5_tap_x2C__water_x2C__bitcoin_x2C__coin_x2C__block_x2C__chain_x2C__cryptocurrency">
</g>
<g id="_x34_4_phone_x2C__bitcoin_x2C__coin_x2C__block_x2C__chain_x2C__cryptocurrency">
</g>
<g id="_x34_3_rocket_x2C__sun_x2C__bitcoin_x2C__coin_x2C__block_x2C__chain_x2C__cryptocurrency">
</g>
<g id="_x34_2_transfer_x2C__network_x2C__bitcoin_x2C__coin_x2C__block_x2C__chain_x2C__cryptocurrency">
</g>
<g id="_x34_1_scales_x2C__comparison_x2C__bitcoin_x2C__coin_x2C__block_x2C__chain_x2C__cryptocurrency">
</g>
<g id="_x34_0_calculator_x2C__calculating_x2C__bitcoin_x2C__coin_x2C__block_x2C__chain_x2C__cryptocurrency">
</g>
<g id="_x33_9_start-up_x2C__plant_x2C__hand_x2C__bitcoin_x2C__coin_x2C__cryptocurrency">
</g>
<g id="_x33_8_idea_x2C__bulb_x2C__bitcoin_x2C__coin_x2C__block_x2C__chain_x2C__cryptocurrency">
</g>
<g id="_x33_7_users_x2C__user_x2C__co-founder_x2C__bitcoin_x2C__coin_x2C__cryptocurrency">
</g>
<g id="_x33_6_safe_x2C__protection_x2C__bitcoin_x2C__coin_x2C__block_x2C__chain_x2C__cryptocurrency">
</g>
<g id="_x33_5_flash_drive_x2C__key_x2C__block_x2C__chain_x2C__cryptocurrency">
</g>
<g id="_x33_4_cloud_x2C__mining_x2C__bitcoin_x2C__coin_x2C__block_x2C__chain_x2C__cryptocurrency">
</g>
<g id="_x33_3_start_up_x2C__plant_x2C__bitcoin_x2C__coin_x2C__block_x2C__chain_x2C__cryptocurrency">
</g>
<g id="_x33_2_planet_x2C__bitcoin_x2C__coin_x2C__block_x2C__chain_x2C__cryptocurrency">
</g>
<g id="_x33_1_payment_x2C__hand_x2C__bitcoin_x2C__coin_x2C__block_x2C__chain_x2C__cryptocurrency">
</g>
<g id="_x33_0_user_x2C__laptop_x2C__bitcoin_x2C__coin_x2C__block_x2C__chain_x2C__cryptocurrency">
</g>
<g id="_x32_9_thief_x2C__bag_x2C__bitcoin_x2C__coin_x2C__block_x2C__chain_x2C__cryptocurrency">
</g>
<g id="_x32_8_code_x2C__programming_x2C__program_x2C__bitcoin_x2C__coin_x2C__cryptocurrency">
</g>
<g id="_x32_7_bitcoin_x2C__coin_x2C__block_x2C__chain_x2C__cryptocurrency">
</g>
<g id="_x32_6_shield_x2C__protection_x2C__bitcoin_x2C__coin_x2C__block_x2C__chain_x2C__cryptocurrency">
</g>
<g id="_x32_5_bug_x2C__laptop_x2C__miner_x2C__program_x2C__block_x2C__chain_x2C__cryptocurrency">
</g>
<g id="_x32_4_computer_x2C__monitor_x2C__bitcoin_x2C__coin_x2C__block_x2C__chain_x2C__cryptocurrency">
</g>
<g id="_x32_3_network_x2C__idea_x2C__bitcoin_x2C__coin_x2C__block_x2C__chain_x2C__cryptocurrency">
</g>
<g id="_x32_2_block_x2C__chain_x2C__cryptocurrency_x2C__technology_x2C__future">
</g>
<g id="_x32_1_smart_contact_x2C__contact_x2C__block_x2C__chain_x2C__cryptocurrency">
</g>
<g id="_x32_0_lock_x2C__safe_x2C__protection_x2C__block_x2C__chain_x2C__cryptocurrency_x2C__program">
</g>
<g id="_x31_9_server_x2C__data_x2C__bitcoin_x2C__coin_x2C__block_x2C__chain_x2C__cryptocurrency">
	<g>
		<g>
			<path fill="#EDAB37" d="M33.05,8c1.11,0,2,0.9,2,2c0,1.11-0.89,2-2,2h-4V8h2H33.05z"/>
		</g>
		<g>
			<path fill="#EDAB37" d="M33.05,12c1.66,0,3,1.35,3,3c0,1.66-1.34,3-3,3h-2h-2v-6H33.05z"/>
		</g>
		<g>
			<path fill="#FFCE54" d="M33.05,18c1.66,0,3-1.34,3-3c0-1.65-1.34-3-3-3c1.11,0,2-0.89,2-2c0-1.1-0.89-2-2-2h-2h-2v4v6h2H33.05z
				 M43.05,13c0,4.28-2.439,7.98-6,9.8c-1.5,0.771-3.199,1.2-5,1.2c-1.8,0-3.5-0.43-5-1.2c-3.56-1.819-6-5.52-6-9.8
				c0-6.07,4.92-11,11-11C38.12,2,43.05,6.93,43.05,13z"/>
		</g>
		<g>
			<g>
				<path fill="#F6BB42" d="M32.05,2c-0.685,0-1.352,0.071-2.001,0.19C35.165,3.133,39.05,7.613,39.05,13c0,4.28-2.439,7.98-6,9.8
					c-0.929,0.478-1.941,0.806-3,1c0.65,0.119,1.314,0.2,2,0.2c1.801,0,3.5-0.43,5-1.2c3.561-1.819,6-5.52,6-9.8
					C43.05,6.93,38.12,2,32.05,2z"/>
			</g>
		</g>
		<g>
			<path fill="#EDAB37" d="M37.05,22.8c-1.5,0.771-3.199,1.2-5,1.2c-1.8,0-3.5-0.43-5-1.2c-3.56-1.819-6-5.52-6-9.8v4
				c0,4.28,2.44,7.98,6,9.8c1.5,0.771,3.2,1.2,5,1.2c1.801,0,3.5-0.43,5-1.2c3.561-1.819,6-5.52,6-9.8v-4
				C43.05,17.28,40.61,20.98,37.05,22.8z"/>
		</g>
		<g>
			<polygon fill="#353B44" points="60,34 63,38 37,38 40,34 			"/>
		</g>
		<g>
			<rect x="37" y="38" fill="#656D78" width="26" height="8"/>
		</g>
		<g>
			<rect x="37" y="46" fill="#656D78" width="26" height="8"/>
		</g>
		<g>
			<rect x="37" y="54" fill="#656D78" width="26" height="8"/>
		</g>
		<g>
			<rect x="1" y="54" fill="#656D78" width="26" height="8"/>
		</g>
		<g>
			<rect x="1" y="46" fill="#656D78" width="26" height="8"/>
		</g>
		<g>
			<rect x="1" y="38" fill="#656D78" width="26" height="8"/>
		</g>
		<g>
			<polygon fill="#353B44" points="24,34 27,38 1,38 4,34 			"/>
		</g>
		<g>
			<rect x="23" y="38" fill="#434A54" width="4" height="24"/>
		</g>
		<g>
			<rect x="59" y="38" fill="#434A54" width="4" height="24"/>
		</g>
	</g>
	<g>
		<g>
			<path d="M24.03,42.997c-0.553,0-1.005-0.447-1.005-1s0.442-1,0.994-1h0.011c0.552,0,1,0.447,1,1S24.582,42.997,24.03,42.997z"/>
		</g>
		<g>
			<g>
				<g>
					<path d="M32.047,25.003c-6.617,0-12-5.383-12-12s5.383-12,12-12s12,5.383,12,12S38.664,25.003,32.047,25.003z M32.047,3.003
						c-5.514,0-10,4.486-10,10s4.486,10,10,10s10-4.486,10-10S37.561,3.003,32.047,3.003z"/>
				</g>
				<g>
					<path d="M32.047,29.003c-6.617,0-12-5.383-12-12c0-0.553,0.447-1,1-1s1,0.447,1,1c0,5.514,4.486,10,10,10s10-4.486,10-10
						c0-0.553,0.447-1,1-1s1,0.447,1,1C44.047,23.62,38.664,29.003,32.047,29.003z"/>
				</g>
			</g>
			<g>
				<path d="M43.047,18.003c-0.553,0-1-0.447-1-1v-4c0-0.553,0.447-1,1-1s1,0.447,1,1v4C44.047,17.556,43.6,18.003,43.047,18.003z"
					/>
			</g>
			<g>
				<path d="M21.047,18.003c-0.553,0-1-0.447-1-1v-4c0-0.553,0.447-1,1-1s1,0.447,1,1v4C22.047,17.556,21.6,18.003,21.047,18.003z"
					/>
			</g>
			<g>
				<g>
					<path d="M29.047,19.003c-0.553,0-1-0.447-1-1v-10c0-0.553,0.447-1,1-1s1,0.447,1,1v10C30.047,18.556,29.6,19.003,29.047,19.003
						z"/>
				</g>
				<g>
					<path d="M33.048,13.001c-0.553,0-1-0.447-1-1s0.447-1,1-1c0.551,0,0.999-0.448,0.999-0.999s-0.448-0.999-0.999-0.999
						c-0.553,0-1-0.447-1-1s0.447-1,1-1c1.653,0,2.999,1.346,2.999,2.999S34.701,13.001,33.048,13.001z"/>
				</g>
				<g>
					<path d="M33.046,19.003c-0.553,0-1-0.447-1-1s0.447-1,1-1c1.104,0,2.001-0.897,2.001-2c0-1.104-0.897-2.002-2.001-2.002
						c-0.553,0-1-0.447-1-1s0.447-1,1-1c2.206,0,4.001,1.795,4.001,4.002C37.047,17.209,35.252,19.003,33.046,19.003z"/>
				</g>
				<g>
					<path d="M33.048,9.003h-5.001c-0.553,0-1-0.447-1-1s0.447-1,1-1h5.001c0.553,0,1,0.447,1,1S33.601,9.003,33.048,9.003z"/>
				</g>
				<g>
					<path d="M33.046,19.003h-4.999c-0.553,0-1-0.447-1-1s0.447-1,1-1h4.999c0.553,0,1,0.447,1,1S33.599,19.003,33.046,19.003z"/>
				</g>
				<g>
					<path d="M33.048,13.001h-4.001c-0.553,0-1-0.447-1-1s0.447-1,1-1h4.001c0.553,0,1,0.447,1,1S33.601,13.001,33.048,13.001z"/>
				</g>
				<g>
					<path d="M31.047,9.003c-0.553,0-1-0.447-1-1v-1c0-0.553,0.447-1,1-1s1,0.447,1,1v1C32.047,8.556,31.6,9.003,31.047,9.003z"/>
				</g>
				<g>
					<path d="M31.047,20.003c-0.553,0-1-0.447-1-1v-1c0-0.553,0.447-1,1-1s1,0.447,1,1v1C32.047,19.556,31.6,20.003,31.047,20.003z"
						/>
				</g>
			</g>
			<g>
				<path d="M27.047,27.803c-0.553,0-1-0.447-1-1v-4c0-0.553,0.447-1,1-1s1,0.447,1,1v4C28.047,27.355,27.6,27.803,27.047,27.803z"
					/>
			</g>
			<g>
				<path d="M37.047,27.803c-0.553,0-1-0.447-1-1v-4c0-0.553,0.447-1,1-1s1,0.447,1,1v4C38.047,27.355,37.6,27.803,37.047,27.803z"
					/>
			</g>
			<g>
				<path d="M32.047,29.003c-0.553,0-1-0.447-1-1v-4c0-0.553,0.447-1,1-1s1,0.447,1,1v4C33.047,28.556,32.6,29.003,32.047,29.003z"
					/>
			</g>
		</g>
		<g>
			<path d="M27,46.997H1c-0.553,0-1-0.447-1-1v-8c0-0.553,0.447-1,1-1h26c0.553,0,1,0.447,1,1v8C28,46.55,27.553,46.997,27,46.997z
				 M2,44.997h24v-6H2V44.997z"/>
		</g>
		<g>
			<path d="M5,43.997c-0.256,0-0.512-0.098-0.707-0.293c-0.391-0.391-0.391-1.023,0-1.414l2-2c0.391-0.391,1.023-0.391,1.414,0
				s0.391,1.023,0,1.414l-2,2C5.512,43.899,5.256,43.997,5,43.997z"/>
		</g>
		<g>
			<path d="M10,43.997c-0.256,0-0.512-0.098-0.707-0.293c-0.391-0.391-0.391-1.023,0-1.414l2-2c0.391-0.391,1.023-0.391,1.414,0
				s0.391,1.023,0,1.414l-2,2C10.512,43.899,10.256,43.997,10,43.997z"/>
		</g>
		<g>
			<path d="M15,43.997c-0.256,0-0.512-0.098-0.707-0.293c-0.391-0.391-0.391-1.023,0-1.414l2-2c0.391-0.391,1.023-0.391,1.414,0
				s0.391,1.023,0,1.414l-2,2C15.512,43.899,15.256,43.997,15,43.997z"/>
		</g>
		<g>
			<path d="M24.03,50.997c-0.553,0-1.005-0.447-1.005-1s0.442-1,0.994-1h0.011c0.552,0,1,0.447,1,1S24.582,50.997,24.03,50.997z"/>
		</g>
		<g>
			<path d="M27,54.997H1c-0.553,0-1-0.447-1-1v-8c0-0.553,0.447-1,1-1h26c0.553,0,1,0.447,1,1v8C28,54.55,27.553,54.997,27,54.997z
				 M2,52.997h24v-6H2V52.997z"/>
		</g>
		<g>
			<path d="M5,51.997c-0.256,0-0.512-0.098-0.707-0.293c-0.391-0.391-0.391-1.023,0-1.414l2-2c0.391-0.391,1.023-0.391,1.414,0
				s0.391,1.023,0,1.414l-2,2C5.512,51.899,5.256,51.997,5,51.997z"/>
		</g>
		<g>
			<path d="M10,51.997c-0.256,0-0.512-0.098-0.707-0.293c-0.391-0.391-0.391-1.023,0-1.414l2-2c0.391-0.391,1.023-0.391,1.414,0
				s0.391,1.023,0,1.414l-2,2C10.512,51.899,10.256,51.997,10,51.997z"/>
		</g>
		<g>
			<path d="M15,51.997c-0.256,0-0.512-0.098-0.707-0.293c-0.391-0.391-0.391-1.023,0-1.414l2-2c0.391-0.391,1.023-0.391,1.414,0
				s0.391,1.023,0,1.414l-2,2C15.512,51.899,15.256,51.997,15,51.997z"/>
		</g>
		<g>
			<path d="M24.03,58.997c-0.553,0-1.005-0.447-1.005-1s0.442-1,0.994-1h0.011c0.552,0,1,0.447,1,1S24.582,58.997,24.03,58.997z"/>
		</g>
		<g>
			<path d="M27,62.997H1c-0.553,0-1-0.447-1-1v-8c0-0.553,0.447-1,1-1h26c0.553,0,1,0.447,1,1v8C28,62.55,27.553,62.997,27,62.997z
				 M2,60.997h24v-6H2V60.997z"/>
		</g>
		<g>
			<path d="M5,59.997c-0.256,0-0.512-0.098-0.707-0.293c-0.391-0.391-0.391-1.023,0-1.414l2-2c0.391-0.391,1.023-0.391,1.414,0
				s0.391,1.023,0,1.414l-2,2C5.512,59.899,5.256,59.997,5,59.997z"/>
		</g>
		<g>
			<path d="M10,59.997c-0.256,0-0.512-0.098-0.707-0.293c-0.391-0.391-0.391-1.023,0-1.414l2-2c0.391-0.391,1.023-0.391,1.414,0
				s0.391,1.023,0,1.414l-2,2C10.512,59.899,10.256,59.997,10,59.997z"/>
		</g>
		<g>
			<path d="M15,59.997c-0.256,0-0.512-0.098-0.707-0.293c-0.391-0.391-0.391-1.023,0-1.414l2-2c0.391-0.391,1.023-0.391,1.414,0
				s0.391,1.023,0,1.414l-2,2C15.512,59.899,15.256,59.997,15,59.997z"/>
		</g>
		<g>
			<path d="M0.999,38.997c-0.209,0-0.419-0.065-0.599-0.2c-0.442-0.331-0.532-0.958-0.2-1.399l3-4
				c0.331-0.443,0.958-0.531,1.399-0.2c0.442,0.331,0.532,0.958,0.2,1.399l-3,4C1.604,38.859,1.304,38.997,0.999,38.997z"/>
		</g>
		<g>
			<path d="M27.001,38.997c-0.305,0-0.604-0.138-0.801-0.4l-3-4c-0.332-0.441-0.242-1.068,0.2-1.399
				c0.44-0.332,1.068-0.244,1.399,0.2l3,4c0.332,0.441,0.242,1.068-0.2,1.399C27.42,38.932,27.21,38.997,27.001,38.997z"/>
		</g>
		<g>
			<path d="M24,34.997H4c-0.553,0-1-0.447-1-1s0.447-1,1-1h20c0.553,0,1,0.447,1,1S24.553,34.997,24,34.997z"/>
		</g>
		<g>
			<path d="M60.03,42.997c-0.553,0-1.005-0.447-1.005-1s0.442-1,0.994-1h0.011c0.552,0,1,0.447,1,1S60.582,42.997,60.03,42.997z"/>
		</g>
		<g>
			<path d="M63,46.997H37c-0.553,0-1-0.447-1-1v-8c0-0.553,0.447-1,1-1h26c0.553,0,1,0.447,1,1v8C64,46.55,63.553,46.997,63,46.997z
				 M38,44.997h24v-6H38V44.997z"/>
		</g>
		<g>
			<path d="M41,43.997c-0.256,0-0.512-0.098-0.707-0.293c-0.391-0.391-0.391-1.023,0-1.414l2-2c0.391-0.391,1.023-0.391,1.414,0
				s0.391,1.023,0,1.414l-2,2C41.512,43.899,41.256,43.997,41,43.997z"/>
		</g>
		<g>
			<path d="M46,43.997c-0.256,0-0.512-0.098-0.707-0.293c-0.391-0.391-0.391-1.023,0-1.414l2-2c0.391-0.391,1.023-0.391,1.414,0
				s0.391,1.023,0,1.414l-2,2C46.512,43.899,46.256,43.997,46,43.997z"/>
		</g>
		<g>
			<path d="M51,43.997c-0.256,0-0.512-0.098-0.707-0.293c-0.391-0.391-0.391-1.023,0-1.414l2-2c0.391-0.391,1.023-0.391,1.414,0
				s0.391,1.023,0,1.414l-2,2C51.512,43.899,51.256,43.997,51,43.997z"/>
		</g>
		<g>
			<path d="M60.03,50.997c-0.553,0-1.005-0.447-1.005-1s0.442-1,0.994-1h0.011c0.552,0,1,0.447,1,1S60.582,50.997,60.03,50.997z"/>
		</g>
		<g>
			<path d="M63,54.997H37c-0.553,0-1-0.447-1-1v-8c0-0.553,0.447-1,1-1h26c0.553,0,1,0.447,1,1v8C64,54.55,63.553,54.997,63,54.997z
				 M38,52.997h24v-6H38V52.997z"/>
		</g>
		<g>
			<path d="M41,51.997c-0.256,0-0.512-0.098-0.707-0.293c-0.391-0.391-0.391-1.023,0-1.414l2-2c0.391-0.391,1.023-0.391,1.414,0
				s0.391,1.023,0,1.414l-2,2C41.512,51.899,41.256,51.997,41,51.997z"/>
		</g>
		<g>
			<path d="M46,51.997c-0.256,0-0.512-0.098-0.707-0.293c-0.391-0.391-0.391-1.023,0-1.414l2-2c0.391-0.391,1.023-0.391,1.414,0
				s0.391,1.023,0,1.414l-2,2C46.512,51.899,46.256,51.997,46,51.997z"/>
		</g>
		<g>
			<path d="M51,51.997c-0.256,0-0.512-0.098-0.707-0.293c-0.391-0.391-0.391-1.023,0-1.414l2-2c0.391-0.391,1.023-0.391,1.414,0
				s0.391,1.023,0,1.414l-2,2C51.512,51.899,51.256,51.997,51,51.997z"/>
		</g>
		<g>
			<path d="M60.03,58.997c-0.553,0-1.005-0.447-1.005-1s0.442-1,0.994-1h0.011c0.552,0,1,0.447,1,1S60.582,58.997,60.03,58.997z"/>
		</g>
		<g>
			<path d="M63,62.997H37c-0.553,0-1-0.447-1-1v-8c0-0.553,0.447-1,1-1h26c0.553,0,1,0.447,1,1v8C64,62.55,63.553,62.997,63,62.997z
				 M38,60.997h24v-6H38V60.997z"/>
		</g>
		<g>
			<path d="M41,59.997c-0.256,0-0.512-0.098-0.707-0.293c-0.391-0.391-0.391-1.023,0-1.414l2-2c0.391-0.391,1.023-0.391,1.414,0
				s0.391,1.023,0,1.414l-2,2C41.512,59.899,41.256,59.997,41,59.997z"/>
		</g>
		<g>
			<path d="M46,59.997c-0.256,0-0.512-0.098-0.707-0.293c-0.391-0.391-0.391-1.023,0-1.414l2-2c0.391-0.391,1.023-0.391,1.414,0
				s0.391,1.023,0,1.414l-2,2C46.512,59.899,46.256,59.997,46,59.997z"/>
		</g>
		<g>
			<path d="M51,59.997c-0.256,0-0.512-0.098-0.707-0.293c-0.391-0.391-0.391-1.023,0-1.414l2-2c0.391-0.391,1.023-0.391,1.414,0
				s0.391,1.023,0,1.414l-2,2C51.512,59.899,51.256,59.997,51,59.997z"/>
		</g>
		<g>
			<path d="M36.999,38.997c-0.209,0-0.419-0.065-0.599-0.2c-0.442-0.331-0.532-0.958-0.2-1.399l3-4
				c0.332-0.443,0.958-0.531,1.399-0.2c0.442,0.331,0.532,0.958,0.2,1.399l-3,4C37.604,38.859,37.304,38.997,36.999,38.997z"/>
		</g>
		<g>
			<path d="M63.001,38.997c-0.305,0-0.604-0.138-0.801-0.4l-3-4c-0.332-0.441-0.242-1.068,0.2-1.399
				c0.44-0.332,1.067-0.244,1.399,0.2l3,4c0.332,0.441,0.242,1.068-0.2,1.399C63.42,38.932,63.21,38.997,63.001,38.997z"/>
		</g>
		<g>
			<path d="M60,34.997H40c-0.553,0-1-0.447-1-1s0.447-1,1-1h20c0.553,0,1,0.447,1,1S60.553,34.997,60,34.997z"/>
		</g>
		<g>
			<path d="M14.023,30.997c-0.553,0-1-0.447-1-1V13.003c0-0.553,0.447-1,1-1s1,0.447,1,1v16.994
				C15.023,30.55,14.576,30.997,14.023,30.997z"/>
		</g>
		<g>
			<path d="M17,14.003h-3c-0.553,0-1-0.447-1-1s0.447-1,1-1h3c0.553,0,1,0.447,1,1S17.553,14.003,17,14.003z"/>
		</g>
		<g>
			<path d="M50,30.997c-0.553,0-1-0.447-1-1V13.003c0-0.553,0.447-1,1-1s1,0.447,1,1v16.994C51,30.55,50.553,30.997,50,30.997z"/>
		</g>
		<g>
			<path d="M50,14.003h-3c-0.553,0-1-0.447-1-1s0.447-1,1-1h3c0.553,0,1,0.447,1,1S50.553,14.003,50,14.003z"/>
		</g>
	</g>
</g>
<g id="_x31_8_key_x2C__bitcoin_x2C__coin_x2C__block_x2C__chain_x2C__cryptocurrency">
</g>
<g id="_x31_7_pool_x2C__network_x2C__bitcoin_x2C__coin_x2C__block_x2C__chain_x2C__cryptocurrency">
</g>
<g id="_x31_6_mining_x2C__shovel_x2C__mine_x2C__coin_x2C__block_x2C__chain_x2C__cryptocurrency">
</g>
<g id="_x31_5_purse_x2C__bitcoin_x2C__coin_x2C__block_x2C__chain_x2C__cryptocurrency">
</g>
<g id="_x31_4_safe_x2C__protection_x2C__block_x2C__chain_x2C__cryptocurrency_x2C__program">
</g>
<g id="_x31_3_mining_x2C__funnel_x2C__satoshi_x2C__bitcoin_x2C__coin_x2C__cryptocurrency">
</g>
<g id="_x31_2_chart_x2C__bitcoin_x2C__coin_x2C__block_x2C__chain_x2C__cryptocurrency">
</g>
<g id="_x31_1_computer_x2C__monitor_x2C__bitcoin_x2C__coin_x2C__block_x2C__chain_x2C__cryptocurrency">
</g>
<g id="_x31_0_mining_x2C__pickaxe_x2C__stone_x2C__mine_x2C___bitcoin_x2C__coin_x2C__cryptocurrency">
</g>
<g id="_x39__miner_x2C__mining_x2C__computer_x2C__pickaxe_x2C__program_x2C__cryptocurrency">
</g>
<g id="_x38__video_card_x2C__mining_x2C__bitcoin_x2C__coin_x2C__block_x2C__chain_x2C__cryptocurrency">
</g>
<g id="_x37__exchanger_x2C__site_x2C__bitcoin_x2C__coin_x2C__block_x2C__chain_x2C__cryptocurrency">
</g>
<g id="_x36__shop_x2C__product_x2C__bitcoin_x2C__coin_x2C__block_x2C__chain_x2C__cryptocurrency">
</g>
<g id="_x35__bitcoin_x2C__coin_x2C__exchange_x2C__block_x2C__chain_x2C__cryptocurrency_x2C__product">
</g>
<g id="_x34__bitcoin_x2C__coin_x2C__exchange_x2C__block_x2C__chain_x2C__cryptocurrency">
</g>
<g id="_x33__bitcoin_x2C__coin_x2C__exchange_x2C__block_x2C__chain_x2C__cryptocurrency">
</g>
<g id="_x32__brain_x2C__smart_x2C__coin_x2C__block_x2C__chain_x2C__cryptocurrency">
</g>
<g id="_x31__bitcoin_x2C__coin_x2C__block_x2C__chain_x2C__cryptocurrency">
</g>
</svg>
