<?xml version="1.0" encoding="utf-8"?>
<!-- Generator: Adobe Illustrator 16.0.0, SVG Export Plug-In . SVG Version: 6.00 Build 0)  -->
<!DOCTYPE svg PUBLIC "-//W3C//DTD SVG 1.1//EN" "http://www.w3.org/Graphics/SVG/1.1/DTD/svg11.dtd">
<svg version="1.1" xmlns="http://www.w3.org/2000/svg" xmlns:xlink="http://www.w3.org/1999/xlink" x="0px" y="0px" width="64px"
	 height="64px" viewBox="0 0 64 64" enable-background="new 0 0 64 64" xml:space="preserve">
<g id="_x35_0_code_x2C__programming_x2C__program_x2C__bitcoin_x2C__block_x2C__chain_x2C__cryptocurrency">
</g>
<g id="_x34_9_balloon_x2C__takeoff_x2C__bitcoin_x2C__coin_x2C__block_x2C__chain_x2C__cryptocurrency">
</g>
<g id="_x34_8_video_card_x2C__mining_x2C__farm_x2C__computer_x2C__block_x2C__chain_x2C__cryptocurrency">
</g>
<g id="_x34_7_money_box_x2C__saving_x2C__bitcoin_x2C__coin_x2C__block_x2C__chain_x2C__cryptocurrency">
</g>
<g id="_x34_6_portfolio_x2C__finance_x2C__bank_note_x2C__bitcoin_x2C__coin_x2C__cryptocurrency">
</g>
<g id="_x34_5_tap_x2C__water_x2C__bitcoin_x2C__coin_x2C__block_x2C__chain_x2C__cryptocurrency">
</g>
<g id="_x34_4_phone_x2C__bitcoin_x2C__coin_x2C__block_x2C__chain_x2C__cryptocurrency">
</g>
<g id="_x34_3_rocket_x2C__sun_x2C__bitcoin_x2C__coin_x2C__block_x2C__chain_x2C__cryptocurrency">
</g>
<g id="_x34_2_transfer_x2C__network_x2C__bitcoin_x2C__coin_x2C__block_x2C__chain_x2C__cryptocurrency">
</g>
<g id="_x34_1_scales_x2C__comparison_x2C__bitcoin_x2C__coin_x2C__block_x2C__chain_x2C__cryptocurrency">
</g>
<g id="_x34_0_calculator_x2C__calculating_x2C__bitcoin_x2C__coin_x2C__block_x2C__chain_x2C__cryptocurrency">
</g>
<g id="_x33_9_start-up_x2C__plant_x2C__hand_x2C__bitcoin_x2C__coin_x2C__cryptocurrency">
</g>
<g id="_x33_8_idea_x2C__bulb_x2C__bitcoin_x2C__coin_x2C__block_x2C__chain_x2C__cryptocurrency">
</g>
<g id="_x33_7_users_x2C__user_x2C__co-founder_x2C__bitcoin_x2C__coin_x2C__cryptocurrency">
</g>
<g id="_x33_6_safe_x2C__protection_x2C__bitcoin_x2C__coin_x2C__block_x2C__chain_x2C__cryptocurrency">
</g>
<g id="_x33_5_flash_drive_x2C__key_x2C__block_x2C__chain_x2C__cryptocurrency">
</g>
<g id="_x33_4_cloud_x2C__mining_x2C__bitcoin_x2C__coin_x2C__block_x2C__chain_x2C__cryptocurrency">
</g>
<g id="_x33_3_start_up_x2C__plant_x2C__bitcoin_x2C__coin_x2C__block_x2C__chain_x2C__cryptocurrency">
</g>
<g id="_x33_2_planet_x2C__bitcoin_x2C__coin_x2C__block_x2C__chain_x2C__cryptocurrency">
</g>
<g id="_x33_1_payment_x2C__hand_x2C__bitcoin_x2C__coin_x2C__block_x2C__chain_x2C__cryptocurrency">
</g>
<g id="_x33_0_user_x2C__laptop_x2C__bitcoin_x2C__coin_x2C__block_x2C__chain_x2C__cryptocurrency">
</g>
<g id="_x32_9_thief_x2C__bag_x2C__bitcoin_x2C__coin_x2C__block_x2C__chain_x2C__cryptocurrency">
</g>
<g id="_x32_8_code_x2C__programming_x2C__program_x2C__bitcoin_x2C__coin_x2C__cryptocurrency">
</g>
<g id="_x32_7_bitcoin_x2C__coin_x2C__block_x2C__chain_x2C__cryptocurrency">
</g>
<g id="_x32_6_shield_x2C__protection_x2C__bitcoin_x2C__coin_x2C__block_x2C__chain_x2C__cryptocurrency">
</g>
<g id="_x32_5_bug_x2C__laptop_x2C__miner_x2C__program_x2C__block_x2C__chain_x2C__cryptocurrency">
</g>
<g id="_x32_4_computer_x2C__monitor_x2C__bitcoin_x2C__coin_x2C__block_x2C__chain_x2C__cryptocurrency">
</g>
<g id="_x32_3_network_x2C__idea_x2C__bitcoin_x2C__coin_x2C__block_x2C__chain_x2C__cryptocurrency">
</g>
<g id="_x32_2_block_x2C__chain_x2C__cryptocurrency_x2C__technology_x2C__future">
</g>
<g id="_x32_1_smart_contact_x2C__contact_x2C__block_x2C__chain_x2C__cryptocurrency">
</g>
<g id="_x32_0_lock_x2C__safe_x2C__protection_x2C__block_x2C__chain_x2C__cryptocurrency_x2C__program">
</g>
<g id="_x31_9_server_x2C__data_x2C__bitcoin_x2C__coin_x2C__block_x2C__chain_x2C__cryptocurrency">
</g>
<g id="_x31_8_key_x2C__bitcoin_x2C__coin_x2C__block_x2C__chain_x2C__cryptocurrency">
</g>
<g id="_x31_7_pool_x2C__network_x2C__bitcoin_x2C__coin_x2C__block_x2C__chain_x2C__cryptocurrency">
</g>
<g id="_x31_6_mining_x2C__shovel_x2C__mine_x2C__coin_x2C__block_x2C__chain_x2C__cryptocurrency">
	<g>
		<g>
			<polygon fill="#DA4453" points="37.5,1 37.5,4 34.5,4 29.5,4 26.5,4 26.5,1 			"/>
		</g>
		<g>
			<path fill="#CCD1D9" d="M37.5,10.01c0.01,1.101-0.89,2-2,2h-2h-3h-2c-1.11,0-2-0.899-2-2V4h3v5h5V4h3V10.01z"/>
		</g>
		<g>
			<rect x="55.5" y="59" fill="#EDAB37" width="5" height="4"/>
		</g>
		<g>
			<rect x="48.5" y="59" fill="#F6BB42" width="7" height="4"/>
		</g>
		<g>
			<rect x="45.5" y="52" fill="#EDAB37" width="5" height="4"/>
		</g>
		<g>
			<rect x="43.5" y="59" fill="#FFCE54" width="5" height="4"/>
		</g>
		<g>
			<rect x="38.5" y="52" fill="#F6BB42" width="7" height="4"/>
		</g>
		<g>
			<rect x="35.5" y="59" fill="#EDAB37" width="5" height="4"/>
		</g>
		<g>
			<rect x="35.5" y="45" fill="#EDAB37" width="5" height="4"/>
		</g>
		<g>
			<rect x="33.5" y="52" fill="#FFCE54" width="5" height="4"/>
		</g>
		<g>
			<path fill="#CCD1D9" d="M38.5,30v4c0,8-6.5,8-6.5,8s-6.5,0-6.5-8v-4h5h3H38.5z"/>
		</g>
		<g>
			<path fill="#AAB2BD" d="M34.5,30v4c0,5.052-2.59,6.91-4.5,7.597c1.115,0.4,2,0.403,2,0.403s6.5,0,6.5-8v-4H34.5z"/>
		</g>
		<g>
			<rect x="28.5" y="59" fill="#F6BB42" width="7" height="4"/>
		</g>
		<g>
			<rect x="28.5" y="45" fill="#F6BB42" width="7" height="4"/>
		</g>
		<g>
			<rect x="30.5" y="12.01" fill="#965353" width="3" height="17.99"/>
		</g>
		<g>
			<rect x="25.5" y="52" fill="#EDAB37" width="5" height="4"/>
		</g>
		<g>
			<rect x="23.5" y="59" fill="#FFCE54" width="5" height="4"/>
		</g>
		<g>
			<rect x="23.5" y="45" fill="#FFCE54" width="5" height="4"/>
		</g>
		<g>
			<rect x="18.5" y="52" fill="#F6BB42" width="7" height="4"/>
		</g>
		<g>
			<rect x="15.5" y="59" fill="#EDAB37" width="5" height="4"/>
		</g>
		<g>
			<rect x="13.5" y="52" fill="#FFCE54" width="5" height="4"/>
		</g>
		<g>
			<rect x="8.5" y="59" fill="#F6BB42" width="7" height="4"/>
		</g>
		<g>
			<rect x="3.5" y="59" fill="#FFCE54" width="5" height="4"/>
		</g>
	</g>
	<g>
		<g>
			<g>
				<path d="M60.5,63.997h-17c-0.553,0-1-0.447-1-1v-3.998c0-0.553,0.447-1,1-1h17c0.553,0,1,0.447,1,1v3.998
					C61.5,63.55,61.053,63.997,60.5,63.997z M44.5,61.997h15v-1.998h-15V61.997z"/>
			</g>
			<g>
				<path d="M55.5,63.997c-0.553,0-1-0.447-1-1v-3.998c0-0.553,0.447-1,1-1s1,0.447,1,1v3.998C56.5,63.55,56.053,63.997,55.5,63.997
					z"/>
			</g>
			<g>
				<path d="M48.5,63.997c-0.553,0-1-0.447-1-1v-4c0-0.553,0.447-1,1-1s1,0.447,1,1v4C49.5,63.55,49.053,63.997,48.5,63.997z"/>
			</g>
		</g>
		<g>
			<g>
				<path d="M40.5,63.997h-17c-0.553,0-1-0.447-1-1v-3.998c0-0.553,0.447-1,1-1h17c0.553,0,1,0.447,1,1v3.998
					C41.5,63.55,41.053,63.997,40.5,63.997z M24.5,61.997h15v-1.998h-15V61.997z"/>
			</g>
			<g>
				<path d="M35.5,63.997c-0.553,0-1-0.447-1-1v-3.998c0-0.553,0.447-1,1-1s1,0.447,1,1v3.998C36.5,63.55,36.053,63.997,35.5,63.997
					z"/>
			</g>
			<g>
				<path d="M28.5,63.997c-0.553,0-1-0.447-1-1v-4c0-0.553,0.447-1,1-1s1,0.447,1,1v4C29.5,63.55,29.053,63.997,28.5,63.997z"/>
			</g>
		</g>
		<g>
			<g>
				<path d="M20.5,63.997h-17c-0.553,0-1-0.447-1-1v-3.998c0-0.553,0.447-1,1-1h17c0.553,0,1,0.447,1,1v3.998
					C21.5,63.55,21.053,63.997,20.5,63.997z M4.5,61.997h15v-1.998h-15V61.997z"/>
			</g>
			<g>
				<path d="M15.5,63.997c-0.553,0-1-0.447-1-1v-3.998c0-0.553,0.447-1,1-1s1,0.447,1,1v3.998C16.5,63.55,16.053,63.997,15.5,63.997
					z"/>
			</g>
			<g>
				<path d="M8.5,63.997c-0.553,0-1-0.447-1-1v-4c0-0.553,0.447-1,1-1s1,0.447,1,1v4C9.5,63.55,9.053,63.997,8.5,63.997z"/>
			</g>
		</g>
		<g>
			<g>
				<path d="M30.5,56.997h-17c-0.553,0-1-0.447-1-1v-3.998c0-0.553,0.447-1,1-1h17c0.553,0,1,0.447,1,1v3.998
					C31.5,56.55,31.053,56.997,30.5,56.997z M14.5,54.997h15v-1.998h-15V54.997z"/>
			</g>
			<g>
				<path d="M25.5,56.997c-0.553,0-1-0.447-1-1v-3.998c0-0.553,0.447-1,1-1s1,0.447,1,1v3.998C26.5,56.55,26.053,56.997,25.5,56.997
					z"/>
			</g>
			<g>
				<path d="M18.5,56.997c-0.553,0-1-0.447-1-1v-4c0-0.553,0.447-1,1-1s1,0.447,1,1v4C19.5,56.55,19.053,56.997,18.5,56.997z"/>
			</g>
		</g>
		<g>
			<g>
				<path d="M40.5,49.997h-17c-0.553,0-1-0.447-1-1v-3.998c0-0.553,0.447-1,1-1h17c0.553,0,1,0.447,1,1v3.998
					C41.5,49.55,41.053,49.997,40.5,49.997z M24.5,47.997h15v-1.998h-15V47.997z"/>
			</g>
			<g>
				<path d="M35.5,49.997c-0.553,0-1-0.447-1-1v-3.998c0-0.553,0.447-1,1-1s1,0.447,1,1v3.998C36.5,49.55,36.053,49.997,35.5,49.997
					z"/>
			</g>
			<g>
				<path d="M28.5,49.997c-0.553,0-1-0.447-1-1v-4c0-0.553,0.447-1,1-1s1,0.447,1,1v4C29.5,49.55,29.053,49.997,28.5,49.997z"/>
			</g>
		</g>
		<g>
			<g>
				<path d="M50.5,56.997h-17c-0.553,0-1-0.447-1-1v-3.998c0-0.553,0.447-1,1-1h17c0.553,0,1,0.447,1,1v3.998
					C51.5,56.55,51.053,56.997,50.5,56.997z M34.5,54.997h15v-1.998h-15V54.997z"/>
			</g>
			<g>
				<path d="M45.5,56.997c-0.553,0-1-0.447-1-1v-3.998c0-0.553,0.447-1,1-1s1,0.447,1,1v3.998C46.5,56.55,46.053,56.997,45.5,56.997
					z"/>
			</g>
			<g>
				<path d="M38.5,56.997c-0.553,0-1-0.447-1-1v-4c0-0.553,0.447-1,1-1s1,0.447,1,1v4C39.5,56.55,39.053,56.997,38.5,56.997z"/>
			</g>
		</g>
		<g>
			<g>
				<g>
					<path d="M30.501,31.004c-0.553,0-1-0.447-1-1V12.013c0-0.553,0.447-1,1-1s1,0.447,1,1v17.991
						C31.501,30.557,31.054,31.004,30.501,31.004z"/>
				</g>
				<g>
					<path d="M33.5,31.004L33.5,31.004c-0.553,0-1-0.448-1-1l0.001-17.99c0-0.553,0.448-1,1-1l0,0c0.553,0,1,0.448,1,1L34.5,30.004
						C34.5,30.557,34.052,31.004,33.5,31.004z"/>
				</g>
				<g>
					<path d="M35.507,13.007c-0.001,0-0.002,0-0.003,0c-0.552,0-0.999-0.448-0.999-1.001c0-0.552,0.448-0.999,1-0.999h0.001h0.001
						c0.267,0,0.518-0.104,0.706-0.292s0.292-0.439,0.292-0.707c0-0.553,0.447-1.001,0.999-1.001h0.001c0.552,0,1,0.447,1,0.999
						c0.001,0.803-0.311,1.557-0.878,2.123C37.061,12.695,36.308,13.007,35.507,13.007z"/>
				</g>
				<g>
					<path d="M28.497,13.007c-1.65,0-2.996-1.345-2.999-2.998c-0.001-0.554,0.441-1.014,1-1.002c0.552,0,0.999,0.446,1,0.998
						c0.001,0.553,0.449,1.002,0.999,1.002c0.553,0,1,0.447,1,1S29.05,13.007,28.497,13.007z"/>
				</g>
				<g>
					<path d="M28.501,13.013c-0.552,0-1-0.447-1-0.999c0-0.553,0.447-1.001,0.999-1.001l7.004-0.006h0.001c0.552,0,1,0.447,1,0.999
						c0,0.553-0.447,1.001-0.999,1.001L28.501,13.013L28.501,13.013z"/>
				</g>
				<g>
					<path d="M26.498,11.007L26.498,11.007c-0.553,0-1-0.448-1-1L25.5,1.003c0-0.553,0.448-1,1-1l0,0c0.553,0,1,0.448,1,1
						l-0.002,9.004C27.498,10.56,27.05,11.007,26.498,11.007z"/>
				</g>
				<g>
					<path d="M37.505,2.003H26.5c-0.553,0-1-0.447-1-1s0.447-1,1-1h11.005c0.553,0,1,0.447,1,1S38.058,2.003,37.505,2.003z"/>
				</g>
				<g>
					<path d="M37.505,11.007c-0.553,0-1-0.447-1-1V1.003c0-0.553,0.447-1,1-1s1,0.447,1,1v9.004
						C38.505,10.56,38.058,11.007,37.505,11.007z"/>
				</g>
				<g>
					<path d="M37.505,5.003H26.5c-0.553,0-1-0.447-1-1s0.447-1,1-1h11.005c0.553,0,1,0.447,1,1S38.058,5.003,37.505,5.003z"/>
				</g>
				<g>
					<path d="M34.501,10.003c-0.552,0-1-0.447-1-0.999l-0.003-5c0-0.553,0.447-1.001,0.999-1.001c0.001,0,0.001,0,0.001,0
						c0.552,0,1,0.447,1,0.999l0.003,5C35.501,9.555,35.054,10.003,34.501,10.003C34.501,10.003,34.501,10.003,34.501,10.003z"/>
				</g>
				<g>
					<path d="M34.501,10.003h-5.002c-0.553,0-1-0.447-1-1s0.447-1,1-1h5.002c0.553,0,1,0.447,1,1S35.054,10.003,34.501,10.003z"/>
				</g>
				<g>
					<path d="M29.499,10.003c-0.553,0-1-0.447-1-1v-5c0-0.553,0.447-1,1-1s1,0.447,1,1v5C30.499,9.556,30.052,10.003,29.499,10.003z
						"/>
				</g>
				<g>
					<path d="M32,42.997c-0.553,0-1-0.447-1-1c0-0.551,0.445-0.998,0.996-1c0.569-0.006,5.504-0.257,5.504-6.999
						c0-0.553,0.447-1,1-1s1,0.447,1,1C39.5,42.895,32.075,42.997,32,42.997z"/>
				</g>
				<g>
					<path d="M32,42.997c-0.075,0-7.5-0.103-7.5-8.999c0-0.553,0.447-1,1-1s1,0.447,1,1c0,6.92,5.275,6.999,5.5,6.999
						c0.553,0,1,0.447,1,1S32.553,42.997,32,42.997z"/>
				</g>
				<g>
					<path d="M25.5,34.998c-0.553,0-1-0.447-1-1v-4c0-0.553,0.447-1,1-1s1,0.447,1,1v4C26.5,34.551,26.053,34.998,25.5,34.998z"/>
				</g>
				<g>
					<path d="M38.5,34.998L38.5,34.998c-0.553,0-1-0.448-1-1l0.001-4c0-0.553,0.448-1,1-1l0,0c0.553,0,1,0.448,1,1l-0.001,4
						C39.5,34.551,39.052,34.998,38.5,34.998z"/>
				</g>
				<g>
					<path d="M38.501,30.998H25.5c-0.553,0-1-0.447-1-1s0.447-1,1-1h13.001c0.553,0,1,0.447,1,1S39.054,30.998,38.501,30.998z"/>
				</g>
			</g>
		</g>
	</g>
</g>
<g id="_x31_5_purse_x2C__bitcoin_x2C__coin_x2C__block_x2C__chain_x2C__cryptocurrency">
</g>
<g id="_x31_4_safe_x2C__protection_x2C__block_x2C__chain_x2C__cryptocurrency_x2C__program">
</g>
<g id="_x31_3_mining_x2C__funnel_x2C__satoshi_x2C__bitcoin_x2C__coin_x2C__cryptocurrency">
</g>
<g id="_x31_2_chart_x2C__bitcoin_x2C__coin_x2C__block_x2C__chain_x2C__cryptocurrency">
</g>
<g id="_x31_1_computer_x2C__monitor_x2C__bitcoin_x2C__coin_x2C__block_x2C__chain_x2C__cryptocurrency">
</g>
<g id="_x31_0_mining_x2C__pickaxe_x2C__stone_x2C__mine_x2C___bitcoin_x2C__coin_x2C__cryptocurrency">
</g>
<g id="_x39__miner_x2C__mining_x2C__computer_x2C__pickaxe_x2C__program_x2C__cryptocurrency">
</g>
<g id="_x38__video_card_x2C__mining_x2C__bitcoin_x2C__coin_x2C__block_x2C__chain_x2C__cryptocurrency">
</g>
<g id="_x37__exchanger_x2C__site_x2C__bitcoin_x2C__coin_x2C__block_x2C__chain_x2C__cryptocurrency">
</g>
<g id="_x36__shop_x2C__product_x2C__bitcoin_x2C__coin_x2C__block_x2C__chain_x2C__cryptocurrency">
</g>
<g id="_x35__bitcoin_x2C__coin_x2C__exchange_x2C__block_x2C__chain_x2C__cryptocurrency_x2C__product">
</g>
<g id="_x34__bitcoin_x2C__coin_x2C__exchange_x2C__block_x2C__chain_x2C__cryptocurrency">
</g>
<g id="_x33__bitcoin_x2C__coin_x2C__exchange_x2C__block_x2C__chain_x2C__cryptocurrency">
</g>
<g id="_x32__brain_x2C__smart_x2C__coin_x2C__block_x2C__chain_x2C__cryptocurrency">
</g>
<g id="_x31__bitcoin_x2C__coin_x2C__block_x2C__chain_x2C__cryptocurrency">
</g>
</svg>
