<svg xmlns="http://www.w3.org/2000/svg" x="0" y="0" xml:space="preserve" viewBox="0 0 64 64"><path fill="#353B44" d="M46.5 59.99H54.5V62.99H46.5z"/><path fill="#353B44" d="M9.5 59.99H17.5V62.99H9.5z"/><path fill="#EDAB37" d="M33 6.01c.83 0 1.5.67 1.5 1.5 0 .82-.67 1.5-1.5 1.5h-2.5v-3H33zM33.5 9.01a2 2 0 0 1 2 2c0 1.1-.9 2-2 2h-3v-4h3z"/><path fill="#FFCE54" d="M33.5 13.01c1.1 0 2-.9 2-2a2 2 0 0 0-2-2H33c.83 0 1.5-.68 1.5-1.5 0-.83-.67-1.5-1.5-1.5h-2.5v7h3zm7-3.5c0 4.689-3.811 8.5-8.5 8.5a8.5 8.5 0 0 1-8.5-8.5c0-4.699 3.8-8.5 8.5-8.5a8.5 8.5 0 0 1 8.5 8.5z"/><path fill="#F6BB42" d="M32 1.01a8.58 8.58 0 0 0-2.002.246c3.726.9 6.502 4.246 6.502 8.254 0 4-2.776 7.352-6.502 8.254A8.475 8.475 0 0 0 32 18.01c4.689 0 8.5-3.811 8.5-8.5a8.5 8.5 0 0 0-8.5-8.5z"/><path fill="#EDAB37" d="M32 18.01c4.689 0 8.5-3.811 8.5-8.5v4c0 1.65-.471 3.189-1.29 4.5a8.573 8.573 0 0 1-3.21 3h-8.011a8.535 8.535 0 0 1-3.199-3 8.448 8.448 0 0 1-1.29-4.5v-4a8.5 8.5 0 0 0 8.5 8.5z"/><path fill="#434A54" d="M54.5 46.99H58.5V50.99H54.5z"/><path fill="#434A54" d="M54.5 33.01H58.5V37.01H54.5z"/><path fill="#353B44" d="M54.5 37.01H58.5V46.989999999999995H54.5z"/><path fill="#AAB2BD" d="M22.5 34.01c4.42 0 8 3.58 8 8s-3.58 8-8 8-8-3.58-8-8 3.58-8 8-8zm0 11.98a4 4 0 1 0 0-8 3.993 3.993 0 0 0-4 4c0 1.109.45 2.1 1.17 2.82v.01c.72.719 1.72 1.17 2.83 1.17z"/><path fill="#CCD1D9" d="M22.5 37.99a4 4 0 1 1 0 8c-1.11 0-2.11-.451-2.83-1.17v-.01c-.72-.721-1.17-1.711-1.17-2.82a3.993 3.993 0 0 1 4-4z"/><path fill="#656D78" d="M54.5 50.99v5h-45v-28h45v23zm-24-8.98c0-4.42-3.58-8-8-8s-8 3.58-8 8 3.58 8 8 8 8-3.58 8-8z"/><path fill="#292E35" d="M39.21 18.01H52.5l6 6h-53l6-6h13.29a8.535 8.535 0 0 0 3.199 3H36a8.573 8.573 0 0 0 3.21-3z"/><path fill="#434A54" d="M58.5 50.99 58.5 59.99 54.5 59.99 46.5 59.99 17.5 59.99 9.5 59.99 5.5 59.99 5.5 24.01 58.5 24.01 58.5 33.01 54.5 33.01 54.5 27.99 9.5 27.99 9.5 55.99 54.5 55.99 54.5 50.99z"/><path fill="#353B44" d="M54.5 24.01H58.5V33.010000000000005H54.5z"/><path fill="#353B44" d="M54.5 50.99H58.5V59.99H54.5z"/><g><path d="M33 10.009a1 1 0 1 1 0-2c.275 0 .5-.225.5-.5s-.225-.5-.5-.5a1 1 0 1 1 0-2c1.379 0 2.5 1.121 2.5 2.5s-1.121 2.5-2.5 2.5z"/><path d="M33.5 14.009a1 1 0 1 1 0-2 1 1 0 0 0 0-2 1 1 0 1 1 0-2c1.654 0 3 1.346 3 3s-1.346 3-3 3z"/><path d="M33.5 10.009h-3a1 1 0 1 1 0-2h3a1 1 0 1 1 0 2zM33.5 14.009h-4a1 1 0 1 1 0-2h4a1 1 0 1 1 0 2zM33 7.009h-3.5a1 1 0 1 1 0-2H33a1 1 0 1 1 0 2z"/><path d="M30.5 14.009a1 1 0 0 1-1-1v-7a1 1 0 1 1 2 0v7a1 1 0 0 1-1 1z"/><path d="M31.5 7.009a1 1 0 0 1-1-1v-1a1 1 0 1 1 2 0v1a1 1 0 0 1-1 1zM31.5 15.009a1 1 0 0 1-1-1v-1a1 1 0 1 1 2 0v1a1 1 0 0 1-1 1z"/><g><path d="M32 19.009c-5.238 0-9.5-4.262-9.5-9.5s4.262-9.5 9.5-9.5 9.5 4.262 9.5 9.5-4.262 9.5-9.5 9.5zm0-17c-4.136 0-7.5 3.364-7.5 7.5s3.364 7.5 7.5 7.5 7.5-3.364 7.5-7.5-3.364-7.5-7.5-7.5z"/></g><g><path d="M27.991 22.008c-.159 0-.32-.038-.471-.118a9.492 9.492 0 0 1-5.021-8.381 1 1 0 1 1 2 0 7.494 7.494 0 0 0 3.964 6.617 1 1 0 0 1-.472 1.882z"/></g><g><path d="M36.005 22.009a1 1 0 0 1-.473-1.882 7.497 7.497 0 0 0 3.968-6.618 1 1 0 1 1 2 0 9.492 9.492 0 0 1-5.024 8.382c-.151.08-.312.118-.471.118z"/></g><g><path d="M23.5 14.509a1 1 0 0 1-1-1v-4a1 1 0 1 1 2 0v4a1 1 0 0 1-1 1z"/></g><g><path d="M40.5 14.509a1 1 0 0 1-1-1v-4a1 1 0 1 1 2 0v4a1 1 0 0 1-1 1z"/></g><g><path d="M58.5 60.991h-53a1 1 0 0 1-1-1V24.009a1 1 0 0 1 1-1h53a1 1 0 0 1 1 1v35.982a1 1 0 0 1-1 1zm-52-2h51V25.009h-51v33.982z"/><path d="M9.5 63.991a1 1 0 0 1-1-1v-3a1 1 0 1 1 2 0v3a1 1 0 0 1-1 1z"/><path d="M17.5 63.991h-8a1 1 0 1 1 0-2h8a1 1 0 1 1 0 2z"/><path d="M17.5 63.991a1 1 0 0 1-1-1v-3a1 1 0 1 1 2 0v3a1 1 0 0 1-1 1zM46.5 63.991a1 1 0 0 1-1-1v-3a1 1 0 1 1 2 0v3a1 1 0 0 1-1 1z"/><path d="M54.5 63.991h-8a1 1 0 1 1 0-2h8a1 1 0 1 1 0 2z"/><path d="M54.5 63.991a1 1 0 0 1-1-1v-3a1 1 0 1 1 2 0v3a1 1 0 0 1-1 1zM54.5 56.991h-45a1 1 0 0 1-1-1v-28a1 1 0 0 1 1-1h45a1 1 0 0 1 1 1v28a1 1 0 0 1-1 1zm-44-2h43v-26h-43v26z"/><g><path d="M58.5 34.009h-4a1 1 0 1 1 0-2h4a1 1 0 1 1 0 2z"/></g><g><path d="M58.5 38.009h-4a1 1 0 1 1 0-2h4a1 1 0 1 1 0 2z"/></g><g><path d="M58.5 47.991h-4a1 1 0 1 1 0-2h4a1 1 0 1 1 0 2z"/></g><g><path d="M58.5 51.991h-4a1 1 0 1 1 0-2h4a1 1 0 1 1 0 2z"/></g></g><g><path d="M5.5 25.009a.999.999 0 0 1-.707-1.707l6-6a.999.999 0 1 1 1.414 1.414l-6 6a.997.997 0 0 1-.707.293z"/></g><g><path d="M58.5 25.009a.997.997 0 0 1-.707-.293l-6-6a.999.999 0 1 1 1.414-1.414l6 6a.999.999 0 0 1-.707 1.707z"/></g><g><path d="M24.787 19.009H11.5a1 1 0 1 1 0-2h13.287a1 1 0 1 1 0 2z"/></g><g><path d="M45.5 22.009h-27a1 1 0 1 1 0-2h27a1 1 0 1 1 0 2z"/></g><g><path d="M52.5 19.009H39.212a1 1 0 1 1 0-2H52.5a1 1 0 1 1 0 2z"/></g><g><path d="M22.5 51.01c-4.963 0-9-4.037-9-9s4.037-9 9-9 9 4.037 9 9-4.037 9-9 9zm0-16c-3.859 0-7 3.141-7 7s3.141 7 7 7 7-3.141 7-7-3.141-7-7-7z"/><path d="M22.5 46.991c-2.757 0-5-2.243-5-5s2.243-5 5-5 5 2.243 5 5-2.243 5-5 5zm0-8c-1.654 0-3 1.346-3 3s1.346 3 3 3 3-1.346 3-3-1.346-3-3-3z"/><path d="M22.5 39.01a1 1 0 0 1-1-1v-1.019a1 1 0 1 1 2 0v1.019a1 1 0 0 1-1 1zM22.5 47.991a1 1 0 0 1-1-1v-.981a1 1 0 1 1 2 0v.981a1 1 0 0 1-1 1zM19.685 40.176a.997.997 0 0 1-.707-.293l-.72-.72a.999.999 0 1 1 1.414-1.414l.72.72a.999.999 0 0 1-.707 1.707zM26.035 46.526a.997.997 0 0 1-.707-.293l-.693-.693a.999.999 0 1 1 1.414-1.414l.693.693a.999.999 0 0 1-.707 1.707zM18.519 42.991H17.5a1 1 0 1 1 0-2h1.019a1 1 0 1 1 0 2zM27.5 42.991h-.98a1 1 0 1 1 0-2h.98a1 1 0 1 1 0 2zM18.965 46.526a.999.999 0 0 1-.707-1.707l.721-.721a.999.999 0 1 1 1.414 1.414l-.721.721a.993.993 0 0 1-.707.293zM25.342 40.149a.999.999 0 0 1-.707-1.707l.693-.693a.999.999 0 1 1 1.414 1.414l-.693.693a.993.993 0 0 1-.707.293z"/></g></g></svg>