<svg xmlns="http://www.w3.org/2000/svg" viewBox="0 0 64 64"><path fill="#8CC152" d="M40.98 33a4 4 0 110 8 4 4 0 010-8zM25.98 29h4c0 2.211-1.781 4-4 4v-4zM29.98 45h-4v-4c2.219 0 4 1.79 4 4zM55.98 41v4h-4c0-2.21 1.79-4 4-4zM55.98 29v4c-2.211 0-4-1.789-4-4h4z"/><path fill="#A0D468" d="M55.98 33v8c-2.211 0-4 1.79-4 4h-22c0-2.21-1.781-4-4-4v-8c2.219 0 4-1.789 4-4h22c0 2.211 1.79 4 4 4zm-11 4a4 4 0 10-8 0 4 4 0 008 0z"/><path fill="#ED5565" d="M46.98 13v2h-18v-2c0-1.109.898-2 2-2h14c1.11 0 2 .891 2 2z"/><path fill="#DA4453" d="M44.98 11h-4c1.109 0 2 .891 2 2v2h4v-2c0-1.109-.89-2-2-2z"/><path fill="#844646" d="M19.02 21v32l-6-6v-6.069a8.052 8.052 0 003-3.05v-7.75a7.948 7.948 0 00-3-3.061V15l6 6z"/><path fill="#773E3E" d="M46.98 15h10l6 6H19.02l-6-6h30.96z"/><path fill="#965353" d="M62.98 21v32H19.02V21h43.96zm-7 24V29h-30v16h30z"/><path fill="#844646" d="M58.98 21h4v32h-4z"/><path fill="#EDAB37" d="M9.52 30c.83 0 1.5.671 1.5 1.5 0 .83-.67 1.5-1.5 1.5h-2.5v-3h2.5zM10.02 33c1.1 0 2 .9 2 2 0 1.101-.9 2-2 2h-3v-4h3z"/><path fill="#FFCE54" d="M9.52 33c.83 0 1.5-.67 1.5-1.5 0-.829-.67-1.5-1.5-1.5h-2.5v7h3c1.1 0 2-.899 2-2 0-1.1-.9-2-2-2h-.5zm6.5-2.869v7.75a8.06 8.06 0 01-3 3.05 7.953 7.953 0 01-4 1.069c-4.42 0-8-3.579-8-8 0-4.42 3.58-8 8-8 1.461 0 2.82.381 4 1.07a7.962 7.962 0 013 3.061z"/><path fill="#CCD1D9" d="M28.982 15h2.998v3h-2.998zM43.98 15h2.998v3H43.98z"/><path d="M9.518 34a1 1 0 110-2c.275 0 .5-.225.5-.5s-.225-.5-.5-.5a1 1 0 110-2c1.379 0 2.5 1.121 2.5 2.5s-1.122 2.5-2.5 2.5z"/><path d="M10.018 38a1 1 0 110-2 1 1 0 000-2 1 1 0 110-2c1.654 0 3 1.346 3 3s-1.346 3-3 3z"/><path d="M10.018 34h-3a1 1 0 110-2h3a1 1 0 110 2zM10.018 38h-4a1 1 0 110-2h4a1 1 0 110 2zM9.518 31h-3.5a1 1 0 110-2h3.5a1 1 0 110 2z"/><path d="M7.018 38a1 1 0 01-1-1v-7a1 1 0 112 0v7a1 1 0 01-1 1z"/><path d="M8.018 31a1 1 0 01-1-1v-1a1 1 0 112 0v1a1 1 0 01-1 1zM8.018 39a1 1 0 01-1-1v-1a1 1 0 112 0v1a1 1 0 01-1 1z"/><path d="M9.018 43c-4.963 0-9-4.037-9-9s4.037-9 9-9a9.006 9.006 0 017.875 4.642.999.999 0 11-1.75.968A7.007 7.007 0 009.018 27c-3.859 0-7 3.141-7 7s3.141 7 7 7a7.012 7.012 0 006.126-3.609.999.999 0 111.748.97A9.01 9.01 0 019.018 43zM62.982 54H19.018a1 1 0 01-1-1V21a1 1 0 011-1h43.965a1 1 0 011 1v32a1 1 0 01-1.001 1zm-42.964-2h41.965V22H20.018v30zM56.982 16H13.018a1 1 0 110-2h43.965a1 1 0 11-.001 2z"/><path d="M19.018 54a.997.997 0 01-.707-.293l-6-6a.999.999 0 111.414-1.414l6 6A.999.999 0 0119.018 54zM62.982 22a.997.997 0 01-.707-.293l-6-6a.999.999 0 111.414-1.414l6 6A.999.999 0 0162.982 22zM19.018 22a.997.997 0 01-.707-.293l-6-6a.999.999 0 111.414-1.414l6 6A.999.999 0 0119.018 22zM16.018 43a1 1 0 01-1-1V26a1 1 0 112 0v16a1 1 0 01-1 1z"/><path d="M13.018 28.071a1 1 0 01-1-1V15a1 1 0 112 0v12.071a1 1 0 01-1 1zM13.018 48a1 1 0 01-1-1v-6.07a1 1 0 112 0V47a1 1 0 01-1 1zM55.982 46h-30a1 1 0 01-1-1V29a1 1 0 011-1h30a1 1 0 011 1v16a1 1 0 01-1 1zm-29-2h28V30h-28v14z"/><path d="M25.982 34a1 1 0 110-2c1.654 0 3-1.346 3-3a1 1 0 112 0c0 2.757-2.243 5-5 5zM55.982 34c-2.757 0-5-2.243-5-5a1 1 0 112 0c0 1.654 1.346 3 3 3a1 1 0 110 2zM29.982 46a1 1 0 01-1-1c0-1.654-1.346-3-3-3a1 1 0 110-2c2.757 0 5 2.243 5 5a1 1 0 01-1 1zM51.982 46a1 1 0 01-1-1c0-2.757 2.243-5 5-5a1 1 0 110 2c-1.654 0-3 1.346-3 3a1 1 0 01-1 1zM40.982 42c-2.757 0-5-2.243-5-5s2.243-5 5-5 5 2.243 5 5-2.243 5-5 5zm0-8c-1.654 0-3 1.346-3 3s1.346 3 3 3 3-1.346 3-3-1.345-3-3-3zM44.982 12h-14a1 1 0 110-2h14a1 1 0 110 2z"/><path d="M46.982 14a1 1 0 01-1-1 1 1 0 00-1-1 1 1 0 110-2c1.654 0 3 1.346 3 3a1 1 0 01-1 1zM28.982 14a1 1 0 01-1-1c0-1.654 1.346-3 3-3a1 1 0 110 2 1 1 0 00-1 1 1 1 0 01-1 1z"/><path d="M28.982 16a1 1 0 01-1-1v-2a1 1 0 112 0v2a1 1 0 01-1 1zM46.982 16a1 1 0 01-1-1v-2a1 1 0 112 0v2a1 1 0 01-1 1zM43.982 19a1 1 0 01-1-1v-3a1 1 0 112 0v3a1 1 0 01-1 1z"/><g><path d="M46.982 19a1 1 0 01-1-1v-3a1 1 0 112 0v3a1 1 0 01-1 1z"/></g><g><path d="M28.982 19a1 1 0 01-1-1v-3a1 1 0 112 0v3a1 1 0 01-1 1z"/></g><g><path d="M31.982 19a1 1 0 01-1-1v-3a1 1 0 112 0v3a1 1 0 01-1 1z"/></g></svg>