<svg xmlns="http://www.w3.org/2000/svg" x="0" y="0" xml:space="preserve" viewBox="0 0 64 64"><path fill="#D3374E" d="M52 9 24 9 21 8 1 8 1 2 21 2 24 3 52 3 52 6z"/><path fill="#F6BB42" d="M52 15 24 15 21 14 1 14 1 8 21 8 24 9 52 9 52 12z"/><path fill="#D3374E" d="M52 21 24 21 21 20 1 20 1 14 21 14 24 15 52 15 52 18z"/><path fill="#F6BB42" d="M52 27 24 27 21 26 1 26 1 20 21 20 24 21 52 21 52 24z"/><path fill="#D3374E" d="M52 33 24 33 21 32 4 32 1 32 1 26 21 26 24 27 52 27 52 30z"/><path fill="#A0D468" d="M8 59 30 59 30 62 12 62 8 62z"/><path fill="#656D78" d="M35 39.07a8.15 8.15 0 0 1 2-.82V39c0 1.1.9 2 2 2v3c-.74 0-1.38.4-1.73 1l-2.6-1.5c-.55.95-1.77 1.28-2.729.73l-.641-.38a7.974 7.974 0 0 1 3.7-4.78z"/><path fill="#434A54" d="M44.06 40.76a2.018 2.018 0 0 0-.729 2.74L40.729 45c-.34-.6-.989-1-1.729-1v-3c-1.1 0-2-.9-2-2v-.75c2.76-.71 5.71.1 7.71 2.14l-.65.37z"/><path fill="#656D78" d="M45.93 42a7.939 7.939 0 0 1 .78 6.14l-.65-.38a1.989 1.989 0 0 0-2.72.74L40.73 47c.17-.29.27-.64.27-1 0-.37-.1-.71-.271-1l2.601-1.5c-.55-.96-.22-2.18.729-2.74l.65-.37A8.18 8.18 0 0 1 45.93 42z"/><path fill="#434A54" d="M43.34 48.5a1.989 1.989 0 0 1 2.72-.74l.65.38A7.954 7.954 0 0 1 43 52.92c-.64.37-1.31.641-2 .82V53c0-1.11-.89-2-2-2v-3c.74 0 1.39-.4 1.729-1l2.611 1.5z"/><path fill="#CCD1D9" d="M40.729 45a1.985 1.985 0 0 1 0 2 1.996 1.996 0 0 1-3.459 0 1.995 1.995 0 0 1 0-2 1.997 1.997 0 0 1 3.459 0z"/><path fill="#656D78" d="M41 53.74a8.022 8.022 0 0 1-7.71-2.141l.65-.369a1.99 1.99 0 0 0 .729-2.73l2.6-1.5c.351.6.99 1 1.73 1v3c1.11 0 2 .89 2 2v.74z"/><path fill="#434A54" d="M34.67 48.5c.56.95.23 2.17-.729 2.73l-.651.37c-.46-.47-.87-1-1.22-1.6a8.006 8.006 0 0 1-.78-6.15h.01l.641.381c.96.55 2.18.22 2.729-.73l2.6 1.5a1.988 1.988 0 0 0 0 1.999l-2.6 1.5z"/><path fill="#CCD1D9" d="M18.729 45a1.985 1.985 0 0 1 0 2 1.996 1.996 0 0 1-3.459 0 1.995 1.995 0 0 1 0-2 1.997 1.997 0 0 1 3.459 0z"/><path fill="#656D78" d="M22.06 40.76a2.018 2.018 0 0 0-.729 2.74L18.729 45c-.34-.6-.989-1-1.729-1v-3c-1.1 0-2-.9-2-2v-.75c2.76-.71 5.71.1 7.71 2.14l-.65.37z"/><path fill="#434A54" d="M23.93 42a7.939 7.939 0 0 1 .78 6.14l-.65-.38a2.001 2.001 0 0 0-2.729.74L18.729 47a1.985 1.985 0 0 0 0-2l2.601-1.5c-.55-.96-.22-2.18.729-2.74l.65-.37A8.18 8.18 0 0 1 23.93 42z"/><path fill="#656D78" d="M21.33 48.5c.56-.96 1.78-1.29 2.729-.74l.65.38a7.954 7.954 0 0 1-3.71 4.78c-.64.37-1.31.641-2 .82V53c0-1.11-.89-2-2-2v-3c.74 0 1.39-.4 1.729-1l2.602 1.5z"/><path fill="#434A54" d="M17 51c1.11 0 2 .89 2 2v.74a8.022 8.022 0 0 1-7.71-2.141l.65-.369a2 2 0 0 0 .729-2.73l2.6-1.5c.351.6.99 1 1.73 1v3z"/><path fill="#656D78" d="M12.67 48.5a2 2 0 0 1-.729 2.73l-.651.37c-.46-.47-.87-1-1.22-1.6a8.006 8.006 0 0 1-.78-6.15h.01l.64.38c.96.55 2.18.22 2.729-.73l2.6 1.5a1.995 1.995 0 0 0 .001 2l-2.6 1.5z"/><path fill="#434A54" d="M17 41v3c-.74 0-1.38.4-1.73 1l-2.6-1.5c-.55.95-1.77 1.28-2.729.73l-.641-.38a7.974 7.974 0 0 1 3.7-4.78 8.15 8.15 0 0 1 2-.82V39c0 1.1.9 2 2 2z"/><path fill="#ED5565" d="M46.71 48.14a7.94 7.94 0 0 0-.78-6.14c-.35-.6-.76-1.14-1.22-1.61-2-2.04-4.95-2.85-7.71-2.14-.68.18-1.36.45-2 .82a7.975 7.975 0 0 0-3.7 4.779h-.01c-.55 2-.34 4.211.78 6.15A8.022 8.022 0 0 0 41 53.74c.69-.18 1.36-.45 2-.82a7.954 7.954 0 0 0 3.71-4.78zm-22 0a7.94 7.94 0 0 0-.78-6.14c-.35-.6-.76-1.14-1.22-1.61-2-2.04-4.95-2.85-7.71-2.14-.68.18-1.36.45-2 .82a7.975 7.975 0 0 0-3.7 4.779h-.01c-.55 2-.34 4.211.78 6.15A8.022 8.022 0 0 0 19 53.74c.69-.18 1.36-.45 2-.82a7.954 7.954 0 0 0 3.71-4.78zM52 33v26H4V32h17l3 1h28z"/><path fill="#ED5565" d="M1 32H4V59H1z"/><path fill="#DA4453" d="M48 33H52V59H48z"/><path fill="#BC2E49" d="M48 27H52V33H48z"/><path fill="#EDAB37" d="M48 21H52V27H48z"/><path fill="#BC2E49" d="M48 15H52V21H48z"/><path fill="#BC2E49" d="M48 3H52V9H48z"/><path fill="#EDAB37" d="M48 9H52V15H48z"/><g><path d="M1 60a1 1 0 0 1-1-1V32a1 1 0 1 1 2 0v27a1 1 0 0 1-1 1z"/><path d="M52 60H1a1 1 0 1 1 0-2h51a1 1 0 1 1 0 2zM52 34H23.999c-.107 0-.214-.018-.316-.052L20.838 33H1a1 1 0 1 1 0-2h20c.107 0 .214.018.316.052l2.845.948H52a1 1 0 1 1 0 2zM52 28H23.999c-.107 0-.214-.018-.316-.052L20.838 27H1a1 1 0 1 1 0-2h20c.107 0 .214.018.316.052l2.845.948H52a1 1 0 1 1 0 2z"/><path d="M52 60a1 1 0 0 1-1-1V33a1 1 0 1 1 2 0v26a1 1 0 0 1-1 1zM4 61a1 1 0 0 1-1-1V32a1 1 0 1 1 2 0v28a1 1 0 0 1-1 1zM8 63a1 1 0 0 1-1-1v-3a1 1 0 1 1 2 0v3a1 1 0 0 1-1 1z"/><path d="M30 63H8a1 1 0 1 1 0-2h22a1 1 0 1 1 0 2z"/><path d="M30 63a1 1 0 0 1-1-1v-3a1 1 0 1 1 2 0v3a1 1 0 0 1-1 1zM12 63a1 1 0 0 1-1-1v-1a1 1 0 1 1 2 0v1a1 1 0 0 1-1 1zM52 34a1 1 0 0 1-1-1v-6a1 1 0 1 1 2 0v6a1 1 0 0 1-1 1zM1 33a1 1 0 0 1-1-1v-6a1 1 0 1 1 2 0v6a1 1 0 0 1-1 1zM52 22H23.999c-.107 0-.214-.018-.316-.052L20.838 21H1a1 1 0 1 1 0-2h20c.107 0 .214.018.316.052l2.845.948H52a1 1 0 1 1 0 2z"/><path d="M52 28a1 1 0 0 1-1-1v-6a1 1 0 1 1 2 0v6a1 1 0 0 1-1 1zM1 27a1 1 0 0 1-1-1v-6a1 1 0 1 1 2 0v6a1 1 0 0 1-1 1zM52 16H23.999c-.107 0-.214-.018-.316-.052L20.838 15H1a1 1 0 1 1 0-2h20c.107 0 .214.018.316.052l2.845.948H52a1 1 0 1 1 0 2z"/><path d="M52 22a1 1 0 0 1-1-1v-6a1 1 0 1 1 2 0v6a1 1 0 0 1-1 1zM1 21a1 1 0 0 1-1-1v-6a1 1 0 1 1 2 0v6a1 1 0 0 1-1 1zM52 10H23.999c-.107 0-.214-.018-.316-.052L20.838 9H1a1 1 0 1 1 0-2h20c.107 0 .214.018.316.052L24.161 8H52a1 1 0 1 1 0 2z"/><path d="M52 16a1 1 0 0 1-1-1V9a1 1 0 1 1 2 0v6a1 1 0 0 1-1 1zM1 15a1 1 0 0 1-1-1V8a1 1 0 1 1 2 0v6a1 1 0 0 1-1 1zM52 4H23.999c-.107 0-.214-.018-.316-.052L20.838 3H1a1 1 0 1 1 0-2h20c.107 0 .214.018.316.052L24.161 2H52a1 1 0 1 1 0 2z"/><path d="M52 10a1 1 0 0 1-1-1V3a1 1 0 1 1 2 0v6a1 1 0 0 1-1 1zM1 9a1 1 0 0 1-1-1V2a1 1 0 1 1 2 0v6a1 1 0 0 1-1 1zM57 31h-5a1 1 0 1 1 0-2h5a1 1 0 1 1 0 2z"/><path d="M59.023 33.023a1 1 0 0 1-1-1c0-.564-.459-1.023-1.023-1.023a1 1 0 1 1 0-2 3.026 3.026 0 0 1 3.023 3.023 1 1 0 0 1-1 1zM57 25h-5a1 1 0 1 1 0-2h5a1 1 0 1 1 0 2z"/><path d="M59 27a1 1 0 0 1-1-1 1 1 0 0 0-1-1 1 1 0 1 1 0-2c1.654 0 3 1.346 3 3a1 1 0 0 1-1 1zM57 19h-5a1 1 0 1 1 0-2h5a1 1 0 1 1 0 2z"/><path d="M59 21a1 1 0 0 1-1-1 1 1 0 0 0-1-1 1 1 0 1 1 0-2c1.654 0 3 1.346 3 3a1 1 0 0 1-1 1zM57 13h-5a1 1 0 1 1 0-2h5a1 1 0 1 1 0 2z"/><path d="M59 15a1 1 0 0 1-1-1 1 1 0 0 0-1-1 1 1 0 1 1 0-2c1.654 0 3 1.346 3 3a1 1 0 0 1-1 1zM57 7h-5a1 1 0 1 1 0-2h5a1 1 0 1 1 0 2z"/><path d="M59 9a1 1 0 0 1-1-1 1 1 0 0 0-1-1 1 1 0 1 1 0-2c1.654 0 3 1.346 3 3a1 1 0 0 1-1 1z"/><path d="M59 55.979a1 1 0 0 1-1-1V8a1 1 0 1 1 2 0v46.979a1 1 0 0 1-1 1z"/><path d="M63 59.979c-2.757 0-5-2.243-5-5a1 1 0 1 1 2 0c0 1.654 1.346 3 3 3a1 1 0 1 1 0 2zM17 49c-1.654 0-3-1.346-3-3s1.346-3 3-3 3 1.346 3 3-1.346 3-3 3zm0-4a1 1 0 1 0 0 2 1 1 0 0 0 0-2z"/><path d="M17 45a1 1 0 0 1-1-1v-3a1 1 0 1 1 2 0v3a1 1 0 0 1-1 1z"/><path d="M17 42c-1.654 0-3-1.346-3-3a1 1 0 1 1 2 0 1 1 0 0 0 1 1 1 1 0 1 1 0 2z"/><path d="M15 40a1 1 0 0 1-1-1v-.748a1 1 0 1 1 2 0V39a1 1 0 0 1-1 1zM15.268 46a.992.992 0 0 1-.499-.134l-2.599-1.5a1 1 0 1 1 1-1.732l2.599 1.5A.999.999 0 0 1 15.268 46z"/><path d="M10.933 45.499a2.986 2.986 0 0 1-1.494-.4 1 1 0 0 1 1-1.732c.477.276 1.09.109 1.365-.366a.999.999 0 1 1 1.732 1 3.005 3.005 0 0 1-2.603 1.498z"/><path d="M9.938 45.232a.987.987 0 0 1-.5-.135l-.648-.374a.997.997 0 0 1-.364-1.366.997.997 0 0 1 1.366-.364l.647.375a.997.997 0 0 1-.501 1.864zM12.671 49.5a1 1 0 0 1-.501-1.866l2.6-1.501a1 1 0 1 1 1 1.732l-2.6 1.501a.992.992 0 0 1-.499.134z"/><path d="M11.94 52.231a1 1 0 0 1-.502-1.865c.477-.276.641-.889.365-1.366a1 1 0 0 1 1.732-1 3.004 3.004 0 0 1-1.096 4.097.992.992 0 0 1-.499.134z"/><path d="M11.292 52.604a1 1 0 0 1-.5-1.867l.648-.373a1.001 1.001 0 0 1 .998 1.734l-.648.373a.99.99 0 0 1-.498.133zM17.001 52a1 1 0 0 1-1-1L16 47.998a1 1 0 1 1 2 0L18.001 51a1 1 0 0 1-1 1z"/><path d="M19.001 53.998a1 1 0 0 1-1-.999 1.001 1.001 0 0 0-1-.999 1 1 0 1 1 0-2 3.004 3.004 0 0 1 3 2.997 1 1 0 0 1-1 1.001z"/><path d="M19 54.746a1 1 0 0 1-1-1.001l.001-.748a1 1 0 0 1 1-.999h.001a1 1 0 0 1 .999 1.001l-.001.748a1 1 0 0 1-1 .999zM21.331 49.499a.992.992 0 0 1-.499-.134l-2.602-1.501a1 1 0 1 1 1-1.732l2.602 1.501a.999.999 0 0 1-.501 1.866z"/><path d="M21.331 49.499a.999.999 0 0 1-.865-1.5 3.002 3.002 0 0 1 4.095-1.1.998.998 0 0 1 .367 1.365.996.996 0 0 1-1.365.367 1.003 1.003 0 0 0-1.364.367 1.002 1.002 0 0 1-.868.501z"/><path d="M24.708 49.141a.987.987 0 0 1-.5-.135l-.647-.375a.997.997 0 0 1-.364-1.366.996.996 0 0 1 1.366-.364l.647.375a1 1 0 0 1-.502 1.865z"/><path d="M17.009 55a9.036 9.036 0 0 1-7.805-4.502c-1.202-2.081-1.521-4.506-.897-6.828s2.112-4.264 4.193-5.465a9.002 9.002 0 0 1 4.492-1.207 9.037 9.037 0 0 1 7.803 4.5c2.48 4.299 1.002 9.814-3.295 12.296A8.998 8.998 0 0 1 17.009 55zm-.017-16.002a6.994 6.994 0 0 0-3.492.939c-1.619.935-2.777 2.443-3.262 4.25s-.236 3.692.698 5.311A7.032 7.032 0 0 0 17.009 53a6.99 6.99 0 0 0 3.491-.938c3.343-1.93 4.492-6.221 2.563-9.563a7.031 7.031 0 0 0-6.071-3.501z"/><path d="M18.731 46a1 1 0 0 1-.501-1.866l2.601-1.502a1 1 0 0 1 1 1.732l-2.601 1.502a.992.992 0 0 1-.499.134z"/><path d="M21.332 44.498a.998.998 0 0 1-.867-.501 3.003 3.003 0 0 1 1.096-4.096 1 1 0 1 1 1 1.732 1 1 0 0 0-.363 1.365 1 1 0 0 1-.866 1.5z"/><path d="M22.062 41.768a1 1 0 0 1-.5-1.867l.648-.373a1.001 1.001 0 0 1 .998 1.734l-.648.373c-.158.09-.33.133-.498.133z"/><g><path d="M39.001 49c-1.654 0-3-1.346-3-3s1.346-3 3-3 3 1.346 3 3-1.346 3-3 3zm0-4a1 1 0 1 0 0 2 1 1 0 0 0 0-2z"/><path d="M39.001 45a1 1 0 0 1-1-1v-3a1 1 0 1 1 2 0v3a1 1 0 0 1-1 1z"/><path d="M39.001 42c-1.654 0-3-1.346-3-3a1 1 0 1 1 2 0 1 1 0 0 0 1 1 1 1 0 1 1 0 2z"/><path d="M37.001 40a1 1 0 0 1-1-1v-.748a1 1 0 1 1 2 0V39a1 1 0 0 1-1 1zM37.269 46a.992.992 0 0 1-.499-.134l-2.599-1.5a1 1 0 1 1 1-1.732l2.599 1.5A.999.999 0 0 1 37.269 46z"/><path d="M32.934 45.499a2.986 2.986 0 0 1-1.494-.4 1 1 0 0 1 1-1.732 1.001 1.001 0 0 0 1.365-.366 1 1 0 1 1 1.732 1 3.005 3.005 0 0 1-2.603 1.498z"/><path d="M31.938 45.232a.987.987 0 0 1-.5-.135l-.647-.375a.997.997 0 0 1-.364-1.366.997.997 0 0 1 1.366-.364l.647.375a.997.997 0 0 1 .364 1.366.997.997 0 0 1-.866.499zM34.672 49.5a1 1 0 0 1-.501-1.866l2.6-1.501a.999.999 0 1 1 1 1.732l-2.6 1.501a.992.992 0 0 1-.499.134z"/><path d="M33.941 52.231a1 1 0 0 1-.502-1.865c.477-.276.641-.888.366-1.366a1 1 0 0 1 1.732-1 3.004 3.004 0 0 1-1.096 4.097.998.998 0 0 1-.5.134z"/><path d="M33.293 52.604a1 1 0 0 1-.5-1.867l.648-.373a1.001 1.001 0 0 1 .998 1.734l-.648.373a.99.99 0 0 1-.498.133zM39.002 52a1 1 0 0 1-1-1l-.001-3.002a1 1 0 1 1 2 0L40.002 51a1 1 0 0 1-1 1z"/><path d="M41.002 53.998a1 1 0 0 1-1-.999 1.001 1.001 0 0 0-1-.999 1 1 0 1 1 0-2 3.004 3.004 0 0 1 3 2.997 1 1 0 0 1-1 1.001z"/><path d="M41.001 54.746a1 1 0 0 1-1-1.001l.001-.748a1 1 0 0 1 1-.999h.001a1 1 0 0 1 .999 1.001l-.001.748a1 1 0 0 1-1 .999zM43.332 49.499a.992.992 0 0 1-.499-.134l-2.602-1.501a1 1 0 1 1 1-1.732l2.602 1.501a.999.999 0 0 1-.501 1.866z"/><path d="M43.332 49.499a.999.999 0 0 1-.865-1.5 3.002 3.002 0 0 1 4.095-1.1.998.998 0 0 1 .367 1.365.996.996 0 0 1-1.365.367 1.003 1.003 0 0 0-1.364.367 1.002 1.002 0 0 1-.868.501z"/><path d="M46.709 49.141a.987.987 0 0 1-.5-.135l-.647-.375a.997.997 0 0 1-.364-1.366.996.996 0 0 1 1.366-.364l.647.375a1 1 0 0 1-.502 1.865z"/><path d="M39.01 55a9.036 9.036 0 0 1-7.805-4.502c-1.202-2.081-1.521-4.506-.897-6.828s2.112-4.264 4.193-5.465a9.002 9.002 0 0 1 4.492-1.207 9.037 9.037 0 0 1 7.803 4.5c2.48 4.299 1.002 9.814-3.295 12.296A8.998 8.998 0 0 1 39.01 55zm-.017-16.002a6.994 6.994 0 0 0-3.492.939c-1.619.935-2.777 2.443-3.262 4.25s-.236 3.692.698 5.311A7.032 7.032 0 0 0 39.01 53a6.99 6.99 0 0 0 3.491-.938c3.343-1.93 4.492-6.221 2.563-9.563a7.031 7.031 0 0 0-6.071-3.501z"/><path d="M40.732 46a1 1 0 0 1-.501-1.866l2.601-1.502a1 1 0 1 1 1 1.732l-2.601 1.502a.992.992 0 0 1-.499.134z"/><path d="M43.333 44.498a.998.998 0 0 1-.867-.501 3.003 3.003 0 0 1 1.096-4.096 1 1 0 0 1 1 1.732 1 1 0 0 0-.363 1.365 1 1 0 0 1-.866 1.5z"/><path d="M44.063 41.768a1 1 0 0 1-.5-1.867l.648-.373a1.001 1.001 0 0 1 .998 1.734l-.648.373c-.158.09-.33.133-.498.133z"/></g></g></svg>