<?xml version="1.0" encoding="utf-8"?>
<!-- Generator: Adobe Illustrator 16.0.0, SVG Export Plug-In . SVG Version: 6.00 Build 0)  -->
<!DOCTYPE svg PUBLIC "-//W3C//DTD SVG 1.1//EN" "http://www.w3.org/Graphics/SVG/1.1/DTD/svg11.dtd">
<svg version="1.1" xmlns="http://www.w3.org/2000/svg" xmlns:xlink="http://www.w3.org/1999/xlink" x="0px" y="0px" width="64px"
	 height="64px" viewBox="0 0 64 64" enable-background="new 0 0 64 64" xml:space="preserve">
<g id="_x35_0_code_x2C__programming_x2C__program_x2C__bitcoin_x2C__block_x2C__chain_x2C__cryptocurrency">
</g>
<g id="_x34_9_balloon_x2C__takeoff_x2C__bitcoin_x2C__coin_x2C__block_x2C__chain_x2C__cryptocurrency">
</g>
<g id="_x34_8_video_card_x2C__mining_x2C__farm_x2C__computer_x2C__block_x2C__chain_x2C__cryptocurrency">
</g>
<g id="_x34_7_money_box_x2C__saving_x2C__bitcoin_x2C__coin_x2C__block_x2C__chain_x2C__cryptocurrency">
</g>
<g id="_x34_6_portfolio_x2C__finance_x2C__bank_note_x2C__bitcoin_x2C__coin_x2C__cryptocurrency">
</g>
<g id="_x34_5_tap_x2C__water_x2C__bitcoin_x2C__coin_x2C__block_x2C__chain_x2C__cryptocurrency">
</g>
<g id="_x34_4_phone_x2C__bitcoin_x2C__coin_x2C__block_x2C__chain_x2C__cryptocurrency">
</g>
<g id="_x34_3_rocket_x2C__sun_x2C__bitcoin_x2C__coin_x2C__block_x2C__chain_x2C__cryptocurrency">
</g>
<g id="_x34_2_transfer_x2C__network_x2C__bitcoin_x2C__coin_x2C__block_x2C__chain_x2C__cryptocurrency">
</g>
<g id="_x34_1_scales_x2C__comparison_x2C__bitcoin_x2C__coin_x2C__block_x2C__chain_x2C__cryptocurrency">
</g>
<g id="_x34_0_calculator_x2C__calculating_x2C__bitcoin_x2C__coin_x2C__block_x2C__chain_x2C__cryptocurrency">
</g>
<g id="_x33_9_start-up_x2C__plant_x2C__hand_x2C__bitcoin_x2C__coin_x2C__cryptocurrency">
</g>
<g id="_x33_8_idea_x2C__bulb_x2C__bitcoin_x2C__coin_x2C__block_x2C__chain_x2C__cryptocurrency">
</g>
<g id="_x33_7_users_x2C__user_x2C__co-founder_x2C__bitcoin_x2C__coin_x2C__cryptocurrency">
</g>
<g id="_x33_6_safe_x2C__protection_x2C__bitcoin_x2C__coin_x2C__block_x2C__chain_x2C__cryptocurrency">
</g>
<g id="_x33_5_flash_drive_x2C__key_x2C__block_x2C__chain_x2C__cryptocurrency">
</g>
<g id="_x33_4_cloud_x2C__mining_x2C__bitcoin_x2C__coin_x2C__block_x2C__chain_x2C__cryptocurrency">
</g>
<g id="_x33_3_start_up_x2C__plant_x2C__bitcoin_x2C__coin_x2C__block_x2C__chain_x2C__cryptocurrency">
</g>
<g id="_x33_2_planet_x2C__bitcoin_x2C__coin_x2C__block_x2C__chain_x2C__cryptocurrency">
</g>
<g id="_x33_1_payment_x2C__hand_x2C__bitcoin_x2C__coin_x2C__block_x2C__chain_x2C__cryptocurrency">
</g>
<g id="_x33_0_user_x2C__laptop_x2C__bitcoin_x2C__coin_x2C__block_x2C__chain_x2C__cryptocurrency">
</g>
<g id="_x32_9_thief_x2C__bag_x2C__bitcoin_x2C__coin_x2C__block_x2C__chain_x2C__cryptocurrency">
</g>
<g id="_x32_8_code_x2C__programming_x2C__program_x2C__bitcoin_x2C__coin_x2C__cryptocurrency">
</g>
<g id="_x32_7_bitcoin_x2C__coin_x2C__block_x2C__chain_x2C__cryptocurrency">
</g>
<g id="_x32_6_shield_x2C__protection_x2C__bitcoin_x2C__coin_x2C__block_x2C__chain_x2C__cryptocurrency">
</g>
<g id="_x32_5_bug_x2C__laptop_x2C__miner_x2C__program_x2C__block_x2C__chain_x2C__cryptocurrency">
</g>
<g id="_x32_4_computer_x2C__monitor_x2C__bitcoin_x2C__coin_x2C__block_x2C__chain_x2C__cryptocurrency">
</g>
<g id="_x32_3_network_x2C__idea_x2C__bitcoin_x2C__coin_x2C__block_x2C__chain_x2C__cryptocurrency">
</g>
<g id="_x32_2_block_x2C__chain_x2C__cryptocurrency_x2C__technology_x2C__future">
</g>
<g id="_x32_1_smart_contact_x2C__contact_x2C__block_x2C__chain_x2C__cryptocurrency">
</g>
<g id="_x32_0_lock_x2C__safe_x2C__protection_x2C__block_x2C__chain_x2C__cryptocurrency_x2C__program">
</g>
<g id="_x31_9_server_x2C__data_x2C__bitcoin_x2C__coin_x2C__block_x2C__chain_x2C__cryptocurrency">
</g>
<g id="_x31_8_key_x2C__bitcoin_x2C__coin_x2C__block_x2C__chain_x2C__cryptocurrency">
</g>
<g id="_x31_7_pool_x2C__network_x2C__bitcoin_x2C__coin_x2C__block_x2C__chain_x2C__cryptocurrency">
</g>
<g id="_x31_6_mining_x2C__shovel_x2C__mine_x2C__coin_x2C__block_x2C__chain_x2C__cryptocurrency">
</g>
<g id="_x31_5_purse_x2C__bitcoin_x2C__coin_x2C__block_x2C__chain_x2C__cryptocurrency">
</g>
<g id="_x31_4_safe_x2C__protection_x2C__block_x2C__chain_x2C__cryptocurrency_x2C__program">
</g>
<g id="_x31_3_mining_x2C__funnel_x2C__satoshi_x2C__bitcoin_x2C__coin_x2C__cryptocurrency">
</g>
<g id="_x31_2_chart_x2C__bitcoin_x2C__coin_x2C__block_x2C__chain_x2C__cryptocurrency">
</g>
<g id="_x31_1_computer_x2C__monitor_x2C__bitcoin_x2C__coin_x2C__block_x2C__chain_x2C__cryptocurrency">
	<g>
		<g>
			<path fill="#F5F7FA" d="M45,59.5v1H19v-1c0-1.109,0.89-2,2-2h2h18h2C44.11,57.5,45,58.391,45,59.5z"/>
		</g>
		<g>
			<path fill="#F5F7FA" d="M1.05,45.5H63v2c0,1.101-0.9,2-2,2H39H25H3c-1.1,0-2-0.899-2-2v-2H1.05z"/>
		</g>
		<g>
			<path fill="#E6E9ED" d="M59,45.5v2c0,1.101-0.9,2-2,2h4c1.1,0,2-0.899,2-2v-2H59z"/>
		</g>
		<g>
			<polygon fill="#E6E9ED" points="39,49.5 41,57.5 23,57.5 25,49.5 			"/>
		</g>
		<g>
			<rect x="35" y="11.5" fill="#FFCE54" width="5" height="4"/>
		</g>
		<g>
			<rect x="40" y="11.5" fill="#F6BB42" width="5" height="4"/>
		</g>
		<g>
			<rect x="45" y="11.5" fill="#F6BB42" width="5" height="4"/>
		</g>
		<g>
			<rect x="50" y="11.5" fill="#EDAB37" width="5" height="4"/>
		</g>
		<g>
			<rect x="50" y="18.5" fill="#EDAB37" width="5" height="4"/>
		</g>
		<g>
			<rect x="45" y="18.5" fill="#F6BB42" width="5" height="4"/>
		</g>
		<g>
			<rect x="40" y="18.5" fill="#F6BB42" width="5" height="4"/>
		</g>
		<g>
			<rect x="35" y="18.5" fill="#FFCE54" width="5" height="4"/>
		</g>
		<g>
			<rect x="35" y="25.5" fill="#FFCE54" width="5" height="4"/>
		</g>
		<g>
			<rect x="40" y="25.5" fill="#F6BB42" width="5" height="4"/>
		</g>
		<g>
			<rect x="45" y="25.5" fill="#F6BB42" width="5" height="4"/>
		</g>
		<g>
			<rect x="50" y="25.5" fill="#EDAB37" width="5" height="4"/>
		</g>
		<g>
			<rect x="50" y="32.5" fill="#EDAB37" width="5" height="4"/>
		</g>
		<g>
			<rect x="45" y="32.5" fill="#F6BB42" width="5" height="4"/>
		</g>
		<g>
			<rect x="40" y="32.5" fill="#F6BB42" width="5" height="4"/>
		</g>
		<g>
			<rect x="35" y="32.5" fill="#FFCE54" width="5" height="4"/>
		</g>
		<g>
			<path fill="#AC92EC" d="M19,36.5c1.82,0,3.53-0.49,5-1.34c2.99-1.729,5-4.96,5-8.66v-4c0-5.529-4.48-10-10-10s-10,4.471-10,10v4
				c0,3.7,2.01,6.931,5,8.66C15.47,36.01,17.18,36.5,19,36.5z M55,32.5h-5h-5h-5h-5v4h5h5h5h5V32.5z M55,29.5v-4h-5h-5h-5h-5v4h5h5
				h5H55z M55,22.5v-4h-5h-5h-5h-5v4h5h5h5H55z M55,15.5v-4h-5h-5h-5h-5v4h5h5h5H55z M63,5.5v40H1.05H1v-40c0-1.1,0.9-2,2-2h58
				C62.1,3.5,63,4.4,63,5.5z"/>
		</g>
		<g>
			<g>
				<path fill="#967ADC" d="M61,3.5h-4c1.1,0,2,0.9,2,2v40h4v-40C63,4.4,62.1,3.5,61,3.5z"/>
			</g>
		</g>
		<g>
			<path fill="#EDAB37" d="M17,17.5h2h1c1.11,0,2,0.891,2,2c0,1.101-0.89,2-2,2h-3V17.5z"/>
		</g>
		<g>
			<path fill="#EDAB37" d="M20.5,21.5c1.38,0,2.5,1.12,2.5,2.5s-1.12,2.5-2.5,2.5H19h-2v-5h3H20.5z"/>
		</g>
		<g>
			<path fill="#FFCE54" d="M17,17.5v4v5h2h1.5c1.38,0,2.5-1.12,2.5-2.5s-1.12-2.5-2.5-2.5H20c1.11,0,2-0.899,2-2c0-1.109-0.89-2-2-2
				h-1H17z M29,22.5c0,3.7-2.01,6.931-5,8.66c-1.47,0.85-3.18,1.34-5,1.34s-3.53-0.49-5-1.34c-2.99-1.729-5-4.96-5-8.66
				c0-5.529,4.48-10,10-10S29,16.971,29,22.5z"/>
		</g>
		<g>
			<g>
				<path fill="#F6BB42" d="M19,12.5c-0.685,0-1.354,0.069-2,0.201c4.563,0.926,8,4.956,8,9.799c0,3.7-2.01,6.931-5,8.66
					c-0.915,0.529-1.931,0.897-3,1.116c0.649,0.133,1.313,0.224,2,0.224c1.82,0,3.53-0.49,5-1.34c2.99-1.729,5-4.96,5-8.66
					C29,16.971,24.52,12.5,19,12.5z"/>
			</g>
		</g>
		<g>
			<path fill="#EDAB37" d="M24,31.16c-1.47,0.85-3.18,1.34-5,1.34s-3.53-0.49-5-1.34c-2.99-1.729-5-4.96-5-8.66v4
				c0,3.7,2.01,6.931,5,8.66c1.47,0.85,3.18,1.34,5,1.34s3.53-0.49,5-1.34c2.99-1.729,5-4.96,5-8.66v-4
				C29,26.2,26.99,29.431,24,31.16z"/>
		</g>
	</g>
	<g>
		<g>
			<g>
				<path d="M32.03,48.5c-0.552,0-1.005-0.447-1.005-1s0.443-1,0.995-1h0.01c0.553,0,1,0.447,1,1S32.583,48.5,32.03,48.5z"/>
			</g>
			<g>
				<path d="M63,46.5H1.047c-0.552,0-1-0.447-1-1s0.448-1,1-1H63c0.553,0,1,0.447,1,1S63.553,46.5,63,46.5z"/>
			</g>
			<g>
				<path d="M61,50.5H3c-1.654,0-3-1.346-3-3v-42c0-1.654,1.346-3,3-3h58c1.654,0,3,1.346,3,3v42C64,49.154,62.654,50.5,61,50.5z
					 M3,4.5c-0.551,0-1,0.448-1,1v42c0,0.552,0.449,1,1,1h58c0.552,0,1-0.448,1-1v-42c0-0.552-0.448-1-1-1H3z"/>
			</g>
			<g>
				<path d="M23.001,58.5c-0.081,0-0.162-0.01-0.244-0.03c-0.536-0.134-0.861-0.677-0.728-1.212l2-8
					c0.135-0.537,0.678-0.86,1.213-0.728c0.536,0.134,0.861,0.677,0.728,1.212l-2,8C23.856,58.197,23.449,58.5,23.001,58.5z"/>
			</g>
			<g>
				<path d="M40.999,58.5c-0.448,0-0.855-0.303-0.969-0.758l-2-8c-0.135-0.535,0.191-1.078,0.728-1.212
					c0.533-0.137,1.078,0.191,1.212,0.728l2,8c0.135,0.535-0.191,1.078-0.728,1.212C41.161,58.49,41.079,58.5,40.999,58.5z"/>
			</g>
			<g>
				<path d="M19,60.5c-0.552,0-1-0.447-1-1c0-1.654,1.346-3,3-3c0.552,0,1,0.447,1,1s-0.448,1-1,1c-0.551,0-1,0.448-1,1
					C20,60.053,19.552,60.5,19,60.5z"/>
			</g>
			<g>
				<path d="M45,60.5c-0.553,0-1-0.447-1-1c0-0.552-0.448-1-1-1c-0.553,0-1-0.447-1-1s0.447-1,1-1c1.654,0,3,1.346,3,3
					C46,60.053,45.553,60.5,45,60.5z"/>
			</g>
			<g>
				<path d="M43,58.5H21c-0.552,0-1-0.447-1-1s0.448-1,1-1h22c0.553,0,1,0.447,1,1S43.553,58.5,43,58.5z"/>
			</g>
			<g>
				<path d="M19,61.5c-0.552,0-1-0.447-1-1v-1c0-0.553,0.448-1,1-1s1,0.447,1,1v1C20,61.053,19.552,61.5,19,61.5z"/>
			</g>
			<g>
				<path d="M45,61.5H19c-0.552,0-1-0.447-1-1s0.448-1,1-1h26c0.553,0,1,0.447,1,1S45.553,61.5,45,61.5z"/>
			</g>
			<g>
				<path d="M45,61.5c-0.553,0-1-0.447-1-1v-1c0-0.553,0.447-1,1-1s1,0.447,1,1v1C46,61.053,45.553,61.5,45,61.5z"/>
			</g>
		</g>
		<g>
			<g>
				<path d="M19,33.502c-6.065,0-11-4.935-11-11s4.935-11,11-11s11,4.935,11,11S25.065,33.502,19,33.502z M19,13.502
					c-4.962,0-9,4.037-9,9s4.038,9,9,9s9-4.037,9-9S23.962,13.502,19,13.502z"/>
			</g>
			<g>
				<path d="M19,37.501c-6.065,0-11-4.935-11-11c0-0.553,0.448-1,1-1s1,0.447,1,1c0,4.963,4.038,9,9,9s9-4.037,9-9
					c0-0.553,0.448-1,1-1s1,0.447,1,1C30,32.566,25.065,37.501,19,37.501z"/>
			</g>
			<g>
				<path d="M29,27.501c-0.552,0-1-0.447-1-1v-3.999c0-0.553,0.448-1,1-1s1,0.447,1,1v3.999C30,27.054,29.552,27.501,29,27.501z"/>
			</g>
			<g>
				<g>
					<path d="M17,27.502c-0.552,0-1-0.447-1-1v-9c0-0.553,0.448-1,1-1s1,0.447,1,1v9C18,27.055,17.552,27.502,17,27.502z"/>
				</g>
				<g>
					<path d="M20,22.501c-0.552,0-1-0.447-1-1s0.448-1,1-1c0.551,0,1-0.448,1-1c0-0.551-0.449-0.999-1-0.999c-0.552,0-1-0.447-1-1
						s0.448-1,1-1c1.654,0,3,1.346,3,2.999C23,21.155,21.654,22.501,20,22.501z"/>
				</g>
				<g>
					<path d="M20.499,27.502c-0.552,0-1-0.447-1-1s0.448-1,1-1c0.828,0,1.501-0.673,1.501-1.5c0-0.828-0.673-1.502-1.501-1.502
						c-0.552,0-1-0.447-1-1s0.448-1,1-1C22.43,20.5,24,22.071,24,24.002C24,25.932,22.43,27.502,20.499,27.502z"/>
				</g>
				<g>
					<path d="M20,18.502h-4c-0.552,0-1-0.447-1-1s0.448-1,1-1h4c0.552,0,1,0.447,1,1S20.552,18.502,20,18.502z"/>
				</g>
				<g>
					<path d="M20.499,27.502H16c-0.552,0-1-0.447-1-1s0.448-1,1-1h4.499c0.552,0,1,0.447,1,1S21.051,27.502,20.499,27.502z"/>
				</g>
				<g>
					<path d="M17,22.502c-0.552,0-1-0.447-1-0.999c0-0.553,0.447-1.001,1-1.001l3.499-0.002h0c0.552,0,1,0.447,1,0.999
						c0,0.553-0.447,1.001-1,1.001L17,22.502L17,22.502z"/>
				</g>
				<g>
					<path d="M19,18.502c-0.552,0-1-0.447-1-1v-1.001c0-0.553,0.448-1,1-1s1,0.447,1,1v1.001C20,18.055,19.552,18.502,19,18.502z"/>
				</g>
				<g>
					<path d="M19,28.502c-0.552,0-1-0.447-1-1v-1c0-0.553,0.448-1,1-1s1,0.447,1,1v1C20,28.055,19.552,28.502,19,28.502z"/>
				</g>
			</g>
			<g>
				<path d="M19,37.501c-0.552,0-1-0.447-1-1v-3.999c0-0.553,0.448-1,1-1s1,0.447,1,1v3.999C20,37.054,19.552,37.501,19,37.501z"/>
			</g>
			<g>
				<path d="M24,36.162c-0.552,0-1-0.447-1-1v-3.998c0-0.553,0.448-1,1-1s1,0.447,1,1v3.998C25,35.715,24.552,36.162,24,36.162z"/>
			</g>
			<g>
				<path d="M14,36.162c-0.552,0-1-0.447-1-1v-3.998c0-0.553,0.448-1,1-1s1,0.447,1,1v3.998C15,35.715,14.552,36.162,14,36.162z"/>
			</g>
			<g>
				<path d="M9,27.501c-0.552,0-1-0.447-1-1v-3.999c0-0.553,0.448-1,1-1s1,0.447,1,1v3.999C10,27.054,9.552,27.501,9,27.501z"/>
			</g>
		</g>
		<g>
			<path d="M59,40.501H5c-0.552,0-1-0.447-1-1s0.448-1,1-1h54c0.553,0,1,0.447,1,1S59.553,40.501,59,40.501z"/>
		</g>
		<g>
			<g>
				<path d="M55,37.5H35c-0.553,0-1-0.447-1-1v-3.998c0-0.553,0.447-1,1-1h20c0.553,0,1,0.447,1,1V36.5
					C56,37.053,55.553,37.5,55,37.5z M36,35.5h18v-1.998H36V35.5z"/>
			</g>
			<g>
				<path d="M45,37.5c-0.553,0-1-0.447-1-1v-3.998c0-0.553,0.447-1,1-1s1,0.447,1,1V36.5C46,37.053,45.553,37.5,45,37.5z"/>
			</g>
			<g>
				<path d="M50,37.5c-0.553,0-1-0.447-1-1v-3.998c0-0.553,0.447-1,1-1s1,0.447,1,1V36.5C51,37.053,50.553,37.5,50,37.5z"/>
			</g>
			<g>
				<path d="M40,37.5c-0.553,0-1-0.447-1-1v-4c0-0.553,0.447-1,1-1s1,0.447,1,1v4C41,37.053,40.553,37.5,40,37.5z"/>
			</g>
			<g>
				<path d="M55,30.502H35c-0.553,0-1-0.447-1-1v-3.998c0-0.553,0.447-1,1-1h20c0.553,0,1,0.447,1,1v3.998
					C56,30.055,55.553,30.502,55,30.502z M36,28.502h18v-1.998H36V28.502z"/>
			</g>
			<g>
				<path d="M45,30.502c-0.553,0-1-0.447-1-1v-3.998c0-0.553,0.447-1,1-1s1,0.447,1,1v3.998C46,30.055,45.553,30.502,45,30.502z"/>
			</g>
			<g>
				<path d="M50,30.502c-0.553,0-1-0.447-1-1v-3.998c0-0.553,0.447-1,1-1s1,0.447,1,1v3.998C51,30.055,50.553,30.502,50,30.502z"/>
			</g>
			<g>
				<path d="M40,30.502c-0.553,0-1-0.447-1-1v-4c0-0.553,0.447-1,1-1s1,0.447,1,1v4C41,30.055,40.553,30.502,40,30.502z"/>
			</g>
			<g>
				<path d="M55,23.504H35c-0.553,0-1-0.447-1-1v-3.998c0-0.553,0.447-1,1-1h20c0.553,0,1,0.447,1,1v3.998
					C56,23.057,55.553,23.504,55,23.504z M36,21.504h18v-1.998H36V21.504z"/>
			</g>
			<g>
				<path d="M45,23.504c-0.553,0-1-0.447-1-1v-3.998c0-0.553,0.447-1,1-1s1,0.447,1,1v3.998C46,23.057,45.553,23.504,45,23.504z"/>
			</g>
			<g>
				<path d="M50,23.504c-0.553,0-1-0.447-1-1v-3.998c0-0.553,0.447-1,1-1s1,0.447,1,1v3.998C51,23.057,50.553,23.504,50,23.504z"/>
			</g>
			<g>
				<path d="M40,23.504c-0.553,0-1-0.447-1-1v-4c0-0.553,0.447-1,1-1s1,0.447,1,1v4C41,23.057,40.553,23.504,40,23.504z"/>
			</g>
			<g>
				<path d="M55,16.506H35c-0.553,0-1-0.447-1-1v-3.998c0-0.553,0.447-1,1-1h20c0.553,0,1,0.447,1,1v3.998
					C56,16.059,55.553,16.506,55,16.506z M36,14.506h18v-1.998H36V14.506z"/>
			</g>
			<g>
				<path d="M45,16.506c-0.553,0-1-0.447-1-1v-3.998c0-0.553,0.447-1,1-1s1,0.447,1,1v3.998C46,16.059,45.553,16.506,45,16.506z"/>
			</g>
			<g>
				<path d="M50,16.506c-0.553,0-1-0.447-1-1v-3.998c0-0.553,0.447-1,1-1s1,0.447,1,1v3.998C51,16.059,50.553,16.506,50,16.506z"/>
			</g>
			<g>
				<path d="M40,16.506c-0.553,0-1-0.447-1-1v-4c0-0.553,0.447-1,1-1s1,0.447,1,1v4C41,16.059,40.553,16.506,40,16.506z"/>
			</g>
		</g>
	</g>
</g>
<g id="_x31_0_mining_x2C__pickaxe_x2C__stone_x2C__mine_x2C___bitcoin_x2C__coin_x2C__cryptocurrency">
</g>
<g id="_x39__miner_x2C__mining_x2C__computer_x2C__pickaxe_x2C__program_x2C__cryptocurrency">
</g>
<g id="_x38__video_card_x2C__mining_x2C__bitcoin_x2C__coin_x2C__block_x2C__chain_x2C__cryptocurrency">
</g>
<g id="_x37__exchanger_x2C__site_x2C__bitcoin_x2C__coin_x2C__block_x2C__chain_x2C__cryptocurrency">
</g>
<g id="_x36__shop_x2C__product_x2C__bitcoin_x2C__coin_x2C__block_x2C__chain_x2C__cryptocurrency">
</g>
<g id="_x35__bitcoin_x2C__coin_x2C__exchange_x2C__block_x2C__chain_x2C__cryptocurrency_x2C__product">
</g>
<g id="_x34__bitcoin_x2C__coin_x2C__exchange_x2C__block_x2C__chain_x2C__cryptocurrency">
</g>
<g id="_x33__bitcoin_x2C__coin_x2C__exchange_x2C__block_x2C__chain_x2C__cryptocurrency">
</g>
<g id="_x32__brain_x2C__smart_x2C__coin_x2C__block_x2C__chain_x2C__cryptocurrency">
</g>
<g id="_x31__bitcoin_x2C__coin_x2C__block_x2C__chain_x2C__cryptocurrency">
</g>
</svg>
