<?xml version="1.0" encoding="utf-8"?>
<!-- Generator: Adobe Illustrator 16.0.0, SVG Export Plug-In . SVG Version: 6.00 Build 0)  -->
<!DOCTYPE svg PUBLIC "-//W3C//DTD SVG 1.1//EN" "http://www.w3.org/Graphics/SVG/1.1/DTD/svg11.dtd">
<svg version="1.1" xmlns="http://www.w3.org/2000/svg" xmlns:xlink="http://www.w3.org/1999/xlink" x="0px" y="0px" width="64px"
	 height="64px" viewBox="0 0 64 64" enable-background="new 0 0 64 64" xml:space="preserve">
<g id="_x35_0_code_x2C__programming_x2C__program_x2C__bitcoin_x2C__block_x2C__chain_x2C__cryptocurrency">
</g>
<g id="_x34_9_balloon_x2C__takeoff_x2C__bitcoin_x2C__coin_x2C__block_x2C__chain_x2C__cryptocurrency">
</g>
<g id="_x34_8_video_card_x2C__mining_x2C__farm_x2C__computer_x2C__block_x2C__chain_x2C__cryptocurrency">
</g>
<g id="_x34_7_money_box_x2C__saving_x2C__bitcoin_x2C__coin_x2C__block_x2C__chain_x2C__cryptocurrency">
</g>
<g id="_x34_6_portfolio_x2C__finance_x2C__bank_note_x2C__bitcoin_x2C__coin_x2C__cryptocurrency">
</g>
<g id="_x34_5_tap_x2C__water_x2C__bitcoin_x2C__coin_x2C__block_x2C__chain_x2C__cryptocurrency">
</g>
<g id="_x34_4_phone_x2C__bitcoin_x2C__coin_x2C__block_x2C__chain_x2C__cryptocurrency">
</g>
<g id="_x34_3_rocket_x2C__sun_x2C__bitcoin_x2C__coin_x2C__block_x2C__chain_x2C__cryptocurrency">
</g>
<g id="_x34_2_transfer_x2C__network_x2C__bitcoin_x2C__coin_x2C__block_x2C__chain_x2C__cryptocurrency">
</g>
<g id="_x34_1_scales_x2C__comparison_x2C__bitcoin_x2C__coin_x2C__block_x2C__chain_x2C__cryptocurrency">
</g>
<g id="_x34_0_calculator_x2C__calculating_x2C__bitcoin_x2C__coin_x2C__block_x2C__chain_x2C__cryptocurrency">
</g>
<g id="_x33_9_start-up_x2C__plant_x2C__hand_x2C__bitcoin_x2C__coin_x2C__cryptocurrency">
</g>
<g id="_x33_8_idea_x2C__bulb_x2C__bitcoin_x2C__coin_x2C__block_x2C__chain_x2C__cryptocurrency">
</g>
<g id="_x33_7_users_x2C__user_x2C__co-founder_x2C__bitcoin_x2C__coin_x2C__cryptocurrency">
</g>
<g id="_x33_6_safe_x2C__protection_x2C__bitcoin_x2C__coin_x2C__block_x2C__chain_x2C__cryptocurrency">
</g>
<g id="_x33_5_flash_drive_x2C__key_x2C__block_x2C__chain_x2C__cryptocurrency">
</g>
<g id="_x33_4_cloud_x2C__mining_x2C__bitcoin_x2C__coin_x2C__block_x2C__chain_x2C__cryptocurrency">
</g>
<g id="_x33_3_start_up_x2C__plant_x2C__bitcoin_x2C__coin_x2C__block_x2C__chain_x2C__cryptocurrency">
</g>
<g id="_x33_2_planet_x2C__bitcoin_x2C__coin_x2C__block_x2C__chain_x2C__cryptocurrency">
</g>
<g id="_x33_1_payment_x2C__hand_x2C__bitcoin_x2C__coin_x2C__block_x2C__chain_x2C__cryptocurrency">
</g>
<g id="_x33_0_user_x2C__laptop_x2C__bitcoin_x2C__coin_x2C__block_x2C__chain_x2C__cryptocurrency">
</g>
<g id="_x32_9_thief_x2C__bag_x2C__bitcoin_x2C__coin_x2C__block_x2C__chain_x2C__cryptocurrency">
</g>
<g id="_x32_8_code_x2C__programming_x2C__program_x2C__bitcoin_x2C__coin_x2C__cryptocurrency">
</g>
<g id="_x32_7_bitcoin_x2C__coin_x2C__block_x2C__chain_x2C__cryptocurrency">
</g>
<g id="_x32_6_shield_x2C__protection_x2C__bitcoin_x2C__coin_x2C__block_x2C__chain_x2C__cryptocurrency">
</g>
<g id="_x32_5_bug_x2C__laptop_x2C__miner_x2C__program_x2C__block_x2C__chain_x2C__cryptocurrency">
</g>
<g id="_x32_4_computer_x2C__monitor_x2C__bitcoin_x2C__coin_x2C__block_x2C__chain_x2C__cryptocurrency">
</g>
<g id="_x32_3_network_x2C__idea_x2C__bitcoin_x2C__coin_x2C__block_x2C__chain_x2C__cryptocurrency">
</g>
<g id="_x32_2_block_x2C__chain_x2C__cryptocurrency_x2C__technology_x2C__future">
</g>
<g id="_x32_1_smart_contact_x2C__contact_x2C__block_x2C__chain_x2C__cryptocurrency">
</g>
<g id="_x32_0_lock_x2C__safe_x2C__protection_x2C__block_x2C__chain_x2C__cryptocurrency_x2C__program">
</g>
<g id="_x31_9_server_x2C__data_x2C__bitcoin_x2C__coin_x2C__block_x2C__chain_x2C__cryptocurrency">
</g>
<g id="_x31_8_key_x2C__bitcoin_x2C__coin_x2C__block_x2C__chain_x2C__cryptocurrency">
</g>
<g id="_x31_7_pool_x2C__network_x2C__bitcoin_x2C__coin_x2C__block_x2C__chain_x2C__cryptocurrency">
</g>
<g id="_x31_6_mining_x2C__shovel_x2C__mine_x2C__coin_x2C__block_x2C__chain_x2C__cryptocurrency">
</g>
<g id="_x31_5_purse_x2C__bitcoin_x2C__coin_x2C__block_x2C__chain_x2C__cryptocurrency">
</g>
<g id="_x31_4_safe_x2C__protection_x2C__block_x2C__chain_x2C__cryptocurrency_x2C__program">
</g>
<g id="_x31_3_mining_x2C__funnel_x2C__satoshi_x2C__bitcoin_x2C__coin_x2C__cryptocurrency">
</g>
<g id="_x31_2_chart_x2C__bitcoin_x2C__coin_x2C__block_x2C__chain_x2C__cryptocurrency">
</g>
<g id="_x31_1_computer_x2C__monitor_x2C__bitcoin_x2C__coin_x2C__block_x2C__chain_x2C__cryptocurrency">
</g>
<g id="_x31_0_mining_x2C__pickaxe_x2C__stone_x2C__mine_x2C___bitcoin_x2C__coin_x2C__cryptocurrency">
</g>
<g id="_x39__miner_x2C__mining_x2C__computer_x2C__pickaxe_x2C__program_x2C__cryptocurrency">
</g>
<g id="_x38__video_card_x2C__mining_x2C__bitcoin_x2C__coin_x2C__block_x2C__chain_x2C__cryptocurrency">
</g>
<g id="_x37__exchanger_x2C__site_x2C__bitcoin_x2C__coin_x2C__block_x2C__chain_x2C__cryptocurrency">
</g>
<g id="_x36__shop_x2C__product_x2C__bitcoin_x2C__coin_x2C__block_x2C__chain_x2C__cryptocurrency">
</g>
<g id="_x35__bitcoin_x2C__coin_x2C__exchange_x2C__block_x2C__chain_x2C__cryptocurrency_x2C__product">
</g>
<g id="_x34__bitcoin_x2C__coin_x2C__exchange_x2C__block_x2C__chain_x2C__cryptocurrency">
	<g>
		<g>
			<path fill="#EDAB37" d="M56.984,54.5c-2.26,1.58-5.01,2.5-7.979,2.5c-2.99,0-5.75-0.93-8.021-2.52
				c-3.609-2.54-5.979-6.73-5.979-11.48v6c0,4.75,2.369,8.94,5.979,11.48c2.271,1.59,5.031,2.52,8.021,2.52
				c2.969,0,5.729-0.93,7.988-2.5c3.631-2.53,6.012-6.74,6.012-11.5v-6C63.006,47.77,60.625,51.98,56.984,54.5z"/>
		</g>
		<g>
			<polygon fill="#EDAB37" points="51.006,35 51.006,50 47.006,50 47.006,37.67 			"/>
		</g>
		<g>
			<path fill="#FFCE54" d="M56.984,54.5c-2.26,1.58-5.01,2.5-7.979,2.5c-2.99,0-5.75-0.93-8.021-2.52
				c-3.609-2.54-5.979-6.73-5.979-11.48c0-7.73,6.27-14,14-14c7.729,0,14,6.27,14,14C63.006,47.77,60.625,51.98,56.984,54.5z
				 M51.006,50V35l-4,2.67V50H51.006z"/>
		</g>
		<g>
			<g>
				<path fill="#F6BB42" d="M49.006,29c-0.682,0-1.346,0.065-2,0.159c6.779,0.974,12,6.791,12,13.841c0,4.77-2.381,8.98-6.021,11.5
					c-1.742,1.219-3.777,2.039-5.979,2.353c0.652,0.094,1.318,0.147,2,0.147c2.969,0,5.719-0.92,7.979-2.5
					c3.641-2.52,6.021-6.73,6.021-11.5C63.006,35.27,56.734,29,49.006,29z"/>
			</g>
		</g>
		<g>
			<path fill="#EDAB37" d="M22.975,26.5c-2.27,1.58-5.02,2.5-7.98,2.5c-2.979,0-5.738-0.93-8.01-2.53
				c-3.619-2.52-5.99-6.72-5.99-11.47v6c0,4.75,2.361,8.94,5.98,11.47c2.27,1.59,5.041,2.53,8.02,2.53c2.971,0,5.721-0.93,7.99-2.51
				c3.631-2.521,6.01-6.73,6.01-11.49v-6C28.994,19.76,26.615,23.97,22.975,26.5z"/>
		</g>
		<g>
			<path fill="#FFCE54" d="M22.975,26.5c-2.27,1.58-5.02,2.5-7.98,2.5c-2.979,0-5.738-0.93-8.01-2.53
				c-3.619-2.52-5.99-6.72-5.99-11.47c0-7.73,6.271-14,14-14c7.73,0,14,6.27,14,14C28.994,19.76,26.615,23.97,22.975,26.5z
				 M16.016,22c2.209,0,4-1.79,4-4s-1.791-4-4-4c1.66,0,3-1.34,3-3s-1.34-3-3-3h-1h-3h-1v6v8h1h3H16.016z"/>
		</g>
		<g>
			<g>
				<path fill="#F6BB42" d="M14.994,1c-0.68,0-1.344,0.065-2,0.159c6.781,0.974,12,6.791,12,13.841c0,4.76-2.379,8.97-6.02,11.5
					c-1.748,1.217-3.783,2.037-5.979,2.352C13.648,28.945,14.314,29,14.994,29c2.961,0,5.711-0.92,7.98-2.5
					c3.641-2.53,6.02-6.74,6.02-11.5C28.994,7.27,22.725,1,14.994,1z"/>
			</g>
		</g>
		<g>
			<path fill="#EDAB37" d="M16.016,8c1.66,0,3,1.34,3,3s-1.34,3-3,3h-5V8h1h3H16.016z"/>
		</g>
		<g>
			<path fill="#EDAB37" d="M16.016,14c2.209,0,4,1.79,4,4s-1.791,4-4,4h-1h-3h-1v-8H16.016z"/>
		</g>
	</g>
	<g>
		<g>
			<g>
				<path d="M49.006,58c-8.271,0-15-6.729-15-15s6.729-15,15-15s15,6.729,15,15S57.277,58,49.006,58z M49.006,30
					c-7.168,0-13,5.832-13,13s5.832,13,13,13s13-5.832,13-13S56.174,30,49.006,30z"/>
			</g>
			<g>
				<path d="M49.006,64c-8.271,0-15-6.729-15-15c0-0.553,0.447-1,1-1s1,0.447,1,1c0,7.168,5.832,13,13,13s13-5.832,13-13
					c0-0.553,0.447-1,1-1s1,0.447,1,1C64.006,57.271,57.277,64,49.006,64z"/>
			</g>
			<g>
				<path d="M63.004,50c-0.553,0-1-0.447-1-1v-6c0-0.553,0.447-1,1-1s1,0.447,1,1v6C64.004,49.553,63.557,50,63.004,50z"/>
			</g>
			<g>
				<path d="M35.004,50c-0.553,0-1-0.447-1-1v-6c0-0.553,0.447-1,1-1s1,0.447,1,1v6C36.004,49.553,35.557,50,35.004,50z"/>
			</g>
			<g>
				<path d="M49.006,64c-0.553,0-1-0.447-1-1v-6c0-0.553,0.447-1,1-1s1,0.447,1,1v6C50.006,63.553,49.559,64,49.006,64z"/>
			</g>
			<g>
				<path d="M40.988,61.479c-0.553,0-1-0.447-1-1v-6c0-0.553,0.447-1,1-1s1,0.447,1,1v6C41.988,61.031,41.541,61.479,40.988,61.479z
					"/>
			</g>
			<g>
				<path d="M56.988,61.479c-0.553,0-1-0.447-1-1v-6c0-0.553,0.447-1,1-1s1,0.447,1,1v6C57.988,61.031,57.541,61.479,56.988,61.479z
					"/>
			</g>
		</g>
		<g>
			<g>
				<g>
					<path d="M14.996,30c-8.271,0-15-6.729-15-15s6.729-15,15-15s15,6.729,15,15S23.268,30,14.996,30z M14.996,2
						c-7.168,0-13,5.832-13,13s5.832,13,13,13s13-5.832,13-13S22.164,2,14.996,2z"/>
				</g>
				<g>
					<path d="M14.996,36c-8.271,0-15-6.729-15-15c0-0.552,0.447-1,1-1s1,0.448,1,1c0,7.168,5.832,13,13,13s13-5.832,13-13
						c0-0.552,0.447-1,1-1s1,0.448,1,1C29.996,29.271,23.268,36,14.996,36z"/>
				</g>
				<g>
					<path d="M28.994,22c-0.553,0-1-0.448-1-1v-6c0-0.552,0.447-1,1-1s1,0.448,1,1v6C29.994,21.552,29.547,22,28.994,22z"/>
				</g>
				<g>
					<path d="M0.994,22c-0.553,0-1-0.448-1-1v-6c0-0.552,0.447-1,1-1s1,0.448,1,1v6C1.994,21.552,1.547,22,0.994,22z"/>
				</g>
				<g>
					<path d="M14.996,36c-0.553,0-1-0.447-1-1v-6c0-0.552,0.447-1,1-1s1,0.448,1,1v6C15.996,35.553,15.549,36,14.996,36z"/>
				</g>
				<g>
					<path d="M6.979,33.479c-0.553,0-1-0.447-1-1v-6c0-0.552,0.447-1,1-1s1,0.448,1,1v6C7.979,33.031,7.531,33.479,6.979,33.479z"/>
				</g>
				<g>
					<path d="M22.979,33.479c-0.553,0-1-0.447-1-1v-6c0-0.552,0.447-1,1-1s1,0.448,1,1v6C23.979,33.031,23.531,33.479,22.979,33.479
						z"/>
				</g>
			</g>
			<g>
				<g>
					<path d="M11.014,23c-0.553,0-1-0.448-1-1V8c0-0.552,0.447-1,1-1s1,0.448,1,1v14C12.014,22.552,11.566,23,11.014,23z"/>
				</g>
				<g>
					<path d="M16.014,15c-0.553,0-1-0.448-1-1s0.447-1,1-1c1.103,0,2-0.897,2-2s-0.897-2-2-2c-0.553,0-1-0.448-1-1s0.447-1,1-1
						c2.206,0,4,1.794,4,4S18.22,15,16.014,15z"/>
				</g>
				<g>
					<path d="M16.014,23c-0.553,0-1-0.448-1-1s0.447-1,1-1c1.654,0,3-1.346,3-3s-1.346-3-3-3c-0.553,0-1-0.448-1-1s0.447-1,1-1
						c2.757,0,5,2.243,5,5S18.771,23,16.014,23z"/>
				</g>
				<g>
					<path d="M16.014,9h-6c-0.553,0-1-0.448-1-1s0.447-1,1-1h6c0.553,0,1,0.448,1,1S16.566,9,16.014,9z"/>
				</g>
				<g>
					<path d="M16.014,15h-5c-0.553,0-1-0.448-1-1s0.447-1,1-1h5c0.553,0,1,0.448,1,1S16.566,15,16.014,15z"/>
				</g>
				<g>
					<path d="M16.514,23h-6.5c-0.553,0-1-0.448-1-1s0.447-1,1-1h6.5c0.553,0,1,0.448,1,1S17.066,23,16.514,23z"/>
				</g>
				<g>
					<path d="M12.014,9c-0.553,0-1-0.448-1-1V7c0-0.552,0.447-1,1-1s1,0.448,1,1v1C13.014,8.552,12.566,9,12.014,9z"/>
				</g>
				<g>
					<path d="M15.014,9c-0.553,0-1-0.448-1-1V7c0-0.552,0.447-1,1-1s1,0.448,1,1v1C16.014,8.552,15.566,9,15.014,9z"/>
				</g>
				<g>
					<path d="M12.014,24c-0.553,0-1-0.448-1-1v-1c0-0.552,0.447-1,1-1s1,0.448,1,1v1C13.014,23.552,12.566,24,12.014,24z"/>
				</g>
				<g>
					<path d="M15.014,24c-0.553,0-1-0.448-1-1v-1c0-0.552,0.447-1,1-1s1,0.448,1,1v1C16.014,23.552,15.566,24,15.014,24z"/>
				</g>
			</g>
		</g>
		<g>
			<g>
				<path d="M45.005,40c-0.323,0-0.641-0.156-0.833-0.445c-0.307-0.46-0.183-1.08,0.277-1.387l6-4
					c0.46-0.306,1.08-0.183,1.387,0.277s0.183,1.08-0.277,1.387l-6,4C45.388,39.945,45.195,40,45.005,40z"/>
			</g>
			<g>
				<path d="M51.004,51c-0.553,0-1-0.447-1-1V35c0-0.553,0.447-1,1-1s1,0.447,1,1v15C52.004,50.553,51.557,51,51.004,51z"/>
			</g>
			<g>
				<path d="M47.004,51c-0.553,0-1-0.447-1-1V37.667c0-0.553,0.447-1,1-1s1,0.447,1,1V50C48.004,50.553,47.557,51,47.004,51z"/>
			</g>
			<g>
				<path d="M53.004,51h-8c-0.553,0-1-0.447-1-1s0.447-1,1-1h8c0.553,0,1,0.447,1,1S53.557,51,53.004,51z"/>
			</g>
		</g>
		<g>
			<g>
				<path d="M14.996,47c-0.553,0-1-0.447-1-1v-7c0-0.553,0.447-1,1-1s1,0.447,1,1v7C15.996,46.553,15.549,47,14.996,47z"/>
			</g>
			<g>
				<path d="M30.996,47h-16c-0.553,0-1-0.447-1-1s0.447-1,1-1h16c0.553,0,1,0.447,1,1S31.549,47,30.996,47z"/>
			</g>
			<g>
				<path d="M27.996,50c-0.256,0-0.512-0.098-0.707-0.293c-0.391-0.391-0.391-1.023,0-1.414l3-3c0.391-0.391,1.023-0.391,1.414,0
					s0.391,1.023,0,1.414l-3,3C28.508,49.902,28.252,50,27.996,50z"/>
			</g>
			<g>
				<path d="M30.996,47c-0.256,0-0.512-0.098-0.707-0.293l-3-3c-0.391-0.391-0.391-1.023,0-1.414s1.023-0.391,1.414,0l3,3
					c0.391,0.391,0.391,1.023,0,1.414C31.508,46.902,31.252,47,30.996,47z"/>
			</g>
		</g>
		<g>
			<g>
				<path d="M48.996,26c-0.553,0-1-0.448-1-1v-7c0-0.552,0.447-1,1-1s1,0.448,1,1v7C49.996,25.552,49.549,26,48.996,26z"/>
			</g>
			<g>
				<path d="M48.996,19h-16c-0.553,0-1-0.448-1-1s0.447-1,1-1h16c0.553,0,1,0.448,1,1S49.549,19,48.996,19z"/>
			</g>
			<g>
				<path d="M32.996,19c-0.256,0-0.512-0.098-0.707-0.293c-0.391-0.391-0.391-1.023,0-1.414l3-3c0.391-0.391,1.023-0.391,1.414,0
					s0.391,1.023,0,1.414l-3,3C33.508,18.902,33.252,19,32.996,19z"/>
			</g>
			<g>
				<path d="M35.996,22c-0.256,0-0.512-0.098-0.707-0.293l-3-3c-0.391-0.391-0.391-1.023,0-1.414s1.023-0.391,1.414,0l3,3
					c0.391,0.391,0.391,1.023,0,1.414C36.508,21.902,36.252,22,35.996,22z"/>
			</g>
		</g>
	</g>
</g>
<g id="_x33__bitcoin_x2C__coin_x2C__exchange_x2C__block_x2C__chain_x2C__cryptocurrency">
</g>
<g id="_x32__brain_x2C__smart_x2C__coin_x2C__block_x2C__chain_x2C__cryptocurrency">
</g>
<g id="_x31__bitcoin_x2C__coin_x2C__block_x2C__chain_x2C__cryptocurrency">
</g>
</svg>
