<svg xmlns="http://www.w3.org/2000/svg" x="0" y="0" xml:space="preserve" viewBox="0 0 64 64"><path fill="#EDAB37" d="M36.975 19.66c-1.471.851-3.17 1.34-4.99 1.34s-3.52-.489-4.99-1.34a9.956 9.956 0 0 1-5.01-8.66v4c0 3.7 2.01 6.931 5 8.66 1.471.851 3.18 1.34 5 1.34s3.531-.489 5-1.34c2.99-1.729 5-4.96 5-8.66v-4a9.979 9.979 0 0 1-5.01 8.66zM31.984 6h1a2 2 0 1 1 0 4h-3V6h2z"/><path fill="#EDAB37" d="M33.484 10a2.5 2.5 0 0 1 0 5h-3.5v-5h3.5z"/><path fill="#FFCE54" d="M33.484 15a2.5 2.5 0 1 0 0-5h-.5a2 2 0 1 0 0-4h-3v9h3.5zm8.5-4c0 3.711-2.02 6.94-5.01 8.66-1.471.851-3.17 1.34-4.99 1.34s-3.52-.489-4.99-1.34a9.956 9.956 0 0 1-5.01-8.66c0-5.52 4.471-10 10-10 5.52 0 10 4.48 10 10z"/><path fill="#F6BB42" d="M31.984 1c-.686 0-1.354.069-2.002.201 4.564.927 8.002 4.964 8.002 9.799 0 3.711-2.02 6.94-5.01 8.66a9.946 9.946 0 0 1-2.99 1.116 9.914 9.914 0 0 0 2 .224c1.82 0 3.52-.489 4.99-1.34a9.976 9.976 0 0 0 5.01-8.66c0-5.52-4.48-10-10-10z"/><path fill="#EAC6BB" d="M23.016 42.011c0 3.529-2.041 6.58-5 8.05a8.93 8.93 0 0 1-4 .939 8.93 8.93 0 0 1-4-.939 8.974 8.974 0 0 1-5-8v-3.03l3-2.03s3.01 1 6.5 1c3.488 0 5.5-1 5.5-1l3 2.03v2.98z"/><path fill="#D3B1A9" d="M20.016 37s-.357.17-1 .369v4.642c0 3.529-2.041 6.58-5 8.05a8.92 8.92 0 0 1-2 .711 8.943 8.943 0 0 0 6-.71c2.959-1.47 5-4.521 5-8.05v-2.98l-3-2.032z"/><path fill="#F5F7FA" d="m14.016 54-2 1-2-1v-3.94c1.199.6 2.559.939 4 .939 1.439 0 2.799-.34 4-.939V54l-2 1-2-1z"/><path fill="#5D9CEC" d="m16.016 55 2-1h3c2.77 0 5 2.24 5 5v3c0 .561-.451 1-1 1h-22c-.551 0-1-.439-1-1v-3a5 5 0 0 1 5-5h3l2 1 2-1 2 1z"/><path fill="#4A89DC" d="M21.016 54h-3l-.168.084A4.984 4.984 0 0 1 22.016 59v3c0 .561-.451 1-1 1h4c.549 0 1-.439 1-1v-3c0-2.76-2.231-5-5-5z"/><path fill="#F5F7FA" d="M49.984 51c1.43 0 2.801-.34 4-.939V54l-2 1-2-1-2 1-2-1v-3.93c1.211.59 2.561.93 4 .93z"/><path fill="#E6E9ED" d="M61.984 59v3c0 .561-.449 1-1 1h-22a.99.99 0 0 1-1-1v-3c0-2.76 2.23-5 5-5h3l2 1 2-1 2 1 2-1h3c2.76 0 5 2.24 5 5z"/><path fill="#CCD1D9" d="M56.984 54h-3l-.168.084c2.363.398 4.168 2.441 4.168 4.916v3c0 .561-.449 1-1 1h4c.551 0 1-.439 1-1v-3c0-2.76-2.24-5-5-5z"/><path fill="#EAC6BB" d="M40.984 41.961v-4.32c7.08.87 10.34-1.46 13-1.8 1.641-.21 3.061.34 5 2.88v3.29a8.985 8.985 0 0 1-5 8.05c-1.199.6-2.57.939-4 .939a9.091 9.091 0 0 1-4-.93 8.973 8.973 0 0 1-5-8.06v-.049z"/><path fill="#D3B1A9" d="M54.984 35.83v6.181a8.985 8.985 0 0 1-7.004 8.761 8.966 8.966 0 0 0 6.004-.711 8.985 8.985 0 0 0 5-8.05v-3.29c-1.537-2.012-2.748-2.765-4-2.891z"/><path fill="#F6BB42" d="M58.984 37.5v1.221c-1.939-2.54-3.359-3.09-5-2.88l3-4.17a9.47 9.47 0 0 1 2 5.829z"/><path fill="#FFCE54" d="m56.984 31.671-3 4.17c-2.66.34-5.92 2.67-13 1.8-.33-.04-.66-.09-1-.141 0-5.239 4.25-9.5 9.5-9.5 3.041 0 5.76 1.44 7.5 3.671z"/><path fill="#F6BB42" d="M53.141 31.671a9.483 9.483 0 0 1 1.6 3.12l2.244-3.12a9.507 9.507 0 0 0-9.453-3.468 9.527 9.527 0 0 1 5.609 3.468z"/><path fill="#EDAB37" d="m56.984 31.671-2.244 3.12c.102.34.188.685.252 1.039l.004.001c.139.015.279.039.418.07.033.007.066.016.098.024.133.033.266.072.398.123.033.012.066.029.1.043.225.093.453.214.684.362.068.044.139.083.209.133.092.065.188.144.281.219a6.495 6.495 0 0 1 .565.502c.125.121.252.254.379.394.074.079.146.155.221.241.207.237.418.492.637.778V37.5a9.483 9.483 0 0 0-2.002-5.829z"/><path fill="#965353" d="M23.016 36v3.03l-3-2.03s-2.012 1-5.5 1c-3.49 0-6.5-1-6.5-1l-3 2.03V36c0-4.42 3.58-8 8-8h6v4a4 4 0 0 1 4 4z"/><path fill="#844646" d="M19.016 32v-4h-4v6c2.209 0 4 .79 4 3v.369c.643-.199 1-.369 1-.369l3 2.03V36a4 4 0 0 0-4-4z"/><g><path d="M31.982 22c-6.065 0-11-4.935-11-11s4.935-11 11-11 11 4.935 11 11-4.934 11-11 11zm0-20c-4.963 0-9 4.037-9 9s4.037 9 9 9 9-4.037 9-9-4.037-9-9-9z"/><path d="M31.982 25.999c-6.065 0-11-4.935-11-11a1 1 0 1 1 2 0c0 4.963 4.037 9 9 9s9-4.037 9-9a1 1 0 1 1 2 0c0 6.065-4.934 11-11 11z"/><path d="M41.982 15.999a1 1 0 0 1-1-1V11a1 1 0 1 1 2 0v3.999a1 1 0 0 1-1 1zM29.982 16a1 1 0 0 1-1-1V6a1 1 0 1 1 2 0v9a1 1 0 0 1-1 1zM32.982 10.999a1 1 0 1 1 0-2 1 1 0 0 0 0-1.999 1 1 0 1 1 0-2c1.654 0 3 1.346 3 2.999 0 1.654-1.345 3-3 3z"/><path d="M33.481 16a1 1 0 1 1 0-2c.827 0 1.501-.673 1.501-1.5 0-.828-.674-1.502-1.501-1.502a1 1 0 1 1 0-2 3.505 3.505 0 0 1 3.501 3.502c0 1.93-1.57 3.5-3.501 3.5zM32.982 7h-4a1 1 0 1 1 0-2h4a1 1 0 1 1 0 2z"/><path d="M33.481 16h-4.499a1 1 0 1 1 0-2h4.499a1 1 0 1 1 0 2zM29.982 11a1 1 0 0 1-.001-2l3.499-.002h.001a1 1 0 0 1 .001 2l-3.5.002zM31.982 7a1 1 0 0 1-1-1V4.999a1 1 0 1 1 2 0V6a1 1 0 0 1-1 1z"/><path d="M31.982 17a1 1 0 0 1-1-1v-1a1 1 0 1 1 2 0v1a1 1 0 0 1-1 1z"/><g><path d="M31.982 25.999a1 1 0 0 1-1-1V21a1 1 0 1 1 2 0v3.999a1 1 0 0 1-1 1z"/></g><g><path d="M36.982 24.66a1 1 0 0 1-1-1v-3.998a1 1 0 1 1 2 0v3.998a1 1 0 0 1-1 1z"/></g><g><path d="M26.982 24.66a1 1 0 0 1-1-1v-3.998a1 1 0 1 1 2 0v3.998a1 1 0 0 1-1 1z"/></g><g><path d="M21.982 15.999a1 1 0 0 1-1-1V11a1 1 0 1 1 2 0v3.999a1 1 0 0 1-1 1z"/></g><g><path d="M2.018 60a1 1 0 0 1-1-1c0-3.309 2.691-6 6-6a1 1 0 1 1 0 2c-2.206 0-4 1.794-4 4a1 1 0 0 1-1 1z"/><path d="M10.018 55h-3a1 1 0 1 1 0-2h3a1 1 0 1 1 0 2zM2.018 63a1 1 0 0 1-1-1v-3a1 1 0 1 1 2 0v3a1 1 0 0 1-1 1z"/><path d="M3.018 64c-1.103 0-2-.897-2-2 0-.531.418-.914.948-.943.558-.046.992.416 1.052.942a1 1 0 0 1 0 2.001zM26.018 60a1 1 0 0 1-1-1c0-2.206-1.794-4-4-4a1 1 0 1 1 0-2c3.309 0 6 2.691 6 6a1 1 0 0 1-1 1z"/><path d="M21.018 55h-3a1 1 0 1 1 0-2h3a1 1 0 1 1 0 2zM26.018 63a1 1 0 0 1-1-1v-3a1 1 0 1 1 2 0v3a1 1 0 0 1-1 1z"/><path d="M25.018 64a1 1 0 1 1 0-2 1 1 0 1 1 2 0c0 1.103-.898 2-2 2z"/><path d="M25.018 64h-22a1 1 0 1 1 0-2h22a1 1 0 1 1 0 2zM10.018 55a1 1 0 0 1-1-1v-3.936a1 1 0 1 1 2 0V54a1 1 0 0 1-1 1zM18.018 55a1 1 0 0 1-1-1v-3.936a1 1 0 1 1 2 0V54a1 1 0 0 1-1 1z"/><path d="M14.017 52c-5.514 0-9.999-4.485-9.999-9.998a1 1 0 1 1 2 0c0 4.41 3.588 7.998 7.999 7.998 4.412 0 8.001-3.588 8.001-7.998a1 1 0 1 1 2 0c0 5.513-4.487 9.998-10.001 9.998z"/><path d="M5.018 43.051a1 1 0 0 1-1-1V36a1 1 0 1 1 2 0v6.051a1 1 0 0 1-1 1zM23.018 43.002a1 1 0 0 1-1-1V36a1 1 0 1 1 2 0v6.002a1 1 0 0 1-1 1z"/><path d="M23.018 36.999a1 1 0 0 1-1-1 3.003 3.003 0 0 0-3-2.999 1 1 0 1 1 0-2c2.757 0 5 2.242 5 4.999a1 1 0 0 1-1 1z"/><path d="M19.018 33a1 1 0 0 1-1-1v-4a1 1 0 1 1 2 0v4a1 1 0 0 1-1 1z"/><path d="M19.018 29h-6a1 1 0 1 1 0-2h6a1 1 0 1 1 0 2z"/><path d="M5.018 37a1 1 0 0 1-1-1c0-4.963 4.037-9 9-9a1 1 0 1 1 0 2c-3.859 0-7 3.141-7 7a1 1 0 0 1-1 1zM23.017 40.025c-.192 0-.387-.056-.559-.171l-3-2.025a1.002 1.002 0 0 1-.27-1.389c.309-.457.93-.577 1.389-.27l3 2.025a1.002 1.002 0 0 1-.56 1.83z"/><path d="M14.518 39c-3.612 0-6.687-1.008-6.815-1.051a1 1 0 0 1 .63-1.899c.028.011 2.907.95 6.185.95 3.178 0 5.04-.888 5.059-.897.494-.241 1.094-.037 1.337.457s.043 1.09-.449 1.336C20.373 37.94 18.203 39 14.518 39z"/><path d="M5.019 40.025a1 1 0 0 1-.561-1.829l3-2.025a1.001 1.001 0 0 1 1.119 1.659l-3 2.025a1 1 0 0 1-.558.17zM12.017 56c-.15 0-.303-.034-.446-.105l-2-1a1 1 0 0 1 .895-1.789l2 1A1 1 0 0 1 12.017 56z"/><path d="M12.019 56a1 1 0 0 1-.449-1.895l2-1a1.001 1.001 0 0 1 .895 1.789l-2 1a.994.994 0 0 1-.446.106z"/><g><path d="M16.019 56a1 1 0 0 1-.449-1.895l2-1a1 1 0 0 1 .895 1.789l-2 1a.994.994 0 0 1-.446.106z"/></g><g><path d="M16.017 56c-.15 0-.303-.034-.446-.105l-2-1a1 1 0 0 1 .895-1.789l2 1A1 1 0 0 1 16.017 56z"/></g></g><g><path d="M40.982 42.96a1 1 0 0 1-1-1v-4.32a1 1 0 1 1 2 0v4.32a1 1 0 0 1-1 1zM58.982 43a1 1 0 0 1-1-1v-4.501a1 1 0 1 1 2 0V42a1 1 0 0 1-1 1z"/><path d="M58.982 38.499a1 1 0 0 1-1-1c0-4.687-3.813-8.499-8.501-8.499-4.687 0-8.499 3.813-8.499 8.499a1 1 0 1 1-2 0C38.982 31.71 43.692 27 49.481 27c5.79 0 10.501 4.71 10.501 10.499a1 1 0 0 1-1 1z"/><path d="M58.552 39.716a.999.999 0 0 1-.795-.392c-2.406-3.143-3.422-2.8-6.13-1.887-2.484.837-5.884 1.986-11.801 1.049a1 1 0 0 1-.831-1.144.998.998 0 0 1 1.144-.831c5.423.854 8.562-.198 10.851-.97 3.245-1.093 5.232-1.513 8.355 2.565a1 1 0 0 1-.793 1.61z"/><path d="M53.981 36.794a.999.999 0 0 1-.808-1.587l3-4.126a.999.999 0 1 1 1.617 1.175l-3 4.126a.994.994 0 0 1-.809.412zM37.982 60a1 1 0 0 1-1-1c0-3.309 2.691-6 6-6a1 1 0 1 1 0 2c-2.206 0-4 1.794-4 4a1 1 0 0 1-1 1z"/><path d="M45.982 55h-3a1 1 0 1 1 0-2h3a1 1 0 1 1 0 2zM37.982 63a1 1 0 0 1-1-1v-3a1 1 0 1 1 2 0v3a1 1 0 0 1-1 1z"/><path d="M38.982 64c-1.103 0-2-.897-2-2 0-.531.418-.914.948-.943.548-.046.993.416 1.052.942a1 1 0 0 1 0 2.001zM61.982 60a1 1 0 0 1-1-1c0-2.206-1.794-4-4-4a1 1 0 1 1 0-2c3.309 0 6 2.691 6 6a1 1 0 0 1-1 1z"/><path d="M56.982 55h-3a1 1 0 1 1 0-2h3a1 1 0 1 1 0 2zM61.982 63a1 1 0 0 1-1-1v-3a1 1 0 1 1 2 0v3a1 1 0 0 1-1 1z"/><path d="M60.982 64a1 1 0 1 1 0-2 1 1 0 1 1 2 0c0 1.103-.897 2-2 2z"/><path d="M60.982 64h-22a1 1 0 1 1 0-2h22a1 1 0 1 1 0 2zM45.982 55a1 1 0 0 1-1-1v-3.936a1 1 0 1 1 2 0V54a1 1 0 0 1-1 1zM53.982 55a1 1 0 0 1-1-1v-3.936a1 1 0 1 1 2 0V54a1 1 0 0 1-1 1z"/><path d="M49.981 52c-5.514 0-9.999-4.485-9.999-9.998a1 1 0 1 1 2 0c0 4.41 3.588 7.998 7.999 7.998 4.412 0 8.001-3.588 8.001-7.998a1 1 0 1 1 2 0c0 5.513-4.486 9.998-10.001 9.998zM47.981 56c-.15 0-.303-.034-.446-.105l-2-1a1 1 0 0 1 .895-1.789l2 1A1 1 0 0 1 47.981 56z"/><path d="M47.983 56a1 1 0 0 1-.449-1.895l2-1a1 1 0 0 1 .895 1.789l-2 1a.988.988 0 0 1-.446.106zM51.983 56a1 1 0 0 1-.449-1.895l2-1a1 1 0 0 1 .895 1.789l-2 1a.988.988 0 0 1-.446.106z"/><path d="M51.981 56c-.15 0-.303-.034-.446-.105l-2-1a1 1 0 0 1 .895-1.789l2 1A1 1 0 0 1 51.981 56z"/></g><g><path d="M49.982 25a1 1 0 0 1-1-1V11a1 1 0 1 1 2 0v13a1 1 0 0 1-1 1z"/></g><g><path d="M49.982 12h-4a1 1 0 1 1 0-2h4a1 1 0 1 1 0 2z"/></g><g><path d="M13.982 25a1 1 0 0 1-1-1V11a1 1 0 1 1 2 0v13a1 1 0 0 1-1 1z"/></g><g><path d="M17.982 12h-4a1 1 0 1 1 0-2h4a1 1 0 1 1 0 2z"/></g></g></svg>