<?xml version="1.0" encoding="utf-8"?>
<!-- Generator: Adobe Illustrator 16.0.0, SVG Export Plug-In . SVG Version: 6.00 Build 0)  -->
<!DOCTYPE svg PUBLIC "-//W3C//DTD SVG 1.1//EN" "http://www.w3.org/Graphics/SVG/1.1/DTD/svg11.dtd">
<svg version="1.1" xmlns="http://www.w3.org/2000/svg" xmlns:xlink="http://www.w3.org/1999/xlink" x="0px" y="0px" width="64px"
	 height="64px" viewBox="0 0 64 64" enable-background="new 0 0 64 64" xml:space="preserve">
<g id="_x35_0_code_x2C__programming_x2C__program_x2C__bitcoin_x2C__block_x2C__chain_x2C__cryptocurrency">
</g>
<g id="_x34_9_balloon_x2C__takeoff_x2C__bitcoin_x2C__coin_x2C__block_x2C__chain_x2C__cryptocurrency">
</g>
<g id="_x34_8_video_card_x2C__mining_x2C__farm_x2C__computer_x2C__block_x2C__chain_x2C__cryptocurrency">
</g>
<g id="_x34_7_money_box_x2C__saving_x2C__bitcoin_x2C__coin_x2C__block_x2C__chain_x2C__cryptocurrency">
</g>
<g id="_x34_6_portfolio_x2C__finance_x2C__bank_note_x2C__bitcoin_x2C__coin_x2C__cryptocurrency">
</g>
<g id="_x34_5_tap_x2C__water_x2C__bitcoin_x2C__coin_x2C__block_x2C__chain_x2C__cryptocurrency">
</g>
<g id="_x34_4_phone_x2C__bitcoin_x2C__coin_x2C__block_x2C__chain_x2C__cryptocurrency">
</g>
<g id="_x34_3_rocket_x2C__sun_x2C__bitcoin_x2C__coin_x2C__block_x2C__chain_x2C__cryptocurrency">
</g>
<g id="_x34_2_transfer_x2C__network_x2C__bitcoin_x2C__coin_x2C__block_x2C__chain_x2C__cryptocurrency">
</g>
<g id="_x34_1_scales_x2C__comparison_x2C__bitcoin_x2C__coin_x2C__block_x2C__chain_x2C__cryptocurrency">
</g>
<g id="_x34_0_calculator_x2C__calculating_x2C__bitcoin_x2C__coin_x2C__block_x2C__chain_x2C__cryptocurrency">
</g>
<g id="_x33_9_start-up_x2C__plant_x2C__hand_x2C__bitcoin_x2C__coin_x2C__cryptocurrency">
</g>
<g id="_x33_8_idea_x2C__bulb_x2C__bitcoin_x2C__coin_x2C__block_x2C__chain_x2C__cryptocurrency">
</g>
<g id="_x33_7_users_x2C__user_x2C__co-founder_x2C__bitcoin_x2C__coin_x2C__cryptocurrency">
</g>
<g id="_x33_6_safe_x2C__protection_x2C__bitcoin_x2C__coin_x2C__block_x2C__chain_x2C__cryptocurrency">
	<g>
		<g>
			<rect x="46.5" y="59.99" fill="#353B44" width="8" height="3"/>
		</g>
		<g>
			<rect x="9.5" y="59.99" fill="#353B44" width="8" height="3"/>
		</g>
		<g>
			<path fill="#EDAB37" d="M33,6.01c0.83,0,1.5,0.67,1.5,1.5c0,0.82-0.67,1.5-1.5,1.5h-2.5v-3h1H33z"/>
		</g>
		<g>
			<path fill="#EDAB37" d="M33.5,9.01c1.1,0,2,0.891,2,2c0,1.1-0.9,2-2,2h-2h-1v-4H33H33.5z"/>
		</g>
		<g>
			<path fill="#FFCE54" d="M33.5,13.01c1.1,0,2-0.9,2-2c0-1.109-0.9-2-2-2H33c0.83,0,1.5-0.68,1.5-1.5c0-0.83-0.67-1.5-1.5-1.5h-1.5
				h-1v3v4h1H33.5z M40.5,9.51c0,4.689-3.811,8.5-8.5,8.5c-4.7,0-8.5-3.811-8.5-8.5c0-4.699,3.8-8.5,8.5-8.5
				C36.689,1.01,40.5,4.811,40.5,9.51z"/>
		</g>
		<g>
			<g>
				<path fill="#F6BB42" d="M32,1.01c-0.691,0-1.358,0.092-2.002,0.246c3.726,0.9,6.502,4.246,6.502,8.254
					c0,4-2.776,7.352-6.502,8.254C30.642,17.92,31.309,18.01,32,18.01c4.689,0,8.5-3.811,8.5-8.5C40.5,4.811,36.689,1.01,32,1.01z"
					/>
			</g>
		</g>
		<g>
			<path fill="#EDAB37" d="M32,18.01c4.689,0,8.5-3.811,8.5-8.5v4c0,1.65-0.471,3.189-1.29,4.5c-0.78,1.25-1.891,2.291-3.21,3
				h-8.011c-1.319-0.709-2.42-1.75-3.199-3c-0.82-1.311-1.29-2.85-1.29-4.5v-4C23.5,14.199,27.3,18.01,32,18.01z"/>
		</g>
		<g>
			<rect x="54.5" y="46.99" fill="#434A54" width="4" height="4"/>
		</g>
		<g>
			<rect x="54.5" y="33.01" fill="#434A54" width="4" height="4"/>
		</g>
		<g>
			<rect x="54.5" y="37.01" fill="#353B44" width="4" height="9.98"/>
		</g>
		<g>
			<path fill="#AAB2BD" d="M22.5,34.01c4.42,0,8,3.58,8,8s-3.58,8-8,8s-8-3.58-8-8S18.08,34.01,22.5,34.01z M22.5,45.99
				c2.21,0,4-1.791,4-4c0-2.211-1.79-4-4-4c-1.11,0-2.11,0.449-2.83,1.17s-1.17,1.721-1.17,2.83s0.45,2.1,1.17,2.82v0.01
				C20.39,45.539,21.39,45.99,22.5,45.99z"/>
		</g>
		<g>
			<path fill="#CCD1D9" d="M22.5,37.99c2.21,0,4,1.789,4,4c0,2.209-1.79,4-4,4c-1.11,0-2.11-0.451-2.83-1.17v-0.01
				c-0.72-0.721-1.17-1.711-1.17-2.82s0.45-2.109,1.17-2.83S21.39,37.99,22.5,37.99z"/>
		</g>
		<g>
			<path fill="#656D78" d="M54.5,50.99v5h-45v-28h45v5.02v4v9.98V50.99z M30.5,42.01c0-4.42-3.58-8-8-8s-8,3.58-8,8s3.58,8,8,8
				S30.5,46.43,30.5,42.01z"/>
		</g>
		<g>
			<path fill="#292E35" d="M39.21,18.01H52.5l6,6h-53l6-6h13.29c0.779,1.25,1.88,2.291,3.199,3H36
				C37.319,20.301,38.43,19.26,39.21,18.01z"/>
		</g>
		<g>
			<polygon fill="#434A54" points="58.5,50.99 58.5,59.99 54.5,59.99 46.5,59.99 17.5,59.99 9.5,59.99 5.5,59.99 5.5,24.01 
				58.5,24.01 58.5,33.01 54.5,33.01 54.5,27.99 9.5,27.99 9.5,55.99 54.5,55.99 54.5,50.99 			"/>
		</g>
		<g>
			<rect x="54.5" y="24.01" fill="#353B44" width="4" height="9"/>
		</g>
		<g>
			<rect x="54.5" y="50.99" fill="#353B44" width="4" height="9"/>
		</g>
	</g>
	<g>
		<g>
			<g>
				<g>
					<path d="M33,10.009c-0.553,0-1-0.447-1-1s0.447-1,1-1c0.275,0,0.5-0.225,0.5-0.5s-0.225-0.5-0.5-0.5c-0.553,0-1-0.447-1-1
						s0.447-1,1-1c1.379,0,2.5,1.121,2.5,2.5S34.379,10.009,33,10.009z"/>
				</g>
				<g>
					<path d="M33.5,14.009c-0.553,0-1-0.447-1-1s0.447-1,1-1c0.552,0,1-0.448,1-1s-0.448-1-1-1c-0.553,0-1-0.447-1-1s0.447-1,1-1
						c1.654,0,3,1.346,3,3S35.154,14.009,33.5,14.009z"/>
				</g>
				<g>
					<path d="M33.5,10.009h-3c-0.553,0-1-0.447-1-1s0.447-1,1-1h3c0.553,0,1,0.447,1,1S34.053,10.009,33.5,10.009z"/>
				</g>
				<g>
					<path d="M33.5,14.009h-4c-0.553,0-1-0.447-1-1s0.447-1,1-1h4c0.553,0,1,0.447,1,1S34.053,14.009,33.5,14.009z"/>
				</g>
				<g>
					<path d="M33,7.009h-3.5c-0.553,0-1-0.447-1-1s0.447-1,1-1H33c0.553,0,1,0.447,1,1S33.553,7.009,33,7.009z"/>
				</g>
				<g>
					<path d="M30.5,14.009c-0.553,0-1-0.447-1-1v-7c0-0.553,0.447-1,1-1s1,0.447,1,1v7C31.5,13.562,31.053,14.009,30.5,14.009z"/>
				</g>
				<g>
					<path d="M31.5,7.009c-0.553,0-1-0.447-1-1v-1c0-0.553,0.447-1,1-1s1,0.447,1,1v1C32.5,6.562,32.053,7.009,31.5,7.009z"/>
				</g>
				<g>
					<path d="M31.5,15.009c-0.553,0-1-0.447-1-1v-1c0-0.553,0.447-1,1-1s1,0.447,1,1v1C32.5,14.562,32.053,15.009,31.5,15.009z"/>
				</g>
			</g>
			<g>
				<path d="M32,19.009c-5.238,0-9.5-4.262-9.5-9.5s4.262-9.5,9.5-9.5s9.5,4.262,9.5,9.5S37.238,19.009,32,19.009z M32,2.009
					c-4.136,0-7.5,3.364-7.5,7.5s3.364,7.5,7.5,7.5s7.5-3.364,7.5-7.5S36.136,2.009,32,2.009z"/>
			</g>
			<g>
				<path d="M27.991,22.008c-0.159,0-0.32-0.038-0.471-0.118c-3.097-1.658-5.021-4.869-5.021-8.381c0-0.553,0.447-1,1-1s1,0.447,1,1
					c0,2.772,1.519,5.309,3.964,6.617c0.487,0.261,0.671,0.867,0.41,1.354C28.693,21.816,28.349,22.008,27.991,22.008z"/>
			</g>
			<g>
				<path d="M36.005,22.009c-0.357,0-0.702-0.191-0.883-0.528c-0.261-0.487-0.077-1.093,0.41-1.354
					c2.447-1.31,3.968-3.846,3.968-6.618c0-0.553,0.447-1,1-1s1,0.447,1,1c0,3.512-1.925,6.724-5.024,8.382
					C36.325,21.971,36.164,22.009,36.005,22.009z"/>
			</g>
			<g>
				<path d="M23.5,14.509c-0.553,0-1-0.447-1-1v-4c0-0.553,0.447-1,1-1s1,0.447,1,1v4C24.5,14.062,24.053,14.509,23.5,14.509z"/>
			</g>
			<g>
				<path d="M40.5,14.509c-0.553,0-1-0.447-1-1v-4c0-0.553,0.447-1,1-1s1,0.447,1,1v4C41.5,14.062,41.053,14.509,40.5,14.509z"/>
			</g>
		</g>
		<g>
			<g>
				<path d="M58.5,60.991h-53c-0.553,0-1-0.447-1-1V24.009c0-0.553,0.447-1,1-1h53c0.553,0,1,0.447,1,1v35.982
					C59.5,60.544,59.053,60.991,58.5,60.991z M6.5,58.991h51V25.009h-51V58.991z"/>
			</g>
			<g>
				<g>
					<path d="M9.5,63.991c-0.553,0-1-0.447-1-1v-3c0-0.553,0.447-1,1-1s1,0.447,1,1v3C10.5,63.544,10.053,63.991,9.5,63.991z"/>
				</g>
				<g>
					<path d="M17.5,63.991h-8c-0.553,0-1-0.447-1-1s0.447-1,1-1h8c0.553,0,1,0.447,1,1S18.053,63.991,17.5,63.991z"/>
				</g>
				<g>
					<path d="M17.5,63.991c-0.553,0-1-0.447-1-1v-3c0-0.553,0.447-1,1-1s1,0.447,1,1v3C18.5,63.544,18.053,63.991,17.5,63.991z"/>
				</g>
			</g>
			<g>
				<g>
					<path d="M46.5,63.991c-0.553,0-1-0.447-1-1v-3c0-0.553,0.447-1,1-1s1,0.447,1,1v3C47.5,63.544,47.053,63.991,46.5,63.991z"/>
				</g>
				<g>
					<path d="M54.5,63.991h-8c-0.553,0-1-0.447-1-1s0.447-1,1-1h8c0.553,0,1,0.447,1,1S55.053,63.991,54.5,63.991z"/>
				</g>
				<g>
					<path d="M54.5,63.991c-0.553,0-1-0.447-1-1v-3c0-0.553,0.447-1,1-1s1,0.447,1,1v3C55.5,63.544,55.053,63.991,54.5,63.991z"/>
				</g>
			</g>
			<g>
				<path d="M54.5,56.991h-45c-0.553,0-1-0.447-1-1v-28c0-0.553,0.447-1,1-1h45c0.553,0,1,0.447,1,1v28
					C55.5,56.544,55.053,56.991,54.5,56.991z M10.5,54.991h43v-26h-43V54.991z"/>
			</g>
			<g>
				<path d="M58.5,34.009h-4c-0.553,0-1-0.447-1-1s0.447-1,1-1h4c0.553,0,1,0.447,1,1S59.053,34.009,58.5,34.009z"/>
			</g>
			<g>
				<path d="M58.5,38.009h-4c-0.553,0-1-0.447-1-1s0.447-1,1-1h4c0.553,0,1,0.447,1,1S59.053,38.009,58.5,38.009z"/>
			</g>
			<g>
				<path d="M58.5,47.991h-4c-0.553,0-1-0.447-1-1s0.447-1,1-1h4c0.553,0,1,0.447,1,1S59.053,47.991,58.5,47.991z"/>
			</g>
			<g>
				<path d="M58.5,51.991h-4c-0.553,0-1-0.447-1-1s0.447-1,1-1h4c0.553,0,1,0.447,1,1S59.053,51.991,58.5,51.991z"/>
			</g>
		</g>
		<g>
			<path d="M5.5,25.009c-0.256,0-0.512-0.098-0.707-0.293c-0.391-0.391-0.391-1.023,0-1.414l6-6c0.391-0.391,1.023-0.391,1.414,0
				s0.391,1.023,0,1.414l-6,6C6.012,24.911,5.756,25.009,5.5,25.009z"/>
		</g>
		<g>
			<path d="M58.5,25.009c-0.256,0-0.512-0.098-0.707-0.293l-6-6c-0.391-0.391-0.391-1.023,0-1.414s1.023-0.391,1.414,0l6,6
				c0.391,0.391,0.391,1.023,0,1.414C59.012,24.911,58.756,25.009,58.5,25.009z"/>
		</g>
		<g>
			<path d="M24.787,19.009H11.5c-0.553,0-1-0.447-1-1s0.447-1,1-1h13.287c0.553,0,1,0.447,1,1S25.34,19.009,24.787,19.009z"/>
		</g>
		<g>
			<path d="M45.5,22.009h-27c-0.553,0-1-0.447-1-1s0.447-1,1-1h27c0.553,0,1,0.447,1,1S46.053,22.009,45.5,22.009z"/>
		</g>
		<g>
			<path d="M52.5,19.009H39.212c-0.553,0-1-0.447-1-1s0.447-1,1-1H52.5c0.553,0,1,0.447,1,1S53.053,19.009,52.5,19.009z"/>
		</g>
		<g>
			<g>
				<path d="M22.5,51.01c-4.963,0-9-4.037-9-9s4.037-9,9-9s9,4.037,9,9S27.463,51.01,22.5,51.01z M22.5,35.01c-3.859,0-7,3.141-7,7
					s3.141,7,7,7s7-3.141,7-7S26.359,35.01,22.5,35.01z"/>
			</g>
			<g>
				<path d="M22.5,46.991c-2.757,0-5-2.243-5-5s2.243-5,5-5s5,2.243,5,5S25.257,46.991,22.5,46.991z M22.5,38.991
					c-1.654,0-3,1.346-3,3s1.346,3,3,3s3-1.346,3-3S24.154,38.991,22.5,38.991z"/>
			</g>
			<g>
				<path d="M22.5,39.01c-0.553,0-1-0.447-1-1v-1.019c0-0.553,0.447-1,1-1s1,0.447,1,1v1.019C23.5,38.563,23.053,39.01,22.5,39.01z"
					/>
			</g>
			<g>
				<path d="M22.5,47.991c-0.553,0-1-0.447-1-1V46.01c0-0.553,0.447-1,1-1s1,0.447,1,1v0.981C23.5,47.544,23.053,47.991,22.5,47.991
					z"/>
			</g>
			<g>
				<path d="M19.685,40.176c-0.256,0-0.512-0.098-0.707-0.293l-0.72-0.72c-0.391-0.391-0.391-1.023,0-1.414s1.023-0.391,1.414,0
					l0.72,0.72c0.391,0.391,0.391,1.023,0,1.414C20.196,40.078,19.94,40.176,19.685,40.176z"/>
			</g>
			<g>
				<path d="M26.035,46.526c-0.256,0-0.512-0.098-0.707-0.293l-0.693-0.693c-0.391-0.391-0.391-1.023,0-1.414s1.023-0.391,1.414,0
					l0.693,0.693c0.391,0.391,0.391,1.023,0,1.414C26.547,46.429,26.291,46.526,26.035,46.526z"/>
			</g>
			<g>
				<path d="M18.519,42.991H17.5c-0.553,0-1-0.447-1-1s0.447-1,1-1h1.019c0.553,0,1,0.447,1,1S19.071,42.991,18.519,42.991z"/>
			</g>
			<g>
				<path d="M27.5,42.991h-0.98c-0.553,0-1-0.447-1-1s0.447-1,1-1h0.98c0.553,0,1,0.447,1,1S28.053,42.991,27.5,42.991z"/>
			</g>
			<g>
				<path d="M18.965,46.526c-0.256,0-0.512-0.098-0.707-0.293c-0.391-0.391-0.391-1.023,0-1.414l0.721-0.721
					c0.391-0.391,1.023-0.391,1.414,0s0.391,1.023,0,1.414l-0.721,0.721C19.477,46.429,19.221,46.526,18.965,46.526z"/>
			</g>
			<g>
				<path d="M25.342,40.149c-0.256,0-0.512-0.098-0.707-0.293c-0.391-0.391-0.391-1.023,0-1.414l0.693-0.693
					c0.391-0.391,1.023-0.391,1.414,0s0.391,1.023,0,1.414l-0.693,0.693C25.854,40.052,25.598,40.149,25.342,40.149z"/>
			</g>
		</g>
	</g>
</g>
<g id="_x33_5_flash_drive_x2C__key_x2C__block_x2C__chain_x2C__cryptocurrency">
</g>
<g id="_x33_4_cloud_x2C__mining_x2C__bitcoin_x2C__coin_x2C__block_x2C__chain_x2C__cryptocurrency">
</g>
<g id="_x33_3_start_up_x2C__plant_x2C__bitcoin_x2C__coin_x2C__block_x2C__chain_x2C__cryptocurrency">
</g>
<g id="_x33_2_planet_x2C__bitcoin_x2C__coin_x2C__block_x2C__chain_x2C__cryptocurrency">
</g>
<g id="_x33_1_payment_x2C__hand_x2C__bitcoin_x2C__coin_x2C__block_x2C__chain_x2C__cryptocurrency">
</g>
<g id="_x33_0_user_x2C__laptop_x2C__bitcoin_x2C__coin_x2C__block_x2C__chain_x2C__cryptocurrency">
</g>
<g id="_x32_9_thief_x2C__bag_x2C__bitcoin_x2C__coin_x2C__block_x2C__chain_x2C__cryptocurrency">
</g>
<g id="_x32_8_code_x2C__programming_x2C__program_x2C__bitcoin_x2C__coin_x2C__cryptocurrency">
</g>
<g id="_x32_7_bitcoin_x2C__coin_x2C__block_x2C__chain_x2C__cryptocurrency">
</g>
<g id="_x32_6_shield_x2C__protection_x2C__bitcoin_x2C__coin_x2C__block_x2C__chain_x2C__cryptocurrency">
</g>
<g id="_x32_5_bug_x2C__laptop_x2C__miner_x2C__program_x2C__block_x2C__chain_x2C__cryptocurrency">
</g>
<g id="_x32_4_computer_x2C__monitor_x2C__bitcoin_x2C__coin_x2C__block_x2C__chain_x2C__cryptocurrency">
</g>
<g id="_x32_3_network_x2C__idea_x2C__bitcoin_x2C__coin_x2C__block_x2C__chain_x2C__cryptocurrency">
</g>
<g id="_x32_2_block_x2C__chain_x2C__cryptocurrency_x2C__technology_x2C__future">
</g>
<g id="_x32_1_smart_contact_x2C__contact_x2C__block_x2C__chain_x2C__cryptocurrency">
</g>
<g id="_x32_0_lock_x2C__safe_x2C__protection_x2C__block_x2C__chain_x2C__cryptocurrency_x2C__program">
</g>
<g id="_x31_9_server_x2C__data_x2C__bitcoin_x2C__coin_x2C__block_x2C__chain_x2C__cryptocurrency">
</g>
<g id="_x31_8_key_x2C__bitcoin_x2C__coin_x2C__block_x2C__chain_x2C__cryptocurrency">
</g>
<g id="_x31_7_pool_x2C__network_x2C__bitcoin_x2C__coin_x2C__block_x2C__chain_x2C__cryptocurrency">
</g>
<g id="_x31_6_mining_x2C__shovel_x2C__mine_x2C__coin_x2C__block_x2C__chain_x2C__cryptocurrency">
</g>
<g id="_x31_5_purse_x2C__bitcoin_x2C__coin_x2C__block_x2C__chain_x2C__cryptocurrency">
</g>
<g id="_x31_4_safe_x2C__protection_x2C__block_x2C__chain_x2C__cryptocurrency_x2C__program">
</g>
<g id="_x31_3_mining_x2C__funnel_x2C__satoshi_x2C__bitcoin_x2C__coin_x2C__cryptocurrency">
</g>
<g id="_x31_2_chart_x2C__bitcoin_x2C__coin_x2C__block_x2C__chain_x2C__cryptocurrency">
</g>
<g id="_x31_1_computer_x2C__monitor_x2C__bitcoin_x2C__coin_x2C__block_x2C__chain_x2C__cryptocurrency">
</g>
<g id="_x31_0_mining_x2C__pickaxe_x2C__stone_x2C__mine_x2C___bitcoin_x2C__coin_x2C__cryptocurrency">
</g>
<g id="_x39__miner_x2C__mining_x2C__computer_x2C__pickaxe_x2C__program_x2C__cryptocurrency">
</g>
<g id="_x38__video_card_x2C__mining_x2C__bitcoin_x2C__coin_x2C__block_x2C__chain_x2C__cryptocurrency">
</g>
<g id="_x37__exchanger_x2C__site_x2C__bitcoin_x2C__coin_x2C__block_x2C__chain_x2C__cryptocurrency">
</g>
<g id="_x36__shop_x2C__product_x2C__bitcoin_x2C__coin_x2C__block_x2C__chain_x2C__cryptocurrency">
</g>
<g id="_x35__bitcoin_x2C__coin_x2C__exchange_x2C__block_x2C__chain_x2C__cryptocurrency_x2C__product">
</g>
<g id="_x34__bitcoin_x2C__coin_x2C__exchange_x2C__block_x2C__chain_x2C__cryptocurrency">
</g>
<g id="_x33__bitcoin_x2C__coin_x2C__exchange_x2C__block_x2C__chain_x2C__cryptocurrency">
</g>
<g id="_x32__brain_x2C__smart_x2C__coin_x2C__block_x2C__chain_x2C__cryptocurrency">
</g>
<g id="_x31__bitcoin_x2C__coin_x2C__block_x2C__chain_x2C__cryptocurrency">
</g>
</svg>
