<?xml version="1.0" encoding="utf-8"?>
<!-- Generator: Adobe Illustrator 16.0.0, SVG Export Plug-In . SVG Version: 6.00 Build 0)  -->
<!DOCTYPE svg PUBLIC "-//W3C//DTD SVG 1.1//EN" "http://www.w3.org/Graphics/SVG/1.1/DTD/svg11.dtd">
<svg version="1.1" xmlns="http://www.w3.org/2000/svg" xmlns:xlink="http://www.w3.org/1999/xlink" x="0px" y="0px" width="64px"
	 height="64px" viewBox="0 0 64 64" enable-background="new 0 0 64 64" xml:space="preserve">
<g id="_x35_0_code_x2C__programming_x2C__program_x2C__bitcoin_x2C__block_x2C__chain_x2C__cryptocurrency">
</g>
<g id="_x34_9_balloon_x2C__takeoff_x2C__bitcoin_x2C__coin_x2C__block_x2C__chain_x2C__cryptocurrency">
</g>
<g id="_x34_8_video_card_x2C__mining_x2C__farm_x2C__computer_x2C__block_x2C__chain_x2C__cryptocurrency">
</g>
<g id="_x34_7_money_box_x2C__saving_x2C__bitcoin_x2C__coin_x2C__block_x2C__chain_x2C__cryptocurrency">
</g>
<g id="_x34_6_portfolio_x2C__finance_x2C__bank_note_x2C__bitcoin_x2C__coin_x2C__cryptocurrency">
</g>
<g id="_x34_5_tap_x2C__water_x2C__bitcoin_x2C__coin_x2C__block_x2C__chain_x2C__cryptocurrency">
</g>
<g id="_x34_4_phone_x2C__bitcoin_x2C__coin_x2C__block_x2C__chain_x2C__cryptocurrency">
</g>
<g id="_x34_3_rocket_x2C__sun_x2C__bitcoin_x2C__coin_x2C__block_x2C__chain_x2C__cryptocurrency">
</g>
<g id="_x34_2_transfer_x2C__network_x2C__bitcoin_x2C__coin_x2C__block_x2C__chain_x2C__cryptocurrency">
</g>
<g id="_x34_1_scales_x2C__comparison_x2C__bitcoin_x2C__coin_x2C__block_x2C__chain_x2C__cryptocurrency">
</g>
<g id="_x34_0_calculator_x2C__calculating_x2C__bitcoin_x2C__coin_x2C__block_x2C__chain_x2C__cryptocurrency">
</g>
<g id="_x33_9_start-up_x2C__plant_x2C__hand_x2C__bitcoin_x2C__coin_x2C__cryptocurrency">
</g>
<g id="_x33_8_idea_x2C__bulb_x2C__bitcoin_x2C__coin_x2C__block_x2C__chain_x2C__cryptocurrency">
</g>
<g id="_x33_7_users_x2C__user_x2C__co-founder_x2C__bitcoin_x2C__coin_x2C__cryptocurrency">
</g>
<g id="_x33_6_safe_x2C__protection_x2C__bitcoin_x2C__coin_x2C__block_x2C__chain_x2C__cryptocurrency">
</g>
<g id="_x33_5_flash_drive_x2C__key_x2C__block_x2C__chain_x2C__cryptocurrency">
</g>
<g id="_x33_4_cloud_x2C__mining_x2C__bitcoin_x2C__coin_x2C__block_x2C__chain_x2C__cryptocurrency">
</g>
<g id="_x33_3_start_up_x2C__plant_x2C__bitcoin_x2C__coin_x2C__block_x2C__chain_x2C__cryptocurrency">
</g>
<g id="_x33_2_planet_x2C__bitcoin_x2C__coin_x2C__block_x2C__chain_x2C__cryptocurrency">
</g>
<g id="_x33_1_payment_x2C__hand_x2C__bitcoin_x2C__coin_x2C__block_x2C__chain_x2C__cryptocurrency">
</g>
<g id="_x33_0_user_x2C__laptop_x2C__bitcoin_x2C__coin_x2C__block_x2C__chain_x2C__cryptocurrency">
</g>
<g id="_x32_9_thief_x2C__bag_x2C__bitcoin_x2C__coin_x2C__block_x2C__chain_x2C__cryptocurrency">
	<g>
		<g>
			<path fill="#FFCE54" d="M51,52.5h1c1.65,0,3-1.34,3-3s-1.35-3-3-3c1.101,0,2-0.9,2-2c0-1.11-0.899-2-2-2h-1h-2v4v6H51z M53,33.76
				c5.67,1.44,10,8.79,10,14.74c0,6.63-5.38,12-12,12c-2.18,0-4.229-0.58-6-1.61c-3.59-2.069-6-5.949-6-10.39
				c0-1.16,0.17-2.39,0.48-3.61c1.27-4.989,4.96-9.97,9.52-11.13c0.65-0.17,1.32-0.26,2-0.26C51.681,33.5,52.351,33.59,53,33.76z"/>
		</g>
		<g>
			<g>
				<path fill="#F6BB42" d="M53,33.76c-0.649-0.17-1.319-0.26-2-0.26c-0.68,0-1.35,0.09-2,0.26c5.67,1.44,10,8.79,10,14.74
					c0,5.94-4.323,10.856-9.983,11.817C49.664,60.426,50.322,60.5,51,60.5c6.62,0,12-5.37,12-12C63,42.55,58.67,35.2,53,33.76z"/>
			</g>
		</g>
		<g>
			<path fill="#EDAB37" d="M57,27.5l-4,6.26c-0.649-0.17-1.319-0.26-2-0.26c-0.68,0-1.35,0.09-2,0.26l-4-6.26c0,0,3-2,6,0
				S57,27.5,57,27.5z"/>
		</g>
		<g>
			<path fill="#EDAB37" d="M52,46.5c1.65,0,3,1.34,3,3s-1.35,3-3,3h-1h-2v-6H52z"/>
		</g>
		<g>
			<path fill="#EDAB37" d="M52,42.5c1.101,0,2,0.89,2,2c0,1.1-0.899,2-2,2h-3v-4h2H52z"/>
		</g>
		<g>
			<path fill="#656D78" d="M45,58.89v0.61c0,0.55-0.45,1-1,1H2c-0.55,0-1-0.45-1-1v-7c0-4.42,3.58-8,8-8h7c0,0,0.51,1.54,3,2.41
				c0.99,0.35,2.29,0.59,4,0.59s3.01-0.24,4-0.59c2.49-0.87,3-2.41,3-2.41h7c0.83,0,1.63,0.13,2.38,0.36l0.101,0.029
				C39.17,46.11,39,47.34,39,48.5C39,52.94,41.41,56.82,45,58.89z"/>
		</g>
		<g>
			<path fill="#656D78" d="M38,22.5v3H25l-2-1l-2,1H8v-7h4v2c0,1.1,0.891,2,2,2h4c1.101,0,2-0.9,2-2v-2h6v2c0,1.1,0.891,2,2,2h4
				c1.101,0,2-0.9,2-2v-2h4v3V22.5z"/>
		</g>
		<g>
			<path fill="#EAC6BB" d="M38,18.5h-4h-8h-6h-8H8c0-8.29,6.71-15,15-15C31.28,3.5,38,10.21,38,18.5z"/>
		</g>
		<g>
			<path fill="#EAC6BB" d="M25,25.5h13c0,5.75-3.24,10.75-8,13.271c-0.939,0.5-1.95,0.899-3,1.189c-1.27,0.35-2.62,0.54-4,0.54
				c-1.39,0-2.729-0.19-4-0.54c-1.05-0.29-2.06-0.689-3-1.189C11.24,36.25,8,31.25,8,25.5h13l2-1L25,25.5z"/>
		</g>
		<g>
			<path fill="#D3B1A9" d="M23,3.5c-0.681,0-1.345,0.061-2.001,0.148C28.333,4.628,34,10.891,34,18.5h4C38,10.21,31.28,3.5,23,3.5z"
				/>
		</g>
		<g>
			<g>
				<path fill="#D3B1A9" d="M34,25.5c0,5.75-3.24,10.75-8,13.271c-0.939,0.5-1.95,0.899-3,1.189
					c-0.648,0.179-1.318,0.314-2.002,0.405C21.652,40.453,22.32,40.5,23,40.5c1.38,0,2.73-0.19,4-0.54
					c1.05-0.29,2.061-0.689,3-1.189c4.76-2.521,8-7.521,8-13.271H34z"/>
			</g>
		</g>
		<g>
			<path fill="#EAC6BB" d="M34,18.5v2c0,1.1-0.899,2-2,2h-4c-1.109,0-2-0.9-2-2v-2H34z"/>
		</g>
		<g>
			<path fill="#EAC6BB" d="M20,18.5v2c0,1.1-0.899,2-2,2h-4c-1.109,0-2-0.9-2-2v-2H20z"/>
		</g>
		<g>
			<path fill="#434A54" d="M27,39.96c-1.27,0.35-2.62,0.54-4,0.54c-1.39,0-2.729-0.19-4-0.54c-1.05-0.29-2.06-0.689-3-1.189V44.5
				c0,0,0.51,1.54,3,2.41c0.99,0.35,2.29,0.59,4,0.59s3.01-0.24,4-0.59c2.49-0.87,3-2.41,3-2.41v-5.729
				C29.061,39.271,28.05,39.67,27,39.96z"/>
		</g>
		<g>
			<rect x="34" y="18.5" fill="#434A54" width="4" height="7"/>
		</g>
	</g>
	<g>
		<g>
			<g>
				<g>
					<path d="M1,53.503c-0.553,0-1-0.447-1-1c0-4.964,4.038-9.002,9.002-9.002c0.553,0,1,0.447,1,1s-0.447,1-1,1
						C5.141,45.501,2,48.642,2,52.503C2,53.056,1.553,53.503,1,53.503z"/>
				</g>
				<g>
					<path d="M39.381,45.861c-0.098,0-0.197-0.015-0.297-0.045c-0.672-0.209-1.373-0.314-2.084-0.314c-0.553,0-1-0.447-1-1
						s0.447-1,1-1c0.912,0,1.813,0.136,2.678,0.404c0.527,0.164,0.822,0.724,0.658,1.252C40.203,45.587,39.808,45.861,39.381,45.861
						z"/>
				</g>
				<g>
					<path d="M16,45.502L16,45.502l-6.998-0.001c-0.553,0-1-0.448-1-1c0-0.553,0.448-1,1-1l0,0L16,43.502c0.553,0,1,0.448,1,1
						C17,45.055,16.552,45.502,16,45.502z"/>
				</g>
				<g>
					<path d="M37,45.502L37,45.502l-7-0.001c-0.553,0-1-0.448-1-1c0-0.553,0.448-1,1-1l0,0l7,0.001c0.553,0,1,0.448,1,1
						C38,45.055,37.552,45.502,37,45.502z"/>
				</g>
				<g>
					<path d="M1.001,60.5c-0.552,0-1-0.447-1-1L0,52.503c0-0.552,0.447-1,1-1c0.552,0,1,0.447,1,1L2.001,59.5
						C2.001,60.052,1.554,60.5,1.001,60.5z"/>
				</g>
				<g>
					<path d="M2.001,61.5c-1.103,0-2-0.897-2-2c0-0.553,0.447-1,1-1s1,0.447,1,1v0.002c0.553,0,1,0.446,1,0.999
						C3.001,61.053,2.554,61.5,2.001,61.5z"/>
				</g>
				<g>
					<path d="M44,61.5c-0.553,0-1-0.447-1-1s0.447-1,1-1h0.002c0-0.553,0.446-1,0.999-1c0.552,0,0.999,0.447,0.999,1
						C46,60.603,45.103,61.5,44,61.5z"/>
				</g>
				<g>
					<path d="M45,60.5c-0.553,0-1-0.447-1-1v-0.605c0-0.553,0.447-1,1-1s1,0.447,1,1V59.5C46,60.053,45.553,60.5,45,60.5z"/>
				</g>
				<g>
					<path d="M44,61.5H2.001c-0.553,0-1-0.447-1-1s0.447-1,1-1H44c0.553,0,1,0.447,1,1S44.553,61.5,44,61.5z"/>
				</g>
			</g>
			<g>
				<path d="M23,41.501c-8.822,0-16-7.178-16-16c0-0.553,0.447-1,1-1s1,0.447,1,1c0,7.72,6.28,14,14,14s14-6.28,14-14
					c0-0.553,0.447-1,1-1s1,0.447,1,1C39,34.323,31.822,41.501,23,41.501z"/>
			</g>
			<g>
				<path d="M38,19.5c-0.553,0-1-0.447-1-1c0-7.72-6.28-14-14-14s-14,6.28-14,14c0,0.553-0.447,1-1,1s-1-0.447-1-1
					c0-8.822,7.178-16,16-16s16,7.178,16,16C39,19.053,38.553,19.5,38,19.5z"/>
			</g>
			<g>
				<path d="M8,26.501c-0.553,0-1-0.447-1-1V18.5c0-0.553,0.447-1,1-1s1,0.447,1,1v7.001C9,26.054,8.553,26.501,8,26.501z"/>
			</g>
			<g>
				<path d="M38,26.501c-0.553,0-1-0.447-1-1V18.5c0-0.553,0.447-1,1-1s1,0.447,1,1v7.001C39,26.054,38.553,26.501,38,26.501z"/>
			</g>
		</g>
		<g>
			<path d="M16,45.501c-0.553,0-1-0.447-1-1V38.77c0-0.553,0.447-1,1-1s1,0.447,1,1v5.731C17,45.054,16.553,45.501,16,45.501z"/>
		</g>
		<g>
			<path d="M30,45.5c-0.553,0-1-0.447-1-1v-5.73c0-0.553,0.447-1,1-1s1,0.447,1,1v5.73C31,45.053,30.553,45.5,30,45.5z"/>
		</g>
		<g>
			<g>
				<path d="M35.03,13.499c-0.553,0-1.005-0.447-1.005-1s0.442-1,0.994-1h0.011c0.552,0,1,0.447,1,1S35.582,13.499,35.03,13.499z"/>
			</g>
			<g>
				<path d="M31.03,13.499c-0.553,0-1.005-0.447-1.005-1s0.442-1,0.994-1h0.011c0.552,0,1,0.447,1,1S31.582,13.499,31.03,13.499z"/>
			</g>
			<g>
				<path d="M31.03,7.499c-0.553,0-1.005-0.447-1.005-1s0.442-1,0.994-1h0.011c0.552,0,1,0.447,1,1S31.582,7.499,31.03,7.499z"/>
			</g>
			<g>
				<path d="M27.03,7.499c-0.553,0-1.005-0.447-1.005-1s0.442-1,0.994-1h0.011c0.552,0,1,0.447,1,1S27.582,7.499,27.03,7.499z"/>
			</g>
			<g>
				<path d="M23.03,7.499c-0.553,0-1.005-0.447-1.005-1s0.442-1,0.994-1h0.011c0.552,0,1,0.447,1,1S23.582,7.499,23.03,7.499z"/>
			</g>
			<g>
				<path d="M19.03,7.499c-0.553,0-1.005-0.447-1.005-1s0.442-1,0.994-1h0.011c0.552,0,1,0.447,1,1S19.582,7.499,19.03,7.499z"/>
			</g>
			<g>
				<path d="M15.03,7.499c-0.553,0-1.005-0.447-1.005-1s0.442-1,0.994-1h0.011c0.552,0,1,0.447,1,1S15.582,7.499,15.03,7.499z"/>
			</g>
			<g>
				<path d="M33.03,10.499c-0.553,0-1.005-0.447-1.005-1s0.442-1,0.994-1h0.011c0.552,0,1,0.447,1,1S33.582,10.499,33.03,10.499z"/>
			</g>
			<g>
				<path d="M29.03,10.499c-0.553,0-1.005-0.447-1.005-1s0.442-1,0.994-1h0.011c0.552,0,1,0.447,1,1S29.582,10.499,29.03,10.499z"/>
			</g>
			<g>
				<path d="M25.03,10.499c-0.553,0-1.005-0.447-1.005-1s0.442-1,0.994-1h0.011c0.552,0,1,0.447,1,1S25.582,10.499,25.03,10.499z"/>
			</g>
			<g>
				<path d="M21.03,10.499c-0.553,0-1.005-0.447-1.005-1s0.442-1,0.994-1h0.011c0.552,0,1,0.447,1,1S21.582,10.499,21.03,10.499z"/>
			</g>
			<g>
				<path d="M17.03,10.499c-0.553,0-1.005-0.447-1.005-1s0.442-1,0.994-1h0.011c0.552,0,1,0.447,1,1S17.582,10.499,17.03,10.499z"/>
			</g>
			<g>
				<path d="M13.03,10.499c-0.553,0-1.005-0.447-1.005-1s0.442-1,0.994-1h0.011c0.552,0,1,0.447,1,1S13.582,10.499,13.03,10.499z"/>
			</g>
			<g>
				<path d="M37.03,16.499c-0.553,0-1.005-0.447-1.005-1s0.442-1,0.994-1h0.011c0.552,0,1,0.447,1,1S37.582,16.499,37.03,16.499z"/>
			</g>
			<g>
				<path d="M25.03,16.499c-0.553,0-1.005-0.447-1.005-1s0.442-1,0.994-1h0.011c0.552,0,1,0.447,1,1S25.582,16.499,25.03,16.499z"/>
			</g>
			<g>
				<path d="M21.03,16.499c-0.553,0-1.005-0.447-1.005-1s0.442-1,0.994-1h0.011c0.552,0,1,0.447,1,1S21.582,16.499,21.03,16.499z"/>
			</g>
			<g>
				<path d="M9.03,16.499c-0.553,0-1.005-0.447-1.005-1s0.442-1,0.994-1H9.03c0.552,0,1,0.447,1,1S9.582,16.499,9.03,16.499z"/>
			</g>
			<g>
				<path d="M27.03,13.499c-0.553,0-1.005-0.447-1.005-1s0.442-1,0.994-1h0.011c0.552,0,1,0.447,1,1S27.582,13.499,27.03,13.499z"/>
			</g>
			<g>
				<path d="M23.03,13.499c-0.553,0-1.005-0.447-1.005-1s0.442-1,0.994-1h0.011c0.552,0,1,0.447,1,1S23.582,13.499,23.03,13.499z"/>
			</g>
			<g>
				<path d="M19.03,13.499c-0.553,0-1.005-0.447-1.005-1s0.442-1,0.994-1h0.011c0.552,0,1,0.447,1,1S19.582,13.499,19.03,13.499z"/>
			</g>
			<g>
				<path d="M15.03,13.499c-0.553,0-1.005-0.447-1.005-1s0.442-1,0.994-1h0.011c0.552,0,1,0.447,1,1S15.582,13.499,15.03,13.499z"/>
			</g>
			<g>
				<path d="M11.03,13.499c-0.553,0-1.005-0.447-1.005-1s0.442-1,0.994-1h0.011c0.552,0,1,0.447,1,1S11.582,13.499,11.03,13.499z"/>
			</g>
		</g>
		<g>
			<path d="M23,48.5c-6.645,0-7.898-3.531-7.948-3.682c-0.175-0.523,0.108-1.09,0.632-1.265c0.518-0.173,1.076,0.102,1.259,0.612
				C16.994,44.297,17.953,46.5,23,46.5c5.136,0,6.044-2.291,6.052-2.314c0.175-0.523,0.736-0.81,1.265-0.632
				c0.523,0.175,0.807,0.741,0.632,1.265C30.898,44.969,29.645,48.5,23,48.5z"/>
		</g>
		<g>
			<path d="M23,48.5c-0.553,0-1-0.447-1-1v-6.999c0-0.553,0.447-1,1-1s1,0.447,1,1V47.5C24,48.053,23.553,48.5,23,48.5z"/>
		</g>
		<g>
			<path d="M27,47.909c-0.553,0-1-0.447-1-1v-6.947c0-0.553,0.447-1,1-1s1,0.447,1,1v6.947C28,47.462,27.553,47.909,27,47.909z"/>
		</g>
		<g>
			<path d="M19,47.909c-0.553,0-1-0.447-1-1v-6.947c0-0.553,0.447-1,1-1s1,0.447,1,1v6.947C20,47.462,19.553,47.909,19,47.909z"/>
		</g>
		<g>
			<path d="M38,19.5H8c-0.553,0-1-0.447-1-1s0.447-1,1-1h30c0.553,0,1,0.447,1,1S38.553,19.5,38,19.5z"/>
		</g>
		<g>
			<path d="M38,26.5H25c-0.155,0-0.309-0.036-0.447-0.105L23,25.618l-1.553,0.776C21.309,26.464,21.155,26.5,21,26.5H8
				c-0.553,0-1-0.447-1-1s0.447-1,1-1h12.764l1.789-0.895c0.281-0.141,0.613-0.141,0.895,0l1.789,0.895H38c0.553,0,1,0.447,1,1
				S38.553,26.5,38,26.5z"/>
		</g>
		<g>
			<path d="M14,23.5c-1.654,0-3-1.346-3-3c0-0.553,0.447-1,1-1s1,0.447,1,1c0,0.552,0.448,1,1,1c0.553,0,1,0.447,1,1
				S14.553,23.5,14,23.5z"/>
		</g>
		<g>
			<path d="M18,23.5c-0.553,0-1-0.447-1-1s0.447-1,1-1c0.552,0,1-0.448,1-1c0-0.553,0.447-1,1-1s1,0.447,1,1
				C21,22.154,19.654,23.5,18,23.5z"/>
		</g>
		<g>
			<path d="M18,23.5h-4c-0.553,0-1-0.447-1-1s0.447-1,1-1h4c0.553,0,1,0.447,1,1S18.553,23.5,18,23.5z"/>
		</g>
		<g>
			<path d="M20,21.5c-0.553,0-1-0.447-1-1v-2c0-0.553,0.447-1,1-1s1,0.447,1,1v2C21,21.053,20.553,21.5,20,21.5z"/>
		</g>
		<g>
			<path d="M12,21.5c-0.553,0-1-0.447-1-1v-2c0-0.553,0.447-1,1-1s1,0.447,1,1v2C13,21.053,12.553,21.5,12,21.5z"/>
		</g>
		<g>
			<path d="M28,23.5c-1.654,0-3-1.346-3-3c0-0.553,0.447-1,1-1s1,0.447,1,1c0,0.552,0.448,1,1,1c0.553,0,1,0.447,1,1
				S28.553,23.5,28,23.5z"/>
		</g>
		<g>
			<path d="M32,23.5c-0.553,0-1-0.447-1-1s0.447-1,1-1c0.552,0,1-0.448,1-1c0-0.553,0.447-1,1-1s1,0.447,1,1
				C35,22.154,33.654,23.5,32,23.5z"/>
		</g>
		<g>
			<path d="M32,23.5h-4c-0.553,0-1-0.447-1-1s0.447-1,1-1h4c0.553,0,1,0.447,1,1S32.553,23.5,32,23.5z"/>
		</g>
		<g>
			<path d="M34,21.5c-0.553,0-1-0.447-1-1v-2c0-0.553,0.447-1,1-1s1,0.447,1,1v2C35,21.053,34.553,21.5,34,21.5z"/>
		</g>
		<g>
			<path d="M26,21.5c-0.553,0-1-0.447-1-1v-2c0-0.553,0.447-1,1-1s1,0.447,1,1v2C27,21.053,26.553,21.5,26,21.5z"/>
		</g>
		<g>
			<path d="M38,22.5c-0.419,0-0.809-0.265-0.948-0.684c-0.175-0.524,0.108-1.091,0.632-1.265l3-1
				c0.527-0.175,1.091,0.108,1.265,0.632c0.175,0.524-0.108,1.091-0.632,1.265l-3,1C38.211,22.483,38.104,22.5,38,22.5z"/>
		</g>
		<g>
			<path d="M41,24.501c-0.104,0-0.212-0.017-0.316-0.052l-3-1.001c-0.524-0.175-0.807-0.741-0.632-1.265s0.742-0.809,1.265-0.632
				l3,1.001c0.524,0.175,0.807,0.741,0.632,1.265C41.809,24.236,41.419,24.501,41,24.501z"/>
		</g>
		<g>
			<path d="M51,61.5c-7.168,0-13-5.832-13-13c0-7.246,5.799-15.998,13-15.998S64,41.254,64,48.5C64,55.668,58.168,61.5,51,61.5z
				 M51,34.502c-5.924,0-11,7.697-11,13.998c0,6.065,4.935,11,11,11s11-4.935,11-11C62,42.199,56.924,34.502,51,34.502z"/>
		</g>
		<g>
			<path d="M49.001,34.757c-0.33,0-0.652-0.163-0.844-0.461l-4-6.257c-0.297-0.466-0.161-1.084,0.304-1.382
				c0.466-0.297,1.084-0.16,1.382,0.304l4,6.257c0.297,0.466,0.161,1.084-0.304,1.382C49.372,34.706,49.186,34.757,49.001,34.757z"
				/>
		</g>
		<g>
			<path d="M52.999,34.757c-0.185,0-0.371-0.051-0.538-0.157c-0.465-0.298-0.601-0.916-0.304-1.382l4-6.257
				c0.298-0.465,0.915-0.602,1.382-0.304c0.465,0.298,0.601,0.916,0.304,1.382l-4,6.257C53.651,34.594,53.329,34.757,52.999,34.757z
				"/>
		</g>
		<g>
			<path d="M53.883,29.396c-1.054,0-2.241-0.266-3.438-1.063c-2.417-1.612-4.866-0.016-4.891,0
				c-0.462,0.305-1.081,0.182-1.387-0.277c-0.307-0.46-0.183-1.08,0.277-1.387c0.145-0.097,3.595-2.344,7.109,0
				c2.417,1.611,4.866,0.017,4.891,0c0.46-0.306,1.08-0.183,1.387,0.277s0.183,1.08-0.277,1.387
				C57.459,28.396,55.925,29.396,53.883,29.396z"/>
		</g>
		<g>
			<g>
				<path d="M49,53.5c-0.553,0-1-0.447-1-1v-10c0-0.553,0.447-1,1-1s1,0.447,1,1v10C50,53.053,49.553,53.5,49,53.5z"/>
			</g>
			<g>
				<path d="M52.001,47.498c-0.553,0-1-0.447-1-1s0.447-1,1-1c0.551,0,0.999-0.448,0.999-0.999S52.552,43.5,52.001,43.5
					c-0.553,0-1-0.447-1-1s0.447-1,1-1c1.653,0,2.999,1.346,2.999,2.999S53.654,47.498,52.001,47.498z"/>
			</g>
			<g>
				<path d="M51.999,53.5c-0.553,0-1-0.447-1-1s0.447-1,1-1c1.104,0,2.001-0.897,2.001-2c0-1.104-0.897-2.002-2.001-2.002
					c-0.553,0-1-0.447-1-1s0.447-1,1-1c2.206,0,4.001,1.795,4.001,4.002C56,51.706,54.205,53.5,51.999,53.5z"/>
			</g>
			<g>
				<path d="M52.001,43.5H48c-0.553,0-1-0.447-1-1s0.447-1,1-1h4.001c0.553,0,1,0.447,1,1S52.554,43.5,52.001,43.5z"/>
			</g>
			<g>
				<path d="M51.999,53.5H48c-0.553,0-1-0.447-1-1s0.447-1,1-1h3.999c0.553,0,1,0.447,1,1S52.552,53.5,51.999,53.5z"/>
			</g>
			<g>
				<path d="M52.001,47.498H49c-0.553,0-1-0.447-1-1s0.447-1,1-1h3.001c0.553,0,1,0.447,1,1S52.554,47.498,52.001,47.498z"/>
			</g>
			<g>
				<path d="M51,43.5c-0.553,0-1-0.447-1-1v-1c0-0.553,0.447-1,1-1s1,0.447,1,1v1C52,43.053,51.553,43.5,51,43.5z"/>
			</g>
			<g>
				<path d="M51,54.5c-0.553,0-1-0.447-1-1v-1c0-0.553,0.447-1,1-1s1,0.447,1,1v1C52,54.053,51.553,54.5,51,54.5z"/>
			</g>
		</g>
	</g>
</g>
<g id="_x32_8_code_x2C__programming_x2C__program_x2C__bitcoin_x2C__coin_x2C__cryptocurrency">
</g>
<g id="_x32_7_bitcoin_x2C__coin_x2C__block_x2C__chain_x2C__cryptocurrency">
</g>
<g id="_x32_6_shield_x2C__protection_x2C__bitcoin_x2C__coin_x2C__block_x2C__chain_x2C__cryptocurrency">
</g>
<g id="_x32_5_bug_x2C__laptop_x2C__miner_x2C__program_x2C__block_x2C__chain_x2C__cryptocurrency">
</g>
<g id="_x32_4_computer_x2C__monitor_x2C__bitcoin_x2C__coin_x2C__block_x2C__chain_x2C__cryptocurrency">
</g>
<g id="_x32_3_network_x2C__idea_x2C__bitcoin_x2C__coin_x2C__block_x2C__chain_x2C__cryptocurrency">
</g>
<g id="_x32_2_block_x2C__chain_x2C__cryptocurrency_x2C__technology_x2C__future">
</g>
<g id="_x32_1_smart_contact_x2C__contact_x2C__block_x2C__chain_x2C__cryptocurrency">
</g>
<g id="_x32_0_lock_x2C__safe_x2C__protection_x2C__block_x2C__chain_x2C__cryptocurrency_x2C__program">
</g>
<g id="_x31_9_server_x2C__data_x2C__bitcoin_x2C__coin_x2C__block_x2C__chain_x2C__cryptocurrency">
</g>
<g id="_x31_8_key_x2C__bitcoin_x2C__coin_x2C__block_x2C__chain_x2C__cryptocurrency">
</g>
<g id="_x31_7_pool_x2C__network_x2C__bitcoin_x2C__coin_x2C__block_x2C__chain_x2C__cryptocurrency">
</g>
<g id="_x31_6_mining_x2C__shovel_x2C__mine_x2C__coin_x2C__block_x2C__chain_x2C__cryptocurrency">
</g>
<g id="_x31_5_purse_x2C__bitcoin_x2C__coin_x2C__block_x2C__chain_x2C__cryptocurrency">
</g>
<g id="_x31_4_safe_x2C__protection_x2C__block_x2C__chain_x2C__cryptocurrency_x2C__program">
</g>
<g id="_x31_3_mining_x2C__funnel_x2C__satoshi_x2C__bitcoin_x2C__coin_x2C__cryptocurrency">
</g>
<g id="_x31_2_chart_x2C__bitcoin_x2C__coin_x2C__block_x2C__chain_x2C__cryptocurrency">
</g>
<g id="_x31_1_computer_x2C__monitor_x2C__bitcoin_x2C__coin_x2C__block_x2C__chain_x2C__cryptocurrency">
</g>
<g id="_x31_0_mining_x2C__pickaxe_x2C__stone_x2C__mine_x2C___bitcoin_x2C__coin_x2C__cryptocurrency">
</g>
<g id="_x39__miner_x2C__mining_x2C__computer_x2C__pickaxe_x2C__program_x2C__cryptocurrency">
</g>
<g id="_x38__video_card_x2C__mining_x2C__bitcoin_x2C__coin_x2C__block_x2C__chain_x2C__cryptocurrency">
</g>
<g id="_x37__exchanger_x2C__site_x2C__bitcoin_x2C__coin_x2C__block_x2C__chain_x2C__cryptocurrency">
</g>
<g id="_x36__shop_x2C__product_x2C__bitcoin_x2C__coin_x2C__block_x2C__chain_x2C__cryptocurrency">
</g>
<g id="_x35__bitcoin_x2C__coin_x2C__exchange_x2C__block_x2C__chain_x2C__cryptocurrency_x2C__product">
</g>
<g id="_x34__bitcoin_x2C__coin_x2C__exchange_x2C__block_x2C__chain_x2C__cryptocurrency">
</g>
<g id="_x33__bitcoin_x2C__coin_x2C__exchange_x2C__block_x2C__chain_x2C__cryptocurrency">
</g>
<g id="_x32__brain_x2C__smart_x2C__coin_x2C__block_x2C__chain_x2C__cryptocurrency">
</g>
<g id="_x31__bitcoin_x2C__coin_x2C__block_x2C__chain_x2C__cryptocurrency">
</g>
</svg>
