<svg xmlns="http://www.w3.org/2000/svg" viewBox="0 0 64 64"><path fill="#FFCE54" d="M51 52.5h1c1.65 0 3-1.34 3-3s-1.35-3-3-3a1.999 1.999 0 100-4h-3v10h2zm2-18.74c5.67 1.44 10 8.79 10 14.74 0 6.63-5.38 12-12 12-2.18 0-4.229-.58-6-1.61-3.59-2.069-6-5.949-6-10.39 0-1.16.17-2.39.48-3.61 1.27-4.989 4.96-9.97 9.52-11.13.65-.17 1.32-.26 2-.26.681 0 1.351.09 2 .26z"/><path fill="#F6BB42" d="M53 33.76a7.883 7.883 0 00-2-.26c-.68 0-1.35.09-2 .26 5.67 1.44 10 8.79 10 14.74 0 5.94-4.323 10.856-9.983 11.817.647.109 1.305.183 1.983.183 6.62 0 12-5.37 12-12 0-5.95-4.33-13.3-10-14.74z"/><path fill="#EDAB37" d="M57 27.5l-4 6.26a7.883 7.883 0 00-2-.26c-.68 0-1.35.09-2 .26l-4-6.26s3-2 6 0 6 0 6 0zM52 46.5c1.65 0 3 1.34 3 3s-1.35 3-3 3h-3v-6h3zM52 42.5a1.999 1.999 0 110 4h-3v-4h3z"/><path fill="#656D78" d="M45 58.89v.61c0 .55-.45 1-1 1H2c-.55 0-1-.45-1-1v-7c0-4.42 3.58-8 8-8h7s.51 1.54 3 2.41c.99.35 2.29.59 4 .59s3.01-.24 4-.59c2.49-.87 3-2.41 3-2.41h7c.83 0 1.63.13 2.38.36l.101.029C39.17 46.11 39 47.34 39 48.5c0 4.44 2.41 8.32 6 10.39zM38 22.5v3H25l-2-1-2 1H8v-7h4v2a2 2 0 002 2h4c1.101 0 2-.9 2-2v-2h6v2a2 2 0 002 2h4c1.101 0 2-.9 2-2v-2h4v4z"/><path fill="#EAC6BB" d="M38 18.5H8c0-8.29 6.71-15 15-15 8.28 0 15 6.71 15 15zM25 25.5h13c0 5.75-3.24 10.75-8 13.271-.939.5-1.95.899-3 1.189a15.085 15.085 0 01-8 0c-1.05-.29-2.06-.689-3-1.189C11.24 36.25 8 31.25 8 25.5h13l2-1 2 1z"/><path fill="#D3B1A9" d="M23 3.5c-.681 0-1.345.061-2.001.148C28.333 4.628 34 10.891 34 18.5h4c0-8.29-6.72-15-15-15zM34 25.5c0 5.75-3.24 10.75-8 13.271a14.908 14.908 0 01-5.002 1.594A15.003 15.003 0 0027 39.96c1.05-.29 2.061-.689 3-1.189 4.76-2.521 8-7.521 8-13.271h-4z"/><path fill="#EAC6BB" d="M34 18.5v2c0 1.1-.899 2-2 2h-4a2 2 0 01-2-2v-2h8zM20 18.5v2c0 1.1-.899 2-2 2h-4a2 2 0 01-2-2v-2h8z"/><path fill="#434A54" d="M27 39.96a15.085 15.085 0 01-8 0c-1.05-.29-2.06-.689-3-1.189V44.5s.51 1.54 3 2.41c.99.35 2.29.59 4 .59s3.01-.24 4-.59c2.49-.87 3-2.41 3-2.41v-5.729c-.939.5-1.95.899-3 1.189zM34 18.5h4v7h-4z"/><path d="M1 53.503a1 1 0 01-1-1c0-4.964 4.038-9.002 9.002-9.002a1 1 0 110 2A7.01 7.01 0 002 52.503a1 1 0 01-1 1zM39.381 45.861a1.03 1.03 0 01-.297-.045A7.008 7.008 0 0037 45.502a1 1 0 110-2 9.04 9.04 0 012.678.404 1 1 0 01-.297 1.955z"/><path d="M16 45.502l-6.998-.001a1 1 0 110-2l6.998.001a1 1 0 110 2zM37 45.502l-7-.001a1 1 0 110-2l7 .001a1 1 0 110 2zM1.001 60.5a1 1 0 01-1-1L0 52.503a1 1 0 112 0l.001 6.997a1 1 0 01-1 1z"/><path d="M2.001 61.5c-1.103 0-2-.897-2-2a1 1 0 112 0v.002a.998.998 0 110 1.998zM44 61.5a1 1 0 110-2h.002a.998.998 0 111.998 0c0 1.103-.897 2-2 2z"/><path d="M45 60.5a1 1 0 01-1-1v-.605a1 1 0 112 0v.605a1 1 0 01-1 1z"/><path d="M44 61.5H2.001a1 1 0 110-2H44a1 1 0 110 2zM23 41.501c-8.822 0-16-7.178-16-16a1 1 0 112 0c0 7.72 6.28 14 14 14s14-6.28 14-14a1 1 0 112 0c0 8.822-7.178 16-16 16zM38 19.5a1 1 0 01-1-1c0-7.72-6.28-14-14-14s-14 6.28-14 14a1 1 0 11-2 0c0-8.822 7.178-16 16-16s16 7.178 16 16a1 1 0 01-1 1z"/><path d="M8 26.501a1 1 0 01-1-1V18.5a1 1 0 112 0v7.001a1 1 0 01-1 1zM38 26.501a1 1 0 01-1-1V18.5a1 1 0 112 0v7.001a1 1 0 01-1 1zM16 45.501a1 1 0 01-1-1V38.77a1 1 0 112 0v5.731a1 1 0 01-1 1zM30 45.5a1 1 0 01-1-1v-5.73a1 1 0 112 0v5.73a1 1 0 01-1 1zM35.03 13.499c-.553 0-1.005-.447-1.005-1s.442-1 .994-1h.011a1 1 0 110 2zM31.03 13.499c-.553 0-1.005-.447-1.005-1s.442-1 .994-1h.011a1 1 0 110 2zM31.03 7.499c-.553 0-1.005-.447-1.005-1s.442-1 .994-1h.011a1 1 0 110 2zM27.03 7.499c-.553 0-1.005-.447-1.005-1s.442-1 .994-1h.011a1 1 0 110 2zM23.03 7.499c-.553 0-1.005-.447-1.005-1s.442-1 .994-1h.011a1 1 0 110 2zM19.03 7.499c-.553 0-1.005-.447-1.005-1s.442-1 .994-1h.011a1 1 0 110 2zM15.03 7.499c-.553 0-1.005-.447-1.005-1s.442-1 .994-1h.011a1 1 0 110 2zM33.03 10.499c-.553 0-1.005-.447-1.005-1s.442-1 .994-1h.011a1 1 0 110 2zM29.03 10.499c-.553 0-1.005-.447-1.005-1s.442-1 .994-1h.011a1 1 0 110 2zM25.03 10.499c-.553 0-1.005-.447-1.005-1s.442-1 .994-1h.011a1 1 0 110 2zM21.03 10.499c-.553 0-1.005-.447-1.005-1s.442-1 .994-1h.011a1 1 0 110 2zM17.03 10.499c-.553 0-1.005-.447-1.005-1s.442-1 .994-1h.011a1 1 0 110 2zM13.03 10.499c-.553 0-1.005-.447-1.005-1s.442-1 .994-1h.011a1 1 0 110 2zM37.03 16.499c-.553 0-1.005-.447-1.005-1s.442-1 .994-1h.011a1 1 0 110 2zM25.03 16.499c-.553 0-1.005-.447-1.005-1s.442-1 .994-1h.011a1 1 0 110 2zM21.03 16.499c-.553 0-1.005-.447-1.005-1s.442-1 .994-1h.011a1 1 0 110 2zM9.03 16.499c-.553 0-1.005-.447-1.005-1s.442-1 .994-1h.011a1 1 0 110 2zM27.03 13.499c-.553 0-1.005-.447-1.005-1s.442-1 .994-1h.011a1 1 0 110 2zM23.03 13.499c-.553 0-1.005-.447-1.005-1s.442-1 .994-1h.011a1 1 0 110 2zM19.03 13.499c-.553 0-1.005-.447-1.005-1s.442-1 .994-1h.011a1 1 0 110 2zM15.03 13.499c-.553 0-1.005-.447-1.005-1s.442-1 .994-1h.011a1 1 0 110 2zM11.03 13.499c-.553 0-1.005-.447-1.005-1s.442-1 .994-1h.011a1 1 0 110 2z"/><g><path d="M23 48.5c-6.645 0-7.898-3.531-7.948-3.682a1 1 0 011.891-.653c.051.132 1.01 2.335 6.057 2.335 5.136 0 6.044-2.291 6.052-2.314a1 1 0 011.897.633c-.051.15-1.304 3.681-7.949 3.681z"/></g><g><path d="M23 48.5a1 1 0 01-1-1v-6.999a1 1 0 112 0V47.5a1 1 0 01-1 1z"/></g><g><path d="M27 47.909a1 1 0 01-1-1v-6.947a1 1 0 112 0v6.947a1 1 0 01-1 1z"/></g><g><path d="M19 47.909a1 1 0 01-1-1v-6.947a1 1 0 112 0v6.947a1 1 0 01-1 1z"/></g><g><path d="M38 19.5H8a1 1 0 110-2h30a1 1 0 110 2z"/></g><g><path d="M38 26.5H25c-.155 0-.309-.036-.447-.105L23 25.618l-1.553.776A.99.99 0 0121 26.5H8a1 1 0 110-2h12.764l1.789-.895a1 1 0 01.895 0l1.789.895H38a1 1 0 110 2z"/></g><g><path d="M14 23.5c-1.654 0-3-1.346-3-3a1 1 0 112 0 1 1 0 001 1 1 1 0 110 2z"/></g><g><path d="M18 23.5a1 1 0 110-2 1 1 0 001-1 1 1 0 112 0c0 1.654-1.346 3-3 3z"/></g><g><path d="M18 23.5h-4a1 1 0 110-2h4a1 1 0 110 2z"/></g><g><path d="M20 21.5a1 1 0 01-1-1v-2a1 1 0 112 0v2a1 1 0 01-1 1z"/></g><g><path d="M12 21.5a1 1 0 01-1-1v-2a1 1 0 112 0v2a1 1 0 01-1 1z"/></g><g><path d="M28 23.5c-1.654 0-3-1.346-3-3a1 1 0 112 0 1 1 0 001 1 1 1 0 110 2z"/></g><g><path d="M32 23.5a1 1 0 110-2 1 1 0 001-1 1 1 0 112 0c0 1.654-1.346 3-3 3z"/></g><g><path d="M32 23.5h-4a1 1 0 110-2h4a1 1 0 110 2z"/></g><g><path d="M34 21.5a1 1 0 01-1-1v-2a1 1 0 112 0v2a1 1 0 01-1 1z"/></g><g><path d="M26 21.5a1 1 0 01-1-1v-2a1 1 0 112 0v2a1 1 0 01-1 1z"/></g><g><path d="M38 22.5a1 1 0 01-.316-1.949l3-1a1 1 0 11.633 1.897l-3 1A1.011 1.011 0 0138 22.5z"/></g><g><path d="M41 24.501a.996.996 0 01-.316-.052l-3-1.001a1 1 0 11.633-1.897l3 1.001A1 1 0 0141 24.501z"/></g><g><path d="M51 61.5c-7.168 0-13-5.832-13-13 0-7.246 5.799-15.998 13-15.998S64 41.254 64 48.5c0 7.168-5.832 13-13 13zm0-26.998c-5.924 0-11 7.697-11 13.998 0 6.065 4.935 11 11 11s11-4.935 11-11c0-6.301-5.076-13.998-11-13.998z"/></g><g><path d="M49.001 34.757c-.33 0-.652-.163-.844-.461l-4-6.257a1.002 1.002 0 011.686-1.078l4 6.257a1.002 1.002 0 01-.842 1.539z"/></g><g><path d="M52.999 34.757a1 1 0 01-.842-1.539l4-6.257a1 1 0 011.686 1.078l-4 6.257a1.002 1.002 0 01-.844.461z"/></g><g><path d="M53.883 29.396c-1.054 0-2.241-.266-3.438-1.063-2.417-1.612-4.866-.016-4.891 0a1 1 0 11-1.11-1.664c.145-.097 3.595-2.344 7.109 0 2.417 1.611 4.866.017 4.891 0a1 1 0 011.11 1.664c-.095.063-1.629 1.063-3.671 1.063z"/></g><g><path d="M49 53.5a1 1 0 01-1-1v-10a1 1 0 112 0v10a1 1 0 01-1 1zM52.001 47.498a1 1 0 110-2 1 1 0 000-1.998 1 1 0 110-2c1.653 0 2.999 1.346 2.999 2.999s-1.346 2.999-2.999 2.999z"/><path d="M51.999 53.5a1 1 0 110-2 2.002 2.002 0 000-4.002 1 1 0 110-2A4.006 4.006 0 0156 49.5c0 2.206-1.795 4-4.001 4zM52.001 43.5H48a1 1 0 110-2h4.001a1 1 0 110 2z"/><path d="M51.999 53.5H48a1 1 0 110-2h3.999a1 1 0 110 2zM52.001 47.498H49a1 1 0 110-2h3.001a1 1 0 110 2zM51 43.5a1 1 0 01-1-1v-1a1 1 0 112 0v1a1 1 0 01-1 1z"/><path d="M51 54.5a1 1 0 01-1-1v-1a1 1 0 112 0v1a1 1 0 01-1 1z"/></g></svg>