<?xml version="1.0" encoding="utf-8"?>
<!-- Generator: Adobe Illustrator 16.0.0, SVG Export Plug-In . SVG Version: 6.00 Build 0)  -->
<!DOCTYPE svg PUBLIC "-//W3C//DTD SVG 1.1//EN" "http://www.w3.org/Graphics/SVG/1.1/DTD/svg11.dtd">
<svg version="1.1" xmlns="http://www.w3.org/2000/svg" xmlns:xlink="http://www.w3.org/1999/xlink" x="0px" y="0px" width="64px"
	 height="64px" viewBox="0 0 64 64" enable-background="new 0 0 64 64" xml:space="preserve">
<g id="_x35_0_code_x2C__programming_x2C__program_x2C__bitcoin_x2C__block_x2C__chain_x2C__cryptocurrency">
</g>
<g id="_x34_9_balloon_x2C__takeoff_x2C__bitcoin_x2C__coin_x2C__block_x2C__chain_x2C__cryptocurrency">
</g>
<g id="_x34_8_video_card_x2C__mining_x2C__farm_x2C__computer_x2C__block_x2C__chain_x2C__cryptocurrency">
</g>
<g id="_x34_7_money_box_x2C__saving_x2C__bitcoin_x2C__coin_x2C__block_x2C__chain_x2C__cryptocurrency">
	<g>
		<g>
			<path fill="#D770AD" d="M28.49,59.851V63h-10v-6.64c2.77,1.93,6.21,3.09,10,3.48V59.851z"/>
		</g>
		<g>
			<path fill="#D770AD" d="M44.49,56.36V63h-10v-3.149v-0.01C38.28,59.45,41.72,58.29,44.49,56.36z"/>
		</g>
		<g>
			<path fill="#EDAB37" d="M31.95,9c0.83,0,1.5,0.671,1.5,1.5c0,0.83-0.67,1.5-1.5,1.5h-2.5V9h1H31.95z"/>
		</g>
		<g>
			<path fill="#EDAB37" d="M32.45,12c1.1,0,2,0.9,2,2c0,1.101-0.9,2-2,2h-2h-1v-4h2.5H32.45z"/>
		</g>
		<g>
			<path fill="#FFCE54" d="M32.45,16c1.1,0,2-0.899,2-2c0-1.1-0.9-2-2-2h-0.5c0.83,0,1.5-0.67,1.5-1.5c0-0.829-0.67-1.5-1.5-1.5
				h-1.5h-1v3v4h1H32.45z M31.49,4c4.42,0,8,3.58,8,8c0,4.421-3.58,8-8,8s-8-3.579-8-8C23.49,7.58,27.07,4,31.49,4z"/>
		</g>
		<g>
			<g>
				<path fill="#F6BB42" d="M31.49,4c-0.692,0-1.359,0.097-2,0.262c3.449,0.889,6,4.011,6,7.738c0,3.729-2.551,6.85-6,7.738
					c0.641,0.165,1.308,0.262,2,0.262c4.42,0,8-3.579,8-8C39.49,7.58,35.91,4,31.49,4z"/>
			</g>
		</g>
		<g>
			<path fill="#D770AD" d="M48.49,21l-2.28,8v0.011c-2.1-1.931-4.74-3.3-7.72-4.12c0.06-2.16,1.819-3.891,4-3.891H48.49z"/>
		</g>
		<g>
			<path fill="#D770AD" d="M57.49,37l0.01,10l-8.14,4H49.35c1.37-2.489,2.141-5.489,2.141-9c0-3.51-0.771-6.51-2.141-9h0.011
				L57.49,37z"/>
		</g>
		<g>
			<path fill="#EC87C0" d="M38.49,24.891c2.979,0.82,5.62,2.189,7.72,4.12c1.25,1.13,2.31,2.47,3.14,3.989
				c1.37,2.49,2.141,5.49,2.141,9c0,3.511-0.771,6.511-2.141,9c-1.189,2.19-2.85,3.971-4.859,5.36c-2.771,1.93-6.21,3.09-10,3.48
				C33.51,59.95,32.51,60,31.49,60c-1.021,0-2.021-0.05-3-0.159c-3.79-0.391-7.23-1.551-10-3.48c-4.29-2.97-7-7.75-7-14.36
				c0-3.449,0.739-6.409,2.06-8.859C16.81,27.051,23.62,24,31.49,24C33.95,24,36.31,24.301,38.49,24.891z"/>
		</g>
	</g>
	<g>
		<g>
			<g>
				<g>
					<path d="M31.954,13c-0.553,0-1-0.447-1-1s0.447-1,1-1c0.275,0,0.5-0.225,0.5-0.5s-0.225-0.5-0.5-0.5c-0.553,0-1-0.447-1-1
						s0.447-1,1-1c1.379,0,2.5,1.121,2.5,2.5S33.333,13,31.954,13z"/>
				</g>
				<g>
					<path d="M32.454,17c-0.553,0-1-0.447-1-1s0.447-1,1-1c0.552,0,1-0.448,1-1s-0.448-1-1-1c-0.553,0-1-0.447-1-1s0.447-1,1-1
						c1.654,0,3,1.346,3,3S34.108,17,32.454,17z"/>
				</g>
				<g>
					<path d="M32.454,13h-3c-0.553,0-1-0.447-1-1s0.447-1,1-1h3c0.553,0,1,0.447,1,1S33.007,13,32.454,13z"/>
				</g>
				<g>
					<path d="M32.454,17h-4c-0.553,0-1-0.447-1-1s0.447-1,1-1h4c0.553,0,1,0.447,1,1S33.007,17,32.454,17z"/>
				</g>
				<g>
					<path d="M31.954,10h-3.5c-0.553,0-1-0.447-1-1s0.447-1,1-1h3.5c0.553,0,1,0.447,1,1S32.507,10,31.954,10z"/>
				</g>
				<g>
					<path d="M29.454,17c-0.553,0-1-0.447-1-1V9c0-0.553,0.447-1,1-1s1,0.447,1,1v7C30.454,16.553,30.007,17,29.454,17z"/>
				</g>
				<g>
					<path d="M30.454,10c-0.553,0-1-0.447-1-1V8c0-0.553,0.447-1,1-1s1,0.447,1,1v1C31.454,9.553,31.007,10,30.454,10z"/>
				</g>
				<g>
					<path d="M30.454,18c-0.553,0-1-0.447-1-1v-1c0-0.553,0.447-1,1-1s1,0.447,1,1v1C31.454,17.553,31.007,18,30.454,18z"/>
				</g>
			</g>
			<g>
				<path d="M31.495,21c-4.963,0-9-4.037-9-9s4.037-9,9-9s9,4.037,9,9S36.458,21,31.495,21z M31.495,5c-3.859,0-7,3.141-7,7
					s3.141,7,7,7s7-3.141,7-7S35.354,5,31.495,5z"/>
			</g>
		</g>
		<g>
			<path d="M31.495,61c-12.757,0-21-7.459-21-19.002c0-11.541,8.243-18.998,21-18.998s21,7.457,21,18.998
				C52.495,53.541,44.252,61,31.495,61z M31.495,25c-9.186,0-19,4.466-19,16.998c0,12.535,9.814,17.002,19,17.002
				s19-4.467,19-17.002C50.495,29.466,40.681,25,31.495,25z"/>
		</g>
		<g>
			<g>
				<path d="M23.494,29.408c-0.399,0-0.777-0.241-0.932-0.636c-0.201-0.515,0.054-1.095,0.567-1.296
					C25.604,26.511,28.496,26,31.495,26c2.995,0,5.887,0.51,8.36,1.475c0.515,0.2,0.769,0.78,0.568,1.295
					c-0.201,0.516-0.784,0.771-1.295,0.568C36.884,28.463,34.244,28,31.495,28c-2.752,0-5.394,0.463-7.637,1.34
					C23.738,29.387,23.615,29.408,23.494,29.408z"/>
			</g>
		</g>
		<g>
			<path d="M34.495,64c-0.553,0-1-0.447-1-1v-3.153c0-0.553,0.447-1,1-1s1,0.447,1,1V63C35.495,63.553,35.048,64,34.495,64z"/>
		</g>
		<g>
			<path d="M44.495,64h-10c-0.553,0-1-0.447-1-1s0.447-1,1-1h10c0.553,0,1,0.447,1,1S45.048,64,44.495,64z"/>
		</g>
		<g>
			<path d="M44.495,64c-0.553,0-1-0.447-1-1v-6.635c0-0.553,0.447-1,1-1s1,0.447,1,1V63C45.495,63.553,45.048,64,44.495,64z"/>
		</g>
		<g>
			<path d="M28.495,64c-0.553,0-1-0.447-1-1v-3.153c0-0.553,0.447-1,1-1s1,0.447,1,1V63C29.495,63.553,29.048,64,28.495,64z"/>
		</g>
		<g>
			<path d="M28.495,64h-10c-0.553,0-1-0.447-1-1s0.447-1,1-1h10c0.553,0,1,0.447,1,1S29.048,64,28.495,64z"/>
		</g>
		<g>
			<path d="M18.495,64c-0.553,0-1-0.447-1-1v-6.635c0-0.553,0.447-1,1-1s1,0.447,1,1V63C19.495,63.553,19.048,64,18.495,64z"/>
		</g>
		<g>
			<path d="M49.363,52c-0.369,0-0.725-0.205-0.898-0.559c-0.243-0.496-0.039-1.096,0.456-1.339l8.143-4
				c0.501-0.242,1.096-0.039,1.339,0.456c0.243,0.496,0.039,1.096-0.456,1.339l-8.143,4C49.661,51.967,49.511,52,49.363,52z"/>
		</g>
		<g>
			<path d="M57.504,38c-0.147,0-0.298-0.033-0.44-0.103l-8.141-4c-0.495-0.243-0.699-0.843-0.456-1.339
				c0.243-0.495,0.839-0.7,1.339-0.456l8.141,4c0.495,0.243,0.699,0.843,0.456,1.339C58.229,37.795,57.873,38,57.504,38z"/>
		</g>
		<g>
			<path d="M57.505,48c-0.552,0-0.999-0.447-1-0.999l-0.01-10c-0.001-0.553,0.446-1,0.999-1.001h0.001c0.552,0,0.999,0.447,1,0.999
				l0.01,10C58.506,47.552,58.059,47.999,57.505,48L57.505,48z"/>
		</g>
		<g>
			<path d="M46.214,30c-0.092,0-0.184-0.013-0.275-0.038c-0.531-0.151-0.839-0.705-0.688-1.236l2.282-8
				c0.152-0.532,0.711-0.834,1.236-0.688c0.531,0.151,0.839,0.705,0.688,1.236l-2.282,8C47.049,29.714,46.648,30,46.214,30z"/>
		</g>
		<g>
			<path d="M48.495,22h-6c-0.553,0-1-0.447-1-1s0.447-1,1-1h6c0.553,0,1,0.447,1,1S49.048,22,48.495,22z"/>
		</g>
		<g>
			<path d="M38.497,25.895c-0.01,0-0.019,0-0.027,0c-0.553-0.015-0.988-0.475-0.974-1.026C37.569,22.139,39.765,20,42.495,20
				c0.553,0,1,0.447,1,1s-0.447,1-1,1c-1.639,0-2.956,1.283-2.999,2.921C39.481,25.464,39.036,25.895,38.497,25.895z"/>
		</g>
		<g>
			<path d="M39.495,13c-0.553,0-1-0.447-1-1V3c0-0.553,0.447-1,1-1s1,0.447,1,1v9C40.495,12.553,40.048,13,39.495,13z"/>
		</g>
		<g>
			<path d="M31.495,5c-0.553,0-1-0.447-1-1V1c0-0.553,0.447-1,1-1s1,0.447,1,1v3C32.495,4.553,32.048,5,31.495,5z"/>
		</g>
		<g>
			<path d="M23.495,13c-0.553,0-1-0.447-1-1V5c0-0.553,0.447-1,1-1s1,0.447,1,1v7C24.495,12.553,24.048,13,23.495,13z"/>
		</g>
		<g>
			<path d="M11.065,34.826c-1.514,0-3.011-0.588-4.141-1.719c-1.903-1.903-1.903-5.001,0-6.904c1.602-1.602,4.205-1.602,5.807,0
				c1.358,1.358,1.358,3.569,0,4.928c-1.127,1.129-3.097,1.129-4.226,0c-0.391-0.391-0.391-1.023,0-1.414s1.023-0.391,1.414,0
				c0.375,0.375,1.023,0.375,1.396,0c0.58-0.579,0.58-1.521,0.001-2.1c-0.82-0.82-2.156-0.82-2.979,0
				c-1.124,1.124-1.124,2.952,0,4.076c1.251,1.252,3.184,1.492,4.7,0.585c0.475-0.281,1.088-0.129,1.372,0.345
				c0.283,0.475,0.129,1.088-0.345,1.372C13.133,34.554,12.095,34.826,11.065,34.826z"/>
		</g>
	</g>
</g>
<g id="_x34_6_portfolio_x2C__finance_x2C__bank_note_x2C__bitcoin_x2C__coin_x2C__cryptocurrency">
</g>
<g id="_x34_5_tap_x2C__water_x2C__bitcoin_x2C__coin_x2C__block_x2C__chain_x2C__cryptocurrency">
</g>
<g id="_x34_4_phone_x2C__bitcoin_x2C__coin_x2C__block_x2C__chain_x2C__cryptocurrency">
</g>
<g id="_x34_3_rocket_x2C__sun_x2C__bitcoin_x2C__coin_x2C__block_x2C__chain_x2C__cryptocurrency">
</g>
<g id="_x34_2_transfer_x2C__network_x2C__bitcoin_x2C__coin_x2C__block_x2C__chain_x2C__cryptocurrency">
</g>
<g id="_x34_1_scales_x2C__comparison_x2C__bitcoin_x2C__coin_x2C__block_x2C__chain_x2C__cryptocurrency">
</g>
<g id="_x34_0_calculator_x2C__calculating_x2C__bitcoin_x2C__coin_x2C__block_x2C__chain_x2C__cryptocurrency">
</g>
<g id="_x33_9_start-up_x2C__plant_x2C__hand_x2C__bitcoin_x2C__coin_x2C__cryptocurrency">
</g>
<g id="_x33_8_idea_x2C__bulb_x2C__bitcoin_x2C__coin_x2C__block_x2C__chain_x2C__cryptocurrency">
</g>
<g id="_x33_7_users_x2C__user_x2C__co-founder_x2C__bitcoin_x2C__coin_x2C__cryptocurrency">
</g>
<g id="_x33_6_safe_x2C__protection_x2C__bitcoin_x2C__coin_x2C__block_x2C__chain_x2C__cryptocurrency">
</g>
<g id="_x33_5_flash_drive_x2C__key_x2C__block_x2C__chain_x2C__cryptocurrency">
</g>
<g id="_x33_4_cloud_x2C__mining_x2C__bitcoin_x2C__coin_x2C__block_x2C__chain_x2C__cryptocurrency">
</g>
<g id="_x33_3_start_up_x2C__plant_x2C__bitcoin_x2C__coin_x2C__block_x2C__chain_x2C__cryptocurrency">
</g>
<g id="_x33_2_planet_x2C__bitcoin_x2C__coin_x2C__block_x2C__chain_x2C__cryptocurrency">
</g>
<g id="_x33_1_payment_x2C__hand_x2C__bitcoin_x2C__coin_x2C__block_x2C__chain_x2C__cryptocurrency">
</g>
<g id="_x33_0_user_x2C__laptop_x2C__bitcoin_x2C__coin_x2C__block_x2C__chain_x2C__cryptocurrency">
</g>
<g id="_x32_9_thief_x2C__bag_x2C__bitcoin_x2C__coin_x2C__block_x2C__chain_x2C__cryptocurrency">
</g>
<g id="_x32_8_code_x2C__programming_x2C__program_x2C__bitcoin_x2C__coin_x2C__cryptocurrency">
</g>
<g id="_x32_7_bitcoin_x2C__coin_x2C__block_x2C__chain_x2C__cryptocurrency">
</g>
<g id="_x32_6_shield_x2C__protection_x2C__bitcoin_x2C__coin_x2C__block_x2C__chain_x2C__cryptocurrency">
</g>
<g id="_x32_5_bug_x2C__laptop_x2C__miner_x2C__program_x2C__block_x2C__chain_x2C__cryptocurrency">
</g>
<g id="_x32_4_computer_x2C__monitor_x2C__bitcoin_x2C__coin_x2C__block_x2C__chain_x2C__cryptocurrency">
</g>
<g id="_x32_3_network_x2C__idea_x2C__bitcoin_x2C__coin_x2C__block_x2C__chain_x2C__cryptocurrency">
</g>
<g id="_x32_2_block_x2C__chain_x2C__cryptocurrency_x2C__technology_x2C__future">
</g>
<g id="_x32_1_smart_contact_x2C__contact_x2C__block_x2C__chain_x2C__cryptocurrency">
</g>
<g id="_x32_0_lock_x2C__safe_x2C__protection_x2C__block_x2C__chain_x2C__cryptocurrency_x2C__program">
</g>
<g id="_x31_9_server_x2C__data_x2C__bitcoin_x2C__coin_x2C__block_x2C__chain_x2C__cryptocurrency">
</g>
<g id="_x31_8_key_x2C__bitcoin_x2C__coin_x2C__block_x2C__chain_x2C__cryptocurrency">
</g>
<g id="_x31_7_pool_x2C__network_x2C__bitcoin_x2C__coin_x2C__block_x2C__chain_x2C__cryptocurrency">
</g>
<g id="_x31_6_mining_x2C__shovel_x2C__mine_x2C__coin_x2C__block_x2C__chain_x2C__cryptocurrency">
</g>
<g id="_x31_5_purse_x2C__bitcoin_x2C__coin_x2C__block_x2C__chain_x2C__cryptocurrency">
</g>
<g id="_x31_4_safe_x2C__protection_x2C__block_x2C__chain_x2C__cryptocurrency_x2C__program">
</g>
<g id="_x31_3_mining_x2C__funnel_x2C__satoshi_x2C__bitcoin_x2C__coin_x2C__cryptocurrency">
</g>
<g id="_x31_2_chart_x2C__bitcoin_x2C__coin_x2C__block_x2C__chain_x2C__cryptocurrency">
</g>
<g id="_x31_1_computer_x2C__monitor_x2C__bitcoin_x2C__coin_x2C__block_x2C__chain_x2C__cryptocurrency">
</g>
<g id="_x31_0_mining_x2C__pickaxe_x2C__stone_x2C__mine_x2C___bitcoin_x2C__coin_x2C__cryptocurrency">
</g>
<g id="_x39__miner_x2C__mining_x2C__computer_x2C__pickaxe_x2C__program_x2C__cryptocurrency">
</g>
<g id="_x38__video_card_x2C__mining_x2C__bitcoin_x2C__coin_x2C__block_x2C__chain_x2C__cryptocurrency">
</g>
<g id="_x37__exchanger_x2C__site_x2C__bitcoin_x2C__coin_x2C__block_x2C__chain_x2C__cryptocurrency">
</g>
<g id="_x36__shop_x2C__product_x2C__bitcoin_x2C__coin_x2C__block_x2C__chain_x2C__cryptocurrency">
</g>
<g id="_x35__bitcoin_x2C__coin_x2C__exchange_x2C__block_x2C__chain_x2C__cryptocurrency_x2C__product">
</g>
<g id="_x34__bitcoin_x2C__coin_x2C__exchange_x2C__block_x2C__chain_x2C__cryptocurrency">
</g>
<g id="_x33__bitcoin_x2C__coin_x2C__exchange_x2C__block_x2C__chain_x2C__cryptocurrency">
</g>
<g id="_x32__brain_x2C__smart_x2C__coin_x2C__block_x2C__chain_x2C__cryptocurrency">
</g>
<g id="_x31__bitcoin_x2C__coin_x2C__block_x2C__chain_x2C__cryptocurrency">
</g>
</svg>
