<?xml version="1.0" encoding="utf-8"?>
<!-- Generator: Adobe Illustrator 16.0.0, SVG Export Plug-In . SVG Version: 6.00 Build 0)  -->
<!DOCTYPE svg PUBLIC "-//W3C//DTD SVG 1.1//EN" "http://www.w3.org/Graphics/SVG/1.1/DTD/svg11.dtd">
<svg version="1.1" xmlns="http://www.w3.org/2000/svg" xmlns:xlink="http://www.w3.org/1999/xlink" x="0px" y="0px" width="64px"
	 height="64px" viewBox="0 0 64 64" enable-background="new 0 0 64 64" xml:space="preserve">
<g id="_x35_0_code_x2C__programming_x2C__program_x2C__bitcoin_x2C__block_x2C__chain_x2C__cryptocurrency">
</g>
<g id="_x34_9_balloon_x2C__takeoff_x2C__bitcoin_x2C__coin_x2C__block_x2C__chain_x2C__cryptocurrency">
</g>
<g id="_x34_8_video_card_x2C__mining_x2C__farm_x2C__computer_x2C__block_x2C__chain_x2C__cryptocurrency">
</g>
<g id="_x34_7_money_box_x2C__saving_x2C__bitcoin_x2C__coin_x2C__block_x2C__chain_x2C__cryptocurrency">
</g>
<g id="_x34_6_portfolio_x2C__finance_x2C__bank_note_x2C__bitcoin_x2C__coin_x2C__cryptocurrency">
</g>
<g id="_x34_5_tap_x2C__water_x2C__bitcoin_x2C__coin_x2C__block_x2C__chain_x2C__cryptocurrency">
</g>
<g id="_x34_4_phone_x2C__bitcoin_x2C__coin_x2C__block_x2C__chain_x2C__cryptocurrency">
</g>
<g id="_x34_3_rocket_x2C__sun_x2C__bitcoin_x2C__coin_x2C__block_x2C__chain_x2C__cryptocurrency">
</g>
<g id="_x34_2_transfer_x2C__network_x2C__bitcoin_x2C__coin_x2C__block_x2C__chain_x2C__cryptocurrency">
</g>
<g id="_x34_1_scales_x2C__comparison_x2C__bitcoin_x2C__coin_x2C__block_x2C__chain_x2C__cryptocurrency">
</g>
<g id="_x34_0_calculator_x2C__calculating_x2C__bitcoin_x2C__coin_x2C__block_x2C__chain_x2C__cryptocurrency">
</g>
<g id="_x33_9_start-up_x2C__plant_x2C__hand_x2C__bitcoin_x2C__coin_x2C__cryptocurrency">
</g>
<g id="_x33_8_idea_x2C__bulb_x2C__bitcoin_x2C__coin_x2C__block_x2C__chain_x2C__cryptocurrency">
</g>
<g id="_x33_7_users_x2C__user_x2C__co-founder_x2C__bitcoin_x2C__coin_x2C__cryptocurrency">
</g>
<g id="_x33_6_safe_x2C__protection_x2C__bitcoin_x2C__coin_x2C__block_x2C__chain_x2C__cryptocurrency">
</g>
<g id="_x33_5_flash_drive_x2C__key_x2C__block_x2C__chain_x2C__cryptocurrency">
</g>
<g id="_x33_4_cloud_x2C__mining_x2C__bitcoin_x2C__coin_x2C__block_x2C__chain_x2C__cryptocurrency">
</g>
<g id="_x33_3_start_up_x2C__plant_x2C__bitcoin_x2C__coin_x2C__block_x2C__chain_x2C__cryptocurrency">
</g>
<g id="_x33_2_planet_x2C__bitcoin_x2C__coin_x2C__block_x2C__chain_x2C__cryptocurrency">
</g>
<g id="_x33_1_payment_x2C__hand_x2C__bitcoin_x2C__coin_x2C__block_x2C__chain_x2C__cryptocurrency">
</g>
<g id="_x33_0_user_x2C__laptop_x2C__bitcoin_x2C__coin_x2C__block_x2C__chain_x2C__cryptocurrency">
</g>
<g id="_x32_9_thief_x2C__bag_x2C__bitcoin_x2C__coin_x2C__block_x2C__chain_x2C__cryptocurrency">
</g>
<g id="_x32_8_code_x2C__programming_x2C__program_x2C__bitcoin_x2C__coin_x2C__cryptocurrency">
</g>
<g id="_x32_7_bitcoin_x2C__coin_x2C__block_x2C__chain_x2C__cryptocurrency">
</g>
<g id="_x32_6_shield_x2C__protection_x2C__bitcoin_x2C__coin_x2C__block_x2C__chain_x2C__cryptocurrency">
</g>
<g id="_x32_5_bug_x2C__laptop_x2C__miner_x2C__program_x2C__block_x2C__chain_x2C__cryptocurrency">
	<g>
		<g>
			<path fill="#CCD1D9" d="M63,51.495v3c0,1.11-0.89,2-2,2H3c-1.1,0-2-0.89-2-2v-3h4h54H63z"/>
		</g>
		<g>
			<path fill="#AAB2BD" d="M59,51.495v3c0,1.11-0.89,2-2,2h4c1.11,0,2-0.89,2-2v-3H59z"/>
		</g>
		<g>
			<path fill="#FFCE54" d="M32.03,22.495c-6.63,0-12,5.37-12,12s5.37,12,12,12c6.62,0,12-5.37,12-12S38.65,22.495,32.03,22.495z
				 M32.03,18.495c1.48,0,2.76-0.8,3.45-1.99c0.35-0.59,0.55-1.279,0.55-2.01h2H57c1.11,0,2,0.89,2,2v35H5v-35c0-1.11,0.9-2,2-2h19
				h2.03C28.03,16.705,29.82,18.495,32.03,18.495z"/>
		</g>
		<g>
			<g>
				<path fill="#F6BB42" d="M57,14.495h-4c1.11,0,2,0.89,2,2v35h4v-35C59,15.385,58.11,14.495,57,14.495z"/>
			</g>
		</g>
		<g>
			<path fill="#656D78" d="M30,9.505c0-1.1,0.9-2,2-2c1.11,0,2,0.9,2,2v1.51c-0.579-0.329-1.25-0.52-1.97-0.52
				c-0.74,0-1.43,0.2-2.03,0.55V9.505z"/>
		</g>
		<g>
			<path fill="#ED5565" d="M35.48,12.485c0.35,0.59,0.55,1.279,0.55,2.01s-0.2,1.42-0.55,2.01c-0.69,1.19-1.97,1.99-3.45,1.99
				c-2.21,0-4-1.79-4-4c0-1.47,0.79-2.75,1.97-3.45c0.601-0.35,1.29-0.55,2.03-0.55c0.72,0,1.391,0.19,1.97,0.52
				C34.62,11.365,35.131,11.865,35.48,12.485z"/>
		</g>
		<g>
			<path fill="#ED5565" d="M32.03,22.495c6.62,0,12,5.37,12,12s-5.38,12-12,12c-6.63,0-12-5.37-12-12S25.4,22.495,32.03,22.495z"/>
		</g>
		<g>
			<path fill="#DA4453" d="M32.03,22.495c-0.684,0-1.349,0.07-2.001,0.18c5.669,0.954,10.001,5.874,10.001,11.82
				s-4.332,10.866-10.001,11.82c0.652,0.109,1.317,0.18,2.001,0.18c6.62,0,12-5.37,12-12S38.65,22.495,32.03,22.495z"/>
		</g>
		<g>
			<path fill="#965353" d="M36.23,40.815l-6.72-6.721l2.12-2.119l6.72,6.72c0.58,0.58,0.58,1.54,0,2.12
				C37.761,41.405,36.811,41.405,36.23,40.815z"/>
		</g>
		<g>
			<path fill="#CCD1D9" d="M25.271,38.335c0,0,0.7-4.939,3.18-7.42c2.471-2.47,7.42-3.18,7.42-3.18l-4.239,4.24l-2.12,2.119
				L25.271,38.335z"/>
		</g>
	</g>
	<g>
		<g>
			<path d="M3,57.496c-1.654,0-3-1.346-3-3c0-0.553,0.447-1,1-1s1,0.447,1,1c0,0.552,0.448,1,1,1c0.553,0,1,0.447,1,1
				S3.553,57.496,3,57.496z"/>
		</g>
		<g>
			<path d="M5,17.492c-0.553,0-1-0.447-1-1c0-1.654,1.346-3,3-3c0.553,0,1,0.447,1,1s-0.447,1-1,1c-0.552,0-1,0.448-1,1
				C6,17.045,5.553,17.492,5,17.492z"/>
		</g>
		<g>
			<path d="M1,55.496c-0.553,0-1-0.447-1-1v-3c0-0.553,0.447-1,1-1s1,0.447,1,1v3C2,55.049,1.553,55.496,1,55.496z"/>
		</g>
		<g>
			<path d="M61,57.496c-0.553,0-1-0.447-1-1s0.447-1,1-1c0.552,0,1-0.448,1-1c0-0.553,0.447-1,1-1s1,0.447,1,1
				C64,56.15,62.654,57.496,61,57.496z"/>
		</g>
		<g>
			<path d="M63,55.496c-0.553,0-1-0.447-1-1v-3c0-0.553,0.447-1,1-1s1,0.447,1,1v3C64,55.049,63.553,55.496,63,55.496z"/>
		</g>
		<g>
			<path d="M63,52.496H1c-0.553,0-1-0.447-1-1s0.447-1,1-1h62c0.553,0,1,0.447,1,1S63.553,52.496,63,52.496z"/>
		</g>
		<g>
			<path d="M61,57.496H3c-0.553,0-1-0.447-1-1s0.447-1,1-1h58c0.553,0,1,0.447,1,1S61.553,57.496,61,57.496z"/>
		</g>
		<g>
			<path d="M5,52.492c-0.553,0-1-0.447-1-1v-35c0-0.553,0.447-1,1-1s1,0.447,1,1v35C6,52.045,5.553,52.492,5,52.492z"/>
		</g>
		<g>
			<path d="M59,17.492c-0.553,0-1-0.447-1-1c0-0.552-0.448-1-1-1c-0.553,0-1-0.447-1-1s0.447-1,1-1c1.654,0,3,1.346,3,3
				C60,17.045,59.553,17.492,59,17.492z"/>
		</g>
		<g>
			<path d="M59,52.492c-0.553,0-1-0.447-1-1v-35c0-0.553,0.447-1,1-1s1,0.447,1,1v35C60,52.045,59.553,52.492,59,52.492z"/>
		</g>
		<g>
			<path d="M23,15.492H7c-0.553,0-1-0.447-1-1s0.447-1,1-1h16c0.553,0,1,0.447,1,1S23.553,15.492,23,15.492z"/>
		</g>
		<g>
			<path d="M57,15.492H41c-0.553,0-1-0.447-1-1s0.447-1,1-1h16c0.553,0,1,0.447,1,1S57.553,15.492,57,15.492z"/>
		</g>
		<g>
			<path d="M32.023,19.492c-2.757,0-5-2.243-5-5s2.243-5,5-5s5,2.243,5,5S34.78,19.492,32.023,19.492z M32.023,11.492
				c-1.654,0-3,1.346-3,3s1.346,3,3,3s3-1.346,3-3S33.678,11.492,32.023,11.492z"/>
		</g>
		<g>
			<path d="M34,10.504c-0.553,0-1-0.447-1-1c0-0.552-0.448-1-1-1s-1,0.448-1,1c0,0.553-0.447,1-1,1s-1-0.447-1-1
				c0-1.654,1.346-3,3-3s3,1.346,3,3C35,10.057,34.553,10.504,34,10.504z"/>
		</g>
		<g>
			<path d="M28.023,15.492H26c-0.553,0-1-0.447-1-1s0.447-1,1-1h2.023c0.553,0,1,0.447,1,1S28.576,15.492,28.023,15.492z"/>
		</g>
		<g>
			<path d="M28.559,13.492c-0.185,0-0.372-0.051-0.539-0.158l-1.56-1c-0.465-0.298-0.6-0.917-0.302-1.382s0.916-0.602,1.382-0.302
				l1.56,1c0.465,0.298,0.6,0.917,0.302,1.382C29.21,13.33,28.888,13.492,28.559,13.492z"/>
		</g>
		<g>
			<path d="M27.001,18.492c-0.329,0-0.651-0.162-0.843-0.46c-0.298-0.465-0.163-1.084,0.302-1.382l1.56-1
				c0.464-0.3,1.083-0.164,1.382,0.302c0.298,0.465,0.163,1.084-0.302,1.382l-1.56,1C27.373,18.441,27.186,18.492,27.001,18.492z"/>
		</g>
		<g>
			<path d="M38.023,15.492H36c-0.553,0-1-0.447-1-1s0.447-1,1-1h2.023c0.553,0,1,0.447,1,1S38.576,15.492,38.023,15.492z"/>
		</g>
		<g>
			<path d="M35.465,13.492c-0.329,0-0.651-0.162-0.843-0.46c-0.298-0.465-0.163-1.084,0.302-1.382l1.56-1
				c0.464-0.3,1.083-0.163,1.382,0.302c0.298,0.465,0.163,1.084-0.302,1.382l-1.56,1C35.837,13.441,35.649,13.492,35.465,13.492z"/>
		</g>
		<g>
			<path d="M37.022,18.492c-0.185,0-0.372-0.051-0.539-0.158l-1.56-1c-0.465-0.298-0.6-0.917-0.302-1.382
				c0.299-0.466,0.916-0.602,1.382-0.302l1.56,1c0.465,0.298,0.6,0.917,0.302,1.382C37.674,18.33,37.352,18.492,37.022,18.492z"/>
		</g>
		<g>
			<path d="M30,12.043c-0.553,0-1-0.447-1-1V9.504c0-0.553,0.447-1,1-1s1,0.447,1,1v1.539C31,11.596,30.553,12.043,30,12.043z"/>
		</g>
		<g>
			<path d="M34,12.016c-0.553,0-1-0.447-1-1V9.504c0-0.553,0.447-1,1-1s1,0.447,1,1v1.512C35,11.568,34.553,12.016,34,12.016z"/>
		</g>
		<g>
			<path d="M32.023,23.492c-0.553,0-1-0.447-1-1v-4c0-0.553,0.447-1,1-1s1,0.447,1,1v4C33.023,23.045,32.576,23.492,32.023,23.492z"
				/>
		</g>
		<g>
			<path d="M32.023,47.492c-7.168,0-13-5.832-13-13s5.832-13,13-13s13,5.832,13,13S39.191,47.492,32.023,47.492z M32.023,23.492
				c-6.065,0-11,4.935-11,11s4.935,11,11,11s11-4.935,11-11S38.089,23.492,32.023,23.492z"/>
		</g>
		<g>
			<g>
				<path d="M36.223,41.813c-0.256,0-0.512-0.098-0.707-0.293l-6.717-6.717c-0.391-0.391-0.391-1.023,0-1.414s1.023-0.391,1.414,0
					l6.717,6.717c0.391,0.391,0.391,1.023,0,1.414C36.734,41.715,36.479,41.813,36.223,41.813z"/>
			</g>
			<g>
				<path d="M38.345,39.691c-0.256,0-0.512-0.098-0.707-0.293l-6.718-6.717c-0.391-0.391-0.391-1.023,0-1.414s1.023-0.391,1.414,0
					l6.718,6.717c0.391,0.391,0.391,1.023,0,1.414C38.856,39.594,38.601,39.691,38.345,39.691z"/>
			</g>
			<g>
				<path d="M37.284,42.251c-0.641,0-1.281-0.244-1.769-0.731c-0.391-0.391-0.391-1.023,0-1.414s1.023-0.391,1.414,0
					c0.194,0.194,0.512,0.196,0.708,0c0.127-0.127,0.146-0.275,0.146-0.353c0-0.078-0.019-0.228-0.146-0.355
					c-0.39-0.391-0.39-1.023,0.002-1.414c0.389-0.389,1.023-0.391,1.414,0.002c0.471,0.472,0.73,1.1,0.73,1.768
					s-0.26,1.296-0.732,1.768C38.564,42.007,37.924,42.251,37.284,42.251z"/>
			</g>
			<g>
				<path d="M25.263,39.338c-0.256,0-0.512-0.098-0.707-0.293c-0.391-0.391-0.391-1.023,0-1.414l10.606-10.605
					c0.391-0.391,1.023-0.391,1.414,0s0.391,1.023,0,1.414L25.97,39.045C25.774,39.24,25.519,39.338,25.263,39.338z"/>
			</g>
			<g>
				<path d="M25.264,39.338c-0.047,0-0.095-0.004-0.144-0.011c-0.546-0.078-0.926-0.584-0.848-1.131
					c0.031-0.216,0.785-5.31,3.466-7.989c2.68-2.68,7.773-3.434,7.989-3.465c0.543-0.08,1.053,0.302,1.131,0.848
					c0.079,0.547-0.301,1.054-0.847,1.133c-0.047,0.006-4.654,0.693-6.859,2.898c-2.206,2.205-2.894,6.813-2.899,6.859
					C26.181,38.979,25.753,39.338,25.264,39.338z"/>
			</g>
		</g>
	</g>
</g>
<g id="_x32_4_computer_x2C__monitor_x2C__bitcoin_x2C__coin_x2C__block_x2C__chain_x2C__cryptocurrency">
</g>
<g id="_x32_3_network_x2C__idea_x2C__bitcoin_x2C__coin_x2C__block_x2C__chain_x2C__cryptocurrency">
</g>
<g id="_x32_2_block_x2C__chain_x2C__cryptocurrency_x2C__technology_x2C__future">
</g>
<g id="_x32_1_smart_contact_x2C__contact_x2C__block_x2C__chain_x2C__cryptocurrency">
</g>
<g id="_x32_0_lock_x2C__safe_x2C__protection_x2C__block_x2C__chain_x2C__cryptocurrency_x2C__program">
</g>
<g id="_x31_9_server_x2C__data_x2C__bitcoin_x2C__coin_x2C__block_x2C__chain_x2C__cryptocurrency">
</g>
<g id="_x31_8_key_x2C__bitcoin_x2C__coin_x2C__block_x2C__chain_x2C__cryptocurrency">
</g>
<g id="_x31_7_pool_x2C__network_x2C__bitcoin_x2C__coin_x2C__block_x2C__chain_x2C__cryptocurrency">
</g>
<g id="_x31_6_mining_x2C__shovel_x2C__mine_x2C__coin_x2C__block_x2C__chain_x2C__cryptocurrency">
</g>
<g id="_x31_5_purse_x2C__bitcoin_x2C__coin_x2C__block_x2C__chain_x2C__cryptocurrency">
</g>
<g id="_x31_4_safe_x2C__protection_x2C__block_x2C__chain_x2C__cryptocurrency_x2C__program">
</g>
<g id="_x31_3_mining_x2C__funnel_x2C__satoshi_x2C__bitcoin_x2C__coin_x2C__cryptocurrency">
</g>
<g id="_x31_2_chart_x2C__bitcoin_x2C__coin_x2C__block_x2C__chain_x2C__cryptocurrency">
</g>
<g id="_x31_1_computer_x2C__monitor_x2C__bitcoin_x2C__coin_x2C__block_x2C__chain_x2C__cryptocurrency">
</g>
<g id="_x31_0_mining_x2C__pickaxe_x2C__stone_x2C__mine_x2C___bitcoin_x2C__coin_x2C__cryptocurrency">
</g>
<g id="_x39__miner_x2C__mining_x2C__computer_x2C__pickaxe_x2C__program_x2C__cryptocurrency">
</g>
<g id="_x38__video_card_x2C__mining_x2C__bitcoin_x2C__coin_x2C__block_x2C__chain_x2C__cryptocurrency">
</g>
<g id="_x37__exchanger_x2C__site_x2C__bitcoin_x2C__coin_x2C__block_x2C__chain_x2C__cryptocurrency">
</g>
<g id="_x36__shop_x2C__product_x2C__bitcoin_x2C__coin_x2C__block_x2C__chain_x2C__cryptocurrency">
</g>
<g id="_x35__bitcoin_x2C__coin_x2C__exchange_x2C__block_x2C__chain_x2C__cryptocurrency_x2C__product">
</g>
<g id="_x34__bitcoin_x2C__coin_x2C__exchange_x2C__block_x2C__chain_x2C__cryptocurrency">
</g>
<g id="_x33__bitcoin_x2C__coin_x2C__exchange_x2C__block_x2C__chain_x2C__cryptocurrency">
</g>
<g id="_x32__brain_x2C__smart_x2C__coin_x2C__block_x2C__chain_x2C__cryptocurrency">
</g>
<g id="_x31__bitcoin_x2C__coin_x2C__block_x2C__chain_x2C__cryptocurrency">
</g>
</svg>
