<?xml version="1.0" encoding="utf-8"?>
<!-- Generator: Adobe Illustrator 16.0.0, SVG Export Plug-In . SVG Version: 6.00 Build 0)  -->
<!DOCTYPE svg PUBLIC "-//W3C//DTD SVG 1.1//EN" "http://www.w3.org/Graphics/SVG/1.1/DTD/svg11.dtd">
<svg version="1.1" xmlns="http://www.w3.org/2000/svg" xmlns:xlink="http://www.w3.org/1999/xlink" x="0px" y="0px" width="64px"
	 height="64px" viewBox="0 0 64 64" enable-background="new 0 0 64 64" xml:space="preserve">
<g id="_x35_0_code_x2C__programming_x2C__program_x2C__bitcoin_x2C__block_x2C__chain_x2C__cryptocurrency">
</g>
<g id="_x34_9_balloon_x2C__takeoff_x2C__bitcoin_x2C__coin_x2C__block_x2C__chain_x2C__cryptocurrency">
</g>
<g id="_x34_8_video_card_x2C__mining_x2C__farm_x2C__computer_x2C__block_x2C__chain_x2C__cryptocurrency">
</g>
<g id="_x34_7_money_box_x2C__saving_x2C__bitcoin_x2C__coin_x2C__block_x2C__chain_x2C__cryptocurrency">
</g>
<g id="_x34_6_portfolio_x2C__finance_x2C__bank_note_x2C__bitcoin_x2C__coin_x2C__cryptocurrency">
</g>
<g id="_x34_5_tap_x2C__water_x2C__bitcoin_x2C__coin_x2C__block_x2C__chain_x2C__cryptocurrency">
</g>
<g id="_x34_4_phone_x2C__bitcoin_x2C__coin_x2C__block_x2C__chain_x2C__cryptocurrency">
</g>
<g id="_x34_3_rocket_x2C__sun_x2C__bitcoin_x2C__coin_x2C__block_x2C__chain_x2C__cryptocurrency">
</g>
<g id="_x34_2_transfer_x2C__network_x2C__bitcoin_x2C__coin_x2C__block_x2C__chain_x2C__cryptocurrency">
</g>
<g id="_x34_1_scales_x2C__comparison_x2C__bitcoin_x2C__coin_x2C__block_x2C__chain_x2C__cryptocurrency">
</g>
<g id="_x34_0_calculator_x2C__calculating_x2C__bitcoin_x2C__coin_x2C__block_x2C__chain_x2C__cryptocurrency">
</g>
<g id="_x33_9_start-up_x2C__plant_x2C__hand_x2C__bitcoin_x2C__coin_x2C__cryptocurrency">
</g>
<g id="_x33_8_idea_x2C__bulb_x2C__bitcoin_x2C__coin_x2C__block_x2C__chain_x2C__cryptocurrency">
</g>
<g id="_x33_7_users_x2C__user_x2C__co-founder_x2C__bitcoin_x2C__coin_x2C__cryptocurrency">
</g>
<g id="_x33_6_safe_x2C__protection_x2C__bitcoin_x2C__coin_x2C__block_x2C__chain_x2C__cryptocurrency">
</g>
<g id="_x33_5_flash_drive_x2C__key_x2C__block_x2C__chain_x2C__cryptocurrency">
</g>
<g id="_x33_4_cloud_x2C__mining_x2C__bitcoin_x2C__coin_x2C__block_x2C__chain_x2C__cryptocurrency">
</g>
<g id="_x33_3_start_up_x2C__plant_x2C__bitcoin_x2C__coin_x2C__block_x2C__chain_x2C__cryptocurrency">
</g>
<g id="_x33_2_planet_x2C__bitcoin_x2C__coin_x2C__block_x2C__chain_x2C__cryptocurrency">
</g>
<g id="_x33_1_payment_x2C__hand_x2C__bitcoin_x2C__coin_x2C__block_x2C__chain_x2C__cryptocurrency">
</g>
<g id="_x33_0_user_x2C__laptop_x2C__bitcoin_x2C__coin_x2C__block_x2C__chain_x2C__cryptocurrency">
</g>
<g id="_x32_9_thief_x2C__bag_x2C__bitcoin_x2C__coin_x2C__block_x2C__chain_x2C__cryptocurrency">
</g>
<g id="_x32_8_code_x2C__programming_x2C__program_x2C__bitcoin_x2C__coin_x2C__cryptocurrency">
</g>
<g id="_x32_7_bitcoin_x2C__coin_x2C__block_x2C__chain_x2C__cryptocurrency">
</g>
<g id="_x32_6_shield_x2C__protection_x2C__bitcoin_x2C__coin_x2C__block_x2C__chain_x2C__cryptocurrency">
</g>
<g id="_x32_5_bug_x2C__laptop_x2C__miner_x2C__program_x2C__block_x2C__chain_x2C__cryptocurrency">
</g>
<g id="_x32_4_computer_x2C__monitor_x2C__bitcoin_x2C__coin_x2C__block_x2C__chain_x2C__cryptocurrency">
</g>
<g id="_x32_3_network_x2C__idea_x2C__bitcoin_x2C__coin_x2C__block_x2C__chain_x2C__cryptocurrency">
</g>
<g id="_x32_2_block_x2C__chain_x2C__cryptocurrency_x2C__technology_x2C__future">
</g>
<g id="_x32_1_smart_contact_x2C__contact_x2C__block_x2C__chain_x2C__cryptocurrency">
</g>
<g id="_x32_0_lock_x2C__safe_x2C__protection_x2C__block_x2C__chain_x2C__cryptocurrency_x2C__program">
</g>
<g id="_x31_9_server_x2C__data_x2C__bitcoin_x2C__coin_x2C__block_x2C__chain_x2C__cryptocurrency">
</g>
<g id="_x31_8_key_x2C__bitcoin_x2C__coin_x2C__block_x2C__chain_x2C__cryptocurrency">
</g>
<g id="_x31_7_pool_x2C__network_x2C__bitcoin_x2C__coin_x2C__block_x2C__chain_x2C__cryptocurrency">
</g>
<g id="_x31_6_mining_x2C__shovel_x2C__mine_x2C__coin_x2C__block_x2C__chain_x2C__cryptocurrency">
</g>
<g id="_x31_5_purse_x2C__bitcoin_x2C__coin_x2C__block_x2C__chain_x2C__cryptocurrency">
</g>
<g id="_x31_4_safe_x2C__protection_x2C__block_x2C__chain_x2C__cryptocurrency_x2C__program">
</g>
<g id="_x31_3_mining_x2C__funnel_x2C__satoshi_x2C__bitcoin_x2C__coin_x2C__cryptocurrency">
</g>
<g id="_x31_2_chart_x2C__bitcoin_x2C__coin_x2C__block_x2C__chain_x2C__cryptocurrency">
	<g>
		<g>
			<path fill="#EDAB37" d="M31,6h2h1c1.101,0,2,0.9,2,2c0,1.11-0.899,2-2,2h-3V6z"/>
		</g>
		<g>
			<path fill="#EDAB37" d="M34.49,10c1.39,0,2.51,1.12,2.51,2.5S35.88,15,34.49,15H33h-2v-5h3H34.49z"/>
		</g>
		<g>
			<path fill="#EDAB37" d="M37.99,19.66C36.521,20.51,34.82,21,33,21c-1.83,0-3.529-0.49-5-1.34c-2.99-1.73-5-4.96-5-8.66v4
				c0,3.7,2.01,6.93,5,8.66c1.471,0.85,3.17,1.34,5,1.34c1.82,0,3.53-0.49,5-1.34c2.99-1.73,5-4.96,5-8.66v-4
				C43,14.7,40.98,17.94,37.99,19.66z"/>
		</g>
		<g>
			<path fill="#FFCE54" d="M31,6v4v5h2h1.49c1.39,0,2.51-1.12,2.51-2.5S35.88,10,34.49,10H34c1.101,0,2-0.89,2-2c0-1.1-0.899-2-2-2
				h-1H31z M43,11c0,3.7-2.02,6.94-5.01,8.66C36.521,20.51,34.82,21,33,21c-1.83,0-3.529-0.49-5-1.34c-2.99-1.73-5-4.96-5-8.66
				c0-5.52,4.471-10,10-10C38.521,1,43,5.48,43,11z"/>
		</g>
		<g>
			<g>
				<path fill="#F6BB42" d="M33,1c-0.686,0-1.354,0.069-2.001,0.201C35.563,2.128,39,6.165,39,11c0,3.7-2.02,6.94-5.01,8.66
					c-0.915,0.529-1.927,0.897-2.994,1.116C31.645,20.909,32.31,21,33,21c1.82,0,3.521-0.49,4.99-1.34C40.98,17.94,43,14.7,43,11
					C43,5.48,38.521,1,33,1z"/>
			</g>
		</g>
		<g>
			<polygon fill="#ED5565" points="58,28 58,51 56,51 54,51 54,28 56,28 			"/>
		</g>
		<g>
			<polygon fill="#5D9CEC" points="50,28 50,43 48,43 46,43 46,28 48,28 			"/>
		</g>
		<g>
			<polygon fill="#5D9CEC" points="43,43 43,51 41,51 39,51 39,43 41,43 			"/>
		</g>
		<g>
			<polygon fill="#ED5565" points="35,37 35,51 33,51 31,51 31,37 33,37 			"/>
		</g>
		<g>
			<polygon fill="#5D9CEC" points="27,37 27,41 25,41 23,41 23,37 25,37 			"/>
		</g>
		<g>
			<polygon fill="#ED5565" points="19,27 19,41 17,41 15,41 15,27 17,27 			"/>
		</g>
		<g>
			<polygon fill="#ED5565" points="11,16 11,27 9,27 7,27 7,16 9,16 			"/>
		</g>
	</g>
	<g>
		<g>
			<g>
				<path d="M33,22c-6.065,0-11-4.935-11-11S26.935,0,33,0s11,4.935,11,11S39.065,22,33,22z M33,2c-4.963,0-9,4.037-9,9s4.037,9,9,9
					s9-4.037,9-9S37.963,2,33,2z"/>
			</g>
			<g>
				<path d="M33,26c-6.065,0-11-4.935-11-11c0-0.553,0.447-1,1-1s1,0.447,1,1c0,4.963,4.037,9,9,9s9-4.037,9-9c0-0.553,0.447-1,1-1
					s1,0.447,1,1C44,21.065,39.065,26,33,26z"/>
			</g>
			<g>
				<path d="M43,16c-0.553,0-1-0.447-1-1v-4c0-0.553,0.447-1,1-1s1,0.447,1,1v4C44,15.553,43.553,16,43,16z"/>
			</g>
			<g>
				<g>
					<path d="M31,16c-0.553,0-1-0.447-1-1V6c0-0.553,0.447-1,1-1s1,0.447,1,1v9C32,15.553,31.553,16,31,16z"/>
				</g>
				<g>
					<path d="M34,11c-0.553,0-1-0.447-1-1s0.447-1,1-1c0.552,0,1-0.448,1-1s-0.448-1-1-1c-0.553,0-1-0.447-1-1s0.447-1,1-1
						c1.654,0,3,1.346,3,3S35.654,11,34,11z"/>
				</g>
				<g>
					<path d="M34.499,16c-0.553,0-1-0.447-1-1s0.447-1,1-1C35.326,14,36,13.327,36,12.5c0-0.828-0.674-1.502-1.501-1.502
						c-0.553,0-1-0.447-1-1s0.447-1,1-1C36.43,8.998,38,10.569,38,12.5C38,14.43,36.43,16,34.499,16z"/>
				</g>
				<g>
					<path d="M34,7h-4c-0.553,0-1-0.447-1-1s0.447-1,1-1h4c0.553,0,1,0.447,1,1S34.553,7,34,7z"/>
				</g>
				<g>
					<path d="M34.499,16H30c-0.553,0-1-0.447-1-1s0.447-1,1-1h4.499c0.553,0,1,0.447,1,1S35.052,16,34.499,16z"/>
				</g>
				<g>
					<path d="M31,11c-0.552,0-1-0.447-1-0.999C30,9.448,30.447,9,30.999,9l3.499-0.002c0.001,0,0.001,0,0.001,0
						c0.552,0,1,0.447,1,0.999c0,0.553-0.447,1.001-0.999,1.001L31,11C31,11,31,11,31,11z"/>
				</g>
				<g>
					<path d="M33,7c-0.553,0-1-0.447-1-1V5c0-0.553,0.447-1,1-1s1,0.447,1,1v1C34,6.553,33.553,7,33,7z"/>
				</g>
				<g>
					<path d="M33,17c-0.553,0-1-0.447-1-1v-1c0-0.553,0.447-1,1-1s1,0.447,1,1v1C34,16.553,33.553,17,33,17z"/>
				</g>
			</g>
			<g>
				<path d="M33,26c-0.553,0-1-0.447-1-1v-4c0-0.553,0.447-1,1-1s1,0.447,1,1v4C34,25.553,33.553,26,33,26z"/>
			</g>
			<g>
				<path d="M38,24.66c-0.553,0-1-0.447-1-1v-3.998c0-0.553,0.447-1,1-1s1,0.447,1,1v3.998C39,24.213,38.553,24.66,38,24.66z"/>
			</g>
			<g>
				<path d="M28,24.66c-0.553,0-1-0.447-1-1v-3.998c0-0.553,0.447-1,1-1s1,0.447,1,1v3.998C29,24.213,28.553,24.66,28,24.66z"/>
			</g>
			<g>
				<path d="M23,16c-0.553,0-1-0.447-1-1v-4c0-0.553,0.447-1,1-1s1,0.447,1,1v4C24,15.553,23.553,16,23,16z"/>
			</g>
		</g>
		<g>
			<path d="M1,64c-0.553,0-1-0.447-1-1V1.006c0-0.553,0.447-1,1-1s1,0.447,1,1V63C2,63.553,1.553,64,1,64z"/>
		</g>
		<g>
			<path d="M63,64H1c-0.553,0-1-0.447-1-1s0.447-1,1-1h62c0.553,0,1,0.447,1,1S63.553,64,63,64z"/>
		</g>
		<g>
			<g>
				<path d="M11,28H7c-0.553,0-1-0.447-1-1V16c0-0.553,0.447-1,1-1h4c0.553,0,1,0.447,1,1v11C12,27.553,11.553,28,11,28z M8,26h2v-9
					H8V26z"/>
			</g>
			<g>
				<path d="M9,17c-0.553,0-1-0.447-1-1v-3c0-0.553,0.447-1,1-1s1,0.447,1,1v3C10,16.553,9.553,17,9,17z"/>
			</g>
			<g>
				<path d="M9,31c-0.553,0-1-0.447-1-1v-3c0-0.553,0.447-1,1-1s1,0.447,1,1v3C10,30.553,9.553,31,9,31z"/>
			</g>
		</g>
		<g>
			<g>
				<path d="M35,52h-4c-0.553,0-1-0.447-1-1V37c0-0.553,0.447-1,1-1h4c0.553,0,1,0.447,1,1v14C36,51.553,35.553,52,35,52z M32,50h2
					V38h-2V50z"/>
			</g>
			<g>
				<path d="M33,38c-0.553,0-1-0.447-1-1v-2c0-0.553,0.447-1,1-1s1,0.447,1,1v2C34,37.553,33.553,38,33,38z"/>
			</g>
			<g>
				<path d="M33,58c-0.553,0-1-0.447-1-1v-6c0-0.553,0.447-1,1-1s1,0.447,1,1v6C34,57.553,33.553,58,33,58z"/>
			</g>
		</g>
		<g>
			<g>
				<path d="M58,52h-4c-0.553,0-1-0.447-1-1V28c0-0.553,0.447-1,1-1h4c0.553,0,1,0.447,1,1v23C59,51.553,58.553,52,58,52z M55,50h2
					V29h-2V50z"/>
			</g>
			<g>
				<path d="M56,29c-0.553,0-1-0.447-1-1v-2c0-0.553,0.447-1,1-1s1,0.447,1,1v2C57,28.553,56.553,29,56,29z"/>
			</g>
			<g>
				<path d="M56,54c-0.553,0-1-0.447-1-1v-2c0-0.553,0.447-1,1-1s1,0.447,1,1v2C57,53.553,56.553,54,56,54z"/>
			</g>
		</g>
		<g>
			<path d="M27,42h-4c-0.553,0-1-0.447-1-1v-4c0-0.553,0.447-1,1-1h4c0.553,0,1,0.447,1,1v4C28,41.553,27.553,42,27,42z M24,40h2v-2
				h-2V40z"/>
		</g>
		<g>
			<path d="M25,38c-0.553,0-1-0.447-1-1v-2c0-0.553,0.447-1,1-1s1,0.447,1,1v2C26,37.553,25.553,38,25,38z"/>
		</g>
		<g>
			<path d="M25,48c-0.553,0-1-0.447-1-1v-6c0-0.553,0.447-1,1-1s1,0.447,1,1v6C26,47.553,25.553,48,25,48z"/>
		</g>
		<g>
			<path d="M50,44h-4c-0.553,0-1-0.447-1-1V28c0-0.553,0.447-1,1-1h4c0.553,0,1,0.447,1,1v15C51,43.553,50.553,44,50,44z M47,42h2
				V29h-2V42z"/>
		</g>
		<g>
			<path d="M48,29c-0.553,0-1-0.447-1-1v-2c0-0.553,0.447-1,1-1s1,0.447,1,1v2C49,28.553,48.553,29,48,29z"/>
		</g>
		<g>
			<path d="M48,46c-0.553,0-1-0.447-1-1v-2c0-0.553,0.447-1,1-1s1,0.447,1,1v2C49,45.553,48.553,46,48,46z"/>
		</g>
		<g>
			<path d="M43,52h-4c-0.553,0-1-0.447-1-1v-8c0-0.553,0.447-1,1-1h4c0.553,0,1,0.447,1,1v8C44,51.553,43.553,52,43,52z M40,50h2v-6
				h-2V50z"/>
		</g>
		<g>
			<path d="M41,44c-0.553,0-1-0.447-1-1v-2c0-0.553,0.447-1,1-1s1,0.447,1,1v2C42,43.553,41.553,44,41,44z"/>
		</g>
		<g>
			<path d="M41,54c-0.553,0-1-0.447-1-1v-2c0-0.553,0.447-1,1-1s1,0.447,1,1v2C42,53.553,41.553,54,41,54z"/>
		</g>
		<g>
			<path d="M19,42h-4c-0.553,0-1-0.447-1-1V27c0-0.553,0.447-1,1-1h4c0.553,0,1,0.447,1,1v14C20,41.553,19.553,42,19,42z M16,40h2
				V28h-2V40z"/>
		</g>
		<g>
			<path d="M17,45c-0.553,0-1-0.447-1-1v-3c0-0.553,0.447-1,1-1s1,0.447,1,1v3C18,44.553,17.553,45,17,45z"/>
		</g>
		<g>
			<path d="M17,27.998c-0.553,0-1-0.447-1-1V21c0-0.553,0.447-1,1-1s1,0.447,1,1v5.998C18,27.551,17.553,27.998,17,27.998z"/>
		</g>
	</g>
</g>
<g id="_x31_1_computer_x2C__monitor_x2C__bitcoin_x2C__coin_x2C__block_x2C__chain_x2C__cryptocurrency">
</g>
<g id="_x31_0_mining_x2C__pickaxe_x2C__stone_x2C__mine_x2C___bitcoin_x2C__coin_x2C__cryptocurrency">
</g>
<g id="_x39__miner_x2C__mining_x2C__computer_x2C__pickaxe_x2C__program_x2C__cryptocurrency">
</g>
<g id="_x38__video_card_x2C__mining_x2C__bitcoin_x2C__coin_x2C__block_x2C__chain_x2C__cryptocurrency">
</g>
<g id="_x37__exchanger_x2C__site_x2C__bitcoin_x2C__coin_x2C__block_x2C__chain_x2C__cryptocurrency">
</g>
<g id="_x36__shop_x2C__product_x2C__bitcoin_x2C__coin_x2C__block_x2C__chain_x2C__cryptocurrency">
</g>
<g id="_x35__bitcoin_x2C__coin_x2C__exchange_x2C__block_x2C__chain_x2C__cryptocurrency_x2C__product">
</g>
<g id="_x34__bitcoin_x2C__coin_x2C__exchange_x2C__block_x2C__chain_x2C__cryptocurrency">
</g>
<g id="_x33__bitcoin_x2C__coin_x2C__exchange_x2C__block_x2C__chain_x2C__cryptocurrency">
</g>
<g id="_x32__brain_x2C__smart_x2C__coin_x2C__block_x2C__chain_x2C__cryptocurrency">
</g>
<g id="_x31__bitcoin_x2C__coin_x2C__block_x2C__chain_x2C__cryptocurrency">
</g>
</svg>
