<svg xmlns="http://www.w3.org/2000/svg" x="0" y="0" xml:space="preserve" viewBox="0 0 64 64"><path fill="#656D78" d="M51 59.98V63H13v-3.02c0-1.11.89-2 2-2h34c1.11 0 2 .89 2 2z"/><path fill="#434A54" d="M49 57.98h-4c1.11 0 2 .89 2 2V63h4v-3.02c0-1.11-.89-2-2-2z"/><path fill="#CCD1D9" d="M30 14H34V57.98H30z"/><path fill="#CCD1D9" d="M34 3v8h-4V3c0-1.1.9-2 2-2s2 .9 2 2z"/><path fill="#E6E9ED" d="M34 11h21.5c.83 0 1.5.681 1.5 1.5 0 .83-.67 1.5-1.5 1.5h-47c-.83 0-1.5-.67-1.5-1.5 0-.819.67-1.5 1.5-1.5H34z"/><path fill="#EDAB37" d="M63 37c0 4.421-3.58 8-8 8s-8-3.579-8-8v-3c0 4.421 3.58 8 8 8s8-3.579 8-8v3z"/><path fill="#FFCE54" d="M55 26c4.42 0 8 3.591 8 8 0 4.421-3.58 8-8 8s-8-3.579-8-8c0-4.409 3.58-8 8-8z"/><path fill="#F6BB42" d="M55 26c-.692 0-1.359.098-2 .263 3.449.891 6 4.019 6 7.737 0 3.729-2.551 6.85-6 7.738A7.998 7.998 0 0 0 55 42c4.42 0 8-3.579 8-8 0-4.409-3.58-8-8-8z"/><path fill="#EDAB37" d="M9.5 30c.83 0 1.5.671 1.5 1.5 0 .83-.67 1.5-1.5 1.5H7v-3h2.5zM17 37c0 4.421-3.58 8-8 8s-8-3.579-8-8v-3c0 4.421 3.58 8 8 8s8-3.579 8-8v3z"/><path fill="#EDAB37" d="M10 33a2 2 0 1 1 0 4H7v-4h3z"/><path fill="#FFCE54" d="M10 37a2 2 0 1 0 0-4h-.5c.83 0 1.5-.67 1.5-1.5 0-.829-.67-1.5-1.5-1.5H7v7h3zM9 26c4.42 0 8 3.591 8 8 0 4.421-3.58 8-8 8s-8-3.579-8-8c0-4.409 3.58-8 8-8z"/><path fill="#F6BB42" d="M9 26c-.692 0-1.36.098-2 .263 3.449.891 6 4.019 6 7.737 0 3.729-2.551 6.85-6 7.738.64.165 1.308.262 2 .262 4.42 0 8-3.579 8-8 0-4.409-3.58-8-8-8z"/><g><path d="M13 60.977a1 1 0 0 1-1-1c0-1.654 1.346-3 3-3a1 1 0 1 1 0 2c-.551 0-1 .448-1 1a1 1 0 0 1-1 1zM51 60.977a1 1 0 0 1-1-1 1 1 0 0 0-1-1 1 1 0 1 1 0-2c1.654 0 3 1.346 3 3a1 1 0 0 1-1 1z"/><path d="M49 58.977H15a1 1 0 1 1 0-2h34a1 1 0 1 1 0 2zM51 64a1 1 0 0 1-1-1v-3.023a1 1 0 1 1 2 0V63a1 1 0 0 1-1 1z"/><path d="M51 64H13a1 1 0 1 1 0-2h38a1 1 0 1 1 0 2z"/><path d="M13 64a1 1 0 0 1-1-1v-3.023a1 1 0 1 1 2 0V63a1 1 0 0 1-1 1zM30 58.977a1 1 0 0 1-1-1V14a1 1 0 1 1 2 0v43.977a1 1 0 0 1-1 1zM34 58.977a1 1 0 0 1-1-1V14a1 1 0 1 1 2 0v43.977a1 1 0 0 1-1 1zM55 43c-4.963 0-9-4.037-9-9s4.037-9 9-9 9 4.037 9 9-4.037 9-9 9zm0-16c-3.859 0-7 3.141-7 7s3.141 7 7 7 7-3.141 7-7-3.141-7-7-7z"/><path d="M47 35a1 1 0 0 1-1-1v-8a1 1 0 1 1 2 0v8a1 1 0 0 1-1 1zM63 35a1 1 0 0 1-1-1v-8a1 1 0 1 1 2 0v8a1 1 0 0 1-1 1z"/><path d="M47 27a.999.999 0 0 1-.747-1.664l8-9a.995.995 0 0 1 1.411-.083c.413.366.45.999.083 1.411l-8 9A.994.994 0 0 1 47 27z"/><path d="M63 27a.994.994 0 0 1-.747-.336l-8-9a.999.999 0 1 1 1.494-1.328l8 9A.999.999 0 0 1 63 27zM55.5 12h-47a1 1 0 1 1 0-2h47a1 1 0 1 1 0 2z"/><path d="M8.5 15C7.122 15 6 13.879 6 12.5S7.122 10 8.5 10a1 1 0 1 1 0 2 .5.5 0 0 0 0 1 1 1 0 1 1 0 2zM55.5 15a1 1 0 1 1 0-2c.275 0 .5-.225.5-.5s-.225-.5-.5-.5a1 1 0 1 1 0-2c1.379 0 2.5 1.121 2.5 2.5S56.879 15 55.5 15zM34 4a1 1 0 0 1-1-1 1.001 1.001 0 0 0-2 0 1 1 0 1 1-2 0c0-1.654 1.346-3 3-3s3 1.346 3 3a1 1 0 0 1-1 1z"/><path d="M55.5 15h-47a1 1 0 1 1 0-2h47a1 1 0 1 1 0 2zM30 12a1 1 0 0 1-1-1V3a1 1 0 1 1 2 0v8a1 1 0 0 1-1 1zM34 12a1 1 0 0 1-1-1V3a1 1 0 1 1 2 0v8a1 1 0 0 1-1 1z"/><path d="M55 18a1 1 0 0 1-1-1v-3a1 1 0 1 1 2 0v3a1 1 0 0 1-1 1zM9.5 34a1 1 0 1 1 0-2 .5.5 0 0 0 0-1 1 1 0 1 1 0-2c1.378 0 2.5 1.121 2.5 2.5S10.878 34 9.5 34z"/><path d="M10 38a1 1 0 1 1 0-2 1.001 1.001 0 0 0 0-2 1 1 0 1 1 0-2c1.654 0 3 1.346 3 3s-1.346 3-3 3z"/><path d="M10 34H7a1 1 0 1 1 0-2h3a1 1 0 1 1 0 2zM10 38H6a1 1 0 1 1 0-2h4a1 1 0 1 1 0 2zM9.5 31H6a1 1 0 1 1 0-2h3.5a1 1 0 1 1 0 2z"/><path d="M7 38a1 1 0 0 1-1-1v-7a1 1 0 1 1 2 0v7a1 1 0 0 1-1 1z"/><path d="M8 31a1 1 0 0 1-1-1v-1a1 1 0 1 1 2 0v1a1 1 0 0 1-1 1zM8 39a1 1 0 0 1-1-1v-1a1 1 0 1 1 2 0v1a1 1 0 0 1-1 1z"/><g><path d="M9 43c-4.962 0-9-4.037-9-9s4.038-9 9-9 9 4.037 9 9-4.038 9-9 9zm0-16c-3.86 0-7 3.141-7 7s3.14 7 7 7 7-3.141 7-7-3.14-7-7-7z"/></g><g><path d="M1 35a1 1 0 0 1-1-1v-8a1 1 0 1 1 2 0v8a1 1 0 0 1-1 1z"/></g><g><path d="M17 35a1 1 0 0 1-1-1v-8a1 1 0 1 1 2 0v8a1 1 0 0 1-1 1z"/></g><g><path d="M1 27a.999.999 0 0 1-.747-1.664l8-9a1 1 0 1 1 1.495 1.328l-8 9A.998.998 0 0 1 1 27z"/></g><g><path d="M17 27a.996.996 0 0 1-.748-.336l-8-9a.999.999 0 1 1 1.495-1.328l8 9A.999.999 0 0 1 17 27z"/></g><g><path d="M9 18a1 1 0 0 1-1-1v-3a1 1 0 1 1 2 0v3a1 1 0 0 1-1 1z"/></g><g><path d="M9 46c-4.962 0-9-4.037-9-9a1 1 0 1 1 2 0c0 3.859 3.14 7 7 7s7-3.141 7-7a1 1 0 1 1 2 0c0 4.963-4.038 9-9 9z"/><path d="M17 38a1 1 0 0 1-1-1v-3a1 1 0 1 1 2 0v3a1 1 0 0 1-1 1zM1 38a1 1 0 0 1-1-1v-3a1 1 0 1 1 2 0v3a1 1 0 0 1-1 1z"/></g><g><path d="M55 46c-4.963 0-9-4.037-9-9a1 1 0 1 1 2 0c0 3.859 3.141 7 7 7s7-3.141 7-7a1 1 0 1 1 2 0c0 4.963-4.037 9-9 9z"/><path d="M63 38a1 1 0 0 1-1-1v-3a1 1 0 1 1 2 0v3a1 1 0 0 1-1 1zM47 38a1 1 0 0 1-1-1v-3a1 1 0 1 1 2 0v3a1 1 0 0 1-1 1z"/></g><g><path d="M55 38a1 1 0 0 1-1-1v-6.977a1 1 0 1 1 2 0V37a1 1 0 0 1-1 1z"/></g><g><path d="M57 38h-4a1 1 0 1 1 0-2h4a1 1 0 1 1 0 2z"/></g><g><path d="M53 33a.999.999 0 0 1-.703-1.711l2-1.977a.999.999 0 1 1 1.406 1.422l-2 1.977A.996.996 0 0 1 53 33z"/></g></g></svg>