<svg xmlns="http://www.w3.org/2000/svg" x="0" y="0" xml:space="preserve" viewBox="0 0 64 64"><path fill="#AAB2BD" d="M31.98 52.99a2 2 0 1 1 .001 3.999 2 2 0 0 1-.001-3.999z"/><path fill="#656D78" d="M31.98 50.99H15v4.02c0 .33.04.65.12.95A4.01 4.01 0 0 0 19 59.01h26c1.87 0 3.45-1.3 3.881-3.05.08-.3.119-.62.119-.95v-4.02H31.98zm0 6a2 2 0 1 1-.001-4.001 2 2 0 0 1 .001 4.001z"/><path fill="#434A54" d="M45 50.99v4.02c0 .33-.039.65-.119.95A4.01 4.01 0 0 1 41 59.01h4c1.87 0 3.45-1.3 3.881-3.05.08-.3.119-.62.119-.95v-4.02h-4z"/><path fill="#EDAB37" d="M39.98 29.99c0 4.42-3.58 8-8 8s-8-3.58-8-8v-3c0 4.42 3.58 8 8 8s8-3.58 8-8v3z"/><path fill="#EDAB37" d="M33.48 26.49a2 2 0 1 1 0 4h-3v-4h3zM32.98 23.49c.83 0 1.5.67 1.5 1.5 0 .829-.67 1.5-1.5 1.5h-2.5v-3h2.5z"/><path fill="#FFCE54" d="M33.48 30.49a2 2 0 1 0 0-4h-.5c.83 0 1.5-.671 1.5-1.5 0-.83-.67-1.5-1.5-1.5h-2.5v7h3zm-1.5-11.5c4.42 0 8 3.579 8 8 0 4.42-3.58 8-8 8s-8-3.58-8-8c0-4.421 3.581-8 8-8z"/><path fill="#F6BB42" d="M31.98 18.99c-.692 0-1.359.097-2 .262 3.449.889 6 4.01 6 7.738 0 3.728-2.551 6.85-6 7.738a7.998 7.998 0 0 0 2 .262c4.42 0 8-3.58 8-8 0-4.421-3.58-8-8-8z"/><path fill="#5D9CEC" d="M39.98 26.99c0-4.421-3.58-8-8-8s-8 3.579-8 8v3c0 4.42 3.58 8 8 8s8-3.58 8-8v-3zM49 5.01v45.98H15V5.01c0-2.2 1.801-4 4-4h26c2.2 0 4 1.8 4 4z"/><path fill="#4A89DC" d="M45 1.01h-4c2.2 0 4 1.8 4 4v45.98h4V5.01c0-2.2-1.8-4-4-4z"/><path fill="#353B44" d="M48.98 55.009v3.98c0 2.2-1.8 4-4 4h-26c-2.2 0-4-1.8-4-4v-3.98c0 2.2 1.8 4 4 4h26c2.201 0 4-1.8 4-4z"/><g><path d="M32.982 27.488a1 1 0 1 1 0-2c.275 0 .5-.225.5-.5s-.225-.5-.5-.5a1 1 0 1 1 0-2c1.379 0 2.5 1.121 2.5 2.5s-1.121 2.5-2.5 2.5z"/><path d="M33.482 31.488a1 1 0 1 1 0-2 1 1 0 0 0 0-2 1 1 0 1 1 0-2c1.654 0 3 1.346 3 3s-1.345 3-3 3z"/><path d="M33.482 27.488h-3a1 1 0 1 1 0-2h3a1 1 0 1 1 0 2zM33.482 31.488h-4a1 1 0 1 1 0-2h4a1 1 0 1 1 0 2zM32.982 24.488h-3.5a1 1 0 1 1 0-2h3.5a1 1 0 1 1 0 2z"/><path d="M30.482 31.488a1 1 0 0 1-1-1v-7a1 1 0 1 1 2 0v7a1 1 0 0 1-1 1z"/><path d="M31.482 24.488a1 1 0 0 1-1-1v-1a1 1 0 1 1 2 0v1a1 1 0 0 1-1 1zM31.482 32.488a1 1 0 0 1-1-1v-1a1 1 0 1 1 2 0v1a1 1 0 0 1-1 1z"/><path d="M31.982 35.988c-4.963 0-9-4.037-9-9s4.037-9 9-9 9 4.037 9 9-4.037 9-9 9zm0-16c-3.859 0-7 3.141-7 7s3.141 7 7 7 7-3.141 7-7-3.14-7-7-7z"/><g><path d="M31.982 38.988c-4.963 0-9-4.038-9-9.001a1 1 0 1 1 2 0c0 3.86 3.141 7.001 7 7.001s7-3.141 7-7.001a1 1 0 1 1 2 0c0 4.963-4.037 9.001-9 9.001z"/></g><g><path d="M39.982 30.987a1 1 0 0 1-1-1v-2.999a1 1 0 1 1 2 0v2.999a1 1 0 0 1-1 1z"/></g><g><path d="M23.982 30.987a1 1 0 0 1-1-1v-2.999a1 1 0 1 1 2 0v2.999a1 1 0 0 1-1 1z"/></g><g><path d="M45 60.012H19c-2.757 0-5-2.243-5-5v-50c0-2.757 2.243-5 5-5h26c2.757 0 5 2.243 5 5v50c0 2.757-2.243 5-5 5zm-26-58c-1.654 0-3 1.346-3 3v50c0 1.654 1.346 3 3 3h26c1.654 0 3-1.346 3-3v-50c0-1.654-1.346-3-3-3H19z"/></g><g><path d="M45 63.988H19c-2.757 0-5-2.243-5-5V55.01a1 1 0 1 1 2 0v3.979c0 1.654 1.346 3 3 3h26c1.654 0 3-1.346 3-3V55.01a1 1 0 1 1 2 0v3.979a5.005 5.005 0 0 1-5 4.999z"/></g><g><path d="M49 51.988H15a1 1 0 1 1 0-2h34a1 1 0 1 1 0 2z"/></g><g><path d="M31.982 57.988c-1.654 0-3-1.346-3-3s1.346-3 3-3 3 1.346 3 3-1.345 3-3 3zm0-4a1 1 0 1 0 0 2 1 1 0 0 0 0-2z"/></g><g><path d="M42 42.988H22a1 1 0 1 1 0-2h20a1 1 0 1 1 0 2z"/></g><g><path d="M39.982 27.988a1 1 0 0 1-1-1V14.155a1 1 0 1 1 2 0v12.833a1 1 0 0 1-1 1z"/></g><g><path d="M23.982 27.988a1 1 0 0 1-1-1v-9a1 1 0 1 1 2 0v9a1 1 0 0 1-1 1z"/></g><g><path d="M31.982 19.988a1 1 0 0 1-1-1v-9a1 1 0 1 1 2 0v9a1 1 0 0 1-1 1z"/></g></g></svg>