<?xml version="1.0" encoding="utf-8"?>
<!-- Generator: Adobe Illustrator 16.0.0, SVG Export Plug-In . SVG Version: 6.00 Build 0)  -->
<!DOCTYPE svg PUBLIC "-//W3C//DTD SVG 1.1//EN" "http://www.w3.org/Graphics/SVG/1.1/DTD/svg11.dtd">
<svg version="1.1" xmlns="http://www.w3.org/2000/svg" xmlns:xlink="http://www.w3.org/1999/xlink" x="0px" y="0px" width="64px"
	 height="64px" viewBox="0 0 64 64" enable-background="new 0 0 64 64" xml:space="preserve">
<g id="_x35_0_code_x2C__programming_x2C__program_x2C__bitcoin_x2C__block_x2C__chain_x2C__cryptocurrency">
</g>
<g id="_x34_9_balloon_x2C__takeoff_x2C__bitcoin_x2C__coin_x2C__block_x2C__chain_x2C__cryptocurrency">
</g>
<g id="_x34_8_video_card_x2C__mining_x2C__farm_x2C__computer_x2C__block_x2C__chain_x2C__cryptocurrency">
</g>
<g id="_x34_7_money_box_x2C__saving_x2C__bitcoin_x2C__coin_x2C__block_x2C__chain_x2C__cryptocurrency">
</g>
<g id="_x34_6_portfolio_x2C__finance_x2C__bank_note_x2C__bitcoin_x2C__coin_x2C__cryptocurrency">
</g>
<g id="_x34_5_tap_x2C__water_x2C__bitcoin_x2C__coin_x2C__block_x2C__chain_x2C__cryptocurrency">
</g>
<g id="_x34_4_phone_x2C__bitcoin_x2C__coin_x2C__block_x2C__chain_x2C__cryptocurrency">
</g>
<g id="_x34_3_rocket_x2C__sun_x2C__bitcoin_x2C__coin_x2C__block_x2C__chain_x2C__cryptocurrency">
</g>
<g id="_x34_2_transfer_x2C__network_x2C__bitcoin_x2C__coin_x2C__block_x2C__chain_x2C__cryptocurrency">
</g>
<g id="_x34_1_scales_x2C__comparison_x2C__bitcoin_x2C__coin_x2C__block_x2C__chain_x2C__cryptocurrency">
</g>
<g id="_x34_0_calculator_x2C__calculating_x2C__bitcoin_x2C__coin_x2C__block_x2C__chain_x2C__cryptocurrency">
</g>
<g id="_x33_9_start-up_x2C__plant_x2C__hand_x2C__bitcoin_x2C__coin_x2C__cryptocurrency">
</g>
<g id="_x33_8_idea_x2C__bulb_x2C__bitcoin_x2C__coin_x2C__block_x2C__chain_x2C__cryptocurrency">
</g>
<g id="_x33_7_users_x2C__user_x2C__co-founder_x2C__bitcoin_x2C__coin_x2C__cryptocurrency">
</g>
<g id="_x33_6_safe_x2C__protection_x2C__bitcoin_x2C__coin_x2C__block_x2C__chain_x2C__cryptocurrency">
</g>
<g id="_x33_5_flash_drive_x2C__key_x2C__block_x2C__chain_x2C__cryptocurrency">
</g>
<g id="_x33_4_cloud_x2C__mining_x2C__bitcoin_x2C__coin_x2C__block_x2C__chain_x2C__cryptocurrency">
</g>
<g id="_x33_3_start_up_x2C__plant_x2C__bitcoin_x2C__coin_x2C__block_x2C__chain_x2C__cryptocurrency">
</g>
<g id="_x33_2_planet_x2C__bitcoin_x2C__coin_x2C__block_x2C__chain_x2C__cryptocurrency">
	<g>
		<g>
			<path fill="#EDAB37" d="M55.995,57.66c-1.471,0.851-3.17,1.34-5,1.34c-1.82,0-3.53-0.489-5-1.34c-2.99-1.729-5-4.96-5-8.66v4
				c0,1.12,0.18,2.19,0.529,3.19c0.771,2.32,2.381,4.26,4.471,5.47c1.47,0.851,3.18,1.34,5,1.34c1.83,0,3.529-0.489,5-1.34
				c2.99-1.729,5-4.96,5-8.66v-4C60.995,52.7,58.985,55.931,55.995,57.66z"/>
		</g>
		<g>
			<path fill="#EDAB37" d="M51.995,44c1.109,0,2,0.891,2,2c0,1.101-0.891,2-2,2h-3v-4h2H51.995z"/>
		</g>
		<g>
			<path fill="#EDAB37" d="M52.495,48c1.38,0,2.5,1.12,2.5,2.5c0,1.381-1.12,2.5-2.5,2.5h-1.5h-2v-5h3H52.495z"/>
		</g>
		<g>
			<path fill="#FFCE54" d="M52.495,53c1.38,0,2.5-1.119,2.5-2.5c0-1.38-1.12-2.5-2.5-2.5h-0.5c1.109,0,2-0.899,2-2
				c0-1.109-0.891-2-2-2h-1h-2v4v5h2H52.495z M60.995,49c0,3.7-2.01,6.931-5,8.66c-1.471,0.851-3.17,1.34-5,1.34
				c-1.82,0-3.53-0.489-5-1.34c-2.99-1.729-5-4.96-5-8.66c0-5.529,4.479-10,10-10c2.46,0,4.7,0.881,6.43,2.351
				C59.615,43.171,60.995,45.921,60.995,49z"/>
		</g>
		<g>
			<g>
				<path fill="#F6BB42" d="M57.425,41.351c-1.729-1.47-3.97-2.351-6.43-2.351c-0.69,0-1.364,0.07-2.015,0.203
					c1.674,0.336,3.194,1.085,4.444,2.147c2.19,1.82,3.57,4.57,3.57,7.649c0,3.7-2.01,6.931-5,8.66
					c-0.916,0.529-1.929,0.898-2.998,1.117C49.646,58.91,50.309,59,50.995,59c1.83,0,3.529-0.489,5-1.34c2.99-1.729,5-4.96,5-8.66
					C60.995,45.921,59.615,43.171,57.425,41.351z"/>
			</g>
		</g>
		<g>
			<path fill="#5D9CEC" d="M34.995,10c0,1.66,1.35,3,3,3h-12c-1.65,0-3,1.341-3,3c0,1.66,1.35,3,3,3h6.01c-1.66,0-3,1.341-3,3
				c0,1.66,1.34,3,3,3h7c-1.66,0-3,1.341-3,3c0,1.66,1.34,3,3,3h20.93h0.03c-0.19,3.671-1.08,7.16-2.53,10.341l-0.01,0.01
				c-1.729-1.47-3.97-2.351-6.43-2.351c-5.521,0-10,4.471-10,10v4c0,1.12,0.18,2.19,0.529,3.19C38.405,57.36,35.035,58,31.505,58
				c-7.68,0-14.66-3.039-19.78-8h13.271c1.66,0,3-1.34,3-3c0-1.659-1.34-3-3-3h-5c1.66,0,3-1.34,3-3c0-1.659-1.34-3-3-3h-6
				c1.66,0,3-1.34,3-3c0-1.659-1.34-3-3-3H3.125c-0.08-0.819-0.12-1.659-0.12-2.5c0-15.739,12.76-28.5,28.5-28.5
				c6.59,0,12.66,2.24,17.48,6h-10.99C36.345,7,34.995,8.341,34.995,10z"/>
		</g>
		<g>
			<path fill="#A0D468" d="M48.995,7c6.7,5.211,11.01,13.351,11.01,22.5c0,0.5-0.01,1-0.04,1.5h-0.03h-20.93c-1.66,0-3-1.34-3-3
				c0-1.659,1.34-3,3-3h-7c-1.66,0-3-1.34-3-3c0-1.659,1.34-3,3-3h-6.01c-1.65,0-3-1.34-3-3c0-1.659,1.35-3,3-3h12
				c-1.65,0-3-1.34-3-3c0-1.659,1.35-3,3-3h10.99H48.995z"/>
		</g>
		<g>
			<g>
				<path fill="#4A89DC" d="M48.995,7h-0.01c-4.82-3.76-10.891-6-17.48-6c-0.693,0-1.379,0.033-2.06,0.082
					C35.282,1.477,40.644,3.613,44.985,7h0.01c6.7,5.211,11.01,13.351,11.01,22.5c0,0.5-0.01,1-0.04,1.5
					c-0.155,2.986-0.779,5.849-1.785,8.526c1.201,0.403,2.301,1.022,3.245,1.824l0.01-0.01c1.45-3.181,2.34-6.67,2.53-10.341
					c0.03-0.5,0.04-1,0.04-1.5C60.005,20.351,55.695,12.211,48.995,7z"/>
			</g>
		</g>
		<g>
			<path fill="#8CC152" d="M48.995,7h-0.01h-3.99c6.7,5.211,11.01,13.351,11.01,22.5c0,0.5-0.01,1-0.04,1.5h3.97h0.03
				c0.03-0.5,0.04-1,0.04-1.5C60.005,20.351,55.695,12.211,48.995,7z"/>
		</g>
		<g>
			<path fill="#A0D468" d="M19.995,44h5c1.66,0,3,1.341,3,3c0,1.66-1.34,3-3,3H11.725c-4.81-4.619-8-10.939-8.6-18h10.87
				c1.66,0,3,1.341,3,3c0,1.66-1.34,3-3,3h6c1.66,0,3,1.341,3,3C22.995,42.66,21.655,44,19.995,44z"/>
		</g>
	</g>
	<g>
		<g>
			<g>
				<path d="M50.997,60c-6.065,0-11-4.935-11-11s4.935-11,11-11s11,4.935,11,11S57.063,60,50.997,60z M50.997,40
					c-4.963,0-9,4.037-9,9s4.037,9,9,9s9-4.037,9-9S55.96,40,50.997,40z"/>
			</g>
			<g>
				<path d="M50.997,64c-6.065,0-11-4.935-11-11c0-0.553,0.447-1,1-1s1,0.447,1,1c0,4.963,4.037,9,9,9s9-4.037,9-9
					c0-0.553,0.447-1,1-1s1,0.447,1,1C61.997,59.065,57.063,64,50.997,64z"/>
			</g>
			<g>
				<path d="M60.997,54c-0.553,0-1-0.447-1-1v-4c0-0.553,0.447-1,1-1s1,0.447,1,1v4C61.997,53.553,61.55,54,60.997,54z"/>
			</g>
			<g>
				<g>
					<path d="M48.997,54c-0.553,0-1-0.447-1-1v-9c0-0.553,0.447-1,1-1s1,0.447,1,1v9C49.997,53.553,49.55,54,48.997,54z"/>
				</g>
				<g>
					<path d="M51.997,49c-0.553,0-1-0.447-1-1s0.447-1,1-1c0.552,0,1-0.448,1-1s-0.448-1-1-1c-0.553,0-1-0.447-1-1s0.447-1,1-1
						c1.654,0,3,1.346,3,3S53.651,49,51.997,49z"/>
				</g>
				<g>
					<path d="M52.496,54c-0.553,0-1-0.447-1-1s0.447-1,1-1c0.828,0,1.501-0.673,1.501-1.5c0-0.828-0.673-1.502-1.501-1.502
						c-0.553,0-1-0.447-1-1s0.447-1,1-1c1.931,0,3.501,1.571,3.501,3.502C55.997,52.43,54.427,54,52.496,54z"/>
				</g>
				<g>
					<path d="M51.997,45h-4c-0.553,0-1-0.447-1-1s0.447-1,1-1h4c0.553,0,1,0.447,1,1S52.55,45,51.997,45z"/>
				</g>
				<g>
					<path d="M52.496,54h-4.499c-0.553,0-1-0.447-1-1s0.447-1,1-1h4.499c0.553,0,1,0.447,1,1S53.049,54,52.496,54z"/>
				</g>
				<g>
					<path d="M48.997,49c-0.552,0-1-0.447-1-0.999c0-0.553,0.447-1.001,0.999-1.001l3.499-0.002c0.001,0,0.001,0,0.001,0
						c0.552,0,1,0.447,1,0.999c0,0.553-0.447,1.001-0.999,1.001L48.997,49C48.997,49,48.997,49,48.997,49z"/>
				</g>
				<g>
					<path d="M50.997,45c-0.553,0-1-0.447-1-1v-1c0-0.553,0.447-1,1-1s1,0.447,1,1v1C51.997,44.553,51.55,45,50.997,45z"/>
				</g>
				<g>
					<path d="M50.997,55c-0.553,0-1-0.447-1-1v-1c0-0.553,0.447-1,1-1s1,0.447,1,1v1C51.997,54.553,51.55,55,50.997,55z"/>
				</g>
			</g>
			<g>
				<path d="M50.997,64c-0.553,0-1-0.447-1-1v-4c0-0.553,0.447-1,1-1s1,0.447,1,1v4C51.997,63.553,51.55,64,50.997,64z"/>
			</g>
			<g>
				<path d="M55.997,62.66c-0.553,0-1-0.447-1-1v-3.998c0-0.553,0.447-1,1-1s1,0.447,1,1v3.998
					C56.997,62.213,56.55,62.66,55.997,62.66z"/>
			</g>
			<g>
				<path d="M45.997,62.66c-0.553,0-1-0.447-1-1v-3.998c0-0.553,0.447-1,1-1s1,0.447,1,1v3.998
					C46.997,62.213,46.55,62.66,45.997,62.66z"/>
			</g>
			<g>
				<path d="M40.997,54c-0.553,0-1-0.447-1-1v-4c0-0.553,0.447-1,1-1s1,0.447,1,1v4C41.997,53.553,41.55,54,40.997,54z"/>
			</g>
		</g>
		<g>
			<path d="M31.503,59c-16.267,0-29.5-13.233-29.5-29.5S15.236,0,31.503,0s29.5,13.233,29.5,29.5c0,4.275-0.895,8.399-2.66,12.258
				c-0.229,0.502-0.82,0.724-1.325,0.493c-0.502-0.229-0.723-0.823-0.493-1.325c1.645-3.596,2.479-7.439,2.479-11.426
				c0-15.163-12.337-27.5-27.5-27.5s-27.5,12.337-27.5,27.5S16.34,57,31.503,57c3.328,0,6.581-0.588,9.669-1.747
				c0.517-0.19,1.093,0.067,1.288,0.585c0.193,0.518-0.068,1.094-0.585,1.288C38.562,58.369,35.071,59,31.503,59z"/>
		</g>
		<g>
			<path d="M37.997,14c-2.206,0-4-1.794-4-4s1.794-4,4-4c0.553,0,1,0.447,1,1s-0.447,1-1,1c-1.103,0-2,0.897-2,2s0.897,2,2,2
				c0.553,0,1,0.447,1,1S38.55,14,37.997,14z"/>
		</g>
		<g>
			<path d="M25.997,20c-2.206,0-4-1.794-4-4s1.794-4,4-4c0.553,0,1,0.447,1,1s-0.447,1-1,1c-1.103,0-2,0.897-2,2s0.897,2,2,2
				c0.553,0,1,0.447,1,1S26.55,20,25.997,20z"/>
		</g>
		<g>
			<path d="M32.003,26c-2.206,0-4-1.794-4-4s1.794-4,4-4c0.553,0,1,0.447,1,1s-0.447,1-1,1c-1.103,0-2,0.897-2,2s0.897,2,2,2
				c0.553,0,1,0.447,1,1S32.556,26,32.003,26z"/>
		</g>
		<g>
			<path d="M39.003,32c-2.206,0-4-1.794-4-4s1.794-4,4-4c0.553,0,1,0.447,1,1s-0.447,1-1,1c-1.103,0-2,0.897-2,2s0.897,2,2,2
				c0.553,0,1,0.447,1,1S39.556,32,39.003,32z"/>
		</g>
		<g>
			<path d="M48.997,8h-11c-0.553,0-1-0.447-1-1s0.447-1,1-1h11c0.553,0,1,0.447,1,1S49.55,8,48.997,8z"/>
		</g>
		<g>
			<path d="M42.997,14h-17c-0.553,0-1-0.447-1-1s0.447-1,1-1h17c0.553,0,1,0.447,1,1S43.55,14,42.997,14z"/>
		</g>
		<g>
			<path d="M36.003,20H25.997c-0.553,0-1-0.447-1-1s0.447-1,1-1h10.006c0.553,0,1,0.447,1,1S36.556,20,36.003,20z"/>
		</g>
		<g>
			<path d="M43.003,26h-11c-0.553,0-1-0.447-1-1s0.447-1,1-1h11c0.553,0,1,0.447,1,1S43.556,26,43.003,26z"/>
		</g>
		<g>
			<path d="M59.938,32H39.003c-0.553,0-1-0.447-1-1s0.447-1,1-1h20.935c0.553,0,1,0.447,1,1S60.49,32,59.938,32z"/>
		</g>
		<g>
			<g>
				<path d="M19.996,45c-0.553,0-1-0.447-1-1s0.447-1,1-1c1.103,0,2-0.897,2-2s-0.897-2-2-2c-0.553,0-1-0.447-1-1s0.447-1,1-1
					c2.206,0,4,1.794,4,4S22.202,45,19.996,45z"/>
			</g>
			<g>
				<path d="M24.997,51c-0.553,0-1-0.447-1-1s0.447-1,1-1c1.103,0,2-0.897,2-2s-0.897-2-2-2c-0.553,0-1-0.447-1-1s0.447-1,1-1
					c2.206,0,4,1.794,4,4S27.203,51,24.997,51z"/>
			</g>
			<g>
				<path d="M13.997,39c-0.553,0-1-0.447-1-1s0.447-1,1-1c1.103,0,2-0.897,2-2s-0.897-2-2-2c-0.553,0-1-0.447-1-1s0.447-1,1-1
					c2.206,0,4,1.794,4,4S16.203,39,13.997,39z"/>
			</g>
			<g>
				<path d="M13.997,33H3.111c-0.553,0-1-0.447-1-1s0.447-1,1-1h10.886c0.553,0,1,0.447,1,1S14.55,33,13.997,33z"/>
			</g>
			<g>
				<path d="M19.996,39h-7.999c-0.553,0-1-0.447-1-1s0.447-1,1-1h7.999c0.553,0,1,0.447,1,1S20.549,39,19.996,39z"/>
			</g>
			<g>
				<path d="M24.997,45H14.996c-0.553,0-1-0.447-1-1s0.447-1,1-1h10.001c0.553,0,1,0.447,1,1S25.55,45,24.997,45z"/>
			</g>
			<g>
				<path d="M24.997,51H11.705c-0.553,0-1-0.447-1-1s0.447-1,1-1h13.292c0.553,0,1,0.447,1,1S25.55,51,24.997,51z"/>
			</g>
		</g>
	</g>
</g>
<g id="_x33_1_payment_x2C__hand_x2C__bitcoin_x2C__coin_x2C__block_x2C__chain_x2C__cryptocurrency">
</g>
<g id="_x33_0_user_x2C__laptop_x2C__bitcoin_x2C__coin_x2C__block_x2C__chain_x2C__cryptocurrency">
</g>
<g id="_x32_9_thief_x2C__bag_x2C__bitcoin_x2C__coin_x2C__block_x2C__chain_x2C__cryptocurrency">
</g>
<g id="_x32_8_code_x2C__programming_x2C__program_x2C__bitcoin_x2C__coin_x2C__cryptocurrency">
</g>
<g id="_x32_7_bitcoin_x2C__coin_x2C__block_x2C__chain_x2C__cryptocurrency">
</g>
<g id="_x32_6_shield_x2C__protection_x2C__bitcoin_x2C__coin_x2C__block_x2C__chain_x2C__cryptocurrency">
</g>
<g id="_x32_5_bug_x2C__laptop_x2C__miner_x2C__program_x2C__block_x2C__chain_x2C__cryptocurrency">
</g>
<g id="_x32_4_computer_x2C__monitor_x2C__bitcoin_x2C__coin_x2C__block_x2C__chain_x2C__cryptocurrency">
</g>
<g id="_x32_3_network_x2C__idea_x2C__bitcoin_x2C__coin_x2C__block_x2C__chain_x2C__cryptocurrency">
</g>
<g id="_x32_2_block_x2C__chain_x2C__cryptocurrency_x2C__technology_x2C__future">
</g>
<g id="_x32_1_smart_contact_x2C__contact_x2C__block_x2C__chain_x2C__cryptocurrency">
</g>
<g id="_x32_0_lock_x2C__safe_x2C__protection_x2C__block_x2C__chain_x2C__cryptocurrency_x2C__program">
</g>
<g id="_x31_9_server_x2C__data_x2C__bitcoin_x2C__coin_x2C__block_x2C__chain_x2C__cryptocurrency">
</g>
<g id="_x31_8_key_x2C__bitcoin_x2C__coin_x2C__block_x2C__chain_x2C__cryptocurrency">
</g>
<g id="_x31_7_pool_x2C__network_x2C__bitcoin_x2C__coin_x2C__block_x2C__chain_x2C__cryptocurrency">
</g>
<g id="_x31_6_mining_x2C__shovel_x2C__mine_x2C__coin_x2C__block_x2C__chain_x2C__cryptocurrency">
</g>
<g id="_x31_5_purse_x2C__bitcoin_x2C__coin_x2C__block_x2C__chain_x2C__cryptocurrency">
</g>
<g id="_x31_4_safe_x2C__protection_x2C__block_x2C__chain_x2C__cryptocurrency_x2C__program">
</g>
<g id="_x31_3_mining_x2C__funnel_x2C__satoshi_x2C__bitcoin_x2C__coin_x2C__cryptocurrency">
</g>
<g id="_x31_2_chart_x2C__bitcoin_x2C__coin_x2C__block_x2C__chain_x2C__cryptocurrency">
</g>
<g id="_x31_1_computer_x2C__monitor_x2C__bitcoin_x2C__coin_x2C__block_x2C__chain_x2C__cryptocurrency">
</g>
<g id="_x31_0_mining_x2C__pickaxe_x2C__stone_x2C__mine_x2C___bitcoin_x2C__coin_x2C__cryptocurrency">
</g>
<g id="_x39__miner_x2C__mining_x2C__computer_x2C__pickaxe_x2C__program_x2C__cryptocurrency">
</g>
<g id="_x38__video_card_x2C__mining_x2C__bitcoin_x2C__coin_x2C__block_x2C__chain_x2C__cryptocurrency">
</g>
<g id="_x37__exchanger_x2C__site_x2C__bitcoin_x2C__coin_x2C__block_x2C__chain_x2C__cryptocurrency">
</g>
<g id="_x36__shop_x2C__product_x2C__bitcoin_x2C__coin_x2C__block_x2C__chain_x2C__cryptocurrency">
</g>
<g id="_x35__bitcoin_x2C__coin_x2C__exchange_x2C__block_x2C__chain_x2C__cryptocurrency_x2C__product">
</g>
<g id="_x34__bitcoin_x2C__coin_x2C__exchange_x2C__block_x2C__chain_x2C__cryptocurrency">
</g>
<g id="_x33__bitcoin_x2C__coin_x2C__exchange_x2C__block_x2C__chain_x2C__cryptocurrency">
</g>
<g id="_x32__brain_x2C__smart_x2C__coin_x2C__block_x2C__chain_x2C__cryptocurrency">
</g>
<g id="_x31__bitcoin_x2C__coin_x2C__block_x2C__chain_x2C__cryptocurrency">
</g>
</svg>
