<?xml version="1.0" encoding="utf-8"?>
<!-- Generator: Adobe Illustrator 16.0.0, SVG Export Plug-In . SVG Version: 6.00 Build 0)  -->
<!DOCTYPE svg PUBLIC "-//W3C//DTD SVG 1.1//EN" "http://www.w3.org/Graphics/SVG/1.1/DTD/svg11.dtd">
<svg version="1.1" xmlns="http://www.w3.org/2000/svg" xmlns:xlink="http://www.w3.org/1999/xlink" x="0px" y="0px" width="64px"
	 height="64px" viewBox="0 0 64 64" enable-background="new 0 0 64 64" xml:space="preserve">
<g id="_x35_0_code_x2C__programming_x2C__program_x2C__bitcoin_x2C__block_x2C__chain_x2C__cryptocurrency">
</g>
<g id="_x34_9_balloon_x2C__takeoff_x2C__bitcoin_x2C__coin_x2C__block_x2C__chain_x2C__cryptocurrency">
</g>
<g id="_x34_8_video_card_x2C__mining_x2C__farm_x2C__computer_x2C__block_x2C__chain_x2C__cryptocurrency">
</g>
<g id="_x34_7_money_box_x2C__saving_x2C__bitcoin_x2C__coin_x2C__block_x2C__chain_x2C__cryptocurrency">
</g>
<g id="_x34_6_portfolio_x2C__finance_x2C__bank_note_x2C__bitcoin_x2C__coin_x2C__cryptocurrency">
</g>
<g id="_x34_5_tap_x2C__water_x2C__bitcoin_x2C__coin_x2C__block_x2C__chain_x2C__cryptocurrency">
</g>
<g id="_x34_4_phone_x2C__bitcoin_x2C__coin_x2C__block_x2C__chain_x2C__cryptocurrency">
</g>
<g id="_x34_3_rocket_x2C__sun_x2C__bitcoin_x2C__coin_x2C__block_x2C__chain_x2C__cryptocurrency">
</g>
<g id="_x34_2_transfer_x2C__network_x2C__bitcoin_x2C__coin_x2C__block_x2C__chain_x2C__cryptocurrency">
</g>
<g id="_x34_1_scales_x2C__comparison_x2C__bitcoin_x2C__coin_x2C__block_x2C__chain_x2C__cryptocurrency">
</g>
<g id="_x34_0_calculator_x2C__calculating_x2C__bitcoin_x2C__coin_x2C__block_x2C__chain_x2C__cryptocurrency">
</g>
<g id="_x33_9_start-up_x2C__plant_x2C__hand_x2C__bitcoin_x2C__coin_x2C__cryptocurrency">
</g>
<g id="_x33_8_idea_x2C__bulb_x2C__bitcoin_x2C__coin_x2C__block_x2C__chain_x2C__cryptocurrency">
</g>
<g id="_x33_7_users_x2C__user_x2C__co-founder_x2C__bitcoin_x2C__coin_x2C__cryptocurrency">
</g>
<g id="_x33_6_safe_x2C__protection_x2C__bitcoin_x2C__coin_x2C__block_x2C__chain_x2C__cryptocurrency">
</g>
<g id="_x33_5_flash_drive_x2C__key_x2C__block_x2C__chain_x2C__cryptocurrency">
</g>
<g id="_x33_4_cloud_x2C__mining_x2C__bitcoin_x2C__coin_x2C__block_x2C__chain_x2C__cryptocurrency">
</g>
<g id="_x33_3_start_up_x2C__plant_x2C__bitcoin_x2C__coin_x2C__block_x2C__chain_x2C__cryptocurrency">
</g>
<g id="_x33_2_planet_x2C__bitcoin_x2C__coin_x2C__block_x2C__chain_x2C__cryptocurrency">
</g>
<g id="_x33_1_payment_x2C__hand_x2C__bitcoin_x2C__coin_x2C__block_x2C__chain_x2C__cryptocurrency">
</g>
<g id="_x33_0_user_x2C__laptop_x2C__bitcoin_x2C__coin_x2C__block_x2C__chain_x2C__cryptocurrency">
</g>
<g id="_x32_9_thief_x2C__bag_x2C__bitcoin_x2C__coin_x2C__block_x2C__chain_x2C__cryptocurrency">
</g>
<g id="_x32_8_code_x2C__programming_x2C__program_x2C__bitcoin_x2C__coin_x2C__cryptocurrency">
</g>
<g id="_x32_7_bitcoin_x2C__coin_x2C__block_x2C__chain_x2C__cryptocurrency">
</g>
<g id="_x32_6_shield_x2C__protection_x2C__bitcoin_x2C__coin_x2C__block_x2C__chain_x2C__cryptocurrency">
</g>
<g id="_x32_5_bug_x2C__laptop_x2C__miner_x2C__program_x2C__block_x2C__chain_x2C__cryptocurrency">
</g>
<g id="_x32_4_computer_x2C__monitor_x2C__bitcoin_x2C__coin_x2C__block_x2C__chain_x2C__cryptocurrency">
</g>
<g id="_x32_3_network_x2C__idea_x2C__bitcoin_x2C__coin_x2C__block_x2C__chain_x2C__cryptocurrency">
</g>
<g id="_x32_2_block_x2C__chain_x2C__cryptocurrency_x2C__technology_x2C__future">
</g>
<g id="_x32_1_smart_contact_x2C__contact_x2C__block_x2C__chain_x2C__cryptocurrency">
</g>
<g id="_x32_0_lock_x2C__safe_x2C__protection_x2C__block_x2C__chain_x2C__cryptocurrency_x2C__program">
</g>
<g id="_x31_9_server_x2C__data_x2C__bitcoin_x2C__coin_x2C__block_x2C__chain_x2C__cryptocurrency">
</g>
<g id="_x31_8_key_x2C__bitcoin_x2C__coin_x2C__block_x2C__chain_x2C__cryptocurrency">
</g>
<g id="_x31_7_pool_x2C__network_x2C__bitcoin_x2C__coin_x2C__block_x2C__chain_x2C__cryptocurrency">
</g>
<g id="_x31_6_mining_x2C__shovel_x2C__mine_x2C__coin_x2C__block_x2C__chain_x2C__cryptocurrency">
</g>
<g id="_x31_5_purse_x2C__bitcoin_x2C__coin_x2C__block_x2C__chain_x2C__cryptocurrency">
</g>
<g id="_x31_4_safe_x2C__protection_x2C__block_x2C__chain_x2C__cryptocurrency_x2C__program">
	<g>
		<g>
			<polygon fill="#353B44" points="63.01,25 63.01,43 62.99,43 59.01,43 59.01,25 62.99,25 			"/>
		</g>
		<g>
			<polygon fill="#434A54" points="63.01,47 63.01,58 1.01,58 1.01,10 62.99,10 63.01,10 63.01,21 62.99,21 59.01,21 59.01,14 
				5.01,14 5.01,54 59.01,54 59.01,47 62.99,47 			"/>
		</g>
		<g>
			<path fill="#CCD1D9" d="M29.76,32h-0.01H14.26c0.891-3.45,4.02-6,7.75-6C25.73,26,28.869,28.55,29.76,32z"/>
		</g>
		<g>
			<path fill="#E6E9ED" d="M29.76,32c0.16,0.64,0.25,1.31,0.25,2c0,0.689-0.09,1.359-0.25,2h-0.01H14.26
				c-0.16-0.641-0.25-1.311-0.25-2c0-0.69,0.09-1.36,0.25-2h15.49H29.76z"/>
		</g>
		<g>
			<path fill="#CCD1D9" d="M29.75,36h0.01c-0.9,3.45-4.029,6-7.75,6c-3.73,0-6.85-2.55-7.75-6H29.75z"/>
		</g>
		<g>
			<path fill="#AAB2BD" d="M28.66,24.01c3.221,2.15,5.35,5.82,5.35,9.99s-2.141,7.85-5.369,10c-1.9,1.27-4.18,2-6.631,2
				c-6.629,0-12-5.38-12-12c0-6.63,5.371-12,12-12C24.471,22,26.75,22.74,28.66,24.01z M30.01,34c0-0.69-0.09-1.36-0.25-2
				c-0.891-3.45-4.029-6-7.75-6c-3.73,0-6.859,2.55-7.75,6c-0.16,0.64-0.25,1.31-0.25,2c0,0.689,0.09,1.359,0.25,2
				c0.9,3.45,4.02,6,7.75,6c3.721,0,6.85-2.55,7.75-6C29.92,35.359,30.01,34.689,30.01,34z"/>
		</g>
		<g>
			<path fill="#FFCE54" d="M54.01,24.01V44H28.641c3.229-2.15,5.369-5.83,5.369-10s-2.129-7.84-5.35-9.99H54.01z"/>
		</g>
		<g>
			<polygon fill="#434A54" points="63.01,43 63.01,47 62.99,47 59.01,47 59.01,43 62.99,43 			"/>
		</g>
		<g>
			<polygon fill="#434A54" points="63.01,21 63.01,25 62.99,25 59.01,25 59.01,21 62.99,21 			"/>
		</g>
		<g>
			<path fill="#CCD1D9" d="M62.99,8v2H1.01H0.99V8c0-1.101,0.891-2,2-2h58C62.09,6,62.99,6.899,62.99,8z"/>
		</g>
		<g>
			<path fill="#AAB2BD" d="M60.99,6h-4c1.1,0,2,0.899,2,2v2h4V8C62.99,6.899,62.09,6,60.99,6z"/>
		</g>
		<g>
			<path fill="#656D78" d="M59.01,47v7h-54V14h54v7v4v18V47z M54.01,44V24.01H28.66C26.75,22.74,24.471,22,22.01,22
				c-6.629,0-12,5.37-12,12c0,6.62,5.371,12,12,12c2.451,0,4.73-0.73,6.631-2H54.01z"/>
		</g>
		<g>
			<rect x="58.99" y="10" fill="#353B44" width="4" height="11"/>
		</g>
		<g>
			<rect x="58.99" y="47" fill="#353B44" width="4" height="11"/>
		</g>
	</g>
	<g>
		<g>
			<path d="M40.039,30.994c-0.553,0-1.005-0.447-1.005-1s0.442-1,0.994-1h0.011c0.552,0,1,0.447,1,1S40.591,30.994,40.039,30.994z"
				/>
		</g>
		<g>
			<path d="M44.039,30.994c-0.553,0-1.005-0.447-1.005-1s0.442-1,0.994-1h0.011c0.552,0,1,0.447,1,1S44.591,30.994,44.039,30.994z"
				/>
		</g>
		<g>
			<path d="M48.039,30.994c-0.553,0-1.005-0.447-1.005-1s0.442-1,0.994-1h0.011c0.552,0,1,0.447,1,1S48.591,30.994,48.039,30.994z"
				/>
		</g>
		<g>
			<path d="M40.039,34.994c-0.553,0-1.005-0.447-1.005-1s0.442-1,0.994-1h0.011c0.552,0,1,0.447,1,1S40.591,34.994,40.039,34.994z"
				/>
		</g>
		<g>
			<path d="M44.039,34.994c-0.553,0-1.005-0.447-1.005-1s0.442-1,0.994-1h0.011c0.552,0,1,0.447,1,1S44.591,34.994,44.039,34.994z"
				/>
		</g>
		<g>
			<path d="M48.039,34.994c-0.553,0-1.005-0.447-1.005-1s0.442-1,0.994-1h0.011c0.552,0,1,0.447,1,1S48.591,34.994,48.039,34.994z"
				/>
		</g>
		<g>
			<path d="M40.039,38.994c-0.553,0-1.005-0.447-1.005-1s0.442-1,0.994-1h0.011c0.552,0,1,0.447,1,1S40.591,38.994,40.039,38.994z"
				/>
		</g>
		<g>
			<path d="M44.039,38.994c-0.553,0-1.005-0.447-1.005-1s0.442-1,0.994-1h0.011c0.552,0,1,0.447,1,1S44.591,38.994,44.039,38.994z"
				/>
		</g>
		<g>
			<path d="M48.039,38.994c-0.553,0-1.005-0.447-1.005-1s0.442-1,0.994-1h0.011c0.552,0,1,0.447,1,1S48.591,38.994,48.039,38.994z"
				/>
		</g>
		<g>
			<g>
				<path d="M4.021,9C3.469,9,3.017,8.553,3.017,8s0.442-1,0.994-1h0.011c0.552,0,1,0.447,1,1S4.573,9,4.021,9z"/>
			</g>
			<g>
				<path d="M7.021,9C6.469,9,6.017,8.553,6.017,8s0.442-1,0.994-1h0.011c0.552,0,1,0.447,1,1S7.573,9,7.021,9z"/>
			</g>
			<g>
				<path d="M10.021,9C9.469,9,9.017,8.553,9.017,8s0.442-1,0.994-1h0.011c0.552,0,1,0.447,1,1S10.573,9,10.021,9z"/>
			</g>
			<g>
				<path d="M63.009,59h-62c-0.553,0-1-0.447-1-1V10c0-0.553,0.447-1,1-1h62c0.553,0,1,0.447,1,1v48
					C64.009,58.553,63.562,59,63.009,59z M2.009,57h60V11h-60V57z"/>
			</g>
			<g>
				<path d="M0.991,9c-0.553,0-1-0.447-1-1c0-1.654,1.346-3,3-3c0.553,0,1,0.447,1,1s-0.447,1-1,1c-0.552,0-1,0.448-1,1
					C1.991,8.553,1.544,9,0.991,9z"/>
			</g>
			<g>
				<path d="M0.991,11c-0.553,0-1-0.447-1-1V8c0-0.553,0.447-1,1-1s1,0.447,1,1v2C1.991,10.553,1.544,11,0.991,11z"/>
			</g>
			<g>
				<path d="M62.991,9c-0.553,0-1-0.447-1-1c0-0.552-0.448-1-1-1c-0.553,0-1-0.447-1-1s0.447-1,1-1c1.654,0,3,1.346,3,3
					C63.991,8.553,63.544,9,62.991,9z"/>
			</g>
			<g>
				<path d="M62.991,11c-0.553,0-1-0.447-1-1V8c0-0.553,0.447-1,1-1s1,0.447,1,1v2C63.991,10.553,63.544,11,62.991,11z"/>
			</g>
			<g>
				<path d="M60.991,7h-58c-0.553,0-1-0.447-1-1s0.447-1,1-1h58c0.553,0,1,0.447,1,1S61.544,7,60.991,7z"/>
			</g>
		</g>
		<g>
			<path d="M22.009,46.994c-7.168,0-13-5.832-13-13s5.832-13,13-13s13,5.832,13,13S29.177,46.994,22.009,46.994z M22.009,22.994
				c-6.065,0-11,4.935-11,11s4.935,11,11,11s11-4.935,11-11S28.074,22.994,22.009,22.994z"/>
		</g>
		<g>
			<path d="M22.009,42.994c-4.963,0-9-4.037-9-9s4.037-9,9-9s9,4.037,9,9S26.972,42.994,22.009,42.994z M22.009,26.994
				c-3.859,0-7,3.141-7,7s3.141,7,7,7s7-3.141,7-7S25.868,26.994,22.009,26.994z"/>
		</g>
		<g>
			<path d="M59.009,54.994h-54c-0.553,0-1-0.447-1-1v-40c0-0.553,0.447-1,1-1h54c0.553,0,1,0.447,1,1v40
				C60.009,54.547,59.562,54.994,59.009,54.994z M6.009,52.994h52v-38h-52V52.994z"/>
		</g>
		<g>
			<path d="M62.991,21.994h-4c-0.553,0-1-0.447-1-1s0.447-1,1-1h4c0.553,0,1,0.447,1,1S63.544,21.994,62.991,21.994z"/>
		</g>
		<g>
			<path d="M62.991,25.994h-4c-0.553,0-1-0.447-1-1s0.447-1,1-1h4c0.553,0,1,0.447,1,1S63.544,25.994,62.991,25.994z"/>
		</g>
		<g>
			<path d="M62.991,43.994h-4c-0.553,0-1-0.447-1-1s0.447-1,1-1h4c0.553,0,1,0.447,1,1S63.544,43.994,62.991,43.994z"/>
		</g>
		<g>
			<path d="M62.991,47.994h-4c-0.553,0-1-0.447-1-1s0.447-1,1-1h4c0.553,0,1,0.447,1,1S63.544,47.994,62.991,47.994z"/>
		</g>
		<g>
			<path d="M54.009,25.008H28.662c-0.553,0-1-0.447-1-1s0.447-1,1-1h25.347c0.553,0,1,0.447,1,1S54.562,25.008,54.009,25.008z"/>
		</g>
		<g>
			<path d="M54.009,44.994H28.644c-0.553,0-1-0.447-1-1s0.447-1,1-1h25.365c0.553,0,1,0.447,1,1S54.562,44.994,54.009,44.994z"/>
		</g>
		<g>
			<path d="M54.009,44.994c-0.553,0-1-0.447-1-1V24.008c0-0.553,0.447-1,1-1s1,0.447,1,1v19.986
				C55.009,44.547,54.562,44.994,54.009,44.994z"/>
		</g>
		<g>
			<path d="M29.755,32.994H14.263c-0.553,0-1-0.447-1-1s0.447-1,1-1h15.492c0.553,0,1,0.447,1,1S30.308,32.994,29.755,32.994z"/>
		</g>
		<g>
			<path d="M29.755,36.994H14.263c-0.553,0-1-0.447-1-1s0.447-1,1-1h15.492c0.553,0,1,0.447,1,1S30.308,36.994,29.755,36.994z"/>
		</g>
	</g>
</g>
<g id="_x31_3_mining_x2C__funnel_x2C__satoshi_x2C__bitcoin_x2C__coin_x2C__cryptocurrency">
</g>
<g id="_x31_2_chart_x2C__bitcoin_x2C__coin_x2C__block_x2C__chain_x2C__cryptocurrency">
</g>
<g id="_x31_1_computer_x2C__monitor_x2C__bitcoin_x2C__coin_x2C__block_x2C__chain_x2C__cryptocurrency">
</g>
<g id="_x31_0_mining_x2C__pickaxe_x2C__stone_x2C__mine_x2C___bitcoin_x2C__coin_x2C__cryptocurrency">
</g>
<g id="_x39__miner_x2C__mining_x2C__computer_x2C__pickaxe_x2C__program_x2C__cryptocurrency">
</g>
<g id="_x38__video_card_x2C__mining_x2C__bitcoin_x2C__coin_x2C__block_x2C__chain_x2C__cryptocurrency">
</g>
<g id="_x37__exchanger_x2C__site_x2C__bitcoin_x2C__coin_x2C__block_x2C__chain_x2C__cryptocurrency">
</g>
<g id="_x36__shop_x2C__product_x2C__bitcoin_x2C__coin_x2C__block_x2C__chain_x2C__cryptocurrency">
</g>
<g id="_x35__bitcoin_x2C__coin_x2C__exchange_x2C__block_x2C__chain_x2C__cryptocurrency_x2C__product">
</g>
<g id="_x34__bitcoin_x2C__coin_x2C__exchange_x2C__block_x2C__chain_x2C__cryptocurrency">
</g>
<g id="_x33__bitcoin_x2C__coin_x2C__exchange_x2C__block_x2C__chain_x2C__cryptocurrency">
</g>
<g id="_x32__brain_x2C__smart_x2C__coin_x2C__block_x2C__chain_x2C__cryptocurrency">
</g>
<g id="_x31__bitcoin_x2C__coin_x2C__block_x2C__chain_x2C__cryptocurrency">
</g>
</svg>
