<?xml version="1.0" encoding="utf-8"?>
<!-- Generator: Adobe Illustrator 16.0.0, SVG Export Plug-In . SVG Version: 6.00 Build 0)  -->
<!DOCTYPE svg PUBLIC "-//W3C//DTD SVG 1.1//EN" "http://www.w3.org/Graphics/SVG/1.1/DTD/svg11.dtd">
<svg version="1.1" xmlns="http://www.w3.org/2000/svg" xmlns:xlink="http://www.w3.org/1999/xlink" x="0px" y="0px" width="64px"
	 height="64px" viewBox="0 0 64 64" enable-background="new 0 0 64 64" xml:space="preserve">
<g id="_x35_0_code_x2C__programming_x2C__program_x2C__bitcoin_x2C__block_x2C__chain_x2C__cryptocurrency">
</g>
<g id="_x34_9_balloon_x2C__takeoff_x2C__bitcoin_x2C__coin_x2C__block_x2C__chain_x2C__cryptocurrency">
</g>
<g id="_x34_8_video_card_x2C__mining_x2C__farm_x2C__computer_x2C__block_x2C__chain_x2C__cryptocurrency">
</g>
<g id="_x34_7_money_box_x2C__saving_x2C__bitcoin_x2C__coin_x2C__block_x2C__chain_x2C__cryptocurrency">
</g>
<g id="_x34_6_portfolio_x2C__finance_x2C__bank_note_x2C__bitcoin_x2C__coin_x2C__cryptocurrency">
</g>
<g id="_x34_5_tap_x2C__water_x2C__bitcoin_x2C__coin_x2C__block_x2C__chain_x2C__cryptocurrency">
</g>
<g id="_x34_4_phone_x2C__bitcoin_x2C__coin_x2C__block_x2C__chain_x2C__cryptocurrency">
</g>
<g id="_x34_3_rocket_x2C__sun_x2C__bitcoin_x2C__coin_x2C__block_x2C__chain_x2C__cryptocurrency">
</g>
<g id="_x34_2_transfer_x2C__network_x2C__bitcoin_x2C__coin_x2C__block_x2C__chain_x2C__cryptocurrency">
</g>
<g id="_x34_1_scales_x2C__comparison_x2C__bitcoin_x2C__coin_x2C__block_x2C__chain_x2C__cryptocurrency">
</g>
<g id="_x34_0_calculator_x2C__calculating_x2C__bitcoin_x2C__coin_x2C__block_x2C__chain_x2C__cryptocurrency">
</g>
<g id="_x33_9_start-up_x2C__plant_x2C__hand_x2C__bitcoin_x2C__coin_x2C__cryptocurrency">
</g>
<g id="_x33_8_idea_x2C__bulb_x2C__bitcoin_x2C__coin_x2C__block_x2C__chain_x2C__cryptocurrency">
</g>
<g id="_x33_7_users_x2C__user_x2C__co-founder_x2C__bitcoin_x2C__coin_x2C__cryptocurrency">
</g>
<g id="_x33_6_safe_x2C__protection_x2C__bitcoin_x2C__coin_x2C__block_x2C__chain_x2C__cryptocurrency">
</g>
<g id="_x33_5_flash_drive_x2C__key_x2C__block_x2C__chain_x2C__cryptocurrency">
</g>
<g id="_x33_4_cloud_x2C__mining_x2C__bitcoin_x2C__coin_x2C__block_x2C__chain_x2C__cryptocurrency">
</g>
<g id="_x33_3_start_up_x2C__plant_x2C__bitcoin_x2C__coin_x2C__block_x2C__chain_x2C__cryptocurrency">
</g>
<g id="_x33_2_planet_x2C__bitcoin_x2C__coin_x2C__block_x2C__chain_x2C__cryptocurrency">
</g>
<g id="_x33_1_payment_x2C__hand_x2C__bitcoin_x2C__coin_x2C__block_x2C__chain_x2C__cryptocurrency">
</g>
<g id="_x33_0_user_x2C__laptop_x2C__bitcoin_x2C__coin_x2C__block_x2C__chain_x2C__cryptocurrency">
</g>
<g id="_x32_9_thief_x2C__bag_x2C__bitcoin_x2C__coin_x2C__block_x2C__chain_x2C__cryptocurrency">
</g>
<g id="_x32_8_code_x2C__programming_x2C__program_x2C__bitcoin_x2C__coin_x2C__cryptocurrency">
</g>
<g id="_x32_7_bitcoin_x2C__coin_x2C__block_x2C__chain_x2C__cryptocurrency">
</g>
<g id="_x32_6_shield_x2C__protection_x2C__bitcoin_x2C__coin_x2C__block_x2C__chain_x2C__cryptocurrency">
</g>
<g id="_x32_5_bug_x2C__laptop_x2C__miner_x2C__program_x2C__block_x2C__chain_x2C__cryptocurrency">
</g>
<g id="_x32_4_computer_x2C__monitor_x2C__bitcoin_x2C__coin_x2C__block_x2C__chain_x2C__cryptocurrency">
</g>
<g id="_x32_3_network_x2C__idea_x2C__bitcoin_x2C__coin_x2C__block_x2C__chain_x2C__cryptocurrency">
</g>
<g id="_x32_2_block_x2C__chain_x2C__cryptocurrency_x2C__technology_x2C__future">
</g>
<g id="_x32_1_smart_contact_x2C__contact_x2C__block_x2C__chain_x2C__cryptocurrency">
</g>
<g id="_x32_0_lock_x2C__safe_x2C__protection_x2C__block_x2C__chain_x2C__cryptocurrency_x2C__program">
</g>
<g id="_x31_9_server_x2C__data_x2C__bitcoin_x2C__coin_x2C__block_x2C__chain_x2C__cryptocurrency">
</g>
<g id="_x31_8_key_x2C__bitcoin_x2C__coin_x2C__block_x2C__chain_x2C__cryptocurrency">
</g>
<g id="_x31_7_pool_x2C__network_x2C__bitcoin_x2C__coin_x2C__block_x2C__chain_x2C__cryptocurrency">
</g>
<g id="_x31_6_mining_x2C__shovel_x2C__mine_x2C__coin_x2C__block_x2C__chain_x2C__cryptocurrency">
</g>
<g id="_x31_5_purse_x2C__bitcoin_x2C__coin_x2C__block_x2C__chain_x2C__cryptocurrency">
</g>
<g id="_x31_4_safe_x2C__protection_x2C__block_x2C__chain_x2C__cryptocurrency_x2C__program">
</g>
<g id="_x31_3_mining_x2C__funnel_x2C__satoshi_x2C__bitcoin_x2C__coin_x2C__cryptocurrency">
</g>
<g id="_x31_2_chart_x2C__bitcoin_x2C__coin_x2C__block_x2C__chain_x2C__cryptocurrency">
</g>
<g id="_x31_1_computer_x2C__monitor_x2C__bitcoin_x2C__coin_x2C__block_x2C__chain_x2C__cryptocurrency">
</g>
<g id="_x31_0_mining_x2C__pickaxe_x2C__stone_x2C__mine_x2C___bitcoin_x2C__coin_x2C__cryptocurrency">
</g>
<g id="_x39__miner_x2C__mining_x2C__computer_x2C__pickaxe_x2C__program_x2C__cryptocurrency">
</g>
<g id="_x38__video_card_x2C__mining_x2C__bitcoin_x2C__coin_x2C__block_x2C__chain_x2C__cryptocurrency">
</g>
<g id="_x37__exchanger_x2C__site_x2C__bitcoin_x2C__coin_x2C__block_x2C__chain_x2C__cryptocurrency">
	<g>
		<g>
			<path fill="#E6E9ED" d="M63.01,9v50h-62V9h61.98H63.01z"/>
		</g>
		<g>
			<polygon fill="#D1D6DB" points="62.99,9 59.01,9 59.01,59 63.01,59 63.01,9 			"/>
		</g>
		<g>
			<rect x="36.97" y="47" fill="#FFFFFF" width="22" height="8"/>
		</g>
		<g>
			<rect x="36.97" y="25" fill="#A0D468" width="22" height="22"/>
		</g>
		<g>
			<rect x="4.97" y="47" fill="#FFFFFF" width="22" height="8"/>
		</g>
		<g>
			<rect x="4.97" y="25" fill="#A0D468" width="22" height="22"/>
		</g>
		<g>
			<rect x="4.97" y="13" fill="#5D9CEC" width="54" height="8"/>
		</g>
		<g>
			<path fill="#CCD1D9" d="M62.99,9H1.01H0.99V7c0-1.11,0.899-2,2-2h58c1.109,0,2,0.89,2,2V9z"/>
		</g>
		<g>
			<path fill="#AAB2BD" d="M60.99,5h-4c1.109,0,2,0.89,2,2v2h4V7C62.99,5.89,62.1,5,60.99,5z"/>
		</g>
	</g>
	<g>
		<g>
			<g>
				<path d="M12.965,42c-0.553,0-1-0.447-1-1V31c0-0.552,0.447-1,1-1s1,0.448,1,1v10C13.965,41.553,13.518,42,12.965,42z"/>
			</g>
			<g>
				<path d="M16.966,35.998c-0.553,0-1-0.447-1-1s0.447-1,1-1c0.551,0,0.999-0.448,0.999-0.999S17.517,32,16.966,32
					c-0.553,0-1-0.448-1-1s0.447-1,1-1c1.653,0,2.999,1.345,2.999,2.999C19.965,34.652,18.619,35.998,16.966,35.998z"/>
			</g>
			<g>
				<path d="M16.964,42c-0.553,0-1-0.447-1-1s0.447-1,1-1c1.104,0,2.001-0.897,2.001-2c0-1.104-0.897-2.002-2.001-2.002
					c-0.553,0-1-0.447-1-1s0.447-1,1-1c2.206,0,4.001,1.795,4.001,4.002C20.965,40.206,19.17,42,16.964,42z"/>
			</g>
			<g>
				<path d="M16.966,32h-5.001c-0.553,0-1-0.448-1-1s0.447-1,1-1h5.001c0.553,0,1,0.448,1,1S17.519,32,16.966,32z"/>
			</g>
			<g>
				<path d="M16.964,42h-4.999c-0.553,0-1-0.447-1-1s0.447-1,1-1h4.999c0.553,0,1,0.447,1,1S17.517,42,16.964,42z"/>
			</g>
			<g>
				<path d="M16.966,35.998h-4.001c-0.553,0-1-0.447-1-1s0.447-1,1-1h4.001c0.553,0,1,0.447,1,1S17.519,35.998,16.966,35.998z"/>
			</g>
			<g>
				<path d="M14.965,32c-0.553,0-1-0.448-1-1v-1c0-0.552,0.447-1,1-1s1,0.448,1,1v1C15.965,31.552,15.518,32,14.965,32z"/>
			</g>
			<g>
				<path d="M14.965,43c-0.553,0-1-0.447-1-1v-1c0-0.553,0.447-1,1-1s1,0.447,1,1v1C15.965,42.553,15.518,43,14.965,43z"/>
			</g>
		</g>
		<g>
			<g>
				<path d="M4.021,8C3.469,8,3.017,7.552,3.017,7s0.442-1,0.994-1h0.011c0.552,0,1,0.448,1,1S4.573,8,4.021,8z"/>
			</g>
			<g>
				<path d="M7.021,8C6.469,8,6.017,7.552,6.017,7s0.442-1,0.994-1h0.011c0.552,0,1,0.448,1,1S7.573,8,7.021,8z"/>
			</g>
			<g>
				<path d="M10.021,8C9.469,8,9.017,7.552,9.017,7s0.442-1,0.994-1h0.011c0.552,0,1,0.448,1,1S10.573,8,10.021,8z"/>
			</g>
			<g>
				<path d="M63.009,60h-62c-0.553,0-1-0.447-1-1V9c0-0.552,0.447-1,1-1h62c0.553,0,1,0.448,1,1v50
					C64.009,59.553,63.562,60,63.009,60z M2.009,58h60V10h-60V58z"/>
			</g>
			<g>
				<path d="M0.991,8c-0.553,0-1-0.448-1-1c0-1.654,1.346-3,3-3c0.553,0,1,0.448,1,1s-0.447,1-1,1c-0.552,0-1,0.449-1,1
					C1.991,7.552,1.544,8,0.991,8z"/>
			</g>
			<g>
				<path d="M0.991,10c-0.553,0-1-0.448-1-1V7c0-0.552,0.447-1,1-1s1,0.448,1,1v2C1.991,9.552,1.544,10,0.991,10z"/>
			</g>
			<g>
				<path d="M62.991,8c-0.553,0-1-0.448-1-1c0-0.551-0.448-1-1-1c-0.553,0-1-0.448-1-1s0.447-1,1-1c1.654,0,3,1.346,3,3
					C63.991,7.552,63.544,8,62.991,8z"/>
			</g>
			<g>
				<path d="M62.991,10c-0.553,0-1-0.448-1-1V7c0-0.552,0.447-1,1-1s1,0.448,1,1v2C63.991,9.552,63.544,10,62.991,10z"/>
			</g>
			<g>
				<path d="M60.991,6h-58c-0.553,0-1-0.448-1-1s0.447-1,1-1h58c0.553,0,1,0.448,1,1S61.544,6,60.991,6z"/>
			</g>
		</g>
		<g>
			<path d="M58.965,22h-54c-0.553,0-1-0.448-1-1v-8c0-0.552,0.447-1,1-1h54c0.553,0,1,0.448,1,1v8
				C59.965,21.552,59.518,22,58.965,22z M5.965,20h52v-6h-52V20z"/>
		</g>
		<g>
			<path d="M53.965,18H9.991c-0.553,0-1-0.448-1-1s0.447-1,1-1h43.974c0.553,0,1,0.448,1,1S54.518,18,53.965,18z"/>
		</g>
		<g>
			<path d="M26.965,56h-22c-0.553,0-1-0.447-1-1V25c0-0.552,0.447-1,1-1h22c0.553,0,1,0.448,1,1v30
				C27.965,55.553,27.518,56,26.965,56z M5.965,54h20V26h-20V54z"/>
		</g>
		<g>
			<path d="M58.965,56h-22c-0.553,0-1-0.447-1-1V25c0-0.552,0.447-1,1-1h22c0.553,0,1,0.448,1,1v30
				C59.965,55.553,59.518,56,58.965,56z M37.965,54h20V26h-20V54z"/>
		</g>
		<g>
			<g>
				<path d="M33.965,37h-4c-0.553,0-1-0.447-1-1s0.447-1,1-1h4c0.553,0,1,0.447,1,1S34.518,37,33.965,37z"/>
			</g>
			<g>
				<path d="M33.965,37c-0.256,0-0.512-0.098-0.707-0.293l-1-1c-0.391-0.391-0.391-1.023,0-1.414s1.023-0.391,1.414,0l1,1
					c0.391,0.391,0.391,1.023,0,1.414C34.477,36.902,34.221,37,33.965,37z"/>
			</g>
			<g>
				<path d="M32.965,38c-0.256,0-0.512-0.098-0.707-0.293c-0.391-0.391-0.391-1.023,0-1.414l1-1c0.391-0.391,1.023-0.391,1.414,0
					s0.391,1.023,0,1.414l-1,1C33.477,37.902,33.221,38,32.965,38z"/>
			</g>
		</g>
		<g>
			<g>
				<path d="M33.965,45h-4c-0.553,0-1-0.447-1-1s0.447-1,1-1h4c0.553,0,1,0.447,1,1S34.518,45,33.965,45z"/>
			</g>
			<g>
				<path d="M30.965,46c-0.256,0-0.512-0.098-0.707-0.293l-1-1c-0.391-0.391-0.391-1.023,0-1.414s1.023-0.391,1.414,0l1,1
					c0.391,0.391,0.391,1.023,0,1.414C31.477,45.902,31.221,46,30.965,46z"/>
			</g>
			<g>
				<path d="M29.965,45c-0.256,0-0.512-0.098-0.707-0.293c-0.391-0.391-0.391-1.023,0-1.414l1-1c0.391-0.391,1.023-0.391,1.414,0
					s0.391,1.023,0,1.414l-1,1C30.477,44.902,30.221,45,29.965,45z"/>
			</g>
		</g>
		<g>
			<path d="M26.965,48h-22c-0.553,0-1-0.447-1-1s0.447-1,1-1h22c0.553,0,1,0.447,1,1S27.518,48,26.965,48z"/>
		</g>
		<g>
			<path d="M58.965,48h-22c-0.553,0-1-0.447-1-1s0.447-1,1-1h22c0.553,0,1,0.447,1,1S59.518,48,58.965,48z"/>
		</g>
		<g>
			<path d="M15.965,52h-6c-0.553,0-1-0.447-1-1s0.447-1,1-1h6c0.553,0,1,0.447,1,1S16.518,52,15.965,52z"/>
		</g>
		<g>
			<path d="M22.048,52h-2.083c-0.553,0-1-0.447-1-1s0.447-1,1-1h2.083c0.553,0,1,0.447,1,1S22.601,52,22.048,52z"/>
		</g>
		<g>
			<path d="M47.965,52h-6c-0.553,0-1-0.447-1-1s0.447-1,1-1h6c0.553,0,1,0.447,1,1S48.518,52,47.965,52z"/>
		</g>
		<g>
			<path d="M54.048,52h-2.083c-0.553,0-1-0.447-1-1s0.447-1,1-1h2.083c0.553,0,1,0.447,1,1S54.601,52,54.048,52z"/>
		</g>
		<g>
			<g>
				<path d="M51.965,33h-8c-0.553,0-1-0.448-1-1s0.447-1,1-1h8c0.553,0,1,0.448,1,1S52.518,33,51.965,33z"/>
			</g>
			<g>
				<path d="M51.965,42c-0.275,0-0.55-0.113-0.747-0.336l-8-9c-0.367-0.413-0.33-1.045,0.083-1.412
					c0.412-0.366,1.044-0.33,1.411,0.083l8,9c0.367,0.412,0.33,1.045-0.083,1.411C52.438,41.917,52.201,42,51.965,42z"/>
			</g>
			<g>
				<path d="M51.965,42h-8c-0.553,0-1-0.447-1-1s0.447-1,1-1h8c0.553,0,1,0.447,1,1S52.518,42,51.965,42z"/>
			</g>
			<g>
				<path d="M47.965,33c-0.553,0-1-0.448-1-1v-1c0-0.552,0.447-1,1-1s1,0.448,1,1v1C48.965,32.552,48.518,33,47.965,33z"/>
			</g>
			<g>
				<path d="M47.965,43c-0.553,0-1-0.447-1-1v-1c0-0.553,0.447-1,1-1s1,0.447,1,1v1C48.965,42.553,48.518,43,47.965,43z"/>
			</g>
		</g>
	</g>
</g>
<g id="_x36__shop_x2C__product_x2C__bitcoin_x2C__coin_x2C__block_x2C__chain_x2C__cryptocurrency">
</g>
<g id="_x35__bitcoin_x2C__coin_x2C__exchange_x2C__block_x2C__chain_x2C__cryptocurrency_x2C__product">
</g>
<g id="_x34__bitcoin_x2C__coin_x2C__exchange_x2C__block_x2C__chain_x2C__cryptocurrency">
</g>
<g id="_x33__bitcoin_x2C__coin_x2C__exchange_x2C__block_x2C__chain_x2C__cryptocurrency">
</g>
<g id="_x32__brain_x2C__smart_x2C__coin_x2C__block_x2C__chain_x2C__cryptocurrency">
</g>
<g id="_x31__bitcoin_x2C__coin_x2C__block_x2C__chain_x2C__cryptocurrency">
</g>
</svg>
