<svg xmlns="http://www.w3.org/2000/svg" viewBox="0 0 64 64"><path fill="#ED5565" d="M42.818 43v3h-23.98v-3h11.98z"/><path fill="#DA4453" d="M38.818 43v3h4v-3zM34.818 63h-11.99l-3.01-17h22l-3.009 17z"/><path fill="#D3374E" d="M37.818 46l-3.009 17h4l3.009-17z"/><path fill="#A0D468" d="M34.988 36.83a4.008 4.008 0 010-5.66c1.56-1.56 8.27-5.729 9.83-4.17 1.56 1.561-2.61 8.271-4.17 9.83a4.006 4.006 0 01-5.66 0zM27.088 29.75c.971.98.971 2.561 0 3.53a2.5 2.5 0 01-3.54 0c-.979-.97-2.979-4.55-2-5.53.98-.979 4.56 1.021 5.54 2z"/><path fill="#EDAB37" d="M35.828 19.66c-1.47.85-3.18 1.34-5 1.34s-3.53-.49-5-1.34a9.992 9.992 0 01-5-8.66v4c0 3.7 2.01 6.931 5 8.66 1.47.85 3.18 1.34 5 1.34s3.53-.49 5-1.34c2.99-1.729 5-4.96 5-8.66v-4c0 3.7-2.01 6.931-5 8.66z"/><path fill="#FFCE54" d="M32.328 15a2.5 2.5 0 000-5h-.5c1.11 0 2-.899 2-2 0-1.109-.89-2-2-2h-3v9h3.5zm8.5-4c0 3.7-2.01 6.931-5 8.66-1.47.85-3.18 1.34-5 1.34s-3.53-.49-5-1.34a9.992 9.992 0 01-5-8.66c0-5.52 4.48-10 10-10 5.521 0 10 4.48 10 10z"/><path fill="#F6BB42" d="M30.828 1c-.685 0-1.354.069-2 .201 4.563.928 8 4.964 8 9.799 0 3.7-2.01 6.931-5 8.66a9.985 9.985 0 01-3 1.116 9.914 9.914 0 002 .224c1.82 0 3.53-.49 5-1.34 2.99-1.729 5-4.96 5-8.66 0-5.52-4.479-10-10-10z"/><path fill="#EDAB37" d="M31.828 6c1.11 0 2 .891 2 2 0 1.101-.89 2-2 2h-3V6h3zM32.328 10a2.5 2.5 0 010 5h-3.5v-5h3.5z"/><path d="M30.828 22c-6.065 0-11-4.935-11-11s4.935-11 11-11 11 4.935 11 11-4.934 11-11 11zm0-20c-4.963 0-9 4.037-9 9s4.037 9 9 9 9-4.037 9-9-4.037-9-9-9z"/><path d="M30.828 25.999c-6.065 0-11-4.935-11-11a1 1 0 112 0c0 4.963 4.037 9 9 9s9-4.037 9-9a1 1 0 112 0c0 6.065-4.934 11-11 11z"/><path d="M40.828 15.999a1 1 0 01-1-1V11a1 1 0 112 0v3.999a1 1 0 01-1 1zM28.828 16a1 1 0 01-1-1V6a1 1 0 112 0v9a1 1 0 01-1 1zM31.828 10.999a1 1 0 110-2 1 1 0 000-1.999 1 1 0 110-2c1.654 0 3 1.346 3 2.999 0 1.654-1.346 3-3 3z"/><path d="M32.327 16a1 1 0 110-2c.827 0 1.501-.673 1.501-1.5 0-.828-.674-1.502-1.501-1.502a1 1 0 110-2 3.505 3.505 0 013.501 3.502c0 1.93-1.57 3.5-3.501 3.5zM31.828 7h-4a1 1 0 110-2h4a1 1 0 110 2z"/><path d="M32.327 16h-4.499a1 1 0 110-2h4.499a1 1 0 110 2zM28.828 11a1 1 0 01-.001-2l3.499-.002h.001a1 1 0 01.001 2l-3.5.002zM30.828 7a1 1 0 01-1-1V4.999a1 1 0 112 0V6a1 1 0 01-1 1z"/><path d="M30.828 17a1 1 0 01-1-1v-1a1 1 0 112 0v1a1 1 0 01-1 1zM30.828 25.999a1 1 0 01-1-1V21a1 1 0 112 0v3.999a1 1 0 01-1 1zM35.828 24.66a1 1 0 01-1-1v-3.998a1 1 0 112 0v3.998a1 1 0 01-1 1zM25.828 24.66a1 1 0 01-1-1v-3.998a1 1 0 112 0v3.998a1 1 0 01-1 1zM20.828 15.999a1 1 0 01-1-1V11a1 1 0 112 0v3.999a1 1 0 01-1 1zM42.816 47H18.84a1 1 0 01-1-1v-3a1 1 0 011-1h23.977a1 1 0 011 1v3a1 1 0 01-1.001 1zM19.84 45h21.977v-1H19.84v1z"/><path d="M22.827 64a1 1 0 01-.983-.825l-3.012-17a1 1 0 111.969-.349l3.012 17A1 1 0 0122.827 64zM38.812 64a1 1 0 01-.986-1.175l3.012-17a1 1 0 011.969.349l-3.012 17a1 1 0 01-.983.826z"/><path d="M38.811 64H22.828a1 1 0 110-2H38.81a1 1 0 11.001 2zM30.816 44a1 1 0 01-1-1.001l.012-18.001a1 1 0 011-.999h.001A1 1 0 0131.828 25l-.012 18.001a1 1 0 01-1 .999zM37.816 39a4.965 4.965 0 01-3.535-1.465c-.944-.943-1.465-2.199-1.465-3.535s.521-2.592 1.465-3.535c1.386-1.387 6.673-4.81 9.491-4.81.739 0 1.328.215 1.751.638 1.045 1.044.807 3.03-.729 6.071-1.004 1.989-2.484 4.212-3.443 5.171A4.965 4.965 0 0137.816 39zm5.956-11.345c-1.992 0-6.759 2.904-8.077 4.224-.566.566-.879 1.319-.879 2.121s.313 1.555.879 2.121c1.133 1.133 3.109 1.133 4.242 0 1.846-1.845 4.816-7.524 4.169-8.417-.002 0-.088-.049-.334-.049z"/><path d="M30.828 42a.999.999 0 01-.708-1.706l7.16-7.172a.999.999 0 111.416 1.412l-7.16 7.172a.996.996 0 01-.708.294z"/><g><path d="M25.316 35.018a3.479 3.479 0 01-2.475-1.025c-.622-.622-1.42-1.886-1.941-3.073-.796-1.814-.815-3.119-.059-3.876.253-.253.718-.555 1.498-.555 1.797 0 4.551 1.654 5.451 2.555a3.504 3.504 0 010 4.949 3.477 3.477 0 01-2.474 1.025zM22.28 28.49c-.089.753 1.065 3.178 1.976 4.088.566.566 1.555.566 2.121 0a1.501 1.501 0 000-2.121c-.724-.723-2.991-1.969-4.037-1.969a.996.996 0 00-.06.002z"/></g><g><path d="M30.809 38.01a.997.997 0 01-.707-.293l-3.725-3.725a.999.999 0 111.414-1.414l3.725 3.725a.999.999 0 01-.707 1.707z"/></g><g><path d="M26.816 64a1 1 0 01-1-1v-1a1 1 0 112 0v1a1 1 0 01-1 1z"/></g><g><path d="M30.816 64a1 1 0 01-1-1v-1a1 1 0 112 0v1a1 1 0 01-1 1z"/></g><g><path d="M34.816 64a1 1 0 01-1-1v-1a1 1 0 112 0v1a1 1 0 01-1 1z"/></g></svg>