<svg xmlns="http://www.w3.org/2000/svg" x="0" y="0" xml:space="preserve" viewBox="0 0 64 64"><path fill="#D770AD" d="M28.49 59.851V63h-10v-6.64c2.77 1.93 6.21 3.09 10 3.48v.011zM44.49 56.36V63h-10v-3.159c3.79-.391 7.23-1.551 10-3.481z"/><path fill="#EDAB37" d="M31.95 9c.83 0 1.5.671 1.5 1.5 0 .83-.67 1.5-1.5 1.5h-2.5V9h2.5zM32.45 12c1.1 0 2 .9 2 2 0 1.101-.9 2-2 2h-3v-4h3z"/><path fill="#FFCE54" d="M32.45 16c1.1 0 2-.899 2-2 0-1.1-.9-2-2-2h-.5c.83 0 1.5-.67 1.5-1.5 0-.829-.67-1.5-1.5-1.5h-2.5v7h3zm-.96-12c4.42 0 8 3.58 8 8 0 4.421-3.58 8-8 8s-8-3.579-8-8c0-4.42 3.58-8 8-8z"/><path fill="#F6BB42" d="M31.49 4c-.692 0-1.359.097-2 .262 3.449.889 6 4.011 6 7.738 0 3.729-2.551 6.85-6 7.738a7.998 7.998 0 0 0 2 .262c4.42 0 8-3.579 8-8 0-4.42-3.58-8-8-8z"/><path fill="#D770AD" d="m48.49 21-2.28 8v.011c-2.1-1.931-4.74-3.3-7.72-4.12a3.996 3.996 0 0 1 4-3.891h6zM57.49 37l.01 10-8.14 4h-.01c1.37-2.489 2.141-5.489 2.141-9 0-3.51-.771-6.51-2.141-9h.011l8.129 4z"/><path fill="#EC87C0" d="M38.49 24.891c2.979.82 5.62 2.189 7.72 4.12A15.16 15.16 0 0 1 49.35 33c1.37 2.49 2.141 5.49 2.141 9 0 3.511-.771 6.511-2.141 9-1.189 2.19-2.85 3.971-4.859 5.36-2.771 1.93-6.21 3.09-10 3.48-.981.11-1.981.16-3.001.16-1.021 0-2.021-.05-3-.159-3.79-.391-7.23-1.551-10-3.48-4.29-2.97-7-7.75-7-14.36 0-3.449.739-6.409 2.06-8.859C16.81 27.051 23.62 24 31.49 24c2.46 0 4.82.301 7 .891z"/><g><path d="M31.954 13a1 1 0 1 1 0-2c.275 0 .5-.225.5-.5s-.225-.5-.5-.5a1 1 0 1 1 0-2c1.379 0 2.5 1.121 2.5 2.5s-1.121 2.5-2.5 2.5z"/><path d="M32.454 17a1 1 0 1 1 0-2 1 1 0 0 0 0-2 1 1 0 1 1 0-2c1.654 0 3 1.346 3 3s-1.346 3-3 3z"/><path d="M32.454 13h-3a1 1 0 1 1 0-2h3a1 1 0 1 1 0 2zM32.454 17h-4a1 1 0 1 1 0-2h4a1 1 0 1 1 0 2zM31.954 10h-3.5a1 1 0 1 1 0-2h3.5a1 1 0 1 1 0 2z"/><path d="M29.454 17a1 1 0 0 1-1-1V9a1 1 0 1 1 2 0v7a1 1 0 0 1-1 1z"/><path d="M30.454 10a1 1 0 0 1-1-1V8a1 1 0 1 1 2 0v1a1 1 0 0 1-1 1zM30.454 18a1 1 0 0 1-1-1v-1a1 1 0 1 1 2 0v1a1 1 0 0 1-1 1z"/><path d="M31.495 21c-4.963 0-9-4.037-9-9s4.037-9 9-9 9 4.037 9 9-4.037 9-9 9zm0-16c-3.859 0-7 3.141-7 7s3.141 7 7 7 7-3.141 7-7-3.141-7-7-7zM31.495 61c-12.757 0-21-7.459-21-19.002 0-11.541 8.243-18.998 21-18.998s21 7.457 21 18.998c0 11.543-8.243 19.002-21 19.002zm0-36c-9.186 0-19 4.466-19 16.998 0 12.535 9.814 17.002 19 17.002s19-4.467 19-17.002c0-12.532-9.814-16.998-19-16.998z"/><path d="M23.494 29.408a1.002 1.002 0 0 1-.365-1.932C25.604 26.511 28.496 26 31.495 26c2.995 0 5.887.51 8.36 1.475.515.2.769.78.568 1.295a.998.998 0 0 1-1.295.568C36.884 28.463 34.244 28 31.495 28c-2.752 0-5.394.463-7.637 1.34a.994.994 0 0 1-.364.068zM34.495 64a1 1 0 0 1-1-1v-3.153a1 1 0 1 1 2 0V63a1 1 0 0 1-1 1z"/><path d="M44.495 64h-10a1 1 0 1 1 0-2h10a1 1 0 1 1 0 2z"/><path d="M44.495 64a1 1 0 0 1-1-1v-6.635a1 1 0 1 1 2 0V63a1 1 0 0 1-1 1zM28.495 64a1 1 0 0 1-1-1v-3.153a1 1 0 1 1 2 0V63a1 1 0 0 1-1 1z"/><path d="M28.495 64h-10a1 1 0 1 1 0-2h10a1 1 0 1 1 0 2z"/><path d="M18.495 64a1 1 0 0 1-1-1v-6.635a1 1 0 1 1 2 0V63a1 1 0 0 1-1 1zM49.363 52a1.001 1.001 0 0 1-.442-1.898l8.143-4a1 1 0 0 1 .883 1.795l-8.143 4a1 1 0 0 1-.441.103zM57.504 38a.995.995 0 0 1-.44-.103l-8.141-4a1.001 1.001 0 0 1 .883-1.795l8.141 4A1.001 1.001 0 0 1 57.504 38z"/><g><path d="M57.505 48a1 1 0 0 1-1-.999l-.01-10A1 1 0 0 1 57.494 36h.001a1 1 0 0 1 1 .999l.01 10a1 1 0 0 1-1 1.001z"/></g><g><path d="M46.214 30a1 1 0 0 1-.963-1.274l2.282-8a1.007 1.007 0 0 1 1.236-.688 1 1 0 0 1 .688 1.236l-2.282 8c-.126.44-.527.726-.961.726z"/></g><g><path d="M48.495 22h-6a1 1 0 1 1 0-2h6a1 1 0 1 1 0 2z"/></g><g><path d="M38.497 25.895h-.027a1.001 1.001 0 0 1-.974-1.026A4.975 4.975 0 0 1 42.495 20a1 1 0 1 1 0 2 2.983 2.983 0 0 0-2.999 2.921c-.015.543-.46.974-.999.974z"/></g><g><path d="M39.495 13a1 1 0 0 1-1-1V3a1 1 0 1 1 2 0v9a1 1 0 0 1-1 1z"/></g><g><path d="M31.495 5a1 1 0 0 1-1-1V1a1 1 0 1 1 2 0v3a1 1 0 0 1-1 1z"/></g><g><path d="M23.495 13a1 1 0 0 1-1-1V5a1 1 0 1 1 2 0v7a1 1 0 0 1-1 1z"/></g><g><path d="M11.065 34.826a5.845 5.845 0 0 1-4.141-1.719 4.888 4.888 0 0 1 0-6.904 4.109 4.109 0 0 1 5.807 0 3.49 3.49 0 0 1 0 4.928c-1.127 1.129-3.097 1.129-4.226 0a.999.999 0 1 1 1.414-1.414 1.007 1.007 0 0 0 1.396 0c.58-.579.58-1.521.001-2.1a2.111 2.111 0 0 0-2.979 0 2.885 2.885 0 0 0 0 4.076 3.845 3.845 0 0 0 4.7.585 1 1 0 0 1 1.027 1.717 5.817 5.817 0 0 1-2.999.831z"/></g></g></svg>