<?xml version="1.0" encoding="utf-8"?>
<!-- Generator: Adobe Illustrator 16.0.0, SVG Export Plug-In . SVG Version: 6.00 Build 0)  -->
<!DOCTYPE svg PUBLIC "-//W3C//DTD SVG 1.1//EN" "http://www.w3.org/Graphics/SVG/1.1/DTD/svg11.dtd">
<svg version="1.1" xmlns="http://www.w3.org/2000/svg" xmlns:xlink="http://www.w3.org/1999/xlink" x="0px" y="0px" width="64px"
	 height="64px" viewBox="0 0 64 64" enable-background="new 0 0 64 64" xml:space="preserve">
<g id="_x35_0_code_x2C__programming_x2C__program_x2C__bitcoin_x2C__block_x2C__chain_x2C__cryptocurrency">
</g>
<g id="_x34_9_balloon_x2C__takeoff_x2C__bitcoin_x2C__coin_x2C__block_x2C__chain_x2C__cryptocurrency">
</g>
<g id="_x34_8_video_card_x2C__mining_x2C__farm_x2C__computer_x2C__block_x2C__chain_x2C__cryptocurrency">
</g>
<g id="_x34_7_money_box_x2C__saving_x2C__bitcoin_x2C__coin_x2C__block_x2C__chain_x2C__cryptocurrency">
</g>
<g id="_x34_6_portfolio_x2C__finance_x2C__bank_note_x2C__bitcoin_x2C__coin_x2C__cryptocurrency">
</g>
<g id="_x34_5_tap_x2C__water_x2C__bitcoin_x2C__coin_x2C__block_x2C__chain_x2C__cryptocurrency">
</g>
<g id="_x34_4_phone_x2C__bitcoin_x2C__coin_x2C__block_x2C__chain_x2C__cryptocurrency">
</g>
<g id="_x34_3_rocket_x2C__sun_x2C__bitcoin_x2C__coin_x2C__block_x2C__chain_x2C__cryptocurrency">
	<g>
		<g>
			<path fill="#F5F7FA" d="M57,45.5c0-1.65,1.34-3,3-2.999c1.66,0,3,1.349,3,2.999c0,1.66-1.34,3-3,3l-5.5,0.001
				c-0.83,0-1.5-0.671-1.5-1.501c0-0.82,0.67-1.5,1.5-1.5H57z"/>
		</g>
		<g>
			<path fill="#F5F7FA" d="M57.01,57.501c1.109-0.001,2,0.898,2,1.999c0,1.109-0.889,2-2,2H46.02c-2.199,0-4-1.79-4-4s1.799-4,4-4
				c2.211,0,4,1.79,4,4L57.01,57.501z"/>
		</g>
		<g>
			<path fill="#FC6E51" d="M20.391,47.109c1.559,1.57,1.559,4.102,0,5.661c-1.561,1.56-9.752,7.219-11.311,5.659
				c-1.57-1.559,4.09-9.75,5.648-11.319C16.289,45.55,18.83,45.55,20.391,47.109z"/>
		</g>
		<g>
			<path fill="#DA4453" d="M37.34,40.06c2.35,2.34,2.35,6.141,0,8.48l-2.121,2.13l-4.238-4.25L37.34,40.06z"/>
		</g>
		<g>
			<path fill="#656D78" d="M21.09,39.359l7.061,7.061l-0.711,0.71c-0.779,0.78-2.041,0.78-2.82,0l-4.248-4.239
				c-0.781-0.78-0.781-2.051-0.002-2.831l0.021,0.011L21.09,39.359z"/>
		</g>
		<g>
			<path fill="#434A54" d="M25.322,43.592l-0.711,0.71c-0.779,0.78-2.041,0.78-2.82,0l2.828,2.828c0.779,0.78,2.041,0.78,2.82,0
				l0.711-0.71L25.322,43.592z"/>
		</g>
		<g>
			<path fill="#ED5565" d="M27.449,30.17l-6.359,6.359l-0.01-0.01l-4.24-4.24l2.119-2.119c2.342-2.35,6.141-2.351,8.48,0
				L27.449,30.17z"/>
		</g>
		<g>
			<path fill="#F5F7FA" d="M30.98,46.42l-1.41,1.42l-1.42-1.42l-7.061-7.061l-1.42-1.42l1.42-1.41l6.359-6.359l3.029-3.04
				c0.611,2.3,1.822,4.47,3.621,6.27c1.801,1.801,3.971,3.012,6.271,3.62v0.01l-3.031,3.03L30.98,46.42z"/>
		</g>
		<g>
			<g>
				<path fill="#E6E9ED" d="M30.98,46.42l6.359-6.36l3.031-3.03v-0.01c-1.369-0.362-2.691-0.942-3.918-1.729l-1.941,1.941
					l-6.361,6.36l-1.408,1.42l1.408,1.408l1.42,1.42L30.98,46.42z"/>
			</g>
		</g>
		<g>
			<path fill="#EDAB37" d="M46.84,16.44l2.119,2.129h0.01l0.701,0.7c1.17,1.17,1.17,3.07,0,4.24c-1.17,1.18-3.07,1.18-4.24,0
				l-3.539-3.53l4.24-4.239L46.84,16.44z"/>
		</g>
		<g>
			<path fill="#EDAB37" d="M45.43,23.51c1.559,1.57,1.559,4.101,0,5.66c-1.561,1.56-4.1,1.56-5.66,0l-0.709-0.7l-2.121-2.13
				l-0.699-0.7l5.65-5.66L45.43,23.51z"/>
		</g>
		<g>
			<path fill="#FFCE54" d="M39.061,28.47l0.709,0.7c1.561,1.56,4.1,1.56,5.66,0c1.559-1.56,1.559-4.09,0-5.66
				c1.17,1.18,3.07,1.18,4.24,0c1.17-1.17,1.17-3.07,0-4.24l-0.701-0.7h-0.01L46.84,16.44l-0.709-0.7l-4.24,4.239l-5.65,5.66
				l0.699,0.7L39.061,28.47z M53.898,13.6c5.473,5.47,5.471,14.33,0.002,19.8c-3.67,3.67-8.861,4.88-13.529,3.62
				C38.07,36.411,35.9,35.2,34.1,33.399c-1.799-1.8-3.01-3.97-3.621-6.27c-1.258-4.67-0.049-9.86,3.621-13.53
				C39.57,8.14,48.43,8.14,53.898,13.6z"/>
		</g>
		<g>
			<g>
				<path fill="#F6BB42" d="M53.898,13.6c-0.48-0.479-0.994-0.901-1.521-1.296c4.107,5.484,3.682,13.281-1.305,18.268
					c-3.672,3.67-8.861,4.88-13.531,3.62c-1.686-0.446-3.301-1.22-4.752-2.309c0.396,0.528,0.83,1.037,1.311,1.517
					c1.801,1.801,3.971,3.012,6.271,3.62c4.668,1.26,9.859,0.05,13.529-3.62C59.369,27.93,59.371,19.069,53.898,13.6z"/>
			</g>
			<g>
				<polygon fill="#F6BB42" points="46.84,16.44 46.842,16.441 46.842,16.441 				"/>
			</g>
		</g>
		<g>
			<circle fill="#FFCE54" cx="12" cy="13.5" r="5"/>
		</g>
	</g>
	<g>
		<g>
			<g>
				<path d="M44,38.5c-4.007,0-7.773-1.561-10.606-4.394S29,27.507,29,23.5s1.561-7.773,4.394-10.606S39.993,8.5,44,8.5
					s7.773,1.561,10.606,4.394S59,19.493,59,23.5s-1.561,7.773-4.394,10.606S48.007,38.5,44,38.5z M44,10.5
					c-3.472,0-6.736,1.353-9.192,3.808C32.353,16.764,31,20.028,31,23.5s1.353,6.736,3.808,9.192C37.264,35.147,40.528,36.5,44,36.5
					s6.736-1.353,9.192-3.808C55.647,30.236,57,26.972,57,23.5s-1.353-6.736-3.808-9.192C50.736,11.853,47.472,10.5,44,10.5z"/>
			</g>
			<g>
				<path d="M19.665,38.935c-0.256,0-0.512-0.098-0.707-0.293c-0.391-0.391-0.391-1.023,0-1.414l10.81-10.811
					c0.391-0.391,1.023-0.391,1.414,0s0.391,1.023,0,1.414l-10.81,10.811C20.177,38.837,19.921,38.935,19.665,38.935z"/>
			</g>
			<g>
				<path d="M29.564,48.834c-0.256,0-0.512-0.098-0.707-0.293c-0.391-0.391-0.391-1.023,0-1.414l10.809-10.809
					c0.391-0.391,1.023-0.391,1.414,0s0.391,1.023,0,1.414L30.271,48.541C30.076,48.736,29.82,48.834,29.564,48.834z"/>
			</g>
			<g>
				<g>
					<path d="M36.233,26.633c-0.256,0-0.512-0.098-0.707-0.293c-0.391-0.391-0.391-1.023,0-1.414l9.899-9.899
						c0.391-0.391,1.023-0.391,1.414,0s0.391,1.023,0,1.414L36.94,26.34C36.745,26.535,36.489,26.633,36.233,26.633z"/>
				</g>
				<g>
					<path d="M47.547,25.389c-1.024,0-2.049-0.39-2.828-1.17c-0.391-0.391-0.391-1.023,0-1.414s1.023-0.391,1.414,0
						c0.779,0.779,2.049,0.779,2.828,0c0.378-0.378,0.586-0.88,0.586-1.414s-0.208-1.036-0.586-1.414
						c-0.391-0.391-0.391-1.023,0-1.414s1.023-0.391,1.414,0c0.756,0.756,1.172,1.76,1.172,2.828c0,1.069-0.416,2.073-1.172,2.828
						C49.596,24.999,48.571,25.389,47.547,25.389z"/>
				</g>
				<g>
					<path d="M42.598,31.338c-1.28,0-2.561-0.487-3.536-1.462c-0.391-0.39-0.391-1.023,0-1.414s1.023-0.391,1.414,0
						c1.17,1.17,3.073,1.17,4.243,0c0.566-0.567,0.879-1.32,0.879-2.121c0-0.802-0.313-1.556-0.879-2.122
						c-0.391-0.391-0.391-1.023,0-1.414s1.023-0.391,1.414,0c1.949,1.949,1.949,5.122,0,7.071
						C45.158,30.851,43.878,31.338,42.598,31.338z"/>
				</g>
				<g>
					<path d="M49.668,20.27c-0.256,0-0.512-0.098-0.707-0.293l-4.242-4.243c-0.391-0.391-0.391-1.023,0-1.414s1.023-0.391,1.414,0
						l4.242,4.243c0.391,0.391,0.391,1.023,0,1.414C50.18,20.172,49.924,20.27,49.668,20.27z"/>
				</g>
				<g>
					<path d="M45.426,24.512c-0.256,0-0.512-0.098-0.707-0.293l-3.535-3.535c-0.391-0.391-0.391-1.023,0-1.414s1.023-0.391,1.414,0
						l3.535,3.535c0.391,0.391,0.391,1.023,0,1.414C45.938,24.414,45.682,24.512,45.426,24.512z"/>
				</g>
				<g>
					<path d="M40.122,30.522c-0.256,0-0.512-0.098-0.707-0.293l-4.596-4.597c-0.391-0.391-0.391-1.023,0-1.414s1.023-0.391,1.414,0
						l4.596,4.597c0.391,0.391,0.391,1.023,0,1.414C40.634,30.425,40.378,30.522,40.122,30.522z"/>
				</g>
				<g>
					<path d="M46.84,17.44c-0.256,0-0.512-0.098-0.707-0.293c-0.391-0.391-0.391-1.023,0-1.414l0.707-0.707
						c0.391-0.391,1.023-0.391,1.414,0s0.391,1.023,0,1.414l-0.707,0.707C47.352,17.343,47.096,17.44,46.84,17.44z"/>
				</g>
				<g>
					<path d="M48.961,19.563c-0.256,0-0.512-0.098-0.707-0.293c-0.391-0.391-0.391-1.023,0-1.414l0.707-0.707
						c0.391-0.391,1.023-0.391,1.414,0s0.391,1.023,0,1.414l-0.707,0.707C49.473,19.465,49.217,19.563,48.961,19.563z"/>
				</g>
				<g>
					<path d="M36.233,28.048c-0.256,0-0.512-0.098-0.707-0.293c-0.391-0.391-0.391-1.023,0-1.414l0.707-0.707
						c0.391-0.391,1.023-0.391,1.414,0s0.391,1.023,0,1.414l-0.707,0.707C36.745,27.95,36.489,28.048,36.233,28.048z"/>
				</g>
				<g>
					<path d="M38.354,30.169c-0.256,0-0.512-0.098-0.707-0.293c-0.391-0.391-0.391-1.023,0-1.414l0.707-0.707
						c0.391-0.391,1.023-0.391,1.414,0s0.391,1.023,0,1.414l-0.707,0.707C38.866,30.071,38.61,30.169,38.354,30.169z"/>
				</g>
			</g>
			<g>
				<path d="M20.372,43.884c-0.256,0-0.512-0.098-0.707-0.292c-0.567-0.567-0.88-1.32-0.88-2.122c0-0.801,0.313-1.554,0.88-2.121
					c0.391-0.391,1.023-0.391,1.414,0s0.391,1.023,0,1.414c-0.189,0.189-0.294,0.44-0.294,0.707s0.104,0.518,0.294,0.706
					c0.391,0.391,0.391,1.023,0.001,1.415C20.885,43.786,20.628,43.884,20.372,43.884z"/>
			</g>
			<g>
				<path d="M26.028,48.711c-0.768,0-1.536-0.292-2.121-0.876c-0.391-0.391-0.391-1.023-0.001-1.415
					c0.391-0.391,1.024-0.39,1.415-0.001c0.392,0.392,1.026,0.389,1.414,0.001c0.391-0.391,1.023-0.391,1.414,0s0.391,1.023,0,1.414
					C27.565,48.419,26.797,48.711,26.028,48.711z"/>
			</g>
			<g>
				<path d="M24.614,48.127c-0.256,0-0.512-0.098-0.707-0.293l-4.242-4.243c-0.391-0.391-0.391-1.023,0-1.414s1.023-0.391,1.414,0
					l4.242,4.243c0.391,0.391,0.391,1.023,0,1.414C25.126,48.029,24.87,48.127,24.614,48.127z"/>
			</g>
			<g>
				<path d="M37.343,49.541c-0.256,0-0.512-0.098-0.707-0.293c-0.391-0.391-0.391-1.023,0-1.414c1.949-1.949,1.949-5.121,0-7.071
					c-0.391-0.391-0.391-1.023,0-1.414s1.023-0.391,1.414,0c2.729,2.729,2.729,7.171,0,9.899
					C37.854,49.443,37.599,49.541,37.343,49.541z"/>
			</g>
			<g>
				<path d="M35.221,51.662c-0.256,0-0.512-0.098-0.707-0.293l-4.242-4.242c-0.391-0.391-0.391-1.023,0-1.414s1.023-0.391,1.414,0
					l4.242,4.242c0.391,0.391,0.391,1.023,0,1.414C35.732,51.564,35.477,51.662,35.221,51.662z"/>
			</g>
			<g>
				<path d="M27.442,31.156c-0.256,0-0.512-0.098-0.707-0.293c-1.949-1.949-5.121-1.949-7.07,0c-0.391,0.391-1.023,0.391-1.414,0
					s-0.391-1.023,0-1.414c2.729-2.729,7.17-2.729,9.898,0c0.391,0.391,0.391,1.023,0,1.414
					C27.954,31.059,27.698,31.156,27.442,31.156z"/>
			</g>
			<g>
				<path d="M21.079,37.521c-0.256,0-0.512-0.098-0.707-0.293l-4.243-4.243c-0.391-0.391-0.391-1.023,0-1.414s1.023-0.391,1.414,0
					l4.243,4.243c0.391,0.391,0.391,1.023,0,1.414C21.591,37.423,21.335,37.521,21.079,37.521z"/>
			</g>
			<g>
				<path d="M16.836,33.277c-0.256,0-0.512-0.098-0.707-0.293c-0.391-0.391-0.391-1.023,0-1.414l2.122-2.121
					c0.391-0.391,1.023-0.391,1.414,0s0.391,1.023,0,1.414l-2.122,2.121C17.348,33.18,17.092,33.277,16.836,33.277z"/>
			</g>
			<g>
				<path d="M35.221,51.662c-0.256,0-0.512-0.098-0.707-0.293c-0.391-0.391-0.391-1.023,0-1.414l2.122-2.121
					c0.391-0.391,1.023-0.391,1.414,0s0.391,1.023,0,1.414l-2.122,2.121C35.732,51.564,35.477,51.662,35.221,51.662z"/>
			</g>
			<g>
				<path d="M29.564,48.834c-0.256,0-0.512-0.098-0.707-0.293l-9.899-9.899c-0.391-0.391-0.391-1.023,0-1.414s1.023-0.391,1.414,0
					l9.899,9.899c0.391,0.391,0.391,1.023,0,1.414C30.076,48.736,29.82,48.834,29.564,48.834z"/>
			</g>
			<g>
				<path d="M27.442,48.127c-0.256,0-0.513-0.098-0.708-0.293c-0.39-0.392-0.39-1.024,0.001-1.415l0.708-0.707
					c0.391-0.389,1.024-0.39,1.415,0.001c0.39,0.392,0.39,1.024-0.001,1.415l-0.708,0.707
					C27.954,48.029,27.698,48.127,27.442,48.127z"/>
			</g>
			<g>
				<path d="M20.384,41.068c-0.256,0-0.512-0.098-0.707-0.293c-0.391-0.391-0.391-1.023,0-1.414l0.707-0.707
					c0.391-0.391,1.023-0.391,1.414,0s0.391,1.023,0,1.414l-0.707,0.707C20.896,40.971,20.64,41.068,20.384,41.068z"/>
			</g>
			<g>
				<path d="M9.895,59.694c-0.64,0-1.153-0.189-1.527-0.563c-2.549-2.549,5.029-12.1,5.657-12.728
					c0.944-0.944,2.199-1.464,3.535-1.464s2.592,0.52,3.536,1.464c1.948,1.949,1.948,5.122,0,7.071
					C19.808,54.763,13.003,59.694,9.895,59.694z M9.798,57.689c0.025,0.003,0.057,0.005,0.097,0.005
					c2.086,0,8.295-4.143,9.787-5.634c1.169-1.17,1.169-3.073,0-4.243c-1.133-1.133-3.11-1.133-4.243,0
					C13.498,49.76,9.508,56.258,9.798,57.689z"/>
			</g>
		</g>
		<g>
			<path d="M57.012,62.5H46.023c-2.757,0-5-2.243-5-5s2.243-5,5-5c2.415,0,4.435,1.721,4.899,4h6.089c1.654,0,3,1.346,3,3
				S58.666,62.5,57.012,62.5z M46.023,54.5c-1.654,0-3,1.346-3,3s1.346,3,3,3h10.988c0.552,0,1-0.448,1-1s-0.448-1-1-1h-6.988
				c-0.553,0-1-0.447-1-1C49.023,55.846,47.678,54.5,46.023,54.5z"/>
		</g>
		<g>
			<g>
				<path d="M54.5,49.5c-1.379,0-2.5-1.121-2.5-2.5s1.121-2.5,2.5-2.5c0.553,0,1,0.447,1,1s-0.447,1-1,1c-0.275,0-0.5,0.225-0.5,0.5
					s0.225,0.5,0.5,0.5c0.553,0,1,0.447,1,1S55.053,49.5,54.5,49.5z"/>
			</g>
			<g>
				<path d="M60,49.5c-0.553,0-1-0.447-1-1s0.447-1,1-1c1.103,0,2-0.897,2-2s-0.897-2-2-2s-2,0.897-2,2c0,0.553-0.447,1-1,1
					s-1-0.447-1-1c0-2.206,1.794-4,4-4s4,1.794,4,4S62.206,49.5,60,49.5z"/>
			</g>
			<g>
				<path d="M60,49.5h-5.5c-0.553,0-1-0.447-1-1s0.447-1,1-1H60c0.553,0,1,0.447,1,1S60.553,49.5,60,49.5z"/>
			</g>
			<g>
				<path d="M57,46.5h-2.5c-0.553,0-1-0.447-1-1s0.447-1,1-1H57c0.553,0,1,0.447,1,1S57.553,46.5,57,46.5z"/>
			</g>
		</g>
		<g>
			<g>
				<path d="M12,19.5c-3.309,0-6-2.691-6-6s2.691-6,6-6s6,2.691,6,6S15.309,19.5,12,19.5z M12,9.5c-2.206,0-4,1.794-4,4s1.794,4,4,4
					s4-1.794,4-4S14.206,9.5,12,9.5z"/>
			</g>
			<g>
				<path d="M12,6.5c-0.553,0-1-0.447-1-1v-3c0-0.553,0.447-1,1-1s1,0.447,1,1v3C13,6.053,12.553,6.5,12,6.5z"/>
			</g>
			<g>
				<path d="M12,25.5c-0.553,0-1-0.447-1-1v-3c0-0.553,0.447-1,1-1s1,0.447,1,1v3C13,25.053,12.553,25.5,12,25.5z"/>
			</g>
			<g>
				<path d="M6.343,8.844c-0.256,0-0.512-0.098-0.707-0.293L3.515,6.429c-0.391-0.391-0.391-1.023,0-1.414s1.023-0.391,1.414,0
					L7.05,7.137c0.391,0.391,0.391,1.023,0,1.414C6.854,8.746,6.599,8.844,6.343,8.844z"/>
			</g>
			<g>
				<path d="M19.778,22.278c-0.256,0-0.512-0.098-0.707-0.293l-2.121-2.122c-0.391-0.391-0.391-1.023,0-1.414s1.023-0.391,1.414,0
					l2.121,2.122c0.391,0.391,0.391,1.023,0,1.414C20.29,22.181,20.034,22.278,19.778,22.278z"/>
			</g>
			<g>
				<path d="M4.001,14.5H1c-0.553,0-1-0.447-1-1s0.447-1,1-1h3.001c0.553,0,1,0.447,1,1S4.554,14.5,4.001,14.5z"/>
			</g>
			<g>
				<path d="M23,14.5L23,14.5l-3-0.001c-0.553,0-1-0.448-1-1c0-0.553,0.448-1,1-1l0,0l3,0.001c0.553,0,1,0.448,1,1
					C24,14.053,23.552,14.5,23,14.5z"/>
			</g>
			<g>
				<path d="M4.222,22.278c-0.256,0-0.512-0.098-0.707-0.293c-0.391-0.391-0.391-1.023,0-1.414l2.122-2.122
					c0.391-0.391,1.023-0.391,1.414,0s0.391,1.023,0,1.414l-2.122,2.122C4.733,22.181,4.478,22.278,4.222,22.278z"/>
			</g>
			<g>
				<path d="M17.656,8.843c-0.256,0-0.512-0.098-0.707-0.293c-0.391-0.391-0.391-1.023,0-1.414l2.122-2.121
					c0.391-0.391,1.023-0.391,1.414,0s0.391,1.023,0,1.414L18.363,8.55C18.168,8.745,17.912,8.843,17.656,8.843z"/>
			</g>
		</g>
	</g>
</g>
<g id="_x34_2_transfer_x2C__network_x2C__bitcoin_x2C__coin_x2C__block_x2C__chain_x2C__cryptocurrency">
</g>
<g id="_x34_1_scales_x2C__comparison_x2C__bitcoin_x2C__coin_x2C__block_x2C__chain_x2C__cryptocurrency">
</g>
<g id="_x34_0_calculator_x2C__calculating_x2C__bitcoin_x2C__coin_x2C__block_x2C__chain_x2C__cryptocurrency">
</g>
<g id="_x33_9_start-up_x2C__plant_x2C__hand_x2C__bitcoin_x2C__coin_x2C__cryptocurrency">
</g>
<g id="_x33_8_idea_x2C__bulb_x2C__bitcoin_x2C__coin_x2C__block_x2C__chain_x2C__cryptocurrency">
</g>
<g id="_x33_7_users_x2C__user_x2C__co-founder_x2C__bitcoin_x2C__coin_x2C__cryptocurrency">
</g>
<g id="_x33_6_safe_x2C__protection_x2C__bitcoin_x2C__coin_x2C__block_x2C__chain_x2C__cryptocurrency">
</g>
<g id="_x33_5_flash_drive_x2C__key_x2C__block_x2C__chain_x2C__cryptocurrency">
</g>
<g id="_x33_4_cloud_x2C__mining_x2C__bitcoin_x2C__coin_x2C__block_x2C__chain_x2C__cryptocurrency">
</g>
<g id="_x33_3_start_up_x2C__plant_x2C__bitcoin_x2C__coin_x2C__block_x2C__chain_x2C__cryptocurrency">
</g>
<g id="_x33_2_planet_x2C__bitcoin_x2C__coin_x2C__block_x2C__chain_x2C__cryptocurrency">
</g>
<g id="_x33_1_payment_x2C__hand_x2C__bitcoin_x2C__coin_x2C__block_x2C__chain_x2C__cryptocurrency">
</g>
<g id="_x33_0_user_x2C__laptop_x2C__bitcoin_x2C__coin_x2C__block_x2C__chain_x2C__cryptocurrency">
</g>
<g id="_x32_9_thief_x2C__bag_x2C__bitcoin_x2C__coin_x2C__block_x2C__chain_x2C__cryptocurrency">
</g>
<g id="_x32_8_code_x2C__programming_x2C__program_x2C__bitcoin_x2C__coin_x2C__cryptocurrency">
</g>
<g id="_x32_7_bitcoin_x2C__coin_x2C__block_x2C__chain_x2C__cryptocurrency">
</g>
<g id="_x32_6_shield_x2C__protection_x2C__bitcoin_x2C__coin_x2C__block_x2C__chain_x2C__cryptocurrency">
</g>
<g id="_x32_5_bug_x2C__laptop_x2C__miner_x2C__program_x2C__block_x2C__chain_x2C__cryptocurrency">
</g>
<g id="_x32_4_computer_x2C__monitor_x2C__bitcoin_x2C__coin_x2C__block_x2C__chain_x2C__cryptocurrency">
</g>
<g id="_x32_3_network_x2C__idea_x2C__bitcoin_x2C__coin_x2C__block_x2C__chain_x2C__cryptocurrency">
</g>
<g id="_x32_2_block_x2C__chain_x2C__cryptocurrency_x2C__technology_x2C__future">
</g>
<g id="_x32_1_smart_contact_x2C__contact_x2C__block_x2C__chain_x2C__cryptocurrency">
</g>
<g id="_x32_0_lock_x2C__safe_x2C__protection_x2C__block_x2C__chain_x2C__cryptocurrency_x2C__program">
</g>
<g id="_x31_9_server_x2C__data_x2C__bitcoin_x2C__coin_x2C__block_x2C__chain_x2C__cryptocurrency">
</g>
<g id="_x31_8_key_x2C__bitcoin_x2C__coin_x2C__block_x2C__chain_x2C__cryptocurrency">
</g>
<g id="_x31_7_pool_x2C__network_x2C__bitcoin_x2C__coin_x2C__block_x2C__chain_x2C__cryptocurrency">
</g>
<g id="_x31_6_mining_x2C__shovel_x2C__mine_x2C__coin_x2C__block_x2C__chain_x2C__cryptocurrency">
</g>
<g id="_x31_5_purse_x2C__bitcoin_x2C__coin_x2C__block_x2C__chain_x2C__cryptocurrency">
</g>
<g id="_x31_4_safe_x2C__protection_x2C__block_x2C__chain_x2C__cryptocurrency_x2C__program">
</g>
<g id="_x31_3_mining_x2C__funnel_x2C__satoshi_x2C__bitcoin_x2C__coin_x2C__cryptocurrency">
</g>
<g id="_x31_2_chart_x2C__bitcoin_x2C__coin_x2C__block_x2C__chain_x2C__cryptocurrency">
</g>
<g id="_x31_1_computer_x2C__monitor_x2C__bitcoin_x2C__coin_x2C__block_x2C__chain_x2C__cryptocurrency">
</g>
<g id="_x31_0_mining_x2C__pickaxe_x2C__stone_x2C__mine_x2C___bitcoin_x2C__coin_x2C__cryptocurrency">
</g>
<g id="_x39__miner_x2C__mining_x2C__computer_x2C__pickaxe_x2C__program_x2C__cryptocurrency">
</g>
<g id="_x38__video_card_x2C__mining_x2C__bitcoin_x2C__coin_x2C__block_x2C__chain_x2C__cryptocurrency">
</g>
<g id="_x37__exchanger_x2C__site_x2C__bitcoin_x2C__coin_x2C__block_x2C__chain_x2C__cryptocurrency">
</g>
<g id="_x36__shop_x2C__product_x2C__bitcoin_x2C__coin_x2C__block_x2C__chain_x2C__cryptocurrency">
</g>
<g id="_x35__bitcoin_x2C__coin_x2C__exchange_x2C__block_x2C__chain_x2C__cryptocurrency_x2C__product">
</g>
<g id="_x34__bitcoin_x2C__coin_x2C__exchange_x2C__block_x2C__chain_x2C__cryptocurrency">
</g>
<g id="_x33__bitcoin_x2C__coin_x2C__exchange_x2C__block_x2C__chain_x2C__cryptocurrency">
</g>
<g id="_x32__brain_x2C__smart_x2C__coin_x2C__block_x2C__chain_x2C__cryptocurrency">
</g>
<g id="_x31__bitcoin_x2C__coin_x2C__block_x2C__chain_x2C__cryptocurrency">
</g>
</svg>
