<svg id="Layer_3" data-name="Layer 3" xmlns="http://www.w3.org/2000/svg" viewBox="0 0 128 128"><title>Artboard 102</title><path d="M62.659,96.988v11.019a1.341,1.341,0,1,0,2.681,0V96.988C78.935,93.64,87.283,87.249,90.13,77.964c7.27-23.716-23.822-57.477-25.149-58.9a1.38,1.38,0,0,0-1.962,0C61.692,20.487,30.6,54.248,37.87,77.964,40.717,87.249,49.065,93.64,62.659,96.988ZM40.434,77.181a25.542,25.542,0,0,1-.744-10.522l13.562,7.093a1.341,1.341,0,1,0,1.242-2.376L40.667,64.144A1.323,1.323,0,0,0,40.106,64a53.062,53.062,0,0,1,3.2-10.281l12.935,6.767a1.341,1.341,0,1,0,1.242-2.376l-13.1-6.852A97.569,97.569,0,0,1,49.9,41.052l9.068,4.658a1.341,1.341,0,1,0,1.225-2.385l-8.862-4.552A149.5,149.5,0,0,1,62.659,23.539V94.224C50.426,91.081,42.942,85.358,40.434,77.181Zm47.132,0c-2.507,8.178-9.992,13.9-22.226,17.046V23.538a149.369,149.369,0,0,1,11.3,15.176L67.8,43.33a1.34,1.34,0,1,0,1.241,2.376l9.027-4.716a97.571,97.571,0,0,1,5.547,10.267l-13.1,6.854a1.341,1.341,0,0,0,1.242,2.376L84.7,53.719A53.029,53.029,0,0,1,87.9,64a1.316,1.316,0,0,0-.563.143L73.506,71.375a1.341,1.341,0,0,0,1.242,2.376l13.563-7.094A25.555,25.555,0,0,1,87.567,77.178Z"/></svg>