<svg id="Layer_3" data-name="Layer 3" xmlns="http://www.w3.org/2000/svg" viewBox="0 0 128 128"><title>Artboard 107</title><path d="M73.011,67.674c11.969,0,24.105-17.37,24.617-18.109a1.341,1.341,0,0,0,.237-.762c0-1.287-.571-1.365-5.011-1.98a68.921,68.921,0,0,0-9.172-.662c-8.381,0-14.366,1.855-17.79,5.514-.2.211-.372.436-.551.658V46.2a12.307,12.307,0,0,0,7.748-7.54C76.976,27.51,65.6,10.32,65.114,9.593a1.341,1.341,0,0,0-2.228,0c-.486.727-11.863,17.917-7.974,29.068a12.3,12.3,0,0,0,7.747,7.54v6.133c-.18-.223-.355-.448-.552-.66-3.422-3.659-9.409-5.514-17.79-5.514a68.916,68.916,0,0,0-9.171.662c-4.561.631-4.6.725-4.908,1.464a1.338,1.338,0,0,0,.135,1.278c.511.74,12.646,18.107,24.616,18.109h0a11.82,11.82,0,0,0,7.668-2.83v14.3c-.18-.222-.355-.448-.552-.66-3.422-3.659-9.409-5.514-17.79-5.514a68.916,68.916,0,0,0-9.171.662c-4.561.631-4.6.725-4.908,1.464a1.338,1.338,0,0,0,.135,1.278c.511.74,12.646,18.107,24.616,18.109h0a11.82,11.82,0,0,0,7.668-2.83v26.006a1.341,1.341,0,0,0,2.681,0V91.655a11.826,11.826,0,0,0,7.67,2.83c11.969,0,24.105-17.37,24.617-18.109a1.341,1.341,0,0,0,.237-.762c0-1.287-.571-1.365-5.011-1.979a68.921,68.921,0,0,0-9.172-.662c-8.381,0-14.366,1.855-17.79,5.514-.2.211-.372.436-.551.658v-14.3A11.826,11.826,0,0,0,73.011,67.674ZM67.85,53.506c2.854-3.052,8.329-4.664,15.831-4.664a66.97,66.97,0,0,1,10.484.89c-3.311,4.291-12.612,15.261-21.154,15.261a9.364,9.364,0,0,1-6.668-2.838l17.022-6.727a1.34,1.34,0,1,0-.984-2.493L65.372,59.657A9.436,9.436,0,0,1,67.85,53.506ZM57.444,37.781c-2.781-7.968,3.825-20.314,6.556-24.9,2.731,4.587,9.335,16.935,6.555,24.9a9.327,9.327,0,0,1-5.214,5.531V25.722a1.341,1.341,0,1,0-2.681,0v17.59A9.328,9.328,0,0,1,57.444,37.781ZM54.989,64.992c-8.542,0-17.844-10.971-21.156-15.262a67.1,67.1,0,0,1,10.484-.889c7.5,0,12.977,1.613,15.833,4.664a9.447,9.447,0,0,1,2.479,6.167L45.58,52.935a1.34,1.34,0,0,0-.984,2.493l17.05,6.738a9.355,9.355,0,0,1-6.654,2.827Zm0,26.811h0c-8.542,0-17.844-10.971-21.156-15.262a67.1,67.1,0,0,1,10.484-.889c7.5,0,12.977,1.613,15.833,4.665a9.154,9.154,0,0,1,2.38,5.135l-16.949-6.7a1.34,1.34,0,0,0-.984,2.493L62.34,88.259A9.674,9.674,0,0,1,54.992,91.8ZM67.85,80.317c2.854-3.052,8.329-4.665,15.831-4.665a66.985,66.985,0,0,1,10.484.89C90.854,80.834,81.553,91.8,73.011,91.8a9.682,9.682,0,0,1-7.361-3.556l17.715-7a1.34,1.34,0,1,0-.984-2.493L65.473,85.436A9.142,9.142,0,0,1,67.85,80.317Z"/></svg>