<svg id="Layer_3" data-name="Layer 3" xmlns="http://www.w3.org/2000/svg" viewBox="0 0 128 128"><title>Artboard 109</title><path d="M87.2,44.781c-2.785,0-6.585,1.3-10.668,3.594.531-.818,1.09-1.668,1.61-2.459,6.565-9.969,8.5-13.6,7.054-15.453a4.053,4.053,0,0,0-3.405-1.4c-2.459,0-5.833,1.24-9.452,3.446C70.965,24.583,68.451,16.075,64,16.075s-6.968,8.516-8.343,16.446c-3.628-2.215-7.012-3.46-9.477-3.46a4.055,4.055,0,0,0-3.4,1.4c-1.451,1.854.494,5.488,7.078,15.465.518.784,1.074,1.627,1.6,2.441-4.079-2.288-7.874-3.588-10.657-3.588a4.89,4.89,0,0,0-4.113,1.67c-1.065,1.361-1.68,4.009,1.445,8.892a44.667,44.667,0,0,0,9.942,10.425,29.681,29.681,0,0,1,4.414,5.051A16.471,16.471,0,0,0,45.761,68.9,4.12,4.12,0,0,0,42.3,70.323c-2.722,3.478,2.468,10.474,9,15.589,1.75,1.367,9,5.977,11.358,7.435v17.237a1.341,1.341,0,1,0,2.681,0V93.4A135.154,135.154,0,0,0,76.7,85.911c6.533-5.114,11.723-12.11,9-15.588A4.12,4.12,0,0,0,82.238,68.9a16.477,16.477,0,0,0-6.724,1.917,29.665,29.665,0,0,1,4.413-5.049A44.667,44.667,0,0,0,89.87,55.343c3.124-4.883,2.51-7.53,1.445-8.892A4.891,4.891,0,0,0,87.2,44.781Zm.41,9.117a42,42,0,0,1-9.336,9.76c-2.28,1.783-7.39,8.369-7.636,10.592a1.341,1.341,0,0,0,2.073,1.265c3.66-2.426,7.31-3.933,9.526-3.933a1.754,1.754,0,0,1,1.349.394c.847,1.081-1.4,6.235-8.542,11.824-1.712,1.34-6.679,4.658-9.705,6.495V43.556a1.341,1.341,0,0,0-2.681,0V90.184c-2.96-1.866-8.269-5.259-9.705-6.383-7.141-5.59-9.388-10.744-8.541-11.825a1.754,1.754,0,0,1,1.349-.394c2.216,0,5.866,1.507,9.526,3.933a1.341,1.341,0,0,0,2.073-1.265C57.114,72.026,52,65.44,49.725,63.657a41.961,41.961,0,0,1-9.336-9.76c-2.032-3.176-2.154-5.075-1.591-5.794a2.615,2.615,0,0,1,2-.642c3.206,0,8.42,2.281,13.608,5.95a1.34,1.34,0,0,0,2.114-1.059c.027-1.03-.873-2.511-4.43-7.9C49.621,40.706,45.079,33.824,45,32a2.1,2.1,0,0,1,1.178-.263c2.263,0,5.985,1.58,9.715,4.125a1.341,1.341,0,0,0,2.081-.9c1.814-11.89,4.6-16.206,6.024-16.206s4.207,4.311,6.021,16.19a1.341,1.341,0,0,0,2.08.9c3.721-2.535,7.434-4.109,9.691-4.109a2.091,2.091,0,0,1,1.179.264c-.075,1.816-4.6,8.694-7.067,12.436-3.554,5.4-4.453,6.88-4.425,7.911a1.34,1.34,0,0,0,2.114,1.059c5.188-3.67,10.4-5.95,13.609-5.95a2.615,2.615,0,0,1,2,.642C89.766,48.822,89.643,50.721,87.611,53.9Z"/></svg>