<svg id="Layer_3" data-name="Layer 3" xmlns="http://www.w3.org/2000/svg" viewBox="0 0 128 128"><title>Artboard 106</title><path d="M26.833,100.472a1.339,1.339,0,0,0,1.337,1.274h.068a1.341,1.341,0,0,0,1.272-1.406c-.348-6.973.632-13.046,2.916-18.165A59.171,59.171,0,0,0,57.482,87.8,53.2,53.2,0,0,0,86.554,79.22c28.05-17.933,7.332-51.989,7.119-52.332a1.325,1.325,0,0,0-1.3-.623,1.341,1.341,0,0,0-1.115.907c-.026.077-3.387,8-32.319,17.358C29.7,53.989,30.22,77.242,30.407,80.165,27.648,85.855,26.442,92.643,26.833,100.472ZM59.768,47.08c22.24-7.194,30.022-13.64,32.7-16.9,3.827,7.123,15.164,32.382-7.357,46.78a50.546,50.546,0,0,1-27.627,8.16,57.272,57.272,0,0,1-23.841-5.345,27.7,27.7,0,0,1,4.457-5.93C49.2,62.618,67.394,63.2,67.582,63.2a1.315,1.315,0,0,0,1.392-1.286,1.341,1.341,0,0,0-1.285-1.393c-.8-.039-19.533-.647-31.483,11.42a30.544,30.544,0,0,0-2.939,3.463C34.2,68,38.8,53.864,59.768,47.08Z"/></svg>