<svg id="Layer_3" data-name="Layer 3" xmlns="http://www.w3.org/2000/svg" viewBox="0 0 128 128"><title>Artboard 104</title><path d="M62.66,97v11.019a1.341,1.341,0,1,0,2.681,0V96.99C84.128,92.366,92.777,82.126,91,66.51c-1.05-9.241-5.756-20.042-13.988-32.1C75.42,32.07,65.633,18.643,64,18.643a1.337,1.337,0,0,0-.981.428C61.691,20.5,30.6,54.257,37.87,77.973,40.716,87.258,49.064,93.649,62.66,97ZM87.57,77.175c-2.5,8.185-9.99,13.913-22.229,17.058V23.542C72.473,31.924,93.28,58.507,87.57,77.175ZM62.66,23.546V94.233C50.426,91.09,42.942,85.366,40.433,77.189,34.727,58.581,55.529,31.947,62.66,23.546Z"/></svg>