<svg id="Layer_3" data-name="Layer 3" xmlns="http://www.w3.org/2000/svg" viewBox="0 0 128 128"><title>Artboard 101</title><path d="M62.66,97v11.019a1.341,1.341,0,1,0,2.681,0V97c13.595-3.348,21.943-9.739,24.789-19.024C97.4,54.257,66.308,20.5,64.981,19.071c-.005-.006-.013-.007-.018-.013a1.325,1.325,0,0,0-1.926,0c-.005.005-.013.007-.018.013C61.692,20.5,30.6,54.257,37.87,77.973,40.717,87.258,49.065,93.649,62.66,97Zm24.907-19.81c-2.507,8.178-9.992,13.9-22.226,17.046V80.162L80,70.06a1.34,1.34,0,1,0-1.521-2.207L65.341,76.907V61.286L77.1,53.18a1.34,1.34,0,1,0-1.521-2.207L65.341,58.03V44.268L70.514,40.7A1.34,1.34,0,1,0,68.993,38.5l-3.652,2.516V23.547C72.474,31.948,93.273,58.571,87.567,77.187ZM62.66,23.548V41.013L59.007,38.5A1.34,1.34,0,1,0,57.486,40.7l5.174,3.565V58.03L52.417,50.973A1.34,1.34,0,0,0,50.9,53.18L62.66,61.286V76.907l-14.24-9.814A1.34,1.34,0,1,0,46.9,69.3L62.66,80.162V94.233C50.426,91.09,42.942,85.367,40.434,77.19,34.728,58.583,55.527,31.952,62.66,23.548Z"/></svg>