<svg id="Layer_3" data-name="Layer 3" xmlns="http://www.w3.org/2000/svg" viewBox="0 0 128 128"><title>Artboard 103</title><path d="M62.659,97v11.019a1.341,1.341,0,1,0,2.681,0V96.99C84.128,92.367,92.778,82.126,91,66.51c-1.05-9.241-5.756-20.042-13.988-32.1-.069-.1-.157-.228-.254-.367l-.006-.015c0-.005-.009-.007-.013-.012-1.856-2.651-8.515-11.733-11.5-14.537A1.338,1.338,0,0,0,64,18.643h0c-.015,0-.028.008-.042.009a1.573,1.573,0,0,0-.917.4c-.006.007-.016.009-.022.016C61.691,20.5,30.6,54.257,37.87,77.973,40.716,87.258,49.064,93.649,62.659,97ZM40.434,77.189A26.923,26.923,0,0,1,40,64.549L62.659,80.162V94.233C50.426,91.09,42.941,85.367,40.434,77.189Zm4.874-27.861L62.659,61.286V76.907L40.648,61.737c-.011-.008-.025-.008-.036-.016A63.171,63.171,0,0,1,45.308,49.328Zm7.366-12.593,9.985,6.746V58.03L46.538,46.919A115.074,115.074,0,0,1,52.674,36.734ZM87.4,61.715c-.016.01-.034.011-.05.021L65.341,76.907V61.286L82.71,49.315A62.941,62.941,0,0,1,87.4,61.715ZM62.659,40.245l-8.466-5.72c3.313-4.731,6.44-8.591,8.466-10.979Zm24.91,36.93c-2.5,8.185-9.989,13.914-22.229,17.058V80.162L88.007,64.541A27,27,0,0,1,87.57,77.175ZM81.48,46.907,65.341,58.03V43.475l9.952-6.821A114.7,114.7,0,0,1,81.48,46.907Zm-7.709-12.46-8.431,5.778V23.542C67.36,25.915,70.471,29.747,73.771,34.447Z"/></svg>