<svg id="Layer_3" data-name="Layer 3" xmlns="http://www.w3.org/2000/svg" viewBox="0 0 128 128"><title>Artboard 98</title><path d="M62.66,96.907v11.109a1.341,1.341,0,1,0,2.681,0V96.906c8.607-2.99,14.309-8.313,16.936-15.848,8.2-23.517-16.123-60.267-17.162-61.82-.018-.027-.051-.035-.07-.06a1.286,1.286,0,0,0-2.087,0c-.02.025-.053.034-.071.06-1.039,1.553-25.364,38.3-17.163,61.82C48.351,88.592,54.052,93.916,62.66,96.907Zm-14.4-16.729a30.875,30.875,0,0,1-1.493-11.155l15.9,10.956v14.05C55.37,91.268,50.507,86.632,48.256,80.178Zm1.578-27.6L62.66,61.42v15.3l-15.7-10.817A67.945,67.945,0,0,1,49.833,52.581Zm5.445-13.913,7.381,5.086v14.41L50.708,49.928A120.844,120.844,0,0,1,55.278,38.668ZM77.3,49.927,65.341,58.165V43.756l7.384-5.088A120.766,120.766,0,0,1,77.3,49.927Zm3.747,16.018a1.252,1.252,0,0,0-.161.069L65.341,76.724v-15.3L78.17,52.58A67.845,67.845,0,0,1,81.042,65.945ZM65.341,40.5V24.685c1.637,2.75,3.9,6.768,6.218,11.53Zm-2.681,0-6.216-4.283c2.315-4.762,4.579-8.779,6.216-11.53ZM79.745,80.176c-2.251,6.455-7.114,11.092-14.4,13.853V79.98l15.9-10.957A30.9,30.9,0,0,1,79.745,80.176Z"/></svg>