<svg id="Layer_3" data-name="Layer 3" xmlns="http://www.w3.org/2000/svg" viewBox="0 0 128 128"><title>Artboard 110</title><path d="M85.784,51.841a18.587,18.587,0,0,0-9.078,2.824c1.937-3.109,3.327-6.4,3.327-9.459a16.033,16.033,0,1,0-32.066,0,18.735,18.735,0,0,0,2.918,9.233,18.2,18.2,0,0,0-8.669-2.6,16.033,16.033,0,1,0,0,32.066c7.437,0,16.286-8.222,20.443-12.568V97.488a1.341,1.341,0,0,0,2.681,0V71.339C69.5,75.685,78.347,83.907,85.784,83.907a16.033,16.033,0,1,0,0-32.066ZM99.068,66.532H66.894c3.538-3.965,11.61-12.01,18.89-12.01A13.37,13.37,0,0,1,99.068,66.532ZM77.352,45.206c0,6.532-8.019,14.961-12.011,18.753V31.921A13.371,13.371,0,0,1,77.352,45.206Zm-26.7,0A13.371,13.371,0,0,1,62.659,31.921V64.1c-.25-.223-.517-.467-.8-.725-.895-.95-1.949-2.011-3.127-3.1C54.891,56.19,50.648,50.491,50.648,45.206Zm-8.432,9.316c5.076,0,10.538,3.916,14.582,7.631,1.124,1.2,2.212,2.254,3.162,3.131.421.448.8.866,1.145,1.248H28.932A13.37,13.37,0,0,1,42.216,54.522Zm0,26.7A13.371,13.371,0,0,1,28.932,69.213H60.971C57.182,73.2,48.756,81.226,42.216,81.226Zm43.568,0c-6.532,0-14.962-8.02-18.753-12.013H99.068A13.371,13.371,0,0,1,85.784,81.226Z"/></svg>