<svg id="Layer_3" data-name="Layer 3" xmlns="http://www.w3.org/2000/svg" viewBox="0 0 128 128"><title>Artboard 97</title><path d="M62.66,96.888V108a1.341,1.341,0,1,0,2.681,0V96.888c8.607-2.99,14.309-8.314,16.936-15.848,8.2-23.518-16.123-60.267-17.162-61.82a1.392,1.392,0,0,0-2.228,0c-1.039,1.553-25.364,38.3-17.163,61.82C48.351,88.573,54.052,93.9,62.66,96.888ZM79.745,80.157c-2.251,6.455-7.114,11.092-14.4,13.853V24.666C71.373,34.8,86.008,62.2,79.745,80.157ZM62.66,24.667V94.01c-7.289-2.761-12.152-7.4-14.4-13.851C41.994,62.212,56.628,34.8,62.66,24.667Z"/></svg>