<svg xmlns="http://www.w3.org/2000/svg" data-name="Layer 3" viewBox="0 0 128 128"><path d="M115.356 59.715a1.327 1.327 0 00-.569-.891c-.034-.023-.077-.029-.113-.049a1.338 1.338 0 00-.376-.152c-.008 0-.014-.008-.023-.009-.615-.113-15.219-2.735-28-.295a39.828 39.828 0 00-4.492 1.145C78.124 45.879 65.668 32.343 64.98 31.6c-.005-.006-.013-.007-.019-.013a1.326 1.326 0 00-1.925 0c-.005.005-.013.007-.019.013-.688.739-13.143 14.275-16.8 27.859a39.927 39.927 0 00-4.491-1.145c-12.78-2.439-27.385.182-28 .295-.008 0-.014.008-.023.009a1.338 1.338 0 00-.358.146 1.352 1.352 0 00-.131.057 1.325 1.325 0 00-.568.89c-.006.035.006.07 0 .105a1.34 1.34 0 00.02.423v.023c.331 1.282 8.3 31.443 24.654 35.986a15.409 15.409 0 004.157.571c5.12 0 10.419-2.574 15.811-7.63l5.987 3.824c.013.008.028.011.041.019a1.314 1.314 0 00.122.062c.031.014.062.025.095.037h.01c.036.013.07.031.106.041a1.339 1.339 0 00.328.046h.038a1.339 1.339 0 00.328-.046c.036-.01.07-.028.106-.041h.01c.032-.012.064-.022.095-.037a1.314 1.314 0 00.122-.062c.013-.008.028-.01.041-.019l5.988-3.824c5.392 5.056 10.691 7.631 15.811 7.63a15.466 15.466 0 004.158-.571c16.358-4.543 24.324-34.7 24.656-35.986v-.023a1.34 1.34 0 00.02-.423c0-.031.011-.066.006-.101zm-28.579 1.237c8.639-1.65 18.41-.846 23.5-.213L93.15 71.679l.265-7.555a1.34 1.34 0 00-1.293-1.386 1.322 1.322 0 00-1.387 1.292l-.33 9.4-7.984 5.1.349-9.924a1.3 1.3 0 00-.064-.388 23.073 23.073 0 00-.321-6.136 36.927 36.927 0 014.392-1.13zM71.6 85.442q-.4-1.278-.69-2.49a20.536 20.536 0 008.909-6.708l-.142 4.04zm-23.278-5.158l-.142-4.038a20.541 20.541 0 008.909 6.707q-.291 1.214-.69 2.49zm31.153-9.317c-1.606 5.241-6.362 8.955-14.135 11.061v-9.6l9.7-6.683a1.34 1.34 0 10-1.521-2.207l-8.176 5.634V59.7l7.744-5.336a1.34 1.34 0 10-1.521-2.207l-6.227 4.283V36.119c5.333 6.441 17.737 23.101 14.136 34.848zM62.658 56.44l-6.222-4.287a1.34 1.34 0 00-1.521 2.207l7.743 5.34v9.475l-8.918-6.15a1.34 1.34 0 00-1.521 2.207l10.44 7.2v9.6c-7.772-2.107-12.528-5.821-14.134-11.059-3.6-11.737 8.8-28.4 14.134-34.848zM59.613 83.9q1.451.489 3.045.894v4.645l-3.925-2.507q.513-1.553.88-3.032zm5.727.894q1.595-.4 3.047-.894.368 1.478.879 3.032l-3.926 2.507zM41.222 60.952a36.991 36.991 0 014.391 1.13 23.069 23.069 0 00-.321 6.142 1.3 1.3 0 00-.063.383l.349 9.924-7.984-5.1-.329-9.4a1.308 1.308 0 00-1.387-1.292 1.34 1.34 0 00-1.293 1.386l.265 7.555-17.129-10.941c5.09-.632 14.854-1.439 23.501.213zm-3.18 32.717C26.213 90.387 18.841 70.963 16.281 63L33.4 73.938l-6.964 2.938a1.34 1.34 0 101.042 2.469l8.664-3.655 7.985 5.1L34.153 85a1.341 1.341 0 00.522 2.576 1.355 1.355 0 00.52-.1l11.682-4.927 8.092 5.169c-5.958 5.408-11.647 7.417-16.927 5.951zm51.915 0c-5.28 1.467-10.97-.541-16.928-5.958l8.093-5.169L92.8 87.469a1.355 1.355 0 00.52.1A1.341 1.341 0 0093.846 85l-9.98-4.208 7.985-5.1 8.664 3.655a1.34 1.34 0 101.042-2.469l-6.963-2.938L111.719 63c-2.561 7.963-9.933 27.387-21.762 30.669z"/></svg>