<svg id="Layer_3" data-name="Layer 3" xmlns="http://www.w3.org/2000/svg" viewBox="0 0 128 128"><title>Artboard 112</title><path d="M87.741,102.66V83.04c8.1-2.083,13.1-6,14.833-11.662,4.447-14.505-14.387-34.958-15.193-35.822,0-.005-.012-.007-.017-.012a1.326,1.326,0,0,0-1.926,0c-.006.006-.014.007-.019.013-.8.864-19.637,21.317-15.19,35.822,1.736,5.664,6.729,9.58,14.831,11.662v19.383c-9.037-.718-18.1-.76-20.044-.76-1.772,0-9.465.036-17.658.586V79.93C58.871,77.062,65.949,71.609,68.375,63.7,74.575,43.47,48.127,14.751,47,13.538c0-.005-.012-.007-.017-.012a1.326,1.326,0,0,0-1.926,0c-.006.006-.014.007-.02.013C43.907,14.751,17.459,43.47,23.66,63.7c2.426,7.914,9.5,13.366,21.017,16.235v22.519c-10.027.813-19.926,2.465-19.926,5.828,0,6.427,36.144,6.612,40.265,6.612s40.265-.186,40.265-6.612C105.281,105.181,96.894,103.536,87.741,102.66ZM100.01,70.593c-1.4,4.554-5.544,7.785-12.269,9.652V72.815l8.553-5.893a1.34,1.34,0,1,0-1.521-2.207l-7.031,4.844V61.5l6.817-4.7A1.34,1.34,0,0,0,93.036,54.6l-5.3,3.649V51.306l2.868-1.976a1.34,1.34,0,1,0-1.521-2.207l-1.347.928V40.086C92.6,46.006,103.131,60.409,100.01,70.593Zm-27.218,0C69.672,60.422,80.2,46.011,85.06,40.087V48.05l-1.346-.927a1.34,1.34,0,0,0-1.521,2.207l2.867,1.976v6.942L79.765,54.6a1.34,1.34,0,0,0-1.521,2.207l6.815,4.7v8.055l-7.691-5.3a1.34,1.34,0,0,0-1.521,2.207l9.212,6.349v7.429C78.336,78.378,74.189,75.148,72.792,70.6ZM65.81,62.912c-2.087,6.806-8.3,11.592-18.452,14.253V65.6L59.7,57.092a1.34,1.34,0,0,0-1.521-2.207L47.358,62.343V49.59l9.889-6.816a1.34,1.34,0,1,0-1.521-2.207l-8.368,5.767V35.155l4.3-2.962a1.34,1.34,0,1,0-1.521-2.207L47.358,31.9V18.031C53.693,25.567,70.53,47.523,65.81,62.912Zm-39.586,0C21.5,47.523,38.341,25.567,44.677,18.031V31.9L41.9,29.986a1.34,1.34,0,1,0-1.521,2.207l4.3,2.962V46.333L36.31,40.566a1.34,1.34,0,0,0-1.521,2.207l9.888,6.816V62.343l-11.759-8.1A1.34,1.34,0,0,0,31.4,56.448L44.677,65.6V77.166C34.524,74.5,28.312,69.719,26.224,62.912Zm38.791,49.3c-21.145,0-34.951-2.237-37.364-3.931,1.515-1.064,7.528-2.341,17.025-3.145v2.177a1.341,1.341,0,0,0,2.681,0v-2.385c5.075-.357,11-.579,17.658-.579,7.734,0,14.472.3,20.044.764v2.309a1.341,1.341,0,1,0,2.681,0v-2.065c8.111.8,13.255,1.953,14.639,2.924C99.967,109.971,86.161,112.208,65.015,112.208Z"/></svg>