<svg xmlns="http://www.w3.org/2000/svg" data-name="Layer 3" viewBox="0 0 128 128"><path d="M62.659 96.888V108a1.341 1.341 0 1 0 2.681 0V96.888c8.607-2.99 14.308-8.314 16.936-15.848 8.2-23.518-16.123-60.267-17.163-61.82a1.392 1.392 0 0 0-2.228 0c-1.039 1.553-25.365 38.3-17.163 61.82 2.629 7.534 8.331 12.86 16.937 15.848zM64 22.459c4.726 7.6 22.539 38.214 15.745 57.7-2.251 6.455-7.114 11.092-14.4 13.853V76.761a8.9 8.9 0 0 0 5.434-2.031c2.028-1.755 3.056-4.469 3.056-8.068a1.341 1.341 0 1 0-2.681 0c0 2.773-.711 4.8-2.112 6.026a6.189 6.189 0 0 1-3.7 1.384V42.31a1.341 1.341 0 1 0-2.681 0v23.024a7.972 7.972 0 0 1-5.18-2.157c-2.032-2.052-2.773-5.483-2.2-10.2a1.341 1.341 0 0 0-2.663-.322c-.674 5.586.329 9.768 2.983 12.43a10.636 10.636 0 0 0 7.061 2.932V94.01c-7.289-2.761-12.152-7.4-14.4-13.85C41.462 60.686 59.275 30.059 64 22.459z"/></svg>