<svg id="Layer_3" data-name="Layer 3" xmlns="http://www.w3.org/2000/svg" viewBox="0 0 128 128"><title>Artboard 108</title><path d="M64,107.736a1.34,1.34,0,0,0,1.341-1.34V88.46C69.267,85.794,89.917,70.7,89.917,47.968c0-22.14-25.392-27.624-25.649-27.677-.044-.009-.089,0-.133,0a.353.353,0,0,0-.273,0,1.343,1.343,0,0,0-.135,0c-.255.052-25.645,5.536-25.645,27.677,0,22.73,20.647,37.826,24.575,40.491V106.4A1.34,1.34,0,0,0,64,107.736ZM87.236,47.968c0,19.028-16.092,32.821-21.9,37.177v-61.8C70.638,24.89,87.236,31.091,87.236,47.968Zm-46.472,0c0-17.093,16.556-23.139,21.894-24.644V85.145C56.853,80.788,40.764,67,40.764,47.968Z"/><path d="M46.5,39.176l10.1,6.061a1.341,1.341,0,0,0,1.38-2.3l-10.1-6.061a1.341,1.341,0,1,0-1.38,2.3Z"/><path d="M57.986,52.895l-10.1-6.061a1.341,1.341,0,0,0-1.38,2.3l10.1,6.061a1.341,1.341,0,0,0,1.38-2.3Z"/><path d="M57.894,62.851l-10.1-6.061a1.341,1.341,0,1,0-1.38,2.3l10.1,6.061a1.341,1.341,0,1,0,1.38-2.3Z"/><path d="M69.964,45.429a1.336,1.336,0,0,0,.689-.191l10.1-6.061a1.341,1.341,0,0,0-1.38-2.3l-10.1,6.061a1.341,1.341,0,0,0,.691,2.49Z"/><path d="M69.964,55.385a1.336,1.336,0,0,0,.689-.191l10.1-6.061a1.341,1.341,0,0,0-1.38-2.3l-10.1,6.061a1.341,1.341,0,0,0,.691,2.49Z"/><path d="M79.469,56.789l-10.1,6.061a1.341,1.341,0,1,0,1.38,2.3l10.1-6.061a1.341,1.341,0,0,0-1.38-2.3Z"/></svg>