<svg id="Layer_1" data-name="Layer 1" xmlns="http://www.w3.org/2000/svg" viewBox="0 0 128 128"><title>Artboard 16</title><path d="M30,71.5c0-.01.574-3.518-3.848-13.488-4.006-9.032-1.5-14.022-1.5-14.036a1.38,1.38,0,1,0-2.489-1.19c-.009.017-3.072,6.142,1.452,16.341,4.107,9.26,3.643,12.009,3.642,12.017A1.381,1.381,0,1,0,30,71.5Z"/><path d="M34.829,39a1.381,1.381,0,0,0-1.688-2.186c-.026.02-9.122,6.908-4.06,21.129,4.5,12.652,2.38,15.912,2.375,15.922A1.382,1.382,0,1,0,33.815,75.3c.008-.013,2.822-4.382-2.126-18.281C27.3,44.691,34.808,39.014,34.829,39Z"/><path d="M102.068,77.455H32.816A4.767,4.767,0,0,0,29.44,78.86l-.006.005a4.769,4.769,0,0,0-1.4,3.376v4.448a4.766,4.766,0,0,0,1.322,3.291c.026.031.054.061.083.091a4.774,4.774,0,0,0,3.382,1.405h69.252a4.77,4.77,0,0,0,3.288-1.32c.032-.027.063-.055.093-.085a4.773,4.773,0,0,0,1.405-3.382V82.241a4.8,4.8,0,0,0-4.787-4.787ZM32.978,88.706h-.163a2.01,2.01,0,0,1-1.423-.593l-.056-.053a2.014,2.014,0,0,1-.537-1.37V82.241a2.016,2.016,0,0,1,2.016-2.016h.163Zm50.4,0H35.749v-8.48H83.382Zm20.7-2.017a2.011,2.011,0,0,1-.593,1.423l-.055.058a2.006,2.006,0,0,1-1.368.535H86.152v-8.48h15.916a2.026,2.026,0,0,1,2.016,2.016Z"/></svg>