<svg id="Layer_1" data-name="Layer 1" xmlns="http://www.w3.org/2000/svg" viewBox="0 0 128 128"><title>Artboard 12</title><path d="M110.458,81.624l0,0a8.1,8.1,0,0,0-5.737-2.389H99.8v-4.76a6.349,6.349,0,0,0,1.066-.857,6.261,6.261,0,0,0,1.844-4.436V46.557a9.558,9.558,0,0,0,5.818-8.763v-.784A9.538,9.538,0,0,0,99.01,27.5h-22.6a12.605,12.605,0,0,0-24.816,0H28.99a9.537,9.537,0,0,0-9.513,9.513v.784a9.557,9.557,0,0,0,5.818,8.763V69.185a6.262,6.262,0,0,0,1.844,4.436,6.34,6.34,0,0,0,1.066.857v4.76H23.282a8.145,8.145,0,0,0-8.126,8.125V98.912a4.536,4.536,0,0,0,4.527,4.527h8.63a8.867,8.867,0,0,0,8.729,7.453H90.957a8.867,8.867,0,0,0,8.729-7.453h8.63a4.51,4.51,0,0,0,3.193-1.329l.006-.005a4.511,4.511,0,0,0,1.329-3.193V87.364A8.1,8.1,0,0,0,110.458,81.624ZM28.2,100.668H19.683a1.765,1.765,0,0,1-1.756-1.756V87.364a5.374,5.374,0,0,1,5.355-5.355H28.2ZM57.309,22.5a9.841,9.841,0,0,1,16.277,5H54.413A9.828,9.828,0,0,1,57.309,22.5ZM27.115,44.269l-.006,0-.007,0-.049-.014-.007,0a6.779,6.779,0,0,1-4.8-6.455v-.784a6.766,6.766,0,0,1,6.742-6.742H99.01a6.767,6.767,0,0,1,6.742,6.742v.784a6.768,6.768,0,0,1-6.553,6.74H28.8A6.7,6.7,0,0,1,27.115,44.269Zm35.5,63.851H37.042a6.089,6.089,0,0,1-6.067-6.068V75.437c.1.009.192.016.29.021H39.55v5.366a6.372,6.372,0,0,0,12.745,0V75.465h10.32ZM42.32,80.832V72.1a3.6,3.6,0,0,1,7.2,0v8.727a3.6,3.6,0,0,1-7.2,0Zm54.7-.208v21.429a6.089,6.089,0,0,1-6.068,6.068H65.385V75.465h10.32v5.366a6.372,6.372,0,0,0,12.745,0V75.465h8.285l.056,0H96.8c.075-.005.15-.01.224-.017Zm-18.549.208V72.1a3.6,3.6,0,0,1,7.2,0v8.727a3.6,3.6,0,0,1-7.2,0ZM98.9,71.663a3.5,3.5,0,0,1-2.334,1.029H88.45V72.1a6.372,6.372,0,0,0-12.745,0v.59H52.294V72.1a6.372,6.372,0,0,0-12.745,0v.59H31.431a3.475,3.475,0,0,1-1.252-.289l0,0,0,0-.01,0-.019-.009-.006,0,0,0a3.545,3.545,0,0,1-1.035-.719,3.5,3.5,0,0,1-1.032-2.477V47.262c.2.02.4.032.607.039H99.327q.306-.01.607-.039V69.185A3.5,3.5,0,0,1,98.9,71.663Zm11.17,27.249a1.755,1.755,0,0,1-1.756,1.756H99.8V82.009h4.922a5.335,5.335,0,0,1,3.781,1.568l0,0,0,0a5.339,5.339,0,0,1,1.574,3.78Z"/></svg>