<svg id="Layer_1" data-name="Layer 1" xmlns="http://www.w3.org/2000/svg" viewBox="0 0 128 128"><title>Artboard 8</title><path d="M99.22,28.6a7.331,7.331,0,0,0-11.435,2.963l-.144,0a5.846,5.846,0,0,0-4.134,1.712l-.006.006,0,0,0,0a5.849,5.849,0,0,0-.006,8.274l.006.006,0,0,0,0a5.846,5.846,0,0,0,4.14,1.717h13.9a5.847,5.847,0,0,0,4.134-1.711l.005-.006,0,0,0,0a5.849,5.849,0,0,0,.005-8.274l-.005-.006,0,0,0,0a5.844,5.844,0,0,0-4.14-1.717l-.144,0A7.353,7.353,0,0,0,99.22,28.6Zm4.509,6.632.006.005a3.107,3.107,0,0,1,0,4.373l-.006.005a3.079,3.079,0,0,1-2.187.9h-13.9a3.079,3.079,0,0,1-2.187-.9l-.006-.005a3.107,3.107,0,0,1,0-4.373l.006-.005a3.079,3.079,0,0,1,2.187-.9,3.23,3.23,0,0,1,.4.025l.085.007c.1.015.2.036.292.061a1.381,1.381,0,0,0,1.682-.99l.017-.071a4.569,4.569,0,0,1,8.95,0,1.381,1.381,0,0,0,1.628,1.077l.071-.016a3.052,3.052,0,0,1,.376-.073v0a3.234,3.234,0,0,1,.4-.025A3.079,3.079,0,0,1,103.729,35.232Z"/><path d="M18.327,101.05h91.346a1.385,1.385,0,0,0,0-2.771h-7.891L89.638,76.3,79.318,57.624l-1.844-3.337,1.9-3.441a1.383,1.383,0,0,0-2.424-1.331l-1.057,1.913-1.057-1.913a1.383,1.383,0,0,0-2.424,1.331L74.3,54.268l-5.033,9.109L65.818,59.2H70.5v0a1.383,1.383,0,0,0,1.066-2.265L62.832,46.377,54.1,35.818a1.412,1.412,0,0,0-.184-.184,1.384,1.384,0,0,0-1.948.184L43.228,46.377,34.535,56.884A1.385,1.385,0,0,0,35.558,59.2h4.684L31.773,69.439A1.385,1.385,0,0,0,32.8,71.758h6.064L26.009,87.292a1.385,1.385,0,0,0,1.023,2.319H46.275v7.86a3.555,3.555,0,0,0,.093.809H18.327a1.385,1.385,0,0,0,0,2.771ZM49.986,98.28h-.142a.8.8,0,0,1-.56-.233l0,0,0,0a.807.807,0,0,1-.239-.57v-7.86h5.73Zm32.083-3.488L78.242,82.035l6.408,3.894ZM77.36,59.8l9.854,17.834L98.622,98.28H83.928l3.668-12.6h0a1.38,1.38,0,0,0-.611-1.563l-9.717-5.9Zm-1.476,24L80.227,98.28H71.541ZM68.2,71.039l2.488-4.5h0c.017-.028.033-.057.048-.087l3.869-7-.1,19.323L68.652,98.28H53.146L58.29,88.97a1.369,1.369,0,0,0,.085-.155l6.179-11.184,2.527-4.573c.015-.025.03-.052.043-.078l1.062-1.922ZM29.974,86.84,41.1,73.4l1.771-2.141A1.384,1.384,0,0,0,41.8,68.99v0H35.738l8.241-9.961.27-.327a1.383,1.383,0,0,0-1.066-2.265v0H38.5l6.86-8.292,7.67-9.271,7.67,9.271,6.86,8.292H62.877a1.385,1.385,0,0,0-1.023,2.319l.227.275,5.752,6.953-1.662,3.008H64.258a1.385,1.385,0,0,0-1.023,2.319l.992,1.2-2.1,3.794L56.307,86.84H29.974Z"/><path d="M25.213,44.549h9.1a4.311,4.311,0,0,0,3.139-7.272c-.027-.033-.056-.065-.087-.1a4.3,4.3,0,0,0-2.833-1.259,5.275,5.275,0,0,0-9.536,0,4.3,4.3,0,0,0-2.832,1.259l0,0,0,0a4.313,4.313,0,0,0,3.051,7.362Zm-1.1-5.411,0,0a1.541,1.541,0,0,1,1.093-.452,1.957,1.957,0,0,1,.2.007,1.585,1.585,0,0,1,.2.037,1.379,1.379,0,0,0,1.677-1l.015-.065h0a2.513,2.513,0,0,1,4.923,0,1.381,1.381,0,0,0,1.629,1.077c.036-.007.073-.017.108-.027s.1-.02.152-.027a1.954,1.954,0,0,1,.2-.007,1.541,1.541,0,0,1,1.093.452l.053.05a1.548,1.548,0,0,1-1.145,2.587h-9.1a1.549,1.549,0,0,1-1.1-2.64Z"/></svg>