<svg id="Layer_1" data-name="Layer 1" xmlns="http://www.w3.org/2000/svg" viewBox="0 0 128 128"><title>Artboard 14</title><path d="M98.343,97.765,80.8,88.252,99.515,78.1h0l.053-.028a5.63,5.63,0,0,0,2.8-4.381,9.419,9.419,0,0,0-1.143-5.621l0-.007a9.414,9.414,0,0,0-4.092-4.029,5.593,5.593,0,0,0-5.056-.112c-.037.016-.075.034-.111.054h0L64,79.143,36.034,63.979l-.061-.031a5.622,5.622,0,0,0-5.108.089,9.415,9.415,0,0,0-4.091,4.029v0a9.413,9.413,0,0,0-1.147,5.626,5.623,5.623,0,0,0,2.726,4.339c.025.015.051.029.077.042l0,0,0,0L47.2,88.253,29.657,97.765A7.872,7.872,0,0,0,26.5,108.4h0l.116.214.037.074a7.872,7.872,0,0,0,10.636,3.157L64,97.362l26.708,14.483a7.872,7.872,0,0,0,10.636-3.157l.037-.074.116-.214h0a7.872,7.872,0,0,0-3.157-10.636ZM91.933,68.7a2.916,2.916,0,0,1,1.355-2.286h0a2.919,2.919,0,0,1,2.656.112,6.635,6.635,0,0,1,2.847,2.86v0a6.645,6.645,0,0,1,.844,3.949,2.933,2.933,0,0,1-1.33,2.272l-.054.029a2.934,2.934,0,0,1-2.628-.127,6.638,6.638,0,0,1-2.847-2.861h0A6.643,6.643,0,0,1,91.933,68.7Zm-58.1,5.787-.04.038-.006.006-.041.037-.005.005-.041.037-.005,0-.042.037-.005,0-.042.037,0,0-.042.036,0,0-.043.036,0,0-.043.036,0,0-.044.035-.048.038,0,0-.044.034,0,0-.045.034,0,0L33.222,75l0,0-.045.033,0,0-.046.033,0,0-.046.032,0,0-.046.032,0,0-.047.031,0,0-.047.03,0,0-.048.03h0l-.048.029h0l-.048.029h0l-.048.028h0l-.049.028h0l-.049.027h0l-.049.027h0l-.05.026h0l-.05.026h0l-.05.025h0l-.05.025-.043.02h0l-.042.02h0l-.042.019h0l-.041.018h0l-.041.017h0l-.04.016,0,0-.04.015,0,0-.039.015,0,0-.038.014-.005,0-.038.014-.006,0L31.9,75.7l-.043.015-.007,0-.036.011-.008,0-.035.011-.008,0-.035.01-.009,0-.034.01-.01,0-.033.009-.01,0-.032.008-.011,0-.032.008-.011,0-.031.007-.012,0-.031.006-.012,0-.03.006-.013,0-.029.006-.013,0-.029.005-.014,0c-.1.017-.2.029-.3.036l-.024,0h-.018a2.368,2.368,0,0,1-1.25-.252l-.025-.014h0l-.012-.006a2.926,2.926,0,0,1-1.343-2.28,6.64,6.64,0,0,1,.843-3.947l0,0a6.637,6.637,0,0,1,2.847-2.86,2.918,2.918,0,0,1,2.656-.112h0l.035.02.035.02.034.021.034.021h0l.033.021h0l.033.022h0l.032.023h0l.032.024.032.024.031.025h0l.03.025h0l.03.026h0l.03.027h0l.029.027h0l.028.028h0l.029.028h0l.028.028h0l.028.029h0l.027.03h0l.053.062h0l.025.031h0l.025.032h0l.025.032h0l.024.033h0l.024.033h0l.024.034h0l.023.034h0l.022.035h0l.022.035h0l.022.036h0l.021.036h0l.021.036h0l.02.037h0l.02.037h0l.02.038h0l.019.038h0l.018.039h0l.018.039h0l.018.04h0l.017.04h0l.017.04h0l.016.041h0l.016.041h0l.015.042h0l.015.042h0l.014.043h0l.014.043h0l.013.043h0l.013.043h0l.013.044h0l.012.045.012.045h0l.011.045h0l.011.046.01.046.01.046.009.047.009.046h0l.009.047.008.048.008.048.007.048h0l.006.048.007.055.006.055h0l.006.055h0l.005.055h0l0,.056h0l0,.056h0l0,.056h0l0,.057h0l0,.057h0l0,.057h0v.057h0v.057h0v.057h0V69.5h0v.058h0l0,.058h0l0,.058h0l0,.058h0l0,.058h0l0,.059h0l-.005.059h0l-.006.059h0l-.006.059v0l-.007.059v0l-.008.059v0l-.008.059v0l-.009.06v0l-.01.06v0l-.01.06v0l-.011.06v0l-.011.06v0l-.012.06h0l-.012.06v0l-.013.06v0l-.014.06v0l-.014.06v0l-.015.061v0l-.016.06v0l-.016.061v0l-.017.061v0l-.017.06v0l-.018.06v0l-.018.06v0l-.019.061v0l-.02.061v0l-.021.06v0l-.021.061v0l-.021.061v0l-.022.061v0l-.023.06v0l-.023.061v0l-.024.061v0l-.024.06v0l-.025.06v0l-.026.06v0l-.026.06,0,0-.027.061v0l-.028.06v0l-.028.06v0l-.029.06v0l-.029.06,0,0-.061.122,0,0-.031.06,0,0h0v0l0,0,0,0,0,0-.032.055v0h0l0,0v0l0,0,0,0v0l0,0-.026.046-.009.016-.026.046-.009.016-.026.046-.009.016-.027.046-.009.015-.027.046-.009.015-.028.046L35,73.035l-.028.046-.009.014-.029.045-.009.014L34.9,73.2l-.008.013-.03.045-.008.013-.03.045-.009.013-.031.045-.008.012-.031.044-.008.012-.031.044-.008.011-.032.044-.008.011-.032.044-.008.011-.033.044-.008.01-.033.044-.008.01-.034.043-.007.01-.034.043-.008.01-.035.043-.007.009-.035.043-.007.009-.035.042-.007.009-.036.041-.007.009-.037.041-.007.008-.037.041-.006.007-.037.041-.006.008-.038.04-.006.007-.038.04-.006.007-.038.04-.006.007-.039.04-.006.006-.039.039-.006.006-.04.039-.006.006-.04.039Zm.011,3.373.017-.009.053-.029.138-.077.029-.016.04-.024.032-.019.036-.022.036-.022.033-.02h0l.067-.041.044-.027.024-.016.048-.03.021-.013.051-.033.017-.011.055-.037.013-.009.058-.04.009-.006.062-.043,0,0,.065-.047h0l.067-.048,0,0,.064-.048.006,0,.06-.045.01-.008.056-.043.014-.01.052-.041L35.147,77l.048-.039.021-.017.044-.036.024-.02.04-.033.028-.024.036-.031.031-.027.033-.029.035-.03.029-.026.038-.034.067-.06.022-.02.044-.042.018-.017.048-.045.014-.013.051-.049.011-.01.054-.053.007-.007.057-.058,0,0,.061-.062h0l.06-.062,0,0,.056-.06.006-.007.053-.056.01-.011.049-.054.013-.015.123-.139.038-.044.023-.027.034-.04.026-.031.119-.145.024-.03.035-.043.058-.074.018-.022.04-.053c.051-.067.1-.135.151-.2l.019-.026,0-.007.051-.072,0,0,.052-.074v0l.1-.149.007-.01.008-.012.045-.069.04-.062.012-.019.037-.058.015-.024.034-.054.017-.029.03-.05.02-.034,0,0,.047-.08.025-.042.025-.044.021-.037.027-.048.018-.033L37.643,74l0,0,0,0,0-.007,0,0,0-.007,0,0c.014-.026.028-.053.04-.08l0,0h0l.046-.089h0l.042-.082,0,0,.04-.078,0-.009.043-.087.034-.07.008-.017.031-.067.01-.02.029-.063L38,73.274l.026-.059.013-.028.024-.055.014-.032.022-.051.015-.037.036-.087h0l.018-.044.018-.044.034-.088.014-.036.02-.053.012-.032.021-.056.011-.028.021-.06.008-.024.022-.065.007-.02.023-.068.005-.016.024-.072,0-.012.024-.076,0-.008.025-.08,0,0,.025-.084h0l.024-.085v0l.022-.081,0-.007.02-.077,0-.012.019-.073,0-.016.017-.069,0-.02.015-.065.005-.023.014-.061.006-.028.013-.057.006-.032.011-.053.007-.035.01-.049.008-.039.009-.045.008-.044.008-.041.008-.047.006-.037.014-.084.009-.055,0-.029v-.006l.011-.077.009-.063,0-.021.008-.066,0-.017.008-.07v-.013l.008-.074v-.009l.008-.077v-.005l.014-.165v0l.005-.08v-.006l0-.076c0-.082.008-.163.011-.244v-.084c0-.081,0-.162,0-.242v-.08l0-.08v-.044l0-.036,0-.079,0-.051,0-.028c0-.079-.01-.158-.017-.236L61.095,80.719l-5.408,2.933-5.581,3.026Zm2.127,31.55a5.087,5.087,0,0,1-6.881-2.042l-.042-.072-.114-.21,0,0h0a5.085,5.085,0,0,1,2.041-6.88L89.161,68.651a9.521,9.521,0,0,0,1.179,5.317v0a9.541,9.541,0,0,0,3.745,3.853l.05.027.019.01Zm63.1-2.328,0,0-.114.21-.042.072a5.087,5.087,0,0,1-6.881,2.042L66.906,95.787l10.989-5.959L97.023,100.2a5.086,5.086,0,0,1,2.041,6.88Z"/><path d="M55.06,32.072c-5.875,5.3-12.381,11.17-12.381,20.8,0,7.272,5.066,12.137,11.732,14.456a29.872,29.872,0,0,0,17.891.345c7.024-2.128,12.6-7.07,12.984-15.01.43-8.962-3.836-19.1-4.1-19.733a1.382,1.382,0,0,0-2.632.818c.457,1.979-1.409,3.811-3.049,5,.048-10.422-9.135-21.766-10.109-22.941a1.385,1.385,0,0,0-2.443,1.253C65.084,23.03,60.356,27.295,55.06,32.072ZM66.2,21.531C69.387,26.257,73.8,34.3,72.523,41.1a1.382,1.382,0,0,0,2.05,1.45A16.63,16.63,0,0,0,80.1,38c1.205,3.689,2.671,9.357,2.423,14.54-.314,6.565-5.054,10.69-11.026,12.5a27.1,27.1,0,0,1-16.181-.313c-5.608-1.951-9.871-5.95-9.871-11.848,0-8.409,6.023-13.842,11.461-18.747C61.4,30.08,65.527,26.354,66.2,21.531Z"/></svg>