<svg xmlns="http://www.w3.org/2000/svg" data-name="Layer 1" viewBox="0 0 128 128"><path d="M64 106.027a39.012 39.012 0 0 0 6.388-77.5v-.167A6.4 6.4 0 0 0 64 21.973a6.4 6.4 0 0 0-6.387 6.387v.172A39.011 39.011 0 0 0 64 106.027zm-2.553-80.22A3.606 3.606 0 0 1 64 24.744a3.632 3.632 0 0 1 3.612 3.433q-1.375-.126-2.776-.156H63.16q-1.4.03-2.776.156a3.611 3.611 0 0 1 1.063-2.37zM38.377 41.4a36.124 36.124 0 0 1 25.154-10.615h.937a36.512 36.512 0 0 1 4.287.307h.014l.1.013h.014A36.242 36.242 0 1 1 38.377 41.4z"/><path d="M57.6 69.1a6.73 6.73 0 0 0 4.451 4.363L77.958 82.6a1.381 1.381 0 0 0 1.929-1.872L70.4 64.941a6.689 6.689 0 0 0-1.6-2.64 1.33 1.33 0 0 0-.072-.078l-.008-.008a6.7 6.7 0 0 0-2.763-1.638l-15.915-9.142a1.381 1.381 0 0 0-1.929 1.872zM68 72.432l.022-.017h.006l.058-.043.056-.043.009-.007.019-.015.029-.022.017-.014.04-.032.025-.02.028-.023.028-.024.024-.02.028-.024.012-.01.016-.014.028-.024.02-.018.008-.007.027-.025.027-.024.027-.025.027-.026.007-.006.02-.019.027-.025.014-.013.013-.012.027-.026.021-.021h.005c.025-.021.05-.044.074-.068l.008-.008.026-.026.026-.027.009-.009.017-.018.025-.027.017-.018.008-.009.025-.027.025-.027.025-.028.025-.028.008-.009.017-.019.025-.028.015-.018.009-.01.024-.029.023-.027.024-.028.03-.037.017-.02.023-.028.014-.018.009-.011.023-.029.021-.027.022-.029.022-.029.006-.008.038-.051.013-.017.016-.041.036-.05v-.006l.021-.03.021-.029.005-.007.016-.023.02-.029.011-.017.009-.013.036-.053.02-.03.02-.03v-.006l.016-.024.019-.03.01-.017.009-.014.057-.092.018-.031v-.005l.015-.025.018-.031.009-.015.009-.015.018-.031.015-.026v-.006l.017-.031.017-.031.015-.027.1-.19a6.56 6.56 0 0 0 .091-.189l4.666 7.765-7.83-4.532a6.954 6.954 0 0 0 .744-.421l.012-.008.048-.031.021-.014.01-.006.03-.02.028-.02.03-.021.03-.021h.007l.023-.016.044-.032.014-.011zm-6.9-8.115.023-.025.012-.012.012-.012.024-.025.024-.024.012-.012.012-.012.024-.024.024-.023.013-.012.012-.011.025-.023.025-.023.013-.011.012-.011.025-.022.025-.021.011-.014.013-.01.025-.021.026-.021.014-.011.012-.01a3.93 3.93 0 0 1 1.438-.732 4.019 4.019 0 0 1 1.534-.111h.19a3.951 3.951 0 0 1 2.082 1.067q.036.036.075.069a3.959 3.959 0 0 1 .948 1.587l.016.06a3.992 3.992 0 0 1 .041 2.087v.005a3.986 3.986 0 0 1-.272.752l-.014.029v.006l-.056.109-.011.021v.008l-.016.029-.016.028-.011.02v.008l-.016.029v.006l-.013.022-.012.02-.005.008-.017.028v.006l-.014.022-.012.02-.006.008-.018.027v.006l-.015.022-.013.019-.006.008-.019.027v.006l-.016.022-.013.018-.006.009-.02.027-.016.022-.014.018-.006.009-.02.026-.017.022-.021.026-.021.026-.018.021-.014.017-.007.009-.022.025-.018.021-.015.017-.007.008-.023.025-.019.021-.015.017-.008.009-.023.025-.02.021-.015.016q-.036.036-.069.074l-.009.009-.024.024-.022.021-.014.013-.011.01-.025.023-.025.022-.012.011-.064.063-.024.021-.026.022-.01.009-.015.012-.023.019-.026.021-.026.021-.021.017h-.005l-.026.02-.007.006-.02.015-.027.02-.027.02a3.932 3.932 0 0 1-1.28.61 4.025 4.025 0 0 1-1.6.1h-.033l-.032-.005h-.061l-.033-.006-.032-.006h-.015a3.977 3.977 0 0 1-3.03-2.716l-.012-.06a3.99 3.99 0 0 1-.041-2.086 3.918 3.918 0 0 1 .258-.723l.013-.027.042-.085.015-.029.007-.013.009-.016.015-.027.016-.029.007-.013.009-.016.015-.027.016-.028.006-.021.01-.015.016-.027.017-.028.008-.013.01-.015.017-.026.018-.027.009-.013.01-.015.018-.026.019-.027.009-.013.01-.014.019-.026.02-.027.009-.013.01-.014.02-.026.02-.026.01-.013.011-.014.021-.026.021-.026.01-.013.011-.013.021-.025.022-.025.017-.023.011-.013.022-.025.023-.026.011-.012.012-.013zm-.024-3.36a6.931 6.931 0 0 0-.953.563l-.014.01a2.43 2.43 0 0 0-.133.1l-.026.019-.029.022-.013.01-.016.013-.029.022-.022.017-.007.005-.029.023-.028.023-.026.021-.028.023-.012.01-.017.014-.028.024-.021.017-.007.006-.028.024-.028.024-.026.023-.036.03-.01.009-.017.016-.027.025-.019.017-.008.007-.027.025-.027.025-.026.025-.027.026-.01.009-.022.016-.027.026-.018.018-.008.009-.026.026-.026.027-.026.027-.026.027-.009.009-.017.018-.026.027-.017.018-.009.009-.025.027-.025.027-.025.028-.025.028-.007.008-.017.02-.025.028-.015.017-.009.011-.024.028-.023.027-.024.028-.023.029-.007.008-.017.021-.023.028-.014.017-.009.011-.023.028-.021.027-.022.029-.066.087-.013.017-.009.012-.022.03-.019.026-.021.029-.021.029v.007l-.016.023-.021.03-.011.016-.009.013-.021.03-.018.026-.02.03-.02.03v.006l-.016.025-.019.03-.01.016-.009.014-.019.031-.016.026-.018.031-.019.031v.006l-.015.025-.018.031-.009.015-.009.016-.018.031-.014.025v.006l-.018.031-.017.031-.014.027-.017.032-.007.014-.009.017-.065.127-.014.028-.016.032-.007.014-.009.018-.045.1-4.666-7.765z"/><path d="M64 100.878a33.859 33.859 0 1 0-23.942-9.917A33.754 33.754 0 0 0 64 100.878zM37.467 65.634h-4.524a30.971 30.971 0 0 1 8.117-19.6l3.2 3.2a1.385 1.385 0 1 0 1.959-1.959l-3.2-3.2a30.968 30.968 0 0 1 19.6-8.116v4.524a1.385 1.385 0 0 0 2.771 0v-4.521a30.967 30.967 0 0 1 19.6 8.116l-3.2 3.2a1.385 1.385 0 0 0 1.959 1.959l3.2-3.2a30.967 30.967 0 0 1 8.116 19.6h-4.532a1.385 1.385 0 0 0 0 2.771h4.524A30.966 30.966 0 0 1 86.941 88l-3.2-3.2a1.385 1.385 0 0 0-1.959 1.959l3.2 3.2a30.969 30.969 0 0 1-19.6 8.117v-4.524a1.385 1.385 0 0 0-2.771 0v4.524a30.968 30.968 0 0 1-19.6-8.117l3.2-3.2a1.385 1.385 0 0 0-1.952-1.959l-3.2 3.2a30.968 30.968 0 0 1-8.116-19.6h4.524a1.385 1.385 0 1 0 0-2.771z"/></svg>