<svg id="Layer_1" data-name="Layer 1" xmlns="http://www.w3.org/2000/svg" viewBox="0 0 128 128"><title>Artboard 15</title><path d="M64,51.874a12.127,12.127,0,1,0,8.575,3.552A12.086,12.086,0,0,0,64,51.874Zm6.616,18.742A9.357,9.357,0,1,1,73.356,64,9.329,9.329,0,0,1,70.616,70.616Z"/><path d="M108.834,68.316a28.108,28.108,0,0,1-5.032.677,11.846,11.846,0,0,0,2.132-1.8c1.9-2.023,3.346-4.907,4.453-9.038h0a1.379,1.379,0,0,0-1.96-1.584,27.8,27.8,0,0,1-4.683,1.949,11.887,11.887,0,0,0,1.592-2.292c1.308-2.441,1.958-5.6,1.958-9.877h0a1.379,1.379,0,0,0-2.3-1.023,27.911,27.911,0,0,1-4.017,3.1,11.881,11.881,0,0,0,.946-2.626c.632-2.7.443-5.918-.665-10.049h0a1.382,1.382,0,0,0-2.5-.39,27.95,27.95,0,0,1-3.075,4.027,11.936,11.936,0,0,0,.233-2.779c-.087-2.773-1.1-5.835-3.243-9.539h0a1.381,1.381,0,0,0-2.51.27,28,28,0,0,1-1.927,4.685,11.846,11.846,0,0,0-.493-2.743c-.8-2.655-2.577-5.349-5.6-8.374l0,0a1.381,1.381,0,0,0-2.356.912,27.8,27.8,0,0,1-.652,5.021,11.91,11.91,0,0,0-1.186-2.517c-1.459-2.352-3.858-4.489-7.537-6.618a1.383,1.383,0,0,0-2.084,1.461,28.084,28.084,0,0,1,.677,5.032,11.87,11.87,0,0,0-1.8-2.132c-2.024-1.9-4.907-3.346-9.038-4.453v0a1.379,1.379,0,0,0-1.585,1.96,27.867,27.867,0,0,1,1.949,4.684,11.909,11.909,0,0,0-2.291-1.592c-2.441-1.308-5.6-1.958-9.876-1.958h0a1.379,1.379,0,0,0-1.023,2.3,27.9,27.9,0,0,1,3.1,4.018,11.864,11.864,0,0,0-2.627-.947c-2.7-.633-5.916-.443-10.049.664h0a1.382,1.382,0,0,0-.39,2.5,28,28,0,0,1,4.027,3.075,11.922,11.922,0,0,0-2.779-.233c-2.755.087-5.8,1.094-9.475,3.209a1.381,1.381,0,0,0,.207,2.544,27.993,27.993,0,0,1,4.686,1.928,11.85,11.85,0,0,0-2.675.473l-.07.019c-2.655.8-5.348,2.576-8.373,5.6l0,0a1.381,1.381,0,0,0,.912,2.356,27.86,27.86,0,0,1,5.021.652,11.912,11.912,0,0,0-2.517,1.186c-2.338,1.45-4.466,3.835-6.589,7.492a1.383,1.383,0,0,0,1.432,2.128,28.077,28.077,0,0,1,5.032-.677,11.858,11.858,0,0,0-2.132,1.8c-1.9,2.023-3.346,4.907-4.453,9.037h0a1.379,1.379,0,0,0,1.96,1.584,27.844,27.844,0,0,1,4.683-1.948,11.924,11.924,0,0,0-1.592,2.292c-1.308,2.441-1.958,5.6-1.958,9.876h0a1.379,1.379,0,0,0,2.3,1.023,27.9,27.9,0,0,1,4.017-3.1,11.86,11.86,0,0,0-.947,2.627c-.633,2.7-.443,5.917.665,10.049h0a1.382,1.382,0,0,0,2.5.39,28.007,28.007,0,0,1,3.075-4.028,11.9,11.9,0,0,0-.233,2.78c.087,2.773,1.1,5.835,3.242,9.539h0a1.381,1.381,0,0,0,2.51-.27,27.952,27.952,0,0,1,1.928-4.686,11.816,11.816,0,0,0,.473,2.674l.019.07c.8,2.655,2.576,5.349,5.6,8.374l0,0a1.381,1.381,0,0,0,2.356-.912,27.848,27.848,0,0,1,.652-5.021,11.869,11.869,0,0,0,1.186,2.517c1.449,2.338,3.835,4.466,7.492,6.589a1.383,1.383,0,0,0,2.128-1.432,28.151,28.151,0,0,1-.677-5.032,11.842,11.842,0,0,0,1.8,2.131c2.023,1.9,4.907,3.346,9.038,4.453v0a1.379,1.379,0,0,0,1.584-1.96,27.88,27.88,0,0,1-1.949-4.683,11.917,11.917,0,0,0,2.292,1.592c2.442,1.309,5.6,1.958,9.877,1.958h0a1.379,1.379,0,0,0,1.023-2.3,27.945,27.945,0,0,1-3.1-4.017,11.885,11.885,0,0,0,2.626.946c2.7.633,5.918.443,10.049-.665h0a1.382,1.382,0,0,0,.39-2.5,27.984,27.984,0,0,1-4.027-3.075,11.918,11.918,0,0,0,2.779.233c2.773-.087,5.835-1.1,9.539-3.242h0a1.381,1.381,0,0,0-.27-2.51,28.007,28.007,0,0,1-4.685-1.928,11.873,11.873,0,0,0,2.743-.493v0c2.659-.8,5.353-2.578,8.375-5.6l0,0a1.381,1.381,0,0,0-.912-2.356,27.826,27.826,0,0,1-5.021-.652,11.9,11.9,0,0,0,2.517-1.186c2.338-1.45,4.466-3.835,6.589-7.493a1.383,1.383,0,0,0-1.432-2.128Zm-6.607,7.272a10.37,10.37,0,0,1-6.378,1.388,1.382,1.382,0,0,0-.827,2.543A16.736,16.736,0,0,0,99.6,81.574a23.653,23.653,0,0,0,3.272.671,14.531,14.531,0,0,1-4.943,2.837l-.005,0v0a10.349,10.349,0,0,1-6.512-.3,1.381,1.381,0,0,0-1.459,2.239h0a16.728,16.728,0,0,0,3.89,3.167,23.766,23.766,0,0,0,2.99,1.5,14.565,14.565,0,0,1-5.519,1.463A10.357,10.357,0,0,1,85.1,91.163a1.382,1.382,0,0,0-1.973,1.822,16.77,16.77,0,0,0,2.92,4.034,23.74,23.74,0,0,0,2.5,2.219,14.571,14.571,0,0,1-5.708-.017,10.347,10.347,0,0,1-5.487-3.52A1.38,1.38,0,0,0,74.964,96.9h0a16.739,16.739,0,0,0,1.787,4.69,23.679,23.679,0,0,0,1.844,2.8,14.588,14.588,0,0,1-5.518-1.5,10.34,10.34,0,0,1-4.382-4.818,1.382,1.382,0,0,0-2.62.578,16.741,16.741,0,0,0,.508,4.958,23.7,23.7,0,0,0,1.058,3.174,14.567,14.567,0,0,1-4.935-2.867,10.346,10.346,0,0,1-2.992-5.79,1.379,1.379,0,0,0-2.666-.151h0a16.736,16.736,0,0,0-.8,4.954,23.839,23.839,0,0,0,.2,3.342,14.574,14.574,0,0,1-4.025-4.048,10.372,10.372,0,0,1-1.387-6.378,1.382,1.382,0,0,0-2.543-.828A16.718,16.718,0,0,0,46.426,99.6a23.644,23.644,0,0,0-.671,3.271,14.564,14.564,0,0,1-2.837-4.948l-.017-.054a10.381,10.381,0,0,1,.321-6.458,1.381,1.381,0,0,0-2.239-1.459v0a16.738,16.738,0,0,0-3.167,3.89,23.739,23.739,0,0,0-1.5,2.99,14.565,14.565,0,0,1-1.463-5.519A10.361,10.361,0,0,1,36.837,85.1a1.382,1.382,0,0,0-1.822-1.973,16.753,16.753,0,0,0-4.034,2.92,23.734,23.734,0,0,0-2.218,2.5,14.564,14.564,0,0,1,.018-5.708,10.347,10.347,0,0,1,3.52-5.487A1.38,1.38,0,0,0,31.1,74.964v0a16.737,16.737,0,0,0-4.69,1.786,23.69,23.69,0,0,0-2.8,1.844,14.587,14.587,0,0,1,1.5-5.518,10.346,10.346,0,0,1,4.818-4.382,1.382,1.382,0,0,0-.578-2.62,16.748,16.748,0,0,0-4.957.508,23.624,23.624,0,0,0-3.174,1.057A14.563,14.563,0,0,1,24.079,62.7a10.349,10.349,0,0,1,5.791-2.992,1.379,1.379,0,0,0,.151-2.666v0a16.735,16.735,0,0,0-4.954-.8,23.873,23.873,0,0,0-3.342.2,14.573,14.573,0,0,1,4.048-4.025,10.372,10.372,0,0,1,6.377-1.388,1.382,1.382,0,0,0,.828-2.543A16.736,16.736,0,0,0,28.4,46.426a23.564,23.564,0,0,0-3.271-.671,14.561,14.561,0,0,1,4.948-2.837l.054-.018a10.382,10.382,0,0,1,6.458.322A1.381,1.381,0,0,0,38,40.933a16.755,16.755,0,0,0-3.84-3.118,23.706,23.706,0,0,0-2.993-1.5,14.575,14.575,0,0,1,5.522-1.462A10.357,10.357,0,0,1,42.9,36.837a1.382,1.382,0,0,0,1.973-1.822,16.755,16.755,0,0,0-2.92-4.033,23.842,23.842,0,0,0-2.5-2.218,14.569,14.569,0,0,1,5.708.018A10.354,10.354,0,0,1,50.654,32.3,1.38,1.38,0,0,0,53.036,31.1h0a16.744,16.744,0,0,0-1.786-4.691,23.729,23.729,0,0,0-1.844-2.8,14.581,14.581,0,0,1,5.517,1.5,10.344,10.344,0,0,1,4.382,4.818,1.382,1.382,0,0,0,2.62-.578,16.757,16.757,0,0,0-.508-4.958,23.706,23.706,0,0,0-1.058-3.174A14.563,14.563,0,0,1,65.3,24.079a10.345,10.345,0,0,1,2.993,5.79,1.379,1.379,0,0,0,2.666.151h0a16.745,16.745,0,0,0,.8-4.954,23.87,23.87,0,0,0-.2-3.339,14.566,14.566,0,0,1,4.025,4.045,10.37,10.37,0,0,1,1.388,6.377,1.382,1.382,0,0,0,2.543.827A16.737,16.737,0,0,0,81.574,28.4a23.655,23.655,0,0,0,.671-3.271,14.561,14.561,0,0,1,2.838,4.948,10.346,10.346,0,0,1-.3,6.512A1.381,1.381,0,0,0,87.068,38a16.767,16.767,0,0,0,3.118-3.841,23.757,23.757,0,0,0,1.5-2.99,14.571,14.571,0,0,1,1.464,5.519A10.358,10.358,0,0,1,91.163,42.9a1.382,1.382,0,0,0,1.822,1.973,16.748,16.748,0,0,0,4.033-2.92,23.791,23.791,0,0,0,2.218-2.5,14.577,14.577,0,0,1-.017,5.708,10.348,10.348,0,0,1-3.52,5.487,1.38,1.38,0,0,0,1.206,2.383v0a16.731,16.731,0,0,0,4.689-1.787,23.678,23.678,0,0,0,2.8-1.843,14.592,14.592,0,0,1-1.5,5.517,10.342,10.342,0,0,1-4.818,4.382,1.382,1.382,0,0,0,.578,2.62,16.755,16.755,0,0,0,4.957-.508,23.617,23.617,0,0,0,3.174-1.057,14.563,14.563,0,0,1-2.867,4.935,10.345,10.345,0,0,1-5.79,2.993,1.379,1.379,0,0,0-.151,2.666v0a16.737,16.737,0,0,0,4.954.8,23.886,23.886,0,0,0,3.342-.2A14.571,14.571,0,0,1,102.226,75.587Z"/><path d="M64,34.261a29.739,29.739,0,1,0,21.028,8.71A29.648,29.648,0,0,0,64,34.261ZM83.069,83.07A26.969,26.969,0,1,1,90.968,64,26.884,26.884,0,0,1,83.069,83.07Z"/></svg>