<svg xmlns="http://www.w3.org/2000/svg" data-name="Layer 1" viewBox="0 0 128 128"><path d="M81.356 62.315a4.353 4.353 0 0 0 6.244-6.067 1.535 1.535 0 0 0-.086-.095 4.356 4.356 0 0 0-6.162 0 4.349 4.349 0 0 0 0 6.159zm1.953-4.2a1.587 1.587 0 0 1 2.244 0l.053.051a1.59 1.59 0 0 1-2.3 2.2 1.594 1.594 0 0 1-.006-2.244z"/><path d="M36.7 70.669v28.885a25.019 25.019 0 0 0 2.117 8.375c1.056 2.315 2.505 4.088 4.291 4.117h.087c1.786-.028 3.234-1.8 4.291-4.117a25.025 25.025 0 0 0 2.114-8.375v-28.8h40.317a11.548 11.548 0 0 0 11.518-11.518A11.555 11.555 0 0 0 91.3 47.8V17.339a1.386 1.386 0 0 0-1.385-1.385h-8.48a13.052 13.052 0 0 0-5.321 1.129 13.229 13.229 0 0 0-7.843 12.038v18.595H38.083a11.549 11.549 0 0 0-11.518 11.518A11.556 11.556 0 0 0 36.7 70.669zm5.067 37.011a15.87 15.87 0 0 1-.438-.9 21.717 21.717 0 0 1-1.857-7.228v-28.8h2.3zm5.066-8.125a21.711 21.711 0 0 1-1.858 7.228c-.145.318-.292.62-.438.9V70.752h2.3zm31.233-80.267a10.3 10.3 0 0 1 3.369-.564h7.1v28.992H78.066zm-7.03 9.834a10.366 10.366 0 0 1 3.055-7.343 10.52 10.52 0 0 1 1.2-1.035v26.972h-4.255zm-41.7 30.111a8.777 8.777 0 0 1 8.747-8.747h51.834a8.776 8.776 0 0 1 8.747 8.747 8.776 8.776 0 0 1-8.747 8.747H38.083a8.777 8.777 0 0 1-8.747-8.747z"/><path d="M40.483 62.309a4.342 4.342 0 0 0 6.061.087c.032-.027.064-.056.095-.087a4.349 4.349 0 0 0 .012-6.144l-.012-.012a4.35 4.35 0 0 0-6.156 0 4.342 4.342 0 0 0-.011 6.138zm1.956-4.2a1.593 1.593 0 0 1 2.244-.006l.006.006a1.593 1.593 0 0 1-.006 2.244l-.051.053a1.6 1.6 0 0 1-2.193-.048l-.006-.006a1.6 1.6 0 0 1 0-2.246z"/></svg>