<svg id="Layer_1" data-name="Layer 1" xmlns="http://www.w3.org/2000/svg" viewBox="0 0 128 128"><title>Artboard 3</title><path d="M64,106.027a39.012,39.012,0,0,0,6.388-77.5V28.36A6.4,6.4,0,0,0,64,21.973h0a6.4,6.4,0,0,0-6.387,6.387v.172A39.011,39.011,0,0,0,64,106.027Zm-2.553-80.22A3.606,3.606,0,0,1,64,24.744h0a3.632,3.632,0,0,1,3.612,3.433q-1.375-.126-2.776-.156H64.4l-.4,0-.4,0h-.44q-1.4.03-2.776.156A3.611,3.611,0,0,1,61.447,25.807ZM38.377,41.4A36.124,36.124,0,0,1,63.531,30.785h0l.469,0,.468,0h0a36.512,36.512,0,0,1,4.287.307h.014l.1.013h.014A36.242,36.242,0,1,1,38.377,41.4Z"/><path d="M57.6,69.1a6.73,6.73,0,0,0,4.451,4.363L77.958,82.6a1.381,1.381,0,0,0,1.929-1.872L70.4,64.941a6.689,6.689,0,0,0-1.6-2.64c-.023-.027-.047-.053-.072-.078h0l0,0-.008-.008h0a6.7,6.7,0,0,0-2.763-1.638L50.042,51.435a1.381,1.381,0,0,0-1.929,1.872ZM68,72.432l.022-.017.006,0,.058-.043,0,0,.056-.043.009-.007.019-.015.029-.022.017-.014.04-.032.025-.02,0,0,.028-.023.028-.024,0,0,.024-.02.028-.024.012-.01.016-.014.028-.024.02-.018.008-.007.027-.025.027-.024h0l.027-.025.027-.026.007-.006.02-.019.027-.025.014-.013.013-.012.027-.026.021-.021.005,0h0c.025-.021.05-.044.074-.068h0l0,0,.008-.008h0l.026-.026.026-.027.009-.009.017-.018.025-.027.017-.018.008-.009.025-.027.025-.027h0l.025-.028.025-.028.008-.009.017-.019.025-.028.015-.018.009-.01.024-.029.023-.027h0l.024-.028.03-.037.017-.02.023-.028.014-.018.009-.011.023-.029.021-.027,0,0,.022-.029.022-.029.006-.008.038-.051.013-.017L69.424,71l.036-.05,0-.006,0,0,.021-.03.021-.029.005-.007.016-.023.02-.029.011-.017.009-.013.036-.053,0,0,0,0,.02-.03.02-.03,0-.006.016-.024.019-.03.01-.017.009-.014.057-.092.018-.031,0-.005.015-.025.018-.031.009-.015.009-.015.018-.031.015-.026,0-.006.017-.031.017-.031,0,0,.015-.027c.033-.063.067-.126.1-.19l0,0c.031-.062.062-.126.091-.189l4.666,7.765L66.928,73.08a6.954,6.954,0,0,0,.744-.421l.012-.008.048-.031.021-.014.01-.006.03-.02.028-.02h0l.03-.021.03-.021.007,0,.023-.016.044-.032.014-.011Zm-6.9-8.115h0l.023-.025.012-.012.012-.012.024-.025.024-.024.012-.012.012-.012.024-.024h0l.024-.023.013-.012.012-.011.025-.023h0l.025-.023.013-.011.012-.011.025-.022h0l.025-.021L61.428,64l.013-.01.025-.021.026-.021.014-.011.012-.01a3.93,3.93,0,0,1,1.438-.732,4.019,4.019,0,0,1,1.534-.111l.032,0h0l.028,0,.019,0,.014,0,.033,0h0l.031,0,.016,0,.017,0a3.951,3.951,0,0,1,2.082,1.067l0,0h0q.036.036.075.069a3.959,3.959,0,0,1,.948,1.587l.016.06a3.992,3.992,0,0,1,.041,2.087h0v.005a3.986,3.986,0,0,1-.272.752l-.014.029,0,.006-.056.109-.011.021,0,.008-.016.029-.016.028-.011.02,0,.008-.016.029,0,.006-.013.022-.012.02-.005.008-.017.028,0,.006-.014.022-.012.02-.006.008-.018.027,0,.006-.015.022-.013.019-.006.008-.019.027,0,.006-.016.022-.013.018-.006.009-.02.027,0,0-.016.022-.014.018-.006.009-.02.026,0,0-.017.022-.021.026-.021.026,0,0-.018.021-.014.017-.007.009-.022.025,0,0-.018.021-.015.017-.007.008-.023.025,0,0-.019.021-.015.017-.008.009-.023.025,0,0-.02.021-.015.016,0,0h0q-.036.036-.069.074l-.009.009-.024.024,0,0-.022.021-.014.013-.011.01-.025.023h0l-.025.022-.012.011L66.611,70l-.024.021h0l-.026.022-.01.009-.015.012-.023.019,0,0-.026.021-.026.021-.021.017-.005,0-.026.02-.007.006-.02.015-.027.02-.027.02a3.932,3.932,0,0,1-1.28.61,4.025,4.025,0,0,1-1.6.1l-.021,0-.012,0-.032-.005h0l-.029,0-.018,0-.014,0-.033-.006h0l-.032-.006-.015,0A3.977,3.977,0,0,1,60.212,68.2L60.2,68.14a3.99,3.99,0,0,1-.041-2.086h0v0a3.918,3.918,0,0,1,.258-.723l.013-.027v0l.042-.085v0l.015-.029.007-.013.009-.016.015-.027v0l.016-.029.007-.013.009-.016.015-.027v0l.016-.028L60.587,65l.01-.015.016-.027h0l.017-.028.008-.013.01-.015.017-.026h0l.018-.027.009-.013.01-.015.018-.026h0l.019-.027.009-.013.01-.014.019-.026h0l.02-.027.009-.013.01-.014.02-.026h0l.02-.026.01-.013.011-.014.021-.026h0l.021-.026.01-.013.011-.013.021-.025h0l.022-.025L61,64.431l.011-.013.022-.025.023-.026.011-.012.012-.013Zm-.024-3.36a6.931,6.931,0,0,0-.953.563l-.014.01c-.045.032-.089.064-.133.1l0,0-.026.019-.029.022-.013.01-.016.013-.029.022-.022.017-.007.005-.029.023-.028.023,0,0-.026.021-.028.023-.012.01-.017.014-.028.024-.021.017-.007.006-.028.024-.028.024h0l-.026.023L59.52,62l-.01.009-.017.016-.027.025-.019.017-.008.007-.027.025-.027.025h0l-.026.025-.027.026-.01.009L59.3,62.2l-.027.026-.018.018-.008.009-.026.026-.026.027-.026.027-.026.027-.009.009-.017.018-.026.027-.017.018-.009.009-.025.027-.025.027h0l-.025.028-.025.028-.007.008-.017.02-.025.028-.015.017-.009.011-.024.028-.023.027h0l-.024.028-.023.029-.007.008-.017.021-.023.028-.014.017-.009.011-.023.028-.021.027,0,0-.022.029-.066.087-.013.017-.009.012-.022.03-.019.026,0,0-.021.029-.021.029,0,.007-.016.023-.021.03-.011.016-.009.013-.021.03-.018.026,0,0-.02.03-.02.03,0,.006-.016.025-.019.03-.01.016-.009.014-.019.031-.016.026,0,0-.018.031-.019.031,0,.006-.015.025-.018.031-.009.015-.009.016-.018.031-.014.025,0,.006-.018.031-.017.031,0,0-.014.027-.017.032-.007.014-.009.017-.065.127,0,0-.014.028-.016.032-.007.014-.009.018-.045.1-4.666-7.765Z"/><path d="M64,100.878a33.859,33.859,0,1,0-23.942-9.917A33.754,33.754,0,0,0,64,100.878ZM37.467,65.634H32.943a30.971,30.971,0,0,1,8.117-19.6l3.2,3.2a1.385,1.385,0,1,0,1.959-1.959l-3.2-3.2a30.968,30.968,0,0,1,19.6-8.116v4.524a1.385,1.385,0,0,0,2.771,0V35.962a30.967,30.967,0,0,1,19.6,8.116l-3.2,3.2a1.385,1.385,0,0,0,1.959,1.959l3.2-3.2a30.967,30.967,0,0,1,8.116,19.6H90.533a1.385,1.385,0,0,0,0,2.771h4.524A30.966,30.966,0,0,1,86.941,88l-3.2-3.2a1.385,1.385,0,0,0-1.959,1.959l3.2,3.2a30.969,30.969,0,0,1-19.6,8.117V93.552a1.385,1.385,0,0,0-2.771,0v4.524a30.968,30.968,0,0,1-19.6-8.117l3.2-3.2A1.385,1.385,0,0,0,44.259,84.8l-3.2,3.2a30.968,30.968,0,0,1-8.116-19.6h4.524a1.385,1.385,0,1,0,0-2.771Z"/></svg>