<svg id="Layer_1" data-name="Layer 1" xmlns="http://www.w3.org/2000/svg" viewBox="0 0 128 128"><title>Artboard 1</title><path d="M20.742,44.19l0,.155h0l.008.157h0l.011.158h0l.014.16h0l.017.161h0l.02.163h0l.022.165h0l.026.166.029.167h0l.031.169h0l.035.171.037.172.04.173h0l.043.175h0l.046.176h0l.048.177h0l.051.179.054.18.056.181.059.182.062.184.064.185.052.146.054.147.055.147.057.148.059.149.06.149.062.15.064.151.065.151.067.152.068.153.07.153.071.154.072.154.074.155.075.156.076.156.078.157h0l.079.157.081.157.082.158.084.157.084.158.086.159.087.159h0l.088.159.09.16h0l.091.16.092.16.093.16.094.16.1.16.1.161.1.161.1.161.1.161h0l.1.161.1.161h0l.1.161.1.161h0l.1.161h0l.106.161h0l.107.161.108.161.109.161.11.161.111.161.112.16.113.16.113.16h0l.114.16h0l.115.16.116.159.117.159.118.158.118.158h0l.119.158.12.157.12.157h0L27,57.38l.121.156.122.156.123.155.124.155a37.124,37.124,0,0,0,8.514,8.016c3.552,2.222,6.762,2.585,8.583-.326l.015-.022.014-.022.014-.022.014-.022.014-.022.014-.022.014-.022.014-.022.011-.018,0,0,.014-.022.014-.022.014-.021.027-.044.014-.021q.572-.9,1.182-1.765l.012-.017,0,0,.029-.041.014-.02.015-.021.015-.02.015-.021.015-.021.015-.021.013-.02h0l.015-.021.015-.021.015-.021.015-.021.015-.021.015-.021.061-.085.015-.021.016-.021.031-.043h0a44.385,44.385,0,0,1,8-8.471q.751-.611,1.537-1.2A247.047,247.047,0,0,1,73.339,77.964c5.234,8.627,9.289,17.286,11.044,25.554.12.563.207,1.026.288,1.453a8.27,8.27,0,0,0,1.186,3.6c1.906,2.377,5.032.415,15.732-8.165,5.7-4.572,6.594-6.356,4.908-8.458a10.605,10.605,0,0,0-2.092-1.768,28.415,28.415,0,0,1-2.415-1.893A171.5,171.5,0,0,1,84.725,69.576C78.96,62.544,73.02,54.762,67.256,47.107q.521-.211,1.052-.415a1.5,1.5,0,0,0,.14-.062,4.084,4.084,0,0,0,.967-.573A4.628,4.628,0,0,0,71.043,43a6.969,6.969,0,0,0-.416-3.367,6.6,6.6,0,0,0-1-1.759L62.963,29.56,56.3,21.249a6.582,6.582,0,0,0-1.5-1.354,6.978,6.978,0,0,0-3.2-1.144,4.628,4.628,0,0,0-3.338.928,4.1,4.1,0,0,0-.855.939l-.15.225-.247-.31-.048-.057c-1.767-2.155-4.419-2.389-6.808-1.5a8.947,8.947,0,0,0-2.392,1.355A8.428,8.428,0,0,0,35.9,22.36a5.59,5.59,0,0,0,.252,6.876c.336.419.778.967,1.3,1.61l.491.605q-.651.556-1.315,1.081a44.283,44.283,0,0,1-9.958,5.943l-.049.02c-.36.153-.7.3-1.036.432l-.022.009-.022.009-.022.009-.022.009-.022.009-.022.009-.022.009h0L25.409,39l-.022.009-.022.009-.022.009-.022.008-.021.009-.022.009-.022.008-.021.009-.022.009-.021.008-.021.009-.023.009-.023.009-.022.009-.023.009-.023.009-.023.009-.022.009-.014,0-.01,0-.023.009-.022.009-.023.009L24.9,39.2l-.023.009-.022.009-.023.009-.023.009-.023.009h0l-.022.009-.023.008-.023.009-.023.009-.023.009-.023.009-.023.009-.023.008-.023.009-.011,0-.012,0-.023.009-.023.009-.023.009-.023.009-.023.009-.023.009-.023.008-.023.009-.02.008h0l-.023.008-.023.009-.023.009-.023.008-.023.009-.023.008-.023.009-.023.009-.023.008-.006,0-.017.006L24.1,39.5l-.023.008-.023.009-.023.008L24,39.532l-.023.009-.023.008-.023.009-.015.005-.008,0-.023.008-.023.008-.023.009-.023.008-.023.009-.023.008-.023.008-.023.009-.023.008-.15.056-.145.058-.141.061-.137.064h0l-.133.067h0l-.128.07h0l-.124.073-.121.075h0l-.116.078h0l-.113.081-.109.084-.1.087-.1.089-.1.092c-.064.062-.124.126-.182.191l-.085.1q-.084.1-.159.206l-.074.107h0c-.048.072-.094.146-.137.221s-.084.152-.122.231h0l-.056.119-.052.121h0l-.049.123h0l-.045.125h0l-.041.127c-.027.086-.051.173-.073.262s-.042.179-.059.27h0l-.025.138h0l-.021.14h0l-.018.142h0l-.015.143h0l-.011.146h0l-.008.148h0l0,.149h0l0,.151v.153ZM82.594,71.329a174.332,174.332,0,0,0,17.558,19.029,31.615,31.615,0,0,0,2.642,2.066,9.219,9.219,0,0,1,1.55,1.259c.364.454-.509,1.385-4.486,4.573-9,7.213-11.456,9.074-11.847,8.587a8.148,8.148,0,0,1-.623-2.381c-.093-.491-.194-1.024-.3-1.518-1.823-8.589-6-17.53-11.39-26.41A248.685,248.685,0,0,0,58.147,51.843q1.408-.923,2.924-1.774,1.722-.966,3.583-1.831C70.563,56.09,76.667,64.1,82.594,71.329ZM38.227,23.853A5.642,5.642,0,0,1,39.472,22.5a6.149,6.149,0,0,1,1.646-.933,3.173,3.173,0,0,1,3.71.664l.019.024.7.879.048.06q-.822,1.107-1.663,2.129l-.046.055-.045.055-.046.055,0,0-.043.052-.046.055-.045.055-.029.036-.016.019-.01.011q-.47.56-.95,1.1l-.02.022L42.491,27l-.022.024-.02.022-.041.046-.083.092-.024.026-.017.019-.042.046-.084.091-.026.028-.015.017-.042.045-.042.046-.042.045-.028.031-.013.014-.042.045-.042.045-.042.045-.032.033-.01.011-.042.045-.084.089-.034.036-.008.009L41.571,28l-.042.044-.042.044-.036.038-.006.006-.042.044-.042.044-.042.044-.039.04,0,0-.042.044-.042.044-.042.044-.042.042h0l-.043.044-.042.043-.042.043-.043.043,0,0-.041.042-.043.043-.042.043-.043.043,0,0-.039.039-.043.043-.043.043L40.594,29l-.007.007-.036.036-.043.043-.043.042-.043.042-.01.009-.033.033-.043.042-.086.084-.012.012-.031.03-.043.042-.043.042-.044.042-.015.014-.028.027-.043.042-.4-.49c-.354-.437-.775-.96-1.287-1.6A2.975,2.975,0,0,1,38.227,23.853Zm.11,10.843q1.22-.965,2.4-2.024l0,0,0,0,0,0,.063-.057,0,0,0,0,0,0a52.318,52.318,0,0,0,5.324-5.6l.059-.072.059-.071,0,0,.056-.07.058-.072.056-.069,0,0,.058-.072.058-.072.052-.065.006-.007q.955-1.193,1.857-2.452l.044-.066q.613-.859,1.209-1.757A1.359,1.359,0,0,1,50,21.833a1.937,1.937,0,0,1,1.38-.322,4.157,4.157,0,0,1,1.9.69,3.825,3.825,0,0,1,.869.781l6.663,8.311L67.473,39.6a3.794,3.794,0,0,1,.567,1.012,4.186,4.186,0,0,1,.264,2.014,1.93,1.93,0,0,1-.62,1.274,1.346,1.346,0,0,1-.284.176l-.076.026q-2.3.879-4.42,1.9l-.076.036-.076.037-.076.037-.076.037-.076.037-.056.027-.019.01-.076.037L62.3,46.3l-.073.036h0l-.075.037-.075.038-.076.037-.015.007-.06.03-.075.038-.075.038-.032.016L61.7,46.6l-.075.038-.075.038L61.5,46.7l-.026.014-.074.038-.074.038-.065.034-.009,0-.148.077-.074.039-.007,0-.066.035-.367.2-.041.022c-.156.084-.313.169-.468.255h0l-.359.2A51.346,51.346,0,0,0,55.343,50.4l-.049.036q-1.4.983-2.7,2.041a47.127,47.127,0,0,0-7.948,8.247c-2.865-.921-6.73-4.416-9.987-8.478s-5.822-8.591-6.1-11.591A47.157,47.157,0,0,0,38.337,34.7Zm-14.81,9.46v-.082h0l0-.08h0l0-.079.006-.077.008-.076.01-.075.011-.073.013-.071h0l.015-.07.016-.068.018-.067.02-.065.021-.064.023-.062.025-.06h0l.027-.059.029-.057.03-.056.032-.054.034-.052.036-.05.038-.049.04-.047.042-.045.044-.043.045-.041.048-.039h0l.049-.037.052-.036.053-.033.056-.032.057-.03.059-.028.062-.026.064-.024.021-.007.021-.007.021-.007.021-.007.021-.007.021-.007.021-.008.021-.007.021-.008.021-.008.021-.007h0l.019-.007.021-.007.021-.008.021-.007.021-.008.021-.008.021-.007.021-.008.02-.007.021-.008.021-.007h0l.017-.006.021-.008.021-.007.041-.015.021-.008q.375-.138.747-.281c.682,3.546,3.307,8.168,6.56,12.225s7.189,7.618,10.5,9.055q-.263.4-.52.8l-.011.018-.024.037-.012.018-.012.018-.011.018-.012.018-.012.018L42.389,64l-.012.018,0,.007-.007.011-.012.018-.011.018-.011.018-.011.018-.011.018-.022.036-.011.018-.011.018-.011.018-.011.017c-.775,1.24-2.6.8-4.774-.562a34.329,34.329,0,0,1-7.821-7.4l-.115-.144-.114-.145-.114-.145-.114-.145-.112-.146-.112-.146h0l-.111-.146-.111-.147-.11-.147h0l-.109-.147-.108-.147-.108-.148-.107-.148-.106-.148-.105-.148-.1-.148-.1-.148-.1-.148h0l-.1-.149-.1-.148-.1-.149-.1-.149-.1-.149h0l-.1-.149-.1-.149-.1-.149-.095-.149-.094-.148L26.608,52l-.092-.148-.091-.148-.09-.148-.088-.148-.087-.147-.086-.147-.085-.147-.084-.147-.082-.146-.082-.146-.08-.145-.079-.145-.078-.145-.077-.144h0l-.075-.144-.074-.144-.073-.143h0l-.071-.143-.071-.143-.069-.142h0l-.067-.141-.066-.141-.065-.14-.064-.14-.062-.139-.061-.139-.059-.138-.058-.137-.056-.137-.055-.136-.053-.135-.052-.134-.051-.134-.049-.133-.047-.132-.039-.113-.038-.112h0l-.037-.111-.036-.11h0l-.034-.109-.033-.108h0l-.032-.107-.031-.107-.029-.106-.028-.1h0l-.027-.1-.025-.1h0l-.024-.1-.022-.1h0l-.022-.1-.02-.1-.018-.1-.017-.1h0l-.015-.1-.014-.094-.012-.093h0l-.011-.092-.01-.091-.008-.089h0l-.006-.088-.005-.086,0-.086,0-.084Z"/></svg>