<svg xmlns="http://www.w3.org/2000/svg" data-name="Layer 1" viewBox="0 0 128 128"><path d="M107.709 81.863a43.739 43.739 0 0 0-33.888-42.027 9.825 9.825 0 0 0-19.642 0 43.738 43.738 0 0 0-33.888 42.03 8.4 8.4 0 0 0-2.228 1.555c-.03.025-.059.052-.087.08a8.3 8.3 0 0 0-2.445 5.883 8.3 8.3 0 0 0 2.439 5.87l.006.007a8.3 8.3 0 0 0 5.877 2.446h80.282a8.3 8.3 0 0 0 5.883-2.446 8.306 8.306 0 0 0 2.448-5.88 8.365 8.365 0 0 0-4.76-7.521zm-48.7-46.738a7.055 7.055 0 0 1 11.994 4.162 43.939 43.939 0 0 0-5.99-.547h-2.034a43.939 43.939 0 0 0-5.99.547 7.036 7.036 0 0 1 2.023-4.162zM24.6 94.941h-.743a5.536 5.536 0 0 1-3.924-1.628l-.006-.005a5.536 5.536 0 0 1-1.627-3.924 5.54 5.54 0 0 1 1.634-3.924c.022-.022.043-.044.063-.067a5.535 5.535 0 0 1 3.86-1.566h.743zm8.448 0h-5.675V83.826h5.677zm8.447 0H35.82V83.826h5.68zm8.447 0h-5.675V83.826h5.676zm8.447 0h-5.675V83.826h5.677zm8.447 0h-5.674V83.826h5.676zm8.447 0h-5.674V83.826h5.677zm8.447 0h-5.674V83.826h5.676zm8.447 0H86.5V83.826h5.68zm8.447 0H94.95V83.826h5.676zm-7.059-13.886H23.081A40.941 40.941 0 0 1 63.471 41.5h1.052a40.941 40.941 0 0 1 40.389 39.553H93.565zm16.135 8.329a5.536 5.536 0 0 1-1.628 3.924 5.542 5.542 0 0 1-3.924 1.634h-.748V83.826h.744a5.578 5.578 0 0 1 5.557 5.557z"/></svg>