<svg xmlns="http://www.w3.org/2000/svg" data-name="Layer 1" viewBox="0 0 128 128"><path d="M111.218 82.556 86.963 63.743h-.007a4.539 4.539 0 0 0-5.324-.154l-56.609-43.91a1.364 1.364 0 0 0-.191-.146 4.543 4.543 0 0 0-6.155.778 1.4 1.4 0 0 0-.152.191l-3.2 4.132a1.381 1.381 0 0 0 1.38 2.2l3.094-.666-.923 3.315a1.381 1.381 0 0 0 1.581 1.726l3.5-.557-.9 3.712a1.381 1.381 0 0 0 1.675 1.665l3.145-.635-.969 3.333a1.381 1.381 0 0 0 1.577 1.742l3.455-.547-1.018 3.43a1.382 1.382 0 0 0 1.418 1.768l4.1-.287-1.04 3.706a1.381 1.381 0 0 0 1.48 1.741l4.142-.409-.772 4.179a1.382 1.382 0 0 0 1.439 1.627l4.289-.252-.776 4.6a1.384 1.384 0 0 0 1.456 1.607l4.441-.309-.731 4.317a1.383 1.383 0 0 0 1.426 1.608l4.55.078-1.174 3.988a1.383 1.383 0 0 0 1.441 1.767L61.3 72.9l-.666 4.974a1.381 1.381 0 0 0 1.476 1.555l3.782-.307-1.376 2.588a1.386 1.386 0 0 0 .249 1.634l.767.884a4.541 4.541 0 0 0 1.4 5.334l24.256 18.813.006.005a4.534 4.534 0 0 0 6.321-.777l.023-.03 1.9-2.444a1.381 1.381 0 0 0-.249-1.937l-4.457-3.457-.006-.005a.445.445 0 0 1-.168-.3.453.453 0 0 1 .091-.334l8.377-10.796a1.361 1.361 0 0 0 .1-.129.449.449 0 0 1 .263-.127.454.454 0 0 1 .289.06 1.393 1.393 0 0 0 .121.091l4.387 3.4a1.381 1.381 0 0 0 1.937-.249l1.9-2.443a4.534 4.534 0 0 0-.806-6.345zM63.6 76.537l.653-4.872a1.382 1.382 0 0 0-1.414-1.584l-4.475.17 1.144-3.885a1.366 1.366 0 0 0 .053-.366 1.38 1.38 0 0 0-1.361-1.4l-4.841-.083.749-4.427a1.383 1.383 0 0 0-1.449-1.647l-4.441.31.772-4.578a1.365 1.365 0 0 0 .016-.308 1.383 1.383 0 0 0-1.461-1.3l-4.263.251.778-4.21a1.381 1.381 0 0 0-1.486-1.663l-3.976.392 1-3.579a1.383 1.383 0 0 0-1.4-1.82l-4.061.284 1.075-3.622a1.381 1.381 0 0 0-1.535-1.753l-3.511.555 1-3.434a1.38 1.38 0 0 0-1.6-1.737l-3.315.67.872-3.591a1.381 1.381 0 0 0-1.552-1.71l-3.461.55.939-3.372a1.383 1.383 0 0 0-1.6-1.794l-1.624.349.945-1.219v-.006a1.775 1.775 0 0 1 2.465-.311l56.532 43.837-9.524 12.28-1.8 2.322 1.086-2.043a1.384 1.384 0 0 0-1.33-2.029zm46.239 10.675-1.047 1.35-3.374-2.617-.072-.055-.038-.024a3.22 3.22 0 0 0-4.393.657l-.057.072v.008l-8.32 10.726a1.372 1.372 0 0 0-.153.2 3.222 3.222 0 0 0 .543 4.3 1.443 1.443 0 0 0 .2.16l3.284 2.547-.983 1.268a1.357 1.357 0 0 0-.118.149 1.769 1.769 0 0 1-2.353.3 1.349 1.349 0 0 0-.152-.116L68.618 87.383a1.768 1.768 0 0 1-.318-2.453l14.43-18.61a1.47 1.47 0 0 0 .118-.149 1.768 1.768 0 0 1 2.353-.3 1.409 1.409 0 0 0 .153.116l24.176 18.755a1.768 1.768 0 0 1 .308 2.471z"/><path d="M92.444 75.883 86.022 70.9a2.452 2.452 0 0 0-1.815-.493 2.461 2.461 0 0 0-1.638.933L73.2 83.429a2.452 2.452 0 0 0-.493 1.814 2.459 2.459 0 0 0 .927 1.638l6.421 4.98a2.45 2.45 0 0 0 1.814.493 2.458 2.458 0 0 0 1.638-.927l9.374-12.086a2.466 2.466 0 0 0-.44-3.452zM81.51 89.493l-5.946-4.611 9-11.61 5.945 4.612z"/></svg>