<svg id="Layer_1" data-name="Layer 1" xmlns="http://www.w3.org/2000/svg" viewBox="0 0 128 128"><title>Artboard 13</title><path d="M109.673,105.611H93.653V68.487c0-1.9-2.689-3.411-7.037-4.309A75.707,75.707,0,0,0,72.03,62.92a75.709,75.709,0,0,0-14.586,1.257c-4.347.9-7.037,2.406-7.037,4.309l0,15.135L38.806,78.445c-3.32-1.481-6.156,9.458-3.441,11.034l15.044,9.237v6.9H18.327a1.385,1.385,0,1,0,0,2.771h91.346a1.385,1.385,0,1,0,0-2.771ZM38.157,87.951q.044-.085.086-.173a19.911,19.911,0,0,0,1.581-5.855l15.283,6.816c.862,1.171,1.063,3.4.879,5.553a13.323,13.323,0,0,1-.9,4.053Zm52.726,17.66h-37.7v-5.194h0l1.554.955a1.383,1.383,0,0,0,1.676-.182l.012-.011.026-.023v0c1.133-1.041,2.052-3.792,2.3-6.639s-.148-5.91-1.614-7.668l0,0,0,0c-.045-.054-.1-.112-.152-.173a1.37,1.37,0,0,0-.524-.356l-3.276-1.461h0V71.481c.088.04.178.081.269.12h0c.092.04.186.079.282.118l.006,0,.051.021.1.039.019.008.118.045.014.006.046.017.109.04.012,0q.229.084.47.164l.031.011.126.041h0l0,0,.061.02.066.021.042.013.024.008.134.041.014,0,.054.016.121.036.015,0,.069.02.069.02.024.007.046.013.07.019.064.018.007,0,.071.019.071.019.034.009.038.01L56,72.46l.072.019h0l.07.018.073.018.044.011.029.007.074.018.075.018.013,0,.062.015.075.018.056.013.02,0,.075.018.076.017.023.005.053.012.077.018.067.015.011,0,.078.017.078.017.034.008.045.01.079.017.079.016A75.709,75.709,0,0,0,72.03,74.053,75.707,75.707,0,0,0,86.616,72.8l.079-.016.079-.017.045-.01.034-.008.078-.017.078-.017.011,0,.067-.015.077-.018.053-.012.023-.005.076-.017.076-.018.02,0,.056-.013.075-.018.062-.015.013,0,.075-.018.074-.018.029-.007.044-.011.073-.018.07-.018h0l.072-.019.072-.019.038-.01.033-.009.071-.019.071-.019.007,0,.064-.018.07-.019.046-.013.024-.007.069-.02.069-.02.016,0,.121-.036.054-.016.014,0,.134-.041.024-.008.042-.013.066-.021.061-.02,0,0h0l.127-.041.031-.011c.16-.054.318-.108.47-.164l.012,0,.109-.04.046-.017.015-.006.118-.045.019-.008.1-.039.051-.021.006,0q.144-.058.282-.118h0q.138-.059.269-.12ZM86.064,70.09A73.059,73.059,0,0,1,72.03,71.282,73.063,73.063,0,0,1,58,70.09c-2.976-.614-4.818-1.2-4.818-1.6S55.02,67.5,58,66.883A73.074,73.074,0,0,1,72.03,65.691a73.07,73.07,0,0,1,14.034,1.192c2.976.615,4.818,1.2,4.818,1.6S89.041,69.476,86.064,70.09Z"/><path d="M89,37.644A4.835,4.835,0,0,0,87.543,35.8a4.606,4.606,0,0,0-1.228-.684l-6.148-2.24-6.148-2.24a4.579,4.579,0,0,0-1.379-.265,4.823,4.823,0,0,0-2.3.473,3.375,3.375,0,0,0-1.727,1.848,3.044,3.044,0,0,0-.18.914c-5.4-1.786-10.864-3.638-15.832-5.511A105.05,105.05,0,0,1,38.388,21.77a17.374,17.374,0,0,1-1.531-1.006,6.841,6.841,0,0,0-1.569-.935c-1.935-.7-2.951.222-4.636,4.844-3.028,8.308-3.53,10.641-1.33,11.443a5.378,5.378,0,0,0,2.58.008c.237-.033.5-.07.895-.117h0c5.1-.6,10.874.05,16.868,1.384a148.95,148.95,0,0,1,17.161,5.135q-.107.312-.222.619a26.92,26.92,0,0,1-4.3,7.537l-.01.013-.01.012-.01.013-.01.012,0,.006-.005.007-.01.013-.01.013-.01.013-.01.013-.01.013-.01.013-.011.013-.01.013c-1.575,1.927-.658,3.981,1.579,5.811l.076.062.077.061.078.061.08.061.08.061.081.061.083.061.083.061.085.061h0l.085.06.087.061.087.06h0l.089.06.09.059h0l.09.059h0l.091.059h0l.092.059h0l.093.059.094.059h0l.095.058.1.058.1.058h0l.1.057.1.057h0l.1.057h0l.1.056h0l.1.056h0l.1.056.1.056h0l.1.055.1.056h0l.1.055.1.055h0l.1.054h0l.106.054h0l.106.054.107.054.107.053.108.053h0l.109.053.109.053h0l.11.052.11.052h0l.11.051.111.051h0l.111.051h0l.112.05h0l.113.049.113.049.113.049h0l.114.048.114.048h0l.114.048.114.047h0l.114.047h0l.115.046.115.046h0l.115.045h0l.115.045h0l.116.045h0l.116.044h0l.116.044h0l.117.043h0l.116.043h0l.116.042h0l.117.042h0l.117.041h0l.117.04h0l.117.04h0l.117.04h0l.117.039h0l.118.039h0l.117.038h0l.118.038h0l.117.037h0l.118.037.118.036h0l.118.036h0l.117.035h0l.118.035.118.034.118.033h0l.117.033h0l.117.032h0l.117.032h0l.117.031h0l.117.03h0l.117.03h0l.117.029h0l.117.029.117.028.116.028h0l.116.027.116.026h0l.115.026h0l.115.025h0l.115.025.115.024.115.023.114.022.114.022.114.021.113.021h0l.113.02.112.019.112.018.111.018.111.017.11.016.11.016.109.015h0l.109.014.108.013.108.013.107.012.107.011.106.01.105.01.1.009.1.008.1.007.1.007.1.006.1,0,.1,0,.1,0,.1,0,.1,0h.268l.132,0,.131,0,.129-.005.128-.007.126-.008.125-.01.124-.011.122-.013.121-.015.119-.016.118-.018.115-.02h0l.114-.021.113-.023.111-.025.109-.026.107-.028.106-.029h0l.1-.031.1-.033.1-.035h0l.1-.036h0l.1-.038h0c.1-.039.189-.081.278-.125l.089-.045h0l.086-.047h0l.084-.049h0c.055-.033.11-.068.163-.1h0l.078-.055h0l.076-.056h0c.05-.038.1-.078.146-.119h0l.07-.062c.046-.042.09-.085.133-.13h0l.062-.068h0a2.758,2.758,0,0,0,.417-.614h0l.041-.086h0l.038-.088.036-.09h0c.023-.06.044-.122.064-.186h0l.028-.1h0l.025-.1h0l.022-.1h0l.02-.1h0l.017-.1h0l.014-.107.012-.109.009-.111.005-.113,0-.116v-.138h0v-.257q.008-.264.021-.552.018-.381.063-.941c0-.031,0-.062,0-.093a26.8,26.8,0,0,1,1.469-6.764q.085-.237.174-.473l1.152.421a3.938,3.938,0,0,0,4.649-1.378,5.72,5.72,0,0,0,.9-1.637,6.01,6.01,0,0,0,.344-1.817h0v-.006a4.105,4.105,0,0,0-2.206-4.028,3,3,0,0,0,.172-.386A3.37,3.37,0,0,0,89,37.644ZM50.259,34.7c-6.283-1.4-12.366-2.075-17.782-1.437h-.005c-.261.031-.618.081-.949.127a7.507,7.507,0,0,1-1.259.133c-.082-.03.7-1.641,2.986-7.9.925-2.539,1.053-3.2,1.1-3.189a5.875,5.875,0,0,1,.909.588,19.473,19.473,0,0,0,1.769,1.157A107.5,107.5,0,0,0,51.63,30.679c5.3,2,11,3.923,16.579,5.765a30.94,30.94,0,0,1-.6,3.376l-.014.05A150.946,150.946,0,0,0,50.259,34.7ZM79.628,58.027l0,.153V58.2l0,.024,0,.023,0,.023-.006.022-.007.022-.009.022-.01.021-.011.021-.012.02-.013.02-.014.019-.015.019h0l-.016.018-.018.017-.019.018h0l-.02.017-.021.017-.022.016-.023.016h0l-.024.015h0l-.025.015-.026.014h0l-.027.014h0l-.028.014h0l-.029.013-.03.013-.031.012h0l-.032.012-.033.012-.034.011-.035.011-.036.01-.037.01h0l-.038.01-.039.009-.039.009h0l-.04.009-.041.008h0l-.042.008h0l-.043.007-.044.007-.045.006-.045.006-.046.006-.047.005-.048,0h0l-.048.005-.049,0-.05,0-.051,0-.051,0-.052,0-.053,0-.053,0h0l-.054,0h0l-.054,0-.055,0h-.344l-.083,0-.084,0-.084,0-.086,0-.086,0-.087-.005-.088-.006-.088-.006-.089-.007-.09-.008-.09-.008-.091-.01-.091-.01-.092-.011-.093-.011-.093-.012-.094-.013-.094-.014-.095-.014-.1-.015-.1-.015-.1-.016-.1-.017-.1-.017-.1-.018-.1-.018L75,58.6h0l-.1-.019-.1-.02h0l-.1-.021-.1-.021-.1-.021-.1-.023-.1-.023-.1-.024-.1-.024L74,58.38l-.1-.025h0l-.1-.026-.1-.026h0l-.1-.027h0l-.1-.027-.1-.028h0l-.1-.028h0l-.1-.029h0l-.1-.029h0l-.1-.03h0l-.1-.031h0l-.1-.031h0l-.1-.031-.1-.032h0l-.1-.032h0l-.1-.033h0l-.1-.033h0l-.1-.034h0l-.1-.034h0l-.1-.035h0l-.1-.035h0l-.1-.035h0l-.1-.036h0l-.1-.036h0l-.1-.037h0l-.1-.037h0l-.1-.037h0l-.1-.038h0l-.1-.038h0l-.1-.039h0l-.1-.039h0l-.1-.039h0l-.1-.04h0l-.1-.04h0l-.1-.04h0l-.1-.041h0l-.1-.041h0l-.1-.042h0l-.1-.042h0l-.1-.042h0l-.1-.042h0l-.1-.043h0l-.1-.043h0l-.1-.043h0l-.1-.044h0l-.1-.044h0l-.1-.045h0l-.1-.045h0l-.1-.045h0l-.1-.045h0l-.1-.046h0l-.1-.046-.095-.046h0l-.094-.047-.094-.047h0l-.093-.047h0l-.093-.047-.092-.048h0l-.091-.048-.091-.048-.09-.048h0l-.09-.048h0l-.089-.048h0l-.088-.049h0l-.087-.049L67.4,55.8h0l-.086-.049-.086-.05-.085-.05-.084-.05h0l-.083-.05h0L66.9,55.5l-.082-.051-.081-.051-.08-.051-.079-.051-.078-.051-.077-.051-.077-.052-.076-.052-.075-.051-.074-.052-.073-.052-.072-.052h0l-.071-.052-.07-.052-.069-.052-.068-.053-.067-.052-.066-.052-.065-.053c-.974-.8-1.518-1.514-1.189-1.916l.176-.218a21.555,21.555,0,0,0,7.11,4.029A21.544,21.544,0,0,0,79.63,57.9Zm1.715-9.491a29.375,29.375,0,0,0-1.527,6.6c-1.725.256-4.548-.329-7.278-1.324s-5.264-2.361-6.419-3.665a29.523,29.523,0,0,0,3.072-6.039,33.4,33.4,0,0,0,2-10.383.307.307,0,0,1,.018-.093.678.678,0,0,1,.352-.312,2.037,2.037,0,0,1,.967-.191,1.8,1.8,0,0,1,.545.1l6.148,2.24,6.148,2.24a1.83,1.83,0,0,1,.482.273,2.015,2.015,0,0,1,.613.763.687.687,0,0,1,.069.473.3.3,0,0,1-.046.081A33.4,33.4,0,0,0,81.343,48.536Zm6.873-3.057a2.935,2.935,0,0,1-.455.836,1.324,1.324,0,0,1-1.542.5l-.976-.388a31.043,31.043,0,0,1,2.079-3.566l.3.115a1.446,1.446,0,0,1,.786,1.517A3.289,3.289,0,0,1,88.216,45.479Z"/><path d="M75.315,67.179a22.692,22.692,0,0,0-6.57,0c-1.264.217-2.046.67-2.046,1.307s.782,1.09,2.046,1.307a22.7,22.7,0,0,0,6.57,0c1.264-.217,2.046-.67,2.046-1.307S76.579,67.4,75.315,67.179Z"/></svg>