<svg id="Layer_1" data-name="Layer 1" xmlns="http://www.w3.org/2000/svg" viewBox="0 0 128 128"><title>Artboard 4</title><path d="M81.356,62.315l0,0,0,0A4.353,4.353,0,0,0,87.6,56.248c-.027-.033-.056-.064-.086-.095a4.356,4.356,0,0,0-6.162,0l0,0a4.349,4.349,0,0,0,0,6.159Zm1.953-4.2,0,0,0,0a1.587,1.587,0,0,1,2.244,0l.053.051a1.59,1.59,0,0,1-2.3,2.2l0,0a1.594,1.594,0,0,1-.006-2.244Z"/><path d="M36.7,70.669V99.554a25.019,25.019,0,0,0,2.117,8.375c1.056,2.315,2.505,4.088,4.291,4.117h.087c1.786-.028,3.234-1.8,4.291-4.117A25.025,25.025,0,0,0,49.6,99.554v-28.8H89.917a11.548,11.548,0,0,0,11.518-11.518h0A11.555,11.555,0,0,0,91.3,47.8V17.339a1.386,1.386,0,0,0-1.385-1.385H81.435a13.052,13.052,0,0,0-5.321,1.129l0,0a13.229,13.229,0,0,0-7.843,12.038V47.716H38.083A11.549,11.549,0,0,0,26.565,59.234h0A11.556,11.556,0,0,0,36.7,70.669Zm5.067,37.011c-.146-.276-.293-.578-.438-.9a21.717,21.717,0,0,1-1.857-7.228v-28.8h2.3Zm5.066-8.125a21.711,21.711,0,0,1-1.858,7.228c-.145.318-.292.62-.438.9V70.752h2.3ZM78.066,19.288a10.3,10.3,0,0,1,3.369-.564h7.1V47.716H78.066Zm-7.03,9.834a10.366,10.366,0,0,1,3.055-7.343,10.52,10.52,0,0,1,1.2-1.035V47.716H71.036Zm-41.7,30.111a8.777,8.777,0,0,1,8.747-8.747H89.917a8.776,8.776,0,0,1,8.747,8.747h0a8.776,8.776,0,0,1-8.747,8.747H38.083a8.777,8.777,0,0,1-8.747-8.747Z"/><path d="M40.483,62.309l0,0,0,0a4.342,4.342,0,0,0,6.061.087c.032-.027.064-.056.095-.087a4.349,4.349,0,0,0,.012-6.144l-.012-.012,0,0,0,0a4.35,4.35,0,0,0-6.156,0l0,0,0,0a4.342,4.342,0,0,0-.011,6.138Zm1.956-4.2,0,0a1.593,1.593,0,0,1,2.244-.006l.006.006a1.593,1.593,0,0,1-.006,2.244l-.051.053a1.6,1.6,0,0,1-2.193-.048l-.006-.006a1.6,1.6,0,0,1,0-2.246Z"/></svg>