<svg id="Layer_1" data-name="Layer 1" xmlns="http://www.w3.org/2000/svg" viewBox="0 0 128 128"><title>Artboard 9</title><path d="M107.709,81.863A43.739,43.739,0,0,0,73.821,39.836a9.825,9.825,0,0,0-19.642,0,43.738,43.738,0,0,0-33.888,42.03,8.4,8.4,0,0,0-2.228,1.555c-.03.025-.059.052-.087.08a8.3,8.3,0,0,0-2.445,5.883h0a8.3,8.3,0,0,0,2.439,5.87l.006.007,0,0,0,0a8.3,8.3,0,0,0,5.877,2.446h80.282a8.3,8.3,0,0,0,5.883-2.446l0,0a8.306,8.306,0,0,0,2.448-5.88h0a8.365,8.365,0,0,0-4.76-7.521Zm-48.7-46.738a7.055,7.055,0,0,1,11.994,4.162,43.939,43.939,0,0,0-5.99-.547l-.068,0-.136,0h-.339l-.474,0-.474,0h-.339l-.136,0-.068,0a43.939,43.939,0,0,0-5.99.547A7.036,7.036,0,0,1,59.012,35.125ZM24.6,94.941h-.743a5.536,5.536,0,0,1-3.924-1.628l-.006-.005A5.536,5.536,0,0,1,18.3,89.384h0a5.54,5.54,0,0,1,1.634-3.924c.022-.022.043-.044.063-.067a5.535,5.535,0,0,1,3.86-1.566H24.6Zm8.448,0H27.373V83.826h5.677Zm8.447,0H35.82V83.826H41.5Zm8.447,0H44.267V83.826h5.676Zm8.447,0H52.714V83.826h5.677Zm8.447,0H61.162V83.826h5.676Zm8.447,0H69.609V83.826h5.677Zm8.447,0H78.056V83.826h5.676Zm8.447,0H86.5V83.826H92.18Zm8.447,0H94.95V83.826h5.676ZM93.565,81.055H23.081A40.941,40.941,0,0,1,63.471,41.5h0q.263,0,.526,0t.526,0h0a40.941,40.941,0,0,1,40.389,39.553H93.565ZM109.7,89.384a5.536,5.536,0,0,1-1.628,3.924l0,0,0,0a5.542,5.542,0,0,1-3.924,1.634H103.4V83.826h.744a5.578,5.578,0,0,1,5.557,5.557Z"/></svg>