<svg id="Layer_1" data-name="Layer 1" xmlns="http://www.w3.org/2000/svg" viewBox="0 0 128 128"><title>Artboard 10</title><path d="M44.411,20.382l-.067,0h0l-.028,0H44.3l-.026,0H44.27l-.024,0-.033,0-.012,0-.021,0-.013,0-.02,0-.015,0-.018,0c-.044.01-.087.021-.129.035l-.018.006-.014,0-.018.006-.014,0-.018.007-.013.005-.018.007-.013.006-.018.008-.013.006-.017.008-.013.007-.017.009-.014.007-.016.009-.014.008-.015.009-.014.009-.014.009-.015.009-.014.009-.015.01-.012.008-.016.011-.011.008-.017.012-.009.007-.018.014-.008.007-.019.015-.007.006-.02.017-.005.005-.021.019,0,0-.023.021,0,0-.024.023L37.717,26.5H36.19a1.379,1.379,0,0,0-.831.277H30.116A4.025,4.025,0,0,0,26.1,30.8v72.528a4.025,4.025,0,0,0,4.017,4.016h5.242a1.376,1.376,0,0,0,.831.277h6.493a1.375,1.375,0,0,0,.831-.277H59.689a1.664,1.664,0,0,0,.922.277h6.777a1.667,1.667,0,0,0,.922-.277H84.486a1.375,1.375,0,0,0,.831.277H91.81a1.377,1.377,0,0,0,.831-.277h5.242a4.025,4.025,0,0,0,4.016-4.016V30.8a4.026,4.026,0,0,0-4.016-4.016H92.641a1.38,1.38,0,0,0-.831-.277H90.283l-5.715-5.715-.025-.025-.026-.024-.026-.024-.027-.022-.027-.022-.028-.021-.029-.02-.028-.02-.029-.018-.029-.018-.03-.017-.015-.008-.015-.008h0l-.015-.008-.015-.008-.03-.015-.031-.014-.015-.007-.016-.006h0l-.016-.006-.016-.006h0l-.016-.006-.016-.006-.032-.011-.032-.01-.032-.009-.032-.008-.033-.007-.016,0-.016,0h0l-.017,0-.016,0h0l-.017,0-.016,0-.033,0-.033,0-.033,0H44.411ZM34.8,64.346a4.7,4.7,0,0,0-.8.64l0,0,0,0a4.639,4.639,0,0,0-1.367,3.285v8.2a6.776,6.776,0,0,0,2,4.8c.055.055.111.109.169.163v23.686H30.116a1.807,1.807,0,0,1-1.8-1.8V30.8a1.808,1.808,0,0,1,1.8-1.8H34.8ZM93.2,81.439c.057-.054.114-.108.169-.163a6.775,6.775,0,0,0,2-4.8v-8.2a4.638,4.638,0,0,0-1.283-3.2q-.039-.047-.084-.092a4.71,4.71,0,0,0-.8-.64V29h4.688a1.808,1.808,0,0,1,1.8,1.8v72.528a1.808,1.808,0,0,1-1.8,1.8H93.2ZM80.244,23.153l-5.886,5.886H53.642l-5.886-5.886Zm-8.657,8.657L64,39.4l-7.587-7.587ZM37.575,29.274h.142l3.58,3.58V63.619H37.575ZM41.3,104.847H37.575V83.01a6.76,6.76,0,0,0,1.534.252l.029,0h.6l.029,0A6.756,6.756,0,0,0,41.3,83.01Zm2.164-28.372A4.04,4.04,0,0,1,39.605,80.5h-.338a4.006,4.006,0,0,1-2.214-.784l-.012-.009-.009-.007,0,0-.024-.017-.012-.009h0a4.139,4.139,0,0,1-.4-.351,4.014,4.014,0,0,1-1.184-2.842V73.761h8.05Zm0-5.485h-8.05V68.276a1.887,1.887,0,0,1,.552-1.334l0,0A1.9,1.9,0,0,1,37.1,66.4h.005l.02,0h4.585a1.85,1.85,0,0,1,.484.1h0l0,0,.008,0,.008,0h0l.007,0a1.9,1.9,0,0,1,.679.437l.055.052a1.887,1.887,0,0,1,.5,1.28Zm15.474,34.134H44.068V81.439c.058-.054.114-.108.169-.163a6.776,6.776,0,0,0,2-4.8v-8.2a4.638,4.638,0,0,0-1.283-3.2q-.039-.047-.084-.092a4.706,4.706,0,0,0-.8-.64V35.625L56.9,48.456a1.385,1.385,0,0,0,1.959,0l.077-.077Zm.406-61.069-.012.012-1.451,1.45-14.2-14.2-.013-.013L40.25,27.888l4.162-4.162L52.089,31.4l.013.013,9.94,9.94Zm6.953,60.792H61.706V45.609L64,43.314l2.294,2.294Zm17.638-40.5a4.711,4.711,0,0,0-.8.64l0,0,0,0a4.639,4.639,0,0,0-1.367,3.285v8.2a6.775,6.775,0,0,0,2,4.8c.055.055.111.109.169.163v23.686H69.065V48.379l.077.077a1.385,1.385,0,0,0,1.959,0L83.932,35.625Zm6.493,40.5H86.7V83.01a6.757,6.757,0,0,0,1.533.252l.029,0h.6l.029,0a6.762,6.762,0,0,0,1.533-.252Zm2.164-28.372A4.041,4.041,0,0,1,88.733,80.5h-.338a4.006,4.006,0,0,1-2.214-.784l-.012-.009L86.16,79.7l0,0-.024-.017-.012-.009h0a4.1,4.1,0,0,1-.4-.351,4.013,4.013,0,0,1-1.183-2.842V73.761h8.05ZM90.708,66.389h.131l.03,0h0l.024,0H90.9a1.844,1.844,0,0,1,.415.093l.008,0h0l0,0,.008,0,.008,0h0l.006,0a1.9,1.9,0,0,1,.679.437l.055.052a1.888,1.888,0,0,1,.5,1.28V70.99h-8.05V68.276a1.888,1.888,0,0,1,.552-1.334l0,0a1.9,1.9,0,0,1,1.14-.546h0l.056,0h4.419Zm-.283-37.116V63.619H86.7V32.854l3.581-3.581Zm-2.674-1.385L84.338,31.3l-.012.012-14.2,14.2-1.45-1.45-.013-.013-2.7-2.7L75.9,31.415l.012-.012,7.677-7.677Z"/><circle cx="64" cy="100.391" r="1.298"/><circle cx="64" cy="50.396" r="1.298"/><circle cx="64" cy="83.726" r="1.298"/><circle cx="64" cy="58.728" r="1.298"/><circle cx="64" cy="75.393" r="1.298"/><circle cx="64" cy="92.059" r="1.298"/><circle cx="64" cy="67.061" r="1.298"/></svg>