<svg id="Layer_1" data-name="Layer 1" xmlns="http://www.w3.org/2000/svg" viewBox="0 0 128 128"><title>Artboard 6</title><path d="M80.232,52.142a1.383,1.383,0,0,0-1.937.26c-.006.009-2.377,3.075-.366,6.091.015.023.032.046.048.068a4.571,4.571,0,0,1,.864,1.848,2.1,2.1,0,0,1-.352,1.145,1.382,1.382,0,1,0,2.435,1.309,4.488,4.488,0,0,0,.665-2.713,6.942,6.942,0,0,0-1.308-3.116c-.015-.026-.031-.052-.048-.077a2.641,2.641,0,0,1,.259-2.876A1.383,1.383,0,0,0,80.232,52.142Z"/><path d="M65.865,58.561a4.571,4.571,0,0,1,.864,1.848,2.094,2.094,0,0,1-.352,1.145,1.382,1.382,0,1,0,2.435,1.309,4.484,4.484,0,0,0,.665-2.713,6.939,6.939,0,0,0-1.308-3.116c-.015-.026-.031-.052-.048-.077a2.641,2.641,0,0,1,.259-2.876,1.382,1.382,0,1,0-2.2-1.678c-.006.009-2.377,3.075-.366,6.091C65.832,58.516,65.848,58.539,65.865,58.561Z"/><path d="M109.673,101.68H84.006a14.124,14.124,0,0,0,1.544-1.336,13.942,13.942,0,0,0,4.1-9.7,10.324,10.324,0,0,0-.126-20.478,6.808,6.808,0,0,0-6.656-5.475H76.852V37.5A13.988,13.988,0,0,0,62.9,23.55H51.461A13.988,13.988,0,0,0,37.509,37.5v1.842H30.791a1.386,1.386,0,0,0-1.385,1.385V62.546a1.385,1.385,0,1,0,2.771,0V49.594h5.333v50.33a4.5,4.5,0,0,0,.356,1.756H18.327a1.385,1.385,0,1,0,0,2.771h91.346a1.385,1.385,0,0,0,0-2.771ZM89.656,72.99a7.554,7.554,0,0,1,0,14.851ZM37.509,46.823H32.176v-4.71h5.333ZM40.28,37.5a11.217,11.217,0,0,1,11.181-11.18H62.9A11.217,11.217,0,0,1,74.081,37.5v1.842H40.28Zm0,4.612h33.8v4.71H40.28Zm1.756,59.566h-.022a1.766,1.766,0,0,1-1.734-1.756V49.594h33.8v15.1H63.747a6.8,6.8,0,0,0-6.784,6.784v18.99a13.942,13.942,0,0,0,4.106,9.876l.023.023.022.022.023.023.023.022.022.022.006.006.017.017.023.022.023.022.023.022.023.022.012.012.011.01.023.022.023.022.023.022.023.022.018.017.005,0,.023.022.024.022.023.021.024.022.024.022h0l.022.02.024.021.024.021.024.021.024.021.007.007.016.014.024.021.024.021.024.021.024.021.014.012.01.008.024.021.025.021.024.021.024.021.049.041.024.02.025.02.024.02.049.041.025.02.025.02.025.02.025.02.009.008.016.013.025.02.025.02.025.02.025.02.016.013.009.007.025.02.025.019.025.02.025.019.023.018,0,0,.025.019.025.019.026.019.025.019.026.019,0,0,.021.016Zm33.638,0H70.945A11.248,11.248,0,0,1,59.733,90.468V71.478a4.028,4.028,0,0,1,4.013-4.013H82.872a4.028,4.028,0,0,1,4.013,4.013v18.99A11.248,11.248,0,0,1,75.674,101.68Z"/></svg>