<svg id="Layer_1" data-name="Layer 1" xmlns="http://www.w3.org/2000/svg" viewBox="0 0 128 128"><title>Artboard 7</title><path d="M35.73,94.455a40.635,40.635,0,0,0,12.355,1.5A24.357,24.357,0,0,0,58.82,93.275,12.719,12.719,0,0,0,64,88.231a12.716,12.716,0,0,0,5.18,5.044,24.358,24.358,0,0,0,10.734,2.677,40.632,40.632,0,0,0,12.355-1.5c9.421-2.618,17.99-8.54,20.058-17.085a1.381,1.381,0,0,0-2.456-1.141h0c-6.728,9.144-16.205,3.373-24-1.372C84,73.712,82.2,72.621,80.523,71.77q.186-.107.365-.224a6.461,6.461,0,0,0,2-2.034,5.6,5.6,0,0,0-.286-6.171,44.627,44.627,0,0,0-3.337-4.61c-1.939-2.42-3.371-4.207-4.846-10.245-.087-.508-2.857-16.33-9.841-16.461H64.56v-.006H63.44a1.435,1.435,0,0,0-.21.016c-6.845.41-9.567,15.947-9.653,16.451-1.475,6.038-2.906,7.826-4.845,10.245a44.567,44.567,0,0,0-3.337,4.61,5.6,5.6,0,0,0-.287,6.171,6.462,6.462,0,0,0,2,2.034q.179.117.365.224c-1.681.851-3.472,1.942-5.351,3.086-7.791,4.745-17.268,10.516-24,1.372h0a1.381,1.381,0,0,0-2.456,1.141C17.741,85.914,26.31,91.836,35.73,94.455ZM61.768,73.683q-.38-.38-.792-.726a10.868,10.868,0,0,0,6.047,0q-.412.346-.792.726A12.372,12.372,0,0,0,64,76.727,12.388,12.388,0,0,0,61.768,73.683Zm22.667,3.532c6.915,4.211,15.009,9.138,22.16,5.546-3.433,4.274-9.048,7.36-15.061,9.031a37.864,37.864,0,0,1-11.511,1.4,21.613,21.613,0,0,1-9.5-2.331,9.257,9.257,0,0,1-5.137-8.446,9.577,9.577,0,0,1,9.578-9.578C77.245,72.837,80.644,74.907,84.435,77.215ZM70.869,70.761c.313-.231.543-.358.747-.236Q71.238,70.632,70.869,70.761Zm-23.4-2.677a3.006,3.006,0,0,1,.276-3.281,41.988,41.988,0,0,1,3.142-4.34c2.159-2.694,3.753-4.683,5.373-11.316a1.4,1.4,0,0,0,.044-.182c.007-.04,2.365-13.946,7.087-14.176h1.17v0c4.756.132,7.131,14.139,7.138,14.179a1.4,1.4,0,0,0,.044.182c1.62,6.633,3.214,8.622,5.373,11.316a42.117,42.117,0,0,1,3.142,4.34,3.007,3.007,0,0,1,.276,3.281,3.714,3.714,0,0,1-1.158,1.147,5.221,5.221,0,0,1-1.7.715,3.66,3.66,0,0,1-3.74-1c-1.97-2.506-3.1-1.641-4.955-.215a7.5,7.5,0,0,1-9.949,0c-1.858-1.426-2.986-2.291-4.955.215a3.66,3.66,0,0,1-3.739,1,5.214,5.214,0,0,1-1.7-.715A3.71,3.71,0,0,1,47.468,68.083Zm9.662,2.677c-.246-.086-.494-.165-.747-.236C56.587,70.4,56.817,70.529,57.131,70.761ZM43.565,77.215c3.791-2.308,7.19-4.378,9.472-4.378a9.578,9.578,0,0,1,9.578,9.578,9.257,9.257,0,0,1-5.137,8.446,21.612,21.612,0,0,1-9.5,2.331,37.866,37.866,0,0,1-11.511-1.4c-6.014-1.671-11.629-4.757-15.061-9.031C28.556,86.353,36.65,81.426,43.565,77.215Z"/></svg>