<svg id="Layer_1" data-name="Layer 1" xmlns="http://www.w3.org/2000/svg" viewBox="0 0 128 128"><title>Artboard 11</title><path d="M111.218,82.556,86.963,63.743l-.007,0a4.539,4.539,0,0,0-5.324-.154L25.023,19.679a1.364,1.364,0,0,0-.191-.146,4.543,4.543,0,0,0-6.155.778,1.4,1.4,0,0,0-.152.191l-3.2,4.132a1.381,1.381,0,0,0,1.38,2.2v0l3.094-.666-.923,3.315a1.381,1.381,0,0,0,1.581,1.726l3.5-.557-.9,3.712a1.381,1.381,0,0,0,1.675,1.665l3.145-.635-.969,3.333a1.381,1.381,0,0,0,1.577,1.742l3.455-.547-1.018,3.43a1.382,1.382,0,0,0,1.418,1.768h0l4.1-.287L35.4,48.539A1.381,1.381,0,0,0,36.88,50.28l4.142-.409-.772,4.179a1.382,1.382,0,0,0,1.439,1.627h0l4.289-.252-.776,4.6a1.384,1.384,0,0,0,1.456,1.607l4.441-.309-.731,4.317a1.383,1.383,0,0,0,1.426,1.608l4.55.078L55.17,71.314a1.383,1.383,0,0,0,1.441,1.767L61.3,72.9l-.666,4.974a1.381,1.381,0,0,0,1.476,1.555v0l3.782-.307-1.376,2.588a1.386,1.386,0,0,0,.249,1.634l.767.884a4.541,4.541,0,0,0,1.4,5.334l24.256,18.813.006.005a4.534,4.534,0,0,0,6.321-.777l.023-.03,1.9-2.444a1.381,1.381,0,0,0-.249-1.937l-4.457-3.457-.006-.005a.445.445,0,0,1-.168-.3.453.453,0,0,1,.091-.334v0L103.026,88.3a1.361,1.361,0,0,0,.1-.129.449.449,0,0,1,.263-.127.454.454,0,0,1,.289.06,1.393,1.393,0,0,0,.121.091h0l4.387,3.4a1.381,1.381,0,0,0,1.937-.249l1.9-2.443a4.534,4.534,0,0,0-.806-6.345ZM63.6,76.537l.653-4.872a1.382,1.382,0,0,0-1.414-1.584l-4.475.17,1.144-3.885h0A1.366,1.366,0,0,0,59.561,66,1.38,1.38,0,0,0,58.2,64.6l-4.841-.083.749-4.427a1.383,1.383,0,0,0-1.449-1.647l-4.441.31.772-4.578a1.365,1.365,0,0,0,.016-.308,1.383,1.383,0,0,0-1.461-1.3l-4.263.251.778-4.21a1.381,1.381,0,0,0-1.486-1.663l-3.976.392,1-3.579a1.383,1.383,0,0,0-1.4-1.82l-4.061.284L35.212,38.6h0a1.381,1.381,0,0,0-1.535-1.753l-3.511.555,1-3.434h0a1.38,1.38,0,0,0-1.6-1.737l-3.315.67.872-3.591A1.381,1.381,0,0,0,25.571,27.6l-3.461.55.939-3.372a1.383,1.383,0,0,0-1.6-1.794l-1.624.349.945-1.219,0-.006a1.775,1.775,0,0,1,2.465-.311l0,0L79.767,65.634l-9.524,12.28-1.8,2.322,1.086-2.043h0a1.384,1.384,0,0,0-1.33-2.029Zm46.239,10.675-1.047,1.35-3.374-2.617,0,0-.072-.055v0h0l-.038-.024a3.22,3.22,0,0,0-4.393.657l0,0-.057.072h0l0,.008-8.32,10.726a1.372,1.372,0,0,0-.153.2,3.222,3.222,0,0,0,.543,4.3,1.443,1.443,0,0,0,.2.16l3.284,2.547-.983,1.268a1.357,1.357,0,0,0-.118.149,1.769,1.769,0,0,1-2.353.3,1.349,1.349,0,0,0-.152-.116L68.618,87.383A1.768,1.768,0,0,1,68.3,84.93h0l0,0,0,0,0,0,0,0,0,0h0l0,0,0,0,0,0,0,0,0,0L82.73,66.32a1.47,1.47,0,0,0,.118-.149,1.768,1.768,0,0,1,2.353-.3,1.409,1.409,0,0,0,.153.116L109.53,84.742a1.768,1.768,0,0,1,.308,2.471Z"/><path d="M92.444,75.883,86.022,70.9a2.452,2.452,0,0,0-1.815-.493h0a2.461,2.461,0,0,0-1.638.933L73.2,83.429a2.452,2.452,0,0,0-.493,1.814h0a2.459,2.459,0,0,0,.927,1.638l0,0,0,0,6.421,4.98a2.45,2.45,0,0,0,1.814.493h0a2.458,2.458,0,0,0,1.638-.927l0,0,0,0,9.374-12.086a2.466,2.466,0,0,0-.44-3.452ZM81.51,89.493l-5.946-4.611,9-11.61,5.945,4.612Z"/></svg>