<svg id="Layer_1" data-name="Layer 1" xmlns="http://www.w3.org/2000/svg" viewBox="0 0 128 128"><title>Artboard 2</title><path d="M35.74,62.471a8.779,8.779,0,0,0-6.8,3.418,12.484,12.484,0,0,0-2.686,7.882,1.385,1.385,0,1,0,2.771,0,9.714,9.714,0,0,1,2.058-6.14,5.727,5.727,0,0,1,9.309,0,10.189,10.189,0,0,1,0,12.28A6.05,6.05,0,0,1,35.74,82.3a1.385,1.385,0,0,0,0,2.771,8.778,8.778,0,0,0,6.8-3.418,12.908,12.908,0,0,0,0-15.764A8.779,8.779,0,0,0,35.74,62.471Z"/><path d="M38.786,88.64A10.067,10.067,0,0,1,37.277,89a9.911,9.911,0,0,1-1.538.116,11.145,11.145,0,0,1-8.59-4.386,17.35,17.35,0,0,1-3.688-10.96h0a1.385,1.385,0,0,0-2.771,0h0a20.118,20.118,0,0,0,4.316,12.7A13.876,13.876,0,0,0,35.74,91.888a12.612,12.612,0,0,0,1.96-.159,12.842,12.842,0,0,0,1.93-.459,1.381,1.381,0,1,0-.844-2.63Z"/><path d="M35.74,79.531a4.637,4.637,0,0,0,3.6-1.8,6.457,6.457,0,0,0,0-7.928,4.5,4.5,0,0,0-7.194,0,6.457,6.457,0,0,0,0,7.928A4.636,4.636,0,0,0,35.74,79.531ZM34.285,71.55a1.764,1.764,0,0,1,2.91,0,3.739,3.739,0,0,1,0,4.444,1.764,1.764,0,0,1-2.91,0,3.739,3.739,0,0,1,0-4.444Z"/><path d="M23.364,66.539a1.38,1.38,0,0,0,1.84-.649,14.116,14.116,0,0,1,4.54-5.509,10.419,10.419,0,0,1,6-1.955,11.145,11.145,0,0,1,8.591,4.387,17.347,17.347,0,0,1,3.688,10.96,1.385,1.385,0,1,0,2.771,0,20.117,20.117,0,0,0-4.316-12.7A13.875,13.875,0,0,0,35.74,55.655a13.159,13.159,0,0,0-7.576,2.464,16.887,16.887,0,0,0-5.449,6.58A1.38,1.38,0,0,0,23.364,66.539Z"/><path d="M92.26,47.451H83.482l6.409-14.524.009-.021a1.559,1.559,0,0,0,.1-.291c.25-1.035-.582-2.006-2.129-2.739a24.154,24.154,0,0,0-8.115-1.964c-1.528-.05-2.634.33-3.032,1.15L65.534,47.451H35.74c-6.058,0-11.526,2.987-15.47,7.817a29.3,29.3,0,0,0-6.278,18.5,29.3,29.3,0,0,0,6.278,18.5c3.944,4.83,9.413,7.817,15.47,7.817H92.26c6.058,0,11.526-2.987,15.47-7.817a29.3,29.3,0,0,0,6.279-18.5,29.3,29.3,0,0,0-6.279-18.5C103.786,50.439,98.318,47.451,92.26,47.451ZM67.543,49.466,78.258,31.861l0,0h0l.007,0,.007,0,.007,0,.007,0,.007,0,.007,0,.007,0,.007,0,.006,0h0l.008,0,.007,0,.007,0,.007,0,.015.008.007,0,.007,0,.006,0h0l.007,0,.007,0,.008,0,.007,0,.007,0,.007,0,.008,0,.008,0,.006,0h0l.008,0,.007,0,.008,0,.008,0,.008,0,.008,0,.007,0,.008,0,.006,0h0l.008,0,.007,0,.008,0,.008,0,.008,0,.008,0,.008,0,.008,0,.007,0h0l.008,0,.008,0,.008,0,.008,0,.008,0,.008,0,.008,0,.008,0,.008,0h0l.008,0,.008,0,.008,0,.008,0,.008,0,.008,0,.008,0,.008,0,.008,0a21.56,21.56,0,0,0,3.971,1.334l.063.015.011,0,.053.013.02,0,.043.01.03.007.033.008.04.009.023.006.05.011.072.017h0l.062.014.008,0,.055.012.018,0,.045.01.028.006.034.007.037.008.025.005.047.01.015,0,.123.025h.006l.116.024.025,0,.036.007.035.006.026.006.114.022.006,0,.239.044.033.006.341.059.037.006.03.005c.605.1,1.171.166,1.677.2L80.1,48.255l-.011.024-2.342,5.305c-1.507,1.173-4.4,1.463-7.186,1.235a15.668,15.668,0,0,1-5.489-1.3ZM22.412,90.532a26.53,26.53,0,0,1-5.65-16.761,26.531,26.531,0,0,1,5.65-16.761A17.281,17.281,0,0,1,35.74,50.222a17.28,17.28,0,0,1,13.328,6.789,26.53,26.53,0,0,1,5.65,16.761,26.529,26.529,0,0,1-5.65,16.761A17.281,17.281,0,0,1,35.74,97.321,17.282,17.282,0,0,1,22.412,90.532Zm83.176,0A17.282,17.282,0,0,1,92.26,97.321H45.469l.005,0,.194-.119.042-.026.01-.007.225-.142.021-.013q.221-.143.44-.292l0,0,.046-.031.184-.128.01-.007q.338-.238.669-.49h0l.219-.169.009-.007q.214-.167.424-.341l.01-.008c.144-.119.287-.24.428-.363l0,0,.014-.012.18-.158.019-.017.07-.063q.176-.159.35-.322l0,0,.175-.166.028-.026.06-.058q.161-.156.32-.316L49.657,94l0,0,.034-.035.131-.134.036-.037.048-.051.134-.141.016-.016.018-.019.166-.178.013-.014.151-.166.043-.048.039-.043.143-.162.011-.012.009-.01.08-.092.08-.093.021-.025.009-.01.179-.211h0l.029-.035.157-.19a29.3,29.3,0,0,0,6.278-18.5,29.3,29.3,0,0,0-6.278-18.5l-.157-.19-.029-.035h0l-.179-.211-.009-.01-.021-.025-.08-.093-.08-.092-.009-.01-.011-.012-.143-.162-.039-.043-.043-.048-.151-.166-.013-.014-.166-.178-.018-.019-.016-.016-.134-.141-.048-.051-.036-.037L49.7,53.58l-.034-.035,0,0-.025-.024q-.159-.16-.32-.316l-.06-.057-.028-.026-.175-.166,0,0c-.116-.109-.232-.215-.35-.321l-.07-.063-.019-.017-.18-.158-.014-.012,0,0q-.212-.185-.428-.362L47.971,52q-.21-.173-.424-.341l-.009-.007-.219-.169h0q-.33-.252-.669-.49l-.01-.006-.184-.128-.046-.032,0,0q-.218-.149-.44-.292l-.021-.013-.225-.142-.01-.006-.042-.026-.194-.119-.005,0H63.848l-1.771,2.91a1.383,1.383,0,0,0,.194,1.689l.017.019c.028.031.056.061.086.089,1.294,1.316,4.572,2.372,7.974,2.651,3.453.283,7.174-.2,9.276-1.963l0,0c.065-.055.133-.115.2-.179a1.374,1.374,0,0,0,.329-.46h0l2.1-4.758h10a17.282,17.282,0,0,1,13.328,6.789,26.531,26.531,0,0,1,5.65,16.761A26.53,26.53,0,0,1,105.588,90.532Z"/></svg>