<svg id="Layer_3" data-name="Layer 3" xmlns="http://www.w3.org/2000/svg" viewBox="0 0 128 128"><title>Artboard 98</title><path d="M34.553,67.051H21.52L64,24.812l42.48,42.239-13.033,0V93.534a9.683,9.683,0,0,1-9.656,9.654H44.209a9.683,9.683,0,0,1-9.656-9.654Z" style="fill:#62caef"/><path d="M76.391,70.551V87.612a4.073,4.073,0,0,1-4.062,4.062H55.673a4.074,4.074,0,0,1-4.064-4.062V70.551Z" style="fill:#fcc632"/><circle cx="64.001" cy="78.675" r="3.25" style="fill:#fdfdfd"/><path d="M21.52,68.664H32.94v24.87A11.282,11.282,0,0,0,44.209,104.8H83.791A11.282,11.282,0,0,0,95.06,93.534v-24.9c1.164.03,2.748.03,4.9.031h6.516a1.613,1.613,0,0,0,1.137-2.757L65.137,23.668a1.614,1.614,0,0,0-2.275,0L20.382,65.907a1.613,1.613,0,0,0,1.137,2.757ZM64,27.086l38.571,38.352c-3.732,0-8.828,0-9.1,0a1.65,1.65,0,0,0-1.636,1.613V93.534a8.051,8.051,0,0,1-8.043,8.041H44.209a8.051,8.051,0,0,1-8.043-8.041V67.051a1.613,1.613,0,0,0-1.613-1.613H25.429Z" style="fill:#231f20"/><path d="M55.673,93.287H72.328A5.682,5.682,0,0,0,78,87.612V70.551a1.613,1.613,0,0,0-1.613-1.613h-3.36v-5.4a9.037,9.037,0,0,0-18.06,0v5.4H51.609A1.613,1.613,0,0,0,50,70.551V87.612A5.682,5.682,0,0,0,55.673,93.287ZM58.2,63.541a5.816,5.816,0,0,1,11.608,0v5.4H58.2Zm-4.974,8.622H74.777V87.612a2.452,2.452,0,0,1-2.449,2.449H55.673a2.453,2.453,0,0,1-2.451-2.449Z" style="fill:#231f20"/><path d="M62.387,83.242v3.152a1.613,1.613,0,0,0,3.226,0V83.242a4.862,4.862,0,1,0-3.226,0ZM64,77.038a1.637,1.637,0,1,1-1.635,1.637A1.639,1.639,0,0,1,64,77.038Z" style="fill:#231f20"/></svg>