<svg id="Layer_3" data-name="Layer 3" xmlns="http://www.w3.org/2000/svg" viewBox="0 0 128 128"><title>Artboard 97</title><path d="M81.2,72.3,99.473,90.581a5.6,5.6,0,0,1,0,7.927h0a5.6,5.6,0,0,1-7.928,0l-17.9-17.9" style="fill:#fbca30"/><circle cx="56.159" cy="57.124" r="29.276" style="fill:#63cdee"/><circle cx="56.16" cy="57.124" r="20.641" style="fill:#fdfdfd"/><line x1="90.283" y1="97.245" x2="98.211" y2="89.317" style="fill:#72c597"/><path d="M56.159,88.013a30.713,30.713,0,0,0,17.3-5.312L90.4,99.649a7.219,7.219,0,1,0,10.209-10.208l-1.257-1.257,0-.007-.007,0L83.2,72.025A30.879,30.879,0,1,0,56.159,88.013Zm42.172,9.356a4.087,4.087,0,0,1-5.646,0l-.122-.122L98.21,91.6l.123.123a3.988,3.988,0,0,1,0,5.646Zm-2.4-8.051-5.647,5.647L76.044,80.726a31.123,31.123,0,0,0,5.393-5.9ZM56.159,29.461A27.663,27.663,0,1,1,28.5,57.125,27.7,27.7,0,0,1,56.159,29.461Z" style="fill:#231f20"/><path d="M56.159,79.378A22.254,22.254,0,1,0,33.907,57.125,22.28,22.28,0,0,0,56.159,79.378Zm0-41.282A19.028,19.028,0,1,1,37.133,57.125,19.051,19.051,0,0,1,56.159,38.1Z" style="fill:#231f20"/></svg>