<svg id="Layer_3" data-name="Layer 3" xmlns="http://www.w3.org/2000/svg" viewBox="0 0 128 128"><title>Artboard 101</title><polyline points="58.005 81.515 52.159 96.391 77.663 96.391 71.287 81.515" style="fill:#fdfdfd"/><polygon points="103.015 81.515 24.985 81.515 24.985 25.648 92.313 25.648 103.015 25.648 103.015 35.227 103.015 81.515" style="fill:#64c9eb"/><rect x="24.985" y="72.558" width="78.03" height="8.957" style="fill:#fdfdfd"/><path d="M82.989,102.352h0a5.961,5.961,0,0,0-5.962-5.961H50.973a5.962,5.962,0,0,0-5.962,5.961H82.989Z" style="fill:#fdfdfd"/><circle cx="63.999" cy="49.492" r="12.745" style="fill:#fdc028"/><path d="M24.985,83.128H55.638L51.06,94.778h-.087a7.583,7.583,0,0,0-7.575,7.574,1.613,1.613,0,0,0,1.613,1.613H82.989a1.613,1.613,0,0,0,1.613-1.613,7.571,7.571,0,0,0-5.772-7.333l-5.1-11.891h29.282a1.613,1.613,0,0,0,1.613-1.613V25.648a1.613,1.613,0,0,0-1.613-1.613H24.985a1.613,1.613,0,0,0-1.613,1.613V81.515A1.613,1.613,0,0,0,24.985,83.128Zm56.081,17.611H46.934A4.356,4.356,0,0,1,50.973,98H77.027A4.356,4.356,0,0,1,81.066,100.739Zm-5.849-5.961H54.526L59.1,83.128h11.12ZM71.282,79.9H26.6V74.171h74.8V79.9ZM101.4,27.261V70.945H26.6V27.261Z" style="fill:#231f20"/><path d="M64,63.85A14.358,14.358,0,1,0,49.642,49.492,14.375,14.375,0,0,0,64,63.85Zm0-25.49a11.114,11.114,0,0,1,8.658,4.148,1.5,1.5,0,0,0-.184.1L61.761,51.7l-3.613-5.256a1.613,1.613,0,0,0-2.659,1.827L60.114,55a1.613,1.613,0,0,0,2.373.316L74.3,45.287A11.128,11.128,0,1,1,64,38.36Z" style="fill:#231f20"/></svg>