<svg id="Layer_3" data-name="Layer 3" xmlns="http://www.w3.org/2000/svg" viewBox="0 0 128 128"><title>Artboard 105</title><path d="M77.805,72.56h0a6.053,6.053,0,0,1-8,3.034L39.239,61.834a6.047,6.047,0,0,1-3.034-8h0" style="fill:#e1e1e1"/><path d="M107.63,52.8l-59-26.561a15.127,15.127,0,0,0-20.005,7.583h0a15.131,15.131,0,0,0,7.585,20.008l59,26.561Z" style="fill:#fdc028"/><polygon points="89.265 77.72 101.687 50.129 107.63 53.079 95.476 79.799 89.265 77.72" style="fill:#fdfdfd"/><line x1="35.67" y1="53.834" x2="48.09" y2="26.242" style="fill:#5ab335"/><line x1="53.608" y1="70.367" x2="48.235" y2="81.416" style="fill:#5ab335"/><circle cx="45.774" cy="86.476" r="5.639" style="fill:#e1e1e1"/><path d="M108.293,51.332l-59-26.561A16.738,16.738,0,0,0,34.245,54.643a7.658,7.658,0,0,0,4.332,8.663l13.718,6.176a1.534,1.534,0,0,0-.137.18l-4.749,9.765a7.166,7.166,0,0,0-8.691,5.436H21.983v-15a1.613,1.613,0,0,0-3.226,0V103.1a1.613,1.613,0,1,0,3.226,0V88.088H38.718A7.24,7.24,0,1,0,50.3,80.857l4.758-9.784a1.545,1.545,0,0,0,.08-.311l14,6.3a7.637,7.637,0,0,0,9.3-2.45L88.6,79.189l0,0h0l5.94,2.674a1.613,1.613,0,0,0,2.133-.81L109.1,53.465a1.613,1.613,0,0,0-.808-2.133ZM45.775,90.5A4.026,4.026,0,1,1,49.8,86.475,4.031,4.031,0,0,1,45.775,90.5Zm32.7-19.411-.005,0h-.006L37.893,52.824l11.1-24.649L99.555,50.937l-11.1,24.65Zm-48.7-26.264a13.47,13.47,0,0,1,16.2-17.813L35.025,51.338A13.4,13.4,0,0,1,29.778,44.828ZM70.464,74.122,39.9,60.363A4.414,4.414,0,0,1,37.3,56.094L75.384,73.24A4.437,4.437,0,0,1,70.464,74.122ZM94.4,78.262l-3-1.351,11.1-24.65,3,1.351Z" style="fill:#231f20"/></svg>