<svg id="Layer_3" data-name="Layer 3" xmlns="http://www.w3.org/2000/svg" viewBox="0 0 128 128"><title>Artboard 102</title><path d="M42.333,92.234V61.053A21.667,21.667,0,0,1,64,39.386h0A21.667,21.667,0,0,1,85.667,61.053V92.234" style="fill:#ff5e4c"/><path d="M100.164,100.728a8.494,8.494,0,0,1-8.494,8.494H36.33a8.494,8.494,0,0,1-8.494-8.494h0a8.494,8.494,0,0,1,8.494-8.494H91.67a8.494,8.494,0,0,1,8.494,8.494Z" style="fill:#62caef"/><line x1="37.56" y1="43.308" x2="28.183" y2="35.331" style="fill:#aedb3f"/><line x1="91.998" y1="45.279" x2="101.923" y2="37.998" style="fill:#aedb3f"/><path d="M91.67,90.621H87.28V61.053a23.28,23.28,0,0,0-46.56,0V90.621H36.33a10.107,10.107,0,0,0,0,20.213H91.67a10.107,10.107,0,0,0,0-20.213ZM64,41A20.077,20.077,0,0,1,84.054,61.053V83.5H43.946V61.053A20.076,20.076,0,0,1,64,41ZM43.946,86.724H84.054v3.9H43.946ZM36.33,93.847H91.67a6.879,6.879,0,0,1,6.67,5.267H29.66A6.879,6.879,0,0,1,36.33,93.847Zm55.34,13.761H36.33a6.879,6.879,0,0,1-6.67-5.268H98.34A6.879,6.879,0,0,1,91.67,107.608Z" style="fill:#231f20"/><path d="M65.613,31.091V18.779a1.613,1.613,0,0,0-3.226,0V31.091a1.613,1.613,0,0,0,3.226,0Z" style="fill:#231f20"/><path d="M30.894,65.81A1.613,1.613,0,0,0,29.281,64.2H16.97a1.613,1.613,0,1,0,0,3.226h12.31A1.613,1.613,0,0,0,30.894,65.81Z" style="fill:#231f20"/><path d="M38.789,44.353a1.613,1.613,0,0,0-.183-2.274L29.228,34.1a1.613,1.613,0,0,0-2.09,2.457l9.377,7.977a1.613,1.613,0,0,0,2.274-.184Z" style="fill:#231f20"/><path d="M103.224,37.044a1.61,1.61,0,0,0-2.254-.346l-9.925,7.281a1.613,1.613,0,1,0,1.908,2.6l9.925-7.281A1.612,1.612,0,0,0,103.224,37.044Z" style="fill:#231f20"/><path d="M111.03,64.2H98.719a1.613,1.613,0,0,0,0,3.226h12.31a1.613,1.613,0,1,0,0-3.226Z" style="fill:#231f20"/></svg>