<svg xmlns="http://www.w3.org/2000/svg" data-name="Layer 3" viewBox="0 0 128 128"><path fill="#fbca30" d="m81.2 72.3 18.273 18.281a5.6 5.6 0 0 1 0 7.927 5.6 5.6 0 0 1-7.928 0l-17.9-17.9"/><circle cx="56.159" cy="57.124" r="29.276" fill="#63cdee"/><circle cx="56.16" cy="57.124" r="20.641" fill="#fdfdfd"/><path fill="#72c597" d="M90.283 97.245 98.211 89.317"/><path fill="#231f20" d="M56.159 88.013a30.713 30.713 0 0 0 17.3-5.312L90.4 99.649a7.219 7.219 0 1 0 10.209-10.208l-1.257-1.257v-.007h-.007L83.2 72.025a30.879 30.879 0 1 0-27.041 15.988zm42.172 9.356a4.087 4.087 0 0 1-5.646 0l-.122-.122L98.21 91.6l.123.123a3.988 3.988 0 0 1 0 5.646zm-2.4-8.051-5.647 5.647-14.24-14.239a31.123 31.123 0 0 0 5.393-5.9zM56.159 29.461A27.663 27.663 0 1 1 28.5 57.125a27.7 27.7 0 0 1 27.659-27.664z"/><path fill="#231f20" d="M56.159 79.378a22.254 22.254 0 1 0-22.252-22.253 22.28 22.28 0 0 0 22.252 22.253zm0-41.282a19.028 19.028 0 1 1-19.026 19.029A19.051 19.051 0 0 1 56.159 38.1z"/></svg>