<svg id="Layer_3" data-name="Layer 3" xmlns="http://www.w3.org/2000/svg" viewBox="0 0 128 128"><title>Artboard 99</title><path d="M64,105c46.453-19.761,35.077-73.114,35.077-73.114L64,23,28.923,31.889S17.547,85.242,64,105Z" style="fill:#ff604e"/><path d="M64,94.294C99.537,79.177,90.832,38.363,90.832,38.363L64,31.561l-26.835,6.8S28.463,79.177,64,94.294Z" style="fill:#fdfdfd"/><circle cx="64" cy="61.575" r="13.544" style="fill:#fdc028"/><path d="M63.368,106.488a1.618,1.618,0,0,0,1.263,0c47.13-20.05,36.139-74.388,36.022-74.934a1.611,1.611,0,0,0-1.18-1.227L64.4,21.434a1.612,1.612,0,0,0-.794,0L28.526,30.326a1.611,1.611,0,0,0-1.18,1.227C27.23,32.1,16.238,86.438,63.368,106.488ZM30.312,33.2,64,24.661,97.688,33.2c1.321,7.4,7.427,52.075-33.688,70.046C22.885,85.276,28.991,40.6,30.312,33.2Z" style="fill:#231f20"/><path d="M63.368,95.779a1.618,1.618,0,0,0,1.263,0C100.972,80.32,92.5,38.448,92.409,38.026a1.611,1.611,0,0,0-1.18-1.227L64.4,30a1.612,1.612,0,0,0-.794,0L36.768,36.8a1.612,1.612,0,0,0-1.18,1.227C35.5,38.448,27.028,80.32,63.368,95.779ZM38.559,39.673,64,33.225l25.438,6.448C90.512,45.926,94.606,79.043,64,92.536,33.394,79.043,37.486,45.926,38.559,39.673Z" style="fill:#231f20"/><path d="M64,76.733A15.157,15.157,0,1,0,48.843,61.575,15.174,15.174,0,0,0,64,76.733Zm0-27.088a11.907,11.907,0,0,1,9.347,4.539,1.534,1.534,0,0,0-.279.154L61.6,64.071l-3.9-5.678a1.613,1.613,0,1,0-2.659,1.828l4.915,7.15a1.611,1.611,0,0,0,1.117.685,1.611,1.611,0,0,0,1.257-.369L74.992,56.937A11.931,11.931,0,1,1,64,49.644Z" style="fill:#231f20"/></svg>