<svg xmlns="http://www.w3.org/2000/svg" data-name="Layer 3" viewBox="0 0 128 128"><path fill="#ff604e" d="M64 105c46.453-19.761 35.077-73.114 35.077-73.114L64 23l-35.077 8.889S17.547 85.242 64 105z"/><path fill="#fdfdfd" d="M64 94.294c35.537-15.117 26.832-55.931 26.832-55.931L64 31.561l-26.835 6.8S28.463 79.177 64 94.294z"/><circle cx="64" cy="61.575" r="13.544" fill="#fdc028"/><path fill="#231f20" d="M63.368 106.488a1.618 1.618 0 0 0 1.263 0c47.13-20.05 36.139-74.388 36.022-74.934a1.611 1.611 0 0 0-1.18-1.227L64.4 21.434a1.612 1.612 0 0 0-.794 0l-35.08 8.892a1.611 1.611 0 0 0-1.18 1.227c-.116.547-11.108 54.885 36.022 74.935zM30.312 33.2 64 24.661 97.688 33.2c1.321 7.4 7.427 52.075-33.688 70.046C22.885 85.276 28.991 40.6 30.312 33.2z"/><path fill="#231f20" d="M63.368 95.779a1.618 1.618 0 0 0 1.263 0C100.972 80.32 92.5 38.448 92.409 38.026a1.611 1.611 0 0 0-1.18-1.227L64.4 30a1.612 1.612 0 0 0-.794 0l-26.838 6.8a1.612 1.612 0 0 0-1.18 1.227c-.088.421-8.56 42.293 27.78 57.752zM38.559 39.673 64 33.225l25.438 6.448c1.074 6.253 5.168 39.37-25.438 52.863-30.606-13.493-26.514-46.61-25.441-52.863z"/><path fill="#231f20" d="M64 76.733a15.157 15.157 0 1 0-15.157-15.158A15.174 15.174 0 0 0 64 76.733zm0-27.088a11.907 11.907 0 0 1 9.347 4.539 1.534 1.534 0 0 0-.279.154L61.6 64.071l-3.9-5.678a1.613 1.613 0 1 0-2.659 1.828l4.915 7.15a1.611 1.611 0 0 0 1.117.685 1.611 1.611 0 0 0 1.257-.369l12.662-10.75A11.931 11.931 0 1 1 64 49.644z"/></svg>