<svg xmlns="http://www.w3.org/2000/svg" data-name="Layer 3" viewBox="0 0 128 128"><path fill="#fdc028" d="M67.378 26.77c-5.075 5.073-4.82 13.939-.076 21.887L26.274 89.688a6.986 6.986 0 0 0 9.88 9.88l3.053-3.054 8.449 8.451 7.659-7.665-8.449-8.451 5-5 8.453 8.451 7.659-7.659-8.457-8.441 17.434-17.434c8.248 5.484 17.778 6.032 23.115.695 6.436-6.438 4.338-18.975-4.688-28S73.818 20.33 67.378 26.77z"/><ellipse cx="83.947" cy="42.893" fill="#fdfdfd" rx="6.711" ry="11.093" transform="rotate(-44.995 83.946 42.893)"/><path fill="#e6b012" d="M26.274 99.566 79.202 47.638"/><path fill="#231f20" d="m25.123 100.7.008.009a8.6 8.6 0 0 0 12.162 0l1.914-1.909 7.309 7.31a1.612 1.612 0 0 0 2.281 0l7.659-7.659a1.613 1.613 0 0 0 0-2.281l-7.309-7.311 2.716-2.716 7.312 7.311a1.613 1.613 0 0 0 2.281 0l7.659-7.66a1.612 1.612 0 0 0 0-2.281L61.8 76.2l15.382-15.38A25.833 25.833 0 0 0 90.3 64.8a15.014 15.014 0 0 0 10.908-4.2c7.055-7.057 4.952-20.642-4.688-30.284-5.567-5.569-12.8-8.894-19.353-8.894a15.05 15.05 0 0 0-10.932 4.207c-5.228 5.226-5.563 14.253-.945 22.756L25.134 88.547a8.594 8.594 0 0 0-.014 12.143zm2.292-9.867L68.443 49.8a1.611 1.611 0 0 0 .244-1.967c-4.493-7.525-4.56-15.53-.168-19.919a11.9 11.9 0 0 1 8.651-3.262c5.715 0 12.1 2.972 17.072 7.949 8.382 8.385 10.485 19.924 4.688 25.723a11.861 11.861 0 0 1-8.63 3.248 23.093 23.093 0 0 1-12.454-4.148 1.61 1.61 0 0 0-2.034.2L58.38 75.058a1.612 1.612 0 0 0 0 2.281l7.312 7.309-5.378 5.379L53 82.716a1.613 1.613 0 0 0-2.281 0l-5 5a1.613 1.613 0 0 0 0 2.281l7.309 7.31-5.378 5.378-7.309-7.31a1.613 1.613 0 0 0-2.281 0l-3.053 3.055a5.507 5.507 0 0 1-6.233.94l50.456-49.5a14.514 14.514 0 0 0 8.973 3.81 6.5 6.5 0 0 0 4.723-1.8c1.682-1.682 2.21-4.231 1.485-7.178a17 17 0 0 0-4.582-7.692c-3.068-3.066-6.863-4.9-10.152-4.9a6.492 6.492 0 0 0-4.721 1.8c-3.043 3.045-2.113 8.835 2 13.669l-50.481 49.53a5.3 5.3 0 0 1 .939-6.281zM80.342 46.5c-3.95-3.95-4.8-8.6-3.1-10.309a3.313 3.313 0 0 1 2.44-.853c2.416 0 5.433 1.515 7.871 3.952a13.735 13.735 0 0 1 3.73 6.181c.257 1.047.518 2.976-.633 4.126a3.316 3.316 0 0 1-2.442.853c-2.416-.002-5.431-1.515-7.866-3.95z"/></svg>