<svg id="Layer_3" data-name="Layer 3" xmlns="http://www.w3.org/2000/svg" viewBox="0 0 128 128"><title>Artboard 107</title><path d="M89.468,34.11a9.942,9.942,0,0,1-9.94,9.941H39.417a9.942,9.942,0,0,1-9.94-9.941h0a9.941,9.941,0,0,1,9.94-9.94H79.528a9.94,9.94,0,0,1,9.94,9.94Z" style="fill:#62caef"/><path d="M89.856,59.564a9.94,9.94,0,0,1-9.94,9.941H39.8a9.942,9.942,0,0,1-9.94-9.941h0a9.94,9.94,0,0,1,9.94-9.94H79.916a9.938,9.938,0,0,1,9.94,9.94Z" style="fill:#62caef"/><path d="M74.74,94.959H39.03a9.942,9.942,0,0,1-9.94-9.94h0a9.942,9.942,0,0,1,9.94-9.941H79.141s9.962.277,9.962,6.566V94.959H74.74" style="fill:#62caef"/><path d="M98.91,83.224V99.866a3.975,3.975,0,0,1-3.963,3.963H78.7a3.974,3.974,0,0,1-3.96-3.963V83.224Z" style="fill:#fdc028"/><circle cx="86.825" cy="91.15" r="2.711" style="fill:#fdfdfd"/><path d="M39.417,45.664H79.528a11.553,11.553,0,0,0,0-23.107H39.417a11.553,11.553,0,0,0,0,23.107Zm0-19.881H79.528a8.327,8.327,0,0,1,0,16.655H39.417a8.327,8.327,0,0,1,0-16.655Z" style="fill:#231f20"/><path d="M78.7,105.442H94.947a5.583,5.583,0,0,0,5.576-5.576V83.224a1.612,1.612,0,0,0-1.613-1.613H95.671V76.389a8.638,8.638,0,0,0-7.834-8.437,11.538,11.538,0,0,0-7.921-19.941H39.8a11.553,11.553,0,0,0,0,23.107H79.9a8.4,8.4,0,0,0-1.37,2.347H39.03a11.553,11.553,0,0,0,0,23.107h34.1v3.294A5.581,5.581,0,0,0,78.7,105.442Zm18.6-5.576a2.352,2.352,0,0,1-2.35,2.35H78.7a2.351,2.351,0,0,1-2.347-2.35V84.837H97.3ZM81.2,76.692h.139c.241.006,5.369.221,6.342,4.919H81.2Zm11.244-.3v5.222H90.964c-.776-5.744-5.644-7.76-8.844-8.094a5.716,5.716,0,0,1,4.7-2.4A5.461,5.461,0,0,1,92.445,76.389ZM31.478,59.564A8.335,8.335,0,0,1,39.8,51.238H79.916a8.327,8.327,0,0,1,0,16.655H39.8A8.337,8.337,0,0,1,31.478,59.564ZM39.03,93.346a8.327,8.327,0,0,1,0-16.655H77.975v4.919H74.74a1.612,1.612,0,0,0-1.613,1.613V93.346Z" style="fill:#231f20"/><path d="M86.825,86.366a4.772,4.772,0,0,0-1.613,9.267v3.045a1.613,1.613,0,1,0,3.226,0V95.633a4.772,4.772,0,0,0-1.613-9.267Zm0,3.226a1.557,1.557,0,1,1-1.556,1.556A1.558,1.558,0,0,1,86.825,89.593Z" style="fill:#231f20"/><circle cx="77.603" cy="34.11" r="3.659" style="fill:#231f20"/><circle cx="78.398" cy="59.566" r="3.659" style="fill:#231f20"/></svg>