<svg xmlns="http://www.w3.org/2000/svg" data-name="Layer 3" viewBox="0 0 128 128"><path fill="#ff5e4c" d="M42.333 92.234V61.053A21.667 21.667 0 0 1 64 39.386a21.667 21.667 0 0 1 21.667 21.667v31.181"/><path fill="#62caef" d="M100.164 100.728a8.494 8.494 0 0 1-8.494 8.494H36.33a8.494 8.494 0 0 1-8.494-8.494 8.494 8.494 0 0 1 8.494-8.494h55.34a8.494 8.494 0 0 1 8.494 8.494z"/><path fill="#aedb3f" d="M37.56 43.308 28.183 35.331"/><path fill="#aedb3f" d="M91.998 45.279 101.923 37.998"/><path fill="#231f20" d="M91.67 90.621h-4.39V61.053a23.28 23.28 0 0 0-46.56 0v29.568h-4.39a10.107 10.107 0 0 0 0 20.213h55.34a10.107 10.107 0 0 0 0-20.213zM64 41a20.077 20.077 0 0 1 20.054 20.053V83.5H43.946V61.053A20.076 20.076 0 0 1 64 41zM43.946 86.724h40.108v3.9H43.946zm-7.616 7.123h55.34a6.879 6.879 0 0 1 6.67 5.267H29.66a6.879 6.879 0 0 1 6.67-5.267zm55.34 13.761H36.33a6.879 6.879 0 0 1-6.67-5.268h68.68a6.879 6.879 0 0 1-6.67 5.268zM65.613 31.091V18.779a1.613 1.613 0 0 0-3.226 0v12.312a1.613 1.613 0 0 0 3.226 0zM30.894 65.81a1.613 1.613 0 0 0-1.613-1.61H16.97a1.613 1.613 0 1 0 0 3.226h12.31a1.613 1.613 0 0 0 1.614-1.616zM38.789 44.353a1.613 1.613 0 0 0-.183-2.274L29.228 34.1a1.613 1.613 0 0 0-2.09 2.457l9.377 7.977a1.613 1.613 0 0 0 2.274-.184zM103.224 37.044a1.61 1.61 0 0 0-2.254-.346l-9.925 7.281a1.613 1.613 0 1 0 1.908 2.6l9.925-7.281a1.612 1.612 0 0 0 .346-2.254zM111.03 64.2H98.719a1.613 1.613 0 0 0 0 3.226h12.31a1.613 1.613 0 1 0 0-3.226z"/></svg>