<svg xmlns="http://www.w3.org/2000/svg" data-name="Layer 3" viewBox="0 0 128 128"><path fill="#62caef" d="M34.553 67.051H21.52L64 24.812l42.48 42.239H93.447v26.483a9.683 9.683 0 0 1-9.656 9.654H44.209a9.683 9.683 0 0 1-9.656-9.654z"/><path fill="#fcc632" d="M76.391 70.551v17.061a4.073 4.073 0 0 1-4.062 4.062H55.673a4.074 4.074 0 0 1-4.064-4.062V70.551z"/><circle cx="64.001" cy="78.675" r="3.25" fill="#fdfdfd"/><path fill="#231f20" d="M21.52 68.664h11.42v24.87A11.282 11.282 0 0 0 44.209 104.8h39.582A11.282 11.282 0 0 0 95.06 93.534v-24.9c1.164.03 2.748.03 4.9.031h6.516a1.613 1.613 0 0 0 1.137-2.757l-42.476-42.24a1.614 1.614 0 0 0-2.275 0l-42.48 42.239a1.613 1.613 0 0 0 1.137 2.757zM64 27.086l38.571 38.352h-9.1a1.65 1.65 0 0 0-1.636 1.613v26.483a8.051 8.051 0 0 1-8.043 8.041H44.209a8.051 8.051 0 0 1-8.043-8.041V67.051a1.613 1.613 0 0 0-1.613-1.613h-9.124z"/><path fill="#231f20" d="M55.673 93.287h16.655A5.682 5.682 0 0 0 78 87.612V70.551a1.613 1.613 0 0 0-1.613-1.613h-3.36v-5.4a9.037 9.037 0 0 0-18.06 0v5.4h-3.358A1.613 1.613 0 0 0 50 70.551v17.061a5.682 5.682 0 0 0 5.673 5.675zM58.2 63.541a5.816 5.816 0 0 1 11.608 0v5.4H58.2zm-4.974 8.622h21.551v15.449a2.452 2.452 0 0 1-2.449 2.449H55.673a2.453 2.453 0 0 1-2.451-2.449z"/><path fill="#231f20" d="M62.387 83.242v3.152a1.613 1.613 0 0 0 3.226 0v-3.152a4.862 4.862 0 1 0-3.226 0zM64 77.038a1.637 1.637 0 1 1-1.635 1.637A1.639 1.639 0 0 1 64 77.038z"/></svg>