<svg id="Layer_3" data-name="Layer 3" xmlns="http://www.w3.org/2000/svg" viewBox="0 0 128 128"><title>Artboard 112</title><circle cx="107.228" cy="46.924" r="12.745" style="fill:#fbca11"/><path d="M107.227,78.439A15.383,15.383,0,0,1,91.843,93.822H23.41A15.383,15.383,0,0,1,8.026,78.439h0A15.383,15.383,0,0,1,23.41,63.055H91.843a15.383,15.383,0,0,1,15.384,15.384Z" style="fill:#64c9eb"/><path d="M107.227,32.565a14.358,14.358,0,1,0,14.36,14.36A14.375,14.375,0,0,0,107.227,32.565Zm0,25.49a11.132,11.132,0,1,1,8.656-18.117,1.51,1.51,0,0,0-.183.1l-10.71,9.094-3.614-5.258A1.613,1.613,0,1,0,98.718,45.7l4.625,6.729a1.614,1.614,0,0,0,2.374.317L117.53,42.72a11.119,11.119,0,0,1-10.3,15.335Z" style="fill:#231f20"/><path d="M91.843,61.442H23.41a17,17,0,0,0,0,33.993H91.843a17,17,0,0,0,0-33.993Zm0,30.767H23.41a13.771,13.771,0,0,1,0-27.541H91.843a13.771,13.771,0,1,1,0,27.541Z" style="fill:#231f20"/><path d="M36.947,76.826H35.028l2.3-2.191A1.613,1.613,0,0,0,35.1,72.3l-2.487,2.371v-2.18a1.613,1.613,0,1,0-3.226,0v1.916l-2.188-2.3a1.613,1.613,0,1,0-2.334,2.228l2.371,2.487H25.051a1.613,1.613,0,0,0,0,3.226h1.916l-2.3,2.188A1.613,1.613,0,0,0,26.9,84.574L29.386,82.2v2.183a1.613,1.613,0,1,0,3.226,0V82.467l2.191,2.3a1.613,1.613,0,1,0,2.334-2.227l-2.371-2.487h2.18a1.613,1.613,0,1,0,0-3.226Z" style="fill:#231f20"/><path d="M54.7,76.826H52.781l2.3-2.191A1.613,1.613,0,0,0,52.852,72.3l-2.487,2.371v-2.18a1.613,1.613,0,1,0-3.226,0V74.41l-2.191-2.3a1.613,1.613,0,0,0-2.335,2.228l2.371,2.487H42.8a1.613,1.613,0,0,0,0,3.226H44.72l-2.3,2.188a1.613,1.613,0,0,0,2.227,2.334L47.139,82.2v2.183a1.613,1.613,0,1,0,3.226,0V82.471l2.188,2.3a1.613,1.613,0,0,0,2.334-2.227l-2.371-2.487H54.7a1.613,1.613,0,0,0,0-3.226Z" style="fill:#231f20"/><path d="M72.449,76.826H70.53l2.3-2.191A1.613,1.613,0,0,0,70.6,72.3l-2.487,2.371v-2.18a1.613,1.613,0,1,0-3.226,0v1.916l-2.188-2.3a1.613,1.613,0,1,0-2.334,2.228l2.371,2.487H60.553a1.613,1.613,0,0,0,0,3.226h1.916l-2.3,2.188A1.613,1.613,0,0,0,62.4,84.574L64.888,82.2v2.183a1.613,1.613,0,0,0,3.226,0V82.467l2.191,2.3a1.613,1.613,0,0,0,2.334-2.227l-2.371-2.487h2.18a1.613,1.613,0,0,0,0-3.226Z" style="fill:#231f20"/><path d="M90.2,76.826H88.283l2.3-2.191A1.613,1.613,0,0,0,88.354,72.3l-2.487,2.371v-2.18a1.613,1.613,0,1,0-3.226,0V74.41l-2.191-2.3a1.613,1.613,0,0,0-2.334,2.228l2.371,2.487h-2.18a1.613,1.613,0,0,0,0,3.226h1.916l-2.3,2.188a1.613,1.613,0,0,0,2.227,2.334L82.641,82.2v2.183a1.613,1.613,0,0,0,3.226,0V82.47l2.188,2.3a1.613,1.613,0,1,0,2.334-2.227l-2.371-2.487H90.2a1.613,1.613,0,1,0,0-3.226Z" style="fill:#231f20"/></svg>