<svg id="Layer_3" data-name="Layer 3" xmlns="http://www.w3.org/2000/svg" viewBox="0 0 128 128"><title>Artboard 109</title><rect x="24.279" y="24.279" width="79.441" height="79.441" rx="8.779" ry="8.779" style="fill:#ff5e4c"/><path d="M91.87,80.274v2.818a8.8,8.8,0,0,1-8.779,8.778H44.909a8.8,8.8,0,0,1-8.779-8.778V44.909a8.8,8.8,0,0,1,8.779-8.779H83.092a8.8,8.8,0,0,1,8.779,8.779" style="fill:#fdfdfd"/><circle cx="55.223" cy="64" r="6.256" style="fill:#ff5e4c"/><path d="M99.442,49.9a4.336,4.336,0,0,1-4.337,4.337H88.635A4.336,4.336,0,0,1,84.3,49.9h0a4.335,4.335,0,0,1,4.337-4.335h6.471A4.335,4.335,0,0,1,99.442,49.9Z" style="fill:#e7e7e7"/><path d="M99.442,75.94a4.335,4.335,0,0,1-4.337,4.335H88.635A4.335,4.335,0,0,1,84.3,75.94h0A4.335,4.335,0,0,1,88.635,71.6h6.471a4.335,4.335,0,0,1,4.337,4.337Z" style="fill:#e7e7e7"/><path d="M94.944,22.666H33.057a10.4,10.4,0,0,0-10.39,10.392V94.942a10.4,10.4,0,0,0,10.39,10.392H94.944a10.4,10.4,0,0,0,10.39-10.392V33.058A10.4,10.4,0,0,0,94.944,22.666Zm7.164,72.276a7.173,7.173,0,0,1-7.164,7.166H33.057a7.173,7.173,0,0,1-7.164-7.166V33.058a7.173,7.173,0,0,1,7.164-7.166H94.944a7.173,7.173,0,0,1,7.164,7.166Z" style="fill:#231f20"/><path d="M66.394,62.387H62.806a7.7,7.7,0,0,0-1.085-2.6l2.545-2.537a1.613,1.613,0,1,0-2.278-2.284l-2.545,2.538a7.7,7.7,0,0,0-2.607-1.091V52.829a1.613,1.613,0,1,0-3.226,0v3.587a7.705,7.705,0,0,0-2.6,1.088l-2.558-2.538a1.613,1.613,0,0,0-2.271,2.291l2.549,2.529a7.7,7.7,0,0,0-1.088,2.6H44.05a1.613,1.613,0,0,0,0,3.226h3.587a7.7,7.7,0,0,0,1.09,2.606l-2.55,2.525a1.613,1.613,0,0,0,2.27,2.293L51.011,70.5a7.7,7.7,0,0,0,2.6,1.086v3.587a1.613,1.613,0,1,0,3.226,0V71.584a7.7,7.7,0,0,0,2.612-1.093l2.533,2.546a1.613,1.613,0,0,0,2.287-2.275L61.724,68.2a7.7,7.7,0,0,0,1.082-2.592h3.589a1.613,1.613,0,0,0,0-3.226ZM55.223,68.532A4.532,4.532,0,1,1,59.753,64,4.538,4.538,0,0,1,55.223,68.532Z" style="fill:#231f20"/><path d="M95.106,55.852a5.949,5.949,0,1,0,0-11.9H93.435a10.4,10.4,0,0,0-10.344-9.437H44.909A10.4,10.4,0,0,0,34.517,44.909V83.092A10.4,10.4,0,0,0,44.909,93.483H83.092A10.4,10.4,0,0,0,93.483,83.092v-1.2h1.623a5.949,5.949,0,1,0,0-11.9H93.483V55.852Zm2.724-5.95a2.727,2.727,0,0,1-2.724,2.724H88.635a2.723,2.723,0,1,1,0-5.446h6.471A2.726,2.726,0,0,1,97.829,49.9Zm0,26.038a2.726,2.726,0,0,1-2.724,2.722H91.878l-.008,0-.008,0H88.635a2.723,2.723,0,1,1,0-5.445h6.471A2.727,2.727,0,0,1,97.829,75.94Zm-7.572-5.95H88.635a5.949,5.949,0,1,0,0,11.9h1.622v1.2a7.174,7.174,0,0,1-7.166,7.165H44.909a7.174,7.174,0,0,1-7.166-7.165V44.909a7.174,7.174,0,0,1,7.166-7.166H83.092a7.153,7.153,0,0,1,7.069,6.211H88.635a5.949,5.949,0,1,0,0,11.9h1.622Z" style="fill:#231f20"/></svg>