<svg id="Layer_3" data-name="Layer 3" xmlns="http://www.w3.org/2000/svg" viewBox="0 0 128 128"><title>Artboard 100</title><path d="M88.589,58.635V31.81a8.967,8.967,0,0,0-8.941-8.942h-31.3a8.967,8.967,0,0,0-8.941,8.942V96.19a8.967,8.967,0,0,0,8.941,8.942h31.3a8.967,8.967,0,0,0,8.941-8.942Z" style="fill:#ff5e4c"/><rect x="39.411" y="38.259" width="49.178" height="51.673" style="fill:#fdfdfd"/><path d="M79.648,106.745h-31.3A10.567,10.567,0,0,1,37.8,96.19V31.81A10.567,10.567,0,0,1,48.352,21.255h31.3A10.567,10.567,0,0,1,90.2,31.81V96.19A10.567,10.567,0,0,1,79.648,106.745Zm-31.3-82.264a7.337,7.337,0,0,0-7.328,7.329V96.19a7.337,7.337,0,0,0,7.328,7.329h31.3a7.337,7.337,0,0,0,7.328-7.329V31.81a7.337,7.337,0,0,0-7.328-7.329Z"/><path d="M75.474,60.731v15.8A3.773,3.773,0,0,1,71.712,80.3H56.288a3.773,3.773,0,0,1-3.765-3.763v-15.8Z" style="fill:#fdc028"/><path d="M71.712,81.909H56.288a5.384,5.384,0,0,1-5.378-5.376v-15.8a1.612,1.612,0,0,1,1.613-1.613H75.474a1.613,1.613,0,0,1,1.613,1.613v15.8A5.382,5.382,0,0,1,71.712,81.909ZM54.136,62.344V76.532a2.154,2.154,0,0,0,2.152,2.15H71.712a2.152,2.152,0,0,0,2.149-2.15V62.344Z"/><path d="M70.868,62.344a1.613,1.613,0,0,1-1.613-1.613V54.239a5.268,5.268,0,0,0-10.513,0v6.492a1.613,1.613,0,0,1-3.226,0V54.239a8.489,8.489,0,0,1,16.965,0v6.492A1.613,1.613,0,0,1,70.868,62.344Z"/><circle cx="63.999" cy="68.256" r="3.01" style="fill:#fdfdfd"/><path d="M64,72.878a4.623,4.623,0,1,1,4.622-4.622A4.628,4.628,0,0,1,64,72.878Zm0-6.02a1.4,1.4,0,1,0,1.4,1.4A1.4,1.4,0,0,0,64,66.858Z"/><path d="M64,77.018A1.613,1.613,0,0,1,62.387,75.4v-4.14a1.613,1.613,0,1,1,3.226,0V75.4A1.613,1.613,0,0,1,64,77.018Z"/><path d="M88.589,91.544H39.411a1.613,1.613,0,1,1,0-3.226H88.589a1.613,1.613,0,1,1,0,3.226Z"/><path d="M88.589,39.872H39.411a1.613,1.613,0,1,1,0-3.226H88.589a1.613,1.613,0,1,1,0,3.226Z"/><circle cx="64" cy="97.531" r="4.471"/></svg>