<svg id="Layer_3" data-name="Layer 3" xmlns="http://www.w3.org/2000/svg" viewBox="0 0 128 128"><title>Artboard 108</title><path d="M67.486,83.493H32.847a9.469,9.469,0,0,1-9.442-9.44V38.178a9.47,9.47,0,0,1,9.442-9.44H95.156a9.467,9.467,0,0,1,9.439,9.44V74.053a9.466,9.466,0,0,1-9.439,9.44" style="fill:#64c9eb"/><rect x="23.405" y="41.955" width="81.19" height="8.731" style="fill:#fbca11"/><path d="M94.819,75.962V94.783a4.5,4.5,0,0,1-4.48,4.48H71.969a4.5,4.5,0,0,1-4.483-4.48V75.962Z" style="fill:#fbca11"/><circle cx="81.152" cy="84.926" r="4.301" style="fill:#fdfdfd"/><path d="M32.847,85.106H65.873v9.677a6.1,6.1,0,0,0,6.1,6.093h18.37a6.1,6.1,0,0,0,6.093-6.093V85.027a11.064,11.064,0,0,0,9.776-10.974V38.177A11.065,11.065,0,0,0,95.156,27.124H32.847A11.066,11.066,0,0,0,21.792,38.177V74.053A11.066,11.066,0,0,0,32.847,85.106Zm60.359,9.677a2.869,2.869,0,0,1-2.867,2.867H71.969a2.871,2.871,0,0,1-2.87-2.867V77.575H93.206ZM87.721,74.349H74.584V68.23a6.582,6.582,0,0,1,13.137,0Zm-62.7-30.781h77.964v5.506H25.018ZM32.847,30.35H95.156a7.836,7.836,0,0,1,7.826,7.827v2.164H25.018V38.177A7.837,7.837,0,0,1,32.847,30.35ZM25.018,52.3h77.964V74.053a7.822,7.822,0,0,1-6.55,7.7V75.962a1.612,1.612,0,0,0-1.613-1.613H90.947V68.23a9.8,9.8,0,0,0-19.589,0v6.12H67.486a1.612,1.612,0,0,0-1.613,1.613V81.88H32.847a7.837,7.837,0,0,1-7.829-7.827Z" style="fill:#231f20"/><path d="M33.083,75.666H58.806a1.613,1.613,0,0,0,0-3.226H33.083a1.613,1.613,0,0,0,0,3.226Z" style="fill:#231f20"/><path d="M81.152,79.727a5.184,5.184,0,0,0-1.613,10.114v3.6a1.613,1.613,0,1,0,3.226,0v-3.6a5.184,5.184,0,0,0-1.613-10.114Zm0,7.17a1.972,1.972,0,1,1,1.972-1.972A1.973,1.973,0,0,1,81.152,86.9Z" style="fill:#231f20"/></svg>