<svg xmlns="http://www.w3.org/2000/svg" data-name="Layer 3" viewBox="0 0 128 128"><circle cx="107.228" cy="46.924" r="12.745" fill="#fbca11"/><path fill="#64c9eb" d="M107.227 78.439a15.383 15.383 0 0 1-15.384 15.383H23.41A15.383 15.383 0 0 1 8.026 78.439 15.383 15.383 0 0 1 23.41 63.055h68.433a15.383 15.383 0 0 1 15.384 15.384z"/><path fill="#231f20" d="M107.227 32.565a14.358 14.358 0 1 0 14.36 14.36 14.375 14.375 0 0 0-14.36-14.36zm0 25.49a11.132 11.132 0 1 1 8.656-18.117 1.51 1.51 0 0 0-.183.1l-10.71 9.094-3.614-5.258a1.613 1.613 0 1 0-2.658 1.826l4.625 6.729a1.614 1.614 0 0 0 2.374.317L117.53 42.72a11.119 11.119 0 0 1-10.3 15.335zM91.843 61.442H23.41a17 17 0 0 0 0 33.993h68.433a17 17 0 0 0 0-33.993zm0 30.767H23.41a13.771 13.771 0 0 1 0-27.541h68.433a13.771 13.771 0 1 1 0 27.541z"/><path fill="#231f20" d="M36.947 76.826h-1.919l2.3-2.191A1.613 1.613 0 0 0 35.1 72.3l-2.487 2.371v-2.18a1.613 1.613 0 1 0-3.226 0v1.916l-2.188-2.3a1.613 1.613 0 1 0-2.334 2.228l2.371 2.487h-2.185a1.613 1.613 0 0 0 0 3.226h1.916l-2.3 2.188a1.613 1.613 0 0 0 2.233 2.338l2.486-2.374v2.183a1.613 1.613 0 1 0 3.226 0v-1.916l2.191 2.3a1.613 1.613 0 1 0 2.334-2.227l-2.371-2.487h2.18a1.613 1.613 0 1 0 0-3.226zM54.7 76.826h-1.919l2.3-2.191a1.613 1.613 0 0 0-2.229-2.335l-2.487 2.371v-2.18a1.613 1.613 0 1 0-3.226 0v1.919l-2.191-2.3a1.613 1.613 0 0 0-2.335 2.228l2.371 2.487H42.8a1.613 1.613 0 0 0 0 3.226h1.92l-2.3 2.188a1.613 1.613 0 0 0 2.227 2.334l2.492-2.373v2.183a1.613 1.613 0 1 0 3.226 0v-1.912l2.188 2.3a1.613 1.613 0 0 0 2.334-2.227l-2.371-2.487H54.7a1.613 1.613 0 0 0 0-3.226zM72.449 76.826H70.53l2.3-2.191A1.613 1.613 0 0 0 70.6 72.3l-2.487 2.371v-2.18a1.613 1.613 0 1 0-3.226 0v1.916l-2.188-2.3a1.613 1.613 0 1 0-2.334 2.228l2.371 2.487h-2.183a1.613 1.613 0 0 0 0 3.226h1.916l-2.3 2.188a1.613 1.613 0 0 0 2.231 2.338l2.488-2.374v2.183a1.613 1.613 0 0 0 3.226 0v-1.916l2.191 2.3a1.613 1.613 0 0 0 2.334-2.227l-2.371-2.487h2.18a1.613 1.613 0 0 0 0-3.226zM90.2 76.826h-1.917l2.3-2.191a1.613 1.613 0 0 0-2.229-2.335l-2.487 2.371v-2.18a1.613 1.613 0 1 0-3.226 0v1.919l-2.191-2.3a1.613 1.613 0 0 0-2.334 2.228l2.371 2.487h-2.18a1.613 1.613 0 0 0 0 3.226h1.916l-2.3 2.188a1.613 1.613 0 0 0 2.227 2.334l2.491-2.373v2.183a1.613 1.613 0 0 0 3.226 0V82.47l2.188 2.3a1.613 1.613 0 1 0 2.334-2.227l-2.371-2.487H90.2a1.613 1.613 0 1 0 0-3.226z"/></svg>