<svg xmlns="http://www.w3.org/2000/svg" data-name="Layer 3" viewBox="0 0 128 128"><path fill="#64c9eb" d="M67.486 83.493H32.847a9.469 9.469 0 0 1-9.442-9.44V38.178a9.47 9.47 0 0 1 9.442-9.44h62.309a9.467 9.467 0 0 1 9.439 9.44v35.875a9.466 9.466 0 0 1-9.439 9.44"/><path fill="#fbca11" d="M23.405 41.955H104.595V50.686H23.405z"/><path fill="#fbca11" d="M94.819 75.962v18.821a4.5 4.5 0 0 1-4.48 4.48h-18.37a4.5 4.5 0 0 1-4.483-4.48V75.962z"/><circle cx="81.152" cy="84.926" r="4.301" fill="#fdfdfd"/><path fill="#231f20" d="M32.847 85.106h33.026v9.677a6.1 6.1 0 0 0 6.1 6.093h18.37a6.1 6.1 0 0 0 6.093-6.093v-9.756a11.064 11.064 0 0 0 9.776-10.974V38.177a11.065 11.065 0 0 0-11.056-11.053H32.847a11.066 11.066 0 0 0-11.055 11.053v35.876a11.066 11.066 0 0 0 11.055 11.053zm60.359 9.677a2.869 2.869 0 0 1-2.867 2.867h-18.37a2.871 2.871 0 0 1-2.87-2.867V77.575h24.107zm-5.485-20.434H74.584V68.23a6.582 6.582 0 0 1 13.137 0zm-62.7-30.781h77.964v5.506H25.018zm7.826-13.218h62.309a7.836 7.836 0 0 1 7.826 7.827v2.164H25.018v-2.164a7.837 7.837 0 0 1 7.829-7.827zM25.018 52.3h77.964v21.753a7.822 7.822 0 0 1-6.55 7.7v-5.791a1.612 1.612 0 0 0-1.613-1.613h-3.872V68.23a9.8 9.8 0 0 0-19.589 0v6.12h-3.872a1.612 1.612 0 0 0-1.613 1.613v5.917H32.847a7.837 7.837 0 0 1-7.829-7.827z"/><path fill="#231f20" d="M33.083 75.666h25.723a1.613 1.613 0 0 0 0-3.226H33.083a1.613 1.613 0 0 0 0 3.226zM81.152 79.727a5.184 5.184 0 0 0-1.613 10.114v3.6a1.613 1.613 0 1 0 3.226 0v-3.6a5.184 5.184 0 0 0-1.613-10.114zm0 7.17a1.972 1.972 0 1 1 1.972-1.972 1.973 1.973 0 0 1-1.972 1.975z"/></svg>