<svg id="Layer_3" data-name="Layer 3" xmlns="http://www.w3.org/2000/svg" viewBox="0 0 128 128"><title>Artboard 112</title><path d="M46.865,50.718,62.629,61.6a2.863,2.863,0,0,1,.047,4.742L46.865,77.266C44.378,78.983,31.295,88.7,29.427,88.7a2.871,2.871,0,0,1-2.871-2.871V42.153h.009A2.862,2.862,0,0,1,31.053,39.8Z" style="fill:#faf298"/><path d="M84.4,50.718,100.169,61.6a2.863,2.863,0,0,1,.047,4.742L84.4,77.266,68.78,88.056A2.871,2.871,0,0,1,64.1,85.83V42.153h.009A2.862,2.862,0,0,1,68.593,39.8Z" style="fill:#faf298"/><path d="M103.05,60.912a5.441,5.441,0,0,0-1.467-1.443v0L85.859,48.612,70.047,37.693a5.434,5.434,0,0,0-8.26,2.848,5.347,5.347,0,0,0-.225,1.2,2.6,2.6,0,0,0-.033.412V57.735L48.319,48.612,32.512,37.7l-.005,0a5.42,5.42,0,0,0-7.532,1.37l-.008.011a5.413,5.413,0,0,0-.719,1.466,5.334,5.334,0,0,0-.224,1.2,2.565,2.565,0,0,0-.034.415V85.83A5.417,5.417,0,0,0,25.4,89.477a2.622,2.622,0,0,0,.178.2,5.421,5.421,0,0,0,3.845,1.593c2.329,0,11.709-6.746,16.566-10.239,1.02-.733,1.821-1.31,2.325-1.658l13.211-9.123V85.83a5.411,5.411,0,0,0,1.593,3.835l.01.01a5.412,5.412,0,0,0,7.173.437l15.553-10.74,15.81-10.919h0a5.42,5.42,0,0,0,1.38-7.538ZM61.222,64.241,45.411,75.16c-.426.294-1.3.921-2.406,1.718-4.391,3.158-12.871,9.256-13.578,9.256a.3.3,0,0,1-.215-.089L29.17,86a.325.325,0,0,1-.046-.173V42.367c.006-.07.009-.142.009-.214V42.1l.01-.034.011-.032c.024-.033.048-.067.07-.1a.3.3,0,0,1,.319-.058,2.691,2.691,0,0,0,.228.148l15.642,10.8L61.175,63.71l.042.028v0a.3.3,0,0,1,.043.032.337.337,0,0,1,.041.047.3.3,0,0,1-.077.421Zm37.54,0,0,0L82.951,75.16,67.326,85.95c-.056.039-.11.08-.162.122a.294.294,0,0,1-.087.047.342.342,0,0,1-.11.015.287.287,0,0,1-.3-.3V42.364c.006-.069.009-.139.009-.21V42.1l.009-.034a.312.312,0,0,1,.037-.083.3.3,0,0,1,.421-.078l15.812,10.92L98.715,63.71l.042.028v0a.332.332,0,0,1,.042.031.325.325,0,0,1,.041.048v0a.3.3,0,0,1,.048.224A.3.3,0,0,1,98.762,64.24Z" style="fill:#5f717f"/></svg>