<svg xmlns="http://www.w3.org/2000/svg" data-name="Layer 3" viewBox="0 0 128 128"><rect width="61.02" height="81.01" x="33.49" y="23.495" fill="#9da7b0" rx="4.598" ry="4.598"/><rect width="59.02" height="79.01" x="34.49" y="24.495" fill="#9da7b0" rx="3.598" ry="3.598"/><path fill="#fbcfc1" d="M71.1 72.959a9.983 9.983 0 0 0-14.21 0 10.291 10.291 0 0 0 0 14.409 9.983 9.983 0 0 0 14.21 0 10.292 10.292 0 0 0 0-14.41zm-7.1-8.1a15.062 15.062 0 0 1 10.735 4.494 15.374 15.374 0 0 1 0 21.629 15.067 15.067 0 0 1-21.469 0 15.374 15.374 0 0 1 0-21.629A15.06 15.06 0 0 1 64 64.855zM68.413 39.505a6.2 6.2 0 0 0-8.825 0 6.418 6.418 0 0 0 0 8.97 6.2 6.2 0 0 0 8.825 0 6.418 6.418 0 0 0 0-8.97zM64 32.528a11.284 11.284 0 0 1 8.042 3.372 11.5 11.5 0 0 1 0 16.19 11.287 11.287 0 0 1-16.084 0 11.5 11.5 0 0 1 0-16.19A11.282 11.282 0 0 1 64 32.528z"/><ellipse cx="64" cy="43.99" fill="#fff" rx="2.381" ry="2.405"/><ellipse cx="64" cy="80.164" fill="#fff" rx="3.036" ry="3.066"/><path fill="#5f717f" d="M31.923 99.907a6.152 6.152 0 0 0 1.809 4.346 6.152 6.152 0 0 0 4.346 1.809h51.834a6.176 6.176 0 0 0 6.165-6.165V28.093a6.176 6.176 0 0 0-6.165-6.165H38.088a6.148 6.148 0 0 0-4.356 1.809 6.152 6.152 0 0 0-1.814 4.351zm5.134-71.814a1.022 1.022 0 0 1 .295-.726h.01a1.027 1.027 0 0 1 .726-.3h51.824a1.04 1.04 0 0 1 1.031 1.031v71.809a1.04 1.04 0 0 1-1.031 1.031H38.088a1.021 1.021 0 0 1-.726-.295l-.01-.01a1.021 1.021 0 0 1-.295-.726z"/></svg>