<svg id="Layer_3" data-name="Layer 3" xmlns="http://www.w3.org/2000/svg" viewBox="0 0 128 128"><title>Artboard 100</title><path d="M39.038,46.127a2.567,2.567,0,1,1,0-5.134h7.929a2.567,2.567,0,0,1,0,5.134Z" style="fill:#fff"/><path d="M39.038,54.3a2.567,2.567,0,0,1,0-5.134h7.929a2.567,2.567,0,0,1,0,5.134Z" style="fill:#fff"/><path d="M39.038,62.479a2.567,2.567,0,1,1,0-5.134h7.929a2.567,2.567,0,0,1,0,5.134Z" style="fill:#fff"/><path d="M39.038,70.655a2.567,2.567,0,0,1,0-5.134h7.929a2.567,2.567,0,0,1,0,5.134Z" style="fill:#fff"/><path d="M39.038,78.831a2.567,2.567,0,1,1,0-5.134h7.929a2.567,2.567,0,0,1,0,5.134Z" style="fill:#fff"/><path d="M39.038,87.007a2.567,2.567,0,1,1,0-5.134h7.929a2.567,2.567,0,0,1,0,5.134Z" style="fill:#fff"/><path d="M60.036,70.655a2.567,2.567,0,0,1,0-5.134h7.929a2.567,2.567,0,0,1,0,5.134Z" style="fill:#fff"/><path d="M60.036,78.831a2.567,2.567,0,1,1,0-5.134h7.929a2.567,2.567,0,0,1,0,5.134Z" style="fill:#fff"/><path d="M60.036,87.007a2.567,2.567,0,0,1,0-5.134h7.929a2.567,2.567,0,0,1,0,5.134Z" style="fill:#fff"/><path d="M81.033,54.3a2.567,2.567,0,0,1,0-5.134h7.929a2.567,2.567,0,0,1,0,5.134Z" style="fill:#fff"/><path d="M81.033,62.479a2.567,2.567,0,1,1,0-5.134h7.929a2.567,2.567,0,0,1,0,5.134Z" style="fill:#fff"/><path d="M81.033,70.655a2.567,2.567,0,0,1,0-5.134h7.929a2.567,2.567,0,0,1,0,5.134Z" style="fill:#fff"/><path d="M81.033,78.831a2.567,2.567,0,1,1,0-5.134h7.929a2.567,2.567,0,0,1,0,5.134Z" style="fill:#fff"/><path d="M81.033,87.007a2.567,2.567,0,0,1,0-5.134h7.929a2.567,2.567,0,0,1,0,5.134Z" style="fill:#fff"/><path d="M46.967,46.127H39.038a2.567,2.567,0,1,1,0-5.134h7.929a2.567,2.567,0,0,1,0,5.134ZM39.038,57.345h7.929a2.567,2.567,0,0,1,0,5.134H39.038a2.567,2.567,0,1,1,0-5.134Zm0,24.528h7.929a2.567,2.567,0,0,1,0,5.134H39.038a2.567,2.567,0,1,1,0-5.134Zm0-8.176h7.929a2.567,2.567,0,0,1,0,5.134H39.038a2.567,2.567,0,1,1,0-5.134Zm7.929-8.176a2.567,2.567,0,0,1,0,5.134H39.038a2.567,2.567,0,0,1,0-5.134Zm10.5,18.919a2.567,2.567,0,0,1,2.567-2.567h7.929a2.567,2.567,0,0,1,0,5.134H60.036A2.567,2.567,0,0,1,57.469,84.44Zm0-8.176A2.567,2.567,0,0,1,60.036,73.7h7.929a2.567,2.567,0,0,1,0,5.134H60.036A2.567,2.567,0,0,1,57.469,76.264ZM81.033,54.3a2.567,2.567,0,0,1,0-5.134h7.929a2.567,2.567,0,0,1,0,5.134Zm0,8.176a2.567,2.567,0,1,1,0-5.134h7.929a2.567,2.567,0,0,1,0,5.134Zm0,8.176a2.567,2.567,0,0,1,0-5.134h7.929a2.567,2.567,0,0,1,0,5.134Zm0,8.176a2.567,2.567,0,1,1,0-5.134h7.929a2.567,2.567,0,0,1,0,5.134Zm0,8.176a2.567,2.567,0,0,1,0-5.134h7.929a2.567,2.567,0,0,1,0,5.134ZM67.964,65.521a2.567,2.567,0,0,1,0,5.134H60.036a2.567,2.567,0,0,1,0-5.134ZM29.155,43.583V84.417a9.628,9.628,0,0,0,9.594,9.594h50.5a9.628,9.628,0,0,0,9.593-9.594V43.583a9.628,9.628,0,0,0-9.593-9.594h-50.5a9.628,9.628,0,0,0-9.594,9.594Zm17.812,5.585a2.567,2.567,0,0,1,0,5.134H39.038a2.567,2.567,0,0,1,0-5.134Z" style="fill:#f6a6a1;fill-rule:evenodd"/><path d="M38.749,99.144h50.5a14.764,14.764,0,0,0,14.727-14.728V43.583A14.764,14.764,0,0,0,89.252,28.856h-50.5A14.764,14.764,0,0,0,24.021,43.583V84.416A14.764,14.764,0,0,0,38.749,99.144ZM29.155,43.583a9.628,9.628,0,0,1,9.594-9.594h50.5a9.628,9.628,0,0,1,9.593,9.594V84.416a9.628,9.628,0,0,1-9.593,9.594h-50.5a9.628,9.628,0,0,1-9.594-9.594Z" style="fill:#5f717f"/></svg>