<svg id="Layer_3" data-name="Layer 3" xmlns="http://www.w3.org/2000/svg" viewBox="0 0 128 128"><title>Artboard 105</title><rect x="33.49" y="23.495" width="61.02" height="81.01" rx="4.598" ry="4.598" style="fill:#9da7b0"/><rect x="34.49" y="24.495" width="59.02" height="79.01" rx="3.598" ry="3.598" style="fill:#9da7b0"/><path d="M71.1,72.959a9.983,9.983,0,0,0-14.21,0,10.291,10.291,0,0,0,0,14.409,9.983,9.983,0,0,0,14.21,0,10.292,10.292,0,0,0,0-14.41Zm-7.1-8.1a15.062,15.062,0,0,1,10.735,4.494,15.374,15.374,0,0,1,0,21.629,15.067,15.067,0,0,1-21.469,0,15.374,15.374,0,0,1,0-21.629A15.06,15.06,0,0,1,64,64.855Z" style="fill:#fbcfc1"/><path d="M68.413,39.505a6.2,6.2,0,0,0-8.825,0,6.418,6.418,0,0,0,0,8.97,6.2,6.2,0,0,0,8.825,0,6.418,6.418,0,0,0,0-8.97ZM64,32.528A11.284,11.284,0,0,1,72.042,35.9a11.5,11.5,0,0,1,0,16.19,11.287,11.287,0,0,1-16.084,0,11.5,11.5,0,0,1,0-16.19A11.282,11.282,0,0,1,64,32.528Z" style="fill:#fbcfc1"/><ellipse cx="64" cy="43.99" rx="2.381" ry="2.405" style="fill:#fff"/><ellipse cx="64" cy="80.164" rx="3.036" ry="3.066" style="fill:#fff"/><path d="M31.923,99.907a6.152,6.152,0,0,0,1.809,4.346l0,0,0,0a6.152,6.152,0,0,0,4.346,1.809H89.912a6.176,6.176,0,0,0,6.165-6.165V28.093a6.176,6.176,0,0,0-6.165-6.165H38.088a6.148,6.148,0,0,0-4.356,1.809l0,0a6.152,6.152,0,0,0-1.814,4.351Zm5.134-71.814a1.022,1.022,0,0,1,.295-.726h.01a1.027,1.027,0,0,1,.726-.3H89.912a1.04,1.04,0,0,1,1.031,1.031V99.907a1.04,1.04,0,0,1-1.031,1.031H38.088a1.021,1.021,0,0,1-.726-.295l-.01-.01a1.021,1.021,0,0,1-.295-.726Z" style="fill:#5f717f"/></svg>