<svg id="Layer_3" data-name="Layer 3" xmlns="http://www.w3.org/2000/svg" viewBox="0 0 128 128"><title>Artboard 108</title><rect x="36.004" y="28.191" width="20.48" height="71.618" rx="1.248" ry="1.248" style="fill:#bedef4"/><rect x="71.516" y="28.191" width="20.48" height="71.618" rx="1.248" ry="1.248" style="fill:#bedef4"/><path d="M55.236,25.624H37.253a3.807,3.807,0,0,0-2.7,1.119v.01a3.8,3.8,0,0,0-1.119,2.687V98.561a3.807,3.807,0,0,0,1.119,2.687l0,0,0,0a3.806,3.806,0,0,0,2.687,1.119H55.236a3.806,3.806,0,0,0,2.687-1.119l0,0,0,0a3.807,3.807,0,0,0,1.119-2.687V29.439a3.8,3.8,0,0,0-1.119-2.687v-.01A3.806,3.806,0,0,0,55.236,25.624ZM53.917,97.242H38.571V30.758H53.917Z" style="fill:#5f717f"/><path d="M90.747,25.624H72.764a3.806,3.806,0,0,0-2.7,1.119v.01a3.8,3.8,0,0,0-1.119,2.687V98.561a3.807,3.807,0,0,0,1.119,2.687l0,0,0,0a3.806,3.806,0,0,0,2.687,1.119H90.747a3.806,3.806,0,0,0,2.687-1.119l0,0,0,0a3.807,3.807,0,0,0,1.119-2.687V29.439a3.8,3.8,0,0,0-1.119-2.687v-.01A3.806,3.806,0,0,0,90.747,25.624ZM89.428,97.242H74.083V30.758H89.428Z" style="fill:#5f717f"/></svg>