<svg id="Layer_3" data-name="Layer 3" xmlns="http://www.w3.org/2000/svg" viewBox="0 0 128 128"><title>Artboard 107</title><path d="M38.749,31.423h50.5a12.16,12.16,0,0,1,12.16,12.16V84.417A12.161,12.161,0,0,1,89.252,96.577h-50.5A12.161,12.161,0,0,1,26.588,84.416V43.584A12.161,12.161,0,0,1,38.749,31.423Z" style="fill:#fff"/><rect x="37.748" y="30.423" width="11.715" height="41.965" rx="4.746" ry="4.746" style="fill:#9da7b0"/><rect x="38.749" y="31.423" width="9.714" height="39.965" rx="3.746" ry="3.746" style="fill:#9da7b0"/><path d="M62.889,30.423h2.223a4.746,4.746,0,0,1,4.746,4.746V67.642a4.746,4.746,0,0,1-4.746,4.746H62.89a4.746,4.746,0,0,1-4.746-4.746V35.168A4.745,4.745,0,0,1,62.889,30.423Z" style="fill:#9da7b0"/><rect x="59.143" y="31.423" width="9.714" height="39.965" rx="3.746" ry="3.746" style="fill:#9da7b0"/><path d="M83.283,30.423h2.223a4.746,4.746,0,0,1,4.746,4.746V67.643a4.745,4.745,0,0,1-4.745,4.745H83.283a4.746,4.746,0,0,1-4.746-4.746V35.169a4.746,4.746,0,0,1,4.746-4.746Z" style="fill:#9da7b0"/><rect x="79.538" y="31.423" width="9.715" height="39.965" rx="3.746" ry="3.746" style="fill:#9da7b0"/><path d="M89.252,28.856h-50.5A14.765,14.765,0,0,0,24.021,43.583V84.416A14.765,14.765,0,0,0,38.749,99.144h50.5a14.764,14.764,0,0,0,14.727-14.728V43.583A14.764,14.764,0,0,0,89.252,28.856Zm-43.08,44.8a6.272,6.272,0,0,0,3-1.557l0,0,0,0a6.285,6.285,0,0,0,1.852-4.451V35.168a5.967,5.967,0,0,0-.239-1.179h6.026a5.94,5.94,0,0,0-.24,1.179V67.642a6.29,6.29,0,0,0,1.684,4.275c.052.064.108.126.168.185a6.272,6.272,0,0,0,3,1.557V94.01H46.172Zm20.395,0a6.27,6.27,0,0,0,3-1.557l0,0,0,0a6.285,6.285,0,0,0,1.852-4.451V35.168A5.958,5.958,0,0,0,71.2,33.99H77.21a5.967,5.967,0,0,0-.239,1.179V67.642a6.279,6.279,0,0,0,1.691,4.283c.05.061.1.12.161.177a6.272,6.272,0,0,0,3,1.557V94.01H66.567ZM85.507,33.99a1.176,1.176,0,0,1,.83.348l.073.07a1.184,1.184,0,0,1,.275.76V67.642a1.188,1.188,0,0,1-.343.836l0-.005a1.174,1.174,0,0,1-.83.348H83.283a1.173,1.173,0,0,1-.83-.348l-.073-.07a1.186,1.186,0,0,1-.275-.761V35.168a1.189,1.189,0,0,1,1.179-1.179Zm-20.395,0a1.176,1.176,0,0,1,.83.348l.073.07a1.184,1.184,0,0,1,.275.76V67.642a1.188,1.188,0,0,1-.343.836l0-.005a1.174,1.174,0,0,1-.83.348H62.889a1.174,1.174,0,0,1-.83-.348l-.079-.075a1.174,1.174,0,0,1-.269-.755V35.168a1.17,1.17,0,0,1,.338-.831l0,0,0,0a1.176,1.176,0,0,1,.83-.348Zm-20.395,0A1.188,1.188,0,0,1,45.9,35.168V67.642a1.188,1.188,0,0,1-.343.836l0-.005a1.174,1.174,0,0,1-.83.348H42.494a1.173,1.173,0,0,1-.83-.348l-.079-.075a1.175,1.175,0,0,1-.269-.755V35.168a1.17,1.17,0,0,1,.338-.831l0,0,0,0a1.176,1.176,0,0,1,.83-.348ZM31.975,91.19a9.565,9.565,0,0,1-2.82-6.774V43.583a9.542,9.542,0,0,1,7.2-9.25,5.857,5.857,0,0,0-.171.836V67.642a6.289,6.289,0,0,0,1.684,4.275,2.493,2.493,0,0,0,.168.185,6.272,6.272,0,0,0,3,1.557V94.01h-2.29A9.564,9.564,0,0,1,31.975,91.19Zm66.87-6.774a9.628,9.628,0,0,1-9.594,9.594h-2.29V73.659A6.27,6.27,0,0,0,89.967,72.1l0,0,0,0a6.285,6.285,0,0,0,1.852-4.451V35.168a5.911,5.911,0,0,0-.161-.833,9.54,9.54,0,0,1,7.188,9.248Z" style="fill:#5f717f"/></svg>