<svg id="Layer_3" data-name="Layer 3" xmlns="http://www.w3.org/2000/svg" viewBox="0 0 128 128"><title>Artboard 98</title><path d="M64,85.789A13.465,13.465,0,0,1,50.578,72.367V37.928a13.423,13.423,0,0,1,26.845,0V72.367A13.466,13.466,0,0,1,64,85.789Z" style="fill:#9da7b0;fill-rule:evenodd"/><path d="M55.229,29.157a12.383,12.383,0,0,0-3.651,8.771V72.367a12.423,12.423,0,0,0,24.845,0V37.928a12.4,12.4,0,0,0-21.194-8.771Z" style="fill:#9da7b0;fill-rule:evenodd"/><path d="M64,89.923h0A17.6,17.6,0,0,0,81.557,72.367V37.928A17.6,17.6,0,0,0,64,20.372h0A17.6,17.6,0,0,0,46.444,37.928V72.367A17.6,17.6,0,0,0,64,89.923Zm-12.422-52A12.466,12.466,0,0,1,64,25.506h0A12.466,12.466,0,0,1,76.423,37.928V72.367A12.466,12.466,0,0,1,64,84.789h0A12.466,12.466,0,0,1,51.578,72.367Z" style="fill:#5f717f"/><path d="M61.443,98.158v4.356H54.771a2.557,2.557,0,0,0,0,5.114H73.229a2.557,2.557,0,0,0,0-5.114H66.557V98.158A25.469,25.469,0,0,0,89.732,72.684V63.819a2.567,2.567,0,0,0-5.134,0v8.865a20.6,20.6,0,1,1-41.2,0V63.819a2.567,2.567,0,0,0-5.134,0v8.865A25.469,25.469,0,0,0,61.443,98.158Z" style="fill:#5f717f"/></svg>