<svg id="Layer_3" data-name="Layer 3" xmlns="http://www.w3.org/2000/svg" viewBox="0 0 128 128"><title>Artboard 111</title><path d="M96.663,26.869a2.559,2.559,0,0,0-3.239-1.614L62.068,35.813h0a2.559,2.559,0,0,0-1.746,2.425V78.761c-.045-.036-.077-.082-.123-.118a19.9,19.9,0,0,0-23.757,0,12.443,12.443,0,0,0,0,20.3,19.9,19.9,0,0,0,23.757,0,12.962,12.962,0,0,0,5.247-10.15c0-.027-.01-.052-.01-.079V60.557l29.612-9.971c.024-.008.04-.028.064-.036a2.5,2.5,0,0,0,.59-.34,2.6,2.6,0,0,0,.263-.178,2.163,2.163,0,0,0,.733-1.35,2.452,2.452,0,0,0,.081-.4c0-.043.024-.078.024-.121V27.681H96.8A2.559,2.559,0,0,0,96.663,26.869ZM57.031,94.933a14.07,14.07,0,0,1-8.71,2.812,14.072,14.072,0,0,1-8.71-2.812,7.384,7.384,0,0,1,0-12.279,14.072,14.072,0,0,1,8.71-2.812,14.069,14.069,0,0,1,8.71,2.812,7.384,7.384,0,0,1,0,12.279Zm8.406-54.854L91.67,31.245V46.323L65.437,55.156Z" style="fill:#5f717f"/><path d="M48.322,79.842a14.07,14.07,0,0,0-8.71,2.812,7.384,7.384,0,0,0,0,12.279,14.071,14.071,0,0,0,8.71,2.812,14.071,14.071,0,0,0,8.71-2.812,7.384,7.384,0,0,0,0-12.279A14.069,14.069,0,0,0,48.322,79.842Z" style="fill:#c0dc93;fill-rule:evenodd"/><polygon points="65.437 55.157 91.67 46.323 91.67 31.246 65.437 40.079 65.437 55.157" style="fill:#c0dc93;fill-rule:evenodd"/></svg>