<svg xmlns="http://www.w3.org/2000/svg" data-name="Layer 3" viewBox="0 0 128 128"><path fill="#fff" d="M39.038 46.127a2.567 2.567 0 1 1 0-5.134h7.929a2.567 2.567 0 0 1 0 5.134zM39.038 54.3a2.567 2.567 0 0 1 0-5.134h7.929a2.567 2.567 0 0 1 0 5.134zM39.038 62.479a2.567 2.567 0 1 1 0-5.134h7.929a2.567 2.567 0 0 1 0 5.134zM39.038 70.655a2.567 2.567 0 0 1 0-5.134h7.929a2.567 2.567 0 0 1 0 5.134zM39.038 78.831a2.567 2.567 0 1 1 0-5.134h7.929a2.567 2.567 0 0 1 0 5.134zM39.038 87.007a2.567 2.567 0 1 1 0-5.134h7.929a2.567 2.567 0 0 1 0 5.134zM60.036 70.655a2.567 2.567 0 0 1 0-5.134h7.929a2.567 2.567 0 0 1 0 5.134zM60.036 78.831a2.567 2.567 0 1 1 0-5.134h7.929a2.567 2.567 0 0 1 0 5.134zM60.036 87.007a2.567 2.567 0 0 1 0-5.134h7.929a2.567 2.567 0 0 1 0 5.134zM81.033 54.3a2.567 2.567 0 0 1 0-5.134h7.929a2.567 2.567 0 0 1 0 5.134zM81.033 62.479a2.567 2.567 0 1 1 0-5.134h7.929a2.567 2.567 0 0 1 0 5.134zM81.033 70.655a2.567 2.567 0 0 1 0-5.134h7.929a2.567 2.567 0 0 1 0 5.134zM81.033 78.831a2.567 2.567 0 1 1 0-5.134h7.929a2.567 2.567 0 0 1 0 5.134zM81.033 87.007a2.567 2.567 0 0 1 0-5.134h7.929a2.567 2.567 0 0 1 0 5.134z"/><path fill="#f6a6a1" fill-rule="evenodd" d="M46.967 46.127h-7.929a2.567 2.567 0 1 1 0-5.134h7.929a2.567 2.567 0 0 1 0 5.134zm-7.929 11.218h7.929a2.567 2.567 0 0 1 0 5.134h-7.929a2.567 2.567 0 1 1 0-5.134zm0 24.528h7.929a2.567 2.567 0 0 1 0 5.134h-7.929a2.567 2.567 0 1 1 0-5.134zm0-8.176h7.929a2.567 2.567 0 0 1 0 5.134h-7.929a2.567 2.567 0 1 1 0-5.134zm7.929-8.176a2.567 2.567 0 0 1 0 5.134h-7.929a2.567 2.567 0 0 1 0-5.134zm10.5 18.919a2.567 2.567 0 0 1 2.567-2.567h7.929a2.567 2.567 0 0 1 0 5.134h-7.927a2.567 2.567 0 0 1-2.567-2.567zm0-8.176a2.567 2.567 0 0 1 2.569-2.564h7.929a2.567 2.567 0 0 1 0 5.134h-7.929a2.567 2.567 0 0 1-2.567-2.57zM81.033 54.3a2.567 2.567 0 0 1 0-5.134h7.929a2.567 2.567 0 0 1 0 5.134zm0 8.176a2.567 2.567 0 1 1 0-5.134h7.929a2.567 2.567 0 0 1 0 5.134zm0 8.176a2.567 2.567 0 0 1 0-5.134h7.929a2.567 2.567 0 0 1 0 5.134zm0 8.176a2.567 2.567 0 1 1 0-5.134h7.929a2.567 2.567 0 0 1 0 5.134zm0 8.176a2.567 2.567 0 0 1 0-5.134h7.929a2.567 2.567 0 0 1 0 5.134zM67.964 65.521a2.567 2.567 0 0 1 0 5.134h-7.928a2.567 2.567 0 0 1 0-5.134zM29.155 43.583v40.834a9.628 9.628 0 0 0 9.594 9.594h50.5a9.628 9.628 0 0 0 9.593-9.594V43.583a9.628 9.628 0 0 0-9.593-9.594h-50.5a9.628 9.628 0 0 0-9.594 9.594zm17.812 5.585a2.567 2.567 0 0 1 0 5.134h-7.929a2.567 2.567 0 0 1 0-5.134z"/><path fill="#5f717f" d="M38.749 99.144h50.5a14.764 14.764 0 0 0 14.727-14.728V43.583a14.764 14.764 0 0 0-14.724-14.727h-50.5a14.764 14.764 0 0 0-14.731 14.727v40.833a14.764 14.764 0 0 0 14.728 14.728zm-9.594-55.561a9.628 9.628 0 0 1 9.594-9.594h50.5a9.628 9.628 0 0 1 9.593 9.594v40.833a9.628 9.628 0 0 1-9.593 9.594h-50.5a9.628 9.628 0 0 1-9.594-9.594z"/></svg>