<svg xmlns="http://www.w3.org/2000/svg" data-name="Layer 3" viewBox="0 0 128 128"><path fill="#fff" d="M39.878 41.95a2.567 2.567 0 015.134 0v44.1a2.567 2.567 0 01-5.134 0zM54.248 41.95a2.567 2.567 0 015.134 0v44.1a2.567 2.567 0 01-5.134 0zM68.618 41.95a2.567 2.567 0 015.134 0v44.1a2.567 2.567 0 01-5.134 0zM82.988 41.95a2.567 2.567 0 015.134 0v44.1a2.567 2.567 0 01-5.134 0z"/><circle cx="42.445" cy="73.172" r="4.835" fill="#fff"/><circle cx="56.815" cy="57.193" r="4.835" fill="#fff"/><circle cx="71.185" cy="73.172" r="4.835" fill="#fff"/><circle cx="85.555" cy="57.193" r="4.835" fill="#fff"/><path fill="#9da7b0" fill-rule="evenodd" d="M38.749 95.011a10.63 10.63 0 01-10.594-10.594V43.583A10.63 10.63 0 0138.749 32.99h50.5a10.629 10.629 0 0110.596 10.593v40.834a10.629 10.629 0 01-10.593 10.594zm46.806-54.628a1.569 1.569 0 00-1.567 1.567v11.7l-.468.294a3.837 3.837 0 000 6.5l.468.294v25.313a1.567 1.567 0 103.134 0V60.737l.469-.294a3.836 3.836 0 000-6.5l-.469-.294V41.95a1.569 1.569 0 00-1.567-1.567zm-14.37 0a1.569 1.569 0 00-1.567 1.567v27.676l-.468.294a3.837 3.837 0 000 6.5l.468.294v9.333a1.567 1.567 0 003.134 0v-9.329l.468-.294a3.837 3.837 0 000-6.5l-.468-.294V41.95a1.569 1.569 0 00-1.567-1.567zm-14.37 0a1.569 1.569 0 00-1.567 1.567v11.7l-.468.294a3.836 3.836 0 000 6.5l.468.294v25.313a1.567 1.567 0 103.134 0V60.737l.469-.294a3.836 3.836 0 000-6.5l-.469-.294V41.95a1.569 1.569 0 00-1.567-1.567zm-14.37 0a1.569 1.569 0 00-1.567 1.567v27.676l-.468.294a3.837 3.837 0 000 6.5l.468.294v9.333a1.567 1.567 0 003.134 0v-9.329l.468-.294a3.837 3.837 0 000-6.5l-.468-.294V41.95a1.569 1.569 0 00-1.567-1.567z"/><path fill="#9da7b0" fill-rule="evenodd" d="M47.28 73.172a4.833 4.833 0 01-2.268 4.1v8.78a2.567 2.567 0 01-5.134 0V77.27a4.836 4.836 0 010-8.2V41.95a2.567 2.567 0 015.134 0v27.124a4.833 4.833 0 012.268 4.098zm-8.531 20.839h50.5a9.628 9.628 0 009.593-9.594V43.583a9.628 9.628 0 00-9.593-9.594h-50.5a9.629 9.629 0 00-9.594 9.594v40.834a9.629 9.629 0 009.594 9.594zm44.24-32.72a4.837 4.837 0 010-8.2V41.95a2.567 2.567 0 015.134 0v11.144a4.836 4.836 0 010 8.2v24.76a2.567 2.567 0 01-5.134 0zM66.35 73.172a4.832 4.832 0 012.268-4.1V41.95a2.567 2.567 0 015.134 0v27.124a4.837 4.837 0 010 8.2v8.78a2.567 2.567 0 01-5.134 0V77.27a4.832 4.832 0 01-2.268-4.098zM54.25 86.05V61.291a4.837 4.837 0 010-8.2V41.95a2.567 2.567 0 015.134 0v11.144a4.836 4.836 0 010 8.2v24.76a2.567 2.567 0 01-5.134 0z"/><path fill="#5f717f" d="M38.748 99.144h50.5a14.764 14.764 0 0014.728-14.728V43.583a14.764 14.764 0 00-14.724-14.727h-50.5a14.765 14.765 0 00-14.731 14.727v40.834a14.764 14.764 0 0014.727 14.727zm-9.593-55.561a9.629 9.629 0 019.594-9.594h50.5a9.628 9.628 0 019.593 9.594v40.834a9.628 9.628 0 01-9.593 9.594h-50.5a9.629 9.629 0 01-9.594-9.594z"/></svg>