<svg xmlns="http://www.w3.org/2000/svg" data-name="Layer 3" viewBox="0 0 128 128"><ellipse cx="39.72" cy="95.214" fill="#faf298" rx="11.273" ry="8.919"/><ellipse cx="88.281" cy="78.862" fill="#faf298" rx="11.273" ry="8.919"/><path fill="#faf298" fill-rule="evenodd" d="M50.993 61.017 99.553 44.665 99.553 23.86 50.993 40.212 50.993 61.017z"/><path fill="#5f717f" d="M30.164 103.526a15.971 15.971 0 0 0 19.111 0 10.6 10.6 0 0 0 4.284-8.312c0-.027-.01-.052-.01-.08V62.856L96.986 48.23v21.763a15.885 15.885 0 0 0-18.261.557 10.205 10.205 0 0 0 0 16.624 15.972 15.972 0 0 0 19.111 0 10.6 10.6 0 0 0 4.284-8.312v-55h-.008a2.56 2.56 0 0 0-3.371-2.427l-48.56 16.35a2.559 2.559 0 0 0-1.746 2.425v46.14a15.883 15.883 0 0 0-18.271.55 10.205 10.205 0 0 0 0 16.624zm64.5-20.363a10.97 10.97 0 0 1-12.774 0 5.148 5.148 0 0 1 0-8.6 10.971 10.971 0 0 1 12.774 0 5.149 5.149 0 0 1 0 8.6zm2.319-55.739v15.4L53.55 57.456V42.051zm-63.65 63.489a10.316 10.316 0 0 1 6.387-2.051 10.316 10.316 0 0 1 6.387 2.051 5.148 5.148 0 0 1 0 8.6 10.316 10.316 0 0 1-6.387 2.051 10.316 10.316 0 0 1-6.387-2.051 5.148 5.148 0 0 1 0-8.6z"/></svg>