<svg xmlns="http://www.w3.org/2000/svg" data-name="Layer 3" viewBox="0 0 128 128"><path fill="#f6a6a1" d="m66.34 44.973 22.585 15.6a4.1 4.1 0 0 1 .067 6.793L66.34 83.007 43.956 98.465a4.113 4.113 0 0 1-6.71-3.188V32.7h.013a4.1 4.1 0 0 1 6.429-3.374z"/><path fill="#5f717f" d="M41.358 101.956a6.664 6.664 0 0 0 4.126-1.436l22.31-15.407 22.482-15.527a2.582 2.582 0 0 0 .374-.264 6.659 6.659 0 0 0 1.637-8.9A2.552 2.552 0 0 0 92 60a6.663 6.663 0 0 0-1.657-1.57L67.794 42.868l-22.647-15.64h-.005A6.658 6.658 0 0 0 35.89 28.9l-.011.015a6.52 6.52 0 0 0-1.165 3.359 2.615 2.615 0 0 0-.035.425v62.577a6.65 6.65 0 0 0 1.956 4.713l.01.01a6.65 6.65 0 0 0 4.713 1.957zM39.813 63.99V32.956a2.5 2.5 0 0 0 .013-.253v-.131a1.624 1.624 0 0 1 .068-.328 1.568 1.568 0 0 1 .137-.316c.05-.066.1-.133.14-.2a1.541 1.541 0 0 1 1.962-.359 2.5 2.5 0 0 0 .275.184l22.478 15.526 22.585 15.6.041.028a1.5 1.5 0 0 1 .226.18 1.547 1.547 0 0 1 .194.228 1.541 1.541 0 0 1-.393 2.141h-.005L64.886 80.9 42.5 96.359a3.676 3.676 0 0 0-.168.126 1.549 1.549 0 0 1-.45.25 1.594 1.594 0 0 1-1.619-.356l-.01-.01a1.555 1.555 0 0 1-.443-1.093z"/></svg>