<svg xmlns="http://www.w3.org/2000/svg" data-name="Layer 3" viewBox="0 0 128 128"><rect width="14.097" height="39.388" x="23.179" y="33.065" fill="#fff" rx="1.928" ry="1.928"/><path fill="#9da7b0" d="M38.56 35.823h6.821a2.284 2.284 0 012.284 2.284v13.627a2.283 2.283 0 01-2.283 2.283H38.56a2.283 2.283 0 01-2.283-2.283V38.107a2.284 2.284 0 012.283-2.284z"/><rect width="9.388" height="16.195" x="37.276" y="36.823" fill="#9da7b0" rx="1.284" ry="1.284"/><path fill="#fff" fill-rule="evenodd" d="M46.665 34.155h1.885A10.479 10.479 0 0159 44.6v.633a10.479 10.479 0 01-10.45 10.453h-1.885z"/><rect width="14.097" height="39.388" x="90.724" y="33.065" fill="#fff" rx="1.928" ry="1.928"/><path fill="#9da7b0" d="M82.619 35.823h6.821a2.284 2.284 0 012.284 2.284v13.627a2.283 2.283 0 01-2.283 2.283h-6.822a2.283 2.283 0 01-2.283-2.283V38.107a2.284 2.284 0 012.283-2.284z"/><rect width="9.388" height="16.195" x="81.335" y="36.823" fill="#9da7b0" rx="1.284" ry="1.284"/><path fill="#fff" fill-rule="evenodd" d="M81.336 34.155h-1.885A10.479 10.479 0 0069 44.6v.633a10.479 10.479 0 0010.451 10.453h1.885z"/><path fill="#5f717f" d="M48.55 31.588h-1.885a2.567 2.567 0 00-2.565 2.567v.1h-4.4a4.465 4.465 0 00-1.168-2.43l-.01-.01a4.473 4.473 0 00-3.174-1.315H25.107a4.472 4.472 0 00-3.167 1.318l-.01.01a4.473 4.473 0 00-1.318 3.167v35.529a4.471 4.471 0 001.318 3.167l.01.01a4.472 4.472 0 003.167 1.318h2.553v19.916a2.567 2.567 0 005.134 0V75.019h2.554a4.473 4.473 0 003.167-1.319l.01-.01a4.472 4.472 0 001.318-3.167V55.585H44.1v.1a2.567 2.567 0 002.567 2.567h1.883a13.048 13.048 0 0013.015-13.015V44.6A13.048 13.048 0 0048.55 31.588zm-13.841 38.3h-8.963V35.631h8.963v34.254zm5.134-19.434V39.39H44.1v11.061zm16.588-5.214a7.916 7.916 0 01-7.2 7.852v-16.34a7.917 7.917 0 017.2 7.852zM106.059 31.816a4.474 4.474 0 00-3.167-1.318H92.651a4.472 4.472 0 00-3.167 1.318l-.01.01a4.465 4.465 0 00-1.169 2.43H83.9v-.1a2.567 2.567 0 00-2.567-2.567h-1.882A13.048 13.048 0 0066.435 44.6v.633a13.048 13.048 0 0013.016 13.019h1.885a2.567 2.567 0 002.564-2.567v-.1h4.254v14.94a4.472 4.472 0 001.318 3.167l.01.01a4.472 4.472 0 003.167 1.318h2.554v19.915a2.567 2.567 0 005.134 0V75.019h2.554a4.474 4.474 0 003.167-1.318l.01-.01a4.472 4.472 0 001.318-3.167V34.992a4.474 4.474 0 00-1.318-3.167zM73.886 50.8a7.857 7.857 0 01-2.317-5.564V44.6a7.917 7.917 0 017.2-7.852V53.087a7.869 7.869 0 01-4.883-2.287zm10.016-.35V39.39h4.254v11.061zm18.351 19.434h-8.962V35.631h8.963z"/></svg>