<svg xmlns="http://www.w3.org/2000/svg" data-name="Layer 3" viewBox="0 0 128 128"><path fill="#faf298" d="M46.865 50.718L62.629 61.6a2.863 2.863 0 01.047 4.742L46.865 77.266C44.378 78.983 31.295 88.7 29.427 88.7a2.871 2.871 0 01-2.871-2.871V42.153h.009a2.862 2.862 0 014.488-2.353z"/><path fill="#faf298" d="M84.4 50.718L100.169 61.6a2.863 2.863 0 01.047 4.742L84.4 77.266l-15.62 10.79a2.871 2.871 0 01-4.68-2.226V42.153h.009a2.862 2.862 0 014.484-2.353z"/><path fill="#5f717f" d="M103.05 60.912a5.441 5.441 0 00-1.467-1.443L85.859 48.612 70.047 37.693a5.434 5.434 0 00-8.26 2.848 5.347 5.347 0 00-.225 1.2 2.6 2.6 0 00-.033.412v15.582l-13.21-9.123L32.512 37.7h-.005a5.42 5.42 0 00-7.532 1.37l-.008.011a5.413 5.413 0 00-.719 1.466 5.334 5.334 0 00-.224 1.2 2.565 2.565 0 00-.034.415V85.83a5.417 5.417 0 001.41 3.647 2.622 2.622 0 00.178.2 5.421 5.421 0 003.845 1.593c2.329 0 11.709-6.746 16.566-10.239 1.02-.733 1.821-1.31 2.325-1.658l13.211-9.123v15.58a5.411 5.411 0 001.593 3.835l.01.01a5.412 5.412 0 007.173.437l15.553-10.74 15.81-10.919a5.42 5.42 0 001.38-7.538zm-41.828 3.329L45.411 75.16c-.426.294-1.3.921-2.406 1.718-4.391 3.158-12.871 9.256-13.578 9.256a.3.3 0 01-.215-.089L29.17 86a.325.325 0 01-.046-.173v-43.46c.006-.07.009-.142.009-.214V42.1l.01-.034.011-.032.07-.1a.3.3 0 01.319-.058 2.691 2.691 0 00.228.148l15.642 10.8L61.175 63.71l.042.028a.3.3 0 01.043.032.337.337 0 01.041.047.3.3 0 01-.077.421zm37.54 0L82.951 75.16 67.326 85.95c-.056.039-.11.08-.162.122a.294.294 0 01-.087.047.342.342 0 01-.11.015.287.287 0 01-.3-.3v-43.47c.006-.069.009-.139.009-.21V42.1l.009-.034a.312.312 0 01.037-.083.3.3 0 01.421-.078l15.812 10.92 15.76 10.885.042.028a.332.332 0 01.042.031.325.325 0 01.041.048.3.3 0 01.048.224.3.3 0 01-.126.199z"/></svg>