<svg id="Layer_3" data-name="Layer 3" xmlns="http://www.w3.org/2000/svg" viewBox="0 0 128 128"><title>Artboard 97</title><ellipse cx="39.72" cy="95.214" rx="11.273" ry="8.919" style="fill:#faf298"/><ellipse cx="88.281" cy="78.862" rx="11.273" ry="8.919" style="fill:#faf298"/><polygon points="50.993 61.017 99.553 44.665 99.553 23.86 50.993 40.212 50.993 61.017" style="fill:#faf298;fill-rule:evenodd"/><path d="M30.164,103.526a15.971,15.971,0,0,0,19.111,0,10.6,10.6,0,0,0,4.284-8.312c0-.027-.01-.052-.01-.08V62.856L96.986,48.23V69.993a15.885,15.885,0,0,0-18.261.557,10.205,10.205,0,0,0,0,16.624,15.972,15.972,0,0,0,19.111,0,10.6,10.6,0,0,0,4.284-8.312v-55h-.008a2.56,2.56,0,0,0-3.371-2.427L50.181,37.785h0a2.559,2.559,0,0,0-1.746,2.425v46.14a15.883,15.883,0,0,0-18.271.55,10.205,10.205,0,0,0,0,16.624Zm64.5-20.363a10.97,10.97,0,0,1-12.774,0,5.148,5.148,0,0,1,0-8.6,10.971,10.971,0,0,1,12.774,0,5.149,5.149,0,0,1,0,8.6Zm2.319-55.739v15.4L53.55,57.456V42.051ZM33.333,90.913a10.316,10.316,0,0,1,6.387-2.051,10.316,10.316,0,0,1,6.387,2.051,5.148,5.148,0,0,1,0,8.6,10.316,10.316,0,0,1-6.387,2.051,10.316,10.316,0,0,1-6.387-2.051,5.148,5.148,0,0,1,0-8.6Z" style="fill:#5f717f"/></svg>