<svg id="Layer_3" data-name="Layer 3" xmlns="http://www.w3.org/2000/svg" viewBox="0 0 128 128"><title>Artboard 109</title><path d="M64,105.508A41.136,41.136,0,1,1,93.088,93.46,40.867,40.867,0,0,1,64,105.508Z" style="fill:#9da7b0;fill-rule:evenodd"/><circle cx="64" cy="64.372" r="40.137" transform="translate(-26.772 64.109) rotate(-45)" style="fill:#9da7b0"/><circle cx="64" cy="64.372" r="16.848" transform="translate(-26.772 64.108) rotate(-45)" style="fill:#fff"/><path d="M64,50.091a14.239,14.239,0,0,0-10.1,4.183h0a14.281,14.281,0,0,0,0,20.2h0A14.241,14.241,0,0,0,64,78.663v-.01a14.237,14.237,0,0,0,10.1-4.182h0a14.282,14.282,0,0,0,0-20.2h0A14.237,14.237,0,0,0,64,50.091Zm-13.728.553a19.413,19.413,0,0,1,27.456,0h0a19.413,19.413,0,0,1,0,27.455h0A19.356,19.356,0,0,1,64,83.787v-.01A19.351,19.351,0,0,1,50.272,78.1h0a19.413,19.413,0,0,1,0-27.455Z" style="fill:#fbcfc1"/><path d="M83.473,91.261a5.117,5.117,0,0,1-7.7-6.738L81.394,78.1a5.117,5.117,0,1,1,7.7,6.738Z" style="fill:#5f717f"/><path d="M99.519,23.491a2.567,2.567,0,1,0-5.134,0V34.385c-.066-.067-.121-.141-.188-.208h0a42.7,42.7,0,0,0-60.391,0h0a42.7,42.7,0,0,0,0,60.391h0a42.7,42.7,0,0,0,60.39,0h0a42.692,42.692,0,0,0,5.322-53.895Zm2.051,40.88a37.452,37.452,0,0,1-11,26.565h0a37.571,37.571,0,0,1-53.13,0h0a37.571,37.571,0,0,1,0-53.131h0a37.57,37.57,0,0,1,53.132,0h0a37.645,37.645,0,0,1,3.817,4.538V67.137L71.613,93.161a2.558,2.558,0,0,0,3.851,3.369l23.274-26.6a2.559,2.559,0,0,0,.781-1.844V52.234A37.647,37.647,0,0,1,101.57,64.372Z" style="fill:#5f717f"/><path d="M70.281,58.09h0a8.882,8.882,0,0,0-12.561,0h0a8.881,8.881,0,0,0,0,12.562h0a8.883,8.883,0,0,0,12.561,0h0a8.882,8.882,0,0,0,0-12.562Zm-3.63,8.932h0a3.751,3.751,0,0,1-5.3,0h0a3.75,3.75,0,0,1,0-5.3h0a3.751,3.751,0,0,1,5.3,0h0a3.752,3.752,0,0,1,0,5.3Z" style="fill:#5f717f"/></svg>