<svg xmlns="http://www.w3.org/2000/svg" data-name="Layer 3" viewBox="0 0 128 128"><path fill="#faf298" fill-rule="evenodd" d="M42.693 64a8.076 8.076 0 0 1 8.052 8.052v23.289a8.052 8.052 0 1 1-16.1 0V72.052A8.076 8.076 0 0 1 42.693 64z"/><path fill="#c0dc93" fill-rule="evenodd" d="M34.641 83.7v11.765a11.768 11.768 0 1 1 0-23.537z"/><path fill="#faf298" fill-rule="evenodd" d="M85.307 64a8.076 8.076 0 0 0-8.052 8.052v23.289a8.052 8.052 0 0 0 16.1 0V72.052A8.076 8.076 0 0 0 85.307 64z"/><path fill="#c0dc93" fill-rule="evenodd" d="M93.36 83.7v11.765a11.768 11.768 0 0 0 0-23.537z"/><path fill="#5f717f" d="m102.588 72.811-.107-12.234c0-.016.009-.03.009-.046a38.49 38.49 0 0 0-76.98 0c0 .018.01.033.01.05l.105 12.054a14.427 14.427 0 0 0-1.121.925 14.274 14.274 0 0 0 7.889 24.245 10.606 10.606 0 0 0 20.919-2.464V72.052a10.6 10.6 0 0 0-20.919-2.464 14.145 14.145 0 0 0-1.677.386l-.082-9.4c0-.016.009-.03.009-.046a33.356 33.356 0 1 1 66.712 0c0 .018.01.033.01.05l.082 9.444a14.114 14.114 0 0 0-1.842-.438 10.606 10.606 0 0 0-20.919 2.464v23.293a10.6 10.6 0 0 0 20.919 2.464A14.3 14.3 0 0 0 103.5 73.56c-.282-.277-.613-.495-.912-.749zm-59.895-6.245a5.508 5.508 0 0 1 5.486 5.485v23.29a5.485 5.485 0 0 1-10.97 0V72.052a5.508 5.508 0 0 1 5.485-5.485zM32.074 83.7v8.838a9.2 9.2 0 0 1 0-17.677zm53.234 17.13a5.508 5.508 0 0 1-5.486-5.485V72.052a5.485 5.485 0 0 1 10.97 0v23.289a5.508 5.508 0 0 1-5.485 5.485zM99.866 90.2a9.188 9.188 0 0 1-3.94 2.332V74.858a9.2 9.2 0 0 1 3.94 15.342z"/></svg>