<svg xmlns="http://www.w3.org/2000/svg" data-name="Layer 3" viewBox="0 0 128 128"><path fill="#9da7b0" fill-rule="evenodd" d="M64 102.57a38.57 38.57 0 1 1 27.274-11.3A38.321 38.321 0 0 1 64 102.57zm-9.385-63.723a4.336 4.336 0 0 0-.778.071 4.316 4.316 0 0 0-3.328 2.943 4.188 4.188 0 0 0-.177.938 2.381 2.381 0 0 0-.03.339v41.715a4.3 4.3 0 0 0 6.949 3.4l29.831-20.6a2.124 2.124 0 0 0 .306-.212 4.33 4.33 0 0 0 1.647-2.663 4.285 4.285 0 0 0-.564-3.018 1.813 1.813 0 0 0-.22-.328 4.616 4.616 0 0 0-.431-.491 4.279 4.279 0 0 0-.638-.519L57.05 39.607a4.271 4.271 0 0 0-2.435-.76z"/><path fill="#9da7b0" fill-rule="evenodd" d="M87.651 68.468 72.719 78.779 57.867 89.036a5.3 5.3 0 0 1-8.567-4.183V43.139a2.582 2.582 0 0 1 .033-.413 5.167 5.167 0 0 1 .219-1.162 5.3 5.3 0 0 1 8.064-2.78l15.1 10.429L87.735 59.58a5.318 5.318 0 0 1 .786.639 5.215 5.215 0 0 1 .488.552 2.532 2.532 0 0 1 .315.458 5.292 5.292 0 0 1-1.281 6.96 2.576 2.576 0 0 1-.392.279zm2.916 22.1a37.57 37.57 0 1 0-53.132 0 37.571 37.571 0 0 0 53.132-.003z"/><path fill="#c0dc93" fill-rule="evenodd" d="m69.811 74.568 15.1-10.425h.005a.174.174 0 0 0 .047-.238l-.025-.028-.023-.019-.042-.028-15.056-10.4L54.71 43a.175.175 0 0 0-.242.044l-.02.048V43.143l-.009.207v41.503a.174.174 0 0 0 .174.175l.066-.007.046-.021.164-.123z"/><path fill="#5f717f" d="M94.2 33.8a42.7 42.7 0 0 0-60.391 0 42.7 42.7 0 0 0 0 60.391 42.7 42.7 0 0 0 60.389 0 42.7 42.7 0 0 0 0-60.39zm-3.633 56.765a37.57 37.57 0 0 1-53.13 0 37.57 37.57 0 0 1 0-53.132 37.572 37.572 0 0 1 53.131 0 37.57 37.57 0 0 1 0 53.131z"/><path fill="#5f717f" d="M89.009 60.771a5.211 5.211 0 0 0-.487-.552 5.316 5.316 0 0 0-.786-.639L72.719 49.213l-15.1-10.429a5.305 5.305 0 0 0-8.064 2.779 5.158 5.158 0 0 0-.219 1.162 2.57 2.57 0 0 0-.033.413v41.715a5.3 5.3 0 0 0 8.564 4.183l14.852-10.257 14.932-10.311a2.6 2.6 0 0 0 .392-.28 5.292 5.292 0 0 0 1.281-6.96 2.533 2.533 0 0 0-.315-.457zm-4.1 3.369h-.005l-15.1 10.425-14.915 10.308a2.92 2.92 0 0 0-.164.123.188.188 0 0 1-.047.024.231.231 0 0 1-.066.007.173.173 0 0 1-.174-.175V43.346c.005-.068.008-.138.008-.207v-.05a.2.2 0 0 1 .02-.048.175.175 0 0 1 .244-.041l15.1 10.429 15.056 10.4.041.028.024.017a.213.213 0 0 1 .025.028.174.174 0 0 1-.047.238z"/></svg>