<svg id="Layer_3" data-name="Layer 3" xmlns="http://www.w3.org/2000/svg" viewBox="0 0 128 128"><title>Artboard 101</title><path d="M64,102.57a38.57,38.57,0,1,1,27.274-11.3A38.321,38.321,0,0,1,64,102.57ZM54.615,38.847a4.336,4.336,0,0,0-.778.071,4.316,4.316,0,0,0-3.328,2.943,4.188,4.188,0,0,0-.177.938,2.381,2.381,0,0,0-.03.339V84.853a4.3,4.3,0,0,0,6.949,3.4l29.831-20.6a2.124,2.124,0,0,0,.306-.212,4.33,4.33,0,0,0,1.647-2.663,4.285,4.285,0,0,0-.564-3.018,1.813,1.813,0,0,0-.22-.328,4.616,4.616,0,0,0-.431-.491,4.279,4.279,0,0,0-.638-.519L57.05,39.607A4.271,4.271,0,0,0,54.615,38.847Z" style="fill:#9da7b0;fill-rule:evenodd"/><path d="M87.651,68.468,72.719,78.779,57.867,89.036A5.3,5.3,0,0,1,49.3,84.853V43.139a2.582,2.582,0,0,1,.033-.413,5.167,5.167,0,0,1,.219-1.162,5.3,5.3,0,0,1,8.064-2.78l15.1,10.429L87.735,59.58a5.318,5.318,0,0,1,.786.639,5.215,5.215,0,0,1,.488.552,2.532,2.532,0,0,1,.315.458,5.292,5.292,0,0,1-1.281,6.96A2.576,2.576,0,0,1,87.651,68.468Zm2.916,22.1a37.57,37.57,0,1,0-53.132,0A37.571,37.571,0,0,0,90.567,90.565Z" style="fill:#9da7b0;fill-rule:evenodd"/><path d="M69.811,74.568l15.1-10.425.005,0a.174.174,0,0,0,.047-.238l0,0-.025-.028-.023-.019-.042-.028-15.056-10.4L54.71,43a.175.175,0,0,0-.242.044l-.02.048,0,.011v.04l-.009.207V84.853a.174.174,0,0,0,.174.175l.066-.007L54.725,85l.164-.123Z" style="fill:#c0dc93;fill-rule:evenodd"/><path d="M94.2,33.8h0a42.7,42.7,0,0,0-60.391,0h0a42.7,42.7,0,0,0,0,60.391h0a42.7,42.7,0,0,0,60.389,0h0a42.7,42.7,0,0,0,0-60.39ZM90.567,90.565h0a37.57,37.57,0,0,1-53.13,0h0a37.57,37.57,0,0,1,0-53.132h0a37.572,37.572,0,0,1,53.131,0h0a37.57,37.57,0,0,1,0,53.131Z" style="fill:#5f717f"/><path d="M89.009,60.771a5.211,5.211,0,0,0-.487-.552,5.316,5.316,0,0,0-.786-.639v0L72.719,49.213l-15.1-10.429a5.305,5.305,0,0,0-8.064,2.779,5.158,5.158,0,0,0-.219,1.162,2.57,2.57,0,0,0-.033.413V84.853a5.3,5.3,0,0,0,8.564,4.183L72.719,78.779,87.651,68.468a2.6,2.6,0,0,0,.392-.28,5.292,5.292,0,0,0,1.281-6.96A2.533,2.533,0,0,0,89.009,60.771Zm-4.1,3.369-.005,0-15.1,10.425L54.889,84.873c-.057.039-.111.081-.164.123a.188.188,0,0,1-.047.024.231.231,0,0,1-.066.007.173.173,0,0,1-.174-.175V43.346c.005-.068.008-.138.008-.207V43.1l0-.011a.2.2,0,0,1,.02-.048A.175.175,0,0,1,54.71,43l15.1,10.429,15.056,10.4.041.028v0l.024.017a.213.213,0,0,1,.025.028l0,0a.174.174,0,0,1-.047.238Z" style="fill:#5f717f"/></svg>