<svg xmlns="http://www.w3.org/2000/svg" data-name="Layer 3" viewBox="0 0 128 128"><rect width="20.48" height="71.618" x="36.004" y="28.191" fill="#bedef4" rx="1.248" ry="1.248"/><rect width="20.48" height="71.618" x="71.516" y="28.191" fill="#bedef4" rx="1.248" ry="1.248"/><path fill="#5f717f" d="M55.236 25.624H37.253a3.807 3.807 0 00-2.7 1.119v.01a3.8 3.8 0 00-1.119 2.687v69.121a3.807 3.807 0 001.119 2.687 3.806 3.806 0 002.687 1.119h17.996a3.806 3.806 0 002.687-1.119 3.807 3.807 0 001.119-2.687V29.439a3.8 3.8 0 00-1.119-2.687v-.01a3.806 3.806 0 00-2.687-1.118zm-1.319 71.618H38.571V30.758h15.346zM90.747 25.624H72.764a3.806 3.806 0 00-2.7 1.119v.01a3.8 3.8 0 00-1.119 2.687v69.121a3.807 3.807 0 001.119 2.687 3.806 3.806 0 002.687 1.119h17.996a3.806 3.806 0 002.687-1.119 3.807 3.807 0 001.119-2.687V29.439a3.8 3.8 0 00-1.119-2.687v-.01a3.806 3.806 0 00-2.687-1.118zm-1.319 71.618H74.083V30.758h15.345z"/></svg>