<svg id="Layer_3" data-name="Layer 3" xmlns="http://www.w3.org/2000/svg" viewBox="0 0 128 128"><title>Artboard 110</title><rect x="23.179" y="33.065" width="14.097" height="39.388" rx="1.928" ry="1.928" style="fill:#fff"/><path d="M38.56,35.823h6.821a2.284,2.284,0,0,1,2.284,2.284V51.734a2.283,2.283,0,0,1-2.283,2.283H38.56a2.283,2.283,0,0,1-2.283-2.283V38.107A2.284,2.284,0,0,1,38.56,35.823Z" style="fill:#9da7b0"/><rect x="37.276" y="36.823" width="9.388" height="16.195" rx="1.284" ry="1.284" style="fill:#9da7b0"/><path d="M46.665,34.155H48.55A10.479,10.479,0,0,1,59,44.6v.633A10.479,10.479,0,0,1,48.55,55.686H46.665Z" style="fill:#fff;fill-rule:evenodd"/><rect x="90.724" y="33.065" width="14.097" height="39.388" rx="1.928" ry="1.928" style="fill:#fff"/><path d="M82.619,35.823H89.44a2.284,2.284,0,0,1,2.284,2.284V51.734a2.283,2.283,0,0,1-2.283,2.283H82.619a2.283,2.283,0,0,1-2.283-2.283V38.107A2.284,2.284,0,0,1,82.619,35.823Z" style="fill:#9da7b0"/><rect x="81.335" y="36.823" width="9.388" height="16.195" rx="1.284" ry="1.284" style="fill:#9da7b0"/><path d="M81.336,34.155H79.451A10.479,10.479,0,0,0,69,44.6v.633A10.479,10.479,0,0,0,79.451,55.686h1.885Z" style="fill:#fff;fill-rule:evenodd"/><path d="M48.55,31.588H46.665A2.567,2.567,0,0,0,44.1,34.155v.1h-4.4a4.465,4.465,0,0,0-1.168-2.43l-.01-.01A4.473,4.473,0,0,0,35.348,30.5H25.107a4.472,4.472,0,0,0-3.167,1.318l-.01.01a4.473,4.473,0,0,0-1.318,3.167V70.524a4.471,4.471,0,0,0,1.318,3.167l.01.01a4.472,4.472,0,0,0,3.167,1.318H27.66V94.935a2.567,2.567,0,0,0,5.134,0V75.019h2.554A4.473,4.473,0,0,0,38.515,73.7l.01-.01a4.472,4.472,0,0,0,1.318-3.167V55.585H44.1v.1a2.567,2.567,0,0,0,2.567,2.567H48.55A13.048,13.048,0,0,0,61.565,45.237V44.6A13.048,13.048,0,0,0,48.55,31.588Zm-13.841,38.3H25.746V35.631h8.963V69.885Zm5.134-19.434V39.39H44.1V50.451Zm16.588-5.214a7.916,7.916,0,0,1-7.2,7.852V36.752a7.917,7.917,0,0,1,7.2,7.852Z" style="fill:#5f717f"/><path d="M106.059,31.816a4.474,4.474,0,0,0-3.167-1.318H92.651a4.472,4.472,0,0,0-3.167,1.318l-.01.01a4.465,4.465,0,0,0-1.169,2.43H83.9v-.1a2.567,2.567,0,0,0-2.567-2.567H79.451A13.048,13.048,0,0,0,66.435,44.6v.633A13.048,13.048,0,0,0,79.451,58.252h1.885A2.567,2.567,0,0,0,83.9,55.685v-.1h4.254v14.94a4.472,4.472,0,0,0,1.318,3.167l.01.01a4.472,4.472,0,0,0,3.167,1.318h2.554V94.935a2.567,2.567,0,0,0,5.134,0V75.019h2.554a4.474,4.474,0,0,0,3.167-1.318l.01-.01a4.472,4.472,0,0,0,1.318-3.167V34.992a4.474,4.474,0,0,0-1.318-3.167ZM73.886,50.8a7.857,7.857,0,0,1-2.317-5.564V44.6a7.917,7.917,0,0,1,7.2-7.852V38.1h0V51.734h0v1.353A7.869,7.869,0,0,1,73.886,50.8Zm10.016-.35V39.39h4.254V50.451Zm18.351,19.434H93.291V35.631h8.963Z" style="fill:#5f717f"/></svg>