<svg id="Layer_3" data-name="Layer 3" xmlns="http://www.w3.org/2000/svg" viewBox="0 0 128 128"><title>Artboard 99</title><path d="M77.728,50.272a19.42,19.42,0,0,1,4.028,21.591L97.02,81.942A37.584,37.584,0,0,0,46,31.011l10.075,15.26A19.42,19.42,0,0,1,77.728,50.272Z" style="fill:#bedef4;fill-rule:evenodd"/><path d="M94.269,86.264,79.077,76.234a19.681,19.681,0,0,1-2.843,2.843L86.264,94.269a38.025,38.025,0,0,0,8.005-8.005Z" style="fill:#fff;fill-rule:evenodd"/><path d="M81.942,97.02,71.864,81.756A19.432,19.432,0,0,1,64,83.415v-.01A19.4,19.4,0,0,1,44.585,64h.01a19.468,19.468,0,0,1,1.68-7.922L31.011,46A37.584,37.584,0,0,0,81.942,97.02Z" style="fill:#bedef4;fill-rule:evenodd"/><path d="M48.965,51.715q.61-.746,1.307-1.443t1.443-1.307L41.683,33.77a38.035,38.035,0,0,0-7.913,7.913Z" style="fill:#fff;fill-rule:evenodd"/><path d="M57.719,57.719a9.578,9.578,0,1,0,0,.01l0-.005Zm6.281-8A14.3,14.3,0,0,0,49.709,64h.01A14.3,14.3,0,0,0,64,78.291v-.01a14.219,14.219,0,0,0,6.616-1.621,2.572,2.572,0,0,1,1.521-.921,14.357,14.357,0,0,0,3.6-3.6,2.573,2.573,0,0,1,.921-1.52A14.286,14.286,0,0,0,64,49.719Z" style="fill:#fff;fill-rule:evenodd"/><path d="M94.2,33.8h0a42.6,42.6,0,0,0-52.425-6.22,2.539,2.539,0,0,0-.873.354,2.452,2.452,0,0,0-.4.4A42.9,42.9,0,0,0,33.8,33.8h0A42.892,42.892,0,0,0,28.336,40.5a2.456,2.456,0,0,0-.4.4,2.529,2.529,0,0,0-.354.872A42.6,42.6,0,0,0,33.8,94.2h0a42.7,42.7,0,0,0,60.389,0h0a42.7,42.7,0,0,0,0-60.391Zm-56.762,3.63h0a37.674,37.674,0,0,1,4.274-3.624L51.77,49.048a19.106,19.106,0,0,0-1.5,1.223h0a18.93,18.93,0,0,0-1.223,1.5L33.81,41.709a37.674,37.674,0,0,1,3.623-4.274Zm39.007,33.45a2.418,2.418,0,0,0-.323.324,2.531,2.531,0,0,0-.337.831A14.3,14.3,0,0,1,74.1,74.1h0a14.3,14.3,0,0,1-2.06,1.682,2.527,2.527,0,0,0-.83.337,2.435,2.435,0,0,0-.324.323A14.249,14.249,0,0,1,64,78.281v.01A14.241,14.241,0,0,1,53.9,74.1h0A14.235,14.235,0,0,1,49.719,64h-.01A14.241,14.241,0,0,1,53.9,53.9h0a14.281,14.281,0,0,1,20.2,0h0a14.093,14.093,0,0,1,2.342,16.982ZM37.435,90.567h0a37.523,37.523,0,0,1-6.4-44.551L46.32,56.108A19.443,19.443,0,0,0,44.595,64h-.01a19.353,19.353,0,0,0,5.686,13.727h0A19.35,19.35,0,0,0,64,83.405v.01a19.4,19.4,0,0,0,7.836-1.7L81.929,97a37.53,37.53,0,0,1-44.494-6.434Zm53.131,0h0a37.692,37.692,0,0,1-4.327,3.662L76.179,78.994a19.03,19.03,0,0,0,1.549-1.265h0a19.053,19.053,0,0,0,1.266-1.549L94.23,86.238A37.659,37.659,0,0,1,90.566,90.566ZM97,81.929,81.714,71.836a19.236,19.236,0,0,0-3.986-21.564h0a19.221,19.221,0,0,0-21.622-3.955L46.014,31.032a37.525,37.525,0,0,1,44.552,6.4h0A37.53,37.53,0,0,1,97,81.929Z" style="fill:#5f717f"/><path d="M64,55.117a8.856,8.856,0,0,0-6.281,2.6h0l0,0,0,.005a8.87,8.87,0,0,0,0,12.552h0A8.883,8.883,0,1,0,64,55.117Zm2.652,11.534a3.751,3.751,0,0,1-5.3,0h0a3.762,3.762,0,0,1,0-5.307l0,0h0a3.75,3.75,0,0,1,5.3,5.3Z" style="fill:#5f717f"/></svg>