<svg xmlns="http://www.w3.org/2000/svg" data-name="Layer 3" viewBox="0 0 128 128"><path fill="#5f717f" d="M95.866 77.815A23.954 23.954 0 0 0 84.32 41.426a2.562 2.562 0 0 0-1.7 4.833 18.829 18.829 0 0 1-.022 35.484 2.562 2.562 0 0 0 1.7 4.833 23.941 23.941 0 0 0 11.568-8.761z"/><path fill="#5f717f" d="M107.071 45.82a34.821 34.821 0 0 0-13.855-12.837 2.556 2.556 0 0 0-2.327 4.553 29.732 29.732 0 0 1-.006 52.926 2.556 2.556 0 0 0 2.326 4.553 34.823 34.823 0 0 0 13.862-49.195z"/><path fill="#5f717f" d="M81.4 67.135a2.562 2.562 0 1 0 1.7 4.833 8.452 8.452 0 0 0 .006-15.933 2.562 2.562 0 1 0-1.7 4.833 3.327 3.327 0 0 1-.006 6.267z"/><path fill="#faf298" fill-rule="evenodd" d="M20.94 61.77v4.455a4.945 4.945 0 0 0 4.924 4.924h1.088v-14.3h-1.088a4.909 4.909 0 0 0-3.476 1.448l-.112.105a4.9 4.9 0 0 0-1.336 3.368z"/><path fill="#9da7b0" fill-rule="evenodd" d="M33.264 78.238a2.184 2.184 0 0 1-1.395-.5l-.047-.039-.116-.123a2.144 2.144 0 0 1-.621-1.517V51.936a2.2 2.2 0 0 1 .506-1.4l.036-.044.114-.11a2.151 2.151 0 0 1 1.522-.626H39.1v28.482z"/><path fill="#9da7b0" fill-rule="evenodd" d="M32.086 54.279V76.06a1.174 1.174 0 0 0 .348.83l.075.078a1.175 1.175 0 0 0 .756.27H38.1V50.757h-4.836a1.175 1.175 0 0 0-.83.348l-.073.07a1.186 1.186 0 0 0-.275.76v2.343z"/><path fill="#faf298" fill-rule="evenodd" d="M43.231 49.586V78.4l1.734 1.113L67.35 93.878l.16.11a1.641 1.641 0 0 0 .477.248 1.838 1.838 0 0 0 .576.09 1.7 1.7 0 0 0 1.163-.428 1.137 1.137 0 0 0 .382-.828v-57.9l-.013-.253v-.116l-.047-.206a1.161 1.161 0 0 0-.171-.319 1.56 1.56 0 0 0-1-.58 1.787 1.787 0 0 0-1.263.242L44.965 48.473z"/><path fill="#5f717f" d="M27 76.283a6.289 6.289 0 0 0 1.8 4.236q.09.09.185.168a6.289 6.289 0 0 0 4.275 1.684h6.674l2.26 1.45 22.3 14.311a6.774 6.774 0 0 0 1.889.976 6.948 6.948 0 0 0 2.18.35 6.832 6.832 0 0 0 4.653-1.811 6.23 6.23 0 0 0 2.027-4.578V34.913a2.588 2.588 0 0 0-.038-.441 6.1 6.1 0 0 0-.3-1.505 6.273 6.273 0 0 0-.913-1.743 6.7 6.7 0 0 0-4.27-2.586 6.894 6.894 0 0 0-4.873.983L42.2 44.161l-2.277 1.461h-6.659a6.3 6.3 0 0 0-4.46 1.852q-.086.086-.161.177a6.279 6.279 0 0 0-1.648 4.06h-1.131a10.028 10.028 0 0 0-7.106 2.953c-.052.052-.1.105-.147.16a10.03 10.03 0 0 0-2.806 6.946v4.455a10.081 10.081 0 0 0 10.059 10.058zm40.617-42.349a1.785 1.785 0 0 1 1.263-.242 1.56 1.56 0 0 1 1 .58 1.167 1.167 0 0 1 .171.319 1.055 1.055 0 0 1 .047.206v.116a2.5 2.5 0 0 0 .013.253v57.9a1.138 1.138 0 0 1-.382.828 1.7 1.7 0 0 1-1.163.428 1.839 1.839 0 0 1-.576-.09 1.644 1.644 0 0 1-.477-.248 1.503 1.503 0 0 0-.16-.111L44.965 79.51l-1.734-1.11V49.586l1.734-1.113zm-35.532 18a1.186 1.186 0 0 1 .275-.76l.073-.07a1.175 1.175 0 0 1 .83-.348H38.1v26.482h-4.836a1.176 1.176 0 0 1-.756-.27l-.075-.078a1.174 1.174 0 0 1-.348-.83V51.935zM20.94 66.225V61.77a4.9 4.9 0 0 1 1.336-3.37q.057-.05.112-.105a4.908 4.908 0 0 1 3.476-1.448h1.087v14.3h-1.087a4.946 4.946 0 0 1-4.924-4.924z"/></svg>