<svg id="Layer_3" data-name="Layer 3" xmlns="http://www.w3.org/2000/svg" viewBox="0 0 128 128"><title>Artboard 102</title><path d="M39.878,41.95a2.567,2.567,0,0,1,5.134,0v44.1a2.567,2.567,0,0,1-5.134,0Z" style="fill:#fff"/><path d="M54.248,41.95a2.567,2.567,0,0,1,5.134,0v44.1a2.567,2.567,0,0,1-5.134,0Z" style="fill:#fff"/><path d="M68.618,41.95a2.567,2.567,0,0,1,5.134,0v44.1a2.567,2.567,0,0,1-5.134,0Z" style="fill:#fff"/><path d="M82.988,41.95a2.567,2.567,0,0,1,5.134,0v44.1a2.567,2.567,0,0,1-5.134,0Z" style="fill:#fff"/><circle cx="42.445" cy="73.172" r="4.835" style="fill:#fff"/><circle cx="56.815" cy="57.193" r="4.835" style="fill:#fff"/><circle cx="71.185" cy="73.172" r="4.835" style="fill:#fff"/><circle cx="85.555" cy="57.193" r="4.835" style="fill:#fff"/><path d="M38.749,95.011A10.63,10.63,0,0,1,28.155,84.417V43.583A10.63,10.63,0,0,1,38.749,32.99h50.5A10.629,10.629,0,0,1,99.845,43.583V84.417A10.629,10.629,0,0,1,89.252,95.011ZM85.555,40.383a1.569,1.569,0,0,0-1.567,1.567v11.7l-.468.294a3.837,3.837,0,0,0,0,6.5l.468.294V86.051a1.567,1.567,0,1,0,3.134,0V60.737l.469-.294a3.836,3.836,0,0,0,0-6.5l-.469-.294V41.95A1.569,1.569,0,0,0,85.555,40.383Zm-14.37,0a1.569,1.569,0,0,0-1.567,1.567V69.626l-.468.294a3.837,3.837,0,0,0,0,6.5l.468.294v9.333a1.567,1.567,0,0,0,3.134,0V76.718l.468-.294a3.837,3.837,0,0,0,0-6.5l-.468-.294V41.95A1.569,1.569,0,0,0,71.185,40.383Zm-14.37,0a1.569,1.569,0,0,0-1.567,1.567v11.7l-.468.294a3.836,3.836,0,0,0,0,6.5l.468.294V86.051a1.567,1.567,0,1,0,3.134,0V60.737l.469-.294a3.836,3.836,0,0,0,0-6.5l-.469-.294V41.95A1.569,1.569,0,0,0,56.815,40.383Zm-14.37,0a1.569,1.569,0,0,0-1.567,1.567V69.626l-.468.294a3.837,3.837,0,0,0,0,6.5l.468.294v9.333a1.567,1.567,0,0,0,3.134,0V76.718l.468-.294a3.837,3.837,0,0,0,0-6.5l-.468-.294V41.95A1.569,1.569,0,0,0,42.445,40.383Z" style="fill:#9da7b0;fill-rule:evenodd"/><path d="M47.28,73.172a4.833,4.833,0,0,1-2.268,4.1v8.78a2.567,2.567,0,0,1-5.134,0V77.27a4.836,4.836,0,0,1,0-8.2V41.95a2.567,2.567,0,0,1,5.134,0V69.074A4.833,4.833,0,0,1,47.28,73.172ZM38.749,94.011h50.5a9.628,9.628,0,0,0,9.593-9.594V43.583a9.628,9.628,0,0,0-9.593-9.594h-50.5a9.629,9.629,0,0,0-9.594,9.594V84.417a9.629,9.629,0,0,0,9.594,9.594Zm44.24-32.72a4.837,4.837,0,0,1,0-8.2V41.95a2.567,2.567,0,0,1,5.134,0V53.094a4.836,4.836,0,0,1,0,8.2v24.76a2.567,2.567,0,0,1-5.134,0ZM66.35,73.172a4.832,4.832,0,0,1,2.268-4.1V41.95a2.567,2.567,0,0,1,5.134,0V69.074a4.837,4.837,0,0,1,0,8.2v8.78a2.567,2.567,0,0,1-5.134,0V77.27A4.832,4.832,0,0,1,66.35,73.172Zm-12.1,12.878V61.291a4.837,4.837,0,0,1,0-8.2V41.95a2.567,2.567,0,0,1,5.134,0V53.094a4.836,4.836,0,0,1,0,8.2v24.76a2.567,2.567,0,0,1-5.134,0Z" style="fill:#9da7b0;fill-rule:evenodd"/><path d="M38.748,99.144h50.5a14.764,14.764,0,0,0,14.728-14.728V43.583A14.764,14.764,0,0,0,89.252,28.856h-50.5A14.765,14.765,0,0,0,24.021,43.583V84.417A14.764,14.764,0,0,0,38.748,99.144ZM29.155,43.583a9.629,9.629,0,0,1,9.594-9.594h50.5a9.628,9.628,0,0,1,9.593,9.594V84.417a9.628,9.628,0,0,1-9.593,9.594h-50.5a9.629,9.629,0,0,1-9.594-9.594Z" style="fill:#5f717f"/></svg>