<svg id="icons" xmlns="http://www.w3.org/2000/svg" viewBox="0 0 64 64"><defs><style>.cls-1{fill:none;stroke:#000;stroke-linecap:round;stroke-linejoin:round;stroke-width:2px;}</style></defs><title>church</title><g id="church"><g id="church-2" data-name="church"><line class="cls-1" x1="31.99" y1="17.16" x2="31.99" y2="24.52"/><line class="cls-1" x1="27.54" y1="20.93" x2="36.45" y2="20.93"/><path class="cls-1" d="M9.42,24.52h12.2a0,0,0,0,1,0,0V56.39a0,0,0,0,1,0,0H5.4a0,0,0,0,1,0,0V28.54A4,4,0,0,1,9.42,24.52Z"/><path class="cls-1" d="M42.27,24.52H54.58a4,4,0,0,1,4,4V56.39a0,0,0,0,1,0,0H42.27a0,0,0,0,1,0,0V24.52A0,0,0,0,1,42.27,24.52Z"/><path class="cls-1" d="M21.63,24.52V15.91a4.07,4.07,0,0,1,1.79-3.37L29.71,8.3a4.08,4.08,0,0,1,4.56,0l6.22,4.23a4.07,4.07,0,0,1,1.78,3.36V56.39H21.63Z"/><line class="cls-1" x1="9.87" y1="31.57" x2="17.66" y2="31.57"/><line class="cls-1" x1="9.87" y1="38.28" x2="17.66" y2="38.28"/><line class="cls-1" x1="46.54" y1="31.57" x2="54.33" y2="31.57"/><line class="cls-1" x1="46.54" y1="38.28" x2="54.33" y2="38.28"/><polyline class="cls-1" points="27.54 56.39 27.54 38.28 36.45 38.28 36.45 56.39"/></g><line class="cls-1" x1="5.4" y1="56.39" x2="2.32" y2="56.39"/><line class="cls-1" x1="61.68" y1="56.39" x2="58.6" y2="56.39"/></g></svg>