<svg id="icons" xmlns="http://www.w3.org/2000/svg" viewBox="0 0 64 64"><defs><style>.cls-1{fill:none;stroke:#000;stroke-linecap:round;stroke-linejoin:round;stroke-width:2px;}</style></defs><title>pills</title><g id="pills"><line class="cls-1" x1="47.94" y1="33.62" x2="28.58" y2="28.29"/><circle class="cls-1" cx="16.71" cy="18.05" r="9.81"/><line class="cls-1" x1="25.29" y1="13.28" x2="8.14" y2="22.81"/><path class="cls-1" d="M52.18,16.9a10.05,10.05,0,0,1-.36,2.64L44.06,47.7a10,10,0,0,1-18.48,2.13,10,10,0,0,1-.88-7.47l1.61-5.86,6.15-22.29A10,10,0,0,1,52.18,16.9Z"/><path class="cls-1" d="M25.58,49.83a9.71,9.71,0,0,1-3.93,2.32A9.81,9.81,0,1,1,26.31,36.5L24.7,42.36A10,10,0,0,0,25.58,49.83Z"/><line class="cls-1" x1="21.65" y1="52.15" x2="15.88" y2="33.4"/><circle cx="32" cy="34.36" r="1.29"/><circle cx="36.65" cy="36.1" r="1.29"/><circle cx="32.4" cy="39.27" r="1.29"/><circle cx="37.59" cy="41.02" r="1.29"/><circle cx="41.16" cy="37.7" r="1.29"/><circle cx="29.52" cy="43.2" r="1.29"/><circle cx="34.17" cy="44.93" r="1.29"/><circle cx="29.81" cy="48.46" r="1.29"/><circle cx="35" cy="50.21" r="1.29"/><circle cx="38.67" cy="46.54" r="1.29"/></g></svg>