<svg xmlns="http://www.w3.org/2000/svg" id="icons" viewBox="0 0 64 64"><defs><style>.cls-1{fill:none;stroke:#000;stroke-linecap:round;stroke-linejoin:round;stroke-width:2px;}</style></defs><g id="ambulance_2"><rect width="17.01" height="17.01" x="30.85" y="19.44" class="cls-1" rx="8.5"/><path d="M39.35 23.8 39.35 32.09" class="cls-1"/><path d="M34.91 28.05 43.81 28.05" class="cls-1"/><path d="M21.74 43.83 41.34 43.83" class="cls-1"/><path d="M51.4 43.83 60.22 43.83" class="cls-1"/><path d="M4.48 43.83 11.68 43.83" class="cls-1"/><path d="M26.69 43.83 21.74 43.83" class="cls-1"/><path d="M11.68 43.83 6.72 43.83 6.72 27.7 14.93 15.66 56.92 15.66 56.92 43.83" class="cls-1"/><ellipse cx="16.71" cy="43.83" class="cls-1" rx="5.03" ry="4.76"/><ellipse cx="46.37" cy="43.83" class="cls-1" rx="5.03" ry="4.76"/><path d="M19.31 15.66 19.31 11.77" class="cls-1"/><path d="M25.2 15.66 25.2 27.95 6.72 27.95" class="cls-1"/><path d="M25.19 27.95 25.19 43.83" class="cls-1"/></g></svg>