<svg id="icons" xmlns="http://www.w3.org/2000/svg" viewBox="0 0 64 64"><defs><style>.cls-1{fill:none;stroke:#000;stroke-linecap:round;stroke-linejoin:round;stroke-width:2px;}</style></defs><title>science</title><g id="science"><path class="cls-1" d="M39.91,33.62c-.29,1.68-.62,3.31-1,4.88a61.27,61.27,0,0,1-3.66,11.13c-.48,1.08-1,2.06-1.49,2.94a3.21,3.21,0,0,0-4.55,4.29,3.12,3.12,0,0,0,.25.35,2.75,2.75,0,0,1-1.55.22c-2.34-.4-3.85-4.17-4.35-9.8a60.75,60.75,0,0,1,.25-11.69c.17-1.61.4-3.27.69-4.95q.51-3,1.19-5.76a58.58,58.58,0,0,1,3.74-10.89c2.25-4.76,4.8-7.54,7.05-7.16s3.72,3.85,4.28,9.08a58.81,58.81,0,0,1-.09,11.53C40.51,29.67,40.25,31.62,39.91,33.62Z"/><path class="cls-1" d="M56.78,19.48A3.21,3.21,0,0,0,52.54,24a3.27,3.27,0,0,0,.9,1A62.61,62.61,0,0,1,44.61,34c-1.76,1.52-3.66,3-5.68,4.51-.43.32-.86.63-1.31.94-2.51,1.78-5,3.39-7.45,4.78a70.73,70.73,0,0,1-6.59,3.41c-7.81,3.52-14,4.39-15.93,1.72C5.24,46,10.54,37.88,20,29.79c1.79-1.53,3.71-3.07,5.76-4.56.4-.3.8-.58,1.22-.88,2.51-1.78,5-3.38,7.45-4.79,2.21-1.26,4.36-2.37,6.4-3.3,7.9-3.61,14.21-4.52,16.13-1.81C57.74,15.63,57.65,17.37,56.78,19.48Z"/><path class="cls-1" d="M49.76,56.56c-2.69,1.9-8.27-1-14.49-6.93a73.16,73.16,0,0,1-5.1-5.41c-1.82-2.12-3.65-4.45-5.41-6.94-.32-.45-.63-.9-.93-1.34-1.42-2.08-2.72-4.14-3.88-6.15C13.76,19.06,11.45,9.71,14.84,7.3c1.36-1,3.46-.69,6,.58a3.2,3.2,0,0,0,5.32,3.55c1.06.87,2.16,1.84,3.28,2.91,1.62,1.55,3.27,3.3,4.93,5.22,1.84,2.15,3.68,4.5,5.47,7,.29.4.56.81.84,1.21,1.44,2.09,2.75,4.17,3.92,6.2C50.83,44.76,53.16,54.14,49.76,56.56Z"/><circle class="cls-1" cx="32.24" cy="31.97" r="4.29"/><path class="cls-1" d="M26.25,11.32l-.08.11a3.2,3.2,0,0,1-5.32-3.55l.07-.13a3.21,3.21,0,0,1,5.33,3.57Z"/><path class="cls-1" d="M33.62,58a3.21,3.21,0,0,1-4.14-.78,3.12,3.12,0,0,1-.25-.35,3.21,3.21,0,0,1,4.55-4.29,3.26,3.26,0,0,1,1,1A3.2,3.2,0,0,1,33.62,58Z"/><path class="cls-1" d="M56.93,25.08a3.2,3.2,0,0,1-3.49-.15,3.27,3.27,0,0,1-.9-1,3.21,3.21,0,0,1,4.24-4.47,3.28,3.28,0,0,1,1.29,1.22A3.21,3.21,0,0,1,56.93,25.08Z"/></g></svg>