<svg id="icons" xmlns="http://www.w3.org/2000/svg" viewBox="0 0 64 64"><defs><style>.cls-1{fill:none;stroke:#000;stroke-linecap:round;stroke-linejoin:round;stroke-width:2px;}</style></defs><title>wheelchair</title><g id="wheelchair"><circle class="cls-1" cx="43.49" cy="41.53" r="15.1"/><polyline class="cls-1" points="48.16 27.17 48.16 7.96 56.86 7.96"/><circle class="cls-1" cx="10.88" cy="49.97" r="6.21"/><line class="cls-1" x1="48.17" y1="16.79" x2="33.94" y2="16.78"/><path class="cls-1" d="M10.88,50V24.58c0-4.31,3.23-7.8,7.22-7.8h1.7"/><circle class="cls-1" cx="43.49" cy="41.53" r="9.53"/><path class="cls-1" d="M33.94,16.76v0a2.84,2.84,0,0,1-2.83,2.82H22.63a2.79,2.79,0,0,1-2-.84,2.84,2.84,0,0,1-.83-2h0a2.86,2.86,0,0,1,2.83-2.85h8.48a2.83,2.83,0,0,1,2.83,2.83Z"/><line class="cls-1" x1="10.88" y1="37.53" x2="28.92" y2="37.53"/></g></svg>