<svg id="icons" xmlns="http://www.w3.org/2000/svg" viewBox="0 0 64 64"><defs><style>.cls-1{fill:none;stroke:#000;stroke-linecap:round;stroke-linejoin:round;stroke-width:2px;}</style></defs><title>microscope</title><g id="microscope"><polyline class="cls-1" points="55.59 58.95 55.59 52.92 7.96 52.92 7.96 58.95"/><polyline class="cls-1" points="25.87 52.92 25.87 46.9 37.85 46.9 37.85 52.92"/><path class="cls-1" d="M16.79,41.41A18.72,18.72,0,0,0,43.27,14.93"/><line class="cls-1" x1="7.83" y1="41.41" x2="25.75" y2="41.41"/><path class="cls-1" d="M44.26,5.22l1.32,1.33a4.27,4.27,0,0,1,0,6L27.36,30.81,20,23.45,38.22,5.22A4.29,4.29,0,0,1,44.26,5.22Z"/><polyline class="cls-1" points="21.8 25.25 17.9 29.16 22.16 33.42 26.06 29.51"/></g></svg>