<svg xmlns="http://www.w3.org/2000/svg" id="icons" viewBox="0 0 64 64"><defs><style>.cls-1{fill:none;stroke:#000;stroke-linecap:round;stroke-linejoin:round;stroke-width:2px;}</style></defs><g id="male_nurse" data-name="male nurse"><path d="M10.74 56.71h42.52v-2.85c0-8.7-5.6-15.76-12.51-15.76H38.6l-6.5 8.61-6.54-8.61h-2.31c-6.91 0-12.51 7.06-12.51 15.76z" class="cls-1"/><path d="M32.1 46.71 32.1 56.71" class="cls-1"/><path d="M40.52 21.17c0 5-4.43 13.56-8.63 13.56s-8.67-8.51-8.67-13.56" class="cls-1"/><path d="M40.52 21.17a8.65 8.65 0 1 0-17.3 0 6.9 6.9 0 0 0 6.78-1.6c3.24-2.92 10.52 1.6 10.52 1.6z" class="cls-1"/><path d="M38.19 45.74H46.839999999999996V50.35H38.19z" class="cls-1"/><path d="M17.79 48.05 24 48.05" class="cls-1"/></g></svg>