<svg id="icons" xmlns="http://www.w3.org/2000/svg" viewBox="0 0 64 64"><defs><style>.cls-1{fill:none;stroke:#000;stroke-linecap:round;stroke-linejoin:round;stroke-width:2px;}</style></defs><title>helicopter</title><g id="helicopter"><line class="cls-1" x1="27.58" y1="35.46" x2="27.58" y2="28.53"/><line class="cls-1" x1="24.08" y1="31.99" x2="31.08" y2="31.99"/><path class="cls-1" d="M6.43,35.51V36.8c0,2.54,2.41,4.59,5.38,4.59H30.29c3,0,5.37-2,5.37-4.59V22.59H21.57C13.21,22.59,6.43,28.38,6.43,35.51Z"/><polyline class="cls-1" points="35.66 30.27 49.46 30.27 53.73 21.39"/><line class="cls-1" x1="22.62" y1="22.59" x2="22.62" y2="15.39"/><line class="cls-1" x1="8.76" y1="15.39" x2="36.4" y2="15.39"/><line class="cls-1" x1="49" y1="16.87" x2="58.45" y2="25.9"/><line class="cls-1" x1="24.55" y1="41.39" x2="24.55" y2="48.72"/><line class="cls-1" x1="13.42" y1="41.39" x2="13.42" y2="48.72"/><polyline class="cls-1" points="31.95 48.72 8.06 48.72 4.2 45.24"/><path class="cls-1" d="M19.37,22.73V29c0,2.66-1.86,4.81-4.15,4.81H6.57"/></g></svg>