<svg xmlns="http://www.w3.org/2000/svg" id="icons" viewBox="0 0 64 64"><defs><style>.cls-1{fill:none;stroke:#000;stroke-linecap:round;stroke-linejoin:round;stroke-width:2px;}</style></defs><g id="badge"><path d="M21.53 27.51c0 2.2-1.93 5.89-3.75 5.89S14 29.71 14 27.51M21.53 27.51a3.76 3.76 0 0 0-7.52 0" class="cls-1"/><rect width="52.57" height="28.06" x="5.75" y="19.97" class="cls-1" rx="3.41"/><path d="M9.68 43.54h16.18v-1.08c0-3.31-2.13-6-4.76-6h-.82l-2.47 3.28-2.49-3.28h-.88c-2.63 0-4.76 2.69-4.76 6z" class="cls-1"/><path d="M17.97 39.74 17.97 43.54" class="cls-1"/><path d="M32.04 27.67 51.89 27.67" class="cls-1"/><path d="M32.04 33.71 51.89 33.71" class="cls-1"/><path d="M32.04 39.21 51.89 39.21" class="cls-1"/><path d="M29.55 20 26.7 9A1.36 1.36 0 0 1 28 7.28h8A1.36 1.36 0 0 1 37.3 9l-2.77 11z" class="cls-1"/></g></svg>