<svg xmlns="http://www.w3.org/2000/svg" id="icons" viewBox="0 0 64 64"><defs><style>.cls-1{fill:none;stroke:#000;stroke-linecap:round;stroke-linejoin:round;stroke-width:2px}</style></defs><g id="uniform"><path d="M27 12.57h-6.65A3 3 0 0018 13.72L4.25 31.44a1.8 1.8 0 001.43 2.9h6.67a1.81 1.81 0 001.43-.7L18.89 27v24.17A1.82 1.82 0 0020.71 53H43.1a1.81 1.81 0 001.82-1.82V27l5.18 6.69a1.8 1.8 0 001.42.69h6.81a1.8 1.8 0 001.42-2.9L46 13.71a3 3 0 00-2.35-1.14h-6.81" class="cls-1"/><path d="M44.92 30C19.86 30 27 12.57 27 12.57h9.8s5 12.88-7.69 12.88M23.1 30.96h6.21" class="cls-1"/></g></svg>