<svg id="icons" xmlns="http://www.w3.org/2000/svg" viewBox="0 0 64 64"><defs><style>.cls-1{fill:none;stroke:#000;stroke-linecap:round;stroke-linejoin:round;stroke-width:2px;}</style></defs><title>hospital</title><g id="hospital"><rect class="cls-1" x="5.9" y="26.47" width="17.23" height="33.62"/><rect class="cls-1" x="11.02" y="33.91" width="7.08" height="14.11"/><line class="cls-1" x1="11.02" y1="39.47" x2="18.1" y2="39.47"/><line class="cls-1" x1="34.61" y1="23.08" x2="46.25" y2="23.08"/><line class="cls-1" x1="34.61" y1="30.16" x2="46.25" y2="30.16"/><line class="cls-1" x1="34.61" y1="37.19" x2="46.25" y2="37.19"/><rect class="cls-1" x="32.61" y="2.31" width="15.64" height="15.64" rx="7.82"/><line class="cls-1" x1="37.42" y1="6.58" x2="37.42" y2="13.67"/><line class="cls-1" x1="43.8" y1="10.12" x2="37.42" y2="10.12"/><line class="cls-1" x1="43.8" y1="6.58" x2="43.8" y2="13.67"/><polyline class="cls-1" points="23.12 60.1 23.12 29.08 23.12 10.12"/><line class="cls-1" x1="57.74" y1="10.12" x2="57.74" y2="60.1"/><polyline class="cls-1" points="34.61 60.1 34.61 42.33 46.25 42.33 46.25 60.1"/><line class="cls-1" x1="23.12" y1="10.12" x2="32.61" y2="10.12"/><line class="cls-1" x1="57.74" y1="10.12" x2="48.25" y2="10.12"/><polyline class="cls-1" points="23.12 60.1 34.61 60.1 46.25 60.1 57.74 60.1"/><line class="cls-1" x1="5.9" y1="60.1" x2="2.65" y2="60.1"/><line class="cls-1" x1="60.99" y1="60.1" x2="57.74" y2="60.1"/></g></svg>