<svg id="icons" xmlns="http://www.w3.org/2000/svg" viewBox="0 0 64 64"><defs><style>.cls-1{fill:none;stroke:#000;stroke-linecap:round;stroke-linejoin:round;stroke-width:2px;}</style></defs><title>bandage</title><g id="bandage"><path class="cls-1" d="M32,15.22l-17,17-8-8a5,5,0,0,1,0-7L17,7.18a4.9,4.9,0,0,1,6.91,0Z"/><path class="cls-1" d="M56.25,48l-8.53,8.52a6,6,0,0,1-8.48,0L32,49.24l17-17,7.25,7.25A6,6,0,0,1,56.25,48Z"/><path class="cls-1" d="M57,24.19l-8,8-17,17-7.25,7.25a6,6,0,0,1-8.49,0L7.73,48a6,6,0,0,1,0-8.49L40,7.23a5,5,0,0,1,7,0L57,17.29A4.89,4.89,0,0,1,57,24.19Z"/><path class="cls-1" d="M18.84,25.48H44.5a3.37,3.37,0,0,1,3.37,3.37v6.77A3.37,3.37,0,0,1,44.5,39H18.88A2.78,2.78,0,0,1,16.1,36.2v-8a2.74,2.74,0,0,1,2.74-2.74Z" transform="translate(77.39 32.41) rotate(135)"/><rect x="35.95" y="22.07" width="2.62" height="2.94" rx="1.31" transform="translate(27.55 -19.45) rotate(45)"/><rect x="39.39" y="25.51" width="2.62" height="2.94" rx="1.31" transform="translate(31 -20.88) rotate(45)"/><rect x="34.45" y="26.98" width="2.62" height="2.94" rx="1.31" transform="translate(30.59 -16.95) rotate(45)"/><rect x="29.09" y="28.91" width="2.62" height="2.94" rx="1.31" transform="translate(30.38 -12.6) rotate(45)"/><rect x="32.53" y="32.35" width="2.62" height="2.94" rx="1.31" transform="translate(33.83 -14.02) rotate(45)"/><rect x="27.59" y="33.82" width="2.62" height="2.94" rx="1.31" transform="translate(33.42 -10.1) rotate(45)"/><rect x="22.44" y="35.61" width="2.62" height="2.94" rx="1.31" transform="translate(33.18 -5.93) rotate(45)"/><rect x="25.88" y="39.06" width="2.62" height="2.94" rx="1.31" transform="translate(36.62 -7.36) rotate(45)"/></g></svg>