<svg id="icons" xmlns="http://www.w3.org/2000/svg" viewBox="0 0 64 64"><defs><style>.cls-1{fill:none;stroke:#000;stroke-linecap:round;stroke-linejoin:round;stroke-width:2px;}</style></defs><title>ambulance_2</title><g id="ambulance_2"><rect class="cls-1" x="30.85" y="19.44" width="17.01" height="17.01" rx="8.5"/><line class="cls-1" x1="39.35" y1="23.8" x2="39.35" y2="32.09"/><line class="cls-1" x1="34.91" y1="28.05" x2="43.81" y2="28.05"/><line class="cls-1" x1="21.74" y1="43.83" x2="41.34" y2="43.83"/><line class="cls-1" x1="51.4" y1="43.83" x2="60.22" y2="43.83"/><line class="cls-1" x1="4.48" y1="43.83" x2="11.68" y2="43.83"/><line class="cls-1" x1="26.69" y1="43.83" x2="21.74" y2="43.83"/><polyline class="cls-1" points="11.68 43.83 6.72 43.83 6.72 27.7 14.93 15.66 56.92 15.66 56.92 43.83"/><ellipse class="cls-1" cx="16.71" cy="43.83" rx="5.03" ry="4.76"/><ellipse class="cls-1" cx="46.37" cy="43.83" rx="5.03" ry="4.76"/><line class="cls-1" x1="19.31" y1="15.66" x2="19.31" y2="11.77"/><polyline class="cls-1" points="25.2 15.66 25.2 27.95 6.72 27.95"/><line class="cls-1" x1="25.19" y1="27.95" x2="25.19" y2="43.83"/></g></svg>