<svg id="icons" xmlns="http://www.w3.org/2000/svg" viewBox="0 0 64 64"><defs><style>.cls-1{fill:none;stroke:#000;stroke-linecap:round;stroke-linejoin:round;stroke-width:2px;}</style></defs><title>badge</title><g id="badge"><path class="cls-1" d="M21.53,27.51c0,2.2-1.93,5.89-3.75,5.89S14,29.71,14,27.51"/><path class="cls-1" d="M21.53,27.51a3.76,3.76,0,0,0-7.52,0"/><rect class="cls-1" x="5.75" y="19.97" width="52.57" height="28.06" rx="3.41"/><path class="cls-1" d="M9.68,43.54H25.86V42.46c0-3.31-2.13-6-4.76-6h-.82l-2.47,3.28-2.49-3.28h-.88c-2.63,0-4.76,2.69-4.76,6Z"/><line class="cls-1" x1="17.97" y1="39.74" x2="17.97" y2="43.54"/><line class="cls-1" x1="32.04" y1="27.67" x2="51.89" y2="27.67"/><line class="cls-1" x1="32.04" y1="33.71" x2="51.89" y2="33.71"/><line class="cls-1" x1="32.04" y1="39.21" x2="51.89" y2="39.21"/><path class="cls-1" d="M29.55,20,26.7,9A1.36,1.36,0,0,1,28,7.28h8A1.36,1.36,0,0,1,37.3,9L34.53,20Z"/></g></svg>