<svg id="icons" xmlns="http://www.w3.org/2000/svg" viewBox="0 0 64 64"><defs><style>.cls-1{fill:none;stroke:#000;stroke-linecap:round;stroke-linejoin:round;stroke-width:2px;}</style></defs><title>medicine</title><g id="medicine"><rect class="cls-1" x="22.94" y="29.8" width="18.13" height="18.13" rx="9.06"/><line class="cls-1" x1="32" y1="44.04" x2="32" y2="33.68"/><line class="cls-1" x1="26.74" y1="38.86" x2="37.26" y2="38.86"/><path class="cls-1" d="M37,11.81v5.3a2.34,2.34,0,0,0,2.34,2.34h5a2.34,2.34,0,0,1,2.34,2.34V55.6a2.34,2.34,0,0,1-2.34,2.34H19.66a2.34,2.34,0,0,1-2.34-2.34V21.79a2.34,2.34,0,0,1,2.34-2.34h5.07a2.34,2.34,0,0,0,2.34-2.34v-5.3"/><rect class="cls-1" x="22.96" y="6.13" width="18.09" height="5.67"/><line class="cls-1" x1="17.32" y1="25.91" x2="46.68" y2="25.91"/><line class="cls-1" x1="17.32" y1="51.81" x2="46.68" y2="51.81"/></g></svg>