<svg xmlns="http://www.w3.org/2000/svg" id="icons" viewBox="0 0 64 64"><defs><style>.cls-1{fill:none;stroke:#000;stroke-linecap:round;stroke-linejoin:round;stroke-width:2px;}</style></defs><g id="tube_1"><path d="M54.69 54.02 8.96 54.02" class="cls-1"/><path d="M19.84 26.12 19.84 52.96" class="cls-1"/><path d="M19.84 6 19.84 13.52" class="cls-1"/><path d="M39.84 19.97 26.13 19.95" class="cls-1"/><path d="M13.54 19.82a6.3 6.3 0 0 0 12.59.18.57.57 0 0 0 0-.13 6.3 6.3 0 0 0-12.6 0zM50.85 8.25v32.89c0 3.86-2.47 7-5.51 7h0c-3 0-5.5-3.13-5.5-7V8.25" class="cls-1"/><path d="M55.82 8.25 36.27 8.25" class="cls-1"/><path d="M50.85 15.89 44.44 15.89" class="cls-1"/><path d="M50.85 23.53 46.93 23.53" class="cls-1"/><path d="M50.85 31.17 44.44 31.17" class="cls-1"/><path d="M50.85 38.81 46.93 38.81" class="cls-1"/></g></svg>