<svg xmlns="http://www.w3.org/2000/svg" id="icons" viewBox="0 0 64 64"><defs><style>.cls-1{fill:none;stroke:#000;stroke-linecap:round;stroke-linejoin:round;stroke-width:2px;}</style></defs><g id="medicine"><rect width="18.13" height="18.13" x="22.94" y="29.8" class="cls-1" rx="9.06"/><path d="M32 44.04 32 33.68" class="cls-1"/><path d="M26.74 38.86 37.26 38.86" class="cls-1"/><path d="M37 11.81v5.3a2.34 2.34 0 0 0 2.34 2.34h5a2.34 2.34 0 0 1 2.34 2.34V55.6a2.34 2.34 0 0 1-2.34 2.34H19.66a2.34 2.34 0 0 1-2.34-2.34V21.79a2.34 2.34 0 0 1 2.34-2.34h5.07a2.34 2.34 0 0 0 2.34-2.34v-5.3" class="cls-1"/><path d="M22.96 6.13H41.05V11.8H22.96z" class="cls-1"/><path d="M17.32 25.91 46.68 25.91" class="cls-1"/><path d="M17.32 51.81 46.68 51.81" class="cls-1"/></g></svg>