<svg xmlns="http://www.w3.org/2000/svg" id="icons" viewBox="0 0 64 64"><defs><style>.cls-1{fill:none;stroke:#000;stroke-linecap:round;stroke-linejoin:round;stroke-width:2px}</style></defs><g id="tube_1"><path d="M54.69 54.02H8.96M19.84 26.12v26.84M19.84 6v7.52M39.84 19.97l-13.71-.02M13.54 19.82a6.3 6.3 0 0012.59.18.57.57 0 000-.13 6.3 6.3 0 00-12.6 0zM50.85 8.25v32.89c0 3.86-2.47 7-5.51 7-3 0-5.5-3.13-5.5-7V8.25M55.82 8.25H36.27M50.85 15.89h-6.41M50.85 23.53h-3.92M50.85 31.17h-6.41M50.85 38.81h-3.92" class="cls-1"/></g></svg>