<svg id="icons" xmlns="http://www.w3.org/2000/svg" viewBox="0 0 64 64"><defs><style>.cls-1{fill:none;stroke:#000;stroke-linecap:round;stroke-linejoin:round;stroke-width:2px;}</style></defs><title>help call</title><g id="help_call" data-name="help call"><line class="cls-1" x1="14.89" y1="31.32" x2="14.89" y2="17.88"/><line class="cls-1" x1="8.09" y1="24.6" x2="21.69" y2="24.6"/><path class="cls-1" d="M48,13V53a5,5,0,0,1-5,5H21.11a5,5,0,0,1-5-5V36.72H29.9l-4.53-6A12.12,12.12,0,0,0,16.1,12.54a5,5,0,0,1,5-4.61H43A5,5,0,0,1,48,13Z"/><line class="cls-1" x1="48" y1="18.01" x2="25.06" y2="18.01"/><line class="cls-1" x1="16.04" y1="48.08" x2="47.96" y2="48.08"/><circle cx="32.04" cy="53" r="2.49"/><line class="cls-1" x1="27.01" y1="12.86" x2="37" y2="12.86"/><path class="cls-1" d="M14.89,36.72A12.12,12.12,0,1,1,27,24.6a12,12,0,0,1-1.64,6.08l4.53,6h-15"/><line class="cls-1" x1="16.08" y1="36.72" x2="14.89" y2="36.72"/></g></svg>