<svg id="icons" xmlns="http://www.w3.org/2000/svg" viewBox="0 0 64 64"><defs><style>.cls-1{fill:none;stroke:#000;stroke-linecap:round;stroke-linejoin:round;stroke-width:2px;}</style></defs><title>ambulance_1</title><g id="ambulance_1"><rect class="cls-1" x="32.16" y="17.28" width="19.85" height="19.85" rx="9.92"/><line class="cls-1" x1="42.07" y1="22.24" x2="42.07" y2="31.92"/><line class="cls-1" x1="36.89" y1="27.2" x2="47.27" y2="27.2"/><line class="cls-1" x1="21.39" y1="45.65" x2="40.99" y2="45.65"/><line class="cls-1" x1="51.05" y1="45.65" x2="59.87" y2="45.65"/><line class="cls-1" x1="4.13" y1="45.65" x2="11.32" y2="45.65"/><path class="cls-1" d="M41,45.65H26.34V18.48a5,5,0,0,1,5.17-4.89h19a5,5,0,0,1,5.16,4.89V45.65H51.05"/><polyline class="cls-1" points="11.32 45.65 6.37 45.65 6.37 29.52 14.58 17.48 26.34 17.48 26.34 45.65 21.39 45.65"/><line class="cls-1" x1="6.37" y1="29.52" x2="26.34" y2="29.52"/><ellipse class="cls-1" cx="16.35" cy="45.65" rx="5.03" ry="4.76"/><ellipse class="cls-1" cx="46.02" cy="45.65" rx="5.03" ry="4.76"/><line class="cls-1" x1="18.95" y1="17.48" x2="18.95" y2="13.59"/></g></svg>