<svg xmlns="http://www.w3.org/2000/svg" id="icons" viewBox="0 0 64 64"><defs><style>.cls-1{fill:none;stroke:#000;stroke-linecap:round;stroke-linejoin:round;stroke-width:2px}</style></defs><g id="medicine"><rect width="18.13" height="18.13" x="22.94" y="29.8" class="cls-1" rx="9.06"/><path d="M32 44.04V33.68M26.74 38.86h10.52M37 11.81v5.3a2.34 2.34 0 002.34 2.34h5a2.34 2.34 0 012.34 2.34V55.6a2.34 2.34 0 01-2.34 2.34H19.66a2.34 2.34 0 01-2.34-2.34V21.79a2.34 2.34 0 012.34-2.34h5.07a2.34 2.34 0 002.34-2.34v-5.3M22.96 6.13h18.09v5.67H22.96zM17.32 25.91h29.36M17.32 51.81h29.36" class="cls-1"/></g></svg>