<svg id="icons" xmlns="http://www.w3.org/2000/svg" viewBox="0 0 64 64"><defs><style>.cls-1{fill:none;stroke:#000;stroke-linecap:round;stroke-linejoin:round;stroke-width:2px;}</style></defs><title>uniform</title><g id="uniform"><path class="cls-1" d="M27,12.57H20.35A3,3,0,0,0,18,13.72L4.25,31.44a1.8,1.8,0,0,0,1.43,2.9h6.67a1.81,1.81,0,0,0,1.43-.7L18.89,27V51.17A1.82,1.82,0,0,0,20.71,53H43.1a1.81,1.81,0,0,0,1.82-1.82V27l5.18,6.69a1.8,1.8,0,0,0,1.42.69h6.81a1.8,1.8,0,0,0,1.42-2.9L46,13.71a3,3,0,0,0-2.35-1.14H36.84"/><path class="cls-1" d="M44.92,30C19.86,30,27,12.57,27,12.57h9.8s5,12.88-7.69,12.88"/><line class="cls-1" x1="23.1" y1="30.96" x2="29.31" y2="30.96"/></g></svg>