<svg xmlns="http://www.w3.org/2000/svg" id="icons" viewBox="0 0 64 64"><defs><style>.cls-1{fill:none;stroke:#000;stroke-linecap:round;stroke-linejoin:round;stroke-width:2px;}</style></defs><g id="help_call" data-name="help call"><path d="M14.89 31.32 14.89 17.88" class="cls-1"/><path d="M8.09 24.6 21.69 24.6" class="cls-1"/><path d="M48 13v40a5 5 0 0 1-5 5H21.11a5 5 0 0 1-5-5V36.72H29.9l-4.53-6a12.12 12.12 0 0 0-9.27-18.18 5 5 0 0 1 5-4.61H43A5 5 0 0 1 48 13z" class="cls-1"/><path d="M48 18.01 25.06 18.01" class="cls-1"/><path d="M16.04 48.08 47.96 48.08" class="cls-1"/><circle cx="32.04" cy="53" r="2.49"/><path d="M27.01 12.86 37 12.86" class="cls-1"/><path d="M14.89 36.72A12.12 12.12 0 1 1 27 24.6a12 12 0 0 1-1.64 6.08l4.53 6h-15" class="cls-1"/><path d="M16.08 36.72 14.89 36.72" class="cls-1"/></g></svg>