<svg id="icons" xmlns="http://www.w3.org/2000/svg" viewBox="0 0 64 64"><defs><style>.cls-1{fill:none;stroke:#000;stroke-linecap:round;stroke-linejoin:round;stroke-width:2px;}</style></defs><title>tube_1</title><g id="tube_1"><line class="cls-1" x1="54.69" y1="54.02" x2="8.96" y2="54.02"/><line class="cls-1" x1="19.84" y1="26.12" x2="19.84" y2="52.96"/><line class="cls-1" x1="19.84" y1="6" x2="19.84" y2="13.52"/><line class="cls-1" x1="39.84" y1="19.97" x2="26.13" y2="19.95"/><path class="cls-1" d="M13.54,19.82A6.3,6.3,0,0,0,26.13,20a.57.57,0,0,0,0-.13,6.3,6.3,0,0,0-12.6,0Z"/><path class="cls-1" d="M50.85,8.25V41.14c0,3.86-2.47,7-5.51,7h0c-3,0-5.5-3.13-5.5-7V8.25"/><line class="cls-1" x1="55.82" y1="8.25" x2="36.27" y2="8.25"/><line class="cls-1" x1="50.85" y1="15.89" x2="44.44" y2="15.89"/><line class="cls-1" x1="50.85" y1="23.53" x2="46.93" y2="23.53"/><line class="cls-1" x1="50.85" y1="31.17" x2="44.44" y2="31.17"/><line class="cls-1" x1="50.85" y1="38.81" x2="46.93" y2="38.81"/></g></svg>