<svg xmlns="http://www.w3.org/2000/svg" id="icons" viewBox="0 0 64 64"><defs><style>.cls-1{fill:none;stroke:#000;stroke-linecap:round;stroke-linejoin:round;stroke-width:2px;}</style></defs><g id="wheelchair"><circle cx="43.49" cy="41.53" r="15.1" class="cls-1"/><path d="M48.16 27.17 48.16 7.96 56.86 7.96" class="cls-1"/><circle cx="10.88" cy="49.97" r="6.21" class="cls-1"/><path d="M48.17 16.79 33.94 16.78" class="cls-1"/><path d="M10.88 50V24.58c0-4.31 3.23-7.8 7.22-7.8h1.7" class="cls-1"/><circle cx="43.49" cy="41.53" r="9.53" class="cls-1"/><path d="M33.94 16.76v0a2.84 2.84 0 0 1-2.83 2.82h-8.48a2.79 2.79 0 0 1-2-.84 2.84 2.84 0 0 1-.83-2h0a2.86 2.86 0 0 1 2.83-2.85h8.48a2.83 2.83 0 0 1 2.83 2.83z" class="cls-1"/><path d="M10.88 37.53 28.92 37.53" class="cls-1"/></g></svg>