<svg xmlns="http://www.w3.org/2000/svg" id="icons" viewBox="0 0 64 64"><defs><style>.cls-1{fill:none;stroke:#000;stroke-linecap:round;stroke-linejoin:round;stroke-width:2px;}</style></defs><g id="hospital"><path d="M5.9 26.47H23.130000000000003V60.089999999999996H5.9z" class="cls-1"/><path d="M11.02 33.91H18.1V48.019999999999996H11.02z" class="cls-1"/><path d="M11.02 39.47 18.1 39.47" class="cls-1"/><path d="M34.61 23.08 46.25 23.08" class="cls-1"/><path d="M34.61 30.16 46.25 30.16" class="cls-1"/><path d="M34.61 37.19 46.25 37.19" class="cls-1"/><rect width="15.64" height="15.64" x="32.61" y="2.31" class="cls-1" rx="7.82"/><path d="M37.42 6.58 37.42 13.67" class="cls-1"/><path d="M43.8 10.12 37.42 10.12" class="cls-1"/><path d="M43.8 6.58 43.8 13.67" class="cls-1"/><path d="M23.12 60.1 23.12 29.08 23.12 10.12" class="cls-1"/><path d="M57.74 10.12 57.74 60.1" class="cls-1"/><path d="M34.61 60.1 34.61 42.33 46.25 42.33 46.25 60.1" class="cls-1"/><path d="M23.12 10.12 32.61 10.12" class="cls-1"/><path d="M57.74 10.12 48.25 10.12" class="cls-1"/><path d="M23.12 60.1 34.61 60.1 46.25 60.1 57.74 60.1" class="cls-1"/><path d="M5.9 60.1 2.65 60.1" class="cls-1"/><path d="M60.99 60.1 57.74 60.1" class="cls-1"/></g></svg>