<svg id="icons" xmlns="http://www.w3.org/2000/svg" viewBox="0 0 64 64"><defs><style>.cls-1{fill:none;stroke:#000;stroke-linecap:round;stroke-linejoin:round;stroke-width:2px;}</style></defs><title>handbag</title><g id="handbag"><rect class="cls-1" x="24.18" y="26.16" width="15.64" height="15.64" rx="7.82"/><line class="cls-1" x1="32" y1="30.62" x2="32" y2="37.18"/><line class="cls-1" x1="28.04" y1="33.98" x2="35.98" y2="33.98"/><path class="cls-1" d="M21.33,20.46H42.67A15.68,15.68,0,0,1,58.35,36.14V51.9a0,0,0,0,1,0,0H5.65a0,0,0,0,1,0,0V36.14A15.68,15.68,0,0,1,21.33,20.46Z"/><path class="cls-1" d="M23.75,20.46v-7A2.22,2.22,0,0,1,26,11.23H38.08a2.22,2.22,0,0,1,2.22,2.22v7Z"/><line class="cls-1" x1="5.65" y1="46.73" x2="58.35" y2="46.73"/></g></svg>