<svg id="icons" xmlns="http://www.w3.org/2000/svg" viewBox="0 0 64 64"><defs><style>.cls-1{fill:none;stroke:#000;stroke-linecap:round;stroke-linejoin:round;stroke-width:2px;}</style></defs><title>nurse</title><g id="nurse"><path class="cls-1" d="M10.16,56.71H52.68V53.86c0-8.7-5.6-15.76-12.51-15.76H38l-6.5,8.61L25,38.1H22.67c-6.91,0-12.51,7.06-12.51,15.76Z"/><polyline class="cls-1" points="24.53 38.1 18.92 47.41 31.95 46.71 44.75 47.41 39.32 38.1"/><path class="cls-1" d="M39.42,21.17c0,4.93-3.31,11.93-7.41,11.93s-7.43-7-7.43-11.93l4.12-3.54"/><path class="cls-1" d="M27.57,30.3H18.35a14.27,14.27,0,0,0,2.31-7,11.9,11.9,0,0,1,1.06-5.68"/><path class="cls-1" d="M41.52,17.63a12.33,12.33,0,0,1,1.85,5.93,14.45,14.45,0,0,0,2.3,7H36.46"/><polygon class="cls-1" points="45.41 6.53 41.52 17.63 21.72 17.63 18.35 6.53 45.41 6.53"/><line class="cls-1" x1="39.42" y1="21.17" x2="35.18" y2="17.63"/><line class="cls-1" x1="32.01" y1="14.39" x2="32.01" y2="9.76"/><line class="cls-1" x1="29.67" y1="12.08" x2="34.35" y2="12.08"/><line class="cls-1" x1="31.95" y1="46.71" x2="31.95" y2="56.71"/></g></svg>