<?xml version="1.0" encoding="utf-8"?>
<!-- Generator: Adobe Illustrator 21.0.0, SVG Export Plug-In . SVG Version: 6.00 Build 0)  -->
<svg version="1.1" id="Layer_1" xmlns="http://www.w3.org/2000/svg" xmlns:xlink="http://www.w3.org/1999/xlink" x="0px" y="0px"
	 viewBox="0 0 64 64" style="enable-background:new 0 0 64 64;" xml:space="preserve">
<style type="text/css">
	.st0{fill:none;stroke:#262525;stroke-width:2;stroke-linecap:round;stroke-linejoin:round;}
	.st1{fill:#F06A54;}
	.st2{fill:none;stroke:#262525;stroke-width:2;stroke-linecap:round;stroke-miterlimit:10;}
	.st3{fill:#849B3B;}
	.st4{fill:none;stroke:#262525;stroke-width:2;stroke-linecap:round;stroke-linejoin:round;stroke-dasharray:1.000000e-02,7;}
</style>
<title>Asset 1</title>
<g id="Layer_1-2">
	<g id="_Group_">
		<g id="_Group_2">
			<g id="_Group_3">
				<g id="_Group_4">
					<path id="_Path_" class="st0" d="M4.6,31.5V18.3c0-1.3,1.1-2.4,2.4-2.4h18.4c1.3,0,2.4,1.1,2.4,2.4v5.4"/>
					<path id="_Rectangle_" class="st0" d="M12,10.3h8.3c2.5,0,4.6,2,4.6,4.6v1.1l0,0H7.4l0,0v-1.1C7.4,12.3,9.5,10.3,12,10.3z"/>
					<path id="_Path_2" class="st0" d="M14.4,2.5l-3.5,7.8h10.6L18,2.5c-0.4-1-1.5-1.5-2.5-1.1C15,1.6,14.6,2,14.4,2.5z"/>
					<path id="_Path_3" class="st1" d="M7.5,18.9v10.6c0.6-0.5,5.4-5.6,17.4-5.7v-5H7.5z"/>
				</g>
				<g id="_Group_5">
					<path id="_Path_4" class="st2" d="M37.6,25.5c0,0,4.2,0.6,7.1-1.7c-1.5-1.8-3.4-3.2-5.5-4c2.2-1.1,4.2-2.4,6.1-3.9
						c-1.2-0.7-1.8-2.1-1.3-3.4l0.4-1.3l-1.5,0.1c-1.3,0-2.6-0.8-2.9-2.1c-1.7,1.1-5.5,4.4-5.5,4.4c-0.3-2.1-1.1-4.1-2.3-5.9
						c-1.7,1.5-2.9,3.5-3.3,5.7"/>
				</g>
			</g>
			<g id="_Group_6">
				<path id="_Path_5" class="st2" d="M50.9,37.7c2.5-0.4,4.8-1.3,6.9-2.7c0.5-0.3,1.1-0.5,1.7-0.5c1.7,0.1,3,1.4,3.1,3.1
					c0,1.7-1.4,3.2-3.1,3.2c0,0,0,0,0,0"/>
				<line id="_Path_6" class="st2" x1="1.5" y1="37.7" x2="8.1" y2="37.7"/>
				<path id="_Path_7" class="st3" d="M13.8,34.6c-0.8,0-1.6,0.3-2.2,0.9c-0.2,0.2-0.3,0.4-0.5,0.6c1.4-0.5,2.9,0.3,3.4,1.7
					c0.3,1,0.1,2.1-0.6,2.8c-0.1,0.1-0.2,0.2-0.3,0.3h0.2c1.7,0,3.1-1.4,3.1-3.1C16.9,36,15.5,34.6,13.8,34.6L13.8,34.6z"/>
				<path id="_Path_8" class="st2" d="M26,42.3c2.5,1.9,6.1,1.4,8-1.2c1.9-2.5,1.4-6.1-1.2-8c-2-1.5-4.8-1.5-6.8,0"/>
				<path id="_Path_9" class="st3" d="M29.5,34.6c-0.8,0-1.6,0.3-2.2,0.9c-0.2,0.2-0.3,0.4-0.5,0.6c1.4-0.5,3,0.2,3.5,1.6
					c0.4,1,0.1,2.1-0.7,2.8c-0.1,0.1-0.2,0.2-0.3,0.3h0.2c1.7,0,3.1-1.4,3.1-3.1S31.2,34.6,29.5,34.6L29.5,34.6L29.5,34.6z"/>
				<path id="_Path_10" class="st3" d="M45.2,34.6c-0.8,0-1.6,0.3-2.2,0.9c-0.2,0.2-0.3,0.4-0.5,0.6c1.4-0.5,2.9,0.3,3.4,1.7
					c0.3,1,0.1,2.1-0.6,2.8c-0.1,0.1-0.2,0.2-0.3,0.3h0.2c1.7,0,3.1-1.4,3.1-3.1C48.3,36,46.9,34.6,45.2,34.6L45.2,34.6z"/>
				<path id="_Rectangle_2" class="st1" d="M37.3,32L37.3,32c1.2,0,2.1,1,2.1,2.1v7.1c0,1.2-1,2.1-2.1,2.1h0c-1.2,0-2.1-1-2.1-2.1
					v-7.1C35.2,33,36.1,32,37.3,32z"/>
				<path id="_Path_11" class="st2" d="M41.9,42.4c2.6,1.8,6.2,1.1,7.9-1.5c1.8-2.6,1.1-6.2-1.5-7.9c-1.9-1.3-4.5-1.3-6.4,0"/>
				<path id="_Path_12" class="st2" d="M9.8,33.7c2.2-2.2,5.8-2.2,8,0c2.2,2.2,2.2,5.8,0,8c-2.2,2.2-5.8,2.2-8,0"/>
				<path id="_Rectangle_3" class="st1" d="M21.6,32L21.6,32c1.2,0,2.1,1,2.1,2.1v7.1c0,1.2-1,2.1-2.1,2.1l0,0c-1.2,0-2.1-1-2.1-2.1
					v-7.1C19.5,33,20.4,32,21.6,32z"/>
			</g>
			<g id="_Group_7">
				<path id="_Rectangle_4" class="st1" d="M16,58.7h32.2l0,0l0,0c0,2.5-2.1,4.6-4.6,4.6h-23C18.1,63.3,16,61.2,16,58.7L16,58.7
					L16,58.7z"/>
				<path id="_Path_13" class="st3" d="M32,58.7H16c-9.8,0-9.5-7-9.5-7H3.3c-1,0-1.8-0.8-1.8-1.8l0,0c0-1,0.8-1.8,1.8-1.8
					c0,0,0,0,0,0h57.4c1,0,1.8,0.8,1.8,1.8l0,0c0,1-0.8,1.8-1.8,1.8h-3.2c0,0,0.2,7-9.5,7L32,58.7z"/>
				<path id="_Path_14" class="st2" d="M32,58.7H16c-9.8,0-9.5-7-9.5-7H3.3c-1,0-1.8-0.8-1.8-1.8l0,0c0-1,0.8-1.8,1.8-1.8
					c0,0,0,0,0,0h57.4c1,0,1.8,0.8,1.8,1.8l0,0c0,1-0.8,1.8-1.8,1.8h-3.2c0,0,0.2,7-9.5,7L32,58.7z"/>
			</g>
			<path id="_Path_15" class="st4" d="M53.4,33.2c-2.4-4.5-8-6.2-12.5-3.9c-1.2-0.8-2.6-1.2-4-1c-1.1,0-2.2,0.4-3.2,1.1
				c-2.7-1.4-5.9-1.4-8.5,0c-1.2-0.8-2.6-1.2-4-1c-1.2,0-2.3,0.3-3.2,1"/>
		</g>
	</g>
</g>
</svg>
