<svg xmlns="http://www.w3.org/2000/svg" id="Layer_1" x="0" y="0" version="1.1" viewBox="0 0 64 64" xml:space="preserve"><style>.st1,.st3{fill:none;stroke:#262525;stroke-width:2;stroke-linecap:round}.st1{stroke-linejoin:round;stroke-dasharray:1.000000e-02,7}.st3{stroke-miterlimit:10}.st4{fill:#849b3b}</style><g id="Layer_2"><g id="Layer_1-2"><g id="_Group_"><g id="_Group_2"><path id="_Path_" fill="#f7cf13" d="M39.4 33c-6.6-5.6-15.8-11.7-24-9-22.4 7.5 3.9 19.9 22 14.4 5.2-1.6 8.3 2.9 9.5-1 1.2-4.1-4.8-2.2-7.5-4.4z"/><path id="_Path_2" d="M13.1 13.1C23.6 2.6 40.5 2.6 51 13.1" class="st1"/><path id="_Path_3" d="M50.9 50.9a26.738 26.738 0 01-37.9 0" class="st1"/><circle id="_Ellipse_" cx="32.1" cy="31.8" r="31" fill="none" stroke="#262525" stroke-linecap="round" stroke-linejoin="round" stroke-width="2" transform="rotate(-31.943 32.12 31.84)"/><path id="_Path_4" d="M39.4 33c-6.6-5.6-15.8-11.7-24-9-22.4 7.5 3.9 19.9 22 14.4 5.2-1.6 8.3 2.9 9.5-1 1.2-4.1-4.8-2.2-7.5-4.4z" class="st3"/><path id="_Path_5" d="M13.6 27.8c.3.8 0 1.6-.8 2s-1.6 0-2-.8" class="st3"/><path id="_Path_6" d="M46.5 41.8c.9 1.3 2.3 2.1 3.9 2.3h1.1c-.1-3.8.8-7.6 2.6-10.9-.4-.3-.9-.5-1.3-.6-1.5-.4-3.2-.2-4.6.6" class="st3"/><path id="_Path_7" d="M14.9 24.1s5.6 4.5-.2 13.5" class="st3"/><path id="_Path_8" d="M39.8 29.6c.6-1.6.1-4.3-3.4-5.7-5-1.9-6.3-5.5-6.3-5.5-7.4 3.5-10.6-2.6-10.6-2.6l-4.9 5.3" class="st3"/><path id="_Path_9" d="M17.5 38.5s-.5 6.5 4.6 9.7l1.4-3.4s4.5 2.1 5.8-5.1" class="st3"/><path id="_Path_10" d="M49.4 16.2c-2.7 3.4-7.7 3.9-11 1.1-2.4-2-3.4-5.1-2.6-8.1" class="st3"/><path id="_Path_11" d="M39.4 12.1c.2.1.2.4.1.5l-.1.1c-.6.3-.7 1-.4 1.6.2.3.5.5.8.6.7.1 1.3.5 1.8 1s1.2.5 1.7 0c.2-.2.4-.6.3-.9 0-.2.2-.4.4-.4h.1c.5.3 1.2.1 1.6-.4.3-.6.1-1.3-.4-1.6-1.5-1-3.1-1.8-4.8-2.4-.5-.3-1.2-.1-1.5.4-.3.5-.2 1.2.4 1.5z" class="st4"/><path id="_Path_12" d="M31.4 55.8c-.5-4.3 2.7-8.1 7-8.6 3.1-.3 6.1 1.2 7.6 3.9" class="st3"/><path id="_Path_13" d="M41.3 51.6c-.2 0-.4-.1-.5-.3v-.2c.2-.6-.2-1.3-.8-1.4-.3-.1-.7 0-1 .2-.6.4-1.2.6-1.9.6-.6 0-1.2.5-1.2 1.2 0 .3.1.7.4.9.1.2.1.4 0 .5l-.1.1c-.6.2-1 .8-.8 1.4.2.6.8.9 1.4.8 1.8-.4 3.5-1 5.1-1.7.5-.2.8-.9.5-1.4-.2-.4-.6-.6-1-.6l-.1-.1z" class="st4"/></g></g></g></g></svg>