<?xml version="1.0" encoding="utf-8"?>
<!-- Generator: Adobe Illustrator 21.0.0, SVG Export Plug-In . SVG Version: 6.00 Build 0)  -->
<svg version="1.1" id="Layer_1" xmlns="http://www.w3.org/2000/svg" xmlns:xlink="http://www.w3.org/1999/xlink" x="0px" y="0px"
	 viewBox="0 0 64 64" style="enable-background:new 0 0 64 64;" xml:space="preserve">
<style type="text/css">
	.st0{fill:#849B3B;}
	.st1{fill:#F7CF13;}
	.st2{fill:none;stroke:#262525;stroke-width:2;stroke-linecap:round;stroke-linejoin:round;stroke-dasharray:1.000000e-02,7;}
	.st3{fill:none;stroke:#262525;stroke-width:2;stroke-linecap:round;stroke-miterlimit:10;}
</style>
<title>Asset 4</title>
<g id="Layer_2">
	<g id="Layer_1-2">
		<g id="_Group_">
			<g id="_Group_2">
				<path id="_Path_" class="st0" d="M46.6,54.8v1.8c0,1.4-1.2,2.6-2.6,2.6c0,0,0,0,0,0H20c-1.4,0-2.6-1.2-2.6-2.6v-1.9"/>
				<path id="_Path_2" class="st1" d="M40.6,55h4.1c6.7,0,12.4-5.1,13.1-11.8c0-0.5,0-0.8,0-0.8h3.2c1,0,1.9-0.8,1.9-1.8
					c0,0,0,0,0,0l0,0c0-1-0.8-1.9-1.8-1.9c0,0,0,0,0,0H2.9c-1,0-1.9,0.8-1.9,1.9c0,0,0,0,0,0l0,0c0,1,0.8,1.9,1.9,1.9h3.2
					c0,0,0,0.3,0,0.8C6.8,49.9,12.5,55,19.3,55H40.6z"/>
				<path id="_Path_3" class="st2" d="M14.2,57.7C8.7,56,4.4,51.5,3,45.9"/>
				<path id="_Path_4" class="st3" d="M40.6,55h4.1c6.7,0,12.4-5.1,13.1-11.8c0-0.5,0-0.8,0-0.8h3.2c1,0,1.9-0.8,1.9-1.8
					c0,0,0,0,0,0l0,0c0-1-0.8-1.9-1.8-1.9c0,0,0,0,0,0H2.9c-1,0-1.9,0.8-1.9,1.9c0,0,0,0,0,0l0,0c0,1,0.8,1.9,1.9,1.9h3.2
					c0,0,0,0.3,0,0.8C6.8,49.9,12.5,55,19.3,55H40.6z"/>
				<g id="_Group_3">
					<path id="_Path_5" class="st3" d="M21.3,23c0,0,1.2-3.9-0.6-7c-1.9,1.1-3.5,2.7-4.5,4.7c-0.8-2.2-1.7-4.3-2.9-6.3
						c-0.8,1-2.2,1.4-3.4,0.8l-1.2-0.6c0,0.6-0.1,1-0.2,1.4c-0.2,1.3-1.2,2.3-2.4,2.4c0.8,1.7,3.4,5.8,3.4,5.8c-2,0-4,0.5-5.9,1.4
						c1.1,1.8,2.8,3.2,4.8,3.9"/>
				</g>
				<path id="_Path_6" class="st3" d="M21.9,30.3c0.9,1.4,2.7,1.8,4,0.9c1.4-0.9,1.8-2.7,0.9-4l6.7-4.3c2.4,3.8,2.2,8.6-0.4,12.2"/>
				<path id="_Path_7" class="st3" d="M58.5,31.8l-3.1-5.6c-1.4,0.8-3.2,0.3-4-1.1c-0.8-1.4-0.3-3.2,1.1-4l-4-6.9
					c-4.8,2.8-6.8,8.7-4.5,13.8"/>
				<g id="_Group_4">
					<path id="_Path_8" class="st3" d="M6.2,38.7c0-4.4,3.6-8,8-8s8,3.6,8,8"/>
					<line id="_Line_" class="st3" x1="14.2" y1="33.8" x2="14.2" y2="34.8"/>
					<line id="_Line_2" class="st3" x1="10.8" y1="35.3" x2="11.4" y2="35.9"/>
					<line id="_Line_3" class="st3" x1="17.6" y1="35.3" x2="17" y2="35.9"/>
				</g>
				<g id="_Group_5">
					<path id="_Path_9" class="st3" d="M37.3,38.7c0-4.4,3.6-8,8-8s8,3.6,8,8"/>
					<line id="_Line_4" class="st3" x1="45.3" y1="33.8" x2="45.3" y2="34.8"/>
					<line id="_Line_5" class="st3" x1="41.8" y1="35.3" x2="42.5" y2="35.9"/>
					<line id="_Line_6" class="st3" x1="48.7" y1="35.3" x2="48" y2="35.9"/>
				</g>
				<line id="_Line_7" class="st3" x1="13.2" y1="23" x2="15.4" y2="27.4"/>
				<g id="_Group_6">
					
						<ellipse id="_Ellipse_" transform="matrix(0.8503 -0.5264 0.5264 0.8503 -1.9946 21.3486)" class="st0" cx="36.5" cy="14.2" rx="6" ry="4.8"/>
					
						<ellipse id="_Ellipse_2" transform="matrix(0.8503 -0.5264 0.5264 0.8503 -1.9946 21.3486)" class="st3" cx="36.5" cy="14.2" rx="6" ry="4.8"/>
					<path id="_Path_10" class="st3" d="M42,14.7c-1.9,0.4-3.8-0.8-4.2-2.8c-0.2-1,0-2.1,0.7-2.9"/>
					<line id="_Line_8" class="st3" x1="31.4" y1="17.4" x2="25.7" y2="21.1"/>
				</g>
				<path id="_Path_11" class="st3" d="M25.3,18.4c0,0-3.4-7.4,1.8-12.5c2.2,1.4,3.9,3.4,4.9,5.8"/>
				<polyline id="_Path_12" class="st2" points="52,13.3 56.6,21.4 56.7,21.4 61.5,30.1 				"/>
				<path id="_Path_13" class="st3" d="M58.5,31.8l-3.1-5.6c-1.4,0.8-3.2,0.3-4-1.1c-0.8-1.4-0.3-3.2,1.1-4l-4-6.9
					c-4.8,2.8-6.8,8.7-4.5,13.8"/>
			</g>
		</g>
	</g>
</g>
</svg>
