<?xml version="1.0" encoding="utf-8"?>
<!-- Generator: Adobe Illustrator 21.0.0, SVG Export Plug-In . SVG Version: 6.00 Build 0)  -->
<svg version="1.1" id="Layer_1" xmlns="http://www.w3.org/2000/svg" xmlns:xlink="http://www.w3.org/1999/xlink" x="0px" y="0px"
	 viewBox="0 0 64 64" style="enable-background:new 0 0 64 64;" xml:space="preserve">
<style type="text/css">
	.st0{fill:#F26756;}
	.st1{fill:none;stroke:#262525;stroke-width:2;stroke-linecap:round;stroke-linejoin:round;stroke-dasharray:1.000000e-02,7;}
	.st2{fill:#F1EDDB;}
	.st3{fill:none;stroke:#262525;stroke-width:2;stroke-linecap:round;stroke-linejoin:round;}
	.st4{fill:none;stroke:#262525;stroke-width:2;stroke-linecap:round;stroke-miterlimit:10;}
	.st5{fill:#F06A54;}
	.st6{fill:none;stroke:#262525;stroke-width:2;stroke-miterlimit:10;}
</style>
<title>Asset 5</title>
<g id="Layer_2">
	<g id="Layer_1-2">
		<g id="_Group_">
			<g id="_Group_2">
				<path id="_Path_" class="st0" d="M19.7,57.2v0.1c-0.5,1.5,0.3,3.2,1.8,3.7c0.3,0.1,0.6,0.2,0.9,0.1h20.8c1.6,0,2.9-1.3,2.9-2.9
					c0-0.3,0-0.6-0.1-0.9v-0.1"/>
				<path id="_Path_2" class="st1" d="M19.1,60.9l-0.6-0.2c-16.1-5.8-17-21.7-17-22.4"/>
				<path id="_Path_3" class="st2" d="M5.2,38.1c0,0,0.6,14.1,14.5,19.1H46c14-5,14.5-19.1,14.5-19.1"/>
				<path id="_Path_4" class="st3" d="M5.2,38.1c0,0,0.6,14.1,14.5,19.1H46c14-5,14.5-19.1,14.5-19.1"/>
				<g id="_Group_3">
					<path id="_Path_5" class="st4" d="M11.8,26.9c0,0.7,0.1,1.5,0.4,2.2"/>
					<path id="_Path_6" class="st4" d="M11.8,26.9c0-3.7,3-6.7,6.7-6.7c0.6,0,1.2,0.1,1.7,0.2"/>
					<path id="_Path_7" class="st4" d="M11.8,26.9H7.1c-2.2,0-4-1.8-4-4c0-1.2,0.6-2.4,1.6-3.2c-1.8-1.4-2.1-3.9-0.7-5.7
						c0.9-1.2,2.5-1.8,4-1.5l0,0c-0.7-2.1,0.4-4.4,2.5-5.2c1.3-0.5,2.7-0.2,3.8,0.6c0.5-2.2,2.6-3.6,4.8-3.1
						c1.5,0.3,2.8,1.5,3.1,3.1c1.8-1.3,4.2-0.9,5.5,0.8c0.5,0.5,0.9,1.2,1,1.9"/>
					<line id="_Path_8" class="st4" x1="8" y1="12.5" x2="9.2" y2="13.6"/>
					<path id="_Path_9" class="st4" d="M14.2,7.9c-0.2,0.9-0.1,1.8,0.4,2.5"/>
					<path id="_Path_10" class="st4" d="M22.1,7.8c0.2,1,0,1.9-0.5,2.8"/>
				</g>
				<g id="_Group_4">
					<path id="_Path_11" class="st3" d="M60.6,32c-0.5-5.3-2.3-10.5-5.4-14.9C45.3,4.4,36.5,7,36.5,7l12.8,16.5
						c0.7,0.9,0.6,2.2-0.3,3c-0.8,0.6-1.9,0.6-2.7,0L29.9,13.6c0,0-2.1,7,6.5,15.6"/>
					<path id="_Path_12" class="st4" d="M39.4,21c2.2-0.5,4-2.3,4.5-4.5"/>
					<path id="_Path_13" class="st4" d="M35,17.6c0,0,3.8-0.6,5.5-5.5"/>
					<path id="_Path_14" class="st4" d="M43.4,24.2c1.8-0.5,3.2-1.9,3.6-3.7"/>
				</g>
				<path id="_Path_15" class="st4" d="M21.1,32.2c-1.5-5.3,0.7-11,5.6-12.3"/>
				<path id="_Path_16" class="st5" d="M24.4,25.1c-0.6,1.2-1,2.5-1,3.8h8.7c-1.8-2.4-4.7-6.2-4.7-6.2C26.2,23,25.1,23.9,24.4,25.1z
					"/>
				<path id="_Path_17" class="st0" d="M60.5,38.1H5.1c-1.6,0-3-1.3-3-3l0,0c0-1.6,1.3-3,3-3c0,0,0,0,0,0h55.4c1.6,0,3,1.3,3,3
					c0,0,0,0,0,0l0,0C63.5,36.8,62.2,38.1,60.5,38.1z"/>
				<path id="_Path_18" class="st6" d="M8.5,23.5c0,0,3.1-11.6,16.9-8.7"/>
				<path id="_Path_19" class="st1" d="M58.2,14.9L58.2,14.9C46.8,0.3,35.9,3.3,35.5,3.4"/>
			</g>
		</g>
	</g>
</g>
</svg>
