<svg xmlns="http://www.w3.org/2000/svg" id="Layer_1" x="0" y="0" enable-background="new 0 0 64 64" version="1.1" viewBox="0 0 64 64" xml:space="preserve"><style>.st0{fill:#DDDDCB;}
	.st1{fill:#F1EDDB;}
	.st2{fill:none;stroke:#262525;stroke-width:2.5;stroke-linecap:round;stroke-linejoin:round;stroke-dasharray:1.000000e-02,7;}
	.st3{fill:none;stroke:#262525;stroke-width:2.5;stroke-linecap:round;stroke-linejoin:round;}
	.st4{fill:none;stroke:#262525;stroke-width:2.5;stroke-linecap:round;stroke-miterlimit:10;}
	.st5{fill:#F7CF13;}
	.st6{fill:#FBAB1A;}</style><g id="Layer_2"><g id="Layer_1-2"><g id="_Group_"><g id="_Group_2"><path id="_Path_" d="M17.9 58.2v.1c-.5 1.5.4 3.2 1.9 3.6.3.1.5.1.8.1h20.8c1.6 0 2.9-1.3 2.9-2.9 0-.3 0-.6-.1-.9v-.1" class="st0"/><path id="_Path_2" d="M3.4 39.1S4 53.2 17.9 58.2h26.2c13.9-5 14.5-19 14.5-19" class="st1"/><path id="_Path_3" d="M62.4 39.2c0 .6-.7 14.6-14 21.2" class="st2"/><path id="_Path_4" d="M3.4 39.1S4 53.2 17.9 58.2h26.2c13.9-5 14.5-19 14.5-19" class="st3"/><g id="_Group_3"><g id="_Group_4"><path id="_Path_5" d="M32.8 29.9c-2.1-3.3-4.5-6.3-7.2-9.1-4-3.9-8.5-7.2-13.4-9.8.4-1.9-.8-3.8-2.7-4.3-2-.3-3.9.9-4.3 2.8-.3 1.2.1 2.5.9 3.3l.3.2c-2-.1-3.7 1.3-3.8 3.3-.1 1.4.6 2.7 1.9 3.4-1.9.5-3 2.4-2.5 4.4.4 1.6 1.8 2.6 3.4 2.7-1 .7-1.5 1.7-1.5 2.9" class="st4"/><path id="_Path_6" d="M10.4 15.4C8.2 20.2 8.8 25.7 11.8 30c-1.6-6.1 4.1-9 9.6-6.6-3.2-3-6.8-5.6-10.7-7.7l-.3-.3z" class="st5"/></g><g id="_Group_5"><path id="_Path_7" d="M27.8 16.1c1.5-1.5 3.9-1.5 5.3 0 .3.3.5.5.6.9.5-2 2.6-3.2 4.6-2.7 1.6.4 2.8 1.9 2.8 3.6 1.3-1.6 3.6-1.9 5.3-.7 1.2.9 1.7 2.5 1.3 3.9 1.7-1.1 4.1-.7 5.2 1.1.8 1.3.8 2.9 0 4.2 2-.6 4.1.5 4.7 2.5.1.3.1.6.2.8" class="st3"/></g><g id="_Group_6"><path id="_Path_8" d="M49.6 15.5c4.2-2.9.6-8.2-2.7-5.7.5-2-.8-4.1-2.8-4.5-1.5-.3-3 .2-3.9 1.4-.1-2.1-1.9-3.7-3.9-3.6-1.6.1-3 1.2-3.5 2.8-.8-1.9-3-2.8-4.9-2.1-1.6.6-2.5 2.2-2.4 3.9-1.4-1.2-3.5-1.3-4.9-.1-.8.7-1.3 1.7-1.2 2.8v.4" class="st3"/></g><path id="_Path_9" d="M29.6 20.3s5 5.3 7.2 9.7h15.5c-5.2-7.2-13.9-10.9-22.7-9.7z" class="st6"/></g><path id="_Path_10" d="M58.6 39.1H3.3c-1.6 0-3-1.3-3-3 0-1.6 1.3-3 3-3h55.3c1.6 0 3 1.3 3 3s-1.3 3-3 3z" class="st0"/></g></g></g></g></svg>