<?xml version="1.0" encoding="utf-8"?>
<!-- Generator: Adobe Illustrator 21.0.0, SVG Export Plug-In . SVG Version: 6.00 Build 0)  -->
<svg version="1.1" id="Layer_1" xmlns="http://www.w3.org/2000/svg" xmlns:xlink="http://www.w3.org/1999/xlink" x="0px" y="0px"
	 viewBox="0 0 64 64" style="enable-background:new 0 0 64 64;" xml:space="preserve">
<style type="text/css">
	.st0{fill:#FBAB1A;}
	.st1{fill:#F1EDDB;}
	.st2{fill:none;stroke:#262525;stroke-width:2;stroke-linecap:round;stroke-linejoin:round;}
	.st3{fill:none;stroke:#262525;stroke-width:2;stroke-linecap:round;stroke-linejoin:round;stroke-dasharray:1.000000e-02,7;}
</style>
<title>Asset 6</title>
<g id="Layer_2">
	<g id="Layer_1-2">
		<g id="_Group_">
			<g id="_Group_2">
				<path id="_Path_" class="st0" d="M20.3,57.9V58c-0.5,1.5,0.4,3.2,1.9,3.6c0.3,0.1,0.5,0.1,0.8,0.1h20.5c1.6,0,2.9-1.4,2.9-3
					c0-0.3,0-0.5-0.1-0.8v-0.1"/>
				<path id="_Path_2" class="st1" d="M6,39.1c0,0,0.6,13.9,14.3,18.8h25.9C60,53,60.5,39.1,60.5,39.1"/>
				<path id="_Path_3" class="st2" d="M6,39.1c0,0,0.6,13.9,14.3,18.8h25.9C60,53,60.5,39.1,60.5,39.1"/>
				<g id="_Group_3">
					<path id="_Path_4" class="st2" d="M5.2,30.1c-0.7-5.7,2.6-11.1,7.9-13.1"/>
					<path id="_Path_5" class="st2" d="M8.5,30.1c-0.6-3.8,1.2-7.5,4.5-9.4"/>
					<path id="_Path_6" class="st2" d="M28.8,17.9c3.5-5.9,11.1-7.8,17-4.3c5.7,3.4,7.7,10.7,4.5,16.5"/>
					<path id="_Path_7" class="st2" d="M32.3,18.6c2.9-4.1,8.6-5,12.7-2.1s5,8.6,2.1,12.7c-0.2,0.3-0.5,0.6-0.7,0.9"/>
					<path id="_Path_8" class="st2" d="M16.4,24.4c-2.9-6.2-0.2-13.6,6.1-16.5c4.3-2,9.4-1.3,13.1,1.7"/>
					<path id="_Path_9" class="st2" d="M39.9,17.5c0.3,2.3,0,4.7-1,6.8"/>
					<path id="_Path_10" class="st2" d="M19.3,21.3c-1.2-4.6,1.6-9.3,6.2-10.5c2.1-0.5,4.2-0.3,6.1,0.7"/>
					<path id="_Path_11" class="st2" d="M36.2,18.2c0.1,0.9,0.1,1.9-0.1,2.8"/>
					<path id="_Path_12" class="st2" d="M53.4,18.7c4.7,1,8,5.2,8,10c0,0.5,0,1-0.1,1.4"/>
					<path id="_Path_13" class="st2" d="M54,22c3.2,1.3,5.1,4.7,4.4,8.1"/>
					<g id="_Group_4">
						<path id="_Path_14" class="st2" d="M38.2,30.1c-0.4-5.8-5.4-10.2-11.2-9.8c-5.2,0.4-9.4,4.5-9.8,9.8"/>
						<path id="_Path_15" class="st2" d="M20.5,30.1c0.4-4,3.9-6.9,7.9-6.5c3.4,0.3,6.1,3,6.5,6.5"/>
					</g>
				</g>
				<path id="_Path_16" class="st0" d="M60.6,39.1H6c-1.6,0-2.9-1.3-2.9-2.9l0,0c0-1.6,1.3-2.9,2.9-2.9h54.6c1.6,0,2.9,1.3,2.9,2.9
					l0,0C63.5,37.8,62.2,39.1,60.6,39.1z"/>
				<path id="_Compound_Path_" class="st3" d="M8.3,15.6c-4.2,3-6.8,7.9-6.8,13 M37.8,6.9C31,1.2,21,2.2,15.3,9
					c-0.9,1.1-1.6,2.2-2.2,3.5 M53.8,16.7C51.1,11.3,45.6,8,39.6,8"/>
			</g>
		</g>
	</g>
</g>
</svg>
