<?xml version="1.0" encoding="utf-8"?>
<!-- Generator: Adobe Illustrator 21.0.0, SVG Export Plug-In . SVG Version: 6.00 Build 0)  -->
<svg version="1.1" id="Layer_1" xmlns="http://www.w3.org/2000/svg" xmlns:xlink="http://www.w3.org/1999/xlink" x="0px" y="0px"
	 viewBox="0 0 64 64" style="enable-background:new 0 0 64 64;" xml:space="preserve">
<style type="text/css">
	.st0{fill:none;stroke:#262525;stroke-width:2;stroke-linecap:round;stroke-linejoin:round;stroke-dasharray:1.000000e-02,7;}
	.st1{fill:none;stroke:#262525;stroke-width:2;stroke-linecap:round;stroke-linejoin:round;}
	.st2{fill:#849B3B;}
	.st3{fill:#F06A54;}
</style>
<title>Asset 14</title>
<g id="Layer_2">
	<g id="Layer_1-2">
		<g id="_Group_">
			<g id="_Group_2">
				<g id="_Group_3">
					<path id="_Compound_Path_" class="st0" d="M50,14.3c0,0.5,0,0.9,0,1.4c0,3-0.6,5.9-1.9,8.6"/>
					<path id="_Compound_Path_2" class="st1" d="M21.8,25.9c-2.6-2.8-4-6.4-3.9-10.2c0-2,0.4-4.1,1.3-5.9 M26,13.9
						c-0.2,0.6-0.3,1.1-0.3,1.7c0,3.8,2.4,6.3,5.5,7.7 M27.7,11.1c2.5-2.4,6.4-2.2,8.8,0.3c0.7,0.7,1.2,1.6,1.4,2.5 M21.2,6.6
						c5-6,13.9-6.8,19.9-1.8c1.6,1.3,2.9,3,3.8,4.9 M45.9,13c0.2,0.9,0.3,1.8,0.3,2.7c0,4.2-1.7,8.3-4.8,11.1
						c-1.5,1.4-3.3,2.6-5.2,3.5"/>
					<path id="_Path_" class="st1" d="M42.2,15.2c0,0.2,0,0.3,0,0.5c0,16.4-29.8,14.5-29.8,14.5"/>
					<path id="_Path_2" class="st1" d="M24.4,8.9C28.2,4.7,34.6,4.3,38.8,8c1.2,1,2.1,2.3,2.6,3.7"/>
					<path id="_Path_3" class="st1" d="M26.5,24.8c-3-2.1-4.7-5.5-4.7-9.2c0-1.3,0.3-2.6,0.8-3.9"/>
					<path id="_Path_4" class="st1" d="M45.4,26.1c3.4,0.2,7.8,0,7.9,0"/>
					<path id="_Path_5" class="st1" d="M53.5,30.1c-3.5,0.1-7,0.1-10.5-0.2"/>
					<line id="_Line_" class="st1" x1="38" y1="13.9" x2="58.1" y2="1.5"/>
					<line id="_Line_2" class="st0" x1="15.2" y1="11.8" x2="3.9" y2="4.8"/>
					<line id="_Line_3" class="st1" x1="32" y1="17.6" x2="5.9" y2="1.5"/>
				</g>
				<g id="_Group_4">
					<path id="_Path_6" class="st2" d="M20.6,59.8v0.1c-0.5,1.4,0.3,3,1.7,3.5c0.3,0.1,0.6,0.1,0.8,0.1h19.7c1.5,0,2.8-1.2,2.8-2.7
						c0-0.3,0-0.6-0.1-0.9v-0.1"/>
					<path id="_Path_7" class="st3" d="M53.4,49.8c-5.5,1.4-11.3,1.5-16.8,0.3c-4.1-1-7.9-2.9-12-3.8c-5.4-1.1-11.1-0.2-15.9,2.4
						c2.2,5.2,6.6,9.2,11.9,11h24.9c5.3-1.8,9.7-5.8,11.9-11C56,49.2,54.7,49.5,53.4,49.8z"/>
					<path id="_Path_8" class="st0" d="M14.2,61C3.6,54.3,2.9,42.4,2.9,41.8"/>
					<path id="_Path_9" class="st1" d="M6.8,41.7c0,0,0.5,13.3,13.8,18.1h24.9C58.7,55,59.2,41.7,59.2,41.7"/>
					<path id="_Path_10" class="st2" d="M59.2,41.7H6.7c-1.6,0-2.8-1.2-2.8-2.8c0,0,0,0,0,0l0,0c0-1.6,1.3-2.8,2.8-2.8h52.5
						c1.5,0,2.8,1.3,2.8,2.8l0,0C62,40.4,60.8,41.7,59.2,41.7z"/>
				</g>
			</g>
		</g>
	</g>
</g>
</svg>
