<?xml version="1.0" encoding="utf-8"?>
<!-- Generator: Adobe Illustrator 21.0.0, SVG Export Plug-In . SVG Version: 6.00 Build 0)  -->
<svg version="1.1" id="Layer_1" xmlns="http://www.w3.org/2000/svg" xmlns:xlink="http://www.w3.org/1999/xlink" x="0px" y="0px"
	 viewBox="0 0 64 64" style="enable-background:new 0 0 64 64;" xml:space="preserve">
<style type="text/css">
	.st0{fill:#FBAB1A;}
	.st1{fill:#849B3B;}
	.st2{fill:none;stroke:#262525;stroke-width:2;stroke-linecap:round;stroke-miterlimit:10;}
	.st3{fill:none;stroke:#262525;stroke-width:2;stroke-linecap:round;stroke-linejoin:round;}
	.st4{fill:none;stroke:#262525;stroke-width:2;stroke-linecap:round;stroke-linejoin:round;stroke-dasharray:1.000000e-02,7;}
</style>
<title>Asset 7</title>
<g id="Layer_2">
	<g id="Layer_1-2">
		<g id="_Group_">
			<g id="_Group_2">
				<path id="_Path_" class="st0" d="M47.3,41.9c-3.5,0.6-7.1,0.4-10.5-0.5c-3.4-0.9-6.9-1.5-10.4-1.9c-2.8-0.2-5.6,0.2-8.2,1.3
					c1.3,4.4,4,9.9,10.1,12h20.1c8.3-3,10.4-12.2,10.9-16.1C55.3,38.3,51.5,41,47.3,41.9z"/>
				<path id="_Path_2" class="st1" d="M28.3,52.8L28.3,52.8c-0.4,1.3,0.3,2.5,1.4,2.9c0.2,0.1,0.5,0.1,0.7,0.1h15.9
					c1.2,0,2.2-1,2.2-2.2c0-0.2,0-0.5-0.1-0.7v-0.1"/>
				<g id="_Group_3">
					<g id="_Group_4">
						<path id="_Path_3" class="st2" d="M51.6,21.9c-0.1-1.6,0.4-3.2,1.5-4.5c1.1,1,1.9,2.3,2.3,3.8c0.8-1.3,1.8-2.6,2.9-3.7
							c0.4,0.8,1.3,1.2,2.1,1l0.9-0.2c0,0.4-0.1,0.7-0.1,1c-0.1,0.8,0.4,1.6,1.2,1.9c-0.8,1-3.1,3.3-3.1,3.3c1.3,0.3,2.6,1,3.6,1.8
							c-1,1-2.4,1.7-3.8,1.8"/>
					</g>
					<path id="_Path_4" class="st2" d="M56.8,23.1l-1.7,2c-1.3,1.4-1.2,3.6,0.2,4.8c0.1,0.1,0.2,0.2,0.3,0.2"/>
				</g>
				<path id="_Path_5" class="st3" d="M17.2,34.8c0,0,0.4,14.2,11.1,18h20.1c10.7-3.8,11.1-18,11.1-18"/>
				<path id="_Path_6" class="st3" d="M17.2,34.8c0,0,0.4,14.2,11.1,18h20.1c10.7-3.8,11.1-18,11.1-18"/>
				<g id="_Group_5">
					<path id="_Path_7" class="st3" d="M9,51.8c-2.4-3.7-4.8-11.3-4.8-20"/>
					<path id="_Path_8" class="st3" d="M23,55.8H10.6c-0.9,0-1.6-0.7-1.6-1.6v-2.4h10.7"/>
					<path id="_Path_9" class="st3" d="M26.7,25.8h-9.8c-2.3,0-4.4,0.4-5.6,2.3l-2.4,4.1l-4-6.1c-0.5-0.7-0.7-1.5-0.7-2.4v-0.1
						c0-0.8,0.6-1.4,1.4-1.4l0,0H29c1.3,0,2.3,1,2.3,2.3c0,0,0,0,0,0c0,1.9-0.2,3.7-0.7,5.6"/>
				</g>
				<g id="_Group_6">
					<path id="_Path_10" class="st3" d="M36.3,16.6l0.4-0.4c0.9-0.9,0.9-2.5,0-3.4l-0.4-0.4l-0.4-0.4c-0.9-0.9-0.9-2.5,0-3.4
						l0.4-0.4"/>
					<path id="_Path_11" class="st3" d="M41,16.6l0.4-0.4c0.9-0.9,0.9-2.5,0-3.4L41,12.5l-0.4-0.4c-0.9-0.9-0.9-2.5,0-3.4L41,8.3"/>
					<path id="_Path_12" class="st3" d="M45.6,16.6l0.4-0.4c0.9-0.9,0.9-2.5,0-3.4l-0.4-0.4l-0.4-0.4c-0.9-0.9-0.9-2.5,0-3.4
						l0.4-0.4"/>
				</g>
				<path id="_Path_13" class="st3" d="M35.3,27.7c-0.5-0.5-0.5-1.4,0-1.9l2.2-2.2c0.5-0.5,1.4-0.5,1.9,0l2.3,2.3
					c0.5,0.5,0.5,1.4,0,1.9"/>
				<path id="_Path_14" class="st3" d="M42.3,23.5l1.4-1.5c0.7-0.7,1.8-0.7,2.5,0l3,3c0.7,0.7,0.7,1.8,0,2.5"/>
				<path id="_Path_15" class="st1" d="M59.6,34.8H17.1c-1.2,0-2.3-1-2.3-2.2l0,0c0-1.3,1-2.3,2.3-2.3h42.4c1.2,0,2.3,1,2.3,2.3l0,0
					C61.8,33.7,60.8,34.7,59.6,34.8z"/>
				<path id="_Path_16" class="st3" d="M59.6,34.8H17.1c-1.2,0-2.3-1-2.3-2.2l0,0c0-1.3,1-2.3,2.3-2.3h42.4c1.2,0,2.3,1,2.3,2.3l0,0
					C61.8,33.7,60.8,34.7,59.6,34.8z"/>
				<path id="_Path_17" class="st4" d="M0.8,31.8c0,9.3,2.5,16.8,4.8,20.9"/>
			</g>
		</g>
	</g>
</g>
</svg>
