<svg xmlns="http://www.w3.org/2000/svg" id="Layer_1" x="0" y="0" enable-background="new 0 0 64 64" version="1.1" viewBox="0 0 64 64" xml:space="preserve"><style>.st0{fill:#849B3B;}
	.st1{fill:#FBAB1A;}
	.st2{fill:none;stroke:#262525;stroke-width:2;stroke-linecap:round;stroke-miterlimit:10;}
	.st3{fill:#F26756;}
	.st4{fill:none;stroke:#262525;stroke-width:2;stroke-linecap:round;stroke-linejoin:round;stroke-dasharray:1.000000e-02,7;}</style><g id="Layer_2"><g id="Layer_1-2"><g id="_Group_"><g id="_Group_2"><path id="_Path_" d="M46.6 58.1V60c0 1.4-1.2 2.6-2.6 2.6H20c-1.4 0-2.6-1.2-2.6-2.6v-1.8" class="st0"/><path id="_Path_2" d="M40.6 58.3h4.1c6.7 0 12.4-5.1 13.1-11.8v-.8H61c1 0 1.9-.8 1.9-1.8S62.1 42 61 42H2.9c-1 0-1.9.8-1.9 1.9 0 1 .8 1.9 1.9 1.9h3.2v.8c.7 6.7 6.4 11.8 13.1 11.8h21.4z" class="st1"/><g id="_Group_3"><path id="_Path_3" d="M26.1 15c-.5-.4-.9-.9-1.1-1.5-.6-1.5-.4-3.2.5-4.5.6-1 .9-2.1 1-3.2 0-.6 0-1.1-.2-1.7-.3-.6-.7-1.2-1.2-1.7" class="st2"/><path id="_Path_4" d="M32.5 15s-2.8-2.1-.6-6c2.6-4.6-.4-6.3-.4-6.5" class="st2"/><path id="_Path_5" d="M38.9 15s-2.8-2.1-.6-6c.6-1 .9-2.1 1-3.2.1-1.3-.4-2.5-1.4-3.4" class="st2"/></g><path id="_Path_6" d="M40.6 58.3h4.1c6.7 0 12.4-5.1 13.1-11.8v-.8H61c1 0 1.9-.8 1.9-1.8 0 0 0 0 0 0h0c0-1-.8-1.9-1.9-1.9H2.9c-1 0-1.9.8-1.9 1.9h0c0 1 .8 1.9 1.9 1.9h3.2v.8c.7 6.7 6.4 11.8 13.1 11.8h21.4z" class="st2"/><g id="_Group_4"><g id="_Group_5"><path id="_Path_7" d="M29.1 25.2c-1.6-1.6-4.3-1.3-5.7-1-2.7.7-5.2 2-7.4 3.9 1.2-.6 2.5-1.1 3.9-1.4 1.7-.4 4.7-.7 6.6 1.1s1.5 4.9 1.1 6.6c-.3 1.4-.8 2.8-1.5 4 1.9-2.1 3.3-4.7 4-7.5.3-1.5.6-4.1-1-5.7z" class="st3"/></g><path id="_Path_8" d="M6.2 41.9c-.6-4.3 1.7-10 6.3-14.5 6.4-6.4 14.7-8.3 18.7-4.3s2.1 12.4-4.3 18.7l-.2.2" class="st2"/><g id="_Group_6"><path id="_Line_" d="M15 36.5 16.6 38.1" class="st2"/><path id="_Line_2" d="M17.2 32.1 22.2 37.1" class="st2"/><path id="_Line_3" d="M21.6 29.8 24.4 32.6" class="st2"/></g></g><g id="_Group_7"><path id="_Line_4" d="M41.9 35.1 38.5 38.4" class="st2"/><path id="_Line_5" d="M37.9 33.1 36.1 35" class="st2"/></g><path id="_Path_9" d="M57.7 38.4c-.4-9.7-12.1-20.3-23.2-19" class="st2"/><path id="_Path_10" d="M33.3 27.6c3.6-.6 8.1 1.1 11.5 4.6 2.7 2.6 4.4 6.1 4.7 9.8" class="st2"/><path id="_Path_11" d="M22.2 17.9c-4.6 1.1-8.9 3.5-12.2 7-3.7 3.5-6.2 8.1-7.2 13.2" class="st4"/></g></g></g></g></svg>