<?xml version="1.0" encoding="utf-8"?>
<!-- Generator: Adobe Illustrator 21.0.0, SVG Export Plug-In . SVG Version: 6.00 Build 0)  -->
<svg version="1.1" id="Layer_1" xmlns="http://www.w3.org/2000/svg" xmlns:xlink="http://www.w3.org/1999/xlink" x="0px" y="0px"
	 viewBox="0 0 64 64" style="enable-background:new 0 0 64 64;" xml:space="preserve">
<style type="text/css">
	.st0{fill:#8A9E3B;}
	.st1{fill:#F06A54;}
	.st2{fill:none;stroke:#262525;stroke-width:2;stroke-linecap:round;stroke-miterlimit:10;}
	.st3{fill:none;stroke:#262525;stroke-width:2;stroke-linecap:round;stroke-linejoin:round;stroke-dasharray:1.000000e-02,7;}
	.st4{fill:none;stroke:#262525;stroke-width:2;stroke-linecap:round;stroke-linejoin:round;}
</style>
<title>Asset 3</title>
<g id="Layer_2">
	<g id="Layer_1-2">
		<g id="_Group_">
			<g id="_Group_2">
				<path id="_Rectangle_" class="st0" d="M15.1,56.9h31.3l0,0l0,0c0,2.5-2,4.5-4.5,4.5H19.6C17.1,61.4,15.1,59.4,15.1,56.9
					L15.1,56.9L15.1,56.9z"/>
				<path id="_Path_" class="st1" d="M22.7,19.3c-2.4,2.6-3.3,6.3-2.4,9.7c0.4,1.4,0.9,2.4,0.6,3.8c-0.6,3.3,1.1,5,3.1,6.9
					c1.4,1.2,3.3,1.7,5.1,1.3l0.4-0.1c1.2-0.1,2.4,0.1,3.4,0.7c3.9,2,8.9,0.7,8.9,0.7c-1-1,1.1-3.4,1.1-3.4
					c4.5-5.3-5.3-14.7-5.3-14.7S28.3,14.5,23,19"/>
				<g id="_Group_3">
					<path id="_Path_2" class="st2" d="M19,15.5c0,0,0.3-4.2-2.3-7c-1.7,1.6-2.9,3.6-3.5,5.9c-1.3-2.1-2.8-4-4.5-5.8
						c-0.6,1.3-2,1.9-3.3,1.6L4,9.9c0.1,0.6,0.1,1.1,0.2,1.5c0.1,1.3-0.7,2.6-1.9,3.1c1.2,1.6,4.8,5.1,4.8,5.1
						c-2.1,0.5-4,1.5-5.7,2.8c1.6,1.6,3.7,2.6,5.9,2.8"/>
				</g>
				<path id="_Path_3" class="st2" d="M50.8,46.6h7.8c1,0,1.8,0.8,1.8,1.8v0l0,0c0,1-0.8,1.8-1.8,1.8c0,0,0,0,0,0h-3.1
					c0,0,0.2,6.8-9.3,6.8h-31c-9.5,0-9.3-6.8-9.3-6.8H2.8c-1,0-1.8-0.8-1.8-1.8c0,0,0,0,0,0l0,0c0-1,0.8-1.8,1.8-1.8c0,0,0,0,0,0H31
					"/>
				<path id="_Rectangle_2" class="st2" d="M15.1,56.9h31.3l0,0l0,0c0,2.5-2,4.5-4.5,4.5H19.6C17.1,61.4,15.1,59.4,15.1,56.9
					L15.1,56.9L15.1,56.9z"/>
				<path id="_Compound_Path_" class="st3" d="M51.7,13.6c5,0.7,12,5.1,11.2,14.3c-0.5,5.6-4.1,9.7-10.8,12.5"/>
				<path id="_Path_4" class="st4" d="M44,34.3c5.8-1.1,5.9-6.8,1.9-11.6c0,0,1.7-0.7,4.2,1.6c1.1,1.1,2.7,0.3,3-1.2
					c0.4-2-0.4-3.7-1.9-5.8c0,0,8.8,1.3,8,10.3c-0.7,7.5-9.7,10.2-16.3,11.5"/>
				<path id="_Path_5" class="st2" d="M27.6,18c1.1-5.8,6.8-6,11.6-1.9c0,0,0.7-1.7-1.6-4.2c-1.1-1.1-0.3-2.7,1.2-3
					c1.9-0.4,3.6,0.4,5.7,1.9c0,0-1.3-8.8-10.3-8c-7.5,0.7-10.4,10-11.6,16.6c-2.4,2.6-3.3,6.3-2.4,9.7c0.4,1.4,0.9,2.4,0.6,3.8
					c-0.6,3.3,1.1,5,3.1,6.9c1.4,1.2,3.3,1.7,5.1,1.3l0.4-0.1c1.2-0.1,2.4,0.1,3.4,0.7c3.9,2,8.9,0.7,8.9,0.7c-1-1,1.1-3.4,1.1-3.4
					c4.5-5.3-5.3-14.7-5.3-14.7S28.3,14.5,23,19"/>
				<path id="_Path_6" class="st2" d="M33.6,41.9c1.4,2.4,2.1,5.1,1.8,7.9"/>
				<path id="_Path_7" class="st2" d="M38.3,42.8c1.3,2.1,2,4.5,1.9,7"/>
				<path id="_Path_8" class="st2" d="M41.8,42.4l2.9,1.4c1.5,0.7,2.5,2.2,2.6,3.9l0,2.1"/>
				<path id="_Path_9" class="st2" d="M17.2,28.2l-1.7,1.7c1.2,1.2,1.2,3.1,0,4.2c-1.2,1.2-3.1,1.2-4.2,0l-5.7,5.7
					c4,4,10.4,4.3,14.9,0.8"/>
				<path id="_Path_10" class="st2" d="M10.2,16.8l2.6,3.2c1.7,2,1.4,5-0.6,6.7l0,0"/>
			</g>
		</g>
	</g>
</g>
</svg>
