<svg xmlns="http://www.w3.org/2000/svg" id="Layer_1" x="0" y="0" enable-background="new 0 0 64 64" version="1.1" viewBox="0 0 64 64" xml:space="preserve"><style>.st0{fill:#849B3B;}
	.st1{fill:#F7CF13;}
	.st2{fill:none;stroke:#262525;stroke-width:2;stroke-linecap:round;stroke-linejoin:round;stroke-dasharray:1.000000e-02,7;}
	.st3{fill:none;stroke:#262525;stroke-width:2;stroke-linecap:round;stroke-miterlimit:10;}</style><g id="Layer_2"><g id="Layer_1-2"><g id="_Group_"><g id="_Group_2"><path id="_Path_" d="M46.6 54.8v1.8c0 1.4-1.2 2.6-2.6 2.6H20c-1.4 0-2.6-1.2-2.6-2.6v-1.9" class="st0"/><path id="_Path_2" d="M40.6 55h4.1c6.7 0 12.4-5.1 13.1-11.8v-.8H61c1 0 1.9-.8 1.9-1.8s-.8-1.9-1.8-1.9H2.9c-1 0-1.9.8-1.9 1.9 0 1 .8 1.9 1.9 1.9h3.2v.8C6.8 49.9 12.5 55 19.3 55h21.3z" class="st1"/><path id="_Path_3" d="M14.2 57.7C8.7 56 4.4 51.5 3 45.9" class="st2"/><path id="_Path_4" d="M40.6 55h4.1c6.7 0 12.4-5.1 13.1-11.8v-.8H61c1 0 1.9-.8 1.9-1.8 0 0 0 0 0 0h0c0-1-.8-1.9-1.8-1.9 0 0 0 0 0 0H2.9c-1 0-1.9.8-1.9 1.9 0 0 0 0 0 0h0c0 1 .8 1.9 1.9 1.9h3.2v.8C6.8 49.9 12.5 55 19.3 55h21.3z" class="st3"/><g id="_Group_3"><path id="_Path_5" d="M21.3 23s1.2-3.9-.6-7c-1.9 1.1-3.5 2.7-4.5 4.7-.8-2.2-1.7-4.3-2.9-6.3-.8 1-2.2 1.4-3.4.8l-1.2-.6c0 .6-.1 1-.2 1.4-.2 1.3-1.2 2.3-2.4 2.4.8 1.7 3.4 5.8 3.4 5.8-2 0-4 .5-5.9 1.4 1.1 1.8 2.8 3.2 4.8 3.9" class="st3"/></g><path id="_Path_6" d="M21.9 30.3c.9 1.4 2.7 1.8 4 .9 1.4-.9 1.8-2.7.9-4l6.7-4.3c2.4 3.8 2.2 8.6-.4 12.2" class="st3"/><path id="_Path_7" d="m58.5 31.8-3.1-5.6c-1.4.8-3.2.3-4-1.1-.8-1.4-.3-3.2 1.1-4l-4-6.9C43.7 17 41.7 22.9 44 28" class="st3"/><g id="_Group_4"><path id="_Path_8" d="M6.2 38.7c0-4.4 3.6-8 8-8s8 3.6 8 8" class="st3"/><path id="_Line_" d="M14.2 33.8 14.2 34.8" class="st3"/><path id="_Line_2" d="M10.8 35.3 11.4 35.9" class="st3"/><path id="_Line_3" d="M17.6 35.3 17 35.9" class="st3"/></g><g id="_Group_5"><path id="_Path_9" d="M37.3 38.7c0-4.4 3.6-8 8-8s8 3.6 8 8" class="st3"/><path id="_Line_4" d="M45.3 33.8 45.3 34.8" class="st3"/><path id="_Line_5" d="M41.8 35.3 42.5 35.9" class="st3"/><path id="_Line_6" d="M48.7 35.3 48 35.9" class="st3"/></g><path id="_Line_7" d="M13.2 23 15.4 27.4" class="st3"/><g id="_Group_6"><ellipse id="_Ellipse_" cx="36.5" cy="14.2" class="st0" rx="6" ry="4.8" transform="rotate(-31.761 36.522 14.18)"/><ellipse id="_Ellipse_2" cx="36.5" cy="14.2" class="st3" rx="6" ry="4.8" transform="rotate(-31.761 36.522 14.18)"/><path id="_Path_10" d="M42 14.7c-1.9.4-3.8-.8-4.2-2.8-.2-1 0-2.1.7-2.9" class="st3"/><path id="_Line_8" d="M31.4 17.4 25.7 21.1" class="st3"/></g><path id="_Path_11" d="M25.3 18.4S21.9 11 27.1 5.9c2.2 1.4 3.9 3.4 4.9 5.8" class="st3"/><path id="_Path_12" d="M52 13.3 56.6 21.4 56.7 21.4 61.5 30.1" class="st2"/><path id="_Path_13" d="m58.5 31.8-3.1-5.6c-1.4.8-3.2.3-4-1.1-.8-1.4-.3-3.2 1.1-4l-4-6.9C43.7 17 41.7 22.9 44 28" class="st3"/></g></g></g></g></svg>