<svg xmlns="http://www.w3.org/2000/svg" id="Layer_1" x="0" y="0" enable-background="new 0 0 64 64" version="1.1" viewBox="0 0 64 64" xml:space="preserve"><style>.st0{fill:none;stroke:#262525;stroke-width:2;stroke-linecap:round;stroke-linejoin:round;}
	.st1{fill:#F7CF13;}
	.st2{fill:none;stroke:#262525;stroke-width:2;stroke-linecap:round;stroke-linejoin:round;stroke-dasharray:1.000000e-02,7;}
	.st3{fill:#F06A54;}
	.st4{fill:none;stroke:#262525;stroke-width:2;stroke-linecap:round;stroke-miterlimit:10;}</style><g id="Layer_2"><g id="Layer_1-2"><g id="_Group_"><g id="_Group_2"><g id="_Group_3"><path id="_Rectangle_" d="M31.2 2.6h.2c2.9 0 5.3 2.4 5.3 5.3v.2c0 2.9-2.4 5.3-5.3 5.3h-.2c-2.9 0-5.3-2.4-5.3-5.3v-.3c0-2.9 2.4-5.2 5.3-5.2z" class="st0"/><circle id="_Ellipse_" cx="31.3" cy="8" r="2.9" class="st1"/></g><path id="_Path_" d="M39.7 20 63 30.9" class="st2"/><path id="_Path_2" d="M61.5 34.1 18.1 13.8" class="st0"/><path id="_Path_3" d="M34.8 18.4 44.5 13.8" class="st0"/><path id="_Path_4" d="M1.1 34.1 27.8 21.6" class="st0"/><g id="_Group_4"><path id="_Path_5" d="M29.7 35.8c0-3.4-2.7-6.1-6.1-6.1-3.4 0-6.1 2.7-6.1 6.1 0 0 0 0 0 0" class="st0"/><circle id="_Path_6" cx="23.6" cy="35.8" r="2.2" class="st3"/></g><g id="_Group_5"><path id="_Path_7" d="M46.2 35.8c0-3.4-2.7-6.1-6.1-6.1S34 32.4 34 35.8" class="st0"/><circle id="_Path_8" cx="40.1" cy="35.8" r="2.2" class="st3"/></g><g id="_Group_6"><circle id="_Path_9" cx="15.4" cy="44.8" r="6.1" class="st0"/><circle id="_Path_10" cx="15.4" cy="44.8" r="2.2" class="st3"/></g><g id="_Group_7"><circle id="_Path_11" cx="31.8" cy="44.8" r="6.1" class="st0"/><circle id="_Path_12" cx="31.8" cy="44.8" r="2.2" class="st3"/></g><g id="_Group_8"><circle id="_Path_13" cx="48.3" cy="44.8" r="6.1" class="st0"/><circle id="_Path_14" cx="48.3" cy="44.8" r="2.2" class="st3"/></g><g id="_Group_9"><g id="_Group_10"><path id="_Path_15" d="M56.7 54.5h3.2c1 0 1.8-.8 1.8-1.8s-.8-1.8-1.8-1.8h-57c-1 0-1.8.8-1.8 1.8s.8 1.8 1.8 1.8H6l2 4c.9 1.8 2.8 3 4.8 3h36.9c2 0 3.9-1.1 4.8-3l2.2-4z" class="st1"/></g><g id="_Group_11"><path id="_Path_16" d="M56.7 54.5h3.2c1 0 1.8-.8 1.8-1.8h0c0-1-.8-1.8-1.8-1.8h-57c-1 0-1.8.8-1.8 1.8h0c0 1 .8 1.8 1.8 1.8H6l2 4c.9 1.8 2.8 3 4.8 3h36.9c2 0 3.9-1.1 4.8-3l2.2-4z" class="st4"/></g><path id="_Line_" d="M6 54.5 15.4 54.5" class="st4"/></g></g></g></g></g></svg>