<svg xmlns="http://www.w3.org/2000/svg" id="Layer_1" x="0" y="0" enable-background="new 0 0 64 64" version="1.1" viewBox="0 0 64 64" xml:space="preserve"><style>.st0{fill:#8A9E3B;}
	.st1{fill:#F06A54;}
	.st2{fill:none;stroke:#262525;stroke-width:2;stroke-linecap:round;stroke-miterlimit:10;}
	.st3{fill:none;stroke:#262525;stroke-width:2;stroke-linecap:round;stroke-linejoin:round;stroke-dasharray:1.000000e-02,7;}
	.st4{fill:none;stroke:#262525;stroke-width:2;stroke-linecap:round;stroke-linejoin:round;}</style><g id="Layer_2"><g id="Layer_1-2"><g id="_Group_"><g id="_Group_2"><path id="_Rectangle_" d="M15.1 56.9h31.3c0 2.5-2 4.5-4.5 4.5H19.6c-2.5 0-4.5-2-4.5-4.5z" class="st0"/><path id="_Path_" d="M22.7 19.3c-2.4 2.6-3.3 6.3-2.4 9.7.4 1.4.9 2.4.6 3.8-.6 3.3 1.1 5 3.1 6.9 1.4 1.2 3.3 1.7 5.1 1.3l.4-.1c1.2-.1 2.4.1 3.4.7 3.9 2 8.9.7 8.9.7-1-1 1.1-3.4 1.1-3.4 4.5-5.3-5.3-14.7-5.3-14.7S28.3 14.5 23 19" class="st1"/><g id="_Group_3"><path id="_Path_2" d="M19 15.5s.3-4.2-2.3-7c-1.7 1.6-2.9 3.6-3.5 5.9-1.3-2.1-2.8-4-4.5-5.8-.6 1.3-2 1.9-3.3 1.6L4 9.9c.1.6.1 1.1.2 1.5.1 1.3-.7 2.6-1.9 3.1 1.2 1.6 4.8 5.1 4.8 5.1-2.1.5-4 1.5-5.7 2.8C3 24 5.1 25 7.3 25.2" class="st2"/></g><path id="_Path_3" d="M50.8 46.6h7.8c1 0 1.8.8 1.8 1.8v0h0c0 1-.8 1.8-1.8 1.8 0 0 0 0 0 0h-3.1s.2 6.8-9.3 6.8h-31c-9.5 0-9.3-6.8-9.3-6.8H2.8c-1 0-1.8-.8-1.8-1.8 0 0 0 0 0 0h0c0-1 .8-1.8 1.8-1.8 0 0 0 0 0 0H31" class="st2"/><path id="_Rectangle_2" d="M15.1 56.9h31.3c0 2.5-2 4.5-4.5 4.5H19.6c-2.5 0-4.5-2-4.5-4.5h0z" class="st2"/><path id="_Compound_Path_" d="M51.7 13.6c5 .7 12 5.1 11.2 14.3-.5 5.6-4.1 9.7-10.8 12.5" class="st3"/><path id="_Path_4" d="M44 34.3c5.8-1.1 5.9-6.8 1.9-11.6 0 0 1.7-.7 4.2 1.6 1.1 1.1 2.7.3 3-1.2.4-2-.4-3.7-1.9-5.8 0 0 8.8 1.3 8 10.3-.7 7.5-9.7 10.2-16.3 11.5" class="st4"/><path id="_Path_5" d="M27.6 18c1.1-5.8 6.8-6 11.6-1.9 0 0 .7-1.7-1.6-4.2-1.1-1.1-.3-2.7 1.2-3 1.9-.4 3.6.4 5.7 1.9 0 0-1.3-8.8-10.3-8-7.5.7-10.4 10-11.6 16.6-2.4 2.6-3.3 6.3-2.4 9.7.4 1.4.9 2.4.6 3.8-.6 3.3 1.1 5 3.1 6.9 1.4 1.2 3.3 1.7 5.1 1.3l.4-.1c1.2-.1 2.4.1 3.4.7 3.9 2 8.9.7 8.9.7-1-1 1.1-3.4 1.1-3.4 4.5-5.3-5.3-14.7-5.3-14.7S28.3 14.5 23 19" class="st2"/><path id="_Path_6" d="M33.6 41.9c1.4 2.4 2.1 5.1 1.8 7.9" class="st2"/><path id="_Path_7" d="M38.3 42.8c1.3 2.1 2 4.5 1.9 7" class="st2"/><path id="_Path_8" d="m41.8 42.4 2.9 1.4c1.5.7 2.5 2.2 2.6 3.9v2.1" class="st2"/><path id="_Path_9" d="m17.2 28.2-1.7 1.7c1.2 1.2 1.2 3.1 0 4.2-1.2 1.2-3.1 1.2-4.2 0l-5.7 5.7c4 4 10.4 4.3 14.9.8" class="st2"/><path id="_Path_10" d="m10.2 16.8 2.6 3.2c1.7 2 1.4 5-.6 6.7h0" class="st2"/></g></g></g></g></svg>