<svg xmlns="http://www.w3.org/2000/svg" id="Layer_1" x="0" y="0" enable-background="new 0 0 64 64" version="1.1" viewBox="0 0 64 64" xml:space="preserve"><style>.st0{fill:#FBAB1A;}
	.st1{fill:none;stroke:#262525;stroke-width:2;stroke-linecap:round;stroke-linejoin:round;stroke-dasharray:1.000000e-02,7;}
	.st2{fill:none;stroke:#262525;stroke-width:2;stroke-linecap:round;stroke-linejoin:round;}
	.st3{fill:none;stroke:#262525;stroke-width:2;stroke-linecap:round;stroke-miterlimit:10;}
	.st4{fill:#F26756;}</style><g id="Layer_2"><g id="Layer_1-2"><g id="_Group_"><path id="_Path_" d="M29.9 55.1C17.1 55.1 6.8 44.7 6.8 32S17.2 8.9 29.9 8.9c2.2 0 4.5.3 6.6 1-.4 1.2-1.7 5-5.6 16.8-.3 1-.2 2.2.5 3.1.6.9 1.7 1.4 2.8 1.4.3 0 .6 0 .9-.1l17.2-4.5c3 12.4-4.5 24.9-16.9 27.9-1.8.4-3.6.6-5.5.6z" class="st0"/><path id="_Path_2" d="M8.6 9.4C16.7 1.8 28.2-.9 38.8 2.3" class="st1"/><path id="_Path_3" d="M28.9 63c-8.2-.2-16-3.7-21.6-9.8" class="st1"/><path id="_Path_4" d="M56.3 25c3.9 14.6-4.8 29.6-19.4 33.5S7.3 53.7 3.4 39 8.2 9.4 22.8 5.5c4.9-1.3 10.1-1.2 14.9.2" class="st2"/><path id="_Path_5" d="M20 36.7c0 1.8-1.4 3.2-3.2 3.2s-3.2-1.4-3.2-3.2c0-1.8 1.4-3.2 3.2-3.2" class="st3"/><circle id="_Path_6" cx="46" cy="34.9" r="2" class="st4"/><circle id="_Path_7" cx="41.9" cy="20.8" r="1.7" class="st0"/><circle id="_Path_8" cx="44.9" cy="12.8" r="2.1" class="st0"/><path id="_Path_9" d="M29.9 15.4c0 1.1-.9 2.1-2.1 2.1-1.1 0-2.1-.9-2.1-2.1 0 0 0 0 0 0" class="st3"/><circle id="_Path_10" cx="24.7" cy="30.6" r="2.2" class="st4"/><path id="_Path_11" d="M31.2 41.6c-1.1-1.2-1-3.1.2-4.2s3.1-1 4.2.2c.1.1.2.2.2.3" class="st3"/><circle id="_Path_12" cx="25.4" cy="47.1" r="2.9" class="st4"/><path id="_Path_13" d="M21.2 23.6c.8-.9.5-2.4-.6-3.5-1.2-1.1-2.8-1.3-3.6-.5-.5.5-.6 1.3-.4 1.9L15.1 23c-.3.3-.3.7 0 1l1.7 1.6c.3.3.7.3 1 0l1.5-1.5c.7.2 1.5 0 1.9-.5z" class="st4"/><path id="_Path_14" d="M51.5 20c1-.4 1.3-1.8.8-3s-1.7-2-2.7-1.6c-.5.3-.9.8-1 1.4l-1.7.7c-.3.1-.4.5-.3.8l.8 1.9c.1.3.5.4.8.3l1.7-.7c.4.3 1 .4 1.6.2z" class="st0"/><path id="_Path_15" d="M41.4 41.7c-.7-.8-2.1-.7-3.2.2-1.1.9-1.4 2.3-.8 3.1.4.4 1 .6 1.6.5l1.2 1.4c.2.3.6.3.8.1l1.6-1.3c.3-.2.3-.6.1-.8l-1.2-1.4c.4-.7.3-1.3-.1-1.8z" class="st4"/><g id="_Group_2"><path id="_Path_16" d="M52.2 11c2.7 2.8 4.6 6.3 5.6 10.1l3.7-1c-2.4-9-9.2-16.2-18-19l-1.2 3.6c3.8 1.2 7.2 3.4 9.9 6.3z" class="st2"/><path id="_Path_17" d="M42.3 4.7 34.9 27.1 57.8 21.1" class="st2"/></g><path id="_Path_18" d="M29.9 55.1C17.1 55.1 6.8 44.7 6.8 32S17.2 8.9 29.9 8.9c2.2 0 4.5.3 6.6 1-.4 1.2-1.7 5-5.6 16.8-.3 1-.2 2.2.5 3.1.6.9 1.7 1.4 2.8 1.4h0c.3 0 .6 0 .9-.1l17.2-4.5c3 12.4-4.5 24.9-16.9 27.9-1.8.4-3.6.6-5.5.6z" class="st3"/></g></g></g></svg>