<?xml version="1.0" encoding="utf-8"?>
<!-- Generator: Adobe Illustrator 21.0.0, SVG Export Plug-In . SVG Version: 6.00 Build 0)  -->
<svg version="1.1" id="Layer_1" xmlns="http://www.w3.org/2000/svg" xmlns:xlink="http://www.w3.org/1999/xlink" x="0px" y="0px"
	 viewBox="0 0 64 64" style="enable-background:new 0 0 64 64;" xml:space="preserve">
<style type="text/css">
	.st0{fill:#DDDDCB;}
	.st1{fill:#F1EDDB;}
	.st2{fill:none;stroke:#262525;stroke-width:2.5;stroke-linecap:round;stroke-linejoin:round;stroke-dasharray:1.000000e-02,7;}
	.st3{fill:none;stroke:#262525;stroke-width:2.5;stroke-linecap:round;stroke-linejoin:round;}
	.st4{fill:none;stroke:#262525;stroke-width:2.5;stroke-linecap:round;stroke-miterlimit:10;}
	.st5{fill:#F7CF13;}
	.st6{fill:#FBAB1A;}
</style>
<title>Asset 11</title>
<g id="Layer_2">
	<g id="Layer_1-2">
		<g id="_Group_">
			<g id="_Group_2">
				<path id="_Path_" class="st0" d="M17.9,58.2v0.1c-0.5,1.5,0.4,3.2,1.9,3.6c0.3,0.1,0.5,0.1,0.8,0.1h20.8c1.6,0,2.9-1.3,2.9-2.9
					c0-0.3,0-0.6-0.1-0.9v-0.1"/>
				<path id="_Path_2" class="st1" d="M3.4,39.1c0,0,0.6,14.1,14.5,19.1h26.2c13.9-5,14.5-19,14.5-19"/>
				<path id="_Path_3" class="st2" d="M62.4,39.2c0,0.6-0.7,14.6-14,21.2"/>
				<path id="_Path_4" class="st3" d="M3.4,39.1c0,0,0.6,14.1,14.5,19.1h26.2c13.9-5,14.5-19,14.5-19"/>
				<g id="_Group_3">
					<g id="_Group_4">
						<path id="_Path_5" class="st4" d="M32.8,29.9c-2.1-3.3-4.5-6.3-7.2-9.1c-4-3.9-8.5-7.2-13.4-9.8c0.4-1.9-0.8-3.8-2.7-4.3
							C7.5,6.4,5.6,7.6,5.2,9.5c-0.3,1.2,0.1,2.5,0.9,3.3L6.4,13c-2-0.1-3.7,1.3-3.8,3.3c-0.1,1.4,0.6,2.7,1.9,3.4
							c-1.9,0.5-3,2.4-2.5,4.4c0.4,1.6,1.8,2.6,3.4,2.7c-1,0.7-1.5,1.7-1.5,2.9"/>
						<path id="_Path_6" class="st5" d="M10.4,15.4C8.2,20.2,8.8,25.7,11.8,30c-1.6-6.1,4.1-9,9.6-6.6c-3.2-3-6.8-5.6-10.7-7.7
							L10.4,15.4z"/>
					</g>
					<g id="_Group_5">
						<path id="_Path_7" class="st3" d="M27.8,16.1c1.5-1.5,3.9-1.5,5.3,0c0.3,0.3,0.5,0.5,0.6,0.9c0.5-2,2.6-3.2,4.6-2.7
							c1.6,0.4,2.8,1.9,2.8,3.6c1.3-1.6,3.6-1.9,5.3-0.7c1.2,0.9,1.7,2.5,1.3,3.9c1.7-1.1,4.1-0.7,5.2,1.1c0.8,1.3,0.8,2.9,0,4.2
							c2-0.6,4.1,0.5,4.7,2.5c0.1,0.3,0.1,0.6,0.2,0.8"/>
					</g>
					<g id="_Group_6">
						<path id="_Path_8" class="st3" d="M49.6,15.5c4.2-2.9,0.6-8.2-2.7-5.7c0.5-2-0.8-4.1-2.8-4.5c-1.5-0.3-3,0.2-3.9,1.4
							c-0.1-2.1-1.9-3.7-3.9-3.6c-1.6,0.1-3,1.2-3.5,2.8C32,4,29.8,3.1,27.9,3.8c-1.6,0.6-2.5,2.2-2.4,3.9c-1.4-1.2-3.5-1.3-4.9-0.1
							c-0.8,0.7-1.3,1.7-1.2,2.8c0,0.1,0,0.3,0,0.4"/>
					</g>
					<path id="_Path_9" class="st6" d="M29.6,20.3c0,0,5,5.3,7.2,9.7h15.5C47.1,22.8,38.4,19.1,29.6,20.3z"/>
				</g>
				<path id="_Path_10" class="st0" d="M58.6,39.1H3.3c-1.6,0-3-1.3-3-3c0,0,0,0,0,0l0,0c0-1.6,1.3-3,3-3c0,0,0,0,0,0h55.3
					c1.6,0,3,1.3,3,3c0,0,0,0,0,0l0,0C61.6,37.8,60.3,39.1,58.6,39.1C58.6,39.1,58.6,39.1,58.6,39.1z"/>
			</g>
		</g>
	</g>
</g>
</svg>
