<?xml version="1.0" encoding="utf-8"?>
<!-- Generator: Adobe Illustrator 21.0.0, SVG Export Plug-In . SVG Version: 6.00 Build 0)  -->
<svg version="1.1" id="Layer_1" xmlns="http://www.w3.org/2000/svg" xmlns:xlink="http://www.w3.org/1999/xlink" x="0px" y="0px"
	 viewBox="0 0 64 64" style="enable-background:new 0 0 64 64;" xml:space="preserve">
<style type="text/css">
	.st0{fill:#849B3B;}
	.st1{fill:#FBAB1A;}
	.st2{fill:none;stroke:#262525;stroke-width:2;stroke-linecap:round;stroke-miterlimit:10;}
	.st3{fill:#F26756;}
	.st4{fill:none;stroke:#262525;stroke-width:2;stroke-linecap:round;stroke-linejoin:round;stroke-dasharray:1.000000e-02,7;}
</style>
<title>Asset 8</title>
<g id="Layer_2">
	<g id="Layer_1-2">
		<g id="_Group_">
			<g id="_Group_2">
				<path id="_Path_" class="st0" d="M46.6,58.1V60c0,1.4-1.2,2.6-2.6,2.6H20c-1.4,0-2.6-1.2-2.6-2.6v-1.8"/>
				<path id="_Path_2" class="st1" d="M40.6,58.3h4.1c6.7,0,12.4-5.1,13.1-11.8c0-0.5,0-0.8,0-0.8h3.2c1,0,1.9-0.8,1.9-1.8
					c0,0,0,0,0,0l0,0c0-1-0.8-1.9-1.9-1.9H2.9c-1,0-1.9,0.8-1.9,1.9l0,0c0,1,0.8,1.9,1.9,1.9h3.2c0,0,0,0.3,0,0.8
					c0.7,6.7,6.4,11.8,13.1,11.8H40.6z"/>
				<g id="_Group_3">
					<path id="_Path_3" class="st2" d="M26.1,15c-0.5-0.4-0.9-0.9-1.1-1.5c-0.6-1.5-0.4-3.2,0.5-4.5c0.6-1,0.9-2.1,1-3.2
						c0-0.6,0-1.1-0.2-1.7c-0.3-0.6-0.7-1.2-1.2-1.7"/>
					<path id="_Path_4" class="st2" d="M32.5,15c0,0-2.8-2.1-0.6-6c2.6-4.6-0.4-6.3-0.4-6.5"/>
					<path id="_Path_5" class="st2" d="M38.9,15c0,0-2.8-2.1-0.6-6c0.6-1,0.9-2.1,1-3.2c0.1-1.3-0.4-2.5-1.4-3.4"/>
				</g>
				<path id="_Path_6" class="st2" d="M40.6,58.3h4.1c6.7,0,12.4-5.1,13.1-11.8c0-0.5,0-0.8,0-0.8h3.2c1,0,1.9-0.8,1.9-1.8
					c0,0,0,0,0,0l0,0c0-1-0.8-1.9-1.9-1.9H2.9c-1,0-1.9,0.8-1.9,1.9l0,0c0,1,0.8,1.9,1.9,1.9h3.2c0,0,0,0.3,0,0.8
					c0.7,6.7,6.4,11.8,13.1,11.8H40.6z"/>
				<g id="_Group_4">
					<g id="_Group_5">
						<path id="_Path_7" class="st3" d="M29.1,25.2c-1.6-1.6-4.3-1.3-5.7-1c-2.7,0.7-5.2,2-7.4,3.9c1.2-0.6,2.5-1.1,3.9-1.4
							c1.7-0.4,4.7-0.7,6.6,1.1s1.5,4.9,1.1,6.6c-0.3,1.4-0.8,2.8-1.5,4c1.9-2.1,3.3-4.7,4-7.5C30.4,29.4,30.7,26.8,29.1,25.2z"/>
					</g>
					<path id="_Path_8" class="st2" d="M6.2,41.9c-0.6-4.3,1.7-10,6.3-14.5c6.4-6.4,14.7-8.3,18.7-4.3s2.1,12.4-4.3,18.7L26.7,42"/>
					<g id="_Group_6">
						<line id="_Line_" class="st2" x1="15" y1="36.5" x2="16.6" y2="38.1"/>
						<line id="_Line_2" class="st2" x1="17.2" y1="32.1" x2="22.2" y2="37.1"/>
						<line id="_Line_3" class="st2" x1="21.6" y1="29.8" x2="24.4" y2="32.6"/>
					</g>
				</g>
				<g id="_Group_7">
					<line id="_Line_4" class="st2" x1="41.9" y1="35.1" x2="38.5" y2="38.4"/>
					<line id="_Line_5" class="st2" x1="37.9" y1="33.1" x2="36.1" y2="35"/>
				</g>
				<path id="_Path_9" class="st2" d="M57.7,38.4c-0.4-9.7-12.1-20.3-23.2-19"/>
				<path id="_Path_10" class="st2" d="M33.3,27.6c3.6-0.6,8.1,1.1,11.5,4.6c2.7,2.6,4.4,6.1,4.7,9.8"/>
				<path id="_Path_11" class="st4" d="M22.2,17.9c-4.6,1.1-8.9,3.5-12.2,7C6.3,28.4,3.8,33,2.8,38.1"/>
			</g>
		</g>
	</g>
</g>
</svg>
