<svg xmlns="http://www.w3.org/2000/svg" id="Layer_1" x="0" y="0" version="1.1" viewBox="0 0 64 64" xml:space="preserve"><style>.st0{fill:#fbab1a}.st2,.st3{fill:none;stroke:#262525;stroke-width:2;stroke-linecap:round}.st2{stroke-miterlimit:10}.st3{stroke-linejoin:round;stroke-dasharray:1.000000e-02,7}</style><g id="Layer_2"><g id="Layer_1-2"><g id="_Group_"><g id="_Group_2"><path id="_Path_" d="M46.6 55v1.8c0 1.4-1.2 2.6-2.6 2.6H20c-1.4 0-2.6-1.2-2.6-2.6V55" class="st0"/><path id="_Path_2" fill="#ddddcb" d="M44.7 55.1c6.7 0 12.4-5.1 13.1-11.8v-.8H61c1 0 1.9-.8 1.9-1.8s-.8-1.9-1.9-1.9H2.9c-1 0-1.9.8-1.9 1.9 0 1 .8 1.9 1.9 1.9h3.2c0 6.3 5.7 12.6 13.2 12.6l25.4-.1z"/><path id="_Path_3" d="M44.7 55.1c6.7 0 12.4-5.1 13.1-11.8v-.8H61c1 0 1.9-.8 1.9-1.8s-.8-1.9-1.9-1.9H2.9c-1 0-1.9.8-1.9 1.9 0 1 .8 1.9 1.9 1.9h3.2c0 6.3 5.7 12.6 13.2 12.6l25.4-.1z" class="st2"/><path id="_Path_4" d="M2.5 35.6c0-4.2 1.6-8.3 4.3-11.5" class="st3"/><path id="_Path_5" d="M6.1 35.7c0-3.4 1.2-6.6 3.4-9.2 1.5-1.6 2.1-3.9 1.7-6.1-.4-1.1.3-2.4 1.4-2.7.1 0 .1 0 .2-.1l3.2-.7c1.2-.2 2.3.5 2.6 1.7v.2c.5 2.1 2 3.9 4 4.8 4.5 2.3 7.6 6.8 8.1 11.9" class="st2"/><path id="_Path_6" d="M12.4 17.8l-1.3-6.3c-1.4.2-2.7-.9-2.8-2.3-.2-1.4.9-2.7 2.3-2.8.6-.1 1.2.1 1.7.4.7-1.2 2.3-1.6 3.5-.8s1.6 2.4.8 3.6c-.3.5-.9.9-1.5 1.1l1.3 6.3" class="st2"/><path id="_Path_7" d="M51.4 16.7c3.7 2.5 8.5 5.8 9.8 16" class="st3"/><path id="_Path_8" d="M22.4 22.9c6.1-8.5 14.2-2.5 22.2-7.7 3.6 6.5 13.3 4.4 13.3 23.7" class="st2"/><path id="_Path_9" d="M27.7 28c4-4.5 14.4-4.5 16.4 3.2" class="st2"/><path id="_Path_10" d="M53.3 35.7c0-6.2-6.1-9.9-10.6-7.3" class="st2"/><path id="_Path_11" d="M21.4 26.3c-2.4-1.1-4.2-3.1-5.1-5.5-.2-.6-.9-.9-1.5-.6-.4.2-.7.6-.7 1.1.1 2.6-.8 5.2-2.5 7.1-1.8 2.1-2.7 4.7-2.7 7.4 0 0 4.7-7.3 16.1-6.7-1-1.2-2.2-2.1-3.6-2.8z" class="st0"/></g></g></g></g></svg>