<?xml version="1.0" encoding="utf-8"?>
<!-- Generator: Adobe Illustrator 21.0.0, SVG Export Plug-In . SVG Version: 6.00 Build 0)  -->
<svg version="1.1" id="Layer_1" xmlns="http://www.w3.org/2000/svg" xmlns:xlink="http://www.w3.org/1999/xlink" x="0px" y="0px"
	 viewBox="0 0 64 64" style="enable-background:new 0 0 64 64;" xml:space="preserve">
<style type="text/css">
	.st0{fill:none;stroke:#262525;stroke-width:2;stroke-linecap:round;stroke-linejoin:round;}
	.st1{fill:#F7CF13;}
	.st2{fill:none;stroke:#262525;stroke-width:2;stroke-linecap:round;stroke-linejoin:round;stroke-dasharray:1.000000e-02,7;}
	.st3{fill:#F06A54;}
	.st4{fill:none;stroke:#262525;stroke-width:2;stroke-linecap:round;stroke-miterlimit:10;}
</style>
<title>Asset 10</title>
<g id="Layer_2">
	<g id="Layer_1-2">
		<g id="_Group_">
			<g id="_Group_2">
				<g id="_Group_3">
					<path id="_Rectangle_" class="st0" d="M31.2,2.6h0.2c2.9,0,5.3,2.4,5.3,5.3v0.2c0,2.9-2.4,5.3-5.3,5.3h-0.2
						c-2.9,0-5.3-2.4-5.3-5.3V7.8C25.9,4.9,28.3,2.6,31.2,2.6z"/>
					<circle id="_Ellipse_" class="st1" cx="31.3" cy="8" r="2.9"/>
				</g>
				<line id="_Path_" class="st2" x1="39.7" y1="20" x2="63" y2="30.9"/>
				<line id="_Path_2" class="st0" x1="61.5" y1="34.1" x2="18.1" y2="13.8"/>
				<line id="_Path_3" class="st0" x1="34.8" y1="18.4" x2="44.5" y2="13.8"/>
				<line id="_Path_4" class="st0" x1="1.1" y1="34.1" x2="27.8" y2="21.6"/>
				<g id="_Group_4">
					<path id="_Path_5" class="st0" d="M29.7,35.8c0-3.4-2.7-6.1-6.1-6.1c-3.4,0-6.1,2.7-6.1,6.1c0,0,0,0,0,0"/>
					<circle id="_Path_6" class="st3" cx="23.6" cy="35.8" r="2.2"/>
				</g>
				<g id="_Group_5">
					<path id="_Path_7" class="st0" d="M46.2,35.8c0-3.4-2.7-6.1-6.1-6.1S34,32.4,34,35.8"/>
					<circle id="_Path_8" class="st3" cx="40.1" cy="35.8" r="2.2"/>
				</g>
				<g id="_Group_6">
					<circle id="_Path_9" class="st0" cx="15.4" cy="44.8" r="6.1"/>
					<circle id="_Path_10" class="st3" cx="15.4" cy="44.8" r="2.2"/>
				</g>
				<g id="_Group_7">
					<circle id="_Path_11" class="st0" cx="31.8" cy="44.8" r="6.1"/>
					<circle id="_Path_12" class="st3" cx="31.8" cy="44.8" r="2.2"/>
				</g>
				<g id="_Group_8">
					<circle id="_Path_13" class="st0" cx="48.3" cy="44.8" r="6.1"/>
					<circle id="_Path_14" class="st3" cx="48.3" cy="44.8" r="2.2"/>
				</g>
				<g id="_Group_9">
					<g id="_Group_10">
						<path id="_Path_15" class="st1" d="M56.7,54.5h3.2c1,0,1.8-0.8,1.8-1.8l0,0c0-1-0.8-1.8-1.8-1.8h-57c-1,0-1.8,0.8-1.8,1.8l0,0
							c0,1,0.8,1.8,1.8,1.8H6l2,4c0.9,1.8,2.8,3,4.8,3h36.9c2,0,3.9-1.1,4.8-3L56.7,54.5z"/>
					</g>
					<g id="_Group_11">
						<path id="_Path_16" class="st4" d="M56.7,54.5h3.2c1,0,1.8-0.8,1.8-1.8l0,0c0-1-0.8-1.8-1.8-1.8h-57c-1,0-1.8,0.8-1.8,1.8l0,0
							c0,1,0.8,1.8,1.8,1.8H6l2,4c0.9,1.8,2.8,3,4.8,3h36.9c2,0,3.9-1.1,4.8-3L56.7,54.5z"/>
					</g>
					<line id="_Line_" class="st4" x1="6" y1="54.5" x2="15.4" y2="54.5"/>
				</g>
			</g>
		</g>
	</g>
</g>
</svg>
