<?xml version="1.0" encoding="utf-8"?>
<!-- Generator: Adobe Illustrator 21.0.0, SVG Export Plug-In . SVG Version: 6.00 Build 0)  -->
<svg version="1.1" id="Layer_1" xmlns="http://www.w3.org/2000/svg" xmlns:xlink="http://www.w3.org/1999/xlink" x="0px" y="0px"
	 viewBox="0 0 64 64" style="enable-background:new 0 0 64 64;" xml:space="preserve">
<style type="text/css">
	.st0{fill:#FBAB1A;}
	.st1{fill:none;stroke:#262525;stroke-width:2;stroke-linecap:round;stroke-linejoin:round;stroke-dasharray:1.000000e-02,7;}
	.st2{fill:none;stroke:#262525;stroke-width:2;stroke-linecap:round;stroke-linejoin:round;}
	.st3{fill:none;stroke:#262525;stroke-width:2;stroke-linecap:round;stroke-miterlimit:10;}
	.st4{fill:#F26756;}
</style>
<title>Asset 2</title>
<g id="Layer_2">
	<g id="Layer_1-2">
		<g id="_Group_">
			<path id="_Path_" class="st0" d="M29.9,55.1C17.1,55.1,6.8,44.7,6.8,32S17.2,8.9,29.9,8.9c2.2,0,4.5,0.3,6.6,1
				c-0.4,1.2-1.7,5-5.6,16.8c-0.3,1-0.2,2.2,0.5,3.1c0.6,0.9,1.7,1.4,2.8,1.4l0,0c0.3,0,0.6,0,0.9-0.1l17.2-4.5
				c3,12.4-4.5,24.9-16.9,27.9C33.6,54.9,31.8,55.1,29.9,55.1z"/>
			<path id="_Path_2" class="st1" d="M8.6,9.4c8.1-7.6,19.6-10.3,30.2-7.1"/>
			<path id="_Path_3" class="st1" d="M28.9,63c-8.2-0.2-16-3.7-21.6-9.8"/>
			<path id="_Path_4" class="st2" d="M56.3,25c3.9,14.6-4.8,29.6-19.4,33.5S7.3,53.7,3.4,39S8.2,9.4,22.8,5.5
				c4.9-1.3,10.1-1.2,14.9,0.2"/>
			<path id="_Path_5" class="st3" d="M20,36.7c0,1.8-1.4,3.2-3.2,3.2s-3.2-1.4-3.2-3.2c0-1.8,1.4-3.2,3.2-3.2"/>
			<circle id="_Path_6" class="st4" cx="46" cy="34.9" r="2"/>
			<circle id="_Path_7" class="st0" cx="41.9" cy="20.8" r="1.7"/>
			<circle id="_Path_8" class="st0" cx="44.9" cy="12.8" r="2.1"/>
			<path id="_Path_9" class="st3" d="M29.9,15.4c0,1.1-0.9,2.1-2.1,2.1c-1.1,0-2.1-0.9-2.1-2.1c0,0,0,0,0,0"/>
			<circle id="_Path_10" class="st4" cx="24.7" cy="30.6" r="2.2"/>
			<path id="_Path_11" class="st3" d="M31.2,41.6c-1.1-1.2-1-3.1,0.2-4.2c1.2-1.1,3.1-1,4.2,0.2c0.1,0.1,0.2,0.2,0.2,0.3"/>
			<circle id="_Path_12" class="st4" cx="25.4" cy="47.1" r="2.9"/>
			<path id="_Path_13" class="st4" d="M21.2,23.6c0.8-0.9,0.5-2.4-0.6-3.5c-1.2-1.1-2.8-1.3-3.6-0.5c-0.5,0.5-0.6,1.3-0.4,1.9
				l-1.5,1.5c-0.3,0.3-0.3,0.7,0,1c0,0,0,0,0,0l1.7,1.6c0.3,0.3,0.7,0.3,1,0c0,0,0,0,0,0l1.5-1.5C20,24.3,20.8,24.1,21.2,23.6z"/>
			<path id="_Path_14" class="st0" d="M51.5,20c1-0.4,1.3-1.8,0.8-3s-1.7-2-2.7-1.6c-0.5,0.3-0.9,0.8-1,1.4l-1.7,0.7
				c-0.3,0.1-0.4,0.5-0.3,0.8l0.8,1.9c0.1,0.3,0.5,0.4,0.8,0.3l1.7-0.7C50.3,20.1,50.9,20.2,51.5,20z"/>
			<path id="_Path_15" class="st4" d="M41.4,41.7c-0.7-0.8-2.1-0.7-3.2,0.2c-1.1,0.9-1.4,2.3-0.8,3.1c0.4,0.4,1,0.6,1.6,0.5l1.2,1.4
				c0.2,0.3,0.6,0.3,0.8,0.1l1.6-1.3c0.3-0.2,0.3-0.6,0.1-0.8l-1.2-1.4C41.9,42.8,41.8,42.2,41.4,41.7z"/>
			<g id="_Group_2">
				<path id="_Path_16" class="st2" d="M52.2,11c2.7,2.8,4.6,6.3,5.6,10.1l3.7-1c-2.4-9-9.2-16.2-18-19l-1.2,3.6
					C46.1,5.9,49.5,8.1,52.2,11z"/>
				<polyline id="_Path_17" class="st2" points="42.3,4.7 34.9,27.1 57.8,21.1 				"/>
			</g>
			<path id="_Path_18" class="st3" d="M29.9,55.1C17.1,55.1,6.8,44.7,6.8,32S17.2,8.9,29.9,8.9c2.2,0,4.5,0.3,6.6,1
				c-0.4,1.2-1.7,5-5.6,16.8c-0.3,1-0.2,2.2,0.5,3.1c0.6,0.9,1.7,1.4,2.8,1.4l0,0c0.3,0,0.6,0,0.9-0.1l17.2-4.5
				c3,12.4-4.5,24.9-16.9,27.9C33.6,54.9,31.8,55.1,29.9,55.1z"/>
		</g>
	</g>
</g>
</svg>
