<svg xmlns="http://www.w3.org/2000/svg" id="Layer_1" x="0" y="0" enable-background="new 0 0 62.9 64" version="1.1" viewBox="0 0 62.9 64" xml:space="preserve"><style>.st0{fill:#ED6954;}
	.st1{fill:none;stroke:#262525;stroke-width:2;stroke-linecap:round;stroke-miterlimit:10;}
	.st2{fill:none;stroke:#262525;stroke-width:2;stroke-linecap:round;stroke-linejoin:round;}
	.st3{fill:#FBAB1A;}
	.st4{fill:none;stroke:#262525;stroke-width:2;stroke-linecap:round;stroke-linejoin:round;stroke-dasharray:1.000000e-02,7;}</style><g id="Layer_2"><g id="Layer_1-2"><g id="_Group_"><g id="_Group_2"><path id="_Rectangle_" d="M18.5 59.3h29.4c0 2.3-1.9 4.2-4.2 4.2h-21c-2.3 0-4.2-1.9-4.2-4.2z" class="st0"/><path id="_Path_" d="M52 49.6h7.3c.9 0 1.7.7 1.7 1.7 0 0 0 0 0 0h0c0 .9-.7 1.7-1.7 1.7 0 0 0 0 0 0h-2.9s.2 6.4-8.7 6.4H18.5c-8.9 0-8.7-6.4-8.7-6.4H6.9c-.9 0-1.7-.7-1.7-1.7h0c0-.9.7-1.7 1.7-1.7 0 0 0 0 0 0h7.4" class="st1"/><g id="_Group_3"><path id="_Path_2" d="m14.8 42.2-4.1-.6c-.3 0-.5-.3-.5-.7 0-.1.1-.2.1-.3l2.5-2.8 2.5-2.8c.2-.2.6-.2.8 0 .1.1.1.2.2.3l1.1 4" class="st1"/><g id="_Group_4"><path id="_Path_3" d="M46.3 42.6c.7.6 1.2 1.4 1.4 2.3" class="st1"/></g><g id="_Group_5"><path id="_Path_4" d="M43.3 44.9c.6.7 1 1.6 1 2.5" class="st1"/></g><g id="_Group_6"><path id="_Path_5" d="M40.1 46.7c.5.8.7 1.7.6 2.6" class="st1"/></g><path id="_Path_6" d="M15.9 47.1c9.4 9.5 24.6 9.6 34.1.2l.2-.2c1.9-1.9 1.9-5-.1-6.9-.3-.3-.6-.5-1-.8H49c-1.9-1.1-4.4-.8-5.9.8-5.5 5.6-14.6 5.6-20.1.1l-.1-.1c-1.5-1.6-4-2-5.9-.8h-.1c-2.3 1.3-3.2 4.3-1.8 6.7.3.4.5.7.8 1z" class="st1"/><path id="_Path_7" d="m51.4 42.2 4.1-.6c.3 0 .5-.3.5-.7 0-.1-.1-.2-.1-.3l-2.5-2.8-2.6-2.8c-.2-.2-.6-.2-.8 0-.1.1-.1.2-.2.3l-1.1 4" class="st1"/><path id="_Path_8" d="M29.6 47.3c-3.4-.7-6.5-2.4-8.9-4.8-.5-.6-1.4-.7-2.1-.3h-.1c-.4.3-.8.7-.8 1.2-.1.5.1 1.1.5 1.4 2.4 2.5 5.3 4.3 8.6 5.3.7-1.1 1.7-2.1 2.8-2.8z" class="st0"/></g><g id="_Group_7"><path id="_Path_9" d="M5.3 38.5V31c0-3.7 3-6.6 6.6-6.6h2.5" class="st2"/><path id="_Path_10" d="M14.4 29.9 14.4 21" class="st2"/><path id="_Path_11" d="M40.3 19.8 40.3 36.7" class="st2"/><path id="_Path_12" d="M35.2 18.4c1.1 1.7 3.2 2.3 5 1.4 1.8-.8 3-2.6 3.1-4.6 0-2.7-2.2-4.9-4.9-4.9H38c-.4-3.5-3.6-5.9-7-5.5-2 .2-3.7 1.4-4.7 3.1-1.8-1.9-4.7-2-6.6-.2-1 .9-1.5 2.2-1.5 3.5v.2c-2.8-.7-5.6.9-6.4 3.7-.1.4-.2.9-.2 1.4 0 1.9 1 3.7 2.7 4.6 1.7.8 3.7.2 4.7-1.3" class="st1"/><path id="_Path_13" d="M26.3 7.9s2.2 2.5.2 4.9" class="st1"/><path id="_Path_14" d="M38 10.4c-1 .1-1.9.8-2.5 1.7" class="st2"/><path id="_Path_15" d="M35.1 39.8V26.6c.1-.8-.6-1.6-1.4-1.6-.8-.1-1.6.6-1.6 1.4V40h1c.7 0 1.4-.1 2-.2z" class="st3"/><path id="_Path_16" d="M28.8 26.6c-.1-.8-.8-1.5-1.6-1.4-.7.1-1.3.7-1.4 1.4v10.8c.9.7 1.9 1.4 3 1.8V26.6z" class="st3"/><path id="_Path_17" d="M22.5 26.6c0-.8-.7-1.5-1.5-1.5s-1.5.7-1.5 1.5v7.7c1 0 2.1.2 3 .7v-8.4z" class="st3"/></g><path id="_Compound_Path_" d="M9.8 21.2c-4.6 1-7.9 5-7.9 9.7v7.6m41.7-16.9c1.9-1.6 3-3.9 3.1-6.3 0-3.7-2.5-7-6.1-8-2.1-4.9-7.8-7.1-12.7-5-.8.3-1.6.8-2.3 1.4" class="st4"/></g></g></g></g></svg>