<?xml version="1.0" encoding="utf-8"?>
<!-- Generator: Adobe Illustrator 21.0.0, SVG Export Plug-In . SVG Version: 6.00 Build 0)  -->
<svg version="1.1" id="Layer_1" xmlns="http://www.w3.org/2000/svg" xmlns:xlink="http://www.w3.org/1999/xlink" x="0px" y="0px"
	 viewBox="0 0 64 64" style="enable-background:new 0 0 64 64;" xml:space="preserve">
<style type="text/css">
	.st0{fill:#FBAB1A;}
	.st1{fill:#DDDDCB;}
	.st2{fill:none;stroke:#262525;stroke-width:2;stroke-linecap:round;stroke-miterlimit:10;}
	.st3{fill:none;stroke:#262525;stroke-width:2;stroke-linecap:round;stroke-linejoin:round;stroke-dasharray:1.000000e-02,7;}
</style>
<title>Asset 15</title>
<g id="Layer_2">
	<g id="Layer_1-2">
		<g id="_Group_">
			<g id="_Group_2">
				<path id="_Path_" class="st0" d="M46.6,55v1.8c0,1.4-1.2,2.6-2.6,2.6H20c-1.4,0-2.6-1.2-2.6-2.6V55"/>
				<path id="_Path_2" class="st1" d="M44.7,55.1c6.7,0,12.4-5.1,13.1-11.8c0-0.5,0-0.8,0-0.8h3.2c1,0,1.9-0.8,1.9-1.8c0,0,0,0,0,0
					l0,0c0-1-0.8-1.9-1.9-1.9H2.9c-1,0-1.9,0.8-1.9,1.9l0,0c0,1,0.8,1.9,1.9,1.9h3.2c0,6.3,5.7,12.6,13.2,12.6L44.7,55.1L44.7,55.1z
					"/>
				<path id="_Path_3" class="st2" d="M44.7,55.1c6.7,0,12.4-5.1,13.1-11.8c0-0.5,0-0.8,0-0.8h3.2c1,0,1.9-0.8,1.9-1.8c0,0,0,0,0,0
					l0,0c0-1-0.8-1.9-1.9-1.9H2.9c-1,0-1.9,0.8-1.9,1.9l0,0c0,1,0.8,1.9,1.9,1.9h3.2c0,6.3,5.7,12.6,13.2,12.6L44.7,55.1L44.7,55.1z
					"/>
				<path id="_Path_4" class="st3" d="M2.5,35.6c0-4.2,1.6-8.3,4.3-11.5"/>
				<path id="_Path_5" class="st2" d="M6.1,35.7c0-3.4,1.2-6.6,3.4-9.2c1.5-1.6,2.1-3.9,1.7-6.1c-0.4-1.1,0.3-2.4,1.4-2.7
					c0.1,0,0.1,0,0.2-0.1l3.2-0.7c1.2-0.2,2.3,0.5,2.6,1.7c0,0,0,0,0,0l0,0.2c0.5,2.1,2,3.9,4,4.8c4.5,2.3,7.6,6.8,8.1,11.9"/>
				<path id="_Path_6" class="st2" d="M12.4,17.8l-1.3-6.3c-1.4,0.2-2.7-0.9-2.8-2.3c-0.2-1.4,0.9-2.7,2.3-2.8
					c0.6-0.1,1.2,0.1,1.7,0.4C13,5.6,14.6,5.2,15.8,6s1.6,2.4,0.8,3.6c-0.3,0.5-0.9,0.9-1.5,1.1l1.3,6.3"/>
				<path id="_Path_7" class="st3" d="M51.4,16.7c3.7,2.5,8.5,5.8,9.8,16"/>
				<path id="_Path_8" class="st2" d="M22.4,22.9c6.1-8.5,14.2-2.5,22.2-7.7c3.6,6.5,13.3,4.4,13.3,23.7"/>
				<path id="_Path_9" class="st2" d="M27.7,28c4-4.5,14.4-4.5,16.4,3.2"/>
				<path id="_Path_10" class="st2" d="M53.3,35.7c0-6.2-6.1-9.9-10.6-7.3"/>
				<path id="_Path_11" class="st0" d="M21.4,26.3c-2.4-1.1-4.2-3.1-5.1-5.5c-0.2-0.6-0.9-0.9-1.5-0.6c-0.4,0.2-0.7,0.6-0.7,1.1
					c0.1,2.6-0.8,5.2-2.5,7.1c-1.8,2.1-2.7,4.7-2.7,7.4c0,0,4.7-7.3,16.1-6.7C24,27.9,22.8,27,21.4,26.3z"/>
			</g>
		</g>
	</g>
</g>
</svg>
