<?xml version="1.0" encoding="utf-8"?>
<!-- Generator: Adobe Illustrator 21.0.0, SVG Export Plug-In . SVG Version: 6.00 Build 0)  -->
<svg version="1.1" id="Layer_1" xmlns="http://www.w3.org/2000/svg" xmlns:xlink="http://www.w3.org/1999/xlink" x="0px" y="0px"
	 viewBox="0 0 64 64" style="enable-background:new 0 0 64 64;" xml:space="preserve">
<style type="text/css">
	.st0{fill:#F7CF13;}
	.st1{fill:none;stroke:#262525;stroke-width:2;stroke-linecap:round;stroke-linejoin:round;stroke-dasharray:1.000000e-02,7;}
	.st2{fill:none;stroke:#262525;stroke-width:2;stroke-linecap:round;stroke-linejoin:round;}
	.st3{fill:none;stroke:#262525;stroke-width:2;stroke-linecap:round;stroke-miterlimit:10;}
	.st4{fill:#849B3B;}
</style>
<title>Asset 9</title>
<g id="Layer_2">
	<g id="Layer_1-2">
		<g id="_Group_">
			<g id="_Group_2">
				<path id="_Path_" class="st0" d="M39.4,33c-6.6-5.6-15.8-11.7-24-9c-22.4,7.5,3.9,19.9,22,14.4c5.2-1.6,8.3,2.9,9.5-1
					C48.1,33.3,42.1,35.2,39.4,33z"/>
				<path id="_Path_2" class="st1" d="M13.1,13.1c10.5-10.5,27.4-10.5,37.9,0"/>
				<path id="_Path_3" class="st1" d="M50.9,50.9c-10.5,10.5-27.4,10.5-37.9,0"/>
				
					<ellipse id="_Ellipse_" transform="matrix(0.8486 -0.5291 0.5291 0.8486 -11.9823 21.8166)" class="st2" cx="32.1" cy="31.8" rx="31" ry="31"/>
				<path id="_Path_4" class="st3" d="M39.4,33c-6.6-5.6-15.8-11.7-24-9c-22.4,7.5,3.9,19.9,22,14.4c5.2-1.6,8.3,2.9,9.5-1
					C48.1,33.3,42.1,35.2,39.4,33z"/>
				<path id="_Path_5" class="st3" d="M13.6,27.8c0.3,0.8,0,1.6-0.8,2s-1.6,0-2-0.8l0,0"/>
				<path id="_Path_6" class="st3" d="M46.5,41.8c0.9,1.3,2.3,2.1,3.9,2.3c0.4,0,0.7,0,1.1,0l0,0c-0.1-3.8,0.8-7.6,2.6-10.9l0,0
					c-0.4-0.3-0.9-0.5-1.3-0.6c-1.5-0.4-3.2-0.2-4.6,0.6"/>
				<path id="_Path_7" class="st3" d="M14.9,24.1c0,0,5.6,4.5-0.2,13.5"/>
				<path id="_Path_8" class="st3" d="M39.8,29.6c0.6-1.6,0.1-4.3-3.4-5.7c-5-1.9-6.3-5.5-6.3-5.5c-7.4,3.5-10.6-2.6-10.6-2.6
					l-4.9,5.3"/>
				<path id="_Path_9" class="st3" d="M17.5,38.5c0,0-0.5,6.5,4.6,9.7l1.4-3.4c0,0,4.5,2.1,5.8-5.1"/>
				<path id="_Path_10" class="st3" d="M49.4,16.2c-2.7,3.4-7.7,3.9-11,1.1c-2.4-2-3.4-5.1-2.6-8.1"/>
				<path id="_Path_11" class="st4" d="M39.4,12.1c0.2,0.1,0.2,0.4,0.1,0.5c0,0-0.1,0.1-0.1,0.1c-0.6,0.3-0.7,1-0.4,1.6
					c0.2,0.3,0.5,0.5,0.8,0.6c0.7,0.1,1.3,0.5,1.8,1c0.5,0.5,1.2,0.5,1.7,0c0.2-0.2,0.4-0.6,0.3-0.9c0-0.2,0.2-0.4,0.4-0.4
					c0.1,0,0.1,0,0.1,0c0.5,0.3,1.2,0.1,1.6-0.4c0,0,0,0,0,0c0.3-0.6,0.1-1.3-0.4-1.6c-1.5-1-3.1-1.8-4.8-2.4
					c-0.5-0.3-1.2-0.1-1.5,0.4C38.7,11.1,38.8,11.8,39.4,12.1L39.4,12.1z"/>
				<path id="_Path_12" class="st3" d="M31.4,55.8c-0.5-4.3,2.7-8.1,7-8.6c3.1-0.3,6.1,1.2,7.6,3.9"/>
				<path id="_Path_13" class="st4" d="M41.3,51.6c-0.2,0-0.4-0.1-0.5-0.3c0,0,0-0.1,0-0.2c0.2-0.6-0.2-1.3-0.8-1.4
					c-0.3-0.1-0.7,0-1,0.2c-0.6,0.4-1.2,0.6-1.9,0.6c-0.6,0-1.2,0.5-1.2,1.2c0,0.3,0.1,0.7,0.4,0.9c0.1,0.2,0.1,0.4,0,0.5
					c0,0-0.1,0.1-0.1,0.1c-0.6,0.2-1,0.8-0.8,1.4c0,0,0,0,0,0c0.2,0.6,0.8,0.9,1.4,0.8c1.8-0.4,3.5-1,5.1-1.7
					c0.5-0.2,0.8-0.9,0.5-1.4c-0.2-0.4-0.6-0.6-1-0.6L41.3,51.6z"/>
			</g>
		</g>
	</g>
</g>
</svg>
