<?xml version="1.0" encoding="utf-8"?>
<!-- Generator: Adobe Illustrator 21.0.0, SVG Export Plug-In . SVG Version: 6.00 Build 0)  -->
<svg version="1.1" id="Layer_1" xmlns="http://www.w3.org/2000/svg" xmlns:xlink="http://www.w3.org/1999/xlink" x="0px" y="0px"
	 viewBox="0 0 64 58.9" style="enable-background:new 0 0 64 58.9;" xml:space="preserve">
<style type="text/css">
	.st0{fill:#FBAB1A;}
	.st1{fill:#DDDDCB;}
	.st2{fill:none;stroke:#262525;stroke-width:2;stroke-linecap:round;stroke-miterlimit:10;}
	.st3{fill:none;stroke:#262525;stroke-width:2;stroke-linecap:round;stroke-linejoin:round;stroke-dasharray:1.000000e-02,7;}
</style>
<title>Asset 12</title>
<g id="Layer_2">
	<g id="Layer_1-2">
		<g id="_Group_">
			<g id="_Group_2">
				<path id="_Path_" class="st0" d="M43.5,53.9v1.7c0,1.3-1.1,2.4-2.4,2.4H18.7c-1.3,0-2.4-1.1-2.4-2.4v-1.7"/>
				<path id="_Path_2" class="st1" d="M37.9,54h3.9c6.3,0,11.5-4.7,12.2-11c0-0.5,0-0.8,0-0.8h3c1,0,1.7-0.8,1.7-1.7l0,0
					c0-1-0.8-1.7-1.7-1.7H2.7c-1,0-1.7,0.8-1.7,1.7l0,0c0,1,0.8,1.7,1.7,1.7h3c0,0,0,0.3,0,0.8c0.7,6.3,6,11,12.3,11H37.9z"/>
				<path id="_Path_3" class="st2" d="M37.9,54h3.9c6.3,0,11.5-4.7,12.2-11c0-0.5,0-0.8,0-0.8h3c1,0,1.7-0.8,1.7-1.7l0,0
					c0-1-0.8-1.7-1.7-1.7H2.7c-1,0-1.7,0.8-1.7,1.7l0,0c0,1,0.8,1.7,1.7,1.7h3c0,0,0,0.3,0,0.8c0.7,6.3,6,11,12.3,11H37.9z"/>
				<path id="_Path_4" class="st3" d="M17.7,5.1c8.1-3.9,17.4-4.3,25-0.9c5.6,2.5,9.5,6.7,10.9,11.8"/>
				<path id="_Path_5" class="st2" d="M50.3,16.9C47.5,7,32.5,1.7,19.2,8.2c-1.8,0.8-3.4,1.9-4.8,3.2c-0.2,0.2-0.4,0.4-0.6,0.6"/>
				<path id="_Path_6" class="st2" d="M16.7,35l-8.1-0.1c-3.5,0-6.4-2.9-6.4-6.5c0-0.5,0.1-1,0.2-1.6c0.6-1.6,1.3-3.1,2.1-4.5
					l0.6,0.5c0.6,0.5,1.6,0.4,2-0.3c0-0.1,0.1-0.1,0.1-0.2c2.2-4.1,3.9-8.4,5-12.9c0,0,5.4,6.3,0,17"/>
				<path id="_Path_7" class="st2" d="M56,17.1v0.6l-15.7-2.1c-8.7-1.2-18.3,0.6-18.8,9.3C21.1,32.4,29.7,35,29.7,35"/>
				<path id="_Path_8" class="st2" d="M51.2,25.3c0,1.8-0.3,3.5-0.8,5.2c-0.4,1.5-1,3.1-1.8,4.5c-3.6-1.6-6.6-5-5.1-8.9
					c1.4-3.7,7.7-3.4,12.6-3.8v0.3c0,1.8,1.3,3.3,3,3.6c1.9,0.2,3.7-1.1,3.9-3c0.2-1.3-0.4-2.6-1.5-3.3c1.6-1.1,2-3.2,0.9-4.8
					c-1.1-1.6-3.2-2-4.8-0.9c-1,0.6-1.5,1.7-1.5,2.9c0,0,0,0,0,0.1"/>
				<path id="_Path_9" class="st0" d="M26.5,20.4c-3.2,2.7-3.6,8.9,3.6,11.8c-2.9-4.3-1.3-12,13.8-13.4
					C42.4,18.8,31.6,16.2,26.5,20.4z"/>
				<path id="_Path_10" class="st0" d="M20.5,10.7C19.2,11.3,18,12,17,12.9c0.5,2,0.7,4.1,0.5,6.2c2.5-3.4,10.1-11.4,24.9-8.1
					c-0.7-0.4-1.4-0.8-2.1-1.1C34.3,7.3,26.9,7.6,20.5,10.7z"/>
			</g>
		</g>
	</g>
</g>
</svg>
