<?xml version="1.0" encoding="utf-8"?>
<!-- Generator: Adobe Illustrator 21.0.0, SVG Export Plug-In . SVG Version: 6.00 Build 0)  -->
<svg version="1.1" id="Layer_1" xmlns="http://www.w3.org/2000/svg" xmlns:xlink="http://www.w3.org/1999/xlink" x="0px" y="0px"
	 viewBox="0 0 62.9 64" style="enable-background:new 0 0 62.9 64;" xml:space="preserve">
<style type="text/css">
	.st0{fill:#ED6954;}
	.st1{fill:none;stroke:#262525;stroke-width:2;stroke-linecap:round;stroke-miterlimit:10;}
	.st2{fill:none;stroke:#262525;stroke-width:2;stroke-linecap:round;stroke-linejoin:round;}
	.st3{fill:#FBAB1A;}
	.st4{fill:none;stroke:#262525;stroke-width:2;stroke-linecap:round;stroke-linejoin:round;stroke-dasharray:1.000000e-02,7;}
</style>
<title>Asset 13</title>
<g id="Layer_2">
	<g id="Layer_1-2">
		<g id="_Group_">
			<g id="_Group_2">
				<path id="_Rectangle_" class="st0" d="M18.5,59.3h29.4l0,0l0,0c0,2.3-1.9,4.2-4.2,4.2h-21C20.4,63.5,18.5,61.6,18.5,59.3
					L18.5,59.3L18.5,59.3z"/>
				<path id="_Path_" class="st1" d="M52,49.6h7.3c0.9,0,1.7,0.7,1.7,1.7c0,0,0,0,0,0l0,0c0,0.9-0.7,1.7-1.7,1.7c0,0,0,0,0,0h-2.9
					c0,0,0.2,6.4-8.7,6.4H18.5c-8.9,0-8.7-6.4-8.7-6.4H6.9c-0.9,0-1.7-0.7-1.7-1.7l0,0l0,0c0-0.9,0.7-1.7,1.7-1.7c0,0,0,0,0,0h7.4"
					/>
				<g id="_Group_3">
					<path id="_Path_2" class="st1" d="M14.8,42.2l-4.1-0.6c-0.3,0-0.5-0.3-0.5-0.7c0-0.1,0.1-0.2,0.1-0.3l2.5-2.8l2.5-2.8
						c0.2-0.2,0.6-0.2,0.8,0c0.1,0.1,0.1,0.2,0.2,0.3l1.1,4"/>
					<g id="_Group_4">
						<path id="_Path_3" class="st1" d="M46.3,42.6c0.7,0.6,1.2,1.4,1.4,2.3"/>
					</g>
					<g id="_Group_5">
						<path id="_Path_4" class="st1" d="M43.3,44.9c0.6,0.7,1,1.6,1,2.5"/>
					</g>
					<g id="_Group_6">
						<path id="_Path_5" class="st1" d="M40.1,46.7c0.5,0.8,0.7,1.7,0.6,2.6"/>
					</g>
					<path id="_Path_6" class="st1" d="M15.9,47.1c9.4,9.5,24.6,9.6,34.1,0.2c0.1-0.1,0.2-0.2,0.2-0.2c1.9-1.9,1.9-5-0.1-6.9
						c-0.3-0.3-0.6-0.5-1-0.8l-0.1,0c-1.9-1.1-4.4-0.8-5.9,0.8c-5.5,5.6-14.6,5.6-20.1,0.1c0,0-0.1-0.1-0.1-0.1
						c-1.5-1.6-4-2-5.9-0.8l-0.1,0c-2.3,1.3-3.2,4.3-1.8,6.7C15.4,46.5,15.6,46.8,15.9,47.1z"/>
					<path id="_Path_7" class="st1" d="M51.4,42.2l4.1-0.6c0.3,0,0.5-0.3,0.5-0.7c0-0.1-0.1-0.2-0.1-0.3l-2.5-2.8L50.8,35
						c-0.2-0.2-0.6-0.2-0.8,0c-0.1,0.1-0.1,0.2-0.2,0.3l-1.1,4"/>
					<path id="_Path_8" class="st0" d="M29.6,47.3c-3.4-0.7-6.5-2.4-8.9-4.8c-0.5-0.6-1.4-0.7-2.1-0.3h-0.1
						c-0.4,0.3-0.8,0.7-0.8,1.2c-0.1,0.5,0.1,1.1,0.5,1.4c2.4,2.5,5.3,4.3,8.6,5.3C27.5,49,28.5,48,29.6,47.3z"/>
				</g>
				<g id="_Group_7">
					<path id="_Path_9" class="st2" d="M5.3,38.5V31c0-3.7,3-6.6,6.6-6.6l0,0h2.5"/>
					<line id="_Path_10" class="st2" x1="14.4" y1="29.9" x2="14.4" y2="21"/>
					<line id="_Path_11" class="st2" x1="40.3" y1="19.8" x2="40.3" y2="36.7"/>
					<path id="_Path_12" class="st1" d="M35.2,18.4c1.1,1.7,3.2,2.3,5,1.4c1.8-0.8,3-2.6,3.1-4.6c0-2.7-2.2-4.9-4.9-4.9H38
						c-0.4-3.5-3.6-5.9-7-5.5c-2,0.2-3.7,1.4-4.7,3.1c-1.8-1.9-4.7-2-6.6-0.2c-1,0.9-1.5,2.2-1.5,3.5c0,0.1,0,0.1,0,0.2
						c-2.8-0.7-5.6,0.9-6.4,3.7c-0.1,0.4-0.2,0.9-0.2,1.4c0,1.9,1,3.7,2.7,4.6c1.7,0.8,3.7,0.2,4.7-1.3"/>
					<path id="_Path_13" class="st1" d="M26.3,7.9c0,0,2.2,2.5,0.2,4.9"/>
					<path id="_Path_14" class="st2" d="M38,10.4c-1,0.1-1.9,0.8-2.5,1.7"/>
					<path id="_Path_15" class="st3" d="M35.1,39.8V26.6c0.1-0.8-0.6-1.6-1.4-1.6c-0.8-0.1-1.6,0.6-1.6,1.4c0,0.1,0,0.2,0,0.2V40
						c0.3,0,0.7,0,1,0C33.8,40,34.5,39.9,35.1,39.8z"/>
					<path id="_Path_16" class="st3" d="M28.8,26.6c-0.1-0.8-0.8-1.5-1.6-1.4c-0.7,0.1-1.3,0.7-1.4,1.4v10.8c0.9,0.7,1.9,1.4,3,1.8
						V26.6z"/>
					<path id="_Path_17" class="st3" d="M22.5,26.6c0-0.8-0.7-1.5-1.5-1.5l0,0c-0.8,0-1.5,0.7-1.5,1.5v7.7c1,0,2.1,0.2,3,0.7
						L22.5,26.6z"/>
				</g>
				<path id="_Compound_Path_" class="st4" d="M9.8,21.2c-4.6,1-7.9,5-7.9,9.7v7.6 M43.6,21.6c1.9-1.6,3-3.9,3.1-6.3
					c0-3.7-2.5-7-6.1-8c-2.1-4.9-7.8-7.1-12.7-5c-0.8,0.3-1.6,0.8-2.3,1.4"/>
			</g>
		</g>
	</g>
</g>
</svg>
