<svg xmlns="http://www.w3.org/2000/svg" data-name="Layer 1" viewBox="0 0 128 128"><path d="M64 26.25A37.75 37.75 0 1 0 101.75 64 37.793 37.793 0 0 0 64 26.25zm0 73c-5.485 0-10.37-7.951-12.8-19.291a82.953 82.953 0 0 0 12.8.965 82.953 82.953 0 0 0 12.8-.965C74.37 91.3 69.485 99.25 64 99.25zm0-20.826a78.682 78.682 0 0 1-13.312-1.112 80.242 80.242 0 0 1 0-26.624 80.242 80.242 0 0 1 26.624 0A78.682 78.682 0 0 1 78.424 64a78.682 78.682 0 0 1-1.112 13.312A78.682 78.682 0 0 1 64 78.424zM48.041 76.8C36.7 74.37 28.75 69.485 28.75 64s7.95-10.37 19.291-12.8a85.367 85.367 0 0 0 0 25.6zM64 28.75c5.485 0 10.37 7.951 12.8 19.291a85.367 85.367 0 0 0-25.6 0C53.63 36.7 58.515 28.75 64 28.75zM79.959 51.2C91.3 53.63 99.25 58.515 99.25 64S91.3 74.37 79.959 76.8a82.952 82.952 0 0 0 .965-12.8 82.952 82.952 0 0 0-.965-12.8zm18.606 5.886c-3.737-3.838-10.529-6.888-19.082-8.57-1.682-8.552-4.732-15.344-8.57-19.082a35.35 35.35 0 0 1 27.652 27.653zM57.087 29.435c-3.838 3.738-6.888 10.529-8.57 19.082-8.553 1.682-15.344 4.732-19.082 8.57a35.35 35.35 0 0 1 27.652-27.652zM29.435 70.913c3.737 3.838 10.529 6.888 19.082 8.57 1.682 8.553 4.732 15.344 8.57 19.082a35.35 35.35 0 0 1-27.652-27.652zm41.478 27.652c3.838-3.737 6.888-10.529 8.57-19.082 8.552-1.682 15.344-4.732 19.082-8.57a35.35 35.35 0 0 1-27.652 27.652zM85.751 26.031a43.89 43.89 0 0 1 9.077 6.925 1.25 1.25 0 0 0 1.762-1.773 46.379 46.379 0 0 0-9.59-7.32 1.25 1.25 0 0 0-1.244 2.168z"/><path d="M24.346 42.671a1.248 1.248 0 0 0 1.706-.46 43.935 43.935 0 0 1 6.934-9.07 1.25 1.25 0 1 0-1.771-1.764 46.45 46.45 0 0 0-7.329 9.588 1.249 1.249 0 0 0 .46 1.706zM63.864 20.25H64a43.922 43.922 0 0 1 11.191 1.444 1.238 1.238 0 0 0 .319.041 1.25 1.25 0 0 0 .317-2.459A46.425 46.425 0 0 0 64 17.75h-.136a1.25 1.25 0 0 0 0 2.5zM21.75 75.4a1.25 1.25 0 0 0-2.414.65 46.044 46.044 0 0 0 4.641 11.15 1.25 1.25 0 0 0 2.163-1.26 43.515 43.515 0 0 1-4.39-10.54zM41.394 26.332a1.245 1.245 0 0 0 .628-.17 43.511 43.511 0 0 1 10.53-4.4 1.25 1.25 0 0 0-.652-2.412A46.026 46.026 0 0 0 40.765 24a1.25 1.25 0 0 0 .63 2.33zM20.25 64a43.947 43.947 0 0 1 1.45-11.233 1.249 1.249 0 0 0-2.416-.639A46.416 46.416 0 0 0 17.75 64v.091A1.212 1.212 0 0 0 19 65.3a1.29 1.29 0 0 0 1.25-1.3zM103.61 85.408a1.247 1.247 0 0 0-1.708.456 43.9 43.9 0 0 1-6.954 9.057 1.251 1.251 0 0 0 1.77 1.768 46.5 46.5 0 0 0 7.349-9.572 1.25 1.25 0 0 0-.457-1.709zM107.431 53.433a1.231 1.231 0 0 0 .328-.044 1.25 1.25 0 0 0 .879-1.533 45.98 45.98 0 0 0-4.663-11.132 1.25 1.25 0 1 0-2.16 1.26 43.47 43.47 0 0 1 4.411 10.526 1.25 1.25 0 0 0 1.205.923zM42.174 101.925a43.886 43.886 0 0 1-9.063-6.943 1.251 1.251 0 0 0-1.766 1.772 46.483 46.483 0 0 0 9.579 7.338 1.25 1.25 0 0 0 1.25-2.166zM110.249 63.817a1.25 1.25 0 1 0-2.5 0V64a43.847 43.847 0 0 1-1.479 11.319 1.251 1.251 0 0 0 .886 1.53 1.267 1.267 0 0 0 .323.042 1.251 1.251 0 0 0 1.207-.928 46.4 46.4 0 0 0 1.563-11.983zM85.9 101.882a43.558 43.558 0 0 1-10.54 4.38 1.25 1.25 0 1 0 .648 2.414 46.1 46.1 0 0 0 11.145-4.63 1.251 1.251 0 0 0-1.254-2.164zM64 107.75a43.861 43.861 0 0 1-11.276-1.467 1.25 1.25 0 1 0-.642 2.416A46.365 46.365 0 0 0 64 110.25h.046a1.231 1.231 0 0 0 1.227-1.25A1.27 1.27 0 0 0 64 107.75z"/></svg>