<svg xmlns="http://www.w3.org/2000/svg" data-name="Layer 1" viewBox="0 0 128 128"><path d="M103.131 53.719v-11.87A11.74 11.74 0 0 0 91.4 30.122H36.06a11.74 11.74 0 0 0-11.727 11.727v44.3A11.74 11.74 0 0 0 36.06 97.878H91.4a11.74 11.74 0 0 0 11.727-11.727V74.387c0-.034-.017-.062-.019-.095a8.321 8.321 0 0 0 3.805-6.982v-6.62a8.321 8.321 0 0 0-3.782-6.971zm-2.5 32.432a9.237 9.237 0 0 1-9.231 9.227H36.06a9.237 9.237 0 0 1-9.227-9.227v-44.3a9.237 9.237 0 0 1 9.227-9.226H91.4a9.237 9.237 0 0 1 9.227 9.226v10.776a8.29 8.29 0 0 0-2.041-.264h-9.431a8.336 8.336 0 0 0-8.327 8.326v6.621a8.336 8.336 0 0 0 8.327 8.326h9.435a8.29 8.29 0 0 0 2.041-.264zm3.786-18.841a5.833 5.833 0 0 1-5.827 5.826h-9.435a5.833 5.833 0 0 1-5.827-5.826v-6.62a5.833 5.833 0 0 1 5.827-5.826h9.435a5.833 5.833 0 0 1 5.827 5.826z"/><path d="M72.237 53.659a1.25 1.25 0 1 0 2.5 0 11.017 11.017 0 0 0-9.755-10.929v-2.124a1.25 1.25 0 1 0-2.5 0v2.124a11 11 0 0 0 0 21.858v16.986a8.511 8.511 0 0 1-7.256-8.4 1.25 1.25 0 1 0-2.5 0A11.018 11.018 0 0 0 62.482 84.1v3.293a1.25 1.25 0 1 0 2.5 0V84.1a11 11 0 0 0 0-21.859V45.257a8.511 8.511 0 0 1 7.255 8.402zm-17.011 0a8.511 8.511 0 0 1 7.256-8.4v16.804a8.511 8.511 0 0 1-7.255-8.404zm17.011 19.512a8.511 8.511 0 0 1-7.255 8.4V64.768a8.511 8.511 0 0 1 7.255 8.403z"/></svg>