<svg id="Layer_1" data-name="Layer 1" xmlns="http://www.w3.org/2000/svg" viewBox="0 0 128 128"><title>SUITCASE</title><path d="M84.254,43.7H74.671V19.926h.585a1.25,1.25,0,0,0,0-2.5H52.744a1.25,1.25,0,0,0,0,2.5h.585V43.7H43.746A6.753,6.753,0,0,0,37,50.445V97.967a6.753,6.753,0,0,0,6.746,6.746h.721v1.681a4.181,4.181,0,1,0,8.362,0v-1.681H75.171v1.681a4.181,4.181,0,1,0,8.362,0v-1.681h.721A6.753,6.753,0,0,0,91,97.967V50.445A6.753,6.753,0,0,0,84.254,43.7Zm-3.221,2.5v56.013H77.671V46.2Zm-25.2-26.273H72.171V43.7H55.829ZM50.329,46.2v56.013H46.967V46.2Zm-6.583,56.013A4.251,4.251,0,0,1,39.5,97.967V50.445A4.251,4.251,0,0,1,43.746,46.2h.721v56.013Zm6.583,4.181a1.681,1.681,0,1,1-3.362,0v-1.681h3.362Zm2.5-4.181V46.2H75.171v56.013Zm28.2,4.181a1.681,1.681,0,1,1-3.362,0v-1.681h3.362ZM88.5,97.967a4.251,4.251,0,0,1-4.246,4.246h-.721V46.2h.721A4.251,4.251,0,0,1,88.5,50.445Z"/></svg>