<svg xmlns="http://www.w3.org/2000/svg" data-name="Layer 1" viewBox="0 0 128 128"><path d="M90.764 22.107H37.236a9.455 9.455 0 0 0-9.445 9.445v64.9a9.455 9.455 0 0 0 9.445 9.445h53.528a9.455 9.455 0 0 0 9.445-9.445v-64.9a9.455 9.455 0 0 0-9.445-9.445zm6.945 74.34a6.952 6.952 0 0 1-6.945 6.945H37.236a6.952 6.952 0 0 1-6.945-6.945v-64.9a6.952 6.952 0 0 1 6.945-6.945h53.528a6.952 6.952 0 0 1 6.945 6.945z"/><path d="M64 33.056a23.586 23.586 0 1 0 23.586 23.586A23.612 23.612 0 0 0 64 33.056zm20.311 18a25.788 25.788 0 0 0-10.434-4.29 25.788 25.788 0 0 0-4.29-10.434 21.135 21.135 0 0 1 14.724 14.723zM64 77.728c-2.72 0-5.652-4.116-7.213-10.743a52.42 52.42 0 0 0 14.426 0C69.652 73.612 66.72 77.728 64 77.728zm0-12.745a47.548 47.548 0 0 1-7.723-.618 48.56 48.56 0 0 1 0-15.446 48.56 48.56 0 0 1 15.446 0 48.56 48.56 0 0 1 0 15.446 47.548 47.548 0 0 1-7.723.618zm-10.343-1.128c-6.627-1.56-10.743-4.493-10.743-7.213s4.116-5.652 10.743-7.213a52.42 52.42 0 0 0 0 14.426zM64 35.556c2.72 0 5.652 4.116 7.213 10.743a52.42 52.42 0 0 0-14.426 0C58.348 39.673 61.28 35.556 64 35.556zm10.343 13.873c6.627 1.56 10.743 4.493 10.743 7.213s-4.116 5.652-10.743 7.213a52.42 52.42 0 0 0 0-14.426zm-15.93-13.1a25.788 25.788 0 0 0-4.29 10.434 25.788 25.788 0 0 0-10.434 4.29 21.135 21.135 0 0 1 14.724-14.722zm-14.723 25.9a25.786 25.786 0 0 0 10.434 4.29 25.788 25.788 0 0 0 4.29 10.434 21.135 21.135 0 0 1-14.725-14.724zm25.9 14.724a25.788 25.788 0 0 0 4.29-10.434 25.786 25.786 0 0 0 10.434-4.29 21.135 21.135 0 0 1-14.727 14.724zM86.336 87.714H41.664a1.25 1.25 0 1 0 0 2.5h44.672a1.25 1.25 0 1 0 0-2.5zM75.759 93.495H52.241a1.25 1.25 0 1 0 0 2.5h23.518a1.25 1.25 0 0 0 0-2.5z"/></svg>