<svg id="Layer_1" data-name="Layer 1" xmlns="http://www.w3.org/2000/svg" viewBox="0 0 128 128"><title>CAMERA</title><path d="M105.51,54.82l-18.9-26.986A6.843,6.843,0,0,0,77.1,26.155L65.936,33.97l-3.275-2.983a5.362,5.362,0,0,0-6.723-.431L35.331,44.986a5.36,5.36,0,0,0-1.9,6.465l1.683,4.1-11.16,7.815a6.842,6.842,0,0,0-1.678,9.518l18.9,26.985a6.841,6.841,0,0,0,9.518,1.68l53.138-37.208a6.833,6.833,0,0,0,1.678-9.518ZM35.749,50.5a2.873,2.873,0,0,1,1.016-3.467L57.373,32.6a2.876,2.876,0,0,1,3.605.23l2.859,2.6-26.62,18.64Zm68.432,8.99a4.3,4.3,0,0,1-1.782,2.8L49.26,99.5a4.336,4.336,0,0,1-6.036-1.065l-18.9-26.985a4.34,4.34,0,0,1,1.064-6.036L78.53,28.2a4.336,4.336,0,0,1,6.036,1.064l18.9,26.986A4.307,4.307,0,0,1,104.18,59.492Z"/><path d="M54.048,49.787A17.168,17.168,0,1,0,77.958,54,17.059,17.059,0,0,0,54.048,49.787Zm18.26,26.078a14.663,14.663,0,1,1,3.6-20.428A14.686,14.686,0,0,1,72.309,75.865Z"/><path d="M57.178,54.258a11.711,11.711,0,1,0,16.31,2.876A11.724,11.724,0,0,0,57.178,54.258ZM72.966,65.45a9.207,9.207,0,1,1-1.526-6.883A9.148,9.148,0,0,1,72.966,65.45Z"/></svg>