<svg xmlns="http://www.w3.org/2000/svg" data-name="Layer 1" viewBox="0 0 128 128"><path d="M108 59.33h-4.978V30.438a7.844 7.844 0 00-7.835-7.838H32.812a7.844 7.844 0 00-7.835 7.834V59.33H20a1.25 1.25 0 000 2.5h4.977v25.035a7.838 7.838 0 007.393 7.812v2.836a7.884 7.884 0 1015.768 0V94.7h31.681v2.813a7.884 7.884 0 1015.768 0v-2.834a7.838 7.838 0 007.436-7.814V61.83H108a1.25 1.25 0 000-2.5zM27.477 36.149h73.045v28.886H27.477zM32.812 25.1h62.375a5.341 5.341 0 015.335 5.334v3.211H27.477v-3.207a5.341 5.341 0 015.335-5.338zm12.826 72.413a5.384 5.384 0 11-10.768 0V94.7h10.768zm47.449 0a5.384 5.384 0 11-10.768 0V94.7h10.768zm2.1-5.313H32.812a5.341 5.341 0 01-5.335-5.335v-19.33h73.045v19.33a5.341 5.341 0 01-5.335 5.335z"/><path d="M42.81 71.76a7.086 7.086 0 107.09 7.086 7.094 7.094 0 00-7.09-7.086zm0 11.672a4.586 4.586 0 114.59-4.586 4.592 4.592 0 01-4.59 4.587zM85.19 71.76a7.086 7.086 0 107.086 7.086 7.094 7.094 0 00-7.086-7.086zm0 11.672a4.586 4.586 0 114.586-4.586 4.592 4.592 0 01-4.586 4.587zM57.643 30.9h12.714a1.25 1.25 0 000-2.5H57.643a1.25 1.25 0 000 2.5z"/></svg>