<svg id="Layer_1" data-name="Layer 1" xmlns="http://www.w3.org/2000/svg" viewBox="0 0 128 128"><title>CAR</title><path d="M95.54,53.1V49.183h5.73a1.25,1.25,0,0,0,0-2.5H95.54V40.69a13.118,13.118,0,0,0-13.1-13.1H45.562a13.118,13.118,0,0,0-13.1,13.1v5.993H26.729a1.25,1.25,0,0,0,0,2.5H32.46V53.1A17.611,17.611,0,0,0,18.5,70.3V81.7a6.187,6.187,0,0,0,6.18,6.18h2.513v3.509a9.02,9.02,0,1,0,18.04,0V87.884H82.768v3.509a9.02,9.02,0,1,0,18.04,0V87.884h2.513a6.187,6.187,0,0,0,6.18-6.18V70.3A17.611,17.611,0,0,0,95.54,53.1Zm-60.58-.38V40.69a10.614,10.614,0,0,1,10.6-10.6H82.437a10.614,10.614,0,0,1,10.6,10.6V52.717Zm7.772,38.676a6.52,6.52,0,1,1-13.04,0V87.884h13.04Zm55.575,0a6.52,6.52,0,1,1-13.04,0V87.884h13.04ZM107,81.7a3.684,3.684,0,0,1-3.68,3.68H24.68A3.684,3.684,0,0,1,21,81.7V70.3A15.1,15.1,0,0,1,36.084,55.217H91.916A15.1,15.1,0,0,1,107,70.3Z"/><path d="M40.251,66.306A7.791,7.791,0,1,0,48.042,74.1,7.8,7.8,0,0,0,40.251,66.306Zm0,13.082A5.291,5.291,0,1,1,45.542,74.1,5.3,5.3,0,0,1,40.251,79.388Z"/><path d="M87.749,66.306A7.791,7.791,0,1,0,95.54,74.1,7.8,7.8,0,0,0,87.749,66.306Zm0,13.082A5.291,5.291,0,1,1,93.04,74.1,5.3,5.3,0,0,1,87.749,79.388Z"/></svg>