<svg id="Layer_1" data-name="Layer 1" xmlns="http://www.w3.org/2000/svg" viewBox="0 0 128 128"><title>PASSPORT </title><path d="M90.764,22.107H37.236a9.455,9.455,0,0,0-9.445,9.445v64.9a9.455,9.455,0,0,0,9.445,9.445H90.764a9.455,9.455,0,0,0,9.445-9.445v-64.9A9.455,9.455,0,0,0,90.764,22.107Zm6.945,74.34a6.952,6.952,0,0,1-6.945,6.945H37.236a6.952,6.952,0,0,1-6.945-6.945v-64.9a6.952,6.952,0,0,1,6.945-6.945H90.764a6.952,6.952,0,0,1,6.945,6.945Z"/><path d="M64,33.056A23.586,23.586,0,1,0,87.586,56.642,23.612,23.612,0,0,0,64,33.056Zm20.311,18a25.788,25.788,0,0,0-10.434-4.29,25.788,25.788,0,0,0-4.29-10.434A21.135,21.135,0,0,1,84.311,51.055ZM64,77.728c-2.72,0-5.652-4.116-7.213-10.743a52.42,52.42,0,0,0,14.426,0C69.652,73.612,66.72,77.728,64,77.728Zm0-12.745a47.548,47.548,0,0,1-7.723-.618,48.56,48.56,0,0,1,0-15.446,48.56,48.56,0,0,1,15.446,0,48.56,48.56,0,0,1,0,15.446A47.548,47.548,0,0,1,64,64.983ZM53.657,63.855c-6.627-1.56-10.743-4.493-10.743-7.213s4.116-5.652,10.743-7.213a52.42,52.42,0,0,0,0,14.426ZM64,35.556c2.72,0,5.652,4.116,7.213,10.743a52.42,52.42,0,0,0-14.426,0C58.348,39.673,61.28,35.556,64,35.556ZM74.343,49.429c6.627,1.56,10.743,4.493,10.743,7.213s-4.116,5.652-10.743,7.213a52.42,52.42,0,0,0,0-14.426Zm-15.93-13.1a25.788,25.788,0,0,0-4.29,10.434,25.788,25.788,0,0,0-10.434,4.29A21.135,21.135,0,0,1,58.413,36.331Zm-14.723,25.9a25.786,25.786,0,0,0,10.434,4.29,25.788,25.788,0,0,0,4.29,10.434A21.135,21.135,0,0,1,43.689,62.229Zm25.9,14.724a25.788,25.788,0,0,0,4.29-10.434,25.786,25.786,0,0,0,10.434-4.29A21.135,21.135,0,0,1,69.587,76.953Z"/><path d="M86.336,87.714H41.664a1.25,1.25,0,1,0,0,2.5H86.336a1.25,1.25,0,1,0,0-2.5Z"/><path d="M75.759,93.495H52.241a1.25,1.25,0,1,0,0,2.5H75.759a1.25,1.25,0,0,0,0-2.5Z"/></svg>