<svg id="Layer_1" data-name="Layer 1" xmlns="http://www.w3.org/2000/svg" viewBox="0 0 128 128"><title>BUS</title><path d="M108,59.33h-4.978V30.438A7.844,7.844,0,0,0,95.187,22.6H32.812a7.844,7.844,0,0,0-7.835,7.834V59.33H20a1.25,1.25,0,0,0,0,2.5h4.977V86.865a7.838,7.838,0,0,0,7.393,7.812v2.836a7.884,7.884,0,1,0,15.768,0V94.7H79.819v2.813a7.884,7.884,0,1,0,15.768,0V94.679a7.838,7.838,0,0,0,7.436-7.814V61.83H108a1.25,1.25,0,0,0,0-2.5ZM27.477,36.149h73.045V65.035H27.477ZM32.812,25.1H95.187a5.341,5.341,0,0,1,5.335,5.334v3.211H27.477V30.438A5.341,5.341,0,0,1,32.812,25.1ZM45.638,97.513a5.384,5.384,0,1,1-10.768,0V94.7H45.638Zm47.449,0a5.384,5.384,0,1,1-10.768,0V94.7H93.087Zm2.1-5.313H32.812a5.341,5.341,0,0,1-5.335-5.335V67.535h73.045V86.865A5.341,5.341,0,0,1,95.187,92.2Z"/><path d="M42.81,71.76A7.086,7.086,0,1,0,49.9,78.846,7.094,7.094,0,0,0,42.81,71.76Zm0,11.672A4.586,4.586,0,1,1,47.4,78.846,4.592,4.592,0,0,1,42.81,83.433Z"/><path d="M85.19,71.76a7.086,7.086,0,1,0,7.086,7.086A7.094,7.094,0,0,0,85.19,71.76Zm0,11.672a4.586,4.586,0,1,1,4.586-4.586A4.592,4.592,0,0,1,85.19,83.433Z"/><path d="M57.643,30.9H70.357a1.25,1.25,0,0,0,0-2.5H57.643a1.25,1.25,0,0,0,0,2.5Z"/></svg>