<svg id="Layer_1" data-name="Layer 1" xmlns="http://www.w3.org/2000/svg" viewBox="0 0 128 128"><title>HOTEL</title><path d="M57.314,40.184h-5.9a2.685,2.685,0,0,0-2.682,2.682v5.9a2.685,2.685,0,0,0,2.682,2.682h5.9A2.685,2.685,0,0,0,60,48.768v-5.9A2.685,2.685,0,0,0,57.314,40.184Zm.182,8.584a.182.182,0,0,1-.182.182h-5.9a.182.182,0,0,1-.182-.182v-5.9a.182.182,0,0,1,.182-.182h5.9a.182.182,0,0,1,.182.182Z"/><path d="M57.314,55.546h-5.9a2.685,2.685,0,0,0-2.682,2.682v5.9a2.685,2.685,0,0,0,2.682,2.682h5.9A2.685,2.685,0,0,0,60,64.13v-5.9A2.685,2.685,0,0,0,57.314,55.546ZM57.5,64.13a.182.182,0,0,1-.182.182h-5.9a.182.182,0,0,1-.182-.182v-5.9a.182.182,0,0,1,.182-.182h5.9a.182.182,0,0,1,.182.182Z"/><path d="M57.314,70.908h-5.9A2.685,2.685,0,0,0,48.73,73.59v5.9a2.685,2.685,0,0,0,2.682,2.682h5.9A2.685,2.685,0,0,0,60,79.492v-5.9A2.685,2.685,0,0,0,57.314,70.908Zm.182,8.584a.182.182,0,0,1-.182.182h-5.9a.182.182,0,0,1-.182-.182v-5.9a.182.182,0,0,1,.182-.182h5.9a.182.182,0,0,1,.182.182Z"/><path d="M77.1,40.184H71.2a2.685,2.685,0,0,0-2.682,2.682v5.9A2.685,2.685,0,0,0,71.2,51.45h5.9a2.685,2.685,0,0,0,2.682-2.682v-5.9A2.685,2.685,0,0,0,77.1,40.184Zm.182,8.584a.182.182,0,0,1-.182.182H71.2a.182.182,0,0,1-.182-.182v-5.9a.182.182,0,0,1,.182-.182h5.9a.182.182,0,0,1,.182.182Z"/><path d="M77.1,55.546H71.2a2.685,2.685,0,0,0-2.682,2.682v5.9A2.685,2.685,0,0,0,71.2,66.812h5.9a2.685,2.685,0,0,0,2.682-2.682v-5.9A2.685,2.685,0,0,0,77.1,55.546Zm.182,8.584a.182.182,0,0,1-.182.182H71.2a.182.182,0,0,1-.182-.182v-5.9a.182.182,0,0,1,.182-.182h5.9a.182.182,0,0,1,.182.182Z"/><path d="M77.1,70.908H71.2a2.685,2.685,0,0,0-2.682,2.682v5.9A2.685,2.685,0,0,0,71.2,82.174h5.9a2.685,2.685,0,0,0,2.682-2.682v-5.9A2.685,2.685,0,0,0,77.1,70.908Zm.182,8.584a.182.182,0,0,1-.182.182H71.2a.182.182,0,0,1-.182-.182v-5.9a.182.182,0,0,1,.182-.182h5.9a.182.182,0,0,1,.182.182Z"/><path d="M102.831,104.67H97.887V96.694a8.28,8.28,0,1,0-2.5,0v7.976H87.8V36.609h2.135a4.456,4.456,0,0,0,4.451-4.451V25.28a4.456,4.456,0,0,0-4.451-4.451H38.578a4.456,4.456,0,0,0-4.451,4.451v6.878a4.456,4.456,0,0,0,4.451,4.451h2.135V104.67h-8.1V96.694a8.28,8.28,0,1,0-2.5,0v7.976H25.684a1.25,1.25,0,0,0,0,2.5h77.146a1.25,1.25,0,1,0,0-2.5ZM90.856,88.519a5.78,5.78,0,1,1,5.78,5.78A5.787,5.787,0,0,1,90.856,88.519Zm-65.273,0a5.78,5.78,0,1,1,5.78,5.78A5.787,5.787,0,0,1,25.584,88.519Zm11.044-56.36V25.28a1.953,1.953,0,0,1,1.951-1.951H89.937a1.953,1.953,0,0,1,1.951,1.951v6.878a1.953,1.953,0,0,1-1.951,1.951H38.578A1.953,1.953,0,0,1,36.627,32.158ZM58.391,104.67V90.992a2.485,2.485,0,0,1,2.482-2.482h6.77a2.485,2.485,0,0,1,2.482,2.482V104.67Zm14.233,0V90.992a4.987,4.987,0,0,0-4.982-4.982h-6.77a4.988,4.988,0,0,0-4.982,4.982V104.67H43.213V36.609H85.3V104.67Z"/></svg>