<svg xmlns="http://www.w3.org/2000/svg" data-name="Layer 1" viewBox="0 0 128 128"><path d="M111.33 92.551a59.817 59.817 0 00-20.093-5.629l4.557-18.913a1.251 1.251 0 00-.587-1.374l-5.766-3.351V47.576a7.451 7.451 0 00-6.039-7.3V38.43a5.341 5.341 0 00-5.334-5.33H50.237a5.341 5.341 0 00-5.337 5.33v1.819a7.447 7.447 0 00-6.191 7.328v15.707l-5.766 3.351a1.251 1.251 0 00-.587 1.374l5.781 23.981a79.839 79.839 0 01-20.249-4.625 1.25 1.25 0 00-.958 2.309 80.227 80.227 0 0022.134 4.972c.419.014 1.232.145 1.318.1 1.723.117 3.5.186 5.336.186a68.251 68.251 0 0018.871-2.585c.021-.008.043-.01.064-.019.542-.157 1.084-.306 1.628-.48a61.645 61.645 0 0143.876 2.91 1.25 1.25 0 001.173-2.208zM47.4 38.43a2.838 2.838 0 012.837-2.83h27.83a2.838 2.838 0 012.833 2.83v1.705H47.4zm-6.191 9.147a4.947 4.947 0 014.941-4.941H82a4.947 4.947 0 014.941 4.941v14.254L64.7 48.906c-.03-.017-.063-.025-.094-.039s-.069-.03-.105-.044a1.247 1.247 0 00-.428-.086h-.005a1.251 1.251 0 00-.425.087c-.036.013-.07.027-.1.043s-.063.022-.093.039L41.211 61.831zm-.45 44.623l-5.752-23.872 27.823-16.17.07 38.072a68.109 68.109 0 01-22.141 1.97zm24.762-2.736l-.121.036-.07-37.337 27.816 16.165-4.425 18.366a61.934 61.934 0 00-23.199 2.774z"/></svg>