<svg xmlns="http://www.w3.org/2000/svg" data-name="Layer 1" viewBox="0 0 128 128"><path d="M84.254 43.7h-9.583V19.926h.585a1.25 1.25 0 0 0 0-2.5H52.744a1.25 1.25 0 0 0 0 2.5h.585V43.7h-9.583A6.753 6.753 0 0 0 37 50.445v47.522a6.753 6.753 0 0 0 6.746 6.746h.721v1.681a4.181 4.181 0 1 0 8.362 0v-1.681h22.342v1.681a4.181 4.181 0 1 0 8.362 0v-1.681h.721A6.753 6.753 0 0 0 91 97.967V50.445a6.753 6.753 0 0 0-6.746-6.745zm-3.221 2.5v56.013h-3.362V46.2zm-25.2-26.273h16.338V43.7H55.829zM50.329 46.2v56.013h-3.362V46.2zm-6.583 56.013a4.251 4.251 0 0 1-4.246-4.246V50.445a4.251 4.251 0 0 1 4.246-4.245h.721v56.013zm6.583 4.181a1.681 1.681 0 1 1-3.362 0v-1.681h3.362zm2.5-4.181V46.2h22.342v56.013zm28.2 4.181a1.681 1.681 0 1 1-3.362 0v-1.681h3.362zm7.471-8.427a4.251 4.251 0 0 1-4.246 4.246h-.721V46.2h.721a4.251 4.251 0 0 1 4.246 4.245z"/></svg>