<svg id="Layer_1" data-name="Layer 1" xmlns="http://www.w3.org/2000/svg" viewBox="0 0 128 128"><title>WALLET</title><path d="M103.131,53.719V41.849A11.74,11.74,0,0,0,91.4,30.122H36.06A11.74,11.74,0,0,0,24.333,41.849v44.3A11.74,11.74,0,0,0,36.06,97.878H91.4a11.74,11.74,0,0,0,11.727-11.727V74.387c0-.034-.017-.062-.019-.095a8.321,8.321,0,0,0,3.805-6.982V60.69A8.321,8.321,0,0,0,103.131,53.719Zm-2.5,32.432A9.237,9.237,0,0,1,91.4,95.378H36.06a9.237,9.237,0,0,1-9.227-9.227v-44.3a9.237,9.237,0,0,1,9.227-9.226H91.4a9.237,9.237,0,0,1,9.227,9.226V52.627a8.29,8.29,0,0,0-2.041-.264H89.155a8.336,8.336,0,0,0-8.327,8.326v6.621a8.336,8.336,0,0,0,8.327,8.326H98.59a8.29,8.29,0,0,0,2.041-.264Zm3.786-18.841a5.833,5.833,0,0,1-5.827,5.826H89.155a5.833,5.833,0,0,1-5.827-5.826V60.69a5.833,5.833,0,0,1,5.827-5.826H98.59a5.833,5.833,0,0,1,5.827,5.826Z"/><path d="M72.237,53.659a1.25,1.25,0,1,0,2.5,0,11.017,11.017,0,0,0-9.755-10.929V40.606a1.25,1.25,0,1,0-2.5,0v2.124a11,11,0,0,0,0,21.858V81.574a8.511,8.511,0,0,1-7.256-8.4,1.25,1.25,0,1,0-2.5,0A11.018,11.018,0,0,0,62.482,84.1v3.293a1.25,1.25,0,1,0,2.5,0V84.1a11,11,0,0,0,0-21.859V45.257A8.511,8.511,0,0,1,72.237,53.659Zm-17.011,0a8.511,8.511,0,0,1,7.256-8.4V62.063A8.511,8.511,0,0,1,55.227,53.659ZM72.237,73.171a8.511,8.511,0,0,1-7.255,8.4V64.768A8.511,8.511,0,0,1,72.237,73.171Z"/></svg>