<svg id="Layer_1" data-name="Layer 1" xmlns="http://www.w3.org/2000/svg" viewBox="0 0 128 128"><title>AIRPLANE</title><path d="M109.838,77.954,71.655,49.663l.835-22.538a8.5,8.5,0,1,0-17,.046l.834,22.507L18.162,77.954a1.25,1.25,0,0,0-.506,1v5.666a1.25,1.25,0,0,0,1.567,1.209l38.069-10,.66,17.824-12.374,9.169a1.25,1.25,0,0,0-.506,1V105.7a1.25,1.25,0,0,0,1.567,1.209l11.69-3.072,0,.086a5.66,5.66,0,0,0,11.312,0l0-.069,11.624,3.055A1.25,1.25,0,0,0,82.84,105.7v-1.873a1.25,1.25,0,0,0-.506-1L70.024,93.7l.662-17.877,38.09,10.009a1.25,1.25,0,0,0,1.567-1.209V78.959A1.25,1.25,0,0,0,109.838,77.954ZM20.156,83V79.588l36.28-26.881L57.2,73.271Zm28.2,20.869,9.7-7.19.17,4.6Zm15.628,3a3.15,3.15,0,0,1-3.158-3.043L57.989,27.125a6,6,0,0,1,12-.046l-2.843,76.753A3.15,3.15,0,0,1,63.989,106.875Zm15.561-3L69.743,101.3l.169-4.565ZM107.844,83,70.781,73.265l.762-20.574,36.3,26.9Z"/><path d="M68.433,24.9a6.042,6.042,0,0,0-4.742-2.262A6.267,6.267,0,0,0,59.435,25a1.25,1.25,0,0,0,2,1.5,3.8,3.8,0,0,1,2.388-1.369A3.685,3.685,0,0,1,66.6,26.6a1.25,1.25,0,0,0,1.83-1.7Z"/></svg>