<svg id="Layer_1" data-name="Layer 1" xmlns="http://www.w3.org/2000/svg" viewBox="0 0 128 128"><title>ARROW</title><path d="M112.155,52.952l-10.541-9.187a1.251,1.251,0,0,0-.821-.308h-30.7V23.31a6.095,6.095,0,1,0-12.189,0v1.775h-30.7a1.251,1.251,0,0,0-.821.308L15.845,34.579a1.25,1.25,0,0,0,0,1.885L26.386,45.65a1.251,1.251,0,0,0,.821.308h30.7v63.577a1.25,1.25,0,0,0,1.25,1.25h9.689a1.25,1.25,0,0,0,1.25-1.25V64.33h30.7a1.251,1.251,0,0,0,.821-.308l10.541-9.186a1.25,1.25,0,0,0,0-1.885ZM27.676,43.458l-9.107-7.936,9.107-7.937H57.905V43.458Zm39.919,64.827H60.405V23.31a3.595,3.595,0,1,1,7.189,0ZM100.324,61.83H70.095V45.958h30.229l9.106,7.937Z"/></svg>