<svg id="Layer_1" data-name="Layer 1" xmlns="http://www.w3.org/2000/svg" viewBox="0 0 128 128"><title>WORLD WIDE</title><path d="M64,26.25A37.75,37.75,0,1,0,101.75,64,37.793,37.793,0,0,0,64,26.25Zm0,73c-5.485,0-10.37-7.951-12.8-19.291a82.953,82.953,0,0,0,12.8.965,82.953,82.953,0,0,0,12.8-.965C74.37,91.3,69.485,99.25,64,99.25Zm0-20.826a78.682,78.682,0,0,1-13.312-1.112,80.242,80.242,0,0,1,0-26.624,80.242,80.242,0,0,1,26.624,0A78.682,78.682,0,0,1,78.424,64a78.682,78.682,0,0,1-1.112,13.312A78.682,78.682,0,0,1,64,78.424ZM48.041,76.8C36.7,74.37,28.75,69.485,28.75,64S36.7,53.63,48.041,51.2a85.367,85.367,0,0,0,0,25.6ZM64,28.75c5.485,0,10.37,7.951,12.8,19.291a85.367,85.367,0,0,0-25.6,0C53.63,36.7,58.515,28.75,64,28.75ZM79.959,51.2C91.3,53.63,99.25,58.515,99.25,64S91.3,74.37,79.959,76.8A82.952,82.952,0,0,0,80.924,64,82.952,82.952,0,0,0,79.959,51.2Zm18.606,5.886c-3.737-3.838-10.529-6.888-19.082-8.57-1.682-8.552-4.732-15.344-8.57-19.082A35.35,35.35,0,0,1,98.565,57.087ZM57.087,29.435c-3.838,3.738-6.888,10.529-8.57,19.082-8.553,1.682-15.344,4.732-19.082,8.57A35.35,35.35,0,0,1,57.087,29.435ZM29.435,70.913c3.737,3.838,10.529,6.888,19.082,8.57,1.682,8.553,4.732,15.344,8.57,19.082A35.35,35.35,0,0,1,29.435,70.913ZM70.913,98.565c3.838-3.737,6.888-10.529,8.57-19.082,8.552-1.682,15.344-4.732,19.082-8.57A35.35,35.35,0,0,1,70.913,98.565Z"/><path d="M85.751,26.031a43.89,43.89,0,0,1,9.077,6.925,1.25,1.25,0,0,0,1.762-1.773A46.379,46.379,0,0,0,87,23.863a1.25,1.25,0,0,0-1.244,2.168Z"/><path d="M24.346,42.671a1.248,1.248,0,0,0,1.706-.46,43.935,43.935,0,0,1,6.934-9.07,1.25,1.25,0,1,0-1.771-1.764,46.45,46.45,0,0,0-7.329,9.588A1.249,1.249,0,0,0,24.346,42.671Z"/><path d="M63.864,20.25H64a43.922,43.922,0,0,1,11.191,1.444,1.238,1.238,0,0,0,.319.041,1.25,1.25,0,0,0,.317-2.459A46.425,46.425,0,0,0,64,17.75h-.136a1.25,1.25,0,0,0,0,2.5Z"/><path d="M21.75,75.4a1.25,1.25,0,0,0-2.414.65A46.044,46.044,0,0,0,23.977,87.2,1.25,1.25,0,0,0,26.14,85.94,43.515,43.515,0,0,1,21.75,75.4Z"/><path d="M41.394,26.332a1.245,1.245,0,0,0,.628-.17,43.511,43.511,0,0,1,10.53-4.4A1.25,1.25,0,0,0,51.9,19.35,46.026,46.026,0,0,0,40.765,24a1.25,1.25,0,0,0,.63,2.33Z"/><path d="M20.25,64A43.947,43.947,0,0,1,21.7,52.767a1.249,1.249,0,0,0-2.416-.639A46.416,46.416,0,0,0,17.75,64v.091A1.212,1.212,0,0,0,19,65.3,1.29,1.29,0,0,0,20.25,64Z"/><path d="M103.61,85.408a1.247,1.247,0,0,0-1.708.456,43.9,43.9,0,0,1-6.954,9.057,1.251,1.251,0,0,0,1.77,1.768,46.5,46.5,0,0,0,7.349-9.572A1.25,1.25,0,0,0,103.61,85.408Z"/><path d="M107.431,53.433a1.231,1.231,0,0,0,.328-.044,1.25,1.25,0,0,0,.879-1.533,45.98,45.98,0,0,0-4.663-11.132,1.25,1.25,0,1,0-2.16,1.26,43.47,43.47,0,0,1,4.411,10.526A1.25,1.25,0,0,0,107.431,53.433Z"/><path d="M42.174,101.925a43.886,43.886,0,0,1-9.063-6.943,1.251,1.251,0,0,0-1.766,1.772,46.483,46.483,0,0,0,9.579,7.338,1.25,1.25,0,0,0,1.25-2.166Z"/><path d="M110.249,63.817a1.25,1.25,0,1,0-2.5,0V64a43.847,43.847,0,0,1-1.479,11.319,1.251,1.251,0,0,0,.886,1.53,1.267,1.267,0,0,0,.323.042,1.251,1.251,0,0,0,1.207-.928,46.4,46.4,0,0,0,1.563-11.983Z"/><path d="M85.9,101.882a43.558,43.558,0,0,1-10.54,4.38,1.25,1.25,0,1,0,.648,2.414,46.1,46.1,0,0,0,11.145-4.63,1.251,1.251,0,0,0-1.254-2.164Z"/><path d="M64,107.75a43.861,43.861,0,0,1-11.276-1.467,1.25,1.25,0,1,0-.642,2.416A46.365,46.365,0,0,0,64,110.25h.046A1.231,1.231,0,0,0,65.273,109,1.27,1.27,0,0,0,64,107.75Z"/></svg>