<svg id="Layer_1" data-name="Layer 1" xmlns="http://www.w3.org/2000/svg" viewBox="0 0 128 128"><title>CREDIT CARD</title><path d="M106.258,52.868,88.914,28.1a9.725,9.725,0,0,0-13.543-2.389L24.132,61.59a9.723,9.723,0,0,0-2.389,13.542L39.087,99.9a9.733,9.733,0,0,0,13.542,2.388l51.24-35.878h0A9.736,9.736,0,0,0,106.258,52.868ZM24.509,74.722,87.583,30.558l4.8,6.855L29.308,81.577ZM22.595,68.3a7.172,7.172,0,0,1,2.971-4.662L76.8,27.76a7.172,7.172,0,0,1,4.129-1.309,7.265,7.265,0,0,1,1.269.111,7.164,7.164,0,0,1,3.852,2.012L23.167,72.609A7.166,7.166,0,0,1,22.595,68.3Zm79.841-3.937h0L51.2,100.24a7.232,7.232,0,0,1-10.06-1.772L30.742,83.626,93.816,39.46,104.209,54.3A7.233,7.233,0,0,1,102.435,64.363Z"/><path d="M97.125,53.629a2.747,2.747,0,0,0-3.818-.674l-9.023,6.318a2.741,2.741,0,0,0-.674,3.819l3.054,4.361a2.726,2.726,0,0,0,1.77,1.129,2.786,2.786,0,0,0,.482.042,2.72,2.72,0,0,0,1.566-.5l9.023-6.318h0a2.741,2.741,0,0,0,.674-3.818Zm.947,6.133-9.023,6.319a.244.244,0,0,1-.181.039.236.236,0,0,1-.156-.1l-3.055-4.362a.241.241,0,0,1,.06-.336L94.74,55a.244.244,0,0,1,.139-.043.24.24,0,0,1,.2.1l3.055,4.362A.242.242,0,0,1,98.072,59.762Z"/></svg>