<svg id="Layer_1" data-name="Layer 1" xmlns="http://www.w3.org/2000/svg" viewBox="0 0 128 128"><title>SHIP</title><path d="M111.33,92.551a59.817,59.817,0,0,0-20.093-5.629l4.557-18.913a1.251,1.251,0,0,0-.587-1.374l-5.766-3.351V47.576a7.451,7.451,0,0,0-6.039-7.3V38.43A5.341,5.341,0,0,0,78.068,33.1H50.237A5.341,5.341,0,0,0,44.9,38.43v1.819a7.447,7.447,0,0,0-6.191,7.328V63.284l-5.766,3.351a1.251,1.251,0,0,0-.587,1.374L38.137,91.99a79.839,79.839,0,0,1-20.249-4.625,1.25,1.25,0,0,0-.958,2.309,80.227,80.227,0,0,0,22.134,4.972c.419.014,1.232.145,1.318.1,1.723.117,3.5.186,5.336.186a68.251,68.251,0,0,0,18.871-2.585c.021-.008.043-.01.064-.019.542-.157,1.084-.306,1.628-.48a61.645,61.645,0,0,1,43.876,2.91,1.25,1.25,0,0,0,1.173-2.208ZM47.4,38.43A2.838,2.838,0,0,1,50.237,35.6h27.83A2.838,2.838,0,0,1,80.9,38.43v1.705H47.4Zm-6.191,9.147a4.947,4.947,0,0,1,4.941-4.941H82a4.947,4.947,0,0,1,4.941,4.941V61.831L64.7,48.906c-.03-.017-.063-.025-.094-.039s-.069-.03-.105-.044a1.247,1.247,0,0,0-.428-.086h-.005a1.251,1.251,0,0,0-.425.087c-.036.013-.07.027-.1.043s-.063.022-.093.039L41.211,61.831ZM40.759,92.2,35.007,68.328,62.83,52.158,62.9,90.23A68.109,68.109,0,0,1,40.759,92.2Zm24.762-2.736L65.4,89.5,65.33,52.163,93.146,68.328,88.721,86.694A61.934,61.934,0,0,0,65.522,89.468Z"/></svg>