<svg id="Layer_1" data-name="Layer 1" xmlns="http://www.w3.org/2000/svg" viewBox="0 0 128 128"><title>MAP</title><path d="M64,66.033a14.7,14.7,0,1,0-14.7-14.7A14.721,14.721,0,0,0,64,66.033Zm0-26.908a12.2,12.2,0,1,1-12.2,12.2A12.218,12.218,0,0,1,64,39.125Z"/><path d="M107.532,69.754,86.379,59.806a22.863,22.863,0,0,0,2.1-8.477,24.482,24.482,0,1,0-48.965,0,22.863,22.863,0,0,0,2.1,8.477L20.468,69.754a1.251,1.251,0,0,0-.718,1.131V99.9a1.25,1.25,0,0,0,1.914,1.059l21.22-13.294,20.435,13.283a1.249,1.249,0,0,0,1.362,0L85.117,87.669l21.22,13.294A1.25,1.25,0,0,0,108.25,99.9V70.885A1.251,1.251,0,0,0,107.532,69.754ZM64,29.346A22.007,22.007,0,0,1,85.982,51.329a21.939,21.939,0,0,1-2.308,8.485c-.016.028-.043.046-.056.076s-.012.065-.024.1C78.62,70.889,67.32,84.366,64,88.209c-3.32-3.843-14.62-17.32-19.595-28.223-.012-.032-.009-.065-.024-.1s-.04-.048-.056-.076a21.94,21.94,0,0,1-2.308-8.485A22.007,22.007,0,0,1,64,29.346Zm41.75,68.3L85.768,85.127a1.25,1.25,0,0,0-1.345.011L64,98.413,43.577,85.138a1.249,1.249,0,0,0-1.345-.011L22.25,97.646V71.679l20.408-9.6C48.9,75.016,62.331,90.119,63.069,90.942a1.25,1.25,0,0,0,1.862,0c.737-.823,14.173-15.926,20.411-28.861l20.408,9.6Z"/></svg>