<svg id="Layer_1" data-name="Layer 1" xmlns="http://www.w3.org/2000/svg" viewBox="0 0 128 128"><title>COMPAS</title><path d="M64,21.084A42.917,42.917,0,1,0,106.917,64,42.966,42.966,0,0,0,64,21.084Zm0,83.333A40.417,40.417,0,1,1,104.417,64,40.463,40.463,0,0,1,64,104.417Z"/><path d="M64,29.417A34.584,34.584,0,1,0,98.583,64,34.622,34.622,0,0,0,64,29.417Zm1.25,66.635v-3.3a1.25,1.25,0,0,0-2.5,0v3.3a32.116,32.116,0,0,1-30.8-30.8h3.3a1.25,1.25,0,0,0,0-2.5h-3.3a32.116,32.116,0,0,1,30.8-30.8v3.3a1.25,1.25,0,0,0,2.5,0v-3.3a32.116,32.116,0,0,1,30.8,30.8h-3.3a1.25,1.25,0,0,0,0,2.5h3.3A32.116,32.116,0,0,1,65.25,96.052Z"/><path d="M68.591,59.8a1.25,1.25,0,0,0-.395-.394h0L49.269,47.545a1.25,1.25,0,0,0-1.724,1.723L59.409,68.2a1.25,1.25,0,0,0,.395.394h0L78.731,80.455a1.25,1.25,0,0,0,1.724-1.723Zm-3.053.89-4.844,4.844-8.137-12.98Zm-3.076,6.612,4.844-4.844,8.137,12.981Z"/></svg>