<svg xmlns="http://www.w3.org/2000/svg" data-name="Layer 1" viewBox="0 0 128 128"><path d="M95.54 53.1v-3.917h5.73a1.25 1.25 0 0 0 0-2.5h-5.73V40.69a13.118 13.118 0 0 0-13.1-13.1H45.562a13.118 13.118 0 0 0-13.1 13.1v5.993h-5.733a1.25 1.25 0 0 0 0 2.5h5.731V53.1A17.611 17.611 0 0 0 18.5 70.3v11.4a6.187 6.187 0 0 0 6.18 6.18h2.513v3.509a9.02 9.02 0 1 0 18.04 0v-3.505h37.535v3.509a9.02 9.02 0 1 0 18.04 0v-3.509h2.513a6.187 6.187 0 0 0 6.18-6.18V70.3A17.611 17.611 0 0 0 95.54 53.1zm-60.58-.38V40.69a10.614 10.614 0 0 1 10.6-10.6h36.877a10.614 10.614 0 0 1 10.6 10.6v12.027zm7.772 38.676a6.52 6.52 0 1 1-13.04 0v-3.512h13.04zm55.575 0a6.52 6.52 0 1 1-13.04 0v-3.512h13.04zM107 81.7a3.684 3.684 0 0 1-3.68 3.68H24.68A3.684 3.684 0 0 1 21 81.7V70.3a15.1 15.1 0 0 1 15.084-15.083h55.832A15.1 15.1 0 0 1 107 70.3z"/><path d="M40.251 66.306a7.791 7.791 0 1 0 7.791 7.794 7.8 7.8 0 0 0-7.791-7.794zm0 13.082a5.291 5.291 0 1 1 5.291-5.288 5.3 5.3 0 0 1-5.291 5.288zM87.749 66.306A7.791 7.791 0 1 0 95.54 74.1a7.8 7.8 0 0 0-7.791-7.794zm0 13.082A5.291 5.291 0 1 1 93.04 74.1a5.3 5.3 0 0 1-5.291 5.288z"/></svg>