<svg xmlns="http://www.w3.org/2000/svg" x="0" y="0" enable-background="new 0 0 512 512" version="1.1" viewBox="0 0 512 512" xml:space="preserve"><path fill="#41479B" d="M0 0H170.67V512H0z"/><path fill="#FFE15A" d="M170.67 0H341.34V512H170.67z"/><path fill="#FF4B55" d="M341.33 0H512V512H341.33z"/><path fill="#DCBE82" d="M316.023 284.644a4.64 4.64 0 0 0-4.639-4.639c-.556 0-1.082.114-1.577.293-2.297-2.043-6.457-7.11-2.281-14.264.564.439 1.264.71 2.035.71a3.333 3.333 0 0 0 3.333-3.333 3.322 3.322 0 0 0-2.236-3.133c3.431-1.75 8.325-5.465 8.072-12.411-.358-9.852-8.429-15.29-13.381-13.115.018-.138.042-.274.042-.416a3.286 3.286 0 0 0-3.286-3.286 3.278 3.278 0 0 0-2.692 1.409c-.202-.985-.178-2.814 2.112-4.792 4.253-3.673 9.086-12.469.29-18.655-4.871-3.426-14.182-5.066-17.301-.387-1.353 2.03-.268 4.945 1.276 5.6-2.489 1.389-7.211 3.471-10.942 1.843-5.316-2.32-2.246-6.926-1.063-8.989 2.078-3.625.773-9.569-6.186-9.569-4.639 0-6.959 4.639-11.599 4.639s-6.959-4.639-11.599-4.639c-6.959 0-8.264 5.944-6.186 9.569 1.182 2.063 4.253 6.669-1.063 8.989-3.731 1.628-8.452-.454-10.942-1.843 1.544-.655 2.63-3.57 1.276-5.6-3.119-4.679-12.43-3.039-17.301.387-8.796 6.186-3.963 14.982.29 18.655 2.29 1.977 2.314 3.806 2.112 4.792a3.278 3.278 0 0 0-2.692-1.409 3.286 3.286 0 0 0-3.286 3.286c0 .143.024.279.042.416-4.952-2.175-13.022 3.264-13.381 13.115-.253 6.946 4.641 10.661 8.072 12.411a3.322 3.322 0 0 0-2.236 3.133 3.333 3.333 0 0 0 3.333 3.333c.77 0 1.47-.272 2.035-.71 4.176 7.155.015 12.222-2.281 14.264a4.585 4.585 0 0 0-1.577-.293 4.64 4.64 0 0 0-4.639 4.639c0 2.406 1.838 4.36 4.182 4.593-3.198 3.284-6.067 10.525.168 18.749 6.814 8.989 23.052 8.264 30.881 8.554 4.964.184 8.698 2.755 10.771 4.614-1.325.817-2.217 2.269-2.217 3.94 0 2.343 1.743 4.261 4 4.575a4.622 4.622 0 0 0 3.926 2.191 4.628 4.628 0 0 0 4.187-2.672c2.45 2.02 4.125 2.866 4.125 2.866s1.675-.846 4.125-2.866a4.628 4.628 0 0 0 4.187 2.672 4.622 4.622 0 0 0 3.926-2.191c2.257-.314 4-2.232 4-4.575a4.622 4.622 0 0 0-2.217-3.94c2.073-1.859 5.807-4.43 10.771-4.614 7.829-.29 24.067.435 30.881-8.554 6.234-8.224 3.366-15.465.168-18.749 2.344-.232 4.182-2.187 4.182-4.593z"/><path fill="#D2AA73" d="M214.245 225.056v67.272c0 7.687 6.231 13.918 13.918 13.918h18.558c6.959 0 9.279 4.639 9.279 4.639s2.32-4.639 9.279-4.639h18.558c7.687 0 13.918-6.232 13.918-13.918v-67.272a2.32 2.32 0 0 0-2.32-2.32h-78.871a2.32 2.32 0 0 0-2.319 2.32z"/><g fill="#FF4B55"><path d="M218.88 227.38H253.676V262.176H218.88z"/><path d="M253.68 301.607h-3.262c-17.416 0-31.534-14.118-31.534-31.534v-3.262h34.796v34.796z"/></g><g fill="#FFE15A"><path d="M261.582 301.607h-3.262v-34.796h34.796v3.262c0 17.416-14.118 31.534-31.534 31.534z"/><path d="M258.32 227.38H263.291V262.176H258.32z"/></g><path fill="#FF4B55" d="M263.29 227.38H268.261V262.176H263.29z"/><path fill="#FFE15A" d="M268.26 227.38H273.231V262.176H268.26z"/><path fill="#FF4B55" d="M273.23 227.38H278.201V262.176H273.23z"/><g fill="#FFE15A"><path d="M278.2 227.38H283.171V262.176H278.2z"/><path d="M288.14 227.38H293.111V262.176H288.14z"/></g><g fill="#FF4B55"><path d="M283.17 227.38H288.141V262.176H283.17z"/><path d="M230.48 266.81H234.346V301.606H230.48z"/></g><g fill="#FFE15A"><path d="M234.35 266.81H238.216V301.606H234.35z"/><path d="M242.08 266.81H245.94600000000003V301.606H242.08z"/></g><path fill="#FF4B55" d="M238.22 266.81H242.086V301.606H238.22z"/><path fill="#FFE15A" d="M249.81 266.81H253.67600000000002V301.606H249.81z"/><path fill="#FF4B55" d="M245.95 266.81H249.816V301.606H245.95z"/><path fill="#FFE15A" d="M222.751 299.837v-33.026h-3.866v25.517c-.001 3.098 1.532 5.824 3.866 7.509z"/><path fill="#FF4B55" d="M226.617 301.452v-34.64h-3.866v33.026a9.214 9.214 0 0 0 3.866 1.614z"/><path fill="#FFE15A" d="M226.617 266.811v34.64c.505.085 1.017.156 1.547.156h2.32v-34.796h-3.867z"/><g fill="#F5F5F5"><path d="M224.071 260.196a.898.898 0 0 1-.503-.152c-2.281-1.51-2.414-3.082-2.29-3.884.167-1.083.974-1.983 2.053-2.292 1.028-.289 2.053.014 2.747.819 1.439 1.674 2.927 2.333 4.179 1.87.991-.368 1.582-1.344 1.582-2.074a.914.914 0 1 1 1.828 0c0 1.597-1.166 3.191-2.774 3.787-1.175.434-3.537.701-6.2-2.392-.286-.33-.623-.319-.859-.253-.325.093-.683.38-.75.812-.097.63.447 1.389 1.492 2.081a.915.915 0 0 1-.505 1.678zM248.604 260.196a.915.915 0 0 1-.505-1.676c1.045-.693 1.589-1.451 1.492-2.081-.067-.432-.425-.719-.75-.812-.238-.066-.575-.077-.859.253-2.662 3.095-5.026 2.827-6.2 2.392-1.607-.596-2.774-2.19-2.774-3.787a.914.914 0 1 1 1.828 0c0 .73.592 1.706 1.582 2.074 1.253.464 2.74-.196 4.179-1.87.693-.809 1.72-1.11 2.747-.819 1.08.309 1.887 1.208 2.053 2.292.124.801-.009 2.374-2.29 3.884-.155.1-.33.15-.503.15z"/></g><g fill="#FFE15A"><path d="M223.567 261.281a.915.915 0 0 1-.726-1.467l19.864-26.119c.19-.343.261-.817.344-1.365.153-1.026.345-2.302 1.912-3.245 1.021-.612 2.233-.594 3.245.052 1.117.714 1.777 2.044 1.641 3.309-.082.769-.531 2.172-2.612 2.943a.913.913 0 1 1-.635-1.713c.607-.225 1.348-.655 1.431-1.424.062-.584-.27-1.23-.808-1.574-.302-.193-.774-.357-1.319-.025-.829.498-.911 1.044-1.047 1.949-.096.641-.205 1.367-.634 2.106l-19.927 26.213a.917.917 0 0 1-.729.36z"/><path d="M236.408 232.553 227.27 243.519 230.925 254.485 241.891 254.485 245.546 243.519z"/></g><path fill="#F5F5F5" d="m236.408 231.125-10.166 12.199 4.025 12.074h12.283l4.025-12.074-10.167-12.199zm-8.11 12.588 7.196-8.636v18.493h-3.91l-3.286-9.857zm12.934 9.858h-3.91v-18.493l7.196 8.636-3.286 9.857z"/><path fill="#FF4B55" d="m284.562 277.797.138-2.028s1.797-1.29.922-2.488c-.876-1.198-1.889-1.428-4.009-1.152s-5.438.23-6.866.323c-1.429.092-2.166.876-4.424.23l.599-1.382s-1.06.092-1.705.415c-.352.176-1.198-.968-2.028-.783-.827.184-1.659 1.889-2.949 2.765l.691 1.382s.783-.369 1.382.046.783.691 1.797.691l.645.276s-.23 1.475.737 2.166c0 0-1.106 1.428-.968 1.659.138.23 1.06 1.981 1.428 2.995l.829-1.567s-1.244-1.106-1.014-1.244 1.06-.323.922-.691.645.046 1.521.184c0 0 .046 1.382.23 1.567s.461.922.415 1.705-.737 1.014-.737 1.014l1.244.369s.323-.461.553-.415c0 0-.092-3.825.415-4.424 0 0 2.995.599 4.378-.138 0 0 .177.223.522.435-.138.321-.255.642-.203.735.116.208.486.185.578-.046.035-.087.089-.266.144-.451.167.055.35.098.559.119-.019.291-.022.559.045.622.175.161.519.024.535-.225a6.003 6.003 0 0 0-.002-.398c.238-.02.492-.062.772-.145l-1.567 2.581-.783.323 1.014.507.922-.369s.876-2.212 2.304-2.857c0 0 .968 2.304-.23 3.548l1.06.599.507-1.06s-.184-2.074.507-3.41l-.83-1.983z"/><g fill="#4173CD"><path d="M267.208 271.212s-.463-.439-.578-1.018c-.116-.578-.254-.833-.763-.995 0 0 .324.37.278.948s0 1.365.324 1.619l.739-.554zM271.233 272.843s-.629 2.139-2.477 3.249l-.645-.276s1.972-1.686 2.212-3.133l.91.16zM268.087 271.721c-.066-.069.81-.324.601-1.018-.208-.694-.208-1.203.208-1.527 0 0 .046.578.37.948s.509 1.295-.023 1.827c.001.001-.531.418-1.156-.23zM268.188 278.027a.224.224 0 0 1-.102-.299l.28-.569c.164-.333.055-.747-.266-.932a.697.697 0 0 0-.974.296l-.29.59a.223.223 0 0 1-.299.102l-.174.354.566.278-.006.013a.29.29 0 0 0 .519.255l.006-.013.566.278.174-.353z"/><path d="M270.424 281.922 271.117 282.06 270.539 283.842 269.954 282.912z"/><path d="M272.12 283.88 271.696 284.628 273.361 284.628 273.364 284.249z"/><path d="M280.322 283.327 280.322 283.772 278.432 283.772 279.347 282.858z"/><path d="M283.318 283.65 282.384 284.583 284.348 284.583 284.377 284.249z"/></g><path fill="#FF4B55" d="m284.562 292.236.138-2.028s1.797-1.29.922-2.488c-.876-1.198-1.889-1.428-4.009-1.152s-5.438.23-6.866.323c-1.429.092-2.166.876-4.424.23l.599-1.382s-1.06.092-1.705.415c-.352.176-1.198-.968-2.028-.783-.827.184-1.659 1.889-2.949 2.765l.691 1.382s.783-.369 1.382.046.783.691 1.797.691l.645.276s-.23 1.475.737 2.166c0 0-1.106 1.428-.968 1.659.138.23 1.06 1.981 1.428 2.995l.829-1.567s-1.244-1.106-1.014-1.244 1.06-.323.922-.691.645.046 1.521.184c0 0 .046 1.382.23 1.567s.461.922.415 1.705-.737 1.014-.737 1.014l1.244.369s.323-.461.553-.415c0 0-.092-3.825.415-4.424 0 0 2.995.599 4.378-.138 0 0 .177.223.522.435-.138.321-.255.642-.203.735.116.208.486.185.578-.046.035-.087.089-.266.144-.451.167.055.35.098.559.119-.019.291-.022.559.045.622.175.161.519.024.535-.225a6.003 6.003 0 0 0-.002-.398c.238-.02.492-.062.772-.145l-1.567 2.581-.783.323 1.014.507.922-.369s.876-2.212 2.304-2.857c0 0 .968 2.304-.23 3.548l1.06.599.507-1.06s-.184-2.074.507-3.41l-.83-1.983z"/><g fill="#4173CD"><path d="M267.208 285.651s-.463-.439-.578-1.018c-.116-.578-.254-.833-.763-.995 0 0 .324.37.278.948s0 1.365.324 1.619l.739-.554zM271.233 287.282s-.629 2.139-2.477 3.249l-.645-.276s1.972-1.686 2.212-3.133l.91.16zM268.087 286.16c-.066-.069.81-.324.601-1.018-.208-.694-.208-1.203.208-1.527 0 0 .046.578.37.948s.509 1.295-.023 1.827c.001.001-.531.417-1.156-.23zM268.188 292.466a.224.224 0 0 1-.102-.299l.28-.569c.164-.333.055-.747-.266-.932a.697.697 0 0 0-.974.296l-.29.59a.223.223 0 0 1-.299.102l-.174.354.566.278-.006.013a.29.29 0 0 0 .519.255l.006-.013.566.278.174-.353z"/><path d="M270.424 296.36 271.117 296.499 270.539 298.28 269.954 297.351z"/><path d="M272.12 298.319 271.696 299.067 273.361 299.067 273.364 298.687z"/><path d="M280.322 297.766 280.322 298.211 278.432 298.211 279.347 297.297z"/><path d="M283.318 298.088 282.384 299.022 284.348 299.022 284.377 298.687z"/></g></svg>