<svg xmlns="http://www.w3.org/2000/svg" x="0" y="0" enable-background="new 0 0 512 512" version="1.1" viewBox="0 0 512 512" xml:space="preserve"><path fill="#464655" d="M0 0H170.67V512H0z"/><path fill="#FF4B55" d="M170.67 0H341.34V512H170.67z"/><path fill="#73AF00" d="M341.33 0H512V512H341.33z"/><g fill="#F5F5F5"><path d="M279.038 273.307 232.962 273.307 235.522 268.187 276.478 268.187z"/><path d="M279.038 232.351 232.962 232.351 235.522 237.471 276.478 237.471z"/><path d="M268.799 234.911 243.201 234.911 248.321 229.791 263.679 229.791z"/><path d="M235.52 260.51H243.199V265.629H235.52z"/><path d="M235.52 252.83H243.199V257.949H235.52z"/><path d="M235.52 240.03H243.199V245.149H235.52z"/><path d="M235.52 247.71H243.199V250.27H235.52z"/><path d="M268.8 260.51H276.479V265.629H268.8z"/><path d="M268.8 252.83H276.479V257.949H268.8z"/><path d="M268.8 240.03H276.479V245.149H268.8z"/><path d="M268.8 247.71H276.479V250.27H268.8z"/><path d="M238.08 219.55H243.199V229.78900000000002H238.08z"/><path d="M243.201 216.993h-5.119v-2.8a2.32 2.32 0 0 1 2.32-2.32h.48a2.32 2.32 0 0 1 2.32 2.32v2.8h-.001z"/><path d="M268.8 219.55H273.919V229.78900000000002H268.8z"/><path d="M273.918 216.993h-5.119v-2.8a2.32 2.32 0 0 1 2.32-2.32h.48a2.32 2.32 0 0 1 2.32 2.32v2.8h-.001zM256.96 240.03h-1.92a9.279 9.279 0 0 0-9.279 9.279v16.318h20.478v-16.318a9.28 9.28 0 0 0-9.279-9.279zM239.053 256.156l-13.937-16.26c.091-.262.167-.533.167-.826a2.56 2.56 0 1 0-2.56 2.56c.154 0 .288-.062.434-.087l1.442 1.682-6.996 16.323 7.679 7.679 6.63-15.47 5.197 6.064 1.944-1.665zm-12.452 5.348-6.127-6.128 2.765-6.451 6.127 6.128-2.765 6.451zM274.954 257.821l5.197-6.064 6.63 15.47 7.679-7.679-6.996-16.323 1.442-1.682c.147.026.28.087.434.087a2.56 2.56 0 1 0-2.56-2.56c0 .293.076.564.167.826l-13.937 16.26 1.944 1.665zm7.745-2.768 6.127-6.128 2.765 6.451-6.127 6.128-2.765-6.451zM258.898 214.879c-.805-.237-1.521-.676-1.976-1.381a16.912 16.912 0 0 1-.921-1.625 16.912 16.912 0 0 1-.921 1.625c-.455.705-1.171 1.144-1.976 1.381-4.241 1.249-7.342 5.147-7.342 9.793 0 .889.149 1.737.362 2.56h19.754c.213-.823.362-1.67.362-2.56-.001-4.646-3.102-8.544-7.342-9.793zM197.34 252.528a59.08 59.08 0 0 1-.214-4.819c0-3.288.298-6.522.826-9.695a47.353 47.353 0 0 1 2.314 1.704 56.465 56.465 0 0 0-.581 7.992c0 1.893.097 3.763.28 5.608l5.411 1.626c-.338-2.37-.572-4.772-.572-7.234 0-1.223.073-2.434.17-3.638 2.826 3.134 5.056 6.92 5.056 11.104 0 .107 8.212-12.159-6.719-25.704l-.107 5.759-8.6-.091a1.598 1.598 0 0 0-1.592 1.305 64.303 64.303 0 0 0-1.006 11.264c0 1.087.028 2.167.082 3.241l5.252 1.578z"/><path d="M220.052 201.099a2.559 2.559 0 1 0-3.13-4.05c-11.585 8.947-19.535 21.239-22.978 35.008l5.276.068c3.321-12.186 10.506-23.05 20.832-31.026z"/><path d="M216.623 207.484c-5.567 5.452-9.781 11.869-12.648 18.839a28.65 28.65 0 0 1 3.957 3.922c2.58-7.107 6.689-13.632 12.274-19.101a2.56 2.56 0 0 0 .038-3.62 2.558 2.558 0 0 0-3.621-.04zM207.727 281.27a58.963 58.963 0 0 1-8.497-18.117l2.975 1.093a56.497 56.497 0 0 0 8.293 16.516l5.649-1.034a51.627 51.627 0 0 1-7.728-13.199l3.34 1.227a48.807 48.807 0 0 0 7.255 11.447l5.88-1.077c-2.312-2.361-4.334-5.017-6.076-7.883l-3.406-6.811a8.531 8.531 0 0 0-5.179-4.356l-8.059-2.422-1.863-.56-2.683-.806-5.335-1.603-2.848-.856 1.763 5.288a5.205 5.205 0 0 0 2.188 2.766 63.704 63.704 0 0 0 8.8 21.4l5.531-1.013zM308.795 235.231l-.107-5.759c-14.932 13.545-6.719 25.811-6.719 25.704 0-4.184 2.23-7.97 5.056-11.104.098 1.205.17 2.415.17 3.638 0 2.462-.234 4.864-.572 7.234l5.411-1.626a56.79 56.79 0 0 0 .28-5.608c0-2.701-.207-5.367-.581-7.992a48.019 48.019 0 0 1 2.314-1.704c.529 3.173.826 6.407.826 9.695a59.08 59.08 0 0 1-.214 4.819l5.251-1.578a64.52 64.52 0 0 0 .082-3.241 64.4 64.4 0 0 0-1.006-11.264 1.598 1.598 0 0 0-1.592-1.305l-8.599.091z"/><path d="m312.78 232.126 5.276-.068c-3.444-13.769-11.393-26.061-22.978-35.008a2.56 2.56 0 1 0-3.13 4.05c10.326 7.975 17.511 18.839 20.832 31.026z"/><path d="M308.025 226.323c-2.867-6.97-7.081-13.387-12.648-18.839a2.557 2.557 0 0 0-3.62.04 2.56 2.56 0 0 0 .037 3.62c5.584 5.469 9.693 11.994 12.274 19.101a28.65 28.65 0 0 1 3.957-3.922zM319.705 253.685l-5.335 1.603-2.683.806-1.863.56-8.059 2.422a8.531 8.531 0 0 0-5.179 4.356l-3.406 6.811c-1.742 2.866-3.764 5.523-6.076 7.883l5.88 1.077a48.807 48.807 0 0 0 7.255-11.447l3.34-1.227a51.627 51.627 0 0 1-7.728 13.199l5.649 1.034a56.546 56.546 0 0 0 8.293-16.516l2.975-1.093a58.986 58.986 0 0 1-8.497 18.117l5.53 1.012a63.704 63.704 0 0 0 8.8-21.4 5.21 5.21 0 0 0 2.188-2.766l1.763-5.288-2.847.857zM282.677 281.986l-.132.117c-7.448 5.748-16.696 9.122-26.545 9.122s-19.097-3.375-26.545-9.122l-.132-.117a4.082 4.082 0 0 0-3.828-1.255l-25.809 5.374 5.727 5.02a7.586 7.586 0 0 0 5.457 1.854 64.535 64.535 0 0 0 15.723 11.522l-1.677 3.095A64.873 64.873 0 0 0 256 315.484a64.873 64.873 0 0 0 31.084-7.888l-1.677-3.095a64.555 64.555 0 0 0 15.723-11.522 7.584 7.584 0 0 0 5.457-1.854l5.727-5.02-25.809-5.374a4.082 4.082 0 0 0-3.828 1.255zm-53.637 17.997c-4.64-2.414-8.888-5.463-12.71-8.969l2.485-1.185c3.472 3.072 7.29 5.762 11.438 7.915l-1.213 2.239zm66.63-8.969c-3.822 3.506-8.07 6.555-12.71 8.969l-1.213-2.239c4.149-2.153 7.966-4.843 11.438-7.915l2.485 1.185zm-39.67 7.89c-12.192 0-23.364-4.325-32.159-11.473l2.555-1.218c8.305 6.397 18.625 10.131 29.604 10.131 10.978 0 21.299-3.734 29.604-10.131l2.555 1.218c-8.795 7.148-19.967 11.473-32.159 11.473z"/><path d="M227.912 278.358a43.733 43.733 0 0 0 3.427 2.628h49.322a43.79 43.79 0 0 0 3.427-2.628l-2.491-2.491h-51.195l-2.49 2.491z"/></g></svg>