<svg xmlns="http://www.w3.org/2000/svg" viewBox="0 0 512.002 512.002"><path fill="#464655" d="M.052.026h511.95v511.95H.052z"/><path fill="#ffe15a" d="M256.026 62.498l13.535 70.704 39.561-60.143-14.555 70.502 59.566-40.426-40.426 59.565 70.503-14.553-60.144 39.561 70.705 13.534-70.705 13.534 60.144 39.561-70.503-14.554 40.426 59.566-59.566-40.426 14.555 70.503-39.561-60.144-13.535 70.704-13.534-70.704-39.561 60.144 14.554-70.503-59.566 40.426 40.427-59.566-70.503 14.554 60.144-39.561-70.705-13.534 70.705-13.534-60.144-39.561 70.503 14.553-40.427-59.565 59.566 40.426-14.554-70.502 39.561 60.143z"/><g fill="#ff4b55"><path d="M0 511.974h256.026L0 .026zM256.026 511.974h255.922L512 .026z"/></g><path fill="#4173cd" d="M154.984 309.89h202.085l53.889-107.78H101.095z"/><path fill="#f5f5f5" d="M154.984 309.89l101.042 202.084L357.069 309.89z"/></svg>