<svg xmlns="http://www.w3.org/2000/svg" x="0" y="0" enable-background="new 0 0 512.002 512.002" version="1.1" viewBox="0 0 512.002 512.002" xml:space="preserve"><path fill="#464655" d="M.052.026H512.002V511.976H.052z"/><path fill="#FFE15A" d="M256.026 62.498 269.561 133.202 309.122 73.059 294.567 143.561 354.133 103.135 313.707 162.7 384.21 148.147 324.066 187.708 394.771 201.242 324.066 214.776 384.21 254.337 313.707 239.783 354.133 299.349 294.567 258.923 309.122 329.426 269.561 269.282 256.026 339.986 242.492 269.282 202.931 329.426 217.485 258.923 157.919 299.349 198.346 239.783 127.843 254.337 187.987 214.776 117.282 201.242 187.987 187.708 127.843 148.147 198.346 162.7 157.919 103.135 217.485 143.561 202.931 73.059 242.492 133.202z"/><g fill="#FF4B55"><path d="M0 511.974 256.026 511.974 0 .026z"/><path d="M256.026 511.974 511.948 511.974 512 .026z"/></g><path fill="#4173CD" d="M154.984 309.89 357.069 309.89 410.958 202.11 101.095 202.11z"/><path fill="#F5F5F5" d="M154.984 309.89 256.026 511.974 357.069 309.89z"/></svg>