<svg xmlns="http://www.w3.org/2000/svg" viewBox="0 0 512 512"><path fill="#4173cd" d="M0 0h512v512H0z"/><g fill="#ffe15a"><path d="M0 350.32h512v26.947H0zM0 404.21h512v26.947H0z"/></g><path fill="#ff4b55" d="M99.565 133.806l-50.137-17.12 50.137-17.12 17.12-50.131 17.12 50.131 50.137 17.12-50.137 17.12-17.12 50.131z"/><path fill="#f5f5f5" d="M116.685 58.444l14.826 43.415 43.416 14.826-43.416 14.826-14.826 43.415-14.826-43.415-43.416-14.826 43.416-14.826 14.826-43.415m0-18.023l-5.512 16.14-13.902 40.711-40.71 13.902-16.14 5.511 16.14 5.511 40.71 13.902 13.902 40.711 5.512 16.14 5.512-16.14 13.902-40.711 40.71-13.902 16.14-5.511-16.14-5.511-40.71-13.902-13.902-40.711-5.512-16.14z"/></svg>