<svg xmlns="http://www.w3.org/2000/svg" x="0" y="0" enable-background="new 0 0 512 512" version="1.1" viewBox="0 0 512 512" xml:space="preserve"><path fill="#4173CD" d="M0 0H512V512H0z"/><g fill="#FFE15A"><path d="M0 350.32H512V377.267H0z"/><path d="M0 404.21H512V431.157H0z"/></g><path fill="#FF4B55" d="M99.565 133.806 49.428 116.686 99.565 99.566 116.685 49.435 133.805 99.566 183.942 116.686 133.805 133.806 116.685 183.937z"/><path fill="#F5F5F5" d="m116.685 58.444 14.826 43.415 43.416 14.826-43.416 14.826-14.826 43.415-14.826-43.415-43.416-14.826 43.416-14.826 14.826-43.415m0-18.023-5.512 16.14-13.902 40.711-40.71 13.902-16.14 5.511 16.14 5.511 40.71 13.902 13.902 40.711 5.512 16.14 5.512-16.14 13.902-40.711 40.71-13.902 16.14-5.511-16.14-5.511-40.71-13.902-13.902-40.711-5.512-16.14z"/></svg>