<svg xmlns="http://www.w3.org/2000/svg" viewBox="0 0 512 512"><path fill="#73af00" d="M0 341.33h512V512H0z"/><path fill="#82afff" d="M0 0h512v170.67H0z"/><path fill="#ff4b55" d="M0 170.67h512v170.67H0z"/><g fill="#f5f5f5"><path d="M274.43 311.874c-30.237 0-54.765-24.528-54.765-54.793 0-30.209 24.528-54.792 54.765-54.792 11.25 0 21.625 3.46 30.27 9.316 1.324.897 2.835-.843 1.726-1.996-12.921-13.434-31.209-21.63-51.486-20.938-34.836 1.189-63.675 29.119-65.901 63.904-2.55 39.844 28.999 72.956 68.279 72.956 19.349 0 36.738-8.089 49.156-21.022 1.097-1.143-.417-2.856-1.729-1.967-8.653 5.868-19.045 9.332-30.315 9.332z"/><path d="M322.375 223.354l5.682 15.977 15.315-7.28c1.154-.548 2.357.655 1.809 1.809l-7.28 15.315 15.977 5.682c1.203.428 1.203 2.13 0 2.558l-15.977 5.682 7.28 15.315c.548 1.154-.655 2.357-1.809 1.809l-15.315-7.28-5.682 15.977c-.428 1.203-2.13 1.203-2.558 0l-5.682-15.977-15.315 7.28c-1.154.548-2.357-.655-1.809-1.809l7.28-15.315-15.977-5.682c-1.203-.428-1.203-2.13 0-2.558l15.977-5.682-7.28-15.315c-.548-1.154.655-2.357 1.809-1.809l15.315 7.28 5.682-15.977c.428-1.204 2.13-1.204 2.558 0z"/></g></svg>