<svg xmlns="http://www.w3.org/2000/svg" viewBox="0 0 512 512"><path fill="#41479b" d="M0 0h512v512H0z"/><path fill="#ffe15a" d="M441.379 0v512L105.931 0z"/><g fill="#f5f5f5"><path d="M211.685 196.751l7.321 21.951 23.139.179c1.793.014 2.536 2.302 1.094 3.367l-18.614 13.746 6.98 22.062c.541 1.709-1.405 3.123-2.864 2.081l-18.825-13.456-18.825 13.456c-1.458 1.042-3.404-.371-2.864-2.081l6.98-22.062-18.614-13.746c-1.442-1.065-.699-3.353 1.094-3.367l23.139-.179 7.321-21.951c.566-1.7 2.971-1.7 3.538 0zM169.685 135.469l7.321 21.951 23.139.179c1.793.014 2.536 2.302 1.094 3.367l-18.614 13.746 6.98 22.062c.541 1.709-1.405 3.123-2.864 2.081l-18.825-13.456-18.825 13.456c-1.458 1.042-3.404-.371-2.864-2.081l6.98-22.062-18.614-13.746c-1.442-1.065-.699-3.353 1.094-3.367l23.139-.179 7.321-21.951c.566-1.7 2.971-1.7 3.538 0zM132.685 73.245l7.321 21.951 23.139.179c1.793.014 2.536 2.302 1.094 3.367l-18.614 13.746 6.98 22.062c.541 1.709-1.405 3.123-2.864 2.081l-18.825-13.456-18.826 13.455c-1.458 1.042-3.404-.371-2.864-2.081l6.98-22.062-18.614-13.746c-1.442-1.065-.699-3.353 1.094-3.367l23.139-.179 7.321-21.951c.567-1.7 2.972-1.7 3.539.001zM89.854 11.963l7.321 21.951 23.139.179c1.793.014 2.536 2.302 1.094 3.367l-18.614 13.746 6.98 22.062c.541 1.709-1.405 3.123-2.864 2.081L88.084 61.892 69.259 75.348c-1.458 1.042-3.404-.371-2.864-2.081l6.98-22.062L54.761 37.46c-1.442-1.065-.699-3.353 1.094-3.367l23.139-.179 7.321-21.951c.567-1.701 2.972-1.701 3.539 0zM369.295 436.259l7.321 21.951 23.139.179c1.793.014 2.536 2.302 1.094 3.367l-18.614 13.746 6.98 22.062c.541 1.709-1.405 3.123-2.864 2.081l-18.825-13.456-18.826 13.455c-1.458 1.042-3.404-.371-2.864-2.081l6.98-22.062-18.614-13.746c-1.442-1.065-.699-3.353 1.094-3.367l23.139-.179 7.321-21.951c.566-1.7 2.972-1.7 3.539.001zM331.854 376.862l7.321 21.951 23.139.179c1.793.014 2.536 2.302 1.094 3.367l-18.614 13.746 6.98 22.062c.541 1.709-1.405 3.123-2.864 2.081l-18.825-13.456-18.825 13.456c-1.458 1.042-3.405-.371-2.864-2.081l6.98-22.062-18.614-13.746c-1.442-1.065-.699-3.353 1.094-3.367l23.139-.179 7.321-21.951c.566-1.7 2.971-1.7 3.538 0zM290.854 316.523l7.321 21.951 23.139.179c1.793.014 2.536 2.302 1.094 3.367l-18.614 13.746 6.98 22.062c.541 1.709-1.405 3.123-2.864 2.081l-18.825-13.456-18.825 13.456c-1.458 1.042-3.405-.371-2.864-2.081l6.98-22.062-18.614-13.746c-1.442-1.065-.699-3.353 1.094-3.367l23.139-.179 7.321-21.951c.566-1.7 2.971-1.7 3.538 0zM248.854 257.127l7.321 21.951 23.139.179c1.793.014 2.536 2.302 1.094 3.367l-18.614 13.746 6.98 22.062c.541 1.709-1.405 3.123-2.864 2.081l-18.825-13.456-18.825 13.456c-1.458 1.042-3.404-.371-2.864-2.081l6.98-22.062-18.614-13.746c-1.442-1.065-.699-3.353 1.094-3.367l23.139-.179 7.321-21.951c.566-1.701 2.971-1.701 3.538 0z"/></g></svg>