<svg xmlns="http://www.w3.org/2000/svg" x="0" y="0" enable-background="new 0 0 512 512" version="1.1" viewBox="0 0 512 512" xml:space="preserve"><path fill="#41479B" d="M0 0H170.67V512H0z"/><path fill="#FFE15A" d="M170.67 0H341.34V512H170.67z"/><path fill="#41479B" d="M341.33 0H512V512H341.33z"/><path fill="#464655" d="M326.621 207.256s-24.564 0-42.987 18.423h12.282s-11.898 21.493-18.039 58.339l-12.666-2.067v-56.454l12.282 4.021L256 176.552l-21.493 52.966 12.282-4.094v56.528l-12.666 2.067c-6.141-36.846-18.039-58.339-18.039-58.339h12.282c-18.423-18.423-42.987-18.423-42.987-18.423 30.705 36.846 30.705 98.255 30.705 98.255l30.705-5.117v41.962h18.423v-41.962l30.705 5.117c-.001-.001-.001-61.41 30.704-98.256z"/></svg>