<svg xmlns="http://www.w3.org/2000/svg" viewBox="0 0 512 512"><path fill="#ff4b55" d="M0 0h512v512H0z"/><path fill="#f5f5f5" d="M305.478 261.891a3.89 3.89 0 00-3.891 3.891v143.96c0 11.672 7.782 50.58 81.707 62.253 73.925-11.672 81.707-50.58 81.707-62.253v-143.96a3.89 3.89 0 00-3.891-3.891H305.478z"/><path fill="#73af00" d="M383.294 471.995c61.711-9.744 77.319-38.456 80.796-54.471H302.499c3.476 16.015 19.084 44.727 80.795 54.471z"/><path fill="#82afff" d="M433.875 343.598s3.891-3.891 0-11.672l-50.58-2.263-50.58 2.263c-3.891 7.782 0 11.672 0 11.672-3.891 3.891-3.891 7.782-3.891 7.782h7.782l8.43 13.942 38.259 21.076 38.259-21.076 8.43-13.942h7.782c-.001 0-.001-3.891-3.891-7.782z"/><path fill="#f5f5f5" d="M421.554 365.322s-2.432-5.35-8.916-4.701c0 0-3.567-4.701-9.565-3.404 0 0-6.971-4.053-11.024 3.404 0 0-12.889-1.31-13.578 8.504 0 0 20.062 30.241 20.549 30.566.486.324 23.993.162 23.993.162l10.863-11.985-10.701-15.413-1.621-7.133z"/><path fill="#f0c850" d="M383.781 374.887s-17.019-27.802-19.454-30.154c-2.351-2.27-6.971-4.377-11.672-.486 0 0-14.104-1.135-12.159 9.565l4.053 16.212s-3.567 11.186-5.188 12.321-7.62 4.215-7.62 4.215l3.404 13.456 45.393-2.27 3.243-22.859z"/><path fill="#965032" d="M403.397 362.728l-.054.023-1.256-2.963a.967.967 0 00-1.288-.509l-8.444 3.723-10.043-16.441a1.452 1.452 0 00.429-1.591 1.462 1.462 0 00-1.866-.885l-2.238.801-1.514-4.475a.98.98 0 00-1.233-.612.975.975 0 00-.61 1.235l1.525 4.508-2.393.857a1.46 1.46 0 00.492 2.835c.085 0 .17-.029.256-.044l3.311 19.936-2.136.941a.97.97 0 00-.522 1.216l1.211 3.372c.029.568.028 1.525-.166 2.738l-13.582-23.298c.57-.357.855-1.051.62-1.707a1.457 1.457 0 00-1.866-.885l-2.238.801-1.514-4.475a.974.974 0 00-1.233-.612.975.975 0 00-.61 1.235l1.525 4.508-2.393.857a1.462 1.462 0 00-.882 1.866c.194.544.69.865 1.228.923l5.896 36.794c-.761.32-1.507.644-2.346.942 0 0-2.756 13.131-.648 13.78s23.831 7.295 23.831 7.295 29.992-14.266 30.64-14.591c.648-.324 1.945-9.727 1.945-9.727l-11.834-28.371zm-1.841.79l-2.511 1.079-.832-2.052 2.468-1.089.875 2.062zm-15.179 4.246l2.064-.91.793 1.956-2.186.939-.671-1.985zm-1.122 2.754l-2.442 1.049-.768-1.893 2.545-1.122.665 1.966zm5.766-2.475l-.8-1.974 2.205-.973.809 1.996-2.214.951zm3.184-3.731l2.23-.983.825 2.034-2.239.961-.816-2.012zm-13.705-16.99l10.061 16.471-4.81 2.121-6.177-18.26.926-.332zm-3.472 1.243l.714-.256 6.222 18.393-3.656 1.612-3.28-19.749zm3.239 21.893l.761 1.876-2.401 1.031-.677-1.886 2.317-1.021zm-18.822-15.644l14.733 25.273c-.742 2.144-2.14 4.632-4.594 7.075l-10.856-32.091.717-.257zm-3.637 1.302l1.088-.389 11.118 32.866c-1.685 1.399-3.783 2.75-6.364 3.988l-5.842-36.465z"/><path fill="#ff4b55" d="M437.401 326.029c-1.034-1.641-4.35-.939-4.35-.939s-.946-1.892-3.448-2.076c-2.502-.183-2.96 2.045-2.96 2.045s-.468-.349-3.224-.267c-2.756.081-2.189 4.62-2.189 4.62s-1.054 0-4.62-1.135c-3.567-1.135-5.917-.324-5.917-.324-.162-1.864-1.135-3.242-1.135-3.242-2.999 1.216-5.35-.162-5.917-1.216-.568-1.053.892-2.675.892-4.053s-1.905-1.317-2.574-2.533 0-1.885 1.763-2.675 3.404-3.708 2.31-6.079-4.256-1.945-4.256-1.945c1.094.182 2.006 2.249.243 2.675s-3.344-6.019-3.344-6.019c4.073 2.736 7.052 1.094 7.903-1.277s-1.398-4.012-1.398-4.012c-1.763 2.857-4.803.365-3.161-1.459 1.641-1.824 1.783-4.884 1.783-4.884-3.648 1.783-5.917-.486-5.917-.486 4.783-3.323 3.404-8.025 3.404-8.025-1.783-.811-5.593-.162-5.593-.162.81-1.621.649-4.54.649-4.54-2.027-.324-4.296.973-4.296.973.649-2.269-.243-6.241-.243-6.241-1.459.243-4.215 1.054-4.215 1.054-1.135-2.594-4.296-4.134-4.296-4.134s-3.161 1.54-4.296 4.134c0 0-2.756-.811-4.215-1.054 0 0-.892 3.972-.243 6.241 0 0-2.27-1.297-4.296-.973 0 0-.162 2.918.649 4.54 0 0-3.81-.649-5.593.162 0 0-1.378 4.702 3.404 8.025 0 0-2.27 2.27-5.917.486 0 0 .142 3.06 1.783 4.884s-1.398 4.316-3.161 1.459c0 0-2.249 1.641-1.398 4.012.851 2.371 3.83 4.012 7.903 1.277 0 0-1.581 6.444-3.344 6.019-1.763-.426-.851-2.493.243-2.675 0 0-3.161-.426-4.256 1.945-1.094 2.371.547 5.289 2.31 6.079s2.432 1.459 1.763 2.675-2.574 1.155-2.574 2.533 1.459 2.999.891 4.053c-.567 1.054-2.918 2.432-5.917 1.216 0 0-.973 1.378-1.135 3.242 0 0-2.351-.811-5.917.324-3.567 1.135-4.62 1.135-4.62 1.135s.567-4.539-2.189-4.62c-2.756-.081-3.224.267-3.224.267s-.458-2.228-2.96-2.045c-2.502.183-3.448 2.076-3.448 2.076s-3.317-.703-4.35.939c-1.033 1.641-1.155 4.134.79 5.167s7.113 5.35 7.113 5.35l7.295 3.161L369.92 328.4l13.375 3.526 13.375-3.526 25.533 11.308 7.295-3.161s5.167-4.316 7.113-5.35c1.945-1.034 1.823-3.527.79-5.168z"/><path fill="#f5f5f5" d="M375.33 284.824s.275 3.433 5.356 2.518c-.001 0-.138-3.571-5.356-2.518z"/><path fill="#ff4b55" d="M356.531 420.442s-3.648-.122-7.417 2.675c-3.769 2.797-5.431.811-9.2.811s-4.661 3.931-4.661 3.931-7.295 1.824-4.377 7.174c1.845 3.384 4.414 3.312 6.057 2.804-.083 2.273.434 4.772 3.062 5.221 4.985.851 7.174-1.824 6.079-5.958 0 0 .608 4.256 3.891 4.134s5.471-1.945 5.107-6.323c-.365-4.377 5.471-1.702 9.97-8.146l-8.511-6.323z"/><g fill="#82afff"><path d="M335.212 436.086s-2.27 2.999-1.621 5.917c0 0-4.863-1.54-2.27-8.754 0 0 3.324-.892 3.891 2.837zM342.852 440.017s-1.337 3.769.486 7.113c0 0-6.079-.182-4.863-7.66 0 0 1.945-2.006 4.377.547zM348.931 439.652s1.094 3.161 0 6.201c0 0 4.985-.304 4.134-7.478 0 .001-2.675-.972-4.134 1.277z"/></g><g fill="#ff4b55"><path d="M344.493 366.943c-.46-3.749-23.953-5.958-22.494 13.78 0 0-2.606-.048-3.888 2.378s-4.028 1.831-4.852.961c0 0 .183 4.394 5.63 4.211 0 0-1.724 1.358-1.48 3.342s1.678 4.486 1.587 6.195c-.092 1.709-1.709 4.089-1.709 4.089s4.181-1.434 4.455-4.425c.275-2.991-.397-5.493.427-7.019 0 0-.397 2.106 1.465 4.761 1.861 2.655 1.953 5.89 1.19 7.904 0 0 4.638-2.289 3.753-6.714s-1.831-4.028-1.404-6.5c0 0 4.822 4.913 3.998 9.094 0 0 1.541-1.846 1.404-5.325s-2.552-5.819-2.552-5.819 16.051-8.025 14.47-20.913zM410.058 420.442s3.648-.122 7.417 2.675c3.769 2.797 5.431.811 9.2.811s4.661 3.931 4.661 3.931 7.295 1.824 4.377 7.174c-1.845 3.384-4.414 3.312-6.057 2.804.083 2.273-.434 4.772-3.062 5.221-4.985.851-7.174-1.824-6.079-5.958 0 0-.608 4.256-3.891 4.134s-5.471-1.945-5.107-6.323c.365-4.377-5.471-1.702-9.97-8.146l8.511-6.323z"/></g><g fill="#82afff"><path d="M431.376 436.086s2.27 2.999 1.621 5.917c0 0 4.863-1.54 2.27-8.754 0 0-3.323-.892-3.891 2.837zM423.736 440.017s1.337 3.769-.486 7.113c0 0 6.079-.182 4.864-7.66 0 0-1.946-2.006-4.378.547zM417.657 439.652s-1.094 3.161 0 6.201c0 0-4.985-.304-4.134-7.478 0 .001 2.675-.972 4.134 1.277z"/></g><path fill="#ff4b55" d="M422.095 366.943c.46-3.749 23.953-5.958 22.494 13.78 0 0 2.606-.048 3.888 2.378s4.028 1.831 4.852.961c0 0-.183 4.394-5.63 4.211 0 0 1.724 1.358 1.48 3.342s-1.678 4.486-1.587 6.195c.092 1.709 1.709 4.089 1.709 4.089s-4.181-1.434-4.455-4.425c-.275-2.991.397-5.493-.427-7.019 0 0 .397 2.106-1.465 4.761-1.861 2.655-1.953 5.89-1.19 7.904 0 0-4.638-2.289-3.753-6.714s1.831-4.028 1.404-6.5c0 0-4.822 4.913-3.998 9.094 0 0-1.541-1.846-1.404-5.325s2.552-5.819 2.552-5.819-16.051-8.025-14.47-20.913z"/><path fill="#ffe15a" d="M431.705 333.301a1.936 1.936 0 00-2.696.551c-1.231 1.858-2.852 2.945-4.955 3.321-6.961 1.208-16.998-5.646-19.912-7.789-4.224-3.105-9.443-3.644-12.907-1.51-1.383.457-5.608 1.79-7.941 1.79s-6.558-1.333-7.941-1.79c-3.464-2.134-8.683-1.595-12.907 1.51-2.914 2.143-12.951 8.997-19.912 7.789-2.103-.376-3.724-1.463-4.955-3.321a1.937 1.937 0 00-2.696-.551 1.943 1.943 0 00-.549 2.694c1.824 2.759 4.352 4.442 7.518 5.008.8.144 1.617.209 2.449.209 7.424 0 15.825-5.297 20.448-8.69 3.437-2.523 7.29-2.519 9.024-1.056.439.372.937.957.817 1.645-.065.376-.312.714-.724.999a1.945 1.945 0 00-3.292-1.695c-.99.984-1.098 2.584-.264 3.883.838 1.303 2.643 2.257 4.788 1.463 1.09-.406 1.961-1.182 2.564-2.133 2.956-.86 5.633-.866 5.633-.866s2.677.006 5.633.866c.603.951 1.475 1.727 2.564 2.133 2.145.794 3.95-.16 4.788-1.463.834-1.299.726-2.899-.264-3.883a1.945 1.945 0 00-3.292 1.695c-.412-.285-.659-.623-.724-.999-.12-.688.378-1.273.817-1.645 1.735-1.463 5.587-1.467 9.024 1.056 4.622 3.393 13.023 8.69 20.448 8.69.832 0 1.649-.065 2.449-.209 3.165-.566 5.694-2.249 7.518-5.008a1.945 1.945 0 00-.551-2.694z"/><g fill="#82afff"><path d="M333.721 335.45s-.32-4.349-.458-5.768c-.137-1.419-2.792-2.472-3.799-1.053-1.007 1.42-1.282 4.029 4.257 6.821zM334.659 334.054s3.83-3.1 3.344-4.742c-.486-1.641-1.52-2.493-2.797-2.006s-1.884 3.465-.547 6.748zM342.137 331.622c.551-.551.73-3.222-.79-3.526-1.52-.304-3.526 2.067-3.404 4.985-.001 0 3.16-.426 4.194-1.459zM340.556 333.142c-1.764.564-3.465 2.067-3.465 2.067s3.161 2.31 5.35 1.581c2.188-.73 1.155-4.621-1.885-3.648z"/></g><path fill="#f5f5f5" d="M391.259 284.824s-.275 3.433-5.356 2.518c0 0 .138-3.571 5.356-2.518z"/><g fill="#82afff"><path d="M432.868 335.45s.32-4.349.458-5.768c.137-1.419 2.792-2.472 3.799-1.053 1.007 1.42 1.281 4.029-4.257 6.821zM431.929 334.054s-3.83-3.1-3.344-4.742c.486-1.641 1.52-2.493 2.797-2.006s1.885 3.465.547 6.748zM424.452 331.622c-.551-.551-.73-3.222.79-3.526 1.52-.304 3.526 2.067 3.404 4.985 0 0-3.161-.426-4.194-1.459zM426.032 333.142c1.764.564 3.465 2.067 3.465 2.067s-3.161 2.31-5.35 1.581-1.154-4.621 1.885-3.648z"/></g><g fill="#464655"><path d="M381.282 292.915l1.543 1.543c.259.259.68.259.939 0l1.543-1.543a.664.664 0 00-.469-1.133h-3.086a.664.664 0 00-.47 1.133z"/><path d="M380.475 299.242c-1.144 0-2.133-.41-2.806-1.167-.695-.786-.992-1.869-.815-2.971.063-.369.433-.593.781-.562.372.061.623.41.564.783-.112.695.066 1.368.49 1.847.437.49 1.104.718 1.924.707 1.71-.068 1.997-1.74 2.008-1.809l-.008-3.051a.68.68 0 111.36 0v3.157c-.165 1.091-1.056 2.971-3.308 3.063a4.013 4.013 0 01-.19.003z"/><path d="M386.114 299.242c-.063 0-.127 0-.192-.004-2.251-.091-3.142-1.972-3.3-2.956l-.008-3.264a.68.68 0 111.36 0v3.157c.023.068.342 1.638 2 1.702.844.015 1.486-.209 1.924-.707.424-.479.602-1.151.49-1.847a.684.684 0 01.564-.783c.355-.046.72.19.781.562.177 1.102-.12 2.185-.815 2.971-.671.758-1.661 1.169-2.804 1.169z"/></g><g fill="#f5f5f5"><path d="M406.639 398.069s-4.863-7.782-10.538-2.594c-5.674 5.188-7.782 11.51-14.266 11.024-3.559-.267-5.376-1.892-6.32-3.312 1.723-1.418 2.945-3.573 1.619-6.74-2.918-6.971-13.618-4.863-16.536 2.756 0 0 3.404-11.186-8.43-7.457 0 0-1.459-7.782-8.268-5.674-3.702 1.146-5.072 3.425-5.581 5.281-1.432-.333-3.272-.323-4.957 1.041l8.592 23.183 12.969.162 2.918 4.377 17.022 10.7 3.08 6.485h10.7s.811-6.646 6.485-8.592c5.674-1.945 14.915-5.999 15.887-9.565l.973-3.566 10.376.162c1.135-.811 8.754-13.293 8.754-13.293l3.537-16.078c-1.951-.283-24.295-3.182-28.016 11.7zM434.685 386.235l-.029.134.192.028-.163-.162z"/></g><g fill="#ffe15a"><path d="M364.072 422.927c-4.204-1.695-5.705-4.069-6.224-5.335-.483-1.17-.388-1.999-.256-2.303.268-.619.593-1.014.895-1.09.285-.068.646.095.711.137.137.156.209.65.078.771a1.947 1.947 0 00-.084 2.751 1.95 1.95 0 002.751.084c.8-.752 1.258-1.805 1.29-2.964.036-1.242-.418-2.481-1.212-3.317-.796-.844-2.432-1.611-4.176-1.299-.359.063-.764.21-1.178.41.273-2.695-.766-4.075-1.529-4.632-1.282-.931-3.108-.954-4.643-.053-1.571.923-2.42 2.538-2.213 4.21.133 1.068 1.204 1.706 2.247 1.562 1.066-.129 1.904-1.231 1.773-2.295.22-.201.511-.27.502-.315.004.004.26.429-.049 1.801-.484 2.151-1.622 3.473-3.382 3.936-2.19.604-4.996-.319-6.655-2.139-2.306-2.538-7.134-16.008-10.004-24.979 12.305-5.836 13.817-15.533 13.584-20.936-.355-8.23-5.28-16.65-10.755-18.386-2.154-.68-5.382-.821-7.725.388-1.326.692-2.247 1.752-2.662 3.07-.845 2.69.847 4.913 2.871 5.639 2.095.752 4.21-.152 5.023-2.154.403-.995-.036-2.135-1.032-2.538-1.001-.414-2.09.072-2.493 1.064-.082.046-.351-.057-.553-.285-.146-.167-.177-.331-.104-.555.065-.205.211-.509.747-.787 1.271-.665 3.397-.562 4.753-.133 3.133.992 7.708 7.12 8.042 14.845.199 4.617-1.203 13.078-12.82 17.9a1.946 1.946 0 00-1.111 2.379c.758 2.428 7.525 23.869 11.359 28.083 2.061 2.268 5.179 3.587 8.158 3.587.807 0 1.605-.095 2.369-.296 1.299-.344 2.385-1.014 3.328-1.856a8.62 8.62 0 00.559 2.175c.752 1.831 2.838 5.236 8.663 7.584 11.783 4.727 12.902 7.888 12.837 9.032a1.304 1.304 0 01-.688 1.117 1.411 1.411 0 01-.361.144 1.949 1.949 0 00.129-2.101 1.943 1.943 0 00-2.646-.749c-1.324.741-2.247 2.485-1.455 4.392.617 1.482 2.061 2.379 3.731 2.379.268 0 .541-.023.819-.072 2.422-.41 4.212-2.42 4.354-4.886.341-5.907-8.554-10.174-15.563-12.985zM402.516 422.927c4.204-1.695 5.705-4.069 6.224-5.335.483-1.17.388-1.999.257-2.303-.268-.619-.593-1.014-.895-1.09-.285-.068-.646.095-.711.137-.137.156-.209.65-.078.771.783.737.819 1.968.084 2.751a1.95 1.95 0 01-2.751.084c-.8-.752-1.258-1.805-1.29-2.964-.036-1.242.418-2.481 1.212-3.317.796-.844 2.432-1.611 4.176-1.299.359.063.764.21 1.178.41-.273-2.695.766-4.075 1.529-4.632 1.282-.931 3.108-.954 4.643-.053 1.571.923 2.42 2.538 2.213 4.21-.133 1.068-1.204 1.706-2.247 1.562-1.066-.129-1.904-1.231-1.773-2.295-.22-.201-.511-.27-.502-.315-.004.004-.26.429.049 1.801.484 2.151 1.622 3.473 3.382 3.936 2.19.604 4.996-.319 6.655-2.139 2.306-2.538 7.134-16.008 10.004-24.979-12.305-5.836-13.817-15.533-13.584-20.936.355-8.23 5.28-16.65 10.755-18.386 2.154-.68 5.382-.821 7.725.388 1.326.692 2.247 1.752 2.662 3.07.845 2.69-.847 4.913-2.871 5.639-2.095.752-4.21-.152-5.023-2.154-.403-.995.036-2.135 1.032-2.538 1.001-.414 2.09.072 2.493 1.064.082.046.351-.057.553-.285.146-.167.177-.331.104-.555-.065-.205-.211-.509-.747-.787-1.271-.665-3.397-.562-4.753-.133-3.133.992-7.708 7.12-8.042 14.845-.199 4.617 1.203 13.078 12.82 17.9a1.946 1.946 0 011.111 2.379c-.758 2.428-7.525 23.869-11.359 28.083-2.061 2.268-5.179 3.587-8.158 3.587a9.316 9.316 0 01-2.369-.296c-1.299-.344-2.385-1.014-3.328-1.856a8.62 8.62 0 01-.559 2.175c-.752 1.831-2.838 5.236-8.663 7.584-11.783 4.727-12.902 7.888-12.837 9.032.036.627.395.954.688 1.117.127.072.253.118.361.144a1.949 1.949 0 01-.129-2.101 1.943 1.943 0 012.646-.749c1.324.741 2.247 2.485 1.455 4.392-.617 1.482-2.061 2.379-3.731 2.379-.268 0-.541-.023-.819-.072-2.422-.41-4.212-2.42-4.354-4.886-.341-5.907 8.554-10.174 15.562-12.985z"/></g><g fill="#41479b"><path d="M94.317 0H.001v19.977L94.317 81.77zM.001 68.299v26.017h39.71zM.001 161.684v26.017l39.71-26.017zM256.001 19.977V0h-94.316v81.77zM256.001 187.701v-26.017h-39.71zM161.685 174.23V256h94.316v-19.977zM256.001 94.316V68.299l-39.71 26.017zM.001 236.023V256h94.316v-81.77z"/></g><g fill="#f5f5f5"><path d="M256.001 236.023v-19.964l-83.768-54.375h24.748l59.02 38.311v-12.294l-39.71-26.017h39.71V148.21H148.212V256h13.473v-81.77zM.001 148.21v13.474h39.71L.001 187.701v18.901l69.198-44.918h24.747L.001 222.666v13.357l94.316-61.793V256h13.474V148.21zM107.791 0H94.317v81.77L.001 19.977v21.862l80.842 52.477H56.095L.001 57.904v10.395l39.71 26.017H.001v13.474h107.79zM256.001 107.79V94.316h-39.71l39.71-26.017V49.157l-69.568 45.159h-24.748l94.316-61.223V19.977L161.685 81.77V0h-13.473v107.79z"/></g><g fill="#ff4b55"><path d="M256.001 148.21v-40.42H148.212V0h-40.421v107.79H.001v40.42h107.79V256h40.421V148.21z"/><path d="M69.199 161.684L.001 206.602v16.064l93.945-60.982zM172.233 161.684l83.768 54.375v-16.064l-59.02-38.311zM80.843 94.316L.001 41.839v16.065l56.094 36.412zM186.433 94.316l69.568-45.159V33.093l-94.316 61.223z"/></g></svg>