<svg xmlns="http://www.w3.org/2000/svg" viewBox="0 0 512 512"><path fill="#ff6e55" d="M0 0h512v512H0z"/><path fill="#ffe15a" d="M0 512L512 0H3.586C1.606 0 0 2.451 0 5.474V512z"/><g fill="#fff5dc"><path d="M294.953 136.988c-6.77 1.451-17.408-2.176-17.408-2.176 2.191 3.774 8.052 6.315 13.338 7.916-4.268.426-9.136.667-14.547.547-21.76-.484-31.914 13.781-31.914 13.781 7.737-4.836 15.715-4.836 27.562-3.144s36.991-5.803 36.991-5.803l2.176-9.671s-9.429-2.901-16.198-1.45z"/><path d="M317.317 91.655s11.25 2.384 22.67 8.936a11.53 11.53 0 00-1.971 1.319c-3.69-1.835-8.148-3.319-13.93-3.909 0 0 5.985 1.555 11.734 6.06-1.49 1.754-2.715 3.748-3.66 5.522-12.649-13.563-26.328-4.511-26.328-4.511 16.969-1.291 20.972 9.613 21.926 14.878-3.285-2.196-6.381-4.006-9.285-5.48.426-.319.642-.606 1.14-.935 0 0-1.063.043-2.536.262-21.655-10.408-32.28-2.197-32.28-2.197 9.617-1.176 18.504 1.326 25.557 4.438-3.1 1.784-5.198 4.926-3.466 10.269-12.145-3.305-27.409-6.56-34.905-4.553-13.54 3.627-9.188 16.199-9.188 16.199s.242-8.462 9.429-10.397c6.878-1.448 41.102 9.429 41.102 9.429l11.121-5.318-4.593-3.869s-8.829-3.543-5.042-9.633c6.33 3.374 10.361 6.732 10.361 6.732l2.721-3.977c.132 1.028.18 1.801.18 1.801l7.737-3.384 1.692-2.418c.678-3.671 1.799-6.279 3.088-8.232a25.323 25.323 0 015.012 10.589l7.012.725s-1.139-8.105-8.984-14.55c.696-.496 1.383-.904 2.061-1.179 5.167 3.707 9.985 8.344 13.33 14.158l12.935-.181c0 .002-21.276-23.693-54.64-26.594zM453.79 195.719c10.396 16.317-6.905 33.618-23.223 23.223a9.415 9.415 0 01-2.874-2.874c-10.396-16.317 6.905-33.618 23.223-23.223a9.426 9.426 0 012.874 2.874zM420.348 328.466c14.136 21.966-9.231 45.333-31.197 31.197a12.225 12.225 0 01-3.655-3.655c-14.136-21.966 9.231-45.333 31.197-31.197a12.203 12.203 0 013.655 3.655zM251.13 320.885c11.054 17.35-7.342 35.746-24.692 24.692a10.011 10.011 0 01-3.056-3.056c-11.054-17.35 7.342-35.746 24.692-24.692a10.011 10.011 0 013.056 3.056zM213.667 401.02c12.761 20.03-8.476 41.268-28.507 28.507a11.563 11.563 0 01-3.528-3.528c-12.761-20.03 8.476-41.268 28.507-28.507a11.563 11.563 0 013.528 3.528zM387.068 163.584s37.244 13.273 46.239 17.77c12.693 6.347 32.639-12.149 46.602 2.176 0 0-2.418-9.55-14.023-10.275 0 0 .242-9.429-10.638-8.946 0 0 7.979 5.803 3.385 9.913 0 0-3.143-7.011-12.089-5.803 0 0 6.77 2.66 5.077 6.77 0 0-10.759 5.198-15.594 1.813s-43.036-23.996-55.124-24.48l6.165 11.062z"/></g><path fill="#f5f5f5" d="M377.518 175.189s7.979 2.357 19.584 14.506c5.378 5.631 19.221 5.984 17.045-4.896s-29.013-17.589-31.914-17.589-4.715 7.979-4.715 7.979z"/><g fill="#fff5dc"><path d="M435.665 151.253l-15.232 5.077s1.692 10.336-7.012 14.869c-5.361 2.792-8.945 10.033-8.704 15.352 0 0 5.077-7.011 12.33-10.88 1.708-.911 3.282-1.71 4.717-2.52-.288 3.624-.366 7.43.119 10.741 1.451 9.912-1.693 13.297-1.693 13.297s8.462-6.528 7.495-17.165c-.372-4.087.299-6.983 1.339-9.181.749 7.408 4.705 10.874 4.705 10.874-2.901-5.803 3.143-12.09 5.561-17.167 2.419-5.078-3.625-13.297-3.625-13.297zM474.167 130.219c-5.997-2.04-11.786 1.632-15.232 4.715-1.466 1.312-5.333 1.979-9.288 2.337 2.641-1.869 5.451-4.074 6.93-5.964 3.264-4.171 9.248-4.896 14.325-6.528 5.077-1.632 7.253-8.16 7.253-8.16s-2.72 3.989-10.336 3.627c-7.616-.363-10.154-.725-15.232 4.715-1.56 1.672-3.748 2.966-6.014 4.005.048-2.377.254-5.4.937-7.45 1.269-3.808 7.072-6.891 7.435-14.506.363-7.616.725-6.891 5.077-11.424s5.621-13.056 4.352-10.336-7.072 5.984-11.968 10.517-1.451 9.61-3.989 13.6c-2.539 3.989-8.522 4.896-8.885 12.33-.363 7.435-5.621 11.786-5.621 11.786s-12.874 7.072 2.539 12.693c15.413 5.621 27.882-10.018 35.541-9.61 17.045.907 21.578-4.715 21.578-4.715-2.901 0-10.335 1.45-19.402-1.632zM287.216 249.655c-.967-.725-17.649-19.1-23.21-21.76l1.209 4.594s-3.627-.242-10.154-8.22-11.363-10.154-11.363-10.154 4.594 7.253 4.352 11.847c0 0-9.913-.725-20.551 4.352 0 0-4.835-9.429-8.946-11.122 0 0 1.451 9.913-1.934 12.33-3.385 2.418 31.914 19.1 36.75 19.584 4.834.483 33.847-1.451 33.847-1.451zM309.217 213.631c-.344-.086-2.128 1.169-4.43 2.813-1.018-5.871-3.065-17.742-3.065-18.287 0-.725-16.441-23.693-16.924-24.661-.008-.017-.063-.018-.074-.034 1.597-3.862 3.316-10.436-6.453-5.285-13.298 7.012-18.617 23.21-18.617 23.21 3.032-3.163 8.321-5.576 12.544-7.146.087 1.972.103 4.314-2.631 8.355-5.561 8.219-2.418 11.363-2.418 11.363 4.352-7.495 14.023-8.221 14.023-8.221-1.451 8.946 3.627 14.023 3.627 14.023l4.11-4.835c-.506 6.922 3.199 14.349 5.5 18.252-.91.439-1.74.776-2.357.847-4.11.484-10.638 3.627-10.638 3.627s5.29-1.128 8.294 1.193c3.003 2.32 7.782 4.096 10.376 3.55 0 0-1.229 6.28.137 8.602 0 0-3.413-.958-7.373-.82-3.96.137-6.841-2.611-6.841-2.611s7.253 10.395 12.573 12.571c5.319 2.176 14.506-5.803 14.506-5.803s-2.901-30.463-3.869-30.703zM184.221 365.222s-4.594.484-8.946 7.011l-1.934-6.77s-5.319 3.868-11.122 1.451c0 0 5.319-1.209 6.286-6.044s2.901-5.319 2.901-5.319-3.627-3.868-7.495-3.627c0 0 10.638-5.561 16.441-.242 5.803 5.32 3.869 13.54 3.869 13.54zM312.119 311.79s-4.594.484-8.946 7.011l-1.934-6.77s-5.319 3.868-11.122 1.451c0 0 5.319-1.209 6.286-6.044s2.901-5.319 2.901-5.319-3.627-3.868-7.495-3.627c0 0 10.638-5.561 16.441-.242 5.803 5.32 3.869 13.54 3.869 13.54zM390.539 243.007s-2.243 4.038.601 11.35l-6.652-2.305s.111 6.576-5.201 9.937c0 0 2.066-5.048-1.337-8.617s-2.688-5.43-2.688-5.43-5.25.747-7.274 4.052c0 0 1.558-11.902 9.245-13.597 7.688-1.695 13.306 4.61 13.306 4.61z"/></g><path fill="#ff6e55" d="M413.818 324.715l4.681 2.791c-1.362-1.17-2.978-2.049-4.681-2.791z"/><path fill="#fff5dc" d="M149.889 348.056s-21.518 30.222-46.179 36.75l8.704-11.122s-11.605 10.154-24.661 12.33l15.715-18.133S68.411 400.52 23.441 407.29c0 0 34.815-22.001 41.827-29.738 0 0-16.924 6.77-32.156 7.011 0 0 43.761-16.924 51.014-23.694 0 0-17.408 3.868-28.287.242 0 0 37.717-10.88 43.036-9.429 0 0-21.76-8.704-34.815-7.737 0 0 22.243-5.319 48.113 0l-5.561-6.044s14.748-3.868 29.255-4.835c14.506-.967 7.253-2.176 7.253-2.176l1.692-4.835s-9.429 1.209-17.166 0c0 0 23.21-13.056 29.738-18.858s2.176-3.143 2.176-3.143-12.089 4.11-16.441 4.835c0 0 10.88-12.572 14.265-20.792 0 0-9.913 3.868-18.375 0 0 0 10.154-2.901 15.232-7.979s12.572-17.71 12.572-17.71l-8.704 3.808s7.616-13.056 14.325-16.32c0 0-11.424.907-15.05-1.813 0 0 12.149-2.901 15.776-5.803 3.627-2.901 11.605-10.517 19.765-7.616 0 0 11.424-10.517 7.616-17.408 0 0 7.435.544 11.242 5.077 3.808 4.533 9.792 8.341 9.792 8.341l-31.068 24.298-23.694 76.884-16.924 16.2z"/><g fill="#f5f5f5"><path d="M454.281 202.992c8.946 14.506-2.176 15.957-2.176 15.957-1.692-13.781-13.297-12.088-13.297-12.088l3.143 10.154c-19.341 2.418-17.891-16.925-17.891-16.925-2.901 2.418-7.737 12.33-7.737 12.33s-52.223 17.408-87.522-34.331c0 0-.967-9.188 1.934-13.54l-21.76-16.44-28.046 3.869s-11.121 25.144 2.418 40.618c13.539 15.473 29.496 37.232 26.595 47.387-1.72 6.019-6.838 8.471-13.944 7.958-4.882-.352-10.702-2.103-17.003-5.057-15.474-7.253-53.191-22.726-80.269-10.154-27.078 12.573-30.016 34.328-35.299 51.257-4.676 14.987-15.054 53.244-88.983 88.149-3.531 1.667-1.735 7.035 2.055 6.093 32.047-7.969 75.736-21.243 89.225-36.942l10.88.363-3.989 16.682s14.144 4.352 16.32 25.024c0 0-24.782 6.769-10.759 28.045 0 0 2.176-15.474 19.341-16.199 0 0 3.869 5.077 12.33 5.803 0 0 4.352 7.012 2.176 12.815 0 0 17.166-5.319 2.66-25.871 0 0 16.199-3.867 18.375 16.442 0 0 10.397-32.882-26.716-30.463 0 0 0-5.803-9.792-16.32 0 0-2.417-5.924 0-14.144.727-2.473 1.385-5.04 1.935-7.658 2.015 1.118 5.117 2.441 9.186 2.581 0 0 6.045 9.912 23.936 8.219 0 0-13.056-6.043-11.847-17.648s16.441-17.892 22.969-13.298c0 0-1.693-15.232-25.386-5.319 0 0 0-11.363 12.572-12.088 0 0-20.309-15.474-24.902 14.023l-8.404 2.101c-4.106-11.383-9.307-37.809 13.722-47.433 24.298-10.154 49.684 12.693 94.654 14.869 0 0-4.352 26.474 10.154 33.002 14.506 6.528 50.047 12.693 50.047 12.693-.363 38.2 27.441 33.122 27.441 33.122-13.494-8.086-13.494-23.514-5.165-32.525 11.352-12.282 31.035-.597 31.035-.597-.277-18.593-26.353-15.716-26.353-15.716 4.11-12.088 20.309-15.232 20.309-15.232-22.485-8.219-41.102 16.079-41.102 16.079l-38.079-10.88s-1.451-7.616 7.616-17.77c9.066-10.154 16.682-27.199 14.144-45.332 0 0 10.517-7.375 23.573-.122s41.102-8.704 41.102-8.704c12.089 15.473 40.859 12.573 44.728-6.043 3.869-18.62-10.154-20.796-10.154-20.796z"/><path d="M414.389 158.506c-7.192-4.195-20.067-7.737-24.419 1.934s-9.187 19.342-24.177 18.858-21.76 12.33-32.156 8.704c0 0 9.671-3.143 11.605-7.737 1.934-4.594 9.671-13.056 9.671-13.056l-.967-8.704s-17.891.965-23.21 6.043-25.386-4.351-25.386-4.351l2.418-21.034s15.473-23.694 36.991-22.001 25.144-3.868 35.541-3.143c10.396.725 15.715 11.363 26.837 13.781 11.122 2.418 33.365-2.176 36.266 4.594s-5.561 9.429-7.737 18.858c-2.177 9.43-6.771 15.716-21.277 7.254z"/></g><g fill="#fff5dc"><path d="M351.528 152.462s-10.396 7.011-19.1 4.11-16.441-1.934-25.386.967c0 0 16.441-1.934 23.21 4.352 6.77 6.286 23.936 2.176 25.144-.484l-3.868-8.945z"/><path d="M356.847 168.661s-10.154 7.253-20.309 5.319c-10.154-1.934-19.342 2.176-19.342 2.176s7.495-8.22 17.649-6.77c10.154 1.451 13.781-8.462 13.781-8.462l6.77.484 1.451 7.253z"/><path d="M376.033 151.306c8.542 13.579-5.796 27.917-19.375 19.375a8.17 8.17 0 01-2.557-2.557c-8.542-13.579 5.796-27.917 19.375-19.375a8.18 8.18 0 012.557 2.557z"/><path d="M357.088 149.561s-5.319-6.77-18.617-4.11-16.441-2.176-16.441-2.176 6.286 9.671 16.199 8.462 14.023 5.561 14.023 5.561l4.836-7.737zM401.822 132.631c1.195-1.648 2.698-3.217 4.753-4.413 1.212-.705 2.459-1.151 3.693-1.517.275-1.835.005-3.816-1.042-5.613-2.285-3.923-7.037-5.412-10.614-3.329-3.576 2.084-4.624 6.952-2.338 10.875 1.283 2.203 3.353 3.53 5.548 3.997zM389.946 148.208c.68-1.919 1.677-3.849 3.31-5.578.963-1.02 2.033-1.799 3.113-2.5-.256-1.838-1.075-3.661-2.588-5.089-3.302-3.116-8.281-3.2-11.122-.19s-2.468 7.976.835 11.092c1.854 1.751 4.215 2.438 6.452 2.265z"/></g></svg>