<svg xmlns="http://www.w3.org/2000/svg" x="0" y="0" enable-background="new 0 0 512.001 512.001" version="1.1" viewBox="0 0 512.001 512.001" xml:space="preserve"><g fill="#F5F5F5"><path d="M503.172 423.724H8.828A8.828 8.828 0 0 1 0 414.896V97.103a8.828 8.828 0 0 1 8.828-8.828h494.345a8.828 8.828 0 0 1 8.828 8.828v317.793a8.829 8.829 0 0 1-8.829 8.828z"/><path d="M114.76 0H397.24V512H114.76z"/></g><g fill="#FF4B55"><path d="M0 0H114.76V512H0z"/><path d="M397.24 0H512V512H397.24z"/><path d="m309.57 294.76 52.383-29.933-12.02-6.01a8.827 8.827 0 0 1-4.802-9.063l3.911-29.322-22.177 6.452c-4.899 1.425-9.983-1.587-11.085-6.569l-2.124-9.6-20.823 24.37c-2.886 3.378-8.386.797-7.633-3.581l8.892-51.708-13.615 3.724a8.827 8.827 0 0 1-10.117-4.359l-14.337-26.871v-.039l-.01.02-.011-.02v.039l-14.337 26.871a8.827 8.827 0 0 1-10.117 4.359l-13.615-3.724 8.892 51.708c.753 4.379-4.747 6.959-7.633 3.581l-20.823-24.37-2.124 9.6c-1.102 4.982-6.186 7.994-11.085 6.569l-22.178-6.452 3.911 29.322a8.83 8.83 0 0 1-4.802 9.063l-12.02 6.01 52.383 29.933a12.746 12.746 0 0 1 5.615 15.53l-4.478 11.977 44.885-3.832a4.172 4.172 0 0 1 4.525 4.279l-1.413 48.043h8.828l-1.413-48.045a4.171 4.171 0 0 1 4.525-4.279l44.906 3.834-4.478-11.977a12.744 12.744 0 0 1 5.614-15.53z"/></g></svg>