<svg xmlns="http://www.w3.org/2000/svg" x="0" y="0" enable-background="new 0 0 512 512" version="1.1" viewBox="0 0 512 512" xml:space="preserve"><path fill="#82AFFF" d="M0 0H512V512H0z"/><g fill="#FFE15A"><path d="M477.867 0 0 377.263 0 404.211 512 0z"/><path d="M34.133 512 512 134.737 512 107.789 0 512z"/></g><path fill="#FF4B55" d="M512 0 0 404.211 0 512 512 107.789z"/><path fill="#FFE15A" d="M122.682 61.068 135.4 99.203l40.199.312c2.248.017 3.18 2.886 1.372 4.221l-32.338 23.88 12.126 38.328c.678 2.143-1.762 3.916-3.591 2.609l-32.705-23.376-32.705 23.376c-1.829 1.307-4.269-.466-3.591-2.609l12.126-38.328-32.338-23.88c-1.808-1.335-.876-4.204 1.372-4.221l40.199-.312 12.719-38.135c.709-2.132 3.726-2.132 4.437 0z"/></svg>