<svg xmlns="http://www.w3.org/2000/svg" x="0" y="0" enable-background="new 0 0 512 512" version="1.1" viewBox="0 0 512 512" xml:space="preserve"><g fill="#41479B"><path d="M0 0H512V512H0z"/><path d="M94.316.046 0 .046 0 20.023 94.316 81.816z"/><path d="M0 68.345 0 94.362 39.71 94.362z"/><path d="M0 161.73 0 187.747 39.71 161.73z"/><path d="M256 20.023 256 .046 161.684.046 161.684 81.816z"/><path d="M256 187.747 256 161.73 216.29 161.73z"/><path d="M161.684 174.276 161.684 256.046 256 256.046 256 236.069z"/><path d="M256 94.362 256 68.345 216.29 94.362z"/><path d="M0 236.069 0 256.046 94.316 256.046 94.316 174.276z"/></g><g fill="#F5F5F5"><path d="M256 236.069 256 216.105 172.232 161.73 196.98 161.73 256 200.041 256 187.747 216.29 161.73 256 161.73 256 148.256 148.211 148.256 148.211 256.046 161.684 256.046 161.684 174.276z"/><path d="M0 148.256 0 161.73 39.71 161.73 0 187.747 0 206.648 69.197 161.73 93.945 161.73 0 222.712 0 236.069 94.316 174.276 94.316 256.046 107.789 256.046 107.789 148.256z"/><path d="M107.789.046 94.316.046 94.316 81.816 0 20.023 0 41.885 80.842 94.362 56.094 94.362 0 57.95 0 68.345 39.71 94.362 0 94.362 0 107.836 107.789 107.836z"/><path d="M256 107.836 256 94.362 216.29 94.362 256 68.345 256 49.203 186.432 94.362 161.684 94.362 256 33.139 256 20.023 161.684 81.816 161.684.046 148.211.046 148.211 107.836z"/></g><g fill="#FF4B55"><path d="M256 148.256 256 107.836 148.211 107.836 148.211.046 107.789.046 107.789 107.836 0 107.836 0 148.256 107.789 148.256 107.789 256.046 148.211 256.046 148.211 148.256z"/><path d="M69.197 161.73 0 206.648 0 222.712 93.945 161.73z"/><path d="M172.232 161.73 256 216.105 256 200.041 196.98 161.73z"/><path d="M80.842 94.362 0 41.885 0 57.95 56.094 94.362z"/><path d="M186.432 94.362 256 49.203 256 33.139 161.684 94.362z"/></g><g fill="#F5F5F5"><path d="m366.172 241.595 3.447 10.335 10.895.084c.844.007 1.194 1.084.515 1.585l-8.764 6.472 3.286 10.387c.255.805-.662 1.47-1.348.98l-8.863-6.335-8.863 6.335c-.687.491-1.603-.175-1.348-.98l3.286-10.387-8.764-6.472c-.679-.501-.329-1.579.515-1.585l10.895-.084 3.447-10.335c.264-.8 1.397-.8 1.664 0zM319.847 254.307l7.353 8.04 9.987-4.354c.774-.337 1.532.504 1.115 1.239l-5.374 9.477 7.227 8.153c.56.632-.006 1.612-.833 1.443l-10.674-2.182-5.52 9.393c-.428.728-1.535.492-1.63-.346l-1.223-10.826-10.639-2.348c-.824-.182-.943-1.308-.174-1.658l9.918-4.508-1.055-10.844c-.083-.841.952-1.302 1.522-.679zM282.697 284.762l9.987 4.354 7.353-8.04c.57-.623 1.604-.162 1.523.678l-1.055 10.844 9.918 4.508c.768.349.65 1.476-.174 1.658l-10.639 2.348-1.223 10.826c-.095.839-1.203 1.074-1.63.346l-5.52-9.393-10.674 2.182c-.827.169-1.393-.812-.833-1.443l7.227-8.153-5.375-9.477c-.417-.734.341-1.575 1.115-1.238zM261.146 327.694l10.895-.084 3.447-10.335c.267-.801 1.4-.801 1.667 0l3.447 10.335 10.895.084c.844.007 1.194 1.084.515 1.585l-8.764 6.472 3.286 10.387c.255.805-.662 1.47-1.348.98l-8.863-6.335-8.863 6.335c-.687.491-1.603-.175-1.348-.98l3.286-10.387-8.764-6.472c-.682-.501-.332-1.579.512-1.585zM258.92 375.68l9.918-4.508-1.055-10.844c-.082-.84.953-1.301 1.523-.678l7.353 8.04 9.987-4.354c.774-.337 1.532.504 1.115 1.239l-5.374 9.477 7.227 8.153c.56.632-.006 1.612-.833 1.443l-10.674-2.182-5.52 9.393c-.428.728-1.535.492-1.63-.347l-1.223-10.826-10.639-2.348c-.825-.183-.943-1.309-.175-1.658zM276.405 420.422l7.227-8.153-5.374-9.477c-.416-.734.341-1.576 1.115-1.239l9.987 4.354 7.353-8.04c.57-.623 1.604-.162 1.523.678l-1.055 10.844 9.918 4.508c.768.349.65 1.476-.174 1.658l-10.639 2.348-1.223 10.826c-.095.839-1.203 1.074-1.63.347l-5.52-9.393-10.674 2.182c-.828.17-1.394-.811-.834-1.443zM310.576 454.185l3.286-10.387-8.764-6.472c-.679-.501-.329-1.579.515-1.585l10.895-.084 3.447-10.335c.267-.801 1.4-.801 1.667 0l3.447 10.335 10.895.084c.844.007 1.194 1.084.515 1.585l-8.764 6.472L331 454.185c.255.805-.662 1.47-1.348.98l-8.863-6.335-8.863 6.335c-.688.491-1.605-.175-1.35-.98zM355.525 471.13l-1.223-10.826-10.639-2.348c-.824-.182-.943-1.308-.174-1.658l9.918-4.508-1.055-10.844c-.082-.84.953-1.301 1.523-.678l7.353 8.04 9.987-4.354c.774-.337 1.532.504 1.115 1.239l-5.374 9.477 7.227 8.153c.56.632-.006 1.612-.833 1.443l-10.674-2.182-5.52 9.393c-.428.727-1.536.492-1.631-.347zM403.481 468.328l-5.52-9.393-10.674 2.182c-.827.169-1.393-.812-.833-1.443l7.227-8.153-5.374-9.477c-.416-.734.341-1.576 1.115-1.239l9.987 4.354 7.353-8.04c.57-.623 1.604-.162 1.523.678l-1.055 10.844 9.918 4.508c.768.349.65 1.476-.174 1.658l-10.639 2.348-1.223 10.826c-.095.839-1.203 1.075-1.631.347zM446.151 446.262l-8.863-6.335-8.863 6.335c-.687.491-1.603-.175-1.348-.98l3.286-10.387-8.764-6.472c-.679-.501-.329-1.579.515-1.585l10.895-.084 3.447-10.335c.267-.801 1.4-.801 1.667 0l3.447 10.335 10.895.084c.844.007 1.194 1.084.515 1.585l-8.764 6.472 3.286 10.387c.252.806-.664 1.471-1.351.98zM476.157 408.749l-10.674-2.182-5.52 9.393c-.428.728-1.535.492-1.63-.346l-1.223-10.826-10.639-2.348c-.824-.182-.943-1.308-.174-1.658l9.918-4.508-1.055-10.844c-.082-.84.953-1.301 1.523-.678l7.353 8.04 9.987-4.354c.774-.337 1.532.504 1.115 1.239l-5.374 9.477 7.227 8.153c.559.631-.007 1.611-.834 1.442zM488.311 362.275l-10.639 2.348-1.223 10.826c-.095.839-1.203 1.074-1.63.347l-5.52-9.393-10.674 2.182c-.827.169-1.393-.812-.833-1.443l7.227-8.153-5.374-9.477c-.416-.734.341-1.576 1.115-1.239l9.987 4.354 7.353-8.04c.57-.623 1.604-.162 1.523.678l-1.055 10.844 9.918 4.508c.767.35.649 1.476-.175 1.658zM480.511 314.875l-8.764 6.472 3.286 10.387c.255.805-.662 1.47-1.348.98l-8.863-6.335-8.863 6.335c-.687.491-1.603-.175-1.348-.98l3.286-10.387-8.764-6.472c-.679-.501-.329-1.579.515-1.585l10.895-.084 3.447-10.335c.267-.801 1.4-.801 1.667 0l3.447 10.335 10.895.084c.841.006 1.191 1.083.512 1.585zM454.106 274.745l-5.374 9.477 7.227 8.153c.56.632-.006 1.612-.833 1.443l-10.674-2.182-5.52 9.393c-.428.728-1.535.492-1.63-.347l-1.223-10.826-10.639-2.348c-.824-.182-.943-1.308-.174-1.658l9.918-4.508-1.055-10.844c-.082-.84.953-1.301 1.523-.678l7.353 8.04 9.987-4.354c.773-.337 1.531.505 1.114 1.239zM413.662 248.825l-1.055 10.844 9.918 4.508c.768.349.65 1.476-.174 1.658l-10.639 2.348-1.223 10.826c-.095.839-1.203 1.074-1.63.347l-5.52-9.393-10.674 2.182c-.827.169-1.393-.812-.833-1.443l7.227-8.153-5.374-9.477c-.416-.734.341-1.576 1.115-1.239l9.987 4.354 7.353-8.04c.569-.623 1.604-.162 1.522.678z"/><path d="m366.172 241.595 3.447 10.335 10.895.084c.844.007 1.194 1.084.515 1.585l-8.764 6.472 3.286 10.387c.255.805-.662 1.47-1.348.98l-8.863-6.335-8.863 6.335c-.687.491-1.603-.175-1.348-.98l3.286-10.387-8.764-6.472c-.679-.501-.329-1.579.515-1.585l10.895-.084 3.447-10.335c.264-.8 1.397-.8 1.664 0z"/></g></svg>