<svg xmlns="http://www.w3.org/2000/svg" x="0" y="0" enable-background="new 0 0 512 512" version="1.1" viewBox="0 0 512 512" xml:space="preserve"><path fill="#FF4B55" d="M0 175.16H512V336.84000000000003H0z"/><path fill="#41479B" d="M0 0H512V87.58H0z"/><path fill="#F5F5F5" d="M0 87.58H512V175.16H0z"/><path fill="#41479B" d="M0 424.42H512V512H0z"/><g fill="#F5F5F5"><path d="M0 336.84H512V424.41999999999996H0z"/><ellipse cx="117.02" cy="256" rx="63.02" ry="67.37"/></g><path fill="#3CC8FF" d="M84.42 229.92H149.61V262.518H84.42z"/><path fill="#FFE15A" d="M93.117 248.458 93.861 255.65 96.791 249.04 95.276 256.109 100.105 250.729 96.48 256.984 102.735 253.359 97.354 258.188 104.423 256.673 97.814 259.602 105.005 260.346 97.814 261.09 104.423 264.02 97.354 262.505 102.735 267.334 96.48 263.709 100.105 269.964 95.276 264.583 96.791 271.653 93.861 265.043 93.117 272.234 92.373 265.043 89.444 271.653 90.958 264.583 86.129 269.964 89.755 263.709 83.499 267.334 88.88 262.505 81.811 264.02 88.42 261.09 81.229 260.346 88.42 259.602 81.811 256.673 88.88 258.188 83.499 253.359 89.755 256.984 86.129 250.729 90.958 256.109 89.444 249.04 92.373 255.65z"/><path fill="#41479B" d="M130.061 308.156 103.983 308.156 80.078 288.598 80.078 260.346 156.139 260.346 156.139 288.598z"/><path fill="#73AF00" d="M143.1 251.654h-.003c-.007-.594-.489-1.074-1.084-1.074s-1.077.48-1.084 1.074h-.003c0 3.772-2.185 8.988-4.866 12.724-3.742-4.725-5.15-10.205-5.68-13.655a2.448 2.448 0 0 0-3.522-1.814c-.717.359-1.2 1.059-1.324 1.851-1.664 10.658-6.688 15.187-9.941 17.049-4.871-4.709-6.476-12.33-7.005-16.835a2.533 2.533 0 0 0-3.657-1.968 2.56 2.56 0 0 0-1.27 1.497c-6.816 20.778-25.757 22.883-25.757 22.883v6.52h76.061v-10.865c-8.692-2.175-10.865-17.387-10.865-17.387z"/><g fill="#F0AA00"><path d="M153.966 232.095c-8.693-4.346-8.693-8.693-8.693-8.693s-10.866-4.346-19.559-4.346c0 0 2.173-4.346-2.173-4.346h-13.04c-4.347 0-2.173 4.346-2.173 4.346-8.693 0-19.559 4.346-19.559 4.346s0 4.346-8.693 8.693-8.693 14.126-8.693 14.126a3.26 3.26 0 1 0 6.52 0c0-.371-.075-.722-.19-1.055l.19-.032 21.732-15.212h34.77l21.732 15.212.19.032c-.114.333-.19.684-.19 1.055a3.26 3.26 0 1 0 6.52 0c.002 0 .002-9.78-8.691-14.126z"/><path d="M160.486 258.173c-2.173 0-8.693 0-8.693-6.52s8.693-6.52 8.693-6.52l-13.039-4.346C143.1 256 151.793 256 151.793 275.559c0 17.521-19.559 28.251-26.078 28.251-6.52 0-8.693 4.346-8.693 4.346s-2.173-4.346-8.693-4.346-26.078-10.731-26.078-28.251c0-19.559 8.693-19.559 4.346-34.771l-13.039 4.346s8.693 0 8.693 6.52-6.52 6.52-8.693 6.52-10.866 0-10.866 10.866 10.866 23.905 26.078 32.598 8.693 17.385 28.251 17.385 13.039-8.693 28.251-17.385c15.212-8.693 26.078-21.732 26.078-32.598s-8.691-10.867-10.864-10.867z"/></g><g fill="#73AF00"><path d="m112.676 224.159-5.257-2.362a4.353 4.353 0 0 0-2.772-.269c-3.389.783-11.795 3.358-18.049 10.567l6.52 2.173 19.558-10.109zM121.368 224.159l5.257-2.362a4.353 4.353 0 0 1 2.772-.269c3.389.783 11.795 3.358 18.049 10.567l-6.52 2.173-19.558-10.109z"/><path d="m117.79 225.576 3.962-3.962a.543.543 0 0 0-.768-.768l-3.962 3.962-3.962-3.962a.543.543 0 0 0-.768.768l3.962 3.962-3.962 3.962a.543.543 0 0 0 .768.768l3.962-3.962 3.962 3.962a.541.541 0 0 0 .768 0 .543.543 0 0 0 0-.768l-3.962-3.962z"/></g><path fill="#F5F5F5" d="M160.486 245.134c0-3.698-3.494-5.296-6.52-5.989v-1.721c-4.091-.383-6.374-1.921-10.341-4.623-1.528-1.042-3.261-2.222-5.352-3.493-7.641-4.642-13.515-5.312-16.905-5.15v3.59h-8.693v-3.59c-3.39-.162-9.264.508-16.905 5.15-2.091 1.271-3.824 2.451-5.352 3.493-3.967 2.702-6.249 4.24-10.341 4.623v1.721c-3.026.693-6.52 2.291-6.52 5.989l6.52-2.173v.991c6.167-.454 9.694-2.822 14.011-5.762 1.463-.997 3.121-2.126 5.067-3.309 4.963-3.017 8.82-3.95 11.347-4.17v3.557h13.039v-3.557c2.526.22 6.384 1.153 11.347 4.17 1.946 1.182 3.604 2.311 5.067 3.309 4.317 2.94 7.844 5.308 14.011 5.762v-.991l6.52 2.173z"/><path fill="#3CC8FF" d="M143.1 210.879v-2.689h-6.054c1.058-.908 1.707-1.978 1.707-3.26 0-6.004-13.66-7.606-21.732-7.606s-21.732 1.602-21.732 7.606c0 1.282.65 2.352 1.707 3.26h-6.054v2.689c-5.32 1.187-9.67 4.043-9.898 4.195l2.411 3.616c.059-.04 6.039-3.981 11.834-3.981v-2.173h43.463v2.173c5.795 0 11.774 3.941 11.834 3.981l2.411-3.616c-.227-.152-4.576-3.008-9.897-4.195zm-17.385-3.29v-1.651c0-1.064-1-1.844-2.032-1.586l-6.661 1.665-6.661-1.665a1.636 1.636 0 0 0-2.032 1.586v1.651c-4.882-.717-7.769-1.911-8.556-2.658 1.176-1.116 6.934-3.26 17.249-3.26s16.073 2.143 17.249 3.26c-.787.746-3.674 1.941-8.556 2.658z"/><g fill="#F5F5F5"><path d="m117.293 235.089.551 1.651 1.74.013a.234.234 0 0 1 .137.423l-1.4 1.034.525 1.659a.235.235 0 0 1-.36.262l-1.416-1.012-1.416 1.012a.235.235 0 0 1-.36-.262l.525-1.659-1.4-1.034a.234.234 0 0 1 .137-.423l1.74-.013.551-1.651c.073-.214.375-.214.446 0zM108.774 235.645l.721 1.584 1.732-.169a.234.234 0 0 1 .181.406l-1.284 1.175.696 1.595a.235.235 0 0 1-.331.298l-1.514-.858-1.302 1.155a.234.234 0 0 1-.385-.222l.348-1.705-1.501-.881c-.194-.114-.132-.41.092-.435l1.729-.196.374-1.7c.05-.22.351-.252.444-.047zM100.026 237.976l1.047 1.39 1.655-.54a.235.235 0 0 1 .265.358l-.999 1.425 1.025 1.407a.234.234 0 0 1-.258.362l-1.664-.509-1.021 1.41a.234.234 0 0 1-.424-.134l-.03-1.74-1.656-.535a.235.235 0 0 1-.004-.445l1.646-.566-.003-1.741a.234.234 0 0 1 .421-.142zM91.258 241.672l1.222 1.24 1.568-.755a.234.234 0 0 1 .31.319l-.801 1.545 1.202 1.258a.234.234 0 0 1-.208.393l-1.717-.285-.825 1.532c-.107.198-.405.147-.438-.076l-.26-1.721-1.712-.311a.234.234 0 0 1-.063-.44l1.557-.779-.233-1.725a.233.233 0 0 1 .398-.195zM125.368 235.645l-.721 1.584-1.732-.169a.234.234 0 0 0-.181.406l1.284 1.175-.696 1.595a.235.235 0 0 0 .331.298l1.514-.858 1.302 1.155c.169.15.43-.002.385-.222l-.348-1.705 1.501-.881c.194-.114.132-.41-.092-.435l-1.729-.196-.374-1.7c-.05-.22-.351-.252-.444-.047zM134.116 237.976l-1.047 1.39-1.655-.54a.235.235 0 0 0-.265.358l.999 1.425-1.025 1.407a.234.234 0 0 0 .258.362l1.664-.509 1.021 1.41a.234.234 0 0 0 .424-.134l.03-1.74 1.656-.535a.235.235 0 0 0 .004-.445l-1.646-.566.003-1.741a.234.234 0 0 0-.421-.142zM142.884 241.672l-1.222 1.24-1.568-.755a.234.234 0 0 0-.31.319l.801 1.545-1.202 1.258a.234.234 0 0 0 .208.393l1.717-.285.825 1.532c.107.198.405.147.438-.076l.26-1.721 1.712-.311a.234.234 0 0 0 .063-.44l-1.557-.779.233-1.725a.233.233 0 0 0-.398-.195z"/></g><path fill="#8C5A28" d="M102.014 287.239 113.083 294.642 126.462 294.642 132.642 289.345 127.888 291.246 112.132 291.246z"/><path fill="#F5F5F5" d="m109.552 277.686-1.068 10.775-4.863-1.856c0 .001 2.237-5.192 5.931-8.919z"/><g fill="#8C5A28"><path d="M119.15 273.42H119.869V291.769H119.15z"/><path d="M125.8 274.97H126.51899999999999V291.766H125.8z"/><path d="M112.52 274.97H113.23899999999999V291.766H112.52z"/></g><g fill="#F5F5F5"><path d="M122.041 290.024h-5.062a.491.491 0 0 1-.491-.491v-2.889c0-.271.22-.491.491-.491h5.062c.271 0 .491.22.491.491v2.889a.492.492 0 0 1-.491.491zM122.041 284.862h-5.062a.491.491 0 0 1-.491-.491v-2.889c0-.271.22-.491.491-.491h5.062c.271 0 .491.22.491.491v2.889a.491.491 0 0 1-.491.491zM122.041 280.109h-5.062a.491.491 0 0 1-.491-.491v-2.889c0-.271.22-.491.491-.491h5.062c.271 0 .491.22.491.491v2.889a.492.492 0 0 1-.491.491zM128.282 290.024h-4.247a.491.491 0 0 1-.491-.491v-2.889c0-.271.22-.491.491-.491h4.247c.271 0 .491.22.491.491v2.889c0 .271-.22.491-.491.491zM128.282 285.272h-4.247a.491.491 0 0 1-.491-.491v-2.283c0-.271.22-.491.491-.491h4.247c.271 0 .491.22.491.491v2.283c0 .271-.22.491-.491.491zM128.282 280.561h-4.247a.491.491 0 0 1-.491-.491v-1.758c0-.271.22-.491.491-.491h4.247c.271 0 .491.22.491.491v1.758a.49.49 0 0 1-.491.491zM115.004 290.024h-4.247a.491.491 0 0 1-.491-.491v-2.889c0-.271.22-.491.491-.491h4.247c.271 0 .491.22.491.491v2.889c0 .271-.22.491-.491.491zM115.004 285.272h-4.247a.491.491 0 0 1-.491-.491v-2.283c0-.271.22-.491.491-.491h4.247c.271 0 .491.22.491.491v2.283c0 .271-.22.491-.491.491zM115.004 280.561h-4.247a.491.491 0 0 1-.491-.491v-1.758c0-.271.22-.491.491-.491h4.247c.271 0 .491.22.491.491v1.758a.49.49 0 0 1-.491.491z"/><path d="M113.239 274.972 113.239 277.142 116.434 276.037z"/><path d="M126.508 274.972 126.508 277.142 129.703 276.037z"/><path d="M119.861 273.412 119.861 275.583 123.056 274.478z"/></g><path fill="#8C5A28" d="M111.373 258.748 115.219 261.32 119.867 261.32 122.014 259.479 120.363 260.14 114.889 260.14z"/><path fill="#F5F5F5" d="m113.992 255.429-.371 3.744-1.689-.645s.777-1.804 2.06-3.099z"/><g fill="#8C5A28"><path d="M117.33 253.95H117.58V260.325H117.33z"/><path d="M119.64 254.49H119.89V260.325H119.64z"/><path d="M115.02 254.49H115.27V260.325H115.02z"/></g><g fill="#F5F5F5"><path d="M118.331 259.715h-1.759a.17.17 0 0 1-.171-.171v-1.004a.17.17 0 0 1 .171-.171h1.759a.17.17 0 0 1 .171.171v1.004a.17.17 0 0 1-.171.171zM118.331 257.922h-1.759a.17.17 0 0 1-.171-.171v-1.004a.17.17 0 0 1 .171-.171h1.759a.17.17 0 0 1 .171.171v1.004a.17.17 0 0 1-.171.171zM118.331 256.271h-1.759a.17.17 0 0 1-.171-.171v-1.004a.17.17 0 0 1 .171-.171h1.759a.17.17 0 0 1 .171.171v1.004a.172.172 0 0 1-.171.171zM120.5 259.715h-1.476a.17.17 0 0 1-.171-.171v-1.004a.17.17 0 0 1 .171-.171h1.476a.17.17 0 0 1 .171.171v1.004a.172.172 0 0 1-.171.171zM120.5 258.065h-1.476a.17.17 0 0 1-.171-.171v-.793a.17.17 0 0 1 .171-.171h1.476a.17.17 0 0 1 .171.171v.793a.172.172 0 0 1-.171.171zM120.5 256.428h-1.476a.17.17 0 0 1-.171-.171v-.611a.17.17 0 0 1 .171-.171h1.476a.17.17 0 0 1 .171.171v.611a.172.172 0 0 1-.171.171zM115.886 259.715h-1.476a.17.17 0 0 1-.171-.171v-1.004a.17.17 0 0 1 .171-.171h1.476a.17.17 0 0 1 .171.171v1.004a.17.17 0 0 1-.171.171zM115.886 258.065h-1.476a.17.17 0 0 1-.171-.171v-.793a.17.17 0 0 1 .171-.171h1.476a.17.17 0 0 1 .171.171v.793a.17.17 0 0 1-.171.171zM115.886 256.428h-1.476a.17.17 0 0 1-.171-.171v-.611a.17.17 0 0 1 .171-.171h1.476a.17.17 0 0 1 .171.171v.611a.17.17 0 0 1-.171.171z"/><path d="M115.273 254.486 115.273 255.24 116.383 254.856z"/><path d="M119.883 254.486 119.883 255.24 120.993 254.856z"/><path d="M117.574 253.944 117.574 254.698 118.684 254.314z"/><path d="M109.404 247.307h-4.323a1.101 1.101 0 0 1-1.098-1.098v-1.503c0-.604.494-1.098 1.098-1.098h4.323c.604 0 1.098.494 1.098 1.098v1.503a1.1 1.1 0 0 1-1.098 1.098zM130.855 247.307h-3.363a1.099 1.099 0 0 1-1.098-1.098v-1.503c0-.606.492-1.098 1.098-1.098h3.363c.606 0 1.098.492 1.098 1.098v1.503c0 .607-.492 1.098-1.098 1.098zM143.746 250.092h-2.497a.628.628 0 0 1-.628-.628v-1.034c0-.347.281-.628.628-.628h2.497c.347 0 .628.281.628.628v1.034a.628.628 0 0 1-.628.628z"/></g></svg>