<svg xmlns="http://www.w3.org/2000/svg" x="0" y="0" enable-background="new 0 0 512 512" version="1.1" viewBox="0 0 512 512" xml:space="preserve"><path fill="#41479B" d="M0 0H512V512H0z"/><g fill="#F5F5F5"><path d="M0 296.42H512V332.35H0z"/><path d="M0 368.28H512V404.21H0z"/></g><path fill="#FF4B55" d="M0 332.35H512V368.28000000000003H0z"/><g fill="#FFE15A"><path d="m185.465 223.434 4.133 12.391 13.062.101c1.012.008 1.432 1.299.617 1.9l-10.508 7.759 3.94 12.454c.305.965-.793 1.763-1.617 1.174l-10.627-7.596-10.627 7.596c-.823.588-1.922-.21-1.617-1.174l3.94-12.454-10.508-7.759c-.814-.601-.394-1.893.617-1.9l13.062-.101 4.133-12.391c.322-.96 1.679-.96 2 0zM185.465 441.174l4.133 12.391 13.062.101c1.012.008 1.432 1.299.617 1.9l-10.508 7.759 3.94 12.454c.305.965-.793 1.763-1.617 1.174l-10.627-7.596-10.627 7.596c-.823.588-1.922-.21-1.617-1.174l3.94-12.454-10.508-7.759c-.814-.601-.394-1.893.617-1.9l13.062-.101 4.133-12.391c.322-.96 1.679-.96 2 0zM114.785 453.342l10.503-7.765L136.035 453c.833.575 1.918-.241 1.597-1.2l-4.139-12.389 10.382-7.927c.804-.614.364-1.899-.648-1.89l-13.062.109-4.331-12.323c-.336-.955-1.693-.933-1.998.032l-3.933 12.456-13.058.311c-1.012.024-1.41 1.322-.587 1.91l10.631 7.59-3.739 12.515c-.29.969.821 1.749 1.635 1.148zM135.791 276.332l-10.665-7.542-10.588 7.649c-.82.593-1.923-.2-1.622-1.166l3.877-12.473-10.546-7.706c-.817-.597-.404-1.891.608-1.903l13.061-.167 4.07-12.412c.315-.962 1.673-.968 1.998-.01l4.195 12.37 13.062.036c1.012.003 1.438 1.292.627 1.897l-10.468 7.812 4.003 12.434c.309.962-.786 1.766-1.612 1.181zM234.159 276.492l10.503-7.765 10.747 7.424c.833.575 1.918-.241 1.598-1.2l-4.14-12.389 10.382-7.927c.804-.614.364-1.899-.648-1.89l-13.062.109-4.331-12.323c-.336-.955-1.693-.933-1.998.032l-3.933 12.456-13.058.311c-1.012.024-1.41 1.322-.587 1.91l10.631 7.59-3.739 12.515c-.29.968.821 1.749 1.635 1.147zM255.166 453.182l-10.665-7.542-10.588 7.649c-.82.593-1.923-.2-1.622-1.166l3.877-12.473-10.546-7.706c-.817-.597-.404-1.891.608-1.903l13.061-.167 4.07-12.412c.315-.962 1.673-.968 1.998-.01l4.195 12.37 13.062.036c1.012.003 1.438 1.292.627 1.897l-10.468 7.812 4.003 12.434c.308.961-.786 1.765-1.612 1.181zM99.163 377.077l-13.062.087-4.31-12.33c-.334-.955-1.692-.936-1.998.029l-3.954 12.449-13.059.289c-1.012.022-1.413 1.32-.59 1.909l10.618 7.607-3.76 12.509c-.291.969.819 1.751 1.633 1.151l10.516-7.748 10.735 7.442c.832.577 1.919-.237 1.599-1.198l-4.119-12.396 10.395-7.91c.806-.611.368-1.897-.644-1.89zM62.783 309.943l13.06-.247 3.994-12.436c.309-.963 1.667-.979 1.998-.022l4.27 12.344 13.062-.044c1.012-.003 1.446 1.283.639 1.893l-10.421 7.876 4.078 12.409c.316.961-.774 1.772-1.603 1.192l-10.711-7.477-10.541 7.713c-.817.598-1.924-.188-1.63-1.156l3.801-12.497-10.593-7.642c-.82-.591-.415-1.887.597-1.906zM306.12 309.461l-13.062.087-4.31-12.33c-.334-.955-1.692-.936-1.998.029l-3.954 12.449-13.059.289c-1.012.022-1.413 1.32-.59 1.909l10.618 7.607-3.76 12.509c-.291.969.819 1.751 1.633 1.151l10.516-7.748 10.735 7.442c.832.577 1.919-.237 1.599-1.198l-4.119-12.396 10.395-7.91c.806-.612.368-1.897-.644-1.89zM269.74 377.56l13.06-.247 3.994-12.436c.309-.963 1.667-.979 1.998-.022l4.27 12.344 13.062-.044c1.012-.003 1.446 1.283.639 1.893l-10.421 7.876 4.078 12.409c.316.961-.774 1.772-1.603 1.192l-10.711-7.477-10.541 7.713c-.817.598-1.924-.188-1.63-1.156l3.801-12.497-10.593-7.642c-.82-.591-.415-1.887.597-1.906z"/></g></svg>