<svg xmlns="http://www.w3.org/2000/svg" x="0" y="0" enable-background="new 0 0 512 512" version="1.1" viewBox="0 0 512 512" xml:space="preserve"><path fill="#73AF00" d="M0 0H512V512H0z"/><path fill="#FFE15A" d="M0 202.1H512V238.03H0z"/><path fill="#464655" d="M0 238.03H512V273.96H0z"/><path fill="#F5F5F5" d="M0 273.96H512V309.89H0z"/><path fill="#FFE15A" d="M202.1 0H238.03V512H202.1z"/><path fill="#464655" d="M238.03 0H273.96V512H238.03z"/><path fill="#F5F5F5" d="M273.96 0H309.89V512H273.96z"/><path fill="#FF4B55" d="M364.756 171.727c85.917 135.501-57.528 278.945-193.029 193.029a79.29 79.29 0 0 1-24.484-24.484c-85.916-135.5 57.529-278.945 193.03-193.028a79.295 79.295 0 0 1 24.483 24.483z"/><path fill="#73AF00" d="M244.432 279.176s-1.573 11.014 9.126 27.378h20.769l-4.72-19.825-25.175-7.553z"/><path fill="#A561CD" d="M242.963 205.434s-33.986 55.595 15.944 88.742l5.245-31.469 3.357-40.7-5.245-17.413-19.301.84z"/><path fill="#73AF00" d="M242.964 205.433s-3.884 6.467-7.102 16.197c4.374 4.573 16.333 10.238 31.039 7.755l.609-7.378-5.246-17.413-19.3.839z"/><path fill="#A561CD" d="M236.46 197.462s.418-11.119 11.329-11.119c13.637 0 24.756 3.147 42.378 39.651 0 0-15.674 15.385-25.595-5.874-2.937-6.294-3.986-13.846-3.986-13.846s-12.168 4.196-20.56-.629l-3.566-8.183z"/><path fill="#FFE15A" d="m241.914 202.707-2.518-6.713s-14.056-2.308-8.182 14.686c0 0 .42-3.357 3.986-2.937s7.344-2.309 6.714-5.036z"/><g fill="#73AF00"><path d="M265.411 266.484s-14.789 11.588-6.504 38.812c4.406 14.476 22.028 30.368 22.028 30.368s13.06-34.144 8.811-47.361c-2.499-7.78-24.335-21.819-24.335-21.819z"/><path d="M293.524 310.331s-38.182-36.399-40.7-65.036 13.995-24.09 16.993-22.238c7.133 4.405 25.175 22.867 23.707 87.274z"/></g><path fill="#B34900" d="M289.752 318.67h-65.149c-.78 0-1.412-.632-1.412-1.412v-6.617c0-.78.632-1.412 1.412-1.412h65.149c.78 0 1.412.632 1.412 1.412v6.617a1.413 1.413 0 0 1-1.412 1.412z"/><path fill="#FFE15A" d="M273.383 309.701c-2.201.915-6.608 2.045-5.507 5.979.844 3.013 6.608 2.675 5.507 6.136-.745 2.34-12.453 2.556-16.993 1.888-2.781-.409-8.811-2.045-7.972-8.969.839-6.923 3.357-7.988 6.504-9.231 3.121-1.233 16.775-.96 18.776.734 1.023.867 1.352 2.77-.315 3.463z"/><g fill="#73AF00"><path d="m257.239 135.63 3.067 9.195 9.693.075c1.255.01 1.775 1.611.766 2.357l-7.798 5.758 2.924 9.242c.379 1.197-.984 2.186-2.005 1.457L256 158.077l-7.886 5.637c-1.021.73-2.383-.26-2.005-1.457l2.924-9.242-7.798-5.758c-1.01-.746-.489-2.347.766-2.357l9.693-.075 3.067-9.195c.397-1.191 2.081-1.191 2.478 0zM257.239 350.614l3.067 9.195 9.693.075c1.255.01 1.775 1.611.766 2.357L262.967 368l2.924 9.242c.379 1.197-.984 2.186-2.005 1.457L256 373.062l-7.886 5.637c-1.021.73-2.383-.26-2.005-1.457l2.924-9.242-7.798-5.758c-1.01-.745-.489-2.347.766-2.357l9.693-.075 3.067-9.195c.397-1.191 2.081-1.191 2.478-.001z"/><path d="m257.239 135.63 3.067 9.195 9.693.075c1.255.01 1.775 1.611.766 2.357l-7.798 5.758 2.924 9.242c.379 1.197-.984 2.186-2.005 1.457L256 158.077l-7.886 5.637c-1.021.73-2.383-.26-2.005-1.457l2.924-9.242-7.798-5.758c-1.01-.746-.489-2.347.766-2.357l9.693-.075 3.067-9.195c.397-1.191 2.081-1.191 2.478 0zM257.239 350.614l3.067 9.195 9.693.075c1.255.01 1.775 1.611.766 2.357L262.967 368l2.924 9.242c.379 1.197-.984 2.186-2.005 1.457L256 373.062l-7.886 5.637c-1.021.73-2.383-.26-2.005-1.457l2.924-9.242-7.798-5.758c-1.01-.745-.489-2.347.766-2.357l9.693-.075 3.067-9.195c.397-1.191 2.081-1.191 2.478-.001zM182.33 157.692l2.687 9.314-7.942 5.557c-1.028.719-.549 2.334.705 2.376l9.688.323 2.831 9.271c.366 1.2 2.05 1.243 2.477.063l3.301-9.114 9.692.173c1.255.022 1.816-1.565.826-2.336l-7.648-5.956 3.159-9.164c.409-1.186-.928-2.211-1.967-1.507l-8.028 5.433-7.739-5.836c-1.002-.758-2.389.197-2.042 1.403zM304.206 334.793l2.687 9.314-7.942 5.557c-1.028.719-.549 2.334.705 2.376l9.688.323 2.831 9.271c.366 1.2 2.05 1.243 2.477.063l3.301-9.114 9.692.173c1.255.022 1.816-1.565.826-2.336l-7.648-5.956 3.159-9.164c.409-1.186-.928-2.211-1.967-1.507l-8.028 5.433-7.739-5.836c-1.003-.758-2.39.197-2.042 1.403zM136.772 219.409l7.74 5.836-3.016 9.212c-.39 1.193.962 2.196 1.99 1.477l7.942-5.558 7.829 5.715c1.014.74 2.386-.236 2.019-1.436l-2.831-9.271 7.855-5.68c1.017-.735.513-2.342-.742-2.364l-9.692-.172-2.975-9.226c-.385-1.194-2.069-1.211-2.478-.025l-3.159 9.164-9.693-.022c-1.254-.001-1.791 1.595-.789 2.35zM340.561 287.884l7.74 5.836-3.016 9.212c-.391 1.193.962 2.196 1.99 1.477l7.942-5.558 7.829 5.715c1.014.74 2.386-.236 2.019-1.436l-2.831-9.271 7.855-5.68c1.017-.735.513-2.342-.742-2.364l-9.692-.172-2.975-9.226c-.385-1.194-2.069-1.211-2.478-.025l-3.159 9.164-9.693-.022c-1.255-.002-1.791 1.595-.789 2.35zM324.551 157.692l-2.687 9.314 7.942 5.557c1.028.719.549 2.334-.705 2.376l-9.688.323-2.831 9.271c-.366 1.2-2.05 1.243-2.477.063l-3.301-9.114-9.692.173c-1.255.022-1.816-1.565-.826-2.336l7.648-5.956-3.159-9.164c-.409-1.186.928-2.211 1.967-1.507l8.028 5.433 7.739-5.836c1.003-.758 2.39.197 2.042 1.403zM202.676 334.793l-2.687 9.314 7.942 5.557c1.028.719.549 2.334-.705 2.376l-9.688.323-2.831 9.271c-.366 1.2-2.05 1.243-2.477.063l-3.301-9.114-9.692.173c-1.255.022-1.816-1.565-.826-2.336l7.648-5.956-3.159-9.164c-.409-1.186.928-2.211 1.967-1.507l8.028 5.433 7.739-5.836c1.002-.758 2.39.197 2.042 1.403zM370.109 219.409l-7.74 5.836 3.016 9.212c.39 1.193-.962 2.196-1.99 1.477l-7.942-5.558-7.829 5.715c-1.014.74-2.386-.236-2.019-1.436l2.831-9.271-7.855-5.68c-1.017-.735-.513-2.342.742-2.364l9.692-.172 2.975-9.226c.385-1.194 2.069-1.211 2.478-.025l3.159 9.164 9.693-.022c1.255-.001 1.791 1.595.789 2.35zM166.321 287.884l-7.74 5.836 3.016 9.212c.39 1.193-.962 2.196-1.99 1.477l-7.942-5.558-7.829 5.715c-1.014.74-2.386-.236-2.019-1.436l2.831-9.271-7.855-5.68c-1.017-.735-.513-2.342.742-2.364l9.692-.172 2.975-9.226c.385-1.194 2.069-1.211 2.478-.025l3.159 9.164 9.693-.022c1.255-.002 1.791 1.595.789 2.35z"/></g></svg>