<svg xmlns="http://www.w3.org/2000/svg" x="0" y="0" enable-background="new 0 0 512 512" version="1.1" viewBox="0 0 512 512" xml:space="preserve"><path fill="#73AF00" d="M0 0H256V512H0z"/><path fill="#F5F5F5" d="M256 0H512V512H256z"/><g fill="#FF4B55"><path d="m321.033 207.015-23.36 30.559-36.475-12.209c-2.04-.683-3.774 1.624-2.553 3.394l21.845 31.66-22.883 30.917c-1.28 1.729.378 4.091 2.439 3.477l36.861-10.992 22.333 31.317c1.249 1.751 4.008.905 4.06-1.245l.936-38.453 36.686-11.562c2.051-.647 2.099-3.532.07-4.246l-36.282-12.773.34-38.463c.019-2.153-2.71-3.09-4.017-1.381z"/><path d="M280.217 348.541c-51.068 0-92.495-41.427-92.495-92.541 0-51.021 41.427-92.54 92.495-92.54 19 0 36.522 5.844 51.124 15.734 2.236 1.515 4.788-1.424 2.916-3.371-21.823-22.689-52.711-36.531-86.956-35.362-58.836 2.008-107.544 49.18-111.303 107.93-4.306 67.294 48.978 123.217 115.319 123.217 32.679 0 62.048-13.662 83.022-35.506 1.853-1.93-.705-4.824-2.92-3.322-14.617 9.91-32.168 15.761-51.202 15.761z"/></g></svg>