<svg xmlns="http://www.w3.org/2000/svg" x="0" y="0" enable-background="new 0 0 512 512" version="1.1" viewBox="0 0 512 512" xml:space="preserve"><path fill="#FF4B55" d="M0 383.859H512V511.719H0z"/><path fill="#FFE15A" d="M0 .281H512V256.001H0z"/><path fill="#41479B" d="M0 256H512V383.86H0z"/><path fill="#FFE15A" d="m246.789 305.224 64.48-55.268v79.987c0 13.48-10.928 24.409-24.409 24.409a24.406 24.406 0 0 1-16.328-6.266l-23.743-21.368v-21.494z"/><path fill="#FF4B55" d="m280.801 336.674-18.66-16.794v-27.815l33.775-28.951v66.828c0 4.994-4.063 9.056-9.056 9.056a9.035 9.035 0 0 1-6.059-2.324z"/><path fill="#41479B" d="M271.352 284.17v31.617l15.352 13.861v-58.637l9.211-7.896v66.828c0 4.994-4.063 9.056-9.056 9.056a9.045 9.045 0 0 1-6.059-2.325l-18.66-16.794v-27.815l9.212-7.895z"/><path fill="#FFE15A" d="m265.211 305.224-64.48-55.268v79.987c0 13.48 10.928 24.409 24.409 24.409 6.03 0 11.846-2.232 16.328-6.266l23.743-21.368v-21.494z"/><path fill="#FF4B55" d="m231.199 336.674 18.66-16.794v-27.815l-33.775-28.951v66.828c0 4.994 4.063 9.056 9.056 9.056a9.035 9.035 0 0 0 6.059-2.324z"/><g fill="#41479B"><path d="M240.648 284.17v31.617l-15.352 13.861v-58.637l-9.211-7.896v66.828c0 4.994 4.063 9.056 9.056 9.056a9.045 9.045 0 0 0 6.059-2.325l18.66-16.794v-27.815l-9.212-7.895z"/><path d="M309.04 250.23H313.454V276.678H309.04z"/><path d="M198.51 250.23H202.92399999999998V276.678H198.51z"/></g><g fill="#5A4646"><path d="M246.789 237.674s6.141-29.169-15.352-25.331c-21.493 3.838-21.493 9.979-46.057 22.261 0 0 27.634 6.141 39.916 3.07 0 0 9.211 12.282 18.423 15.352h9.211l-6.141-15.352zM265.211 237.674s-6.141-29.169 15.352-25.331c21.493 3.838 21.493 9.979 46.057 22.261 0 0-27.634 6.141-39.916 3.07 0 0-9.211 12.282-18.423 15.352h-9.211l6.141-15.352z"/><path d="M265.211 253.026h-18.423V237.56a9.098 9.098 0 0 1 9.098-9.098h.227a9.098 9.098 0 0 1 9.098 9.098v15.466z"/></g><circle cx="256" cy="237.67" r="6.141" fill="#E6E1CD"/><path fill="#FFD0AF" d="m242.823 233.708 11.547 6.166a2.494 2.494 0 0 0 2.938-3.963l-7.448-7.448h-1.791a5.245 5.245 0 0 0-5.246 5.245z"/><path fill="#FFAF94" d="M246.827 234.604h-9.249l4.048-4.739a4 4 0 0 1 3.042-1.402h5.192v3.109a3.034 3.034 0 0 1-3.033 3.032z"/><g fill="#8CB400"><path d="M282.186 253.034c-2.072-2.459-2.513-5.717-1.504-8.541 2.954-.516 6.091.472 8.162 2.93 1.77 2.1 2.283 4.773 1.784 7.271a90.245 90.245 0 0 1 2.189 3.963c.041-.225.032-.448.096-.673.724-2.545 2.743-4.347 5.135-4.958 1.712 1.778 2.483 4.373 1.759 6.918-.623 2.19-2.227 3.777-4.18 4.581a85.877 85.877 0 0 1 2.246 5.69c.041-.118.044-.238.091-.355 1-2.451 3.206-4.019 5.65-4.362 1.506 1.955 1.986 4.62.986 7.069-.875 2.144-2.69 3.558-4.763 4.121 1.068 4.213 1.776 8.683 1.776 13.183h-3.07c0-3.921-.602-7.85-1.51-11.608-1.895.612-4.012.482-5.844-.641-2.236-1.37-3.416-3.778-3.361-6.223 2.153-1.16 4.835-1.202 7.071.168.08.049.135.121.213.174a83.353 83.353 0 0 0-2.076-5.365c-1.843.871-4.012 1.005-6.001.07-2.373-1.115-3.812-3.379-4.026-5.815 2.006-1.386 4.656-1.722 7.024-.62a90.77 90.77 0 0 0-2.205-4.002c-2.121-.239-4.158-1.213-5.642-2.975zM229.814 253.034c2.072-2.459 2.513-5.717 1.504-8.541-2.954-.516-6.091.472-8.162 2.93-1.77 2.1-2.283 4.773-1.784 7.271a90.245 90.245 0 0 0-2.189 3.963c-.041-.225-.032-.448-.096-.673-.724-2.545-2.743-4.347-5.135-4.958-1.712 1.778-2.483 4.373-1.759 6.918.623 2.19 2.227 3.777 4.18 4.581a85.877 85.877 0 0 0-2.246 5.69c-.041-.118-.044-.238-.091-.355-1-2.451-3.206-4.019-5.65-4.362-1.506 1.955-1.986 4.62-.986 7.069.875 2.144 2.69 3.558 4.763 4.121-1.068 4.213-1.776 8.683-1.776 13.183h3.07c0-3.921.602-7.85 1.51-11.608 1.895.612 4.012.482 5.844-.641 2.236-1.37 3.416-3.778 3.361-6.223-2.153-1.16-4.835-1.202-7.071.168-.08.049-.135.121-.213.174a83.353 83.353 0 0 1 2.076-5.365c1.843.871 4.012 1.005 6.001.07 2.373-1.115 3.812-3.379 4.026-5.815-2.006-1.386-4.656-1.722-7.024-.62a90.77 90.77 0 0 1 2.205-4.002c2.121-.239 4.158-1.213 5.642-2.975z"/></g><path fill="#FFE15A" d="m256 320.577-64.48-55.268v79.987c0 13.48 10.928 24.409 24.409 24.409 6.03 0 11.846-2.232 16.328-6.266L256 342.07v-21.493z"/><path fill="#FF4B55" d="m221.987 352.027 18.66-16.794v-27.815l-33.775-28.951v66.828c0 4.994 4.063 9.056 9.056 9.056a9.036 9.036 0 0 0 6.059-2.324z"/><path fill="#41479B" d="M231.436 299.522v31.617L216.084 345v-58.637l-9.211-7.896v66.828c0 4.994 4.063 9.056 9.056 9.056a9.045 9.045 0 0 0 6.059-2.325l18.66-16.794v-27.815l-9.212-7.895z"/><path fill="#FFE15A" d="m256 320.577 64.48-55.268v79.987c0 13.48-10.928 24.409-24.409 24.409a24.406 24.406 0 0 1-16.328-6.266L256 342.07v-21.493z"/><path fill="#FF4B55" d="m290.013 352.027-18.66-16.794v-27.815l33.775-28.951v66.828c0 4.994-4.063 9.056-9.056 9.056a9.036 9.036 0 0 1-6.059-2.324z"/><path fill="#41479B" d="M280.564 299.522v31.617L295.916 345v-58.637l9.211-7.896v66.828c0 4.994-4.063 9.056-9.056 9.056a9.045 9.045 0 0 1-6.059-2.325l-18.66-16.794v-27.815l9.212-7.895z"/><ellipse cx="256" cy="299.079" fill="#69C3FF" rx="30.705" ry="46.06"/><path fill="#009B64" d="M228.366 311.365h55.268l3.07-12.282-13.993 2.332a9.616 9.616 0 0 1-7.839-2.184l-15.884-13.615a7.832 7.832 0 0 0-10.635.409l-9.988 9.988.001 15.352z"/><path fill="#F5F5F5" d="m253.087 297.021 5.275-3.37-9.374-8.034a7.832 7.832 0 0 0-10.635.409l-9.988 9.988v3.07l15.352-3.07 2.715 1.357a6.757 6.757 0 0 0 6.655-.35z"/><path fill="#5AA0E6" d="M228.366 311.365 231.436 329.788 246.789 345.14 256 345.14 268.282 342.07 280.564 329.788 283.634 311.365z"/><path fill="#FFC88C" d="M256 348.211c-18.624 0-33.775-22.039-33.775-49.127s15.151-49.127 33.775-49.127 33.775 22.039 33.775 49.127-15.151 49.127-33.775 49.127zm0-92.115c-15.237 0-27.634 19.283-27.634 42.986s12.397 42.987 27.634 42.987 27.634-19.283 27.634-42.987c0-23.702-12.397-42.986-27.634-42.986z"/><g fill="#E1E1E1"><path d="M234.339 344.865c-2.575-3.554-6.406-5.865-10.747-5.865s-8.172 2.311-10.747 5.865c4.39 1.217 7.982 4.781 9.683 9.479a18.051 18.051 0 0 1 1.063 6.149c.001-7.596 4.591-13.922 10.748-15.628z"/><path d="M226.031 354.552s-.24 4.094-2.339 6.013l-.088-.072c-2.099-1.919-2.339-6.013-2.339-6.013l4.766.072z"/></g><path fill="#966446" d="M294.4 355.887h-76.8a1.516 1.516 0 0 1-1.516-1.516v-.038c0-.837.679-1.516 1.516-1.516h76.8c.837 0 1.516.679 1.516 1.516v.038c0 .837-.679 1.516-1.516 1.516z"/><path fill="#BE915A" d="M271.428 360.493h-30.856a6.065 6.065 0 0 1-6.065-6.065v-.151a6.065 6.065 0 0 1 6.065-6.065h30.856a6.065 6.065 0 0 1 6.065 6.065v.151a6.065 6.065 0 0 1-6.065 6.065z"/><path fill="#B9B9B9" d="M228.366 352.816h-10.747a1.535 1.535 0 1 0 0 3.07h10.747v-3.07z"/><path fill="#FF4B55" d="M256 360.493 256 388.546 243.718 385.056 249.859 360.493z"/><path fill="#41479B" d="M252.93 360.493 246.789 381.986 234.507 378.915 243.718 360.493z"/><path fill="#FFE15A" d="M240.648 360.493 231.436 372.775 240.648 375.845 246.789 360.493z"/><path fill="#FF4B55" d="M256 360.493 256 388.546 268.282 385.056 262.141 360.493z"/><path fill="#41479B" d="M259.07 360.493 265.211 381.986 277.493 378.915 268.282 360.493z"/><path fill="#FFE15A" d="M271.352 360.493 280.564 372.775 271.352 375.845 265.211 360.493z"/><g fill="#41479B"><path d="M193.728 291.753 189.315 287.305 189.315 265.305 193.728 265.305z"/><path d="M322.647 287.305 318.233 291.753 318.233 265.305 322.647 265.305z"/></g></svg>