<svg xmlns="http://www.w3.org/2000/svg" viewBox="0 0 512 512"><path fill="#ff4b55" d="M0 .069h512v170.58H0z"/><path fill="#464655" d="M0 341.221h512v170.71H0z"/><path fill="#f5f5f5" d="M0 170.651h512v170.58H0z"/><path fill="#f0c727" d="M293.79 232.568c0-5.869-5.75-10.013-11.318-8.157l-10.462 3.487-2.54-15.342a18.833 18.833 0 00-18.643-15.795h-9.786l-10.235 12.597h13.552l-3.793 18.733-11.038-3.68c-5.568-1.856-11.318 2.288-11.318 8.157v63.65l15.234-15.234-7.179 21.533h-8.056v12.597h75.58v-12.597h-8.056l-7.179-21.533 15.234 15.234v-63.65h.003zm-44.088 69.948h-10.155l6.983-18.648 3.172 4.051v14.597zm12.596 0v-14.597l3.172-4.051 6.983 18.648h-10.155zM256 279.685s-19.485-13.187-18.698-37.79c0 0 12.006-1.968 18.698-12.597 6.692 10.628 18.698 12.597 18.698 12.597.787 24.603-18.698 37.79-18.698 37.79z"/></svg>