<svg xmlns="http://www.w3.org/2000/svg" x="0" y="0" enable-background="new 0 0 512 512" version="1.1" viewBox="0 0 512 512" xml:space="preserve"><path fill="#73AF00" d="M0 0H512V170.67H0z"/><path fill="#FF4B55" d="M0 341.33H512V512H0z"/><path fill="#FFE15A" d="M0 170.67H512V341.34H0z"/><path fill="#4173CD" d="M417.706 256.15c0 89.177-72.4 161.706-161.706 161.706S94.294 345.327 94.294 256.15c0-89.435 72.4-161.835 161.706-161.835s161.706 72.401 161.706 161.835z"/><g fill="#F2DD30"><path d="M133.009 215.497h93.954l21.26-65.429 5.646 17.55-30.874 95.114-9.198-6.71 9.617-29.553h-75.562l-14.843-10.972zm46.944 144.671 29.037-89.306-55.653-40.525h18.356l80.888 58.722-9.195 6.71-25.198-18.326-23.391 72.013-14.844 10.712zm152.091 0L256 304.935l-55.623 40.393 5.679-17.292 80.821-58.851 3.453 10.84-25.135 18.197 61.141 44.526 5.708 17.42zm46.944-144.671-75.981 55.365 21.263 65.432-14.841-10.843-30.845-95.114h11.292l9.614 29.685 61.174-44.526 18.324.001zM256 126.191l29.037 89.306h68.819l-14.874 10.972h-99.954l3.519-10.972h31.165l-23.391-71.885L256 126.191z"/><path d="M258.709 385.465h-5.389v-70.077h5.389v70.077zm119.473-86.986-66.625-21.551 1.678-5.032 66.658 21.551-1.711 5.032zm-244.397 0-1.678-5.032 66.688-21.551 1.649 5.032-66.659 21.551zm159.287-88.79-4.391-3.096 41.202-56.657 4.292 3.099-41.103 56.654zm-74.045 0-41.268-56.654 4.358-3.099 41.169 56.657-4.259 3.096z"/></g></svg>