<svg xmlns="http://www.w3.org/2000/svg" x="0" y="0" enable-background="new 0 0 512 512" version="1.1" viewBox="0 0 512 512" xml:space="preserve"><path fill="#41479B" d="M0 0H512V512H0z"/><g fill="#FFE15A"><path d="m259.885 99.898 4.27 12.804 13.496.105c1.747.014 2.472 2.243 1.066 3.282l-10.857 8.018 4.071 12.868c.527 1.666-1.37 3.044-2.791 2.028l-10.98-7.848-10.98 7.848c-1.422 1.016-3.318-.362-2.791-2.028l4.071-12.868-10.857-8.018c-1.406-1.038-.681-3.268 1.066-3.282l13.496-.105 4.27-12.804c.552-1.658 2.897-1.658 3.45 0zM259.885 374.797l4.27 12.804 13.496.105c1.747.014 2.472 2.243 1.066 3.282l-10.857 8.018 4.071 12.868c.527 1.666-1.37 3.044-2.791 2.028l-10.98-7.848-10.98 7.848c-1.422 1.016-3.318-.362-2.791-2.028l4.071-12.868-10.857-8.018c-1.406-1.038-.681-3.268 1.066-3.282l13.496-.105 4.27-12.804c.552-1.658 2.897-1.658 3.45 0zM397.334 237.347l4.27 12.804 13.496.105c1.747.014 2.472 2.243 1.066 3.282l-10.857 8.018 4.071 12.868c.527 1.666-1.37 3.044-2.791 2.028l-10.98-7.848-10.98 7.848c-1.422 1.016-3.319-.362-2.791-2.028l4.071-12.868-10.857-8.018c-1.406-1.038-.681-3.268 1.066-3.282l13.496-.105 4.27-12.804c.553-1.658 2.897-1.658 3.45 0zM122.435 237.347l4.27 12.804 13.496.105c1.747.014 2.472 2.243 1.066 3.282l-10.857 8.018 4.071 12.868c.527 1.666-1.37 3.044-2.791 2.028l-10.98-7.848-10.98 7.848c-1.422 1.016-3.319-.362-2.791-2.028l4.071-12.868-10.857-8.018c-1.406-1.038-.681-3.268 1.066-3.282l13.496-.105 4.27-12.804c.553-1.658 2.897-1.658 3.45 0zM143.069 165.569l4.27 12.804 13.496.105c1.747.014 2.472 2.243 1.066 3.282l-10.857 8.018 4.071 12.868c.527 1.666-1.37 3.044-2.791 2.028l-10.98-7.848-10.98 7.848c-1.422 1.016-3.319-.362-2.791-2.028l4.071-12.868-10.857-8.018c-1.406-1.038-.681-3.268 1.066-3.282l13.496-.105 4.27-12.804c.552-1.657 2.897-1.657 3.45 0zM381.138 303.019l4.27 12.804 13.496.105c1.747.014 2.472 2.243 1.066 3.282l-10.857 8.018 4.071 12.868c.527 1.666-1.37 3.044-2.791 2.028l-10.98-7.848-10.98 7.848c-1.422 1.016-3.318-.362-2.791-2.028l4.071-12.868-10.857-8.018c-1.406-1.038-.681-3.268 1.066-3.282l13.496-.105 4.27-12.804c.553-1.658 2.898-1.658 3.45 0zM330.828 115.259l4.27 12.804 13.496.105c1.747.014 2.472 2.243 1.066 3.282l-10.857 8.018 4.071 12.868c.527 1.666-1.37 3.044-2.791 2.028l-10.98-7.848-10.98 7.848c-1.422 1.016-3.318-.362-2.791-2.028l4.071-12.868-10.857-8.018c-1.406-1.038-.681-3.268 1.066-3.282l13.496-.105 4.27-12.804c.553-1.657 2.897-1.657 3.45 0zM193.379 353.329l4.27 12.804 13.496.105c1.747.014 2.472 2.243 1.066 3.281l-10.857 8.018 4.071 12.868c.527 1.666-1.37 3.044-2.791 2.028l-10.98-7.848-10.98 7.848c-1.422 1.016-3.318-.362-2.791-2.028l4.071-12.868-10.857-8.018c-1.406-1.038-.681-3.268 1.066-3.282l13.496-.105 4.27-12.804c.552-1.657 2.897-1.657 3.45.001zM377.688 165.569l-4.27 12.804-13.496.105c-1.747.014-2.472 2.243-1.066 3.282l10.857 8.018-4.071 12.868c-.527 1.666 1.37 3.044 2.791 2.028l10.98-7.848 10.98 7.848c1.422 1.016 3.318-.362 2.791-2.028l-4.071-12.868 10.857-8.018c1.406-1.038.681-3.268-1.066-3.282l-13.496-.105-4.27-12.804c-.553-1.657-2.897-1.657-3.45 0zM139.618 303.019l-4.27 12.804-13.496.105c-1.747.014-2.472 2.243-1.066 3.282l10.857 8.018-4.071 12.868c-.527 1.666 1.37 3.044 2.791 2.028l10.98-7.848 10.98 7.848c1.422 1.016 3.319-.362 2.791-2.028l-4.071-12.868 10.857-8.018c1.406-1.038.681-3.268-1.066-3.282l-13.496-.105-4.27-12.804c-.552-1.658-2.897-1.658-3.45 0zM189.928 115.259l-4.27 12.804-13.496.105c-1.747.014-2.472 2.243-1.066 3.282l10.857 8.018-4.071 12.868c-.527 1.666 1.37 3.044 2.791 2.028l10.98-7.848 10.98 7.848c1.422 1.016 3.319-.362 2.791-2.028l-4.071-12.868 10.857-8.018c1.406-1.038.681-3.268-1.066-3.282l-13.496-.105-4.27-12.804c-.552-1.657-2.897-1.657-3.45 0zM327.378 353.329l-4.27 12.804-13.496.105c-1.747.014-2.472 2.243-1.066 3.281l10.857 8.018-4.071 12.868c-.527 1.666 1.37 3.044 2.791 2.028l10.98-7.848 10.98 7.848c1.422 1.016 3.319-.362 2.791-2.028l-4.071-12.868 10.857-8.018c1.406-1.038.681-3.268-1.066-3.282l-13.496-.105-4.27-12.804c-.553-1.657-2.897-1.657-3.45.001z"/></g></svg>