<svg xmlns="http://www.w3.org/2000/svg" x="0" y="0" enable-background="new 0 0 512 512" version="1.1" viewBox="0 0 512 512" xml:space="preserve"><g fill="#41479B"><path d="M188.632 0 0 0 0 39.954 188.632 163.54z"/><path d="M0 136.598 0 188.632 79.419 188.632z"/><path d="M0 323.369 0 375.402 79.419 323.369z"/><path d="M512 39.954 512 0 323.368 0 323.368 163.54z"/><path d="M512 375.402 512 323.369 432.581 323.369z"/><path d="M323.368 348.46 323.368 512 512 512 512 472.046z"/><path d="M512 188.632 512 136.598 432.581 188.632z"/><path d="M0 472.046 0 512 188.632 512 188.632 348.46z"/></g><g fill="#F5F5F5"><path d="M512 472.046 512 432.118 344.465 323.369 393.961 323.369 512 399.989 512 375.402 432.581 323.369 512 323.369 512 296.421 296.421 296.421 296.421 512 323.368 512 323.368 348.46z"/><path d="M0 296.421 0 323.369 79.419 323.369 0 375.402 0 413.203 138.395 323.369 187.891 323.369 0 445.332 0 472.046 188.632 348.46 188.632 512 215.579 512 215.579 296.421z"/><path d="M215.579 0 188.632 0 188.632 163.54 0 39.954 0 83.679 161.684 188.632 112.188 188.632 0 115.807 0 136.598 79.419 188.632 0 188.632 0 215.579 215.579 215.579z"/><path d="M512 215.579 512 188.632 432.581 188.632 512 136.598 512 98.314 372.864 188.632 323.368 188.632 512 66.185 512 39.954 323.368 163.54 323.368 0 296.421 0 296.421 215.579z"/></g><g fill="#FF4B55"><path d="M512 296.421 512 215.579 296.421 215.579 296.421 0 215.579 0 215.579 215.579 0 215.579 0 296.421 215.579 296.421 215.579 512 296.421 512 296.421 296.421z"/><path d="M138.395 323.369 0 413.203 0 445.332 187.891 323.369z"/><path d="M344.465 323.369 512 432.118 512 399.989 393.961 323.369z"/><path d="M161.684 188.632 0 83.679 0 115.807 112.188 188.632z"/><path d="M372.864 188.632 512 98.314 512 66.185 323.368 188.632z"/></g></svg>