<svg xmlns="http://www.w3.org/2000/svg" x="0" y="0" enable-background="new 0 0 512 512" version="1.1" viewBox="0 0 512 512" xml:space="preserve"><path fill="#F5F5F5" d="M0 0H512V512H0z"/><g fill="#FF4B55"><path d="M512 215.579 296.421 215.579 296.421 0 215.579 0 215.579 215.579 0 215.579 0 296.421 215.579 296.421 215.579 512 296.421 512 296.421 296.421 512 296.421z"/><path d="M160 89.376c-13.345 1.342-26.42 2.687-39.513 4.032 1.345-13.095 2.69-26.17 4.033-39.513a143.392 143.392 0 0 1-36.828 0c1.342 13.345 2.687 26.42 4.033 39.513-13.094-1.345-26.17-2.689-39.514-4.032a143.377 143.377 0 0 1 0 36.826c13.345-1.342 26.42-2.687 39.514-4.032-1.346 13.095-2.691 26.17-4.033 39.513a143.392 143.392 0 0 1 36.828 0c-1.343-13.345-2.688-26.42-4.033-39.513 13.094 1.345 26.17 2.689 39.513 4.032a143.377 143.377 0 0 1 0-36.826zM461 89.376c-13.345 1.342-26.42 2.687-39.513 4.032 1.345-13.095 2.69-26.17 4.033-39.513a143.392 143.392 0 0 1-36.828 0c1.342 13.345 2.687 26.42 4.033 39.513-13.094-1.345-26.17-2.689-39.514-4.032a143.377 143.377 0 0 1 0 36.826c13.345-1.342 26.42-2.687 39.514-4.032-1.346 13.095-2.691 26.17-4.033 39.513a143.392 143.392 0 0 1 36.828 0c-1.343-13.345-2.688-26.42-4.033-39.513 13.094 1.345 26.17 2.689 39.513 4.032a143.377 143.377 0 0 1 0-36.826zM160 385.797c-13.345 1.342-26.42 2.687-39.513 4.032 1.345-13.095 2.69-26.17 4.033-39.513a143.392 143.392 0 0 1-36.828 0c1.342 13.345 2.687 26.42 4.033 39.513-13.094-1.345-26.17-2.689-39.514-4.032a143.377 143.377 0 0 1 0 36.826c13.345-1.342 26.42-2.687 39.514-4.032-1.346 13.095-2.691 26.17-4.033 39.513a143.392 143.392 0 0 1 36.828 0c-1.343-13.345-2.688-26.42-4.033-39.513 13.094 1.345 26.17 2.689 39.513 4.032a143.377 143.377 0 0 1 0-36.826zM461 385.797c-13.345 1.342-26.42 2.687-39.513 4.032 1.345-13.095 2.69-26.17 4.033-39.513a143.392 143.392 0 0 1-36.828 0c1.342 13.345 2.687 26.42 4.033 39.513-13.094-1.345-26.17-2.689-39.514-4.032a143.377 143.377 0 0 1 0 36.826c13.345-1.342 26.42-2.687 39.514-4.032-1.346 13.095-2.691 26.17-4.033 39.513a143.392 143.392 0 0 1 36.828 0c-1.343-13.345-2.688-26.42-4.033-39.513 13.094 1.345 26.17 2.689 39.513 4.032a143.377 143.377 0 0 1 0-36.826z"/></g></svg>