<svg xmlns="http://www.w3.org/2000/svg" viewBox="0 0 512 512"><g fill="#4173cd"><path d="M0 0h512v170.67H0zM0 341.33h512V512H0z"/></g><path fill="#f5f5f5" d="M0 170.67h512v170.67H0z"/><g fill="#4173cd"><path d="M257.948 233.988l4.822 14.458 15.241.118c1.973.015 2.791 2.533 1.204 3.706l-12.261 9.054 4.597 14.531c.595 1.881-1.547 3.438-3.152 2.29l-12.4-8.863-12.399 8.863c-1.605 1.147-3.747-.409-3.152-2.29l4.597-14.531-12.261-9.054c-1.587-1.172-.769-3.69 1.204-3.706l15.241-.118 4.822-14.458c.625-1.872 3.273-1.872 3.897 0zM120.316 272.792l4.822 14.458 15.241.118c1.973.015 2.791 2.533 1.204 3.706l-12.261 9.054 4.597 14.531c.595 1.881-1.547 3.438-3.152 2.29l-12.399-8.863-12.399 8.863c-1.605 1.147-3.747-.409-3.152-2.29l4.597-14.531-12.261-9.054c-1.587-1.172-.769-3.69 1.204-3.706l15.241-.118 4.822-14.458c.624-1.872 3.272-1.872 3.896 0zM120.316 195.184l4.822 14.458 15.241.118c1.973.015 2.791 2.533 1.204 3.706l-12.261 9.054 4.597 14.531c.595 1.881-1.547 3.438-3.152 2.29l-12.399-8.863-12.399 8.863c-1.605 1.147-3.747-.409-3.152-2.29l4.597-14.531-12.261-9.054c-1.587-1.172-.769-3.69 1.204-3.706l15.241-.118 4.822-14.458c.624-1.872 3.272-1.872 3.896 0zM395.58 272.792l4.822 14.458 15.241.118c1.973.015 2.791 2.533 1.204 3.706l-12.261 9.054 4.597 14.531c.595 1.881-1.547 3.438-3.152 2.29l-12.4-8.863-12.4 8.863c-1.605 1.147-3.747-.409-3.152-2.29l4.597-14.531-12.261-9.054c-1.587-1.172-.769-3.69 1.204-3.706l15.241-.118 4.822-14.458c.626-1.872 3.274-1.872 3.898 0zM395.58 195.184l4.822 14.458 15.241.118c1.973.015 2.791 2.533 1.204 3.706l-12.261 9.054 4.597 14.531c.595 1.881-1.547 3.438-3.152 2.29l-12.4-8.863-12.4 8.863c-1.605 1.147-3.747-.409-3.152-2.29l4.597-14.531-12.261-9.054c-1.587-1.172-.769-3.69 1.204-3.706l15.241-.118 4.822-14.458c.626-1.872 3.274-1.872 3.898 0z"/></g></svg>