<svg xmlns="http://www.w3.org/2000/svg" viewBox="0 0 512 512"><path fill="#41479b" d="M0 0h512v512H0z"/><path fill="#f5f5f5" d="M0 93.86h512v324.28H0z"/><path fill="#41479b" d="M317.474 256l30.734-53.234h-61.469L256 149.523l-30.739 53.243h-61.469L194.526 256l-30.734 53.234h61.469L256 362.477l30.739-53.243h61.469L317.474 256zm.58-35.824l-10.632 18.415-10.632-18.415h21.264zM297.371 256l-20.683 35.824h-41.376L214.629 256l20.683-35.824h41.376L297.371 256zM256 184.344l10.636 18.422h-21.272L256 184.344zm-62.054 35.832h21.264l-10.632 18.415-10.632-18.415zm0 71.648l10.632-18.415 10.632 18.415h-21.264zM256 327.656l-10.636-18.422h21.272L256 327.656zm51.423-54.247l10.632 18.415h-21.264l10.632-18.415z"/></svg>