<svg xmlns="http://www.w3.org/2000/svg" x="0" y="0" enable-background="new 0 0 512 512" version="1.1" viewBox="0 0 512 512" xml:space="preserve"><path fill="#41479B" d="M0 0H512V512H0z"/><path fill="#F5F5F5" d="M0 93.86H512V418.14H0z"/><path fill="#41479B" d="m317.474 256 30.734-53.234h-61.469L256 149.523l-30.739 53.243h-61.469L194.526 256l-30.734 53.234h61.469L256 362.477l30.739-53.243h61.469L317.474 256zm.58-35.824-10.632 18.415-10.632-18.415h21.264zM297.371 256l-20.683 35.824h-41.376L214.629 256l20.683-35.824h41.376L297.371 256zM256 184.344l10.636 18.422h-21.272L256 184.344zm-62.054 35.832h21.264l-10.632 18.415-10.632-18.415zm0 71.648 10.632-18.415 10.632 18.415h-21.264zM256 327.656l-10.636-18.422h21.272L256 327.656zm51.423-54.247 10.632 18.415h-21.264l10.632-18.415z"/></svg>