<svg xmlns="http://www.w3.org/2000/svg" x="0" y="0" enable-background="new 0 0 512 512" version="1.1" viewBox="0 0 512 512" xml:space="preserve"><path fill="#FAB446" d="M0 .279H512V170.759H0z"/><path fill="#73AF00" d="M0 341.241H512V511.721H0z"/><path fill="#F5F5F5" d="M0 170.761H512V341.241H0z"/><g fill="#41479B"><path d="M256 314.451c-32.229 0-58.448-26.219-58.448-58.448s26.219-58.448 58.448-58.448 58.448 26.219 58.448 58.448-26.219 58.448-58.448 58.448zm0-106.022c-26.235 0-47.574 21.339-47.574 47.574s21.339 47.574 47.574 47.574 47.574-21.339 47.574-47.574-21.339-47.574-47.574-47.574z"/><circle cx="256" cy="256.001" r="6.626"/><path d="M256 256.997 239.161 258.697 202.989 256.997 202.989 255.009 239.161 253.309 256 255.009z"/><path d="M256 256.997 272.839 258.697 309.011 256.997 309.011 255.009 272.839 253.309 256 255.009z"/><path d="M255.006 256.003 253.306 239.164 255.006 202.992 256.994 202.992 258.694 239.164 256.994 256.003z"/><path d="M255.006 256.003 253.306 272.842 255.006 309.014 256.994 309.014 258.694 272.842 256.994 256.003z"/><path d="M255.297 256.706 242.188 246.001 217.813 219.221 219.218 217.816 245.998 242.191 256.703 255.3z"/><path d="M255.297 256.706 266.002 269.815 292.782 294.19 294.187 292.785 269.812 266.005 256.703 255.3z"/><path d="M255.297 255.3 266.002 242.191 292.782 217.816 294.187 219.221 269.812 246.001 256.703 256.706z"/><path d="M255.297 255.3 242.188 266.005 217.813 292.785 219.218 294.19 245.998 269.815 256.703 256.706z"/><path d="M256.38 256.921 241.474 264.936 207.404 277.208 206.644 275.371 239.412 259.958 255.62 255.085z"/><path d="M256.38 256.921 272.588 252.048 305.356 236.635 304.596 234.798 270.526 247.07 255.62 255.085z"/><path d="M255.082 256.383 247.067 241.477 234.795 207.407 236.632 206.647 252.045 239.415 256.918 255.623z"/><path d="M255.082 256.383 259.955 272.591 275.368 305.359 277.205 304.599 264.933 270.529 256.918 255.623z"/><path d="M255.62 256.921 239.412 252.048 206.644 236.635 207.404 234.798 241.474 247.07 256.38 255.085z"/><path d="M255.62 256.921 270.526 264.936 304.596 277.208 305.356 275.371 272.588 259.958 256.38 255.085z"/><path d="M255.082 255.623 259.955 239.415 275.368 206.647 277.205 207.407 264.933 241.477 256.918 256.383z"/><path d="M255.082 255.623 247.067 270.529 234.795 304.599 236.632 305.359 252.045 272.591 256.918 256.383z"/></g><circle cx="256" cy="256.001" r="7.257" fill="#F5F5F5"/><circle cx="256" cy="256.001" r="5.359" fill="#41479B"/></svg>