<svg xmlns="http://www.w3.org/2000/svg" viewBox="0 0 512.002 512.002"><path fill="#f5f5f5" d="M504.001 512.001h-496a8 8 0 01-8-8v-496a8 8 0 018-8h496a8 8 0 018 8v496a8 8 0 01-8 8z"/><g fill="#41479b"><path d="M512.001 404.212c-25.628 0-25.628-13.474-51.257-13.474-25.628 0-25.628 13.474-51.257 13.474-25.611 0-25.611-13.474-51.221-13.474-25.588 0-25.588 13.474-51.177 13.474-25.602 0-25.602-13.474-51.205-13.474-25.596 0-25.596 13.474-51.191 13.474s-25.595-13.474-51.191-13.474c-25.595 0-25.595 13.474-51.191 13.474-25.584 0-25.584-13.474-51.168-13.474-25.572 0-25.572 13.474-51.143 13.474v-40.421c25.572 0 25.572-13.474 51.143-13.474 25.584 0 25.584 13.474 51.168 13.474 25.595 0 25.595-13.474 51.191-13.474 25.595 0 25.595 13.474 51.191 13.474s25.596-13.474 51.191-13.474c25.602 0 25.602 13.474 51.205 13.474 25.588 0 25.588-13.474 51.177-13.474 25.611 0 25.611 13.474 51.221 13.474 25.628 0 25.628-13.474 51.257-13.474 25.628 0 25.628 13.474 51.257 13.474v40.421zM512.001 242.527c-25.628 0-25.628-13.474-51.257-13.474-25.628 0-25.628 13.474-51.257 13.474-25.611 0-25.611-13.474-51.221-13.474-25.588 0-25.588 13.474-51.177 13.474-25.602 0-25.602-13.474-51.205-13.474-25.596 0-25.596 13.474-51.191 13.474s-25.595-13.474-51.191-13.474c-25.595 0-25.595 13.474-51.191 13.474-25.584 0-25.584-13.474-51.168-13.474-25.572 0-25.572 13.474-51.143 13.474v-40.421c25.572 0 25.572-13.474 51.143-13.474 25.584 0 25.584 13.474 51.168 13.474 25.595 0 25.595-13.474 51.191-13.474 25.595 0 25.595 13.474 51.191 13.474s25.596-13.474 51.191-13.474c25.602 0 25.602 13.474 51.205 13.474 25.588 0 25.588-13.474 51.177-13.474 25.611 0 25.611 13.474 51.221 13.474 25.628 0 25.628-13.474 51.257-13.474 25.628 0 25.628 13.474 51.257 13.474v40.421zM512.001 161.685c-25.628 0-25.628-13.474-51.257-13.474-25.628 0-25.628 13.474-51.257 13.474-25.611 0-25.611-13.474-51.221-13.474-25.588 0-25.588 13.474-51.177 13.474-25.602 0-25.602-13.474-51.205-13.474-25.596 0-25.596 13.474-51.191 13.474s-25.595-13.474-51.191-13.474c-25.595 0-25.595 13.474-51.191 13.474-25.584 0-25.584-13.474-51.168-13.474-25.572 0-25.572 13.474-51.143 13.474v-40.421c25.572 0 25.572-13.474 51.143-13.474 25.584 0 25.584 13.474 51.168 13.474 25.595 0 25.595-13.474 51.191-13.474 25.595 0 25.595 13.474 51.191 13.474s25.596-13.474 51.191-13.474c25.602 0 25.602 13.474 51.205 13.474 25.588 0 25.588-13.474 51.177-13.474 25.611 0 25.611 13.474 51.221 13.474 25.628 0 25.628-13.474 51.257-13.474 25.628 0 25.628 13.474 51.257 13.474v40.421zM512.001 80.843c-25.628 0-25.628-13.474-51.257-13.474-25.628 0-25.628 13.474-51.257 13.474-25.611 0-25.611-13.474-51.221-13.474-25.588 0-25.588 13.474-51.177 13.474-25.602 0-25.602-13.474-51.205-13.474-25.596 0-25.596 13.474-51.191 13.474s-25.595-13.474-51.191-13.474c-25.595 0-25.595 13.474-51.191 13.474-25.584 0-25.584-13.474-51.168-13.474-25.57 0-25.57 13.474-51.142 13.474V40.422c25.572 0 25.572-13.474 51.143-13.474 25.584 0 25.584 13.474 51.168 13.474 25.595 0 25.595-13.474 51.191-13.474 25.595 0 25.595 13.474 51.191 13.474s25.596-13.474 51.191-13.474c25.602 0 25.602 13.474 51.205 13.474 25.588 0 25.588-13.474 51.177-13.474 25.611 0 25.611 13.474 51.221 13.474 25.628 0 25.628-13.474 51.257-13.474 25.628 0 25.628 13.474 51.257 13.474v40.421h-.001zM512.001 323.369c-25.628 0-25.628-13.474-51.257-13.474-25.628 0-25.628 13.474-51.257 13.474-25.611 0-25.611-13.474-51.221-13.474-25.588 0-25.588 13.474-51.177 13.474-25.602 0-25.602-13.474-51.205-13.474-25.596 0-25.596 13.474-51.191 13.474s-25.595-13.474-51.191-13.474c-25.595 0-25.595 13.474-51.191 13.474-25.584 0-25.584-13.474-51.168-13.474-25.572 0-25.572 13.474-51.143 13.474v-40.421c25.572 0 25.572-13.474 51.143-13.474 25.584 0 25.584 13.474 51.168 13.474 25.595 0 25.595-13.474 51.191-13.474 25.595 0 25.595 13.474 51.191 13.474s25.596-13.474 51.191-13.474c25.602 0 25.602 13.474 51.205 13.474 25.588 0 25.588-13.474 51.177-13.474 25.611 0 25.611 13.474 51.221 13.474 25.628 0 25.628-13.474 51.257-13.474 25.628 0 25.628 13.474 51.257 13.474v40.421zM512.001 485.054c-25.628 0-25.628-13.474-51.257-13.474-25.628 0-25.628 13.474-51.257 13.474-25.611 0-25.611-13.474-51.221-13.474-25.588 0-25.588 13.474-51.177 13.474-25.602 0-25.602-13.474-51.205-13.474-25.596 0-25.596 13.474-51.191 13.474s-25.595-13.474-51.191-13.474c-25.595 0-25.595 13.474-51.191 13.474-25.584 0-25.584-13.474-51.168-13.474-25.572 0-25.572 13.474-51.143 13.474v-40.421c25.572 0 25.572-13.474 51.143-13.474 25.584 0 25.584 13.474 51.168 13.474 25.595 0 25.595-13.474 51.191-13.474 25.595 0 25.595 13.474 51.191 13.474s25.596-13.474 51.191-13.474c25.602 0 25.602 13.474 51.205 13.474 25.588 0 25.588-13.474 51.177-13.474 25.611 0 25.611 13.474 51.221 13.474 25.628 0 25.628-13.474 51.257-13.474 25.628 0 25.628 13.474 51.257 13.474v40.421z"/></g><path fill="#965032" d="M396.231 461.93h-3.293a5.537 5.537 0 01-5.538-5.538V224.841h14.369v231.551a5.539 5.539 0 01-5.538 5.538z"/><path fill="#73af00" d="M495.167 253.579l-14.369-7.185-52.904-6.612 32.733-42.086 5.08-15.24-15.24 5.08-42.085 32.732-6.613-52.903-7.185-14.369-7.184 14.369-6.613 52.903-42.085-32.732-15.241-5.08 5.08 15.24 32.733 42.086-52.904 6.612-14.369 7.185 14.369 7.185 52.904 6.612-32.733 42.085-5.08 15.241 15.241-5.08 45.722-35.561 10.16-16.113 10.16 16.113 45.723 35.561 15.24 5.08-5.08-15.241-32.733-42.085 52.904-6.612z"/><path fill="#ffe15a" d="M425.862 337.253c-6.457-6.444-20.283-4.076-27.686-2.207v-6.03a3.592 3.592 0 10-7.184 0v6.029c-7.402-1.875-21.226-4.243-27.686 2.208-6.158 6.155-1.697 20.996 2.54 31.313v9.553a4.78 4.78 0 004.781 4.781h47.915c2.64 0 4.781-2.14 4.781-4.781v-9.553c4.236-10.317 8.697-25.158 2.539-31.313zm-5.08 5.08c2.742 2.745-.329 14.775-5.278 26.198h-17.328v-26.065c8.066-2.283 19.114-3.632 22.606-.133zm-52.396 0c3.49-3.499 14.538-2.15 22.606.134v26.064h-17.328c-4.949-11.423-8.02-23.453-5.278-26.198z"/><g fill="#41479b"><path d="M94.317.001H.001v19.977l94.316 61.793zM.001 68.3v26.017h39.71zM.001 161.685v26.017l39.71-26.017zM256.001 19.978V.001h-94.316v81.77zM256.001 187.702v-26.017h-39.71zM161.685 174.231v81.77h94.316v-19.977zM256.001 94.317V68.3l-39.71 26.017zM.001 236.024v19.977h94.316v-81.77z"/></g><g fill="#f5f5f5"><path d="M256.001 236.024V216.06l-83.768-54.375h24.748l59.02 38.311v-12.294l-39.71-26.017h39.71v-13.474H148.212v107.79h13.473v-81.77zM.001 148.211v13.474h39.71L.001 187.702v18.901l69.197-44.918h24.748L.001 222.667v13.357l94.316-61.793v81.77h13.473v-107.79zM107.79.001H94.317v81.77L.001 19.978V41.84l80.842 52.477H56.095L.001 57.905V68.3l39.71 26.017H.001v13.474H107.79zM256.001 107.791V94.317h-39.71l39.71-26.017V49.158l-69.568 45.159h-24.748l94.316-61.223V19.978l-94.316 61.793V.001h-13.473v107.79z"/></g><g fill="#ff4b55"><path d="M256.001 148.211v-40.42H148.212V.001H107.79v107.79H.001v40.42H107.79v107.79h40.422v-107.79z"/><path d="M69.198 161.685L.001 206.603v16.064l93.945-60.982zM172.233 161.685l83.768 54.375v-16.064l-59.02-38.311zM80.843 94.317L.001 41.84v16.065l56.094 36.412zM186.433 94.317l69.568-45.159V33.094l-94.316 61.223z"/></g></svg>