<svg xmlns="http://www.w3.org/2000/svg" viewBox="0 0 512 512"><path fill="#73af00" d="M0 0h512v170.78H0z"/><path fill="#ff4b55" d="M511.861 512H.139a.139.139 0 01-.139-.139V341.218h512v170.643a.139.139 0 01-.139.139z"/><g fill="#f5f5f5"><path d="M0 170.61h512v170.78H0zM9.173 141.666v-.233c0-1.171-.95-2.121-2.121-2.121H0v4.475h7.052a2.12 2.12 0 002.121-2.121z"/><path d="M9.173 159.45v-.122c0-1.171-.95-2.121-2.121-2.121H2.57a2.122 2.122 0 01-2.121-2.121v-.23c0-1.171.95-2.121 2.121-2.121h8.789c1.171 0 2.121.95 2.121 2.121v4.594c0 1.171.95 2.121 2.121 2.121h17.68c1.171 0 2.121-.95 2.121-2.121v-18.018c0-1.171-.95-2.121-2.121-2.121h-.119c-1.171 0-2.121.95-2.121 2.121v13.654c0 1.171-.95 2.121-2.121 2.121h-.176a2.122 2.122 0 01-2.121-2.121v-13.654c0-1.171-.95-2.121-2.121-2.121h-.064c-1.171 0-2.121.95-2.121 2.121v13.654c0 1.171-.95 2.121-2.121 2.121h-.176a2.122 2.122 0 01-2.121-2.121v-13.654c0-1.171-.95-2.121-2.121-2.121h-.176c-1.171 0-2.121.95-2.121 2.121v4.706c0 1.171-.95 2.121-2.121 2.121H0v13.312h7.052a2.12 2.12 0 002.121-2.121zM120.636 139.311h-.119c-1.171 0-2.121.95-2.121 2.121v13.654c0 1.171-.95 2.121-2.121 2.121h-.064a2.122 2.122 0 01-2.121-2.121v-13.654c0-1.171-.95-2.121-2.121-2.121h-.176c-1.171 0-2.121.95-2.121 2.121v13.654c0 1.171-.95 2.121-2.121 2.121h-.176a2.122 2.122 0 01-2.121-2.121v-13.654c0-1.171-.95-2.121-2.121-2.121h-.122c-1.171 0-2.121.95-2.121 2.121v4.706c0 1.171-.95 2.121-2.121 2.121H85.565c-1.171 0-2.121.95-2.121 2.121v9.07c0 1.171.95 2.121 2.121 2.121h8.901c1.171 0 2.121-.95 2.121-2.121v-.122c0-1.171-.95-2.121-2.121-2.121h-4.54a2.122 2.122 0 01-2.121-2.121v-.23c0-1.171.95-2.121 2.121-2.121h8.844c1.171 0 2.121.95 2.121 2.121v4.594c0 1.171.95 2.121 2.121 2.121h17.625c1.171 0 2.121-.95 2.121-2.121v-18.018c0-1.171-.95-2.121-2.122-2.121zM50.73 161.571c1.171 0 2.121-.95 2.121-2.121v-.122c0-1.171-.95-2.121-2.121-2.121h-.119c-1.171 0-2.121.95-2.121 2.121v.122c0 1.171.95 2.121 2.121 2.121h.119z"/><path d="M41.887 143.787h52.579c1.171 0 2.121-.95 2.121-2.121v-.233c0-1.171-.95-2.121-2.121-2.121H41.887c-1.171 0-2.121.95-2.121 2.121v.233a2.12 2.12 0 002.121 2.121zM76.959 148.259h-8.843c-1.171 0-2.121.95-2.121 2.121v.233c0 1.171.95 2.121 2.121 2.121h4.483c1.171 0 2.121.95 2.121 2.121v.23c0 1.171-.95 2.121-2.121 2.121h-8.901a2.122 2.122 0 01-2.121-2.121v-4.706c0-1.171-.95-2.121-2.121-2.121H41.887c-1.171 0-2.121.95-2.121 2.121v9.07c0 1.171.95 2.121 2.121 2.121h.119c1.171 0 2.121-.95 2.121-2.121v-4.594c0-1.171.95-2.121 2.121-2.121h8.846c1.171 0 2.121.95 2.121 2.121v4.594c0 1.171.95 2.121 2.121 2.121h17.623c1.171 0 2.121-.95 2.121-2.121v-9.07c0-1.17-.95-2.12-2.121-2.12zM138.086 161.571c1.171 0 2.121-.95 2.121-2.121v-.122c0-1.171-.95-2.121-2.121-2.121h-.119c-1.171 0-2.121.95-2.121 2.121v.122c0 1.171.95 2.121 2.121 2.121h.119zM129.242 143.787h52.521c1.171 0 2.121-.95 2.121-2.121v-.233c0-1.171-.95-2.121-2.121-2.121h-52.521c-1.171 0-2.121.95-2.121 2.121v.233c0 1.171.95 2.121 2.121 2.121z"/><path d="M207.992 139.311h-.119c-1.171 0-2.121.95-2.121 2.121v13.654c0 1.171-.95 2.121-2.121 2.121h-.122a2.122 2.122 0 01-2.121-2.121v-13.654c0-1.171-.95-2.121-2.121-2.121h-.176c-1.171 0-2.121.95-2.121 2.121v13.654c0 1.171-.95 2.121-2.121 2.121h-.064a2.122 2.122 0 01-2.121-2.121v-13.654c0-1.171-.95-2.121-2.121-2.121h-.119c-1.171 0-2.121.95-2.121 2.121v4.706c0 1.171-.95 2.121-2.121 2.121h-13.319c-1.171 0-2.121.95-2.121 2.121v9.07c0 1.171.95 2.121 2.121 2.121h8.901c1.171 0 2.121-.95 2.121-2.121v-.122c0-1.171-.95-2.121-2.121-2.121h-4.483a2.122 2.122 0 01-2.121-2.121v-.23c0-1.171.95-2.121 2.121-2.121h8.901c1.171 0 2.121.95 2.121 2.121v4.594c0 1.171.95 2.121 2.121 2.121h17.568c1.171 0 2.121-.95 2.121-2.121v-18.018c0-1.171-.95-2.121-2.121-2.121zM164.314 148.259h-8.901c-1.171 0-2.121.95-2.121 2.121v.233c0 1.171.95 2.121 2.121 2.121h4.483c1.171 0 2.121.95 2.121 2.121v.23c0 1.171-.95 2.121-2.121 2.121h-8.843a2.122 2.122 0 01-2.121-2.121v-4.706c0-1.171-.95-2.121-2.121-2.121h-17.568c-1.171 0-2.121.95-2.121 2.121v9.07c0 1.171.95 2.121 2.121 2.121h.119c1.171 0 2.121-.95 2.121-2.121v-4.594c0-1.171.95-2.121 2.121-2.121h8.843c1.171 0 2.121.95 2.121 2.121v4.594c0 1.171.95 2.121 2.121 2.121h17.625c1.171 0 2.121-.95 2.121-2.121v-9.07a2.12 2.12 0 00-2.121-2.12zM295.348 139.311h-.122c-1.171 0-2.121.95-2.121 2.121v13.654c0 1.171-.95 2.121-2.121 2.121h-.119a2.122 2.122 0 01-2.121-2.121v-13.654c0-1.171-.95-2.121-2.121-2.121h-.119c-1.171 0-2.121.95-2.121 2.121v13.654c0 1.171-.95 2.121-2.121 2.121h-.122a2.122 2.122 0 01-2.121-2.121v-13.654c0-1.171-.95-2.121-2.121-2.121h-.119c-1.171 0-2.121.95-2.121 2.121v4.706c0 1.171-.95 2.121-2.121 2.121h-13.265c-1.171 0-2.121.95-2.121 2.121v9.07c0 1.171.95 2.121 2.121 2.121h8.901c1.171 0 2.121-.95 2.121-2.121v-.122c0-1.171-.95-2.121-2.121-2.121h-4.537a2.122 2.122 0 01-2.121-2.121v-.23c0-1.171.95-2.121 2.121-2.121h8.901c1.171 0 2.121.95 2.121 2.121v4.594c0 1.171.95 2.121 2.121 2.121h17.568c1.171 0 2.121-.95 2.121-2.121v-18.018a2.12 2.12 0 00-2.12-2.121zM251.67 148.259h-8.901c-1.171 0-2.121.95-2.121 2.121v.233c0 1.171.95 2.121 2.121 2.121h4.537c1.171 0 2.121.95 2.121 2.121v.23c0 1.171-.95 2.121-2.121 2.121h-8.844a2.122 2.122 0 01-2.121-2.121v-4.706c0-1.171-.95-2.121-2.121-2.121h-17.625c-1.171 0-2.121.95-2.121 2.121v9.07c0 1.171.95 2.121 2.121 2.121h.122c1.171 0 2.121-.95 2.121-2.121v-4.594c0-1.171.95-2.121 2.121-2.121h8.843c1.171 0 2.121.95 2.121 2.121v4.594c0 1.171.95 2.121 2.121 2.121h17.625c1.171 0 2.121-.95 2.121-2.121v-9.07a2.12 2.12 0 00-2.12-2.12z"/><path d="M216.595 143.787h52.579c1.171 0 2.121-.95 2.121-2.121v-.233c0-1.171-.95-2.121-2.121-2.121h-52.579c-1.171 0-2.121.95-2.121 2.121v.233c0 1.171.95 2.121 2.121 2.121zM225.441 161.571c1.171 0 2.121-.95 2.121-2.121v-.122c0-1.171-.95-2.121-2.121-2.121h-.064c-1.171 0-2.121.95-2.121 2.121v.122c0 1.171.95 2.121 2.121 2.121h.064zM339.025 148.259h-8.846c-1.171 0-2.121.95-2.121 2.121v.233c0 1.171.95 2.121 2.121 2.121h4.428c1.171 0 2.121.95 2.121 2.121v.23c0 1.171-.95 2.121-2.121 2.121h-8.789a2.122 2.122 0 01-2.121-2.121v-4.706c0-1.171-.95-2.121-2.121-2.121h-17.625c-1.171 0-2.121.95-2.121 2.121v9.07c0 1.171.95 2.121 2.121 2.121h.122c1.171 0 2.121-.95 2.121-2.121v-4.594c0-1.171.95-2.121 2.121-2.121h8.844c1.171 0 2.121.95 2.121 2.121v4.594c0 1.171.95 2.121 2.121 2.121h17.625c1.171 0 2.121-.95 2.121-2.121v-9.07c0-1.17-.95-2.12-2.122-2.12zM382.703 139.311h-.122c-1.171 0-2.121.95-2.121 2.121v13.654c0 1.171-.95 2.121-2.121 2.121h-.119a2.122 2.122 0 01-2.121-2.121v-13.654c0-1.171-.95-2.121-2.121-2.121h-.122c-1.171 0-2.121.95-2.121 2.121v13.654c0 1.171-.95 2.121-2.121 2.121h-.119a2.122 2.122 0 01-2.121-2.121v-13.654c0-1.171-.95-2.121-2.121-2.121h-.122c-1.171 0-2.121.95-2.121 2.121v4.706c0 1.171-.95 2.121-2.121 2.121h-13.204c-1.171 0-2.121.95-2.121 2.121v9.07c0 1.171.95 2.121 2.121 2.121h8.843c1.171 0 2.121-.95 2.121-2.121v-.122c0-1.171-.95-2.121-2.121-2.121h-4.537a2.122 2.122 0 01-2.121-2.121v-.23c0-1.171.95-2.121 2.121-2.121h8.898c1.171 0 2.121.95 2.121 2.121v4.594c0 1.171.95 2.121 2.121 2.121h17.571c1.171 0 2.121-.95 2.121-2.121v-18.018a2.12 2.12 0 00-2.12-2.121z"/><path d="M312.797 161.571c1.171 0 2.121-.95 2.121-2.121v-.122c0-1.171-.95-2.121-2.121-2.121h-.064c-1.171 0-2.121.95-2.121 2.121v.122c0 1.171.95 2.121 2.121 2.121h.064zM303.951 143.787h52.579c1.171 0 2.121-.95 2.121-2.121v-.233c0-1.171-.95-2.121-2.121-2.121h-52.579c-1.171 0-2.121.95-2.121 2.121v.233a2.12 2.12 0 002.121 2.121zM400.207 161.571c1.171 0 2.121-.95 2.121-2.121v-.122c0-1.171-.95-2.121-2.121-2.121h-.176c-1.171 0-2.121.95-2.121 2.121v.122c0 1.171.95 2.121 2.121 2.121h.176zM391.306 143.787h52.578c1.171 0 2.121-.95 2.121-2.121v-.233c0-1.171-.95-2.121-2.121-2.121h-52.578c-1.171 0-2.121.95-2.121 2.121v.233c0 1.171.95 2.121 2.121 2.121z"/><path d="M470.056 139.311h-.062c-1.171 0-2.121.95-2.121 2.121v13.654c0 1.171-.95 2.121-2.121 2.121h-.176a2.122 2.122 0 01-2.121-2.121v-13.654c0-1.171-.95-2.121-2.121-2.121h-.122c-1.171 0-2.121.95-2.121 2.121v13.654c0 1.171-.95 2.121-2.121 2.121h-.119a2.122 2.122 0 01-2.121-2.121v-13.654c0-1.171-.95-2.121-2.121-2.121h-.122c-1.171 0-2.121.95-2.121 2.121v4.706c0 1.171-.95 2.121-2.121 2.121h-13.204c-1.171 0-2.121.95-2.121 2.121v9.07c0 1.171.95 2.121 2.121 2.121h8.843c1.171 0 2.121-.95 2.121-2.121v-.122c0-1.171-.95-2.121-2.121-2.121h-4.428a2.122 2.122 0 01-2.121-2.121v-.23c0-1.171.95-2.121 2.121-2.121h8.789c1.171 0 2.121.95 2.121 2.121v4.594c0 1.171.95 2.121 2.121 2.121h17.568c1.171 0 2.121-.95 2.121-2.121v-18.018a2.12 2.12 0 00-2.12-2.121zM426.381 148.259h-8.846c-1.171 0-2.121.95-2.121 2.121v.233c0 1.171.95 2.121 2.121 2.121h4.54c1.171 0 2.121.95 2.121 2.121v.23c0 1.171-.95 2.121-2.121 2.121h-8.958a2.122 2.122 0 01-2.121-2.121v-4.706c0-1.171-.95-2.121-2.121-2.121h-17.568c-1.171 0-2.121.95-2.121 2.121v9.07c0 1.171.95 2.121 2.121 2.121h.122c1.171 0 2.121-.95 2.121-2.121v-4.594c0-1.171.95-2.121 2.121-2.121h8.898c1.171 0 2.121.95 2.121 2.121v4.594c0 1.171.95 2.121 2.121 2.121h17.571c1.171 0 2.121-.95 2.121-2.121v-9.07a2.123 2.123 0 00-2.122-2.12zM502.827 150.38v.233c0 1.171.95 2.121 2.121 2.121h4.48c1.171 0 2.121.95 2.121 2.121v.23c0 1.171-.95 2.121-2.121 2.121h-8.898a2.122 2.122 0 01-2.121-2.121v-4.706c0-1.171-.95-2.121-2.121-2.121h-17.571c-1.171 0-2.121.95-2.121 2.121v9.07c0 1.171.95 2.121 2.121 2.121h.064c1.171 0 2.121-.95 2.121-2.121v-4.594c0-1.171.95-2.121 2.121-2.121h8.846c1.171 0 2.121.95 2.121 2.121v4.594c0 1.171.95 2.121 2.121 2.121H512v-13.312h-7.052a2.122 2.122 0 00-2.121 2.122zM476.595 141.432v.233c0 1.171.95 2.121 2.121 2.121H512v-4.475h-33.284c-1.171 0-2.121.95-2.121 2.121z"/><path d="M487.441 161.571h.122c1.171 0 2.121-.95 2.121-2.121v-.122c0-1.171-.95-2.121-2.121-2.121h-.122c-1.171 0-2.121.95-2.121 2.121v.122a2.12 2.12 0 002.121 2.121zM35.402 172.982v-4.706c0-1.171-.95-2.121-2.121-2.121H0v8.948h33.281a2.12 2.12 0 002.121-2.121zM76.959 166.155H41.887c-1.171 0-2.121.95-2.121 2.121v4.706c0 1.171.95 2.121 2.121 2.121h35.072c1.171 0 2.121-.95 2.121-2.121v-4.706c0-1.171-.95-2.121-2.121-2.121zM120.636 166.155H85.565c-1.171 0-2.121.95-2.121 2.121v4.706c0 1.171.95 2.121 2.121 2.121h35.072c1.171 0 2.121-.95 2.121-2.121v-4.706c0-1.171-.95-2.121-2.122-2.121zM164.314 166.155h-35.072c-1.171 0-2.121.95-2.121 2.121v4.706c0 1.171.95 2.121 2.121 2.121h35.072c1.171 0 2.121-.95 2.121-2.121v-4.706a2.12 2.12 0 00-2.121-2.121zM207.992 166.155h-35.129c-1.171 0-2.121.95-2.121 2.121v4.706c0 1.171.95 2.121 2.121 2.121h35.129c1.171 0 2.121-.95 2.121-2.121v-4.706c0-1.171-.95-2.121-2.121-2.121zM251.67 166.155h-35.075c-1.171 0-2.121.95-2.121 2.121v4.706c0 1.171.95 2.121 2.121 2.121h35.075c1.171 0 2.121-.95 2.121-2.121v-4.706c0-1.171-.95-2.121-2.121-2.121zM295.348 166.155h-35.075c-1.171 0-2.121.95-2.121 2.121v4.706c0 1.171.95 2.121 2.121 2.121h35.075c1.171 0 2.121-.95 2.121-2.121v-4.706c0-1.171-.95-2.121-2.121-2.121zM382.703 166.155h-35.017c-1.171 0-2.121.95-2.121 2.121v4.706c0 1.171.95 2.121 2.121 2.121h35.017c1.171 0 2.121-.95 2.121-2.121v-4.706a2.12 2.12 0 00-2.121-2.121zM339.025 166.155H303.95c-1.171 0-2.121.95-2.121 2.121v4.706c0 1.171.95 2.121 2.121 2.121h35.075c1.171 0 2.121-.95 2.121-2.121v-4.706a2.12 2.12 0 00-2.121-2.121zM426.381 166.155h-35.075c-1.171 0-2.121.95-2.121 2.121v4.706c0 1.171.95 2.121 2.121 2.121h35.075c1.171 0 2.121-.95 2.121-2.121v-4.706c0-1.171-.95-2.121-2.121-2.121zM470.056 166.155h-35.015c-1.171 0-2.121.95-2.121 2.121v4.706c0 1.171.95 2.121 2.121 2.121h35.015c1.171 0 2.121-.95 2.121-2.121v-4.706c0-1.171-.95-2.121-2.121-2.121zM476.595 168.276v4.706c0 1.171.95 2.121 2.121 2.121H512v-8.948h-33.284c-1.171 0-2.121.95-2.121 2.121zM502.827 352.55v.122c0 1.171.95 2.121 2.121 2.121h4.483c1.171 0 2.121.95 2.121 2.121v.23c0 1.171-.95 2.121-2.121 2.121h-8.789a2.122 2.122 0 01-2.121-2.121v-4.594c0-1.171-.95-2.121-2.121-2.121h-17.68c-1.171 0-2.121.95-2.121 2.121v18.018c0 1.171.95 2.121 2.121 2.121h.119c1.171 0 2.121-.95 2.121-2.121v-13.654c0-1.171.95-2.121 2.121-2.121h.176c1.171 0 2.121.95 2.121 2.121v13.654c0 1.171.95 2.121 2.121 2.121h.064c1.171 0 2.121-.95 2.121-2.121v-13.654c0-1.171.95-2.121 2.121-2.121h.176c1.171 0 2.121.95 2.121 2.121v13.654c0 1.171.95 2.121 2.121 2.121h.176c1.171 0 2.121-.95 2.121-2.121v-4.706c0-1.171.95-2.121 2.121-2.121H512v-13.312h-7.052a2.12 2.12 0 00-2.121 2.121z"/><path d="M502.827 370.334v.233c0 1.171.95 2.121 2.121 2.121H512v-4.475h-7.052a2.12 2.12 0 00-2.121 2.121zM461.389 354.793c1.171 0 2.121-.95 2.121-2.121v-.122c0-1.171-.95-2.121-2.121-2.121h-.119c-1.171 0-2.121.95-2.121 2.121v.122c0 1.171.95 2.121 2.121 2.121h.119zM428.557 361.62v-9.07c0-1.171-.95-2.121-2.121-2.121h-8.901c-1.171 0-2.121.95-2.121 2.121v.122c0 1.171.95 2.121 2.121 2.121h4.54c1.171 0 2.121.95 2.121 2.121v.23c0 1.171-.95 2.121-2.121 2.121h-8.843a2.122 2.122 0 01-2.121-2.121v-4.594c0-1.171-.95-2.121-2.121-2.121h-17.625c-1.171 0-2.121.95-2.121 2.121v18.018c0 1.171.95 2.121 2.121 2.121h.119c1.171 0 2.121-.95 2.121-2.121v-13.654c0-1.171.95-2.121 2.121-2.121h.064c1.171 0 2.121.95 2.121 2.121v13.654c0 1.171.95 2.121 2.121 2.121h.176c1.171 0 2.121-.95 2.121-2.121v-13.654c0-1.171.95-2.121 2.121-2.121h.176c1.171 0 2.121.95 2.121 2.121v13.654c0 1.171.95 2.121 2.121 2.121h.122c1.171 0 2.121-.95 2.121-2.121v-4.706c0-1.171.95-2.121 2.121-2.121h13.204c1.171 0 2.121-.95 2.121-2.121z"/><path d="M470.113 368.213h-52.579c-1.171 0-2.121.95-2.121 2.121v.233c0 1.171.95 2.121 2.121 2.121h52.579c1.171 0 2.121-.95 2.121-2.121v-.233a2.12 2.12 0 00-2.121-2.121zM470.113 350.429h-.119c-1.171 0-2.121.95-2.121 2.121v4.594c0 1.171-.95 2.121-2.121 2.121h-8.846a2.122 2.122 0 01-2.121-2.121v-4.594c0-1.171-.95-2.121-2.121-2.121h-17.623c-1.171 0-2.121.95-2.121 2.121v9.07c0 1.171.95 2.121 2.121 2.121h8.843c1.171 0 2.121-.95 2.121-2.121v-.233c0-1.171-.95-2.121-2.121-2.121h-4.483a2.122 2.122 0 01-2.121-2.121v-.23c0-1.171.95-2.121 2.121-2.121h8.901c1.171 0 2.121.95 2.121 2.121v4.706c0 1.171.95 2.121 2.121 2.121h17.568c1.171 0 2.121-.95 2.121-2.121v-9.07a2.119 2.119 0 00-2.12-2.122zM341.258 361.62v-9.07c0-1.171-.95-2.121-2.121-2.121h-8.901c-1.171 0-2.121.95-2.121 2.121v.122c0 1.171.95 2.121 2.121 2.121h4.483c1.171 0 2.121.95 2.121 2.121v.23c0 1.171-.95 2.121-2.121 2.121h-8.901a2.122 2.122 0 01-2.121-2.121v-4.594c0-1.171-.95-2.121-2.121-2.121h-17.568c-1.171 0-2.121.95-2.121 2.121v18.018c0 1.171.95 2.121 2.121 2.121h.119c1.171 0 2.121-.95 2.121-2.121v-13.654c0-1.171.95-2.121 2.121-2.121h.122c1.171 0 2.121.95 2.121 2.121v13.654c0 1.171.95 2.121 2.121 2.121h.176c1.171 0 2.121-.95 2.121-2.121v-13.654c0-1.171.95-2.121 2.121-2.121h.064c1.171 0 2.121.95 2.121 2.121v13.654c0 1.171.95 2.121 2.121 2.121h.119c1.171 0 2.121-.95 2.121-2.121v-4.706c0-1.171.95-2.121 2.121-2.121h13.319a2.12 2.12 0 002.121-2.121z"/><path d="M382.758 368.213h-52.521c-1.171 0-2.121.95-2.121 2.121v.233c0 1.171.95 2.121 2.121 2.121h52.521c1.171 0 2.121-.95 2.121-2.121v-.233c0-1.171-.95-2.121-2.121-2.121zM374.033 354.793c1.171 0 2.121-.95 2.121-2.121v-.122c0-1.171-.95-2.121-2.121-2.121h-.119c-1.171 0-2.121.95-2.121 2.121v.122c0 1.171.95 2.121 2.121 2.121h.119z"/><path d="M382.758 350.429h-.119c-1.171 0-2.121.95-2.121 2.121v4.594c0 1.171-.95 2.121-2.121 2.121h-8.844a2.122 2.122 0 01-2.121-2.121v-4.594c0-1.171-.95-2.121-2.121-2.121h-17.625c-1.171 0-2.121.95-2.121 2.121v9.07c0 1.171.95 2.121 2.121 2.121h8.901c1.171 0 2.121-.95 2.121-2.121v-.233c0-1.171-.95-2.121-2.121-2.121h-4.483a2.122 2.122 0 01-2.121-2.121v-.23c0-1.171.95-2.121 2.121-2.121h8.843c1.171 0 2.121.95 2.121 2.121v4.706c0 1.171.95 2.121 2.121 2.121h17.568c1.171 0 2.121-.95 2.121-2.121v-9.07a2.12 2.12 0 00-2.12-2.122zM253.848 361.62v-9.07c0-1.171-.95-2.121-2.121-2.121h-8.901c-1.171 0-2.121.95-2.121 2.121v.122c0 1.171.95 2.121 2.121 2.121h4.537c1.171 0 2.121.95 2.121 2.121v.23c0 1.171-.95 2.121-2.121 2.121h-8.901a2.122 2.122 0 01-2.121-2.121v-4.594c0-1.171-.95-2.121-2.121-2.121h-17.568c-1.171 0-2.121.95-2.121 2.121v18.018c0 1.171.95 2.121 2.121 2.121h.122c1.171 0 2.121-.95 2.121-2.121v-13.654c0-1.171.95-2.121 2.121-2.121h.119c1.171 0 2.121.95 2.121 2.121v13.654c0 1.171.95 2.121 2.121 2.121h.119c1.171 0 2.121-.95 2.121-2.121v-13.654c0-1.171.95-2.121 2.121-2.121h.122c1.171 0 2.121.95 2.121 2.121v13.654c0 1.171.95 2.121 2.121 2.121h.119c1.171 0 2.121-.95 2.121-2.121v-4.706c0-1.171.95-2.121 2.121-2.121h13.265a2.12 2.12 0 002.12-2.121zM286.623 354.793c1.171 0 2.121-.95 2.121-2.121v-.122c0-1.171-.95-2.121-2.121-2.121h-.064c-1.171 0-2.121.95-2.121 2.121v.122c0 1.171.95 2.121 2.121 2.121h.064z"/><path d="M295.405 350.429h-.122c-1.171 0-2.121.95-2.121 2.121v4.594c0 1.171-.95 2.121-2.121 2.121h-8.843a2.122 2.122 0 01-2.121-2.121v-4.594c0-1.171-.95-2.121-2.121-2.121H260.33c-1.171 0-2.121.95-2.121 2.121v9.07c0 1.171.95 2.121 2.121 2.121h8.901c1.171 0 2.121-.95 2.121-2.121v-.233c0-1.171-.95-2.121-2.121-2.121h-4.537a2.122 2.122 0 01-2.121-2.121v-.23c0-1.171.95-2.121 2.121-2.121h8.844c1.171 0 2.121.95 2.121 2.121v4.706c0 1.171.95 2.121 2.121 2.121h17.625c1.171 0 2.121-.95 2.121-2.121v-9.07c0-1.173-.95-2.122-2.121-2.122zM295.405 368.213h-52.579c-1.171 0-2.121.95-2.121 2.121v.233c0 1.171.95 2.121 2.121 2.121h52.579c1.171 0 2.121-.95 2.121-2.121v-.233c0-1.171-.95-2.121-2.121-2.121zM208.049 350.429h-.122c-1.171 0-2.121.95-2.121 2.121v4.594c0 1.171-.95 2.121-2.121 2.121h-8.844a2.122 2.122 0 01-2.121-2.121v-4.594c0-1.171-.95-2.121-2.121-2.121h-17.625c-1.171 0-2.121.95-2.121 2.121v9.07c0 1.171.95 2.121 2.121 2.121h8.846c1.171 0 2.121-.95 2.121-2.121v-.233c0-1.171-.95-2.121-2.121-2.121h-4.428a2.122 2.122 0 01-2.121-2.121v-.23c0-1.171.95-2.121 2.121-2.121h8.789c1.171 0 2.121.95 2.121 2.121v4.706c0 1.171.95 2.121 2.121 2.121h17.625c1.171 0 2.121-.95 2.121-2.121v-9.07a2.119 2.119 0 00-2.12-2.122z"/><path d="M199.267 354.793c1.171 0 2.121-.95 2.121-2.121v-.122c0-1.171-.95-2.121-2.121-2.121h-.064c-1.171 0-2.121.95-2.121 2.121v.122c0 1.171.95 2.121 2.121 2.121h.064zM208.049 368.213H155.47c-1.171 0-2.121.95-2.121 2.121v.233c0 1.171.95 2.121 2.121 2.121h52.579c1.171 0 2.121-.95 2.121-2.121v-.233a2.12 2.12 0 00-2.121-2.121z"/><path d="M166.435 361.62v-9.07c0-1.171-.95-2.121-2.121-2.121h-8.843c-1.171 0-2.121.95-2.121 2.121v.122c0 1.171.95 2.121 2.121 2.121h4.537c1.171 0 2.121.95 2.121 2.121v.23c0 1.171-.95 2.121-2.121 2.121h-8.898a2.122 2.122 0 01-2.121-2.121v-4.594c0-1.171-.95-2.121-2.121-2.121h-17.571c-1.171 0-2.121.95-2.121 2.121v18.018c0 1.171.95 2.121 2.121 2.121h.122c1.171 0 2.121-.95 2.121-2.121v-13.654c0-1.171.95-2.121 2.121-2.121h.119c1.171 0 2.121.95 2.121 2.121v13.654c0 1.171.95 2.121 2.121 2.121h.122c1.171 0 2.121-.95 2.121-2.121v-13.654c0-1.171.95-2.121 2.121-2.121h.119c1.171 0 2.121.95 2.121 2.121v13.654c0 1.171.95 2.121 2.121 2.121h.122c1.171 0 2.121-.95 2.121-2.121v-4.706c0-1.171.95-2.121 2.121-2.121h13.204a2.12 2.12 0 002.12-2.121zM111.969 354.793c1.171 0 2.121-.95 2.121-2.121v-.122c0-1.171-.95-2.121-2.121-2.121h-.176c-1.171 0-2.121.95-2.121 2.121v.122c0 1.171.95 2.121 2.121 2.121h.176z"/><path d="M120.694 350.429h-.122c-1.171 0-2.121.95-2.121 2.121v4.594c0 1.171-.95 2.121-2.121 2.121h-8.898a2.122 2.122 0 01-2.121-2.121v-4.594c0-1.171-.95-2.121-2.121-2.121H85.619c-1.171 0-2.121.95-2.121 2.121v9.07c0 1.171.95 2.121 2.121 2.121h8.846c1.171 0 2.121-.95 2.121-2.121v-.233c0-1.171-.95-2.121-2.121-2.121h-4.54a2.122 2.122 0 01-2.121-2.121v-.23c0-1.171.95-2.121 2.121-2.121h8.958c1.171 0 2.121.95 2.121 2.121v4.706c0 1.171.95 2.121 2.121 2.121h17.568c1.171 0 2.121-.95 2.121-2.121v-9.07a2.12 2.12 0 00-2.12-2.122zM79.08 361.62v-9.07c0-1.171-.95-2.121-2.121-2.121h-8.843c-1.171 0-2.121.95-2.121 2.121v.122c0 1.171.95 2.121 2.121 2.121h4.428c1.171 0 2.121.95 2.121 2.121v.23c0 1.171-.95 2.121-2.121 2.121h-8.789a2.122 2.122 0 01-2.121-2.121v-4.594c0-1.171-.95-2.121-2.121-2.121H41.944c-1.171 0-2.121.95-2.121 2.121v18.018c0 1.171.95 2.121 2.121 2.121h.062c1.171 0 2.121-.95 2.121-2.121v-13.654c0-1.171.95-2.121 2.121-2.121h.176c1.171 0 2.121.95 2.121 2.121v13.654c0 1.171.95 2.121 2.121 2.121h.122c1.171 0 2.121-.95 2.121-2.121v-13.654c0-1.171.95-2.121 2.121-2.121h.119c1.171 0 2.121.95 2.121 2.121v13.654c0 1.171.95 2.121 2.121 2.121h.122c1.171 0 2.121-.95 2.121-2.121v-4.706c0-1.171.95-2.121 2.121-2.121h13.204c1.171 0 2.121-.95 2.121-2.121z"/><path d="M120.694 368.213H68.115c-1.171 0-2.121.95-2.121 2.121v.233c0 1.171.95 2.121 2.121 2.121h52.579c1.171 0 2.121-.95 2.121-2.121v-.233c0-1.171-.95-2.121-2.121-2.121zM9.173 361.62v-.233c0-1.171-.95-2.121-2.121-2.121h-4.48a2.122 2.122 0 01-2.121-2.121v-.23c0-1.171.95-2.121 2.121-2.121h8.898c1.171 0 2.121.95 2.121 2.121v4.706c0 1.171.95 2.121 2.121 2.121h17.571c1.171 0 2.121-.95 2.121-2.121v-9.07c0-1.171-.95-2.121-2.121-2.121h-.064c-1.171 0-2.121.95-2.121 2.121v4.594c0 1.171-.95 2.121-2.121 2.121h-8.846a2.122 2.122 0 01-2.121-2.121v-4.594c0-1.171-.95-2.121-2.121-2.121H0v13.312h7.052a2.122 2.122 0 002.121-2.122zM35.405 370.568v-.233c0-1.171-.95-2.121-2.121-2.121H0v4.475h33.284c1.171 0 2.121-.95 2.121-2.121z"/><path d="M24.559 350.429h-.122c-1.171 0-2.121.95-2.121 2.121v.122c0 1.171.95 2.121 2.121 2.121h.122c1.171 0 2.121-.95 2.121-2.121v-.122a2.12 2.12 0 00-2.121-2.121zM476.598 339.018v4.706c0 1.171.95 2.121 2.121 2.121H512v-8.948h-33.281a2.12 2.12 0 00-2.121 2.121zM391.364 345.845h35.072c1.171 0 2.121-.95 2.121-2.121v-4.706c0-1.171-.95-2.121-2.121-2.121h-35.072c-1.171 0-2.121.95-2.121 2.121v4.706a2.12 2.12 0 002.121 2.121zM470.113 336.897h-35.072c-1.171 0-2.121.95-2.121 2.121v4.706c0 1.171.95 2.121 2.121 2.121h35.072c1.171 0 2.121-.95 2.121-2.121v-4.706a2.12 2.12 0 00-2.121-2.121zM382.758 336.897h-35.072c-1.171 0-2.121.95-2.121 2.121v4.706c0 1.171.95 2.121 2.121 2.121h35.072c1.171 0 2.121-.95 2.121-2.121v-4.706a2.12 2.12 0 00-2.121-2.121zM304.008 345.845h35.129c1.171 0 2.121-.95 2.121-2.121v-4.706c0-1.171-.95-2.121-2.121-2.121h-35.129c-1.171 0-2.121.95-2.121 2.121v4.706c0 1.171.95 2.121 2.121 2.121zM216.652 345.845h35.075c1.171 0 2.121-.95 2.121-2.121v-4.706c0-1.171-.95-2.121-2.121-2.121h-35.075c-1.171 0-2.121.95-2.121 2.121v4.706c0 1.171.95 2.121 2.121 2.121zM295.405 336.897H260.33c-1.171 0-2.121.95-2.121 2.121v4.706c0 1.171.95 2.121 2.121 2.121h35.075c1.171 0 2.121-.95 2.121-2.121v-4.706a2.12 2.12 0 00-2.121-2.121zM208.049 336.897h-35.075c-1.171 0-2.121.95-2.121 2.121v4.706c0 1.171.95 2.121 2.121 2.121h35.075c1.171 0 2.121-.95 2.121-2.121v-4.706a2.12 2.12 0 00-2.121-2.121zM129.297 345.845h35.017c1.171 0 2.121-.95 2.121-2.121v-4.706c0-1.171-.95-2.121-2.121-2.121h-35.017c-1.171 0-2.121.95-2.121 2.121v4.706a2.12 2.12 0 002.121 2.121zM120.694 336.897H85.619c-1.171 0-2.121.95-2.121 2.121v4.706c0 1.171.95 2.121 2.121 2.121h35.075c1.171 0 2.121-.95 2.121-2.121v-4.706a2.12 2.12 0 00-2.121-2.121zM41.944 345.845h35.015c1.171 0 2.121-.95 2.121-2.121v-4.706c0-1.171-.95-2.121-2.121-2.121H41.944c-1.171 0-2.121.95-2.121 2.121v4.706c0 1.171.95 2.121 2.121 2.121zM35.405 343.724v-4.706c0-1.171-.95-2.121-2.121-2.121H0v8.948h33.284c1.171 0 2.121-.95 2.121-2.121z"/></g><g fill="#ff4b55"><path d="M247.267 206.081c3.133.836 6.475-.084 8.771-2.423 3.466 3.509 9.146 3.592 12.738.169 2.34-2.256 3.3-5.682 2.464-8.771-3.047 4.929-9.48 6.516-14.409 3.425-.25-.169-.584-.336-.794-.502-4.636 3.425-11.192 2.506-14.701-2.087-.126-.253-.376-.586-.543-.836-1.252 4.845 1.671 9.855 6.474 11.025zM266.724 303.66c11.227-6.163 20.595-15.875 25.733-28.665 8.748-21.925 3.238-46.672-13.495-62.724-.575-.552-1.449.186-1.032.866 16.504 26.915 10.003 62.286-15.537 81.667l1.221-78.185a3.453 3.453 0 00-1.282-2.74l-4.153-3.357a3.454 3.454 0 00-4.357.012l-4.093 3.346a3.453 3.453 0 00-1.267 2.726l1.187 78.241c-25.544-19.372-32.06-54.774-15.581-81.708.416-.68-.458-1.417-1.033-.865-16.703 16.052-22.246 40.797-13.499 62.721 5.137 12.79 14.505 22.501 25.735 28.664-7.146 2.449-14.658 3.748-22.254 3.53-.802-.023-.964 1.106-.196 1.339 9.65 2.929 19.575 3.131 28.907 1.039l3.664 7.109a.681.681 0 001.21.002l3.689-7.105c9.333 2.088 19.261 1.883 28.918-1.045.768-.233.607-1.361-.195-1.338-7.602.216-15.132-1.082-22.29-3.53z"/><path d="M312.422 230.974a48.453 48.453 0 00-26.648-22.858c-.712-.25-1.267.69-.685 1.169 25.077 20.658 30.105 57.45 10.711 84.088-1.003 1.337-2.089 2.757-3.133 3.924 23.807-12.779 32.619-42.516 19.755-66.323zM216.236 293.373c-19.393-26.637-14.406-63.428 10.667-84.086.582-.48.027-1.419-.685-1.169-11.345 3.987-20.821 12.122-26.605 22.857-12.946 23.807-4.05 53.544 19.797 66.323-1.127-1.169-2.213-2.588-3.174-3.925z"/></g></svg>