<svg xmlns="http://www.w3.org/2000/svg" x="0" y="0" enable-background="new 0 0 512 512" version="1.1" viewBox="0 0 512 512" xml:space="preserve"><path fill="#F5F5F5" d="M0 0H512V512H0z"/><path fill="#FF4B55" d="M512 0 479.784 0 256 223.784 32.216 0 0 0 0 32.216 223.784 256 0 479.784 0 512 32.216 512 256 288.216 479.784 512 512 512 512 479.784 288.216 256 512 32.216z"/><path fill="#FFE15A" d="M282.556 54.768s-2.795-4.193-6.989-1.398c0 0 4.848 3.494 1.572 7.163-3.467 3.883-8.233.085-8.532-2.698a2.455 2.455 0 0 0 2.277-2.444 2.463 2.463 0 0 0-4.926 0c0 1.062.676 1.959 1.618 2.305-.601 2.382-6.849 4.205-8.65.26-2.028-4.442 1.179-8.211 5.503-7.687 0 0-.83-5.503-6.683-3.189 0 0 2.446-6.29-1.747-10.483-4.193 4.193-1.747 10.483-1.747 10.483-5.853-2.315-6.683 3.189-6.683 3.189 4.324-.524 7.531 3.245 5.503 7.687-1.801 3.945-8.049 2.122-8.65-.26a2.457 2.457 0 0 0-.845-4.768 2.463 2.463 0 0 0-2.463 2.463 2.455 2.455 0 0 0 2.277 2.444c-.299 2.783-5.065 6.58-8.532 2.698-3.276-3.669 1.572-7.163 1.572-7.163-4.193-2.795-6.989 1.398-6.989 1.398-1.398-5.591-6.989-4.193-6.989-4.193 5.591 6.989 9.702 21.404 9.702 21.404h47.686s4.111-14.415 9.702-21.404c.002 0-5.589-1.398-6.987 4.193z"/><path fill="#FF4B55" d="M279.843 71.979c-7.714-2.719-15.779-4.078-23.843-4.078s-16.129 1.359-23.843 4.078C219.65 126.779 256 141.426 256 141.426s36.35-14.648 23.843-69.447z"/><g fill="#82AFFF"><path d="M238.561 91.476s-1.146-.216-2.142.581c0 0-.349-1.378 1.445-1.711 1.793-.332.697 1.13.697 1.13zM237.181 89.732s-.908-.732-2.163-.5c0 0 .344-1.38 2.082-.825 1.738.555.081 1.325.081 1.325z"/><path d="M237.932 90.446s-1.252-.216-2.342.581c0 0-.381-1.378 1.579-1.711 1.961-.332.763 1.13.763 1.13zM259.623 94.108s-1.165.055-1.95 1.061c0 0-.658-1.26 1.01-1.999s.94.938.94.938zM257.915 92.606s-1.053-.502-2.22.014c0 0 .016-1.422 1.834-1.284 1.819.138.386 1.27.386 1.27z"/><path d="M258.773 93.251s-1.268.08-2.144 1.107c0 0-.69-1.253 1.141-2.03 1.83-.776 1.003.923 1.003.923zM272.931 94.826s-.436 0-1.217.735c0 0-.56-1.25 1.087-1.863s.13 1.128.13 1.128zM272.095 93.11s-.983-.544-2.136-.116c0 0 .097-1.366 1.839-1.128 1.742.239.297 1.244.297 1.244z"/><path d="M272.883 93.781s-1.224.003-2.126.94c0 0-.591-1.245 1.215-1.886 1.806-.64.911.946.911.946zM236.644 82.827s-1.053-.7-2.387-.328c0 0 .238-1.52 2.171-1.091 1.933.428.216 1.419.216 1.419zM236.557 80.205s-.68-1.07-2.131-1.163c0 0 .939-1.441 2.588-.335s-.457 1.498-.457 1.498z"/><path d="M236.563 81.598s-1.11-.82-2.577-.517c0 0 .329-1.603 2.408-1.011 2.079.592.169 1.528.169 1.528z"/></g><path fill="#FFE15A" d="M269.568 86.394c1.844.05 4.036-.681 4.385-2.591.401-2.195-1.478-3.305-4.003-3.205-1.842.073-6.507 1.131-9.849 1.013-3.305-.116-3.395-3.387 1.611-3.039 7.424.515 8.603-.448 8.603-.448-3.986.747-5.58-.648-9.815-.648-4.235 0-5.048 2.933-3.338 4.534 1.916 1.794 8.869.598 10.712.249 1.844-.349 4.183-.367 4.368.93.166 1.163-2.923 1.1-5.111 1.016-3.483-.134-8.55.811-13.059 1.044-3.756.194-4.279-.865-5.134-1.95.2-.361.314-.763.314-1.189a2.4 2.4 0 0 0-.089-.624c.284-.312.582-.809.719-1.618 0 0-.961-.169-1.687.198a3.557 3.557 0 0 0-2.206-.746c-.854 0-1.625.287-2.206.746-.726-.366-1.687-.198-1.687-.198.137.809.435 1.306.718 1.618a2.4 2.4 0 0 0-.089.624c0 .782.377 1.489.983 1.996.293.244.509.567.584.942l.105.531a.784.784 0 0 0 .39.526c-3.096-.319-4.561-2.265-5.314-3.347-.849-1.22-1.378-3.92-2.674-4.218l-.764 4.069s1.638 3.786 4.683 5.331c3.438 1.744 4.086 1.794 5.215 2.292.133.598-2.126.963-4.418.498-1.6-.325-3.756-2.648-4.985-2.482l1.431 3.179c3.886 2.458 7.283 2.51 10.197 1.993 2.059-.365 2.843-2.042 2.978-2.759.841-.156 1.756-.33 4.595-1.027 1.189-.292 2.557-.446 3.92-.51.384.876 1.263 1.999 4.285 2.104 0 0 .731 1.163-1.76.93-2.491-.232-3.131-1.009-4.592-.843l1.304 3.102s3.189-1.096 7.108-.698c0 0 .731.199 1.163-.432s.232-.996-.166-1.561c-.224-.318-.354-1.349-.424-2.191 1.435.361 5.841-.533 7.433-.4 1.594.133 1.827 1.993 1.462 2.624s-3.704.091-3.704.091l1.121 3.064s.336-.162 1.187-.963c.692-.651 3.521-.432 3.521-.93v-5.676a.46.46 0 0 0-.502-.455c-6.242.544-7.519-.496-7.519-.496z"/><path fill="#FF4B55" d="M244.679 84.376c.093.183.164.382.201.593l.094.531c.033.186.18.321.35.321h1.447c.17 0 .317-.135.35-.321l.094-.531c.037-.21.107-.409.201-.593h-2.737z"/><g fill="#82AFFF"><path d="M246.047 85.425c-.334 0-.594.04-.559.506l.135 1.985c.023.304.206.535.424.535s.401-.231.424-.535l.135-1.985c.035-.465-.225-.506-.559-.506zM241.736 111.08s-.935-.176-1.748.474c0 0-.284-1.124 1.179-1.395s.569.921.569.921zM240.611 109.658s-.741-.597-1.764-.408c0 0 .281-1.125 1.698-.673 1.417.453.066 1.081.066 1.081z"/><path d="M241.223 110.24s-1.022-.176-1.91.474c0 0-.311-1.124 1.288-1.395 1.599-.271.622.921.622.921zM258.916 113.227s-.95.045-1.59.866c0 0-.537-1.028.824-1.63 1.36-.603.766.764.766.764zM257.523 112.002s-.859-.409-1.811.011c0 0 .013-1.16 1.496-1.047 1.484.112.315 1.036.315 1.036z"/><path d="M258.223 112.529s-1.035.065-1.748.903c0 0-.563-1.022.93-1.656 1.493-.633.818.753.818.753zM269.772 113.813s-.356 0-.993.599c0 0-.457-1.02.887-1.52 1.343-.499.106.921.106.921zM269.09 112.414s-.802-.444-1.742-.094c0 0 .079-1.115 1.5-.92 1.42.193.242 1.014.242 1.014z"/><path d="M269.732 112.96s-.999.002-1.734.767c0 0-.482-1.015.991-1.538 1.473-.522.743.771.743.771zM240.172 104.026s-.859-.571-1.947-.268c0 0 .194-1.24 1.771-.89 1.577.349.176 1.158.176 1.158zM240.102 101.887s-.555-.873-1.738-.949c0 0 .766-1.175 2.111-.274s-.373 1.223-.373 1.223z"/><path d="M240.106 103.023s-.906-.669-2.102-.422c0 0 .269-1.307 1.964-.824s.138 1.246.138 1.246z"/></g><path fill="#FFE15A" d="M267.028 106.935c1.504.041 3.292-.555 3.576-2.113.327-1.79-1.206-2.696-3.265-2.615-1.503.059-5.307.922-8.033.826-2.696-.095-2.769-2.762 1.314-2.479 6.056.42 7.017-.366 7.017-.366-3.251.61-4.552-.528-8.006-.528s-4.117 2.392-2.723 3.698c1.563 1.464 7.234.488 8.738.203 1.504-.284 3.412-.3 3.563.759.135.948-2.384.897-4.169.829-2.841-.109-6.974.662-10.652.851-3.064.158-3.491-.706-4.188-1.59a1.99 1.99 0 0 0 .256-.97c0-.176-.028-.345-.072-.509.231-.254.474-.66.586-1.32 0 0-.784-.137-1.376.161-.474-.374-1.103-.608-1.799-.608s-1.325.234-1.799.608c-.592-.299-1.376-.161-1.376-.161.112.66.355 1.066.586 1.32a1.955 1.955 0 0 0-.072.509c0 .638.307 1.215.802 1.628.239.199.416.463.476.768l.086.433a.64.64 0 0 0 .318.429c-2.525-.26-3.721-1.848-4.334-2.73-.692-.995-1.124-3.197-2.181-3.441l-.623 3.319s1.336 3.088 3.82 4.349c2.804 1.422 3.333 1.463 4.254 1.869.108.488-1.734.786-3.604.406-1.305-.265-3.064-2.16-4.066-2.024l1.167 2.593c3.17 2.005 5.941 2.047 8.318 1.626 1.68-.298 2.319-1.666 2.429-2.251.686-.127 1.433-.269 3.748-.838.97-.238 2.086-.364 3.197-.416.313.715 1.03 1.63 3.495 1.716 0 0 .596.948-1.436.759-2.032-.19-2.554-.823-3.746-.687l1.063 2.53s2.601-.894 5.798-.569c0 0 .596.163.948-.352s.19-.813-.135-1.273c-.183-.259-.288-1.1-.346-1.787 1.171.294 4.764-.434 6.063-.326 1.301.108 1.49 1.626 1.192 2.14-.298.515-3.021.075-3.021.075l.914 2.499s.274-.132.969-.786c.564-.531 2.872-.352 2.872-.759v-4.63a.374.374 0 0 0-.409-.371c-5.092.445-6.134-.404-6.134-.404z"/><path fill="#FF4B55" d="M246.726 105.289c.076.15.133.312.164.483l.077.433c.027.152.147.262.285.262h1.18c.138 0 .258-.11.285-.262l.077-.433c.03-.172.088-.334.164-.483h-2.232z"/><g fill="#82AFFF"><path d="M247.842 106.145c-.273 0-.485.033-.456.413l.11 1.619c.019.248.168.436.346.436s.327-.188.346-.436l.11-1.619c.029-.38-.183-.413-.456-.413zM245.267 126.662s-.7-.132-1.308.355c0 0-.213-.842.882-1.045 1.095-.203.426.69.426.69zM244.424 125.597s-.555-.447-1.321-.305c0 0 .21-.843 1.271-.504s.05.809.05.809z"/><path d="M244.883 126.033s-.765-.132-1.43.355c0 0-.233-.842.965-1.045 1.196-.203.465.69.465.69zM258.13 128.269s-.711.034-1.191.648c0 0-.402-.77.617-1.221s.574.573.574.573zM257.087 127.352s-.643-.307-1.356.008c0 0 .009-.868 1.12-.784 1.111.085.236.776.236.776z"/><path d="M257.611 127.746s-.775.049-1.309.676c0 0-.421-.765.697-1.24 1.117-.473.612.564.612.564zM266.258 128.708s-.266 0-.743.449c0 0-.342-.764.664-1.138 1.006-.375.079.689.079.689zM265.748 127.66s-.6-.332-1.304-.071c0 0 .059-.835 1.123-.689 1.063.146.181.76.181.76z"/><path d="M266.229 128.07s-.748.002-1.298.574c0 0-.361-.76.742-1.152s.556.578.556.578zM244.096 121.38s-.643-.428-1.458-.201c0 0 .146-.928 1.326-.666 1.18.262.132.867.132.867zM244.043 119.778s-.415-.653-1.301-.711c0 0 .573-.88 1.581-.205 1.006.676-.28.916-.28.916z"/><path d="M244.046 120.629s-.678-.501-1.574-.316c0 0 .201-.979 1.471-.617 1.27.361.103.933.103.933z"/></g><path fill="#FFE15A" d="M264.204 123.558c1.126.03 2.465-.416 2.678-1.582.245-1.34-.903-2.019-2.445-1.958-1.125.044-3.974.691-6.015.619-2.019-.071-2.074-2.068.984-1.856 4.534.314 5.254-.274 5.254-.274-2.434.456-3.408-.396-5.995-.396s-3.083 1.791-2.039 2.769c1.17 1.096 5.417.365 6.542.152 1.126-.213 2.554-.224 2.668.568.101.71-1.785.672-3.121.62-2.127-.082-5.222.495-7.975.637-2.294.118-2.614-.528-3.136-1.191a1.49 1.49 0 0 0 .192-.726 1.46 1.46 0 0 0-.054-.381c.173-.19.355-.494.439-.988 0 0-.587-.103-1.03.121-.355-.28-.826-.455-1.347-.455s-.992.175-1.347.455c-.443-.224-1.03-.121-1.03-.121.084.494.266.798.439.988-.033.123-.054.25-.054.381 0 .478.23.909.601 1.219.179.149.311.347.356.575l.064.324c.028.142.12.253.238.322-1.891-.195-2.786-1.383-3.245-2.044-.518-.745-.842-2.394-1.633-2.576l-.467 2.485s1 2.312 2.86 3.256c2.1 1.065 2.495 1.095 3.185 1.4.081.365-1.298.588-2.698.304-.977-.198-2.294-1.617-3.044-1.516l.874 1.942c2.374 1.501 4.448 1.533 6.228 1.217 1.258-.223 1.736-1.247 1.819-1.685.513-.095 1.073-.202 2.807-.627.726-.178 1.562-.273 2.394-.311.235.535.771 1.221 2.617 1.285 0 0 .446.71-1.075.568-1.521-.142-1.912-.616-2.805-.515l.796 1.894s1.948-.669 4.341-.426c0 0 .446.122.71-.264.264-.385.142-.609-.101-.953-.137-.194-.216-.824-.259-1.338.877.22 3.567-.325 4.54-.244.974.081 1.116 1.217.893 1.603-.223.385-2.262.056-2.262.056l.685 1.871s.205-.099.725-.588c.422-.398 2.15-.264 2.15-.568v-3.467a.281.281 0 0 0-.307-.278c-3.815.333-4.595-.303-4.595-.303z"/><path fill="#FF4B55" d="M249.003 122.326c.057.112.1.234.123.362l.057.324c.02.114.11.196.214.196h.884c.104 0 .193-.082.213-.196l.057-.324c.023-.128.066-.25.123-.362h-1.671z"/><path fill="#82AFFF" d="M249.839 122.967c-.204 0-.363.025-.342.309l.082 1.212c.014.186.126.326.259.326s.245-.141.259-.326l.082-1.212c.023-.285-.136-.309-.34-.309z"/></svg>