<svg xmlns="http://www.w3.org/2000/svg" viewBox="0 0 512 512"><path fill="#464655" d="M0 0h512v170.67H0z"/><path fill="#73af00" d="M0 341.33h512V512H0z"/><path fill="#f5f5f5" d="M0 170.67h512v170.67H0z"/><path fill="#ff4b55" d="M302.368 261.454c2.838-2.346 2.838-8.562 0-10.909L0 0v512l302.368-250.546z"/><path fill="#f5f5f5" d="M100.083 215.575l9.288 20.147 21.543-5.3c1.345-.331 2.459 1.067 1.838 2.304l-9.96 19.823 17.575 13.538c1.097.845.699 2.588-.656 2.873l-21.709 4.572.373 22.182c.023 1.385-1.587 2.16-2.655 1.279l-17.11-14.122-17.11 14.123c-1.068.882-2.679.106-2.655-1.279l.373-22.182-21.709-4.572c-1.355-.285-1.753-2.028-.656-2.873l17.575-13.538-9.96-19.823c-.622-1.238.493-2.635 1.838-2.304l21.543 5.3 9.288-20.147c.579-1.259 2.367-1.259 2.946-.001z"/></svg>