<svg xmlns="http://www.w3.org/2000/svg" x="0" y="0" enable-background="new 0 0 512 512" version="1.1" viewBox="0 0 512 512" xml:space="preserve"><path fill="#FFE15A" d="M0 0H512V128H0z"/><path fill="#F5F5F5" d="M0 128H512V256H0z"/><path fill="#FF4B55" d="M0 256H512V384H0z"/><path fill="#4173CD" d="M0 384H512V512H0z"/><path fill="#73AF00" d="m0 512 253.284-249.017c3.621-3.57 3.621-10.397 0-13.966L0 0v512z"/><g fill="#F5F5F5"><path d="M63.777 256c0-42.49 27.774-78.442 66.144-90.824 2.017-.651 1.736-3.596-.365-3.871a92.69 92.69 0 0 0-12.065-.796C64.753 160.509 22 203.262 22 256s42.753 95.491 95.491 95.491c4.092 0 8.115-.278 12.065-.796 2.102-.275 2.382-3.22.365-3.871C91.552 334.442 63.777 298.49 63.777 256z"/><path d="m130.41 183.064 2.629 7.882 8.308.064c1.076.008 1.522 1.381.656 2.02l-6.684 4.936 2.506 7.922c.324 1.026-.843 1.874-1.718 1.248l-6.759-4.831-6.759 4.831c-.875.626-2.043-.223-1.718-1.248l2.506-7.922-6.684-4.936c-.865-.639-.419-2.012.656-2.02l8.308-.064 2.629-7.882c.341-1.021 1.784-1.021 2.124 0zM130.41 223.006l2.629 7.882 8.308.064c1.076.008 1.522 1.381.656 2.02l-6.684 4.936 2.506 7.922c.324 1.026-.843 1.874-1.718 1.248l-6.759-4.831-6.759 4.831c-.875.626-2.043-.223-1.718-1.248l2.506-7.922-6.684-4.936c-.865-.639-.419-2.012.656-2.02l8.308-.064 2.629-7.882c.341-1.02 1.784-1.02 2.124 0zM130.41 262.949l2.629 7.882 8.308.064c1.076.008 1.522 1.381.656 2.02l-6.684 4.936 2.506 7.922c.324 1.026-.843 1.874-1.718 1.248l-6.759-4.831-6.759 4.831c-.875.626-2.043-.223-1.718-1.248l2.506-7.922-6.684-4.936c-.865-.639-.419-2.012.656-2.02l8.308-.064 2.629-7.882c.341-1.021 1.784-1.021 2.124 0zM130.41 302.891l2.629 7.882 8.308.064c1.076.008 1.522 1.381.656 2.02l-6.684 4.936 2.506 7.922c.324 1.026-.843 1.874-1.718 1.248l-6.759-4.831-6.759 4.831c-.875.626-2.043-.223-1.718-1.248l2.506-7.922-6.684-4.936c-.865-.639-.419-2.012.656-2.02l8.308-.064 2.629-7.882c.341-1.02 1.784-1.02 2.124 0z"/></g></svg>