<svg xmlns="http://www.w3.org/2000/svg" x="0" y="0" enable-background="new 0 0 512 512" version="1.1" viewBox="0 0 512 512" xml:space="preserve"><path fill="#73AF00" d="M0 0H512V512H0z"/><g fill="#FFE15A"><path d="M375.086 0 0 375.086 0 415.356 415.356 0z"/><path d="M512 136.914 512 96.644 96.644 512 136.914 512z"/></g><path fill="#464655" d="M512 96.644 512 0 415.356 0 0 415.356 0 512 96.644 512z"/><g fill="#F5F5F5"><path d="m161.231 298.781 20.997 10.015 16.273-16.624c2.107-2.152 5.741-.384 5.348 2.602l-3.037 23.064 20.839 10.34c2.698 1.339 2.139 5.341-.822 5.89l-22.874 4.239-3.394 23.014c-.439 2.98-4.419 3.685-5.856 1.038l-11.1-20.444-22.936 3.884c-2.97.503-4.87-3.064-2.797-5.248l16.014-16.874-10.781-20.614c-1.397-2.669 1.408-5.579 4.126-4.282zM307.231 150.781l20.997 10.015 16.273-16.624c2.107-2.152 5.741-.384 5.348 2.602l-3.037 23.064 20.839 10.34c2.698 1.339 2.139 5.341-.822 5.89l-22.874 4.239-3.394 23.014c-.439 2.98-4.419 3.685-5.856 1.038l-11.1-20.444-22.936 3.884c-2.97.503-4.87-3.064-2.797-5.248l16.014-16.874-10.781-20.614c-1.397-2.669 1.408-5.579 4.126-4.282z"/></g><path fill="#FF4B55" d="M512 498.526V136.914L136.914 512h366.259c4.875 0 8.827-6.032 8.827-13.474z"/></svg>