<svg xmlns="http://www.w3.org/2000/svg" x="0" y="0" enable-background="new 0 0 512 512" version="1.1" viewBox="0 0 512 512" xml:space="preserve"><path fill="#41479B" d="M0 0H512V512H0z"/><g fill="#FFE15A"><path d="M395.511 261.354s-4.219-16.875-16.875-25.313c0 0 12.656 21.094 12.656 37.969l4.219-12.656z"/><path d="M375.999 243.028s8.833 5.405 13.579 14.238l-3.823 8.833c0 .001-3.164-12.524-9.756-23.071z"/><path d="M366.243 245.006s15.293 4.746 22.544 14.634l-4.351 6.592c.001 0-5.8-11.207-18.193-21.226z"/><path d="M364.002 252.652s16.084 2.505 23.335 10.152l-1.846 7.251c.001 0-8.832-10.547-21.489-17.403z"/><path d="M364.529 257.926s15.557 1.582 22.676 9.756-2.637 5.669-2.637 5.669-8.173-9.361-20.039-15.425zM395.511 261.354s4.219-16.875 16.875-25.313c0 0-12.656 21.094-12.656 37.969l-4.219-12.656z"/><path d="M415.023 243.028s-8.833 5.405-13.579 14.238l3.823 8.833c0 .001 3.164-12.524 9.756-23.071z"/><path d="M424.779 245.006s-15.293 4.746-22.544 14.634l4.351 6.592s5.801-11.207 18.193-21.226z"/><path d="M427.021 252.652s-16.084 2.505-23.335 10.152l1.846 7.251c-.001 0 8.832-10.547 21.489-17.403z"/><path d="M426.493 257.926s-15.557 1.582-22.676 9.756 2.637 5.669 2.637 5.669 8.174-9.361 20.039-15.425zM395.511 236.041s-4.219 8.877 0 13.316c4.219-4.439 0-13.316 0-13.316z"/><path d="M391.309 238.244s-.566 9.812 5.013 12.336c2.237-5.7-5.013-12.336-5.013-12.336z"/><path d="M399.714 238.244s.566 9.812-5.013 12.336c-2.237-5.7 5.013-12.336 5.013-12.336z"/><path d="M401.096 243.904s-3.681 9.113-9.804 9.011c.413-6.11 9.804-9.011 9.804-9.011z"/><path d="M389.927 243.904s3.681 9.113 9.804 9.011c-.414-6.11-9.804-9.011-9.804-9.011z"/></g><ellipse cx="395.51" cy="265.57" fill="#FFD255" rx="12.656" ry="16.875"/><g fill="#73AF00"><path d="m366.595 282.799-2.9-4.482s-8.438 2.022-10.459-4.307l-3.252-.264s.439-4.307 4.219-4.922c0 0 2.285-2.813 6.328-2.285 4.043.527 6.152 3.955 8.482 4.834 2.329.879 2.593 3.779 2.593 3.779l17.754 18.194s-5.098 6.504-9.668 8.613c-4.572 2.11-21.359-8.173-13.097-19.16zM424.252 286.139s7.383 5.01 7.647 18.853h-12.261s.132-9.36-2.241-14.37l6.855-4.483z"/><path d="M422.67 286.666s9.229 3.032 14.898-4.219l-9.624-1.318-5.274 5.537z"/><path d="m419.901 276.515 9.371 3.159c1.182.398 1.599 1.861.771 2.794-3.555 4.005-14.168 13.603-31.279 13.603-22.281 0-28.038-14.019-28.301-15.073-.264-1.055-1.45-9.624-1.45-9.624l9.492-1.055 41.396 6.196z"/></g><g fill="#FF4B55"><path d="M328.784 405.591 353.323 405.591 340.667 430.106 328.01 413.231z"/><path d="M462.239 405.591 437.699 405.591 450.356 430.106 463.012 413.231z"/></g><g fill="#FFD25A"><path d="M328.682 446.981c-12.106 0-21.37-6.497-21.848-6.835l9.756-13.773c.08.054 8.254 5.607 16.589 3.082 8.434-2.546 13.971-12.5 17.133-20.406l15.668 6.271c-6.648 16.62-16.127 26.833-28.172 30.364a32.385 32.385 0 0 1-9.126 1.297zM462.341 446.981c12.106 0 21.37-6.497 21.848-6.835l-9.756-13.773c-.08.054-8.254 5.607-16.589 3.082-8.434-2.546-13.971-12.5-17.133-20.406l-15.668 6.271c6.647 16.62 16.127 26.833 28.172 30.364a32.38 32.38 0 0 0 9.126 1.297z"/></g><path fill="#FF4B55" d="M450.356 358.386H340.667V315.76a8 8 0 0 1 8-8h93.689a8 8 0 0 1 8 8v42.626z"/><g fill="#FFE15A"><path d="m370.594 337.292-1.318-8.438c-6.196-.264-9.756-7.515-9.756-7.515l-5.01 2.769c5.273 12.657 16.084 13.184 16.084 13.184z"/><path d="M436.645 328.591c1.846-1.406 5.889-1.934 5.889-1.934-2.9-2.988-6.065-.879-6.065-.879 2.637-2.461 1.143-5.976 1.143-5.976 0 1.143-1.846 1.934-1.846 1.934.088-2.286-2.285-4.482-2.285-4.482l-1.231 2.021c-.791-1.934-3.603-3.428-3.603-3.428l-1.143 4.746c-2.637-2.285-7.295-2.109-7.295-2.109l.879 2.197c-2.813.088-10.459 1.67-14.942 2.197s-8.086-.703-8.086-2.724c0-1.693 3.918-1.903 5.612-1.928 1.199.267 2.707.699 4.825 1.335 3.955 1.187 6.272-.532 6.272-.532-1.384-.527-1.539-1.142-1.539-1.142 2.966-1.714 5.748-1.292 5.748-1.292-.989-2.175-5.273-2.043-5.273-2.043 1.121-.593 1.978-2.439 1.978-2.439-.264.264-2.7.861-6.026 1.308-2.503.336-4.854 2.24-5.825 3.119-2.639-.201-9.534-.286-8.321 4.494 1.494 5.889 13.36 3.78 20.655 2.637 7.295-1.142 11.074-.176 12.656.791 1.582.967-.674 4.242-8.086 2.9-6.406-1.159-9.933-1.192-11.87-.989-2.147.138-3.979.715-5.269.989-2.9.615-14.063 4.571-16.172-1.142s-12.393 9.316-12.393 9.316l.803.956-2.737-.648c-3.691 4.944-14.766 6.46-14.766 6.46s-1.648-2.966-3.032-3.362-1.978 1.78-1.978 1.78-1.648.066-1.78 1.582 1.187 1.648 1.187 1.648-1.582 2.307 1.055 2.966c0 0-.198 3.23 3.691.989 11.553 1.456 19.979-4.477 23.627-7.712 2.384.152 6.101.077 8.959-1.406 4.571-2.373 9.844-5.362 12.92-4.219 0 0 2.461 7.559-7.207 7.735 0 0-1.43-1.809-2.87-1.809-.621 0-1.266.745-1.067 1.415 0 0-1.687-.099-1.985.894-.243.81.347 1.737 1.588 1.588 0 0-.844 1.241 0 1.985s1.886 0 1.886 0-.447 1.538.596 1.688c.892.127 2.072-1.329 2.41-1.772 1.547.24 12.104 1.458 14.383-9.614 0 0 5.273 2.285 10.459 1.846 5.186-.439 10.283.352 9.844 2.9-.575 1.847-1.708 1.726-1.708 1.726-1.241-.496-3.326-.447-3.623 1.34-.298 1.787 2.134 1.836 2.134 1.836.695 1.638 2.68.943 2.68.943 1.737 1.241 2.879-.099 2.879-.099.745.645 1.514.766 2.234.149.695-.595.305-4.566.239-5.983-.11-2.358-.44-8.525-3.867-8.613-3.428-.088-7.822 1.934-13.887-3.164-.317-.266-.625-.435-.939-.662 2.87.266 4.926 1.044 6.915 1.365 2.726.436 10.724-.267 12.57-1.673zM354.51 324.108s-1.681.045-2.505-.198c-1.411-.416-1.582-2.637-.066-3.032 0 0-1.825-1.24-.989-2.637.669-1.117 2.375-1.114 2.969-.455 0 0-.556-1.838 1.052-2.445 1.28-.483 2.307.989 2.307 2.9 0 0 1.913-1.556 2.9-.527.689.717.49 1.66-.659 3.626-1.172 2.004-5.009 2.768-5.009 2.768z"/></g><g fill="#41479B"><path d="M352.43 323.296s-.893 1.539-3.474.596c0 0 2.233-1.042 2.531-1.936l.943 1.34zM351.487 318.779s-1.39-.893-2.928-.844c0 0 2.283-1.688 4.219-.199l-1.291 1.043zM354.713 316.397s.447-1.638-.447-2.531c0 0 1.836.794 2.085 2.283l-1.638.248zM358.783 318.084s.893-1.985.099-2.928c0 0 2.382 1.39 1.39 3.673l-1.489-.745zM354.133 340.143s-.955-1.956-2.188-1.948c0 0 2.592-.943 3.713 1.28l-1.525.668zM352.044 342.633s-1.704-1.355-2.814-.818c0 0 1.934-1.966 3.902-.442l-1.088 1.26zM353.241 346.15s-2.177-.025-2.724 1.081c0 0 .321-2.739 2.81-2.743l-.086 1.662zM355.23 348.411s-.893 1.539-3.474.596c0 0 2.233-1.042 2.531-1.936l.943 1.34zM394.461 347.629s-.732 1.26-2.846.488c0 0 1.716-.613 1.96-1.345l.886.857z"/></g><path fill="#FFD255" d="M372.134 320.417s-4.748 8.086-3.606 19.776c0 0 13.997-2.043 20.061-16.018 0 0 1.478-.597 2.054-2.032.49-1.221.45-3.23-1.901-3.219 0 0 .703-1.406 1.56-1.736 0 0-1.516-.593-3.296-.198 0 0 1.384-1.384 1.384-3.164 0 0-2.109 1.384-3.428 1.516 0 0-.132-2.175.396-2.439 0 0-2.769.264-4.153 1.714 0 0-.923-1.252-.857-2.571 0 0-2.571 1.121-3.56 2.769 0 0-.791-.857-.725-1.714 0 0-1.846 2.241-2.241 3.428 0 0-1.739-.478-2.505.923-.55 1.009-.424 2.121.817 2.965z"/><g fill="#41479B"><path d="M392.351 341.743s-.563-1.059-2.25-1.29c0 0 2.151-.993 3.507.43l-1.257.86zM427.244 345.763s-1.234.389-1.81 2.134c0 0-.631-2.476 1.144-3.637l.666 1.503zM429.833 346.673s-1.168 1.135-1.112 2.972c0 0-1.441-2.11-.171-3.809l1.283.837zM435.416 346.574s-.353 1.202.714 2.484c0 0-2.21-.703-2.25-2.627l1.536.143zM432.792 347.041s-.937.891-.689 2.712c0 0-1.743-1.531-.657-3.353l1.346.641zM390.553 343.91s-1.129-.404-2.533.56c0 0 .922-2.182 2.883-2.043l-.35 1.483zM392.095 346.311s-1.16-.304-2.474.78c0 0 .202-2.105 2.168-2.138l.306 1.358z"/></g><path fill="#F5F5F5" d="M450.356 365.185c-9.149 0-9.149 8.253-18.298 8.253s-9.149-8.253-18.298-8.253c-9.143 0-9.143 8.253-18.285 8.253-9.135 0-9.135-8.253-18.269-8.253-9.133 0-9.133 8.253-18.267 8.253-9.136 0-9.136-8.253-18.272-8.253v-15.236c9.136 0 9.136 8.253 18.272 8.253 9.133 0 9.133-8.253 18.267-8.253 9.135 0 9.135 8.253 18.269 8.253 9.143 0 9.143-8.253 18.285-8.253 9.149 0 9.149 8.253 18.298 8.253s9.149-8.253 18.298-8.253v15.236z"/><path fill="#41479B" d="M432.058 373.437c-9.149 0-9.149-8.253-18.298-8.253-9.143 0-9.143 8.253-18.285 8.253-9.135 0-9.135-8.253-18.269-8.253-9.133 0-9.133 8.253-18.267 8.253-9.117 0-9.143-8.212-18.221-8.247.127 3.648.545 9.063 1.615 15.425 7.421.983 8.098 8.059 16.607 8.059 9.133 0 9.133-8.253 18.267-8.253 9.135 0 9.135 8.253 18.269 8.253 9.143 0 9.143-8.253 18.285-8.253 9.149 0 9.149 8.253 18.298 8.253 8.522 0 9.199-7.077 16.633-8.059 1.07-6.362 1.488-11.777 1.615-15.425-9.094.035-9.119 8.247-18.249 8.247z"/><path fill="#F5F5F5" d="M432.058 388.674c-9.149 0-9.149-8.253-18.298-8.253-9.143 0-9.143 8.253-18.285 8.253-9.135 0-9.135-8.253-18.269-8.253-9.133 0-9.133 8.253-18.267 8.253-8.509 0-9.186-7.076-16.607-8.059.848 5.041 2.113 10.663 3.977 16.477 4.113 2.36 5.905 6.817 12.63 6.817 9.133 0 9.133-8.253 18.267-8.253 9.135 0 9.135 8.253 18.269 8.253 9.143 0 9.143-8.253 18.285-8.253 9.149 0 9.149 8.253 18.298 8.253 6.741 0 8.532-4.465 12.658-6.824 1.863-5.811 3.127-11.431 3.974-16.47-7.433.982-8.11 8.059-16.632 8.059z"/><path fill="#41479B" d="M432.058 403.909c-9.149 0-9.149-8.253-18.298-8.253-9.143 0-9.143 8.253-18.285 8.253-9.135 0-9.135-8.253-18.269-8.253-9.133 0-9.133 8.253-18.267 8.253-6.726 0-8.517-4.457-12.63-6.817 2.322 7.243 5.581 14.755 10.133 21.761.767.157 1.557.293 2.498.293 9.133 0 9.133-8.253 18.267-8.253 9.135 0 9.135 8.253 18.269 8.253 9.143 0 9.143-8.253 18.285-8.253 9.149 0 9.149 8.253 18.298 8.253.951 0 1.751-.135 2.525-.295 4.552-7.008 7.811-14.521 10.133-21.765-4.127 2.358-5.918 6.823-12.659 6.823z"/><path fill="#F5F5F5" d="M432.058 419.146c-9.149 0-9.149-8.253-18.298-8.253-9.143 0-9.143 8.253-18.285 8.253-9.135 0-9.135-8.253-18.269-8.253-9.133 0-9.133 8.253-18.267 8.253-.94 0-1.731-.135-2.498-.293 2.892 4.452 6.316 8.685 10.347 12.515 2.794-2.36 5.012-5.24 10.418-5.24 9.135 0 9.135 8.253 18.269 8.253 9.143 0 9.143-8.253 18.285-8.253 5.428 0 7.647 2.894 10.456 5.257 4.04-3.836 7.47-8.076 10.367-12.535-.774.16-1.574.296-2.525.296z"/><path fill="#41479B" d="M424.216 431.386c-2.808-2.363-5.028-5.257-10.456-5.257-9.143 0-9.143 8.253-18.285 8.253-9.135 0-9.135-8.253-18.269-8.253-5.406 0-7.624 2.88-10.418 5.24 7.348 6.983 16.718 12.611 28.723 15.612 11.996-2.999 21.359-8.62 28.705-15.595z"/><g fill="#F5F5F5"><path d="M413.76 349.949c-9.143 0-9.143 8.253-18.285 8.253-9.135 0-9.135-8.253-18.269-8.253-9.133 0-9.133 8.253-18.267 8.253-9.136 0-9.136-8.253-18.272-8.253v12.656c0 .714.016 1.593.051 2.585 9.079.035 9.104 8.247 18.221 8.247 9.133 0 9.133-8.253 18.267-8.253 9.135 0 9.135 8.253 18.269 8.253 9.143 0 9.143-8.253 18.285-8.253 9.149 0 9.149 8.253 18.298 8.253 9.13 0 9.156-8.212 18.247-8.247.034-.992.051-1.871.051-2.585v-12.656c-9.149 0-9.149 8.253-18.298 8.253-9.149-.001-9.149-8.253-18.298-8.253z"/><path d="M446.137 307.761a4.22 4.22 0 0 1 4.219 4.219V362.606c0 .714-.016 1.593-.051 2.585-.127 3.648-.545 9.063-1.615 15.425-.848 5.039-2.112 10.659-3.974 16.47-2.322 7.244-5.581 14.758-10.133 21.765-2.897 4.46-6.327 8.7-10.367 12.535-7.346 6.975-16.709 12.596-28.705 15.595-12.005-3.001-21.375-8.63-28.723-15.612-4.031-3.831-7.455-8.064-10.347-12.515-4.551-7.006-7.811-14.518-10.133-21.761-1.864-5.814-3.129-11.436-3.977-16.477-1.07-6.362-1.488-11.777-1.615-15.425a77.653 77.653 0 0 1-.051-2.585V311.98a4.22 4.22 0 0 1 4.219-4.219h101.253m0-3.165H344.886c-4.071 0-7.383 3.312-7.383 7.383V362.605c0 .744.017 1.661.053 2.694.119 3.444.504 8.987 1.656 15.841.981 5.835 2.355 11.527 4.084 16.918 2.674 8.342 6.205 15.918 10.492 22.518 3.158 4.861 6.798 9.263 10.82 13.085 8.391 7.973 18.53 13.487 30.135 16.389l.767.192.767-.192c11.597-2.899 21.73-8.407 30.116-16.371 4.032-3.828 7.68-8.237 10.842-13.106 4.288-6.602 7.819-14.18 10.493-22.523 1.727-5.387 3.1-11.077 4.082-16.911 1.152-6.854 1.537-12.397 1.656-15.84.036-1.034.053-1.951.053-2.695V311.978c.001-4.07-3.311-7.382-7.382-7.382z"/></g><path fill="#73AF00" d="M395.511 421.468 383.934 429.523 388.019 416.023 376.781 407.504 390.88 407.217 395.511 393.894 400.143 407.217 414.242 407.504 403.004 416.023 407.088 429.523z"/><path fill="#FFE15A" d="m395.511 396.498 4.018 11.561 12.237.25-9.753 7.394 3.544 11.715-10.046-6.991-10.046 6.991 3.544-11.715-9.753-7.394 12.237-.25 4.018-11.561m0-5.205-1.614 4.644-3.628 10.437-11.048.225-4.916.1 3.918 2.971 8.805 6.676-3.2 10.576-1.424 4.706 4.036-2.809 9.07-6.311 9.07 6.311 4.036 2.809-1.424-4.706-3.2-10.576 8.805-6.676 3.918-2.971-4.916-.1-11.048-.225-3.628-10.437-1.612-4.644z"/><path fill="#73AF00" d="M370.086 388.562 358.509 396.617 362.594 383.117 351.356 374.598 365.455 374.311 370.086 360.988 374.718 374.311 388.817 374.598 377.579 383.117 381.663 396.617z"/><path fill="#FFE15A" d="m370.086 363.592 4.018 11.561 12.237.25-9.753 7.394 3.544 11.715-10.046-6.991-10.046 6.991 3.544-11.715-9.753-7.394 12.237-.25 4.018-11.561m0-5.206-1.614 4.644-3.628 10.437-11.048.225-4.916.1 3.918 2.971 8.805 6.676-3.2 10.576-1.424 4.706 4.036-2.809 9.07-6.311 9.07 6.311 4.036 2.809-1.424-4.706-3.2-10.576 8.805-6.676 3.918-2.971-4.916-.1-11.048-.225-3.628-10.437-1.612-4.644z"/><path fill="#73AF00" d="M420.712 388.562 409.135 396.617 413.22 383.117 401.981 374.598 416.08 374.311 420.712 360.988 425.344 374.311 439.443 374.598 428.205 383.117 432.289 396.617z"/><g fill="#FFE15A"><path d="m420.712 363.592 4.018 11.561 12.237.25-9.753 7.394 3.544 11.715-10.046-6.991-10.046 6.991 3.544-11.715-9.753-7.394 12.237-.25 4.018-11.561m0-5.206-1.614 4.644-3.628 10.437-11.048.225-4.916.1 3.918 2.971 8.805 6.676-3.2 10.576-1.424 4.706 4.036-2.809 9.07-6.311 9.07 6.311 4.036 2.809-1.424-4.706-3.2-10.576 8.805-6.676 3.918-2.971-4.916-.1-11.048-.225-3.628-10.437-1.612-4.644zM462.239 405.591c-10.47 26.658-36.399 45.609-66.727 45.609s-56.258-18.951-66.727-45.609l-15.7 6.143c12.933 32.93 44.964 56.341 82.427 56.341s69.494-23.411 82.427-56.341l-15.7-6.143z"/></g><g fill="#F5F5F5"><path d="M403.949 307.761 391.293 307.761 387.074 295.104 399.73 295.104z"/><path d="M425.043 307.761h-8.438l-2.813-8.438h3.851a6.364 6.364 0 0 1 6.037 4.351l1.363 4.087zM378.636 307.761h-8.438l-.962-2.885c-.911-2.732 1.123-5.553 4.002-5.553h2.584l2.814 8.438z"/></g><g fill="#41479B"><path d="M416.605 307.761h-12.656l-4.219-12.656h9.616a4.218 4.218 0 0 1 4.002 2.885l3.257 9.771zM391.293 307.761h-12.656l-2.85-8.549a3.12 3.12 0 0 1 2.96-4.107h8.327l4.219 12.656z"/></g><path fill="#509664" d="M426.493 278.493c-3.296 4.746-12.525 10.415-27.554 10.415-12.384 0-20.349-7.478-23.008-10.426a3.848 3.848 0 0 1-.986-2.602v-2.877c0-1.238.642-2.365 1.713-2.988 2.679-1.558 8.871-4.046 21.095-4.046 15.161-.001 28.74 12.524 28.74 12.524z"/><g fill="#41479B"><path d="M94.316.046 0 .046 0 20.023 94.316 81.816z"/><path d="M0 68.345 0 94.362 39.71 94.362z"/><path d="M0 161.73 0 187.747 39.71 161.73z"/><path d="M256 20.023 256 .046 161.684.046 161.684 81.816z"/><path d="M256 187.747 256 161.73 216.29 161.73z"/><path d="M161.684 174.276 161.684 256.046 256 256.046 256 236.069z"/><path d="M256 94.362 256 68.345 216.29 94.362z"/><path d="M0 236.069 0 256.046 94.316 256.046 94.316 174.276z"/></g><g fill="#F5F5F5"><path d="M256 236.069 256 216.105 172.232 161.73 196.98 161.73 256 200.041 256 187.747 216.29 161.73 256 161.73 256 148.256 148.211 148.256 148.211 256.046 161.684 256.046 161.684 174.276z"/><path d="M0 148.256 0 161.73 39.71 161.73 0 187.747 0 206.648 69.197 161.73 93.945 161.73 0 222.712 0 236.069 94.316 174.276 94.316 256.046 107.789 256.046 107.789 148.256z"/><path d="M107.789.046 94.316.046 94.316 81.816 0 20.023 0 41.885 80.842 94.362 56.094 94.362 0 57.95 0 68.345 39.71 94.362 0 94.362 0 107.836 107.789 107.836z"/><path d="M256 107.836 256 94.362 216.29 94.362 256 68.345 256 49.203 186.432 94.362 161.684 94.362 256 33.139 256 20.023 161.684 81.816 161.684.046 148.211.046 148.211 107.836z"/></g><g fill="#FF4B55"><path d="M256 148.256 256 107.836 148.211 107.836 148.211.046 107.789.046 107.789 107.836 0 107.836 0 148.256 107.789 148.256 107.789 256.046 148.211 256.046 148.211 148.256z"/><path d="M69.197 161.73 0 206.648 0 222.712 93.945 161.73z"/><path d="M172.232 161.73 256 216.105 256 200.041 196.98 161.73z"/><path d="M80.842 94.362 0 41.885 0 57.95 56.094 94.362z"/><path d="M186.432 94.362 256 49.203 256 33.139 161.684 94.362z"/></g></svg>