<svg xmlns="http://www.w3.org/2000/svg" viewBox="0 0 512 512"><g fill="#ff4b55"><path d="M0 0h512v107.79H0zM0 404.21h512V512H0z"/></g><path fill="#f5f5f5" d="M0 107.79h512v296.42H0z"/><path fill="#73af00" d="M284.79 346.631l124.519-24.904c8.986-1.797 12.998-12.374 7.465-19.679a12.422 12.422 0 00-7.987-4.772l-132.654-20.683a6.787 6.787 0 01-5.647-7.822c.597-3.685 4.331-6.032 8.032-5.545l91.975 12.102c7.475.984 12.06-7.949 6.904-13.449l-7.383-7.876a19.194 19.194 0 00-10.357-5.718l-76.833-14.879 65.511 4.719c5.022.362 7.931-5.574 4.568-9.322l-3.36-3.744a14.282 14.282 0 00-7.705-4.44l-65.041-13.592 46.224-1.338c4.087-.118 6.166-4.964 3.435-8.007l-2.073-2.309a12.937 12.937 0 00-6.06-3.795l-41.225-11.836h32.398c3.205 0 5.361-3.284 4.086-6.224l-1.092-2.521a11.688 11.688 0 00-6.96-6.418l-29.961-10.192 14.735-.048c4.379-.014 7.316-4.503 5.575-8.521a15.33 15.33 0 00-7.01-7.514L256 121.263l-32.867 17.04a15.33 15.33 0 00-7.01 7.514c-1.741 4.018 1.195 8.507 5.575 8.521l14.735.048-29.961 10.192a11.69 11.69 0 00-6.96 6.418l-1.092 2.521c-1.274 2.941.881 6.224 4.086 6.224h32.398l-41.225 11.836a12.947 12.947 0 00-6.06 3.795l-2.073 2.309c-2.731 3.043-.652 7.889 3.435 8.007l46.224 1.338-65.041 13.592a14.272 14.272 0 00-7.705 4.44l-3.36 3.744c-3.363 3.747-.454 9.683 4.568 9.322l65.511-4.719-76.833 14.879a19.204 19.204 0 00-10.357 5.718l-7.383 7.876c-5.157 5.501-.572 14.433 6.904 13.449l91.975-12.102c3.701-.487 7.435 1.86 8.032 5.545a6.787 6.787 0 01-5.647 7.822l-132.653 20.683a12.424 12.424 0 00-7.987 4.772c-5.534 7.305-1.522 17.882 7.465 19.679l124.519 24.904v15.54c0 8.484-3.37 16.62-9.369 22.619l-19.42 19.42h115.155l-19.42-19.42a31.987 31.987 0 01-9.369-22.619v-15.539z"/></svg>