<svg xmlns="http://www.w3.org/2000/svg" x="0" y="0" enable-background="new 0 0 512 512" version="1.1" viewBox="0 0 512 512" xml:space="preserve"><path fill="#41479B" d="M0 0H512V256H0z"/><path fill="#FF4B55" d="M0 256H512V512H0z"/><path fill="#FFE15A" d="M246.214 149.65a1.68 1.68 0 0 0-.962-1.017 31.205 31.205 0 0 0-2.497-.801c.664-.899 1.133-1.952 1.133-3.152 0-1.029-.365-1.937-.867-2.758 1.659-.927 2.828-2.633 2.828-4.663 0-1.609-.738-3.015-1.857-4.008 1.341-.986 2.27-2.498 2.27-4.286 0-1.994-1.135-3.668-2.745-4.607.846-.956 1.403-2.179 1.403-3.552 0-2.391-1.584-4.36-3.74-5.075.492-.815.851-1.717.851-2.737 0-2.938-2.361-5.313-5.284-5.387.122-.45.279-.889.279-1.378a5.42 5.42 0 0 0-5.416-5.414c-.504 0-.958.158-1.421.288.008-.12.07-.222.07-.344a5.42 5.42 0 0 0-5.414-5.414c-1.026 0-1.931.363-2.75.86-.631-2.289-2.642-4.01-5.129-4.01a5.396 5.396 0 0 0-3.824 1.586c-.916-1.692-2.647-2.885-4.702-2.885-1.876 0-3.451 1.016-4.423 2.468-.988-1.05-2.367-1.725-3.919-1.725-2.005 0-3.687 1.144-4.623 2.766-.992-1.11-2.394-1.84-3.997-1.84-1.982 0-3.643 1.121-4.587 2.713-.921-.725-2.031-1.227-3.292-1.227-2.276 0-4.209 1.42-5.009 3.413a5.38 5.38 0 0 0-3.75-1.536c-2.064 0-3.803 1.202-4.716 2.906a5.219 5.219 0 0 0-1.264-.58 10.508 10.508 0 0 0 1.808-5.905c0-4.242-2.528-7.884-6.143-9.564l1.518-3.036a1.673 1.673 0 0 0 0-1.495l-1.827-3.654c.133-.122.259-.247.38-.38l3.658 1.827a1.666 1.666 0 0 0 1.49-.004l8.898-4.449a1.664 1.664 0 0 0 0-2.98l-8.898-4.449a1.663 1.663 0 0 0-1.49 0L164.6 65.99a6.64 6.64 0 0 0-.384-.385l1.827-3.654a1.673 1.673 0 0 0 0-1.495l-4.449-8.898c-.565-1.13-2.42-1.13-2.985 0l-4.449 8.898a1.673 1.673 0 0 0 0 1.495l1.827 3.654a5.922 5.922 0 0 0-.38.38l-3.658-1.827a1.666 1.666 0 0 0-1.49.004l-8.898 4.449a1.664 1.664 0 0 0 0 2.98l8.898 4.449c.235.117.489.178.745.178s.511-.061.745-.178l3.655-1.827c.123.134.25.261.384.385l-1.827 3.654a1.673 1.673 0 0 0 0 1.495l1.518 3.036c-3.615 1.68-6.143 5.322-6.143 9.564 0 2.14.65 4.128 1.748 5.794a5.239 5.239 0 0 0-1.813.691c-.913-1.703-2.652-2.906-4.716-2.906a5.38 5.38 0 0 0-3.75 1.536c-.799-1.994-2.733-3.413-5.009-3.413-1.261 0-2.371.502-3.292 1.227-.944-1.591-2.606-2.713-4.587-2.713-1.602 0-3.005.73-3.997 1.84-.936-1.622-2.619-2.766-4.623-2.766-1.552 0-2.931.675-3.919 1.725-.972-1.452-2.547-2.468-4.423-2.468-2.055 0-3.786 1.194-4.702 2.885a5.398 5.398 0 0 0-3.824-1.586c-2.487 0-4.498 1.721-5.129 4.01-.818-.497-1.724-.86-2.75-.86a5.42 5.42 0 0 0-5.414 5.414c0 .122.062.224.07.344-.463-.129-.917-.288-1.421-.288a5.42 5.42 0 0 0-5.416 5.414c0 .489.157.927.279 1.378-2.923.074-5.284 2.449-5.284 5.387 0 1.02.359 1.922.851 2.737-2.156.715-3.74 2.683-3.74 5.075 0 1.373.556 2.597 1.403 3.552-1.61.939-2.745 2.613-2.745 4.607 0 1.788.929 3.3 2.27 4.286-1.119.992-1.857 2.399-1.857 4.008 0 2.03 1.17 3.736 2.828 4.663-.501.82-.867 1.729-.867 2.758 0 1.264.503 2.377 1.232 3.299-1.205.357-1.945.639-1.986.654a1.677 1.677 0 0 0-.962 1.017c-.156.465-.1.973.15 1.395.133.217 13.249 22.245 17.592 43.955.107.538.497.883.956 1.101 3.336 4.505 32.237 8.027 67.415 8.027s64.079-3.522 67.415-8.027c.459-.218.849-.563.956-1.101 4.338-21.693 17.459-43.738 17.592-43.955a1.69 1.69 0 0 0 .147-1.393z"/><g fill="#464655"><path d="M246.214 149.65a1.68 1.68 0 0 0-.962-1.017 31.205 31.205 0 0 0-2.497-.801c.664-.899 1.133-1.952 1.133-3.152 0-1.029-.365-1.937-.867-2.758 1.659-.927 2.828-2.633 2.828-4.663 0-1.609-.738-3.015-1.857-4.008 1.341-.986 2.27-2.498 2.27-4.286 0-1.994-1.135-3.668-2.745-4.607.846-.956 1.403-2.179 1.403-3.552 0-2.391-1.584-4.36-3.74-5.075.492-.815.851-1.717.851-2.737 0-2.938-2.361-5.313-5.284-5.387.122-.45.279-.889.279-1.378a5.42 5.42 0 0 0-5.416-5.414c-.504 0-.958.158-1.421.288.008-.12.07-.222.07-.344a5.42 5.42 0 0 0-5.414-5.414c-1.026 0-1.931.363-2.75.86-.631-2.289-2.642-4.01-5.129-4.01a5.396 5.396 0 0 0-3.824 1.586c-.916-1.692-2.647-2.885-4.702-2.885-1.876 0-3.451 1.016-4.423 2.468-.988-1.05-2.367-1.725-3.919-1.725-2.005 0-3.687 1.144-4.623 2.766-.992-1.11-2.394-1.84-3.997-1.84-1.982 0-3.643 1.121-4.587 2.713-.921-.725-2.031-1.227-3.292-1.227-2.276 0-4.209 1.42-5.009 3.413a5.38 5.38 0 0 0-3.75-1.536c-2.064 0-3.803 1.202-4.716 2.906a5.219 5.219 0 0 0-1.264-.58 10.508 10.508 0 0 0 1.808-5.905c0-4.242-2.528-7.884-6.143-9.564l1.518-3.036a1.673 1.673 0 0 0 0-1.495l-1.827-3.654c.133-.122.259-.247.38-.38l3.658 1.827a1.666 1.666 0 0 0 1.49-.004l8.898-4.449a1.664 1.664 0 0 0 0-2.98l-8.898-4.449a1.663 1.663 0 0 0-1.49 0L164.6 65.99a6.64 6.64 0 0 0-.384-.385l1.827-3.654a1.673 1.673 0 0 0 0-1.495l-4.449-8.898c-.565-1.13-2.42-1.13-2.985 0l-4.449 8.898a1.673 1.673 0 0 0 0 1.495l1.827 3.654a5.922 5.922 0 0 0-.38.38l-3.658-1.827a1.666 1.666 0 0 0-1.49.004l-8.898 4.449a1.664 1.664 0 0 0 0 2.98l8.898 4.449c.235.117.489.178.745.178s.511-.061.745-.178l3.655-1.827c.123.134.25.261.384.385l-1.827 3.654a1.673 1.673 0 0 0 0 1.495l1.518 3.036c-3.615 1.68-6.143 5.322-6.143 9.564 0 2.14.65 4.128 1.748 5.794a5.239 5.239 0 0 0-1.813.691c-.913-1.703-2.652-2.906-4.716-2.906a5.38 5.38 0 0 0-3.75 1.536c-.799-1.994-2.733-3.413-5.009-3.413-1.261 0-2.371.502-3.292 1.227-.944-1.591-2.606-2.713-4.587-2.713-1.602 0-3.005.73-3.997 1.84-.936-1.622-2.619-2.766-4.623-2.766-1.552 0-2.931.675-3.919 1.725-.972-1.452-2.547-2.468-4.423-2.468-2.055 0-3.786 1.194-4.702 2.885a5.398 5.398 0 0 0-3.824-1.586c-2.487 0-4.498 1.721-5.129 4.01-.818-.497-1.724-.86-2.75-.86a5.42 5.42 0 0 0-5.414 5.414c0 .122.062.224.07.344-.463-.129-.917-.288-1.421-.288a5.42 5.42 0 0 0-5.416 5.414c0 .489.157.927.279 1.378-2.923.074-5.284 2.449-5.284 5.387 0 1.02.359 1.922.851 2.737-2.156.715-3.74 2.683-3.74 5.075 0 1.373.556 2.597 1.403 3.552-1.61.939-2.745 2.613-2.745 4.607 0 1.788.929 3.3 2.27 4.286-1.119.992-1.857 2.399-1.857 4.008 0 2.03 1.17 3.736 2.828 4.663-.501.82-.867 1.729-.867 2.758 0 1.264.503 2.377 1.232 3.299-1.205.357-1.945.639-1.986.654a1.677 1.677 0 0 0-.962 1.017c-.156.465-.1.973.15 1.395.133.217 13.249 22.245 17.592 43.955.107.538.497.883.956 1.101 3.336 4.505 32.237 8.027 67.415 8.027s64.079-3.522 67.415-8.027c.459-.218.849-.563.956-1.101 4.338-21.693 17.459-43.738 17.592-43.955a1.69 1.69 0 0 0 .147-1.393zm-47.164-10.747v-26.109a50.97 50.97 0 0 1 6.154-.172v27.124c-1.84-.891-3.92-1.15-6.154-.843zm-19.202-35.562c.046.045.111.064.159.107l-.213.046c.022-.05.033-.102.054-.153zm58.626 39.261c1.145 0 2.077.93 2.077 2.077s-.932 2.077-2.077 2.077-2.077-.93-2.077-2.077.932-2.077 2.077-2.077zm1.959-3.267c-1.145 0-2.077-.93-2.077-2.077a2.078 2.078 0 0 1 4.156 0 2.079 2.079 0 0 1-2.079 2.077zm-1.662-10.371c0-1.147.932-2.077 2.077-2.077s2.077.93 2.077 2.077-.932 2.077-2.077 2.077-2.077-.93-2.077-2.077zm-62.04 20.685c-1.992-7.576-4.579-18.981-5.67-30.382 1.148-.401 3.119-1.06 5.67-1.832v32.214zm-27.81-30.246c-1.174 12.132-4.04 24.285-6.059 31.766v-33.737c2.862.867 5.008 1.598 6.059 1.971zm13.257-13.709c0 1.147-.932 2.077-2.077 2.077s-2.077-.93-2.077-2.077.932-2.077 2.077-2.077 2.077.93 2.077 2.077zm-22.431-2.343-.013-.003s.008-.004.011-.008c.002.004.001.008.002.011zm-61.002 23.537c1.145 0 2.077.93 2.077 2.077a2.078 2.078 0 0 1-2.077 2.077 2.078 2.078 0 0 1 0-4.154zm2.491 10.37a2.078 2.078 0 0 1-4.156 0 2.079 2.079 0 0 1 4.156 0zm-.117 5.344c1.145 0 2.077.93 2.077 2.077s-.932 2.077-2.077 2.077-2.077-.93-2.077-2.077.932-2.077 2.077-2.077zm8.568-28.11c3.265-5.283 9.641-11.579 21.476-11.579 11.556 0 27.859 3.53 38.301 6.127.005 2.265-.099 4.585-.259 6.92-7.125-2.481-35.46-11.549-47.512-3.302-13.638 9.354-9.329 27.196-6.781 34.585-2.169-.587-4.363-.854-6.464-.896-4.926-9.884-4.431-22.679 1.239-31.855zm9.398 34.37c-1.173-2.728-8.674-21.592 2.476-31.792v33.284a19.463 19.463 0 0 0-2.476-1.492zm5.813-34.144c1.762-.913 3.839-1.505 6.154-1.82v29.689c-3.347 3.393-4.835 8.06-5.49 11.572-.212-.266-.446-.48-.665-.73l.001-38.711zm9.491-2.099a50.964 50.964 0 0 1 6.154.172v26.083c-.364-.032-.745-.125-1.099-.125-1.64 0-3.178.343-4.577 1.047-.172.086-.311.202-.478.294v-27.471zm9.491.529a95.72 95.72 0 0 1 6.154 1.039v28.559c-2.118-1.46-4.178-2.516-6.154-3.162v-26.436zm9.491 1.756a139.79 139.79 0 0 1 6.154 1.562v35.312a48.938 48.938 0 0 0-6.154-6.445v-30.429zm19.413-5.021c2.509.651 4.487 1.194 5.649 1.52V139.7c-4.522.457-7.977 2.766-10.613 5.605 2.35-9.783 4.877-23.132 4.964-35.422zm8.986 1.52c1.131-.318 3.029-.839 5.441-1.467.093 12.165 2.572 25.354 4.899 35.1-2.603-2.71-5.967-4.895-10.341-5.336v-28.297h.001zm18.298 5.066a139.79 139.79 0 0 1 6.154-1.562v30.689c0 .078.034.146.045.221a49.292 49.292 0 0 0-6.199 6.772v-36.12zm9.491-2.279a95.72 95.72 0 0 1 6.154-1.039v26.589c-1.979.727-4.045 1.879-6.154 3.403V114.19zm18.982-1.29c2.315.314 4.393.905 6.154 1.818v39.08c0 .087.037.163.05.246-.033.041-.071.073-.104.114-.692-3.708-2.34-8.685-6.1-12.108V112.9zm9.491 4.17c11.945 10.936 2.43 31.909 2.327 32.132-.011.023-.007.047-.017.069a19.54 19.54 0 0 0-2.31 1.563V117.07zm-.133-4.411c-11.813-8.09-39.333.489-47.119 3.165-.153-2.271-.253-4.527-.249-6.731 10.432-2.602 26.876-6.179 38.509-6.179 11.835 0 18.211 6.295 21.476 11.579 5.67 9.176 6.165 21.971 1.238 31.855-2.321.047-4.754.373-7.144 1.099 2.538-7.263 7.051-25.35-6.711-34.788zm21.604 10.223c-1.145 0-2.077-.93-2.077-2.077a2.078 2.078 0 0 1 4.156 0 2.079 2.079 0 0 1-2.079 2.077zm-.81-9.889a2.082 2.082 0 0 1-2.079 2.081 2.078 2.078 0 1 1 2.079-2.081zm-5.005-6.764a2.079 2.079 0 0 1-4.156 0 2.078 2.078 0 0 1 4.156 0zm-8.844-7.547a2.078 2.078 0 1 1-.003 4.157 2.078 2.078 0 0 1 .003-4.157zm-7.879-3.15c1.145 0 2.077.93 2.077 2.077s-.932 2.077-2.077 2.077-2.077-.93-2.077-2.077.932-2.077 2.077-2.077zm-8.526-1.299a2.078 2.078 0 1 1-.003 4.157 2.078 2.078 0 0 1 .003-4.157zm-8.342.743c1.145 0 2.077.93 2.077 2.077a2.078 2.078 0 0 1-4.156 0c0-1.147.932-2.077 2.079-2.077zm-8.62.925a2.078 2.078 0 1 1-.003 4.157 2.078 2.078 0 0 1 .003-4.157zm-7.879 1.486c1.145 0 2.077.93 2.077 2.077s-.932 2.077-2.077 2.077a2.078 2.078 0 0 1-2.077-2.077c0-1.147.932-2.077 2.077-2.077zm-8.759 1.877c1.145 0 2.077.93 2.077 2.077s-.932 2.077-2.077 2.077a2.078 2.078 0 0 1-2.077-2.077c0-1.147.932-2.077 2.077-2.077zm-7.508 6.169c-1.145 0-2.077-.93-2.077-2.077s.932-2.077 2.077-2.077 2.077.93 2.077 2.077-.932 2.077-2.077 2.077zm-10.01-35.331a2.783 2.783 0 0 1 2.781-2.781c1.534 0 2.781 1.247 2.781 2.781s-1.247 2.781-2.781 2.781a2.783 2.783 0 0 1-2.781-2.781zM169 67.517l5.168 2.585L169 72.687l-2.895-1.448c.07-.369.115-.748.115-1.137 0-.39-.045-.768-.115-1.138L169 67.517zm-11.481-6.313 2.583-5.166 2.583 5.166-1.448 2.895c-.369-.07-.746-.115-1.135-.115s-.766.045-1.135.115l-1.448-2.895zm-6.315 11.483-5.168-2.585 5.168-2.585 2.895 1.448c-.07.369-.115.748-.115 1.137 0 .39.045.768.115 1.138l-2.895 1.447zM157.519 79l1.448-2.895c.369.07.746.115 1.135.115s.766-.045 1.135-.115L162.685 79l-1.448 2.895c-.378-.041-.746-.115-1.135-.115s-.757.074-1.135.115L157.519 79zm2.583 6.118c3.986 0 7.23 3.241 7.23 7.23s-3.243 7.23-7.23 7.23c-3.986 0-7.23-3.241-7.23-7.23s3.243-7.23 7.23-7.23zm-7.84 16.162c1.145 0 2.077.93 2.077 2.077s-.932 2.077-2.077 2.077-2.077-.93-2.077-2.077.932-2.077 2.077-2.077zm-7.508-2.016c1.145 0 2.077.93 2.077 2.077s-.932 2.077-2.077 2.077-2.077-.93-2.077-2.077.932-2.077 2.077-2.077zm-8.759-1.877c1.145 0 2.077.93 2.077 2.077s-.932 2.077-2.077 2.077-2.077-.93-2.077-2.077.932-2.077 2.077-2.077zm-7.879-1.486a2.079 2.079 0 1 1 0 4.158 2.079 2.079 0 0 1 0-4.158zm-8.62-.925c1.147 0 2.079.93 2.079 2.077a2.079 2.079 0 0 1-4.156 0c0-1.147.932-2.077 2.077-2.077zm-8.342-.743a2.079 2.079 0 1 1 0 4.158 2.079 2.079 0 0 1 0-4.158zm-8.526 1.299c1.145 0 2.077.93 2.077 2.077s-.932 2.077-2.077 2.077a2.078 2.078 0 0 1-2.077-2.077c0-1.147.932-2.077 2.077-2.077zm-7.88 3.15a2.079 2.079 0 1 1 0 4.158 2.079 2.079 0 0 1 0-4.158zm-6.764 5.47c1.145 0 2.077.93 2.077 2.077a2.078 2.078 0 0 1-4.156 0c0-1.147.932-2.077 2.079-2.077zm-5.005 6.764a2.078 2.078 0 1 1-.003 4.157 2.078 2.078 0 0 1 .003-4.157zm-2.89 7.812c1.145 0 2.077.93 2.077 2.077a2.078 2.078 0 0 1-4.156 0c0-1.147.932-2.077 2.079-2.077zm145.42 74.216c-7.694-3.805-34.02-6.612-65.408-6.612s-57.714 2.807-65.408 6.612c-3.978-18.421-13.493-36.242-16.664-41.843 5.283-1.621 20.409-4.836 27.191 8.729a1.673 1.673 0 0 0 1.875.878 1.67 1.67 0 0 0 1.286-1.625c0-.122.091-12.361 7.975-16.306 7.807-3.884 20.438 9.011 24.456 17.053l.005.005c.133.262.351.464.606.627.053.033.102.062.158.089.072.036.129.092.208.117.172.056.345.083.515.083.032 0 .056-.026.088-.028.034 0 .059.021.093.02.157-.018.272-.124.413-.182.149-.06.3-.088.427-.188.155-.122.237-.296.341-.466.069-.112.185-.18.227-.311.049-.152.256-.801.563-1.811 1.458-4.215 6.078-14.829 15.645-14.829 8.118 0 12.675 7.647 14.761 12.54a159.09 159.09 0 0 0 1.239 4.101 1.67 1.67 0 0 0 2.103 1.073c.031-.01.051-.034.081-.046.464-.119.884-.351 1.105-.793 4.021-8.046 16.662-20.911 24.456-17.053a10.59 10.59 0 0 1 1.465.896c.452.382.758.664 1.274 1.079 5.137 5.015 5.236 14.225 5.236 14.331a1.675 1.675 0 0 0 1.286 1.625 1.671 1.671 0 0 0 1.875-.878c6.769-13.534 21.897-10.34 27.189-8.724-3.171 5.604-12.683 23.42-16.662 41.837z"/><path d="M166.684 156.267c-.216.179-.427.366-.635.561-1.618 1.523-4.279.326-4.279-1.896v-.299a1.668 1.668 0 0 0-3.336 0v.299c0 2.222-2.661 3.419-4.279 1.896a13.336 13.336 0 0 0-.635-.561 1.666 1.666 0 0 0-2.348.222 1.668 1.668 0 0 0 .219 2.35c4.558 3.776 7.043 12.704 7.043 16.232v1.807a1.668 1.668 0 0 0 3.336 0v-1.807c0-3.528 2.485-12.456 7.043-16.232a1.668 1.668 0 0 0-2.129-2.572zM204.511 163.275c-.196-.015-.391-.021-.587-.015-1.562.108-3.089-2.111-2.331-3.832l.096-.219c.292-.666.069-1.754-.487-2.461-.556-.705-1.276-.669-1.62.114l-.11.251c-.787 1.788-3.055 1.254-3.413-1.375a46.547 46.547 0 0 0-.144-1.023c-.175-1.111-.815-1.883-1.497-1.574-.678.297-1.135 1.543-.972 2.672.964 7.459-.141 15.324-1.406 18.184l-.667 1.515c-.343.78.095 1.382.991 1.316.896-.068 1.87-.682 2.163-1.347l.582-1.322c1.196-2.729 6.214-8.779 10.323-8.465.661-.004.943-.434.679-1.08-.264-.64-.961-1.286-1.6-1.339zM229.264 168.466a4.02 4.02 0 0 0-.489.028c-1.311.219-2.423-1.818-1.665-3.539l.096-.219c.292-.666.185-1.703-.227-2.346-.412-.642-1.016-.554-1.36.229l-.11.251c-.787 1.789-2.64 1.437-2.747-1.082a46.395 46.395 0 0 0-.045-.979c-.064-1.063-.543-1.763-1.134-1.414-.587.337-1.06 1.577-1.006 2.657.26 7.15-1.236 14.843-2.499 17.703l-.667 1.515c-.343.78-.022 1.331.73 1.202.753-.131 1.61-.797 1.903-1.462l.582-1.322c1.197-2.729 5.825-8.951 9.229-8.946.552-.052.818-.489.645-1.095-.173-.602-.708-1.176-1.236-1.181zM128.137 173.999c-1.264-2.86-2.37-10.725-1.406-18.184.163-1.129-.294-2.375-.972-2.672-.682-.309-1.323.463-1.497 1.574-.052.341-.099.684-.144 1.023-.358 2.629-2.626 3.163-3.413 1.375a48.655 48.655 0 0 1-.11-.251c-.344-.783-1.064-.82-1.621-.114-.556.707-.779 1.795-.487 2.461l.096.219c.758 1.721-.769 3.94-2.331 3.832-.197-.006-.391 0-.587.015-.638.053-1.335.698-1.599 1.341-.263.646.018 1.076.679 1.08 4.109-.314 9.126 5.735 10.323 8.465l.582 1.322c.293.665 1.266 1.28 2.163 1.347.896.065 1.334-.537.991-1.316l-.667-1.517zM102.1 179.755c-1.263-2.86-2.759-10.553-2.499-17.703.054-1.08-.419-2.32-1.006-2.657-.591-.349-1.07.351-1.134 1.414-.019.326-.033.655-.046.979-.107 2.518-1.959 2.87-2.747 1.082l-.11-.251c-.344-.783-.948-.871-1.36-.229-.412.643-.519 1.681-.227 2.346l.096.219c.758 1.721-.354 3.758-1.665 3.539a3.839 3.839 0 0 0-.489-.028c-.529.005-1.063.579-1.237 1.181-.172.606.094 1.043.646 1.095 3.405-.005 8.032 6.217 9.229 8.946l.582 1.322c.293.665 1.15 1.331 1.903 1.462.752.129 1.074-.423.731-1.202l-.667-1.515z"/></g></svg>