<svg xmlns="http://www.w3.org/2000/svg" viewBox="0 0 512 512"><path fill="#ffd250" d="M0 0h512v512H0z"/><path fill="#963c3c" d="M185.379 53.895v404.211c0 7.441 3.952 13.474 8.828 13.474H476.69c4.875 0 8.828-6.032 8.828-13.474V53.895c0-7.441-3.952-13.474-8.828-13.474H194.207c-4.875 0-8.828 6.032-8.828 13.474z"/><path fill="#5aa587" d="M92.69 40.421H37.389c-6.023 0-10.906 4.883-10.906 10.906v409.346c0 6.023 4.883 10.906 10.906 10.906H92.69V40.421z"/><path fill="#ff7350" d="M147.991 40.421H92.69v431.158h55.301c6.023 0 10.906-4.883 10.906-10.906V51.327c0-6.023-4.883-10.906-10.906-10.906z"/><g fill="#ffd250"><path d="M393.059 321.878c-.283-1.89 1.38-4.329 3.95-7.835.93-1.267 2.273-3.103 2.635-3.982-.24-.017-.569.002-.813.015-1.422.069-3.573.167-5.453-1.92a3.963 3.963 0 01-1.021-2.958c.14-2.27 1.995-4.503 3.144-5.683-2.966-2.082-5.799-4.246-8.411-6.859-4.992-4.994-10.687-7.398-16.974-7.267-.582 6.254 2.64 10.367 6.08 14.695 1.014 1.274 2.025 2.548 2.942 3.877 4.525 6.551 3.578 19.198 3.005 20.537-.65 1.518-4.228 4.886-9.136 4.23-2.257-.297-4.856.462-6.492 1.893-.704.616-1.544 1.64-1.544 3.013 0 .069.005.417.113.481.66.398 3.123-.38 4.886-1.333a1.297 1.297 0 011.502.194c3.469 3.248 6.951.442 7.336.111a1.305 1.305 0 011.662-.03c3.55 2.861 7.251-.267 7.408-.402a1.302 1.302 0 011.559-.105c1.54 1.011 2.949 1.299 4.206.867 1.098-.381 1.68-1.206 1.748-1.405.032-.525-.673-3.233-1.14-5.024-.492-1.878-.998-3.821-1.192-5.11z"/><path d="M431.508 202.117c-1.07-.081-1.844.15-2.374.675-.972.96-.892 2.691-.891 2.708a1.305 1.305 0 01-1.461 1.361c-1.923-.251-4.766-2.281-10.043-6.148-8.383-6.145-21.054-15.43-33.142-16.959-14.05-1.785-26.555 2.698-29.732 10.641-3.538 8.844 3.98 16.902 4.056 16.983.383.405.466 1.009.204 1.5-1.982 3.734-.481 6.49.872 8 .423-1.247 1.058-2.099 1.932-2.622 2.109-1.26 4.862-.218 8.67 1.225 2.251.85 4.8 1.815 7.774 2.544 7.626 1.869 16.927.202 25.133-1.267 2.9-.52 5.697-1.019 8.299-1.351 6.544-.833 13.106 2.067 14.909 6.614.874 2.202 1.341 6.622-5.345 11.484-12.023 8.746-66.851 4.71-70.081 4.463-.072.007-.142.013-.294.024 1.199 1.346 2.605 2.66 3.218 2.823a1.296 1.296 0 01-.313 2.547l-5.616.086.516 5.406c.037.398-.111.793-.403 1.066-.292.275-.697.39-1.088.337-.219-.035-5.068-.812-8.42-2.674l-6.344 4.002a1.296 1.296 0 01-1.909-.649l-2.421-6.581-2.87 5.741c-.209.42-.629.693-1.097.715-.466.049-.911-.208-1.161-.606l-2.46-3.921c-1.125 1.405-2.929 3.452-4.775 4.729a1.297 1.297 0 01-1.973-.673l-1.289-4.069c-1.141 1.442-2.79 3.354-4.537 4.786a1.295 1.295 0 01-2.114-.918l-.415-6.541c-1.476.752-3.487 1.733-4.601 2.08a1.295 1.295 0 01-1.508-1.883c1.998-3.47 3.833-7.803 3.971-9.958-1.325 1.587-3.181 3.105-5.254 4.792-4.41 3.59-9.898 8.056-13.937 15.872-2.821 5.463-4.847 14.992-1.274 23.876 3.049 7.579 9.613 13.234 19.446 16.867-.329-1.435-.581-2.844-.607-4.168-.128-6.73 1.269-12.873 1.329-13.131a1.286 1.286 0 011.552-.97c.698.16 1.132.855.972 1.552-.013.061-1.383 6.101-1.262 12.498.061 3.131 1.407 6.997 2.71 10.733 1.729 4.969 3.519 10.104 2.742 14.427-1.06 5.876-8.375 7.366-15.166 6.232-1.93-.324-3.686.152-4.948 1.329-1.281 1.194-1.937 3.025-1.756 4.898.086.882.415 1.06.523 1.119.817.442 2.738-.159 3.777-.702a1.295 1.295 0 011.569.285c2.723 3.05 6.391.007 6.544-.127a1.298 1.298 0 011.783.101c1.026 1.093 2.112 1.638 3.322 1.665 2.212.135 4.311-1.834 4.333-1.851a1.3 1.3 0 011.441-.25c4.273 1.955 6.516.82 6.608.766 3.708-3.162 1.566-10.664 1.544-10.74a1.29 1.29 0 01.125-1.019c.181-.309.481-.528.828-.609 5.195-1.191 8.098-4.525 9.502-6.735-2.566-.025-4.606-.925-5.807-2.802-1.935-3.03-1.006-7.594 2.369-11.626 5.773-6.899 9.303-20.86 8.773-26.545a1.298 1.298 0 011.171-1.41 1.305 1.305 0 011.41 1.171c.462 4.98-1.782 15.309-5.881 23.099 5.192-1.436 9.931-3.538 14.875-5.794 4.915-2.242 9.998-4.56 16.105-6.474 10.324-3.233 19.429-.992 27.073 6.656 3.703 3.703 7.747 6.416 12.429 9.559 2.057 1.38 4.196 2.816 6.416 4.415 6.018 4.333 5.912 7.95 5.799 11.78-.034 1.167-.071 2.374.061 3.681.621 6.219-4.324 7.202-6.701 7.675-.326.064-.631.125-.898.191-.336.084-.737.167-1.181.256-2.414.489-6.062 1.23-6.958 4.319-.162.553-.1.747-.1.747.381.174 2.357-.275 3.931-.99a1.29 1.29 0 011.049-.012c.336.143.596.423.715.769.459 1.345 1.174 1.574 1.409 1.65 1.631.509 4.301-.992 5.105-1.564a1.3 1.3 0 011.628.098c1.338 1.221 2.575 1.76 3.686 1.61 1.488-.208 2.391-1.608 2.401-1.623.214-.346.579-.572.985-.609.412-.022.806.123 1.08.423.003.005 1.137 1.201 3.457 1.935 1.522.476 1.905-.073 2.031-.255.643-.938.412-3.332-.842-4.898-1.643-2.055-2.406-5.179-1.944-7.96.425-2.559 1.805-4.646 3.988-6.037 4-2.546 4.915-5.289 4.658-5.812-.074-.035-.508-.093-.855-.138-1.785-.236-4.773-.631-7.845-6.305-2.713-5.007-.088-12.935 2.951-22.117 1.542-4.651 3.135-9.463 4.117-14.182 2.72-13.053-5.827-23.417-5.913-23.52a1.296 1.296 0 01.106-1.778c5.999-5.628 8.579-10.847 7.663-15.508-.953-4.861-5.66-8.258-9.401-9.691-4.661-1.787-13.166-.771-21.394.208-6.875.817-13.374 1.591-17.568.715-2.161-.454-3.744-1.478-4.704-3.044-.791-1.291-.985-2.704-.977-3.808-2.084.783-3.491 2.713-3.508 2.737a1.298 1.298 0 01-1.029.542c-.511-.02-.801-.179-1.049-.501-1.06-1.37-1.486-2.882-1.264-4.494.285-2.085 1.631-3.879 2.735-5.036-4.823-1.694-8.52 2.348-8.69 2.541a1.31 1.31 0 01-1.648.245c-2.327-1.431-3.769-4.238-3.678-7.152.088-2.752 1.507-5.058 3.892-6.325 1.635-.867 3.202-1.027 4.656-.479 1.383.521 2.354 1.598 2.964 2.51 1.765-2.013 1.913-5.487 1.913-5.527.01-.348.157-.677.412-.913.253-.236.606-.385.938-.348 3.069.127 5.451 1.235 7.079 3.293 2.225 2.816 2.435 6.727 2.303 9.148 4.901-2.502 4.28-8.277 4.248-8.547a1.301 1.301 0 01.477-1.166 1.284 1.284 0 011.242-.209c5.201 1.836 7.094 6.473 7.54 9.925 1.473-1.405 1.495-3.209 1.495-3.233a1.296 1.296 0 012.433-.621c2.006 3.668 5.066 5.95 7.305 7.228l-1.542-3.737a1.294 1.294 0 011.812-1.635c2.566 1.382 4.599 2.946 6.75 4.602 2.595 1.998 5.279 4.063 9.06 5.839 3.691 1.736 6.182 1.405 7.614.825 1.485-.599 2.333-1.657 2.608-2.381.521-1.368.673-3.334-.164-4.636-.533-.832-1.442-1.297-2.699-1.38zM278.533 220.748l.004.003.014.002c.096.032 9.784 3.089 18.58 3.612a1.297 1.297 0 01.933 2.106l-.307.383c1.745-.262 3.939-.504 6.092-.513a248.183 248.183 0 01-3.106-3.784c-2.353-.043-10.96-.417-17.965-3.793-1.701-.825-4.643-2.251-6.042-1.529-.241.125-.639.709-.574 1.426.087.909.927 1.652 2.371 2.087zM307.726 202.019c-.135 0-.258.015-.366.047-.565.169-.852.808-.928 1.306-.094.638.067 1.495.808 1.989.967.643 2.001.202 2.59-.378.186-.181 1.075-1.132.418-2.171l-.002-.003c-1.012-.464-1.9-.79-2.52-.79z"/><path d="M295.01 233.256c.628 1.496 1.601 2.656 2.406 3.433.305-.661.771-1.348 1.478-1.864.692-.504 1.89-.995 3.647-.629.027.002.052.007.079.011.05.011.09.007.141.019.045.011.074.046.119.059.063.022.128.025.189.057.045.024.073.066.113.094.661.281 1.212.734 1.504 1.417.982 2.291-.746 6.737-2.271 9.902a96.766 96.766 0 002.666-1.372 1.29 1.29 0 011.242.01c.386.214.636.611.663 1.049l.366 5.78c2.026-2.136 3.622-4.456 3.643-4.486a1.296 1.296 0 012.305.341l1.478 4.668c2.068-1.903 3.872-4.451 3.894-4.483.251-.354.661-.543 1.093-.55.434.012.833.24 1.065.607l2.229 3.553 3.18-6.359c.231-.464.668-.756 1.232-.715.516.029.965.361 1.144.847l2.902 7.891 5.664-3.573a1.287 1.287 0 011.402.014c1.847 1.21 4.685 1.989 6.474 2.391l-.484-5.072a1.291 1.291 0 01.326-.987c.241-.27.584-.427.945-.432l3.241-.049a28.716 28.716 0 01-1.739-1.939 1.28 1.28 0 01-.281-.88c-2.387-.101-5.715-.527-9.041-1.963l-1.979 3.052a1.292 1.292 0 01-1.087.591c-.255 0-.506-.076-.722-.219l-7.484-5.021-1.375 3.744a1.297 1.297 0 01-2.193.405c-1.286-1.475-3.305-3.735-4.506-4.975-1.081 1.043-2.979 2.725-5.009 3.852a1.297 1.297 0 01-1.844-.68l-2.052-5.507a1.296 1.296 0 112.43-.904l1.496 4.017c2.171-1.508 3.983-3.45 4.005-3.474a1.296 1.296 0 011.76-.132c.754.604 2.802 2.86 4.231 4.462l1.193-3.249c.137-.373.439-.663.817-.785.375-.13.791-.069 1.122.155l7.761 5.206 1.876-2.892a1.29 1.29 0 011.665-.454c3.445 1.723 7.165 2.139 9.539 2.202-1.449-2.707-1.576-6.139-1.585-6.945a28.989 28.989 0 01-6.722-4.121l-.933 2.305a1.299 1.299 0 01-1.962.562l-3.744-2.716-.364 2.806a1.291 1.291 0 01-.725 1c-.393.189-.857.17-1.233-.061-.13-.078-3.211-1.96-5.046-4.025a1.295 1.295 0 01.108-1.829 1.293 1.293 0 011.829.108c.776.872 1.863 1.739 2.769 2.396l.376-2.89a1.296 1.296 0 012.047-.882l4.167 3.023.997-2.462a1.294 1.294 0 012.089-.456c3.231 3.04 6.727 4.682 8.901 5.487-.742-3.459-1.026-7.796-1.039-8.024-.002-.032.012-.06.012-.092-2.019-1.113-4.874-3.033-7.341-6.048-.012 1.598-.142 3.222-.533 4.25a1.297 1.297 0 01-.773.759 1.322 1.322 0 01-1.078-.093c-.157-.089-2.976-1.709-5.075-4.073-.363 1.302-.798 2.676-1.164 3.288a1.297 1.297 0 01-1.69.493c-.123-.061-2.109-1.066-3.879-2.603-.172 1.726-.439 3.675-.818 4.624a1.298 1.298 0 01-.764.739c-.349.12-.734.093-1.06-.083-.118-.064-2.367-1.297-4.467-2.861l-.569 2.161a1.302 1.302 0 01-.698.842c-.348.16-.742.165-1.092.008-.157-.071-3.862-1.775-5.972-4.354a1.292 1.292 0 01.182-1.822 1.292 1.292 0 011.822.182c1.009 1.232 2.553 2.262 3.666 2.909l.665-2.526c.116-.439.45-.785.884-.913a1.28 1.28 0 011.238.282c1.238 1.12 2.914 2.222 4.105 2.952.253-1.599.45-3.912.535-5.412a1.294 1.294 0 011.011-1.191 1.291 1.291 0 011.422.646c.712 1.313 2.424 2.59 3.715 3.398.354-1.108.791-2.743 1.119-4.154a1.294 1.294 0 011.135-.995 1.273 1.273 0 011.308.756c.81 1.793 2.77 3.433 4.171 4.437.152-1.89.012-4.574-.162-6.254a1.295 1.295 0 012.452-.707c2.607 5.286 7.216 8.215 9.613 9.446 1.308-14.3-2.885-19.771-2.929-19.827a1.305 1.305 0 01.358-1.937c2.327-1.347 3.74-3.808 4.606-6.196-5.268 5.108-13.615 7.07-17.682 7.748l1.986 2.419a1.296 1.296 0 01-.874 2.111c-4.982.498-8.618-.162-11.066-.987l.847 1.564c.223.41.208.909-.04 1.304-.246.396-.698.663-1.154.607-4.059-.174-7.611-1.846-10.529-3.324-.138.953-.609 1.881-1.392 2.645-.958.935-2.178 1.419-3.386 1.419a4.393 4.393 0 01-2.451-.741c-1.464-.977-2.205-2.713-1.933-4.53.251-1.669 1.304-2.973 2.748-3.405 1.932-.574 4.137.543 6.926 1.964 2.214 1.129 4.854 2.472 7.732 3.074l-1.604-2.963a1.297 1.297 0 01.329-1.63 1.305 1.305 0 011.662.035c.029.025 3.253 2.674 10.573 2.537l-1.846-2.251a1.297 1.297 0 01.882-2.112c.139-.013 10.773-1.091 17.316-6.363-2.13.624-3.78.526-3.907.523a1.3 1.3 0 01-.914-.486c-2.998-3.766-6.064-4.93-7.611-5.291-.869 2.737-2.971 4.952-3.074 5.058a1.31 1.31 0 01-1.07.391 1.3 1.3 0 01-.967-.606c-2.311-3.725-5.643-4.705-7.58-4.948.238 2.753-1.687 5.016-2.968 5.957a1.3 1.3 0 01-1.631-.078c-5.561-4.97-9.854-3.499-11.592-2.507.548 1.363.29 2.477-.081 3.229-2.656 5.38-19.081 6.462-22.348 6.624a1.28 1.28 0 01-1.071-.479 1.294 1.294 0 01-.245-1.149c.24-.896.079-1.863-.449-2.726-.54-.882-1.405-1.525-2.313-1.719-.854-.181-2.483-.064-3.457 1.004-1.113 1.225-1.189 3.489-.219 6.551 1.739 5.495 7.096 10.909 10.431 13.877-.03-.683-.01-1.186-.003-1.313a1.296 1.296 0 01.938-1.179 1.285 1.285 0 011.419.504 12.779 12.779 0 003.413 3.317l.65-4.145a1.3 1.3 0 011.129-1.087c.574-.049 1.129.256 1.35.795 1.174 2.851 8.606 11.78 11.371 14.978.354.408.417.994.157 1.468-.26.472-.785.727-1.321.661-4.736-.675-11.693.901-11.763.916a1.294 1.294 0 01-1.3-2.074l.958-1.193c-6.575-.683-12.977-2.413-15.565-3.168l-2.175 5.908 5.859-.585c.442-.056.896.148 1.166.515.273.364.334.844.162 1.265l-1.105 2.701 4.827-1.277a1.285 1.285 0 011.537.776c.639 1.62 1.424 2.684 2.05 3.344l1.36-3.006c.214-.469.682-.796 1.2-.761.503.015.966.328 1.165.803zM278.23 299.516c5.111 3.413 9.241-.481 11.448-3.479-4.708-3.435-8.136-7.661-10.159-12.692-.662-1.645-1.092-3.307-1.428-4.966-.481-.378-7.591-6.009-13.545-12.591a7.574 7.574 0 01-1.027 1.85c.418 1.701.012 3.091-.513 3.982.361 1.213.071 2.416-.349 3.295.901 1.36 1.065 2.691.488 3.97-.132.293-.31.563-.496.828.74.894 1.906 2.941 1.906 7.061 0 2.77 1.026 4.432 1.792 5.286.447-.386.936-.604 1.475-.661 1.635-.182 2.978 1.216 4.813 3.145 1.434 1.51 3.222 3.392 5.595 4.972zM252.81 264.389l-.288-.002a28.426 28.426 0 01-5.136-.505c-.151.433.17 1.69.507 1.949.331.253.552.673.54 1.09-.012.415-.191.823-.535 1.058-.221.155-.879.742-.887 1.316-.008.558.651 1.137 1.046 1.434a1.294 1.294 0 01.197 1.89c-.167.197-.643.918-.56 1.523.017.128.071.52.746.979.292.199.491.51.55.859.057.349-.03.707-.243.99.002 0-.363.531-.223 1.06.155.585.884 1.036 1.466 1.309 1.091.514 2.661.843 4.296.908.05-.008.101-.001.151-.003 1.379.04 2.794-.094 4.005-.54 1.186-.437 1.974-1.071 2.34-1.885.115-.253.353-.781-.666-1.971a1.298 1.298 0 01-.046-1.631c.002-.003.866-1.191.332-2.139a1.294 1.294 0 01.213-1.552c.076-.084.881-1.031.243-2.731a1.293 1.293 0 01.326-1.399c.047-.047 1.219-1.266 1.193-3.121-.159-.194-.318-.388-.473-.582-2.507 1.061-5.582 1.696-9.094 1.696zM264.662 174.07c-5.24 2.818-16.414 11.653-16.736 35.841l.288 40.76c.035.057.084.116.113.171.677 1.275.356 2.929-.024 4.074 3.238 1.157 7.275.682 9.004.253-.345-1.01-.618-2.642.552-4.491-.181-48.607 4.455-69.286 6.803-76.608z"/><path d="M265.202 255.749c0-2.072-1.562-3.685-3.108-4.208-.321-.11-1.41-.413-1.91.243-.936 1.225-.604 2.09-.285 2.929.179.466.363.946.224 1.496-.175.702-.815.99-1.026 1.087-1.758.798-8.442 1.844-13.062-.54a1.3 1.3 0 01-.569-1.724c.488-.999.842-2.465.57-2.974-.022-.042-.083-.159-.447-.208a7.598 7.598 0 00-1.027-.071c-1.577 0-3.04.496-3.831 1.343-.636.682-.835 1.549-.607 2.65.768 3.708 5.411 5.959 12.421 6.023 4.958-.017 9.224-1.188 11.353-3.298.865-.858 1.304-1.783 1.304-2.748zM254.048 286.492a1.28 1.28 0 011.282-.484c.901.189 3.14.663 4.425-.332.449-.344.55-1.284.206-1.896-.118-.211-.477-.847-1.827-.331-1.277.493-3.111 1.026-4.263-.01a2.006 2.006 0 01-.487-.698c-.346-.03-.691-.048-1.031-.1-.11.285-.262.563-.523.798-1.147 1.034-2.983.503-4.262.01-1.345-.511-1.711.12-1.827.331-.344.612-.245 1.552.202 1.895 1.287.992 3.528.523 4.263.368.477-.096 1.063.069 1.368.461.304.395.432.911.209 1.355-.292.584-1.561 3.064-2.801 4.613 1.62 2.369 3.023 6.592-.263 10.347a1.37 1.37 0 01-1.071.439 1.298 1.298 0 01-.994-.592c-.187-.283-.845-1.07-1.572-1.211-.219-.042-.567-.059-1.068.283-.339.235-.53 1.011-.243 1.859.511 1.518 2.1 2.362 4.343 2.257.51-.051 1.061.3 1.267.815a1.298 1.298 0 01-.361 1.463l-2.112 1.812 3.448.84c.457.111.818.462.943.916.005.022.521 1.859 1.552 3.41 1.029-1.55 1.545-3.388 1.55-3.41.125-.454.486-.805.943-.916l3.448-.84-2.114-1.812c-.42-.359-.565-.948-.361-1.463s.719-.86 1.267-.815c2.215.098 3.831-.739 4.344-2.259.287-.847.096-1.623-.243-1.858-.509-.346-.86-.329-1.076-.282-.751.152-1.426.994-1.566 1.21a1.296 1.296 0 01-.994.592 1.299 1.299 0 01-1.071-.439c-3.285-3.756-1.881-7.978-.262-10.347-1.24-1.549-2.509-4.029-2.801-4.613a1.304 1.304 0 01.133-1.366z"/></g><path fill="#464655" d="M436.392 202.102c-.692-1.078-2.072-2.397-4.716-2.569-1.837-.132-3.31.363-4.381 1.434-.862.859-1.277 1.923-1.475 2.823-1.768-.93-4.596-3.001-7.55-5.166-8.599-6.303-21.595-15.827-34.35-17.44-10.346-1.314-22.112.749-28.583 6.753.097-.794.126-1.325.13-1.416.001-.017-.013-.03-.013-.047a1.256 1.256 0 00-.189-.67c-.026-.044-.055-.076-.086-.116a1.255 1.255 0 00-.561-.435c-.005-.002-.007-.007-.011-.009h-.004a1.263 1.263 0 00-.725-.016c-.045.011-.084.018-.128.033a1.258 1.258 0 00-.578.403c-.01.012-.028.014-.038.026a10.098 10.098 0 01-7.735 4.128c-4.852-5.762-9.979-5.94-10.2-5.945-.742.049-1.215.461-1.311 1.105-.202 1.368-.999 2.723-1.672 3.663-4.275-5.316-10.295-4.783-10.563-4.761a1.297 1.297 0 00-1.051 1.826c.771 1.697-.164 3.175-.909 3.997-8.417-6.745-14.894-1.25-14.961-1.189a1.297 1.297 0 00-.213 1.711c.628.909.516 1.412.349 1.751-1.362 2.76-11.241 4.56-18.641 5.088a6.254 6.254 0 00-.936-3.027c-.918-1.498-2.369-2.554-3.98-2.9-1.792-.39-4.312.022-5.918 1.795-1.795 1.974-2.053 5.028-.771 9.077 2.003 6.327 8.016 12.278 11.524 15.342a28.508 28.508 0 01-2.522-1.056c-2.065-1.006-5.522-2.688-8.076-1.36-1.289.666-2.114 2.335-1.964 3.966.076.817.532 2.652 2.923 3.825l-2.876 7.813a1.296 1.296 0 001.344 1.736l5.777-.577-1.274 3.116c-.186.456-.098.977.226 1.346.324.368.818.531 1.306.396l6.271-1.66c1.62 3.327 3.781 4.491 3.882 4.543a1.298 1.298 0 001.781-.612l.999-2.212a13.921 13.921 0 002.848 2.942c-.422.348-.836.691-1.294 1.063-4.354 3.543-10.317 8.397-14.602 16.694-2.152 4.167-3.829 10.522-3.329 17.283-3.121-2.624-9.007-7.829-13.339-13.155.522-.356 1.077-.692 1.496-1.107 1.355-1.341 2.07-2.929 2.07-4.587 0-3.445-2.524-5.87-4.867-6.662a5.059 5.059 0 00-2.476-.209c-.076-56.476 6.356-73.764 7.663-76.677a1.297 1.297 0 00-1.547-1.773c-.849.25-20.79 6.479-21.231 39.475l.278 39.367c-2.707-.286-5.276.485-6.774 2.082-.85.909-1.756 2.505-1.252 4.947.67 3.24 3.284 5.631 7.295 6.944-.11.425-.148.906-.094 1.444.062.633.26 1.415.626 2.095-.489.584-.97 1.417-.995 2.445-.024.99.371 1.92 1.174 2.772-.317.639-.594 1.505-.472 2.463.074.57.314 1.328.99 2.06a3.735 3.735 0 00-.105 2.117c.208.84.731 1.561 1.505 2.178-1.984-.368-3.378.527-4.03 1.692-.98 1.748-.584 4.09.884 5.218 1.196.919 2.618 1.213 3.914 1.146-.66 1.117-1.356 2.149-1.795 2.492a1.296 1.296 0 00-.165 1.893c.135.148 2.961 3.334 1.279 6.642-.52-.427-1.193-.827-1.994-.989-1.041-.211-2.094.029-3.052.687-1.368.938-1.876 2.92-1.235 4.822.491 1.456 1.716 2.949 3.806 3.637l-1.819 1.559a1.296 1.296 0 00.536 2.243l5.198 1.267c.398 1.142 1.309 3.347 2.831 4.869.243.243.705.38 1.049.38s.673-.137.916-.38c1.522-1.522 2.433-3.727 2.831-4.869l5.198-1.267a1.294 1.294 0 00.536-2.243l-1.819-1.559c2.089-.69 3.315-2.181 3.806-3.637.641-1.901.133-3.885-1.235-4.822-.96-.66-2.02-.896-3.054-.687-.8.162-1.471.56-1.992.987-1.655-3.29 1.147-6.494 1.282-6.644a1.3 1.3 0 00-.168-1.89c-.437-.341-1.132-1.372-1.792-2.487 1.294.012 2.71-.224 3.909-1.151.263-.202.45-.48.642-.749.092 5.686 3.696 7.938 3.852 8.032a1.292 1.292 0 001.771-.437c.305-.498.488-.594.484-.599.456.025 1.734 1.372 2.669 2.354 1.525 1.604 3.425 3.602 6.037 5.343 1.915 1.277 3.723 1.78 5.387 1.78 4.665 0 8.159-3.937 9.65-5.96 2.906 1.823 6.2 3.405 9.954 4.687.128.044.259.061.388.064.448 1.454.938 2.919 1.443 4.37 1.621 4.651 3.297 9.461 2.639 13.114-.852 4.734-8.339 4.781-12.189 4.133-2.738-.445-5.279.255-7.143 1.992-1.864 1.741-2.824 4.373-2.564 7.042.181 1.864 1.115 2.742 1.868 3.148 1.729.93 4.068.234 5.338-.285 2.917 2.541 6.408 1.475 8.518.132 1.299 1.085 2.747 1.653 4.314 1.689.052.002.103.002.155.002 2.369 0 4.361-1.247 5.358-2.009 5.019 2.031 7.889.516 8.39.206 4.074-3.437 3.405-9.615 2.873-12.301 8.373-2.536 11.073-9.812 11.189-10.136a1.3 1.3 0 00-.267-1.316 1.311 1.311 0 00-1.291-.373c-2.581.693-4.621.221-5.591-1.299-1.314-2.057-.462-5.421 2.171-8.567a25.672 25.672 0 001.587-2.153c6.47-1.446 11.998-3.964 17.849-6.632 4.844-2.208 9.853-4.493 15.807-6.359 1.67-.524 3.291-.832 4.89-1.038-.484 7.02 3.117 11.645 6.653 16.094.977 1.228 1.954 2.455 2.838 3.735 3.793 5.492 3.064 17.005 2.757 18.044-.27.59-2.811 3.179-6.413 2.684-2.993-.398-6.344.587-8.54 2.51-1.567 1.372-2.429 3.135-2.429 4.964 0 1.559.749 2.333 1.378 2.708 1.876 1.115 4.982-.078 6.646-.874 1.556 1.201 3.152 1.645 4.628 1.645 1.836 0 3.486-.683 4.643-1.443 3.474 2.195 7.113.909 9.141-.474 2.541 1.378 4.584 1.107 5.9.587a6.134 6.134 0 001.174-.619c.052.054.101.127.154.173 1.378 1.186 3.929.555 5.562-.037.742 1.23 1.726 1.783 2.502 2.031 2.399.764 5.154-.55 6.541-1.372 1.682 1.301 3.354 1.847 5.023 1.613 1.473-.204 2.583-.995 3.298-1.689a12.353 12.353 0 003.487 1.719c.69.219 1.297.309 1.831.309 1.805 0 2.748-1.029 3.118-1.567 1.498-2.188.717-5.893-.955-7.983-.987-1.233-1.807-3.541-1.412-5.915.211-1.265.871-3.033 2.823-4.275 3.519-2.239 5.829-5.271 5.883-7.72.024-1.012-.361-1.847-1.085-2.354-.638-.447-1.353-.542-2.046-.633-1.542-.204-3.462-.457-5.907-4.97-2.178-4.022.402-11.815 3.135-20.067 1.562-4.722 3.18-9.605 4.193-14.467 2.507-12.036-3.536-21.732-5.724-24.752 6.085-5.986 8.636-11.731 7.585-17.084-1.157-5.9-6.657-9.942-11.015-11.611-5.267-2.018-14.094-.968-22.629.054-6.656.796-12.949 1.552-16.728.751-1.429-.299-2.445-.919-3.018-1.846-.999-1.611-.464-3.73-.459-3.752a1.3 1.3 0 00-.243-1.142c-.258-.319-.683-.523-1.061-.484-2.483.1-4.461 1.483-5.684 2.625a3.167 3.167 0 01-.032-1.075c.336-2.49 3.204-4.667 3.233-4.689a1.298 1.298 0 00-.103-2.144c-5.277-3.214-10.205-.833-12.728 1.402-1.066-1.044-1.709-2.64-1.658-4.248.032-1.056.405-2.996 2.516-4.118.955-.508 1.775-.619 2.519-.346 1.245.464 2.072 1.994 2.286 2.546a1.3 1.3 0 00.781.756c.358.13.756.091 1.081-.101 2.888-1.685 3.813-5.225 4.106-7.189 1.699.277 2.995.997 3.936 2.185 2.64 3.33 1.561 9.197 1.55 9.256a1.297 1.297 0 001.608 1.497c5.864-1.571 7.741-6.333 8.031-9.853 4.484 2.792 4.179 8.567 4.162 8.839a1.296 1.296 0 001.78 1.287c2.146-.871 3.334-2.286 3.992-3.594 4.081 5.353 9.757 7.211 10.028 7.298a1.297 1.297 0 001.591-1.73l-1.267-3.071a88.241 88.241 0 013.045 2.278c2.706 2.082 5.502 4.235 9.537 6.131 4.537 2.131 7.769 1.653 9.689.884 1.915-.774 3.432-2.219 4.059-3.864.728-1.913 1.005-4.749-.409-6.951zm-2.016 6.036c-.275.724-1.124 1.782-2.608 2.381-1.432.58-3.923.911-7.614-.825-3.781-1.777-6.465-3.842-9.06-5.839-2.151-1.657-4.184-3.221-6.75-4.602a1.295 1.295 0 00-1.812 1.635l1.542 3.737c-2.239-1.277-5.299-3.56-7.305-7.228a1.295 1.295 0 00-2.433.621c0 .024-.022 1.827-1.495 3.233-.445-3.452-2.338-8.09-7.54-9.925a1.285 1.285 0 00-1.242.209c-.349.28-.53.72-.477 1.166.032.27.653 6.045-4.248 8.547.132-2.421-.078-6.332-2.303-9.148-1.628-2.058-4.01-3.167-7.079-3.293-.332-.037-.685.111-.938.348a1.292 1.292 0 00-.412.913c0 .04-.148 3.514-1.913 5.527-.611-.913-1.581-1.989-2.964-2.51-1.454-.548-3.022-.388-4.656.479-2.386 1.267-3.804 3.573-3.892 6.325-.091 2.914 1.351 5.721 3.678 7.152a1.31 1.31 0 001.648-.245c.17-.192 3.867-4.235 8.69-2.541-1.103 1.157-2.45 2.951-2.735 5.036-.223 1.613.204 3.125 1.264 4.494.248.322.538.481 1.049.501a1.295 1.295 0 001.029-.542c.017-.024 1.424-1.954 3.508-2.737-.008 1.103.186 2.517.977 3.808.96 1.566 2.543 2.59 4.704 3.044 4.194.876 10.693.101 17.568-.715 8.228-.979 16.733-1.994 21.394-.208 3.74 1.432 8.447 4.83 9.401 9.691.916 4.662-1.664 9.88-7.663 15.508a1.295 1.295 0 00-.106 1.778c.086.103 8.633 10.467 5.913 23.52-.982 4.719-2.575 9.531-4.117 14.182-3.039 9.181-5.664 17.109-2.951 22.117 3.072 5.674 6.06 6.069 7.845 6.305.348.046.781.103.855.138.256.523-.658 3.266-4.658 5.812-2.183 1.39-3.563 3.477-3.988 6.037-.462 2.78.3 5.905 1.944 7.96 1.254 1.566 1.485 3.96.842 4.898-.127.182-.51.731-2.031.255-2.32-.734-3.454-1.93-3.457-1.935a1.345 1.345 0 00-1.08-.423 1.295 1.295 0 00-.985.609c-.01.015-.913 1.415-2.401 1.623-1.112.15-2.348-.388-3.686-1.61a1.3 1.3 0 00-1.628-.098c-.805.572-3.474 2.073-5.105 1.564-.234-.076-.95-.305-1.409-1.65a1.298 1.298 0 00-1.764-.757c-1.574.715-3.55 1.164-3.931.992 0 0-.062-.196.1-.749.896-3.089 4.543-3.83 6.958-4.319.444-.089.845-.172 1.181-.256.267-.066.572-.127.898-.191 2.377-.472 7.322-1.456 6.701-7.675-.132-1.308-.094-2.514-.061-3.681.113-3.83.219-7.447-5.799-11.78-2.22-1.599-4.36-3.035-6.416-4.415-4.682-3.143-8.726-5.856-12.429-9.559-7.644-7.648-16.75-9.888-27.073-6.656-6.107 1.913-11.191 4.231-16.105 6.474-4.943 2.256-9.682 4.358-14.875 5.794 4.098-7.789 6.343-18.119 5.881-23.099a1.305 1.305 0 00-1.41-1.171 1.298 1.298 0 00-1.171 1.41c.53 5.686-3 19.647-8.773 26.545-3.374 4.032-4.304 8.596-2.369 11.626 1.201 1.878 3.241 2.777 5.807 2.802-1.404 2.21-4.307 5.544-9.502 6.735a1.297 1.297 0 00-.953 1.628c.022.076 2.165 7.579-1.544 10.74-.093.054-2.335 1.189-6.608-.766a1.3 1.3 0 00-1.441.25c-.022.017-2.121 1.986-4.333 1.851-1.21-.027-2.296-.572-3.322-1.665a1.298 1.298 0 00-1.783-.101c-.154.133-3.821 3.177-6.544.127a1.295 1.295 0 00-1.569-.285c-1.039.543-2.961 1.144-3.777.702-.108-.059-.437-.236-.523-1.119-.181-1.873.476-3.703 1.756-4.898 1.262-1.178 3.018-1.653 4.948-1.329 6.791 1.134 14.106-.356 15.166-6.232.778-4.322-1.012-9.458-2.742-14.427-1.302-3.737-2.649-7.602-2.71-10.733-.121-6.398 1.248-12.437 1.262-12.498a1.293 1.293 0 00-.972-1.552 1.286 1.286 0 00-1.552.97c-.061.258-1.458 6.401-1.329 13.131.026 1.324.278 2.734.607 4.168-9.832-3.633-16.397-9.288-19.446-16.867-3.573-8.884-1.547-18.413 1.274-23.876 4.039-7.816 9.527-12.282 13.937-15.872 2.073-1.686 3.929-3.204 5.254-4.792-.139 2.154-1.973 6.488-3.971 9.958a1.297 1.297 0 001.508 1.883c1.113-.348 3.125-1.328 4.601-2.08l.415 6.541a1.295 1.295 0 002.114.918c1.746-1.432 3.396-3.344 4.537-4.786l1.289 4.069a1.295 1.295 0 001.973.673c1.846-1.277 3.649-3.324 4.775-4.729l2.46 3.921c.25.398.695.655 1.161.606a1.295 1.295 0 001.097-.715l2.87-5.741 2.421 6.581a1.293 1.293 0 001.217.848c.241 0 .483-.067.692-.199l6.344-4.002c3.352 1.863 8.201 2.639 8.42 2.674a1.33 1.33 0 001.088-.337c.292-.273.44-.668.403-1.066l-.516-5.406 5.616-.086a1.296 1.296 0 00.313-2.547c-.613-.164-2.019-1.477-3.218-2.823.152-.011.222-.017.294-.024 3.23.246 58.058 4.283 70.081-4.463 6.686-4.862 6.219-9.283 5.345-11.484-1.804-4.547-8.365-7.447-14.909-6.614-2.602.332-5.399.832-8.299 1.351-8.206 1.469-17.507 3.136-25.133 1.267-2.974-.729-5.524-1.694-7.774-2.544-3.808-1.442-6.561-2.485-8.67-1.225-.874.523-1.508 1.375-1.932 2.622-1.353-1.51-2.855-4.267-.872-8a1.296 1.296 0 00-.204-1.5c-.076-.081-7.594-8.139-4.056-16.983 3.177-7.943 15.682-12.426 29.732-10.641 12.088 1.529 24.759 10.814 33.142 16.959 5.277 3.867 8.12 5.896 10.043 6.148.385.056.764-.078 1.048-.339a1.3 1.3 0 00.413-1.022c-.002-.017-.081-1.748.891-2.708.53-.525 1.304-.756 2.374-.675 1.257.083 2.166.548 2.704 1.385.832 1.298.681 3.263.159 4.631zm-40.734 125.281c-1.257.432-2.666.143-4.206-.867a1.3 1.3 0 00-1.559.105c-.157.135-3.858 3.263-7.408.402a1.306 1.306 0 00-1.662.03c-.385.331-3.867 3.136-7.336-.111a1.297 1.297 0 00-1.502-.194c-1.763.953-4.226 1.731-4.886 1.333-.108-.064-.113-.412-.113-.481 0-1.373.84-2.397 1.544-3.013 1.637-1.431 4.235-2.19 6.492-1.893 4.908.656 8.486-2.711 9.136-4.23.574-1.34 1.52-13.986-3.005-20.537-.918-1.329-1.928-2.603-2.942-3.877-3.44-4.328-6.663-8.441-6.08-14.695 6.287-.132 11.982 2.273 16.974 7.267 2.613 2.613 5.446 4.776 8.411 6.859-1.15 1.181-3.004 3.413-3.144 5.683a3.964 3.964 0 001.021 2.958c1.879 2.087 4.031 1.989 5.453 1.92.245-.014.574-.032.813-.015-.363.879-1.706 2.715-2.635 3.982-2.57 3.506-4.233 5.945-3.95 7.835.194 1.289.7 3.233 1.191 5.112.467 1.792 1.173 4.5 1.14 5.024-.066.197-.648 1.022-1.747 1.403zm5.456-17.846c2.49-3.398 3.756-5.239 3.023-6.703-.751-1.505-2.288-1.439-3.411-1.382-1.206.057-2.35.108-3.406-1.066-.275-.305-.386-.633-.361-1.061.09-1.48 1.76-3.401 2.721-4.344.744.505 1.483 1.009 2.242 1.518 2.035 1.365 4.15 2.785 6.345 4.366 4.901 3.529 4.83 5.945 4.724 9.601-.035 1.191-.076 2.541.073 4.015.359 3.599-1.692 4.29-4.628 4.874-.371.074-.717.143-1.022.219-.304.076-.666.148-1.068.231-1.872.38-4.865 1.019-6.945 2.96-.171-.701-.381-1.515-.629-2.465-.472-1.815-.962-3.691-1.135-4.844-.145-.974 2.212-4.19 3.477-5.919zM267.82 291.398c-.538.057-1.027.275-1.475.661-.766-.854-1.792-2.516-1.792-5.286 0-4.12-1.166-6.167-1.906-7.061a5.32 5.32 0 00.496-.828c.577-1.279.413-2.61-.488-3.97.42-.879.71-2.082.349-3.295.525-.891.931-2.281.513-3.982a7.522 7.522 0 001.027-1.85c5.955 6.582 13.065 12.213 13.545 12.591.336 1.659.766 3.321 1.428 4.966 2.023 5.032 5.451 9.257 10.159 12.692-2.208 2.998-6.338 6.892-11.448 3.479-2.372-1.581-4.16-3.462-5.596-4.974-1.834-1.927-3.177-3.325-4.812-3.143zm-10.84 11.418a1.3 1.3 0 001.071.439c.405-.03.774-.25.994-.592.14-.216.815-1.058 1.566-1.21.216-.047.567-.064 1.076.282.339.235.53 1.011.243 1.858-.513 1.52-2.129 2.357-4.344 2.259-.548-.046-1.063.3-1.267.815s-.059 1.103.361 1.463l2.114 1.812-3.448.84a1.296 1.296 0 00-.943.916c-.005.022-.521 1.859-1.55 3.41-1.031-1.55-1.547-3.388-1.552-3.41a1.296 1.296 0 00-.943-.916l-3.448-.84 2.112-1.812c.42-.361.565-.948.361-1.463-.206-.515-.758-.865-1.267-.815-2.242.105-3.831-.739-4.343-2.257-.287-.849-.096-1.625.243-1.859.501-.342.849-.326 1.068-.283.727.142 1.385.928 1.572 1.211.219.342.589.562.994.592a1.37 1.37 0 001.071-.439c3.287-3.756 1.883-7.978.263-10.347 1.24-1.549 2.509-4.029 2.801-4.613.223-.444.094-.96-.209-1.355-.305-.391-.891-.557-1.368-.461-.736.155-2.976.624-4.263-.368-.447-.342-.547-1.282-.202-1.895.116-.211.483-.842 1.827-.331 1.279.493 3.114 1.024 4.262-.01.261-.235.413-.513.523-.798.34.052.685.07 1.031.1.111.249.256.491.487.698 1.152 1.036 2.986.503 4.263.01 1.35-.516 1.709.12 1.827.331.344.612.243 1.552-.206 1.896-1.286.995-3.524.521-4.425.332a1.28 1.28 0 00-1.282.484c-.3.393-.351.923-.13 1.365.292.584 1.561 3.064 2.801 4.613-1.622 2.37-3.026 6.593.259 10.348zm4.203-36.421a1.296 1.296 0 00-.326 1.399c.638 1.701-.167 2.647-.243 2.731a1.294 1.294 0 00-.213 1.552c.533.948-.331 2.136-.332 2.139a1.296 1.296 0 00.046 1.631c1.019 1.189.781 1.717.666 1.971-.366.813-1.154 1.448-2.34 1.885-1.211.446-2.626.58-4.005.54-.051.003-.102-.005-.151.003-1.635-.065-3.206-.394-4.296-.908-.582-.273-1.311-.724-1.466-1.309-.14-.528.224-1.06.223-1.06.213-.283.3-.641.243-.99a1.303 1.303 0 00-.55-.859c-.675-.459-.729-.85-.746-.979-.083-.606.393-1.326.56-1.523a1.297 1.297 0 00-.197-1.89c-.395-.297-1.054-.876-1.046-1.434.008-.574.666-1.161.887-1.316.344-.234.523-.643.535-1.058.012-.417-.209-.837-.54-1.09-.337-.259-.657-1.516-.507-1.949 1.569.302 3.272.488 5.136.505l.288.002c3.512 0 6.587-.634 9.093-1.698.155.195.314.388.473.582.027 1.856-1.146 3.076-1.192 3.123zm-8.638-4.599c-7.01-.064-11.653-2.315-12.421-6.023-.228-1.102-.029-1.969.607-2.65.791-.847 2.254-1.343 3.831-1.343.339 0 .683.024 1.027.071.364.049.425.165.447.208.272.51-.083 1.976-.57 2.974a1.3 1.3 0 00.569 1.724c4.619 2.384 11.304 1.338 13.062.54.211-.096.85-.385 1.026-1.087.138-.55-.046-1.031-.224-1.496-.319-.839-.651-1.704.285-2.929.499-.656 1.589-.353 1.91-.243 1.545.523 3.108 2.136 3.108 4.208 0 .965-.439 1.89-1.304 2.748-2.13 2.11-6.395 3.281-11.353 3.298zm4.763-6.626c-1.729.429-5.767.904-9.004-.253.38-1.146.7-2.799.024-4.074-.029-.055-.078-.114-.113-.171l-.288-40.76c.322-24.188 11.496-33.024 16.736-35.841-2.348 7.322-6.983 28.001-6.802 76.609-1.172 1.848-.899 3.48-.553 4.49zm35.326-21.947l-1.36 3.006c-.626-.66-1.41-1.724-2.05-3.344a1.285 1.285 0 00-1.537-.776l-4.827 1.277 1.105-2.701a1.292 1.292 0 00-.162-1.265 1.277 1.277 0 00-1.166-.515l-5.859.585 2.175-5.908c2.588.756 8.991 2.485 15.565 3.168l-.958 1.193a1.298 1.298 0 00-.088 1.5c.294.467.852.698 1.388.574.069-.015 7.027-1.591 11.763-.916a1.316 1.316 0 001.321-.661c.26-.474.197-1.06-.157-1.468-2.765-3.199-10.197-12.127-11.371-14.978-.221-.538-.776-.844-1.35-.795a1.3 1.3 0 00-1.129 1.087l-.65 4.145a12.779 12.779 0 01-3.413-3.317 1.284 1.284 0 00-1.419-.504 1.296 1.296 0 00-.938 1.179c-.007.127-.027.629.003 1.313-3.335-2.968-8.692-8.382-10.431-13.877-.97-3.062-.894-5.326.219-6.551.973-1.068 2.603-1.184 3.457-1.004.908.194 1.773.837 2.313 1.719.528.864.688 1.831.449 2.726-.106.4-.017.827.245 1.149.26.322.666.508 1.071.479 3.266-.162 19.692-1.243 22.348-6.624.371-.752.629-1.866.081-3.229 1.738-.992 6.031-2.463 11.592 2.507a1.3 1.3 0 001.631.078c1.281-.941 3.206-3.204 2.968-5.957 1.937.243 5.269 1.223 7.58 4.948a1.3 1.3 0 00.967.606c.395.039.791-.103 1.07-.391.103-.106 2.205-2.321 3.074-5.058 1.547.361 4.613 1.525 7.611 5.291a1.3 1.3 0 00.914.486c.127.002 1.776.1 3.907-.523-6.542 5.271-17.176 6.349-17.316 6.363a1.297 1.297 0 00-.882 2.112l1.846 2.251c-7.32.137-10.545-2.512-10.573-2.537a1.302 1.302 0 00-1.662-.035 1.297 1.297 0 00-.329 1.63l1.604 2.963c-2.878-.602-5.519-1.945-7.732-3.074-2.789-1.421-4.994-2.537-6.926-1.964-1.444.432-2.497 1.736-2.748 3.405-.272 1.817.469 3.553 1.933 4.53a4.395 4.395 0 002.451.741c1.208 0 2.428-.484 3.386-1.419.783-.764 1.254-1.692 1.392-2.645 2.919 1.478 6.47 3.15 10.529 3.324.456.056.908-.211 1.154-.607.248-.395.263-.894.04-1.304l-.847-1.564c2.448.825 6.084 1.485 11.066.987a1.296 1.296 0 00.874-2.111l-1.986-2.419c4.066-.678 12.414-2.64 17.682-7.748-.866 2.388-2.279 4.848-4.606 6.196a1.305 1.305 0 00-.358 1.937c.044.056 4.236 5.527 2.929 19.827-2.397-1.232-7.007-4.16-9.613-9.446a1.297 1.297 0 00-2.452.707c.174 1.68.314 4.365.162 6.254-1.4-1.004-3.361-2.644-4.171-4.437a1.272 1.272 0 00-1.308-.756 1.294 1.294 0 00-1.135.995c-.327 1.41-.764 3.045-1.119 4.154-1.291-.808-3.003-2.085-3.715-3.398a1.295 1.295 0 00-2.433.545c-.084 1.5-.282 3.813-.535 5.412-1.191-.731-2.866-1.832-4.105-2.952a1.28 1.28 0 00-1.238-.282 1.294 1.294 0 00-.884.913l-.665 2.526c-1.113-.646-2.657-1.677-3.666-2.909a1.292 1.292 0 00-1.822-.182 1.292 1.292 0 00-.182 1.822c2.111 2.58 5.815 4.284 5.972 4.354a1.294 1.294 0 001.79-.85l.569-2.161c2.1 1.564 4.349 2.797 4.467 2.861.326.175.71.202 1.06.083.349-.127.628-.395.764-.739.38-.95.646-2.898.818-4.624 1.77 1.537 3.756 2.542 3.879 2.603.607.302 1.34.088 1.69-.493.366-.612.801-1.986 1.164-3.288 2.099 2.364 4.918 3.983 5.075 4.073.326.184.72.216 1.078.093.356-.128.638-.405.773-.759.391-1.027.521-2.652.533-4.25 2.467 3.015 5.323 4.934 7.341 6.048 0 .032-.015.06-.012.092.014.228.297 4.565 1.039 8.024-2.175-.805-5.67-2.446-8.901-5.487a1.296 1.296 0 00-2.089.456l-.997 2.462-4.167-3.023a1.296 1.296 0 00-2.047.882l-.376 2.89c-.906-.656-1.992-1.523-2.769-2.396a1.293 1.293 0 00-1.829-.108 1.295 1.295 0 00-.108 1.829c1.836 2.065 4.916 3.948 5.046 4.025.376.231.84.25 1.233.061.396-.189.668-.565.725-1l.364-2.806 3.744 2.716a1.296 1.296 0 001.962-.562l.933-2.305a29.023 29.023 0 006.722 4.121c.009.807.136 4.238 1.585 6.945-2.374-.062-6.094-.479-9.539-2.202a1.29 1.29 0 00-1.665.454l-1.876 2.892-7.761-5.206a1.266 1.266 0 00-1.122-.155c-.378.121-.68.412-.817.785l-1.193 3.249c-1.429-1.603-3.477-3.858-4.231-4.462a1.296 1.296 0 00-1.76.132c-.022.024-1.834 1.965-4.005 3.474l-1.496-4.017a1.3 1.3 0 00-1.667-.763 1.297 1.297 0 00-.763 1.667l2.052 5.507a1.295 1.295 0 001.844.68c2.03-1.127 3.928-2.809 5.009-3.852 1.201 1.24 3.221 3.501 4.506 4.975a1.296 1.296 0 002.193-.405l1.375-3.744 7.484 5.021a1.308 1.308 0 00.982.192c.341-.069.638-.272.827-.564l1.979-3.052c3.326 1.436 6.654 1.862 9.041 1.963-.014.308.07.623.281.88.315.386.96 1.149 1.739 1.939l-3.241.049a1.299 1.299 0 00-1.271 1.419l.484 5.072c-1.788-.402-4.626-1.181-6.474-2.391a1.289 1.289 0 00-1.402-.014l-5.664 3.573-2.902-7.891a1.296 1.296 0 00-1.144-.847c-.564-.04-1 .251-1.232.715l-3.18 6.359-2.229-3.553a1.297 1.297 0 00-1.065-.607c-.432.007-.842.196-1.093.55-.022.032-1.825 2.58-3.894 4.483l-1.478-4.668a1.297 1.297 0 00-1.046-.891 1.304 1.304 0 00-1.259.55c-.02.03-1.616 2.35-3.643 4.486l-.366-5.78a1.291 1.291 0 00-.663-1.049 1.29 1.29 0 00-1.242-.01c-.557.299-1.588.839-2.666 1.372 1.525-3.165 3.253-7.611 2.271-9.902-.293-.684-.844-1.137-1.504-1.417-.041-.029-.068-.07-.113-.094-.061-.032-.126-.035-.189-.057-.044-.013-.073-.048-.119-.059-.051-.013-.091-.008-.141-.019-.027-.004-.052-.009-.079-.011-1.757-.366-2.955.125-3.647.629-.707.516-1.173 1.203-1.478 1.864-.805-.778-1.778-1.937-2.406-3.433a1.294 1.294 0 00-1.176-.795c-.507-.044-.975.284-1.189.753zm-9.854-14.459c7.005 3.376 15.612 3.75 17.965 3.793a242.342 242.342 0 003.106 3.784c-2.153.008-4.348.251-6.092.513l.307-.383a1.297 1.297 0 00-.933-2.106c-8.797-.523-18.484-3.58-18.58-3.612l-.011-.001-.007-.004c-1.444-.435-2.284-1.178-2.369-2.087-.066-.717.332-1.301.574-1.426 1.397-.722 4.339.704 6.04 1.529zm12.242.731c.28-.201.486-.489.541-.834l.38-2.429c.777 1.13 1.718 2.381 2.689 3.641a54.021 54.021 0 01-3.61-.378zm-2.282-.367a47.113 47.113 0 01-1.94-.404 1.29 1.29 0 00-.109-.842 3.88 3.88 0 01-.105-.233 15.354 15.354 0 002.154 1.479zm17.089-14.145c-.589.58-1.623 1.021-2.59.378-.741-.494-.903-1.351-.808-1.989.076-.498.363-1.137.928-1.306.108-.032.231-.047.366-.047.621 0 1.508.326 2.521.79l.002.003c.656 1.039-.233 1.991-.419 2.171zm49.266 19.396a1.294 1.294 0 001.977-.927c.216-1.63.614-2.63 1.186-2.973 1.033-.619 3.533.329 6.425 1.424 2.203.835 4.947 1.873 8.073 2.639 8.157 1.998 17.747.282 26.206-1.233 2.858-.511 5.611-1.004 8.171-1.331 5.352-.682 10.808 1.559 12.173 4.999 1.031 2.596-.553 5.591-4.461 8.432-10.832 7.877-62.702 4.379-67.99 4-1.407-1.34-1.957-4.081-2.121-5.888.855.273 1.429.409 1.502.425a1.299 1.299 0 001.247-.42 1.3 1.3 0 00.236-1.294c-.808-2.205-1.252-6.279-1.437-8.365.342.094.705.06 1.009-.128.337-.208.56-.558.607-.952 1.532-13.018-1.141-19.803-2.541-22.346.34-.26.659-.54.962-.832.094 6.153 3.662 11.099 5.122 12.867-2.607 5.9 1.176 10.332 3.654 11.903z"/><path fill="#ffd250" d="M229.129 157.662c-.503-10.438-2.981-27.32-10.902-27.706-4.464-.206-6.664 2.542-6.755 2.661-.262.339-.69.53-1.107.508l-3.027-.182.542 2.006a1.303 1.303 0 01-.417 1.328c-.184.155-4.464 3.872-1.859 8.606 1.984 3.607 8.397 5.314 13.079 6.56 2.09.557 3.897 1.038 5.07 1.611 2.089 1.021 3.92 2.745 5.376 4.608z"/><path fill="#464655" d="M218.352 127.368c-4.555-.223-7.39 2.048-8.456 3.131l-4.199-.251a1.3 1.3 0 00-1.329 1.632l.806 2.991c-2.058 2.1-4.479 6.463-1.841 11.26 2.517 4.579 9.549 6.45 14.683 7.816 1.96.521 3.653.972 4.599 1.434 3.035 1.485 5.473 4.861 6.742 7.526a1.294 1.294 0 002.465-.543c.013-1.402.178-34.332-13.47-34.996zm.33 24.073c-4.682-1.245-11.095-2.952-13.079-6.56-2.605-4.734 1.675-8.451 1.859-8.606.383-.324.547-.844.417-1.328l-.542-2.006 3.027.182c.417.022.845-.169 1.107-.508.091-.118 2.291-2.866 6.755-2.661 7.921.386 10.399 17.268 10.902 27.706-1.456-1.863-3.287-3.587-5.377-4.609-1.171-.572-2.978-1.053-5.069-1.61z"/><path fill="#ffd250" d="M445.713 157.662c.503-10.438 2.981-27.32 10.902-27.706 4.464-.206 6.664 2.542 6.755 2.661.262.339.69.53 1.107.508l3.027-.182-.542 2.006c-.13.484.034 1.004.417 1.328.184.155 4.464 3.872 1.859 8.606-1.984 3.607-8.397 5.314-13.079 6.56-2.09.557-3.897 1.038-5.07 1.611-2.089 1.021-3.92 2.745-5.376 4.608z"/><path fill="#464655" d="M443.021 162.364a1.297 1.297 0 001.296 1.282c.491 0 .952-.28 1.169-.739 1.269-2.666 3.707-6.042 6.742-7.526.946-.462 2.639-.913 4.599-1.434 5.134-1.367 12.166-3.238 14.683-7.816 2.639-4.796.218-9.159-1.841-11.26l.806-2.991a1.299 1.299 0 00-1.329-1.632l-4.199.251c-1.066-1.083-3.901-3.354-8.456-3.131-13.649.664-13.484 33.594-13.47 34.996zm8.069-9.312c-2.09 1.022-3.921 2.747-5.377 4.609.503-10.438 2.981-27.32 10.902-27.706 4.464-.206 6.664 2.542 6.755 2.661.262.339.69.53 1.107.508l3.027-.182-.542 2.006c-.13.484.034 1.004.417 1.328.184.155 4.464 3.872 1.859 8.606-1.984 3.607-8.397 5.314-13.079 6.56-2.09.556-3.896 1.037-5.069 1.61z"/><path fill="#ffd250" d="M445.713 350.628c.503 10.438 2.981 27.32 10.902 27.706 4.464.206 6.664-2.542 6.755-2.661.262-.339.69-.53 1.107-.508l3.027.182-.542-2.006a1.303 1.303 0 01.417-1.328c.184-.155 4.464-3.872 1.859-8.606-1.984-3.607-8.397-5.314-13.079-6.56-2.09-.557-3.897-1.038-5.07-1.611-2.089-1.021-3.92-2.746-5.376-4.608z"/><path fill="#464655" d="M456.491 380.922c4.555.223 7.39-2.048 8.456-3.131l4.199.251a1.3 1.3 0 001.329-1.632l-.806-2.991c2.058-2.1 4.479-6.463 1.841-11.26-2.517-4.579-9.549-6.45-14.683-7.816-1.96-.521-3.653-.972-4.599-1.434-3.035-1.485-5.473-4.861-6.742-7.526a1.294 1.294 0 00-2.465.543c-.014 1.402-.179 34.331 13.47 34.996zm-.331-24.074c4.682 1.245 11.095 2.952 13.079 6.56 2.605 4.734-1.675 8.451-1.859 8.606a1.303 1.303 0 00-.417 1.328l.542 2.006-3.027-.182a1.333 1.333 0 00-1.107.508c-.091.118-2.291 2.866-6.755 2.661-7.921-.386-10.399-17.268-10.902-27.706 1.456 1.863 3.286 3.587 5.377 4.609 1.172.573 2.978 1.053 5.069 1.61z"/><path fill="#ffd250" d="M229.129 350.628c-.503 10.438-2.981 27.32-10.902 27.706-4.464.206-6.664-2.542-6.755-2.661a1.333 1.333 0 00-1.107-.508l-3.027.182.542-2.006a1.303 1.303 0 00-.417-1.328c-.184-.155-4.464-3.872-1.859-8.606 1.984-3.607 8.397-5.314 13.079-6.56 2.09-.557 3.897-1.038 5.07-1.611 2.089-1.021 3.92-2.746 5.376-4.608z"/><path fill="#464655" d="M231.822 345.926a1.297 1.297 0 00-1.296-1.282c-.491 0-.952.28-1.169.739-1.269 2.666-3.707 6.042-6.742 7.526-.946.462-2.639.913-4.599 1.434-5.134 1.367-12.166 3.238-14.683 7.816-2.639 4.797-.218 9.159 1.841 11.26l-.806 2.991a1.299 1.299 0 001.329 1.632l4.199-.251c1.066 1.083 3.901 3.354 8.456 3.131 13.648-.665 13.483-33.594 13.47-34.996zm-8.07 9.311c2.09-1.022 3.921-2.747 5.377-4.609-.503 10.438-2.981 27.32-10.902 27.706-4.464.206-6.664-2.542-6.755-2.661a1.333 1.333 0 00-1.107-.508l-3.027.182.542-2.006a1.303 1.303 0 00-.417-1.328c-.184-.155-4.464-3.872-1.859-8.606 1.984-3.607 8.397-5.314 13.079-6.56 2.09-.556 3.897-1.036 5.069-1.61z"/></svg>