<svg xmlns="http://www.w3.org/2000/svg" x="0" y="0" enable-background="new 0 0 512 512" version="1.1" viewBox="0 0 512 512" xml:space="preserve"><path fill="#FF4B55" d="M341.33 0H512V512H341.33z"/><path fill="#FFE15A" d="M170.67 0H341.34V512H170.67z"/><path fill="#41479B" d="M0 0H170.67V512H0z"/><path fill="#FFCD5A" d="M276.622 286.616H282.288V318.284H276.622z" transform="scale(-1) rotate(-39.192 -849.592 784.999)"/><path fill="#FFBE5A" d="M268.192 288.607H279.522V302.54400000000004H268.192z" transform="rotate(140.832 273.856 295.575)"/><path fill="#FFCD5A" d="M232.144 286.624H237.81V318.29200000000003H232.144z" transform="rotate(39.192 234.986 302.47)"/><path fill="#FFBE5A" d="M234.915 288.602H246.245V302.539H234.915z" transform="rotate(39.168 240.577 295.572)"/><path fill="#FFE15A" d="M250.14 297.586 235.976 325.913 255.805 340.076 255.805 300.419z"/><path fill="#FFCD5A" d="M261.471 297.586 275.634 325.913 255.805 340.076 255.805 300.419z"/><path fill="#FFBE5A" d="M216.148 297.586v-73.65h8.498v56.654c0 8.498-8.498 16.996-8.498 16.996z"/><path fill="#FFCD5A" d="M210.482 311.75v-87.813h8.498v70.817c0 8.498-8.498 16.996-8.498 16.996z"/><path fill="#FFE15A" d="M204.817 323.08v-99.144h8.498v82.148c0 8.498-8.498 16.996-8.498 16.996z"/><path fill="#FF4B55" d="M224.646 226.769v53.821c0 14.163 20.537 12.275 31.16 22.661 10.623-10.387 31.16-8.498 31.16-22.661v-53.821h-62.32z"/><path fill="#41479B" d="M224.646 257.929v22.661c0 14.163 20.537 12.275 31.16 22.661 10.623-10.387 31.16-8.498 31.16-22.661v-22.661h-62.32z"/><g fill="#FFE15A"><path d="M255.805 294.754 247.307 289.088 247.307 286.255 250.14 283.423 250.14 266.427 241.642 260.761 250.14 249.431 252.972 249.431 255.805 252.263 258.638 249.431 261.471 249.431 269.969 260.761 261.471 266.427 261.471 283.423 264.303 286.255 264.303 289.088z"/><path d="M244.474 229.602s-11.331 2.833-11.331 14.163 11.331 16.996 11.331 16.996l5.665-8.498c-16.995-5.665-5.665-22.661-5.665-22.661zM267.136 229.602s11.331 2.833 11.331 14.163-11.331 16.996-11.331 16.996l-5.665-8.498c16.996-5.665 5.665-22.661 5.665-22.661z"/><path d="M227.478 257.929 233.144 260.761 238.809 257.929 233.144 255.096z"/><path d="M272.801 257.929 278.467 260.761 284.132 257.929 278.467 255.096z"/><path d="M255.805 231.018 257.865 233.127 260.813 233.092 260.778 236.04 262.887 238.1 260.778 240.159 260.813 243.107 257.865 243.072 255.805 245.182 253.745 243.072 250.798 243.107 250.833 240.159 248.723 238.1 250.833 236.04 250.798 233.092 253.745 233.127z"/><path d="m236.569 270.299 2.043 2.272 2.84-1.126c1.47-.583 2.851 1.017 2.059 2.386l-1.53 2.645 1.949 2.353c1.009 1.218-.086 3.026-1.633 2.696l-2.988-.637-1.636 2.581c-.847 1.336-2.904.853-3.068-.72l-.317-3.039-2.96-.759c-1.532-.393-1.709-2.498-.263-3.141l2.792-1.241-.193-3.049c-.101-1.579 1.847-2.397 2.905-1.221zM274.298 276.758c.625-3.222 3.283-5.503 6.383-5.847-.635-.342-1.312-.624-2.057-.769a7.317 7.317 0 1 0-2.786 14.368c.745.145 1.478.135 2.195.056-2.747-1.477-4.36-4.586-3.735-7.808zM244.474 226.769l5.665-28.327-11.331-8.498 2.833-2.833h5.665s2.833-2.833 8.498-2.833 11.331 2.833 11.331 11.331 2.833 31.16 2.833 31.16h-25.494z"/></g><path fill="#FFAA5A" d="M224.646 215.438c-6.258 0-11.331 5.073-11.331 11.331h22.661c0-6.258-5.073-11.331-11.33-11.331z"/><g fill="#FFBE5A"><path d="M221.813 226.769h-16.996v-18.855a6.64 6.64 0 0 1 6.64-6.64h3.717a6.64 6.64 0 0 1 6.64 6.64l-.001 18.855zM295.463 297.586v-73.65h-8.498v56.654c0 8.498 8.498 16.996 8.498 16.996z"/></g><path fill="#FFCD5A" d="M301.128 311.75v-87.813h-8.498v70.817c0 8.498 8.498 16.996 8.498 16.996z"/><path fill="#FFE15A" d="M306.793 323.08v-99.144h-8.498v82.148c0 8.498 8.498 16.996 8.498 16.996z"/><path fill="#FFAA5A" d="M286.965 215.438c6.258 0 11.331 5.073 11.331 11.331h-22.661c-.001-6.258 5.072-11.331 11.33-11.331z"/><path fill="#FFBE5A" d="M289.797 226.769h16.996v-18.855a6.64 6.64 0 0 0-6.64-6.64h-3.717a6.64 6.64 0 0 0-6.64 6.64v18.855h.001z"/><path fill="#FFAA5A" d="M298.825 252.362H303.074V328.632H298.825z" transform="rotate(31.34 300.953 290.495)"/><path fill="#FFE15A" d="M282.411 308.806H293.742V317.661H282.411z" transform="rotate(128.638 288.077 313.234)"/><path fill="#FFCD5A" d="M312.972 256.741H320.054V273.085H312.972z" transform="rotate(31.329 316.527 264.903)"/><g fill="#73AF00"><path d="M176.236 290.331H249.886V293.16400000000004H176.236z" transform="rotate(57.119 213.06 291.747)"/><path d="M219.413 289.386c-1.016 1.152-1.69 2.898-1.86 4.913-1.397-1.41-3.001-2.309-4.496-2.549-.394 1.461-.234 3.293.479 5.146-1.906-.672-3.775-.774-5.243-.321.413 2.087 2.114 4.354 4.721 5.909 2.607 1.556 5.409 1.976 7.442 1.348l.581-.376c1.407-1.596 2.174-4.324 1.826-7.34-.348-3.015-1.716-5.496-3.45-6.73z"/></g><circle cx="220.75" cy="303.64" r="2.833" fill="#FF4B55"/><path fill="#73AF00" d="M208.648 272.734c-1.016 1.152-1.69 2.898-1.86 4.913-1.397-1.41-3.001-2.309-4.496-2.549-.394 1.461-.234 3.293.479 5.146-1.906-.672-3.775-.774-5.243-.321.413 2.087 2.114 4.354 4.721 5.909 2.607 1.556 5.409 1.976 7.442 1.348l.581-.376c1.407-1.596 2.174-4.324 1.826-7.34-.348-3.016-1.716-5.497-3.45-6.73z"/><circle cx="209.98" cy="286.99" r="2.833" fill="#FF4B55"/><path fill="#73AF00" d="M197.883 256.081c-1.016 1.152-1.69 2.898-1.86 4.913-1.397-1.41-3.001-2.309-4.496-2.549-.394 1.461-.234 3.293.479 5.146-1.906-.672-3.775-.774-5.243-.321.413 2.087 2.114 4.354 4.721 5.909 2.607 1.556 5.409 1.976 7.442 1.348l.581-.376c1.407-1.596 2.174-4.324 1.826-7.34-.347-3.015-1.716-5.496-3.45-6.73z"/><circle cx="199.22" cy="270.34" r="2.833" fill="#FF4B55"/><g fill="#FFE15A"><path d="M220.705 308.815H232.036V317.67H220.705z" transform="rotate(51.362 226.373 313.242)"/><path d="M238.81 178.61H241.643V198.43900000000002H238.81z"/><path d="M235.98 181.45H244.47799999999998V184.283H235.98z"/></g><path fill="#FF875A" d="M238.809 189.944 247.307 196.318 247.307 187.111 241.642 187.111z"/><path fill="#FFAA5A" d="M241.642 178.613v2.833h2.833v2.833h-2.833v2.833h5.665s2.833-2.833 8.498-2.833 11.331 2.833 11.331 11.331 2.833 31.16 2.833 31.16h5.665c0-6.258 5.073-11.331 11.331-11.331.984 0 1.922.165 2.833.401v-6.066a8.498 8.498 0 0 1 16.996 0v67.022l3.658-6.01-1.21-.736 8.498-13.961 1.21.736v-.001l1.815 1.105 3.025 1.841-8.498 13.961-1.21-.737-7.288 11.973v38.113s-6.765-6.783-8.212-14.288c-1.035-1.33-2.227-3.026-3.276-4.952l-3.242 5.326 3.014 2.409-7.075 8.851-1.879-1.502-3.202 5.261-3.629-2.21 3.485-5.726-1.692-1.352 2.409-3.014-7.433-9.115-2.196 1.789-6.609-8.111c-1.759.708-3.498 1.484-5.171 2.372l13.547 27.095-19.829 14.163-19.829-14.163 13.547-27.095c-1-.53-2.016-1.034-3.056-1.491l-5.891 7.23-2.196-1.789-7.433 9.115 2.409 3.014-2.406 1.923 3.288 5.086-2.379 1.538-3.133-4.846-2.287 1.828-7.075-8.851 3.179-2.541-1.685-2.607c-.04.002-.08.002-.119.002-.925 0-1.833-.413-2.372-1.248a2.782 2.782 0 0 1-.41-1.135 9.533 9.533 0 0 1-1.635-.242c-1.053 1.941-2.253 3.65-3.294 4.988-1.447 7.505-8.212 14.288-8.212 14.288v-36.132c-.856-.269-1.719-.611-2.568-1.117-2.607-1.555-4.307-3.822-4.721-5.909a6.658 6.658 0 0 1 1.961-.276c1.03 0 2.149.198 3.282.597-.369-.96-.583-1.91-.656-2.81l-2.786-4.31c-.04.002-.079.002-.119.002-.926 0-1.832-.413-2.372-1.248a2.781 2.781 0 0 1-.41-1.136c-1.568-.094-3.286-.573-4.944-1.563-2.607-1.555-4.307-3.822-4.721-5.909a6.658 6.658 0 0 1 1.961-.276c1.03 0 2.149.198 3.282.597-.712-1.853-.873-3.685-.479-5.146 1.494.24 3.099 1.139 4.496 2.549.17-2.014.844-3.76 1.86-4.913 1.734 1.234 3.102 3.715 3.45 6.731.221 1.918-.046 3.682-.605 5.15.335.212.637.485.867.84.563.871.543 1.918.113 2.783l2.786 4.31c.108.06.214.133.322.198v-66.32a8.498 8.498 0 0 1 16.996 0v6.066c.91-.236 1.849-.401 2.833-.401 6.258 0 11.331 5.073 11.331 11.331h8.498l5.665-28.327-2.833-2.125-5.665-4.249v6.374h-2.833v-14.163h-2.833v-2.833h2.833v-2.833l2.836.001m45.472 128.743 1.047-1.309.557.445 4.566-7.501c-.399-1.387-.653-2.81-.653-4.237v-.498c-2.472-3.251-5.665-8.454-5.665-13.666 0 5.966-3.662 9.074-8.674 11.461l4.359 5.35-2.195 1.788 6.658 8.167m-62.345-.1 1.514-1.21 1.047 1.309 6.659-8.166-2.195-1.788 3.604-4.424c-6.051-2.527-10.752-5.623-10.752-12.387 0 3.792-1.693 7.579-3.567 10.616.89 1.306 1.562 2.976 1.785 4.911.221 1.918-.046 3.682-.605 5.15.335.212.637.485.867.84.563.871.543 1.917.113 2.783l1.53 2.366m16.873-130.767h-2.833a2.125 2.125 0 0 0-2.125 2.125v.708h-.708a2.125 2.125 0 0 0-2.125 2.125v2.833c0 1.173.951 2.125 2.125 2.125h.708v12.039c0 1.173.951 2.125 2.125 2.125h2.833a2.125 2.125 0 0 0 2.125-2.125v-2.125l2.266 1.7 1.762 1.321-5.061 25.306h-4.799c-1.022-6.413-6.591-11.331-13.288-11.331-.235 0-.471.007-.708.022v-3.563c0-5.857-4.765-10.623-10.623-10.623s-10.623 4.765-10.623 10.623V259.348c-.767-2.116-2.014-3.885-3.577-4.997a2.121 2.121 0 0 0-2.826.326c-.654.742-1.192 1.647-1.593 2.667-.93-.505-1.887-.844-2.831-.996a2.124 2.124 0 0 0-2.388 1.544c-.249.922-.332 1.935-.254 2.989a10.407 10.407 0 0 0-.498-.012c-.92 0-1.79.125-2.588.371a2.124 2.124 0 0 0-1.458 2.442c.549 2.777 2.686 5.514 5.716 7.321a13.39 13.39 0 0 0 4.457 1.685 4.859 4.859 0 0 0 3.243 2.44l1.548 2.394-.154-.001c-.92 0-1.79.125-2.588.371a2.124 2.124 0 0 0-1.457 2.442c.549 2.777 2.686 5.514 5.716 7.321.485.289.988.545 1.532.776v34.649a2.123 2.123 0 0 0 3.629 1.5c.289-.29 6.952-7.042 8.688-14.879a40.52 40.52 0 0 0 1.974-2.833 4.88 4.88 0 0 0 2.643 1.564l.091.141-1.679 1.342a2.128 2.128 0 0 0-.333 2.986l7.075 8.851a2.128 2.128 0 0 0 1.659.798c.48 0 .948-.163 1.326-.465l.452-.361 1.857 2.873a2.124 2.124 0 0 0 2.938.631l1.374-.888-.312.623a2.126 2.126 0 0 0 .665 2.679l19.829 14.163a2.12 2.12 0 0 0 2.47 0l19.829-14.163a2.124 2.124 0 0 0 .665-2.679l-12.597-25.195a53.434 53.434 0 0 1 1.674-.753l5.609 6.883a2.123 2.123 0 0 0 2.989.306l.55-.448 5.007 6.14-1.338 1.674a2.126 2.126 0 0 0 .333 2.986l.232.185-2.513 4.129a2.124 2.124 0 0 0 .71 2.919l3.629 2.21a2.128 2.128 0 0 0 2.92-.71l1.947-3.199a2.12 2.12 0 0 0 2.979-.339l7.075-8.851c.26-.326.409-.705.452-1.091 2.309 6.903 7.838 12.506 8.1 12.769a2.124 2.124 0 0 0 3.629-1.5v-37.517l5.936-9.753a2.124 2.124 0 0 0 2.252-.975l8.498-13.961a2.125 2.125 0 0 0-.71-2.92l-3.025-1.841-1.814-1.105-1.212-.737a2.124 2.124 0 0 0-2.919.711l-7.007 11.512V209.77c0-5.857-4.765-10.623-10.623-10.623-5.857 0-10.623 4.765-10.623 10.623v3.563a11.228 11.228 0 0 0-.708-.022c-6.697 0-12.266 4.917-13.288 11.331h-1.827c-.669-5.576-2.59-22.173-2.59-29.035 0-9.921-6.951-13.455-13.455-13.455-4.816 0-7.925 1.836-9.258 2.833h-.069c.078-.221.121-.46.121-.708v-2.833a2.125 2.125 0 0 0-2.125-2.125h-.708v-.708a2.124 2.124 0 0 0-2.124-2.122zM223.55 291.202a30.4 30.4 0 0 0 1.426-2.831c1.771 2.376 4.319 4.067 7.031 5.405l-1.86 2.283a2.126 2.126 0 0 0 .305 2.989l.547.445-3.785 4.643a2.125 2.125 0 0 0-1.551-.121 4.813 4.813 0 0 0-.982-3.386c.378-1.519.48-3.138.294-4.756a13.391 13.391 0 0 0-1.425-4.671zm58.03 1.523c1.871-1.092 3.688-2.473 5.066-4.33 1.084 2.477 2.511 4.73 3.861 6.569a16.65 16.65 0 0 0 .491 3.695l-3.225 5.299c-.187.035-.37.094-.543.178l-3.785-4.642.547-.445a2.126 2.126 0 0 0 .305-2.989l-2.717-3.335zm-41.004 13.957c.617 0 1.228-.267 1.648-.783l3.582-4.397-9.697 19.395a1.97 1.97 0 0 0-.086-.145l-2.245-3.472.905-.724a2.124 2.124 0 0 0 .333-2.986l-1.338-1.674 5.007-6.14.55.448c.394.321.869.478 1.341.478zm54.275 1.992.463-.76c.407.598.836 1.194 1.287 1.788.04.179.082.357.126.534a2.126 2.126 0 0 0-.323-.32l-1.553-1.242z"/></svg>