<svg xmlns="http://www.w3.org/2000/svg" viewBox="0 0 512 512"><path fill="#c8414b" d="M31 26.947h450v458.11H31z"/><path fill="#e6b432" d="M512 0H0v512h512V0zm-32 485.053H31V26.947h449v458.106z"/><circle cx="366.55" cy="340.51" r="20.504" fill="#41479b"/><g fill="#e6b432"><path d="M402.532 222.79c-15.09 12.686-25.238 13.22-25.238 13.22 26.841-10.95 24.036-31.781 24.036-31.781-12.686 16.692-25.639 21.366-25.639 21.366 26.974-18.294 22.701-42.865 22.701-42.865-8.813 19.496-19.963 27.108-19.963 27.108 22.434-29.845 11.417-49.074 11.417-49.074-8.813 27.642-16.225 35.654-16.225 35.654 17.226-46.07 2.471-59.357 2.471-59.357 0 24.704-9.214 38.859-9.214 38.859 9.615-32.583-5.475-51.278-5.475-51.278s-.141 26.563-5.258 40.478c-1.228-1.864-1.953-1.619-1.953-1.619-2.601 17.063-11.771 29.074-15.73 33.595-.879-4.253-3.523-5.555-3.523-5.555s-.477 4.175-4.223 10.331c-2.454 4.033-14.048 13.44-15.917 21.719-1.499 6.638 5.074 12.152 7.211 13.487 2.136 1.335 4.407 3.739 3.472 7.612-.935 3.872-7.878 3.472-12.819 3.338-4.941-.133-5.608 8.012-11.083 7.745l-.928 6.075-2.143.469s-22.434 44.704-24.344 59.916l-16.518 2.178-16.518-2.178c-1.91-15.212-24.344-59.916-24.344-59.916l-2.143-.469-.928-6.075c-5.475.267-6.143-7.878-11.083-7.745-4.941.133-11.885.534-12.819-3.338-.935-3.873 1.335-6.276 3.472-7.612s8.71-6.849 7.211-13.487c-1.869-8.279-13.463-17.686-15.917-21.719-3.746-6.156-4.223-10.331-4.223-10.331s-2.644 1.302-3.523 5.555c-3.959-4.521-13.129-16.533-15.73-33.595 0 0-.725-.245-1.953 1.619-5.116-13.915-5.258-40.478-5.258-40.478s-15.09 18.695-5.475 51.278c0 0-9.214-14.155-9.214-38.859 0 0-14.756 13.287 2.471 59.357 0 0-7.411-8.012-16.225-35.654 0 0-11.017 19.229 11.417 49.074 0 0-11.15-7.612-19.963-27.108 0 0-4.273 24.57 22.701 42.865 0 0-12.953-4.674-25.639-21.366 0 0-2.804 20.832 24.036 31.781 0 0-10.149-.534-25.238-13.22 0 0-2.67 18.428 32.316 27.909 0 0-14.288-.267-28.844-10.015 0 0-.401 18.161 29.511 21.766 0 0-9.882 1.469-20.965-2.537 0 0 .401 14.689 26.44 16.558 0 0-10.282.801-16.959-.801 0 0 .668 15.09 21.232 12.552 0 0-6.944 2.27-9.214 2.938 0 0 .401 12.319 21.833 7.912 0 0-3.806 2.37-9.014 3.171 0 0 4.407 10.282 22.301 5.742l-3.672 4.006s13.821 8.012 24.437-3.005l-3.806 6.81s9.014 3.405 14.622-5.408c0 0-1.536 13.22-20.231 15.624 0 0 .668 2.804 1.469 3.872 0 0-1.202 2.27-12.018 4.14 0 0 2.27 3.472 4.673 4.54 0 0-4.673 4.006-7.211 4.807 0 0 4.006 2.003 6.544 2.404 0 0-5.608 5.475-12.553 5.608-6.944.133-19.363-.668-19.363-.668s-.133-6.677-3.338-12.419-4.273-6.176-4.273-6.176.701-4.607-1.302-6.51-3.105-2.804-3.105-2.804 1.068-9.214-1.87-14.956c-2.938-5.742-13.353-18.294-13.887-27.642-.534-9.347-.134-12.819-.134-12.819l-3.205.801-2.136-4.407 3.605-.401-1.469-6.677-4.941 1.869-.668-5.742-5.875 2.404 2.938 5.208-5.208 1.469 3.071 6.142 4.006-2.537 1.068 5.341s-2.404.534-3.739 2.671c0 0 6.607 4.386 8.546 9.615 3.071 8.279 2.137 26.974 6.544 32.583 4.407 5.608 7.878 9.481 7.878 9.481s-1.235 3.806.167 5.909c1.402 2.103 3.405 2.704 3.405 2.704s-1.202 8.513 1.903 14.121 4.907 7.011 4.907 7.011-11.317 6.91-3.305 14.923c0 0-1.068 7.277 6.543 9.014 0 0 .401 5.742 6.944 5.074 0 0 3.205-.935 4.006.668.801 1.602 0 10.816 0 10.816s2.938-.267 4.807-1.602l5.875 2.938.134-6.543 7.344-2.938s-3.205.534-9.748-5.608c0 0 1.068-.668 1.869-5.876 0 0 5.208-4.139 6.276-7.478 1.068-3.338 8.413-10.683 16.959-13.086l1.169 5.208s12.218-10.816 17.326-11.417l4.206 5.542s15.757-23.369 22.701-27.508c-.534 1.869 3.338 2.137-5.275 11.751-8.613 9.615-3.272 17.226-3.272 17.226-5.341 4.407-4.273 8.413-4.941 12.953s-18.428 16.291-18.428 16.291c5.608 7.077 11.885 5.475 11.885 5.475-3.472 2.27-2.404 9.882-2.404 9.882 5.074 1.335 10.149-.935 10.149-.935-1.736 4.807.935 8.146.935 8.146 3.205-2.003 10.55-3.205 10.55-3.205-.935 8.279 4.407 12.686 4.407 12.686l4.673-5.074c.801 9.347 9.081 14.689 9.081 14.689s8.279-5.342 9.081-14.689l4.673 5.074s5.342-4.407 4.407-12.686c0 0 7.345 1.202 10.55 3.205 0 0 2.67-3.338.935-8.146 0 0 5.074 2.27 10.149.935 0 0 1.068-7.612-2.404-9.882 0 0 6.276 1.602 11.885-5.475 0 0-17.76-11.751-18.428-16.291s.401-8.546-4.941-12.953c0 0 5.341-7.612-3.272-17.226-8.613-9.615-4.741-9.882-5.275-11.751 6.944 4.14 22.701 27.508 22.701 27.508l4.206-5.542c5.108.601 17.326 11.417 17.326 11.417l1.169-5.208.22-.24c6.371 3.43 16.893 8.071 21.146 11.323 4.54 3.472 8.279 3.739 19.229 0s31.323-9.489 28.31-16.291c-.164-.371-.351-.62-.53-.909.479-1.757.675-4.823-2.541-7.504 0 0 .038.747.012 1.704l-10.439-3.89c-.346-.923-.861-1.829-1.858-2.621 0 0 .016.802-.128 1.881l-2.678-.998 5.343-15.033c-.404-.226-.859-.352-1.278-.55.108-1.361.366-3.244.762-5.211 1.305.456 2.497 1.02 3.361 1.727l1.508-5.505s-1.621-.106-3.761-.506c.541-1.66 1.181-3.151 1.943-4.114l-7.077-2.137s.183 2.144.057 4.821c-1.35-.548-2.64-1.244-3.681-2.136l-1.659 6.108c.57.034 2.502.201 4.741.599-.404 1.793-1.116 3.384-2.139 4.578-.253-.034-.485-.124-.741-.149l-5.189 14.599-14.073-5.245c-.604.95-1.068 1.984-1.504 3.032.075-.153.141-.39.22-.487 0 0-5.445 2.847-5.37 7.031-1.002.381-1.881 1.133-2.377 2.436-1.602 4.206 8.212 13.621 5.809 14.822-2.359 1.18-14.689-8.975-16.664-10.68 2.541-.494 6.248-2.34 6.248-2.34-2.537-.801-7.211-4.807-7.211-4.807 2.404-1.068 4.673-4.54 4.673-4.54-10.816-1.87-12.018-4.14-12.018-4.14.801-1.068 1.469-3.872 1.469-3.872-18.695-2.404-20.231-15.624-20.231-15.624 5.608 8.813 14.622 5.408 14.622 5.408l-3.806-6.81c10.616 11.017 24.437 3.005 24.437 3.005l-3.672-4.006c17.894 4.54 22.301-5.742 22.301-5.742-5.208-.801-9.014-3.171-9.014-3.171 21.432 4.407 21.833-7.912 21.833-7.912-2.27-.668-9.214-2.938-9.214-2.938 20.564 2.537 21.232-12.552 21.232-12.552-6.677 1.602-16.959.801-16.959.801 26.039-1.87 26.44-16.558 26.44-16.558-11.084 4.006-20.965 2.537-20.965 2.537 29.912-3.605 29.511-21.766 29.511-21.766-14.555 9.748-28.844 10.015-28.844 10.015 34.99-9.481 32.32-27.909 32.32-27.909zm-30.346 132.1c-1.426-2.318 1.974-4.388 3.505-6.595l5.918 2.205c-2.011 2.395-7.953 6.779-9.423 4.39zm-3.955-9.375c-1.919 2.974-3.255 6.311-9.165 6.47-7.411.2-8.613-6.41-10.215-10.015-.467-1.051-1.273-1.845-2.198-2.389a24.81 24.81 0 01.088-2.075l21.49 8.009z"/><path d="M255.442 204.429s-9.514-8.112-12.319-12.519c0 0 3.205-1.302 4.807-3.305 0 0-8.613-4.607-13.22-9.314 0 0 3.005-.501 5.308-2.404 0 0-7.735-1.397-11.658-7.732 8.944-3.053 5.95-11.397 5.95-11.397-1.803 2.404-9.214 5.408-17.226 2.003s-16.825-1.002-16.825 3.405c0 0-18.027-5.208-13.52 12.219 0 0 2.904-6.51 9.314-4.106s12.92 10.616 12.92 10.616-4.006 2.203-11.417-.2c0 0 3.005 11.517 16.525 5.709 0 0 5.341 2.871 5.608 11.283 0 0 2.27-1.202 3.739-3.872 0 0 2.137 8.146-.667 14.822 0 0 3.739-.668 4.941-1.87 0 0 1.068 7.077-3.605 12.819 0 0 20.531 9.782 33.551-.935 0 0-4.907-5.608-6.51-10.816-.002.001 2.702-1.101 4.304-4.406z"/><path d="M315.033 163.167c0-4.407-8.813-6.81-16.825-3.405-8.012 3.405-15.423.401-17.226-2.003 0 0-2.994 8.344 5.95 11.397-3.923 6.335-11.658 7.732-11.658 7.732 2.303 1.903 5.308 2.404 5.308 2.404-4.607 4.707-13.22 9.314-13.22 9.314 1.602 2.003 4.807 3.305 4.807 3.305-2.804 4.407-12.319 12.519-12.319 12.519 1.602 3.305 4.307 4.407 4.307 4.407-1.602 5.208-6.51 10.816-6.51 10.816 13.02 10.716 33.551.935 33.551.935-4.674-5.742-3.605-12.819-3.605-12.819 1.202 1.202 4.941 1.87 4.941 1.87-2.804-6.677-.667-14.822-.667-14.822 1.469 2.67 3.739 3.872 3.739 3.872.267-8.413 5.608-11.283 5.608-11.283 13.52 5.809 16.525-5.709 16.525-5.709-7.411 2.404-11.417.2-11.417.2s6.51-8.212 12.92-10.616 9.314 4.106 9.314 4.106c4.504-17.428-13.523-12.22-13.523-12.22z"/><path d="M306.87 269.56c-1.758-10.235-3.273-19.075 1.142-29.204l.823-1.892-17.486-20.08-2.067.689c-.179.061-18.456 6.036-30.174.175l-1.461-.731-1.461.731c-11.664 5.845-29.989-.115-30.178-.179l-2.067-.683-17.483 20.077.823 1.892c4.415 10.129 2.9 18.97 1.142 29.204-1.656 9.664-3.535 20.619-.23 33.98 3.589 14.503 15.671 19.659 26.33 24.212 8.215 3.506 15.974 6.818 20.361 13.77l2.763 4.38 2.763-4.38c4.387-6.952 12.146-10.263 20.361-13.77 10.659-4.553 22.741-9.708 26.33-24.212 3.304-13.36 1.424-24.315-.231-33.979zm-92.811-29.881l12.002-13.779c5.436 1.493 20.131 4.728 31.584-.134 11.45 4.862 26.145 1.627 31.584.134l12.002 13.779c-4.214 11.099-2.555 20.776-.804 30.985 1.311 7.649 2.615 15.53 1.521 24.606h-88.606c-1.095-9.076.21-16.957 1.521-24.606 1.752-10.209 3.411-19.886-.804-30.985zm64.145 82.062c-7.427 3.171-15.068 6.432-20.559 12.621-5.491-6.189-13.132-9.45-20.559-12.621-10.422-4.45-19.414-8.339-22.378-19.259h85.873c-2.963 10.92-11.954 14.809-22.377 19.259z"/></g><path fill="#41479b" d="M214.059 239.679l12.002-13.779c5.436 1.493 20.131 4.728 31.584-.134 11.45 4.862 26.145 1.627 31.584.134l12.002 13.779c-4.214 11.099-2.555 20.776-.804 30.985 1.311 7.649 2.615 15.53 1.521 24.606h-88.606c-1.095-9.076.21-16.957 1.521-24.606 1.752-10.209 3.411-19.886-.804-30.985z"/><path fill="#73af00" d="M214.248 300.577c.103.469.169.919.287 1.394 2.808 11.342 11.957 15.247 22.553 19.771 7.427 3.171 15.068 6.432 20.559 12.621 5.491-6.189 13.131-9.45 20.559-12.621 10.595-4.524 19.745-8.429 22.553-19.771.118-.475.183-.926.287-1.394h-86.798z"/><g fill="#e6b432"><path d="M296.849 262.701c0-5.908-5.615-6.84-10.72-6.738s-12.573-.831-12.761-4.798c-.118-2.474 4.033-2.705 6.738-1.838 1.57.503 11.332 2.246 14.395-4.288 0 0-3.571.115-7.337-.73-2.904-.652-14.816.832-16.96 5.426s4.77 9.179 12.733 9.179 9.056 1.594 8.994 3.536c-.082 2.551-6.396 3.274-10.026 3.24-5.712-2.075-19.044-.449-19.107-.703-.077-.307-3.075-5.457-3.075-5.457s5.458-.384 6.15-1.384c.692-.999-4.141-4.837-4.141-4.837s4.064-1.62 4.218-2.773c.169-1.268-3.299-4.271-3.299-4.271s1.34-1.321 2.348-3.573c.721-1.611-5.002-2.042-5.002-2.042.306-1.225.189-2.413-1.327-2.961-1.172-.423-5.513 1.225-8.474 1.225s-4.084 2.144-4.084 2.144-5.207.613-5.921 1.225c-.715.613.204 4.594.204 4.594-2.654-.408-3.879-2.756-3.879-2.756-1.327 6.023 4.9 6.636 4.9 6.636l1.021 3.267 2.552.306c2.552.306 1.327 2.756-2.654 2.756-3.982 0-5.672 4.749-5.672 4.749-2.767.077-4.305-2.152-4.92-4.996-.677-3.131-.278-7.94.231-10.992.615-3.69-1.23-4.766-1.23-4.766l-1.23 3.075c-.077-3.152-2.844-3.459-2.844-3.459l-.461 3.844c-1.384-2.537-3.767-1.384-3.767-1.384s2.306 8.302 2.229 8.763-.845.845-1.922-.307c-1.076-1.153-1.845-.384-1.845-.384 1.153 8.302 5.605 7.084 5.605 7.084s.199 2.6 1.543 7.88c1.435 5.637 7.339 4.575 7.339 4.575 0 1.838 1.429 4.492 1.838 10.617.408 6.125-5.207 10.413-5.207 10.413-5.105-.102-4.594 4.9-4.594 4.9h14.089c0-13.027 5.599-15.261 5.599-15.261 8.302.384 16.296-3.075 16.296-3.075-1.23 4.996.923 7.072.923 7.072 3.382-.461 1.691 6.226.691 6.226h-4.305c-1.23 0-4.766 3.844-4.766 3.844h14.605s2.229-3.229 2.998-4.843c.768-1.614-1.691-3.844-1.845-5.535s2.537-2.767 2.537-2.767c2.844 3.997 9.378 4.228 9.378 4.228l-.154-2.998s3.382 1.153 4.151 2.152c.768.999.615 5.611-3.459 6.15-4.074.538-4.382 3.459-4.382 3.459h11.146c1.845 0 3.305-3.459 3.305-4.766V278.9c0-1.845-1.537-1.614-5.15-1.998-3.282-.349-2.968-3.939-4.32-8.107 4.747-.161 12.084-1.199 12.084-6.094zM295.984 123.015c-.914-8.061-7.34-18.325-31.815-23.136a6.378 6.378 0 00-3.967-5.733v-4.491h4.006v-4.807h-4.006v-4.006h-4.807v4.006h-4.006v4.807h4.006v4.491a6.378 6.378 0 00-3.967 5.733c-24.475 4.811-30.901 15.075-31.815 23.136-1.14 10.051 6.058 19.581 12.547 23.234v5.1h51.278v-5.1c6.488-3.652 13.686-13.183 12.546-23.234zm-26.843 15.514h-7.177v-29.562c5.916 2.672 9.576 6.771 10.641 12.399 1.327 7.009-1.475 14.155-3.464 17.163zm-26.15-17.166c1.065-5.628 4.725-9.726 10.641-12.397v29.564h-7.178c-1.991-3.009-4.792-10.158-3.463-17.167zm-5.933-8.119c-1.179 2.361-1.929 4.723-2.313 6.892-1.161 6.567.17 13.24 2.367 18.393h-1.685c-3.595-2.476-8.215-8.565-7.534-14.575.477-4.203 3.663-7.811 9.165-10.71zm43.111 25.285h-1.687c2.198-5.152 3.529-11.825 2.37-18.39-.384-2.17-1.135-4.534-2.315-6.896 5.502 2.899 8.69 6.508 9.166 10.711.681 6.01-3.939 12.099-7.534 14.575z"/></g></svg>