<svg xmlns="http://www.w3.org/2000/svg" viewBox="0 0 512 512"><path fill="#ff4b55" d="M0 0h512v256H0z"/><path fill="#41479b" d="M0 256h512v256H0z"/><path fill="#f5f5f5" d="M0 512l256-256L0 0z"/><path fill="#ffe15a" d="M115.761 210.07c10.177 24.233-12.877 47.287-37.11 37.11a25.104 25.104 0 01-13.395-13.395c-10.177-24.233 12.877-47.287 37.11-37.11a25.101 25.101 0 0113.395 13.395z"/><path fill="#8cd7ff" d="M124.39 247.606c.111 3.364.476 6.833.829 10.188 1.385 13.163 2.582 24.533-10.06 28.943-2.988 1.042-7.06 1.626-10.996 2.19-5.651.81-10.711 1.534-13.654 3.585-2.943-2.051-8.003-2.775-13.654-3.585-3.937-.564-8.008-1.148-10.996-2.19-12.642-4.41-11.445-15.78-10.06-28.943.353-3.354.718-6.824.829-10.188.393-11.918-2.119-23.597-3.886-30.197 2.941 1.207 7.018 2.296 12.017 2.209 2.154-.043 4.573-.35 7.133-.674 5.844-.744 12.467-1.584 17.767.512l.849.379.849-.379c5.3-2.096 11.923-1.257 17.767-.512 2.56.325 4.979.632 7.133.674 4.999.088 9.077-1.002 12.017-2.209-1.765 6.6-4.277 18.279-3.884 30.197z"/><path fill="#ff4b55" d="M129.007 247.452c-.557-16.894 5.208-33.843 5.265-34.012l-3.633-2.551c-.047.038-5.511 4.277-14.291 4.108-1.907-.036-4.207-.329-6.641-.638-6.113-.774-13.009-1.651-19.199.485-6.19-2.136-13.085-1.259-19.199-.485-2.434.309-4.734.602-6.641.638-8.78.169-14.244-4.07-14.291-4.108l-3.633 2.551c.058.169 5.822 17.118 5.265 34.012-.105 3.199-.461 6.583-.806 9.856-1.39 13.206-2.964 28.176 13.134 33.791 3.411 1.189 7.721 1.714 11.863 2.4 12.432 2.06 14.309 5.236 14.309 5.236s1.877-3.176 14.309-5.236c4.141-.686 8.452-1.211 11.863-2.4 16.098-5.615 14.523-20.585 13.134-33.791-.346-3.273-.703-6.657-.808-9.856zm-4.617.154c.111 3.364.476 6.833.829 10.188 1.385 13.163 2.582 24.533-10.06 28.943-2.988 1.042-7.06 1.626-10.996 2.19-5.651.81-10.711 1.534-13.654 3.585-2.943-2.051-8.003-2.775-13.654-3.585-3.937-.564-8.008-1.148-10.996-2.19-12.642-4.41-11.445-15.78-10.06-28.943.353-3.354.718-6.824.829-10.188.393-11.918-2.119-23.597-3.886-30.197 2.941 1.207 7.018 2.296 12.017 2.209 2.154-.043 4.573-.35 7.133-.674 5.844-.744 12.467-1.584 17.767.512l.849.379.849-.379c5.3-2.096 11.923-1.257 17.767-.512 2.56.325 4.979.632 7.133.674 4.999.088 9.077-1.002 12.017-2.209-1.765 6.6-4.277 18.279-3.884 30.197z"/><path fill="#f5f5f5" d="M114.33 276.004v-10.183h1.745v-3.003h-4.268V252.36h4.268l-19.517-13.826v-5.201h2.714l-8.763-6.208-8.764 6.208h2.715v5.201L64.942 252.36h4.268v10.458h-4.268v3.003h1.745v10.183h-2.551v4.396h52.745v-4.396z"/><g fill="#41aa5a"><path d="M65.193 234.331c-.623 1.474-.517 3.036.145 4.185 1.285-.327 2.479-1.34 3.101-2.814.623-1.474.517-3.036-.145-4.185-1.285.327-2.478 1.34-3.101 2.814z"/><path d="M68.217 234.794c.407 1.547 1.445 2.719 2.671 3.225.818-1.044 1.144-2.575.736-4.123-.407-1.547-1.445-2.719-2.671-3.225-.818 1.045-1.144 2.576-.736 4.123zM72.914 232.221c1.5.558 3.055.384 4.175-.327-.383-1.27-1.447-2.418-2.947-2.975s-3.055-.384-4.175.327c.383 1.27 1.447 2.418 2.947 2.975z"/><path d="M74.321 229.582c1.465-.644 2.46-1.852 2.769-3.142-1.159-.645-2.722-.728-4.187-.084s-2.46 1.852-2.769 3.142c1.159.645 2.722.728 4.187.084zM64.479 230.917c1.305-.925 2.038-2.309 2.081-3.634-1.265-.398-2.813-.166-4.118.76-1.305.925-2.038 2.309-2.081 3.634 1.265.398 2.813.165 4.118-.76z"/><path d="M63.389 228.983c2.008 1.15 4.159 1.462 5.759 1-.412-1.614-1.769-3.311-3.777-4.461-2.008-1.15-4.159-1.462-5.759-1 .412 1.614 1.769 3.311 3.777 4.461z"/></g><path fill="#ffe15a" d="M71.86 231.341c0-.781-.621-1.408-1.395-1.437-.029-.773-.656-1.395-1.437-1.395s-1.408.621-1.437 1.395c-.774.029-1.395.656-1.395 1.437s.621 1.407 1.395 1.437c.029.773.656 1.395 1.437 1.395s1.408-.621 1.437-1.395a1.443 1.443 0 001.395-1.437z"/><path fill="#f5f5f5" d="M69.779 230.926a.86.86 0 01-1.165 1.165.735.735 0 01-.335-.335.86.86 0 011.165-1.165.735.735 0 01.335.335z"/><path fill="#ffe15a" d="M67.341 229.909c0-.642-.511-1.157-1.147-1.181-.024-.636-.539-1.147-1.181-1.147s-1.157.511-1.181 1.147c-.636.024-1.147.539-1.147 1.181s.511 1.157 1.147 1.181c.024.636.539 1.147 1.181 1.147s1.157-.511 1.181-1.147a1.184 1.184 0 001.147-1.181z"/><path fill="#f5f5f5" d="M65.63 229.568a.707.707 0 01-.958.958.605.605 0 01-.276-.276.707.707 0 01.958-.958.605.605 0 01.276.276z"/><path fill="#ffe15a" d="M71.676 227.906a.853.853 0 00-.827-.851c-.017-.458-.389-.827-.851-.827s-.834.368-.851.827a.855.855 0 00-.827.851c0 .463.368.834.827.851.017.458.389.827.851.827s.834-.368.851-.827a.853.853 0 00.827-.851z"/><path fill="#f5f5f5" d="M70.454 227.685a.508.508 0 01-.677.677.464.464 0 01-.235-.235.508.508 0 01.677-.677.468.468 0 01.235.235z"/><path fill="#ffe15a" d="M68.494 226.459a.853.853 0 00-.827-.851.855.855 0 00-.851-.827.853.853 0 00-.851.827.855.855 0 00-.827.851c0 .463.368.834.827.851a.855.855 0 00.851.827.853.853 0 00.851-.827.853.853 0 00.827-.851z"/><g fill="#f5f5f5"><path d="M67.272 226.238a.508.508 0 01-.677.677.464.464 0 01-.235-.235.508.508 0 01.677-.677.464.464 0 01.235.235zM105.406 239.156h16.021a8.775 8.775 0 00-5.535-4.907c.182-1.166.293-2.461.293-3.85 0-4.839-1.24-8.761-2.769-8.761s-2.769 3.922-2.769 8.761c0 1.389.111 2.683.293 3.85a8.774 8.774 0 00-5.534 4.907z"/></g><path fill="#ffe15a" d="M90.509 317.793c-33.755 0-61.216-27.461-61.216-61.216h11.55c0 27.386 22.28 49.665 49.665 49.665s49.665-22.279 49.665-49.665h11.55c.001 33.755-27.46 61.216-61.214 61.216z"/><path fill="#c87878" d="M113.196 201.879h-9.983a1.816 1.816 0 000-3.63H90.509a1.816 1.816 0 000 3.63H67.821a2.723 2.723 0 100 5.446h8.167a1.815 1.815 0 00.001 3.63h16.335a1.816 1.816 0 00.001-3.63h20.872a2.723 2.723 0 10-.001-5.446z"/></svg>