<svg xmlns="http://www.w3.org/2000/svg" viewBox="0 0 512 512"><path fill="#ff4b55" d="M0 0h512v512H0z"/><g fill="#ffe15a"><path d="M209.796 207.182c-.008.008-.017.013-.026.021L13.474 0H0v88.276l199.711 130.845c2.879-4.386 6.29-8.346 10.085-11.939zM189.327 262.901c-.238-2.301-.696-4.537-.696-6.901s.458-4.6.696-6.901l-.001.004L0 229.517v52.966l189.326-19.586.001.004zM245.53 189.687h-.002zM256 188.632c3.587 0 7.036.515 10.47 1.055L296.421 0h-80.842l29.951 189.687c3.434-.541 6.883-1.055 10.47-1.055zM266.472 189.687h-.002zM302.204 207.182c3.795 3.593 7.206 7.554 10.086 11.939L512 88.276V0h-13.474L302.229 207.202l-.025-.02zM312.289 292.879c-2.879 4.386-6.29 8.346-10.086 11.939l.026-.021L498.526 512H512v-88.276L312.289 292.879zM322.673 249.099c.238 2.301.696 4.537.696 6.901s-.458 4.6-.696 6.901l.001-.004L512 282.483v-52.966l-189.326 19.585-.001-.003zM245.528 322.313h.002zM256 323.368c-3.587 0-7.036-.515-10.47-1.055L215.579 512h80.842L266.47 322.313c-3.434.541-6.883 1.055-10.47 1.055zM266.47 322.313h.002zM209.796 304.818c-3.795-3.593-7.206-7.553-10.086-11.939L0 423.724V512h13.474l196.297-207.202.025.02z"/><circle cx="256" cy="256" r="35.31"/></g></svg>