<svg xmlns="http://www.w3.org/2000/svg" viewBox="0 0 512 512"><path fill="#4173cd" d="M0 0h512v512H0z"/><path fill="#f5f5f5" d="M256 384c-70.578 0-128-57.422-128-128s57.422-128 128-128 128 57.422 128 128-57.422 128-128 128zm0-229.517c-55.978 0-101.517 45.539-101.517 101.517S200.022 357.517 256 357.517 357.517 311.978 357.517 256 311.978 154.483 256 154.483z"/><g fill="#ffdc00"><path d="M256 375.172c-65.711 0-119.172-53.461-119.172-119.172S190.289 136.828 256 136.828 375.172 190.289 375.172 256 321.711 375.172 256 375.172zm0-229.517c-60.845 0-110.345 49.5-110.345 110.345S195.155 366.345 256 366.345 366.345 316.845 366.345 256 316.845 145.655 256 145.655z"/><path d="M149.292 252.246c3.214 7.701-4.103 15.019-11.805 11.805a8.029 8.029 0 01-4.297-4.297c-3.214-7.701 4.103-15.019 11.805-11.805a8.029 8.029 0 014.297 4.297zM378.81 252.246c3.214 7.701-4.103 15.019-11.805 11.805a8.029 8.029 0 01-4.297-4.297c-3.214-7.701 4.103-15.019 11.805-11.805a8.032 8.032 0 014.297 4.297zM259.754 149.292c-7.701 3.214-15.019-4.103-11.805-11.805a8.029 8.029 0 014.297-4.297c7.701-3.214 15.019 4.103 11.805 11.805a8.029 8.029 0 01-4.297 4.297zM183.201 177.892c-3.173 7.719-13.522 7.719-16.695 0a8.03 8.03 0 010-6.077c3.173-7.719 13.522-7.719 16.695 0a8.03 8.03 0 010 6.077zM334.108 183.201c-7.719-3.173-7.719-13.522 0-16.695a8.03 8.03 0 016.077 0c7.719 3.173 7.719 13.522 0 16.695a8.03 8.03 0 01-6.077 0zM368.025 205.535c5.917 5.885 1.957 15.446-6.389 15.424a8.032 8.032 0 01-5.615-2.326c-5.917-5.885-1.957-15.446 6.389-15.424a8.032 8.032 0 015.615 2.326zM218.633 155.979c-5.885 5.917-15.446 1.956-15.424-6.389a8.032 8.032 0 012.326-5.615c5.885-5.917 15.446-1.957 15.424 6.389a8.037 8.037 0 01-2.326 5.615zM158.852 211.697c.022 8.345-9.539 12.306-15.424 6.389a8.035 8.035 0 01-2.326-5.615c-.022-8.345 9.539-12.306 15.424-6.389a8.035 8.035 0 012.326 5.615zM300.303 158.852c-8.345.022-12.306-9.539-6.389-15.424a8.035 8.035 0 015.615-2.326c8.345-.022 12.306 9.539 6.389 15.424a8.035 8.035 0 01-5.615 2.326zM375.718 228.359c4.655 6.926-1.095 15.531-9.275 13.881a8.035 8.035 0 01-5.053-3.376c-4.655-6.926 1.095-15.531 9.275-13.881a8.035 8.035 0 015.053 3.376zM238.864 150.611c-6.926 4.655-15.531-1.095-13.881-9.275a8.035 8.035 0 013.376-5.053c6.926-4.655 15.531 1.095 13.881 9.275a8.031 8.031 0 01-3.376 5.053zM169.361 193.595c-1.606 8.189-11.756 10.208-16.374 3.257a8.028 8.028 0 01-1.186-5.96c1.606-8.189 11.756-10.208 16.374-3.257a8.028 8.028 0 011.186 5.96zM318.405 169.361c-8.189-1.606-10.208-11.756-3.257-16.374a8.028 8.028 0 015.96-1.186c8.189 1.606 10.208 11.756 3.257 16.374a8.028 8.028 0 01-5.96 1.186zM356.027 184.649c6.951 4.618 4.932 14.768-3.257 16.374a8.027 8.027 0 01-5.96-1.186c-6.951-4.618-4.932-14.768 3.257-16.374a8.038 8.038 0 015.96 1.186zM199.838 165.19c-4.618 6.951-14.768 4.932-16.374-3.257a8.027 8.027 0 011.186-5.96c4.618-6.951 14.768-4.932 16.374 3.257a8.037 8.037 0 01-1.186 5.96zM152.075 231.501c1.65 8.181-6.955 13.93-13.881 9.275a8.031 8.031 0 01-3.376-5.053c-1.65-8.181 6.955-13.93 13.881-9.275a8.026 8.026 0 013.376 5.053zM280.499 152.075c-8.181 1.65-13.93-6.955-9.275-13.881a8.031 8.031 0 015.053-3.376c8.181-1.65 13.93 6.955 9.275 13.881a8.026 8.026 0 01-5.053 3.376z"/></g><path fill="#ffa000" d="M370.759 260.414a4.411 4.411 0 01-4.414-4.414c0-60.845-49.5-110.345-110.345-110.345S145.655 195.155 145.655 256c0 2.44-1.974 4.414-4.414 4.414s-4.414-1.974-4.414-4.414c0-65.711 53.461-119.172 119.172-119.172S375.172 190.289 375.172 256a4.411 4.411 0 01-4.413 4.414z"/><path fill="#b4b4b4" d="M280.527 388.414h-49.054c-10.482 0-18.655-9.079-17.558-19.503l15.602-148.221h52.966l15.602 148.221c1.097 10.424-7.076 19.503-17.558 19.503z"/><path fill="#aaa" d="M282.232 220.69h-52.671a4.547 4.547 0 01-4.52-4.056l-3.29-30.302c-.567-5.222 3.523-9.781 8.776-9.781h50.945c5.253 0 9.343 4.559 8.776 9.781l-3.268 30.097a4.776 4.776 0 01-4.748 4.261z"/><path fill="#f5f5f5" d="M258.044 186.833l16.364 47.078 49.831 1.015c2.051.042 2.899 2.649 1.263 3.888l-39.717 30.111 14.433 47.706c.594 1.964-1.623 3.575-3.308 2.403L256 290.567l-40.911 28.468c-1.684 1.172-3.902-.439-3.308-2.403l14.433-47.706-39.717-30.111c-1.635-1.24-.788-3.847 1.263-3.888l49.831-1.015 16.364-47.078c.674-1.939 3.416-1.939 4.089-.001z"/></svg>