<svg xmlns="http://www.w3.org/2000/svg" viewBox="0 0 512 512"><path fill="#73af00" d="M0 0h170.67v512H0z"/><path fill="#f5f5f5" d="M170.67 0h170.67v512H170.67z"/><path fill="#ff4b55" d="M341.33 0H512v512H341.33z"/><path fill="#ffd250" d="M271.226 263.896L256 271.509v7.613h7.613z"/><g fill="#00c3a0"><path d="M256 298.154a3.803 3.803 0 01-3.806-3.806v-15.226c0-2.104 1.702-3.806 3.806-3.806s3.806 1.702 3.806 3.806v15.226a3.804 3.804 0 01-3.806 3.806z"/><path d="M256 282.928c-14.95 0-29.388-5.769-40.655-16.244a3.807 3.807 0 01-.197-5.379 3.821 3.821 0 015.379-.197c9.854 9.163 22.452 14.207 35.473 14.207 13.021 0 25.619-5.044 35.473-14.207a3.807 3.807 0 015.182 5.576c-11.267 10.475-25.705 16.244-40.655 16.244z"/></g><path fill="#00aadc" d="M256 298.154a49.256 49.256 0 01-27.336-8.248l4.215-6.341c13.739 9.129 32.503 9.129 46.242 0l4.215 6.341A49.256 49.256 0 01256 298.154z"/><path fill="#732d37" d="M249.973 246.768l-8.406 13.005-1.427 4.282 21.887-5.075z"/><path fill="#aad264" d="M232.705 268.238c-10.062 0-22.139-8.468-25.344-27.336l7.509-1.271c2.661 15.69 12.315 21.006 18.11 20.991 1.777-.048 3.632-.662 3.777-1.918.171-1.502.212-1.859-3.769-3.204-2.163-.732-4.617-1.561-6.338-3.531-6.962-7.951 2.464-16.367 6.992-20.411.799-.714 1.13-1.32 1.045-1.55-.249-.65-1.743-1.636-3.427-1.636-4.836 0-8.505-2.732-9.572-7.126-1.108-4.55.985-9.345 4.97-11.404l3.494 6.765c-.933.483-1.305 1.859-1.067 2.84.093.394.32 1.312 2.175 1.312 4.661 0 9.096 2.751 10.538 6.535.617 1.613 1.546 5.806-3.085 9.943-5 4.464-7.992 7.825-6.334 9.717.375.427 1.985.974 3.048 1.331 3.427 1.16 9.806 3.316 8.891 11.289-.572 5.014-5.048 8.494-11.129 8.657-.161.003-.325.007-.484.007z"/><path fill="#874150" d="M263.613 225.833s7.613-15.226-7.613-22.838c0 0 53.289-7.613 45.677 60.902l-.004-.003c-4.996-3.997-12.414-11.301-15.063-17.125l-22.997-13.323v-7.613z"/><path fill="#732d37" d="M256 241.058l38.064 22.838-15.225 7.613L256 248.671v-7.613z"/><path fill="#783c46" d="M240.774 218.22a7.613 7.613 0 017.613 7.613l-.008.008a14.922 14.922 0 00-2.795 17.224l1.72 3.441a14.924 14.924 0 002.795 3.878l21.126 21.126v-10.521a84.43 84.43 0 00-8.913-37.756 22.84 22.84 0 00-20.427-12.625h-1.111v7.612z"/><path fill="#ffd250" d="M240.774 210.607l-7.613 7.613v7.613s9.056-4.592 12.108-6.054c2.133-1.022 1.745-3.44.521-4.604-.952-.906-5.016-4.568-5.016-4.568z"/><path fill="#aad264" d="M256 313.379c-35.681 0-64.708-29.027-64.708-64.708h7.613c0 31.484 25.611 57.096 57.096 57.096s57.096-25.611 57.096-57.096h7.613c-.002 35.681-29.029 64.708-64.71 64.708z"/><g fill="#ffe15a"><circle cx="199.31" cy="271.26" r="5.167"/><circle cx="210.73" cy="289.5" r="5.167"/><circle cx="229.29" cy="303.3" r="5.167"/><circle cx="313.23" cy="271.26" r="5.167"/><circle cx="301.81" cy="289.5" r="5.167"/><circle cx="283.25" cy="303.3" r="5.167"/></g><path fill="#ffb478" d="M259.806 301.96h-7.613a7.613 7.613 0 010-15.226h7.613a7.613 7.613 0 017.613 7.613 7.612 7.612 0 01-7.613 7.613z"/><path fill="#9b4b5a" d="M286.61 246.768c2.538 7.454 7.93 14.274 15.063 17.125l.004.003C309.289 195.382 256 202.994 256 202.994c38.064 0 30.61 43.774 30.61 43.774z"/></svg>