<svg xmlns="http://www.w3.org/2000/svg" x="0" y="0" enable-background="new 0 0 512 512" version="1.1" viewBox="0 0 512 512" xml:space="preserve"><path fill="#41479B" d="M0 390.737 0 0 388.414 0z"/><path fill="#73AF00" d="M512 121.263 512 512 123.586 512z"/><path fill="#F5F5F5" d="M512 128.86 512 0 383.14 0 0 383.14 0 512 128.86 512z"/><path fill="#FF4B55" d="M512 80.546 512 0 431.455 0 0 431.454 0 512 80.545 512z"/><g fill="#FFE15A"><path d="M100.241 76.413c9.889 0 18.841 4.006 25.324 10.484l3.555-24.677-19.611 15.432-9.268-23.17-9.268 23.17-19.611-15.431 3.555 24.677c6.483-6.479 15.436-10.485 25.324-10.485zM74.897 137.565c-6.478-6.483-10.484-15.435-10.484-25.324S68.419 93.4 74.897 86.917L50.22 83.362l15.432 19.611-23.17 9.268 23.17 9.268L50.22 141.12l24.677-3.555zM158 112.241l-23.17-9.268 15.432-19.611-24.676 3.555c6.478 6.483 10.484 15.435 10.484 25.324 0 9.888-4.006 18.841-10.484 25.324l24.676 3.555-15.432-19.611 23.17-9.268zM100.241 148.07c-9.889 0-18.841-4.006-25.324-10.484l-3.555 24.676 19.611-15.432 9.268 23.17 9.268-23.17 19.611 15.432-3.555-24.676c-6.482 6.477-15.435 10.484-25.324 10.484z"/><circle cx="100.24" cy="112.24" r="29.25"/></g></svg>