<svg xmlns="http://www.w3.org/2000/svg" x="0" y="0" enable-background="new 0 0 512 512" version="1.1" viewBox="0 0 512 512" xml:space="preserve"><path fill="#73AF00" d="M0 0H170.67V512H0z"/><path fill="#F5F5F5" d="M170.67 0H341.34V512H170.67z"/><g fill="#73AF00"><path d="M341.33 0H512V512H341.33z"/><path d="m314.96 342.599-27.396-159.812a49.964 49.964 0 0 0-6.402-17.265L256 123.586l-25.161 41.935a49.971 49.971 0 0 0-6.402 17.265L197.04 342.599a4.997 4.997 0 0 0 4.925 5.841h44.041v39.974h19.987V348.44h44.041a4.997 4.997 0 0 0 4.926-5.841z"/></g></svg>