<svg xmlns="http://www.w3.org/2000/svg" x="0" y="0" enable-background="new 0 0 512 512" version="1.1" viewBox="0 0 512 512" xml:space="preserve"><g fill="#41479B"><path d="M0 0H512V512H0z"/><path d="M94.316 0 0 0 0 19.977 94.316 81.77z"/><path d="M0 68.299 0 94.316 39.71 94.316z"/><path d="M0 161.684 0 187.701 39.71 161.684z"/><path d="M256 19.977 256 0 161.684 0 161.684 81.77z"/><path d="M256 187.701 256 161.684 216.29 161.684z"/><path d="M161.684 174.23 161.684 256 256 256 256 236.023z"/><path d="M256 94.316 256 68.299 216.29 94.316z"/><path d="M0 236.023 0 256 94.316 256 94.316 174.23z"/></g><g fill="#F5F5F5"><path d="M256 236.023 256 216.059 172.232 161.684 196.98 161.684 256 199.995 256 187.701 216.29 161.684 256 161.684 256 148.21 148.211 148.21 148.211 256 161.684 256 161.684 174.23z"/><path d="M0 148.21 0 161.684 39.71 161.684 0 187.701 0 206.602 69.197 161.684 93.945 161.684 0 222.666 0 236.023 94.316 174.23 94.316 256 107.789 256 107.789 148.21z"/><path d="M107.789 0 94.316 0 94.316 81.77 0 19.977 0 41.839 80.842 94.316 56.094 94.316 0 57.904 0 68.299 39.71 94.316 0 94.316 0 107.79 107.789 107.79z"/><path d="M256 107.79 256 94.316 216.29 94.316 256 68.299 256 49.157 186.432 94.316 161.684 94.316 256 33.093 256 19.977 161.684 81.77 161.684 0 148.211 0 148.211 107.79z"/></g><g fill="#FF4B55"><path d="M256 148.21 256 107.79 148.211 107.79 148.211 0 107.789 0 107.789 107.79 0 107.79 0 148.21 107.789 148.21 107.789 256 148.211 256 148.211 148.21z"/><path d="M69.197 161.684 0 206.602 0 222.666 93.945 161.684z"/><path d="M172.232 161.684 256 216.059 256 199.995 196.98 161.684z"/><path d="M80.842 94.316 0 41.839 0 57.904 56.094 94.316z"/><path d="M186.432 94.316 256 49.157 256 33.093 161.684 94.316z"/><path d="M395.586 441.231c-.358 0-.72-.112-1.026-.328l-10.448-7.466-10.448 7.466a1.77 1.77 0 0 1-2.065-.008 1.78 1.78 0 0 1-.647-1.966l3.875-12.241-10.328-7.621a1.772 1.772 0 0 1-.634-1.966 1.773 1.773 0 0 1 1.668-1.224l12.841-.103 4.06-12.181c.241-.716.918-1.207 1.677-1.207s1.435.491 1.677 1.207l4.06 12.181 12.841.103c.763.009 1.431.5 1.668 1.224a1.771 1.771 0 0 1-.634 1.966l-10.328 7.621 3.875 12.241a1.78 1.78 0 0 1-.647 1.966 1.767 1.767 0 0 1-1.037.336z"/></g><path fill="#F5F5F5" d="m384.112 404.153 4.462 13.378 14.102.109-11.345 8.377 4.254 13.446-11.473-8.2-11.473 8.2 4.254-13.446-11.345-8.377 14.102-.109 4.462-13.378m0-3.531c-1.52 0-2.869.973-3.35 2.414l-3.663 10.984-11.578.09a3.53 3.53 0 0 0-2.07 6.372l9.314 6.878-3.493 11.039a3.532 3.532 0 0 0 5.42 3.939l9.42-6.733 9.42 6.733a3.526 3.526 0 0 0 4.129-.017 3.532 3.532 0 0 0 1.291-3.922l-3.493-11.039 9.314-6.878a3.532 3.532 0 0 0-2.07-6.372l-11.578-.09-3.663-10.984a3.53 3.53 0 0 0-3.35-2.414z"/><path fill="#FF4B55" d="M395.586 267.606c-.362 0-.72-.112-1.026-.328l-10.448-7.474-10.448 7.474a1.787 1.787 0 0 1-1.026.328 1.78 1.78 0 0 1-1.039-.336 1.78 1.78 0 0 1-.647-1.966l3.875-12.241-10.328-7.629a1.777 1.777 0 0 1-.634-1.966 1.776 1.776 0 0 1 1.668-1.224l12.841-.095 4.06-12.181c.241-.716.918-1.207 1.677-1.207s1.435.491 1.677 1.207l4.06 12.181 12.841.095c.759.009 1.431.5 1.668 1.224a1.775 1.775 0 0 1-.634 1.966l-10.328 7.629 3.875 12.241a1.78 1.78 0 0 1-.647 1.966 1.767 1.767 0 0 1-1.037.336z"/><path fill="#F5F5F5" d="m384.112 230.526 4.462 13.378 14.102.109-11.345 8.377 4.254 13.446-11.473-8.2-11.473 8.2 4.254-13.446-11.345-8.377 14.102-.109 4.462-13.378m0-3.531c-1.52 0-2.869.973-3.35 2.414l-3.663 10.984-11.578.09a3.53 3.53 0 0 0-2.07 6.372l9.314 6.878-3.493 11.039a3.532 3.532 0 0 0 5.42 3.939l9.42-6.733 9.42 6.733a3.526 3.526 0 0 0 4.129-.017 3.532 3.532 0 0 0 1.291-3.922l-3.493-11.039 9.314-6.878a3.532 3.532 0 0 0-2.07-6.372l-11.578-.09-3.663-10.984a3.53 3.53 0 0 0-3.35-2.414z"/><path fill="#FF4B55" d="M457.379 332.744c-.362 0-.72-.112-1.026-.328l-10.448-7.474-10.448 7.474a1.787 1.787 0 0 1-1.026.328 1.78 1.78 0 0 1-1.039-.336 1.78 1.78 0 0 1-.647-1.966l3.875-12.241-10.328-7.629a1.777 1.777 0 0 1-.634-1.966 1.776 1.776 0 0 1 1.668-1.224l12.841-.095 4.06-12.181c.241-.716.918-1.207 1.677-1.207s1.435.491 1.677 1.207l4.06 12.181 12.841.095c.759.009 1.431.5 1.668 1.224a1.775 1.775 0 0 1-.634 1.966l-10.328 7.629 3.875 12.241a1.78 1.78 0 0 1-.647 1.966 1.767 1.767 0 0 1-1.037.336z"/><path fill="#F5F5F5" d="m445.905 295.664 4.462 13.378 14.102.109-11.345 8.377 4.254 13.446-11.473-8.2-11.473 8.2 4.254-13.446-11.345-8.377 14.102-.109 4.462-13.378m0-3.531c-1.52 0-2.869.973-3.35 2.414l-3.663 10.984-11.578.09a3.53 3.53 0 0 0-2.07 6.372l9.314 6.878-3.493 11.039a3.532 3.532 0 0 0 5.42 3.939l9.42-6.733 9.42 6.733a3.526 3.526 0 0 0 4.129-.017 3.532 3.532 0 0 0 1.291-3.922l-3.493-11.039 9.314-6.878a3.532 3.532 0 0 0-2.07-6.372l-11.578-.09-3.663-10.984a3.53 3.53 0 0 0-3.35-2.414z"/><path fill="#FF4B55" d="M333.793 350.399c-.362 0-.72-.112-1.026-.328l-10.448-7.474-10.448 7.474a1.787 1.787 0 0 1-1.026.328 1.78 1.78 0 0 1-1.039-.336 1.78 1.78 0 0 1-.647-1.966l3.875-12.241-10.328-7.629a1.777 1.777 0 0 1-.634-1.966 1.776 1.776 0 0 1 1.668-1.224l12.841-.095 4.06-12.181c.241-.716.918-1.207 1.677-1.207s1.435.491 1.677 1.207l4.06 12.181 12.841.095c.759.009 1.431.5 1.668 1.224a1.775 1.775 0 0 1-.634 1.966l-10.328 7.629 3.875 12.241a1.78 1.78 0 0 1-.647 1.966 1.77 1.77 0 0 1-1.037.336z"/><path fill="#F5F5F5" d="m322.319 313.319 4.462 13.378 14.102.109-11.345 8.377 4.254 13.446-11.473-8.2-11.473 8.2 4.254-13.446-11.345-8.377 14.102-.109 4.462-13.378m0-3.531c-1.52 0-2.869.973-3.35 2.414l-3.663 10.984-11.578.09a3.53 3.53 0 0 0-2.07 6.372l9.314 6.878-3.493 11.039a3.532 3.532 0 0 0 5.42 3.939l9.42-6.733 9.42 6.733a3.526 3.526 0 0 0 4.129-.017 3.532 3.532 0 0 0 1.291-3.922l-3.493-11.039 9.314-6.878a3.532 3.532 0 0 0-2.07-6.372l-11.578-.09-3.663-10.984a3.532 3.532 0 0 0-3.35-2.414z"/></svg>