<svg xmlns="http://www.w3.org/2000/svg" x="0" y="0" enable-background="new 0 0 512 512" version="1.1" viewBox="0 0 512 512" xml:space="preserve"><path fill="#F5F5F5" d="M0 0H512V170.67H0z"/><path fill="#73AF00" d="M0 341.33H512V512H0z"/><g fill="#FF4B55"><path d="M0 170.67H512V341.34H0z"/><path d="M0 0H202.1V512H0z"/></g><g fill="#F5F5F5"><path d="M55.033 111.677c-.754.086-1.482.177-2.191.271v9.596c.714.182 1.442.362 2.191.538v-10.405zM88.226 129.966c-2-.16-5.074-.468-8.744-.916l-23.014 20.469c2.981.456 6.554 1.059 8.046 1.534 5.911-5.173 13.839-12.223 23.712-21.087z"/><path d="M122.855 97.41 122.855 96.402 122.855 95.439 82.022 95.439 82.022 96.402 82.022 97.41 82.022 98.374 122.855 98.374z"/><path d="M92.625 39.013c0 2.875 4.333 5.304 9.464 5.304 5.13 0 9.464-2.429 9.464-5.304s-4.333-5.304-9.464-5.304-9.464 2.429-9.464 5.304zM83.775 110.378c-9.218-.045-18.416.293-25.937 1.004v11.328c8.836 1.896 19.129 3.349 25.937 4.072v-16.404zM36.29 166.284c3.643-.077 11.646-1.517 17.064-5.75 1.68-1.312 4.547-3.727 8.578-7.229-2.734-.561-7.319-1.24-9.765-1.577L36.29 166.284zM89.032 92.635v-5.15c-.691-1.03-1.404-2.089-2.13-3.168l-6.269 4.559c1.247 2.144 2.048 3.507 2.195 3.758l6.204.001zM40.796 115.888c-.021.085-.07.279.246.685 1.164 1.491 4.53 2.915 8.997 4.211v-8.42c-5.365.89-8.878 2.066-9.243 3.524zM112.516 111.868v-10.69h-20.68v26.112h5.258c8.503 0 15.422-6.919 15.422-15.422zM79.279 73.036c-11.072-16.321-22.897-33.472-25.782-36.87.413 1.52 1.412 4.373 3.743 9.715 3.009 6.895 10.311 20.113 16.355 30.754l5.684-3.599zM74.985 79.076c1.574 2.757 3.018 5.264 4.233 7.363l6.116-4.448a4224.166 4224.166 0 0 0-4.481-6.631l-5.868 3.716zM89.032 127.24v-16.796c-.816-.017-1.633-.033-2.454-.045v16.657c.946.084 1.769.145 2.454.184z"/><path d="M91.84 78.22H112.52000000000001V81.155H91.84z"/><path d="M141.257 92.459v.175h1.051c.775 0 1.402.627 1.402 1.402v5.739c0 .775-.627 1.402-1.402 1.402h-1.051v.175c0 .772.628 1.402 1.402 1.402h23.659c.774 0 1.402-.63 1.402-1.402v-8.894c0-.772-.628-1.402-1.402-1.402h-23.659a1.405 1.405 0 0 0-1.402 1.403zM167.728 166.204l-15.789-14.477c-2.445.337-7.031 1.016-9.765 1.577 4.105 3.56 6.97 5.975 8.578 7.232 5.333 4.165 13.171 5.624 16.976 5.668z"/><path d="M135.298 96.402 135.298 97.41 135.298 98.374 140.906 98.374 140.906 95.439 135.298 95.439z"/><path d="M139.588 151.056c1.49-.478 5.07-1.082 8.056-1.538l-33.906-30.257a18.292 18.292 0 0 1-3.78 5.505l.892.797c12.285 10.997 21.885 19.51 28.738 25.493zM63.621 101.353v-.175h-1.052a1.401 1.401 0 0 1-1.402-1.402v-5.739c0-.775.627-1.402 1.402-1.402h1.052v-.175c0-.772-.628-1.402-1.402-1.402H38.56c-.774 0-1.402.63-1.402 1.402v8.894c0 .772.628 1.402 1.402 1.402h23.659a1.405 1.405 0 0 0 1.402-1.403z"/><path d="M69.579 97.41 69.579 96.402 69.579 95.439 63.971 95.439 63.971 98.374 69.579 98.374z"/><path d="m123.471 88.876-6.269-4.559-1.883 2.801v5.517h5.956c.148-.251.949-1.615 2.196-3.759z"/><path d="M93.712 69.633 110.647 69.633 106.92 65.498 97.44 65.498z"/><path d="M91.84 72.57H112.52000000000001V75.41799999999999H91.84z"/><path d="M102.088 47.121c-1.362 0-2.64-.175-3.856-.434v15.848h7.799V46.67a18.339 18.339 0 0 1-3.943.451zM91.836 86.895h20.589a1.357 1.357 0 0 1 .09-.516V83.96h-20.68l.001 2.935zM118.77 81.991l6.116 4.448c1.215-2.099 2.66-4.606 4.234-7.363l-5.869-3.716a3313.723 3313.723 0 0 0-4.481 6.631z"/><path d="M91.84 89.7H112.52000000000001V92.635H91.84z"/><path d="M130.51 76.634c6.044-10.64 13.346-23.858 16.355-30.753 2.337-5.356 3.335-8.212 3.747-9.726-2.834 3.326-14.688 20.519-25.787 36.881l5.685 3.598z"/></g><path fill="#D23741" d="m171.633 165.982-18.284-16.767a1.372 1.372 0 0 0-1.135-.356c-.155.021-.508.068-.977.134-.025-.026-.036-.06-.063-.085l-36.444-32.522c.372-1.448.59-2.957.59-4.519v-10.69h8.84c1.138 1.481 2.908 2.454 4.917 2.454s3.779-.972 4.917-2.454h4.459v.175a4.211 4.211 0 0 0 4.206 4.206h23.659a4.211 4.211 0 0 0 4.206-4.206v-8.894a4.211 4.211 0 0 0-4.206-4.206h-23.659a4.211 4.211 0 0 0-4.206 4.206v.175h-4.459c-1.138-1.481-2.908-2.454-4.917-2.454-1.522 0-2.9.57-3.982 1.481 4.726-8.09 19.572-33.731 24.341-44.658 5.115-11.725 4.703-13.24 3.493-14.212-1.276-1.021-2.89.153-3.5.6-2.345 1.704-25.093 35.31-34.11 48.703v-11.06c0-.031-.016-.057-.018-.088l-.001-.004a1.372 1.372 0 0 0-.686-1.098l-5.78-6.41V45.81c3.342-1.434 5.52-3.913 5.52-6.797 0-4.546-5.389-8.108-12.268-8.108s-12.268 3.563-12.268 8.108c0 2.908 2.219 5.4 5.608 6.828v17.7l-5.671 6.29c-.426.241-.725.68-.725 1.204v11.426c-8.843-13.137-31.99-47.35-34.355-49.07-.612-.444-2.228-1.618-3.501-.6-1.21.972-1.622 2.486 3.493 14.212 4.617 10.58 18.68 34.952 23.859 43.834a6.151 6.151 0 0 0-2.727-.657c-2.009 0-3.779.972-4.917 2.454h-4.459v-.175a4.211 4.211 0 0 0-4.206-4.206H38.56a4.211 4.211 0 0 0-4.206 4.206v8.894a4.211 4.211 0 0 0 4.206 4.206h23.659a4.211 4.211 0 0 0 4.206-4.206v-.175h4.459c1.138 1.481 2.908 2.454 4.917 2.454s3.779-.972 4.917-2.454h8.314v6.455c-12.999-.279-48.983-.32-50.956 7.576-.183.731-.201 1.865.756 3.089 3.793 4.858 23.014 8.404 36.959 10.278l-22.858 20.33c-.028.025-.04.06-.065.087l-.977-.134c-.422-.06-.83.074-1.135.356l-18.285 16.767a1.4 1.4 0 0 0-.129 1.93c.607.728 2.145 1.084 4.205 1.084 5.069 0 13.29-2.161 18.531-6.254 4.32-3.374 16.286-13.864 35.569-31.184.835-.749 1.388-1.247 1.633-1.465h4.813c3.999 0 7.69-1.31 10.699-3.503l1.188 1.06c22.201 19.872 35.673 31.677 40.046 35.091 5.241 4.096 13.46 6.254 18.529 6.254 2.061 0 3.599-.356 4.207-1.084a1.4 1.4 0 0 0-.129-1.929zM91.836 127.29v-26.112h20.68v10.69c0 8.502-6.918 15.422-15.422 15.422h-5.258zm-41.797-6.506c-4.467-1.296-7.833-2.72-8.997-4.211-.316-.405-.267-.6-.246-.685.365-1.458 3.878-2.634 9.243-3.524v8.42zm3.458-84.618c2.885 3.399 14.71 20.55 25.782 36.87l-5.684 3.599c-6.044-10.64-13.346-23.859-16.355-30.754-2.331-5.342-3.329-8.196-3.743-9.715zm33.405 48.151c.726 1.078 1.438 2.138 2.13 3.168v5.15h-6.204c-.148-.251-.948-1.614-2.195-3.758l6.269-4.56zm-7.683 2.122a1431.815 1431.815 0 0 1-4.233-7.363l5.869-3.716c1.529 2.257 3.025 4.472 4.481 6.631l-6.117 4.448zm9.813 24.006v16.796c-.685-.039-1.508-.1-2.454-.183V110.4c.821.012 1.638.027 2.454.045zm-31.195.937c7.521-.711 16.719-1.049 25.937-1.004v16.404c-6.808-.723-17.101-2.176-25.937-4.072v-11.328zm-4.994.566c.709-.094 1.436-.185 2.191-.271v10.406c-.749-.176-1.476-.356-2.191-.538v-9.597zm26.639 17.101c3.67.448 6.743.757 8.744.916-9.873 8.865-17.801 15.914-23.712 21.088-1.492-.476-5.064-1.079-8.046-1.534l23.014-20.47zm-17.551 24.255c-4.031 3.502-6.898 5.917-8.578 7.229-5.418 4.233-13.42 5.674-17.064 5.75l15.877-14.557c2.446.338 7.031 1.017 9.765 1.578zm20.091-54.93v-2.936h40.833v2.936H82.022zm29.53-59.361c0 2.875-4.333 5.304-9.464 5.304-5.13 0-9.464-2.429-9.464-5.304s4.333-5.304 9.464-5.304c5.13 0 9.464 2.429 9.464 5.304zM91.836 81.156V78.22h20.68v2.935l-20.68.001zm20.68 2.804v2.419c-.064.17-.094.34-.09.516h-20.59V83.96h20.68zm-20.68-8.544v-2.848h20.68v2.848h-20.68zm15.084-9.918 3.728 4.135H93.712l3.728-4.135h9.48zm-8.687-2.963V46.687c1.215.259 2.493.434 3.856.434 1.395 0 2.703-.18 3.943-.452v15.866h-7.799zm-6.397 27.164h20.68v2.935h-20.68v-2.935zm55.029-43.818c-3.009 6.895-10.311 20.113-16.355 30.753l-5.684-3.599c11.098-16.362 22.952-33.555 25.787-36.881-.413 1.515-1.411 4.371-3.748 9.727zm-14.371 50.521v1.008c0 1.884-1.533 3.417-3.417 3.417s-3.417-1.533-3.417-3.417v-1.008c0-1.884 1.533-3.417 3.417-3.417s3.417 1.534 3.417 3.417zm-7.608-9.963-6.116-4.448c1.455-2.159 2.952-4.373 4.48-6.631l5.869 3.716a1522.624 1522.624 0 0 1-4.233 7.363zm-9.566.679 1.883-2.801 6.269 4.559a969.705 969.705 0 0 1-2.196 3.759h-5.956v-5.517zm-1.582 32.143 33.906 30.257c-2.985.456-6.565 1.06-8.056 1.538-6.853-5.983-16.453-14.497-28.738-25.494l-.892-.797a18.293 18.293 0 0 0 3.78-5.504zm38.201 32.466 15.789 14.477c-3.805-.044-11.643-1.503-16.976-5.668-1.607-1.257-4.473-3.672-8.578-7.232 2.734-.561 7.32-1.24 9.765-1.577zm15.781-59.268v8.894c0 .772-.628 1.402-1.402 1.402h-23.659c-.774 0-1.402-.63-1.402-1.402v-.175h1.051c.775 0 1.402-.627 1.402-1.402v-5.739c0-.775-.627-1.402-1.402-1.402h-1.051v-.175c0-.772.628-1.402 1.402-1.402h23.659a1.403 1.403 0 0 1 1.402 1.401zm-26.814 5.915h-5.608v-2.936h5.608v2.936zm-103.748 2.979v-8.894c0-.772.628-1.402 1.402-1.402h23.659c.774 0 1.402.63 1.402 1.402v.175h-1.052c-.775 0-1.402.627-1.402 1.402v5.739c0 .775.627 1.402 1.402 1.402h1.052v.175c0 .772-.628 1.402-1.402 1.402H38.56a1.402 1.402 0 0 1-1.402-1.401zm26.813-5.914h5.608v2.936h-5.608v-2.936zm15.247 1.971c0 1.884-1.533 3.417-3.417 3.417s-3.417-1.533-3.417-3.417v-1.008c0-1.884 1.533-3.417 3.417-3.417s3.417 1.533 3.417 3.417v1.008z"/></svg>