<svg xmlns="http://www.w3.org/2000/svg" viewBox="0 0 512 512"><path fill="#f5f5f5" d="M0 0h512v512H0z"/><path fill="#ff4b55" d="M256 0h256v256H256z"/><g fill="#4173cd"><path d="M0 256h256v256H0zM131.4 90.349l8.416 25.234 26.6.206c3.444.027 4.872 4.422 2.101 6.467l-21.398 15.802 8.024 25.361c1.039 3.283-2.7 6-5.501 3.997L128 151.949l-21.641 15.468c-2.802 2.003-6.54-.714-5.501-3.997l8.024-25.361-21.398-15.802c-2.77-2.046-1.342-6.441 2.101-6.467l26.6-.206 8.416-25.234c1.088-3.268 5.71-3.268 6.799-.001z"/></g><path fill="#ff4b55" d="M387.4 346.349l8.416 25.234 26.6.206c3.444.027 4.872 4.422 2.101 6.467l-21.398 15.802 8.024 25.361c1.039 3.283-2.7 6-5.501 3.997L384 407.949l-21.641 15.468c-2.802 2.003-6.54-.714-5.501-3.997l8.024-25.361-21.398-15.802c-2.77-2.046-1.342-6.441 2.101-6.467l26.6-.206 8.416-25.234c1.088-3.268 5.71-3.268 6.799-.001z"/></svg>