<svg xmlns="http://www.w3.org/2000/svg" viewBox="0 0 512 512"><g fill="#ff4b55"><path d="M0 377.26h512V512H0zM0 0h512v134.74H0z"/></g><path fill="#f5f5f5" d="M0 134.74h512v242.53H0z"/><path fill="#ffb955" d="M344.824 221.594l-85.529 34.912c-.034-.087-.074-.165-.114-.248l82.601-41.367a96.01 96.01 0 00-11.837-18.192l-71.213 58.893c-.072-.089-.112-.202-.191-.284l65.28-65.345a96.317 96.317 0 00-15.337-12.445l-50.542 77.363c-.114-.077-.218-.167-.341-.23L298.895 172a95.175 95.175 0 00-21.101-7.613l-20.986 90.002c-.267-.064-.521-.163-.808-.163s-.541.099-.808.163l-20.986-90.002A95.175 95.175 0 00213.105 172l41.294 82.651c-.124.064-.227.154-.341.23l-50.542-77.363a96.372 96.372 0 00-15.337 12.445l65.28 65.345c-.08.082-.12.194-.191.284l-71.213-58.893a96.06 96.06 0 00-11.837 18.192l82.601 41.367c-.04.083-.081.161-.114.248l-85.529-34.912a95.188 95.188 0 00-5.678 19.895l91.056 15.765c-.012.079-.04.152-.047.233l-91.912-9.575a97.111 97.111 0 00-.503 9.864c0 5.759.536 11.39 1.509 16.87L256 264.88l94.399 9.765a96.374 96.374 0 001.509-16.87c0-3.331-.171-6.621-.503-9.864l-91.912 9.575c-.007-.081-.035-.154-.047-.233l91.056-15.765a95.075 95.075 0 00-5.678-19.894z"/><g fill="#4173cd"><path d="M163.306 282.429a94.95 94.95 0 002.265 7.317h180.858a94.814 94.814 0 002.265-7.317c-8.861-1.145-9.961-6.892-20.754-6.892-11.984 0-11.984 7.104-23.967 7.104s-11.984-7.104-23.968-7.104c-11.987 0-11.987 7.104-23.974 7.104-11.98 0-11.98-7.104-23.961-7.104-11.991 0-11.991 7.104-23.982 7.104-11.999 0-11.999-7.104-23.998-7.104-10.808 0-11.908 5.748-20.784 6.892zM325.115 300.402c-11.535-.002-11.537-7.104-23.075-7.104-11.54 0-11.54 7.104-23.08 7.104s-11.54-7.104-23.08-7.104c-11.543 0-11.543 7.104-23.086 7.104-11.537 0-11.537-7.104-23.074-7.104-11.547 0-11.547 7.104-23.094 7.104-10.245 0-11.423-5.574-19.607-6.841a95.538 95.538 0 006.957 13.945H338.024a95.648 95.648 0 006.971-13.98c-8.429 1.185-9.529 6.874-19.88 6.876zM334.287 313.145c-2.233-1.17-4.878-2.086-9.011-2.086-11.54 0-11.54 7.104-23.08 7.104s-11.54-7.104-23.08-7.104c-11.543 0-11.543 7.104-23.086 7.104-11.537 0-11.537-7.104-23.074-7.104-11.547 0-11.547 7.104-23.094 7.104-11.555 0-11.555-7.104-23.109-7.104-4.147 0-6.798.92-9.036 2.093a96.414 96.414 0 0010.154 12.116h136.257a96.433 96.433 0 0010.159-12.123zM315.1 333.282c-3.487-2.021-6.291-4.463-13.061-4.463-11.54 0-11.54 7.104-23.08 7.104s-11.54-7.104-23.08-7.104c-11.543 0-11.543 7.104-23.086 7.104-11.537 0-11.537-7.104-23.074-7.104-6.681 0-9.501 2.376-12.924 4.38a95.916 95.916 0 0015.284 9.828h87.842a95.923 95.923 0 0015.179-9.745zM232.957 346.58c-3.782 0-6.317.767-8.433 1.792a95.708 95.708 0 0031.477 5.312h.018c-11.525-.005-11.53-7.104-23.062-7.104zM256.086 353.682a95.716 95.716 0 0031.432-5.324c-2.109-1.018-4.638-1.778-8.401-1.778-11.524 0-11.547 7.078-23.031 7.102z"/></g><g fill="#ff4b55"><path d="M268.616 245.633l-30.392-8.784a4.011 4.011 0 01-2.908-3.806c-.14-11.254-.629-50.882-.629-56.967 0-7.104 7.104-17.761 21.313-17.761h11.203c1.061 0 1.38 1.443.405 1.861-5.131 2.2-11.608 6.783-11.608 15.9 0 10.825 10.308 15.464 15.218 17.06a3.656 3.656 0 012.543 3.483v45.144c0 2.682-2.57 4.614-5.145 3.87zM241.809 285.389c1.114-.675 2.435.452 1.934 1.654-2.975 7.142-10.265 20.463-23.265 20.463-17.761 0-21.313-14.209-21.313-24.865v-75.346a2.8 2.8 0 012.801-2.801h5.054a2.8 2.8 0 012.801 2.801v71.794c.001 9.604 20.199 13.438 31.988 6.3zM268.7 285.389c-1.114-.675-2.435.452-1.934 1.654 2.975 7.142 10.265 20.463 23.265 20.463 17.761 0 21.313-14.209 21.313-24.865v-75.346a2.8 2.8 0 00-2.801-2.801h-5.054a2.8 2.8 0 00-2.801 2.801v71.794c-.001 9.604-20.198 13.438-31.988 6.3z"/></g><g fill="#aa4650"><path d="M294.056 273.761h-76.111a1.018 1.018 0 01-1.018-1.018v-1.516c0-.562.456-1.018 1.018-1.018h76.111c.562 0 1.018.456 1.018 1.018v1.516c0 .562-.456 1.018-1.018 1.018zM224.474 260.352l3.846-5.129a1.775 1.775 0 10-2.841-2.13l-1.497 1.996v-1.378c0-.982-.794-1.776-1.776-1.776s-1.776.794-1.776 1.776v1.249l-1.4-1.866a1.776 1.776 0 10-2.841 2.13l3.846 5.129-3.846 5.129a1.775 1.775 0 102.841 2.13l3.224-4.299 3.224 4.299a1.773 1.773 0 002.485.357c.786-.59.945-1.703.356-2.487l-3.845-5.13zM257.627 260.352l3.846-5.129a1.775 1.775 0 10-2.841-2.13l-1.497 1.996v-1.378c0-.982-.794-1.776-1.776-1.776s-1.776.794-1.776 1.776v1.249l-1.4-1.866a1.776 1.776 0 10-2.841 2.13l3.846 5.129-3.846 5.129a1.775 1.775 0 102.841 2.13l3.224-4.299 3.224 4.299a1.773 1.773 0 002.485.357c.786-.59.945-1.703.356-2.487l-3.845-5.13zM241.05 260.352l3.846-5.129a1.775 1.775 0 10-2.841-2.13l-1.497 1.996v-1.378c0-.982-.794-1.776-1.776-1.776s-1.776.794-1.776 1.776v1.249l-1.4-1.866a1.776 1.776 0 10-2.841 2.13l3.846 5.129-3.846 5.129a1.775 1.775 0 102.841 2.13l3.224-4.299 3.224 4.299a1.773 1.773 0 002.485.357c.786-.59.945-1.703.356-2.487l-3.845-5.13zM274.204 260.352l3.846-5.129a1.775 1.775 0 10-2.841-2.13l-1.497 1.996v-1.378c0-.982-.794-1.776-1.776-1.776s-1.776.794-1.776 1.776v1.249l-1.4-1.866a1.776 1.776 0 10-2.841 2.13l3.846 5.129-3.846 5.129a1.775 1.775 0 102.841 2.13l3.224-4.299 3.224 4.299a1.773 1.773 0 002.485.357c.786-.59.945-1.703.356-2.487l-3.845-5.13zM290.781 260.352l3.846-5.129a1.775 1.775 0 10-2.841-2.13l-1.497 1.996v-1.378c0-.982-.794-1.776-1.776-1.776s-1.776.794-1.776 1.776v1.249l-1.4-1.866a1.776 1.776 0 10-2.841 2.13l3.846 5.129-3.846 5.129a1.775 1.775 0 102.841 2.13l3.224-4.299 3.224 4.299a1.773 1.773 0 002.485.357c.786-.59.945-1.703.356-2.487l-3.845-5.13zM221.195 284.731c2.627 1.149 18.059 1.313 21.999-2.791s3.119-5.91 3.119-5.91l-18.716.164-6.402 8.537zM290.055 284.731c-2.627 1.149-18.059 1.313-21.999-2.791-3.94-4.104-3.119-5.91-3.119-5.91l18.716.164 6.402 8.537z"/></g></svg>