<svg xmlns="http://www.w3.org/2000/svg" x="0" y="0" enable-background="new 0 0 512.002 512.002" version="1.1" viewBox="0 0 512.002 512.002" xml:space="preserve"><path fill="#F5F5F5" d="M.001 0H239.321V512H.001z"/><path fill="#873250" d="M512.001 0H130.99c.356 0 .71.053 1.05.158l81.484 24.898c3.394 1.036 3.391 5.842-.003 6.877l-70.722 21.533c-3.395 1.035-3.397 5.839-.003 6.877l70.729 21.615c3.394 1.036 3.391 5.842-.003 6.875l-70.723 21.535c-3.395 1.035-3.397 5.839-.003 6.877l70.729 21.615c3.394 1.036 3.391 5.842-.003 6.875l-70.701 21.525c-3.397 1.036-3.397 5.844 0 6.878l70.701 21.526c3.395 1.035 3.397 5.839.003 6.877l-70.729 21.615c-3.394 1.038-3.391 5.844.003 6.877l70.723 21.533c3.395 1.033 3.397 5.839.003 6.877l-70.729 21.615c-3.394 1.038-3.391 5.842.003 6.877l70.723 21.533c3.395 1.033 3.397 5.839.003 6.875l-70.729 21.615c-3.394 1.038-3.391 5.844.003 6.877l70.722 21.535c3.395 1.033 3.397 5.839.003 6.875l-70.729 21.613c-3.394 1.038-3.391 5.842.003 6.877l70.702 21.53c3.396 1.033 3.396 5.842 0 6.875l-70.702 21.53c-3.395 1.033-3.397 5.839-.003 6.875l70.729 21.615c3.394 1.036 3.391 5.842-.003 6.875l-81.484 24.811a3.57 3.57 0 0 1-1.047.156h381.011V0z"/></svg>