<svg xmlns="http://www.w3.org/2000/svg" x="0" y="0" enable-background="new 0 0 512 512" version="1.1" viewBox="0 0 512 512" xml:space="preserve"><g fill="#4173CD"><path d="M3.286 1.641H511.996V256.00100000000003H3.286z"/><path d="M3.286 255.998H512v240.97c0 7.393-5.993 13.388-13.388 13.388H3.286c-7.393 0 0-5.993 0-13.388v-240.97z"/></g><path fill="#FFE15A" d="M3.286 255.998H511.996V383.178H3.286z"/><path fill="#73AF00" d="M3.286 383.178H511.996V510.358H3.286z"/><g fill="#FFE15A"><path d="m430.429 137.891 54.797-9.071-54.797-9.071 47.155-29.351-54.099 12.59 32.333-45.162-45.162 32.333 12.589-54.099-29.351 47.155-9.071-54.797-9.071 54.797L346.4 36.059l12.589 54.099-45.162-32.333 32.333 45.162-54.099-12.59 47.155 29.351-54.797 9.071 54.797 9.071-47.154 29.351 54.098-12.589-32.332 45.162 45.162-32.333-12.589 54.098 29.351-47.154 9.071 54.797 9.071-54.797 29.351 47.154-12.589-54.098 45.162 32.333-32.332-45.162 54.098 12.589-47.155-29.35zm-45.607 24.396c-18.484 0-33.468-14.984-33.468-33.468s14.984-33.468 33.468-33.468 33.468 14.984 33.468 33.468-14.985 33.468-33.468 33.468z"/><circle cx="384.82" cy="128.818" r="25.1"/></g></svg>