<svg xmlns="http://www.w3.org/2000/svg" x="0" y="0" enable-background="new 0 0 512 512" version="1.1" viewBox="0 0 512 512" xml:space="preserve"><path fill="#41479B" d="M0 0H512V512H0z"/><path fill="#73AF00" d="M0 512 512 512 512 13.474z"/><path fill="#FFE15A" d="M512 0 487.834 0 0 487.834 0 512 24.166 512 512 24.166z"/><g fill="#F5F5F5"><path d="m62.983 41.744-6.133 18.39-19.385.15c-1.859.014-2.63 2.387-1.134 3.491l15.595 11.516-5.847 18.483c-.561 1.772 1.457 3.239 2.97 2.158L64.82 84.659l15.77 11.273c1.512 1.081 3.53-.385 2.97-2.158l-5.847-18.483 15.595-11.516c1.495-1.104.725-3.477-1.134-3.491l-19.385-.15-6.133-18.39c-.59-1.764-3.085-1.764-3.673 0zM210.654 41.744l-6.133 18.39-19.385.15c-1.859.014-2.63 2.387-1.134 3.491l15.595 11.516-5.847 18.483c-.561 1.772 1.457 3.239 2.97 2.158l15.771-11.273 15.771 11.273c1.512 1.081 3.53-.385 2.97-2.158l-5.848-18.483 15.595-11.516c1.495-1.104.725-3.477-1.134-3.491l-19.385-.15-6.133-18.39c-.59-1.764-3.084-1.764-3.673 0zM136.819 107.543l-6.133 18.39-19.385.15c-1.859.014-2.63 2.387-1.134 3.491l15.595 11.516-5.847 18.483c-.561 1.772 1.457 3.239 2.97 2.158l15.771-11.273 15.771 11.273c1.512 1.081 3.53-.385 2.97-2.158l-5.848-18.483 15.595-11.516c1.495-1.104.725-3.477-1.134-3.491l-19.385-.15-6.133-18.39c-.591-1.764-3.085-1.764-3.673 0zM62.983 173.342l-6.133 18.39-19.385.15c-1.859.014-2.63 2.387-1.134 3.491l15.595 11.516-5.847 18.483c-.561 1.772 1.457 3.239 2.97 2.158l15.771-11.273 15.77 11.273c1.512 1.081 3.53-.385 2.97-2.158l-5.847-18.483 15.595-11.516c1.495-1.104.725-3.477-1.134-3.491l-19.385-.15-6.133-18.39c-.59-1.763-3.085-1.763-3.673 0zM210.654 173.342l-6.133 18.39-19.385.15c-1.859.014-2.63 2.387-1.134 3.491l15.595 11.516-5.847 18.483c-.561 1.772 1.457 3.239 2.97 2.158l15.771-11.273 15.771 11.273c1.512 1.081 3.53-.385 2.97-2.158l-5.848-18.483 15.595-11.516c1.495-1.104.725-3.477-1.134-3.491l-19.385-.15-6.133-18.39c-.59-1.763-3.084-1.763-3.673 0z"/></g></svg>