<svg xmlns="http://www.w3.org/2000/svg" x="0" y="0" enable-background="new 0 0 512 512" version="1.1" viewBox="0 0 512 512" xml:space="preserve"><path fill="#FF4B55" d="M0 .5H512V256.5H0z"/><g fill="#F5F5F5"><path d="M0 256.5H512V511.5H0z"/><path d="M86.577 121.683c0-43.383 31.833-79.342 73.398-85.994 2.257-.361 2.359-3.466.132-3.979-10.29-2.367-21.22-3.04-32.57-1.494-44.832 6.106-79.485 44.902-80.119 90.143-.723 51.657 40.923 93.721 92.337 93.721 6.998 0 13.795-.818 20.333-2.321 2.224-.511 2.113-3.624-.141-3.984-41.551-6.649-73.37-42.542-73.37-86.092z"/><path d="m160.658 144.896-3.905 11.71-12.344.096c-1.598.012-2.261 2.052-.975 3.001l9.93 7.333-3.724 11.769c-.482 1.524 1.253 2.785 2.553 1.854l10.042-7.178 10.042 7.178c1.3.929 3.035-.331 2.553-1.854l-3.724-11.769 9.93-7.333c1.285-.949.623-2.989-.975-3.001l-12.344-.096-3.905-11.71c-.505-1.516-2.649-1.516-3.154 0zM221.673 144.896l-3.905 11.71-12.344.096c-1.598.012-2.261 2.052-.975 3.001l9.93 7.333-3.724 11.769c-.482 1.524 1.253 2.785 2.553 1.854l10.042-7.178 10.042 7.178c1.3.929 3.035-.331 2.553-1.854l-3.724-11.769 9.93-7.333c1.285-.949.623-2.989-.975-3.001l-12.344-.096-3.905-11.71c-.504-1.516-2.648-1.516-3.154 0zM191.44 50.738l-3.905 11.71-12.344.096c-1.598.012-2.261 2.052-.975 3.001l9.93 7.333-3.724 11.769c-.482 1.524 1.253 2.785 2.553 1.854l10.042-7.178 10.042 7.178c1.3.929 3.035-.331 2.553-1.854l-3.724-11.769 9.93-7.333c1.285-.949.623-2.989-.975-3.001l-12.344-.096-3.905-11.71c-.504-1.516-2.649-1.516-3.154 0zM142.793 86.811l-3.905 11.71-12.344.096c-1.598.012-2.261 2.052-.975 3.001l9.93 7.333-3.724 11.769c-.482 1.524 1.253 2.785 2.553 1.854l10.042-7.178 10.042 7.178c1.3.929 3.035-.331 2.553-1.854l-3.724-11.769 9.93-7.333c1.285-.949.623-2.989-.975-3.001l-12.344-.096-3.905-11.71c-.504-1.516-2.648-1.516-3.154 0zM239.676 86.811l-3.905 11.71-12.344.096c-1.598.012-2.261 2.052-.975 3.001l9.93 7.333-3.724 11.769c-.482 1.524 1.253 2.785 2.553 1.854l10.042-7.178 10.042 7.178c1.3.929 3.035-.331 2.553-1.854l-3.724-11.769 9.93-7.333c1.285-.949.623-2.989-.975-3.001l-12.344-.096-3.905-11.71c-.505-1.516-2.649-1.516-3.154 0z"/></g></svg>