<svg xmlns="http://www.w3.org/2000/svg" x="0" y="0" enable-background="new 0 0 512 512" version="1.1" viewBox="0 0 512 512" xml:space="preserve"><path fill="#73AF00" d="M0 0H512V512H0z"/><path fill="#FFE15A" d="M0 121.26H512V390.73H0z"/><path fill="#FF4B55" d="m0 512 140.415-249.017c2.007-3.57 2.007-10.397 0-13.966L0 0v512z"/><g fill="#464655"><path d="m230.662 203.329 10.031 30.076 31.704.246c4.105.032 5.807 5.27 2.505 7.708l-25.504 18.834 9.563 30.228c1.238 3.914-3.218 7.151-6.557 4.764l-25.793-18.436-25.793 18.436c-3.339 2.387-7.795-.85-6.557-4.764l9.563-30.228-25.504-18.834c-3.302-2.438-1.6-7.677 2.505-7.708l31.704-.246 10.031-30.076c1.296-3.894 6.804-3.894 8.102 0zM377.019 203.329l10.031 30.076 31.704.246c4.105.032 5.807 5.27 2.505 7.708l-25.504 18.834 9.563 30.228c1.238 3.914-3.218 7.151-6.557 4.764l-25.793-18.436-25.793 18.436c-3.339 2.387-7.795-.85-6.557-4.764l9.563-30.228-25.504-18.834c-3.302-2.438-1.6-7.677 2.505-7.708l31.704-.246 10.031-30.076c1.295-3.894 6.803-3.894 8.102 0z"/></g></svg>