<svg xmlns="http://www.w3.org/2000/svg" x="0" y="0" enable-background="new 0 0 512 512" version="1.1" viewBox="0 0 512 512" xml:space="preserve"><path fill="#FF4B55" d="M0 0H512V170.09H0z"/><path fill="#464655" d="M0 341.91H512V512H0z"/><path fill="#F5F5F5" d="M0 170.09H512V341.90999999999997H0z"/><g fill="#73AF00"><path d="m150.03 223.314 7.36 22.068 23.262.18c3.012.023 4.261 3.867 1.838 5.656l-18.714 13.819 7.017 22.179c.908 2.872-2.361 5.247-4.811 3.496l-18.926-13.527-18.926 13.527c-2.45 1.751-5.72-.624-4.811-3.496l7.017-22.179-18.714-13.819c-2.423-1.789-1.174-5.633 1.838-5.656l23.262-.18 7.36-22.068c.954-2.857 4.995-2.857 5.948 0zM367.917 223.314l7.36 22.068 23.262.18c3.012.023 4.261 3.867 1.838 5.656l-18.714 13.819 7.017 22.179c.908 2.872-2.361 5.247-4.811 3.496l-18.926-13.527-18.926 13.527c-2.45 1.751-5.72-.624-4.811-3.496l7.017-22.179-18.714-13.819c-2.423-1.789-1.174-5.633 1.838-5.656l23.262-.18 7.36-22.068c.954-2.857 4.995-2.857 5.948 0z"/></g></svg>