<svg xmlns="http://www.w3.org/2000/svg" x="0" y="0" enable-background="new 0 0 512 512" version="1.1" viewBox="0 0 512 512" xml:space="preserve"><path fill="#FF4B55" d="M0 0H512V512H0z"/><path fill="#F5F5F5" d="M257.529 121.263c74.359 0 134.629 60.433 134.629 134.737 0 74.519-60.27 134.737-134.629 134.737-74.519 0-134.844-60.218-134.844-134.737 0-74.304 60.325-134.737 134.844-134.737"/><g fill="#FF4B55"><path d="M282.012 331.502c-41.71 0-75.542-33.831-75.542-75.493 0-41.561 33.832-75.392 75.542-75.392 14.187 0 27.444 3.975 38.776 10.839 1.698 1.028 3.483-1.195 2.069-2.588-17-16.749-40.278-27.125-65.992-27.125-52.201 0-94.467 42.266-94.467 94.266 0 52.1 42.266 94.365 94.467 94.365 25.7 0 48.968-10.366 65.965-27.112 1.414-1.393-.371-3.616-2.069-2.588-11.325 6.859-24.572 10.828-38.749 10.828z"/><path d="m275.11 203.169 20.825 28.276 33.495-10.55c4.336-1.366 7.916 3.574 5.268 7.27l-20.457 28.543 20.384 28.595c2.639 3.702-.953 8.633-5.286 7.256l-33.468-10.635-20.897 28.223c-2.705 3.654-8.505 1.761-8.535-2.785l-.227-35.116-33.299-11.153c-4.311-1.444-4.303-7.545.011-8.977l33.327-11.068.317-35.116c.041-4.546 5.846-6.423 8.542-2.763z"/></g></svg>