<svg xmlns="http://www.w3.org/2000/svg" x="0" y="0" enable-background="new 0 0 512 512" version="1.1" viewBox="0 0 512 512" xml:space="preserve"><path fill="#82AFFF" d="M0 0H512V512H0z"/><g fill="#41479B"><path d="M94.316 0 0 0 0 19.977 94.316 81.77z"/><path d="M0 68.299 0 94.316 39.71 94.316z"/><path d="M0 161.684 0 187.701 39.71 161.684z"/><path d="M256 19.977 256 0 161.684 0 161.684 81.77z"/><path d="M256 187.701 256 161.684 216.29 161.684z"/><path d="M161.684 174.23 161.684 256 256 256 256 236.023z"/><path d="M256 94.316 256 68.299 216.29 94.316z"/><path d="M0 236.023 0 256 94.316 256 94.316 174.23z"/></g><g fill="#F5F5F5"><path d="M256 236.023 256 216.059 172.232 161.684 196.98 161.684 256 199.995 256 187.701 216.29 161.684 256 161.684 256 148.21 148.211 148.21 148.211 256 161.684 256 161.684 174.23z"/><path d="M0 148.21 0 161.684 39.71 161.684 0 187.701 0 206.602 69.197 161.684 93.945 161.684 0 222.666 0 236.023 94.316 174.23 94.316 256 107.789 256 107.789 148.21z"/><path d="M107.789 0 94.316 0 94.316 81.77 0 19.977 0 41.839 80.842 94.316 56.094 94.316 0 57.904 0 68.299 39.71 94.316 0 94.316 0 107.79 107.789 107.79z"/><path d="M256 107.79 256 94.316 216.29 94.316 256 68.299 256 49.157 186.432 94.316 161.684 94.316 256 33.093 256 19.977 161.684 81.77 161.684 0 148.211 0 148.211 107.79z"/></g><g fill="#FF4B55"><path d="M256 148.21 256 107.79 148.211 107.79 148.211 0 107.789 0 107.789 107.79 0 107.79 0 148.21 107.789 148.21 107.789 256 148.211 256 148.211 148.21z"/><path d="M69.197 161.684 0 206.602 0 222.666 93.945 161.684z"/><path d="M172.232 161.684 256 216.059 256 199.995 196.98 161.684z"/><path d="M80.842 94.316 0 41.839 0 57.904 56.094 94.316z"/><path d="M186.432 94.316 256 49.157 256 33.093 161.684 94.316z"/></g><g fill="#FFE15A"><path d="m203.959 415.958-4.726 14.17-14.936.116c-1.432.011-2.026 1.839-.874 2.69l12.016 8.873-4.505 14.241c-.432 1.366 1.123 2.495 2.288 1.662l12.152-8.686 12.152 8.686c1.165.833 2.72-.297 2.288-1.662l-4.505-14.241 12.016-8.873c1.152-.851.558-2.679-.874-2.69l-14.936-.116-4.726-14.17c-.455-1.358-2.377-1.358-2.83 0zM434.028 305.614l-4.726 14.17-14.936.116c-1.432.011-2.026 1.839-.874 2.69l12.016 8.873-4.505 14.241c-.432 1.366 1.123 2.495 2.288 1.662l12.152-8.686 12.152 8.686c1.165.833 2.72-.297 2.288-1.662l-4.505-14.241 12.016-8.873c1.152-.851.558-2.679-.874-2.69l-14.936-.116-4.726-14.17c-.455-1.359-2.377-1.359-2.83 0zM434.028 186.441l-4.726 14.17-14.936.116c-1.432.011-2.026 1.839-.874 2.69l12.016 8.873-4.505 14.241c-.432 1.366 1.123 2.495 2.288 1.662l12.152-8.686 12.152 8.686c1.165.833 2.72-.297 2.288-1.662l-4.505-14.241 12.016-8.873c1.152-.851.558-2.679-.874-2.69l-14.936-.116-4.726-14.17c-.455-1.359-2.377-1.359-2.83 0zM263.104 341.412l4.665 14.19-11.915 9.008c-1.143.864-.528 2.685.904 2.68l14.937-.052 4.885 14.115c.468 1.354 2.39 1.332 2.828-.032l4.566-14.222 14.934-.284c1.432-.027 2.005-1.862.844-2.7l-12.115-8.737 4.345-14.291c.417-1.37-1.151-2.483-2.307-1.637l-12.053 8.822-12.249-8.548c-1.174-.82-2.716.327-2.269 1.688zM262.001 402.653l4.665 14.189-11.915 9.008c-1.143.864-.528 2.685.904 2.68l14.937-.052 4.885 14.115c.468 1.354 2.39 1.332 2.828-.032l4.566-14.222 14.934-.284c1.432-.027 2.005-1.862.844-2.7l-12.115-8.737 4.345-14.291c.417-1.37-1.151-2.483-2.307-1.637l-12.053 8.822-12.249-8.548c-1.175-.819-2.717.329-2.269 1.689zM326.552 387.205l4.665 14.189-11.915 9.008c-1.143.864-.528 2.685.904 2.68l14.937-.052 4.885 14.115c.468 1.354 2.39 1.332 2.828-.032l4.566-14.222 14.934-.284c1.432-.027 2.005-1.862.844-2.7l-12.115-8.737 4.345-14.291c.417-1.37-1.151-2.483-2.307-1.637l-12.053 8.822-12.249-8.548c-1.174-.819-2.716.328-2.269 1.689zM325.449 253.688l4.665 14.189-11.915 9.008c-1.143.864-.528 2.685.904 2.68l14.937-.052 4.885 14.115c.468 1.354 2.39 1.332 2.828-.032l4.566-14.222 14.934-.284c1.432-.027 2.005-1.862.844-2.7l-12.115-8.737 4.345-14.291c.417-1.37-1.151-2.483-2.307-1.637l-12.053 8.822L327.718 252c-1.174-.82-2.717.327-2.269 1.688zM380.07 235.481l4.665 14.189-11.915 9.008c-1.143.864-.528 2.685.904 2.68l14.937-.052 4.885 14.115c.468 1.354 2.39 1.332 2.828-.032l4.566-14.222 14.934-.284c1.432-.027 2.005-1.862.844-2.7l-12.115-8.737 4.345-14.291c.417-1.37-1.151-2.483-2.307-1.637l-12.053 8.822-12.249-8.548c-1.175-.819-2.717.328-2.269 1.689z"/></g></svg>