<svg xmlns="http://www.w3.org/2000/svg" viewBox="0 0 512 512"><path fill="#82afff" d="M0 0h512v512H0z"/><g fill="#41479b"><path d="M94.316 0H0v19.977L94.316 81.77zM0 68.299v26.017h39.71zM0 161.684v26.017l39.71-26.017zM256 19.977V0h-94.316v81.77zM256 187.701v-26.017h-39.71zM161.684 174.23V256H256v-19.977zM256 94.316V68.299l-39.71 26.017zM0 236.023V256h94.316v-81.77z"/></g><g fill="#f5f5f5"><path d="M256 236.023v-19.964l-83.768-54.375h24.748L256 199.995v-12.294l-39.71-26.017H256V148.21H148.211V256h13.473v-81.77zM0 148.21v13.474h39.71L0 187.701v18.901l69.197-44.918h24.748L0 222.666v13.357l94.316-61.793V256h13.473V148.21zM107.789 0H94.316v81.77L0 19.977v21.862l80.842 52.477H56.094L0 57.904v10.395l39.71 26.017H0v13.474h107.789zM256 107.79V94.316h-39.71L256 68.299V49.157l-69.568 45.159h-24.748L256 33.093V19.977L161.684 81.77V0h-13.473v107.79z"/></g><g fill="#ff4b55"><path d="M256 148.21v-40.42H148.211V0h-40.422v107.79H0v40.42h107.789V256h40.422V148.21z"/><path d="M69.197 161.684L0 206.602v16.064l93.945-60.982zM172.232 161.684L256 216.059v-16.064l-59.02-38.311zM80.842 94.316L0 41.839v16.065l56.094 36.412zM186.432 94.316L256 49.157V33.093l-94.316 61.223z"/></g><g fill="#ffe15a"><path d="M203.959 415.958l-4.726 14.17-14.936.116c-1.432.011-2.026 1.839-.874 2.69l12.016 8.873-4.505 14.241c-.432 1.366 1.123 2.495 2.288 1.662l12.152-8.686 12.152 8.686c1.165.833 2.72-.297 2.288-1.662l-4.505-14.241 12.016-8.873c1.152-.851.558-2.679-.874-2.69l-14.936-.116-4.726-14.17c-.455-1.358-2.377-1.358-2.83 0zM434.028 305.614l-4.726 14.17-14.936.116c-1.432.011-2.026 1.839-.874 2.69l12.016 8.873-4.505 14.241c-.432 1.366 1.123 2.495 2.288 1.662l12.152-8.686 12.152 8.686c1.165.833 2.72-.297 2.288-1.662l-4.505-14.241 12.016-8.873c1.152-.851.558-2.679-.874-2.69l-14.936-.116-4.726-14.17c-.455-1.359-2.377-1.359-2.83 0zM434.028 186.441l-4.726 14.17-14.936.116c-1.432.011-2.026 1.839-.874 2.69l12.016 8.873-4.505 14.241c-.432 1.366 1.123 2.495 2.288 1.662l12.152-8.686 12.152 8.686c1.165.833 2.72-.297 2.288-1.662l-4.505-14.241 12.016-8.873c1.152-.851.558-2.679-.874-2.69l-14.936-.116-4.726-14.17c-.455-1.359-2.377-1.359-2.83 0zM263.104 341.412l4.665 14.19-11.915 9.008c-1.143.864-.528 2.685.904 2.68l14.937-.052 4.885 14.115c.468 1.354 2.39 1.332 2.828-.032l4.566-14.222 14.934-.284c1.432-.027 2.005-1.862.844-2.7l-12.115-8.737 4.345-14.291c.417-1.37-1.151-2.483-2.307-1.637l-12.053 8.822-12.249-8.548c-1.174-.82-2.716.327-2.269 1.688zM262.001 402.653l4.665 14.189-11.915 9.008c-1.143.864-.528 2.685.904 2.68l14.937-.052 4.885 14.115c.468 1.354 2.39 1.332 2.828-.032l4.566-14.222 14.934-.284c1.432-.027 2.005-1.862.844-2.7l-12.115-8.737 4.345-14.291c.417-1.37-1.151-2.483-2.307-1.637l-12.053 8.822-12.249-8.548c-1.175-.819-2.717.329-2.269 1.689zM326.552 387.205l4.665 14.189-11.915 9.008c-1.143.864-.528 2.685.904 2.68l14.937-.052 4.885 14.115c.468 1.354 2.39 1.332 2.828-.032l4.566-14.222 14.934-.284c1.432-.027 2.005-1.862.844-2.7l-12.115-8.737 4.345-14.291c.417-1.37-1.151-2.483-2.307-1.637l-12.053 8.822-12.249-8.548c-1.174-.819-2.716.328-2.269 1.689zM325.449 253.688l4.665 14.189-11.915 9.008c-1.143.864-.528 2.685.904 2.68l14.937-.052 4.885 14.115c.468 1.354 2.39 1.332 2.828-.032l4.566-14.222 14.934-.284c1.432-.027 2.005-1.862.844-2.7l-12.115-8.737 4.345-14.291c.417-1.37-1.151-2.483-2.307-1.637l-12.053 8.822L327.718 252c-1.174-.82-2.717.327-2.269 1.688zM380.07 235.481l4.665 14.189-11.915 9.008c-1.143.864-.528 2.685.904 2.68l14.937-.052 4.885 14.115c.468 1.354 2.39 1.332 2.828-.032l4.566-14.222 14.934-.284c1.432-.027 2.005-1.862.844-2.7l-12.115-8.737 4.345-14.291c.417-1.37-1.151-2.483-2.307-1.637l-12.053 8.822-12.249-8.548c-1.175-.819-2.717.328-2.269 1.689z"/></g></svg>