<svg xmlns="http://www.w3.org/2000/svg" viewBox="0 0 512 512"><path fill="#464655" d="M0 0h512v85.33H0z"/><path fill="#ffe15a" d="M0 85.33h512v85.33H0z"/><path fill="#ff4b55" d="M0 170.67h512V256H0z"/><path fill="#464655" d="M0 256h512v85.33H0z"/><path fill="#ffe15a" d="M0 341.33h512v85.33H0z"/><path fill="#ff4b55" d="M0 426.67h512V512H0z"/><circle cx="256" cy="256" r="80.84" fill="#f5f5f5"/><path fill="#ff4b55" d="M260.876 206.78l7.964-3.185c1.154-.462 1.712-1.785 1.201-2.917-1.786-3.96-6.571-12.153-15.665-12.399-5.759-.156-10.064 1.142-12.494 2.144a2.197 2.197 0 00-1.062 3.148l4.806 8.21 15.25 4.999z"/><path fill="#ffe15a" d="M254.375 188.278c-.662-.018-1.26.021-1.883.039l-.867 12.713 4.625 2.563 10.004-9.051c-2.635-3.189-6.497-6.119-11.879-6.264z"/><path fill="#464655" d="M288.629 281.538l-36.004-42.005c0-8.694 3.142-15.793 4.877-19.057 4.956-2.213 8.151-7.663 6.822-13.679-.967-4.375-4.498-7.946-8.866-8.945-7.859-1.797-14.834 4.125-14.834 11.677 0 .284.064.551.084.83-7.766 2.048-9.21 4.546-9.21 4.546s5.09-1.354 9.508-2.511c.089.36.207.708.327 1.055l-8.71 2.957 9.512-1.158a12.17 12.17 0 004.513 4.649c-7.109 5.727-18.025 16.489-18.025 28.638 0 11.109 8.229 18.511 18.591 23.433 3.622 1.721 6.953 3.992 9.691 6.922l.102.109.902 13.791h-20.285c-7.501 0-9.564 4.876-9.564 12.939l3.563-5.063 3 5.626.375-6.376 3.188 4.125s-.033-5.388 4.032-6.094c2.156-.375 9.628-.844 15.972-.844l1.344 20.551c-8.606-.041-18.348 4.014-18.348 4.014 3-.563 10.314.563 10.314.563l-1.219 3.563c8.438-4.594 23.909-4.688 23.909-4.688s-3.375-2.302-11.251-3.203l.182-20.8h12.381l1.875-4.876s-6.389-8.474-6.389-12.964c9.905 1.88 17.641 2.275 17.641 2.275zm-25.47 11.251l.062-7.135c3.717 3.983 6.655 7.135 6.655 7.135h-6.717z"/><path fill="#696e7d" d="M288.629 287.539c-3-12.001-16.149-15.69-30.003-24.003-15.002-9.001-6.001-24.003-6.001-24.003s50.255 14.752 54.006 36.004c2.921 16.551-9.001 27.003-15.002 30.003l2.156-6.001h-11.157s11.814-9.188 12.001-18.002l-6 6.002z"/><path fill="#fffcff" d="M306.631 275.538c-2.507-14.207-25.784-25.501-40.95-31.433-4.853-.54-9.118 7.618 4.196 16.431 17.911 11.857 18.752 27.003 18.752 27.003l6.001-6.001c-.188 8.813-12.001 18.002-12.001 18.002h11.157l-2.156 6.001c6-3 17.922-13.453 15.001-30.003z"/><path fill="#ff4b55" d="M306.631 275.538c-1.662-9.416-12.452-17.54-23.953-23.684-5.539-1.656-10.363-1.444-10.363-1.444 3.375 2.063 4.876 7.313 4.876 7.313-2.438-1.5-7.876-.75-7.876-.75 1.512 1.297 2.946 3.942 3.904 5.968 14.667 11.401 15.411 24.597 15.411 24.597l6.001-6.001c-.188 8.813-12.001 18.002-12.001 18.002h11.157l-2.156 6.001c5.999-2.999 17.921-13.452 15-30.002z"/><circle cx="247.75" cy="208.41" r="2" fill="#f5f5f5"/><path fill="#ff4b55" d="M242.499 216.031s-4.375 5.126-1.5 6.626 5.649-2.76 5.649-2.76l-4.149-3.866z"/></svg>