<svg xmlns="http://www.w3.org/2000/svg" x="0" y="0" enable-background="new 0 0 512 512" version="1.1" viewBox="0 0 512 512" xml:space="preserve"><path fill="#F5F5F5" d="M0 .235H511.53V511.765H0z"/><g fill="#FF4B55"><path d="M0 .235H512V39.575H0z"/><path d="M0 157.63H512V196.97H0z"/><path d="M0 78.935H512V118.275H0z"/><path d="M0 236.32H512V275.65999999999997H0z"/><path d="M0 393.71H512V433.04999999999995H0z"/><path d="M0 472.41H512V511.75H0z"/><path d="M0 315.02H512V354.36H0z"/></g><path fill="#41479B" d="M0 .235H275.44V275.675H0z"/><g fill="#F5F5F5"><path d="m35.219 20.814 2.122 6.364 6.708.052c.868.007 1.229 1.115.53 1.631l-5.396 3.985 2.023 6.396c.262.828-.68 1.513-1.388 1.008l-5.458-3.901-5.458 3.901c-.706.506-1.649-.18-1.388-1.008l2.023-6.396-5.396-3.985c-.698-.516-.339-1.624.53-1.631l6.708-.052 2.122-6.364c.278-.824 1.444-.824 1.718 0zM35.219 73.902l2.122 6.364 6.708.052c.868.007 1.229 1.115.53 1.631l-5.396 3.985 2.023 6.396c.262.828-.68 1.513-1.388 1.008l-5.458-3.901-5.458 3.901c-.706.506-1.649-.18-1.388-1.008l2.023-6.396-5.396-3.985c-.698-.516-.339-1.624.53-1.631l6.708-.052 2.122-6.364c.278-.825 1.444-.825 1.718 0zM35.219 132.78l2.122 6.364 6.708.052c.868.007 1.229 1.115.53 1.632l-5.396 3.985 2.023 6.396c.262.828-.68 1.513-1.388 1.008l-5.458-3.901-5.458 3.901c-.706.506-1.649-.18-1.388-1.008l2.023-6.396-5.396-3.985c-.698-.516-.339-1.625.53-1.632l6.708-.052 2.122-6.364c.278-.824 1.444-.824 1.718 0zM35.219 186.876l2.122 6.364 6.708.052c.868.007 1.229 1.115.53 1.631l-5.396 3.985 2.023 6.396c.262.828-.68 1.513-1.388 1.008l-5.458-3.901-5.458 3.901c-.706.506-1.649-.18-1.388-1.008l2.023-6.396-5.396-3.985c-.698-.516-.339-1.624.53-1.631l6.708-.052 2.122-6.364c.278-.824 1.444-.824 1.718 0zM35.219 236.102l2.122 6.364 6.708.052c.868.007 1.229 1.115.53 1.631l-5.396 3.985 2.023 6.396c.262.828-.68 1.513-1.388 1.008l-5.458-3.901-5.458 3.901c-.706.506-1.649-.18-1.388-1.008l2.023-6.396-5.396-3.985c-.698-.516-.339-1.625.53-1.631l6.708-.052 2.122-6.364c.278-.824 1.444-.824 1.718 0zM61.058 45.953l2.122 6.364 6.708.052c.868.007 1.229 1.115.53 1.631l-5.396 3.985 2.023 6.396c.262.828-.68 1.513-1.388 1.008l-5.458-3.901-5.458 3.901c-.706.506-1.649-.18-1.388-1.008l2.023-6.396L49.98 54c-.698-.516-.339-1.624.53-1.631l6.708-.052 2.122-6.364c.278-.824 1.444-.824 1.718 0zM61.058 104.832l2.122 6.364 6.708.052c.868.007 1.229 1.115.53 1.631l-5.396 3.985 2.023 6.396c.262.828-.68 1.513-1.388 1.008l-5.458-3.901-5.458 3.901c-.706.506-1.649-.18-1.388-1.008l2.023-6.396-5.396-3.985c-.698-.516-.339-1.624.53-1.631l6.708-.052 2.122-6.364c.278-.824 1.444-.824 1.718 0zM61.058 160.771l2.122 6.364 6.708.052c.868.007 1.229 1.115.53 1.631l-5.396 3.985 2.023 6.396c.262.828-.68 1.513-1.388 1.008l-5.458-3.901-5.458 3.901c-.706.506-1.649-.18-1.388-1.008l2.023-6.396-5.396-3.985c-.698-.516-.339-1.624.53-1.631l6.708-.052 2.122-6.364c.278-.823 1.444-.823 1.718 0zM61.058 211.007l2.122 6.364 6.708.052c.868.007 1.229 1.115.53 1.631l-5.396 3.985 2.023 6.396c.262.828-.68 1.513-1.388 1.008l-5.458-3.901-5.458 3.901c-.706.506-1.649-.18-1.388-1.008l2.023-6.396-5.396-3.985c-.698-.516-.339-1.624.53-1.631l6.708-.052 2.122-6.364c.278-.825 1.444-.825 1.718 0zM86.898 20.814l2.122 6.364 6.708.052c.868.007 1.229 1.115.53 1.631l-5.396 3.985 2.023 6.396c.262.828-.68 1.513-1.388 1.008l-5.458-3.901-5.458 3.901c-.706.506-1.649-.18-1.388-1.008l2.023-6.396-5.396-3.985c-.698-.516-.339-1.624.53-1.631l6.708-.052 2.122-6.364c.278-.824 1.443-.824 1.718 0zM86.898 73.902l2.122 6.364 6.708.052c.868.007 1.229 1.115.53 1.631l-5.396 3.985 2.023 6.396c.262.828-.68 1.513-1.388 1.008l-5.458-3.901-5.458 3.901c-.706.506-1.649-.18-1.388-1.008l2.023-6.396-5.396-3.985c-.698-.516-.339-1.624.53-1.631l6.708-.052 2.122-6.364c.278-.825 1.443-.825 1.718 0zM86.898 132.78l2.122 6.364 6.708.052c.868.007 1.229 1.115.53 1.632l-5.396 3.985 2.023 6.396c.262.828-.68 1.513-1.388 1.008l-5.458-3.901-5.458 3.901c-.706.506-1.649-.18-1.388-1.008l2.023-6.396-5.396-3.985c-.698-.516-.339-1.625.53-1.632l6.708-.052 2.122-6.364c.278-.824 1.443-.824 1.718 0zM86.898 186.876l2.122 6.364 6.708.052c.868.007 1.229 1.115.53 1.631l-5.396 3.985 2.023 6.396c.262.828-.68 1.513-1.388 1.008l-5.456-3.902-5.458 3.901c-.706.506-1.649-.18-1.388-1.008l2.023-6.396-5.396-3.985c-.698-.516-.339-1.624.53-1.631l6.708-.052 2.122-6.364c.276-.823 1.441-.823 1.716.001zM86.898 236.102l2.122 6.364 6.708.052c.868.007 1.229 1.115.53 1.631l-5.396 3.985 2.023 6.396c.262.828-.68 1.513-1.388 1.008l-5.458-3.901-5.458 3.901c-.706.506-1.649-.18-1.388-1.008l2.023-6.396-5.396-3.985c-.698-.516-.339-1.625.53-1.631l6.708-.052 2.122-6.364c.278-.824 1.443-.824 1.718 0zM112.737 45.953l2.122 6.364 6.708.052c.868.007 1.229 1.115.53 1.631l-5.396 3.985 2.023 6.396c.262.828-.68 1.513-1.388 1.008l-5.458-3.901-5.458 3.901c-.706.506-1.649-.18-1.388-1.008l2.023-6.396L101.659 54c-.698-.516-.339-1.624.53-1.631l6.711-.052 2.122-6.364c.275-.824 1.44-.824 1.715 0zM112.737 104.832l2.122 6.364 6.708.052c.868.007 1.229 1.115.53 1.631l-5.396 3.985 2.023 6.396c.262.828-.68 1.513-1.388 1.008l-5.458-3.901-5.458 3.901c-.706.506-1.649-.18-1.388-1.008l2.023-6.396-5.396-3.985c-.698-.516-.339-1.624.53-1.631l6.708-.052 2.122-6.364c.278-.824 1.443-.824 1.718 0zM112.737 160.771l2.122 6.364 6.708.052c.868.007 1.229 1.115.53 1.631l-5.396 3.985 2.023 6.396c.262.828-.68 1.513-1.388 1.008l-5.458-3.901-5.458 3.901c-.706.506-1.649-.18-1.388-1.008l2.023-6.396-5.396-3.985c-.698-.516-.339-1.624.53-1.631l6.708-.052 2.122-6.364c.278-.823 1.443-.823 1.718 0zM112.737 211.007l2.122 6.364 6.708.052c.868.007 1.229 1.115.53 1.631l-5.396 3.985 2.023 6.396c.262.828-.68 1.513-1.388 1.008l-5.458-3.901-5.458 3.901c-.706.506-1.649-.18-1.388-1.008l2.023-6.396-5.396-3.985c-.698-.516-.339-1.624.53-1.631l6.708-.052 2.122-6.364c.278-.825 1.443-.825 1.718 0zM138.576 20.814l2.122 6.364 6.708.052c.868.007 1.229 1.115.53 1.631l-5.396 3.985 2.023 6.396c.262.828-.68 1.513-1.388 1.008l-5.458-3.901-5.458 3.901c-.706.506-1.649-.18-1.388-1.008l2.023-6.396-5.396-3.985c-.698-.516-.339-1.624.53-1.631l6.708-.052 2.122-6.364c.278-.824 1.443-.824 1.718 0zM138.576 73.902l2.122 6.364 6.708.052c.868.007 1.229 1.115.53 1.631l-5.396 3.985 2.023 6.396c.262.828-.68 1.513-1.388 1.008l-5.458-3.901-5.458 3.901c-.706.506-1.649-.18-1.388-1.008l2.023-6.396-5.396-3.985c-.698-.516-.339-1.624.53-1.631l6.708-.052 2.122-6.364c.278-.825 1.443-.825 1.718 0zM138.576 132.78l2.122 6.364 6.708.052c.868.007 1.229 1.115.53 1.632l-5.396 3.985 2.023 6.396c.262.828-.68 1.513-1.388 1.008l-5.458-3.901-5.458 3.901c-.706.506-1.649-.18-1.388-1.008l2.023-6.396-5.396-3.985c-.698-.516-.339-1.625.53-1.632l6.708-.052 2.122-6.364c.278-.824 1.443-.824 1.718 0zM138.576 186.876l2.122 6.364 6.708.052c.868.007 1.229 1.115.53 1.631l-5.396 3.985 2.023 6.396c.262.828-.68 1.513-1.388 1.008l-5.458-3.901-5.458 3.901c-.706.506-1.649-.18-1.388-1.008l2.023-6.396-5.396-3.985c-.698-.516-.339-1.624.53-1.631l6.708-.052 2.122-6.364c.278-.824 1.443-.824 1.718 0zM138.576 236.102l2.122 6.364 6.708.052c.868.007 1.229 1.115.53 1.631l-5.396 3.985 2.023 6.396c.262.828-.68 1.513-1.388 1.008l-5.458-3.901-5.458 3.901c-.706.506-1.649-.18-1.388-1.008l2.023-6.396-5.396-3.985c-.698-.516-.339-1.625.53-1.631l6.708-.052 2.122-6.364c.278-.824 1.443-.824 1.718 0zM164.415 45.953l2.122 6.364 6.708.052c.868.007 1.229 1.115.53 1.631l-5.396 3.985 2.023 6.396c.262.828-.68 1.513-1.388 1.008l-5.458-3.901-5.458 3.901c-.706.506-1.649-.18-1.388-1.008l2.023-6.396L153.337 54c-.698-.516-.339-1.624.529-1.631l6.708-.052 2.122-6.364c.279-.824 1.444-.824 1.719 0zM164.415 104.832l2.122 6.364 6.708.052c.868.007 1.229 1.115.53 1.631l-5.396 3.985 2.023 6.396c.262.828-.68 1.513-1.388 1.008l-5.458-3.901-5.458 3.901c-.706.506-1.649-.18-1.388-1.008l2.023-6.396-5.396-3.985c-.698-.516-.339-1.624.529-1.631l6.708-.052 2.122-6.364c.279-.824 1.444-.824 1.719 0zM164.415 160.771l2.122 6.364 6.708.052c.868.007 1.229 1.115.53 1.631l-5.396 3.985 2.023 6.396c.262.828-.68 1.513-1.388 1.008l-5.458-3.901-5.458 3.901c-.706.506-1.649-.18-1.388-1.008l2.023-6.396-5.396-3.985c-.698-.516-.339-1.624.529-1.631l6.708-.052 2.122-6.364c.279-.823 1.444-.823 1.719 0zM164.415 211.007l2.122 6.364 6.708.052c.868.007 1.229 1.115.53 1.631l-5.396 3.985 2.023 6.396c.262.828-.68 1.513-1.388 1.008l-5.458-3.901-5.458 3.901c-.706.506-1.649-.18-1.388-1.008l2.023-6.396-5.396-3.985c-.698-.516-.339-1.624.529-1.631l6.708-.052 2.122-6.364c.279-.825 1.444-.825 1.719 0zM190.254 20.814l2.122 6.364 6.708.052c.868.007 1.229 1.115.53 1.631l-5.396 3.985 2.023 6.396c.262.828-.68 1.513-1.388 1.008l-5.458-3.901-5.458 3.901c-.706.506-1.649-.18-1.388-1.008l2.023-6.396-5.396-3.985c-.698-.516-.339-1.624.53-1.631l6.708-.052 2.122-6.364c.278-.824 1.443-.824 1.718 0zM190.254 73.902l2.122 6.364 6.708.052c.868.007 1.229 1.115.53 1.631l-5.396 3.985 2.023 6.396c.262.828-.68 1.513-1.388 1.008l-5.458-3.901-5.458 3.901c-.706.506-1.649-.18-1.388-1.008l2.023-6.396-5.396-3.985c-.698-.516-.339-1.624.53-1.631l6.708-.052 2.122-6.364c.278-.825 1.443-.825 1.718 0zM190.254 132.78l2.122 6.364 6.708.052c.868.007 1.229 1.115.53 1.632l-5.396 3.985 2.023 6.396c.262.828-.68 1.513-1.388 1.008l-5.458-3.901-5.458 3.901c-.706.506-1.649-.18-1.388-1.008l2.023-6.396-5.396-3.985c-.698-.516-.339-1.625.53-1.632l6.708-.052 2.122-6.364c.278-.824 1.443-.824 1.718 0zM190.254 186.876l2.122 6.364 6.708.052c.868.007 1.229 1.115.53 1.631l-5.396 3.985 2.023 6.396c.262.828-.68 1.513-1.388 1.008l-5.458-3.901-5.458 3.901c-.706.506-1.649-.18-1.388-1.008l2.023-6.396-5.396-3.985c-.698-.516-.339-1.624.53-1.631l6.708-.052 2.122-6.364c.278-.824 1.443-.824 1.718 0zM190.254 236.102l2.122 6.364 6.708.052c.868.007 1.229 1.115.53 1.631l-5.396 3.985 2.023 6.396c.262.828-.68 1.513-1.388 1.008l-5.458-3.901-5.458 3.901c-.706.506-1.649-.18-1.388-1.008l2.023-6.396-5.396-3.985c-.698-.516-.339-1.625.53-1.631l6.708-.052 2.122-6.364c.278-.824 1.443-.824 1.718 0zM216.094 45.953l2.122 6.364 6.708.052c.868.007 1.229 1.115.53 1.631l-5.396 3.985 2.023 6.396c.262.828-.68 1.513-1.388 1.008l-5.458-3.901-5.458 3.901c-.706.506-1.649-.18-1.388-1.008l2.023-6.396L205.016 54c-.698-.516-.339-1.624.53-1.631l6.708-.052 2.122-6.364c.277-.824 1.443-.824 1.718 0zM216.094 104.832l2.122 6.364 6.708.052c.868.007 1.229 1.115.53 1.631l-5.396 3.985 2.023 6.396c.262.828-.68 1.513-1.388 1.008l-5.458-3.901-5.458 3.901c-.706.506-1.649-.18-1.388-1.008l2.023-6.396-5.396-3.985c-.698-.516-.339-1.624.53-1.631l6.708-.052 2.122-6.364c.277-.824 1.443-.824 1.718 0zM216.094 160.771l2.122 6.364 6.708.052c.868.007 1.229 1.115.53 1.631l-5.396 3.985 2.023 6.396c.262.828-.68 1.513-1.388 1.008l-5.458-3.901-5.458 3.901c-.706.506-1.649-.18-1.388-1.008l2.023-6.396-5.396-3.985c-.698-.516-.339-1.624.53-1.631l6.708-.052 2.122-6.364c.277-.823 1.443-.823 1.718 0zM216.094 211.007l2.122 6.364 6.708.052c.868.007 1.229 1.115.53 1.631l-5.396 3.985 2.023 6.396c.262.828-.68 1.513-1.388 1.008l-5.458-3.901-5.458 3.901c-.706.506-1.649-.18-1.388-1.008l2.023-6.396-5.396-3.985c-.698-.516-.339-1.624.53-1.631l6.708-.052 2.122-6.364c.277-.825 1.443-.825 1.718 0zM241.933 20.814l2.122 6.364 6.708.052c.868.007 1.229 1.115.53 1.631l-5.396 3.985 2.023 6.396c.262.828-.68 1.513-1.388 1.008l-5.458-3.901-5.458 3.901c-.706.506-1.649-.18-1.388-1.008l2.023-6.396-5.396-3.985c-.698-.516-.339-1.624.53-1.631l6.708-.052 2.122-6.364c.277-.824 1.443-.824 1.718 0zM241.933 73.902l2.122 6.364 6.708.052c.868.007 1.229 1.115.53 1.631l-5.396 3.985 2.023 6.396c.262.828-.68 1.513-1.388 1.008l-5.458-3.901-5.458 3.901c-.706.506-1.649-.18-1.388-1.008l2.023-6.396-5.396-3.985c-.698-.516-.339-1.624.53-1.631l6.708-.052 2.122-6.364c.277-.825 1.443-.825 1.718 0zM241.933 132.78l2.122 6.364 6.708.052c.868.007 1.229 1.115.53 1.632l-5.396 3.985 2.023 6.396c.262.828-.68 1.513-1.388 1.008l-5.458-3.901-5.458 3.901c-.706.506-1.649-.18-1.388-1.008l2.023-6.396-5.396-3.985c-.698-.516-.339-1.625.53-1.632l6.708-.052 2.122-6.364c.277-.824 1.443-.824 1.718 0zM241.933 186.876l2.122 6.364 6.708.052c.868.007 1.229 1.115.53 1.631l-5.396 3.985 2.023 6.396c.262.828-.68 1.513-1.388 1.008l-5.458-3.901-5.458 3.901c-.706.506-1.649-.18-1.388-1.008l2.023-6.396-5.396-3.985c-.698-.516-.339-1.624.53-1.631l6.708-.052 2.122-6.364c.277-.824 1.443-.824 1.718 0zM241.933 236.102l2.122 6.364 6.708.052c.868.007 1.229 1.115.53 1.631l-5.396 3.985 2.023 6.396c.262.828-.68 1.513-1.388 1.008l-5.458-3.901-5.458 3.901c-.706.506-1.649-.18-1.388-1.008l2.023-6.396-5.396-3.985c-.698-.516-.339-1.625.53-1.631l6.708-.052 2.122-6.364c.277-.824 1.443-.824 1.718 0z"/></g></svg>