<svg xmlns="http://www.w3.org/2000/svg" x="0" y="0" enable-background="new 0 0 512 512" version="1.1" viewBox="0 0 512 512" xml:space="preserve"><path fill="#F5F5F5" d="M0 0H512V512H0z"/><path fill="#4173CD" d="M194.24 56.889H512V113.778H194.24z"/><path fill="#F5F5F5" d="M0 113.78H512V170.669H0z"/><path fill="#4173CD" d="M194.24 170.67H512V227.559H194.24z"/><path fill="#F5F5F5" d="M0 227.56H512V284.449H0z"/><path fill="#4173CD" d="M0 284.44H512V341.329H0z"/><path fill="#F5F5F5" d="M0 341.33H512V398.219H0z"/><path fill="#4173CD" d="M0 398.22H512V455.10900000000004H0z"/><path fill="#FFE15A" d="M97.646 35.665 120.187 139.961 155.456 125.352z"/><path fill="#FFCD5A" d="M97.646 35.665 137.821 132.656 120.187 139.961z"/><path fill="#FFE15A" d="M185.301 247.282 162.761 142.987 127.491 157.596z"/><path fill="#FFCD5A" d="M185.301 247.282 145.126 150.291 162.761 142.987z"/><path fill="#FFE15A" d="M247.282 97.646 142.987 120.187 157.596 155.456z"/><path fill="#FFCD5A" d="M247.282 97.646 150.291 137.821 142.987 120.187z"/><path fill="#FFE15A" d="M35.665 185.301 139.961 162.761 125.352 127.491z"/><path fill="#FFCD5A" d="M35.665 185.301 132.656 145.126 139.961 162.761z"/><path fill="#FFE15A" d="M185.301 35.665 127.491 125.352 162.761 139.961z"/><path fill="#FFCD5A" d="M185.301 35.665 145.126 132.656 127.491 125.352z"/><path fill="#FFE15A" d="M97.646 247.282 155.456 157.596 120.187 142.987z"/><path fill="#FFCD5A" d="M97.646 247.282 137.821 150.291 155.456 157.596z"/><path fill="#FFE15A" d="M247.282 185.301 157.596 127.491 142.987 162.761z"/><path fill="#FFCD5A" d="M247.282 185.301 150.291 145.126 157.596 127.491z"/><path fill="#FFE15A" d="M35.665 97.646 125.352 155.456 139.961 120.187z"/><path fill="#FFCD5A" d="M35.665 97.646 132.656 137.821 125.352 155.456z"/><path fill="#F5F5F5" d="M0 0H283V284H0z"/><path fill="#FFE15A" d="M141.474 26.947 122.386 131.93 160.561 131.93z"/><path fill="#FFCD5A" d="M141.474 26.947 141.474 131.93 122.386 131.93z"/><path fill="#FFE15A" d="M141.474 256 160.561 151.018 122.386 151.018z"/><path fill="#FFCD5A" d="M141.474 256 141.474 151.018 160.561 151.018z"/><path fill="#FFE15A" d="M256 141.474 151.018 122.386 151.018 160.561z"/><path fill="#FFCD5A" d="M256 141.474 151.018 141.474 151.018 122.386z"/><path fill="#FFE15A" d="M26.947 141.474 131.93 160.561 131.93 122.386z"/><path fill="#FFCD5A" d="M26.947 141.474 131.93 141.474 131.93 160.561z"/><path fill="#FFE15A" d="M222.456 60.491 134.725 121.228 161.719 148.222z"/><path fill="#FFCD5A" d="M222.456 60.491 148.222 134.725 134.725 121.228z"/><path fill="#FFE15A" d="M60.491 222.456 148.222 161.719 121.228 134.725z"/><path fill="#FFCD5A" d="M60.491 222.456 134.725 148.222 148.222 161.719z"/><path fill="#FFE15A" d="M222.456 222.456 161.719 134.725 134.725 161.719z"/><path fill="#FFCD5A" d="M222.456 222.456 148.222 148.222 161.719 134.725z"/><path fill="#FFE15A" d="M60.491 60.491 121.228 148.222 148.222 121.228z"/><path fill="#FFCD5A" d="M60.491 60.491 134.725 134.725 121.228 148.222z"/><circle cx="141.47" cy="141.47" r="38.17" fill="#FFE15A"/></svg>