<svg xmlns="http://www.w3.org/2000/svg" viewBox="0 0 512 512"><path fill="#f5f5f5" d="M0 0h512v512H0z"/><path fill="#4173cd" d="M194.24 56.889H512v56.889H194.24z"/><path fill="#f5f5f5" d="M0 113.78h512v56.889H0z"/><path fill="#4173cd" d="M194.24 170.67H512v56.889H194.24z"/><path fill="#f5f5f5" d="M0 227.56h512v56.889H0z"/><path fill="#4173cd" d="M0 284.44h512v56.889H0z"/><path fill="#f5f5f5" d="M0 341.33h512v56.889H0z"/><path fill="#4173cd" d="M0 398.22h512v56.889H0z"/><path fill="#ffe15a" d="M97.646 35.665l22.541 104.296 35.269-14.609z"/><path fill="#ffcd5a" d="M97.646 35.665l40.175 96.991-17.634 7.305z"/><path fill="#ffe15a" d="M185.301 247.282l-22.54-104.295-35.27 14.609z"/><path fill="#ffcd5a" d="M185.301 247.282l-40.175-96.991 17.635-7.304z"/><path fill="#ffe15a" d="M247.282 97.646l-104.295 22.541 14.609 35.269z"/><path fill="#ffcd5a" d="M247.282 97.646l-96.991 40.175-7.304-17.634z"/><path fill="#ffe15a" d="M35.665 185.301l104.296-22.54-14.609-35.27z"/><path fill="#ffcd5a" d="M35.665 185.301l96.991-40.175 7.305 17.635z"/><path fill="#ffe15a" d="M185.301 35.665l-57.81 89.687 35.27 14.609z"/><path fill="#ffcd5a" d="M185.301 35.665l-40.175 96.991-17.635-7.304z"/><path fill="#ffe15a" d="M97.646 247.282l57.81-89.686-35.269-14.609z"/><path fill="#ffcd5a" d="M97.646 247.282l40.175-96.991 17.635 7.305z"/><path fill="#ffe15a" d="M247.282 185.301l-89.686-57.81-14.609 35.27z"/><path fill="#ffcd5a" d="M247.282 185.301l-96.991-40.175 7.305-17.635z"/><path fill="#ffe15a" d="M35.665 97.646l89.687 57.81 14.609-35.269z"/><path fill="#ffcd5a" d="M35.665 97.646l96.991 40.175-7.304 17.635z"/><path fill="#f5f5f5" d="M0 0h283v284H0z"/><path fill="#ffe15a" d="M141.474 26.947L122.386 131.93h38.175z"/><path fill="#ffcd5a" d="M141.474 26.947V131.93h-19.088z"/><path fill="#ffe15a" d="M141.474 256l19.087-104.982h-38.175z"/><path fill="#ffcd5a" d="M141.474 256V151.018h19.087z"/><path fill="#ffe15a" d="M256 141.474l-104.982-19.088v38.175z"/><path fill="#ffcd5a" d="M256 141.474H151.018v-19.088z"/><path fill="#ffe15a" d="M26.947 141.474l104.983 19.087v-38.175z"/><path fill="#ffcd5a" d="M26.947 141.474H131.93v19.087z"/><path fill="#ffe15a" d="M222.456 60.491l-87.731 60.737 26.994 26.994z"/><path fill="#ffcd5a" d="M222.456 60.491l-74.234 74.234-13.497-13.497z"/><path fill="#ffe15a" d="M60.491 222.456l87.731-60.737-26.994-26.994z"/><path fill="#ffcd5a" d="M60.491 222.456l74.234-74.234 13.497 13.497z"/><path fill="#ffe15a" d="M222.456 222.456l-60.737-87.731-26.994 26.994z"/><path fill="#ffcd5a" d="M222.456 222.456l-74.234-74.234 13.497-13.497z"/><path fill="#ffe15a" d="M60.491 60.491l60.737 87.731 26.994-26.994z"/><path fill="#ffcd5a" d="M60.491 60.491l74.234 74.234-13.497 13.497z"/><circle cx="141.47" cy="141.47" r="38.17" fill="#ffe15a"/></svg>