<svg xmlns="http://www.w3.org/2000/svg" viewBox="0 0 512 512"><path fill="#82afff" d="M0 0h512v170.67H0z"/><path fill="#73af00" d="M0 341.33h512V512H0z"/><path fill="#f5f5f5" d="M0 170.67h512v170.67H0z"/><g fill="#ff4b55"><path d="M0 155.51h512v21.28H0zM0 335.21h512v21.28H0z"/></g><g fill="#f5f5f5"><path d="M121.184 127.898c-27.584 0-49.942-22.306-49.942-49.791 0-27.586 22.358-49.991 49.942-49.991l.315.002c1.623.022 2.193-2.136.762-2.903a59.23 59.23 0 00-28.494-7.056c-33.005.236-59.814 27.586-59.465 60.59.346 32.665 27.05 59.105 59.895 59.105a59.362 59.362 0 0028.109-7.061c1.427-.764.85-2.923-.768-2.898-.117.002-.235.003-.354.003zM160.292 114.129l-2.231 6.688-7.05.055c-.913.007-1.291 1.172-.557 1.714l5.672 4.188-2.127 6.722c-.275.87.716 1.59 1.458 1.059l5.736-4.1 5.736 4.1c.743.531 1.733-.189 1.458-1.059l-2.127-6.722 5.672-4.188c.734-.542.356-1.707-.557-1.714l-7.05-.055-2.231-6.688c-.288-.866-1.513-.866-1.802 0zM199.225 114.129l-2.231 6.688-7.05.055c-.913.007-1.291 1.172-.557 1.714l5.672 4.188-2.127 6.722c-.275.87.716 1.59 1.458 1.059l5.736-4.1 5.736 4.1c.743.531 1.733-.189 1.458-1.059l-2.127-6.722 5.672-4.188c.734-.542.356-1.707-.557-1.714l-7.05-.055-2.231-6.688c-.288-.866-1.513-.866-1.802 0zM278.225 114.129l-2.231 6.688-7.05.055c-.913.007-1.291 1.172-.557 1.714l5.672 4.188-2.127 6.722c-.275.87.716 1.59 1.458 1.059l5.736-4.1 5.736 4.1c.743.531 1.733-.189 1.458-1.059l-2.127-6.722 5.672-4.188c.734-.542.356-1.707-.557-1.714l-7.05-.055-2.231-6.688c-.288-.866-1.513-.866-1.802 0zM316.972 114.129l-2.231 6.688-7.05.055c-.913.007-1.291 1.172-.557 1.714l5.672 4.188-2.127 6.722c-.275.87.716 1.59 1.458 1.059l5.736-4.1 5.736 4.1c.743.531 1.733-.189 1.458-1.059l-2.127-6.722 5.672-4.188c.734-.542.356-1.707-.557-1.714l-7.05-.055-2.231-6.688c-.288-.866-1.513-.866-1.802 0zM199.225 67.77l-2.231 6.688-7.05.055c-.913.007-1.291 1.172-.557 1.714l5.672 4.188-2.127 6.722c-.275.87.716 1.59 1.458 1.059l5.736-4.1 5.736 4.1c.743.531 1.733-.189 1.458-1.059l-2.127-6.722 5.672-4.188c.734-.542.356-1.707-.557-1.714l-7.05-.055-2.231-6.688c-.288-.866-1.513-.866-1.802 0zM238.972 67.77l-2.231 6.688-7.05.055c-.913.007-1.291 1.172-.557 1.714l5.672 4.188-2.127 6.722c-.275.87.716 1.59 1.458 1.059l5.736-4.1 5.736 4.1c.743.531 1.733-.189 1.458-1.059l-2.127-6.722 5.672-4.188c.734-.542.356-1.707-.557-1.714l-7.05-.055-2.231-6.688c-.288-.866-1.513-.866-1.802 0zM278.225 67.77l-2.231 6.688-7.05.055c-.913.007-1.291 1.172-.557 1.714l5.672 4.188-2.127 6.722c-.275.87.716 1.59 1.458 1.059l5.736-4.1 5.736 4.1c.743.531 1.733-.189 1.458-1.059l-2.127-6.722 5.672-4.188c.734-.542.356-1.707-.557-1.714l-7.05-.055-2.231-6.688c-.288-.866-1.513-.866-1.802 0zM316.972 67.77l-2.231 6.688-7.05.055c-.913.007-1.291 1.172-.557 1.714l5.672 4.188-2.127 6.722c-.275.87.716 1.59 1.458 1.059l5.736-4.1 5.736 4.1c.743.531 1.733-.189 1.458-1.059l-2.127-6.722 5.672-4.188c.734-.542.356-1.707-.557-1.714l-7.05-.055-2.231-6.688c-.288-.866-1.513-.866-1.802 0zM238.972 114.129l-2.231 6.688-7.05.055c-.913.007-1.291 1.172-.557 1.714l5.672 4.188-2.127 6.722c-.275.87.716 1.59 1.458 1.059l5.736-4.1 5.736 4.1c.743.531 1.733-.189 1.458-1.059l-2.127-6.722 5.672-4.188c.734-.542.356-1.707-.557-1.714l-7.05-.055-2.231-6.688c-.288-.866-1.513-.866-1.802 0zM238.972 21.411l-2.231 6.688-7.05.055c-.913.007-1.291 1.172-.557 1.714l5.672 4.188-2.127 6.722c-.275.87.716 1.59 1.458 1.059l5.736-4.1 5.736 4.1c.743.531 1.733-.189 1.458-1.059l-2.127-6.722 5.672-4.188c.734-.542.356-1.707-.557-1.714l-7.05-.055-2.231-6.688c-.288-.865-1.513-.865-1.802 0z"/><path d="M278.225 114.129l-2.231 6.688-7.05.055c-.913.007-1.291 1.172-.557 1.714l5.672 4.188-2.127 6.722c-.275.87.716 1.59 1.458 1.059l5.736-4.1 5.736 4.1c.743.531 1.733-.189 1.458-1.059l-2.127-6.722 5.672-4.188c.734-.542.356-1.707-.557-1.714l-7.05-.055-2.231-6.688c-.288-.866-1.513-.866-1.802 0zM316.972 114.129l-2.231 6.688-7.05.055c-.913.007-1.291 1.172-.557 1.714l5.672 4.188-2.127 6.722c-.275.87.716 1.59 1.458 1.059l5.736-4.1 5.736 4.1c.743.531 1.733-.189 1.458-1.059l-2.127-6.722 5.672-4.188c.734-.542.356-1.707-.557-1.714l-7.05-.055-2.231-6.688c-.288-.866-1.513-.866-1.802 0zM278.225 21.411l-2.231 6.688-7.05.055c-.913.007-1.291 1.172-.557 1.714l5.672 4.188-2.127 6.722c-.275.87.716 1.59 1.458 1.059l5.736-4.1 5.736 4.1c.743.531 1.733-.189 1.458-1.059l-2.127-6.722 5.672-4.188c.734-.542.356-1.707-.557-1.714l-7.05-.055-2.231-6.688c-.288-.865-1.513-.865-1.802 0zM316.972 21.411l-2.231 6.688-7.05.055c-.913.007-1.291 1.172-.557 1.714l5.672 4.188-2.127 6.722c-.275.87.716 1.59 1.458 1.059l5.736-4.1 5.736 4.1c.743.531 1.733-.189 1.458-1.059l-2.127-6.722 5.672-4.188c.734-.542.356-1.707-.557-1.714l-7.05-.055-2.231-6.688c-.288-.865-1.513-.865-1.802 0z"/></g></svg>