<svg xmlns="http://www.w3.org/2000/svg" x="0" y="0" enable-background="new 0 0 512 512" version="1.1" viewBox="0 0 512 512" xml:space="preserve"><path fill="#F5F5F5" d="M256 0H512V512H256z"/><path fill="#FFE15A" d="M0 0H256V512H0z"/><g fill="#EBEBEB"><path d="m408.268 174.752-.587 1.173c1.895.97 2.978 2.075 2.978 3.249l-.294-5.83a2.547 2.547 0 0 1-2.097 1.408zM362.438 175.925l-.587-1.173a2.552 2.552 0 0 1-2.098-1.408l-.294 5.83c0-1.174 1.083-2.279 2.979-3.249zM362.019 169.666a2.56 2.56 0 0 1 2.56 2.56c0 .512-.188.962-.448 1.362l.674 1.348c1.932-.679 4.312-1.256 7.027-1.702l-.288-1.152c-1.058-.314-1.845-1.255-1.845-2.416a2.56 2.56 0 1 1 5.12 0c0 .721-.303 1.367-.783 1.833l.342 1.367a79.524 79.524 0 0 1 4.475-.425 6.343 6.343 0 0 1-.193-1.494c0-3.535 2.865-6.4 6.4-6.4s6.4 2.865 6.4 6.4c0 .517-.078 1.013-.193 1.494 1.553.105 3.048.247 4.475.425l.342-1.367a2.543 2.543 0 0 1-.783-1.833 2.56 2.56 0 1 1 5.12 0c0 1.16-.787 2.101-1.845 2.416l-.288 1.152c2.715.446 5.095 1.023 7.027 1.702l.674-1.348c-.259-.4-.448-.85-.448-1.362a2.56 2.56 0 0 1 2.56-2.56c.921 0 1.692.513 2.143 1.244l-.197-3.904c-2.527-2.87-12.746-5.019-24.986-5.019s-22.459 2.149-24.986 5.019l-.197 3.904c.449-.731 1.22-1.244 2.141-1.244z"/></g><path fill="#E6B432" d="M389.056 139.551a5.071 5.071 0 0 0 1.124-3.165c0-2.383-1.635-4.368-3.84-4.939v-3.133c.751-.446 1.28-1.23 1.28-2.168a2.56 2.56 0 1 0-5.12 0c0 .937.529 1.722 1.28 2.168v3.133c-2.205.571-3.84 2.556-3.84 4.939 0 1.201.431 2.291 1.124 3.165 1.302-.356 2.628-.605 3.996-.605s2.693.249 3.996.605z"/><path fill="#EBEBEB" d="m374.332 152.511-.227-.909c-1.058-.314-1.845-1.255-1.845-2.416a2.56 2.56 0 1 1 5.12 0c0 .721-.303 1.367-.783 1.833l.289 1.154a76.028 76.028 0 0 1 8.175-.427 3.84 3.84 0 1 1 0-7.68 3.84 3.84 0 0 1 0 7.68c2.908 0 5.669.154 8.175.427l.289-1.154a2.543 2.543 0 0 1-.783-1.833 2.56 2.56 0 1 1 5.12 0c0 1.16-.787 2.101-1.845 2.416l-.227.909c1.301.201 2.512.434 3.598.7l1.887-3.774c-3.265-5.06-7.483-8.59-12.216-9.885-1.302-.356-2.628-.605-3.996-.605s-2.694.248-3.996.605c-4.733 1.296-8.951 4.825-12.216 9.885l1.887 3.774a41.85 41.85 0 0 1 3.594-.7z"/><g fill="#E6B432"><path d="M382.499 362.137v-5.59c0-.599.084-1.175.214-1.734-.068-.044-.144-.075-.214-.116-.756-.44-1.623-.71-2.56-.71s-1.804.27-2.56.71c-1.524.887-2.56 2.519-2.56 4.41a5.09 5.09 0 0 0 1.435 3.541c1.098-.606 2.342-.981 3.685-.981.903-.001 1.756.184 2.56.47zM387.619 341.896c-1.524.887-2.56 2.519-2.56 4.41a5.09 5.09 0 0 0 1.435 3.541c1.098-.606 2.342-.981 3.685-.981s2.587.375 3.685.981a5.095 5.095 0 0 0 1.435-3.541c0-1.891-1.036-3.523-2.56-4.41-.756-.44-1.623-.71-2.56-.71s-1.804.271-2.56.71z"/></g><path fill="#FF4B57" d="M386.494 349.847c-1.88 1.038-3.283 2.817-3.781 4.965a7.622 7.622 0 0 0-.214 1.734v5.59c-.804-.286-1.658-.47-2.56-.47-1.343 0-2.587.375-3.685.981-2.37 1.307-3.995 3.801-3.995 6.699v10.24h15.36v-10.24c0-.903-.184-1.756-.47-2.56h10.71v-10.24c0-2.898-1.625-5.391-3.995-6.699-1.098-.606-2.342-.981-3.685-.981s-2.587.376-3.685.981z"/><g fill="#E6B432"><path d="m387.619 246.897 4.374 4.375 1.496-1.496c.355-.355.797-.539 1.253-.642l21.65-21.656 13.868 13.868 9.051-9.051-3.62-3.62-1.81 1.81-3.62-3.62 1.81-1.81-1.81-1.81 3.62-3.62 1.81 1.81 1.81-1.81 3.62 3.62-1.81 1.81 3.62 3.62 9.051-9.051-13.871-13.871 9.492-9.495a3.834 3.834 0 0 1-1.26-.837l-5.12-5.12a3.824 3.824 0 0 1-.849-1.297l-53.333 53.348c.341.435.577.958.577 1.554v2.991h.001zM381.747 262.134l-7.241-7.241-22.508 22.514a5.119 5.119 0 0 0 3.621 8.74c1.31 0 2.621-.5 3.621-1.5l17.592-17.597 4.915-4.916z"/></g><g fill="#D2D2D2"><path d="M311.865 288.705c.143-.402.235-.828.235-1.279a3.84 3.84 0 1 0-3.84 3.84c.451 0 .877-.092 1.279-.235.725-.824 1.501-1.6 2.326-2.326zM309.538 324.781a3.798 3.798 0 0 0-1.279-.235 3.84 3.84 0 1 0 3.84 3.84c0-.451-.092-.877-.235-1.279a25.788 25.788 0 0 1-2.326-2.326zM347.94 291.032c.402.143.828.235 1.279.235a3.84 3.84 0 1 0-3.84-3.84c0 .451.092.877.235 1.279a25.53 25.53 0 0 1 2.326 2.326zM345.379 328.386a3.84 3.84 0 0 0 3.84 3.84 3.815 3.815 0 0 0 2.932-1.387 57.838 57.838 0 0 1-6.726-2.903c-.018.15-.046.296-.046.45z"/></g><path fill="#E6B432" d="M340.033 324.679a2.538 2.538 0 0 1-.987-1.561 6.36 6.36 0 0 1-1.347.148c-3.04 0-5.581-2.135-6.23-4.983-.696.705-1.661 1.143-2.73 1.143s-2.034-.438-2.73-1.143c-.648 2.848-3.189 4.983-6.23 4.983-3.529 0-6.4-2.87-6.4-6.4 0-3.041 2.136-5.582 4.983-6.23a3.825 3.825 0 0 1-1.143-2.73c0-1.069.438-2.034 1.143-2.73-2.847-.648-4.983-3.188-4.983-6.23 0-3.53 2.871-6.4 6.4-6.4 3.04 0 5.581 2.135 6.23 4.983.696-.705 1.661-1.143 2.73-1.143s2.034.438 2.73 1.143c.648-2.848 3.189-4.983 6.23-4.983 3.529 0 6.4 2.87 6.4 6.4 0 3.041-2.136 5.582-4.983 6.23a3.825 3.825 0 0 1 1.143 2.73 3.823 3.823 0 0 1-1.143 2.73c2.847.648 4.983 3.188 4.983 6.23 0 1.35-.425 2.599-1.141 3.633.024.016.053.017.077.035 1.656 1.199 3.565 2.314 5.685 3.333a25.635 25.635 0 0 0 1.758-2.509 25.399 25.399 0 0 0 3.451-9.028c.252-1.44.409-2.913.409-4.424 0-6.467-2.43-12.364-6.399-16.875a25.788 25.788 0 0 0-2.326-2.326c-4.511-3.969-10.408-6.399-16.875-6.399s-12.364 2.43-16.875 6.399a25.788 25.788 0 0 0-2.326 2.326c-3.969 4.511-6.399 10.408-6.399 16.875s2.43 12.364 6.399 16.875a25.93 25.93 0 0 0 2.326 2.327c4.511 3.969 10.408 6.399 16.875 6.399a25.474 25.474 0 0 0 16.22-5.813c-1.782-.94-3.441-1.94-4.925-3.015zm8.497-21.952c.434 1.658.689 3.387.689 5.179s-.255 3.521-.689 5.179a11.496 11.496 0 0 0-3.679-5.179 11.485 11.485 0 0 0 3.679-5.179zm-14.612-14.612a11.496 11.496 0 0 0-5.179 3.679 11.488 11.488 0 0 0-5.179-3.679c1.658-.434 3.387-.689 5.179-.689s3.522.255 5.179.689zm-24.969 14.612a11.49 11.49 0 0 0 3.679 5.179 11.483 11.483 0 0 0-3.679 5.179 20.397 20.397 0 0 1-.689-5.179 20.308 20.308 0 0 1 .689-5.179zm14.611 24.97a11.496 11.496 0 0 0 5.179-3.679 11.488 11.488 0 0 0 5.179 3.679c-1.658.434-3.387.689-5.179.689s-3.521-.255-5.179-.689z"/><g fill="#F0C814"><path d="M324.899 307.906a3.84 3.84 0 1 0-7.68 0 3.84 3.84 0 0 0 7.68 0zM332.579 307.906a3.84 3.84 0 1 0 7.68 0 3.84 3.84 0 0 0-7.68 0zM328.739 304.066a3.84 3.84 0 1 0 0-7.68 3.84 3.84 0 0 0 0 7.68zM328.739 311.746a3.84 3.84 0 1 0 0 7.68 3.84 3.84 0 0 0 0-7.68z"/></g><g fill="#D2D2D2"><path d="M446.344 195.421a3.851 3.851 0 0 0 2.715 1.125c.983 0 1.965-.375 2.715-1.125 1.331-1.331 1.411-3.361.38-4.857l1.415-5.661c.2.05.393.123.609.123a2.56 2.56 0 1 0-2.56-2.56c0 .216.072.409.123.609l-5.661 1.415c-1.496-1.031-3.526-.95-4.857.38a3.836 3.836 0 0 0-.849 4.133c.188.472.467.915.849 1.297l5.121 5.121zM382.499 255.646v-11.74c0-.596.236-1.119.577-1.554l-53.333-53.348a3.824 3.824 0 0 1-.849 1.297l-5.12 5.12a3.834 3.834 0 0 1-1.26.837l9.492 9.495-13.871 13.871 9.051 9.051 3.62-3.62-1.81-1.81 3.62-3.62 1.81 1.81 1.81-1.81 3.62 3.62-1.81 1.81 1.81 1.81-3.62 3.62-1.81-1.81-3.62 3.62 9.051 9.051 13.868-13.868 21.65 21.656c.456.103.898.286 1.253.642l5.871 5.87zM388.372 262.134l4.914 4.915 17.592 17.597c1 1 2.31 1.5 3.621 1.5a5.119 5.119 0 0 0 3.621-8.74l-22.508-22.514-7.24 7.242z"/><path d="M387.619 254.146 387.619 255.646 391.994 251.272 387.619 246.897z"/><path d="M460.58 291.032c.402.143.828.235 1.279.235a3.84 3.84 0 1 0-3.84-3.84c0 .451.092.877.235 1.279a25.53 25.53 0 0 1 2.326 2.326zM461.859 324.546c-.451 0-.877.092-1.279.235a25.93 25.93 0 0 1-2.326 2.327 3.798 3.798 0 0 0-.235 1.279 3.84 3.84 0 1 0 7.68 0 3.84 3.84 0 0 0-3.84-3.841zM424.505 288.705c.143-.402.235-.828.235-1.279a3.84 3.84 0 1 0-3.84 3.84c.451 0 .877-.092 1.279-.235.725-.824 1.501-1.6 2.326-2.326zM420.899 332.226a3.84 3.84 0 0 0 3.84-3.84c0-.154-.028-.301-.045-.45a57.838 57.838 0 0 1-6.726 2.904 3.812 3.812 0 0 0 2.931 1.386z"/></g><path fill="#E6B432" d="M460.58 324.781c3.969-4.511 6.399-10.408 6.399-16.875s-2.43-12.364-6.399-16.875a25.788 25.788 0 0 0-2.326-2.326c-4.511-3.969-10.408-6.399-16.875-6.399s-12.364 2.43-16.875 6.399a25.788 25.788 0 0 0-2.326 2.326c-3.969 4.511-6.399 10.408-6.399 16.875 0 1.519.158 3 .413 4.447a25.401 25.401 0 0 0 3.447 9.004c.54.87 1.12 1.712 1.758 2.509 2.118-1.019 4.026-2.132 5.681-3.33.025-.018.056-.02.082-.037a6.356 6.356 0 0 1-1.141-3.633c0-3.041 2.136-5.582 4.983-6.23a3.825 3.825 0 0 1-1.143-2.73c0-1.069.438-2.034 1.143-2.73-2.847-.648-4.983-3.188-4.983-6.23 0-3.53 2.871-6.4 6.4-6.4 3.04 0 5.581 2.135 6.23 4.983.696-.705 1.661-1.143 2.73-1.143s2.034.438 2.73 1.143c.648-2.848 3.189-4.983 6.23-4.983 3.529 0 6.4 2.87 6.4 6.4 0 3.041-2.136 5.582-4.983 6.23a3.825 3.825 0 0 1 1.143 2.73 3.823 3.823 0 0 1-1.143 2.73c2.847.648 4.983 3.188 4.983 6.23 0 3.53-2.871 6.4-6.4 6.4-3.04 0-5.581-2.135-6.23-4.983-.696.705-1.661 1.143-2.73 1.143s-2.034-.438-2.73-1.143c-.648 2.848-3.189 4.983-6.23 4.983a6.39 6.39 0 0 1-1.35-.149 2.53 2.53 0 0 1-.988 1.564c-1.482 1.074-3.14 2.074-4.921 3.012a25.477 25.477 0 0 0 16.22 5.813c6.467 0 12.364-2.429 16.875-6.399.824-.725 1.6-1.501 2.325-2.326zm-38.991-11.696c-.434-1.658-.689-3.387-.689-5.179s.255-3.521.689-5.179a11.49 11.49 0 0 0 3.679 5.179 11.488 11.488 0 0 0-3.679 5.179zm19.79-21.29a11.488 11.488 0 0 0-5.179-3.679c1.658-.434 3.387-.689 5.179-.689s3.521.255 5.179.689a11.48 11.48 0 0 0-5.179 3.679zm19.791 10.932c.434 1.658.689 3.387.689 5.179s-.255 3.521-.689 5.179a11.496 11.496 0 0 0-3.679-5.179 11.485 11.485 0 0 0 3.679-5.179zm-24.97 24.97a11.496 11.496 0 0 0 5.179-3.679 11.488 11.488 0 0 0 5.179 3.679c-1.658.434-3.387.689-5.179.689s-3.521-.255-5.179-.689z"/><g fill="#F0C814"><path d="M445.219 307.906a3.84 3.84 0 1 0 7.68 0 3.84 3.84 0 0 0-7.68 0zM437.539 307.906a3.84 3.84 0 1 0-7.68 0 3.84 3.84 0 0 0 7.68 0zM441.379 304.066a3.84 3.84 0 1 0 0-7.68 3.84 3.84 0 0 0 0 7.68zM441.379 311.746a3.84 3.84 0 1 0 0 7.68 3.84 3.84 0 0 0 0-7.68z"/></g><path fill="#F7B518" d="M328.894 190.301c.382-.382.661-.825.849-1.297a3.836 3.836 0 0 0-.849-4.133c-1.331-1.331-3.361-1.411-4.857-.38l-5.661-1.415c.05-.2.123-.393.123-.609a2.56 2.56 0 1 0-2.56 2.56c.216 0 .409-.072.609-.123l1.415 5.661c-1.031 1.496-.95 3.526.38 4.857a3.828 3.828 0 0 0 4.17.837 3.834 3.834 0 0 0 1.26-.837l5.121-5.121z"/><path fill="#FF4B55" d="M430.081 324.681a2.53 2.53 0 0 0 .988-1.564 2.532 2.532 0 0 0-.416-2.011 2.55 2.55 0 0 0-3.493-.607c-.026.017-.057.019-.082.037-1.655 1.198-3.563 2.312-5.681 3.33-7.505 3.61-17.667 6.02-28.658 6.798v-35.958c11.173 15.258 22.054 23.457 26.9 26.651a25.401 25.401 0 0 1-3.447-9.004c-6.196-5.126-14.958-13.735-23.453-26.718v-17.394c.181-.4.367-.788.546-1.192l-4.914-4.915 7.241-7.241 1.496-1.496c1-1 1-2.62 0-3.62-.645-.645-1.539-.828-2.367-.642-.456.103-.898.286-1.253.642l-1.496 1.496-4.374 4.374v-11.74c0-.596-.236-1.119-.577-1.554-.469-.598-1.165-1.006-1.983-1.006s-1.514.408-1.983 1.006c-.341.435-.577.958-.577 1.554v11.74l-5.87-5.87c-.355-.355-.797-.539-1.253-.642-.828-.186-1.722-.003-2.367.642-1 1-1 2.62 0 3.62l1.496 1.496 7.241 7.241-4.914 4.915c.18.405.365.793.546 1.192v17.374c-8.487 12.956-17.25 21.575-23.449 26.715a25.38 25.38 0 0 1-3.451 9.028c4.847-3.195 15.727-11.394 26.9-26.651v35.958c-10.991-.778-21.152-3.187-28.658-6.798-2.12-1.019-4.029-2.134-5.685-3.333-.024-.018-.053-.019-.077-.035a2.553 2.553 0 0 0-3.498.605 2.526 2.526 0 0 0-.414 2.014c.125.604.448 1.17.987 1.561 1.484 1.075 3.143 2.076 4.926 3.015.154.082.309.163.466.243a57.838 57.838 0 0 0 6.726 2.903c7.269 2.631 15.932 4.351 25.228 4.966v18.891c.756-.44 1.623-.71 2.56-.71s1.804.27 2.56.71V336.03c.851.018 1.702.037 2.56.037s1.709-.019 2.56-.037v5.867c.756-.44 1.623-.71 2.56-.71s1.804.27 2.56.71v-6.091c9.297-.614 17.96-2.335 25.229-4.965a57.838 57.838 0 0 0 6.726-2.904 34 34 0 0 0 .465-.243c1.782-.939 3.44-1.939 4.923-3.013zm-45.022 6.265c-.857 0-1.709-.017-2.56-.037v-43.691a149.675 149.675 0 0 0 2.56-4.185 146.815 146.815 0 0 0 2.56 4.185v43.691c-.851.02-1.703.037-2.56.037z"/><g fill="#E6B432"><path d="M385.059 184.457c14.138 0 25.6 2.42 25.6 5.404v-10.687c0-1.174-1.083-2.279-2.978-3.249l.587-1.173a2.552 2.552 0 0 0 2.098-1.408c.173-.34.294-.708.294-1.118 0-.493-.176-.926-.417-1.316-.451-.73-1.222-1.244-2.143-1.244a2.56 2.56 0 0 0-2.56 2.56c0 .512.188.962.448 1.362l-.674 1.348c-1.932-.679-4.312-1.256-7.027-1.702l.288-1.152c1.058-.314 1.845-1.255 1.845-2.416a2.56 2.56 0 1 0-5.12 0c0 .721.303 1.367.783 1.833l-.342 1.367a79.524 79.524 0 0 0-4.475-.425c.116-.481.193-.977.193-1.494 0-3.535-2.865-6.4-6.4-6.4s-6.4 2.865-6.4 6.4c0 .517.078 1.013.193 1.494a79.613 79.613 0 0 0-4.475.425l-.342-1.367c.48-.465.783-1.111.783-1.833a2.56 2.56 0 1 0-5.12 0c0 1.16.787 2.101 1.845 2.416l.288 1.152c-2.715.446-5.095 1.023-7.027 1.702l-.674-1.348c.259-.4.448-.85.448-1.362a2.56 2.56 0 0 0-2.56-2.56c-.921 0-1.692.513-2.143 1.244-.241.39-.417.824-.417 1.316 0 .41.122.778.294 1.118a2.549 2.549 0 0 0 2.098 1.408l.587 1.173c-1.895.97-2.978 2.075-2.978 3.249v10.687c0-2.984 11.462-5.404 25.6-5.404zM359.459 190.146l.032-.013c-.008-.086-.032-.202-.032-.272v.285zM410.659 190.146v-.285c0 .07-.024.186-.032.272l.032.013z"/></g><path fill="#EBEBEB" d="M364.579 195.266c0 .512-.188.962-.448 1.362l.97 1.941c1.693-.839 4.008-1.561 6.775-2.115l-.333-1.333c-1.058-.314-1.845-1.255-1.845-2.416a2.56 2.56 0 1 1 5.12 0c0 .721-.303 1.367-.783 1.833l.369 1.477a70.066 70.066 0 0 1 8.094-.706v-2.32a3.817 3.817 0 0 1-1.28-2.843 3.84 3.84 0 1 1 7.68 0c0 1.133-.5 2.141-1.28 2.843v2.32a70.29 70.29 0 0 1 8.094.706l.369-1.477a2.543 2.543 0 0 1-.783-1.833 2.56 2.56 0 1 1 5.12 0c0 1.16-.787 2.101-1.845 2.416l-.333 1.333c2.768.553 5.082 1.275 6.775 2.115l.97-1.941c-.259-.4-.448-.85-.448-1.362a2.56 2.56 0 0 1 2.56-2.56c.613 0 1.152.245 1.593.603.57-1.399.873-2.51.935-3.176.008-.086.032-.202.032-.272 0-2.985-11.462-5.404-25.6-5.404s-25.6 2.42-25.6 5.404c0 .07.024.186.032.272.062.666.365 1.777.935 3.176.441-.359.98-.603 1.593-.603a2.56 2.56 0 0 1 2.562 2.56z"/><path fill="#E6B432" d="M359.459 195.266c0 1.354 1.061 2.435 2.392 2.526l1.105 2.21c-.6.587-.937 1.205-.937 1.847 0 .739.445 1.447 1.231 2.11l3.889 6.668c0-2.828 8.023-5.12 17.92-5.12s17.92 2.292 17.92 5.12l3.889-6.668c.786-.663 1.231-1.371 1.231-2.11 0-.642-.337-1.261-.937-1.847l1.105-2.21c1.331-.091 2.392-1.172 2.392-2.526 0-.801-.391-1.487-.967-1.957-.441-.359-.98-.603-1.593-.603a2.56 2.56 0 0 0-2.56 2.56c0 .512.188.962.448 1.362l-.97 1.941c-1.693-.839-4.008-1.561-6.775-2.115l.333-1.333c1.058-.314 1.845-1.255 1.845-2.416a2.56 2.56 0 1 0-5.12 0c0 .721.303 1.367.783 1.833l-.369 1.477a70.066 70.066 0 0 0-8.094-.706v-2.32a3.817 3.817 0 0 0 1.28-2.843 3.84 3.84 0 1 0-7.68 0c0 1.133.5 2.141 1.28 2.843v2.32a70.29 70.29 0 0 0-8.094.706l-.369-1.477c.48-.465.783-1.111.783-1.833a2.56 2.56 0 1 0-5.12 0c0 1.16.787 2.101 1.845 2.416l.333 1.333c-2.768.553-5.082 1.275-6.775 2.115l-.97-1.941c.259-.4.448-.85.448-1.362a2.56 2.56 0 0 0-2.56-2.56c-.613 0-1.152.245-1.593.603-.578.47-.969 1.156-.969 1.957z"/><ellipse cx="385.06" cy="210.63" fill="#EBEBEB" rx="17.92" ry="5.12"/><g fill="#E6B432"><path d="m410.046 167.005-4.506-10.139c0-.64-.491-1.251-1.35-1.816l3.64-7.279a2.56 2.56 0 1 0-4.58-2.29l-1.977 3.955-1.887 3.774a42.658 42.658 0 0 0-3.598-.7l.227-.909c1.058-.314 1.845-1.255 1.845-2.416a2.56 2.56 0 1 0-5.12 0c0 .721.303 1.367.783 1.833l-.289 1.154c-2.505-.273-5.267-.427-8.175-.427s-5.669.154-8.175.427l-.289-1.154c.48-.465.783-1.111.783-1.833a2.56 2.56 0 1 0-5.12 0c0 1.16.787 2.101 1.845 2.416l.227.909a42.658 42.658 0 0 0-3.598.7l-1.887-3.774-1.977-3.955a2.56 2.56 0 1 0-4.58 2.29l3.64 7.279c-.859.565-1.35 1.175-1.35 1.816l-4.506 10.139c2.527-2.87 12.746-5.019 24.986-5.019 12.241 0 22.46 2.149 24.988 5.019z"/><circle cx="385.06" cy="147.91" r="3.84"/></g></svg>