<svg xmlns="http://www.w3.org/2000/svg" x="0" y="0" enable-background="new 0 0 512 512" version="1.1" viewBox="0 0 512 512" xml:space="preserve"><path fill="#41479B" d="M0 0H512V512H0z"/><path fill="#73AF00" d="M369.608 240.539H292.35v140.883c0 31.812 77.258 63.624 77.258 63.624s77.258-31.812 77.258-63.624V240.539h-77.258z"/><path fill="#FF4B55" d="M324.376 348.037s-.434-1.496-.048-2.846-.607-2.591-.82-3.763c-.579-3.184 2.123-4.004 2.267-6.851 0 0 1.93 1.978 1.206 3.86s1.061 2.171.82 3.956-2.219 3.667-2.026 5.259l-1.399.385z"/><path fill="#FFE15A" d="M354.752 345.013c-1.578-1.974-4.347.152-6.373 1.698-.282.217-.52.382-.771.563l-7.476-11.04c.21-.315.361-.672.361-1.079a1.99 1.99 0 1 0-3.982 0c0 .407.152.764.361 1.079l-7.711 11.387H323.7s-.225 3.394 5.737 3.806a6.892 6.892 0 0 0 3.178 2.615c-.616.1-1.114.576-1.114 1.221v.797c0 .05.048.08.054.129h13.891c.006-.049.053-.079.053-.129v-.797c0-.653-.506-1.138-1.133-1.229 2.325-.935 3.958-3.111 4.233-5.696.216-.161.419-.307.653-.486 1.466-1.125 3.674-2.839 4.379-1.942.176.22.158.34.15.384-.08.521-1.193 1.269-2.088 1.87-1.408.945-2.863 1.926-2.977 3.316a.72.72 0 0 0 .655.777h.06c.37 0 .685-.284.715-.657.058-.705 1.328-1.558 2.349-2.243 1.302-.877 2.529-1.702 2.705-2.843.081-.52-.069-1.024-.448-1.501zm-12.777 2.609c-.411-1.57-1.382-3.078-2.595-3.622.642-.33 1.094-.981 1.094-1.752a1.99 1.99 0 1 0-3.982 0c0 .772.452 1.422 1.094 1.752-1.213.544-2.184 2.052-2.595 3.622h-4.097l7.156-10.567c.15.036.293.092.454.092s.304-.056.454-.092l7.156 10.567h-4.139z"/><path fill="#FFC8B9" d="M364.684 280.683s-7.196-2.13-10.415 23.054c0 0-17.61 22.392-18.178 23.717s-.047 10.841 1.846 10.083c1.894-.757 5.302-5.16 5.113-8.379s1.262-5.015 2.698-6.628c2.698-3.03 17.894-16.758 18.462-19.788.569-3.028.474-22.059.474-22.059z"/><g fill="#F5F5F5"><path d="M375.857 275.902s11.125-1.468 14.391 9.894c0 0-9.137 5.018-8 11.551 1.136 6.533-.142 36.357-.142 36.357-17.468 5.681-26.7-1.42-26.7-1.42s4.545-16.9 3.835-30.676c0 0-4.119-3.124-3.124-6.675.994-3.55 3.55-7.527 4.403-10.509s3.124-7.953 8.663-8.379 6.674-.143 6.674-.143z"/><path d="M358.625 328.97s-8.71 32.948-5.681 77.826c0 0 27.173 3.598 41.943-1.799 0 0-7.669-53.683-15.054-74.702l-21.208-1.325z"/></g><path fill="#FFC8B9" d="M363.738 256.495v13.65a2.714 2.714 0 0 0 2.714 2.714h.244a1.92 1.92 0 0 1 1.921 1.921v3.263s1.83 4.777 8.944-.813v-20.633l-13.823-.102z"/><path fill="#8C5A28" d="M362.128 253.7c-.441 1.104.024 4.095 2.746 3.882 3.399-.266 7.503-.284 8.426 3.479.858 3.499.284 12.237 4.071 12.805 3.787.568 8.081-1.948 8-9.468-.071-6.628-4.403-14.557-10.462-13.35 0 0-5.373-3.764-8.521.473.001.001-3.313-.188-4.26 2.179z"/><path fill="#FFC8B9" d="M390.248 285.796s3.876 25.537 3.693 27.646c-.189 2.178-13.729 23.102-12.971 25.374s1.515 5.302-2.651 6.438c-4.166 1.136-3.74-5.515-2.604-8.924 1.136-3.408 10.651-21.563 10.651-23.646s-5.397-15.527-4.071-20.829c1.325-5.302 7.953-6.059 7.953-6.059z"/><path fill="#FF4B55" d="M307.334 267.458s-.434-1.496-.048-2.846-.607-2.591-.82-3.763c-.579-3.184 2.123-4.004 2.267-6.851 0 0 1.93 1.978 1.206 3.86s1.061 2.171.82 3.956-2.219 3.667-2.026 5.259l-1.399.385z"/><path fill="#FFE15A" d="M337.71 264.435c-1.578-1.974-4.347.152-6.373 1.698-.282.217-.52.382-.771.563l-7.476-11.04c.21-.315.361-.672.361-1.079a1.99 1.99 0 1 0-3.982 0c0 .407.152.764.361 1.079l-7.711 11.387h-5.461s-.225 3.394 5.737 3.806a6.892 6.892 0 0 0 3.178 2.615c-.616.1-1.114.576-1.114 1.221v.797c0 .05.048.08.054.129h13.891c.006-.049.053-.079.053-.129v-.797c0-.652-.506-1.138-1.133-1.229 2.325-.935 3.958-3.111 4.233-5.696.216-.161.419-.307.653-.486 1.466-1.125 3.674-2.839 4.379-1.942.176.22.158.34.15.384-.08.521-1.193 1.269-2.088 1.87-1.408.945-2.863 1.926-2.977 3.316a.72.72 0 0 0 .655.777h.06c.37 0 .685-.284.715-.657.058-.705 1.328-1.558 2.349-2.243 1.302-.877 2.529-1.702 2.705-2.843.081-.52-.07-1.025-.448-1.501zm-12.777 2.608c-.411-1.57-1.382-3.078-2.595-3.622.642-.33 1.094-.981 1.094-1.752a1.99 1.99 0 1 0-3.982 0c0 .772.452 1.422 1.094 1.752-1.213.544-2.184 2.052-2.595 3.622h-4.097l7.155-10.567c.15.036.293.092.454.092s.304-.056.454-.092l7.156 10.567h-4.138z"/><path fill="#FF4B55" d="M307.334 294.318s-.434-1.496-.048-2.846-.607-2.591-.82-3.763c-.579-3.184 2.123-4.004 2.267-6.851 0 0 1.93 1.978 1.206 3.86s1.061 2.171.82 3.956-2.219 3.667-2.026 5.259l-1.399.385z"/><path fill="#FFE15A" d="M337.71 291.294c-1.578-1.974-4.347.152-6.373 1.698-.282.217-.52.382-.771.563l-7.476-11.04c.21-.315.361-.672.361-1.079a1.99 1.99 0 1 0-3.982 0c0 .407.152.764.361 1.079l-7.711 11.387h-5.461s-.225 3.394 5.737 3.806a6.892 6.892 0 0 0 3.178 2.615c-.616.1-1.114.576-1.114 1.221v.797c0 .05.048.08.054.129h13.891c.006-.049.053-.079.053-.129v-.797c0-.652-.506-1.138-1.133-1.229 2.325-.935 3.958-3.111 4.233-5.696.216-.161.419-.307.653-.486 1.466-1.125 3.674-2.839 4.379-1.942.176.22.158.34.15.384-.08.521-1.193 1.269-2.088 1.87-1.408.945-2.863 1.926-2.977 3.316a.72.72 0 0 0 .655.777h.06c.37 0 .685-.284.715-.657.058-.705 1.328-1.558 2.349-2.243 1.302-.877 2.529-1.702 2.705-2.843.081-.52-.07-1.024-.448-1.501zm-12.777 2.609c-.411-1.57-1.382-3.078-2.595-3.622.642-.33 1.094-.981 1.094-1.752a1.99 1.99 0 1 0-3.982 0c0 .772.452 1.422 1.094 1.752-1.213.544-2.184 2.052-2.595 3.622h-4.097l7.155-10.567c.15.036.293.092.454.092s.304-.056.454-.092l7.156 10.567h-4.138z"/><path fill="#FF4B55" d="M307.334 321.177s-.434-1.496-.048-2.846-.607-2.591-.82-3.763c-.579-3.184 2.123-4.004 2.267-6.851 0 0 1.93 1.978 1.206 3.859-.724 1.882 1.061 2.171.82 3.956s-2.219 3.667-2.026 5.259l-1.399.386z"/><path fill="#FFE15A" d="M337.71 318.154c-1.578-1.974-4.347.152-6.373 1.698-.282.217-.52.382-.771.563l-7.476-11.04c.21-.315.361-.672.361-1.079a1.99 1.99 0 1 0-3.982 0c0 .407.152.764.361 1.079l-7.711 11.387h-5.461s-.225 3.394 5.737 3.806a6.892 6.892 0 0 0 3.178 2.615c-.616.1-1.114.576-1.114 1.221v.797c0 .05.048.08.054.129h13.891c.006-.049.053-.079.053-.129v-.797c0-.652-.506-1.138-1.133-1.229 2.325-.935 3.958-3.111 4.233-5.696.216-.161.419-.307.653-.486 1.466-1.125 3.674-2.839 4.379-1.942.176.22.158.34.15.384-.08.521-1.193 1.269-2.088 1.87-1.408.945-2.863 1.926-2.977 3.316a.72.72 0 0 0 .655.777h.06c.37 0 .685-.284.715-.657.058-.705 1.328-1.558 2.349-2.243 1.302-.877 2.529-1.702 2.705-2.843.081-.52-.07-1.025-.448-1.501zm-12.777 2.608c-.411-1.57-1.382-3.078-2.595-3.622.642-.33 1.094-.981 1.094-1.752a1.99 1.99 0 1 0-3.982 0c0 .772.452 1.422 1.094 1.752-1.213.544-2.184 2.052-2.595 3.622h-4.097l7.155-10.567c.15.036.293.092.454.092s.304-.056.454-.092l7.156 10.567h-4.138z"/><path fill="#FF4B55" d="M307.334 374.896s-.434-1.496-.048-2.846-.607-2.591-.82-3.763c-.579-3.184 2.123-4.004 2.267-6.851 0 0 1.93 1.978 1.206 3.859-.724 1.882 1.061 2.171.82 3.956s-2.219 3.667-2.026 5.259l-1.399.386z"/><path fill="#FFE15A" d="M337.71 371.873c-1.578-1.974-4.347.152-6.373 1.698-.282.217-.52.382-.771.563l-7.476-11.04c.21-.315.361-.672.361-1.079a1.99 1.99 0 1 0-3.982 0c0 .407.152.764.361 1.079l-7.711 11.387h-5.461s-.225 3.394 5.737 3.806a6.892 6.892 0 0 0 3.178 2.615c-.616.1-1.114.576-1.114 1.221v.797c0 .05.048.08.054.129h13.891c.006-.049.053-.079.053-.129v-.797c0-.652-.506-1.138-1.133-1.229 2.325-.935 3.958-3.111 4.233-5.696.216-.161.419-.307.653-.486 1.466-1.125 3.674-2.839 4.379-1.942.176.22.158.34.15.384-.08.521-1.193 1.269-2.088 1.87-1.408.945-2.863 1.926-2.977 3.316a.72.72 0 0 0 .655.777h.06c.37 0 .685-.284.715-.657.058-.705 1.328-1.558 2.349-2.243 1.302-.877 2.529-1.702 2.705-2.843.081-.52-.07-1.025-.448-1.501zm-12.777 2.608c-.411-1.57-1.382-3.078-2.595-3.622.642-.33 1.094-.981 1.094-1.752a1.99 1.99 0 1 0-3.982 0c0 .772.452 1.422 1.094 1.752-1.213.544-2.184 2.052-2.595 3.622h-4.097l7.155-10.567c.15.036.293.092.454.092s.304-.056.454-.092l7.156 10.567h-4.138z"/><path fill="#FF4B55" d="M307.334 401.756s-.434-1.496-.048-2.846-.607-2.591-.82-3.763c-.579-3.184 2.123-4.004 2.267-6.851 0 0 1.93 1.978 1.206 3.859s1.061 2.171.82 3.956-2.219 3.667-2.026 5.259l-1.399.386z"/><path fill="#FFE15A" d="M337.71 398.732c-1.578-1.974-4.347.152-6.373 1.698-.282.217-.52.382-.771.563l-7.476-11.04c.21-.315.361-.672.361-1.079a1.99 1.99 0 1 0-3.982 0c0 .407.152.764.361 1.079l-7.711 11.387h-5.461s-.225 3.394 5.737 3.806a6.892 6.892 0 0 0 3.178 2.615c-.616.1-1.114.576-1.114 1.221v.797c0 .05.048.08.054.129h13.891c.006-.049.053-.079.053-.129v-.797c0-.652-.506-1.138-1.133-1.229 2.325-.935 3.958-3.111 4.233-5.696.216-.161.419-.307.653-.486 1.466-1.125 3.674-2.839 4.379-1.942.176.22.158.34.15.384-.08.521-1.193 1.269-2.088 1.87-1.408.945-2.863 1.926-2.977 3.316a.72.72 0 0 0 .655.777h.06c.37 0 .685-.284.715-.657.058-.705 1.328-1.558 2.349-2.243 1.302-.877 2.529-1.702 2.705-2.843.081-.52-.07-1.024-.448-1.501zm-12.777 2.609c-.411-1.57-1.382-3.078-2.595-3.622.642-.33 1.094-.981 1.094-1.752a1.99 1.99 0 1 0-3.982 0c0 .772.452 1.422 1.094 1.752-1.213.544-2.184 2.052-2.595 3.622h-4.097l7.155-10.567c.15.036.293.092.454.092s.304-.056.454-.092l7.156 10.567h-4.138z"/><path fill="#FF4B55" d="M400.782 267.458s-.434-1.496-.048-2.846-.607-2.591-.82-3.763c-.579-3.184 2.123-4.004 2.267-6.851 0 0 1.93 1.978 1.206 3.86s1.061 2.171.82 3.956-2.219 3.667-2.026 5.259l-1.399.385z"/><path fill="#FFE15A" d="M431.158 264.435c-1.578-1.974-4.347.152-6.373 1.698-.282.217-.52.382-.771.563l-7.476-11.04c.21-.315.361-.672.361-1.079a1.99 1.99 0 1 0-3.982 0c0 .407.152.764.361 1.079l-7.711 11.387h-5.461s-.225 3.394 5.737 3.806a6.892 6.892 0 0 0 3.178 2.615c-.616.1-1.114.576-1.114 1.221v.797c0 .05.048.08.054.129h13.891c.005-.049.053-.079.053-.129v-.797c0-.652-.506-1.138-1.133-1.229 2.325-.935 3.958-3.111 4.233-5.696.216-.161.419-.307.653-.486 1.466-1.125 3.674-2.839 4.379-1.942.176.22.158.34.15.384-.08.521-1.193 1.269-2.088 1.87-1.408.945-2.863 1.926-2.977 3.316a.72.72 0 0 0 .655.777h.06c.37 0 .685-.284.715-.657.058-.705 1.328-1.558 2.349-2.243 1.301-.877 2.529-1.702 2.705-2.843.081-.52-.069-1.025-.448-1.501zm-12.777 2.608c-.411-1.57-1.382-3.078-2.595-3.622.642-.33 1.094-.981 1.094-1.752a1.99 1.99 0 1 0-3.982 0c0 .772.452 1.422 1.094 1.752-1.213.544-2.184 2.052-2.595 3.622H407.3l7.156-10.567c.15.036.293.092.454.092s.304-.056.454-.092l7.155 10.567h-4.138z"/><path fill="#FF4B55" d="M400.782 294.318s-.434-1.496-.048-2.846-.607-2.591-.82-3.763c-.579-3.184 2.123-4.004 2.267-6.851 0 0 1.93 1.978 1.206 3.86s1.061 2.171.82 3.956-2.219 3.667-2.026 5.259l-1.399.385z"/><path fill="#FFE15A" d="M431.158 291.294c-1.578-1.974-4.347.152-6.373 1.698-.282.217-.52.382-.771.563l-7.476-11.04c.21-.315.361-.672.361-1.079a1.99 1.99 0 1 0-3.982 0c0 .407.152.764.361 1.079l-7.711 11.387h-5.461s-.225 3.394 5.737 3.806a6.892 6.892 0 0 0 3.178 2.615c-.616.1-1.114.576-1.114 1.221v.797c0 .05.048.08.054.129h13.891c.005-.049.053-.079.053-.129v-.797c0-.652-.506-1.138-1.133-1.229 2.325-.935 3.958-3.111 4.233-5.696.216-.161.419-.307.653-.486 1.466-1.125 3.674-2.839 4.379-1.942.176.22.158.34.15.384-.08.521-1.193 1.269-2.088 1.87-1.408.945-2.863 1.926-2.977 3.316a.72.72 0 0 0 .655.777h.06c.37 0 .685-.284.715-.657.058-.705 1.328-1.558 2.349-2.243 1.301-.877 2.529-1.702 2.705-2.843.081-.52-.069-1.024-.448-1.501zm-12.777 2.609c-.411-1.57-1.382-3.078-2.595-3.622.642-.33 1.094-.981 1.094-1.752a1.99 1.99 0 1 0-3.982 0c0 .772.452 1.422 1.094 1.752-1.213.544-2.184 2.052-2.595 3.622H407.3l7.156-10.567c.15.036.293.092.454.092s.304-.056.454-.092l7.155 10.567h-4.138z"/><path fill="#FF4B55" d="M400.782 321.177s-.434-1.496-.048-2.846-.607-2.591-.82-3.763c-.579-3.184 2.123-4.004 2.267-6.851 0 0 1.93 1.978 1.206 3.859-.724 1.882 1.061 2.171.82 3.956s-2.219 3.667-2.026 5.259l-1.399.386z"/><path fill="#FFE15A" d="M431.158 318.154c-1.578-1.974-4.347.152-6.373 1.698-.282.217-.52.382-.771.563l-7.476-11.04c.21-.315.361-.672.361-1.079a1.99 1.99 0 1 0-3.982 0c0 .407.152.764.361 1.079l-7.711 11.387h-5.461s-.225 3.394 5.737 3.806a6.892 6.892 0 0 0 3.178 2.615c-.616.1-1.114.576-1.114 1.221v.797c0 .05.048.08.054.129h13.891c.005-.049.053-.079.053-.129v-.797c0-.652-.506-1.138-1.133-1.229 2.325-.935 3.958-3.111 4.233-5.696.216-.161.419-.307.653-.486 1.466-1.125 3.674-2.839 4.379-1.942.176.22.158.34.15.384-.08.521-1.193 1.269-2.088 1.87-1.408.945-2.863 1.926-2.977 3.316a.72.72 0 0 0 .655.777h.06c.37 0 .685-.284.715-.657.058-.705 1.328-1.558 2.349-2.243 1.301-.877 2.529-1.702 2.705-2.843.081-.52-.069-1.025-.448-1.501zm-12.777 2.608c-.411-1.57-1.382-3.078-2.595-3.622.642-.33 1.094-.981 1.094-1.752a1.99 1.99 0 1 0-3.982 0c0 .772.452 1.422 1.094 1.752-1.213.544-2.184 2.052-2.595 3.622H407.3l7.156-10.567c.15.036.293.092.454.092s.304-.056.454-.092l7.155 10.567h-4.138z"/><path fill="#FF4B55" d="M400.782 348.037s-.434-1.496-.048-2.846-.607-2.591-.82-3.763c-.579-3.184 2.123-4.004 2.267-6.851 0 0 1.93 1.978 1.206 3.86s1.061 2.171.82 3.956-2.219 3.667-2.026 5.259l-1.399.385z"/><path fill="#FFE15A" d="M431.158 345.013c-1.578-1.974-4.347.152-6.373 1.698-.282.217-.52.382-.771.563l-7.476-11.04c.21-.315.361-.672.361-1.079a1.99 1.99 0 1 0-3.982 0c0 .407.152.764.361 1.079l-7.711 11.387h-5.461s-.225 3.394 5.737 3.806a6.892 6.892 0 0 0 3.178 2.615c-.616.1-1.114.576-1.114 1.221v.797c0 .05.048.08.054.129h13.891c.005-.049.053-.079.053-.129v-.797c0-.653-.506-1.138-1.133-1.229 2.325-.935 3.958-3.111 4.233-5.696.216-.161.419-.307.653-.486 1.466-1.125 3.674-2.839 4.379-1.942.176.22.158.34.15.384-.08.521-1.193 1.269-2.088 1.87-1.408.945-2.863 1.926-2.977 3.316a.72.72 0 0 0 .655.777h.06c.37 0 .685-.284.715-.657.058-.705 1.328-1.558 2.349-2.243 1.301-.877 2.529-1.702 2.705-2.843.081-.52-.069-1.024-.448-1.501zm-12.777 2.609c-.411-1.57-1.382-3.078-2.595-3.622.642-.33 1.094-.981 1.094-1.752a1.99 1.99 0 1 0-3.982 0c0 .772.452 1.422 1.094 1.752-1.213.544-2.184 2.052-2.595 3.622H407.3l7.156-10.567c.15.036.293.092.454.092s.304-.056.454-.092l7.155 10.567h-4.138z"/><path fill="#FF4B55" d="M400.782 374.896s-.434-1.496-.048-2.846-.607-2.591-.82-3.763c-.579-3.184 2.123-4.004 2.267-6.851 0 0 1.93 1.978 1.206 3.859-.724 1.882 1.061 2.171.82 3.956s-2.219 3.667-2.026 5.259l-1.399.386z"/><path fill="#FFE15A" d="M431.158 371.873c-1.578-1.974-4.347.152-6.373 1.698-.282.217-.52.382-.771.563l-7.476-11.04c.21-.315.361-.672.361-1.079a1.99 1.99 0 1 0-3.982 0c0 .407.152.764.361 1.079l-7.711 11.387h-5.461s-.225 3.394 5.737 3.806a6.892 6.892 0 0 0 3.178 2.615c-.616.1-1.114.576-1.114 1.221v.797c0 .05.048.08.054.129h13.891c.005-.049.053-.079.053-.129v-.797c0-.652-.506-1.138-1.133-1.229 2.325-.935 3.958-3.111 4.233-5.696.216-.161.419-.307.653-.486 1.466-1.125 3.674-2.839 4.379-1.942.176.22.158.34.15.384-.08.521-1.193 1.269-2.088 1.87-1.408.945-2.863 1.926-2.977 3.316a.72.72 0 0 0 .655.777h.06c.37 0 .685-.284.715-.657.058-.705 1.328-1.558 2.349-2.243 1.301-.877 2.529-1.702 2.705-2.843.081-.52-.069-1.025-.448-1.501zm-12.777 2.608c-.411-1.57-1.382-3.078-2.595-3.622.642-.33 1.094-.981 1.094-1.752a1.99 1.99 0 1 0-3.982 0c0 .772.452 1.422 1.094 1.752-1.213.544-2.184 2.052-2.595 3.622H407.3l7.156-10.567c.15.036.293.092.454.092s.304-.056.454-.092l7.155 10.567h-4.138z"/><path fill="#FF4B55" d="M400.782 401.756s-.434-1.496-.048-2.846-.607-2.591-.82-3.763c-.579-3.184 2.123-4.004 2.267-6.851 0 0 1.93 1.978 1.206 3.859-.724 1.882 1.061 2.171.82 3.956s-2.219 3.667-2.026 5.259l-1.399.386z"/><path fill="#FFE15A" d="M431.158 398.732c-1.578-1.974-4.347.152-6.373 1.698-.282.217-.52.382-.771.563l-7.476-11.04c.21-.315.361-.672.361-1.079a1.99 1.99 0 1 0-3.982 0c0 .407.152.764.361 1.079l-7.711 11.387h-5.461s-.225 3.394 5.737 3.806a6.892 6.892 0 0 0 3.178 2.615c-.616.1-1.114.576-1.114 1.221v.797c0 .05.048.08.054.129h13.891c.005-.049.053-.079.053-.129v-.797c0-.652-.506-1.138-1.133-1.229 2.325-.935 3.958-3.111 4.233-5.696.216-.161.419-.307.653-.486 1.466-1.125 3.674-2.839 4.379-1.942.176.22.158.34.15.384-.08.521-1.193 1.269-2.088 1.87-1.408.945-2.863 1.926-2.977 3.316a.72.72 0 0 0 .655.777h.06c.37 0 .685-.284.715-.657.058-.705 1.328-1.558 2.349-2.243 1.301-.877 2.529-1.702 2.705-2.843.081-.52-.069-1.024-.448-1.501zm-12.777 2.609c-.411-1.57-1.382-3.078-2.595-3.622.642-.33 1.094-.981 1.094-1.752a1.99 1.99 0 1 0-3.982 0c0 .772.452 1.422 1.094 1.752-1.213.544-2.184 2.052-2.595 3.622H407.3l7.156-10.567c.15.036.293.092.454.092s.304-.056.454-.092l7.155 10.567h-4.138z"/><g fill="#F5F5F5"><path d="M446.866 240.539v140.883c0 31.812-77.258 63.624-77.258 63.624s-77.258-31.812-77.258-63.624V240.539h154.516m4.545-4.544H287.805v145.428c0 14.875 13.722 30.893 40.786 47.608 19.407 11.986 38.484 19.888 39.287 20.218l1.73.713 1.73-.713c.803-.33 19.88-8.232 39.287-20.218 27.063-16.716 40.786-32.733 40.786-47.608V235.995z"/><path d="m452.067 406.478 20.602 14.208c-23.929 30.694-61.215 50.491-103.061 50.491s-79.132-19.797-103.061-50.491l20.602-14.208c19.38 24.179 49.132 39.704 82.459 39.704s63.079-15.524 82.459-39.704m-.901-6.142-2.645 3.3c-19.357 24.151-48.12 38.002-78.913 38.002s-59.556-13.851-78.913-38.002l-2.645-3.3-3.481 2.401-20.602 14.209-3.967 2.735 2.962 3.8c25.883 33.2 64.754 52.242 106.645 52.242s80.762-19.041 106.645-52.242l2.962-3.8-3.966-2.735-20.602-14.209-3.48-2.401z"/></g><path fill="#FFE15A" d="M369.608 471.178c41.846 0 79.132-19.797 103.061-50.491l-20.602-14.208c-19.38 24.179-49.132 39.704-82.459 39.704s-63.079-15.525-82.459-39.704l-20.602 14.208c23.929 30.694 61.215 50.491 103.061 50.491z"/><g fill="#41479B"><path d="M94.316 0 0 0 0 19.977 94.316 81.77z"/><path d="M0 68.299 0 94.316 39.71 94.316z"/><path d="M0 161.684 0 187.701 39.71 161.684z"/><path d="M256 19.977 256 0 161.684 0 161.684 81.77z"/><path d="M256 187.701 256 161.684 216.29 161.684z"/><path d="M161.684 174.23 161.684 256 256 256 256 236.023z"/><path d="M256 94.316 256 68.299 216.29 94.316z"/><path d="M0 236.023 0 256 94.316 256 94.316 174.23z"/></g><g fill="#F5F5F5"><path d="M256 236.023 256 216.059 172.232 161.684 196.98 161.684 256 199.995 256 187.701 216.29 161.684 256 161.684 256 148.21 148.211 148.21 148.211 256 161.684 256 161.684 174.23z"/><path d="M0 148.21 0 161.684 39.71 161.684 0 187.701 0 206.602 69.197 161.684 93.945 161.684 0 222.666 0 236.023 94.316 174.23 94.316 256 107.789 256 107.789 148.21z"/><path d="M107.789 0 94.316 0 94.316 81.77 0 19.977 0 41.839 80.842 94.316 56.094 94.316 0 57.904 0 68.299 39.71 94.316 0 94.316 0 107.79 107.789 107.79z"/><path d="M256 107.79 256 94.316 216.29 94.316 256 68.299 256 49.157 186.432 94.316 161.684 94.316 256 33.093 256 19.977 161.684 81.77 161.684 0 148.211 0 148.211 107.79z"/></g><g fill="#FF4B55"><path d="M256 148.21 256 107.79 148.211 107.79 148.211 0 107.789 0 107.789 107.79 0 107.79 0 148.21 107.789 148.21 107.789 256 148.211 256 148.211 148.21z"/><path d="M69.197 161.684 0 206.602 0 222.666 93.945 161.684z"/><path d="M172.232 161.684 256 216.059 256 199.995 196.98 161.684z"/><path d="M80.842 94.316 0 41.839 0 57.904 56.094 94.316z"/><path d="M186.432 94.316 256 49.157 256 33.093 161.684 94.316z"/></g></svg>