<svg xmlns="http://www.w3.org/2000/svg" x="0" y="0" enable-background="new 0 0 512.002 512.002" version="1.1" viewBox="0 0 512.002 512.002" xml:space="preserve"><path fill="#464655" d="M.052.026H512.002V511.976H.052z"/><path fill="#FFE15A" d="M512 242.527 249.472 242.527.052 32.485.052 63.268 228.926 256 .052 448.733.052 479.515 249.472 269.473 512 269.473z"/><path fill="#73AF00" d="M0 511.974 512 511.974 512 296.417 256.026 296.417z"/><path fill="#FF4B55" d="M512 .026 0 .026 256.026 215.583 512 215.583z"/><g fill="#FFE15A"><path d="M94.361 198.817c-29.41-9.252-51.614 12.119-56.688 23.119-4.299 9.32-12.281 51.536 27.515 58.268 39.795 6.732 39.347-30.819 39.347-30.819-1.795 5.984-5.012 23.039-33.738 23.039-10.774 0-26.256-16.008-23.339-33.662 2.746-16.611 17.584-25.109 28.8-25.583 10.621-.448 35.381 6.882 35.381 37.028 0 33.886-34.923 37.7-34.923 37.7v20.462c30.401-2.981 47.603-19.82 52.158-46.793 4.535-26.853-4.609-53.351-34.513-62.759z"/><path d="M61.797 249.065a5.138 5.138 0 0 0-1.082 3.098l-.086 5.503-1.071 1.869a1.417 1.417 0 1 0 2.459 1.408l1.098-1.921 4.395-1.592a5.207 5.207 0 0 0 2.981-2.775c1.148-2.564 3.614-7.27 7.609-12.182 3.996 4.91 6.461 9.618 7.609 12.182a5.211 5.211 0 0 0 2.98 2.775l4.397 1.592 1.098 1.921a1.417 1.417 0 0 0 2.459-1.408l-1.071-1.869-.086-5.503a5.132 5.132 0 0 0-1.082-3.098c-3.682-4.676-7.598-8.352-11.457-11.605 3.084-2.898 6.569-5.665 10.961-7.801a2.417 2.417 0 0 0 1.285-2.734 2.43 2.43 0 0 0-3.396-1.636c-2.943 1.372-8.003 4.073-13.696 8.222-5.693-4.15-10.753-6.85-13.696-8.222a2.43 2.43 0 0 0-3.396 1.636 2.418 2.418 0 0 0 1.284 2.734c4.392 2.137 7.878 4.904 10.963 7.801-3.861 3.253-7.778 6.929-11.459 11.605z"/></g></svg>