<svg xmlns="http://www.w3.org/2000/svg" viewBox="0 0 512 512"><path fill="#ff4b55" d="M0 .235h512v511.53H0z"/><path fill="#41479b" d="M0 .235h255.76v255.76H0z"/><g fill="#f5f5f5"><path d="M128.656 170.141l-6.179 18.529-19.532.152c-2.529.02-3.578 3.247-1.543 4.749l15.712 11.603-5.892 18.623c-.762 2.411 1.982 4.406 4.039 2.935l15.89-11.357 15.89 11.357c2.057 1.471 4.803-.524 4.039-2.935l-5.892-18.623 15.712-11.603c2.034-1.503.986-4.73-1.543-4.749l-19.532-.152-6.179-18.529c-.797-2.398-4.191-2.398-4.99 0zM129.132 25.668l-4.999 14.989-15.799.123c-2.045.016-2.893 2.627-1.248 3.841l12.71 9.386-4.766 15.064c-.617 1.95 1.604 3.564 3.268 2.374l12.854-9.187 12.854 9.187c1.664 1.19 3.884-.424 3.268-2.374l-4.766-15.064 12.71-9.386c1.645-1.215.797-3.825-1.248-3.841l-15.799-.123-4.999-14.989c-.648-1.941-3.392-1.941-4.04 0zM209.058 70.258l-4.999 14.989-15.799.123c-2.045.016-2.893 2.627-1.248 3.841l12.71 9.386-4.766 15.064c-.617 1.95 1.604 3.564 3.268 2.374l12.854-9.187 12.854 9.187c1.664 1.19 3.884-.424 3.268-2.374l-4.766-15.064 12.71-9.386c1.645-1.215.797-3.825-1.248-3.841l-15.799-.123-4.999-14.989c-.648-1.94-3.392-1.94-4.04 0zM50.889 87.926l-4.999 14.989-15.799.123c-2.045.016-2.893 2.627-1.248 3.841l12.71 9.386-4.766 15.064c-.617 1.95 1.604 3.564 3.268 2.374l12.854-9.188 12.854 9.188c1.664 1.19 3.884-.424 3.268-2.374l-4.766-15.064 12.71-9.386c1.645-1.215.797-3.825-1.248-3.841l-15.799-.123-4.999-14.989c-.647-1.941-3.393-1.941-4.04 0zM174.608 136.857l-2.806 8.414-8.87.069c-1.148.009-1.624 1.475-.7 2.157l7.135 5.269-2.676 8.456c-.347 1.095.9 2 1.834 1.333l7.216-5.157 7.216 5.157c.934.667 2.181-.238 1.834-1.333l-2.676-8.456 7.135-5.269c.924-.682.448-2.148-.7-2.157l-8.87-.069-2.806-8.414c-.361-1.089-1.902-1.089-2.266 0z"/></g></svg>