<svg xmlns="http://www.w3.org/2000/svg" x="0" y="0" enable-background="new 0 0 512 512" version="1.1" viewBox="0 0 512 512" xml:space="preserve"><path fill="#464655" d="M0 144.651 0 367.353 140.652 256z"/><path fill="#FF4B55" d="M512 175.158 512 0 77.772 0 299.022 175.158z"/><path fill="#41479B" d="M299.02 336.842 77.765 512 512 512 512 336.842z"/><path fill="#73AF00" d="M512 309.895 512 202.105 289.646 202.105 34.357 0 0 0 0 110.282 184.066 256 0 401.722 0 512 34.349 512 289.645 309.895z"/><path fill="#F5F5F5" d="M512 202.105 512 175.158 299.022 175.158 77.772 0 55.316 0 34.357 0 289.646 202.105z"/><path fill="#FFE15A" d="M0 110.282 0 144.651 140.652 256 0 367.353 0 401.722 184.066 256z"/><path fill="#F5F5F5" d="M512 336.842 512 309.895 289.645 309.895 34.349 512 55.316 512 77.765 512 299.02 336.842z"/></svg>