<svg xmlns="http://www.w3.org/2000/svg" viewBox="0 0 512.003 512.003"><path fill="#73af00" d="M0 .001h512v512H0z"/><path fill="#ff4b55" d="M326.62 175.161h61.793v336.84H326.62z"/><path fill="#464655" d="M388.41 175.161h61.793v336.84H388.41z"/><g fill="#ff9b55"><path d="M450.21 175.161h61.793v336.84H450.21zM502.081 77.068a1.017 1.017 0 00-1.474-1.3 78.23 78.23 0 01-5.719 3.449c6.119-5.058 6.977-9.45 7.032-9.77a1.016 1.016 0 00-1.574-1.014c-6.61 4.484-13.227 7.684-18.931 9.936 7.662-4.841 10.696-9.778 10.883-10.091a1.017 1.017 0 00-1.398-1.394c-6.116 3.687-13.361 6.594-20.284 8.833.919-1.418 1.574-3.012.986-3.907-.546-.83-1.543-.83-2.967.004-2.881 1.689-24.721 7.256-33.182 9.33-8.625-1.559-15.772.653-17.998 1.469-.593-.706-.864-1.39-.978-1.924-.186-.87-.051-1.755.36-2.367.671-.998 2.057-1.094 3.281-1.178.532-.036 1.007-.069 1.423-.174.266.078.593.232.587.351a1.017 1.017 0 001.879.59c.062-.099 1.5-2.455.386-4.46-.811-1.459-2.671-2.225-5.532-2.28-1.174-.819-5.61-3.485-11.075-1.425-5.536 2.088-7.993 7.774-8.805 10.177-4.308-.598-24.088-3.617-34.841-9.929-.523-.238-2.306-.937-3.303.011-.612.581-.684 1.482-.215 2.679.249.635.631 1.256 1.138 1.864-5.756-2.641-13.515-6.333-19.382-9.614-.917-.425-2.583-1.003-3.442-.102-.539.566-.531 1.39.025 2.448.117.223.232.473.359.746.571 1.231 1.349 2.908 3.252 4.845-1.421-.776-2.703-1.575-3.73-2.374-5.149-4.005-5.846-4.397-6.768-3.776-.794.535-.538 1.439-.266 2.396l.072.253c.223.796.589 2.078 1.589 3.624-.798-.543-1.484-.653-2.024-.277-.323.222-.807.777-.433 1.997.895 2.919 7.083 10.604 18.852 12.868a29.526 29.526 0 01-3.629.325 1.019 1.019 0 00-.487 1.899c.215.123 4.376 2.451 12.003 2.255a21.014 21.014 0 01-3.867.595 1.016 1.016 0 00-.465 1.886c.227.137 4.652 2.741 11.506 2.357l-.597.368a1.016 1.016 0 00.254 1.845c.214.061 4.077 1.136 8.889.628l-.846.602a1.018 1.018 0 00.449 1.837c.087.013.71.093 1.707.093.657 0 1.478-.037 2.413-.15-.021.243.007.485.087.725.482 1.449 2.616 1.8 3.326 1.81l.129.001c.859 0 1.767-.121 2.694-.305 1.483 1.386 4.192 1.259 6.819.648a2.876 2.876 0 00-.348.707c-.152.48-.036.971.307 1.313.335.332 1.141 1.133 8.486-.933l-.091.071c-.976.756-.914 1.537-.79 1.935.45 1.445 3.69 2.369 9.569 2.764.13 3.269-.779 6.821-.788 6.86a1.017 1.017 0 001.467 1.152c.34-.183.678-.42.998-.675l-.028 1.081a1.015 1.015 0 001.017 1.044c.04 0 .078-.015.117-.019-.109.921-.483 2.021-1.665 2.28-.536.117-1.104.176-1.653.232-2.503.256-5.339.547-5.788 6.283a1.017 1.017 0 001.756.777l1.09-1.158c.641.158 1.663.319 2.756.142-.276 1.327-.194 2.96 1.134 4.346a1.019 1.019 0 001.752-.704v-.735a5.722 5.722 0 002.263-1.085c.464 1.002 1.351 2.178 3.038 3.171a1.016 1.016 0 001.166-.095c.33-.274.452-.727.306-1.13l-.531-1.461c.37-.366.853-.888 1.273-1.446.208.302.557.476.93.44.387-.037.719-.291.856-.656l.374-.996c.221-.061.432-.134.632-.217.25 2.204 1.945 4.038 2.047 4.146a1.018 1.018 0 001.724-.432l.567-2.115c1.502-.761 1.649-2.139 1.74-2.997.018-.168.043-.402.048-.52.586.289 1.831 1.686 2.769 3.136.187.288.506.464.849.465.349-.025.664-.17.854-.456 0 0 .795-1.203 1.182-1.905 1.64-2.977-.845-4.76-2.039-5.616-.293-.21-.694-.498-.759-.578-.224-.545-.145-1.053.002-1.448.996.687 2.128 1.265 3.381 1.559a1.013 1.013 0 001.066-.408c.239-.34.246-.793.017-1.141-.023-.035-1.893-2.913-3.099-6.452 1.948 1.142 4.584 2.522 5.95 2.522.938 0 1.296-.584 1.408-.835.065-.147.182-.413.089-.912 1.81.978 3.851 1.735 5.402 1.335.458-.118 1.533-.395 1.696-1.359.083-.488-.082-.882-.442-1.271 1.68.408 3.493.611 5.269.376 1.482-.195 1.919-.914 2.024-1.483.067-.364.186-1.063-1.135-2.387 2.552-.14 4.833-.698 5.02-2.238.017-.138-.009-.264-.021-.394 8.205-.894 14.448-6.026 14.724-6.257.08-.067.134-.151.188-.234 4.968-.62 10.61-1.743 15.177-3.795 8.62-3.875 12.986-9.107 12.204-11.006-.227-.552-.879-.952-1.682-.652-.225.084-.682.269-1.281.513 5.1-4.155 7.098-7.998 7.288-8.382z"/></g><path fill="#464655" d="M502.081 77.068a1.017 1.017 0 00-1.474-1.3 77.548 77.548 0 01-5.72 3.449c6.119-5.058 6.978-9.45 7.032-9.77a1.016 1.016 0 00-1.574-1.014c-6.611 4.483-13.227 7.684-18.931 9.936 7.662-4.841 10.697-9.778 10.883-10.091a1.017 1.017 0 00-1.398-1.394c-6.116 3.687-13.361 6.594-20.284 8.833.919-1.419 1.574-3.013.986-3.907-.546-.83-1.542-.83-2.967.004-2.881 1.689-24.72 7.255-33.182 9.33-8.625-1.559-15.772.652-17.999 1.468-.593-.706-.864-1.39-.978-1.924-.186-.87-.051-1.755.36-2.367.671-.998 2.058-1.093 3.281-1.177.531-.036 1.007-.069 1.423-.173.266.078.593.232.587.351a1.017 1.017 0 001.88.591c.062-.099 1.5-2.455.386-4.46-.811-1.459-2.671-2.225-5.532-2.28-1.175-.819-5.61-3.485-11.075-1.425-5.536 2.088-7.993 7.774-8.805 10.176-4.308-.598-24.088-3.617-34.841-9.929-.522-.238-2.306-.937-3.303.011-.612.581-.683 1.482-.215 2.679.249.635.631 1.256 1.138 1.864-5.756-2.641-13.515-6.333-19.382-9.614-.917-.425-2.583-1.003-3.441-.102-.539.566-.531 1.39.025 2.448.117.223.232.473.359.747.571 1.231 1.349 2.908 3.252 4.845-1.421-.776-2.703-1.575-3.73-2.374-5.149-4.005-5.846-4.398-6.768-3.776-.794.535-.538 1.439-.266 2.396l.072.253c.223.796.588 2.078 1.588 3.624-.798-.543-1.483-.654-2.024-.277-.323.221-.806.777-.433 1.997.895 2.919 7.083 10.604 18.852 12.868a29.526 29.526 0 01-3.629.325 1.017 1.017 0 00-.487 1.898c.215.123 4.375 2.451 12.003 2.255-1.141.287-2.435.51-3.867.595a1.016 1.016 0 00-.465 1.886c.227.137 4.653 2.741 11.506 2.357l-.597.368a1.016 1.016 0 00.254 1.845c.214.061 4.077 1.136 8.889.628l-.846.602a1.015 1.015 0 00.45 1.836c.087.013.71.094 1.707.094.656 0 1.478-.037 2.412-.15-.021.243.007.485.087.725.481 1.449 2.616 1.8 3.326 1.809l.129.001c.859 0 1.767-.121 2.694-.305 1.483 1.386 4.192 1.259 6.819.648a2.916 2.916 0 00-.349.707c-.151.48-.036.971.308 1.313.335.332 1.141 1.132 8.486-.934l-.092.071c-.976.756-.914 1.537-.79 1.936.45 1.444 3.69 2.369 9.57 2.764.13 3.269-.779 6.821-.788 6.86a1.017 1.017 0 001.466 1.152c.34-.184.678-.42.998-.675l-.028 1.081a1.02 1.02 0 001.016 1.045c.04 0 .078-.015.118-.02-.11.921-.483 2.021-1.665 2.28-.536.117-1.104.176-1.653.232-2.503.257-5.339.547-5.788 6.283a1.02 1.02 0 001.755.777l1.09-1.159c.641.158 1.664.319 2.756.142-.275 1.327-.194 2.96 1.134 4.346a1.02 1.02 0 001.752-.704v-.734a5.716 5.716 0 002.263-1.085c.464 1.002 1.351 2.178 3.038 3.171a1.02 1.02 0 001.167-.094c.33-.274.452-.726.306-1.13l-.531-1.462c.37-.366.853-.888 1.273-1.446.208.302.557.476.93.44.387-.037.72-.292.856-.656l.374-.996a5.58 5.58 0 00.632-.216c.25 2.204 1.945 4.038 2.047 4.146a1.015 1.015 0 00.989.291c.359-.09.639-.367.735-.723l.567-2.115c1.502-.761 1.649-2.139 1.74-2.997.018-.168.043-.402.048-.52.586.289 1.831 1.686 2.769 3.135.186.288.506.464.849.465.349-.025.664-.17.854-.457 0 0 .795-1.203 1.181-1.905 1.64-2.977-.845-4.759-2.039-5.616-.293-.21-.694-.498-.759-.578-.224-.545-.145-1.053.002-1.448.996.687 2.128 1.265 3.381 1.56a1.016 1.016 0 001.083-1.548c-.022-.035-1.893-2.913-3.099-6.452 1.948 1.141 4.584 2.523 5.951 2.523.938 0 1.296-.584 1.407-.835.065-.147.182-.413.09-.912 1.81.978 3.851 1.735 5.403 1.335.458-.118 1.533-.396 1.696-1.359.083-.488-.083-.882-.442-1.271 1.68.408 3.492.611 5.269.376 1.482-.196 1.919-.914 2.024-1.483.067-.364.186-1.063-1.135-2.387 2.552-.14 4.833-.698 5.019-2.238.017-.138-.009-.264-.021-.394 8.205-.895 14.448-6.026 14.724-6.257.08-.067.134-.151.188-.234 4.968-.62 10.61-1.742 15.177-3.795 8.62-3.876 12.986-9.107 12.204-11.007-.227-.552-.879-.953-1.682-.652-.225.085-.682.269-1.28.513 5.101-4.156 7.099-7.999 7.289-8.383zm-14.983-5.776c-3.747 3.666-10.806 8.938-22.447 11.996a1 1 0 00-.273.132c-2.449-.191-5.542-.638-8.256-1.651 8.603-1.951 20.69-5.312 30.976-10.477zm-51.803 11.893c.143.026.289.022.429-.012 1.21-.296 29.234-7.169 33.733-9.489-.523 1.031-1.528 2.475-2.349 3.077-.024.017-.034.042-.056.061-12.066 3.582-22.306 5.092-22.476 5.116a1.018 1.018 0 00.29 2.014c.093-.014 3.202-.472 7.977-1.468 2.471 1.417 5.51 2.199 8.277 2.622-4.133.349-7.958.15-8.022.145-.482-.018-.95.317-1.052.811-.102.494.173.988.647 1.16l3.848 1.41c-5.411 1.152-10.628.071-10.688.057a1.018 1.018 0 00-1.028 1.605c.735.981 2.808 2.01 4.616 2.769-7.437 1.408-12.557-3.151-12.797-3.37a1.016 1.016 0 00-1.382 1.493c5.875 5.499 16.827 7.841 21.742 8.648-.728.43-1.606.835-2.525 1-3.773.67-12.482-3.472-18.61-6.825l-4.907-2.832a1.017 1.017 0 00-1.042 1.748c.235.144 2.16 1.323 4.894 2.825l11.945 6.893c-3.664.453-7.531-.368-7.579-.378-.029-.006-.058.003-.087-.001-2.796-1.966-7.308-5.276-14.081-10.893-1.09-3.891-3.133-5.601-5.691-7.225 2.889-.887 8.986-2.272 15.974-.961zm7.383 21.572c-.006.002-.011.007-.017.009l-.014-.011.031.002zm-66.268-4.614l2.327-1.656a1.017 1.017 0 00-.932-1.787c-3.845 1.373-7.736 1.233-10.173.92l2.695-1.658a1.016 1.016 0 00-.792-1.85c-4.905 1.288-8.989.753-11.663.015 4.25-.993 6.719-2.873 6.849-2.974a1.017 1.017 0 00-.812-1.804c-5.603 1.055-9.93.708-12.834.107a48.676 48.676 0 005.535-1.266c.017-.005.029-.019.046-.025.069-.025.127-.063.188-.102.052-.033.105-.06.15-.1.049-.044.084-.098.123-.151.038-.052.079-.099.107-.157.026-.055.037-.116.054-.176.019-.069.039-.134.044-.207.001-.017.01-.03.01-.048.001-.053-.021-.1-.029-.151-.007-.051.001-.102-.014-.153-.005-.016-.017-.027-.023-.042-.025-.068-.063-.126-.1-.187-.033-.053-.06-.108-.102-.154-.043-.048-.096-.082-.148-.121-.053-.04-.101-.082-.161-.111-.055-.026-.115-.037-.174-.053-.069-.02-.135-.04-.208-.044-.017-.001-.031-.01-.048-.01-13.069-.123-20.282-6.997-22.59-10.506 4.072 2.837 9.421 5.245 13.317 6.628l.003.001c5.181 2.001 11.639 3.276 11.913 3.329a1.019 1.019 0 00.391-1.997c-.065-.013-6.579-1.298-11.599-3.241-10.828-4.19-13.021-8.728-13.752-11.02 1.17.832 2.743 2.055 3.585 2.71 6.337 4.929 21.085 9.591 21.71 9.787a1.018 1.018 0 00.633-1.934c-15.248-5.194-17.537-10.132-18.768-12.785a28.165 28.165 0 00-.306-.646c.205.063.419.142.593.22 8.454 4.731 20.876 10.331 25.572 12.41-.845.406-1.731.747-2.318.779a1.017 1.017 0 00-.697 1.701c.062.068 1.059 1.137 2.994 1.554l-1.374.896a1.02 1.02 0 00.208 1.809c.094.034 1.664.586 3.738.805l-1.143.834a1.016 1.016 0 00.167 1.742c.133.062 1.697.772 4.206.654l-.086.06a1.018 1.018 0 00.369 1.828c.156.033 2.077.428 4.833.115l-.626.417a1.015 1.015 0 00-.439 1.014c.066.395.358.714.745.817.296.076 4.748 1.185 10.591-.669-1.225.806-2.367 1.391-3.31 1.603a1.019 1.019 0 00-.175 1.929c.027.011.127.05.26.098-3.122 2.07-6.313 2.789-8.56 3.003zm-4.922-18.457a1.014 1.014 0 00-1.175-.584c-1.178.287-2.131.258-2.867.103a20.44 20.44 0 002.418-1.293.997.997 0 00.195-.165c1.81.728 3.865 1.428 6.17 2.096l-3.905 2.85c-1.308.139-2.605.014-3.639-.171l2.424-1.58c.416-.271.576-.801.379-1.256zm9.141 20.934c-.386-.005-1.1-.202-1.365-.392.067-.107.236-.316.613-.615a20.232 20.232 0 007.803-3.939c2.773.201 7.135-.458 11.579-4.925.164.298.336.598.536.905-.483.366-11.967 9.031-19.166 8.966zm7.936-6.946c3.29-1.98 6.97-5.424 9.266-7.724.036.842.199 1.807.563 2.868-.079.047-.161.09-.228.16-3.644 3.844-7.192 4.691-9.601 4.696zm19.112 13.169c-3.349-.229-6.468-.749-7.607-1.253 2.771-2.163 3.565-3.118 3.649-3.223a1.018 1.018 0 00-1.109-1.603c-3.652 1.18-7.917 2.332-10.023 2.628.967-.869 2.687-1.965 4.242-2.743a1.017 1.017 0 00-.888-1.831c-2.769 1.302-6.732 2.615-9.214 2.595 6.752-2.431 13.636-7.631 14.291-8.134.519.62 1.093 1.248 1.782 1.888 6.078 5.651 5.412 10.083 4.877 11.676zm1.676 6.203c-.056.067-.131.156-.222.258.221-1.506.379-3.395.234-5.193.559-1.23 1.693-4.877-1.241-9.714 1.934.281 6.374 1.212 8.295 4.006.255.371.508.781.758 1.208l-.002.003c-.095.225-2.019 4.884-1.405 10.709-.45-.53-.88-1.18-1.168-1.942a1.017 1.017 0 00-1.801-.198 47.665 47.665 0 01-1.666 2.357l.021-.822a1.017 1.017 0 00-1.803-.672zm6.559 12.666c-.203.607-1.288 1.777-1.993 2.413a.963.963 0 00-.072.071c-.531-.879-.512-1.574-.511-1.612a1.018 1.018 0 00-1.902-.573 3.607 3.607 0 01-2.863 1.851c.052-1.226.76-2.339.805-2.408a1.017 1.017 0 00-1.533-1.313c-1.494 1.352-3.865.477-3.887.47a1.025 1.025 0 00-.3-.067c.657-1.429 1.806-1.547 3.394-1.709.606-.063 1.233-.127 1.881-.269 3.131-.685 3.5-4.146 3.258-5.881-.007-.048-.033-.087-.046-.132.491-.603.979-1.263 1.385-1.833.199.304.411.577.625.836.006.743.048 3.03.306 4.235.205.957.903 1.601 1.575 2.015-.11.216-.204.444-.265.691-.239.985-.037 2.069.267 2.997-.045.071-.096.135-.124.218zm.536-6.346c-.097-.454-.159-1.167-.199-1.885.285.196.484.313.513.329a1.017 1.017 0 001.481-1.136c-1.074-4.298-.355-8.318.242-10.521 1.752 3.85 3.009 8.602 2.574 11.735-.067.479.214.939.67 1.099.095.033.193.043.289.048-.011.107-.021.219-.034.318-1.029-.032-2.725.126-4.369.981-.47-.196-1.079-.555-1.167-.968zm13.398 5.259c-.081.146-.181.316-.288.492-1.214-1.608-2.882-3.262-4.309-2.723-1.15.438-1.268 1.546-1.347 2.279-.094.885-.161 1.254-.899 1.507a1.016 1.016 0 00-.654.698l-.114.423c-.388-.854-.594-1.885-.015-2.764a1.016 1.016 0 00-.244-1.374 1.02 1.02 0 00-1.389.166c-.009.01-.931 1.095-2.271 1.286-.139.02-.27.068-.386.139-.195-.621-.307-1.273-.184-1.777a.994.994 0 01.48-.661c2.038-1.233 4.415-.883 4.436-.879a1.008 1.008 0 001.153-.771c.055-.232.491-2.216.173-3.878l1.316-2.21a18.131 18.131 0 001.896 2.077c-.432.792-.854 2.073-.253 3.532.242.587.803.99 1.455 1.456 1.66 1.191 2.101 1.789 1.444 2.982zm-3.745-12.44c-.186-.305-.557-.472-.875-.489a1.016 1.016 0 00-.87.496l-1.323 2.221c-.558-4.498-2.677-9.873-4.938-13.162-2.94-4.276-10.207-5.086-11.579-5.081a25.176 25.176 0 00-2.331-2.492c-6.033-5.608-4.05-10.092-3.953-10.299.009-.018.006-.037.014-.055.028-.065.038-.131.051-.2.012-.063.028-.123.028-.186 0-.064-.015-.125-.026-.188-.013-.065-.022-.129-.046-.19-.023-.056-.058-.104-.091-.157a.999.999 0 00-.126-.172c-.014-.014-.019-.033-.034-.046-.036-.033-.081-.046-.121-.073-.041-.028-.071-.067-.116-.089-.018-.009-.039-.007-.057-.015-.066-.028-.132-.04-.201-.053-.063-.012-.123-.028-.186-.028-.064-.001-.125.014-.188.026-.065.012-.129.021-.191.046-.057.022-.106.058-.158.091a.962.962 0 00-.172.126c-.014.014-.033.02-.046.034l-.002.002-.001.001c-6.903 7.541-14.129 8.438-17.872 8.281l4.343-2.896a19.765 19.765 0 002.571-1.717 1.018 1.018 0 00-1.192-1.647l-2.384 1.589a17.127 17.127 0 01-7.767 2.132l2.263-1.585c1.738-.841 3.635-2.102 5.633-3.961a1.018 1.018 0 00-1.277-1.578l-5.393 3.78c-2.562 1.207-4.661 1.355-6.07 1.226l7.711-5.629a1.017 1.017 0 00-.339-1.805c-12.571-3.345-15.593-6.762-16.274-8.501a3.145 3.145 0 01-.123-.37c.254.038.593.134.812.227 12.317 7.238 35.392 10.138 36.368 10.258.503.05.969-.253 1.104-.738.348-1.253 2.36-7.605 7.826-9.667 5.155-1.941 9.216 1.198 9.384 1.33.181.145.405.223.636.223 2.191 0 3.643.437 4.089 1.231.142.255.184.547.169.838a3.73 3.73 0 00-1.134-.359.995.995 0 00-.518.058c-.2.078-.706.112-1.152.143-1.435.099-3.604.248-4.83 2.073-.724 1.076-.965 2.508-.662 3.926.189.885.664 2.042 1.744 3.171.107.211.276.364.477.458.37.329.783.653 1.278.962 2.401 1.501 4.163 2.886 5.098 6.283.007.119.039.234.087.344.383 1.534.612 3.452.664 5.948.012.554.465.996 1.017.996h.022a1.017 1.017 0 00.996-1.039 36.411 36.411 0 00-.259-3.74c7.578 6.19 12.052 9.265 14.296 10.805.316.217.617.423.879.608-2.283.208-5.9-1.876-8.727-4.032a37.476 37.476 0 00-2.284-1.896 1.018 1.018 0 00-1.304 1.56c.257.235 1.077.969 2.231 1.861 1.332 1.211 2.361 2.354 2.684 3.012-1.584-.333-5.928-2.917-9.46-5.439a1.018 1.018 0 00-1.292 1.566c2.438 2.315 3.94 4.431 4.895 8.964v.001c.544 2.586 1.599 5.039 2.499 6.818-2.374-1.626-3.905-4.108-3.925-4.141zm23.203-2.822c-5.384.707-11.478-3.398-11.539-3.439a1.017 1.017 0 00-1.294 1.56c1.764 1.764 3.562 2.961 4.875 3.834.19.127.395.263.592.398-1.957-.097-5.358-2.304-7.235-3.84a1.018 1.018 0 00-1.396 1.473c.759.831 1.48 1.761 1.915 2.44-1.486-.543-3.994-1.971-5.807-3.13-.419-1.856-.935-3.367-1.569-4.647 5.91 3.52 6.905 2.333 7.278 1.884.217-.261.46-.709.387-1.369l-.001-.007c2.413 1.221 4.998 1.941 6.982 1.013.208-.097.507-.252.747-.498 3.662 2.046 5.577 3.577 6.16 4.312-.028.006-.061.01-.095.016zm-1.383-3.866c-1.123-.763-2.562-1.641-4.454-2.666-.039-.021-.082-.022-.122-.037.333.013.674.022 1.024.022.978 0 2.008-.067 3.029-.216.078.051.153.106.246.135 3.151.991 5.049 1.744 5.654 2.247-.808.351-3.134.58-5.377.515zm5.996-2.534s-.011.004-.018.004c-.818-.476-1.981-.944-3.461-1.454a.99.99 0 00.106-.345 1.012 1.012 0 00-.187-.694c1.728.414 3.274.576 4.479.362 1.517-.271 2.893-1.018 3.888-1.69h.002a97.87 97.87 0 007.638-.342c-2.685 1.657-7.26 3.932-12.447 4.159zm41.032-17.385c-1.384 1.742-4.527 4.591-10.238 7.158-7.798 3.506-19.312 4.205-24.112 4.34a.987.987 0 00-.042-.227 1.02 1.02 0 00-.852-.685c-.09-.01-5.243-.608-10.972-2.336 3.435.325 6.676.485 9.709.485 8.566 0 15.563-1.194 21.253-2.982.03-.005.059.003.088-.005 3.135-.821 10.607-3.882 14.621-5.526.192-.077.373-.151.545-.222zm-5.426-.971c-6.619 4.097-18.161 8.474-36.421 7.496.355-.172.587-.528.58-.928a1.02 1.02 0 00-.691-.944 43.5 43.5 0 01-2.731-1.036c2.795.082 6.433-.178 9.89-1.511a1.019 1.019 0 00-.016-1.905l-1.329-.487c3.373-.141 7.508-.583 10.392-1.797.454-.191.705-.68.597-1.161-.006-.025-.021-.045-.029-.069 6.093-1.527 17.312-5.049 28.894-12.304-2.493 4.145-9.74 11.854-30.249 16.7a1.02 1.02 0 00-.766 1.184c.104.537.614.889 1.152.813.153-.024 14.095-2.213 28.491-10.453-1.705 1.895-4.225 4.212-7.764 6.402z"/></svg>