<svg xmlns="http://www.w3.org/2000/svg" x="0" y="0" enable-background="new 0 0 512 512" version="1.1" viewBox="0 0 512 512" xml:space="preserve"><path fill="#73AF00" d="M0 0H512V73.14H0z"/><path fill="#FFE15A" d="M0 73.14H512V146.28H0z"/><path fill="#FF4B55" d="M0 146.29H512V219.43H0z"/><path fill="#73AF00" d="M0 438.86H512V512H0z"/><path fill="#FFE15A" d="M0 365.71H512V438.84999999999997H0z"/><path fill="#FF4B55" d="M0 292.57H512V365.71H0z"/><path fill="#464655" d="M512 219.428 230.803 219.428 16.764 0 0 0 0 512 16.764 512 230.803 292.572 512 292.572z"/><path fill="#F5F5F5" d="m0 512 243.84-249.979a8.624 8.624 0 0 0 0-12.043L0 0v512z"/><path fill="#FF4B55" d="M98.684 168.474 123.503 218.763 179 226.827 138.842 265.971 148.322 321.244 98.684 295.148 49.046 321.244 58.526 265.971 18.368 226.827 73.865 218.763z"/><path fill="#FFE15A" d="m163.076 261.007-65.957-51.059C89.402 191.864 78.433 180.2 69.122 180.2c-7.909 0-11.777 7.332-12.886 11.736-5.698 2.638-7.034 7.888-7.09 8.117-.092.377-.005.775.234 1.081.24.304.606.482.994.482l1.18-.021c5.299-.122 14.129-.355 16.387 16.481 1.409 10.511-.683 29.34-7.335 43.533-4.648 9.916-3.112 17.934-3.045 18.269.127.634.716 1.048 1.373 1.009.102-.01.348-.02.659-.031l5.336 30.171c.107.604.63 1.043 1.244 1.043h79.628c.583 0 1.089-.398 1.228-.964l8.895-36.535c.003-.011.015-.016.018-.027.005-.02-.001-.04.004-.06l2.826-11.605c2.09.247 3.335.377 3.403.384.604.077 1.094-.265 1.302-.788a1.266 1.266 0 0 0-.401-1.468z"/><g fill="#464655"><path d="m163.076 261.007-65.957-51.059C89.402 191.864 78.433 180.2 69.122 180.2c-7.909 0-11.777 7.332-12.886 11.736-5.698 2.638-7.034 7.888-7.09 8.117-.092.377-.005.775.234 1.081.24.304.606.482.994.482l1.18-.021c5.299-.122 14.129-.355 16.387 16.481 1.409 10.511-.683 29.34-7.335 43.533-4.648 9.916-3.112 17.934-3.045 18.269.127.634.716 1.048 1.373 1.009.102-.01.348-.02.659-.031l5.336 30.171c.107.604.63 1.043 1.244 1.043h79.628c.583 0 1.089-.398 1.228-.964l8.895-36.535c.003-.011.015-.016.018-.027.005-.02-.001-.04.004-.06l2.826-11.605c2.09.247 3.335.377 3.403.384.604.077 1.094-.265 1.302-.788a1.266 1.266 0 0 0-.401-1.468zm-100.183 1.675c6.02-12.84 9.266-32.161 7.552-44.942-2.444-18.227-12.674-18.799-18.199-18.689.783-1.522 2.411-3.759 5.556-5.041.39-.158.675-.504.76-.917.089-.423 2.24-10.365 10.559-10.365 8.217 0 18.585 11.458 25.8 28.509.084.201.219.375.39.507l62.639 48.492c-11.04-1.34-39.89-5.314-56.978-12.047-8.931-3.519-10.967-8.872-12.764-13.597a1.264 1.264 0 0 0-2.363.899c1.786 4.694 4.231 11.124 14.201 15.052 2.032.8 4.225 1.562 6.532 2.285-.402 1.218-2.958 7.426-14.292 11.498-9.185 3.301-15.72 8.865-16.614 13.89a876.668 876.668 0 0 0-8.869.008v-3.65c0-2.771 2.671-6.787 5.498-11.038 3.94-5.925 8.405-12.639 8.405-19.507a1.264 1.264 0 0 0-2.528 0c0 6.104-4.241 12.481-7.982 18.107-3.178 4.778-5.921 8.904-5.921 12.439v3.67c-1.908.02-3.403.046-4.378.074-.225-2.379-.355-8.488 2.996-15.637zm50.126-8.006c-1.462 4.063-5.79 5.44-9 5.88 3.479-3.091 4.652-5.95 4.982-6.995 1.311.384 2.656.754 4.018 1.115zm2.437.627c1.391.348 2.796.685 4.213 1.011-1.29 2.625-4.738 3.911-8.504 4.45 1.867-1.183 3.449-2.93 4.291-5.461zm35.733 28.032c-12.814-3.949-49.791-4.958-72.967-5.105.785-2.871 4.421-6.641 10.581-9.663.063.01.12.038.186.038 34.596.123 58.676 5.255 64.192 6.546l-1.992 8.184zm-1.631 6.698-5.055-5.638c2.41.419 4.462.887 6.086 1.404l-1.031 4.234zm-65.381.892 2.457 2.312c-.757-.006-1.502-.013-2.276-.018-.066-.741-.121-1.527-.181-2.294zm63.87 5.316-6.421-7.037a1.255 1.255 0 0 0-1.636-.197l-7.541 5.048-5.675-6.219a1.267 1.267 0 0 0-1.702-.15l-6.817 5.227-6.185-6.107a1.262 1.262 0 0 0-1.702-.067l-6.659 5.6-6.239-5.788a1.269 1.269 0 0 0-1.693-.023l-6.509 5.719-5.351-5.035c-.093-1.502-.176-3.05-.249-4.642l4.79 4.703c.467.461 1.21.481 1.71.056l6.701-5.77 6.122 6.028a1.27 1.27 0 0 0 1.697.071l6.723-5.602 6.451 6.078a1.26 1.26 0 0 0 1.636.082l6.748-5.174 5.645 6.478c.426.49 1.157.574 1.687.198l7.505-5.347 7.462 8.323c.089.099.201.16.31.224l-.808 3.323zm-3.795-.407c-2.012-.254-4.821-.556-8.628-.863l4.867-3.258 3.761 4.121zm-14.791-1.303a505.13 505.13 0 0 0-8.56-.461l4.789-3.672 3.771 4.133zm-13.855-.681a795.92 795.92 0 0 0-9.414-.294l4.923-4.142 4.491 4.436zm-14.427-.411c-2.914-.06-6.011-.11-9.268-.149l4.678-4.11 4.59 4.259zm-15.663-12.598c2.624.035 5.356.081 8.151.14l-4.266 3.674-3.885-3.814zm14.528.294c2.716.076 5.461.166 8.2.27l-4.293 3.577-3.907-3.847zm14.66.548c2.9.139 5.764.296 8.54.476l-4.429 3.397-4.111-3.873zm14.511.915c3.12.254 6.07.54 8.787.864l-4.957 3.531-3.83-4.395zm-67.066-1.795c3.798-.055 10.607-.087 18.912-.012.474 12.013 1.524 21.664 3.118 28.752H67.232l-5.083-28.74zm82.659 28.74H86.766c-.887-3.801-1.607-8.418-2.157-13.794 42.28.278 58.342 2.377 62.356 3.034.119.116.25.21.397.27l-2.554 10.49zm8.971-36.848c-5.344-1.25-27.406-5.932-59.232-6.542 2.243-.893 4.154-1.861 5.766-2.862.753.094 2.968.338 5.746.338 5.768 0 13.87-1.091 16.108-6.756 13.136 2.875 26.601 4.763 34.078 5.697l-2.466 10.125z"/><path d="M72.703 191.365c0-2.324-1.889-4.213-4.213-4.213s-4.213 1.889-4.213 4.213 1.889 4.213 4.213 4.213 4.213-1.889 4.213-4.213zm-4.213 1.685a1.686 1.686 0 1 1 .002-3.372 1.686 1.686 0 0 1-.002 3.372zM103.809 269.703c-2.284 0-4.142 1.858-4.142 4.142s1.858 4.142 4.142 4.142 4.144-1.858 4.144-4.142-1.86-4.142-4.144-4.142zm0 5.757a1.615 1.615 0 1 1 .002-3.228 1.615 1.615 0 0 1-.002 3.228zM116.195 270.409c-2.284 0-4.144 1.86-4.144 4.144s1.86 4.142 4.144 4.142 4.142-1.858 4.142-4.142-1.858-4.144-4.142-4.144zm0 5.758c-.89 0-1.616-.724-1.616-1.615 0-.89.726-1.616 1.616-1.616s1.614.726 1.614 1.616a1.615 1.615 0 0 1-1.614 1.615z"/></g></svg>