<svg xmlns="http://www.w3.org/2000/svg" viewBox="0 0 28.263 28.263"><g data-name="Group 125"><path fill="transparent" d="M11.425 22.849A11.425 11.425 0 1 0 0 11.425a11.434 11.434 0 0 0 11.425 11.424zm0-21.293a9.869 9.869 0 1 1-9.869 9.869 9.873 9.873 0 0 1 9.869-9.869z" data-name="Path 41" transform="translate(-39.352 -2841.964) rotate(-16 10152.895 1284.129)"/><path fill="transparent" stroke-width="1.5" d="M42.832 2855.546s5.058-4.853 19.355-5.55" data-name="Path 42" transform="translate(-39.352 -2841.964)"/><path fill="transparent" stroke-width="1.5" d="M44.403 2861.026s6.861 1.434 19.355-5.55" data-name="Path 43" transform="translate(-39.352 -2841.964)"/><g fill="transparent" stroke-width="1.5" data-name="Group 124"><path d="M0 1.453s6.355-3.27 20.652 0" data-name="Path 195" transform="translate(-39.352 -2841.964) rotate(74 -1860.411 1458.926)"/><path d="M0 7.155s6.355 3.27 20.652 0" data-name="Path 196" transform="translate(-39.352 -2841.964) rotate(74 -1860.411 1458.926)"/></g></g></svg>