<svg xmlns="http://www.w3.org/2000/svg" viewBox="0 0 20.271 20.791"><g stroke-linecap="round" stroke-linejoin="round" stroke-miterlimit="10" stroke-width="1.5"><path fill="transparent" d="M19.519 7.752A8.311 8.311 0 0 0 11.56.777a.714.714 0 0 0-.741.687h0v.064l.449 6.71a.824.824 0 0 0 .87.769l6.728-.449a.714.714 0 0 0 .653-.769z" transform="translate(-.006 -.027)"/><path fill="transparent" d="M6.901 4.769a.915.915 0 0 1 1.044.521.824.824 0 0 1 .082.3c.092 1.3.284 4.146.394 5.684a1.043 1.043 0 0 0 1.117.97h0l5.648-.348a.915.915 0 0 1 .97.915h0A7.7 7.7 0 0 1 1.73 16.009a7.323 7.323 0 0 1-.915-2.8 4.723 4.723 0 0 1-.059-.916 7.707 7.707 0 0 1 6.136-7.524" transform="translate(-.006 -.027)"/></g></svg>