<svg xmlns="http://www.w3.org/2000/svg" viewBox="0 0 23.381 24.35"><g data-name="Group 107"><path d="M170.935 269.167h-1.522a.833.833 0 0 0-.83.83v1.383a.833.833 0 0 0 .83.83h1.522a.833.833 0 0 0 .83-.83V270a.833.833 0 0 0-.83-.833z" data-name="Path 184" transform="translate(-160.835 -256.024)"/><path d="M270.794 271.381V270a.833.833 0 0 0-.83-.83h-1.384a.833.833 0 0 0-.83.83v1.383a.833.833 0 0 0 .83.83h1.383a.833.833 0 0 0 .831-.832z" data-name="Path 185" transform="translate(-255.16 -256.024)"/><path d="M170.935 175.667h-1.522a.833.833 0 0 0-.83.83v1.384a.833.833 0 0 0 .83.83h1.522a.833.833 0 0 0 .83-.83V176.5a.833.833 0 0 0-.83-.833z" data-name="Path 186" transform="translate(-160.835 -167.089)"/><path d="M268.58 178.711h1.383a.833.833 0 0 0 .83-.83V176.5a.833.833 0 0 0-.83-.83h-1.383a.833.833 0 0 0-.83.83v1.383a.833.833 0 0 0 .83.828z" data-name="Path 187" transform="translate(-255.16 -167.089)"/><path d="M170.935 85h-1.522a.833.833 0 0 0-.83.83v1.383a.833.833 0 0 0 .83.83h1.522a.833.833 0 0 0 .83-.83V85.83a.833.833 0 0 0-.83-.83z" data-name="Path 188" transform="translate(-160.835 -80.849)"/><path d="M268.58 88.044h1.383a.833.833 0 0 0 .83-.83V85.83a.833.833 0 0 0-.83-.83h-1.383a.833.833 0 0 0-.83.83v1.383a.833.833 0 0 0 .83.831z" data-name="Path 189" transform="translate(-255.16 -80.849)"/><path d="M29.285 4.441V.83a.833.833 0 0 0-.83-.83h-13.7a.833.833 0 0 0-.83.83v3.611l-3.777 3.9a.816.816 0 0 0-.235.581v14.6a.833.833 0 0 0 .83.83h7.609a.82.82 0 0 0 .706-.4.838.838 0 0 0 .4-.706v-3.185h4.289v3.182a.847.847 0 0 0 .595.8.814.814 0 0 0 .65.3h7.471a.833.833 0 0 0 .83-.83V8.924a.816.816 0 0 0-.235-.581zM11.576 9.256l2.352-2.435V22.69h-2.352zm7.056 9.144a.833.833 0 0 0-.83.83v3.46h-2.214V1.66h12.037v21.03h-2.214v-3.459a.833.833 0 0 0-.83-.83h-5.949zm13 4.289h-2.347V6.821l2.352 2.435z" data-name="Path 190" transform="translate(-9.916)"/></g></svg>