<svg xmlns="http://www.w3.org/2000/svg" viewBox="0 0 40.099 37.822"><g data-name="Group 302"><g data-name="Path 199"><path d="M12.56-17S25.119-1.672 25.119 5.265A12.56 12.56 0 1 1 0 5.265C0-1.672 12.56-17 12.56-17z" transform="translate(-22.184 -18.097) translate(37.163 35.097)"/><path d="M12.56-13.768a121.277 121.277 0 0 0-4.635 6.436C2.77.39 2 3.875 2 5.265c0 5.823 4.737 10.56 10.56 10.56 5.822 0 10.56-4.737 10.56-10.56 0-1.39-.77-4.875-5.926-12.597a121.277 121.277 0 0 0-4.634-6.436m0-3.232S25.12-1.672 25.12 5.265c0 6.937-5.624 12.56-12.56 12.56C5.623 17.825 0 12.202 0 5.265S12.56-17 12.56-17z" transform="translate(-22.184 -18.097) translate(37.163 35.097)"/></g><path stroke="#fff" stroke-width="2" d="M46.99 22.484H25.31v32.435h19.259v-5.068" data-name="Path 201" transform="translate(-22.184 -18.097)"/><path stroke="#fff" stroke-linecap="round" stroke-width="2" d="M23.185 32.785h15.979" data-name="Path 202" transform="translate(-22.184 -18.097)"/><path stroke="#fff" stroke-linecap="round" stroke-width="2" d="M23.184 44.393h15.979" data-name="Path 203" transform="translate(-22.184 -18.097)"/></g></svg>