<svg xmlns="http://www.w3.org/2000/svg" data-name="Group 7" viewBox="0 0 24.718 18.164"><path d="M242 32.581a5.515 5.515 0 0 1-3.261 4.993c-.192.1-.392.187-.592.273-.744.317-.746.317-1.324-.264a2.926 2.926 0 0 1-.943-2.5c.029-.25.1-.4.415-.428a8.77 8.77 0 0 0 2.909-.718 2.909 2.909 0 0 0 1.681-1.727 1.843 1.843 0 0 1 .256-.551.577.577 0 0 1 .418-.228.518.518 0 0 1 .348.321 4.782 4.782 0 0 1 .093.829z" data-name="Path 2" transform="translate(-217.278 -31.432)"/><path d="M195.365 35.643a3.206 3.206 0 0 1-1.459 2.37.318.318 0 0 1-.256.045c-2.08-.733-3.715-1.946-4.259-4.207a7.914 7.914 0 0 1-.093-1.981.609.609 0 0 1 .379-.43.544.544 0 0 1 .441.3c.565 1.9 2.112 2.447 3.809 2.79.226.046.456.073.685.1.703.07.752.122.753 1.013z" data-name="Path 3" transform="translate(-189.28 -31.435)"/><path d="M214.31 39.013a4.264 4.264 0 0 1-1.359-2.447 13.119 13.119 0 0 1-.012-1.673 26.131 26.131 0 0 1-5.235-2.634 24.381 24.381 0 0 1-5.014 2.678.856.856 0 0 0-.023.185 4.162 4.162 0 0 1-1.424 3.987c-.566.544-1.09 1.132-1.628 1.695.721.94 1.615.961 2.93.084.054.092.115.179.16.274.562 1.206 1.115 2.416 1.686 3.617a.435.435 0 0 1-.058.538 1.87 1.87 0 0 0-.276.507 2.641 2.641 0 0 0 1.169 3.139l1.229.742a2.693 2.693 0 0 0 2.749.021l1.21-.705a2.649 2.649 0 0 0 1.309-2.723 2.267 2.267 0 0 0-.408-.987.443.443 0 0 1-.051-.542c.575-1.214 1.138-2.435 1.707-3.652a1.875 1.875 0 0 1 .147-.225c1.27.877 2.257.847 2.913-.1-.571-.592-1.136-1.192-1.721-1.779zm-10.489 1.6c-.138-.457-.052-.584.422-.623.081-.007.162 0 .244 0 1 .006 1.532.585 1.4 1.5-.032.224-.115.331-.357.337a1.829 1.829 0 0 1-1.709-1.217zm2.033 6.629a.57.57 0 0 1-.541-.592.541.541 0 0 1 .588-.535.517.517 0 0 1 .514.562.554.554 0 0 1-.561.562zm3.929 0a.569.569 0 0 1-.552-.542.558.558 0 0 1 .538-.591.55.55 0 0 1 .566.558.557.557 0 0 1-.552.572zm.272-5.436a.416.416 0 0 1-.271-.267A1.2 1.2 0 0 1 210.87 40a8.689 8.689 0 0 1 .974-.006 1.677 1.677 0 0 1-1.79 1.806z" data-name="Path 4" transform="translate(-195.493 -31.929)"/></svg>