<svg xmlns="http://www.w3.org/2000/svg" viewBox="0 0 20.846 22.318"><g data-name="Group 13"><path d="M288.371 46.1c-.564-1.907-1.152-3.807-1.734-5.726l.53-.368a3.128 3.128 0 0 0-.067-5.224 1.613 1.613 0 0 0-2.314.408c-.345.447-.672.909-.878 1.189a30.86 30.86 0 0 0-11.28.005c-.709-.706-1.012-2.34-2.664-1.836a3.146 3.146 0 0 0-2.068 2.592c-.342 1.615.707 2.483 2.009 3.18-.312 1.068-.61 2.094-.914 3.12s-.654 2.053-.924 3.094a4.739 4.739 0 0 0 2.4 5.687c2.533 1.328 5.2 3.763 7.768 4.551 2.486-.679 5.063-3.1 7.513-4.371 2.611-1.355 3.452-3.511 2.623-6.301zm-15.178-4.819a11.432 11.432 0 0 1 1.3.008 1.546 1.546 0 0 1 1.415 2 .61.61 0 0 1-.387.395 2.235 2.235 0 0 1-2.328-2.405zm9.455 9.164a4.462 4.462 0 0 1-8.8-1.21 6.379 6.379 0 0 1 2.456-4.449 2.848 2.848 0 0 1 3.911-.03 6.089 6.089 0 0 1 2.433 5.687zm-1.624-6.759a.609.609 0 0 1-.387-.395 1.546 1.546 0 0 1 1.414-2 11.434 11.434 0 0 1 1.3-.008 2.235 2.235 0 0 1-2.327 2.401z" data-name="Path 1" transform="translate(-225.551 -347.018) translate(-42.28 312.568)"/><path d="M286.344 62.949a3.233 3.233 0 0 1-2.117-1.206 1.5 1.5 0 0 1-.012-2.086 3.1 3.1 0 0 1 4.218-.06 1.564 1.564 0 0 1-.158 2.346 3.132 3.132 0 0 1-1.931 1.006z" data-name="Path 5" transform="translate(-225.551 -347.018) translate(-50.37 300.232)"/><path d="M287.235 66.212a1.027 1.027 0 0 1 .192.363 1.235 1.235 0 0 1 .061.421 1.191 1.191 0 0 1-.122.506 1.116 1.116 0 0 1-.171.227.713.713 0 0 1-.223.162.69.69 0 0 1-.234.08.606.606 0 0 1-.212.014.788.788 0 0 1-.3-.063.94.94 0 0 1-.1-.046s.039-.022.1-.052a2.489 2.489 0 0 0 .243-.116 1.161 1.161 0 0 0 .265-.181.631.631 0 0 0 .106-.117.672.672 0 0 0 .088-.137 2.892 2.892 0 0 0 .216-.681c.047-.215.091-.38.091-.38z" data-name="Path 6" transform="translate(-225.551 -347.018) translate(-51.549 296.476)"/><path d="M288.978 66.212s.044.165.09.38a2.868 2.868 0 0 0 .216.681.692.692 0 0 0 .088.137.649.649 0 0 0 .107.117 1.151 1.151 0 0 0 .265.181 2.439 2.439 0 0 0 .243.116c.063.031.1.052.1.052a.943.943 0 0 1-.1.046.789.789 0 0 1-.3.063.6.6 0 0 1-.211-.014.686.686 0 0 1-.234-.08.707.707 0 0 1-.223-.162 1.115 1.115 0 0 1-.171-.227 1.19 1.19 0 0 1-.122-.506 1.235 1.235 0 0 1 .061-.421 1.018 1.018 0 0 1 .191-.363z" data-name="Path 7" transform="translate(-225.551 -347.018) translate(-52.866 296.476)"/></g></svg>