<svg xmlns="http://www.w3.org/2000/svg" data-name="Iconly/Light/Message" viewBox="0 0 28 28"><g stroke="#200e32" stroke-linecap="round" stroke-linejoin="round" stroke-miterlimit="10" stroke-width="1.5"><path d="m17.813 6.488-4.977 4.007a2.594 2.594 0 0 1-3.2 0L4.613 6.488" transform="translate(2.333 4.083)"/><path d="M5.7 0h11a5.783 5.783 0 0 1 4.177 1.855 5.853 5.853 0 0 1 1.547 4.321v7.616a5.853 5.853 0 0 1-1.547 4.321 5.783 5.783 0 0 1-4.177 1.856h-11c-3.4 0-5.7-2.769-5.7-6.177V6.176C0 2.771 2.3 0 5.7 0z" transform="translate(2.333 4.083)"/></g></svg>