<svg xmlns="http://www.w3.org/2000/svg" viewBox="0 0 27.933 20.537"><g data-name="Group 318"><g data-name="Path 229"><path d="M11.967 2c9.748 0 13.967 10.268 13.967 10.268s-4.229 10.269-13.967 10.269S-2 12.268-2 12.268 2.218 2 11.967 2z" transform="translate(-43.659 -158.232) translate(45.659 156.232)"/><path d="M11.967 3.5c-3.568 0-6.75 1.535-9.457 4.562a19.727 19.727 0 0 0-2.855 4.206c.429.855 1.371 2.545 2.858 4.206 2.71 3.028 5.89 4.563 9.454 4.563 3.563 0 6.744-1.535 9.453-4.563a19.767 19.767 0 0 0 2.858-4.206 19.725 19.725 0 0 0-2.855-4.206C18.716 5.035 15.534 3.5 11.967 3.5m0-1.5c9.748 0 13.966 10.268 13.966 10.268s-4.228 10.269-13.966 10.269C2.228 22.537-2 12.268-2 12.268S2.218 2 11.967 2z" transform="translate(-43.659 -158.232) translate(45.659 156.232)"/></g><path stroke="#fff" stroke-linecap="round" stroke-linejoin="round" stroke-miterlimit="10" stroke-width="1.5" d="m53.347 171.162 2.867-3.726 3.27 2.569 2.806-3.621" transform="translate(-43.659 -158.232)"/></g></svg>