<svg id="Layer_1" data-name="Layer 1" xmlns="http://www.w3.org/2000/svg" viewBox="0 0 256 256"><title>Artboard 10</title><path d="M116.456,120.163a8.564,8.564,0,0,0-12.119,0l0,0,0,0a8.57,8.57,0,0,0,11.995,12.241c.045-.039.09-.079.133-.122a8.564,8.564,0,0,0,0-12.119Zm-2.918,9.2-.084.09a4.444,4.444,0,0,1-6.2-6.37l0,0a4.438,4.438,0,0,1,6.276,6.276Z"/><path d="M237.893,20.515a3.093,3.093,0,0,0-2.792-1.762C146.785,18.541,90,107.322,81.937,120.722l-.009.013c-.179.262-.363.551-.551.868l-.005,0c-.179.3-.358.633-.531.986l-.069.15c-2.385,4.748-10.278,15.063-19.678,26.583-14.371,17.612-32.182,37.894-39.439,45.688-12.9,13.853-2.767,37.93-1.758,40.224.021.055.042.11.066.164a3.1,3.1,0,0,0,4.086,1.588c72.368-31.877,97.107-74.578,99.574-79.1l5.576-6,0,0,.026-.029,0,0,.029-.033.01-.011.019-.022.023-.027.006-.007.028-.034.008-.009.02-.026.02-.025.007-.01.026-.035.005-.006.021-.029.017-.024.009-.012.025-.037,0,0,.021-.032.015-.022.009-.015.023-.038,0,0,.021-.036.012-.02.01-.018.022-.038h0l.021-.039.01-.019.011-.02.019-.038v0l.019-.04.009-.017.01-.023.017-.037v0l.035-.081.015-.036,0-.005.016-.042.006-.015.009-.027.013-.036,0-.006.014-.042,0-.014.009-.029.011-.034,0-.008.013-.043,0-.014.008-.029.009-.035,0-.008a3.107,3.107,0,0,0,.095-.73,38.451,38.451,0,0,1,1.591-9.11c3.555-12.358,12.606-27.02,24.45-38.5,11.68-11.321,26-19.459,40.23-18.986a34.164,34.164,0,0,1,8.332,1.321v0a3.092,3.092,0,0,0,2.484-.349c47.718-29.764,30.835-63.563,30.789-63.66ZM24.474,230c-1.855-5.106-5-16.023-1.88-24.776,8.776-6.593,45.094-34.164,59.378-49.563,2.9,1.118,11.188,5.047,23.454,16.859C92.074,187.952,67.065,210.723,24.474,230Zm94.354-76.062a3.1,3.1,0,0,0-.563.851A96.388,96.388,0,0,1,108.1,169.351c-16.107-15.432-26.17-18.065-26.2-18.072v.005a2.062,2.062,0,0,0-2.068.617C70,162.88,46.915,181.322,31.951,192.89c8.795-9.822,22.448-25.577,33.943-39.666,7.249-8.884,13.66-17.143,17.512-22.92,8.5,14.807,20.348,20.247,29.623,22.082l.013,0q.805.159,1.583.284l.053.009c1.041.165,2.042.287,2.995.374l.477.041.4.03.164.011.364.024.451.025Zm86.136-75.747a40.541,40.541,0,0,0-8.475-1.174c-16.1-.535-31.97,8.354-44.74,20.731-12.606,12.218-22.271,27.928-26.1,41.24a47.7,47.7,0,0,0-1.62,8h0l-.147.01-.053,0-.23.013-.192.011-.036,0-.323.015-.405.015h-.068l-.4.008-.147,0-.338,0h-.159l-.38,0h-.092l-.519-.011h-.009l-.551-.021-.059,0-.514-.027-.074,0-.5-.035-.111-.008c-.6-.047-1.219-.109-1.864-.192l-.072-.009-.578-.079-.11-.016c-.195-.029-.392-.059-.59-.092l-.067-.011c-.455-.076-.92-.162-1.393-.259l-.059-.013c-.219-.045-.439-.093-.662-.144l-.066-.015c-.214-.049-.431-.1-.649-.154l-.095-.023q-1.1-.276-2.25-.64l-.03-.01q-.365-.117-.733-.244l-.056-.019q-.379-.131-.762-.273h0q-.785-.293-1.583-.631l-.047-.02q-.373-.16-.748-.331l-.053-.025q-.381-.174-.764-.36l-.028-.013q-1.188-.58-2.384-1.279l-.139-.083c-.214-.127-.429-.258-.643-.391l-.154-.1q-.331-.209-.663-.427l-.114-.076q-.794-.529-1.585-1.118l-.052-.039q-.347-.26-.693-.533l-.164-.13q-.329-.261-.656-.535l-.1-.083q-.377-.317-.751-.648l-.019-.017q-.761-.676-1.51-1.419l-.184-.185q-.293-.294-.584-.6l-.154-.162q-.308-.326-.614-.665l-.124-.137q-.732-.819-1.445-1.71l-.15-.191q-.275-.347-.547-.706l-.191-.254q-.253-.34-.5-.689l-.2-.273q-.3-.426-.6-.868l-.061-.09q-.348-.52-.689-1.061l-.039-.063c-.2-.317-.4-.64-.592-.968l-.192-.326q-.219-.374-.436-.758l-.206-.368q-.24-.434-.476-.88l-.131-.247q-.308-.591-.609-1.2l.051-.085c.029-.048.056-.095.081-.144C94.9,111.16,149.122,26.163,233.017,24.967,235.313,31.588,240.393,55.528,204.964,78.192Z"/></svg>