<svg id="Layer_1" data-name="Layer 1" xmlns="http://www.w3.org/2000/svg" viewBox="0 0 256 256"><title>Artboard 6</title><path d="M49.365,198.634l0,0,0,0a8,8,0,0,0-11.2-.124c-.046.039-.091.08-.136.124l0,0a8.023,8.023,0,1,0,11.346,0Zm-2.924,8.422a3.885,3.885,0,0,1-5.494-5.494l0,0,.083-.088a3.9,3.9,0,0,1,5.411.084l0,0,0,0a3.887,3.887,0,0,1,0,5.494Z"/><path d="M192.65,77.194c17.337-15.928,34.578-31.768,47.563-48.782a3.1,3.1,0,0,0-2.292-4.971c-44.2-5.6-97.89,40.758-125.332,74.484l-.031.039-.019.024-.027.035-.021.028-.024.032-.023.032-.02.029-.024.036-.018.027h0l-.04.063-.025.042-.014.024-.025.044-.012.022-.025.046c-.14-.011-.334,1.2-.35,1.3h0v.3h0v.077l0,.02,0,.019,0,.019v.019l0,.019,0,.02,0,.019v.019l0,.019,0,.019,0,.019v.005l0,.014,0,.019,0,.019,0,.019v0l.01.055,0,.018h0l.008.038,0,.019,0,.015v0l.009.038,0,.019,0,.013,0,.006,0,.019,0,.019c.067.429.292,4.439-11.974,15.43-15.361,13.766-53.532,49.817-65.908,66.319-10.748,14.331-14.4,12.232-14.41,12.227a3.091,3.091,0,0,0-4.463,3.441l-.011,0c.015.065,5.162,22.632,26.192,34.537a3.1,3.1,0,0,0,3.951-.765l0,0c.043-.054,15.073-19.016,22.105-20.815a3.085,3.085,0,0,0,1.505-.89,958.914,958.914,0,0,0,79.44-83.578,3.1,3.1,0,0,0-.09-4.1l-.282-.336C160.7,106.547,176.717,91.832,192.65,77.194Zm39.075-48.031c-2.759,3.376-5.687,6.717-8.747,10.032-10.312,3.8-49.241,19.669-81.471,53.07l-12.367-3.6C149.275,67.41,192.067,28.011,231.725,29.163ZM65.112,205.3c-7.334,2.616-18.591,15.481-22.865,20.6-12.251-7.895-17.792-19.816-19.895-25.7,3.826-1.061,9.513-4.481,16.7-14.069,12.008-16.011,50.273-52.15,65.083-65.422,8.582-7.691,11.931-13.383,13.2-16.985,8.619,3.318,19.648,15.148,24.208,20.344a2.967,2.967,0,0,0,.248.285l.015.015.182.209A947.859,947.859,0,0,1,65.112,205.3Zm78.775-87.853c-5.48-5.932-15.01-15.326-23.526-19.109,1.415-1.634,3.312-3.779,5.626-6.295l15.467,4.5a2.066,2.066,0,0,0,2.17-.528c25.987-27.293,56.616-42.825,72.493-49.637-8.7,8.839-18.169,17.534-27.663,26.256C172.622,87.182,156.707,101.8,143.887,117.451Z"/></svg>