<svg xmlns="http://www.w3.org/2000/svg" data-name="Layer 1" viewBox="0 0 256 256"><path d="M114.71 115.557a8.078 8.078 0 105.711 13.79 8.074 8.074 0 00-5.711-13.782zm2.789 10.869a3.943 3.943 0 111.153-2.786 3.929 3.929 0 01-1.152 2.782z"/><path d="M230.506 26.808c-9.263-6.142-22.876-9.388-28.574-6.348-4.307 2.3-33.38 21.424-63.4 48.492-16.659 15.019-33.684 32.538-47.086 51.1a3.084 3.084 0 00-.525 2.4h-.008c0 .012.146.774.52 2.02q-.114.221-.2.422h.01c-3.308 7.43-36.105 44.577-36.2 44.684-.755.839-20.7 23.011-22.19 28.483-1.18 4.328-16.18 31.957-17.251 33.927a3.1 3.1 0 003.114 4.672c18.282-2.778 37.3-13.881 54.825-27.381 17.358-13.37 33.19-29.007 45.355-41.173l-.011-.011a3.09 3.09 0 00.338-3.966c-5.665-8 1.393-16.9 2.34-18.035l.023-.023.011-.011.012-.013.021-.022.022-.025.008-.009.032-.036.021-.025.006-.008.015-.018.016-.019.005-.006.02-.026v-.005l.017-.021.013-.018.007-.009.019-.027c.871-1.05 7.816-8.85 20.485-6.679a3.1 3.1 0 003.611-3.314c.006-2.764 1.212-32.442 49.993-60.9 12.959-7.559 22.1-12.642 28.61-16.259 2.482-1.38 4.592-2.553 6.154-3.436a3.84 3.84 0 00.166-.1c7.341-4.2 10.144-9 9.985-13.782a14.122 14.122 0 00-3.293-8.206 30.037 30.037 0 00-7.036-6.289zM69.753 204.382c-14.727 11.344-30.451 20.9-45.625 24.835 3.892-7.27 10.342-19.487 13.262-25.958 6.147-4.712 24.193-18.713 35.227-29.023 5.8-5.418 11.717-7.764 17.493-7.926 5.718-.16 11.384 1.8 16.712 5.037-10.747 10.574-23.508 22.59-37.069 33.035zm43.038-38.954q-1.444 1.441-2.951 2.937C103.629 164.421 96.9 162 90 162.188c-6.753.189-13.6 2.861-20.194 9.025-7.928 7.408-19.453 16.7-27.534 23.044 5.941-7.85 17.356-20.51 17.4-20.557l.023-.026c.084-.1 26.027-29.471 34.726-42.18l.219.384.023.041.008.014.086.147.087.148.088.148.089.148.091.148a29.036 29.036 0 0018.9 13.621c-2.484 4.475-5.043 11.775-1.221 19.136zM227.8 49.705c-.055.028-.11.056-.164.086a949.386 949.386 0 01-6.106 3.413c-6.639 3.691-15.97 8.878-28.707 16.307-44.082 25.717-51.567 53.459-52.823 63.061a28.076 28.076 0 00-21.91 8.128 23.468 23.468 0 01-13.218-5.822l-.012-.01-.008-.007-.208-.191-.035-.033a27.165 27.165 0 01-6.876-10.8l-.036-.1c-.16-.471-.288-.89-.388-1.243 12.953-17.689 29.317-34.471 45.372-48.946 29.636-26.72 57.991-45.416 62.165-47.643 3.931-2.1 14.556.958 22.246 6.058a23.908 23.908 0 015.59 4.92 8.147 8.147 0 011.984 4.593c.079 2.558-1.851 5.362-6.866 8.229z"/></svg>