<svg xmlns="http://www.w3.org/2000/svg" data-name="Layer 1" viewBox="0 0 256 256"><path d="M24.028 209.708h-.012l2.158 28.272a3.1 3.1 0 0 0 5.363 1.88l122-117.97q1.77.407 3.643.743a3.1 3.1 0 0 0 2.519-.661c1.431-1.049 10.371-7.8 9.431-12.025a12.9 12.9 0 0 0-1.382-3.143c-1.561-2.9-4.238-7.862.325-11.188a208.187 208.187 0 0 0 25.958-22.436 112.064 112.064 0 0 0 17.145-22.21 3.23 3.23 0 0 0 .161-.332c.555-1.094 3.259-6.35 3.8-5.963 2.184 1.56 4.981 3.075 7.894 3.037 3.341-.043 6.411-1.856 8.244-7.154 1-2.883.98-7.389-.31-11.715a21.406 21.406 0 0 0-5.173-9.014 15.581 15.581 0 0 0-10.569-4.661c-3.969-.184-8.666.959-14.134 4.052-14.7 8.315-39.117 35.343-57.8 56.018-9.9 10.962-18.17 20.111-22.234 23.445a3.093 3.093 0 0 0-.52 4.231l.016.022-95.722 104.457a3.08 3.08 0 0 0-.801 2.315zm7.828 21.232-.21-2.753 96.564-102.262 9.372 2.78zM147.878 79.385C166.26 59.04 190.29 32.443 204.146 24.6c4.359-2.466 7.929-3.386 10.812-3.252a9.5 9.5 0 0 1 6.446 2.842 15.258 15.258 0 0 1 3.621 6.419c.931 3.125 1.02 6.159.407 7.932-.768 2.219-1.64 2.973-2.474 2.984-1.261.016-2.875-.927-4.232-1.9-5.955-4.254-11.943 6.405-12.888 8.19l-.068.117a105.963 105.963 0 0 1-16.2 20.949 201.438 201.438 0 0 1-25.134 21.733c-8.939 6.515-4.648 14.473-2.145 19.117.429.8.778 1.443.8 1.543.1.47-4.069 3.547-6.086 5-2-.394-3.891-.855-5.683-1.368l-.4-.116-.264-.078a60.67 60.67 0 0 1-12.079-5.041 48.951 48.951 0 0 1-11.2-8.355c4.721-4.466 12.021-12.545 20.499-21.931zm-23.07 28.056a57.282 57.282 0 0 0 10.764 7.647 65.777 65.777 0 0 0 6.9 3.306h.009q.448.184.9.364l.014.005h.006q.422.165.852.328l.181.068c.235.089.473.175.711.262l.317.114.194.068.195.069.2.068.393.135.2.067-5.65 5.464-12.8-3.8a2.063 2.063 0 0 0-2.115.557L31.222 222.624l-.92-12.058z"/></svg>