<svg id="Layer_1" data-name="Layer 1" xmlns="http://www.w3.org/2000/svg" viewBox="0 0 256 256"><title>Artboard 15</title><path d="M39.214,171.021A7.112,7.112,0,1,0,29.155,181.08l0,0a7.09,7.09,0,0,0,10.043.007l0,0,0,0,0,0a7.089,7.089,0,0,0,.127-9.911Q39.28,171.088,39.214,171.021ZM36.3,178.154l-.008.008a2.995,2.995,0,0,1-4.207,0l0,0,0,0a2.975,2.975,0,0,1,4.207-4.207l.086.081a3,3,0,0,1-.078,4.126Z"/><path d="M230.122,158.317c-7.962-9.87-62.865-70.387-63.031-70.57a3.081,3.081,0,0,0-1.239-.832l0,0c-.106-.039-36.919-13.24-63.882-33.973A3.095,3.095,0,0,0,97.1,56.211c.017.061,5.746,21.36,33.3,45.718,26.739,23.634,58.742,56.594,58.835,56.689a3.075,3.075,0,0,0,1.638.882v0l1.717.33a10.914,10.914,0,0,0-.562,2.876c-5.4,3.119-13.485,6.275-28.321-.8-9.522-4.541-24.295-3.966-44.089-3.194-16.92.659-37.621,1.466-61.6-.681,4.435-6.326,9.49-13.579,14.363-20.67,5.793-8.427,11.151-16.381,14.5-21.7.038-.052.074-.106.109-.162,10.949-17.458,8.49-39.048,8.484-39.11h-.005a3.092,3.092,0,0,0-3.887-2.656c-10.661,2.917-24.539,20-36.792,38.327-11.445,17.118-21.561,35.318-26.075,43.677a19.546,19.546,0,0,0-10.395,8.47A21.252,21.252,0,0,0,15.168,174.5a20.123,20.123,0,0,0,3.04,11.405c4.119,6.7,12.863,12.769,28.457,15.794a3.045,3.045,0,0,0,.552.1,117.2,117.2,0,0,0,17.171,1.81c14.006.523,47.943-1.154,81.856-3.22,34.042-2.074,67.813-4.516,81.669-5.539,9.277-.684,13.256-8.439,12.914-17.516C240.551,170,236.9,159.366,230.122,158.317Zm-67.1-65.85c5.038,5.557,45.895,50.638,58.828,65.584l-.267,0h-.032l-.15,0-.107,0h-.044l-.3,0-.153,0h-.153l-.62,0h-3.7l-.164,0H216l-.165,0h-.165l-.165,0h-.015l-.15,0-.166,0h0l-.637.01h-.026c-1,.018-2,.043-2.994.077a75.149,75.149,0,0,0-11.839,1.173l.026-.04,0,0a3.1,3.1,0,0,0-.067-3.532l2.492-11.261a2.067,2.067,0,0,0-.768-2.262c-20.733-15.069-56.415-47.591-79.035-68.684A309.854,309.854,0,0,0,163.027,92.467ZM134.5,97.3c-13.845-12.238-21.834-23.473-26.291-31.349,19.591,18.488,64.571,60.332,89.631,78.809l-2.074,9.376-2.775-.534C188.218,148.713,159.215,119.145,134.5,97.3ZM59.933,115.5C70,100.449,80.978,86.351,89.532,81.324a67.883,67.883,0,0,1-1.466,14.838c-6.538,6.5-29.813,30.609-46.283,60q-2.374-.335-4.784-.714l-.063-.01-.922-.148C41.071,146.073,50.023,130.325,59.933,115.5ZM44.427,194.922c-11.413-2.728-17.875-7.293-20.934-12.269a14.02,14.02,0,0,1-2.142-7.937,15.028,15.028,0,0,1,2.257-7.258,12.973,12.973,0,0,1,7.676-6.021l.175-.032a9.048,9.048,0,0,1,1.079-.167l.023,0,.023,0,.023,0,.023,0,.023,0,.023,0,.023,0h.023l.181-.009h0c.254-.009.507-.005.761.01h.006l.16.012.023,0h0l6.033.909q2.295.332,4.555.626Zm1.765-38.165c12.966-22.7,29.878-42.047,39.317-52.046a45.229,45.229,0,0,1-3.755,7.492c-.036.058-.071.117-.1.176-3.184,5.065-8.52,12.978-14.358,21.471C61.947,141.627,56,150.133,50.953,157.324Q48.592,157.06,46.192,156.756Zm181.284,31.913c-13.965,1.03-47.929,3.487-81.6,5.538-33.8,2.058-67.549,3.733-81.274,3.22a118.373,118.373,0,0,1-14-1.293l.019-32.616.05.005,1.173.127.052.005.078.009c.09.014.181.023.272.028,26.557,2.8,49.259,1.92,67.583,1.206,18.912-.737,33.026-1.287,41.2,2.613,19.748,9.418,29.617,3.351,36.161-.672l.032-.019.031-.019h0l.26-.16.263-.164,0,0,.011-.008.005,0,.032-.019.006,0,.008,0,.081-.051h0l.011-.006h0l.011-.007h0l.022-.013h0l.01-.006.033-.021,0,0,.006,0,.029-.018h0l.02-.013h0l.01-.006,0,0,.007,0,0,0,.006,0,.007,0,0,0,.009-.005h0l.011-.006h0l.01-.006,0,0,.008,0,.005,0,.005,0,.008-.005,0,0,.01-.006h0l.012-.007h0l.01-.006,0,0,.008,0,.007,0,.005,0,.01-.006,0,0,.013-.008.091-.053,0,0,.091-.049.01-.005c.149-.033,1.515-1.215,11.566-1.675l.107-.005.169-.007.833-.034.738-.027.118,0,.175-.006.42-.013c.1,0,4.429-.082,5.9-.078,2.46.007,9.838.186,9.838.186h.01l.821.031c2.417.095,5.254,7.366,5.47,13.123C234.855,183.136,233.092,188.255,227.476,188.669Z"/><path d="M223.241,170.65l0,0,0,0a9.321,9.321,0,0,0-13.194,0l0,0,0,0,0,0a9.32,9.32,0,0,0,0,13.194l0,0,0,0,0,0a9.321,9.321,0,0,0,13.195,0l0,0,0,0,0,0a9.321,9.321,0,0,0,0-13.194Zm-2.918,10.279-.008.008a5.226,5.226,0,0,1-7.362,0l-.008-.008a5.226,5.226,0,0,1,0-7.362l.008-.008a5.226,5.226,0,0,1,7.362,0l.008.008a5.226,5.226,0,0,1,0,7.362Z"/></svg>