<svg id="Layer_1" data-name="Layer 1" xmlns="http://www.w3.org/2000/svg" viewBox="0 0 256 256"><title>Artboard 3</title><path d="M18.455,240.524a3.071,3.071,0,0,0,1.249.313v0c.085,0,29.723,1.347,54.421-28.247C88,195.965,97.158,183.471,103.014,175.48c3.992-5.447,6.376-8.7,7.327-9.4a3.1,3.1,0,0,0,1.256-2.747l-.149-3.892,6.033-5a23.615,23.615,0,0,0,4.882,1.2,17.107,17.107,0,0,0,6.3-.193,7.827,7.827,0,0,0,4.947-3.42,8.622,8.622,0,0,0,1.082-5.726,18.935,18.935,0,0,0-1.73-5.6c6.755-15.464,23.771-20.564,25.031-20.923a3.092,3.092,0,0,0,2.125-1.852A91.163,91.163,0,0,1,187.169,81.75c19.355-15.98,40.338-22.076,44.031-22.6a9.457,9.457,0,0,0,2.254-.6,8.814,8.814,0,0,0,5.064-5.539,17.832,17.832,0,0,0,.508-8.327,42.428,42.428,0,0,0-2.825-9.856C231.387,23,218.425,16.395,216.67,15.543a3.086,3.086,0,0,0-2.151-.325C168.887,24.91,105.981,104.843,96.386,117.33a11.542,11.542,0,0,0-7.141,1.556,9.924,9.924,0,0,0-3.4,3.308,8.408,8.408,0,0,0-1.225,5.078l.009.1a10.194,10.194,0,0,0,1.044,3.61C78.646,139.313,43.654,182,17.037,236.39A3.091,3.091,0,0,0,18.455,240.524Zm196.335-219c2.959,1.557,12.125,6.946,15.664,15.632a36.4,36.4,0,0,1,2.438,8.4,11.9,11.9,0,0,1-.218,5.417,2.849,2.849,0,0,1-1.548,1.828,3.357,3.357,0,0,1-.8.212c-4.006.573-26.639,7.079-47.087,23.961a97.645,97.645,0,0,0-28.311,37.294c-4.794,1.644-19.944,7.868-27.1,22.775-5.962-1.97-20.689-7.528-26.486-16C110.808,108.734,171.4,31.728,214.79,21.521ZM91.129,125.42a3.755,3.755,0,0,1,1.293-1.222,5.1,5.1,0,0,1,3.1-.754c7.031,11.517,26.562,18.3,31.859,19.958a12.6,12.6,0,0,1,1.147,3.629,2.783,2.783,0,0,1-.185,1.725,1.943,1.943,0,0,1-1.212.679,11.063,11.063,0,0,1-3.994.072,19.248,19.248,0,0,1-4.8-1.353,3.1,3.1,0,0,0-.44-.188c-3.61-1.549-12.144-7.436-15.978-10.227-2.1-1.526-7.58-5.722-8.222-6.327a14.249,14.249,0,0,1-1.658-1.828,3.129,3.129,0,0,0-.241-.287,5.154,5.154,0,0,1-.992-2.448l0-.035A2.305,2.305,0,0,1,91.129,125.42ZM89.538,136c.69.648,6.791,5.373,9.136,7.054,3.079,2.207,12.548,8.491,12.548,8.491l.02.011-4.921,4.082,0,0a3.089,3.089,0,0,0-1.12,2.493l.088,2.289L89.075,155.4a2.065,2.065,0,0,0-2.4.782C66.052,186.363,46.749,205,35.614,214.45A558.476,558.476,0,0,1,89.538,136ZM30.423,223.861c7.493-5.541,32.053-25.3,58.8-64.1l14.47,4.488c-1.469,1.83-3.314,4.347-5.675,7.57-5.8,7.912-14.863,20.283-28.646,36.8C52.612,228.7,33.747,233.325,24.946,234.368Q27.641,229.027,30.423,223.861Z"/><path d="M205.961,46.834l0,0a8.995,8.995,0,0,0,12.609.121c.045-.038.089-.078.131-.121a9.014,9.014,0,0,0,0-12.748l0,0a9.011,9.011,0,1,0-12.744,12.744Zm2.922-9.818a4.889,4.889,0,0,1,6.9-.008l0,0,0,0a4.879,4.879,0,0,1,0,6.9l-.086.092a4.9,4.9,0,0,1-6.815-.088l0,0a4.878,4.878,0,0,1,0-6.9Z"/></svg>