<svg xmlns="http://www.w3.org/2000/svg" data-name="Layer 1" viewBox="0 0 256 256"><path d="M15.76 238a3.093 3.093 0 0 0 4.087 2.668c50.772-17.584 94.208-78.695 94.335-78.871a3.089 3.089 0 0 0 .563-2.131l-.473-4.458A25.181 25.181 0 0 0 125 153.792c11.49-4.22 11.8-7.823 12.358-14.389.1-1.227.221-2.584.443-3.939.7-4.263 6-13.423 16.367-24a144.676 144.676 0 0 1 31.079-23.749 221.528 221.528 0 0 0 25.432-17.145 146.027 146.027 0 0 0 19.7-18.179c6.466-7.4 9.431-13.67 9.88-18.837a13.831 13.831 0 0 0-3.8-11.127 22.4 22.4 0 0 0-10.379-5.777c-8.788-2.461-20.477-1.8-29.805 1.426a92.766 92.766 0 0 0-19.83 10.032 200.243 200.243 0 0 0-23.46 18.162c-21.858 19.319-35.551 35.493-46.623 48.571-7.946 9.387-14.523 17.153-21.708 23.2a7.781 7.781 0 0 0-4.21 5.387 65.848 65.848 0 0 1-19.091 13.3 3.089 3.089 0 0 0-1.746 1.962 196.723 196.723 0 0 1-13.1 31.11 192.211 192.211 0 0 1-17.489 28.157c-15.069 19.668-13.271 39.981-13.266 40.04zM217.782 56.433c-3.34 3.105-7.021 6.221-10.91 9.263a215.292 215.292 0 0 1-24.7 16.659 150.894 150.894 0 0 0-32.413 24.767q-1.865 1.9-3.532 3.761c-6.328-3.789-21.921-15.517-20.479-17.165l.007-.009.571-.658c6.224-7.194 47.8-55.261 73.412-58.207 14.159-1.628 18.417 3.928 19.138 10.2a34.717 34.717 0 0 1-1.094 11.389zM86.5 124.932a2.123 2.123 0 0 1 1.074-1.437 3.1 3.1 0 0 0 .8-.487c7.681-6.409 14.478-14.438 22.712-24.164 10.963-12.95 24.522-28.965 45.992-47.941a194.169 194.169 0 0 1 22.733-17.6 86.666 86.666 0 0 1 18.479-9.383c8.226-2.848 18.471-3.446 26.119-1.3a16.377 16.377 0 0 1 7.541 4.055 7.878 7.878 0 0 1 2.123 6.35c-.342 3.936-2.844 8.987-8.353 15.3q-1.338 1.532-2.826 3.089a29.852 29.852 0 0 0 .084-6.831c-.963-8.377-6.277-15.841-23.713-13.836-27.205 3.13-70.936 53.685-77.293 61.034l-.571.658c-4.021 4.637 14.623 16.947 22.1 21.6-7.264 8.738-11.13 16.293-11.81 20.437-.287 1.75-.408 3.156-.515 4.424-.343 4.017-.532 6.221-8.309 9.078-7.587 2.787-15.985.122-22.84-4.513a50.574 50.574 0 0 1-9.084-8.549A32.106 32.106 0 0 1 88.6 131.8l-.02-.033a14.129 14.129 0 0 1-2.144-5.605 4.488 4.488 0 0 1-.015-.616 3.129 3.129 0 0 0 .079-.614zm-52.562 76.793a198.465 198.465 0 0 0 18.071-29.079 208.654 208.654 0 0 0 13.123-30.826 75.3 75.3 0 0 0 16.146-10.652l.143.344a24.089 24.089 0 0 0 1.975 3.64 41.117 41.117 0 0 0 6.317 7.834 48.51 48.51 0 0 0 6.471 5.33q.722.524 1.452 1.012.424.283.85.554a202.907 202.907 0 0 1-29.041 35.461 139.662 139.662 0 0 1-42.619 28.3 59.528 59.528 0 0 1 7.112-11.918zM24.771 218.9a143.265 143.265 0 0 0 47.567-30.616 206.909 206.909 0 0 0 29.743-36.36 34.506 34.506 0 0 0 5.854 2.313l.519 4.891c-5.442 7.409-42.932 56.864-86.512 74.166a55.472 55.472 0 0 1 2.829-14.394z"/><path d="M75.43 168.9a19.92 19.92 0 0 0 8.469-5.76l.039-.039.07-.079.013-.015a20.016 20.016 0 0 0 4.792-9.265c.624-3.36-.075-6.4-2.244-8.311s-5.272-2.23-8.529-1.192A19.925 19.925 0 0 0 69.57 150l-.039.039-.065.073-.019.02a20.022 20.022 0 0 0-4.788 9.261c-.61 3.279.043 6.252 2.094 8.171l.053.055.092.083.021.019c2.175 1.902 5.266 2.211 8.511 1.179zm-5.7-4.2a2.169 2.169 0 0 0-.2-.173c-.92-.9-1.168-2.5-.818-4.384a15.758 15.758 0 0 1 3.735-7.177 2.035 2.035 0 0 0 .195-.225 15.748 15.748 0 0 1 6.634-4.576c1.884-.6 3.552-.53 4.552.352s1.281 2.532.919 4.48a15.775 15.775 0 0 1-3.738 7.182 2.074 2.074 0 0 0-.195.224 15.749 15.749 0 0 1-6.632 4.572c-1.821.578-3.442.525-4.452-.275z"/></svg>