<svg xmlns="http://www.w3.org/2000/svg" data-name="Layer 1" viewBox="0 0 256 256"><path d="M203.91 43.711a8.687 8.687 0 0012.173.122c.045-.039.09-.079.132-.122a8.708 8.708 0 000-12.314 8.7 8.7 0 00-12.307 12.314zm2.925-9.389a4.583 4.583 0 016.468 0 4.573 4.573 0 010 6.462l-.084.09a4.592 4.592 0 01-6.382-.086 4.572 4.572 0 010-6.462z"/><path d="M113.365 145.472a3.1 3.1 0 003.132-2.858l.814-10.046c3.481-1.532 9.637-4.732 17.329-9.063a3.094 3.094 0 001.635-.925c12.725-7.223 29.225-17.274 44.758-27.892C199.216 82.257 216.311 69 224.891 58.533c7.669-9.359 9.073-20.658 6.1-29.3a22.24 22.24 0 00-5.665-8.98 18.387 18.387 0 00-9.467-4.8c-7.811-1.4-17.725 1.928-28.323 13.033-6.851 7.179-13.14 14.042-19.088 20.532C152.707 66.2 139.4 80.714 117.307 98.751a3.1 3.1 0 00-.384.313c-4.906 4-10.241 8.164-16.133 12.574a3.064 3.064 0 00-.612.543l-.023.027-.022.027-.022.028-.006.007c-7.3 9.032-12.146 12.97-19.367 18.831-8.189 6.647-19.343 15.7-40.134 36.888-40.685 41.461 3.814 70.208 7.163 72.28a3.1 3.1 0 004.87-2.956c-4.342-30.4 47.046-84.174 54.239-91.532zm59.643-92.282c5.71-6.231 11.748-12.819 19.015-20.435 8.949-9.378 16.824-12.278 22.746-11.215a12.286 12.286 0 016.315 3.222 16.029 16.029 0 014.04 6.482c2.342 6.808 1.16 15.8-5.034 23.359-8.176 9.976-24.8 22.832-42.548 34.968-15.3 10.458-31.254 20.347-43.33 27.389a30.141 30.141 0 01-11.567-14.588c21.542-17.738 34.773-32.172 50.363-49.182zm-67.692 63.71V115.94a510.443 510.443 0 0012.267-9.5 36.987 36.987 0 0010.712 13.893c-7.772 4.393-13.039 7.046-14.009 7.059a2.744 2.744 0 01-.6-.079l-.075-.018-.075-.018-.076-.02-.077-.022-.077-.022-.079-.024-.078-.025-.079-.026-.08-.028-.08-.029-.08-.03-.081-.032-.082-.032-.082-.034-.083-.035-.083-.036-.083-.038-.084-.038-.084-.039-.084-.041-.085-.042-.085-.043-.086-.044-.086-.045-.086-.046-.086-.048-.086-.049-.086-.05-.086-.051-.087-.052-.087-.053-.087-.054-.087-.056-.087-.056-.088-.058-.087-.059-.087-.06-.087-.061-.087-.062-.087-.063-.087-.065-.087-.066-.087-.066-.087-.067-.087-.069-.086-.07-.087-.07-.086-.072-.086-.073-.086-.074-.086-.075-.085-.076-.085-.076-.085-.078-.084-.078-.084-.08-.084-.081-.083-.081-.083-.083-.083-.083-.082-.085-.082-.086-.081-.086-.081-.087-.079-.087-.078-.087-.077-.088-.077-.089-.076-.09-.076-.091-.075-.091-.074-.092-.147-.186-.072-.095-.072-.1-.141-.192c-.092-.13-.183-.261-.27-.394l-.065-.1-.064-.1-.126-.2-.122-.207-.058-.1-.058-.105-.057-.105-.111-.213-.053-.107-.052-.108-.051-.109-.05-.109a10.122 10.122 0 01-.187-.443 12.376 12.376 0 01-.127-.338l-.039-.114-.038-.114c-.05-.153-.1-.307-.138-.463l-.031-.117-.057-.235-.026-.118-.025-.119-.023-.12-.021-.12-.02-.12-.018-.121-.016-.122-.015-.122-.013-.122-.012-.123-.009-.123-.008-.124-.006-.124v-.3zm-57.7 106.283c-1.408-15.809 4.084-44.92 45.784-84.23l7.707 3.884c-9.386 9.78-45.861 49.28-53.488 80.348zm56.769-83.321l-10.365-5.224a2.066 2.066 0 00-2.391.3c-49.94 46.6-50.445 80.309-46.991 95.261-10.37-9.086-26.807-30.175.377-57.877 20.56-20.952 31.553-29.876 39.624-36.427 5.815-4.72 10.157-8.245 15.384-14q.118.329.249.651l.009.022.036.085.044.106.045.106.046.106.047.106c.079.175.16.349.245.521l.005.012.046.091.1.205.021.042.031.059.108.2.039.072.016.028.056.1.169.3.038.066.019.032.059.1.178.29.038.06.023.036.061.1.017.026.045.069.125.189.036.054.027.039.064.093.129.185.065.092.035.049.031.043.066.09.134.181.067.089.033.043.035.046.068.088.009.012.06.076.069.087.07.087.212.258.053.063.019.022.072.084.028.033.044.051.073.083.07.079.051.057.022.025.074.081.074.082.074.081.1.11.019.02.084.089.039.041.065.067.21.214.1.1.006.005.107.1.014.015.093.089.035.034.073.069.056.052.052.049.077.071.032.029.1.09.012.01.11.1.009.008.1.089.03.027.08.07.052.045.06.051.073.062.038.032.1.079.018.014.113.093.108.088.026.021.088.07.114.089.069.054.044.034.091.069.024.018.113.084.115.085.02.015.1.069.042.03.073.052.065.046.051.037.087.06.029.02.108.075.008.005.116.078.015.01.1.068.037.024.08.052.059.038.058.037.081.052.036.022.1.065.014.009.117.072.009.005.108.066.031.018.086.051.053.032.063.037.076.043.041.024.1.055.019.011.117.065.114.062.025.014.091.049.048.025.069.037.069.036.047.024.091.046.025.013.113.056.116.056.019.009.1.046.04.019.075.035.064.029.052.024.084.038.03.014.106.046h.009l.114.049.013.006.1.042.035.014.079.033.056.022.057.023.077.031.036.014.1.037.015.005.112.042h.007l.105.038-.522 6.443-5.16.246a3.083 3.083 0 00-.974.235z"/></svg>