<svg id="Layer_1" data-name="Layer 1" xmlns="http://www.w3.org/2000/svg" viewBox="0 0 256 256"><title>Artboard 5</title><path d="M54.484,206.54l0,0,0,0a8.667,8.667,0,0,0-12.266,0h0l0,0,0,0a8.657,8.657,0,0,0-.12,12.135c.038.045.078.089.12.131h0a8.669,8.669,0,0,0,12.267,0l.008-.008a8.669,8.669,0,0,0,0-12.267Zm-2.921,9.354a4.554,4.554,0,0,1-6.428,0h0l-.089-.084a4.562,4.562,0,0,1,.085-6.343l0,0h0a4.553,4.553,0,0,1,6.427,0l0,0h0a4.554,4.554,0,0,1,0,6.428Z"/><path d="M122.218,128.871l-.008.015-.011.021-.014.029,0,.008-.017.037,0,.007-.014.031-.009.02-.007.017-.015.035v0l-.015.038,0,.012-.01.026-.01.027,0,.012-.014.039v0l-.012.036-.005.018-.007.022-.01.032,0,.006-.011.039,0,.008-.009.031-.006.023,0,.016-.009.039h0l-.009.04,0,.013-.006.027-.006.029,0,.011-.008.04v0l-.006.036,0,.02,0,.02-.005.035v.005l-.006.041v.01l0,.031,0,.025-.006.056h0l0,.057,0,.025,0,.032v.009l0,.041v.12h-.015c0,.042.173,14.848-18.716,13.982a3.092,3.092,0,0,0-2.655,1.3c-.063.089-21.937,31.024-40.583,36.215A55.806,55.806,0,0,0,33.378,199.1c-6.384,7.526-10.618,16.778-10.552,26.7.036,5.433.455,9.64,2.68,12.313,2.535,3.045,6.531,3.69,13.284,1.235,26.133-9.509,92-62.213,108.881-89.808q.418-.186.828-.409a11.065,11.065,0,0,0,1.86-1.285c4.958-4.223,12.232-6.276,12.252-6.282h0a3.092,3.092,0,0,0,2.049-1.855c.012-.031,4.148-10.868,23.623-38.375,19.222-27.149,42.87-78.054,44.512-81.606a3.1,3.1,0,0,0-4.708-3.862c-15.847,13.293-31.263,28.113-46.62,42.876-20.146,19.367-40.193,38.639-60.984,54.18l.006.008a3.092,3.092,0,0,0-.758,4.138c4.732,7.437,2.5,11.748,2.5,11.76l.006,0h0ZM185.76,63.205C197.4,52.018,209.069,40.8,220.943,30.24c-6.842,14.07-18.279,36.72-29.455,54.926l-36.941,33.047-18.63-9.509C152.792,94.9,169.244,79.083,185.76,63.205ZM132.4,111.55l21.53,10.989,0-.006a2.062,2.062,0,0,0,2.308-.3L182.66,98.594c-15.59,22.1-21.446,33.706-23.166,37.468a49.717,49.717,0,0,0-7.539,3.3l0-.025a9.016,9.016,0,0,0-1.354-6.8l-.019-.027a7.716,7.716,0,0,0-.844-1q-.217-.217-.436-.423a19.23,19.23,0,0,0-4.319-3.137q-.208-.113-.417-.219l-.119-.06q-.232-.116-.464-.225l-.1-.047a20.28,20.28,0,0,0-4.2-1.415l-.178-.039q-.228-.049-.456-.094l-.062-.011c-.15-.029-.3-.056-.45-.081l-.076-.013c-.152-.026-.3-.049-.456-.071l-.14-.02-.445-.059h-.01l-.023,0-.459-.05-.1-.009-.434-.038-.026,0-.019,0-.064,0a28.206,28.206,0,0,0-7.431.47l-.009,0a21.24,21.24,0,0,0-2.479-9.707Q129.4,113.948,132.4,111.55ZM127.9,132.512l.168-.048.936-.244c.1-.021,1.307-.277,1.207-.257l.308-.055.273-.046c.1-.014,1.136-.156,1.035-.144l.269-.029c.1-.007,1.651-.11,1.55-.106l.344-.009.37,0h.08a17.522,17.522,0,0,1,2.593.2l.151.023.343.058.376.072.486.108.36.09.726.209.389.129a14.174,14.174,0,0,1,5.677,3.661l0,.006,0,0,.006.009a3.383,3.383,0,0,1,.268,2.3,20.825,20.825,0,0,1-2.847,6.915,3.147,3.147,0,0,0-.2.369c-15.829,26.2-80.552,78.509-106.092,87.8-3.829,1.393-5.711,1.488-6.422.633-1.021-1.227-1.221-4.272-1.249-8.386-.054-8.311,3.595-16.183,9.1-22.671a49.4,49.4,0,0,1,23.466-15.4c18.3-5.094,38.4-31.046,43-37.253C123.413,150.591,127.16,137.816,127.9,132.512Z"/></svg>