<svg id="Layer_1" data-name="Layer 1" xmlns="http://www.w3.org/2000/svg" viewBox="0 0 256 256"><title>Artboard 7</title><path d="M44.2,214.7l0,0,0,0a7.257,7.257,0,0,0-10.149-.124c-.046.039-.092.08-.135.124h0a7.278,7.278,0,0,0,0,10.294h0l0,0,0,0A7.268,7.268,0,0,0,44.2,225h0a7.278,7.278,0,0,0,0-10.294Zm-2.925,7.368h0a3.152,3.152,0,0,1-4.445,0l0,0h0a3.143,3.143,0,0,1,0-4.442h0l.079-.083a3.163,3.163,0,0,1,4.366.079l0,0h0a3.143,3.143,0,0,1,0,4.442Z"/><path d="M223.279,55.38C236.771,40.735,238.662,20,238.778,18.57a3.145,3.145,0,0,0,.006-.577,3.1,3.1,0,0,0-3.346-2.837c-24.112,2-78.162,70.735-80.11,73.222a3.076,3.076,0,0,0-.674,1.49l-.2,1.259c-3.832-1.058-9.642.575-17.967,14.168-5.345,1.082-11.314,4.027-17.428,9.4l-1.385,1.214c-11.448,10.021-72.437,63.414-93.306,88.907-6.823,8.334-8.246,16.261-6.449,22.56a17.948,17.948,0,0,0,4.826,8.008A19.45,19.45,0,0,0,30.68,240,21.549,21.549,0,0,0,51,235.333c15.451-13.179,97.68-94.506,97.917-94.74l.036-.036c5.456-5.536,8.269-11.287,9.009-16.506l13.494-13.908a3.1,3.1,0,0,0,.512-3.616C180.122,98.627,211.752,67.892,223.279,55.38ZM160.637,91.632c5.083-6.438,49.036-61.513,71.391-69.384a67.918,67.918,0,0,1-4.164,14.33c-8.634,5.884-42.441,29.989-64.653,61.032l-.732-.7c-.856-.817-1.657-1.561-2.339-2.166ZM151.909,122.4c-.008.089-.01.178-.01.266-.42,4.078-2.688,8.8-7.349,13.536-1.208,1.194-82.379,81.462-97.575,94.423a15.432,15.432,0,0,1-14.526,3.426,13.259,13.259,0,0,1-5.415-3.131,11.743,11.743,0,0,1-3.153-5.244c-1.283-4.495-.071-10.391,5.285-16.933,20.608-25.174,81.205-78.223,92.579-88.18l1.386-1.214c5.641-4.957,10.94-7.469,15.443-8.158a3.053,3.053,0,0,0,.343-.038,16.011,16.011,0,0,1,3.474-.1,10.769,10.769,0,0,1,6.5,2.685,9.641,9.641,0,0,1,2.959,5.838A12.7,12.7,0,0,1,151.909,122.4Zm5.413-6.584a15.514,15.514,0,0,0-7.886-9.149h0l-.141-.069-.112-.055-.029-.013-.142-.067-.087-.041-.056-.026-.074-.033-.07-.032-.06-.027-.084-.036-.048-.02-.1-.042-.033-.014-.113-.047-.02-.008-.127-.051-.006,0-.134-.053-.008,0-.127-.049-.022-.009-.114-.042-.036-.013-.1-.036-.051-.018-.087-.03-.065-.023-.073-.025-.08-.027-.059-.019-.095-.031-.045-.014-.11-.035-.03-.009-.125-.039-.016,0-.14-.042h0l-.285-.082-.028-.008-.115-.031-.043-.012-.1-.026q-.561-.144-1.14-.256l-.025,0-.032-.006-.315-.056-.016,0c-.166-.028-.334-.055-.5-.079,5.6-8.353,8.13-8.385,9.475-7.589a8.283,8.283,0,0,1,.869.617c.315.245.6.467.729.554l.006-.008.015.01.022.015.023.017h0l.022.017c.495.365,1.646,1.427,3.038,2.756,2.209,2.11,4.879,4.778,6.7,6.61ZM167.7,102.037l-1.508-1.5c18.09-25.509,44.3-46.345,57.589-56.026a45.323,45.323,0,0,1-5.065,6.676C207.277,63.607,175.876,94.119,167.7,102.037Z"/></svg>