<svg xmlns="http://www.w3.org/2000/svg" data-name="Layer 1" viewBox="0 0 256 256"><path d="M223.241 170.65a9.321 9.321 0 0 0-13.194 0 9.321 9.321 0 0 0 0 13.194 9.321 9.321 0 0 0 13.194 0 9.321 9.321 0 0 0 0-13.194zm-2.918 10.279-.008.008a5.226 5.226 0 0 1-7.362 0l-.008-.008a5.225 5.225 0 0 1 0-7.362l.008-.008a5.226 5.226 0 0 1 7.362 0l.008.008a5.226 5.226 0 0 1 0 7.362z"/><path d="M239.49 169.459c-1.78-5.841-5.279-10.508-9.368-11.141-7.962-9.87-62.865-70.387-63.031-70.57a3.079 3.079 0 0 0-1.239-.832c-.106-.039-36.919-13.24-63.882-33.973a3.095 3.095 0 0 0-4.87 3.268c.017.061 5.746 21.36 33.3 45.718 26.739 23.634 58.742 56.594 58.835 56.689a3.076 3.076 0 0 0 1.638.882l1.718.33a10.915 10.915 0 0 0-.563 2.876c-5.4 3.119-13.485 6.275-28.32-.8-9.523-4.541-24.295-3.966-44.089-3.194-22.03.859-50.466 1.967-84.2-3.518-6.658-1.082-13.327 2.877-17.1 9.01a21.25 21.25 0 0 0-3.151 10.296 20.123 20.123 0 0 0 3.04 11.405c5.476 8.911 19.125 16.7 46.18 17.709 14.006.523 47.942-1.154 81.856-3.22 34.042-2.074 67.813-4.516 81.669-5.539 6.557-.483 10.258-4.384 11.928-9.55a23.285 23.285 0 0 0 .986-7.966 31.456 31.456 0 0 0-1.337-7.88zm-76.463-76.992c5.038 5.557 45.895 50.638 58.828 65.584H215.173l-.637.01h-.026c-1 .018-2 .043-2.994.077a75.1 75.1 0 0 0-11.839 1.173l.026-.04a3.08 3.08 0 0 0 .465-1.137 3.36 3.36 0 0 0 .04-.277l1.921-13.379a2.067 2.067 0 0 0-.768-2.262c-20.733-15.069-56.415-47.591-79.035-68.684a309.847 309.847 0 0 0 40.701 18.935zM134.5 97.3c-13.845-12.238-21.834-23.473-26.291-31.349 19.591 18.488 64.571 60.332 89.631 78.809l-1.3 9.525-3.551-.683c-4.771-4.889-33.774-34.457-58.489-56.302zm-89.04 97.862c-12.055-2.695-18.815-7.383-21.964-12.507a14.015 14.015 0 0 1-2.142-7.937 15.028 15.028 0 0 1 2.257-7.258c2.531-4.114 6.766-6.807 10.82-6.149q5.623.914 11.048 1.6zm188.49-11.748a7.013 7.013 0 0 1-6.472 5.257c-13.966 1.03-47.93 3.487-81.6 5.538-33.8 2.058-67.549 3.733-81.274 3.22a116.123 116.123 0 0 1-15.026-1.462L49.6 163.4c27.7 3.154 51.306 2.235 70.238 1.5 18.912-.737 33.026-1.287 41.2 2.613 19.748 9.418 29.617 3.351 36.16-.672l.032-.019.031-.019.028-.017.025-.015h.007l.021-.014.009-.005.018-.012.027-.016.014-.008.012-.007.015-.009.01-.006.017-.01.008-.005.019-.011.02-.012.022-.014.022-.013.019-.012.016-.01h.006l.014-.009h.008l.08-.05.033-.02.015-.01.16-.1.118-.073.008-.005.01-.006.022-.013h.02l.009-.005.011-.006.01-.006H198.141l.01-.006.011-.007.01-.006h.02l.01-.006.013-.008.091-.053.091-.049.01-.005.092-.046.015-.007.092-.043c1.967-.889 6.413-1.372 11.367-1.58 7.772-.326 19.133.043 19.133.043 1.531.06 3.245 3.026 4.4 6.822a25.154 25.154 0 0 1 1.069 6.3 17.177 17.177 0 0 1-.627 5.759z"/><path d="M28.428 171.021a7.09 7.09 0 0 0-.008 10.043 7.089 7.089 0 0 0 9.911.127q.072-.06.139-.127a7.112 7.112 0 1 0-10.059-10.058zm8 5.029a2.966 2.966 0 0 1-.871 2.1l-.081.086a3 3 0 0 1-4.126-.077l-.008-.008a3 3 0 0 1 0-4.207 2.974 2.974 0 0 1 5.078 2.1z"/></svg>