<svg xmlns="http://www.w3.org/2000/svg" data-name="Layer 1" viewBox="0 0 256 256"><path d="M195.512 92.074A6.567 6.567 0 10200.155 94a6.547 6.547 0 00-4.643-1.926zm1.716 8.282a2.428 2.428 0 11.71-1.716 2.419 2.419 0 01-.709 1.716zM85.458 176.592a12.5 12.5 0 108.838 3.661 12.461 12.461 0 00-8.838-3.661zM91.37 195a8.363 8.363 0 112.448-5.912A8.337 8.337 0 0191.37 195z"/><path d="M232.819 124.441c0-.034-1.346-11.8-5.211-21.411-4.567-11.363-11.42-13.685-20.83-16.866a205.3 205.3 0 01-4.518-1.566q-1.417-.516-2.745-.907l.073-.839h-.012a3.092 3.092 0 00-2.182-3.224L99.523 49.78a3.087 3.087 0 00-1.011-.161c-36.108.3-68.32-10.4-71.046-11.327a3.1 3.1 0 00-3.8 4.529c26.2 40.9 105.591 69.943 109.927 71.506a3.093 3.093 0 002.731-.123l17.121-9.446a96.206 96.206 0 0010.228 4.784c4.083 1.656 8.37 3.177 12.363 4.492a28.223 28.223 0 01-3.47 3.7 30.084 30.084 0 01-15.359 7.277 33.063 33.063 0 01-12.975-.626 3.082 3.082 0 00-2.072.221c-.15.073-52.374 25.308-68.266 35.2-3.216 2-6.85 6.947-9.974 12.757a78.606 78.606 0 00-7.265 18.7c-.846 3.812-.8 6.6-.042 8.972a14.02 14.02 0 004.248 6.093l-.006.006.3.281c4.928 4.572 13.534 12.556 21.064 11.187 4.672-.85 45.275-11.773 86.967-37.1 22.379-13.592 45.139-31.351 62.979-53.964a3.08 3.08 0 00.642-2.29zm-98.26-16.341c-9.049-3.351-63.071-24.137-93.194-53.613 22.552 15.481 64.358 41.825 99.009 50.4zm31.437-4.3a83.817 83.817 0 01-10.961-5.24 3.087 3.087 0 00-3.063-.052v-.009l-6.165 3.4c-36.966-7.537-84.37-38.372-106.243-53.684C53.1 51.643 74.79 55.939 98.082 55.8l89.376 27.253a10.776 10.776 0 00-3.718 2.01 11.029 11.029 0 00-2.7 3.39l-.012.023-.034.065-.018.036-.027.052-.025.05-.02.039-.031.063-.013.026-.037.077-.006.013-.043.09-.042.091-.006.014-.035.079-.012.026-.029.066a15.827 15.827 0 00-.974 3.064 30.486 30.486 0 00-.219 9.643v.023c.038.343.081.691.128 1.043v.038l.03.22v.014l.038.272.022.156.017.118.016.1.026.172.008.052.035.225.005.036.005.037.005.036v.258c.01.141.015.286.015.435v.165a8.742 8.742 0 01-.256 1.766q-.091.375-.209.76l-.006.02-.007.022-.007.022-.007.022-.007.022-.007.022-.013.041c-.049.148-.1.3-.157.448-4.156-1.334-8.758-2.945-13.131-4.72zm-.011 71.616c-40.877 24.829-80.328 35.473-84.858 36.3-4.488.816-11.652-5.829-15.753-9.635l-.3-.281-.006.006-.006-.006a8.469 8.469 0 01-2.557-3.456c-.426-1.324-.4-3.1.187-5.747a72.145 72.145 0 016.683-17.1c2.662-4.95 5.537-9.027 7.791-10.43 14.4-8.967 59.533-30.934 66.715-34.417a38.879 38.879 0 0014.271.472 36.31 36.31 0 0018.536-8.78 32.377 32.377 0 006.74-8.316q.074-.113.139-.233a23.32 23.32 0 001.393-3.075l.018-.047.029-.081.029-.082.027-.077.028-.082.019-.055.009-.026q.289-.84.485-1.651a14.3 14.3 0 00.426-3.692v-.18c0-.1-.009-.205-.016-.307V104.286l-.005-.069v-.007l-.007-.074-.006-.07v-.006l-.007-.07v-.005l-.008-.07-.008-.071-.009-.072-.01-.072-.01-.073-.011-.073-.011-.073-.029-.19-.006-.039-.023-.149-.012-.078-.016-.109-.017-.117-.01-.069-.022-.154v-.03l-.025-.184v-.008l-.024-.175-.006-.046-.018-.136-.01-.083-.012-.1a25.331 25.331 0 01.075-8.185 8.667 8.667 0 01.872-2.444l.005-.01.023-.04.023-.04.005-.009.018-.031.011-.018.013-.021.017-.027.008-.013.022-.036.024-.038v-.006a4.692 4.692 0 01.913-1.052l.015-.012.022-.019.009-.008.028-.023.032-.025.031-.024.008-.006.025-.019.013-.01.019-.015.019-.015.014-.01.026-.018.008-.006.032-.022.034-.024a5.522 5.522 0 012.274-.844 14.423 14.423 0 015.053.3 3.129 3.129 0 00.436.086 36.268 36.268 0 014.338 1.308c1.733.631 3.219 1.133 4.639 1.614h.011c7.841 2.651 13.552 4.582 17.058 13.305a87.03 87.03 0 014.633 18.6c-17.206 21.443-39.027 38.404-60.513 51.454z"/></svg>