<svg xmlns="http://www.w3.org/2000/svg" data-name="Layer 1" viewBox="0 0 256 256"><path d="M39.214 171.021a7.112 7.112 0 10-10.059 10.059 7.09 7.09 0 0010.043.007 7.089 7.089 0 00.127-9.911q-.045-.088-.111-.155zm-2.914 7.133l-.008.008a2.995 2.995 0 01-4.207 0 2.975 2.975 0 014.207-4.207l.086.081a3 3 0 01-.078 4.126z"/><path d="M230.122 158.317c-7.962-9.87-62.865-70.387-63.031-70.57a3.081 3.081 0 00-1.239-.832c-.106-.039-36.919-13.24-63.882-33.973a3.095 3.095 0 00-4.87 3.269c.017.061 5.746 21.36 33.3 45.718 26.739 23.634 58.742 56.594 58.835 56.689a3.075 3.075 0 001.638.882l1.717.33a10.914 10.914 0 00-.562 2.876c-5.4 3.119-13.485 6.275-28.321-.8-9.522-4.541-24.295-3.966-44.089-3.194-16.92.659-37.621 1.466-61.6-.681a2746.25 2746.25 0 0014.363-20.67c5.793-8.427 11.151-16.381 14.5-21.7.038-.052.074-.106.109-.162 10.949-17.458 8.49-39.048 8.484-39.11h-.005a3.092 3.092 0 00-3.887-2.656c-10.661 2.917-24.539 20-36.792 38.327-11.445 17.118-21.561 35.318-26.075 43.677a19.546 19.546 0 00-10.395 8.47 21.252 21.252 0 00-3.152 10.293 20.123 20.123 0 003.04 11.405c4.119 6.7 12.863 12.769 28.457 15.794a3.045 3.045 0 00.552.1 117.2 117.2 0 0017.171 1.81c14.006.523 47.943-1.154 81.856-3.22 34.042-2.074 67.813-4.516 81.669-5.539 9.277-.684 13.256-8.439 12.914-17.516-.276-7.334-3.927-17.968-10.705-19.017zm-67.1-65.85c5.038 5.557 45.895 50.638 58.828 65.584h-6.676l-.637.01h-.026c-1 .018-2 .043-2.994.077a75.149 75.149 0 00-11.839 1.173l.026-.04a3.1 3.1 0 00-.067-3.532l2.492-11.261a2.067 2.067 0 00-.768-2.262c-20.733-15.069-56.415-47.591-79.035-68.684a309.854 309.854 0 0040.701 18.935zM134.5 97.3c-13.845-12.238-21.834-23.473-26.291-31.349 19.591 18.488 64.571 60.332 89.631 78.809l-2.074 9.376-2.775-.534c-4.773-4.889-33.776-34.457-58.491-56.302zm-74.567 18.2C70 100.449 80.978 86.351 89.532 81.324a67.883 67.883 0 01-1.466 14.838c-6.538 6.5-29.813 30.609-46.283 60q-2.374-.335-4.784-.714l-.063-.01-.922-.148c5.057-9.217 14.009-24.965 23.919-39.79zm-15.506 79.422c-11.413-2.728-17.875-7.293-20.934-12.269a14.02 14.02 0 01-2.142-7.937 15.028 15.028 0 012.257-7.258 12.973 12.973 0 017.676-6.021l.175-.032a9.048 9.048 0 011.079-.167H32.722l.181-.009a8.05 8.05 0 01.761.01h.006l.16.012h.023l6.033.909q2.295.332 4.555.626zm1.765-38.165c12.966-22.7 29.878-42.047 39.317-52.046a45.229 45.229 0 01-3.755 7.492 2.077 2.077 0 00-.1.176c-3.184 5.065-8.52 12.978-14.358 21.471-5.349 7.777-11.296 16.283-16.343 23.474q-2.361-.264-4.761-.568zm181.284 31.913c-13.965 1.03-47.929 3.487-81.6 5.538-33.8 2.058-67.549 3.733-81.274 3.22a118.373 118.373 0 01-14-1.293l.019-32.616.05.005 1.173.127.052.005.078.009c.09.014.181.023.272.028 26.557 2.8 49.259 1.92 67.583 1.206 18.912-.737 33.026-1.287 41.2 2.613 19.748 9.418 29.617 3.351 36.161-.672l.032-.019.031-.019.26-.16.263-.164.011-.008h.005l.032-.019h.014l.081-.051.011-.006.011-.007.022-.013.01-.006.033-.021h.006l.029-.018.02-.013.01-.006h.02l.009-.005.011-.006.01-.006H198.139l.008-.005.01-.006.012-.007.01-.006h.02l.01-.006.013-.008.091-.053.091-.049.01-.005c.149-.033 1.515-1.215 11.566-1.675l.107-.005.169-.007.833-.034.738-.027h.118l.175-.006.42-.013c.1 0 4.429-.082 5.9-.078 2.46.007 9.838.186 9.838.186h.01l.821.031c2.417.095 5.254 7.366 5.47 13.123.276 5.493-1.487 10.612-7.103 11.026z"/><path d="M223.241 170.65a9.321 9.321 0 00-13.194 0 9.32 9.32 0 000 13.194 9.321 9.321 0 0013.195 0 9.321 9.321 0 000-13.194zm-2.918 10.279l-.008.008a5.226 5.226 0 01-7.362 0l-.008-.008a5.226 5.226 0 010-7.362l.008-.008a5.226 5.226 0 017.362 0l.008.008a5.226 5.226 0 010 7.362z"/></svg>