<svg xmlns="http://www.w3.org/2000/svg" data-name="Layer 1" viewBox="0 0 256 256"><path d="m18.258 229.457 2.18.02c22.738.218 36.072.345 73.208-30.382 34.64-28.662 46.053-31.053 47.266-31.234a3.1 3.1 0 0 0 2.32-4.913c-5.913-8.15-6.881-19.583-7.007-21.583 3.784-29.321 101.657-80.172 102.311-80.513a3.079 3.079 0 0 0 1.369-1.411c5.311-11.067-14.4-30.324-16.123-31.979a3.1 3.1 0 0 0-3.505-.711c-15.153 6.692-49.668 30.924-75.917 55.746-18.78 17.758-33.471 36.045-34.377 49.051-6.23 6.466-19.045 13.45-19.922 13.924a3.083 3.083 0 0 0-1.405 1.481c-21.078 46.822-71.8 76.658-71.949 76.745v.005a3.092 3.092 0 0 0 1.549 5.754zm97.878-97.157c.486-11.188 14.485-28.291 32.466-45.293 24.738-23.391 56.752-46.162 72.286-53.707 4.141 4.171 15.345 16.191 13.741 22.619-10.7 5.652-100.13 53.719-104.519 84.47l-.016.036a3.24 3.24 0 0 1-.09.188l-.01.021-.022.04a5.306 5.306 0 0 1-3.335 2.377 8.386 8.386 0 0 1-3.768.151 7.749 7.749 0 0 1-3.529-1.635 8.678 8.678 0 0 1-2.778-4.622v-.016l-.036-.143v-.011l-.036-.15v-.006l-.036-.157-.033-.16-.031-.158v-.01l-.029-.154v-.016l-.026-.151v-.033l-.051-.339-.019-.14v-.04a17.74 17.74 0 0 1-.129-2.961zm-22.271 18.149a123.451 123.451 0 0 0 16.891-11.249 15.558 15.558 0 0 0 1.83 3.993l.042.065.032.048.074.111.016.024.059.086.065.094.01.015.077.108.039.055.038.052.078.106.012.016.008.01.115.152.006.009.016.021.08.1.035.044.046.057.081.1.007.008.076.091.06.072.022.026c.083.1.168.195.254.29l.142.155.029.032c.228.243.464.477.7.7l.01.01.141.129.044.039c.124.11.25.218.377.324a13.94 13.94 0 0 0 6.342 2.944 14.6 14.6 0 0 0 6.557-.272 13.241 13.241 0 0 0 2.579-1.016c.23 1.25.523 2.621.893 4.067-5.553 1.483-12.994 5.33-21.3 11.089a200.057 200.057 0 0 0-29.7 25.754c-11.93 12.475-26.31 18.978-36.168 22.225 16.494-13.656 37.255-34.564 49.285-60.684zm-57.486 67.212c7.776-1.662 30.045-7.781 47.375-25.9a195.792 195.792 0 0 1 29.051-25.2c8.052-5.587 15.1-9.251 20.122-10.531a43.733 43.733 0 0 0 3.043 7.009c-6.44 2.562-20.512 9.965-46.277 31.284C59.013 219.7 45.536 223 28.625 223.3a230.497 230.497 0 0 0 7.754-5.639z"/><path d="M121.3 132.67a5.141 5.141 0 0 0 7.282 0l.008-.008a5.151 5.151 0 0 0 0-7.29 5.155 5.155 0 1 0-7.291 7.29zm2.918-4.373a1.019 1.019 0 0 1 .723-.3 1.032 1.032 0 0 1 .728.294 1.02 1.02 0 0 1 .3.723 1.031 1.031 0 0 1-.29.724l-.008.008a1.046 1.046 0 0 1-1.447 0l-.008-.008a1.031 1.031 0 0 1-.29-.724 1.019 1.019 0 0 1 .293-.714zM208.609 57.62a8.781 8.781 0 0 0 12.424 0 8.782 8.782 0 0 0 0-12.426 8.791 8.791 0 0 0-12.432 0 8.782 8.782 0 0 0-.122 12.3c.046.039.087.083.13.126zm2.926-9.508a4.656 4.656 0 0 1 6.58 0 4.667 4.667 0 0 1 0 6.586 4.666 4.666 0 0 1-6.584 0l-.09-.084a4.667 4.667 0 0 1 .09-6.5z"/></svg>