<svg xmlns="http://www.w3.org/2000/svg" data-name="Layer 1" viewBox="0 0 256 256"><path d="M215.188 38.2a8.83 8.83 0 0 0-12.609 12.364c.038.045.079.089.122.132a8.826 8.826 0 0 0 12.488 0l.008-.008a8.826 8.826 0 0 0 0-12.488zm-2.918 9.57a4.711 4.711 0 0 1-6.648 0l-.091-.085a4.7 4.7 0 0 1 6.739-6.563 4.711 4.711 0 0 1 0 6.648z"/><path d="M232.38 33.394c-3.678-6.639-8.034-11.677-11.612-11.534-.175.007-.449 0-.791-.007-7.908-.179-46.659-1.061-135.561 99.23a3.093 3.093 0 0 0 .1 4.205l.268.275-8.046 9.321a3.094 3.094 0 0 0-.389.569c-2.654 4.957-23.379 26.625-23.438 26.687a3.076 3.076 0 0 0-.718 1.234C42.375 195.742 17.6 226.9 15.9 229.011a3.1 3.1 0 0 0 2.537 5.148c39.242-2.894 56.462-32.528 56.512-32.613a3.078 3.078 0 0 0 .429-1.646l-.066-2.7 5.565-6.218a3.09 3.09 0 0 0 .67-.988l.617-1.44 8.465-8.283a3.081 3.081 0 0 0 .923-2.1l.046-1.251 6-5.345a3.085 3.085 0 0 0 1.035-2.178l.035-.8 8.668-6.969.027-.022 6.382-5.255a3.089 3.089 0 0 0 1.253-2.31l.287-4.652a32.692 32.692 0 0 0 5.68 2.2 3.092 3.092 0 0 0 2.463-.379l9.96-5.45a3.093 3.093 0 0 0 1.381-3.891c-.026-.063-9.327-22.068 21.807-25.79a3.1 3.1 0 0 0 2.453-1.783c1.6-3.018 28.691-53.215 66.346-50.276 2.772.792 17.819 4.485 15.216-9.567-1.082-5.804-4.501-14.363-8.211-21.059zM103.45 156.8l-9.759 7.846a3.089 3.089 0 0 0-1.155 2.342l-.036.823-6.012 5.353a3.092 3.092 0 0 0-1.038 2.391l-.043 1.159-8.024 7.851a3.076 3.076 0 0 0-.678.995l-.664 1.55-6.159 6.882a3.082 3.082 0 0 0-.787 2.134l.073 2.992a66.955 66.955 0 0 1-44.018 27.984 276.401 276.401 0 0 0 11.18-16.421 333.966 333.966 0 0 0 55.541-60.729l14.552 4.406zm5.53-5.993-17.346-5.251v.005a2.064 2.064 0 0 0-2.294.8 328.063 328.063 0 0 1-46.127 52.725A177.72 177.72 0 0 0 57.884 165.9c3.129-3.289 20.355-21.488 23.718-27.179l7.616-8.822c2.747 2.59 6.512 5.984 10.74 9.365a108.735 108.735 0 0 0 9.319 6.745zm118.05-92.751a3.108 3.108 0 0 0-.912-.216c-39.027-3.281-66.97 43.458-71.883 52.28-30.433 4.321-28.022 24.181-26.069 31.43l-6.751 3.693a37.574 37.574 0 0 1-7.043-3.341 3.189 3.189 0 0 0-.3-.206 95.7 95.7 0 0 1-10.256-7.26c-4.682-3.745-8.9-7.64-11.648-10.281l-.01-.009-.009-.009c-.424-.408-.812-.787-1.16-1.128 85.593-95.94 121.5-95.141 128.872-94.974.472.011.848.019 1.155.007.912-.036 3.327 3.6 5.962 8.358 3.426 6.184 6.565 13.981 7.523 19.156.868 4.72-6.101 2.901-7.471 2.5z"/></svg>