<svg xmlns="http://www.w3.org/2000/svg" data-name="Layer 1" viewBox="0 0 256 256"><path d="M40.4 211.247a7.31 7.31 0 0 0-10.221-.124 2.24 2.24 0 0 0-.136.124 7.307 7.307 0 0 0-.124 10.217c.039.046.08.092.124.136a7.309 7.309 0 0 0 10.221.124c.046-.039.092-.08.135-.124a7.311 7.311 0 0 0 2.148-5.184h-.008a7.312 7.312 0 0 0-2.139-5.169zm-1.992 5.184a3.185 3.185 0 0 1-.934 2.258l-.082.087a3.216 3.216 0 0 1-4.435-.083l-.084-.079a3.213 3.213 0 0 1 .08-4.434l.082-.088a3.216 3.216 0 0 1 4.435.083 3.19 3.19 0 0 1 .943 2.258z"/><path d="M240.453 17.619a3.1 3.1 0 0 0-4.2-1.261c-40.827 22.1-118.935 97.188-132.735 110.593a71.209 71.209 0 0 0-6.118-5.141 13.73 13.73 0 0 0-7.981-2.994 8.556 8.556 0 0 0-5.3 1.785 9.388 9.388 0 0 0-2.9 3.819 7.948 7.948 0 0 0-.38 5.355c1.146 3.438 3.725 4.145 6.645 4.944a12.362 12.362 0 0 1 3.213 1.2 1.367 1.367 0 0 1 .386 1.054 4.488 4.488 0 0 1-.161 1.419 5.746 5.746 0 0 1-.677 1.552 5.1 5.1 0 0 1-4.074 2.437 11.244 11.244 0 0 0-6.944 2.451c-2.226 1.782-4.421 4.892-6.338 10.5-2.033 5.944-9.5 14.49-17.99 22.562-11.916 11.324-25.474 21.442-29.112 22.3-6.894 1.623-8.33 9.1-9.368 14.5a18.482 18.482 0 0 1-.775 3.283h.005l-.005.01c-1.445 2.53.626 5.982 4.056 9.455.052.06.105.119.162.175A130.418 130.418 0 0 0 33.5 238.982c4.4 3.048 8.461-1.3 11.771-4.849.419-.45.821-.88 1.355-1.414 1.423-1.423 4.013-.808 4.02-.806v-.008a3.087 3.087 0 0 0 2.666-.61c7.412-6.022 16.232-14.826 24.749-23.957 14.29-15.319 27.826-31.665 32.268-37.137a12.1 12.1 0 0 1 9.573-4.683 22.829 22.829 0 0 1 9.2 2.1 7.857 7.857 0 0 0 8.821-1.7 8.639 8.639 0 0 0 2.372-4.1 7 7 0 0 0-.622-5.082c-1.172-2.134-3.589-3.858-7.676-4.315C187.443 94.985 237.972 24.082 240.165 20.995a3.1 3.1 0 0 0 .288-3.376zM134.24 159.726a.912.912 0 0 1 .041.645 2.393 2.393 0 0 1-.674 1.117 1.814 1.814 0 0 1-2.007.459 28.916 28.916 0 0 0-11.771-2.613 18.058 18.058 0 0 0-14.3 6.963c-4.392 5.41-17.787 21.583-32 36.821a275.13 275.13 0 0 1-23.1 22.534 10.491 10.491 0 0 0-8.2 2.678c-.356.356-.915.956-1.5 1.583a796.556 796.556 0 0 1-3.721 3.976 121.934 121.934 0 0 1-12.757-10.659 3.115 3.115 0 0 0-.243-.218c-1.553-1.4-3.222-1.5-2.986-1.959a18 18 0 0 0 1.478-5.2c.719-3.748 1.714-8.93 4.688-9.63 4.429-1.042 19.379-11.881 31.973-23.85 9.11-8.658 17.193-18.053 19.59-25.059 1.484-4.338 2.944-6.554 4.326-7.66a5.756 5.756 0 0 1 3.452-1.092 11.2 11.2 0 0 0 8.972-5.348 11.933 11.933 0 0 0 1.4-3.224 10.662 10.662 0 0 0 .356-3.383 7.3 7.3 0 0 0-3.3-5.952 17.371 17.371 0 0 0-4.861-1.905c-1.225-.335-2.306-.631-2.4-.919a2 2 0 0 1 .234-1.038 3.178 3.178 0 0 1 .96-1.3 2.45 2.45 0 0 1 1.52-.5 7.9 7.9 0 0 1 4.368 1.83 79.04 79.04 0 0 1 7.5 6.488c.048.053.1.1.15.154a267.363 267.363 0 0 1 7.255 7.237l.072.074.375.389.092.1a474.836 474.836 0 0 1 11.167 12.015v.015c.062.076.129.15.2.221a21.061 21.061 0 0 0 3.9 3.135v-.006a3.075 3.075 0 0 0 .395.205 11.056 11.056 0 0 0 5.173 1.64c2.594.059 3.823.581 4.183 1.236zm-8.422-9.816a12.35 12.35 0 0 1-.771-.729l-.006-.006v-.005c-.787-.88-6.595-7.35-13.091-13.988l-.079-.081-.276-.281-.293-.3a291.475 291.475 0 0 0-3.284-3.292l1.418-1.374c18.55.94 69.362-47.391 101.715-80.183-20.637 26.895-52.193 66.14-85.333 100.239zm-11.929-24.36c19.717-18.909 71.107-67.182 108.1-92.92-27.316 28.454-85.789 87.49-108.1 92.92z"/></svg>