<svg id="Layer_1" data-name="Layer 1" xmlns="http://www.w3.org/2000/svg" viewBox="0 0 128 128"><title>Artboard 7</title><path d="M33.749,55.945a15.893,15.893,0,0,1,9.43-4.563,7.848,7.848,0,0,1,2.023-3.5l.006-.006,0,0,0,0a7.78,7.78,0,0,1,5.5-2.29h40.4a7.778,7.778,0,0,1,5.377,2.167c.046.039.091.08.134.123a7.778,7.778,0,0,1,2.291,5.511V87.656A22.114,22.114,0,0,1,76.865,109.71H64.971A22.114,22.114,0,0,1,42.917,87.656V83.013a15.937,15.937,0,0,1-9.168-27.068Zm9.168-.28a11.738,11.738,0,0,0,0,23.1ZM54.416,19.1a2.094,2.094,0,0,1,3.315,2.56c-.007.008-2.285,2.957-.475,5.671a12.4,12.4,0,0,1,2.387,5.58,7.753,7.753,0,0,1-1.157,4.678,2.1,2.1,0,0,1-3.692-1.986,4.109,4.109,0,0,0,.681-2.3,8.87,8.87,0,0,0-1.714-3.66C50.291,24.444,54.4,19.119,54.416,19.1Zm14.9,0a2.094,2.094,0,0,1,3.314,2.56c-.006.008-2.281,2.953-.475,5.663.027.041.053.082.077.124a12.218,12.218,0,0,1,2.31,5.464,7.752,7.752,0,0,1-1.157,4.678,2.1,2.1,0,0,1-3.692-1.986,4.113,4.113,0,0,0,.681-2.3,8.619,8.619,0,0,0-1.637-3.544c-.026-.035-.052-.071-.077-.108C65.184,24.448,69.3,19.119,69.312,19.1Zm14.9,0a2.094,2.094,0,0,1,3.314,2.56c-.007.008-2.285,2.957-.476,5.671a12.4,12.4,0,0,1,2.387,5.58,7.755,7.755,0,0,1-1.157,4.678,2.1,2.1,0,0,1-3.692-1.986,4.111,4.111,0,0,0,.681-2.3,8.869,8.869,0,0,0-1.714-3.66C80.082,24.444,84.2,19.119,84.208,19.1Zm6.909,30.673h-40.4a3.584,3.584,0,0,0-2.542,1.051l-.008.008a3.585,3.585,0,0,0-1.051,2.541h0V87.656a17.91,17.91,0,0,0,17.854,17.853H76.865A17.91,17.91,0,0,0,94.719,87.656V53.378a3.59,3.59,0,0,0-1.059-2.542c-.029-.029-.057-.059-.085-.09A3.584,3.584,0,0,0,91.117,49.777Z" style="fill:#332929"/><path d="M94.719,87.656V53.378a3.61,3.61,0,0,0-3.6-3.6h-40.4a3.6,3.6,0,0,0-3.6,3.6V87.656a17.91,17.91,0,0,0,17.854,17.853H76.865A17.91,17.91,0,0,0,94.719,87.656Z" style="fill:#e5e5e5;fill-rule:evenodd"/></svg>