<svg id="Layer_1" data-name="Layer 1" xmlns="http://www.w3.org/2000/svg" viewBox="0 0 128 128"><title>Artboard 5</title><path d="M64.745,47.307a2.1,2.1,0,1,1,0-4.2H73.43a2.1,2.1,0,1,1,0,4.2Zm0,8.29a2.1,2.1,0,1,1,0-4.2H73.43a2.1,2.1,0,1,1,0,4.2Zm0,8.29a2.1,2.1,0,1,1,0-4.2H73.43a2.1,2.1,0,1,1,0,4.2Zm0,8.29a2.1,2.1,0,0,1,0-4.2H73.43a2.1,2.1,0,0,1,0,4.2Zm0,8.29a2.1,2.1,0,1,1,0-4.2H73.43a2.1,2.1,0,0,1,0,4.2ZM48.566,36.146h-1.9c-.063,0-.124,0-.186-.008H41.356l3.918,4.325a2.086,2.086,0,0,1,.61,1.4l1.8,42.813a3,3,0,0,0,.865,2l0,0,0,0a2.55,2.55,0,0,0,1.818.752h26.6a2.557,2.557,0,0,0,1.822-.754l.008-.008a2.977,2.977,0,0,0,.852-1.994l1.8-45.934c0-.09-.005.041-.005-.09h.008a2.4,2.4,0,0,0-.739-1.7,2.776,2.776,0,0,0-1.818-.806l-.048,0H48.566Zm28.1-4.2V30.529a2.686,2.686,0,0,0-2.674-2.674H51.44a2.686,2.686,0,0,0-2.674,2.674v1.416Zm-12.836-9a1.571,1.571,0,0,0-2.63.708h3.037A1.566,1.566,0,0,0,63.825,22.947Zm-1.111-4.66a5.773,5.773,0,0,1,5.757,5.369h5.516a6.89,6.89,0,0,1,6.875,6.874V32.28a6.982,6.982,0,0,1,2.783,1.681,6.572,6.572,0,0,1,1.986,4.687h.008c0,.017,0,.049-.012.254L85.47,42.92h5.881a2.1,2.1,0,0,1,2.1,2.1V66.495a2.1,2.1,0,0,1-4.2,0V47.121H85.306L83.83,84.836a7.248,7.248,0,0,1-.594,2.607A9.148,9.148,0,0,1,89.059,90c.045.038.088.078.13.12a9.153,9.153,0,0,1,2.7,6.484v11.006a2.1,2.1,0,0,1-2.1,2.1H37.543a2.1,2.1,0,0,1-2.1-2.1V96.607a9.2,9.2,0,0,1,8.649-9.164,7.349,7.349,0,0,1-.594-2.607L41.731,42.781l-6.643-7.332a2.091,2.091,0,0,1,1.551-3.494h7.927V30.529a6.89,6.89,0,0,1,6.875-6.874h5.516a5.773,5.773,0,0,1,5.758-5.369ZM39.643,105.513H87.683V96.607a4.964,4.964,0,0,0-1.464-3.515c-.03-.03-.059-.061-.086-.092a4.97,4.97,0,0,0-3.428-1.372H44.621a5,5,0,0,0-4.978,4.978Z" style="fill:#332929"/><path d="M64.745,47.307a2.1,2.1,0,0,1,0-4.2H73.43a2.1,2.1,0,0,1,0,4.2Zm0,8.29a2.1,2.1,0,0,1,0-4.2H73.43a2.1,2.1,0,0,1,0,4.2Zm0,8.29a2.1,2.1,0,0,1,0-4.2H73.43a2.1,2.1,0,0,1,0,4.2Zm0,8.29a2.1,2.1,0,0,1,0-4.2H73.43a2.1,2.1,0,0,1,0,4.2Zm0,8.29a2.1,2.1,0,0,1,0-4.2H73.43a2.1,2.1,0,0,1,0,4.2Zm14.9,4.2,1.8-45.934c0-.09-.005.041-.005-.09h.008a2.636,2.636,0,0,0-2.686-2.5h-30.2l-7.21-.008,3.918,4.325a2.086,2.086,0,0,1,.61,1.4l1.8,42.813a3.034,3.034,0,0,0,.86,2l1.822.756h26.6A2.76,2.76,0,0,0,79.646,84.672Z" style="fill:#59c4c6;fill-rule:evenodd"/><path d="M82.705,91.629H44.621a5,5,0,0,0-4.978,4.978v8.906H87.683V96.607A4.992,4.992,0,0,0,82.705,91.629Z" style="fill:#e5e5e5;fill-rule:evenodd"/><path d="M48.767,31.945H76.661c0-1.306.168-2.348-.787-3.3a2.665,2.665,0,0,0-1.887-.787H51.44a2.686,2.686,0,0,0-2.674,2.674Z" style="fill:#e5e5e5;fill-rule:evenodd"/><path d="M61.2,23.655h3.037a1.571,1.571,0,0,0-3.037,0Z" style="fill:#9e8180;fill-rule:evenodd"/></svg>