<svg xmlns="http://www.w3.org/2000/svg" data-name="Layer 1" viewBox="0 0 128 128"><path fill="#332929" d="M47.464 45.5a14.475 14.475 0 0 1-7.743 2.251c-1.872-.005-3.081.42-3.76 1.188A5.333 5.333 0 0 0 35 52.513q.01.1.01.209v46.1a6.713 6.713 0 0 0 6.686 6.687H86.3a6.715 6.715 0 0 0 6.686-6.687v-46.1H93v-.033a5.5 5.5 0 0 0-.958-3.753c-.679-.768-1.888-1.193-3.76-1.188a14.475 14.475 0 0 1-7.746-2.248 14.7 14.7 0 0 1-5.378-6.061c-1.163-2.429-1.024-3.315-.8-4.745a9.785 9.785 0 0 0 .144-1.7 10.5 10.5 0 1 0-21.009 0 9.822 9.822 0 0 0 .144 1.7c.225 1.43.365 2.316-.8 4.745a14.7 14.7 0 0 1-5.373 6.061zm17.613-13.891a1.541 1.541 0 0 0-2.084-.066c-.021.024-.044.047-.067.07a1.521 1.521 0 0 0 2.146 2.154l.008-.008a1.528 1.528 0 0 0-.008-2.146zM64 26.969a5.693 5.693 0 0 1 4.035 1.675 5.706 5.706 0 0 1 0 8.078h-.005a5.714 5.714 0 0 1-8.072-8.09c.046-.046.094-.089.142-.129a5.689 5.689 0 0 1 3.9-1.534zm-24.28 16.6a10.284 10.284 0 0 0 5.5-1.611 10.5 10.5 0 0 0 3.852-4.321 3.118 3.118 0 0 0 .438-2.3 13.806 13.806 0 0 1-.21-2.341 14.705 14.705 0 0 1 29.411 0 13.818 13.818 0 0 1-.21 2.341 3.117 3.117 0 0 0 .438 2.3 10.5 10.5 0 0 0 3.852 4.321 10.282 10.282 0 0 0 5.5 1.611c3.175-.009 5.41.92 6.893 2.6a9.347 9.347 0 0 1 2.01 6.559h.008v46.1A10.918 10.918 0 0 1 86.3 109.714H41.7a10.915 10.915 0 0 1-10.891-10.887v-46.1c0-.054 0-.106.006-.159a9.252 9.252 0 0 1 2.011-6.4c1.484-1.684 3.719-2.613 6.894-2.604z"/><path fill="#f6d4a4" fill-rule="evenodd" d="M68.043 28.643A5.707 5.707 0 1 1 64 26.969a5.728 5.728 0 0 1 4.043 1.674zm6.457 4.348a10.5 10.5 0 1 0-20.865 1.7c.225 1.43.365 2.316-.8 4.745a14.7 14.7 0 0 1-5.371 6.064c-5.742 3.639-9.461 1.128-11.5 3.438-.784.887-.95 2.14-.95 3.786v46.1a6.713 6.713 0 0 0 6.686 6.687h44.6a6.715 6.715 0 0 0 6.686-6.687v-46.1H93c0-3.42-.953-4.975-4.718-4.974a14.576 14.576 0 0 1-13.121-8.311c-1.661-3.457-.661-3.788-.661-6.448z"/></svg>