<svg id="Layer_1" data-name="Layer 1" xmlns="http://www.w3.org/2000/svg" viewBox="0 0 128 128"><title>Artboard 1</title><path d="M83.36,97.847A111.467,111.467,0,0,1,64,99.508a115.841,115.841,0,0,1-19.36-1.674v2.153a3.12,3.12,0,0,0,.867,2.182c.029.026.059.054.087.082a6.6,6.6,0,0,0,3.308,1.621,74.992,74.992,0,0,0,15.517,1.653,66.254,66.254,0,0,0,14.646-1.645,6.932,6.932,0,0,0,3.356-1.667,3.068,3.068,0,0,0,.939-2.226ZM44.64,93.577A111.717,111.717,0,0,0,64,95.323a107.19,107.19,0,0,0,19.36-1.738V63a2.1,2.1,0,0,1,2.1-2.1,12.107,12.107,0,1,0-6.231-22.487,2.1,2.1,0,0,1-3.253-2.04c.044-.3.076-.592.1-.882.019-.269.03-.569.03-.9a12.1,12.1,0,1,0-24.207,0q0,.492.03.9c.021.291.055.586.1.884h0a2.1,2.1,0,0,1-3.165,2.092A12.107,12.107,0,1,0,42.54,60.9a2.1,2.1,0,0,1,2.1,2.1Zm-2.1-61.083a16.316,16.316,0,0,1,4.418.611q.4.112.785.242a16.3,16.3,0,0,1,32.514,0q.389-.131.785-.242A16.3,16.3,0,1,1,87.56,64.968V99.987a7.146,7.146,0,0,1-2.17,5.2,11.126,11.126,0,0,1-5.407,2.783,70.405,70.405,0,0,1-15.565,1.743,79.105,79.105,0,0,1-16.37-1.735,10.8,10.8,0,0,1-5.424-2.753c-.042-.042-.082-.085-.119-.13a7.186,7.186,0,0,1-2.066-5.1V64.968a16.3,16.3,0,0,1,2.1-32.474Z" style="fill:#332929"/><path d="M44.64,63V93.577A111.717,111.717,0,0,0,64,95.323a107.19,107.19,0,0,0,19.36-1.738V63a2.1,2.1,0,0,1,2.1-2.1,12.107,12.107,0,1,0-6.231-22.487,2.1,2.1,0,0,1-3.253-2.04c.044-.3.076-.592.1-.882.019-.269.03-.569.03-.9a12.1,12.1,0,1,0-24.207,0q0,.492.03.9c.021.291.055.586.1.885a2.1,2.1,0,0,1-3.165,2.092A12.107,12.107,0,1,0,42.54,60.9,2.1,2.1,0,0,1,44.64,63Z" style="fill:#e5e5e5;fill-rule:evenodd"/><path d="M64,99.508a115.841,115.841,0,0,1-19.36-1.674v2.153a3.12,3.12,0,0,0,.867,2.182l.087.082a6.6,6.6,0,0,0,3.308,1.621,74.992,74.992,0,0,0,15.517,1.653,66.254,66.254,0,0,0,14.646-1.645,6.932,6.932,0,0,0,3.356-1.667,3.068,3.068,0,0,0,.939-2.226V97.847A111.467,111.467,0,0,1,64,99.508Z" style="fill:#fff;fill-rule:evenodd"/></svg>