<svg id="Layer_1" data-name="Layer 1" xmlns="http://www.w3.org/2000/svg" viewBox="0 0 128 128"><title>Artboard 15</title><path d="M91.223,80.815V76.151H36.777v4.663A13.967,13.967,0,0,0,50.7,94.738H77.3A13.968,13.968,0,0,0,91.223,80.815Zm2.154-15.439H34.589a3.284,3.284,0,0,0-2.239.881c-.026.029-.053.058-.081.086a3.278,3.278,0,0,0-.967,2.32h0a3.277,3.277,0,0,0,.967,2.32l0,0a3.287,3.287,0,0,0,2.324.963H93.412a3.277,3.277,0,0,0,2.32-.967l0,0a3.286,3.286,0,0,0,.963-2.324h0a3.285,3.285,0,0,0-.881-2.239c-.029-.026-.058-.053-.086-.081a3.277,3.277,0,0,0-2.32-.967ZM73.893,98.938H54.108a8.72,8.72,0,0,0-8.415,6.574H82.308a8.719,8.719,0,0,0-8.415-6.574Zm-1.74-56.35H50.7A13.968,13.968,0,0,0,36.777,56.512v4.663H91.223V56.512A13.969,13.969,0,0,0,77.3,42.589Zm-14.178-4.2H70.025V37.337a2.508,2.508,0,0,0-.734-1.779l-.008-.008a2.509,2.509,0,0,0-1.779-.734H60.5a2.514,2.514,0,0,0-1.779.742l0,0,0,0a2.508,2.508,0,0,0-.734,1.779Zm4.681-7.772h2.689v-3.11a1.341,1.341,0,0,0-2.293-.949l0,0a1.35,1.35,0,0,0-.392.952ZM50.7,38.388h3.074V37.337a6.7,6.7,0,0,1,1.977-4.744l0,0a6.745,6.745,0,0,1,2.708-1.655V27.505a5.523,5.523,0,0,1,1.627-3.91l0,0,0,0a5.52,5.52,0,0,1,7.828,0l.008.008a5.523,5.523,0,0,1,1.627,3.91v3.431a6.768,6.768,0,0,1,2.7,1.653l0,0,0,0,.008.008a6.7,6.7,0,0,1,1.965,4.732v1.051H77.3a18.019,18.019,0,0,1,4.095.469l.046-16.37H74.4a2.1,2.1,0,1,1,0-4.2h9.136v.008a2.092,2.092,0,0,1,2.092,2.092L85.575,40.4A18.256,18.256,0,0,1,90.1,43.711a18.07,18.07,0,0,1,5.322,12.8v4.939A7.513,7.513,0,0,1,98.7,63.373c.042.042.083.087.121.132a7.454,7.454,0,0,1,2.077,5.158h0a7.458,7.458,0,0,1-2.2,5.282l0,0,0,0a7.509,7.509,0,0,1-3.278,1.922v4.939A18.2,18.2,0,0,1,82.6,98.145q.2.183.39.374a12.838,12.838,0,0,1,3.781,9.095,2.1,2.1,0,0,1-2.1,2.1H43.332a2.1,2.1,0,0,1-2.1-2.1,12.838,12.838,0,0,1,3.781-9.095q.191-.191.39-.374a18.2,18.2,0,0,1-12.827-17.33V75.874a7.508,7.508,0,0,1-3.269-1.921l0,0,0,0a7.466,7.466,0,0,1-2.2-5.29h0a7.466,7.466,0,0,1,2.2-5.29c.042-.042.087-.083.132-.121a7.509,7.509,0,0,1,3.146-1.8v-4.94a18.07,18.07,0,0,1,5.322-12.8A18.264,18.264,0,0,1,42.425,40.4l-.056-20.012a2.092,2.092,0,0,1,2.092-2.092v-.008H53.6a2.1,2.1,0,1,1,0,4.2H46.559l.046,16.37A18.021,18.021,0,0,1,50.7,38.388Z" style="fill:#332929"/><path d="M50.7,42.589A13.968,13.968,0,0,0,36.777,56.512v4.663H91.223V56.512A13.969,13.969,0,0,0,77.3,42.589H50.7Z" style="fill:#59c4c6;fill-rule:evenodd"/><path d="M93.377,65.376h-58.7a3.287,3.287,0,1,0-.088,6.574H93.412a3.287,3.287,0,1,0-.035-6.574Z" style="fill:#e5e5e5;fill-rule:evenodd"/><path d="M91.223,76.151H36.777v4.663A13.967,13.967,0,0,0,50.7,94.738H77.3A13.968,13.968,0,0,0,91.223,80.815Z" style="fill:#59c4c6;fill-rule:evenodd"/><path d="M73.893,98.938H54.108a8.715,8.715,0,0,0-8.415,6.574H82.308A8.714,8.714,0,0,0,73.893,98.938Z" style="fill:#e5e5e5;fill-rule:evenodd"/><path d="M57.975,38.388H70.025c0-1.108.118-1.978-.742-2.838l-1.839-.734H60.5a2.544,2.544,0,0,0-1.783.738C57.857,36.41,57.975,37.286,57.975,38.388Z" style="fill:#e5e5e5;fill-rule:evenodd"/><path d="M62.656,30.616h2.689v-3.11a1.345,1.345,0,1,0-2.689,0Z" style="fill:#9e8180;fill-rule:evenodd"/></svg>