<svg id="Layer_1" data-name="Layer 1" xmlns="http://www.w3.org/2000/svg" viewBox="0 0 128 128"><title>Artboard 16</title><path d="M103.331,93.189H24.669a2.193,2.193,0,0,0-2.182,2.182h0a2.193,2.193,0,0,0,2.182,2.182h78.662a2.193,2.193,0,0,0,2.181-2.182h0a2.193,2.193,0,0,0-2.181-2.182Zm-35.7-34.3a5.147,5.147,0,0,0-7.174-.095c-.028.032-.058.064-.089.095a5.125,5.125,0,0,0-1.284,2.14h9.831A5.129,5.129,0,0,0,67.632,58.888ZM64,53.183a9.341,9.341,0,0,1,9.218,7.845h.443A30.154,30.154,0,0,1,103.648,89a6.4,6.4,0,0,1,6.065,6.375h0a6.4,6.4,0,0,1-6.383,6.383H24.669a6.4,6.4,0,0,1-6.383-6.383h0A6.4,6.4,0,0,1,24.352,89,30.154,30.154,0,0,1,54.34,61.028h.443a9.313,9.313,0,0,1,2.616-5.11c.042-.042.087-.083.132-.121A9.306,9.306,0,0,1,64,53.183ZM47.5,27.06a2.094,2.094,0,0,1,3.314,2.56c-.006.008-2.285,2.957-.476,5.671a12.4,12.4,0,0,1,2.387,5.58,7.752,7.752,0,0,1-1.157,4.678,2.1,2.1,0,1,1-3.692-1.985,4.109,4.109,0,0,0,.681-2.3,8.872,8.872,0,0,0-1.714-3.66C43.373,32.4,47.486,27.075,47.5,27.06Zm14.9,0a2.094,2.094,0,1,1,3.314,2.56c-.007.008-2.281,2.953-.475,5.663q.041.061.077.124a12.22,12.22,0,0,1,2.31,5.464,7.752,7.752,0,0,1-1.157,4.678,2.1,2.1,0,1,1-3.692-1.985,4.11,4.11,0,0,0,.681-2.3,8.621,8.621,0,0,0-1.637-3.544c-.026-.035-.052-.071-.077-.108C58.265,32.4,62.382,27.075,62.393,27.06Zm14.9,0a2.094,2.094,0,1,1,3.314,2.56c-.006.008-2.284,2.957-.475,5.671a12.4,12.4,0,0,1,2.387,5.58,7.751,7.751,0,0,1-1.157,4.678,2.1,2.1,0,1,1-3.692-1.985,4.11,4.11,0,0,0,.681-2.3,8.872,8.872,0,0,0-1.714-3.66C73.164,32.4,77.277,27.075,77.289,27.06ZM28.566,88.988H99.435a25.952,25.952,0,0,0-25.774-23.76H54.34a25.952,25.952,0,0,0-25.774,23.76Z" style="fill:#332929"/><path d="M36.077,72.826a25.815,25.815,0,0,0-7.512,16.162H99.435a25.952,25.952,0,0,0-25.774-23.76H54.34A25.781,25.781,0,0,0,36.077,72.826Z" style="fill:#f05f61;fill-rule:evenodd"/><path d="M101.621,93.189H24.669a2.182,2.182,0,0,0,0,4.364h78.662a2.182,2.182,0,0,0,0-4.364Z" style="fill:#e5e5e5;fill-rule:evenodd"/><path d="M59.085,61.028h9.831a5.144,5.144,0,0,0-8.458-2.235l-.089.095A5.125,5.125,0,0,0,59.085,61.028Z" style="fill:#9e8180;fill-rule:evenodd"/></svg>