<svg xmlns="http://www.w3.org/2000/svg" data-name="Layer 1" viewBox="0 0 128 128"><path fill="#332929" d="M58.066 78.283h44.192V49.042a20.656 20.656 0 0 0-20.59-20.59h-1.646A20.527 20.527 0 0 0 65.481 34.5a20.734 20.734 0 0 0-4.542 6.831l-.005.014a1.566 1.566 0 0 1-.038.095l-.006.013a20.375 20.375 0 0 0-1.457 7.323v10.455a2.1 2.1 0 0 1-3.593 1.477L54.671 59.7a5.661 5.661 0 0 0-7.943.565l-.367.424a5.661 5.661 0 0 0 .566 7.943zm-6.058 5.027a5.576 5.576 0 0 1 1.392-3.142l.057-.064q.065-.071.133-.139L44.186 71.8a9.833 9.833 0 0 1-.992-13.85l.367-.424a9.845 9.845 0 0 1 11.67-2.426V48.15l.022-.15v-.148a24.564 24.564 0 0 1 .782-5.091A20.664 20.664 0 0 0 36.918 63.3v10.189h-.007a2.094 2.094 0 0 1-3.464 1.583l-1.29-1.118a5.662 5.662 0 0 0-7.943.566l-.263.3a2.052 2.052 0 0 1-.192.224 5.664 5.664 0 0 0 .553 7.75 2.081 2.081 0 0 1 .215.188l11.026 9.556h44.192V89.49H57.437a5.619 5.619 0 0 1-5.422-4.959l-.007-.068-.008-.075-.006-.069-.005-.069V83.374l.005-.057zm54.451-4.5a5.655 5.655 0 0 1 1.6 1.123l.008.008a5.58 5.58 0 0 1 1.644 3.951 5.579 5.579 0 0 1-1.644 3.95l-.008.008a5.579 5.579 0 0 1-3.95 1.644H83.946v3.575a5.66 5.66 0 0 1 1.6 1.123l.008.008a5.58 5.58 0 0 1 1.644 3.95 5.615 5.615 0 0 1-5.6 5.6h-46.53a5.588 5.588 0 0 1-3.948-1.642 5.588 5.588 0 0 1-1.644-3.951 5.587 5.587 0 0 1 1.62-3.934l-9.413-8.157-.11-.1-.021-.021A9.833 9.833 0 0 1 20.68 72.2l.1-.112.264-.3a9.844 9.844 0 0 1 11.67-2.423V63.3a24.858 24.858 0 0 1 24.794-24.79h.085a24.988 24.988 0 0 1 4.919-6.977 24.717 24.717 0 0 1 17.51-7.281h1.646a24.859 24.859 0 0 1 24.791 24.791zm-49.506 3.822-.036.018h-.048l-.026.017-.013.009h-.007a1.368 1.368 0 0 0-.23.2l-.036.037a1.4 1.4 0 0 0-.33.786V83.988a1.415 1.415 0 0 0 1.151 1.273H104.148a1.407 1.407 0 0 0 .989-.405l.008-.008a1.407 1.407 0 0 0 .405-.989 1.409 1.409 0 0 0-.405-.989l-.008-.008a1.407 1.407 0 0 0-.971-.4H58.562a2.1 2.1 0 0 1-1.609.17zm24.661 14.111H36.049a2.1 2.1 0 0 1-1.6.149 1.418 1.418 0 0 0-.365.264 1.4 1.4 0 0 0-.413.989 1.394 1.394 0 0 0 .405.989l.008.008a1.394 1.394 0 0 0 .989.4H81.6a1.41 1.41 0 0 0 1.4-1.4 1.406 1.406 0 0 0-.4-.989l-.008-.008a1.409 1.409 0 0 0-.978-.402z"/><path fill="#f05f61" fill-rule="evenodd" d="M80.022 28.452a20.739 20.739 0 0 0-19.088 12.895 20.247 20.247 0 0 0-1.5 7.7v10.184a2.1 2.1 0 0 1-3.593 1.477c-1.574-1.473-2.994-2.523-5.258-2.361a6.241 6.241 0 0 0-5.569 6.43 5.609 5.609 0 0 0 1.915 3.852l11.14 9.654h44.192V49.042a20.656 20.656 0 0 0-20.59-20.59z"/><path fill="#f05f61" fill-rule="evenodd" d="M53.6 79.955 44.186 71.8a10.118 10.118 0 0 1 11.045-16.7c0-4.173-.262-8.263.811-12.335A20.664 20.664 0 0 0 36.918 63.3v10.189h-.007a2.1 2.1 0 0 1-3.464 1.583c-1.65-1.428-2.846-2.648-5.381-2.467a6.254 6.254 0 0 0-5.569 6.43 5.609 5.609 0 0 0 1.815 3.765l.215.188 11.026 9.556h44.192V89.49H57.437a5.594 5.594 0 0 1-3.837-9.535z"/><path fill="#e5e5e5" fill-rule="evenodd" d="M81.614 96.743H36.049a2.1 2.1 0 0 1-1.6.149 1.425 1.425 0 0 0-.365 2.251 1.394 1.394 0 0 0 .989.4H81.6a1.4 1.4 0 0 0 .014-2.8zM57.527 85.288h46.582a1.4 1.4 0 0 0 .018-2.8H58.562a2.1 2.1 0 0 1-1.609.147 1.406 1.406 0 0 0 .5 2.651z"/></svg>