<svg xmlns="http://www.w3.org/2000/svg" data-name="Layer 1" viewBox="0 0 128 128"><path fill="#332929" d="M68.668 80.311l1.891 5.548a2.1 2.1 0 01-2.129 2.765l-23.835-.05a2.094 2.094 0 01-1.982-2.764l1.874-5.5a34.953 34.953 0 01-4.289-1.591l-8.1 23.774a2.287 2.287 0 104.331 1.468l3.208-9.411a2.1 2.1 0 012.143-1.418l29.785.061a2.093 2.093 0 011.982 1.42l3.186 9.348a2.284 2.284 0 002.9 1.432 2.283 2.283 0 001.431-2.9l-8.1-23.773a34.984 34.984 0 01-4.296 1.591zm-20.081.957L47.52 84.4l18.123.038-1.079-3.166a35.14 35.14 0 01-5.915.5H54.5a35.144 35.144 0 01-5.913-.504zM91.844 42.71h10.7a6.235 6.235 0 014.4 1.83 6.231 6.231 0 011.835 4.407v.431a6.224 6.224 0 01-1.834 4.407l-.008.008a6.223 6.223 0 01-4.407 1.834h-9.8a35.58 35.58 0 01-16.012 21.132l8.311 24.384v.006a6.482 6.482 0 01-4.049 8.212h-.008a6.484 6.484 0 01-8.216-4.057l-2.7-7.931-26.94-.056-2.723 7.988a6.479 6.479 0 01-12.273-4.159l8.313-24.386a35.651 35.651 0 01-6.86-5.358 35.189 35.189 0 01-10.367-24.93v-1.661a2.1 2.1 0 012.1-2.1zm10.7 4.2h-8.6v4.53h8.6a2.046 2.046 0 002.049-2.049v-.431a2.036 2.036 0 00-.6-1.445l-.008-.008a2.037 2.037 0 00-1.441-.596zM40.588 19.106a2.094 2.094 0 013.314 2.56c-.007.008-2.285 2.957-.475 5.671a12.4 12.4 0 012.387 5.58 7.752 7.752 0 01-1.157 4.678 2.1 2.1 0 01-3.692-1.986 4.109 4.109 0 00.681-2.3 8.869 8.869 0 00-1.714-3.66c-3.469-5.203.645-10.528.656-10.543zm14.9 0a2.094 2.094 0 013.314 2.56c-.006.008-2.281 2.953-.475 5.663.027.041.053.082.077.124a12.221 12.221 0 012.31 5.464 7.752 7.752 0 01-1.157 4.678 2.1 2.1 0 01-3.692-1.986 4.113 4.113 0 00.681-2.3 8.618 8.618 0 00-1.646-3.543 2.97 2.97 0 01-.077-.108c-3.467-5.208.649-10.537.661-10.552zm14.9 0a2.094 2.094 0 013.314 2.56c-.007.008-2.285 2.957-.475 5.671a12.4 12.4 0 012.387 5.58 7.755 7.755 0 01-1.157 4.678 2.1 2.1 0 01-3.692-1.986 4.114 4.114 0 00.681-2.3 8.875 8.875 0 00-1.714-3.66c-3.478-5.203.636-10.528.648-10.543zm19.353 27.805h-66.33A31.192 31.192 0 0054.5 77.567h4.15a31.192 31.192 0 0031.091-30.656z"/><path fill="#f05f61" fill-rule="evenodd" d="M58.65 77.567a31.192 31.192 0 0031.091-30.656h-66.33A31.192 31.192 0 0054.5 77.567z"/><path fill="#e5e5e5" fill-rule="evenodd" d="M68.43 88.624l-23.835-.05a2.1 2.1 0 01-1.985-2.765l1.874-5.5a34.953 34.953 0 01-4.289-1.591l-8.1 23.774a2.287 2.287 0 004.331 1.468l3.208-9.411a2.1 2.1 0 012.143-1.418l29.785.061a2.1 2.1 0 011.986 1.419l3.186 9.348a2.29 2.29 0 004.217.28l.114-1.748-8.1-23.773a34.984 34.984 0 01-4.289 1.591l1.891 5.548a2.094 2.094 0 01-2.137 2.767z"/><path fill="#9e8180" fill-rule="evenodd" d="M93.945 51.44h8.6a2.047 2.047 0 002.049-2.049 2.249 2.249 0 00-.6-1.885 2.037 2.037 0 00-1.445-.6h-8.6z"/></svg>