<svg id="Layer_1" data-name="Layer 1" xmlns="http://www.w3.org/2000/svg" viewBox="0 0 128 128"><title>Artboard 14</title><path d="M42.258,48.92c8.356-8.082,15.721-15.209,10.2-27.607a2.1,2.1,0,0,1,2.857-2.779c24.267,12.773,21.247,28.572,18.9,40.824h0l-.011.065c-.868,4.538.368,7.916,2.578,9.792A7.244,7.244,0,0,0,80.107,70.8a8.179,8.179,0,0,0,3.951-.237c3.684-1.13,7.327-4.8,9.132-11.661h0a2.093,2.093,0,0,1,3.821-.542c13.224,22.2,7.1,36.986-6.105,44.855-7.589,4.521-17.563,6.642-27.458,6.479s-19.772-2.607-27.164-7.215c-12.271-7.648-17.9-20.954-6.417-39.374C33.329,57.556,37.917,53.119,42.258,48.92ZM58.148,25.063c2.7,11.7-4.715,18.876-12.985,26.876-4.151,4.015-8.537,8.257-11.734,13.387C23.55,81.175,28.189,92.5,38.5,98.923c6.75,4.207,15.849,6.44,25.015,6.591s18.341-1.776,25.243-5.888c10.457-6.23,15.57-17.766,6.878-35.075-2.526,5.591-6.394,8.807-10.348,10.019a12.337,12.337,0,0,1-5.969.352,11.417,11.417,0,0,1-5.244-2.509c-3.289-2.794-5.175-7.576-3.989-13.779l.013-.064h0C72.015,48.54,74.44,35.843,58.148,25.063Z" style="fill:#332929"/><path d="M33.429,65.326C23.55,81.175,28.189,92.5,38.5,98.923c6.75,4.207,15.849,6.44,25.015,6.591s18.341-1.776,25.243-5.888c10.457-6.23,15.57-17.766,6.878-35.075-2.526,5.591-6.394,8.807-10.348,10.019a12.337,12.337,0,0,1-5.969.352,11.417,11.417,0,0,1-5.244-2.509c-3.289-2.794-5.175-7.576-3.989-13.779l.012-.064c1.918-10.031,4.342-22.728-11.95-33.508,2.7,11.7-4.715,18.876-12.985,26.876C41.011,55.954,36.626,60.2,33.429,65.326Z" style="fill:#ffe749;fill-rule:evenodd"/></svg>