<svg id="Layer_1" data-name="Layer 1" xmlns="http://www.w3.org/2000/svg" viewBox="0 0 128 128"><title>Artboard 6</title><path d="M78.45,78.86l-.022.007-.007,0-.081.028-.022.008-.011,0-.011,0-.022.008-.023.009-.02.008-.022.008-.014.006-.007,0-.022.009-.043.018-.022.009L78.082,79l0,0-.022.009-.021.01-.009,0-.013.006-.021.01-.021.009h0l-.021.01-.021.01-.012.005-.009,0-.021.01c-.063.03-.126.062-.188.1h0l-.021.011-.021.011-.01.006-.011.006-.02.012-.021.012h0l-.06.035-.02.012c-.068.041-.136.083-.2.127l-.02.013-.02.013-.02.014-.04.027h0l-.006,0-.019.014-.019.014-.006,0-.013.009-.019.014-.019.014-.019.014-.019.014-.012.009-.007.005-.019.014h0l-.037.029-.018.014-.017.014h0l-.018.015-.018.015a4.881,4.881,0,0,0-.79.825,4.979,4.979,0,0,0-.344.518l0,.005-.011.021-.012.021,0,.005-.009.015-.011.021-.008.016,0,0a5.033,5.033,0,0,0-.52,1.5,4.9,4.9,0,0,0,.8,3.675v0l10.345,14.775a4.956,4.956,0,0,0,6.713,1.3c.053-.043.109-.085.167-.123h0l0,.007A4.955,4.955,0,0,0,94.4,95.466L84.054,80.69a4.889,4.889,0,0,0-3.172-2A4.973,4.973,0,0,0,78.45,78.86ZM64,57.178l-.007-.01-.323-.462a1.952,1.952,0,0,0-1.27-.8l-.022,0h0l-.02,0h0l-.018,0h-.006l-.016,0H62.3l-.014,0h-.33l-.038,0H61.89l-.02,0h0l-.021,0h0l-.022,0h0l-.021,0h0l-.019,0h-.005l-.016,0h-.007l-.014,0h-.009l-.013,0-.011,0-.011,0-.013,0h-.009l-.015,0H61.65l-.016,0h-.005l-.018,0h0l-.02,0h0l-.022.005-.021.006h0l-.019,0h0l-.017,0-.006,0-.015,0-.007,0-.014,0-.01,0-.011,0-.011,0-.01,0-.013,0-.008,0-.015,0-.006,0L61.356,56l0,0-.018.007h0l-.02.008h0l-.02.008h0l-.02.008h0l-.018.008,0,0-.016.007-.006,0-.014.007-.008,0-.012.006-.01,0-.01.005-.011.005-.009,0-.013.006-.007,0-.015.008,0,0-.016.009,0,0-.018.01h0l-.02.011h0l-.02.011a2.1,2.1,0,0,1-.212.149l-.015.012,0,0-.017.015-.017.015h0l-.016.014,0,0-.014.013,0,0-.012.012-.005,0-.011.011-.007.006-.009.01-.008.007-.008.008-.009.009-.007.007-.01.01-.005.006-.012.012,0,0-.013.014,0,0-.014.015h0l-.015.017h0l-.014.017v0l-.013.015,0,0-.011.014,0,.005-.01.012-.005.006-.008.011-.006.008-.007.009-.008.01-.005.008-.008.011,0,.007-.009.013,0,0-.01.015,0,0-.011.016v0l-.012.018h0l-.012.019v0l-.011.017,0,0-.009.015,0,.005-.008.014,0,.006-.007.013,0,.008-.006.011-.006.01-.005.009-.006.012,0,.007-.007.014,0,.006-.008.016,0,0-.009.017v0l-.009.019h0l-.009.02h0l-.009.019,0,0-.007.017,0,0-.007.015,0,.007-.006.014,0,.008,0,.012,0,.01,0,.011,0,.012,0,.009,0,.014,0,.007-.005.016,0,0L60.2,57.2v0l-.006.019h0l-.007.021h0l-.006.02v0l-.005.018v0l0,.017,0,.006,0,.015,0,.008,0,.013,0,.01,0,.011,0,.012,0,.009,0,.014,0,.008,0,.016v.006l0,.017v0l0,.019v0l0,.021a1.971,1.971,0,0,0,.315,1.476L73.315,77.363a9.084,9.084,0,0,1,1.325-1.184l0,0a2.084,2.084,0,0,1,.346-.242l.017-.011.026-.017.026-.017.025-.017h0l.026-.017.026-.017.026-.017.016-.01.01-.006.027-.016.026-.016.053-.033.027-.016.026-.016.023-.014,0,0,.027-.016.026-.015.027-.016.134-.077.027-.015.027-.015.02-.011.006,0,.027-.015.027-.015.027-.014.054-.029.027-.014.027-.014h0l.027-.014.027-.014.027-.014.018-.009.009,0,.027-.014.027-.013.027-.013.008,0,.019-.009L76.1,75.3l.027-.013.025-.012h0l.027-.013.027-.013.028-.013.015-.007.012-.005.028-.012.027-.012.027-.012.006,0,.022-.009.028-.012.028-.012.023-.01,0,0,.028-.012.028-.012.028-.011Zm4.62-.694,12.611,18.01c.126.017.252.036.377.058a9.082,9.082,0,0,1,5.879,3.743L97.83,93.071a9.1,9.1,0,0,1-2.237,12.672h0l-.036.024.005.007h0c-.047.031-.1.06-.144.088a9.1,9.1,0,0,1-12.5-2.358L72.573,88.729l-.008-.012a9.067,9.067,0,0,1-1.5-6.781c.022-.127.048-.254.075-.381l-12.61-18.01-3.5,2.447a6.062,6.062,0,0,1-4.572,1.014,6.652,6.652,0,0,1-4.05-2.451L29.762,43.407c-.055-.07-.119-.158-.19-.257-.034-.049-.066-.1-.1-.15a5.89,5.89,0,0,1-.848-4.323,6.39,6.39,0,0,1,2.316-3.85c.052-.041.105-.079.16-.114s.085-.063.127-.092L49.595,21.763l0,0c.064-.045.166-.111.3-.194a6.372,6.372,0,0,1,4.4-.864,5.887,5.887,0,0,1,3.881,2.42c.1.14.159.229.18.263s.048.08.07.12L72.53,46.276a6.639,6.639,0,0,1,.92,4.63,6.074,6.074,0,0,1-2.521,3.959ZM58.336,52.932h0a2.121,2.121,0,0,1,.379-.265l.006,0,.057-.036.009-.006.055-.034.012-.008h0l.067-.04.049-.029.018-.011.046-.026.022-.012.044-.024.025-.013.059-.032.009,0,.037-.019.031-.016.034-.017.035-.017.031-.015.038-.018.028-.013.042-.019.025-.012.044-.02.022-.01.048-.021.019-.008.052-.022.016-.007.055-.022.013-.005.058-.023.01,0,.061-.024.006,0,.065-.024h0l.068-.024L60.106,52h0l.065-.021.007,0,.062-.02.01,0,.059-.018.013,0,.056-.016.017,0,.053-.015.02-.005.05-.013.069-.017.027-.007.043-.01.03-.007.04-.009h0l.069-.015.037-.008.033-.007.04-.008.03-.006.044-.008.027,0,.047-.008.023,0,.05-.008.02,0,.053-.008.017,0,.057-.008h.013l.071-.008.064-.007h.007l.067-.006h0l.071-.006.071-.005h0l.068,0h.006l.064,0h.01l.061,0h.383l.04,0h.033l.037,0,.037,0,.033,0,.04,0,.03,0,.043,0,.027,0,.047,0,.023,0,.05.005.02,0,.053.006.017,0,.056.007.013,0,.06.008h.01l.063.009h.007l.066.011h0l.069.012.05.009.023,0,.027.005.045.009h0l.05.011.017,0,.033.007.039.009.01,0,.05.011.012,0,.038.009.034.008.015,0,.049.013.007,0,.042.011.029.008.02.006.049.014h0l.047.013.024.007.025.008.046.014h0l.048.016.019.006.029.01.041.014.008,0,.048.017.014.005.034.012.036.013.012,0,.047.018.009,0,.039.015.03.012.017.007.047.019,0,0,.043.018.025.011.022.009.046.02h0l.047.021.02.009.026.012.041.019.005,0,.046.022.015.008.031.015.036.018.01.005.046.023.011.005.035.018.031.016.014.008.045.024.006,0,.04.022.026.015.019.011.045.026h0l.043.025.021.012.023.014.041.025,0,0,.044.027.017.011.027.017.036.023.007,0,.044.028.012.008.031.021.031.021.012.008.043.029.008.005.035.025.026.019.016.011.042.031,0,0,.039.029.022.016.02.015.04.031h0l.041.032.018.014.023.019.036.029,0,0,.04.033.013.011.027.023.031.027.009.008,2.473-1.731a1.912,1.912,0,0,0,.782-1.252,2.455,2.455,0,0,0-.347-1.709l-14.1-22.766q-.038-.053-.072-.108c-.051-.083-.029-.056-.048-.083a1.72,1.72,0,0,0-1.141-.682,2.19,2.19,0,0,0-1.51.291L52,25.188l0,0-.005,0L33.627,38.05h0c-.029.025-.058.05-.089.074a2.171,2.171,0,0,0-.79,1.306,1.751,1.751,0,0,0,.205,1.24l.049.066.059.076L49.715,61.963a2.433,2.433,0,0,0,1.473.909,1.929,1.929,0,0,0,1.454-.309l3.647-2.554,0-.012-.014-.037-.013-.035-.005-.014-.017-.05,0-.008-.014-.042-.01-.03-.007-.02-.016-.05v0l-.015-.047-.008-.025-.007-.025-.014-.047v0l-.014-.05-.006-.02-.008-.03L56.1,59.42l0-.008-.013-.05,0-.015-.009-.035-.009-.037,0-.013-.012-.051,0-.01-.009-.041-.007-.032,0-.018-.01-.051v0l-.009-.046L56,58.981l0-.023-.009-.05h0l-.008-.051,0-.022,0-.028-.007-.045v-.006l-.008-.051,0-.017,0-.034-.005-.04V58.6l-.006-.051v-.012l0-.039,0-.035,0-.016-.005-.051v-.006l0-.045,0-.029V58.3l0-.051h0l0-.05v-.024l0-.027,0-.047v0l0-.051v-.408l0-.051v0l0-.048V57.5l0-.024,0-.049v0l0-.051,0-.021,0-.03,0-.043v-.007l0-.051,0-.015,0-.035,0-.038v-.012l.006-.05v-.01l.005-.04,0-.033,0-.017.007-.05v-.005l.007-.045,0-.028,0-.022.009-.05L56,56.7v0l.013-.066v-.006l.013-.062,0-.009.013-.06,0-.013.013-.056,0-.016.013-.053,0-.019.013-.05.006-.022.012-.046.007-.025.012-.043.008-.028.012-.04.009-.031.011-.036.011-.034.011-.034.012-.036.01-.03.013-.04.009-.027.015-.042.009-.024.017-.045.008-.021.018-.048.007-.018.02-.051.006-.014.022-.054,0-.011.024-.057,0-.009.026-.06,0-.006.028-.062v0l.03-.065.031-.064,0,0,.03-.061,0-.006.029-.057,0-.009.028-.054.006-.012.027-.051.008-.015.027-.048.071-.124.013-.023.023-.038.037-.061h0l.017-.028.021-.033.039-.06.022-.033.018-.027.041-.06L57,54.323l.015-.021v0l.04-.057.031-.043.011-.016.087-.115.039-.05.006-.007.09-.111,0,0,.047-.055h0l.047-.055,0,0,.046-.051,0-.006.044-.048.007-.008.093-.1.012-.013.039-.04.052-.052.017-.017.036-.034.044-.042.009-.009.023-.021.031-.029q.082-.076.167-.149l.034-.029.023-.019c.058-.048.116-.1.176-.141l.046-.036Z" style="fill:#332929"/><path d="M32.747,39.431l.313,1.383L49.715,61.963a2.174,2.174,0,0,0,2.928.6l3.647-2.554a6.153,6.153,0,0,1,.488-5.346l1.558-1.731,2.4-1.108a6.08,6.08,0,0,1,3.42.226l1.91,1.116,2.473-1.731a2.187,2.187,0,0,0,.436-2.961L54.792,25.6A2,2,0,0,0,52,25.185L33.626,38.051Z" style="fill:#e5e5e5;fill-rule:evenodd"/><path d="M60.437,58.972,73.315,77.363l3.232-2.26L64,57.178c-.567-.773-1.032-1.367-2.1-1.3l-.847.26-.632.6A2.01,2.01,0,0,0,60.437,58.972Z" style="fill:#e5e5e5;fill-rule:evenodd"/><path d="M77.028,79.617A4.958,4.958,0,0,0,76,86.335l10.345,14.775a4.925,4.925,0,0,0,6.881,1.171l0,.007A4.956,4.956,0,0,0,94.4,95.466L84.054,80.69a4.963,4.963,0,0,0-5.6-1.83l-.479.189-.765.438Z" style="fill:#9e8180;fill-rule:evenodd"/></svg>