<svg id="Layer_1" data-name="Layer 1" xmlns="http://www.w3.org/2000/svg" viewBox="0 0 128 128"><title>Artboard 10</title><path d="M68.668,80.311l1.891,5.548a2.1,2.1,0,0,1-2.129,2.765l-23.835-.05a2.094,2.094,0,0,1-1.982-2.764h0l1.874-5.5a34.953,34.953,0,0,1-4.289-1.591l-8.1,23.774a2.287,2.287,0,1,0,4.331,1.468l3.208-9.411a2.1,2.1,0,0,1,2.143-1.418l29.785.061a2.093,2.093,0,0,1,1.982,1.42h0l3.186,9.348a2.284,2.284,0,0,0,2.9,1.432h0a2.283,2.283,0,0,0,1.431-2.9h0l-8.1-23.773A34.984,34.984,0,0,1,68.668,80.311Zm-20.081.957L47.52,84.4l18.123.038-1.079-3.166a35.14,35.14,0,0,1-5.915.5H54.5A35.144,35.144,0,0,1,48.587,81.268ZM91.844,42.71h10.7a6.235,6.235,0,0,1,4.4,1.83l0,0,0,0,0,0a6.231,6.231,0,0,1,1.835,4.407v.431a6.224,6.224,0,0,1-1.834,4.407l-.008.008a6.223,6.223,0,0,1-4.407,1.834H92.73A35.58,35.58,0,0,1,76.718,76.759l8.311,24.384,0,.006a6.482,6.482,0,0,1-4.049,8.212l-.008,0a6.484,6.484,0,0,1-8.216-4.057l-2.7-7.931-26.94-.056-2.723,7.988a6.479,6.479,0,0,1-12.273-4.159L36.433,76.76a35.651,35.651,0,0,1-6.86-5.358A35.189,35.189,0,0,1,19.206,46.472V44.811a2.1,2.1,0,0,1,2.1-2.1Zm10.7,4.2h-8.6V51.44h8.6a2.046,2.046,0,0,0,2.049-2.049V48.96a2.036,2.036,0,0,0-.6-1.445l-.008-.008A2.037,2.037,0,0,0,102.544,46.911ZM40.588,19.106a2.094,2.094,0,0,1,3.314,2.56c-.007.008-2.285,2.957-.475,5.671a12.4,12.4,0,0,1,2.387,5.58,7.752,7.752,0,0,1-1.157,4.678,2.1,2.1,0,0,1-3.692-1.986,4.109,4.109,0,0,0,.681-2.3,8.869,8.869,0,0,0-1.714-3.66C36.463,24.446,40.577,19.121,40.588,19.106Zm14.9,0a2.094,2.094,0,0,1,3.314,2.56c-.006.008-2.281,2.953-.475,5.663.027.041.053.082.077.124a12.221,12.221,0,0,1,2.31,5.464,7.752,7.752,0,0,1-1.157,4.678,2.1,2.1,0,0,1-3.692-1.986,4.113,4.113,0,0,0,.681-2.3A8.618,8.618,0,0,0,54.9,29.766c-.026-.035-.052-.071-.077-.108C51.356,24.45,55.472,19.121,55.484,19.106Zm14.9,0a2.094,2.094,0,0,1,3.314,2.56c-.007.008-2.285,2.957-.475,5.671a12.4,12.4,0,0,1,2.387,5.58,7.755,7.755,0,0,1-1.157,4.678,2.1,2.1,0,0,1-3.692-1.986,4.114,4.114,0,0,0,.681-2.3,8.875,8.875,0,0,0-1.714-3.66C66.254,24.446,70.368,19.121,70.38,19.106ZM89.741,46.911H23.411A31.192,31.192,0,0,0,54.5,77.567H58.65A31.192,31.192,0,0,0,89.741,46.911Z" style="fill:#332929"/><path d="M58.65,77.567A31.192,31.192,0,0,0,89.741,46.911H23.411A31.192,31.192,0,0,0,54.5,77.567Z" style="fill:#f05f61;fill-rule:evenodd"/><path d="M68.43,88.624l-23.835-.05a2.1,2.1,0,0,1-1.985-2.765l1.874-5.5a34.953,34.953,0,0,1-4.289-1.591l-8.1,23.774a2.287,2.287,0,0,0,4.331,1.468l3.208-9.411a2.1,2.1,0,0,1,2.143-1.418l29.785.061a2.1,2.1,0,0,1,1.986,1.419l3.186,9.348a2.29,2.29,0,0,0,4.217.28l.114-1.748-8.1-23.773a34.984,34.984,0,0,1-4.289,1.591l1.891,5.548A2.094,2.094,0,0,1,68.43,88.624Z" style="fill:#e5e5e5;fill-rule:evenodd"/><path d="M93.945,51.44h8.6a2.047,2.047,0,0,0,2.049-2.049,2.249,2.249,0,0,0-.6-1.885,2.037,2.037,0,0,0-1.445-.6h-8.6Z" style="fill:#9e8180;fill-rule:evenodd"/></svg>