<svg xmlns="http://www.w3.org/2000/svg" data-name="Layer 1" viewBox="0 0 128 128"><path fill="#332929" d="M64.942 53.8a2.1 2.1 0 0 1 0-4.2H75.9a2.1 2.1 0 0 1 0 4.2zm0 10.458a2.1 2.1 0 1 1 0-4.2H75.9a2.1 2.1 0 0 1 0 4.2zm0 10.458a2.1 2.1 0 1 1 0-4.2H75.9a2.1 2.1 0 0 1 0 4.2zm0 10.458a2.1 2.1 0 1 1 0-4.2H75.9a2.1 2.1 0 0 1 0 4.2zm0 10.459a2.1 2.1 0 0 1 0-4.2H75.9a2.1 2.1 0 0 1 0 4.2zM44.53 39.719h-2.4c-.062 0-.124 0-.185-.008H34.2l5.724 6.319a2.1 2.1 0 0 1 .682 1.549v54.011a3.906 3.906 0 0 0 1.146 2.769l.008.008a3.905 3.905 0 0 0 2.769 1.146h38.094a3.906 3.906 0 0 0 2.769-1.146l.008-.008a3.907 3.907 0 0 0 1.146-2.769V43.641a3.907 3.907 0 0 0-1.146-2.769l-.008-.008a3.906 3.906 0 0 0-2.769-1.146zm19.639-16.5a2.535 2.535 0 0 0-4.321 1.8v.041h5.061v-.041a2.525 2.525 0 0 0-.741-1.79zm-1.79-4.934a6.714 6.714 0 0 1 4.755 1.976 6.71 6.71 0 0 1 1.972 4.76v.041H76.6a8.142 8.142 0 0 1 8.123 8.123V35.8a8.162 8.162 0 0 1 3.63 2.107l.006.006a8.1 8.1 0 0 1 2.379 5.725v5.722h7.761a2.1 2.1 0 0 1 2.1 2.1v27.094a2.1 2.1 0 1 1-4.2 0v-24.99h-5.66v48.026a8.1 8.1 0 0 1-2.385 5.731l-.006.006a8.1 8.1 0 0 1-5.725 2.379H44.53a8.1 8.1 0 0 1-5.731-2.385l-.006-.006a8.1 8.1 0 0 1-2.379-5.725V48.375l-8.473-9.353a2.091 2.091 0 0 1 1.551-3.494h10.541v-2.346a8.1 8.1 0 0 1 2.384-5.738 8.093 8.093 0 0 1 5.731-2.385h7.49v-.041a6.733 6.733 0 0 1 6.732-6.732zM44.53 35.518h35.993v-2.336A3.939 3.939 0 0 0 76.6 29.26H48.157a3.919 3.919 0 0 0-2.773 1.15 3.91 3.91 0 0 0-1.153 2.769v2.335z"/><path fill="#59c4c6" fill-rule="evenodd" d="M64.942 53.8a2.1 2.1 0 0 1 0-4.2H75.9a2.1 2.1 0 0 1 0 4.2zm0 10.458a2.1 2.1 0 0 1 0-4.2H75.9a2.1 2.1 0 0 1 0 4.2zm0 10.458a2.1 2.1 0 0 1 0-4.2H75.9a2.1 2.1 0 0 1 0 4.2zm0 10.458a2.1 2.1 0 0 1 0-4.2H75.9a2.1 2.1 0 0 1 0 4.2zm0 10.459a2.1 2.1 0 0 1 0-4.2H75.9a2.1 2.1 0 0 1 0 4.2zM40.607 47.579v54.011a3.925 3.925 0 0 0 3.923 3.923h38.093a3.925 3.925 0 0 0 3.923-3.923V43.641a3.925 3.925 0 0 0-3.923-3.923H44.53l-10.33-.007 5.724 6.319a2.1 2.1 0 0 1 .683 1.549z"/><path fill="#e5e5e5" fill-rule="evenodd" d="M44.53 35.518h35.993c0-2.034.278-3.672-1.154-5.1A3.91 3.91 0 0 0 76.6 29.26H48.157a3.889 3.889 0 0 0-2.769 1.154c-1.432 1.432-1.153 3.07-1.153 5.1z"/><path fill="#9e8180" fill-rule="evenodd" d="M59.848 25.059h5.061a2.7 2.7 0 0 0-.737-1.835 2.539 2.539 0 0 0-4.324 1.835z"/></svg>