<svg id="Layer_1" data-name="Layer 1" xmlns="http://www.w3.org/2000/svg" viewBox="0 0 128 128"><title>Artboard 11</title><path d="M83.343,71.181a2.059,2.059,0,0,1-.181-.176,4.82,4.82,0,0,0-.7-.545l0,0-.04-.025-.011-.007-.033-.02-.018-.011-.071-.042-.032-.018-.013-.007-.135-.075-.008,0-.038-.019-.015-.008-.031-.015-.022-.011-.024-.012-.03-.014-.016-.008-.038-.017-.009,0-.044-.02h0l-.047-.021-.005,0-.054-.024-.035-.014-.02-.008-.028-.011-.028-.011L81.557,70l-.013,0-.042-.016-.006,0-.1-.034-.009,0-.039-.013-.017-.005-.032-.01-.024-.008-.024-.008-.032-.009-.017-.005-.04-.012-.009,0-.048-.013h0l-.049-.013h-.006l-.044-.011-.013,0-.036-.009-.021-.005-.029-.006-.029-.007-.021,0-.037-.008-.013,0-.045-.009h-.005l-.05-.01h0l-.048-.008-.01,0-.04-.007-.016,0-.035-.005-.021,0-.029,0c-.1-.015-.2-.027-.306-.035a4.953,4.953,0,0,0-2.226.32l-.031.012-.018.007c-.066.027-.132.055-.2.085h0l-.049.023-.048.023-.009,0-.039.02-.1.049-.022.011-.026.014-.026.014-.022.012-.048.027-.034.02-.013.007-.038.023-.008,0L77.2,70.4l0,0-.046.029h0l-.046.03,0,0h0c-.053.043-.108.084-.165.122h0l0-.006-.014.01-.037.026-.014.01-.036.027-.014.011,0,0-.047.036-.033.026-.015.012-.032.026-.015.013-.032.026-.016.013-.031.026-.016.014-.029.026-.017.015-.029.025-.017.015-.027.026-.017.016-.027.025-.018.017-.026.025-.018.018-.043.043-.024.025-.018.019-.024.024-.019.02-.006.007-.076.083-.021.023-.019.022-.02.023-.019.022-.019.023-.019.023L76,71.448l0,0-.036.044-.019.025-.017.022-.02.025-.017.022-.019.026-.016.021-.02.027-.015.021-.02.027-.015.021-.02.028-.014.02-.02.029-.013.02-.02.03-.012.019-.02.031-.032.05-.011.018-.02.033-.011.018-.02.033-.01.017-.02.034-.01.017-.02.035-.009.017-.02.035-.009.016-.019.036-.008.016-.019.037-.008.015-.019.038-.007.015-.019.039-.007.014-.005.012-.019.041-.018.041-.006.013-.018.041L75.3,72.6l-.018.042-.005.012-.018.043,0,.011-.018.044,0,.011-.017.045,0,.01-.017.045,0,.01-.017.046,0,.009-.016.047,0,.008-.016.048,0,.008-.015.049,0,.007-.015.049,0,.007-.015.05v.006l-.014.051v.005l-.014.052v0l-.014.053v0l-.013.053v0l-.013.054v0L75,73.55v0l-.012.055v0l-.011.056h0l-.01.058h0l-.01.059-.009.058h0l-.009.058h0l-.008.059h0l-.007.058h0l-.006.059h0l-.006.058h0l0,.059h0l0,.059h0l0,.059h0l0,.059,0,.059h0l0,.059h0v.059h0v.059h0v.059h0v.059l0,.06,0,.059h0l0,.059,0,.059h0l0,.059.005.059h0l.006.059h0l.007.059h0l.008.059.008.059h0l.009.059.01.059.01.059.011.059h0l.012.058h0l.013.058.014.058h0l.014.058h0l.015.058.015.058.016.058h0l.017.057h0l.018.057.018.058.019.057.02.057.02.057.022.057.022.056.023.056.024.056.024.056.025.056.026.055.027.055.027.055.028.055.029.054.03.054.03.054.031.054.032.053.033.053.033.053.034.052.035.052.036.052L89.921,97.617l0,0a4.953,4.953,0,0,0,6.826,1.218l.046-.032a4.955,4.955,0,0,0,1.179-6.83L83.816,71.757A4.863,4.863,0,0,0,83.343,71.181ZM74.75,67q.094-.063.19-.123M68.432,85.313l-.078.058a2.084,2.084,0,0,1-1.431.364,17.029,17.029,0,0,1-17.733-6.8L25.329,44.855a2.092,2.092,0,0,1,.517-2.912L50.013,25.021l0,0,0,0v0l0,0c.031-.021.063-.042.095-.061a5.059,5.059,0,0,1,6.948,1.316l.006.009.006,0L86.355,68.277a9.128,9.128,0,0,1,.89,1.085L101.4,89.582a9.1,9.1,0,0,1-2.064,12.547,2.081,2.081,0,0,1-.352.246,9.1,9.1,0,0,1-12.367-2.182,2.083,2.083,0,0,1-.234-.33L74.053,82.249l-1.221.855A16.88,16.88,0,0,1,68.432,85.313ZM34.653,40.883l-4.7,3.288L52.619,76.536a12.743,12.743,0,0,0,8.257,5.233,13.016,13.016,0,0,0,2.542.195ZM74.605,67.091h0c.046-.031.092-.059.139-.085l0,0c.063-.042.126-.083.19-.123l.044-.028.051-.032.088-.053.009-.005c.064-.039.129-.076.194-.113l.008,0,.071-.039.019-.01q.343-.188.7-.344l.005,0a9.041,9.041,0,0,1,3.173-.757L53.634,28.664l0,0,0-.006,0,0h0a.867.867,0,0,0-.557-.337.893.893,0,0,0-.622.108l-.048.034,0,0v0L38.08,38.483,67.888,81.055a12.661,12.661,0,0,0,2.548-1.38l1.281-.9-.038-.074-.006-.011-.043-.086,0,0-.039-.081-.08-.171v0l-.024-.055-.014-.032-.038-.087-.037-.087h0L71.356,78l-.024-.059-.011-.028-.013-.034-.021-.054-.019-.051-.014-.037-.025-.069-.007-.02-.03-.086v0l-.03-.089,0-.014-.024-.076-.01-.031-.018-.059-.015-.048-.012-.041,0-.009-.024-.081-.024-.083,0-.007L71,76.928l-.023-.09-.007-.028-.015-.063-.042-.182-.018-.08,0-.011-.019-.091v-.006l-.016-.085-.016-.084V76.2l-.007-.041-.008-.05-.015-.091-.012-.076,0-.015-.013-.092v0l-.012-.089,0-.02-.008-.072-.01-.092-.006-.055,0-.036-.007-.073,0-.019-.008-.09v0l-.006-.092v-.016l0-.076,0-.033,0-.058V75l0-.08,0-.069v-.023l0-.086v-.373l0-.065v-.027l0-.082v-.01L70.71,74v-.025l0-.066,0-.042,0-.049.005-.06,0-.031.007-.077,0-.014.01-.091v0l.01-.087,0-.021.009-.07.005-.038.007-.052.008-.056.005-.035.012-.073,0-.018L70.83,73h0l.02-.107h0l.021-.107.022-.107h0l.023-.106h0l.025-.106h0l.026-.106h0l.027-.106.029-.106.03-.1h0l.031-.1h0l.032-.1h0l.034-.1h0l.035-.1.036-.1.037-.1.038-.1.04-.1.041-.1.042-.1.044-.1h0l.045-.1.046-.1.047-.1.048-.1.05-.1h0l.051-.1.052-.1.053-.1.055-.1h0l.056-.1h0l.057-.095h0l.058-.094.059-.094.061-.093.062-.092.063-.092h0l.064-.091h0l.065-.09.067-.09h0l.068-.089h0l.069-.088.07-.088.071-.087h0l.073-.086h0l.074-.085h0l.075-.084h0l.076-.083h0l.078-.082h0l.078-.082h0l.08-.081h0l.081-.08h0l.082-.079h0l.083-.078h0l.084-.078h0l.085-.077h0l.086-.076h0l.088-.075h0l.089-.074h0l.09-.073h0L74.2,67.4h0l.092-.071h0l.093-.069h0l.094-.069h0l.1-.068h0l.035-.024Z" style="fill:#332929"/><path d="M79.3,65.491,53.638,28.661l-.006-.012a.91.91,0,0,0-1.233-.193L38.08,38.483,67.888,81.055l3.829-2.277a9.06,9.06,0,0,1-.9-5.685l1.512-3.719.2-.271.732-.856.08-.081L74.61,67.1l0-.007q.166-.11.334-.214A9.2,9.2,0,0,1,79.3,65.491Z" style="fill:#cececd;fill-rule:evenodd"/><path d="M63.418,81.964,34.653,40.883l-4.7,3.288L52.619,76.536A12.82,12.82,0,0,0,63.418,81.964Z" style="fill:#e5e5e5;fill-rule:evenodd"/><path d="M74.986,73.609l.077,2.3.7,1.491L89.921,97.617a4.916,4.916,0,0,0,8.054-5.64l-14.632-20.8A4.955,4.955,0,0,0,80.2,69.7l-2.472.424-.789.466,0-.006A4.97,4.97,0,0,0,74.986,73.609Z" style="fill:#9e8180;fill-rule:evenodd"/></svg>