<svg id="Layer_1" data-name="Layer 1" xmlns="http://www.w3.org/2000/svg" viewBox="0 0 128 128"><title>Artboard 4</title><path d="M64.942,53.8a2.1,2.1,0,0,1,0-4.2H75.9a2.1,2.1,0,0,1,0,4.2Zm0,10.458a2.1,2.1,0,1,1,0-4.2H75.9a2.1,2.1,0,0,1,0,4.2Zm0,10.458a2.1,2.1,0,1,1,0-4.2H75.9a2.1,2.1,0,0,1,0,4.2Zm0,10.458a2.1,2.1,0,1,1,0-4.2H75.9a2.1,2.1,0,0,1,0,4.2Zm0,10.459a2.1,2.1,0,0,1,0-4.2H75.9a2.1,2.1,0,0,1,0,4.2ZM44.53,39.719h-2.4c-.062,0-.124,0-.185-.008H34.2l5.724,6.319a2.1,2.1,0,0,1,.682,1.549V101.59a3.906,3.906,0,0,0,1.146,2.769l.008.008a3.905,3.905,0,0,0,2.769,1.146H82.623a3.906,3.906,0,0,0,2.769-1.146l.008-.008a3.907,3.907,0,0,0,1.146-2.769V43.641A3.907,3.907,0,0,0,85.4,40.872l-.008-.008a3.906,3.906,0,0,0-2.769-1.146Zm19.639-16.5a2.535,2.535,0,0,0-4.321,1.8v.041h5.061v-.041a2.525,2.525,0,0,0-.741-1.79l0,0Zm-1.79-4.934a6.714,6.714,0,0,1,4.755,1.976l0,0a6.71,6.71,0,0,1,1.972,4.76v.041H76.6a8.142,8.142,0,0,1,8.123,8.123V35.8a8.162,8.162,0,0,1,3.63,2.107l0,0,0,0,.006.006a8.1,8.1,0,0,1,2.379,5.725v5.722h7.761a2.1,2.1,0,0,1,2.1,2.1V78.554a2.1,2.1,0,1,1-4.2,0V53.564h-5.66V101.59a8.1,8.1,0,0,1-2.385,5.731l0,0,0,0-.006.006a8.1,8.1,0,0,1-5.725,2.379H44.53a8.1,8.1,0,0,1-5.731-2.385l0,0,0,0-.006-.006a8.1,8.1,0,0,1-2.379-5.725V48.375l-8.473-9.353a2.091,2.091,0,0,1,1.551-3.494H40.033V33.182a8.1,8.1,0,0,1,2.384-5.738l0,0,0,0a8.093,8.093,0,0,1,5.731-2.385h7.49v-.041a6.733,6.733,0,0,1,6.732-6.732ZM44.53,35.518H80.523V33.182A3.939,3.939,0,0,0,76.6,29.26H48.157a3.919,3.919,0,0,0-2.773,1.15l0,0a3.91,3.91,0,0,0-1.153,2.769v2.335Z" style="fill:#332929"/><path d="M64.942,53.8a2.1,2.1,0,0,1,0-4.2H75.9a2.1,2.1,0,0,1,0,4.2Zm0,10.458a2.1,2.1,0,0,1,0-4.2H75.9a2.1,2.1,0,0,1,0,4.2Zm0,10.458a2.1,2.1,0,0,1,0-4.2H75.9a2.1,2.1,0,0,1,0,4.2Zm0,10.458a2.1,2.1,0,0,1,0-4.2H75.9a2.1,2.1,0,0,1,0,4.2Zm0,10.459a2.1,2.1,0,0,1,0-4.2H75.9a2.1,2.1,0,0,1,0,4.2ZM40.607,47.579V101.59a3.925,3.925,0,0,0,3.923,3.923H82.623a3.925,3.925,0,0,0,3.923-3.923V43.641a3.925,3.925,0,0,0-3.923-3.923H44.53L34.2,39.711l5.724,6.319A2.1,2.1,0,0,1,40.607,47.579Z" style="fill:#59c4c6;fill-rule:evenodd"/><path d="M44.53,35.518H80.523c0-2.034.278-3.672-1.154-5.1A3.91,3.91,0,0,0,76.6,29.26H48.157a3.889,3.889,0,0,0-2.769,1.154c-1.432,1.432-1.153,3.07-1.153,5.1Z" style="fill:#e5e5e5;fill-rule:evenodd"/><path d="M59.848,25.059h5.061a2.7,2.7,0,0,0-.737-1.835l0,0A2.539,2.539,0,0,0,59.848,25.059Z" style="fill:#9e8180;fill-rule:evenodd"/></svg>