<svg xmlns="http://www.w3.org/2000/svg" data-name="Layer 1" viewBox="0 0 128 128"><path fill="#332929" d="M64.745 47.307a2.1 2.1 0 110-4.2h8.685a2.1 2.1 0 110 4.2zm0 8.29a2.1 2.1 0 110-4.2h8.685a2.1 2.1 0 110 4.2zm0 8.29a2.1 2.1 0 110-4.2h8.685a2.1 2.1 0 110 4.2zm0 8.29a2.1 2.1 0 010-4.2h8.685a2.1 2.1 0 010 4.2zm0 8.29a2.1 2.1 0 110-4.2h8.685a2.1 2.1 0 010 4.2zM48.566 36.146h-1.9c-.063 0-.124 0-.186-.008h-5.124l3.918 4.325a2.086 2.086 0 01.61 1.4l1.8 42.813a3 3 0 00.865 2 2.55 2.55 0 001.818.752h26.6a2.557 2.557 0 001.822-.754l.008-.008a2.977 2.977 0 00.852-1.994l1.8-45.934c0-.09-.005.041-.005-.09h.008a2.4 2.4 0 00-.739-1.7 2.776 2.776 0 00-1.818-.806H48.566zm28.1-4.2v-1.417a2.686 2.686 0 00-2.674-2.674H51.44a2.686 2.686 0 00-2.674 2.674v1.416zm-12.836-9a1.571 1.571 0 00-2.63.708h3.037a1.566 1.566 0 00-.412-.707zm-1.111-4.66a5.773 5.773 0 015.757 5.369h5.516a6.89 6.89 0 016.875 6.874v1.751a6.982 6.982 0 012.783 1.681 6.572 6.572 0 011.986 4.687h.008c0 .017 0 .049-.012.254l-.162 4.018h5.881a2.1 2.1 0 012.1 2.1v21.475a2.1 2.1 0 01-4.2 0V47.121h-3.945L83.83 84.836a7.248 7.248 0 01-.594 2.607A9.148 9.148 0 0189.059 90c.045.038.088.078.13.12a9.153 9.153 0 012.7 6.484v11.006a2.1 2.1 0 01-2.1 2.1H37.543a2.1 2.1 0 01-2.1-2.1V96.607a9.2 9.2 0 018.649-9.164 7.349 7.349 0 01-.594-2.607l-1.767-42.055-6.643-7.332a2.091 2.091 0 011.551-3.494h7.927v-1.426a6.89 6.89 0 016.875-6.874h5.516a5.773 5.773 0 015.758-5.369zm-23.076 87.227h48.04v-8.906a4.964 4.964 0 00-1.464-3.515 1.84 1.84 0 01-.086-.092 4.97 4.97 0 00-3.428-1.372H44.621a5 5 0 00-4.978 4.978z"/><path fill="#59c4c6" fill-rule="evenodd" d="M64.745 47.307a2.1 2.1 0 010-4.2h8.685a2.1 2.1 0 010 4.2zm0 8.29a2.1 2.1 0 010-4.2h8.685a2.1 2.1 0 010 4.2zm0 8.29a2.1 2.1 0 010-4.2h8.685a2.1 2.1 0 010 4.2zm0 8.29a2.1 2.1 0 010-4.2h8.685a2.1 2.1 0 010 4.2zm0 8.29a2.1 2.1 0 010-4.2h8.685a2.1 2.1 0 010 4.2zm14.9 4.2l1.8-45.934c0-.09-.005.041-.005-.09h.008a2.636 2.636 0 00-2.686-2.5h-30.2l-7.21-.008 3.918 4.325a2.086 2.086 0 01.61 1.4l1.8 42.813a3.034 3.034 0 00.86 2l1.822.756h26.6a2.76 2.76 0 002.684-2.757z"/><path fill="#e5e5e5" fill-rule="evenodd" d="M82.705 91.629H44.621a5 5 0 00-4.978 4.978v8.906h48.04v-8.906a4.992 4.992 0 00-4.978-4.978zM48.767 31.945h27.894c0-1.306.168-2.348-.787-3.3a2.665 2.665 0 00-1.887-.787H51.44a2.686 2.686 0 00-2.674 2.674z"/><path fill="#9e8180" fill-rule="evenodd" d="M61.2 23.655h3.037a1.571 1.571 0 00-3.037 0z"/></svg>