<svg xmlns="http://www.w3.org/2000/svg" data-name="Layer 1" viewBox="0 0 128 128"><path fill="#332929" d="M95.73 49.081H32.27a22.649 22.649 0 0 0-1.281 7.525v28.882a16.306 16.306 0 0 0 16.253 16.253h33.516a16.306 16.306 0 0 0 16.253-16.253V56.605a22.643 22.643 0 0 0-1.281-7.524zm-61.481-4.2h59.5a23.13 23.13 0 0 0-3.458-4.421 22.8 22.8 0 0 0-16.147-6.718h-20.29a22.8 22.8 0 0 0-16.147 6.718 23.13 23.13 0 0 0-3.458 4.42zM60.5 29.54h7a3.511 3.511 0 0 0-7.008 0zm-6.643 0h2.438a7.682 7.682 0 0 1 2.256-5.216l.008-.008a7.709 7.709 0 0 1 13.15 5.224h2.437a26.985 26.985 0 0 1 19.117 7.949 27.268 27.268 0 0 1 5.6 8.118 2.089 2.089 0 0 1 .5 1.2 26.79 26.79 0 0 1 1.763 7.7h6.482a2.1 2.1 0 0 1 0 4.2h-6.4v26.781a20.508 20.508 0 0 1-20.454 20.454H47.243a20.509 20.509 0 0 1-20.455-20.454V58.706h-6.4a2.1 2.1 0 1 1 0-4.2h6.482a26.806 26.806 0 0 1 1.763-7.7 2.094 2.094 0 0 1 .5-1.2 27.259 27.259 0 0 1 5.6-8.118 26.985 26.985 0 0 1 19.121-7.948z"/><path fill="#f05f61" fill-rule="evenodd" d="M30.989 56.605v28.883a16.306 16.306 0 0 0 16.253 16.253h33.516a16.306 16.306 0 0 0 16.253-16.253V56.605a22.643 22.643 0 0 0-1.281-7.525H32.27a22.649 22.649 0 0 0-1.281 7.525z"/><path fill="#e5e5e5" fill-rule="evenodd" d="M34.249 44.88h59.5a23.13 23.13 0 0 0-3.458-4.421 22.8 22.8 0 0 0-16.147-6.718h-20.29a22.8 22.8 0 0 0-16.147 6.718 23.13 23.13 0 0 0-3.458 4.421z"/><path fill="#9e8180" fill-rule="evenodd" d="M60.5 29.54h7a3.511 3.511 0 0 0-7.008 0z"/></svg>