<svg xmlns="http://www.w3.org/2000/svg" data-name="Layer 1" viewBox="0 0 128 128"><path fill="#332929" d="M91.223 80.815v-4.664H36.777v4.663A13.967 13.967 0 0 0 50.7 94.738h26.6a13.968 13.968 0 0 0 13.923-13.923zm2.154-15.439H34.589a3.284 3.284 0 0 0-2.239.881 2.173 2.173 0 0 1-.081.086 3.278 3.278 0 0 0-.967 2.32 3.277 3.277 0 0 0 .967 2.32 3.287 3.287 0 0 0 2.324.963h58.819a3.277 3.277 0 0 0 2.32-.967 3.286 3.286 0 0 0 .963-2.324 3.285 3.285 0 0 0-.881-2.239 2.173 2.173 0 0 1-.086-.081 3.277 3.277 0 0 0-2.32-.967zM73.893 98.938H54.108a8.72 8.72 0 0 0-8.415 6.574h36.615a8.719 8.719 0 0 0-8.415-6.574zm-1.74-56.35H50.7a13.968 13.968 0 0 0-13.923 13.924v4.663h54.446v-4.663A13.969 13.969 0 0 0 77.3 42.589zm-14.178-4.2h12.05v-1.051a2.508 2.508 0 0 0-.734-1.779l-.008-.008a2.509 2.509 0 0 0-1.779-.734H60.5a2.514 2.514 0 0 0-1.779.742 2.508 2.508 0 0 0-.734 1.779zm4.681-7.772h2.689v-3.11a1.341 1.341 0 0 0-2.293-.949 1.35 1.35 0 0 0-.392.952zM50.7 38.388h3.074v-1.051a6.7 6.7 0 0 1 1.977-4.744 6.745 6.745 0 0 1 2.708-1.655v-3.433a5.523 5.523 0 0 1 1.627-3.91 5.52 5.52 0 0 1 7.828 0l.008.008a5.523 5.523 0 0 1 1.627 3.91v3.431a6.768 6.768 0 0 1 2.7 1.653l.008.008a6.7 6.7 0 0 1 1.965 4.732v1.051H77.3a18.019 18.019 0 0 1 4.095.469l.046-16.37H74.4a2.1 2.1 0 1 1 0-4.2h9.136v.008a2.092 2.092 0 0 1 2.092 2.092L85.575 40.4a18.256 18.256 0 0 1 4.525 3.311 18.07 18.07 0 0 1 5.322 12.8v4.939a7.513 7.513 0 0 1 3.278 1.923c.042.042.083.087.121.132a7.454 7.454 0 0 1 2.077 5.158 7.458 7.458 0 0 1-2.2 5.282 7.509 7.509 0 0 1-3.278 1.922v4.939A18.2 18.2 0 0 1 82.6 98.145q.2.183.39.374a12.838 12.838 0 0 1 3.781 9.095 2.1 2.1 0 0 1-2.1 2.1H43.332a2.1 2.1 0 0 1-2.1-2.1 12.838 12.838 0 0 1 3.781-9.095q.191-.191.39-.374a18.2 18.2 0 0 1-12.827-17.33v-4.941a7.508 7.508 0 0 1-3.269-1.921 7.466 7.466 0 0 1-2.2-5.29 7.466 7.466 0 0 1 2.2-5.29c.042-.042.087-.083.132-.121a7.509 7.509 0 0 1 3.146-1.8v-4.94a18.07 18.07 0 0 1 5.322-12.8 18.264 18.264 0 0 1 4.518-3.312l-.056-20.012a2.092 2.092 0 0 1 2.092-2.092v-.008H53.6a2.1 2.1 0 1 1 0 4.2h-7.041l.046 16.37a18.021 18.021 0 0 1 4.095-.47z"/><path fill="#59c4c6" fill-rule="evenodd" d="M50.7 42.589a13.968 13.968 0 0 0-13.923 13.923v4.663h54.446v-4.663A13.969 13.969 0 0 0 77.3 42.589H50.7z"/><path fill="#e5e5e5" fill-rule="evenodd" d="M93.377 65.376h-58.7a3.287 3.287 0 1 0-.088 6.574h58.823a3.287 3.287 0 1 0-.035-6.574z"/><path fill="#59c4c6" fill-rule="evenodd" d="M91.223 76.151H36.777v4.663A13.967 13.967 0 0 0 50.7 94.738h26.6a13.968 13.968 0 0 0 13.923-13.923z"/><path fill="#e5e5e5" fill-rule="evenodd" d="M73.893 98.938H54.108a8.715 8.715 0 0 0-8.415 6.574h36.615a8.714 8.714 0 0 0-8.415-6.574zM57.975 38.388h12.05c0-1.108.118-1.978-.742-2.838l-1.839-.734H60.5a2.544 2.544 0 0 0-1.783.738c-.86.856-.742 1.732-.742 2.834z"/><path fill="#9e8180" fill-rule="evenodd" d="M62.656 30.616h2.689v-3.11a1.345 1.345 0 1 0-2.689 0z"/></svg>