<svg id="Layer_1" data-name="Layer 1" xmlns="http://www.w3.org/2000/svg" viewBox="0 0 128 128"><title>Artboard 9</title><path d="M66.71,73.742q-.584.069-1.178.1l-.037,0-.259.013-.037,0-.037,0-.111,0H64.9l-.074,0h-.037l-.184,0h0l-.222,0h-.761l-.223,0h0l-.184,0h-.038l-.074,0h-.149l-.111,0-.037,0-.037,0-.037,0-.037,0-.185-.01-.037,0q-.593-.034-1.177-.1V95.017A2.723,2.723,0,0,0,64,97.727h0a2.723,2.723,0,0,0,2.71-2.71V73.742Zm4,22.908,0,.007-.013.051-.008.032-.007.026,0,.016-.044.157-.013.046,0,.011-.017.058,0,.012-.014.044-.012.036-.007.02-.019.057-.014.042-.005.015-.009.027-.01.029-.018.05,0,.006-.021.056-.007.018-.014.038-.016.041-.006.014-.022.055,0,.009-.019.046-.013.031-.01.023-.023.054h0l-.024.054c-.024.054-.049.108-.075.161l-.006.013-.019.04-.026.053-.026.053,0,0-.025.048-.014.026-.014.025-.026.048,0,0-.029.051-.01.018-.019.033-.023.039-.007.012-.03.051-.005.009-.024.041-.019.031-.012.02-.031.05v0l-.03.048-.014.022-.018.027-.027.042,0,.007-.032.049-.009.014-.024.035-.023.034-.01.014-.034.048,0,.006-.03.042-.019.025-.016.022-.033.045h0L69.5,99.2l-.014.018-.022.029-.029.037-.007.009-.036.046-.008.01-.028.035-.024.029-.013.016-.038.045,0,0-.036.042-.018.021-.02.023-.035.04,0,0-.039.043-.013.014-.027.03-.029.031-.01.011-.04.042L69,99.781l-.034.036-.023.024-.017.018-.041.041A6.89,6.89,0,0,1,64,101.928h0A6.891,6.891,0,0,1,59.118,99.9l-.041-.041-.017-.018-.024-.024L59,99.781,59,99.774l-.04-.042-.01-.011-.029-.031-.027-.03-.013-.014-.039-.043,0,0-.035-.04-.02-.023-.018-.021-.036-.042,0,0-.038-.045-.013-.016-.024-.029-.028-.035-.008-.01-.036-.046-.007-.009-.029-.037-.022-.029L58.5,99.2l-.035-.047h0l-.033-.045-.016-.022-.019-.025-.03-.042,0-.006-.033-.048-.01-.014-.023-.034-.024-.035-.009-.014-.032-.049,0-.007-.028-.042-.018-.027-.014-.022-.03-.048v0l-.031-.05-.012-.02-.018-.031-.025-.041-.005-.009-.03-.051-.007-.012-.022-.039-.029-.052-.028-.051,0,0-.026-.048-.014-.025-.014-.026-.025-.048,0,0-.026-.053-.026-.053-.02-.04-.006-.013c-.025-.053-.05-.107-.075-.161l-.024-.054h0l-.023-.054-.01-.023-.013-.031-.019-.046,0-.009-.022-.055-.006-.014-.016-.041-.014-.038-.007-.018-.021-.056,0-.006-.018-.05-.01-.029-.009-.027,0-.015-.014-.042-.019-.057-.007-.02-.012-.036-.014-.044,0-.012L57.38,97l0-.011-.013-.046-.044-.157,0-.016-.007-.026-.008-.032-.013-.051,0-.007a29.7,29.7,0,0,0-7.908,2c-1.794.793-2.863,1.577-2.863,2.217,0,.864,1.65,1.864,4.317,2.783A42.151,42.151,0,0,0,64,105.513a42.151,42.151,0,0,0,13.169-1.86c2.667-.918,4.318-1.919,4.318-2.783,0-.64-1.069-1.424-2.863-2.217A29.7,29.7,0,0,0,70.715,96.65Zm9.765-54.674C68.795,47.758,63.91,44.824,59.1,41.93c-3.006-1.807-5.979-3.592-11.576-1.935V53.542A16.215,16.215,0,0,0,59.647,69.171l.009,0,.009,0,.08.02.009,0,.009,0a16,16,0,0,0,3.066.457h0q.2.01.409.015h.065l.1,0h1.2l.127,0h.033A16.191,16.191,0,0,0,80.481,53.542ZM47.519,35.637c6.524-1.627,10.106.525,13.726,2.7,4.058,2.439,8.179,4.915,19.236-1.081V23.426a.946.946,0,0,0-.269-.662l-.008-.008a.946.946,0,0,0-.662-.269H48.458a.947.947,0,0,0-.939.939Zm.939-17.351H79.542a5.117,5.117,0,0,1,3.623,1.508l.008.008a5.117,5.117,0,0,1,1.508,3.623V53.542a20.43,20.43,0,0,1-13.77,19.244V92.443a34.413,34.413,0,0,1,9.4,2.371c3.368,1.49,5.374,3.579,5.374,6.057,0,2.86-2.735,5.232-7.156,6.754A46.381,46.381,0,0,1,64,109.714a46.381,46.381,0,0,1-14.531-2.09c-4.421-1.522-7.156-3.894-7.156-6.754,0-2.478,2.006-4.567,5.374-6.057a34.425,34.425,0,0,1,9.4-2.371V72.786a20.43,20.43,0,0,1-13.77-19.244V23.426a5.15,5.15,0,0,1,5.14-5.14Z" style="fill:#332929"/><path d="M75.739,64.938a16.087,16.087,0,0,0,4.742-11.4V41.976C68.795,47.758,63.91,44.824,59.1,41.93c-3.006-1.807-5.979-3.592-11.576-1.935V53.542A16.238,16.238,0,0,0,59.665,69.176l3.168.483,1.926.015A16.091,16.091,0,0,0,75.739,64.938Z" style="fill:#ffe749;fill-rule:evenodd"/><path d="M61.245,38.337c4.058,2.439,8.179,4.915,19.236-1.081V23.426a.934.934,0,0,0-.939-.939H48.458a.946.946,0,0,0-.939.939V35.637C54.044,34.01,57.625,36.162,61.245,38.337Z" style="fill:#fff;fill-rule:evenodd"/><path d="M66.71,73.742H61.29V95.017a2.711,2.711,0,0,0,4.623,1.913,3.084,3.084,0,0,0,.8-2.6Z" style="fill:#e5e5e5;fill-rule:evenodd"/><path d="M70.715,96.65l-.383,1.13A6.908,6.908,0,0,1,58.5,99.2l-.835-1.416-.383-1.13a29.7,29.7,0,0,0-7.908,2c-1.794.793-2.863,1.577-2.863,2.217,0,.864,1.65,1.864,4.317,2.783,7.206,2.481,19.131,2.481,26.337,0,2.667-.918,4.318-1.919,4.318-2.783,0-.64-1.069-1.424-2.863-2.217A29.7,29.7,0,0,0,70.715,96.65Z" style="fill:#e5e5e5;fill-rule:evenodd"/></svg>