<svg xmlns="http://www.w3.org/2000/svg" data-name="Layer 1" viewBox="0 0 128 128"><path fill="#332929" d="M42.258 48.92c8.356-8.082 15.721-15.209 10.2-27.607a2.1 2.1 0 012.857-2.779c24.267 12.773 21.247 28.572 18.9 40.824l-.011.065c-.868 4.538.368 7.916 2.578 9.792a7.244 7.244 0 003.325 1.585 8.179 8.179 0 003.951-.237c3.684-1.13 7.327-4.8 9.132-11.661a2.093 2.093 0 013.821-.542c13.224 22.2 7.1 36.986-6.105 44.855-7.589 4.521-17.563 6.642-27.458 6.479s-19.772-2.607-27.164-7.215c-12.271-7.648-17.9-20.954-6.417-39.374 3.462-5.549 8.05-9.986 12.391-14.185zm15.89-23.857c2.7 11.7-4.715 18.876-12.985 26.876-4.151 4.015-8.537 8.257-11.734 13.387C23.55 81.175 28.189 92.5 38.5 98.923c6.75 4.207 15.849 6.44 25.015 6.591s18.341-1.776 25.243-5.888c10.457-6.23 15.57-17.766 6.878-35.075-2.526 5.591-6.394 8.807-10.348 10.019a12.337 12.337 0 01-5.969.352 11.417 11.417 0 01-5.244-2.509c-3.289-2.794-5.175-7.576-3.989-13.779l.013-.064c1.916-10.03 4.341-22.727-11.951-33.507z"/><path fill="#ffe749" fill-rule="evenodd" d="M33.429 65.326C23.55 81.175 28.189 92.5 38.5 98.923c6.75 4.207 15.849 6.44 25.015 6.591s18.341-1.776 25.243-5.888c10.457-6.23 15.57-17.766 6.878-35.075-2.526 5.591-6.394 8.807-10.348 10.019a12.337 12.337 0 01-5.969.352 11.417 11.417 0 01-5.244-2.509c-3.289-2.794-5.175-7.576-3.989-13.779l.012-.064c1.918-10.031 4.342-22.728-11.95-33.508 2.7 11.7-4.715 18.876-12.985 26.876-4.152 4.016-8.537 8.262-11.734 13.388z"/></svg>