<svg id="Layer_1" data-name="Layer 1" xmlns="http://www.w3.org/2000/svg" viewBox="0 0 128 128"><title>Artboard 3</title><path d="M64.593,52.052q.078.053.154.109l.005,0,.025.019.033.025.027.02.031.023.005,0,.052.041.031.024.026.021.033.027.024.02.035.028.021.018.037.031.019.017.039.034.017.015.109.1.043.04.01.01.046.043.008.008.046.045.006.007.048.048,0,0,.1.1,0,0h0l.05.055,0,0,.048.054,0,0,.046.053.005.006.043.052.049.058.008.01.039.048.01.013.037.047.012.015.035.045.013.018.032.043a17.835,17.835,0,0,0-.038-20.376l0,0a17.825,17.825,0,0,0-24.8-4.372l0,0a17.808,17.808,0,0,0,14.76,31.8l-.029-.045-.012-.019-.03-.048-.01-.016-.031-.051-.009-.014-.032-.053-.007-.012-.032-.056-.005-.01-.033-.058,0-.007-.034-.061,0,0L55.682,60v0l-.034-.066h0l-.033-.067v0L55.58,59.8l0-.006-.029-.061,0-.008-.027-.059-.005-.011-.025-.057-.006-.013-.024-.055-.006-.016-.021-.052-.019-.047L55.4,59.4l-.008-.021-.018-.047-.009-.024-.017-.045-.009-.026-.015-.043-.01-.029v0l-.023-.067-.012-.038-.011-.034-.011-.035-.011-.037-.01-.033-.012-.039-.009-.03-.02-.07-.012-.045-.007-.025-.012-.048-.006-.022-.012-.051,0-.02-.012-.053,0-.017-.012-.056,0-.015-.012-.058,0-.012-.012-.062,0-.009-.011-.064v-.007l-.011-.067v0l-.011-.07h0L55.035,58h0l-.009-.07v0l-.008-.067v-.006l-.007-.065v-.009L55,57.711V57.7l0-.059v-.014l0-.057v-.017l0-.054v-.02l0-.051V57.4l0-.049v-.427l0-.041v-.03l0-.044v-.027l0-.047v-.024l0-.049L55,56.591v-.019l.005-.055,0-.016.006-.057,0-.013.007-.06v-.011l.009-.062V56.29l.009-.065V56.22l.011-.067v0l.012-.07h0l.013-.071h0l.014-.071h0l.014-.071h0l.015-.07h0l.016-.07h0l.017-.07v0l.018-.069v0l.018-.069v0l.019-.068v0l.02-.068v0l.021-.068v0l.021-.067v0l.022-.067v0l.023-.066v0l.024-.066v0l.024-.066,0,0,.025-.065v0l.026-.064,0,0,.026-.064,0,0,.027-.063,0,0,.028-.063,0,0,.028-.062,0,0,.03-.062,0,0,.03-.061,0,0,.031-.061,0-.005.031-.06,0-.005.032-.06,0-.006.032-.059,0-.006.033-.059,0-.006.034-.058,0-.006.034-.058,0-.006L55.9,53.9l0-.006.036-.057,0-.006.036-.057,0-.006.037-.056,0-.006.037-.055,0-.007.038-.055,0-.007.039-.053,0-.007.04-.053.005-.007.039-.052.006-.007.04-.052.006-.008.041-.051.006-.007.041-.051.006-.007.042-.051.006-.008.043-.05.006-.008.043-.049.007-.008.044-.049L56.585,53l.044-.047.007-.008.045-.047.008-.008.045-.046.008-.008.046-.046.008-.008.046-.045.008-.008.047-.045.009-.008.047-.044.009-.008.048-.043.01-.008.048-.043.01-.008.048-.042.01-.009.049-.041.01-.008.05-.041.01-.009.05-.04.011-.009.051-.04.011-.008.051-.039.012-.009.051-.038.012-.009.052-.038.012-.009.038-.028.012-.008.054-.037.012-.008.053-.037.012-.008.055-.035.012-.007.055-.035.012-.007a6.2,6.2,0,0,1,.543-.3l.059-.029.01,0,.059-.028.01,0,.14-.062.061-.026.01,0,.071-.029.061-.024.009,0h0l.131-.049.009,0,.062-.022.009,0,.063-.021.009,0,.063-.021.008,0,.064-.02.008,0,.064-.019.008,0,.073-.02.065-.018.008,0,.065-.017.007,0,.066-.016.007,0h0l.141-.032.067-.014h.007l.067-.013H60l.067-.012h.006l.068-.012h.006l.068-.011h.006l.068-.01h.006l.068-.009h.005l.069-.008h.005l.069-.007h0l.069-.007h.005l.069-.006h0l.07,0h0l.07,0h0l.07,0h0l.07,0h0l.07,0h.224l.071,0h0l.071,0h0l.071,0h0l.071,0h0l.072.005h0l.071.006h0l.071.007h0l.072.008h0l.072.009h0l.072.009h0l.072.011h0l.072.011h0l.072.012.07.013h0l.067.013h.005l.065.013h.008l.062.014.01,0,.059.014.013,0,.056.014.015,0,.054.014.018,0,.051.013.021.006.048.014.023.006.046.013.025.008.043.013.028.009.04.013.03.01.038.012.033.011.034.012.036.012.031.011.038.014.029.011.04.015.027.01.042.017.024.009.045.018.021.009.047.02.019.008.049.021.016.007.052.023.014.006.054.025.011.005.056.027.009,0,.058.028.006,0,.06.03,0,0,.063.032h0l.127.069,0,0,.059.033.006,0,.057.033.008,0,.054.032.01.006.051.032.013.008.049.031.014.009.046.03.017.011.043.029ZM72.4,76.673a9.1,9.1,0,0,1,1.156-1.061l.022-.017.022-.017.009-.007.014-.01.022-.017.023-.017.022-.017.013-.01.01-.007,0,0a2.137,2.137,0,0,1,.21-.16h0l0,.007a9.09,9.09,0,0,1,1.182-.695l0,0,.1-.049h0c.135-.065.272-.125.409-.182L64.3,58.234a2.116,2.116,0,0,1-.136-.194l0-.007-1.414-2.019a1.958,1.958,0,0,0-1.27-.8l-.023,0h0l-.023,0h0l-.023,0h0l-.023,0h0l-.023,0h0l-.022,0h0l-.022,0h0l-.022,0h0l-.022,0h-.286l-.02,0h-.027l-.019,0h0l-.019,0h0l-.019,0h0l-.019,0h0l-.018,0h-.005l-.018,0h0l-.018,0H60.77l-.018,0h-.006l-.018,0h-.005l-.018,0H60.7l-.017,0-.006,0-.017,0h-.006l-.017,0-.006,0-.017,0-.006,0-.017,0-.006,0-.016,0-.007,0-.016,0-.007,0-.016,0-.007,0-.015.005-.007,0-.015.005-.007,0-.045.016-.014.005-.008,0-.015.006-.008,0-.014.006-.008,0-.014.006-.008,0-.014.006-.008,0-.013.006-.008,0-.013.006-.008,0-.013.006-.008,0-.065.033-.012.006-.009.005-.012.007-.009.005-.042.025-.011.007-.01.006-.011.007-.009.006-.031.02-.01.007L60,55.532l-.007,0-.014.01-.006,0-.014.01-.006,0-.014.01-.006,0-.014.011-.006,0-.014.011-.019.016-.005,0-.013.011-.005,0-.013.012,0,0-.013.012,0,0-.013.012,0,0-.013.012,0,0-.013.013,0,0-.013.013,0,0-.013.013,0,0-.013.013,0,0-.013.013,0,0-.013.014,0,0-.012.014,0,0-.012.014,0,0-.012.014,0,0-.012.015,0,0-.012.015,0,0-.012.015,0,0-.011.015,0,0-.012.015,0,0-.011.016,0,0-.011.016,0,0-.011.016,0,0-.011.016,0,0-.011.017,0,0-.011.016,0,0-.011.017,0,0-.011.017,0,0-.01.018,0,0-.01.017,0,0-.01.018v0l-.01.018v0l-.01.018v0l-.009.019v0l-.01.019v0l-.009.019v0l-.009.019v0l-.009.019v0l-.009.019v0l-.008.019v0l-.008.02v0l-.008.02h0l-.008.021v0l-.008.021h0l-.008.021h0l-.007.021h0l-.007.021h0l-.007.021h0l-.007.022h0l-.006.022h0l-.006.022h0l-.006.022h0l-.006.022h0l-.005.023h0l-.005.023h0l0,.023,0,.023h0l0,.023,0,.023h0l0,.023h0l0,.023h0l0,.023h0l0,.024h0l0,.023h0l0,.024h0l0,.023h0l0,.023h0l0,.024v.024h0v.024h0v.023h0v.024h0v.023h0v.048h0v.023h0v.024h0v.023h0v.024h0V57.3l0,.024,0,.024h0l0,.023h0l0,.023h0l0,.024h0l0,.024h0l0,.023h0l0,.023h0l0,.024,0,.023h0l0,.023h0l0,.023h0l.005.023h0l.005.023h0l.006.023.006.023h0l.006.023h0l.007.023h0l.007.023h0l.007.023h0l.008.022h0l.008.023h0l.008.023.008.022h0l.009.022h0l.009.022h0l.009.022h0l.01.022h0l.01.022.01.022h0l.011.022.011.022h0l.011.022h0l.011.022.012.021h0l.012.021h0l.013.021.012.021h0l.013.021.013.021.013.021h0l.014.021.014.02ZM77.445,78.2h0l-.022.008-.022.008-.013,0-.009,0-.152.06-.007,0-.015.006-.041.018h0l-.044.019-.01,0-.011,0-.021.009-.021.01h0l-.02.009L77,78.383l-.007,0-.042.02-.005,0-.016.008-.021.011-.017.009,0,0-.021.011-.021.011-.009,0-.012.006-.021.011-.021.011h0l-.021.011-.021.011-.012.007-.008,0-.021.012-.02.011,0,0-.017.01-.021.012-.016.009,0,0-.021.012-.02.012-.008,0-.033.02-.02.012h0c-.07.044-.139.089-.208.137l-.013.009h0l-.025.017-.011.008h0l0,.006h0c-.03.021-.061.04-.093.059h0l-.017.013-.017.013-.013.01-.038.03-.01.008-.007.005-.017.013-.024.02-.009.007-.033.027,0,0a4.768,4.768,0,0,0-.762.8l0,0a4.9,4.9,0,0,0-.6,1.031l-.009.022,0,0-.007.018-.009.022-.006.015,0,.007L74.556,81v0a5,5,0,0,0-.27.961,4.905,4.905,0,0,0,.8,3.676l10.347,14.777a4.954,4.954,0,0,0,6.847,1.2h0a4.954,4.954,0,0,0,1.2-6.847L83.137,80a4.892,4.892,0,0,0-3.172-2A4.97,4.97,0,0,0,77.445,78.2Zm-33.572-45.7a2.629,2.629,0,1,1-.646,3.662A2.63,2.63,0,0,1,43.873,32.494Zm-1.647,9.562a2.629,2.629,0,1,1-.645,3.662A2.629,2.629,0,0,1,42.226,42.056Zm5.569-3.9a2.629,2.629,0,1,1-.645,3.662A2.63,2.63,0,0,1,47.795,38.157Zm5.628-3.941a2.629,2.629,0,1,1-.646,3.662A2.63,2.63,0,0,1,53.422,34.216ZM46.208,47.743a2.629,2.629,0,1,1-.646,3.662A2.629,2.629,0,0,1,46.208,47.743Zm5.569-3.9a2.629,2.629,0,1,1-.646,3.662A2.63,2.63,0,0,1,51.777,43.843ZM57.4,39.9a2.629,2.629,0,1,1-.646,3.662A2.629,2.629,0,0,1,57.4,39.9Zm-18.737-14.5a2.121,2.121,0,0,1,.33-.231,21.973,21.973,0,0,1,30.345,5.353,2.113,2.113,0,0,1,.23.328A21.989,21.989,0,0,1,68.6,57.077L80.31,73.8q.189.025.378.059A9.084,9.084,0,0,1,86.566,77.6L96.912,92.378a9.1,9.1,0,0,1-2.237,12.673l-.012.008A9.1,9.1,0,0,1,82,102.813L71.656,88.036a9.07,9.07,0,0,1-1.505-6.793c.022-.127.048-.255.075-.381L58.518,64.141A22,22,0,0,1,38.667,25.407ZM57.606,52.1h0m0,0,.012-.008M60,55.532l-.007,0" style="fill:#332929"/><path d="M47.535,33.139a2.629,2.629,0,1,1-3.662-.645A2.63,2.63,0,0,1,47.535,33.139Zm.26,5.018a2.629,2.629,0,1,1-.645,3.662A2.63,2.63,0,0,1,47.795,38.157Zm9.289-3.3a2.629,2.629,0,1,1-3.662-.646A2.629,2.629,0,0,1,57.084,34.862ZM46.208,47.743a2.629,2.629,0,1,1-.646,3.662A2.629,2.629,0,0,1,46.208,47.743ZM33.914,40.212A17.817,17.817,0,0,0,55.988,60.522a6.111,6.111,0,0,1-.93-4.372,6.2,6.2,0,0,1,6.634-5.136l2.9,1.039,1.477,1.416A17.8,17.8,0,1,0,33.914,40.212ZM45.888,42.7a2.629,2.629,0,1,1-3.662-.646A2.629,2.629,0,0,1,45.888,42.7Zm5.889,1.141a2.629,2.629,0,1,1-.646,3.662A2.63,2.63,0,0,1,51.777,43.843Zm8.643.367a2.629,2.629,0,1,1,.646-3.662A2.63,2.63,0,0,1,60.42,44.21Z" style="fill:#e5e5e5;fill-rule:evenodd"/><path d="M75.63,74.41,64.3,58.234c-.925-1.242-1.682-2.97-2.943-3.035a1.932,1.932,0,0,0-2.114,1.418l-.056.807.011.071.023.118.038.139.057.159.072.155.061.108.04.063L72.4,76.673l1.527-1.342,0,.007Z" style="fill:#e5e5e5;fill-rule:evenodd"/><path d="M76.257,78.826,75.21,79.838a4.962,4.962,0,0,0-.125,5.8l10.347,14.777a4.916,4.916,0,0,0,8.051-5.644L83.137,80a4.964,4.964,0,0,0-5.692-1.8l-1.192.622Z" style="fill:#9e8180;fill-rule:evenodd"/></svg>