<svg id="Layer_1" data-name="Layer 1" xmlns="http://www.w3.org/2000/svg" viewBox="0 0 128 128"><title>Artboard 2</title><path d="M95.73,49.081H32.27a22.649,22.649,0,0,0-1.281,7.525V85.488a16.306,16.306,0,0,0,16.253,16.253H80.758A16.306,16.306,0,0,0,97.011,85.488V56.605A22.643,22.643,0,0,0,95.73,49.081Zm-61.481-4.2h59.5a23.13,23.13,0,0,0-3.458-4.421,22.8,22.8,0,0,0-16.147-6.718H53.854a22.8,22.8,0,0,0-16.147,6.718A23.13,23.13,0,0,0,34.249,44.88ZM60.5,29.54H67.5a3.511,3.511,0,0,0-7.008,0Zm-6.643,0h2.438a7.682,7.682,0,0,1,2.256-5.216l.008-.008A7.709,7.709,0,0,1,71.709,29.54h2.437a26.985,26.985,0,0,1,19.117,7.949,27.268,27.268,0,0,1,5.6,8.118,2.089,2.089,0,0,1,.5,1.2,26.79,26.79,0,0,1,1.763,7.7h6.482a2.1,2.1,0,0,1,0,4.2h-6.4V85.488a20.508,20.508,0,0,1-20.454,20.454H47.243A20.509,20.509,0,0,1,26.788,85.488V58.706h-6.4a2.1,2.1,0,1,1,0-4.2H26.87a26.806,26.806,0,0,1,1.763-7.7,2.094,2.094,0,0,1,.5-1.2,27.259,27.259,0,0,1,5.6-8.118A26.985,26.985,0,0,1,53.854,29.54Z" style="fill:#332929"/><path d="M30.989,56.605V85.488a16.306,16.306,0,0,0,16.253,16.253H80.758A16.306,16.306,0,0,0,97.011,85.488V56.605a22.643,22.643,0,0,0-1.281-7.525H32.27A22.649,22.649,0,0,0,30.989,56.605Z" style="fill:#f05f61;fill-rule:evenodd"/><path d="M34.249,44.88h59.5a23.13,23.13,0,0,0-3.458-4.421,22.8,22.8,0,0,0-16.147-6.718H53.854a22.8,22.8,0,0,0-16.147,6.718A23.13,23.13,0,0,0,34.249,44.88Z" style="fill:#e5e5e5;fill-rule:evenodd"/><path d="M60.5,29.54H67.5a3.511,3.511,0,0,0-7.008,0Z" style="fill:#9e8180;fill-rule:evenodd"/></svg>