<svg id="Layer_1" data-name="Layer 1" xmlns="http://www.w3.org/2000/svg" viewBox="0 0 128 128"><title>Artboard 13</title><path d="M58.066,78.283h44.192V49.042a20.656,20.656,0,0,0-20.59-20.59H80.022A20.527,20.527,0,0,0,65.481,34.5a20.734,20.734,0,0,0-4.542,6.831l-.005.014c-.012.032-.024.064-.038.095l-.006.013a20.375,20.375,0,0,0-1.457,7.323v.013l0,.252V59.231a2.1,2.1,0,0,1-3.593,1.477L54.671,59.7a5.661,5.661,0,0,0-7.943.565l-.367.424a5.661,5.661,0,0,0,.566,7.943ZM52.008,83.31A5.576,5.576,0,0,1,53.4,80.168l0,0,0,0,.057-.064q.065-.071.133-.139L44.186,71.8a9.833,9.833,0,0,1-.992-13.85l.367-.424A9.845,9.845,0,0,1,55.231,55.1V49.042l0-.3V48.67l0-.149v-.149l0-.074,0-.074,0-.074L55.253,48l0-.074,0-.074a24.564,24.564,0,0,1,.782-5.091A20.664,20.664,0,0,0,36.918,63.3V73.489h-.007a2.094,2.094,0,0,1-3.464,1.583l-1.29-1.118a5.662,5.662,0,0,0-7.943.566l-.263.3a2.052,2.052,0,0,1-.192.224,5.664,5.664,0,0,0,.553,7.75,2.081,2.081,0,0,1,.215.188h0l11.026,9.556H79.745V89.49H57.437a5.619,5.619,0,0,1-5.422-4.959v0l-.007-.068v0L52,84.388v0l-.006-.069v0l-.005-.069h0l0-.07h0l0-.071h0l0-.071h0v-.072h0v-.072h0v-.144l0-.049v-.022l0-.042V83.6l0-.035,0-.036,0-.028,0-.043,0-.021,0-.05v-.013l.005-.057Zm54.451-4.5a5.655,5.655,0,0,1,1.6,1.123l.008.008a5.58,5.58,0,0,1,1.644,3.951h0a5.579,5.579,0,0,1-1.644,3.95l-.008.008a5.579,5.579,0,0,1-3.95,1.644H83.946v3.575a5.66,5.66,0,0,1,1.6,1.123l.008.008a5.58,5.58,0,0,1,1.644,3.95h0a5.615,5.615,0,0,1-5.6,5.6H35.068a5.588,5.588,0,0,1-3.948-1.642l0,0,0,0,0,0a5.588,5.588,0,0,1-1.644-3.951h0a5.587,5.587,0,0,1,1.62-3.934l-9.413-8.157,0,0-.11-.1h0l-.021-.021A9.833,9.833,0,0,1,20.68,72.2l0,0,.1-.112h0l0,0,.264-.3a9.844,9.844,0,0,1,11.67-2.423V63.3A24.858,24.858,0,0,1,57.508,38.51h.085a24.988,24.988,0,0,1,4.919-6.977,24.717,24.717,0,0,1,17.51-7.281h1.646a24.859,24.859,0,0,1,24.791,24.791ZM56.953,82.632l-.036.018h0l0,0-.007,0,0,0,0,0-.007,0,0,0,0,0-.007,0,0,0h0l-.007,0-.007,0-.007,0-.006,0-.026.017h0l0,0-.013.009-.007,0,0,0,0,0a1.368,1.368,0,0,0-.23.2l-.036.037h0v0a1.4,1.4,0,0,0-.33.786v0h0v.124h0V83.9h0v.053h0l0,.035a1.415,1.415,0,0,0,1.151,1.273h0l.016,0h0l.016,0h0l.017,0h0l.017,0h0l.017,0h0l.017,0h0l.017,0h46.653a1.407,1.407,0,0,0,.989-.405l.008-.008a1.407,1.407,0,0,0,.405-.989h0a1.409,1.409,0,0,0-.405-.989l-.008-.008a1.407,1.407,0,0,0-.971-.4H58.562A2.1,2.1,0,0,1,56.953,82.632ZM81.614,96.743H36.049a2.1,2.1,0,0,1-1.6.149,1.418,1.418,0,0,0-.365.264,1.4,1.4,0,0,0-.413.989h0a1.394,1.394,0,0,0,.405.989l.008.008a1.394,1.394,0,0,0,.989.4H81.6a1.41,1.41,0,0,0,1.4-1.4h0a1.406,1.406,0,0,0-.4-.989l-.008-.008A1.409,1.409,0,0,0,81.614,96.743Z" style="fill:#332929"/><path d="M80.022,28.452A20.739,20.739,0,0,0,60.934,41.347a20.247,20.247,0,0,0-1.5,7.7V59.231a2.1,2.1,0,0,1-3.593,1.477c-1.574-1.473-2.994-2.523-5.258-2.361a6.241,6.241,0,0,0-5.569,6.43,5.609,5.609,0,0,0,1.915,3.852l11.14,9.654h44.192V49.042a20.656,20.656,0,0,0-20.59-20.59Z" style="fill:#f05f61;fill-rule:evenodd"/><path d="M53.6,79.955,44.186,71.8A10.118,10.118,0,0,1,55.231,55.1c0-4.173-.262-8.263.811-12.335A20.664,20.664,0,0,0,36.918,63.3V73.489h-.007a2.1,2.1,0,0,1-3.464,1.583c-1.65-1.428-2.846-2.648-5.381-2.467a6.254,6.254,0,0,0-5.569,6.43A5.609,5.609,0,0,0,24.312,82.8l.215.188,11.026,9.556H79.745V89.49l-22.308,0A5.594,5.594,0,0,1,53.6,79.955Z" style="fill:#f05f61;fill-rule:evenodd"/><path d="M81.614,96.743H36.049a2.1,2.1,0,0,1-1.6.149,1.425,1.425,0,0,0-.365,2.251,1.394,1.394,0,0,0,.989.4H81.6A1.4,1.4,0,0,0,81.614,96.743Z" style="fill:#e5e5e5;fill-rule:evenodd"/><path d="M57.527,85.288h46.582a1.4,1.4,0,0,0,.018-2.8H58.562a2.1,2.1,0,0,1-1.609.147,1.406,1.406,0,0,0,.5,2.651Z" style="fill:#e5e5e5;fill-rule:evenodd"/></svg>