<svg xmlns="http://www.w3.org/2000/svg" data-name="Layer 1" viewBox="0 0 128 128"><path fill="#332929" d="M66.71 73.742q-.584.069-1.178.1h-.037l-.259.013H62.695l-.185-.01h-.037q-.593-.034-1.177-.1v21.272A2.723 2.723 0 0 0 64 97.727a2.723 2.723 0 0 0 2.71-2.71V73.742zm4 22.908v.007l-.013.051-.008.032-.007.026v.016l-.044.157-.013.046v.011l-.017.058v.012l-.014.044-.012.036-.007.02-.019.057-.014.042-.005.015-.009.027-.01.029-.018.05v.006l-.021.056-.007.018-.014.038-.016.041-.006.014-.022.055v.009l-.019.046-.013.031-.01.023-.023.054-.024.054a4.705 4.705 0 0 1-.075.161l-.006.013-.019.04-.026.053-.026.053-.025.048-.014.026-.014.025-.026.048-.029.051-.01.018-.019.033-.023.039-.007.012-.03.051-.005.009-.024.041-.019.031-.012.02-.031.05-.03.048-.014.022-.018.027-.027.042v.007l-.032.049-.009.014-.024.035-.023.034-.01.014-.034.048v.006l-.03.042-.019.025-.016.022-.033.045-.066.067-.014.018-.022.029-.029.037-.007.009-.036.046-.008.01-.028.035-.024.029-.013.016-.038.045-.036.042-.018.021-.02.023-.035.04-.039.043-.013.014-.027.03-.029.031-.01.011-.04.042-.014.01-.034.036-.023.024-.017.018-.041.041A6.89 6.89 0 0 1 64 101.928a6.891 6.891 0 0 1-4.882-2.028l-.041-.041-.017-.018-.024-.024-.036-.036v-.007l-.04-.042-.01-.011-.029-.031-.027-.03-.013-.014-.039-.043-.035-.04-.02-.023-.018-.021-.036-.042-.038-.045-.013-.016-.024-.029-.028-.035-.008-.01-.036-.046-.007-.009-.029-.037-.022-.029-.028-.021-.035-.047-.033-.045-.016-.022-.019-.025-.03-.042v-.006l-.033-.048-.01-.014-.023-.034-.024-.035-.009-.014-.032-.049v-.007l-.028-.042-.018-.027-.014-.022-.03-.048-.031-.05-.012-.02-.018-.031-.025-.041-.005-.009-.03-.051-.007-.012-.022-.039-.029-.052-.028-.051-.026-.048-.014-.025-.014-.026-.025-.048-.026-.053-.026-.053-.02-.04-.006-.013-.075-.161-.024-.054-.023-.054-.01-.023-.013-.031-.019-.046v-.009l-.022-.055-.006-.014-.016-.041-.014-.038-.007-.018-.021-.056v-.006l-.018-.05-.01-.029-.009-.027v-.015l-.014-.042-.019-.057-.007-.02-.012-.036-.014-.044v-.012L57.38 97v-.011l-.013-.046-.044-.157v-.016l-.007-.026-.008-.032-.013-.051v-.007a29.7 29.7 0 0 0-7.908 2c-1.794.793-2.863 1.577-2.863 2.217 0 .864 1.65 1.864 4.317 2.783A42.151 42.151 0 0 0 64 105.513a42.151 42.151 0 0 0 13.169-1.86c2.667-.918 4.318-1.919 4.318-2.783 0-.64-1.069-1.424-2.863-2.217a29.7 29.7 0 0 0-7.909-2.003zm9.765-54.674c-11.68 5.782-16.565 2.848-21.375-.046-3.006-1.807-5.979-3.592-11.576-1.935v13.547a16.215 16.215 0 0 0 12.123 15.629h.018l.08.02h.018a16 16 0 0 0 3.066.457q.2.01.409.015h1.525a16.191 16.191 0 0 0 15.718-16.121zm-32.956-6.339c6.524-1.627 10.106.525 13.726 2.7 4.058 2.439 8.179 4.915 19.236-1.081v-13.83a.946.946 0 0 0-.269-.662l-.008-.008a.946.946 0 0 0-.662-.269H48.458a.947.947 0 0 0-.939.939zm.939-17.351h31.084a5.117 5.117 0 0 1 3.623 1.508l.008.008a5.117 5.117 0 0 1 1.508 3.623v30.117a20.43 20.43 0 0 1-13.77 19.244v19.657a34.413 34.413 0 0 1 9.4 2.371c3.368 1.49 5.374 3.579 5.374 6.057 0 2.86-2.735 5.232-7.156 6.754A46.381 46.381 0 0 1 64 109.714a46.381 46.381 0 0 1-14.531-2.09c-4.421-1.522-7.156-3.894-7.156-6.754 0-2.478 2.006-4.567 5.374-6.057a34.425 34.425 0 0 1 9.4-2.371V72.786a20.43 20.43 0 0 1-13.77-19.244V23.426a5.15 5.15 0 0 1 5.14-5.14z"/><path fill="#ffe749" fill-rule="evenodd" d="M75.739 64.938a16.087 16.087 0 0 0 4.742-11.4V41.976C68.795 47.758 63.91 44.824 59.1 41.93c-3.006-1.807-5.979-3.592-11.576-1.935v13.547a16.238 16.238 0 0 0 12.141 15.634l3.168.483 1.926.015a16.091 16.091 0 0 0 10.98-4.736z"/><path fill="#fff" fill-rule="evenodd" d="M61.245 38.337c4.058 2.439 8.179 4.915 19.236-1.081v-13.83a.934.934 0 0 0-.939-.939H48.458a.946.946 0 0 0-.939.939v12.211c6.525-1.627 10.106.525 13.726 2.7z"/><path fill="#e5e5e5" fill-rule="evenodd" d="M66.71 73.742h-5.42v21.275a2.711 2.711 0 0 0 4.623 1.913 3.084 3.084 0 0 0 .8-2.6z"/><path fill="#e5e5e5" fill-rule="evenodd" d="m70.715 96.65-.383 1.13A6.908 6.908 0 0 1 58.5 99.2l-.835-1.416-.383-1.13a29.7 29.7 0 0 0-7.908 2c-1.794.793-2.863 1.577-2.863 2.217 0 .864 1.65 1.864 4.317 2.783 7.206 2.481 19.131 2.481 26.337 0 2.667-.918 4.318-1.919 4.318-2.783 0-.64-1.069-1.424-2.863-2.217a29.7 29.7 0 0 0-7.905-2.004z"/></svg>