<svg xmlns="http://www.w3.org/2000/svg" data-name="Layer 1" viewBox="0 0 128 128"><path fill="#332929" d="M33.749 55.945a15.893 15.893 0 0 1 9.43-4.563 7.848 7.848 0 0 1 2.023-3.5l.006-.006a7.78 7.78 0 0 1 5.5-2.29h40.4a7.778 7.778 0 0 1 5.377 2.167c.046.039.091.08.134.123a7.778 7.778 0 0 1 2.291 5.511v34.269a22.114 22.114 0 0 1-22.045 22.054H64.971a22.114 22.114 0 0 1-22.054-22.054v-4.643a15.937 15.937 0 0 1-9.168-27.068zm9.168-.28a11.738 11.738 0 0 0 0 23.1zM54.416 19.1a2.094 2.094 0 0 1 3.315 2.56c-.007.008-2.285 2.957-.475 5.671a12.4 12.4 0 0 1 2.387 5.58 7.753 7.753 0 0 1-1.157 4.678 2.1 2.1 0 0 1-3.692-1.986 4.109 4.109 0 0 0 .681-2.3 8.87 8.87 0 0 0-1.714-3.66c-3.47-5.199.639-10.524.655-10.543zm14.9 0a2.094 2.094 0 0 1 3.314 2.56c-.006.008-2.281 2.953-.475 5.663.027.041.053.082.077.124a12.218 12.218 0 0 1 2.31 5.464 7.752 7.752 0 0 1-1.157 4.678 2.1 2.1 0 0 1-3.692-1.986 4.113 4.113 0 0 0 .681-2.3 8.619 8.619 0 0 0-1.637-3.544 2.97 2.97 0 0 1-.077-.108c-3.476-5.203.64-10.532.652-10.551zm14.9 0a2.094 2.094 0 0 1 3.314 2.56c-.007.008-2.285 2.957-.476 5.671a12.4 12.4 0 0 1 2.387 5.58 7.755 7.755 0 0 1-1.157 4.678 2.1 2.1 0 0 1-3.692-1.986 4.111 4.111 0 0 0 .681-2.3 8.869 8.869 0 0 0-1.714-3.66c-3.477-5.199.641-10.524.649-10.543zm6.909 30.673h-40.4a3.584 3.584 0 0 0-2.542 1.051l-.008.008a3.585 3.585 0 0 0-1.051 2.541v34.283a17.91 17.91 0 0 0 17.854 17.853h11.887a17.91 17.91 0 0 0 17.854-17.853V53.378a3.59 3.59 0 0 0-1.059-2.542 2.433 2.433 0 0 1-.085-.09 3.584 3.584 0 0 0-2.458-.969z"/><path fill="#e5e5e5" fill-rule="evenodd" d="M94.719 87.656V53.378a3.61 3.61 0 0 0-3.6-3.6h-40.4a3.6 3.6 0 0 0-3.6 3.6v34.278a17.91 17.91 0 0 0 17.854 17.853h11.892a17.91 17.91 0 0 0 17.854-17.853z"/></svg>