<svg xmlns="http://www.w3.org/2000/svg" data-name="Layer 1" viewBox="0 0 128 128"><path fill="#332929" d="M83.36 97.847A111.467 111.467 0 0164 99.508a115.841 115.841 0 01-19.36-1.674v2.153a3.12 3.12 0 00.867 2.182c.029.026.059.054.087.082a6.6 6.6 0 003.308 1.621 74.992 74.992 0 0015.517 1.653 66.254 66.254 0 0014.646-1.645 6.932 6.932 0 003.356-1.667 3.068 3.068 0 00.939-2.226zm-38.72-4.27A111.717 111.717 0 0064 95.323a107.19 107.19 0 0019.36-1.738V63a2.1 2.1 0 012.1-2.1 12.107 12.107 0 10-6.231-22.487 2.1 2.1 0 01-3.253-2.04c.044-.3.076-.592.1-.882.019-.269.03-.569.03-.9a12.1 12.1 0 10-24.207 0q0 .492.03.9c.021.291.055.586.1.884a2.1 2.1 0 01-3.165 2.092A12.107 12.107 0 1042.54 60.9a2.1 2.1 0 012.1 2.1zm-2.1-61.083a16.316 16.316 0 014.418.611q.4.112.785.242a16.3 16.3 0 0132.514 0q.389-.131.785-.242a16.3 16.3 0 116.518 31.863v35.019a7.146 7.146 0 01-2.17 5.2 11.126 11.126 0 01-5.407 2.783 70.405 70.405 0 01-15.565 1.743 79.105 79.105 0 01-16.37-1.735 10.8 10.8 0 01-5.424-2.753 1.813 1.813 0 01-.119-.13 7.186 7.186 0 01-2.066-5.1V64.968a16.3 16.3 0 012.1-32.474z"/><path fill="#e5e5e5" fill-rule="evenodd" d="M44.64 63v30.577A111.717 111.717 0 0064 95.323a107.19 107.19 0 0019.36-1.738V63a2.1 2.1 0 012.1-2.1 12.107 12.107 0 10-6.231-22.487 2.1 2.1 0 01-3.253-2.04c.044-.3.076-.592.1-.882.019-.269.03-.569.03-.9a12.1 12.1 0 10-24.207 0q0 .492.03.9c.021.291.055.586.1.885a2.1 2.1 0 01-3.165 2.092A12.107 12.107 0 1042.54 60.9a2.1 2.1 0 012.1 2.1z"/><path fill="#fff" fill-rule="evenodd" d="M64 99.508a115.841 115.841 0 01-19.36-1.674v2.153a3.12 3.12 0 00.867 2.182l.087.082a6.6 6.6 0 003.308 1.621 74.992 74.992 0 0015.517 1.653 66.254 66.254 0 0014.646-1.645 6.932 6.932 0 003.356-1.667 3.068 3.068 0 00.939-2.226v-2.14A111.467 111.467 0 0164 99.508z"/></svg>