<svg id="Layer_1" data-name="Layer 1" xmlns="http://www.w3.org/2000/svg" viewBox="0 0 128 128"><title>VALENTINE WINE</title><path d="M47.5,28.086h33a0,0,0,0,1,0,0V52.281a14.75,14.75,0,0,1-14.75,14.75h-3.5A14.75,14.75,0,0,1,47.5,52.281V28.086A0,0,0,0,1,47.5,28.086Z" style="fill:#fff3f3"/><path d="M57.018,95H70.982a4.393,4.393,0,0,1,4.393,4.393v.521a0,0,0,0,1,0,0H52.625a0,0,0,0,1,0,0v-.521A4.393,4.393,0,0,1,57.018,95Z" style="fill:#fff3f3"/><path d="M64,67.031a16.5,16.5,0,0,0,16.5-16.5v-.673c-4.581-2.895-11.531-4.981-20.483-2.3-5.335,1.6-9.442,1.48-12.517.685v2.288A16.5,16.5,0,0,0,64,67.031Z" style="fill:#fc574f"/><path d="M80.5,26.836h-33a1.25,1.25,0,0,0-1.25,1.25v24.2a16.018,16.018,0,0,0,16,16h3.5a16.018,16.018,0,0,0,16-16v-24.2A1.25,1.25,0,0,0,80.5,26.836ZM79.25,52.281a13.515,13.515,0,0,1-13.5,13.5h-3.5a13.515,13.515,0,0,1-13.5-13.5v-2.5a20.557,20.557,0,0,0,3.414.285,28.7,28.7,0,0,0,8.211-1.306,24.067,24.067,0,0,1,14.911-.016,1.249,1.249,0,1,0,.807-2.365,26.493,26.493,0,0,0-16.435-.014,22.864,22.864,0,0,1-10.908.872v-17.9h30.5Z" style="fill:#30317b"/><path d="M70.982,93.75H65.25V72.031a1.25,1.25,0,1,0-2.5,0V93.75H57.018a5.649,5.649,0,0,0-5.643,5.643v.522a1.25,1.25,0,0,0,1.25,1.25h22.75a1.25,1.25,0,0,0,1.25-1.25v-.522A5.649,5.649,0,0,0,70.982,93.75ZM53.96,98.664a3.149,3.149,0,0,1,3.058-2.414H70.982a3.149,3.149,0,0,1,3.058,2.414Z" style="fill:#30317b"/></svg>