<svg id="Layer_1" data-name="Layer 1" xmlns="http://www.w3.org/2000/svg" viewBox="0 0 128 128"><title>VALENTINE MUSIC</title><path d="M64,32.256A33.829,33.829,0,1,0,97.829,66.085,33.829,33.829,0,0,0,64,32.256Zm0,41.968a8.139,8.139,0,1,1,8.139-8.139A8.139,8.139,0,0,1,64,74.224Z" style="fill:#fff3f3"/><path d="M51.717,30.139a7.017,7.017,0,0,0-9.747-.166,7.014,7.014,0,0,0-9.921,9.9l-.009.009.184.184,9.747,9.747,9.747-9.747.184-.184-.009-.009A7.017,7.017,0,0,0,51.717,30.139Z" style="fill:#fc574f"/><path d="M64,31.006a35.1,35.1,0,0,0-9.459,1.317,8.263,8.263,0,0,0-12.57-3.962A8.264,8.264,0,0,0,31,40.582a1.266,1.266,0,0,0,.155.188L41.087,50.7a1.25,1.25,0,0,0,1.768,0l9.931-9.931a1.235,1.235,0,0,0,.152-.185,8.24,8.24,0,0,0,2.084-5.8,32.57,32.57,0,1,1-23.6,31.3,32.228,32.228,0,0,1,3.537-14.779A1.25,1.25,0,1,0,32.73,50.17a34.71,34.71,0,0,0-3.809,15.915A35.079,35.079,0,1,0,64,31.006Zm-13.023,8.02a1.145,1.145,0,0,0-.086.1l-8.919,8.919-8.863-8.863-.056-.056a1.256,1.256,0,0,0-.087-.1,5.764,5.764,0,0,1,8.154-8.139,1.249,1.249,0,0,0,1.7,0,5.764,5.764,0,0,1,8.153,8.139Z" style="fill:#30317b"/><path d="M64,56.7a9.389,9.389,0,1,0,9.389,9.389A9.4,9.4,0,0,0,64,56.7Zm0,16.278a6.889,6.889,0,1,1,6.889-6.889A6.9,6.9,0,0,1,64,72.974Z" style="fill:#30317b"/><path d="M64,90.155a1.25,1.25,0,0,0,0,2.5A26.437,26.437,0,0,0,90.236,70.3a1.25,1.25,0,1,0-2.469-.394A23.948,23.948,0,0,1,64,90.155Z" style="fill:#30317b"/><path d="M89.3,67.6h.014a1.25,1.25,0,0,0,1.25-1.236l0-.283a1.25,1.25,0,1,0-2.5,0l0,.256A1.25,1.25,0,0,0,89.3,67.6Z" style="fill:#30317b"/><path d="M80.9,64.835a1.25,1.25,0,0,0-1.25,1.25A15.672,15.672,0,0,1,64,81.739a1.25,1.25,0,0,0,0,2.5A18.174,18.174,0,0,0,82.154,66.085,1.25,1.25,0,0,0,80.9,64.835Z" style="fill:#30317b"/></svg>