<svg xmlns="http://www.w3.org/2000/svg" data-name="Layer 1" viewBox="0 0 128 128"><path fill="#fff3f3" d="M89.938 92.117 80.536 90.512 82.141 99.914 57.912 75.685 65.709 67.888 89.938 92.117z"/><path fill="#fff3f3" d="M38.116 92.117 47.518 90.512 45.913 99.914 70.142 75.685 62.345 67.888 38.116 92.117z"/><path fill="#fc574f" d="M88.111 33.164A17.357 17.357 0 0 0 64 32.753a17.349 17.349 0 0 0-24.543 24.5l-.023.023.455.455L64 81.841 88.111 57.73l.455-.455-.023-.023a17.357 17.357 0 0 0-.432-24.088z"/><path fill="#30317b" d="m73.6 74.01 15.85-15.851a1.238 1.238 0 0 0 .2-.265A18.6 18.6 0 0 0 64 31.09a18.6 18.6 0 0 0-25.656 26.8 1.242 1.242 0 0 0 .206.273l23.675 23.671-14.419 14.419.944-5.531a1.25 1.25 0 0 0-1.442-1.442l-5.531.944L53 79a1.25 1.25 0 1 0-1.768-1.768l-14 14a1.25 1.25 0 0 0 1.094 2.116l7.663-1.309-1.308 7.661a1.25 1.25 0 0 0 2.119 1.1l18.043-18.048c.012-.011.029-.015.041-.027l6.947-6.947 14.446 14.446-5.53-.944a1.25 1.25 0 0 0-1.447 1.442l.944 5.531-11.063-11.066a1.25 1.25 0 0 0-1.768 1.768L81.257 100.8a1.25 1.25 0 0 0 2.116-1.1l-1.308-7.663 7.662 1.309a1.25 1.25 0 0 0 1.094-2.116zM40.373 56.4a16.1 16.1 0 0 1 22.774-22.733 1.251 1.251 0 0 0 1.7 0A16.1 16.1 0 0 1 87.627 56.4a1.167 1.167 0 0 0-.143.188L70.948 73.126 64 80.073 40.52 56.594a1.27 1.27 0 0 0-.147-.194z"/></svg>