<svg xmlns="http://www.w3.org/2000/svg" data-name="Layer 1" viewBox="0 0 128 128"><path fill="#fc574f" d="M94.318 43.117a19.128 19.128 0 0 0-26.57-.453 19.119 19.119 0 0 0-27.046 27l-.025.025.5.5 26.57 26.57 26.57-26.57.5-.5-.025-.025a19.128 19.128 0 0 0-.474-26.547zM72.243 64.685a4.266 4.266 0 0 0-1.428 3.215v6.3a3.068 3.068 0 0 1-6.135 0v-6.3a4.486 4.486 0 0 0-1.523-3.3 6.813 6.813 0 1 1 9.086.085z"/><path fill="#fff3f3" d="M55.4 33.844a8.9 8.9 0 0 0-12.355-.211 8.891 8.891 0 0 0-12.578 12.555l-.012.012.233.233 12.356 12.355L55.4 46.433l.233-.233-.012-.012a8.9 8.9 0 0 0-.221-12.344z"/><path fill="#30317b" d="M95.2 42.232A20.294 20.294 0 0 0 67.747 41a20.315 20.315 0 0 0-4.17-2.693 1.25 1.25 0 1 0-1.089 2.25 17.947 17.947 0 0 1 4.412 3.021 1.25 1.25 0 0 0 1.7 0 17.869 17.869 0 0 1 25.278 25.233 1.109 1.109 0 0 0-.148.2L67.748 94.99 41.771 69.014a1.24 1.24 0 0 0-.154-.2 17.825 17.825 0 0 1-4.658-14.34l5.2 5.2a1.249 1.249 0 0 0 1.767 0l12.589-12.59a1.229 1.229 0 0 0 .162-.2 10.141 10.141 0 0 0-13.633-14.878 10.141 10.141 0 0 0-13.639 14.872 1.231 1.231 0 0 0 .166.205l5.229 5.229a20.315 20.315 0 0 0 4.779 17.974 1.265 1.265 0 0 0 .213.284l27.072 27.072a1.249 1.249 0 0 0 1.767 0L95.7 70.57a1.182 1.182 0 0 0 .205-.275 20.305 20.305 0 0 0-.705-28.063zm-63.819 3.1a7.641 7.641 0 0 1 10.81-10.784 1.251 1.251 0 0 0 1.705 0 7.641 7.641 0 0 1 10.809 10.789 1.238 1.238 0 0 0-.1.122L43.044 57.021 31.483 45.459a1.245 1.245 0 0 0-.101-.122z"/><path fill="#30317b" d="M63.43 67.9v6.293a4.318 4.318 0 1 0 8.635 0V67.9a3.011 3.011 0 0 1 1-2.273 8.065 8.065 0 1 0-10.753-.1A3.221 3.221 0 0 1 63.43 67.9zm-1.191-9.123a5.588 5.588 0 0 1 4.845-4.73 5.736 5.736 0 0 1 .67-.039 5.5 5.5 0 0 1 3.694 1.409 5.556 5.556 0 0 1-.03 8.327 5.515 5.515 0 0 0-1.853 4.156v6.3a1.817 1.817 0 1 1-3.635 0v-6.3A5.766 5.766 0 0 0 64 63.676a5.521 5.521 0 0 1-1.761-4.898z"/></svg>