<svg id="Layer_1" data-name="Layer 1" xmlns="http://www.w3.org/2000/svg" viewBox="0 0 128 128"><title>VALENTINE TALK</title><path d="M94.325,58.411a30.325,30.325,0,1,0-36.2,29.751L64,99.914l5.876-11.752A30.332,30.332,0,0,0,94.325,58.411Z" style="fill:#fff3f3"/><path d="M77.273,47.76A9.556,9.556,0,0,0,64,47.534,9.551,9.551,0,0,0,50.489,61.021l-.013.013.25.25L64,74.557,77.273,61.284l.25-.25-.013-.013A9.555,9.555,0,0,0,77.273,47.76Z" style="fill:#fc574f"/><path d="M78.574,61.71A10.8,10.8,0,0,0,64,45.9,10.8,10.8,0,0,0,49.423,61.707a1.231,1.231,0,0,0,.17.212L63.116,75.441a1.25,1.25,0,0,0,1.768,0L78.407,61.918A1.2,1.2,0,0,0,78.574,61.71ZM76.491,60.3,64,72.79,51.509,60.3a1.187,1.187,0,0,0-.105-.128A8.3,8.3,0,0,1,63.147,48.448a1.249,1.249,0,0,0,1.7,0A8.3,8.3,0,0,1,76.595,60.17,1.365,1.365,0,0,0,76.491,60.3Z" style="fill:#30317b"/><path d="M64,26.836a31.576,31.576,0,0,0-6.723,62.428l5.6,11.209a1.25,1.25,0,0,0,2.236,0l5.876-11.752A1.25,1.25,0,0,0,68.758,87.6L64,97.119,59.242,87.6a1.251,1.251,0,0,0-.877-.667,29.069,29.069,0,1,1,16.113-1.4,1.25,1.25,0,1,0,.9,2.332A31.577,31.577,0,0,0,64,26.836Z" style="fill:#30317b"/></svg>