<svg xmlns="http://www.w3.org/2000/svg" data-name="Layer 1" viewBox="0 0 128 128"><path fill="#fc574f" d="M79.85 41.356a16.626 16.626 0 0 0-23.095-.394 16.618 16.618 0 0 0-23.508 23.467l-.022.022.436.436 23.094 23.094L79.85 64.887l.436-.436-.022-.022a16.626 16.626 0 0 0-.414-23.073z"/><path fill="#fff3f3" d="M96.189 62.618a10.3 10.3 0 0 0-14.31-.244 10.3 10.3 0 0 0-14.566 14.541l-.014.014.27.27 14.31 14.31L96.189 77.2l.27-.27-.014-.014a10.3 10.3 0 0 0-.256-14.298zM48.814 71.424a6.519 6.519 0 0 0-9.055-.154 6.516 6.516 0 0 0-9.218 9.2l-.009.009.171.171 9.055 9.055 9.055-9.055.171-.171-.009-.009a6.519 6.519 0 0 0-.161-9.046z"/><path fill="#30317b" d="m63.317 79.651-6.561 6.563-6.008-6.008a7.763 7.763 0 0 0-10.989-10.543A7.767 7.767 0 0 0 29.5 81.184a1.232 1.232 0 0 0 .148.179l9.226 9.227a1.25 1.25 0 0 0 1.768 0l8.476-8.477 6.753 6.753a1.249 1.249 0 0 0 1.767 0l7.445-7.446a1.25 1.25 0 1 0-1.768-1.767zm-23.558 8.287-8.221-8.222a1.073 1.073 0 0 0-.08-.1 5.266 5.266 0 0 1 7.448-7.436 1.251 1.251 0 0 0 1.7 0 5.266 5.266 0 0 1 7.454 7.44 1.064 1.064 0 0 0-.079.095z"/><path fill="#30317b" d="M97.073 61.734a11.5 11.5 0 0 0-12.134-2.679A17.863 17.863 0 0 0 56.756 39.3a17.868 17.868 0 0 0-24.618 25.767 1.227 1.227 0 0 0 .2.268l.436.437A1.25 1.25 0 1 0 34.545 64l-.239-.238a1.3 1.3 0 0 0-.143-.187 15.368 15.368 0 0 1 21.74-21.7 1.249 1.249 0 0 0 1.705 0 15.368 15.368 0 0 1 23.955 18.641A11.542 11.542 0 0 0 66.243 77.6a1.241 1.241 0 0 0 .172.214L81 92.393a1.25 1.25 0 0 0 1.768 0l14.576-14.581a1.154 1.154 0 0 0 .165-.206 11.511 11.511 0 0 0-.436-15.872zM95.53 76.065a1.158 1.158 0 0 0-.1.129L81.879 89.741 68.335 76.2a1.23 1.23 0 0 0-.107-.132 9.047 9.047 0 0 1 12.8-12.776c.028.027.065.036.1.06s.04.05.069.069a1.173 1.173 0 0 0 .123.051 1.247 1.247 0 0 0 .951.084 1.181 1.181 0 0 0 .13-.053 1.2 1.2 0 0 0 .289-.181c.015-.013.034-.017.048-.03a9.048 9.048 0 0 1 12.8 12.776z"/></svg>