<svg xmlns="http://www.w3.org/2000/svg" data-name="Layer 1" viewBox="0 0 128 128"><path fill="#fff3f3" d="M64 32.256a33.829 33.829 0 1 0 33.829 33.829A33.829 33.829 0 0 0 64 32.256zm0 41.968a8.139 8.139 0 1 1 8.139-8.139A8.139 8.139 0 0 1 64 74.224z"/><path fill="#fc574f" d="M51.717 30.139a7.017 7.017 0 0 0-9.747-.166 7.014 7.014 0 0 0-9.921 9.9l-.009.009.184.184 9.747 9.747 9.747-9.747.184-.184-.009-.009a7.017 7.017 0 0 0-.176-9.734z"/><path fill="#30317b" d="M64 31.006a35.1 35.1 0 0 0-9.459 1.317 8.263 8.263 0 0 0-12.57-3.962A8.264 8.264 0 0 0 31 40.582a1.266 1.266 0 0 0 .155.188l9.932 9.93a1.25 1.25 0 0 0 1.768 0l9.931-9.931a1.235 1.235 0 0 0 .152-.185 8.24 8.24 0 0 0 2.084-5.8 32.57 32.57 0 1 1-23.6 31.3 32.228 32.228 0 0 1 3.537-14.779 1.25 1.25 0 1 0-2.229-1.135 34.71 34.71 0 0 0-3.809 15.915A35.079 35.079 0 1 0 64 31.006zm-13.023 8.02a1.145 1.145 0 0 0-.086.1l-8.919 8.919-8.863-8.863-.056-.056a1.256 1.256 0 0 0-.087-.1 5.764 5.764 0 0 1 8.154-8.139 1.249 1.249 0 0 0 1.7 0 5.764 5.764 0 0 1 8.153 8.139z"/><path fill="#30317b" d="M64 56.7a9.389 9.389 0 1 0 9.389 9.389A9.4 9.4 0 0 0 64 56.7zm0 16.278a6.889 6.889 0 1 1 6.889-6.889A6.9 6.9 0 0 1 64 72.974zM64 90.155a1.25 1.25 0 0 0 0 2.5A26.437 26.437 0 0 0 90.236 70.3a1.25 1.25 0 1 0-2.469-.394A23.948 23.948 0 0 1 64 90.155zM89.3 67.6h.014a1.25 1.25 0 0 0 1.25-1.236v-.283a1.25 1.25 0 1 0-2.5 0v.256A1.25 1.25 0 0 0 89.3 67.6z"/><path fill="#30317b" d="M80.9 64.835a1.25 1.25 0 0 0-1.25 1.25A15.672 15.672 0 0 1 64 81.739a1.25 1.25 0 0 0 0 2.5 18.174 18.174 0 0 0 18.154-18.154 1.25 1.25 0 0 0-1.254-1.25z"/></svg>