<svg xmlns="http://www.w3.org/2000/svg" data-name="Layer 1" viewBox="0 0 128 128"><path fill="#fff3f3" d="M47.5 28.086h33v24.195a14.75 14.75 0 01-14.75 14.75h-3.5a14.75 14.75 0 01-14.75-14.75V28.086zM57.018 95h13.964a4.393 4.393 0 014.393 4.393v.521h-22.75v-.521A4.393 4.393 0 0157.018 95z"/><path fill="#fc574f" d="M64 67.031a16.5 16.5 0 0016.5-16.5v-.673c-4.581-2.895-11.531-4.981-20.483-2.3-5.335 1.6-9.442 1.48-12.517.685v2.288a16.5 16.5 0 0016.5 16.5z"/><path fill="#30317b" d="M80.5 26.836h-33a1.25 1.25 0 00-1.25 1.25v24.2a16.018 16.018 0 0016 16h3.5a16.018 16.018 0 0016-16v-24.2a1.25 1.25 0 00-1.25-1.25zm-1.25 25.445a13.515 13.515 0 01-13.5 13.5h-3.5a13.515 13.515 0 01-13.5-13.5v-2.5a20.557 20.557 0 003.414.285 28.7 28.7 0 008.211-1.306 24.067 24.067 0 0114.911-.016 1.249 1.249 0 10.807-2.365 26.493 26.493 0 00-16.435-.014 22.864 22.864 0 01-10.908.872v-17.9h30.5zM70.982 93.75H65.25V72.031a1.25 1.25 0 10-2.5 0V93.75h-5.732a5.649 5.649 0 00-5.643 5.643v.522a1.25 1.25 0 001.25 1.25h22.75a1.25 1.25 0 001.25-1.25v-.522a5.649 5.649 0 00-5.643-5.643zM53.96 98.664a3.149 3.149 0 013.058-2.414h13.964a3.149 3.149 0 013.058 2.414z"/></svg>