<svg xmlns="http://www.w3.org/2000/svg" data-name="Layer 1" viewBox="0 0 128 128"><path fill="#fff3f3" d="M94.325 58.411a30.325 30.325 0 1 0-36.2 29.751L64 99.914l5.876-11.752a30.332 30.332 0 0 0 24.449-29.751z"/><path fill="#fc574f" d="M77.273 47.76A9.556 9.556 0 0 0 64 47.534a9.551 9.551 0 0 0-13.511 13.487l-.013.013.25.25L64 74.557l13.273-13.273.25-.25-.013-.013a9.555 9.555 0 0 0-.237-13.261z"/><path fill="#30317b" d="M78.574 61.71A10.8 10.8 0 0 0 64 45.9a10.8 10.8 0 0 0-14.577 15.807 1.231 1.231 0 0 0 .17.212l13.523 13.522a1.25 1.25 0 0 0 1.768 0l13.523-13.523a1.2 1.2 0 0 0 .167-.208zm-2.083-1.41L64 72.79 51.509 60.3a1.187 1.187 0 0 0-.105-.128 8.3 8.3 0 0 1 11.743-11.724 1.249 1.249 0 0 0 1.7 0A8.3 8.3 0 0 1 76.595 60.17a1.365 1.365 0 0 0-.104.13z"/><path fill="#30317b" d="M64 26.836a31.576 31.576 0 0 0-6.723 62.428l5.6 11.209a1.25 1.25 0 0 0 2.236 0l5.876-11.752a1.25 1.25 0 0 0-2.231-1.121L64 97.119 59.242 87.6a1.251 1.251 0 0 0-.877-.667 29.069 29.069 0 1 1 16.113-1.4 1.25 1.25 0 1 0 .9 2.332A31.577 31.577 0 0 0 64 26.836z"/></svg>