<svg xmlns="http://www.w3.org/2000/svg" data-name="Layer 1" viewBox="0 0 128 128"><path fill="#eb4a42" d="M28.086 60.128H99.914V99.914H28.086z"/><path fill="#fc574f" d="M64 80.021 28.086 60.128 99.914 60.128 64 80.021z"/><path fill="#fc574f" d="M64 80.021 52.144 73.454 28.086 99.914 99.914 99.914 75.855 73.454 64 80.021z"/><path fill="#fff3f3" d="M85.75 67.974 64 80.021 42.25 67.974 42.25 28.086 85.75 28.086 85.75 67.974z"/><path fill="#fc574f" d="M63.608 35.326a4.883 4.883 0 0 0-6.783-.116 4.881 4.881 0 0 0-6.9 6.893l-.006.006.128.128 6.783 6.783 6.783-6.783.128-.128-.007-.006a4.883 4.883 0 0 0-.126-6.777z"/><path fill="#30317b" d="m49.03 42.993 6.911 6.907a1.25 1.25 0 0 0 1.768 0l6.911-6.911a1.182 1.182 0 0 0 .137-.162 6.132 6.132 0 0 0-7.932-9.2 6.132 6.132 0 0 0-7.933 9.2 1.211 1.211 0 0 0 .138.166zm1.9-6.783a3.62 3.62 0 0 1 5.047-.085 1.249 1.249 0 0 0 1.7 0 3.631 3.631 0 0 1 5.136 5.128 1.27 1.27 0 0 0-.067.079l-5.921 5.922-5.925-5.923a1.253 1.253 0 0 0-.068-.08 3.621 3.621 0 0 1 .093-5.041z"/><path fill="#30317b" d="M99.914 58.878h-8.789a1.25 1.25 0 0 0 0 2.5h3.953L87 65.853V28.086a1.25 1.25 0 0 0-1.25-1.25h-43.5a1.25 1.25 0 0 0-1.25 1.25v30.792H28.086a1.25 1.25 0 0 0-1.25 1.25v39.786a1.25 1.25 0 0 0 1.25 1.25h71.828a1.25 1.25 0 0 0 1.25-1.25V60.128a1.25 1.25 0 0 0-1.25-1.25zM29.336 62.25l20.821 11.532-20.821 22.9zM52.4 75.027l10.99 6.087a1.248 1.248 0 0 0 1.211 0L75.6 75.027l21.488 23.637H30.912zm25.439-1.245L98.664 62.25v34.432zM42.25 63.224a1.25 1.25 0 0 0 1.25-1.25V29.336h41v37.9L64 78.592 32.921 61.378H41v.6a1.25 1.25 0 0 0 1.25 1.246z"/><path fill="#30317b" d="M48.306 54.834a1.25 1.25 0 0 0 1.25 1.25h28.887a1.25 1.25 0 0 0 0-2.5H49.556a1.25 1.25 0 0 0-1.25 1.25zM78.443 58.878H49.556a1.25 1.25 0 0 0 0 2.5h28.887a1.25 1.25 0 0 0 0-2.5zM78.443 64.173H49.556a1.25 1.25 0 0 0 0 2.5h28.887a1.25 1.25 0 0 0 0-2.5z"/></svg>