<svg id="Layer_1" data-name="Layer 1" xmlns="http://www.w3.org/2000/svg" viewBox="0 0 128 128"><title>VALENTINE PAPER</title><polygon points="88.809 96.068 28.086 96.068 28.086 31.932 77.704 31.932 77.704 84.963 88.809 96.068" style="fill:#fff3f3"/><path d="M77.7,59.816h22.21a0,0,0,0,1,0,0V86.444a9.624,9.624,0,0,1-9.624,9.624H87.328A9.624,9.624,0,0,1,77.7,86.444V59.816A0,0,0,0,1,77.7,59.816Z" style="fill:#fc574f"/><path d="M54.158,41.007a5.635,5.635,0,0,0-7.827-.133,5.632,5.632,0,0,0-7.967,7.953l-.007.008.148.148,7.827,7.827,7.827-7.827.148-.148-.007-.008A5.635,5.635,0,0,0,54.158,41.007Z" style="fill:#fc574f"/><path d="M37.471,49.717l7.976,7.977a1.249,1.249,0,0,0,1.767,0l7.977-7.977a1.229,1.229,0,0,0,.141-.169,6.883,6.883,0,0,0-9-10.268,6.883,6.883,0,0,0-9,10.266A1.2,1.2,0,0,0,37.471,49.717Zm1.916-7.826a4.368,4.368,0,0,1,6.091-.1,1.249,1.249,0,0,0,1.705,0,4.382,4.382,0,0,1,6.2,6.188q-.04.044-.076.089l-6.976,6.977-6.976-6.976a1.127,1.127,0,0,0-.076-.09A4.37,4.37,0,0,1,39.388,41.891Z" style="fill:#30317b"/><path d="M99.914,58.565H84.249a1.25,1.25,0,0,0,0,2.5H98.664V86.444a8.383,8.383,0,0,1-8.374,8.373H87.328a8.383,8.383,0,0,1-8.374-8.373V31.932a1.25,1.25,0,0,0-1.25-1.25H28.086a1.25,1.25,0,0,0-1.25,1.25V96.067a1.25,1.25,0,0,0,1.25,1.25h62.2a10.886,10.886,0,0,0,10.874-10.873V59.815A1.25,1.25,0,0,0,99.914,58.565ZM29.336,94.817V33.182H76.454V86.444A10.854,10.854,0,0,0,80.4,94.817Z" style="fill:#30317b"/><path d="M68.136,65.777H38.009a1.25,1.25,0,0,0,0,2.5H68.136a1.25,1.25,0,0,0,0-2.5Z" style="fill:#30317b"/><path d="M68.136,74.432H38.009a1.25,1.25,0,0,0,0,2.5H68.136a1.25,1.25,0,0,0,0-2.5Z" style="fill:#30317b"/><path d="M68.136,83.086H38.009a1.25,1.25,0,0,0,0,2.5H68.136a1.25,1.25,0,0,0,0-2.5Z" style="fill:#30317b"/></svg>