<svg id="Layer_1" data-name="Layer 1" xmlns="http://www.w3.org/2000/svg" viewBox="0 0 128 128"><title>VALENTINE CHARITY</title><path d="M97.29,39.716a8.97,8.97,0,0,0-12.46-.212A8.966,8.966,0,0,0,72.146,52.164l-.012.012.235.235,12.46,12.46,12.46-12.46.235-.235-.012-.012A8.97,8.97,0,0,0,97.29,39.716Z" style="fill:#fc574f"/><path d="M81.4,29.66a5.5,5.5,0,0,0-7.646-.131,5.5,5.5,0,0,0-7.783,7.77l-.007.007.144.144L73.758,45.1,81.4,37.451l.144-.144-.007-.007A5.5,5.5,0,0,0,81.4,29.66Z" style="fill:#fff3f3"/><path d="M99.913,96.157a3.816,3.816,0,0,0-3.766-3.6l-15.588-.5a4.892,4.892,0,0,1-3.376-1.5l-8.005-8.35a1.771,1.771,0,0,1,2.545-2.463l4.669,4.78c2.647,3.2,9.8-.15,6.795-3.567l-8.816-9.024a14.782,14.782,0,0,0-10.1-4.444l-16.557.027,4.848,23.474,6.459-.129,12.9,6.632a17.056,17.056,0,0,0,7.257,1.879l16.948.539A3.676,3.676,0,0,0,99.913,96.157Z" style="fill:#fff3f3"/><rect x="41.371" y="64.462" width="12.029" height="29.811" rx="2.461" ry="2.461" transform="translate(94.771 158.735) rotate(180)" style="fill:#fc574f"/><rect x="28.086" y="67.489" width="13.285" height="23.427" style="fill:#fff3f3"/><path d="M65.084,38.19l4.122,4.122a10.275,10.275,0,0,0,1.877,10.541,1.285,1.285,0,0,0,.167.206l12.7,12.7a1.25,1.25,0,0,0,1.768,0l12.7-12.7a1.242,1.242,0,0,0,.161-.2A10.216,10.216,0,0,0,83.977,38.59a1.25,1.25,0,0,0,1.7,1.828A7.716,7.716,0,0,1,96.6,51.314a1.2,1.2,0,0,0-.1.123L84.829,63.1,73.253,51.527l-.091-.092a1.463,1.463,0,0,0-.1-.122,7.751,7.751,0,0,1-1.847-6.993l1.66,1.66a1.25,1.25,0,0,0,1.768,0l7.788-7.787a1.3,1.3,0,0,0,.145-.174,6.753,6.753,0,0,0-8.817-10.082A6.753,6.753,0,0,0,64.94,38.019,1.259,1.259,0,0,0,65.084,38.19ZM67,30.544a4.241,4.241,0,0,1,5.91-.1,1.251,1.251,0,0,0,1.705,0,4.252,4.252,0,0,1,6.015,6c-.026.028-.051.058-.074.088l-6.793,6.793-6.793-6.793c-.023-.03-.048-.059-.074-.088A4.24,4.24,0,0,1,67,30.544Z" style="fill:#30317b"/><path d="M96.186,91.309l-15.588-.5a3.628,3.628,0,0,1-2.514-1.12l-8-8.35a.523.523,0,0,1-.011-.711.515.515,0,0,1,.376-.17.491.491,0,0,1,.383.156l4.637,4.746A5.353,5.353,0,0,0,80.6,86.955a5.534,5.534,0,0,0,4.374-3.213,3.586,3.586,0,0,0-.892-3.657L75.266,71.06a15.988,15.988,0,0,0-11-4.82l-9.681.024a3.711,3.711,0,0,0-3.644-3.052H43.831a3.715,3.715,0,0,0-3.711,3.711V89.667H28.086a1.25,1.25,0,0,0,0,2.5h12.07a3.7,3.7,0,0,0,3.675,3.356h7.108a3.715,3.715,0,0,0,3.711-3.711V68.763l9.578-.025a13.475,13.475,0,0,1,9.249,4.068l8.771,8.978c.545.619.414.994.365,1.136a3.271,3.271,0,0,1-2.457,1.574,2.965,2.965,0,0,1-2.8-.767c-.021-.026-.045-.052-.068-.076l-4.67-4.78a2.978,2.978,0,0,0-2.216-.909,3.02,3.02,0,0,0-2.125,5.111l8.006,8.35a6.109,6.109,0,0,0,4.237,1.888l15.589.5a2.57,2.57,0,0,1,2.556,2.376,2.4,2.4,0,0,1-.719,1.779,2.365,2.365,0,0,1-1.783.7l-16.948-.539a15.919,15.919,0,0,1-6.726-1.741l-12.9-6.632a1.25,1.25,0,1,0-1.144,2.223l12.9,6.632a18.416,18.416,0,0,0,7.788,2.017l16.948.539c.052,0,.1,0,.154,0A4.949,4.949,0,0,0,99.7,99.739a4.881,4.881,0,0,0,1.461-3.608A5.034,5.034,0,0,0,96.186,91.309Zm-44.037.5a1.212,1.212,0,0,1-1.211,1.211H43.831a1.212,1.212,0,0,1-1.211-1.211V66.923a1.212,1.212,0,0,1,1.211-1.211h7.108a1.212,1.212,0,0,1,1.211,1.211Z" style="fill:#30317b"/><path d="M28.086,68.739h6.643a1.25,1.25,0,0,0,0-2.5H28.086a1.25,1.25,0,0,0,0,2.5Z" style="fill:#30317b"/></svg>