<svg id="Layer_1" data-name="Layer 1" xmlns="http://www.w3.org/2000/svg" viewBox="0 0 128 128"><title>VALENTINE CALENDAR</title><rect x="28.086" y="34.148" width="71.828" height="65.767" style="fill:#fff3f3"/><rect x="28.086" y="34.148" width="71.828" height="13.784" style="fill:#fc574f"/><path d="M42.387,39.833h0a3.762,3.762,0,0,1-3.762-3.762V31.848a3.762,3.762,0,0,1,3.762-3.762h0a3.762,3.762,0,0,1,3.762,3.762v4.223A3.762,3.762,0,0,1,42.387,39.833Z" style="fill:#fff3f3"/><path d="M85.613,39.833h0a3.762,3.762,0,0,1-3.762-3.762V31.848a3.762,3.762,0,0,1,3.762-3.762h0a3.762,3.762,0,0,1,3.762,3.762v4.223A3.762,3.762,0,0,1,85.613,39.833Z" style="fill:#fff3f3"/><path d="M76.712,64.086A9.151,9.151,0,0,0,64,63.87,9.147,9.147,0,0,0,51.06,76.786l-.012.012.24.24L64,89.75,76.712,77.038l.24-.24-.012-.012A9.151,9.151,0,0,0,76.712,64.086Z" style="fill:#fc574f"/><path d="M51.5,35.4H80.6v.674a5.012,5.012,0,0,0,10.024,0V31.848a5.012,5.012,0,0,0-10.024,0V32.9H51.5a1.25,1.25,0,0,0,0,2.5Zm31.6-3.549a2.512,2.512,0,0,1,5.024,0v4.223a2.512,2.512,0,0,1-5.024,0Z" style="fill:#30317b"/><path d="M99.914,32.9H94.667a1.25,1.25,0,0,0,0,2.5h4V46.682H34.086a1.25,1.25,0,0,0,0,2.5H98.664V98.664H29.336V35.4h8.039v.674a5.012,5.012,0,1,0,10.024,0V31.848a5.012,5.012,0,1,0-10.024,0V32.9H28.086a1.25,1.25,0,0,0-1.25,1.25V99.914a1.25,1.25,0,0,0,1.25,1.25H99.914a1.25,1.25,0,0,0,1.25-1.25V34.148A1.25,1.25,0,0,0,99.914,32.9ZM42.388,29.336A2.515,2.515,0,0,1,44.9,31.848v4.223a2.512,2.512,0,1,1-5.024,0V31.848A2.515,2.515,0,0,1,42.388,29.336Z" style="fill:#30317b"/><path d="M63.116,90.634a1.25,1.25,0,0,0,1.768,0L77.835,77.683a1.179,1.179,0,0,0,.163-.2A10.4,10.4,0,0,0,64,62.24,10.4,10.4,0,0,0,50,77.473a1.288,1.288,0,0,0,.17.21ZM52.172,64.97a7.871,7.871,0,0,1,10.976-.187,1.249,1.249,0,0,0,1.7,0A7.9,7.9,0,0,1,76.023,75.935a1.158,1.158,0,0,0-.1.125L64,87.982,52.08,76.062a1.347,1.347,0,0,0-.1-.127A7.873,7.873,0,0,1,52.172,64.97Z" style="fill:#30317b"/></svg>