<svg id="Layer_1" data-name="Layer 1" xmlns="http://www.w3.org/2000/svg" viewBox="0 0 128 128"><title>BALLOONS</title><ellipse cx="54.951" cy="50.66" rx="19.615" ry="22.574" style="fill:#fc574f"/><ellipse cx="79.438" cy="66.704" rx="13.225" ry="15.221" style="fill:#fff3f3"/><path d="M68.521,51.91a1.25,1.25,0,0,0,1.25-1.25c0-9.3-6.648-16.867-14.82-16.867a1.25,1.25,0,0,0,0,2.5c6.793,0,12.32,6.445,12.32,14.367A1.25,1.25,0,0,0,68.521,51.91Z" style="fill:#fff"/><path d="M93.914,66.7c0-9.082-6.494-16.471-14.476-16.471a12.774,12.774,0,0,0-3.626.544c0-.039,0-.079,0-.118,0-13.136-9.36-23.824-20.865-23.824S34.086,37.523,34.086,50.66c0,12.631,8.655,22.992,19.548,23.771a11.4,11.4,0,0,0,3.769,8.72,3.79,3.79,0,0,1,1.566,2.265c.051.927-.94,2-2.089,3.24-2.3,2.487-5.453,5.894-3.088,11.727a1.25,1.25,0,1,0,2.316-.939c-1.769-4.362.456-6.766,2.606-9.091,1.471-1.59,2.86-3.091,2.75-5.077-.076-1.355-.87-2.669-2.428-4.016a8.912,8.912,0,0,1-2.909-6.817A18.6,18.6,0,0,0,63.312,72.5,1.25,1.25,0,1,0,62.2,70.259a16.082,16.082,0,0,1-7.244,1.725c-10.127,0-18.365-9.566-18.365-21.324s8.238-21.324,18.365-21.324S73.316,38.9,73.316,50.66c0,.382-.025.774-.043,1.164-4.9,2.641-8.311,8.309-8.311,14.88,0,8.588,5.81,15.653,13.191,16.4a8.006,8.006,0,0,0,2.672,5.819c.773.669.905,1.064.915,1.241.025.453-.648,1.181-1.3,1.885-1.534,1.658-3.852,4.164-2.16,8.338a1.25,1.25,0,1,0,2.316-.939c-1.1-2.7.19-4.091,1.679-5.7,1.006-1.087,2.046-2.211,1.962-3.722a4.368,4.368,0,0,0-1.777-2.993A5.5,5.5,0,0,1,80.65,83.1C88.065,82.4,93.914,75.321,93.914,66.7ZM79.438,80.675c-6.6,0-11.976-6.268-11.976-13.971s5.372-13.971,11.976-13.971S91.414,59,91.414,66.7,86.042,80.675,79.438,80.675Z" style="fill:#30317b"/><path d="M84.705,56.542a1.25,1.25,0,1,0-1.385,2.081A9.689,9.689,0,0,1,87.338,66.7a1.25,1.25,0,1,0,2.5,0A12.21,12.21,0,0,0,84.705,56.542Z" style="fill:#30317b"/><path d="M79.949,54.939c-.17-.01-.34-.014-.511-.014a1.25,1.25,0,0,0,0,2.5c.124,0,.247,0,.37.01l.071,0a1.25,1.25,0,0,0,.069-2.5Z" style="fill:#30317b"/></svg>