<svg xmlns="http://www.w3.org/2000/svg" data-name="Layer 1" viewBox="0 0 128 128"><path fill="#fff3f3" d="M88.809 96.068 28.086 96.068 28.086 31.932 77.704 31.932 77.704 84.963 88.809 96.068z"/><path fill="#fc574f" d="M77.7 59.816h22.21v26.628a9.624 9.624 0 0 1-9.624 9.624h-2.958a9.624 9.624 0 0 1-9.628-9.624V59.816zM54.158 41.007a5.635 5.635 0 0 0-7.827-.133 5.632 5.632 0 0 0-7.967 7.953l-.007.008.148.148 7.827 7.827 7.827-7.827.148-.148-.007-.008a5.635 5.635 0 0 0-.142-7.82z"/><path fill="#30317b" d="m37.471 49.717 7.976 7.977a1.249 1.249 0 0 0 1.767 0l7.977-7.977a1.229 1.229 0 0 0 .141-.169 6.883 6.883 0 0 0-9-10.268 6.883 6.883 0 0 0-9 10.266 1.2 1.2 0 0 0 .139.171zm1.916-7.826a4.368 4.368 0 0 1 6.091-.1 1.249 1.249 0 0 0 1.705 0 4.382 4.382 0 0 1 6.2 6.188q-.04.044-.076.089l-6.976 6.977-6.976-6.976a1.127 1.127 0 0 0-.076-.09 4.37 4.37 0 0 1 .109-6.088z"/><path fill="#30317b" d="M99.914 58.565H84.249a1.25 1.25 0 0 0 0 2.5h14.415v25.379a8.383 8.383 0 0 1-8.374 8.373h-2.962a8.383 8.383 0 0 1-8.374-8.373V31.932a1.25 1.25 0 0 0-1.25-1.25H28.086a1.25 1.25 0 0 0-1.25 1.25v64.135a1.25 1.25 0 0 0 1.25 1.25h62.2a10.886 10.886 0 0 0 10.874-10.873V59.815a1.25 1.25 0 0 0-1.246-1.25zM29.336 94.817V33.182h47.118v53.262a10.854 10.854 0 0 0 3.946 8.373z"/><path fill="#30317b" d="M68.136 65.777H38.009a1.25 1.25 0 0 0 0 2.5h30.127a1.25 1.25 0 0 0 0-2.5zM68.136 74.432H38.009a1.25 1.25 0 0 0 0 2.5h30.127a1.25 1.25 0 0 0 0-2.5zM68.136 83.086H38.009a1.25 1.25 0 0 0 0 2.5h30.127a1.25 1.25 0 0 0 0-2.5z"/></svg>