<svg id="Layer_1" data-name="Layer 1" xmlns="http://www.w3.org/2000/svg" viewBox="0 0 128 128"><title>VALENTINE BALLOON</title><path d="M82.586,32.095A13.381,13.381,0,0,0,64,31.778,13.374,13.374,0,0,0,45.081,50.663l-.018.018.351.351L64,69.618,82.586,51.032l.351-.351-.018-.018A13.38,13.38,0,0,0,82.586,32.095Z" style="fill:#fc574f"/><path d="M83.47,31.211A14.57,14.57,0,0,0,64,30.126a14.625,14.625,0,0,0-20.01,21.2,1.216,1.216,0,0,0,.189.242L62.75,70.136V99.914a1.25,1.25,0,1,0,2.5,0V70.136L83.821,51.565A1.186,1.186,0,0,0,84,51.329,14.579,14.579,0,0,0,83.47,31.211ZM82,49.813a1.212,1.212,0,0,0-.124.158L64,67.851,46.123,49.973A1.311,1.311,0,0,0,46,49.813,12.124,12.124,0,0,1,63.148,32.692a1.249,1.249,0,0,0,1.705,0A12.124,12.124,0,0,1,82,49.813Z" style="fill:#30317b"/><path d="M73.964,33.367q-.205-.052-.413-.1a1.25,1.25,0,1,0-.508,2.448c.1.021.2.044.305.07a1.25,1.25,0,1,0,.615-2.423Z" style="fill:#fff"/><path d="M76.558,35.851a1.25,1.25,0,0,0,0,1.768,6.942,6.942,0,0,1,2,5.751,1.251,1.251,0,0,0,1.1,1.387,1.354,1.354,0,0,0,.147.008,1.25,1.25,0,0,0,1.24-1.1,9.429,9.429,0,0,0-2.711-7.809A1.25,1.25,0,0,0,76.558,35.851Z" style="fill:#fff"/></svg>