<svg id="Layer_1" data-name="Layer 1" xmlns="http://www.w3.org/2000/svg" viewBox="0 0 128 128"><title>VALENTINE LOCK</title><rect x="41.21" y="54.333" width="45.581" height="45.581" style="fill:#fff3f3"/><path d="M73.113,69.268A6.561,6.561,0,0,0,64,69.112a6.558,6.558,0,0,0-9.277,9.26l-.009.009.172.172L64,87.667l9.113-9.114.172-.172-.009-.009A6.561,6.561,0,0,0,73.113,69.268Z" style="fill:#fc574f"/><path d="M64,67.506A7.809,7.809,0,0,0,53.679,79.081a1.254,1.254,0,0,0,.152.184l9.285,9.285a1.25,1.25,0,0,0,1.768,0l9.285-9.285a1.252,1.252,0,0,0,.15-.182A7.809,7.809,0,0,0,64,67.506Zm8.229,2.646a5.293,5.293,0,0,1,.131,7.37,1.228,1.228,0,0,0-.083.1L64,85.9l-8.23-8.23-.047-.047c-.026-.034-.055-.068-.084-.1a5.308,5.308,0,0,1,7.508-7.5,1.249,1.249,0,0,0,1.7,0A5.291,5.291,0,0,1,72.229,70.152Z" style="fill:#30317b"/><path d="M86.79,58.75A1.25,1.25,0,0,0,85.54,60V98.664H42.46V55.584H86.79a1.25,1.25,0,0,0,0-2.5H78.374V41.21a14.374,14.374,0,0,0-28.748,0V53.084H41.21a1.25,1.25,0,0,0-1.25,1.25V99.914a1.25,1.25,0,0,0,1.25,1.25H86.79a1.25,1.25,0,0,0,1.25-1.25V60A1.25,1.25,0,0,0,86.79,58.75ZM52.126,41.21a11.874,11.874,0,0,1,23.748,0V53.084H52.126Z" style="fill:#30317b"/></svg>