<svg id="Layer_1" data-name="Layer 1" xmlns="http://www.w3.org/2000/svg" viewBox="0 0 128 128"><title>ENVELOPE</title><rect x="28.086" y="60.128" width="71.828" height="39.786" style="fill:#eb4a42"/><polygon points="64 80.021 28.086 60.128 99.914 60.128 64 80.021" style="fill:#fc574f"/><polygon points="64 80.021 52.144 73.454 28.086 99.914 99.914 99.914 75.855 73.454 64 80.021" style="fill:#fc574f"/><polygon points="85.75 67.974 64 80.021 42.25 67.974 42.25 28.086 85.75 28.086 85.75 67.974" style="fill:#fff3f3"/><path d="M63.608,35.326a4.883,4.883,0,0,0-6.783-.116,4.881,4.881,0,0,0-6.9,6.893l-.006.006.128.128,6.783,6.783,6.783-6.783.128-.128-.007-.006A4.883,4.883,0,0,0,63.608,35.326Z" style="fill:#fc574f"/><path d="M49.03,42.993,55.941,49.9a1.25,1.25,0,0,0,1.768,0l6.911-6.911a1.182,1.182,0,0,0,.137-.162,6.132,6.132,0,0,0-7.932-9.2,6.132,6.132,0,0,0-7.933,9.2A1.211,1.211,0,0,0,49.03,42.993Zm1.9-6.783a3.62,3.62,0,0,1,5.047-.085,1.249,1.249,0,0,0,1.7,0,3.631,3.631,0,0,1,5.136,5.128c-.023.025-.046.052-.067.079l-5.921,5.922L50.9,41.331c-.021-.027-.044-.054-.068-.08A3.621,3.621,0,0,1,50.925,36.21Z" style="fill:#30317b"/><path d="M99.914,58.878H91.125a1.25,1.25,0,0,0,0,2.5h3.953L87,65.853V28.086a1.25,1.25,0,0,0-1.25-1.25H42.25A1.25,1.25,0,0,0,41,28.086V58.878H28.086a1.25,1.25,0,0,0-1.25,1.25V99.914a1.25,1.25,0,0,0,1.25,1.25H99.914a1.25,1.25,0,0,0,1.25-1.25V60.128A1.25,1.25,0,0,0,99.914,58.878ZM29.336,62.25,50.157,73.782l-20.821,22.9ZM52.4,75.027l10.99,6.087a1.248,1.248,0,0,0,1.211,0L75.6,75.027,97.088,98.664H30.912Zm25.439-1.245L98.664,62.25V96.682ZM42.25,63.224a1.25,1.25,0,0,0,1.25-1.25V29.336h41v37.9L64,78.592,32.921,61.378H41v.6A1.25,1.25,0,0,0,42.25,63.224Z" style="fill:#30317b"/><path d="M48.306,54.834a1.25,1.25,0,0,0,1.25,1.25H78.443a1.25,1.25,0,0,0,0-2.5H49.556A1.25,1.25,0,0,0,48.306,54.834Z" style="fill:#30317b"/><path d="M78.443,58.878H49.556a1.25,1.25,0,0,0,0,2.5H78.443a1.25,1.25,0,0,0,0-2.5Z" style="fill:#30317b"/><path d="M78.443,64.173H49.556a1.25,1.25,0,0,0,0,2.5H78.443a1.25,1.25,0,0,0,0-2.5Z" style="fill:#30317b"/></svg>