<svg xmlns="http://www.w3.org/2000/svg" data-name="Layer 1" viewBox="0 0 128 128"><path fill="#fff3f3" d="M64 37.586A31.164 31.164 0 1 0 95.164 68.75 31.164 31.164 0 0 0 64 37.586zm0 55.355A24.191 24.191 0 1 1 88.191 68.75 24.191 24.191 0 0 1 64 92.941z"/><path fill="#fc574f" d="M76.649 30.75A9.106 9.106 0 0 0 64 30.535a9.1 9.1 0 0 0-12.876 12.852l-.012.012.239.239L64 56.287l12.649-12.649.239-.239-.012-.012a9.106 9.106 0 0 0-.227-12.637z"/><path fill="#30317b" d="M83.705 43.011A1.25 1.25 0 1 0 82.184 45a29.924 29.924 0 1 1-33.072-2.179 10.474 10.474 0 0 0 .951 1.262 1.221 1.221 0 0 0 .166.205l12.887 12.883a1.25 1.25 0 0 0 1.768 0l9.076-9.076a22.929 22.929 0 1 1-23.36 2.032 1.25 1.25 0 0 0-1.463-2.027 25.443 25.443 0 1 0 26.693-1.874l1.942-1.942a1.215 1.215 0 0 0 .163-.2A10.353 10.353 0 0 0 64 28.9a10.356 10.356 0 0 0-16 11.671 32.4 32.4 0 1 0 35.705 2.44zM52.234 31.634a7.828 7.828 0 0 1 10.913-.186 1.251 1.251 0 0 0 1.7 0A7.852 7.852 0 0 1 75.96 42.537a1.269 1.269 0 0 0-.1.121L64 54.52 52.234 42.754l-.094-.095a1.467 1.467 0 0 0-.1-.122 7.832 7.832 0 0 1 .194-10.903z"/></svg>