<svg xmlns="http://www.w3.org/2000/svg" data-name="Layer 3" viewBox="0 0 128 128"><path d="M106.235 55.691a8.311 8.311 0 00-8.2-8.4h-12.3L75.282 29.957a1.591 1.591 0 00-2.726 1.643l9.462 15.691H45.984L55.447 31.6a1.592 1.592 0 00-2.726-1.644L42.267 47.292h-12.3a8.389 8.389 0 00-.572 16.741l2.392 25.416a10.546 10.546 0 0010.283 9.364h43.86a10.545 10.545 0 0010.286-9.364l2.392-25.416a8.3 8.3 0 007.627-8.342zm-71.284 33.46l-2.358-25.059h8.027L43.1 95.63h-1.03a7.394 7.394 0 01-7.119-6.479zm49.265-25.059L81.743 95.63h-6.9l2.227-31.538zM71.654 95.63h-6.063V64.092h8.29zm-9.245 0h-6.035l-2.226-31.538h8.26zm-11.45-31.538l2.226 31.538h-6.9l-2.472-31.538zm42.089 25.059a7.394 7.394 0 01-7.118 6.479h-.994l2.473-31.538h8zm4.987-28.241h-68.07a5.221 5.221 0 010-10.435h10.383l-.515.855a1.592 1.592 0 002.726 1.644l1.507-2.5h39.872l1.507 2.5a1.592 1.592 0 102.726-1.644l-.515-.855h10.38a5.221 5.221 0 010 10.435z"/></svg>