<svg id="Layer_3" data-name="Layer 3" xmlns="http://www.w3.org/2000/svg" viewBox="0 0 128 128"><title>Artboard 102</title><path d="M98.123,61.823a11.91,11.91,0,0,0-7.587-22.251l-2.9-9.332a1.592,1.592,0,0,0-1.992-1.047l-62,19.262a1.569,1.569,0,0,0-1.078,1.691,1.5,1.5,0,0,0-.041.2V62.877a1.591,1.591,0,0,0,1.591,1.591,9.349,9.349,0,0,1,0,18.7,1.591,1.591,0,0,0-1.591,1.591V97.288a1.591,1.591,0,0,0,1.591,1.591H92.941a1.591,1.591,0,0,0,1.591-1.591V85.651a12.524,12.524,0,0,0,3.591-23.829ZM25.71,51.937H91.35v1.723H25.71Zm62.228-10a1.592,1.592,0,0,0,1.992,1.047,8.728,8.728,0,0,1,5.179,16.671,1.573,1.573,0,0,0-.577.331v-9.64a1.591,1.591,0,0,0-1.591-1.591H33.4L85.07,32.7ZM25.71,95.7V93.708H91.35V95.7ZM92.941,82.569A1.591,1.591,0,0,0,91.35,84.16v6.365H25.71V86.248a12.533,12.533,0,0,0,0-24.862V56.843H91.35V62.28a1.591,1.591,0,0,0,1.591,1.591,9.349,9.349,0,1,1,0,18.7Z"/><path d="M59.657,66.127a6.232,6.232,0,1,0-6.231,6.231A6.239,6.239,0,0,0,59.657,66.127Zm-9.281,0a3.049,3.049,0,1,1,3.05,3.049A3.053,3.053,0,0,1,50.375,66.127Z"/><path d="M71.26,75.674a6.1,6.1,0,1,0,6.1,6.1A6.106,6.106,0,0,0,71.26,75.674Zm0,9.016a2.917,2.917,0,1,1,2.917-2.917A2.92,2.92,0,0,1,71.26,84.69Z"/><path d="M71.794,57.58a1.592,1.592,0,0,0-2.168.6L53.448,86.826a1.591,1.591,0,1,0,2.771,1.565L72.4,59.748A1.591,1.591,0,0,0,71.794,57.58Z"/></svg>