<svg id="Layer_3" data-name="Layer 3" xmlns="http://www.w3.org/2000/svg" viewBox="0 0 128 128"><title>Artboard 107</title><path d="M73.5,42.571H41.674a1.591,1.591,0,1,0,0,3.182H73.5a1.591,1.591,0,1,0,0-3.182Z"/><path d="M79.268,45.753h9.548a1.591,1.591,0,1,0,0-3.182H79.268a1.591,1.591,0,1,0,0,3.182Z"/><path d="M79.268,55.672h9.548a1.591,1.591,0,1,0,0-3.182H79.268a1.591,1.591,0,1,0,0,3.182Z"/><path d="M79.268,65.591h9.548a1.591,1.591,0,0,0,0-3.183H79.268a1.591,1.591,0,0,0,0,3.183Z"/><path d="M73.5,52.49H41.674a1.591,1.591,0,1,0,0,3.182H73.5a1.591,1.591,0,1,0,0-3.182Z"/><path d="M73.5,62.409H41.674a1.591,1.591,0,1,0,0,3.183H73.5a1.591,1.591,0,0,0,0-3.183Z"/><path d="M89.313,72.407H78.77A1.59,1.59,0,0,0,77.179,74V84.541a1.59,1.59,0,0,0,1.591,1.591H89.313A1.59,1.59,0,0,0,90.9,84.541V74A1.59,1.59,0,0,0,89.313,72.407ZM87.721,82.949h-7.36V75.59h7.36Z"/><path d="M97.26,30.52a1.58,1.58,0,0,0-.137-.638,9.554,9.554,0,0,0-9.41-8H40.288a9.554,9.554,0,0,0-9.41,8,1.58,1.58,0,0,0-.137.638,1.482,1.482,0,0,0,.037.183c-.018.241-.037.483-.037.729V99.418c0,3.756,4.194,6.7,9.548,6.7H87.712a9.559,9.559,0,0,0,9.5-8.61,1.5,1.5,0,0,0,.047-.236c0-.05-.024-.092-.028-.141.011-.187.028-.372.028-.561V31.432c0-.246-.019-.488-.037-.729A1.484,1.484,0,0,0,97.26,30.52ZM33.923,95.679V32.111H94.077V95.679Zm6.365-70.613H87.712a6.371,6.371,0,0,1,5.849,3.862H34.439A6.371,6.371,0,0,1,40.288,25.067Zm47.424,77.867H40.288c-3.751,0-6.365-1.852-6.365-3.515v-.556h59.71A6.361,6.361,0,0,1,87.712,102.933Z"/></svg>