<svg id="Layer_3" data-name="Layer 3" xmlns="http://www.w3.org/2000/svg" viewBox="0 0 128 128"><title>Artboard 97</title><path d="M106.826,58.228l-6-22.014a14.329,14.329,0,0,0-13.076-9.976H42.11a15.154,15.154,0,0,0-13.492,9.767L23.376,51.95,21.21,58.113a1.591,1.591,0,0,0,1.5,2.119,7.612,7.612,0,0,1,4.6,1.581,14.9,14.9,0,0,0,2.7,1.438v38.512H98.468V63.226a12.951,12.951,0,0,0,2.518-1.449,6.59,6.59,0,0,1,4.3-1.545,1.591,1.591,0,0,0,1.537-2ZM54.022,60.7a6.2,6.2,0,0,1-4.178-1.528,9.818,9.818,0,0,0-4.2-1.957l4.365-27.794h12.63V57.178A9.716,9.716,0,0,0,58.2,59.172,6.208,6.208,0,0,1,54.022,60.7Zm11.8-31.28H78.71l4.359,27.757a9.722,9.722,0,0,0-4.447,1.994,6.477,6.477,0,0,1-8.36,0,9.707,9.707,0,0,0-4.437-1.993ZM24.882,57.263l1.508-4.287L31.642,37A11.927,11.927,0,0,1,42.11,29.421h4.682L42.437,57.146a9.614,9.614,0,0,0-4.655,2.026A6.2,6.2,0,0,1,33.6,60.7a7.61,7.61,0,0,1-4.6-1.58A11.929,11.929,0,0,0,24.882,57.263Zm8.314,6.6c.138,0,.265.019.408.019a9.335,9.335,0,0,0,6.031-2.123,6.474,6.474,0,0,1,8.357,0,9.664,9.664,0,0,0,4.546,2.01V98.579H33.2Zm62.09,34.714H55.72V63.738a9.762,9.762,0,0,0,4.335-1.978,6.473,6.473,0,0,1,8.355,0,9.629,9.629,0,0,0,12.063,0,6.488,6.488,0,0,1,8.368,0,9.351,9.351,0,0,0,6.037,2.123c.144,0,.27-.014.407-.019Zm3.9-39.423a6.594,6.594,0,0,1-4.3,1.545,6.218,6.218,0,0,1-4.187-1.53,9.741,9.741,0,0,0-4.4-1.986L81.931,29.421h5.824a11.121,11.121,0,0,1,10.007,7.634l4.3,15.7,1.2,4.478A10.3,10.3,0,0,0,99.181,59.156Z"/><circle cx="47.587" cy="80.17" r="2.739"/><path d="M83.624,68.1a1.592,1.592,0,0,0-2.25-.019L63.125,86.034A1.591,1.591,0,1,0,65.356,88.3L83.606,70.351A1.591,1.591,0,0,0,83.624,68.1Z"/><path d="M85.942,75.96,71.969,89.707A1.591,1.591,0,1,0,74.2,91.976L88.174,78.229a1.591,1.591,0,1,0-2.231-2.269Z"/></svg>