<svg xmlns="http://www.w3.org/2000/svg" data-name="Layer 3" viewBox="0 0 128 128"><path d="m99 95.927-3.576-47.385a10.341 10.341 0 0 0-10.141-9.405h-3.064a18.287 18.287 0 0 0-36.438 0h-3.064a10.341 10.341 0 0 0-10.141 9.405L29 95.927a8.876 8.876 0 0 0 8.945 9.645h52.112A8.876 8.876 0 0 0 99 95.927zM64 25.611a15.137 15.137 0 0 1 15.032 13.525H48.968A15.137 15.137 0 0 1 64 25.611zm-28.251 23.17a7.107 7.107 0 0 1 6.968-6.462H45.7v4.953a4.111 4.111 0 1 0 3.182 0v-4.953h30.235v4.954a4.111 4.111 0 1 0 3.182 0v-4.954h2.984a7.107 7.107 0 0 1 6.968 6.462l3.2 42.353h-62.9zm58.585 51.787a5.754 5.754 0 0 1-4.276 1.821H37.943a5.695 5.695 0 0 1-5.771-6.223l.14-1.85h63.377l.14 1.85a5.752 5.752 0 0 1-1.495 4.402z"/></svg>