<svg id="Layer_3" data-name="Layer 3" xmlns="http://www.w3.org/2000/svg" viewBox="0 0 128 128"><title>Artboard 99</title><path d="M99,95.927,95.424,48.542a10.341,10.341,0,0,0-10.141-9.405H82.219a18.287,18.287,0,0,0-36.438,0H42.717a10.341,10.341,0,0,0-10.141,9.405L29,95.927a8.876,8.876,0,0,0,8.945,9.645H90.057A8.876,8.876,0,0,0,99,95.927ZM64,25.611A15.137,15.137,0,0,1,79.032,39.136H48.968A15.137,15.137,0,0,1,64,25.611ZM35.749,48.781a7.107,7.107,0,0,1,6.968-6.462H45.7v4.953a4.111,4.111,0,1,0,3.182,0V42.319H79.117v4.954a4.111,4.111,0,1,0,3.182,0V42.319h2.984a7.107,7.107,0,0,1,6.968,6.462l3.2,42.353h-62.9Zm58.585,51.787a5.754,5.754,0,0,1-4.276,1.821H37.943a5.695,5.695,0,0,1-5.771-6.223l.14-1.85H95.689l.14,1.85A5.752,5.752,0,0,1,94.334,100.568Z"/></svg>