<svg id="Layer_3" data-name="Layer 3" xmlns="http://www.w3.org/2000/svg" viewBox="0 0 128 128"><title>Artboard 104</title><path d="M110.987,82.788a1.6,1.6,0,0,0-1.938-1.145L60.585,94.095a9.8,9.8,0,0,0-8.714-5.851l-.241,0c-.274,0-.542.018-.81.04L34.09,21.71a1.59,1.59,0,0,0-1.5-1.2l-13.994-.34h-.039a1.591,1.591,0,0,0-.039,3.182L31.3,23.66,47.73,89.041a9.8,9.8,0,0,0,3.662,18.789l.246,0a9.758,9.758,0,0,0,9.747-10.657l48.457-12.45A1.591,1.591,0,0,0,110.987,82.788ZM51.638,104.651l-.169,0a6.606,6.606,0,0,1-6.448-6.77,6.653,6.653,0,0,1,6.609-6.455h.163a6.614,6.614,0,0,1-.155,13.225Z"/><path d="M57.857,85.516a1.591,1.591,0,0,0,1.932,1.154l42.594-10.734A1.591,1.591,0,0,0,103.538,74L95.507,42.13v-.008l0-.007L93.53,34.283A1.592,1.592,0,0,0,91.6,33.129L49,43.862a1.592,1.592,0,0,0-1.154,1.933Zm2.7-2.321L53.3,54.4l39.511-9.958,7.255,28.8ZM90.832,36.6l1.2,4.754L52.518,51.315l-1.2-4.756Z"/></svg>