<svg id="Layer_3" data-name="Layer 3" xmlns="http://www.w3.org/2000/svg" viewBox="0 0 128 128"><title>Artboard 111</title><path d="M96.271,29.769H31.728A10.387,10.387,0,0,0,21.356,40.147V77.464A10.385,10.385,0,0,0,31.728,87.838H67.607v8.8A1.59,1.59,0,0,0,69.2,98.231H93.49a1.59,1.59,0,0,0,1.591-1.591v-8.8h1.19a10.385,10.385,0,0,0,10.373-10.374V40.147A10.387,10.387,0,0,0,96.271,29.769ZM24.538,43.052h78.923v7.357H24.538Zm7.19-10.1H96.271a7.187,7.187,0,0,1,7.162,6.918H24.566A7.187,7.187,0,0,1,31.728,32.952Zm60.17,62.1H70.789V76.861H91.9ZM74.131,73.678a7.445,7.445,0,0,1,14.423,0Zm22.14,10.977h-1.19V75.269a1.59,1.59,0,0,0-1.591-1.591H91.831a10.653,10.653,0,0,0-20.975,0H69.2a1.59,1.59,0,0,0-1.591,1.591v9.386H31.728a7.2,7.2,0,0,1-7.19-7.192V53.592h78.923V77.464A7.2,7.2,0,0,1,96.271,84.656Z"/><path d="M42.706,75.434H30.411a1.591,1.591,0,1,0,0,3.183H42.706a1.591,1.591,0,1,0,0-3.183Z"/><path d="M64,75.434H51.706a1.591,1.591,0,0,0,0,3.183H64a1.591,1.591,0,1,0,0-3.183Z"/><path d="M81.342,91.244a1.59,1.59,0,0,0,1.591-1.591V81.091a1.591,1.591,0,1,0-3.183,0v8.563A1.591,1.591,0,0,0,81.342,91.244Z"/></svg>