<svg id="Layer_3" data-name="Layer 3" xmlns="http://www.w3.org/2000/svg" viewBox="0 0 128 128"><title>Artboard 103</title><path d="M56.152,35.284A20.871,20.871,0,1,0,77.024,56.155,20.895,20.895,0,0,0,56.152,35.284Zm0,38.559A17.688,17.688,0,1,1,73.841,56.155,17.708,17.708,0,0,1,56.152,73.843Z"/><path d="M100.879,89.255,83.4,71.775A31.533,31.533,0,1,0,71.774,83.4l17.478,17.48a8.221,8.221,0,1,0,11.627-11.627Zm-72.984-33.1A28.258,28.258,0,1,1,56.152,84.413,28.29,28.29,0,0,1,27.895,56.155Zm53.736,18.35L95.68,88.556l-7.226,7.027L74.5,81.632A31.66,31.66,0,0,0,81.631,74.505Zm17,24.126a5.16,5.16,0,0,1-7.126,0l-.8-.8,7.226-7.027.7.7a5.038,5.038,0,0,1,0,7.127Z"/></svg>