<svg xmlns="http://www.w3.org/2000/svg" data-name="Layer 3" viewBox="0 0 128 128"><path d="M96.271 29.769H31.728a10.387 10.387 0 0 0-10.372 10.378v37.317a10.385 10.385 0 0 0 10.372 10.374h35.879v8.8a1.59 1.59 0 0 0 1.593 1.593h24.29a1.59 1.59 0 0 0 1.591-1.591v-8.8h1.19a10.385 10.385 0 0 0 10.373-10.374V40.147a10.387 10.387 0 0 0-10.373-10.378zM24.538 43.052h78.923v7.357H24.538zm7.19-10.1h64.543a7.187 7.187 0 0 1 7.162 6.918H24.566a7.187 7.187 0 0 1 7.162-6.918zm60.17 62.1H70.789V76.861H91.9zM74.131 73.678a7.445 7.445 0 0 1 14.423 0zm22.14 10.977h-1.19v-9.386a1.59 1.59 0 0 0-1.591-1.591h-1.659a10.653 10.653 0 0 0-20.975 0H69.2a1.59 1.59 0 0 0-1.591 1.591v9.386H31.728a7.2 7.2 0 0 1-7.19-7.192V53.592h78.923v23.872a7.2 7.2 0 0 1-7.19 7.192z"/><path d="M42.706 75.434H30.411a1.591 1.591 0 1 0 0 3.183h12.295a1.591 1.591 0 1 0 0-3.183zM64 75.434H51.706a1.591 1.591 0 0 0 0 3.183H64a1.591 1.591 0 1 0 0-3.183zM81.342 91.244a1.59 1.59 0 0 0 1.591-1.591v-8.562a1.591 1.591 0 1 0-3.183 0v8.563a1.591 1.591 0 0 0 1.592 1.59z"/></svg>