<svg xmlns="http://www.w3.org/2000/svg" data-name="Layer 3" viewBox="0 0 128 128"><path d="M56.152 35.284a20.871 20.871 0 1 0 20.872 20.871 20.895 20.895 0 0 0-20.872-20.871zm0 38.559a17.688 17.688 0 1 1 17.689-17.688 17.708 17.708 0 0 1-17.689 17.688z"/><path d="M100.879 89.255 83.4 71.775A31.533 31.533 0 1 0 71.774 83.4l17.478 17.48a8.221 8.221 0 1 0 11.627-11.627zm-72.984-33.1a28.258 28.258 0 1 1 28.257 28.258 28.29 28.29 0 0 1-28.257-28.258zm53.736 18.35L95.68 88.556l-7.226 7.027L74.5 81.632a31.66 31.66 0 0 0 7.131-7.127zm17 24.126a5.16 5.16 0 0 1-7.126 0l-.8-.8 7.226-7.027.7.7a5.038 5.038 0 0 1 0 7.127z"/></svg>