<svg xmlns="http://www.w3.org/2000/svg" data-name="Layer 3" viewBox="0 0 128 128"><path fill="#f0e9e0" d="M33.538 85.5v12.569c0 2.7 3.444 4.912 7.653 4.912h45.618a7.676 7.676 0 0 0 7.653-7.653V32.672a7.676 7.676 0 0 0-7.653-7.653H41.191a7.676 7.676 0 0 0-7.653 7.653V85.5z"/><path fill="#f7f7f7" d="M39.469 98.069v-65.4a7.676 7.676 0 0 1 7.653-7.653h-5.931a7.676 7.676 0 0 0-7.653 7.653v65.4c0 2.7 3.444 4.912 7.653 4.912h5.931c-4.209 0-7.653-2.211-7.653-4.912z"/><path fill="#ff4948" d="M78.208 73.617H88.349V83.75800000000001H78.208z"/><path fill="#231f20" d="M73.138 43.387H42.525a1.531 1.531 0 1 0 0 3.061h30.613a1.531 1.531 0 1 0 0-3.061zM78.686 46.448h9.184a1.531 1.531 0 0 0 0-3.061h-9.184a1.531 1.531 0 0 0 0 3.061zM78.686 55.989h9.184a1.531 1.531 0 0 0 0-3.061h-9.184a1.531 1.531 0 0 0 0 3.061zM78.686 65.531h9.184a1.531 1.531 0 0 0 0-3.061h-9.184a1.531 1.531 0 0 0 0 3.061zM73.138 52.928H42.525a1.531 1.531 0 1 0 0 3.061h30.613a1.531 1.531 0 1 0 0-3.061zM73.138 62.469H42.525a1.531 1.531 0 1 0 0 3.061h30.613a1.531 1.531 0 1 0 0-3.061zM88.348 72.087h-10.14a1.53 1.53 0 0 0-1.531 1.531v10.14a1.53 1.53 0 0 0 1.531 1.531h10.14a1.53 1.53 0 0 0 1.531-1.531V73.617a1.53 1.53 0 0 0-1.531-1.53zm-1.53 10.14h-7.079v-7.079h7.079z"/><path fill="#231f20" d="M95.993 31.795a1.519 1.519 0 0 0-.132-.614 9.19 9.19 0 0 0-9.052-7.692H41.191a9.19 9.19 0 0 0-9.052 7.693 1.517 1.517 0 0 0-.132.614 1.43 1.43 0 0 0 .036.176 9.036 9.036 0 0 0-.036.7v65.4c0 3.613 4.034 6.442 9.184 6.442h45.618a9.2 9.2 0 0 0 9.138-8.282 1.447 1.447 0 0 0 .046-.232c0-.048-.023-.089-.027-.136.011-.18.027-.358.027-.54V32.672c0-.237-.018-.469-.035-.7a1.431 1.431 0 0 0 .035-.177zM35.069 94.473V33.326h57.862v61.147zm6.122-67.923h45.618a6.129 6.129 0 0 1 5.626 3.714h-56.87a6.129 6.129 0 0 1 5.626-3.714zm45.618 74.9H41.191c-3.608 0-6.123-1.782-6.123-3.381v-.535H92.5a6.119 6.119 0 0 1-5.691 3.916z"/></svg>