<svg xmlns="http://www.w3.org/2000/svg" data-name="Layer 3" viewBox="0 0 128 128"><path fill="#f8b72b" d="M54.119 40.354H96.37299999999999V79.757H54.119z" transform="rotate(-14.146 75.243 60.053)"/><path fill="#f7c869" d="M54.658 44.705H61.298V84.108H54.658z" transform="rotate(-14.156 57.982 64.408)"/><circle cx="52.102" cy="96.741" r="3.605" fill="#231f20" transform="rotate(-88.611 52.102 96.741)"/><path fill="#231f20" d="M109.2 82.073a1.538 1.538 0 0 0-1.864-1.1L60.715 92.948a9.427 9.427 0 0 0-8.384-5.627h-.233c-.262 0-.519.018-.776.039L35.228 23.321a1.529 1.529 0 0 0-1.447-1.157l-13.459-.327h-.037a1.531 1.531 0 0 0-.037 3.061l12.3.3 15.808 62.914a9.482 9.482 0 0 0-5.673 8.4 9.416 9.416 0 0 0 9.188 9.65h.236a9.368 9.368 0 0 0 9.416-9.194 9.464 9.464 0 0 0-.038-1.058L108.1 83.937a1.531 1.531 0 0 0 1.1-1.864zM52.107 103.1h-.161a6.353 6.353 0 0 1-6.2-6.514 6.4 6.4 0 0 1 6.354-6.207h.158a6.362 6.362 0 0 1-.15 12.722z"/><path fill="#231f20" d="M58.089 84.7a1.53 1.53 0 0 0 1.858 1.111l40.972-10.326a1.53 1.53 0 0 0 1.111-1.858l-7.725-30.66v-.017l-1.9-7.531a1.531 1.531 0 0 0-1.86-1.119L49.571 44.629a1.532 1.532 0 0 0-1.111 1.858zm2.6-2.232L53.7 54.766l38.005-9.578 6.979 27.7zm29.12-44.821 1.152 4.572L52.955 51.8 51.8 47.224z"/></svg>