<svg xmlns="http://www.w3.org/2000/svg" data-name="Layer 3" viewBox="0 0 128 128"><path fill="#f8b72b" d="M42.666 62.182V46.015s15.609 2.377 25.088-7.653c0 0 4.664 4.592 9.447 4.592h7.175S83.4 30.9 75.659 24.107s-19.4-6.332-26.774-2.1S37.6 35.163 37.6 40.541v22.407z"/><path fill="#f7c869" d="M42.2 60.556V40.541c0-5.378 3.917-14.311 11.293-18.541a24.4 24.4 0 0 1 9.786-2.99A25.118 25.118 0 0 0 48.885 22C41.509 26.23 37.6 35.163 37.6 40.541v22.407l4.608-.7z"/><path fill="#f0e9e0" d="M45.888 85.174V73.785s-7.367-5.585-7.367-11.029h4.56V45.505s15.966 1.764 25.256-7.526c0 0 3.956 5.74 15.626 5.74v19.229s-2.106 9.217-6.57 12.023v10.2l-15.722 18.753z"/><path fill="#01a9bb" d="M83.963 62.661a9.152 9.152 0 1 0 0-18.3zM36.695 44.359a9.152 9.152 0 0 0 0 18.3z"/><path fill="#27bdc1" d="M87.634 45.129a9.111 9.111 0 0 0-3.671-.772v18.3a9.111 9.111 0 0 0 3.671-.771zM31.214 53.51a9.149 9.149 0 0 1 5.481-8.38v-.771a9.152 9.152 0 1 0 0 18.3v-.772a9.151 9.151 0 0 1-5.481-8.377z"/><rect width="10.077" height="4.879" x="55.518" y="76.309" fill="#01a9bb" rx="2.415" ry="2.415"/><path fill="#231f20" d="m99.3 89.659-20.58-5.535v-8.1c1.622-1.441 6.024-5.868 6.659-11.833a11.263 11.263 0 0 0 .1-22.343 25 25 0 0 0-49.982 0 11.269 11.269 0 0 0 1.5 22.439c.048 0 .088-.023.135-.027a24.94 24.94 0 0 0 7.609 10.5 1.519 1.519 0 0 0-.113.561v8.854l-17.713 5.468c-.136.031-13.65 3.223-13.65 19.328a1.531 1.531 0 0 0 3.061 0c0-13.6 10.8-16.235 11.372-16.371l17.923-5.537 14.865 18.089a1.53 1.53 0 0 0 2.365 0l14.894-18.12 20.867 5.608c.533.1 13.061 2.688 13.061 16.331a1.531 1.531 0 0 0 3.061 0c0-16.14-15.385-19.306-15.434-19.312zm-7.106-36.646a8.218 8.218 0 0 1-6.683 8.058V44.953a8.219 8.219 0 0 1 6.683 8.06zM38.521 42.526a21.951 21.951 0 0 1 43.889-.789h-3.993c-6.508 0-8.632-4.785-8.715-4.981a1.531 1.531 0 0 0-2.672-.288c-7.145 10.284-23.534 7.692-23.7 7.664a1.532 1.532 0 0 0-1.783 1.51v15.584h-2.206a22.061 22.061 0 0 1-.819-5.925zm-9.742 10.487a8.218 8.218 0 0 1 6.682-8.06V55.3a25.167 25.167 0 0 0 .7 5.841 8.2 8.2 0 0 1-7.382-8.128zm32.891 48.755L47.683 84.75V76.8a24.966 24.966 0 0 0 5.593 2.45 5.15 5.15 0 0 0 5.224 4.387h3.964a4.938 4.938 0 1 0 0-9.852H58.5a5.385 5.385 0 0 0-4.568 2.471 21.87 21.87 0 0 1-13.5-11.969h2.648a1.53 1.53 0 0 0 1.531-1.531V47.369c4.512.413 16.416.641 23.525-7.363A12.43 12.43 0 0 0 78.417 44.8h4.033v17.309a1.442 1.442 0 0 0 .041.205 1.489 1.489 0 0 0-.089.442c0 6.426-6.1 11.306-6.158 11.356a1.533 1.533 0 0 0-.585 1.2v9.438zM56.3 78.539c.006-.022.021-.039.026-.061a1.39 1.39 0 0 0 .006-.144 2.168 2.168 0 0 1 2.168-1.488h3.964a1.894 1.894 0 1 1 0 3.73H58.5a2.07 2.07 0 0 1-2.224-1.862 1.582 1.582 0 0 1 .024-.175z"/><path fill="#01a9bb" d="M111.673 108.971c0-13.643-12.528-16.227-13.061-16.331l-20.867-5.608-14.893 18.119a1.53 1.53 0 0 1-2.365 0L45.622 87.063 27.7 92.6c-.574.136-11.372 2.774-11.372 16.371A1.53 1.53 0 0 1 14.8 110.5h98.4a1.53 1.53 0 0 1-1.527-1.529z"/><path fill="#27bdc1" d="M21.206 108.971c0-13.6 10.8-16.235 11.372-16.371l14.032-4.335-.988-1.2L27.7 92.6c-.574.136-11.372 2.774-11.372 16.371A1.53 1.53 0 0 1 14.8 110.5h4.879a1.53 1.53 0 0 0 1.527-1.529z"/></svg>