<svg id="Layer_3" data-name="Layer 3" xmlns="http://www.w3.org/2000/svg" viewBox="0 0 128 128"><title>Artboard 106</title><path d="M96.268,74.458a36.715,36.715,0,1,0-19.007,21.7s15.927-10.27,20.463-21.226Z" style="fill:#f0e9e0"/><path d="M30.441,63.042a36.731,36.731,0,0,1,33.818-36.61c-.964-.076-1.935-.126-2.918-.126a36.736,36.736,0,0,0,0,73.471c.978,0,1.944-.052,2.9-.127A36.731,36.731,0,0,1,30.441,63.042Z" style="fill:#f7f7f7"/><circle cx="88.727" cy="87.026" r="14.668" style="fill:#f8b72b"/><path d="M78.587,87.026a14.658,14.658,0,0,1,12.4-14.476,14.669,14.669,0,1,0,0,28.952A14.657,14.657,0,0,1,78.587,87.026Z" style="fill:#f7c869"/><path d="M98.045,73.8A38.252,38.252,0,1,0,76.859,98.015,16.18,16.18,0,1,0,98.045,73.8Zm-36.7,24.45a35.277,35.277,0,1,1,33.966-26.01A16.168,16.168,0,0,0,74.956,95.514,34.881,34.881,0,0,1,61.341,98.247Zm27.386,1.916a13.138,13.138,0,1,1,13.138-13.138A13.153,13.153,0,0,1,88.727,100.163Z" style="fill:#231f20"/><path d="M62.871,56.872V42.38a1.531,1.531,0,1,0-3.061,0V56.872a6.334,6.334,0,0,0-3.655,9.856l-5.894,6.86a1.53,1.53,0,1,0,2.321,1.994l5.9-6.869a6.3,6.3,0,0,0,2.856.706,6.365,6.365,0,0,0,1.531-12.547Zm-1.531,9.485a3.315,3.315,0,1,1,3.315-3.315A3.32,3.32,0,0,1,61.341,66.357Z" style="fill:#231f20"/><path d="M35.829,61.511H29.707a1.531,1.531,0,1,0,0,3.061h6.123a1.531,1.531,0,0,0,0-3.061Z" style="fill:#231f20"/><path d="M61.341,39.063a1.53,1.53,0,0,0,1.531-1.531V31.409a1.531,1.531,0,1,0-3.061,0v6.123A1.53,1.53,0,0,0,61.341,39.063Z" style="fill:#231f20"/><path d="M86.851,64.573h6.123a1.531,1.531,0,1,0,0-3.061H86.851a1.531,1.531,0,1,0,0,3.061Z" style="fill:#231f20"/><path d="M61.341,87.021a1.53,1.53,0,0,0-1.531,1.531v6.123a1.531,1.531,0,1,0,3.061,0V88.552A1.53,1.53,0,0,0,61.341,87.021Z" style="fill:#231f20"/><path d="M83.329,90.761l1.1-.918C86.156,88.3,87.606,86.7,87.606,84.7c0-2.166-1.486-3.744-4.185-3.744a6.611,6.611,0,0,0-3.91,1.23l.789,2a4.322,4.322,0,0,1,2.552-.993c1.378,0,1.966.771,1.966,1.745-.037,1.394-1.3,2.735-3.91,5.067L79.363,91.4v1.689h8.463V90.8h-4.5Z" style="fill:#231f20"/><path d="M97.139,88.154V81.16H93.725l-4.516,7.271v1.816H94.5v2.846h2.643V90.247h1.432V88.154ZM94.5,85.511v2.643h-2.68v-.036l1.6-2.607c.4-.753.716-1.45,1.1-2.221h.073C94.532,84.062,94.5,84.8,94.5,85.511Z" style="fill:#231f20"/></svg>