<svg id="Layer_3" data-name="Layer 3" xmlns="http://www.w3.org/2000/svg" viewBox="0 0 128 128"><title>Artboard 107</title><path d="M33.538,85.5V98.069c0,2.7,3.444,4.912,7.653,4.912H86.809a7.676,7.676,0,0,0,7.653-7.653V32.672a7.676,7.676,0,0,0-7.653-7.653H41.191a7.676,7.676,0,0,0-7.653,7.653V85.5Z" style="fill:#f0e9e0"/><path d="M39.469,98.069v-65.4a7.676,7.676,0,0,1,7.653-7.653H41.191a7.676,7.676,0,0,0-7.653,7.653v65.4c0,2.7,3.444,4.912,7.653,4.912h5.931C42.913,102.981,39.469,100.77,39.469,98.069Z" style="fill:#f7f7f7"/><rect x="78.208" y="73.617" width="10.141" height="10.141" style="fill:#ff4948"/><path d="M73.138,43.387H42.525a1.531,1.531,0,1,0,0,3.061H73.138a1.531,1.531,0,1,0,0-3.061Z" style="fill:#231f20"/><path d="M78.686,46.448H87.87a1.531,1.531,0,0,0,0-3.061H78.686a1.531,1.531,0,0,0,0,3.061Z" style="fill:#231f20"/><path d="M78.686,55.989H87.87a1.531,1.531,0,0,0,0-3.061H78.686a1.531,1.531,0,0,0,0,3.061Z" style="fill:#231f20"/><path d="M78.686,65.531H87.87a1.531,1.531,0,0,0,0-3.061H78.686a1.531,1.531,0,0,0,0,3.061Z" style="fill:#231f20"/><path d="M73.138,52.928H42.525a1.531,1.531,0,1,0,0,3.061H73.138a1.531,1.531,0,1,0,0-3.061Z" style="fill:#231f20"/><path d="M73.138,62.469H42.525a1.531,1.531,0,1,0,0,3.061H73.138a1.531,1.531,0,1,0,0-3.061Z" style="fill:#231f20"/><path d="M88.348,72.087H78.208a1.53,1.53,0,0,0-1.531,1.531V83.758a1.53,1.53,0,0,0,1.531,1.531H88.348a1.53,1.53,0,0,0,1.531-1.531V73.617A1.53,1.53,0,0,0,88.348,72.087ZM86.818,82.227H79.739V75.148h7.079Z" style="fill:#231f20"/><path d="M95.993,31.795a1.519,1.519,0,0,0-.132-.614,9.19,9.19,0,0,0-9.052-7.692H41.191a9.19,9.19,0,0,0-9.052,7.693,1.517,1.517,0,0,0-.132.614,1.43,1.43,0,0,0,.036.176c-.018.232-.036.465-.036.7v65.4c0,3.613,4.034,6.442,9.184,6.442H86.809a9.2,9.2,0,0,0,9.138-8.282A1.447,1.447,0,0,0,95.993,96c0-.048-.023-.089-.027-.136.011-.18.027-.358.027-.54V32.672c0-.237-.018-.469-.035-.7A1.431,1.431,0,0,0,95.993,31.795ZM35.069,94.473V33.326H92.931V94.473ZM41.191,26.55H86.809a6.129,6.129,0,0,1,5.626,3.714H35.565A6.129,6.129,0,0,1,41.191,26.55Zm45.618,74.9H41.191c-3.608,0-6.123-1.782-6.123-3.381v-.535H92.5A6.119,6.119,0,0,1,86.809,101.45Z" style="fill:#231f20"/></svg>