<svg id="Layer_3" data-name="Layer 3" xmlns="http://www.w3.org/2000/svg" viewBox="0 0 128 128"><title>Artboard 103</title><path d="M71.737,80.756,89.372,98.395a6.378,6.378,0,0,0,9.019,0h0a6.376,6.376,0,0,0,0-9.02L80.757,71.737Z" style="fill:#f8b72b"/><circle cx="56.452" cy="56.454" r="28.713" style="fill:#01a9bb"/><circle cx="56.452" cy="56.454" r="18.545" style="fill:#f0e9e0"/><path d="M94.634,98.395,77,80.756l6.388-6.389-2.63-2.631-9.02,9.02L89.372,98.395a6.364,6.364,0,0,0,7.141,1.279A6.324,6.324,0,0,1,94.634,98.395Z" style="fill:#f7c869"/><path d="M33,56.454a28.706,28.706,0,0,1,26.081-28.58c-.868-.079-1.743-.133-2.631-.133a28.712,28.712,0,0,0,0,57.425c.888,0,1.763-.054,2.631-.133A28.706,28.706,0,0,1,33,56.454Z" style="fill:#27bdc1"/><path d="M43.169,56.454A18.533,18.533,0,0,1,59.082,38.116a18.545,18.545,0,1,0,0,36.674A18.532,18.532,0,0,1,43.169,56.454Z" style="fill:#f7f7f7"/><path d="M99.474,88.293,82.663,71.479A30.334,30.334,0,1,0,71.479,82.663L88.29,99.477A7.908,7.908,0,1,0,99.474,88.293ZM29.27,56.454A27.183,27.183,0,1,1,56.451,83.635,27.213,27.213,0,0,1,29.27,56.454ZM80.96,74.1,94.474,87.621l-6.952,6.759L74.1,80.96A30.454,30.454,0,0,0,80.96,74.1ZM97.31,97.312a4.964,4.964,0,0,1-6.855,0l-.768-.768,6.952-6.759.671.671a4.847,4.847,0,0,1,0,6.855Z" style="fill:#231f20"/><path d="M56.451,36.378A20.076,20.076,0,1,0,76.529,56.454,20.1,20.1,0,0,0,56.451,36.378Zm0,37.09A17.014,17.014,0,1,1,73.468,56.454,17.033,17.033,0,0,1,56.451,73.468Z" style="fill:#231f20"/></svg>