<svg xmlns="http://www.w3.org/2000/svg" data-name="Layer 3" viewBox="0 0 128 128"><path fill="#f8b72b" d="M94.378 61.282a9.927 9.927 0 0 0-5.891-18.961l-3.212-10.342-59.637 18.529z"/><path fill="#f7c869" d="m40.753 50.508 45.852-14.246-1.33-4.283-59.637 18.529 68.74 10.774a9.9 9.9 0 0 0 3.388-1.838z"/><path fill="#01a9bb" d="M91.839 62.347v-11.48h-66.2v12.054a10.523 10.523 0 1 1 0 21.047v12.053h66.2V83.393a10.523 10.523 0 0 0 0-21.046z"/><path fill="#27bdc1" d="M41.805 73.444a10.523 10.523 0 0 0-10.523-10.523V50.867h-5.644v12.054a10.523 10.523 0 0 1 0 21.047v12.053h5.644V83.967a10.523 10.523 0 0 0 10.523-10.523z"/><path fill="#231f20" d="M96.823 61.906a11.456 11.456 0 0 0-7.3-21.4l-2.788-8.976a1.531 1.531 0 0 0-1.916-1.008L25.184 49.046a1.51 1.51 0 0 0-1.037 1.627 1.439 1.439 0 0 0-.039.194v12.054a1.531 1.531 0 0 0 1.531 1.531 8.993 8.993 0 0 1 0 17.985 1.531 1.531 0 0 0-1.531 1.531v12.053a1.531 1.531 0 0 0 1.531 1.531h66.2a1.531 1.531 0 0 0 1.531-1.531V84.827a12.047 12.047 0 0 0 3.453-22.921zM27.169 52.4h63.139v1.656H27.169zm59.857-9.622a1.531 1.531 0 0 0 1.916 1.008 8.4 8.4 0 0 1 4.982 16.034 1.515 1.515 0 0 0-.555.319v-9.272a1.531 1.531 0 0 0-1.531-1.531H34.57l49.7-15.441zM27.169 94.49v-1.913h63.139v1.913zm64.67-12.628a1.531 1.531 0 0 0-1.531 1.531v6.123H27.169V85.4a12.055 12.055 0 0 0 0-23.915v-4.37h63.139v5.232a1.531 1.531 0 0 0 1.531 1.531 8.993 8.993 0 0 1 0 17.985z"/><path fill="#231f20" d="M59.822 66.045a5.995 5.995 0 1 0-5.994 5.994 6 6 0 0 0 5.994-5.994zm-8.928 0a2.934 2.934 0 1 1 2.934 2.933 2.937 2.937 0 0 1-2.934-2.933zM70.984 75.229a5.867 5.867 0 1 0 5.867 5.871 5.875 5.875 0 0 0-5.867-5.871zm0 8.673a2.806 2.806 0 1 1 2.806-2.8 2.809 2.809 0 0 1-2.806 2.798zM71.5 57.824a1.53 1.53 0 0 0-2.085.58L53.851 85.956a1.53 1.53 0 1 0 2.665 1.505l15.56-27.552a1.53 1.53 0 0 0-.576-2.085z"/></svg>