<svg xmlns="http://www.w3.org/2000/svg" data-name="Layer 3" viewBox="0 0 128 128"><path fill="#f8b72b" d="M96.142 94.826a7.008 7.008 0 0 1-7.078 7.632H38.935a7.007 7.007 0 0 1-7.078-7.632l3.443-45.58a8.408 8.408 0 0 1 8.229-7.632h40.943a8.408 8.408 0 0 1 8.228 7.632z"/><path fill="#f7c869" d="M38.554 94.826 42 49.246a8.407 8.407 0 0 1 8.229-7.632h-6.7a8.408 8.408 0 0 0-8.229 7.632l-3.441 45.58a7.007 7.007 0 0 0 7.078 7.632h6.7a7.008 7.008 0 0 1-7.083-7.632z"/><path fill="#231f20" d="m97.668 94.711-3.441-45.58a9.948 9.948 0 0 0-9.755-9.047h-2.947a17.591 17.591 0 0 0-35.05 0h-2.948a9.948 9.948 0 0 0-9.755 9.047l-3.441 45.58a8.537 8.537 0 0 0 8.6 9.277h50.133a8.537 8.537 0 0 0 8.6-9.277zM64 27.073a14.561 14.561 0 0 1 14.459 13.011H49.541A14.561 14.561 0 0 1 64 27.073zM36.825 49.361a6.836 6.836 0 0 1 6.7-6.216H46.4v4.764a3.955 3.955 0 1 0 3.061 0v-4.764h29.08v4.765a3.955 3.955 0 1 0 3.061 0v-4.765h2.87a6.836 6.836 0 0 1 6.7 6.216L94.25 90.1h-60.5zm56.353 49.814a5.535 5.535 0 0 1-4.114 1.752H38.935a5.478 5.478 0 0 1-5.552-5.986l.134-1.78h60.965l.134 1.78a5.533 5.533 0 0 1-1.438 4.234z"/></svg>