<svg id="Layer_3" data-name="Layer 3" xmlns="http://www.w3.org/2000/svg" viewBox="0 0 128 128"><title>Artboard 101</title><path d="M28.128,70.464l-4.381,4.381a6.384,6.384,0,0,0,.23,8.993l23.52,23.52a6.385,6.385,0,0,0,8.993.232l4.383-4.382L86.006,78.074l5.535-24.443-14.3-14.3L53.493,45.1Z" style="fill:#f8b72b"/><path d="M56.171,107.358l-23.52-23.52a6.383,6.383,0,0,1-.23-8.992L36.8,70.464l26.98-26.98,14.107-3.505-.645-.645L53.493,45.1,28.128,70.464l-4.381,4.381a6.383,6.383,0,0,0,.23,8.992l23.52,23.52a6.385,6.385,0,0,0,8.974.247C56.374,107.518,56.265,107.452,56.171,107.358Z" style="fill:#f7c869"/><path d="M55.5,58.621a1.53,1.53,0,0,0-2.165,2.164L70.55,78a1.53,1.53,0,1,0,2.164-2.164Z" style="fill:#231f20"/><path d="M50.578,63.54A1.53,1.53,0,1,0,48.414,65.7L65.632,82.921A1.53,1.53,0,1,0,67.8,80.757Z" style="fill:#231f20"/><path d="M98.974,27.7c-7.194-7.908-16.487-11.81-24.265-10.2-5.386,1.12-9.422,4.878-11.366,10.584-1.369,4.021-.922,8.6.311,12.976L53.132,43.612a1.527,1.527,0,0,0-.721.4L22.665,73.763a7.518,7.518,0,0,0-2.188,5.57A8.173,8.173,0,0,0,22.9,84.92l23.52,23.52a8.146,8.146,0,0,0,5.791,2.421,7.525,7.525,0,0,0,5.366-2.189L87.088,79.156a1.525,1.525,0,0,0,.41-.744l1.654-7.3c11.874-3.981,16.143-11.16,17.606-16.553C109.082,45.991,106.026,35.448,98.974,27.7ZM48.58,106.276,25.059,82.755a5.116,5.116,0,0,1-1.522-3.5,4.487,4.487,0,0,1,1.292-3.328l2.146-2.147,30.578,30.58-2.146,2.146A5,5,0,0,1,48.58,106.276ZM84.611,77.3,59.719,102.2,29.14,71.617,54.272,46.485,64.6,43.98a62.519,62.519,0,0,0,5.461,11.093,4.452,4.452,0,1,0,2.567-1.7A61.418,61.418,0,0,1,67.6,43.251l9.174-2.227L89.862,54.116ZM103.8,53.755c-1.675,6.172-6.446,10.906-13.85,13.814l3.08-13.6a1.529,1.529,0,0,0-.41-1.42l-14.3-14.3a1.527,1.527,0,0,0-1.443-.4l-10.258,2.49c-1.118-3.883-1.538-7.877-.383-11.269,1.6-4.706,4.746-7.67,9.09-8.573,6.621-1.376,15.01,2.262,21.378,9.262S105.86,46.174,103.8,53.755Z" style="fill:#231f20"/></svg>