<svg xmlns="http://www.w3.org/2000/svg" data-name="Layer 3" viewBox="0 0 128 128"><path fill="#f0e9e0" d="M96.268 74.458a36.715 36.715 0 1 0-19.007 21.7s15.927-10.27 20.463-21.226z"/><path fill="#f7f7f7" d="M30.441 63.042a36.731 36.731 0 0 1 33.818-36.61 37.064 37.064 0 0 0-2.918-.126 36.736 36.736 0 0 0 0 73.471c.978 0 1.944-.052 2.9-.127a36.731 36.731 0 0 1-33.8-36.608z"/><circle cx="88.727" cy="87.026" r="14.668" fill="#f8b72b"/><path fill="#f7c869" d="M78.587 87.026a14.658 14.658 0 0 1 12.4-14.476 14.669 14.669 0 1 0 0 28.952 14.657 14.657 0 0 1-12.4-14.476z"/><path fill="#231f20" d="M98.045 73.8a38.252 38.252 0 1 0-21.186 24.215A16.18 16.18 0 1 0 98.045 73.8zm-36.7 24.45a35.277 35.277 0 1 1 33.966-26.01 16.168 16.168 0 0 0-20.355 23.274 34.881 34.881 0 0 1-13.615 2.733zm27.386 1.916a13.138 13.138 0 1 1 13.138-13.138 13.153 13.153 0 0 1-13.142 13.135z"/><path fill="#231f20" d="M62.871 56.872V42.38a1.531 1.531 0 1 0-3.061 0v14.492a6.334 6.334 0 0 0-3.655 9.856l-5.894 6.86a1.53 1.53 0 1 0 2.321 1.994l5.9-6.869a6.3 6.3 0 0 0 2.856.706 6.365 6.365 0 0 0 1.531-12.547zm-1.531 9.485a3.315 3.315 0 1 1 3.315-3.315 3.32 3.32 0 0 1-3.314 3.315zM35.829 61.511h-6.122a1.531 1.531 0 1 0 0 3.061h6.123a1.531 1.531 0 0 0 0-3.061zM61.341 39.063a1.53 1.53 0 0 0 1.531-1.531v-6.123a1.531 1.531 0 1 0-3.061 0v6.123a1.53 1.53 0 0 0 1.53 1.531zM86.851 64.573h6.123a1.531 1.531 0 1 0 0-3.061h-6.123a1.531 1.531 0 1 0 0 3.061zM61.341 87.021a1.53 1.53 0 0 0-1.531 1.531v6.123a1.531 1.531 0 1 0 3.061 0v-6.123a1.53 1.53 0 0 0-1.53-1.531zM83.329 90.761l1.1-.918c1.727-1.543 3.177-3.143 3.177-5.143 0-2.166-1.486-3.744-4.185-3.744a6.611 6.611 0 0 0-3.91 1.23l.789 2a4.322 4.322 0 0 1 2.552-.993c1.378 0 1.966.771 1.966 1.745-.037 1.394-1.3 2.735-3.91 5.067L79.363 91.4v1.689h8.463V90.8h-4.5zM97.139 88.154V81.16h-3.414l-4.516 7.271v1.816H94.5v2.846h2.643v-2.846h1.432v-2.093zM94.5 85.511v2.643h-2.68v-.036l1.6-2.607c.4-.753.716-1.45 1.1-2.221h.073c-.061.772-.093 1.51-.093 2.221z"/></svg>