<svg xmlns="http://www.w3.org/2000/svg" data-name="Layer 3" viewBox="0 0 128 128"><path fill="#01a9bb" d="m89.664 90.139 7.036 7.038a2.543 2.543 0 0 1 0 3.6 2.546 2.546 0 0 1-3.6 0l-7.037-7.039z"/><path fill="#f0e9e0" d="M91.425 83.788h4.62c2.541 0 4.62-3.444 4.62-7.653v-42a7.676 7.676 0 0 0-7.653-7.653H34.988a7.676 7.676 0 0 0-7.653 7.653v42a7.676 7.676 0 0 0 7.653 7.653h56.437z"/><path fill="#f7f7f7" d="M34.088 76.135v-42a7.676 7.676 0 0 1 7.653-7.653h-6.753a7.676 7.676 0 0 0-7.653 7.653v42a7.676 7.676 0 0 0 7.653 7.653h6.753a7.676 7.676 0 0 1-7.653-7.653z"/><circle cx="79.968" cy="84.041" r="11.456" fill="#01a9bb"/><path fill="#27bdc1" d="M71.381 84.041A11.45 11.45 0 0 1 81.4 72.684a11.456 11.456 0 1 0 0 22.713 11.451 11.451 0 0 1-10.019-11.356z"/><circle cx="79.968" cy="84.04" r="6.679" fill="#f0e9e0"/><path fill="#f7f7f7" d="M75.49 84.041a6.663 6.663 0 0 1 5.579-6.568 6.68 6.68 0 1 0 0 13.135 6.663 6.663 0 0 1-5.579-6.567z"/><path fill="#231f20" d="M93.012 24.95H34.988a9.194 9.194 0 0 0-9.188 9.184v42a9.194 9.194 0 0 0 9.184 9.184h32.061a12.958 12.958 0 0 0 18.75 10.312l6.226 6.228a4.075 4.075 0 1 0 5.763-5.764l-6.226-6.226a12.865 12.865 0 0 0 1.333-4.55h3.154c3.449 0 6.151-4.035 6.151-9.184v-42a9.194 9.194 0 0 0-9.184-9.184zm-22.97 59.09a9.926 9.926 0 1 1 9.925 9.925 9.937 9.937 0 0 1-9.925-9.924zm25.577 14.219a1.014 1.014 0 0 1-1.434 1.435L88.4 93.9a13.094 13.094 0 0 0 1.434-1.433zm3.516-22.124c0 3.5-1.632 6.123-3.09 6.123h-3.227a12.971 12.971 0 0 0-25.7 0h-32.13a6.129 6.129 0 0 1-6.123-6.123v-42a6.129 6.129 0 0 1 6.123-6.123h58.024a6.129 6.129 0 0 1 6.123 6.123z"/><path fill="#231f20" d="M39.149 34.728a1.53 1.53 0 0 0-1.531 1.531v33.678a1.531 1.531 0 1 0 3.061 0V36.258a1.53 1.53 0 0 0-1.53-1.53zM88.851 34.728a1.53 1.53 0 0 0-1.531 1.531v33.678a1.531 1.531 0 0 0 3.061 0V36.258a1.53 1.53 0 0 0-1.53-1.53zM64 34.728a1.53 1.53 0 0 0-1.531 1.531v33.678a1.531 1.531 0 0 0 3.061 0V36.258a1.53 1.53 0 0 0-1.53-1.53zM47.433 35.408a1.53 1.53 0 0 0-1.533 1.531V66a1.531 1.531 0 0 0 3.061 0V36.939a1.53 1.53 0 0 0-1.528-1.531zM55.716 35.408a1.53 1.53 0 0 0-1.531 1.531V66a1.531 1.531 0 0 0 3.061 0V36.939a1.53 1.53 0 0 0-1.53-1.531zM72.284 35.408a1.53 1.53 0 0 0-1.531 1.531V66a1.531 1.531 0 0 0 3.061 0V36.939a1.53 1.53 0 0 0-1.53-1.531zM80.567 35.408a1.53 1.53 0 0 0-1.531 1.531V66a1.531 1.531 0 0 0 3.064 0V36.939a1.53 1.53 0 0 0-1.533-1.531zM79.968 76.468a7.573 7.573 0 1 0 7.572 7.572 7.581 7.581 0 0 0-7.572-7.572zm0 13.36a5.788 5.788 0 1 1 5.787-5.788 5.793 5.793 0 0 1-5.787 5.788z"/></svg>