<svg id="Layer_3" data-name="Layer 3" xmlns="http://www.w3.org/2000/svg" viewBox="0 0 128 128"><title>Artboard 102</title><path d="M94.378,61.282a9.927,9.927,0,0,0-5.891-18.961L85.275,31.979,25.638,50.508Z" style="fill:#f8b72b"/><path d="M40.753,50.508,86.605,36.262l-1.33-4.283L25.638,50.508l68.74,10.774a9.9,9.9,0,0,0,3.388-1.838Z" style="fill:#f7c869"/><path d="M91.839,62.347V50.867h-66.2V62.921a10.523,10.523,0,1,1,0,21.047V96.021h66.2V83.393a10.523,10.523,0,0,0,0-21.046Z" style="fill:#01a9bb"/><path d="M41.805,73.444A10.523,10.523,0,0,0,31.282,62.921V50.867H25.638V62.921a10.523,10.523,0,0,1,0,21.047V96.021h5.644V83.967A10.523,10.523,0,0,0,41.805,73.444Z" style="fill:#27bdc1"/><path d="M96.823,61.906a11.456,11.456,0,0,0-7.3-21.4l-2.788-8.976a1.531,1.531,0,0,0-1.916-1.008L25.184,49.046a1.51,1.51,0,0,0-1.037,1.627,1.439,1.439,0,0,0-.039.194V62.921a1.531,1.531,0,0,0,1.531,1.531,8.993,8.993,0,0,1,0,17.985,1.531,1.531,0,0,0-1.531,1.531V96.021a1.531,1.531,0,0,0,1.531,1.531h66.2a1.531,1.531,0,0,0,1.531-1.531V84.827a12.047,12.047,0,0,0,3.453-22.921ZM27.169,52.4H90.308v1.656H27.169Zm59.857-9.622a1.531,1.531,0,0,0,1.916,1.008A8.4,8.4,0,0,1,93.924,59.82a1.515,1.515,0,0,0-.555.319V50.867a1.531,1.531,0,0,0-1.531-1.531H34.57l49.7-15.441ZM27.169,94.49V92.577H90.308V94.49Zm64.67-12.628a1.531,1.531,0,0,0-1.531,1.531v6.123H27.169V85.4a12.055,12.055,0,0,0,0-23.915V57.115H90.308v5.232a1.531,1.531,0,0,0,1.531,1.531,8.993,8.993,0,0,1,0,17.985Z" style="fill:#231f20"/><path d="M59.822,66.045a5.995,5.995,0,1,0-5.994,5.994A6,6,0,0,0,59.822,66.045Zm-8.928,0a2.934,2.934,0,1,1,2.934,2.933A2.937,2.937,0,0,1,50.894,66.045Z" style="fill:#231f20"/><path d="M70.984,75.229A5.867,5.867,0,1,0,76.851,81.1,5.875,5.875,0,0,0,70.984,75.229Zm0,8.673a2.806,2.806,0,1,1,2.806-2.8A2.809,2.809,0,0,1,70.984,83.9Z" style="fill:#231f20"/><path d="M71.5,57.824a1.53,1.53,0,0,0-2.085.58L53.851,85.956a1.53,1.53,0,1,0,2.665,1.505l15.56-27.552A1.53,1.53,0,0,0,71.5,57.824Z" style="fill:#231f20"/></svg>