<svg xmlns="http://www.w3.org/2000/svg" data-name="Layer 3" viewBox="0 0 128 128"><path fill="#f8b72b" d="M71.737 80.756l17.635 17.639a6.378 6.378 0 009.019 0 6.376 6.376 0 000-9.02L80.757 71.737z"/><circle cx="56.452" cy="56.454" r="28.713" fill="#01a9bb"/><circle cx="56.452" cy="56.454" r="18.545" fill="#f0e9e0"/><path fill="#f7c869" d="M94.634 98.395L77 80.756l6.388-6.389-2.63-2.631-9.02 9.02 17.634 17.639a6.364 6.364 0 007.141 1.279 6.324 6.324 0 01-1.879-1.279z"/><path fill="#27bdc1" d="M33 56.454a28.706 28.706 0 0126.081-28.58 28.963 28.963 0 00-2.631-.133 28.712 28.712 0 000 57.425c.888 0 1.763-.054 2.631-.133A28.706 28.706 0 0133 56.454z"/><path fill="#f7f7f7" d="M43.169 56.454a18.533 18.533 0 0115.913-18.338 18.545 18.545 0 100 36.674 18.532 18.532 0 01-15.913-18.336z"/><path fill="#231f20" d="M99.474 88.293L82.663 71.479a30.334 30.334 0 10-11.184 11.184L88.29 99.477a7.908 7.908 0 1011.184-11.184zM29.27 56.454a27.183 27.183 0 1127.181 27.181A27.213 27.213 0 0129.27 56.454zM80.96 74.1l13.514 13.521-6.952 6.759L74.1 80.96a30.454 30.454 0 006.86-6.86zm16.35 23.212a4.964 4.964 0 01-6.855 0l-.768-.768 6.952-6.759.671.671a4.847 4.847 0 010 6.855z"/><path fill="#231f20" d="M56.451 36.378a20.076 20.076 0 1020.078 20.076 20.1 20.1 0 00-20.078-20.076zm0 37.09a17.014 17.014 0 1117.017-17.014 17.033 17.033 0 01-17.017 17.014z"/></svg>