<svg id="Layer_3" data-name="Layer 3" xmlns="http://www.w3.org/2000/svg" viewBox="0 0 128 128"><title>Artboard 104</title><rect x="54.119" y="40.354" width="42.254" height="39.403" transform="translate(-12.395 20.21) rotate(-14.146)" style="fill:#f8b72b"/><rect x="54.658" y="44.705" width="6.64" height="39.403" transform="translate(-13.991 16.136) rotate(-14.156)" style="fill:#f7c869"/><circle cx="52.102" cy="96.741" r="3.605" transform="translate(-45.874 146.483) rotate(-88.611)" style="fill:#231f20"/><path d="M109.2,82.073a1.538,1.538,0,0,0-1.864-1.1L60.715,92.948a9.427,9.427,0,0,0-8.384-5.627l-.233,0c-.262,0-.519.018-.776.039L35.228,23.321a1.529,1.529,0,0,0-1.447-1.157l-13.459-.327h-.037a1.531,1.531,0,0,0-.037,3.061l12.3.3L48.356,88.112a9.482,9.482,0,0,0-5.673,8.4,9.416,9.416,0,0,0,9.188,9.65l.236,0a9.368,9.368,0,0,0,9.416-9.194,9.464,9.464,0,0,0-.038-1.058L108.1,83.937A1.531,1.531,0,0,0,109.2,82.073ZM52.107,103.1h-.161a6.353,6.353,0,0,1-6.2-6.514A6.4,6.4,0,0,1,52.1,90.379l.158,0a6.362,6.362,0,0,1-.15,12.722Z" style="fill:#231f20"/><path d="M58.089,84.7a1.53,1.53,0,0,0,1.858,1.111l40.972-10.326a1.53,1.53,0,0,0,1.111-1.858l-7.725-30.66v-.009l0-.008-1.9-7.531A1.531,1.531,0,0,0,90.545,34.3L49.571,44.629a1.532,1.532,0,0,0-1.111,1.858Zm2.6-2.232L53.7,54.766l38.005-9.578,6.979,27.7ZM89.809,37.647l1.152,4.572L52.955,51.8,51.8,47.224Z" style="fill:#231f20"/></svg>