<svg xmlns="http://www.w3.org/2000/svg" data-name="Layer 3" viewBox="0 0 128 128"><path fill="#f8b72b" d="M30.517 46.78 39.701 29.943 89.83 29.943 97.483 46.78 97.483 98.057 30.517 98.057 30.517 46.78z"/><path fill="#f7c869" d="M47.47 29.943 39.701 29.943 30.517 46.78 30.517 98.057 38.286 98.057 38.286 46.78 47.47 29.943z"/><path fill="#231f20" d="M98.88 46.164v-.017l-7.657-16.838a1.53 1.53 0 0 0-1.393-.9H39.7a1.53 1.53 0 0 0-1.344.8l-9.183 16.839c-.016.028-.022.061-.035.09s-.03.075-.045.114a1.521 1.521 0 0 0-.107.528v51.277a1.53 1.53 0 0 0 1.531 1.531h66.966a1.53 1.53 0 0 0 1.531-1.531V46.78a1.518 1.518 0 0 0-.134-.616zm-62.863-6.272h26.452v5.358H33.1zm29.513 0h27.14l2.435 5.357H65.531zm25.749-3.061H65.531v-5.357h23.314zM40.61 31.474h21.86v5.357H37.687zm-8.562 16.837h30.421v48.215H32.048zm33.483 48.215V48.311h30.421v48.215z"/><path fill="#231f20" d="M82.4 57.719a1.534 1.534 0 0 0-1.157-.574 1.557 1.557 0 0 0-1.185.516l-7.908 8.93a1.531 1.531 0 0 0 2.293 2.03l5.23-5.907v13.755a1.531 1.531 0 0 0 3.061 0V63.041l4.416 5.521a1.531 1.531 0 1 0 2.392-1.913z"/></svg>