<svg xmlns="http://www.w3.org/2000/svg" data-name="Layer 3" viewBox="0 0 128 128"><path fill="#f8b72b" d="m28.128 70.464-4.381 4.381a6.384 6.384 0 0 0 .23 8.993l23.52 23.52a6.385 6.385 0 0 0 8.993.232l4.383-4.382 25.133-25.134 5.535-24.443-14.3-14.3L53.493 45.1z"/><path fill="#f7c869" d="m56.171 107.358-23.52-23.52a6.383 6.383 0 0 1-.23-8.992l4.379-4.382 26.98-26.98 14.107-3.505-.645-.645L53.493 45.1 28.128 70.464l-4.381 4.381a6.383 6.383 0 0 0 .23 8.992l23.52 23.52a6.385 6.385 0 0 0 8.974.247c-.097-.086-.206-.152-.3-.246z"/><path fill="#231f20" d="M55.5 58.621a1.53 1.53 0 0 0-2.165 2.164L70.55 78a1.53 1.53 0 1 0 2.164-2.164zM50.578 63.54a1.53 1.53 0 1 0-2.164 2.16l17.218 17.221a1.53 1.53 0 1 0 2.168-2.164z"/><path fill="#231f20" d="M98.974 27.7c-7.194-7.908-16.487-11.81-24.265-10.2-5.386 1.12-9.422 4.878-11.366 10.584-1.369 4.021-.922 8.6.311 12.976l-10.522 2.552a1.527 1.527 0 0 0-.721.4L22.665 73.763a7.518 7.518 0 0 0-2.188 5.57A8.173 8.173 0 0 0 22.9 84.92l23.52 23.52a8.146 8.146 0 0 0 5.791 2.421 7.525 7.525 0 0 0 5.366-2.189l29.511-29.516a1.525 1.525 0 0 0 .41-.744l1.654-7.3c11.874-3.981 16.143-11.16 17.606-16.553 2.324-8.568-.732-19.111-7.784-26.859zM48.58 106.276 25.059 82.755a5.116 5.116 0 0 1-1.522-3.5 4.487 4.487 0 0 1 1.292-3.328l2.146-2.147 30.578 30.58-2.146 2.146a5 5 0 0 1-6.827-.23zM84.611 77.3l-24.892 24.9L29.14 71.617l25.132-25.132L64.6 43.98a62.519 62.519 0 0 0 5.461 11.093 4.452 4.452 0 1 0 2.567-1.7A61.418 61.418 0 0 1 67.6 43.251l9.174-2.227 13.088 13.092zM103.8 53.755c-1.675 6.172-6.446 10.906-13.85 13.814l3.08-13.6a1.529 1.529 0 0 0-.41-1.42l-14.3-14.3a1.527 1.527 0 0 0-1.443-.4l-10.258 2.49c-1.118-3.883-1.538-7.877-.383-11.269 1.6-4.706 4.746-7.67 9.09-8.573 6.621-1.376 15.01 2.262 21.378 9.262s9.156 16.415 7.096 23.996z"/></svg>