<svg id="Layer_3" data-name="Layer 3" xmlns="http://www.w3.org/2000/svg" viewBox="0 0 128 128"><title>Artboard 100</title><path d="M95.891,62.558,93.464,88.336a8.6,8.6,0,0,1-8.371,7.62H42.9a8.6,8.6,0,0,1-8.371-7.62L32.109,62.558Z" style="fill:#ff4948"/><path d="M103.1,56.008a6.456,6.456,0,0,1-6.359,6.55H31.26a6.456,6.456,0,0,1-6.356-6.55h0a6.455,6.455,0,0,1,6.356-6.549H96.737a6.456,6.456,0,0,1,6.359,6.549Z" style="fill:#ff4948"/><path d="M40.4,88.336,37.976,62.558H32.109l2.424,25.778a8.6,8.6,0,0,0,8.371,7.62h5.867A8.6,8.6,0,0,1,40.4,88.336Z" style="fill:#ff6969"/><path d="M30.772,56.008a6.455,6.455,0,0,1,6.356-6.549H31.26a6.552,6.552,0,0,0,0,13.1h5.867A6.456,6.456,0,0,1,30.772,56.008Z" style="fill:#ff6969"/><path d="M104.627,56.008a8,8,0,0,0-7.889-8.079H84.908L74.852,31.254a1.531,1.531,0,0,0-2.622,1.582l9.1,15.093H46.671l9.1-15.093a1.531,1.531,0,0,0-2.622-1.582L43.1,47.928H31.26a8.069,8.069,0,0,0-.55,16.1l2.3,24.448A10.144,10.144,0,0,0,42.9,97.486H85.093a10.144,10.144,0,0,0,9.894-9.007l2.3-24.448A7.988,7.988,0,0,0,104.627,56.008ZM36.058,88.192l-2.267-24.1H41.51l2.381,30.337H42.9A7.11,7.11,0,0,1,36.058,88.192Zm47.388-24.1L81.067,94.425H74.429l2.143-30.337ZM71.362,94.425H65.529V64.088H73.5Zm-8.894,0h-5.8L54.522,64.088h7.945ZM51.455,64.088,53.6,94.425H46.962L44.581,64.088Zm40.486,24.1a7.113,7.113,0,0,1-6.848,6.233h-.954l2.379-30.337H94.21Zm4.8-27.165H31.26a5.023,5.023,0,0,1,0-10.037h9.989l-.5.822a1.531,1.531,0,0,0,2.622,1.581l1.45-2.4H83.178l1.45,2.4a1.531,1.531,0,1,0,2.622-1.581l-.5-.822h9.983a5.022,5.022,0,0,1,0,10.037Z" style="fill:#231f20"/></svg>