<svg id="Layer_3" data-name="Layer 3" xmlns="http://www.w3.org/2000/svg" viewBox="0 0 128 128"><title>Artboard 110</title><path d="M42.666,62.182V46.015s15.609,2.377,25.088-7.653c0,0,4.664,4.592,9.447,4.592h7.175S83.4,30.9,75.659,24.107s-19.4-6.332-26.774-2.1S37.6,35.163,37.6,40.541V62.948Z" style="fill:#f8b72b"/><path d="M42.2,60.556V40.541C42.2,35.163,46.117,26.23,53.493,22a24.4,24.4,0,0,1,9.786-2.99A25.118,25.118,0,0,0,48.885,22C41.509,26.23,37.6,35.163,37.6,40.541V62.948l4.608-.7Z" style="fill:#f7c869"/><path d="M45.888,85.174V73.785S38.521,68.2,38.521,62.756h4.56V45.505s15.966,1.764,25.256-7.526c0,0,3.956,5.74,15.626,5.74V62.948s-2.106,9.217-6.57,12.023v10.2L61.671,103.924Z" style="fill:#f0e9e0"/><path d="M83.963,62.661a9.152,9.152,0,1,0,0-18.3Z" style="fill:#01a9bb"/><path d="M36.695,44.359a9.152,9.152,0,0,0,0,18.3Z" style="fill:#01a9bb"/><path d="M87.634,45.129a9.111,9.111,0,0,0-3.671-.772v18.3a9.111,9.111,0,0,0,3.671-.771Z" style="fill:#27bdc1"/><path d="M31.214,53.51a9.149,9.149,0,0,1,5.481-8.38v-.771a9.152,9.152,0,1,0,0,18.3v-.772A9.151,9.151,0,0,1,31.214,53.51Z" style="fill:#27bdc1"/><rect x="55.518" y="76.309" width="10.077" height="4.879" rx="2.415" ry="2.415" style="fill:#01a9bb"/><path d="M99.3,89.659l-20.58-5.535v-8.1c1.622-1.441,6.024-5.868,6.659-11.833a11.263,11.263,0,0,0,.1-22.343,25,25,0,0,0-49.982,0,11.269,11.269,0,0,0,1.5,22.439c.048,0,.088-.023.135-.027a24.94,24.94,0,0,0,7.609,10.5,1.519,1.519,0,0,0-.113.561v8.854L26.915,89.643c-.136.031-13.65,3.223-13.65,19.328a1.531,1.531,0,0,0,3.061,0c0-13.6,10.8-16.235,11.372-16.371l17.923-5.537,14.865,18.089a1.53,1.53,0,0,0,2.365,0L77.745,87.032,98.612,92.64c.533.1,13.061,2.688,13.061,16.331a1.531,1.531,0,0,0,3.061,0C114.734,92.831,99.349,89.665,99.3,89.659ZM92.194,53.013a8.218,8.218,0,0,1-6.683,8.058V44.953A8.219,8.219,0,0,1,92.194,53.013ZM38.521,42.526a21.951,21.951,0,0,1,43.889-.789H78.417c-6.508,0-8.632-4.785-8.715-4.981a1.531,1.531,0,0,0-2.672-.288c-7.145,10.284-23.534,7.692-23.7,7.664a1.532,1.532,0,0,0-1.783,1.51V61.226H39.341a22.061,22.061,0,0,1-.819-5.925ZM28.779,53.013a8.218,8.218,0,0,1,6.682-8.06V55.3a25.167,25.167,0,0,0,.7,5.841A8.2,8.2,0,0,1,28.779,53.013Zm32.891,48.755L47.683,84.75V76.8a24.966,24.966,0,0,0,5.593,2.45A5.15,5.15,0,0,0,58.5,83.637h3.964a4.938,4.938,0,1,0,0-9.852H58.5a5.385,5.385,0,0,0-4.568,2.471,21.87,21.87,0,0,1-13.5-11.969h2.648a1.53,1.53,0,0,0,1.531-1.531V47.369c4.512.413,16.416.641,23.525-7.363A12.43,12.43,0,0,0,78.417,44.8H82.45V62.109a1.442,1.442,0,0,0,.041.205,1.489,1.489,0,0,0-.089.442c0,6.426-6.1,11.306-6.158,11.356a1.533,1.533,0,0,0-.585,1.2V84.75ZM56.3,78.539c.006-.022.021-.039.026-.061a1.39,1.39,0,0,0,.006-.144A2.168,2.168,0,0,1,58.5,76.846h3.964a1.894,1.894,0,1,1,0,3.73H58.5a2.07,2.07,0,0,1-2.224-1.862A1.582,1.582,0,0,1,56.3,78.539Z" style="fill:#231f20"/><path d="M111.673,108.971c0-13.643-12.528-16.227-13.061-16.331L77.745,87.032,62.852,105.151a1.53,1.53,0,0,1-2.365,0L45.622,87.063,27.7,92.6c-.574.136-11.372,2.774-11.372,16.371A1.53,1.53,0,0,1,14.8,110.5H113.2A1.53,1.53,0,0,1,111.673,108.971Z" style="fill:#01a9bb"/><path d="M21.206,108.971c0-13.6,10.8-16.235,11.372-16.371L46.61,88.265l-.988-1.2L27.7,92.6c-.574.136-11.372,2.774-11.372,16.371A1.53,1.53,0,0,1,14.8,110.5h4.879A1.53,1.53,0,0,0,21.206,108.971Z" style="fill:#27bdc1"/></svg>