<svg id="Layer_3" data-name="Layer 3" xmlns="http://www.w3.org/2000/svg" viewBox="0 0 128 128"><title>Artboard 105</title><path d="M89.664,90.139,96.7,97.177a2.543,2.543,0,0,1,0,3.6h0a2.546,2.546,0,0,1-3.6,0l-7.037-7.039Z" style="fill:#01a9bb"/><path d="M91.425,83.788h4.62c2.541,0,4.62-3.444,4.62-7.653v-42a7.676,7.676,0,0,0-7.653-7.653H34.988a7.676,7.676,0,0,0-7.653,7.653v42a7.676,7.676,0,0,0,7.653,7.653H91.425Z" style="fill:#f0e9e0"/><path d="M34.088,76.135v-42a7.676,7.676,0,0,1,7.653-7.653H34.988a7.676,7.676,0,0,0-7.653,7.653v42a7.676,7.676,0,0,0,7.653,7.653h6.753A7.676,7.676,0,0,1,34.088,76.135Z" style="fill:#f7f7f7"/><circle cx="79.968" cy="84.041" r="11.456" style="fill:#01a9bb"/><path d="M71.381,84.041A11.45,11.45,0,0,1,81.4,72.684a11.456,11.456,0,1,0,0,22.713A11.451,11.451,0,0,1,71.381,84.041Z" style="fill:#27bdc1"/><circle cx="79.968" cy="84.04" r="6.679" style="fill:#f0e9e0"/><path d="M75.49,84.041a6.663,6.663,0,0,1,5.579-6.568,6.68,6.68,0,1,0,0,13.135A6.663,6.663,0,0,1,75.49,84.041Z" style="fill:#f7f7f7"/><path d="M93.012,24.95H34.988A9.194,9.194,0,0,0,25.8,34.134v42a9.194,9.194,0,0,0,9.184,9.184H67.045A12.958,12.958,0,0,0,85.795,95.63l6.226,6.228a4.075,4.075,0,1,0,5.763-5.764l-6.226-6.226a12.865,12.865,0,0,0,1.333-4.55h3.154c3.449,0,6.151-4.035,6.151-9.184v-42A9.194,9.194,0,0,0,93.012,24.95Zm-22.97,59.09a9.926,9.926,0,1,1,9.925,9.925A9.937,9.937,0,0,1,70.042,84.041ZM95.619,98.259a1.014,1.014,0,0,1-1.434,1.435L88.4,93.9a13.094,13.094,0,0,0,1.434-1.433Zm3.516-22.124c0,3.5-1.632,6.123-3.09,6.123H92.818a12.971,12.971,0,0,0-25.7,0H34.988a6.129,6.129,0,0,1-6.123-6.123v-42a6.129,6.129,0,0,1,6.123-6.123H93.012a6.129,6.129,0,0,1,6.123,6.123Z" style="fill:#231f20"/><path d="M39.149,34.728a1.53,1.53,0,0,0-1.531,1.531V69.937a1.531,1.531,0,1,0,3.061,0V36.258A1.53,1.53,0,0,0,39.149,34.728Z" style="fill:#231f20"/><path d="M88.851,34.728a1.53,1.53,0,0,0-1.531,1.531V69.937a1.531,1.531,0,0,0,3.061,0V36.258A1.53,1.53,0,0,0,88.851,34.728Z" style="fill:#231f20"/><path d="M64,34.728a1.53,1.53,0,0,0-1.531,1.531V69.937a1.531,1.531,0,0,0,3.061,0V36.258A1.53,1.53,0,0,0,64,34.728Z" style="fill:#231f20"/><path d="M47.433,35.408A1.53,1.53,0,0,0,45.9,36.939V66a1.531,1.531,0,0,0,3.061,0V36.939A1.53,1.53,0,0,0,47.433,35.408Z" style="fill:#231f20"/><path d="M55.716,35.408a1.53,1.53,0,0,0-1.531,1.531V66a1.531,1.531,0,0,0,3.061,0V36.939A1.53,1.53,0,0,0,55.716,35.408Z" style="fill:#231f20"/><path d="M72.284,35.408a1.53,1.53,0,0,0-1.531,1.531V66a1.531,1.531,0,0,0,3.061,0V36.939A1.53,1.53,0,0,0,72.284,35.408Z" style="fill:#231f20"/><path d="M80.567,35.408a1.53,1.53,0,0,0-1.531,1.531V66A1.531,1.531,0,0,0,82.1,66V36.939A1.53,1.53,0,0,0,80.567,35.408Z" style="fill:#231f20"/><path d="M79.968,76.468a7.573,7.573,0,1,0,7.572,7.572A7.581,7.581,0,0,0,79.968,76.468Zm0,13.36a5.788,5.788,0,1,1,5.787-5.788A5.793,5.793,0,0,1,79.968,89.828Z" style="fill:#231f20"/></svg>