<svg id="Layer_3" data-name="Layer 3" xmlns="http://www.w3.org/2000/svg" viewBox="0 0 128 128"><title>Artboard 111</title><path d="M92.368,85.4h2.676a8.47,8.47,0,0,0,8.446-8.448v-35.9A8.473,8.473,0,0,0,95.043,32.6H32.959a8.475,8.475,0,0,0-8.448,8.451v35.9A8.472,8.472,0,0,0,32.959,85.4H92.368Z" style="fill:#01a9bb"/><path d="M30.161,76.951v-35.9A8.475,8.475,0,0,1,38.61,32.6h-5.65a8.475,8.475,0,0,0-8.448,8.452v35.9A8.472,8.472,0,0,0,32.959,85.4h5.65A8.472,8.472,0,0,1,30.161,76.951Z" style="fill:#27bdc1"/><rect x="69.002" y="74.84" width="23.366" height="20.556" style="fill:#f8b72b"/><rect x="69.002" y="74.84" width="4.367" height="20.556" style="fill:#f7c869"/><path d="M95.043,31.073H32.959a9.992,9.992,0,0,0-9.979,9.982v35.9a9.991,9.991,0,0,0,9.979,9.979H67.471V95.4A1.53,1.53,0,0,0,69,96.927H92.368A1.53,1.53,0,0,0,93.9,95.4V86.93h1.145a9.989,9.989,0,0,0,9.976-9.979v-35.9A9.991,9.991,0,0,0,95.043,31.073Zm-69,12.777h75.917v7.076H26.042Zm6.918-9.716H95.043a6.912,6.912,0,0,1,6.888,6.655H26.068A6.913,6.913,0,0,1,32.959,34.134ZM90.837,93.866H70.532V76.371H90.837ZM73.745,73.31a7.162,7.162,0,0,1,13.876,0Zm21.3,10.559H93.9V74.84a1.53,1.53,0,0,0-1.531-1.531h-1.6a10.249,10.249,0,0,0-20.177,0H69a1.53,1.53,0,0,0-1.531,1.531v9.028H32.959a6.925,6.925,0,0,1-6.918-6.918V53.988h75.917V76.951A6.924,6.924,0,0,1,95.043,83.869Z" style="fill:#231f20"/><path d="M43.518,75H31.692a1.531,1.531,0,0,0,0,3.061H43.518a1.531,1.531,0,1,0,0-3.061Z" style="fill:#231f20"/><path d="M64,75H52.176a1.531,1.531,0,1,0,0,3.061H64A1.531,1.531,0,1,0,64,75Z" style="fill:#231f20"/><path d="M80.682,78.909a1.53,1.53,0,0,0-1.531,1.531v8.236a1.531,1.531,0,0,0,3.061,0V80.44A1.53,1.53,0,0,0,80.682,78.909Z" style="fill:#231f20"/></svg>