<svg id="Layer_3" data-name="Layer 3" xmlns="http://www.w3.org/2000/svg" viewBox="0 0 128 128"><title>Artboard 97</title><rect x="32.836" y="58.433" width="62.785" height="40.358" style="fill:#f0e9e0"/><rect x="34.366" y="58.433" width="4.305" height="40.358" style="fill:#f7f7f7"/><path d="M102.1,52.782l1.623,6.061c-4.929,0-5.112,3.505-10.025,3.505-4.837,0-4.914-3.383-9.582-3.49v-.016L79.459,29.21h7.393a12.191,12.191,0,0,1,11.1,8.464Z" style="fill:#f8b72b"/><path d="M84.113,58.843v.016a1.291,1.291,0,0,0-.245-.016c-4.913,0-4.913,3.505-9.827,3.505s-4.913-3.505-9.827-3.505V29.21H79.459Z" style="fill:#ff4948"/><path d="M64.214,29.21V58.843c-4.9,0-4.9,3.505-9.812,3.505s-4.913-3.505-9.827-3.505L49.229,29.21Z" style="fill:#f8b72b"/><path d="M49.229,29.21,44.576,58.843c-4.913,0-4.913,3.505-9.811,3.505-4.914,0-5.572-3.505-10.485-3.505l2.082-5.924,5.051-15.368A12.987,12.987,0,0,1,42.938,29.21Z" style="fill:#ff4948"/><path d="M29.446,58.843l2.082-5.924,5.051-15.368A12.987,12.987,0,0,1,48.1,29.21H42.938a12.987,12.987,0,0,0-11.526,8.342L26.361,52.919,24.28,58.843c4.913,0,5.571,3.505,10.485,3.505a7.345,7.345,0,0,0,2.54-.411C34.62,61.776,31.623,61.457,29.446,58.843Z" style="fill:#ff6969"/><path d="M105.2,58.447,99.427,37.271a13.77,13.77,0,0,0-12.574-9.592H42.938a14.6,14.6,0,0,0-12.981,9.395l-5.04,15.338-2.082,5.924a1.531,1.531,0,0,0,1.444,2.038,7.339,7.339,0,0,1,4.427,1.517,14.39,14.39,0,0,0,2.6,1.378v37.052H97.152V63.246a12.468,12.468,0,0,0,2.413-1.387,6.371,6.371,0,0,1,4.155-1.486,1.53,1.53,0,0,0,1.478-1.927ZM54.4,60.818a5.984,5.984,0,0,1-4.025-1.468,9.454,9.454,0,0,0-4.037-1.878l4.2-26.731H62.683v26.7a9.326,9.326,0,0,0-4.256,1.911A5.977,5.977,0,0,1,54.4,60.818ZM65.745,30.741H78.15l4.192,26.7a9.346,9.346,0,0,0-4.277,1.914,6.251,6.251,0,0,1-8.049,0,9.348,9.348,0,0,0-4.271-1.913ZM26.368,57.517l1.448-4.12,5.05-15.365a11.489,11.489,0,0,1,10.073-7.291h4.5L43.252,57.405a9.248,9.248,0,0,0-4.481,1.947,5.95,5.95,0,0,1-4.007,1.466A7.334,7.334,0,0,1,30.337,59.3,11.5,11.5,0,0,0,26.368,57.517Zm8,6.344c.134,0,.258.018.4.018a8.96,8.96,0,0,0,5.786-2.036,6.249,6.249,0,0,1,8.049,0,9.3,9.3,0,0,0,4.372,1.928V97.493H34.366ZM94.09,97.493H56.033V63.74a9.391,9.391,0,0,0,4.173-1.9,6.232,6.232,0,0,1,8.032,0,9.28,9.28,0,0,0,11.6,0A6.023,6.023,0,0,1,83.8,60.358a1.467,1.467,0,0,0,.274.031,5.966,5.966,0,0,1,3.813,1.458,9.008,9.008,0,0,0,5.8,2.032c.139,0,.262-.014.4-.018Zm3.742-38.156a6.351,6.351,0,0,1-4.138,1.481,5.991,5.991,0,0,1-4.029-1.465,9.352,9.352,0,0,0-4.223-1.9l-4.194-26.71h5.6a10.683,10.683,0,0,1,9.621,7.339l4.146,15.1,1.155,4.313A9.933,9.933,0,0,0,97.832,59.336Z" style="fill:#231f20"/><circle cx="48.21" cy="79.552" r="2.634" style="fill:#231f20"/><path d="M82.873,67.943a1.531,1.531,0,0,0-2.164-.018L63.156,85.192A1.531,1.531,0,1,0,65.3,87.375L82.856,70.107A1.53,1.53,0,0,0,82.873,67.943Z" style="fill:#231f20"/><path d="M85.1,75.5,71.663,88.725a1.531,1.531,0,1,0,2.147,2.182L87.25,77.685A1.531,1.531,0,1,0,85.1,75.5Z" style="fill:#231f20"/></svg>