<svg id="Layer_1" data-name="Layer 1" xmlns="http://www.w3.org/2000/svg" viewBox="0 0 128 128"><title>Artboard 12</title><path d="M37.656,103.716H90.344a8.459,8.459,0,0,0,5.99-2.492l.006-.006a8.454,8.454,0,0,0,2.492-5.989V32.771a8.456,8.456,0,0,0-2.492-5.989l-.006-.006a8.458,8.458,0,0,0-5.99-2.492H37.656a8.456,8.456,0,0,0-5.989,2.492l-.006.006a8.458,8.458,0,0,0-2.492,5.989V95.229a8.455,8.455,0,0,0,2.492,5.989l.006.006A8.458,8.458,0,0,0,37.656,103.716Zm56.5-4.679a5.381,5.381,0,0,1-3.808,1.581H37.656a5.4,5.4,0,0,1-5.389-5.389V37.555H95.733V95.229A5.38,5.38,0,0,1,94.152,99.037Zm0-70.074a5.379,5.379,0,0,1,1.581,3.808v1.686H65.549V27.382H90.344A5.382,5.382,0,0,1,94.152,28.963Zm-60.3,0a5.382,5.382,0,0,1,3.808-1.581h24.8v7.075H32.267V32.771A5.38,5.38,0,0,1,33.848,28.963Z"/><path d="M47.84,45.909a1.549,1.549,0,0,0-1.549-1.549H38.16a1.549,1.549,0,0,0,0,3.1h8.131A1.549,1.549,0,0,0,47.84,45.909Z"/><path d="M80.841,72.233A16.793,16.793,0,0,0,47.347,70.37a9.225,9.225,0,0,0-.2,1.883c0,.008.008.012.008.02a16.793,16.793,0,0,0,33.493,1.866,9.225,9.225,0,0,0,.2-1.886C80.849,72.245,80.841,72.241,80.841,72.233ZM64,58.508A13.745,13.745,0,0,1,77.745,72.254c0,.021-.006.041-.006.062a6.1,6.1,0,0,1-12.19-.062,9.093,9.093,0,0,0-12.127-8.679c.286-.348.541-.723.859-1.041A13.7,13.7,0,0,1,64,58.508ZM64,86A13.744,13.744,0,0,1,50.255,72.254c0-.021.006-.041.006-.062a6.1,6.1,0,0,1,12.19.062,9.093,9.093,0,0,0,12.127,8.679c-.286.348-.54.723-.859,1.041A13.7,13.7,0,0,1,64,86Z"/></svg>