<svg id="Layer_1" data-name="Layer 1" xmlns="http://www.w3.org/2000/svg" viewBox="0 0 128 128"><title>Artboard 8</title><path d="M55.707,53.591H72.292a1.918,1.918,0,0,0,1.917-1.916V38.868a1.919,1.919,0,0,0-1.917-1.917H55.707a1.919,1.919,0,0,0-1.917,1.917V51.674a1.918,1.918,0,0,0,1.917,1.916Zm1.181-13.542H71.112V50.493H56.888Z"/><circle cx="54.148" cy="64.924" r="1.716"/><path d="M98.984,95.711H93.32V88.826a5.811,5.811,0,0,0-1.709-4.109h0l0,0,0,0A5.811,5.811,0,0,0,87.495,83h-.319V27.051a2.729,2.729,0,0,0-2.725-2.725h-40.9a2.728,2.728,0,0,0-2.725,2.725V83h-.32A5.812,5.812,0,0,0,36.4,84.709l0,0,0,0,0,0a5.811,5.811,0,0,0-1.71,4.11v6.885H29.016a3.989,3.989,0,0,0-3.981,3.981h0a3.989,3.989,0,0,0,3.981,3.981H98.984a3.99,3.99,0,0,0,3.981-3.981h0a3.99,3.99,0,0,0-3.981-3.981ZM43.922,27.425H84.078V83H82.314V31.623A2.451,2.451,0,0,0,81.6,29.9l0,0-.006-.006a2.454,2.454,0,0,0-1.732-.722H48.145a2.455,2.455,0,0,0-1.739.721l0,0,0,0a2.449,2.449,0,0,0-.721,1.733V83H43.922ZM79.217,83H48.783V32.261H79.217Zm-41.44,5.826a2.717,2.717,0,0,1,.8-1.926l.006-.006a2.718,2.718,0,0,1,1.926-.8h46.99a2.718,2.718,0,0,1,1.926.8l.006.006a2.718,2.718,0,0,1,.8,1.926v6.885H37.777Zm62.09,10.866a.889.889,0,0,1-.883.883H29.016a.889.889,0,0,1-.883-.883h0a.889.889,0,0,1,.883-.883H98.984a.889.889,0,0,1,.883.883Z"/></svg>