<svg xmlns="http://www.w3.org/2000/svg" data-name="Layer 1" viewBox="0 0 128 128"><path d="M107.754 57.008H91.988v-2.516h13.052a3.008 3.008 0 0 0 2.019-.78 1.49 1.49 0 0 0 .119-.107 3.016 3.016 0 0 0 .887-2.138v-24.15a3.015 3.015 0 0 0-.887-2.138 3.011 3.011 0 0 0-2.132-.887H65.78a3.029 3.029 0 0 0-3.025 3.025v24.15a3.029 3.029 0 0 0 3.025 3.025h13.053v2.516H20.246a3.989 3.989 0 0 0-3.981 3.981 3.891 3.891 0 0 0 3.669 3.918v37.253a1.549 1.549 0 0 0 1.549 1.549h85.033a1.549 1.549 0 0 0 1.549-1.549V64.907a3.891 3.891 0 0 0 3.67-3.918 3.989 3.989 0 0 0-3.981-3.981zm-2.786-29.619v18.769H65.853V27.389zM65.853 49.255h39.115v2.139H65.853zm16.078 5.237h6.959v2.516h-6.959zm-19.48 26.75H23.032V64.97h39.419zm-39.419 19.369V84.34h39.419v16.271zm81.936 0H65.549V64.97h39.419zm3.67-39.621a.89.89 0 0 1-.883.883H20.246a.889.889 0 0 1-.883-.883.889.889 0 0 1 .883-.883h87.508a.89.89 0 0 1 .883.883z"/><path d="m48.922 90.97-12.349-.076a1.543 1.543 0 0 0-.012 3.086l12.349.076a1.543 1.543 0 0 0 .012-3.086zM36.561 74.8l12.349.076a1.543 1.543 0 1 0 .012-3.085l-12.349-.076a1.543 1.543 0 1 0-.012 3.086z"/></svg>