<svg id="Layer_1" data-name="Layer 1" xmlns="http://www.w3.org/2000/svg" viewBox="0 0 128 128"><title>Artboard 15</title><path d="M92.216,97.226l0,0,0,0a3.773,3.773,0,0,0-2.662-1.107H82.041a7.855,7.855,0,0,0-7.676-6.285H65.631V76.664h23.3a3.77,3.77,0,0,0,2.664-1.109l0,0,0,0,0,0a3.769,3.769,0,0,0,1.107-2.662h0A3.771,3.771,0,0,0,91.6,70.22l0,0,0,0,0,0a3.8,3.8,0,0,0-1.315-.833L83.933,33.3a12.072,12.072,0,0,0-3.169-6.452,8.365,8.365,0,0,0-6.05-2.526H53.286a8.387,8.387,0,0,0-6.062,2.531,11.983,11.983,0,0,0-3.157,6.452L37.887,69.38a3.8,3.8,0,0,0-1.314.834l0,0,0,0,0,0a3.77,3.77,0,0,0-1.107,2.662h0a3.77,3.77,0,0,0,1.109,2.665l0,0,0,0,0,0a3.772,3.772,0,0,0,2.662,1.107H62.533V89.829h-8.9a7.855,7.855,0,0,0-7.676,6.285H38.451a3.769,3.769,0,0,0-2.664,1.109l0,0,0,0,0,0a3.771,3.771,0,0,0-1.107,2.662h0a3.77,3.77,0,0,0,1.109,2.664l0,0,0,0,0,0a3.771,3.771,0,0,0,2.662,1.107h51.1a3.77,3.77,0,0,0,2.664-1.109l0,0,0,0,0,0a3.771,3.771,0,0,0,1.107-2.662h0a3.77,3.77,0,0,0-1.109-2.665Zm-45.1-63.395a8.882,8.882,0,0,1,2.3-4.783,5.363,5.363,0,0,1,3.873-1.623H74.713a5.341,5.341,0,0,1,3.86,1.618,8.971,8.971,0,0,1,2.31,4.794l6.2,35.268H41.072Zm-8.359,39.54-.006-.005a.677.677,0,0,1-.2-.481h0a.676.676,0,0,1,.2-.481l.006-.006a.678.678,0,0,1,.481-.2H88.926a.678.678,0,0,1,.481.2l.006.006a.678.678,0,0,1,.2.481h0a.679.679,0,0,1-.2.481l-.006.005a.677.677,0,0,1-.481.2H39.238A.677.677,0,0,1,38.757,73.371ZM74.364,92.926a4.722,4.722,0,0,1,3.344,1.392,4.77,4.77,0,0,1,1.13,1.795H65.631V92.926ZM50.292,94.319a4.722,4.722,0,0,1,3.344-1.392h8.9v3.187H49.162A4.766,4.766,0,0,1,50.292,94.319Zm39.939,5.575a.676.676,0,0,1-.2.481l-.006.006a.678.678,0,0,1-.481.2h-51.1a.676.676,0,0,1-.481-.2l-.006-.006a.676.676,0,0,1-.2-.481h0a.676.676,0,0,1,.2-.481l.006-.006a.676.676,0,0,1,.481-.2h51.1a.678.678,0,0,1,.481.2l.006.006a.678.678,0,0,1,.2.481Z"/></svg>