<svg id="Layer_1" data-name="Layer 1" xmlns="http://www.w3.org/2000/svg" viewBox="0 0 128 128"><title>Artboard 16</title><path d="M98.984,95.711H87.175V40.135h.319a5.811,5.811,0,0,0,4.11-1.71l0,0,0,0h0a5.811,5.811,0,0,0,1.709-4.109V25.875a1.549,1.549,0,0,0-1.549-1.549H36.228a1.549,1.549,0,0,0-1.549,1.549v8.434a5.813,5.813,0,0,0,1.71,4.11l0,0,0,0h0a5.811,5.811,0,0,0,4.108,1.709h.32V95.711H29.016a3.989,3.989,0,0,0-3.981,3.981h0a3.989,3.989,0,0,0,3.981,3.981H98.984a3.989,3.989,0,0,0,3.981-3.981h0a3.99,3.99,0,0,0-3.981-3.981Zm-60.4-59.469-.006-.006a2.717,2.717,0,0,1-.8-1.926V27.424H90.223v6.885a2.718,2.718,0,0,1-.8,1.926l-.006.006a2.717,2.717,0,0,1-1.926.8H40.505A2.717,2.717,0,0,1,38.579,36.241Zm10.2,3.894H62.457V63.956H48.783Zm0,26.918H62.457V90.875H48.783Zm16.76,0H79.217V90.875H65.542Zm13.675-3.1H65.542V40.135H79.217ZM43.922,40.135h1.763V91.512a2.449,2.449,0,0,0,.721,1.733l0,0,0,0a2.455,2.455,0,0,0,1.739.722H79.854a2.454,2.454,0,0,0,1.732-.722l.006-.006,0,0a2.451,2.451,0,0,0,.717-1.728V40.135h1.763V95.711H43.922ZM99.867,99.692a.889.889,0,0,1-.883.883H29.016a.889.889,0,0,1-.883-.883h0a.89.89,0,0,1,.883-.884H98.984a.89.89,0,0,1,.883.884Z"/></svg>