<svg id="Layer_1" data-name="Layer 1" xmlns="http://www.w3.org/2000/svg" viewBox="0 0 128 128"><title>Artboard 14</title><path d="M70.277,47.9V44.319a3.027,3.027,0,0,0-.887-2.135l0,0,0,0,0,0a3.03,3.03,0,0,0-2.139-.891H65.617L65.543,25.87a1.543,1.543,0,1,0-3.085.012l.074,15.4h-1.61a3.029,3.029,0,0,0-2.136.887l0,0,0,0,0,0a3.028,3.028,0,0,0-.891,2.139v3.543A30.213,30.213,0,0,0,33.8,77.442a1.549,1.549,0,0,0,1.549,1.549H51.379a12.7,12.7,0,0,0,25.242,0H92.652A1.549,1.549,0,0,0,94.2,77.442,30.193,30.193,0,0,0,70.277,47.9Zm-8.686-.565c-.2.016-.4.034-.607.055V44.382h6.194V47.41l-.019,0-.166-.016c-.166-.017-.332-.033-.5-.047q-1.246-.1-2.5-.1Q62.8,47.241,61.591,47.339Zm9.253,36.948a9.681,9.681,0,0,1-16.4-5.3H73.556A9.657,9.657,0,0,1,70.845,84.286Zm4.383-8.394H36.942A27.063,27.063,0,0,1,60.755,50.551c.239-.028.47-.062.718-.085.833-.077,1.674-.128,2.527-.128s1.711.05,2.552.129c.239.022.463.056.7.084A27.063,27.063,0,0,1,91.059,75.892Z"/><path d="M64,92.257A1.543,1.543,0,0,0,62.458,93.8v8.325a1.543,1.543,0,1,0,3.085,0V93.8A1.543,1.543,0,0,0,64,92.257Z"/><path d="M73.516,90.84a1.542,1.542,0,0,0-2.674,1.537L75,99.586a1.542,1.542,0,0,0,2.674-1.536Z"/><path d="M78.941,84.284a1.545,1.545,0,0,0-1.549,2.674L84.6,91.12a1.545,1.545,0,0,0,1.549-2.674Z"/><path d="M51.17,84.852a1.542,1.542,0,0,0-2.105-.569l-7.209,4.162a1.542,1.542,0,1,0,1.537,2.674L50.6,86.957A1.542,1.542,0,0,0,51.17,84.852Z"/><path d="M54.484,90.834l-4.162,7.209A1.545,1.545,0,1,0,53,99.592l4.163-7.209a1.545,1.545,0,0,0-2.674-1.549Z"/></svg>