<svg id="Layer_1" data-name="Layer 1" xmlns="http://www.w3.org/2000/svg" viewBox="0 0 128 128"><title>Artboard 7</title><path d="M107.754,57.008H91.988V54.492H105.04a3.008,3.008,0,0,0,2.019-.78,1.49,1.49,0,0,0,.119-.107,3.016,3.016,0,0,0,.887-2.138V27.317a3.015,3.015,0,0,0-.887-2.138l0,0,0,0a3.011,3.011,0,0,0-2.132-.887H65.78a3.029,3.029,0,0,0-3.025,3.025V51.467a3.029,3.029,0,0,0,3.025,3.025H78.833v2.516H20.246a3.989,3.989,0,0,0-3.981,3.981h0a3.891,3.891,0,0,0,3.669,3.918V102.16a1.549,1.549,0,0,0,1.549,1.549h85.033a1.549,1.549,0,0,0,1.549-1.549V64.907a3.891,3.891,0,0,0,3.67-3.918h0a3.989,3.989,0,0,0-3.981-3.981Zm-2.786-29.619V46.158H65.853V27.389ZM65.853,49.255h39.115v2.139H65.853Zm16.078,5.237H88.89v2.516H81.931Zm-19.48,26.75H23.032V64.97H62.451ZM23.032,100.611V84.34H62.451v16.271Zm81.936,0H65.549V64.97h39.419Zm3.67-39.621a.89.89,0,0,1-.883.883H20.246a.889.889,0,0,1-.883-.883h0a.889.889,0,0,1,.883-.883h87.508a.89.89,0,0,1,.883.883Z"/><path d="M48.922,90.97l-12.349-.076a1.543,1.543,0,0,0-.012,3.086l12.349.076a1.543,1.543,0,0,0,.012-3.086Z"/><path d="M36.561,74.8l12.349.076a1.543,1.543,0,1,0,.012-3.085l-12.349-.076a1.543,1.543,0,1,0-.012,3.086Z"/></svg>