<svg id="Layer_1" data-name="Layer 1" xmlns="http://www.w3.org/2000/svg" viewBox="0 0 128 128"><title>Artboard 3</title><path d="M64,103.643A39.644,39.644,0,1,0,35.968,92.032,39.519,39.519,0,0,0,64,103.643ZM38.158,38.158A36.547,36.547,0,1,1,27.454,64,36.433,36.433,0,0,1,38.158,38.158Z"/><path d="M64,94.585a30.586,30.586,0,1,0-21.626-8.958A30.491,30.491,0,0,0,64,94.585ZM44.563,44.563A27.489,27.489,0,1,1,36.513,64,27.4,27.4,0,0,1,44.563,44.563Z"/><path d="M64,68.486a4.454,4.454,0,0,0,4.176-2.95l6.859-.012a1.543,1.543,0,1,0,0-3.085l-6.862.011a4.435,4.435,0,0,0-2.63-2.624V44.837a1.543,1.543,0,0,0-3.086,0V59.826A4.464,4.464,0,0,0,64,68.486Z"/></svg>