<svg id="Layer_1" data-name="Layer 1" xmlns="http://www.w3.org/2000/svg" viewBox="0 0 128 128"><title>Artboard 13</title><path d="M46.326,73.039l-12.349-.076a1.543,1.543,0,1,0-.013,3.085l12.349.076a1.543,1.543,0,0,0,.012-3.086Z"/><path d="M94.035,73.039l-12.349-.076a1.543,1.543,0,1,0-.012,3.085l12.349.076a1.543,1.543,0,1,0,.013-3.086Z"/><path d="M113.258,83.437V65.576a2.062,2.062,0,0,0-.606-1.454l0,0,0,0-.007-.007a2.063,2.063,0,0,0-1.448-.6h-6.682V59.092a6.754,6.754,0,0,0,5.227-6.579V40.994a6.793,6.793,0,0,0-6.776-6.776h0a6.792,6.792,0,0,0-6.776,6.776V52.513a6.754,6.754,0,0,0,5.227,6.579v4.418H71.544V59.74H87.406a3.314,3.314,0,0,0,3.309-3.309v-28.8a3.314,3.314,0,0,0-3.309-3.309H40.594a3.314,3.314,0,0,0-3.309,3.309v28.8a3.314,3.314,0,0,0,3.309,3.309H56.455v3.769H26.589V59.092a6.753,6.753,0,0,0,5.227-6.579V40.994a6.792,6.792,0,0,0-6.776-6.776h0a6.792,6.792,0,0,0-6.776,6.776V52.513a6.754,6.754,0,0,0,5.227,6.579v4.418H16.809a2.058,2.058,0,0,0-1.455.606l-.006.006a2.058,2.058,0,0,0-.606,1.455V83.437a5.78,5.78,0,0,0-1.18.8q-.048.048-.09.1a5.7,5.7,0,0,0-1.588,3.939h0A5.7,5.7,0,0,0,13.562,92.3l0,0,0,0,0,0A5.7,5.7,0,0,0,17.6,93.988h4.17v8.137a1.549,1.549,0,0,0,1.549,1.549h4.3v0a1.547,1.547,0,0,0,1.482-1.105l2.553-8.578H96.343l2.554,8.578a1.547,1.547,0,0,0,1.482,1.105v0h4.3a1.549,1.549,0,0,0,1.549-1.549V93.988h4.17a5.7,5.7,0,0,0,4.034-1.681l0,0a5.7,5.7,0,0,0,1.678-4.038h0a5.7,5.7,0,0,0-1.678-4.037A5.78,5.78,0,0,0,113.258,83.437ZM100.363,38.4a3.667,3.667,0,0,1,2.6-1.081h0a3.693,3.693,0,0,1,3.678,3.678V42.2H99.282v-1.21A3.665,3.665,0,0,1,100.363,38.4ZM99.282,52.513V45.3h7.357v7.211a3.693,3.693,0,0,1-3.678,3.678h0a3.692,3.692,0,0,1-3.678-3.678ZM22.443,38.4a3.666,3.666,0,0,1,2.6-1.081h0a3.693,3.693,0,0,1,3.678,3.678V42.2H21.361v-1.21A3.665,3.665,0,0,1,22.443,38.4ZM21.361,52.513V45.3h7.356v7.211a3.693,3.693,0,0,1-3.678,3.678h0a3.693,3.693,0,0,1-3.678-3.678Zm88.8,30.044H65.549V66.607H110.16ZM40.446,27.488a.209.209,0,0,1,.148-.063H87.406a.215.215,0,0,1,.211.211V50.4H40.383V27.636A.21.21,0,0,1,40.446,27.488Zm0,29.092a.211.211,0,0,1-.063-.148V53.5H87.617v2.935a.214.214,0,0,1-.211.211H40.594A.211.211,0,0,1,40.446,56.58Zm28,3.161v3.6H59.553v-3.6ZM17.84,66.607H62.451v15.95H17.84Zm8.628,33.968h-1.6V93.988h3.562Zm76.665,0h-1.6l-1.961-6.588h3.561Zm9.885-12.3a2.609,2.609,0,0,1-.77,1.848l0,0,0,0a2.606,2.606,0,0,1-1.848.764H17.6a2.606,2.606,0,0,1-1.848-.764l-.006-.006a2.605,2.605,0,0,1-.764-1.848h0a2.606,2.606,0,0,1,.7-1.785c.023-.02.045-.041.066-.062a2.61,2.61,0,0,1,1.848-.77h92.8a2.629,2.629,0,0,1,2.618,2.618Z"/><circle cx="102.96" cy="52.706" r="1.617"/><circle cx="102.96" cy="48.301" r="1.617"/><circle cx="25.039" cy="52.706" r="1.617"/><circle cx="25.039" cy="48.301" r="1.617"/></svg>