<svg id="Layer_1" data-name="Layer 1" xmlns="http://www.w3.org/2000/svg" viewBox="0 0 128 128"><title>Artboard 10</title><path d="M107.52,55.195h-1.627v-30.1a1.549,1.549,0,0,0-1.549-1.549H95.389a1.539,1.539,0,0,0-.822.236l-3.549,1.911-1.005-1.018a3.127,3.127,0,0,0-2.263-.948,4.083,4.083,0,0,0-2.281.737l-6.918,4.7a2.859,2.859,0,0,0-.4.325,2.971,2.971,0,0,0-.861,2.134,3.591,3.591,0,0,0,.615,1.993,3.487,3.487,0,0,0,.394.485l5.776,5.851.006.006a3.451,3.451,0,0,0,.474.4l0,0a3.6,3.6,0,0,0,1.994.641,2.959,2.959,0,0,0,2.14-.837,2.792,2.792,0,0,0,.332-.39l0,0L93.731,33q.04-.048.077-.1a4.089,4.089,0,0,0,.762-2.281,3.113,3.113,0,0,0-.915-2.263l-.374-.379,2.492-1.342H102.8V55.195H20.48a5.683,5.683,0,0,0-5.671,5.672h0a5.684,5.684,0,0,0,5.671,5.671h1.257l2.148,20.687A11.94,11.94,0,0,0,27.2,94.44a9.659,9.659,0,0,0,6.93,2.888,2.016,2.016,0,1,1,0,4.033,1.549,1.549,0,0,0,0,3.1,5.1,5.1,0,0,0,4.694-7.13H89.173a5.083,5.083,0,0,0,.986,5.531q.044.052.092.1a5.1,5.1,0,0,0,3.616,1.5,1.549,1.549,0,1,0,0-3.1,2.011,2.011,0,0,1-1.426-.59l-.063-.06a2.019,2.019,0,0,1,1.489-3.382A9.659,9.659,0,0,0,100.8,94.44a11.944,11.944,0,0,0,3.318-7.215l2.148-20.687h1.257a5.685,5.685,0,0,0,5.671-5.671h0a5.685,5.685,0,0,0-5.671-5.672Zm-21.031-17.2,0,0,0,0,.023-.025h0Zm4.778-6.857c-.023.033-.045.068-.065.1L86.553,37.9a.477.477,0,0,1-.232-.086l0,0,0,0c-.022-.015-.038-.027-.047-.035L80.5,31.927,80.5,31.92a.322.322,0,0,1-.037-.043.48.48,0,0,1-.082-.233L87.2,27.013a1.024,1.024,0,0,1,.538-.2.1.1,0,0,1,.073.028l3.642,3.689a.118.118,0,0,1,.031.084A1.035,1.035,0,0,1,91.267,31.137Zm9.774,55.774a8.83,8.83,0,0,1-2.434,5.339,6.609,6.609,0,0,1-4.74,1.98H34.133a6.609,6.609,0,0,1-4.74-1.98,8.831,8.831,0,0,1-2.435-5.339L24.843,66.538h78.314Zm9.052-26.044a2.585,2.585,0,0,1-2.574,2.574H20.48a2.584,2.584,0,0,1-2.574-2.574h0a2.585,2.585,0,0,1,2.574-2.574h87.04a2.585,2.585,0,0,1,2.574,2.574Z"/><path d="M76.712,39.271,73.131,42.8a1.544,1.544,0,0,0,2.166,2.2l3.581-3.534a1.544,1.544,0,0,0-2.166-2.2Z"/><path d="M78.664,48.9a1.543,1.543,0,0,0,2.045-.762l1.729-3.779a1.543,1.543,0,1,0-2.807-1.282L77.9,46.859A1.542,1.542,0,0,0,78.664,48.9Z"/><path d="M75.9,36.466a1.547,1.547,0,0,0-2.039-.792l-3.8,1.68a1.547,1.547,0,0,0,1.246,2.831l3.8-1.68A1.547,1.547,0,0,0,75.9,36.466Z"/></svg>