<svg xmlns="http://www.w3.org/2000/svg" data-name="Layer 1" viewBox="0 0 128 128"><path d="M46.326 73.784l-12.349-.076a1.543 1.543 0 10-.013 3.085l12.349.076a1.543 1.543 0 00.012-3.086zM81.674 76.793l12.349.076a1.543 1.543 0 10.013-3.086l-12.349-.076a1.543 1.543 0 10-.012 3.085z"/><path d="M114.34 84.889a5.788 5.788 0 00-1.082-.7V66.32a2.061 2.061 0 00-.606-1.455l-.007-.007a2.062 2.062 0 00-1.448-.6H72.46a11.04 11.04 0 00.948-1.153 11.017 11.017 0 00.564-10.48 11.1 11.1 0 00-2.229-3.139l2.189-7.9a1.55 1.55 0 00-1.454-2.086h-5.637a4.378 4.378 0 00.874-.978 4.389 4.389 0 003.576-2.083c.023-.033.045-.067.065-.1a4.378 4.378 0 00.076-4.25 4.385 4.385 0 00-3.717-6.435 4.375 4.375 0 00-7.43 0 4.387 4.387 0 00-3.576 2.083 1.885 1.885 0 00-.065.1 4.377 4.377 0 00-.075 4.25 4.405 4.405 0 00-.469 1.434 4.388 4.388 0 002.715 4.689 4.4 4.4 0 001.471.311 4.358 4.358 0 00.874.978h-5.638a1.545 1.545 0 00-1.488 1.956l2.223 8.026A11.023 11.023 0 0054.592 63.1a11.015 11.015 0 00.942 1.153H16.809a2.058 2.058 0 00-1.455.606l-.006.006a2.058 2.058 0 00-.606 1.455v17.866a5.8 5.8 0 00-1.174.793 5.7 5.7 0 00-1.674 4.028 5.7 5.7 0 001.681 4.035 5.7 5.7 0 004.025 1.69h4.17v8.137a1.549 1.549 0 001.549 1.549h4.3a1.547 1.547 0 001.482-1.1l2.553-8.578h64.689l2.557 8.57a1.547 1.547 0 001.482 1.1h4.3a1.549 1.549 0 001.549-1.549v-8.129h4.17a5.729 5.729 0 005.715-5.715 5.7 5.7 0 00-1.678-4.037 1.373 1.373 0 00-.098-.091zM60.807 35.38a1.308 1.308 0 01-.855-.039 1.275 1.275 0 01-.634-.55 1.3 1.3 0 01.231-1.588 1.545 1.545 0 00.054-2.184l-.054-.054a1.3 1.3 0 01-.228-1.579l.034-.061a1.275 1.275 0 01.6-.495 1.3 1.3 0 01.855-.039 1.545 1.545 0 001.918-1.046c.013-.045.024-.09.033-.135a1.3 1.3 0 012.5.056 1.542 1.542 0 001.854 1.134l.078-.02a1.3 1.3 0 01.855.039 1.277 1.277 0 01.634.55 1.3 1.3 0 01-.231 1.588 1.545 1.545 0 00-.054 2.184l.057.057a1.3 1.3 0 01.228 1.579l-.033.059a1.273 1.273 0 01-.6.5 1.306 1.306 0 01-.854.039 1.544 1.544 0 00-1.917 1.046c-.013.045-.025.09-.033.135a1.3 1.3 0 01-.445.651 1.3 1.3 0 01-2.056-.708 1.542 1.542 0 00-1.857-1.143zM110.16 83.3H65.549V67.351h44.611zM57.229 61.491a7.928 7.928 0 011.751-10.3 1.549 1.549 0 00.478-1.718l-1.905-6.88h12.894l-1.935 6.989a1.544 1.544 0 00.51 1.607 7.939 7.939 0 01-1.11 13.063h-3.394a2.05 2.05 0 00-.518.067 2.03 2.03 0 00-.517-.067h-3.392a7.968 7.968 0 01-2.862-2.761zm-39.389 5.86h44.611V83.3H17.84zm8.628 33.968h-1.6v-6.587h3.562zm76.665 0h-1.6l-1.961-6.588h3.561zm9.885-12.3a2.629 2.629 0 01-2.618 2.618H17.6a2.61 2.61 0 01-1.848-.77 2.605 2.605 0 01-.764-1.848 2.605 2.605 0 01.764-1.847l.006-.006A2.606 2.606 0 0117.6 86.4h92.8a2.607 2.607 0 011.785.7l.062.066a2.609 2.609 0 01.77 1.847z"/><circle cx="64" cy="32.082" r="2.255"/></svg>