<svg id="Layer_1" data-name="Layer 1" xmlns="http://www.w3.org/2000/svg" viewBox="0 0 128 128"><title>Artboard 4</title><path d="M104.132,39.093A11.983,11.983,0,0,0,95.7,35.578a12.273,12.273,0,0,0-12.2-10.818H37.1a12.274,12.274,0,0,0-12.2,10.811h-3a1.549,1.549,0,0,0,0,3.1h3A12.275,12.275,0,0,0,37.1,49.48h46.4A12.274,12.274,0,0,0,95.7,38.675a8.921,8.921,0,0,1-.064,17.842c-.006,0-.009.006-.015.006H60.232c-.212,0-.358.149-.542.227s-.4.088-.544.228-.15.363-.228.55-.223.328-.223.538v.006l.047,8.736H55.677A5.485,5.485,0,0,0,51.8,76.177l0,0a5.569,5.569,0,0,0,1.313.888v19a7.162,7.162,0,0,0,2.106,5.063l0,0,0,0,0,0a7.161,7.161,0,0,0,5.065,2.108h0a7.158,7.158,0,0,0,5.062-2.106l0,0,0,0,0,0a7.161,7.161,0,0,0,2.108-5.065V77.066a5.534,5.534,0,0,0,1.317-.889l0,0,0,0a5.46,5.46,0,0,0,0-7.745l-.006-.006a5.469,5.469,0,0,0-3.872-1.611H61.829l-.039-7.2H95.617c.006,0,.009.006.015.006a12.022,12.022,0,0,0,8.5-20.523Zm-14.1,4.568a9.235,9.235,0,0,1-6.541,2.722H37.1a9.294,9.294,0,0,1-9.263-9.262h0A9.294,9.294,0,0,1,37.1,27.857h46.4a9.25,9.25,0,0,1,6.541,15.8Zm-25.658,52.4a4.065,4.065,0,0,1-1.194,2.881l-.006.006a4.066,4.066,0,0,1-2.881,1.194h0a4.064,4.064,0,0,1-2.881-1.194l-.006-.006a4.067,4.067,0,0,1-1.194-2.881V77.789h8.164ZM66.6,70.607a2.393,2.393,0,0,1,0,3.383l0,0a2.383,2.383,0,0,1-1.688.7H55.677a2.383,2.383,0,0,1-1.689-.7l0,0,0,0a2.392,2.392,0,0,1,1.689-4.081h9.235A2.393,2.393,0,0,1,66.6,70.607Z"/></svg>