<svg id="Layer_1" data-name="Layer 1" xmlns="http://www.w3.org/2000/svg" viewBox="0 0 128 128"><title>Artboard 2</title><path d="M103.471,47.175A24.076,24.076,0,0,0,79.764,27.191H48.235A24.076,24.076,0,0,0,24.529,47.175a11.9,11.9,0,0,0-5.6,21.733,11.238,11.238,0,0,0-.62,3.538,11.4,11.4,0,0,0,3.358,8.077c.2.2.443.358.659.544A5.442,5.442,0,0,0,20.013,82.3c-.034.029-.066.058-.1.09a5.444,5.444,0,0,0-1.6,3.857h0a5.444,5.444,0,0,0,1.6,3.857l0,0A5.445,5.445,0,0,0,23.772,91.7h.686V99.26a1.549,1.549,0,0,0,1.549,1.549h4.045v0A1.547,1.547,0,0,0,31.534,99.7l2.381-8H94.6l2.381,8a1.547,1.547,0,0,0,1.482,1.105v0h4.045a1.549,1.549,0,0,0,1.549-1.549V91.7h.686a5.472,5.472,0,0,0,5.46-5.46h0a5.2,5.2,0,0,0-4.026-5.169c.219-.188.463-.347.667-.551a11.4,11.4,0,0,0,3.358-8.077,11.268,11.268,0,0,0-.724-3.871,11.907,11.907,0,0,0-6.008-21.4Zm-69.162-11.6a20.962,20.962,0,0,1,13.927-5.291H79.764A21.132,21.132,0,0,1,100.41,47.194c-.1.015-.194.052-.294.069-.3.053-.585.132-.876.207A11.888,11.888,0,0,0,98,47.856c-.281.106-.554.217-.824.342a11.973,11.973,0,0,0-1.169.634c-.23.14-.465.267-.683.421A12.016,12.016,0,0,0,93.939,50.4c-.069.066-.153.115-.221.182a12.012,12.012,0,0,0-3.371,10.433H37.653a12.021,12.021,0,0,0-3.371-10.433c-.072-.072-.163-.125-.237-.2a12.072,12.072,0,0,0-1.365-1.126c-.222-.156-.459-.285-.691-.426a11.869,11.869,0,0,0-1.161-.63c-.272-.127-.547-.238-.83-.344a11.9,11.9,0,0,0-1.238-.384c-.291-.075-.577-.154-.876-.207-.1-.018-.193-.054-.294-.07A21.119,21.119,0,0,1,34.309,35.579ZM16.823,59.092a8.944,8.944,0,1,1,17.887,0,9.057,9.057,0,0,1-.123,1.508c-.024.142-.072.272-.1.411h-5.14c-.335,0-.64.11-.968.139a11.413,11.413,0,0,0-1.157.166,11.4,11.4,0,0,0-3.924,1.442,11.573,11.573,0,0,0-3.32,3.154A9.031,9.031,0,0,1,18,63.526,8.9,8.9,0,0,1,16.823,59.092ZM28.9,97.711H27.556V91.7h3.132Zm72.061,0H99.616L97.828,91.7h3.132Zm3.784-13.83a2.372,2.372,0,0,1,2.362,2.362h0a2.372,2.372,0,0,1-2.362,2.362H23.772a2.352,2.352,0,0,1-1.667-.689l0,0,0,0a2.357,2.357,0,0,1-.695-1.667h0a2.356,2.356,0,0,1,.695-1.667l.062-.066a2.351,2.351,0,0,1,1.6-.629h80.971Zm-.088-5.548a8.313,8.313,0,0,1-5.888,2.45H29.748A8.335,8.335,0,0,1,28.011,64.3c.109-.018.217-.033.328-.047a8.229,8.229,0,0,1,1.407-.143h68.91a8.3,8.3,0,0,1,2.281.324c.039.011.076.025.114.035a8.237,8.237,0,0,1,2.01.9,8.449,8.449,0,0,1,3.1,3.445l0,0c.017.035.036.07.056.105s.091.05.124.094a8.219,8.219,0,0,1,.765,3.432A8.313,8.313,0,0,1,104.656,78.333ZM110,63.526a9.039,9.039,0,0,1-1.931,2.329,11.582,11.582,0,0,0-1.228-1.486,11.452,11.452,0,0,0-4.863-2.839c-.082-.025-.162-.053-.245-.076a11.242,11.242,0,0,0-2.97-.443h-5.25c-.031-.14-.082-.269-.106-.412a9.047,9.047,0,0,1-.123-1.507,8.951,8.951,0,0,1,5.456-8.238c.036-.015.076-.021.112-.036a8.859,8.859,0,0,1,1.553-.482c.1-.02.2-.017.294-.034A8.933,8.933,0,0,1,110,63.526Z"/><path d="M60.854,49.054a1.548,1.548,0,0,0,2.19,0l1.215-1.215,1.215,1.215a1.548,1.548,0,0,0,2.19-2.19L66.448,45.65l1.215-1.214a1.548,1.548,0,0,0-2.19-2.19L64.258,43.46l-1.215-1.215a1.548,1.548,0,0,0-2.19,2.19l1.215,1.214-1.215,1.215A1.548,1.548,0,0,0,60.854,49.054Z"/><path d="M44.54,49.054a1.548,1.548,0,0,0,2.19,0l1.215-1.215,1.214,1.215a1.548,1.548,0,0,0,2.19-2.19L50.134,45.65l1.214-1.214a1.548,1.548,0,0,0-2.19-2.19L47.944,43.46l-1.215-1.214a1.548,1.548,0,0,0-2.19,2.19l1.215,1.214L44.54,46.864A1.548,1.548,0,0,0,44.54,49.054Z"/><path d="M77.168,49.054a1.548,1.548,0,0,0,2.19,0l1.214-1.214,1.214,1.214a1.548,1.548,0,0,0,2.19-2.19L82.762,45.65l1.214-1.214a1.548,1.548,0,0,0-2.19-2.19L80.572,43.46l-1.214-1.214a1.548,1.548,0,0,0-2.19,2.19l1.214,1.214-1.214,1.215A1.548,1.548,0,0,0,77.168,49.054Z"/></svg>