<svg id="Layer_1" data-name="Layer 1" xmlns="http://www.w3.org/2000/svg" viewBox="0 0 128 128"><title>Artboard 9</title><path d="M46.326,73.784l-12.349-.076a1.543,1.543,0,1,0-.013,3.085l12.349.076a1.543,1.543,0,0,0,.012-3.086Z"/><path d="M81.674,76.793l12.349.076a1.543,1.543,0,1,0,.013-3.086l-12.349-.076a1.543,1.543,0,1,0-.012,3.085Z"/><path d="M114.34,84.889a5.788,5.788,0,0,0-1.082-.7V66.32a2.061,2.061,0,0,0-.606-1.455l0,0,0,0-.007-.007a2.062,2.062,0,0,0-1.448-.6H72.46a11.04,11.04,0,0,0,.948-1.153,11.017,11.017,0,0,0,.564-10.48,11.1,11.1,0,0,0-2.229-3.139l2.189-7.9A1.55,1.55,0,0,0,72.478,39.5H66.841a4.378,4.378,0,0,0,.874-.978,4.389,4.389,0,0,0,3.576-2.083c.023-.033.045-.067.065-.1a4.378,4.378,0,0,0,.076-4.25,4.385,4.385,0,0,0-3.717-6.435,4.375,4.375,0,0,0-7.43,0,4.387,4.387,0,0,0-3.576,2.083c-.023.033-.045.067-.065.1a4.377,4.377,0,0,0-.075,4.25,4.405,4.405,0,0,0-.469,1.434,4.388,4.388,0,0,0,2.715,4.689,4.4,4.4,0,0,0,1.471.311,4.358,4.358,0,0,0,.874.978H55.522v0a1.545,1.545,0,0,0-1.488,1.956l2.223,8.026A11.023,11.023,0,0,0,54.592,63.1a11.015,11.015,0,0,0,.942,1.153H16.809a2.058,2.058,0,0,0-1.455.606l-.006.006a2.058,2.058,0,0,0-.606,1.455V84.186a5.8,5.8,0,0,0-1.174.793l0,0,0,0,0,0a5.7,5.7,0,0,0-1.674,4.028h0a5.7,5.7,0,0,0,1.681,4.035l0,0A5.7,5.7,0,0,0,17.6,94.732h4.17v8.137a1.549,1.549,0,0,0,1.549,1.549h4.3v0a1.547,1.547,0,0,0,1.482-1.1l2.553-8.578H96.343L98.9,103.31a1.547,1.547,0,0,0,1.482,1.1v0h4.3a1.549,1.549,0,0,0,1.549-1.549V94.732h4.17a5.729,5.729,0,0,0,5.715-5.715h0a5.7,5.7,0,0,0-1.678-4.037C114.406,84.947,114.373,84.917,114.34,84.889ZM60.807,35.38v0a1.308,1.308,0,0,1-.855-.039,1.275,1.275,0,0,1-.634-.55,1.3,1.3,0,0,1,.231-1.588,1.545,1.545,0,0,0,.054-2.184l-.054-.054,0,0a1.3,1.3,0,0,1-.228-1.579l.034-.061a1.275,1.275,0,0,1,.6-.495,1.3,1.3,0,0,1,.855-.039,1.545,1.545,0,0,0,1.918-1.046c.013-.045.024-.09.033-.135a1.3,1.3,0,0,1,2.5.056A1.542,1.542,0,0,0,67.115,28.8l.078-.02v0a1.3,1.3,0,0,1,.855.039,1.277,1.277,0,0,1,.634.55,1.3,1.3,0,0,1-.231,1.588,1.545,1.545,0,0,0-.054,2.184l.057.057a1.3,1.3,0,0,1,.228,1.579l-.033.059a1.273,1.273,0,0,1-.6.5,1.306,1.306,0,0,1-.854.039,1.544,1.544,0,0,0-1.917,1.046c-.013.045-.025.09-.033.135a1.3,1.3,0,0,1-.445.651,1.3,1.3,0,0,1-2.056-.708,1.542,1.542,0,0,0-1.857-1.143ZM110.16,83.3H65.549V67.351H110.16ZM57.229,61.491a7.928,7.928,0,0,1,1.751-10.3,1.549,1.549,0,0,0,.478-1.718l-1.905-6.88H70.447l-1.935,6.989a1.544,1.544,0,0,0,.51,1.607l0,0a7.939,7.939,0,0,1-1.11,13.063H64.518a2.05,2.05,0,0,0-.518.067,2.03,2.03,0,0,0-.517-.067H60.091A7.968,7.968,0,0,1,57.229,61.491ZM17.84,67.351H62.451V83.3H17.84Zm8.628,33.968h-1.6V94.732h3.562Zm76.665,0h-1.6l-1.961-6.588h3.561Zm9.885-12.3a2.629,2.629,0,0,1-2.618,2.618H17.6a2.61,2.61,0,0,1-1.848-.77l0,0,0,0a2.605,2.605,0,0,1-.764-1.848h0a2.605,2.605,0,0,1,.764-1.847l.006-.006A2.606,2.606,0,0,1,17.6,86.4h92.8a2.607,2.607,0,0,1,1.785.7c.02.022.041.045.062.066a2.609,2.609,0,0,1,.77,1.847Z"/><circle cx="64" cy="32.082" r="2.255"/></svg>