<svg id="Layer_1" data-name="Layer 1" xmlns="http://www.w3.org/2000/svg" viewBox="0 0 128 128"><title>Artboard 1</title><path d="M19.258,97.839l0,0,0,0a3.351,3.351,0,0,0,2.367.986h84.738a3.349,3.349,0,0,0,2.364-.983l0,0,0,0,0,0a3.349,3.349,0,0,0,.986-2.367V32.527a3.351,3.351,0,0,0-.982-2.364l0,0,0,0,0,0a3.351,3.351,0,0,0-2.367-.985H21.631a3.349,3.349,0,0,0-2.364.983l0,0,0,0,0,0a3.349,3.349,0,0,0-.985,2.367V95.473a3.351,3.351,0,0,0,.982,2.364ZM21.37,32.527a.257.257,0,0,1,.072-.183l.006-.006a.256.256,0,0,1,.183-.072h84.738a.257.257,0,0,1,.183.072l.006.006a.255.255,0,0,1,.072.183V95.473a.256.256,0,0,1-.072.183l-.006.006a.256.256,0,0,1-.183.072H21.631a.255.255,0,0,1-.183-.072l-.006-.006a.257.257,0,0,1-.072-.183Z"/><path d="M28.161,88.352a2.821,2.821,0,0,0,2,.831H97.842a2.825,2.825,0,0,0,2-.831l.006-.006a2.824,2.824,0,0,0,.831-2v-44.7a2.821,2.821,0,0,0-.831-2l-.006-.006a2.825,2.825,0,0,0-2-.832H30.158a2.821,2.821,0,0,0-2,.832l-.006.006a2.821,2.821,0,0,0-.831,2v44.7a2.824,2.824,0,0,0,.831,2ZM74.8,86.085H33.134l7.01-12.14h0l0,0,7.013-12.148,6.967,12.068c.014.029.03.058.047.086l2.439,4.224a1.545,1.545,0,0,0,2.683.016l5.47-9.474h0l0,0L74.8,51.322l9.989,17.3q.021.044.046.086L94.865,86.085Zm22.78-44.17V84.6L87.507,67.162l-.05-.081L76.135,47.47a1.542,1.542,0,0,0-2.674,0L62.091,67.163h0L57.956,74.32,56.845,72.4l-.05-.081-8.3-14.377a1.542,1.542,0,0,0-2.674,0L37.473,72.4h0L30.422,84.6V41.915Z"/><path d="M53.626,55.473a5.771,5.771,0,0,0,8.167,0l0,0a5.774,5.774,0,0,0-8.071-8.259c-.034.029-.066.058-.1.09a5.771,5.771,0,0,0,0,8.167ZM55.81,49.49c.022-.022.043-.044.063-.067a2.686,2.686,0,0,1,3.736,3.86l0,0,0,0A2.682,2.682,0,0,1,55.81,49.49Z"/></svg>