<svg id="Layer_1" data-name="Layer 1" xmlns="http://www.w3.org/2000/svg" viewBox="0 0 128 128"><title>Artboard 5</title><path d="M26.595,97.8H53.3A1.808,1.808,0,0,0,55.1,95.993V49.239A1.808,1.808,0,0,0,53.3,47.433h-26.7a1.807,1.807,0,0,0-1.806,1.806V95.993A1.808,1.808,0,0,0,26.595,97.8Zm1.292-18.907H52v6.356H27.887ZM52,75.794H27.887V69.438H52ZM52,94.7H27.887V88.345H52Zm0-28.36H27.887V59.984H52ZM27.887,50.531H52v6.356H27.887Z"/><path d="M58.951,41.556H20.94a2.629,2.629,0,0,0-1.861.775l-.006.006A2.633,2.633,0,0,0,18.3,44.2v56.877a2.632,2.632,0,0,0,.774,1.861l.006.006a2.63,2.63,0,0,0,1.861.774H58.951a2.631,2.631,0,0,0,1.861-.774l.006-.006a2.63,2.63,0,0,0,.775-1.861V44.2a2.631,2.631,0,0,0-.775-1.861l-.006-.006A2.63,2.63,0,0,0,58.951,41.556ZM58.5,100.618H21.4V44.653H58.5Z"/><path d="M109.7,26.105a1.816,1.816,0,0,0-.534-1.287l0,0a1.815,1.815,0,0,0-1.284-.537H20.119a1.811,1.811,0,0,0-1.281.534l-.006.006a1.811,1.811,0,0,0-.534,1.281v9.463a1.807,1.807,0,0,0,.355,1.072,1.559,1.559,0,0,0,.179.214,1.816,1.816,0,0,0,1.287.534h87.762a1.822,1.822,0,0,0,1.821-1.821ZM65.549,27.382H85.825v6.909H65.549Zm-3.1,6.909H42.175V27.382H62.452ZM21.4,27.382H39.077v6.909H21.4ZM106.6,34.291H88.923V27.382H106.6Z"/><path d="M74.7,97.8h26.7a1.808,1.808,0,0,0,1.806-1.806V49.239a1.807,1.807,0,0,0-1.806-1.806H74.7A1.807,1.807,0,0,0,72.9,49.239V95.993A1.808,1.808,0,0,0,74.7,97.8ZM76,78.891h24.117v6.356H76Zm24.117-3.1H76V69.438h24.117Zm0,18.907H76V88.345h24.117Zm0-28.36H76V59.984h24.117ZM76,50.531h24.117v6.356H76Z"/><path d="M108.921,42.331a2.63,2.63,0,0,0-1.861-.775H69.049a2.63,2.63,0,0,0-1.861.775l-.006.006a2.63,2.63,0,0,0-.774,1.861v56.877a2.63,2.63,0,0,0,.774,1.861l.006.006a2.631,2.631,0,0,0,1.861.774h38.012a2.631,2.631,0,0,0,1.861-.774l.006-.006a2.63,2.63,0,0,0,.774-1.861V44.2a2.63,2.63,0,0,0-.774-1.861ZM106.6,100.618h-37.1V44.653h37.1Z"/></svg>