<svg id="Layer_1" data-name="Layer 1" xmlns="http://www.w3.org/2000/svg" viewBox="0 0 128 128"><title>Artboard 6</title><path d="M32.5,49.947c-2.316,4.036-3.361,9.415-4.44,15.227L22.692,94.1a7.574,7.574,0,0,0-.132,1.376,8.244,8.244,0,0,0,2.581,5.836,11.094,11.094,0,0,0,5.722,2.975,10.379,10.379,0,0,0,1.888.181H64.386q.217,0,.526-.019c.124-.007.26-.02.407-.038.019,0,.031-.02.05-.022.262.02.513.078.78.078A10.469,10.469,0,0,0,67.7,83.635V65.452A22.37,22.37,0,0,0,50.817,43.741a2.771,2.771,0,0,0,.126-.62V39.764a2.905,2.905,0,0,0-.851-2.047l0,0,0,0,0,0a2.9,2.9,0,0,0-2.051-.854H46.939l-.01-7.7c0-.006.006-.009.006-.015a2.5,2.5,0,0,1,2.505-2.5H89.772a2.5,2.5,0,0,1,2.505,2.5c0,.006.006.009.006.015V63.03a6,6,0,0,0-2.706,1.454l0,0,0,0,0,0A6.006,6.006,0,0,0,87.8,68.739v4.194a6.009,6.009,0,0,0,1.771,4.251l0,0a5.983,5.983,0,0,0,2.705,1.454V92.422H86.624a4.421,4.421,0,0,0-4.412,4.412v3.222a4.42,4.42,0,0,0,4.412,4.411h14.4a4.42,4.42,0,0,0,4.412-4.411V96.834a4.4,4.4,0,0,0-1.3-3.114l0,0a4.4,4.4,0,0,0-3.117-1.295H95.376V78.64a5.739,5.739,0,0,0,4.473-5.708V68.739a6.005,6.005,0,0,0-1.768-4.254q-.048-.048-.1-.09a6,6,0,0,0-2.613-1.372V29.151c0-.006.006-.009.006-.015a5.6,5.6,0,0,0-5.6-5.6H49.44a5.6,5.6,0,0,0-5.6,5.6c0,.006.006.009.006.015l.01,7.7H42.764a2.9,2.9,0,0,0-2.047.85l0,0,0,0,0,0a2.9,2.9,0,0,0-.854,2.051v3.358a2.779,2.779,0,0,0,.131.645A12.935,12.935,0,0,0,32.5,49.947Zm69.456,45.959,0,0,0,0a1.306,1.306,0,0,1,.381.927v3.222a1.322,1.322,0,0,1-1.314,1.314h-14.4a1.322,1.322,0,0,1-1.314-1.314V96.834a1.322,1.322,0,0,1,1.314-1.314h14.4A1.308,1.308,0,0,1,101.956,95.906ZM95.891,66.674a2.916,2.916,0,0,1,.86,2.065v4.194a2.937,2.937,0,0,1-2.925,2.925h0A2.915,2.915,0,0,1,91.762,75l0,0,0,0a2.912,2.912,0,0,1-.854-2.065V68.739a2.911,2.911,0,0,1,.854-2.065l.006-.006a2.91,2.91,0,0,1,2.064-.854h0a2.913,2.913,0,0,1,2,.792C95.848,66.63,95.869,66.652,95.891,66.674ZM31.419,101.249a7.949,7.949,0,0,1-4.1-2.128,5.2,5.2,0,0,1-1.661-3.646,4.494,4.494,0,0,1,.072-.819l2.041-10.995,15.861-.028v17.736H32.75A7.337,7.337,0,0,1,31.419,101.249Zm42.126-7.276a7.4,7.4,0,0,1-7.4,7.4,8.76,8.76,0,0,1-3.224-.768c-.119-.058-.232-.125-.348-.189A7.44,7.44,0,0,1,60.75,99a7.326,7.326,0,0,1-.476-.577c-.107-.142-.223-.277-.32-.427a7.418,7.418,0,0,1-.422-.778c-.074-.15-.16-.293-.224-.448a7.426,7.426,0,0,1-.29-.935c-.037-.14-.092-.273-.12-.416a7.395,7.395,0,1,1,14.647-1.446ZM64.6,65.452V83.593c-.11.016-.211.055-.32.074-.226.041-.443.1-.663.154a10.359,10.359,0,0,0-1.193.37c-.216.082-.429.166-.638.263a10.39,10.39,0,0,0-1.127.612c-.167.1-.34.195-.5.307a10.424,10.424,0,0,0-4.3,10.642c.047.235.135.453.2.682a10.407,10.407,0,0,0,.38,1.224c.105.259.247.494.371.742a10.517,10.517,0,0,0,.538.991c.16.247.346.469.526.7.162.209.3.437.476.634q.175.194.36.38H46.728V46.189A19.3,19.3,0,0,1,64.6,65.452ZM42.951,39.95h4.894v2.984H42.951Zm.679,6.253V80.548l-15.289.027L31.1,65.731c1.026-5.526,2.015-10.633,4.09-14.247A10.215,10.215,0,0,1,43.631,46.2Z"/><circle cx="66.149" cy="93.973" r="2.959"/></svg>