<svg xmlns="http://www.w3.org/2000/svg" data-name="Layer 1" viewBox="0 0 128 128"><path d="M19.258 97.839a3.351 3.351 0 0 0 2.367.986h84.738a3.349 3.349 0 0 0 2.364-.983 3.349 3.349 0 0 0 .986-2.367V32.527a3.351 3.351 0 0 0-.982-2.364 3.351 3.351 0 0 0-2.367-.985H21.631a3.349 3.349 0 0 0-2.364.983 3.349 3.349 0 0 0-.985 2.367v62.945a3.351 3.351 0 0 0 .982 2.364zm2.112-65.312a.257.257 0 0 1 .072-.183l.006-.006a.256.256 0 0 1 .183-.072h84.738a.257.257 0 0 1 .183.072l.006.006a.255.255 0 0 1 .072.183v62.946a.256.256 0 0 1-.072.183l-.006.006a.256.256 0 0 1-.183.072H21.631a.255.255 0 0 1-.183-.072l-.006-.006a.257.257 0 0 1-.072-.183z"/><path d="M28.161 88.352a2.821 2.821 0 0 0 2 .831h67.681a2.825 2.825 0 0 0 2-.831l.006-.006a2.824 2.824 0 0 0 .831-2v-44.7a2.821 2.821 0 0 0-.831-2l-.006-.006a2.825 2.825 0 0 0-2-.832H30.158a2.821 2.821 0 0 0-2 .832l-.006.006a2.821 2.821 0 0 0-.831 2v44.7a2.824 2.824 0 0 0 .831 2zM74.8 86.085H33.134l7.01-12.14 7.013-12.148 6.967 12.068c.014.029.03.058.047.086l2.439 4.224a1.545 1.545 0 0 0 2.683.016l5.47-9.474L74.8 51.322l9.989 17.3q.021.044.046.086l10.03 17.377zm22.78-44.17V84.6L87.507 67.162l-.05-.081L76.135 47.47a1.542 1.542 0 0 0-2.674 0l-11.37 19.693-4.135 7.157-1.111-1.92-.05-.081-8.3-14.377a1.542 1.542 0 0 0-2.674 0L37.473 72.4l-7.051 12.2V41.915z"/><path d="M53.626 55.473a5.771 5.771 0 0 0 8.167 0 5.774 5.774 0 0 0-8.071-8.259 2.706 2.706 0 0 0-.1.09 5.771 5.771 0 0 0 0 8.167zm2.184-5.983c.022-.022.043-.044.063-.067a2.686 2.686 0 0 1 3.736 3.86 2.682 2.682 0 0 1-3.799-3.793z"/></svg>