<svg xmlns="http://www.w3.org/2000/svg" data-name="Layer 1" viewBox="0 0 128 128"><path d="M55.707 53.591h16.585a1.918 1.918 0 001.917-1.916V38.868a1.919 1.919 0 00-1.917-1.917H55.707a1.919 1.919 0 00-1.917 1.917v12.806a1.918 1.918 0 001.917 1.916zm1.181-13.542h14.224v10.444H56.888z"/><circle cx="54.148" cy="64.924" r="1.716"/><path d="M98.984 95.711H93.32v-6.885a5.811 5.811 0 00-1.709-4.109A5.811 5.811 0 0087.495 83h-.319V27.051a2.729 2.729 0 00-2.725-2.725h-40.9a2.728 2.728 0 00-2.725 2.725V83h-.32a5.812 5.812 0 00-4.106 1.709 5.811 5.811 0 00-1.71 4.11v6.885h-5.674a3.989 3.989 0 00-3.981 3.981 3.989 3.989 0 003.981 3.981h69.968a3.99 3.99 0 003.981-3.981 3.99 3.99 0 00-3.981-3.981zM43.922 27.425h40.156V83h-1.764V31.623A2.451 2.451 0 0081.6 29.9l-.006-.006a2.454 2.454 0 00-1.732-.722H48.145a2.455 2.455 0 00-1.739.721 2.449 2.449 0 00-.721 1.733V83h-1.763zM79.217 83H48.783V32.261h30.434zm-41.44 5.826a2.717 2.717 0 01.8-1.926l.006-.006a2.718 2.718 0 011.926-.8h46.99a2.718 2.718 0 011.926.8l.006.006a2.718 2.718 0 01.8 1.926v6.885H37.777zm62.09 10.866a.889.889 0 01-.883.883H29.016a.889.889 0 01-.883-.883.889.889 0 01.883-.883h69.968a.889.889 0 01.883.883z"/></svg>