<svg xmlns="http://www.w3.org/2000/svg" data-name="Layer 1" viewBox="0 0 128 128"><path d="M103.471 47.175a24.076 24.076 0 00-23.707-19.984H48.235a24.076 24.076 0 00-23.706 19.984 11.9 11.9 0 00-5.6 21.733 11.238 11.238 0 00-.62 3.538 11.4 11.4 0 003.358 8.077c.2.2.443.358.659.544a5.442 5.442 0 00-2.313 1.233 2.706 2.706 0 00-.1.09 5.444 5.444 0 00-1.6 3.857 5.444 5.444 0 001.6 3.857 5.445 5.445 0 003.859 1.596h.686v7.56a1.549 1.549 0 001.549 1.549h4.045a1.547 1.547 0 001.482-1.109l2.381-8H94.6l2.381 8a1.547 1.547 0 001.482 1.105h4.045a1.549 1.549 0 001.549-1.549V91.7h.686a5.472 5.472 0 005.46-5.46 5.2 5.2 0 00-4.026-5.169c.219-.188.463-.347.667-.551a11.4 11.4 0 003.358-8.077 11.268 11.268 0 00-.724-3.871 11.907 11.907 0 00-6.008-21.4zm-69.162-11.6a20.962 20.962 0 0113.927-5.291h31.528a21.132 21.132 0 0120.646 16.91c-.1.015-.194.052-.294.069-.3.053-.585.132-.876.207a11.888 11.888 0 00-1.24.386c-.281.106-.554.217-.824.342a11.973 11.973 0 00-1.169.634c-.23.14-.465.267-.683.421a12.016 12.016 0 00-1.385 1.147c-.069.066-.153.115-.221.182a12.012 12.012 0 00-3.371 10.433H37.653a12.021 12.021 0 00-3.371-10.433c-.072-.072-.163-.125-.237-.2a12.072 12.072 0 00-1.365-1.126c-.222-.156-.459-.285-.691-.426a11.869 11.869 0 00-1.161-.63 11.4 11.4 0 00-.83-.344 11.9 11.9 0 00-1.238-.384c-.291-.075-.577-.154-.876-.207-.1-.018-.193-.054-.294-.07a21.119 21.119 0 016.719-11.616zM16.823 59.092a8.944 8.944 0 1117.887 0 9.057 9.057 0 01-.123 1.508c-.024.142-.072.272-.1.411h-5.14c-.335 0-.64.11-.968.139a11.413 11.413 0 00-1.157.166 11.4 11.4 0 00-3.924 1.442 11.573 11.573 0 00-3.32 3.154A9.031 9.031 0 0118 63.526a8.9 8.9 0 01-1.177-4.434zM28.9 97.711h-1.344V91.7h3.132zm72.061 0h-1.345L97.828 91.7h3.132zm3.784-13.83a2.372 2.372 0 012.362 2.362 2.372 2.372 0 01-2.362 2.362H23.772a2.352 2.352 0 01-1.667-.689 2.357 2.357 0 01-.695-1.667 2.356 2.356 0 01.695-1.667l.062-.066a2.351 2.351 0 011.6-.629h80.971zm-.088-5.548a8.313 8.313 0 01-5.888 2.45H29.748A8.335 8.335 0 0128.011 64.3c.109-.018.217-.033.328-.047a8.229 8.229 0 011.407-.143h68.91a8.3 8.3 0 012.281.324c.039.011.076.025.114.035a8.237 8.237 0 012.01.9 8.449 8.449 0 013.1 3.445c.017.035.036.07.056.105s.091.05.124.094a8.219 8.219 0 01.765 3.432 8.313 8.313 0 01-2.45 5.888zM110 63.526a9.039 9.039 0 01-1.931 2.329 11.582 11.582 0 00-1.228-1.486 11.452 11.452 0 00-4.863-2.839c-.082-.025-.162-.053-.245-.076a11.242 11.242 0 00-2.97-.443h-5.25c-.031-.14-.082-.269-.106-.412a9.047 9.047 0 01-.123-1.507 8.951 8.951 0 015.456-8.238c.036-.015.076-.021.112-.036a8.859 8.859 0 011.553-.482c.1-.02.2-.017.294-.034A8.933 8.933 0 01110 63.526z"/><path d="M60.854 49.054a1.548 1.548 0 002.19 0l1.215-1.215 1.215 1.215a1.548 1.548 0 002.19-2.19l-1.216-1.214 1.215-1.214a1.548 1.548 0 00-2.19-2.19l-1.215 1.214-1.215-1.215a1.548 1.548 0 00-2.19 2.19l1.215 1.214-1.215 1.215a1.548 1.548 0 00.001 2.19zM44.54 49.054a1.548 1.548 0 002.19 0l1.215-1.215 1.214 1.215a1.548 1.548 0 002.19-2.19l-1.215-1.214 1.214-1.214a1.548 1.548 0 00-2.19-2.19l-1.214 1.214-1.215-1.214a1.548 1.548 0 00-2.19 2.19l1.215 1.214-1.214 1.214a1.548 1.548 0 000 2.19zM77.168 49.054a1.548 1.548 0 002.19 0l1.214-1.214 1.214 1.214a1.548 1.548 0 002.19-2.19l-1.214-1.214 1.214-1.214a1.548 1.548 0 00-2.19-2.19l-1.214 1.214-1.214-1.214a1.548 1.548 0 00-2.19 2.19l1.214 1.214-1.214 1.215a1.548 1.548 0 000 2.189z"/></svg>