<svg xmlns="http://www.w3.org/2000/svg" id="Layer_1" x="0" y="0" enable-background="new 0 0 256 256" version="1.1" viewBox="0 0 256 256" xml:space="preserve"><style>.st0{fill:#48386A;}</style><path d="M44.1 233.4c-11.9 0-21.6-9.7-21.6-21.6 0-9.8 6.6-18.3 16-20.8 3.5-1 7.5-1 11.1 0 7.5 2 13.3 7.8 15.3 15.3.5 1.8.7 3.6.7 5.5s-.2 3.8-.7 5.5c-2.4 9.5-11 16.1-20.8 16.1zm0-41.1c-1.7 0-3.4.2-5 .7-8.6 2.3-14.5 10-14.5 18.9 0 10.8 8.8 19.6 19.6 19.6 8.9 0 16.6-6 18.9-14.5.4-1.6.7-3.3.7-5s-.2-3.4-.7-5c-1.8-6.8-7.1-12.1-13.9-13.9-1.7-.6-3.4-.8-5.1-.8z" class="st0"/><path d="M44.1 228c-3.6 0-7-1.2-9.9-3.4-.2-.2-.3-.5-.1-.7.2-.2.5-.3.7-.1 2.7 2.1 5.9 3.2 9.2 3.2 6.9 0 12.9-4.6 14.6-11.3.3-1.2.5-2.5.5-3.9 0-1.3-.2-2.6-.5-3.9-1.4-5.2-5.5-9.3-10.7-10.7-2.5-.7-5.3-.7-7.8 0C33.6 199 29 205 29 211.9c0 3.4 1.1 6.5 3.1 9.2.2.2.1.5-.1.7-.2.2-.5.1-.7-.1-2.2-2.8-3.3-6.2-3.3-9.8 0-7.3 4.9-13.7 12-15.6 2.7-.7 5.6-.7 8.3 0 5.6 1.5 10 5.9 11.4 11.4.4 1.3.5 2.7.5 4.1 0 1.4-.2 2.8-.5 4.1-1.9 7.1-8.3 12.1-15.6 12.1z" class="st0"/><path d="M44.1 223.4c-6.4 0-11.6-5.2-11.6-11.6s5.2-11.6 11.6-11.6c6.4 0 11.6 5.2 11.6 11.6s-5.2 11.6-11.6 11.6zm0-21.1c-5.3 0-9.6 4.3-9.6 9.6s4.3 9.6 9.6 9.6 9.6-4.3 9.6-9.6-4.3-9.6-9.6-9.6z" class="st0"/><path d="M44.1 217c-2.8 0-5.1-2.3-5.1-5.1s2.3-5.1 5.1-5.1 5.1 2.3 5.1 5.1-2.2 5.1-5.1 5.1zm0-9.3c-2.3 0-4.1 1.9-4.1 4.1s1.9 4.1 4.1 4.1c2.3 0 4.1-1.9 4.1-4.1s-1.8-4.1-4.1-4.1zM215.6 233.4c-9.8 0-18.4-6.6-20.8-16-.5-1.8-.7-3.6-.7-5.5s.2-3.8.7-5.5c2.5-9.4 11.1-16 20.8-16 9.8 0 18.3 6.6 20.8 16 .5 1.8.7 3.6.7 5.5s-.2 3.8-.7 5.5c-2.4 9.4-11 16-20.8 16zm0-41.1c-8.9 0-16.6 6-18.9 14.5-.4 1.6-.7 3.3-.7 5s.2 3.4.7 5c2.3 8.6 10 14.5 18.9 14.5 8.9 0 16.6-6 18.9-14.5.4-1.6.7-3.3.7-5s-.2-3.4-.7-5c-2.2-8.5-10-14.5-18.9-14.5z" class="st0"/><path d="M215.6 228c-7.3 0-13.7-4.9-15.6-12-.4-1.3-.5-2.7-.5-4.1 0-1.4.2-2.8.5-4.1 1.9-7.1 8.3-12 15.6-12 7.3 0 13.7 4.9 15.6 12 .4 1.3.5 2.7.5 4.1s-.2 2.8-.5 4.1c-1.8 7-8.2 12-15.6 12zm0-31.3c-6.9 0-12.9 4.6-14.6 11.3a16 16 0 0 0-.5 3.9c0 1.3.2 2.6.5 3.9 1.7 6.6 7.8 11.2 14.6 11.2 6.9 0 12.9-4.6 14.6-11.3.3-1.2.5-2.5.5-3.9s-.2-2.6-.5-3.9c-1.7-6.5-7.7-11.2-14.6-11.2z" class="st0"/><path d="M215.6 223.4c-6.4 0-11.6-5.2-11.6-11.6 0-5.4 3.8-10.2 9.1-11.3.5-.1 1.1.2 1.2.8.1.5-.2 1.1-.8 1.2-4.4.9-7.6 4.9-7.6 9.3 0 5.3 4.3 9.6 9.6 9.6s9.6-4.3 9.6-9.6c0-4.1-2.6-7.7-6.4-9-.5-.2-.8-.8-.6-1.3.2-.5.8-.8 1.3-.6 4.7 1.6 7.8 6 7.8 10.9 0 6.4-5.2 11.6-11.6 11.6z" class="st0"/><path d="M215.6 217c-2.8 0-5.1-2.3-5.1-5.1s2.3-5.1 5.1-5.1 5.1 2.3 5.1 5.1-2.2 5.1-5.1 5.1zm0-9.3c-2.3 0-4.1 1.9-4.1 4.1s1.9 4.1 4.1 4.1c2.3 0 4.1-1.9 4.1-4.1s-1.8-4.1-4.1-4.1zM195.8 218.1h-57.5c-.6 0-1-.4-1-1s.4-1 1-1h56.2c-.3-1.4-.4-2.8-.4-4.3s.1-2.9.4-4.3H65.3c.3 1.4.4 2.8.4 4.3s-.1 2.9-.4 4.3h66c.6 0 1 .4 1 1s-.4 1-1 1H64c-.3 0-.6-.1-.8-.4-.2-.2-.3-.6-.2-.9.4-1.6.7-3.3.7-5s-.2-3.4-.7-5c-.1-.3 0-.6.2-.9.2-.2.5-.4.8-.4h131.8c.3 0 .6.1.8.4.2.2.3.6.2.9-.4 1.6-.7 3.3-.7 5s.2 3.4.7 5c.1.3 0 .6-.2.9-.2.3-.5.4-.8.4zM38.8 93.5c-.6 0-1-.4-1-1v-4.9c0-.6.4-1 1-1s1 .4 1 1v4.9c0 .6-.4 1-1 1z" class="st0"/><path d="M38.8 193c-.2 0-.4-.1-.6-.2-.2-.2-.4-.5-.4-.8V97.2c0-.6.4-1 1-1s1 .4 1 1v93.5c2.8-.6 5.7-.6 8.5 0V48.8l-8.8-5.1-3.7 6.4 3.4 2c.3.2.5.5.5.9v26.9c0 .6-.4 1-1 1s-1-.4-1-1V53.6l-3.8-2.2c-.5-.3-.6-.9-.4-1.4l4.7-8.1c.1-.2.4-.4.6-.5.3-.1.5 0 .8.1l10.1 5.9c.3.2.5.5.5.9V192c0 .3-.1.6-.4.8-.2.2-.6.3-.9.2-3.3-.9-6.8-.9-10 0h-.1z" class="st0"/><path d="M32.2 55.6c-.2 0-.3 0-.5-.1L8.4 42c-3.2-1.8-5.2-5.3-5.2-9 0-1.8.5-3.6 1.4-5.2.9-1.6 2.2-2.9 3.8-3.8.8-.4 1.6-.8 2.5-1 2.7-.7 5.5-.3 7.9 1l23.3 13.5c.2.1.4.4.5.6.1.3 0 .5-.1.8l-9.4 16.2c-.2.3-.5.5-.9.5zm-18.6-31c-.7 0-1.5.1-2.2.3-.7.2-1.4.5-2 .8-1.3.7-2.3 1.8-3.1 3.1-.7 1.3-1.1 2.7-1.1 4.2 0 3 1.6 5.8 4.2 7.3l22.5 13 8.4-14.5-22.5-13c-1.3-.8-2.8-1.2-4.2-1.2zM246.5 218.1h-11c-.3 0-.6-.1-.8-.4-.2-.2-.3-.6-.2-.9.4-1.6.7-3.3.7-5s-.2-3.4-.7-5c-.1-.3 0-.6.2-.9.2-.2.5-.4.8-.4h11c3.5 0 6.3 2.8 6.3 6.3 0 1.7-.6 3.2-1.8 4.4-1.2 1.3-2.8 1.9-4.5 1.9zm-9.7-2h9.8c1.1 0 2.2-.4 3-1.3.8-.8 1.2-1.9 1.2-3 0-2.4-1.9-4.3-4.3-4.3h-9.8c.3 1.4.4 2.8.4 4.3s-.1 2.9-.3 4.3zM150.5 207.6H64c-.5 0-.9-.3-1-.7-.5-1.8-1.2-3.5-2.1-5.1-1.5-2.5-3.6-4.7-6.1-6.3-1.7-1.1-3.6-2-5.6-2.5-.4-.1-.7-.5-.7-1v-86.5c0-.6.4-1 1-1h101.1c.6 0 1 .4 1 1v101.1c-.1.5-.5 1-1.1 1zm-85.8-2h84.8v-99.1H50.4v84.8c1.9.6 3.8 1.4 5.5 2.6 2.7 1.8 5.1 4.2 6.7 7 .9 1.3 1.6 3 2.1 4.7z" class="st0"/><path d="M61.7 202.3c-.4 0-.7-.2-.9-.5-1.5-2.5-3.6-4.7-6.1-6.3-.3-.2-.5-.5-.5-.8v-83.2c0-.6.4-1 1-1h89.3c.6 0 1 .4 1 1V134c0 .6-.4 1-1 1s-1-.4-1-1v-21.6H56.3v81.7c2.4 1.6 4.4 3.8 6 6.2l81.3-.6v-59.2c0-.6.4-1 1-1s1 .4 1 1v60.2c0 .5-.4 1-1 1l-82.9.6zM243.7 165.2c-.6 0-1-.4-1-1v-2.4c0-.6.4-1 1-1s1 .4 1 1v2.4c0 .6-.5 1-1 1z" class="st0"/><path d="M243.7 207.6h-8.2c-.5 0-.9-.3-1-.7-.5-2-1.4-3.9-2.5-5.6-3.6-5.6-9.7-8.9-16.4-8.9-6.6 0-12.8 3.3-16.4 8.9-1.1 1.7-2 3.6-2.5 5.6-.1.4-.5.7-1 .7h-45.3c-.6 0-1-.4-1-1v-93.1c0-.6.4-1 1-1h93.2c.6 0 1 .4 1 1v43.7c0 .6-.4 1-1 1s-1-.4-1-1v-42.7h-91.2v91.1H195c.6-2 1.4-3.8 2.5-5.5 4-6.1 10.8-9.8 18.1-9.8 7.3 0 14.1 3.7 18.1 9.8 1.1 1.7 2 3.5 2.6 5.5h6.4v-36.7c0-.6.4-1 1-1s1 .4 1 1v37.7c0 .5-.5 1-1 1z" class="st0"/><path d="M237.7 201.7h-4.9c-.3 0-.7-.2-.8-.5-1.9-2.8-4.4-5.2-7.4-6.7-2.8-1.5-5.8-2.2-9-2.2s-6.2.7-9 2.2c-3 1.6-5.6 3.9-7.4 6.7-.2.3-.5.5-.8.5h-42c-.6 0-1-.4-1-1v-81.3c0-.6.4-1 1-1h81.3c.6 0 1 .4 1 1v81.3c0 .5-.4 1-1 1zm-4.3-2h3.3v-79.3h-79.3v79.3h40.4c2-2.9 4.7-5.3 7.9-6.9 3.1-1.6 6.4-2.4 9.9-2.4s6.8.8 9.9 2.4c3.2 1.5 5.9 3.9 7.9 6.9zM197.1 114.4h-46.6c-.6 0-1-.4-1-1v-7h-45.6c-.6 0-1-.4-1-1V30.1c0-.6.4-1 1-1H197c.6 0 1 .4 1 1v83.3c.1.6-.4 1-.9 1zm-45.6-2h44.6V31.1H105v73.3h45.6c.6 0 1 .4 1 1v7z" class="st0"/><path d="M191.2 114.4h-40.7c-.6 0-1-.4-1-1v-7h-39.7c-.6 0-1-.4-1-1v-46c0-.6.4-1 1-1s1 .4 1 1v45.1h39.7c.6 0 1 .4 1 1v7h38.7V37.1h-79.3v16.1c0 .6-.4 1-1 1s-1-.4-1-1V36.1c0-.6.4-1 1-1h81.3c.6 0 1 .4 1 1v77.4c0 .5-.5.9-1 .9zM114.1 136.6H85.8c-.6 0-1-.4-1-1v-24.3c0-.6.4-1 1-1h28.3c.6 0 1 .4 1 1v24.3c0 .6-.5 1-1 1zm-27.3-2h26.3v-22.3H86.8v22.3z" class="st0"/><path d="M107.4 136.1h-15c-.3 0-.5-.2-.5-.5v-24.3c0-.3.2-.5.5-.5h15c.3 0 .5.2.5.5v24.3c0 .3-.2.5-.5.5zm-14.4-1h14v-23.3H93v23.3zM164.6 55.8h-28.3c-.6 0-1-.4-1-1V36.1c0-.6.4-1 1-1h28.3c.6 0 1 .4 1 1v18.7c0 .6-.4 1-1 1zm-27.2-2h26.3V37.1h-26.3v16.7z" class="st0"/><path d="M157.9 55.3h-14.8c-.3 0-.5-.2-.5-.5V36.1c0-.3.2-.5.5-.5h14.8c.3 0 .5.2.5.5v18.7c0 .3-.2.5-.5.5zm-14.3-1h13.8V36.6h-13.8v17.7zM211.2 136.6h-28.3c-.6 0-1-.4-1-1v-16.3c0-.6.4-1 1-1h28.3c.6 0 1 .4 1 1v16.3c0 .6-.4 1-1 1zm-27.3-2h26.3v-14.3h-26.3v14.3z" class="st0"/><path d="M205.4 136.1h-16.7c-.3 0-.5-.2-.5-.5v-16.3c0-.3.2-.5.5-.5h16.7c.3 0 .5.2.5.5v16.3c0 .3-.2.5-.5.5zm-16.2-1h15.7v-15.3h-15.7v15.3zM128.6 194.6H71.3c-.6 0-1-.4-1-1v-16.8c0-.6.4-1 1-1h57.4c.6 0 1 .4 1 1v16.8c-.1.6-.5 1-1.1 1zm-56.3-2h55.4v-14.8H72.3v14.8z" class="st0"/><path d="M124.7 190.2H75.2c-.3 0-.5-.2-.5-.5v-8.9c0-.3.2-.5.5-.5h32.2c.3 0 .5.2.5.5s-.2.5-.5.5H75.7v7.9h48.5v-7.9H113c-.3 0-.5-.2-.5-.5s.2-.5.5-.5h11.7c.3 0 .5.2.5.5v8.9c0 .2-.2.5-.5.5zM225.8 194.6h-.7c-.2 0-.3 0-.5-.1-2.8-1.5-5.8-2.2-9-2.2s-6.2.7-9 2.2c-.1.1-.3.1-.5.1h-37.8c-.6 0-1-.4-1-1v-16.8c0-.6.4-1 1-1h22.8c.6 0 1 .4 1 1s-.4 1-1 1h-21.8v14.8h36.5c3-1.5 6.3-2.3 9.7-2.3 3.2 0 6.3.7 9.1 2v-14.5h-27.7c-.6 0-1-.4-1-1s.4-1 1-1h28.7c.6 0 1 .4 1 1v16.8c.2.6-.3 1-.8 1z" class="st0"/><path d="M221.8 190.2h-49.5c-.3 0-.5-.2-.5-.5v-8.9c0-.3.2-.5.5-.5h49.5c.3 0 .5.2.5.5v8.9c0 .2-.2.5-.5.5zm-49-1h48.5v-7.9h-48.5v7.9zM34.6 51c-.1 0-.2 0-.2-.1L3.9 33.4c-.2-.1-.2-.3-.3-.4 0-1.7.5-3.4 1.3-4.9.9-1.5 2.1-2.8 3.6-3.6.2-.1.3-.1.5 0l11.1 6.4c.2.1.3.4.2.7-.1.2-.4.3-.7.2L8.9 25.4c-1.2.8-2.3 1.8-3 3.1-.7 1.3-1.1 2.7-1.2 4.1l29.7 17.1 4.2-7.3-15-8.4c-.2-.1-.3-.4-.2-.7s.4-.3.7-.2L39.5 42c.2.1.3.4.2.7L35 50.8c-.1.1-.3.2-.4.2zM172.4 114.4h-21.8c-.6 0-1-.4-1-1v-7h-20.8c-.6 0-1-.4-1-1V93.9c0-.6.4-1 1-1h28.5c.6 0 1 .4 1 1s-.4 1-1 1h-27.5v9.6h20.8c.6 0 1 .4 1 1v7h19.8V94.9h-9.9c-.6 0-1-.4-1-1s.4-1 1-1h10.9c.6 0 1 .4 1 1v19.6c0 .5-.5.9-1 .9z" class="st0"/><path d="M168.2 113.9h-17.7c-.3 0-.5-.2-.5-.5V106h-17.2c-.3 0-.5-.2-.5-.5V98c0-.3.2-.5.5-.5h35.4c.3 0 .5.2.5.5v15.4c0 .3-.2.5-.5.5zm-17.2-1h16.7V98.5h-34.4v6.5h17.2c.3 0 .5.2.5.5v7.4z" class="st0"/></svg>