<?xml version="1.0" encoding="utf-8"?>
<!-- Generator: Adobe Illustrator 22.1.0, SVG Export Plug-In . SVG Version: 6.00 Build 0)  -->
<svg version="1.1" id="Layer_1" xmlns="http://www.w3.org/2000/svg" xmlns:xlink="http://www.w3.org/1999/xlink" x="0px" y="0px"
	 viewBox="0 0 256 256" style="enable-background:new 0 0 256 256;" xml:space="preserve">
<style type="text/css">
	.st0{fill:#48386A;}
</style>
<g>
	<g>
		<path class="st0" d="M247,249.4H9c-0.3,0-0.6-0.1-0.8-0.3c-0.2-0.2-0.3-0.5-0.2-0.8L31.5,91.7c0.1-0.5,0.5-0.9,1-0.9h55.8
			c0.4,0,0.8,0.2,0.9,0.6c0.9,1.9,1.7,3.9,2.7,5.8c0.9,1.9,1.8,3.9,2.8,5.8c12.8,26.3,29.5,53.7,33.4,60.1
			c3.9-6.4,20.6-33.8,33.4-60.1c0.9-2,1.9-3.9,2.8-5.8c0.9-2,1.8-3.9,2.7-5.8c0.2-0.4,0.5-0.6,0.9-0.6h55.8c0.5,0,0.9,0.4,1,0.9
			l6.2,41.6c0.1,0.5-0.3,1.1-0.8,1.1c-0.5,0.1-1.1-0.3-1.1-0.8l-6.1-40.7h-54.3c-0.8,1.7-1.6,3.5-2.4,5.3c-0.9,2-1.8,3.9-2.8,5.9
			c-14.5,29.9-34.2,61.3-34.4,61.6c-0.4,0.6-1.3,0.6-1.7,0c-0.2-0.3-19.8-31.7-34.4-61.6c-1-2-1.9-3.9-2.8-5.9
			c-0.8-1.8-1.6-3.5-2.4-5.3H33.3L10.2,247.4h235.7l-15.4-102.5c-0.1-0.5,0.3-1.1,0.8-1.1c0.5-0.1,1.1,0.3,1.1,0.8L248,248.2
			c0,0.3,0,0.6-0.2,0.8C247.6,249.2,247.3,249.4,247,249.4z"/>
	</g>
	<g>
		<path class="st0" d="M230.9,141.6c-0.5,0-0.9-0.4-1-0.9l-0.5-3.3c-0.1-0.5,0.3-1.1,0.8-1.1c0.5-0.1,1.1,0.3,1.1,0.8l0.5,3.3
			c0.1,0.5-0.3,1.1-0.8,1.1C231,141.6,230.9,141.6,230.9,141.6z"/>
	</g>
	<g>
		<path class="st0" d="M240.2,243h-39.7c-0.3,0-0.5-0.2-0.5-0.5s0.2-0.5,0.5-0.5h39.1L218.1,98.2h-52.7c-0.9,1.9-1.8,3.7-2.7,5.6
			c-14.5,29.9-34.1,61.3-34.3,61.6c-0.2,0.3-0.7,0.3-0.8,0c-0.2-0.3-19.8-31.7-34.3-61.6c-0.9-1.9-1.8-3.7-2.7-5.6H37.9l-3.2,21.3
			c0,0.3-0.3,0.5-0.6,0.4c-0.3,0-0.5-0.3-0.4-0.6L37,97.6c0-0.2,0.2-0.4,0.5-0.4h53.4c0.2,0,0.4,0.1,0.5,0.3
			c0.9,1.9,1.8,3.9,2.8,5.9c13.3,27.4,30.9,56.1,33.9,60.8c2.9-4.7,20.6-33.4,33.9-60.8c0.9-2,1.9-3.9,2.8-5.9
			c0.1-0.2,0.3-0.3,0.5-0.3h53.4c0.2,0,0.5,0.2,0.5,0.4l21.7,144.8c0,0.1,0,0.3-0.1,0.4C240.5,242.9,240.3,243,240.2,243z"/>
	</g>
	<g>
		<path class="st0" d="M193.5,243H15.8c-0.1,0-0.3-0.1-0.4-0.2c-0.1-0.1-0.1-0.3-0.1-0.4l17.6-117.5c0-0.3,0.3-0.5,0.6-0.4
			c0.3,0,0.5,0.3,0.4,0.6L16.4,242h177.1c0.3,0,0.5,0.2,0.5,0.5S193.8,243,193.5,243z"/>
	</g>
	<g>
		<path class="st0" d="M233.4,237.6H22.6c-0.3,0-0.6-0.1-0.8-0.3s-0.3-0.5-0.2-0.8l19.9-133.1c0.1-0.5,0.5-0.9,1-0.9h51.2
			c0.4,0,0.7,0.2,0.9,0.6c4.2,8.7,9.2,18.3,14.9,28.5c8.4,15.1,16,27.6,18.5,31.6c0.3-0.5,0.7-1.2,1.2-2c2.1-3.5,6.5-10.6,11.7-19.8
			c5.5-9.5,13.5-23.9,20.5-38.3c0.2-0.3,0.5-0.6,0.9-0.6h51.2c0.5,0,0.9,0.4,1,0.9l19.9,133.1c0,0.3,0,0.6-0.2,0.8
			C234,237.5,233.7,237.6,233.4,237.6z M23.8,235.6h208.5l-19.6-131.1h-49.7c-7,14.3-14.9,28.5-20.3,37.9
			c-5.2,9.1-9.6,16.3-11.7,19.8c-1.3,2.2-2.1,3.4-2.1,3.4c-0.2,0.3-0.5,0.5-0.8,0.5c0,0,0,0,0,0c-0.3,0-0.7-0.2-0.8-0.5
			c-0.1-0.1-9.1-14.6-19.4-33c-5.6-10.1-10.5-19.5-14.7-28.1H43.4L23.8,235.6z"/>
	</g>
	<g>
		<path class="st0" d="M128,91.5c-18.7,0-33.8-15.2-33.8-33.8s15.2-33.8,33.8-33.8s33.8,15.2,33.8,33.8S146.7,91.5,128,91.5z
			 M128,25.8c-17.5,0-31.8,14.3-31.8,31.8s14.3,31.8,31.8,31.8s31.8-14.3,31.8-31.8S145.5,25.8,128,25.8z"/>
	</g>
	<g>
		<path class="st0" d="M128,166.1L128,166.1c-0.3,0-0.7-0.2-0.8-0.5c0,0-3.1-4.9-7.6-12.6c-7.3-12.3-17.9-30.9-26.7-49.1
			c-1-2-1.9-3.9-2.8-5.9c-0.9-2-1.8-3.9-2.7-5.9C80.5,76.6,77,65,77,57.6c0-6.9,1.3-13.6,4-19.9c0.2-0.5,0.8-0.7,1.3-0.5
			c0.5,0.2,0.7,0.8,0.5,1.3C80.3,44.6,79,51,79,57.6c0,7.1,3.4,18.4,10.2,33.8c0.9,1.9,1.7,3.9,2.7,5.8c0.9,1.9,1.8,3.9,2.8,5.8
			c8.8,18.1,19.3,36.6,26.6,48.9c3.1,5.3,5.6,9.2,6.8,11.2c1.9-3.1,6.9-11.3,12.9-21.8c5.5-9.5,13.5-23.9,20.5-38.3
			c0.9-2,1.9-3.9,2.8-5.8c0.9-2,1.8-3.9,2.7-5.8c6.8-15.3,10.2-26.7,10.2-33.8c0-27-22-49-49-49c-17.2,0-32.9,8.8-41.9,23.5
			c-0.3,0.5-0.9,0.6-1.4,0.3c-0.5-0.3-0.6-0.9-0.3-1.4C93.8,15.8,110.1,6.6,128,6.6c28.1,0,51,22.9,51,51c0,7.4-3.5,19-10.4,34.6
			c-0.9,1.9-1.8,3.9-2.7,5.9c-0.9,2-1.8,3.9-2.8,5.9c-7.1,14.5-15.1,28.9-20.6,38.5c-7.7,13.5-13.7,23.1-13.8,23.2
			C128.7,165.9,128.3,166.1,128,166.1z"/>
	</g>
	<g>
		<path class="st0" d="M128,91.5c-18.7,0-33.8-15.2-33.8-33.8s15.2-33.8,33.8-33.8s33.8,15.2,33.8,33.8S146.7,91.5,128,91.5z
			 M128,25.8c-17.5,0-31.8,14.3-31.8,31.8s14.3,31.8,31.8,31.8s31.8-14.3,31.8-31.8S145.5,25.8,128,25.8z"/>
	</g>
	<g>
		<path class="st0" d="M128,91.5c-18.7,0-33.8-15.2-33.8-33.8s15.2-33.8,33.8-33.8s33.8,15.2,33.8,33.8S146.7,91.5,128,91.5z
			 M128,25.8c-17.5,0-31.8,14.3-31.8,31.8s14.3,31.8,31.8,31.8s31.8-14.3,31.8-31.8S145.5,25.8,128,25.8z"/>
	</g>
	<g>
		<path class="st0" d="M128,85.1c-15.1,0-27.5-12.3-27.5-27.5s12.3-27.5,27.5-27.5c11,0,20.9,6.5,25.2,16.7c0.1,0.3,0,0.5-0.3,0.7
			c-0.3,0.1-0.5,0-0.7-0.3c-4.2-9.7-13.7-16-24.3-16c-14.6,0-26.5,11.9-26.5,26.5s11.9,26.5,26.5,26.5s26.5-11.9,26.5-26.5
			c0-1.5-0.1-3-0.4-4.5c0-0.3,0.1-0.5,0.4-0.6c0.3,0,0.5,0.1,0.6,0.4c0.3,1.5,0.4,3.1,0.4,4.6C155.5,72.8,143.1,85.1,128,85.1z"/>
	</g>
	<g>
		<path class="st0" d="M223.8,173h-76.4c-0.3,0-0.5-0.2-0.5-0.5v-2.4c0-0.2,0.1-0.3,0.2-0.4l69.3-45c0.2-0.2,0.5-0.1,0.7,0.1
			c0.2,0.2,0.1,0.5-0.1,0.7l-69.1,44.8v1.6h75.9c0.3,0,0.5,0.2,0.5,0.5S224.1,173,223.8,173z"/>
	</g>
	<g>
		<path class="st0" d="M108.7,155.5C108.6,155.5,108.6,155.5,108.7,155.5l-71.8-13.9c-0.3-0.1-0.4-0.3-0.4-0.6l5.6-37.5
			c0-0.2,0.2-0.4,0.5-0.4h51.2c0.2,0,0.4,0.1,0.4,0.3c4.2,8.7,9.3,18.3,14.9,28.5c0,0.1,0.1,0.2,0.1,0.2V155c0,0.1-0.1,0.3-0.2,0.4
			C108.9,155.5,108.8,155.5,108.7,155.5z M37.5,140.7l70.7,13.7v-22.1c-5.6-10.1-10.6-19.6-14.8-28.2H43L37.5,140.7z"/>
	</g>
	<g>
		<path class="st0" d="M135.6,237.6h-15.2c-0.6,0-1-0.4-1-1v-51.3l-86.5-16.7c-0.5-0.1-0.9-0.6-0.8-1.1l2.2-14.8
			c0-0.3,0.2-0.5,0.4-0.7c0.2-0.2,0.5-0.2,0.8-0.2l83.9,16.3v-15.5c0-0.5,0.3-0.8,0.7-1c0.4-0.1,0.9,0.1,1.1,0.5
			c3.1,5.3,5.6,9.2,6.8,11.2c1.9-3.1,6.9-11.3,12.9-21.8c0.1-0.1,0.2-0.3,0.3-0.3l59.2-38.4c0.2-0.1,0.4-0.2,0.5-0.2h12.4
			c0.5,0,0.9,0.4,1,0.9l1.3,8.8c0.1,0.4-0.1,0.8-0.4,1l-42.4,27.5c-0.5,0.3-1.1,0.2-1.4-0.3s-0.2-1.1,0.3-1.4l41.9-27.2l-1.1-7.4
			h-11.3l-58.8,38.1c-7.7,13.4-13.6,22.9-13.7,23c-0.2,0.3-0.5,0.5-0.8,0.5l0,0c-0.3,0-0.7-0.2-0.8-0.5c0,0-2.3-3.6-5.8-9.5v13
			c0,0.3-0.1,0.6-0.4,0.8s-0.5,0.3-0.8,0.2l-84.1-16.3l-1.9,12.9l86.4,16.7c0.5,0.1,0.8,0.5,0.8,1v51.2h13.2v-36.2c0-0.6,0.4-1,1-1
			h91l-2-13.2h-89.1c-0.6,0-1-0.4-1-1v-20.4c0-0.3,0.2-0.7,0.5-0.8l30-19.4c0.5-0.3,1.1-0.2,1.4,0.3c0.3,0.5,0.2,1.1-0.3,1.4
			l-29.5,19.1v18.9h88.9c0.5,0,0.9,0.4,1,0.9l2.3,15.2c0,0.3,0,0.6-0.2,0.8s-0.5,0.3-0.8,0.3h-91.2v36.2
			C136.6,237.2,136.2,237.6,135.6,237.6z"/>
	</g>
	<g>
		<path class="st0" d="M178,228h-30.7c-0.3,0-0.5-0.2-0.5-0.5v-19.1c0-0.3,0.2-0.5,0.5-0.5H178c0.3,0,0.5,0.2,0.5,0.5v7.4
			c0,0.3-0.2,0.5-0.5,0.5s-0.5-0.2-0.5-0.5v-6.9h-29.7V227h29.7v-6.8c0-0.3,0.2-0.5,0.5-0.5s0.5,0.2,0.5,0.5v7.3
			C178.5,227.7,178.3,228,178,228z"/>
	</g>
	<g>
		<path class="st0" d="M232,228H189c-0.3,0-0.5-0.2-0.5-0.5v-19.2c0-0.3,0.2-0.5,0.5-0.5h21.5c0.3,0,0.5,0.2,0.5,0.5
			s-0.2,0.5-0.5,0.5h-21V227h42l-2.7-18.2h-12.9c-0.3,0-0.5-0.2-0.5-0.5s0.2-0.5,0.5-0.5h13.3c0.2,0,0.5,0.2,0.5,0.4l2.9,19.2
			c0,0.1,0,0.3-0.1,0.4C232.3,227.9,232.2,228,232,228z"/>
	</g>
	<g>
		<path class="st0" d="M109.2,229.5H23.7c-0.1,0-0.3-0.1-0.4-0.2c-0.1-0.1-0.1-0.3-0.1-0.4l7.5-50.2c0-0.1,0.1-0.3,0.2-0.3
			s0.3-0.1,0.4-0.1l41.5,8.1c0.3,0.1,0.4,0.3,0.4,0.6c-0.1,0.3-0.3,0.4-0.6,0.4l-41-8l-7.4,49.1h84.4l0.8-33.9l-28.4-5.6
			c-0.3-0.1-0.4-0.3-0.4-0.6c0.1-0.3,0.3-0.5,0.6-0.4l28.8,5.6c0.2,0,0.4,0.3,0.4,0.5l-0.8,34.8
			C109.7,229.3,109.5,229.5,109.2,229.5z"/>
	</g>
</g>
</svg>
