<?xml version="1.0" encoding="utf-8"?>
<!-- Generator: Adobe Illustrator 22.1.0, SVG Export Plug-In . SVG Version: 6.00 Build 0)  -->
<svg version="1.1" id="Layer_1" xmlns="http://www.w3.org/2000/svg" xmlns:xlink="http://www.w3.org/1999/xlink" x="0px" y="0px"
	 viewBox="0 0 256 256" style="enable-background:new 0 0 256 256;" xml:space="preserve">
<style type="text/css">
	.st0{fill:#48386A;}
</style>
<g>
	<g>
		<path class="st0" d="M251,228.8H41.7c-0.6,0-1-0.4-1-1s0.4-1,1-1H250V217H6v9.7h27.8c0.6,0,1,0.4,1,1s-0.4,1-1,1H5
			c-0.6,0-1-0.4-1-1V216c0-0.6,0.4-1,1-1h246c0.6,0,1,0.4,1,1v11.7C252,228.3,251.6,228.8,251,228.8z"/>
	</g>
	<g>
		<path class="st0" d="M216.7,217H39.3c-0.6,0-1-0.4-1-1v-70c0-0.6,0.4-1,1-1s1,0.4,1,1v69h175.3v-88.7H40.3v12.1c0,0.6-0.4,1-1,1
			s-1-0.4-1-1v-13.1c0-0.6,0.4-1,1-1h177.3c0.6,0,1,0.4,1,1V216C217.7,216.6,217.2,217,216.7,217z"/>
	</g>
	<g>
		<path class="st0" d="M84,117.4H42.3c-0.3,0-0.6-0.1-0.8-0.4c-0.2-0.2-0.3-0.6-0.2-0.8c1.3-5.8,3.3-11.5,5.8-16.9
			c0.2-0.4,0.5-0.6,0.9-0.6h8.9c0.6,0,1,0.4,1,1s-0.4,1-1,1h-8.2c-2.1,4.7-3.8,9.7-5.1,14.7H83v-14.7H64.6c-0.6,0-1-0.4-1-1
			s0.4-1,1-1H84c0.6,0,1,0.4,1,1v16.7C85,117,84.6,117.4,84,117.4z"/>
	</g>
	<g>
		<path class="st0" d="M79,111.9H48.8c-0.2,0-0.3-0.1-0.4-0.2s-0.1-0.3-0.1-0.4c0.7-2.3,1.5-4.6,2.5-6.8c0.1-0.2,0.3-0.3,0.5-0.3H79
			c0.3,0,0.5,0.2,0.5,0.5v6.7C79.5,111.7,79.3,111.9,79,111.9z M49.5,110.9h29v-5.7H51.6C50.8,107.1,50.1,109,49.5,110.9z"/>
	</g>
	<g>
		<path class="st0" d="M150.3,117.4h-11.5c-0.6,0-1-0.4-1-1s0.4-1,1-1h10.5v-14.7h-42.7v14.7h25c0.6,0,1,0.4,1,1s-0.4,1-1,1h-26
			c-0.6,0-1-0.4-1-1V99.7c0-0.6,0.4-1,1-1h44.7c0.6,0,1,0.4,1,1v16.7C151.3,117,150.9,117.4,150.3,117.4z"/>
	</g>
	<g>
		<path class="st0" d="M145.3,111.9h-34.7c-0.3,0-0.5-0.2-0.5-0.5v-6.7c0-0.3,0.2-0.5,0.5-0.5h34.7c0.3,0,0.5,0.2,0.5,0.5v6.7
			C145.8,111.7,145.6,111.9,145.3,111.9z M111.2,110.9h33.7v-5.7h-33.7V110.9z"/>
	</g>
	<g>
		<path class="st0" d="M177.7,90H78.3c-0.6,0-1-0.4-1-1V62.4c0-0.6,0.4-1,1-1h99.3c0.6,0,1,0.4,1,1V89C178.7,89.6,178.2,90,177.7,90
			z M79.3,88h97.3V63.4H79.3V88z"/>
	</g>
	<g>
		<path class="st0" d="M108.3,67.9h-3.8c-0.3,0-0.5-0.2-0.5-0.5s0.2-0.5,0.5-0.5h3.8c0.3,0,0.5,0.2,0.5,0.5S108.5,67.9,108.3,67.9z"
			/>
	</g>
	<g>
		<path class="st0" d="M172.7,84.5H83.3c-0.3,0-0.5-0.2-0.5-0.5V67.4c0-0.3,0.2-0.5,0.5-0.5h17.2c0.3,0,0.5,0.2,0.5,0.5
			s-0.2,0.5-0.5,0.5H83.8v15.6h88.3V67.9h-61.5c-0.3,0-0.5-0.2-0.5-0.5s0.2-0.5,0.5-0.5h62c0.3,0,0.5,0.2,0.5,0.5V84
			C173.2,84.3,172.9,84.5,172.7,84.5z"/>
	</g>
	<g>
		<path class="st0" d="M213.7,117.4H172c-0.6,0-1-0.4-1-1V99.7c0-0.6,0.4-1,1-1h36c0.4,0,0.7,0.2,0.9,0.6c2.5,5.4,4.4,11.1,5.8,16.9
			c0.1,0.3,0,0.6-0.2,0.8C214.3,117.3,214,117.4,213.7,117.4z M173,115.4h39.5c-1.2-5-2.9-10-5.1-14.7H173V115.4z"/>
	</g>
	<g>
		<path class="st0" d="M207.2,111.9H177c-0.3,0-0.5-0.2-0.5-0.5v-6.7c0-0.3,0.2-0.5,0.5-0.5h15.9c0.3,0,0.5,0.2,0.5,0.5
			s-0.2,0.5-0.5,0.5h-15.4v5.7h29c-0.6-1.9-1.3-3.8-2.1-5.7h-5.2c-0.3,0-0.5-0.2-0.5-0.5s0.2-0.5,0.5-0.5h5.5c0.2,0,0.4,0.1,0.5,0.3
			c0.9,2.2,1.7,4.5,2.5,6.8c0,0.2,0,0.3-0.1,0.4S207.4,111.9,207.2,111.9z"/>
	</g>
	<g>
		<path class="st0" d="M211.5,216.5H44.5c-0.3,0-0.5-0.2-0.5-0.5v-85.5c0-0.3,0.2-0.5,0.5-0.5h166.9c0.3,0,0.5,0.2,0.5,0.5V216
			C212,216.3,211.7,216.5,211.5,216.5z M45,215.5H211V131H45V215.5z"/>
	</g>
	<g>
		<path class="st0" d="M211.5,216.5H44.5c-0.3,0-0.5-0.2-0.5-0.5v-17c0-0.3,0.2-0.5,0.5-0.5h166.9c0.3,0,0.5,0.2,0.5,0.5v17
			C212,216.3,211.7,216.5,211.5,216.5z M45,215.5H211v-16H45V215.5z"/>
	</g>
	<g>
		<path class="st0" d="M211.5,199.4H44.5c-0.3,0-0.5-0.2-0.5-0.5v-17c0-0.3,0.2-0.5,0.5-0.5h166.9c0.3,0,0.5,0.2,0.5,0.5v17
			C212,199.2,211.7,199.4,211.5,199.4z M45,198.4H211v-16H45V198.4z"/>
	</g>
	<g>
		<path class="st0" d="M211.5,182.3H44.5c-0.3,0-0.5-0.2-0.5-0.5v-17c0-0.3,0.2-0.5,0.5-0.5H136c0.3,0,0.5,0.2,0.5,0.5
			s-0.2,0.5-0.5,0.5H45v16H211v-16h-65.6c-0.3,0-0.5-0.2-0.5-0.5s0.2-0.5,0.5-0.5h66.1c0.3,0,0.5,0.2,0.5,0.5v17
			C212,182.1,211.7,182.3,211.5,182.3z"/>
	</g>
	<g>
		<path class="st0" d="M211.5,165.2h-66.1c-0.3,0-0.5-0.2-0.5-0.5s0.2-0.5,0.5-0.5H211v-16H45v16h91c0.3,0,0.5,0.2,0.5,0.5
			s-0.2,0.5-0.5,0.5H44.5c-0.3,0-0.5-0.2-0.5-0.5v-17c0-0.3,0.2-0.5,0.5-0.5h166.9c0.3,0,0.5,0.2,0.5,0.5v17
			C212,165,211.7,165.2,211.5,165.2z"/>
	</g>
	<g>
		<path class="st0" d="M211.5,148.1H44.5c-0.3,0-0.5-0.2-0.5-0.5v-17c0-0.3,0.2-0.5,0.5-0.5h166.9c0.3,0,0.5,0.2,0.5,0.5v17
			C212,147.9,211.7,148.1,211.5,148.1z M45,147.1H211v-16H45V147.1z"/>
	</g>
	<g>
		<path class="st0" d="M236,217H20c-0.6,0-1-0.4-1-1v-79.8c0-60.1,48.9-109,109-109c19.3,0,38.3,5.1,55,14.9
			c0.5,0.3,0.6,0.9,0.4,1.4c-0.3,0.5-0.9,0.6-1.4,0.4c-16.3-9.6-35-14.6-53.9-14.6c-59,0-107,48-107,107V215h214v-78.8
			c0-35-17.2-67.9-46.1-87.9c-0.5-0.3-0.6-0.9-0.3-1.4c0.3-0.5,0.9-0.6,1.4-0.3c29.4,20.4,47,53.9,47,89.6V216
			C237,216.6,236.6,217,236,217z"/>
	</g>
	<g>
		<path class="st0" d="M226,217H30c-0.6,0-1-0.4-1-1v-79.8c0-54.6,44.4-99,99-99c54.6,0,99,44.4,99,99v5.3c0,0.6-0.4,1-1,1
			s-1-0.4-1-1v-5.3c0-53.5-43.5-97-97-97s-97,43.5-97,97V215h194v-67.5c0-0.6,0.4-1,1-1s1,0.4,1,1V216C227,216.6,226.6,217,226,217z
			"/>
	</g>
	<g>
		<path class="st0" d="M251,222.4H120.8c-0.3,0-0.5-0.2-0.5-0.5s0.2-0.5,0.5-0.5H251c0.3,0,0.5,0.2,0.5,0.5S251.3,222.4,251,222.4z"
			/>
	</g>
	<g>
		<path class="st0" d="M114,222.4H5c-0.3,0-0.5-0.2-0.5-0.5s0.2-0.5,0.5-0.5h109c0.3,0,0.5,0.2,0.5,0.5S114.3,222.4,114,222.4z"/>
	</g>
	<g>
		<path class="st0" d="M20,217h-8.8c-0.6,0-1-0.4-1-1v-24.3c0-0.6,0.4-1,1-1s1,0.4,1,1V215H19v-41h-6.8v11.2c0,0.6-0.4,1-1,1
			s-1-0.4-1-1V173c0-0.6,0.4-1,1-1H20c0.6,0,1,0.4,1,1v43C21,216.6,20.6,217,20,217z"/>
	</g>
	<g>
		<path class="st0" d="M244.8,217H236c-0.6,0-1-0.4-1-1v-43c0-0.6,0.4-1,1-1h8.8c0.6,0,1,0.4,1,1v43
			C245.8,216.6,245.3,217,244.8,217z M237,215h6.8v-41H237V215z"/>
	</g>
</g>
</svg>
