<?xml version="1.0" encoding="utf-8"?>
<!-- Generator: Adobe Illustrator 22.1.0, SVG Export Plug-In . SVG Version: 6.00 Build 0)  -->
<svg version="1.1" id="Layer_1" xmlns="http://www.w3.org/2000/svg" xmlns:xlink="http://www.w3.org/1999/xlink" x="0px" y="0px"
	 viewBox="0 0 256 256" style="enable-background:new 0 0 256 256;" xml:space="preserve">
<style type="text/css">
	.st0{fill:#48386A;}
</style>
<g>
	<g>
		<path class="st0" d="M170.9,76.2H85.1c-0.3,0-0.6-0.2-0.8-0.4c-0.2-0.3-0.2-0.6-0.1-0.9L94.4,44c0.1-0.4,0.5-0.7,0.9-0.7h9.8
			c0.6,0,1,0.4,1,1v22.2h43.7V44.3c0-0.6,0.4-1,1-1h9.8c0.4,0,0.8,0.3,0.9,0.7l10.2,30.9c0.1,0.3,0,0.6-0.1,0.9
			C171.5,76,171.2,76.2,170.9,76.2z M86.5,74.2h83l-9.5-28.9h-8.1v22.2c0,0.6-0.4,1-1,1h-45.7c-0.6,0-1-0.4-1-1V45.3h-8.1L86.5,74.2
			z"/>
	</g>
	<g>
		<path class="st0" d="M150.8,68.5h-45.7c-0.6,0-1-0.4-1-1V44.3c0-0.6,0.4-1,1-1h45.7c0.6,0,1,0.4,1,1v23.2
			C151.8,68.1,151.4,68.5,150.8,68.5z M106.2,66.5h43.7V45.3h-43.7V66.5z"/>
	</g>
	<g>
		<path class="st0" d="M150.8,68.5h-45.7c-0.6,0-1-0.4-1-1V44.3c0-0.6,0.4-1,1-1h45.7c0.6,0,1,0.4,1,1v23.2
			C151.8,68.1,151.4,68.5,150.8,68.5z M106.2,66.5h43.7V45.3h-43.7V66.5z"/>
	</g>
	<g>
		<path class="st0" d="M145.7,62.9h-5.9c-0.3,0-0.5-0.2-0.5-0.5s0.2-0.5,0.5-0.5h5.4V44.8h-34.5v17.1H135c0.3,0,0.5,0.2,0.5,0.5
			s-0.2,0.5-0.5,0.5h-24.7c-0.3,0-0.5-0.2-0.5-0.5V44.3c0-0.3,0.2-0.5,0.5-0.5h35.5c0.3,0,0.5,0.2,0.5,0.5v18.1
			C146.2,62.7,146,62.9,145.7,62.9z"/>
	</g>
	<g>
		<path class="st0" d="M247.5,63.7h-80.7c-0.4,0-0.8-0.3-0.9-0.7l-2-6c-0.1-0.3,0-0.6,0.1-0.9c0.2-0.3,0.5-0.4,0.8-0.4h82.7
			c2.2,0,4,1.8,4,4v0C251.5,61.9,249.7,63.7,247.5,63.7z M167.5,61.7h80c1.1,0,2-0.9,2-2v0c0-1.1-0.9-2-2-2h-81.3L167.5,61.7z"/>
	</g>
	<g>
		<path class="st0" d="M223.1,57.7h-21.6c-0.6,0-1-0.4-1-1V46c0-0.6,0.4-1,1-1h21.6c0.6,0,1,0.4,1,1v10.8
			C224.1,57.3,223.6,57.7,223.1,57.7z M202.5,55.7h19.6V47h-19.6V55.7z"/>
	</g>
	<g>
		<path class="st0" d="M215.7,47h-6.8c-0.6,0-1-0.4-1-1V35.2c0-0.6,0.4-1,1-1h6.8c0.6,0,1,0.4,1,1V46C216.7,46.5,216.3,47,215.7,47z
			 M209.9,45h4.8v-8.8h-4.8V45z"/>
	</g>
	<g>
		<path class="st0" d="M232.9,36.2h-3.7c-0.6,0-1-0.4-1-1s0.4-1,1-1h3.7c2.4,0,4.3-1.9,4.3-4.3v-0.2c0-2.4-1.9-4.3-4.3-4.3h-41.2
			c-2.4,0-4.3,1.9-4.3,4.3v0.2c0,2.4,1.9,4.3,4.3,4.3h31.4c0.6,0,1,0.4,1,1s-0.4,1-1,1h-31.4c-3.5,0-6.3-2.8-6.3-6.3v-0.2
			c0-3.5,2.8-6.3,6.3-6.3h41.2c3.5,0,6.3,2.8,6.3,6.3v0.2C239.2,33.4,236.3,36.2,232.9,36.2z"/>
	</g>
	<g>
		<path class="st0" d="M89.2,63.7H36.5c-0.6,0-1-0.4-1-1s0.4-1,1-1h52l1.3-4H8.5c-1.1,0-2,0.9-2,2c0,1.1,0.9,2,2,2h22.2
			c0.6,0,1,0.4,1,1s-0.4,1-1,1H8.5c-2.2,0-4-1.8-4-4c0-2.2,1.8-4,4-4h82.7c0.3,0,0.6,0.2,0.8,0.4c0.2,0.3,0.2,0.6,0.1,0.9l-2,6
			C90.1,63.5,89.7,63.7,89.2,63.7z"/>
	</g>
	<g>
		<path class="st0" d="M54.5,57.7H32.9c-0.6,0-1-0.4-1-1V46c0-0.6,0.4-1,1-1h21.6c0.6,0,1,0.4,1,1v10.8C55.5,57.3,55,57.7,54.5,57.7
			z M33.9,55.7h19.6V47H33.9V55.7z"/>
	</g>
	<g>
		<path class="st0" d="M47.1,47h-6.8c-0.6,0-1-0.4-1-1V35.2c0-0.6,0.4-1,1-1h6.8c0.6,0,1,0.4,1,1V46C48.1,46.5,47.7,47,47.1,47z
			 M41.3,45h4.8v-8.8h-4.8V45z"/>
	</g>
	<g>
		<path class="st0" d="M64.3,36.2H23.1c-3.5,0-6.3-2.8-6.3-6.3v-0.2c0-3.5,2.8-6.3,6.3-6.3h41.2c3.5,0,6.3,2.8,6.3,6.3v0.2
			C70.6,33.4,67.7,36.2,64.3,36.2z M23.1,25.4c-2.4,0-4.3,1.9-4.3,4.3v0.2c0,2.4,1.9,4.3,4.3,4.3h41.2c2.4,0,4.3-1.9,4.3-4.3v-0.2
			c0-2.4-1.9-4.3-4.3-4.3H23.1z"/>
	</g>
	<g>
		<path class="st0" d="M69.6,30.3H55.7c-0.3,0-0.5-0.2-0.5-0.5s0.2-0.5,0.5-0.5h13.9c0.3,0,0.5,0.2,0.5,0.5S69.8,30.3,69.6,30.3z"/>
	</g>
	<g>
		<path class="st0" d="M49.8,30.3h-32c-0.3,0-0.5-0.2-0.5-0.5s0.2-0.5,0.5-0.5h32c0.3,0,0.5,0.2,0.5,0.5S50.1,30.3,49.8,30.3z"/>
	</g>
	<g>
		<path class="st0" d="M238.2,30.3h-51.7c-0.3,0-0.5-0.2-0.5-0.5s0.2-0.5,0.5-0.5h51.7c0.3,0,0.5,0.2,0.5,0.5S238.4,30.3,238.2,30.3
			z"/>
	</g>
	<g>
		<path class="st0" d="M151.7,96.6h-47.5c-0.6,0-1-0.4-1-1V75.2c0-0.6,0.4-1,1-1h47.5c0.6,0,1,0.4,1,1v7.2c0,0.6-0.4,1-1,1
			s-1-0.4-1-1v-6.2h-45.5v18.4h45.5v-6.7c0-0.6,0.4-1,1-1s1,0.4,1,1v7.7C152.7,96.1,152.3,96.6,151.7,96.6z"/>
	</g>
	<g>
		<g>
			<path class="st0" d="M143.1,96.1h-30.1c-0.3,0-0.5-0.2-0.5-0.5V80.3c0-0.3,0.2-0.5,0.5-0.5h30.1c0.3,0,0.5,0.2,0.5,0.5v15.3
				C143.6,95.9,143.3,96.1,143.1,96.1z M113.4,95.1h29.1V80.8h-29.1V95.1z"/>
		</g>
		<g>
			<path class="st0" d="M128,92.5c-2.5,0-4.6-2.1-4.6-4.6s2.1-4.6,4.6-4.6s4.6,2.1,4.6,4.6S130.5,92.5,128,92.5z M128,84.4
				c-2,0-3.6,1.6-3.6,3.6c0,2,1.6,3.6,3.6,3.6s3.6-1.6,3.6-3.6C131.6,86,130,84.4,128,84.4z"/>
		</g>
	</g>
	<g>
		<path class="st0" d="M194.4,232.5h-12.9c-0.6,0-1-0.4-1-1s0.4-1,1-1h11.9V121.9H62.6v108.6H177c0.6,0,1,0.4,1,1s-0.4,1-1,1H61.6
			c-0.6,0-1-0.4-1-1V120.9c0-0.6,0.4-1,1-1h132.7c0.6,0,1,0.4,1,1v110.6C195.4,232.1,194.9,232.5,194.4,232.5z"/>
	</g>
	<g>
		<path class="st0" d="M184.8,172.9h-27.3c-0.3,0-0.5-0.2-0.5-0.5s0.2-0.5,0.5-0.5h26.8v-39.8h-38.6v21.8c0,0.3-0.2,0.5-0.5,0.5
			h-31.4c-0.3,0-0.5-0.2-0.5-0.5v-21.8H71.7v39.8h80.1c0.3,0,0.5,0.2,0.5,0.5s-0.2,0.5-0.5,0.5H71.2c-0.3,0-0.5-0.2-0.5-0.5v-40.8
			c0-0.3,0.2-0.5,0.5-0.5h42.6c0.3,0,0.5,0.2,0.5,0.5v21.8h30.4v-21.8c0-0.3,0.2-0.5,0.5-0.5h39.6c0.3,0,0.5,0.2,0.5,0.5v40.8
			C185.3,172.7,185.1,172.9,184.8,172.9z"/>
	</g>
	<g>
		<path class="st0" d="M184.8,221.3h-25.6c-0.3,0-0.5-0.2-0.5-0.5v-14.8h-58.5v14.8c0,0.3-0.2,0.5-0.5,0.5H71.2
			c-0.3,0-0.5-0.2-0.5-0.5v-24.9c0-0.3,0.2-0.5,0.5-0.5h113.7c0.3,0,0.5,0.2,0.5,0.5v24.9C185.3,221.1,185.1,221.3,184.8,221.3z
			 M159.8,220.3h24.6v-23.9H71.7v23.9h27.6v-14.8c0-0.3,0.2-0.5,0.5-0.5h59.5c0.3,0,0.5,0.2,0.5,0.5V220.3z"/>
	</g>
	<g>
		<path class="st0" d="M194.4,196.9H61.6c-0.6,0-1-0.4-1-1v-23.5c0-0.6,0.4-1,1-1h90.1c0.6,0,1,0.4,1,1s-0.4,1-1,1H62.6v21.5h130.7
			v-21.5h-35.9c-0.6,0-1-0.4-1-1s0.4-1,1-1h36.9c0.6,0,1,0.4,1,1v23.5C195.4,196.5,194.9,196.9,194.4,196.9z"/>
	</g>
	<g>
		<path class="st0" d="M194.4,191.1H61.7c-0.3,0-0.5-0.2-0.5-0.5v-12.8c0-0.3,0.2-0.5,0.5-0.5h27.7c0.3,0,0.5,0.2,0.5,0.5
			s-0.2,0.5-0.5,0.5H62.2v11.8h131.7v-11.8H94.1c-0.3,0-0.5-0.2-0.5-0.5s0.2-0.5,0.5-0.5h100.3c0.3,0,0.5,0.2,0.5,0.5v12.8
			C194.9,190.9,194.6,191.1,194.4,191.1z"/>
	</g>
	<g>
		<path class="st0" d="M145.2,154.9h-31.4c-0.6,0-1-0.4-1-1v-33c0-0.6,0.4-1,1-1h31.4c0.6,0,1,0.4,1,1v33
			C146.2,154.5,145.8,154.9,145.2,154.9z M114.8,152.9h29.4v-31h-29.4V152.9z"/>
	</g>
	<g>
		<path class="st0" d="M139.9,149.1h-6.7c-0.3,0-0.5-0.2-0.5-0.5s0.2-0.5,0.5-0.5h6.2v-26.6h-19.7v26.6h9.9c0.3,0,0.5,0.2,0.5,0.5
			s-0.2,0.5-0.5,0.5h-10.4c-0.3,0-0.5-0.2-0.5-0.5v-27.6c0-0.3,0.2-0.5,0.5-0.5h20.7c0.3,0,0.5,0.2,0.5,0.5v27.6
			C140.4,148.9,140.1,149.1,139.9,149.1z"/>
	</g>
	<g>
		<path class="st0" d="M159.3,232.6H99.7c-0.6,0-1-0.4-1-1v-26c0-0.6,0.4-1,1-1h59.5c0.6,0,1,0.4,1,1v26
			C160.3,232.2,159.8,232.6,159.3,232.6z M100.7,230.6h57.5v-24h-57.5V230.6z"/>
	</g>
	<g>
		<path class="st0" d="M153.9,232h-48.8c-0.3,0-0.5-0.2-0.5-0.5v-20.6c0-0.3,0.2-0.5,0.5-0.5h17.2c0.3,0,0.5,0.2,0.5,0.5
			s-0.2,0.5-0.5,0.5h-16.7V231h47.8v-19.6h-23.9c-0.3,0-0.5-0.2-0.5-0.5s0.2-0.5,0.5-0.5h24.4c0.3,0,0.5,0.2,0.5,0.5v20.6
			C154.4,231.8,154.2,232,153.9,232z"/>
	</g>
	<g>
		<path class="st0" d="M83.8,121.4c-0.1,0-0.2,0-0.3-0.1c-0.2-0.2-0.2-0.5-0.1-0.7l20.4-25.3c0.2-0.2,0.5-0.2,0.7-0.1
			c0.2,0.2,0.2,0.5,0.1,0.7l-20.4,25.3C84.1,121.4,84,121.4,83.8,121.4z"/>
	</g>
	<g>
		<path class="st0" d="M172.2,121.4c-0.1,0-0.3-0.1-0.4-0.2l-20.4-25.3c-0.2-0.2-0.1-0.5,0.1-0.7s0.5-0.1,0.7,0.1l20.4,25.3
			c0.2,0.2,0.1,0.5-0.1,0.7C172.4,121.4,172.3,121.4,172.2,121.4z"/>
	</g>
</g>
</svg>
