<svg xmlns="http://www.w3.org/2000/svg" id="Layer_1" x="0" y="0" version="1.1" viewBox="0 0 256 256" xml:space="preserve"><style>.st0{fill:#48386a}</style><path d="M246.2 163.9h-89.4c-.6 0-1-.4-1-1s.4-1 1-1h89.4c2.7 0 4.8-2.2 4.8-4.8s-2.2-4.8-4.8-4.8H9.8c-2.7 0-4.8 2.2-4.8 4.8s2.2 4.8 4.8 4.8h140.6c.6 0 1 .4 1 1s-.4 1-1 1H9.8c-3.8 0-6.8-3.1-6.8-6.8 0-3.8 3.1-6.8 6.8-6.8h236.3c3.8 0 6.8 3.1 6.8 6.8.1 3.8-3 6.8-6.7 6.8z" class="st0"/><path d="M244 175.6H12c-.6 0-1-.4-1-1v-11.7c0-.6.4-1 1-1h136.5c.6 0 1 .4 1 1s-.4 1-1 1H13v9.7h230v-9.7h-86.3c-.6 0-1-.4-1-1s.4-1 1-1H244c.6 0 1 .4 1 1v11.7c0 .5-.4 1-1 1z" class="st0"/><path d="M187.2 232.4h-12.4c-.6 0-1-.4-1-1s.4-1 1-1h12.4c10.8 0 21.4-3.1 30.4-9 15.6-10.2 25.1-27.3 25.4-45.8H13c.3 18.6 9.8 35.7 25.4 45.8 9 5.9 19.5 9 30.4 9h99.8c.6 0 1 .4 1 1s-.4 1-1 1H68.8c-11.2 0-22.1-3.2-31.5-9.3C20.8 212.4 11 194.2 11 174.6c0-.6.4-1 1-1h232c.6 0 1 .4 1 1 0 19.7-9.8 37.8-26.3 48.5-9.4 6.1-20.3 9.3-31.5 9.3z" class="st0"/><path d="M49.5 201.9c-4.7 0-8.5-3.8-8.5-8.5 0-2.6 1.2-5.1 3.3-6.7.4-.3 1.1-.3 1.4.2.3.4.3 1.1-.2 1.4-1.6 1.2-2.5 3.1-2.5 5.1 0 3.6 2.9 6.5 6.5 6.5s6.5-2.9 6.5-6.5-2.9-6.5-6.5-6.5c-.6 0-1-.4-1-1s.4-1 1-1c4.7 0 8.5 3.8 8.5 8.5s-3.8 8.5-8.5 8.5z" class="st0"/><path d="M49.5 198.4c-2.8 0-5-2.2-5-5s2.2-5 5-5 5 2.2 5 5-2.3 5-5 5zm0-9c-2.2 0-4 1.8-4 4s1.8 4 4 4 4-1.8 4-4-1.8-4-4-4zM88.7 201.9c-4.7 0-8.5-3.8-8.5-8.5s3.8-8.5 8.5-8.5 8.5 3.8 8.5 8.5-3.8 8.5-8.5 8.5zm0-15c-3.6 0-6.5 2.9-6.5 6.5s2.9 6.5 6.5 6.5 6.5-2.9 6.5-6.5-2.9-6.5-6.5-6.5z" class="st0"/><path d="M88.7 198.4c-2.8 0-5-2.2-5-5s2.2-5 5-5 5 2.2 5 5-2.2 5-5 5zm0-9c-2.2 0-4 1.8-4 4s1.8 4 4 4 4-1.8 4-4-1.8-4-4-4zM128 201.9c-4.7 0-8.5-3.8-8.5-8.5s3.8-8.5 8.5-8.5 8.5 3.8 8.5 8.5-3.8 8.5-8.5 8.5zm0-15c-3.6 0-6.5 2.9-6.5 6.5s2.9 6.5 6.5 6.5 6.5-2.9 6.5-6.5-2.9-6.5-6.5-6.5z" class="st0"/><path d="M128 198.4c-2.8 0-5-2.2-5-5s2.2-5 5-5 5 2.2 5 5-2.2 5-5 5zm0-9c-2.2 0-4 1.8-4 4s1.8 4 4 4 4-1.8 4-4-1.8-4-4-4zM167.3 201.9c-4.7 0-8.5-3.8-8.5-8.5s3.8-8.5 8.5-8.5 8.5 3.8 8.5 8.5-3.8 8.5-8.5 8.5zm0-15c-3.6 0-6.5 2.9-6.5 6.5s2.9 6.5 6.5 6.5 6.5-2.9 6.5-6.5-2.9-6.5-6.5-6.5z" class="st0"/><path d="M167.3 198.4c-2.8 0-5-2.2-5-5s2.2-5 5-5 5 2.2 5 5-2.3 5-5 5zm0-9c-2.2 0-4 1.8-4 4s1.8 4 4 4 4-1.8 4-4-1.8-4-4-4zM206.5 201.9c-4.7 0-8.5-3.8-8.5-8.5 0-3.2 1.7-6.1 4.6-7.5.5-.3 1.1-.1 1.4.4.3.5.1 1.1-.4 1.3-2.1 1.1-3.5 3.3-3.5 5.8 0 3.6 2.9 6.5 6.5 6.5s6.5-2.9 6.5-6.5-2.9-6.5-6.5-6.5c-.6 0-1-.4-1-1s.4-1 1-1c4.7 0 8.5 3.8 8.5 8.5s-3.9 8.5-8.6 8.5z" class="st0"/><path d="M206.5 198.4c-2.8 0-5-2.2-5-5s2.2-5 5-5 5 2.2 5 5-2.2 5-5 5zm0-9c-2.2 0-4 1.8-4 4s1.8 4 4 4 4-1.8 4-4-1.8-4-4-4zM244 169.3h-27.3c-.3 0-.5-.2-.5-.5s.2-.5.5-.5H244c.3 0 .5.2.5.5s-.2.5-.5.5zM211 169.3H12c-.3 0-.5-.2-.5-.5s.2-.5.5-.5h199c.3 0 .5.2.5.5s-.2.5-.5.5zM81.2 152.3H12c-.6 0-1-.4-1-1V113c0-.6.4-1 1-1h8.2c.6 0 1 .4 1 1s-.4 1-1 1H13v36.3h67.2V114h-55c-.6 0-1-.4-1-1s.4-1 1-1h56c.6 0 1 .4 1 1v38.3c0 .5-.4 1-1 1z" class="st0"/><path d="M115.9 113.9H46.6c-.6 0-1-.4-1-1V74.6c0-.6.4-1 1-1h69.2c.6 0 1 .4 1 1v38.3c.1.6-.4 1-.9 1zm-68.3-2h67.2V75.6H47.6v36.3z" class="st0"/><path d="M110.9 108.4H51.6c-.3 0-.5-.2-.5-.5V79.6c0-.3.2-.5.5-.5h22.6c.3 0 .5.2.5.5s-.2.5-.5.5H52.1v27.3h58.2V80.1H79.5c-.3 0-.5-.2-.5-.5s.2-.5.5-.5h31.4c.3 0 .5.2.5.5v28.3c0 .3-.3.5-.5.5zM150.5 152.3H81.2c-.6 0-1-.4-1-1V113c0-.6.4-1 1-1h69.2c.6 0 1 .4 1 1v8c0 .6-.4 1-1 1s-1-.4-1-1v-7H82.2v36.3h67.2v-24c0-.6.4-1 1-1s1 .4 1 1v25c.1.5-.4 1-.9 1z" class="st0"/><path d="M83 105.4h-3.5c-.3 0-.5-.2-.5-.5V82.6c0-.3.2-.5.5-.5H83c.3 0 .5.2.5.5v22.3c0 .3-.2.5-.5.5zm-3-1h2.5V83.1H80v21.3zM106.2 105.4h-3.5c-.3 0-.5-.2-.5-.5V82.6c0-.3.2-.5.5-.5h3.5c.3 0 .5.2.5.5v22.3c0 .3-.3.5-.5.5zm-3.1-1h2.5V83.1h-2.5v21.3zM94.6 105.4h-3.5c-.3 0-.5-.2-.5-.5V82.6c0-.3.2-.5.5-.5h3.5c.3 0 .5.2.5.5v22.3c0 .3-.2.5-.5.5zm-3-1h2.5V83.1h-2.5v21.3zM71.4 105.4h-3.5c-.3 0-.5-.2-.5-.5V82.6c0-.3.2-.5.5-.5h3.5c.3 0 .5.2.5.5v22.3c0 .3-.2.5-.5.5zm-3-1h2.5V83.1h-2.5v21.3zM59.8 105.4h-3.5c-.3 0-.5-.2-.5-.5V82.6c0-.3.2-.5.5-.5h3.5c.3 0 .5.2.5.5v22.3c0 .3-.2.5-.5.5zm-3-1h2.5V83.1h-2.5v21.3zM76.2 146.8H17c-.3 0-.5-.2-.5-.5V118c0-.3.2-.5.5-.5h59.2c.3 0 .5.2.5.5v28.3c0 .2-.2.5-.5.5zm-58.7-1h58.2v-27.3H17.5v27.3z" class="st0"/><path d="M48.4 143.8h-3.5c-.3 0-.5-.2-.5-.5V121c0-.3.2-.5.5-.5h3.5c.3 0 .5.2.5.5v22.3c0 .2-.2.5-.5.5zm-3-1h2.5v-21.3h-2.5v21.3zM71.5 143.8H68c-.3 0-.5-.2-.5-.5V121c0-.3.2-.5.5-.5h3.5c.3 0 .5.2.5.5v22.3c0 .2-.2.5-.5.5zm-3-1H71v-21.3h-2.5v21.3zM60 143.8h-3.5c-.3 0-.5-.2-.5-.5V121c0-.3.2-.5.5-.5H60c.3 0 .5.2.5.5v22.3c0 .2-.3.5-.5.5zm-3.1-1h2.5v-21.3h-2.5v21.3zM36.8 143.8h-3.5c-.3 0-.5-.2-.5-.5V121c0-.3.2-.5.5-.5h3.5c.3 0 .5.2.5.5v22.3c0 .2-.2.5-.5.5zm-3-1h2.5v-21.3h-2.5v21.3zM25.2 143.8h-3.5c-.3 0-.5-.2-.5-.5V121c0-.3.2-.5.5-.5h3.5c.3 0 .5.2.5.5v22.3c0 .2-.2.5-.5.5zm-3-1h2.5v-21.3h-2.5v21.3zM145.5 146.8H86.2c-.3 0-.5-.2-.5-.5V118c0-.3.2-.5.5-.5h59.2c.3 0 .5.2.5.5v28.3c.1.2-.2.5-.4.5zm-58.8-1H145v-27.3H86.7v27.3z" class="st0"/><path d="M117.6 143.8h-3.5c-.3 0-.5-.2-.5-.5V121c0-.3.2-.5.5-.5h3.5c.3 0 .5.2.5.5v22.3c0 .2-.2.5-.5.5zm-3-1h2.5v-21.3h-2.5v21.3zM140.8 143.8h-3.5c-.3 0-.5-.2-.5-.5V121c0-.3.2-.5.5-.5h3.5c.3 0 .5.2.5.5v22.3c0 .2-.2.5-.5.5zm-3-1h2.5v-21.3h-2.5v21.3zM129.2 143.8h-3.5c-.3 0-.5-.2-.5-.5V121c0-.3.2-.5.5-.5h3.5c.3 0 .5.2.5.5v22.3c0 .2-.2.5-.5.5zm-3-1h2.5v-21.3h-2.5v21.3zM106 143.8h-3.5c-.3 0-.5-.2-.5-.5V138c0-.3.2-.5.5-.5s.5.2.5.5v4.8h2.5v-21.3H103v13c0 .3-.2.5-.5.5s-.5-.2-.5-.5V121c0-.3.2-.5.5-.5h3.5c.3 0 .5.2.5.5v22.3c0 .2-.2.5-.5.5zM94.5 143.8H91c-.3 0-.5-.2-.5-.5V121c0-.3.2-.5.5-.5h3.5c.3 0 .5.2.5.5v22.3c0 .2-.3.5-.5.5zm-3.1-1H94v-21.3h-2.5v21.3z" class="st0"/><g><path d="M244 152.3h-84.2c-.6 0-1-.4-1-1v-50c0-.6.4-1 1-1H244c.6 0 1 .4 1 1V118c0 .6-.4 1-1 1s-1-.4-1-1v-15.7h-82.2v48H243v-27c0-.6.4-1 1-1s1 .4 1 1v28c0 .5-.4 1-1 1z" class="st0"/></g><g><path d="M229 102.3h-54.2c-.6 0-1-.4-1-1V89.7c0-.6.4-1 1-1H229c.6 0 1 .4 1 1v11.6c0 .5-.4 1-1 1zm-53.2-2H228v-9.6h-52.2v9.6z" class="st0"/></g><g><path d="M218.7 90.6h-33.6c-.6 0-1-.4-1-1v-65c0-.6.4-1 1-1h15.1c.6 0 1 .4 1 1s-.4 1-1 1h-14.1v63h31.6v-63h-11.1c-.6 0-1-.4-1-1s.4-1 1-1h12.1c.6 0 1 .4 1 1v65c0 .5-.5 1-1 1z" class="st0"/></g><g><path d="M218.7 50.3h-19.4c-.3 0-.5-.2-.5-.5s.2-.5.5-.5h18.9V35.6h-32.6v13.7h8.3c.3 0 .5.2.5.5s-.2.5-.5.5h-8.8c-.3 0-.5-.2-.5-.5V35.1c0-.3.2-.5.5-.5h33.6c.3 0 .5.2.5.5v14.7c0 .2-.3.5-.5.5z" class="st0"/></g><g><path d="M218.7 77.5h-33.6c-.3 0-.5-.2-.5-.5V62.4c0-.3.2-.5.5-.5h33.6c.3 0 .5.2.5.5V77c0 .3-.3.5-.5.5zm-33.1-1h32.6V62.9h-32.6v13.6z" class="st0"/></g><g><path d="M244 151.8h-84.2c-.3 0-.5-.2-.5-.5V140c0-.3.2-.5.5-.5H244c.3 0 .5.2.5.5v11.3c0 .2-.2.5-.5.5zm-83.7-1h83.2v-10.3h-83.2v10.3z" class="st0"/></g><g><path d="M181.8 133.7c-7.3 0-13.1-5.9-13.1-13.2s5.9-13.1 13.1-13.1 13.1 5.9 13.1 13.1-5.9 13.2-13.1 13.2zm0-24.3c-6.1 0-11.1 5-11.1 11.1s5 11.2 11.1 11.2 11.1-5 11.1-11.2c0-6.1-5-11.1-11.1-11.1z" class="st0"/><path d="M181.8 128.2c-4.2 0-7.6-3.4-7.6-7.7 0-4.2 3.4-7.6 7.6-7.6s7.6 3.4 7.6 7.6c0 4.3-3.4 7.7-7.6 7.7zm0-14.3c-3.7 0-6.6 3-6.6 6.6 0 3.7 3 6.7 6.6 6.7s6.6-3 6.6-6.7c0-3.6-3-6.6-6.6-6.6z" class="st0"/></g><g><path d="M221.9 133.7c-7.3 0-13.1-5.9-13.1-13.2s5.9-13.1 13.1-13.1 13.1 5.9 13.1 13.1-5.9 13.2-13.1 13.2zm0-24.3c-6.1 0-11.1 5-11.1 11.1s5 11.2 11.1 11.2 11.1-5 11.1-11.2c0-6.1-5-11.1-11.1-11.1z" class="st0"/><path d="M221.9 128.2c-4.2 0-7.6-3.4-7.6-7.7 0-4.2 3.4-7.6 7.6-7.6s7.6 3.4 7.6 7.6c0 4.3-3.4 7.7-7.6 7.7zm0-14.3c-3.7 0-6.6 3-6.6 6.6 0 3.7 3 6.7 6.6 6.7s6.6-3 6.6-6.7c0-3.6-3-6.6-6.6-6.6z" class="st0"/></g><g><path d="M187.2 231.9h-12.4c-.3 0-.5-.2-.5-.5s.2-.5.5-.5h12.4c10.4 0 20.4-2.8 29.2-8.2H39.6c8.8 5.3 18.8 8.2 29.2 8.2h100.3c.3 0 .5.2.5.5s-.2.5-.5.5H68.8c-11.1 0-21.9-3.2-31.2-9.2-.2-.1-.3-.3-.2-.6.1-.2.3-.4.5-.4h180.2c.2 0 .4.1.5.4.1.2 0 .4-.2.6-9.3 6-20.1 9.2-31.2 9.2z" class="st0"/></g><g><path d="M252 157.6H49.5c-.3 0-.5-.2-.5-.5s.2-.5.5-.5H252c.3 0 .5.2.5.5s-.2.5-.5.5z" class="st0"/></g><g><path d="M43.5 157.6H4c-.3 0-.5-.2-.5-.5s.2-.5.5-.5h39.5c.3 0 .5.2.5.5s-.2.5-.5.5z" class="st0"/></g></svg>