<svg xmlns="http://www.w3.org/2000/svg" id="Layer_1" x="0" y="0" version="1.1" viewBox="0 0 256 256" xml:space="preserve"><style>.st0{fill:#48386a}</style><path d="M251 228.8H41.7c-.6 0-1-.4-1-1s.4-1 1-1H250V217H6v9.7h27.8c.6 0 1 .4 1 1s-.4 1-1 1H5c-.6 0-1-.4-1-1V216c0-.6.4-1 1-1h246c.6 0 1 .4 1 1v11.7c0 .6-.4 1.1-1 1.1z" class="st0"/><path d="M216.7 217H39.3c-.6 0-1-.4-1-1v-70c0-.6.4-1 1-1s1 .4 1 1v69h175.3v-88.7H40.3v12.1c0 .6-.4 1-1 1s-1-.4-1-1v-13.1c0-.6.4-1 1-1h177.3c.6 0 1 .4 1 1V216c.1.6-.4 1-.9 1zM84 117.4H42.3c-.3 0-.6-.1-.8-.4-.2-.2-.3-.6-.2-.8 1.3-5.8 3.3-11.5 5.8-16.9.2-.4.5-.6.9-.6h8.9c.6 0 1 .4 1 1s-.4 1-1 1h-8.2c-2.1 4.7-3.8 9.7-5.1 14.7H83v-14.7H64.6c-.6 0-1-.4-1-1s.4-1 1-1H84c.6 0 1 .4 1 1v16.7c0 .6-.4 1-1 1z" class="st0"/><path d="M79 111.9H48.8c-.2 0-.3-.1-.4-.2s-.1-.3-.1-.4c.7-2.3 1.5-4.6 2.5-6.8.1-.2.3-.3.5-.3H79c.3 0 .5.2.5.5v6.7c0 .3-.2.5-.5.5zm-29.5-1h29v-5.7H51.6c-.8 1.9-1.5 3.8-2.1 5.7zM150.3 117.4h-11.5c-.6 0-1-.4-1-1s.4-1 1-1h10.5v-14.7h-42.7v14.7h25c.6 0 1 .4 1 1s-.4 1-1 1h-26c-.6 0-1-.4-1-1V99.7c0-.6.4-1 1-1h44.7c.6 0 1 .4 1 1v16.7c0 .6-.4 1-1 1z" class="st0"/><path d="M145.3 111.9h-34.7c-.3 0-.5-.2-.5-.5v-6.7c0-.3.2-.5.5-.5h34.7c.3 0 .5.2.5.5v6.7c0 .3-.2.5-.5.5zm-34.1-1h33.7v-5.7h-33.7v5.7zM177.7 90H78.3c-.6 0-1-.4-1-1V62.4c0-.6.4-1 1-1h99.3c.6 0 1 .4 1 1V89c.1.6-.4 1-.9 1zm-98.4-2h97.3V63.4H79.3V88z" class="st0"/><path d="M108.3 67.9h-3.8c-.3 0-.5-.2-.5-.5s.2-.5.5-.5h3.8c.3 0 .5.2.5.5s-.3.5-.5.5z" class="st0"/><path d="M172.7 84.5H83.3c-.3 0-.5-.2-.5-.5V67.4c0-.3.2-.5.5-.5h17.2c.3 0 .5.2.5.5s-.2.5-.5.5H83.8v15.6h88.3V67.9h-61.5c-.3 0-.5-.2-.5-.5s.2-.5.5-.5h62c.3 0 .5.2.5.5V84c.1.3-.2.5-.4.5zM213.7 117.4H172c-.6 0-1-.4-1-1V99.7c0-.6.4-1 1-1h36c.4 0 .7.2.9.6 2.5 5.4 4.4 11.1 5.8 16.9.1.3 0 .6-.2.8-.2.3-.5.4-.8.4zm-40.7-2h39.5c-1.2-5-2.9-10-5.1-14.7H173v14.7z" class="st0"/><path d="M207.2 111.9H177c-.3 0-.5-.2-.5-.5v-6.7c0-.3.2-.5.5-.5h15.9c.3 0 .5.2.5.5s-.2.5-.5.5h-15.4v5.7h29c-.6-1.9-1.3-3.8-2.1-5.7h-5.2c-.3 0-.5-.2-.5-.5s.2-.5.5-.5h5.5c.2 0 .4.1.5.3.9 2.2 1.7 4.5 2.5 6.8 0 .2 0 .3-.1.4s-.2.2-.4.2zM211.5 216.5h-167c-.3 0-.5-.2-.5-.5v-85.5c0-.3.2-.5.5-.5h166.9c.3 0 .5.2.5.5V216c.1.3-.2.5-.4.5zm-166.5-1h166V131H45v84.5z" class="st0"/><path d="M211.5 216.5h-167c-.3 0-.5-.2-.5-.5v-17c0-.3.2-.5.5-.5h166.9c.3 0 .5.2.5.5v17c.1.3-.2.5-.4.5zm-166.5-1h166v-16H45v16z" class="st0"/><path d="M211.5 199.4h-167c-.3 0-.5-.2-.5-.5v-17c0-.3.2-.5.5-.5h166.9c.3 0 .5.2.5.5v17c.1.3-.2.5-.4.5zm-166.5-1h166v-16H45v16z" class="st0"/><path d="M211.5 182.3h-167c-.3 0-.5-.2-.5-.5v-17c0-.3.2-.5.5-.5H136c.3 0 .5.2.5.5s-.2.5-.5.5H45v16h166v-16h-65.6c-.3 0-.5-.2-.5-.5s.2-.5.5-.5h66.1c.3 0 .5.2.5.5v17c0 .3-.3.5-.5.5z" class="st0"/><path d="M211.5 165.2h-66.1c-.3 0-.5-.2-.5-.5s.2-.5.5-.5H211v-16H45v16h91c.3 0 .5.2.5.5s-.2.5-.5.5H44.5c-.3 0-.5-.2-.5-.5v-17c0-.3.2-.5.5-.5h166.9c.3 0 .5.2.5.5v17c.1.3-.2.5-.4.5z" class="st0"/><path d="M211.5 148.1h-167c-.3 0-.5-.2-.5-.5v-17c0-.3.2-.5.5-.5h166.9c.3 0 .5.2.5.5v17c.1.3-.2.5-.4.5zm-166.5-1h166v-16H45v16z" class="st0"/><path d="M236 217H20c-.6 0-1-.4-1-1v-79.8c0-60.1 48.9-109 109-109 19.3 0 38.3 5.1 55 14.9.5.3.6.9.4 1.4-.3.5-.9.6-1.4.4-16.3-9.6-35-14.6-53.9-14.6-59 0-107 48-107 107V215h214v-78.8c0-35-17.2-67.9-46.1-87.9-.5-.3-.6-.9-.3-1.4.3-.5.9-.6 1.4-.3 29.4 20.4 47 53.9 47 89.6V216c-.1.6-.5 1-1.1 1z" class="st0"/><path d="M226 217H30c-.6 0-1-.4-1-1v-79.8c0-54.6 44.4-99 99-99s99 44.4 99 99v5.3c0 .6-.4 1-1 1s-1-.4-1-1v-5.3c0-53.5-43.5-97-97-97s-97 43.5-97 97V215h194v-67.5c0-.6.4-1 1-1s1 .4 1 1V216c0 .6-.4 1-1 1zM251 222.4H120.8c-.3 0-.5-.2-.5-.5s.2-.5.5-.5H251c.3 0 .5.2.5.5s-.2.5-.5.5zM114 222.4H5c-.3 0-.5-.2-.5-.5s.2-.5.5-.5h109c.3 0 .5.2.5.5s-.2.5-.5.5zM20 217h-8.8c-.6 0-1-.4-1-1v-24.3c0-.6.4-1 1-1s1 .4 1 1V215H19v-41h-6.8v11.2c0 .6-.4 1-1 1s-1-.4-1-1V173c0-.6.4-1 1-1H20c.6 0 1 .4 1 1v43c0 .6-.4 1-1 1zM244.8 217H236c-.6 0-1-.4-1-1v-43c0-.6.4-1 1-1h8.8c.6 0 1 .4 1 1v43c0 .6-.5 1-1 1zm-7.8-2h6.8v-41H237v41z" class="st0"/></svg>