<?xml version="1.0" encoding="utf-8"?>
<!-- Generator: Adobe Illustrator 22.1.0, SVG Export Plug-In . SVG Version: 6.00 Build 0)  -->
<svg version="1.1" id="Layer_1" xmlns="http://www.w3.org/2000/svg" xmlns:xlink="http://www.w3.org/1999/xlink" x="0px" y="0px"
	 viewBox="0 0 256 256" style="enable-background:new 0 0 256 256;" xml:space="preserve">
<style type="text/css">
	.st0{fill:#48386A;}
</style>
<g>
	<g>
		<path class="st0" d="M247.7,85.9c-0.6,0-1-0.4-1-1v-5.7c0-0.6,0.4-1,1-1s1,0.4,1,1v5.7C248.7,85.5,248.2,85.9,247.7,85.9z"/>
	</g>
	<g>
		<path class="st0" d="M128,162.3c-19.5,0-38.2-7.2-52.6-20.4c-0.2-0.2-0.3-0.5-0.3-0.7s0.1-0.5,0.3-0.7
			c14.4-13.1,33.1-20.4,52.6-20.4c19.5,0,38.2,7.2,52.6,20.4c0.2,0.2,0.3,0.5,0.3,0.7s-0.1,0.5-0.3,0.7
			C166.2,155.1,147.5,162.3,128,162.3z M77.5,141.2c13.9,12.3,31.8,19.1,50.5,19.1c18.7,0,36.5-6.8,50.5-19.1
			c-13.9-12.3-31.8-19.1-50.5-19.1C109.3,122.1,91.5,128.9,77.5,141.2z"/>
	</g>
	<g>
		<path class="st0" d="M128,48.3c-10.8,0-21.2-2.1-31-6.4c-7.9-3.4-15.2-8.1-21.7-14c-0.2-0.2-0.3-0.5-0.3-0.7
			c0-0.3,0.1-0.5,0.3-0.7c3.8-3.5,8-6.6,12.5-9.3c0.5-0.3,1.1-0.1,1.4,0.3c0.3,0.5,0.1,1.1-0.3,1.4c-4,2.4-7.8,5.2-11.3,8.3
			c6.1,5.4,12.9,9.7,20.3,12.9c9.5,4.1,19.7,6.2,30.2,6.2c7.3,0,14.4-1,21.3-3c1.3-3.5,3.7-6.4,6.8-8.4c2.6-1.6,5.6-2.5,8.7-2.5
			c1.9,0,3.8,0.3,5.6,1c2.8-1.9,5.4-3.9,8-6.2C164.5,14.8,146.7,8.1,128,8.1c-12.3,0-23.9,2.8-34.8,8.4c-0.5,0.3-1.1,0.1-1.3-0.4
			c-0.3-0.5-0.1-1.1,0.4-1.3C103.4,9,115.4,6.1,128,6.1c19.5,0,38.2,7.2,52.6,20.4c0.2,0.2,0.3,0.5,0.3,0.7c0,0.3-0.1,0.5-0.3,0.7
			c-3,2.7-6.2,5.2-9.5,7.4c-0.3,0.2-0.6,0.2-0.9,0.1c-1.7-0.7-3.5-1-5.4-1c-2.7,0-5.4,0.8-7.7,2.2c-2.9,1.8-5.1,4.6-6.1,7.8
			c-0.1,0.3-0.3,0.6-0.7,0.6C143.2,47.2,135.6,48.3,128,48.3z"/>
	</g>
	<g>
		<path class="st0" d="M128,162.3c-12.9,0-24.8-13.3-31.8-35.6c-0.2-0.5,0.1-1,0.6-1.2c0.3-0.1,0.7-0.1,0.9,0.1
			c1.4-2.4,4.3-7.7,7.2-13.4c0.2-0.5,0.8-0.7,1.3-0.4c0.5,0.2,0.7,0.8,0.4,1.3c-3.7,7.3-7.5,13.9-8,14.8
			c6.8,20.4,17.7,32.5,29.4,32.5c19.7,0,35.8-34,35.9-75.9c-1.6-2.8-15.5-27.1-15.5-35.5c0-1.8,0.3-3.5,0.8-5.2
			c1.1-3.4,3.3-6.4,6.3-8.4C148.6,18,138.6,8.1,128,8.1c-11.8,0-22.9,12.4-29.6,33.3c-3.4,10.5-5.5,22.6-6.1,35.2
			c1.7-0.6,3.5-0.9,5.4-0.9c5.8,0,11.2,3.1,14.2,8c1.5,2.6,2.4,5.5,2.4,8.5c0,3.2-1.9,8.9-5.8,17c-0.2,0.5-0.8,0.7-1.3,0.5
			c-0.5-0.2-0.7-0.8-0.5-1.3c4.6-9.8,5.6-14.2,5.6-16.1c0-2.6-0.7-5.2-2.1-7.5c-2.6-4.3-7.4-7-12.5-7c-2.1,0-4.2,0.4-6.1,1.3
			c-0.3,0.1-0.7,0.1-1-0.1c-0.3-0.2-0.5-0.5-0.4-0.9c0.5-13.3,2.7-26.2,6.2-37.3c7-21.7,18.8-34.6,31.5-34.6
			c11.6,0,22.4,10.7,29.6,29.3c0.2,0.4,0,1-0.4,1.2c-2.9,1.8-5.1,4.6-6.1,7.8c-0.5,1.5-0.7,3-0.7,4.5c0,8.2,15.3,34.5,15.4,34.7
			c0.1,0.2,0.1,0.3,0.1,0.5C165.9,127.3,148.9,162.3,128,162.3z"/>
	</g>
	<g>
		<path class="st0" d="M128,162.3c-0.6,0-1-0.4-1-1V7.1c0-0.6,0.4-1,1-1s1,0.4,1,1v154.3C129,161.9,128.6,162.3,128,162.3z"/>
	</g>
	<g>
		<path class="st0" d="M205.1,85.2h-94.1c-0.6,0-1-0.4-1-1s0.4-1,1-1h94.1c0.6,0,1,0.4,1,1S205.7,85.2,205.1,85.2z"/>
	</g>
	<g>
		<path class="st0" d="M84.4,85.2H50.9c-0.6,0-1-0.4-1-1s0.4-1,1-1h33.5c0.6,0,1,0.4,1,1S84.9,85.2,84.4,85.2z"/>
	</g>
	<g>
		<path class="st0" d="M97.7,128.4C97.7,128.4,97.7,128.4,97.7,128.4c-0.4,0-0.7-0.2-0.9-0.5l-0.6-1c-3.5-6.2-15.1-27-15.1-34.7
			c0-3,0.8-6,2.4-8.5c1.7-2.9,4.2-5.1,7.3-6.5c2.2-1,4.5-1.5,6.9-1.5c5.8,0,11.2,3.1,14.2,8c1.5,2.6,2.4,5.5,2.4,8.5
			c0,3.1-1.9,8.8-5.7,16.7c-0.2,0.5-0.8,0.7-1.3,0.5c-0.5-0.2-0.7-0.8-0.5-1.3c4.5-9.6,5.5-13.9,5.5-15.9c0-2.6-0.7-5.2-2.1-7.5
			c-2.6-4.3-7.4-7-12.5-7c-2.1,0-4.2,0.4-6.1,1.3c-2.7,1.2-4.9,3.2-6.4,5.7c-1.4,2.3-2.1,4.9-2.1,7.5c0,7.2,11.6,28,14.6,33.2
			c1.4-2.4,4.1-7.4,6.9-12.8c0.2-0.5,0.8-0.7,1.3-0.4c0.5,0.2,0.7,0.8,0.4,1.3c-3.9,7.7-7.8,14.4-7.8,14.5
			C98.4,128.3,98.1,128.4,97.7,128.4z"/>
	</g>
	<g>
		<path class="st0" d="M97.7,103.7c-6.3,0-11.5-5.2-11.5-11.5s5.2-11.5,11.5-11.5s11.5,5.2,11.5,11.5S104.1,103.7,97.7,103.7z
			 M97.7,81.7c-5.8,0-10.5,4.7-10.5,10.5s4.7,10.5,10.5,10.5c5.8,0,10.5-4.7,10.5-10.5S103.5,81.7,97.7,81.7z"/>
	</g>
	<g>
		<path class="st0" d="M164.9,85.2L164.9,85.2c-0.4,0-0.7-0.2-0.9-0.5c-0.6-1.1-15.7-27-15.7-35.8c0-1.8,0.3-3.5,0.8-5.2
			c1.2-3.7,3.7-6.8,7-8.9c2.6-1.6,5.6-2.5,8.7-2.5c2.1,0,4.2,0.4,6.1,1.2c6.3,2.5,10.5,8.5,10.5,15.4c0,8.8-15,34.7-15.7,35.8
			C165.6,85,165.2,85.2,164.9,85.2z M164.9,34.4c-2.7,0-5.4,0.8-7.7,2.2c-2.9,1.8-5.1,4.6-6.1,7.8c-0.5,1.5-0.7,3-0.7,4.5
			c0,7.1,11.3,27.5,14.5,33.2c3.3-5.7,14.6-26.2,14.6-33.2c0-6-3.6-11.3-9.2-13.5C168.6,34.7,166.8,34.4,164.9,34.4z"/>
	</g>
	<g>
		<path class="st0" d="M164.9,60.4c-6.3,0-11.5-5.2-11.5-11.5s5.2-11.5,11.5-11.5c4.7,0,8.9,2.8,10.7,7.2c0.1,0.3,0,0.5-0.3,0.7
			c-0.3,0.1-0.5,0-0.7-0.3c-1.6-4-5.4-6.6-9.7-6.6c-5.8,0-10.5,4.7-10.5,10.5s4.7,10.5,10.5,10.5s10.5-4.7,10.5-10.5
			c0-0.3,0-0.5,0-0.8c0-0.3,0.2-0.5,0.5-0.5c0.3,0,0.5,0.2,0.5,0.5c0,0.3,0,0.6,0,0.9C176.4,55.3,171.2,60.4,164.9,60.4z"/>
	</g>
	<g>
		<path class="st0" d="M247.7,187.7H8.3c-0.6,0-1-0.4-1-1V46.9c0-3.6,2.9-6.5,6.5-6.5h50c0.4,0,0.7,0.2,0.9,0.5
			c0.2,0.3,0.2,0.7-0.1,1c-1.1,1.7-2.3,3.5-3.3,5.4c-6.2,11.2-9.4,23.9-9.4,36.7c0,21.4,9,41.9,24.8,56.3
			c14.1,12.8,32.3,19.9,51.3,19.9s37.2-7.1,51.3-19.9c15.8-14.4,24.8-34.9,24.8-56.3c0-12.9-3.3-25.6-9.4-36.7
			c-1-1.9-2.1-3.7-3.3-5.4c-0.2-0.3-0.2-0.7-0.1-1c0.2-0.3,0.5-0.5,0.9-0.5h50c3.6,0,6.5,2.9,6.5,6.5v25.8c0,0.6-0.4,1-1,1
			s-1-0.4-1-1V46.9c0-2.5-2-4.5-4.5-4.5h-48.1c0.8,1.3,1.6,2.6,2.4,4c6.3,11.5,9.7,24.5,9.7,37.7c0,21.9-9.3,43-25.5,57.7
			c-14.4,13.1-33.1,20.4-52.6,20.4s-38.2-7.2-52.6-20.4c-16.2-14.8-25.5-35.8-25.5-57.7c0-13.2,3.4-26.2,9.7-37.7
			c0.8-1.4,1.5-2.7,2.4-4H13.8c-2.5,0-4.5,2-4.5,4.5v138.8h237.3V89.1c0-0.6,0.4-1,1-1s1,0.4,1,1v97.7
			C248.7,187.3,248.2,187.7,247.7,187.7z"/>
	</g>
	<g>
		<path class="st0" d="M42.2,105c-0.5,0-0.9-0.3-1-0.8c-1.5-6.6-2.3-13.3-2.3-20c0-0.6,0.4-1,1-1s1,0.4,1,1c0,6.6,0.8,13.2,2.2,19.6
			c0.1,0.5-0.2,1.1-0.7,1.2C42.3,105,42.2,105,42.2,105z"/>
	</g>
	<g>
		<path class="st0" d="M128,173.3c-22.3,0-43.6-8.3-60-23.2c-11.8-10.8-20.5-24.6-25.2-39.9c-0.2-0.5,0.1-1.1,0.7-1.2
			c0.5-0.2,1.1,0.1,1.2,0.7c4.6,15,13.1,28.5,24.6,39c16.1,14.7,36.9,22.7,58.7,22.7c18.8,0,36.8-5.9,51.8-17.1
			c0.4-0.3,1.1-0.2,1.4,0.2c0.3,0.4,0.2,1.1-0.2,1.4C165.6,167.2,147.3,173.3,128,173.3z"/>
	</g>
	<g>
		<path class="st0" d="M188.8,148.9c-0.3,0-0.5-0.1-0.7-0.3c-0.4-0.4-0.4-1,0-1.4c17.1-16.4,27-39.3,27-63c0-0.6,0.4-1,1-1
			s1,0.4,1,1c0,24.2-10.1,47.7-27.6,64.5C189.3,148.8,189.1,148.9,188.8,148.9z"/>
	</g>
	<g>
		<path class="st0" d="M128,162.3c-19.5,0-38.2-7.2-52.6-20.4c-16.2-14.8-25.5-35.8-25.5-57.7c0-13.2,3.4-26.2,9.7-37.7
			c1.1-1.9,2.2-3.8,3.4-5.6c3.5-5.3,7.7-10.2,12.4-14.5c3.4-3.1,7-5.8,10.8-8.3c0.5-0.3,1.1-0.2,1.4,0.3c0.3,0.5,0.2,1.1-0.3,1.4
			c-3.7,2.4-7.3,5.1-10.6,8.1c-4.6,4.2-8.7,8.9-12.1,14.1c-1.1,1.7-2.3,3.5-3.3,5.4c-6.2,11.2-9.4,23.9-9.4,36.7
			c0,21.4,9,41.9,24.8,56.3c14.1,12.8,32.3,19.9,51.3,19.9s37.2-7.1,51.3-19.9c15.8-14.4,24.8-34.9,24.8-56.3
			c0-12.9-3.3-25.6-9.4-36.7c-1-1.9-2.1-3.7-3.3-5.4c-3.4-5.2-7.5-9.9-12.1-14.1C165.2,15.1,147,8.1,128,8.1
			c-12.1,0-23.7,2.8-34.4,8.2c-0.5,0.3-1.1,0.1-1.3-0.4c-0.3-0.5-0.1-1.1,0.4-1.3c11-5.6,22.9-8.4,35.3-8.4
			c19.5,0,38.2,7.2,52.6,20.4c4.7,4.3,8.9,9.2,12.4,14.5c1.2,1.7,2.3,3.6,3.4,5.6c6.3,11.5,9.7,24.5,9.7,37.7
			c0,21.9-9.3,43-25.5,57.7C166.2,155.1,147.5,162.3,128,162.3z"/>
	</g>
	<g>
		<path class="st0" d="M242.2,181.7H99.7c-0.3,0-0.5-0.2-0.5-0.5s0.2-0.5,0.5-0.5h141.9V47.4h-45.3c6,11.2,9.2,23.9,9.2,36.7
			c0,21.8-9.2,42.7-25.3,57.4c-14.3,13.1-32.9,20.3-52.3,20.3s-38-7.2-52.3-20.3C59.6,126.9,50.4,106,50.4,84.2
			c0-12.8,3.2-25.5,9.2-36.7H14.3v133.3h78.9c0.3,0,0.5,0.2,0.5,0.5s-0.2,0.5-0.5,0.5H13.8c-0.3,0-0.5-0.2-0.5-0.5V46.9
			c0-0.3,0.2-0.5,0.5-0.5h46.6c0.2,0,0.3,0.1,0.4,0.2s0.1,0.3,0,0.5c-6.2,11.2-9.5,24-9.5,37c0,21.5,9.1,42.1,25,56.6
			c14.1,12.9,32.5,20,51.6,20s37.5-7.1,51.6-20c15.9-14.5,25-35.1,25-56.6c0-12.9-3.3-25.7-9.5-37c-0.1-0.2-0.1-0.3,0-0.5
			s0.3-0.2,0.4-0.2h46.6c0.3,0,0.5,0.2,0.5,0.5v134.3C242.7,181.5,242.4,181.7,242.2,181.7z"/>
	</g>
	<g>
		<path class="st0" d="M242.6,214.6h-37.4c-0.6,0-1-0.4-1-1s0.4-1,1-1h37.4c2.3,0,4.1-1.8,4.1-4.1v-20.7H9.3v20.7
			c0,2.3,1.8,4.1,4.1,4.1h184.3c0.6,0,1,0.4,1,1s-0.4,1-1,1H13.4c-3.4,0-6.1-2.7-6.1-6.1v-21.7c0-0.6,0.4-1,1-1h239.3
			c0.6,0,1,0.4,1,1v21.7C248.7,211.8,245.9,214.6,242.6,214.6z"/>
	</g>
	<g>
		<path class="st0" d="M157.3,249.9h-14.5c-0.6,0-1-0.4-1-1s0.4-1,1-1h13l-12-33.4h-31.8l-12,33.4h35c0.6,0,1,0.4,1,1s-0.4,1-1,1
			H98.7c-0.3,0-0.6-0.2-0.8-0.4c-0.2-0.3-0.2-0.6-0.1-0.9l12.7-35.4c0.1-0.4,0.5-0.7,0.9-0.7h33.2c0.4,0,0.8,0.3,0.9,0.7l12.7,35.4
			c0.1,0.3,0.1,0.6-0.1,0.9C157.9,249.8,157.6,249.9,157.3,249.9z"/>
	</g>
	<g>
		<path class="st0" d="M149.5,244h-43c-0.2,0-0.3-0.1-0.4-0.2c-0.1-0.1-0.1-0.3-0.1-0.5l10.4-29.9c0.1-0.2,0.3-0.3,0.5-0.3h22.2
			c0.2,0,0.4,0.1,0.5,0.3l3.6,10.4c0.1,0.3,0,0.5-0.3,0.6c-0.3,0.1-0.5,0-0.6-0.3l-3.5-10.1h-21.4l-10,28.9h41.5l-5-14.3
			c-0.1-0.3,0-0.5,0.3-0.6c0.3-0.1,0.5,0,0.6,0.3l5.2,15c0.1,0.2,0,0.3-0.1,0.5C149.8,243.9,149.6,244,149.5,244z"/>
	</g>
	<g>
		<path class="st0" d="M128,208.1c-4.4,0-7.9-3.6-7.9-7.9c0-4.4,3.6-7.9,7.9-7.9s7.9,3.6,7.9,7.9C135.9,204.5,132.4,208.1,128,208.1
			z M128,194.2c-3.3,0-5.9,2.7-5.9,5.9s2.7,5.9,5.9,5.9s5.9-2.7,5.9-5.9S131.3,194.2,128,194.2z"/>
	</g>
	<g>
		<path class="st0" d="M128,204.3c-1.1,0-2.1-0.4-2.8-1.1c-0.2-0.2-0.2-0.5,0-0.7c0.2-0.2,0.5-0.2,0.7,0c0.6,0.5,1.3,0.9,2.1,0.9
			c1.7,0,3.1-1.4,3.1-3.1c0-1.7-1.4-3.1-3.1-3.1s-3.1,1.4-3.1,3.1c0,0.1,0,0.2,0,0.4c0,0.3-0.2,0.5-0.4,0.6c-0.3,0-0.5-0.2-0.6-0.4
			c0-0.2,0-0.3,0-0.5c0-2.3,1.9-4.1,4.1-4.1s4.1,1.9,4.1,4.1C132.1,202.4,130.3,204.3,128,204.3z"/>
	</g>
</g>
</svg>
