<svg xmlns="http://www.w3.org/2000/svg" id="Layer_1" x="0" y="0" enable-background="new 0 0 256 256" version="1.1" viewBox="0 0 256 256" xml:space="preserve"><style>.st0{fill:#48386A;}</style><path d="M247.7 85.9c-.6 0-1-.4-1-1v-5.7c0-.6.4-1 1-1s1 .4 1 1v5.7c0 .6-.5 1-1 1zM128 162.3c-19.5 0-38.2-7.2-52.6-20.4-.2-.2-.3-.5-.3-.7s.1-.5.3-.7c14.4-13.1 33.1-20.4 52.6-20.4s38.2 7.2 52.6 20.4c.2.2.3.5.3.7s-.1.5-.3.7c-14.4 13.2-33.1 20.4-52.6 20.4zm-50.5-21.1c13.9 12.3 31.8 19.1 50.5 19.1s36.5-6.8 50.5-19.1c-13.9-12.3-31.8-19.1-50.5-19.1s-36.5 6.8-50.5 19.1zM128 48.3c-10.8 0-21.2-2.1-31-6.4-7.9-3.4-15.2-8.1-21.7-14-.2-.2-.3-.5-.3-.7 0-.3.1-.5.3-.7 3.8-3.5 8-6.6 12.5-9.3.5-.3 1.1-.1 1.4.3.3.5.1 1.1-.3 1.4-4 2.4-7.8 5.2-11.3 8.3 6.1 5.4 12.9 9.7 20.3 12.9 9.5 4.1 19.7 6.2 30.2 6.2 7.3 0 14.4-1 21.3-3 1.3-3.5 3.7-6.4 6.8-8.4 2.6-1.6 5.6-2.5 8.7-2.5 1.9 0 3.8.3 5.6 1 2.8-1.9 5.4-3.9 8-6.2-14-12.4-31.8-19.1-50.5-19.1-12.3 0-23.9 2.8-34.8 8.4-.5.3-1.1.1-1.3-.4-.3-.5-.1-1.1.4-1.3C103.4 9 115.4 6.1 128 6.1c19.5 0 38.2 7.2 52.6 20.4.2.2.3.5.3.7 0 .3-.1.5-.3.7-3 2.7-6.2 5.2-9.5 7.4-.3.2-.6.2-.9.1-1.7-.7-3.5-1-5.4-1-2.7 0-5.4.8-7.7 2.2-2.9 1.8-5.1 4.6-6.1 7.8-.1.3-.3.6-.7.6-7.1 2.2-14.7 3.3-22.3 3.3z" class="st0"/><path d="M128 162.3c-12.9 0-24.8-13.3-31.8-35.6-.2-.5.1-1 .6-1.2.3-.1.7-.1.9.1 1.4-2.4 4.3-7.7 7.2-13.4.2-.5.8-.7 1.3-.4.5.2.7.8.4 1.3-3.7 7.3-7.5 13.9-8 14.8 6.8 20.4 17.7 32.5 29.4 32.5 19.7 0 35.8-34 35.9-75.9-1.6-2.8-15.5-27.1-15.5-35.5 0-1.8.3-3.5.8-5.2 1.1-3.4 3.3-6.4 6.3-8.4C148.6 18 138.6 8.1 128 8.1c-11.8 0-22.9 12.4-29.6 33.3C95 51.9 92.9 64 92.3 76.6c1.7-.6 3.5-.9 5.4-.9 5.8 0 11.2 3.1 14.2 8 1.5 2.6 2.4 5.5 2.4 8.5 0 3.2-1.9 8.9-5.8 17-.2.5-.8.7-1.3.5-.5-.2-.7-.8-.5-1.3 4.6-9.8 5.6-14.2 5.6-16.1 0-2.6-.7-5.2-2.1-7.5-2.6-4.3-7.4-7-12.5-7-2.1 0-4.2.4-6.1 1.3-.3.1-.7.1-1-.1-.3-.2-.5-.5-.4-.9.5-13.3 2.7-26.2 6.2-37.3 7-21.7 18.8-34.6 31.5-34.6 11.6 0 22.4 10.7 29.6 29.3.2.4 0 1-.4 1.2-2.9 1.8-5.1 4.6-6.1 7.8-.5 1.5-.7 3-.7 4.5 0 8.2 15.3 34.5 15.4 34.7.1.2.1.3.1.5.1 43.1-16.9 78.1-37.8 78.1z" class="st0"/><path d="M128 162.3c-.6 0-1-.4-1-1V7.1c0-.6.4-1 1-1s1 .4 1 1v154.3c0 .5-.4.9-1 .9z" class="st0"/><path d="M205.1 85.2H111c-.6 0-1-.4-1-1s.4-1 1-1h94.1c.6 0 1 .4 1 1s-.4 1-1 1zM84.4 85.2H50.9c-.6 0-1-.4-1-1s.4-1 1-1h33.5c.6 0 1 .4 1 1s-.5 1-1 1z" class="st0"/><path d="M97.7 128.4c-.4 0-.7-.2-.9-.5l-.6-1c-3.5-6.2-15.1-27-15.1-34.7 0-3 .8-6 2.4-8.5 1.7-2.9 4.2-5.1 7.3-6.5 2.2-1 4.5-1.5 6.9-1.5 5.8 0 11.2 3.1 14.2 8 1.5 2.6 2.4 5.5 2.4 8.5 0 3.1-1.9 8.8-5.7 16.7-.2.5-.8.7-1.3.5-.5-.2-.7-.8-.5-1.3 4.5-9.6 5.5-13.9 5.5-15.9 0-2.6-.7-5.2-2.1-7.5-2.6-4.3-7.4-7-12.5-7-2.1 0-4.2.4-6.1 1.3-2.7 1.2-4.9 3.2-6.4 5.7-1.4 2.3-2.1 4.9-2.1 7.5 0 7.2 11.6 28 14.6 33.2 1.4-2.4 4.1-7.4 6.9-12.8.2-.5.8-.7 1.3-.4.5.2.7.8.4 1.3-3.9 7.7-7.8 14.4-7.8 14.5-.1.3-.4.4-.8.4z" class="st0"/><path d="M97.7 103.7c-6.3 0-11.5-5.2-11.5-11.5s5.2-11.5 11.5-11.5 11.5 5.2 11.5 11.5-5.1 11.5-11.5 11.5zm0-22c-5.8 0-10.5 4.7-10.5 10.5s4.7 10.5 10.5 10.5 10.5-4.7 10.5-10.5-4.7-10.5-10.5-10.5zM164.9 85.2c-.4 0-.7-.2-.9-.5-.6-1.1-15.7-27-15.7-35.8 0-1.8.3-3.5.8-5.2 1.2-3.7 3.7-6.8 7-8.9 2.6-1.6 5.6-2.5 8.7-2.5 2.1 0 4.2.4 6.1 1.2 6.3 2.5 10.5 8.5 10.5 15.4 0 8.8-15 34.7-15.7 35.8-.1.3-.5.5-.8.5zm0-50.8c-2.7 0-5.4.8-7.7 2.2-2.9 1.8-5.1 4.6-6.1 7.8-.5 1.5-.7 3-.7 4.5 0 7.1 11.3 27.5 14.5 33.2 3.3-5.7 14.6-26.2 14.6-33.2 0-6-3.6-11.3-9.2-13.5-1.7-.7-3.5-1-5.4-1z" class="st0"/><path d="M164.9 60.4c-6.3 0-11.5-5.2-11.5-11.5s5.2-11.5 11.5-11.5c4.7 0 8.9 2.8 10.7 7.2.1.3 0 .5-.3.7-.3.1-.5 0-.7-.3-1.6-4-5.4-6.6-9.7-6.6-5.8 0-10.5 4.7-10.5 10.5s4.7 10.5 10.5 10.5 10.5-4.7 10.5-10.5v-.8c0-.3.2-.5.5-.5s.5.2.5.5v.9c0 6.3-5.2 11.4-11.5 11.4z" class="st0"/><path d="M247.7 187.7H8.3c-.6 0-1-.4-1-1V46.9c0-3.6 2.9-6.5 6.5-6.5h50c.4 0 .7.2.9.5.2.3.2.7-.1 1-1.1 1.7-2.3 3.5-3.3 5.4-6.2 11.2-9.4 23.9-9.4 36.7 0 21.4 9 41.9 24.8 56.3 14.1 12.8 32.3 19.9 51.3 19.9s37.2-7.1 51.3-19.9c15.8-14.4 24.8-34.9 24.8-56.3 0-12.9-3.3-25.6-9.4-36.7-1-1.9-2.1-3.7-3.3-5.4-.2-.3-.2-.7-.1-1 .2-.3.5-.5.9-.5h50c3.6 0 6.5 2.9 6.5 6.5v25.8c0 .6-.4 1-1 1s-1-.4-1-1V46.9c0-2.5-2-4.5-4.5-4.5h-48.1c.8 1.3 1.6 2.6 2.4 4 6.3 11.5 9.7 24.5 9.7 37.7 0 21.9-9.3 43-25.5 57.7-14.4 13.1-33.1 20.4-52.6 20.4s-38.2-7.2-52.6-20.4C59.3 127 50 106 50 84.1c0-13.2 3.4-26.2 9.7-37.7.8-1.4 1.5-2.7 2.4-4H13.8c-2.5 0-4.5 2-4.5 4.5v138.8h237.3V89.1c0-.6.4-1 1-1s1 .4 1 1v97.7c.1.5-.4.9-.9.9z" class="st0"/><path d="M42.2 105c-.5 0-.9-.3-1-.8-1.5-6.6-2.3-13.3-2.3-20 0-.6.4-1 1-1s1 .4 1 1c0 6.6.8 13.2 2.2 19.6.1.5-.2 1.1-.7 1.2h-.2zM128 173.3c-22.3 0-43.6-8.3-60-23.2-11.8-10.8-20.5-24.6-25.2-39.9-.2-.5.1-1.1.7-1.2.5-.2 1.1.1 1.2.7 4.6 15 13.1 28.5 24.6 39 16.1 14.7 36.9 22.7 58.7 22.7 18.8 0 36.8-5.9 51.8-17.1.4-.3 1.1-.2 1.4.2.3.4.2 1.1-.2 1.4-15.4 11.3-33.7 17.4-53 17.4zM188.8 148.9c-.3 0-.5-.1-.7-.3-.4-.4-.4-1 0-1.4 17.1-16.4 27-39.3 27-63 0-.6.4-1 1-1s1 .4 1 1c0 24.2-10.1 47.7-27.6 64.5-.2.1-.4.2-.7.2z" class="st0"/><path d="M128 162.3c-19.5 0-38.2-7.2-52.6-20.4-16.2-14.8-25.5-35.8-25.5-57.7 0-13.2 3.4-26.2 9.7-37.7 1.1-1.9 2.2-3.8 3.4-5.6 3.5-5.3 7.7-10.2 12.4-14.5 3.4-3.1 7-5.8 10.8-8.3.5-.3 1.1-.2 1.4.3.3.5.2 1.1-.3 1.4-3.7 2.4-7.3 5.1-10.6 8.1-4.6 4.2-8.7 8.9-12.1 14.1-1.1 1.7-2.3 3.5-3.3 5.4-6.2 11.2-9.4 23.9-9.4 36.7 0 21.4 9 41.9 24.8 56.3 14.1 12.8 32.3 19.9 51.3 19.9s37.2-7.1 51.3-19.9c15.8-14.4 24.8-34.9 24.8-56.3 0-12.9-3.3-25.6-9.4-36.7-1-1.9-2.1-3.7-3.3-5.4-3.4-5.2-7.5-9.9-12.1-14.1C165.2 15.1 147 8.1 128 8.1c-12.1 0-23.7 2.8-34.4 8.2-.5.3-1.1.1-1.3-.4-.3-.5-.1-1.1.4-1.3 11-5.6 22.9-8.4 35.3-8.4 19.5 0 38.2 7.2 52.6 20.4 4.7 4.3 8.9 9.2 12.4 14.5 1.2 1.7 2.3 3.6 3.4 5.6 6.3 11.5 9.7 24.5 9.7 37.7 0 21.9-9.3 43-25.5 57.7-14.4 13-33.1 20.2-52.6 20.2z" class="st0"/><path d="M242.2 181.7H99.7c-.3 0-.5-.2-.5-.5s.2-.5.5-.5h141.9V47.4h-45.3c6 11.2 9.2 23.9 9.2 36.7 0 21.8-9.2 42.7-25.3 57.4-14.3 13.1-32.9 20.3-52.3 20.3s-38-7.2-52.3-20.3c-16-14.6-25.2-35.5-25.2-57.3 0-12.8 3.2-25.5 9.2-36.7H14.3v133.3h78.9c.3 0 .5.2.5.5s-.2.5-.5.5H13.8c-.3 0-.5-.2-.5-.5V46.9c0-.3.2-.5.5-.5h46.6c.2 0 .3.1.4.2s.1.3 0 .5c-6.2 11.2-9.5 24-9.5 37 0 21.5 9.1 42.1 25 56.6 14.1 12.9 32.5 20 51.6 20s37.5-7.1 51.6-20c15.9-14.5 25-35.1 25-56.6 0-12.9-3.3-25.7-9.5-37-.1-.2-.1-.3 0-.5s.3-.2.4-.2H242c.3 0 .5.2.5.5v134.3c.2.3-.1.5-.3.5zM242.6 214.6h-37.4c-.6 0-1-.4-1-1s.4-1 1-1h37.4c2.3 0 4.1-1.8 4.1-4.1v-20.7H9.3v20.7c0 2.3 1.8 4.1 4.1 4.1h184.3c.6 0 1 .4 1 1s-.4 1-1 1H13.4c-3.4 0-6.1-2.7-6.1-6.1v-21.7c0-.6.4-1 1-1h239.3c.6 0 1 .4 1 1v21.7c.1 3.3-2.7 6.1-6 6.1z" class="st0"/><path d="M157.3 249.9h-14.5c-.6 0-1-.4-1-1s.4-1 1-1h13l-12-33.4H112l-12 33.4h35c.6 0 1 .4 1 1s-.4 1-1 1H98.7c-.3 0-.6-.2-.8-.4-.2-.3-.2-.6-.1-.9l12.7-35.4c.1-.4.5-.7.9-.7h33.2c.4 0 .8.3.9.7l12.7 35.4c.1.3.1.6-.1.9-.2.3-.5.4-.8.4z" class="st0"/><path d="M149.5 244h-43c-.2 0-.3-.1-.4-.2-.1-.1-.1-.3-.1-.5l10.4-29.9c.1-.2.3-.3.5-.3h22.2c.2 0 .4.1.5.3l3.6 10.4c.1.3 0 .5-.3.6-.3.1-.5 0-.6-.3l-3.5-10.1h-21.4l-10 28.9h41.5l-5-14.3c-.1-.3 0-.5.3-.6.3-.1.5 0 .6.3l5.2 15c.1.2 0 .3-.1.5-.1.1-.3.2-.4.2zM128 208.1c-4.4 0-7.9-3.6-7.9-7.9 0-4.4 3.6-7.9 7.9-7.9s7.9 3.6 7.9 7.9c0 4.3-3.5 7.9-7.9 7.9zm0-13.9c-3.3 0-5.9 2.7-5.9 5.9s2.7 5.9 5.9 5.9 5.9-2.7 5.9-5.9-2.6-5.9-5.9-5.9z" class="st0"/><path d="M128 204.3c-1.1 0-2.1-.4-2.8-1.1-.2-.2-.2-.5 0-.7.2-.2.5-.2.7 0 .6.5 1.3.9 2.1.9 1.7 0 3.1-1.4 3.1-3.1 0-1.7-1.4-3.1-3.1-3.1s-3.1 1.4-3.1 3.1v.4c0 .3-.2.5-.4.6-.3 0-.5-.2-.6-.4v-.5c0-2.3 1.9-4.1 4.1-4.1s4.1 1.9 4.1 4.1c0 2-1.8 3.9-4.1 3.9z" class="st0"/></svg>