<?xml version="1.0" encoding="utf-8"?>
<!-- Generator: Adobe Illustrator 22.1.0, SVG Export Plug-In . SVG Version: 6.00 Build 0)  -->
<svg version="1.1" id="Layer_1" xmlns="http://www.w3.org/2000/svg" xmlns:xlink="http://www.w3.org/1999/xlink" x="0px" y="0px"
	 viewBox="0 0 256 256" style="enable-background:new 0 0 256 256;" xml:space="preserve">
<style type="text/css">
	.st0{fill:#48386A;}
</style>
<g>
	<g>
		<path class="st0" d="M71.2,253H59.1c-0.3,0-0.6-0.2-0.8-0.4c-0.2-0.3-0.2-0.6-0.1-0.9L84,171.2c0.1-0.4,0.5-0.7,1-0.7H97
			c0.3,0,0.6,0.2,0.8,0.4c0.2,0.3,0.2,0.6,0.1,0.9l-25.8,80.4C72,252.7,71.6,253,71.2,253z M60.5,251h10l25.2-78.4h-10L60.5,251z"/>
	</g>
	<g>
		<path class="st0" d="M65.2,252.5c-0.1,0-0.1,0-0.2,0c-0.3-0.1-0.4-0.4-0.3-0.6l8.9-27.4c0.1-0.3,0.4-0.4,0.6-0.3
			c0.3,0.1,0.4,0.4,0.3,0.6l-8.9,27.4C65.6,252.4,65.4,252.5,65.2,252.5z"/>
	</g>
	<g>
		<path class="st0" d="M75.7,220.1c-0.1,0-0.1,0-0.2,0c-0.3-0.1-0.4-0.4-0.3-0.6l15.6-48c0.1-0.3,0.4-0.4,0.6-0.3
			c0.3,0.1,0.4,0.4,0.3,0.6l-15.6,48C76.1,220,75.9,220.1,75.7,220.1z"/>
	</g>
	<g>
		<path class="st0" d="M196.9,253h-12.1c-0.4,0-0.8-0.3-1-0.7L158,171.9c-0.1-0.3,0-0.6,0.1-0.9c0.2-0.3,0.5-0.4,0.8-0.4H171
			c0.4,0,0.8,0.3,1,0.7l3,9.3c0.2,0.5-0.1,1.1-0.6,1.3c-0.5,0.2-1.1-0.1-1.3-0.6l-2.8-8.6h-10l25.2,78.4h10l-18.9-59
			c-0.2-0.5,0.1-1.1,0.6-1.3c0.5-0.2,1.1,0.1,1.3,0.6l19.4,60.3c0.1,0.3,0,0.6-0.1,0.9C197.5,252.8,197.2,253,196.9,253z"/>
	</g>
	<g>
		<path class="st0" d="M175.9,188.6c-0.4,0-0.8-0.3-1-0.7l-1-3c-0.2-0.5,0.1-1.1,0.6-1.3c0.5-0.2,1.1,0.1,1.3,0.6l1,3
			c0.2,0.5-0.1,1.1-0.6,1.3C176.1,188.6,176,188.6,175.9,188.6z"/>
	</g>
	<g>
		<path class="st0" d="M190.8,252.5c-0.2,0-0.4-0.1-0.5-0.3l-26.1-80.4c-0.1-0.3,0.1-0.5,0.3-0.6c0.3-0.1,0.5,0.1,0.6,0.3l26.1,80.4
			c0.1,0.3-0.1,0.5-0.3,0.6C190.9,252.5,190.9,252.5,190.8,252.5z"/>
	</g>
	<g>
		<path class="st0" d="M170.5,208.6H85.5c-0.3,0-0.6-0.2-0.8-0.4c-0.2-0.3-0.2-0.6-0.1-0.9l5-15.6c0.1-0.4,0.5-0.7,1-0.7h75.1
			c0.4,0,0.8,0.3,1,0.7l5,15.6c0.1,0.3,0,0.6-0.1,0.9C171.2,208.5,170.9,208.6,170.5,208.6z M86.8,206.6h82.4l-4.4-13.6H91.2
			L86.8,206.6z"/>
	</g>
	<g>
		<path class="st0" d="M161.5,180.3H94.5c-0.3,0-0.6-0.2-0.8-0.4c-0.2-0.3-0.2-0.6-0.1-0.9l2.5-7.8c0.1-0.4,0.5-0.7,1-0.7H159
			c0.4,0,0.8,0.3,1,0.7l2.5,7.8c0.1,0.3,0,0.6-0.1,0.9C162.1,180.2,161.8,180.3,161.5,180.3z M95.9,178.3h64.2l-1.9-5.8H97.8
			L95.9,178.3z"/>
	</g>
	<g>
		<path class="st0" d="M181.9,244.1H74.1c-0.3,0-0.6-0.2-0.8-0.4c-0.2-0.3-0.2-0.6-0.1-0.9l5-15.6c0.1-0.4,0.5-0.7,1-0.7H134
			c0.6,0,1,0.4,1,1s-0.4,1-1,1H79.8l-4.4,13.6h105.1l-4.4-13.6h-33.7c-0.6,0-1-0.4-1-1s0.4-1,1-1h34.4c0.4,0,0.8,0.3,1,0.7l5,15.6
			c0.1,0.3,0,0.6-0.1,0.9C182.6,243.9,182.3,244.1,181.9,244.1z"/>
	</g>
	<g>
		<path class="st0" d="M167.4,200.3H88c-0.3,0-0.5-0.2-0.5-0.5s0.2-0.5,0.5-0.5h79.5c0.3,0,0.5,0.2,0.5,0.5S167.7,200.3,167.4,200.3
			z"/>
	</g>
	<g>
		<path class="st0" d="M179,235.8H76.6c-0.3,0-0.5-0.2-0.5-0.5s0.2-0.5,0.5-0.5H179c0.3,0,0.5,0.2,0.5,0.5S179.2,235.8,179,235.8z"
			/>
	</g>
	<g>
		<path class="st0" d="M170.2,172.6H84.4c-9.1,0-16.6-7.4-16.6-16.6V35.2c0-9.1,7.4-16.6,16.6-16.6h85.9c9.1,0,16.6,7.4,16.6,16.6
			V156C186.8,165.1,179.4,172.6,170.2,172.6z M84.4,20.7c-8,0-14.6,6.5-14.6,14.6V156c0,8,6.5,14.6,14.6,14.6h85.9
			c8,0,14.6-6.5,14.6-14.6V35.2c0-8-6.5-14.6-14.6-14.6H84.4z"/>
	</g>
	<g>
		<path class="st0" d="M180.6,112.7H74c-0.6,0-1-0.4-1-1V35.2c0-6.3,5.1-11.4,11.4-11.4h85.9c6.3,0,11.4,5.1,11.4,11.4v8.3
			c0,0.6-0.4,1-1,1s-1-0.4-1-1v-8.3c0-5.2-4.2-9.4-9.4-9.4H84.4c-5.2,0-9.4,4.2-9.4,9.4v75.5h104.6V50c0-0.6,0.4-1,1-1s1,0.4,1,1
			v61.7C181.6,112.2,181.1,112.7,180.6,112.7z"/>
	</g>
	<g>
		<path class="st0" d="M79.2,65.4c-0.3,0-0.5-0.2-0.5-0.5v-3.4c0-0.3,0.2-0.5,0.5-0.5s0.5,0.2,0.5,0.5v3.4
			C79.7,65.2,79.4,65.4,79.2,65.4z"/>
	</g>
	<g>
		<path class="st0" d="M175.4,107H79.2c-0.3,0-0.5-0.2-0.5-0.5V68.1c0-0.3,0.2-0.5,0.5-0.5s0.5,0.2,0.5,0.5V106h95.2V35.2
			c0-2.6-2.1-4.7-4.7-4.7H84.4c-2.6,0-4.7,2.1-4.7,4.7v21.1c0,0.3-0.2,0.5-0.5,0.5s-0.5-0.2-0.5-0.5V35.2c0-3.1,2.6-5.7,5.7-5.7
			h85.9c3.1,0,5.7,2.6,5.7,5.7v71.3C175.9,106.8,175.7,107,175.4,107z"/>
	</g>
	<g>
		<path class="st0" d="M185.8,129h-117c-0.6,0-1-0.4-1-1v-11.1c0-0.6,0.4-1,1-1h117c0.6,0,1,0.4,1,1V128
			C186.8,128.5,186.3,129,185.8,129z M69.8,127h115v-9.1h-115V127z"/>
	</g>
	<g>
		<path class="st0" d="M158.6,20.7H96c-0.6,0-1-0.4-1-1V4c0-0.6,0.4-1,1-1h12.7c0.6,0,1,0.4,1,1s-0.4,1-1,1H97v13.7h60.7V5h-41
			c-0.6,0-1-0.4-1-1s0.4-1,1-1h42c0.6,0,1,0.4,1,1v15.7C159.6,20.2,159.2,20.7,158.6,20.7z"/>
	</g>
	<g>
		<path class="st0" d="M153.4,20.2h-52.3c-0.3,0-0.5-0.2-0.5-0.5V9.2c0-0.3,0.2-0.5,0.5-0.5h52.3c0.3,0,0.5,0.2,0.5,0.5v10.5
			C153.9,19.9,153.7,20.2,153.4,20.2z M101.6,19.2h51.3V9.7h-51.3V19.2z"/>
	</g>
	<g>
		<g>
			<path class="st0" d="M101.5,97.1c-0.1,0-0.3,0-0.4-0.1c-0.2-0.2-0.2-0.5,0-0.7l51.7-51.7c0.2-0.2,0.5-0.2,0.7,0s0.2,0.5,0,0.7
				L101.8,97C101.7,97.1,101.6,97.1,101.5,97.1z"/>
		</g>
		<g>
			<path class="st0" d="M114.2,96.2c-0.1,0-0.3,0-0.4-0.1c-0.2-0.2-0.2-0.5,0-0.7l35.6-35.6c0.2-0.2,0.5-0.2,0.7,0s0.2,0.5,0,0.7
				l-35.6,35.6C114.5,96.2,114.3,96.2,114.2,96.2z"/>
		</g>
	</g>
	<g>
		<path class="st0" d="M159,153.7H95.6c-0.3,0-0.5-0.2-0.5-0.5v-7.3c0-0.3,0.2-0.5,0.5-0.5H159c0.3,0,0.5,0.2,0.5,0.5v7.3
			C159.5,153.5,159.2,153.7,159,153.7z M96.1,152.7h62.4v-6.3H96.1V152.7z"/>
	</g>
	<g>
		<path class="st0" d="M159,141.3h-46.4c-0.3,0-0.5-0.2-0.5-0.5s0.2-0.5,0.5-0.5h45.9v-6.3H96.1v6.3H108c0.3,0,0.5,0.2,0.5,0.5
			s-0.2,0.5-0.5,0.5H95.6c-0.3,0-0.5-0.2-0.5-0.5v-7.3c0-0.3,0.2-0.5,0.5-0.5H159c0.3,0,0.5,0.2,0.5,0.5v7.3
			C159.5,141.1,159.2,141.3,159,141.3z"/>
	</g>
	<g>
		<path class="st0" d="M159,166.2h-6.4c-0.3,0-0.5-0.2-0.5-0.5s0.2-0.5,0.5-0.5h5.9v-6.3H96.1v6.3H147c0.3,0,0.5,0.2,0.5,0.5
			s-0.2,0.5-0.5,0.5H95.6c-0.3,0-0.5-0.2-0.5-0.5v-7.3c0-0.3,0.2-0.5,0.5-0.5H159c0.3,0,0.5,0.2,0.5,0.5v7.3
			C159.5,165.9,159.2,166.2,159,166.2z"/>
	</g>
	<g>
		<path class="st0" d="M185.8,122.9H88.4c-0.3,0-0.5-0.2-0.5-0.5s0.2-0.5,0.5-0.5h97.4c0.3,0,0.5,0.2,0.5,0.5
			S186.1,122.9,185.8,122.9z"/>
	</g>
	<g>
		<path class="st0" d="M81.8,122.9h-13c-0.3,0-0.5-0.2-0.5-0.5s0.2-0.5,0.5-0.5h13c0.3,0,0.5,0.2,0.5,0.5S82,122.9,81.8,122.9z"/>
	</g>
	<g>
		<path class="st0" d="M81.8,158.4c-4.8,0-8.8-3.9-8.8-8.8s3.9-8.8,8.8-8.8s8.8,3.9,8.8,8.8S86.6,158.4,81.8,158.4z M81.8,142.8
			c-3.7,0-6.8,3-6.8,6.8s3,6.8,6.8,6.8s6.8-3,6.8-6.8S85.5,142.8,81.8,142.8z"/>
	</g>
	<g>
		<path class="st0" d="M81.8,154.8c-2.9,0-5.2-2.3-5.2-5.2s2.3-5.2,5.2-5.2s5.2,2.3,5.2,5.2S84.6,154.8,81.8,154.8z M81.8,145.4
			c-2.3,0-4.2,1.9-4.2,4.2s1.9,4.2,4.2,4.2s4.2-1.9,4.2-4.2S84.1,145.4,81.8,145.4z"/>
	</g>
	<g>
		<path class="st0" d="M172.8,158.4c-4.8,0-8.8-3.9-8.8-8.8s3.9-8.8,8.8-8.8c0.2,0,0.3,0,0.5,0c0.6,0,1,0.5,0.9,1.1
			c0,0.6-0.5,1-1.1,0.9c-0.1,0-0.2,0-0.4,0c-3.7,0-6.8,3-6.8,6.8s3,6.8,6.8,6.8s6.8-3,6.8-6.8c0-2.2-1.1-4.2-2.8-5.5
			c-0.4-0.3-0.5-0.9-0.2-1.4s0.9-0.5,1.4-0.2c2.3,1.6,3.6,4.3,3.6,7.1C181.6,154.4,177.7,158.4,172.8,158.4z"/>
	</g>
	<g>
		<path class="st0" d="M172.8,154.8c-2.9,0-5.2-2.3-5.2-5.2s2.3-5.2,5.2-5.2c2.9,0,5.2,2.3,5.2,5.2S175.7,154.8,172.8,154.8z
			 M172.8,145.4c-2.3,0-4.2,1.9-4.2,4.2s1.9,4.2,4.2,4.2c2.3,0,4.2-1.9,4.2-4.2S175.1,145.4,172.8,145.4z"/>
	</g>
	<g>
		<path class="st0" d="M159,137.7H95.6c-0.3,0-0.5-0.2-0.5-0.5s0.2-0.5,0.5-0.5H159c0.3,0,0.5,0.2,0.5,0.5S159.2,137.7,159,137.7z"
			/>
	</g>
	<g>
		<path class="st0" d="M159,150.1H95.6c-0.3,0-0.5-0.2-0.5-0.5s0.2-0.5,0.5-0.5H159c0.3,0,0.5,0.2,0.5,0.5S159.2,150.1,159,150.1z"
			/>
	</g>
	<g>
		<path class="st0" d="M159,162.5H95.6c-0.3,0-0.5-0.2-0.5-0.5s0.2-0.5,0.5-0.5H159c0.3,0,0.5,0.2,0.5,0.5S159.2,162.5,159,162.5z"
			/>
	</g>
</g>
</svg>
