<?xml version="1.0" encoding="utf-8"?>
<!-- Generator: Adobe Illustrator 22.1.0, SVG Export Plug-In . SVG Version: 6.00 Build 0)  -->
<svg version="1.1" id="Layer_1" xmlns="http://www.w3.org/2000/svg" xmlns:xlink="http://www.w3.org/1999/xlink" x="0px" y="0px"
	 viewBox="0 0 256 256" style="enable-background:new 0 0 256 256;" xml:space="preserve">
<style type="text/css">
	.st0{fill:#48386A;}
</style>
<g>
	<g>
		<path class="st0" d="M240.3,205.1H85.5c-0.6,0-1-0.4-1-1s0.4-1,1-1h154.8c2.2,0,4-1.8,4-4v-0.3c0-2.2-1.8-4-4-4H15.7
			c-2.2,0-4,1.8-4,4v0.3c0,2.2,1.8,4,4,4h64.2c0.6,0,1,0.4,1,1s-0.4,1-1,1H15.7c-3.3,0-6-2.7-6-6v-0.3c0-3.3,2.7-6,6-6h224.7
			c3.3,0,6,2.7,6,6v0.3C246.3,202.4,243.6,205.1,240.3,205.1z"/>
	</g>
	<g>
		<path class="st0" d="M168,249.2h-2.3c-0.6,0-1-0.4-1-1s0.4-1,1-1h2.3c0.6,0,1,0.4,1,1S168.6,249.2,168,249.2z"/>
	</g>
	<g>
		<path class="st0" d="M240.3,249.2h-68.8c-0.6,0-1-0.4-1-1s0.4-1,1-1h68.8c2.2,0,4-1.8,4-4V243c0-2.2-1.8-4-4-4H15.7
			c-2.2,0-4,1.8-4,4v0.3c0,2.2,1.8,4,4,4h145.5c0.6,0,1,0.4,1,1s-0.4,1-1,1H15.7c-3.3,0-6-2.7-6-6V243c0-3.3,2.7-6,6-6h224.7
			c3.3,0,6,2.7,6,6v0.3C246.3,246.5,243.6,249.2,240.3,249.2z"/>
	</g>
	<g>
		<path class="st0" d="M140.8,239h-25.7c-0.6,0-1-0.4-1-1v-33.9c0-0.6,0.4-1,1-1h25.7c0.6,0,1,0.4,1,1V238
			C141.8,238.5,141.4,239,140.8,239z M116.2,237h23.7v-31.9h-23.7V237z"/>
	</g>
	<g>
		<path class="st0" d="M56.8,239H31.2c-0.6,0-1-0.4-1-1v-33.9c0-0.6,0.4-1,1-1h25.7c0.6,0,1,0.4,1,1V238
			C57.8,238.5,57.4,239,56.8,239z M32.2,237h23.7v-31.9H32.2V237z"/>
	</g>
	<g>
		<path class="st0" d="M49.7,238.5H38.4c-0.3,0-0.5-0.2-0.5-0.5v-33.9c0-0.3,0.2-0.5,0.5-0.5h11.3c0.3,0,0.5,0.2,0.5,0.5V238
			C50.2,238.3,49.9,238.5,49.7,238.5z M38.9,237.5h10.3v-32.9H38.9V237.5z"/>
	</g>
	<g>
		<path class="st0" d="M133.6,238.5h-11.3c-0.3,0-0.5-0.2-0.5-0.5v-33.9c0-0.3,0.2-0.5,0.5-0.5h11.3c0.3,0,0.5,0.2,0.5,0.5V238
			C134.1,238.3,133.9,238.5,133.6,238.5z M122.9,237.5h10.3v-32.9h-10.3V237.5z"/>
	</g>
	<g>
		<path class="st0" d="M217.6,238.5h-11.3c-0.3,0-0.5-0.2-0.5-0.5v-33.9c0-0.3,0.2-0.5,0.5-0.5h11.3c0.3,0,0.5,0.2,0.5,0.5V238
			C218.1,238.3,217.9,238.5,217.6,238.5z M206.8,237.5h10.3v-32.9h-10.3V237.5z"/>
	</g>
	<g>
		<path class="st0" d="M224.8,239h-25.7c-0.6,0-1-0.4-1-1v-33.9c0-0.6,0.4-1,1-1h25.7c0.6,0,1,0.4,1,1V238
			C225.8,238.5,225.4,239,224.8,239z M200.2,237h23.7v-31.9h-23.7V237z"/>
	</g>
	<g>
		<path class="st0" d="M113.6,194.8H26.1c-0.6,0-1-0.4-1-1v-80c0-0.6,0.4-1,1-1h87.6c0.6,0,1,0.4,1,1v80
			C114.6,194.4,114.2,194.8,113.6,194.8z M27.1,192.8h85.6v-78H27.1V192.8z"/>
	</g>
	<g>
		<path class="st0" d="M113.6,160.5H26.1c-0.3,0-0.5-0.2-0.5-0.5v-12.3c0-0.3,0.2-0.5,0.5-0.5h64.7c0.3,0,0.5,0.2,0.5,0.5
			s-0.2,0.5-0.5,0.5H26.6v11.3h86.6v-11.3H95.3c-0.3,0-0.5-0.2-0.5-0.5s0.2-0.5,0.5-0.5h18.3c0.3,0,0.5,0.2,0.5,0.5V160
			C114.1,160.3,113.9,160.5,113.6,160.5z"/>
	</g>
	<g>
		<path class="st0" d="M229.9,148.2h-28c-0.3,0-0.5-0.2-0.5-0.5s0.2-0.5,0.5-0.5h27.5v-11.3H114.1v11.3h83.6c0.3,0,0.5,0.2,0.5,0.5
			s-0.2,0.5-0.5,0.5h-84.1c-0.3,0-0.5-0.2-0.5-0.5v-12.3c0-0.3,0.2-0.5,0.5-0.5h116.3c0.3,0,0.5,0.2,0.5,0.5v12.3
			C230.4,147.9,230.2,148.2,229.9,148.2z"/>
	</g>
	<g>
		<path class="st0" d="M82.5,133.3H57.2c-0.6,0-1-0.4-1-1v-18.5c0-0.6,0.4-1,1-1h25.3c0.6,0,1,0.4,1,1v18.5
			C83.5,132.8,83.1,133.3,82.5,133.3z M58.2,131.3h23.3v-16.5H58.2V131.3z"/>
	</g>
	<g>
		<path class="st0" d="M77.4,127.6H62.3c-0.3,0-0.5-0.2-0.5-0.5v-13.3c0-0.3,0.2-0.5,0.5-0.5h15.1c0.3,0,0.5,0.2,0.5,0.5v13.3
			C77.9,127.4,77.6,127.6,77.4,127.6z M62.8,126.6h14.1v-12.3H62.8V126.6z"/>
	</g>
	<g>
		<path class="st0" d="M95.9,194.8H43.8c-0.6,0-1-0.4-1-1v-18.5c0-0.6,0.4-1,1-1h8.7c0.6,0,1,0.4,1,1s-0.4,1-1,1h-7.7v16.5h50.2
			v-16.5H55.8c-0.6,0-1-0.4-1-1s0.4-1,1-1h40.1c0.6,0,1,0.4,1,1v18.5C96.9,194.4,96.5,194.8,95.9,194.8z"/>
	</g>
	<g>
		<path class="st0" d="M90.8,194.3H48.9c-0.3,0-0.5-0.2-0.5-0.5v-13.3c0-0.3,0.2-0.5,0.5-0.5h41.9c0.3,0,0.5,0.2,0.5,0.5v13.3
			C91.3,194.1,91.1,194.3,90.8,194.3z M49.4,193.3h40.9V181H49.4V193.3z"/>
	</g>
	<g>
		<path class="st0" d="M209.3,194.8h-75c-0.6,0-1-0.4-1-1v-26.6c0-0.6,0.4-1,1-1h75c0.6,0,1,0.4,1,1v26.6
			C210.3,194.4,209.8,194.8,209.3,194.8z M135.3,192.8h73v-24.6h-73V192.8z"/>
	</g>
	<g>
		<path class="st0" d="M149.3,124c-0.2,0-0.4-0.1-0.5-0.2c-0.3-0.2-0.5-0.5-0.5-0.8V82.7c0-0.6,0.4-1,1-1h45c0.6,0,1,0.4,1,1V123
			c0,0.3-0.2,0.7-0.5,0.8c-0.3,0.2-0.6,0.2-1,0.1l-22.1-10.1l-22.1,10.1C149.6,124,149.4,124,149.3,124z M150.3,83.7v37.8l21.1-9.6
			c0.3-0.1,0.6-0.1,0.8,0l21.1,9.6V83.7H150.3z"/>
	</g>
	<g>
		<path class="st0" d="M201.9,194.3h-60.2c-0.3,0-0.5-0.2-0.5-0.5v-19.2c0-0.3,0.2-0.5,0.5-0.5h11c0.3,0,0.5,0.2,0.5,0.5
			s-0.2,0.5-0.5,0.5h-10.5v18.2h59.2v-18.2h-44.6c-0.3,0-0.5-0.2-0.5-0.5s0.2-0.5,0.5-0.5h45.1c0.3,0,0.5,0.2,0.5,0.5v19.2
			C202.4,194.1,202.2,194.3,201.9,194.3z"/>
	</g>
	<g>
		<path class="st0" d="M113.6,114.8h-67c-0.6,0-1-0.4-1-1v-38c0-0.6,0.4-1,1-1s1,0.4,1,1v37h65V82.7c0-0.6,0.4-1,1-1h19.5V45H47.6
			v26.1c0,0.6-0.4,1-1,1s-1-0.4-1-1V44c0-0.6,0.4-1,1-1h87.6c0.6,0,1,0.4,1,1v38.7c0,0.6-0.4,1-1,1h-19.5v30.1
			C114.6,114.4,114.2,114.8,113.6,114.8z"/>
	</g>
	<g>
		<path class="st0" d="M113.6,64H67.1c-0.6,0-1-0.4-1-1V44c0-0.6,0.4-1,1-1h46.5c0.6,0,1,0.4,1,1v19C114.6,63.6,114.2,64,113.6,64z
			 M68.1,62h44.5V45H68.1V62z"/>
	</g>
	<g>
		<path class="st0" d="M108.5,58.4h-8c-0.3,0-0.5-0.2-0.5-0.5s0.2-0.5,0.5-0.5h7.5V44.5H72.7v12.9h23.8c0.3,0,0.5,0.2,0.5,0.5
			s-0.2,0.5-0.5,0.5H72.2c-0.3,0-0.5-0.2-0.5-0.5V44c0-0.3,0.2-0.5,0.5-0.5h36.3c0.3,0,0.5,0.2,0.5,0.5v13.9
			C109,58.1,108.8,58.4,108.5,58.4z"/>
	</g>
	<g>
		<path class="st0" d="M170.9,27.7h-27.4c-0.6,0-1-0.4-1-1s0.4-1,1-1h26.4v-17h-44.5v17h13.4c0.6,0,1,0.4,1,1s-0.4,1-1,1h-14.4
			c-0.6,0-1-0.4-1-1v-19c0-0.6,0.4-1,1-1h46.5c0.6,0,1,0.4,1,1v19C171.9,27.3,171.5,27.7,170.9,27.7z"/>
	</g>
	<g>
		<path class="st0" d="M165.8,22.1h-36.3c-0.3,0-0.5-0.2-0.5-0.5V7.8c0-0.3,0.2-0.5,0.5-0.5h36.3c0.3,0,0.5,0.2,0.5,0.5v13.9
			C166.3,21.9,166.1,22.1,165.8,22.1z M130,21.1h35.3V8.3H130V21.1z"/>
	</g>
	<g>
		<path class="st0" d="M211.1,83.7h-77c-0.6,0-1-0.4-1-1V45H89.3c-0.6,0-1-0.4-1-1V7.8c0-0.6,0.4-1,1-1h121.8c0.6,0,1,0.4,1,1v19.9
			c0,0.6-0.4,1-1,1s-1-0.4-1-1V8.8H90.3V43h43.8c0.6,0,1,0.4,1,1v37.7h75v-49c0-0.6,0.4-1,1-1s1,0.4,1,1v50
			C212.1,83.2,211.7,83.7,211.1,83.7z"/>
	</g>
	<g>
		<path class="st0" d="M229.9,194.8H113.6c-0.6,0-1-0.4-1-1V82.7c0-0.6,0.4-1,1-1h116.3c0.6,0,1,0.4,1,1v111.2
			C230.9,194.4,230.5,194.8,229.9,194.8z M114.6,192.8h114.3V83.7H114.6V192.8z"/>
	</g>
	<g>
		<path class="st0" d="M87.7,91h-27c-0.3,0-0.5-0.2-0.5-0.5v-7.8c0-0.3,0.2-0.5,0.5-0.5h27c0.3,0,0.5,0.2,0.5,0.5v7.8
			C88.2,90.7,88,91,87.7,91z M61.2,90h26v-6.8h-26V90z"/>
	</g>
	<g>
		<path class="st0" d="M87.7,104.2h-27c-0.3,0-0.5-0.2-0.5-0.5V96c0-0.3,0.2-0.5,0.5-0.5h27c0.3,0,0.5,0.2,0.5,0.5v7.8
			C88.2,104,88,104.2,87.7,104.2z M61.2,103.2h26v-6.8h-26V103.2z"/>
	</g>
	<g>
		<path class="st0" d="M194.3,52.3h-45c-0.3,0-0.5-0.2-0.5-0.5V44c0-0.3,0.2-0.5,0.5-0.5h45c0.3,0,0.5,0.2,0.5,0.5v7.8
			C194.8,52.1,194.6,52.3,194.3,52.3z M149.8,51.3h44v-6.8h-44V51.3z"/>
	</g>
	<g>
		<path class="st0" d="M194.3,65.6h-26.1c-0.3,0-0.5-0.2-0.5-0.5s0.2-0.5,0.5-0.5h25.6v-6.8h-44v6.8h14.1c0.3,0,0.5,0.2,0.5,0.5
			s-0.2,0.5-0.5,0.5h-14.6c-0.3,0-0.5-0.2-0.5-0.5v-7.8c0-0.3,0.2-0.5,0.5-0.5h45c0.3,0,0.5,0.2,0.5,0.5v7.8
			C194.8,65.4,194.6,65.6,194.3,65.6z"/>
	</g>
	<g>
		<path class="st0" d="M154.9,121c-0.1,0-0.2,0-0.3-0.1c-0.1-0.1-0.2-0.3-0.2-0.4V82.7c0-0.3,0.2-0.5,0.5-0.5h33.7
			c0.3,0,0.5,0.2,0.5,0.5v37.8c0,0.2-0.1,0.3-0.2,0.4c-0.1,0.1-0.3,0.1-0.5,0l-16.7-7.6l-16.7,7.6C155.1,120.9,155,121,154.9,121z
			 M155.4,83.2v36.5l16.2-7.4c0.1-0.1,0.3-0.1,0.4,0l16.2,7.4V83.2H155.4z"/>
	</g>
	<g>
		<path class="st0" d="M245.3,199.6h-61.8c-0.3,0-0.5-0.2-0.5-0.5s0.2-0.5,0.5-0.5h61.8c0.3,0,0.5,0.2,0.5,0.5
			S245.6,199.6,245.3,199.6z"/>
	</g>
	<g>
		<path class="st0" d="M178.7,199.6h-168c-0.3,0-0.5-0.2-0.5-0.5s0.2-0.5,0.5-0.5h168c0.3,0,0.5,0.2,0.5,0.5
			S178.9,199.6,178.7,199.6z"/>
	</g>
	<g>
		<path class="st0" d="M245.3,243.7H10.7c-0.3,0-0.5-0.2-0.5-0.5s0.2-0.5,0.5-0.5h234.7c0.3,0,0.5,0.2,0.5,0.5
			S245.6,243.7,245.3,243.7z"/>
	</g>
</g>
</svg>
