<?xml version="1.0" encoding="utf-8"?>
<!-- Generator: Adobe Illustrator 22.1.0, SVG Export Plug-In . SVG Version: 6.00 Build 0)  -->
<svg version="1.1" id="Layer_1" xmlns="http://www.w3.org/2000/svg" xmlns:xlink="http://www.w3.org/1999/xlink" x="0px" y="0px"
	 viewBox="0 0 256 256" style="enable-background:new 0 0 256 256;" xml:space="preserve">
<style type="text/css">
	.st0{fill:#48386A;}
</style>
<g>
	<g>
		<path class="st0" d="M187,248.4H83.5c-0.6,0-1-0.4-1-1V231c0-0.6,0.4-1,1-1H187c0.6,0,1,0.4,1,1v16.5
			C188,248,187.5,248.4,187,248.4z M84.5,246.4H186V232H84.5V246.4z"/>
	</g>
	<g>
		<path class="st0" d="M142,232H83.5c-0.3,0-0.5-0.1-0.7-0.3c-0.2-0.2-0.3-0.4-0.3-0.7l0-16.5c0-0.6,0.4-1,1-1H142c0.6,0,1,0.4,1,1
			V231C143,231.5,142.5,232,142,232z M84.5,230H141v-14.5H84.6L84.5,230z"/>
	</g>
	<g>
		<path class="st0" d="M142,215.5H83.6c-0.6,0-1-0.4-1-1l0-205.9c0-0.3,0.1-0.5,0.3-0.7s0.4-0.3,0.7-0.3h68.9c0.6,0,1,0.4,1,1
			s-0.4,1-1,1H84.5l0,203.9H141v-45.1c0-0.6,0.4-1,1-1h44V9.5h-25c-0.6,0-1-0.4-1-1s0.4-1,1-1h26c0.6,0,1,0.4,1,1v159.8
			c0,0.6-0.4,1-1,1h-44v45.1C143,215,142.5,215.5,142,215.5z"/>
	</g>
	<g>
		<path class="st0" d="M142,209.2H88.8c-0.3,0-0.5-0.2-0.5-0.5V14.4c0-0.3,0.2-0.5,0.5-0.5H108c0.3,0,0.5,0.2,0.5,0.5
			s-0.2,0.5-0.5,0.5H89.3v193.3h52.1v-39.9c0-0.3,0.2-0.5,0.5-0.5h39.2V14.9h-69.5c-0.3,0-0.5-0.2-0.5-0.5s0.2-0.5,0.5-0.5h70
			c0.3,0,0.5,0.2,0.5,0.5v153.9c0,0.3-0.2,0.5-0.5,0.5h-39.2v39.9C142.5,209,142.3,209.2,142,209.2z"/>
	</g>
	<g>
		<path class="st0" d="M172.9,109H97.6c-0.6,0-1-0.4-1-1V85.5c0-0.6,0.4-1,1-1s1,0.4,1,1V107h73.3V22.4H98.6v56.2c0,0.6-0.4,1-1,1
			s-1-0.4-1-1V21.4c0-0.6,0.4-1,1-1h75.3c0.6,0,1,0.4,1,1V108C173.9,108.6,173.5,109,172.9,109z"/>
	</g>
	<g>
		<path class="st0" d="M167.1,102.7h-63.6c-0.3,0-0.5-0.2-0.5-0.5V27.3c0-0.3,0.2-0.5,0.5-0.5h63.6c0.3,0,0.5,0.2,0.5,0.5v74.9
			C167.6,102.5,167.3,102.7,167.1,102.7z M103.9,101.7h62.6V27.8h-62.6V101.7z"/>
	</g>
	<g>
		<g>
			<path class="st0" d="M117.9,88.3c-0.1,0-0.2,0-0.3-0.1c-0.2-0.2-0.2-0.5,0-0.7l40.6-46c0.2-0.2,0.5-0.2,0.7,0
				c0.2,0.2,0.2,0.5,0,0.7l-40.6,46C118.2,88.2,118,88.3,117.9,88.3z"/>
		</g>
		<g>
			<path class="st0" d="M131,86c-0.1,0-0.2,0-0.3-0.1c-0.2-0.2-0.2-0.5-0.1-0.7l25.2-30.6c0.2-0.2,0.5-0.2,0.7-0.1
				c0.2,0.2,0.2,0.5,0.1,0.7l-25.2,30.6C131.3,86,131.2,86,131,86z"/>
		</g>
	</g>
	<g>
		<path class="st0" d="M172.9,169.3H142c-0.6,0-1-0.4-1-1v-49.8c0-0.6,0.4-1,1-1h30.9c0.6,0,1,0.4,1,1v49.8
			C173.9,168.9,173.5,169.3,172.9,169.3z M143,167.3h28.9v-47.8H143V167.3z"/>
	</g>
	<g>
		<path class="st0" d="M167.1,168.8h-19.2c-0.3,0-0.5-0.2-0.5-0.5v-43.9c0-0.3,0.2-0.5,0.5-0.5h19.2c0.3,0,0.5,0.2,0.5,0.5v43.9
			C167.6,168.6,167.3,168.8,167.1,168.8z M148.3,167.8h18.2v-42.9h-18.2V167.8z"/>
	</g>
	<g>
		<path class="st0" d="M128.5,203.5H97.6c-0.6,0-1-0.4-1-1v-83.9c0-0.6,0.4-1,1-1h30.9c0.6,0,1,0.4,1,1v18.2c0,0.6-0.4,1-1,1
			s-1-0.4-1-1v-17.2H98.6v81.9h28.9v-58c0-0.6,0.4-1,1-1s1,0.4,1,1v59C129.5,203,129.1,203.5,128.5,203.5z"/>
	</g>
	<g>
		<path class="st0" d="M122.7,197.1h-19.2c-0.3,0-0.5-0.2-0.5-0.5v-72.2c0-0.3,0.2-0.5,0.5-0.5h19.2c0.3,0,0.5,0.2,0.5,0.5v72.2
			C123.2,196.9,122.9,197.1,122.7,197.1z M103.9,196.1h18.2v-71.2h-18.2V196.1z"/>
	</g>
	<g>
		<path class="st0" d="M187,232h-45c-0.6,0-1-0.4-1-1v-62.6c0-0.6,0.4-1,1-1h77.1c0.6,0,1,0.4,1,1v13.2c0,0.6-0.4,1-1,1s-1-0.4-1-1
			v-12.2H143V230h43v-33.3c0-0.6,0.4-1,1-1h31.1v-9.8c0-0.6,0.4-1,1-1s1,0.4,1,1v10.8c0,0.6-0.4,1-1,1H188V231
			C188,231.5,187.5,232,187,232z"/>
	</g>
	<g>
		<path class="st0" d="M193.9,186.3h-26.7c-0.6,0-1-0.4-1-1v-16.9c0-0.6,0.4-1,1-1h26.7c0.6,0,1,0.4,1,1v16.9
			C194.9,185.8,194.4,186.3,193.9,186.3z M168.1,184.3h24.7v-14.9h-24.7V184.3z"/>
	</g>
	<g>
		<path class="st0" d="M190.7,182.6h-20.3c-0.3,0-0.5-0.2-0.5-0.5v-13.7c0-0.3,0.2-0.5,0.5-0.5h20.3c0.3,0,0.5,0.2,0.5,0.5v13.7
			C191.2,182.3,191,182.6,190.7,182.6z M170.9,181.6h19.3v-12.7h-19.3V181.6z"/>
	</g>
	<g>
		<path class="st0" d="M187,232h-33.8c-0.6,0-1-0.4-1-1V214c0-0.6,0.4-1,1-1h13.9c0.6,0,1,0.4,1,1s-0.4,1-1,1h-12.9V230H186V215
			h-14.3c-0.6,0-1-0.4-1-1s0.4-1,1-1H187c0.6,0,1,0.4,1,1V231C188,231.5,187.5,232,187,232z"/>
	</g>
	<g>
		<path class="st0" d="M187,231.5h-30.6c-0.3,0-0.5-0.2-0.5-0.5v-13.7c0-0.3,0.2-0.5,0.5-0.5H187c0.3,0,0.5,0.2,0.5,0.5V231
			C187.5,231.2,187.2,231.5,187,231.5z M156.9,230.5h29.6v-12.7h-29.6V230.5z"/>
	</g>
	<g>
		<path class="st0" d="M249.5,248.4H187c-0.6,0-1-0.4-1-1v-50.8c0-0.6,0.4-1,1-1h62.5c0.6,0,1,0.4,1,1v50.8
			C250.5,248,250.1,248.4,249.5,248.4z M188,246.4h60.5v-48.8H188V246.4z"/>
	</g>
	<g>
		<path class="st0" d="M229.1,211.4h-21.7c-0.6,0-1-0.4-1-1v-13.8c0-0.6,0.4-1,1-1h21.7c0.6,0,1,0.4,1,1v13.8
			C230.1,210.9,229.6,211.4,229.1,211.4z M208.4,209.4h19.7v-11.8h-19.7V209.4z"/>
	</g>
	<g>
		<path class="st0" d="M225,206.8h-13.5c-0.3,0-0.5-0.2-0.5-0.5v-9.6c0-0.3,0.2-0.5,0.5-0.5H225c0.3,0,0.5,0.2,0.5,0.5v9.6
			C225.5,206.5,225.2,206.8,225,206.8z M212,205.8h12.5v-8.6H212V205.8z"/>
	</g>
	<g>
		<path class="st0" d="M240.4,248.5H196c-0.6,0-1-0.4-1-1v-13.8c0-0.6,0.4-1,1-1h44.4c0.6,0,1,0.4,1,1v13.8
			C241.4,248,241,248.5,240.4,248.5z M197,246.5h42.4v-11.8H197V246.5z"/>
	</g>
	<g>
		<path class="st0" d="M237.2,247.9h-38c-0.3,0-0.5-0.2-0.5-0.5v-10.5c0-0.3,0.2-0.5,0.5-0.5h38c0.3,0,0.5,0.2,0.5,0.5v10.5
			C237.7,247.7,237.5,247.9,237.2,247.9z M199.7,246.9h37v-9.5h-37V246.9z"/>
	</g>
	<g>
		<path class="st0" d="M83.6,248.5H6.5c-0.6,0-1-0.4-1-1v-34.9c0-0.6,0.4-1,1-1s1,0.4,1,1v33.9h75.1v-60.6H7.5v17c0,0.6-0.4,1-1,1
			s-1-0.4-1-1v-18c0-0.6,0.4-1,1-1h77.1c0.6,0,1,0.4,1,1v62.6C84.6,248,84.1,248.5,83.6,248.5z"/>
	</g>
	<g>
		<path class="st0" d="M58.4,202.8H31.7c-0.6,0-1-0.4-1-1v-16.9c0-0.6,0.4-1,1-1h26.7c0.6,0,1,0.4,1,1v16.9
			C59.4,202.3,59,202.8,58.4,202.8z M32.7,200.8h24.7v-14.9H32.7V200.8z"/>
	</g>
	<g>
		<path class="st0" d="M55.2,199.1H34.9c-0.3,0-0.5-0.2-0.5-0.5v-13.7c0-0.3,0.2-0.5,0.5-0.5h20.3c0.3,0,0.5,0.2,0.5,0.5v13.7
			C55.7,198.8,55.5,199.1,55.2,199.1z M35.4,198.1h19.3v-12.7H35.4V198.1z"/>
	</g>
	<g>
		<path class="st0" d="M72.4,248.4H17.7c-0.6,0-1-0.4-1-1v-16.9c0-0.6,0.4-1,1-1h54.7c0.6,0,1,0.4,1,1v16.9
			C73.4,248,72.9,248.4,72.4,248.4z M18.7,246.4h52.7v-14.9H18.7V246.4z"/>
	</g>
	<g>
		<path class="st0" d="M69.2,247.9H20.9c-0.3,0-0.5-0.2-0.5-0.5v-13.7c0-0.3,0.2-0.5,0.5-0.5h32c0.3,0,0.5,0.2,0.5,0.5
			s-0.2,0.5-0.5,0.5H21.4v12.7h47.3v-12.7H56.4c-0.3,0-0.5-0.2-0.5-0.5s0.2-0.5,0.5-0.5h12.8c0.3,0,0.5,0.2,0.5,0.5v13.7
			C69.7,247.7,69.5,247.9,69.2,247.9z"/>
	</g>
	<g>
		<path class="st0" d="M55.7,185.8H16.4c-0.6,0-1-0.4-1-1v-31.9c0-0.6,0.4-1,1-1h39.3c0.6,0,1,0.4,1,1v31.9
			C56.7,185.4,56.3,185.8,55.7,185.8z M17.4,183.8h37.3v-29.9H17.4V183.8z"/>
	</g>
	<g>
		<path class="st0" d="M50,185.3H22.1c-0.3,0-0.5-0.2-0.5-0.5v-8.6c0-0.3,0.2-0.5,0.5-0.5H50c0.3,0,0.5,0.2,0.5,0.5v8.6
			C50.5,185.1,50.3,185.3,50,185.3z M22.6,184.3h26.9v-7.6H22.6V184.3z"/>
	</g>
	<g>
		<path class="st0" d="M47.5,185.3H24.7c-0.3,0-0.5-0.2-0.5-0.5v-6.1c0-0.3,0.2-0.5,0.5-0.5h22.8c0.3,0,0.5,0.2,0.5,0.5v6.1
			C48,185.1,47.8,185.3,47.5,185.3z M25.2,184.3H47v-5.1H25.2V184.3z"/>
	</g>
	<g>
		<path class="st0" d="M45.1,162.4h-18c-0.3,0-0.5-0.2-0.5-0.5v-9c0-0.3,0.2-0.5,0.5-0.5h18c0.3,0,0.5,0.2,0.5,0.5v9
			C45.6,162.2,45.3,162.4,45.1,162.4z M27.6,161.4h17v-8h-17V161.4z"/>
	</g>
	<g>
		<path class="st0" d="M41.8,159.8H30.3c-0.3,0-0.5-0.2-0.5-0.5v-6.4c0-0.3,0.2-0.5,0.5-0.5h11.5c0.3,0,0.5,0.2,0.5,0.5v6.4
			C42.3,159.6,42.1,159.8,41.8,159.8z M30.8,158.8h10.5v-5.4H30.8V158.8z"/>
	</g>
	<g>
		<path class="st0" d="M76.8,185.8H55.7c-0.6,0-1-0.4-1-1v-66.2c0-0.6,0.4-1,1-1h21.1c0.6,0,1,0.4,1,1v66.2
			C77.8,185.4,77.4,185.8,76.8,185.8z M56.7,183.8h19.1v-64.2H56.7V183.8z"/>
	</g>
	<g>
		<path class="st0" d="M71.2,185.3h-9.8c-0.3,0-0.5-0.2-0.5-0.5v-66.2c0-0.3,0.2-0.5,0.5-0.5h9.8c0.3,0,0.5,0.2,0.5,0.5v16.8
			c0,0.3-0.2,0.5-0.5,0.5s-0.5-0.2-0.5-0.5v-16.3h-8.8v65.2h8.8v-44.5c0-0.3,0.2-0.5,0.5-0.5s0.5,0.2,0.5,0.5v45
			C71.7,185.1,71.4,185.3,71.2,185.3z"/>
	</g>
	<g>
		<path class="st0" d="M142,223.2H83.5c-0.3,0-0.5-0.2-0.5-0.5s0.2-0.5,0.5-0.5H142c0.3,0,0.5,0.2,0.5,0.5S142.3,223.2,142,223.2z"
			/>
	</g>
	<g>
		<path class="st0" d="M187,239.7h-23.3c-0.3,0-0.5-0.2-0.5-0.5s0.2-0.5,0.5-0.5H187c0.3,0,0.5,0.2,0.5,0.5S187.2,239.7,187,239.7z"
			/>
	</g>
	<g>
		<path class="st0" d="M158.9,239.7H84.6c-0.3,0-0.5-0.2-0.5-0.5s0.2-0.5,0.5-0.5h74.3c0.3,0,0.5,0.2,0.5,0.5
			S159.2,239.7,158.9,239.7z"/>
	</g>
</g>
</svg>
