<?xml version="1.0" encoding="utf-8"?>
<!-- Generator: Adobe Illustrator 22.1.0, SVG Export Plug-In . SVG Version: 6.00 Build 0)  -->
<svg version="1.1" id="Layer_1" xmlns="http://www.w3.org/2000/svg" xmlns:xlink="http://www.w3.org/1999/xlink" x="0px" y="0px"
	 viewBox="0 0 256 256" style="enable-background:new 0 0 256 256;" xml:space="preserve">
<style type="text/css">
	.st0{fill:#48386A;}
</style>
<g>
	<g>
		<path class="st0" d="M74.7,243.5h-2.8c-0.6,0-1-0.4-1-1s0.4-1,1-1h2.8c0.6,0,1,0.4,1,1S75.2,243.5,74.7,243.5z"/>
	</g>
	<g>
		<path class="st0" d="M241.1,243.5H80c-0.6,0-1-0.4-1-1s0.4-1,1-1h161.2c5.3,0,9.6-4.3,9.6-9.6V118.5c0-5.3-4.3-9.6-9.6-9.6h-31.1
			l-17.3,76.9c-0.1,0.5-0.5,0.8-1,0.8H70.4c-0.5,0-0.9-0.3-1-0.8l-17.3-76.9H14.9c-5.3,0-9.6,4.3-9.6,9.6v113.4
			c0,5.3,4.3,9.6,9.6,9.6h51.7c0.6,0,1,0.4,1,1s-0.4,1-1,1H14.9c-6.4,0-11.6-5.2-11.6-11.6V118.5c0-6.4,5.2-11.6,11.6-11.6H53
			c0.5,0,0.9,0.3,1,0.8l17.3,76.9H191l17.3-76.9c0.1-0.5,0.5-0.8,1-0.8h31.9c6.4,0,11.6,5.2,11.6,11.6v113.4
			C252.7,238.3,247.5,243.5,241.1,243.5z"/>
	</g>
	<g>
		<path class="st0" d="M240.4,234.4H15.6c-1.8,0-3.3-1.5-3.3-3.3V119.3c0-1.8,1.5-3.3,3.3-3.3H55c0.5,0,0.9,0.3,1,0.8l15.3,67.9H191
			l15.3-67.9c0.1-0.5,0.5-0.8,1-0.8h33.2c1.8,0,3.3,1.5,3.3,3.3v23.2c0,0.6-0.4,1-1,1s-1-0.4-1-1v-23.2c0-0.7-0.6-1.3-1.3-1.3H208
			l-15.3,67.9c-0.1,0.5-0.5,0.8-1,0.8H70.4c-0.5,0-0.9-0.3-1-0.8L54.2,118H15.6c-0.7,0-1.3,0.6-1.3,1.3v111.9c0,0.7,0.6,1.3,1.3,1.3
			h224.8c0.7,0,1.3-0.6,1.3-1.3v-80.3c0-0.6,0.4-1,1-1s1,0.4,1,1v80.3C243.7,233,242.2,234.4,240.4,234.4z"/>
	</g>
	<g>
		<path class="st0" d="M240.4,233.9h-24c-0.3,0-0.5-0.2-0.5-0.5V117c0-0.3,0.2-0.5,0.5-0.5h24c1.5,0,2.8,1.2,2.8,2.8v23.2
			c0,0.3-0.2,0.5-0.5,0.5s-0.5-0.2-0.5-0.5v-23.2c0-1-0.8-1.8-1.8-1.8h-23.5v115.4h23.5c1,0,1.8-0.8,1.8-1.8v-80.3
			c0-0.3,0.2-0.5,0.5-0.5s0.5,0.2,0.5,0.5v80.3C243.2,232.7,241.9,233.9,240.4,233.9z"/>
	</g>
	<g>
		<path class="st0" d="M39.6,233.9h-24c-1.5,0-2.8-1.2-2.8-2.8V119.3c0-1.5,1.2-2.8,2.8-2.8h24c0.3,0,0.5,0.2,0.5,0.5v116.4
			C40.1,233.7,39.9,233.9,39.6,233.9z M15.6,117.5c-1,0-1.8,0.8-1.8,1.8v111.9c0,1,0.8,1.8,1.8,1.8h23.5V117.5H15.6z"/>
	</g>
	<g>
		<path class="st0" d="M229.9,200.6h-0.8c-3.7,0-6.7-3-6.7-6.7v-8.2c0-0.6,0.4-1,1-1s1,0.4,1,1v8.2c0,2.6,2.1,4.7,4.7,4.7h0.8
			c2.6,0,4.7-2.1,4.7-4.7v-37.2c0-2.6-2.1-4.7-4.7-4.7h-0.8c-2.6,0-4.7,2.1-4.7,4.7v21.1c0,0.6-0.4,1-1,1s-1-0.4-1-1v-21.1
			c0-3.7,3-6.7,6.7-6.7h0.8c3.7,0,6.7,3,6.7,6.7v37.2C236.7,197.5,233.6,200.6,229.9,200.6z"/>
	</g>
	<g>
		<path class="st0" d="M229.5,196.7c-1.8,0-3.2-1.5-3.2-3.2V157c0-1.8,1.5-3.2,3.2-3.2s3.2,1.5,3.2,3.2v36.4
			C232.8,195.2,231.3,196.7,229.5,196.7z M229.5,154.8c-1.2,0-2.2,1-2.2,2.2v36.4c0,1.2,1,2.2,2.2,2.2s2.2-1,2.2-2.2V157
			C231.8,155.8,230.8,154.8,229.5,154.8z"/>
	</g>
	<g>
		<path class="st0" d="M26.5,186c-5.9,0-10.8-4.8-10.8-10.8c0-5.9,4.8-10.8,10.8-10.8s10.8,4.8,10.8,10.8
			C37.2,181.2,32.4,186,26.5,186z M26.5,166.5c-4.8,0-8.8,3.9-8.8,8.8c0,4.8,3.9,8.8,8.8,8.8s8.8-3.9,8.8-8.8
			C35.2,170.4,31.3,166.5,26.5,166.5z"/>
	</g>
	<g>
		<path class="st0" d="M26.5,182.1c-3.8,0-6.9-3.1-6.9-6.9s3.1-6.9,6.9-6.9s6.9,3.1,6.9,6.9c0,0.8-0.1,1.6-0.4,2.4
			c-0.1,0.3-0.4,0.4-0.6,0.3c-0.3-0.1-0.4-0.4-0.3-0.6c0.2-0.6,0.4-1.3,0.4-2c0-3.2-2.6-5.9-5.9-5.9s-5.9,2.6-5.9,5.9
			s2.6,5.9,5.9,5.9c0.4,0,0.8,0,1.2-0.1c0.3-0.1,0.5,0.1,0.6,0.4c0.1,0.3-0.1,0.5-0.4,0.6C27.4,182,26.9,182.1,26.5,182.1z"/>
	</g>
	<g>
		<path class="st0" d="M217,89.5H45.3c-3.7,0-7.1-2.2-8.7-5.5c-0.6-1.3-0.9-2.7-0.9-4.1c0-1,0.2-2,0.5-3c0.5-1.4,1.3-2.8,2.4-3.8
			c1.8-1.8,4.2-2.8,6.8-2.8h87.5c0.6,0,1,0.4,1,1s-0.4,1-1,1H45.3c-2,0-3.9,0.8-5.4,2.2c-0.9,0.9-1.5,1.9-1.9,3
			c-0.2,0.8-0.4,1.5-0.4,2.3c0,1.1,0.2,2.2,0.7,3.3c1.3,2.6,3.9,4.3,6.9,4.3H217c2,0,3.9-0.8,5.4-2.2c0.6-0.6,1.1-1.3,1.5-2.1
			c0.5-1,0.8-2.1,0.8-3.3c0-0.8-0.1-1.6-0.4-2.3c-1-3.2-3.9-5.3-7.2-5.3h-71.6c-0.6,0-1-0.4-1-1s0.4-1,1-1H217
			c4.2,0,7.9,2.7,9.1,6.6c0.3,0.9,0.5,1.9,0.5,3c0,1.4-0.3,2.8-0.9,4.1c-0.4,1-1.1,1.9-1.9,2.7C221.9,88.5,219.5,89.5,217,89.5z"/>
	</g>
	<g>
		<path class="st0" d="M141.1,72.3h-1.7c-0.6,0-1-0.4-1-1s0.4-1,1-1h1.7c0.6,0,1,0.4,1,1S141.7,72.3,141.1,72.3z"/>
	</g>
	<g>
		<path class="st0" d="M191.8,186.6H70.4c-0.5,0-0.9-0.3-1-0.8L47.6,88.7c-0.1-0.3,0-0.6,0.2-0.8c0.2-0.2,0.5-0.4,0.8-0.4h165.1
			c0.3,0,0.6,0.1,0.8,0.4c0.2,0.2,0.3,0.5,0.2,0.8l-21.9,97.2C192.7,186.3,192.3,186.6,191.8,186.6z M71.2,184.6H191l21.4-95.2H49.8
			L71.2,184.6z"/>
	</g>
	<g>
		<path class="st0" d="M133.4,171.9h-4.1c-3.4,0-6.2-2.8-6.2-6.2v-62.6c0-3.4,2.8-6.2,6.2-6.2h4.1c3.4,0,6.2,2.8,6.2,6.2v62.6
			C139.6,169.1,136.8,171.9,133.4,171.9z M129.3,98.9c-2.3,0-4.2,1.9-4.2,4.2v62.6c0,2.3,1.9,4.2,4.2,4.2h4.1c2.3,0,4.2-1.9,4.2-4.2
			v-62.6c0-2.3-1.9-4.2-4.2-4.2H129.3z"/>
	</g>
	<g>
		<path class="st0" d="M133.1,167.2h-3.5c-1,0-1.8-0.8-1.8-1.8v-62c0-1,0.8-1.8,1.8-1.8h3.5c1,0,1.8,0.8,1.8,1.8v15.3
			c0,0.3-0.2,0.5-0.5,0.5s-0.5-0.2-0.5-0.5v-15.3c0-0.4-0.3-0.8-0.8-0.8h-3.5c-0.4,0-0.8,0.3-0.8,0.8v62c0,0.4,0.3,0.8,0.8,0.8h3.5
			c0.4,0,0.8-0.3,0.8-0.8v-39.7c0-0.3,0.2-0.5,0.5-0.5s0.5,0.2,0.5,0.5v39.7C134.9,166.4,134.1,167.2,133.1,167.2z"/>
	</g>
	<g>
		<path class="st0" d="M166.8,171.9h-3.5c-3.6,0-6.5-2.9-6.5-6.5v-62c0-3.6,2.9-6.5,6.5-6.5h3.5c3.6,0,6.5,2.9,6.5,6.5V150
			c0,0.6-0.4,1-1,1s-1-0.4-1-1v-46.5c0-2.5-2-4.5-4.5-4.5h-3.5c-2.5,0-4.5,2-4.5,4.5v62c0,2.5,2,4.5,4.5,4.5h3.5
			c2.5,0,4.5-2,4.5-4.5v-8.3c0-0.6,0.4-1,1-1s1,0.4,1,1v8.3C173.3,169,170.3,171.9,166.8,171.9z"/>
	</g>
	<g>
		<path class="st0" d="M166.8,167.2h-3.6c-0.9,0-1.7-0.8-1.7-1.7v-62.1c0-0.9,0.8-1.7,1.7-1.7h3.6c0.9,0,1.7,0.8,1.7,1.7v62.1
			C168.5,166.4,167.8,167.2,166.8,167.2z M163.2,102.7c-0.4,0-0.7,0.3-0.7,0.7v62.1c0,0.4,0.3,0.7,0.7,0.7h3.6
			c0.4,0,0.7-0.3,0.7-0.7v-62.1c0-0.4-0.3-0.7-0.7-0.7H163.2z"/>
	</g>
	<g>
		<path class="st0" d="M98.9,171.9h-3.5c-3.6,0-6.5-2.9-6.5-6.5v-16.5c0-0.6,0.4-1,1-1s1,0.4,1,1v16.5c0,2.5,2,4.5,4.5,4.5h3.5
			c2.5,0,4.5-2,4.5-4.5v-62c0-2.5-2-4.5-4.5-4.5h-3.5c-2.5,0-4.5,2-4.5,4.5v40c0,0.6-0.4,1-1,1s-1-0.4-1-1v-40
			c0-3.6,2.9-6.5,6.5-6.5h3.5c3.6,0,6.5,2.9,6.5,6.5v62C105.4,169,102.5,171.9,98.9,171.9z"/>
	</g>
	<g>
		<path class="st0" d="M98.9,167.2h-3.5c-1,0-1.8-0.8-1.8-1.8v-62c0-1,0.8-1.8,1.8-1.8h3.5c1,0,1.8,0.8,1.8,1.8v62
			C100.7,166.4,99.9,167.2,98.9,167.2z M95.5,102.7c-0.4,0-0.8,0.3-0.8,0.8v62c0,0.4,0.3,0.8,0.8,0.8h3.5c0.4,0,0.8-0.3,0.8-0.8v-62
			c0-0.4-0.3-0.8-0.8-0.8H95.5z"/>
	</g>
	<g>
		<path class="st0" d="M205.4,72.3h-24.6c-0.3,0-0.5-0.1-0.7-0.3L137.2,29c-3.8-3.8-3.8-9.9,0-13.7c1-1,2.3-1.8,3.6-2.3
			c0.5-0.2,0.9-0.3,1.3-0.3c0.6-0.1,1.2-0.2,1.9-0.2c2.6,0,5,1,6.8,2.8l18.6,18.6c0.4,0.4,0.4,1,0,1.4c-0.4,0.4-1,0.4-1.4,0
			l-18.6-18.6c-1.5-1.4-3.4-2.2-5.4-2.2c-0.5,0-1,0.1-1.5,0.2c-0.3,0.1-0.7,0.2-1,0.3c-1.1,0.4-2.1,1-2.9,1.8c-3,3-3,7.9,0,10.9
			l42.6,42.6H203l-29.4-29.4c-0.4-0.4-0.4-1,0-1.4c0.4-0.4,1-0.4,1.4,0l31.1,31.1c0.3,0.3,0.4,0.7,0.2,1.1S205.8,72.3,205.4,72.3z"
			/>
	</g>
	<g>
		<path class="st0" d="M198,71.6H188c-0.1,0-0.3-0.1-0.4-0.1L141.2,25c-0.8-0.8-1.2-1.8-1.2-2.8c0-1.1,0.4-2.1,1.2-2.8
			c0.4-0.4,0.9-0.8,1.5-1c0.1,0,0.3-0.1,0.5-0.1c0.3-0.1,0.6-0.1,0.9-0.1c1.1,0,2.1,0.4,2.8,1.2l51.4,51.4c0.1,0.1,0.2,0.4,0.1,0.5
			C198.3,71.5,198.2,71.6,198,71.6z M188.2,70.6h8.5l-50.5-50.5c-0.6-0.6-1.3-0.9-2.1-0.9c-0.2,0-0.4,0-0.7,0.1
			c-0.1,0-0.3,0.1-0.3,0.1c-0.4,0.1-0.8,0.4-1.1,0.7c-0.6,0.6-0.9,1.3-0.9,2.1c0,0.8,0.3,1.6,0.9,2.1L188.2,70.6z"/>
	</g>
	<g>
		<path class="st0" d="M81.6,72.3H57.1c-0.4,0-0.8-0.2-0.9-0.6s-0.1-0.8,0.2-1.1l55.2-55.2c1.8-1.8,4.3-2.8,6.9-2.8
			c0.7,0,1.3,0.1,1.9,0.2c0.4,0.1,0.8,0.2,1.3,0.3c1.4,0.5,2.6,1.3,3.7,2.3c3.8,3.8,3.8,9.9,0,13.7L82.3,72
			C82.1,72.1,81.9,72.3,81.6,72.3z M59.5,70.3h21.7l42.6-42.6c3-3,3-7.9,0-10.9c-0.8-0.8-1.8-1.4-2.9-1.8c-0.4-0.1-0.7-0.2-1-0.3
			c-0.5-0.1-1-0.2-1.5-0.2c-2.1,0-4,0.8-5.4,2.2L59.5,70.3z"/>
	</g>
	<g>
		<path class="st0" d="M74.4,71.7h-9.9c-0.2,0-0.4-0.1-0.5-0.3c-0.1-0.2,0-0.4,0.1-0.5l24.4-24.4c0.2-0.2,0.5-0.2,0.7,0
			s0.2,0.5,0,0.7L65.7,70.7h8.5l46.3-46.3c0.6-0.6,0.9-1.3,0.9-2.1c0-0.8-0.3-1.6-0.9-2.1c-0.3-0.3-0.7-0.6-1.1-0.7
			c-0.1,0-0.3-0.1-0.5-0.1c-0.2,0-0.4-0.1-0.6-0.1c-0.8,0-1.6,0.3-2.1,0.9L93.6,42.8c-0.2,0.2-0.5,0.2-0.7,0s-0.2-0.5,0-0.7
			l22.7-22.7c0.8-0.8,1.8-1.2,2.8-1.2c0.3,0,0.5,0,0.8,0.1c0.3,0.1,0.5,0.1,0.6,0.2c0.5,0.2,1,0.5,1.4,0.9c0.8,0.8,1.2,1.8,1.2,2.8
			c0,1.1-0.4,2.1-1.2,2.8L74.8,71.5C74.7,71.6,74.5,71.7,74.4,71.7z"/>
	</g>
	<g>
		<path class="st0" d="M191.8,186.1H70.4c-0.2,0-0.4-0.2-0.5-0.4l-1.6-7.2c0-0.1,0-0.3,0.1-0.4c0.1-0.1,0.2-0.2,0.4-0.2h124.6
			c0.2,0,0.3,0.1,0.4,0.2c0.1,0.1,0.1,0.3,0.1,0.4l-1.6,7.2C192.2,186,192,186.1,191.8,186.1z M70.8,185.1h120.5l1.4-6.2H69.5
			L70.8,185.1z"/>
	</g>
	<g>
		<path class="st0" d="M225.6,80.4H36.7c-0.3,0-0.5-0.2-0.5-0.5s0.2-0.5,0.5-0.5h188.9c0.3,0,0.5,0.2,0.5,0.5S225.8,80.4,225.6,80.4
			z"/>
	</g>
</g>
</svg>
