<?xml version="1.0" encoding="utf-8"?>
<!-- Generator: Adobe Illustrator 22.1.0, SVG Export Plug-In . SVG Version: 6.00 Build 0)  -->
<svg version="1.1" id="Layer_1" xmlns="http://www.w3.org/2000/svg" xmlns:xlink="http://www.w3.org/1999/xlink" x="0px" y="0px"
	 viewBox="0 0 256 256" style="enable-background:new 0 0 256 256;" xml:space="preserve">
<style type="text/css">
	.st0{fill:#48386A;}
</style>
<g>
	<g>
		<path class="st0" d="M128.3,248h-3.6c-0.6,0-1-0.4-1-1s0.4-1,1-1h3.6c0.6,0,1,0.4,1,1S128.8,248,128.3,248z"/>
	</g>
	<g>
		<path class="st0" d="M224.2,248h-89.8c-0.6,0-1-0.4-1-1s0.4-1,1-1h89.8c13.7,0,24.9-11.2,24.9-24.9v-0.8
			c0-13.7-11.2-24.9-24.9-24.9H31.8c-13.7,0-24.9,11.2-24.9,24.9v0.8c0,13.7,11.2,24.9,24.9,24.9h88.6c0.6,0,1,0.4,1,1s-0.4,1-1,1
			H31.8C17,248,4.9,235.9,4.9,221.1v-0.8c0-14.8,12.1-26.9,26.9-26.9h192.4c14.8,0,26.9,12.1,26.9,26.9v0.8
			C251.1,235.9,239,248,224.2,248z"/>
	</g>
	<g>
		<path class="st0" d="M223.8,242.3H32.2c-11.9,0-21.7-9.7-21.7-21.7S20.3,199,32.2,199h120.2c0.3,0,0.5,0.2,0.5,0.5
			s-0.2,0.5-0.5,0.5H32.2c-11.4,0-20.7,9.3-20.7,20.7s9.3,20.7,20.7,20.7h191.6c11.4,0,20.7-9.3,20.7-20.7s-9.3-20.7-20.7-20.7
			h-68.1c-0.3,0-0.5-0.2-0.5-0.5s0.2-0.5,0.5-0.5h68.1c11.9,0,21.7,9.7,21.7,21.7S235.7,242.3,223.8,242.3z"/>
	</g>
	<g>
		<path class="st0" d="M128,237.9c-9.5,0-17.3-7.7-17.3-17.3c0-9.5,7.7-17.3,17.3-17.3s17.3,7.7,17.3,17.3
			C145.3,230.2,137.5,237.9,128,237.9z M128,205.4c-8.4,0-15.3,6.8-15.3,15.3s6.8,15.3,15.3,15.3s15.3-6.8,15.3-15.3
			S136.4,205.4,128,205.4z"/>
	</g>
	<g>
		<path class="st0" d="M128,232.3c-6.4,0-11.6-5.2-11.6-11.6s5.2-11.6,11.6-11.6s11.6,5.2,11.6,11.6S134.4,232.3,128,232.3z
			 M128,210.1c-5.8,0-10.6,4.8-10.6,10.6s4.8,10.6,10.6,10.6s10.6-4.8,10.6-10.6S133.8,210.1,128,210.1z"/>
	</g>
	<g>
		<path class="st0" d="M223.2,237.9c-9.5,0-17.3-7.7-17.3-17.3c0-9.5,7.7-17.3,17.3-17.3c9.5,0,17.3,7.7,17.3,17.3
			C240.4,230.2,232.7,237.9,223.2,237.9z M223.2,205.4c-8.4,0-15.3,6.8-15.3,15.3s6.8,15.3,15.3,15.3s15.3-6.8,15.3-15.3
			S231.6,205.4,223.2,205.4z"/>
	</g>
	<g>
		<path class="st0" d="M223.2,232.3c-6.4,0-11.6-5.2-11.6-11.6s5.2-11.6,11.6-11.6s11.6,5.2,11.6,11.6S229.6,232.3,223.2,232.3z
			 M223.2,210.1c-5.8,0-10.6,4.8-10.6,10.6s4.8,10.6,10.6,10.6s10.6-4.8,10.6-10.6S229,210.1,223.2,210.1z"/>
	</g>
	<g>
		<path class="st0" d="M175.6,237.9c-9.5,0-17.3-7.7-17.3-17.3c0-9.5,7.7-17.3,17.3-17.3c8,0,15.1,5.7,16.8,13.5
			c0.1,0.5-0.2,1.1-0.8,1.2c-0.5,0.1-1.1-0.2-1.2-0.8c-1.5-6.9-7.8-12-14.9-12c-8.4,0-15.3,6.8-15.3,15.3s6.8,15.3,15.3,15.3
			c7.9,0,14.6-6.2,15.2-14.1c0-0.6,0.5-1,1.1-0.9c0.6,0,1,0.5,0.9,1.1C192.1,231,184.5,237.9,175.6,237.9z"/>
	</g>
	<g>
		<path class="st0" d="M175.6,232.3c-6.4,0-11.6-5.2-11.6-11.6s5.2-11.6,11.6-11.6s11.6,5.2,11.6,11.6S182,232.3,175.6,232.3z
			 M175.6,210.1c-5.8,0-10.6,4.8-10.6,10.6s4.8,10.6,10.6,10.6s10.6-4.8,10.6-10.6S181.4,210.1,175.6,210.1z"/>
	</g>
	<g>
		<path class="st0" d="M80.4,237.9c-9.5,0-17.3-7.7-17.3-17.3c0-9.5,7.7-17.3,17.3-17.3c9.5,0,17.3,7.7,17.3,17.3
			C97.7,230.2,89.9,237.9,80.4,237.9z M80.4,205.4c-8.4,0-15.3,6.8-15.3,15.3s6.8,15.3,15.3,15.3s15.3-6.8,15.3-15.3
			S88.8,205.4,80.4,205.4z"/>
	</g>
	<g>
		<path class="st0" d="M80.4,232.3c-6.4,0-11.6-5.2-11.6-11.6c0-0.3,0-0.5,0-0.8c0-0.3,0.3-0.5,0.5-0.5c0.3,0,0.5,0.3,0.5,0.5
			c0,0.2,0,0.5,0,0.7c0,5.8,4.8,10.6,10.6,10.6S91,226.5,91,220.7s-4.8-10.6-10.6-10.6c-4.4,0-8.4,2.8-9.9,6.9
			c-0.1,0.3-0.4,0.4-0.6,0.3c-0.3-0.1-0.4-0.4-0.3-0.6c1.7-4.5,6.1-7.5,10.8-7.5c6.4,0,11.6,5.2,11.6,11.6S86.8,232.3,80.4,232.3z"
			/>
	</g>
	<g>
		<path class="st0" d="M32.8,237.9c-9.5,0-17.3-7.7-17.3-17.3c0-9.5,7.7-17.3,17.3-17.3c9.5,0,17.3,7.7,17.3,17.3
			c0,5.4-2.5,10.5-6.8,13.8c-0.4,0.3-1.1,0.2-1.4-0.2c-0.3-0.4-0.2-1.1,0.2-1.4c3.8-2.9,6-7.3,6-12.2c0-8.4-6.8-15.3-15.3-15.3
			s-15.3,6.8-15.3,15.3s6.8,15.3,15.3,15.3c2.1,0,4.1-0.4,5.9-1.2c0.5-0.2,1.1,0,1.3,0.5c0.2,0.5,0,1.1-0.5,1.3
			C37.4,237.5,35.2,237.9,32.8,237.9z"/>
	</g>
	<g>
		<path class="st0" d="M32.8,232.3c-6.4,0-11.6-5.2-11.6-11.6s5.2-11.6,11.6-11.6s11.6,5.2,11.6,11.6S39.2,232.3,32.8,232.3z
			 M32.8,210.1c-5.8,0-10.6,4.8-10.6,10.6s4.8,10.6,10.6,10.6s10.6-4.8,10.6-10.6S38.7,210.1,32.8,210.1z"/>
	</g>
	<g>
		<path class="st0" d="M122.1,195.4H29.4c-0.6,0-1-0.4-1-1v-38.9c0-0.6,0.4-1,1-1s1,0.4,1,1v37.9h90.8v-81.4H30.4v37.9
			c0,0.6-0.4,1-1,1s-1-0.4-1-1v-38.9c0-0.6,0.4-1,1-1h92.8c0.6,0,1,0.4,1,1v83.4C123.1,194.9,122.7,195.4,122.1,195.4z"/>
	</g>
	<g>
		<path class="st0" d="M91.1,139.2H60.4c-0.6,0-1-0.4-1-1v-27.3c0-0.6,0.4-1,1-1h30.8c0.6,0,1,0.4,1,1v6.9c0,0.6-0.4,1-1,1
			s-1-0.4-1-1v-5.9H61.4v25.3h28.8v-15.1c0-0.6,0.4-1,1-1s1,0.4,1,1v16.1C92.1,138.7,91.7,139.2,91.1,139.2z"/>
	</g>
	<g>
		<path class="st0" d="M87.1,138.7H64.4c-0.3,0-0.5-0.2-0.5-0.5v-27.3c0-0.3,0.2-0.5,0.5-0.5h22.8c0.3,0,0.5,0.2,0.5,0.5v27.3
			C87.6,138.5,87.4,138.7,87.1,138.7z M64.9,137.7h21.8v-26.3H64.9V137.7z"/>
	</g>
	<g>
		<path class="st0" d="M75.3,185.9h-10c-0.6,0-1-0.4-1-1s0.4-1,1-1h9v-17.5H45.6v17.5h15.9c0.6,0,1,0.4,1,1s-0.4,1-1,1H44.6
			c-0.6,0-1-0.4-1-1v-19.5c0-0.6,0.4-1,1-1h30.8c0.6,0,1,0.4,1,1v19.5C76.3,185.5,75.9,185.9,75.3,185.9z"/>
	</g>
	<g>
		<path class="st0" d="M71.3,181.4H48.6c-0.3,0-0.5-0.2-0.5-0.5v-11.6c0-0.3,0.2-0.5,0.5-0.5h22.8c0.3,0,0.5,0.2,0.5,0.5v11.6
			C71.8,181.2,71.6,181.4,71.3,181.4z M49.1,180.4h21.8v-10.6H49.1V180.4z"/>
	</g>
	<g>
		<path class="st0" d="M118.9,168.9h-16.1c-0.3,0-0.5-0.2-0.5-0.5s0.2-0.5,0.5-0.5h15.6v-2.1H88.6v2.1h10.9c0.3,0,0.5,0.2,0.5,0.5
			s-0.2,0.5-0.5,0.5H88.1c-0.3,0-0.5-0.2-0.5-0.5v-3.1c0-0.3,0.2-0.5,0.5-0.5h30.8c0.3,0,0.5,0.2,0.5,0.5v3.1
			C119.4,168.7,119.2,168.9,118.9,168.9z"/>
	</g>
	<g>
		<path class="st0" d="M118.9,185.4H88.1c-0.3,0-0.5-0.2-0.5-0.5v-3.1c0-0.3,0.2-0.5,0.5-0.5h30.8c0.3,0,0.5,0.2,0.5,0.5v3.1
			C119.4,185.2,119.2,185.4,118.9,185.4z M88.6,184.4h29.8v-2.1H88.6V184.4z"/>
	</g>
	<g>
		<path class="st0" d="M118.9,177.2H88.1c-0.3,0-0.5-0.2-0.5-0.5v-3.1c0-0.3,0.2-0.5,0.5-0.5h30.8c0.3,0,0.5,0.2,0.5,0.5v3.1
			C119.4,177,119.2,177.2,118.9,177.2z M88.6,176.2h29.8v-2.1H88.6V176.2z"/>
	</g>
	<g>
		<path class="st0" d="M221.5,178.4h-73.8c-0.6,0-1-0.4-1-1V128c0-0.6,0.4-1,1-1s1,0.4,1,1v48.4h71.8v-64.4h-71.8v11.3
			c0,0.6-0.4,1-1,1s-1-0.4-1-1v-12.3c0-0.6,0.4-1,1-1h73.8c0.6,0,1,0.4,1,1v66.4C222.5,177.9,222,178.4,221.5,178.4z"/>
	</g>
	<g>
		<path class="st0" d="M196.8,133.6h-24.5c-0.6,0-1-0.4-1-1v-21.7c0-0.6,0.4-1,1-1h24.5c0.6,0,1,0.4,1,1v21.7
			C197.8,133.2,197.4,133.6,196.8,133.6z M173.3,131.6h22.5v-19.7h-22.5V131.6z"/>
	</g>
	<g>
		<path class="st0" d="M193.6,133.1h-18.1c-0.3,0-0.5-0.2-0.5-0.5v-21.7c0-0.3,0.2-0.5,0.5-0.5h18.1c0.3,0,0.5,0.2,0.5,0.5v21.7
			C194.1,132.9,193.9,133.1,193.6,133.1z M176,132.1h17.1v-20.7H176V132.1z"/>
	</g>
	<g>
		<path class="st0" d="M180.2,170.3h-24.5c-0.3,0-0.5-0.2-0.5-0.5v-15.5c0-0.3,0.2-0.5,0.5-0.5h13.6c0.3,0,0.5,0.2,0.5,0.5
			s-0.2,0.5-0.5,0.5h-13.1v14.5h23.5v-14.5h-7.4c-0.3,0-0.5-0.2-0.5-0.5s0.2-0.5,0.5-0.5h7.9c0.3,0,0.5,0.2,0.5,0.5v15.5
			C180.7,170.1,180.5,170.3,180.2,170.3z"/>
	</g>
	<g>
		<path class="st0" d="M214.9,157.2h-24.5c-0.3,0-0.5-0.2-0.5-0.5v-2.4c0-0.3,0.2-0.5,0.5-0.5h24.5c0.3,0,0.5,0.2,0.5,0.5v2.4
			C215.4,157,215.1,157.2,214.9,157.2z M190.9,156.2h23.5v-1.4h-23.5V156.2z"/>
	</g>
	<g>
		<path class="st0" d="M214.9,170.3h-24.5c-0.3,0-0.5-0.2-0.5-0.5v-2.4c0-0.3,0.2-0.5,0.5-0.5h24.5c0.3,0,0.5,0.2,0.5,0.5v2.4
			C215.4,170.1,215.1,170.3,214.9,170.3z M190.9,169.3h23.5v-1.4h-23.5V169.3z"/>
	</g>
	<g>
		<path class="st0" d="M214.9,163.8h-24.5c-0.3,0-0.5-0.2-0.5-0.5v-2.4c0-0.3,0.2-0.5,0.5-0.5h24.5c0.3,0,0.5,0.2,0.5,0.5v2.4
			C215.4,163.5,215.1,163.8,214.9,163.8z M190.9,162.8h23.5v-1.4h-23.5V162.8z"/>
	</g>
	<g>
		<path class="st0" d="M237.8,164.3h-16.3c-0.6,0-1-0.4-1-1v-4.5c0-0.5,0.3-0.9,0.8-1l7.3-1.8V99.8l-44-28.3l-44,28.3v56.1l7.3,1.8
			c0.4,0.1,0.8,0.5,0.8,1v4.5c0,0.6-0.4,1-1,1h-16.4c-0.6,0-1-0.4-1-1V94.8c0-0.3,0.2-0.7,0.5-0.8l47.1-30.3V23.4c0-0.6,0.4-1,1-1
			h11.4c0.6,0,1,0.4,1,1v40.2L210.5,76c0.5,0.3,0.6,0.9,0.3,1.4c-0.3,0.5-0.9,0.6-1.4,0.3L189.7,65c-0.3-0.2-0.5-0.5-0.5-0.8V24.4
			h-9.4v39.7c0,0.3-0.2,0.7-0.5,0.8l-47.1,30.3v67h14.4v-2.7l-7.3-1.8c-0.4-0.1-0.8-0.5-0.8-1V99.3c0-0.3,0.2-0.7,0.5-0.8l45-29
			c0.3-0.2,0.8-0.2,1.1,0l45,29c0.3,0.2,0.5,0.5,0.5,0.8v57.5c0,0.5-0.3,0.9-0.8,1l-7.3,1.8v2.7h14.3v-67l-23.4-15
			c-0.5-0.3-0.6-0.9-0.3-1.4c0.3-0.5,0.9-0.6,1.4-0.3l23.9,15.3c0.3,0.2,0.5,0.5,0.5,0.8v68.5C238.8,163.8,238.4,164.3,237.8,164.3z
			"/>
	</g>
	<g>
		<path class="st0" d="M209.3,24.4h-49.6c-0.6,0-1-0.4-1-1V9c0-0.6,0.4-1,1-1h49.6c0.6,0,1,0.4,1,1v14.4
			C210.3,24,209.9,24.4,209.3,24.4z M160.8,22.4h47.6V10h-47.6V22.4z"/>
	</g>
	<g>
		<path class="st0" d="M209.3,19.8h-13.5c-0.3,0-0.5-0.2-0.5-0.5s0.2-0.5,0.5-0.5h13v-5.2h-48.6v5.2h31.9c0.3,0,0.5,0.2,0.5,0.5
			s-0.2,0.5-0.5,0.5h-32.4c-0.3,0-0.5-0.2-0.5-0.5v-6.2c0-0.3,0.2-0.5,0.5-0.5h49.6c0.3,0,0.5,0.2,0.5,0.5v6.2
			C209.8,19.6,209.6,19.8,209.3,19.8z"/>
	</g>
</g>
</svg>
