<svg xmlns="http://www.w3.org/2000/svg" data-name="Layer 1" viewBox="0 0 128 128"><path fill="#3e6530" fill-rule="evenodd" d="M83.266 15.976h-3.328A9.052 9.052 0 0070.912 25v1.227h21.38V25a9.052 9.052 0 00-9.026-9.026"/><path fill="#5e9641" fill-rule="evenodd" d="M96.474 26.228H66.731a6.169 6.169 0 00-6.152 6.151v66.335a6.164 6.164 0 006.147 6.147h29.753a6.164 6.164 0 006.147-6.147V32.38a6.169 6.169 0 00-6.152-6.151"/><path fill="#3e6530" d="M87.1 38.88h-3.045v-3.04a2.453 2.453 0 00-4.906 0v3.04h-3.04a2.453 2.453 0 100 4.906h3.041v3.041a2.453 2.453 0 104.906 0v-3.041H87.1a2.453 2.453 0 000-4.906zM76.109 94.575a2.453 2.453 0 110-4.906H87.1a2.453 2.453 0 010 4.906z"/><path fill="#5e9641" fill-rule="evenodd" d="M48.062 23.14h-3.328a9.052 9.052 0 00-9.026 9.026v1.226h21.38v-1.226a9.052 9.052 0 00-9.026-9.026"/><path fill="#94c83d" fill-rule="evenodd" d="M61.269 33.392H31.526a6.169 6.169 0 00-6.151 6.151v66.334a6.164 6.164 0 006.147 6.147h29.752a6.165 6.165 0 006.147-6.147V39.543a6.169 6.169 0 00-6.152-6.151"/><path fill="#5e9641" d="M51.891 46.044H48.85V43a2.453 2.453 0 00-4.906 0v3.041H40.9a2.453 2.453 0 100 4.906h3.04v3.04a2.453 2.453 0 104.906 0V50.95h3.041a2.453 2.453 0 000-4.906zM40.9 101.739a2.453 2.453 0 110-4.906h10.991a2.453 2.453 0 010 4.906z"/></svg>