<svg id="Layer_1" data-name="Layer 1" xmlns="http://www.w3.org/2000/svg" viewBox="0 0 128 128"><title>Artboard 2 copy 12</title><path d="M59.984,25.228V60.68A4.027,4.027,0,0,0,64,64.7h0a4.027,4.027,0,0,0,4.016-4.015V25.228A4.027,4.027,0,0,0,64,21.213h0a4.027,4.027,0,0,0-4.016,4.015" style="fill:#5e9641;fill-rule:evenodd"/><path d="M110.779,99.3l-30.7-17.726a4.027,4.027,0,0,0-5.486,1.47h0a4.027,4.027,0,0,0,1.47,5.485l30.7,17.726a4.027,4.027,0,0,0,5.486-1.47h0a4.027,4.027,0,0,0-1.47-5.485" style="fill:#5e9641;fill-rule:evenodd"/><path d="M21.236,106.252l30.7-17.725a4.027,4.027,0,0,0,1.47-5.486h0a4.027,4.027,0,0,0-5.486-1.469L17.221,99.3a4.027,4.027,0,0,0-1.47,5.486h0a4.028,4.028,0,0,0,5.486,1.469" style="fill:#5e9641;fill-rule:evenodd"/><path d="M64,60.653A16.273,16.273,0,1,1,47.726,76.926,16.274,16.274,0,0,1,64,60.653" style="fill:#94c83d;fill-rule:evenodd"/><path d="M64,69.832a7.094,7.094,0,1,1-7.094,7.094A7.094,7.094,0,0,1,64,69.832" style="fill:#5e9641;fill-rule:evenodd"/></svg>