<svg xmlns="http://www.w3.org/2000/svg" data-name="Layer 1" viewBox="0 0 128 128"><path fill="#94c83d" fill-rule="evenodd" d="M99.81 35.9H28.19v65.544a10.5 10.5 0 0 0 10.47 10.47h50.68a10.5 10.5 0 0 0 10.47-10.47z"/><path fill="#5e9641" fill-rule="evenodd" d="M101.318 25.993H84.956a11.182 11.182 0 0 0-3.205-6.617h-.005l-.008-.008a11.158 11.158 0 0 0-7.885-3.277h-19.7a11.156 11.156 0 0 0-7.9 3.29h-.005a11.175 11.175 0 0 0-3.206 6.626h-16.36a4.969 4.969 0 0 0-4.955 4.955 4.969 4.969 0 0 0 4.955 4.938h74.637a4.969 4.969 0 0 0 4.955-4.955 4.969 4.969 0 0 0-4.956-4.952zm-51.591-3.15h.005a6.237 6.237 0 0 1 4.421-1.832h19.694a6.238 6.238 0 0 1 4.422 1.832l.009.009a6.247 6.247 0 0 1 1.7 3.145H48.023a6.271 6.271 0 0 1 1.709-3.145zM79.568 52.249v43.324a4.97 4.97 0 0 0 4.955 4.955 4.969 4.969 0 0 0 4.955-4.955V52.249a4.969 4.969 0 0 0-4.955-4.955 4.969 4.969 0 0 0-4.955 4.955M59.045 52.249v43.324A4.97 4.97 0 0 0 64 100.529a4.969 4.969 0 0 0 4.955-4.955V52.249A4.969 4.969 0 0 0 64 47.294a4.969 4.969 0 0 0-4.955 4.955M38.522 52.249v43.324a4.97 4.97 0 0 0 4.955 4.955 4.97 4.97 0 0 0 4.955-4.955V52.249a4.969 4.969 0 0 0-4.955-4.955 4.969 4.969 0 0 0-4.955 4.955"/></svg>