<svg xmlns="http://www.w3.org/2000/svg" data-name="Layer 1" viewBox="0 0 128 128"><path fill="#7ece29" d="M71.466 28.995 46.93 68.304 60.122 68.304 55.9 97.324 80.437 57.75 67.244 57.75 71.466 28.995z"/><path fill="#001b01" d="M42.628 101.756a1.639 1.639 0 1 0 1.585-2.87 40.358 40.358 0 0 1 15.478-75.507l-7.648 8.091a1.639 1.639 0 0 0 2.382 2.252l10.449-11.055c.026-.028.034-.064.058-.093a1.594 1.594 0 0 0 .211-.338 1.616 1.616 0 0 0 .087-.194c.01-.03.03-.053.038-.084a1.582 1.582 0 0 0 .029-.319 1.224 1.224 0 0 0-.111-.746c-.01-.025-.032-.045-.043-.07a1.632 1.632 0 0 0-.3-.421c-.016-.016-.021-.037-.037-.052-.036-.034-.083-.046-.121-.076a1.6 1.6 0 0 0-.2-.16l-12.7-7.179a1.639 1.639 0 0 0-1.613 2.854l7.91 4.47a43.639 43.639 0 0 0-15.456 81.5zM107.948 64.467a43.673 43.673 0 0 0-22.576-38.223 1.639 1.639 0 0 0-1.585 2.87 40.358 40.358 0 0 1-15.478 75.508l7.648-8.091a1.639 1.639 0 0 0-2.382-2.252l-10.449 11.054c-.026.028-.034.064-.058.093a1.616 1.616 0 0 0-.211.338 1.586 1.586 0 0 0-.088.194c-.009.03-.03.053-.038.084a1.638 1.638 0 0 0-.029.317 1.661 1.661 0 0 0-.017.18 1.635 1.635 0 0 0 .127.567c.011.026.033.047.046.073a1.606 1.606 0 0 0 .295.418c.016.016.021.037.037.053a1.52 1.52 0 0 0 .129.082 1.587 1.587 0 0 0 .191.155l12.7 7.179a1.639 1.639 0 0 0 1.613-2.854l-7.91-4.47a43.7 43.7 0 0 0 38.035-43.275z"/><path fill="#001b01" d="M55.338 98.864a1.639 1.639 0 0 0 1.955-.676L81.83 58.613a1.64 1.64 0 0 0-1.393-2.5H69.142l3.945-26.878a1.639 1.639 0 0 0-3.012-1.105L45.54 67.437a1.639 1.639 0 0 0 1.39 2.506h11.3l-3.95 27.146a1.64 1.64 0 0 0 1.058 1.775zm-5.453-32.2 18.821-30.151-3.083 21a1.638 1.638 0 0 0 1.621 1.877h10.248L58.655 89.771l3.089-21.231a1.639 1.639 0 0 0-1.622-1.875z"/></svg>