<svg xmlns="http://www.w3.org/2000/svg" data-name="Layer 1" viewBox="0 0 128 128"><path fill="#5e9641" fill-rule="evenodd" d="M64 54.3a12.636 12.636 0 11-12.635 12.639A12.636 12.636 0 0164 54.3"/><path fill="#94c83d" fill-rule="evenodd" d="M43.061 66.369L12.646 64.86a51.434 51.434 0 0027.477 47.591l13.9-27.091a20.942 20.942 0 01-10.97-18.421q0-.286.008-.569m30.918 18.991l13.9 27.091a51.431 51.431 0 0027.475-47.592l-30.415 1.509c.005.19.008.379.008.569a20.943 20.943 0 01-10.968 18.423zm.985-36.274L91.477 23.5a51.429 51.429 0 00-54.953 0l16.512 25.587a20.962 20.962 0 0121.928 0z"/></svg>