<svg id="Layer_1" data-name="Layer 1" xmlns="http://www.w3.org/2000/svg" viewBox="0 0 128 128"><title>Artboard 2 copy 10</title><path d="M64,19.166A44.834,44.834,0,1,1,19.166,64,44.834,44.834,0,0,1,64,19.166" style="fill:#94c83d;fill-rule:evenodd"/><path d="M93.962,34.038A42.373,42.373,0,1,0,106.372,64a42.238,42.238,0,0,0-12.41-29.962M64,16.7A47.3,47.3,0,1,1,30.557,30.557,47.149,47.149,0,0,1,64,16.7Z" style="fill:#5e9641"/><path d="M74.113,33.192C71.318,26.048,67.726,21.629,64,21.629s-7.318,4.419-10.112,11.563C50.821,41.031,48.924,51.921,48.924,64s1.9,22.969,4.963,30.808c2.795,7.144,6.387,11.564,10.112,11.564s7.318-4.419,10.113-11.564C77.179,86.969,79.076,76.08,79.076,64s-1.9-22.969-4.963-30.808M64,16.7c5.96,0,11.139,5.618,14.691,14.7C81.972,39.79,84,51.319,84,64s-2.03,24.21-5.311,32.6C75.139,105.679,69.96,111.3,64,111.3s-11.138-5.618-14.691-14.7C46.028,88.21,44,76.681,44,64s2.03-24.21,5.311-32.6C52.862,22.321,58.04,16.7,64,16.7Z" style="fill:#5e9641"/><path d="M86.642,47.245a51.112,51.112,0,0,0,13.8-4.882A42.6,42.6,0,0,0,85.9,27.718a42.428,42.428,0,0,0-43.8,0A42.6,42.6,0,0,0,27.554,42.363a51.094,51.094,0,0,0,13.8,4.882A106.22,106.22,0,0,0,64,49.538a106.226,106.226,0,0,0,22.642-2.294M105.1,45.232c-4.074,2.833-10.11,5.189-17.4,6.8A111.13,111.13,0,0,1,64,54.463a111.129,111.129,0,0,1-23.7-2.427C33,50.417,26.946,48.053,22.872,45.21a2.453,2.453,0,0,1-.765-3.155,47.285,47.285,0,0,1,83.79.01A2.453,2.453,0,0,1,105.1,45.232Z" style="fill:#5e9641"/><path d="M87.7,75.965c7.286,1.614,13.322,3.97,17.4,6.8a2.453,2.453,0,0,1,.8,3.168,47.285,47.285,0,0,1-83.79.01,2.454,2.454,0,0,1,.765-3.156C26.946,79.947,33,77.583,40.3,75.965A111.1,111.1,0,0,1,64,73.537a111.1,111.1,0,0,1,23.7,2.428m12.746,9.673a51.127,51.127,0,0,0-13.8-4.882A106.228,106.228,0,0,0,64,78.462a106.222,106.222,0,0,0-22.641,2.293,51.11,51.11,0,0,0-13.8,4.882A42.606,42.606,0,0,0,42.1,100.282a42.428,42.428,0,0,0,43.8,0A42.61,42.61,0,0,0,100.447,85.637Z" style="fill:#5e9641"/></svg>