<svg id="Layer_1" data-name="Layer 1" xmlns="http://www.w3.org/2000/svg" viewBox="0 0 128 128"><title>Artboard 2 copy 13</title><path d="M104.529,37.637,97.775,99.93a11.293,11.293,0,0,1-11.259,11.26H41.484A11.292,11.292,0,0,1,30.225,99.93L23.471,37.637Z" style="fill:#7ece29"/><path d="M60.5,49.944H72.44l5.149,11.422,2.374-.948L74.687,68.9,64.853,66.52l2.623-1.312-3.934-7.023L56.9,67.08l-8.8-6.556,8.779-10.58Z" style="fill:#469612"/><line x1="59.12" y1="49.944" x2="63.542" y2="58.184" style="fill:#7ece29"/><path d="M43.717,91.633c-2.258-3.332-6.692-9.888-6.692-9.888L43.6,71.078l-2.116-1.434,9.986-.387L55,78.738,52.447,77.3l-3.611,7.193,11.1.518-.006,10.532H46.257Z" style="fill:#469612"/><line x1="44.49" y1="92.776" x2="48.836" y2="84.494" style="fill:#7ece29"/><path d="M89.488,84.658c-1.653,3.672-4.9,10.888-4.9,10.888l-12.529.009-.109,2.555-5.576-8.294,6.213-7.987.12,2.93,8.016-.7-5.385-9.716L84.93,69l6.045,12.35Z" style="fill:#469612"/><line x1="90.052" y1="83.397" x2="80.722" y2="84.053" style="fill:#7ece29"/><path d="M109.784,31.823a5.818,5.818,0,0,1-5.816,5.813H24.032a5.817,5.817,0,0,1-5.816-5.813h0A5.819,5.819,0,0,1,24.032,26h79.936a5.82,5.82,0,0,1,5.816,5.821Z" style="fill:#7ece29"/><path d="M55.918,68.394a1.64,1.64,0,0,0,2.292-.333l5.135-6.874,1.862,3.323-1.087.544a1.639,1.639,0,0,0,.347,3.059L74.3,70.5a1.6,1.6,0,0,0,.387.047,1.638,1.638,0,0,0,1.392-.773l5.276-8.486a1.64,1.64,0,0,0-2-2.388l-.917.367-4.5-9.992A1.638,1.638,0,0,0,72.44,48.3H56.871a1.641,1.641,0,0,0-1.261.592l-8.779,10.58a1.638,1.638,0,0,0,.282,2.361ZM76.1,62.039a1.638,1.638,0,0,0,.526.65l-2.7,4.342-4.932-1.2c.02-.048.038-.1.054-.147a1.642,1.642,0,0,0-.137-1.282l-3.923-7-3.124-5.82h9.521ZM57.641,51.583h.5L61.6,58.039l-5.041,6.749L50.456,60.24Z" style="fill:#001b01"/><path d="M42.342,92.526l2.54,3.912a1.639,1.639,0,0,0,1.375.746H59.925a1.639,1.639,0,0,0,1.639-1.637l.007-10.532a1.64,1.64,0,0,0-1.562-1.639l-8.575-.4,1.708-3.4,1.057.594a1.639,1.639,0,0,0,2.339-2L53,68.685a1.65,1.65,0,0,0-1.6-1.066l-9.986.387A1.639,1.639,0,0,0,40.563,71l.817.554-5.75,9.33a1.637,1.637,0,0,0,.038,1.779Zm15.949-5.95,0,7.329H47.147l-.785-1.171L49.8,86.18Zm-13.3-14.639a1.635,1.635,0,0,0,.243-.8l5.11-.2L52.119,75.7a1.3,1.3,0,0,0-.15.039,1.63,1.63,0,0,0-.986.832l-3.6,7.166h0l-3.1,5.9L38.976,81.7Z" style="fill:#001b01"/><path d="M73.9,75.131l4.161,7.51-3.792.333-.05-1.213a1.639,1.639,0,0,0-2.931-.94l-6.213,7.987a1.638,1.638,0,0,0-.067,1.921l5.577,8.294a1.639,1.639,0,0,0,3-.843l.042-.987,10.96-.008a1.639,1.639,0,0,0,1.493-.967L92.47,82.023a1.638,1.638,0,0,0-.023-1.392L86.4,68.28a1.635,1.635,0,0,0-.981-.843,1.658,1.658,0,0,0-1.287.131L74.54,72.9A1.639,1.639,0,0,0,73.9,75.131Zm9.624,18.777-11.472.008a1.648,1.648,0,0,0-.808.213l-2.853-4.243,3.116-4.006c.036.038.074.074.113.109a1.612,1.612,0,0,0,1.225.4l8.016-.7h0l6.569-.462Zm.689-22.636L89.165,81.38l-.2.451-7.313.514-4.085-7.371Z" style="fill:#001b01"/><path d="M103.968,24.363H74.694a10.818,10.818,0,0,0-21.39,0H24.032a7.436,7.436,0,0,0-2.067,14.585l6.621,61.074a12.913,12.913,0,0,0,12.9,12.808H86.516a12.913,12.913,0,0,0,12.9-12.808l6.622-61.074a7.436,7.436,0,0,0-2.068-14.585ZM64,18.449a7.559,7.559,0,0,1,7.363,5.914H56.635A7.561,7.561,0,0,1,64,18.449ZM96.146,99.755a1.664,1.664,0,0,0-.009.176,9.633,9.633,0,0,1-9.62,9.621H41.484a9.632,9.632,0,0,1-9.62-9.621,1.546,1.546,0,0,0-.01-.176L25.3,39.275H102.7ZM103.968,36H24.032a4.179,4.179,0,0,1,0-8.357h79.936a4.179,4.179,0,0,1,0,8.357Z" style="fill:#001b01"/></svg>