<svg xmlns="http://www.w3.org/2000/svg" data-name="Layer 1" viewBox="0 0 128 128"><path fill="#94c83d" fill-rule="evenodd" d="M37.727 33.2h52.546a10.045 10.045 0 0 1 10.015 10.016v61.6a10.045 10.045 0 0 1-10.015 10.016H37.727a10.045 10.045 0 0 1-10.015-10.016v-61.6A10.045 10.045 0 0 1 37.727 33.2"/><path fill="#5e9641" d="M58.776 56.549a2.458 2.458 0 0 1 3.851-2.922l2.973 2.711a2.462 2.462 0 0 1 .459 3.337L64.1 63.082a2.452 2.452 0 0 1-4.548-1.6 13.31 13.31 0 1 0 11.593 1.314 2.461 2.461 0 1 1 2.636-4.156 18.2 18.2 0 1 1-15-2.087M86.928 33.2a22.543 22.543 0 0 0-22.343-20.028h-1.17A22.543 22.543 0 0 0 41.072 33.2h-.008l-.006 13.543a2.453 2.453 0 1 0 4.906 0L45.97 33.2h.059a17.635 17.635 0 0 1 17.386-15.1h1.17a17.635 17.635 0 0 1 17.387 15.1h.058l-.006 13.543a2.453 2.453 0 0 0 4.906 0l.006-13.543z"/></svg>