<svg id="Layer_1" data-name="Layer 1" xmlns="http://www.w3.org/2000/svg" viewBox="0 0 128 128"><title>Artboard 2 copy 8</title><polyline points="98.723 83.876 98.723 114.662 61.709 114.662 24.693 114.662 24.693 61.279 10.974 61.279 61.709 13.338 86.634 36.143" style="fill:#469612"/><path d="M107.519,75.917C132.854,52.229,99.54,22.2,99.54,22.2H97.908s-33.315,30.03-7.979,53.718l8.778,7.959Z" style="fill:#7ece29"/><path d="M85.763,81.717C71.12,66.055,52.556,86.649,52.556,86.649v1.01s18.565,20.593,33.207,4.932l4.919-5.428Z" style="fill:#7ece29"/><path d="M100.637,20.981a1.641,1.641,0,0,0-1.1-.421H97.908a1.642,1.642,0,0,0-1.1.421A69.273,69.273,0,0,0,86.273,33.593L62.815,12.129a1.635,1.635,0,0,0-1.106-.431c-.652,0-.652,0-26.493,24.419L9.847,60.088a1.639,1.639,0,0,0,1.126,2.83H23.054v51.744a1.639,1.639,0,0,0,1.639,1.639h74.03a1.638,1.638,0,0,0,1.639-1.639V84.589l8.276-7.475c6.726-6.289,10.1-13.6,10.026-21.719C118.5,37.289,101.367,21.638,100.637,20.981Zm-74.3,92.043V61.279a1.639,1.639,0,0,0-1.639-1.639h-9.6L61.726,15.575,84.532,36.44c-3.15,5.5-5.686,12.046-5.749,18.955-.074,8.122,3.3,15.43,10.045,21.736l8.257,7.487v28.4ZM106.42,74.7l-6.058,5.472V53.047a1.639,1.639,0,1,0-3.278,0V80.193l-6.036-5.473C85.023,69.085,82,62.6,82.061,55.437c.131-15.108,13.825-29.027,16.5-31.6h.331c2.671,2.566,16.359,16.459,16.5,31.588C115.452,62.592,112.428,69.082,106.42,74.7Z" style="fill:#001b01"/><path d="M92.319,87.147a1.625,1.625,0,0,0-.12-.592,1.526,1.526,0,0,0-.143-.234,1.543,1.543,0,0,0-.157-.257L86.961,80.6c-3.969-4.247-8.586-6.4-13.723-6.4-11.535,0-21.481,10.888-21.9,11.35a1.646,1.646,0,0,0-.422,1.1v1.01a1.641,1.641,0,0,0,.422,1.1c.418.463,10.365,11.35,21.9,11.35h0c5.135,0,9.753-2.153,13.738-6.415L91.9,88.263a260.631,260.631,0,0,0,.3-.493,1.634,1.634,0,0,0,.123-.608h0Zm-7.753,4.324c-3.324,3.555-7.136,5.357-11.328,5.357-8.637,0-16.719-7.488-18.9-9.676,2.171-2.188,10.234-9.674,18.895-9.674,4.192,0,8,1.8,11.309,5.336l2.446,2.708H71.62a1.639,1.639,0,1,0,0,3.278H86.986Z" style="fill:#001b01"/></svg>