<svg xmlns="http://www.w3.org/2000/svg" data-name="Layer 1" viewBox="0 0 128 128"><path fill="#5e9641" fill-rule="evenodd" d="M59.984 25.228V60.68A4.027 4.027 0 0 0 64 64.7a4.027 4.027 0 0 0 4.016-4.015V25.228A4.027 4.027 0 0 0 64 21.213a4.027 4.027 0 0 0-4.016 4.015M110.779 99.3l-30.7-17.726a4.027 4.027 0 0 0-5.486 1.47 4.027 4.027 0 0 0 1.47 5.485l30.7 17.726a4.027 4.027 0 0 0 5.486-1.47 4.027 4.027 0 0 0-1.47-5.485M21.236 106.252l30.7-17.725a4.027 4.027 0 0 0 1.47-5.486 4.027 4.027 0 0 0-5.486-1.469L17.221 99.3a4.027 4.027 0 0 0-1.47 5.486 4.028 4.028 0 0 0 5.486 1.469"/><path fill="#94c83d" fill-rule="evenodd" d="M64 60.653a16.273 16.273 0 1 1-16.274 16.273A16.274 16.274 0 0 1 64 60.653"/><path fill="#5e9641" fill-rule="evenodd" d="M64 69.832a7.094 7.094 0 1 1-7.094 7.094A7.094 7.094 0 0 1 64 69.832"/></svg>