<svg xmlns="http://www.w3.org/2000/svg" data-name="Layer 1" viewBox="0 0 128 128"><path fill="#94c83d" d="m66.905 10.41 13.95 15.42L94.848 41.3a2.646 2.646 0 0 1-.713 4.146 4.058 4.058 0 0 1-2.141.592v.012h-5.38l15.162 16.759a3.239 3.239 0 0 1-.874 5.076 4.957 4.957 0 0 1-2.622.725v.015h-8.966l16.97 18.759a3.627 3.627 0 0 1-.979 5.682 5.559 5.559 0 0 1-2.934.812v.015H68.384V44.981a4.389 4.389 0 0 0-4.376-4.381 4.389 4.389 0 0 0-4.376 4.376V93.89H25.647c-2.71 0-4.909-1.825-4.909-4.074a3.7 3.7 0 0 1 1.256-2.721l16.711-18.473h-8.968c-2.422 0-4.386-1.63-4.386-3.64a3.308 3.308 0 0 1 1.121-2.431l14.93-16.5h-5.381c-1.979 0-3.582-1.33-3.582-2.973a2.7 2.7 0 0 1 .916-1.986l13.8-15.258 13.998-15.473a4.07 4.07 0 0 1 4.995-.592 3.3 3.3 0 0 1 .758.641"/><path fill="#5e9641" fill-rule="evenodd" d="M59.632 44.98v69.466a4.389 4.389 0 0 0 4.376 4.376 4.389 4.389 0 0 0 4.376-4.376V44.98a4.389 4.389 0 0 0-4.376-4.38 4.389 4.389 0 0 0-4.376 4.376"/></svg>