<svg xmlns="http://www.w3.org/2000/svg" data-name="Layer 1" viewBox="0 0 128 128"><path fill="#469612" d="M64 14.973s-30.713 49-30.713 67.289a30.713 30.713 0 0 0 61.427 0C94.713 63.974 64 14.973 64 14.973z"/><path fill="#7ece29" d="M69.912 48.107 51.27 77.978 61.293 77.978 58.085 100.029 76.73 69.957 66.706 69.957 69.912 48.107z"/><path fill="#001b01" d="M64 114.614a32.389 32.389 0 0 0 32.352-32.352c0-18.546-29.7-66.142-30.964-68.159a1.7 1.7 0 0 0-2.777 0c-1.264 2.017-30.963 49.613-30.963 68.159A32.389 32.389 0 0 0 64 114.614zM64 18.1c5.965 9.8 29.074 48.745 29.074 64.16a29.074 29.074 0 1 1-58.148 0C34.926 66.847 58.035 27.9 64 18.1z"/><path fill="#001b01" d="M51.27 79.617h8.13l-2.937 20.176a1.639 1.639 0 0 0 3.015 1.1L78.124 70.82a1.639 1.639 0 0 0-1.394-2.5H68.6l2.931-19.973a1.638 1.638 0 0 0-3.011-1.105L49.88 77.11a1.639 1.639 0 0 0 1.39 2.506zm15.882-23.993-2.067 14.095a1.638 1.638 0 0 0 1.621 1.881h7.079L60.841 92.475l2.074-14.262a1.639 1.639 0 0 0-1.622-1.875h-7.069z"/></svg>