<svg xmlns="http://www.w3.org/2000/svg" data-name="Layer 1" viewBox="0 0 128 128"><path fill="#7ece29" d="M57.831 21.553h21.045l9.076 20.136 4.183-1.673-9.3 14.959L65.5 50.768l4.622-2.311-6.929-12.378-11.716 15.679L35.961 40.2l15.474-18.65zM55.398 21.553l7.795 14.526M28.249 95.034a194265.78 194265.78 0 01-11.793-17.428L28.04 58.8l-3.729-2.528 17.6-.684 6.23 16.712-4.5-2.532-6.368 12.682 19.553.917-.009 18.565h-24.09zM29.612 97.049l7.661-14.599M108.922 82.738l-8.637 19.189-22.085.018-.192 4.5-9.827-14.617 10.951-14.077.211 5.163 14.13-1.244-9.491-17.121 16.906-9.407 10.657 21.765zM109.918 80.518l-16.445 1.153"/><path fill="#001b01" d="M63.877 50.952a1.638 1.638 0 001.24 1.409l17.331 4.208a1.61 1.61 0 00.388.046 1.641 1.641 0 001.393-.773l9.3-14.959a1.639 1.639 0 00-2-2.388L88.8 39.584l-8.43-18.7a1.641 1.641 0 00-1.495-.965h-27.44a1.639 1.639 0 00-1.261.592L34.7 39.157a1.638 1.638 0 00.282 2.361L50.5 53.073a1.635 1.635 0 002.292-.333L63 39.08l4.861 8.679-3.089 1.541a1.637 1.637 0 00-.895 1.652zm-12.733-1.485l-12.819-9.546 13.88-16.728h2.213l6.838 12.742zM64.637 35.3l-6.5-12.112h19.679l8.64 19.171a1.628 1.628 0 001.7.952L82.071 53.1l-11.829-2.868.618-.309a1.637 1.637 0 00.7-2.267zM31.352 102.826a1.642 1.642 0 001.375.746h24.089a1.639 1.639 0 001.639-1.637l.009-18.565a1.64 1.64 0 00-1.564-1.64l-17.034-.8 4.462-8.888 3.006 1.691a1.641 1.641 0 002.34-2l-6.223-16.714a1.576 1.576 0 00-1.6-1.064l-17.6.683a1.639 1.639 0 00-.855 2.995l2.43 1.647L15.06 76.747a1.64 1.64 0 00.038 1.779l11.776 17.4zm23.834-17.895l-.007 15.363H33.617l-2.132-3.284 6.755-12.874zm-25.75-25.269a1.643 1.643 0 00-.162-1.94l11.518-.446 4.25 11.406-.6-.339a1.64 1.64 0 00-2.268.695l-6.351 12.647-6.389 12.176-11.027-16.3zM102.36 54.422a1.641 1.641 0 00-2.27-.712l-16.906 9.406a1.64 1.64 0 00-.637 2.227l8.269 14.916-9.906.872-.141-3.448a1.639 1.639 0 00-2.931-.939L66.887 90.821a1.637 1.637 0 00-.067 1.921l9.828 14.619a1.639 1.639 0 003-.843l.125-2.934 20.516-.017a1.639 1.639 0 001.494-.967l11.259-25.021a1.636 1.636 0 00-.023-1.392zM86.208 65.186l13.967-7.771 9.559 19.523-.906 2.014L94.4 79.963zm13.018 35.1l-21.027.016a1.639 1.639 0 00-1.566 1.157L70.2 91.9l7.474-9.608.029.691a1.639 1.639 0 001.781 1.566L93.617 83.3l13.682-.959z"/></svg>