<svg id="Layer_1" data-name="Layer 1" xmlns="http://www.w3.org/2000/svg" viewBox="0 0 128 128"><title>Artboard 2 copy 10</title><circle cx="64.103" cy="52.718" r="8.535" style="fill:#469612"/><path d="M58.738,39.327C43.282,24.873,63.606,6.551,63.606,6.551h1s20.324,18.322,4.869,32.775l-5.359,4.856Z" style="fill:#7ece29"/><path d="M55.335,64.171c-4.53,20.672-30.664,12.56-30.664,12.56l-.509-.855s5.366-26.834,25.69-20.931l6.908,2.124Z" style="fill:#7ece29"/><path d="M78.336,55.074c20.375-5.724,25.5,21.157,25.5,21.157l-.519.852s-26.2,7.882-30.549-12.83l-1.373-7.1Z" style="fill:#7ece29"/><polyline points="66.74 60.831 66.74 86.164 66.74 113.198 61.465 113.198 61.465 86.165 61.465 60.835" style="fill:#7ece29"/><path d="M79.174,117.448a4,4,0,0,1-4,4H53.033a4,4,0,0,1-4-4h0a4,4,0,0,1,4-4H75.172a4,4,0,0,1,4,4Z" style="fill:#7ece29"/><path d="M23.262,77.57a1.644,1.644,0,0,0,.922.726A43.114,43.114,0,0,0,35.77,79.939c11.637,0,18.956-5.332,21.171-15.446l.776-3.866a10.188,10.188,0,0,0,2.109,1.31V84.322a31.983,31.983,0,0,1-7.862-2.094l2.839-.757a1.639,1.639,0,1,0-.845-3.166l-7.068,1.884c-.021.006-.035.021-.056.027a1.65,1.65,0,0,0-.516.253l0,0c-.015.012-.024.028-.039.04a1.693,1.693,0,0,0-.549,1.671l1.757,6.748a1.639,1.639,0,0,0,1.585,1.227,1.667,1.667,0,0,0,.415-.053,1.64,1.64,0,0,0,1.173-2l-.842-3.23a35.266,35.266,0,0,0,10.012,2.747v24.184H53.033a5.64,5.64,0,1,0,0,11.28H75.172a5.64,5.64,0,1,0,0-11.28H68.38V87.616a35.032,35.032,0,0,0,13.165-4.335,1.638,1.638,0,0,0-1.623-2.846A31.807,31.807,0,0,1,68.38,84.317V61.937a10.2,10.2,0,0,0,2.033-1.253l.755,3.9C73.309,74.8,80.691,80.193,92.518,80.193a43.219,43.219,0,0,0,11.274-1.541,1.651,1.651,0,0,0,.928-.717l.519-.852a1.649,1.649,0,0,0,.209-1.161c-.181-.951-4.637-23.289-21.646-23.289a21.957,21.957,0,0,0-5.938.869l-3.776,1.132a10.126,10.126,0,0,0-6.443-11.442l2.944-2.669c4.24-3.965,6.367-8.583,6.32-13.724C76.805,15.475,66.153,5.743,65.7,5.333a1.646,1.646,0,0,0-1.1-.421h-1a1.647,1.647,0,0,0-1.1.421C62.056,5.743,51.4,15.475,51.3,26.8c-.048,5.141,2.079,9.759,6.34,13.743l2.93,2.647A10.1,10.1,0,0,0,54.1,54.538l-3.793-1.166a21.836,21.836,0,0,0-6.068-.914c-16.873,0-21.5,22.154-21.686,23.1a1.634,1.634,0,0,0,.2,1.16Zm54.273,39.878a2.365,2.365,0,0,1-2.363,2.363H53.033a2.362,2.362,0,1,1,0-4.724H75.172A2.365,2.365,0,0,1,77.535,117.448ZM65.1,111.559h-2v-23.7q1,.028,2,0Zm0-26.981q-1,.03-2,0V62.842c.329.032.661.05,1,.05s.67-.018,1-.05ZM78.778,56.652a18.661,18.661,0,0,1,5.025-.74c12.651,0,17.31,15.991,18.242,19.814a41.029,41.029,0,0,1-9.527,1.189c-10.229,0-16.333-4.375-18.138-12.976l-.674-3.479L86.641,68.3a1.64,1.64,0,1,0,1.7-2.8L75.415,57.661Zm-24.2-29.811c.07-8.45,7.359-16.334,9.527-18.494,2.167,2.159,9.456,10.044,9.527,18.494.035,4.183-1.741,7.981-5.261,11.272l-2.628,2.382V25.368a1.639,1.639,0,1,0-3.278,0V40.485L59.857,38.13C56.319,34.821,54.542,31.023,54.578,26.841ZM64.1,45.822a6.9,6.9,0,1,1-6.9,6.9A6.9,6.9,0,0,1,64.1,45.822ZM44.241,55.736a18.515,18.515,0,0,1,5.128.776l3.387,1.042-13,7.728A1.639,1.639,0,1,0,41.427,68.1l13-7.725-.691,3.446c-1.868,8.52-7.91,12.84-17.964,12.84a41.1,41.1,0,0,1-9.811-1.274C26.916,71.585,31.667,55.736,44.241,55.736Z" style="fill:#001b01"/><path d="M30.554,54.356a1.638,1.638,0,0,0,1.639-1.639,32.062,32.062,0,0,1,12.3-25.166l-.749,2.834a1.639,1.639,0,0,0,1.165,2,1.665,1.665,0,0,0,.421.054,1.638,1.638,0,0,0,1.583-1.219l1.87-7.07c.006-.02,0-.04,0-.06a1.608,1.608,0,0,0,.036-.575v-.006c0-.021-.014-.039-.017-.059a1.61,1.61,0,0,0-.167-.481,1.56,1.56,0,0,0-.092-.142,1.617,1.617,0,0,0-.271-.309,1.543,1.543,0,0,0-.13-.111,1.612,1.612,0,0,0-.518-.256h0l0,0h0l-6.721-1.819a1.638,1.638,0,0,0-.855,3.163l3.223.872a35.358,35.358,0,0,0-14.343,28.35A1.638,1.638,0,0,0,30.554,54.356Z" style="fill:#001b01"/><path d="M81.817,22.312a1.639,1.639,0,0,0-1.649,2.833A32.068,32.068,0,0,1,95.722,48.439L93.65,46.365a1.639,1.639,0,1,0-2.317,2.318L96.5,53.854c.015.015.035.019.051.034a1.627,1.627,0,0,0,.477.32h0a1.637,1.637,0,0,0,1.779-.346l4.962-4.9a1.64,1.64,0,1,0-2.3-2.334l-2.376,2.348A35.355,35.355,0,0,0,81.817,22.312Z" style="fill:#001b01"/></svg>