<svg id="Layer_1" data-name="Layer 1" xmlns="http://www.w3.org/2000/svg" viewBox="0 0 128 128"><title>Artboard 2 copy 15</title><path d="M64,54.3A12.636,12.636,0,1,1,51.365,66.939,12.636,12.636,0,0,1,64,54.3" style="fill:#5e9641;fill-rule:evenodd"/><path d="M43.061,66.369,12.646,64.86a51.434,51.434,0,0,0,27.477,47.591l13.9-27.091A20.942,20.942,0,0,1,43.053,66.939q0-.286.008-.569M73.979,85.361l13.9,27.091A51.431,51.431,0,0,0,115.354,64.86L84.939,66.369c.005.19.008.379.008.569A20.943,20.943,0,0,1,73.979,85.361Zm.985-36.274L91.477,23.5a51.429,51.429,0,0,0-54.953,0L53.036,49.087a20.962,20.962,0,0,1,21.928,0Z" style="fill:#94c83d;fill-rule:evenodd"/></svg>