<svg id="Layer_1" data-name="Layer 1" xmlns="http://www.w3.org/2000/svg" viewBox="0 0 128 128"><title>Artboard 2 copy 15</title><polyline points="71.379 92.99 71.379 117.173 56.618 117.173 56.618 92.99" style="fill:#469612"/><polygon points="66.625 92.99 99.582 92.99 80.387 68.769 96.886 68.769 73.315 41.402 88.806 41.402 64 10.797 39.194 41.402 54.681 41.402 31.111 68.769 47.613 68.769 28.418 92.99 61.375 92.99 66.625 92.99" style="fill:#7ece29"/><path d="M83.777,70.408H96.886a.12.12,0,0,0,.032,0A1.64,1.64,0,0,0,97.957,67.5L76.889,43.041H88.806a.236.236,0,0,0,.032,0,1.638,1.638,0,0,0,1.073-2.878L65.274,9.765a1.7,1.7,0,0,0-2.548,0L37.92,40.37a1.64,1.64,0,0,0,1.274,2.671H51.107L29.869,67.7a1.639,1.639,0,0,0,1.242,2.708H44.223L27.133,91.972a1.639,1.639,0,0,0,1.285,2.657H54.979v22.545a1.638,1.638,0,0,0,1.639,1.639H71.378a1.638,1.638,0,0,0,1.639-1.639V94.628H99.581a1.639,1.639,0,0,0,1.286-2.657ZM42.632,39.763,64,13.4,85.368,39.763H42.632ZM34.685,67.13,55.432,43.041H72.564L93.312,67.13H34.685Zm35.055,48.4H58.257V94.628H69.74ZM31.809,91.351l16.6-20.942H79.594l16.6,20.942Z" style="fill:#001b01"/></svg>