<svg id="Layer_1" data-name="Layer 1" xmlns="http://www.w3.org/2000/svg" viewBox="0 0 128 128"><title>Artboard 2 copy 11</title><path d="M57.831,21.553H78.876l9.076,20.136,4.183-1.673-9.3,14.959L65.5,50.768l4.622-2.311L63.193,36.079,51.477,51.758,35.961,40.2l15.474-18.65Z" style="fill:#7ece29"/><line x1="55.398" y1="21.553" x2="63.193" y2="36.079" style="fill:#7ece29"/><path d="M28.249,95.034C24.27,89.155,16.456,77.606,16.456,77.606L28.04,58.8l-3.729-2.528,17.6-.684L48.141,72.3l-4.5-2.532L37.273,82.45l19.553.917-.009,18.565H32.727Z" style="fill:#7ece29"/><line x1="29.612" y1="97.049" x2="37.273" y2="82.45" style="fill:#7ece29"/><path d="M108.922,82.738l-8.637,19.189-22.085.018-.192,4.5L68.181,91.828,79.132,77.751l.211,5.163,14.13-1.244L83.982,64.549l16.906-9.407,10.657,21.765Z" style="fill:#7ece29"/><line x1="109.918" y1="80.518" x2="93.473" y2="81.671" style="fill:#7ece29"/><path d="M63.877,50.952a1.638,1.638,0,0,0,1.24,1.409l17.331,4.208a1.61,1.61,0,0,0,.388.046,1.641,1.641,0,0,0,1.393-.773l9.3-14.959a1.639,1.639,0,0,0-2-2.388L88.8,39.584l-8.43-18.7a1.641,1.641,0,0,0-1.495-.965H51.435a1.639,1.639,0,0,0-1.261.592L34.7,39.157a1.638,1.638,0,0,0,.282,2.361L50.5,53.073a1.635,1.635,0,0,0,2.292-.333L63,39.08l4.861,8.679L64.772,49.3A1.637,1.637,0,0,0,63.877,50.952ZM51.144,49.467,38.325,39.921l13.88-16.728h2.213l6.838,12.742ZM64.637,35.3h0l-6.5-12.112H77.816l8.64,19.171a1.628,1.628,0,0,0,1.7.952L82.071,53.1,70.242,50.232l.618-.309a1.637,1.637,0,0,0,.7-2.267Z" style="fill:#001b01"/><path d="M31.352,102.826a1.642,1.642,0,0,0,1.375.746H56.816a1.639,1.639,0,0,0,1.639-1.637l.009-18.565A1.64,1.64,0,0,0,56.9,81.73l-17.034-.8,4.462-8.888,3.006,1.691a1.641,1.641,0,0,0,2.34-2L43.451,55.019a1.576,1.576,0,0,0-1.6-1.064l-17.6.683a1.639,1.639,0,0,0-.855,2.995l2.43,1.647L15.06,76.747a1.64,1.64,0,0,0,.038,1.779l11.776,17.4ZM55.186,84.931l-.007,15.363H33.617l-2.132-3.284L38.24,84.136ZM29.436,59.662a1.643,1.643,0,0,0-.162-1.94l11.518-.446,4.25,11.406-.6-.339a1.64,1.64,0,0,0-2.268.695L35.823,81.685l0,0L29.434,93.861l-11.027-16.3Z" style="fill:#001b01"/><path d="M102.36,54.422a1.641,1.641,0,0,0-2.27-.712L83.184,63.116a1.64,1.64,0,0,0-.637,2.227l8.269,14.916-9.906.872-.141-3.448a1.639,1.639,0,0,0-2.931-.939L66.887,90.821a1.637,1.637,0,0,0-.067,1.921l9.828,14.619a1.639,1.639,0,0,0,3-.843l.125-2.934,20.516-.017a1.639,1.639,0,0,0,1.494-.967l11.259-25.021a1.636,1.636,0,0,0-.023-1.392ZM86.208,65.186l13.967-7.771,9.559,19.523-.906,2.014L94.4,79.963Zm13.018,35.1-21.027.016a1.639,1.639,0,0,0-1.566,1.157L70.2,91.9l7.474-9.608.029.691a1.639,1.639,0,0,0,1.781,1.566L93.617,83.3h0l13.682-.959Z" style="fill:#001b01"/></svg>