<svg id="Layer_1" data-name="Layer 1" xmlns="http://www.w3.org/2000/svg" viewBox="0 0 128 128"><title>Artboard 2 copy 2</title><path d="M92.47,46.139A28.47,28.47,0,1,0,39.759,61.012h-.035S49.763,78.5,49.763,87.987H78.241c0-9.49,10.039-26.974,10.039-26.974h-.035A28.3,28.3,0,0,0,92.47,46.139Z" style="fill:#469612"/><path d="M81.458,93.176a5.188,5.188,0,0,1-5.189,5.187H51.8a5.188,5.188,0,0,1-5.189-5.187h0A5.188,5.188,0,0,1,51.8,87.989h24.47a5.188,5.188,0,0,1,5.189,5.187Z" style="fill:#469612"/><path d="M77.014,106.467a3.865,3.865,0,0,1-3.864,3.865H54.917a3.865,3.865,0,0,1-3.864-3.865h0a3.865,3.865,0,0,1,3.864-3.865H73.151a3.865,3.865,0,0,1,3.864,3.865Z" style="fill:#469612"/><path d="M69.245,65.818c15.1-14.123-4.757-32.028-4.757-32.028h-.973s-19.863,17.9-4.757,32.028l5.234,4.746Z" style="fill:#7ece29"/><path d="M38.3,61.829c.1.168,9.441,16.547,9.8,25.622A6.815,6.815,0,0,0,51.8,100h24.47A6.812,6.812,0,0,0,79.9,87.416c.386-9.075,9.707-25.421,9.8-25.587a1.655,1.655,0,0,0,.114-.244,30.11,30.11,0,1,0-51.629,0A1.7,1.7,0,0,0,38.3,61.829Zm37.967,34.9H51.8a3.548,3.548,0,1,1,0-7.1h24.47a3.548,3.548,0,1,1,0,7.1ZM64,19.308A26.792,26.792,0,0,1,86.849,60.154a1.5,1.5,0,0,0-.154.33c-1.282,2.274-9.123,16.5-10.012,25.864H65.631V71.292l4.733-4.276c4.152-3.882,6.233-8.4,6.187-13.439-.1-11.082-10.522-20.6-10.965-21a1.642,1.642,0,0,0-1.1-.422h-.973a1.644,1.644,0,0,0-1.1.422c-.443.4-10.867,9.92-10.967,21-.045,5.035,2.037,9.557,6.207,13.456l4.7,4.258V86.348H51.32c-.887-9.357-8.709-23.555-10.007-25.855a1.568,1.568,0,0,0-.159-.339A26.788,26.788,0,0,1,64,19.308Zm-.01,30.5a1.639,1.639,0,0,0-1.639,1.639v15.42l-2.476-2.245c-3.451-3.226-5.183-6.928-5.149-11C54.8,45.407,61.857,37.738,64,35.6c2.146,2.137,9.2,9.781,9.272,18.01.037,4.08-1.7,7.785-5.127,11l-2.516,2.272V51.446A1.639,1.639,0,0,0,63.992,49.806Z" style="fill:#001b01"/><path d="M78.653,106.467a5.509,5.509,0,0,0-5.5-5.5H54.917a5.5,5.5,0,0,0,0,11.007H73.151A5.509,5.509,0,0,0,78.653,106.467Zm-25.961,0a2.228,2.228,0,0,1,2.225-2.226H73.151a2.225,2.225,0,0,1,0,4.451H54.917A2.228,2.228,0,0,1,52.692,106.467Z" style="fill:#001b01"/></svg>