<svg id="Layer_1" data-name="Layer 1" xmlns="http://www.w3.org/2000/svg" viewBox="0 0 128 128"><title>Artboard 2 copy 3</title><path d="M56.122,78.144C75.687,78.8,74.375,53.52,74.375,53.52l-.65-.651S48.442,51.558,49.1,71.125l.33,6.68Z" style="fill:#7ece29"/><path d="M106.615,72.81V55.19H96.4a33.339,33.339,0,0,0-3.256-7.88l7.212-7.214L87.9,27.637l-7.215,7.215A33.388,33.388,0,0,0,72.81,31.6V21.386H55.19V31.6a33.426,33.426,0,0,0-7.882,3.257L40.1,27.639,27.638,40.1l7.215,7.215A33.326,33.326,0,0,0,31.6,55.19H21.385V72.81H31.6a33.344,33.344,0,0,0,3.256,7.88L27.638,87.9,40.1,100.363l7.215-7.215A33.332,33.332,0,0,0,55.19,96.4v10.211H72.81V96.4a33.325,33.325,0,0,0,7.878-3.257l7.215,7.215L100.362,87.9l-7.215-7.216A33.322,33.322,0,0,0,96.4,72.81ZM64,86.6A22.6,22.6,0,1,1,86.6,64,22.6,22.6,0,0,1,64,86.6Z" style="fill:#7ece29"/><line x1="49.428" y1="77.806" x2="61.74" y2="65.504" style="fill:#7ece29"/><path d="M21.385,74.449h8.981A34.967,34.967,0,0,0,32.824,80.4l-6.345,6.345a1.638,1.638,0,0,0,0,2.318l12.459,12.458a1.638,1.638,0,0,0,2.317,0L47.6,95.177a35.111,35.111,0,0,0,5.95,2.458v8.98a1.638,1.638,0,0,0,1.639,1.639H72.81a1.639,1.639,0,0,0,1.639-1.639V97.633A35,35,0,0,0,80.4,95.175l6.345,6.345a1.639,1.639,0,0,0,2.318,0l12.459-12.458a1.639,1.639,0,0,0,0-2.318L95.176,80.4a35.129,35.129,0,0,0,2.457-5.95h8.981a1.639,1.639,0,0,0,1.639-1.639V55.19a1.639,1.639,0,0,0-1.639-1.639H97.633A34.9,34.9,0,0,0,95.175,47.6l6.343-6.345a1.639,1.639,0,0,0,0-2.318L89.062,26.479a1.638,1.638,0,0,0-2.318,0L80.4,32.823a35.059,35.059,0,0,0-5.95-2.457V21.385a1.638,1.638,0,0,0-1.639-1.639H55.19a1.638,1.638,0,0,0-1.639,1.639v8.981A35.114,35.114,0,0,0,47.6,32.825L41.255,26.48a1.638,1.638,0,0,0-2.317,0L26.479,38.938a1.638,1.638,0,0,0,0,2.318L32.824,47.6a35.09,35.09,0,0,0-2.457,5.95H21.385a1.638,1.638,0,0,0-1.639,1.639V72.81A1.638,1.638,0,0,0,21.385,74.449Zm1.639-17.619H31.6a1.64,1.64,0,0,0,1.581-1.21,31.767,31.767,0,0,1,3.1-7.492,1.639,1.639,0,0,0-.263-1.974L29.955,40.1,40.1,29.957l6.054,6.056a1.64,1.64,0,0,0,1.973.263,31.878,31.878,0,0,1,7.5-3.1,1.639,1.639,0,0,0,1.21-1.581V23.025H71.171V31.6a1.639,1.639,0,0,0,1.21,1.581,31.822,31.822,0,0,1,7.49,3.1,1.643,1.643,0,0,0,1.975-.263L87.9,29.955,98.042,40.1l-6.054,6.056a1.639,1.639,0,0,0-.263,1.974,31.822,31.822,0,0,1,3.1,7.493,1.639,1.639,0,0,0,1.581,1.21h8.573V71.171H96.4a1.639,1.639,0,0,0-1.581,1.21,31.787,31.787,0,0,1-3.1,7.492,1.639,1.639,0,0,0,.263,1.974L98.045,87.9,87.9,98.043l-6.057-6.056a1.637,1.637,0,0,0-1.975-.262,31.781,31.781,0,0,1-7.49,3.1,1.639,1.639,0,0,0-1.21,1.581v8.572H56.829V96.4a1.639,1.639,0,0,0-1.21-1.582,31.7,31.7,0,0,1-7.49-3.1,1.635,1.635,0,0,0-1.975.263L40.1,98.045,29.955,87.9l6.056-6.056a1.639,1.639,0,0,0,.263-1.974,31.8,31.8,0,0,1-3.1-7.493,1.64,1.64,0,0,0-1.581-1.21H23.024Z" style="fill:#001b01"/><path d="M64,88.239A24.239,24.239,0,1,0,39.76,64,24.267,24.267,0,0,0,64,88.239ZM50.736,71.07a13.829,13.829,0,0,1,3.656-10.506c5.45-5.636,15.43-6.073,18.361-6.073h0c0,2.931-.429,12.441-5.661,17.952a13.5,13.5,0,0,1-10.225,4.077h0c-.225,0-.456,0-.661-.01L53.2,76.356l9.7-9.691a1.64,1.64,0,0,0-2.318-2.32l-9.7,9.69ZM64,43.039A20.961,20.961,0,1,1,49.907,79.471l6.16.312a7.66,7.66,0,0,1,.8.014,16.654,16.654,0,0,0,12.6-5.1c7.169-7.551,6.572-20.707,6.543-21.263a1.65,1.65,0,0,0-.477-1.073l-.65-.651a1.649,1.649,0,0,0-1.076-.479s-.384-.021-1.06-.021c-3.256,0-14.369.51-20.715,7.073-3.211,3.321-4.751,7.659-4.575,12.922l.3,6.022A20.944,20.944,0,0,1,64,43.039Z" style="fill:#001b01"/></svg>