<svg xmlns="http://www.w3.org/2000/svg" data-name="Layer 1" viewBox="0 0 128 128"><circle cx="64" cy="64" r="45.073" fill="#469612"/><circle cx="64" cy="64" r="31.67" fill="#7ece29"/><path fill="#7ece29" d="M77.835 50.164a19.567 19.567 0 11-27.981.314"/><path fill="#001b01" d="M64 17.288A46.712 46.712 0 10110.712 64 46.765 46.765 0 0064 17.288zm0 90.146A43.434 43.434 0 11107.434 64 43.483 43.483 0 0164 107.434z"/><path fill="#001b01" d="M64 30.691A33.309 33.309 0 1097.308 64 33.346 33.346 0 0064 30.691zm0 63.339A30.031 30.031 0 1194.031 64 30.065 30.065 0 0164 94.031z"/><path fill="#001b01" d="M76.677 49.006a1.639 1.639 0 000 2.318 17.928 17.928 0 11-25.638.286 1.638 1.638 0 10-2.369-2.263 21.206 21.206 0 1030.325-.341 1.638 1.638 0 00-2.318 0z"/><path fill="#001b01" d="M64 65.639A1.638 1.638 0 0065.639 64V39.415a1.639 1.639 0 10-3.278 0V64A1.638 1.638 0 0064 65.639z"/></svg>