<svg id="Layer_1" data-name="Layer 1" xmlns="http://www.w3.org/2000/svg" viewBox="0 0 128 128"><title>Artboard 2 copy 14</title><path d="M37.727,33.2H90.273a10.045,10.045,0,0,1,10.015,10.016v61.6a10.045,10.045,0,0,1-10.015,10.016H37.727a10.045,10.045,0,0,1-10.015-10.016v-61.6A10.045,10.045,0,0,1,37.727,33.2" style="fill:#94c83d;fill-rule:evenodd"/><path d="M58.776,56.549a2.458,2.458,0,0,1,3.851-2.922L65.6,56.338a2.462,2.462,0,0,1,.459,3.337L64.1,63.082a2.452,2.452,0,0,1-4.548-1.6,13.31,13.31,0,1,0,11.593,1.314,2.461,2.461,0,1,1,2.636-4.156,18.2,18.2,0,1,1-15-2.087" style="fill:#5e9641"/><path d="M86.928,33.2A22.543,22.543,0,0,0,64.585,13.172h-1.17A22.543,22.543,0,0,0,41.072,33.2h-.008l-.006,13.543a2.453,2.453,0,1,0,4.906,0L45.97,33.2h.059A17.635,17.635,0,0,1,63.415,18.1h1.17A17.635,17.635,0,0,1,81.972,33.2h.058l-.006,13.543a2.453,2.453,0,0,0,4.906,0L86.936,33.2Z" style="fill:#5e9641"/></svg>