<svg id="Layer_1" data-name="Layer 1" xmlns="http://www.w3.org/2000/svg" viewBox="0 0 128 128"><title>Artboard 2 copy</title><path d="M98.414,81.763a34.414,34.414,0,1,1-68.828,0Z" style="fill:#469612"/><path d="M68.831,41.324c13.914-13.01-4.383-29.5-4.383-29.5h-.9s-18.3,16.493-4.383,29.5L63.992,45.7Z" style="fill:#7ece29"/><path d="M43.527,49.614C33.764,39.173,21.389,52.9,21.389,52.9v.671S33.764,67.3,43.527,56.863l3.28-3.617Z" style="fill:#7ece29"/><path d="M84.474,49.614c9.763-10.441,22.138,3.289,22.138,3.289v.671S94.236,67.3,84.474,56.863l-3.28-3.617Z" style="fill:#7ece29"/><path d="M35.177,62.42h0a12.806,12.806,0,0,0,9.563-4.456l2.748-3.031a7.014,7.014,0,0,1,4.857,2.155c3.582,3.8,3.194,11.183,3.187,11.355V80.124H29.586a1.639,1.639,0,0,0-1.639,1.639,36.053,36.053,0,1,0,72.107,0,1.639,1.639,0,0,0-1.639-1.639H72.467l0-11.779c0-.075-.392-7.461,3.19-11.258a7.016,7.016,0,0,1,4.857-2.155l2.765,3.049a12.789,12.789,0,0,0,9.547,4.438c7.93,0,14.721-7.432,15.005-7.749a1.641,1.641,0,0,0,.422-1.1V52.9a1.641,1.641,0,0,0-.422-1.1c-.285-.316-7.074-7.749-15.005-7.749a12.811,12.811,0,0,0-9.566,4.459l-2.814,3.116a10.28,10.28,0,0,0-7.182,3.217c-4.552,4.837-4.091,13.335-4.071,13.594V80.124H65.63v-33.7l4.32-3.9c3.852-3.6,5.783-7.8,5.74-12.474C75.6,19.782,65.956,10.974,65.545,10.6a1.639,1.639,0,0,0-1.1-.422h-.9a1.64,1.64,0,0,0-1.1.422c-.41.37-10.052,9.177-10.145,19.443-.042,4.676,1.889,8.873,5.759,12.491l4.283,3.883v33.7H58.811l0-11.582c.022-.359.484-8.857-4.068-13.694a10.281,10.281,0,0,0-7.183-3.217l-2.833-3.137a12.792,12.792,0,0,0-9.547-4.438c-7.931,0-14.721,7.433-15.006,7.749a1.641,1.641,0,0,0-.422,1.1v.671a1.639,1.639,0,0,0,.422,1.1C20.456,54.988,27.247,62.419,35.177,62.42ZM92.823,47.334c5.127,0,10,4.155,11.817,5.906-1.818,1.75-6.672,5.9-11.817,5.9a9.5,9.5,0,0,1-7.136-3.38l-.8-.885H93.9a1.639,1.639,0,1,0,0-3.278H84.89l.781-.865A9.515,9.515,0,0,1,92.823,47.334ZM60.29,40.127c-3.151-2.946-4.733-6.323-4.7-10.039.061-7.4,6.346-14.338,8.414-16.419,2.066,2.075,8.343,8.987,8.411,16.408a13.326,13.326,0,0,1-4.681,10.031l-2.1,1.9V28.759a1.639,1.639,0,0,0-3.278,0V42ZM64,114.539A32.815,32.815,0,0,1,31.266,83.4H96.734A32.815,32.815,0,0,1,64,114.539Zm-28.823-67.2a9.494,9.494,0,0,1,7.133,3.378l.8.886H34.1a1.639,1.639,0,1,0,0,3.278h9.017l-.785.867a9.516,9.516,0,0,1-7.152,3.4h0c-5.125,0-9.992-4.153-11.815-5.9C25.186,51.487,30.052,47.334,35.177,47.334Z" style="fill:#001b01"/></svg>