<svg xmlns="http://www.w3.org/2000/svg" data-name="Layer 1" viewBox="0 0 128 128"><path fill="#94c83d" d="m51.306 108.759 12.376-35.3-32.51-.081a2.452 2.452 0 0 1-1.9-4q14.289-17.554 28.609-35.087Q65 25.572 72.113 16.849a2.455 2.455 0 0 1 4.21 2.392l-12.376 35.3 32.51.081a2.453 2.453 0 0 1 1.943 3.95c-9.131 11.847-18.76 23.434-28.425 35.065-4.738 5.7-9.486 11.416-14.459 17.514a2.455 2.455 0 0 1-4.21-2.392"/><path fill="#5e9641" d="M45.235 97.746a2.457 2.457 0 1 1-2.328 4.328A44.01 44.01 0 0 1 53.791 20.5a2.46 2.46 0 1 1 1.116 4.791 39.089 39.089 0 0 0-9.673 72.457M83.022 29.1a2.458 2.458 0 0 1 2.366-4.31 44 44 0 0 1-11.7 81.53 2.453 2.453 0 1 1-1.058-4.791A39.095 39.095 0 0 0 83.022 29.1"/></svg>