<svg xmlns="http://www.w3.org/2000/svg" data-name="Layer 1" viewBox="0 0 128 128"><path fill="#94c83d" fill-rule="evenodd" d="M64 17.521A27.685 27.685 0 0 1 91.685 45.2a17.183 17.183 0 1 1 0 34.367h-55.37a17.183 17.183 0 1 1 0-34.367A27.684 27.684 0 0 1 64 17.521"/><path fill="#5e9641" fill-rule="evenodd" d="M33.577 101.68a9.38 9.38 0 0 1 .167-.926c.614-2.593 2.148-4.462 3.682-6.33a21.947 21.947 0 0 0 2.166-2.95 1.9 1.9 0 0 1 3.312 0 21.941 21.941 0 0 0 2.165 2.95c1.513 1.843 3.027 3.687 3.657 6.225l.025.1a9.347 9.347 0 0 1 .168.933c.034.256.059.523.072.8a1.915 1.915 0 0 1 .015.237 7.759 7.759 0 0 1-15.518 0h.012v-.059a9.613 9.613 0 0 1 .081-.981M56.328 101.68c.046-.34.1-.648.168-.926.614-2.593 2.149-4.462 3.682-6.33a21.945 21.945 0 0 0 2.166-2.95 1.9 1.9 0 0 1 3.311 0 21.985 21.985 0 0 0 2.166 2.95c1.513 1.843 3.027 3.687 3.657 6.225l.025.1a9.347 9.347 0 0 1 .168.933c.034.256.059.523.072.8a1.916 1.916 0 0 1 .015.237 7.759 7.759 0 0 1-15.518 0h.006v-.059a9.749 9.749 0 0 1 .08-.981M79.081 101.68c.046-.34.1-.648.168-.926.614-2.593 2.148-4.462 3.682-6.33a21.945 21.945 0 0 0 2.166-2.95 1.9 1.9 0 0 1 3.311 0 21.944 21.944 0 0 0 2.166 2.95c1.513 1.843 3.027 3.687 3.657 6.225l.026.1a9.347 9.347 0 0 1 .168.933c.034.256.059.523.073.8a2.01 2.01 0 0 1 .014.237 7.759 7.759 0 0 1-15.518 0H79v-.059c.011-.342.039-.668.08-.981"/></svg>