<svg id="Layer_1" data-name="Layer 1" xmlns="http://www.w3.org/2000/svg" viewBox="0 0 128 128"><title>Artboard 2 copy 6</title><path d="M83.266,15.976H79.938A9.052,9.052,0,0,0,70.912,25v1.227h21.38V25a9.052,9.052,0,0,0-9.026-9.026" style="fill:#3e6530;fill-rule:evenodd"/><path d="M96.474,26.228H66.731a6.169,6.169,0,0,0-6.152,6.151V98.714a6.164,6.164,0,0,0,6.147,6.147H96.479a6.164,6.164,0,0,0,6.147-6.147V32.38a6.169,6.169,0,0,0-6.152-6.151" style="fill:#5e9641;fill-rule:evenodd"/><path d="M87.1,38.88H84.055V35.84a2.453,2.453,0,0,0-4.906,0V38.88H76.109a2.453,2.453,0,1,0,0,4.906h3.041v3.041a2.453,2.453,0,1,0,4.906,0V43.786H87.1a2.453,2.453,0,0,0,0-4.906Z" style="fill:#3e6530"/><path d="M76.109,94.575a2.453,2.453,0,1,1,0-4.906H87.1a2.453,2.453,0,0,1,0,4.906Z" style="fill:#3e6530"/><path d="M48.062,23.14H44.734a9.052,9.052,0,0,0-9.026,9.026v1.226h21.38V32.166a9.052,9.052,0,0,0-9.026-9.026" style="fill:#5e9641;fill-rule:evenodd"/><path d="M61.269,33.392H31.526a6.169,6.169,0,0,0-6.151,6.151v66.334a6.164,6.164,0,0,0,6.147,6.147H61.274a6.165,6.165,0,0,0,6.147-6.147V39.543a6.169,6.169,0,0,0-6.152-6.151" style="fill:#94c83d;fill-rule:evenodd"/><path d="M51.891,46.044H48.85V43a2.453,2.453,0,0,0-4.906,0v3.041H40.9a2.453,2.453,0,1,0,0,4.906h3.04v3.04a2.453,2.453,0,1,0,4.906,0V50.95h3.041a2.453,2.453,0,0,0,0-4.906Z" style="fill:#5e9641"/><path d="M40.9,101.739a2.453,2.453,0,1,1,0-4.906H51.891a2.453,2.453,0,0,1,0,4.906Z" style="fill:#5e9641"/></svg>