<svg id="Layer_1" data-name="Layer 1" xmlns="http://www.w3.org/2000/svg" viewBox="0 0 128 128"><title>Artboard 2 copy 14</title><circle cx="64" cy="64" r="45.073" style="fill:#469612"/><circle cx="64" cy="64" r="31.67" style="fill:#7ece29"/><path d="M77.835,50.164a19.567,19.567,0,1,1-27.981.314" style="fill:#7ece29"/><path d="M64,17.288A46.712,46.712,0,1,0,110.712,64,46.765,46.765,0,0,0,64,17.288Zm0,90.146A43.434,43.434,0,1,1,107.434,64,43.483,43.483,0,0,1,64,107.434Z" style="fill:#001b01"/><path d="M64,30.691A33.309,33.309,0,1,0,97.308,64,33.346,33.346,0,0,0,64,30.691Zm0,63.339A30.031,30.031,0,1,1,94.031,64,30.065,30.065,0,0,1,64,94.031Z" style="fill:#001b01"/><path d="M76.677,49.006a1.639,1.639,0,0,0,0,2.318,17.928,17.928,0,1,1-25.638.286,1.638,1.638,0,1,0-2.369-2.263,21.206,21.206,0,1,0,30.325-.341A1.638,1.638,0,0,0,76.677,49.006Z" style="fill:#001b01"/><path d="M64,65.639A1.638,1.638,0,0,0,65.639,64V39.415a1.639,1.639,0,1,0-3.278,0V64A1.638,1.638,0,0,0,64,65.639Z" style="fill:#001b01"/></svg>