<svg id="Layer_1" data-name="Layer 1" xmlns="http://www.w3.org/2000/svg" viewBox="0 0 128 128"><title>Artboard 2 copy 8</title><path d="M68.811,5.547H44.321A11.421,11.421,0,0,0,32.934,16.933v1.548H96.305v-.946a6.984,6.984,0,0,0-6.963-6.964h-11.1a11.4,11.4,0,0,0-9.431-5.025" style="fill:#94c83d;fill-rule:evenodd"/><path d="M95.771,27H34.23v80.237a9.023,9.023,0,0,0,9,9H86.774a9.023,9.023,0,0,0,9-9Z" style="fill:#94c83d;fill-rule:evenodd"/><path d="M97.067,18.481H32.934a4.27,4.27,0,0,0-4.258,4.258h0A4.27,4.27,0,0,0,32.934,27H97.067a4.27,4.27,0,0,0,4.258-4.258h0a4.27,4.27,0,0,0-4.258-4.258" style="fill:#5e9641;fill-rule:evenodd"/><path d="M38.048,99.707A11.373,11.373,0,1,1,26.675,111.08,11.373,11.373,0,0,1,38.048,99.707" style="fill:#5e9641;fill-rule:evenodd"/><path d="M59.7,48.7a2.458,2.458,0,0,1,3.787-3.041L66.607,48.5a2.462,2.462,0,0,1,.458,3.337L65,55.4a2.452,2.452,0,0,1-4.511-1.792,14.026,14.026,0,1,0,12.033,1.449,2.46,2.46,0,1,1,2.636-4.155A18.916,18.916,0,1,1,59.7,48.7" style="fill:#5e9641"/><path d="M38.048,105.929A5.151,5.151,0,1,1,32.9,111.08a5.151,5.151,0,0,1,5.151-5.151" style="fill:#94c83d;fill-rule:evenodd"/></svg>