<svg id="Layer_1" data-name="Layer 1" xmlns="http://www.w3.org/2000/svg" viewBox="0 0 128 128"><title>Artboard 2 copy 12</title><path d="M104.747,41.35l6.563,61.806a10.97,10.97,0,0,1-10.939,10.937H27.629A10.97,10.97,0,0,1,16.69,103.156L23.253,41.35Z" style="fill:#7ece29"/><path d="M60.5,59.313H72.44l5.149,11.422,2.374-.948-5.276,8.486-9.834-2.385,2.623-1.312-3.934-7.023-6.646,8.9-8.805-6.556,8.779-10.58Z" style="fill:#469612"/><path d="M43.717,101c-2.258-3.332-6.692-9.889-6.692-9.889L43.6,80.448l-2.116-1.434,9.986-.387L55,88.108l-2.555-1.437-3.611,7.193,11.1.518-.007,10.532H46.257Z" style="fill:#469612"/><line x1="44.49" y1="102.146" x2="48.836" y2="93.864" style="fill:#7ece29"/><path d="M89.488,94.027c-1.653,3.672-4.9,10.888-4.9,10.888l-12.529.009-.109,2.555-5.576-8.294L72.586,91.2l.12,2.93,8.016-.7-5.385-9.716L84.93,78.37l6.045,12.35Z" style="fill:#469612"/><line x1="90.051" y1="92.766" x2="80.722" y2="93.422" style="fill:#7ece29"/><path d="M106.377,41.177a1.64,1.64,0,0,0-1.63-1.466h-11.6a29.043,29.043,0,0,0-58,0h-11.9a1.64,1.64,0,0,0-1.63,1.466l-.874,8.23a1.609,1.609,0,0,0-.106.527,1.5,1.5,0,0,0,.033.163L15.06,102.982c-.006.058-.009.116-.009.173a12.591,12.591,0,0,0,12.578,12.576h72.743a12.591,12.591,0,0,0,12.577-12.576c0-.058,0-.116-.008-.173ZM64.152,15.547A25.815,25.815,0,0,1,89.873,39.711H38.431A25.815,25.815,0,0,1,64.152,15.547Zm39.12,27.442.564,5.306H24.164l.564-5.306Zm-2.9,69.465H27.629a9.311,9.311,0,0,1-9.3-9.215l5.487-51.666h80.368l5.486,51.666A9.311,9.311,0,0,1,100.372,112.453Z" style="fill:#001b01"/><path d="M74.687,79.913a1.639,1.639,0,0,0,1.392-.773l5.276-8.486a1.64,1.64,0,0,0-2-2.388l-.917.367-4.5-9.992a1.638,1.638,0,0,0-1.494-.965H56.871a1.641,1.641,0,0,0-1.261.592l-8.779,10.58a1.638,1.638,0,0,0,.282,2.361l8.805,6.556a1.639,1.639,0,0,0,2.292-.333l5.136-6.874,1.861,3.323-1.087.544a1.639,1.639,0,0,0,.347,3.059L74.3,79.867A1.6,1.6,0,0,0,74.687,79.913ZM56.563,74.158,50.456,69.61l7.184-8.658h.5L61.6,67.409ZM68.99,75.206c.02-.048.037-.1.053-.147a1.642,1.642,0,0,0-.137-1.282l-3.923-7-3.124-5.82h9.522L76.1,71.409a1.638,1.638,0,0,0,.526.65l-2.7,4.342Z" style="fill:#001b01"/><path d="M60.008,92.745l-8.575-.4,1.708-3.4,1.057.594a1.638,1.638,0,0,0,2.339-2L53,78.055a1.62,1.62,0,0,0-1.6-1.066l-9.986.387a1.639,1.639,0,0,0-.856,2.995l.817.554-5.75,9.33a1.637,1.637,0,0,0,.038,1.779l6.674,9.863,2.54,3.912a1.64,1.64,0,0,0,1.375.746H59.925a1.638,1.638,0,0,0,1.639-1.637l.007-10.532A1.64,1.64,0,0,0,60.008,92.745ZM38.976,91.073l6.017-9.765a1.63,1.63,0,0,0,.243-.8l5.11-.2,1.772,4.755a1.3,1.3,0,0,0-.15.039,1.63,1.63,0,0,0-.986.832l-3.6,7.166h0l-3.1,5.9Zm19.311,12.2H47.148l-.785-1.171L49.8,95.55l8.489.4Z" style="fill:#001b01"/><path d="M86.4,77.65a1.632,1.632,0,0,0-.981-.843,1.66,1.66,0,0,0-1.287.131L74.54,82.274A1.639,1.639,0,0,0,73.9,84.5l4.161,7.51-3.792.333-.05-1.213a1.639,1.639,0,0,0-2.931-.94l-6.213,7.987a1.637,1.637,0,0,0-.067,1.921l5.576,8.295a1.639,1.639,0,0,0,3-.844l.042-.987,10.96-.008a1.639,1.639,0,0,0,1.493-.967L92.47,91.393A1.638,1.638,0,0,0,92.447,90Zm-8.837,6.694,6.653-3.7L89.165,90.75l-.2.451-7.313.514Zm5.964,18.934-11.472.008a1.649,1.649,0,0,0-.808.213l-2.853-4.243,3.116-4.006c.036.038.074.074.113.109a1.627,1.627,0,0,0,1.225.4l8.016-.7h0l6.568-.462Z" style="fill:#001b01"/></svg>