<svg id="Layer_1" data-name="Layer 1" xmlns="http://www.w3.org/2000/svg" viewBox="0 0 128 128"><title>Artboard 2 copy 5</title><path d="M64.317,33.142s-18.6,29.675-18.6,40.751a18.6,18.6,0,0,0,37.2,0C82.918,62.817,64.317,33.142,64.317,33.142Z" style="fill:#469612"/><polygon points="67.898 53.207 56.607 71.297 62.677 71.297 60.735 84.653 72.027 66.439 65.956 66.439 67.898 53.207" style="fill:#7ece29"/><path d="M20.052,63.533a43.674,43.674,0,0,0,22.576,38.223,1.639,1.639,0,1,0,1.585-2.87A40.358,40.358,0,0,1,59.691,23.379L52.043,31.47a1.639,1.639,0,0,0,2.382,2.252L64.874,22.667c.026-.028.034-.064.058-.093a1.594,1.594,0,0,0,.211-.338,1.616,1.616,0,0,0,.087-.194c.01-.03.03-.053.038-.084a1.618,1.618,0,0,0,.029-.319,1.739,1.739,0,0,0,.016-.178,1.64,1.64,0,0,0-.127-.568c-.011-.025-.032-.045-.044-.07a1.609,1.609,0,0,0-.3-.421c-.016-.016-.021-.037-.037-.052-.036-.034-.083-.046-.121-.076a1.591,1.591,0,0,0-.2-.16l-12.7-7.179a1.639,1.639,0,1,0-1.613,2.854l7.91,4.47A43.7,43.7,0,0,0,20.052,63.533Z" style="fill:#001b01"/><path d="M107.948,64.467A43.673,43.673,0,0,0,85.372,26.244a1.639,1.639,0,0,0-1.585,2.87,40.358,40.358,0,0,1-15.479,75.508l7.648-8.091a1.639,1.639,0,0,0-2.382-2.252L63.126,105.333c-.026.028-.034.064-.058.093a2.27,2.27,0,0,0-.3.533c-.009.03-.03.053-.038.084a1.581,1.581,0,0,0-.029.318,1.227,1.227,0,0,0,.11.746c.011.026.033.047.046.073a1.618,1.618,0,0,0,.295.418c.016.016.021.037.037.053a1.52,1.52,0,0,0,.129.082,1.587,1.587,0,0,0,.191.155l12.7,7.179a1.639,1.639,0,0,0,1.613-2.854l-7.91-4.47A43.7,43.7,0,0,0,107.948,64.467Z" style="fill:#001b01"/><path d="M64.317,94.132a20.262,20.262,0,0,0,20.24-20.238c0-11.416-18.081-40.394-18.851-41.622a1.7,1.7,0,0,0-2.777,0c-.77,1.228-18.851,30.206-18.851,41.622A20.262,20.262,0,0,0,64.317,94.132Zm0-57.848c4.278,7.09,16.961,28.85,16.961,37.609a16.961,16.961,0,0,1-33.922,0C47.356,65.137,60.039,43.375,64.317,36.284Z" style="fill:#001b01"/><path d="M56.607,72.936h4.175l-1.67,11.48a1.639,1.639,0,0,0,3.015,1.1L73.42,67.3a1.639,1.639,0,0,0-1.393-2.5H67.853l1.666-11.356a1.639,1.639,0,0,0-3.012-1.105l-11.29,18.09a1.639,1.639,0,0,0,1.39,2.507Zm8.531-12.212-.8,5.478a1.639,1.639,0,0,0,1.621,1.877h3.127L63.49,77.1l.81-5.565a1.639,1.639,0,0,0-1.622-1.875H59.562Z" style="fill:#001b01"/></svg>