<svg xmlns="http://www.w3.org/2000/svg" data-name="Layer 1" viewBox="0 0 128 128"><path fill="#94c83d" fill-rule="evenodd" d="M68.811 5.547h-24.49a11.421 11.421 0 0 0-11.387 11.386v1.548h63.371v-.946a6.984 6.984 0 0 0-6.963-6.964h-11.1a11.4 11.4 0 0 0-9.431-5.025M95.771 27H34.23v80.237a9.023 9.023 0 0 0 9 9h43.544a9.023 9.023 0 0 0 9-9z"/><path fill="#5e9641" fill-rule="evenodd" d="M97.067 18.481H32.934a4.27 4.27 0 0 0-4.258 4.258A4.27 4.27 0 0 0 32.934 27h64.133a4.27 4.27 0 0 0 4.258-4.258 4.27 4.27 0 0 0-4.258-4.258M38.048 99.707a11.373 11.373 0 1 1-11.373 11.373 11.373 11.373 0 0 1 11.373-11.373"/><path fill="#5e9641" d="M59.7 48.7a2.458 2.458 0 0 1 3.787-3.041l3.12 2.841a2.462 2.462 0 0 1 .458 3.337L65 55.4a2.452 2.452 0 0 1-4.511-1.792 14.026 14.026 0 1 0 12.033 1.449 2.46 2.46 0 1 1 2.636-4.155A18.916 18.916 0 1 1 59.7 48.7"/><path fill="#94c83d" fill-rule="evenodd" d="M38.048 105.929a5.151 5.151 0 1 1-5.148 5.151 5.151 5.151 0 0 1 5.151-5.151"/></svg>