<svg xmlns="http://www.w3.org/2000/svg" data-name="Layer 1" viewBox="0 0 128 128"><path fill="#7ece29" d="M102.911 53.047h7.989a3.507 3.507 0 0 1 3.5 3.5v14.908a3.506 3.506 0 0 1-3.5 3.5h-7.993"/><path fill="#7ece29" d="M21.794 38.321h72.922a8.2 8.2 0 0 1 8.2 8.2v34.964a8.193 8.193 0 0 1-8.193 8.193H21.794a8.2 8.2 0 0 1-8.2-8.2V46.517a8.2 8.2 0 0 1 8.2-8.196z"/><path fill="#469612" d="M61.678 44.4H76.155V83.463H61.678z"/><path fill="#469612" d="M41.464 44.468H55.942V83.53200000000001H41.464z"/><path fill="#469612" d="M21.25 44.331H35.728V83.394H21.25z"/><path fill="#001b01" d="M110.9 51.408h-6.35v-4.891a9.844 9.844 0 0 0-9.832-9.834H21.794a9.845 9.845 0 0 0-9.834 9.834v34.966a9.845 9.845 0 0 0 9.834 9.834h72.924a9.844 9.844 0 0 0 9.832-9.834V76.59h6.35a5.141 5.141 0 0 0 5.135-5.135V56.543a5.141 5.141 0 0 0-5.135-5.135zm-9.632 30.076a6.562 6.562 0 0 1-6.555 6.556H21.794a6.563 6.563 0 0 1-6.556-6.556V46.517a6.563 6.563 0 0 1 6.556-6.556h72.924a6.562 6.562 0 0 1 6.555 6.556zm11.489-10.028a1.859 1.859 0 0 1-1.857 1.857h-6.35V54.686h6.35a1.859 1.859 0 0 1 1.857 1.857z"/><path fill="#001b01" d="M76.155 42.762H61.678a1.639 1.639 0 0 0-1.639 1.638v39.063a1.639 1.639 0 0 0 1.639 1.637h14.477a1.639 1.639 0 0 0 1.639-1.639V44.4a1.639 1.639 0 0 0-1.639-1.638zm-1.638 39.062h-11.2V46.04h11.2zM55.942 42.829H41.464a1.638 1.638 0 0 0-1.639 1.639v39.064a1.638 1.638 0 0 0 1.639 1.639h14.478a1.639 1.639 0 0 0 1.639-1.639V44.468a1.638 1.638 0 0 0-1.639-1.639zM54.3 81.893H43.1V46.107h11.2zM35.728 42.693H21.25a1.638 1.638 0 0 0-1.639 1.639v39.062a1.638 1.638 0 0 0 1.639 1.639h14.478a1.639 1.639 0 0 0 1.639-1.639V44.331a1.639 1.639 0 0 0-1.639-1.638zm-1.64 39.063h-11.2V45.971h11.2z"/></svg>