<svg id="Layer_1" data-name="Layer 1" xmlns="http://www.w3.org/2000/svg" viewBox="0 0 128 128"><title>Artboard 2 copy 7</title><path d="M41.934,65.663V83.948c0,2.545-2.51,4.628-5.579,4.628H22.97c-3.067,0-5.579-2.083-5.579-4.628V65.663" style="fill:#7ece29"/><path d="M91.012,45.236C109.6,27.857,85.16,5.824,85.16,5.824h-1.2S59.518,27.857,78.108,45.236l6.441,5.84Z" style="fill:#7ece29"/><path d="M80.365,47.711c-12.488-13.359-28.321,4.205-28.321,4.205v.86s15.833,17.563,28.321,4.206l4.2-4.626Z" style="fill:#7ece29"/><path d="M88.746,47.986c12.488-13.359,28.321,4.205,28.321,4.205v.86s-15.833,17.563-28.324,4.206L84.549,52.63Z" style="fill:#7ece29"/><path d="M14.6,65.663a3.668,3.668,0,0,1-3.668-3.669h0A3.67,3.67,0,0,1,14.6,58.326h30.12a3.67,3.67,0,0,1,3.668,3.668h0a3.668,3.668,0,0,1-3.668,3.669Z" style="fill:#7ece29"/><path d="M118.285,51.094c-.36-.4-8.912-9.761-18.857-9.761a15.067,15.067,0,0,0-3.276.355,20.189,20.189,0,0,0,3.474-11.512C99.5,16.7,86.8,5.093,86.258,4.606a1.642,1.642,0,0,0-1.1-.422h-1.2a1.642,1.642,0,0,0-1.1.422c-.541.487-13.25,12.1-13.371,25.57a20.132,20.132,0,0,0,3.269,11.2,15.089,15.089,0,0,0-3.08-.32c-9.945,0-18.5,9.363-18.856,9.761a1.644,1.644,0,0,0-.421,1.1v.86a1.642,1.642,0,0,0,.421,1.1c.36.4,8.914,9.761,18.856,9.761,4.451,0,8.448-1.862,11.9-5.551L82.922,56.6V102.35c0,7.15-1.632,12.32-4.851,15.364a9.976,9.976,0,0,1-7.025,2.819H41.934a9.614,9.614,0,0,1-7.235-2.747c-3.607-3.75-3.4-10.157-3.4-10.287V90.215h5.055c3.981,0,7.219-2.812,7.219-6.267V67.3h1.149a5.308,5.308,0,0,0,0-10.615H38.9V41.85a1.639,1.639,0,0,0-3.278,0V56.686H23.707V41.85a1.639,1.639,0,0,0-3.278,0V56.686H14.6a5.308,5.308,0,0,0,0,10.615h1.149V83.948c0,3.456,3.238,6.267,7.219,6.267h5.052l0,17.213c-.013.318-.277,7.841,4.3,12.614a12.749,12.749,0,0,0,9.611,3.768l29,0c.029,0,.153.009.359.009a13.474,13.474,0,0,0,8.967-3.66c3.942-3.681,5.941-9.672,5.941-17.806V56.893l1.344,1.483c3.433,3.671,7.43,5.532,11.881,5.532,9.945,0,18.5-9.362,18.859-9.761a1.642,1.642,0,0,0,.421-1.1v-.86A1.642,1.642,0,0,0,118.285,51.094ZM12.573,61.994A2.032,2.032,0,0,1,14.6,59.965h30.12a2.03,2.03,0,0,1,0,4.059H14.6A2.033,2.033,0,0,1,12.573,61.994ZM19.03,83.948V67.3H40.3V83.948c0,1.62-1.8,2.989-3.941,2.989H22.97C20.834,86.937,19.03,85.568,19.03,83.948ZM84.562,7.516c2.294,2.245,11.7,12.09,11.788,22.7.043,5.125-2.13,9.776-6.438,13.8L86.2,47.375V28.45a1.639,1.639,0,0,0-3.278,0V47.39l-3.7-3.351c-4.326-4.046-6.5-8.7-6.455-13.82C72.861,19.605,82.268,9.76,84.562,7.516Zm-14.88,52.84c-7.066,0-13.715-5.977-15.772-8.01,2.052-2.035,8.683-8.009,15.772-8.009a12.751,12.751,0,0,1,9.466,4.474l1.963,2.172H68.3a1.639,1.639,0,1,0,0,3.278H80.621l-1.453,1.6A12.772,12.772,0,0,1,69.682,60.356Zm29.744.274a12.756,12.756,0,0,1-9.469-4.474l-1.719-1.9h12.569a1.639,1.639,0,0,0,0-3.278H88.247l1.7-1.877a12.771,12.771,0,0,1,9.485-4.494c7.068,0,13.716,5.977,15.773,8.011C113.148,54.656,106.517,60.63,99.426,60.63Z" style="fill:#001b01"/></svg>