<svg id="Layer_1" data-name="Layer 1" xmlns="http://www.w3.org/2000/svg" viewBox="0 0 128 128"><title>Artboard 2 copy 2</title><path d="M64,16.082A47.918,47.918,0,1,1,16.081,64,47.919,47.919,0,0,1,64,16.082" style="fill:#94c83d;fill-rule:evenodd"/><path d="M54.032,36.6a2.456,2.456,0,0,1,1.674,4.618,24.261,24.261,0,1,0,16.928.132,2.46,2.46,0,1,1,1.751-4.6A29.153,29.153,0,1,1,54.032,36.6" style="fill:#5e9641"/><path d="M61.547,32.263a2.453,2.453,0,0,1,4.906,0v10.08a2.453,2.453,0,1,1-4.906,0Z" style="fill:#5e9641"/></svg>