<svg xmlns="http://www.w3.org/2000/svg" data-name="Layer 1" viewBox="0 0 128 128"><path fill="#5e9641" fill-rule="evenodd" d="M64 13.667a36.2 36.2 0 0 1 14.5 69.36h-29A36.2 36.2 0 0 1 64 13.667"/><path fill="#94c83d" fill-rule="evenodd" d="M49.563 83.026h28.875a5.549 5.549 0 0 1 0 11.1H49.563a5.549 5.549 0 1 1 0-11.1"/><path fill="#94c83d" fill-rule="evenodd" d="M49.563 105.221h28.875a5.549 5.549 0 0 0 0-11.1H49.563a5.549 5.549 0 1 0 0 11.1"/><path fill="#5e9641" fill-rule="evenodd" d="M64 105.221h-9.112a9.112 9.112 0 1 0 18.224 0z"/><path fill="#94c83d" fill-rule="evenodd" d="M59.306 22.043c2.368 13.194-7.129 19.364-12.083 27.04C38.335 62.854 51.5 77.2 66.173 75.947 81.727 74.615 87.113 61.855 81.5 47.9c-4.513-11.2-14.469-22.478-22.194-25.857"/><path fill="#5e9641" fill-rule="evenodd" d="M59.306 22.043a22.142 22.142 0 0 1 .343 5.116 67.278 67.278 0 0 1 7.663 19.173 2.465 2.465 0 0 0 .164.8 39.913 39.913 0 0 1 .561 12.784L53.755 41.619a2.448 2.448 0 0 0-.38-.388c-1.045 1.306-2.123 2.571-3.156 3.834l16.392 21a29.762 29.762 0 0 1-4.565 8.47 2.444 2.444 0 0 0-.5 1.3 21.2 21.2 0 0 0 4.623.113c.334-.029.661-.065.985-.1 6.337-9.311 6.924-19.637 5.251-28.817l5.695-5.972a60.69 60.69 0 0 0-2.713-4.193 2.459 2.459 0 0 0-.4.341l-3.919 4.112a75.63 75.63 0 0 0-7.138-16.525 24.583 24.583 0 0 0-4.624-2.751"/></svg>