<svg xmlns="http://www.w3.org/2000/svg" data-name="Layer 1" viewBox="0 0 128 128"><path fill="#94c83d" fill-rule="evenodd" d="M93.33 16.739H49.766l-23.7 23.7v62.214a8.631 8.631 0 0 0 8.606 8.605H93.33a8.631 8.631 0 0 0 8.605-8.605V25.345a8.632 8.632 0 0 0-8.605-8.606"/><path fill="#5e9641" d="M58.7 47.28a2.459 2.459 0 0 1 3.787-3.042l3.117 2.84a2.461 2.461 0 0 1 .458 3.337L64 53.985a2.452 2.452 0 0 1-4.511-1.791 14.023 14.023 0 1 0 12.032 1.448 2.46 2.46 0 1 1 2.636-4.155A18.918 18.918 0 1 1 58.7 47.28"/><path fill="#5e9641" fill-rule="evenodd" d="M49.766 16.739 49.766 40.441 26.064 40.441 49.766 16.739z"/></svg>