<svg id="Layer_1" data-name="Layer 1" xmlns="http://www.w3.org/2000/svg" viewBox="0 0 128 128"><title>Artboard 2 copy 3</title><path d="M99.81,35.9H28.19v65.544a10.5,10.5,0,0,0,10.47,10.47H89.34a10.5,10.5,0,0,0,10.47-10.47Z" style="fill:#94c83d;fill-rule:evenodd"/><path d="M101.318,25.993H84.956a11.182,11.182,0,0,0-3.205-6.617l-.005,0,0,0-.008-.008a11.158,11.158,0,0,0-7.885-3.277H54.153a11.156,11.156,0,0,0-7.9,3.29l-.005,0a11.175,11.175,0,0,0-3.206,6.626H26.682a4.969,4.969,0,0,0-4.955,4.955h0A4.969,4.969,0,0,0,26.682,35.9h74.637a4.969,4.969,0,0,0,4.955-4.955h0A4.969,4.969,0,0,0,101.318,25.993Zm-51.591-3.15.005,0a6.237,6.237,0,0,1,4.421-1.832H73.847a6.238,6.238,0,0,1,4.422,1.832l.009.009a6.247,6.247,0,0,1,1.7,3.145H48.023a6.271,6.271,0,0,1,1.709-3.145Z" style="fill:#5e9641;fill-rule:evenodd"/><path d="M79.568,52.249V95.573a4.97,4.97,0,0,0,4.955,4.955h0a4.969,4.969,0,0,0,4.955-4.955V52.249a4.969,4.969,0,0,0-4.955-4.955h0a4.969,4.969,0,0,0-4.955,4.955" style="fill:#5e9641;fill-rule:evenodd"/><path d="M59.045,52.249V95.573A4.97,4.97,0,0,0,64,100.529h0a4.969,4.969,0,0,0,4.955-4.955V52.249A4.969,4.969,0,0,0,64,47.294h0a4.969,4.969,0,0,0-4.955,4.955" style="fill:#5e9641;fill-rule:evenodd"/><path d="M38.522,52.249V95.573a4.97,4.97,0,0,0,4.955,4.955h0a4.97,4.97,0,0,0,4.955-4.955V52.249a4.969,4.969,0,0,0-4.955-4.955h0a4.969,4.969,0,0,0-4.955,4.955" style="fill:#5e9641;fill-rule:evenodd"/></svg>