<svg id="Layer_1" data-name="Layer 1" xmlns="http://www.w3.org/2000/svg" viewBox="0 0 128 128"><title>Artboard 2 copy</title><path d="M64,33.112A30.888,30.888,0,1,1,33.112,64,30.888,30.888,0,0,1,64,33.112" style="fill:#94c83d;fill-rule:evenodd"/><path d="M16.539,39.43a2.452,2.452,0,1,1,2.443-4.251l9.829,5.674A2.452,2.452,0,1,1,26.368,45.1ZM10.608,66.453a2.453,2.453,0,1,1,0-4.906h11.35a2.453,2.453,0,0,1,0,4.906Zm8.385,26.369a2.457,2.457,0,0,1-2.463-4.252L26.359,82.9a2.457,2.457,0,0,1,2.463,4.252ZM39.43,111.461a2.452,2.452,0,1,1-4.251-2.443l5.674-9.83a2.452,2.452,0,1,1,4.251,2.443Zm27.023,5.931a2.453,2.453,0,1,1-4.906,0v-11.35a2.453,2.453,0,0,1,4.906,0Zm26.369-8.385a2.457,2.457,0,0,1-4.251,2.463L82.9,101.641a2.457,2.457,0,1,1,4.252-2.462ZM111.462,88.57a2.452,2.452,0,1,1-2.443,4.251l-9.83-5.674a2.452,2.452,0,0,1,2.443-4.252Zm5.931-27.023a2.453,2.453,0,1,1,0,4.906h-11.35a2.453,2.453,0,0,1,0-4.906Zm-8.385-26.369a2.457,2.457,0,0,1,2.463,4.251L101.641,45.1a2.457,2.457,0,1,1-2.462-4.251ZM88.57,16.539a2.452,2.452,0,1,1,4.251,2.443l-5.674,9.83A2.452,2.452,0,0,1,82.9,26.368ZM61.547,10.607a2.453,2.453,0,1,1,4.906,0v11.35a2.453,2.453,0,0,1-4.906,0ZM35.177,18.992a2.457,2.457,0,0,1,4.252-2.463L45.1,26.359a2.457,2.457,0,0,1-4.251,2.463Z" style="fill:#94c83d"/><path d="M54.505,102.834,65.529,70.946l-29.185-.073a.92.92,0,0,1-.716-1.5h0q12.088-15.058,24.2-30.1,6.05-7.518,12.1-15.04a.921.921,0,0,1,1.569.929L62.472,57.054l29.184.074a.92.92,0,0,1,.711,1.5C84.548,68.919,76.456,78.8,68.332,88.711c-4.158,5.076-8.326,10.162-12.259,15.052a.921.921,0,0,1-1.568-.929" style="fill:#5e9641"/></svg>