<svg id="Layer_1" data-name="Layer 1" xmlns="http://www.w3.org/2000/svg" viewBox="0 0 128 128"><title>Artboard 2 copy 6</title><path d="M70.593,34.209c19.764.133,17.754-25.352,17.754-25.352l-.673-.639S62.122,7.582,63.316,27.312l.509,6.734Z" style="fill:#7ece29"/><path d="M75.043,65.034V39.453H52.957V65.034a28.486,28.486,0,1,0,22.085,0Z" style="fill:#469612"/><path d="M83.289,81.276a21.536,21.536,0,1,1-38.581,0s8.992-.774,16.774,1.465C71.873,85.737,83.289,81.276,83.289,81.276Z" style="fill:#7ece29"/><path d="M62.191,34.169a1.628,1.628,0,0,0,.129.48c.008.022.008.045.018.067a1.63,1.63,0,0,0,.37.525h0c.008.008.019.01.027.017a1.5,1.5,0,0,0,.967.407c.029,0,.054.017.083.018H63.8c.013,0,.024.007.037.007s.017-.005.026-.006l6.72.162h.167c5.4,0,9.791-1.79,13.053-5.319,7.2-7.786,6.225-21.233,6.18-21.8a1.636,1.636,0,0,0-.506-1.06L88.8,7.03a1.637,1.637,0,0,0-1.088-.45l-.311,0c-2.372,0-14.551.363-21.307,7.54-3.254,3.459-4.741,7.932-4.415,13.318Zm6.294-17.805c5.381-5.716,15.417-6.416,18.268-6.5.079,2.969-.091,12.74-5.359,18.439-2.615,2.831-6.2,4.266-10.646,4.266h0V34.21l-.114-1.639L67.567,32.5l9.545-10.075a1.639,1.639,0,1,0-2.379-2.255L65.182,30.248l-.23-3.035C64.685,22.788,65.873,19.138,68.485,16.364Z" style="fill:#001b01"/><path d="M64,121.423a30.128,30.128,0,0,0,12.68-57.456V39.453a1.638,1.638,0,0,0-1.639-1.639H52.957a1.638,1.638,0,0,0-1.639,1.639V63.967A30.128,30.128,0,0,0,64,121.423Zm9.4-80.331v3.075H54.6V41.091ZM53.593,66.544a1.64,1.64,0,0,0,1-1.511V47.445H73.4V65.034a1.64,1.64,0,0,0,1,1.511,26.847,26.847,0,1,1-20.814,0Z" style="fill:#001b01"/><path d="M64,114.046A23.2,23.2,0,0,0,87.178,90.867a22.917,22.917,0,0,0-2.423-10.322,1.641,1.641,0,0,0-2.063-.8,41.406,41.406,0,0,1-13.385,2.389,26.706,26.706,0,0,1-7.373-.968c-7.971-2.293-17.208-1.535-17.368-1.522a1.637,1.637,0,0,0-1.327.9A23.19,23.19,0,0,0,64,114.046ZM45.78,82.856a51.059,51.059,0,0,1,15.249,1.465,29.967,29.967,0,0,0,8.278,1.1,44.731,44.731,0,0,0,13.108-2.1A19.688,19.688,0,0,1,83.9,90.867a19.9,19.9,0,1,1-39.8,0A19.722,19.722,0,0,1,45.78,82.856Z" style="fill:#001b01"/></svg>