<svg id="Layer_1" data-name="Layer 1" xmlns="http://www.w3.org/2000/svg" viewBox="0 0 128 128"><title>Artboard 2 copy 11</title><path d="M27.116,70.111c.219-1.634.491-3.116.807-4.451,2.95-12.466,10.329-21.453,17.7-30.436,23.144-28.2,16.965-24.094,36.745,0,7.275,8.859,14.552,17.725,17.581,29.929l.123.47a45.444,45.444,0,0,1,.809,4.488c.163,1.228.283,2.515.349,3.86a9.5,9.5,0,0,1,.071,1.139,37.305,37.305,0,0,1-74.61,0h.031l.006-.286a46.608,46.608,0,0,1,.385-4.713" style="fill:#94c83d;fill-rule:evenodd"/><path d="M64,96.478a2.463,2.463,0,0,1,0,4.925A24.864,24.864,0,0,1,39.139,76.542a2.463,2.463,0,1,1,4.925,0A19.935,19.935,0,0,0,64,96.478" style="fill:#5e9641"/></svg>