<svg xmlns="http://www.w3.org/2000/svg" data-name="Layer 1" viewBox="0 0 128 128"><path fill="#94c83d" fill-rule="evenodd" d="M64 33.112A30.888 30.888 0 1 1 33.112 64 30.888 30.888 0 0 1 64 33.112"/><path fill="#94c83d" d="M16.539 39.43a2.452 2.452 0 1 1 2.443-4.251l9.829 5.674a2.452 2.452 0 1 1-2.443 4.247zm-5.931 27.023a2.453 2.453 0 1 1 0-4.906h11.35a2.453 2.453 0 0 1 0 4.906zm8.385 26.369a2.457 2.457 0 0 1-2.463-4.252l9.829-5.67a2.457 2.457 0 0 1 2.463 4.252zm20.437 18.639a2.452 2.452 0 1 1-4.251-2.443l5.674-9.83a2.452 2.452 0 1 1 4.251 2.443zm27.023 5.931a2.453 2.453 0 1 1-4.906 0v-11.35a2.453 2.453 0 0 1 4.906 0zm26.369-8.385a2.457 2.457 0 0 1-4.251 2.463l-5.671-9.829a2.457 2.457 0 1 1 4.252-2.462zm18.64-20.437a2.452 2.452 0 1 1-2.443 4.251l-9.83-5.674a2.452 2.452 0 0 1 2.443-4.252zm5.931-27.023a2.453 2.453 0 1 1 0 4.906h-11.35a2.453 2.453 0 0 1 0-4.906zm-8.385-26.369a2.457 2.457 0 0 1 2.463 4.251l-9.83 5.671a2.457 2.457 0 1 1-2.462-4.251zM88.57 16.539a2.452 2.452 0 1 1 4.251 2.443l-5.674 9.83a2.452 2.452 0 0 1-4.247-2.444zm-27.023-5.932a2.453 2.453 0 1 1 4.906 0v11.35a2.453 2.453 0 0 1-4.906 0zm-26.37 8.385a2.457 2.457 0 0 1 4.252-2.463l5.671 9.83a2.457 2.457 0 0 1-4.251 2.463z"/><path fill="#5e9641" d="m54.505 102.834 11.024-31.888-29.185-.073a.92.92 0 0 1-.716-1.5q12.088-15.058 24.2-30.1 6.05-7.518 12.1-15.04a.921.921 0 0 1 1.569.929L62.472 57.054l29.184.074a.92.92 0 0 1 .711 1.5C84.548 68.919 76.456 78.8 68.332 88.711c-4.158 5.076-8.326 10.162-12.259 15.052a.921.921 0 0 1-1.568-.929"/></svg>