<svg xmlns="http://www.w3.org/2000/svg" data-name="Layer 1" viewBox="0 0 128 128"><path fill="#ffe749" fill-rule="evenodd" d="M37.576 101.729a6.415 6.415 0 01-6.405-6.406V36.475h65.658v58.848a6.415 6.415 0 01-6.405 6.406zM64 56.385a15.893 15.893 0 00-15.886 15.41 9.27 9.27 0 00-.014.483l.007.14a15.894 15.894 0 0031.779.343c.009-.174.014-.328.014-.482l-.007-.14A15.9 15.9 0 0064 56.385zM38.082 45.3a.554.554 0 100 1.107h8.155a.554.554 0 100-1.107z"/><path fill="#fff" fill-rule="evenodd" d="M31.171 35.367v-2.69a6.415 6.415 0 016.405-6.406h25.87v9.1zM64.554 35.367v-9.1h25.87a6.415 6.415 0 016.405 6.406v2.69z"/><path fill="#59c4c6" fill-rule="evenodd" d="M64 87.065a14.785 14.785 0 01-14.786-14.787v-.4a7.119 7.119 0 0114.228.4 8.233 8.233 0 0010.9 7.783l3.328-1.145-2.229 2.724a15.31 15.31 0 01-.99 1.094A14.689 14.689 0 0164 87.065z"/><path fill="#fff" fill-rule="evenodd" d="M71.674 79.4a7.119 7.119 0 01-7.12-7.12 8.232 8.232 0 00-10.9-7.782l-3.324 1.146 2.224-2.725c.3-.373.638-.741.99-1.095a14.787 14.787 0 0125.243 10.454v.4a7.119 7.119 0 01-7.108 6.72z"/><path fill="#983c2a" d="M37.576 103.836h52.848a8.484 8.484 0 006.008-2.5l.006-.006a8.481 8.481 0 002.5-6.007V32.676a8.482 8.482 0 00-2.5-6.007l-.006-.006a8.483 8.483 0 00-6.008-2.5H37.576a8.482 8.482 0 00-6.007 2.5l-.006.006a8.483 8.483 0 00-2.5 6.007v62.648a8.482 8.482 0 002.5 6.007l.006.006a8.483 8.483 0 006.007 2.499zm56.667-4.693a5.4 5.4 0 01-3.82 1.586H37.576a5.414 5.414 0 01-5.406-5.406V37.474h63.659v57.85a5.4 5.4 0 01-1.585 3.819zm0-70.287a5.4 5.4 0 011.586 3.82v1.691H65.554v-7.1h24.87a5.4 5.4 0 013.82 1.59zm-60.487 0a5.4 5.4 0 013.82-1.586h24.87v7.1H32.171v-1.694a5.4 5.4 0 011.586-3.819z"/><path fill="#983c2a" d="M47.791 45.854a1.554 1.554 0 00-1.553-1.554h-8.156a1.554 1.554 0 000 3.107h8.156a1.554 1.554 0 001.553-1.553zM80.888 72.15a16.879 16.879 0 00-33.73-.876 9.3 9.3 0 00-.057 1.005c0 .043.009.084.013.126a16.88 16.88 0 0033.73.88 9.311 9.311 0 00.057-1.006c-.001-.044-.01-.086-.013-.129zM64 58.492a13.786 13.786 0 0113.787 13.787c0 .232-.023.459-.035.688a6.119 6.119 0 01-12.2-.688 9.207 9.207 0 00-12.233-8.716A13.729 13.729 0 0164 58.492zm0 27.573a13.785 13.785 0 01-13.786-13.786c0-.232.023-.459.035-.688a6.118 6.118 0 0112.2.688 9.208 9.208 0 0012.232 8.716A13.73 13.73 0 0164 86.065z"/></svg>