<svg id="Layer_1" data-name="Layer 1" xmlns="http://www.w3.org/2000/svg" viewBox="0 0 128 128"><title>Artboard 3</title><path d="M64,101.656A37.654,37.654,0,1,1,90.628,90.627,37.411,37.411,0,0,1,64,101.656Zm0-67.334a29.678,29.678,0,1,0,20.985,8.692A29.484,29.484,0,0,0,64,34.322Z" style="fill:#eeaf1e;fill-rule:evenodd"/><path d="M64,92.571A28.569,28.569,0,1,1,84.2,84.2,28.384,28.384,0,0,1,64,92.571Zm0-48.339a.548.548,0,0,0-.547.547V60.473l-.656.24A3.5,3.5,0,1,0,67.289,65.2l.238-.657,7.539-.013a.547.547,0,1,0,0-1.094l-7.542.012-.241-.656A3.5,3.5,0,0,0,65.2,60.712l-.656-.24V44.779A.548.548,0,0,0,64,44.232Z" style="fill:#fff;fill-rule:evenodd"/><path d="M64,103.763A39.765,39.765,0,1,0,35.883,92.117,39.64,39.64,0,0,0,64,103.763ZM38.08,38.08A36.658,36.658,0,1,1,27.344,64,36.543,36.543,0,0,1,38.08,38.08Z" style="fill:#983c2a"/><path d="M64,94.678a30.679,30.679,0,1,0-21.692-8.986A30.583,30.583,0,0,0,64,94.678ZM44.5,44.5A27.573,27.573,0,1,1,36.429,64,27.485,27.485,0,0,1,44.5,44.5Z" style="fill:#983c2a"/><path d="M64,68.5a4.487,4.487,0,0,0,4.211-2.959l6.857-.012a1.547,1.547,0,0,0,0-3.095l-6.862.012a4.487,4.487,0,0,0-2.66-2.655V44.779a1.547,1.547,0,0,0-3.095,0V59.791A4.49,4.49,0,0,0,64,68.5Z" style="fill:#983c2a"/></svg>