<svg id="Layer_1" data-name="Layer 1" xmlns="http://www.w3.org/2000/svg" viewBox="0 0 128 128"><title>Artboard 16</title><rect x="47.736" y="39.063" width="15.717" height="25.893" style="fill:#59c4c6"/><rect x="64.547" y="39.063" width="15.716" height="25.893" style="fill:#59c4c6"/><rect x="64.547" y="66.063" width="15.716" height="25.893" style="fill:#59c4c6"/><rect x="47.736" y="66.063" width="15.716" height="25.893" style="fill:#59c4c6"/><path d="M42.861,96.807V39.063H46.63V91.4l.564,1.353a1.429,1.429,0,0,0,.9.315H79.9A1.487,1.487,0,0,0,81.37,91.6V39.063h3.769V96.807Z" style="fill:#ffe749;fill-rule:evenodd"/><path d="M40.434,37.956A3.74,3.74,0,0,1,36.7,34.22V26.313H91.3V34.22a3.74,3.74,0,0,1-3.736,3.736Z" style="fill:#eeaf1e;fill-rule:evenodd"/><path d="M28.91,101.687a1.886,1.886,0,0,1,0-3.772H99.09a1.886,1.886,0,0,1,0,3.772Z" style="fill:#eeaf1e;fill-rule:evenodd"/><path d="M99.09,95.807H87.246V40.063h.32a5.829,5.829,0,0,0,4.122-1.716l0,0,0,0v0a5.829,5.829,0,0,0,1.714-4.121V25.76a1.554,1.554,0,0,0-1.553-1.553H36.144A1.554,1.554,0,0,0,34.59,25.76v8.46a5.831,5.831,0,0,0,1.716,4.122l0,0,0,0,0,0a5.83,5.83,0,0,0,4.121,1.714h.321V95.807H28.91A4,4,0,0,0,24.917,99.8h0a4,4,0,0,0,3.993,3.993H99.09a4,4,0,0,0,3.993-3.993h0a4,4,0,0,0-3.993-3.993ZM38.5,36.157l-.006-.006a2.726,2.726,0,0,1-.8-1.932V27.314H90.3v6.906a2.726,2.726,0,0,1-.8,1.932l-.006.006a2.725,2.725,0,0,1-1.932.8H40.434A2.726,2.726,0,0,1,38.5,36.157Zm10.234,3.906H62.453V63.956H48.737Zm0,27H62.453V90.956H48.737Zm16.811,0H79.263V90.956H65.547Zm13.716-3.107H65.547V40.063H79.263Zm-35.4-23.893H45.63V91.6a2.456,2.456,0,0,0,.724,1.738l0,0,0,0a2.463,2.463,0,0,0,1.744.724H79.9a2.461,2.461,0,0,0,1.738-.724l.006-.006,0,0A2.459,2.459,0,0,0,82.37,91.6V40.063h1.769V95.807H43.861ZM99.976,99.8a.892.892,0,0,1-.886.886H28.91a.891.891,0,0,1-.886-.886h0a.892.892,0,0,1,.886-.886H99.09a.892.892,0,0,1,.886.886Z" style="fill:#983c2a"/></svg>