<svg xmlns="http://www.w3.org/2000/svg" data-name="Layer 1" viewBox="0 0 128 128"><path fill="#ffe749" fill-rule="evenodd" d="M34.042 95.322a7.582 7.582 0 0 1-5.461-2.279 9.843 9.843 0 0 1-2.729-5.959l-2.237-21.538h80.771l-2.237 21.538a9.843 9.843 0 0 1-2.729 5.959 7.58 7.58 0 0 1-5.461 2.279z"/><path fill="#eeaf1e" fill-rule="evenodd" d="M20.348 64.438a3.582 3.582 0 0 1 0-7.164h87.3a3.582 3.582 0 0 1 0 7.164z"/><path fill="#59c4c6" fill-rule="evenodd" d="M85.831 38.595 79.71 32.4l-.536-1.215 7.534-5.113a2 2 0 0 1 1.1-.378h.415l4.443 4.445-.407 1.339L87 39.031z"/><path fill="#983c2a" d="M107.652 55.168h-1.632v-30.2a1.554 1.554 0 0 0-1.554-1.554h-8.982a1.546 1.546 0 0 0-.824.237l-3.56 1.922-1.008-1.022a3.136 3.136 0 0 0-2.269-.95 4.092 4.092 0 0 0-2.288.74L78.6 29.05a2.86 2.86 0 0 0-.4.326 2.981 2.981 0 0 0-.864 2.14 3.6 3.6 0 0 0 .617 2 3.5 3.5 0 0 0 .4.486l5.793 5.869.006.006a3.456 3.456 0 0 0 .475.4 3.612 3.612 0 0 0 2 .643 2.968 2.968 0 0 0 2.147-.84 2.817 2.817 0 0 0 .333-.392l4.725-6.774c.027-.033.053-.066.077-.1a4.1 4.1 0 0 0 .764-2.288 3.122 3.122 0 0 0-.917-2.269l-.375-.38 2.5-1.346h7.044v28.637H20.348a5.7 5.7 0 0 0-5.688 5.689 5.7 5.7 0 0 0 5.688 5.689h1.261L23.763 87.3a11.978 11.978 0 0 0 3.328 7.237 9.687 9.687 0 0 0 6.951 2.9 2.023 2.023 0 1 1 0 4.045 1.554 1.554 0 1 0 0 3.107 5.126 5.126 0 0 0 4.712-7.152h50.492a5.11 5.11 0 0 0 .993 5.548 1.1 1.1 0 0 0 .093.1 5.115 5.115 0 0 0 3.627 1.5 1.554 1.554 0 0 0 0-3.107 2.017 2.017 0 0 1-1.43-.592l-.064-.06a2.025 2.025 0 0 1 1.494-3.392 9.687 9.687 0 0 0 6.951-2.9 11.98 11.98 0 0 0 3.328-7.237l2.155-20.75h1.261a5.7 5.7 0 0 0 5.689-5.689 5.7 5.7 0 0 0-5.689-5.689zM86.558 37.915l.023-.025zm4.792-6.878a2.406 2.406 0 0 0-.065.1l-4.663 6.684a.478.478 0 0 1-.233-.086l-.047-.035-5.791-5.867-.006-.006a.335.335 0 0 1-.037-.043.48.48 0 0 1-.082-.234l6.844-4.65a1.028 1.028 0 0 1 .54-.2.1.1 0 0 1 .073.028l3.653 3.7a.119.119 0 0 1 .031.085 1.036 1.036 0 0 1-.217.524zm9.8 55.943a8.859 8.859 0 0 1-2.442 5.355 6.629 6.629 0 0 1-4.754 1.986H34.042a6.629 6.629 0 0 1-4.754-1.986 8.858 8.858 0 0 1-2.442-5.355l-2.122-20.434h78.552zm9.08-26.123a2.593 2.593 0 0 1-2.582 2.582h-87.3a2.592 2.592 0 0 1-2.581-2.582 2.592 2.592 0 0 1 2.581-2.582h87.3a2.593 2.593 0 0 1 2.582 2.582z"/><path fill="#983c2a" d="m76.75 39.2-3.591 3.545a1.549 1.549 0 0 0 2.172 2.209l3.592-3.554a1.549 1.549 0 0 0-2.173-2.2zM78.709 48.858a1.548 1.548 0 0 0 2.051-.765l1.734-3.793a1.548 1.548 0 1 0-2.815-1.286l-1.734 3.791a1.547 1.547 0 0 0 .764 2.053zM75.939 36.383a1.551 1.551 0 0 0-2.045-.795l-3.813 1.685a1.551 1.551 0 0 0 1.25 2.84l3.813-1.685a1.551 1.551 0 0 0 .795-2.045z"/></svg>