<svg xmlns="http://www.w3.org/2000/svg" data-name="Layer 1" viewBox="0 0 128 128"><path fill="#ffe749" fill-rule="evenodd" d="M39.817 70.12l6.262-36.55a9.92 9.92 0 012.583-5.336 6.379 6.379 0 014.592-1.921h21.492a6.361 6.361 0 014.579 1.916 10.016 10.016 0 012.6 5.343l6.419 36.548z"/><path fill="#fff" fill-rule="evenodd" d="M39.163 74.6a1.684 1.684 0 010-3.368H89a1.684 1.684 0 010 3.368z"/><path fill="#eeaf1e" fill-rule="evenodd" d="M47.707 97.211l.465-1.33a5.8 5.8 0 011.372-2.181 5.7 5.7 0 014.06-1.688H74.4a5.708 5.708 0 014.057 1.688 5.8 5.8 0 011.371 2.177l.465 1.33zM38.373 101.687a1.684 1.684 0 010-3.368h51.253a1.684 1.684 0 010 3.368z"/><path fill="#983c2a" d="M92.3 97.327a3.783 3.783 0 00-2.67-1.11H82.1a7.882 7.882 0 00-7.7-6.3h-8.76V76.7H89a3.782 3.782 0 002.672-1.113 3.781 3.781 0 001.11-2.67 3.782 3.782 0 00-1.112-2.672 3.826 3.826 0 00-1.321-.848l-6.356-36.186a12.109 12.109 0 00-3.179-6.471 8.391 8.391 0 00-6.068-2.534H53.254a8.413 8.413 0 00-6.081 2.539 12.02 12.02 0 00-3.167 6.472l-6.2 36.166a3.822 3.822 0 00-1.32.849 3.783 3.783 0 00-1.11 2.67 3.782 3.782 0 001.113 2.673 3.783 3.783 0 002.67 1.11h23.37v13.2H53.6a7.882 7.882 0 00-7.7 6.3h-7.53a3.781 3.781 0 00-2.67 1.139 3.783 3.783 0 00-1.11 2.67 3.781 3.781 0 001.112 2.672 3.781 3.781 0 002.67 1.11h51.254a3.782 3.782 0 002.672-1.112 3.782 3.782 0 001.11-2.67 3.782 3.782 0 00-1.108-2.665zM47.065 33.739a8.907 8.907 0 012.3-4.8 5.379 5.379 0 013.884-1.628h21.497a5.358 5.358 0 013.872 1.623 9 9 0 012.317 4.808l6.217 35.378H41zM38.681 73.4l-.006-.006a.679.679 0 01-.2-.482.678.678 0 01.2-.482l.006-.006a.68.68 0 01.482-.2H89a.68.68 0 01.482.2l.006.006a.68.68 0 01.2.482.68.68 0 01-.2.482l-.006.006a.678.678 0 01-.482.2H39.163a.679.679 0 01-.482-.2zM50.25 94.411a4.737 4.737 0 013.354-1.4H74.4a4.779 4.779 0 014.487 3.2h-29.77a4.779 4.779 0 011.133-1.8zM90.31 100a.678.678 0 01-.2.482l-.006.006a.68.68 0 01-.482.2H38.374a.678.678 0 01-.482-.2l-.006-.006a.678.678 0 01-.2-.482.679.679 0 01.2-.482l.006-.006a.678.678 0 01.482-.2h51.252a.679.679 0 01.482.2l.006.006a.679.679 0 01.2.482z"/></svg>