<svg id="Layer_1" data-name="Layer 1" xmlns="http://www.w3.org/2000/svg" viewBox="0 0 128 128"><title>Artboard 14</title><path d="M35.8,76.929l.059-1.057A28.209,28.209,0,0,1,57.1,50.148l-.018-.04h-.2s13.146-1.3,13-.983c4.893,1.266,10.475,4.847,14.055,8.428a28.122,28.122,0,0,1,8.209,18.319l.06,1.057ZM66.188,46.356V45.322H61.975v1.023Z" style="fill:#fff;fill-rule:evenodd"/><path d="M67.081,48.354A28.75,28.75,0,0,0,64,48.19c-.974,0-1.958.049-2.926.145l-1.1.109V43.322h8.213v5.151Z" style="fill:#e5e5e5;fill-rule:evenodd"/><path d="M64,88.19a10.71,10.71,0,0,1-10.572-9l-.187-1.159H74.759L74.572,79.2A10.71,10.71,0,0,1,64,88.19Z" style="fill:#ffe749;fill-rule:evenodd"/><path d="M70.3,47.85V44.26a3.036,3.036,0,0,0-.89-2.142l0,0,0,0,0,0a3.039,3.039,0,0,0-2.145-.893H65.622l-.075-15.461a1.547,1.547,0,0,0-3.095.012l.075,15.449H60.913a3.037,3.037,0,0,0-2.142.89l0,0,0,0,0,0a3.038,3.038,0,0,0-.893,2.145v3.553a30.306,30.306,0,0,0-24.16,29.67,1.554,1.554,0,0,0,1.554,1.553H51.288a12.805,12.805,0,0,0,25.425,0H92.739a1.554,1.554,0,0,0,1.553-1.553,30.3,30.3,0,0,0-24-29.632Zm-9.32-3.528h6.213v3.036c-.1-.011-.208-.019-.311-.028-.124-.012-.249-.025-.372-.035-.068-.006-.137,0-.205-.009-.76-.057-1.525-.1-2.3-.1-.748,0-1.487.037-2.221.09-.065,0-.13,0-.2.008-.157.012-.316.028-.475.043l-.134.01Zm9.89,40.026a9.71,9.71,0,0,1-16.45-5.312h19.17A9.687,9.687,0,0,1,70.865,84.348Zm4.4-8.419h-38.4A27.19,27.19,0,0,1,59.794,50.622c.577-.089,1.186-.16,1.818-.214.153-.013.307-.024.46-.035.63-.045,1.269-.076,1.928-.076.685,0,1.355.033,2.016.082.14.01.281.02.421.032.626.056,1.233.128,1.814.219a27.187,27.187,0,0,1,22.89,25.3Z" style="fill:#983c2a"/><path d="M64,92.343a1.548,1.548,0,0,0-1.547,1.548v8.35a1.547,1.547,0,1,0,3.095,0V93.89A1.547,1.547,0,0,0,64,92.343Z" style="fill:#983c2a"/><path d="M73.545,90.921a1.547,1.547,0,0,0-2.682,1.541l4.175,7.231a1.546,1.546,0,0,0,2.682-1.541Z" style="fill:#983c2a"/><path d="M86.217,88.52l-7.231-4.175a1.55,1.55,0,1,0-1.554,2.682L84.664,91.2a1.55,1.55,0,0,0,1.554-2.682Z" style="fill:#983c2a"/><path d="M51.131,84.916a1.547,1.547,0,0,0-2.112-.57L41.788,88.52A1.547,1.547,0,1,0,43.33,91.2l7.231-4.175A1.547,1.547,0,0,0,51.131,84.916Z" style="fill:#983c2a"/><path d="M56.573,90.351a1.55,1.55,0,0,0-2.118.564L50.28,98.146A1.55,1.55,0,1,0,52.962,99.7l4.175-7.231A1.55,1.55,0,0,0,56.573,90.351Z" style="fill:#983c2a"/></svg>