<svg id="Layer_1" data-name="Layer 1" xmlns="http://www.w3.org/2000/svg" viewBox="0 0 128 128"><title>Artboard 9</title><path d="M64.553,66.361v18H111.3v-18S64.374,66.4,64.553,66.361Zm17.181,8.376,12.389.076a.547.547,0,0,1,0,1.095l-12.39-.076a.547.547,0,0,1,0-1.095Z" style="fill:#eeaf1e;fill-rule:evenodd"/><polygon points="23.748 102.433 23.748 93.825 29.662 93.825 27.1 102.433 23.748 102.433" style="fill:#eeaf1e;fill-rule:evenodd"/><polygon points="100.9 102.433 98.338 93.825 104.251 93.825 104.251 102.433 100.9 102.433" style="fill:#eeaf1e;fill-rule:evenodd"/><path d="M17.459,92.719a3.6,3.6,0,0,1-2.56-1.065,3.625,3.625,0,0,1,2.56-6.187h93.082a3.626,3.626,0,0,1,0,7.252Z" style="fill:#eeaf1e;fill-rule:evenodd"/><path d="M63.743,65.289a1.034,1.034,0,0,0-.263-.034H59.815l-.229-.13a8.947,8.947,0,0,1-4.547-7.8,8.876,8.876,0,0,1,.858-3.84,9.027,9.027,0,0,1,2.435-3.1.553.553,0,0,0,.17-.612l-2.284-8.237H71.78L69.489,49.8a.547.547,0,0,0,.181.57,9.122,9.122,0,0,1,2.433,3.1,9.007,9.007,0,0,1-.459,8.528,9,9,0,0,1-3.229,3.117l-.229.13H64.52a1.05,1.05,0,0,0-.265.034L64,65.356Z" style="fill:#59c4c6;fill-rule:evenodd"/><path d="M16.7,84.359v-18H63.446v18ZM33.88,74.737a.547.547,0,0,0-.39.933.543.543,0,0,0,.386.162l12.39.076a.547.547,0,0,0,0-1.095Z" style="fill:#eeaf1e;fill-rule:evenodd"/><path d="M64,38.4a2.3,2.3,0,0,1-2.234-1.751.545.545,0,0,0-.531-.423.573.573,0,0,0-.128.016,2.431,2.431,0,0,1-.678.1,2.3,2.3,0,0,1-1.583-3.962.55.55,0,0,0,.019-.776,2.329,2.329,0,0,1-.71-1.355,2.3,2.3,0,0,1,.283-1.477l.058-.1a2.292,2.292,0,0,1,1.928-1.048,2.325,2.325,0,0,1,.656.095.545.545,0,0,0,.154.022.552.552,0,0,0,.526-.395l.021-.091a2.336,2.336,0,0,1,.8-1.2,2.3,2.3,0,0,1,3.652,1.263.544.544,0,0,0,.53.423.573.573,0,0,0,.128-.016,2.429,2.429,0,0,1,.68-.1,2.3,2.3,0,0,1,1.581,3.963.55.55,0,0,0-.018.775,2.3,2.3,0,0,1,.427,2.832l-.057.1a2.269,2.269,0,0,1-1.075.886,2.319,2.319,0,0,1-1.51.068.542.542,0,0,0-.153-.022.552.552,0,0,0-.527.395l-.021.092a2.339,2.339,0,0,1-.8,1.2A2.3,2.3,0,0,1,64,38.4Zm0-7.681a1.262,1.262,0,1,0,1.262,1.262A1.263,1.263,0,0,0,64,30.724Z" style="fill:#ffe749;fill-rule:evenodd"/><path d="M46.272,73.813l-12.387-.076a1.547,1.547,0,1,0-.012,3.095l12.387.076a1.547,1.547,0,0,0,.012-3.095Z" style="fill:#983c2a"/><path d="M81.727,76.832l12.387.076a1.547,1.547,0,1,0,.012-3.095L81.74,73.738a1.547,1.547,0,1,0-.012,3.095Z" style="fill:#983c2a"/><path d="M114.493,84.953a5.8,5.8,0,0,0-1.085-.795V66.327a2.067,2.067,0,0,0-.608-1.459l0,0,0,0-.007-.006a2.068,2.068,0,0,0-1.452-.6H72.612a11.05,11.05,0,0,0-.845-14.817l2.2-7.928a1.538,1.538,0,0,0,.095-.535A1.554,1.554,0,0,0,72.5,39.421H66.875a4.39,4.39,0,0,0,.852-.981,4.4,4.4,0,0,0,3.587-2.089c.023-.033.045-.068.065-.1a4.39,4.39,0,0,0,.076-4.263,4.418,4.418,0,0,0,.47-1.439,4.4,4.4,0,0,0-2.724-4.7,4.419,4.419,0,0,0-1.475-.312,4.388,4.388,0,0,0-7.453,0,4.4,4.4,0,0,0-3.587,2.089c-.023.033-.045.068-.066.1a4.391,4.391,0,0,0-.076,4.263,4.423,4.423,0,0,0-.47,1.439,4.4,4.4,0,0,0,2.724,4.7,4.418,4.418,0,0,0,1.475.312,4.38,4.38,0,0,0,.852.981H55.5v0A1.551,1.551,0,0,0,54,41.388l2.229,8.05a11.008,11.008,0,0,0-.847,14.817H16.665a2.065,2.065,0,0,0-1.459.608l-.006.006a2.065,2.065,0,0,0-.608,1.459V84.163a5.8,5.8,0,0,0-1.178.879l0,0,0,0,0,0a5.718,5.718,0,0,0-1.679,4.04h0a5.719,5.719,0,0,0,1.686,4.047l0,0a5.718,5.718,0,0,0,4.05,1.683h4.182v8.161a1.554,1.554,0,0,0,1.554,1.553H27.51v0A1.552,1.552,0,0,0,29,103.429l2.561-8.6H96.442l2.562,8.6a1.552,1.552,0,0,0,1.486,1.108v0H104.8a1.554,1.554,0,0,0,1.553-1.553V94.825h4.183a5.746,5.746,0,0,0,5.733-5.733h0a5.717,5.717,0,0,0-1.683-4.05C114.559,85.011,114.526,84.981,114.493,84.953ZM60.8,35.294v0a1.312,1.312,0,0,1-.857-.039A1.279,1.279,0,0,1,59.3,34.7a1.307,1.307,0,0,1,.231-1.593,1.549,1.549,0,0,0,.055-2.191l-.057-.057a1.3,1.3,0,0,1-.229-1.584l.034-.061a1.28,1.28,0,0,1,.6-.5,1.31,1.31,0,0,1,.857-.039,1.55,1.55,0,0,0,1.923-1.05c.013-.045.024-.09.033-.135a1.3,1.3,0,0,1,2.509.056A1.546,1.546,0,0,0,67.125,28.7l.078-.021v0a1.31,1.31,0,0,1,.857.039,1.281,1.281,0,0,1,.636.551,1.306,1.306,0,0,1-.231,1.593,1.55,1.55,0,0,0-.055,2.191l.057.057a1.3,1.3,0,0,1,.229,1.584l-.033.06a1.278,1.278,0,0,1-.6.5,1.311,1.311,0,0,1-.857.039,1.549,1.549,0,0,0-1.923,1.05c-.013.045-.025.09-.033.135a1.3,1.3,0,0,1-2.509-.056,1.546,1.546,0,0,0-1.863-1.147ZM110.3,83.36H65.553v-16H110.3ZM57.209,61.484a7.951,7.951,0,0,1,1.757-10.332,1.554,1.554,0,0,0,.479-1.723l-1.911-6.9H70.466l-1.941,7.01a1.549,1.549,0,0,0,.512,1.612l0,0a7.963,7.963,0,0,1-1.113,13.1h-3.4a2.023,2.023,0,0,0-.475.061c-.015,0-.031,0-.046.006s-.03,0-.044-.006a2.023,2.023,0,0,0-.475-.062h-3.4A7.992,7.992,0,0,1,57.209,61.484ZM17.7,67.362H62.446v16H17.7Zm8.654,34.071H24.748V94.825h3.573Zm76.9,0h-1.606l-1.967-6.607h3.572Zm9.915-12.34a2.637,2.637,0,0,1-2.625,2.626H17.459a2.619,2.619,0,0,1-1.853-.772l0,0,0,0a2.613,2.613,0,0,1-.766-1.853h0a2.613,2.613,0,0,1,.766-1.853l.006-.006a2.614,2.614,0,0,1,1.853-.766h93.082a2.614,2.614,0,0,1,1.791.706c.02.022.041.045.063.067a2.617,2.617,0,0,1,.772,1.853Z" style="fill:#983c2a"/><circle cx="64" cy="31.986" r="2.262" style="fill:#983c2a"/></svg>