<svg xmlns="http://www.w3.org/2000/svg" data-name="Layer 1" viewBox="0 0 128 128"><path fill="#94c83d" fill-rule="evenodd" d="m20.238 101.815.131-1.116a14.208 14.208 0 0 1 28.22 0l.131 1.116zM49.76 101.815l.131-1.116a14.208 14.208 0 0 1 28.219 0l.131 1.116zM79.28 101.815l.131-1.116a14.208 14.208 0 0 1 28.22 0l.131 1.116z"/><path fill="#ffe749" fill-rule="evenodd" d="m49.786 66.691 3.577-3.576a.553.553 0 1 0-.782-.782l-2.795 2.793v-8.238a.547.547 0 0 0-1.095 0v9.437a1.385 1.385 0 0 0 0 .187v4.73l-2.8-2.8a.548.548 0 0 0-.774 0 .548.548 0 0 0-.16.389.542.542 0 0 0 .162.388l3.572 3.572v4.53l-1.147-.171a11.548 11.548 0 0 1-9.81-11.38V48a11.505 11.505 0 0 1 23.011 0v17.773a11.553 11.553 0 0 1-9.812 11.38l-1.147.172zM79.308 61.416V55.4l3.571-3.569a.552.552 0 0 0 0-.779.548.548 0 0 0-.776 0l-2.8 2.8v-7.276a.547.547 0 1 0-1.095 0v13.378l-2.795-2.795a.553.553 0 1 0-.782.782l3.577 3.577v5.5l-1.148-.172a11.552 11.552 0 0 1-9.81-11.381V37.689a11.505 11.505 0 0 1 23.011 0v17.772a11.552 11.552 0 0 1-9.81 11.381l-1.148.172z"/><path fill="#983c2a" d="M93.521 86.055a16.121 16.121 0 0 0-13.214 6.773v-23.85a13.643 13.643 0 0 0 12.066-13.517V37.69a13.612 13.612 0 0 0-27.225 0v17.771a13.641 13.641 0 0 0 12.065 13.517v23.849a16.225 16.225 0 0 0-26.426 0V79.291a13.643 13.643 0 0 0 12.065-13.517V48a13.612 13.612 0 0 0-27.225 0v17.774a13.642 13.642 0 0 0 12.065 13.517v13.536a16.3 16.3 0 0 0-29.527 9.542 1.554 1.554 0 0 0 1.553 1.554h88.563a1.554 1.554 0 0 0 1.554-1.554 16.315 16.315 0 0 0-16.314-16.314zM71.342 62.88a10.474 10.474 0 0 1-3.087-7.419V37.69a10.505 10.505 0 0 1 21.011 0v17.771a10.52 10.52 0 0 1-8.958 10.377v-10.02l3.278-3.277a1.549 1.549 0 1 0-2.185-2.2l-1.094 1.093v-4.858a1.547 1.547 0 0 0-3.095 0V57.54l-1.088-1.087a1.553 1.553 0 1 0-2.2 2.2l3.284 3.283v3.907a10.5 10.5 0 0 1-5.866-2.963zM41.821 73.192a10.475 10.475 0 0 1-3.087-7.419V48a10.505 10.505 0 0 1 21.011 0v17.774a10.521 10.521 0 0 1-8.958 10.377v-9.046l3.284-3.283a1.553 1.553 0 0 0-2.2-2.2l-1.087 1.087v-5.821a1.547 1.547 0 0 0-3.095 0v11.94L46.6 67.734a1.549 1.549 0 1 0-2.185 2.2l3.278 3.277v2.943a10.5 10.5 0 0 1-5.872-2.962zm-7.342 27.623H21.362a13.209 13.209 0 0 1 26.233 0zm29.521 0H50.883a13.208 13.208 0 0 1 26.233 0zm29.521 0H80.4a13.209 13.209 0 0 1 26.233 0z"/></svg>