<svg xmlns="http://www.w3.org/2000/svg" data-name="Layer 1" viewBox="0 0 128 128"><path fill="#59c4c6" d="M47.736 39.063H63.452999999999996V64.956H47.736z"/><path fill="#59c4c6" d="M64.547 39.063H80.26299999999999V64.956H64.547z"/><path fill="#59c4c6" d="M64.547 66.063H80.26299999999999V91.956H64.547z"/><path fill="#59c4c6" d="M47.736 66.063H63.452V91.956H47.736z"/><path fill="#ffe749" fill-rule="evenodd" d="M42.861 96.807V39.063h3.769V91.4l.564 1.353a1.429 1.429 0 0 0 .9.315H79.9a1.487 1.487 0 0 0 1.47-1.468V39.063h3.769v57.744z"/><path fill="#eeaf1e" fill-rule="evenodd" d="M40.434 37.956A3.74 3.74 0 0 1 36.7 34.22v-7.907h54.6v7.907a3.74 3.74 0 0 1-3.736 3.736zM28.91 101.687a1.886 1.886 0 0 1 0-3.772h70.18a1.886 1.886 0 0 1 0 3.772z"/><path fill="#983c2a" d="M99.09 95.807H87.246V40.063h.32a5.829 5.829 0 0 0 4.122-1.716 5.829 5.829 0 0 0 1.714-4.121V25.76a1.554 1.554 0 0 0-1.553-1.553H36.144a1.554 1.554 0 0 0-1.554 1.553v8.46a5.831 5.831 0 0 0 1.716 4.122 5.83 5.83 0 0 0 4.121 1.714h.321v55.751H28.91a4 4 0 0 0-3.993 3.993 4 4 0 0 0 3.993 3.993h70.18a4 4 0 0 0 3.993-3.993 4 4 0 0 0-3.993-3.993zM38.5 36.157l-.006-.006a2.726 2.726 0 0 1-.8-1.932v-6.905H90.3v6.906a2.726 2.726 0 0 1-.8 1.932l-.006.006a2.725 2.725 0 0 1-1.932.8H40.434a2.726 2.726 0 0 1-1.934-.801zm10.234 3.906h13.719v23.893H48.737zm0 27h13.719v23.893H48.737zm16.811 0h13.718v23.893H65.547zm13.716-3.107H65.547V40.063h13.716zm-35.4-23.893h1.769V91.6a2.456 2.456 0 0 0 .724 1.738 2.463 2.463 0 0 0 1.744.724H79.9a2.461 2.461 0 0 0 1.738-.724l.006-.006a2.459 2.459 0 0 0 .726-1.732V40.063h1.769v55.744H43.861zM99.976 99.8a.892.892 0 0 1-.886.886H28.91a.891.891 0 0 1-.886-.886.892.892 0 0 1 .886-.886h70.18a.892.892 0 0 1 .886.886z"/></svg>