<svg xmlns="http://www.w3.org/2000/svg" data-name="Layer 1" viewBox="0 0 128 128"><path fill="#fff" d="M20.267 26.271h19.735v8.93H20.267zM41.109 26.271h22.338v8.93H41.109zM64.554 26.271h22.338v8.93H64.554zM87.999 26.271h19.735v8.93H87.999z"/><path fill="#eeaf1e" fill-rule="evenodd" d="M68.522 101.729V43.595h39.211v58.134zm6.215-53.346a.813.813 0 00-.812.812v8.966a.783.783 0 00.008.113l.021.144-.021.144a.816.816 0 00-.008.115v8.967a.783.783 0 00.008.113l.021.144-.021.144a.816.816 0 00-.008.115v8.967a.783.783 0 00.008.113l.021.144-.021.144a.8.8 0 00-.008.114v8.967a.809.809 0 00.008.115l.021.144-.021.144a.8.8 0 00-.008.114v8.964a.813.813 0 00.812.811h26.781a.812.812 0 00.812-.811v-8.967a.879.879 0 00-.008-.12l-.02-.138.019-.138a.82.82 0 00.009-.121v-8.965a.879.879 0 00-.008-.12l-.02-.138.02-.138a.872.872 0 00.008-.119v-8.967a.827.827 0 00-.009-.121l-.021-.138.02-.138a.872.872 0 00.008-.119v-8.967a.827.827 0 00-.009-.121l-.019-.138.02-.138a.872.872 0 00.008-.119v-8.966a.812.812 0 00-.812-.812z"/><path fill="#fff" d="M75.033 49.49h26.19v8.375h-26.19z"/><path fill="#e5e5e5" d="M75.033 58.972h26.19v8.375h-26.19z"/><path fill="#fff" d="M75.033 68.454h26.19v8.375h-26.19z"/><path fill="#e5e5e5" d="M75.033 77.937h26.19v8.375h-26.19z"/><path fill="#fff" d="M75.033 87.418h26.19v8.375h-26.19z"/><path fill="#eeaf1e" fill-rule="evenodd" d="M20.267 101.729V43.595h39.212v58.134zm6.215-53.346a.813.813 0 00-.812.812v8.966a.783.783 0 00.008.113l.021.144-.021.144a.816.816 0 00-.008.115v8.967a.783.783 0 00.008.113l.021.144-.021.144a.816.816 0 00-.008.115v8.967a.783.783 0 00.008.113l.021.144-.021.144a.8.8 0 00-.008.114v8.967a.809.809 0 00.008.115l.021.144-.021.144a.8.8 0 00-.008.114v8.964a.813.813 0 00.812.811h26.781a.812.812 0 00.811-.811V77.641a.879.879 0 00-.008-.12l-.02-.138.02-.138a.872.872 0 00.008-.119v-8.967a.827.827 0 00-.009-.121l-.019-.138.02-.138a.872.872 0 00.008-.119v-8.967a.827.827 0 00-.009-.121l-.019-.138.02-.138a.872.872 0 00.008-.119v-8.966a.812.812 0 00-.811-.812z"/><path fill="#fff" d="M26.777 87.418h26.19v8.375h-26.19z"/><path fill="#e5e5e5" d="M26.777 77.937h26.19v8.375h-26.19z"/><path fill="#fff" d="M26.777 68.454h26.19v8.375h-26.19z"/><path fill="#e5e5e5" d="M26.777 58.972h26.19v8.375h-26.19z"/><path fill="#fff" d="M26.777 49.49h26.19v8.375h-26.19z"/><path fill="#983c2a" d="M26.481 97.9h26.782a1.813 1.813 0 001.811-1.811v-46.9a1.813 1.813 0 00-1.811-1.812H26.481a1.813 1.813 0 00-1.811 1.812v46.9a1.813 1.813 0 001.811 1.811zm1.3-18.964h24.19v6.375H27.777zm24.19-3.107H27.777v-6.375h24.19zm0 18.964H27.777v-6.374h24.19zm0-28.447H27.777v-6.374h24.19zM27.777 50.49h24.19v6.375h-24.19z"/><path fill="#983c2a" d="M58.936 41.488H20.809a2.637 2.637 0 00-1.866.777l-.006.006a2.64 2.64 0 00-.777 1.866v57.05a2.64 2.64 0 00.777 1.866l.006.006a2.637 2.637 0 001.866.777h38.127a2.638 2.638 0 001.866-.777l.006-.006a2.638 2.638 0 00.777-1.866v-57.05a2.638 2.638 0 00-.777-1.866l-.006-.006a2.638 2.638 0 00-1.866-.777zm-.458 59.241H21.266V44.595h37.213zM109.841 25.99a1.821 1.821 0 00-.535-1.291 1.822 1.822 0 00-1.288-.539H19.986a1.816 1.816 0 00-1.286.54l-.006.006a1.816 1.816 0 00-.536 1.285v9.491a1.812 1.812 0 00.356 1.076 1.577 1.577 0 00.18.215 1.821 1.821 0 001.291.535h88.029a1.828 1.828 0 001.826-1.826zm-44.287 1.281h20.338V34.2H65.554zM62.447 34.2H42.109v-6.93h20.338zm-41.18-6.93H39v6.93H21.267zm85.467 6.93H89v-6.93h17.735zM74.737 97.9h26.782a1.813 1.813 0 001.811-1.811v-46.9a1.813 1.813 0 00-1.811-1.812H74.737a1.813 1.813 0 00-1.811 1.812v46.9a1.813 1.813 0 001.811 1.811zm1.3-18.964h24.19v6.375H76.033zm24.19-3.107H76.033v-6.375h24.19zm0 18.964H76.033v-6.374h24.19zm0-28.447H76.033v-6.374h24.19zM76.033 50.49h24.19v6.375h-24.19z"/><path fill="#983c2a" d="M109.058 42.265a2.638 2.638 0 00-1.867-.777H69.064a2.638 2.638 0 00-1.867.777l-.006.006a2.638 2.638 0 00-.777 1.866v57.05a2.638 2.638 0 00.777 1.866l.006.006a2.638 2.638 0 001.867.777h38.127a2.638 2.638 0 001.867-.777l.006-.006a2.638 2.638 0 00.777-1.866v-57.05a2.637 2.637 0 00-.777-1.866zm-2.324 58.464H69.522V44.595h37.212z"/></svg>