<svg id="Layer_1" data-name="Layer 1" xmlns="http://www.w3.org/2000/svg" viewBox="0 0 128 128"><title>Artboard 5</title><rect x="20.267" y="26.271" width="19.735" height="8.93" style="fill:#fff"/><rect x="41.109" y="26.271" width="22.338" height="8.93" style="fill:#fff"/><rect x="64.554" y="26.271" width="22.338" height="8.93" style="fill:#fff"/><rect x="87.999" y="26.271" width="19.735" height="8.93" style="fill:#fff"/><path d="M68.522,101.729V43.595h39.211v58.134Zm6.215-53.346a.813.813,0,0,0-.812.812v8.966a.783.783,0,0,0,.008.113l.021.144-.021.144a.816.816,0,0,0-.008.115v8.967a.783.783,0,0,0,.008.113l.021.144-.021.144a.816.816,0,0,0-.008.115v8.967a.783.783,0,0,0,.008.113l.021.144-.021.144a.8.8,0,0,0-.008.114v8.967a.809.809,0,0,0,.008.115l.021.144-.021.144a.8.8,0,0,0-.008.114V96.09a.813.813,0,0,0,.812.811h26.781a.812.812,0,0,0,.812-.811V87.123a.879.879,0,0,0-.008-.12l-.02-.138.019-.138a.82.82,0,0,0,.009-.121V77.641a.879.879,0,0,0-.008-.12l-.02-.138.02-.138a.872.872,0,0,0,.008-.119V68.159a.827.827,0,0,0-.009-.121L102.3,67.9l.02-.138a.872.872,0,0,0,.008-.119V58.676a.827.827,0,0,0-.009-.121l-.019-.138.02-.138a.872.872,0,0,0,.008-.119V49.194a.812.812,0,0,0-.812-.812Z" style="fill:#eeaf1e;fill-rule:evenodd"/><rect x="75.033" y="49.49" width="26.19" height="8.375" style="fill:#fff"/><rect x="75.033" y="58.972" width="26.19" height="8.375" style="fill:#e5e5e5"/><rect x="75.033" y="68.454" width="26.19" height="8.375" style="fill:#fff"/><rect x="75.033" y="77.937" width="26.19" height="8.375" style="fill:#e5e5e5"/><rect x="75.033" y="87.418" width="26.19" height="8.375" style="fill:#fff"/><path d="M20.267,101.729V43.595H59.479v58.134Zm6.215-53.346a.813.813,0,0,0-.812.812v8.966a.783.783,0,0,0,.008.113l.021.144-.021.144a.816.816,0,0,0-.008.115v8.967a.783.783,0,0,0,.008.113l.021.144-.021.144a.816.816,0,0,0-.008.115v8.967a.783.783,0,0,0,.008.113l.021.144-.021.144a.8.8,0,0,0-.008.114v8.967a.809.809,0,0,0,.008.115l.021.144-.021.144a.8.8,0,0,0-.008.114V96.09a.813.813,0,0,0,.812.811H53.263a.812.812,0,0,0,.811-.811V77.641a.879.879,0,0,0-.008-.12l-.02-.138.02-.138a.872.872,0,0,0,.008-.119V68.159a.827.827,0,0,0-.009-.121l-.019-.138.02-.138a.872.872,0,0,0,.008-.119V58.676a.827.827,0,0,0-.009-.121l-.019-.138.02-.138a.872.872,0,0,0,.008-.119V49.194a.812.812,0,0,0-.811-.812Z" style="fill:#eeaf1e;fill-rule:evenodd"/><rect x="26.777" y="87.418" width="26.19" height="8.375" style="fill:#fff"/><rect x="26.777" y="77.937" width="26.19" height="8.375" style="fill:#e5e5e5"/><rect x="26.777" y="68.454" width="26.19" height="8.375" style="fill:#fff"/><rect x="26.777" y="58.972" width="26.19" height="8.375" style="fill:#e5e5e5"/><rect x="26.777" y="49.49" width="26.19" height="8.375" style="fill:#fff"/><path d="M26.481,97.9H53.263a1.813,1.813,0,0,0,1.811-1.811v-46.9a1.813,1.813,0,0,0-1.811-1.812H26.481a1.813,1.813,0,0,0-1.811,1.812v46.9A1.813,1.813,0,0,0,26.481,97.9Zm1.3-18.964h24.19v6.375H27.777Zm24.19-3.107H27.777V69.454h24.19Zm0,18.964H27.777V88.419h24.19Zm0-28.447H27.777V59.972h24.19ZM27.777,50.49h24.19v6.375H27.777Z" style="fill:#983c2a"/><path d="M58.936,41.488H20.809a2.637,2.637,0,0,0-1.866.777l-.006.006a2.64,2.64,0,0,0-.777,1.866v57.05a2.64,2.64,0,0,0,.777,1.866l.006.006a2.637,2.637,0,0,0,1.866.777H58.936a2.638,2.638,0,0,0,1.866-.777l.006-.006a2.638,2.638,0,0,0,.777-1.866V44.137a2.638,2.638,0,0,0-.777-1.866l-.006-.006A2.638,2.638,0,0,0,58.936,41.488Zm-.458,59.241H21.266V44.595H58.479Z" style="fill:#983c2a"/><path d="M109.841,25.99a1.821,1.821,0,0,0-.535-1.291l0,0a1.822,1.822,0,0,0-1.288-.539H19.986A1.816,1.816,0,0,0,18.7,24.7l-.006.006a1.816,1.816,0,0,0-.536,1.285v9.491a1.812,1.812,0,0,0,.356,1.076,1.577,1.577,0,0,0,.18.215,1.821,1.821,0,0,0,1.291.535h88.029a1.828,1.828,0,0,0,1.826-1.826ZM65.554,27.271H85.892V34.2H65.554ZM62.447,34.2H42.109v-6.93H62.447Zm-41.18-6.93H39V34.2H21.267Zm85.467,6.93H89v-6.93h17.735Z" style="fill:#983c2a"/><path d="M74.737,97.9h26.782a1.813,1.813,0,0,0,1.811-1.811v-46.9a1.813,1.813,0,0,0-1.811-1.812H74.737a1.813,1.813,0,0,0-1.811,1.812v46.9A1.813,1.813,0,0,0,74.737,97.9Zm1.3-18.964h24.19v6.375H76.033Zm24.19-3.107H76.033V69.454h24.19Zm0,18.964H76.033V88.419h24.19Zm0-28.447H76.033V59.972h24.19ZM76.033,50.49h24.19v6.375H76.033Z" style="fill:#983c2a"/><path d="M109.058,42.265a2.638,2.638,0,0,0-1.867-.777H69.064a2.638,2.638,0,0,0-1.867.777l-.006.006a2.638,2.638,0,0,0-.777,1.866v57.05a2.638,2.638,0,0,0,.777,1.866l.006.006a2.638,2.638,0,0,0,1.867.777h38.127a2.638,2.638,0,0,0,1.867-.777l.006-.006a2.638,2.638,0,0,0,.777-1.866V44.137a2.637,2.637,0,0,0-.777-1.866Zm-2.324,58.464H69.522V44.595h37.212Z" style="fill:#983c2a"/></svg>