<svg id="Layer_1" data-name="Layer 1" xmlns="http://www.w3.org/2000/svg" viewBox="0 0 128 128"><title>Artboard 11</title><path d="M20.238,101.815l.131-1.116a14.208,14.208,0,0,1,28.22,0l.131,1.116Z" style="fill:#94c83d;fill-rule:evenodd"/><path d="M49.76,101.815l.131-1.116a14.208,14.208,0,0,1,28.219,0l.131,1.116Z" style="fill:#94c83d;fill-rule:evenodd"/><path d="M79.28,101.815l.131-1.116a14.208,14.208,0,0,1,28.22,0l.131,1.116Z" style="fill:#94c83d;fill-rule:evenodd"/><path d="M49.786,66.691l3.577-3.576a.553.553,0,1,0-.782-.782l-2.795,2.793V56.888a.547.547,0,0,0-1.095,0v9.437a1.385,1.385,0,0,0,0,.187l0,4.73-2.8-2.8a.548.548,0,0,0-.774,0,.548.548,0,0,0-.16.389.542.542,0,0,0,.162.388l3.572,3.572v4.53l-1.147-.171a11.548,11.548,0,0,1-9.81-11.38V48a11.505,11.505,0,0,1,23.011,0V65.773a11.553,11.553,0,0,1-9.812,11.38l-1.147.172Z" style="fill:#ffe749;fill-rule:evenodd"/><path d="M79.308,61.416l0-.044,0-.223V55.4l3.571-3.569a.552.552,0,0,0,0-.779.548.548,0,0,0-.776,0l-2.8,2.8V46.576a.547.547,0,1,0-1.095,0V59.954l-2.795-2.795a.553.553,0,1,0-.782.782l3.577,3.577v5.5l-1.148-.172a11.552,11.552,0,0,1-9.81-11.381V37.689a11.505,11.505,0,0,1,23.011,0V55.461a11.552,11.552,0,0,1-9.81,11.381l-1.148.172Z" style="fill:#ffe749;fill-rule:evenodd"/><path d="M93.521,86.055a16.121,16.121,0,0,0-13.214,6.773V68.978A13.643,13.643,0,0,0,92.373,55.461V37.69a13.612,13.612,0,0,0-27.225,0V55.461A13.641,13.641,0,0,0,77.213,68.978V92.827a16.225,16.225,0,0,0-26.426,0V79.291A13.643,13.643,0,0,0,62.852,65.774V48a13.612,13.612,0,0,0-27.225,0V65.774A13.642,13.642,0,0,0,47.692,79.291V92.827a16.3,16.3,0,0,0-29.527,9.542,1.554,1.554,0,0,0,1.553,1.554h88.563a1.554,1.554,0,0,0,1.554-1.554A16.315,16.315,0,0,0,93.521,86.055ZM71.342,62.88a10.474,10.474,0,0,1-3.087-7.419V37.69a10.505,10.505,0,0,1,21.011,0V55.461a10.52,10.52,0,0,1-8.958,10.377V61.312c0-.02,0-.038,0-.058V55.818l3.278-3.277a1.549,1.549,0,1,0-2.185-2.2l-1.094,1.093V46.576a1.547,1.547,0,0,0-3.095,0v8.586c0,.006,0,.011,0,.017v2.361l-1.088-1.087a1.553,1.553,0,1,0-2.2,2.2l3.284,3.283v3.907A10.5,10.5,0,0,1,71.342,62.88ZM41.821,73.192a10.475,10.475,0,0,1-3.087-7.419V48a10.505,10.505,0,0,1,21.011,0V65.774a10.521,10.521,0,0,1-8.958,10.377V72.567s0-.009,0-.014V67.105l3.284-3.283a1.553,1.553,0,0,0-2.2-2.2l-1.087,1.087V56.888a1.547,1.547,0,0,0-3.095,0v9.54c0,.019,0,.038,0,.057v2.343L46.6,67.734a1.549,1.549,0,1,0-2.185,2.2l3.278,3.277v2.943A10.5,10.5,0,0,1,41.821,73.192Zm-7.342,27.623H21.362a13.209,13.209,0,0,1,26.233,0Zm29.521,0H50.883a13.208,13.208,0,0,1,26.233,0Zm29.521,0H80.4a13.209,13.209,0,0,1,26.233,0Z" style="fill:#983c2a"/></svg>