<svg id="Layer_1" data-name="Layer 1" xmlns="http://www.w3.org/2000/svg" viewBox="0 0 128 128"><title>Artboard 2</title><path d="M21.715,68.832a8.472,8.472,0,0,1,3.106-3.456,8.288,8.288,0,0,1,4.418-1.267h6.347v0a1.549,1.549,0,0,0,1.462-1.039,12.04,12.04,0,0,0,.508-1.966c.005-.032.011-.065.016-.1a12.082,12.082,0,1,0-18.847,7.963q.338.237.693.452l.221.132A1.553,1.553,0,0,0,21.715,68.832ZM32,52.74l-.007-.007C32,52.733,32,52.735,32,52.74Z" style="fill:#89bb40;fill-rule:evenodd"/><path d="M108.231,65.856l-.072.062a11.6,11.6,0,0,0-3.33-3.164A11.4,11.4,0,0,0,98.873,61a11.435,11.435,0,0,1,8.1,3.368A11.59,11.59,0,0,1,108.231,65.856ZM93.809,50.537A12.053,12.053,0,0,0,90.427,61l.016.1a11.964,11.964,0,0,0,.464,1.84,1.555,1.555,0,0,0,1.475,1.171h6.491a8.293,8.293,0,0,1,4.3,1.267,8.474,8.474,0,0,1,3.106,3.456l0,0,.057.105a1.546,1.546,0,0,0,2.117.552,12.149,12.149,0,0,0,4.375-4.421,12.08,12.08,0,0,0-9.17-18,12.231,12.231,0,0,0-3.148.066A12.044,12.044,0,0,0,93.809,50.537ZM98.76,64.109h0Zm0-3.107h0Z" style="fill:#89bb40;fill-rule:evenodd"/><path d="M29.644,81.834a9.363,9.363,0,0,1-.08-18.725h69.31a9.327,9.327,0,0,1,4.836,1.42,9.444,9.444,0,0,1,2.982,2.981l.012-.006.141.259q.144.247.274.5l.1.194a.71.71,0,0,0,.067.079l.138.138.076.18a9.374,9.374,0,0,1-8.633,12.977Z" style="fill:#94c83d;fill-rule:evenodd"/><path d="M36.4,62l.187-1.159a11.16,11.16,0,0,0,.144-1.766,11.081,11.081,0,0,0-9.4-10.952l-1.038-.158.208-1.029a22.3,22.3,0,0,1,7.055-12.194,22.067,22.067,0,0,1,14.631-5.558H79.812a22.069,22.069,0,0,1,14.631,5.558A22.3,22.3,0,0,1,101.5,46.938l.208,1.03-1.038.158a11.083,11.083,0,0,0-9.4,10.952,11.14,11.14,0,0,0,.144,1.765L91.6,62ZM82.547,48.3a.553.553,0,0,0,.783-.782L81.4,45.594l1.925-1.925a.553.553,0,0,0-.783-.782l-1.925,1.925L78.7,42.887a.553.553,0,1,0-.782.782l1.925,1.926L77.915,47.52a.553.553,0,0,0,.782.782l1.925-1.926Zm-16.363,0a.554.554,0,0,0,.782,0,.554.554,0,0,0,0-.782l-1.925-1.925,1.925-1.925a.553.553,0,1,0-.782-.782l-1.926,1.925-1.925-1.925a.553.553,0,1,0-.782.782l1.925,1.925L61.551,47.52a.554.554,0,0,0,0,.782.554.554,0,0,0,.782,0l1.925-1.925Zm-16.364,0a.553.553,0,0,0,.782-.782l-1.925-1.925L50.6,43.669a.553.553,0,1,0-.782-.782L47.9,44.812,45.97,42.887a.553.553,0,1,0-.783.782l1.925,1.925L45.187,47.52a.553.553,0,0,0,.783.782L47.9,46.376Z" style="fill:#94c83d;fill-rule:evenodd"/><path d="M23.552,89.682a3.18,3.18,0,0,1-2.277-.983,3.373,3.373,0,0,1,2.375-5.758h81.217a3.345,3.345,0,0,1,2.379.99,3.306,3.306,0,0,1,.73,3.66,3.363,3.363,0,0,1-3.11,2.089Z" style="fill:#eeaf1e;fill-rule:evenodd"/><polygon points="98.979 98.813 96.589 90.787 102.072 90.787 102.072 98.813 98.979 98.813" style="fill:#eeaf1e;fill-rule:evenodd"/><polygon points="26.445 98.813 26.445 90.787 31.928 90.787 29.539 98.813 26.445 98.813" style="fill:#eeaf1e;fill-rule:evenodd"/><path d="M103.641,47.07A24.28,24.28,0,0,0,79.812,27.08H48.188A24.279,24.279,0,0,0,24.359,47.07a12.036,12.036,0,0,0-5.621,21.874,11.4,11.4,0,0,0,2.8,11.629c.179.179.372.344.563.511a5.5,5.5,0,0,0-2.225,1.267c-.034.029-.066.058-.1.09a5.46,5.46,0,0,0-1.608,3.869h0a5.46,5.46,0,0,0,1.608,3.869l0,0a5.463,5.463,0,0,0,3.866,1.611h.688v7.581a1.554,1.554,0,0,0,1.553,1.553h4.057v0a1.552,1.552,0,0,0,1.486-1.108l2.388-8.023h60.87l2.388,8.023a1.552,1.552,0,0,0,1.487,1.108v0h4.057a1.554,1.554,0,0,0,1.553-1.553V91.786h.688a5.489,5.489,0,0,0,5.476-5.476h0a5.416,5.416,0,0,0-3.931-5.226c.191-.167.383-.332.562-.511a11.361,11.361,0,0,0,2.7-11.911,12.068,12.068,0,0,0-6.035-21.592ZM34.219,35.493a21.026,21.026,0,0,1,13.969-5.307H79.812a21.2,21.2,0,0,1,20.708,16.957c-.071.011-.139.029-.209.04-.221.038-.44.078-.656.127-.127.029-.252.064-.378.1-.221.058-.442.114-.658.184l-.007,0a11.976,11.976,0,0,0-1.467.6c-.123.059-.247.114-.367.177-.181.094-.355.2-.531.3-.131.077-.261.154-.388.236-.165.106-.328.214-.488.328-.13.092-.256.189-.383.286-.15.116-.3.231-.446.353s-.26.234-.389.353-.236.2-.347.315a12.042,12.042,0,0,0-3.476,7.309,12.183,12.183,0,0,0-.062,1.231c0,.331.015.661.043.99.01.116.029.231.042.346.022.2.04.393.072.589H37.573c.032-.2.051-.4.074-.607.012-.109.031-.218.04-.327.028-.329.043-.66.043-.99a12.183,12.183,0,0,0-.062-1.231,12.043,12.043,0,0,0-3.476-7.309c-.116-.116-.243-.219-.364-.33s-.243-.228-.37-.336c-.147-.125-.3-.241-.453-.359-.124-.1-.248-.19-.375-.281-.161-.114-.325-.224-.491-.33-.126-.081-.255-.158-.385-.234-.176-.1-.352-.206-.534-.3-.119-.062-.242-.117-.363-.175A11.982,11.982,0,0,0,29.4,47.6l-.025-.009c-.214-.07-.434-.125-.654-.183-.127-.033-.254-.069-.383-.1-.215-.049-.433-.089-.653-.127-.071-.012-.139-.03-.211-.041A21.182,21.182,0,0,1,34.219,35.493ZM16.68,59.077a8.971,8.971,0,1,1,17.942,0A9.087,9.087,0,0,1,34.5,60.59c-.024.142-.072.273-.1.412H29.239a11.389,11.389,0,0,0-6.068,1.752,11.6,11.6,0,0,0-3.33,3.164,9.052,9.052,0,0,1-1.984-2.393A8.924,8.924,0,0,1,16.68,59.077ZM28.793,97.813H27.445V91.786h3.142Zm72.279,0H99.725L97.93,91.786h3.142Zm3.8-13.873a2.379,2.379,0,0,1,2.369,2.369h0a2.379,2.379,0,0,1-2.369,2.369H23.65a2.359,2.359,0,0,1-1.672-.691l0,0,0,0a2.363,2.363,0,0,1-.7-1.672h0a2.363,2.363,0,0,1,.7-1.672l.062-.066a2.358,2.358,0,0,1,1.61-.631h81.217Zm-.088-5.564a8.337,8.337,0,0,1-5.905,2.457H29.644a8.362,8.362,0,0,1-.006-16.725H98.76a8.287,8.287,0,0,1,4.418,1.267,8.475,8.475,0,0,1,3.106,3.456l0,0c.017.036.036.07.057.105a1.534,1.534,0,0,0,.234.3,8.317,8.317,0,0,1-1.8,9.144Zm5.364-14.852a9.065,9.065,0,0,1-1.924,2.332,11.593,11.593,0,0,0-1.244-1.487A11.435,11.435,0,0,0,98.874,61H93.589c-.03-.137-.064-.273-.088-.413a9.066,9.066,0,0,1-.123-1.511,8.971,8.971,0,1,1,16.765,4.447Z" style="fill:#983c2a"/><path d="M60.844,49.009a1.553,1.553,0,0,0,2.2,0l1.219-1.218,1.219,1.218a1.553,1.553,0,1,0,2.2-2.2l-1.218-1.218,1.218-1.218a1.553,1.553,0,1,0-2.2-2.2L64.259,43.4,63.04,42.179a1.553,1.553,0,1,0-2.2,2.2l1.218,1.218-1.218,1.218A1.553,1.553,0,0,0,60.844,49.009Z" style="fill:#983c2a"/><path d="M44.481,49.009a1.553,1.553,0,0,0,2.2,0L47.9,47.791l1.218,1.218a1.553,1.553,0,0,0,2.2-2.2l-1.218-1.218,1.218-1.218a1.553,1.553,0,1,0-2.2-2.2L47.9,43.4l-1.218-1.218a1.553,1.553,0,1,0-2.2,2.2L45.7,45.594l-1.218,1.218A1.553,1.553,0,0,0,44.481,49.009Z" style="fill:#983c2a"/><path d="M77.208,49.009a1.553,1.553,0,0,0,2.2,0l1.218-1.218,1.218,1.218a1.553,1.553,0,1,0,2.2-2.2l-1.218-1.218,1.218-1.218a1.553,1.553,0,1,0-2.2-2.2L80.622,43.4,79.4,42.179a1.553,1.553,0,0,0-2.2,2.2l1.218,1.218-1.218,1.218A1.553,1.553,0,0,0,77.208,49.009Z" style="fill:#983c2a"/></svg>