<svg xmlns="http://www.w3.org/2000/svg" data-name="Layer 1" viewBox="0 0 128 128"><path fill="#89bb40" fill-rule="evenodd" d="M21.715 68.832a8.472 8.472 0 013.106-3.456 8.288 8.288 0 014.418-1.267h6.347a1.549 1.549 0 001.462-1.039 12.04 12.04 0 00.508-1.966l.016-.1a12.082 12.082 0 10-18.847 7.963q.338.237.693.452l.221.132a1.553 1.553 0 002.076-.719zM32 52.74l-.007-.007c.007 0 .007.002.007.007zM108.231 65.856l-.072.062a11.6 11.6 0 00-3.33-3.164A11.4 11.4 0 0098.873 61a11.435 11.435 0 018.1 3.368 11.59 11.59 0 011.258 1.488zM93.809 50.537A12.053 12.053 0 0090.427 61l.016.1a11.964 11.964 0 00.464 1.84 1.555 1.555 0 001.475 1.171h6.491a8.293 8.293 0 014.3 1.267 8.474 8.474 0 013.106 3.456l.057.105a1.546 1.546 0 002.117.552 12.149 12.149 0 004.375-4.421 12.08 12.08 0 00-9.17-18 12.231 12.231 0 00-3.148.066 12.044 12.044 0 00-6.701 3.401zm4.951 13.572zm0-3.107z"/><path fill="#94c83d" fill-rule="evenodd" d="M29.644 81.834a9.363 9.363 0 01-.08-18.725h69.31a9.327 9.327 0 014.836 1.42 9.444 9.444 0 012.982 2.981l.012-.006.141.259q.144.247.274.5l.1.194a.71.71 0 00.067.079l.138.138.076.18a9.374 9.374 0 01-8.633 12.977zM36.4 62l.187-1.159a11.16 11.16 0 00.144-1.766 11.081 11.081 0 00-9.4-10.952l-1.038-.158.208-1.029a22.3 22.3 0 017.055-12.194 22.067 22.067 0 0114.631-5.558h31.625a22.069 22.069 0 0114.631 5.558 22.3 22.3 0 017.057 12.196l.208 1.03-1.038.158a11.083 11.083 0 00-9.4 10.952 11.14 11.14 0 00.144 1.765L91.6 62zm46.147-13.7a.553.553 0 00.783-.782l-1.93-1.924 1.925-1.925a.553.553 0 00-.783-.782l-1.925 1.925-1.917-1.925a.553.553 0 10-.782.782l1.925 1.926-1.928 1.925a.553.553 0 00.782.782l1.925-1.926zm-16.363 0a.554.554 0 00.782 0 .554.554 0 000-.782l-1.925-1.925 1.925-1.925a.553.553 0 10-.782-.782l-1.926 1.925-1.925-1.925a.553.553 0 10-.782.782l1.925 1.925-1.925 1.927a.554.554 0 000 .782.554.554 0 00.782 0l1.925-1.925zm-16.364 0a.553.553 0 00.782-.782l-1.925-1.925 1.923-1.924a.553.553 0 10-.782-.782L47.9 44.812l-1.93-1.925a.553.553 0 10-.783.782l1.925 1.925-1.925 1.926a.553.553 0 00.783.782l1.93-1.926z"/><path fill="#eeaf1e" fill-rule="evenodd" d="M23.552 89.682a3.18 3.18 0 01-2.277-.983 3.373 3.373 0 012.375-5.758h81.217a3.345 3.345 0 012.379.99 3.306 3.306 0 01.73 3.66 3.363 3.363 0 01-3.11 2.089zM98.979 98.813l-2.39-8.026h5.483v8.026h-3.093zM26.445 98.813v-8.026h5.483l-2.389 8.026h-3.094z"/><path fill="#983c2a" d="M103.641 47.07a24.28 24.28 0 00-23.829-19.99H48.188a24.279 24.279 0 00-23.829 19.99 12.036 12.036 0 00-5.621 21.874 11.4 11.4 0 002.8 11.629c.179.179.372.344.563.511a5.5 5.5 0 00-2.225 1.267 2.706 2.706 0 00-.1.09 5.46 5.46 0 00-1.608 3.869 5.46 5.46 0 001.608 3.869 5.463 5.463 0 003.866 1.611h.688v7.581a1.554 1.554 0 001.553 1.553h4.057a1.552 1.552 0 001.486-1.108l2.388-8.023h60.87l2.388 8.023a1.552 1.552 0 001.487 1.108h4.057a1.554 1.554 0 001.553-1.553v-7.585h.688a5.489 5.489 0 005.476-5.476 5.416 5.416 0 00-3.931-5.226c.191-.167.383-.332.562-.511a11.361 11.361 0 002.7-11.911 12.068 12.068 0 00-6.035-21.592zM34.219 35.493a21.026 21.026 0 0113.969-5.307h31.624a21.2 21.2 0 0120.708 16.957c-.071.011-.139.029-.209.04-.221.038-.44.078-.656.127a7.258 7.258 0 00-.378.1c-.221.058-.442.114-.658.184h-.007a11.976 11.976 0 00-1.467.6c-.123.059-.247.114-.367.177-.181.094-.355.2-.531.3a10.827 10.827 0 00-.876.564c-.13.092-.256.189-.383.286-.15.116-.3.231-.446.353s-.26.234-.389.353-.236.2-.347.315a12.042 12.042 0 00-3.476 7.309 12.183 12.183 0 00-.062 1.231c0 .331.015.661.043.99.01.116.029.231.042.346.022.2.04.393.072.589H37.573c.032-.2.051-.4.074-.607.012-.109.031-.218.04-.327.028-.329.043-.66.043-.99a12.183 12.183 0 00-.062-1.231 12.043 12.043 0 00-3.476-7.309c-.116-.116-.243-.219-.364-.33s-.243-.228-.37-.336c-.147-.125-.3-.241-.453-.359-.124-.1-.248-.19-.375-.281a12.375 12.375 0 00-.876-.564c-.176-.1-.352-.206-.534-.3-.119-.062-.242-.117-.363-.175A11.982 11.982 0 0029.4 47.6l-.025-.009c-.214-.07-.434-.125-.654-.183-.127-.033-.254-.069-.383-.1a12.554 12.554 0 00-.653-.127c-.071-.012-.139-.03-.211-.041a21.182 21.182 0 016.745-11.647zM16.68 59.077a8.971 8.971 0 1117.942 0 9.087 9.087 0 01-.122 1.513c-.024.142-.072.273-.1.412h-5.161a11.389 11.389 0 00-6.068 1.752 11.6 11.6 0 00-3.33 3.164 9.052 9.052 0 01-1.984-2.393 8.924 8.924 0 01-1.177-4.448zm12.113 38.736h-1.348v-6.027h3.142zm72.279 0h-1.347l-1.795-6.027h3.142zm3.8-13.873a2.379 2.379 0 012.369 2.369 2.379 2.379 0 01-2.369 2.369H23.65a2.359 2.359 0 01-1.672-.691 2.363 2.363 0 01-.7-1.672 2.363 2.363 0 01.7-1.672l.062-.066a2.358 2.358 0 011.61-.631h81.217zm-.088-5.564a8.337 8.337 0 01-5.905 2.457H29.644a8.362 8.362 0 01-.006-16.725H98.76a8.287 8.287 0 014.418 1.267 8.475 8.475 0 013.106 3.456c.017.036.036.07.057.105a1.534 1.534 0 00.234.3 8.317 8.317 0 01-1.8 9.144zm5.364-14.852a9.065 9.065 0 01-1.924 2.332 11.593 11.593 0 00-1.244-1.487A11.435 11.435 0 0098.874 61h-5.285c-.03-.137-.064-.273-.088-.413a9.066 9.066 0 01-.123-1.511 8.971 8.971 0 1116.765 4.447z"/><path fill="#983c2a" d="M60.844 49.009a1.553 1.553 0 002.2 0l1.219-1.218 1.219 1.218a1.553 1.553 0 102.2-2.2l-1.218-1.218 1.218-1.218a1.553 1.553 0 10-2.2-2.2L64.259 43.4l-1.219-1.221a1.553 1.553 0 10-2.2 2.2l1.218 1.218-1.218 1.218a1.553 1.553 0 00.004 2.194zM44.481 49.009a1.553 1.553 0 002.2 0l1.219-1.218 1.218 1.218a1.553 1.553 0 002.2-2.2L50.1 45.591l1.218-1.218a1.553 1.553 0 10-2.2-2.2L47.9 43.4l-1.218-1.218a1.553 1.553 0 10-2.2 2.2l1.218 1.212-1.218 1.218a1.553 1.553 0 00-.001 2.197zM77.208 49.009a1.553 1.553 0 002.2 0l1.218-1.218 1.218 1.218a1.553 1.553 0 102.2-2.2l-1.218-1.218 1.218-1.218a1.553 1.553 0 10-2.2-2.2L80.622 43.4 79.4 42.179a1.553 1.553 0 00-2.2 2.2l1.218 1.218-1.218 1.218a1.553 1.553 0 00.008 2.194z"/></svg>