<svg xmlns="http://www.w3.org/2000/svg" data-name="Layer 1" viewBox="0 0 128 128"><path fill="#eeaf1e" fill-rule="evenodd" d="M64 101.656a37.654 37.654 0 1 1 26.628-11.029A37.411 37.411 0 0 1 64 101.656zm0-67.334a29.678 29.678 0 1 0 20.985 8.692A29.484 29.484 0 0 0 64 34.322z"/><path fill="#fff" fill-rule="evenodd" d="M64 92.571A28.569 28.569 0 1 1 84.2 84.2 28.384 28.384 0 0 1 64 92.571zm0-48.339a.548.548 0 0 0-.547.547v15.694l-.656.24a3.5 3.5 0 1 0 4.492 4.487l.238-.657 7.539-.013a.547.547 0 1 0 0-1.094l-7.542.012-.241-.656a3.5 3.5 0 0 0-2.083-2.08l-.656-.24V44.779a.548.548 0 0 0-.544-.547z"/><path fill="#983c2a" d="M64 103.763a39.765 39.765 0 1 0-28.117-11.646A39.64 39.64 0 0 0 64 103.763zM38.08 38.08A36.658 36.658 0 1 1 27.344 64 36.543 36.543 0 0 1 38.08 38.08z"/><path fill="#983c2a" d="M64 94.678a30.679 30.679 0 1 0-21.692-8.986A30.583 30.583 0 0 0 64 94.678zM44.5 44.5A27.573 27.573 0 1 1 36.429 64 27.485 27.485 0 0 1 44.5 44.5z"/><path fill="#983c2a" d="M64 68.5a4.487 4.487 0 0 0 4.211-2.959l6.857-.012a1.547 1.547 0 0 0 0-3.095l-6.862.012a4.487 4.487 0 0 0-2.66-2.655V44.779a1.547 1.547 0 0 0-3.095 0v15.012A4.49 4.49 0 0 0 64 68.5z"/></svg>