<svg id="Layer_1" data-name="Layer 1" xmlns="http://www.w3.org/2000/svg" viewBox="0 0 128 128"><title>Artboard 7</title><path d="M21.907,101.722V83.4H63.446v18.321Zm14.577-9.746a.549.549,0,0,0-.548.545.547.547,0,0,0,.545.55l12.389.076a.548.548,0,0,0,0-1.1Z" style="fill:#eeaf1e;fill-rule:evenodd"/><path d="M21.907,82.294V63.974H63.446V82.294Zm14.577-9.556a.547.547,0,0,0,0,1.095l12.389.076a.549.549,0,0,0,.548-.545.548.548,0,0,0-.546-.549l-12.388-.076v0Z" style="fill:#eeaf1e;fill-rule:evenodd"/><rect x="64.554" y="63.974" width="41.538" height="37.749" style="fill:#eeaf1e"/><path d="M20.113,62.867a1.886,1.886,0,0,1,0-3.772h87.773a1.886,1.886,0,0,1,0,3.772Z" style="fill:#eeaf1e;fill-rule:evenodd"/><rect x="80.985" y="53.463" width="8.98" height="4.523" style="fill:#e5e5e5"/><rect x="64.858" y="48.211" width="41.233" height="4.146" style="fill:#fff"/><rect x="64.858" y="26.278" width="41.233" height="20.825" style="fill:#59c4c6"/><path d="M107.887,56.987H92.072V54.463h13.092a3.017,3.017,0,0,0,2.025-.782,1.584,1.584,0,0,0,.119-.108,3.026,3.026,0,0,0,.89-2.144V27.205a3.026,3.026,0,0,0-.89-2.144l0,0,0,0a3.021,3.021,0,0,0-2.138-.89H65.785a3.039,3.039,0,0,0-3.034,3.034V51.429a3.038,3.038,0,0,0,3.034,3.034H78.878v2.524H20.113A4,4,0,0,0,16.12,60.98h0A3.964,3.964,0,0,0,19.8,64.942v37.334a1.554,1.554,0,0,0,1.554,1.553h85.291a1.554,1.554,0,0,0,1.553-1.553V64.942a3.964,3.964,0,0,0,3.681-3.961h0a4,4,0,0,0-3.993-3.993Zm-2.795-29.709V46.1H65.859V27.278ZM65.859,49.211h39.233v2.146H65.859Zm16.126,5.253h6.98v2.524h-6.98ZM62.447,81.294H22.908V64.973H62.447ZM22.908,100.722V84.4H62.447v16.321Zm82.184,0H65.553V64.973h39.539Zm3.681-39.741a.892.892,0,0,1-.886.886H20.113a.892.892,0,0,1-.886-.886h0a.892.892,0,0,1,.886-.886h87.774a.892.892,0,0,1,.886.886Z" style="fill:#983c2a"/><path d="M48.876,91.052,36.49,90.976a1.547,1.547,0,0,0-.012,3.095l12.387.076a1.547,1.547,0,0,0,.012-3.095Z" style="fill:#983c2a"/><path d="M36.478,74.833l12.387.076a1.547,1.547,0,1,0,.012-3.095L36.49,71.739a1.547,1.547,0,0,0-.012,3.095Z" style="fill:#983c2a"/></svg>