<svg xmlns="http://www.w3.org/2000/svg" data-name="Layer 1" viewBox="0 0 128 128"><path fill="#eeaf1e" fill-rule="evenodd" d="M64.553 66.361v18H111.3v-18s-46.926.039-46.747 0zm17.181 8.376l12.389.076a.547.547 0 010 1.095l-12.39-.076a.547.547 0 010-1.095zM23.748 102.433v-8.608h5.914l-2.562 8.608h-3.352zM100.9 102.433l-2.562-8.608h5.913v8.608H100.9zM17.459 92.719a3.6 3.6 0 01-2.56-1.065 3.625 3.625 0 012.56-6.187h93.082a3.626 3.626 0 010 7.252z"/><path fill="#59c4c6" fill-rule="evenodd" d="M63.743 65.289a1.034 1.034 0 00-.263-.034h-3.665l-.229-.13a8.947 8.947 0 01-4.547-7.8 8.876 8.876 0 01.858-3.84 9.027 9.027 0 012.435-3.1.553.553 0 00.17-.612l-2.284-8.237H71.78L69.489 49.8a.547.547 0 00.181.57 9.122 9.122 0 012.433 3.1 9.007 9.007 0 01-.459 8.528 9 9 0 01-3.229 3.117l-.229.13H64.52a1.05 1.05 0 00-.265.034l-.255.077z"/><path fill="#eeaf1e" fill-rule="evenodd" d="M16.7 84.359v-18h46.746v18zm17.18-9.622a.547.547 0 00-.39.933.543.543 0 00.386.162l12.39.076a.547.547 0 000-1.095z"/><path fill="#ffe749" fill-rule="evenodd" d="M64 38.4a2.3 2.3 0 01-2.234-1.751.545.545 0 00-.531-.423.573.573 0 00-.128.016 2.431 2.431 0 01-.678.1 2.3 2.3 0 01-1.583-3.962.55.55 0 00.019-.776 2.329 2.329 0 01-.71-1.355 2.3 2.3 0 01.283-1.477l.058-.1a2.292 2.292 0 011.928-1.048 2.325 2.325 0 01.656.095.545.545 0 00.154.022.552.552 0 00.526-.395l.021-.091a2.336 2.336 0 01.8-1.2 2.3 2.3 0 013.652 1.263.544.544 0 00.53.423.573.573 0 00.128-.016 2.429 2.429 0 01.68-.1 2.3 2.3 0 011.581 3.963.55.55 0 00-.018.775 2.3 2.3 0 01.427 2.832l-.057.1a2.269 2.269 0 01-1.075.886 2.319 2.319 0 01-1.51.068.542.542 0 00-.153-.022.552.552 0 00-.527.395l-.021.092a2.339 2.339 0 01-.8 1.2A2.3 2.3 0 0164 38.4zm0-7.681a1.262 1.262 0 101.262 1.262A1.263 1.263 0 0064 30.724z"/><path fill="#983c2a" d="M46.272 73.813l-12.387-.076a1.547 1.547 0 10-.012 3.095l12.387.076a1.547 1.547 0 00.012-3.095zM81.727 76.832l12.387.076a1.547 1.547 0 10.012-3.095l-12.386-.075a1.547 1.547 0 10-.012 3.095z"/><path fill="#983c2a" d="M114.493 84.953a5.8 5.8 0 00-1.085-.795V66.327a2.067 2.067 0 00-.608-1.459l-.007-.006a2.068 2.068 0 00-1.452-.6H72.612a11.05 11.05 0 00-.845-14.817l2.2-7.928a1.538 1.538 0 00.095-.535 1.554 1.554 0 00-1.562-1.561h-5.625a4.39 4.39 0 00.852-.981 4.4 4.4 0 003.587-2.089c.023-.033.045-.068.065-.1a4.39 4.39 0 00.076-4.263 4.418 4.418 0 00.47-1.439 4.4 4.4 0 00-2.724-4.7 4.419 4.419 0 00-1.475-.312 4.388 4.388 0 00-7.453 0 4.4 4.4 0 00-3.587 2.089c-.023.033-.045.068-.066.1a4.391 4.391 0 00-.076 4.263 4.423 4.423 0 00-.47 1.439 4.4 4.4 0 002.724 4.7 4.418 4.418 0 001.475.312 4.38 4.38 0 00.852.981H55.5a1.551 1.551 0 00-1.5 1.967l2.229 8.05a11.008 11.008 0 00-.847 14.817H16.665a2.065 2.065 0 00-1.459.608l-.006.006a2.065 2.065 0 00-.608 1.459v17.835a5.8 5.8 0 00-1.178.879 5.718 5.718 0 00-1.679 4.04 5.719 5.719 0 001.686 4.047 5.718 5.718 0 004.05 1.683h4.182v8.161a1.554 1.554 0 001.554 1.553h4.303a1.552 1.552 0 001.49-1.097l2.561-8.6h64.881l2.562 8.6a1.552 1.552 0 001.486 1.108h4.31a1.554 1.554 0 001.553-1.553v-8.159h4.183a5.746 5.746 0 005.733-5.733 5.717 5.717 0 00-1.683-4.05.876.876 0 00-.093-.089zM60.8 35.294a1.312 1.312 0 01-.857-.039 1.279 1.279 0 01-.643-.555 1.307 1.307 0 01.231-1.593 1.549 1.549 0 00.055-2.191l-.057-.057a1.3 1.3 0 01-.229-1.584l.034-.061a1.28 1.28 0 01.6-.5 1.31 1.31 0 01.857-.039 1.55 1.55 0 001.923-1.05c.013-.045.024-.09.033-.135a1.3 1.3 0 012.509.056 1.546 1.546 0 001.869 1.154l.078-.021a1.31 1.31 0 01.857.039 1.281 1.281 0 01.636.551 1.306 1.306 0 01-.231 1.593 1.55 1.55 0 00-.055 2.191l.057.057a1.3 1.3 0 01.229 1.584l-.033.06a1.278 1.278 0 01-.6.5 1.311 1.311 0 01-.857.039 1.549 1.549 0 00-1.923 1.05c-.013.045-.025.09-.033.135a1.3 1.3 0 01-2.509-.056 1.546 1.546 0 00-1.863-1.147zm49.5 48.066H65.553v-16H110.3zM57.209 61.484a7.951 7.951 0 011.757-10.332 1.554 1.554 0 00.479-1.723l-1.911-6.9h12.932l-1.941 7.01a1.549 1.549 0 00.512 1.612 7.963 7.963 0 01-1.113 13.1h-3.4a2.023 2.023 0 00-.475.061c-.015 0-.031 0-.046.006s-.03 0-.044-.006a2.023 2.023 0 00-.475-.062h-3.4a7.992 7.992 0 01-2.875-2.766zM17.7 67.362h44.746v16H17.7zm8.654 34.071h-1.606v-6.608h3.573zm76.9 0h-1.606l-1.967-6.607h3.572zm9.915-12.34a2.637 2.637 0 01-2.625 2.626H17.459a2.619 2.619 0 01-1.853-.772 2.613 2.613 0 01-.766-1.853 2.613 2.613 0 01.766-1.853l.006-.006a2.614 2.614 0 011.853-.766h93.082a2.614 2.614 0 011.791.706l.063.067a2.617 2.617 0 01.772 1.853z"/><circle cx="64" cy="31.986" r="2.262" fill="#983c2a"/></svg>