<svg xmlns="http://www.w3.org/2000/svg" data-name="Layer 1" viewBox="0 0 128 128"><path fill="#eeaf1e" fill-rule="evenodd" d="M21.907 101.722V83.4h41.539v18.321zm14.577-9.746a.549.549 0 0 0-.548.545.547.547 0 0 0 .545.55l12.389.076a.548.548 0 0 0 0-1.1zM21.907 82.294v-18.32h41.539v18.32zm14.577-9.556a.547.547 0 0 0 0 1.095l12.389.076a.549.549 0 0 0 .548-.545.548.548 0 0 0-.546-.549l-12.388-.076z"/><path fill="#eeaf1e" d="M64.554 63.974H106.092V101.723H64.554z"/><path fill="#eeaf1e" fill-rule="evenodd" d="M20.113 62.867a1.886 1.886 0 0 1 0-3.772h87.773a1.886 1.886 0 0 1 0 3.772z"/><path fill="#e5e5e5" d="M80.985 53.463H89.965V57.986000000000004H80.985z"/><path fill="#fff" d="M64.858 48.211H106.09100000000001V52.357H64.858z"/><path fill="#59c4c6" d="M64.858 26.278H106.09100000000001V47.102999999999994H64.858z"/><path fill="#983c2a" d="M107.887 56.987H92.072v-2.524h13.092a3.017 3.017 0 0 0 2.025-.782 1.584 1.584 0 0 0 .119-.108 3.026 3.026 0 0 0 .89-2.144V27.205a3.026 3.026 0 0 0-.89-2.144 3.021 3.021 0 0 0-2.138-.89H65.785a3.039 3.039 0 0 0-3.034 3.034v24.224a3.038 3.038 0 0 0 3.034 3.034h13.093v2.524H20.113a4 4 0 0 0-3.993 3.993 3.964 3.964 0 0 0 3.68 3.962v37.334a1.554 1.554 0 0 0 1.554 1.553h85.291a1.554 1.554 0 0 0 1.553-1.553V64.942a3.964 3.964 0 0 0 3.681-3.961 4 4 0 0 0-3.993-3.993zm-2.795-29.709V46.1H65.859V27.278zM65.859 49.211h39.233v2.146H65.859zm16.126 5.253h6.98v2.524h-6.98zm-19.538 26.83H22.908V64.973h39.539zm-39.539 19.428V84.4h39.539v16.321zm82.184 0H65.553V64.973h39.539zm3.681-39.741a.892.892 0 0 1-.886.886H20.113a.892.892 0 0 1-.886-.886.892.892 0 0 1 .886-.886h87.774a.892.892 0 0 1 .886.886z"/><path fill="#983c2a" d="m48.876 91.052-12.386-.076a1.547 1.547 0 0 0-.012 3.095l12.387.076a1.547 1.547 0 0 0 .012-3.095zM36.478 74.833l12.387.076a1.547 1.547 0 1 0 .012-3.095l-12.387-.075a1.547 1.547 0 0 0-.012 3.095z"/></svg>