<svg id="Layer_1" data-name="Layer 1" xmlns="http://www.w3.org/2000/svg" viewBox="0 0 128 128"><title>Artboard 8</title><path d="M47.736,84.058V31.164H80.263V84.058Zm6.382-19.851a.721.721,0,1,0,.721.72A.721.721,0,0,0,54.118,64.207ZM55.682,37.87a.924.924,0,0,0-.922.922V51.637a.924.924,0,0,0,.922.922H72.317a.924.924,0,0,0,.923-.922V38.792a.924.924,0,0,0-.923-.922Z" style="fill:#ffe749;fill-rule:evenodd"/><rect x="55.866" y="38.977" width="16.267" height="12.476" style="fill:#fff"/><rect x="56.866" y="39.977" width="14.267" height="10.476" style="fill:#fff"/><path d="M81.37,84.058V31.525A1.487,1.487,0,0,0,79.9,30.057H48.1a1.456,1.456,0,0,0-.906.315l-.561,1.352V84.058H42.861V26.313H85.139V84.058Z" style="fill:#eeaf1e;fill-rule:evenodd"/><path d="M36.7,96.807V88.9a3.741,3.741,0,0,1,3.736-3.737H87.566A3.741,3.741,0,0,1,91.3,88.9v7.906Z" style="fill:#94c83d;fill-rule:evenodd"/><path d="M28.91,101.687a1.886,1.886,0,0,1,0-3.772H99.09a1.886,1.886,0,0,1,0,3.772Z" style="fill:#eeaf1e;fill-rule:evenodd"/><path d="M55.682,53.559H72.318a1.924,1.924,0,0,0,1.923-1.922V38.792a1.925,1.925,0,0,0-1.923-1.922H55.682a1.924,1.924,0,0,0-1.922,1.922V51.637a1.924,1.924,0,0,0,1.922,1.922Zm1.185-13.583H71.133V50.452H56.866Z" style="fill:#983c2a"/><circle cx="54.118" cy="64.927" r="1.721" style="fill:#983c2a"/><path d="M99.09,95.807H93.409V88.9A5.828,5.828,0,0,0,91.7,84.78h0l0,0,0,0a5.829,5.829,0,0,0-4.122-1.716h-.32V26.939a2.737,2.737,0,0,0-2.733-2.733H43.487a2.737,2.737,0,0,0-2.733,2.733V83.057h-.321a5.83,5.83,0,0,0-4.121,1.714l0,0,0,0,0,0A5.83,5.83,0,0,0,34.59,88.9v6.906H28.91A4,4,0,0,0,24.917,99.8h0a4,4,0,0,0,3.993,3.993H99.09a4,4,0,0,0,3.993-3.993h0a4,4,0,0,0-3.993-3.993ZM43.861,27.314H84.139V83.057H82.37V31.525a2.459,2.459,0,0,0-.719-1.733l0,0-.006-.006a2.462,2.462,0,0,0-1.738-.724H48.1a2.463,2.463,0,0,0-1.744.724l0,0,0,0a2.457,2.457,0,0,0-.724,1.738V83.057H43.861Zm35.4,55.744H48.737V32.164H79.263ZM37.7,88.9a2.725,2.725,0,0,1,.8-1.932l.006-.006a2.726,2.726,0,0,1,1.932-.8H87.566a2.726,2.726,0,0,1,1.932.8l.006.006a2.725,2.725,0,0,1,.8,1.932v6.906H37.7ZM99.976,99.8a.892.892,0,0,1-.886.886H28.91a.892.892,0,0,1-.886-.886h0a.892.892,0,0,1,.886-.886H99.09a.892.892,0,0,1,.886.886Z" style="fill:#983c2a"/></svg>