<svg id="Layer_1" data-name="Layer 1" xmlns="http://www.w3.org/2000/svg" viewBox="0 0 128 128"><title>Artboard 13</title><path d="M70.567,58.539a.933.933,0,0,0-.919-.919H40.522a1.207,1.207,0,0,1-.847-.347,1.232,1.232,0,0,1-.365-.865V52.465H89.242c.305,0-.554,5.16-.554,5.16C88.688,58.776,70.567,58.539,70.567,58.539Z" style="fill:#fff;fill-rule:evenodd"/><path d="M39.311,51.357V27.525a1.217,1.217,0,0,1,1.211-1.212H87.477a1.215,1.215,0,0,1,.86.361,1.2,1.2,0,0,1,.352.851V51.357Z" style="fill:#59c4c6;fill-rule:evenodd"/><rect x="58.539" y="58.728" width="10.92" height="5.606" style="fill:#e5e5e5"/><path d="M16.7,83.613v-18H63.446v18Zm17.179-9.622a.547.547,0,0,0,0,1.095l12.389.076a.548.548,0,0,0,0-1.1L33.88,73.991v0Z" style="fill:#eeaf1e;fill-rule:evenodd"/><path d="M64.554,83.613v-18H111.3v18Zm17.179-9.622a.547.547,0,0,0,0,1.095l12.389.076a.548.548,0,0,0,0-1.1l-12.388-.075v0Z" style="fill:#eeaf1e;fill-rule:evenodd"/><path d="M17.459,91.972a3.625,3.625,0,0,1,0-7.251h93.082a3.617,3.617,0,0,1,3.346,2.248,3.557,3.557,0,0,1-.785,3.938l-.14.14-2.221.926Z" style="fill:#eeaf1e;fill-rule:evenodd"/><polygon points="23.748 101.687 23.748 93.079 29.662 93.079 27.1 101.687 23.748 101.687" style="fill:#eeaf1e;fill-rule:evenodd"/><polygon points="100.9 101.687 98.338 93.079 104.251 93.079 104.251 101.687 100.9 101.687" style="fill:#eeaf1e;fill-rule:evenodd"/><path d="M103.078,57.167a4.7,4.7,0,0,1-4.689-4.689V44.244h9.379v8.233a4.7,4.7,0,0,1-4.689,4.689Zm0-5.118a.623.623,0,1,0,.622.622A.623.623,0,0,0,103.078,52.049Zm0-4.418a.623.623,0,1,0,.622.622A.623.623,0,0,0,103.078,47.631Z" style="fill:#94c83d;fill-rule:evenodd"/><path d="M98.389,43.138V40.924a4.689,4.689,0,0,1,9.379,0v2.214Z" style="fill:#94c83d;fill-rule:evenodd"/><path d="M20.232,43.138V40.924a4.689,4.689,0,0,1,9.379,0v2.214Z" style="fill:#94c83d;fill-rule:evenodd"/><path d="M24.921,57.167a4.7,4.7,0,0,1-4.689-4.689V44.244h9.379v8.233a4.7,4.7,0,0,1-4.689,4.689Zm0-5.118a.623.623,0,1,0,.622.622A.623.623,0,0,0,24.921,52.049Zm0-4.418a.623.623,0,1,0,.622.622A.623.623,0,0,0,24.921,47.631Z" style="fill:#94c83d;fill-rule:evenodd"/><path d="M46.272,73.067l-12.387-.076a1.547,1.547,0,1,0-.012,3.095l12.387.076a1.547,1.547,0,0,0,.012-3.095Z" style="fill:#983c2a"/><path d="M94.126,73.067,81.74,72.991a1.547,1.547,0,1,0-.012,3.095l12.387.076a1.547,1.547,0,1,0,.012-3.095Z" style="fill:#983c2a"/><path d="M113.407,83.413V65.581a2.068,2.068,0,0,0-.608-1.459l0,0,0,0-.007-.007a2.069,2.069,0,0,0-1.452-.6h-6.7V59.087a6.8,6.8,0,0,0,5.243-6.609V40.924a6.813,6.813,0,0,0-6.8-6.8h0a6.813,6.813,0,0,0-6.8,6.8V52.478a6.8,6.8,0,0,0,5.243,6.609v4.421H71.567V59.727h15.91A3.324,3.324,0,0,0,90.8,56.409V27.526a3.325,3.325,0,0,0-3.319-3.319H40.523A3.324,3.324,0,0,0,37.2,27.526V56.409a3.324,3.324,0,0,0,3.319,3.319h15.91v3.781H26.475V59.087a6.8,6.8,0,0,0,5.243-6.609V40.924a6.813,6.813,0,0,0-6.8-6.8h0a6.813,6.813,0,0,0-6.8,6.8V52.478a6.8,6.8,0,0,0,5.243,6.609v4.421h-6.7a2.065,2.065,0,0,0-1.459.608l-.006.006a2.065,2.065,0,0,0-.608,1.459V83.413a5.769,5.769,0,0,0-1.184.883c-.032.032-.062.065-.09.1a5.714,5.714,0,0,0-1.593,3.951h0a5.718,5.718,0,0,0,1.683,4.044l0,0,0,0,0,0a5.718,5.718,0,0,0,4.04,1.68h4.182v8.161a1.554,1.554,0,0,0,1.554,1.553H27.51v0A1.552,1.552,0,0,0,29,102.683l2.561-8.6H96.442l2.562,8.6a1.552,1.552,0,0,0,1.486,1.109v0H104.8a1.554,1.554,0,0,0,1.553-1.553V94.079h4.183a5.718,5.718,0,0,0,4.047-1.686l0,0a5.717,5.717,0,0,0,1.683-4.05h0a5.586,5.586,0,0,0-2.867-4.933ZM100.473,38.32a3.679,3.679,0,0,1,2.6-1.085h0a3.7,3.7,0,0,1,3.689,3.689v1.213H99.389V40.924A3.677,3.677,0,0,1,100.473,38.32ZM99.389,52.478V45.245h7.379v7.233a3.7,3.7,0,0,1-3.689,3.689h0a3.7,3.7,0,0,1-3.689-3.689ZM22.317,38.32a3.678,3.678,0,0,1,2.6-1.085h0a3.7,3.7,0,0,1,3.689,3.689v1.213H21.232V40.924A3.678,3.678,0,0,1,22.317,38.32ZM21.232,52.478V45.245h7.379v7.233a3.7,3.7,0,0,1-3.689,3.689h0a3.7,3.7,0,0,1-3.689-3.689ZM110.3,82.613H65.553v-16H110.3ZM40.374,27.377a.21.21,0,0,1,.148-.063H87.476a.216.216,0,0,1,.212.212V50.358H40.311V27.526A.212.212,0,0,1,40.374,27.377Zm0,29.18a.211.211,0,0,1-.063-.149V53.465H87.688v2.944a.215.215,0,0,1-.212.212H40.523A.211.211,0,0,1,40.374,56.557Zm28.086,3.17v3.607h-8.92V59.727ZM17.7,66.615H62.446v16H17.7Zm8.654,34.071H24.748V94.079h3.573Zm76.9,0h-1.606l-1.967-6.607h3.572Zm9.915-12.34a2.618,2.618,0,0,1-.772,1.853l0,0,0,0a2.614,2.614,0,0,1-1.853.766H17.459a2.614,2.614,0,0,1-1.853-.766L15.6,90.2a2.613,2.613,0,0,1-.766-1.853h0a2.614,2.614,0,0,1,.706-1.79c.023-.02.045-.041.067-.063a2.618,2.618,0,0,1,1.853-.772h93.082a2.637,2.637,0,0,1,2.625,2.625Z" style="fill:#983c2a"/><circle cx="103.078" cy="52.671" r="1.622" style="fill:#983c2a"/><circle cx="103.078" cy="48.254" r="1.622" style="fill:#983c2a"/><circle cx="24.921" cy="52.671" r="1.622" style="fill:#983c2a"/><circle cx="24.921" cy="48.254" r="1.622" style="fill:#983c2a"/></svg>