<svg xmlns="http://www.w3.org/2000/svg" data-name="Layer 1" viewBox="0 0 128 128"><path fill="#fff" fill-rule="evenodd" d="m35.8 76.929.059-1.057A28.209 28.209 0 0 1 57.1 50.148l-.018-.04h-.2s13.146-1.3 13-.983c4.893 1.266 10.475 4.847 14.055 8.428a28.122 28.122 0 0 1 8.209 18.319l.06 1.057zm30.388-30.573v-1.034h-4.213v1.023z"/><path fill="#e5e5e5" fill-rule="evenodd" d="M67.081 48.354A28.75 28.75 0 0 0 64 48.19c-.974 0-1.958.049-2.926.145l-1.1.109v-5.122h8.213v5.151z"/><path fill="#ffe749" fill-rule="evenodd" d="M64 88.19a10.71 10.71 0 0 1-10.572-9l-.187-1.159h21.518l-.187 1.169A10.71 10.71 0 0 1 64 88.19z"/><path fill="#983c2a" d="M70.3 47.85v-3.59a3.036 3.036 0 0 0-.89-2.142 3.039 3.039 0 0 0-2.145-.893h-1.643l-.075-15.461a1.547 1.547 0 0 0-3.095.012l.075 15.449h-1.614a3.037 3.037 0 0 0-2.142.89 3.038 3.038 0 0 0-.893 2.145v3.553a30.306 30.306 0 0 0-24.16 29.67 1.554 1.554 0 0 0 1.554 1.553h16.016a12.805 12.805 0 0 0 25.425 0h16.026a1.554 1.554 0 0 0 1.553-1.553 30.3 30.3 0 0 0-24-29.632zm-9.32-3.528h6.213v3.036c-.1-.011-.208-.019-.311-.028-.124-.012-.249-.025-.372-.035-.068-.006-.137 0-.205-.009-.76-.057-1.525-.1-2.3-.1-.748 0-1.487.037-2.221.09-.065 0-.13 0-.2.008-.157.012-.316.028-.475.043l-.134.01zm9.89 40.026a9.71 9.71 0 0 1-16.45-5.312h19.17a9.687 9.687 0 0 1-2.725 5.312zm4.4-8.419h-38.4a27.19 27.19 0 0 1 22.924-25.307c.577-.089 1.186-.16 1.818-.214.153-.013.307-.024.46-.035A26.92 26.92 0 0 1 64 50.297c.685 0 1.355.033 2.016.082.14.01.281.02.421.032.626.056 1.233.128 1.814.219a27.187 27.187 0 0 1 22.89 25.3zM64 92.343a1.548 1.548 0 0 0-1.547 1.548v8.35a1.547 1.547 0 1 0 3.095 0V93.89A1.547 1.547 0 0 0 64 92.343zM73.545 90.921a1.547 1.547 0 0 0-2.682 1.541l4.175 7.231a1.546 1.546 0 0 0 2.682-1.541z"/><path fill="#983c2a" d="m86.217 88.52-7.231-4.175a1.55 1.55 0 1 0-1.554 2.682l7.232 4.173a1.55 1.55 0 0 0 1.554-2.682zM51.131 84.916a1.547 1.547 0 0 0-2.112-.57l-7.231 4.174a1.547 1.547 0 1 0 1.542 2.68l7.231-4.175a1.547 1.547 0 0 0 .57-2.109zM56.573 90.351a1.55 1.55 0 0 0-2.118.564l-4.175 7.231a1.55 1.55 0 1 0 2.682 1.554l4.175-7.231a1.55 1.55 0 0 0-.564-2.118z"/></svg>