<svg id="Layer_1" data-name="Layer 1" xmlns="http://www.w3.org/2000/svg" viewBox="0 0 128 128"><title>Artboard 12</title><path d="M37.576,101.729a6.415,6.415,0,0,1-6.405-6.406V36.475H96.829V95.323a6.415,6.415,0,0,1-6.405,6.406ZM64,56.385a15.893,15.893,0,0,0-15.886,15.41c-.009.175-.014.329-.014.483l.007.14a15.894,15.894,0,0,0,31.779.343c.009-.174.014-.328.014-.482l-.007-.14A15.9,15.9,0,0,0,64,56.385ZM38.082,45.3a.554.554,0,1,0,0,1.107h8.155a.554.554,0,1,0,0-1.107Z" style="fill:#ffe749;fill-rule:evenodd"/><path d="M31.171,35.367v-2.69a6.415,6.415,0,0,1,6.405-6.406h25.87v9.1Z" style="fill:#fff;fill-rule:evenodd"/><path d="M64.554,35.367v-9.1h25.87a6.415,6.415,0,0,1,6.405,6.406v2.69Z" style="fill:#fff;fill-rule:evenodd"/><path d="M64,87.065A14.785,14.785,0,0,1,49.214,72.278l0-.4a7.119,7.119,0,0,1,14.228.4,8.233,8.233,0,0,0,10.9,7.783l3.328-1.145-2.229,2.724c-.311.379-.644.747-.99,1.094A14.689,14.689,0,0,1,64,87.065Z" style="fill:#59c4c6;fill-rule:evenodd"/><path d="M71.674,79.4a7.119,7.119,0,0,1-7.12-7.12,8.232,8.232,0,0,0-10.9-7.782l-3.324,1.146,2.224-2.725c.3-.373.638-.741.99-1.095A14.787,14.787,0,0,1,78.787,72.278l0,.4a7.119,7.119,0,0,1-7.108,6.72Z" style="fill:#fff;fill-rule:evenodd"/><path d="M37.576,103.836H90.424a8.484,8.484,0,0,0,6.008-2.5l.006-.006a8.481,8.481,0,0,0,2.5-6.007V32.676a8.482,8.482,0,0,0-2.5-6.007l-.006-.006a8.483,8.483,0,0,0-6.008-2.5H37.576a8.482,8.482,0,0,0-6.007,2.5l-.006.006a8.483,8.483,0,0,0-2.5,6.007V95.324a8.482,8.482,0,0,0,2.5,6.007l.006.006A8.483,8.483,0,0,0,37.576,103.836Zm56.667-4.693a5.4,5.4,0,0,1-3.82,1.586H37.576a5.414,5.414,0,0,1-5.406-5.406V37.474H95.829V95.324A5.4,5.4,0,0,1,94.244,99.143Zm0-70.287a5.4,5.4,0,0,1,1.586,3.82v1.691H65.554v-7.1h24.87A5.4,5.4,0,0,1,94.244,28.857Zm-60.487,0a5.4,5.4,0,0,1,3.82-1.586h24.87v7.1H32.171V32.676A5.4,5.4,0,0,1,33.757,28.857Z" style="fill:#983c2a"/><path d="M47.791,45.854A1.554,1.554,0,0,0,46.238,44.3H38.082a1.554,1.554,0,0,0,0,3.107h8.156A1.554,1.554,0,0,0,47.791,45.854Z" style="fill:#983c2a"/><path d="M80.888,72.15a16.879,16.879,0,0,0-33.73-.876,9.3,9.3,0,0,0-.057,1.005c0,.043.009.084.013.126a16.88,16.88,0,0,0,33.73.88,9.311,9.311,0,0,0,.057-1.006C80.9,72.235,80.891,72.193,80.888,72.15ZM64,58.492A13.786,13.786,0,0,1,77.787,72.279c0,.232-.023.459-.035.688a6.119,6.119,0,0,1-12.2-.688,9.207,9.207,0,0,0-12.233-8.716A13.729,13.729,0,0,1,64,58.492Zm0,27.573A13.785,13.785,0,0,1,50.214,72.279c0-.232.023-.459.035-.688a6.118,6.118,0,0,1,12.2.688,9.208,9.208,0,0,0,12.232,8.716A13.73,13.73,0,0,1,64,86.065Z" style="fill:#983c2a"/></svg>