<svg id="Layer_1" data-name="Layer 1" xmlns="http://www.w3.org/2000/svg" viewBox="0 0 128 128"><title>Artboard 1</title><path d="M21.088,96.83l-.847-.848V32.019l.847-.848h85.824l.848.848V95.982l-.848.848Zm8.967-57.089a1.857,1.857,0,0,0-1.842,1.842V86.417a1.856,1.856,0,0,0,1.842,1.842h67.89a1.856,1.856,0,0,0,1.842-1.842V41.583a1.857,1.857,0,0,0-1.842-1.842Z" style="fill:#eeaf1e;fill-rule:evenodd"/><path d="M31.309,87.152l7.764-13.446,8.034-13.922L57.454,77.711a.549.549,0,0,0,.959.015L74.831,49.284l21.86,37.868Z" style="fill:#59c4c6;fill-rule:evenodd"/><path d="M75.306,47.92a.549.549,0,0,0-.476-.276.549.549,0,0,0-.472.273L57.937,76.351,47.581,58.42a.55.55,0,0,0-.477-.276.544.544,0,0,0-.471.272L29.32,88.4V40.848H98.68V88.4ZM57.687,46.551a4.8,4.8,0,1,0,.058,9.6,4.632,4.632,0,0,0,3.333-1.409,4.8,4.8,0,0,0-3.392-8.188Z" style="fill:#fff;fill-rule:evenodd"/><path d="M57.71,55.041A3.668,3.668,0,0,1,54,51.348a3.707,3.707,0,0,1,3.713-3.693A3.638,3.638,0,0,1,60.3,48.739a3.739,3.739,0,0,1,1.076,2.737A3.506,3.506,0,0,1,60.261,54a3.61,3.61,0,0,1-2.55,1.045Z" style="fill:#ffe749;fill-rule:evenodd"/><path d="M19.122,97.942l0,0,0,0a3.36,3.36,0,0,0,2.374.989h85a3.36,3.36,0,0,0,2.371-.986l0,0,0,0,0,0a3.36,3.36,0,0,0,.989-2.374V32.432a3.361,3.361,0,0,0-.986-2.371l0,0,0,0,0,0a3.361,3.361,0,0,0-2.374-.988h-85a3.36,3.36,0,0,0-2.371.986l0,0,0,0,0,0a3.36,3.36,0,0,0-.988,2.374V95.568a3.361,3.361,0,0,0,.985,2.371Zm2.119-65.51a.258.258,0,0,1,.072-.183l.006-.006a.258.258,0,0,1,.183-.072h85a.258.258,0,0,1,.183.072l.006.006a.257.257,0,0,1,.072.183V95.568a.257.257,0,0,1-.072.183l-.006.006a.257.257,0,0,1-.183.072h-85a.257.257,0,0,1-.183-.072l-.006-.006a.258.258,0,0,1-.072-.183Z" style="fill:#983c2a"/><path d="M28.052,88.425a2.83,2.83,0,0,0,2,.834h67.89a2.832,2.832,0,0,0,2-.834l.006-.006a2.832,2.832,0,0,0,.834-2V41.583a2.829,2.829,0,0,0-.834-2l-.006-.006a2.832,2.832,0,0,0-2-.834H30.055a2.829,2.829,0,0,0-2,.834l-.006.006a2.829,2.829,0,0,0-.834,2V86.417a2.832,2.832,0,0,0,.834,2Zm46.779-2.273H33.041l7.031-12.177,0,0,0,0,7.035-12.185,6.988,12.1c.014.029.03.058.047.087l2.446,4.237a1.55,1.55,0,0,0,2.691.016l5.487-9.5h0l0,0L74.831,51.284,84.85,68.638q.021.044.047.087L94.959,86.152Zm22.849-44.3V84.667l-10.1-17.5-.05-.081L76.172,47.42a1.546,1.546,0,0,0-2.682,0l-11.4,19.753,0,0-4.145,7.18-1.114-1.93-.05-.081L48.448,57.92a1.546,1.546,0,0,0-2.682,0l-8.373,14.5,0,0L30.32,84.665V41.848Z" style="fill:#983c2a"/><path d="M53.594,55.447a5.788,5.788,0,0,0,8.192,0l0,0a5.792,5.792,0,0,0-8.1-8.284c-.034.029-.066.058-.1.09a5.789,5.789,0,0,0,0,8.192Zm2.191-6c.022-.022.043-.044.063-.067A2.694,2.694,0,0,1,59.6,53.25l0,0,0,0a2.69,2.69,0,0,1-3.8-3.8Z" style="fill:#983c2a"/></svg>