<svg id="Layer_1" data-name="Layer 1" xmlns="http://www.w3.org/2000/svg" viewBox="0 0 128 128"><title>Artboard 4</title><rect x="51.236" y="67.802" width="18.249" height="8.771" rx="4.385" ry="4.385" style="fill:#eeaf1e"/><path d="M57.188,96.156a3.093,3.093,0,0,0,3.146,3.1,2.913,2.913,0,0,0,2.128-.9,3.073,3.073,0,0,0,.914-2.192V78.829H57.188Z" style="fill:#eeaf1e;fill-rule:evenodd"/><path d="M53.082,77.186v18.97a7.2,7.2,0,0,0,14.4,0V77.19l0-.672a1.555,1.555,0,0,0-1.946-1.5l-10.012.029-.4,0a1.55,1.55,0,0,0-2.042,1.475Zm3.107.643h8.188V96.156a4.094,4.094,0,0,1-8.188,0Zm-.665-2.784,9.659.038a2.358,2.358,0,0,1-.268.015H55.652Zm9.659.038c.052-.006.1-.013.155-.022h0l-.107.022Zm.155-.022.2-.041c-.029,0-.058.011-.087.018Z" style="fill:#eeaf1e;fill-rule:evenodd"/><path d="M37.014,47.327a10.291,10.291,0,0,1,0-20.581H83.553a10.291,10.291,0,0,1,0,20.581Z" style="fill:#ef4d55;fill-rule:evenodd"/><path d="M60.335,101.252a5.074,5.074,0,0,1-5.146-5.1V76.829H65.377V96.156a5.053,5.053,0,0,1-1.491,3.6,4.93,4.93,0,0,1-3.55,1.5Z" style="fill:#eeaf1e;fill-rule:evenodd"/><path d="M104.254,39.015a12.019,12.019,0,0,0-8.412-3.526,12.415,12.415,0,0,0-12.289-10.85H37.014A12.416,12.416,0,0,0,24.725,35.483H21.767a1.553,1.553,0,0,0,0,3.107h2.958A12.416,12.416,0,0,0,37.014,49.434H83.553A12.415,12.415,0,0,0,95.84,38.6a8.949,8.949,0,0,1-.113,17.9c-.021,0-.04.005-.06.006H60.221a1.515,1.515,0,0,0-.153.016c-.052.005-.106.006-.156.016a1.5,1.5,0,0,0-.145.045c-.049.015-.1.026-.145.046s-.083.045-.125.068a1.553,1.553,0,0,0-.138.075c-.036.025-.067.056-.1.083a1.562,1.562,0,0,0-.127.106c-.028.028-.051.062-.077.093a1.535,1.535,0,0,0-.112.137c-.021.031-.035.067-.054.1a1.541,1.541,0,0,0-.088.163c-.016.039-.025.082-.038.123a1.508,1.508,0,0,0-.051.168c-.01.049-.01.1-.015.152a1.511,1.511,0,0,0-.016.157v.006l.048,8.763H55.652a5.5,5.5,0,0,0-3.89,9.4l0,0a5.573,5.573,0,0,0,1.317.947v19a7.183,7.183,0,0,0,2.112,5.078l0,0,0,0,0,0a7.183,7.183,0,0,0,5.08,2.114h0a7.181,7.181,0,0,0,5.078-2.112l0,0,0,0,0,0a7.183,7.183,0,0,0,2.115-5.081v-19a5.539,5.539,0,0,0,1.321-.948l0,0,0,0a5.476,5.476,0,0,0,0-7.769l-.006-.006a5.486,5.486,0,0,0-3.884-1.616H61.822l-.039-7.222H95.665c.021,0,.041.006.063.006a12.058,12.058,0,0,0,8.526-20.585ZM90.113,43.6a9.262,9.262,0,0,1-6.56,2.73H37.014a9.322,9.322,0,0,1-9.291-9.289h0v0a9.322,9.322,0,0,1,9.291-9.288H83.553A9.278,9.278,0,0,1,90.113,43.6ZM64.377,96.156a4.077,4.077,0,0,1-1.2,2.89l-.006.006a4.078,4.078,0,0,1-2.89,1.2h0a4.076,4.076,0,0,1-2.89-1.2l-.006-.006a4.078,4.078,0,0,1-1.2-2.89V77.829h8.188Zm2.234-25.531a2.4,2.4,0,0,1,0,3.394l0,0a2.4,2.4,0,0,1-1.206.655l-.013,0a2.375,2.375,0,0,1-.474.048H55.652a2.389,2.389,0,0,1-1.694-.7l0,0,0,0a2.4,2.4,0,0,1,1.694-4.093h9.263A2.4,2.4,0,0,1,66.611,70.625Z" style="fill:#983c2a"/></svg>