<svg id="Layer_1" data-name="Layer 1" xmlns="http://www.w3.org/2000/svg" viewBox="0 0 128 128"><title>Artboard 15</title><path d="M39.817,70.12l6.262-36.55a9.92,9.92,0,0,1,2.583-5.336,6.379,6.379,0,0,1,4.592-1.921H74.746a6.361,6.361,0,0,1,4.579,1.916,10.016,10.016,0,0,1,2.6,5.343L88.344,70.12Z" style="fill:#ffe749;fill-rule:evenodd"/><path d="M39.163,74.6a1.684,1.684,0,0,1,0-3.368H89A1.684,1.684,0,0,1,89,74.6Z" style="fill:#fff;fill-rule:evenodd"/><path d="M47.707,97.211l.465-1.33A5.8,5.8,0,0,1,49.544,93.7a5.7,5.7,0,0,1,4.06-1.688H74.4A5.708,5.708,0,0,1,78.457,93.7a5.8,5.8,0,0,1,1.371,2.177l.465,1.33Z" style="fill:#eeaf1e;fill-rule:evenodd"/><path d="M38.373,101.687a1.684,1.684,0,0,1,0-3.368H89.626a1.684,1.684,0,0,1,0,3.368Z" style="fill:#eeaf1e;fill-rule:evenodd"/><path d="M92.3,97.327l0,0,0,0a3.783,3.783,0,0,0-2.67-1.11H82.1a7.882,7.882,0,0,0-7.7-6.3h-8.76V76.7H89a3.782,3.782,0,0,0,2.672-1.113l0,0,0,0,0,0a3.781,3.781,0,0,0,1.11-2.67h0a3.782,3.782,0,0,0-1.112-2.672l0,0,0,0,0,0a3.826,3.826,0,0,0-1.321-.848L83.993,33.211a12.109,12.109,0,0,0-3.179-6.471,8.391,8.391,0,0,0-6.068-2.534H53.254a8.413,8.413,0,0,0-6.081,2.539,12.02,12.02,0,0,0-3.167,6.472l-6.2,36.166a3.822,3.822,0,0,0-1.32.849l0,0,0,0,0,0a3.783,3.783,0,0,0-1.11,2.67h0a3.782,3.782,0,0,0,1.113,2.673l0,0,0,0,0,0a3.783,3.783,0,0,0,2.67,1.11H62.529v13.2H53.6a7.882,7.882,0,0,0-7.7,6.3h-7.53A3.781,3.781,0,0,0,35.7,97.324l0,0,0,0,0,0a3.783,3.783,0,0,0-1.11,2.67h0a3.781,3.781,0,0,0,1.112,2.672l0,0,0,0,0,0a3.781,3.781,0,0,0,2.67,1.11H89.626a3.782,3.782,0,0,0,2.672-1.112l0,0,0,0,0,0a3.782,3.782,0,0,0,1.11-2.67h0A3.782,3.782,0,0,0,92.3,97.329ZM47.065,33.739a8.907,8.907,0,0,1,2.3-4.8,5.379,5.379,0,0,1,3.884-1.628H74.746a5.358,5.358,0,0,1,3.872,1.623,9,9,0,0,1,2.317,4.808L87.152,69.12H41ZM38.681,73.4l-.006-.006a.679.679,0,0,1-.2-.482h0a.678.678,0,0,1,.2-.482l.006-.006a.68.68,0,0,1,.482-.2H89a.68.68,0,0,1,.482.2l.006.006a.68.68,0,0,1,.2.482h0a.68.68,0,0,1-.2.482l-.006.006a.678.678,0,0,1-.482.2H39.163A.679.679,0,0,1,38.681,73.4ZM50.25,94.411a4.737,4.737,0,0,1,3.354-1.4H74.4a4.779,4.779,0,0,1,4.487,3.2H49.117A4.779,4.779,0,0,1,50.25,94.411ZM90.31,100a.678.678,0,0,1-.2.482l-.006.006a.68.68,0,0,1-.482.2H38.374a.678.678,0,0,1-.482-.2l-.006-.006a.678.678,0,0,1-.2-.482h0a.679.679,0,0,1,.2-.482l.006-.006a.678.678,0,0,1,.482-.2H89.626a.679.679,0,0,1,.482.2l.006.006a.679.679,0,0,1,.2.482Z" style="fill:#983c2a"/></svg>