<svg xmlns="http://www.w3.org/2000/svg" data-name="Layer 1" viewBox="0 0 128 128"><path fill="#eeaf1e" fill-rule="evenodd" d="m21.088 96.83-.847-.848V32.019l.847-.848h85.824l.848.848v63.963l-.848.848zm8.967-57.089a1.857 1.857 0 0 0-1.842 1.842v44.834a1.856 1.856 0 0 0 1.842 1.842h67.89a1.856 1.856 0 0 0 1.842-1.842V41.583a1.857 1.857 0 0 0-1.842-1.842z"/><path fill="#59c4c6" fill-rule="evenodd" d="m31.309 87.152 7.764-13.446 8.034-13.922 10.347 17.927a.549.549 0 0 0 .959.015l16.418-28.442 21.86 37.868z"/><path fill="#fff" fill-rule="evenodd" d="M75.306 47.92a.549.549 0 0 0-.476-.276.549.549 0 0 0-.472.273L57.937 76.351 47.581 58.42a.55.55 0 0 0-.477-.276.544.544 0 0 0-.471.272L29.32 88.4V40.848h69.36V88.4zm-17.619-1.369a4.8 4.8 0 1 0 .058 9.6 4.632 4.632 0 0 0 3.333-1.409 4.8 4.8 0 0 0-3.392-8.188z"/><path fill="#ffe749" fill-rule="evenodd" d="M57.71 55.041A3.668 3.668 0 0 1 54 51.348a3.707 3.707 0 0 1 3.713-3.693 3.638 3.638 0 0 1 2.587 1.084 3.739 3.739 0 0 1 1.076 2.737A3.506 3.506 0 0 1 60.261 54a3.61 3.61 0 0 1-2.55 1.045z"/><path fill="#983c2a" d="M19.122 97.942a3.36 3.36 0 0 0 2.374.989h85a3.36 3.36 0 0 0 2.371-.986 3.36 3.36 0 0 0 .989-2.374V32.432a3.361 3.361 0 0 0-.986-2.371 3.361 3.361 0 0 0-2.374-.988h-85a3.36 3.36 0 0 0-2.371.986 3.36 3.36 0 0 0-.988 2.374v63.135a3.361 3.361 0 0 0 .985 2.371zm2.119-65.51a.258.258 0 0 1 .072-.183l.006-.006a.258.258 0 0 1 .183-.072h85a.258.258 0 0 1 .183.072l.006.006a.257.257 0 0 1 .072.183v63.136a.257.257 0 0 1-.072.183l-.006.006a.257.257 0 0 1-.183.072h-85a.257.257 0 0 1-.183-.072l-.006-.006a.258.258 0 0 1-.072-.183z"/><path fill="#983c2a" d="M28.052 88.425a2.83 2.83 0 0 0 2 .834h67.89a2.832 2.832 0 0 0 2-.834l.006-.006a2.832 2.832 0 0 0 .834-2V41.583a2.829 2.829 0 0 0-.834-2l-.006-.006a2.832 2.832 0 0 0-2-.834H30.055a2.829 2.829 0 0 0-2 .834l-.006.006a2.829 2.829 0 0 0-.834 2v44.834a2.832 2.832 0 0 0 .834 2zm46.779-2.273h-41.79l7.031-12.177 7.035-12.185 6.988 12.1c.014.029.03.058.047.087l2.446 4.237a1.55 1.55 0 0 0 2.691.016l5.487-9.5 10.065-17.446L84.85 68.638q.021.044.047.087l10.062 17.427zm22.849-44.3v42.815l-10.1-17.5-.05-.081L76.172 47.42a1.546 1.546 0 0 0-2.682 0l-11.4 19.753-4.145 7.18-1.114-1.93-.05-.081-8.333-14.422a1.546 1.546 0 0 0-2.682 0l-8.373 14.5-7.073 12.245V41.848z"/><path fill="#983c2a" d="M53.594 55.447a5.788 5.788 0 0 0 8.192 0 5.792 5.792 0 0 0-8.1-8.284 2.706 2.706 0 0 0-.1.09 5.789 5.789 0 0 0 0 8.192zm2.191-6c.022-.022.043-.044.063-.067a2.694 2.694 0 0 1 3.752 3.87 2.69 2.69 0 0 1-3.8-3.8z"/></svg>