<svg xmlns="http://www.w3.org/2000/svg" data-name="Layer 1" viewBox="0 0 128 128"><path fill="#fc5796" d="M24.476 47.903h79.047v42.193H24.476z"/><path fill="#39edfd" d="M77.5 37.903h-27l-4 10h35l-4-10zM29.5 42.903h10v5h-10zM92.25 53.153h6v6h-6z"/><circle cx="64" cy="69.153" r="14.483" fill="#39edfd"/><path fill="#2d2f70" d="M103.523 46.653H48.346l3-7.5h25.307l1.686 4.214a1.25 1.25 0 102.32-.929l-2-5a1.249 1.249 0 00-1.16-.786h-27a1.25 1.25 0 00-1.161.786l-3.686 9.214H30.75v-2.5h8.75a1.25 1.25 0 000-2.5h-10a1.25 1.25 0 00-1.25 1.25v3.75h-3.773a1.25 1.25 0 00-1.25 1.25V90.1a1.25 1.25 0 001.25 1.25h79.047a1.25 1.25 0 001.25-1.25V47.9a1.25 1.25 0 00-1.251-1.247zm-1.25 42.193H25.727V49.153h76.547z"/><path fill="#2d2f70" d="M92.25 60.4h6a1.25 1.25 0 001.25-1.25v-6a1.25 1.25 0 00-1.25-1.25h-6A1.25 1.25 0 0091 53.153v6a1.25 1.25 0 001.25 1.247zm1.25-6H97v3.5h-3.5zM54.439 59.525a1.244 1.244 0 00.825-.312q.173-.152.35-.3a1.25 1.25 0 10-1.585-1.934q-.212.174-.417.354a1.25 1.25 0 00.826 2.189z"/><path fill="#2d2f70" d="M64 84.886a15.733 15.733 0 10-5.94-30.3A1.25 1.25 0 1059 56.9a13.237 13.237 0 11-6.07 5 1.25 1.25 0 10-2.09-1.372A15.735 15.735 0 0064 84.886z"/></svg>