<svg xmlns="http://www.w3.org/2000/svg" data-name="Layer 1" viewBox="0 0 128 128"><path fill="#39edfd" d="M32.262 49.92H95.737V103.523H32.262z"/><path fill="#fc5796" d="M27.01 41.618H100.99000000000001V49.92100000000001H27.01z"/><path fill="#fc5796" d="M60.384 41.618H67.615V103.524H60.384z"/><path fill="#2d2f70" d="M100.99 40.368H79.445a9.216 9.216 0 0 0 2.946-6.75v-1.141a9.26 9.26 0 0 0-9.25-9.25H72a9.248 9.248 0 0 0-8 4.627 9.248 9.248 0 0 0-8-4.627h-1.141a9.26 9.26 0 0 0-9.25 9.25v1.141a9.216 9.216 0 0 0 2.946 6.75H27.01a1.25 1.25 0 0 0-1.25 1.25v8.3a1.25 1.25 0 0 0 1.25 1.25h4v52.353a1.25 1.25 0 0 0 1.25 1.25h63.478a1.25 1.25 0 0 0 1.25-1.25V55.5a1.25 1.25 0 1 0-2.5 0v46.773H68.866V42.868H99.74v5.8H72.57a1.25 1.25 0 0 0 0 2.5h28.42a1.25 1.25 0 0 0 1.25-1.25v-8.3a1.25 1.25 0 0 0-1.25-1.25zM72 25.727h1.141a6.757 6.757 0 0 1 6.75 6.75v1.141a6.757 6.757 0 0 1-6.75 6.75H65.25v-7.891a6.757 6.757 0 0 1 6.75-6.75zm-23.891 7.891v-1.141a6.757 6.757 0 0 1 6.75-6.75H56a6.757 6.757 0 0 1 6.75 6.75v7.891h-7.891a6.757 6.757 0 0 1-6.75-6.75zm-19.849 9.25h30.874v5.8H28.26zm38.106 59.406H33.512V51.17h25.622v41.456a1.25 1.25 0 1 0 2.5 0V42.868h4.731z"/><path fill="#2d2f70" d="M60.384 95.626a1.25 1.25 0 0 0-1.25 1.25v1.062a1.25 1.25 0 1 0 2.5 0v-1.062a1.25 1.25 0 0 0-1.25-1.25z"/></svg>