<svg id="Layer_1" data-name="Layer 1" xmlns="http://www.w3.org/2000/svg" viewBox="0 0 128 128"><title>SMARTPHONE</title><rect x="38.875" y="24.477" width="50.25" height="79.047" style="fill:#fc5796"/><rect x="38.875" y="32.013" width="50.25" height="63.237" style="fill:#39edfd"/><path d="M89.125,23.227H38.875a1.25,1.25,0,0,0-1.25,1.25v79.047a1.25,1.25,0,0,0,1.25,1.25h50.25a1.25,1.25,0,0,0,1.25-1.25V24.477A1.25,1.25,0,0,0,89.125,23.227Zm-49,79.047V96.5H78.688a1.25,1.25,0,0,0,0-2.5H40.125V25.727h47.75v5.036h-44a1.25,1.25,0,0,0,0,2.5h44v69.011Z" style="fill:#2d2f70"/><path d="M84.125,94h-.688a1.25,1.25,0,0,0,0,2.5h.688a1.25,1.25,0,0,0,0-2.5Z" style="fill:#2d2f70"/><path d="M59.75,29.48h8.5a1.25,1.25,0,0,0,0-2.5h-8.5a1.25,1.25,0,0,0,0,2.5Z" style="fill:#2d2f70"/><path d="M64,97.71a1.375,1.375,0,1,0,1.375,1.375A1.377,1.377,0,0,0,64,97.71Z" style="fill:#2d2f70"/></svg>