<svg id="Layer_1" data-name="Layer 1" xmlns="http://www.w3.org/2000/svg" viewBox="0 0 128 128"><title>CAKE</title><path d="M95.273,96.688H32.726a8.25,8.25,0,0,1-8.25-8.25h79.047A8.25,8.25,0,0,1,95.273,96.688Z" style="fill:#fd975e"/><rect x="32.25" y="66.438" width="63.5" height="22" style="fill:#39edfd"/><path d="M32.25,74.525a36.325,36.325,0,0,0,22-.087C68,70.29,87.645,72.242,95.75,75.8V66.438H32.25Z" style="fill:#fc5796"/><rect x="44.25" y="48.688" width="39.5" height="17.75" style="fill:#39edfd"/><path d="M44.25,56.084a42.744,42.744,0,0,0,15.4-.271c10.22-2.209,17.953-2.477,24.1-.3V48.688H44.25Z" style="fill:#fc5796"/><path d="M103.523,87.188H97V75.818h0v-9.38a1.25,1.25,0,0,0-1.25-1.25H45.5V57.515a47.831,47.831,0,0,0,5.974.391,39.921,39.921,0,0,0,8.441-.872c9.836-2.125,17.047-2.322,22.585-.611v4.744a1.25,1.25,0,0,0,2.5,0V48.688a1.25,1.25,0,0,0-1.25-1.25H70.182a22.664,22.664,0,0,1,.7-3.95,23.128,23.128,0,0,1,2.213-5.495,17.85,17.85,0,0,1,2.856-3.966V31.619H64.608V34.7h7.543a24.383,24.383,0,0,0-3.736,6.669,22.77,22.77,0,0,0-1.4,6.068H59.65V31.313H56.959A6.123,6.123,0,0,1,54.87,34.08a9.593,9.593,0,0,1-2.821,1.611V38.7a11.434,11.434,0,0,0,4.285-2.514v11.25H44.25A1.25,1.25,0,0,0,43,48.688v16.5H32.25A1.25,1.25,0,0,0,31,66.438V82.5a1.25,1.25,0,0,0,2.5,0V76.2a35.351,35.351,0,0,0,9.328,1.231,40.686,40.686,0,0,0,11.783-1.8c7.175-2.164,15.116-2.414,20.514-2.24a1.221,1.221,0,0,0,1.29-1.209A1.25,1.25,0,0,0,75.2,70.9c-5.582-.178-13.816.084-21.315,2.345a35.235,35.235,0,0,1-20.389.365V67.688h61v6.284a48.733,48.733,0,0,0-7.582-1.9,1.25,1.25,0,1,0-.434,2.462,43.062,43.062,0,0,1,8.016,2.1v10.55H24.477a1.25,1.25,0,0,0-1.25,1.25,9.511,9.511,0,0,0,9.5,9.5H95.273a9.511,9.511,0,0,0,9.5-9.5A1.25,1.25,0,0,0,103.523,87.188ZM82.5,49.938v3.882c-5.888-1.636-13.12-1.388-23.114.772a40.525,40.525,0,0,1-13.886.4V49.938Zm12.773,45.5H32.727a7.012,7.012,0,0,1-6.888-5.75h76.323A7.012,7.012,0,0,1,95.273,95.438Z" style="fill:#2d2f70"/><path d="M80.386,73.723a1.147,1.147,0,0,0,.117.005,1.25,1.25,0,0,0,.114-2.495l-.836-.074a1.25,1.25,0,1,0-.211,2.491Z" style="fill:#2d2f70"/></svg>