<svg id="Layer_1" data-name="Layer 1" xmlns="http://www.w3.org/2000/svg" viewBox="0 0 128 128"><title>SWEET 17</title><rect x="28.197" y="31.918" width="71.605" height="71.605" style="fill:#fff"/><rect x="28.197" y="31.918" width="71.605" height="16.998" style="fill:#fc5796"/><rect x="40.95" y="24.477" width="8.453" height="14.702" rx="3.881" ry="3.881" style="fill:#fd975e"/><rect x="78.596" y="24.477" width="8.453" height="14.702" rx="3.881" ry="3.881" style="fill:#fd975e"/><path d="M56.4,92.355V62.009H51.7a10.692,10.692,0,0,1-3.649,4.834,16.752,16.752,0,0,1-4.927,2.814v5.257a19.97,19.97,0,0,0,7.484-4.391V92.355Z" style="fill:#2d2f70"/><path d="M69.123,92.355H74.71a35.588,35.588,0,0,1,1.309-9.081,40.39,40.39,0,0,1,3.865-9.6,31.171,31.171,0,0,1,4.989-6.927V62.545H65.062v5.381H78.235A42.594,42.594,0,0,0,71.71,79.573,38.833,38.833,0,0,0,69.123,92.355Z" style="fill:#2d2f70"/><path d="M99.8,53.25a1.25,1.25,0,0,0-1.25,1.25v47.773H29.447V50.167h9.72a1.25,1.25,0,0,0,0-2.5h-9.72v-14.5H39.7V35.3a5.137,5.137,0,0,0,5.131,5.131h.691A5.137,5.137,0,0,0,50.654,35.3v-6.94a5.137,5.137,0,0,0-5.131-5.131h-.691A5.137,5.137,0,0,0,39.7,28.357v2.311H28.2a1.25,1.25,0,0,0-1.25,1.25v17h0v54.606a1.25,1.25,0,0,0,1.25,1.25H99.8a1.25,1.25,0,0,0,1.25-1.25V54.5A1.25,1.25,0,0,0,99.8,53.25ZM42.2,28.357a2.634,2.634,0,0,1,2.631-2.631h.691a2.634,2.634,0,0,1,2.631,2.631V35.3a2.634,2.634,0,0,1-2.631,2.631h-.691A2.634,2.634,0,0,1,42.2,35.3Z" style="fill:#2d2f70"/><path d="M53.916,33.169h23.43V35.3a5.137,5.137,0,0,0,5.131,5.131h.691A5.137,5.137,0,0,0,88.3,35.3v-6.94a5.137,5.137,0,0,0-5.131-5.131h-.691a5.137,5.137,0,0,0-5.131,5.131v2.311H53.916a1.25,1.25,0,0,0,0,2.5Zm25.93-4.811a2.634,2.634,0,0,1,2.631-2.631h.691A2.634,2.634,0,0,1,85.8,28.357V35.3a2.634,2.634,0,0,1-2.631,2.631h-.691A2.634,2.634,0,0,1,79.847,35.3Z" style="fill:#2d2f70"/><path d="M99.8,30.669h-8.47a1.25,1.25,0,0,0,0,2.5h7.22v14.5H48.813a1.25,1.25,0,0,0,0,2.5H99.8a1.25,1.25,0,0,0,1.25-1.25v-17A1.25,1.25,0,0,0,99.8,30.669Z" style="fill:#2d2f70"/><path d="M44.75,47.667H44a1.25,1.25,0,0,0,0,2.5h.75a1.25,1.25,0,0,0,0-2.5Z" style="fill:#2d2f70"/></svg>