<svg xmlns="http://www.w3.org/2000/svg" data-name="Layer 1" viewBox="0 0 128 128"><path fill="#fc5796" d="M96.705 103.523 31.295 103.523 36.598 42.791 91.401 42.791 96.705 103.523z"/><path fill="#2d2f70" d="M47.193 42.794v8.554a1.25 1.25 0 1 0 2.5 0v-7.307h23.64a1.25 1.25 0 0 0 0-2.5h-23.64v-1.508a14.307 14.307 0 0 1 28.614 0v11.315a1.25 1.25 0 1 0 2.5 0v-7.307h9.449l4.3 49.268A1.25 1.25 0 0 0 95.8 94.45h.11a1.249 1.249 0 0 0 1.136-1.353l-4.4-50.409a1.249 1.249 0 0 0-1.246-1.147H80.807v-1.508a16.807 16.807 0 0 0-33.614 0v2.76z"/><path fill="#2d2f70" d="M96.705 102.273H32.659l5.085-58.232H43a1.25 1.25 0 0 0 0-2.5h-6.4a1.249 1.249 0 0 0-1.245 1.142l-5.3 60.732a1.25 1.25 0 0 0 1.245 1.358h65.41a1.25 1.25 0 0 0 0-2.5zM96.056 96.089a1.25 1.25 0 0 0-1.137 1.354l.036.41a1.25 1.25 0 0 0 1.245 1.141h.11a1.25 1.25 0 0 0 1.137-1.354l-.036-.41a1.25 1.25 0 0 0-1.355-1.141z"/></svg>