<svg xmlns="http://www.w3.org/2000/svg" data-name="Layer 1" viewBox="0 0 128 128"><path fill="#fc5796" d="M95.132 94.5 32.868 94.5 64 34.633 95.132 94.5z"/><path fill="#39edfd" d="M27.845 94.5H100.155V103.523H27.845z"/><circle cx="64" cy="31.357" r="6.881" fill="#39edfd"/><path fill="#39edfd" d="M54.489 52.921 73.51 52.921 76.599 58.862 51.4 58.862 54.489 52.921z"/><path fill="#39edfd" d="M45.001 71.167 82.998 71.167 86.297 77.512 41.702 77.512 45.001 71.167z"/><path fill="#2d2f70" d="M49.833 93.25a1.25 1.25 0 0 0 0 2.5h.73a1.25 1.25 0 0 0 0-2.5z"/><path fill="#2d2f70" d="M100.155 93.25H55.25a1.25 1.25 0 0 0 0 2.5H98.9v6.523H29.1V95.75h15.567a1.25 1.25 0 0 0 0-2.5h-9.74l7.534-14.488h43.077l5.776 11.107a1.25 1.25 0 1 0 2.218-1.154L67.513 38.679a8.369 8.369 0 1 0-2.438.73l6.376 12.262h-14.9l4.849-9.324a1.25 1.25 0 1 0-2.218-1.154L32.109 93.25h-4.264A1.25 1.25 0 0 0 26.6 94.5v9.023a1.25 1.25 0 0 0 1.25 1.25h72.31a1.25 1.25 0 0 0 1.25-1.25V94.5a1.25 1.25 0 0 0-1.255-1.25zM58.369 31.357A5.631 5.631 0 1 1 64 36.988a5.637 5.637 0 0 1-5.631-5.631zm14.382 22.814 1.789 3.44H57.119a1.25 1.25 0 0 0 0 2.5H75.84l8.4 16.15H43.761l2-3.845h31.364a1.25 1.25 0 0 0 0-2.5H47.061l8.188-15.746z"/></svg>