<svg id="Layer_1" data-name="Layer 1" xmlns="http://www.w3.org/2000/svg" viewBox="0 0 128 128"><title>COCKTAIL</title><polygon points="59.786 75.504 38.561 40.666 81.011 40.666 59.786 75.504" style="fill:#39edfd"/><path d="M50.291,97.86H69.28a5.273,5.273,0,0,1,5.273,5.273v.39a0,0,0,0,1,0,0H45.017a0,0,0,0,1,0,0v-.39A5.274,5.274,0,0,1,50.291,97.86Z" style="fill:#39edfd"/><circle cx="81.011" cy="40.666" r="9.666" style="fill:#fd975e"/><path d="M81.5,49.069c-.162.009-.325.014-.489.014a1.25,1.25,0,0,0,0,2.5c.209,0,.417-.007.622-.018a1.249,1.249,0,0,0,1.182-1.314A1.265,1.265,0,0,0,81.5,49.069Z" style="fill:#2d2f70"/><path d="M81.011,29.75a10.927,10.927,0,0,0-10.839,9.666H61.25a1.25,1.25,0,0,0,0,2.5H78.785l-19,31.186-19-31.186H53.5l4.63,15.443a1.25,1.25,0,0,0,2.395-.719L50.77,24.117a1.25,1.25,0,0,0-1.2-.891H37.323a1.25,1.25,0,0,0,0,2.5h11.32l4.1,13.689H38.561a1.25,1.25,0,0,0-1.067,1.9L58.536,75.855V96.609H50.291a6.531,6.531,0,0,0-6.523,6.523v.391a1.25,1.25,0,0,0,1.25,1.25H74.554a1.25,1.25,0,0,0,1.25-1.25v-.391a6.531,6.531,0,0,0-6.523-6.523H61.036V75.855L82.078,41.316a1.25,1.25,0,0,0-1.067-1.9H72.7a8.412,8.412,0,1,1,13.249,8.068,1.25,1.25,0,0,0,1.469,2.023A10.917,10.917,0,0,0,81.011,29.75Zm-7.8,72.523H46.36a4.031,4.031,0,0,1,3.931-3.164H69.28A4.03,4.03,0,0,1,73.211,102.273Z" style="fill:#2d2f70"/></svg>