<svg xmlns="http://www.w3.org/2000/svg" data-name="Layer 1" viewBox="0 0 128 128"><path fill="#fc5796" d="M38.875 24.477H89.125V103.524H38.875z"/><path fill="#39edfd" d="M38.875 32.013H89.125V95.25H38.875z"/><path fill="#2d2f70" d="M89.125 23.227h-50.25a1.25 1.25 0 0 0-1.25 1.25v79.047a1.25 1.25 0 0 0 1.25 1.25h50.25a1.25 1.25 0 0 0 1.25-1.25V24.477a1.25 1.25 0 0 0-1.25-1.25zm-49 79.047V96.5h38.563a1.25 1.25 0 0 0 0-2.5H40.125V25.727h47.75v5.036h-44a1.25 1.25 0 0 0 0 2.5h44v69.011z"/><path fill="#2d2f70" d="M84.125 94h-.688a1.25 1.25 0 0 0 0 2.5h.688a1.25 1.25 0 0 0 0-2.5zM59.75 29.48h8.5a1.25 1.25 0 0 0 0-2.5h-8.5a1.25 1.25 0 0 0 0 2.5zM64 97.71a1.375 1.375 0 1 0 1.375 1.375A1.377 1.377 0 0 0 64 97.71z"/></svg>