<svg xmlns="http://www.w3.org/2000/svg" data-name="Layer 1" viewBox="0 0 128 128"><circle cx="64" cy="46.602" r="22.125" fill="#fc5796"/><path fill="#2d2f70" d="M50.29 30.486a1.244 1.244 0 0 0 .774-.27q.271-.215.549-.42a1.25 1.25 0 1 0-1.485-2.011q-.311.23-.615.47a1.25 1.25 0 0 0 .776 2.23zM73.383 37.474a1.25 1.25 0 0 0 1.568-1.947c-7.348-5.917-15.1-4.406-19.517-.283-4.439 4.141-5.313 10.228-2.127 14.8 2.486 3.57 5.276 4.329 7.2 4.329a7.232 7.232 0 0 0 1.13-.088 8.026 8.026 0 0 0 6.305-5.485 6.2 6.2 0 0 0-1.818-6.549 1.25 1.25 0 0 0-1.7 1.837 3.736 3.736 0 0 1 1.122 3.987 5.552 5.552 0 0 1-4.306 3.747c-2.122.334-4.213-.8-5.884-3.2-2.868-4.118-1.087-8.873 1.78-11.547 3.364-3.142 9.64-4.921 16.247.399z"/><path fill="#2d2f70" d="M65.25 69.942A23.375 23.375 0 1 0 54.155 25.4a1.25 1.25 0 1 0 1.055 2.267 20.868 20.868 0 1 1 16.381 38.36 26.694 26.694 0 0 0 8.374-11.66c1.963-5.6 1.37-11.042-1.669-15.324a1.25 1.25 0 1 0-2.039 1.447c3.276 4.616 2.542 9.645 1.349 13.05-2.231 6.367-8.006 12.19-13.779 13.928A20.869 20.869 0 0 1 48.155 33.01a1.25 1.25 0 0 0-1.9-1.629 23.376 23.376 0 0 0 9.7 37.168A5.9 5.9 0 1 0 62.75 78.2v25.32a1.25 1.25 0 0 0 2.5 0V82.159a17.886 17.886 0 0 0 9.55 8.093 1.25 1.25 0 1 0 .891-2.336 15.47 15.47 0 0 1-9.306-9.076 5.907 5.907 0 0 0 8.179-5.454 1.25 1.25 0 1 0-2.5 0 3.408 3.408 0 0 1-6.815.032v-.153zm-5.909 6.852a3.409 3.409 0 0 1 0-6.818 1.233 1.233 0 0 0 .817-.321 23.337 23.337 0 0 0 2.592.287V73.385a3.413 3.413 0 0 1-3.409 3.409z"/></svg>