<svg id="Layer_1" data-name="Layer 1" xmlns="http://www.w3.org/2000/svg" viewBox="0 0 128 128"><title>BIRTHDAY HAT</title><polygon points="95.132 94.5 32.868 94.5 64 34.633 95.132 94.5" style="fill:#fc5796"/><rect x="27.845" y="94.5" width="72.31" height="9.023" style="fill:#39edfd"/><circle cx="64" cy="31.357" r="6.881" style="fill:#39edfd"/><polygon points="54.489 52.921 73.51 52.921 76.599 58.862 51.4 58.862 54.489 52.921" style="fill:#39edfd"/><polygon points="45.001 71.167 82.998 71.167 86.297 77.512 41.702 77.512 45.001 71.167" style="fill:#39edfd"/><path d="M49.833,93.25a1.25,1.25,0,0,0,0,2.5h.73a1.25,1.25,0,0,0,0-2.5Z" style="fill:#2d2f70"/><path d="M100.155,93.25H55.25a1.25,1.25,0,0,0,0,2.5H98.9v6.523H29.1V95.75H44.667a1.25,1.25,0,0,0,0-2.5h-9.74l7.534-14.488H85.538l5.776,11.107a1.25,1.25,0,1,0,2.218-1.154L67.513,38.679a8.369,8.369,0,1,0-2.438.73l6.376,12.262h-14.9L61.4,42.347a1.25,1.25,0,1,0-2.218-1.154L32.109,93.25H27.845A1.25,1.25,0,0,0,26.6,94.5v9.023a1.25,1.25,0,0,0,1.25,1.25h72.31a1.25,1.25,0,0,0,1.25-1.25V94.5A1.25,1.25,0,0,0,100.155,93.25ZM58.369,31.357A5.631,5.631,0,1,1,64,36.988,5.637,5.637,0,0,1,58.369,31.357ZM72.751,54.171l1.789,3.44H57.119a1.25,1.25,0,0,0,0,2.5H75.84l8.4,16.15H43.761l2-3.845H77.125a1.25,1.25,0,0,0,0-2.5H47.061l8.188-15.746Z" style="fill:#2d2f70"/></svg>