<svg xmlns="http://www.w3.org/2000/svg" data-name="Layer 1" viewBox="0 0 128 128"><path fill="#39edfd" d="M75.342 103.523H52.658c-3.094 0-5.676-1.81-5.948-4.171l-4.741-41.1h44.062l-4.741 41.1c-.272 2.361-2.854 4.171-5.948 4.171z"/><path fill="#fc5796" d="M47.517 46.75H80.482V58.25H47.517z"/><path fill="#39edfd" d="M64 24.477a7.507 7.507 0 0 0-7.507 7.507V46.75h15.014V31.984A7.507 7.507 0 0 0 64 24.477z"/><path fill="#fc5796" d="M67.375 91.5 60.625 91.5 62.625 80.887 65.375 80.887 67.375 91.5z"/><path fill="#2d2f70" d="M70.563 57h-.688a1.25 1.25 0 0 0 0 2.5h.688a1.25 1.25 0 0 0 0-2.5z"/><path fill="#2d2f70" d="M86.964 57.419a1.25 1.25 0 0 0-.933-.419h-4.3V46.75a1.25 1.25 0 0 0-1.25-1.25H57.743V31.983a6.257 6.257 0 1 1 12.514 0v9.267a1.25 1.25 0 1 0 2.5 0v-9.267a8.757 8.757 0 1 0-17.514 0V45.5h-7.725a1.25 1.25 0 0 0-1.25 1.25v7a1.25 1.25 0 1 0 2.5 0V48H62.75v9H41.969a1.25 1.25 0 0 0-1.242 1.393l4.741 41.1c.347 3.009 3.437 5.277 7.19 5.277h22.684c3.752 0 6.843-2.268 7.19-5.277l4.741-41.1a1.248 1.248 0 0 0-.309-.974zm-23.3 24.718h.677l1.529 8.113h-3.738zm16.384 17.072c-.2 1.719-2.265 3.064-4.706 3.064H52.658c-2.441 0-4.508-1.346-4.706-3.064L43.371 59.5H62.75v20.137h-.125a1.25 1.25 0 0 0-1.225 1.018l-2 10.613a1.25 1.25 0 0 0 1.229 1.481h6.75a1.25 1.25 0 0 0 1.221-1.48l-2-10.613a1.25 1.25 0 0 0-1.228-1.019h-.122V48h13.982v9h-4.169a1.25 1.25 0 0 0 0 2.5h9.565z"/></svg>