<svg xmlns="http://www.w3.org/2000/svg" data-name="Layer 1" viewBox="0 0 128 128"><path fill="#fff" d="M28.197 31.918H99.802V103.523H28.197z"/><path fill="#fc5796" d="M28.197 31.918H99.802V48.916H28.197z"/><rect width="8.453" height="14.702" x="40.95" y="24.477" fill="#fd975e" rx="3.881" ry="3.881"/><rect width="8.453" height="14.702" x="78.596" y="24.477" fill="#fd975e" rx="3.881" ry="3.881"/><path fill="#2d2f70" d="M56.4 92.355V62.009h-4.7a10.692 10.692 0 0 1-3.649 4.834 16.752 16.752 0 0 1-4.927 2.814v5.257a19.97 19.97 0 0 0 7.484-4.391v21.832zM69.123 92.355h5.587a35.588 35.588 0 0 1 1.309-9.081 40.39 40.39 0 0 1 3.865-9.6 31.171 31.171 0 0 1 4.989-6.927v-4.202H65.062v5.381h13.173a42.594 42.594 0 0 0-6.525 11.647 38.833 38.833 0 0 0-2.587 12.782z"/><path fill="#2d2f70" d="M99.8 53.25a1.25 1.25 0 0 0-1.25 1.25v47.773H29.447V50.167h9.72a1.25 1.25 0 0 0 0-2.5h-9.72v-14.5H39.7V35.3a5.137 5.137 0 0 0 5.131 5.131h.691a5.137 5.137 0 0 0 5.132-5.131v-6.94a5.137 5.137 0 0 0-5.131-5.131h-.691a5.137 5.137 0 0 0-5.132 5.128v2.311H28.2a1.25 1.25 0 0 0-1.25 1.25v71.606a1.25 1.25 0 0 0 1.25 1.25h71.6a1.25 1.25 0 0 0 1.25-1.25V54.5a1.25 1.25 0 0 0-1.25-1.25zM42.2 28.357a2.634 2.634 0 0 1 2.631-2.631h.691a2.634 2.634 0 0 1 2.631 2.631V35.3a2.634 2.634 0 0 1-2.631 2.631h-.691A2.634 2.634 0 0 1 42.2 35.3z"/><path fill="#2d2f70" d="M53.916 33.169h23.43V35.3a5.137 5.137 0 0 0 5.131 5.131h.691A5.137 5.137 0 0 0 88.3 35.3v-6.94a5.137 5.137 0 0 0-5.131-5.131h-.691a5.137 5.137 0 0 0-5.131 5.131v2.311H53.916a1.25 1.25 0 0 0 0 2.5zm25.93-4.811a2.634 2.634 0 0 1 2.631-2.631h.691a2.634 2.634 0 0 1 2.632 2.63V35.3a2.634 2.634 0 0 1-2.631 2.631h-.691a2.634 2.634 0 0 1-2.631-2.631z"/><path fill="#2d2f70" d="M99.8 30.669h-8.47a1.25 1.25 0 0 0 0 2.5h7.22v14.5H48.813a1.25 1.25 0 0 0 0 2.5H99.8a1.25 1.25 0 0 0 1.25-1.25v-17a1.25 1.25 0 0 0-1.25-1.25zM44.75 47.667H44a1.25 1.25 0 0 0 0 2.5h.75a1.25 1.25 0 0 0 0-2.5z"/></svg>