<svg xmlns="http://www.w3.org/2000/svg" data-name="Layer 1" viewBox="0 0 128 128"><path fill="#fd975e" d="M64 24.477a34.708 34.708 0 1034.708 34.708A34.708 34.708 0 0064 24.477zm0 44.4a9.689 9.689 0 119.689-9.689A9.689 9.689 0 0164 68.874z"/><path fill="#fc5796" d="M92.449 58.616a11.282 11.282 0 00-7.07-8.634l-4.8-1.931a6.712 6.712 0 01-4.031-4.522 13.374 13.374 0 00-14.055-10.024l-1.444.119A13.378 13.378 0 0049.5 42.6a7.606 7.606 0 01-4.749 4.57 11.308 11.308 0 00-7.221 8.049v2.028a12.449 12.449 0 007.1 11.242 15.539 15.539 0 017.693 8.622 11.873 11.873 0 009.214 7.466l.344.055a11.839 11.839 0 001.932.148 5.753 5.753 0 015.9 5.69v9.578a3.432 3.432 0 002.687 3.41 3.353 3.353 0 004.013-3.286V80.645a9.969 9.969 0 015.533-9.045 5.356 5.356 0 011.4-.478 10.977 10.977 0 009.103-12.506zM64 68.874a9.689 9.689 0 119.689-9.689A9.689 9.689 0 0164 68.874z"/><path fill="#2d2f70" d="M64 23.227a35.958 35.958 0 000 71.916 36.461 36.461 0 004.465-.294v5.2a4.665 4.665 0 003.7 4.638 4.744 4.744 0 00.894.085 4.6 4.6 0 004.605-4.6V80.646a8.73 8.73 0 014.82-7.918 4.069 4.069 0 011.062-.372 12.292 12.292 0 0010.139-13.925 12.541 12.541 0 00-7.84-9.609l-4.8-1.93a5.469 5.469 0 01-3.286-3.671A14.6 14.6 0 0062.391 32.26l-1.444.119a14.6 14.6 0 00-7.37 2.721 1.25 1.25 0 101.467 2.024 12.105 12.105 0 016.107-2.258l1.444-.119a12.1 12.1 0 0112.746 9.088 7.977 7.977 0 004.774 5.372l4.8 1.93a10.034 10.034 0 016.3 7.66 9.783 9.783 0 01-8.063 11.086 6.464 6.464 0 00-1.741.583 11.241 11.241 0 00-6.243 10.175v19.528a2.1 2.1 0 01-2.528 2.059 2.192 2.192 0 01-1.672-2.183v-9.574a6.811 6.811 0 00-2.022-4.864 7.157 7.157 0 00-5.089-2.076h-.047a10.415 10.415 0 01-1.727-.132l-.345-.055a10.663 10.663 0 01-8.245-6.68 16.8 16.8 0 00-8.322-9.3 11.252 11.252 0 01-6.389-10.113V55.37a10.014 10.014 0 016.389-7.022 9.233 9.233 0 004.621-3.534 1.25 1.25 0 10-2.086-1.378 6.721 6.721 0 01-3.371 2.555 12.509 12.509 0 00-8.02 8.939 1.3 1.3 0 00-.033.288v2.028A13.764 13.764 0 0044.1 69.619a14.306 14.306 0 017.062 7.942 13.171 13.171 0 0010.184 8.251l.346.055a13.13 13.13 0 002.066.164h.1a4.674 4.674 0 013.322 1.349 4.327 4.327 0 011.285 3.091v1.865a33.887 33.887 0 01-4.465.307 33.443 33.443 0 1116.747-4.487A1.25 1.25 0 1082 90.319a35.962 35.962 0 00-18-67.092z"/><path fill="#2d2f70" d="M64 70.124a10.939 10.939 0 10-10.94-10.939A10.952 10.952 0 0064 70.124zm0-19.379a8.439 8.439 0 11-8.44 8.44 8.449 8.449 0 018.44-8.44zM50.144 38.6q-.264.379-.5.775a1.25 1.25 0 102.135 1.3q.2-.331.422-.648a1.25 1.25 0 00-2.057-1.427z"/></svg>