<svg xmlns="http://www.w3.org/2000/svg" data-name="Layer 1" viewBox="0 0 128 128"><path fill="#fc5796" d="M24.476 47.903H103.523V90.096H24.476z"/><path fill="#39edfd" d="M77.5 37.903 50.5 37.903 46.5 47.903 81.5 47.903 77.5 37.903z"/><path fill="#39edfd" d="M29.5 42.903H39.5V47.903H29.5z"/><path fill="#39edfd" d="M92.25 53.153H98.25V59.153H92.25z"/><circle cx="64" cy="69.153" r="14.483" fill="#39edfd"/><path fill="#2d2f70" d="M103.523 46.653H48.346l3-7.5h25.307l1.686 4.214a1.25 1.25 0 1 0 2.32-.929l-2-5a1.249 1.249 0 0 0-1.16-.786h-27a1.25 1.25 0 0 0-1.161.786l-3.686 9.214H30.75v-2.5h8.75a1.25 1.25 0 0 0 0-2.5h-10a1.25 1.25 0 0 0-1.25 1.25v3.75h-3.773a1.25 1.25 0 0 0-1.25 1.25V90.1a1.25 1.25 0 0 0 1.25 1.25h79.047a1.25 1.25 0 0 0 1.25-1.25V47.9a1.25 1.25 0 0 0-1.251-1.247zm-1.25 42.193H25.727V49.153h76.547z"/><path fill="#2d2f70" d="M92.25 60.4h6a1.25 1.25 0 0 0 1.25-1.25v-6a1.25 1.25 0 0 0-1.25-1.25h-6A1.25 1.25 0 0 0 91 53.153v6a1.25 1.25 0 0 0 1.25 1.247zm1.25-6H97v3.5h-3.5zM54.439 59.525a1.244 1.244 0 0 0 .825-.312q.173-.152.35-.3a1.25 1.25 0 1 0-1.585-1.934q-.212.174-.417.354a1.25 1.25 0 0 0 .826 2.189z"/><path fill="#2d2f70" d="M64 84.886a15.733 15.733 0 1 0-5.94-30.3A1.25 1.25 0 1 0 59 56.9a13.237 13.237 0 1 1-6.07 5 1.25 1.25 0 1 0-2.09-1.372A15.735 15.735 0 0 0 64 84.886z"/></svg>