<svg id="Layer_1" data-name="Layer 1" xmlns="http://www.w3.org/2000/svg" viewBox="0 0 128 128"><title>RIBBON</title><rect x="56.875" y="31.781" width="14.25" height="21.75" rx="2.653" ry="2.653" style="fill:#39edfd"/><polygon points="37 60.835 56.875 50.835 56.875 34.477 37 24.477 37 60.835" style="fill:#fc5796"/><polygon points="91 60.835 71.125 50.835 71.125 34.477 91 24.477 91 60.835" style="fill:#fc5796"/><polygon points="56.875 50.835 46.937 103.523 41.25 94.5 31.25 100.5 51.517 53.531 56.875 50.835" style="fill:#39edfd"/><polygon points="71.125 50.835 81.062 103.523 86.75 94.5 96.75 100.5 76.483 53.531 71.125 50.835" style="fill:#39edfd"/><path d="M55.568,57.765a1.254,1.254,0,0,0-1.46,1l-.1.554a1.25,1.25,0,0,0,1,1.46,1.274,1.274,0,0,0,.233.022,1.25,1.25,0,0,0,1.227-1.019l.1-.554A1.25,1.25,0,0,0,55.568,57.765Z" style="fill:#2d2f70"/><path d="M97.9,100,80.783,60.34a1.25,1.25,0,0,0-2.3.99l15.578,36.1-6.671-4a1.253,1.253,0,0,0-1.7.405L81.7,100.166,72.822,53.088l17.616,8.863a1.249,1.249,0,0,0,1.812-1.116V24.477a1.249,1.249,0,0,0-1.812-1.116l-18.5,9.31a3.893,3.893,0,0,0-3.462-2.139H59.528a3.907,3.907,0,0,0-3.9,3.9V50.065L38.25,58.807V26.5l12.7,6.392a1.25,1.25,0,1,0,1.124-2.232l-14.516-7.3a1.249,1.249,0,0,0-1.812,1.116V60.835a1.249,1.249,0,0,0,1.812,1.116l11.445-5.759L30.1,100a1.25,1.25,0,0,0,1.791,1.567L40.845,96.2l5.035,7.989a1.251,1.251,0,0,0,1.058.583,1.187,1.187,0,0,0,.233-.022,1.25,1.25,0,0,0,1-1L55.588,64.4a1.25,1.25,0,0,0-2.457-.463L46.3,100.166l-3.991-6.333a1.252,1.252,0,0,0-1.7-.405l-6.671,4,18.55-42.988,3.58-1.8a3.893,3.893,0,0,0,3.462,2.14h8.944a3.862,3.862,0,0,0,2.016-.578l9.346,49.552a1.25,1.25,0,0,0,1,1,1.187,1.187,0,0,0,.233.022,1.251,1.251,0,0,0,1.058-.583L87.155,96.2l8.952,5.371A1.25,1.25,0,0,0,97.9,100Zm-8.148-41.2L72.375,50.065V35.247L89.75,26.5ZM69.875,50.878a1.4,1.4,0,0,1-1.4,1.4H59.528a1.4,1.4,0,0,1-1.4-1.4V34.434a1.4,1.4,0,0,1,1.4-1.4h8.944a1.4,1.4,0,0,1,1.4,1.4Z" style="fill:#2d2f70"/></svg>