<svg xmlns="http://www.w3.org/2000/svg" data-name="Layer 1" viewBox="0 0 128 128"><ellipse cx="55.389" cy="52.232" fill="#fc5796" rx="24" ry="27.756"/><ellipse cx="77.164" cy="61.964" fill="#39edfd" rx="19.446" ry="22.489"/><path fill="#2d2f70" d="M66.75 44.55c.119-.1.24-.194.361-.288a1.25 1.25 0 00-1.527-1.978q-.217.167-.428.341a1.25 1.25 0 101.594 1.925z"/><path fill="#2d2f70" d="M85.5 92.348a11.387 11.387 0 01-6.713-6.724c10.655-.954 19.072-11.2 19.072-23.659C97.86 49 88.755 38.439 77.5 38.234c-4.456-9.272-12.852-15.007-22.11-15.007-13.923 0-25.25 13.012-25.25 29.006 0 15.61 10.79 28.372 24.252 28.977a16.784 16.784 0 0010.267 11.121c7.652 3 8.512 10.973 8.544 11.308a1.251 1.251 0 001.244 1.135h.116a1.251 1.251 0 001.13-1.36c-.037-.4-1.009-9.832-10.122-13.405a14.332 14.332 0 01-8.585-8.843 22.165 22.165 0 002.741-.348 1.25 1.25 0 10-.488-2.451 19.781 19.781 0 01-3.85.378c-12.544 0-22.75-11.891-22.75-26.506S42.846 25.727 55.39 25.727c7.979 0 15.278 4.81 19.406 12.67a18.38 18.38 0 00-5.086 1.415 1.25 1.25 0 001.011 2.288 15.823 15.823 0 016.443-1.372c10.033 0 18.2 9.528 18.2 21.24S87.2 83.2 77.164 83.2s-18.2-9.528-18.2-21.239a23.349 23.349 0 014.591-14.1 1.249 1.249 0 00-1.988-1.514 25.849 25.849 0 00-5.1 15.613c0 12.71 8.754 23.118 19.71 23.711a13.839 13.839 0 008.411 9c6.059 2.375 6.748 8.7 6.773 8.963a1.251 1.251 0 001.244 1.135h.116a1.251 1.251 0 001.13-1.36c-.03-.33-.831-8.109-8.351-11.061z"/></svg>