<svg id="Layer_1" data-name="Layer 1" xmlns="http://www.w3.org/2000/svg" viewBox="0 0 128 128"><title>RING</title><path d="M64,39.077A32.223,32.223,0,1,0,96.223,71.3,32.223,32.223,0,0,0,64,39.077ZM64,95.15A23.849,23.849,0,1,1,87.849,71.3,23.849,23.849,0,0,1,64,95.15Z" style="fill:#39edfd"/><polygon points="74.438 24.477 53.562 24.477 43.124 35.63 64 53.709 84.875 35.63 74.438 24.477" style="fill:#fd975e"/><path d="M82.716,43.544a1.25,1.25,0,0,0-1.4,2.071,30.986,30.986,0,1,1-30.989-2.095l4.916,4.257a25.1,25.1,0,1,0,17.515,0l12.936-11.2a1.25,1.25,0,0,0,.094-1.8L75.35,23.623a1.25,1.25,0,0,0-.913-.4H53.563a1.25,1.25,0,0,0-.913.4L42.212,34.776a24766.1,24766.1,0,0,1-.246.4,1.235,1.235,0,0,0-.047.231,1.185,1.185,0,0,0-.045.224c0,.012.006.022.007.033s-.005.021,0,.032a1.212,1.212,0,0,0,.051.2,1.253,1.253,0,0,0,.066.254,3.914,3.914,0,0,0,.286.393c.011.01.015.025.027.035l5.981,5.179a33.461,33.461,0,1,0,34.429,1.79ZM86.6,71.3A22.6,22.6,0,1,1,57.445,49.685l5.737,4.968a1.25,1.25,0,0,0,1.637,0l5.737-4.968A22.628,22.628,0,0,1,86.6,71.3ZM54.1,25.727H73.9l9.18,9.809L64,52.055,51.356,41.105,51.35,41.1l-4.873-4.22H71.333a1.25,1.25,0,0,0,0-2.5H46.006Z" style="fill:#2d2f70"/><path d="M75.854,36.88h.206a1.25,1.25,0,0,0,0-2.5h-.206a1.25,1.25,0,0,0,0,2.5Z" style="fill:#2d2f70"/></svg>