<svg xmlns="http://www.w3.org/2000/svg" data-name="Layer 1" viewBox="0 0 128 128"><path fill="#39edfd" d="M59.786 75.504 38.561 40.666 81.011 40.666 59.786 75.504z"/><path fill="#39edfd" d="M50.291 97.86H69.28a5.273 5.273 0 0 1 5.273 5.273v.39H45.017v-.39a5.274 5.274 0 0 1 5.274-5.273z"/><circle cx="81.011" cy="40.666" r="9.666" fill="#fd975e"/><path fill="#2d2f70" d="M81.5 49.069a8.813 8.813 0 0 1-.489.014 1.25 1.25 0 0 0 0 2.5c.209 0 .417-.007.622-.018a1.249 1.249 0 0 0 1.182-1.314 1.265 1.265 0 0 0-1.315-1.182z"/><path fill="#2d2f70" d="M81.011 29.75a10.927 10.927 0 0 0-10.839 9.666H61.25a1.25 1.25 0 0 0 0 2.5h17.535l-19 31.186-19-31.186H53.5l4.63 15.443a1.25 1.25 0 0 0 2.395-.719L50.77 24.117a1.25 1.25 0 0 0-1.2-.891H37.323a1.25 1.25 0 0 0 0 2.5h11.32l4.1 13.689H38.561a1.25 1.25 0 0 0-1.067 1.9l21.042 34.54v20.754h-8.245a6.531 6.531 0 0 0-6.523 6.523v.391a1.25 1.25 0 0 0 1.25 1.25h29.536a1.25 1.25 0 0 0 1.25-1.25v-.391a6.531 6.531 0 0 0-6.523-6.523h-8.245V75.855l21.042-34.539a1.25 1.25 0 0 0-1.067-1.9H72.7a8.412 8.412 0 1 1 13.249 8.068 1.25 1.25 0 0 0 1.469 2.023 10.917 10.917 0 0 0-6.407-19.757zm-7.8 72.523H46.36a4.031 4.031 0 0 1 3.931-3.164H69.28a4.03 4.03 0 0 1 3.931 3.164z"/></svg>