<svg id="Layer_3" data-name="Layer 3" xmlns="http://www.w3.org/2000/svg" viewBox="0 0 128 128"><title>Artboard 106</title><path d="M103.206,72.874,103.1,60.565c0-.031.009-.059.009-.09a39.107,39.107,0,0,0-78.215,0c0,.037.009.071.011.108L25.009,72.7a14.543,14.543,0,0,0,6.868,25.684,10.785,10.785,0,0,0,21.264-2.536V72.181a10.783,10.783,0,0,0-21.264-2.536,14.478,14.478,0,0,0-1.695.369L30.1,60.566c0-.031.009-.06.009-.091a33.891,33.891,0,1,1,67.782,0c0,.037.009.071.011.107l.083,9.474a14.494,14.494,0,0,0-1.861-.411,10.785,10.785,0,0,0-21.264,2.536V95.844a10.783,10.783,0,0,0,21.264,2.536,14.552,14.552,0,0,0,8.006-24.666C103.835,73.419,103.524,73.142,103.206,72.874ZM42.351,66.608a5.6,5.6,0,0,1,5.573,5.573V95.844a5.573,5.573,0,0,1-11.146,0V72.181a5.6,5.6,0,0,1,5.573-5.573Zm-10.789,17.4v8.98a9.352,9.352,0,0,1,0-17.96Zm54.087,17.4a5.6,5.6,0,0,1-5.573-5.573V72.181a5.573,5.573,0,0,1,11.146,0V95.844a5.6,5.6,0,0,1-5.573,5.573Zm14.792-10.794a9.337,9.337,0,0,1-4,2.369V75.032a9.351,9.351,0,0,1,4,15.591Z" style="fill:#1b1b1b"/></svg>