<svg id="Layer_3" data-name="Layer 3" xmlns="http://www.w3.org/2000/svg" viewBox="0 0 128 128"><title>Artboard 105</title><path d="M31.409,100.483a6.25,6.25,0,0,0,1.838,4.415l0,.005.005.005a6.251,6.251,0,0,0,4.415,1.838H90.328a6.276,6.276,0,0,0,6.264-6.264V27.517a6.276,6.276,0,0,0-6.264-6.264H37.672a6.247,6.247,0,0,0-4.426,1.838l0,.005a6.25,6.25,0,0,0-1.843,4.42Zm5.216-72.966a1.038,1.038,0,0,1,.3-.738h.01a1.044,1.044,0,0,1,.738-.31H90.328a1.057,1.057,0,0,1,1.047,1.047v72.966a1.057,1.057,0,0,1-1.047,1.047H37.672a1.037,1.037,0,0,1-.738-.3l-.01-.01a1.037,1.037,0,0,1-.3-.738Z" style="fill:#1b1b1b"/><path d="M64,95.977a15.3,15.3,0,0,0,10.907-4.566,15.621,15.621,0,0,0,0-21.976,15.309,15.309,0,0,0-21.813,0,15.62,15.62,0,0,0,0,21.976A15.3,15.3,0,0,0,64,95.977ZM56.781,73.1a10.143,10.143,0,0,1,14.437,0,10.457,10.457,0,0,1,0,14.641,10.143,10.143,0,0,1-14.437,0,10.456,10.456,0,0,1,0-14.64Z" style="fill:#1b1b1b"/><path d="M64,55.316a11.466,11.466,0,0,0,8.171-3.421,11.684,11.684,0,0,0,0-16.45,11.467,11.467,0,0,0-16.342,0,11.685,11.685,0,0,0,0,16.45A11.466,11.466,0,0,0,64,55.316Zm-4.483-16.2a6.3,6.3,0,0,1,8.966,0,6.521,6.521,0,0,1,0,9.114,6.3,6.3,0,0,1-8.966,0,6.521,6.521,0,0,1,0-9.114Z" style="fill:#1b1b1b"/><ellipse cx="64" cy="43.669" rx="2.42" ry="2.444" style="fill:#1b1b1b"/><ellipse cx="64" cy="80.423" rx="3.084" ry="3.116" style="fill:#1b1b1b"/></svg>