<svg id="Layer_3" data-name="Layer 3" xmlns="http://www.w3.org/2000/svg" viewBox="0 0 128 128"><title>Artboard 101</title><path d="M94.68,33.32h0a43.387,43.387,0,0,0-61.359,0h0a43.386,43.386,0,0,0,0,61.359h0a43.386,43.386,0,0,0,61.358,0h0a43.386,43.386,0,0,0,0-61.358ZM90.993,90.991h0a38.173,38.173,0,0,1-53.982,0h0a38.173,38.173,0,0,1,0-53.983h0a38.174,38.174,0,0,1,53.983,0h0a38.173,38.173,0,0,1,0,53.982Z" style="fill:#1b1b1b"/><path d="M89.41,60.719a5.3,5.3,0,0,0-.5-.561,5.4,5.4,0,0,0-.8-.649v0L72.859,48.976,57.516,38.38A5.39,5.39,0,0,0,49.323,41.2a5.256,5.256,0,0,0-.222,1.181,2.627,2.627,0,0,0-.034.42V85.187a5.384,5.384,0,0,0,8.7,4.25l15.09-10.421L88.03,68.539a2.623,2.623,0,0,0,.4-.284,5.377,5.377,0,0,0,1.3-7.072A2.577,2.577,0,0,0,89.41,60.719Zm-4.162,3.423-.005,0L69.9,74.737,54.743,85.208c-.058.04-.113.082-.167.125a.191.191,0,0,1-.048.024.225.225,0,0,1-.068.007.176.176,0,0,1-.177-.177V43.015c.005-.069.009-.14.009-.211v-.04l0-.011a.2.2,0,0,1,.02-.049.178.178,0,0,1,.246-.045L69.9,53.255,85.2,63.819l.042.029v0l.025.017a.217.217,0,0,1,.025.029l0,0a.177.177,0,0,1-.048.242Z" style="fill:#1b1b1b"/></svg>