<svg id="Layer_3" data-name="Layer 3" xmlns="http://www.w3.org/2000/svg" viewBox="0 0 128 128"><title>Artboard 110</title><path d="M48.3,31.068H46.387a2.608,2.608,0,0,0-2.608,2.608v.1h-4.4a4.556,4.556,0,0,0-1.263-2.469l-.01-.01a4.545,4.545,0,0,0-3.217-1.339H24.484A4.544,4.544,0,0,0,21.266,31.3l-.01.01a4.546,4.546,0,0,0-1.339,3.217v36.1a4.544,4.544,0,0,0,1.339,3.217l.01.01A4.544,4.544,0,0,0,24.484,75.2h2.594V95.431a2.608,2.608,0,0,0,5.216,0V75.2h2.595a4.545,4.545,0,0,0,3.217-1.339l.01-.01a4.544,4.544,0,0,0,1.339-3.217V55.45h4.323v.1a2.608,2.608,0,0,0,2.608,2.608H48.3A13.257,13.257,0,0,0,61.526,44.936v-.643A13.257,13.257,0,0,0,48.3,31.068ZM34.24,69.98H25.133v-34.8H34.24v34.8Zm5.216-19.746V39h4.323V50.233Zm16.854-5.3a8.043,8.043,0,0,1-7.315,7.978v-16.6a8.044,8.044,0,0,1,7.315,7.978Z" style="fill:#1b1b1b"/><path d="M106.734,31.3a4.546,4.546,0,0,0-3.217-1.339H93.111A4.544,4.544,0,0,0,89.893,31.3l-.01.01a4.556,4.556,0,0,0-1.263,2.469h-4.4v-.1a2.608,2.608,0,0,0-2.608-2.608H79.7A13.257,13.257,0,0,0,66.474,44.293v.643A13.257,13.257,0,0,0,79.7,58.16h1.915a2.608,2.608,0,0,0,2.608-2.608v-.1h4.322V70.629a4.544,4.544,0,0,0,1.339,3.217l.01.01A4.544,4.544,0,0,0,93.111,75.2h2.595V95.431a2.608,2.608,0,1,0,5.216,0V75.2h2.594a4.546,4.546,0,0,0,3.217-1.339l.01-.01a4.544,4.544,0,0,0,1.339-3.217v-36.1a4.546,4.546,0,0,0-1.339-3.217ZM74.045,50.59a7.983,7.983,0,0,1-2.354-5.653v-.643a8.044,8.044,0,0,1,7.315-7.978v16.6A7.994,7.994,0,0,1,74.045,50.59Zm10.177-.356V39h4.322V50.233ZM102.867,69.98H93.76v-34.8h9.107Z" style="fill:#1b1b1b"/></svg>