<svg id="Layer_3" data-name="Layer 3" xmlns="http://www.w3.org/2000/svg" viewBox="0 0 128 128"><title>Artboard 103</title><path d="M41,102.564a6.771,6.771,0,0,0,4.192-1.459L67.855,85.45,90.7,69.676a2.606,2.606,0,0,0,.379-.268,6.765,6.765,0,0,0,1.663-9.039,2.586,2.586,0,0,0-.3-.43,6.785,6.785,0,0,0-1.684-1.595v0l-22.9-15.818L44.844,26.638l-.005,0a6.765,6.765,0,0,0-9.4,1.707l-.011.016a6.758,6.758,0,0,0-.9,1.83,6.69,6.69,0,0,0-.287,1.583,2.626,2.626,0,0,0-.036.431V95.778a6.756,6.756,0,0,0,1.988,4.789l.01.01A6.756,6.756,0,0,0,41,102.564Zm-1.57-38.575V32.458c.008-.084.013-.17.013-.257,0-.045,0-.089,0-.133a1.672,1.672,0,0,1,.069-.333,1.6,1.6,0,0,1,.139-.321q.076-.1.142-.206a1.566,1.566,0,0,1,1.993-.364,2.6,2.6,0,0,0,.28.187L64.9,46.807,87.847,62.654l.042.029v0a1.537,1.537,0,0,1,.229.183,1.589,1.589,0,0,1,.2.232l0,0a1.566,1.566,0,0,1-.4,2.175l-.005,0L64.9,81.172,42.157,96.878c-.059.041-.116.084-.17.128a1.576,1.576,0,0,1-.457.254,1.6,1.6,0,0,1-.534.087,1.58,1.58,0,0,1-1.111-.45l-.01-.01a1.58,1.58,0,0,1-.45-1.111Z" style="fill:#1b1b1b"/></svg>