<svg id="Layer_3" data-name="Layer 3" xmlns="http://www.w3.org/2000/svg" viewBox="0 0 128 128"><title>Artboard 104</title><path d="M26.369,76.48a6.4,6.4,0,0,0,1.871,4.3q.091.091.188.171a6.389,6.389,0,0,0,4.343,1.711h6.781l2.3,1.474L64.5,98.681a6.884,6.884,0,0,0,1.919.992,7.061,7.061,0,0,0,2.215.356,6.941,6.941,0,0,0,4.727-1.84,6.329,6.329,0,0,0,2.059-4.651V34.447A2.612,2.612,0,0,0,75.384,34a6.2,6.2,0,0,0-.3-1.529,6.37,6.37,0,0,0-.927-1.771,6.806,6.806,0,0,0-4.338-2.627,7,7,0,0,0-4.951,1L41.848,43.843l-2.313,1.485H32.771a6.4,6.4,0,0,0-4.532,1.882q-.087.087-.164.18a6.382,6.382,0,0,0-1.707,4.125H25.252a10.19,10.19,0,0,0-7.22,3c-.053.053-.1.107-.149.163a10.189,10.189,0,0,0-2.851,7.057v4.527A10.243,10.243,0,0,0,25.252,76.48ZM67.675,33.452a1.816,1.816,0,0,1,1.283-.246,1.585,1.585,0,0,1,1.017.589,1.18,1.18,0,0,1,.173.324,1.089,1.089,0,0,1,.048.209c0,.039,0,.078,0,.118,0,.087,0,.172.013.257V93.537a1.156,1.156,0,0,1-.388.841,1.727,1.727,0,0,1-1.182.434,1.867,1.867,0,0,1-.585-.091,1.667,1.667,0,0,1-.485-.252h0c-.052-.039-.106-.077-.162-.113L44.66,79.759,42.9,78.628V49.355l1.762-1.131ZM31.853,50.969l.074-.071a1.194,1.194,0,0,1,.844-.354h4.911V77.45H32.771A1.194,1.194,0,0,1,32,77.176l-.076-.08a1.193,1.193,0,0,1-.354-.843V54.123h0v-2.38A1.2,1.2,0,0,1,31.853,50.969Zm-11.6,15.291V61.734a4.981,4.981,0,0,1,1.358-3.424c.039-.034.077-.07.114-.107a4.987,4.987,0,0,1,3.532-1.472h1.1V71.264h-1.1a5.025,5.025,0,0,1-5-5Z" style="fill:#1b1b1b"/><path d="M96.377,78.036A24.338,24.338,0,0,0,84.645,41.064a2.6,2.6,0,0,0-1.732,4.911,19.131,19.131,0,0,1-.022,36.053,2.6,2.6,0,0,0,1.732,4.911A24.326,24.326,0,0,0,96.377,78.036Z" style="fill:#1b1b1b"/><path d="M107.762,45.529A35.382,35.382,0,0,0,93.684,32.485a2.6,2.6,0,0,0-2.364,4.625,30.209,30.209,0,0,1-.006,53.775,2.6,2.6,0,1,0,2.364,4.625,35.381,35.381,0,0,0,14.084-49.983Z" style="fill:#1b1b1b"/><path d="M81.682,67.185A2.6,2.6,0,1,0,83.413,72.1a8.587,8.587,0,0,0,.006-16.188,2.6,2.6,0,0,0-1.732,4.911,3.38,3.38,0,0,1-.006,6.367Z" style="fill:#1b1b1b"/></svg>