<svg id="Layer_3" data-name="Layer 3" xmlns="http://www.w3.org/2000/svg" viewBox="0 0 128 128"><title>Artboard 111</title><path d="M100.657,22.106a2.6,2.6,0,0,0-3.291-1.64L61.909,32.4h0a2.6,2.6,0,0,0-1.774,2.464V81.324c-.205-.178-.4-.365-.614-.535A21.425,21.425,0,0,0,46.271,76.4a21.424,21.424,0,0,0-13.25,4.385,13.779,13.779,0,0,0,0,22.5,21.423,21.423,0,0,0,13.25,4.385,21.423,21.423,0,0,0,13.25-4.385,14.366,14.366,0,0,0,5.82-11.248c0-.055-.009-.107-.01-.162V59.9L99.017,48.553c.008,0,.015-.008.024-.011a2.578,2.578,0,0,0,.418-.188l.058-.031a2.6,2.6,0,0,0,.357-.257c.018-.015.037-.029.054-.045a2.607,2.607,0,0,0,.3-.321c.012-.015.025-.029.037-.045a2.6,2.6,0,0,0,.237-.38c.007-.014.016-.027.023-.042a2.575,2.575,0,0,0,.158-.412c.006-.021.013-.04.019-.061a2.587,2.587,0,0,0,.072-.41c0-.035.008-.068.01-.1,0-.054.016-.105.016-.16V22.931h-.008A2.6,2.6,0,0,0,100.657,22.106ZM56.3,99.209a16.2,16.2,0,0,1-10.031,3.244A16.2,16.2,0,0,1,36.24,99.209a8.639,8.639,0,0,1,0-14.345A16.2,16.2,0,0,1,46.271,81.62,16.2,16.2,0,0,1,56.3,84.864a8.64,8.64,0,0,1,0,14.345Zm9.03-62.47L95.583,26.553v17.67L65.332,54.409Z" style="fill:#1b1b1b"/></svg>