<svg xmlns="http://www.w3.org/2000/svg" data-name="Layer 3" viewBox="0 0 128 128"><path d="M64 90.339A17.884 17.884 0 0 0 81.838 72.5V37.51A17.884 17.884 0 0 0 64 19.672 17.884 17.884 0 0 0 46.162 37.51V72.5A17.884 17.884 0 0 0 64 90.339zM51.378 37.51A12.665 12.665 0 0 1 64 24.889 12.665 12.665 0 0 1 76.622 37.51V72.5A12.665 12.665 0 0 1 64 85.122 12.665 12.665 0 0 1 51.378 72.5z"/><path d="M61.4 98.838v4.293h-6.777a2.6 2.6 0 0 0 0 5.2h18.754a2.6 2.6 0 0 0 0-5.2H66.6v-4.293a26.145 26.145 0 0 0 23.545-26.015v-9.007a2.608 2.608 0 1 0-5.216 0v9.007a20.928 20.928 0 1 1-41.857 0v-9.007a2.608 2.608 0 1 0-5.216 0v9.007A26.145 26.145 0 0 0 61.4 98.838z"/></svg>