<svg xmlns="http://www.w3.org/2000/svg" data-name="Layer 3" viewBox="0 0 128 128"><path d="M29.622 104.16a16.227 16.227 0 0 0 19.417 0 10.775 10.775 0 0 0 4.353-8.445c0-.055-.009-.108-.01-.163V62.838l44.133-14.861v22.056a15.914 15.914 0 0 0-8.845-2.6 15.7 15.7 0 0 0-9.709 3.225 10.369 10.369 0 0 0 0 16.891 16.228 16.228 0 0 0 19.417 0 10.775 10.775 0 0 0 4.353-8.446V23.216h-.008A2.6 2.6 0 0 0 99.3 20.75L49.959 37.365a2.6 2.6 0 0 0-1.774 2.464v46.825a15.912 15.912 0 0 0-8.856-2.61 15.7 15.7 0 0 0-9.709 3.225 10.369 10.369 0 0 0 0 16.891zm65.537-20.689a11.147 11.147 0 0 1-12.978 0 5.231 5.231 0 0 1 0-8.74 11.146 11.146 0 0 1 12.978 0 5.231 5.231 0 0 1 0 8.74zm2.356-56.633V42.49L53.382 57.351V41.7zM32.841 91.344a10.481 10.481 0 0 1 6.489-2.084 10.481 10.481 0 0 1 6.489 2.084 5.231 5.231 0 0 1 0 8.74 10.482 10.482 0 0 1-6.489 2.084 10.482 10.482 0 0 1-6.489-2.084 5.231 5.231 0 0 1 0-8.74z"/></svg>