<svg xmlns="http://www.w3.org/2000/svg" data-name="Layer 3" viewBox="0 0 128 128"><path d="M94.68 33.32a43.38 43.38 0 0 0-53.372-6.3 2.378 2.378 0 0 0-1.326.839 43.58 43.58 0 0 0-6.66 5.458 43.582 43.582 0 0 0-5.458 6.661 2.378 2.378 0 0 0-.839 1.325 43.379 43.379 0 0 0 6.3 53.373 43.386 43.386 0 0 0 61.358 0 43.386 43.386 0 0 0 0-61.359zm-57.673 3.689a38.458 38.458 0 0 1 4.318-3.719l10.194 15.436q-.758.62-1.467 1.326-.707.707-1.325 1.467L33.288 41.327a38.468 38.468 0 0 1 3.719-4.318zm39.842 33.74a2.462 2.462 0 0 0-.91 1.48 14.552 14.552 0 0 1-1.679 2.031 14.548 14.548 0 0 1-2.03 1.678 2.462 2.462 0 0 0-1.481.911A14.508 14.508 0 0 1 64 78.51v.01a14.469 14.469 0 0 1-10.26-4.26A14.463 14.463 0 0 1 49.49 64h-.01a14.469 14.469 0 0 1 4.259-10.26 14.51 14.51 0 0 1 20.52 0 14.524 14.524 0 0 1 2.589 17.009zm-39.84 20.244a38.172 38.172 0 0 1-6.516-45.274l15.516 10.243A19.773 19.773 0 0 0 44.284 64h-.01a19.664 19.664 0 0 0 5.777 13.947A19.661 19.661 0 0 0 64 83.716v.01a19.733 19.733 0 0 0 7.979-1.7l10.245 15.516a38.174 38.174 0 0 1-45.215-6.549zm53.983 0a38.464 38.464 0 0 1-4.371 3.76L76.429 79.318a19.944 19.944 0 0 0 1.518-1.369 19.943 19.943 0 0 0 1.37-1.519l15.436 10.19a38.467 38.467 0 0 1-3.761 4.372zm6.549-8.768L82.024 71.978a19.663 19.663 0 0 0-4.075-21.926 19.659 19.659 0 0 0-21.989-4.047L45.717 30.491a38.173 38.173 0 0 1 45.274 6.516 38.174 38.174 0 0 1 6.549 45.216z"/><path d="M64 54.974a9 9 0 0 0-6.382 2.644h.005l-.005.005a9.012 9.012 0 0 0 0 12.753A9.025 9.025 0 1 0 64 54.974zm2.694 11.72a3.811 3.811 0 0 1-5.388 0A3.823 3.823 0 0 1 61.3 61.3l.005.005a3.81 3.81 0 0 1 5.388 5.388z"/></svg>