<svg id="Layer_3" data-name="Layer 3" xmlns="http://www.w3.org/2000/svg" viewBox="0 0 128 128"><title>Artboard 98</title><path d="M64,90.339h0A17.884,17.884,0,0,0,81.838,72.5V37.51A17.884,17.884,0,0,0,64,19.672h0A17.884,17.884,0,0,0,46.162,37.51V72.5A17.884,17.884,0,0,0,64,90.339ZM51.378,37.51A12.665,12.665,0,0,1,64,24.889h0A12.665,12.665,0,0,1,76.622,37.51V72.5A12.665,12.665,0,0,1,64,85.122h0A12.665,12.665,0,0,1,51.378,72.5Z" style="fill:#1b1b1b"/><path d="M61.4,98.838v4.293H54.623a2.6,2.6,0,0,0,0,5.2H73.377a2.6,2.6,0,0,0,0-5.2H66.6V98.838A26.145,26.145,0,0,0,90.145,72.823V63.816a2.608,2.608,0,1,0-5.216,0v9.007a20.928,20.928,0,1,1-41.857,0V63.816a2.608,2.608,0,1,0-5.216,0v9.007A26.145,26.145,0,0,0,61.4,98.838Z" style="fill:#1b1b1b"/></svg>