<svg id="Layer_3" data-name="Layer 3" xmlns="http://www.w3.org/2000/svg" viewBox="0 0 128 128"><title>Artboard 107</title><path d="M89.657,28.292H38.344A15,15,0,0,0,23.38,43.256V84.744A15,15,0,0,0,38.344,99.708H89.657A15,15,0,0,0,104.62,84.744V43.256A15,15,0,0,0,89.657,28.292ZM45.886,73.935a6.418,6.418,0,0,0,3.053-1.7l-.005-.005.005-.005A6.386,6.386,0,0,0,50.822,67.7V34.706a6.39,6.39,0,0,0-.117-1.2h5.87a6.327,6.327,0,0,0-.118,1.2V67.7a6.39,6.39,0,0,0,1.711,4.344q.08.1.171.188a6.418,6.418,0,0,0,3.053,1.7V94.491H45.886Zm20.722,0a6.418,6.418,0,0,0,3.053-1.7l-.005-.005.005-.005A6.386,6.386,0,0,0,71.543,67.7V34.706a6.356,6.356,0,0,0-.115-1.2H77.3a6.39,6.39,0,0,0-.117,1.2V67.7A6.381,6.381,0,0,0,78.9,72.052q.077.093.164.18a6.418,6.418,0,0,0,3.053,1.7V94.491H66.608ZM85.851,33.509a1.194,1.194,0,0,1,.844.354l.074.071a1.2,1.2,0,0,1,.279.772V67.7a1.207,1.207,0,0,1-.349.849l-.005-.005a1.193,1.193,0,0,1-.844.354H83.592a1.193,1.193,0,0,1-.844-.354l-.074-.071a1.2,1.2,0,0,1-.279-.773V34.706a1.208,1.208,0,0,1,1.2-1.2Zm-20.722,0a1.194,1.194,0,0,1,.844.354l.074.071a1.2,1.2,0,0,1,.279.772V67.7a1.207,1.207,0,0,1-.349.849l-.005-.005a1.193,1.193,0,0,1-.844.354H62.871a1.193,1.193,0,0,1-.844-.354l-.08-.077a1.192,1.192,0,0,1-.274-.767V34.706a1.189,1.189,0,0,1,.344-.844l.005,0,.005,0a1.194,1.194,0,0,1,.844-.354Zm-20.722,0a1.208,1.208,0,0,1,1.2,1.2V67.7a1.206,1.206,0,0,1-.349.849l0-.005a1.194,1.194,0,0,1-.844.354H42.149a1.193,1.193,0,0,1-.844-.354l-.08-.077a1.193,1.193,0,0,1-.274-.767V34.706a1.189,1.189,0,0,1,.344-.844l.005,0,.005,0a1.194,1.194,0,0,1,.844-.354ZM31.462,91.626A9.718,9.718,0,0,1,28.6,84.744V43.256a9.768,9.768,0,0,1,7.2-9.4,6.323,6.323,0,0,0-.063.846V67.7a6.39,6.39,0,0,0,1.712,4.344q.08.1.171.188a6.418,6.418,0,0,0,3.053,1.7V94.491H38.344A9.717,9.717,0,0,1,31.462,91.626ZM99.4,84.744a9.782,9.782,0,0,1-9.747,9.747H87.33V73.935a6.418,6.418,0,0,0,3.053-1.7l0-.005,0-.005A6.386,6.386,0,0,0,92.265,67.7V34.706a6.342,6.342,0,0,0-.063-.846,9.768,9.768,0,0,1,7.2,9.4Z" style="fill:#1b1b1b"/></svg>