<svg id="Layer_3" data-name="Layer 3" xmlns="http://www.w3.org/2000/svg" viewBox="0 0 128 128"><title>Artboard 102</title><path d="M38.344,99.708H89.657A15,15,0,0,0,104.62,84.744V43.256A15,15,0,0,0,89.657,28.292H38.344A15,15,0,0,0,23.38,43.256V84.744A15,15,0,0,0,38.344,99.708ZM28.6,43.256a9.784,9.784,0,0,1,9.748-9.747H89.657A9.783,9.783,0,0,1,99.4,43.256V84.744a9.782,9.782,0,0,1-9.747,9.747H38.344A9.783,9.783,0,0,1,28.6,84.744Z" style="fill:#1b1b1b"/><path d="M38.2,77.221a5.578,5.578,0,0,0,1.294.934V86.4a2.608,2.608,0,0,0,5.216,0V78.159a5.487,5.487,0,0,0,1.414-8.617c-.037-.044-.076-.087-.117-.128a5.535,5.535,0,0,0-1.3-.935V41.6a2.608,2.608,0,0,0-5.216,0V68.483a5.577,5.577,0,0,0-1.284.925l-.006.006,0,0,0,0a5.512,5.512,0,0,0,0,7.8Z" style="fill:#1b1b1b"/><path d="M52.8,60.985a5.578,5.578,0,0,0,1.293.934V86.4a2.608,2.608,0,0,0,5.216,0V61.924a5.486,5.486,0,0,0,1.415-8.617c-.037-.044-.076-.087-.117-.128a5.534,5.534,0,0,0-1.3-.935V41.6a2.608,2.608,0,0,0-5.216,0V52.248a5.578,5.578,0,0,0-1.284.924l-.006.006,0,0,0,0a5.512,5.512,0,0,0,0,7.8Z" style="fill:#1b1b1b"/><path d="M67.266,77.221a5.576,5.576,0,0,0,1.426,1.006V86.4a2.608,2.608,0,0,0,5.216,0V78.087a5.487,5.487,0,0,0,1.282-8.545c-.037-.044-.076-.087-.117-.128a5.536,5.536,0,0,0-1.165-.863V41.6a2.608,2.608,0,0,0-5.216,0V68.412a5.577,5.577,0,0,0-1.416,1l-.006.006,0,0,0,0a5.512,5.512,0,0,0,0,7.8Z" style="fill:#1b1b1b"/><path d="M81.867,60.985a5.577,5.577,0,0,0,1.426,1.006V86.4a2.608,2.608,0,0,0,5.216,0V61.852a5.487,5.487,0,0,0,1.282-8.545c-.037-.044-.076-.087-.117-.128a5.534,5.534,0,0,0-1.165-.863V41.6a2.608,2.608,0,0,0-5.216,0v10.58a5.575,5.575,0,0,0-1.416,1l-.006.006,0,0,0,0a5.512,5.512,0,0,0,0,7.8Z" style="fill:#1b1b1b"/></svg>