<svg xmlns="http://www.w3.org/2000/svg" data-name="Layer 3" viewBox="0 0 128 128"><path d="M103.677 60.864a5.528 5.528 0 0 0-1.491-1.467L86.209 48.366 70.144 37.271a5.521 5.521 0 0 0-8.392 2.893 5.424 5.424 0 0 0-.228 1.221 2.628 2.628 0 0 0-.034.419v15.831L32 37.271a5.522 5.522 0 0 0-8.392 2.892 5.436 5.436 0 0 0-.228 1.219 2.6 2.6 0 0 0-.034.422V86.18a5.5 5.5 0 0 0 1.618 3.9l.01.01a5.488 5.488 0 0 0 5.74 1.3L61.49 70.348V86.18a5.5 5.5 0 0 0 1.618 3.9l.01.01a5.5 5.5 0 0 0 7.289.444l15.8-10.912 16.064-11.094a5.507 5.507 0 0 0 1.4-7.659zm-42.5 3.381L29.238 86.3a2.536 2.536 0 0 0-.165.124.314.314 0 0 1-.089.048.349.349 0 0 1-.112.015.292.292 0 0 1-.309-.308V42.021c.006-.072.009-.144.009-.217v-.057l.01-.035a.315.315 0 0 1 .037-.083.308.308 0 0 1 .428-.079L61.13 63.705l.042.029a.334.334 0 0 1 .044.033.341.341 0 0 1 .042.048.307.307 0 0 1-.079.428zm38.143 0L83.255 75.339 67.379 86.3a2.536 2.536 0 0 0-.165.124.306.306 0 0 1-.088.048.352.352 0 0 1-.111.015.292.292 0 0 1-.309-.308V42.017c.006-.07.009-.142.009-.214v-.056l.01-.034a.319.319 0 0 1 .037-.084.309.309 0 0 1 .428-.079l16.065 11.095 16.017 11.06.042.029a.273.273 0 0 1 .085.081.307.307 0 0 1-.078.425z"/></svg>