<svg xmlns="http://www.w3.org/2000/svg" data-name="Layer 3" viewBox="0 0 128 128"><path d="M48.3 31.068h-1.913a2.608 2.608 0 00-2.608 2.608v.1h-4.4a4.556 4.556 0 00-1.263-2.469l-.01-.01a4.545 4.545 0 00-3.217-1.339H24.484a4.544 4.544 0 00-3.218 1.342l-.01.01a4.546 4.546 0 00-1.339 3.217v36.1a4.544 4.544 0 001.339 3.217l.01.01a4.544 4.544 0 003.218 1.346h2.594v20.231a2.608 2.608 0 005.216 0V75.2h2.595a4.545 4.545 0 003.217-1.339l.01-.01a4.544 4.544 0 001.339-3.217V55.45h4.323v.1a2.608 2.608 0 002.608 2.608H48.3a13.257 13.257 0 0013.226-13.222v-.643A13.257 13.257 0 0048.3 31.068zM34.24 69.98h-9.107v-34.8h9.107v34.8zm5.216-19.746V39h4.323v11.233zm16.854-5.3a8.043 8.043 0 01-7.315 7.978v-16.6a8.044 8.044 0 017.315 7.978zM106.734 31.3a4.546 4.546 0 00-3.217-1.339H93.111a4.544 4.544 0 00-3.218 1.339l-.01.01a4.556 4.556 0 00-1.263 2.469h-4.4v-.1a2.608 2.608 0 00-2.608-2.608H79.7a13.257 13.257 0 00-13.226 13.222v.643A13.257 13.257 0 0079.7 58.16h1.915a2.608 2.608 0 002.608-2.608v-.1h4.322v15.177a4.544 4.544 0 001.339 3.217l.01.01a4.544 4.544 0 003.217 1.344h2.595v20.231a2.608 2.608 0 105.216 0V75.2h2.594a4.546 4.546 0 003.217-1.339l.01-.01a4.544 4.544 0 001.339-3.217v-36.1a4.546 4.546 0 00-1.339-3.217zM74.045 50.59a7.983 7.983 0 01-2.354-5.653v-.643a8.044 8.044 0 017.315-7.978v16.6a7.994 7.994 0 01-4.961-2.326zm10.177-.356V39h4.322v11.233zm18.645 19.746H93.76v-34.8h9.107z"/></svg>