<svg id="Layer_3" data-name="Layer 3" xmlns="http://www.w3.org/2000/svg" viewBox="0 0 128 128"><title>Artboard 99</title><path d="M94.68,33.32h0a43.38,43.38,0,0,0-53.372-6.3,2.378,2.378,0,0,0-1.326.839,43.58,43.58,0,0,0-6.66,5.458h0a43.582,43.582,0,0,0-5.458,6.661,2.378,2.378,0,0,0-.839,1.325,43.379,43.379,0,0,0,6.3,53.373h0a43.386,43.386,0,0,0,61.358,0h0a43.386,43.386,0,0,0,0-61.359ZM37.007,37.009h0a38.458,38.458,0,0,1,4.318-3.719L51.519,48.726q-.758.62-1.467,1.326h0q-.707.707-1.325,1.467L33.288,41.327A38.468,38.468,0,0,1,37.007,37.009Zm39.842,33.74a2.462,2.462,0,0,0-.91,1.48A14.552,14.552,0,0,1,74.26,74.26h0a14.548,14.548,0,0,1-2.03,1.678,2.462,2.462,0,0,0-1.481.911A14.508,14.508,0,0,1,64,78.51v.01A14.469,14.469,0,0,1,53.74,74.26h0A14.463,14.463,0,0,1,49.49,64h-.01A14.469,14.469,0,0,1,53.739,53.74h0a14.51,14.51,0,0,1,20.52,0h0a14.524,14.524,0,0,1,2.589,17.009ZM37.009,90.993h0a38.172,38.172,0,0,1-6.516-45.274L46.009,55.962A19.773,19.773,0,0,0,44.284,64h-.01a19.664,19.664,0,0,0,5.777,13.947h0A19.661,19.661,0,0,0,64,83.716v.01a19.733,19.733,0,0,0,7.979-1.7L82.224,97.542a38.174,38.174,0,0,1-45.215-6.549Zm53.983,0h0a38.464,38.464,0,0,1-4.371,3.76L76.429,79.318a19.944,19.944,0,0,0,1.518-1.369h0a19.943,19.943,0,0,0,1.37-1.519L94.753,86.62A38.467,38.467,0,0,1,90.992,90.992Zm6.549-8.768L82.024,71.978a19.663,19.663,0,0,0-4.075-21.926h0A19.659,19.659,0,0,0,55.96,46.005L45.717,30.491a38.173,38.173,0,0,1,45.274,6.516h0a38.174,38.174,0,0,1,6.549,45.216Z" style="fill:#1b1b1b"/><path d="M64,54.974a9,9,0,0,0-6.382,2.644h0l.005,0-.005.005a9.012,9.012,0,0,0,0,12.753h0A9.025,9.025,0,1,0,64,54.974Zm2.694,11.72a3.811,3.811,0,0,1-5.388,0h0A3.823,3.823,0,0,1,61.3,61.3l.005.005h0a3.81,3.81,0,0,1,5.388,5.388Z" style="fill:#1b1b1b"/></svg>