<svg xmlns="http://www.w3.org/2000/svg" data-name="Layer 3" viewBox="0 0 128 128"><path d="M94.68 33.32a43.387 43.387 0 00-61.359 0 43.386 43.386 0 000 61.359 43.386 43.386 0 0061.358 0 43.386 43.386 0 000-61.358zm-3.687 57.671a38.173 38.173 0 01-53.982 0 38.173 38.173 0 010-53.983 38.174 38.174 0 0153.983 0 38.173 38.173 0 010 53.982z"/><path d="M89.41 60.719a5.3 5.3 0 00-.5-.561 5.4 5.4 0 00-.8-.649L72.859 48.976 57.516 38.38a5.39 5.39 0 00-8.193 2.82 5.256 5.256 0 00-.222 1.181 2.627 2.627 0 00-.034.42v42.386a5.384 5.384 0 008.7 4.25l15.09-10.421L88.03 68.539a2.623 2.623 0 00.4-.284 5.377 5.377 0 001.3-7.072 2.577 2.577 0 00-.32-.464zm-4.162 3.423h-.005L69.9 74.737 54.743 85.208c-.058.04-.113.082-.167.125a.191.191 0 01-.048.024.225.225 0 01-.068.007.176.176 0 01-.177-.177V43.015c.005-.069.009-.14.009-.211V42.753a.2.2 0 01.02-.049.178.178 0 01.246-.045L69.9 53.255l15.3 10.564.042.029.025.017a.217.217 0 01.025.029.177.177 0 01-.048.242z"/></svg>