<svg xmlns="http://www.w3.org/2000/svg" data-name="Layer 3" viewBox="0 0 128 128"><path d="M100.088 22.842a2.608 2.608 0 1 0-5.216 0V33.9c-.065-.066-.125-.135-.191-.2a43.386 43.386 0 0 0-61.359 0 43.387 43.387 0 0 0 0 61.359 43.386 43.386 0 0 0 61.358 0 43.392 43.392 0 0 0 5.407-54.77zm2.084 41.536a38.052 38.052 0 0 1-11.179 26.99 38.173 38.173 0 0 1-53.982 0 38.173 38.173 0 0 1 0-53.983 38.173 38.173 0 0 1 53.984 0 38.438 38.438 0 0 1 3.879 4.535v25.267l-8.293 9.478a5.176 5.176 0 0 0-4.905 1.658l-5.712 6.529a5.177 5.177 0 0 0-.992 5.081l-3.233 3.7a2.6 2.6 0 1 0 3.912 3.423l3.233-3.7a5.176 5.176 0 0 0 4.9-1.658L89.5 85.17a5.177 5.177 0 0 0 .992-5.081l8.8-10.062a2.6 2.6 0 0 0 .794-1.873V51.922a38.274 38.274 0 0 1 2.086 12.456z"/><path d="M70.381 58a9.024 9.024 0 0 0-12.762 0 9.024 9.024 0 0 0 0 12.764 9.025 9.025 0 0 0 12.762 0 9.025 9.025 0 0 0 0-12.764zm-3.687 9.076a3.811 3.811 0 0 1-5.386 0 3.811 3.811 0 0 1 0-5.388 3.811 3.811 0 0 1 5.386 0 3.811 3.811 0 0 1 0 5.388z"/><path d="M77.948 78.326a19.724 19.724 0 0 0 0-27.9 19.724 19.724 0 0 0-27.9 0 19.724 19.724 0 0 0 0 27.9A19.661 19.661 0 0 0 64 84.094v.01a19.667 19.667 0 0 0 13.948-5.778zm-3.688-3.688A14.465 14.465 0 0 1 64 78.888v.01a14.469 14.469 0 0 1-10.259-4.26 14.51 14.51 0 0 1 0-20.52 14.511 14.511 0 0 1 20.521 0 14.511 14.511 0 0 1 0 20.52z"/></svg>