<svg xmlns="http://www.w3.org/2000/svg" data-name="Layer 3" viewBox="0 0 128 128"><path d="M38.344 99.708h51.313a15 15 0 0 0 14.963-14.964V43.256a15 15 0 0 0-14.963-14.964H38.344A15 15 0 0 0 23.38 43.256v41.488a15 15 0 0 0 14.964 14.964zM28.6 43.256a9.783 9.783 0 0 1 9.748-9.747h51.309a9.783 9.783 0 0 1 9.743 9.747v41.488a9.783 9.783 0 0 1-9.747 9.747H38.344a9.783 9.783 0 0 1-9.744-9.747z"/><path d="M38.638 45.841h8.056a2.608 2.608 0 0 0 0-5.216h-8.056a2.608 2.608 0 1 0 0 5.216zM38.638 54.148h8.056a2.608 2.608 0 0 0 0-5.216h-8.056a2.608 2.608 0 1 0 0 5.216zM38.638 62.455h8.056a2.608 2.608 0 0 0 0-5.216h-8.056a2.608 2.608 0 1 0 0 5.216zM38.638 70.762h8.056a2.608 2.608 0 0 0 0-5.216h-8.056a2.608 2.608 0 1 0 0 5.216zM38.638 79.069h8.056a2.608 2.608 0 0 0 0-5.216h-8.056a2.608 2.608 0 1 0 0 5.216zM38.638 87.376h8.056a2.608 2.608 0 0 0 0-5.216h-8.056a2.608 2.608 0 1 0 0 5.216zM59.972 70.762h8.056a2.608 2.608 0 0 0 0-5.216h-8.056a2.608 2.608 0 0 0 0 5.216zM59.972 79.069h8.056a2.608 2.608 0 0 0 0-5.216h-8.056a2.608 2.608 0 1 0 0 5.216zM59.972 87.376h8.056a2.608 2.608 0 0 0 0-5.216h-8.056a2.608 2.608 0 0 0 0 5.216zM81.306 54.148h8.056a2.608 2.608 0 0 0 0-5.216h-8.056a2.608 2.608 0 0 0 0 5.216zM81.306 62.455h8.056a2.608 2.608 0 0 0 0-5.216h-8.056a2.608 2.608 0 1 0 0 5.216zM81.306 70.762h8.056a2.608 2.608 0 0 0 0-5.216h-8.056a2.608 2.608 0 0 0 0 5.216zM81.306 79.069h8.056a2.608 2.608 0 0 0 0-5.216h-8.056a2.608 2.608 0 1 0 0 5.216zM81.306 87.376h8.056a2.608 2.608 0 0 0 0-5.216h-8.056a2.608 2.608 0 0 0 0 5.216z"/></svg>