<svg id="Layer_3" data-name="Layer 3" xmlns="http://www.w3.org/2000/svg" viewBox="0 0 128 128"><title>Artboard 100</title><path d="M38.344,99.708H89.657A15,15,0,0,0,104.62,84.744V43.256A15,15,0,0,0,89.657,28.292H38.344A15,15,0,0,0,23.38,43.256V84.744A15,15,0,0,0,38.344,99.708ZM28.6,43.256a9.783,9.783,0,0,1,9.748-9.747H89.657A9.783,9.783,0,0,1,99.4,43.256V84.744a9.783,9.783,0,0,1-9.747,9.747H38.344A9.783,9.783,0,0,1,28.6,84.744Z" style="fill:#1b1b1b"/><path d="M38.638,45.841h8.056a2.608,2.608,0,0,0,0-5.216H38.638a2.608,2.608,0,1,0,0,5.216Z" style="fill:#1b1b1b"/><path d="M38.638,54.148h8.056a2.608,2.608,0,0,0,0-5.216H38.638a2.608,2.608,0,1,0,0,5.216Z" style="fill:#1b1b1b"/><path d="M38.638,62.455h8.056a2.608,2.608,0,0,0,0-5.216H38.638a2.608,2.608,0,1,0,0,5.216Z" style="fill:#1b1b1b"/><path d="M38.638,70.762h8.056a2.608,2.608,0,0,0,0-5.216H38.638a2.608,2.608,0,1,0,0,5.216Z" style="fill:#1b1b1b"/><path d="M38.638,79.069h8.056a2.608,2.608,0,0,0,0-5.216H38.638a2.608,2.608,0,1,0,0,5.216Z" style="fill:#1b1b1b"/><path d="M38.638,87.376h8.056a2.608,2.608,0,0,0,0-5.216H38.638a2.608,2.608,0,1,0,0,5.216Z" style="fill:#1b1b1b"/><path d="M59.972,70.762h8.056a2.608,2.608,0,0,0,0-5.216H59.972a2.608,2.608,0,0,0,0,5.216Z" style="fill:#1b1b1b"/><path d="M59.972,79.069h8.056a2.608,2.608,0,0,0,0-5.216H59.972a2.608,2.608,0,1,0,0,5.216Z" style="fill:#1b1b1b"/><path d="M59.972,87.376h8.056a2.608,2.608,0,0,0,0-5.216H59.972a2.608,2.608,0,0,0,0,5.216Z" style="fill:#1b1b1b"/><path d="M81.306,54.148h8.056a2.608,2.608,0,0,0,0-5.216H81.306a2.608,2.608,0,0,0,0,5.216Z" style="fill:#1b1b1b"/><path d="M81.306,62.455h8.056a2.608,2.608,0,0,0,0-5.216H81.306a2.608,2.608,0,1,0,0,5.216Z" style="fill:#1b1b1b"/><path d="M81.306,70.762h8.056a2.608,2.608,0,0,0,0-5.216H81.306a2.608,2.608,0,0,0,0,5.216Z" style="fill:#1b1b1b"/><path d="M81.306,79.069h8.056a2.608,2.608,0,0,0,0-5.216H81.306a2.608,2.608,0,1,0,0,5.216Z" style="fill:#1b1b1b"/><path d="M81.306,87.376h8.056a2.608,2.608,0,0,0,0-5.216H81.306a2.608,2.608,0,0,0,0,5.216Z" style="fill:#1b1b1b"/></svg>