<svg id="Layer_3" data-name="Layer 3" xmlns="http://www.w3.org/2000/svg" viewBox="0 0 128 128"><title>Artboard 109</title><path d="M100.088,22.842a2.608,2.608,0,1,0-5.216,0V33.9c-.065-.066-.125-.135-.191-.2h0a43.386,43.386,0,0,0-61.359,0h0a43.387,43.387,0,0,0,0,61.359h0a43.386,43.386,0,0,0,61.358,0h0a43.392,43.392,0,0,0,5.407-54.77Zm2.084,41.536A38.052,38.052,0,0,1,90.993,91.368h0a38.173,38.173,0,0,1-53.982,0h0a38.173,38.173,0,0,1,0-53.983h0a38.173,38.173,0,0,1,53.984,0h0a38.438,38.438,0,0,1,3.879,4.535V67.187l-8.293,9.478a5.176,5.176,0,0,0-4.905,1.658l-5.712,6.529a5.177,5.177,0,0,0-.992,5.081l-3.233,3.7a2.6,2.6,0,1,0,3.912,3.423l3.233-3.7a5.176,5.176,0,0,0,4.9-1.658L89.5,85.17a5.177,5.177,0,0,0,.992-5.081l8.8-10.062a2.6,2.6,0,0,0,.794-1.873V51.922A38.274,38.274,0,0,1,102.172,64.378Z" style="fill:#1b1b1b"/><path d="M70.381,58a9.024,9.024,0,0,0-12.762,0h0a9.024,9.024,0,0,0,0,12.764h0a9.025,9.025,0,0,0,12.762,0h0a9.025,9.025,0,0,0,0-12.764Zm-3.687,9.076h0a3.811,3.811,0,0,1-5.386,0h0a3.811,3.811,0,0,1,0-5.388h0a3.811,3.811,0,0,1,5.386,0h0a3.811,3.811,0,0,1,0,5.388Z" style="fill:#1b1b1b"/><path d="M77.948,78.326h0a19.724,19.724,0,0,0,0-27.9h0a19.724,19.724,0,0,0-27.9,0h0a19.724,19.724,0,0,0,0,27.9h0A19.661,19.661,0,0,0,64,84.094v.01a19.667,19.667,0,0,0,13.948-5.778ZM74.26,74.638h0A14.465,14.465,0,0,1,64,78.888v.01a14.469,14.469,0,0,1-10.259-4.26h0a14.51,14.51,0,0,1,0-20.52h0a14.511,14.511,0,0,1,20.521,0h0a14.511,14.511,0,0,1,0,20.52Z" style="fill:#1b1b1b"/></svg>