<svg id="Layer_3" data-name="Layer 3" xmlns="http://www.w3.org/2000/svg" viewBox="0 0 128 128"><title>Artboard 108</title><path d="M55.1,25.009H36.824a3.868,3.868,0,0,0-2.74,1.137v.01a3.858,3.858,0,0,0-1.137,2.73v70.23a3.867,3.867,0,0,0,1.137,2.73l0,.005.005.005a3.868,3.868,0,0,0,2.73,1.137H55.1a3.867,3.867,0,0,0,2.73-1.137l.005-.005.005-.005a3.868,3.868,0,0,0,1.137-2.73V28.885a3.858,3.858,0,0,0-1.137-2.73v-.01A3.868,3.868,0,0,0,55.1,25.009Zm-1.34,72.767H38.164V30.225H53.755Z" style="fill:#1b1b1b"/><path d="M91.176,25.009H72.9a3.868,3.868,0,0,0-2.74,1.137v.01a3.858,3.858,0,0,0-1.137,2.73v70.23a3.867,3.867,0,0,0,1.137,2.73l.005.005.005.005a3.868,3.868,0,0,0,2.73,1.137H91.176a3.867,3.867,0,0,0,2.73-1.137l.005-.005,0-.005a3.867,3.867,0,0,0,1.137-2.73V28.885a3.857,3.857,0,0,0-1.137-2.73v-.01A3.868,3.868,0,0,0,91.176,25.009Zm-1.34,72.767H74.245V30.225H89.836Z" style="fill:#1b1b1b"/></svg>