<svg id="Layer_3" data-name="Layer 3" xmlns="http://www.w3.org/2000/svg" viewBox="0 0 128 128"><title>Artboard 105</title><path d="M24.907,36.655c-.1.1-.19.206-.283.311-.141.16-.276.325-.406.495-.054.07-.117.134-.169.206-.022.03-.035.063-.055.093a9.678,9.678,0,0,0-1.808,5.624V84.616a9.723,9.723,0,0,0,2.719,6.739c.047.055.1.109.147.161a9.739,9.739,0,0,0,6.9,2.867H96.047a9.788,9.788,0,0,0,9.767-9.767V43.384a9.761,9.761,0,0,0-6.354-9.137l-.072-.026a9.659,9.659,0,0,0-.942-.292c-.059-.015-.118-.032-.177-.046-.29-.068-.586-.122-.885-.163-.077-.011-.153-.026-.23-.035a9.746,9.746,0,0,0-1.107-.068H31.952a9.749,9.749,0,0,0-1.109.068c-.077.009-.153.024-.23.035-.3.042-.6.1-.886.163-.06.014-.12.031-.18.046a9.65,9.65,0,0,0-.945.293l-.067.025a9.805,9.805,0,0,0-3.483,2.235l.005,0-.005,0C25,36.545,24.957,36.6,24.907,36.655ZM99.319,87.887a4.621,4.621,0,0,1-3.272,1.363H31.952a4.619,4.619,0,0,1-3.271-1.363c-.035-.035-.071-.069-.107-.1a4.63,4.63,0,0,1-1.256-3.17V43.48L42.077,55.451l9.341,7.576L36.8,77.007a2.559,2.559,0,0,0,3.528,3.709l15.1-14.438L59.1,69.255a7.786,7.786,0,0,0,9.889-.065l.073-.063,3.584-2.907L87.8,80.716a2.559,2.559,0,1,0,3.528-3.709L76.65,62.97l9.27-7.518,14.763-11.974V84.616A4.62,4.62,0,0,1,99.319,87.887ZM96.047,38.749a4.751,4.751,0,0,1,.931.1,4.571,4.571,0,0,1,.923.3L82.692,51.482,65.837,65.153c-.047.034-.094.07-.139.109a2.641,2.641,0,0,1-3.374.025L45.3,51.482,30.1,39.147a4.573,4.573,0,0,1,.923-.3,4.747,4.747,0,0,1,.933-.1Z"/></svg>