<svg id="Layer_3" data-name="Layer 3" xmlns="http://www.w3.org/2000/svg" viewBox="0 0 128 128"><title>Artboard 98</title><path d="M36.076,102.357H91.924a8.454,8.454,0,0,0,8.444-8.444V34.087a8.454,8.454,0,0,0-8.444-8.444H36.076a8.454,8.454,0,0,0-8.444,8.444V93.913A8.454,8.454,0,0,0,36.076,102.357ZM86.221,59.593h9.924v8.815H86.221Zm0,13.037h9.924v8.82H86.221Zm9.924-17.259H86.221V46.553h9.924ZM82,98.135H46V29.865H82ZM41.777,68.409H31.854V59.593h9.922Zm0,4.222v8.82H31.854v-8.82Zm0-17.259H31.854V46.553h9.922ZM31.854,93.913v-8.24h9.922V98.135h-5.7A4.226,4.226,0,0,1,31.854,93.913Zm60.069,4.222h-5.7V85.673h9.924v8.24A4.226,4.226,0,0,1,91.924,98.135Zm4.222-64.048v8.244H86.221V29.865h5.7A4.226,4.226,0,0,1,96.146,34.087ZM36.076,29.865h5.7V42.331H31.854V34.087A4.226,4.226,0,0,1,36.076,29.865Z"/></svg>