<svg xmlns="http://www.w3.org/2000/svg" data-name="Layer 3" viewBox="0 0 128 128"><path d="M61.889 94.507v15.8a2.111 2.111 0 1 0 4.222 0v-15.8A33.365 33.365 0 0 0 97.35 61.264a2.111 2.111 0 1 0-4.222 0 29.144 29.144 0 0 1-27.017 29.021V78.856a18.024 18.024 0 0 0 15.895-17.871v-27.4a18.006 18.006 0 0 0-36.011 0v27.4a18.024 18.024 0 0 0 15.894 17.871v11.43a29.144 29.144 0 0 1-27.017-29.022 2.111 2.111 0 1 0-4.222 0 33.365 33.365 0 0 0 31.239 33.243zm15.895-60.924v27.4a13.793 13.793 0 0 1-11.672 13.6V19.979a13.791 13.791 0 0 1 11.672 13.604zm-27.567 27.4v-27.4a13.791 13.791 0 0 1 11.673-13.6V74.59a13.793 13.793 0 0 1-11.674-13.605z"/></svg>