<svg id="Layer_3" data-name="Layer 3" xmlns="http://www.w3.org/2000/svg" viewBox="0 0 128 128"><title>Artboard 109</title><path d="M76.62,31.708H75.293v-4.63a7.86,7.86,0,0,0-7.852-7.85h-6.89a7.858,7.858,0,0,0-7.848,7.85v4.63H51.38a8.453,8.453,0,0,0-8.444,8.444v60.177a8.453,8.453,0,0,0,8.444,8.444H76.62a8.453,8.453,0,0,0,8.444-8.444V40.152A8.453,8.453,0,0,0,76.62,31.708Zm-19.7-4.63a3.632,3.632,0,0,1,3.626-3.628h6.89a3.634,3.634,0,0,1,3.63,3.628v4.63H56.925Zm23.917,73.251a4.227,4.227,0,0,1-4.222,4.222H51.38a4.227,4.227,0,0,1-4.222-4.222V40.152A4.227,4.227,0,0,1,51.38,35.93H76.62a4.227,4.227,0,0,1,4.222,4.222Z"/><path d="M70.224,68.129H61.7l4.9-8.116a2.111,2.111,0,0,0-3.616-2.181L56.152,69.15a2.112,2.112,0,0,0,1.808,3.2h8.25l-5.228,7.6a2.111,2.111,0,0,0,3.48,2.391l7.5-10.91a2.111,2.111,0,0,0-1.74-3.307Z"/></svg>