<svg id="Layer_3" data-name="Layer 3" xmlns="http://www.w3.org/2000/svg" viewBox="0 0 128 128"><title>Artboard 106</title><path d="M104.966,36.384,64.944,16.372a2.114,2.114,0,0,0-1.889,0L23.034,36.384a2.112,2.112,0,0,0-1.162,1.738c-.119,1.682-2.443,41.549,40.88,73.321a2.112,2.112,0,0,0,2.5,0c43.323-31.772,41-71.639,40.88-73.321A2.112,2.112,0,0,0,104.966,36.384ZM64,107.109C27.893,79.9,26.05,46.252,26.057,39.593L64,20.621l37.943,18.972C101.951,46.252,100.108,79.9,64,107.109Z"/><path d="M50.4,54a2.111,2.111,0,1,0-3.777,1.888l7.862,15.724a2.112,2.112,0,0,0,1.447,1.119l.441.047A2.111,2.111,0,0,0,57.71,72.3l23.584-19.3a2.112,2.112,0,0,0-2.674-3.27L57.08,67.36Z"/></svg>