<svg id="Layer_3" data-name="Layer 3" xmlns="http://www.w3.org/2000/svg" viewBox="0 0 128 128"><title>Artboard 97</title><path d="M28.781,104.122H99.219a2.111,2.111,0,0,0,2.111-2.111V52.188a2.11,2.11,0,0,0-.851-1.694L65.26,24.3a2.109,2.109,0,0,0-2.519,0l-35.219,26.2a2.11,2.11,0,0,0-.851,1.694v49.822A2.111,2.111,0,0,0,28.781,104.122ZM72.195,99.9H55.8V75.344H72.195Zm-41.3-46.651L64,28.62,97.108,53.249V99.9H76.417V73.233a2.111,2.111,0,0,0-2.111-2.111H53.69a2.111,2.111,0,0,0-2.111,2.111V99.9H30.892Z"/></svg>