<svg id="Layer_3" data-name="Layer 3" xmlns="http://www.w3.org/2000/svg" viewBox="0 0 128 128"><title>Artboard 100</title><path d="M61.889,94.507v15.8a2.111,2.111,0,1,0,4.222,0v-15.8A33.365,33.365,0,0,0,97.35,61.264a2.111,2.111,0,1,0-4.222,0A29.144,29.144,0,0,1,66.111,90.285V78.856A18.024,18.024,0,0,0,82.006,60.985v-27.4a18.006,18.006,0,0,0-36.011,0v27.4A18.024,18.024,0,0,0,61.889,78.856v11.43A29.144,29.144,0,0,1,34.872,61.264a2.111,2.111,0,1,0-4.222,0A33.365,33.365,0,0,0,61.889,94.507ZM77.784,33.583v27.4a13.793,13.793,0,0,1-11.672,13.6V19.979A13.791,13.791,0,0,1,77.784,33.583Zm-27.567,27.4v-27.4a13.791,13.791,0,0,1,11.673-13.6V74.59A13.793,13.793,0,0,1,50.216,60.985Z"/></svg>