<svg id="Layer_3" data-name="Layer 3" xmlns="http://www.w3.org/2000/svg" viewBox="0 0 128 128"><title>Artboard 103</title><path d="M89.3,75.226V49.8A24.8,24.8,0,0,0,73.83,26.856a9.309,9.309,0,0,0-18.61,0A24.8,24.8,0,0,0,39.75,49.8V75.149a11.418,11.418,0,0,0,.344,22.832H50.382a14.3,14.3,0,0,0,28.288,0H87.9a11.42,11.42,0,0,0,1.4-22.755ZM64.524,22.033a5.1,5.1,0,0,1,4.82,3.472,24.509,24.509,0,0,0-9.638,0A5.1,5.1,0,0,1,64.524,22.033Zm0,7.217A20.575,20.575,0,0,1,85.077,49.8V75.131H43.972V49.8A20.578,20.578,0,0,1,64.528,29.25Zm0,76.717a10.112,10.112,0,0,1-9.87-7.986H74.392A10.105,10.105,0,0,1,64.53,105.967ZM87.9,93.758H40.094a7.2,7.2,0,0,1,0-14.405H87.9a7.2,7.2,0,1,1,0,14.405Z"/></svg>