<svg id="Layer_3" data-name="Layer 3" xmlns="http://www.w3.org/2000/svg" viewBox="0 0 128 128"><title>Artboard 107</title><path d="M88.338,55.424h-.91a23.528,23.528,0,0,0-46.856,0h-.911a19.255,19.255,0,0,0,0,38.51H88.338a19.255,19.255,0,0,0,0-38.51Zm9.973,29.228A14.079,14.079,0,0,1,88.338,88.8H39.662a14.123,14.123,0,0,1,0-28.246h3.383A2.566,2.566,0,0,0,45.61,57.99a2.6,2.6,0,0,0-.014-.266v-.131h.01a18.395,18.395,0,1,1,36.79,0c0,.067,0,.133.008.2l0,.159a2.556,2.556,0,0,0,2.516,2.6h.04v.01h3.383a14.1,14.1,0,0,1,9.973,24.1Z"/></svg>