<svg xmlns="http://www.w3.org/2000/svg" data-name="Layer 3" viewBox="0 0 128 128"><path d="M64 106a42.006 42.006 0 1 0-29.7-12.3A41.874 41.874 0 0 0 64 106zM37.927 37.927A36.873 36.873 0 1 1 27.127 64a36.758 36.758 0 0 1 10.8-26.073z"/><path d="M47.232 80.768a2.566 2.566 0 0 0 3.628 0L64 67.628l13.14 13.14a2.566 2.566 0 0 0 3.628-3.628L67.628 64l13.14-13.14a2.566 2.566 0 0 0-3.628-3.628L64 60.372l-13.14-13.14a2.566 2.566 0 1 0-3.628 3.628L60.372 64l-13.14 13.14a2.566 2.566 0 0 0 0 3.628z"/></svg>