<svg id="Layer_3" data-name="Layer 3" xmlns="http://www.w3.org/2000/svg" viewBox="0 0 128 128"><title>Artboard 106</title><path d="M102.942,36.489l0,0a9.728,9.728,0,0,0-6.89-2.867H31.953a9.723,9.723,0,0,0-6.739,2.719c-.055.046-.109.1-.161.147a9.739,9.739,0,0,0-2.867,6.9V84.616a9.788,9.788,0,0,0,9.767,9.767H96.047a9.788,9.788,0,0,0,9.767-9.767V43.384a9.739,9.739,0,0,0-2.867-6.9Zm-2.26,48.126a4.655,4.655,0,0,1-4.635,4.635H31.953a4.655,4.655,0,0,1-4.635-4.635V43.384a4.62,4.62,0,0,1,1.363-3.271c.035-.035.069-.071.1-.107a4.631,4.631,0,0,1,3.17-1.256H96.047a4.633,4.633,0,0,1,3.277,1.358l-.005,0a4.619,4.619,0,0,1,1.363,3.271Z"/><path d="M77.327,56.336c-.025-.023-.055-.038-.081-.059a2.542,2.542,0,0,0-.291-.214c-.043-.027-.087-.049-.131-.073a2.526,2.526,0,0,0-.318-.148c-.047-.018-.094-.031-.142-.046a2.534,2.534,0,0,0-.334-.081c-.048-.008-.1-.012-.145-.018a2.559,2.559,0,0,0-.345-.016c-.047,0-.094.006-.141.01a2.545,2.545,0,0,0-.345.051c-.046.01-.091.024-.137.037a2.516,2.516,0,0,0-.33.116c-.046.02-.09.044-.135.067a2.517,2.517,0,0,0-.3.176c-.045.031-.087.067-.131.1s-.121.084-.176.137L61.517,68.171l-6.261-5.988c-.048-.045-.1-.077-.153-.119A2.58,2.58,0,0,0,54.9,61.9c-.07-.046-.144-.083-.218-.122s-.148-.08-.225-.111a2.5,2.5,0,0,0-.238-.077c-.078-.023-.155-.048-.234-.063s-.164-.022-.246-.03-.161-.017-.243-.017-.162.009-.243.017-.164.014-.246.03-.156.04-.234.063-.16.045-.238.077-.15.072-.225.111-.148.075-.218.122a2.554,2.554,0,0,0-.206.16c-.051.041-.106.074-.154.119L35.009,78.174a2.559,2.559,0,0,0,3.528,3.709l14.956-14.3,9.944,9.511a2.559,2.559,0,0,0,3.528-3.709L65.22,71.712l10.442-9.987,14.993,13.6a2.555,2.555,0,0,0,3.428-3.789Z"/><path d="M42.2,63.684a9.14,9.14,0,1,0-6.462-2.677A9.111,9.111,0,0,0,42.2,63.684ZM39.37,51.711A4.008,4.008,0,1,1,38.2,54.545,4,4,0,0,1,39.37,51.711Z"/></svg>