<svg id="Layer_3" data-name="Layer 3" xmlns="http://www.w3.org/2000/svg" viewBox="0 0 128 128"><title>Artboard 111</title><path d="M96.946,43.216a2.567,2.567,0,0,0-.1-.322c-.027-.062-.065-.117-.1-.177a2.569,2.569,0,0,0-.144-.261c-.039-.057-.089-.106-.132-.16a2.573,2.573,0,0,0-.186-.221l-.009-.011L77.248,23.036a2.575,2.575,0,0,0-.4-.323c-.054-.036-.112-.06-.168-.091a2.533,2.533,0,0,0-.274-.144c-.072-.03-.146-.045-.22-.068a2.493,2.493,0,0,0-.26-.077,2.575,2.575,0,0,0-.385-.039c-.039,0-.075-.012-.115-.012H40.717a9.789,9.789,0,0,0-9.767,9.767v63.9a9.789,9.789,0,0,0,9.767,9.767H87.283a9.789,9.789,0,0,0,9.767-9.767V43.9A2.572,2.572,0,0,0,97,43.379C96.985,43.322,96.961,43.271,96.946,43.216ZM88.29,41.334H82.632A4.655,4.655,0,0,1,78,36.7V31.042Zm3.628,54.618a4.655,4.655,0,0,1-4.635,4.635H40.717a4.655,4.655,0,0,1-4.635-4.635v-63.9a4.655,4.655,0,0,1,4.635-4.635H72.865V36.7a9.789,9.789,0,0,0,9.767,9.767h9.286Z"/><path d="M45.519,53.242a2.566,2.566,0,0,0,0,5.132H82.481a2.566,2.566,0,0,0,0-5.132Z"/><path d="M82.481,69.627H45.519a2.566,2.566,0,0,0,0,5.132H82.481a2.566,2.566,0,1,0,0-5.132Z"/><path d="M82.481,86.012H45.519a2.566,2.566,0,0,0,0,5.132H82.481a2.566,2.566,0,1,0,0-5.132Z"/></svg>