<svg id="Layer_3" data-name="Layer 3" xmlns="http://www.w3.org/2000/svg" viewBox="0 0 128 128"><title>Artboard 99</title><path d="M105.363,22.017H22.637a2.11,2.11,0,0,0-2.111,2.111V80.262a2.11,2.11,0,0,0,2.111,2.111H61.889v14.9h-9.66a6.608,6.608,0,0,0-6.6,6.6,2.111,2.111,0,1,0,4.222,0,2.382,2.382,0,0,1,2.379-2.379H75.771a2.382,2.382,0,0,1,2.379,2.379,2.111,2.111,0,1,0,4.222,0,6.608,6.608,0,0,0-6.6-6.6h-9.66v-14.9h39.252a2.11,2.11,0,0,0,2.111-2.111V24.128A2.111,2.111,0,0,0,105.363,22.017Zm-2.111,4.222V62.2h-78.5V26.239Zm-78.5,51.913V66.419h78.5V78.151Z"/></svg>