<svg id="Layer_3" data-name="Layer 3" xmlns="http://www.w3.org/2000/svg" viewBox="0 0 128 128"><title>Artboard 103</title><path d="M64,106A42.006,42.006,0,1,0,34.3,93.7,41.874,41.874,0,0,0,64,106ZM37.927,37.927A36.873,36.873,0,1,1,27.127,64,36.758,36.758,0,0,1,37.927,37.927Z"/><path d="M47.232,80.768a2.566,2.566,0,0,0,3.628,0L64,67.628l13.14,13.14a2.566,2.566,0,0,0,3.628-3.628L67.628,64l13.14-13.14a2.566,2.566,0,0,0-3.628-3.628L64,60.372,50.86,47.232a2.566,2.566,0,1,0-3.628,3.628L60.372,64,47.232,77.14A2.566,2.566,0,0,0,47.232,80.768Z"/></svg>