<svg xmlns="http://www.w3.org/2000/svg" data-name="Layer 3" viewBox="0 0 128 128"><path d="M64 22a42.006 42.006 0 1029.7 12.3A41.873 41.873 0 0064 22zm26.073 68.073A36.874 36.874 0 11100.872 64a36.759 36.759 0 01-10.799 26.073z"/><path d="M86.507 60.036a2.584 2.584 0 00-.2-.178 5.605 5.605 0 00-.968-.7L70.566 50.63a2.623 2.623 0 00-.113-.069L55.526 41.94a5.579 5.579 0 00-8.173 3.377 5.394 5.394 0 00-.171 1.054 2.545 2.545 0 00-.029.388v34.475a5.576 5.576 0 008.617 4.672l14.674-8.472.164-.1 14.762-8.523c.062-.036.122-.074.18-.114a5.6 5.6 0 00.956-8.664zm-3.493 4.082a.444.444 0 01-.151.234l-.059.033-14.761 8.523q-.072.041-.141.088c-.017.011 0 0 0 0L67.9 73l-14.734 8.509c-.059.034-.118.07-.176.109a.421.421 0 01-.113.054.583.583 0 01-.142.011.449.449 0 01-.45-.45V46.759a.547.547 0 01.022-.119.431.431 0 01.307-.312.459.459 0 01.348.043L67.74 54.9c.047.031.1.062.145.091l14.89 8.6.039.022a.275.275 0 01.031.02l.053.054a.7.7 0 01.082.088.455.455 0 01.034.343z"/></svg>