<svg xmlns="http://www.w3.org/2000/svg" data-name="Layer 3" viewBox="0 0 128 128"><path d="M64 21.433A42.567 42.567 0 1 0 106.567 64 42.615 42.615 0 0 0 64 21.433zm0 80.912A38.345 38.345 0 1 1 102.345 64 38.389 38.389 0 0 1 64 102.345z"/><path d="M79.459 48.3a2.11 2.11 0 0 0-2.985 0L64 60.778 51.523 48.3a2.111 2.111 0 1 0-2.985 2.985l12.476 12.478-12.473 12.474a2.111 2.111 0 1 0 2.985 2.985L64 66.748l12.474 12.474a2.111 2.111 0 0 0 2.985-2.985L66.984 63.763l12.475-12.477a2.11 2.11 0 0 0 0-2.986z"/></svg>