<svg id="Layer_3" data-name="Layer 3" xmlns="http://www.w3.org/2000/svg" viewBox="0 0 128 128"><title>Artboard 97</title><path d="M36.907,94.547H50.361L54.3,99.352l0,0,.036.043.051.059.026.033,4.491,5.484,0,0a6.249,6.249,0,0,0,3.684,2.077,7.51,7.51,0,0,0,4.157-.389,6.256,6.256,0,0,0,1.261-.685,5.465,5.465,0,0,0,.918-.815q.087-.087.167-.185l4.487-5.478c.042-.045.082-.091.121-.138l3.936-4.806H91.093a9.789,9.789,0,0,0,9.767-9.767V30.593a9.789,9.789,0,0,0-9.767-9.767H36.907a9.789,9.789,0,0,0-9.767,9.767V84.78a9.789,9.789,0,0,0,9.767,9.767ZM32.272,30.593a4.655,4.655,0,0,1,4.635-4.635H91.093a4.655,4.655,0,0,1,4.635,4.635V84.78a4.655,4.655,0,0,1-4.635,4.635H76.423A2.563,2.563,0,0,0,74.329,90.5L69.81,96.015c-.026.029-.051.059-.077.089l0,0-4.6,5.619-.023.029-.039.028a1.2,1.2,0,0,1-.239.124,2.339,2.339,0,0,1-1.291.108,1.207,1.207,0,0,1-.662-.279l0-.006,0,0-4.491-5.484q-.06-.073-.124-.141L53.782,90.63c-.044-.054-.09-.106-.138-.156a2.56,2.56,0,0,0-2.075-1.058H36.907a4.655,4.655,0,0,1-4.635-4.635Z"/><path d="M64,59.3a13.164,13.164,0,1,0-9.308-3.856A13.124,13.124,0,0,0,64,59.3ZM58.32,40.456a8.034,8.034,0,1,1-2.352,5.68A8.009,8.009,0,0,1,58.32,40.456Z"/><path d="M41.375,82h45.25a2.566,2.566,0,0,0,2.566-2.566v-2.4h0c0-4.761-3-8.972-7.86-11.929A33.822,33.822,0,0,0,64,60.686,33.823,33.823,0,0,0,46.668,65.1c-4.856,2.957-7.86,7.168-7.86,11.929v2.4A2.566,2.566,0,0,0,41.375,82Zm7.96-12.522A28.652,28.652,0,0,1,64,65.818a28.651,28.651,0,0,1,14.665,3.655c3.267,1.99,5.312,4.6,5.392,7.39H43.943C44.023,74.078,46.068,71.463,49.335,69.473Z"/></svg>