<svg id="Layer_3" data-name="Layer 3" xmlns="http://www.w3.org/2000/svg" viewBox="0 0 128 128"><title>Artboard 98</title><path d="M106.861,49.582A24.176,24.176,0,0,0,64,34.216,24.185,24.185,0,0,0,21.138,49.582v.074c-.6,13.136,11.98,24.473,24.56,35.808,5.983,5.391,11.967,10.783,16.306,16.189a2.561,2.561,0,0,0,4.017-.035C70.36,96.224,76.33,90.843,82.3,85.464c12.6-11.357,25.206-22.715,24.557-35.882ZM78.873,81.655A183.632,183.632,0,0,0,64,96.076,183.621,183.621,0,0,0,49.127,81.655C37.44,71.124,25.754,60.592,26.255,49.86a2.571,2.571,0,0,0,.015-.279,19.067,19.067,0,0,1,35.511-9.644,2.556,2.556,0,0,0,4.424.024,19.17,19.17,0,0,1,7-6.926,19.063,19.063,0,0,1,28.528,16.545h.006c0,.046,0,.093,0,.14C102.348,60.5,90.61,71.079,78.873,81.655Z"/></svg>