<svg id="Layer_3" data-name="Layer 3" xmlns="http://www.w3.org/2000/svg" viewBox="0 0 128 128"><title>Artboard 102</title><path d="M97.393,23.777H30.605A10.833,10.833,0,0,0,19.784,34.6V93.4a10.834,10.834,0,0,0,10.821,10.823H97.393A10.835,10.835,0,0,0,108.216,93.4V34.6A10.834,10.834,0,0,0,97.393,23.777ZM30.605,28H97.393a6.608,6.608,0,0,1,6.6,6.6v8.415H95.15v-3.15a2.111,2.111,0,1,0-4.222,0v3.15H75.79v-3.15a2.111,2.111,0,0,0-4.222,0v3.15H56.432v-3.15a2.111,2.111,0,0,0-4.222,0v3.15H37.072v-3.15a2.111,2.111,0,1,0-4.222,0v3.15H24.006V34.6A6.606,6.606,0,0,1,30.605,28Zm66.788,72H30.605a6.608,6.608,0,0,1-6.6-6.6V47.236H32.85v3.152a2.111,2.111,0,1,0,4.222,0V47.236H52.21v3.152a2.111,2.111,0,1,0,4.222,0V47.236H71.568v3.152a2.111,2.111,0,1,0,4.222,0V47.236H90.928v3.152a2.111,2.111,0,1,0,4.222,0V47.236h8.844V93.4A6.609,6.609,0,0,1,97.393,100Z"/><path d="M91.344,61.708H36.656a2.111,2.111,0,0,0,0,4.222H91.344a2.111,2.111,0,0,0,0-4.222Z"/><path d="M91.344,73.928H36.656a2.111,2.111,0,0,0,0,4.222H91.344a2.111,2.111,0,0,0,0-4.222Z"/><path d="M91.344,86.51H36.656a2.111,2.111,0,0,0,0,4.222H91.344a2.111,2.111,0,0,0,0-4.222Z"/></svg>