<svg id="Layer_3" data-name="Layer 3" xmlns="http://www.w3.org/2000/svg" viewBox="0 0 128 128"><title>Artboard 104</title><circle cx="64.004" cy="90.742" r="5.519"/><path d="M79.909,82.712A2.112,2.112,0,0,0,83.5,80.483a22.932,22.932,0,0,0-38.99.014,2.11,2.11,0,1,0,3.587,2.225,18.71,18.71,0,0,1,31.816-.01Z"/><path d="M92.723,70.691a2.112,2.112,0,0,0,3.587-2.228,38.007,38.007,0,0,0-64.619.023,2.11,2.11,0,1,0,3.587,2.224,33.786,33.786,0,0,1,57.445-.019Z"/><path d="M107.653,56.034a51.35,51.35,0,0,0-87.306.027,2.111,2.111,0,1,0,3.587,2.226,47.129,47.129,0,0,1,80.132-.027,2.111,2.111,0,0,0,3.587-2.226Z"/></svg>