<svg id="Layer_3" data-name="Layer 3" xmlns="http://www.w3.org/2000/svg" viewBox="0 0 128 128"><title>Artboard 112</title><path d="M64,22A42.006,42.006,0,1,0,93.7,34.3,41.873,41.873,0,0,0,64,22ZM90.073,90.073A36.874,36.874,0,1,1,100.872,64,36.759,36.759,0,0,1,90.073,90.073Z"/><path d="M86.507,60.036a2.584,2.584,0,0,0-.2-.178,5.605,5.605,0,0,0-.968-.7v0L70.566,50.63c-.037-.024-.075-.047-.113-.069v0L55.526,41.94a5.579,5.579,0,0,0-8.173,3.377,5.394,5.394,0,0,0-.171,1.054,2.545,2.545,0,0,0-.029.388V81.234a5.576,5.576,0,0,0,8.617,4.672l14.674-8.472.164-.1h0l14.762-8.523c.062-.036.122-.074.18-.114a5.6,5.6,0,0,0,.956-8.664Zm-3.493,4.082a.444.444,0,0,1-.151.234l-.059.033L68.043,72.908v0q-.072.041-.141.088c-.017.011,0,0,0,0h0L67.9,73,53.166,81.509c-.059.034-.118.07-.176.109a.421.421,0,0,1-.113.054.583.583,0,0,1-.142.011.449.449,0,0,1-.45-.45V46.759h0a.547.547,0,0,1,.022-.119.431.431,0,0,1,.307-.312.459.459,0,0,1,.348.043L67.74,54.9c.047.031.1.062.145.091l14.89,8.6v0l.039.022a.275.275,0,0,1,.031.02l.053.054a.7.7,0,0,1,.082.088A.455.455,0,0,1,83.014,64.118Z"/></svg>