<svg id="Layer_3" data-name="Layer 3" xmlns="http://www.w3.org/2000/svg" viewBox="0 0 128 128"><title>Artboard 108</title><path d="M85.611,61.878A15.4,15.4,0,0,0,75.32,65.731a12.654,12.654,0,0,0,0,19.216,15.672,15.672,0,0,0,20.583,0,12.877,12.877,0,0,0,4.419-9.608V27.384h-.006a2.6,2.6,0,0,0-.014-.271,2.561,2.561,0,0,0-2.817-2.275L53.906,29.481v0a2.556,2.556,0,0,0-2.286,2.552L51.7,45.593a2.284,2.284,0,0,0,.008,1.3l.2,32.594a15.672,15.672,0,0,0-19.817.625,12.654,12.654,0,0,0,0,19.216,15.673,15.673,0,0,0,20.583,0A12.876,12.876,0,0,0,57.1,89.716c0-.066-.01-.13-.011-.2l-.254-41L95.19,44.432V65.149A15.46,15.46,0,0,0,85.611,61.878ZM92.5,81.138a10.632,10.632,0,0,1-13.768,0,7.587,7.587,0,0,1,0-11.6,10.633,10.633,0,0,1,13.768,0,7.588,7.588,0,0,1,0,11.6ZM49.273,95.515a10.633,10.633,0,0,1-13.768,0,7.587,7.587,0,0,1,0-11.6,10.632,10.632,0,0,1,13.768,0,7.587,7.587,0,0,1,0,11.6ZM56.8,43.373l-.056-9.045,38.443-4.1v9.05Z"/></svg>