<svg id="Layer_3" data-name="Layer 3" xmlns="http://www.w3.org/2000/svg" viewBox="0 0 128 128"><title>Artboard 99</title><path d="M25.853,63.367l15.6,11.291-5.978,18.28a2.546,2.546,0,0,0-.1.4,8.385,8.385,0,0,0,1.143,6.945,2.565,2.565,0,0,0,.341.469,8.4,8.4,0,0,0,11.325,1.787,2.559,2.559,0,0,0,.438-.313L64,91.006,79.075,102a8.473,8.473,0,0,0,3.827,1.845,8.378,8.378,0,0,0,4.221-.256l.008,0a8.42,8.42,0,0,0,5.41-10.612l0-.008-5.988-18.31,15.6-11.291,0-.005c.065-.047.127-.1.187-.149a8.418,8.418,0,0,0-5.13-15.092v.01l-19.274.037L72.067,30l-.03-.1-.006-.019h0v0l-.006-.019,0-.009a8.417,8.417,0,0,0-16.029,0L50.074,48.166,31.409,48.13h0a8.465,8.465,0,0,0-4.171.766l0,0a8.436,8.436,0,0,0-1.383,14.467ZM28.123,54.6a3.268,3.268,0,0,1,1.267-1.053l.008,0,0,0a3.341,3.341,0,0,1,1.644-.3,2.574,2.574,0,0,0,.356,0l20.535.039a2.557,2.557,0,0,0,2.434-1.775h0l6.488-20.1a3.306,3.306,0,0,1,6.283-.012h0l.006.019c.016.051.034.1.052.151l6.437,19.941a2.559,2.559,0,0,0,2.551,1.774l21.021-.04v.01a3.29,3.29,0,0,1,1.932,5.954,2.554,2.554,0,0,0-.209.169L82.032,71.6a2.564,2.564,0,0,0-.9,2.961l6.515,19.922c.012.04.025.08.038.12A3.313,3.313,0,0,1,85.6,98.7l-.108.035a3.321,3.321,0,0,1-3.115-.646,2.609,2.609,0,0,0-.293-.214L65.507,85.779a2.556,2.556,0,0,0-3.05.032L45.423,98.237l0,0a3.3,3.3,0,0,1-4.6-.727l0,0a3.276,3.276,0,0,1-.585-1.414,3.339,3.339,0,0,1,.124-1.549c.025-.077.045-.154.062-.231l6.49-19.846a2.562,2.562,0,0,0-.932-2.866h0L28.86,59.217a3.3,3.3,0,0,1-.737-4.618Z"/></svg>