<svg xmlns="http://www.w3.org/2000/svg" data-name="Layer 3" viewBox="0 0 128 128"><path d="M84.828 33.794a24.55 24.55 0 0 0-4.813-.474A29.792 29.792 0 0 0 64 38.369a29.789 29.789 0 0 0-16.015-5.049 24.55 24.55 0 0 0-4.813.474 15.966 15.966 0 0 0-11.648 10.213c-3.241 8.2-1.281 18.544 5.241 27.674C48.311 87.844 62.55 94.237 63.15 94.5a2.1 2.1 0 0 0 1.7 0c.6-.264 14.839-6.657 26.385-22.819 6.522-9.131 8.481-19.478 5.24-27.674a15.966 15.966 0 0 0-11.647-10.213zM87.8 69.228A69.657 69.657 0 0 1 64 90.223a69.387 69.387 0 0 1-23.8-20.995c-5.687-7.962-7.462-16.81-4.751-23.669A11.821 11.821 0 0 1 44 37.934a20.409 20.409 0 0 1 3.984-.392 25.983 25.983 0 0 1 14.684 5.065 2.108 2.108 0 0 0 2.662 0 25.745 25.745 0 0 1 14.684-5.065 20.409 20.409 0 0 1 3.986.392 11.821 11.821 0 0 1 8.55 7.626c2.71 6.858.935 15.706-4.75 23.668z"/></svg>