<svg xmlns="http://www.w3.org/2000/svg" data-name="Layer 3" viewBox="0 0 128 128"><path d="M84.822 17.277H43.178a8.452 8.452 0 0 0-8.444 8.444v76.558a8.452 8.452 0 0 0 8.444 8.444h41.644a8.452 8.452 0 0 0 8.444-8.444V25.721a8.452 8.452 0 0 0-8.444-8.444zM38.956 34.689h50.088v54.742H38.956zM43.178 21.5h41.644a4.228 4.228 0 0 1 4.222 4.222v4.746H38.956v-4.747a4.228 4.228 0 0 1 4.222-4.221zm41.643 85H43.178a4.228 4.228 0 0 1-4.222-4.222v-8.625h50.088v8.625a4.228 4.228 0 0 1-4.222 4.222z"/><path d="M69.43 97.644H58.57a2.111 2.111 0 0 0 0 4.222h10.86a2.111 2.111 0 0 0 0-4.222z"/></svg>