<svg xmlns="http://www.w3.org/2000/svg" data-name="Layer 3" viewBox="0 0 128 128"><path d="M36.076 102.357h55.848a8.454 8.454 0 0 0 8.444-8.444V34.087a8.454 8.454 0 0 0-8.444-8.444H36.076a8.454 8.454 0 0 0-8.444 8.444v59.826a8.454 8.454 0 0 0 8.444 8.444zm50.145-42.764h9.924v8.815h-9.924zm0 13.037h9.924v8.82h-9.924zm9.924-17.259h-9.924v-8.818h9.924zM82 98.135H46v-68.27h36zM41.777 68.409h-9.923v-8.816h9.922zm0 4.222v8.82h-9.923v-8.82zm0-17.259h-9.923v-8.819h9.922zm-9.923 38.541v-8.24h9.922v12.462h-5.7a4.226 4.226 0 0 1-4.222-4.222zm60.069 4.222h-5.7V85.673h9.924v8.24a4.226 4.226 0 0 1-4.223 4.222zm4.222-64.048v8.244h-9.924V29.865h5.7a4.226 4.226 0 0 1 4.225 4.222zm-60.069-4.222h5.7v12.466h-9.922v-8.244a4.226 4.226 0 0 1 4.222-4.222z"/></svg>