<svg id="Layer_3" data-name="Layer 3" xmlns="http://www.w3.org/2000/svg" viewBox="0 0 128 128"><title>Artboard 109</title><path d="M104.274,54.3l0-.005a5.333,5.333,0,0,0-3.775-1.571H95.16q-.257-.713-.543-1.4t-.609-1.374l3.773-3.773h0l0,0,0,0a5.351,5.351,0,0,0,0-7.563h0L89.4,30.22h0a5.351,5.351,0,0,0-7.38-.175,2.539,2.539,0,0,0-.194.175h0l-3.771,3.772q-.675-.316-1.38-.608-.688-.285-1.4-.543V27.507a5.326,5.326,0,0,0-1.4-3.6,2.493,2.493,0,0,0-.172-.19,5.342,5.342,0,0,0-3.785-1.572H58.077a5.336,5.336,0,0,0-3.588,1.394,2.583,2.583,0,0,0-.2.178,5.342,5.342,0,0,0-1.572,3.785v5.335q-.712.257-1.4.543-.7.292-1.378.607L46.171,30.22h0l0,0,0,0a5.351,5.351,0,0,0-7.565,0h0L30.219,38.6h0a5.351,5.351,0,0,0-.175,7.379,2.552,2.552,0,0,0,.175.194h0l3.773,3.773q-.325.688-.61,1.376t-.543,1.4H27.507a5.366,5.366,0,0,0-5.357,5.357V69.923a5.335,5.335,0,0,0,1.394,3.588,2.558,2.558,0,0,0,.178.2,5.342,5.342,0,0,0,3.785,1.572h5.334q.257.713.543,1.4t.609,1.374l-3.774,3.774h0l.005,0-.005,0a5.352,5.352,0,0,0,0,7.565h0L38.6,97.781a5.363,5.363,0,0,0,7.575,0l3.772-3.772q.675.316,1.379.608.688.285,1.4.542v5.335a5.341,5.341,0,0,0,1.572,3.785l0,0a5.346,5.346,0,0,0,3.78,1.577H69.923a5.366,5.366,0,0,0,5.356-5.357V95.16q.713-.257,1.4-.543t1.374-.609l3.773,3.773,0-.005,0,.005a5.333,5.333,0,0,0,3.778,1.566v-.01a5.344,5.344,0,0,0,3.59-1.379,2.628,2.628,0,0,0,.2-.177L97.78,89.4h0a5.363,5.363,0,0,0,0-7.575h0l-3.774-3.774q.325-.688.61-1.377t.543-1.4h5.334a5.342,5.342,0,0,0,3.785-1.572l-.005,0a5.345,5.345,0,0,0,1.577-3.78V58.077a5.342,5.342,0,0,0-1.572-3.785Zm-3.555,15.625a.219.219,0,0,1-.058.157l0,0,0,0a.224.224,0,0,1-.157.068H93.309A2.567,2.567,0,0,0,90.8,72.156q-.392,1.289-.919,2.557a27.911,27.911,0,0,1-1.247,2.624,2.558,2.558,0,0,0,.437,3.031l-.006.006,5.083,5.082h0a.235.235,0,0,1,0,.318h0l-8.376,8.376-.039.04a.234.234,0,0,1-.12.032v-.01a.242.242,0,0,1-.164-.057l0-.005L80.376,89.07a2.567,2.567,0,0,0-3.217-.335q-1.153.614-2.442,1.15a27.771,27.771,0,0,1-2.725.969,2.561,2.561,0,0,0-1.838,2.456h-.006v7.183a.233.233,0,0,1-.225.225H58.077a.219.219,0,0,1-.157-.058l-.005,0,.005-.005a.223.223,0,0,1-.068-.157V93.309a2.567,2.567,0,0,0-2.01-2.505q-1.289-.391-2.556-.919a28.03,28.03,0,0,1-2.624-1.257A2.566,2.566,0,0,0,47.6,89.1l-5.055,5.055a.235.235,0,0,1-.319,0l-8.376-8.376h0a.224.224,0,0,1-.062-.159.243.243,0,0,1,.057-.164l0,.005h0l5.082-5.082a2.567,2.567,0,0,0,.334-3.218q-.613-1.152-1.149-2.441a27.724,27.724,0,0,1-.969-2.725,2.56,2.56,0,0,0-2.456-1.838v-.006H27.507a.224.224,0,0,1-.157-.068l-.039-.037a.239.239,0,0,1-.029-.119V58.077a.232.232,0,0,1,.225-.225h7.182a2.567,2.567,0,0,0,2.505-2.009q.392-1.291.919-2.56a27.936,27.936,0,0,1,1.247-2.623,2.558,2.558,0,0,0-.437-3.031l.006-.006-5.081-5.081h0l-.029-.029a.262.262,0,0,1-.032-.13.223.223,0,0,1,.061-.158h0l8.376-8.376h0a.224.224,0,0,1,.159-.062.242.242,0,0,1,.164.057l0,0h0l5.082,5.082a2.567,2.567,0,0,0,3.085.415,27.631,27.631,0,0,1,5.3-2.2,2.56,2.56,0,0,0,1.838-2.456h.006V27.507a.224.224,0,0,1,.068-.157l.037-.039a.238.238,0,0,1,.119-.029H69.923a.224.224,0,0,1,.157.068l.033.032a.241.241,0,0,1,.035.125v7.184a2.567,2.567,0,0,0,2.01,2.505q1.289.391,2.556.919a28.071,28.071,0,0,1,2.625,1.257A2.566,2.566,0,0,0,80.4,38.9l5.054-5.055h0l.029-.029a.26.26,0,0,1,.13-.032.223.223,0,0,1,.159.062h0l8.376,8.376h0a.222.222,0,0,1,.061.158.242.242,0,0,1-.056.163l-.005-.005h0L89.07,47.624a2.567,2.567,0,0,0-.334,3.217q.614,1.152,1.149,2.441a27.733,27.733,0,0,1,.969,2.725,2.56,2.56,0,0,0,2.456,1.838v.006h7.183a.237.237,0,0,1,.162.063l0,0a.224.224,0,0,1,.068.157Z"/><path d="M64,41.791A22.21,22.21,0,1,0,79.7,48.3,22.14,22.14,0,0,0,64,41.791ZM76.076,76.075a17.078,17.078,0,1,1,5-12.075A17.023,17.023,0,0,1,76.076,76.075Z"/></svg>