<svg id="Layer_3" data-name="Layer 3" xmlns="http://www.w3.org/2000/svg" viewBox="0 0 128 128"><title>Artboard 101</title><path d="M64,21.433A42.567,42.567,0,1,0,106.567,64,42.615,42.615,0,0,0,64,21.433Zm0,80.912A38.345,38.345,0,1,1,102.345,64,38.389,38.389,0,0,1,64,102.345Z"/><path d="M79.459,48.3a2.11,2.11,0,0,0-2.985,0L64,60.778,51.523,48.3a2.111,2.111,0,1,0-2.985,2.985L61.014,63.763,48.541,76.237a2.111,2.111,0,1,0,2.985,2.985L64,66.748,76.474,79.222a2.111,2.111,0,0,0,2.985-2.985L66.984,63.763,79.459,51.286A2.11,2.11,0,0,0,79.459,48.3Z"/></svg>