<svg id="Layer_3" data-name="Layer 3" xmlns="http://www.w3.org/2000/svg" viewBox="0 0 128 128"><title>Artboard 110</title><path d="M96.294,33.543H77.7a10.694,10.694,0,0,0-10.507-8.807H60.806A10.694,10.694,0,0,0,50.3,33.543H31.706a2.566,2.566,0,0,0,0,5.132h.888v55.5a9.112,9.112,0,0,0,9.093,9.093H86.313a9.067,9.067,0,0,0,6.424-2.669l0,0a9.073,9.073,0,0,0,2.674-6.419v-55.5h.888a2.566,2.566,0,0,0,0-5.132ZM56.887,31.5a5.533,5.533,0,0,1,3.919-1.633h6.388A5.535,5.535,0,0,1,71.113,31.5a5.592,5.592,0,0,1,1.3,2.042H55.584A5.592,5.592,0,0,1,56.887,31.5ZM90.275,94.171a3.943,3.943,0,0,1-1.156,2.8l0,0,0,0a3.949,3.949,0,0,1-2.8,1.166H41.686a3.978,3.978,0,0,1-3.961-3.961v-55.5H90.275Z"/><path d="M50.184,46.668a2.566,2.566,0,0,0-2.566,2.566V87.573a2.566,2.566,0,1,0,5.132,0V49.234A2.566,2.566,0,0,0,50.184,46.668Z"/><path d="M64,46.668a2.566,2.566,0,0,0-2.566,2.566V87.573a2.566,2.566,0,1,0,5.132,0V49.234A2.566,2.566,0,0,0,64,46.668Z"/><path d="M75.25,87.573a2.566,2.566,0,1,0,5.132,0V49.234a2.566,2.566,0,1,0-5.132,0Z"/></svg>