<svg id="Layer_3" data-name="Layer 3" xmlns="http://www.w3.org/2000/svg" viewBox="0 0 128 128"><title>Artboard 110</title><path d="M84.828,33.794a24.55,24.55,0,0,0-4.813-.474A29.792,29.792,0,0,0,64,38.369,29.789,29.789,0,0,0,47.985,33.32a24.55,24.55,0,0,0-4.813.474A15.966,15.966,0,0,0,31.524,44.007c-3.241,8.2-1.281,18.544,5.241,27.674C48.311,87.844,62.55,94.237,63.15,94.5a2.1,2.1,0,0,0,1.7,0c.6-.264,14.839-6.657,26.385-22.819,6.522-9.131,8.481-19.478,5.24-27.674A15.966,15.966,0,0,0,84.828,33.794ZM87.8,69.228A69.657,69.657,0,0,1,64,90.223,69.387,69.387,0,0,1,40.2,69.228c-5.687-7.962-7.462-16.81-4.751-23.669A11.821,11.821,0,0,1,44,37.934a20.409,20.409,0,0,1,3.984-.392,25.983,25.983,0,0,1,14.684,5.065,2.108,2.108,0,0,0,2.662,0,25.745,25.745,0,0,1,14.684-5.065A20.409,20.409,0,0,1,84,37.934a11.821,11.821,0,0,1,8.55,7.626C95.26,52.418,93.485,61.266,87.8,69.228Z"/></svg>