<svg xmlns="http://www.w3.org/2000/svg" data-name="Layer 3" viewBox="0 0 128 128"><path d="M96.294 33.543H77.7a10.694 10.694 0 0 0-10.507-8.807h-6.387A10.694 10.694 0 0 0 50.3 33.543H31.706a2.566 2.566 0 0 0 0 5.132h.888v55.5a9.112 9.112 0 0 0 9.093 9.093h44.626a9.067 9.067 0 0 0 6.424-2.669 9.073 9.073 0 0 0 2.674-6.419v-55.5h.888a2.566 2.566 0 0 0 0-5.132zM56.887 31.5a5.533 5.533 0 0 1 3.919-1.633h6.388a5.535 5.535 0 0 1 3.919 1.633 5.592 5.592 0 0 1 1.3 2.042H55.584a5.592 5.592 0 0 1 1.303-2.042zm33.388 62.671a3.943 3.943 0 0 1-1.156 2.8 3.949 3.949 0 0 1-2.8 1.166H41.686a3.978 3.978 0 0 1-3.961-3.961v-55.5h52.55z"/><path d="M50.184 46.668a2.566 2.566 0 0 0-2.566 2.566v38.339a2.566 2.566 0 1 0 5.132 0V49.234a2.566 2.566 0 0 0-2.566-2.566zM64 46.668a2.566 2.566 0 0 0-2.566 2.566v38.339a2.566 2.566 0 1 0 5.132 0V49.234A2.566 2.566 0 0 0 64 46.668zM75.25 87.573a2.566 2.566 0 1 0 5.132 0V49.234a2.566 2.566 0 1 0-5.132 0z"/></svg>