<svg id="Layer_1" data-name="Layer 1" xmlns="http://www.w3.org/2000/svg" viewBox="0 0 128 128"><title>NO SMOKING</title><path d="M42.837,60.829H85.163a2.179,2.179,0,0,1,2.179,2.179v1.985a2.178,2.178,0,0,1-2.178,2.178H42.837a2.179,2.179,0,0,1-2.179-2.179V63.007A2.178,2.178,0,0,1,42.837,60.829Z" transform="translate(128 128) rotate(180)" style="fill:#fff"/><path d="M42.837,60.829h2.957v6.342H42.837a2.179,2.179,0,0,1-2.179-2.178V63.007A2.179,2.179,0,0,1,42.837,60.829Z" style="fill:#ffa453"/><path d="M73.181,60.829H85.163a2.179,2.179,0,0,1,2.179,2.178v1.985a2.179,2.179,0,0,1-2.179,2.178H73.181Z" style="fill:#ffa453"/><path d="M64,23.756A40.244,40.244,0,1,1,23.756,64,40.244,40.244,0,0,1,64,23.756ZM96.262,64a32.112,32.112,0,0,0-6.808-19.81L44.19,89.454A32.253,32.253,0,0,0,96.262,64ZM38.546,83.81,83.81,38.546A32.253,32.253,0,0,0,38.546,83.81Z" style="fill:#ffa453"/><path d="M56.279,43.034a6.039,6.039,0,0,1-1.429,1.044l-.91.484c-4.4,2.338-9.4,4.988-9.4,10.82a1.25,1.25,0,1,0,2.5,0c0-4.329,3.919-6.41,8.069-8.612l.92-.491a8.5,8.5,0,0,0,2.02-1.485,1.25,1.25,0,0,0-1.774-1.761Z" style="fill:#401d24"/><path d="M58.383,37.1a1.255,1.255,0,0,0-.88,1.53,3.721,3.721,0,0,1,.087.533,1.251,1.251,0,0,0,1.242,1.123c.042,0,.085,0,.128-.006a1.251,1.251,0,0,0,1.117-1.371,6.01,6.01,0,0,0-.163-.942A1.248,1.248,0,0,0,58.383,37.1Z" style="fill:#401d24"/><path d="M64,22.506a41.29,41.29,0,0,0-23.2,7.087,1.25,1.25,0,0,0,1.4,2.071,39.052,39.052,0,1,1-4.21,3.285,1.25,1.25,0,0,0-1.668-1.862A41.494,41.494,0,1,0,64,22.506Z" style="fill:#401d24"/><path d="M84.579,37.56A33.179,33.179,0,0,0,64,30.488,33.55,33.55,0,0,0,30.488,64,33.179,33.179,0,0,0,37.56,84.579a1.253,1.253,0,0,0,.909.48l.077,0a1.248,1.248,0,0,0,.884-.366L84.694,39.43a1.249,1.249,0,0,0-.115-1.87ZM54.668,65.921H47.043V62.079h8.582a1.25,1.25,0,0,0,0-2.5H42.837a3.432,3.432,0,0,0-3.428,3.428v1.985a3.432,3.432,0,0,0,3.428,3.428h9.331L38.685,81.9a30.97,30.97,0,0,1,4.387-40.767,7.452,7.452,0,0,1-1.42,6.667c-3.209,3.776.371,9.419.525,9.657a1.25,1.25,0,0,0,2.1-1.354c-.027-.043-2.728-4.322-.721-6.684a9.6,9.6,0,0,0,1.537-9.9c-.01-.018-.029-.028-.04-.046A30.948,30.948,0,0,1,81.9,38.685Zm-11.831,0a.929.929,0,0,1-.928-.928V63.007a.929.929,0,0,1,.928-.928h1.707v3.842Z" style="fill:#401d24"/><path d="M86.069,47.574a1.249,1.249,0,0,0-1.767,0L65.59,66.286l0,0L43.306,88.57a1.25,1.25,0,0,0,.115,1.87A33.181,33.181,0,0,0,64,97.512,33.55,33.55,0,0,0,97.512,64,33.181,33.181,0,0,0,90.44,43.421a1.25,1.25,0,0,0-1.973,1.537A30.7,30.7,0,0,1,95.012,64,31.047,31.047,0,0,1,64,95.012a30.671,30.671,0,0,1-17.9-5.7L66.991,68.421H85.163a3.432,3.432,0,0,0,3.429-3.428V63.007a3.432,3.432,0,0,0-3.429-3.428H75.832L86.069,49.342A1.25,1.25,0,0,0,86.069,47.574ZM71.931,63.481v2.44h-2.44Zm14.161-.474v1.985a.93.93,0,0,1-.929.928H74.431V62.079H85.163A.93.93,0,0,1,86.092,63.007Z" style="fill:#401d24"/></svg>