<svg id="Layer_1" data-name="Layer 1" xmlns="http://www.w3.org/2000/svg" viewBox="0 0 128 128"><title>OWL</title><path d="M91.888,36.463c3.059-3.059,1.827-9.251,1.827-9.251s-6.192-1.232-9.251,1.827a11.408,11.408,0,0,0-1.5,1.851,28.765,28.765,0,0,0-37.921,0,11.408,11.408,0,0,0-1.5-1.851c-3.059-3.059-9.251-1.827-9.251-1.827s-1.232,6.192,1.827,9.251a11.063,11.063,0,0,0,2.762,2.025,28.654,28.654,0,0,0-3.669,14.063V95.474a8.769,8.769,0,0,0,8.769,8.769H84.026A8.769,8.769,0,0,0,92.8,95.474V52.551a28.654,28.654,0,0,0-3.669-14.063A11.063,11.063,0,0,0,91.888,36.463Z" style="fill:#ffa453"/><path d="M86.048,49.318C86.048,65.989,76.177,79.5,64,79.5S41.952,65.989,41.952,49.318,64,47.591,64,47.591,86.048,32.646,86.048,49.318Z" style="fill:#fff"/><circle cx="53.938" cy="54.621" r="6.096" style="fill:#ffa453"/><circle cx="74.062" cy="54.621" r="6.096" style="fill:#ffa453"/><polygon points="64 71.436 60.238 63.913 67.762 63.913 64 71.436" style="fill:#ffa453"/><path d="M83.473,41.05C77.543,37.905,67.015,44.156,64,46.095c-3.016-1.938-13.546-8.188-19.473-5.045C41.989,42.4,40.7,45.178,40.7,49.317c0,17.334,10.452,31.437,23.3,31.437s23.3-14.1,23.3-31.437C87.3,45.178,86.011,42.4,83.473,41.05ZM64,78.254c-11.468,0-20.8-12.981-20.8-28.937,0-3.142.84-5.18,2.5-6.059a5.764,5.764,0,0,1,2.713-.582c4.912,0,12.085,4.051,14.889,5.949a1.257,1.257,0,0,0,1.4,0c3.387-2.293,13.148-7.726,17.6-5.367,1.655.879,2.5,2.917,2.5,6.059C84.8,65.273,75.468,78.254,64,78.254Z" style="fill:#401d24"/><path d="M45.6,83.25a1.25,1.25,0,0,0-1.25,1.25v19.744a1.25,1.25,0,1,0,2.5,0V84.5A1.25,1.25,0,0,0,45.6,83.25Z" style="fill:#401d24"/><path d="M45.6,77.544a1.25,1.25,0,0,0-1.25,1.25v.71a1.25,1.25,0,1,0,2.5,0v-.71A1.25,1.25,0,0,0,45.6,77.544Z" style="fill:#401d24"/><path d="M82.4,77.544a1.25,1.25,0,0,0-1.25,1.25v25.45a1.25,1.25,0,1,0,2.5,0V78.794A1.25,1.25,0,0,0,82.4,77.544Z" style="fill:#401d24"/><path d="M61.284,54.621a7.336,7.336,0,0,0-12.4-5.313L46.348,48.1a1.25,1.25,0,1,0-1.08,2.254l2.1,1.006a7.342,7.342,0,1,0,13.916,3.266Zm-7.346-4.846a4.836,4.836,0,0,1,4.786,4.247L51.4,50.514A4.8,4.8,0,0,1,53.938,49.775Zm0,9.692a4.852,4.852,0,0,1-4.846-4.847,4.784,4.784,0,0,1,.542-2.18l3.384,1.62a1.772,1.772,0,0,0-.1.56,1.791,1.791,0,0,0,3.3.972l2.128,1.019A4.845,4.845,0,0,1,53.938,59.468Z" style="fill:#401d24"/><path d="M67.762,62.663H60.238a1.25,1.25,0,0,0-1.118,1.809L62.882,72a1.25,1.25,0,0,0,2.236,0l3.762-7.523a1.25,1.25,0,0,0-1.118-1.809ZM64,68.642l-1.739-3.478h3.479Z" style="fill:#401d24"/><path d="M81.652,48.1l-2.532,1.212a7.377,7.377,0,1,0,1.512,2.047l2.1-1.006a1.25,1.25,0,0,0-1.08-2.254Zm-7.591,1.68a4.8,4.8,0,0,1,2.542.738l-7.327,3.509A4.836,4.836,0,0,1,74.061,49.775Zm4.847,4.846a4.839,4.839,0,0,1-9.253,1.991l2.128-1.019a1.791,1.791,0,0,0,3.3-.972,1.772,1.772,0,0,0-.1-.56l3.384-1.621A4.783,4.783,0,0,1,78.908,54.621Z" style="fill:#401d24"/><path d="M39.444,37.376A9.753,9.753,0,0,1,37,35.579c-1.936-1.935-1.791-5.6-1.606-7.264,1.665-.184,5.328-.329,7.264,1.608a10.117,10.117,0,0,1,1.337,1.646,1.25,1.25,0,0,0,1.872.26,27.515,27.515,0,0,1,36.275,0,1.249,1.249,0,0,0,1.872-.261,10.155,10.155,0,0,1,1.337-1.646c1.937-1.937,5.606-1.788,7.27-1.606.181,1.637.2,4.492-.944,6.4A1.25,1.25,0,1,0,93.815,36c2.172-3.608,1.169-8.817,1.125-9.037a1.249,1.249,0,0,0-.981-.982c-.281-.057-6.888-1.323-10.38,2.169q-.442.442-.837.922a30.014,30.014,0,0,0-37.484,0q-.395-.48-.837-.922c-3.492-3.492-10.1-2.226-10.379-2.169a1.25,1.25,0,0,0-.982.982c-.056.279-1.323,6.888,2.168,10.379a12.472,12.472,0,0,0,1.977,1.614,30.08,30.08,0,0,0-3.25,13.59V95.475a1.25,1.25,0,1,0,2.5,0V52.551A27.556,27.556,0,0,1,39.964,39.1a1.249,1.249,0,0,0-.521-1.724Z" style="fill:#401d24"/><path d="M88.515,37.4a1.249,1.249,0,0,0-.478,1.7,27.565,27.565,0,0,1,3.509,13.451V95.475a1.25,1.25,0,1,0,2.5,0V52.551a30.06,30.06,0,0,0-3.829-14.674A1.248,1.248,0,0,0,88.515,37.4Z" style="fill:#401d24"/></svg>