<svg id="Layer_1" data-name="Layer 1" xmlns="http://www.w3.org/2000/svg" viewBox="0 0 128 128"><title>DEER</title><path d="M67.732,41.28H60.268A14.7,14.7,0,0,0,45.625,54.7L44.117,72a5.918,5.918,0,0,0,2.861,5.595l2.3,1.377a5.918,5.918,0,0,1,2.883,5.081h0a4.816,4.816,0,0,0,4.816,4.816H71.018a4.816,4.816,0,0,0,4.816-4.816h0a5.918,5.918,0,0,1,2.883-5.081l2.3-1.377A5.918,5.918,0,0,0,83.883,72L82.375,54.7A14.7,14.7,0,0,0,67.732,41.28Z" style="fill:#fff"/><path d="M67.857,67.943a3.857,3.857,0,1,1-7.713,0c0-2.13,1.727-.25,3.857-.25S67.857,65.813,67.857,67.943Z" style="fill:#ffa453"/><path d="M83.765,73.5a5.58,5.58,0,0,1-2.743,3.594l-2.3,1.293a5.5,5.5,0,0,0-2.883,4.77,4.675,4.675,0,0,1-4.816,4.522H56.982a4.675,4.675,0,0,1-4.816-4.522,5.5,5.5,0,0,0-2.883-4.77l-.533-.3V88.872c0,8.49,7.33,15.372,16.372,15.372h39.122V73.5Z" style="fill:#ffa453"/><path d="M62.75,72.877V77a1.25,1.25,0,0,0,2.5,0V72.877a5.1,5.1,0,0,0,3.856-4.933A2.3,2.3,0,0,0,68.294,66a2.683,2.683,0,0,0-2.564.038A5.414,5.414,0,0,1,64,66.442a5.414,5.414,0,0,1-1.73-.407A2.683,2.683,0,0,0,59.706,66a2.3,2.3,0,0,0-.812,1.946A5.1,5.1,0,0,0,62.75,72.877Zm-1.315-4.485a6.245,6.245,0,0,0,5.129,0h0a2.607,2.607,0,0,1-5.137,0Z" style="fill:#401d24"/><path d="M52.511,59.593a1.25,1.25,0,0,0,1.25-1.25.812.812,0,1,1,1.625,0,1.25,1.25,0,1,0,2.5,0,3.312,3.312,0,1,0-6.625,0A1.25,1.25,0,0,0,52.511,59.593Z" style="fill:#401d24"/><path d="M71.364,59.593a1.25,1.25,0,0,0,1.25-1.25.812.812,0,1,1,1.625,0,1.25,1.25,0,1,0,2.5,0,3.312,3.312,0,1,0-6.625,0A1.25,1.25,0,0,0,71.364,59.593Z" style="fill:#401d24"/><path d="M104.244,72.25H88.765a1.25,1.25,0,0,0,0,2.5h15.479a1.25,1.25,0,0,0,0-2.5Z" style="fill:#401d24"/><path d="M104.244,102.994h-.432a1.25,1.25,0,0,0,0,2.5h.432a1.25,1.25,0,0,0,0-2.5Z" style="fill:#401d24"/><path d="M99.75,102.994H65.122C56.784,102.994,50,96.659,50,88.872V81.279a4.681,4.681,0,0,1,.917,2.769,6.072,6.072,0,0,0,6.065,6.065H71.018a6.072,6.072,0,0,0,6.065-6.065,4.692,4.692,0,0,1,2.274-4.008l2.3-1.376a7.211,7.211,0,0,0,3.466-6.776L83.693,55.431l7.391-3.788a1.25,1.25,0,0,0-1.141-2.225L83.352,52.8A15.842,15.842,0,0,0,67.731,40.03H60.269A15.842,15.842,0,0,0,44.647,52.8L31.014,45.811l2.129-4.6,12.823-3.634a1.251,1.251,0,0,0,.843-.8l.852-2.508a1.25,1.25,0,0,0-2.367-.8l-.641,1.887L34.528,38.22,36.76,33.4a1.252,1.252,0,0,0-.373-1.517L24.518,22.765a1.25,1.25,0,0,0-1.523,1.982l11.076,8.51L28.24,45.85a1.251,1.251,0,0,0,.564,1.638l15.5,7.944L42.872,71.888a7.211,7.211,0,0,0,3.466,6.776l1.162.694v9.514c0,9.165,7.905,16.622,17.622,16.622H99.75a1.25,1.25,0,0,0,0-2.5ZM45.362,72.1,46.87,54.811a13.374,13.374,0,0,1,13.4-12.28h7.463a13.374,13.374,0,0,1,13.4,12.28L82.638,72.1a4.7,4.7,0,0,1-2.257,4.413l-2.306,1.376a7.2,7.2,0,0,0-3.492,6.154,3.57,3.57,0,0,1-3.565,3.565H56.982a3.57,3.57,0,0,1-3.565-3.565,7.2,7.2,0,0,0-3.493-6.154l-2.3-1.376A4.7,4.7,0,0,1,45.362,72.1Z" style="fill:#401d24"/><path d="M47.472,30.933a1.249,1.249,0,0,0,1.585-.782l.127-.374a1.25,1.25,0,1,0-2.367-.8l-.127.374A1.249,1.249,0,0,0,47.472,30.933Z" style="fill:#401d24"/><path d="M81.191,36.776a1.25,1.25,0,0,0,.843.8l12.823,3.634,2.129,4.6-3.36,1.722a1.25,1.25,0,1,0,1.141,2.225l4.429-2.27a1.251,1.251,0,0,0,.564-1.638L93.93,33.257l11.076-8.51a1.25,1.25,0,1,0-1.523-1.982L91.613,31.884A1.252,1.252,0,0,0,91.24,33.4l2.231,4.82L83.348,35.352l-2.164-6.378a1.25,1.25,0,1,0-2.367.8Z" style="fill:#401d24"/></svg>