<svg id="Layer_1" data-name="Layer 1" xmlns="http://www.w3.org/2000/svg" viewBox="0 0 128 128"><title>MAP</title><polygon points="104.244 89.75 23.756 89.75 32.756 66.583 95.244 66.583 104.244 89.75" style="fill:#fff"/><path d="M64,38.25A15.333,15.333,0,0,0,48.667,53.583C48.667,62.052,64,79.917,64,79.917S79.333,62.052,79.333,53.583A15.333,15.333,0,0,0,64,38.25ZM64,60a6.417,6.417,0,1,1,6.417-6.417A6.417,6.417,0,0,1,64,60Z" style="fill:#ffa453"/><path d="M71.667,53.583A7.675,7.675,0,0,0,64,45.917a1.25,1.25,0,0,0,0,2.5,5.164,5.164,0,1,1-3.671,1.529,1.25,1.25,0,1,0-1.776-1.758,7.667,7.667,0,1,0,13.114,5.395Z" style="fill:#401d24"/><path d="M105.409,89.3l-9-23.167a1.25,1.25,0,0,0-1.165-.8H79.333a1.25,1.25,0,0,0,0,2.5H94.389L102.418,88.5H25.582l8.029-20.667H53.43a127.5,127.5,0,0,0,7.65,10.511l-7.8-2.653a1.243,1.243,0,0,0-.919.046l-11,5-1.893-7.783a1.25,1.25,0,1,0-2.429.592l2.25,9.25a1.25,1.25,0,0,0,1.731.842l11.924-5.42,18.281,6.216a1.265,1.265,0,0,0,.4.066,1.246,1.246,0,0,0,.4-.067l10.435-3.567a1.25,1.25,0,1,0-.808-2.365L71.624,81.93,65.65,79.9c3.064-3.683,14.933-18.457,14.933-26.315a16.583,16.583,0,0,0-33.167,0c0,3.181,1.949,7.5,4.469,11.75H32.756a1.25,1.25,0,0,0-1.165.8l-9,23.167A1.25,1.25,0,0,0,23.756,91h80.488a1.25,1.25,0,0,0,1.165-1.7ZM64,39.5A14.1,14.1,0,0,1,78.083,53.583c0,6.114-9.414,18.752-14.083,24.394C59.33,72.335,49.916,59.7,49.916,53.583A14.1,14.1,0,0,1,64,39.5Z" style="fill:#401d24"/><path d="M85.963,79.6a1.255,1.255,0,0,0,.4-.066l.287-.1a1.25,1.25,0,0,0-.8-2.367l-.287.1a1.25,1.25,0,0,0,.4,2.434Z" style="fill:#401d24"/></svg>