<svg id="Layer_1" data-name="Layer 1" xmlns="http://www.w3.org/2000/svg" viewBox="0 0 128 128"><title>ZOO PARK</title><polygon points="104.124 88.941 96.826 74.344 102.854 74.344 92.435 53.504 98.996 53.504 84.122 23.756 69.248 53.504 75.809 53.504 65.39 74.344 71.418 74.344 64.12 88.941 104.124 88.941" style="fill:#ffa453"/><rect x="81.083" y="88.941" width="6.077" height="15.303" style="fill:#fff"/><rect x="23.876" y="90.991" width="56.686" height="6.543" style="fill:#ffa453"/><rect x="27.821" y="72.078" width="48.797" height="4.473" style="fill:#fff"/><rect x="27.821" y="80.618" width="48.797" height="4.473" style="fill:#fff"/><rect x="31.602" y="97.534" width="4.27" height="6.71" style="fill:#ffa453"/><rect x="68.566" y="97.534" width="4.27" height="6.71" style="fill:#ffa453"/><path d="M104.244,102.994h-.411a1.25,1.25,0,0,0,0,2.5h.411a1.25,1.25,0,0,0,0-2.5Z" style="fill:#401d24"/><path d="M99.333,102.994H88.411v-12.8h15.713a1.25,1.25,0,0,0,1.118-1.809L98.848,75.594h4.007a1.25,1.25,0,0,0,1.118-1.809l-9.516-19.03H99a1.25,1.25,0,0,0,1.118-1.809L85.24,23.2A1.25,1.25,0,0,0,83,23.2L68.13,52.945a1.25,1.25,0,0,0,1.118,1.809h4.539l-4.2,8.407a1.25,1.25,0,0,0,2.236,1.118l5.108-10.216a1.25,1.25,0,0,0-1.118-1.809H71.27l12.852-25.7,12.851,25.7H92.435a1.25,1.25,0,0,0-1.118,1.809l9.516,19.03H96.825A1.25,1.25,0,0,0,95.707,74.9L102.1,87.691H84.122a1.25,1.25,0,0,0,0,2.5h1.789v12.8H82.333v-12a1.25,1.25,0,0,0-1.25-1.25.67.67,0,0,1-.521,0H69.816v-3.4h6.8a1.25,1.25,0,0,0,1.25-1.25V80.618a1.25,1.25,0,0,0-1.25-1.25h-6.8V77.8h6.8a1.25,1.25,0,0,0,1.25-1.25V72.079a1.25,1.25,0,0,0-1.25-1.25h-6.8V67.89a1.25,1.25,0,1,0-2.5,0v2.938H37.122V67.89a1.25,1.25,0,1,0-2.5,0v2.938h-6.8a1.25,1.25,0,0,0-1.25,1.25v4.473a1.25,1.25,0,0,0,1.25,1.25h6.8v1.566h-6.8a1.25,1.25,0,0,0-1.25,1.25v4.473a1.25,1.25,0,0,0,1.25,1.25h6.8v3.4H23.876a1.25,1.25,0,0,0-1.25,1.25v6.543a1.25,1.25,0,0,0,1.25,1.25h6.476v4.21h-6.6a1.25,1.25,0,0,0,0,2.5H99.333a1.25,1.25,0,0,0,0-2.5Zm-19.5-4.21v4.21H74.086v-4.21ZM75.367,81.868v1.973H69.816V81.868Zm0-8.54V75.3H69.816V73.329Zm-8.051,0V75.3H37.122V73.329ZM29.07,75.3V73.329h5.552V75.3Zm8.052,2.5H67.316v1.566h-3.4a1.25,1.25,0,0,0,0,2.5h3.4v1.973H37.122V81.868H59a1.25,1.25,0,0,0,0-2.5H37.122ZM29.07,83.841V81.868h5.552v1.973Zm8.052,2.5H67.316v3.4H37.122Zm-12,5.9H79.312v4.043H47a1.25,1.25,0,0,0,0,2.5H67.316v4.21H37.122v-4.21h4.5a1.25,1.25,0,0,0,0-2.5h-16.5Zm7.726,10.753v-4.21h1.77v4.21Zm36.964,0v-4.21h1.769v4.21Z" style="fill:#401d24"/></svg>