<svg id="Layer_1" data-name="Layer 1" xmlns="http://www.w3.org/2000/svg" viewBox="0 0 128 128"><title>BEAR</title><path d="M99.788,103.2a31.5,31.5,0,0,0,4.456-16.077C104.244,67.7,86.226,51.954,64,51.954S23.756,67.7,23.756,87.12A31.5,31.5,0,0,0,28.212,103.2Z" style="fill:#ffa453"/><path d="M86.446,50.174a9.849,9.849,0,0,1-1.315-4.96V45.15C85.131,34.411,75.67,25.7,64,25.7S42.869,34.411,42.869,45.15v.064a9.85,9.85,0,0,1-1.315,4.96,21.734,21.734,0,0,0-2.911,10.851C38.643,73.913,50,84.361,64,84.361S89.357,73.913,89.357,61.025A21.734,21.734,0,0,0,86.446,50.174Z" style="fill:#fff"/><path d="M43.249,41.526A19.522,19.522,0,0,1,52.964,28.59a8.565,8.565,0,1,0-9.715,12.936Z" style="fill:#ffa453"/><path d="M84.751,41.526A8.565,8.565,0,1,0,75.036,28.59,19.522,19.522,0,0,1,84.751,41.526Z" style="fill:#ffa453"/><path d="M73.244,63.2a9.244,9.244,0,1,1-18.487,0c0-5.105,4.138-13.439,9.244-13.439S73.244,58.1,73.244,63.2Z" style="fill:#ffa453"/><path d="M67.3,58.543a3.3,3.3,0,1,1-6.6,0c0-1.822,1.477-1.484,3.3-1.484S67.3,56.721,67.3,58.543Z" style="fill:#fff"/><circle cx="54.889" cy="44.579" r="2.469" style="fill:#ffa453"/><circle cx="73.112" cy="44.579" r="2.469" style="fill:#ffa453"/><path d="M91.96,33.368a9.811,9.811,0,0,0-17.267-6.381A23.885,23.885,0,0,0,53.3,26.979a9.812,9.812,0,1,0-14.7,13A1.25,1.25,0,0,0,40.452,38.3,7.307,7.307,0,0,1,51.082,28.27a20.333,20.333,0,0,0-9.463,16.95,8.644,8.644,0,0,1-1.15,4.333,23.208,23.208,0,0,0-2.986,9.566c-9.52,6.948-14.977,17.12-14.977,28a32.524,32.524,0,0,0,4.629,16.712,1.25,1.25,0,0,0,2.154-1.269A30.054,30.054,0,0,1,25.006,87.12c0-9.479,4.5-18.4,12.423-24.811C38.154,75.271,49.8,85.611,64,85.611c14.671,0,26.607-11.029,26.607-24.585A23.128,23.128,0,0,0,87.53,49.553a8.717,8.717,0,0,1-1.149-4.4,19.3,19.3,0,0,0-.213-2.837A9.772,9.772,0,0,0,91.96,33.368ZM85.612,39.8A19.812,19.812,0,0,0,82.9,34.063a1.25,1.25,0,1,0-2.06,1.416,17.074,17.074,0,0,1,3.038,9.73,11.146,11.146,0,0,0,1.48,5.586,20.348,20.348,0,0,1,2.746,10.23C88.107,73.2,77.293,83.111,64,83.111S39.893,73.2,39.893,61.025A20.354,20.354,0,0,1,42.638,50.8a11.2,11.2,0,0,0,1.481-5.646c0-10.034,8.919-18.2,19.881-18.2a21.189,21.189,0,0,1,10.319,2.654c.007.005.011.013.018.018.026.017.057.019.083.035a19.882,19.882,0,0,1,3.167,2.207,1.25,1.25,0,0,0,1.627-1.9,22.264,22.264,0,0,0-2.3-1.7,7.305,7.305,0,1,1,8.7,11.526Z" style="fill:#401d24"/><path d="M64,48.514c-5.988,0-10.494,8.911-10.494,14.689a10.494,10.494,0,0,0,20.988,0C74.494,57.425,69.988,48.514,64,48.514ZM64,71.2A8,8,0,0,1,56.006,63.2c0-4.592,3.736-12.189,7.994-12.189s7.994,7.6,7.994,12.189A8,8,0,0,1,64,71.2Z" style="fill:#401d24"/><path d="M64.711,55.8c-.457.013-.965.013-1.422,0a4.037,4.037,0,0,0-3.1.733,2.692,2.692,0,0,0-.74,2.014,4.54,4.54,0,0,0,3.213,4.325,1.471,1.471,0,0,1-2.864-.474,1.25,1.25,0,1,0-2.5,0A3.963,3.963,0,0,0,64,65.272a3.963,3.963,0,0,0,6.7-2.879,1.25,1.25,0,1,0-2.5,0,1.471,1.471,0,0,1-2.864.474,4.54,4.54,0,0,0,3.213-4.325,2.692,2.692,0,0,0-.74-2.014A4.028,4.028,0,0,0,64.711,55.8Zm1.338,2.747a2.049,2.049,0,0,1-4.1,0,1.3,1.3,0,0,1,.015-.214,6.849,6.849,0,0,1,1.257-.034c.5.014,1.055.014,1.555,0a6.811,6.811,0,0,1,1.257.034A1.293,1.293,0,0,1,66.049,58.543Z" style="fill:#401d24"/><path d="M58.607,44.58A3.719,3.719,0,1,0,54.889,48.3,3.723,3.723,0,0,0,58.607,44.58Zm-4.937,0A1.219,1.219,0,1,1,54.889,45.8,1.22,1.22,0,0,1,53.67,44.58Z" style="fill:#401d24"/><path d="M73.111,40.861A3.719,3.719,0,1,0,76.83,44.58,3.723,3.723,0,0,0,73.111,40.861Zm0,4.938A1.219,1.219,0,1,1,74.33,44.58,1.22,1.22,0,0,1,73.111,45.8Z" style="fill:#401d24"/><path d="M38.643,82.111a1.25,1.25,0,0,0-1.25,1.25V103.2a1.25,1.25,0,1,0,2.5,0V83.361A1.25,1.25,0,0,0,38.643,82.111Z" style="fill:#401d24"/><path d="M89.357,87.084a1.25,1.25,0,0,0-1.25,1.25V103.2a1.25,1.25,0,1,0,2.5,0V88.334A1.25,1.25,0,0,0,89.357,87.084Z" style="fill:#401d24"/><path d="M89.357,82.111a1.25,1.25,0,0,0-1.25,1.25v.556a1.25,1.25,0,1,0,2.5,0v-.556A1.25,1.25,0,0,0,89.357,82.111Z" style="fill:#401d24"/><path d="M94.952,62.862A1.25,1.25,0,0,0,93.2,64.646a31.48,31.48,0,0,1,9.794,22.475,30.054,30.054,0,0,1-4.283,15.442,1.25,1.25,0,0,0,2.154,1.269,32.524,32.524,0,0,0,4.629-16.712A33.957,33.957,0,0,0,94.952,62.862Z" style="fill:#401d24"/></svg>