<svg id="Layer_1" data-name="Layer 1" xmlns="http://www.w3.org/2000/svg" viewBox="0 0 128 128"><title>ZOO GATE</title><rect x="23.756" y="49.333" width="11.911" height="54.911" style="fill:#ffa453"/><rect x="92.333" y="49.333" width="11.911" height="54.911" style="fill:#ffa453"/><rect x="44.75" y="23.756" width="38.5" height="15.077" style="fill:#ffa453"/><path d="M104.244,48.084H99.539V42.042a12.011,12.011,0,0,0-12-12H84.5V23.756a1.25,1.25,0,1,0-2.5,0V37.584H46V25.006H77a1.25,1.25,0,0,0,0-2.5H44.75a1.25,1.25,0,0,0-1.25,1.25v6.289H40.459a12.011,12.011,0,0,0-12,12v6.042H23.756a1.25,1.25,0,0,0-1.25,1.25v54.911a1.25,1.25,0,0,0,2.5,0V50.584h9.411v53.661a1.25,1.25,0,0,0,1.25,1.25H59.125a1.25,1.25,0,0,0,0-2.5H55.309V66.689a26.907,26.907,0,0,1,7.441-1.407V80.936a4.785,4.785,0,0,0-3.541,4.605v6.084a4.791,4.791,0,0,0,9.583,0V85.542a4.785,4.785,0,0,0-3.541-4.605V65.278a26.915,26.915,0,0,1,7.441,1.408v36.308H65.25V98.917a1.25,1.25,0,1,0-2.5,0v5.328a1.25,1.25,0,0,0,1.25,1.25H92.334a1.25,1.25,0,0,0,1.25-1.25V92.334A29.49,29.49,0,0,0,84.789,71.31a1.2,1.2,0,0,0-.126-.12,29.514,29.514,0,0,0-41.327,0,1.2,1.2,0,0,0-.126.12,29.7,29.7,0,0,0-6.294,9.14V55.584H40.75a1.25,1.25,0,0,0,0-2.5H36.917v-3.75a1.25,1.25,0,0,0-1.25-1.25H30.961V42.042a9.508,9.508,0,0,1,9.5-9.5H43.5v6.289a1.25,1.25,0,0,0,1.25,1.25h38.5a1.25,1.25,0,0,0,1.25-1.25V32.545h3.041a9.508,9.508,0,0,1,9.5,9.5v6.042H92.334a1.25,1.25,0,0,0-1.25,1.25v3.75H50.834a1.25,1.25,0,0,0,0,2.5h40.25v17.25a1.25,1.25,0,0,0,2.5,0V50.584h9.411v53.661a1.25,1.25,0,1,0,2.5,0V49.334A1.25,1.25,0,0,0,104.244,48.084ZM52.809,102.994H45.388V72.686a27.171,27.171,0,0,1,7.421-5.006ZM66.292,85.542v6.084a2.291,2.291,0,0,1-4.583,0V85.542a2.291,2.291,0,1,1,4.583,0Zm8.9-17.866a27.185,27.185,0,0,1,7.421,5v30.316H75.191Zm15.893,35.319H85.112v-27.6a26.949,26.949,0,0,1,5.972,16.941Zm-48.2-27.6v27.6H36.917V92.334A26.948,26.948,0,0,1,42.888,75.4Z" style="fill:#401d24"/><path d="M45.875,53.084a1.25,1.25,0,0,0,0,2.5h.375a1.25,1.25,0,0,0,0-2.5Z" style="fill:#401d24"/><polygon points="52.167 35.298 58.672 35.298 58.672 33.949 54.117 33.949 58.503 28.547 58.503 27.291 52.642 27.291 52.642 28.646 56.372 28.646 52.167 33.84 52.167 35.298" style="fill:#fff"/><path d="M61.512,27.471a3.116,3.116,0,0,0-1.035.721,3.766,3.766,0,0,0-.746,1.1,5.092,5.092,0,0,0-.366,2.054,4.135,4.135,0,0,0,1.054,3,3.768,3.768,0,0,0,2.84,1.09,3.73,3.73,0,0,0,2.818-1.1,4.193,4.193,0,0,0,1.054-3.034,4.208,4.208,0,0,0-1.062-3.053,3.76,3.76,0,0,0-2.832-1.1A4.4,4.4,0,0,0,61.512,27.471Zm3.345,1.742a3.011,3.011,0,0,1,.6,2.054,3.06,3.06,0,0,1-.62,2.089,2.159,2.159,0,0,1-3.182-.005,3,3,0,0,1-.628-2.062,3.025,3.025,0,0,1,.612-2.067,2.236,2.236,0,0,1,3.214-.008Z" style="fill:#fff"/><path d="M70.213,27.471a3.118,3.118,0,0,0-1.035.721,3.768,3.768,0,0,0-.745,1.1,5.092,5.092,0,0,0-.366,2.054,4.135,4.135,0,0,0,1.054,3,3.768,3.768,0,0,0,2.84,1.09,3.731,3.731,0,0,0,2.818-1.1,4.194,4.194,0,0,0,1.054-3.034,4.208,4.208,0,0,0-1.062-3.053,3.76,3.76,0,0,0-2.832-1.1A4.4,4.4,0,0,0,70.213,27.471Zm3.345,1.742a3.011,3.011,0,0,1,.6,2.054,3.061,3.061,0,0,1-.62,2.089,2.159,2.159,0,0,1-3.182-.005,3,3,0,0,1-.628-2.062,3.025,3.025,0,0,1,.612-2.067,2.236,2.236,0,0,1,3.214-.008Z" style="fill:#fff"/></svg>