<svg id="Layer_1" data-name="Layer 1" xmlns="http://www.w3.org/2000/svg" viewBox="0 0 128 128"><title>PANDA</title><path d="M99.788,103.467a24.806,24.806,0,0,0,4.456-13.995C104.244,72.565,86.226,58.86,64,58.86S23.756,72.565,23.756,89.472a24.806,24.806,0,0,0,4.456,13.995Z" style="fill:#ffa453"/><ellipse cx="64" cy="53.658" rx="29.612" ry="27.812" style="fill:#fff"/><ellipse cx="76.809" cy="49.757" rx="7.463" ry="9.077" transform="translate(-12.686 68.885) rotate(-45)" style="fill:#ffa453"/><ellipse cx="51.191" cy="49.757" rx="9.077" ry="7.463" transform="translate(-20.19 50.771) rotate(-45)" style="fill:#ffa453"/><path d="M67.99,63.381c0,2.5-2.024,1.507-4.521,1.507s-4.522.99-4.522-1.507a4.522,4.522,0,1,1,9.043,0Z" style="fill:#ffa453"/><path d="M91.5,43.336a10.259,10.259,0,1,0-14.06-14.46A28.634,28.634,0,0,1,91.5,43.336Z" style="fill:#ffa453"/><path d="M36.5,43.336a28.634,28.634,0,0,1,14.06-14.46A10.258,10.258,0,1,0,36.5,43.336Z" style="fill:#ffa453"/><path d="M93.013,43.75A11.5,11.5,0,0,0,81.321,24.195a1.25,1.25,0,0,0,.978,2.3,8.911,8.911,0,0,1,3.51-.712,9,9,0,0,1,6.146,15.581A31.072,31.072,0,0,0,64,24.6a32.285,32.285,0,0,0-13.069,2.745,11.5,11.5,0,0,0-18.47,13.608,1.25,1.25,0,0,0,2.111-1.339A9,9,0,0,1,48.593,28.487c-.837.456-1.662.938-2.458,1.471a1.25,1.25,0,0,0,1.391,2.077A29.482,29.482,0,0,1,64,27.1c15.639,0,28.362,11.915,28.362,26.562S79.639,80.219,64,80.219,35.638,68.3,35.638,53.658a25.568,25.568,0,0,1,8.34-18.812,1.25,1.25,0,1,0-1.706-1.827,28.042,28.042,0,0,0-9.134,20.639,27.48,27.48,0,0,0,2.9,12.277c-8.607,6.031-13.531,14.55-13.531,23.537a26.214,26.214,0,0,0,4.671,14.7,1.25,1.25,0,1,0,2.07-1.4,23.4,23.4,0,0,1-4.241-13.293c0-8.083,4.452-15.795,12.249-21.34A31.254,31.254,0,0,0,64,82.719c17.017,0,30.862-13.037,30.862-29.061A27.42,27.42,0,0,0,93.013,43.75Z" style="fill:#401d24"/><path d="M78.423,59.307a7.918,7.918,0,0,0,5.688-2.248c3.4-3.4,2.885-9.437-1.141-13.464S72.9,39.056,69.507,42.454a8.045,8.045,0,0,0-2.212,6.617,11.345,11.345,0,0,0,3.353,6.847A11.161,11.161,0,0,0,78.423,59.307ZM71.274,44.222A5.43,5.43,0,0,1,75.193,42.7q.338,0,.688.034A8.837,8.837,0,0,1,81.2,45.363c3.052,3.052,3.563,7.506,1.141,9.929s-6.876,1.91-9.929-1.141a8.843,8.843,0,0,1-2.632-5.322A5.593,5.593,0,0,1,71.274,44.222Z" style="fill:#401d24"/><path d="M45.03,43.6C41,47.622,40.491,53.662,43.889,57.059a7.918,7.918,0,0,0,5.688,2.248,11.164,11.164,0,0,0,7.776-3.389,11.345,11.345,0,0,0,3.353-6.847,8.045,8.045,0,0,0-2.212-6.617C55.1,39.056,49.055,39.568,45.03,43.6Zm13.187,5.233a8.843,8.843,0,0,1-2.632,5.322c-3.052,3.052-7.506,3.564-9.929,1.141s-1.911-6.877,1.141-9.929a8.837,8.837,0,0,1,5.322-2.632q.35-.034.688-.034a5.431,5.431,0,0,1,3.918,1.525A5.593,5.593,0,0,1,58.217,48.828Z" style="fill:#401d24"/><path d="M57.7,63.381a2.916,2.916,0,0,0,.845,2.295c.9.811,2.091.69,3.357.565.081-.008.169-.005.252-.012a2.87,2.87,0,0,1-2.8,2.257H55.665a1.176,1.176,0,0,1-1.174-1.174,1.25,1.25,0,1,0-2.5,0,3.679,3.679,0,0,0,3.674,3.674h3.686a5.335,5.335,0,0,0,4.117-1.966,5.334,5.334,0,0,0,4.117,1.966H71.27a3.679,3.679,0,0,0,3.674-3.674,1.25,1.25,0,1,0-2.5,0,1.176,1.176,0,0,1-1.174,1.174H67.585a2.87,2.87,0,0,1-2.8-2.257c.083.007.17,0,.252.012.458.045.907.09,1.336.09a2.841,2.841,0,0,0,2.02-.656,2.916,2.916,0,0,0,.845-2.295,5.772,5.772,0,0,0-11.543,0Zm9.043,0a1.71,1.71,0,0,1-.041.43,6.847,6.847,0,0,1-1.412-.057c-.488-.049-1.056-.072-1.63-.077a.486.486,0,0,0-.376,0c-.574,0-1.142.029-1.63.077a6.981,6.981,0,0,1-1.412.057,1.71,1.71,0,0,1-.041-.43,3.272,3.272,0,0,1,6.543,0Z" style="fill:#401d24"/><path d="M53.259,48.506H49.249a1.25,1.25,0,0,0,0,2.5h4.009a1.25,1.25,0,0,0,0-2.5Z" style="fill:#401d24"/><path d="M74.8,51.006h4.009a1.25,1.25,0,0,0,0-2.5H74.8a1.25,1.25,0,0,0,0,2.5Z" style="fill:#401d24"/><path d="M38.643,84.949a1.25,1.25,0,0,0-1.25,1.25v17.267a1.25,1.25,0,1,0,2.5,0V86.2A1.25,1.25,0,0,0,38.643,84.949Z" style="fill:#401d24"/><path d="M89.357,90.167a1.25,1.25,0,0,0-1.25,1.25v12.05a1.25,1.25,0,1,0,2.5,0V91.417A1.25,1.25,0,0,0,89.357,90.167Z" style="fill:#401d24"/><path d="M89.357,84.949a1.25,1.25,0,0,0-1.25,1.25v.4a1.25,1.25,0,1,0,2.5,0v-.4A1.25,1.25,0,0,0,89.357,84.949Z" style="fill:#401d24"/><path d="M95.6,68.806a1.25,1.25,0,1,0-1.674,1.857c5.847,5.268,9.067,11.947,9.067,18.808a23.4,23.4,0,0,1-4.241,13.293,1.25,1.25,0,0,0,2.07,1.4,26.214,26.214,0,0,0,4.671-14.7C105.494,81.894,101.98,74.554,95.6,68.806Z" style="fill:#401d24"/></svg>