<svg id="Layer_1" data-name="Layer 1" xmlns="http://www.w3.org/2000/svg" viewBox="0 0 128 128"><title>MONKEY</title><path d="M68.638,33.422,66.3,29.873c-2,5.333-2.3,5.667-2.3,5.667-7.666-4.5-3.871-11.5-3.871-11.5-3.364,3.064-4.541,6.235-4.67,9.038a7.162,7.162,0,0,1-3.953,6.031,27.592,27.592,0,1,0,23.043-.9A12.96,12.96,0,0,1,68.638,33.422Z" style="fill:#fff"/><path d="M83.513,57.7c0,14.755-8.736,26.716-19.513,26.716S44.487,72.451,44.487,57.7,64,56.168,64,56.168,83.513,42.941,83.513,57.7Z" style="fill:#ffa453"/><path d="M93.321,41.869a10.9,10.9,0,0,0-8.364,3.9,27.477,27.477,0,0,1,6.635,17.794,10.918,10.918,0,1,0,1.729-21.7Z" style="fill:#ffa453"/><path d="M43.043,45.773a10.958,10.958,0,1,0-6.635,17.794A27.477,27.477,0,0,1,43.043,45.773Z" style="fill:#ffa453"/><path d="M64,91.312a27.517,27.517,0,0,1-20.25-8.855v21.5h40.5v-21.5A27.517,27.517,0,0,1,64,91.312Z" style="fill:#ffa453"/><path d="M81.3,50.252c-5.26-2.79-14.518,2.642-17.3,4.42-2.783-1.779-12.04-7.213-17.3-4.42-2.3,1.218-3.462,3.723-3.462,7.444,0,15.42,9.314,27.965,20.763,27.965S84.763,73.116,84.763,57.7C84.763,53.975,83.6,51.47,81.3,50.252ZM64,83.162c-10.07,0-18.263-11.424-18.263-25.465,0-2.723.717-4.484,2.132-5.235a4.979,4.979,0,0,1,2.346-.5c4.3,0,10.615,3.573,13.083,5.244a1.248,1.248,0,0,0,1.4,0c2.976-2.016,11.548-6.8,15.429-4.742,1.415.75,2.133,2.512,2.133,5.235C82.263,71.738,74.07,83.162,64,83.162Z" style="fill:#401d24"/><path d="M54.682,63.96a1.25,1.25,0,0,0,1.25-1.25V59.691a1.25,1.25,0,1,0-2.5,0V62.71A1.25,1.25,0,0,0,54.682,63.96Z" style="fill:#401d24"/><path d="M73.318,63.96a1.25,1.25,0,0,0,1.25-1.25V59.691a1.25,1.25,0,1,0-2.5,0V62.71A1.25,1.25,0,0,0,73.318,63.96Z" style="fill:#401d24"/><path d="M64,70.166a5.256,5.256,0,0,0,5.25-5.25,2.516,2.516,0,0,0-.8-2.032,3.029,3.029,0,0,0-2.741-.18,5.474,5.474,0,0,1-3.411,0,3.029,3.029,0,0,0-2.741.18,2.516,2.516,0,0,0-.8,2.032A5.256,5.256,0,0,0,64,70.166Zm-2.293-5.032a7.851,7.851,0,0,0,4.586,0c.141-.034.305-.074.455-.106a2.75,2.75,0,0,1-5.5,0C61.4,65.06,61.566,65.1,61.707,65.133Z" style="fill:#401d24"/><path d="M73.582,66.315a1.25,1.25,0,0,0-1.25,1.25,8.332,8.332,0,0,1-16.664,0,1.25,1.25,0,0,0-2.5,0,10.832,10.832,0,0,0,21.664,0A1.25,1.25,0,0,0,73.582,66.315Z" style="fill:#401d24"/><path d="M51.9,95.8a1.25,1.25,0,0,0-1.25,1.25v6.911a1.25,1.25,0,0,0,2.5,0V97.049A1.25,1.25,0,0,0,51.9,95.8Z" style="fill:#401d24"/><path d="M76.1,95.8a1.25,1.25,0,0,0-1.25,1.25v6.911a1.25,1.25,0,0,0,2.5,0V97.049A1.25,1.25,0,0,0,76.1,95.8Z" style="fill:#401d24"/><path d="M43.75,87.25A1.25,1.25,0,0,0,42.5,88.5v15.46a1.25,1.25,0,0,0,2.5,0V88.5A1.25,1.25,0,0,0,43.75,87.25Z" style="fill:#401d24"/><path d="M104.244,71.106q-.267,0-.523.006a1.25,1.25,0,0,0,.026,2.5h.027l.471,0a1.25,1.25,0,0,0,0-2.5Z" style="fill:#401d24"/><path d="M92.816,64.855a1.237,1.237,0,0,0,.5.111,12.173,12.173,0,1,0-8.353-21.019,29.034,29.034,0,0,0-9.94-6.89,11.7,11.7,0,0,1-5.346-4.323L67.34,29.185a1.25,1.25,0,0,0-2.214.25c-.806,2.148-1.325,3.46-1.655,4.256a6.965,6.965,0,0,1-2.243-9.055,1.25,1.25,0,0,0-1.94-1.52c-3.2,2.915-4.909,6.247-5.077,9.9A5.93,5.93,0,0,1,50.938,38a28.908,28.908,0,0,0-7.92,5.939,12.171,12.171,0,1,0-13.976,19.65A1.25,1.25,0,0,0,30.2,61.37,9.673,9.673,0,1,1,41.378,45.822,28.842,28.842,0,0,0,62.159,92.5q.937.059,1.864.058A28.55,28.55,0,0,0,83,85.413V103.96a1.25,1.25,0,0,0,2.5,0V98.539a14.8,14.8,0,0,0,1.789.111A9.321,9.321,0,0,0,92.9,97.025c1.883-1.414,2.875-3.638,2.95-6.611.037-1.49.01-2.951-.016-4.364-.118-6.367.011-10.344,3.97-11.8A1.25,1.25,0,0,0,98.94,71.9c-5.829,2.145-5.721,8-5.606,14.193.026,1.386.052,2.82.017,4.255-.054,2.166-.708,3.737-1.945,4.669-1.81,1.365-4.5,1.2-5.906.994V82.932A28.98,28.98,0,0,0,92.816,64.855Zm-30.5,25.154A26.347,26.347,0,0,1,52.072,40.224a8.434,8.434,0,0,0,4.635-7.088,10.212,10.212,0,0,1,1.24-4.4c.2,2.667,1.582,5.634,5.42,7.887a1.251,1.251,0,0,0,1.566-.247c.123-.138.358-.4,1.664-3.773l1,1.512a14.186,14.186,0,0,0,6.477,5.256A26.606,26.606,0,0,1,86.518,50.033a1.25,1.25,0,1,0,2.135-1.3,28.564,28.564,0,0,0-2.047-2.893,9.671,9.671,0,1,1,6.715,16.627,1.239,1.239,0,0,0-.5.108,28.668,28.668,0,0,0-1.832-9.062,1.25,1.25,0,0,0-2.338.885A26.355,26.355,0,0,1,62.314,90.009Z" style="fill:#401d24"/></svg>