<svg id="Layer_1" data-name="Layer 1" xmlns="http://www.w3.org/2000/svg" viewBox="0 0 128 128"><title>CAMERA</title><path d="M79.746,44.885l-1.282-5.27a2.5,2.5,0,0,0-2.426-1.907H51.962a2.5,2.5,0,0,0-2.426,1.907l-1.282,5.27a2.5,2.5,0,0,1-2.426,1.907H26.253a2.5,2.5,0,0,0-2.5,2.5V87.795a2.5,2.5,0,0,0,2.5,2.5h75.494a2.5,2.5,0,0,0,2.5-2.5V49.289a2.5,2.5,0,0,0-2.5-2.5H82.172A2.5,2.5,0,0,1,79.746,44.885Z" style="fill:#ffa453"/><circle cx="64" cy="68.542" r="14.5" style="fill:#fff"/><rect x="30.125" y="41.542" width="10.375" height="5.25" style="fill:#fff"/><rect x="93.5" y="51.667" width="5.562" height="5.563" style="fill:#fff"/><path d="M64,52.792A15.75,15.75,0,1,0,79.75,68.542,15.768,15.768,0,0,0,64,52.792Zm0,29a13.25,13.25,0,1,1,13.25-13.25A13.265,13.265,0,0,1,64,81.792Z" style="fill:#401d24"/><path d="M104.244,54.125a1.25,1.25,0,0,0,1.25-1.25V49.289a3.752,3.752,0,0,0-3.747-3.747H82.172a1.244,1.244,0,0,1-1.212-.952l-1.282-5.27a3.738,3.738,0,0,0-3.641-2.861H51.962a3.738,3.738,0,0,0-3.641,2.861L47.04,44.589a1.244,1.244,0,0,1-1.212.953H31.375v-2.75H40.5a1.25,1.25,0,0,0,0-2.5H30.125a1.25,1.25,0,0,0-1.25,1.25v4H26.253a3.752,3.752,0,0,0-3.747,3.747V87.795a3.751,3.751,0,0,0,3.747,3.747h75.494a3.751,3.751,0,0,0,3.747-3.747V58.5a1.25,1.25,0,1,0-2.5,0V87.795a1.249,1.249,0,0,1-1.247,1.247H26.253a1.249,1.249,0,0,1-1.247-1.247V49.289a1.249,1.249,0,0,1,1.247-1.247H45.828a3.738,3.738,0,0,0,3.641-2.861l1.282-5.269a1.244,1.244,0,0,1,1.212-.953H76.038a1.244,1.244,0,0,1,1.212.952l1.282,5.27a3.738,3.738,0,0,0,3.641,2.861h19.575a1.249,1.249,0,0,1,1.247,1.247v3.586A1.25,1.25,0,0,0,104.244,54.125Z" style="fill:#401d24"/><path d="M64,59.042q-.218,0-.435.01a1.25,1.25,0,0,0,.058,2.5l.059,0q.158-.007.318-.007a1.25,1.25,0,0,0,0-2.5Z" style="fill:#401d24"/><path d="M58.762,60.615A9.485,9.485,0,0,0,54.5,68.542a1.25,1.25,0,0,0,2.5,0A6.991,6.991,0,0,1,60.142,62.7a1.25,1.25,0,0,0-1.38-2.085Z" style="fill:#401d24"/><path d="M93.5,50.417a1.25,1.25,0,0,0-1.25,1.25v5.563a1.25,1.25,0,0,0,1.25,1.25h5.562a1.25,1.25,0,0,0,1.25-1.25V51.667a1.25,1.25,0,0,0-1.25-1.25Zm4.312,5.563H94.75V52.917h3.062Z" style="fill:#401d24"/></svg>