<svg xmlns="http://www.w3.org/2000/svg" data-name="Layer 1" viewBox="0 0 128 128"><path fill="#ffa453" d="M104.244 51.5H23.756l10-18.333h60.488l10 18.333z"/><path fill="#fff" d="M33.5 51.5h61v43.333h-61z"/><path fill="#ffa453" d="M47.25 70.5h33.5v24.333h-33.5z"/><path fill="#401d24" d="M104.244 93.583H82V70.5a1.25 1.25 0 00-1.25-1.25h-33.5A1.25 1.25 0 0046 70.5v19a1.25 1.25 0 002.5 0V71.75h14.25v21.833h-28V52.75h5.417a1.25 1.25 0 000-2.5H25.861L34.5 34.417h59l8.637 15.834H46.333a1.25 1.25 0 000 2.5H93.25v35.416a1.25 1.25 0 002.5 0V52.75h8.494a1.25 1.25 0 001.1-1.849l-10-18.333a1.252 1.252 0 00-1.1-.651H33.756a1.252 1.252 0 00-1.1.651l-10 18.334a1.25 1.25 0 001.1 1.849h8.494v40.832h-3.083a1.25 1.25 0 000 2.5h75.077a1.25 1.25 0 000-2.5zM65.25 71.75H79.5v21.833H65.25zM24.667 93.583h-.911a1.25 1.25 0 000 2.5h.911a1.25 1.25 0 000-2.5z"/><path fill="#401d24" d="M52.327 63.469v-4.992h1.779V57.46h-4.775v1.017h1.783v4.992h1.213zM56.1 57.6a2.338 2.338 0 00-.777.541 2.826 2.826 0 00-.559.824 3.821 3.821 0 00-.275 1.541 3.1 3.1 0 00.791 2.252 2.828 2.828 0 002.131.818 2.8 2.8 0 002.115-.822 3.682 3.682 0 00-.006-4.568 2.821 2.821 0 00-2.125-.824 3.3 3.3 0 00-1.295.238zm2.51 1.308a2.259 2.259 0 01.453 1.541 2.3 2.3 0 01-.465 1.568 1.62 1.62 0 01-2.387 0 2.812 2.812 0 01-.012-3.1 1.678 1.678 0 012.412-.006zM61.229 57.46h1.213v6.009h-1.213zM63.631 57.509v5.96h4.23v-1.013h-3.017v-4.947h-1.213zM73.181 58.477V57.46h-4.455v6.009h4.57v-1.013h-3.357v-1.635h3.017v-1.012h-3.017v-1.332h3.242zM76.89 63.469v-4.992h1.779V57.46h-4.775v1.017h1.783v4.992h1.213z"/></svg>