<svg id="Layer_1" data-name="Layer 1" xmlns="http://www.w3.org/2000/svg" viewBox="0 0 128 128"><title>ZOO CAGE</title><polygon points="104.244 50.588 23.756 50.588 28.887 33.574 99.113 33.574 104.244 50.588" style="fill:#fff"/><path d="M28.887,50.588V94.426H39.279V84.034A24.721,24.721,0,0,1,64,59.313h0A24.721,24.721,0,0,1,88.721,84.034V94.426H99.113V50.588Z" style="fill:#ffa453"/><path d="M104.244,93.176h-.327a1.25,1.25,0,0,0,0,2.5h.327a1.25,1.25,0,0,0,0-2.5Z" style="fill:#401d24"/><path d="M100.362,93.207V51.838h3.882a1.249,1.249,0,0,0,1.2-1.611l-5.132-17.014a1.249,1.249,0,0,0-1.2-.889H28.888a1.249,1.249,0,0,0-1.2.889L22.56,50.227a1.249,1.249,0,0,0,1.2,1.611H84.375a1.25,1.25,0,0,0,0-2.5H25.438l4.378-14.514H98.184l4.378,14.514H90.375a1.25,1.25,0,0,0,0,2.5h7.487V93.176H89.971V84.034A25.889,25.889,0,0,0,82.252,65.58a1.222,1.222,0,0,0-.112-.107,25.91,25.91,0,0,0-36.279,0,1.222,1.222,0,0,0-.112.107,25.889,25.889,0,0,0-7.719,18.454v9.142H30.138V55.75a1.25,1.25,0,1,0-2.5,0V93.176H23.756a1.25,1.25,0,0,0,0,2.5h76.452a1.25,1.25,0,0,0,1.25-1.25A1.236,1.236,0,0,0,100.362,93.207Zm-20.283-.031H73.924v-30.4a23.553,23.553,0,0,1,6.155,4.188ZM64,71.75a1.25,1.25,0,0,0,1.25-1.25V60.6a23.312,23.312,0,0,1,6.174,1.176v31.4H65.25V87.55a4.332,4.332,0,0,0,3.09-4.134V78.108a4.34,4.34,0,1,0-8.68,0v5.308a4.332,4.332,0,0,0,3.09,4.134v5.625H56.576v-31.4A23.309,23.309,0,0,1,62.75,60.6v9.9A1.25,1.25,0,0,0,64,71.75Zm0,13.506a1.842,1.842,0,0,1-1.84-1.84V78.108a1.84,1.84,0,1,1,3.68,0v5.308A1.842,1.842,0,0,1,64,85.256Zm-16.079-18.3a23.557,23.557,0,0,1,6.155-4.19V93.176H47.921ZM40.529,84.034a23.348,23.348,0,0,1,4.892-14.319V93.176H40.529Zm42.05,9.142V69.717a23.346,23.346,0,0,1,4.892,14.317v9.142Z" style="fill:#401d24"/></svg>