<svg xmlns="http://www.w3.org/2000/svg" data-name="Layer 1" viewBox="0 0 128 128"><path fill="#ffa453" d="m79.746 44.885-1.282-5.27a2.5 2.5 0 0 0-2.426-1.907H51.962a2.5 2.5 0 0 0-2.426 1.907l-1.282 5.27a2.5 2.5 0 0 1-2.426 1.907H26.253a2.5 2.5 0 0 0-2.5 2.5v38.503a2.5 2.5 0 0 0 2.5 2.5h75.494a2.5 2.5 0 0 0 2.5-2.5V49.289a2.5 2.5 0 0 0-2.5-2.5H82.172a2.5 2.5 0 0 1-2.426-1.904z"/><circle cx="64" cy="68.542" r="14.5" fill="#fff"/><path fill="#fff" d="M30.125 41.542H40.5V46.792H30.125z"/><path fill="#fff" d="M93.5 51.667H99.062V57.230000000000004H93.5z"/><path fill="#401d24" d="M64 52.792a15.75 15.75 0 1 0 15.75 15.75A15.768 15.768 0 0 0 64 52.792zm0 29a13.25 13.25 0 1 1 13.25-13.25A13.265 13.265 0 0 1 64 81.792z"/><path fill="#401d24" d="M104.244 54.125a1.25 1.25 0 0 0 1.25-1.25v-3.586a3.752 3.752 0 0 0-3.747-3.747H82.172a1.244 1.244 0 0 1-1.212-.952l-1.282-5.27a3.738 3.738 0 0 0-3.641-2.861H51.962a3.738 3.738 0 0 0-3.641 2.861l-1.281 5.269a1.244 1.244 0 0 1-1.212.953H31.375v-2.75H40.5a1.25 1.25 0 0 0 0-2.5H30.125a1.25 1.25 0 0 0-1.25 1.25v4h-2.622a3.752 3.752 0 0 0-3.747 3.747v38.506a3.751 3.751 0 0 0 3.747 3.747h75.494a3.751 3.751 0 0 0 3.747-3.747V58.5a1.25 1.25 0 1 0-2.5 0v29.295a1.249 1.249 0 0 1-1.247 1.247H26.253a1.249 1.249 0 0 1-1.247-1.247V49.289a1.249 1.249 0 0 1 1.247-1.247h19.575a3.738 3.738 0 0 0 3.641-2.861l1.282-5.269a1.244 1.244 0 0 1 1.212-.953h24.075a1.244 1.244 0 0 1 1.212.952l1.282 5.27a3.738 3.738 0 0 0 3.641 2.861h19.575a1.249 1.249 0 0 1 1.247 1.247v3.586a1.25 1.25 0 0 0 1.249 1.25z"/><path fill="#401d24" d="M64 59.042q-.218 0-.435.01a1.25 1.25 0 0 0 .058 2.5h.059q.158-.007.318-.007a1.25 1.25 0 0 0 0-2.5zM58.762 60.615a9.485 9.485 0 0 0-4.262 7.927 1.25 1.25 0 0 0 2.5 0 6.991 6.991 0 0 1 3.142-5.842 1.25 1.25 0 0 0-1.38-2.085zM93.5 50.417a1.25 1.25 0 0 0-1.25 1.25v5.563a1.25 1.25 0 0 0 1.25 1.25h5.562a1.25 1.25 0 0 0 1.25-1.25v-5.563a1.25 1.25 0 0 0-1.25-1.25zm4.312 5.563H94.75v-3.063h3.062z"/></svg>