<svg id="Layer_1" data-name="Layer 1" xmlns="http://www.w3.org/2000/svg" viewBox="0 0 128 128"><title>ZOO SIGN</title><circle cx="64" cy="27.441" r="3.685" style="fill:#fff"/><path d="M66.731,104.244H61.269V33.857A2.731,2.731,0,0,1,64,31.126h0a2.731,2.731,0,0,1,2.731,2.731Z" style="fill:#ffa453"/><polygon points="35.62 52.75 61.269 52.75 61.269 38.143 35.62 38.143 23.756 45.447 35.62 52.75" style="fill:#ffa453"/><polygon points="92.38 72.107 66.731 72.107 66.731 57.5 92.38 57.5 104.244 64.803 92.38 72.107" style="fill:#fff"/><path d="M72.687,70.857h-.354a1.25,1.25,0,0,0,0,2.5h.354a1.25,1.25,0,0,0,0-2.5Z" style="fill:#401d24"/><path d="M104.9,63.739l-11.864-7.3a1.253,1.253,0,0,0-.655-.185h-24.4V33.857a3.943,3.943,0,0,0-.951-2.551,4.935,4.935,0,1,0-6.062,0,3.944,3.944,0,0,0-.95,2.551V51.5H35.974L26.14,45.447l9.833-6.054H55.916a1.25,1.25,0,0,0,0-2.5H35.62a1.251,1.251,0,0,0-.655.186L23.1,44.382a1.25,1.25,0,0,0,0,2.129l11.864,7.3A1.253,1.253,0,0,0,35.62,54h24.4v50.244a1.25,1.25,0,0,0,2.5,0V33.857a1.481,1.481,0,0,1,2.962,0v70.387a1.25,1.25,0,1,0,2.5,0V58.75H92.026l9.833,6.053-9.833,6.054H76.437a1.25,1.25,0,0,0,0,2.5H92.38a1.253,1.253,0,0,0,.655-.185l11.864-7.3a1.25,1.25,0,0,0,0-2.129ZM64,25.006a2.435,2.435,0,1,1-2.435,2.435A2.437,2.437,0,0,1,64,25.006Z" style="fill:#401d24"/></svg>