<svg xmlns="http://www.w3.org/2000/svg" data-name="Layer 1" viewBox="0 0 128 128"><path fill="#ffa453" d="M69.023 40.2H58.978a19.783 19.783 0 00-19.709 18.065L37.24 81.541a7.965 7.965 0 003.851 7.53l3.1 1.853a7.965 7.965 0 013.881 6.838 6.482 6.482 0 006.481 6.481h18.892a6.482 6.482 0 006.481-6.481 7.965 7.965 0 013.881-6.838l3.1-1.853a7.965 7.965 0 003.851-7.53l-2.027-23.276A19.783 19.783 0 0069.023 40.2z"/><path fill="#fff" d="M58.978 40.2a19.783 19.783 0 00-19.709 18.065l-1.475 16.914a36.732 36.732 0 0113.518-4c12.211-1.122 14.034-16.6 10-20.413s0-10.563 0-10.563zM43.475 90.5l.718.429a7.965 7.965 0 013.881 6.838 6.481 6.481 0 006.481 6.481h18.89a6.481 6.481 0 006.481-6.481 7.965 7.965 0 013.881-6.838l.718-.429z"/><path fill="#fff" d="M45.408 45.6a7.909 7.909 0 00-1.919-3.437c-4.082-4.082-12.91-1.874-12.91-1.874s-2.208 8.827 1.874 12.91c1.858 1.858 4.695 2.407 7.239 2.46A19.718 19.718 0 0145.408 45.6zM97.421 40.291s-8.827-2.208-12.91 1.874a7.91 7.91 0 00-1.919 3.435 19.718 19.718 0 015.716 10.06c2.544-.053 5.381-.6 7.239-2.46 4.082-4.081 1.874-12.909 1.874-12.909z"/><path fill="#ffa453" d="M53.428 40.991c-5.24-7.056-1.157-17.235-1.157-17.235-12.585 4.884-7.595 19.944-6.893 21.876a19.77 19.77 0 018.05-4.641zM74.953 41.121a19.768 19.768 0 018 4.848l.066-.128s6.644-16.862-6.815-22.085c.004 0 4.138 10.305-1.251 17.365z"/><path fill="#401d24" d="M48.536 64.415a1.25 1.25 0 001.25-1.25 1.526 1.526 0 013.052 0 1.25 1.25 0 102.5 0 4.026 4.026 0 00-8.052 0 1.25 1.25 0 001.25 1.25zM76.688 59.139a4.031 4.031 0 00-4.026 4.026 1.25 1.25 0 102.5 0 1.526 1.526 0 013.052 0 1.25 1.25 0 102.5 0 4.03 4.03 0 00-4.026-4.026zM77.525 89.246h-.4a1.25 1.25 0 000 2.5h.4a1.25 1.25 0 000-2.5zM60.7 94.991a2.379 2.379 0 102.379 2.379 2.382 2.382 0 00-2.379-2.379zm-.121 2.379a.121.121 0 11.242 0c.003.13-.239.13-.239 0zM67.3 94.991a2.379 2.379 0 102.379 2.379 2.382 2.382 0 00-2.379-2.379zm-.121 2.379a.121.121 0 01.242 0c-.003.13-.245.13-.245 0z"/><path fill="#401d24" d="M98.634 39.988a1.25 1.25 0 00-.909-.909c-.336-.085-7.2-1.744-11.989.7a19.219 19.219 0 00-1.156-9.887 13.6 13.6 0 00-7.92-7.3 1.25 1.25 0 00-1.612 1.631c.023.059 2.348 5.956 1.012 11.609a1.25 1.25 0 002.434.575 22.638 22.638 0 00-.244-10.225 10.591 10.591 0 014.036 4.7c1.712 3.9 1.136 8.531.452 11.493a8.9 8.9 0 00-.639 1.094 20.986 20.986 0 00-13.077-4.519H58.977a21.342 21.342 0 00-4.988.608c-4.032-6.372-.594-15.246-.557-15.339a1.251 1.251 0 00-1.613-1.629c-9.021 3.5-9.766 11.73-9.025 17.489-4.8-2.867-12.17-1.087-12.518-1a1.25 1.25 0 00-.909.909c-.1.388-2.328 9.566 2.2 14.1a1.25 1.25 0 001.768-1.768c-2.893-2.893-2.095-8.865-1.7-10.97 2.1-.394 8.077-1.191 10.97 1.7a6.005 6.005 0 011.227 1.875l.1.33a20.972 20.972 0 00-5.909 12.9l-2.029 23.278a9.268 9.268 0 004.455 8.711L43.552 92a6.747 6.747 0 013.271 5.765 7.741 7.741 0 007.731 7.732h18.891a7.741 7.741 0 007.731-7.732A6.747 6.747 0 0184.448 92l3.1-1.853a9.268 9.268 0 004.455-8.711l-2.026-23.279c-.04-.452-.113-.892-.18-1.335a10.512 10.512 0 006.634-2.737c4.531-4.531 2.299-13.708 2.203-14.097zM50.226 26.182c-.82 3.4-1.519 9.185 1.282 14.125a20.836 20.836 0 00-5.526 3.1c-1.148-4.107-2.567-12.824 4.244-17.225zm-4.132 20.449c.019-.013.042-.022.059-.036s.036-.019.052-.031a1.189 1.189 0 00.1-.125 1.25 1.25 0 00.117-.141 18.381 18.381 0 017.257-4.09c.036-.008.069-.021.1-.032a18.8 18.8 0 015.19-.726h.343c-1.038 2.542-2.183 7.094 1.13 10.222 1.52 1.436 2.219 5.715.7 10.124-.962 2.785-3.534 7.546-9.948 8.135A37.921 37.921 0 0039.23 73.1l1.284-14.729a18.475 18.475 0 015.58-11.74zM86.269 88l-3.1 1.853a9.258 9.258 0 00-4.49 7.911 5.238 5.238 0 01-5.231 5.232H54.555a5.238 5.238 0 01-5.231-5.232 9.239 9.239 0 00-2.266-6.017h25.567a1.25 1.25 0 000-2.5H43.819L41.73 88a6.754 6.754 0 01-3.246-6.348l.493-5.661a35.441 35.441 0 0112.448-3.568c5.707-.524 10.11-4.1 12.083-9.808 1.706-4.94 1.13-10.424-1.342-12.758-2.635-2.489-.885-6.816-.106-8.4h6.961A18.483 18.483 0 0181.575 46.3a1.218 1.218 0 00.321.322l.046.046a1.219 1.219 0 00.286.287 18.478 18.478 0 015.259 11.42l2.029 23.275A6.754 6.754 0 0186.269 88zm3.024-33.637a20.879 20.879 0 00-4.863-8.742c.169-.5.4-1.247.635-2.185.108-.132.214-.268.331-.385 2.9-2.9 8.881-2.093 10.978-1.7.525 2.717.949 8.309-1.71 10.968a8.307 8.307 0 01-5.371 2.042z"/></svg>