<svg id="Layer_1" data-name="Layer 1" xmlns="http://www.w3.org/2000/svg" viewBox="0 0 128 128"><title>ZOO TICKETS</title><path d="M104.244,75.843V52.157a8.75,8.75,0,0,1-8.75-8.75H32.506a8.75,8.75,0,0,1-8.75,8.75V75.843a8.75,8.75,0,0,1,8.75,8.75H95.494A8.75,8.75,0,0,1,104.244,75.843Z" style="fill:#ffa453"/><rect x="51.78" y="56.25" width="39" height="15.5" style="fill:#fff"/><polygon points="59.36 68.004 65.865 68.004 65.865 66.654 61.31 66.654 65.696 61.253 65.696 59.996 59.835 59.996 59.835 61.351 63.566 61.351 59.36 66.545 59.36 68.004" style="fill:#401d24"/><path d="M68.705,60.177a3.118,3.118,0,0,0-1.035.721,3.769,3.769,0,0,0-.745,1.1,5.093,5.093,0,0,0-.366,2.054,4.135,4.135,0,0,0,1.054,3,3.769,3.769,0,0,0,2.84,1.09,3.73,3.73,0,0,0,2.818-1.1,4.906,4.906,0,0,0-.008-6.087,3.76,3.76,0,0,0-2.832-1.1A4.4,4.4,0,0,0,68.705,60.177Zm3.345,1.742a3.011,3.011,0,0,1,.6,2.054,3.06,3.06,0,0,1-.62,2.089,2.159,2.159,0,0,1-3.181-.005,3.748,3.748,0,0,1-.017-4.129,2.236,2.236,0,0,1,3.214-.008Z" style="fill:#401d24"/><path d="M77.406,60.177a3.117,3.117,0,0,0-1.035.721,3.769,3.769,0,0,0-.745,1.1,5.093,5.093,0,0,0-.366,2.054,4.135,4.135,0,0,0,1.054,3,3.769,3.769,0,0,0,2.84,1.09,3.731,3.731,0,0,0,2.818-1.1,4.906,4.906,0,0,0-.008-6.087,3.76,3.76,0,0,0-2.832-1.1A4.4,4.4,0,0,0,77.406,60.177Zm3.345,1.742a3.011,3.011,0,0,1,.6,2.054,3.06,3.06,0,0,1-.62,2.089,2.159,2.159,0,0,1-3.182-.005,3.748,3.748,0,0,1-.016-4.129,2.236,2.236,0,0,1,3.214-.008Z" style="fill:#401d24"/><path d="M104.244,50.907a7.508,7.508,0,0,1-7.5-7.5,1.25,1.25,0,0,0-1.25-1.25H32.506a1.25,1.25,0,0,0,0,2.5H41.5v6.25a1.25,1.25,0,0,0,2.5,0v-6.25H94.322a10.021,10.021,0,0,0,8.672,8.672V74.671a10.021,10.021,0,0,0-8.672,8.672H44v-6.25a1.25,1.25,0,0,0-2.5,0v6.25H33.678a10.022,10.022,0,0,0-8.672-8.672V52.157a1.25,1.25,0,1,0-2.5,0V75.843a1.25,1.25,0,0,0,1.25,1.25,7.508,7.508,0,0,1,7.5,7.5,1.25,1.25,0,0,0,1.25,1.25H95.494a1.25,1.25,0,0,0,1.25-1.25,7.508,7.508,0,0,1,7.5-7.5,1.25,1.25,0,0,0,1.25-1.25V52.157A1.25,1.25,0,0,0,104.244,50.907Z" style="fill:#401d24"/><path d="M42.75,69.615A1.25,1.25,0,0,0,44,68.365V59.636a1.25,1.25,0,0,0-2.5,0v8.729A1.25,1.25,0,0,0,42.75,69.615Z" style="fill:#401d24"/><path d="M92.029,56.25A1.25,1.25,0,0,0,90.779,55h-39a1.25,1.25,0,0,0-1.25,1.25v15.5A1.25,1.25,0,0,0,51.779,73h39a1.25,1.25,0,0,0,1.25-1.25V63.125a1.25,1.25,0,1,0-2.5,0V70.5h-36.5v-13h37.75A1.25,1.25,0,0,0,92.029,56.25Z" style="fill:#401d24"/><path d="M103.125,36.967h1.119a1.25,1.25,0,0,0,0-2.5h-1.119a1.25,1.25,0,0,0,0,2.5Z" style="fill:#401d24"/><path d="M23.756,36.967H95.75a1.25,1.25,0,0,0,0-2.5H23.756a1.25,1.25,0,0,0,0,2.5Z" style="fill:#401d24"/><path d="M104.244,91.033H23.756a1.25,1.25,0,0,0,0,2.5h80.488a1.25,1.25,0,0,0,0-2.5Z" style="fill:#401d24"/></svg>