<svg xmlns="http://www.w3.org/2000/svg" data-name="Layer 1" viewBox="0 0 128 128"><path fill="#ffa453" d="M104.244 75.843V52.157a8.75 8.75 0 0 1-8.75-8.75H32.506a8.75 8.75 0 0 1-8.75 8.75v23.686a8.75 8.75 0 0 1 8.75 8.75h62.988a8.75 8.75 0 0 1 8.75-8.75z"/><path fill="#fff" d="M51.78 56.25H90.78V71.75H51.78z"/><path fill="#401d24" d="M59.36 68.004 65.865 68.004 65.865 66.654 61.31 66.654 65.696 61.253 65.696 59.996 59.835 59.996 59.835 61.351 63.566 61.351 59.36 66.545 59.36 68.004z"/><path fill="#401d24" d="M68.705 60.177a3.118 3.118 0 0 0-1.035.721 3.769 3.769 0 0 0-.745 1.1 5.093 5.093 0 0 0-.366 2.054 4.135 4.135 0 0 0 1.054 3 3.769 3.769 0 0 0 2.84 1.09 3.73 3.73 0 0 0 2.818-1.1 4.906 4.906 0 0 0-.008-6.087 3.76 3.76 0 0 0-2.832-1.1 4.4 4.4 0 0 0-1.726.322zm3.345 1.742a3.011 3.011 0 0 1 .6 2.054 3.06 3.06 0 0 1-.62 2.089 2.159 2.159 0 0 1-3.181-.005 3.748 3.748 0 0 1-.017-4.129 2.236 2.236 0 0 1 3.214-.008zM77.406 60.177a3.117 3.117 0 0 0-1.035.721 3.769 3.769 0 0 0-.745 1.1 5.093 5.093 0 0 0-.366 2.054 4.135 4.135 0 0 0 1.054 3 3.769 3.769 0 0 0 2.84 1.09 3.731 3.731 0 0 0 2.818-1.1 4.906 4.906 0 0 0-.008-6.087 3.76 3.76 0 0 0-2.832-1.1 4.4 4.4 0 0 0-1.726.322zm3.345 1.742a3.011 3.011 0 0 1 .6 2.054 3.06 3.06 0 0 1-.62 2.089 2.159 2.159 0 0 1-3.182-.005 3.748 3.748 0 0 1-.016-4.129 2.236 2.236 0 0 1 3.214-.008z"/><path fill="#401d24" d="M104.244 50.907a7.508 7.508 0 0 1-7.5-7.5 1.25 1.25 0 0 0-1.25-1.25H32.506a1.25 1.25 0 0 0 0 2.5H41.5v6.25a1.25 1.25 0 0 0 2.5 0v-6.25h50.322a10.021 10.021 0 0 0 8.672 8.672v21.342a10.021 10.021 0 0 0-8.672 8.672H44v-6.25a1.25 1.25 0 0 0-2.5 0v6.25h-7.822a10.022 10.022 0 0 0-8.672-8.672V52.157a1.25 1.25 0 1 0-2.5 0v23.686a1.25 1.25 0 0 0 1.25 1.25 7.508 7.508 0 0 1 7.5 7.5 1.25 1.25 0 0 0 1.25 1.25h62.988a1.25 1.25 0 0 0 1.25-1.25 7.508 7.508 0 0 1 7.5-7.5 1.25 1.25 0 0 0 1.25-1.25V52.157a1.25 1.25 0 0 0-1.25-1.25z"/><path fill="#401d24" d="M42.75 69.615a1.25 1.25 0 0 0 1.25-1.25v-8.729a1.25 1.25 0 0 0-2.5 0v8.729a1.25 1.25 0 0 0 1.25 1.25zM92.029 56.25a1.25 1.25 0 0 0-1.25-1.25h-39a1.25 1.25 0 0 0-1.25 1.25v15.5a1.25 1.25 0 0 0 1.25 1.25h39a1.25 1.25 0 0 0 1.25-1.25v-8.625a1.25 1.25 0 1 0-2.5 0V70.5h-36.5v-13h37.75a1.25 1.25 0 0 0 1.25-1.25zM103.125 36.967h1.119a1.25 1.25 0 0 0 0-2.5h-1.119a1.25 1.25 0 0 0 0 2.5zM23.756 36.967H95.75a1.25 1.25 0 0 0 0-2.5H23.756a1.25 1.25 0 0 0 0 2.5zM104.244 91.033H23.756a1.25 1.25 0 0 0 0 2.5h80.488a1.25 1.25 0 0 0 0-2.5z"/></svg>