<svg xmlns="http://www.w3.org/2000/svg" id="Layer_1" x="0" y="0" version="1.1" viewBox="0 0 256 256" xml:space="preserve"><style>.st0{fill:#fff}.st1{fill:#48386a}.st2{fill:#9feaff}</style><path d="M68.7 42.3c8.5-1.8 17.5-2.7 26.9-2.7 27.3 0 51.8 8 68.7 20.8 2.3 1.7 4.4 3.5 6.4 5.4 10.8 10.2 17.2 22.8 17.2 36.3 0 2.1-.2 4.2-.5 6.3-.8 5.2-2.5 10.2-5 15-2.9 5.4-6.8 10.4-11.7 15-16.2 15.3-42.3 25.5-72 26.1h-3.1c-1.9 0-3.9 0-5.8-.1-4.3-.2-8.6-.6-12.7-1.1l-18.8 13.4-23.7 16.9 1.9-29.1.9-14C16.6 139 3.3 121.6 3.3 102c0-25.6 22.7-47.6 55.2-57.2l10.2-2.5z" class="st0"/><path d="M34.6 194.6c-.2 0-.3 0-.5-.1-.3-.2-.5-.6-.5-.9l2.7-42.4c-21.7-12.1-34.1-30-34.1-49.1 0-25.3 22-48.1 55.9-58.2.5-.2 1.1.1 1.2.7.2.5-.1 1.1-.7 1.2-33 9.8-54.4 31.9-54.4 56.3 0 18.5 12.3 35.9 33.6 47.6.3.2.5.6.5.9l-2.6 41 40.8-29.1c.2-.1.5-.2.7-.2 4.2.6 8.4.9 12.6 1.1 1.8.1 3.7.1 5.7.1h3.1c28.7-.6 54.7-10.1 71.4-25.9 4.8-4.6 8.7-9.5 11.5-14.7 2.5-4.7 4.2-9.7 4.9-14.7.3-2 .5-4.1.5-6.2 0-12.8-5.8-25.1-16.9-35.6-1.9-1.8-4.1-3.6-6.4-5.4-17.3-13.1-42.2-20.6-68.1-20.6-9.1 0-18.1.9-26.7 2.7-.5.1-1.1-.2-1.2-.8-.1-.5.2-1.1.8-1.2 8.8-1.8 17.9-2.7 27.1-2.7 26.4 0 51.7 7.6 69.3 21 2.3 1.8 4.5 3.6 6.5 5.5 11.4 10.8 17.5 23.6 17.5 37 0 2.2-.2 4.3-.5 6.5-.8 5.2-2.5 10.4-5.1 15.3-2.9 5.4-6.9 10.5-11.9 15.3-17 16.1-43.5 25.8-72.7 26.4h-3.1c-2 0-3.9 0-5.8-.1-4.1-.2-8.3-.5-12.4-1.1l-42.1 30.1c-.2.3-.4.3-.6.3z" class="st1"/><path d="M131.3 155.4c-10.1 2.7-21.2 4.2-32.8 4.2-6 0-12-.4-17.8-1.2l-2-.3-35.5 25.4 2.3-35.7-2.8-1.5c-20-11-31.5-27.1-31.5-44.1 0-31.7 39.2-57.5 87.3-57.5 48.2 0 87.3 25.8 87.3 57.5 0 21.8-18.6 40.9-45.9 50.6l-8.6 2.6z" class="st2"/><path d="M40.3 183.9c-.1 0-.2 0-.2-.1-.2-.1-.3-.3-.3-.5L42 148l-2.5-1.4C19.3 135.5 7.7 119.2 7.7 102c0-32 39.4-58 87.8-58s87.8 26 87.8 58c0 21.3-17.7 40.9-46.2 51.1-.3.1-.5 0-.6-.3-.1-.3 0-.5.3-.6 28.1-10 45.5-29.2 45.5-50.1 0-31.4-39-57-86.8-57-47.9 0-86.8 25.6-86.8 57 0 16.8 11.4 32.8 31.3 43.7l2.8 1.5c.2.1.3.3.3.5l-2.2 34.7 34.7-24.7c.1-.1.2-.1.4-.1l2 .3c5.8.8 11.8 1.2 17.7 1.2 11.3 0 22.3-1.4 32.6-4.2.3-.1.5.1.6.4.1.3-.1.5-.4.6-10.5 2.8-21.5 4.2-32.9 4.2-6 0-12-.4-17.9-1.2l-1.8-.2L40.5 184c0-.1-.1-.1-.2-.1z" class="st1"/><path d="M137 88.7h-11.2c-.6 0-1-.4-1-1s.4-1 1-1H137c.6 0 1 .4 1 1s-.4 1-1 1zM118.3 88.7H54.1c-.6 0-1-.4-1-1s.4-1 1-1h64.2c.6 0 1 .4 1 1s-.5 1-1 1zM141.3 103.7H49.8c-.6 0-1-.4-1-1s.4-1 1-1h91.5c.6 0 1 .4 1 1s-.4 1-1 1zM132.7 118.7H87c-.6 0-1-.4-1-1s.4-1 1-1h45.7c.6 0 1 .4 1 1s-.4 1-1 1zM81.5 118.7H58.4c-.6 0-1-.4-1-1s.4-1 1-1h23.2c.6 0 1 .4 1 1s-.5 1-1.1 1z" class="st1"/><path d="M238.8 91.8c8.9 9.6 14 20.9 14 33.1 0 19.6-13.3 37.1-34.1 48.5l.9 14 1.9 29.1-23.7-16.9-18.8-13.4c-6 .8-12.1 1.3-18.5 1.3-27.3 0-51.8-8-68.7-20.8 1.9.1 3.8.1 5.8.1h3.1c49.6-1.1 89.2-28.7 89.2-62.5 0-13.5-6.4-26.1-17.2-36.3-2-1.9-4.1-3.7-6.4-5.4 27.2 1.1 51.2 10.2 67 23.9l5.5 5.3z" class="st2"/><path d="M219.5 215.3c-.2 0-.4-.1-.6-.2L176.7 185c-6 .8-12.1 1.2-18.2 1.2-26.4 0-51.6-7.6-69.3-21-.4-.3-.5-.7-.3-1.1s.6-.7 1-.7c1.8.1 3.7.1 5.7.1h3.1c23.8-.5 46.1-7.2 62.7-18.8C177.9 133.2 187 118 187 102c0-12.8-5.8-25.1-16.9-35.6-1.9-1.8-4.1-3.6-6.4-5.4-.3-.3-.5-.7-.3-1.1.1-.4.5-.7 1-.7 26.5 1.1 51.1 9.9 67.6 24.1.4.4.5 1 .1 1.4-.4.4-1 .5-1.4.1-15.5-13.4-38.4-21.8-63.2-23.5 1.4 1.2 2.8 2.3 4 3.5 11.4 10.8 17.5 23.6 17.5 37 0 16.7-9.4 32.4-26.5 44.3-16.9 11.8-39.6 18.6-63.8 19.1-1.9.1-3.8.1-5.6 0 17.2 11.9 40.8 18.7 65.5 18.7 6.2 0 12.4-.4 18.3-1.2.3 0 .5 0 .7.2l40.8 29.1-2.6-41c0-.4.2-.8.5-.9 21.4-11.7 33.6-29.1 33.6-47.6 0-11.5-4.7-22.7-13.7-32.4-.4-.4-.3-1 .1-1.4.4-.4 1-.4 1.4.1 9.3 10.1 14.3 21.8 14.3 33.8 0 19.1-12.4 37-34.1 49.1l2.7 42.4c0 .4-.2.8-.5.9-.3.2-.5.3-.6.3z" class="st1"/><path d="M193.8 189.8l-15.5-11.1-2 .3c-5.8.8-11.8 1.2-17.8 1.2-23.2 0-44.2-6-59.9-15.7 49.6-1.1 89.2-28.7 89.2-62.5 0-13.5-6.4-26.1-17.2-36.3 42.4 3.9 75.1 28 75.1 56.9 0 17-11.5 33.1-31.5 44.1l-2.8 1.5 2.3 35.7-13.1-9.3-6.8-4.8z" class="st0"/><path d="M213.8 204.6c-.1 0-.2 0-.3-.1l-13.1-9.3c-.2-.2-.3-.5-.1-.7.2-.2.5-.3.7-.1l12.2 8.7-2.2-34.7c0-.2.1-.4.3-.5l2.8-1.5c19.9-10.9 31.3-26.9 31.3-43.7 0-27.9-31.4-52-73.2-56.3 10.7 10.5 16.3 22.8 16.3 35.7 0 16.5-9.3 32.1-26.2 43.9-16.4 11.5-38.3 18.2-61.8 19 16 9.5 36.6 14.7 58.2 14.7 5.9 0 11.9-.4 17.7-1.2l2-.3c.1 0 .3 0 .4.1l15.5 11.1c.2.2.3.5.1.7-.2.2-.5.3-.7.1l-15.3-11-1.8.2c-5.9.8-11.9 1.2-17.9 1.2-22.4 0-43.8-5.6-60.1-15.8-.2-.1-.3-.3-.2-.6.1-.2.3-.4.5-.4 23.9-.5 46.3-7.2 62.9-18.9 16.7-11.6 25.8-26.9 25.8-43.1 0-13-5.9-25.4-17-35.9-.2-.1-.2-.4-.1-.6.1-.2.3-.3.5-.3 43.1 4 75.6 28.7 75.6 57.4 0 17.2-11.6 33.5-31.8 44.6l-2.5 1.4 2.2 35.4c0 .2-.1.4-.3.5-.2.3-.3.3-.4.3z" class="st1"/><path d="M200 109.4h-12.4c-.6 0-1-.4-1-1s.4-1 1-1H200c.6 0 1 .4 1 1s-.5 1-1 1zM204.3 124.4h-21.8c-.6 0-1-.4-1-1s.4-1 1-1h21.8c.6 0 1 .4 1 1s-.5 1-1 1z" class="st1"/><g><path d="M195.7 139.4h-24.8c-.6 0-1-.4-1-1s.4-1 1-1h24.8c.6 0 1 .4 1 1s-.4 1-1 1z" class="st1"/></g></svg>