<svg xmlns="http://www.w3.org/2000/svg" id="Layer_1" x="0" y="0" version="1.1" viewBox="0 0 256 256" xml:space="preserve"><style>.st0{fill:#dbfdff}.st1{fill:#ff8584}.st2{fill:#fff}.st3{fill:#48386a}.st4{fill:#9feaff}.st5{fill:#febe7f}</style><path d="M234.2 104.6c5.7-8.2 9-18.1 9-28.8 0-27.9-22.6-50.5-50.5-50.5-9 0-17.4 2.3-24.7 6.4-9.2-12.9-24.2-21.4-41.3-21.4-17.4 0-32.8 8.8-41.8 22.2-7.6-4.6-16.6-7.3-26.1-7.3C31 25.3 8.4 47.9 8.4 75.8c0 15.2 6.8 28.9 17.4 38.2 0 11.1 3.6 21.3 9.6 29.6-13.5 9.1-22.4 24.5-22.4 42 0 27.9 22.6 50.5 50.5 50.5 10.2 0 19.8-3.1 27.7-8.3 9.2 9.7 22.2 15.7 36.6 15.7 12.2 0 23.4-4.3 32.2-11.6 8.3 6 18.5 9.6 29.6 9.6 27.9 0 50.5-22.6 50.5-50.5 0-11.3-3.7-21.7-9.9-30.1 6.7-8.6 10.8-19.4 10.8-31.2 0-9.1-2.5-17.6-6.8-25.1z" class="st0"/><path d="M134.3 20.4v15.1c-1.5-.1-3.1-.1-4.6-.1-1.6 0-3.1 0-4.6.1V20.4h9.2z" class="st1"/><path d="M214.6 86.1c8.8 15.1 13.9 32.7 13.9 51.5 0 38.1-20.9 71.4-51.8 88.9-4.8 2.7-9.9 5.1-15.2 7-11 4-22.9 6.2-35.3 6.2-12.4 0-24.3-2.2-35.3-6.2-5.3-1.9-10.3-4.3-15.2-7C44.8 209 24 175.7 24 137.6 24 81.1 69.7 35.4 126.2 35.4c33.6 0 63.4 16.2 82 41.2l6.4 9.5z" class="st2"/><path d="M188.8 38.4l-7.5 13.1c-2.6-1.7-5.3-3.2-8-4.6l7.5-13.1 8 4.6zM79.2 46.8c-2.8 1.4-5.4 3-8 4.6l-7.5-13.1 8-4.6 7.5 13.1zM136.9 20.4h-21.3c-3.2 0-5.8-2.6-5.8-5.8v-1.3c0-3.2 2.6-5.8 5.8-5.8h21.3c3.2 0 5.8 2.6 5.8 5.8v1.3c0 3.1-2.6 5.8-5.8 5.8z" class="st2"/><path d="M71.7 247.4l-5.6 4c-1.4 1-3.2.8-4.4-.4-.7-.7-1-1.5-1-2.4 0-.7.2-1.4.6-2l14.4-20c4.8 2.7 9.9 5.1 15.2 7l-12.1 8.7-7.1 5.1zM191.7 248.6c0 .9-.3 1.8-1 2.4-1.2 1.2-3.1 1.3-4.4.4l-24.7-17.8c5.3-1.9 10.3-4.3 15.2-7l14.4 20c.3.6.5 1.3.5 2z" class="st0"/><path d="M219.6 86.1c8.8 15.1 13.9 32.7 13.9 51.5 0 38.1-20.9 71.4-51.8 88.9-4.8 2.7-9.9 5.1-15.2 7-11 4-22.9 6.2-35.3 6.2-12.4 0-24.3-2.2-35.3-6.2-5.3-1.9-10.3-4.3-15.2-7C49.8 209 29 175.7 29 137.6 29 81.1 74.7 35.4 131.2 35.4c33.6 0 63.4 16.2 82 41.2l6.4 9.5z" class="st1"/><path d="M155.1 58.1c32.5 11.8 55.6 42.9 55.6 79.5 0 46.7-37.8 84.5-84.5 84.5s-84.5-37.8-84.5-84.5 37.8-84.5 84.5-84.5c6.7 0 13.1.8 19.3 2.2l9.6 2.8z" class="st2"/><path d="M126.2 223.1c-47.2 0-85.5-38.4-85.5-85.5 0-47.2 38.4-85.5 85.5-85.5 6.6 0 13.2.8 19.6 2.2.5.1.9.7.7 1.2-.1.5-.7.9-1.2.7-6.2-1.5-12.7-2.2-19.1-2.2-46.1 0-83.5 37.5-83.5 83.5S80.2 221 126.2 221s83.5-37.5 83.5-83.5c0-35-22.1-66.6-55-78.5-.5-.2-.8-.8-.6-1.3.2-.5.8-.8 1.3-.6 33.7 12.2 56.3 44.6 56.3 80.4 0 47.3-38.3 85.6-85.5 85.6z" class="st3"/><path d="M126.2 150.1c-.6 0-1-.4-1-1s.4-1 1-1c1.2 0 2.3-.2 3.3-.5 4.3-1.4 7.2-5.4 7.2-10s-2.9-8.6-7.2-10c-2.1-.7-4.5-.7-6.6 0-4.3 1.4-7.2 5.4-7.2 10 0 3.6 1.8 6.9 4.8 8.8.5.3.6.9.3 1.4-.3.5-.9.6-1.4.3-3.6-2.3-5.7-6.3-5.7-10.5 0-5.4 3.5-10.2 8.6-11.9 2.5-.8 5.4-.8 7.9 0 5.1 1.7 8.6 6.5 8.6 11.9s-3.5 10.2-8.6 11.9c-1.3.4-2.6.6-4 .6z" class="st3"/><circle cx="128.7" cy="138.6" r="6.3" class="st4"/><path d="M164.4 123.7l17.4-5.4c1.9-.6 3.9.5 4.5 2.4.3 1 .2 1.9-.2 2.8-.4.8-1.2 1.5-2.1 1.8l-43.7 13.6c0-1.2-.1-2.4-.5-3.6-.4-1.2-.9-2.3-1.6-3.3l18.1-5.6 8.1-2.7zM117 137.8l-26.6-10.5-9-7.5 11.6.7 26.8 10.6z" class="st4"/><path d="M126.2 144.4c-3.7 0-6.8-3-6.8-6.8s3-6.8 6.8-6.8 6.8 3 6.8 6.8-3.1 6.8-6.8 6.8zm0-12.6c-3.2 0-5.8 2.6-5.8 5.8s2.6 5.8 5.8 5.8 5.8-2.6 5.8-5.8-2.6-5.8-5.8-5.8z" class="st3"/><path d="M126.2 231.4c-51.7 0-93.8-42.1-93.8-93.9 0-21.6 7.5-42.8 21.2-59.5.2-.2.5-.2.7-.1.2.2.2.5.1.7-13.6 16.5-21 37.4-21 58.8 0 51.2 41.7 92.9 92.8 92.9s92.8-41.7 92.8-92.9-41.7-92.8-92.8-92.8c-24.6 0-47.7 9.5-65.2 26.8-.2.2-.5.2-.7 0-.2-.2-.2-.5 0-.7 17.7-17.4 41.1-27.1 65.9-27.1 51.7 0 93.8 42.1 93.8 93.8s-42 94-93.8 94z" class="st3"/><path d="M126.2 240.8c-12.3 0-24.2-2.1-35.6-6.3-5.3-2-10.5-4.4-15.3-7.1C43 209.1 23 174.7 23 137.6 23 80.7 69.3 34.4 126.2 34.4c32.9 0 63.1 15.1 82.8 41.6.3.4.2 1.1-.2 1.4-.4.3-1.1.2-1.4-.2-19.3-25.9-48.9-40.8-81.2-40.8C70.4 36.4 25 81.8 25 137.6c0 36.4 19.7 70.1 51.3 88.1 4.8 2.7 9.8 5.1 15 7 11.2 4.1 22.9 6.2 34.9 6.2s23.7-2.1 34.9-6.2c5.2-1.9 10.2-4.3 15-7 31.6-18 51.3-51.7 51.3-88.1 0-17.9-4.8-35.6-13.7-51-.3-.5-.1-1.1.4-1.4.5-.3 1.1-.1 1.4.4 9.2 15.7 14 33.7 14 52 0 37.1-20 71.5-52.3 89.8-4.9 2.8-10 5.2-15.3 7.1-11.5 4.2-23.5 6.3-35.7 6.3z" class="st3"/><path d="M126.2 240.8c-12.3 0-24.2-2.1-35.6-6.3-5.3-2-10.5-4.4-15.3-7.1C43 209.1 23 174.7 23 137.6 23 80.7 69.3 34.4 126.2 34.4c32.9 0 63.1 15.1 82.8 41.6.3.4.2 1.1-.2 1.4-.4.3-1.1.2-1.4-.2-19.3-25.9-48.9-40.8-81.2-40.8C70.4 36.4 25 81.8 25 137.6c0 36.4 19.7 70.1 51.3 88.1 4.8 2.7 9.8 5.1 15 7 11.2 4.1 22.9 6.2 34.9 6.2s23.7-2.1 34.9-6.2c5.2-1.9 10.2-4.3 15-7 31.6-18 51.3-51.7 51.3-88.1 0-17.9-4.8-35.6-13.7-51-.3-.5-.1-1.1.4-1.4.5-.3 1.1-.1 1.4.4 9.2 15.7 14 33.7 14 52 0 37.1-20 71.5-52.3 89.8-4.9 2.8-10 5.2-15.3 7.1-11.5 4.2-23.5 6.3-35.7 6.3z" class="st3"/><path d="M181.3 52.5c-.2 0-.4-.1-.5-.2-2.6-1.7-5.3-3.2-8-4.6-.2-.1-.4-.3-.5-.6-.1-.3 0-.5.1-.8l7.5-13.1c.3-.5.9-.6 1.4-.4l8 4.6c.2.1.4.4.5.6.1.3 0 .5-.1.8L182.2 52c-.1.2-.4.4-.6.5-.1-.1-.2 0-.3 0zm-6.7-6.1c2.1 1.1 4.2 2.4 6.3 3.6l6.5-11.3-6.3-3.6-6.5 11.3z" class="st3"/><path d="M207.1 46.9l8.9 5.2c8.9-15.3 3.6-34.9-11.7-43.8S169.4 4.7 160.6 20l40.7 23.5 5.8 3.4zM72.1 4C66.3 3.8 60.4 5.2 55 8.3c-15.3 8.9-20.6 28.5-11.7 43.8L98.8 20C94.9 13.3 89 8.5 82.3 6L72.1 4z" class="st5"/><path d="M212.6 53.1c-.2 0-.3 0-.5-.1l-8.9-5.2c-.5-.3-.6-.9-.4-1.4s.9-.6 1.4-.4l8.1 4.7c3.7-7 4.7-15 2.6-22.7-2.1-8-7.3-14.7-14.5-18.9-14.5-8.4-33.1-3.7-41.9 10.5l39.8 23c.5.3.6.9.4 1.4-.3.5-.9.6-1.4.4l-40.7-23.5c-.2-.1-.4-.4-.5-.6s0-.5.1-.8c9.1-15.8 29.4-21.2 45.2-12.1 7.6 4.4 13.1 11.5 15.4 20.1 2.3 8.5 1.1 17.4-3.3 25.1-.2.3-.6.5-.9.5z" class="st3"/><path d="M187 32.7c-.1 0-.2 0-.3-.1L163.2 19c-.1-.1-.2-.2-.2-.3 0-.1 0-.3.1-.4 8.8-10.7 23.8-13.5 35.8-6.6.2.1.3.4.2.7-.1.2-.4.3-.7.2-11.4-6.6-25.7-4.1-34.2 5.8l23.1 13.3c.2.1.3.4.2.7-.1.2-.3.3-.5.3zM71.1 52.5h-.2c-.3-.1-.5-.2-.6-.5l-7.5-13.1c-.1-.2-.2-.5-.1-.8.1-.3.2-.5.5-.6l8-4.6c.5-.3 1.1-.1 1.4.4l7.4 13c.1.2.2.5.1.8-.1.3-.3.5-.5.6-2.7 1.4-5.4 2.9-8 4.6-.1.1-.3.2-.5.2zm-6.2-13.8L71.4 50c2.1-1.3 4.2-2.5 6.3-3.6l-6.5-11.3-6.3 3.6z" class="st3"/><path d="M39.8 53.1c-.3 0-.7-.2-.9-.5-4.4-7.6-5.6-16.6-3.3-25.1S43.4 11.8 51 7.4C56.4 4.3 62.5 2.8 68.7 3c.6 0 1 .5 1 1 0 .6-.5 1-1 1-5.8-.2-11.5 1.2-16.5 4.1C44.9 13.3 39.7 20 37.6 28c-2.1 7.7-1.1 15.7 2.6 22.7l53.8-31C90.4 13.9 84.9 9.4 78.5 7c-.5-.2-.8-.8-.6-1.3.2-.5.8-.8 1.3-.6 7.1 2.7 13.2 7.8 17 14.4.3.5.1 1.1-.4 1.4L40.3 53c-.1 0-.3.1-.5.1z" class="st3"/><path d="M41.8 46.3h-.2c-.1 0-.2-.2-.3-.3-4.9-12.9.2-27.4 12.2-34.3.2-.1.5-.1.7.2.1.2.1.5-.2.7-11.4 6.6-16.4 20.2-12 32.5l23.1-13.3c.2-.1.5-.1.7.2.1.2.1.5-.2.7L42 46.3h-.2zM130.8 36.5c-1.5-.1-3-.1-4.6-.1s-3.1 0-4.6.1c-.3 0-.5-.1-.7-.3-.2-.2-.3-.5-.3-.7V20.4c0-.6.4-1 1-1h9.3c.6 0 1 .4 1 1v15.1c0 .3-.1.5-.3.7-.2.2-.5.3-.8.3zm-8.2-15.1v13.1c2.3-.1 5-.1 7.3 0V21.4h-7.3z" class="st3"/><path d="M136.9 21.4h-21.3c-3.8 0-6.8-3.1-6.8-6.8v-1.3c0-3.8 3.1-6.8 6.8-6.8h21.3c3.8 0 6.8 3.1 6.8 6.8v1.3c0 3.7-3.1 6.8-6.8 6.8zm-21.4-13c-2.7 0-4.8 2.2-4.8 4.8v1.3c0 2.7 2.2 4.8 4.8 4.8h21.3c2.7 0 4.8-2.2 4.8-4.8v-1.3c0-2.7-2.2-4.8-4.8-4.8h-21.3z" class="st3"/><path d="M71.7 247.4l-5.6 4c-1.4 1-3.2.8-4.4-.4-.7-.7-1-1.5-1-2.4 0-.7.2-1.4.6-2l14.4-20c4.8 2.7 9.9 5.1 15.2 7l-12.1 8.7-7.1 5.1z" class="st0"/><path d="M64.2 253c-1.1 0-2.3-.4-3.1-1.3-.8-.8-1.3-2-1.3-3.1 0-.9.3-1.8.8-2.6L75 226c.3-.4.9-.5 1.3-.3 4.7 2.7 9.8 5.1 15 7 .3.1.6.4.6.8s-.1.7-.4.9l-12.1 8.7c-.5.3-1.1.2-1.4-.2-.3-.4-.2-1.1.2-1.4l10.5-7.6c-4.4-1.7-8.7-3.7-12.8-6L62 247.2c-.3.4-.5.9-.5 1.4 0 .6.3 1.3.7 1.7.9.9 2.2 1 3.1.3l5.6-4c.4-.3 1.1-.2 1.4.2.3.4.2 1.1-.2 1.4l-5.6 4c-.5.5-1.4.8-2.3.8z" class="st3"/><path d="M191.7 248.6c0 .9-.3 1.8-1 2.4-1.2 1.2-3.1 1.3-4.4.4l-24.7-17.8c5.3-1.9 10.3-4.3 15.2-7l14.4 20c.3.6.5 1.3.5 2z" class="st0"/><path d="M188.2 253c-.9 0-1.8-.3-2.6-.8l-24.7-17.8c-.3-.2-.5-.6-.4-.9 0-.4.3-.7.6-.8 5.2-1.9 10.2-4.3 15-7 .4-.3 1-.1 1.3.3l14.4 20c.5.8.8 1.6.8 2.6 0 1.2-.5 2.3-1.3 3.1-.8.9-1.9 1.3-3.1 1.3zm-24.6-19.1l23.2 16.7c1 .7 2.3.6 3.1-.3.5-.5.7-1.1.7-1.7 0-.5-.2-1-.5-1.4l-13.9-19.3c-3.9 2.2-8.2 4.2-12.6 6zM126.2 69.7c-.6 0-1-.4-1-1V53.1c0-.6.4-1 1-1s1 .4 1 1v15.6c0 .5-.4 1-1 1zM91.8 78.9c-.3 0-.7-.2-.9-.5l-7.8-13.5c-.3-.5-.1-1.1.4-1.4.5-.3 1.1-.1 1.4.4l7.8 13.5c.3.5.1 1.1-.4 1.4-.2.1-.4.1-.5.1zM66.5 104.1c-.2 0-.3 0-.5-.1l-13.5-7.8c-.5-.3-.6-.9-.4-1.4.3-.5.9-.6 1.4-.4l13.5 7.8c.5.3.6.9.4 1.4-.2.4-.5.5-.9.5zM57.3 138.6H41.7c-.6 0-1-.4-1-1s.4-1 1-1h15.6c.6 0 1 .4 1 1s-.4 1-1 1zM53 180.9c-.3 0-.7-.2-.9-.5-.3-.5-.1-1.1.4-1.4l13.5-7.8c.5-.3 1.1-.1 1.4.4.3.5.1 1.1-.4 1.4l-13.5 7.8c-.2 0-.3.1-.5.1zM83.9 211.8c-.2 0-.3 0-.5-.1-.5-.3-.6-.9-.4-1.4l7.8-13.5c.3-.5.9-.6 1.4-.4.5.3.6.9.4 1.4l-7.8 13.5c-.2.3-.5.5-.9.5zM126.2 223.1c-.6 0-1-.4-1-1v-15.6c0-.6.4-1 1-1s1 .4 1 1v15.6c0 .6-.4 1-1 1zM168.5 211.8c-.3 0-.7-.2-.9-.5l-7.8-13.5c-.3-.5-.1-1.1.4-1.4.5-.3 1.1-.1 1.4.4l7.8 13.5c.3.5.1 1.1-.4 1.4-.2.1-.4.1-.5.1zM199.4 180.9c-.2 0-.3 0-.5-.1l-13.5-7.8c-.5-.3-.6-.9-.4-1.4.3-.5.9-.6 1.4-.4l13.5 7.8c.5.3.6.9.4 1.4-.2.3-.5.5-.9.5zM210.7 138.6h-15.6c-.6 0-1-.4-1-1s.4-1 1-1h15.6c.6 0 1 .4 1 1s-.4 1-1 1zM185.9 104.1c-.3 0-.7-.2-.9-.5-.3-.5-.1-1.1.4-1.4l13.5-7.8c.5-.3 1.1-.1 1.4.4.3.5.1 1.1-.4 1.4l-13.5 7.8c-.2.1-.4.1-.5.1z" class="st3"/><g><path d="M160.7 78.9c-.2 0-.3 0-.5-.1-.5-.3-.6-.9-.4-1.4l7.8-13.5c.3-.5.9-.6 1.4-.4.5.3.6.9.4 1.4l-7.8 13.5c-.3.3-.6.5-.9.5z" class="st3"/></g><g><path d="M137.7 138.8c-.2 0-.4-.1-.6-.2-.3-.2-.4-.5-.4-.8 0-1.1-.1-2.2-.5-3.3-.3-1.1-.8-2.1-1.5-3-.2-.3-.2-.6-.1-.9.1-.3.3-.5.7-.6l18.1-5.6c.5-.2 1.1.1 1.3.7.2.5-.1 1.1-.7 1.3l-16.8 5.2c.4.8.8 1.6 1 2.4.3.9.4 1.7.5 2.6l42.4-13.2c.7-.2 1.2-.7 1.6-1.3.3-.6.4-1.3.2-2s-.7-1.2-1.3-1.5c-.6-.3-1.3-.4-2-.2l-17.4 5.4c-.5.2-1.1-.1-1.3-.7s.1-1.1.7-1.3l17.4-5.4c1.2-.4 2.4-.3 3.5.3s1.9 1.5 2.3 2.7c.4 1.2.3 2.4-.3 3.5s-1.6 1.9-2.7 2.3L138 138.8h-.3z" class="st3"/></g><g><path d="M114.5 137.8c-.1 0-.2 0-.4-.1l-26.6-10.6c-.1 0-.2-.1-.3-.2l-9-7.5c-.3-.3-.5-.7-.3-1.1.2-.4.6-.7 1-.6l11.7.7c.1 0 .2 0 .3.1l26.7 10.6c.5.2.8.8.6 1.3-.2.5-.8.8-1.3.6l-26.6-10.6-8.4-.5 6.5 5.4 26.5 10.5c.5.2.8.8.6 1.3-.2.5-.6.7-1 .7z" class="st3"/></g><g><path d="M41.7 219.8c-1.6 0-3-1.3-3-3s1.3-3 3-3 3 1.3 3 3-1.4 3-3 3zm0-5c-1.1 0-2 .9-2 2s.9 2 2 2 2-.9 2-2-.9-2-2-2z" class="st3"/></g><g><path d="M220.4 217.3c-1.6 0-3-1.3-3-3s1.3-3 3-3 3 1.3 3 3-1.4 3-3 3zm0-5c-1.1 0-2 .9-2 2s.9 2 2 2 2-.9 2-2-.9-2-2-2z" class="st1"/></g><g><path d="M222.8 68.2c-.1 0-.3-.1-.4-.1-.1-.1-.2-.3-.1-.5l.8-2.6-.8-2.6c-.1-.2 0-.4.1-.5.1-.1.3-.2.5-.1l2.6.8 2.6-.8c.2-.1.4 0 .5.1s.2.3.1.5L228 65l.8 2.6c.1.2 0 .4-.1.5-.1.1-.3.2-.5.1l-1-.3c-.3-.1-.4-.4-.3-.6.1-.3.4-.4.6-.3h.1l-.5-1.8v-.3l.5-1.8-1.8.5h-.3l-1.8-.5.5 1.8v.3l-.5 1.8 1.8-.5c.3-.1.5.1.6.3.1.3-.1.5-.3.6l-2.7.8h-.3z" class="st3"/></g><g><path d="M200.2 234.2c-.1 0-.3-.1-.4-.1-.1-.1-.2-.3-.1-.5l.8-2.6-.8-2.6c-.1-.2 0-.4.1-.5.1-.1.3-.2.5-.1l2.6.8 2.6-.8c.2-.1.4 0 .5.1.1.1.2.3.1.5l-.8 2.6.8 2.6c.1.2 0 .4-.1.5s-.3.2-.5.1l-1-.3c-.3-.1-.4-.4-.3-.6.1-.3.3-.4.6-.3h.1l-.5-1.8v-.3l.5-1.8-1.8.5h-.3l-1.8-.5.5 1.8v.3l-.5 1.8 1.8-.5c.3-.1.5.1.6.3.1.3-.1.5-.3.6l-2.7.8h-.2z" class="st5"/></g><g><path d="M21 181c-.3 0-.5-.2-.5-.5v-2.4c0-.3.2-.5.5-.5s.5.2.5.5v2.4c0 .3-.3.5-.5.5zM21 186.9c-.3 0-.5-.2-.5-.5V184c0-.3.2-.5.5-.5s.5.2.5.5v2.4c0 .2-.3.5-.5.5zM25.1 182.7h-2.4c-.3 0-.5-.2-.5-.5s.2-.5.5-.5h2.4c.3 0 .5.2.5.5s-.2.5-.5.5zM19.2 182.7h-2.4c-.3 0-.5-.2-.5-.5s.2-.5.5-.5h2.4c.3 0 .5.2.5.5s-.2.5-.5.5z" class="st1"/></g><g><path d="M29 59.7c-.3 0-.5-.2-.5-.5v-2.4c0-.3.2-.5.5-.5s.5.2.5.5v2.4c0 .2-.3.5-.5.5zM29 65.5c-.3 0-.5-.2-.5-.5v-2.4c0-.3.2-.5.5-.5s.5.2.5.5V65c0 .3-.3.5-.5.5zM33.1 61.4h-2.4c-.3 0-.5-.2-.5-.5s.2-.5.5-.5h2.4c.3 0 .5.2.5.5s-.2.5-.5.5zM27.3 61.4h-2.4c-.3 0-.5-.2-.5-.5s.2-.5.5-.5h2.4c.3 0 .5.2.5.5s-.3.5-.5.5z" class="st5"/></g><g><path d="M228.4 189.9c-.3 0-.5-.2-.5-.5V187c0-.3.2-.5.5-.5s.5.2.5.5v2.4c0 .2-.2.5-.5.5zM228.4 195.7c-.3 0-.5-.2-.5-.5v-2.4c0-.3.2-.5.5-.5s.5.2.5.5v2.4c0 .3-.2.5-.5.5zM232.6 191.6h-2.4c-.3 0-.5-.2-.5-.5s.2-.5.5-.5h2.4c.3 0 .5.2.5.5s-.2.5-.5.5zM226.7 191.6h-2.4c-.3 0-.5-.2-.5-.5s.2-.5.5-.5h2.4c.3 0 .5.2.5.5s-.2.5-.5.5z" class="st4"/></g></svg>