<?xml version="1.0" encoding="utf-8"?>
<!-- Generator: Adobe Illustrator 22.1.0, SVG Export Plug-In . SVG Version: 6.00 Build 0)  -->
<svg version="1.1" id="Layer_1" xmlns="http://www.w3.org/2000/svg" xmlns:xlink="http://www.w3.org/1999/xlink" x="0px" y="0px"
	 viewBox="0 0 256 256" style="enable-background:new 0 0 256 256;" xml:space="preserve">
<style type="text/css">
	.st0{fill:#DBFDFF;}
	.st1{fill:#FF8584;}
	.st2{fill:#FFFFFF;}
	.st3{fill:#48386A;}
	.st4{fill:#9FEAFF;}
	.st5{fill:#FEBE7F;}
</style>
<g>
	<path class="st0" d="M228.1,83.2c1-3.9,1.5-8.1,1.5-12.3c0-27.9-22.6-50.5-50.5-50.5c-16,0-30.2,7.4-39.4,19
		c-8.5-6.9-19.3-11.1-31-11.2c-9.2-9.9-22.3-16-36.9-16c-27.9,0-50.5,22.6-50.5,50.5c0,0,0,0.1,0,0.1c-4.8,7.7-7.6,16.9-7.6,26.6
		c0,27.9,22.6,50.5,50.5,50.5c6.6,0,13-1.3,18.8-3.6c-0.2,1.8-0.3,3.6-0.3,5.4c0,27.9,22.6,50.5,50.5,50.5
		c18.7,0,34.9-10.1,43.7-25.2c4.9,1.6,10.1,2.5,15.6,2.5c27.9,0,50.5-22.6,50.5-50.5C242.9,104.9,237.2,92.3,228.1,83.2z"/>
	<g>
		<path class="st1" d="M54.7,87.1l-8.4,31.5h-6.1c-8.5,0-15.4-6.9-15.4-15.4v-0.7c0-0.5,0-1.1,0.1-1.6c0.8-7.7,7.3-13.8,15.3-13.8
			H54.7z"/>
		<g>
			<path class="st2" d="M159.5,252H40.9c-8.6,0-15.9-5.6-18.6-13.3c-0.1-0.2-0.2-0.5-0.2-0.7c-0.5-1.8-0.8-3.7-0.8-5.6V103.2
				c0,8.5,6.9,15.4,15.4,15.4H213c8.4,0,15.6,5.3,18.3,12.7c0.8,2.1,1.2,4.5,1.2,6.9v94.2c0,1.9-0.3,3.8-0.8,5.6
				c-0.1,0.2-0.1,0.5-0.2,0.7c-2.6,7.7-9.9,13.3-18.6,13.3h-33.6H159.5z"/>
			<path class="st3" d="M213,253h-33.6c-0.6,0-1-0.4-1-1s0.4-1,1-1H213c8,0,15.1-5.1,17.6-12.6c0.1-0.2,0.1-0.4,0.2-0.7
				c0.5-1.7,0.8-3.5,0.8-5.3v-94.2c0-2.3-0.4-4.5-1.2-6.5c-2.7-7.2-9.7-12.1-17.4-12.1H36.7c-6.2,0-11.6-3.5-14.4-8.5v121.3
				c0,1.8,0.3,3.6,0.8,5.3c0.1,0.2,0.1,0.4,0.2,0.7c2.6,7.6,9.6,12.6,17.6,12.6h118.6c0.6,0,1,0.4,1,1s-0.4,1-1,1H40.9
				c-8.8,0-16.7-5.6-19.5-14c-0.1-0.2-0.2-0.5-0.2-0.7c-0.6-1.9-0.9-3.9-0.9-5.9V103.2c0-0.6,0.4-1,1-1s1,0.4,1,1
				c0,7.9,6.4,14.4,14.4,14.4H213c8.5,0,16.3,5.4,19.3,13.4c0.9,2.3,1.3,4.7,1.3,7.2v94.2c0,2-0.3,4-0.9,5.9
				c-0.1,0.3-0.1,0.5-0.2,0.7C229.7,247.4,221.9,253,213,253z"/>
		</g>
		<path class="st1" d="M114.4,233.5H24.3v-96.9h211.3c0.1,0.5,0.1,1.1,0.1,1.6v95.3H132.5H114.4z"/>
		<g>
			<polygon class="st2" points="196.9,15.9 222.6,22.8 196.9,118.6 121.8,118.6 124.3,109.2 138.8,55 147.3,23.3 149.8,13.9 
				152.5,4 188.1,13.5 			"/>
			<path class="st3" d="M196.9,119.6h-75.1c-0.3,0-0.6-0.1-0.8-0.4c-0.2-0.2-0.3-0.6-0.2-0.9L151.5,3.7c0.1-0.5,0.7-0.9,1.2-0.7
				l35.6,9.5c0.5,0.1,0.8,0.7,0.7,1.2s-0.7,0.9-1.2,0.7l-34.6-9.3l-30.1,112.4h73l25.2-94.1l-24.7-6.6c-0.5-0.1-0.8-0.7-0.7-1.2
				s0.7-0.8,1.2-0.7l25.7,6.9c0.5,0.1,0.8,0.7,0.7,1.2l-25.7,95.8C197.7,119.3,197.3,119.6,196.9,119.6z"/>
		</g>
		<g>
			<polygon class="st2" points="149.8,13.9 147.3,23.3 138.8,55 124.3,109.2 121.8,118.6 82.3,118.6 84.8,109.2 99.3,55 107.8,23.3 
				110.4,13.9 113,4 			"/>
			<path class="st3" d="M121.8,119.6H82.3c-0.3,0-0.6-0.1-0.8-0.4c-0.2-0.2-0.3-0.6-0.2-0.9L112,3.7c0.1-0.5,0.7-0.9,1.2-0.7
				l36.8,9.9c0.3,0.1,0.5,0.2,0.6,0.5s0.2,0.5,0.1,0.8l-28.1,104.7C122.6,119.3,122.2,119.6,121.8,119.6z M83.6,117.6H121l27.6-103
				l-34.9-9.3L83.6,117.6z"/>
		</g>
		<g>
			<polygon class="st2" points="62.9,43.7 73.5,4 110.4,13.9 107.8,23.3 99.3,55 84.8,109.2 82.3,118.6 42.8,118.6 53.6,78.5 
				60.7,51.9 			"/>
			<path class="st3" d="M82.3,119.6H42.8c-0.3,0-0.6-0.1-0.8-0.4c-0.2-0.2-0.3-0.6-0.2-0.9l17.9-66.6c0.1-0.5,0.7-0.8,1.2-0.7
				c0.5,0.1,0.8,0.7,0.7,1.2l-17.5,65.4h37.4l27.6-103L74.2,5.2L63.8,44c-0.1,0.5-0.7,0.9-1.2,0.7c-0.5-0.1-0.8-0.7-0.7-1.2
				L72.5,3.7c0.1-0.5,0.7-0.9,1.2-0.7l36.8,9.9c0.3,0.1,0.5,0.2,0.6,0.5s0.2,0.5,0.1,0.8L83.2,118.8
				C83.1,119.3,82.7,119.6,82.3,119.6z"/>
		</g>
		<g>
			<path class="st3" d="M174.5,253h-4.4c-0.6,0-1-0.4-1-1s0.4-1,1-1h4.4c0.6,0,1,0.4,1,1S175,253,174.5,253z"/>
		</g>
		<g>
			<path class="st3" d="M213,253h-33.6c-0.6,0-1-0.4-1-1s0.4-1,1-1H213c8,0,15.1-5.1,17.6-12.6c0.1-0.2,0.1-0.4,0.2-0.7
				c0.5-1.7,0.8-3.5,0.8-5.3v-94.2c0-2.3-0.4-4.5-1.2-6.5c-2.7-7.2-9.7-12.1-17.4-12.1H36.7c-6.2,0-11.6-3.5-14.4-8.5v121.3
				c0,1.8,0.3,3.6,0.8,5.3c0.1,0.2,0.1,0.4,0.2,0.7c2.6,7.6,9.6,12.6,17.6,12.6h118.6c0.6,0,1,0.4,1,1s-0.4,1-1,1H40.9
				c-8.8,0-16.7-5.6-19.5-14c-0.1-0.2-0.2-0.5-0.2-0.7c-0.6-1.9-0.9-3.9-0.9-5.9V103.2c0-0.6,0.4-1,1-1s1,0.4,1,1
				c0,7.9,6.4,14.4,14.4,14.4H213c8.5,0,16.3,5.4,19.3,13.4c0.9,2.3,1.3,4.7,1.3,7.2v94.2c0,2-0.3,4-0.9,5.9
				c-0.1,0.3-0.1,0.5-0.2,0.7C229.7,247.4,221.9,253,213,253z"/>
		</g>
		<g>
			<path class="st3" d="M42.8,119.6h-6.1c-9,0-16.4-7.3-16.4-16.4v-0.7c0-0.6,0-1.1,0.1-1.7c0.9-8.4,7.9-14.7,16.3-14.7h14.6
				c0.3,0,0.6,0.1,0.8,0.4c0.2,0.2,0.3,0.6,0.2,0.9l-8.4,31.5C43.7,119.3,43.3,119.6,42.8,119.6z M36.7,88.1
				c-7.4,0-13.5,5.5-14.3,12.9c-0.1,0.5-0.1,1-0.1,1.5v0.7c0,7.9,6.4,14.4,14.4,14.4H42l7.9-29.5H36.7z"/>
		</g>
		<g>
			<path class="st3" d="M231.8,239.7H22.1c-0.4,0-0.8-0.3-1-0.7c-0.5-1.8-0.8-3.6-0.9-5.5V131.3c0-0.6,0.4-1,1-1H61c0.6,0,1,0.4,1,1
				s-0.4,1-1,1H22.3v101.2c0,1.4,0.2,2.9,0.6,4.3H231c0.4-1.4,0.5-2.8,0.6-4.3v-95.3c0-0.5,0-1.1-0.1-1.5c-0.1-1.5-0.4-3-0.9-4.4
				h-158c-0.6,0-1-0.4-1-1s0.4-1,1-1h158.7c0.4,0,0.8,0.3,0.9,0.6c0.7,1.8,1.1,3.6,1.2,5.5c0.1,0.5,0.1,1.1,0.1,1.7v95.3
				c0,1.9-0.3,3.7-0.9,5.5C232.6,239.4,232.3,239.7,231.8,239.7z"/>
		</g>
		<path class="st4" d="M169.3,195.4c-8.1,0-14.6-6.6-14.6-14.6c0-8.1,6.6-14.6,14.6-14.6h66.3v29.2H169.3z"/>
		<g>
			<path class="st0" d="M135.8,118.6l24-89.8c4.1-0.3,7.7-2.4,10-5.8l28.2,7.6c0.3,4,2.4,7.7,5.7,10l-20.9,78H135.8z"/>
			<g>
				<path class="st3" d="M182.9,119.1h-47.1c-0.2,0-0.3-0.1-0.4-0.2c-0.1-0.1-0.1-0.3-0.1-0.4l24-89.8c0.1-0.2,0.2-0.4,0.5-0.4
					c3.8-0.3,7.4-2.3,9.6-5.5c0.1-0.2,0.3-0.3,0.5-0.2l28.2,7.6c0.2,0.1,0.4,0.2,0.4,0.4c0.3,3.8,2.3,7.4,5.5,9.6
					c0.2,0.1,0.3,0.3,0.2,0.5l-20.9,78C183.3,118.9,183.1,119.1,182.9,119.1z M136.5,118.1h46l20.7-77.3c-3.2-2.3-5.3-5.9-5.6-9.8
					L170,23.6c-2.3,3.2-5.9,5.3-9.8,5.6L136.5,118.1z"/>
			</g>
		</g>
		<g>
			<path class="st0" d="M100.4,103.2l20-74.4c4.1-0.3,7.7-2.4,10-5.8l16.1,3.9l-24.6,91.6H96.2l1.7-6.5L100.4,103.2z"/>
			<g>
				<path class="st3" d="M121.8,119.1H96.2c-0.2,0-0.3-0.1-0.4-0.2c-0.1-0.1-0.1-0.3-0.1-0.4l1.7-6.5c0.1-0.3,0.3-0.4,0.6-0.4
					c0.3,0.1,0.4,0.3,0.4,0.6l-1.6,5.9h24.5l24.4-90.7l-15.2-3.7c-2.3,3.2-5.9,5.3-9.8,5.7l-19.9,74.1c-0.1,0.3-0.3,0.4-0.6,0.4
					c-0.3-0.1-0.4-0.3-0.4-0.6l20-74.4c0.1-0.2,0.2-0.4,0.5-0.4c3.8-0.3,7.4-2.3,9.6-5.5c0.1-0.2,0.3-0.3,0.5-0.2l16.1,3.9
					c0.1,0,0.2,0.1,0.3,0.2c0.1,0.1,0.1,0.3,0.1,0.4l-24.6,91.6C122.2,118.9,122,119.1,121.8,119.1z"/>
			</g>
		</g>
		<g>
			<path class="st0" d="M56.9,118.6l24-89.8c4.1-0.3,7.7-2.4,10-5.8l15.9,4.2l-24.5,91.3H56.9z"/>
			<g>
				<path class="st3" d="M82.3,119.1H56.9c-0.2,0-0.3-0.1-0.4-0.2s-0.1-0.3-0.1-0.4l24-89.8c0.1-0.2,0.2-0.4,0.5-0.4
					c3.8-0.3,7.4-2.3,9.6-5.5c0.1-0.2,0.3-0.3,0.5-0.2l15.9,4.2c0.1,0,0.2,0.1,0.3,0.2s0.1,0.3,0.1,0.4l-24.5,91.3
					C82.7,118.9,82.5,119.1,82.3,119.1z M57.6,118.1h24.3l24.3-90.5l-15.1-4c-2.3,3.2-5.9,5.3-9.8,5.6L57.6,118.1z"/>
			</g>
		</g>
		<path class="st4" d="M190.4,68.3c1.1,5.3,0.9,11.5-0.8,17.9c-4,15-15.1,25.2-24.7,22.6S150.9,92,154.9,76.9s15.1-25.2,24.7-22.6
			c2.8,0.8,5.2,2.5,7.1,5.1L190.4,68.3z"/>
		<path class="st5" d="M141.8,55l-14.5,54.2c-0.6-0.1-1.2-0.2-1.8-0.3c-9.6-2.6-14.1-16.8-10.1-31.9c4-15,15.1-25.2,24.7-22.6
			C140.7,54.5,141.3,54.7,141.8,55z"/>
		<path class="st1" d="M102.3,55l-14.5,54.2c-0.6-0.1-1.2-0.2-1.8-0.3c-9.6-2.6-14.1-16.8-10.1-31.9c4-15,15.1-25.2,24.7-22.6
			C101.2,54.5,101.8,54.7,102.3,55z"/>
		<path class="st1" d="M220.9,106.4v12.8c-1.6-0.4-3.2-0.6-4.9-0.6h-16.1l8.2-30.6c5.3,2,9.6,6.2,11.6,11.5
			C220.5,101.7,220.9,104,220.9,106.4z"/>
		<g>
			<path class="st3" d="M232.6,234H129.5c-0.3,0-0.5-0.2-0.5-0.5s0.2-0.5,0.5-0.5h102.7v-94.8c0-0.4,0-0.8,0-1.1H21.8V233h92.6
				c0.3,0,0.5,0.2,0.5,0.5s-0.2,0.5-0.5,0.5H21.3c-0.3,0-0.5-0.2-0.5-0.5v-96.9c0-0.3,0.2-0.5,0.5-0.5h211.3c0.3,0,0.5,0.2,0.5,0.5
				c0.1,0.5,0.1,1.1,0.1,1.7v95.3C233.1,233.7,232.9,234,232.6,234z"/>
		</g>
		<g>
			<path class="st2" d="M205.6,159.2h-39.3c-11.9,0-21.6,9.7-21.6,21.6v0c0,11.9,9.7,21.6,21.6,21.6h66.3v-43.2h-19.2H205.6z"/>
			<path class="st3" d="M232.6,203.4h-66.3c-12.5,0-22.6-10.1-22.6-22.6s10.1-22.6,22.6-22.6h39.3c0.6,0,1,0.4,1,1s-0.4,1-1,1h-39.3
				c-11.4,0-20.6,9.2-20.6,20.6c0,11.4,9.2,20.6,20.6,20.6h65.3v-41.2h-18.2c-0.6,0-1-0.4-1-1s0.4-1,1-1h19.2c0.6,0,1,0.4,1,1v43.2
				C233.6,202.9,233.2,203.4,232.6,203.4z"/>
		</g>
		<path class="st1" d="M169.8,195.4c-8.1,0-14.6-6.6-14.6-14.6c0-8.1,6.6-14.6,14.6-14.6h66.3v29.2H169.8z"/>
		<g>
			<path class="st3" d="M232.6,196.4h-66.3c-8.6,0-15.6-7-15.6-15.6c0-8.6,7-15.6,15.6-15.6h66.3c0.6,0,1,0.4,1,1v29.2
				C233.6,195.9,233.2,196.4,232.6,196.4z M166.3,167.2c-7.5,0-13.6,6.1-13.6,13.6s6.1,13.6,13.6,13.6h65.3v-27.2H166.3z"/>
		</g>
		<g>
			<path class="st2" d="M175,185c-1.7,3.1-5.1,5.2-8.9,5.2c-5.6,0-10.1-4.5-10.1-10.1s4.5-10.1,10.1-10.1s10.1,4.5,10.1,10.1
				L175,185z"/>
			<path class="st3" d="M166.1,190.7c-5.9,0-10.6-4.8-10.6-10.6s4.8-10.6,10.6-10.6s10.6,4.8,10.6,10.6c0,0.3-0.2,0.5-0.5,0.5
				s-0.5-0.2-0.5-0.5c0-5.3-4.3-9.6-9.6-9.6s-9.6,4.3-9.6,9.6c0,5.3,4.3,9.6,9.6,9.6c3.5,0,6.7-1.9,8.4-5c0.1-0.2,0.4-0.3,0.7-0.2
				c0.2,0.1,0.3,0.4,0.2,0.7C173.5,188.6,170,190.7,166.1,190.7z"/>
		</g>
		<g>
			<path class="st3" d="M196.9,119.6h-75.1c-0.3,0-0.6-0.1-0.8-0.4c-0.2-0.2-0.3-0.6-0.2-0.9L151.5,3.7c0.1-0.5,0.7-0.9,1.2-0.7
				l35.6,9.5c0.5,0.1,0.8,0.7,0.7,1.2s-0.7,0.9-1.2,0.7l-34.6-9.3l-30.1,112.4h73l25.2-94.1l-24.7-6.6c-0.5-0.1-0.8-0.7-0.7-1.2
				s0.7-0.8,1.2-0.7l25.7,6.9c0.5,0.1,0.8,0.7,0.7,1.2l-25.7,95.8C197.7,119.3,197.3,119.6,196.9,119.6z"/>
		</g>
		<g>
			<path class="st3" d="M187.2,119.6h-55.8c-0.3,0-0.6-0.1-0.8-0.4c-0.2-0.2-0.3-0.6-0.2-0.9l25.2-94.3c0.1-0.5,0.7-0.8,1.2-0.7
				c4.2,1.1,8.5-1.4,9.6-5.5c0.1-0.3,0.2-0.5,0.5-0.6c0.2-0.1,0.5-0.2,0.8-0.1l35,9.4c0.5,0.1,0.8,0.7,0.7,1.2
				c-1.1,4.2,1.4,8.5,5.5,9.6c0.5,0.1,0.8,0.7,0.7,1.2l-21.5,80.3C188.1,119.3,187.7,119.6,187.2,119.6z M132.7,117.6h53.7
				l21.1-78.6c-4.3-1.7-6.9-6.2-6.2-10.8l-33.2-8.9c-0.8,2.1-2.3,3.9-4.3,5c-2,1.1-4.3,1.6-6.5,1.2L132.7,117.6z"/>
		</g>
		<g>
			<path class="st3" d="M165,109.7c-1.1,0-2.2-0.1-3.2-0.4c-4.8-1.3-8.5-5.4-10.5-11.6c-1.9-6.1-1.9-13.5,0.1-20.9
				c4.1-15.3,15.4-25.6,25.3-22.9c2.8,0.8,5.4,2.6,7.4,5.3c0.2,0.2,0.1,0.5-0.1,0.7c-0.2,0.2-0.5,0.1-0.7-0.1
				c-1.9-2.5-4.2-4.2-6.8-4.9c-9.3-2.5-20.1,7.5-24.1,22.2c-1.9,7.2-2,14.4-0.1,20.3c1.8,5.9,5.3,9.7,9.8,10.9
				c4.5,1.2,9.4-0.4,14-4.6c4.6-4.2,8.2-10.5,10.1-17.7c1.6-6.1,1.9-12.2,0.8-17.7c-0.1-0.3,0.1-0.5,0.4-0.6
				c0.3-0.1,0.5,0.1,0.6,0.4c1.2,5.6,0.9,11.8-0.8,18.1c-2,7.4-5.7,13.8-10.4,18.1C173,107.9,168.9,109.7,165,109.7z"/>
		</g>
		<g>
			<path class="st3" d="M121.8,119.6H82.3c-0.3,0-0.6-0.1-0.8-0.4c-0.2-0.2-0.3-0.6-0.2-0.9L112,3.7c0.1-0.5,0.7-0.9,1.2-0.7
				l36.8,9.9c0.3,0.1,0.5,0.2,0.6,0.5s0.2,0.5,0.1,0.8l-28.1,104.7C122.6,119.3,122.2,119.6,121.8,119.6z M83.6,117.6H121l27.6-103
				l-34.9-9.3L83.6,117.6z"/>
		</g>
		<g>
			<path class="st3" d="M121.8,119.6H92c-0.3,0-0.6-0.1-0.8-0.4c-0.2-0.2-0.3-0.6-0.2-0.9l25.2-94.3c0.1-0.5,0.7-0.8,1.2-0.7
				c4.2,1.1,8.5-1.4,9.6-5.5c0.1-0.3,0.2-0.5,0.5-0.6c0.2-0.1,0.5-0.2,0.8-0.1l19.3,5.2c0.5,0.1,0.8,0.7,0.7,1.2l-25.6,95.3
				C122.6,119.3,122.2,119.6,121.8,119.6z M93.3,117.6H121L146.1,24l-17.4-4.7c-1.6,4.3-6.2,6.9-10.8,6.2L93.3,117.6z"/>
		</g>
		<g>
			<path class="st3" d="M124.3,109.7C124.3,109.7,124.3,109.7,124.3,109.7c-0.7-0.1-1.3-0.2-2-0.4c-3.4-0.9-6.4-3.3-8.5-7
				c-3.8-6.5-4.5-16-1.9-25.5c4.1-15.3,15.4-25.6,25.3-22.9c0.7,0.2,1.3,0.4,1.9,0.7c0.2,0.1,0.3,0.3,0.3,0.6l-14.5,54.2
				C124.7,109.5,124.5,109.7,124.3,109.7z M134,54.4c-8.5,0-17.6,9.4-21.1,22.6c-2.5,9.2-1.8,18.5,1.8,24.8c2,3.4,4.7,5.7,7.9,6.5
				c0.4,0.1,0.9,0.2,1.3,0.3l14.3-53.3c-0.4-0.2-0.9-0.3-1.3-0.4C136,54.6,135,54.4,134,54.4z"/>
		</g>
		<g>
			<path class="st3" d="M82.3,119.6H42.8c-0.3,0-0.6-0.1-0.8-0.4c-0.2-0.2-0.3-0.6-0.2-0.9l17.9-66.6c0.1-0.5,0.7-0.8,1.2-0.7
				c0.5,0.1,0.8,0.7,0.7,1.2l-17.5,65.4h37.4l27.6-103L74.2,5.2L63.8,44c-0.1,0.5-0.7,0.9-1.2,0.7c-0.5-0.1-0.8-0.7-0.7-1.2
				L72.5,3.7c0.1-0.5,0.7-0.9,1.2-0.7l36.8,9.9c0.3,0.1,0.5,0.2,0.6,0.5s0.2,0.5,0.1,0.8L83.2,118.8
				C83.1,119.3,82.7,119.6,82.3,119.6z"/>
		</g>
		<g>
			<path class="st3" d="M82.3,119.6H52.5c-0.3,0-0.6-0.1-0.8-0.4c-0.2-0.2-0.3-0.6-0.2-0.9l25.2-94.3c0.1-0.5,0.7-0.8,1.2-0.7
				c4.2,1.1,8.5-1.4,9.6-5.5c0.1-0.3,0.2-0.5,0.5-0.6c0.2-0.1,0.5-0.2,0.8-0.1l19.3,5.2c0.5,0.1,0.8,0.7,0.7,1.2l-25.6,95.3
				C83.1,119.3,82.7,119.6,82.3,119.6z M53.8,117.6h27.8L106.6,24l-17.4-4.7c-1.6,4.3-6.2,6.9-10.8,6.2L53.8,117.6z"/>
		</g>
		<g>
			<path class="st3" d="M84.8,109.7C84.8,109.7,84.8,109.7,84.8,109.7c-0.7-0.1-1.3-0.2-2-0.4c-3.4-0.9-6.4-3.3-8.5-7
				c-3.8-6.5-4.5-16-1.9-25.5c4.1-15.3,15.5-25.6,25.3-22.9c0.7,0.2,1.3,0.4,1.9,0.7c0.2,0.1,0.3,0.3,0.3,0.6l-14.5,54.2
				C85.2,109.5,85,109.7,84.8,109.7z M94.5,54.4c-8.5,0-17.6,9.4-21.1,22.6c-2.5,9.2-1.8,18.5,1.8,24.8c2,3.4,4.7,5.7,7.9,6.5
				c0.4,0.1,0.9,0.2,1.3,0.3l14.3-53.3c-0.4-0.2-0.9-0.3-1.3-0.4C96.5,54.6,95.5,54.4,94.5,54.4z"/>
		</g>
		<g>
			<path class="st3" d="M217.9,120.2c-0.1,0-0.2,0-0.3,0c-1.5-0.4-3.1-0.6-4.6-0.6h-16.1c-0.3,0-0.6-0.1-0.8-0.4
				c-0.2-0.2-0.3-0.6-0.2-0.9l8.2-30.6c0.1-0.3,0.3-0.5,0.5-0.6c0.2-0.1,0.5-0.1,0.8-0.1c5.6,2.1,10.1,6.5,12.2,12.1
				c0.9,2.3,1.3,4.7,1.3,7.2v12.8c0,0.3-0.1,0.6-0.4,0.8C218.4,120.1,218.1,120.2,217.9,120.2z M198.2,117.6H213
				c1.3,0,2.6,0.1,3.9,0.4v-11.5c0-2.3-0.4-4.5-1.2-6.5c-1.8-4.7-5.4-8.5-10-10.5L198.2,117.6z"/>
		</g>
	</g>
	<g>
		<path class="st3" d="M232.6,114.4c-1.6,0-3-1.3-3-3s1.3-3,3-3s3,1.3,3,3S234.3,114.4,232.6,114.4z M232.6,109.5c-1.1,0-2,0.9-2,2
			c0,1.1,0.9,2,2,2s2-0.9,2-2C234.6,110.4,233.7,109.5,232.6,109.5z"/>
	</g>
	<g>
		<path class="st1" d="M52.5,32.9c-1.6,0-3-1.3-3-3s1.3-3,3-3s3,1.3,3,3S54.2,32.9,52.5,32.9z M52.5,28c-1.1,0-2,0.9-2,2s0.9,2,2,2
			c1.1,0,2-0.9,2-2S53.6,28,52.5,28z"/>
	</g>
	<g>
		<path class="st3" d="M30.2,78.1c0,0-0.1,0-0.1,0l-1-0.3c-0.3-0.1-0.4-0.4-0.3-0.6c0.1-0.3,0.4-0.4,0.6-0.3l0.1,0L28.9,75
			c0-0.1,0-0.2,0-0.3l0.5-1.8l-1.8,0.5c-0.1,0-0.2,0-0.3,0l-1.8-0.5l0.5,1.8c0,0.1,0,0.2,0,0.3l-0.5,1.8l1.8-0.5
			c0.3-0.1,0.5,0.1,0.6,0.3c0.1,0.3-0.1,0.5-0.3,0.6l-2.7,0.8c-0.2,0.1-0.4,0-0.5-0.1c-0.1-0.1-0.2-0.3-0.1-0.5l0.8-2.6l-0.8-2.6
			c-0.1-0.2,0-0.4,0.1-0.5s0.3-0.2,0.5-0.1l2.6,0.8l2.6-0.8c0.2-0.1,0.4,0,0.5,0.1s0.2,0.3,0.1,0.5L30,74.9l0.8,2.6
			c0.1,0.2,0,0.4-0.1,0.5C30.5,78,30.4,78.1,30.2,78.1z"/>
	</g>
	<g>
		<path class="st5" d="M42.7,56.7c0,0-0.1,0-0.1,0l-1-0.3c-0.3-0.1-0.4-0.4-0.3-0.6c0.1-0.3,0.4-0.4,0.6-0.3l0.1,0l-0.5-1.8
			c0-0.1,0-0.2,0-0.3l0.5-1.8L40.1,52c-0.1,0-0.2,0-0.3,0L38,51.5l0.5,1.8c0,0.1,0,0.2,0,0.3L38,55.5l1.8-0.5
			c0.3-0.1,0.5,0.1,0.6,0.3c0.1,0.3-0.1,0.5-0.3,0.6l-2.7,0.8c-0.2,0.1-0.4,0-0.5-0.1c-0.1-0.1-0.2-0.3-0.1-0.5l0.8-2.6l-0.8-2.6
			c-0.1-0.2,0-0.4,0.1-0.5s0.3-0.2,0.5-0.1L40,51l2.6-0.8c0.2-0.1,0.4,0,0.5,0.1s0.2,0.3,0.1,0.5l-0.8,2.6l0.8,2.6
			c0.1,0.2,0,0.4-0.1,0.5C43,56.6,42.8,56.7,42.7,56.7z"/>
	</g>
	<g>
		<g>
			<path class="st1" d="M225,48.1c-0.3,0-0.5-0.2-0.5-0.5v-2.4c0-0.3,0.2-0.5,0.5-0.5s0.5,0.2,0.5,0.5v2.4
				C225.5,47.9,225.3,48.1,225,48.1z"/>
		</g>
		<g>
			<path class="st1" d="M225,54c-0.3,0-0.5-0.2-0.5-0.5V51c0-0.3,0.2-0.5,0.5-0.5s0.5,0.2,0.5,0.5v2.4C225.5,53.7,225.3,54,225,54z"
				/>
		</g>
		<g>
			<path class="st1" d="M229.1,49.8h-2.4c-0.3,0-0.5-0.2-0.5-0.5s0.2-0.5,0.5-0.5h2.4c0.3,0,0.5,0.2,0.5,0.5S229.4,49.8,229.1,49.8z
				"/>
		</g>
		<g>
			<path class="st1" d="M223.3,49.8h-2.4c-0.3,0-0.5-0.2-0.5-0.5s0.2-0.5,0.5-0.5h2.4c0.3,0,0.5,0.2,0.5,0.5S223.6,49.8,223.3,49.8z
				"/>
		</g>
	</g>
	<g>
		<g>
			<path class="st4" d="M217.9,76.6c-0.3,0-0.5-0.2-0.5-0.5v-2.4c0-0.3,0.2-0.5,0.5-0.5s0.5,0.2,0.5,0.5v2.4
				C218.4,76.4,218.2,76.6,217.9,76.6z"/>
		</g>
		<g>
			<path class="st4" d="M217.9,82.4c-0.3,0-0.5-0.2-0.5-0.5v-2.4c0-0.3,0.2-0.5,0.5-0.5s0.5,0.2,0.5,0.5v2.4
				C218.4,82.2,218.2,82.4,217.9,82.4z"/>
		</g>
		<g>
			<path class="st4" d="M222.1,78.3h-2.4c-0.3,0-0.5-0.2-0.5-0.5s0.2-0.5,0.5-0.5h2.4c0.3,0,0.5,0.2,0.5,0.5S222.3,78.3,222.1,78.3z
				"/>
		</g>
		<g>
			<path class="st4" d="M216.2,78.3h-2.4c-0.3,0-0.5-0.2-0.5-0.5s0.2-0.5,0.5-0.5h2.4c0.3,0,0.5,0.2,0.5,0.5S216.5,78.3,216.2,78.3z
				"/>
		</g>
	</g>
</g>
</svg>
