<svg xmlns="http://www.w3.org/2000/svg" id="Layer_1" x="0" y="0" version="1.1" viewBox="0 0 256 256" xml:space="preserve"><style>.st1{fill:#9feaff}.st2{fill:#ffffed}.st3{fill:#fff}.st4{fill:#48386a}.st5{fill:#febe7f}.st6{fill:#ff8584}</style><path fill="#dbfdff" d="M240.9 119.1c1.5-4.8 2.3-9.8 2.3-15.1 0-27.9-22.6-50.5-50.5-50.5s-50.5 22.6-50.5 50.5c0 9.4 2.6 18.1 7 25.7-1.5 4.8-2.3 9.8-2.3 15.1 0 2 .1 3.9.3 5.8-7.5-4.3-16.1-6.8-25.4-6.8-9.9 0-19.2 2.9-27 7.8-7.4-4.3-16.1-6.8-25.3-6.8-27.9 0-50.5 22.6-50.5 50.5s22.6 50.5 50.5 50.5c9.9 0 19.2-2.9 27-7.8 7.4 4.3 16.1 6.8 25.3 6.8 27.9 0 50.5-22.6 50.5-50.5 0-2-.1-3.9-.3-5.8 7.5 4.3 16.1 6.8 25.4 6.8 27.9 0 50.5-22.6 50.5-50.5 0-9.4-2.6-18.1-7-25.7z"/><path d="M226 35.6v13.1H4.7V35.6c0-6.9 5.6-12.6 12.6-12.6h6.3v9.1c0 5.4 4.4 9.7 9.7 9.7s9.7-4.4 9.7-9.7V23h21.5v9.1c0 5.4 4.3 9.7 9.7 9.7 5.4 0 9.7-4.4 9.7-9.7V23h21.5v9.1c0 5.4 4.4 9.7 9.7 9.7s9.7-4.4 9.7-9.7V23h21.5v9.1c0 5.4 4.3 9.7 9.7 9.7 5.4 0 9.7-4.4 9.7-9.7V23h21.5v9.1c0 5.4 4.4 9.7 9.7 9.7 5.4 0 9.7-4.4 9.7-9.7V23h6.3c7.4 0 13.1 5.6 13.1 12.6z" class="st1"/><path d="M26.1 221.7h-8.8c-6.9 0-12.6-5.6-12.6-12.6v-147H226v67.1c-11.6-8.9-26-14.2-41.7-14.2-37.8 0-68.4 30.6-68.4 68.4 0 14.2 4.3 27.4 11.7 38.3H26.1z" class="st2"/><path d="M125.1 15.8v16.4c0 5.4-4.4 9.7-9.7 9.7s-9.7-4.4-9.7-9.7V13.9c0-5.4 4.4-9.7 9.7-9.7 2.7 0 5.1 1.1 6.9 2.9.7.7 1.3 1.6 1.8 2.5l1 6.2zM207.1 13.9v18.2c0 5.4-4.4 9.7-9.7 9.7-5.4 0-9.7-4.4-9.7-9.7V13.9c0-5.4 4.4-9.7 9.7-9.7 2.7 0 5.1 1.1 6.9 2.9 1.7 1.7 2.8 4.1 2.8 6.8zM166.1 13.9v18.2c0 5.4-4.4 9.7-9.7 9.7-5.4 0-9.7-4.4-9.7-9.7V13.9c0-5.4 4.3-9.7 9.7-9.7 5.3-.1 9.7 4.3 9.7 9.7zM74.3 4.1c5.4 0 9.7 4.4 9.7 9.7V32c0 5.4-4.3 9.7-9.7 9.7-5.4 0-9.7-4.4-9.7-9.7V13.9c0-2.8 1.2-5.4 3.1-7.2l6.6-2.6zM43 13.9v18.2c0 5.4-4.4 9.7-9.7 9.7s-9.7-4.4-9.7-9.7V13.9c0-5.4 4.4-9.7 9.7-9.7 2.7 0 5.1 1.1 6.9 2.9C42 8.8 43 11.2 43 13.9zM245.1 152c4.9 9.4 7.6 20.1 7.6 31.5 0 37.8-30.6 68.4-68.4 68.4-23.6 0-44.4-11.9-56.7-30.1-2.2-3.2-4.1-6.7-5.7-10.3-3.8-8.6-6-18.1-6-28 0-3 .2-6 .6-9 1.3-10.2 4.9-19.7 10.3-28 4.1-6.4 9.3-12.1 15.2-16.8 9.1-7.2 20.1-12.1 32.1-13.9 3.3-.5 6.8-.8 10.3-.8 11.6 0 22.5 2.9 32.1 8 3.4 1.8 6.6 3.9 9.6 6.2 4.3 3.3 8.2 7.1 11.6 11.3l7.4 11.5z" class="st3"/><path d="M226 49.7H4.7c-.6 0-1-.4-1-1V35.6C3.7 28.1 9.8 22 17.3 22h6.3c.6 0 1 .4 1 1v9.1c0 4.8 3.9 8.7 8.7 8.7 4.8 0 8.7-3.9 8.7-8.7V23c0-.6.4-1 1-1h21.5c.6 0 1 .4 1 1v9.1c0 4.8 3.9 8.7 8.7 8.7 4.8 0 8.7-3.9 8.7-8.7V23c0-.6.4-1 1-1h21.5c.6 0 1 .4 1 1v9.1c0 4.8 3.9 8.7 8.7 8.7s8.7-3.9 8.7-8.7V23c0-.6.4-1 1-1h21.5c.6 0 1 .4 1 1v9.1c0 4.8 3.9 8.7 8.7 8.7 4.8 0 8.8-3.9 8.8-8.7V23c0-.6.4-1 1-1h21.5c.6 0 1 .4 1 1v9.1c0 4.8 3.9 8.7 8.7 8.7 4.8 0 8.7-3.9 8.7-8.7V23c0-.6.4-1 1-1h6.3c7.5 0 13.6 6.1 13.6 13.6v13.1c.4.5-.1 1-.6 1zm-220.3-2H225V35.6c0-6.4-5.2-11.6-11.6-11.6h-5.3v8.1c0 5.9-4.8 10.7-10.7 10.7-5.9 0-10.7-4.8-10.7-10.7V24h-19.5v8.1c0 5.9-4.8 10.7-10.7 10.7-5.9 0-10.7-4.8-10.7-10.7V24h-19.5v8.1c0 5.9-4.8 10.7-10.7 10.7s-10.7-4.8-10.7-10.7V24H85.1v8.1c0 5.9-4.8 10.7-10.7 10.7-5.9 0-10.7-4.8-10.7-10.7V24H44v8.1c0 5.9-4.8 10.7-10.7 10.7-5.9 0-10.7-4.8-10.7-10.7V24h-5.3c-6.4 0-11.6 5.2-11.6 11.6v12.1z" class="st4"/><path d="M7.7 48.7H229v13.4H7.7z" class="st5"/><path d="M18 183.4h32.1v28H18zM92.4 202v9.5H60.3v-28.1h32.1v11.4zM124.8 211.5h-22.2v-28h16.2c0 9.9 2.2 19.4 6 28z" class="st6"/><path d="M226 63.1H4.7c-.6 0-1-.4-1-1V48.7c0-.6.4-1 1-1H226c.6 0 1 .4 1 1v13.4c0 .5-.5 1-1 1zm-220.3-2H225V49.7H5.7v11.4zM35 222.7h-3c-.6 0-1-.4-1-1s.4-1 1-1h3c.6 0 1 .4 1 1s-.4 1-1 1z" class="st4"/><path d="M127.6 222.7H38.8c-.6 0-1-.4-1-1s.4-1 1-1h86.9c-7.1-11.1-10.9-24-10.9-37.3 0-38.3 31.1-69.4 69.4-69.4 14.8 0 28.8 4.5 40.7 13.2V63.1H5.7v146.1c0 6.4 5.2 11.6 11.6 11.6h8.8c.6 0 1 .4 1 1s-.4 1-1 1h-8.8c-7.5 0-13.6-6.1-13.6-13.6V62.1c0-.6.4-1 1-1H226c.6 0 1 .4 1 1v67.1c0 .4-.2.7-.6.9-.3.2-.7.1-1.1-.1-11.9-9.1-26.1-13.9-41.1-13.9-37.2 0-67.4 30.3-67.4 67.4 0 13.5 4 26.6 11.5 37.7.2.3.2.7.1 1-.1.3-.5.5-.8.5zM115.3 42.9c-5.9 0-10.7-4.8-10.7-10.7V13.9c0-5.9 4.8-10.7 10.7-10.7 2.9 0 5.6 1.1 7.6 3.1.8.8 1.5 1.7 2 2.8.2.5.1 1.1-.4 1.3-.5.2-1.1.1-1.3-.4-.4-.8-1-1.6-1.6-2.2-1.7-1.7-3.8-2.6-6.2-2.6-4.8 0-8.7 3.9-8.7 8.7v18.2c0 4.8 3.9 8.7 8.7 8.7s8.7-3.9 8.7-8.7V15.8c0-.6.4-1 1-1s1 .4 1 1v16.4c0 5.8-4.8 10.7-10.8 10.7z" class="st4"/><path d="M118.3 36.8c-2.6 0-4.7-2.1-4.7-4.7V13.9c0-2.6 2.1-4.7 4.7-4.7 1.3 0 2.4.5 3.3 1.4.9.9 1.4 2.1 1.4 3.3v18.2c0 2.6-2.1 4.7-4.7 4.7zM205.1 21.4v10.7c0 2.6-2.1 4.7-4.7 4.7s-4.7-2.1-4.7-4.7V13.9c0-2.6 2.1-4.7 4.7-4.7 1.3 0 2.4.5 3.3 1.4.9.9 1.4 2.1 1.4 3.3v7.5zM159.3 36.8c-2.6 0-4.7-2.1-4.7-4.7V13.9c0-2.6 2.1-4.7 4.7-4.7s4.7 2.1 4.7 4.7v18.2c.1 2.6-2 4.7-4.7 4.7zM77.3 36.8c-2.6 0-4.7-2.1-4.7-4.7V13.9c0-2.6 2.1-4.7 4.7-4.7s4.7 2.1 4.7 4.7v18.2c0 2.6-2.1 4.7-4.7 4.7zM41 21.4v10.7c0 2.6-2.1 4.7-4.7 4.7s-4.7-2.1-4.7-4.7V13.9c0-2.6 2.1-4.7 4.7-4.7 1.3 0 2.4.5 3.3 1.4.9.9 1.4 2.1 1.4 3.3v7.5z" class="st6"/><path d="M115.3 37.3c-2.9 0-5.2-2.3-5.2-5.2V13.9c0-2.9 2.3-5.2 5.2-5.2 1.4 0 2.7.5 3.7 1.5s1.5 2.3 1.5 3.7v18.2c0 2.9-2.3 5.2-5.2 5.2zm0-27.6c-2.3 0-4.2 1.9-4.2 4.2v18.2c0 2.3 1.9 4.2 4.2 4.2 2.3 0 4.2-1.9 4.2-4.2V13.9c0-1.1-.4-2.2-1.2-3-.8-.8-1.8-1.2-3-1.2zM197.4 42.9c-5.9 0-10.7-4.8-10.7-10.7V13.9c0-5.9 4.8-10.7 10.7-10.7 2.9 0 5.6 1.1 7.6 3.1s3.1 4.7 3.1 7.6v18.2c0 5.9-4.8 10.8-10.7 10.8zm0-37.8c-4.8 0-8.7 3.9-8.7 8.7V32c0 4.8 3.9 8.7 8.7 8.7 4.8 0 8.7-3.9 8.7-8.7V13.9c0-2.3-.9-4.5-2.6-6.2-1.6-1.6-3.8-2.6-6.1-2.6z" class="st4"/><path d="M197.4 37.3c-2.9 0-5.2-2.3-5.2-5.2V13.9c0-2.9 2.3-5.2 5.2-5.2 1.4 0 2.7.5 3.7 1.5s1.5 2.3 1.5 3.7v2.9c0 .3-.2.5-.5.5s-.5-.2-.5-.5v-2.9c0-1.1-.4-2.2-1.2-3-.8-.8-1.9-1.2-3-1.2-2.3 0-4.2 1.9-4.2 4.2v18.2c0 2.3 1.9 4.2 4.2 4.2 2.3 0 4.2-1.9 4.2-4.2V21.4c0-.3.2-.5.5-.5s.5.2.5.5v10.7c0 2.9-2.4 5.2-5.2 5.2zM156.4 42.9c-5.9 0-10.7-4.8-10.7-10.7V13.9c0-5.9 4.8-10.7 10.7-10.7 5.9 0 10.8 4.8 10.8 10.7v18.2c-.1 5.9-4.9 10.8-10.8 10.8zm0-37.8c-4.8 0-8.7 3.9-8.7 8.7V32c0 4.8 3.9 8.7 8.7 8.7 4.8 0 8.8-3.9 8.8-8.7V13.9c-.1-4.8-4-8.8-8.8-8.8z" class="st4"/><path d="M156.4 37.3c-2.9 0-5.2-2.3-5.2-5.2V13.9c0-2.9 2.3-5.2 5.2-5.2 2.9 0 5.2 2.3 5.2 5.2v18.2c0 2.9-2.4 5.2-5.2 5.2zm-.1-27.6c-2.3 0-4.2 1.9-4.2 4.2v18.2c0 2.3 1.9 4.2 4.2 4.2 2.3 0 4.2-1.9 4.2-4.2V13.9c.1-2.3-1.8-4.2-4.2-4.2zM74.3 42.9c-5.9 0-10.7-4.8-10.7-10.7V13.9c0-3 1.3-5.9 3.4-7.9.4-.4 1-.4 1.4.1.4.4.4 1-.1 1.4-1.8 1.7-2.8 4-2.8 6.4v18.2c0 4.8 3.9 8.7 8.7 8.7 4.8 0 8.7-3.9 8.7-8.7V13.9c0-4.8-3.9-8.7-8.7-8.7-.6 0-1-.4-1-1s.4-1 1-1c5.9 0 10.7 4.8 10.7 10.7v18.2c.2 5.9-4.7 10.8-10.6 10.8z" class="st4"/><path d="M74.3 37.3c-2.9 0-5.2-2.3-5.2-5.2V13.9c0-2.9 2.3-5.2 5.2-5.2 2.9 0 5.2 2.3 5.2 5.2v18.2c0 2.9-2.3 5.2-5.2 5.2zm0-27.6c-2.3 0-4.2 1.9-4.2 4.2v18.2c0 2.3 1.9 4.2 4.2 4.2 2.3 0 4.2-1.9 4.2-4.2V13.9c0-2.3-1.9-4.2-4.2-4.2zM33.3 42.9c-5.9 0-10.7-4.8-10.7-10.7V13.9c0-5.9 4.8-10.7 10.7-10.7 2.9 0 5.6 1.1 7.6 3.1S44 11 44 13.9v18.2c0 5.9-4.8 10.8-10.7 10.8zm0-37.8c-4.8 0-8.7 3.9-8.7 8.7V32c0 4.8 3.9 8.7 8.7 8.7 4.8 0 8.7-3.9 8.7-8.7V13.9c0-2.3-.9-4.5-2.6-6.2-1.6-1.6-3.8-2.6-6.1-2.6z" class="st4"/><path d="M33.3 37.3c-2.9 0-5.2-2.3-5.2-5.2V13.9c0-2.9 2.3-5.2 5.2-5.2 1.4 0 2.7.5 3.7 1.5s1.5 2.3 1.5 3.7v3c0 .3-.2.5-.5.5s-.5-.2-.5-.5v-3c0-1.1-.4-2.2-1.2-3-.8-.8-1.9-1.2-3-1.2-2.3 0-4.2 1.9-4.2 4.2v18.2c0 2.3 1.9 4.2 4.2 4.2 2.3 0 4.2-1.9 4.2-4.2V21.4c0-.3.2-.5.5-.5s.5.2.5.5v10.7c0 2.9-2.3 5.2-5.2 5.2zM89.4 101.4H57.3c-.6 0-1-.4-1-1v-28c0-.6.4-1 1-1h32.1c.6 0 1 .4 1 1v28c0 .5-.5 1-1 1zm-31.1-2h30.1v-26H58.3v26zM131.7 101.4H99.6c-.6 0-1-.4-1-1v-28c0-.6.4-1 1-1h32.1c.6 0 1 .4 1 1v28c0 .5-.5 1-1 1zm-31.1-2h30.1v-26h-30.1v26zM174 101.4h-32.1c-.6 0-1-.4-1-1v-28c0-.6.4-1 1-1H174c.6 0 1 .4 1 1v28c0 .5-.4 1-1 1zm-31.1-2H173v-26h-30.1v26zM216.3 101.4h-32.1c-.6 0-1-.4-1-1v-28c0-.6.4-1 1-1h32.1c.6 0 1 .4 1 1v28c0 .5-.4 1-1 1zm-31-2h30.1v-26h-30.1v26zM47 138.4H15c-.6 0-1-.4-1-1v-28c0-.6.4-1 1-1h32c.6 0 1 .4 1 1v28c0 .6-.4 1-1 1zm-31-2h30v-26H16v26zM89.4 138.4H57.3c-.6 0-1-.4-1-1v-28c0-.6.4-1 1-1h9.8c.6 0 1 .4 1 1s-.4 1-1 1h-8.8v26h30.1v-26H75.7c-.6 0-1-.4-1-1s.4-1 1-1h13.6c.6 0 1 .4 1 1v28c.1.6-.4 1-.9 1zM131.7 138.4H99.6c-.6 0-1-.4-1-1v-28c0-.6.4-1 1-1h32.1c.6 0 1 .4 1 1v28c0 .6-.5 1-1 1zm-31.1-2h30.1v-26h-30.1v26zM141.9 130.6c-.1 0-.3 0-.4-.1-.3-.2-.6-.5-.6-.9v-20.3c0-.6.4-1 1-1H174c.6 0 1 .4 1 1v6.4c0 .5-.4.9-.9 1-11.5 1.7-22.4 6.5-31.6 13.7-.1.2-.3.2-.6.2zm1-20.2v17.2c8.9-6.6 19.2-10.9 30.1-12.7v-4.5h-30.1zM216.3 123.9c-.2 0-.3 0-.5-.1-9.6-5.1-20.6-7.8-31.6-7.8-.6 0-1-.4-1-1v-5.6c0-.6.4-1 1-1h32.1c.6 0 1 .4 1 1V123c0 .4-.2.7-.5.9h-.5zm-31-9.9c10.4.2 20.8 2.7 30.1 7.3v-10.9h-30.1v3.6zM47 175.4H15c-.6 0-1-.4-1-1v-28c0-.6.4-1 1-1h32c.6 0 1 .4 1 1v28c0 .6-.4 1-1 1zm-31-2h30v-26H16v26zM89.4 175.4H57.3c-.6 0-1-.4-1-1v-28c0-.6.4-1 1-1h32.1c.6 0 1 .4 1 1v28c0 .6-.5 1-1 1zm-31.1-2h30.1v-26H58.3v26zM116.4 175.4H99.6c-.6 0-1-.4-1-1v-28c0-.6.4-1 1-1h27.1c.4 0 .7.2.9.5.2.3.2.7 0 1-5.4 8.4-8.8 17.7-10.1 27.6-.1.6-.6.9-1.1.9zm-15.8-2h14.9c1.3-9.3 4.5-18 9.3-26h-24.3v26zM47 212.5H15c-.6 0-1-.4-1-1v-28c0-.6.4-1 1-1h32c.6 0 1 .4 1 1v28c0 .5-.4 1-1 1zm-31-2h30v-26H16v26zM89.4 212.5H57.3c-.6 0-1-.4-1-1v-28c0-.6.4-1 1-1h32.1c.6 0 1 .4 1 1v11.3c0 .6-.4 1-1 1s-1-.4-1-1v-10.3H58.3v26h30.1V202c0-.6.4-1 1-1s1 .4 1 1v9.5c0 .5-.5 1-1 1zM121.8 212.5H99.6c-.6 0-1-.4-1-1v-28c0-.6.4-1 1-1h16.2c.6 0 1 .4 1 1 0 9.6 2 18.9 5.9 27.6.1.3.1.7-.1 1-.1.2-.4.4-.8.4zm-21.2-2h19.7c-3.5-8.3-5.3-17-5.5-26h-14.2v26zM226 55.9H40.8c-.3 0-.5-.2-.5-.5s.2-.5.5-.5H226c.3 0 .5.2.5.5s-.3.5-.5.5zM33.3 55.9H4.7c-.3 0-.5-.2-.5-.5s.2-.5.5-.5h28.6c.3 0 .5.2.5.5s-.2.5-.5.5z" class="st4"/><path d="M245.1 152c4.9 9.4 7.6 20.1 7.6 31.5 0 37.8-30.6 68.4-68.4 68.4-23.6 0-44.4-11.9-56.7-30.1-2.2-3.2-4.1-6.7-5.7-10.3-3.8-8.6-6-18.1-6-28 0-3 .2-6 .6-9 1.3-10.2 4.9-19.7 10.3-28 4.1-6.4 9.3-12.1 15.2-16.8 9.1-7.2 20.1-12.1 32.1-13.9 3.3-.5 6.8-.8 10.3-.8 11.6 0 22.5 2.9 32.1 8 3.4 1.8 6.6 3.9 9.6 6.2 4.3 3.3 8.2 7.1 11.6 11.3l7.4 11.5z" class="st1"/><path d="M184.3 252.9c-23.1 0-44.6-11.4-57.5-30.6-2.2-3.3-4.2-6.8-5.8-10.4-4-9-6.1-18.6-6.1-28.5 0-3 .2-6.1.6-9.1 1.3-10.2 4.8-19.8 10.4-28.4 4.2-6.5 9.4-12.2 15.5-17 9.4-7.4 20.7-12.3 32.5-14.1 3.4-.5 6.9-.8 10.4-.8 11.3 0 22.6 2.8 32.5 8.1 3.4 1.8 6.7 3.9 9.8 6.3 4.3 3.3 8.3 7.2 11.7 11.5.3.4.3 1.1-.2 1.4-.4.3-1.1.3-1.4-.2-3.3-4.1-7.2-7.9-11.4-11.1-3-2.3-6.2-4.4-9.5-6.1-9.7-5.1-20.6-7.8-31.6-7.8-3.4 0-6.8.3-10.1.8-11.5 1.7-22.4 6.5-31.6 13.7-5.9 4.7-11 10.2-15 16.5-5.4 8.4-8.8 17.7-10.1 27.6-.4 2.9-.6 5.9-.6 8.9 0 9.6 2 18.9 5.9 27.6 1.6 3.5 3.5 6.9 5.6 10.1 12.6 18.6 33.5 29.7 55.9 29.7 37.2 0 67.4-30.2 67.4-67.4 0-10.8-2.6-21.5-7.5-31-.3-.5-.1-1.1.4-1.3.5-.3 1.1-.1 1.3.4 5.1 9.8 7.8 20.8 7.8 31.9.1 38.1-31 69.3-69.3 69.3z" class="st4"/><path d="M243.2 149.7c-.4 0-.7-.2-.9-.5l-.2-.4-1.2-2-.3-.4c-.3-.5-.2-1.1.3-1.4.5-.3 1.1-.2 1.4.3l.2.4c.7 1 .7 1 1.3 2.1l.2.4c.3.5.1 1.1-.4 1.4-.1 0-.3.1-.4.1z" class="st4"/><path d="M135.8 155.9c9.8-18.4 29.2-30.9 51.5-30.9 32.2 0 58.4 26.2 58.4 58.4s-26.2 58.4-58.4 58.4-58.4-26.2-58.4-58.4c0-8 1.6-15.7 4.6-22.7l2.3-4.8z" class="st2"/><path d="M184.3 242.8c-32.7 0-59.4-26.6-59.4-59.4 0-8 1.6-15.8 4.7-23.1.2-.5.8-.7 1.3-.5.5.2.7.8.5 1.3-3 7.1-4.5 14.6-4.5 22.3 0 31.6 25.7 57.4 57.4 57.4 31.6 0 57.4-25.7 57.4-57.4S215.9 126 184.3 126c-21.2 0-40.6 11.6-50.6 30.3-.3.5-.9.7-1.4.4-.5-.3-.7-.9-.4-1.4 10.4-19.4 30.5-31.4 52.4-31.4 32.7 0 59.4 26.6 59.4 59.4s-26.7 59.5-59.4 59.5z" class="st4"/><path d="M190.7 183.4c0 1.8-.8 3.4-2 4.6-1.1 1.1-2.7 1.8-4.4 1.8-3.5 0-6.4-2.9-6.4-6.4 0-3.5 2.8-6.3 6.2-6.4h.2c3.5 0 6.4 2.9 6.4 6.4z" class="st1"/><path d="M184.3 190.8c-4.1 0-7.4-3.3-7.4-7.4 0-3.9 3.2-7.2 7.1-7.4h.3c4.1 0 7.4 3.3 7.4 7.4 0 2-.8 3.9-2.3 5.3-1.4 1.4-3.2 2.1-5.1 2.1zm0-12.8h-.2c-2.9.1-5.2 2.5-5.2 5.4 0 3 2.4 5.4 5.4 5.4 1.4 0 2.7-.5 3.7-1.5 1.1-1 1.7-2.4 1.7-3.9 0-2.9-2.5-5.4-5.4-5.4zM184.3 141.4c-.6 0-1-.4-1-1v-8c0-.6.4-1 1-1s1 .4 1 1v8c0 .6-.5 1-1 1zM162.7 147.2c-.3 0-.7-.2-.9-.5l-4-6.9c-.3-.5-.1-1.1.4-1.4.5-.3 1.1-.1 1.4.4l4 6.9c.3.5.1 1.1-.4 1.4-.1 0-.3.1-.5.1zM146.9 162.9c-.2 0-.3 0-.5-.1l-6.9-4c-.5-.3-.6-.9-.4-1.4.3-.5.9-.6 1.4-.4l6.9 4c.5.3.6.9.4 1.4-.2.3-.5.5-.9.5zM141.1 184.4h-8c-.6 0-1-.4-1-1s.4-1 1-1h8c.6 0 1 .4 1 1s-.4 1-1 1zM139.9 209.9c-.3 0-.7-.2-.9-.5-.3-.5-.1-1.1.4-1.4l6.9-4c.5-.3 1.1-.1 1.4.4.3.5.1 1.1-.4 1.4l-6.9 4c-.2.1-.4.1-.5.1zM158.5 228.7c-.2 0-.3 0-.5-.1-.5-.3-.6-.9-.4-1.4l4-6.9c.3-.5.9-.6 1.4-.4.5.3.6.9.4 1.4l-4 6.9c-.2.3-.5.5-.9.5zM184.1 235.6c-.6 0-1-.4-1-1v-8c0-.6.4-1 1-1s1 .4 1 1v8c0 .5-.5 1-1 1zM209.6 228.8c-.3 0-.7-.2-.9-.5l-4-6.9c-.3-.5-.1-1.1.4-1.4.5-.3 1.1-.1 1.4.4l4 6.9c.3.5.1 1.1-.4 1.4-.1 0-.3.1-.5.1zM228.3 210.1c-.2 0-.3 0-.5-.1l-6.9-4c-.5-.3-.6-.9-.4-1.4.3-.5.9-.6 1.4-.4l6.9 4c.5.3.6.9.4 1.4-.2.4-.5.5-.9.5zM235.2 184.6h-8c-.6 0-1-.4-1-1s.4-1 1-1h8c.6 0 1 .4 1 1s-.4 1-1 1zM221.5 163.1c-.3 0-.7-.2-.9-.5-.3-.5-.1-1.1.4-1.4l6.9-4c.5-.3 1.1-.1 1.4.4.3.5.1 1.1-.4 1.4l-6.9 4c-.2 0-.3.1-.5.1zM205.8 147.3c-.2 0-.3 0-.5-.1-.5-.3-.6-.9-.4-1.4l4-6.9c.3-.5.9-.6 1.4-.4.5.3.6.9.4 1.4l-4 6.9c-.2.3-.6.5-.9.5z" class="st4"/><g><path d="M184 178c-.6 0-1-.4-1-1v-27c0-.6.4-1 1-1s1 .4 1 1v27c0 .6-.4 1-1 1z" class="st4"/></g><g><path d="M210.1 210.5c-.3 0-.5-.1-.7-.3L188 188.7c-.4-.4-.4-1 0-1.4s1-.4 1.4 0l21.4 21.4c.4.4.4 1 0 1.4-.1.3-.4.4-.7.4z" class="st4"/></g><g><path d="M41.9 235.3c-1.6 0-3-1.3-3-3s1.3-3 3-3 3 1.3 3 3-1.4 3-3 3zm0-5c-1.1 0-2 .9-2 2s.9 2 2 2 2-.9 2-2-.9-2-2-2z" class="st4"/></g><g><path d="M239.7 103.4c-1.6 0-3-1.3-3-3s1.3-3 3-3 3 1.3 3 3-1.4 3-3 3zm0-5c-1.1 0-2 .9-2 2s.9 2 2 2 2-.9 2-2-.9-2-2-2z" class="st6"/></g><g><path d="M232.5 82.9c-.1 0-.3-.1-.4-.1-.1-.1-.2-.3-.1-.5l.8-2.6-.8-2.6c-.1-.2 0-.4.1-.5.1-.1.3-.2.5-.1l2.6.8 2.6-.8c.2-.1.4 0 .5.1s.2.3.1.5l-.8 2.6.8 2.6c.1.2 0 .4-.1.5-.1.1-.3.2-.5.1l-1-.3c-.3-.1-.4-.4-.3-.6.1-.3.4-.4.6-.3h.1l-.5-1.8v-.3l.5-1.8-1.8.5h-.3l-1.8-.5.5 1.8v.3l-.5 1.8 1.8-.5c.3-.1.5.1.6.3.1.3-.1.5-.3.6l-2.7.8c-.1-.1-.1 0-.2 0z" class="st4"/></g><g><path d="M238 120c-.3 0-.5-.2-.5-.5v-2.4c0-.3.2-.5.5-.5s.5.2.5.5v2.4c0 .3-.3.5-.5.5zM238 125.9c-.3 0-.5-.2-.5-.5V123c0-.3.2-.5.5-.5s.5.2.5.5v2.4c0 .2-.3.5-.5.5zM242.1 121.7h-2.4c-.3 0-.5-.2-.5-.5s.2-.5.5-.5h2.4c.3 0 .5.2.5.5s-.2.5-.5.5zM236.2 121.7h-2.4c-.3 0-.5-.2-.5-.5s.2-.5.5-.5h2.4c.3 0 .5.2.5.5s-.2.5-.5.5z" class="st6"/></g><g><path d="M118.3 231.1c-.3 0-.5-.2-.5-.5v-2.4c0-.3.2-.5.5-.5s.5.2.5.5v2.4c0 .3-.2.5-.5.5zM118.3 236.9c-.3 0-.5-.2-.5-.5V234c0-.3.2-.5.5-.5s.5.2.5.5v2.4c0 .3-.2.5-.5.5zM122.5 232.8H120c-.3 0-.5-.2-.5-.5s.2-.5.5-.5h2.4c.3 0 .5.2.5.5s-.1.5-.4.5zM116.6 232.8h-2.4c-.3 0-.5-.2-.5-.5s.2-.5.5-.5h2.4c.3 0 .5.2.5.5s-.2.5-.5.5z" class="st5"/></g><g><path d="M77.5 234c-.3 0-.5-.2-.5-.5v-2.4c0-.3.2-.5.5-.5s.5.2.5.5v2.4c0 .3-.3.5-.5.5zM77.5 239.9c-.3 0-.5-.2-.5-.5V237c0-.3.2-.5.5-.5s.5.2.5.5v2.4c0 .2-.3.5-.5.5zM81.6 235.7h-2.4c-.3 0-.5-.2-.5-.5s.2-.5.5-.5h2.4c.3 0 .5.2.5.5s-.2.5-.5.5zM75.8 235.7h-2.4c-.3 0-.5-.2-.5-.5s.2-.5.5-.5h2.4c.3 0 .5.2.5.5s-.3.5-.5.5z" class="st1"/></g></svg>