<svg xmlns="http://www.w3.org/2000/svg" id="Layer_1" x="0" y="0" version="1.1" viewBox="0 0 256 256" xml:space="preserve"><style>.st0{fill:#9feaff}.st1{fill:#fff}.st2{fill:#48386a}</style><path d="M54 87.1l-8.4 31.5h-6.1c-8.5 0-15.4-6.9-15.4-15.4v-.7c0-.5 0-1.1.1-1.6.8-7.7 7.3-13.8 15.3-13.8H54z" class="st0"/><path d="M158.8 252H40.2c-8.6 0-15.9-5.6-18.6-13.3-.1-.2-.2-.5-.2-.7-.5-1.8-.8-3.7-.8-5.6V103.2c0 8.5 6.9 15.4 15.4 15.4h176.4c8.4 0 15.6 5.3 18.3 12.7.8 2.1 1.2 4.5 1.2 6.9v94.2c0 1.9-.3 3.8-.8 5.6-.1.2-.1.5-.2.7a19.6 19.6 0 01-18.6 13.3h-53.5z" class="st1"/><path d="M212.3 253h-33.6c-.6 0-1-.4-1-1s.4-1 1-1h33.6c8 0 15.1-5.1 17.6-12.6.1-.2.1-.4.2-.7.5-1.7.8-3.5.8-5.3v-94.2c0-2.3-.4-4.5-1.2-6.5-2.7-7.2-9.7-12.1-17.4-12.1H36c-6.2 0-11.6-3.5-14.4-8.5v121.3c0 1.8.3 3.6.8 5.3.1.2.1.4.2.7 2.6 7.6 9.6 12.6 17.6 12.6h118.6c.6 0 1 .4 1 1s-.4 1-1 1H40.2c-8.8 0-16.7-5.6-19.5-14-.1-.2-.2-.5-.2-.7-.6-1.9-.9-3.9-.9-5.9V103.2c0-.6.4-1 1-1s1 .4 1 1c0 7.9 6.4 14.4 14.4 14.4h176.4c8.5 0 16.3 5.4 19.3 13.4.9 2.3 1.3 4.7 1.3 7.2v94.2c0 2-.3 4-.9 5.9-.1.3-.1.5-.2.7-2.9 8.4-10.7 14-19.6 14z" class="st2"/><path d="M116.7 233.5H23.6v-96.9h211.3c.1.5.1 1.1.1 1.6v95.3H116.7z" class="st0"/><path d="M196.2 15.9l25.6 6.9-25.6 95.8h-75.1l2.5-9.4L138.1 55l8.5-31.7 2.5-9.4 2.7-9.9 35.6 9.5z" class="st1"/><path d="M196.2 119.6h-75.1c-.3 0-.6-.1-.8-.4-.2-.2-.3-.6-.2-.9L150.8 3.7c.1-.5.7-.9 1.2-.7l35.6 9.5c.5.1.8.7.7 1.2s-.7.9-1.2.7l-34.6-9.3-30.1 112.4h73l25.2-94.1-24.7-6.6c-.5-.1-.8-.7-.7-1.2s.7-.8 1.2-.7l25.7 6.9c.3.1.5.2.6.5s.2.5.1.8l-25.7 95.8c-.1.4-.5.7-.9.7z" class="st2"/><path d="M149.1 13.9l-2.5 9.4-8.5 31.7-14.5 54.2-2.5 9.4H81.6l2.5-9.4L98.6 55l8.5-31.7 2.6-9.4 2.6-9.9z" class="st1"/><path d="M121.1 119.6H81.6c-.3 0-.6-.1-.8-.4-.2-.2-.3-.6-.2-.9L111.3 3.7c.1-.5.7-.9 1.2-.7l36.8 9.9c.3.1.5.2.6.5s.2.5.1.8l-28 104.6c-.1.5-.5.8-.9.8zm-38.2-2h37.4l27.6-103L113 5.2 82.9 117.6z" class="st2"/><path d="M62.2 43.7L72.8 4l36.9 9.9-2.6 9.4L98.6 55l-14.5 54.2-2.5 9.4H42.1l10.7-40.1L60 51.9z" class="st1"/><path d="M81.6 119.6H42.1c-.3 0-.6-.1-.8-.4-.2-.2-.3-.6-.2-.9L59 51.7c.1-.5.7-.9 1.2-.7.5.1.9.7.7 1.2l-17.5 65.4h37.4l27.6-103-34.9-9.4L63.1 44c-.1.5-.7.9-1.2.7-.5-.1-.9-.7-.7-1.2L71.8 3.7c.2-.5.7-.8 1.3-.7l36.8 9.9c.3.1.5.2.6.5.1.2.2.5.1.8L82.5 118.8c-.1.5-.5.8-.9.8zM173.8 253h-4.4c-.6 0-1-.4-1-1s.4-1 1-1h4.4c.6 0 1 .4 1 1s-.5 1-1 1z" class="st2"/><path d="M212.3 253h-33.6c-.6 0-1-.4-1-1s.4-1 1-1h33.6c8 0 15.1-5.1 17.6-12.6.1-.2.1-.4.2-.7.5-1.7.8-3.5.8-5.3v-94.2c0-2.3-.4-4.5-1.2-6.5-2.7-7.2-9.7-12.1-17.4-12.1H36c-6.2 0-11.6-3.5-14.4-8.5v121.3c0 1.8.3 3.6.8 5.3.1.2.1.4.2.7 2.6 7.6 9.6 12.6 17.6 12.6h118.6c.6 0 1 .4 1 1s-.4 1-1 1H40.2c-8.8 0-16.7-5.6-19.5-14-.1-.2-.2-.5-.2-.7-.6-1.9-.9-3.9-.9-5.9V103.2c0-.6.4-1 1-1s1 .4 1 1c0 7.9 6.4 14.4 14.4 14.4h176.4c8.5 0 16.3 5.4 19.3 13.4.9 2.3 1.3 4.7 1.3 7.2v94.2c0 2-.3 4-.9 5.9-.1.3-.1.5-.2.7-2.9 8.4-10.7 14-19.6 14z" class="st2"/><path d="M42.1 119.6H36c-9 0-16.4-7.3-16.4-16.4v-.7c0-.6 0-1.1.1-1.7.9-8.4 7.9-14.7 16.3-14.7h14.6c.3 0 .6.1.8.4.2.2.3.6.2.9l-8.4 31.5c-.3.4-.6.7-1.1.7zM36 88.1c-7.4 0-13.5 5.5-14.3 12.9-.1.5-.1 1-.1 1.5v.7c0 7.9 6.4 14.4 14.4 14.4h5.4l7.9-29.5H36zM231.1 239.7H21.4c-.4 0-.8-.3-1-.7-.5-1.8-.8-3.6-.9-5.5V131.3c0-.6.4-1 1-1h39.7c.6 0 1 .4 1 1s-.4 1-1 1H21.6v101.2c0 1.4.2 2.9.6 4.3h208.2c.4-1.4.5-2.8.6-4.3v-95.3c0-.6 0-1.1-.1-1.5-.1-1.5-.4-3-.9-4.4H72c-.6 0-1-.4-1-1s.4-1 1-1h158.7c.4 0 .8.3.9.6.7 1.8 1.1 3.6 1.2 5.5.1.5.1 1.1.1 1.7v95.3c0 1.9-.3 3.7-.9 5.5-.1.5-.5.8-.9.8z" class="st2"/><path d="M168.6 195.4c-8.1 0-14.6-6.6-14.6-14.6 0-8.1 6.6-14.6 14.6-14.6h66.3v29.2h-66.3zM189.7 68.3c1.1 5.3.9 11.5-.8 17.9-4 15-15.1 25.2-24.7 22.6-9.6-2.6-14.1-16.8-10.1-31.9 4-15 15.1-25.2 24.7-22.6 2.8.8 5.2 2.5 7.1 5.1l3.8 8.9zM141.1 55l-14.5 54.2-1.8-.3c-9.6-2.6-14.1-16.8-10.1-31.9 4-15 15.1-25.2 24.7-22.6.6.1 1.2.3 1.7.6zM101.6 55l-14.5 54.2-1.8-.3c-9.6-2.6-14.1-16.8-10.1-31.9 4-15 15.1-25.2 24.7-22.6.6.1 1.2.3 1.7.6zM220.2 106.4v12.8c-1.6-.4-3.2-.6-4.9-.6h-16.1l8.2-30.6c5.3 2 9.6 6.2 11.6 11.5.8 2.2 1.2 4.5 1.2 6.9z" class="st0"/><path d="M231.9 234H128.8c-.3 0-.5-.2-.5-.5s.2-.5.5-.5h102.7v-94.8-1.1H21.1V233h92.6c.3 0 .5.2.5.5s-.2.5-.5.5H20.6c-.3 0-.5-.2-.5-.5v-96.9c0-.3.2-.5.5-.5h211.3c.3 0 .5.2.5.5.1.5.1 1.1.1 1.7v95.3c-.1.1-.3.4-.6.4z" class="st2"/><path d="M204.9 159.2h-39.3c-11.9 0-21.6 9.7-21.6 21.6 0 11.9 9.7 21.6 21.6 21.6h66.3v-43.2h-27z" class="st1"/><path d="M231.9 203.4h-66.3c-12.5 0-22.6-10.1-22.6-22.6s10.1-22.6 22.6-22.6h39.3c.6 0 1 .4 1 1s-.4 1-1 1h-39.3c-11.4 0-20.6 9.2-20.6 20.6 0 11.4 9.2 20.6 20.6 20.6h65.3v-41.2h-18.2c-.6 0-1-.4-1-1s.4-1 1-1h19.2c.6 0 1 .4 1 1v43.2c0 .5-.4 1-1 1z" class="st2"/><path d="M169.1 195.4c-8.1 0-14.6-6.6-14.6-14.6 0-8.1 6.6-14.6 14.6-14.6h66.3v29.2h-66.3z" class="st0"/><path d="M231.9 196.4h-66.3c-8.6 0-15.6-7-15.6-15.6s7-15.6 15.6-15.6h66.3c.6 0 1 .4 1 1v29.2c0 .5-.4 1-1 1zm-66.3-29.2c-7.5 0-13.6 6.1-13.6 13.6s6.1 13.6 13.6 13.6h65.3v-27.2h-65.3z" class="st2"/><path d="M174.3 185c-1.7 3.1-5.1 5.2-8.9 5.2-5.6 0-10.1-4.5-10.1-10.1s4.5-10.1 10.1-10.1 10.1 4.5 10.1 10.1l-1.2 4.9z" class="st1"/><path d="M165.4 190.7c-5.9 0-10.6-4.8-10.6-10.6s4.8-10.6 10.6-10.6 10.6 4.8 10.6 10.6c0 .3-.2.5-.5.5s-.5-.2-.5-.5c0-5.3-4.3-9.6-9.6-9.6s-9.6 4.3-9.6 9.6 4.3 9.6 9.6 9.6c3.5 0 6.7-1.9 8.4-5 .1-.2.4-.3.7-.2.2.1.3.4.2.7-1.9 3.4-5.4 5.5-9.3 5.5zM196.2 119.6h-75.1c-.3 0-.6-.1-.8-.4-.2-.2-.3-.6-.2-.9L150.8 3.7c.1-.5.7-.9 1.2-.7l35.6 9.5c.5.1.8.7.7 1.2s-.7.9-1.2.7l-34.6-9.3-30.1 112.4h73l25.2-94.1-24.7-6.6c-.5-.1-.8-.7-.7-1.2s.7-.8 1.2-.7l25.7 6.9c.3.1.5.2.6.5s.2.5.1.8l-25.7 95.8c-.1.4-.5.7-.9.7z" class="st2"/><path d="M186.5 119.6h-55.8c-.3 0-.6-.1-.8-.4-.2-.2-.3-.6-.2-.9L155 24.1c.1-.5.7-.8 1.2-.7 2 .5 4.1.3 5.9-.8 1.8-1 3.1-2.7 3.6-4.8.1-.3.2-.5.5-.6.2-.1.5-.2.8-.1l35 9.4c.5.1.8.7.7 1.2-1.1 4.2 1.4 8.5 5.5 9.6.5.1.8.7.7 1.2l-21.5 80.3c0 .5-.4.8-.9.8zm-54.5-2h53.7L206.8 39c-4.3-1.7-6.9-6.2-6.2-10.8l-33.2-8.9c-.8 2.1-2.3 3.9-4.3 5s-4.3 1.6-6.5 1.2L132 117.6z" class="st2"/><path d="M182.2 119.1h-47.1c-.2 0-.3-.1-.4-.2-.1-.1-.1-.3-.1-.4l24-89.8c.1-.2.2-.4.5-.4 3.8-.3 7.4-2.3 9.6-5.5.1-.2.3-.3.5-.2l28.2 7.6c.2.1.4.2.4.4.3 3.8 2.3 7.4 5.5 9.6.2.1.3.3.2.5l-20.9 78c0 .2-.2.4-.4.4zm-46.5-1h46l20.7-77.3c-3.2-2.3-5.3-5.9-5.6-9.8l-27.5-7.4c-2.3 3.2-5.9 5.3-9.8 5.6l-23.8 88.9z" class="st2"/><path d="M164.3 109.7c-1.1 0-2.2-.1-3.2-.4-4.8-1.3-8.5-5.4-10.5-11.6-1.9-6.1-1.9-13.5.1-20.9 4.1-15.3 15.4-25.6 25.3-22.9 2.8.8 5.4 2.6 7.4 5.3.2.2.1.5-.1.7-.2.2-.5.1-.7-.1-1.9-2.5-4.2-4.2-6.8-4.9-9.3-2.5-20.1 7.5-24.1 22.2-1.9 7.2-2 14.4-.1 20.3 1.8 5.9 5.3 9.7 9.8 10.9 4.5 1.2 9.4-.4 14-4.6 4.6-4.2 8.2-10.5 10.1-17.7 1.6-6.1 1.9-12.2.8-17.7-.1-.3.1-.5.4-.6.3-.1.5.1.6.4 1.2 5.6.9 11.9-.8 18.1-2 7.4-5.7 13.8-10.4 18.1-3.8 3.6-7.9 5.4-11.8 5.4zM121.1 119.6H81.6c-.3 0-.6-.1-.8-.4-.2-.2-.3-.6-.2-.9L111.3 3.7c.1-.5.7-.9 1.2-.7l36.8 9.9c.3.1.5.2.6.5s.2.5.1.8l-28 104.6c-.1.5-.5.8-.9.8zm-38.2-2h37.4l27.6-103L113 5.2 82.9 117.6z" class="st2"/><path d="M121.1 119.6H91.3c-.3 0-.6-.1-.8-.4-.2-.2-.3-.6-.2-.9L115.5 24c.1-.5.7-.8 1.2-.7 4.2 1.1 8.5-1.4 9.6-5.5.1-.3.2-.5.5-.6.2-.1.5-.2.8-.1l19.3 5.2c.5.1.8.7.7 1.2L122 118.8c-.1.5-.5.8-.9.8zm-28.5-2h27.8l25-93.6-17.4-4.7c-1.6 4.3-6.2 6.9-10.8 6.2l-24.6 92.1z" class="st2"/><path d="M121.1 119.1H95.5c-.2 0-.3-.1-.4-.2-.1-.1-.1-.3-.1-.4l1.7-6.5c.1-.3.3-.4.6-.4.3.1.4.3.4.6l-1.6 5.9h24.5L145 27.4l-15.2-3.7c-2.3 3.2-5.9 5.3-9.8 5.7l-19.9 74.1c-.1.3-.3.4-.6.4-.3-.1-.4-.3-.4-.6l20-74.4c.1-.2.2-.4.5-.4 3.8-.3 7.4-2.3 9.6-5.5.1-.2.3-.3.5-.2l16.1 3.9c.1 0 .2.1.3.2.1.1.1.3.1.4l-24.6 91.6c-.1 0-.3.2-.5.2z" class="st2"/><g><path d="M123.6 109.7c-.7-.1-1.3-.2-2-.4-3.4-.9-6.4-3.3-8.5-7-3.8-6.5-4.5-16-1.9-25.5 4.1-15.3 15.5-25.6 25.3-22.9.7.2 1.3.4 1.9.7.2.1.3.3.3.6l-14.5 54.2c-.2.1-.4.3-.6.3zm9.7-55.3c-8.5 0-17.6 9.4-21.1 22.6-2.5 9.2-1.8 18.5 1.8 24.8 2 3.4 4.7 5.7 7.9 6.5.4.1.9.2 1.3.3l14.3-53.3c-.4-.2-.9-.3-1.3-.4-.9-.3-1.9-.5-2.9-.5z" class="st2"/></g><g><path d="M81.6 119.6H42.1c-.3 0-.6-.1-.8-.4-.2-.2-.3-.6-.2-.9L59 51.7c.1-.5.7-.9 1.2-.7.5.1.9.7.7 1.2l-17.5 65.4h37.4l27.6-103-34.9-9.4L63.1 44c-.1.5-.7.9-1.2.7-.5-.1-.9-.7-.7-1.2L71.8 3.7c.2-.5.7-.8 1.3-.7l36.8 9.9c.3.1.5.2.6.5.1.2.2.5.1.8L82.5 118.8c-.1.5-.5.8-.9.8z" class="st2"/></g><g><path d="M81.6 119.6H51.8c-.3 0-.6-.1-.8-.4-.2-.2-.3-.6-.2-.9L76 24.1c.1-.5.7-.8 1.2-.7 4.2 1.1 8.5-1.4 9.6-5.5.1-.3.2-.5.5-.6.2-.1.5-.2.8-.1l19.3 5.2c.5.1.9.7.7 1.2l-25.6 95.3c-.1.4-.5.7-.9.7zm-28.5-2h27.8l25-93.6-17.4-4.7c-1.6 4.3-6.2 6.9-10.8 6.2l-24.6 92.1z" class="st2"/></g><g><path d="M81.6 119.1H56.2c-.2 0-.3-.1-.4-.2s-.1-.3-.1-.4l24-89.8c.1-.2.2-.4.5-.4 3.8-.3 7.4-2.3 9.6-5.5.1-.2.3-.3.5-.2l15.9 4.2c.1 0 .2.1.3.2.1.1.1.3.1.4l-24.5 91.3c-.1.2-.3.4-.5.4zm-24.7-1h24.3l24.3-90.5-15.1-4c-2.3 3.2-5.9 5.3-9.8 5.6l-23.7 88.9z" class="st2"/></g><g><path d="M84.1 109.7c-.7-.1-1.3-.2-2-.4-3.4-.9-6.4-3.3-8.5-7-3.8-6.5-4.5-16-1.9-25.5C75.8 61.5 87.2 51.2 97 53.9c.7.2 1.3.4 1.9.7.2.1.3.3.3.6l-14.5 54.2c-.2.1-.4.3-.6.3zm9.7-55.3c-8.5 0-17.6 9.4-21.1 22.6-2.5 9.2-1.8 18.5 1.8 24.8 2 3.4 4.7 5.7 7.9 6.5.4.1.9.2 1.3.3L98 55.3c-.4-.2-.9-.3-1.3-.4-.9-.3-1.9-.5-2.9-.5z" class="st2"/></g><g><path d="M217.2 120.2h-.3c-1.5-.4-3.1-.6-4.6-.6h-16.1c-.3 0-.6-.1-.8-.4-.2-.2-.3-.6-.2-.9l8.2-30.6c.1-.3.3-.5.5-.6.2-.1.5-.1.8-.1 5.6 2.1 10.1 6.5 12.2 12.1.9 2.3 1.3 4.7 1.3 7.2v12.8c0 .3-.1.6-.4.8-.1.2-.4.3-.6.3zm-19.7-2.6h14.8c1.3 0 2.6.1 3.9.4v-11.5c0-2.3-.4-4.5-1.2-6.5-1.8-4.7-5.4-8.5-10-10.5l-7.5 28.1z" class="st2"/></g></svg>