<?xml version="1.0" encoding="utf-8"?>
<!-- Generator: Adobe Illustrator 22.1.0, SVG Export Plug-In . SVG Version: 6.00 Build 0)  -->
<svg version="1.1" id="Layer_1" xmlns="http://www.w3.org/2000/svg" xmlns:xlink="http://www.w3.org/1999/xlink" x="0px" y="0px"
	 viewBox="0 0 256 256" style="enable-background:new 0 0 256 256;" xml:space="preserve">
<style type="text/css">
	.st0{fill:#FFFFFF;}
	.st1{fill:#48386A;}
	.st2{fill:#9FEAFF;}
</style>
<g>
	<path class="st0" d="M56.4,125.1h16.2c2.7,0,4.9,2.2,4.9,4.9c0,1.4-0.5,2.6-1.4,3.5c-0.9,0.9-2.1,1.4-3.5,1.4H8
		c-2.7,0-4.9-2.2-4.9-4.9c0-1.4,0.5-2.6,1.4-3.5c0.9-0.9,2.1-1.4,3.5-1.4h41.4H56.4z"/>
	<path class="st0" d="M175.6,130c0,1.4,0.5,2.6,1.4,3.5c0.9,0.9,2.1,1.4,3.5,1.4h64.6c2.7,0,4.9-2.2,4.9-4.9c0-1.4-0.5-2.6-1.4-3.5
		c-0.9-0.9-2.1-1.4-3.5-1.4h-64.6C177.8,125.1,175.6,127.3,175.6,130z"/>
	<g>
		<rect x="80.2" y="208.6" class="st0" width="79.6" height="14"/>
		<path class="st1" d="M159.9,223.6H80.2c-0.6,0-1-0.4-1-1v-14c0-0.6,0.4-1,1-1h79.6c0.6,0,1,0.4,1,1v14
			C160.9,223.2,160.4,223.6,159.9,223.6z M81.2,221.6h77.6v-12H81.2V221.6z"/>
	</g>
	<g>
		<polygon class="st0" points="85.1,236.7 66.4,236.7 66.4,222.6 173.7,222.6 173.7,236.7 91.8,236.7 		"/>
		<path class="st1" d="M173.7,237.7h-82c-0.6,0-1-0.4-1-1s0.4-1,1-1h81v-12H67.4v12h17.8c0.6,0,1,0.4,1,1s-0.4,1-1,1H66.4
			c-0.6,0-1-0.4-1-1v-14c0-0.6,0.4-1,1-1h107.4c0.6,0,1,0.4,1,1v14C174.7,237.2,174.3,237.7,173.7,237.7z"/>
	</g>
	<g>
		<polygon class="st0" points="131.3,123.2 131.3,194.6 108.8,194.6 108.8,62.9 131.3,62.9 131.3,107.6 		"/>
		<path class="st1" d="M131.3,195.6h-22.5c-0.6,0-1-0.4-1-1V62.9c0-0.6,0.4-1,1-1h22.5c0.6,0,1,0.4,1,1v44.7c0,0.6-0.4,1-1,1
			s-1-0.4-1-1V63.9h-20.5v129.7h20.5v-70.3c0-0.6,0.4-1,1-1s1,0.4,1,1v71.3C132.3,195.1,131.9,195.6,131.3,195.6z"/>
	</g>
	<g>
		<path class="st1" d="M131.3,117.9c-0.6,0-1-0.4-1-1v-2.9c0-0.6,0.4-1,1-1s1,0.4,1,1v2.9C132.3,117.4,131.9,117.9,131.3,117.9z"/>
	</g>
	<rect x="116.1" y="62.9" class="st2" width="12.7" height="132.2"/>
	<g>
		<path class="st0" d="M131.3,30.6v15.7h-22.5V30.6c0-6.2,5-11.3,11.3-11.3c3.1,0,5.9,1.3,8,3.3C130,24.7,131.3,27.5,131.3,30.6z"/>
		<path class="st1" d="M131.3,47.3h-22.5c-0.6,0-1-0.4-1-1V30.6c0-6.8,5.5-12.3,12.3-12.3c3.3,0,6.4,1.3,8.7,3.6
			c2.3,2.3,3.6,5.4,3.6,8.7v15.7C132.3,46.8,131.9,47.3,131.3,47.3z M109.8,45.3h20.5V30.6c0-2.7-1.1-5.3-3-7.3
			c-1.9-1.9-4.5-3-7.3-3c-5.7,0-10.3,4.6-10.3,10.3V45.3z"/>
	</g>
	<path class="st2" d="M128.9,30.6v15.7h-12.7V30.6c0-3.5,2.9-6.4,6.4-6.4S128.9,27.1,128.9,30.6z"/>
	<g>
		<path class="st1" d="M126.4,46.8h-12.7c-0.3,0-0.5-0.2-0.5-0.5V30.6c0-3.8,3.1-6.9,6.9-6.9s6.9,3.1,6.9,6.9v15.7
			C126.9,46.5,126.7,46.8,126.4,46.8z M114.2,45.8h11.7V30.6c0-3.2-2.6-5.9-5.9-5.9s-5.9,2.6-5.9,5.9V45.8z"/>
	</g>
	<g>
		<path class="st1" d="M126.4,195.6h-12.7c-0.3,0-0.5-0.2-0.5-0.5V62.9c0-0.3,0.2-0.5,0.5-0.5h12.7c0.3,0,0.5,0.2,0.5,0.5v132.2
			C126.9,195.3,126.7,195.6,126.4,195.6z M114.2,194.6h11.7V63.4h-11.7V194.6z"/>
	</g>
	<g>
		<path class="st0" d="M156.4,46.3h47.5c0.7,4.7,4.8,8.3,9.7,8.3s9-3.6,9.7-8.3h1.1c4.6,0,8.3,3.7,8.3,8.3c0,2.3-0.9,4.4-2.4,5.9
			c-1.5,1.5-3.6,2.4-5.9,2.4H29.5c-4.6,0-8.3-3.7-8.3-8.3c0-2.3,0.9-4.4,2.4-5.9c1.5-1.5,3.6-2.4,5.9-2.4h1.1
			c0.7,4.7,4.8,8.3,9.7,8.3s9-3.6,9.7-8.3h99.9H156.4z"/>
		<path class="st1" d="M224.3,63.9H29.5c-5.1,0-9.3-4.2-9.3-9.3c0-2.5,1-4.8,2.7-6.6c1.8-1.8,4.1-2.7,6.6-2.7h1.1
			c0.5,0,0.9,0.4,1,0.9c0.6,4.3,4.4,7.5,8.7,7.5s8-3.2,8.7-7.5c0.1-0.5,0.5-0.9,1-0.9h99.9c0.6,0,1,0.4,1,1s-0.4,1-1,1H50.8
			c-1.1,4.8-5.5,8.3-10.5,8.3c-5,0-9.4-3.5-10.5-8.3h-0.3c-2,0-3.8,0.8-5.2,2.1c-1.4,1.4-2.1,3.2-2.1,5.2c0,4,3.3,7.3,7.3,7.3h194.8
			c2,0,3.8-0.8,5.2-2.1c1.4-1.4,2.1-3.2,2.1-5.2c0-4-3.3-7.3-7.3-7.3H224c-1.1,4.8-5.5,8.3-10.5,8.3c-5,0-9.4-3.5-10.5-8.3h-46.7
			c-0.6,0-1-0.4-1-1s0.4-1,1-1h47.5c0.5,0,0.9,0.4,1,0.9c0.6,4.3,4.4,7.5,8.7,7.5s8-3.2,8.7-7.5c0.1-0.5,0.5-0.9,1-0.9h1.1
			c5.1,0,9.3,4.2,9.3,9.3c0,2.5-1,4.8-2.7,6.6C229.1,62.9,226.8,63.9,224.3,63.9z"/>
	</g>
	<path class="st2" d="M209.1,58.5c-3-1.4-5.4-3.9-6.9-6.9h-75.6c0.7,1,1.1,2.1,1.1,3.4s-0.4,2.5-1.1,3.4H209.1z M82.9,58.5h34.4
		c-0.7-1-1.1-2.1-1.1-3.4s0.4-2.5,1.1-3.4H55.4c-1.4,3-3.9,5.4-6.9,6.9h25.6H82.9z"/>
	<path class="st2" d="M124.7,55.1c0,0.6-0.2,1.2-0.5,1.6c-0.5,0.7-1.3,1.1-2.2,1.1s-1.7-0.4-2.2-1.1c-0.3-0.5-0.5-1-0.5-1.6
		s0.2-1.2,0.5-1.6c0.5-0.7,1.3-1.1,2.2-1.1s1.7,0.4,2.2,1.1C124.5,53.9,124.7,54.5,124.7,55.1z"/>
	<g>
		<rect x="93.9" y="194.6" class="st0" width="52.2" height="14"/>
		<path class="st1" d="M146.2,209.6H93.9c-0.6,0-1-0.4-1-1v-14c0-0.6,0.4-1,1-1h52.2c0.6,0,1,0.4,1,1v14
			C147.2,209.2,146.7,209.6,146.2,209.6z M94.9,207.6h50.2v-12H94.9V207.6z"/>
	</g>
	<g>
		<path class="st1" d="M207.2,58.5h-82.4c-0.2,0-0.4-0.1-0.4-0.3c-0.1-0.2-0.1-0.4,0-0.5c0.7-0.9,1-2,1-3.1c0-1.1-0.4-2.2-1-3.1
			c-0.1-0.2-0.1-0.4,0-0.5s0.3-0.3,0.4-0.3h75.6c0.2,0,0.4,0.1,0.5,0.3c1.4,2.9,3.7,5.2,6.6,6.6c0.2,0.1,0.3,0.3,0.3,0.6
			C207.6,58.3,207.4,58.5,207.2,58.5z M125.6,57.5h79.6c-2.2-1.5-4.1-3.5-5.3-5.9h-74.4c0.5,0.9,0.7,1.9,0.7,2.9
			C126.4,55.6,126.1,56.6,125.6,57.5z M115.4,58.5H81c-0.3,0-0.5-0.2-0.5-0.5s0.2-0.5,0.5-0.5h33.5c-0.5-0.9-0.7-1.9-0.7-2.9
			c0-1,0.2-2,0.7-2.9H53.8c-1.2,2.4-3,4.4-5.3,5.9h23.7c0.3,0,0.5,0.2,0.5,0.5s-0.2,0.5-0.5,0.5H46.6c-0.2,0-0.4-0.2-0.5-0.4
			c-0.1-0.2,0.1-0.5,0.3-0.6c2.9-1.4,5.2-3.7,6.6-6.6c0.1-0.2,0.3-0.3,0.5-0.3h61.9c0.2,0,0.4,0.1,0.4,0.3s0.1,0.4,0,0.5
			c-0.7,0.9-1,2-1,3.1c0,1.1,0.4,2.2,1,3.1c0.1,0.2,0.1,0.4,0,0.5C115.7,58.4,115.6,58.5,115.4,58.5z"/>
	</g>
	<path class="st2" d="M59.3,125.1h16.2c2.7,0,4.9,2.2,4.9,4.9c0,1.4-0.5,2.6-1.4,3.5c-0.9,0.9-2.1,1.4-3.5,1.4H10.9
		c-2.7,0-4.9-2.2-4.9-4.9c0-1.4,0.5-2.6,1.4-3.5c0.9-0.9,2.1-1.4,3.5-1.4h41.4H59.3z"/>
	<path class="st2" d="M178.5,130c0,1.4,0.5,2.6,1.4,3.5c0.9,0.9,2.1,1.4,3.5,1.4H248c2.7,0,4.9-2.2,4.9-4.9c0-1.4-0.5-2.6-1.4-3.5
		c-0.9-0.9-2.1-1.4-3.5-1.4h-64.6C180.7,125.1,178.5,127.3,178.5,130z"/>
	<g>
		<path class="st1" d="M72.6,135.9H8c-3.3,0-5.9-2.6-5.9-5.9c0-1.6,0.6-3,1.7-4.2c1.1-1.1,2.6-1.7,4.2-1.7h41.4c0.6,0,1,0.4,1,1
			s-0.4,1-1,1H8c-1,0-2,0.4-2.8,1.1c-0.7,0.7-1.1,1.7-1.1,2.8c0,2.1,1.7,3.9,3.9,3.9h64.6c1,0,2-0.4,2.8-1.1
			c0.7-0.7,1.1-1.7,1.1-2.8c0-2.1-1.7-3.9-3.9-3.9H56.4c-0.6,0-1-0.4-1-1s0.4-1,1-1h16.2c3.3,0,5.9,2.6,5.9,5.9c0,1.6-0.6,3-1.7,4.2
			C75.6,135.2,74.1,135.9,72.6,135.9z"/>
	</g>
	<g>
		<path class="st1" d="M8.9,126.1c-0.1,0-0.3,0-0.4-0.1c-0.5-0.2-0.7-0.8-0.5-1.3l31.3-70.5c0.2-0.5,0.8-0.7,1.3-0.5
			c0.5,0.2,0.7,0.8,0.5,1.3L9.9,125.5C9.7,125.8,9.3,126.1,8.9,126.1z"/>
	</g>
	<g>
		<path class="st1" d="M70.6,126.1c-0.4,0-0.8-0.2-0.9-0.6L42.4,63.3c-0.2-0.5,0-1.1,0.5-1.3c0.5-0.2,1.1,0,1.3,0.5l27.3,62.2
			c0.2,0.5,0,1.1-0.5,1.3C70.9,126,70.7,126.1,70.6,126.1z"/>
	</g>
	<g>
		<path class="st0" d="M20.2,155.3c-6.2-5-10.6-12.2-11.9-20.4h63.9c-2.3,15.5-15.8,27.4-31.9,27.4c-5.7,0-11-1.5-15.7-4L20.2,155.3
			z"/>
		<path class="st1" d="M40.3,163.3c-5.7,0-11.2-1.4-16.1-4.2c-0.5-0.3-0.7-0.9-0.4-1.4c0.3-0.5,0.9-0.7,1.4-0.4
			c4.6,2.6,9.9,3.9,15.2,3.9c15,0,28-10.8,30.7-25.4H9.5c1.4,7.3,5.4,13.9,11.3,18.6c0.4,0.3,0.5,1,0.2,1.4c-0.3,0.4-1,0.5-1.4,0.2
			c-6.6-5.3-11-12.7-12.2-21c0-0.3,0-0.6,0.2-0.8c0.2-0.2,0.5-0.3,0.8-0.3h63.9c0.3,0,0.6,0.1,0.8,0.3c0.2,0.2,0.3,0.5,0.2,0.8
			C70.7,151.1,56.6,163.3,40.3,163.3z"/>
	</g>
	<g>
		<path class="st1" d="M40.3,157.9c-11.5,0-21.9-7.2-26.1-17.9c-0.1-0.3,0-0.5,0.3-0.6c0.3-0.1,0.5,0,0.6,0.3
			c4,10.3,14.1,17.3,25.1,17.3c11,0,21.2-7,25.1-17.3c0.1-0.3,0.4-0.4,0.6-0.3c0.3,0.1,0.4,0.4,0.3,0.6
			C62.2,150.7,51.7,157.9,40.3,157.9z"/>
	</g>
	<g>
		<path class="st1" d="M245.1,135.9h-64.6c-1.6,0-3-0.6-4.2-1.7c-1.1-1.1-1.7-2.6-1.7-4.2c0-3.3,2.6-5.9,5.9-5.9h64.6
			c1.6,0,3,0.6,4.2,1.7c1.1,1.1,1.7,2.6,1.7,4.2C251,133.2,248.4,135.9,245.1,135.9z M180.5,126.1c-2.1,0-3.9,1.7-3.9,3.9
			c0,1,0.4,2,1.1,2.8c0.7,0.7,1.7,1.1,2.8,1.1h64.6c2.1,0,3.9-1.7,3.9-3.9c0-1-0.4-2-1.1-2.8c-0.7-0.7-1.7-1.1-2.8-1.1H180.5z"/>
	</g>
	<g>
		<path class="st1" d="M244.1,126.1c-0.4,0-0.7-0.2-0.9-0.6L211.9,55c-0.2-0.5,0-1.1,0.5-1.3c0.5-0.2,1.1,0,1.3,0.5l31.3,70.5
			c0.2,0.5,0,1.1-0.5,1.3C244.4,126,244.3,126.1,244.1,126.1z"/>
	</g>
	<g>
		<path class="st1" d="M182.4,126.1c-0.1,0-0.3,0-0.4-0.1c-0.5-0.2-0.7-0.8-0.5-1.3l27.3-62.2c0.2-0.5,0.8-0.7,1.3-0.5
			c0.5,0.2,0.7,0.8,0.5,1.3l-27.3,62.2C183.2,125.8,182.8,126.1,182.4,126.1z"/>
	</g>
	<g>
		<path class="st0" d="M180.9,134.9c2.3,15.5,15.8,27.4,31.9,27.4s29.6-11.9,31.9-27.4H180.9z"/>
		<path class="st1" d="M212.8,163.3c-16.3,0-30.5-12.1-32.9-28.3c0-0.3,0-0.6,0.2-0.8c0.2-0.2,0.5-0.3,0.8-0.3h63.9
			c0.3,0,0.6,0.1,0.8,0.3c0.2,0.2,0.3,0.5,0.2,0.8C243.3,151.1,229.1,163.3,212.8,163.3z M182,135.9c2.8,14.6,15.8,25.4,30.7,25.4
			c15,0,28-10.8,30.7-25.4H182z"/>
	</g>
	<g>
		<path class="st1" d="M212.8,157.9c-11.5,0-21.9-7.2-26.1-17.9c-0.1-0.3,0-0.5,0.3-0.6c0.3-0.1,0.5,0,0.6,0.3
			c4,10.3,14.1,17.3,25.1,17.3c11,0,21.2-7,25.1-17.3c0.1-0.3,0.4-0.4,0.6-0.3c0.3,0.1,0.4,0.4,0.3,0.6
			C234.7,150.7,224.3,157.9,212.8,157.9z"/>
	</g>
	<g>
		<path class="st1" d="M77.5,130.5H3.1c-0.3,0-0.5-0.2-0.5-0.5s0.2-0.5,0.5-0.5h74.4c0.3,0,0.5,0.2,0.5,0.5S77.7,130.5,77.5,130.5z"
			/>
	</g>
	<g>
		<path class="st1" d="M250,130.5h-41.4c-0.3,0-0.5-0.2-0.5-0.5s0.2-0.5,0.5-0.5H250c0.3,0,0.5,0.2,0.5,0.5S250.3,130.5,250,130.5z"
			/>
	</g>
	<g>
		<path class="st1" d="M201.4,130.5h-25.8c-0.3,0-0.5-0.2-0.5-0.5s0.2-0.5,0.5-0.5h25.8c0.3,0,0.5,0.2,0.5,0.5
			S201.7,130.5,201.4,130.5z"/>
	</g>
	
		<rect x="120.4" y="182.8" transform="matrix(-1.836970e-16 1 -1 -1.836970e-16 328.9805 79.0875)" class="st2" width="9.1" height="42.4"/>
	<polygon class="st2" points="110.3,213.5 159.9,213.5 159.9,222.6 90,222.6 90,213.5 102.5,213.5 	"/>
	<polygon class="st2" points="89.3,236.7 76.2,236.7 76.2,227.5 173.7,227.5 173.7,236.7 98.1,236.7 	"/>
	<g>
		<path class="st1" d="M141.3,209.1H98.8c-0.3,0-0.5-0.2-0.5-0.5v-9.1c0-0.3,0.2-0.5,0.5-0.5h42.4c0.3,0,0.5,0.2,0.5,0.5v9.1
			C141.8,208.9,141.5,209.1,141.3,209.1z M99.3,208.1h41.4V200H99.3V208.1z"/>
	</g>
	<g>
		<path class="st1" d="M155,223.1H85.1c-0.3,0-0.5-0.2-0.5-0.5v-9.1c0-0.3,0.2-0.5,0.5-0.5h12.5c0.3,0,0.5,0.2,0.5,0.5
			s-0.2,0.5-0.5,0.5h-12v8.1h68.8V214h-49.1c-0.3,0-0.5-0.2-0.5-0.5s0.2-0.5,0.5-0.5H155c0.3,0,0.5,0.2,0.5,0.5v9.1
			C155.5,222.9,155.2,223.1,155,223.1z"/>
	</g>
	<g>
		<path class="st1" d="M168.8,237.2H93.2c-0.3,0-0.5-0.2-0.5-0.5s0.2-0.5,0.5-0.5h75.1V228H71.8v8.1h12.7c0.3,0,0.5,0.2,0.5,0.5
			s-0.2,0.5-0.5,0.5H71.3c-0.3,0-0.5-0.2-0.5-0.5v-9.1c0-0.3,0.2-0.5,0.5-0.5h97.6c0.3,0,0.5,0.2,0.5,0.5v9.1
			C169.3,236.9,169.1,237.2,168.8,237.2z"/>
	</g>
	<g>
		<path class="st1" d="M120.1,60.9c-2,0-3.9-1-5.1-2.6c-0.8-1.1-1.2-2.4-1.2-3.7c0-1.4,0.4-2.6,1.2-3.7c1.2-1.6,3.1-2.6,5.1-2.6
			s3.9,1,5.1,2.6c0.8,1.1,1.2,2.4,1.2,3.7c0,1.4-0.4,2.6-1.2,3.7C124,59.9,122.1,60.9,120.1,60.9z M120.1,49.3
			c-1.7,0-3.3,0.8-4.3,2.2c-0.7,0.9-1,2-1,3.1c0,1.1,0.4,2.2,1,3.1c1,1.4,2.6,2.2,4.3,2.2c1.7,0,3.3-0.8,4.3-2.2c0.7-0.9,1-2,1-3.1
			c0-1.1-0.4-2.2-1-3.1C123.3,50.1,121.7,49.3,120.1,49.3z"/>
	</g>
	<g>
		<path class="st1" d="M120.1,57.8c-1,0-2-0.5-2.6-1.3c-0.4-0.5-0.6-1.2-0.6-1.9c0-0.7,0.2-1.4,0.6-1.9c0.6-0.8,1.6-1.3,2.6-1.3
			c1,0,2,0.5,2.6,1.3c0.4,0.5,0.6,1.2,0.6,1.9c0,0.7-0.2,1.4-0.6,1.9C122.1,57.3,121.1,57.8,120.1,57.8z M120.1,52.3
			c-0.7,0-1.4,0.3-1.8,0.9c-0.3,0.4-0.4,0.8-0.4,1.3c0,0.5,0.1,0.9,0.4,1.3c0.4,0.6,1.1,0.9,1.8,0.9c0.7,0,1.4-0.3,1.8-0.9
			c0.3-0.4,0.4-0.8,0.4-1.3c0-0.5-0.1-0.9-0.4-1.3C121.4,52.7,120.8,52.3,120.1,52.3z"/>
	</g>
	<g>
		<path class="st1" d="M159.9,223.6H80.2c-0.6,0-1-0.4-1-1v-14c0-0.6,0.4-1,1-1h79.6c0.6,0,1,0.4,1,1v14
			C160.9,223.2,160.4,223.6,159.9,223.6z M81.2,221.6h77.6v-12H81.2V221.6z"/>
	</g>
	<g>
		<path class="st1" d="M173.7,237.7h-82c-0.6,0-1-0.4-1-1s0.4-1,1-1h81v-12H67.4v12h17.8c0.6,0,1,0.4,1,1s-0.4,1-1,1H66.4
			c-0.6,0-1-0.4-1-1v-14c0-0.6,0.4-1,1-1h107.4c0.6,0,1,0.4,1,1v14C174.7,237.2,174.3,237.7,173.7,237.7z"/>
	</g>
	<g>
		<path class="st1" d="M146.2,209.6H93.9c-0.6,0-1-0.4-1-1v-14c0-0.6,0.4-1,1-1h52.2c0.6,0,1,0.4,1,1v14
			C147.2,209.2,146.7,209.6,146.2,209.6z M94.9,207.6h50.2v-12H94.9V207.6z"/>
	</g>
</g>
</svg>
