<?xml version="1.0" encoding="utf-8"?>
<!-- Generator: Adobe Illustrator 22.1.0, SVG Export Plug-In . SVG Version: 6.00 Build 0)  -->
<svg version="1.1" id="Layer_1" xmlns="http://www.w3.org/2000/svg" xmlns:xlink="http://www.w3.org/1999/xlink" x="0px" y="0px"
	 viewBox="0 0 256 256" style="enable-background:new 0 0 256 256;" xml:space="preserve">
<style type="text/css">
	.st0{fill:#DBFDFF;}
	.st1{fill:#9FEAFF;}
	.st2{fill:#FFFFED;}
	.st3{fill:#FFFFFF;}
	.st4{fill:#48386A;}
	.st5{fill:#FEBE7F;}
	.st6{fill:#FF8584;}
</style>
<g>
	<path class="st0" d="M240.9,119.1c1.5-4.8,2.3-9.8,2.3-15.1c0-27.9-22.6-50.5-50.5-50.5s-50.5,22.6-50.5,50.5
		c0,9.4,2.6,18.1,7,25.7c-1.5,4.8-2.3,9.8-2.3,15.1c0,2,0.1,3.9,0.3,5.8c-7.5-4.3-16.1-6.8-25.4-6.8c-9.9,0-19.2,2.9-27,7.8
		c-7.4-4.3-16.1-6.8-25.3-6.8c-27.9,0-50.5,22.6-50.5,50.5c0,27.9,22.6,50.5,50.5,50.5c9.9,0,19.2-2.9,27-7.8
		c7.4,4.3,16.1,6.8,25.3,6.8c27.9,0,50.5-22.6,50.5-50.5c0-2-0.1-3.9-0.3-5.8c7.5,4.3,16.1,6.8,25.4,6.8c27.9,0,50.5-22.6,50.5-50.5
		C247.9,135.4,245.3,126.7,240.9,119.1z"/>
	<g>
		<path class="st1" d="M226,35.6v13.1H4.7V35.6c0-6.9,5.6-12.6,12.6-12.6h6.3v9.1c0,5.4,4.4,9.7,9.7,9.7s9.7-4.4,9.7-9.7V23h21.5
			v9.1c0,5.4,4.3,9.7,9.7,9.7h0c5.4,0,9.7-4.4,9.7-9.7V23h21.5v9.1c0,5.4,4.4,9.7,9.7,9.7s9.7-4.4,9.7-9.7V23h21.5v9.1
			c0,5.4,4.3,9.7,9.7,9.7h0c5.4,0,9.7-4.4,9.7-9.7V23h21.5v9.1c0,5.4,4.4,9.7,9.7,9.7c5.4,0,9.7-4.4,9.7-9.7V23h6.3
			C220.3,23,226,28.6,226,35.6z"/>
		<path class="st2" d="M26.1,221.7h-8.8c-6.9,0-12.6-5.6-12.6-12.6V62.1H226v67.1c-11.6-8.9-26-14.2-41.7-14.2
			c-37.8,0-68.4,30.6-68.4,68.4c0,14.2,4.3,27.4,11.7,38.3H38.8H26.1z"/>
		<path class="st3" d="M125.1,15.8v16.4c0,5.4-4.4,9.7-9.7,9.7s-9.7-4.4-9.7-9.7V13.9c0-5.4,4.4-9.7,9.7-9.7c2.7,0,5.1,1.1,6.9,2.9
			c0.7,0.7,1.3,1.6,1.8,2.5L125.1,15.8z"/>
		<path class="st3" d="M207.1,13.9v18.2c0,5.4-4.4,9.7-9.7,9.7c-5.4,0-9.7-4.4-9.7-9.7V13.9c0-5.4,4.4-9.7,9.7-9.7
			c2.7,0,5.1,1.1,6.9,2.9C206,8.8,207.1,11.2,207.1,13.9z"/>
		<path class="st3" d="M166.1,13.9v18.2c0,5.4-4.4,9.7-9.7,9.7h0c-5.4,0-9.7-4.4-9.7-9.7V13.9c0-5.4,4.3-9.7,9.7-9.7h0
			C161.7,4.1,166.1,8.5,166.1,13.9z"/>
		<path class="st3" d="M74.3,4.1c5.4,0,9.7,4.4,9.7,9.7v18.2c0,5.4-4.3,9.7-9.7,9.7h0c-5.4,0-9.7-4.4-9.7-9.7V13.9
			c0-2.8,1.2-5.4,3.1-7.2L74.3,4.1z"/>
		<path class="st3" d="M43,13.9v18.2c0,5.4-4.4,9.7-9.7,9.7s-9.7-4.4-9.7-9.7V13.9c0-5.4,4.4-9.7,9.7-9.7c2.7,0,5.1,1.1,6.9,2.9
			C42,8.8,43,11.2,43,13.9z"/>
		<path class="st3" d="M245.1,152c4.9,9.4,7.6,20.1,7.6,31.5c0,37.8-30.6,68.4-68.4,68.4c-23.6,0-44.4-11.9-56.7-30.1
			c-2.2-3.2-4.1-6.7-5.7-10.3c-3.8-8.6-6-18.1-6-28c0-3,0.2-6,0.6-9c1.3-10.2,4.9-19.7,10.3-28c4.1-6.4,9.3-12.1,15.2-16.8
			c9.1-7.2,20.1-12.1,32.1-13.9c3.3-0.5,6.8-0.8,10.3-0.8c11.6,0,22.5,2.9,32.1,8c3.4,1.8,6.6,3.9,9.6,6.2
			c4.3,3.3,8.2,7.1,11.6,11.3L245.1,152z"/>
		<g>
			<path class="st4" d="M226,49.7H4.7c-0.6,0-1-0.4-1-1V35.6C3.7,28.1,9.8,22,17.3,22h6.3c0.6,0,1,0.4,1,1v9.1
				c0,4.8,3.9,8.7,8.7,8.7c4.8,0,8.7-3.9,8.7-8.7V23c0-0.6,0.4-1,1-1h21.5c0.6,0,1,0.4,1,1v9.1c0,4.8,3.9,8.7,8.7,8.7
				c4.8,0,8.7-3.9,8.7-8.7V23c0-0.6,0.4-1,1-1h21.5c0.6,0,1,0.4,1,1v9.1c0,4.8,3.9,8.7,8.7,8.7s8.7-3.9,8.7-8.7V23c0-0.6,0.4-1,1-1
				h21.5c0.6,0,1,0.4,1,1v9.1c0,4.8,3.9,8.7,8.7,8.7c4.8,0,8.8-3.9,8.8-8.7V23c0-0.6,0.4-1,1-1h21.5c0.6,0,1,0.4,1,1v9.1
				c0,4.8,3.9,8.7,8.7,8.7c4.8,0,8.7-3.9,8.7-8.7V23c0-0.6,0.4-1,1-1h6.3c7.5,0,13.6,6.1,13.6,13.6v13.1
				C227,49.2,226.5,49.7,226,49.7z M5.7,47.7H225V35.6c0-6.4-5.2-11.6-11.6-11.6h-5.3v8.1c0,5.9-4.8,10.7-10.7,10.7
				c-5.9,0-10.7-4.8-10.7-10.7V24h-19.5v8.1c0,5.9-4.8,10.7-10.7,10.7c-5.9,0-10.7-4.8-10.7-10.7V24h-19.5v8.1
				c0,5.9-4.8,10.7-10.7,10.7s-10.7-4.8-10.7-10.7V24H85.1v8.1c0,5.9-4.8,10.7-10.7,10.7c-5.9,0-10.7-4.8-10.7-10.7V24H44v8.1
				c0,5.9-4.8,10.7-10.7,10.7c-5.9,0-10.7-4.8-10.7-10.7V24h-5.3c-6.4,0-11.6,5.2-11.6,11.6V47.7z"/>
		</g>
		<rect x="7.7" y="48.7" class="st5" width="221.3" height="13.4"/>
		<rect x="18" y="183.4" class="st6" width="32.1" height="28"/>
		<polygon class="st6" points="92.4,202 92.4,211.5 60.3,211.5 60.3,183.4 92.4,183.4 92.4,194.8 		"/>
		<path class="st6" d="M124.8,211.5h-22.2v-28h16.2C118.8,193.4,121,202.9,124.8,211.5z"/>
		<g>
			<path class="st4" d="M226,63.1H4.7c-0.6,0-1-0.4-1-1V48.7c0-0.6,0.4-1,1-1H226c0.6,0,1,0.4,1,1v13.4
				C227,62.6,226.5,63.1,226,63.1z M5.7,61.1H225V49.7H5.7V61.1z"/>
		</g>
		<g>
			<path class="st4" d="M35,222.7H32c-0.6,0-1-0.4-1-1s0.4-1,1-1H35c0.6,0,1,0.4,1,1S35.6,222.7,35,222.7z"/>
		</g>
		<g>
			<path class="st4" d="M127.6,222.7H38.8c-0.6,0-1-0.4-1-1s0.4-1,1-1h86.9c-7.1-11.1-10.9-24-10.9-37.3c0-38.3,31.1-69.4,69.4-69.4
				c14.8,0,28.8,4.5,40.7,13.2V63.1H5.7v146.1c0,6.4,5.2,11.6,11.6,11.6h8.8c0.6,0,1,0.4,1,1s-0.4,1-1,1h-8.8
				c-7.5,0-13.6-6.1-13.6-13.6V62.1c0-0.6,0.4-1,1-1H226c0.6,0,1,0.4,1,1v67.1c0,0.4-0.2,0.7-0.6,0.9c-0.3,0.2-0.7,0.1-1.1-0.1
				c-11.9-9.1-26.1-13.9-41.1-13.9c-37.2,0-67.4,30.3-67.4,67.4c0,13.5,4,26.6,11.5,37.7c0.2,0.3,0.2,0.7,0.1,1
				C128.3,222.5,127.9,222.7,127.6,222.7z"/>
		</g>
		<g>
			<path class="st4" d="M115.3,42.9c-5.9,0-10.7-4.8-10.7-10.7V13.9c0-5.9,4.8-10.7,10.7-10.7c2.9,0,5.6,1.1,7.6,3.1
				c0.8,0.8,1.5,1.7,2,2.8c0.2,0.5,0.1,1.1-0.4,1.3c-0.5,0.2-1.1,0.1-1.3-0.4c-0.4-0.8-1-1.6-1.6-2.2c-1.7-1.7-3.8-2.6-6.2-2.6
				c-4.8,0-8.7,3.9-8.7,8.7v18.2c0,4.8,3.9,8.7,8.7,8.7s8.7-3.9,8.7-8.7V15.8c0-0.6,0.4-1,1-1s1,0.4,1,1v16.4
				C126.1,38,121.3,42.9,115.3,42.9z"/>
		</g>
		<path class="st6" d="M118.3,36.8c-2.6,0-4.7-2.1-4.7-4.7V13.9c0-2.6,2.1-4.7,4.7-4.7c1.3,0,2.4,0.5,3.3,1.4
			c0.9,0.9,1.4,2.1,1.4,3.3v18.2C123,34.7,120.9,36.8,118.3,36.8z"/>
		<path class="st6" d="M205.1,21.4v10.7c0,2.6-2.1,4.7-4.7,4.7s-4.7-2.1-4.7-4.7V13.9c0-2.6,2.1-4.7,4.7-4.7c1.3,0,2.4,0.5,3.3,1.4
			c0.9,0.9,1.4,2.1,1.4,3.3v2.9V21.4z"/>
		<path class="st6" d="M159.3,36.8c-2.6,0-4.7-2.1-4.7-4.7V13.9c0-2.6,2.1-4.7,4.7-4.7c2.6,0,4.7,2.1,4.7,4.7v18.2
			C164.1,34.7,162,36.8,159.3,36.8L159.3,36.8z"/>
		<path class="st6" d="M77.3,36.8c-2.6,0-4.7-2.1-4.7-4.7V13.9c0-2.6,2.1-4.7,4.7-4.7c2.6,0,4.7,2.1,4.7,4.7v18.2
			C82,34.7,79.9,36.8,77.3,36.8L77.3,36.8z"/>
		<path class="st6" d="M41,21.4v10.7c0,2.6-2.1,4.7-4.7,4.7c-2.6,0-4.7-2.1-4.7-4.7V13.9c0-2.6,2.1-4.7,4.7-4.7
			c1.3,0,2.4,0.5,3.3,1.4c0.9,0.9,1.4,2.1,1.4,3.3v3V21.4z"/>
		<g>
			<path class="st4" d="M115.3,37.3c-2.9,0-5.2-2.3-5.2-5.2V13.9c0-2.9,2.3-5.2,5.2-5.2c1.4,0,2.7,0.5,3.7,1.5c1,1,1.5,2.3,1.5,3.7
				v18.2C120.5,35,118.2,37.3,115.3,37.3z M115.3,9.7c-2.3,0-4.2,1.9-4.2,4.2v18.2c0,2.3,1.9,4.2,4.2,4.2c2.3,0,4.2-1.9,4.2-4.2
				V13.9c0-1.1-0.4-2.2-1.2-3C117.5,10.1,116.5,9.7,115.3,9.7z"/>
		</g>
		<g>
			<path class="st4" d="M197.4,42.9c-5.9,0-10.7-4.8-10.7-10.7V13.9c0-5.9,4.8-10.7,10.7-10.7c2.9,0,5.6,1.1,7.6,3.1
				c2,2,3.1,4.7,3.1,7.6v18.2C208.1,38,203.3,42.9,197.4,42.9z M197.4,5.1c-4.8,0-8.7,3.9-8.7,8.7v18.2c0,4.8,3.9,8.7,8.7,8.7
				c4.8,0,8.7-3.9,8.7-8.7V13.9c0-2.3-0.9-4.5-2.6-6.2C201.9,6.1,199.7,5.1,197.4,5.1z"/>
		</g>
		<g>
			<path class="st4" d="M197.4,37.3c-2.9,0-5.2-2.3-5.2-5.2V13.9c0-2.9,2.3-5.2,5.2-5.2c1.4,0,2.7,0.5,3.7,1.5c1,1,1.5,2.3,1.5,3.7
				v2.9c0,0.3-0.2,0.5-0.5,0.5s-0.5-0.2-0.5-0.5v-2.9c0-1.1-0.4-2.2-1.2-3c-0.8-0.8-1.9-1.2-3-1.2c-2.3,0-4.2,1.9-4.2,4.2v18.2
				c0,2.3,1.9,4.2,4.2,4.2c2.3,0,4.2-1.9,4.2-4.2V21.4c0-0.3,0.2-0.5,0.5-0.5s0.5,0.2,0.5,0.5v10.7C202.6,35,200.2,37.3,197.4,37.3z
				"/>
		</g>
		<g>
			<path class="st4" d="M156.4,42.9c-5.9,0-10.7-4.8-10.7-10.7V13.9c0-5.9,4.8-10.7,10.7-10.7c5.9,0,10.8,4.8,10.8,10.7v18.2
				C167.1,38,162.3,42.9,156.4,42.9z M156.4,5.1c-4.8,0-8.7,3.9-8.7,8.7v18.2c0,4.8,3.9,8.7,8.7,8.7c4.8,0,8.8-3.9,8.8-8.7V13.9
				C165.1,9.1,161.2,5.1,156.4,5.1z"/>
		</g>
		<g>
			<path class="st4" d="M156.4,37.3L156.4,37.3c-2.9,0-5.2-2.3-5.2-5.2V13.9c0-2.9,2.3-5.2,5.2-5.2c2.9,0,5.2,2.3,5.2,5.2v18.2
				C161.6,35,159.2,37.3,156.4,37.3z M156.3,9.7c-2.3,0-4.2,1.9-4.2,4.2v18.2c0,2.3,1.9,4.2,4.2,4.2h0c2.3,0,4.2-1.9,4.2-4.2V13.9
				C160.6,11.6,158.7,9.7,156.3,9.7z"/>
		</g>
		<g>
			<path class="st4" d="M74.3,42.9c-5.9,0-10.7-4.8-10.7-10.7V13.9c0-3,1.3-5.9,3.4-7.9c0.4-0.4,1-0.4,1.4,0.1
				c0.4,0.4,0.4,1-0.1,1.4c-1.8,1.7-2.8,4-2.8,6.4v18.2c0,4.8,3.9,8.7,8.7,8.7c4.8,0,8.7-3.9,8.7-8.7V13.9c0-4.8-3.9-8.7-8.7-8.7
				c-0.6,0-1-0.4-1-1s0.4-1,1-1c5.9,0,10.7,4.8,10.7,10.7v18.2C85.1,38,80.2,42.9,74.3,42.9z"/>
		</g>
		<g>
			<path class="st4" d="M74.3,37.3L74.3,37.3c-2.9,0-5.2-2.3-5.2-5.2V13.9c0-2.9,2.3-5.2,5.2-5.2c2.9,0,5.2,2.3,5.2,5.2v18.2
				C79.5,35,77.2,37.3,74.3,37.3z M74.3,9.7c-2.3,0-4.2,1.9-4.2,4.2v18.2c0,2.3,1.9,4.2,4.2,4.2h0c2.3,0,4.2-1.9,4.2-4.2V13.9
				C78.5,11.6,76.6,9.7,74.3,9.7z"/>
		</g>
		<g>
			<path class="st4" d="M33.3,42.9c-5.9,0-10.7-4.8-10.7-10.7V13.9c0-5.9,4.8-10.7,10.7-10.7c2.9,0,5.6,1.1,7.6,3.1
				c2,2,3.1,4.7,3.1,7.6v18.2C44,38,39.2,42.9,33.3,42.9z M33.3,5.1c-4.8,0-8.7,3.9-8.7,8.7v18.2c0,4.8,3.9,8.7,8.7,8.7
				c4.8,0,8.7-3.9,8.7-8.7V13.9c0-2.3-0.9-4.5-2.6-6.2C37.8,6.1,35.6,5.1,33.3,5.1z"/>
		</g>
		<g>
			<path class="st4" d="M33.3,37.3c-2.9,0-5.2-2.3-5.2-5.2V13.9c0-2.9,2.3-5.2,5.2-5.2c1.4,0,2.7,0.5,3.7,1.5c1,1,1.5,2.3,1.5,3.7v3
				c0,0.3-0.2,0.5-0.5,0.5s-0.5-0.2-0.5-0.5v-3c0-1.1-0.4-2.2-1.2-3c-0.8-0.8-1.9-1.2-3-1.2c-2.3,0-4.2,1.9-4.2,4.2v18.2
				c0,2.3,1.9,4.2,4.2,4.2c2.3,0,4.2-1.9,4.2-4.2V21.4c0-0.3,0.2-0.5,0.5-0.5s0.5,0.2,0.5,0.5v10.7C38.5,35,36.2,37.3,33.3,37.3z"/>
		</g>
		<g>
			<path class="st4" d="M89.4,101.4H57.3c-0.6,0-1-0.4-1-1v-28c0-0.6,0.4-1,1-1h32.1c0.6,0,1,0.4,1,1v28
				C90.4,100.9,89.9,101.4,89.4,101.4z M58.3,99.4h30.1v-26H58.3V99.4z"/>
		</g>
		<g>
			<path class="st4" d="M131.7,101.4H99.6c-0.6,0-1-0.4-1-1v-28c0-0.6,0.4-1,1-1h32.1c0.6,0,1,0.4,1,1v28
				C132.7,100.9,132.2,101.4,131.7,101.4z M100.6,99.4h30.1v-26h-30.1V99.4z"/>
		</g>
		<g>
			<path class="st4" d="M174,101.4h-32.1c-0.6,0-1-0.4-1-1v-28c0-0.6,0.4-1,1-1H174c0.6,0,1,0.4,1,1v28
				C175,100.9,174.6,101.4,174,101.4z M142.9,99.4H173v-26h-30.1V99.4z"/>
		</g>
		<g>
			<path class="st4" d="M216.3,101.4h-32.1c-0.6,0-1-0.4-1-1v-28c0-0.6,0.4-1,1-1h32.1c0.6,0,1,0.4,1,1v28
				C217.3,100.9,216.9,101.4,216.3,101.4z M185.3,99.4h30.1v-26h-30.1V99.4z"/>
		</g>
		<g>
			<path class="st4" d="M47,138.4H15c-0.6,0-1-0.4-1-1v-28c0-0.6,0.4-1,1-1H47c0.6,0,1,0.4,1,1v28C48,138,47.6,138.4,47,138.4z
				 M16,136.4H46v-26H16V136.4z"/>
		</g>
		<g>
			<path class="st4" d="M89.4,138.4H57.3c-0.6,0-1-0.4-1-1v-28c0-0.6,0.4-1,1-1h9.8c0.6,0,1,0.4,1,1s-0.4,1-1,1h-8.8v26h30.1v-26
				H75.7c-0.6,0-1-0.4-1-1s0.4-1,1-1h13.6c0.6,0,1,0.4,1,1v28C90.4,138,89.9,138.4,89.4,138.4z"/>
		</g>
		<g>
			<path class="st4" d="M131.7,138.4H99.6c-0.6,0-1-0.4-1-1v-28c0-0.6,0.4-1,1-1h32.1c0.6,0,1,0.4,1,1v28
				C132.7,138,132.2,138.4,131.7,138.4z M100.6,136.4h30.1v-26h-30.1V136.4z"/>
		</g>
		<g>
			<path class="st4" d="M141.9,130.6c-0.1,0-0.3,0-0.4-0.1c-0.3-0.2-0.6-0.5-0.6-0.9v-20.3c0-0.6,0.4-1,1-1H174c0.6,0,1,0.4,1,1v6.4
				c0,0.5-0.4,0.9-0.9,1c-11.5,1.7-22.4,6.5-31.6,13.7C142.4,130.6,142.2,130.6,141.9,130.6z M142.9,110.4v17.2
				c8.9-6.6,19.2-10.9,30.1-12.7v-4.5H142.9z"/>
		</g>
		<g>
			<path class="st4" d="M216.3,123.9c-0.2,0-0.3,0-0.5-0.1c-9.6-5.1-20.6-7.8-31.6-7.8c-0.6,0-1-0.4-1-1v-5.6c0-0.6,0.4-1,1-1h32.1
				c0.6,0,1,0.4,1,1v13.6c0,0.4-0.2,0.7-0.5,0.9C216.7,123.9,216.5,123.9,216.3,123.9z M185.3,114c10.4,0.2,20.8,2.7,30.1,7.3v-10.9
				h-30.1V114z"/>
		</g>
		<g>
			<path class="st4" d="M47,175.4H15c-0.6,0-1-0.4-1-1v-28c0-0.6,0.4-1,1-1H47c0.6,0,1,0.4,1,1v28C48,175,47.6,175.4,47,175.4z
				 M16,173.4H46v-26H16V173.4z"/>
		</g>
		<g>
			<path class="st4" d="M89.4,175.4H57.3c-0.6,0-1-0.4-1-1v-28c0-0.6,0.4-1,1-1h32.1c0.6,0,1,0.4,1,1v28
				C90.4,175,89.9,175.4,89.4,175.4z M58.3,173.4h30.1v-26H58.3V173.4z"/>
		</g>
		<g>
			<path class="st4" d="M116.4,175.4H99.6c-0.6,0-1-0.4-1-1v-28c0-0.6,0.4-1,1-1h27.1c0.4,0,0.7,0.2,0.9,0.5c0.2,0.3,0.2,0.7,0,1
				c-5.4,8.4-8.8,17.7-10.1,27.6C117.4,175.1,116.9,175.4,116.4,175.4z M100.6,173.4h14.9c1.3-9.3,4.5-18,9.3-26h-24.3V173.4z"/>
		</g>
		<g>
			<path class="st4" d="M47,212.5H15c-0.6,0-1-0.4-1-1v-28c0-0.6,0.4-1,1-1H47c0.6,0,1,0.4,1,1v28C48,212,47.6,212.5,47,212.5z
				 M16,210.5H46v-26H16V210.5z"/>
		</g>
		<g>
			<path class="st4" d="M89.4,212.5H57.3c-0.6,0-1-0.4-1-1v-28c0-0.6,0.4-1,1-1h32.1c0.6,0,1,0.4,1,1v11.3c0,0.6-0.4,1-1,1
				s-1-0.4-1-1v-10.3H58.3v26h30.1V202c0-0.6,0.4-1,1-1s1,0.4,1,1v9.5C90.4,212,89.9,212.5,89.4,212.5z"/>
		</g>
		<g>
			<path class="st4" d="M121.8,212.5H99.6c-0.6,0-1-0.4-1-1v-28c0-0.6,0.4-1,1-1h16.2c0.6,0,1,0.4,1,1c0,9.6,2,18.9,5.9,27.6
				c0.1,0.3,0.1,0.7-0.1,1C122.5,212.3,122.2,212.5,121.8,212.5z M100.6,210.5h19.7c-3.5-8.3-5.3-17-5.5-26h-14.2V210.5z"/>
		</g>
		<g>
			<path class="st4" d="M226,55.9H40.8c-0.3,0-0.5-0.2-0.5-0.5s0.2-0.5,0.5-0.5H226c0.3,0,0.5,0.2,0.5,0.5S226.2,55.9,226,55.9z"/>
		</g>
		<g>
			<path class="st4" d="M33.3,55.9H4.7c-0.3,0-0.5-0.2-0.5-0.5s0.2-0.5,0.5-0.5h28.6c0.3,0,0.5,0.2,0.5,0.5S33.6,55.9,33.3,55.9z"/>
		</g>
		<g>
			<path class="st1" d="M245.1,152c4.9,9.4,7.6,20.1,7.6,31.5c0,37.8-30.6,68.4-68.4,68.4c-23.6,0-44.4-11.9-56.7-30.1
				c-2.2-3.2-4.1-6.7-5.7-10.3c-3.8-8.6-6-18.1-6-28c0-3,0.2-6,0.6-9c1.3-10.2,4.9-19.7,10.3-28c4.1-6.4,9.3-12.1,15.2-16.8
				c9.1-7.2,20.1-12.1,32.1-13.9c3.3-0.5,6.8-0.8,10.3-0.8c11.6,0,22.5,2.9,32.1,8c3.4,1.8,6.6,3.9,9.6,6.2
				c4.3,3.3,8.2,7.1,11.6,11.3L245.1,152z"/>
			<path class="st4" d="M184.3,252.9c-23.1,0-44.6-11.4-57.5-30.6c-2.2-3.3-4.2-6.8-5.8-10.4c-4-9-6.1-18.6-6.1-28.5
				c0-3,0.2-6.1,0.6-9.1c1.3-10.2,4.8-19.8,10.4-28.4c4.2-6.5,9.4-12.2,15.5-17c9.4-7.4,20.7-12.3,32.5-14.1
				c3.4-0.5,6.9-0.8,10.4-0.8c11.3,0,22.6,2.8,32.5,8.1c3.4,1.8,6.7,3.9,9.8,6.3c4.3,3.3,8.3,7.2,11.7,11.5c0.3,0.4,0.3,1.1-0.2,1.4
				c-0.4,0.3-1.1,0.3-1.4-0.2c-3.3-4.1-7.2-7.9-11.4-11.1c-3-2.3-6.2-4.4-9.5-6.1c-9.7-5.1-20.6-7.8-31.6-7.8
				c-3.4,0-6.8,0.3-10.1,0.8c-11.5,1.7-22.4,6.5-31.6,13.7c-5.9,4.7-11,10.2-15,16.5c-5.4,8.4-8.8,17.7-10.1,27.6
				c-0.4,2.9-0.6,5.9-0.6,8.9c0,9.6,2,18.9,5.9,27.6c1.6,3.5,3.5,6.9,5.6,10.1c12.6,18.6,33.5,29.7,55.9,29.7
				c37.2,0,67.4-30.2,67.4-67.4c0-10.8-2.6-21.5-7.5-31c-0.3-0.5-0.1-1.1,0.4-1.3c0.5-0.3,1.1-0.1,1.3,0.4
				c5.1,9.8,7.8,20.8,7.8,31.9C253.7,221.7,222.6,252.9,184.3,252.9z"/>
		</g>
		<g>
			<path class="st4" d="M243.2,149.7c-0.4,0-0.7-0.2-0.9-0.5l-0.2-0.4c-0.6-1-0.6-1-1.2-2l-0.3-0.4c-0.3-0.5-0.2-1.1,0.3-1.4
				c0.5-0.3,1.1-0.2,1.4,0.3l0.2,0.4c0.7,1,0.7,1,1.3,2.1l0.2,0.4c0.3,0.5,0.1,1.1-0.4,1.4C243.5,149.6,243.3,149.7,243.2,149.7z"/>
		</g>
		<path class="st2" d="M135.8,155.9c9.8-18.4,29.2-30.9,51.5-30.9c32.2,0,58.4,26.2,58.4,58.4s-26.2,58.4-58.4,58.4
			c-32.2,0-58.4-26.2-58.4-58.4c0-8,1.6-15.7,4.6-22.7L135.8,155.9z"/>
		<g>
			<path class="st4" d="M184.3,242.8c-32.7,0-59.4-26.6-59.4-59.4c0-8,1.6-15.8,4.7-23.1c0.2-0.5,0.8-0.7,1.3-0.5
				c0.5,0.2,0.7,0.8,0.5,1.3c-3,7.1-4.5,14.6-4.5,22.3c0,31.6,25.7,57.4,57.4,57.4c31.6,0,57.4-25.7,57.4-57.4S215.9,126,184.3,126
				c-21.2,0-40.6,11.6-50.6,30.3c-0.3,0.5-0.9,0.7-1.4,0.4c-0.5-0.3-0.7-0.9-0.4-1.4c10.4-19.4,30.5-31.4,52.4-31.4
				c32.7,0,59.4,26.6,59.4,59.4S217,242.8,184.3,242.8z"/>
		</g>
		<g>
			<path class="st1" d="M190.7,183.4c0,1.8-0.8,3.4-2,4.6c-1.1,1.1-2.7,1.8-4.4,1.8c-3.5,0-6.4-2.9-6.4-6.4c0-3.5,2.8-6.3,6.2-6.4
				c0.1,0,0.1,0,0.2,0C187.8,177,190.7,179.9,190.7,183.4z"/>
			<path class="st4" d="M184.3,190.8c-4.1,0-7.4-3.3-7.4-7.4c0-3.9,3.2-7.2,7.1-7.4c0.1,0,0.2,0,0.3,0c4.1,0,7.4,3.3,7.4,7.4
				c0,2-0.8,3.9-2.3,5.3C188,190.1,186.2,190.8,184.3,190.8z M184.3,178c0,0-0.1,0-0.2,0c-2.9,0.1-5.2,2.5-5.2,5.4
				c0,3,2.4,5.4,5.4,5.4c1.4,0,2.7-0.5,3.7-1.5c1.1-1,1.7-2.4,1.7-3.9C189.7,180.5,187.2,178,184.3,178z"/>
		</g>
		<g>
			<path class="st4" d="M184.3,141.4c-0.6,0-1-0.4-1-1v-8c0-0.6,0.4-1,1-1s1,0.4,1,1v8C185.3,141,184.8,141.4,184.3,141.4z"/>
		</g>
		<g>
			<path class="st4" d="M162.7,147.2c-0.3,0-0.7-0.2-0.9-0.5l-4-6.9c-0.3-0.5-0.1-1.1,0.4-1.4c0.5-0.3,1.1-0.1,1.4,0.4l4,6.9
				c0.3,0.5,0.1,1.1-0.4,1.4C163.1,147.1,162.9,147.2,162.7,147.2z"/>
		</g>
		<g>
			<path class="st4" d="M146.9,162.9c-0.2,0-0.3,0-0.5-0.1l-6.9-4c-0.5-0.3-0.6-0.9-0.4-1.4c0.3-0.5,0.9-0.6,1.4-0.4l6.9,4
				c0.5,0.3,0.6,0.9,0.4,1.4C147.6,162.7,147.3,162.9,146.9,162.9z"/>
		</g>
		<g>
			<path class="st4" d="M141.1,184.4h-8c-0.6,0-1-0.4-1-1s0.4-1,1-1h8c0.6,0,1,0.4,1,1S141.7,184.4,141.1,184.4z"/>
		</g>
		<g>
			<path class="st4" d="M139.9,209.9c-0.3,0-0.7-0.2-0.9-0.5c-0.3-0.5-0.1-1.1,0.4-1.4l6.9-4c0.5-0.3,1.1-0.1,1.4,0.4
				c0.3,0.5,0.1,1.1-0.4,1.4l-6.9,4C140.2,209.9,140,209.9,139.9,209.9z"/>
		</g>
		<g>
			<path class="st4" d="M158.5,228.7c-0.2,0-0.3,0-0.5-0.1c-0.5-0.3-0.6-0.9-0.4-1.4l4-6.9c0.3-0.5,0.9-0.6,1.4-0.4
				c0.5,0.3,0.6,0.9,0.4,1.4l-4,6.9C159.2,228.5,158.9,228.7,158.5,228.7z"/>
		</g>
		<g>
			<path class="st4" d="M184.1,235.6c-0.6,0-1-0.4-1-1v-8c0-0.6,0.4-1,1-1s1,0.4,1,1v8C185.1,235.1,184.6,235.6,184.1,235.6z"/>
		</g>
		<g>
			<path class="st4" d="M209.6,228.8c-0.3,0-0.7-0.2-0.9-0.5l-4-6.9c-0.3-0.5-0.1-1.1,0.4-1.4c0.5-0.3,1.1-0.1,1.4,0.4l4,6.9
				c0.3,0.5,0.1,1.1-0.4,1.4C210,228.7,209.8,228.8,209.6,228.8z"/>
		</g>
		<g>
			<path class="st4" d="M228.3,210.1c-0.2,0-0.3,0-0.5-0.1l-6.9-4c-0.5-0.3-0.6-0.9-0.4-1.4c0.3-0.5,0.9-0.6,1.4-0.4l6.9,4
				c0.5,0.3,0.6,0.9,0.4,1.4C229,210,228.7,210.1,228.3,210.1z"/>
		</g>
		<g>
			<path class="st4" d="M235.2,184.6h-8c-0.6,0-1-0.4-1-1s0.4-1,1-1h8c0.6,0,1,0.4,1,1S235.8,184.6,235.2,184.6z"/>
		</g>
		<g>
			<path class="st4" d="M221.5,163.1c-0.3,0-0.7-0.2-0.9-0.5c-0.3-0.5-0.1-1.1,0.4-1.4l6.9-4c0.5-0.3,1.1-0.1,1.4,0.4
				c0.3,0.5,0.1,1.1-0.4,1.4l-6.9,4C221.8,163,221.7,163.1,221.5,163.1z"/>
		</g>
		<g>
			<path class="st4" d="M205.8,147.3c-0.2,0-0.3,0-0.5-0.1c-0.5-0.3-0.6-0.9-0.4-1.4l4-6.9c0.3-0.5,0.9-0.6,1.4-0.4
				c0.5,0.3,0.6,0.9,0.4,1.4l-4,6.9C206.5,147.1,206.1,147.3,205.8,147.3z"/>
		</g>
		<g>
			<path class="st4" d="M184,178c-0.6,0-1-0.4-1-1V150c0-0.6,0.4-1,1-1s1,0.4,1,1V177C185,177.6,184.6,178,184,178z"/>
		</g>
		<g>
			<path class="st4" d="M210.1,210.5c-0.3,0-0.5-0.1-0.7-0.3L188,188.7c-0.4-0.4-0.4-1,0-1.4s1-0.4,1.4,0l21.4,21.4
				c0.4,0.4,0.4,1,0,1.4C210.7,210.4,210.4,210.5,210.1,210.5z"/>
		</g>
	</g>
	<g>
		<path class="st4" d="M41.9,235.3c-1.6,0-3-1.3-3-3s1.3-3,3-3s3,1.3,3,3S43.5,235.3,41.9,235.3z M41.9,230.3c-1.1,0-2,0.9-2,2
			s0.9,2,2,2c1.1,0,2-0.9,2-2S43,230.3,41.9,230.3z"/>
	</g>
	<g>
		<path class="st6" d="M239.7,103.4c-1.6,0-3-1.3-3-3s1.3-3,3-3s3,1.3,3,3S241.3,103.4,239.7,103.4z M239.7,98.4c-1.1,0-2,0.9-2,2
			s0.9,2,2,2c1.1,0,2-0.9,2-2S240.8,98.4,239.7,98.4z"/>
	</g>
	<g>
		<path class="st4" d="M232.5,82.9c-0.1,0-0.3-0.1-0.4-0.1c-0.1-0.1-0.2-0.3-0.1-0.5l0.8-2.6l-0.8-2.6c-0.1-0.2,0-0.4,0.1-0.5
			c0.1-0.1,0.3-0.2,0.5-0.1l2.6,0.8l2.6-0.8c0.2-0.1,0.4,0,0.5,0.1s0.2,0.3,0.1,0.5l-0.8,2.6l0.8,2.6c0.1,0.2,0,0.4-0.1,0.5
			c-0.1,0.1-0.3,0.2-0.5,0.1l-1-0.3c-0.3-0.1-0.4-0.4-0.3-0.6c0.1-0.3,0.4-0.4,0.6-0.3l0.1,0l-0.5-1.8c0-0.1,0-0.2,0-0.3l0.5-1.8
			l-1.8,0.5c-0.1,0-0.2,0-0.3,0l-1.8-0.5l0.5,1.8c0,0.1,0,0.2,0,0.3l-0.5,1.8l1.8-0.5c0.3-0.1,0.5,0.1,0.6,0.3
			c0.1,0.3-0.1,0.5-0.3,0.6l-2.7,0.8C232.6,82.8,232.6,82.9,232.5,82.9z"/>
	</g>
	<g>
		<g>
			<path class="st6" d="M238,120c-0.3,0-0.5-0.2-0.5-0.5v-2.4c0-0.3,0.2-0.5,0.5-0.5s0.5,0.2,0.5,0.5v2.4
				C238.5,119.8,238.2,120,238,120z"/>
		</g>
		<g>
			<path class="st6" d="M238,125.9c-0.3,0-0.5-0.2-0.5-0.5v-2.4c0-0.3,0.2-0.5,0.5-0.5s0.5,0.2,0.5,0.5v2.4
				C238.5,125.6,238.2,125.9,238,125.9z"/>
		</g>
		<g>
			<path class="st6" d="M242.1,121.7h-2.4c-0.3,0-0.5-0.2-0.5-0.5s0.2-0.5,0.5-0.5h2.4c0.3,0,0.5,0.2,0.5,0.5
				S242.4,121.7,242.1,121.7z"/>
		</g>
		<g>
			<path class="st6" d="M236.2,121.7h-2.4c-0.3,0-0.5-0.2-0.5-0.5s0.2-0.5,0.5-0.5h2.4c0.3,0,0.5,0.2,0.5,0.5
				S236.5,121.7,236.2,121.7z"/>
		</g>
	</g>
	<g>
		<g>
			<path class="st5" d="M118.3,231.1c-0.3,0-0.5-0.2-0.5-0.5v-2.4c0-0.3,0.2-0.5,0.5-0.5s0.5,0.2,0.5,0.5v2.4
				C118.8,230.9,118.6,231.1,118.3,231.1z"/>
		</g>
		<g>
			<path class="st5" d="M118.3,236.9c-0.3,0-0.5-0.2-0.5-0.5V234c0-0.3,0.2-0.5,0.5-0.5s0.5,0.2,0.5,0.5v2.4
				C118.8,236.7,118.6,236.9,118.3,236.9z"/>
		</g>
		<g>
			<path class="st5" d="M122.5,232.8H120c-0.3,0-0.5-0.2-0.5-0.5s0.2-0.5,0.5-0.5h2.4c0.3,0,0.5,0.2,0.5,0.5
				S122.8,232.8,122.5,232.8z"/>
		</g>
		<g>
			<path class="st5" d="M116.6,232.8h-2.4c-0.3,0-0.5-0.2-0.5-0.5s0.2-0.5,0.5-0.5h2.4c0.3,0,0.5,0.2,0.5,0.5
				S116.9,232.8,116.6,232.8z"/>
		</g>
	</g>
	<g>
		<g>
			<path class="st1" d="M77.5,234c-0.3,0-0.5-0.2-0.5-0.5v-2.4c0-0.3,0.2-0.5,0.5-0.5s0.5,0.2,0.5,0.5v2.4
				C78,233.8,77.7,234,77.5,234z"/>
		</g>
		<g>
			<path class="st1" d="M77.5,239.9c-0.3,0-0.5-0.2-0.5-0.5v-2.4c0-0.3,0.2-0.5,0.5-0.5s0.5,0.2,0.5,0.5v2.4
				C78,239.6,77.7,239.9,77.5,239.9z"/>
		</g>
		<g>
			<path class="st1" d="M81.6,235.7h-2.4c-0.3,0-0.5-0.2-0.5-0.5s0.2-0.5,0.5-0.5h2.4c0.3,0,0.5,0.2,0.5,0.5S81.9,235.7,81.6,235.7z
				"/>
		</g>
		<g>
			<path class="st1" d="M75.8,235.7h-2.4c-0.3,0-0.5-0.2-0.5-0.5s0.2-0.5,0.5-0.5h2.4c0.3,0,0.5,0.2,0.5,0.5S76,235.7,75.8,235.7z"
				/>
		</g>
	</g>
</g>
</svg>
