<?xml version="1.0" encoding="utf-8"?>
<!-- Generator: Adobe Illustrator 22.1.0, SVG Export Plug-In . SVG Version: 6.00 Build 0)  -->
<svg version="1.1" id="Layer_1" xmlns="http://www.w3.org/2000/svg" xmlns:xlink="http://www.w3.org/1999/xlink" x="0px" y="0px"
	 viewBox="0 0 256 256" style="enable-background:new 0 0 256 256;" xml:space="preserve">
<style type="text/css">
	.st0{fill:#DBFDFF;}
	.st1{fill:#FFFFFF;}
	.st2{fill:#48386A;}
	.st3{fill:#FF8584;}
	.st4{fill:#9FEAFF;}
	.st5{fill:#FEBE7F;}
</style>
<g>
	<path class="st0" d="M229.1,143.7c3-6.5,4.7-13.7,4.7-21.3c0-10.8-3.4-20.8-9.2-29c7.4-8.8,11.9-20.1,11.9-32.5
		c0-27.9-22.6-50.5-50.5-50.5c-22.7,0-41.9,15-48.3,35.6c-8.2-5.7-18.1-9-28.8-9c-3.2,0-6.2,0.3-9.2,0.9
		c-9.3-10.9-23.1-17.8-38.5-17.8c-27.9,0-50.5,22.6-50.5,50.5c0,7.1,1.4,13.8,4.1,19.9c-1,4-1.6,8.3-1.6,12.7
		c0,12.3,4.4,23.5,11.6,32.2c-10.4,9.3-16.9,22.7-16.9,37.7c0,27.9,22.6,50.5,50.5,50.5c9.3,0,18.1-2.5,25.6-7
		c8.4,6.3,18.9,10,30.2,10c15.3,0,29-6.8,38.3-17.6c9.1,9,21.7,14.6,35.5,14.6c27.9,0,50.5-22.6,50.5-50.5
		C238.4,162,235,151.9,229.1,143.7z"/>
	<g>
		<path class="st0" d="M55.7,246.3c-3.5,0-6.3-2.9-6.3-6.5v-1.8c0-3.6,2.8-6.5,6.3-6.5h140.9v14.9H55.7z"/>
		<g>
			<path class="st1" d="M181.8,251.7h18.8c1.5,0,2.7-1.2,2.7-2.7l0,0c0-1.5-1.2-2.7-2.7-2.7H51.5c-3.9,0-7.1-2.9-7.1-6.5v-1.8
				c0-3.6,3.2-6.5,7.1-6.5h146.4c3,0,5.4-2.4,5.4-5.4v0H50.9c-6.6,0-12,5.4-12,12v1.8c0,6.6,5.4,12,12,12h122.7H181.8z"/>
			<path class="st2" d="M200.6,252.7h-18.8c-0.6,0-1-0.4-1-1s0.4-1,1-1h18.8c0.9,0,1.7-0.8,1.7-1.7c0-0.9-0.8-1.7-1.7-1.7H51.5
				c-4.5,0-8.1-3.4-8.1-7.5v-1.8c0-4.2,3.6-7.5,8.1-7.5h146.4c2.1,0,3.9-1.5,4.3-3.4H50.9c-6.1,0-11,4.9-11,11v1.8
				c0,6.1,4.9,11,11,11h122.7c0.6,0,1,0.4,1,1s-0.4,1-1,1H50.9c-7.2,0-13-5.8-13-13v-1.8c0-7.2,5.8-13,13-13h152.4c0.6,0,1,0.4,1,1
				c0,3.6-2.9,6.4-6.4,6.4H51.5c-3.4,0-6.1,2.5-6.1,5.5v1.8c0,3,2.7,5.5,6.1,5.5h149.1c2.1,0,3.7,1.7,3.7,3.7
				S202.6,252.7,200.6,252.7z"/>
		</g>
		<g>
			<path class="st1" d="M39,115V16.3c0-6.6,5.4-12,12-12h140.4c6.6,0,12,5.4,12,12V226H50.9c-6.6,0-12,5.4-12,12v-103V115z"/>
			<path class="st2" d="M39,238.9c-0.6,0-1-0.4-1-1v-103c0-0.6,0.4-1,1-1s1,0.4,1,1V231c2.3-3.6,6.4-6.1,11-6.1h151.4V16.3
				c0-6.1-4.9-11-11-11H50.9c-6.1,0-11,4.9-11,11V115c0,0.6-0.4,1-1,1s-1-0.4-1-1V16.3c0-7.2,5.8-13,13-13h140.4c7.2,0,13,5.8,13,13
				V226c0,0.6-0.4,1-1,1H50.9c-6.1,0-11,4.9-11,11C40,238.5,39.5,238.9,39,238.9z"/>
		</g>
		<g>
			<path class="st1" d="M213.5,149.4h-10.2V92.8h10.2c2.8,0,5,2.2,5,5v46.6C218.5,147.2,216.2,149.4,213.5,149.4z"/>
			<path class="st2" d="M213.5,150.4h-10.2c-0.6,0-1-0.4-1-1V92.8c0-0.6,0.4-1,1-1h10.2c3.3,0,6,2.7,6,6v46.6
				C219.5,147.7,216.8,150.4,213.5,150.4z M204.3,148.4h9.2c2.2,0,4-1.8,4-4V97.8c0-2.2-1.8-4-4-4h-9.2V148.4z"/>
		</g>
		<g>
			<path class="st1" d="M218.5,190.4v10.5c0,2.8-2.3,5.1-5.1,5.1h-10v-56.6h10c2.8,0,5.1,2.3,5.1,5.1v26.8V190.4z"/>
			<path class="st2" d="M213.3,207h-10c-0.6,0-1-0.4-1-1v-56.6c0-0.6,0.4-1,1-1h10c3.4,0,6.1,2.7,6.1,6.1v26.8c0,0.6-0.4,1-1,1
				s-1-0.4-1-1v-26.8c0-2.3-1.9-4.1-4.1-4.1h-9V205h9c2.3,0,4.1-1.9,4.1-4.1v-10.5c0-0.6,0.4-1,1-1s1,0.4,1,1v10.5
				C219.5,204.3,216.7,207,213.3,207z"/>
		</g>
		<g>
			<path class="st1" d="M218.5,60.3v27.4c0,2.8-2.3,5.1-5.1,5.1h-10V36.2h10c2.8,0,5.1,2.3,5.1,5.1V53V60.3z"/>
			<path class="st2" d="M213.3,93.8h-10c-0.6,0-1-0.4-1-1V36.2c0-0.6,0.4-1,1-1h10c3.4,0,6.1,2.7,6.1,6.1V53c0,0.6-0.4,1-1,1
				s-1-0.4-1-1V41.3c0-2.3-1.9-4.1-4.1-4.1h-9v54.6h9c2.3,0,4.1-1.9,4.1-4.1V60.3c0-0.6,0.4-1,1-1s1,0.4,1,1v27.4
				C219.5,91.1,216.7,93.8,213.3,93.8z"/>
		</g>
		<polygon class="st0" points="189.5,66.5 189.5,99.9 79.2,99.9 79.2,26.6 189.5,26.6 189.5,55.7 		"/>
		
			<rect x="128.5" y="72.5" transform="matrix(-1.836970e-16 1 -1 -1.836970e-16 264.1261 -4.4946)" class="st3" width="11.6" height="114.6"/>
		<g>
			<path class="st2" d="M191.5,247.3H50.7c-4,0-7.3-3.4-7.3-7.5v-1.8c0-4.2,3.3-7.5,7.3-7.5h140.9c0.6,0,1,0.4,1,1v14.9
				C192.5,246.8,192.1,247.3,191.5,247.3z M50.7,232.4c-2.9,0-5.3,2.5-5.3,5.5v1.8c0,3,2.4,5.5,5.3,5.5h139.9v-12.9H50.7z"/>
		</g>
		<g>
			<path class="st2" d="M39,130.8c-0.6,0-1-0.4-1-1v-4.9c0-0.6,0.4-1,1-1s1,0.4,1,1v4.9C40,130.4,39.5,130.8,39,130.8z"/>
		</g>
		<g>
			<path class="st2" d="M191.5,239.3h-62.3c-0.3,0-0.5-0.2-0.5-0.5s0.2-0.5,0.5-0.5h62.3c0.3,0,0.5,0.2,0.5,0.5
				S191.8,239.3,191.5,239.3z"/>
		</g>
		<g>
			<path class="st2" d="M121.1,239.3H44.4c-0.3,0-0.5-0.2-0.5-0.5s0.2-0.5,0.5-0.5h76.7c0.3,0,0.5,0.2,0.5,0.5
				S121.4,239.3,121.1,239.3z"/>
		</g>
		<g>
			<path class="st2" d="M187.4,106.3H74.2c-2.8,0-5-2.2-5-5V25.2c0-2.8,2.2-5,5-5h113.2c2.8,0,5,2.2,5,5v76.2
				C192.4,104.1,190.2,106.3,187.4,106.3z M74.2,22.2c-1.7,0-3,1.3-3,3v76.2c0,1.7,1.3,3,3,3h113.2c1.7,0,3-1.3,3-3V25.2
				c0-1.7-1.3-3-3-3H74.2z"/>
		</g>
		<g>
			<path class="st2" d="M186,100.4H75.7c-0.3,0-0.5-0.2-0.5-0.5V26.6c0-0.3,0.2-0.5,0.5-0.5H186c0.3,0,0.5,0.2,0.5,0.5v29.1
				c0,0.3-0.2,0.5-0.5,0.5s-0.5-0.2-0.5-0.5V27.1H76.2v72.3h109.3V66.5c0-0.3,0.2-0.5,0.5-0.5s0.5,0.2,0.5,0.5v33.4
				C186.5,100.2,186.2,100.4,186,100.4z"/>
		</g>
		<g>
			<path class="st2" d="M191.4,139.9h-82.2c-0.6,0-1-0.4-1-1s0.4-1,1-1h81.2v-16.1H71.2v16.1h27.5c0.6,0,1,0.4,1,1s-0.4,1-1,1H70.2
				c-0.6,0-1-0.4-1-1v-18.1c0-0.6,0.4-1,1-1h121.2c0.6,0,1,0.4,1,1v18.1C192.4,139.4,192,139.9,191.4,139.9z"/>
		</g>
		<g>
			<path class="st2" d="M188.1,136.1H73.5c-0.3,0-0.5-0.2-0.5-0.5V124c0-0.3,0.2-0.5,0.5-0.5h114.6c0.3,0,0.5,0.2,0.5,0.5v11.6
				C188.6,135.9,188.4,136.1,188.1,136.1z M74,135.1h113.6v-10.6H74V135.1z"/>
		</g>
		<g>
			<path class="st2" d="M169.6,150.4H70.2c-0.3,0-0.5-0.2-0.5-0.5s0.2-0.5,0.5-0.5h99.4c0.3,0,0.5,0.2,0.5,0.5
				S169.9,150.4,169.6,150.4z"/>
		</g>
		<g>
			<path class="st2" d="M186,167H162c-0.3,0-0.5-0.2-0.5-0.5s0.2-0.5,0.5-0.5H186c0.3,0,0.5,0.2,0.5,0.5S186.2,167,186,167z"/>
		</g>
		<g>
			<path class="st2" d="M152.6,167H70.2c-0.3,0-0.5-0.2-0.5-0.5s0.2-0.5,0.5-0.5h82.3c0.3,0,0.5,0.2,0.5,0.5S152.8,167,152.6,167z"
				/>
		</g>
		<g>
			<path class="st2" d="M180.5,183.6H70.2c-0.3,0-0.5-0.2-0.5-0.5s0.2-0.5,0.5-0.5h110.3c0.3,0,0.5,0.2,0.5,0.5
				S180.8,183.6,180.5,183.6z"/>
		</g>
		<g>
			<path class="st2" d="M169.6,200.2h-67.1c-0.3,0-0.5-0.2-0.5-0.5s0.2-0.5,0.5-0.5h67.1c0.3,0,0.5,0.2,0.5,0.5
				S169.9,200.2,169.6,200.2z"/>
		</g>
		<g>
			<path class="st2" d="M92.8,200.2H70.2c-0.3,0-0.5-0.2-0.5-0.5s0.2-0.5,0.5-0.5h22.6c0.3,0,0.5,0.2,0.5,0.5S93.1,200.2,92.8,200.2
				z"/>
		</g>
		<path class="st4" d="M217.6,125.3v19.3c0,0.6-0.5,1-1,1h-9.8V97.7h9.8c0.6,0,1,0.5,1,1v19.2V125.3z"/>
		<g>
			<path class="st2" d="M213.1,145.6h-9.8c-0.3,0-0.5-0.2-0.5-0.5V97.2c0-0.3,0.2-0.5,0.5-0.5h9.8c0.8,0,1.5,0.7,1.5,1.5v19.2
				c0,0.3-0.2,0.5-0.5,0.5s-0.5-0.2-0.5-0.5V98.2c0-0.3-0.2-0.5-0.5-0.5h-9.3v46.9h9.3c0.3,0,0.5-0.2,0.5-0.5v-19.3
				c0-0.3,0.2-0.5,0.5-0.5s0.5,0.2,0.5,0.5V144C214.6,144.9,213.9,145.6,213.1,145.6z"/>
		</g>
		<g>
			<path class="st5" d="M203.3,201.7v-47.9h9.8c0.6,0,1,0.4,1,1v45.9c0,0.6-0.4,1-1,1H203.3z"/>
			<path class="st2" d="M213.1,202.2h-9.8c-0.3,0-0.5-0.2-0.5-0.5v-47.9c0-0.3,0.2-0.5,0.5-0.5h9.8c0.8,0,1.5,0.7,1.5,1.5v45.9
				C214.6,201.5,213.9,202.2,213.1,202.2z M203.8,201.2h9.3c0.3,0,0.5-0.2,0.5-0.5v-45.9c0-0.3-0.2-0.5-0.5-0.5h-9.3V201.2z"/>
		</g>
		<g>
			<path class="st3" d="M203.3,88.5V40.6h9.8c0.6,0,1,0.4,1,1v45.9c0,0.6-0.4,1-1,1H203.3z"/>
			<path class="st2" d="M213.1,89h-9.8c-0.3,0-0.5-0.2-0.5-0.5V40.6c0-0.3,0.2-0.5,0.5-0.5h9.8c0.8,0,1.5,0.7,1.5,1.5v45.9
				C214.6,88.3,213.9,89,213.1,89z M203.8,88h9.3c0.3,0,0.5-0.2,0.5-0.5V41.6c0-0.3-0.2-0.5-0.5-0.5h-9.3V88z"/>
		</g>
		<g>
			<path class="st2" d="M108.8,85.7c-0.1,0-0.3,0-0.4-0.1c-0.2-0.2-0.2-0.5,0-0.7l44-44c0.2-0.2,0.5-0.2,0.7,0s0.2,0.5,0,0.7l-44,44
				C109.1,85.7,108.9,85.7,108.8,85.7z"/>
		</g>
		<g>
			<path class="st2" d="M123,81.9c-0.1,0-0.3,0-0.4-0.1c-0.2-0.2-0.2-0.5,0-0.7l21.8-21.8c0.2-0.2,0.5-0.2,0.7,0s0.2,0.5,0,0.7
				l-21.8,21.8C123.3,81.8,123.1,81.9,123,81.9z"/>
		</g>
		<g>
			<path class="st3" d="M39,116.2V16.3c0-6.6,5.4-12,12-12h7.4v38.6v11.3V226h-7.4c-6.6,0-12,5.4-12,12v-103V116.2z"/>
			<path class="st2" d="M39,238.9c-0.6,0-1-0.4-1-1v-103c0-0.6,0.4-1,1-1s1,0.4,1,1V231c2.3-3.6,6.4-6.1,11-6.1h6.4V5.3h-6.4
				c-6.1,0-11,4.9-11,11v99.9c0,0.6-0.4,1-1,1s-1-0.4-1-1V16.3c0-7.2,5.8-13,13-13h7.4c0.6,0,1,0.4,1,1V226c0,0.6-0.4,1-1,1h-7.4
				c-6.1,0-11,4.9-11,11C40,238.5,39.5,238.9,39,238.9z"/>
		</g>
		<g>
			<path class="st2" d="M39,130.8c-0.6,0-1-0.4-1-1V124c0-0.6,0.4-1,1-1s1,0.4,1,1v5.8C40,130.4,39.5,130.8,39,130.8z"/>
		</g>
	</g>
	<g>
		<path class="st2" d="M227.8,119.6c-1.6,0-3-1.3-3-3s1.3-3,3-3s3,1.3,3,3S229.4,119.6,227.8,119.6z M227.8,114.6c-1.1,0-2,0.9-2,2
			s0.9,2,2,2c1.1,0,2-0.9,2-2S228.9,114.6,227.8,114.6z"/>
	</g>
	<g>
		<path class="st3" d="M228.6,176.5c-1.6,0-3-1.3-3-3s1.3-3,3-3s3,1.3,3,3S230.2,176.5,228.6,176.5z M228.6,171.5c-1.1,0-2,0.9-2,2
			s0.9,2,2,2s2-0.9,2-2S229.7,171.5,228.6,171.5z"/>
	</g>
	<g>
		<path class="st2" d="M25.1,96c0,0-0.1,0-0.1,0l-1-0.3c-0.3-0.1-0.4-0.4-0.3-0.6c0.1-0.3,0.4-0.4,0.6-0.3l0.1,0L23.8,93
			c0-0.1,0-0.2,0-0.3l0.5-1.8l-1.8,0.5c-0.1,0-0.2,0-0.3,0l-1.8-0.5l0.5,1.8c0,0.1,0,0.2,0,0.3l-0.5,1.8l1.8-0.5
			c0.3-0.1,0.5,0.1,0.6,0.3c0.1,0.3-0.1,0.5-0.3,0.6L19.8,96c-0.2,0-0.4,0-0.5-0.1c-0.1-0.1-0.2-0.3-0.1-0.5l0.8-2.6l-0.8-2.6
			c-0.1-0.2,0-0.4,0.1-0.5c0.1-0.1,0.3-0.2,0.5-0.1l2.6,0.8l2.6-0.8c0.2-0.1,0.4,0,0.5,0.1s0.2,0.3,0.1,0.5l-0.8,2.6l0.8,2.6
			c0.1,0.2,0,0.4-0.1,0.5C25.4,96,25.2,96,25.1,96z"/>
	</g>
	<g>
		<path class="st5" d="M31.2,58.7c0,0-0.1,0-0.1,0l-1-0.3c-0.3-0.1-0.4-0.4-0.3-0.6c0.1-0.3,0.4-0.4,0.6-0.3l0.1,0L30,55.6
			c0-0.1,0-0.2,0-0.3l0.5-1.8l-1.8,0.5c-0.1,0-0.2,0-0.3,0l-1.8-0.5l0.5,1.8c0,0.1,0,0.2,0,0.3l-0.5,1.8l1.8-0.5
			c0.3-0.1,0.5,0.1,0.6,0.3c0.1,0.3-0.1,0.5-0.3,0.6L26,58.7c-0.2,0-0.4,0-0.5-0.1c-0.1-0.1-0.2-0.3-0.1-0.5l0.8-2.6l-0.8-2.6
			c-0.1-0.2,0-0.4,0.1-0.5s0.3-0.2,0.5-0.1l2.6,0.8l2.6-0.8c0.2-0.1,0.4,0,0.5,0.1s0.2,0.3,0.1,0.5L31,55.5l0.8,2.6
			c0.1,0.2,0,0.4-0.1,0.5C31.5,58.7,31.4,58.7,31.2,58.7z"/>
	</g>
	<g>
		<g>
			<path class="st3" d="M25.6,144.3c-0.3,0-0.5-0.2-0.5-0.5v-2.4c0-0.3,0.2-0.5,0.5-0.5s0.5,0.2,0.5,0.5v2.4
				C26.1,144.1,25.9,144.3,25.6,144.3z"/>
		</g>
		<g>
			<path class="st3" d="M25.6,150.2c-0.3,0-0.5-0.2-0.5-0.5v-2.4c0-0.3,0.2-0.5,0.5-0.5s0.5,0.2,0.5,0.5v2.4
				C26.1,150,25.9,150.2,25.6,150.2z"/>
		</g>
		<g>
			<path class="st3" d="M29.7,146.1h-2.4c-0.3,0-0.5-0.2-0.5-0.5s0.2-0.5,0.5-0.5h2.4c0.3,0,0.5,0.2,0.5,0.5S30,146.1,29.7,146.1z"
				/>
		</g>
		<g>
			<path class="st3" d="M23.9,146.1h-2.4c-0.3,0-0.5-0.2-0.5-0.5s0.2-0.5,0.5-0.5h2.4c0.3,0,0.5,0.2,0.5,0.5S24.2,146.1,23.9,146.1z
				"/>
		</g>
	</g>
	<g>
		<g>
			<path class="st5" d="M226.1,56c-0.3,0-0.5-0.2-0.5-0.5v-2.4c0-0.3,0.2-0.5,0.5-0.5s0.5,0.2,0.5,0.5v2.4
				C226.6,55.8,226.4,56,226.1,56z"/>
		</g>
		<g>
			<path class="st5" d="M226.1,61.8c-0.3,0-0.5-0.2-0.5-0.5v-2.4c0-0.3,0.2-0.5,0.5-0.5s0.5,0.2,0.5,0.5v2.4
				C226.6,61.6,226.4,61.8,226.1,61.8z"/>
		</g>
		<g>
			<path class="st5" d="M230.2,57.7h-2.4c-0.3,0-0.5-0.2-0.5-0.5s0.2-0.5,0.5-0.5h2.4c0.3,0,0.5,0.2,0.5,0.5S230.5,57.7,230.2,57.7z
				"/>
		</g>
		<g>
			<path class="st5" d="M224.4,57.7h-2.4c-0.3,0-0.5-0.2-0.5-0.5s0.2-0.5,0.5-0.5h2.4c0.3,0,0.5,0.2,0.5,0.5S224.7,57.7,224.4,57.7z
				"/>
		</g>
	</g>
	<g>
		<g>
			<path class="st4" d="M22.4,185.2c-0.3,0-0.5-0.2-0.5-0.5v-2.4c0-0.3,0.2-0.5,0.5-0.5s0.5,0.2,0.5,0.5v2.4
				C22.9,184.9,22.7,185.2,22.4,185.2z"/>
		</g>
		<g>
			<path class="st4" d="M22.4,191c-0.3,0-0.5-0.2-0.5-0.5v-2.4c0-0.3,0.2-0.5,0.5-0.5s0.5,0.2,0.5,0.5v2.4
				C22.9,190.8,22.7,191,22.4,191z"/>
		</g>
		<g>
			<path class="st4" d="M26.5,186.9h-2.4c-0.3,0-0.5-0.2-0.5-0.5s0.2-0.5,0.5-0.5h2.4c0.3,0,0.5,0.2,0.5,0.5S26.8,186.9,26.5,186.9z
				"/>
		</g>
		<g>
			<path class="st4" d="M20.7,186.9h-2.4c-0.3,0-0.5-0.2-0.5-0.5s0.2-0.5,0.5-0.5h2.4c0.3,0,0.5,0.2,0.5,0.5S21,186.9,20.7,186.9z"
				/>
		</g>
	</g>
</g>
</svg>
