<?xml version="1.0" encoding="utf-8"?>
<!-- Generator: Adobe Illustrator 22.1.0, SVG Export Plug-In . SVG Version: 6.00 Build 0)  -->
<svg version="1.1" id="Layer_1" xmlns="http://www.w3.org/2000/svg" xmlns:xlink="http://www.w3.org/1999/xlink" x="0px" y="0px"
	 viewBox="0 0 256 256" style="enable-background:new 0 0 256 256;" xml:space="preserve">
<style type="text/css">
	.st0{fill:#DBFDFF;}
	.st1{fill:#FFFFFF;}
	.st2{fill:#48386A;}
	.st3{fill:#9FEAFF;}
	.st4{fill:#FEBE7F;}
	.st5{fill:#FF8584;}
</style>
<g>
	<path class="st0" d="M210.4,149.7c7.9-8.9,12.7-20.6,12.7-33.5c0-10.5-3.2-20.2-8.6-28.2c5.4-8.1,8.6-17.8,8.6-28.2
		c0-27.9-22.6-50.5-50.5-50.5c-9.6,0-18.6,2.7-26.2,7.3c-7.6-4.7-16.6-7.3-26.2-7.3c-10.7,0-20.6,3.3-28.8,9
		c-7.4-4.2-15.9-6.6-25-6.6c-27.9,0-50.5,22.6-50.5,50.5c0,17.7,9.1,33.3,23,42.3c-2.3,5.7-3.5,12-3.5,18.5c0,9.8,2.8,18.9,7.6,26.7
		c-16.1,8.5-27,25.3-27,44.7c0,27.9,22.6,50.5,50.5,50.5c6.8,0,13.2-1.3,19.1-3.8c7.9,5.2,17.4,8.2,27.5,8.2c16.9,0,31.8-8.3,41-21
		c9.2,12,23.7,19.7,40,19.7c27.9,0,50.5-22.6,50.5-50.5C244.6,175.3,230.3,156.5,210.4,149.7z"/>
	<g>
		<g>
			<path class="st1" d="M42.8,26.4H17.2c-6.8,0-12.4,5.5-12.4,12.4v159.1c0,6.8,5.5,12.4,12.4,12.4h222.9c6.8,0,12.4-5.5,12.4-12.4
				V38.8c0-6.8-5.5-12.4-12.4-12.4H50.3H42.8z"/>
			<path class="st2" d="M240.2,211.2H17.2c-7.4,0-13.4-6-13.4-13.4V38.8c0-7.4,6-13.4,13.4-13.4h25.6c0.6,0,1,0.4,1,1s-0.4,1-1,1
				H17.2c-6.3,0-11.4,5.1-11.4,11.4v159.1c0,6.3,5.1,11.4,11.4,11.4h222.9c6.3,0,11.4-5.1,11.4-11.4V38.8c0-6.3-5.1-11.4-11.4-11.4
				H50.3c-0.6,0-1-0.4-1-1s0.4-1,1-1h189.9c7.4,0,13.4,6,13.4,13.4v159.1C253.5,205.2,247.5,211.2,240.2,211.2z"/>
		</g>
		<g>
			<polygon class="st1" points="160,229.6 23.4,229.6 23.4,210.2 234,210.2 234,229.6 166.3,229.6 			"/>
			<path class="st2" d="M234,230.6h-67.7c-0.6,0-1-0.4-1-1s0.4-1,1-1H233v-17.4H24.4v17.4H160c0.6,0,1,0.4,1,1s-0.4,1-1,1H23.4
				c-0.6,0-1-0.4-1-1v-19.4c0-0.6,0.4-1,1-1H234c0.6,0,1,0.4,1,1v19.4C235,230.1,234.5,230.6,234,230.6z"/>
		</g>
		<polygon class="st3" points="82.5,223.4 34,223.4 34,210.2 230.4,210.2 230.4,223.4 93.6,223.4 		"/>
		<g>
			<path class="st2" d="M226.9,223.9H90.1c-0.3,0-0.5-0.2-0.5-0.5s0.2-0.5,0.5-0.5h136.3v-12.2H31v12.2h48c0.3,0,0.5,0.2,0.5,0.5
				s-0.2,0.5-0.5,0.5H30.5c-0.3,0-0.5-0.2-0.5-0.5v-13.2c0-0.3,0.2-0.5,0.5-0.5h196.4c0.3,0,0.5,0.2,0.5,0.5v13.2
				C227.4,223.7,227.2,223.9,226.9,223.9z"/>
		</g>
		<g>
			<path class="st2" d="M240.2,211.2H17.2c-7.4,0-13.4-6-13.4-13.4V38.8c0-7.4,6-13.4,13.4-13.4h25.6c0.6,0,1,0.4,1,1s-0.4,1-1,1
				H17.2c-6.3,0-11.4,5.1-11.4,11.4v159.1c0,6.3,5.1,11.4,11.4,11.4h222.9c6.3,0,11.4-5.1,11.4-11.4V38.8c0-6.3-5.1-11.4-11.4-11.4
				H50.3c-0.6,0-1-0.4-1-1s0.4-1,1-1h189.9c7.4,0,13.4,6,13.4,13.4v159.1C253.5,205.2,247.5,211.2,240.2,211.2z"/>
		</g>
		<path class="st3" d="M249.9,105.3v92.6c0,3.4-2.8,6.2-6.2,6.2H20.7c-3.4,0-6.2-2.8-6.2-6.2V38.8c0-3.4,2.8-6.2,6.2-6.2h222.9
			c3.4,0,6.2,2.8,6.2,6.2v61.3V105.3z"/>
		<g>
			<path class="st1" d="M171.3,191.7H23.4V45H234v24.7h-17.1c-2.3,0-4.3,0.9-5.8,2.4c-1.5,1.5-2.4,3.5-2.4,5.8
				c0,4.5,3.7,8.2,8.2,8.2H234v64.3h-17.1c-2.3,0-4.3,0.9-5.8,2.4c-1.5,1.5-2.4,3.6-2.4,5.8c0,4.5,3.7,8.2,8.2,8.2H234v24.7h-54.2
				H171.3z"/>
			<path class="st2" d="M234,192.7h-54.2c-0.6,0-1-0.4-1-1s0.4-1,1-1H233v-22.7h-16.1c-5.1,0-9.2-4.1-9.2-9.2c0-2.5,1-4.8,2.7-6.5
				c1.8-1.7,4.1-2.7,6.5-2.7H233V87.2h-16.1c-5.1,0-9.2-4.1-9.2-9.2c0-2.5,1-4.8,2.7-6.5c1.7-1.7,4.1-2.7,6.5-2.7H233V46H24.4v144.7
				h146.9c0.6,0,1,0.4,1,1s-0.4,1-1,1H23.4c-0.6,0-1-0.4-1-1V45c0-0.6,0.4-1,1-1H234c0.6,0,1,0.4,1,1v24.7c0,0.6-0.4,1-1,1h-17.1
				c-1.9,0-3.8,0.8-5.1,2.1c-1.4,1.4-2.1,3.2-2.1,5.1c0,4,3.3,7.2,7.2,7.2H234c0.6,0,1,0.4,1,1v64.3c0,0.6-0.4,1-1,1h-17.1
				c-1.9,0-3.8,0.8-5.1,2.1c-1.4,1.4-2.1,3.2-2.1,5.1c0,4,3.3,7.2,7.2,7.2H234c0.6,0,1,0.4,1,1v24.7
				C235,192.2,234.5,192.7,234,192.7z"/>
		</g>
		<g>
			<path class="st0" d="M65.6,158.7c0,8.1-6.5,14.6-14.6,14.6s-14.6-6.5-14.6-14.6c0-5.4,2.9-10.1,7.2-12.6v13.4
				c0,4.1,3.3,7.4,7.4,7.4s7.4-3.3,7.4-7.4v-13.4C62.8,148.6,65.6,153.3,65.6,158.7z"/>
			<g>
				<path class="st2" d="M51,174.3c-8.6,0-15.6-7-15.6-15.6c0-5.5,3-10.7,7.7-13.5c0.3-0.2,0.7-0.2,1,0c0.3,0.2,0.5,0.5,0.5,0.9
					v13.4c0,3.5,2.9,6.4,6.4,6.4c3.5,0,6.4-2.9,6.4-6.4v-13.4c0-0.4,0.2-0.7,0.5-0.9c0.3-0.2,0.7-0.2,1,0c4.8,2.8,7.7,8,7.7,13.5
					C66.6,167.3,59.6,174.3,51,174.3z M42.6,148c-3.3,2.6-5.2,6.5-5.2,10.7c0,7.5,6.1,13.6,13.6,13.6c7.5,0,13.6-6.1,13.6-13.6
					c0-4.2-2-8.2-5.2-10.7v11.5c0,4.6-3.8,8.4-8.4,8.4s-8.4-3.8-8.4-8.4V148z"/>
			</g>
		</g>
		<g>
			<path class="st0" d="M65.6,77.9c0,5.4-2.9,10.1-7.2,12.6V77.1c0-2-0.8-3.9-2.2-5.2c-1.3-1.3-3.2-2.2-5.2-2.2
				c-4.1,0-7.4,3.3-7.4,7.4v13.5c-4.3-2.5-7.2-7.2-7.2-12.6c0-8.1,6.5-14.6,14.6-14.6S65.6,69.8,65.6,77.9z"/>
			<g>
				<path class="st2" d="M58.4,91.5c-0.2,0-0.3,0-0.5-0.1c-0.3-0.2-0.5-0.5-0.5-0.9V77.1c0-1.7-0.7-3.3-1.9-4.5
					c-1.2-1.2-2.8-1.9-4.5-1.9c-3.5,0-6.4,2.9-6.4,6.4v13.5c0,0.4-0.2,0.7-0.5,0.9c-0.3,0.2-0.7,0.2-1,0c-4.8-2.8-7.7-8-7.7-13.5
					c0-8.6,7-15.6,15.6-15.6c8.6,0,15.6,7,15.6,15.6c0,5.5-3,10.7-7.7,13.5C58.8,91.5,58.6,91.5,58.4,91.5z M51,68.7
					c2.3,0,4.4,0.9,6,2.5c1.6,1.6,2.5,3.7,2.5,5.9v11.6c3.3-2.6,5.2-6.5,5.2-10.7c0-7.5-6.1-13.6-13.6-13.6
					c-7.5,0-13.6,6.1-13.6,13.6c0,4.2,2,8.2,5.2,10.7V77.1C42.6,72.5,46.4,68.7,51,68.7z"/>
			</g>
		</g>
		<path class="st4" d="M147.6,81.2c14.4,6.2,24.5,20.5,24.5,37.1c0,22.3-18.1,40.4-40.4,40.4s-40.4-18.1-40.4-40.4
			s18.1-40.4,40.4-40.4c4.2,0,8.2,0.6,12,1.8L147.6,81.2z"/>
		<g>
			<path class="st2" d="M240.2,204.5H17.2c-3.7,0-6.7-3-6.7-6.7V38.8c0-3.7,3-6.7,6.7-6.7h222.9c3.7,0,6.7,3,6.7,6.7v61.3
				c0,0.3-0.2,0.5-0.5,0.5s-0.5-0.2-0.5-0.5V38.8c0-3.1-2.5-5.7-5.7-5.7H17.2c-3.1,0-5.7,2.5-5.7,5.7v159.1c0,3.1,2.5,5.7,5.7,5.7
				h222.9c3.1,0,5.7-2.5,5.7-5.7v-92.6c0-0.3,0.2-0.5,0.5-0.5s0.5,0.2,0.5,0.5v92.6C246.9,201.5,243.9,204.5,240.2,204.5z"/>
		</g>
		<g>
			<path class="st1" d="M141.7,131.4c-3.3,3.3-7.9,5.4-13,5.4c-5.1,0-9.7-2.1-13-5.4c-3.3-3.3-5.4-7.9-5.4-13c0-5.1,2.1-9.7,5.4-13
				c3.3-3.3,7.9-5.4,13-5.4c5.1,0,9.7,2.1,13,5.4c3.3,3.3,5.4,7.9,5.4,13C147.1,123.4,145.1,128,141.7,131.4z"/>
			<path class="st2" d="M128.7,137.8c-5.2,0-10.1-2-13.7-5.7s-5.7-8.6-5.7-13.8c0-5.2,2-10.1,5.7-13.7s8.6-5.7,13.7-5.7
				c5.2,0,10.1,2,13.7,5.7s5.7,8.6,5.7,13.7c0,5.2-2,10.1-5.7,13.8S133.9,137.8,128.7,137.8z M128.7,100.9c-4.7,0-9,1.8-12.3,5.1
				s-5.1,7.7-5.1,12.3c0,4.7,1.8,9,5.1,12.3s7.7,5.1,12.3,5.1c4.7,0,9-1.8,12.3-5.1s5.1-7.7,5.1-12.3c0-4.7-1.8-9-5.1-12.3
				S133.4,100.9,128.7,100.9z"/>
		</g>
		<g>
			<path class="st1" d="M227.9,166.9h-11c-4.6,0-8.2-3.7-8.2-8.2c0-2.3,0.9-4.3,2.4-5.8c1.5-1.5,3.5-2.4,5.8-2.4h20.6
				c4.6,0,8.2,3.7,8.2,8.2c0,2.3-0.9,4.3-2.4,5.8c-1.5,1.5-3.5,2.4-5.8,2.4H227.9L227.9,166.9z"/>
			<path class="st2" d="M237.5,167.9h-20.6c-5.1,0-9.2-4.1-9.2-9.2c0-2.5,1-4.8,2.7-6.5c1.8-1.7,4.1-2.7,6.5-2.7h20.6
				c5.1,0,9.2,4.1,9.2,9.2c0,2.5-1,4.8-2.7,6.5C242.3,167,240,167.9,237.5,167.9z M216.9,151.5c-1.9,0-3.8,0.8-5.1,2.1
				c-1.4,1.4-2.1,3.2-2.1,5.1c0,4,3.3,7.2,7.2,7.2h20.6c1.9,0,3.8-0.8,5.1-2.1c1.4-1.4,2.1-3.2,2.1-5.1c0-4-3.3-7.2-7.2-7.2H216.9z"
				/>
		</g>
		<path class="st0" d="M219.9,163.2c-2.5,0-4.5-2-4.5-4.5c0-2.5,2-4.5,4.5-4.5h20.6c2.5,0,4.5,2,4.5,4.5c0,2.5-2,4.5-4.5,4.5H219.9z
			"/>
		<g>
			<path class="st1" d="M245.7,77.9c0,2.3-0.9,4.3-2.4,5.8c-1.5,1.5-3.5,2.4-5.8,2.4h-20.6c-4.6,0-8.2-3.7-8.2-8.2
				c0-2.3,0.9-4.3,2.4-5.8c1.5-1.5,3.5-2.4,5.8-2.4h20.6C242.1,69.7,245.7,73.4,245.7,77.9z"/>
			<path class="st2" d="M237.5,87.2h-20.6c-5.1,0-9.2-4.1-9.2-9.2c0-2.5,1-4.8,2.7-6.5c1.7-1.7,4.1-2.7,6.5-2.7h20.6
				c5.1,0,9.2,4.1,9.2,9.2c0,2.5-1,4.8-2.7,6.5C242.3,86.2,240,87.2,237.5,87.2z M216.9,70.7c-1.9,0-3.8,0.8-5.1,2.1
				c-1.4,1.4-2.1,3.2-2.1,5.1c0,4,3.3,7.2,7.2,7.2h20.6c1.9,0,3.8-0.8,5.1-2.1c1.4-1.4,2.1-3.2,2.1-5.1c0-4-3.3-7.2-7.2-7.2H216.9z"
				/>
		</g>
		<path class="st0" d="M229.5,73.4h11c2.5,0,4.5,2,4.5,4.5c0,2.5-2,4.5-4.5,4.5h-20.6c-2.5,0-4.5-2-4.5-4.5c0-2.5,2-4.5,4.5-4.5h5.2
			H229.5z"/>
		<path class="st5" d="M46.6,104.6V77.1c0-4.1,3.3-7.4,7.4-7.4c2.1,0,3.9,0.8,5.2,2.2c1.3,1.3,2.2,3.2,2.2,5.2v82.4
			c0,4.1-3.3,7.4-7.4,7.4s-7.4-3.3-7.4-7.4v-43.2V104.6z"/>
		<g>
			<path class="st2" d="M237.5,163.7h-20.6c-2.8,0-5-2.3-5-5c0-2.8,2.3-5,5-5h20.6c2.8,0,5,2.3,5,5
				C242.5,161.5,240.3,163.7,237.5,163.7z M216.9,154.7c-2.2,0-4,1.8-4,4s1.8,4,4,4h20.6c2.2,0,4-1.8,4-4s-1.8-4-4-4H216.9z"/>
		</g>
		<g>
			<path class="st2" d="M237.5,83h-20.6c-2.8,0-5-2.3-5-5c0-2.8,2.3-5,5-5h5.2c0.3,0,0.5,0.2,0.5,0.5s-0.2,0.5-0.5,0.5h-5.2
				c-2.2,0-4,1.8-4,4s1.8,4,4,4h20.6c2.2,0,4-1.8,4-4s-1.8-4-4-4h-11c-0.3,0-0.5-0.2-0.5-0.5s0.2-0.5,0.5-0.5h11c2.8,0,5,2.3,5,5
				C242.5,80.7,240.3,83,237.5,83z"/>
		</g>
		<g>
			<path class="st2" d="M128.7,131.1c-3.4,0-6.6-1.3-9-3.7c0,0,0,0-0.1-0.1c-2.4-2.4-3.7-5.6-3.7-8.9c0-3.4,1.3-6.6,3.7-9
				c0.9-0.9,2-1.7,3.1-2.3c0.2-0.1,0.5,0,0.7,0.2c0.1,0.2,0,0.5-0.2,0.7c-1.1,0.6-2,1.3-2.9,2.1c-2.2,2.2-3.5,5.2-3.5,8.3
				c0,3.1,1.2,6.1,3.5,8.3c0,0,0,0,0.1,0.1c2.2,2.2,5.1,3.4,8.2,3.4c3.1,0,6.1-1.2,8.3-3.5c2.2-2.2,3.5-5.2,3.5-8.3
				c0-3.1-1.2-6-3.4-8.2c0,0,0,0-0.1-0.1c-2.2-2.2-5.2-3.5-8.3-3.5c-0.8,0-1.5,0.1-2.3,0.2c-0.3,0.1-0.5-0.1-0.6-0.4
				s0.1-0.5,0.4-0.6c0.8-0.2,1.6-0.2,2.5-0.2c3.4,0,6.5,1.3,8.9,3.7c0,0,0,0,0.1,0.1c2.4,2.4,3.7,5.6,3.7,9c0,3.4-1.3,6.6-3.7,9
				C135.3,129.7,132.1,131.1,128.7,131.1z"/>
		</g>
		<g>
			<path class="st2" d="M128.7,159.7c-22.8,0-41.4-18.6-41.4-41.4c0-22.8,18.6-41.4,41.4-41.4c4.2,0,8.3,0.6,12.3,1.9
				c0.5,0.2,0.8,0.7,0.7,1.3c-0.2,0.5-0.7,0.8-1.3,0.7c-3.8-1.2-7.7-1.8-11.7-1.8c-21.7,0-39.4,17.7-39.4,39.4
				c0,21.7,17.7,39.4,39.4,39.4c21.7,0,39.4-17.7,39.4-39.4c0-15.8-9.4-30-23.9-36.2c-0.5-0.2-0.7-0.8-0.5-1.3
				c0.2-0.5,0.8-0.7,1.3-0.5c15.2,6.5,25.1,21.5,25.1,38.1C170.1,141.1,151.5,159.7,128.7,159.7z"/>
		</g>
		<g>
			<path class="st2" d="M169.1,118.8h-21.9c-0.3,0-0.5-0.2-0.5-0.5s0.2-0.5,0.5-0.5h21.9c0.3,0,0.5,0.2,0.5,0.5
				S169.4,118.8,169.1,118.8z"/>
		</g>
		<g>
			<path class="st2" d="M110.3,118.8H88.3c-0.3,0-0.5-0.2-0.5-0.5s0.2-0.5,0.5-0.5h21.9c0.3,0,0.5,0.2,0.5,0.5
				S110.5,118.8,110.3,118.8z"/>
		</g>
		<g>
			<path class="st2" d="M128.7,100.4c-0.3,0-0.5-0.2-0.5-0.5V77.9c0-0.3,0.2-0.5,0.5-0.5s0.5,0.2,0.5,0.5v21.9
				C129.2,100.2,129,100.4,128.7,100.4z"/>
		</g>
		<g>
			<path class="st2" d="M128.7,159.2c-0.3,0-0.5-0.2-0.5-0.5v-22c0-0.3,0.2-0.5,0.5-0.5s0.5,0.2,0.5,0.5v22
				C129.2,159,129,159.2,128.7,159.2z"/>
		</g>
		<g>
			<path class="st2" d="M141.7,105.8c-0.1,0-0.3,0-0.4-0.1c-0.2-0.2-0.2-0.5,0-0.7l15.5-15.5c0.2-0.2,0.5-0.2,0.7,0s0.2,0.5,0,0.7
				l-15.5,15.5C142,105.7,141.9,105.8,141.7,105.8z"/>
		</g>
		<g>
			<path class="st2" d="M100.1,147.4c-0.1,0-0.3,0-0.4-0.1c-0.2-0.2-0.2-0.5,0-0.7l5.2-5.2c0.2-0.2,0.5-0.2,0.7,0s0.2,0.5,0,0.7
				l-5.2,5.2C100.4,147.3,100.3,147.4,100.1,147.4z"/>
		</g>
		<g>
			<path class="st2" d="M108.3,139.2c-0.1,0-0.3,0-0.4-0.1c-0.2-0.2-0.2-0.5,0-0.7l7.4-7.4c0.2-0.2,0.5-0.2,0.7,0s0.2,0.5,0,0.7
				l-7.4,7.4C108.5,139.2,108.4,139.2,108.3,139.2z"/>
		</g>
		<g>
			<path class="st2" d="M115.7,105.8c-0.1,0-0.3,0-0.4-0.1L99.8,90.1c-0.2-0.2-0.2-0.5,0-0.7s0.5-0.2,0.7,0l15.5,15.5
				c0.2,0.2,0.2,0.5,0,0.7C115.9,105.7,115.8,105.8,115.7,105.8z"/>
		</g>
		<g>
			<path class="st2" d="M157.3,147.4c-0.1,0-0.3,0-0.4-0.1l-15.5-15.5c-0.2-0.2-0.2-0.5,0-0.7s0.5-0.2,0.7,0l15.5,15.5
				c0.2,0.2,0.2,0.5,0,0.7C157.5,147.3,157.4,147.4,157.3,147.4z"/>
		</g>
		<g>
			<path class="st2" d="M43.6,113.3c-0.6,0-1-0.4-1-1v-2.6c0-0.6,0.4-1,1-1s1,0.4,1,1v2.6C44.6,112.9,44.2,113.3,43.6,113.3z"/>
		</g>
		<g>
			<path class="st2" d="M51,167.9c-4.6,0-8.4-3.8-8.4-8.4v-43.2c0-0.6,0.4-1,1-1s1,0.4,1,1v43.2c0,3.5,2.9,6.4,6.4,6.4
				c3.5,0,6.4-2.9,6.4-6.4V77.1c0-1.7-0.7-3.3-1.9-4.5c-1.2-1.2-2.8-1.9-4.5-1.9c-3.5,0-6.4,2.9-6.4,6.4v27.5c0,0.6-0.4,1-1,1
				s-1-0.4-1-1V77.1c0-4.6,3.8-8.4,8.4-8.4c2.3,0,4.4,0.9,6,2.5c1.6,1.6,2.5,3.7,2.5,5.9v82.4C59.4,164.2,55.7,167.9,51,167.9z"/>
		</g>
		<g>
			<path class="st2" d="M234,230.6h-67.7c-0.6,0-1-0.4-1-1s0.4-1,1-1H233v-17.4H24.4v17.4H160c0.6,0,1,0.4,1,1s-0.4,1-1,1H23.4
				c-0.6,0-1-0.4-1-1v-19.4c0-0.6,0.4-1,1-1H234c0.6,0,1,0.4,1,1v19.4C235,230.1,234.5,230.6,234,230.6z"/>
		</g>
		<g>
			<path class="st2" d="M87.7,223.9h-3.8c-0.3,0-0.5-0.2-0.5-0.5s0.2-0.5,0.5-0.5h3.8c0.3,0,0.5,0.2,0.5,0.5S88,223.9,87.7,223.9z"
				/>
		</g>
	</g>
	<g>
		<path class="st2" d="M115.7,16.3c-1.6,0-3-1.3-3-3s1.3-3,3-3s3,1.3,3,3S117.3,16.3,115.7,16.3z M115.7,11.3c-1.1,0-2,0.9-2,2
			c0,1.1,0.9,2,2,2s2-0.9,2-2C117.6,12.2,116.8,11.3,115.7,11.3z"/>
	</g>
	<g>
		<path class="st5" d="M191.6,241c-1.6,0-3-1.3-3-3s1.3-3,3-3s3,1.3,3,3S193.2,241,191.6,241z M191.6,236.1c-1.1,0-2,0.9-2,2
			s0.9,2,2,2s2-0.9,2-2S192.6,236.1,191.6,236.1z"/>
	</g>
	<g>
		<path class="st2" d="M55.7,240.1c-0.1,0-0.3-0.1-0.4-0.1c-0.1-0.1-0.2-0.3-0.1-0.5l0.8-2.6l-0.8-2.6c-0.1-0.2,0-0.4,0.1-0.5
			c0.1-0.1,0.3-0.2,0.5-0.1l2.6,0.8l2.6-0.8c0.2-0.1,0.4,0,0.5,0.1s0.2,0.3,0.1,0.5l-0.8,2.6l0.8,2.6c0.1,0.2,0,0.4-0.1,0.5
			s-0.3,0.2-0.5,0.1l-1-0.3c-0.3-0.1-0.4-0.4-0.3-0.6c0.1-0.3,0.3-0.4,0.6-0.3l0.1,0l-0.5-1.8c0-0.1,0-0.2,0-0.3l0.5-1.8l-1.8,0.5
			c-0.1,0-0.2,0-0.3,0l-1.8-0.5l0.5,1.8c0,0.1,0,0.2,0,0.3l-0.5,1.8l1.8-0.5c0.3-0.1,0.5,0.1,0.6,0.3c0.1,0.3-0.1,0.5-0.3,0.6
			l-2.7,0.8C55.8,240.1,55.8,240.1,55.7,240.1z"/>
	</g>
	<g>
		<path class="st4" d="M174.8,17.7c0,0-0.1,0-0.1,0l-1-0.3c-0.3-0.1-0.4-0.4-0.3-0.6c0.1-0.3,0.3-0.4,0.6-0.3l0.1,0l-0.5-1.8
			c0-0.1,0-0.2,0-0.3l0.5-1.8l-1.8,0.5c-0.1,0-0.2,0-0.3,0l-1.8-0.5l0.5,1.8c0,0.1,0,0.2,0,0.3l-0.5,1.8l1.8-0.5
			c0.3-0.1,0.5,0.1,0.6,0.3c0.1,0.3-0.1,0.5-0.3,0.6l-2.7,0.8c-0.2,0.1-0.4,0-0.5-0.1c-0.1-0.1-0.2-0.3-0.1-0.5l0.8-2.6l-0.8-2.6
			c-0.1-0.2,0-0.4,0.1-0.5c0.1-0.1,0.3-0.2,0.5-0.1l2.6,0.8l2.6-0.8c0.2-0.1,0.4,0,0.5,0.1s0.2,0.3,0.1,0.5l-0.8,2.6l0.8,2.6
			c0.1,0.2,0,0.4-0.1,0.5C175.1,17.7,174.9,17.7,174.8,17.7z"/>
	</g>
	<g>
		<g>
			<path class="st5" d="M63.4,15c-0.3,0-0.5-0.2-0.5-0.5v-2.4c0-0.3,0.2-0.5,0.5-0.5s0.5,0.2,0.5,0.5v2.4C63.9,14.8,63.6,15,63.4,15
				z"/>
		</g>
		<g>
			<path class="st5" d="M63.4,20.9c-0.3,0-0.5-0.2-0.5-0.5v-2.4c0-0.3,0.2-0.5,0.5-0.5s0.5,0.2,0.5,0.5v2.4
				C63.9,20.6,63.6,20.9,63.4,20.9z"/>
		</g>
		<g>
			<path class="st5" d="M67.5,16.7h-2.4c-0.3,0-0.5-0.2-0.5-0.5s0.2-0.5,0.5-0.5h2.4c0.3,0,0.5,0.2,0.5,0.5S67.8,16.7,67.5,16.7z"/>
		</g>
		<g>
			<path class="st5" d="M61.7,16.7h-2.4c-0.3,0-0.5-0.2-0.5-0.5s0.2-0.5,0.5-0.5h2.4c0.3,0,0.5,0.2,0.5,0.5S61.9,16.7,61.7,16.7z"/>
		</g>
	</g>
	<g>
		<g>
			<path class="st4" d="M119.8,235.6c-0.3,0-0.5-0.2-0.5-0.5v-2.4c0-0.3,0.2-0.5,0.5-0.5s0.5,0.2,0.5,0.5v2.4
				C120.3,235.4,120.1,235.6,119.8,235.6z"/>
		</g>
		<g>
			<path class="st4" d="M119.8,241.5c-0.3,0-0.5-0.2-0.5-0.5v-2.4c0-0.3,0.2-0.5,0.5-0.5s0.5,0.2,0.5,0.5v2.4
				C120.3,241.3,120.1,241.5,119.8,241.5z"/>
		</g>
		<g>
			<path class="st4" d="M124,237.3h-2.4c-0.3,0-0.5-0.2-0.5-0.5s0.2-0.5,0.5-0.5h2.4c0.3,0,0.5,0.2,0.5,0.5S124.2,237.3,124,237.3z"
				/>
		</g>
		<g>
			<path class="st4" d="M118.1,237.3h-2.4c-0.3,0-0.5-0.2-0.5-0.5s0.2-0.5,0.5-0.5h2.4c0.3,0,0.5,0.2,0.5,0.5
				S118.4,237.3,118.1,237.3z"/>
		</g>
	</g>
</g>
</svg>
