<?xml version="1.0" encoding="utf-8"?>
<!-- Generator: Adobe Illustrator 22.1.0, SVG Export Plug-In . SVG Version: 6.00 Build 0)  -->
<svg version="1.1" id="Layer_1" xmlns="http://www.w3.org/2000/svg" xmlns:xlink="http://www.w3.org/1999/xlink" x="0px" y="0px"
	 viewBox="0 0 256 256" style="enable-background:new 0 0 256 256;" xml:space="preserve">
<style type="text/css">
	.st0{fill:#DBFDFF;}
	.st1{fill:#FEBE7F;}
	.st2{fill:#FFFFFF;}
	.st3{fill:#9FEAFF;}
	.st4{fill:#FFFFED;}
	.st5{fill:#48386A;}
	.st6{fill:#FF8584;}
</style>
<g>
	<path class="st0" d="M245.6,125.3c0-19.7-11.2-36.7-27.6-45c1.5-4.8,2.3-9.9,2.3-15.2c0-27.9-22.6-50.5-50.5-50.5
		c-14.2,0-27,5.8-36.2,15.2c-9.2-9.4-22-15.2-36.2-15.2C69.6,14.5,47,37.1,47,65c0,1.8,0.1,3.6,0.3,5.4c-22.9,4.8-40,25.1-40,49.4
		c0,12.7,4.7,24.2,12.4,33.1c-7.7,8.9-12.4,20.4-12.4,33.1c0,27.9,22.6,50.5,50.5,50.5c16.7,0,31.5-8.1,40.7-20.6
		c9.3,11,23.1,17.9,38.6,17.9c11.8,0,22.7-4.1,31.3-10.9c7,3.7,15,5.8,23.5,5.8c27.9,0,50.5-22.6,50.5-50.5c0-8.7-2.2-16.8-6-24
		C242.2,146.1,245.6,136.1,245.6,125.3z M95.9,152.9c0.2-0.2,0.4-0.4,0.6-0.6c0.2,0.1,0.3,0.3,0.5,0.4c-0.2,0.2-0.4,0.5-0.6,0.7
		C96.2,153.3,96.1,153.1,95.9,152.9z"/>
	<g>
		<polygon class="st1" points="56.5,199.6 39.9,199.6 39.9,186.1 80.7,186.1 80.7,192.8 182.7,192.8 182.7,186.1 223.5,186.1 
			223.5,199.6 64.4,199.6 		"/>
		<polygon class="st2" points="179.7,174.7 179.7,78.2 77.7,78.2 77.7,192.8 126.3,192.8 127.7,192.8 179.7,192.8 179.7,181 		"/>
		<path class="st2" d="M171.9,37.9h70.3c5.4,0,9.8,4.4,9.8,9.8v34.6c0,5.4-4.4,9.8-9.8,9.8h-62.5V78.2H77.7v13.9H15.2
			c-5.4,0-9.8-4.4-9.8-9.8V47.7c0-5.4,4.4-9.8,9.8-9.8h150.7H171.9z"/>
		<polygon class="st3" points="191.8,67.2 191.8,92.1 182.7,92.1 182.7,78.2 80.7,78.2 80.7,92.1 71.6,92.1 71.6,67.2 		"/>
		<g>
			<polygon class="st4" points="179.7,174.7 179.7,78.2 77.7,78.2 77.7,192.8 126.3,192.8 127.7,192.8 179.7,192.8 179.7,181 			"/>
			<path class="st5" d="M179.7,193.8H77.7c-0.6,0-1-0.4-1-1V78.2c0-0.6,0.4-1,1-1h101.9c0.6,0,1,0.4,1,1v96.5c0,0.6-0.4,1-1,1
				s-1-0.4-1-1V79.2H78.7v112.6h99.9V181c0-0.6,0.4-1,1-1s1,0.4,1,1v11.8C180.7,193.4,180.2,193.8,179.7,193.8z"/>
		</g>
		<rect x="36.9" y="152.8" class="st2" width="40.9" height="13.6"/>
		<rect x="179.7" y="152.8" class="st3" width="40.9" height="13.6"/>
		<path class="st2" d="M25.1,118.3V92.1h11.8v120.1c0,3.3-2.6,5.9-5.9,5.9h0c-3.3,0-5.9-2.6-5.9-5.9v-88V118.3z"/>
		<path class="st2" d="M220.5,108.6V92.1h11.8v120.1c0,3.3-2.6,5.9-5.9,5.9l0,0c-3.3,0-5.9-2.6-5.9-5.9v-88V108.6z"/>
		<path class="st4" d="M252,47.7v34.6c0,5.4-4.4,9.8-9.8,9.8h-39.6V37.9h39.6C247.6,37.9,252,42.3,252,47.7z"/>
		<path class="st4" d="M5.4,82.3V47.7c0-5.4,4.4-9.8,9.8-9.8h39.6v54.3H15.2C9.8,92.1,5.4,87.7,5.4,82.3z"/>
		<polygon class="st1" points="88,58.5 57.8,58.5 57.8,50.1 205.6,50.1 205.6,58.5 95.2,58.5 		"/>
		<g>
			<path class="st5" d="M242.2,93.1h-62.5c-0.6,0-1-0.4-1-1V79.2H78.7v12.9c0,0.6-0.4,1-1,1H15.2c-6,0-10.8-4.9-10.8-10.8V47.7
				c0-6,4.9-10.8,10.8-10.8h150.7c0.6,0,1,0.4,1,1s-0.4,1-1,1H15.2c-4.9,0-8.8,4-8.8,8.8v34.6c0,4.9,4,8.8,8.8,8.8h61.5V78.2
				c0-0.6,0.4-1,1-1h101.9c0.6,0,1,0.4,1,1v12.9h61.5c4.9,0,8.8-4,8.8-8.8V47.7c0-4.9-4-8.8-8.8-8.8h-70.3c-0.6,0-1-0.4-1-1
				s0.4-1,1-1h70.3c6,0,10.8,4.9,10.8,10.8v34.6C253,88.3,248.2,93.1,242.2,93.1z"/>
		</g>
		<rect x="89.4" y="107.5" class="st6" width="84.7" height="12.3"/>
		<rect x="89.4" y="150.6" class="st3" width="84.7" height="12.3"/>
		<rect x="153.5" y="172.2" class="st3" width="20.6" height="12.3"/>
		<g>
			<path class="st5" d="M220.5,200.6H61.4c-0.6,0-1-0.4-1-1s0.4-1,1-1h158.1v-11.5h-38.9v5.8c0,0.6-0.4,1-1,1H77.7c-0.6,0-1-0.4-1-1
				v-5.8H37.9v11.5h15.7c0.6,0,1,0.4,1,1s-0.4,1-1,1H36.9c-0.6,0-1-0.4-1-1v-13.5c0-0.6,0.4-1,1-1h40.9c0.6,0,1,0.4,1,1v5.8h99.9
				v-5.8c0-0.6,0.4-1,1-1h40.9c0.6,0,1,0.4,1,1v13.5C221.5,200.2,221.1,200.6,220.5,200.6z"/>
		</g>
		<g>
			<rect x="36.9" y="152.8" class="st3" width="40.9" height="13.6"/>
			<path class="st5" d="M77.7,167.3H36.9c-0.6,0-1-0.4-1-1v-13.6c0-0.6,0.4-1,1-1h40.9c0.6,0,1,0.4,1,1v13.6
				C78.7,166.9,78.3,167.3,77.7,167.3z M37.9,165.3h38.9v-11.6H37.9V165.3z"/>
		</g>
		<g>
			<path class="st5" d="M220.5,167.3h-40.9c-0.6,0-1-0.4-1-1v-13.6c0-0.6,0.4-1,1-1h40.9c0.6,0,1,0.4,1,1v13.6
				C221.5,166.9,221.1,167.3,220.5,167.3z M180.7,165.3h38.9v-11.6h-38.9V165.3z"/>
		</g>
		<g>
			<path class="st5" d="M31,219.1c-3.8,0-6.9-3.1-6.9-6.9v-88c0-0.6,0.4-1,1-1s1,0.4,1,1v88c0,2.7,2.2,4.9,4.9,4.9s4.9-2.2,4.9-4.9
				V93.1h-9.8v25.2c0,0.6-0.4,1-1,1s-1-0.4-1-1V92.1c0-0.6,0.4-1,1-1h11.8c0.6,0,1,0.4,1,1v120.1C37.9,216,34.8,219.1,31,219.1z"/>
		</g>
		<g>
			<path class="st5" d="M220.5,120.2c-0.6,0-1-0.4-1-1v-3.1c0-0.6,0.4-1,1-1s1,0.4,1,1v3.1C221.5,119.7,221.1,120.2,220.5,120.2z"/>
		</g>
		<g>
			<path class="st5" d="M226.4,219.1c-3.8,0-6.9-3.1-6.9-6.9v-88c0-0.6,0.4-1,1-1s1,0.4,1,1v88c0,2.7,2.2,4.9,4.9,4.9
				s4.9-2.2,4.9-4.9V93.1h-9.8v15.5c0,0.6-0.4,1-1,1s-1-0.4-1-1V92.1c0-0.6,0.4-1,1-1h11.8c0.6,0,1,0.4,1,1v120.1
				C233.3,216,230.2,219.1,226.4,219.1z"/>
		</g>
		<g>
			<path class="st5" d="M242.2,93.1h-39.6c-0.6,0-1-0.4-1-1V37.9c0-0.6,0.4-1,1-1h39.6c6,0,10.8,4.9,10.8,10.8v34.6
				C253,88.3,248.2,93.1,242.2,93.1z M203.6,91.1h38.6c4.9,0,8.8-4,8.8-8.8V47.7c0-4.9-4-8.8-8.8-8.8h-38.6V91.1z"/>
		</g>
		<g>
			<path class="st5" d="M54.8,93.1H15.2c-6,0-10.8-4.9-10.8-10.8V47.7c0-6,4.9-10.8,10.8-10.8h39.6c0.6,0,1,0.4,1,1v54.3
				C55.8,92.7,55.3,93.1,54.8,93.1z M15.2,38.9c-4.9,0-8.8,4-8.8,8.8v34.6c0,4.9,4,8.8,8.8,8.8h38.6V38.9H15.2z"/>
		</g>
		<g>
			<path class="st5" d="M226.4,80.9c-8.8,0-15.9-7.1-15.9-15.9s7.1-15.9,15.9-15.9s15.9,7.1,15.9,15.9S235.2,80.9,226.4,80.9z
				 M226.4,51.1c-7.7,0-13.9,6.3-13.9,13.9c0,7.7,6.3,13.9,13.9,13.9s13.9-6.3,13.9-13.9C240.4,57.3,234.1,51.1,226.4,51.1z"/>
		</g>
		<path class="st6" d="M232.4,54.4c4.6,1.3,8,5.6,8,10.6c0,6.1-4.9,11-11,11s-11-4.9-11-11c0-5.6,4.3-10.3,9.7-10.9L232.4,54.4z"/>
		<polygon class="st0" points="26.7,50.3 18,50.3 18,74 18,79.7 48.1,79.7 48.1,74 48.1,50.3 30.7,50.3 		"/>
		<g>
			<path class="st5" d="M226.4,76.5c-6.3,0-11.5-5.2-11.5-11.5c0-5.8,4.4-10.8,10.2-11.4c0.3,0,0.5,0.2,0.6,0.4
				c0,0.3-0.2,0.5-0.4,0.6c-5.3,0.6-9.3,5.1-9.3,10.4c0,5.8,4.7,10.5,10.5,10.5s10.5-4.7,10.5-10.5c0-4.7-3.1-8.8-7.6-10.1
				c-0.3-0.1-0.4-0.4-0.3-0.6c0.1-0.3,0.3-0.4,0.6-0.3c4.9,1.4,8.3,5.9,8.3,11.1C237.9,71.3,232.8,76.5,226.4,76.5z"/>
		</g>
		<g>
			<path class="st5" d="M49.3,84.8H10.9c-0.6,0-1-0.4-1-1V46.2c0-0.6,0.4-1,1-1h38.4c0.6,0,1,0.4,1,1v37.7
				C50.3,84.4,49.8,84.8,49.3,84.8z M11.9,82.8h36.4V47.2H11.9V82.8z"/>
		</g>
		<g>
			<path class="st5" d="M45.1,80.2H15c-0.3,0-0.5-0.2-0.5-0.5V50.3c0-0.3,0.2-0.5,0.5-0.5h8.7c0.3,0,0.5,0.2,0.5,0.5
				s-0.2,0.5-0.5,0.5h-8.2v28.4h29.1V50.8H27.7c-0.3,0-0.5-0.2-0.5-0.5s0.2-0.5,0.5-0.5h17.4c0.3,0,0.5,0.2,0.5,0.5v29.4
				C45.6,80,45.4,80.2,45.1,80.2z"/>
		</g>
		<g>
			<path class="st5" d="M188.8,93.1h-9.2c-0.6,0-1-0.4-1-1V79.2H78.7v12.9c0,0.6-0.4,1-1,1h-9.2c-0.6,0-1-0.4-1-1v-25
				c0-0.6,0.4-1,1-1h120.3c0.6,0,1,0.4,1,1v25C189.8,92.7,189.4,93.1,188.8,93.1z M180.7,91.1h7.2v-23H69.6v23h7.2V78.2
				c0-0.6,0.4-1,1-1h101.9c0.6,0,1,0.4,1,1V91.1z"/>
		</g>
		<g>
			<path class="st5" d="M202.6,59H92.2c-0.3,0-0.5-0.2-0.5-0.5s0.2-0.5,0.5-0.5h110v-7.5H55.3V58H85c0.3,0,0.5,0.2,0.5,0.5
				S85.3,59,85,59H54.8c-0.3,0-0.5-0.2-0.5-0.5v-8.5c0-0.3,0.2-0.5,0.5-0.5h147.9c0.3,0,0.5,0.2,0.5,0.5v8.5
				C203.1,58.8,202.9,59,202.6,59z"/>
		</g>
		<g>
			<path class="st5" d="M171,98.8h-34.7c-0.3,0-0.5-0.2-0.5-0.5s0.2-0.5,0.5-0.5h34.2V86.5H86.9v11.3h45.2c0.3,0,0.5,0.2,0.5,0.5
				s-0.2,0.5-0.5,0.5H86.4c-0.3,0-0.5-0.2-0.5-0.5V86c0-0.3,0.2-0.5,0.5-0.5H171c0.3,0,0.5,0.2,0.5,0.5v12.3
				C171.5,98.6,171.3,98.8,171,98.8z"/>
		</g>
		<g>
			<path class="st5" d="M171,120.3H86.4c-0.3,0-0.5-0.2-0.5-0.5v-12.3c0-0.3,0.2-0.5,0.5-0.5H171c0.3,0,0.5,0.2,0.5,0.5v12.3
				C171.5,120.1,171.3,120.3,171,120.3z M86.9,119.3h83.7V108H86.9V119.3z"/>
		</g>
		<g>
			<path class="st5" d="M171,141.9H86.4c-0.3,0-0.5-0.2-0.5-0.5v-12.3c0-0.3,0.2-0.5,0.5-0.5h20.1c0.3,0,0.5,0.2,0.5,0.5
				s-0.2,0.5-0.5,0.5H86.9v11.3h83.7v-11.3h-58.8c-0.3,0-0.5-0.2-0.5-0.5s0.2-0.5,0.5-0.5H171c0.3,0,0.5,0.2,0.5,0.5v12.3
				C171.5,141.7,171.3,141.9,171,141.9z"/>
		</g>
		<g>
			<rect x="86.4" y="150.6" class="st6" width="84.7" height="12.3"/>
			<path class="st5" d="M171,163.4H86.4c-0.3,0-0.5-0.2-0.5-0.5v-12.3c0-0.3,0.2-0.5,0.5-0.5H171c0.3,0,0.5,0.2,0.5,0.5v12.3
				C171.5,163.2,171.3,163.4,171,163.4z M86.9,162.4h83.7v-11.3H86.9V162.4z"/>
		</g>
		<g>
			<path class="st5" d="M137.1,185H86.4c-0.3,0-0.5-0.2-0.5-0.5v-12.3c0-0.3,0.2-0.5,0.5-0.5h50.7c0.3,0,0.5,0.2,0.5,0.5v12.3
				C137.6,184.8,137.3,185,137.1,185z M86.9,184h49.7v-11.3H86.9V184z"/>
		</g>
		<g>
			<path class="st5" d="M171,185h-20.6c-0.3,0-0.5-0.2-0.5-0.5v-12.3c0-0.3,0.2-0.5,0.5-0.5H171c0.3,0,0.5,0.2,0.5,0.5v12.3
				C171.5,184.8,171.3,185,171,185z M151,184h19.6v-11.3H151V184z"/>
		</g>
		<g>
			<path class="st5" d="M21,74.6c-0.1,0-0.3,0-0.4-0.1c-0.2-0.2-0.2-0.5,0-0.7l18.2-18.2c0.2-0.2,0.5-0.2,0.7,0s0.2,0.5,0,0.7
				L21.3,74.4C21.2,74.5,21.1,74.6,21,74.6z"/>
		</g>
		<g>
			<path class="st5" d="M27,73.1c-0.1,0-0.3,0-0.4-0.1c-0.2-0.2-0.2-0.5,0-0.7l10.5-10.5c0.2-0.2,0.5-0.2,0.7,0s0.2,0.5,0,0.7
				L27.4,72.9C27.3,73,27.1,73.1,27,73.1z"/>
		</g>
	</g>
	<g>
		<path class="st5" d="M163.8,24.5c-1.6,0-3-1.3-3-3s1.3-3,3-3s3,1.3,3,3S165.4,24.5,163.8,24.5z M163.8,19.6c-1.1,0-2,0.9-2,2
			s0.9,2,2,2s2-0.9,2-2S164.9,19.6,163.8,19.6z"/>
	</g>
	<g>
		<path class="st6" d="M54.8,218.6c-1.6,0-3-1.3-3-3s1.3-3,3-3s3,1.3,3,3S56.4,218.6,54.8,218.6z M54.8,213.7c-1.1,0-2,0.9-2,2
			s0.9,2,2,2s2-0.9,2-2S55.9,213.7,54.8,213.7z"/>
	</g>
	<g>
		<path class="st5" d="M197.2,218.9c-0.1,0-0.3-0.1-0.4-0.1c-0.1-0.1-0.2-0.3-0.1-0.5l0.8-2.6l-0.8-2.6c-0.1-0.2,0-0.4,0.1-0.5
			c0.1-0.1,0.3-0.2,0.5-0.1l2.6,0.8l2.6-0.8c0.2-0.1,0.4,0,0.5,0.1s0.2,0.3,0.1,0.5l-0.8,2.6l0.8,2.6c0.1,0.2,0,0.4-0.1,0.5
			s-0.3,0.2-0.5,0.1l-1-0.3c-0.3-0.1-0.4-0.4-0.3-0.6c0.1-0.3,0.4-0.4,0.6-0.3l0.1,0l-0.5-1.8c0-0.1,0-0.2,0-0.3l0.5-1.8l-1.8,0.5
			c-0.1,0-0.2,0-0.3,0l-1.8-0.5l0.5,1.8c0,0.1,0,0.2,0,0.3l-0.5,1.8l1.8-0.5c0.3-0.1,0.5,0.1,0.6,0.3c0.1,0.3-0.1,0.5-0.3,0.6
			l-2.7,0.8C197.3,218.9,197.2,218.9,197.2,218.9z"/>
	</g>
	<g>
		<path class="st1" d="M197.4,131.2c-0.1,0-0.3-0.1-0.4-0.1c-0.1-0.1-0.2-0.3-0.1-0.5l0.8-2.6l-0.8-2.6c-0.1-0.2,0-0.4,0.1-0.5
			s0.3-0.2,0.5-0.1l2.6,0.8l2.6-0.8c0.2-0.1,0.4,0,0.5,0.1s0.2,0.3,0.1,0.5l-0.8,2.6l0.8,2.6c0.1,0.2,0,0.4-0.1,0.5
			s-0.3,0.2-0.5,0.1l-1-0.3c-0.3-0.1-0.4-0.4-0.3-0.6c0.1-0.3,0.4-0.4,0.6-0.3l0.1,0l-0.5-1.8c0-0.1,0-0.2,0-0.3l0.5-1.8l-1.8,0.5
			c-0.1,0-0.2,0-0.3,0l-1.8-0.5l0.5,1.8c0,0.1,0,0.2,0,0.3l-0.5,1.8l1.8-0.5c0.3-0.1,0.5,0.1,0.6,0.3c0.1,0.3-0.1,0.5-0.3,0.6
			l-2.7,0.8C197.5,131.2,197.4,131.2,197.4,131.2z"/>
	</g>
	<g>
		<g>
			<path class="st6" d="M131.7,210c-0.3,0-0.5-0.2-0.5-0.5v-2.4c0-0.3,0.2-0.5,0.5-0.5s0.5,0.2,0.5,0.5v2.4
				C132.2,209.8,132,210,131.7,210z"/>
		</g>
		<g>
			<path class="st6" d="M131.7,215.9c-0.3,0-0.5-0.2-0.5-0.5V213c0-0.3,0.2-0.5,0.5-0.5s0.5,0.2,0.5,0.5v2.4
				C132.2,215.7,132,215.9,131.7,215.9z"/>
		</g>
		<g>
			<path class="st6" d="M135.8,211.7h-2.4c-0.3,0-0.5-0.2-0.5-0.5s0.2-0.5,0.5-0.5h2.4c0.3,0,0.5,0.2,0.5,0.5
				S136.1,211.7,135.8,211.7z"/>
		</g>
		<g>
			<path class="st6" d="M130,211.7h-2.4c-0.3,0-0.5-0.2-0.5-0.5s0.2-0.5,0.5-0.5h2.4c0.3,0,0.5,0.2,0.5,0.5S130.3,211.7,130,211.7z"
				/>
		</g>
	</g>
	<g>
		<g>
			<path class="st1" d="M86.4,28.4c-0.3,0-0.5-0.2-0.5-0.5v-2.4c0-0.3,0.2-0.5,0.5-0.5s0.5,0.2,0.5,0.5v2.4
				C86.9,28.2,86.6,28.4,86.4,28.4z"/>
		</g>
		<g>
			<path class="st1" d="M86.4,34.3c-0.3,0-0.5-0.2-0.5-0.5v-2.4c0-0.3,0.2-0.5,0.5-0.5s0.5,0.2,0.5,0.5v2.4
				C86.9,34,86.6,34.3,86.4,34.3z"/>
		</g>
		<g>
			<path class="st1" d="M90.5,30.1h-2.4c-0.3,0-0.5-0.2-0.5-0.5s0.2-0.5,0.5-0.5h2.4c0.3,0,0.5,0.2,0.5,0.5S90.8,30.1,90.5,30.1z"/>
		</g>
		<g>
			<path class="st1" d="M84.7,30.1h-2.4c-0.3,0-0.5-0.2-0.5-0.5s0.2-0.5,0.5-0.5h2.4c0.3,0,0.5,0.2,0.5,0.5S84.9,30.1,84.7,30.1z"/>
		</g>
	</g>
	<g>
		<g>
			<path class="st3" d="M52.3,120.3c-0.3,0-0.5-0.2-0.5-0.5v-2.4c0-0.3,0.2-0.5,0.5-0.5s0.5,0.2,0.5,0.5v2.4
				C52.8,120.1,52.6,120.3,52.3,120.3z"/>
		</g>
		<g>
			<path class="st3" d="M52.3,126.2c-0.3,0-0.5-0.2-0.5-0.5v-2.4c0-0.3,0.2-0.5,0.5-0.5s0.5,0.2,0.5,0.5v2.4
				C52.8,126,52.6,126.2,52.3,126.2z"/>
		</g>
		<g>
			<path class="st3" d="M56.4,122H54c-0.3,0-0.5-0.2-0.5-0.5s0.2-0.5,0.5-0.5h2.4c0.3,0,0.5,0.2,0.5,0.5S56.7,122,56.4,122z"/>
		</g>
		<g>
			<path class="st3" d="M50.6,122h-2.4c-0.3,0-0.5-0.2-0.5-0.5s0.2-0.5,0.5-0.5h2.4c0.3,0,0.5,0.2,0.5,0.5S50.9,122,50.6,122z"/>
		</g>
	</g>
</g>
</svg>
