<?xml version="1.0" encoding="utf-8"?>
<!-- Generator: Adobe Illustrator 22.1.0, SVG Export Plug-In . SVG Version: 6.00 Build 0)  -->
<svg version="1.1" id="Layer_1" xmlns="http://www.w3.org/2000/svg" xmlns:xlink="http://www.w3.org/1999/xlink" x="0px" y="0px"
	 viewBox="0 0 256 256" style="enable-background:new 0 0 256 256;" xml:space="preserve">
<style type="text/css">
	.st0{fill:#DBFDFF;}
	.st1{fill:#FFFFED;}
	.st2{fill:#FFFFFF;}
	.st3{fill:#48386A;}
	.st4{fill:#9FEAFF;}
	.st5{fill:#FEBE7F;}
	.st6{fill:#FF8584;}
</style>
<g>
	<path class="st0" d="M234.6,120.9c4.8-7.7,7.6-16.9,7.6-26.7c0-27.9-22.6-50.5-50.5-50.5c-14.1,0-26.9,5.8-36,15.1
		C147,51.9,136,47.8,124,47.8c-4.5,0-8.9,0.6-13.1,1.7c-8.9-14.4-24.8-24-43-24C40,25.5,17.4,48.1,17.4,76c0,4.8,0.7,9.4,1.9,13.8
		c-2.1,5.5-3.2,11.5-3.2,17.7c0,15.9,7.4,30.1,18.9,39.4c-12.8,9.2-21.2,24.2-21.2,41.1c0,27.9,22.6,50.5,50.5,50.5
		c23.4,0,43-15.9,48.8-37.5c7.2,3.9,15.5,6.2,24.2,6.2c1.3,0,2.5-0.1,3.8-0.2c7.5,18.4,25.6,31.4,46.8,31.4
		c27.9,0,50.5-22.6,50.5-50.5c0-8.6-2.2-16.7-6-23.8c3.8-7.1,6-15.2,6-23.8C238.5,133.5,237.1,126.9,234.6,120.9z"/>
	<g>
		<polygon class="st1" points="40,142.2 40,3.8 192.3,3.8 192.3,227.1 40,227.1 40,155.1 		"/>
		<polygon class="st2" points="217.4,72 217.4,252.2 65.1,252.2 65.1,239.6 204.9,239.6 204.9,28.9 217.4,28.9 217.4,63.9 		"/>
		<g>
			<path class="st3" d="M40,151.8c-0.6,0-1-0.4-1-1v-2.7c0-0.6,0.4-1,1-1s1,0.4,1,1v2.7C41,151.4,40.5,151.8,40,151.8z"/>
		</g>
		<g>
			<path class="st3" d="M192.3,228.1H40c-0.6,0-1-0.4-1-1v-72c0-0.6,0.4-1,1-1s1,0.4,1,1v71h150.3V4.8H41v137.4c0,0.6-0.4,1-1,1
				s-1-0.4-1-1V3.8c0-0.6,0.4-1,1-1h152.3c0.6,0,1,0.4,1,1v223.3C193.3,227.7,192.9,228.1,192.3,228.1z"/>
		</g>
		<polygon class="st0" points="207.9,16.4 207.9,239.6 55.5,239.6 55.5,227.1 195.3,227.1 195.3,16.4 		"/>
		<g>
			<path class="st3" d="M204.9,240.6H52.5c-0.6,0-1-0.4-1-1v-12.5c0-0.6,0.4-1,1-1h138.8V16.4c0-0.6,0.4-1,1-1h12.5c0.6,0,1,0.4,1,1
				v223.3C205.9,240.2,205.4,240.6,204.9,240.6z M53.5,238.6h150.3V17.4h-10.5v209.8c0,0.6-0.4,1-1,1H53.5V238.6z"/>
		</g>
		<g>
			<polygon class="st4" points="217.4,72 217.4,252.2 65.1,252.2 65.1,239.6 204.9,239.6 204.9,28.9 217.4,28.9 217.4,63.9 			"/>
			<path class="st3" d="M217.4,253.2H65.1c-0.6,0-1-0.4-1-1v-12.5c0-0.6,0.4-1,1-1h138.8V28.9c0-0.6,0.4-1,1-1h12.5c0.6,0,1,0.4,1,1
				v35c0,0.6-0.4,1-1,1s-1-0.4-1-1v-34h-10.5v209.7c0,0.6-0.4,1-1,1H66.1v10.5h150.3V72c0-0.6,0.4-1,1-1s1,0.4,1,1v180.2
				C218.4,252.7,218,253.2,217.4,253.2z"/>
		</g>
		<g>
			<path class="st3" d="M181.6,39.4h-131c-0.6,0-1-0.4-1-1v-22c0-0.6,0.4-1,1-1h131c0.6,0,1,0.4,1,1v22
				C182.6,38.9,182.2,39.4,181.6,39.4z M51.6,37.4h129v-20h-129V37.4z"/>
		</g>
		<polygon class="st4" points="135.1,21.5 179,21.5 179,33.1 59.2,33.1 59.2,21.5 127.1,21.5 		"/>
		
			<rect x="113.4" y="57.1" transform="matrix(-1.836970e-16 1 -1 -1.836970e-16 236.1753 -2.1615)" class="st4" width="11.6" height="119.8"/>
		<polygon class="st5" points="145.8,144.8 179.1,144.8 179.1,209 124.7,209 124.7,144.8 137.7,144.8 		"/>
		<path class="st6" d="M83.3,64.8c0.7,1.6,1.1,3.3,1.1,5.2c0,7-5.7,12.8-12.8,12.8S58.9,77.1,58.9,70s5.7-12.8,12.8-12.8
			c3.2,0,6.1,1.2,8.3,3.1L83.3,64.8z"/>
		<g>
			<path class="st3" d="M176,33.6H56.2c-0.3,0-0.5-0.2-0.5-0.5V21.5c0-0.3,0.2-0.5,0.5-0.5h67.9c0.3,0,0.5,0.2,0.5,0.5
				s-0.2,0.5-0.5,0.5H56.7v10.6h118.8V22h-43.5c-0.3,0-0.5-0.2-0.5-0.5s0.2-0.5,0.5-0.5h44c0.3,0,0.5,0.2,0.5,0.5v11.6
				C176.5,33.4,176.3,33.6,176,33.6z"/>
		</g>
		<g>
			<path class="st3" d="M181.7,129h-131c-0.6,0-1-0.4-1-1v-22c0-0.6,0.4-1,1-1h70.5c0.6,0,1,0.4,1,1s-0.4,1-1,1H51.7v20h129v-20h-52
				c-0.6,0-1-0.4-1-1s0.4-1,1-1h53c0.6,0,1,0.4,1,1v22C182.7,128.6,182.2,129,181.7,129z"/>
		</g>
		<g>
			<path class="st3" d="M176.1,123.3H56.2c-0.3,0-0.5-0.2-0.5-0.5v-11.6c0-0.3,0.2-0.5,0.5-0.5h119.8c0.3,0,0.5,0.2,0.5,0.5v11.6
				C176.6,123.1,176.4,123.3,176.1,123.3z M56.7,122.3h118.8v-10.6H56.7V122.3z"/>
		</g>
		<g>
			<path class="st3" d="M181.7,215.2h-65.5c-0.6,0-1-0.4-1-1v-74.6c0-0.6,0.4-1,1-1h65.5c0.6,0,1,0.4,1,1v51.6c0,0.6-0.4,1-1,1
				s-1-0.4-1-1v-50.6h-63.5v72.6h63.5v-11c0-0.6,0.4-1,1-1s1,0.4,1,1v12C182.7,214.8,182.2,215.2,181.7,215.2z"/>
		</g>
		<g>
			<path class="st3" d="M176.1,209.5h-54.3c-0.3,0-0.5-0.2-0.5-0.5v-64.2c0-0.3,0.2-0.5,0.5-0.5h13c0.3,0,0.5,0.2,0.5,0.5
				s-0.2,0.5-0.5,0.5h-12.5v63.2h53.3v-63.2h-32.8c-0.3,0-0.5-0.2-0.5-0.5s0.2-0.5,0.5-0.5h33.3c0.3,0,0.5,0.2,0.5,0.5V209
				C176.6,209.2,176.4,209.5,176.1,209.5z"/>
		</g>
		<g>
			<path class="st3" d="M68.7,89c-2.9,0-5.6-0.6-8.2-1.8c-0.5-0.2-0.7-0.8-0.5-1.3c0.2-0.5,0.8-0.7,1.3-0.5c2.3,1.1,4.8,1.6,7.3,1.6
				c9.4,0,17-7.6,17-17s-7.6-17-17-17s-17,7.6-17,17c0,4.7,1.9,9.1,5.3,12.3c0.4,0.4,0.4,1,0,1.4c-0.4,0.4-1,0.4-1.4,0
				c-3.8-3.6-5.9-8.5-5.9-13.7c0-10.5,8.5-19,19-19c10.5,0,19,8.5,19,19S79.1,89,68.7,89z"/>
		</g>
		<g>
			<path class="st3" d="M68.7,83.3c-7.3,0-13.3-5.9-13.3-13.3s5.9-13.3,13.3-13.3c3.2,0,6.3,1.1,8.7,3.2c0.2,0.2,0.2,0.5,0.1,0.7
				c-0.2,0.2-0.5,0.2-0.7,0.1c-2.2-1.9-5.1-3-8-3c-6.8,0-12.3,5.5-12.3,12.3s5.5,12.3,12.3,12.3S80.9,76.8,80.9,70
				c0-1.7-0.4-3.4-1.1-5c-0.1-0.3,0-0.5,0.3-0.7c0.3-0.1,0.5,0,0.7,0.3c0.8,1.7,1.1,3.5,1.1,5.4C81.9,77.3,76,83.3,68.7,83.3z"/>
		</g>
		<g>
			<path class="st3" d="M181.7,53H99.1c-0.6,0-1-0.4-1-1s0.4-1,1-1h82.6c0.6,0,1,0.4,1,1S182.2,53,181.7,53z"/>
		</g>
		<g>
			<path class="st3" d="M181.7,89H99.1c-0.6,0-1-0.4-1-1s0.4-1,1-1h82.6c0.6,0,1,0.4,1,1S182.2,89,181.7,89z"/>
		</g>
		<g>
			<path class="st3" d="M181.7,71h-78.2c-0.6,0-1-0.4-1-1s0.4-1,1-1h78.2c0.6,0,1,0.4,1,1S182.2,71,181.7,71z"/>
		</g>
		<g>
			<path class="st3" d="M99.3,140.1H50.7c-0.3,0-0.5-0.2-0.5-0.5s0.2-0.5,0.5-0.5h48.7c0.3,0,0.5,0.2,0.5,0.5S99.6,140.1,99.3,140.1
				z"/>
		</g>
		<g>
			<path class="st3" d="M106.3,154.9H50.7c-0.3,0-0.5-0.2-0.5-0.5s0.2-0.5,0.5-0.5h55.6c0.3,0,0.5,0.2,0.5,0.5
				S106.6,154.9,106.3,154.9z"/>
		</g>
		<g>
			<path class="st3" d="M99.3,169.7H50.7c-0.3,0-0.5-0.2-0.5-0.5s0.2-0.5,0.5-0.5h48.7c0.3,0,0.5,0.2,0.5,0.5S99.6,169.7,99.3,169.7
				z"/>
		</g>
		<g>
			<path class="st3" d="M92.4,184.5H50.7c-0.3,0-0.5-0.2-0.5-0.5s0.2-0.5,0.5-0.5h41.7c0.3,0,0.5,0.2,0.5,0.5S92.6,184.5,92.4,184.5
				z"/>
		</g>
		<g>
			<path class="st3" d="M106.3,199.3H50.7c-0.3,0-0.5-0.2-0.5-0.5s0.2-0.5,0.5-0.5h55.6c0.3,0,0.5,0.2,0.5,0.5
				S106.6,199.3,106.3,199.3z"/>
		</g>
		<g>
			<path class="st3" d="M100.4,214.1H74.2c-0.3,0-0.5-0.2-0.5-0.5s0.2-0.5,0.5-0.5h26.1c0.3,0,0.5,0.2,0.5,0.5
				S100.6,214.1,100.4,214.1z"/>
		</g>
		<g>
			<path class="st3" d="M67,214.1H54.7c-0.3,0-0.5-0.2-0.5-0.5s0.2-0.5,0.5-0.5H67c0.3,0,0.5,0.2,0.5,0.5S67.3,214.1,67,214.1z"/>
		</g>
	</g>
	<g>
		<path class="st3" d="M30.5,160.7c-1.6,0-3-1.3-3-3s1.3-3,3-3s3,1.3,3,3S32.1,160.7,30.5,160.7z M30.5,155.8c-1.1,0-2,0.9-2,2
			c0,1.1,0.9,2,2,2c1.1,0,2-0.9,2-2C32.4,156.6,31.5,155.8,30.5,155.8z"/>
	</g>
	<g>
		<path class="st6" d="M226.3,194.8c-1.6,0-3-1.3-3-3s1.3-3,3-3s3,1.3,3,3S228,194.8,226.3,194.8z M226.3,189.8c-1.1,0-2,0.9-2,2
			s0.9,2,2,2s2-0.9,2-2S227.4,189.8,226.3,189.8z"/>
	</g>
	<g>
		<path class="st3" d="M231.5,83.3c0,0-0.1,0-0.1,0l-1-0.3c-0.3-0.1-0.4-0.4-0.3-0.6c0.1-0.3,0.4-0.4,0.6-0.3l0.1,0l-0.5-1.8
			c0-0.1,0-0.2,0-0.3l0.5-1.8l-1.8,0.5c-0.1,0-0.2,0-0.3,0l-1.8-0.5l0.5,1.8c0,0.1,0,0.2,0,0.3l-0.5,1.8l1.8-0.5
			c0.3-0.1,0.5,0.1,0.6,0.3c0.1,0.3-0.1,0.5-0.3,0.6l-2.7,0.8c-0.2,0.1-0.4,0-0.5-0.1c-0.1-0.1-0.2-0.3-0.1-0.5l0.8-2.6l-0.8-2.6
			c-0.1-0.2,0-0.4,0.1-0.5c0.1-0.1,0.3-0.2,0.5-0.1l2.6,0.8l2.6-0.8c0.2-0.1,0.4,0,0.5,0.1s0.2,0.3,0.1,0.5l-0.8,2.6l0.8,2.6
			c0.1,0.2,0,0.4-0.1,0.5C231.8,83.2,231.7,83.3,231.5,83.3z"/>
	</g>
	<g>
		<path class="st5" d="M31.9,117.1c0,0-0.1,0-0.1,0l-1-0.3c-0.3-0.1-0.4-0.4-0.3-0.6c0.1-0.3,0.4-0.4,0.6-0.3l0.1,0l-0.5-1.8
			c0-0.1,0-0.2,0-0.3l0.5-1.8l-1.8,0.5c-0.1,0-0.2,0-0.3,0l-1.8-0.5l0.5,1.8c0,0.1,0,0.2,0,0.3l-0.5,1.8l1.8-0.5
			c0.3-0.1,0.5,0.1,0.6,0.3c0.1,0.3-0.1,0.5-0.3,0.6l-2.7,0.8c-0.2,0.1-0.4,0-0.5-0.1c-0.1-0.1-0.2-0.3-0.1-0.5l0.8-2.6l-0.8-2.6
			c-0.1-0.2,0-0.4,0.1-0.5c0.1-0.1,0.3-0.2,0.5-0.1l2.6,0.8l2.6-0.8c0.2-0.1,0.4,0,0.5,0.1s0.2,0.3,0.1,0.5l-0.8,2.6l0.8,2.6
			c0.1,0.2,0,0.4-0.1,0.5C32.2,117.1,32.1,117.1,31.9,117.1z"/>
	</g>
	<g>
		<g>
			<path class="st6" d="M30.5,68.8c-0.3,0-0.5-0.2-0.5-0.5v-2.4c0-0.3,0.2-0.5,0.5-0.5s0.5,0.2,0.5,0.5v2.4
				C31,68.6,30.7,68.8,30.5,68.8z"/>
		</g>
		<g>
			<path class="st6" d="M30.5,74.7c-0.3,0-0.5-0.2-0.5-0.5v-2.4c0-0.3,0.2-0.5,0.5-0.5s0.5,0.2,0.5,0.5v2.4
				C31,74.4,30.7,74.7,30.5,74.7z"/>
		</g>
		<g>
			<path class="st6" d="M34.6,70.5h-2.4c-0.3,0-0.5-0.2-0.5-0.5s0.2-0.5,0.5-0.5h2.4c0.3,0,0.5,0.2,0.5,0.5S34.9,70.5,34.6,70.5z"/>
		</g>
		<g>
			<path class="st6" d="M28.7,70.5h-2.4c-0.3,0-0.5-0.2-0.5-0.5s0.2-0.5,0.5-0.5h2.4c0.3,0,0.5,0.2,0.5,0.5S29,70.5,28.7,70.5z"/>
		</g>
	</g>
	<g>
		<g>
			<path class="st5" d="M227.1,134.2c-0.3,0-0.5-0.2-0.5-0.5v-2.4c0-0.3,0.2-0.5,0.5-0.5s0.5,0.2,0.5,0.5v2.4
				C227.6,134,227.4,134.2,227.1,134.2z"/>
		</g>
		<g>
			<path class="st5" d="M227.1,140.1c-0.3,0-0.5-0.2-0.5-0.5v-2.4c0-0.3,0.2-0.5,0.5-0.5s0.5,0.2,0.5,0.5v2.4
				C227.6,139.8,227.4,140.1,227.1,140.1z"/>
		</g>
		<g>
			<path class="st5" d="M231.2,135.9h-2.4c-0.3,0-0.5-0.2-0.5-0.5s0.2-0.5,0.5-0.5h2.4c0.3,0,0.5,0.2,0.5,0.5
				S231.5,135.9,231.2,135.9z"/>
		</g>
		<g>
			<path class="st5" d="M225.4,135.9H223c-0.3,0-0.5-0.2-0.5-0.5s0.2-0.5,0.5-0.5h2.4c0.3,0,0.5,0.2,0.5,0.5
				S225.7,135.9,225.4,135.9z"/>
		</g>
	</g>
	<g>
		<g>
			<path class="st4" d="M27.5,201.7c-0.3,0-0.5-0.2-0.5-0.5v-2.4c0-0.3,0.2-0.5,0.5-0.5s0.5,0.2,0.5,0.5v2.4
				C28,201.5,27.8,201.7,27.5,201.7z"/>
		</g>
		<g>
			<path class="st4" d="M27.5,207.6c-0.3,0-0.5-0.2-0.5-0.5v-2.4c0-0.3,0.2-0.5,0.5-0.5s0.5,0.2,0.5,0.5v2.4
				C28,207.4,27.8,207.6,27.5,207.6z"/>
		</g>
		<g>
			<path class="st4" d="M31.7,203.5h-2.4c-0.3,0-0.5-0.2-0.5-0.5s0.2-0.5,0.5-0.5h2.4c0.3,0,0.5,0.2,0.5,0.5S31.9,203.5,31.7,203.5z
				"/>
		</g>
		<g>
			<path class="st4" d="M25.8,203.5h-2.4c-0.3,0-0.5-0.2-0.5-0.5s0.2-0.5,0.5-0.5h2.4c0.3,0,0.5,0.2,0.5,0.5S26.1,203.5,25.8,203.5z
				"/>
		</g>
	</g>
</g>
</svg>
