<?xml version="1.0" encoding="utf-8"?>
<!-- Generator: Adobe Illustrator 22.1.0, SVG Export Plug-In . SVG Version: 6.00 Build 0)  -->
<svg version="1.1" id="Layer_1" xmlns="http://www.w3.org/2000/svg" xmlns:xlink="http://www.w3.org/1999/xlink" x="0px" y="0px"
	 viewBox="0 0 256 256" style="enable-background:new 0 0 256 256;" xml:space="preserve">
<style type="text/css">
	.st0{fill:#FFFFFF;}
	.st1{fill:#48386A;}
	.st2{fill:#9FEAFF;}
</style>
<g>
	<path class="st0" d="M138.4,227.5h31.3c2.8,0,5.2-2.3,5.2-5.2V113.7c0-2.8-2.3-5.2-5.2-5.2H9.2c-2.8,0-5.2,2.3-5.2,5.2v108.6
		c0,2.8,2.3,5.2,5.2,5.2h123.5H138.4z"/>
	<g>
		<path class="st0" d="M252,91.1v47.2c0,2.8-2.3,5.2-5.2,5.2h-72v-29.7c0-2.8-2.3-5.2-5.2-5.2H81.2V29.6c0-2.8,2.3-5.2,5.2-5.2
			h160.5c2.8,0,5.2,2.3,5.2,5.2V72V91.1z"/>
		<path class="st1" d="M246.8,144.4h-72c-0.6,0-1-0.4-1-1v-29.7c0-2.3-1.9-4.2-4.2-4.2H81.2c-0.6,0-1-0.4-1-1V29.6
			c0-3.4,2.8-6.2,6.2-6.2h160.5c3.4,0,6.2,2.8,6.2,6.2V72c0,0.6-0.4,1-1,1s-1-0.4-1-1V29.6c0-2.3-1.9-4.2-4.2-4.2H86.3
			c-2.3,0-4.2,1.9-4.2,4.2v77.9h87.5c3.4,0,6.2,2.8,6.2,6.2v28.7h71c2.3,0,4.2-1.9,4.2-4.2V91.1c0-0.6,0.4-1,1-1s1,0.4,1,1v47.2
			C253,141.7,250.2,144.4,246.8,144.4z"/>
	</g>
	<g>
		<polygon class="st0" points="161.6,87.3 129.5,108.6 89.4,108.6 89.4,32.7 157.2,84 		"/>
		<path class="st1" d="M129.5,109.1H89.4c-0.3,0-0.5-0.2-0.5-0.5V32.7c0-0.2,0.1-0.4,0.3-0.4c0.2-0.1,0.4-0.1,0.5,0l67.7,51.2
			l4.4,3.3c0.1,0.1,0.2,0.3,0.2,0.4s-0.1,0.3-0.2,0.4L129.8,109C129.7,109,129.6,109.1,129.5,109.1z M89.9,108.1h39.4l31.4-20.8
			l-3.8-2.9L89.9,33.7V108.1z"/>
	</g>
	<path class="st2" d="M179.8,135.2v-21.4c0-2.8-2.3-5.2-5.2-5.2h-40.2l32.1-21.3l5,3.8l5-3.8l72.2,47.9H179.8z"/>
	<path class="st2" d="M141.9,231.5h31.3c2.8,0,5.2-2.3,5.2-5.2V117.7c0-2.8-2.3-5.2-5.2-5.2H12.7c-2.8,0-5.2,2.3-5.2,5.2v108.6
		c0,2.8,2.3,5.2,5.2,5.2h123.5H141.9z"/>
	<g>
		<polygon class="st0" points="166.6,132 166.6,219.3 12.2,219.3 12.2,116.8 166.6,116.8 166.6,127.1 		"/>
		<path class="st1" d="M166.6,219.8H12.2c-0.3,0-0.5-0.2-0.5-0.5V116.8c0-0.3,0.2-0.5,0.5-0.5h154.3c0.3,0,0.5,0.2,0.5,0.5v10.3
			c0,0.3-0.2,0.5-0.5,0.5s-0.5-0.2-0.5-0.5v-9.8H12.7v101.4h153.3V132c0-0.3,0.2-0.5,0.5-0.5s0.5,0.2,0.5,0.5v87.3
			C167.1,219.5,166.9,219.8,166.6,219.8z"/>
	</g>
	<g>
		<path class="st1" d="M169.7,228.5h-31.3c-0.6,0-1-0.4-1-1s0.4-1,1-1h31.3c2.3,0,4.2-1.9,4.2-4.2V113.7c0-2.3-1.9-4.2-4.2-4.2H9.2
			c-2.3,0-4.2,1.9-4.2,4.2v108.6c0,2.3,1.9,4.2,4.2,4.2h123.5c0.6,0,1,0.4,1,1s-0.4,1-1,1H9.2c-3.4,0-6.2-2.8-6.2-6.2V113.7
			c0-3.4,2.8-6.2,6.2-6.2h160.5c3.4,0,6.2,2.8,6.2,6.2v108.6C175.8,225.7,173.1,228.5,169.7,228.5z"/>
	</g>
	<g>
		<polygon class="st0" points="48.5,159.7 22.6,159.7 22.6,127.1 77.9,127.1 77.9,159.7 57.9,159.7 		"/>
		<path class="st1" d="M77.9,160.7h-20c-0.6,0-1-0.4-1-1s0.4-1,1-1h19v-30.6H23.6v30.6h24.9c0.6,0,1,0.4,1,1s-0.4,1-1,1H22.6
			c-0.6,0-1-0.4-1-1v-32.6c0-0.6,0.4-1,1-1h55.3c0.6,0,1,0.4,1,1v32.6C78.9,160.3,78.5,160.7,77.9,160.7z"/>
	</g>
	<g>
		<path class="st1" d="M54,160.7h-1.1c-0.6,0-1-0.4-1-1s0.4-1,1-1H54c0.6,0,1,0.4,1,1S54.6,160.7,54,160.7z"/>
	</g>
	
		<rect x="40.1" y="121.9" transform="matrix(-1.836970e-16 1 -1 -1.836970e-16 197.6543 93.1911)" class="st2" width="24.3" height="47.1"/>
	<g>
		<path class="st1" d="M73.8,156.1H26.7c-0.3,0-0.5-0.2-0.5-0.5v-24.3c0-0.3,0.2-0.5,0.5-0.5h47.1c0.3,0,0.5,0.2,0.5,0.5v24.3
			C74.3,155.9,74.1,156.1,73.8,156.1z M27.2,155.1h46.1v-23.3H27.2V155.1z"/>
	</g>
	<g>
		<path class="st1" d="M156.3,178.3h-27c-0.3,0-0.5-0.2-0.5-0.5s0.2-0.5,0.5-0.5h27c0.3,0,0.5,0.2,0.5,0.5S156.5,178.3,156.3,178.3z
			"/>
	</g>
	<g>
		<path class="st1" d="M125.3,178.3H95.4c-0.3,0-0.5-0.2-0.5-0.5s0.2-0.5,0.5-0.5h29.9c0.3,0,0.5,0.2,0.5,0.5
			S125.6,178.3,125.3,178.3z"/>
	</g>
	<g>
		<path class="st1" d="M146,188.3H95.4c-0.3,0-0.5-0.2-0.5-0.5s0.2-0.5,0.5-0.5H146c0.3,0,0.5,0.2,0.5,0.5S146.2,188.3,146,188.3z"
			/>
	</g>
	<g>
		<path class="st1" d="M135.6,198.4H95.4c-0.3,0-0.5-0.2-0.5-0.5s0.2-0.5,0.5-0.5h40.2c0.3,0,0.5,0.2,0.5,0.5
			S135.9,198.4,135.6,198.4z"/>
	</g>
	<g>
		<path class="st1" d="M125.3,208.4H95.4c-0.3,0-0.5-0.2-0.5-0.5s0.2-0.5,0.5-0.5h29.9c0.3,0,0.5,0.2,0.5,0.5
			S125.6,208.4,125.3,208.4z"/>
	</g>
	<g>
		<path class="st1" d="M252,87.3c-0.6,0-1-0.4-1-1v-4.8c0-0.6,0.4-1,1-1s1,0.4,1,1v4.8C253,86.9,252.6,87.3,252,87.3z"/>
	</g>
	<polygon class="st2" points="151.2,32.7 248.8,32.7 181,84 176.6,87.3 171.6,91.1 166.6,87.3 162.2,84 94.4,32.7 136.8,32.7 	"/>
	<g>
		<path class="st1" d="M243.8,135.7h-68.9c-0.3,0-0.5-0.2-0.5-0.5v-21.4c0-2.6-2.1-4.7-4.7-4.7h-40.2c-0.2,0-0.4-0.1-0.5-0.4
			c-0.1-0.2,0-0.4,0.2-0.6l32.1-21.3c0.2-0.1,0.4-0.1,0.6,0l4.7,3.6l4.7-3.6c0.2-0.1,0.4-0.1,0.6,0l72.2,47.9
			c0.2,0.1,0.3,0.3,0.2,0.6C244.2,135.5,244,135.7,243.8,135.7z M175.3,134.7h66.8l-70.5-46.8l-4.7,3.6c-0.2,0.1-0.4,0.1-0.6,0
			l-4.7-3.6l-30.4,20.2h38.5c3.1,0,5.7,2.5,5.7,5.7V134.7z"/>
	</g>
	<g>
		<path class="st1" d="M142.9,33.2h-3.5c-0.3,0-0.5-0.2-0.5-0.5s0.2-0.5,0.5-0.5h3.5c0.3,0,0.5,0.2,0.5,0.5S143.2,33.2,142.9,33.2z"
			/>
	</g>
	<g>
		<path class="st1" d="M243.8,135.7c-0.1,0-0.2,0-0.3-0.1l-72.2-47.9c-0.1-0.1-0.2-0.2-0.2-0.4s0.1-0.3,0.2-0.4l72.2-54.5
			c0.2-0.1,0.4-0.1,0.5,0c0.2,0.1,0.3,0.3,0.3,0.4v102.4c0,0.2-0.1,0.4-0.3,0.4C243.9,135.7,243.8,135.7,243.8,135.7z M172.5,87.3
			l70.8,47V33.7L172.5,87.3z"/>
	</g>
	<g>
		<path class="st1" d="M166.6,91.6c-0.1,0-0.2,0-0.3-0.1L89.1,33.1c-0.2-0.1-0.2-0.4-0.2-0.6s0.3-0.3,0.5-0.3h42.3
			c0.3,0,0.5,0.2,0.5,0.5s-0.2,0.5-0.5,0.5H90.9l75.7,57.2l75.7-57.2h-96.1c-0.3,0-0.5-0.2-0.5-0.5s0.2-0.5,0.5-0.5h97.6
			c0.2,0,0.4,0.1,0.5,0.3c0.1,0.2,0,0.4-0.2,0.6l-77.2,58.3C166.8,91.5,166.7,91.6,166.6,91.6z"/>
	</g>
</g>
</svg>
