<?xml version="1.0" encoding="utf-8"?>
<!-- Generator: Adobe Illustrator 22.1.0, SVG Export Plug-In . SVG Version: 6.00 Build 0)  -->
<svg version="1.1" id="Layer_1" xmlns="http://www.w3.org/2000/svg" xmlns:xlink="http://www.w3.org/1999/xlink" x="0px" y="0px"
	 viewBox="0 0 256 256" style="enable-background:new 0 0 256 256;" xml:space="preserve">
<style type="text/css">
	.st0{fill:#FFFFFF;}
	.st1{fill:#9FEAFF;}
	.st2{fill:#48386A;}
</style>
<g>
	<path class="st0" d="M189.2,221H10.3c-3.5,0-6.3-2.8-6.3-6.3V95.9h141.3L158,68h94v146.6c0,3.5-2.8,6.3-6.3,6.3h-45.3H189.2z"/>
	<path class="st0" d="M159.7,50.3h86c3.5,0,6.3,2.8,6.3,6.3l0,11.4h-94l-12.6,27.9H4V41.4c0-3.5,2.8-6.3,6.3-6.3h82.2l12.6,15.3
		h45.5H159.7z"/>
	<polygon class="st1" points="106.5,135.6 4,135.6 4,115 252,115 252,135.6 116.8,135.6 	"/>
	<g>
		<path class="st2" d="M245.7,222h-45.3c-0.6,0-1-0.4-1-1s0.4-1,1-1h45.3c2.9,0,5.3-2.4,5.3-5.3V69h-92.4l-12.4,27.3
			c-0.2,0.4-0.5,0.6-0.9,0.6H5v117.7c0,2.9,2.4,5.3,5.3,5.3h178.9c0.6,0,1,0.4,1,1s-0.4,1-1,1H10.3c-4,0-7.3-3.3-7.3-7.3V95.9
			c0-0.6,0.4-1,1-1h140.7L157,67.6c0.2-0.4,0.5-0.6,0.9-0.6h94c0.6,0,1,0.4,1,1v146.6C253,218.7,249.7,222,245.7,222z"/>
	</g>
	<g>
		<path class="st2" d="M252,142.9H4c-0.6,0-1-0.4-1-1v-33.2c0-0.6,0.4-1,1-1h248c0.6,0,1,0.4,1,1v33.2
			C253,142.4,252.5,142.9,252,142.9z M5,140.9h246v-31.2H5V140.9z"/>
	</g>
	
		<rect x="68.6" y="146.2" transform="matrix(-1.836970e-16 1 -1 -1.836970e-16 270.6251 119.7466)" class="st1" width="13.7" height="98"/>
	
		<rect x="172" y="139.2" transform="matrix(-1.836970e-16 1 -1 -1.836970e-16 375.2058 -13.2697)" class="st1" width="44.4" height="83.5"/>
	<path class="st1" d="M100.8,77.8c-5,0-9.5,2-12.8,5.3c-3.3,3.3-5.3,7.8-5.3,12.8h-67c0-5,2-9.5,5.3-12.8c3.3-3.3,7.8-5.3,12.8-5.3
		H100.8z"/>
	<path class="st1" d="M34.7,35H96l12.6,15.3H7.5v-9c0-3.5,2.8-6.3,6.3-6.3H34.7L34.7,35z"/>
	<path class="st1" d="M171.1,86.8v-1.4c0-3.5,2.8-6.3,6.3-6.3h58.1c3.5,0,6.3,2.8,6.3,6.3v1.4c0,3.5-2.8,6.3-6.3,6.3h-58.1
		C173.9,93.1,171.1,90.2,171.1,86.8z"/>
	<g>
		<path class="st2" d="M252,136.1H115.2c-0.3,0-0.5-0.2-0.5-0.5s0.2-0.5,0.5-0.5h136.3v-19.6H4.5v19.6h100.6c0.3,0,0.5,0.2,0.5,0.5
			s-0.2,0.5-0.5,0.5H4c-0.3,0-0.5-0.2-0.5-0.5V115c0-0.3,0.2-0.5,0.5-0.5h248c0.3,0,0.5,0.2,0.5,0.5v20.6
			C252.5,135.8,252.3,136.1,252,136.1z"/>
	</g>
	<g>
		<path class="st2" d="M127.3,209.3H68.4c-0.6,0-1-0.4-1-1s0.4-1,1-1h57.8V183H17.6v24.3H58c0.6,0,1,0.4,1,1s-0.4,1-1,1H16.6
			c-0.6,0-1-0.4-1-1V182c0-0.6,0.4-1,1-1h110.6c0.6,0,1,0.4,1,1v26.3C128.3,208.9,127.8,209.3,127.3,209.3z"/>
	</g>
	<g>
		<path class="st2" d="M120.9,202.5h-98c-0.3,0-0.5-0.2-0.5-0.5v-13.7c0-0.3,0.2-0.5,0.5-0.5h98c0.3,0,0.5,0.2,0.5,0.5V202
			C121.4,202.3,121.2,202.5,120.9,202.5z M23.4,201.5h97v-12.7h-97V201.5z"/>
	</g>
	<g>
		<path class="st2" d="M186.2,154.6h-5.8c-0.6,0-1-0.4-1-1s0.4-1,1-1h5.8c0.6,0,1,0.4,1,1S186.7,154.6,186.2,154.6z"/>
	</g>
	<g>
		<path class="st2" d="M237.9,209.3h-94.3c-0.6,0-1-0.4-1-1v-54.7c0-0.6,0.4-1,1-1h27.6c0.6,0,1,0.4,1,1s-0.4,1-1,1h-26.6v52.7h92.3
			v-52.7h-45.2c-0.6,0-1-0.4-1-1s0.4-1,1-1h46.2c0.6,0,1,0.4,1,1v54.7C238.9,208.9,238.4,209.3,237.9,209.3z"/>
	</g>
	<g>
		<path class="st2" d="M232.5,203.7H149c-0.3,0-0.5-0.2-0.5-0.5v-44.4c0-0.3,0.2-0.5,0.5-0.5h83.5c0.3,0,0.5,0.2,0.5,0.5v44.4
			C233,203.5,232.8,203.7,232.5,203.7z M149.5,202.7H232v-43.4h-82.5V202.7z"/>
	</g>
	<g>
		<path class="st2" d="M145.3,96.9H79.2c-0.6,0-1-0.4-1-1c0-5.1,2-9.9,5.6-13.5s8.4-5.6,13.5-5.6h56.2c0.3,0,0.7,0.2,0.8,0.5
			s0.2,0.6,0.1,1l-8.2,18.1C146.1,96.7,145.7,96.9,145.3,96.9z M80.2,94.9h64.5l7.3-16.1H97.3c-4.6,0-8.8,1.8-12.1,5
			C82.2,86.8,80.5,90.7,80.2,94.9z"/>
	</g>
	<g>
		<path class="st2" d="M79.2,96.9h-67c-0.6,0-1-0.4-1-1c0-5.1,2-9.9,5.6-13.5c3.6-3.6,8.4-5.6,13.5-5.6h67c0.6,0,1,0.4,1,1
			s-0.4,1-1,1c-4.6,0-8.8,1.8-12.1,5c-3.2,3.2-5,7.5-5,12.1C80.2,96.5,79.8,96.9,79.2,96.9z M13.2,94.9h65c0.2-4.7,2.2-9.1,5.6-12.5
			c1.5-1.5,3.2-2.7,5-3.6H30.3c-4.5,0-8.8,1.8-12.1,5C15.2,86.8,13.4,90.7,13.2,94.9z"/>
	</g>
	<g>
		<path class="st2" d="M145.3,96.9H4c-0.6,0-1-0.4-1-1V41.4c0-4,3.3-7.3,7.3-7.3h82.2c0.3,0,0.6,0.1,0.8,0.4l12.3,14.9h45
			c0.6,0,1,0.4,1,1s-0.4,1-1,1h-45.5c-0.3,0-0.6-0.1-0.8-0.4L92,36H10.3C7.4,36,5,38.4,5,41.4v53.6h139.7L157,67.6
			c0.2-0.4,0.5-0.6,0.9-0.6h93l0-10.4c0-2.9-2.4-5.3-5.3-5.3h-86c-0.6,0-1-0.4-1-1s0.4-1,1-1h86c4,0,7.3,3.3,7.3,7.3l0,11.4
			c0,0.6-0.4,1-1,1h-93.4l-12.4,27.3C146.1,96.7,145.7,96.9,145.3,96.9z"/>
	</g>
	<g>
		<path class="st2" d="M105.1,51.3H4c-0.6,0-1-0.4-1-1v-9c0-4,3.3-7.3,7.3-7.3h82.2c0.3,0,0.6,0.1,0.8,0.4l12.6,15.3
			c0.2,0.3,0.3,0.7,0.1,1.1C105.8,51.1,105.5,51.3,105.1,51.3z M5,49.3h98L92,36H10.3C7.4,36,5,38.4,5,41.4V49.3z"/>
	</g>
	<g>
		<path class="st2" d="M99.4,154.1H16.6c-0.3,0-0.5-0.2-0.5-0.5s0.2-0.5,0.5-0.5h82.8c0.3,0,0.5,0.2,0.5,0.5S99.7,154.1,99.4,154.1z
			"/>
	</g>
	<g>
		<path class="st2" d="M116.4,168.3H16.6c-0.3,0-0.5-0.2-0.5-0.5s0.2-0.5,0.5-0.5h99.7c0.3,0,0.5,0.2,0.5,0.5
			S116.6,168.3,116.4,168.3z"/>
	</g>
	<g>
		<path class="st2" d="M231.3,98.2h-23.4c-0.6,0-1-0.4-1-1s0.4-1,1-1h23.4c5.6,0,10.2-4.6,10.2-10.2s-4.6-10.2-10.2-10.2h-56.7
			c-5.6,0-10.2,4.6-10.2,10.2s4.6,10.2,10.2,10.2h21.9c0.6,0,1,0.4,1,1s-0.4,1-1,1h-21.9c-6.7,0-12.2-5.5-12.2-12.2
			s5.5-12.2,12.2-12.2h56.7c6.7,0,12.2,5.5,12.2,12.2S238,98.2,231.3,98.2z"/>
	</g>
	<g>
		<path class="st2" d="M232,93.6h-58.1c-3.8,0-6.8-3.1-6.8-6.8v-1.4c0-3.8,3.1-6.8,6.8-6.8H232c3.8,0,6.8,3.1,6.8,6.8v1.4
			C238.9,90.5,235.8,93.6,232,93.6z M173.9,79.5c-3.2,0-5.8,2.6-5.8,5.8v1.4c0,3.2,2.6,5.8,5.8,5.8H232c3.2,0,5.8-2.6,5.8-5.8v-1.4
			c0-3.2-2.6-5.8-5.8-5.8H173.9z"/>
	</g>
	<g>
		<path class="st2" d="M252,60.6H111.3c-0.3,0-0.5-0.2-0.5-0.5s0.2-0.5,0.5-0.5H252c0.3,0,0.5,0.2,0.5,0.5S252.3,60.6,252,60.6z"/>
	</g>
	<g>
		<path class="st2" d="M99.4,60.6H4c-0.3,0-0.5-0.2-0.5-0.5s0.2-0.5,0.5-0.5h95.4c0.3,0,0.5,0.2,0.5,0.5S99.7,60.6,99.4,60.6z"/>
	</g>
</g>
</svg>
