<?xml version="1.0" encoding="utf-8"?>
<!-- Generator: Adobe Illustrator 22.1.0, SVG Export Plug-In . SVG Version: 6.00 Build 0)  -->
<svg version="1.1" id="Layer_1" xmlns="http://www.w3.org/2000/svg" xmlns:xlink="http://www.w3.org/1999/xlink" x="0px" y="0px"
	 viewBox="0 0 256 256" style="enable-background:new 0 0 256 256;" xml:space="preserve">
<style type="text/css">
	.st0{fill:#DBFDFF;}
	.st1{fill:#FF8584;}
	.st2{fill:#FFFFFF;}
	.st3{fill:#48386A;}
	.st4{fill:#9FEAFF;}
	.st5{fill:#FEBE7F;}
</style>
<g>
	<path class="st0" d="M234.2,104.6c5.7-8.2,9-18.1,9-28.8c0-27.9-22.6-50.5-50.5-50.5c-9,0-17.4,2.3-24.7,6.4
		c-9.2-12.9-24.2-21.4-41.3-21.4c-17.4,0-32.8,8.8-41.8,22.2c-7.6-4.6-16.6-7.3-26.1-7.3C31,25.3,8.4,47.9,8.4,75.8
		c0,15.2,6.8,28.9,17.4,38.2c0,0,0,0,0,0c0,11.1,3.6,21.3,9.6,29.6c-13.5,9.1-22.4,24.5-22.4,42c0,27.9,22.6,50.5,50.5,50.5
		c10.2,0,19.8-3.1,27.7-8.3c9.2,9.7,22.2,15.7,36.6,15.7c12.2,0,23.4-4.3,32.2-11.6c8.3,6,18.5,9.6,29.6,9.6
		c27.9,0,50.5-22.6,50.5-50.5c0-11.3-3.7-21.7-9.9-30.1c6.7-8.6,10.8-19.4,10.8-31.2C241,120.6,238.5,112.1,234.2,104.6z"/>
	<g>
		<path class="st1" d="M134.3,20.4v15.1c-1.5-0.1-3.1-0.1-4.6-0.1c-1.6,0-3.1,0-4.6,0.1V20.4H134.3z"/>
		<path class="st2" d="M214.6,86.1c8.8,15.1,13.9,32.7,13.9,51.5c0,38.1-20.9,71.4-51.8,88.9c-4.8,2.7-9.9,5.1-15.2,7
			c-11,4-22.9,6.2-35.3,6.2c-12.4,0-24.3-2.2-35.3-6.2c-5.3-1.9-10.3-4.3-15.2-7C44.8,209,24,175.7,24,137.6
			C24,81.1,69.7,35.4,126.2,35.4c33.6,0,63.4,16.2,82,41.2L214.6,86.1z"/>
		<path class="st2" d="M188.8,38.4l-7.5,13.1c-2.6-1.7-5.3-3.2-8-4.6l7.5-13.1L188.8,38.4z"/>
		<path class="st2" d="M79.2,46.8c-2.8,1.4-5.4,3-8,4.6l-7.5-13.1l8-4.6L79.2,46.8z"/>
		<path class="st2" d="M136.9,20.4h-21.3c-3.2,0-5.8-2.6-5.8-5.8v-1.3c0-3.2,2.6-5.8,5.8-5.8h21.3c3.2,0,5.8,2.6,5.8,5.8v1.3
			C142.7,17.7,140.1,20.4,136.9,20.4z"/>
		<path class="st0" d="M71.7,247.4l-5.6,4c-1.4,1-3.2,0.8-4.4-0.4c-0.7-0.7-1-1.5-1-2.4c0-0.7,0.2-1.4,0.6-2l14.4-20
			c4.8,2.7,9.9,5.1,15.2,7l-12.1,8.7L71.7,247.4z"/>
		<path class="st0" d="M191.7,248.6c0,0.9-0.3,1.8-1,2.4c-1.2,1.2-3.1,1.3-4.4,0.4l-24.7-17.8c5.3-1.9,10.3-4.3,15.2-7l14.4,20
			C191.5,247.2,191.7,247.9,191.7,248.6z"/>
		<path class="st1" d="M219.6,86.1c8.8,15.1,13.9,32.7,13.9,51.5c0,38.1-20.9,71.4-51.8,88.9c-4.8,2.7-9.9,5.1-15.2,7
			c-11,4-22.9,6.2-35.3,6.2c-12.4,0-24.3-2.2-35.3-6.2c-5.3-1.9-10.3-4.3-15.2-7C49.8,209,29,175.7,29,137.6
			C29,81.1,74.7,35.4,131.2,35.4c33.6,0,63.4,16.2,82,41.2L219.6,86.1z"/>
		<g>
			<path class="st2" d="M155.1,58.1c32.5,11.8,55.6,42.9,55.6,79.5c0,46.7-37.8,84.5-84.5,84.5s-84.5-37.8-84.5-84.5
				s37.8-84.5,84.5-84.5c6.7,0,13.1,0.8,19.3,2.2L155.1,58.1z"/>
			<path class="st3" d="M126.2,223.1c-47.2,0-85.5-38.4-85.5-85.5c0-47.2,38.4-85.5,85.5-85.5c6.6,0,13.2,0.8,19.6,2.2
				c0.5,0.1,0.9,0.7,0.7,1.2c-0.1,0.5-0.7,0.9-1.2,0.7c-6.2-1.5-12.7-2.2-19.1-2.2c-46.1,0-83.5,37.5-83.5,83.5s37.5,83.5,83.5,83.5
				s83.5-37.5,83.5-83.5c0-35-22.1-66.6-55-78.5c-0.5-0.2-0.8-0.8-0.6-1.3c0.2-0.5,0.8-0.8,1.3-0.6c33.7,12.2,56.3,44.6,56.3,80.4
				C211.7,184.8,173.4,223.1,126.2,223.1z"/>
		</g>
		<g>
			<path class="st3" d="M126.2,150.1c-0.6,0-1-0.4-1-1s0.4-1,1-1c1.2,0,2.3-0.2,3.3-0.5c4.3-1.4,7.2-5.4,7.2-10s-2.9-8.6-7.2-10
				c-2.1-0.7-4.5-0.7-6.6,0c-4.3,1.4-7.2,5.4-7.2,10c0,3.6,1.8,6.9,4.8,8.8c0.5,0.3,0.6,0.9,0.3,1.4c-0.3,0.5-0.9,0.6-1.4,0.3
				c-3.6-2.3-5.7-6.3-5.7-10.5c0-5.4,3.5-10.2,8.6-11.9c2.5-0.8,5.4-0.8,7.9,0c5.1,1.7,8.6,6.5,8.6,11.9s-3.5,10.2-8.6,11.9
				C128.9,149.9,127.6,150.1,126.2,150.1z"/>
		</g>
		<circle class="st4" cx="128.7" cy="138.6" r="6.3"/>
		<path class="st4" d="M164.4,123.7l17.4-5.4c1.9-0.6,3.9,0.5,4.5,2.4c0.3,1,0.2,1.9-0.2,2.8c-0.4,0.8-1.2,1.5-2.1,1.8l-43.7,13.6
			c0-1.2-0.1-2.4-0.5-3.6c-0.4-1.2-0.9-2.3-1.6-3.3l18.1-5.6L164.4,123.7z"/>
		<polygon class="st4" points="117,137.8 90.4,127.3 81.4,119.8 93,120.5 119.8,131.1 		"/>
		<g>
			<path class="st3" d="M126.2,144.4c-3.7,0-6.8-3-6.8-6.8s3-6.8,6.8-6.8s6.8,3,6.8,6.8S129.9,144.4,126.2,144.4z M126.2,131.8
				c-3.2,0-5.8,2.6-5.8,5.8s2.6,5.8,5.8,5.8s5.8-2.6,5.8-5.8S129.4,131.8,126.2,131.8z"/>
		</g>
		<g>
			<path class="st3" d="M126.2,231.4c-51.7,0-93.8-42.1-93.8-93.9c0-21.6,7.5-42.8,21.2-59.5c0.2-0.2,0.5-0.2,0.7-0.1
				c0.2,0.2,0.2,0.5,0.1,0.7c-13.6,16.5-21,37.4-21,58.8c0,51.2,41.7,92.9,92.8,92.9s92.8-41.7,92.8-92.9
				c0-51.2-41.7-92.8-92.8-92.8c-24.6,0-47.7,9.5-65.2,26.8c-0.2,0.2-0.5,0.2-0.7,0c-0.2-0.2-0.2-0.5,0-0.7
				c17.7-17.4,41.1-27.1,65.9-27.1c51.7,0,93.8,42.1,93.8,93.8S178,231.4,126.2,231.4z"/>
		</g>
		<g>
			<path class="st3" d="M126.2,240.8c-12.3,0-24.2-2.1-35.6-6.3c-5.3-2-10.5-4.4-15.3-7.1C43,209.1,23,174.7,23,137.6
				C23,80.7,69.3,34.4,126.2,34.4c32.9,0,63.1,15.1,82.8,41.6c0.3,0.4,0.2,1.1-0.2,1.4c-0.4,0.3-1.1,0.2-1.4-0.2
				c-19.3-25.9-48.9-40.8-81.2-40.8C70.4,36.4,25,81.8,25,137.6c0,36.4,19.7,70.1,51.3,88.1c4.8,2.7,9.8,5.1,15,7
				c11.2,4.1,22.9,6.2,34.9,6.2c12,0,23.7-2.1,34.9-6.2c5.2-1.9,10.2-4.3,15-7c31.6-18,51.3-51.7,51.3-88.1c0-17.9-4.8-35.6-13.7-51
				c-0.3-0.5-0.1-1.1,0.4-1.4c0.5-0.3,1.1-0.1,1.4,0.4c9.2,15.7,14,33.7,14,52c0,37.1-20,71.5-52.3,89.8c-4.9,2.8-10,5.2-15.3,7.1
				C150.4,238.7,138.4,240.8,126.2,240.8z"/>
		</g>
		<g>
			<path class="st3" d="M126.2,240.8c-12.3,0-24.2-2.1-35.6-6.3c-5.3-2-10.5-4.4-15.3-7.1C43,209.1,23,174.7,23,137.6
				C23,80.7,69.3,34.4,126.2,34.4c32.9,0,63.1,15.1,82.8,41.6c0.3,0.4,0.2,1.1-0.2,1.4c-0.4,0.3-1.1,0.2-1.4-0.2
				c-19.3-25.9-48.9-40.8-81.2-40.8C70.4,36.4,25,81.8,25,137.6c0,36.4,19.7,70.1,51.3,88.1c4.8,2.7,9.8,5.1,15,7
				c11.2,4.1,22.9,6.2,34.9,6.2c12,0,23.7-2.1,34.9-6.2c5.2-1.9,10.2-4.3,15-7c31.6-18,51.3-51.7,51.3-88.1c0-17.9-4.8-35.6-13.7-51
				c-0.3-0.5-0.1-1.1,0.4-1.4c0.5-0.3,1.1-0.1,1.4,0.4c9.2,15.7,14,33.7,14,52c0,37.1-20,71.5-52.3,89.8c-4.9,2.8-10,5.2-15.3,7.1
				C150.4,238.7,138.4,240.8,126.2,240.8z"/>
		</g>
		<g>
			<path class="st3" d="M181.3,52.5c-0.2,0-0.4-0.1-0.5-0.2c-2.6-1.7-5.3-3.2-8-4.6c-0.2-0.1-0.4-0.3-0.5-0.6
				c-0.1-0.3,0-0.5,0.1-0.8l7.5-13.1c0.3-0.5,0.9-0.6,1.4-0.4l8,4.6c0.2,0.1,0.4,0.4,0.5,0.6c0.1,0.3,0,0.5-0.1,0.8L182.2,52
				c-0.1,0.2-0.4,0.4-0.6,0.5C181.5,52.4,181.4,52.5,181.3,52.5z M174.6,46.4c2.1,1.1,4.2,2.4,6.3,3.6l6.5-11.3l-6.3-3.6L174.6,46.4
				z"/>
		</g>
		<path class="st5" d="M207.1,46.9l8.9,5.2c8.9-15.3,3.6-34.9-11.7-43.8S169.4,4.7,160.6,20l40.7,23.5L207.1,46.9z"/>
		<path class="st5" d="M72.1,4c-5.8-0.2-11.7,1.2-17.1,4.3c-15.3,8.9-20.6,28.5-11.7,43.8L98.8,20c-3.9-6.7-9.8-11.5-16.5-14L72.1,4
			z"/>
		<g>
			<path class="st3" d="M212.6,53.1c-0.2,0-0.3,0-0.5-0.1l-8.9-5.2c-0.5-0.3-0.6-0.9-0.4-1.4s0.9-0.6,1.4-0.4l8.1,4.7
				c3.7-7,4.7-15,2.6-22.7c-2.1-8-7.3-14.7-14.5-18.9c-14.5-8.4-33.1-3.7-41.9,10.5l39.8,23c0.5,0.3,0.6,0.9,0.4,1.4
				c-0.3,0.5-0.9,0.6-1.4,0.4l-40.7-23.5c-0.2-0.1-0.4-0.4-0.5-0.6s0-0.5,0.1-0.8c9.1-15.8,29.4-21.2,45.2-12.1
				c7.6,4.4,13.1,11.5,15.4,20.1c2.3,8.5,1.1,17.4-3.3,25.1C213.3,52.9,212.9,53.1,212.6,53.1z"/>
		</g>
		<g>
			<path class="st3" d="M187,32.7c-0.1,0-0.2,0-0.3-0.1L163.2,19c-0.1-0.1-0.2-0.2-0.2-0.3c0-0.1,0-0.3,0.1-0.4
				c8.8-10.7,23.8-13.5,35.8-6.6c0.2,0.1,0.3,0.4,0.2,0.7c-0.1,0.2-0.4,0.3-0.7,0.2C187,6,172.7,8.5,164.2,18.4l23.1,13.3
				c0.2,0.1,0.3,0.4,0.2,0.7C187.4,32.6,187.2,32.7,187,32.7z"/>
		</g>
		<g>
			<path class="st3" d="M71.1,52.5c-0.1,0-0.2,0-0.2,0c-0.3-0.1-0.5-0.2-0.6-0.5l-7.5-13.1c-0.1-0.2-0.2-0.5-0.1-0.8
				c0.1-0.3,0.2-0.5,0.5-0.6l8-4.6c0.5-0.3,1.1-0.1,1.4,0.4L80,46.3c0.1,0.2,0.2,0.5,0.1,0.8c-0.1,0.3-0.3,0.5-0.5,0.6
				c-2.7,1.4-5.4,2.9-8,4.6C71.5,52.4,71.3,52.5,71.1,52.5z M64.9,38.7l6.5,11.3c2.1-1.3,4.2-2.5,6.3-3.6l-6.5-11.3L64.9,38.7z"/>
		</g>
		<g>
			<path class="st3" d="M39.8,53.1c-0.3,0-0.7-0.2-0.9-0.5c-4.4-7.6-5.6-16.6-3.3-25.1c2.3-8.5,7.8-15.7,15.4-20.1
				C56.4,4.3,62.5,2.8,68.7,3c0.6,0,1,0.5,1,1c0,0.6-0.5,1-1,1c-5.8-0.2-11.5,1.2-16.5,4.1C44.9,13.3,39.7,20,37.6,28
				c-2.1,7.7-1.1,15.7,2.6,22.7l53.8-31C90.4,13.9,84.9,9.4,78.5,7c-0.5-0.2-0.8-0.8-0.6-1.3c0.2-0.5,0.8-0.8,1.3-0.6
				c7.1,2.7,13.2,7.8,17,14.4c0.3,0.5,0.1,1.1-0.4,1.4L40.3,53C40.2,53,40,53.1,39.8,53.1z"/>
		</g>
		<g>
			<path class="st3" d="M41.8,46.3c-0.1,0-0.1,0-0.2,0c-0.1,0-0.2-0.2-0.3-0.3c-4.9-12.9,0.2-27.4,12.2-34.3
				c0.2-0.1,0.5-0.1,0.7,0.2c0.1,0.2,0.1,0.5-0.2,0.7c-11.4,6.6-16.4,20.2-12,32.5l23.1-13.3c0.2-0.1,0.5-0.1,0.7,0.2
				c0.1,0.2,0.1,0.5-0.2,0.7L42,46.3C41.9,46.3,41.8,46.3,41.8,46.3z"/>
		</g>
		<g>
			<path class="st3" d="M130.8,36.5C130.8,36.5,130.8,36.5,130.8,36.5c-1.5-0.1-3-0.1-4.6-0.1s-3.1,0-4.6,0.1
				c-0.3,0-0.5-0.1-0.7-0.3c-0.2-0.2-0.3-0.5-0.3-0.7V20.4c0-0.6,0.4-1,1-1h9.3c0.6,0,1,0.4,1,1v15.1c0,0.3-0.1,0.5-0.3,0.7
				C131.4,36.4,131.1,36.5,130.8,36.5z M122.6,21.4v13.1c2.3-0.1,5-0.1,7.3,0V21.4H122.6z"/>
		</g>
		<g>
			<path class="st3" d="M136.9,21.4h-21.3c-3.8,0-6.8-3.1-6.8-6.8v-1.3c0-3.8,3.1-6.8,6.8-6.8h21.3c3.8,0,6.8,3.1,6.8,6.8v1.3
				C143.7,18.3,140.6,21.4,136.9,21.4z M115.5,8.4c-2.7,0-4.8,2.2-4.8,4.8v1.3c0,2.7,2.2,4.8,4.8,4.8h21.3c2.7,0,4.8-2.2,4.8-4.8
				v-1.3c0-2.7-2.2-4.8-4.8-4.8H115.5z"/>
		</g>
		<g>
			<path class="st0" d="M71.7,247.4l-5.6,4c-1.4,1-3.2,0.8-4.4-0.4c-0.7-0.7-1-1.5-1-2.4c0-0.7,0.2-1.4,0.6-2l14.4-20
				c4.8,2.7,9.9,5.1,15.2,7l-12.1,8.7L71.7,247.4z"/>
			<g>
				<path class="st3" d="M64.2,253c-1.1,0-2.3-0.4-3.1-1.3c-0.8-0.8-1.3-2-1.3-3.1c0-0.9,0.3-1.8,0.8-2.6l14.4-20
					c0.3-0.4,0.9-0.5,1.3-0.3c4.7,2.7,9.8,5.1,15,7c0.3,0.1,0.6,0.4,0.6,0.8c0,0.4-0.1,0.7-0.4,0.9l-12.1,8.7
					c-0.5,0.3-1.1,0.2-1.4-0.2c-0.3-0.4-0.2-1.1,0.2-1.4l10.5-7.6c-4.4-1.7-8.7-3.7-12.8-6l-13.9,19.3c-0.3,0.4-0.5,0.9-0.5,1.4
					c0,0.6,0.3,1.3,0.7,1.7c0.9,0.9,2.2,1,3.1,0.3l5.6-4c0.4-0.3,1.1-0.2,1.4,0.2c0.3,0.4,0.2,1.1-0.2,1.4l-5.6,4
					C66,252.7,65.1,253,64.2,253z"/>
			</g>
		</g>
		<g>
			<path class="st0" d="M191.7,248.6c0,0.9-0.3,1.8-1,2.4c-1.2,1.2-3.1,1.3-4.4,0.4l-24.7-17.8c5.3-1.9,10.3-4.3,15.2-7l14.4,20
				C191.5,247.2,191.7,247.9,191.7,248.6z"/>
			<g>
				<path class="st3" d="M188.2,253c-0.9,0-1.8-0.3-2.6-0.8l-24.7-17.8c-0.3-0.2-0.5-0.6-0.4-0.9c0-0.4,0.3-0.7,0.6-0.8
					c5.2-1.9,10.2-4.3,15-7c0.4-0.3,1-0.1,1.3,0.3l14.4,20c0.5,0.8,0.8,1.6,0.8,2.6c0,1.2-0.5,2.3-1.3,3.1
					C190.5,252.6,189.4,253,188.2,253z M163.6,233.9l23.2,16.7c1,0.7,2.3,0.6,3.1-0.3c0.5-0.5,0.7-1.1,0.7-1.7c0-0.5-0.2-1-0.5-1.4
					l-13.9-19.3C172.3,230.1,168,232.1,163.6,233.9z"/>
			</g>
		</g>
		<g>
			<path class="st3" d="M126.2,69.7c-0.6,0-1-0.4-1-1V53.1c0-0.6,0.4-1,1-1s1,0.4,1,1v15.6C127.2,69.2,126.8,69.7,126.2,69.7z"/>
		</g>
		<g>
			<path class="st3" d="M91.8,78.9c-0.3,0-0.7-0.2-0.9-0.5l-7.8-13.5c-0.3-0.5-0.1-1.1,0.4-1.4c0.5-0.3,1.1-0.1,1.4,0.4l7.8,13.5
				c0.3,0.5,0.1,1.1-0.4,1.4C92.1,78.9,91.9,78.9,91.8,78.9z"/>
		</g>
		<g>
			<path class="st3" d="M66.5,104.1c-0.2,0-0.3,0-0.5-0.1l-13.5-7.8c-0.5-0.3-0.6-0.9-0.4-1.4c0.3-0.5,0.9-0.6,1.4-0.4l13.5,7.8
				c0.5,0.3,0.6,0.9,0.4,1.4C67.2,104,66.9,104.1,66.5,104.1z"/>
		</g>
		<g>
			<path class="st3" d="M57.3,138.6H41.7c-0.6,0-1-0.4-1-1s0.4-1,1-1h15.6c0.6,0,1,0.4,1,1S57.9,138.6,57.3,138.6z"/>
		</g>
		<g>
			<path class="st3" d="M53,180.9c-0.3,0-0.7-0.2-0.9-0.5c-0.3-0.5-0.1-1.1,0.4-1.4l13.5-7.8c0.5-0.3,1.1-0.1,1.4,0.4
				c0.3,0.5,0.1,1.1-0.4,1.4l-13.5,7.8C53.3,180.8,53.2,180.9,53,180.9z"/>
		</g>
		<g>
			<path class="st3" d="M83.9,211.8c-0.2,0-0.3,0-0.5-0.1c-0.5-0.3-0.6-0.9-0.4-1.4l7.8-13.5c0.3-0.5,0.9-0.6,1.4-0.4
				c0.5,0.3,0.6,0.9,0.4,1.4l-7.8,13.5C84.6,211.6,84.3,211.8,83.9,211.8z"/>
		</g>
		<g>
			<path class="st3" d="M126.2,223.1c-0.6,0-1-0.4-1-1v-15.6c0-0.6,0.4-1,1-1s1,0.4,1,1v15.6C127.2,222.7,126.8,223.1,126.2,223.1z"
				/>
		</g>
		<g>
			<path class="st3" d="M168.5,211.8c-0.3,0-0.7-0.2-0.9-0.5l-7.8-13.5c-0.3-0.5-0.1-1.1,0.4-1.4c0.5-0.3,1.1-0.1,1.4,0.4l7.8,13.5
				c0.3,0.5,0.1,1.1-0.4,1.4C168.8,211.8,168.6,211.8,168.5,211.8z"/>
		</g>
		<g>
			<path class="st3" d="M199.4,180.9c-0.2,0-0.3,0-0.5-0.1l-13.5-7.8c-0.5-0.3-0.6-0.9-0.4-1.4c0.3-0.5,0.9-0.6,1.4-0.4l13.5,7.8
				c0.5,0.3,0.6,0.9,0.4,1.4C200.1,180.7,199.8,180.9,199.4,180.9z"/>
		</g>
		<g>
			<path class="st3" d="M210.7,138.6h-15.6c-0.6,0-1-0.4-1-1s0.4-1,1-1h15.6c0.6,0,1,0.4,1,1S211.3,138.6,210.7,138.6z"/>
		</g>
		<g>
			<path class="st3" d="M185.9,104.1c-0.3,0-0.7-0.2-0.9-0.5c-0.3-0.5-0.1-1.1,0.4-1.4l13.5-7.8c0.5-0.3,1.1-0.1,1.4,0.4
				c0.3,0.5,0.1,1.1-0.4,1.4l-13.5,7.8C186.2,104.1,186,104.1,185.9,104.1z"/>
		</g>
		<g>
			<path class="st3" d="M160.7,78.9c-0.2,0-0.3,0-0.5-0.1c-0.5-0.3-0.6-0.9-0.4-1.4l7.8-13.5c0.3-0.5,0.9-0.6,1.4-0.4
				c0.5,0.3,0.6,0.9,0.4,1.4l-7.8,13.5C161.3,78.7,161,78.9,160.7,78.9z"/>
		</g>
		<g>
			<path class="st3" d="M137.7,138.8c-0.2,0-0.4-0.1-0.6-0.2c-0.3-0.2-0.4-0.5-0.4-0.8c0-1.1-0.1-2.2-0.5-3.3
				c-0.3-1.1-0.8-2.1-1.5-3c-0.2-0.3-0.2-0.6-0.1-0.9c0.1-0.3,0.3-0.5,0.7-0.6l18.1-5.6c0.5-0.2,1.1,0.1,1.3,0.7
				c0.2,0.5-0.1,1.1-0.7,1.3l-16.8,5.2c0.4,0.8,0.8,1.6,1,2.4c0.3,0.9,0.4,1.7,0.5,2.6l42.4-13.2c0.7-0.2,1.2-0.7,1.6-1.3
				c0.3-0.6,0.4-1.3,0.2-2c-0.2-0.7-0.7-1.2-1.3-1.5c-0.6-0.3-1.3-0.4-2-0.2l-17.4,5.4c-0.5,0.2-1.1-0.1-1.3-0.7s0.1-1.1,0.7-1.3
				l17.4-5.4c1.2-0.4,2.4-0.3,3.5,0.3c1.1,0.6,1.9,1.5,2.3,2.7c0.4,1.2,0.3,2.4-0.3,3.5c-0.6,1.1-1.6,1.9-2.7,2.3L138,138.8
				C137.9,138.8,137.8,138.8,137.7,138.8z"/>
		</g>
		<g>
			<path class="st3" d="M114.5,137.8c-0.1,0-0.2,0-0.4-0.1l-26.6-10.6c-0.1,0-0.2-0.1-0.3-0.2l-9-7.5c-0.3-0.3-0.5-0.7-0.3-1.1
				c0.2-0.4,0.6-0.7,1-0.6l11.7,0.7c0.1,0,0.2,0,0.3,0.1l26.7,10.6c0.5,0.2,0.8,0.8,0.6,1.3c-0.2,0.5-0.8,0.8-1.3,0.6l-26.6-10.6
				l-8.4-0.5l6.5,5.4l26.5,10.5c0.5,0.2,0.8,0.8,0.6,1.3C115.3,137.6,114.9,137.8,114.5,137.8z"/>
		</g>
	</g>
	<g>
		<path class="st3" d="M41.7,219.8c-1.6,0-3-1.3-3-3s1.3-3,3-3s3,1.3,3,3S43.3,219.8,41.7,219.8z M41.7,214.8c-1.1,0-2,0.9-2,2
			s0.9,2,2,2s2-0.9,2-2S42.8,214.8,41.7,214.8z"/>
	</g>
	<g>
		<path class="st1" d="M220.4,217.3c-1.6,0-3-1.3-3-3s1.3-3,3-3s3,1.3,3,3S222,217.3,220.4,217.3z M220.4,212.3c-1.1,0-2,0.9-2,2
			s0.9,2,2,2s2-0.9,2-2S221.5,212.3,220.4,212.3z"/>
	</g>
	<g>
		<path class="st3" d="M222.8,68.2c-0.1,0-0.3-0.1-0.4-0.1c-0.1-0.1-0.2-0.3-0.1-0.5l0.8-2.6l-0.8-2.6c-0.1-0.2,0-0.4,0.1-0.5
			c0.1-0.1,0.3-0.2,0.5-0.1l2.6,0.8l2.6-0.8c0.2-0.1,0.4,0,0.5,0.1s0.2,0.3,0.1,0.5L228,65l0.8,2.6c0.1,0.2,0,0.4-0.1,0.5
			c-0.1,0.1-0.3,0.2-0.5,0.1l-1-0.3c-0.3-0.1-0.4-0.4-0.3-0.6c0.1-0.3,0.4-0.4,0.6-0.3l0.1,0l-0.5-1.8c0-0.1,0-0.2,0-0.3l0.5-1.8
			l-1.8,0.5c-0.1,0-0.2,0-0.3,0l-1.8-0.5l0.5,1.8c0,0.1,0,0.2,0,0.3l-0.5,1.8l1.8-0.5c0.3-0.1,0.5,0.1,0.6,0.3
			c0.1,0.3-0.1,0.5-0.3,0.6l-2.7,0.8C222.9,68.2,222.8,68.2,222.8,68.2z"/>
	</g>
	<g>
		<path class="st5" d="M200.2,234.2c-0.1,0-0.3-0.1-0.4-0.1c-0.1-0.1-0.2-0.3-0.1-0.5l0.8-2.6l-0.8-2.6c-0.1-0.2,0-0.4,0.1-0.5
			c0.1-0.1,0.3-0.2,0.5-0.1l2.6,0.8l2.6-0.8c0.2-0.1,0.4,0,0.5,0.1c0.1,0.1,0.2,0.3,0.1,0.5l-0.8,2.6l0.8,2.6c0.1,0.2,0,0.4-0.1,0.5
			s-0.3,0.2-0.5,0.1l-1-0.3c-0.3-0.1-0.4-0.4-0.3-0.6c0.1-0.3,0.3-0.4,0.6-0.3l0.1,0l-0.5-1.8c0-0.1,0-0.2,0-0.3l0.5-1.8l-1.8,0.5
			c-0.1,0-0.2,0-0.3,0l-1.8-0.5l0.5,1.8c0,0.1,0,0.2,0,0.3l-0.5,1.8l1.8-0.5c0.3-0.1,0.5,0.1,0.6,0.3c0.1,0.3-0.1,0.5-0.3,0.6
			l-2.7,0.8C200.3,234.2,200.3,234.2,200.2,234.2z"/>
	</g>
	<g>
		<g>
			<path class="st1" d="M21,181c-0.3,0-0.5-0.2-0.5-0.5v-2.4c0-0.3,0.2-0.5,0.5-0.5s0.5,0.2,0.5,0.5v2.4C21.5,180.8,21.2,181,21,181
				z"/>
		</g>
		<g>
			<path class="st1" d="M21,186.9c-0.3,0-0.5-0.2-0.5-0.5v-2.4c0-0.3,0.2-0.5,0.5-0.5s0.5,0.2,0.5,0.5v2.4
				C21.5,186.6,21.2,186.9,21,186.9z"/>
		</g>
		<g>
			<path class="st1" d="M25.1,182.7h-2.4c-0.3,0-0.5-0.2-0.5-0.5s0.2-0.5,0.5-0.5h2.4c0.3,0,0.5,0.2,0.5,0.5S25.4,182.7,25.1,182.7z
				"/>
		</g>
		<g>
			<path class="st1" d="M19.2,182.7h-2.4c-0.3,0-0.5-0.2-0.5-0.5s0.2-0.5,0.5-0.5h2.4c0.3,0,0.5,0.2,0.5,0.5S19.5,182.7,19.2,182.7z
				"/>
		</g>
	</g>
	<g>
		<g>
			<path class="st5" d="M29,59.7c-0.3,0-0.5-0.2-0.5-0.5v-2.4c0-0.3,0.2-0.5,0.5-0.5s0.5,0.2,0.5,0.5v2.4
				C29.5,59.4,29.2,59.7,29,59.7z"/>
		</g>
		<g>
			<path class="st5" d="M29,65.5c-0.3,0-0.5-0.2-0.5-0.5v-2.4c0-0.3,0.2-0.5,0.5-0.5s0.5,0.2,0.5,0.5V65
				C29.5,65.3,29.2,65.5,29,65.5z"/>
		</g>
		<g>
			<path class="st5" d="M33.1,61.4h-2.4c-0.3,0-0.5-0.2-0.5-0.5s0.2-0.5,0.5-0.5h2.4c0.3,0,0.5,0.2,0.5,0.5S33.4,61.4,33.1,61.4z"/>
		</g>
		<g>
			<path class="st5" d="M27.3,61.4h-2.4c-0.3,0-0.5-0.2-0.5-0.5s0.2-0.5,0.5-0.5h2.4c0.3,0,0.5,0.2,0.5,0.5S27.5,61.4,27.3,61.4z"/>
		</g>
	</g>
	<g>
		<g>
			<path class="st4" d="M228.4,189.9c-0.3,0-0.5-0.2-0.5-0.5v-2.4c0-0.3,0.2-0.5,0.5-0.5s0.5,0.2,0.5,0.5v2.4
				C228.9,189.6,228.7,189.9,228.4,189.9z"/>
		</g>
		<g>
			<path class="st4" d="M228.4,195.7c-0.3,0-0.5-0.2-0.5-0.5v-2.4c0-0.3,0.2-0.5,0.5-0.5s0.5,0.2,0.5,0.5v2.4
				C228.9,195.5,228.7,195.7,228.4,195.7z"/>
		</g>
		<g>
			<path class="st4" d="M232.6,191.6h-2.4c-0.3,0-0.5-0.2-0.5-0.5s0.2-0.5,0.5-0.5h2.4c0.3,0,0.5,0.2,0.5,0.5
				S232.9,191.6,232.6,191.6z"/>
		</g>
		<g>
			<path class="st4" d="M226.7,191.6h-2.4c-0.3,0-0.5-0.2-0.5-0.5s0.2-0.5,0.5-0.5h2.4c0.3,0,0.5,0.2,0.5,0.5S227,191.6,226.7,191.6
				z"/>
		</g>
	</g>
</g>
</svg>
