<?xml version="1.0" encoding="utf-8"?>
<!-- Generator: Adobe Illustrator 22.1.0, SVG Export Plug-In . SVG Version: 6.00 Build 0)  -->
<svg version="1.1" id="Layer_1" xmlns="http://www.w3.org/2000/svg" xmlns:xlink="http://www.w3.org/1999/xlink" x="0px" y="0px"
	 viewBox="0 0 256 256" style="enable-background:new 0 0 256 256;" xml:space="preserve">
<style type="text/css">
	.st0{fill:#DBFDFF;}
	.st1{fill:#FFFFFF;}
	.st2{fill:#48386A;}
	.st3{fill:#FF8584;}
	.st4{fill:#FEBE7F;}
	.st5{fill:#9FEAFF;}
</style>
<g>
	<path class="st0" d="M184,127.7c27.9,0,50.5-22.6,50.5-50.5S211.9,26.6,184,26.6c-9.5,0-18.3,2.6-25.9,7.2
		c-9.2-9.5-22-15.4-36.3-15.4c-7.5,0-14.7,1.7-21.1,4.6C93,18.3,84,15.6,74.4,15.6c-27.9,0-50.5,22.6-50.5,50.5
		c0,27.9,22.6,50.5,50.5,50.5c3,0,6-0.3,8.9-0.8c0.7,2.7,1.7,5.4,2.9,7.9c-3.8-0.9-7.7-1.4-11.8-1.4c-27.9,0-50.5,22.6-50.5,50.5
		c0,27.9,22.6,50.5,50.5,50.5c4.5,0,8.8-0.6,12.9-1.7c8.6,15.5,25.2,25.9,44.1,25.9c14.6,0,27.7-6.2,36.9-16.1
		c4.8,1.5,9.9,2.3,15.2,2.3c27.9,0,50.5-22.6,50.5-50.5c0-27.9-22.6-50.5-50.5-50.5c-4.2,0-8.2,0.5-12.1,1.5
		c1.8-2.3,3.5-4.7,4.9-7.3C178.9,127.5,181.4,127.7,184,127.7z"/>
	<g>
		<path class="st1" d="M69.4,42.3c8.5-1.8,17.5-2.7,26.9-2.7c27.3,0,51.8,8,68.7,20.8c2.3,1.7,4.4,3.5,6.4,5.4
			c10.8,10.2,17.2,22.8,17.2,36.3c0,2.1-0.2,4.2-0.5,6.3c-0.8,5.2-2.5,10.2-5,15c-2.9,5.4-6.8,10.4-11.7,15
			c-16.2,15.3-42.3,25.5-72,26.1c-1,0-2.1,0-3.1,0c-1.9,0-3.9,0-5.8-0.1c-4.3-0.2-8.6-0.6-12.7-1.1L59,176.7l-23.7,16.9l1.9-29.1
			l0.9-14c-20.8-11.5-34.1-28.9-34.1-48.5c0-25.6,22.7-47.6,55.2-57.2L69.4,42.3z"/>
		<g>
			<path class="st2" d="M35.3,194.6c-0.2,0-0.3,0-0.5-0.1c-0.3-0.2-0.5-0.6-0.5-0.9l2.7-42.4c-21.7-12.1-34.1-30-34.1-49.1
				c0-25.3,22-48.1,55.9-58.2c0.5-0.2,1.1,0.1,1.2,0.7c0.2,0.5-0.1,1.1-0.7,1.2C26.3,55.6,4.9,77.7,4.9,102.1
				c0,18.5,12.3,35.9,33.6,47.6c0.3,0.2,0.5,0.6,0.5,0.9l-2.6,41l40.8-29.1c0.2-0.1,0.5-0.2,0.7-0.2c4.2,0.6,8.4,0.9,12.6,1.1
				c1.8,0.1,3.7,0.1,5.7,0.1c1,0,2.1,0,3.1,0c28.7-0.6,54.7-10.1,71.4-25.9c4.8-4.6,8.7-9.5,11.5-14.7c2.5-4.7,4.2-9.7,4.9-14.7
				c0.3-2,0.5-4.1,0.5-6.2c0-12.8-5.8-25.1-16.9-35.6c-1.9-1.8-4.1-3.6-6.4-5.4c-17.3-13.1-42.2-20.6-68.1-20.6
				c-9.1,0-18.1,0.9-26.7,2.7c-0.5,0.1-1.1-0.2-1.2-0.8c-0.1-0.5,0.2-1.1,0.8-1.2c8.8-1.8,17.9-2.7,27.1-2.7
				c26.4,0,51.7,7.6,69.3,21c2.3,1.8,4.5,3.6,6.5,5.5c11.4,10.8,17.5,23.6,17.5,37c0,2.1-0.2,4.3-0.5,6.5
				c-0.8,5.2-2.5,10.4-5.1,15.3c-2.9,5.4-6.9,10.5-11.9,15.3c-17,16.1-43.5,25.8-72.7,26.4c-1,0-2.1,0-3.1,0c-2,0-3.9,0-5.8-0.1
				c-4.1-0.2-8.3-0.5-12.4-1.1l-42.1,30.1C35.7,194.6,35.5,194.6,35.3,194.6z"/>
		</g>
		<path class="st3" d="M132,155.4c-10.1,2.7-21.2,4.2-32.8,4.2c-6,0-12-0.4-17.8-1.2l-2-0.3L44,183.4l2.3-35.7l-2.8-1.5
			c-20-11-31.5-27.1-31.5-44.1c0-31.7,39.2-57.5,87.3-57.5c48.2,0,87.3,25.8,87.3,57.5c0,21.8-18.6,40.9-45.9,50.6L132,155.4z"/>
		<g>
			<path class="st2" d="M41,183.9c-0.1,0-0.2,0-0.2-0.1c-0.2-0.1-0.3-0.3-0.3-0.5l2.3-35.4l-2.5-1.4C20,135.5,8.4,119.3,8.4,102.1
				c0-32,39.4-58,87.8-58c48.4,0,87.8,26,87.8,58c0,21.3-17.7,40.9-46.2,51.1c-0.3,0.1-0.5,0-0.6-0.3c-0.1-0.3,0-0.5,0.3-0.6
				c28.1-10,45.5-29.2,45.5-50.1c0-31.4-39-57-86.8-57c-47.9,0-86.8,25.6-86.8,57c0,16.8,11.4,32.8,31.3,43.7l2.8,1.5
				c0.2,0.1,0.3,0.3,0.3,0.5l-2.2,34.7l34.7-24.7c0.1-0.1,0.2-0.1,0.4-0.1l2,0.3c5.8,0.8,11.8,1.2,17.7,1.2
				c11.3,0,22.3-1.4,32.6-4.2c0.3-0.1,0.5,0.1,0.6,0.4c0.1,0.3-0.1,0.5-0.4,0.6c-10.5,2.8-21.5,4.2-32.9,4.2c-6,0-12-0.4-17.9-1.2
				l-1.8-0.2l-35.4,25.2C41.2,183.9,41.1,183.9,41,183.9z"/>
		</g>
		<g>
			<path class="st2" d="M137.7,88.7h-11.2c-0.6,0-1-0.4-1-1s0.4-1,1-1h11.2c0.6,0,1,0.4,1,1S138.3,88.7,137.7,88.7z"/>
		</g>
		<g>
			<path class="st2" d="M119,88.7H54.8c-0.6,0-1-0.4-1-1s0.4-1,1-1H119c0.6,0,1,0.4,1,1S119.5,88.7,119,88.7z"/>
		</g>
		<g>
			<path class="st2" d="M142,103.7H50.5c-0.6,0-1-0.4-1-1s0.4-1,1-1H142c0.6,0,1,0.4,1,1S142.6,103.7,142,103.7z"/>
		</g>
		<g>
			<path class="st2" d="M133.4,118.7H87.7c-0.6,0-1-0.4-1-1s0.4-1,1-1h45.7c0.6,0,1,0.4,1,1S134,118.7,133.4,118.7z"/>
		</g>
		<g>
			<path class="st2" d="M82.2,118.7H59.1c-0.6,0-1-0.4-1-1s0.4-1,1-1h23.2c0.6,0,1,0.4,1,1S82.8,118.7,82.2,118.7z"/>
		</g>
		<path class="st4" d="M239.5,91.8c8.9,9.6,14,20.9,14,33.1c0,19.6-13.3,37.1-34.1,48.5l0.9,14l1.9,29.1l-23.7-16.9l-18.8-13.4
			c-6,0.8-12.1,1.3-18.5,1.3c-27.3,0-51.8-8-68.7-20.8c1.9,0.1,3.8,0.1,5.8,0.1c1,0,2.1,0,3.1,0c49.6-1.1,89.2-28.7,89.2-62.5
			c0-13.5-6.4-26.1-17.2-36.3c-2-1.9-4.1-3.7-6.4-5.4c27.2,1.1,51.2,10.2,67,23.9L239.5,91.8z"/>
		<g>
			<path class="st2" d="M220.2,215.3c-0.2,0-0.4-0.1-0.6-0.2L177.4,185c-6,0.8-12.1,1.2-18.2,1.2c-26.4,0-51.6-7.6-69.3-21
				c-0.4-0.3-0.5-0.7-0.3-1.1c0.1-0.4,0.6-0.7,1-0.7c1.8,0.1,3.7,0.1,5.7,0.1c1,0,2.1,0,3.1,0c23.8-0.5,46.1-7.2,62.7-18.8
				c16.5-11.5,25.6-26.7,25.6-42.7c0-12.8-5.8-25.1-16.9-35.6c-1.9-1.8-4.1-3.6-6.4-5.4c-0.3-0.3-0.5-0.7-0.3-1.1
				c0.1-0.4,0.5-0.7,1-0.7c26.5,1.1,51.1,9.9,67.6,24.1c0.4,0.4,0.5,1,0.1,1.4c-0.4,0.4-1,0.5-1.4,0.1
				c-15.5-13.4-38.4-21.8-63.2-23.5c1.4,1.2,2.8,2.3,4,3.5c11.4,10.8,17.5,23.6,17.5,37c0,16.7-9.4,32.4-26.5,44.3
				c-16.9,11.8-39.6,18.6-63.8,19.1c-1.9,0.1-3.8,0.1-5.6,0c17.2,11.9,40.8,18.7,65.5,18.7c6.2,0,12.4-0.4,18.3-1.2
				c0.3,0,0.5,0,0.7,0.2l40.8,29.1l-2.6-41c0-0.4,0.2-0.8,0.5-0.9c21.4-11.7,33.6-29.1,33.6-47.6c0-11.5-4.7-22.7-13.7-32.4
				c-0.4-0.4-0.3-1,0.1-1.4c0.4-0.4,1-0.4,1.4,0.1c9.3,10.1,14.3,21.8,14.3,33.8c0,19.1-12.4,37-34.1,49.1l2.7,42.4
				c0,0.4-0.2,0.8-0.5,0.9C220.5,215.2,220.3,215.3,220.2,215.3z"/>
		</g>
		<g>
			<path class="st1" d="M194.5,189.8L179,178.7l-2,0.3c-5.8,0.8-11.8,1.2-17.8,1.2c-23.2,0-44.2-6-59.9-15.7
				c49.6-1.1,89.2-28.7,89.2-62.5c0-13.5-6.4-26.1-17.2-36.3c42.4,3.9,75.1,28,75.1,56.9c0,17-11.5,33.1-31.5,44.1l-2.8,1.5
				l2.3,35.7l-13.1-9.3L194.5,189.8z"/>
			<path class="st2" d="M214.5,204.6c-0.1,0-0.2,0-0.3-0.1l-13.1-9.3c-0.2-0.2-0.3-0.5-0.1-0.7c0.2-0.2,0.5-0.3,0.7-0.1l12.2,8.7
				l-2.2-34.7c0-0.2,0.1-0.4,0.3-0.5l2.8-1.5c19.9-10.9,31.3-26.9,31.3-43.7c0-27.9-31.4-52-73.2-56.3
				c10.7,10.5,16.3,22.8,16.3,35.7c0,16.5-9.3,32.1-26.2,43.9c-16.4,11.5-38.3,18.2-61.8,19c16,9.5,36.6,14.7,58.2,14.7
				c5.9,0,11.9-0.4,17.7-1.2l2-0.3c0.1,0,0.3,0,0.4,0.1l15.5,11.1c0.2,0.2,0.3,0.5,0.1,0.7c-0.2,0.2-0.5,0.3-0.7,0.1l-15.3-11
				l-1.8,0.2c-5.9,0.8-11.9,1.2-17.9,1.2c-22.4,0-43.8-5.6-60.1-15.8c-0.2-0.1-0.3-0.3-0.2-0.6s0.3-0.4,0.5-0.4
				c23.9-0.5,46.3-7.2,62.9-18.9c16.7-11.6,25.8-26.9,25.8-43.1c0-13-5.9-25.4-17-35.9c-0.2-0.1-0.2-0.4-0.1-0.6
				c0.1-0.2,0.3-0.3,0.5-0.3c43.1,4,75.6,28.7,75.6,57.4c0,17.2-11.6,33.5-31.8,44.6l-2.5,1.4l2.3,35.4c0,0.2-0.1,0.4-0.3,0.5
				C214.7,204.6,214.6,204.6,214.5,204.6z"/>
		</g>
		<g>
			<path class="st2" d="M200.7,109.4h-12.4c-0.6,0-1-0.4-1-1s0.4-1,1-1h12.4c0.6,0,1,0.4,1,1S201.2,109.4,200.7,109.4z"/>
		</g>
		<g>
			<path class="st2" d="M205,124.4h-21.8c-0.6,0-1-0.4-1-1s0.4-1,1-1H205c0.6,0,1,0.4,1,1S205.5,124.4,205,124.4z"/>
		</g>
		<g>
			<path class="st2" d="M196.4,139.4h-24.8c-0.6,0-1-0.4-1-1s0.4-1,1-1h24.8c0.6,0,1,0.4,1,1S197,139.4,196.4,139.4z"/>
		</g>
	</g>
	<g>
		<path class="st2" d="M204.5,59.6c-1.6,0-3-1.3-3-3s1.3-3,3-3s3,1.3,3,3S206.2,59.6,204.5,59.6z M204.5,54.6c-1.1,0-2,0.9-2,2
			s0.9,2,2,2s2-0.9,2-2S205.6,54.6,204.5,54.6z"/>
	</g>
	<g>
		<path class="st3" d="M68.2,29.6c-1.6,0-3-1.3-3-3s1.3-3,3-3s3,1.3,3,3S69.8,29.6,68.2,29.6z M68.2,24.6c-1.1,0-2,0.9-2,2
			s0.9,2,2,2s2-0.9,2-2S69.3,24.6,68.2,24.6z"/>
	</g>
	<g>
		<path class="st2" d="M140.4,231.8c0,0-0.1,0-0.1,0l-1-0.3c-0.3-0.1-0.4-0.4-0.3-0.6c0.1-0.3,0.4-0.4,0.6-0.3l0.1,0l-0.5-1.8
			c0-0.1,0-0.2,0-0.3l0.5-1.8l-1.8,0.5c-0.1,0-0.2,0-0.3,0l-1.8-0.5l0.5,1.8c0,0.1,0,0.2,0,0.3l-0.5,1.8l1.8-0.5
			c0.3-0.1,0.5,0.1,0.6,0.3c0.1,0.3-0.1,0.5-0.3,0.6l-2.7,0.8c-0.2,0-0.4,0-0.5-0.1c-0.1-0.1-0.2-0.3-0.1-0.5l0.8-2.6l-0.8-2.6
			c-0.1-0.2,0-0.4,0.1-0.5c0.1-0.1,0.3-0.2,0.5-0.1l2.6,0.8l2.6-0.8c0.2-0.1,0.4,0,0.5,0.1c0.1,0.1,0.2,0.3,0.1,0.5l-0.8,2.6
			l0.8,2.6c0.1,0.2,0,0.4-0.1,0.5C140.7,231.8,140.6,231.8,140.4,231.8z"/>
	</g>
	<g>
		<path class="st4" d="M82,183.3c0,0-0.1,0-0.1,0l-1-0.3c-0.3-0.1-0.4-0.4-0.3-0.6c0.1-0.3,0.4-0.4,0.6-0.3l0.1,0l-0.5-1.8
			c0-0.1,0-0.2,0-0.3l0.5-1.8l-1.8,0.5c-0.1,0-0.2,0-0.3,0l-1.8-0.5l0.5,1.8c0,0.1,0,0.2,0,0.3l-0.5,1.8l1.8-0.5
			c0.3-0.1,0.5,0.1,0.6,0.3c0.1,0.3-0.1,0.5-0.3,0.6l-2.7,0.8c-0.2,0-0.4,0-0.5-0.1c-0.1-0.1-0.2-0.3-0.1-0.5l0.8-2.6l-0.8-2.6
			c-0.1-0.2,0-0.4,0.1-0.5c0.1-0.1,0.3-0.2,0.5-0.1l2.6,0.8l2.6-0.8c0.2,0,0.4,0,0.5,0.1s0.2,0.3,0.1,0.5l-0.8,2.6l0.8,2.6
			c0.1,0.2,0,0.4-0.1,0.5C82.3,183.3,82.1,183.3,82,183.3z"/>
	</g>
	<g>
		<g>
			<path class="st3" d="M166.5,198.4c-0.3,0-0.5-0.2-0.5-0.5v-2.4c0-0.3,0.2-0.5,0.5-0.5s0.5,0.2,0.5,0.5v2.4
				C167,198.2,166.7,198.4,166.5,198.4z"/>
		</g>
		<g>
			<path class="st3" d="M166.5,204.3c-0.3,0-0.5-0.2-0.5-0.5v-2.4c0-0.3,0.2-0.5,0.5-0.5s0.5,0.2,0.5,0.5v2.4
				C167,204.1,166.7,204.3,166.5,204.3z"/>
		</g>
		<g>
			<path class="st3" d="M170.6,200.2h-2.4c-0.3,0-0.5-0.2-0.5-0.5s0.2-0.5,0.5-0.5h2.4c0.3,0,0.5,0.2,0.5,0.5
				S170.9,200.2,170.6,200.2z"/>
		</g>
		<g>
			<path class="st3" d="M164.8,200.2h-2.4c-0.3,0-0.5-0.2-0.5-0.5s0.2-0.5,0.5-0.5h2.4c0.3,0,0.5,0.2,0.5,0.5S165,200.2,164.8,200.2
				z"/>
		</g>
	</g>
	<g>
		<g>
			<path class="st4" d="M129.2,29.5c-0.3,0-0.5-0.2-0.5-0.5v-2.4c0-0.3,0.2-0.5,0.5-0.5s0.5,0.2,0.5,0.5V29
				C129.7,29.3,129.5,29.5,129.2,29.5z"/>
		</g>
		<g>
			<path class="st4" d="M129.2,35.4c-0.3,0-0.5-0.2-0.5-0.5v-2.4c0-0.3,0.2-0.5,0.5-0.5s0.5,0.2,0.5,0.5v2.4
				C129.7,35.2,129.5,35.4,129.2,35.4z"/>
		</g>
		<g>
			<path class="st4" d="M133.3,31.2h-2.4c-0.3,0-0.5-0.2-0.5-0.5s0.2-0.5,0.5-0.5h2.4c0.3,0,0.5,0.2,0.5,0.5S133.6,31.2,133.3,31.2z
				"/>
		</g>
		<g>
			<path class="st4" d="M127.5,31.2h-2.4c-0.3,0-0.5-0.2-0.5-0.5s0.2-0.5,0.5-0.5h2.4c0.3,0,0.5,0.2,0.5,0.5S127.8,31.2,127.5,31.2z
				"/>
		</g>
	</g>
	<g>
		<g>
			<path class="st5" d="M121.8,197.2c-0.3,0-0.5-0.2-0.5-0.5v-2.4c0-0.3,0.2-0.5,0.5-0.5s0.5,0.2,0.5,0.5v2.4
				C122.3,197,122.1,197.2,121.8,197.2z"/>
		</g>
		<g>
			<path class="st5" d="M121.8,203.1c-0.3,0-0.5-0.2-0.5-0.5v-2.4c0-0.3,0.2-0.5,0.5-0.5s0.5,0.2,0.5,0.5v2.4
				C122.3,202.9,122.1,203.1,121.8,203.1z"/>
		</g>
		<g>
			<path class="st5" d="M125.9,198.9h-2.4c-0.3,0-0.5-0.2-0.5-0.5s0.2-0.5,0.5-0.5h2.4c0.3,0,0.5,0.2,0.5,0.5
				S126.2,198.9,125.9,198.9z"/>
		</g>
		<g>
			<path class="st5" d="M120.1,198.9h-2.4c-0.3,0-0.5-0.2-0.5-0.5s0.2-0.5,0.5-0.5h2.4c0.3,0,0.5,0.2,0.5,0.5
				S120.3,198.9,120.1,198.9z"/>
		</g>
	</g>
</g>
</svg>
