<?xml version="1.0" encoding="utf-8"?>
<!-- Generator: Adobe Illustrator 22.1.0, SVG Export Plug-In . SVG Version: 6.00 Build 0)  -->
<svg version="1.1" id="Layer_1" xmlns="http://www.w3.org/2000/svg" xmlns:xlink="http://www.w3.org/1999/xlink" x="0px" y="0px"
	 viewBox="0 0 256 256" style="enable-background:new 0 0 256 256;" xml:space="preserve">
<style type="text/css">
	.st0{fill:#DBFDFF;}
	.st1{fill:#48386A;}
	.st2{fill:#FFFFED;}
	.st3{fill:#FF8584;}
	.st4{fill:#FEBE7F;}
	.st5{fill:#9FEAFF;}
</style>
<g>
	<path class="st0" d="M178.4,21.5c-5.7,0-11.2,0.7-16.4,2.1c-11.2-8.7-25.3-13.9-40.6-13.9c-17.2,0-32.9,6.6-44.8,17.3
		c-0.6,0-1.3,0-1.9,0c-35,0-63.4,28.4-63.4,63.4c0,35,28.4,63.4,63.4,63.4c13.8,0,26.5-4.4,36.9-11.9c3.2,0.5,6.5,0.7,9.8,0.7
		c5.7,0,11.2-0.7,16.4-2.1c11.2,8.7,25.3,13.9,40.6,13.9c36.7,0,66.5-29.8,66.5-66.5S215.1,21.5,178.4,21.5z"/>
	<g>
		<path class="st0" d="M249,203.4v25.1c0,9.8-8,17.8-17.8,17.8H24.8c-9.8,0-17.8-8-17.8-17.8V95.7c0-9.8,8-17.8,17.8-17.8h206.4
			c9.8,0,17.8,8,17.8,17.8v93.4V203.4z"/>
		<g>
			<path class="st1" d="M231.2,247.4H24.8c-10.4,0-18.8-8.4-18.8-18.8V95.7c0-10.4,8.4-18.8,18.8-18.8h206.4
				c10.4,0,18.8,8.4,18.8,18.8v93.4c0,0.6-0.4,1-1,1s-1-0.4-1-1V95.7c0-9.3-7.5-16.8-16.8-16.8H24.8C15.5,78.9,8,86.5,8,95.7v132.9
				c0,9.3,7.5,16.8,16.8,16.8h206.4c9.3,0,16.8-7.5,16.8-16.8v-25.1c0-0.6,0.4-1,1-1s1,0.4,1,1v25.1
				C250,238.9,241.6,247.4,231.2,247.4z"/>
		</g>
	</g>
	<g>
		<path class="st2" d="M42.6,77.9v69.7c-2.4,0.7-4.6,2.1-6.3,3.8c-1.4,1.4-2.5,3-3.2,4.8h-2.3c-9.8,0-17.8-8-17.8-17.8v-56
			c3.1-2.8,7.3-4.5,11.9-4.5H42.6z"/>
		<path class="st1" d="M33,156.7h-2.3c-10.1,0-18.3-8.2-18.3-18.3v-56c0-0.1,0.1-0.3,0.2-0.4c3.4-3,7.7-4.7,12.2-4.7h17.8
			c0.3,0,0.5,0.2,0.5,0.5v69.7c0,0.2-0.1,0.4-0.4,0.5c-2.3,0.7-4.4,2-6.1,3.7c-1.3,1.3-2.4,2.9-3.1,4.6
			C33.4,156.6,33.2,156.7,33,156.7z M13.4,82.7v55.7c0,9.5,7.8,17.3,17.3,17.3h2c0.8-1.7,1.9-3.3,3.2-4.6c1.7-1.7,3.9-3,6.2-3.8
			V78.4H24.8C20.6,78.4,16.6,79.9,13.4,82.7z"/>
	</g>
	<g>
		<path class="st2" d="M187.7,77.9v69.7c-2.4,0.7-4.6,2.1-6.3,3.8c-1.4,1.4-2.5,3-3.2,4.8H77.9c-1.7-4.1-5.3-7.3-9.6-8.6V77.9H187.7
			z"/>
		<path class="st1" d="M178.1,156.7H77.9c-0.2,0-0.4-0.1-0.5-0.3c-1.7-4-5.1-7-9.2-8.3c-0.2-0.1-0.4-0.3-0.4-0.5V77.9
			c0-0.3,0.2-0.5,0.5-0.5h119.4c0.3,0,0.5,0.2,0.5,0.5v69.7c0,0.2-0.1,0.4-0.4,0.5c-2.3,0.7-4.4,2-6.1,3.7c-1.3,1.3-2.4,2.9-3.1,4.6
			C178.5,156.6,178.3,156.7,178.1,156.7z M78.2,155.7h99.6c0.8-1.7,1.9-3.3,3.2-4.6c1.7-1.7,3.9-3,6.2-3.8V78.4H68.8v68.9
			C73,148.7,76.4,151.7,78.2,155.7z"/>
	</g>
	<g>
		<path class="st2" d="M213.4,100.4V77.9h17.8c4.6,0,8.7,1.7,11.9,4.5v56c0,9.8-8,17.8-17.8,17.8H223c-1.7-4.1-5.3-7.3-9.6-8.6
			v-38.3V100.4z"/>
		<path class="st1" d="M225.3,156.7H223c-0.2,0-0.4-0.1-0.5-0.3c-1.7-4-5.1-7-9.2-8.3c-0.2-0.1-0.4-0.3-0.4-0.5v-38.3
			c0-0.3,0.2-0.5,0.5-0.5s0.5,0.2,0.5,0.5v37.9c4.2,1.4,7.6,4.4,9.4,8.4h2c9.5,0,17.3-7.8,17.3-17.3V82.7c-3.1-2.8-7.2-4.3-11.4-4.3
			h-17.3v22c0,0.3-0.2,0.5-0.5,0.5s-0.5-0.2-0.5-0.5V77.9c0-0.3,0.2-0.5,0.5-0.5h17.8c4.5,0,8.8,1.7,12.2,4.7
			c0.1,0.1,0.2,0.2,0.2,0.4v56C243.6,148.5,235.4,156.7,225.3,156.7z"/>
	</g>
	<path class="st2" d="M133.7,193.6h49.8c2.2,4.6,6.3,8.3,11.1,10v34.5h36.7c5.2,0,9.5-4.3,9.5-9.5v-72.1c0,0,0,0,0,0
		c-0.2,0.2-0.4,0.4-0.7,0.6c0,0-0.1,0.1-0.1,0.1c-0.2,0.2-0.4,0.3-0.6,0.5c-0.2,0.2-0.5,0.3-0.7,0.5c-0.3,0.2-0.5,0.3-0.8,0.5
		c-1,0.6-2,1.1-3.1,1.6c-0.3,0.1-0.6,0.2-0.8,0.3c0,0-0.1,0-0.2,0.1c-0.3,0.1-0.6,0.2-0.8,0.3c0,0-0.1,0-0.1,0
		c-0.2,0.1-0.5,0.1-0.7,0.2c-0.3,0.1-0.6,0.2-0.9,0.3c-0.3,0.1-0.6,0.1-0.8,0.2c-0.1,0-0.1,0-0.2,0c-0.2,0.1-0.5,0.1-0.7,0.1
		c-0.2,0-0.4,0.1-0.6,0.1c-0.3,0.1-0.6,0.1-1,0.1c-0.4,0-0.7,0.1-1.1,0.1c-0.4,0-0.8,0-1.2,0h-1.1c0,4.2-1.7,8-4.4,10.7
		c-1.8,1.7-3.9,3.1-6.4,3.8v9c0,7.1-5.8,12.9-12.8,12.9s-12.8-5.8-12.8-12.9v-9c-6.2-1.9-10.8-7.6-10.8-14.5H79.1
		c0,4.2-1.7,8-4.4,10.7c-1.7,1.7-3.9,3.1-6.4,3.8v9c0,7.1-5.8,12.9-12.8,12.9s-12.8-5.8-12.8-12.9v-9c-6.2-1.9-10.8-7.6-10.8-14.5
		h-1.1c-0.4,0-0.8,0-1.2,0c-0.4,0-0.7,0-1.1-0.1c-0.3,0-0.7-0.1-1-0.1c-0.2,0-0.4-0.1-0.6-0.1c-0.3,0-0.5-0.1-0.7-0.1
		c-0.1,0-0.1,0-0.2,0c-0.3-0.1-0.6-0.1-0.8-0.2c-0.3-0.1-0.6-0.2-0.9-0.3c-0.2-0.1-0.5-0.1-0.7-0.2c0,0-0.1,0-0.1,0
		c-0.3-0.1-0.6-0.2-0.8-0.3c-0.1,0-0.1,0-0.2-0.1c-0.3-0.1-0.6-0.2-0.8-0.3c-1.1-0.5-2.1-1-3.1-1.6c-0.3-0.2-0.5-0.3-0.8-0.5
		c-0.3-0.2-0.5-0.3-0.7-0.5c-0.2-0.2-0.4-0.3-0.6-0.5c-0.1,0-0.1-0.1-0.1-0.1c-0.2-0.2-0.5-0.4-0.7-0.6c0,0,0,0,0,0v19.3v6.9v2.9
		v3.7v39.4c0,5.2,4.3,9.5,9.5,9.5h36.7v-34.5c4.9-1.7,8.9-5.3,11.1-10h40H133.7z"/>
	<path class="st3" d="M72.4,246.4v-39c3.4-1.9,6.4-4.6,8.6-7.8h104c2.2,3.3,5.1,5.9,8.6,7.8v39H72.4z"/>
	<path class="st3" d="M109.3,42.5c6.4-6.3,15.1-10.1,24.7-10.1c19.5,0,35.3,15.8,35.3,35.3h16.6c0-28.7-23.2-51.9-51.9-51.9
		S82.1,39,82.1,67.7h16.6c0-7.6,2.4-14.6,6.4-20.3L109.3,42.5z"/>
	<path class="st4" d="M60.5,154.5h6.9c0.9,0,1.8,0.1,2.6,0.4c2.6,0.8,4.8,2.7,5.8,5.2c0.5,1.1,0.7,2.3,0.7,3.6c0,2.5-1,4.8-2.7,6.5
		c-1.1,1.1-2.4,1.9-3.8,2.3c-0.9,0.3-1.8,0.4-2.7,0.4h-17c-0.9,0-1.8-0.1-2.7-0.4c-3.9-1.2-6.5-4.7-6.5-8.8c0-1.3,0.2-2.5,0.7-3.6
		c0.5-1.1,1.1-2.1,2-2.9c1.1-1.1,2.4-1.9,3.9-2.3c0.8-0.2,1.7-0.4,2.6-0.4h5.1H60.5z"/>
	<path class="st4" d="M195.6,172.8c-0.9,0-1.8-0.1-2.7-0.4c-3.9-1.2-6.5-4.7-6.5-8.8c0-1.3,0.2-2.5,0.7-3.6c0.5-1.1,1.1-2.1,2-2.9
		c1.1-1.1,2.4-1.9,3.9-2.3c0.8-0.2,1.7-0.4,2.6-0.4h17c0.9,0,1.8,0.1,2.6,0.4c2.6,0.8,4.8,2.7,5.8,5.2c0.5,1.1,0.7,2.3,0.7,3.6
		c0,2.5-1,4.8-2.7,6.5c-1.1,1.1-2.4,1.9-3.8,2.3c-0.9,0.3-1.8,0.4-2.7,0.4H195.6z"/>
	<path class="st3" d="M73.3,78.9v69.7c-1.4-0.4-2.8-0.6-4.4-0.6h-17c-1.5,0-3,0.2-4.4,0.6V78.9H73.3z"/>
	<path class="st3" d="M68.9,176.3c1.5,0,3-0.2,4.4-0.6v9c0,7.1-5.8,12.9-12.9,12.9c-7.1,0-12.8-5.8-12.8-12.9v-9
		c1.4,0.4,2.8,0.6,4.4,0.6H68.9z"/>
	<path class="st3" d="M218.4,110.3v38.4c-1.4-0.4-2.8-0.6-4.4-0.6h-17c-1.5,0-3,0.2-4.4,0.6V78.9h25.7v22.5V110.3z"/>
	<path class="st3" d="M214.1,176.3c1.5,0,3-0.2,4.4-0.6v9c0,7.1-5.8,12.9-12.8,12.9c-7.1,0-12.9-5.8-12.9-12.9v-9
		c1.4,0.4,2.8,0.6,4.4,0.6H214.1z"/>
	<polygon class="st5" points="155,107.6 177.1,107.6 177.1,142.5 88.9,142.5 88.9,107.6 145.9,107.6 	"/>
	<g>
		<path class="st1" d="M249,199.8c-0.8,0-1.5-0.7-1.5-1.5v-1.5c0-0.8,0.7-1.5,1.5-1.5s1.5,0.7,1.5,1.5v1.5
			C250.5,199.1,249.8,199.8,249,199.8z"/>
	</g>
	<g>
		<g>
			<path class="st1" d="M15.3,185.9c-0.3,0-0.5-0.2-0.5-0.5v-2.9c0-0.3,0.2-0.5,0.5-0.5s0.5,0.2,0.5,0.5v2.9
				C15.8,185.7,15.6,185.9,15.3,185.9z"/>
		</g>
		<g>
			<path class="st1" d="M61.4,238.6H24.8c-5.5,0-10-4.5-10-10v-39.4c0-0.3,0.2-0.5,0.5-0.5s0.5,0.2,0.5,0.5v39.4c0,5,4,9,9,9h36.2
				v-34c0-0.2,0.1-0.4,0.3-0.5c4.8-1.6,8.7-5.2,10.8-9.7c0.1-0.2,0.3-0.3,0.5-0.3h40c0.3,0,0.5,0.2,0.5,0.5s-0.2,0.5-0.5,0.5H72.9
				c-2.2,4.5-6.2,8.1-10.9,9.8v34.2C61.9,238.3,61.7,238.6,61.4,238.6z"/>
		</g>
		<g>
			<path class="st1" d="M231.2,238.6h-36.7c-0.3,0-0.5-0.2-0.5-0.5v-34.2c-4.8-1.7-8.7-5.3-10.9-9.8h-49.5c-0.3,0-0.5-0.2-0.5-0.5
				s0.2-0.5,0.5-0.5h49.8c0.2,0,0.4,0.1,0.5,0.3c2.1,4.5,6.1,8.1,10.8,9.7c0.2,0.1,0.3,0.3,0.3,0.5v34h36.2c5,0,9-4,9-9v-71.1
				c0,0-0.1,0-0.1,0.1c-0.2,0.2-0.4,0.3-0.6,0.5c-0.2,0.2-0.5,0.3-0.7,0.5c-0.3,0.2-0.5,0.3-0.8,0.5c-1,0.6-2,1.2-3.1,1.6
				c-0.3,0.1-0.6,0.2-0.9,0.3c0,0-0.1,0-0.2,0.1c-0.3,0.1-0.6,0.2-0.9,0.3c0,0,0,0-0.1,0.1c-0.1,0.1-0.3,0.1-0.5,0.2l-0.1,0
				c-0.3,0.1-0.6,0.2-1,0.3c-0.3,0.1-0.6,0.1-0.9,0.2c0,0-0.1,0-0.2,0c-0.2,0.1-0.5,0.1-0.7,0.1l-0.2,0c-0.2,0-0.3,0.1-0.5,0.1
				c-0.3,0.1-0.6,0.1-1,0.1c-0.4,0-0.8,0.1-1.1,0.1c-0.4,0-0.8,0-1.2,0h-0.6c-0.1,4-1.7,7.7-4.6,10.6c-1.8,1.7-3.9,3-6.2,3.8v8.7
				c0,7.4-6,13.4-13.4,13.4s-13.3-6-13.3-13.4V177c-6.3-2.1-10.6-7.8-10.8-14.4H79.6c-0.1,4-1.7,7.7-4.6,10.6
				c-1.7,1.7-3.9,3-6.2,3.8v8.7c0,7.4-6,13.4-13.3,13.4s-13.4-6-13.4-13.4V177c-6.3-2.1-10.6-7.7-10.8-14.4h-0.6c-0.4,0-0.8,0-1.3,0
				c-0.3,0-0.7,0-1.1-0.1c-0.3,0-0.7-0.1-1-0.1c-0.1,0-0.3,0-0.4-0.1l-0.2,0c-0.3,0-0.5-0.1-0.7-0.1c-0.1,0-0.2,0-0.3-0.1
				c-0.2,0-0.5-0.1-0.8-0.2c-0.3-0.1-0.6-0.2-1-0.3l-0.1,0c-0.2-0.1-0.4-0.1-0.6-0.2c-0.1,0-0.1-0.1-0.2-0.1c-0.2,0-0.5-0.2-0.8-0.3
				c-0.1,0-0.2-0.1-0.3-0.1c-0.2-0.1-0.5-0.2-0.8-0.3c-1.1-0.5-2.2-1-3.1-1.6c-0.3-0.2-0.5-0.3-0.8-0.5c-0.2-0.2-0.5-0.3-0.7-0.5
				c-0.2-0.1-0.4-0.3-0.6-0.5c0,0-0.1,0-0.1-0.1v18.2c0,0.3-0.2,0.5-0.5,0.5s-0.5-0.2-0.5-0.5v-19.3c0-0.2,0.1-0.4,0.4-0.5
				c0.2-0.1,0.4,0,0.5,0.1c0,0,0,0,0,0c0.1,0.1,0.3,0.3,0.5,0.4l0.2,0.2c0.1,0,0.1,0.1,0.1,0.1c0.2,0.2,0.4,0.3,0.6,0.5
				c0.2,0.2,0.5,0.3,0.7,0.5c0.3,0.2,0.5,0.3,0.8,0.5c0.9,0.6,1.9,1.1,3,1.6c0.3,0.1,0.5,0.2,0.8,0.3c0,0,0.1,0,0.1,0
				c0.3,0.1,0.6,0.2,0.9,0.3c0,0,0.1,0,0.1,0c0.2,0.1,0.4,0.1,0.6,0.2l0.1,0c0.3,0.1,0.6,0.2,0.9,0.2c0.3,0.1,0.6,0.1,0.8,0.2l0.1,0
				c0,0,0.1,0,0.1,0c0.2,0.1,0.5,0.1,0.7,0.1l0.2,0c0.1,0,0.3,0,0.4,0.1c0.4,0.1,0.7,0.1,1,0.1c0.4,0,0.7,0.1,1.1,0.1
				c0.4,0,0.8,0,1.2,0h1.1c0.3,0,0.5,0.2,0.5,0.5c0,6.5,4.2,12.1,10.4,14c0.2,0.1,0.4,0.3,0.4,0.5v9c0,6.8,5.5,12.4,12.4,12.4
				c6.8,0,12.3-5.5,12.3-12.4v-9c0-0.2,0.1-0.4,0.4-0.5c2.3-0.7,4.4-1.9,6.1-3.7c2.8-2.8,4.3-6.4,4.3-10.3c0-0.3,0.2-0.5,0.5-0.5
				h97.9c0.3,0,0.5,0.2,0.5,0.5c0,6.5,4.2,12.1,10.4,14c0.2,0.1,0.4,0.3,0.4,0.5v9c0,6.8,5.5,12.4,12.3,12.4
				c6.8,0,12.4-5.5,12.4-12.4v-9c0-0.2,0.1-0.4,0.4-0.5c2.3-0.7,4.4-1.9,6.1-3.7c2.8-2.8,4.3-6.4,4.3-10.3c0-0.3,0.2-0.5,0.5-0.5
				h1.1c0.4,0,0.8,0,1.2,0c0.4,0,0.7,0,1.1-0.1c0.3,0,0.6-0.1,0.9-0.1c0.2,0,0.3,0,0.5-0.1l0.2,0c0.2,0,0.5-0.1,0.7-0.1
				c0,0,0.1,0,0.1,0c0,0,0.1,0,0.1,0c0.3,0,0.5-0.1,0.8-0.2c0.3-0.1,0.6-0.1,0.9-0.2l0.2,0c0.2-0.1,0.3-0.1,0.5-0.2
				c0,0,0.1,0,0.2-0.1c0.3-0.1,0.5-0.2,0.8-0.3c0,0,0.1,0,0.1,0c0.3-0.1,0.6-0.2,0.9-0.4c1.1-0.5,2.1-1,3-1.6
				c0.3-0.2,0.5-0.3,0.8-0.5c0.3-0.2,0.5-0.3,0.7-0.5c0.2-0.2,0.4-0.3,0.6-0.5c0,0,0.1-0.1,0.2-0.1l0.2-0.2c0.2-0.1,0.3-0.3,0.5-0.4
				c0,0,0,0,0,0c0.1-0.1,0.3-0.2,0.5-0.1c0.2,0.1,0.4,0.3,0.4,0.5v72.1C241.2,234.1,236.7,238.6,231.2,238.6z M15.3,156.4
				L15.3,156.4L15.3,156.4z"/>
		</g>
	</g>
	<g>
		<path class="st1" d="M194.6,247.4H62c-0.6,0-1-0.4-1-1v-42.5c0-0.4,0.3-0.8,0.6-0.9c4.5-1.7,8.1-5,10.3-9.3
			c0.2-0.3,0.5-0.5,0.9-0.5h40.2c0.6,0,1,0.4,1,1s-0.4,1-1,1H73.5c-2.3,4.2-6,7.5-10.5,9.4v40.8h130.5v-40.8
			c-4.5-1.9-8.1-5.2-10.5-9.4h-50.7c-0.6,0-1-0.4-1-1s0.4-1,1-1h51.3c0.4,0,0.7,0.2,0.9,0.5c2.2,4.3,5.8,7.5,10.3,9.3
			c0.4,0.1,0.6,0.5,0.6,0.9v42.5C195.6,246.9,195.1,247.4,194.6,247.4z"/>
	</g>
	<g>
		<path class="st1" d="M31.8,163.1h-1.1c-0.4,0-0.9,0-1.3,0c-0.2,0-0.5,0-0.8,0l-0.4,0c-0.4,0-0.7-0.1-1.1-0.1
			c-0.2,0-0.4-0.1-0.6-0.1c-0.2,0-0.5-0.1-0.7-0.1c-0.1,0-0.2,0-0.3-0.1c-0.3,0-0.5-0.1-0.8-0.2c-0.4-0.1-0.7-0.2-1.1-0.3l-0.2,0
			c-0.2-0.1-0.4-0.1-0.5-0.2c-0.1,0-0.1,0-0.2-0.1c-0.3-0.1-0.5-0.2-0.8-0.3c-0.1,0-0.2-0.1-0.3-0.1c-0.3-0.1-0.6-0.2-0.8-0.3
			c-1.1-0.5-2.2-1-3.2-1.7c-0.3-0.1-0.5-0.3-0.8-0.5c-0.3-0.2-0.5-0.3-0.8-0.5c-0.2-0.1-0.4-0.3-0.6-0.4c-0.1-0.1-0.2-0.1-0.2-0.1
			l-0.3-0.2c-0.1-0.1-0.3-0.2-0.4-0.4c0,0,0,0-0.1-0.1l0,0C9.2,152.5,6,145.7,6,138.4V95.7c0-5.3,2.3-10.4,6.3-14
			c3.4-3.1,7.9-4.8,12.5-4.8h17.8c0.6,0,1,0.4,1,1v69.7c0,0.4-0.3,0.8-0.7,1c-2.2,0.7-4.3,1.9-5.9,3.5c-1.3,1.3-2.3,2.8-3,4.5
			c-0.8,1.7-1.1,3.6-1.1,5.5C32.8,162.7,32.4,163.1,31.8,163.1z M26.1,160.7c0.1,0,0.1,0,0.2,0c0.2,0.1,0.4,0.1,0.6,0.1
			c0.2,0,0.4,0.1,0.6,0.1c0.4,0.1,0.7,0.1,1,0.1l0.3,0c0.2,0,0.5,0,0.7,0c0.4,0,0.8,0,1.2,0h0.1c0.1-1.9,0.5-3.6,1.3-5.3
			c0.8-1.9,2-3.6,3.4-5.1c1.7-1.7,3.8-3,6.1-3.8v-68H24.8c-4.1,0-8.1,1.5-11.2,4.3C10,86.4,8,90.9,8,95.7v42.7
			c0,6.6,2.9,12.9,7.9,17.2c0,0,0.1,0,0.1,0.1c0.1,0.1,0.3,0.2,0.4,0.3l0.2,0.2c0,0,0.1,0.1,0.1,0.1c0.2,0.2,0.4,0.3,0.6,0.5
			c0.2,0.2,0.4,0.3,0.7,0.5c0.3,0.2,0.5,0.4,0.8,0.5c1,0.6,1.9,1.1,3,1.5c0.3,0.1,0.5,0.2,0.8,0.3c0,0,0.1,0,0.1,0c0,0,0,0,0.1,0
			c0.3,0.1,0.5,0.2,0.8,0.3c0,0,0.1,0,0.1,0c0,0,0.1,0,0.1,0c0.1,0.1,0.3,0.1,0.4,0.1l0.2,0.1c0.3,0.1,0.6,0.2,0.9,0.2
			c0,0,0.1,0,0.1,0c0.2,0.1,0.5,0.1,0.7,0.2C26.1,160.7,26.1,160.7,26.1,160.7z M26.2,160.7C26.2,160.7,26.2,160.7,26.2,160.7
			C26.2,160.7,26.2,160.7,26.2,160.7z M23.8,160.1C23.8,160.1,23.8,160.1,23.8,160.1C23.8,160.1,23.8,160.1,23.8,160.1z M22.6,159.7
			L22.6,159.7L22.6,159.7z M16.5,156.2C16.5,156.2,16.5,156.2,16.5,156.2C16.5,156.2,16.5,156.2,16.5,156.2z"/>
	</g>
	<g>
		<path class="st1" d="M176.9,163.1H79.1c-0.3,0-0.5-0.1-0.7-0.3s-0.3-0.4-0.3-0.7c0-1.9-0.4-3.8-1.1-5.5c-1.7-3.9-4.9-6.8-8.9-8
			c-0.4-0.1-0.7-0.5-0.7-1V77.9c0-0.6,0.4-1,1-1h119.4c0.6,0,1,0.4,1,1v69.7c0,0.4-0.3,0.8-0.7,1c-2.2,0.7-4.3,1.9-5.9,3.5
			c-1.3,1.3-2.3,2.8-3,4.5c-0.8,1.7-1.1,3.6-1.1,5.5c0,0.3-0.1,0.5-0.3,0.7S177.2,163.1,176.9,163.1z M80,161.1H176
			c0.1-1.9,0.5-3.6,1.3-5.3c0.8-1.9,2-3.6,3.4-5.1c1.7-1.7,3.8-3,6.1-3.8v-68H69.3v68c4.3,1.5,7.7,4.7,9.5,8.9
			C79.5,157.5,79.9,159.3,80,161.1z"/>
	</g>
	<g>
		<path class="st1" d="M225.3,163.1h-1.1c-0.6,0-1-0.4-1-1c0-1.9-0.4-3.8-1.1-5.5c-1.6-3.9-4.9-6.8-8.9-8c-0.4-0.1-0.7-0.5-0.7-1
			v-38.1c0-0.6,0.4-1,1-1s1,0.4,1,1v37.4c4.3,1.5,7.7,4.7,9.5,8.9c0.7,1.7,1.1,3.5,1.3,5.3h0.1c0.4,0,0.8,0,1.2,0c0.3,0,0.5,0,0.7,0
			l0.4,0c0.3,0,0.6-0.1,0.9-0.1c0.3,0,0.5-0.1,0.7-0.1c0.2,0,0.5-0.1,0.7-0.1c0.1,0,0.1,0,0.2,0c0,0,0.1,0,0.1,0
			c0.2,0,0.5-0.1,0.7-0.2c0,0,0.1,0,0.1,0c0.3-0.1,0.6-0.1,0.9-0.2l0.2-0.1c0.2,0,0.3-0.1,0.4-0.1c0,0,0,0,0.1,0c0,0,0.1,0,0.1,0
			c0.3-0.1,0.5-0.2,0.8-0.3c0,0,0.1,0,0.1,0c0,0,0.1,0,0.1,0c0.3-0.1,0.5-0.2,0.8-0.3c1-0.4,2-1,2.9-1.5c0.3-0.2,0.5-0.3,0.8-0.5
			c0.3-0.2,0.5-0.3,0.7-0.5c0.2-0.2,0.4-0.3,0.6-0.5c0,0,0.1-0.1,0.1-0.1c0,0,0,0,0.1,0l0.2-0.2c0.1-0.1,0.3-0.2,0.4-0.3
			c0,0,0.1,0,0.1-0.1c5-4.3,7.9-10.6,7.9-17.2V95.7c0-4.8-2-9.3-5.6-12.5c-3.1-2.8-7.1-4.3-11.2-4.3h-16.8v18.6c0,0.6-0.4,1-1,1
			s-1-0.4-1-1V77.9c0-0.6,0.4-1,1-1h17.8c4.6,0,9.1,1.7,12.5,4.8c4,3.6,6.3,8.7,6.3,14v42.7c0,7.2-3.2,14.1-8.7,18.8l0,0
			c0,0,0,0-0.1,0.1c-0.1,0.1-0.3,0.2-0.4,0.4l-0.2,0.2c-0.1,0.1-0.2,0.1-0.3,0.2c-0.2,0.2-0.4,0.3-0.6,0.5c-0.2,0.2-0.5,0.4-0.8,0.5
			c-0.3,0.2-0.5,0.4-0.8,0.5c-1,0.6-2.1,1.2-3.2,1.7c-0.3,0.1-0.5,0.2-0.8,0.3c-0.1,0-0.1,0.1-0.3,0.1c-0.3,0.1-0.5,0.2-0.8,0.3
			c-0.1,0-0.1,0.1-0.2,0.1c-0.2,0.1-0.3,0.1-0.5,0.2l-0.2,0c-0.3,0.1-0.7,0.2-1,0.3c-0.3,0.1-0.6,0.1-0.8,0.2c-0.1,0-0.2,0-0.3,0.1
			c-0.2,0.1-0.5,0.1-0.7,0.1c-0.2,0-0.4,0.1-0.7,0.1c-0.3,0.1-0.6,0.1-1,0.1l-0.4,0c-0.3,0-0.5,0-0.8,0
			C226.1,163.1,225.7,163.1,225.3,163.1z M229.8,160.7C229.8,160.7,229.8,160.7,229.8,160.7C229.8,160.7,229.8,160.7,229.8,160.7z
			 M232.2,160.1C232.2,160.1,232.2,160.1,232.2,160.1C232.2,160.1,232.2,160.1,232.2,160.1z M233.3,159.7L233.3,159.7L233.3,159.7z
			 M233.4,159.7C233.4,159.7,233.4,159.7,233.4,159.7C233.4,159.7,233.4,159.7,233.4,159.7z M233.4,159.7L233.4,159.7L233.4,159.7z
			 M239.5,156.2C239.5,156.2,239.5,156.2,239.5,156.2C239.5,156.2,239.5,156.2,239.5,156.2z"/>
	</g>
	<g>
		<path class="st1" d="M68.3,148.7c-0.1,0-0.2,0-0.3,0c-1.3-0.4-2.7-0.6-4.1-0.6h-17c-1.4,0-2.7,0.2-4.1,0.6c-0.3,0.1-0.6,0-0.9-0.2
			c-0.3-0.2-0.4-0.5-0.4-0.8V77.9c0-0.6,0.4-1,1-1h25.7c0.6,0,1,0.4,1,1v69.7c0,0.3-0.1,0.6-0.4,0.8
			C68.7,148.6,68.5,148.7,68.3,148.7z M46.9,146h17c1.1,0,2.3,0.1,3.4,0.4V78.9H43.6v67.4C44.7,146.1,45.8,146,46.9,146z"/>
	</g>
	<g>
		<path class="st1" d="M55.4,199.5c-7.6,0-13.8-6.2-13.8-13.9v-9c0-0.3,0.1-0.6,0.4-0.8c0.3-0.2,0.6-0.2,0.9-0.2
			c1.3,0.4,2.7,0.6,4.1,0.6h17c1.4,0,2.7-0.2,4.1-0.6c0.3-0.1,0.6,0,0.9,0.2c0.3,0.2,0.4,0.5,0.4,0.8v9
			C69.3,193.3,63.1,199.5,55.4,199.5z M43.6,177.9v7.7c0,6.5,5.3,11.9,11.8,11.9c6.5,0,11.9-5.3,11.9-11.9v-7.8
			c-1.1,0.2-2.2,0.4-3.4,0.4h-17C45.8,178.3,44.7,178.2,43.6,177.9z"/>
	</g>
	<g>
		<path class="st1" d="M62.4,147.5H48.5c-0.3,0-0.5-0.2-0.5-0.5V94.8c0-0.3,0.2-0.5,0.5-0.5s0.5,0.2,0.5,0.5v51.7h12.8V78.4H49v7.1
			c0,0.3-0.2,0.5-0.5,0.5S48,85.8,48,85.6v-7.6c0-0.3,0.2-0.5,0.5-0.5h13.8c0.3,0,0.5,0.2,0.5,0.5V147
			C62.9,147.3,62.6,147.5,62.4,147.5z"/>
	</g>
	<g>
		<path class="st1" d="M55.4,193.1c-4.1,0-7.4-3.3-7.4-7.4v-8.4c0-0.3,0.2-0.5,0.5-0.5h13.8c0.3,0,0.5,0.2,0.5,0.5v8.4
			C62.9,189.8,59.5,193.1,55.4,193.1z M49,177.8v7.9c0,3.5,2.9,6.4,6.4,6.4c3.5,0,6.4-2.9,6.4-6.4v-7.9H49z"/>
	</g>
	<g>
		<path class="st1" d="M213.4,148.7c-0.1,0-0.2,0-0.3,0c-1.3-0.4-2.7-0.6-4.1-0.6h-17c-1.4,0-2.7,0.2-4.1,0.6
			c-0.3,0.1-0.6,0-0.9-0.2c-0.3-0.2-0.4-0.5-0.4-0.8V77.9c0-0.6,0.4-1,1-1h25.7c0.6,0,1,0.4,1,1v22.5c0,0.6-0.4,1-1,1s-1-0.4-1-1
			V78.9h-23.7v67.4c1.1-0.2,2.2-0.3,3.4-0.3h17c1.1,0,2.3,0.1,3.4,0.4v-37.1c0-0.6,0.4-1,1-1s1,0.4,1,1v38.4c0,0.3-0.1,0.6-0.4,0.8
			C213.8,148.6,213.6,148.7,213.4,148.7z"/>
	</g>
	<g>
		<path class="st1" d="M200.6,199.5c-7.6,0-13.9-6.2-13.9-13.9v-9c0-0.3,0.1-0.6,0.4-0.8c0.3-0.2,0.6-0.2,0.9-0.2
			c1.3,0.4,2.7,0.6,4.1,0.6h17c1.4,0,2.7-0.2,4.1-0.6c0.3-0.1,0.6,0,0.9,0.2c0.3,0.2,0.4,0.5,0.4,0.8v9
			C214.4,193.3,208.2,199.5,200.6,199.5z M188.7,177.9v7.7c0,6.5,5.3,11.9,11.9,11.9c6.5,0,11.8-5.3,11.8-11.9v-7.8
			c-1.1,0.2-2.2,0.4-3.4,0.4h-17C190.9,178.3,189.8,178.2,188.7,177.9z"/>
	</g>
	<g>
		<path class="st1" d="M207.5,147.5h-13.8c-0.3,0-0.5-0.2-0.5-0.5V77.9c0-0.3,0.2-0.5,0.5-0.5h13.8c0.3,0,0.5,0.2,0.5,0.5V147
			C208,147.3,207.8,147.5,207.5,147.5z M194.1,146.5H207V78.4h-12.8V146.5z"/>
	</g>
	<g>
		<path class="st1" d="M200.6,193.1c-4.1,0-7.4-3.3-7.4-7.4v-8.4c0-0.3,0.2-0.5,0.5-0.5h13.8c0.3,0,0.5,0.2,0.5,0.5v8.4
			C208,189.8,204.7,193.1,200.6,193.1z M194.1,177.8v7.9c0,3.5,2.9,6.4,6.4,6.4c3.5,0,6.4-2.9,6.4-6.4v-7.9H194.1z"/>
	</g>
	<g>
		<path class="st1" d="M63.9,178.3h-17c-1.6,0-3.1-0.2-4.6-0.7c-6.9-2.1-11.5-8.3-11.5-15.5c0-2.2,0.4-4.3,1.3-6.3
			c0.8-1.9,2-3.6,3.4-5.1c1.9-1.9,4.2-3.3,6.8-4c1.5-0.4,3.1-0.7,4.6-0.7h17c1.6,0,3.1,0.2,4.6,0.7c4.6,1.4,8.3,4.7,10.2,9.1
			c0.9,2,1.3,4.1,1.3,6.3c0,4.3-1.7,8.4-4.7,11.4c-1.9,1.9-4.2,3.3-6.8,4C67.1,178,65.5,178.3,63.9,178.3z M46.9,148
			c-1.4,0-2.7,0.2-4.1,0.6c-2.2,0.7-4.3,1.9-5.9,3.5c-1.3,1.3-2.3,2.8-3,4.5c-0.8,1.7-1.1,3.6-1.1,5.5c0,6.3,4,11.7,10.1,13.5
			c1.3,0.4,2.7,0.6,4.1,0.6h17c1.4,0,2.7-0.2,4.1-0.6c2.2-0.7,4.3-1.9,5.9-3.5c2.7-2.7,4.1-6.2,4.1-10c0-1.9-0.4-3.8-1.1-5.5
			c-1.7-3.9-4.9-6.8-8.9-8c-1.3-0.4-2.7-0.6-4.1-0.6H46.9z"/>
	</g>
	<g>
		<path class="st1" d="M63.9,171.8h-17c-0.9,0-1.9-0.1-2.8-0.4c-4.1-1.2-6.9-5-6.9-9.3c0-1.3,0.3-2.6,0.8-3.8
			c0.5-1.1,1.2-2.2,2.1-3.1c1.1-1.1,2.5-2,4.1-2.4c0.9-0.3,1.8-0.4,2.8-0.4H52c0.3,0,0.5,0.2,0.5,0.5s-0.2,0.5-0.5,0.5h-5.1
			c-0.8,0-1.7,0.1-2.5,0.4c-1.4,0.4-2.6,1.2-3.7,2.2c-0.8,0.8-1.4,1.7-1.9,2.8c-0.5,1.1-0.7,2.2-0.7,3.4c0,3.9,2.5,7.2,6.2,8.3
			c0.8,0.2,1.7,0.4,2.5,0.4h17c0.8,0,1.7-0.1,2.5-0.4c1.4-0.4,2.6-1.2,3.6-2.2c1.6-1.7,2.5-3.8,2.5-6.2c0-1.2-0.2-2.3-0.7-3.4
			c-1-2.3-3.1-4.2-5.5-4.9c-0.8-0.2-1.6-0.4-2.5-0.4H57c-0.3,0-0.5-0.2-0.5-0.5s0.2-0.5,0.5-0.5h6.9c0.9,0,1.9,0.1,2.8,0.4
			c2.7,0.8,5,2.9,6.1,5.5c0.5,1.2,0.8,2.5,0.8,3.8c0,2.6-1,5-2.8,6.9c-1.1,1.1-2.5,2-4,2.4C65.8,171.7,64.9,171.8,63.9,171.8z"/>
	</g>
	<g>
		<path class="st1" d="M209.1,178.3h-17c-1.6,0-3.1-0.2-4.6-0.7c-6.9-2.1-11.5-8.3-11.5-15.5c0-2.2,0.4-4.3,1.3-6.3
			c0.8-1.9,2-3.6,3.4-5.1c1.9-1.9,4.2-3.3,6.8-4c1.5-0.4,3.1-0.7,4.6-0.7h17c1.6,0,3.1,0.2,4.6,0.7c4.6,1.4,8.3,4.7,10.2,9.1
			c0.9,2,1.3,4.1,1.3,6.3c0,4.3-1.7,8.4-4.7,11.4c-1.9,1.9-4.2,3.3-6.8,4C212.2,178,210.6,178.3,209.1,178.3z M192.1,148
			c-1.4,0-2.7,0.2-4.1,0.6c-2.2,0.7-4.3,1.9-5.9,3.5c-1.3,1.3-2.3,2.8-3,4.5c-0.8,1.7-1.1,3.6-1.1,5.5c0,6.3,4,11.7,10.1,13.5
			c1.3,0.4,2.7,0.6,4.1,0.6h17c1.4,0,2.7-0.2,4.1-0.6c2.2-0.7,4.3-1.9,5.9-3.5c2.7-2.7,4.1-6.2,4.1-10c0-1.9-0.4-3.8-1.1-5.5
			c-1.6-3.9-4.9-6.8-8.9-8c-1.3-0.4-2.7-0.6-4.1-0.6H192.1z"/>
	</g>
	<g>
		<path class="st1" d="M209.1,171.8h-17c-0.9,0-1.9-0.1-2.8-0.4c-4.1-1.2-6.9-5-6.9-9.3c0-1.3,0.3-2.6,0.8-3.8
			c0.5-1.1,1.2-2.2,2.1-3.1c1.1-1.1,2.5-2,4.1-2.4c0.9-0.3,1.8-0.4,2.8-0.4h17c0.9,0,1.9,0.1,2.8,0.4c2.7,0.8,5,2.9,6.1,5.5
			c0.5,1.2,0.8,2.5,0.8,3.8c0,2.6-1,5-2.8,6.9c-1.1,1.1-2.5,2-4,2.4C210.9,171.7,210,171.8,209.1,171.8z M192.1,153.5
			c-0.8,0-1.7,0.1-2.5,0.4c-1.4,0.4-2.6,1.2-3.7,2.2c-0.8,0.8-1.4,1.7-1.9,2.8c-0.5,1.1-0.7,2.2-0.7,3.4c0,3.9,2.5,7.2,6.2,8.3
			c0.8,0.2,1.7,0.4,2.5,0.4h17c0.8,0,1.7-0.1,2.5-0.4c1.4-0.4,2.6-1.2,3.6-2.2c1.6-1.7,2.5-3.8,2.5-6.2c0-1.2-0.2-2.3-0.7-3.4
			c-1-2.3-3.1-4.2-5.5-4.9c-0.8-0.2-1.6-0.4-2.5-0.4H192.1z"/>
	</g>
	<g>
		<path class="st1" d="M179.9,68.7h-16.6c-0.6,0-1-0.4-1-1c0-18.9-15.4-34.3-34.3-34.3c-9,0-17.6,3.5-24,9.8c-0.4,0.4-1,0.4-1.4,0
			c-0.4-0.4-0.4-1,0-1.4c6.8-6.7,15.9-10.4,25.4-10.4c19.7,0,35.7,15.7,36.3,35.3h14.6c-0.5-27.6-23.2-49.9-50.9-49.9
			S77.6,39.1,77.1,66.7h14.6c0.2-7.2,2.5-14,6.6-19.9c0.3-0.5,0.9-0.6,1.4-0.2c0.5,0.3,0.6,0.9,0.2,1.4c-4.1,5.8-6.3,12.6-6.3,19.8
			c0,0.6-0.4,1-1,1H76.1c-0.6,0-1-0.4-1-1c0-29.2,23.7-52.9,52.9-52.9s52.9,23.7,52.9,52.9C180.9,68.2,180.5,68.7,179.9,68.7z"/>
	</g>
	<g>
		<path class="st1" d="M172.1,68.2h-8.8c-0.3,0-0.5-0.2-0.5-0.5c0-19.2-15.6-34.8-34.8-34.8c-9.6,0-18.5,3.8-25.1,10.7
			c-0.2,0.2-0.5,0.2-0.7,0c-0.2-0.2-0.2-0.5,0-0.7c6.8-7.1,16-11,25.8-11c19.6,0,35.5,15.8,35.8,35.3h7.8
			c-0.3-23.8-19.7-43.1-43.6-43.1S84.7,43.3,84.4,67.2h7.8c0.1-7,2.2-13.7,6.1-19.5c0.2-0.2,0.5-0.3,0.7-0.1
			c0.2,0.2,0.3,0.5,0.1,0.7c-3.9,5.8-5.9,12.5-5.9,19.5c0,0.3-0.2,0.5-0.5,0.5h-8.8c-0.3,0-0.5-0.2-0.5-0.5
			c0-24.6,20-44.6,44.6-44.6s44.6,20,44.6,44.6C172.6,67.9,172.4,68.2,172.1,68.2z"/>
	</g>
	<g>
		<path class="st4" d="M98.4,77.9H69.4c-0.6,0-1-0.4-1-1v-8.3c0-0.6,0.4-1,1-1h28.9c0.6,0,1,0.4,1,1v8.3
			C99.4,77.5,98.9,77.9,98.4,77.9z"/>
		<path class="st1" d="M98.4,78.9H69.4c-1.1,0-2-0.9-2-2v-8.3c0-1.1,0.9-2,2-2h28.9c1.1,0,2,0.9,2,2v8.3
			C100.4,78,99.5,78.9,98.4,78.9z M69.4,68.7v8.3h29l0-8.3H69.4z"/>
	</g>
	<g>
		<path class="st4" d="M186.6,77.9h-28.9c-0.6,0-1-0.4-1-1v-8.3c0-0.6,0.4-1,1-1h28.9c0.6,0,1,0.4,1,1v8.3
			C187.6,77.5,187.1,77.9,186.6,77.9z"/>
		<path class="st1" d="M186.6,78.9h-28.9c-1.1,0-2-0.9-2-2v-8.3c0-1.1,0.9-2,2-2h28.9c1.1,0,2,0.9,2,2v8.3
			C188.6,78,187.7,78.9,186.6,78.9z M157.6,68.7v8.3h29l0-8.3H157.6z"/>
	</g>
	<g>
		<path class="st1" d="M172.1,138.5H83.9c-0.6,0-1-0.4-1-1v-34.9c0-0.6,0.4-1,1-1h57c0.6,0,1,0.4,1,1s-0.4,1-1,1h-56v32.9h86.2
			v-32.9H150c-0.6,0-1-0.4-1-1s0.4-1,1-1h22.1c0.6,0,1,0.4,1,1v34.9C173.1,138,172.6,138.5,172.1,138.5z"/>
	</g>
	<g>
		<path class="st1" d="M167.1,133H88.9c-0.3,0-0.5-0.2-0.5-0.5v-24.9c0-0.3,0.2-0.5,0.5-0.5h78.2c0.3,0,0.5,0.2,0.5,0.5v24.9
			C167.6,132.7,167.4,133,167.1,133z M89.4,132h77.2v-23.9H89.4V132z"/>
	</g>
	<g>
		<path class="st1" d="M188.6,246.9H67.4c-0.3,0-0.5-0.2-0.5-0.5v-39c0-0.2,0.1-0.3,0.3-0.4c3.3-1.9,6.3-4.5,8.4-7.7
			c0.1-0.1,0.2-0.2,0.4-0.2h104c0.2,0,0.3,0.1,0.4,0.2c2.2,3.2,5.1,5.8,8.4,7.7c0.2,0.1,0.3,0.3,0.3,0.4v39
			C189.1,246.6,188.8,246.9,188.6,246.9z M67.9,245.9h120.1v-38.2c-3.3-1.9-6.2-4.5-8.3-7.6H76.3c-2.2,3.1-5,5.7-8.3,7.6V245.9z"/>
	</g>
	<g>
		<path class="st1" d="M123.2,196.1h-3.1c-0.8,0-1.5-0.7-1.5-1.5s0.7-1.5,1.5-1.5h3.1c0.8,0,1.5,0.7,1.5,1.5S124,196.1,123.2,196.1z
			"/>
	</g>
	<g>
		<path class="st1" d="M57.4,38.4c-1.6,0-3-1.3-3-3s1.3-3,3-3s3,1.3,3,3S59,38.4,57.4,38.4z M57.4,33.5c-1.1,0-2,0.9-2,2s0.9,2,2,2
			c1.1,0,2-0.9,2-2S58.5,33.5,57.4,33.5z"/>
	</g>
	<g>
		<path class="st5" d="M179.9,24.1c-1.6,0-3-1.3-3-3s1.3-3,3-3s3,1.3,3,3S181.5,24.1,179.9,24.1z M179.9,19.1c-1.1,0-2,0.9-2,2
			s0.9,2,2,2s2-0.9,2-2S181,19.1,179.9,19.1z"/>
	</g>
	<g>
		<path class="st1" d="M197.8,66.3c-0.1,0-0.3-0.1-0.4-0.1c-0.1-0.1-0.2-0.3-0.1-0.5l0.8-2.6l-0.8-2.6c-0.1-0.2,0-0.4,0.1-0.5
			c0.1-0.1,0.3-0.2,0.5-0.1l2.6,0.8l2.6-0.8c0.2-0.1,0.4,0,0.5,0.1s0.2,0.3,0.1,0.5l-0.8,2.6l0.8,2.6c0.1,0.2,0,0.4-0.1,0.5
			c-0.1,0.1-0.3,0.2-0.5,0.1l-1-0.3c-0.3-0.1-0.4-0.4-0.3-0.6c0.1-0.3,0.4-0.4,0.6-0.3l0.1,0l-0.5-1.8c0-0.1,0-0.2,0-0.3l0.5-1.8
			l-1.8,0.5c-0.1,0-0.2,0-0.3,0l-1.8-0.5l0.5,1.8c0,0.1,0,0.2,0,0.3l-0.5,1.8l1.8-0.5c0.3-0.1,0.5,0.1,0.6,0.3
			c0.1,0.3-0.1,0.5-0.3,0.6l-2.7,0.8C197.9,66.3,197.9,66.3,197.8,66.3z"/>
	</g>
	<g>
		<path class="st4" d="M39,66.3c0,0-0.1,0-0.1,0l-1-0.3c-0.3-0.1-0.4-0.4-0.3-0.6c0.1-0.3,0.3-0.4,0.6-0.3l0.1,0l-0.5-1.8
			c0-0.1,0-0.2,0-0.3l0.5-1.8l-1.8,0.5c-0.1,0-0.2,0-0.3,0l-1.8-0.5l0.5,1.8c0,0.1,0,0.2,0,0.3l-0.5,1.8l1.8-0.5
			c0.3-0.1,0.5,0.1,0.6,0.3c0.1,0.3-0.1,0.5-0.3,0.6l-2.7,0.8c-0.2,0-0.4,0-0.5-0.1C33,66,33,65.8,33.1,65.7l0.8-2.6l-0.8-2.6
			c-0.1-0.2,0-0.4,0.1-0.5c0.1-0.1,0.3-0.2,0.5-0.1l2.6,0.8l2.6-0.8c0.2-0.1,0.4,0,0.5,0.1s0.2,0.3,0.1,0.5l-0.8,2.6l0.8,2.6
			c0.1,0.2,0,0.4-0.1,0.5C39.2,66.2,39.1,66.3,39,66.3z"/>
	</g>
	<g>
		<g>
			<path class="st3" d="M207.5,28.3c-0.3,0-0.5-0.2-0.5-0.5v-2.4c0-0.3,0.2-0.5,0.5-0.5s0.5,0.2,0.5,0.5v2.4
				C208,28.1,207.8,28.3,207.5,28.3z"/>
		</g>
		<g>
			<path class="st3" d="M207.5,34.1c-0.3,0-0.5-0.2-0.5-0.5v-2.4c0-0.3,0.2-0.5,0.5-0.5s0.5,0.2,0.5,0.5v2.4
				C208,33.9,207.8,34.1,207.5,34.1z"/>
		</g>
		<g>
			<path class="st3" d="M211.6,30h-2.4c-0.3,0-0.5-0.2-0.5-0.5s0.2-0.5,0.5-0.5h2.4c0.3,0,0.5,0.2,0.5,0.5S211.9,30,211.6,30z"/>
		</g>
		<g>
			<path class="st3" d="M205.8,30h-2.4c-0.3,0-0.5-0.2-0.5-0.5s0.2-0.5,0.5-0.5h2.4c0.3,0,0.5,0.2,0.5,0.5S206,30,205.8,30z"/>
		</g>
	</g>
	<g>
		<g>
			<path class="st4" d="M118.4,61.9c-0.3,0-0.5-0.2-0.5-0.5v-2.4c0-0.3,0.2-0.5,0.5-0.5s0.5,0.2,0.5,0.5v2.4
				C118.9,61.6,118.7,61.9,118.4,61.9z"/>
		</g>
		<g>
			<path class="st4" d="M118.4,67.7c-0.3,0-0.5-0.2-0.5-0.5v-2.4c0-0.3,0.2-0.5,0.5-0.5s0.5,0.2,0.5,0.5v2.4
				C118.9,67.5,118.7,67.7,118.4,67.7z"/>
		</g>
		<g>
			<path class="st4" d="M122.5,63.6h-2.4c-0.3,0-0.5-0.2-0.5-0.5s0.2-0.5,0.5-0.5h2.4c0.3,0,0.5,0.2,0.5,0.5S122.8,63.6,122.5,63.6z
				"/>
		</g>
		<g>
			<path class="st4" d="M116.7,63.6h-2.4c-0.3,0-0.5-0.2-0.5-0.5s0.2-0.5,0.5-0.5h2.4c0.3,0,0.5,0.2,0.5,0.5S117,63.6,116.7,63.6z"
				/>
		</g>
	</g>
	<g>
		<g>
			<path class="st5" d="M86.2,18.7c-0.3,0-0.5-0.2-0.5-0.5v-2.4c0-0.3,0.2-0.5,0.5-0.5s0.5,0.2,0.5,0.5v2.4
				C86.7,18.5,86.5,18.7,86.2,18.7z"/>
		</g>
		<g>
			<path class="st5" d="M86.2,24.5c-0.3,0-0.5-0.2-0.5-0.5v-2.4c0-0.3,0.2-0.5,0.5-0.5s0.5,0.2,0.5,0.5V24
				C86.7,24.3,86.5,24.5,86.2,24.5z"/>
		</g>
		<g>
			<path class="st5" d="M90.4,20.4H88c-0.3,0-0.5-0.2-0.5-0.5s0.2-0.5,0.5-0.5h2.4c0.3,0,0.5,0.2,0.5,0.5S90.7,20.4,90.4,20.4z"/>
		</g>
		<g>
			<path class="st5" d="M84.5,20.4h-2.4c-0.3,0-0.5-0.2-0.5-0.5s0.2-0.5,0.5-0.5h2.4c0.3,0,0.5,0.2,0.5,0.5S84.8,20.4,84.5,20.4z"/>
		</g>
	</g>
</g>
</svg>
