<?xml version="1.0" encoding="utf-8"?>
<!-- Generator: Adobe Illustrator 22.1.0, SVG Export Plug-In . SVG Version: 6.00 Build 0)  -->
<svg version="1.1" id="Layer_1" xmlns="http://www.w3.org/2000/svg" xmlns:xlink="http://www.w3.org/1999/xlink" x="0px" y="0px"
	 viewBox="0 0 256 256" style="enable-background:new 0 0 256 256;" xml:space="preserve">
<style type="text/css">
	.st0{fill:#DBFDFF;}
	.st1{fill:#FFFFFF;}
	.st2{fill:#FFFFED;}
	.st3{fill:#48386A;}
	.st4{fill:#9FEAFF;}
	.st5{fill:#FEBE7F;}
	.st6{fill:#FF8584;}
</style>
<g>
	<path class="st0" d="M233,112.8c0-18.6-13.6-34-31.4-36.7c2.9-6.4,4.6-13.5,4.6-21c0-27.9-22.6-50.5-50.5-50.5
		c-13.9,0-26.5,5.6-35.6,14.7c-8.3-5.9-18.4-9.4-29.3-9.4c-27.9,0-50.5,22.6-50.5,50.5c0,8.5,2.1,16.5,5.8,23.5
		c-12,4.4-20.6,15.9-20.6,29.4c0,17.3,14,31.3,31.3,31.3c1.5,0,3-0.1,4.5-0.3c1.2,26.5,22.8,47.7,49.4,48.2
		c3.7,24.3,24.6,42.9,50,42.9c27.9,0,50.5-22.6,50.5-50.5c0-11.2-3.6-21.5-9.8-29.9c0.8-1.9,1.5-3.8,2.1-5.8
		C220.3,145.7,233,130.8,233,112.8z"/>
	<g>
		<path class="st1" d="M57.1,125.1h16.2c2.7,0,4.9,2.2,4.9,4.9c0,1.4-0.5,2.6-1.4,3.5c-0.9,0.9-2.1,1.4-3.5,1.4H8.7
			c-2.7,0-4.9-2.2-4.9-4.9c0-1.4,0.5-2.6,1.4-3.5c0.9-0.9,2.1-1.4,3.5-1.4h41.4H57.1z"/>
		<path class="st1" d="M176.3,130c0,1.4,0.5,2.6,1.4,3.5c0.9,0.9,2.1,1.4,3.5,1.4h64.6c2.7,0,4.9-2.2,4.9-4.9c0-1.4-0.5-2.6-1.4-3.5
			c-0.9-0.9-2.1-1.4-3.5-1.4h-64.6C178.5,125.1,176.3,127.3,176.3,130z"/>
		<g>
			<rect x="80.9" y="208.6" class="st2" width="79.6" height="14"/>
			<path class="st3" d="M160.6,223.6H80.9c-0.6,0-1-0.4-1-1v-14c0-0.6,0.4-1,1-1h79.6c0.6,0,1,0.4,1,1v14
				C161.6,223.2,161.1,223.6,160.6,223.6z M81.9,221.6h77.6v-12H81.9V221.6z"/>
		</g>
		<g>
			<polygon class="st2" points="85.8,236.7 67.1,236.7 67.1,222.6 174.4,222.6 174.4,236.7 92.5,236.7 			"/>
			<path class="st3" d="M174.4,237.7h-82c-0.6,0-1-0.4-1-1s0.4-1,1-1h81v-12H68.1v12h17.8c0.6,0,1,0.4,1,1s-0.4,1-1,1H67.1
				c-0.6,0-1-0.4-1-1v-14c0-0.6,0.4-1,1-1h107.4c0.6,0,1,0.4,1,1v14C175.4,237.2,175,237.7,174.4,237.7z"/>
		</g>
		<g>
			<polygon class="st1" points="132,123.2 132,194.6 109.5,194.6 109.5,62.9 132,62.9 132,107.6 			"/>
			<path class="st3" d="M132,195.6h-22.5c-0.6,0-1-0.4-1-1V62.9c0-0.6,0.4-1,1-1H132c0.6,0,1,0.4,1,1v44.7c0,0.6-0.4,1-1,1
				s-1-0.4-1-1V63.9h-20.5v129.7H131v-70.3c0-0.6,0.4-1,1-1s1,0.4,1,1v71.3C133,195.1,132.6,195.6,132,195.6z"/>
		</g>
		<g>
			<path class="st3" d="M132,117.9c-0.6,0-1-0.4-1-1v-2.9c0-0.6,0.4-1,1-1s1,0.4,1,1v2.9C133,117.4,132.6,117.9,132,117.9z"/>
		</g>
		<rect x="116.8" y="62.9" class="st4" width="12.7" height="132.2"/>
		<g>
			<path class="st1" d="M132,30.6v15.7h-22.5V30.6c0-6.2,5-11.3,11.3-11.3c3.1,0,5.9,1.3,8,3.3C130.7,24.7,132,27.5,132,30.6z"/>
			<path class="st3" d="M132,47.3h-22.5c-0.6,0-1-0.4-1-1V30.6c0-6.8,5.5-12.3,12.3-12.3c3.3,0,6.3,1.3,8.7,3.6
				c2.3,2.3,3.6,5.4,3.6,8.7v15.7C133,46.8,132.6,47.3,132,47.3z M110.5,45.3H131V30.6c0-2.7-1.1-5.3-3-7.3c-1.9-1.9-4.5-3-7.3-3
				c-5.7,0-10.3,4.6-10.3,10.3V45.3z"/>
		</g>
		<path class="st4" d="M129.6,30.6v15.7h-12.7V30.6c0-3.5,2.9-6.4,6.4-6.4S129.6,27.1,129.6,30.6z"/>
		<g>
			<path class="st3" d="M127.1,46.8h-12.7c-0.3,0-0.5-0.2-0.5-0.5V30.6c0-3.8,3.1-6.9,6.9-6.9c3.8,0,6.9,3.1,6.9,6.9v15.7
				C127.6,46.5,127.4,46.8,127.1,46.8z M114.9,45.8h11.7V30.6c0-3.2-2.6-5.9-5.9-5.9s-5.9,2.6-5.9,5.9V45.8z"/>
		</g>
		<g>
			<path class="st3" d="M127.1,195.6h-12.7c-0.3,0-0.5-0.2-0.5-0.5V62.9c0-0.3,0.2-0.5,0.5-0.5h12.7c0.3,0,0.5,0.2,0.5,0.5v132.2
				C127.6,195.3,127.4,195.6,127.1,195.6z M114.9,194.6h11.7V63.4h-11.7V194.6z"/>
		</g>
		<g>
			<path class="st1" d="M157.1,46.3h47.5c0.7,4.7,4.8,8.3,9.7,8.3s9-3.6,9.7-8.3h1.1c4.6,0,8.3,3.7,8.3,8.3c0,2.3-0.9,4.4-2.4,5.9
				c-1.5,1.5-3.6,2.4-5.9,2.4H30.2c-4.6,0-8.3-3.7-8.3-8.3c0-2.3,0.9-4.4,2.4-5.9c1.5-1.5,3.6-2.4,5.9-2.4h1.1
				c0.7,4.7,4.8,8.3,9.7,8.3s9-3.6,9.7-8.3h99.9H157.1z"/>
			<path class="st3" d="M225,63.9H30.2c-5.1,0-9.3-4.2-9.3-9.3c0-2.5,1-4.8,2.7-6.6s4.1-2.7,6.6-2.7h1.1c0.5,0,0.9,0.4,1,0.9
				c0.6,4.3,4.4,7.5,8.7,7.5s8-3.2,8.7-7.5c0.1-0.5,0.5-0.9,1-0.9h99.9c0.6,0,1,0.4,1,1s-0.4,1-1,1H51.5c-1.1,4.8-5.5,8.3-10.5,8.3
				s-9.4-3.5-10.5-8.3h-0.3c-2,0-3.8,0.8-5.2,2.1s-2.1,3.2-2.1,5.2c0,4,3.3,7.3,7.3,7.3H225c2,0,3.8-0.8,5.2-2.1
				c1.4-1.4,2.1-3.2,2.1-5.2c0-4-3.3-7.3-7.3-7.3h-0.3c-1.1,4.8-5.5,8.3-10.5,8.3s-9.4-3.5-10.5-8.3h-46.7c-0.6,0-1-0.4-1-1
				s0.4-1,1-1h47.5c0.5,0,0.9,0.4,1,0.9c0.6,4.3,4.4,7.5,8.7,7.5s8-3.2,8.7-7.5c0.1-0.5,0.5-0.9,1-0.9h1.1c5.1,0,9.3,4.2,9.3,9.3
				c0,2.5-1,4.8-2.7,6.6C229.8,62.9,227.5,63.9,225,63.9z"/>
		</g>
		<path class="st4" d="M209.9,58.5c-3-1.4-5.4-3.9-6.9-6.9h-75.6c0.7,1,1.1,2.1,1.1,3.4s-0.4,2.5-1.1,3.4H209.9z M83.7,58.5H118
			c-0.7-1-1.1-2.1-1.1-3.4s0.4-2.5,1.1-3.4H56.1c-1.4,3-3.9,5.4-6.9,6.9h25.6H83.7z"/>
		<path class="st5" d="M125.4,55.1c0,0.6-0.2,1.2-0.5,1.6c-0.5,0.7-1.3,1.1-2.2,1.1c-0.9,0-1.7-0.4-2.2-1.1c-0.3-0.5-0.5-1-0.5-1.6
			s0.2-1.2,0.5-1.6c0.5-0.7,1.3-1.1,2.2-1.1c0.9,0,1.7,0.4,2.2,1.1C125.3,53.9,125.4,54.5,125.4,55.1z"/>
		<g>
			<rect x="94.6" y="194.6" class="st2" width="52.2" height="14"/>
			<path class="st3" d="M146.9,209.6H94.6c-0.6,0-1-0.4-1-1v-14c0-0.6,0.4-1,1-1h52.2c0.6,0,1,0.4,1,1v14
				C147.9,209.2,147.4,209.6,146.9,209.6z M95.6,207.6h50.2v-12H95.6V207.6z"/>
		</g>
		<g>
			<path class="st3" d="M207.9,58.5h-82.5c-0.2,0-0.4-0.1-0.4-0.3c-0.1-0.2-0.1-0.4,0-0.5c0.7-0.9,1-2,1-3.1c0-1.1-0.4-2.2-1-3.1
				c-0.1-0.2-0.1-0.4,0-0.5c0.1-0.2,0.3-0.3,0.4-0.3H201c0.2,0,0.4,0.1,0.5,0.3c1.4,2.9,3.7,5.2,6.6,6.6c0.2,0.1,0.3,0.3,0.3,0.6
				C208.3,58.3,208.1,58.5,207.9,58.5z M126.3,57.5H206c-2.2-1.5-4.1-3.5-5.3-5.9h-74.4c0.5,0.9,0.7,1.9,0.7,2.9
				C127.1,55.6,126.8,56.6,126.3,57.5z M116.1,58.5H81.7c-0.3,0-0.5-0.2-0.5-0.5s0.2-0.5,0.5-0.5h33.5c-0.5-0.9-0.7-1.9-0.7-2.9
				c0-1,0.2-2,0.7-2.9H54.5c-1.2,2.4-3,4.4-5.3,5.9h23.7c0.3,0,0.5,0.2,0.5,0.5s-0.2,0.5-0.5,0.5H47.3c-0.2,0-0.4-0.2-0.5-0.4
				c-0.1-0.2,0.1-0.5,0.3-0.6c2.9-1.4,5.2-3.7,6.6-6.6c0.1-0.2,0.3-0.3,0.5-0.3h61.9c0.2,0,0.4,0.1,0.4,0.3c0.1,0.2,0.1,0.4,0,0.5
				c-0.7,0.9-1,2-1,3.1c0,1.1,0.4,2.2,1,3.1c0.1,0.2,0.1,0.4,0,0.5C116.4,58.4,116.3,58.5,116.1,58.5z"/>
		</g>
		<path class="st6" d="M60,125.1h16.2c2.7,0,4.9,2.2,4.9,4.9c0,1.4-0.5,2.6-1.4,3.5c-0.9,0.9-2.1,1.4-3.5,1.4H11.6
			c-2.7,0-4.9-2.2-4.9-4.9c0-1.4,0.5-2.6,1.4-3.5c0.9-0.9,2.1-1.4,3.5-1.4H53H60z"/>
		<path class="st6" d="M179.2,130c0,1.4,0.5,2.6,1.4,3.5c0.9,0.9,2.1,1.4,3.5,1.4h64.6c2.7,0,4.9-2.2,4.9-4.9c0-1.4-0.5-2.6-1.4-3.5
			c-0.9-0.9-2.1-1.4-3.5-1.4h-64.6C181.4,125.1,179.2,127.3,179.2,130z"/>
		<g>
			<path class="st3" d="M73.3,135.9H8.7c-3.3,0-5.9-2.6-5.9-5.9c0-1.6,0.6-3,1.7-4.2c1.1-1.1,2.6-1.7,4.2-1.7h41.4c0.6,0,1,0.4,1,1
				s-0.4,1-1,1H8.7c-1,0-2,0.4-2.8,1.1c-0.7,0.7-1.1,1.7-1.1,2.8c0,2.1,1.7,3.9,3.9,3.9h64.6c1,0,2-0.4,2.8-1.1
				c0.7-0.7,1.1-1.7,1.1-2.8c0-2.1-1.7-3.9-3.9-3.9H57.1c-0.6,0-1-0.4-1-1s0.4-1,1-1h16.2c3.3,0,5.9,2.6,5.9,5.9
				c0,1.6-0.6,3-1.7,4.2C76.3,135.2,74.8,135.9,73.3,135.9z"/>
		</g>
		<g>
			<path class="st3" d="M9.6,126.1c-0.1,0-0.3,0-0.4-0.1c-0.5-0.2-0.7-0.8-0.5-1.3l31.3-70.5c0.2-0.5,0.8-0.7,1.3-0.5
				c0.5,0.2,0.7,0.8,0.5,1.3l-31.3,70.5C10.4,125.8,10,126.1,9.6,126.1z"/>
		</g>
		<g>
			<path class="st3" d="M71.3,126.1c-0.4,0-0.8-0.2-0.9-0.6L43.1,63.3c-0.2-0.5,0-1.1,0.5-1.3c0.5-0.2,1.1,0,1.3,0.5l27.3,62.2
				c0.2,0.5,0,1.1-0.5,1.3C71.6,126,71.5,126.1,71.3,126.1z"/>
		</g>
		<g>
			<path class="st2" d="M20.9,155.3c-6.2-5-10.6-12.2-11.9-20.4h63.9c-2.3,15.5-15.8,27.4-31.9,27.4c-5.7,0-11-1.5-15.7-4
				L20.9,155.3z"/>
			<path class="st3" d="M41,163.3c-5.7,0-11.2-1.4-16.1-4.2c-0.5-0.3-0.7-0.9-0.4-1.4c0.3-0.5,0.9-0.7,1.4-0.4
				c4.6,2.6,9.9,3.9,15.2,3.9c15,0,28-10.8,30.7-25.4H10.2c1.4,7.3,5.4,13.9,11.3,18.6c0.4,0.3,0.5,1,0.2,1.4
				c-0.3,0.4-1,0.5-1.4,0.2c-6.6-5.3-11-12.7-12.2-21c0-0.3,0-0.6,0.2-0.8c0.2-0.2,0.5-0.3,0.8-0.3h63.9c0.3,0,0.6,0.1,0.8,0.3
				c0.2,0.2,0.3,0.5,0.2,0.8C71.5,151.1,57.3,163.3,41,163.3z"/>
		</g>
		<g>
			<path class="st3" d="M41,157.9c-11.5,0-21.9-7.2-26.1-17.9c-0.1-0.3,0-0.5,0.3-0.6c0.3-0.1,0.5,0,0.6,0.3
				c4,10.3,14.1,17.3,25.1,17.3s21.2-7,25.1-17.3c0.1-0.3,0.4-0.4,0.6-0.3c0.3,0.1,0.4,0.4,0.3,0.6C62.9,150.7,52.4,157.9,41,157.9z
				"/>
		</g>
		<g>
			<path class="st3" d="M245.8,135.9h-64.6c-1.6,0-3-0.6-4.2-1.7c-1.1-1.1-1.7-2.6-1.7-4.2c0-3.3,2.6-5.9,5.9-5.9h64.6
				c1.6,0,3,0.6,4.2,1.7c1.1,1.1,1.7,2.6,1.7,4.2C251.7,133.2,249.1,135.9,245.8,135.9z M181.2,126.1c-2.1,0-3.9,1.7-3.9,3.9
				c0,1,0.4,2,1.1,2.8c0.7,0.7,1.7,1.1,2.8,1.1h64.6c2.1,0,3.9-1.7,3.9-3.9c0-1-0.4-2-1.1-2.8c-0.7-0.7-1.7-1.1-2.8-1.1H181.2z"/>
		</g>
		<g>
			<path class="st3" d="M244.8,126.1c-0.4,0-0.7-0.2-0.9-0.6L212.6,55c-0.2-0.5,0-1.1,0.5-1.3c0.5-0.2,1.1,0,1.3,0.5l31.3,70.5
				c0.2,0.5,0,1.1-0.5,1.3C245.1,126,245,126.1,244.8,126.1z"/>
		</g>
		<g>
			<path class="st3" d="M183.2,126.1c-0.1,0-0.3,0-0.4-0.1c-0.5-0.2-0.7-0.8-0.5-1.3l27.3-62.2c0.2-0.5,0.8-0.7,1.3-0.5
				c0.5,0.2,0.7,0.8,0.5,1.3l-27.3,62.2C183.9,125.8,183.5,126.1,183.2,126.1z"/>
		</g>
		<g>
			<path class="st2" d="M181.6,134.9c2.3,15.5,15.8,27.4,31.9,27.4s29.6-11.9,31.9-27.4H181.6z"/>
			<path class="st3" d="M213.5,163.3c-16.3,0-30.5-12.1-32.9-28.3c0-0.3,0-0.6,0.2-0.8c0.2-0.2,0.5-0.3,0.8-0.3h63.9
				c0.3,0,0.6,0.1,0.8,0.3c0.2,0.2,0.3,0.5,0.2,0.8C244,151.1,229.8,163.3,213.5,163.3z M182.8,135.9c2.8,14.6,15.8,25.4,30.7,25.4
				s28-10.8,30.7-25.4H182.8z"/>
		</g>
		<g>
			<path class="st3" d="M213.5,157.9c-11.5,0-21.9-7.2-26.1-17.9c-0.1-0.3,0-0.5,0.3-0.6c0.3-0.1,0.5,0,0.6,0.3
				c4,10.3,14.1,17.3,25.1,17.3s21.2-7,25.1-17.3c0.1-0.3,0.4-0.4,0.6-0.3c0.3,0.1,0.4,0.4,0.3,0.6
				C235.4,150.7,225,157.9,213.5,157.9z"/>
		</g>
		<g>
			<path class="st3" d="M78.2,130.5H3.8c-0.3,0-0.5-0.2-0.5-0.5s0.2-0.5,0.5-0.5h74.4c0.3,0,0.5,0.2,0.5,0.5S78.4,130.5,78.2,130.5z
				"/>
		</g>
		<g>
			<path class="st3" d="M250.7,130.5h-41.4c-0.3,0-0.5-0.2-0.5-0.5s0.2-0.5,0.5-0.5h41.4c0.3,0,0.5,0.2,0.5,0.5
				S251,130.5,250.7,130.5z"/>
		</g>
		<g>
			<path class="st3" d="M202.1,130.5h-25.8c-0.3,0-0.5-0.2-0.5-0.5s0.2-0.5,0.5-0.5h25.8c0.3,0,0.5,0.2,0.5,0.5
				S202.4,130.5,202.1,130.5z"/>
		</g>
		
			<rect x="121.1" y="182.8" transform="matrix(-1.836970e-16 1 -1 -1.836970e-16 329.6834 78.3847)" class="st5" width="9.1" height="42.4"/>
		<polygon class="st5" points="111,213.5 160.6,213.5 160.6,222.6 90.7,222.6 90.7,213.5 103.2,213.5 		"/>
		<polygon class="st5" points="90,236.7 76.9,236.7 76.9,227.5 174.4,227.5 174.4,236.7 98.8,236.7 		"/>
		<g>
			<path class="st3" d="M142,209.1H99.5c-0.3,0-0.5-0.2-0.5-0.5v-9.1c0-0.3,0.2-0.5,0.5-0.5H142c0.3,0,0.5,0.2,0.5,0.5v9.1
				C142.5,208.9,142.2,209.1,142,209.1z M100,208.1h41.4V200H100V208.1z"/>
		</g>
		<g>
			<path class="st3" d="M155.7,223.1H85.8c-0.3,0-0.5-0.2-0.5-0.5v-9.1c0-0.3,0.2-0.5,0.5-0.5h12.5c0.3,0,0.5,0.2,0.5,0.5
				s-0.2,0.5-0.5,0.5h-12v8.1h68.8V214h-49.1c-0.3,0-0.5-0.2-0.5-0.5s0.2-0.5,0.5-0.5h49.6c0.3,0,0.5,0.2,0.5,0.5v9.1
				C156.2,222.9,155.9,223.1,155.7,223.1z"/>
		</g>
		<g>
			<path class="st3" d="M169.5,237.2H93.9c-0.3,0-0.5-0.2-0.5-0.5s0.2-0.5,0.5-0.5H169V228H72.5v8.1h12.7c0.3,0,0.5,0.2,0.5,0.5
				s-0.2,0.5-0.5,0.5H72c-0.3,0-0.5-0.2-0.5-0.5v-9.1c0-0.3,0.2-0.5,0.5-0.5h97.6c0.3,0,0.5,0.2,0.5,0.5v9.1
				C170,236.9,169.8,237.2,169.5,237.2z"/>
		</g>
		<g>
			<path class="st3" d="M120.8,60.9c-2,0-3.9-1-5.1-2.6c-0.8-1.1-1.2-2.4-1.2-3.7c0-1.4,0.4-2.6,1.2-3.7c1.2-1.6,3.1-2.6,5.1-2.6
				s3.9,1,5.1,2.6c0.8,1.1,1.2,2.4,1.2,3.7c0,1.4-0.4,2.6-1.2,3.7C124.7,59.9,122.8,60.9,120.8,60.9z M120.8,49.3
				c-1.7,0-3.3,0.8-4.3,2.2c-0.7,0.9-1,2-1,3.1c0,1.1,0.4,2.2,1,3.1c1,1.4,2.6,2.2,4.3,2.2s3.3-0.8,4.3-2.2c0.7-0.9,1-2,1-3.1
				c0-1.1-0.4-2.2-1-3.1C124.1,50.1,122.5,49.3,120.8,49.3z"/>
		</g>
		<g>
			<path class="st3" d="M120.8,57.8c-1,0-2-0.5-2.6-1.3c-0.4-0.5-0.6-1.2-0.6-1.9c0-0.7,0.2-1.4,0.6-1.9c0.6-0.8,1.6-1.3,2.6-1.3
				c1,0,2,0.5,2.6,1.3c0.4,0.5,0.6,1.2,0.6,1.9c0,0.7-0.2,1.4-0.6,1.9C122.8,57.3,121.8,57.8,120.8,57.8z M120.8,52.3
				c-0.7,0-1.4,0.3-1.8,0.9c-0.3,0.4-0.4,0.8-0.4,1.3c0,0.5,0.1,0.9,0.4,1.3c0.4,0.6,1.1,0.9,1.8,0.9c0.7,0,1.4-0.3,1.8-0.9
				c0.3-0.4,0.4-0.8,0.4-1.3c0-0.5-0.1-0.9-0.4-1.3C122.1,52.7,121.5,52.3,120.8,52.3z"/>
		</g>
		<g>
			<path class="st3" d="M160.6,223.6H80.9c-0.6,0-1-0.4-1-1v-14c0-0.6,0.4-1,1-1h79.6c0.6,0,1,0.4,1,1v14
				C161.6,223.2,161.1,223.6,160.6,223.6z M81.9,221.6h77.6v-12H81.9V221.6z"/>
		</g>
		<g>
			<path class="st3" d="M174.4,237.7h-82c-0.6,0-1-0.4-1-1s0.4-1,1-1h81v-12H68.1v12h17.8c0.6,0,1,0.4,1,1s-0.4,1-1,1H67.1
				c-0.6,0-1-0.4-1-1v-14c0-0.6,0.4-1,1-1h107.4c0.6,0,1,0.4,1,1v14C175.4,237.2,175,237.7,174.4,237.7z"/>
		</g>
		<g>
			<path class="st3" d="M146.9,209.6H94.6c-0.6,0-1-0.4-1-1v-14c0-0.6,0.4-1,1-1h52.2c0.6,0,1,0.4,1,1v14
				C147.9,209.2,147.4,209.6,146.9,209.6z M95.6,207.6h50.2v-12H95.6V207.6z"/>
		</g>
	</g>
	<g>
		<path class="st3" d="M146.9,29.5c-1.6,0-3-1.3-3-3s1.3-3,3-3s3,1.3,3,3S148.5,29.5,146.9,29.5z M146.9,24.6c-1.1,0-2,0.9-2,2
			s0.9,2,2,2s2-0.9,2-2S148,24.6,146.9,24.6z"/>
	</g>
	<g>
		<path class="st6" d="M166.7,198c-1.6,0-3-1.3-3-3s1.3-3,3-3s3,1.3,3,3S168.3,198,166.7,198z M166.7,193.1c-1.1,0-2,0.9-2,2
			s0.9,2,2,2c1.1,0,2-0.9,2-2S167.8,193.1,166.7,193.1z"/>
	</g>
	<g>
		<path class="st3" d="M97.4,164.6c0,0-0.1,0-0.1,0l-1-0.3c-0.3-0.1-0.4-0.4-0.3-0.6c0.1-0.3,0.4-0.4,0.6-0.3l0.1,0l-0.5-1.8
			c0-0.1,0-0.2,0-0.3l0.5-1.8l-1.8,0.5c-0.1,0-0.2,0-0.3,0l-1.8-0.5l0.5,1.8c0,0.1,0,0.2,0,0.3l-0.5,1.8l1.8-0.5
			c0.3-0.1,0.5,0.1,0.6,0.3c0.1,0.3-0.1,0.5-0.3,0.6l-2.7,0.8c-0.2,0-0.4,0-0.5-0.1c-0.1-0.1-0.2-0.3-0.1-0.5l0.8-2.6l-0.8-2.6
			c-0.1-0.2,0-0.4,0.1-0.5s0.3-0.2,0.5-0.1l2.6,0.8l2.6-0.8c0.2-0.1,0.4,0,0.5,0.1s0.2,0.3,0.1,0.5l-0.8,2.6l0.8,2.6
			c0.1,0.2,0,0.4-0.1,0.5C97.6,164.5,97.5,164.6,97.4,164.6z"/>
	</g>
	<g>
		<path class="st5" d="M153,118.6c-0.1,0-0.3-0.1-0.4-0.1c-0.1-0.1-0.2-0.3-0.1-0.5l0.8-2.6l-0.8-2.6c-0.1-0.2,0-0.4,0.1-0.5
			c0.1-0.1,0.3-0.2,0.5-0.1l2.6,0.8l2.6-0.8c0.2-0.1,0.4,0,0.5,0.1s0.2,0.3,0.1,0.5l-0.8,2.6l0.8,2.6c0.1,0.2,0,0.4-0.1,0.5
			s-0.3,0.2-0.5,0.1l-1-0.3c-0.3-0.1-0.4-0.4-0.3-0.6c0.1-0.3,0.4-0.4,0.6-0.3l0.1,0l-0.5-1.8c0-0.1,0-0.2,0-0.3l0.5-1.8l-1.8,0.5
			c-0.1,0-0.2,0-0.3,0l-1.8-0.5l0.5,1.8c0,0.1,0,0.2,0,0.3l-0.5,1.8l1.8-0.5c0.3-0.1,0.5,0.1,0.6,0.3c0.1,0.3-0.1,0.5-0.3,0.6
			l-2.7,0.8C153.1,118.6,153,118.6,153,118.6z"/>
	</g>
	<g>
		<g>
			<path class="st6" d="M81.7,28.3c-0.3,0-0.5-0.2-0.5-0.5v-2.4c0-0.3,0.2-0.5,0.5-0.5s0.5,0.2,0.5,0.5v2.4
				C82.2,28.1,82,28.3,81.7,28.3z"/>
		</g>
		<g>
			<path class="st6" d="M81.7,34.1c-0.3,0-0.5-0.2-0.5-0.5v-2.4c0-0.3,0.2-0.5,0.5-0.5s0.5,0.2,0.5,0.5v2.4
				C82.2,33.9,82,34.1,81.7,34.1z"/>
		</g>
		<g>
			<path class="st6" d="M85.8,30h-2.4c-0.3,0-0.5-0.2-0.5-0.5s0.2-0.5,0.5-0.5h2.4c0.3,0,0.5,0.2,0.5,0.5S86.1,30,85.8,30z"/>
		</g>
		<g>
			<path class="st6" d="M80,30h-2.4c-0.3,0-0.5-0.2-0.5-0.5s0.2-0.5,0.5-0.5H80c0.3,0,0.5,0.2,0.5,0.5S80.3,30,80,30z"/>
		</g>
	</g>
	<g>
		<g>
			<path class="st5" d="M41,106.4c-0.3,0-0.5-0.2-0.5-0.5v-2.4c0-0.3,0.2-0.5,0.5-0.5s0.5,0.2,0.5,0.5v2.4
				C41.5,106.2,41.2,106.4,41,106.4z"/>
		</g>
		<g>
			<path class="st5" d="M41,112.2c-0.3,0-0.5-0.2-0.5-0.5v-2.4c0-0.3,0.2-0.5,0.5-0.5s0.5,0.2,0.5,0.5v2.4
				C41.5,112,41.2,112.2,41,112.2z"/>
		</g>
		<g>
			<path class="st5" d="M45.1,108.1h-2.4c-0.3,0-0.5-0.2-0.5-0.5s0.2-0.5,0.5-0.5h2.4c0.3,0,0.5,0.2,0.5,0.5S45.4,108.1,45.1,108.1z
				"/>
		</g>
		<g>
			<path class="st5" d="M39.3,108.1h-2.4c-0.3,0-0.5-0.2-0.5-0.5s0.2-0.5,0.5-0.5h2.4c0.3,0,0.5,0.2,0.5,0.5S39.5,108.1,39.3,108.1z
				"/>
		</g>
	</g>
	<g>
		<g>
			<path class="st4" d="M207.9,102.2c-0.3,0-0.5-0.2-0.5-0.5v-2.4c0-0.3,0.2-0.5,0.5-0.5s0.5,0.2,0.5,0.5v2.4
				C208.4,102,208.2,102.2,207.9,102.2z"/>
		</g>
		<g>
			<path class="st4" d="M207.9,108.1c-0.3,0-0.5-0.2-0.5-0.5v-2.4c0-0.3,0.2-0.5,0.5-0.5s0.5,0.2,0.5,0.5v2.4
				C208.4,107.9,208.2,108.1,207.9,108.1z"/>
		</g>
		<g>
			<path class="st4" d="M212,104h-2.4c-0.3,0-0.5-0.2-0.5-0.5s0.2-0.5,0.5-0.5h2.4c0.3,0,0.5,0.2,0.5,0.5S212.3,104,212,104z"/>
		</g>
		<g>
			<path class="st4" d="M206.2,104h-2.4c-0.3,0-0.5-0.2-0.5-0.5s0.2-0.5,0.5-0.5h2.4c0.3,0,0.5,0.2,0.5,0.5S206.5,104,206.2,104z"/>
		</g>
	</g>
</g>
</svg>
