<?xml version="1.0" encoding="utf-8"?>
<!-- Generator: Adobe Illustrator 22.1.0, SVG Export Plug-In . SVG Version: 6.00 Build 0)  -->
<svg version="1.1" id="Layer_1" xmlns="http://www.w3.org/2000/svg" xmlns:xlink="http://www.w3.org/1999/xlink" x="0px" y="0px"
	 viewBox="0 0 256 256" style="enable-background:new 0 0 256 256;" xml:space="preserve">
<style type="text/css">
	.st0{fill:#DBFDFF;}
	.st1{fill:#FFFFFF;}
	.st2{fill:#48386A;}
	.st3{fill:#9FEAFF;}
	.st4{fill:#FFFFED;}
	.st5{fill:#FF8584;}
	.st6{fill:#FEBE7F;}
</style>
<g>
	<path class="st0" d="M194.7,126.4c-14.8,0-28,6.3-37.3,16.4c-7.2-3.9-15.4-6.2-24.2-6.2c-10.4,0-20.1,3.2-28.2,8.6
		c-8-17.4-25.5-29.4-45.9-29.4c-27.9,0-50.5,22.6-50.5,50.5c0,27.9,22.6,50.5,50.5,50.5c10.4,0,20.1-3.2,28.2-8.6
		c8,17.4,25.5,29.4,45.9,29.4c14.8,0,28-6.3,37.3-16.4c7.2,3.9,15.4,6.2,24.2,6.2c27.9,0,50.5-22.6,50.5-50.5
		S222.6,126.4,194.7,126.4z"/>
	<g>
		<g>
			<polygon class="st1" points="178.4,250.7 192.1,250.7 170.4,201.2 156.7,201.2 			"/>
			<path class="st2" d="M192.1,251.7h-13.8c-0.4,0-0.8-0.2-0.9-0.6l-21.7-49.5c-0.1-0.3-0.1-0.7,0.1-0.9s0.5-0.5,0.8-0.5h13.8
				c0.4,0,0.8,0.2,0.9,0.6l21.7,49.5c0.1,0.3,0.1,0.7-0.1,0.9S192.5,251.7,192.1,251.7z M179,249.7h11.6l-20.8-47.5h-11.6L179,249.7
				z"/>
		</g>
		<polygon class="st3" points="166.1,5.3 216,5.3 216,20.9 49.4,20.9 49.4,5.3 150.4,5.3 		"/>
		<polygon class="st1" points="188.8,201.2 47.2,201.2 47.2,185.6 213.8,185.6 213.8,201.2 196.2,201.2 		"/>
		<polygon class="st3" points="192.8,201.2 51.2,201.2 51.2,185.6 217.8,185.6 217.8,201.2 200.2,201.2 		"/>
		<g>
			<rect x="6.6" y="20.9" class="st1" width="244.3" height="164.6"/>
			<path class="st2" d="M250.8,186.6H6.6c-0.6,0-1-0.4-1-1V20.9c0-0.6,0.4-1,1-1h244.3c0.6,0,1,0.4,1,1v164.6
				C251.8,186.1,251.4,186.6,250.8,186.6z M7.6,184.6h242.3V21.9H7.6V184.6z"/>
		</g>
		<g>
			<polygon class="st4" points="68.1,180.1 12,180.1 12,26.4 245.4,26.4 245.4,180.1 76.6,180.1 			"/>
			<path class="st2" d="M245.4,180.6H76.6c-0.3,0-0.5-0.2-0.5-0.5s0.2-0.5,0.5-0.5h168.3V26.9H12.5v152.8h55.6
				c0.3,0,0.5,0.2,0.5,0.5s-0.2,0.5-0.5,0.5H12c-0.3,0-0.5-0.2-0.5-0.5V26.4c0-0.3,0.2-0.5,0.5-0.5h233.4c0.3,0,0.5,0.2,0.5,0.5
				v153.8C245.9,180.4,245.7,180.6,245.4,180.6z"/>
		</g>
		
			<rect x="20.4" y="113.7" transform="matrix(-1.836970e-16 1 -1 -1.836970e-16 172.8061 67.1648)" class="st5" width="64.9" height="12.6"/>
		
			<rect x="36.4" y="92.6" transform="matrix(-1.836970e-16 1 -1 -1.836970e-16 188.777 9.0344)" class="st3" width="107" height="12.6"/>
		<polygon class="st6" points="120.6,77.8 120.6,66.1 133.2,66.1 133.2,152.4 120.6,152.4 120.6,90.7 		"/>
		
			<rect x="115.7" y="97.8" transform="matrix(-1.836970e-16 1 -1 -1.836970e-16 268.0851 -59.8598)" class="st3" width="96.6" height="12.6"/>
		<polygon class="st6" points="194.7,125.4 194.7,68.9 207.3,68.9 207.3,152.4 194.7,152.4 194.7,131.4 		"/>
		<g>
			<path class="st2" d="M212,21.9H45.4c-0.6,0-1-0.4-1-1V5.3c0-0.6,0.4-1,1-1h101.1c0.6,0,1,0.4,1,1s-0.4,1-1,1H46.4v13.6H211V6.3
				h-48.9c-0.6,0-1-0.4-1-1s0.4-1,1-1H212c0.6,0,1,0.4,1,1v15.6C213,21.5,212.6,21.9,212,21.9z"/>
		</g>
		<g>
			<path class="st2" d="M157.8,6.3h-3c-0.6,0-1-0.4-1-1s0.4-1,1-1h3c0.6,0,1,0.4,1,1S158.4,6.3,157.8,6.3z"/>
		</g>
		<g>
			<path class="st2" d="M213.8,202.2h-17.6c-0.6,0-1-0.4-1-1s0.4-1,1-1h16.6v-13.6H48.2v13.6h140.6c0.6,0,1,0.4,1,1s-0.4,1-1,1H47.2
				c-0.6,0-1-0.4-1-1v-15.6c0-0.6,0.4-1,1-1h166.6c0.6,0,1,0.4,1,1v15.6C214.8,201.7,214.4,202.2,213.8,202.2z"/>
		</g>
		<g>
			<path class="st2" d="M212,13.6H45.4c-0.3,0-0.5-0.2-0.5-0.5s0.2-0.5,0.5-0.5H212c0.3,0,0.5,0.2,0.5,0.5S212.3,13.6,212,13.6z"/>
		</g>
		<g>
			<path class="st2" d="M213.8,193.9H47.2c-0.3,0-0.5-0.2-0.5-0.5s0.2-0.5,0.5-0.5h166.6c0.3,0,0.5,0.2,0.5,0.5
				S214.1,193.9,213.8,193.9z"/>
		</g>
		<g>
			<polygon class="st1" points="88,238.5 82.7,250.7 68.9,250.7 90.6,201.2 104.4,201.2 91.2,231.2 			"/>
			<path class="st2" d="M82.7,251.7H68.9c-0.3,0-0.7-0.2-0.8-0.5s-0.2-0.6-0.1-0.9l21.7-49.5c0.2-0.4,0.5-0.6,0.9-0.6h13.7
				c0.3,0,0.7,0.2,0.8,0.5s0.2,0.6,0.1,0.9l-13.2,30.1c-0.2,0.5-0.8,0.7-1.3,0.5c-0.5-0.2-0.7-0.8-0.5-1.3l12.6-28.7H91.3
				l-20.8,47.5H82l5.1-11.5c0.2-0.5,0.8-0.7,1.3-0.5c0.5,0.2,0.7,0.8,0.5,1.3l-5.3,12.1C83.4,251.4,83,251.7,82.7,251.7z"/>
		</g>
		<g>
			<path class="st2" d="M75.8,251.2c-0.1,0-0.1,0-0.2,0c-0.3-0.1-0.4-0.4-0.3-0.7L97,201c0.1-0.3,0.4-0.4,0.7-0.3
				c0.3,0.1,0.4,0.4,0.3,0.7l-21.7,49.5C76.2,251.1,76,251.2,75.8,251.2z"/>
		</g>
		<g>
			<path class="st2" d="M185.2,251.2c-0.2,0-0.4-0.1-0.5-0.3l-21.7-49.5c-0.1-0.3,0-0.5,0.3-0.7c0.3-0.1,0.5,0,0.7,0.3l21.7,49.5
				c0.1,0.3,0,0.5-0.3,0.7C185.4,251.2,185.3,251.2,185.2,251.2z"/>
		</g>
		<g>
			<g>
				<path class="st2" d="M26.1,170.3c-0.6,0-1-0.4-1-1V42.4c0-0.6,0.4-1,1-1s1,0.4,1,1v126.9C27.1,169.8,26.7,170.3,26.1,170.3z"/>
			</g>
			<g>
				<polygon class="st2" points="32.5,54.2 30.6,54.9 26.1,42.6 21.6,54.9 19.8,54.2 26.1,36.7 				"/>
			</g>
		</g>
		<g>
			<g>
				<path class="st2" d="M228.7,170.3H26.1c-0.6,0-1-0.4-1-1s0.4-1,1-1h202.6c0.6,0,1,0.4,1,1S229.3,170.3,228.7,170.3z"/>
			</g>
			<g>
				<polygon class="st2" points="216.9,175.6 216.2,173.8 228.5,169.3 216.2,164.8 216.9,162.9 234.4,169.3 				"/>
			</g>
		</g>
		<g>
			<path class="st2" d="M59.9,158.8H37.8c-0.6,0-1-0.4-1-1V82.1c0-0.6,0.4-1,1-1h22.1c0.6,0,1,0.4,1,1v27.7c0,0.6-0.4,1-1,1
				s-1-0.4-1-1V83.1H38.8v73.7h20.1V118c0-0.6,0.4-1,1-1s1,0.4,1,1v39.9C60.9,158.4,60.4,158.8,59.9,158.8z"/>
		</g>
		<g>
			<path class="st2" d="M55.1,152.9H42.5c-0.3,0-0.5-0.2-0.5-0.5V87.6c0-0.3,0.2-0.5,0.5-0.5h12.6c0.3,0,0.5,0.2,0.5,0.5v64.9
				C55.6,152.7,55.4,152.9,55.1,152.9z M43,151.9h11.6V88.1H43V151.9z"/>
		</g>
		<g>
			<path class="st2" d="M96.9,158.8H74.8c-0.6,0-1-0.4-1-1V36.7c0-0.6,0.4-1,1-1h22.1c0.6,0,1,0.4,1,1v121.1
				C97.9,158.4,97.5,158.8,96.9,158.8z M75.8,156.8h20.1V37.7H75.8V156.8z"/>
		</g>
		<g>
			<path class="st2" d="M92.2,152.9H79.6c-0.3,0-0.5-0.2-0.5-0.5v-107c0-0.3,0.2-0.5,0.5-0.5h12.6c0.3,0,0.5,0.2,0.5,0.5v107
				C92.7,152.7,92.5,152.9,92.2,152.9z M80.1,151.9h11.6v-106H80.1V151.9z"/>
		</g>
		<g>
			<path class="st2" d="M134,158.8h-22.1c-0.6,0-1-0.4-1-1V59.1c0-0.6,0.4-1,1-1H134c0.6,0,1,0.4,1,1v98.8
				C135,158.4,134.5,158.8,134,158.8z M112.9,156.8H133V60.1h-20.1V156.8z"/>
		</g>
		<g>
			<path class="st2" d="M116.6,87.9c-0.3,0-0.5-0.2-0.5-0.5v-3.3c0-0.3,0.2-0.5,0.5-0.5s0.5,0.2,0.5,0.5v3.3
				C117.1,87.7,116.9,87.9,116.6,87.9z"/>
		</g>
		<g>
			<path class="st2" d="M129.2,152.9h-12.6c-0.3,0-0.5-0.2-0.5-0.5V90.7c0-0.3,0.2-0.5,0.5-0.5s0.5,0.2,0.5,0.5v61.2h11.6V66.6
				h-11.6v11.2c0,0.3-0.2,0.5-0.5,0.5s-0.5-0.2-0.5-0.5V66.1c0-0.3,0.2-0.5,0.5-0.5h12.6c0.3,0,0.5,0.2,0.5,0.5v86.3
				C129.7,152.7,129.5,152.9,129.2,152.9z"/>
		</g>
		<g>
			<path class="st2" d="M171,158.8h-22.1c-0.6,0-1-0.4-1-1V47.9c0-0.6,0.4-1,1-1H171c0.6,0,1,0.4,1,1v109.9
				C172,158.4,171.6,158.8,171,158.8z M149.9,156.8H170V48.9h-20.1V156.8z"/>
		</g>
		<g>
			<path class="st2" d="M166.3,152.9h-12.6c-0.3,0-0.5-0.2-0.5-0.5V55.8c0-0.3,0.2-0.5,0.5-0.5h12.6c0.3,0,0.5,0.2,0.5,0.5v96.6
				C166.8,152.7,166.6,152.9,166.3,152.9z M154.2,151.9h11.6V56.3h-11.6V151.9z"/>
		</g>
		<g>
			<path class="st2" d="M208.1,158.8H186c-0.6,0-1-0.4-1-1V62c0-0.6,0.4-1,1-1h22.1c0.6,0,1,0.4,1,1v95.8
				C209.1,158.4,208.6,158.8,208.1,158.8z M187,156.8h20.1V63H187V156.8z"/>
		</g>
		<g>
			<path class="st2" d="M203.3,152.9h-12.6c-0.3,0-0.5-0.2-0.5-0.5v-21c0-0.3,0.2-0.5,0.5-0.5s0.5,0.2,0.5,0.5v20.5h11.6V69.4h-11.6
				v56c0,0.3-0.2,0.5-0.5,0.5s-0.5-0.2-0.5-0.5V68.9c0-0.3,0.2-0.5,0.5-0.5h12.6c0.3,0,0.5,0.2,0.5,0.5v83.5
				C203.8,152.7,203.6,152.9,203.3,152.9z"/>
		</g>
	</g>
	<g>
		<path class="st2" d="M190.7,218.5c-1.6,0-3-1.3-3-3s1.3-3,3-3s3,1.3,3,3S192.3,218.5,190.7,218.5z M190.7,213.5c-1.1,0-2,0.9-2,2
			s0.9,2,2,2c1.1,0,2-0.9,2-2S191.8,213.5,190.7,213.5z"/>
	</g>
	<g>
		<path class="st5" d="M228.9,201.7c-1.6,0-3-1.3-3-3s1.3-3,3-3s3,1.3,3,3S230.6,201.7,228.9,201.7z M228.9,196.7c-1.1,0-2,0.9-2,2
			s0.9,2,2,2c1.1,0,2-0.9,2-2S230,196.7,228.9,196.7z"/>
	</g>
	<g>
		<path class="st2" d="M31.5,204.4c0,0-0.1,0-0.1,0l-1-0.3c-0.3-0.1-0.4-0.4-0.3-0.6c0.1-0.3,0.4-0.4,0.6-0.3l0.1,0l-0.5-1.8
			c0-0.1,0-0.2,0-0.3l0.5-1.8l-1.8,0.5c-0.1,0-0.2,0-0.3,0l-1.8-0.5l0.5,1.8c0,0.1,0,0.2,0,0.3l-0.5,1.8l1.8-0.5
			c0.3-0.1,0.5,0.1,0.6,0.3c0.1,0.3-0.1,0.5-0.3,0.6l-2.7,0.8c-0.2,0-0.4,0-0.5-0.1c-0.1-0.1-0.2-0.3-0.1-0.5l0.8-2.6l-0.8-2.6
			c-0.1-0.2,0-0.4,0.1-0.5c0.1-0.1,0.3-0.2,0.5-0.1l2.6,0.8l2.6-0.8c0.2-0.1,0.4,0,0.5,0.1s0.2,0.3,0.1,0.5l-0.8,2.6l0.8,2.6
			c0.1,0.2,0,0.4-0.1,0.5C31.8,204.3,31.7,204.4,31.5,204.4z"/>
	</g>
	<g>
		<g>
			<path class="st6" d="M111.9,208.9c-0.3,0-0.5-0.2-0.5-0.5V206c0-0.3,0.2-0.5,0.5-0.5s0.5,0.2,0.5,0.5v2.4
				C112.4,208.7,112.2,208.9,111.9,208.9z"/>
		</g>
		<g>
			<path class="st6" d="M111.9,214.8c-0.3,0-0.5-0.2-0.5-0.5v-2.4c0-0.3,0.2-0.5,0.5-0.5s0.5,0.2,0.5,0.5v2.4
				C112.4,214.5,112.2,214.8,111.9,214.8z"/>
		</g>
		<g>
			<path class="st6" d="M116,210.6h-2.4c-0.3,0-0.5-0.2-0.5-0.5s0.2-0.5,0.5-0.5h2.4c0.3,0,0.5,0.2,0.5,0.5S116.3,210.6,116,210.6z"
				/>
		</g>
		<g>
			<path class="st6" d="M110.2,210.6h-2.4c-0.3,0-0.5-0.2-0.5-0.5s0.2-0.5,0.5-0.5h2.4c0.3,0,0.5,0.2,0.5,0.5
				S110.4,210.6,110.2,210.6z"/>
		</g>
	</g>
	<g>
		<g>
			<path class="st3" d="M148.9,222c-0.3,0-0.5-0.2-0.5-0.5V219c0-0.3,0.2-0.5,0.5-0.5s0.5,0.2,0.5,0.5v2.4
				C149.4,221.8,149.2,222,148.9,222z"/>
		</g>
		<g>
			<path class="st3" d="M148.9,227.8c-0.3,0-0.5-0.2-0.5-0.5v-2.4c0-0.3,0.2-0.5,0.5-0.5s0.5,0.2,0.5,0.5v2.4
				C149.4,227.6,149.2,227.8,148.9,227.8z"/>
		</g>
		<g>
			<path class="st3" d="M153.1,223.7h-2.4c-0.3,0-0.5-0.2-0.5-0.5s0.2-0.5,0.5-0.5h2.4c0.3,0,0.5,0.2,0.5,0.5
				S153.4,223.7,153.1,223.7z"/>
		</g>
		<g>
			<path class="st3" d="M147.2,223.7h-2.4c-0.3,0-0.5-0.2-0.5-0.5s0.2-0.5,0.5-0.5h2.4c0.3,0,0.5,0.2,0.5,0.5
				S147.5,223.7,147.2,223.7z"/>
		</g>
	</g>
</g>
</svg>
