<svg xmlns="http://www.w3.org/2000/svg" id="Layer_1" x="0" y="0" enable-background="new 0 0 256 256" version="1.1" viewBox="0 0 256 256" xml:space="preserve"><style>.st0{fill:#DBFDFF;}
	.st1{fill:#FFFFFF;}
	.st2{fill:#FEBE7F;}
	.st3{fill:#48386A;}
	.st4{fill:#9FEAFF;}
	.st5{fill:#FF8584;}
	.st6{fill:#FFFFED;}</style><path d="M239 110.8c0-25.8-19.4-47.1-44.4-50.1v-.4c0-27.9-22.6-50.5-50.5-50.5S93.6 32.4 93.6 60.3c0 25.8 19.4 47.1 44.4 50.1v.4c0 2.6.2 5.1.6 7.6-3.7 6.9-5.9 14.8-6 23.1-23.5 4.3-41.3 24.9-41.3 49.7 0 27.9 22.6 50.5 50.5 50.5 27.6 0 50.1-22.2 50.5-49.7 23.5-4.3 41.3-24.9 41.3-49.7 0-2.6-.2-5.1-.6-7.6 3.8-7.1 6-15.2 6-23.9z" class="st0"/><path d="M193.1 113.6V95.2h9.2v55.7c-1.5-.5-3-.8-4.6-.8s-3.2.3-4.6.8v-37.3zM215.7 52.5v37.3c0 3-2.4 5.4-5.4 5.4h-25c-3 0-5.4-2.4-5.4-5.4V52.5c0-3 2.4-5.4 5.4-5.4h25c3-.1 5.4 2.4 5.4 5.4z" class="st1"/><path d="M170.5 62.1H179.8V80.1H170.5z" class="st1"/><path d="M215.7 62.1H225V80.1H215.7z" class="st1" transform="rotate(-180 220.36 71.115)"/><path d="M193.1 113.6V95.2h9.2v55.7c-1.5-.5-3-.8-4.6-.8s-3.2.3-4.6.8v-37.3zM139.3 132v58.9H25.1c-10.8 0-19.6 8.8-19.6 19.6V36.8c0-6 4.9-10.9 10.9-10.9h123V132z" class="st1"/><path d="M191.7 47H210.7V95.1H191.7z" class="st2"/><path d="M5.5 211.9c-.6 0-1-.4-1-1v-.4c0-.6.4-1 1-1s1 .4 1 1V210.8c0 .3-.1.6-.3.8s-.4.3-.7.3z" class="st3"/><path d="M21 36.8H130.9V180.10000000000002H21z" class="st4"/><path d="M139.3 127.7c-.6 0-1-.4-1-1v-7.2c0-.6.4-1 1-1s1 .4 1 1v7.2c0 .6-.5 1-1 1z" class="st3"/><path d="M139.3 132v58.9H25.1c-10.8 0-19.6 8.8-19.6 19.6V36.8c0-6 4.9-10.9 10.9-10.9h123V132z" class="st5"/><path d="M5.5 211.5c-.6 0-1-.4-1-1V36.8c0-6.5 5.3-11.9 11.9-11.9h122.9c.6 0 1 .4 1 1v84.6c0 .6-.4 1-1 1s-1-.4-1-1V26.9H16.4c-5.4 0-9.9 4.4-9.9 9.9v164.9c3.3-6.9 10.4-11.7 18.6-11.7h113.2v-58c0-.6.4-1 1-1s1 .4 1 1v58.9c0 .6-.4 1-1 1H25.1c-10.2 0-18.6 8.3-18.6 18.6 0 .6-.5 1-1 1z" class="st3"/><path d="M83.4 230.1H28.6c-5.4 0-10.3-2.2-13.8-5.7s-5.6-8.2-5.7-13.5v-.4c0-10.8 8.8-19.6 19.6-19.6h114.2v5.4H28.6c-7.8 0-14.1 6.3-14.1 14.1V210.7c.1 3.7 1.5 7.1 4.1 9.7 2.7 2.7 6.2 4.1 10 4.1h114.2v5.4H83.4z" class="st2"/><path d="M139.3 231.1H93.8c-.6 0-1-.4-1-1s.4-1 1-1h44.5v-3.4H25.1c-4.1 0-7.9-1.6-10.7-4.4-2.8-2.8-4.4-6.5-4.4-10.4V210.6c0-8.3 6.8-15.1 15.1-15.1h113.2v-3.4H25.1c-10.2 0-18.6 8.3-18.6 18.6v.3c.1 4.9 2 9.4 5.4 12.9 3.5 3.5 8.2 5.4 13.1 5.4h54.9c.6 0 1 .4 1 1s-.4 1-1 1H25.1c-5.5 0-10.7-2.1-14.6-6-3.8-3.8-5.9-8.8-6-14.2v-.4c0-11.3 9.2-20.6 20.6-20.6h114.2c.6 0 1 .4 1 1v5.4c0 .6-.4 1-1 1H25.1c-7.2 0-13.1 5.9-13.1 13.1V210.9c0 3.4 1.4 6.6 3.8 9 2.5 2.5 5.8 3.9 9.3 3.9h114.2c.6 0 1 .4 1 1v5.4c0 .4-.5.9-1 .9z" class="st3"/><path d="M133.9 225.6H25.1c-4 0-7.9-1.6-10.7-4.4-2.8-2.8-4.4-6.5-4.4-10.4v-.2c0-8.4 6.8-15.2 15.1-15.2h108.8c.6 0 1 .4 1 1v28.3c0 .5-.5.9-1 .9zM25.1 197.4c-7.2 0-13.1 5.9-13.1 13.1v.2c.1 3.4 1.4 6.6 3.8 9 2.5 2.5 5.8 3.8 9.3 3.8h107.8v-26.3H25.1z" class="st3"/><path d="M25.1 224.6c-3.8 0-7.3-1.5-10-4.1-2.6-2.6-4.1-6.1-4.1-9.7V210.5c0-7.8 6.4-14.1 14.1-14.1h108.8v28.3H25.1z" class="st6"/><path d="M133.9 225.6H25.1c-4 0-7.9-1.6-10.7-4.4-2.8-2.8-4.4-6.5-4.4-10.4v-.2c0-8.4 6.8-15.2 15.1-15.2h108.8c.6 0 1 .4 1 1v28.3c0 .5-.5.9-1 .9zM25.1 197.4c-7.2 0-13.1 5.9-13.1 13.1v.2c.1 3.4 1.4 6.6 3.8 9 2.5 2.5 5.8 3.8 9.3 3.8h107.8v-26.3H25.1z" class="st3"/><path d="M115.9 211H23.6c-.3 0-.5-.2-.5-.5s.2-.5.5-.5h92.3c.3 0 .5.2.5.5s-.2.5-.5.5zM119.2 219.4H29.8c-.3 0-.5-.2-.5-.5s.2-.5.5-.5h89.4c.3 0 .5.2.5.5s-.3.5-.5.5zM120.6 203.5H99.1c-.3 0-.5-.2-.5-.5s.2-.5.5-.5h21.5c.3 0 .5.2.5.5s-.2.5-.5.5zM88.8 203.5H26.5c-.3 0-.5-.2-.5-.5s.2-.5.5-.5h62.3c.3 0 .5.2.5.5s-.2.5-.5.5zM127.3 181.1H17.5c-.6 0-1-.4-1-1V36.8c0-.6.4-1 1-1h109.9c.6 0 1 .4 1 1v143.3c-.1.6-.5 1-1.1 1zm-108.8-2h107.9V37.8H18.5v141.3z" class="st3"/><path d="M22.9 83.2 22.9 42.2 121.9 42.2 121.9 174.7 22.9 174.7 22.9 91.7z" class="st1"/><path d="M121.9 175.2h-99c-.3 0-.5-.2-.5-.5v-83c0-.3.2-.5.5-.5s.5.2.5.5v82.5h98V42.7h-98v40.5c0 .3-.2.5-.5.5s-.5-.2-.5-.5v-41c0-.3.2-.5.5-.5h99c.3 0 .5.2.5.5v132.4c0 .4-.2.6-.5.6z" class="st3"/><path d="M105.4 94.7h-59c-2.8 0-5-2.2-5-5v-.9c0-2.8 2.2-5 5-5h59.1c2.8 0 5 2.2 5 5v.9c-.1 2.8-2.3 5-5.1 5zM69.6 137.2H56.7c-2.9 0-5.3-2.4-5.3-5.3v-.2c0-2.9 2.4-5.3 5.3-5.3H95c2.9 0 5.3 2.4 5.3 5.3v.2c0 2.9-2.4 5.3-5.3 5.3H69.6z" class="st4"/><path d="M101.9 95.7h-59c-3.3 0-6-2.7-6-6v-.9c0-3.3 2.7-6 6-6H102c3.3 0 6 2.7 6 6v.9c-.1 3.3-2.8 6-6.1 6zm-59-10.9c-2.2 0-4 1.8-4 4v.9c0 2.2 1.8 4 4 4H102c2.2 0 4-1.8 4-4v-.9c0-2.2-1.8-4-4-4H42.9zM111.9 116.9h-79c-3.3 0-6-2.7-6-6v-.9c0-3.3 2.7-6 6-6h78.9c3.3 0 6 2.7 6 6v.9c.1 3.4-2.6 6-5.9 6zm-79-10.8c-2.2 0-4 1.8-4 4v.9c0 2.2 1.8 4 4 4h78.9c2.2 0 4-1.8 4-4v-.9c0-2.2-1.8-4-4-4H32.9zM91.6 138.2H77.4c-.6 0-1-.4-1-1s.4-1 1-1h14.1c2.4 0 4.3-1.9 4.3-4.3v-.2c0-2.4-1.9-4.3-4.3-4.3H53.2c-2.4 0-4.3 1.9-4.3 4.3v.2c0 2.4 1.9 4.3 4.3 4.3h12.9c.6 0 1 .4 1 1s-.4 1-1 1H53.2c-3.5 0-6.3-2.8-6.3-6.3v-.2c0-3.5 2.8-6.3 6.3-6.3h38.3c3.5 0 6.3 2.8 6.3 6.3v.2c.1 3.4-2.8 6.3-6.2 6.3zM210.3 96.2h-25c-3.6 0-6.4-2.9-6.4-6.4V52.5c0-3.6 2.9-6.4 6.4-6.4h25c3.5 0 6.4 2.9 6.4 6.4v37.3c0 3.5-2.9 6.4-6.4 6.4zM185.2 48c-2.4 0-4.4 2-4.4 4.4v37.3c0 2.4 2 4.4 4.4 4.4h25c2.4 0 4.4-2 4.4-4.4V52.5c0-2.4-2-4.4-4.4-4.4h-25z" class="st3"/><path d="M179.8 81.1h-9.3c-.6 0-1-.4-1-1v-18c0-.6.4-1 1-1h9.3c.6 0 1 .4 1 1v18c0 .6-.5 1-1 1zm-8.3-2h7.3v-16h-7.3v16zM225 81.1h-9.3c-.6 0-1-.4-1-1v-18c0-.6.4-1 1-1h9.3c.6 0 1 .4 1 1v18c0 .6-.4 1-1 1zm-8.3-2h7.3v-16h-7.3v16zM202.4 151.9c-.1 0-.2 0-.3-.1-2.8-.9-5.9-.9-8.6 0-.3.1-.6.1-.9-.1s-.4-.5-.4-.8v-29.8c0-.6.4-1 1-1s1 .4 1 1v28.5c2.4-.6 4.9-.6 7.2 0V96.2h-7.2v17.4c0 .6-.4 1-1 1s-1-.4-1-1V95.2c0-.6.4-1 1-1h9.2c.6 0 1 .4 1 1v55.7c0 .3-.2.6-.4.8-.2.1-.4.2-.6.2z" class="st3"/><path d="M210.3 96.2h-25c-3.6 0-6.4-2.9-6.4-6.4V52.5c0-3.6 2.9-6.4 6.4-6.4h25c3.5 0 6.4 2.9 6.4 6.4v37.3c0 3.5-2.9 6.4-6.4 6.4zM185.2 48c-2.4 0-4.4 2-4.4 4.4v37.3c0 2.4 2 4.4 4.4 4.4h25c2.4 0 4.4-2 4.4-4.4V52.5c0-2.4-2-4.4-4.4-4.4h-25z" class="st3"/><path d="M169 95.2h-13.4c-2.8 0-5-2.2-5-5V52c0-2.8 2.2-5 5-5H169c2.8 0 5 2.2 5 5v38.1c0 2.8-2.3 5.1-5 5.1zM251.9 76.3v13.6c0 2.9-2.4 5.3-5.3 5.3h-12.8c-2.9 0-5.3-2.4-5.3-5.3V52.4c0-2.9 2.4-5.3 5.3-5.3h12.8c2.9 0 5.3 2.4 5.3 5.3v23.9z" class="st2"/><path d="M207.3 95.7h-19c-.3 0-.5-.2-.5-.5V47c0-.3.2-.5.5-.5h19c.3 0 .5.2.5.5v48.1c0 .4-.3.6-.5.6zm-18.6-1h18V47.5h-18v47.2zM179.8 81.1h-9.3c-.6 0-1-.4-1-1v-18c0-.6.4-1 1-1h9.3c.6 0 1 .4 1 1v18c0 .6-.5 1-1 1zm-8.3-2h7.3v-16h-7.3v16z" class="st3"/><path d="M165.5 96.2h-13.4c-3.3 0-6-2.7-6-6V52c0-3.3 2.7-6 6-6h13.4c3.3 0 6 2.7 6 6v38.1c0 3.4-2.7 6.1-6 6.1zM152.1 48c-2.2 0-4 1.8-4 4v38.1c0 2.2 1.8 4 4 4h13.4c2.2 0 4-1.8 4-4V52c0-2.2-1.8-4-4-4h-13.4zM225 81.1h-9.3c-.6 0-1-.4-1-1v-18c0-.6.4-1 1-1h9.3c.6 0 1 .4 1 1v18c0 .6-.4 1-1 1zm-8.3-2h7.3v-16h-7.3v16z" class="st3"/><path d="M243.1 96.2h-12.8c-3.5 0-6.3-2.8-6.3-6.3V52.4c0-3.5 2.8-6.3 6.3-6.3h12.8c3.5 0 6.3 2.8 6.3 6.3v15.8c0 .6-.4 1-1 1s-1-.4-1-1V52.4c0-2.4-1.9-4.3-4.3-4.3h-12.8c-2.4 0-4.3 1.9-4.3 4.3v37.5c0 2.4 1.9 4.3 4.3 4.3h12.8c2.4 0 4.3-1.9 4.3-4.3V76.3c0-.6.4-1 1-1s1 .4 1 1v13.6c0 3.5-2.8 6.3-6.3 6.3zM158.8 95.7c-.3 0-.5-.2-.5-.5v-27c0-.3.2-.5.5-.5s.5.2.5.5v27c0 .3-.3.5-.5.5zM158.8 60.3c-.3 0-.5-.2-.5-.5V47c0-.3.2-.5.5-.5s.5.2.5.5v12.7c0 .3-.3.6-.5.6z" class="st3"/><path d="M236.7 95.7c-.3 0-.5-.2-.5-.5V47c0-.3.2-.5.5-.5s.5.2.5.5v48.1c0 .4-.2.6-.5.6zM202.4 151.9c-.1 0-.2 0-.3-.1-2.8-.9-5.9-.9-8.6 0-.3.1-.6.1-.9-.1s-.4-.5-.4-.8v-29.8c0-.6.4-1 1-1s1 .4 1 1v28.5c2.4-.6 4.9-.6 7.2 0V96.2h-7.2v17.4c0 .6-.4 1-1 1s-1-.4-1-1V95.2c0-.6.4-1 1-1h9.2c.6 0 1 .4 1 1v55.7c0 .3-.2.6-.4.8-.2.1-.4.2-.6.2z" class="st3"/><path d="M186.6 196.4v-31.5c0-6.5 4.2-12 10.1-13.9 1.5-.5 3-.8 4.6-.8s3.2.3 4.6.8c2.2.7 4.2 1.9 5.8 3.5 2.7 2.7 4.3 6.3 4.3 10.4v50.6c0 8.1-6.6 14.7-14.7 14.7s-14.7-6.6-14.7-14.7v-19.1z" class="st5"/><g><path d="M197.7 231.1c-8.6 0-15.7-7-15.7-15.7v-9.6c0-.6.4-1 1-1s1 .4 1 1v9.6c0 7.5 6.1 13.7 13.7 13.7 7.5 0 13.7-6.1 13.7-13.7v-50.6c0-3.7-1.4-7.1-4-9.7-1.5-1.5-3.4-2.6-5.4-3.3-2.8-.9-5.9-.9-8.6 0-5.6 1.9-9.4 7.1-9.4 13v31.5c0 .6-.4 1-1 1s-1-.4-1-1v-31.5c0-6.8 4.3-12.8 10.7-14.9 3.2-1.1 6.7-1.1 9.9 0 2.3.8 4.4 2.1 6.2 3.8 3 3 4.6 6.9 4.6 11.1v50.6c0 8.6-7 15.7-15.7 15.7z" class="st3"/></g><g><path d="M207 183.5v31.9c0 5.1-4.1 9.2-9.2 9.2s-9.2-4.1-9.2-9.2v-50.6c0-4 2.5-7.5 6.3-8.8 1-.3 1.9-.5 2.9-.5s2 .2 2.9.5c1.4.5 2.6 1.2 3.7 2.2 1.7 1.7 2.7 4.1 2.7 6.5v18.8z" class="st1"/><path d="M197.7 225.1c-5.4 0-9.7-4.4-9.7-9.7v-50.6c0-4.2 2.7-7.9 6.7-9.2 2-.7 4.2-.7 6.1 0 1.4.5 2.8 1.3 3.8 2.4 1.8 1.8 2.9 4.3 2.9 6.9v9.9c0 .3-.2.5-.5.5s-.5-.2-.5-.5v-9.9c0-2.3-.9-4.5-2.6-6.2-1-1-2.2-1.7-3.5-2.1-1.8-.6-3.7-.6-5.5 0-3.6 1.2-6 4.5-6 8.3v50.6c0 4.8 3.9 8.7 8.7 8.7s8.7-3.9 8.7-8.7v-31.9c0-.3.2-.5.5-.5s.5.2.5.5v31.9c.2 5.3-4.2 9.6-9.6 9.6z" class="st3"/></g><g><path d="M220.6 146.3c-1.6 0-3-1.3-3-3s1.3-3 3-3 3 1.3 3 3-1.3 3-3 3zm0-5c-1.1 0-2 .9-2 2s.9 2 2 2 2-.9 2-2-.9-2-2-2z" class="st3"/></g><g><path d="M165.1 116.2c-1.6 0-3-1.3-3-3s1.3-3 3-3 3 1.3 3 3-1.3 3-3 3zm0-5c-1.1 0-2 .9-2 2s.9 2 2 2 2-.9 2-2-.9-2-2-2z" class="st5"/></g><g><path d="M165.9 177.9h-.1l-1-.3c-.3-.1-.4-.4-.3-.6.1-.3.4-.4.6-.3h.1l-.5-1.8v-.3l.5-1.8-1.8.5h-.3l-1.8-.5.5 1.8v.3l-.5 1.8 1.8-.5c.3-.1.5.1.6.3.1.3-.1.5-.3.6l-2.7.8c-.2.1-.4 0-.5-.1-.1-.1-.2-.3-.1-.5l.8-2.6-.8-2.6c-.1-.2 0-.4.1-.5.1-.1.3-.2.5-.1l2.6.8 2.6-.8c.2-.1.4 0 .5.1.1.1.2.3.1.5l-.8 2.6.8 2.6c.1.2 0 .4-.1.5-.3 0-.4.1-.5.1z" class="st3"/></g><g><path d="M215.2 116.4c-.1 0-.3-.1-.4-.1-.1-.1-.2-.3-.1-.5l.8-2.6-.8-2.6c-.1-.2 0-.4.1-.5.1-.1.3-.2.5-.1l2.6.8 2.6-.8c.2-.1.4 0 .5.1s.2.3.1.5l-.8 2.6.8 2.6c.1.2 0 .4-.1.5s-.3.2-.5.1l-1-.3c-.3-.1-.4-.4-.3-.6.1-.3.4-.4.6-.3h.1l-.5-1.8v-.3l.5-1.8-1.8.5h-.3l-1.8-.5.5 1.8v.3l-.5 1.8 1.8-.5c.3-.1.5.1.6.3.1.3-.1.5-.3.6l-2.7.8h-.2z" class="st2"/></g><g><path d="M156.3 28.9c-.3 0-.5-.2-.5-.5V26c0-.3.2-.5.5-.5s.5.2.5.5v2.4c0 .2-.2.5-.5.5zM156.3 34.7c-.3 0-.5-.2-.5-.5v-2.4c0-.3.2-.5.5-.5s.5.2.5.5v2.4c0 .3-.2.5-.5.5zM160.4 30.6H158c-.3 0-.5-.2-.5-.5s.2-.5.5-.5h2.4c.3 0 .5.2.5.5s-.2.5-.5.5zM154.6 30.6h-2.4c-.3 0-.5-.2-.5-.5s.2-.5.5-.5h2.4c.3 0 .5.2.5.5s-.2.5-.5.5z" class="st5"/></g><g><path d="M155.1 135.9c-.3 0-.5-.2-.5-.5V133c0-.3.2-.5.5-.5s.5.2.5.5v2.4c0 .3-.2.5-.5.5zM155.1 141.8c-.3 0-.5-.2-.5-.5v-2.4c0-.3.2-.5.5-.5s.5.2.5.5v2.4c0 .3-.2.5-.5.5zM159.2 137.7h-2.4c-.3 0-.5-.2-.5-.5s.2-.5.5-.5h2.4c.3 0 .5.2.5.5s-.2.5-.5.5zM153.4 137.7H151c-.3 0-.5-.2-.5-.5s.2-.5.5-.5h2.4c.3 0 .5.2.5.5s-.3.5-.5.5z" class="st2"/></g><g><path d="M153.4 206.4c-.3 0-.5-.2-.5-.5v-2.4c0-.3.2-.5.5-.5s.5.2.5.5v2.4c0 .3-.3.5-.5.5zM153.4 212.3c-.3 0-.5-.2-.5-.5v-2.4c0-.3.2-.5.5-.5s.5.2.5.5v2.4c0 .2-.3.5-.5.5zM157.5 208.1h-2.4c-.3 0-.5-.2-.5-.5s.2-.5.5-.5h2.4c.3 0 .5.2.5.5s-.2.5-.5.5zM151.7 208.1h-2.4c-.3 0-.5-.2-.5-.5s.2-.5.5-.5h2.4c.3 0 .5.2.5.5s-.3.5-.5.5z" class="st4"/></g></svg>