<?xml version="1.0" encoding="utf-8"?>
<!-- Generator: Adobe Illustrator 22.1.0, SVG Export Plug-In . SVG Version: 6.00 Build 0)  -->
<svg version="1.1" id="Layer_1" xmlns="http://www.w3.org/2000/svg" xmlns:xlink="http://www.w3.org/1999/xlink" x="0px" y="0px"
	 viewBox="0 0 256 256" style="enable-background:new 0 0 256 256;" xml:space="preserve">
<style type="text/css">
	.st0{fill:#DBFDFF;}
	.st1{fill:#9FEAFF;}
	.st2{fill:#FFFFFF;}
	.st3{fill:#48386A;}
	.st4{fill:#FFFFED;}
	.st5{fill:#FF8584;}
	.st6{fill:#FEBE7F;}
</style>
<g>
	<path class="st0" d="M180.9,138.9C180.9,138.9,180.9,138.9,180.9,138.9c0.9-3.7,1.3-7.6,1.3-11.5c0-2.9-0.3-5.8-0.7-8.6
		c25.6-2.5,45.6-24,45.6-50.3c0-27.9-22.6-50.5-50.5-50.5c-8.6,0-16.7,2.1-23.7,5.9c-9-8.2-20.9-13.2-34.1-13.2
		c-11.1,0-21.4,3.6-29.8,9.7C82.6,17.6,75.7,16,68.3,16c-27.9,0-50.5,22.6-50.5,50.5c0,27.9,22.6,50.5,50.5,50.5
		c5,0,9.9-0.7,14.4-2.1c-1,4-1.6,8.2-1.6,12.5c0,4.5,0.6,8.8,1.7,13c-4.6-1.4-9.5-2.1-14.6-2.1c-27.9,0-50.5,22.6-50.5,50.5
		s22.6,50.5,50.5,50.5c10.2,0,19.7-3,27.7-8.3c9,8.4,21.1,13.5,34.4,13.5c10.9,0,21-3.5,29.2-9.3c6.5,3,13.7,4.7,21.3,4.7
		c27.9,0,50.5-22.6,50.5-50.5C231.4,161.6,208.8,138.9,180.9,138.9z"/>
	<g>
		<g>
			<path class="st1" d="M239.3,71.2v128.3H23.1V48.7c0-2.8,2.2-5,5-5h206.2c2.8,0,5,2.2,5,5v15.8V71.2z"/>
			<g>
				<path class="st2" d="M219.7,212.3H10.1c-3.5,0-6.4-2.9-6.4-6.4l0,0c0-3.5,2.9-6.4,6.4-6.4h235.3c3.5,0,6.4,2.9,6.4,6.4l0,0
					c0,3.5-2.9,6.4-6.4,6.4h-18H219.7z"/>
				<path class="st3" d="M245.3,213.3h-18c-0.6,0-1-0.4-1-1s0.4-1,1-1h18c3,0,5.4-2.4,5.4-5.4c0-3-2.4-5.4-5.4-5.4H10.1
					c-3,0-5.4,2.4-5.4,5.4c0,3,2.4,5.4,5.4,5.4h209.6c0.6,0,1,0.4,1,1s-0.4,1-1,1H10.1c-4.1,0-7.4-3.3-7.4-7.4
					c0-4.1,3.3-7.4,7.4-7.4h235.3c4.1,0,7.4,3.3,7.4,7.4C252.7,210,249.4,213.3,245.3,213.3z"/>
			</g>
			<g>
				<polygon class="st2" points="99.7,207.2 93.8,207.2 88.2,199.6 167.2,199.6 161.6,207.2 105.8,207.2 				"/>
				<path class="st3" d="M161.6,207.7h-55.8c-0.3,0-0.5-0.2-0.5-0.5s0.2-0.5,0.5-0.5h55.5l4.9-6.7H89.2l4.9,6.7h5.6
					c0.3,0,0.5,0.2,0.5,0.5s-0.2,0.5-0.5,0.5h-5.9c-0.2,0-0.3-0.1-0.4-0.2l-5.6-7.7c-0.1-0.2-0.1-0.4,0-0.5c0.1-0.2,0.3-0.3,0.4-0.3
					h79c0.2,0,0.4,0.1,0.4,0.3c0.1,0.2,0.1,0.4,0,0.5l-5.6,7.7C161.9,207.7,161.8,207.7,161.6,207.7z"/>
			</g>
			<g>
				<path class="st3" d="M235.8,200.6H19.6c-0.6,0-1-0.4-1-1V48.7c0-3.3,2.7-6,6-6h206.2c3.3,0,6,2.7,6,6v15.8c0,0.6-0.4,1-1,1
					s-1-0.4-1-1V48.7c0-2.2-1.8-4-4-4H24.6c-2.2,0-4,1.8-4,4v149.8h214.2V71.2c0-0.6,0.4-1,1-1s1,0.4,1,1v128.3
					C236.8,200.1,236.3,200.6,235.8,200.6z"/>
			</g>
			<g>
				<path class="st3" d="M25.2,84.8c-0.6,0-1-0.4-1-1v-2.3c0-0.6,0.4-1,1-1s1,0.4,1,1v2.3C26.2,84.3,25.8,84.8,25.2,84.8z"/>
			</g>
			<g>
				<polygon class="st2" points="25.2,75.5 25.2,49.3 230.2,49.3 230.2,193.9 25.2,193.9 25.2,88.8 				"/>
				<path class="st3" d="M230.2,194.9H25.2c-0.6,0-1-0.4-1-1V88.8c0-0.6,0.4-1,1-1s1,0.4,1,1v104.2h202.9V50.3H26.2v25.2
					c0,0.6-0.4,1-1,1s-1-0.4-1-1V49.3c0-0.6,0.4-1,1-1h204.9c0.6,0,1,0.4,1,1v144.6C231.2,194.5,230.7,194.9,230.2,194.9z"/>
			</g>
			<g>
				<path class="st3" d="M127.7,207.5c-0.3,0-0.5-0.2-0.5-0.5v-7.5c0-0.3,0.2-0.5,0.5-0.5s0.5,0.2,0.5,0.5v7.5
					C128.2,207.3,128,207.5,127.7,207.5z"/>
			</g>
			<g>
				<polygon class="st4" points="73,162.2 73,193.9 182.4,193.9 182.4,85.2 159.7,62.5 73,62.5 73,157 				"/>
				<path class="st3" d="M182.4,194.9H73c-0.6,0-1-0.4-1-1v-31.7c0-0.6,0.4-1,1-1s1,0.4,1,1v30.7h107.4V85.6l-22.1-22.1H74V157
					c0,0.6-0.4,1-1,1s-1-0.4-1-1V62.5c0-0.6,0.4-1,1-1h86.7c0.3,0,0.5,0.1,0.7,0.3l22.7,22.7c0.2,0.2,0.3,0.4,0.3,0.7v108.7
					C183.4,194.5,182.9,194.9,182.4,194.9z"/>
			</g>
			<g>
				<path class="st3" d="M182.4,86.2h-22.7c-0.6,0-1-0.4-1-1V62.5c0-0.4,0.2-0.8,0.6-0.9c0.4-0.2,0.8-0.1,1.1,0.2l22.7,22.7
					c0.3,0.3,0.4,0.7,0.2,1.1C183.2,86,182.8,86.2,182.4,86.2z M160.7,84.2H180l-19.3-19.3V84.2z"/>
			</g>
			<polygon class="st5" points="104.7,69.8 117.3,69.8 117.3,101.6 83.1,101.6 83.1,69.8 100.2,69.8 			"/>
			<rect x="82.6" y="162.2" class="st5" width="56.4" height="11"/>
			<polygon class="st6" points="149.8,119.9 83.1,119.9 83.1,108.9 174.6,108.9 174.6,119.9 155.8,119.9 			"/>
			<path class="st0" d="M153,145.9c2.1-1.2,4.5-1.8,7-1.8c8,0,14.5,6.5,14.5,14.5c0,8-6.5,14.5-14.5,14.5c-8,0-14.5-6.5-14.5-14.5
				c0-3.4,1.2-6.6,3.2-9.1L153,145.9z"/>
			<g>
				<path class="st3" d="M113.8,102.1H79.6c-0.3,0-0.5-0.2-0.5-0.5V69.8c0-0.3,0.2-0.5,0.5-0.5h17.1c0.3,0,0.5,0.2,0.5,0.5
					s-0.2,0.5-0.5,0.5H80.1v30.8h33.3V70.3h-12.1c-0.3,0-0.5-0.2-0.5-0.5s0.2-0.5,0.5-0.5h12.6c0.3,0,0.5,0.2,0.5,0.5v31.8
					C114.3,101.9,114.1,102.1,113.8,102.1z"/>
			</g>
			<g>
				<path class="st3" d="M171.1,120.4h-18.7c-0.3,0-0.5-0.2-0.5-0.5s0.2-0.5,0.5-0.5h18.2v-10H80.1v10h66.3c0.3,0,0.5,0.2,0.5,0.5
					s-0.2,0.5-0.5,0.5H79.6c-0.3,0-0.5-0.2-0.5-0.5v-11c0-0.3,0.2-0.5,0.5-0.5h91.5c0.3,0,0.5,0.2,0.5,0.5v11
					C171.6,120.1,171.3,120.4,171.1,120.4z"/>
			</g>
			<g>
				<path class="st3" d="M171.1,137.2H79.6c-0.3,0-0.5-0.2-0.5-0.5v-11c0-0.3,0.2-0.5,0.5-0.5h91.5c0.3,0,0.5,0.2,0.5,0.5v11
					C171.6,137,171.3,137.2,171.1,137.2z M80.1,136.2h90.5v-10H80.1V136.2z"/>
			</g>
			<g>
				<path class="st3" d="M135.9,155.6H79.6c-0.3,0-0.5-0.2-0.5-0.5v-11c0-0.3,0.2-0.5,0.5-0.5h56.4c0.3,0,0.5,0.2,0.5,0.5v11
					C136.4,155.3,136.2,155.6,135.9,155.6z M80.1,154.6h55.4v-10H80.1V154.6z"/>
			</g>
			<g>
				<path class="st3" d="M135.9,173.7H79.6c-0.3,0-0.5-0.2-0.5-0.5v-11c0-0.3,0.2-0.5,0.5-0.5h56.4c0.3,0,0.5,0.2,0.5,0.5v11
					C136.4,173.5,136.2,173.7,135.9,173.7z M80.1,172.7h55.4v-10H80.1V172.7z"/>
			</g>
			<g>
				<path class="st3" d="M156.5,173.7c-8.3,0-15-6.7-15-15c0-3.4,1.1-6.7,3.3-9.4c0.2-0.2,0.5-0.3,0.7-0.1c0.2,0.2,0.3,0.5,0.1,0.7
					c-2,2.5-3.1,5.5-3.1,8.8c0,7.7,6.3,14,14,14s14-6.3,14-14s-6.3-14-14-14c-2.4,0-4.7,0.6-6.8,1.8c-0.2,0.1-0.5,0-0.7-0.2
					c-0.1-0.2,0-0.5,0.2-0.7c2.2-1.2,4.7-1.9,7.3-1.9c8.3,0,15,6.7,15,15S164.8,173.7,156.5,173.7z"/>
			</g>
			<g>
				<path class="st3" d="M150.8,88.2h-32.6c-0.3,0-0.5-0.2-0.5-0.5s0.2-0.5,0.5-0.5h32.6c0.3,0,0.5,0.2,0.5,0.5
					S151.1,88.2,150.8,88.2z"/>
			</g>
			<g>
				<path class="st3" d="M165.1,95.1h-46.9c-0.3,0-0.5-0.2-0.5-0.5s0.2-0.5,0.5-0.5h46.9c0.3,0,0.5,0.2,0.5,0.5
					S165.4,95.1,165.1,95.1z"/>
			</g>
			<g>
				<path class="st3" d="M170.6,102.1h-52.4c-0.3,0-0.5-0.2-0.5-0.5s0.2-0.5,0.5-0.5h52.4c0.3,0,0.5,0.2,0.5,0.5
					S170.9,102.1,170.6,102.1z"/>
			</g>
		</g>
		<g>
			<path class="st3" d="M93.8,207.7H3.7c-0.3,0-0.5-0.2-0.5-0.5s0.2-0.5,0.5-0.5h90.1c0.3,0,0.5,0.2,0.5,0.5S94.1,207.7,93.8,207.7z
				"/>
		</g>
		<g>
			<path class="st3" d="M251.6,207.7h-90c-0.3,0-0.5-0.2-0.5-0.5s0.2-0.5,0.5-0.5h90c0.3,0,0.5,0.2,0.5,0.5S251.8,207.7,251.6,207.7
				z"/>
		</g>
	</g>
	<g>
		<path class="st3" d="M180.6,34.6c-1.6,0-3-1.3-3-3s1.3-3,3-3s3,1.3,3,3S182.2,34.6,180.6,34.6z M180.6,29.7c-1.1,0-2,0.9-2,2
			s0.9,2,2,2c1.1,0,2-0.9,2-2S181.7,29.7,180.6,29.7z"/>
	</g>
	<g>
		<path class="st5" d="M123,231.7c-1.6,0-3-1.3-3-3s1.3-3,3-3s3,1.3,3,3S124.7,231.7,123,231.7z M123,226.8c-1.1,0-2,0.9-2,2
			s0.9,2,2,2c1.1,0,2-0.9,2-2S124.1,226.8,123,226.8z"/>
	</g>
	<g>
		<path class="st3" d="M167.8,229.3c0,0-0.1,0-0.1,0l-1-0.3c-0.3-0.1-0.4-0.4-0.3-0.6c0.1-0.3,0.4-0.4,0.6-0.3l0.1,0l-0.5-1.8
			c0-0.1,0-0.2,0-0.3l0.5-1.8l-1.8,0.5c-0.1,0-0.2,0-0.3,0l-1.8-0.5l0.5,1.8c0,0.1,0,0.2,0,0.3l-0.5,1.8l1.8-0.5
			c0.3-0.1,0.5,0.1,0.6,0.3c0.1,0.3-0.1,0.5-0.3,0.6l-2.7,0.8c-0.2,0.1-0.4,0-0.5-0.1c-0.1-0.1-0.2-0.3-0.1-0.5l0.8-2.6l-0.8-2.6
			c-0.1-0.2,0-0.4,0.1-0.5c0.1-0.1,0.3-0.2,0.5-0.1l2.6,0.8l2.6-0.8c0.2-0.1,0.4,0,0.5,0.1s0.2,0.3,0.1,0.5l-0.8,2.6l0.8,2.6
			c0.1,0.2,0,0.4-0.1,0.5C168.1,229.2,168,229.3,167.8,229.3z"/>
	</g>
	<g>
		<path class="st6" d="M61.4,37.9c0,0-0.1,0-0.1,0l-1-0.3c-0.3-0.1-0.4-0.4-0.3-0.6c0.1-0.3,0.4-0.4,0.6-0.3l0.1,0l-0.5-1.8
			c0-0.1,0-0.2,0-0.3l0.5-1.8l-1.8,0.5c-0.1,0-0.2,0-0.3,0l-1.8-0.5l0.5,1.8c0,0.1,0,0.2,0,0.3l-0.5,1.8l1.8-0.5
			c0.3-0.1,0.5,0.1,0.6,0.3c0.1,0.3-0.1,0.5-0.3,0.6l-2.7,0.8c-0.2,0.1-0.4,0-0.5-0.1c-0.1-0.1-0.2-0.3-0.1-0.5l0.8-2.6l-0.8-2.6
			c-0.1-0.2,0-0.4,0.1-0.5s0.3-0.2,0.5-0.1l2.6,0.8l2.6-0.8c0.2-0.1,0.4,0,0.5,0.1s0.2,0.3,0.1,0.5l-0.8,2.6l0.8,2.6
			c0.1,0.2,0,0.4-0.1,0.5C61.7,37.8,61.6,37.9,61.4,37.9z"/>
	</g>
	<g>
		<g>
			<path class="st5" d="M125.5,30.5c-0.3,0-0.5-0.2-0.5-0.5v-2.4c0-0.3,0.2-0.5,0.5-0.5s0.5,0.2,0.5,0.5V30
				C126,30.2,125.8,30.5,125.5,30.5z"/>
		</g>
		<g>
			<path class="st5" d="M125.5,36.3c-0.3,0-0.5-0.2-0.5-0.5v-2.4c0-0.3,0.2-0.5,0.5-0.5s0.5,0.2,0.5,0.5v2.4
				C126,36.1,125.8,36.3,125.5,36.3z"/>
		</g>
		<g>
			<path class="st5" d="M129.7,32.2h-2.4c-0.3,0-0.5-0.2-0.5-0.5s0.2-0.5,0.5-0.5h2.4c0.3,0,0.5,0.2,0.5,0.5S129.9,32.2,129.7,32.2z
				"/>
		</g>
		<g>
			<path class="st5" d="M123.8,32.2h-2.4c-0.3,0-0.5-0.2-0.5-0.5s0.2-0.5,0.5-0.5h2.4c0.3,0,0.5,0.2,0.5,0.5S124.1,32.2,123.8,32.2z
				"/>
		</g>
	</g>
	<g>
		<g>
			<path class="st6" d="M60.4,223.1c-0.3,0-0.5-0.2-0.5-0.5v-2.4c0-0.3,0.2-0.5,0.5-0.5s0.5,0.2,0.5,0.5v2.4
				C60.9,222.9,60.7,223.1,60.4,223.1z"/>
		</g>
		<g>
			<path class="st6" d="M60.4,229c-0.3,0-0.5-0.2-0.5-0.5V226c0-0.3,0.2-0.5,0.5-0.5s0.5,0.2,0.5,0.5v2.4
				C60.9,228.8,60.7,229,60.4,229z"/>
		</g>
		<g>
			<path class="st6" d="M64.6,224.8h-2.4c-0.3,0-0.5-0.2-0.5-0.5s0.2-0.5,0.5-0.5h2.4c0.3,0,0.5,0.2,0.5,0.5S64.9,224.8,64.6,224.8z
				"/>
		</g>
		<g>
			<path class="st6" d="M58.7,224.8h-2.4c-0.3,0-0.5-0.2-0.5-0.5s0.2-0.5,0.5-0.5h2.4c0.3,0,0.5,0.2,0.5,0.5S59,224.8,58.7,224.8z"
				/>
		</g>
	</g>
	<g>
		<g>
			<path class="st1" d="M210.7,227.3c-0.3,0-0.5-0.2-0.5-0.5v-2.4c0-0.3,0.2-0.5,0.5-0.5s0.5,0.2,0.5,0.5v2.4
				C211.2,227,211,227.3,210.7,227.3z"/>
		</g>
		<g>
			<path class="st1" d="M210.7,233.1c-0.3,0-0.5-0.2-0.5-0.5v-2.4c0-0.3,0.2-0.5,0.5-0.5s0.5,0.2,0.5,0.5v2.4
				C211.2,232.9,211,233.1,210.7,233.1z"/>
		</g>
		<g>
			<path class="st1" d="M214.9,229h-2.4c-0.3,0-0.5-0.2-0.5-0.5s0.2-0.5,0.5-0.5h2.4c0.3,0,0.5,0.2,0.5,0.5S215.2,229,214.9,229z"/>
		</g>
		<g>
			<path class="st1" d="M209,229h-2.4c-0.3,0-0.5-0.2-0.5-0.5s0.2-0.5,0.5-0.5h2.4c0.3,0,0.5,0.2,0.5,0.5S209.3,229,209,229z"/>
		</g>
	</g>
</g>
</svg>
