<?xml version="1.0" encoding="utf-8"?>
<!-- Generator: Adobe Illustrator 22.1.0, SVG Export Plug-In . SVG Version: 6.00 Build 0)  -->
<svg version="1.1" id="Layer_1" xmlns="http://www.w3.org/2000/svg" xmlns:xlink="http://www.w3.org/1999/xlink" x="0px" y="0px"
	 viewBox="0 0 256 256" style="enable-background:new 0 0 256 256;" xml:space="preserve">
<style type="text/css">
	.st0{fill:#FFFFFF;}
	.st1{fill:#48386A;}
	.st2{fill:#9FEAFF;}
</style>
<path class="st0" d="M84.7,35.3V15c0-5.5,4.4-9.9,9.9-9.9h62.5v0.2c-4.5,0.9-7.9,4.9-7.9,9.7v66.8H84.7V50.2V35.3z"/>
<g>
	<path class="st0" d="M64.9,160.1V80.8c0-2.7,2.2-4.9,4.9-4.9h12.9v6.1h64.5v-6.1h34.9c2.7,0,4.9,2.2,4.9,4.9v165.2
		c0,2.7-2.2,4.9-4.9,4.9H69.9c-2.7,0-4.9-2.2-4.9-4.9v-78.7V160.1z"/>
	<g>
		<g>
			<path class="st0" d="M169.3,15v60.8h-22.1V15c0-4.8,3.4-8.8,7.9-9.7c0.6-0.1,1.3-0.2,2-0.2h2.3C164.8,5.1,169.3,9.6,169.3,15z"/>
			<path class="st1" d="M169.3,76.8h-22.1c-0.6,0-1-0.4-1-1V15c0-5.2,3.7-9.7,8.7-10.7c0.7-0.1,1.4-0.2,2.2-0.2h2.3
				c6,0,10.9,4.9,10.9,10.9v60.8C170.3,76.4,169.8,76.8,169.3,76.8z M148.2,74.8h20.1V15c0-4.9-4-8.9-8.9-8.9h-2.3
				c-0.6,0-1.2,0.1-1.8,0.2c-4.1,0.8-7.1,4.5-7.1,8.7V74.8z"/>
		</g>
		<path class="st2" d="M68.9,160.1V80.8c0-2.7,2.2-4.9,4.9-4.9h12.9v6.1h64.5v-6.1h34.9c2.7,0,4.9,2.2,4.9,4.9v165.2
			c0,2.7-2.2,4.9-4.9,4.9H73.9c-2.7,0-4.9-2.2-4.9-4.9v-78.7V160.1z"/>
		<g>
			<path class="st1" d="M182.1,251.9H69.9c-3.3,0-5.9-2.7-5.9-5.9v-78.7c0-0.6,0.4-1,1-1s1,0.4,1,1v78.7c0,2.2,1.8,3.9,3.9,3.9
				h112.3c2.2,0,3.9-1.8,3.9-3.9V80.8c0-2.2-1.8-3.9-3.9-3.9h-33.9v5.1c0,0.6-0.4,1-1,1H82.7c-0.6,0-1-0.4-1-1v-5.1H69.9
				c-2.2,0-3.9,1.8-3.9,3.9v79.4c0,0.6-0.4,1-1,1s-1-0.4-1-1V80.8c0-3.3,2.7-5.9,5.9-5.9h12.9c0.6,0,1,0.4,1,1v5.1h62.5v-5.1
				c0-0.6,0.4-1,1-1h34.9c3.3,0,5.9,2.7,5.9,5.9v165.2C188.1,249.2,185.4,251.9,182.1,251.9z"/>
		</g>
		<g>
			<polygon class="st0" points="152.1,87.4 182.4,87.4 182.4,245.2 69.6,245.2 69.6,87.4 143.9,87.4 			"/>
			<path class="st1" d="M182.4,245.7H69.6c-0.3,0-0.5-0.2-0.5-0.5V87.4c0-0.3,0.2-0.5,0.5-0.5h74.2c0.3,0,0.5,0.2,0.5,0.5
				s-0.2,0.5-0.5,0.5H70.1v156.8h111.7V87.9h-29.8c-0.3,0-0.5-0.2-0.5-0.5s0.2-0.5,0.5-0.5h30.3c0.3,0,0.5,0.2,0.5,0.5v157.8
				C182.9,245.5,182.6,245.7,182.4,245.7z"/>
		</g>
		<g>
			<path class="st1" d="M173,119.5H79c-0.6,0-1-0.4-1-1V93.8c0-0.6,0.4-1,1-1h94c0.6,0,1,0.4,1,1v24.7
				C174,119,173.5,119.5,173,119.5z M80,117.5h92V94.8H80V117.5z"/>
		</g>
		<polygon class="st2" points="86.6,103.1 86.6,97.7 172.4,97.7 172.4,114.5 86.6,114.5 86.6,109.1 		"/>
		<path class="st2" d="M160.7,233.6c-0.6,0-1-0.4-1-1v-40.6c0-0.5,0.5-1,1-1h10.6c0.6,0,1,0.4,1,1v40.6c0,0.5-0.5,1-1,1H160.7z"/>
		<path class="st2" d="M86.2,35.3V15c0-5.5,4.4-9.9,9.9-9.9h62.5v0.2c-4.5,0.9-7.9,4.9-7.9,9.7v66.8H86.2V50.2V35.3z"/>
		<g>
			<path class="st1" d="M168.9,115H83.1c-0.3,0-0.5-0.2-0.5-0.5v-5.4c0-0.3,0.2-0.5,0.5-0.5s0.5,0.2,0.5,0.5v4.9h84.7V98.2H83.6v4.9
				c0,0.3-0.2,0.5-0.5,0.5s-0.5-0.2-0.5-0.5v-5.4c0-0.3,0.2-0.5,0.5-0.5h85.7c0.3,0,0.5,0.2,0.5,0.5v16.8
				C169.4,114.8,169.1,115,168.9,115z"/>
		</g>
		<g>
			<path class="st1" d="M94.9,147.5h-4.6c-0.6,0-1-0.4-1-1s0.4-1,1-1h4.6c2.2,0,4-1.8,4-4v-10.1c0-2.2-1.8-4-4-4H84
				c-2.2,0-4,1.8-4,4v10.1c0,2.2,1.8,4,4,4c0.6,0,1,0.4,1,1s-0.4,1-1,1c-3.3,0-6-2.7-6-6v-10.1c0-3.3,2.7-6,6-6h10.9
				c3.3,0,6,2.7,6,6v10.1C100.9,144.8,98.2,147.5,94.9,147.5z"/>
		</g>
		<g>
			<path class="st1" d="M94.8,143.1H84.1c-0.8,0-1.5-0.7-1.5-1.5v-10.2c0-0.8,0.7-1.5,1.5-1.5h10.7c0.8,0,1.5,0.7,1.5,1.5v10.2
				C96.3,142.4,95.6,143.1,94.8,143.1z M84.1,130.9c-0.3,0-0.5,0.2-0.5,0.5v10.2c0,0.3,0.2,0.5,0.5,0.5h10.7c0.3,0,0.5-0.2,0.5-0.5
				v-10.2c0-0.3-0.2-0.5-0.5-0.5H84.1z"/>
		</g>
		<g>
			<path class="st1" d="M131.4,147.5h-10.9c-3.3,0-6-2.7-6-6v-10.1c0-3.3,2.7-6,6-6h10.9c3.3,0,6,2.7,6,6v10.1
				C137.4,144.8,134.7,147.5,131.4,147.5z M120.6,127.4c-2.2,0-4,1.8-4,4v10.1c0,2.2,1.8,4,4,4h10.9c2.2,0,4-1.8,4-4v-10.1
				c0-2.2-1.8-4-4-4H120.6z"/>
		</g>
		<g>
			<path class="st1" d="M131.3,143.1h-10.7c-0.8,0-1.5-0.7-1.5-1.5v-10.2c0-0.8,0.7-1.5,1.5-1.5h10.7c0.8,0,1.5,0.7,1.5,1.5v10.2
				C132.8,142.4,132.2,143.1,131.3,143.1z M120.7,130.9c-0.3,0-0.5,0.2-0.5,0.5v10.2c0,0.3,0.2,0.5,0.5,0.5h10.7
				c0.3,0,0.5-0.2,0.5-0.5v-10.2c0-0.3-0.2-0.5-0.5-0.5H120.7z"/>
		</g>
		<g>
			<path class="st1" d="M168,147.5h-10.9c-3.3,0-6-2.7-6-6v-10.1c0-3.3,2.7-6,6-6H168c3.3,0,6,2.7,6,6v10.1
				C174,144.8,171.3,147.5,168,147.5z M157.1,127.4c-2.2,0-4,1.8-4,4v10.1c0,2.2,1.8,4,4,4H168c2.2,0,4-1.8,4-4v-10.1
				c0-2.2-1.8-4-4-4H157.1z"/>
		</g>
		<g>
			<path class="st1" d="M167.9,143.1h-10.7c-0.8,0-1.5-0.7-1.5-1.5v-10.2c0-0.8,0.7-1.5,1.5-1.5h10.7c0.8,0,1.5,0.7,1.5,1.5v10.2
				C169.4,142.4,168.7,143.1,167.9,143.1z M157.2,130.9c-0.3,0-0.5,0.2-0.5,0.5v10.2c0,0.3,0.2,0.5,0.5,0.5h10.7
				c0.3,0,0.5-0.2,0.5-0.5v-10.2c0-0.3-0.2-0.5-0.5-0.5H157.2z"/>
		</g>
		<g>
			<path class="st1" d="M94.9,177.9H84c-3.3,0-6-2.7-6-6v-10.1c0-3.3,2.7-6,6-6h10.9c3.3,0,6,2.7,6,6v10.1
				C100.9,175.2,98.2,177.9,94.9,177.9z M84,157.8c-2.2,0-4,1.8-4,4v10.1c0,2.2,1.8,4,4,4h10.9c2.2,0,4-1.8,4-4v-10.1
				c0-2.2-1.8-4-4-4H84z"/>
		</g>
		<g>
			<path class="st1" d="M94.8,173.4H84.1c-0.8,0-1.5-0.7-1.5-1.5v-10.2c0-0.8,0.7-1.5,1.5-1.5h10.7c0.8,0,1.5,0.7,1.5,1.5v10.2
				C96.3,172.8,95.6,173.4,94.8,173.4z M84.1,161.2c-0.3,0-0.5,0.2-0.5,0.5v10.2c0,0.3,0.2,0.5,0.5,0.5h10.7c0.3,0,0.5-0.2,0.5-0.5
				v-10.2c0-0.3-0.2-0.5-0.5-0.5H84.1z"/>
		</g>
		<g>
			<path class="st1" d="M131.4,177.9h-10.9c-3.3,0-6-2.7-6-6v-10.1c0-3.3,2.7-6,6-6h10.9c3.3,0,6,2.7,6,6v10.1
				C137.4,175.2,134.7,177.9,131.4,177.9z M120.6,157.8c-2.2,0-4,1.8-4,4v10.1c0,2.2,1.8,4,4,4h10.9c2.2,0,4-1.8,4-4v-10.1
				c0-2.2-1.8-4-4-4H120.6z"/>
		</g>
		<g>
			<path class="st1" d="M131.3,173.4h-10.7c-0.8,0-1.5-0.7-1.5-1.5v-10.2c0-0.8,0.7-1.5,1.5-1.5h10.7c0.8,0,1.5,0.7,1.5,1.5v10.2
				C132.8,172.8,132.2,173.4,131.3,173.4z M120.7,161.2c-0.3,0-0.5,0.2-0.5,0.5v10.2c0,0.3,0.2,0.5,0.5,0.5h10.7
				c0.3,0,0.5-0.2,0.5-0.5v-10.2c0-0.3-0.2-0.5-0.5-0.5H120.7z"/>
		</g>
		<g>
			<path class="st1" d="M168,177.9h-10.9c-3.3,0-6-2.7-6-6v-10.1c0-3.3,2.7-6,6-6H168c3.3,0,6,2.7,6,6v10.1
				C174,175.2,171.3,177.9,168,177.9z M157.1,157.8c-2.2,0-4,1.8-4,4v10.1c0,2.2,1.8,4,4,4H168c2.2,0,4-1.8,4-4v-10.1
				c0-2.2-1.8-4-4-4H157.1z"/>
		</g>
		<g>
			<path class="st1" d="M167.9,173.4h-10.7c-0.8,0-1.5-0.7-1.5-1.5v-10.2c0-0.8,0.7-1.5,1.5-1.5h10.7c0.8,0,1.5,0.7,1.5,1.5v10.2
				C169.4,172.8,168.7,173.4,167.9,173.4z M157.2,161.2c-0.3,0-0.5,0.2-0.5,0.5v10.2c0,0.3,0.2,0.5,0.5,0.5h10.7
				c0.3,0,0.5-0.2,0.5-0.5v-10.2c0-0.3-0.2-0.5-0.5-0.5H157.2z"/>
		</g>
		<g>
			<path class="st1" d="M94.9,208.2H84c-3.3,0-6-2.7-6-6v-10.1c0-3.3,2.7-6,6-6h10.9c3.3,0,6,2.7,6,6v10.1
				C100.9,205.5,98.2,208.2,94.9,208.2z M84,188.1c-2.2,0-4,1.8-4,4v10.1c0,2.2,1.8,4,4,4h10.9c2.2,0,4-1.8,4-4v-10.1
				c0-2.2-1.8-4-4-4H84z"/>
		</g>
		<g>
			<path class="st1" d="M94.8,203.8H84.1c-0.8,0-1.5-0.7-1.5-1.5v-10.2c0-0.8,0.7-1.5,1.5-1.5h10.7c0.8,0,1.5,0.7,1.5,1.5v10.2
				C96.3,203.1,95.6,203.8,94.8,203.8z M84.1,191.6c-0.3,0-0.5,0.2-0.5,0.5v10.2c0,0.3,0.2,0.5,0.5,0.5h10.7c0.3,0,0.5-0.2,0.5-0.5
				v-10.2c0-0.3-0.2-0.5-0.5-0.5H84.1z"/>
		</g>
		<g>
			<path class="st1" d="M131.4,208.2h-10.9c-3.3,0-6-2.7-6-6v-10.1c0-3.3,2.7-6,6-6h10.9c3.3,0,6,2.7,6,6v10.1
				C137.4,205.5,134.7,208.2,131.4,208.2z M120.6,188.1c-2.2,0-4,1.8-4,4v10.1c0,2.2,1.8,4,4,4h10.9c2.2,0,4-1.8,4-4v-10.1
				c0-2.2-1.8-4-4-4H120.6z"/>
		</g>
		<g>
			<path class="st1" d="M131.3,203.8h-10.7c-0.8,0-1.5-0.7-1.5-1.5v-10.2c0-0.8,0.7-1.5,1.5-1.5h10.7c0.8,0,1.5,0.7,1.5,1.5v10.2
				C132.8,203.1,132.2,203.8,131.3,203.8z M120.7,191.6c-0.3,0-0.5,0.2-0.5,0.5v10.2c0,0.3,0.2,0.5,0.5,0.5h10.7
				c0.3,0,0.5-0.2,0.5-0.5v-10.2c0-0.3-0.2-0.5-0.5-0.5H120.7z"/>
		</g>
		<g>
			<path class="st1" d="M152.1,216.7c-0.6,0-1-0.4-1-1v-1.3c0-0.6,0.4-1,1-1s1,0.4,1,1v1.3C153.1,216.2,152.7,216.7,152.1,216.7z"/>
		</g>
		<g>
			<path class="st1" d="M167.8,238.6h-10.6c-3.4,0-6.1-2.7-6.1-5.9v-14c0-0.6,0.4-1,1-1s1,0.4,1,1v14c0,2.2,1.9,3.9,4.1,3.9h10.6
				c2.3,0,4.1-1.8,4.1-3.9v-40.6c0-2.2-1.9-3.9-4.1-3.9h-10.6c-2.3,0-4.1,1.8-4.1,3.9v16.7c0,0.6-0.4,1-1,1s-1-0.4-1-1v-16.7
				c0-3.3,2.8-5.9,6.1-5.9h10.6c3.4,0,6.1,2.7,6.1,5.9v40.6C174,235.9,171.2,238.6,167.8,238.6z"/>
		</g>
		<g>
			<path class="st1" d="M167.8,234.1h-10.6c-0.8,0-1.5-0.7-1.5-1.5v-40.6c0-0.8,0.7-1.5,1.5-1.5h10.6c0.8,0,1.5,0.7,1.5,1.5v40.6
				C169.4,233.5,168.7,234.1,167.8,234.1z M157.2,191.6c-0.3,0-0.5,0.2-0.5,0.5v40.6c0,0.3,0.2,0.5,0.5,0.5h10.6
				c0.3,0,0.5-0.2,0.5-0.5v-40.6c0-0.3-0.2-0.5-0.5-0.5H157.2z"/>
		</g>
		<g>
			<path class="st1" d="M94.9,238.6H84c-3.3,0-6-2.7-6-6v-10.1c0-3.3,2.7-6,6-6h10.9c3.3,0,6,2.7,6,6v10.1
				C100.9,235.9,98.2,238.6,94.9,238.6z M84,218.5c-2.2,0-4,1.8-4,4v10.1c0,2.2,1.8,4,4,4h10.9c2.2,0,4-1.8,4-4v-10.1
				c0-2.2-1.8-4-4-4H84z"/>
		</g>
		<path class="st2" d="M86.1,232.6v-10.2c0-0.6,0.4-1,1-1h10.7c0.6,0,1,0.4,1,1v10.2c0,0.6-0.4,1-1,1H87.1
			C86.6,233.6,86.1,233.2,86.1,232.6z"/>
		<path class="st2" d="M122.7,232.6v-10.2c0-0.6,0.4-1,1-1h10.7c0.6,0,1,0.4,1,1v10.2c0,0.6-0.4,1-1,1h-10.7
			C123.1,233.6,122.7,233.2,122.7,232.6z"/>
		<g>
			<path class="st1" d="M94.8,234.1H84.1c-0.8,0-1.5-0.7-1.5-1.5v-10.2c0-0.8,0.7-1.5,1.5-1.5h10.7c0.8,0,1.5,0.7,1.5,1.5v10.2
				C96.3,233.5,95.6,234.1,94.8,234.1z M84.1,221.9c-0.3,0-0.5,0.2-0.5,0.5v10.2c0,0.3,0.2,0.5,0.5,0.5h10.7c0.3,0,0.5-0.2,0.5-0.5
				v-10.2c0-0.3-0.2-0.5-0.5-0.5H84.1z"/>
		</g>
		<g>
			<path class="st1" d="M131.4,238.6h-10.9c-3.3,0-6-2.7-6-6v-10.1c0-3.3,2.7-6,6-6h10.9c3.3,0,6,2.7,6,6v10.1
				C137.4,235.9,134.7,238.6,131.4,238.6z M120.6,218.5c-2.2,0-4,1.8-4,4v10.1c0,2.2,1.8,4,4,4h10.9c2.2,0,4-1.8,4-4v-10.1
				c0-2.2-1.8-4-4-4H120.6z"/>
		</g>
		<g>
			<path class="st1" d="M131.3,234.1h-10.7c-0.8,0-1.5-0.7-1.5-1.5v-10.2c0-0.8,0.7-1.5,1.5-1.5h10.7c0.8,0,1.5,0.7,1.5,1.5v10.2
				C132.8,233.5,132.2,234.1,131.3,234.1z M120.7,221.9c-0.3,0-0.5,0.2-0.5,0.5v10.2c0,0.3,0.2,0.5,0.5,0.5h10.7
				c0.3,0,0.5-0.2,0.5-0.5v-10.2c0-0.3-0.2-0.5-0.5-0.5H120.7z"/>
		</g>
		<g>
			<path class="st1" d="M177.7,82.9H74.3c-0.6,0-1-0.4-1-1s0.4-1,1-1h103.3c0.6,0,1,0.4,1,1S178.2,82.9,177.7,82.9z"/>
		</g>
		<g>
			<path class="st1" d="M164.3,76.3h-12.2c-0.3,0-0.5-0.2-0.5-0.5V15c0-2.6,1.8-4.8,4.3-5.3c0.4-0.1,0.7-0.1,1.1-0.1h2.3
				c3,0,5.4,2.4,5.4,5.4v41c0,0.3-0.2,0.5-0.5,0.5s-0.5-0.2-0.5-0.5V15c0-2.5-2-4.4-4.4-4.4h-2.3c-0.3,0-0.6,0-0.9,0.1
				c-2.1,0.4-3.5,2.2-3.5,4.4v60.3h11.2V62.1c0-0.3,0.2-0.5,0.5-0.5s0.5,0.2,0.5,0.5v13.7C164.8,76.1,164.6,76.3,164.3,76.3z"/>
		</g>
		<g>
			<path class="st1" d="M158.2,76.3c-0.3,0-0.5-0.2-0.5-0.5V16.4c0-0.3,0.2-0.5,0.5-0.5s0.5,0.2,0.5,0.5v59.5
				C158.7,76.1,158.5,76.3,158.2,76.3z"/>
		</g>
		<g>
			<path class="st1" d="M82.7,46.7c-0.6,0-1-0.4-1-1v-2.7c0-0.6,0.4-1,1-1s1,0.4,1,1v2.7C83.7,46.2,83.3,46.7,82.7,46.7z"/>
		</g>
		<g>
			<path class="st1" d="M147.2,82.9H82.7c-0.6,0-1-0.4-1-1V50.2c0-0.6,0.4-1,1-1s1,0.4,1,1v30.7h62.5V15c0-3.6,1.8-6.9,4.6-8.9H92.6
				c-4.9,0-8.9,4-8.9,8.9v20.3c0,0.6-0.4,1-1,1s-1-0.4-1-1V15c0-6,4.9-10.9,10.9-10.9h62.5c0.6,0,1,0.4,1,1v0.2c0,0.5-0.3,0.9-0.8,1
				c-4.1,0.8-7.1,4.5-7.1,8.7v66.8C148.2,82.4,147.7,82.9,147.2,82.9z"/>
		</g>
		<g>
			<path class="st1" d="M133.8,44H89.2c-0.3,0-0.5-0.2-0.5-0.5s0.2-0.5,0.5-0.5h44.7c0.3,0,0.5,0.2,0.5,0.5S134.1,44,133.8,44z"/>
		</g>
		<g>
			<path class="st1" d="M138.8,54.6H89.2c-0.3,0-0.5-0.2-0.5-0.5s0.2-0.5,0.5-0.5h49.6c0.3,0,0.5,0.2,0.5,0.5S139.1,54.6,138.8,54.6
				z"/>
		</g>
		<g>
			<path class="st1" d="M128.9,65.1H89.2c-0.3,0-0.5-0.2-0.5-0.5s0.2-0.5,0.5-0.5h39.7c0.3,0,0.5,0.2,0.5,0.5S129.2,65.1,128.9,65.1
				z"/>
		</g>
		<g>
			<path class="st1" d="M128.9,32.8H89.2c-0.3,0-0.5-0.2-0.5-0.5s0.2-0.5,0.5-0.5h39.7c0.3,0,0.5,0.2,0.5,0.5S129.2,32.8,128.9,32.8
				z"/>
		</g>
		<g>
			<path class="st1" d="M138.8,21.6H89.2c-0.3,0-0.5-0.2-0.5-0.5s0.2-0.5,0.5-0.5h49.6c0.3,0,0.5,0.2,0.5,0.5S139.1,21.6,138.8,21.6
				z"/>
		</g>
	</g>
</g>
</svg>
