<?xml version="1.0" encoding="utf-8"?>
<!-- Generator: Adobe Illustrator 22.1.0, SVG Export Plug-In . SVG Version: 6.00 Build 0)  -->
<svg version="1.1" id="Layer_1" xmlns="http://www.w3.org/2000/svg" xmlns:xlink="http://www.w3.org/1999/xlink" x="0px" y="0px"
	 viewBox="0 0 256 256" style="enable-background:new 0 0 256 256;" xml:space="preserve">
<style type="text/css">
	.st0{fill:#DBFDFF;}
	.st1{fill:#FFFFFF;}
	.st2{fill:#FEBE7F;}
	.st3{fill:#48386A;}
	.st4{fill:#9FEAFF;}
	.st5{fill:#FF8584;}
	.st6{fill:#FFFFED;}
</style>
<g>
	<path class="st0" d="M239,110.8c0-25.8-19.4-47.1-44.4-50.1c0-0.1,0-0.3,0-0.4c0-27.9-22.6-50.5-50.5-50.5S93.6,32.4,93.6,60.3
		c0,25.8,19.4,47.1,44.4,50.1c0,0.1,0,0.3,0,0.4c0,2.6,0.2,5.1,0.6,7.6c-3.7,6.9-5.9,14.8-6,23.1c-23.5,4.3-41.3,24.9-41.3,49.7
		c0,27.9,22.6,50.5,50.5,50.5c27.6,0,50.1-22.2,50.5-49.7c23.5-4.3,41.3-24.9,41.3-49.7c0-2.6-0.2-5.1-0.6-7.6
		C236.8,127.6,239,119.5,239,110.8z"/>
	<g>
		<path class="st1" d="M193.1,113.6V95.2h9.2v55.7c-1.5-0.5-3-0.8-4.6-0.8s-3.2,0.3-4.6,0.8v-29.8V113.6z"/>
		<path class="st1" d="M215.7,52.5v37.3c0,3-2.4,5.4-5.4,5.4h-25c-3,0-5.4-2.4-5.4-5.4V52.5c0-3,2.4-5.4,5.4-5.4h25
			C213.3,47,215.7,49.5,215.7,52.5z"/>
		<rect x="170.5" y="62.1" class="st1" width="9.3" height="18"/>
		
			<rect x="215.7" y="62.1" transform="matrix(-1 -1.224647e-16 1.224647e-16 -1 440.7213 142.2303)" class="st1" width="9.3" height="18"/>
		<path class="st1" d="M193.1,113.6V95.2h9.2v55.7c-1.5-0.5-3-0.8-4.6-0.8s-3.2,0.3-4.6,0.8v-29.8V113.6z"/>
		<path class="st1" d="M139.3,132v58.9H25.1c-10.8,0-19.6,8.8-19.6,19.6V36.8c0-6,4.9-10.9,10.9-10.9h36.3h11h75.7v84.6V132z"/>
		<rect x="191.7" y="47" class="st2" width="19" height="48.1"/>
		<g>
			<path class="st3" d="M5.5,211.9c-0.6,0-1-0.4-1-1v-0.4c0-0.6,0.4-1,1-1s1,0.4,1,1v0.1c0,0.1,0,0.1,0,0.2c0,0.3-0.1,0.6-0.3,0.8
				S5.8,211.9,5.5,211.9z"/>
		</g>
		<rect x="21" y="36.8" class="st4" width="109.9" height="143.3"/>
		<g>
			<path class="st3" d="M139.3,127.7c-0.6,0-1-0.4-1-1v-7.2c0-0.6,0.4-1,1-1s1,0.4,1,1v7.2C140.3,127.3,139.8,127.7,139.3,127.7z"/>
		</g>
		<g>
			<path class="st5" d="M139.3,132v58.9H25.1c-10.8,0-19.6,8.8-19.6,19.6V36.8c0-6,4.9-10.9,10.9-10.9h36.3h11h75.7v84.6V132z"/>
			<path class="st3" d="M5.5,211.5c-0.6,0-1-0.4-1-1V36.8c0-6.5,5.3-11.9,11.9-11.9h122.9c0.6,0,1,0.4,1,1v84.6c0,0.6-0.4,1-1,1
				s-1-0.4-1-1V26.9H16.4c-5.4,0-9.9,4.4-9.9,9.9v164.9c3.3-6.9,10.4-11.7,18.6-11.7h113.2V132c0-0.6,0.4-1,1-1s1,0.4,1,1v58.9
				c0,0.6-0.4,1-1,1H25.1c-10.2,0-18.6,8.3-18.6,18.6C6.5,211.1,6,211.5,5.5,211.5z"/>
		</g>
		<path class="st2" d="M83.4,230.1H28.6c-5.4,0-10.3-2.2-13.8-5.7c-3.5-3.5-5.6-8.2-5.7-13.5c0-0.1,0-0.2,0-0.4
			c0-10.8,8.8-19.6,19.6-19.6h114.2v5.4H28.6c-7.8,0-14.1,6.3-14.1,14.1l0,0.1v0.2c0.1,3.7,1.5,7.1,4.1,9.7c2.7,2.7,6.2,4.1,10,4.1
			h114.2v5.4H97.3H83.4z"/>
		<g>
			<path class="st3" d="M139.3,231.1H93.8c-0.6,0-1-0.4-1-1s0.4-1,1-1h44.5v-3.4H25.1c-4.1,0-7.9-1.6-10.7-4.4
				c-2.8-2.8-4.4-6.5-4.4-10.4v-0.2c0-0.1,0-0.1,0-0.1c0-8.3,6.8-15.1,15.1-15.1h113.2v-3.4H25.1c-10.2,0-18.6,8.3-18.6,18.6
				c0,0.1,0,0.2,0,0.3c0.1,4.9,2,9.4,5.4,12.9c3.5,3.5,8.2,5.4,13.1,5.4h54.9c0.6,0,1,0.4,1,1s-0.4,1-1,1H25.1
				c-5.5,0-10.7-2.1-14.6-6c-3.8-3.8-5.9-8.8-6-14.2c0-0.1,0-0.2,0-0.4c0-11.3,9.2-20.6,20.6-20.6h114.2c0.6,0,1,0.4,1,1v5.4
				c0,0.6-0.4,1-1,1H25.1c-7.2,0-13.1,5.9-13.1,13.1c0,0,0,0.1,0,0.1v0.2c0,3.4,1.4,6.6,3.8,9c2.5,2.5,5.8,3.9,9.3,3.9h114.2
				c0.6,0,1,0.4,1,1v5.4C140.3,230.6,139.8,231.1,139.3,231.1z"/>
		</g>
		<g>
			<path class="st3" d="M133.9,225.6H25.1c-4,0-7.9-1.6-10.7-4.4c-2.8-2.8-4.4-6.5-4.4-10.4l0-0.2c0-8.4,6.8-15.2,15.1-15.2h108.8
				c0.6,0,1,0.4,1,1v28.3C134.9,225.2,134.4,225.6,133.9,225.6z M25.1,197.4c-7.2,0-13.1,5.9-13.1,13.1l0,0.2c0.1,3.4,1.4,6.6,3.8,9
				c2.5,2.5,5.8,3.8,9.3,3.8h107.8v-26.3H25.1z"/>
		</g>
		<g>
			<path class="st6" d="M25.1,224.6c-3.8,0-7.3-1.5-10-4.1c-2.6-2.6-4.1-6.1-4.1-9.7l0-0.2l0-0.1c0-7.8,6.4-14.1,14.1-14.1h108.8
				v28.3H25.1z"/>
			<path class="st3" d="M133.9,225.6H25.1c-4,0-7.9-1.6-10.7-4.4c-2.8-2.8-4.4-6.5-4.4-10.4l0-0.2c0-8.4,6.8-15.2,15.1-15.2h108.8
				c0.6,0,1,0.4,1,1v28.3C134.9,225.2,134.4,225.6,133.9,225.6z M25.1,197.4c-7.2,0-13.1,5.9-13.1,13.1l0,0.2c0.1,3.4,1.4,6.6,3.8,9
				c2.5,2.5,5.8,3.8,9.3,3.8h107.8v-26.3H25.1z"/>
		</g>
		<g>
			<path class="st3" d="M115.9,211H23.6c-0.3,0-0.5-0.2-0.5-0.5s0.2-0.5,0.5-0.5h92.3c0.3,0,0.5,0.2,0.5,0.5S116.2,211,115.9,211z"
				/>
		</g>
		<g>
			<path class="st3" d="M119.2,219.4H29.8c-0.3,0-0.5-0.2-0.5-0.5s0.2-0.5,0.5-0.5h89.4c0.3,0,0.5,0.2,0.5,0.5
				S119.4,219.4,119.2,219.4z"/>
		</g>
		<g>
			<path class="st3" d="M120.6,203.5H99.1c-0.3,0-0.5-0.2-0.5-0.5s0.2-0.5,0.5-0.5h21.5c0.3,0,0.5,0.2,0.5,0.5
				S120.9,203.5,120.6,203.5z"/>
		</g>
		<g>
			<path class="st3" d="M88.8,203.5H26.5c-0.3,0-0.5-0.2-0.5-0.5s0.2-0.5,0.5-0.5h62.3c0.3,0,0.5,0.2,0.5,0.5S89.1,203.5,88.8,203.5
				z"/>
		</g>
		<g>
			<path class="st3" d="M127.3,181.1H17.5c-0.6,0-1-0.4-1-1V36.8c0-0.6,0.4-1,1-1h109.9c0.6,0,1,0.4,1,1v143.3
				C128.3,180.7,127.9,181.1,127.3,181.1z M18.5,179.1h107.9V37.8H18.5V179.1z"/>
		</g>
		<g>
			<polygon class="st1" points="22.9,83.2 22.9,42.2 121.9,42.2 121.9,174.7 22.9,174.7 22.9,91.7 			"/>
			<path class="st3" d="M121.9,175.2h-99c-0.3,0-0.5-0.2-0.5-0.5v-83c0-0.3,0.2-0.5,0.5-0.5s0.5,0.2,0.5,0.5v82.5h98V42.7h-98v40.5
				c0,0.3-0.2,0.5-0.5,0.5s-0.5-0.2-0.5-0.5v-41c0-0.3,0.2-0.5,0.5-0.5h99c0.3,0,0.5,0.2,0.5,0.5v132.4
				C122.4,175,122.2,175.2,121.9,175.2z"/>
		</g>
		<path class="st4" d="M105.4,94.7H46.4c-2.8,0-5-2.2-5-5v-0.9c0-2.8,2.2-5,5-5h59.1c2.8,0,5,2.2,5,5v0.9
			C110.4,92.5,108.2,94.7,105.4,94.7z"/>
		<path class="st4" d="M69.6,137.2H56.7c-2.9,0-5.3-2.4-5.3-5.3v-0.2c0-2.9,2.4-5.3,5.3-5.3h38.3c2.9,0,5.3,2.4,5.3,5.3v0.2
			c0,2.9-2.4,5.3-5.3,5.3H80.9H69.6z"/>
		<g>
			<path class="st3" d="M101.9,95.7H42.9c-3.3,0-6-2.7-6-6v-0.9c0-3.3,2.7-6,6-6h59.1c3.3,0,6,2.7,6,6v0.9
				C107.9,93,105.2,95.7,101.9,95.7z M42.9,84.8c-2.2,0-4,1.8-4,4v0.9c0,2.2,1.8,4,4,4h59.1c2.2,0,4-1.8,4-4v-0.9c0-2.2-1.8-4-4-4
				H42.9z"/>
		</g>
		<g>
			<path class="st3" d="M111.9,116.9H32.9c-3.3,0-6-2.7-6-6v-0.9c0-3.3,2.7-6,6-6h78.9c3.3,0,6,2.7,6,6v0.9
				C117.9,114.3,115.2,116.9,111.9,116.9z M32.9,106.1c-2.2,0-4,1.8-4,4v0.9c0,2.2,1.8,4,4,4h78.9c2.2,0,4-1.8,4-4v-0.9
				c0-2.2-1.8-4-4-4H32.9z"/>
		</g>
		<g>
			<path class="st3" d="M91.6,138.2H77.4c-0.6,0-1-0.4-1-1s0.4-1,1-1h14.1c2.4,0,4.3-1.9,4.3-4.3v-0.2c0-2.4-1.9-4.3-4.3-4.3H53.2
				c-2.4,0-4.3,1.9-4.3,4.3v0.2c0,2.4,1.9,4.3,4.3,4.3h12.9c0.6,0,1,0.4,1,1s-0.4,1-1,1H53.2c-3.5,0-6.3-2.8-6.3-6.3v-0.2
				c0-3.5,2.8-6.3,6.3-6.3h38.3c3.5,0,6.3,2.8,6.3,6.3v0.2C97.9,135.3,95,138.2,91.6,138.2z"/>
		</g>
		<g>
			<path class="st3" d="M210.3,96.2h-25c-3.6,0-6.4-2.9-6.4-6.4V52.5c0-3.6,2.9-6.4,6.4-6.4h25c3.5,0,6.4,2.9,6.4,6.4v37.3
				C216.7,93.3,213.8,96.2,210.3,96.2z M185.2,48c-2.4,0-4.4,2-4.4,4.4v37.3c0,2.4,2,4.4,4.4,4.4h25c2.4,0,4.4-2,4.4-4.4V52.5
				c0-2.4-2-4.4-4.4-4.4H185.2z"/>
		</g>
		<g>
			<path class="st3" d="M179.8,81.1h-9.3c-0.6,0-1-0.4-1-1v-18c0-0.6,0.4-1,1-1h9.3c0.6,0,1,0.4,1,1v18
				C180.8,80.7,180.3,81.1,179.8,81.1z M171.5,79.1h7.3v-16h-7.3V79.1z"/>
		</g>
		<g>
			<path class="st3" d="M225,81.1h-9.3c-0.6,0-1-0.4-1-1v-18c0-0.6,0.4-1,1-1h9.3c0.6,0,1,0.4,1,1v18C226,80.7,225.6,81.1,225,81.1z
				 M216.7,79.1h7.3v-16h-7.3V79.1z"/>
		</g>
		<g>
			<path class="st3" d="M202.4,151.9c-0.1,0-0.2,0-0.3-0.1c-2.8-0.9-5.9-0.9-8.6,0c-0.3,0.1-0.6,0.1-0.9-0.1s-0.4-0.5-0.4-0.8v-29.8
				c0-0.6,0.4-1,1-1s1,0.4,1,1v28.5c2.4-0.6,4.9-0.6,7.2,0V96.2h-7.2v17.4c0,0.6-0.4,1-1,1s-1-0.4-1-1V95.2c0-0.6,0.4-1,1-1h9.2
				c0.6,0,1,0.4,1,1v55.7c0,0.3-0.2,0.6-0.4,0.8C202.8,151.8,202.6,151.9,202.4,151.9z"/>
		</g>
		<g>
			<path class="st3" d="M210.3,96.2h-25c-3.6,0-6.4-2.9-6.4-6.4V52.5c0-3.6,2.9-6.4,6.4-6.4h25c3.5,0,6.4,2.9,6.4,6.4v37.3
				C216.7,93.3,213.8,96.2,210.3,96.2z M185.2,48c-2.4,0-4.4,2-4.4,4.4v37.3c0,2.4,2,4.4,4.4,4.4h25c2.4,0,4.4-2,4.4-4.4V52.5
				c0-2.4-2-4.4-4.4-4.4H185.2z"/>
		</g>
		<path class="st2" d="M169,95.2h-13.4c-2.8,0-5-2.2-5-5V52c0-2.8,2.2-5,5-5H169c2.8,0,5,2.2,5,5v38.1C174,92.9,171.7,95.2,169,95.2
			z"/>
		<path class="st2" d="M251.9,76.3v13.6c0,2.9-2.4,5.3-5.3,5.3h-12.8c-2.9,0-5.3-2.4-5.3-5.3V52.4c0-2.9,2.4-5.3,5.3-5.3h12.8
			c2.9,0,5.3,2.4,5.3,5.3v15.8V76.3z"/>
		<g>
			<path class="st3" d="M207.3,95.7h-19c-0.3,0-0.5-0.2-0.5-0.5V47c0-0.3,0.2-0.5,0.5-0.5h19c0.3,0,0.5,0.2,0.5,0.5v48.1
				C207.8,95.5,207.5,95.7,207.3,95.7z M188.7,94.7h18V47.5h-18V94.7z"/>
		</g>
		<g>
			<path class="st3" d="M179.8,81.1h-9.3c-0.6,0-1-0.4-1-1v-18c0-0.6,0.4-1,1-1h9.3c0.6,0,1,0.4,1,1v18
				C180.8,80.7,180.3,81.1,179.8,81.1z M171.5,79.1h7.3v-16h-7.3V79.1z"/>
		</g>
		<g>
			<path class="st3" d="M165.5,96.2h-13.4c-3.3,0-6-2.7-6-6V52c0-3.3,2.7-6,6-6h13.4c3.3,0,6,2.7,6,6v38.1
				C171.5,93.5,168.8,96.2,165.5,96.2z M152.1,48c-2.2,0-4,1.8-4,4v38.1c0,2.2,1.8,4,4,4h13.4c2.2,0,4-1.8,4-4V52c0-2.2-1.8-4-4-4
				H152.1z"/>
		</g>
		<g>
			<path class="st3" d="M225,81.1h-9.3c-0.6,0-1-0.4-1-1v-18c0-0.6,0.4-1,1-1h9.3c0.6,0,1,0.4,1,1v18C226,80.7,225.6,81.1,225,81.1z
				 M216.7,79.1h7.3v-16h-7.3V79.1z"/>
		</g>
		<g>
			<path class="st3" d="M243.1,96.2h-12.8c-3.5,0-6.3-2.8-6.3-6.3V52.4c0-3.5,2.8-6.3,6.3-6.3h12.8c3.5,0,6.3,2.8,6.3,6.3v15.8
				c0,0.6-0.4,1-1,1s-1-0.4-1-1V52.4c0-2.4-1.9-4.3-4.3-4.3h-12.8c-2.4,0-4.3,1.9-4.3,4.3v37.5c0,2.4,1.9,4.3,4.3,4.3h12.8
				c2.4,0,4.3-1.9,4.3-4.3V76.3c0-0.6,0.4-1,1-1s1,0.4,1,1v13.6C249.4,93.4,246.6,96.2,243.1,96.2z"/>
		</g>
		<g>
			<path class="st3" d="M158.8,95.7c-0.3,0-0.5-0.2-0.5-0.5v-27c0-0.3,0.2-0.5,0.5-0.5s0.5,0.2,0.5,0.5v27
				C159.3,95.5,159,95.7,158.8,95.7z"/>
		</g>
		<g>
			<path class="st3" d="M158.8,60.3c-0.3,0-0.5-0.2-0.5-0.5V47c0-0.3,0.2-0.5,0.5-0.5s0.5,0.2,0.5,0.5v12.7
				C159.3,60,159,60.3,158.8,60.3z"/>
		</g>
		<g>
			<path class="st3" d="M236.7,95.7c-0.3,0-0.5-0.2-0.5-0.5V47c0-0.3,0.2-0.5,0.5-0.5s0.5,0.2,0.5,0.5v48.1
				C237.2,95.5,237,95.7,236.7,95.7z"/>
		</g>
		<g>
			<path class="st3" d="M202.4,151.9c-0.1,0-0.2,0-0.3-0.1c-2.8-0.9-5.9-0.9-8.6,0c-0.3,0.1-0.6,0.1-0.9-0.1s-0.4-0.5-0.4-0.8v-29.8
				c0-0.6,0.4-1,1-1s1,0.4,1,1v28.5c2.4-0.6,4.9-0.6,7.2,0V96.2h-7.2v17.4c0,0.6-0.4,1-1,1s-1-0.4-1-1V95.2c0-0.6,0.4-1,1-1h9.2
				c0.6,0,1,0.4,1,1v55.7c0,0.3-0.2,0.6-0.4,0.8C202.8,151.8,202.6,151.9,202.4,151.9z"/>
		</g>
		<path class="st5" d="M186.6,196.4v-31.5c0-6.5,4.2-12,10.1-13.9c1.5-0.5,3-0.8,4.6-0.8s3.2,0.3,4.6,0.8c2.2,0.7,4.2,1.9,5.8,3.5
			c2.7,2.7,4.3,6.3,4.3,10.4v50.6c0,8.1-6.6,14.7-14.7,14.7c-8.1,0-14.7-6.6-14.7-14.7v-9.6V196.4z"/>
		<g>
			<path class="st3" d="M197.7,231.1c-8.6,0-15.7-7-15.7-15.7v-9.6c0-0.6,0.4-1,1-1s1,0.4,1,1v9.6c0,7.5,6.1,13.7,13.7,13.7
				c7.5,0,13.7-6.1,13.7-13.7v-50.6c0-3.7-1.4-7.1-4-9.7c-1.5-1.5-3.4-2.6-5.4-3.3c-2.8-0.9-5.9-0.9-8.6,0c-5.6,1.9-9.4,7.1-9.4,13
				v31.5c0,0.6-0.4,1-1,1s-1-0.4-1-1v-31.5c0-6.8,4.3-12.8,10.7-14.9c3.2-1.1,6.7-1.1,9.9,0c2.3,0.8,4.4,2.1,6.2,3.8
				c3,3,4.6,6.9,4.6,11.1v50.6C213.4,224,206.4,231.1,197.7,231.1z"/>
		</g>
		<g>
			<path class="st1" d="M207,183.5v31.9c0,5.1-4.1,9.2-9.2,9.2c-5.1,0-9.2-4.1-9.2-9.2v-50.6c0-4,2.5-7.5,6.3-8.8
				c1-0.3,1.9-0.5,2.9-0.5s2,0.2,2.9,0.5c1.4,0.5,2.6,1.2,3.7,2.2c1.7,1.7,2.7,4.1,2.7,6.5v9.9V183.5z"/>
			<path class="st3" d="M197.7,225.1c-5.4,0-9.7-4.4-9.7-9.7v-50.6c0-4.2,2.7-7.9,6.7-9.2c2-0.7,4.2-0.7,6.1,0
				c1.4,0.5,2.8,1.3,3.8,2.4c1.8,1.8,2.9,4.3,2.9,6.9v9.9c0,0.3-0.2,0.5-0.5,0.5s-0.5-0.2-0.5-0.5v-9.9c0-2.3-0.9-4.5-2.6-6.2
				c-1-1-2.2-1.7-3.5-2.1c-1.8-0.6-3.7-0.6-5.5,0c-3.6,1.2-6,4.5-6,8.3v50.6c0,4.8,3.9,8.7,8.7,8.7s8.7-3.9,8.7-8.7v-31.9
				c0-0.3,0.2-0.5,0.5-0.5s0.5,0.2,0.5,0.5v31.9C207.5,220.8,203.1,225.1,197.7,225.1z"/>
		</g>
	</g>
	<g>
		<path class="st3" d="M220.6,146.3c-1.6,0-3-1.3-3-3s1.3-3,3-3s3,1.3,3,3S222.3,146.3,220.6,146.3z M220.6,141.3c-1.1,0-2,0.9-2,2
			s0.9,2,2,2c1.1,0,2-0.9,2-2S221.7,141.3,220.6,141.3z"/>
	</g>
	<g>
		<path class="st5" d="M165.1,116.2c-1.6,0-3-1.3-3-3s1.3-3,3-3s3,1.3,3,3S166.8,116.2,165.1,116.2z M165.1,111.2c-1.1,0-2,0.9-2,2
			s0.9,2,2,2s2-0.9,2-2S166.2,111.2,165.1,111.2z"/>
	</g>
	<g>
		<path class="st3" d="M165.9,177.9c0,0-0.1,0-0.1,0l-1-0.3c-0.3-0.1-0.4-0.4-0.3-0.6c0.1-0.3,0.4-0.4,0.6-0.3l0.1,0l-0.5-1.8
			c0-0.1,0-0.2,0-0.3l0.5-1.8l-1.8,0.5c-0.1,0-0.2,0-0.3,0l-1.8-0.5l0.5,1.8c0,0.1,0,0.2,0,0.3l-0.5,1.8l1.8-0.5
			c0.3-0.1,0.5,0.1,0.6,0.3c0.1,0.3-0.1,0.5-0.3,0.6l-2.7,0.8c-0.2,0.1-0.4,0-0.5-0.1c-0.1-0.1-0.2-0.3-0.1-0.5l0.8-2.6l-0.8-2.6
			c-0.1-0.2,0-0.4,0.1-0.5c0.1-0.1,0.3-0.2,0.5-0.1l2.6,0.8l2.6-0.8c0.2-0.1,0.4,0,0.5,0.1c0.1,0.1,0.2,0.3,0.1,0.5l-0.8,2.6
			l0.8,2.6c0.1,0.2,0,0.4-0.1,0.5C166.1,177.8,166,177.9,165.9,177.9z"/>
	</g>
	<g>
		<path class="st2" d="M215.2,116.4c-0.1,0-0.3-0.1-0.4-0.1c-0.1-0.1-0.2-0.3-0.1-0.5l0.8-2.6l-0.8-2.6c-0.1-0.2,0-0.4,0.1-0.5
			c0.1-0.1,0.3-0.2,0.5-0.1l2.6,0.8l2.6-0.8c0.2-0.1,0.4,0,0.5,0.1s0.2,0.3,0.1,0.5l-0.8,2.6l0.8,2.6c0.1,0.2,0,0.4-0.1,0.5
			s-0.3,0.2-0.5,0.1l-1-0.3c-0.3-0.1-0.4-0.4-0.3-0.6c0.1-0.3,0.4-0.4,0.6-0.3l0.1,0l-0.5-1.8c0-0.1,0-0.2,0-0.3l0.5-1.8l-1.8,0.5
			c-0.1,0-0.2,0-0.3,0l-1.8-0.5l0.5,1.8c0,0.1,0,0.2,0,0.3l-0.5,1.8l1.8-0.5c0.3-0.1,0.5,0.1,0.6,0.3c0.1,0.3-0.1,0.5-0.3,0.6
			l-2.7,0.8C215.3,116.4,215.2,116.4,215.2,116.4z"/>
	</g>
	<g>
		<g>
			<path class="st5" d="M156.3,28.9c-0.3,0-0.5-0.2-0.5-0.5v-2.4c0-0.3,0.2-0.5,0.5-0.5s0.5,0.2,0.5,0.5v2.4
				C156.8,28.6,156.6,28.9,156.3,28.9z"/>
		</g>
		<g>
			<path class="st5" d="M156.3,34.7c-0.3,0-0.5-0.2-0.5-0.5v-2.4c0-0.3,0.2-0.5,0.5-0.5s0.5,0.2,0.5,0.5v2.4
				C156.8,34.5,156.6,34.7,156.3,34.7z"/>
		</g>
		<g>
			<path class="st5" d="M160.4,30.6H158c-0.3,0-0.5-0.2-0.5-0.5s0.2-0.5,0.5-0.5h2.4c0.3,0,0.5,0.2,0.5,0.5S160.7,30.6,160.4,30.6z"
				/>
		</g>
		<g>
			<path class="st5" d="M154.6,30.6h-2.4c-0.3,0-0.5-0.2-0.5-0.5s0.2-0.5,0.5-0.5h2.4c0.3,0,0.5,0.2,0.5,0.5S154.9,30.6,154.6,30.6z
				"/>
		</g>
	</g>
	<g>
		<g>
			<path class="st2" d="M155.1,135.9c-0.3,0-0.5-0.2-0.5-0.5V133c0-0.3,0.2-0.5,0.5-0.5s0.5,0.2,0.5,0.5v2.4
				C155.6,135.7,155.4,135.9,155.1,135.9z"/>
		</g>
		<g>
			<path class="st2" d="M155.1,141.8c-0.3,0-0.5-0.2-0.5-0.5v-2.4c0-0.3,0.2-0.5,0.5-0.5s0.5,0.2,0.5,0.5v2.4
				C155.6,141.6,155.4,141.8,155.1,141.8z"/>
		</g>
		<g>
			<path class="st2" d="M159.2,137.7h-2.4c-0.3,0-0.5-0.2-0.5-0.5s0.2-0.5,0.5-0.5h2.4c0.3,0,0.5,0.2,0.5,0.5
				S159.5,137.7,159.2,137.7z"/>
		</g>
		<g>
			<path class="st2" d="M153.4,137.7h-2.4c-0.3,0-0.5-0.2-0.5-0.5s0.2-0.5,0.5-0.5h2.4c0.3,0,0.5,0.2,0.5,0.5
				S153.6,137.7,153.4,137.7z"/>
		</g>
	</g>
</g>
<g>
	<g>
		<path class="st4" d="M153.4,206.4c-0.3,0-0.5-0.2-0.5-0.5v-2.4c0-0.3,0.2-0.5,0.5-0.5s0.5,0.2,0.5,0.5v2.4
			C153.9,206.2,153.6,206.4,153.4,206.4z"/>
	</g>
	<g>
		<path class="st4" d="M153.4,212.3c-0.3,0-0.5-0.2-0.5-0.5v-2.4c0-0.3,0.2-0.5,0.5-0.5s0.5,0.2,0.5,0.5v2.4
			C153.9,212,153.6,212.3,153.4,212.3z"/>
	</g>
	<g>
		<path class="st4" d="M157.5,208.1h-2.4c-0.3,0-0.5-0.2-0.5-0.5s0.2-0.5,0.5-0.5h2.4c0.3,0,0.5,0.2,0.5,0.5
			S157.8,208.1,157.5,208.1z"/>
	</g>
	<g>
		<path class="st4" d="M151.7,208.1h-2.4c-0.3,0-0.5-0.2-0.5-0.5s0.2-0.5,0.5-0.5h2.4c0.3,0,0.5,0.2,0.5,0.5
			S151.9,208.1,151.7,208.1z"/>
	</g>
</g>
</svg>
