<?xml version="1.0" encoding="utf-8"?>
<!-- Generator: Adobe Illustrator 22.1.0, SVG Export Plug-In . SVG Version: 6.00 Build 0)  -->
<svg version="1.1" id="Layer_1" xmlns="http://www.w3.org/2000/svg" xmlns:xlink="http://www.w3.org/1999/xlink" x="0px" y="0px"
	 viewBox="0 0 256 256" style="enable-background:new 0 0 256 256;" xml:space="preserve">
<style type="text/css">
	.st0{fill:#DBFDFF;}
	.st1{fill:#FFFFFF;}
	.st2{fill:#48386A;}
	.st3{fill:#FEBE7F;}
	.st4{fill:#FF8584;}
	.st5{fill:#9FEAFF;}
	.st6{fill:#FFFFED;}
</style>
<g>
	<g>
		<path class="st0" d="M245.2,159.9c0-28.3-22.9-51.3-51.3-51.3c-7.9,0-15.4,1.8-22.1,5c-4-21.2-21.1-37.8-42.6-41.1
			c2-5.4,3-11.3,3-17.4C132.3,26.9,109.4,4,81.1,4S29.8,26.9,29.8,55.3c0,0.4,0,0.8,0,1.2C14.6,65.3,4.3,81.8,4.3,100.8
			c0,28.3,22.9,51.3,51.3,51.3c7.4,0,14.5-1.6,20.8-4.4c8.4,15.5,24.4,26.2,43.1,26.9c-3.4,6.8-5.3,14.5-5.3,22.6
			c0,28.3,22.9,51.3,51.3,51.3c11.5,0,22.2-3.8,30.7-10.2c0.4,0,0.8,0,1.2,0c28.3,0,51.3-22.9,51.3-51.3c0-6.9-1.4-13.6-3.9-19.6
			C245,164.9,245.2,162.4,245.2,159.9z"/>
		<g>
			<g>
				<path class="st1" d="M159.2,153c-15.3,15.3-40.1,15.3-55.4,0s-15.3-40.1,0-55.4c10.8-10.8,26.3-14,39.9-9.5
					c5.7,1.9,11,5,15.5,9.5c4.5,4.5,7.7,9.8,9.5,15.5C173.1,126.7,170,142.2,159.2,153z"/>
				<path class="st2" d="M131.4,165.5c-10.7,0-20.8-4.2-28.4-11.8S91.2,136,91.2,125.3s4.2-20.8,11.8-28.4
					c10.8-10.8,26.5-14.5,40.9-9.8c6,2,11.4,5.3,15.9,9.8c4.5,4.5,7.8,9.9,9.8,15.9c4.7,14.5,1,30.2-9.8,40.9l0,0
					C152.3,161.3,142.2,165.5,131.4,165.5z M131.4,87c-10,0-19.6,3.9-27,11.2c-7.2,7.2-11.2,16.8-11.2,27s4,19.8,11.2,27
					c7.2,7.2,16.8,11.2,27,11.2c10.2,0,19.8-4,27-11.2c10.2-10.2,13.8-25.1,9.3-38.9c-1.9-5.7-5-10.8-9.3-15.1
					c-4.3-4.3-9.4-7.4-15.1-9.3C139.4,87.7,135.4,87,131.4,87z M159.2,153L159.2,153L159.2,153z"/>
			</g>
			<g>
				<path class="st1" d="M107.9,142.1c-8.1-11.3-7-27.1,3.1-37.3c11.3-11.3,29.6-11.3,40.9,0c11.3,11.3,11.3,29.6,0,40.9
					c-11.3,11.3-29.6,11.3-40.9,0L107.9,142.1z"/>
				<path class="st2" d="M131.4,154.7c-7.5,0-15.1-2.9-20.8-8.6c-0.2-0.2-0.2-0.5,0-0.7s0.5-0.2,0.7,0c11.1,11.1,29.1,11.1,40.2,0
					c11.1-11.1,11.1-29.1,0-40.2c-11.1-11.1-29.1-11.1-40.2,0c-9.9,9.9-11.2,25.3-3.1,36.6c0.2,0.2,0.1,0.5-0.1,0.7
					c-0.2,0.2-0.5,0.1-0.7-0.1c-8.4-11.7-7.1-27.7,3.2-37.9c11.5-11.5,30.2-11.5,41.6,0c11.5,11.5,11.5,30.2,0,41.6
					C146.5,151.8,139,154.7,131.4,154.7z"/>
			</g>
			<g>
				<path class="st1" d="M185.8,211.8c6.4-4,12.4-8.8,17.9-14.3c28.1-28.1,36.4-68.6,24.9-104l-9.8,3.2l-15.7,5.1l-34.3,11.2
					c4.4,13.6,1.3,29.1-9.5,39.9c-10.8,10.8-26.3,14-39.9,9.5l-1.3,53.6l-0.3,10.4c18.4,2.5,37.4,0,54.8-7.6L185.8,211.8z"/>
				<path class="st2" d="M131.5,228.4c-4.7,0-9.3-0.3-14-0.9c-0.5-0.1-0.9-0.5-0.9-1l1.6-64c0-0.3,0.2-0.6,0.4-0.8
					c0.3-0.2,0.6-0.2,0.9-0.1c13.8,4.5,28.7,0.9,38.9-9.3c10.2-10.2,13.8-25.1,9.3-38.9c-0.2-0.5,0.1-1.1,0.6-1.3l59.8-19.6
					c0.3-0.1,0.5-0.1,0.8,0.1c0.2,0.1,0.4,0.3,0.5,0.6c12.1,37.2,2.5,77.4-25.1,105c-5.5,5.5-11.6,10.4-18.1,14.5
					c-0.5,0.3-1.1,0.2-1.4-0.3c-0.3-0.5-0.2-1.1,0.3-1.4c6.4-4,12.4-8.8,17.7-14.2c26.9-26.9,36.4-65.9,24.9-102l-58,19
					c4.3,14.2,0.4,29.5-10.1,40c-10.5,10.5-25.5,14.3-39.7,10.2l-1.5,61.7c18.2,2.3,36.6-0.3,53.3-7.7c0.5-0.2,1.1,0,1.3,0.5
					c0.2,0.5,0,1.1-0.5,1.3C159.8,225.5,145.7,228.4,131.5,228.4z"/>
			</g>
			<g>
				<path class="st1" d="M143.6,88l11.2-34.3L160,38l3.2-9.8c-35.4-11.6-75.9-3.3-104,24.9c-23.5,23.5-33.1,55.5-29,86l10.4-0.3
					l53.6-1.3c-4.4-13.6-1.3-29.1,9.5-39.9C114.5,86.7,130.1,83.6,143.6,88z"/>
				<path class="st2" d="M30.2,140.1c-0.5,0-0.9-0.4-1-0.9c-4.4-32.2,6.3-63.9,29.3-86.9c27.6-27.6,67.9-37.2,105-25.1
					c0.3,0.1,0.5,0.3,0.6,0.5c0.1,0.2,0.1,0.5,0.1,0.8l-19.6,59.8c-0.2,0.5-0.7,0.8-1.3,0.6c-13.8-4.5-28.7-0.9-38.9,9.3
					s-13.8,25.1-9.3,38.9c0.1,0.3,0,0.6-0.1,0.9c-0.2,0.3-0.5,0.4-0.8,0.4L30.2,140.1C30.2,140.1,30.2,140.1,30.2,140.1z M131.3,24
					c-26.4,0-52,10.3-71.4,29.7c-22.3,22.3-32.8,53-28.8,84.3l61.7-1.5c-4.1-14.1-0.3-29.2,10.2-39.7c10.5-10.5,25.8-14.3,40-10.1
					l19-58C151.8,25.6,141.5,24,131.3,24z"/>
			</g>
			<g>
				<path class="st1" d="M117,252c-27.7-3.1-54.5-15.3-75.8-36.5S7.8,167.4,4.7,139.7l25.5-0.6l10.4-0.3l53.6-1.3
					c0.1,0.4,0.2,0.7,0.4,1.1c0.1,0.3,0.2,0.7,0.4,1c0.1,0.4,0.3,0.7,0.4,1c0.4,1,0.9,1.9,1.4,2.9c0.2,0.4,0.4,0.8,0.7,1.2
					c0.2,0.3,0.4,0.7,0.6,1c0.2,0.3,0.4,0.6,0.6,1c0.3,0.5,0.7,1.1,1.1,1.6c0,0.1,0.1,0.1,0.1,0.2c0.4,0.5,0.7,0.9,1.1,1.4
					c0.3,0.4,0.6,0.7,0.9,1.1c0.2,0.2,0.3,0.4,0.5,0.6c0.2,0.2,0.4,0.4,0.6,0.6c0.3,0.3,0.5,0.6,0.8,0.9c0.3,0.3,0.6,0.6,0.9,0.8
					c0.2,0.2,0.4,0.4,0.6,0.6c0.2,0.2,0.4,0.4,0.6,0.5c0.4,0.3,0.7,0.6,1.1,0.9c0.5,0.4,0.9,0.7,1.4,1.1c0.1,0.1,0.1,0.1,0.2,0.1
					c0.5,0.4,1.1,0.8,1.6,1.1c0.3,0.2,0.6,0.4,1,0.6c0.3,0.2,0.6,0.4,1,0.6c0.4,0.2,0.8,0.4,1.2,0.7c0.9,0.5,1.9,1,2.9,1.4
					c0.3,0.1,0.7,0.3,1,0.4c0.3,0.1,0.7,0.2,1,0.4c0.4,0.1,0.8,0.3,1.1,0.4l-1.3,53.6l-0.3,10.4L117,252z"/>
				<path class="st2" d="M117,253c0,0-0.1,0-0.1,0c-29.2-3.3-55.6-16-76.4-36.8C19.7,195.4,7,169,3.7,139.8c0-0.3,0.1-0.6,0.2-0.8
					c0.2-0.2,0.4-0.3,0.7-0.3l89.5-2.2c0.5,0,0.8,0.3,1,0.7c0.1,0.4,0.2,0.7,0.4,1.1l0.4,1c0.1,0.3,0.3,0.7,0.4,1
					c0.4,1,0.8,1.9,1.3,2.8c0.2,0.4,0.4,0.8,0.6,1.1c0.2,0.3,0.4,0.6,0.5,0.9c0,0,0.1,0.1,0.1,0.1c0.2,0.3,0.4,0.6,0.6,0.9
					c0.4,0.6,0.7,1.1,1.1,1.6c0,0,0,0.1,0.1,0.1c0,0,0.1,0.1,0.1,0.1c0.3,0.5,0.7,0.9,1.1,1.4c0.3,0.3,0.6,0.7,0.9,1
					c0.2,0.2,0.3,0.4,0.5,0.5c0.2,0.2,0.4,0.4,0.5,0.6c0.3,0.3,0.6,0.6,0.8,0.9c0.3,0.3,0.6,0.5,0.8,0.8c0.2,0.2,0.4,0.4,0.6,0.5
					c0.2,0.2,0.4,0.4,0.6,0.5c0.3,0.3,0.7,0.6,1,0.8l0.1,0.1c0.4,0.4,0.9,0.7,1.4,1.1l0.1,0.1c0,0,0.1,0,0.1,0.1
					c0.5,0.3,1,0.7,1.6,1.1c0.3,0.2,0.6,0.4,0.9,0.6l0.1,0.1c0.3,0.2,0.6,0.3,0.8,0.5c0.4,0.2,0.8,0.5,1.2,0.7
					c0.9,0.5,1.8,0.9,2.8,1.3c0.3,0.2,0.7,0.3,1,0.4l1,0.4c0.3,0.1,0.7,0.2,1,0.3c0.4,0.1,0.8,0.6,0.8,1L118,252
					c0,0.3-0.1,0.5-0.3,0.7C117.5,252.9,117.2,253,117,253z M5.8,140.7c3.4,28.3,15.9,53.9,36.1,74.1c20.2,20.2,45.8,32.7,74.1,36.1
					l2.2-87.6c-0.2-0.1-0.3-0.1-0.4-0.2l-1-0.4c-0.4-0.1-0.7-0.3-1.1-0.4c-1-0.4-1.9-0.9-2.9-1.4c-0.4-0.2-0.8-0.4-1.2-0.7
					c-0.3-0.1-0.6-0.3-0.9-0.5l-0.1-0.1c-0.3-0.2-0.6-0.4-1-0.6c-0.6-0.4-1.1-0.8-1.6-1.1c-0.1-0.1-0.2-0.1-0.3-0.2
					c-0.5-0.3-0.9-0.7-1.4-1.1l-0.1-0.1c-0.3-0.3-0.7-0.6-1-0.9c-0.2-0.2-0.4-0.4-0.6-0.5c-0.2-0.2-0.4-0.4-0.6-0.6
					c-0.3-0.3-0.6-0.5-0.9-0.8c-0.3-0.3-0.6-0.6-0.8-0.9c-0.2-0.2-0.4-0.4-0.6-0.6c-0.2-0.2-0.4-0.4-0.5-0.6
					c-0.3-0.4-0.6-0.7-0.9-1.1c-0.4-0.5-0.8-1-1.1-1.5c-0.1-0.1-0.1-0.2-0.2-0.2c-0.3-0.5-0.7-1-1.1-1.6c-0.2-0.3-0.4-0.7-0.6-1
					c-0.2-0.4-0.4-0.7-0.6-1c-0.2-0.4-0.4-0.8-0.7-1.2c-0.5-1-1-2-1.4-3c-0.1-0.3-0.3-0.7-0.4-1.1l-0.4-1c-0.1-0.2-0.1-0.3-0.2-0.5
					L5.8,140.7z"/>
			</g>
			<g>
				<path class="st1" d="M217.5,31.1c1.4,1.3,2.8,2.6,4.1,4c14.7,14.7,25,32.1,31.1,50.5l-24.1,7.9l-9.8,3.2l-15.7,5.1l-34.3,11.2
					c-1.9-5.7-5-11-9.5-15.5c-4.5-4.5-9.8-7.7-15.5-9.5l11.2-34.3L160,38l3.2-9.8L171.1,4c14.1,4.6,27.6,11.8,39.8,21.5L217.5,31.1z
					"/>
				<path class="st2" d="M168.7,114.1c-0.2,0-0.3,0-0.5-0.1c-0.2-0.1-0.4-0.3-0.5-0.6c-1.9-5.7-5-10.8-9.3-15.1
					c-4.3-4.3-9.4-7.4-15.1-9.3c-0.3-0.1-0.5-0.3-0.6-0.5s-0.1-0.5-0.1-0.8l27.5-84c0.2-0.5,0.7-0.8,1.3-0.6
					c14.6,4.8,28.1,12,40.1,21.6c0.4,0.3,0.5,1,0.2,1.4c-0.3,0.4-1,0.5-1.4,0.2c-11.6-9.2-24.5-16.3-38.5-21l-26.9,82.1
					c5.7,2,10.7,5.2,15,9.5c4.3,4.3,7.5,9.3,9.5,15l82.1-26.9c-6.2-18.6-16.5-35.2-30.5-49.2c-1.3-1.3-2.7-2.7-4.1-3.9
					c-0.4-0.4-0.4-1-0.1-1.4s1-0.4,1.4-0.1c1.4,1.3,2.8,2.6,4.2,4c14.5,14.5,25,31.6,31.3,50.9c0.2,0.5-0.1,1.1-0.6,1.3L169,114
					C168.9,114,168.8,114.1,168.7,114.1z"/>
			</g>
			<g>
				<path class="st3" d="M171.9,106.2c-2.2-4.6-5.1-8.9-8.9-12.6c-3.7-3.7-7.9-6.7-12.6-8.9l24.1-73.7c16.2,6.1,30.7,15.5,43.1,27.9
					c12.4,12.4,21.8,26.9,27.9,43.1L171.9,106.2z"/>
				<path class="st2" d="M171.9,106.7c-0.2,0-0.4-0.1-0.5-0.3c-2.2-4.6-5.1-8.8-8.8-12.4c-3.7-3.7-7.8-6.6-12.4-8.8
					c-0.2-0.1-0.3-0.4-0.3-0.6l24.1-73.7c0-0.1,0.1-0.2,0.3-0.3c0.1-0.1,0.3-0.1,0.4,0c16.3,6.1,30.9,15.6,43.3,28
					c12.4,12.4,21.9,27,28,43.3c0,0.1,0,0.3,0,0.4c-0.1,0.1-0.2,0.2-0.3,0.3l-73.7,24.1C172,106.7,172,106.7,171.9,106.7z
					 M151.1,84.5c4.5,2.2,8.7,5.1,12.3,8.8c3.6,3.6,6.6,7.8,8.8,12.3L245,81.8c-6.1-16-15.4-30.2-27.6-42.5
					c-12.2-12.2-26.5-21.5-42.5-27.6L151.1,84.5z"/>
			</g>
			<g>
				<path class="st2" d="M133.1,240.4c-0.3,0-0.5-0.2-0.5-0.5c0-0.3,0.2-0.5,0.5-0.5c29.9-0.4,57.9-12.3,79-33.4
					c26-26,38-63.3,31.9-99.7c0-0.3,0.1-0.5,0.4-0.6c0.3,0,0.5,0.1,0.6,0.4c6.2,36.7-5.9,74.3-32.1,100.6
					C191.6,228,163.2,240,133.1,240.4C133.1,240.4,133.1,240.4,133.1,240.4z"/>
			</g>
			<g>
				<path class="st2" d="M150.5,12.7C150.5,12.7,150.4,12.7,150.5,12.7c-8.1-1.4-16.4-1.8-24.6-1.5c-0.3,0-0.5-0.2-0.5-0.5
					c0-0.3,0.2-0.5,0.5-0.5c8.3-0.4,16.6,0.1,24.7,1.5c0.3,0,0.5,0.3,0.4,0.6C151,12.5,150.7,12.7,150.5,12.7z"/>
			</g>
			<g>
				<path class="st2" d="M16.8,125.8c-0.3,0-0.5-0.2-0.5-0.5c0-30.8,12-59.7,33.7-81.4C68.9,25,93.8,13.2,120.3,10.6
					c0.3,0,0.5,0.2,0.5,0.4c0,0.3-0.2,0.5-0.5,0.5c-26.2,2.5-51,14.2-69.7,32.9c-21.6,21.6-33.4,50.2-33.4,80.7
					C17.3,125.5,17.1,125.8,16.8,125.8z"/>
			</g>
			<path class="st4" d="M131.2,106.9c6.4-1.8,13.6-0.2,18.7,4.9c7.4,7.4,7.4,19.5,0,27c-7.4,7.4-19.5,7.4-27,0s-7.4-19.5,0-27
				c0.8-0.8,1.7-1.5,2.6-2.2L131.2,106.9z"/>
			<g>
				<path class="st2" d="M131.4,145.3c-5.4,0-10.4-2.1-14.2-5.9s-5.9-8.8-5.9-14.2s2.1-10.4,5.9-14.2c0.8-0.8,1.8-1.6,2.7-2.3
					c0.5-0.3,1.1-0.2,1.4,0.2c0.3,0.5,0.2,1.1-0.2,1.4c-0.9,0.6-1.7,1.3-2.5,2.1c-3.4,3.4-5.3,7.9-5.3,12.8s1.9,9.4,5.3,12.8
					c3.4,3.4,7.9,5.3,12.8,5.3c4.8,0,9.4-1.9,12.8-5.3c7-7,7-18.5,0-25.5c-4.6-4.6-11.4-6.4-17.7-4.6c-0.5,0.1-1.1-0.2-1.2-0.7
					c-0.1-0.5,0.2-1.1,0.7-1.2c7-2,14.5,0,19.7,5.1c7.8,7.8,7.8,20.5,0,28.4C141.8,143.2,136.8,145.3,131.4,145.3z"/>
			</g>
			<g>
				<path class="st2" d="M178.7,216.9c-0.4,0-0.7-0.2-0.9-0.5c-0.3-0.5-0.1-1.1,0.4-1.3c0.9-0.5,1.8-1,2.7-1.5
					c0.5-0.3,1.1-0.1,1.4,0.4c0.3,0.5,0.1,1.1-0.4,1.4c-0.9,0.5-1.9,1-2.8,1.5C179,216.8,178.9,216.9,178.7,216.9z"/>
			</g>
			<path class="st5" d="M131.5,226.9c-2.7,0-5.5-0.1-8.2-0.3l1.3-52.1c2.3,0.3,4.5,0.5,6.9,0.5c11.9,0,23.2-4.7,31.6-13.1
				c10.7-10.7,15.1-25.7,12.3-40.2l49.5-16.2c8.8,33.3-0.5,68.5-25.1,93.1C181.5,216.9,157.3,226.9,131.5,226.9
				C131.5,226.9,131.5,226.9,131.5,226.9z"/>
			<g>
				<path class="st2" d="M131.5,222.4L131.5,222.4c-2.7,0-5.5-0.1-8.2-0.3c-0.3,0-0.5-0.2-0.5-0.5l1.3-52.1c0-0.1,0.1-0.3,0.2-0.4
					c0.1-0.1,0.3-0.1,0.4-0.1c2.2,0.3,4.5,0.5,6.8,0.5c11.8,0,22.9-4.6,31.3-13c10.4-10.4,15-25.3,12.1-39.7c0-0.2,0.1-0.5,0.3-0.6
					l49.5-16.2c0.1,0,0.3,0,0.4,0c0.1,0.1,0.2,0.2,0.2,0.3c9,33.8-0.4,68.8-25.2,93.6C181.8,212.3,157.4,222.4,131.5,222.4z
					 M123.8,221.1c2.5,0.2,5.1,0.3,7.7,0.3c25.7,0,49.8-10,68-28.2c24.4-24.4,33.8-58.8,25.1-92.1L175.9,117
					c2.7,14.6-1.9,29.6-12.5,40.2c-8.5,8.5-19.9,13.2-32,13.2c-2.1,0-4.3-0.2-6.4-0.4L123.8,221.1z"/>
			</g>
			<path class="st4" d="M70.3,54.8c18-16.9,41.4-26.2,66.1-26.2c8.4,0,16.7,1.1,24.8,3.2L145,81.4c-2.8-0.5-5.7-0.8-8.6-0.8
				c-11.9,0-23.2,4.7-31.6,13.1c-10.2,10.2-14.8,24.5-12.6,38.5l-52.1,1.3c-2.3-26.7,6.4-52.7,24.3-72.6L70.3,54.8z"/>
			<g>
				<path class="st2" d="M35.1,133.9c-0.3,0-0.5-0.2-0.5-0.5c-2.3-26.9,6.4-52.9,24.4-73c0.2-0.2,0.5-0.2,0.7,0
					c0.2,0.2,0.2,0.5,0,0.7C42,80.9,33.5,106.4,35.6,132.9l51-1.3c-2-14,2.8-28.3,12.8-38.3c8.5-8.5,19.9-13.2,32-13.2
					c2.8,0,5.5,0.3,8.2,0.7l15.9-48.6c-7.9-2-16-3.1-24.1-3.1c-24.6,0-47.9,9.3-65.8,26.1c-0.2,0.2-0.5,0.2-0.7,0
					c-0.2-0.2-0.2-0.5,0-0.7c18.1-17,41.7-26.3,66.5-26.3c8.4,0,16.8,1.1,24.9,3.2c0.1,0,0.2,0.1,0.3,0.2c0.1,0.1,0.1,0.3,0,0.4
					l-16.2,49.5c-0.1,0.2-0.3,0.4-0.6,0.3c-2.8-0.5-5.6-0.8-8.5-0.8c-11.8,0-22.9,4.6-31.3,13c-10,10-14.6,24.2-12.4,38
					c0,0.1,0,0.3-0.1,0.4c-0.1,0.1-0.2,0.2-0.4,0.2L35.1,133.9C35.1,133.9,35.1,133.9,35.1,133.9z"/>
			</g>
			<g>
				<path class="st2" d="M59.7,224.5c-0.1,0-0.2,0-0.3-0.1c-1-0.7-1.9-1.4-2.8-2.1c-0.2-0.2-0.3-0.5-0.1-0.7
					c0.2-0.2,0.5-0.3,0.7-0.1c0.9,0.7,1.9,1.4,2.8,2.1c0.2,0.2,0.3,0.5,0.1,0.7C60,224.5,59.8,224.5,59.7,224.5z"/>
			</g>
			<g>
				<path class="st6" d="M50.8,216.9c-1.9-1.7-3.8-3.5-5.7-5.3c-18.3-18.3-30-41.2-34.1-66.5l79.4-2c0.4,1,0.9,2,1.4,3
					c0.2,0.4,0.5,0.9,0.7,1.3c0.2,0.3,0.4,0.7,0.6,1l0,0c0.2,0.4,0.5,0.8,0.7,1.1c0.4,0.6,0.8,1.2,1.2,1.7c0.1,0.2,0.2,0.3,0.3,0.4
					c0.4,0.5,0.8,1,1.2,1.5l0.1,0.1c0.3,0.4,0.6,0.8,1,1.1c0.1,0.2,0.3,0.4,0.6,0.6c0.2,0.3,0.5,0.5,0.7,0.8
					c0.3,0.3,0.6,0.6,0.9,0.9c0.3,0.3,0.6,0.6,0.9,0.9c0.3,0.2,0.5,0.5,0.8,0.7c0.2,0.2,0.5,0.4,0.7,0.6c0.3,0.3,0.7,0.6,1.1,0.9
					l0.1,0.1c0.5,0.4,1,0.8,1.5,1.2c0.1,0.1,0.3,0.2,0.4,0.3c0.5,0.3,1.1,0.8,1.7,1.2c0.4,0.2,0.8,0.5,1.1,0.7l0,0
					c0.3,0.2,0.7,0.4,1,0.6c0.4,0.3,0.9,0.5,1.3,0.7c1,0.5,2,1,3,1.4l-2,79.4c-18.2-2.9-35.1-9.8-49.9-20.2L50.8,216.9z"/>
				<path class="st2" d="M111.6,246.2C111.6,246.2,111.6,246.2,111.6,246.2c-18.3-3-35.2-9.8-50.2-20.3c-0.2-0.2-0.3-0.5-0.1-0.7
					c0.2-0.2,0.5-0.3,0.7-0.1c14.7,10.3,31.3,17.1,49.2,20l2-78.5c-0.9-0.4-1.8-0.8-2.7-1.3c-0.5-0.2-0.9-0.5-1.4-0.7
					c-0.3-0.2-0.7-0.4-1-0.6c-0.4-0.3-0.8-0.5-1.2-0.8c-0.7-0.4-1.3-0.9-1.7-1.2c-0.2-0.1-0.3-0.2-0.4-0.3c-0.5-0.4-1-0.8-1.5-1.2
					l-0.1-0.1c-0.4-0.3-0.8-0.6-1.1-0.9c-0.2-0.2-0.5-0.4-0.7-0.6c-0.3-0.2-0.5-0.5-0.8-0.7c-0.3-0.3-0.6-0.6-0.9-0.9
					c-0.3-0.3-0.6-0.6-0.9-0.9c-0.3-0.3-0.5-0.5-0.7-0.8c-0.2-0.2-0.4-0.5-0.6-0.6c-0.3-0.4-0.6-0.8-1-1.1l-0.1-0.1
					c-0.4-0.5-0.8-1-1.2-1.6c-0.1-0.1-0.2-0.3-0.3-0.5c-0.3-0.4-0.7-1-1.2-1.7c-0.2-0.4-0.5-0.8-0.7-1.2c-0.2-0.4-0.4-0.7-0.6-1.1
					c-0.3-0.4-0.5-0.9-0.7-1.3c-0.5-0.9-0.9-1.8-1.3-2.7l-78.5,2c4.2,24.9,15.9,47.6,33.9,65.7c1.8,1.8,3.7,3.6,5.6,5.3
					c0.2,0.2,0.2,0.5,0,0.7s-0.5,0.2-0.7,0c-1.9-1.7-3.9-3.5-5.7-5.4c-18.3-18.3-30.2-41.4-34.3-66.8c0-0.1,0-0.3,0.1-0.4
					c0.1-0.1,0.2-0.2,0.4-0.2l79.4-2c0.2,0,0.4,0.1,0.5,0.3c0.4,1,0.9,2,1.4,3c0.2,0.4,0.5,0.9,0.7,1.3c0.2,0.4,0.4,0.7,0.6,1
					c0.3,0.4,0.5,0.8,0.7,1.2c0.4,0.6,0.8,1.2,1.2,1.7c0.1,0.2,0.2,0.3,0.3,0.4c0.4,0.5,0.8,1,1.2,1.5l0.1,0.1
					c0.3,0.4,0.6,0.8,1,1.1c0.1,0.2,0.3,0.4,0.6,0.6c0.2,0.3,0.5,0.5,0.7,0.8c0.3,0.3,0.6,0.6,0.9,0.9c0.3,0.3,0.6,0.6,0.9,0.9
					c0.3,0.2,0.5,0.5,0.8,0.7c0.2,0.2,0.5,0.4,0.7,0.6c0.3,0.3,0.7,0.6,1.1,0.9l0.1,0.1c0.5,0.4,1,0.8,1.5,1.2
					c0.1,0.1,0.2,0.2,0.4,0.3c0.4,0.3,1,0.7,1.7,1.2c0.4,0.2,0.7,0.5,1.1,0.7c0.4,0.2,0.7,0.4,1.1,0.6c0.4,0.3,0.9,0.5,1.3,0.7
					c1,0.5,2,1,3,1.4c0.2,0.1,0.3,0.3,0.3,0.5l-2,79.4c0,0.1-0.1,0.3-0.2,0.4C111.9,246.2,111.8,246.2,111.6,246.2z"/>
			</g>
			<g>
				<path class="st2" d="M96.7,144.5c-0.4,0-0.7-0.2-0.9-0.5c-0.5-1-1-2-1.4-3c-0.2-0.5,0-1.1,0.5-1.3c0.5-0.2,1.1,0,1.3,0.5
					c0.4,0.9,0.8,1.8,1.3,2.8c0.3,0.5,0.1,1.1-0.4,1.3C97,144.5,96.9,144.5,96.7,144.5z"/>
			</g>
			<g>
				<path class="st2" d="M116.1,162.3c-0.1,0-0.3,0-0.4-0.1c-1-0.4-2-0.9-3-1.4c-0.5-0.3-0.7-0.9-0.4-1.3c0.3-0.5,0.9-0.7,1.3-0.4
					c1,0.5,1.9,1,2.8,1.3c0.5,0.2,0.7,0.8,0.5,1.3C116.8,162.1,116.5,162.3,116.1,162.3z"/>
			</g>
		</g>
		<g>
			<path class="st2" d="M39.8,44c-1.6,0-3-1.3-3-3s1.3-3,3-3s3,1.3,3,3S41.4,44,39.8,44z M39.8,39c-1.1,0-2,0.9-2,2s0.9,2,2,2
				c1.1,0,2-0.9,2-2S40.9,39,39.8,39z"/>
		</g>
		<g>
			<path class="st2" d="M215.3,221c-0.1,0-0.3-0.1-0.4-0.1c-0.1-0.1-0.2-0.3-0.1-0.5l0.8-2.6l-0.8-2.6c-0.1-0.2,0-0.4,0.1-0.5
				c0.1-0.1,0.3-0.2,0.5-0.1l2.6,0.8l2.6-0.8c0.2-0.1,0.4,0,0.5,0.1c0.1,0.1,0.2,0.3,0.1,0.5l-0.8,2.6l0.8,2.6
				c0.1,0.2,0,0.4-0.1,0.5c-0.1,0.1-0.3,0.2-0.5,0.1l-1-0.3c-0.3-0.1-0.4-0.4-0.3-0.6c0.1-0.3,0.4-0.4,0.6-0.3l0.1,0l-0.5-1.8
				c0-0.1,0-0.2,0-0.3l0.5-1.8l-1.8,0.5c-0.1,0-0.2,0-0.3,0l-1.8-0.5l0.5,1.8c0,0.1,0,0.2,0,0.3l-0.5,1.8l1.8-0.5
				c0.3-0.1,0.5,0.1,0.6,0.3c0.1,0.3-0.1,0.5-0.3,0.6l-2.7,0.8C215.4,221,215.4,221,215.3,221z"/>
		</g>
		<g>
			<path class="st3" d="M16.8,99.5c0,0-0.1,0-0.1,0l-1-0.3c-0.3-0.1-0.4-0.4-0.3-0.6c0.1-0.3,0.4-0.4,0.6-0.3l0.1,0l-0.5-1.8
				c0-0.1,0-0.2,0-0.3l0.5-1.8l-1.8,0.5c-0.1,0-0.2,0-0.3,0l-1.8-0.5l0.5,1.8c0,0.1,0,0.2,0,0.3l-0.5,1.8l1.8-0.5
				c0.3-0.1,0.5,0.1,0.6,0.3c0.1,0.3-0.1,0.5-0.3,0.6l-2.7,0.8c-0.2,0-0.4,0-0.5-0.1c-0.1-0.1-0.2-0.3-0.1-0.5l0.8-2.6l-0.8-2.6
				c-0.1-0.2,0-0.4,0.1-0.5c0.1-0.1,0.3-0.2,0.5-0.1l2.6,0.8l2.6-0.8c0.2-0.1,0.4,0,0.5,0.1c0.1,0.1,0.2,0.3,0.1,0.5l-0.8,2.6
				l0.8,2.6c0.1,0.2,0,0.4-0.1,0.5C17,99.5,16.9,99.5,16.8,99.5z"/>
		</g>
		<g>
			<g>
				<path class="st3" d="M174.8,237.6c-0.3,0-0.5-0.2-0.5-0.5v-2.4c0-0.3,0.2-0.5,0.5-0.5s0.5,0.2,0.5,0.5v2.4
					C175.3,237.4,175.1,237.6,174.8,237.6z"/>
			</g>
			<g>
				<path class="st3" d="M174.8,243.5c-0.3,0-0.5-0.2-0.5-0.5v-2.4c0-0.3,0.2-0.5,0.5-0.5s0.5,0.2,0.5,0.5v2.4
					C175.3,243.3,175.1,243.5,174.8,243.5z"/>
			</g>
			<g>
				<path class="st3" d="M178.9,239.4h-2.4c-0.3,0-0.5-0.2-0.5-0.5s0.2-0.5,0.5-0.5h2.4c0.3,0,0.5,0.2,0.5,0.5
					S179.2,239.4,178.9,239.4z"/>
			</g>
			<g>
				<path class="st3" d="M173.1,239.4h-2.4c-0.3,0-0.5-0.2-0.5-0.5s0.2-0.5,0.5-0.5h2.4c0.3,0,0.5,0.2,0.5,0.5
					S173.4,239.4,173.1,239.4z"/>
			</g>
		</g>
		<g>
			<g>
				<path class="st5" d="M68.6,14.8c-0.3,0-0.5-0.2-0.5-0.5v-2.4c0-0.3,0.2-0.5,0.5-0.5s0.5,0.2,0.5,0.5v2.4
					C69.1,14.5,68.8,14.8,68.6,14.8z"/>
			</g>
			<g>
				<path class="st5" d="M68.6,20.6c-0.3,0-0.5-0.2-0.5-0.5v-2.4c0-0.3,0.2-0.5,0.5-0.5s0.5,0.2,0.5,0.5v2.4
					C69.1,20.4,68.8,20.6,68.6,20.6z"/>
			</g>
			<g>
				<path class="st5" d="M72.7,16.5h-2.4c-0.3,0-0.5-0.2-0.5-0.5s0.2-0.5,0.5-0.5h2.4c0.3,0,0.5,0.2,0.5,0.5S73,16.5,72.7,16.5z"/>
			</g>
			<g>
				<path class="st5" d="M66.8,16.5h-2.4c-0.3,0-0.5-0.2-0.5-0.5s0.2-0.5,0.5-0.5h2.4c0.3,0,0.5,0.2,0.5,0.5S67.1,16.5,66.8,16.5z"
					/>
			</g>
		</g>
	</g>
	<g>
		<path class="st4" d="M241.9,179.6c-1.6,0-3-1.3-3-3s1.3-3,3-3s3,1.3,3,3S243.6,179.6,241.9,179.6z M241.9,174.6c-1.1,0-2,0.9-2,2
			s0.9,2,2,2c1.1,0,2-0.9,2-2S243,174.6,241.9,174.6z"/>
	</g>
</g>
</svg>
