<?xml version="1.0" encoding="utf-8"?>
<!-- Generator: Adobe Illustrator 22.1.0, SVG Export Plug-In . SVG Version: 6.00 Build 0)  -->
<svg version="1.1" id="Layer_1" xmlns="http://www.w3.org/2000/svg" xmlns:xlink="http://www.w3.org/1999/xlink" x="0px" y="0px"
	 viewBox="0 0 256 256" style="enable-background:new 0 0 256 256;" xml:space="preserve">
<style type="text/css">
	.st0{fill:#DBFDFF;}
	.st1{fill:#FFFFFF;}
	.st2{fill:#48386A;}
	.st3{fill:#9FEAFF;}
	.st4{fill:#FF8584;}
	.st5{fill:#FFFFED;}
	.st6{fill:#FEBE7F;}
</style>
<g>
	<path class="st0" d="M245.4,147.5c0-20.3-11.9-37.7-29.1-45.8c2.7-6.2,4.2-13,4.2-20.3c0-27.9-22.6-50.5-50.5-50.5
		c-4.5,0-8.9,0.6-13,1.7c-9-13.9-24.6-23.1-42.4-23.1c-14.9,0-28.3,6.4-37.5,16.7c-1.5-0.1-2.9-0.2-4.4-0.2
		c-27.9,0-50.5,22.6-50.5,50.5c0,20.8,12.5,38.6,30.4,46.4c-0.4,2.7-0.7,5.5-0.7,8.3c0,5.8,1,11.3,2.8,16.5
		c-25,3.1-44.3,24.3-44.3,50.1c0,27.9,22.6,50.5,50.5,50.5c14.5,0,27.5-6.1,36.7-15.8c8.3,5.9,18.3,9.3,29.2,9.3
		c8,0,15.5-1.9,22.2-5.2c8.3,6,18.4,9.5,29.4,9.5c27.9,0,50.5-22.6,50.5-50.5c0-3.4-0.3-6.7-1-9.9
		C238.6,176.5,245.4,162.8,245.4,147.5z"/>
	<g>
		<g>
			<polygon class="st1" points="238.3,39.9 219.1,43.9 231.6,31.4 250.9,27.4 			"/>
			<path class="st2" d="M219.1,44.4c-0.2,0-0.4-0.1-0.4-0.3c-0.1-0.2-0.1-0.4,0.1-0.6l12.5-12.5c0.1-0.1,0.2-0.1,0.3-0.1l19.3-4
				c0.2,0,0.4,0.1,0.5,0.3c0.1,0.2,0.1,0.4-0.1,0.6l-12.5,12.5c-0.1,0.1-0.2,0.1-0.3,0.1l-19.3,4C219.1,44.4,219.1,44.4,219.1,44.4z
				 M231.8,31.9l-11.2,11.2l17.5-3.6l11.2-11.2L231.8,31.9z M238.3,39.9L238.3,39.9L238.3,39.9z"/>
		</g>
		<g>
			<polygon class="st1" points="223.5,54.8 220.6,57.7 201.3,61.7 213.8,49.2 233.1,45.2 226.8,51.4 			"/>
			<path class="st2" d="M201.3,62.2c-0.2,0-0.4-0.1-0.4-0.3c-0.1-0.2-0.1-0.4,0.1-0.6l12.5-12.5c0.1-0.1,0.2-0.1,0.3-0.1l19.3-4
				c0.2,0,0.4,0.1,0.5,0.3c0.1,0.2,0.1,0.4-0.1,0.6l-6.3,6.3c-0.2,0.2-0.5,0.2-0.7,0s-0.2-0.5,0-0.7l5.1-5.1l-17.5,3.6l-11.2,11.2
				l17.5-3.6l2.8-2.8c0.2-0.2,0.5-0.2,0.7,0s0.2,0.5,0,0.7L221,58c-0.1,0.1-0.2,0.1-0.3,0.1l-19.3,4
				C201.4,62.2,201.4,62.2,201.3,62.2z"/>
		</g>
		<path class="st1" d="M237.1,24c0,1.2-0.4,2.3-1.3,3.2l-119,119c-1.8,1.8-4.7,1.8-6.5,0c-1.8-1.8-1.8-4.7,0-6.5l12.8-12.8l12-12
			l11.9-11.9l35.6-35.6l4-4l42.6-42.6c1.8-1.8,4.7-1.8,6.5,0C236.7,21.7,237.1,22.8,237.1,24z"/>
		<g>
			<path class="st1" d="M196.6,212.4c15.7-18.8,25.1-43,25.1-69.3c0-28.2-10.8-54-28.6-73.3l-76.4,76.4c-1.8,1.8-4.7,1.8-6.5,0
				c-1.8-1.8-1.8-4.7,0-6.5l12.8-12.8l12-12l11.9-11.9l35.6-35.6l4-4c-19.3-17.8-45.1-28.7-73.4-28.7C53.5,34.7,4.9,83.3,4.9,143.1
				s48.6,108.4,108.4,108.4c30.4,0,58-12.6,77.7-32.8L196.6,212.4z"/>
			<path class="st2" d="M113.3,252.6C53,252.6,3.9,203.5,3.9,143.1C3.9,82.8,53,33.7,113.3,33.7c27.5,0,53.8,10.3,74.1,29
				c0.2,0.2,0.3,0.4,0.3,0.7c0,0.3-0.1,0.5-0.3,0.7l-76.4,76.4c-0.7,0.7-1,1.6-1,2.5s0.4,1.8,1,2.5c1.4,1.4,3.6,1.4,5,0l76.4-76.4
				c0.2-0.2,0.4-0.3,0.7-0.3c0.3,0,0.5,0.1,0.7,0.3c18.6,20.2,28.8,46.5,28.8,74c0,25.5-9,50.3-25.3,70c-0.4,0.4-1,0.5-1.4,0.1
				c-0.4-0.4-0.5-1-0.1-1.4c16-19.3,24.9-43.6,24.9-68.7c0-26.6-9.8-52.1-27.6-71.8l-75.6,75.6c-2.2,2.2-5.7,2.2-7.9,0
				c-1.1-1.1-1.6-2.5-1.6-3.9c0-1.5,0.6-2.9,1.6-3.9l75.6-75.6c-19.8-17.9-45.3-27.7-72-27.7C54.1,35.7,5.9,83.9,5.9,143.1
				s48.2,107.4,107.4,107.4c29.2,0,56.5-11.6,77-32.5c0.4-0.4,1-0.4,1.4,0c0.4,0.4,0.4,1,0,1.4C170.9,240.8,143,252.6,113.3,252.6z"
				/>
		</g>
		<path class="st3" d="M201.6,212.4c15.7-18.8,25.1-43,25.1-69.3c0-28.2-10.8-54-28.6-73.3l-76.4,76.4c-1.8,1.8-4.7,1.8-6.5,0
			c-1.8-1.8-1.8-4.7,0-6.5l12.8-12.8l12-12l11.9-11.9l35.6-35.6l4-4c-19.3-17.8-45.1-28.7-73.4-28.7C58.5,34.7,9.9,83.3,9.9,143.1
			s48.6,108.4,108.4,108.4c30.4,0,58-12.6,77.7-32.8L201.6,212.4z"/>
		<g>
			<path class="st1" d="M189.2,73.8l-72.4,72.4c-1.8,1.8-4.7,1.8-6.5,0c-1.8-1.8-1.8-4.7,0-6.5l12.8-12.8l12-12l11.9-11.9l35.6-35.6
				c-18.3-16.8-42.7-27.1-69.4-27.1c-56.7,0-102.9,46.1-102.9,102.9c0,56.7,46.1,102.9,102.9,102.9s102.9-46.1,102.9-102.9
				C216.2,116.4,205.9,92.1,189.2,73.8z"/>
			<path class="st2" d="M113.3,246.5c-57,0-103.4-46.4-103.4-103.4S56.3,39.8,113.3,39.8c25.9,0,50.7,9.7,69.8,27.2
				c0.1,0.1,0.2,0.2,0.2,0.4s0,0.3-0.1,0.4l-72.4,72.4c-0.8,0.8-1.2,1.8-1.2,2.9c0,1.1,0.4,2.1,1.2,2.9c1.6,1.6,4.2,1.6,5.7,0
				l72.4-72.4c0.1-0.1,0.2-0.1,0.4-0.1c0.1,0,0.3,0.1,0.4,0.2c17.5,19.1,27.1,43.9,27.1,69.7C216.7,200.1,170.3,246.5,113.3,246.5z
				 M113.3,40.8c-56.4,0-102.4,45.9-102.4,102.4s45.9,102.4,102.4,102.4s102.4-45.9,102.4-102.4c0-25.4-9.4-49.7-26.5-68.6l-72,72
				c-2,2-5.2,2-7.2,0c-1-1-1.5-2.2-1.5-3.6c0-1.4,0.5-2.6,1.5-3.6l72-72C163.1,50.2,138.8,40.8,113.3,40.8z"/>
		</g>
		<g>
			<path class="st2" d="M62.8,74.5c-0.3,0-0.6-0.1-0.8-0.4c-0.3-0.4-0.2-1.1,0.2-1.4c1-0.7,2-1.4,3-2.1c0.5-0.3,1.1-0.2,1.4,0.3
				c0.3,0.5,0.2,1.1-0.3,1.4c-1,0.7-2,1.4-3,2.1C63.2,74.4,63,74.5,62.8,74.5z"/>
		</g>
		<path class="st3" d="M61.6,78.5c-18,15.8-29.3,38.9-29.3,64.7c0,47.5,38.6,86.1,86.1,86.1s86.1-38.6,86.1-86.1
			c0-22.1-8.4-42.2-22.1-57.5l-60.5,60.5c-1.8,1.8-4.7,1.8-6.5,0c-1.8-1.8-1.8-4.7,0-6.5l12.8-12.8l12-12l11.9-11.9l23.7-23.7
			c-15.3-13.8-35.5-22.2-57.6-22.2c-15.7,0-30.5,4.2-43.2,11.7L61.6,78.5z"/>
		<g>
			<path class="st2" d="M113.3,230.2c-48,0-87.1-39.1-87.1-87.1c0-25,10.8-48.9,29.7-65.4c0.4-0.4,1-0.3,1.4,0.1
				c0.4,0.4,0.3,1-0.1,1.4c-18.4,16.2-29,39.5-29,63.9c0,46.9,38.2,85.1,85.1,85.1s85.1-38.2,85.1-85.1c0-20.6-7.5-40.5-21.1-56
				l-59.8,59.8c-2.2,2.2-5.7,2.2-7.9,0c-1.1-1.1-1.6-2.5-1.6-3.9c0-1.5,0.6-2.9,1.6-3.9l59.8-59.8c-15.5-13.7-35.4-21.2-56.1-21.2
				c-15,0-29.8,4-42.7,11.5c-0.5,0.3-1.1,0.1-1.4-0.4c-0.3-0.5-0.1-1.1,0.4-1.4c13.2-7.7,28.4-11.8,43.7-11.8
				c21.5,0,42.2,8,58.2,22.4c0.2,0.2,0.3,0.4,0.3,0.7c0,0.3-0.1,0.5-0.3,0.7l-60.5,60.5c-0.7,0.7-1,1.6-1,2.5s0.4,1.8,1,2.5
				c1.4,1.4,3.6,1.4,5,0L176.6,85c0.2-0.2,0.5-0.3,0.7-0.3c0.3,0,0.5,0.1,0.7,0.3c14.4,16,22.3,36.7,22.3,58.1
				C200.4,191.1,161.3,230.2,113.3,230.2z"/>
		</g>
		<g>
			<path class="st1" d="M118.6,212.2c35.7-2.7,64-32.7,64-69.1c0-17.5-6.5-33.4-17.2-45.6l-48.7,48.7c-1.8,1.8-4.7,1.8-6.5,0
				c-1.8-1.8-1.8-4.7,0-6.5l12.8-12.8l12-12l11.9-11.9L159,91.1c-12.2-10.8-28.2-17.3-45.7-17.3c-38.2,0-69.3,31.1-69.3,69.3
				c0,36.7,28.6,66.8,64.7,69.2L118.6,212.2z"/>
			<path class="st2" d="M108.7,212.8C108.7,212.8,108.7,212.8,108.7,212.8c-36.6-2.4-65.2-33-65.2-69.7c0-38.5,31.3-69.8,69.8-69.8
				c17,0,33.3,6.2,46,17.4c0.1,0.1,0.2,0.2,0.2,0.4c0,0.1,0,0.3-0.1,0.4l-48.7,48.7c-0.8,0.8-1.2,1.8-1.2,2.9c0,1.1,0.4,2.1,1.2,2.9
				c1.6,1.6,4.2,1.6,5.7,0l48.7-48.7c0.1-0.1,0.2-0.2,0.4-0.1c0.1,0,0.3,0.1,0.4,0.2c11.1,12.7,17.3,29,17.3,45.9
				c0,36.3-28.3,66.9-64.5,69.6c-0.3,0-0.5-0.2-0.5-0.5c0-0.3,0.2-0.5,0.5-0.5c35.6-2.7,63.5-32.9,63.5-68.6
				c0-16.5-5.9-32.4-16.7-44.9l-48.3,48.3c-2,2-5.2,2-7.2,0c-1-1-1.5-2.2-1.5-3.6c0-1.4,0.5-2.6,1.5-3.6l48.3-48.3
				c-12.5-10.8-28.4-16.8-45-16.8c-37.9,0-68.8,30.9-68.8,68.8c0,36.1,28.2,66.3,64.2,68.7c0.3,0,0.5,0.3,0.5,0.5
				C109.2,212.6,109,212.8,108.7,212.8z"/>
		</g>
		<g>
			<path class="st2" d="M113.3,212.9c-0.3,0-0.5-0.2-0.5-0.5s0.2-0.5,0.5-0.5c0.8,0,1.6,0,2.5,0c0.3,0,0.5,0.2,0.5,0.5
				c0,0.3-0.2,0.5-0.5,0.5C115,212.9,114.1,212.9,113.3,212.9z"/>
		</g>
		<path class="st3" d="M68.4,159.6c6.9,20.9,26.7,36.1,49.9,36.1c29,0,52.5-23.6,52.5-52.5c0-12.8-4.6-24.6-12.3-33.7l-36.8,36.8
			c-1.8,1.8-4.7,1.8-6.5,0c-1.8-1.8-1.8-4.7,0-6.5l12.8-12.8l12-12l11.9-11.9c-9.1-7.7-21-12.4-33.8-12.4c-29,0-52.5,23.6-52.5,52.5
			c0,4.2,0.5,8.3,1.4,12.2L68.4,159.6z"/>
		<g>
			<path class="st2" d="M113.3,196.7c-23.1,0-43.6-14.8-50.8-36.7c-0.2-0.5,0.1-1.1,0.6-1.3c0.5-0.2,1.1,0.1,1.3,0.6
				c7,21.2,26.7,35.4,48.9,35.4c28.4,0,51.5-23.1,51.5-51.5c0-11.7-4-23.1-11.3-32.2l-36,36c-2.2,2.2-5.7,2.2-7.9,0
				c-1.1-1.1-1.6-2.5-1.6-3.9c0-1.5,0.6-2.9,1.6-3.9l36-36c-9.1-7.4-20.6-11.4-32.3-11.4c-28.4,0-51.5,23.1-51.5,51.5
				c0,4,0.5,8.1,1.4,12c0.1,0.5-0.2,1.1-0.7,1.2c-0.5,0.1-1.1-0.2-1.2-0.7c-1-4.1-1.5-8.2-1.5-12.5c0-29.5,24-53.5,53.5-53.5
				c12.6,0,24.8,4.5,34.5,12.6c0.2,0.2,0.3,0.4,0.4,0.7c0,0.3-0.1,0.6-0.3,0.7l-36.8,36.8c-0.7,0.7-1,1.6-1,2.5s0.4,1.8,1,2.5
				c1.4,1.4,3.6,1.4,5,0l36.8-36.8c0.2-0.2,0.5-0.3,0.8-0.3c0.3,0,0.5,0.1,0.7,0.4c8.1,9.6,12.5,21.8,12.5,34.4
				C166.8,172.7,142.8,196.7,113.3,196.7z"/>
		</g>
		<g>
			<path class="st1" d="M140,166.9c-6.6,7.4-16.1,12-26.7,12c-19.7,0-35.8-16-35.8-35.8c0-19.7,16-35.8,35.8-35.8
				c8.3,0,15.9,2.8,21.9,7.5l-12,12l-12.8,12.8c-1.8,1.8-1.8,4.7,0,6.5c1.8,1.8,4.7,1.8,6.5,0l24.9-24.9c4.7,6,7.4,13.6,7.4,21.8
				c0,6.3-1.6,12.3-4.5,17.4L140,166.9z"/>
			<path class="st2" d="M113.3,179.4c-20,0-36.3-16.3-36.3-36.3c0-20,16.3-36.3,36.3-36.3c8.1,0,15.8,2.6,22.2,7.6
				c0.1,0.1,0.2,0.2,0.2,0.4s0,0.3-0.1,0.4l-24.9,24.9c-0.8,0.8-1.2,1.8-1.2,2.9c0,1.1,0.4,2.1,1.2,2.9c1.6,1.6,4.2,1.6,5.7,0
				l24.9-24.9c0.1-0.1,0.2-0.2,0.4-0.1c0.1,0,0.3,0.1,0.4,0.2c4.9,6.4,7.5,14,7.5,22.1c0,6.2-1.6,12.3-4.6,17.7
				c-0.1,0.2-0.4,0.3-0.7,0.2c-0.2-0.1-0.3-0.4-0.2-0.7c2.9-5.2,4.5-11.2,4.5-17.2c0-7.6-2.4-14.9-7-21l-24.4,24.4c-2,2-5.2,2-7.2,0
				c-1-1-1.5-2.2-1.5-3.6c0-1.4,0.5-2.6,1.5-3.6l24.5-24.5c-6.1-4.6-13.4-7.1-21.2-7.1c-19.5,0-35.3,15.8-35.3,35.3
				s15.8,35.3,35.3,35.3c10,0,19.6-4.3,26.3-11.8c0.2-0.2,0.5-0.2,0.7,0c0.2,0.2,0.2,0.5,0,0.7C133.5,175,123.6,179.4,113.3,179.4z"
				/>
		</g>
		<path class="st4" d="M137.3,143.1c0,10.5-8.5,19-19,19s-19-8.5-19-19c0-10.5,8.5-19,19-19c3.6,0,7,1,9.9,2.8l-12.8,12.8
			c-1.8,1.8-1.8,4.7,0,6.5c1.8,1.8,4.7,1.8,6.5,0l12.8-12.8C136.3,136.2,137.3,139.6,137.3,143.1z"/>
		<g>
			<path class="st5" d="M237.1,24c0,1.2-0.4,2.3-1.3,3.2l-119,119c-1.8,1.8-4.7,1.8-6.5,0c-1.8-1.8-1.8-4.7,0-6.5l12.8-12.8l12-12
				l11.9-11.9l35.6-35.6l4-4l42.6-42.6c1.8-1.8,4.7-1.8,6.5,0C236.7,21.7,237.1,22.8,237.1,24z"/>
			<path class="st2" d="M113.6,148.5c-1.4,0-2.8-0.5-3.9-1.6c-1.1-1.1-1.6-2.5-1.6-3.9c0-1.5,0.6-2.9,1.6-3.9l119-119
				c2.2-2.2,5.7-2.2,7.9,0c1.1,1.1,1.6,2.5,1.6,3.9s-0.6,2.9-1.6,3.9l-119,119C116.4,148,115,148.5,113.6,148.5z M232.5,20.4
				c-0.9,0-1.8,0.3-2.5,1l-119,119c-0.7,0.7-1,1.6-1,2.5s0.4,1.8,1,2.5c1.4,1.4,3.6,1.4,5,0l119-119c0.7-0.7,1-1.6,1-2.5
				s-0.4-1.8-1-2.5C234.4,20.8,233.5,20.4,232.5,20.4z"/>
		</g>
		<g>
			<path class="st2" d="M113.3,163.1c-11,0-20-9-20-20s9-20,20-20c3.7,0,7.3,1,10.4,2.9c0.3,0.2,0.4,0.4,0.5,0.7s-0.1,0.6-0.3,0.8
				l-12.8,12.8c-0.7,0.7-1,1.6-1,2.5s0.4,1.8,1,2.5c1.4,1.4,3.6,1.4,5,0l12.8-12.8c0.2-0.2,0.5-0.3,0.8-0.3c0.3,0,0.6,0.2,0.7,0.5
				c1.9,3.1,2.8,6.6,2.8,10.3C133.3,154.2,124.3,163.1,113.3,163.1z M113.3,125.1c-9.9,0-18,8.1-18,18s8.1,18,18,18s18-8.1,18-18
				c0-2.8-0.7-5.6-1.9-8.1l-11.9,11.9c-2.2,2.2-5.7,2.2-7.9,0c-1.1-1.1-1.6-2.5-1.6-3.9c0-1.5,0.6-2.9,1.6-3.9l11.9-11.9
				C119,125.8,116.2,125.1,113.3,125.1z"/>
		</g>
		<g>
			<path class="st2" d="M110.3,146.7c-0.1,0-0.3,0-0.4-0.1c-0.2-0.2-0.2-0.5,0-0.7L162.8,93c0.2-0.2,0.5-0.2,0.7,0s0.2,0.5,0,0.7
				l-52.8,52.8C110.6,146.6,110.5,146.7,110.3,146.7z"/>
		</g>
		<g>
			<path class="st2" d="M167.7,89.3c-0.1,0-0.3,0-0.4-0.1c-0.2-0.2-0.2-0.5,0-0.7l68.1-68.1c0.2-0.2,0.5-0.2,0.7,0s0.2,0.5,0,0.7
				l-68.1,68.1C168,89.3,167.8,89.3,167.7,89.3z"/>
		</g>
		<polygon class="st6" points="241,36.6 223.1,40.3 234.7,28.7 252.5,25 		"/>
		<polygon class="st6" points="228,51.8 225.1,54.7 205.8,58.7 218.3,46.2 237.6,42.2 231.3,48.4 		"/>
		<g>
			<polygon class="st1" points="216.6,18.2 212.6,37.5 225.1,25 229.1,5.7 			"/>
			<path class="st2" d="M212.6,38c-0.1,0-0.2,0-0.2-0.1c-0.2-0.1-0.3-0.3-0.3-0.5l4-19.3c0-0.1,0.1-0.2,0.1-0.3l12.5-12.5
				c0.2-0.2,0.4-0.2,0.6-0.1c0.2,0.1,0.3,0.3,0.3,0.5l-4,19.3c0,0.1-0.1,0.2-0.1,0.3L213,37.8C212.9,37.9,212.7,38,212.6,38z
				 M217.1,18.4l-3.6,17.5l11.2-11.2l3.6-17.5L217.1,18.4z"/>
		</g>
		<g>
			<polygon class="st1" points="198.9,35.9 194.9,55.2 207.4,42.7 211.4,23.4 			"/>
			<path class="st2" d="M194.9,55.7c-0.1,0-0.2,0-0.2-0.1c-0.2-0.1-0.3-0.3-0.3-0.5l4-19.3c0-0.1,0.1-0.2,0.1-0.3L211,23.1
				c0.2-0.2,0.4-0.2,0.6-0.1c0.2,0.1,0.3,0.3,0.3,0.5l-4,19.3c0,0.1-0.1,0.2-0.1,0.3l-12.5,12.5C195.1,55.7,195,55.7,194.9,55.7z
				 M199.3,36.2l-3.6,17.5l11.2-11.2l3.6-17.5L199.3,36.2z"/>
		</g>
		<g>
			<path class="st2" d="M219.1,44.9c-0.4,0-0.7-0.2-0.9-0.5c-0.2-0.4-0.1-0.9,0.2-1.2l12.5-12.5c0.1-0.1,0.3-0.2,0.5-0.3l19.3-4
				c0.4-0.1,0.9,0.1,1.1,0.5c0.2,0.4,0.1,0.9-0.2,1.2l-12.5,12.5c-0.1,0.1-0.3,0.2-0.5,0.3l-19.3,4
				C219.2,44.9,219.1,44.9,219.1,44.9z M232.1,32.3l-9.9,9.9l15.7-3.3l9.9-9.9L232.1,32.3z M238.3,39.9L238.3,39.9L238.3,39.9z"/>
		</g>
		<g>
			<path class="st2" d="M201.3,62.7c-0.4,0-0.7-0.2-0.9-0.5c-0.2-0.4-0.1-0.9,0.2-1.2l12.5-12.5c0.1-0.1,0.3-0.2,0.5-0.3l19.3-4
				c0.4-0.1,0.9,0.1,1.1,0.5s0.1,0.9-0.2,1.2l-6.3,6.3c-0.4,0.4-1,0.4-1.4,0s-0.4-1,0-1.4l3.9-3.9l-15.7,3.3l-9.9,9.9l15.7-3.3
				l2.7-2.7c0.4-0.4,1-0.4,1.4,0c0.4,0.4,0.4,1,0,1.4l-2.9,2.9c-0.1,0.1-0.3,0.2-0.5,0.3l-19.3,4C201.5,62.7,201.4,62.7,201.3,62.7z
				"/>
		</g>
		<polygon class="st6" points="202.3,32.4 198.3,51.7 210.8,39.2 214.8,19.9 		"/>
		<polygon class="st6" points="219.9,16 216.2,33.8 227.7,22.3 231.4,4.4 		"/>
		<g>
			<path class="st2" d="M212.6,38.5c-0.2,0-0.3,0-0.5-0.1c-0.4-0.2-0.6-0.6-0.5-1.1l4-19.3c0-0.2,0.1-0.4,0.3-0.5L228.4,5
				c0.3-0.3,0.8-0.4,1.2-0.2c0.4,0.2,0.6,0.7,0.5,1.1l-4,19.3c0,0.2-0.1,0.4-0.3,0.5l-12.5,12.5C213.1,38.4,212.9,38.5,212.6,38.5z
				 M217.5,18.7l-3.3,15.7l9.9-9.9l3.3-15.7L217.5,18.7z"/>
		</g>
		<g>
			<path class="st2" d="M194.9,56.2c-0.2,0-0.3,0-0.5-0.1c-0.4-0.2-0.6-0.6-0.5-1.1l4-19.3c0-0.2,0.1-0.4,0.3-0.5l12.5-12.5
				c0.3-0.3,0.8-0.4,1.2-0.2c0.4,0.2,0.6,0.7,0.5,1.1l-4,19.3c0,0.2-0.1,0.4-0.3,0.5l-12.5,12.5C195.4,56.1,195.1,56.2,194.9,56.2z
				 M199.8,36.4l-3.3,15.7l9.9-9.9l3.3-15.7L199.8,36.4z"/>
		</g>
		<g>
			<path class="st2" d="M113.3,252.6C53,252.6,3.9,203.5,3.9,143.1C3.9,82.8,53,33.7,113.3,33.7c27.5,0,53.8,10.3,74.1,29
				c0.2,0.2,0.3,0.4,0.3,0.7c0,0.3-0.1,0.5-0.3,0.7l-76.4,76.4c-0.7,0.7-1,1.6-1,2.5s0.4,1.8,1,2.5c1.4,1.4,3.6,1.4,5,0l76.4-76.4
				c0.2-0.2,0.4-0.3,0.7-0.3c0.3,0,0.5,0.1,0.7,0.3c18.6,20.2,28.8,46.5,28.8,74c0,25.5-9,50.3-25.3,70c-0.4,0.4-1,0.5-1.4,0.1
				c-0.4-0.4-0.5-1-0.1-1.4c16-19.3,24.9-43.6,24.9-68.7c0-26.6-9.8-52.1-27.6-71.8l-75.6,75.6c-2.2,2.2-5.7,2.2-7.9,0
				c-1.1-1.1-1.6-2.5-1.6-3.9c0-1.5,0.6-2.9,1.6-3.9l75.6-75.6c-19.8-17.9-45.3-27.7-72-27.7C54.1,35.7,5.9,83.9,5.9,143.1
				s48.2,107.4,107.4,107.4c29.2,0,56.5-11.6,77-32.5c0.4-0.4,1-0.4,1.4,0c0.4,0.4,0.4,1,0,1.4C170.9,240.8,143,252.6,113.3,252.6z"
				/>
		</g>
	</g>
	<g>
		<path class="st2" d="M21.6,217.9c-1.6,0-3-1.3-3-3s1.3-3,3-3s3,1.3,3,3S23.2,217.9,21.6,217.9z M21.6,212.9c-1.1,0-2,0.9-2,2
			s0.9,2,2,2s2-0.9,2-2S22.7,212.9,21.6,212.9z"/>
	</g>
	<g>
		<path class="st4" d="M109,24.6c-1.6,0-3-1.3-3-3s1.3-3,3-3s3,1.3,3,3S110.6,24.6,109,24.6z M109,19.6c-1.1,0-2,0.9-2,2s0.9,2,2,2
			s2-0.9,2-2S110.1,19.6,109,19.6z"/>
	</g>
	<g>
		<path class="st2" d="M170.3,42.5c-0.1,0-0.3-0.1-0.4-0.1c-0.1-0.1-0.2-0.3-0.1-0.5l0.8-2.6l-0.8-2.6c-0.1-0.2,0-0.4,0.1-0.5
			c0.1-0.1,0.3-0.2,0.5-0.1l2.6,0.8l2.6-0.8c0.2-0.1,0.4,0,0.5,0.1s0.2,0.3,0.1,0.5l-0.8,2.6l0.8,2.6c0.1,0.2,0,0.4-0.1,0.5
			c-0.1,0.1-0.3,0.2-0.5,0.1l-1-0.3c-0.3-0.1-0.4-0.4-0.3-0.6c0.1-0.3,0.4-0.4,0.6-0.3l0.1,0l-0.5-1.8c0-0.1,0-0.2,0-0.3l0.5-1.8
			l-1.8,0.5c-0.1,0-0.2,0-0.3,0l-1.8-0.5l0.5,1.8c0,0.1,0,0.2,0,0.3l-0.5,1.8l1.8-0.5c0.3-0.1,0.5,0.1,0.6,0.3
			c0.1,0.3-0.1,0.5-0.3,0.6l-2.7,0.8C170.4,42.5,170.4,42.5,170.3,42.5z"/>
	</g>
	<g>
		<path class="st6" d="M215.3,218.1c0,0-0.1,0-0.1,0l-1-0.3c-0.3-0.1-0.4-0.4-0.3-0.6c0.1-0.3,0.4-0.4,0.6-0.3l0.1,0l-0.5-1.8
			c0-0.1,0-0.2,0-0.3l0.5-1.8l-1.8,0.5c-0.1,0-0.2,0-0.3,0l-1.8-0.5l0.5,1.8c0,0.1,0,0.2,0,0.3l-0.5,1.8l1.8-0.5
			c0.3-0.1,0.5,0.1,0.6,0.3c0.1,0.3-0.1,0.5-0.3,0.6l-2.7,0.8c-0.2,0-0.4,0-0.5-0.1c-0.1-0.1-0.2-0.3-0.1-0.5l0.8-2.6l-0.8-2.6
			c-0.1-0.2,0-0.4,0.1-0.5c0.1-0.1,0.3-0.2,0.5-0.1l2.6,0.8l2.6-0.8c0.2-0.1,0.4,0,0.5,0.1s0.2,0.3,0.1,0.5l-0.8,2.6l0.8,2.6
			c0.1,0.2,0,0.4-0.1,0.5C215.6,218.1,215.5,218.1,215.3,218.1z"/>
	</g>
	<g>
		<path class="st4" d="M234.4,150.7c-0.1,0-0.3-0.1-0.4-0.1c-0.1-0.1-0.2-0.3-0.1-0.5l0.8-2.6l-0.8-2.6c-0.1-0.2,0-0.4,0.1-0.5
			c0.1-0.1,0.3-0.2,0.5-0.1l2.6,0.8l2.6-0.8c0.2-0.1,0.4,0,0.5,0.1c0.1,0.1,0.2,0.3,0.1,0.5l-0.8,2.6l0.8,2.6c0.1,0.2,0,0.4-0.1,0.5
			c-0.1,0.1-0.3,0.2-0.5,0.1l-1-0.3c-0.3-0.1-0.4-0.4-0.3-0.6c0.1-0.3,0.4-0.4,0.6-0.3l0.1,0l-0.5-1.8c0-0.1,0-0.2,0-0.3l0.5-1.8
			l-1.8,0.5c-0.1,0-0.2,0-0.3,0l-1.8-0.5l0.5,1.8c0,0.1,0,0.2,0,0.3l-0.5,1.8l1.8-0.5c0.3-0.1,0.5,0.1,0.6,0.3
			c0.1,0.3-0.1,0.5-0.3,0.6l-2.7,0.8C234.5,150.7,234.4,150.7,234.4,150.7z"/>
	</g>
	<g>
		<g>
			<path class="st6" d="M52.4,40.9c-0.3,0-0.5-0.2-0.5-0.5V38c0-0.3,0.2-0.5,0.5-0.5s0.5,0.2,0.5,0.5v2.4
				C52.9,40.7,52.6,40.9,52.4,40.9z"/>
		</g>
		<g>
			<path class="st6" d="M52.4,46.8c-0.3,0-0.5-0.2-0.5-0.5v-2.4c0-0.3,0.2-0.5,0.5-0.5s0.5,0.2,0.5,0.5v2.4
				C52.9,46.6,52.6,46.8,52.4,46.8z"/>
		</g>
		<g>
			<path class="st6" d="M56.5,42.7h-2.4c-0.3,0-0.5-0.2-0.5-0.5s0.2-0.5,0.5-0.5h2.4c0.3,0,0.5,0.2,0.5,0.5S56.8,42.7,56.5,42.7z"/>
		</g>
		<g>
			<path class="st6" d="M50.6,42.7h-2.4c-0.3,0-0.5-0.2-0.5-0.5s0.2-0.5,0.5-0.5h2.4c0.3,0,0.5,0.2,0.5,0.5S50.9,42.7,50.6,42.7z"/>
		</g>
	</g>
	<g>
		<g>
			<path class="st3" d="M186.8,236.2c-0.3,0-0.5-0.2-0.5-0.5v-2.4c0-0.3,0.2-0.5,0.5-0.5s0.5,0.2,0.5,0.5v2.4
				C187.3,235.9,187,236.2,186.8,236.2z"/>
		</g>
		<g>
			<path class="st3" d="M186.8,242c-0.3,0-0.5-0.2-0.5-0.5v-2.4c0-0.3,0.2-0.5,0.5-0.5s0.5,0.2,0.5,0.5v2.4
				C187.3,241.8,187,242,186.8,242z"/>
		</g>
		<g>
			<path class="st3" d="M190.9,237.9h-2.4c-0.3,0-0.5-0.2-0.5-0.5s0.2-0.5,0.5-0.5h2.4c0.3,0,0.5,0.2,0.5,0.5
				S191.2,237.9,190.9,237.9z"/>
		</g>
		<g>
			<path class="st3" d="M185,237.9h-2.4c-0.3,0-0.5-0.2-0.5-0.5s0.2-0.5,0.5-0.5h2.4c0.3,0,0.5,0.2,0.5,0.5S185.3,237.9,185,237.9z"
				/>
		</g>
	</g>
</g>
</svg>
