<svg xmlns="http://www.w3.org/2000/svg" id="Layer_1" x="0" y="0" version="1.1" viewBox="0 0 256 256" xml:space="preserve"><style>.st0{fill:#dbfdff}.st1{fill:#fff}.st2{fill:#48386a}.st3{fill:#ff8584}.st4{fill:#9feaff}.st5{fill:#febe7f}</style><path d="M229.1 143.7c3-6.5 4.7-13.7 4.7-21.3 0-10.8-3.4-20.8-9.2-29 7.4-8.8 11.9-20.1 11.9-32.5 0-27.9-22.6-50.5-50.5-50.5-22.7 0-41.9 15-48.3 35.6-8.2-5.7-18.1-9-28.8-9-3.2 0-6.2.3-9.2.9C90.4 27 76.6 20.1 61.2 20.1c-27.9 0-50.5 22.6-50.5 50.5 0 7.1 1.4 13.8 4.1 19.9-1 4-1.6 8.3-1.6 12.7 0 12.3 4.4 23.5 11.6 32.2-10.4 9.3-16.9 22.7-16.9 37.7 0 27.9 22.6 50.5 50.5 50.5 9.3 0 18.1-2.5 25.6-7 8.4 6.3 18.9 10 30.2 10 15.3 0 29-6.8 38.3-17.6 9.1 9 21.7 14.6 35.5 14.6 27.9 0 50.5-22.6 50.5-50.5-.1-11.1-3.5-21.2-9.4-29.4zM55.7 246.3c-3.5 0-6.3-2.9-6.3-6.5V238c0-3.6 2.8-6.5 6.3-6.5h140.9v14.9H55.7z" class="st0"/><path d="M181.8 251.7h18.8c1.5 0 2.7-1.2 2.7-2.7 0-1.5-1.2-2.7-2.7-2.7H51.5c-3.9 0-7.1-2.9-7.1-6.5V238c0-3.6 3.2-6.5 7.1-6.5h146.4c3 0 5.4-2.4 5.4-5.4H50.9c-6.6 0-12 5.4-12 12v1.8c0 6.6 5.4 12 12 12h130.9z" class="st1"/><path d="M200.6 252.7h-18.8c-.6 0-1-.4-1-1s.4-1 1-1h18.8c.9 0 1.7-.8 1.7-1.7 0-.9-.8-1.7-1.7-1.7H51.5c-4.5 0-8.1-3.4-8.1-7.5V238c0-4.2 3.6-7.5 8.1-7.5h146.4c2.1 0 3.9-1.5 4.3-3.4H50.9c-6.1 0-11 4.9-11 11v1.8c0 6.1 4.9 11 11 11h122.7c.6 0 1 .4 1 1s-.4 1-1 1H50.9c-7.2 0-13-5.8-13-13v-1.8c0-7.2 5.8-13 13-13h152.4c.6 0 1 .4 1 1 0 3.6-2.9 6.4-6.4 6.4H51.5c-3.4 0-6.1 2.5-6.1 5.5v1.8c0 3 2.7 5.5 6.1 5.5h149.1c2.1 0 3.7 1.7 3.7 3.7s-1.7 3.7-3.7 3.7z" class="st2"/><path d="M39 115V16.3c0-6.6 5.4-12 12-12h140.4c6.6 0 12 5.4 12 12V226H50.9c-6.6 0-12 5.4-12 12V115z" class="st1"/><path d="M39 238.9c-.6 0-1-.4-1-1v-103c0-.6.4-1 1-1s1 .4 1 1V231c2.3-3.6 6.4-6.1 11-6.1h151.4V16.3c0-6.1-4.9-11-11-11H50.9c-6.1 0-11 4.9-11 11V115c0 .6-.4 1-1 1s-1-.4-1-1V16.3c0-7.2 5.8-13 13-13h140.4c7.2 0 13 5.8 13 13V226c0 .6-.4 1-1 1H50.9c-6.1 0-11 4.9-11 11 .1.5-.4.9-.9.9z" class="st2"/><path d="M213.5 149.4h-10.2V92.8h10.2c2.8 0 5 2.2 5 5v46.6c0 2.8-2.3 5-5 5z" class="st1"/><path d="M213.5 150.4h-10.2c-.6 0-1-.4-1-1V92.8c0-.6.4-1 1-1h10.2c3.3 0 6 2.7 6 6v46.6c0 3.3-2.7 6-6 6zm-9.2-2h9.2c2.2 0 4-1.8 4-4V97.8c0-2.2-1.8-4-4-4h-9.2v54.6z" class="st2"/><path d="M218.5 190.4v10.5c0 2.8-2.3 5.1-5.1 5.1h-10v-56.6h10c2.8 0 5.1 2.3 5.1 5.1v35.9z" class="st1"/><path d="M213.3 207h-10c-.6 0-1-.4-1-1v-56.6c0-.6.4-1 1-1h10c3.4 0 6.1 2.7 6.1 6.1v26.8c0 .6-.4 1-1 1s-1-.4-1-1v-26.8c0-2.3-1.9-4.1-4.1-4.1h-9V205h9c2.3 0 4.1-1.9 4.1-4.1v-10.5c0-.6.4-1 1-1s1 .4 1 1v10.5c.1 3.4-2.7 6.1-6.1 6.1z" class="st2"/><path d="M218.5 60.3v27.4c0 2.8-2.3 5.1-5.1 5.1h-10V36.2h10c2.8 0 5.1 2.3 5.1 5.1v19z" class="st1"/><path d="M213.3 93.8h-10c-.6 0-1-.4-1-1V36.2c0-.6.4-1 1-1h10c3.4 0 6.1 2.7 6.1 6.1V53c0 .6-.4 1-1 1s-1-.4-1-1V41.3c0-2.3-1.9-4.1-4.1-4.1h-9v54.6h9c2.3 0 4.1-1.9 4.1-4.1V60.3c0-.6.4-1 1-1s1 .4 1 1v27.4c.1 3.4-2.7 6.1-6.1 6.1z" class="st2"/><path d="M189.5 66.5v33.4H79.2V26.6h110.3v29.1z" class="st0"/><path d="M128.5 72.5h11.6v114.6h-11.6z" class="st3" transform="rotate(90 134.31 129.816)"/><path d="M191.5 247.3H50.7c-4 0-7.3-3.4-7.3-7.5V238c0-4.2 3.3-7.5 7.3-7.5h140.9c.6 0 1 .4 1 1v14.9c-.1.4-.5.9-1.1.9zM50.7 232.4c-2.9 0-5.3 2.5-5.3 5.5v1.8c0 3 2.4 5.5 5.3 5.5h139.9v-12.9H50.7zM39 130.8c-.6 0-1-.4-1-1v-4.9c0-.6.4-1 1-1s1 .4 1 1v4.9c0 .6-.5 1-1 1z" class="st2"/><path d="M191.5 239.3h-62.3c-.3 0-.5-.2-.5-.5s.2-.5.5-.5h62.3c.3 0 .5.2.5.5s-.2.5-.5.5zM121.1 239.3H44.4c-.3 0-.5-.2-.5-.5s.2-.5.5-.5h76.7c.3 0 .5.2.5.5s-.2.5-.5.5zM187.4 106.3H74.2c-2.8 0-5-2.2-5-5V25.2c0-2.8 2.2-5 5-5h113.2c2.8 0 5 2.2 5 5v76.2c0 2.7-2.2 4.9-5 4.9zM74.2 22.2c-1.7 0-3 1.3-3 3v76.2c0 1.7 1.3 3 3 3h113.2c1.7 0 3-1.3 3-3V25.2c0-1.7-1.3-3-3-3H74.2z" class="st2"/><path d="M186 100.4H75.7c-.3 0-.5-.2-.5-.5V26.6c0-.3.2-.5.5-.5H186c.3 0 .5.2.5.5v29.1c0 .3-.2.5-.5.5s-.5-.2-.5-.5V27.1H76.2v72.3h109.3V66.5c0-.3.2-.5.5-.5s.5.2.5.5v33.4c0 .3-.3.5-.5.5zM191.4 139.9h-82.2c-.6 0-1-.4-1-1s.4-1 1-1h81.2v-16.1H71.2v16.1h27.5c.6 0 1 .4 1 1s-.4 1-1 1H70.2c-.6 0-1-.4-1-1v-18.1c0-.6.4-1 1-1h121.2c.6 0 1 .4 1 1v18.1c0 .5-.4 1-1 1z" class="st2"/><path d="M188.1 136.1H73.5c-.3 0-.5-.2-.5-.5V124c0-.3.2-.5.5-.5h114.6c.3 0 .5.2.5.5v11.6c0 .3-.2.5-.5.5zm-114.1-1h113.6v-10.6H74v10.6zM169.6 150.4H70.2c-.3 0-.5-.2-.5-.5s.2-.5.5-.5h99.4c.3 0 .5.2.5.5s-.2.5-.5.5zM186 167h-24c-.3 0-.5-.2-.5-.5s.2-.5.5-.5h24c.3 0 .5.2.5.5s-.3.5-.5.5zM152.6 167H70.2c-.3 0-.5-.2-.5-.5s.2-.5.5-.5h82.3c.3 0 .5.2.5.5s-.2.5-.4.5zM180.5 183.6H70.2c-.3 0-.5-.2-.5-.5s.2-.5.5-.5h110.3c.3 0 .5.2.5.5s-.2.5-.5.5zM169.6 200.2h-67.1c-.3 0-.5-.2-.5-.5s.2-.5.5-.5h67.1c.3 0 .5.2.5.5s-.2.5-.5.5zM92.8 200.2H70.2c-.3 0-.5-.2-.5-.5s.2-.5.5-.5h22.6c.3 0 .5.2.5.5s-.2.5-.5.5z" class="st2"/><path d="M217.6 125.3v19.3c0 .6-.5 1-1 1h-9.8V97.7h9.8c.6 0 1 .5 1 1v26.6z" class="st4"/><path d="M213.1 145.6h-9.8c-.3 0-.5-.2-.5-.5V97.2c0-.3.2-.5.5-.5h9.8c.8 0 1.5.7 1.5 1.5v19.2c0 .3-.2.5-.5.5s-.5-.2-.5-.5V98.2c0-.3-.2-.5-.5-.5h-9.3v46.9h9.3c.3 0 .5-.2.5-.5v-19.3c0-.3.2-.5.5-.5s.5.2.5.5V144c0 .9-.7 1.6-1.5 1.6z" class="st2"/><path d="M203.3 201.7v-47.9h9.8c.6 0 1 .4 1 1v45.9c0 .6-.4 1-1 1h-9.8z" class="st5"/><path d="M213.1 202.2h-9.8c-.3 0-.5-.2-.5-.5v-47.9c0-.3.2-.5.5-.5h9.8c.8 0 1.5.7 1.5 1.5v45.9c0 .8-.7 1.5-1.5 1.5zm-9.3-1h9.3c.3 0 .5-.2.5-.5v-45.9c0-.3-.2-.5-.5-.5h-9.3v46.9z" class="st2"/><g><path d="M203.3 88.5V40.6h9.8c.6 0 1 .4 1 1v45.9c0 .6-.4 1-1 1h-9.8z" class="st3"/><path d="M213.1 89h-9.8c-.3 0-.5-.2-.5-.5V40.6c0-.3.2-.5.5-.5h9.8c.8 0 1.5.7 1.5 1.5v45.9c0 .8-.7 1.5-1.5 1.5zm-9.3-1h9.3c.3 0 .5-.2.5-.5V41.6c0-.3-.2-.5-.5-.5h-9.3V88z" class="st2"/></g><g><path d="M108.8 85.7c-.1 0-.3 0-.4-.1-.2-.2-.2-.5 0-.7l44-44c.2-.2.5-.2.7 0s.2.5 0 .7l-44 44c0 .1-.2.1-.3.1z" class="st2"/></g><g><path d="M123 81.9c-.1 0-.3 0-.4-.1-.2-.2-.2-.5 0-.7l21.8-21.8c.2-.2.5-.2.7 0s.2.5 0 .7l-21.8 21.8s-.2.1-.3.1z" class="st2"/></g><g><path d="M39 116.2V16.3c0-6.6 5.4-12 12-12h7.4V226H51c-6.6 0-12 5.4-12 12V116.2z" class="st3"/><path d="M39 238.9c-.6 0-1-.4-1-1v-103c0-.6.4-1 1-1s1 .4 1 1V231c2.3-3.6 6.4-6.1 11-6.1h6.4V5.3H51c-6.1 0-11 4.9-11 11v99.9c0 .6-.4 1-1 1s-1-.4-1-1V16.3c0-7.2 5.8-13 13-13h7.4c.6 0 1 .4 1 1V226c0 .6-.4 1-1 1H51c-6.1 0-11 4.9-11 11 0 .5-.5.9-1 .9z" class="st2"/></g><g><path d="M39 130.8c-.6 0-1-.4-1-1V124c0-.6.4-1 1-1s1 .4 1 1v5.8c0 .6-.5 1-1 1z" class="st2"/></g><g><path d="M227.8 119.6c-1.6 0-3-1.3-3-3s1.3-3 3-3 3 1.3 3 3-1.4 3-3 3zm0-5c-1.1 0-2 .9-2 2s.9 2 2 2 2-.9 2-2-.9-2-2-2z" class="st2"/></g><g><path d="M228.6 176.5c-1.6 0-3-1.3-3-3s1.3-3 3-3 3 1.3 3 3-1.4 3-3 3zm0-5c-1.1 0-2 .9-2 2s.9 2 2 2 2-.9 2-2-.9-2-2-2z" class="st3"/></g><g><path d="M25.1 96H25l-1-.3c-.3-.1-.4-.4-.3-.6.1-.3.4-.4.6-.3h.1l-.6-1.8v-.3l.5-1.8-1.8.5h-.3l-1.8-.5.5 1.8v.3l-.5 1.8 1.8-.5c.3-.1.5.1.6.3.1.3-.1.5-.3.6l-2.7.8c-.2 0-.4 0-.5-.1-.1-.1-.2-.3-.1-.5l.8-2.6-.8-2.6c-.1-.2 0-.4.1-.5.1-.1.3-.2.5-.1l2.6.8 2.6-.8c.2-.1.4 0 .5.1s.2.3.1.5l-.8 2.6.8 2.6c.1.2 0 .4-.1.5-.1.1-.3.1-.4.1z" class="st2"/></g><g><path d="M31.2 58.7h-.1l-1-.3c-.3-.1-.4-.4-.3-.6.1-.3.4-.4.6-.3h.1l-.5-1.9v-.3l.5-1.8-1.8.5h-.3l-1.8-.5.5 1.8v.3l-.5 1.8 1.8-.5c.3-.1.5.1.6.3.1.3-.1.5-.3.6l-2.7.9c-.2 0-.4 0-.5-.1-.1-.1-.2-.3-.1-.5l.8-2.6-.8-2.6c-.1-.2 0-.4.1-.5s.3-.2.5-.1l2.6.8 2.6-.8c.2-.1.4 0 .5.1s.2.3.1.5l-.8 2.6.8 2.6c.1.2 0 .4-.1.5-.2.1-.3.1-.5.1z" class="st5"/></g><g><path d="M25.6 144.3c-.3 0-.5-.2-.5-.5v-2.4c0-.3.2-.5.5-.5s.5.2.5.5v2.4c0 .3-.2.5-.5.5zM25.6 150.2c-.3 0-.5-.2-.5-.5v-2.4c0-.3.2-.5.5-.5s.5.2.5.5v2.4c0 .3-.2.5-.5.5zM29.7 146.1h-2.4c-.3 0-.5-.2-.5-.5s.2-.5.5-.5h2.4c.3 0 .5.2.5.5s-.2.5-.5.5zM23.9 146.1h-2.4c-.3 0-.5-.2-.5-.5s.2-.5.5-.5h2.4c.3 0 .5.2.5.5s-.2.5-.5.5z" class="st3"/></g><g><path d="M226.1 56c-.3 0-.5-.2-.5-.5v-2.4c0-.3.2-.5.5-.5s.5.2.5.5v2.4c0 .3-.2.5-.5.5zM226.1 61.8c-.3 0-.5-.2-.5-.5v-2.4c0-.3.2-.5.5-.5s.5.2.5.5v2.4c0 .3-.2.5-.5.5zM230.2 57.7h-2.4c-.3 0-.5-.2-.5-.5s.2-.5.5-.5h2.4c.3 0 .5.2.5.5s-.2.5-.5.5zM224.4 57.7H222c-.3 0-.5-.2-.5-.5s.2-.5.5-.5h2.4c.3 0 .5.2.5.5s-.2.5-.5.5z" class="st5"/></g><g><path d="M22.4 185.2c-.3 0-.5-.2-.5-.5v-2.4c0-.3.2-.5.5-.5s.5.2.5.5v2.4c0 .2-.2.5-.5.5zM22.4 191c-.3 0-.5-.2-.5-.5v-2.4c0-.3.2-.5.5-.5s.5.2.5.5v2.4c0 .3-.2.5-.5.5zM26.5 186.9h-2.4c-.3 0-.5-.2-.5-.5s.2-.5.5-.5h2.4c.3 0 .5.2.5.5s-.2.5-.5.5zM20.7 186.9h-2.4c-.3 0-.5-.2-.5-.5s.2-.5.5-.5h2.4c.3 0 .5.2.5.5s-.2.5-.5.5z" class="st4"/></g></svg>