<?xml version="1.0" encoding="utf-8"?>
<!-- Generator: Adobe Illustrator 22.1.0, SVG Export Plug-In . SVG Version: 6.00 Build 0)  -->
<svg version="1.1" id="Layer_1" xmlns="http://www.w3.org/2000/svg" xmlns:xlink="http://www.w3.org/1999/xlink" x="0px" y="0px"
	 viewBox="0 0 256 256" style="enable-background:new 0 0 256 256;" xml:space="preserve">
<style type="text/css">
	.st0{fill:#FFFFFF;}
	.st1{fill:#48386A;}
	.st2{fill:#9FEAFF;}
</style>
<g>
	<g>
		<polygon class="st0" points="237.6,39.9 218.4,43.9 230.9,31.4 250.2,27.4 		"/>
		<path class="st1" d="M218.4,44.4c-0.2,0-0.4-0.1-0.4-0.3c-0.1-0.2-0.1-0.4,0.1-0.6l12.5-12.5c0.1-0.1,0.2-0.1,0.3-0.1l19.3-4
			c0.2,0,0.4,0.1,0.5,0.3c0.1,0.2,0.1,0.4-0.1,0.6L238,40.3c-0.1,0.1-0.2,0.1-0.3,0.1l-19.3,4C218.4,44.4,218.4,44.4,218.4,44.4z
			 M231.1,31.9l-11.2,11.2l17.5-3.6l11.2-11.2L231.1,31.9z M237.6,39.9L237.6,39.9L237.6,39.9z"/>
	</g>
	<g>
		<polygon class="st0" points="222.8,54.8 219.9,57.7 200.6,61.7 213.1,49.2 232.4,45.2 226.1,51.4 		"/>
		<path class="st1" d="M200.6,62.2c-0.2,0-0.4-0.1-0.4-0.3c-0.1-0.2-0.1-0.4,0.1-0.6l12.5-12.5c0.1-0.1,0.2-0.1,0.3-0.1l19.3-4
			c0.2,0,0.4,0.1,0.5,0.3c0.1,0.2,0.1,0.4-0.1,0.6l-6.3,6.3c-0.2,0.2-0.5,0.2-0.7,0s-0.2-0.5,0-0.7l5.1-5.1l-17.5,3.6l-11.2,11.2
			l17.5-3.6l2.8-2.8c0.2-0.2,0.5-0.2,0.7,0s0.2,0.5,0,0.7l-2.9,2.9c-0.1,0.1-0.2,0.1-0.3,0.1l-19.3,4
			C200.7,62.2,200.7,62.2,200.6,62.2z"/>
	</g>
	<path class="st0" d="M236.4,24c0,1.2-0.4,2.3-1.3,3.2l-119,119c-1.8,1.8-4.7,1.8-6.5,0c-1.8-1.8-1.8-4.7,0-6.5l12.8-12.8l12-12
		l11.9-11.9L182,67.3l4-4l42.6-42.6c1.8-1.8,4.7-1.8,6.5,0C236,21.7,236.4,22.8,236.4,24z"/>
	<g>
		<path class="st0" d="M195.9,212.4c15.7-18.8,25.1-43,25.1-69.3c0-28.2-10.8-54-28.6-73.3l-76.4,76.4c-1.8,1.8-4.7,1.8-6.5,0
			c-1.8-1.8-1.8-4.7,0-6.5l12.8-12.8l12-12l11.9-11.9L182,67.3l4-4c-19.3-17.8-45.1-28.7-73.4-28.7C52.8,34.7,4.2,83.3,4.2,143.1
			s48.6,108.4,108.4,108.4c30.4,0,58-12.6,77.7-32.8L195.9,212.4z"/>
		<path class="st1" d="M112.6,252.6c-60.3,0-109.4-49.1-109.4-109.4c0-60.3,49.1-109.4,109.4-109.4c27.5,0,53.8,10.3,74.1,29
			c0.2,0.2,0.3,0.4,0.3,0.7s-0.1,0.5-0.3,0.7l-76.4,76.4c-1.4,1.4-1.4,3.7,0,5c1.4,1.4,3.6,1.4,5,0l76.4-76.4
			c0.2-0.2,0.4-0.3,0.7-0.3c0,0,0,0,0,0c0.3,0,0.5,0.1,0.7,0.3c18.6,20.2,28.8,46.5,28.8,74c0,25.5-9,50.3-25.3,70
			c-0.4,0.4-1,0.5-1.4,0.1c-0.4-0.4-0.5-1-0.1-1.4c16-19.2,24.9-43.6,24.9-68.7c0-26.6-9.8-52.1-27.6-71.8l-75.6,75.6
			c-2.2,2.2-5.7,2.2-7.9,0c-2.2-2.2-2.2-5.7,0-7.9l75.6-75.6c-19.8-17.9-45.3-27.7-72-27.7C53.4,35.7,5.2,83.9,5.2,143.1
			s48.2,107.4,107.4,107.4c29.2,0,56.5-11.6,77-32.5c0.4-0.4,1-0.4,1.4,0c0.4,0.4,0.4,1,0,1.4C170.2,240.8,142.3,252.6,112.6,252.6z
			"/>
	</g>
	<path class="st2" d="M200.9,212.4c15.7-18.8,25.1-43,25.1-69.3c0-28.2-10.8-54-28.6-73.3l-76.4,76.4c-1.8,1.8-4.7,1.8-6.5,0
		c-1.8-1.8-1.8-4.7,0-6.5l12.8-12.8l12-12l11.9-11.9L187,67.3l4-4c-19.3-17.8-45.1-28.7-73.4-28.7C57.8,34.7,9.2,83.3,9.2,143.1
		s48.6,108.4,108.4,108.4c30.4,0,58-12.6,77.7-32.8L200.9,212.4z"/>
	<g>
		<path class="st0" d="M188.5,73.8l-72.4,72.4c-1.8,1.8-4.7,1.8-6.5,0c-1.8-1.8-1.8-4.7,0-6.5l12.8-12.8l12-12l11.9-11.9L182,67.3
			c-18.3-16.8-42.7-27.1-69.4-27.1C55.9,40.3,9.7,86.4,9.7,143.1C9.7,199.8,55.9,246,112.6,246s102.9-46.1,102.9-102.9
			C215.4,116.4,205.2,92.1,188.5,73.8z"/>
		<path class="st1" d="M112.6,246.5c-57,0-103.4-46.4-103.4-103.4S55.6,39.8,112.6,39.8c25.9,0,50.7,9.7,69.8,27.2
			c0.1,0.1,0.2,0.2,0.2,0.4s0,0.3-0.1,0.4L110,140.1c-1.6,1.6-1.6,4.2,0,5.8c1.6,1.6,4.2,1.6,5.7,0l72.4-72.4
			c0.1-0.1,0.2-0.1,0.4-0.1c0.1,0,0.3,0.1,0.4,0.2c17.5,19.1,27.1,43.9,27.1,69.7C215.9,200.1,169.6,246.5,112.6,246.5z M112.6,40.8
			c-56.4,0-102.4,45.9-102.4,102.4s45.9,102.4,102.4,102.4c56.4,0,102.3-45.9,102.3-102.4c0-25.4-9.4-49.7-26.5-68.6l-72,72
			c-2,2-5.2,2-7.2,0c-2-2-2-5.2,0-7.2l72-72C162.4,50.2,138.1,40.8,112.6,40.8z"/>
	</g>
	<g>
		<path class="st1" d="M62.1,74.5c-0.3,0-0.6-0.1-0.8-0.4c-0.3-0.4-0.2-1.1,0.2-1.4c1-0.7,2-1.4,3-2.1c0.5-0.3,1.1-0.2,1.4,0.3
			c0.3,0.5,0.2,1.1-0.3,1.4c-1,0.7-2,1.4-3,2.1C62.5,74.4,62.3,74.5,62.1,74.5z"/>
	</g>
	<path class="st2" d="M60.9,78.5c-18,15.8-29.3,38.9-29.3,64.7c0,47.5,38.6,86.1,86.1,86.1s86.1-38.6,86.1-86.1
		c0-22.1-8.4-42.2-22.1-57.5l-60.5,60.5c-1.8,1.8-4.7,1.8-6.5,0c-1.8-1.8-1.8-4.7,0-6.5l12.8-12.8l12-12l11.9-11.9l23.7-23.7
		c-15.3-13.8-35.5-22.2-57.6-22.2c-15.7,0-30.5,4.2-43.2,11.7L60.9,78.5z"/>
	<g>
		<path class="st1" d="M112.6,230.2c-48,0-87.1-39.1-87.1-87.1c0-25,10.8-48.9,29.7-65.4c0.4-0.4,1-0.3,1.4,0.1
			c0.4,0.4,0.3,1-0.1,1.4c-18.4,16.2-29,39.5-29,63.9c0,46.9,38.2,85.1,85.1,85.1s85.1-38.2,85.1-85.1c0-20.6-7.5-40.5-21.1-56
			l-59.8,59.8c-2.2,2.2-5.7,2.2-7.9,0c-2.2-2.2-2.2-5.7,0-7.9l59.8-59.8c-15.5-13.7-35.4-21.2-56.1-21.2c-15,0-29.8,4-42.7,11.5
			c-0.5,0.3-1.1,0.1-1.4-0.4c-0.3-0.5-0.1-1.1,0.4-1.4c13.2-7.7,28.4-11.8,43.7-11.8c21.5,0,42.2,8,58.2,22.4
			c0.2,0.2,0.3,0.4,0.3,0.7c0,0.3-0.1,0.5-0.3,0.7l-60.5,60.5c-1.4,1.4-1.4,3.7,0,5c1.4,1.4,3.6,1.4,5,0L175.9,85
			c0.2-0.2,0.5-0.3,0.7-0.3c0.3,0,0.5,0.1,0.7,0.3c14.4,16,22.3,36.7,22.3,58.1C199.7,191.1,160.6,230.2,112.6,230.2z"/>
	</g>
	<g>
		<path class="st0" d="M117.9,212.2c35.7-2.7,64-32.7,64-69.1c0-17.5-6.5-33.4-17.2-45.6l-48.7,48.7c-1.8,1.8-4.7,1.8-6.5,0
			c-1.8-1.8-1.8-4.7,0-6.5l12.8-12.8l12-12l11.9-11.9l11.9-11.9c-12.2-10.8-28.2-17.3-45.7-17.3c-38.2,0-69.3,31.1-69.3,69.3
			c0,36.7,28.6,66.8,64.7,69.2L117.9,212.2z"/>
		<path class="st1" d="M108,212.8C108,212.8,108,212.8,108,212.8c-36.6-2.4-65.2-33-65.2-69.7c0-38.5,31.3-69.8,69.8-69.8
			c17,0,33.3,6.2,46,17.4c0.1,0.1,0.2,0.2,0.2,0.4c0,0.1,0,0.3-0.1,0.4L110,140.1c-1.6,1.6-1.6,4.2,0,5.8c1.6,1.6,4.2,1.6,5.7,0
			l48.7-48.7c0.1-0.1,0.2-0.2,0.4-0.1c0.1,0,0.3,0.1,0.4,0.2c11.1,12.7,17.3,29,17.3,45.9c0,36.3-28.3,66.9-64.5,69.6
			c-0.3,0-0.5-0.2-0.5-0.5c0-0.3,0.2-0.5,0.5-0.5c35.6-2.7,63.5-32.9,63.5-68.6c0-16.5-5.9-32.4-16.7-44.9l-48.3,48.3
			c-2,2-5.2,2-7.2,0c-2-2-2-5.2,0-7.2l48.3-48.3c-12.5-10.8-28.4-16.8-45-16.8c-37.9,0-68.8,30.9-68.8,68.8
			c0,36.1,28.2,66.3,64.2,68.7c0.3,0,0.5,0.3,0.5,0.5C108.5,212.6,108.3,212.8,108,212.8z"/>
	</g>
	<g>
		<path class="st1" d="M112.6,212.9c-0.3,0-0.5-0.2-0.5-0.5s0.2-0.5,0.5-0.5c0.8,0,1.6,0,2.5,0c0.2,0,0.5,0.2,0.5,0.5
			c0,0.3-0.2,0.5-0.5,0.5C114.3,212.9,113.4,212.9,112.6,212.9z"/>
	</g>
	<path class="st2" d="M67.7,159.6c6.9,20.9,26.7,36.1,49.9,36.1c29,0,52.5-23.6,52.5-52.5c0-12.8-4.6-24.6-12.3-33.7l-36.8,36.8
		c-1.8,1.8-4.7,1.8-6.5,0c-1.8-1.8-1.8-4.7,0-6.5l12.8-12.8l12-12l11.9-11.9c-9.1-7.7-21-12.4-33.8-12.4c-29,0-52.5,23.6-52.5,52.5
		c0,4.2,0.5,8.3,1.4,12.2L67.7,159.6z"/>
	<g>
		<path class="st1" d="M112.6,196.7c-23.1,0-43.6-14.8-50.8-36.7c-0.2-0.5,0.1-1.1,0.6-1.3c0.5-0.2,1.1,0.1,1.3,0.6
			c7,21.2,26.7,35.4,48.9,35.4c28.4,0,51.5-23.1,51.5-51.5c0-11.7-4-23.1-11.3-32.2l-36,36c-2.2,2.2-5.7,2.2-7.9,0
			c-2.2-2.2-2.2-5.7,0-7.9l36-36c-9.1-7.4-20.6-11.4-32.3-11.4c-28.4,0-51.5,23.1-51.5,51.5c0,4,0.5,8.1,1.4,12
			c0.1,0.5-0.2,1.1-0.7,1.2c-0.5,0.1-1.1-0.2-1.2-0.7c-1-4.1-1.5-8.2-1.5-12.5c0-29.5,24-53.5,53.5-53.5c12.6,0,24.8,4.5,34.5,12.6
			c0.2,0.2,0.3,0.4,0.4,0.7c0,0.3-0.1,0.6-0.3,0.7l-36.8,36.8c-1.4,1.4-1.4,3.7,0,5c1.4,1.4,3.6,1.4,5,0l36.8-36.8
			c0.2-0.2,0.5-0.3,0.8-0.3c0.3,0,0.5,0.1,0.7,0.4c8.1,9.6,12.5,21.8,12.5,34.4C166.1,172.7,142.1,196.7,112.6,196.7z"/>
	</g>
	<g>
		<path class="st0" d="M139.3,166.9c-6.6,7.4-16.1,12-26.7,12c-19.7,0-35.8-16-35.8-35.8c0-19.7,16-35.8,35.8-35.8
			c8.3,0,15.9,2.8,21.9,7.5l-12,12l-12.8,12.8c-1.8,1.8-1.8,4.7,0,6.5c1.8,1.8,4.7,1.8,6.5,0l24.9-24.9c4.7,6,7.4,13.6,7.4,21.8
			c0,6.3-1.6,12.3-4.5,17.4L139.3,166.9z"/>
		<path class="st1" d="M112.6,179.4c-20,0-36.3-16.3-36.3-36.3c0-20,16.3-36.3,36.3-36.3c8.1,0,15.8,2.6,22.2,7.6
			c0.1,0.1,0.2,0.2,0.2,0.4s0,0.3-0.1,0.4L110,140.1c-1.6,1.6-1.6,4.2,0,5.8c1.6,1.6,4.2,1.6,5.7,0l24.9-24.9
			c0.1-0.1,0.2-0.2,0.4-0.1c0.1,0,0.3,0.1,0.4,0.2c4.9,6.4,7.5,14,7.5,22.1c0,6.2-1.6,12.3-4.6,17.7c-0.1,0.2-0.4,0.3-0.7,0.2
			c-0.2-0.1-0.3-0.4-0.2-0.7c2.9-5.2,4.5-11.2,4.5-17.2c0-7.6-2.4-14.9-7-21l-24.4,24.4c-2,2-5.2,2-7.2,0c-2-2-2-5.2,0-7.2
			l24.5-24.5c-6.1-4.6-13.4-7.1-21.2-7.1c-19.5,0-35.3,15.8-35.3,35.3s15.8,35.3,35.3,35.3c10,0,19.6-4.3,26.3-11.8
			c0.2-0.2,0.5-0.2,0.7,0c0.2,0.2,0.2,0.5,0,0.7C132.8,175,122.9,179.4,112.6,179.4z"/>
	</g>
	<path class="st2" d="M136.6,143.1c0,10.5-8.5,19-19,19s-19-8.5-19-19c0-10.5,8.5-19,19-19c3.6,0,7,1,9.9,2.8l-12.8,12.8
		c-1.8,1.8-1.8,4.7,0,6.5c1.8,1.8,4.7,1.8,6.5,0l12.8-12.8C135.6,136.2,136.6,139.6,136.6,143.1z"/>
	<g>
		<path class="st1" d="M112.6,163.1c-11,0-20-9-20-20s9-20,20-20c3.7,0,7.3,1,10.4,2.9c0.3,0.2,0.4,0.4,0.5,0.7s-0.1,0.6-0.3,0.8
			l-12.8,12.8c-1.4,1.4-1.4,3.7,0,5c1.4,1.4,3.6,1.4,5,0l12.8-12.8c0.2-0.2,0.5-0.3,0.8-0.3c0.3,0,0.6,0.2,0.7,0.5
			c1.9,3.1,2.8,6.6,2.8,10.3C132.6,154.2,123.6,163.1,112.6,163.1z M112.6,125.1c-9.9,0-18,8.1-18,18s8.1,18,18,18
			c9.9,0,18-8.1,18-18c0-2.8-0.7-5.6-1.9-8.1l-11.9,11.9c-2.2,2.2-5.7,2.2-7.9,0c-2.2-2.2-2.2-5.7,0-7.9l11.9-11.9
			C118.3,125.8,115.5,125.1,112.6,125.1z"/>
	</g>
	<g>
		<path class="st1" d="M109.6,146.7c-0.1,0-0.3,0-0.4-0.1c-0.2-0.2-0.2-0.5,0-0.7L162.1,93c0.2-0.2,0.5-0.2,0.7,0s0.2,0.5,0,0.7
			L110,146.5C109.9,146.6,109.8,146.7,109.6,146.7z"/>
	</g>
	<g>
		<path class="st1" d="M167,89.3c-0.1,0-0.3,0-0.4-0.1c-0.2-0.2-0.2-0.5,0-0.7l68.1-68.1c0.2-0.2,0.5-0.2,0.7,0s0.2,0.5,0,0.7
			l-68.1,68.1C167.3,89.3,167.1,89.3,167,89.3z"/>
	</g>
	<polygon class="st2" points="240.3,36.6 222.4,40.3 234,28.7 251.8,25 	"/>
	<polygon class="st2" points="227.3,51.8 224.4,54.7 205.1,58.7 217.6,46.2 236.9,42.2 230.6,48.4 	"/>
	<g>
		<polygon class="st0" points="215.9,18.2 211.9,37.5 224.4,25 228.4,5.7 		"/>
		<path class="st1" d="M211.9,38c-0.1,0-0.2,0-0.2-0.1c-0.2-0.1-0.3-0.3-0.3-0.5l4-19.3c0-0.1,0.1-0.2,0.1-0.3l12.5-12.5
			c0.2-0.2,0.4-0.2,0.6-0.1c0.2,0.1,0.3,0.3,0.3,0.5l-4,19.3c0,0.1-0.1,0.2-0.1,0.3l-12.5,12.5C212.2,37.9,212,38,211.9,38z
			 M216.4,18.4l-3.6,17.5L224,24.7l3.6-17.5L216.4,18.4z"/>
	</g>
	<g>
		<polygon class="st0" points="198.2,35.9 194.2,55.2 206.7,42.7 210.7,23.4 		"/>
		<path class="st1" d="M194.2,55.7c-0.1,0-0.2,0-0.2-0.1c-0.2-0.1-0.3-0.3-0.3-0.5l4-19.3c0-0.1,0.1-0.2,0.1-0.3l12.5-12.5
			c0.2-0.2,0.4-0.2,0.6-0.1c0.2,0.1,0.3,0.3,0.3,0.5l-4,19.3c0,0.1-0.1,0.2-0.1,0.3l-12.5,12.5C194.4,55.7,194.3,55.7,194.2,55.7z
			 M198.6,36.2L195,53.7l11.2-11.2l3.6-17.5L198.6,36.2z"/>
	</g>
	<g>
		<path class="st1" d="M218.4,44.9c-0.4,0-0.7-0.2-0.9-0.5c-0.2-0.4-0.1-0.9,0.2-1.2l12.5-12.5c0.1-0.1,0.3-0.2,0.5-0.3l19.3-4
			c0.4-0.1,0.9,0.1,1.1,0.5c0.2,0.4,0.1,0.9-0.2,1.2l-12.5,12.5c-0.1,0.1-0.3,0.2-0.5,0.3l-19.3,4C218.5,44.9,218.4,44.9,218.4,44.9
			z M231.4,32.3l-9.9,9.9l15.7-3.3l9.9-9.9L231.4,32.3z M237.6,39.9L237.6,39.9L237.6,39.9z"/>
	</g>
	<g>
		<path class="st1" d="M200.6,62.7c-0.4,0-0.7-0.2-0.9-0.5c-0.2-0.4-0.1-0.9,0.2-1.2l12.5-12.5c0.1-0.1,0.3-0.2,0.5-0.3l19.3-4
			c0.4-0.1,0.9,0.1,1.1,0.5s0.1,0.9-0.2,1.2l-6.3,6.3c-0.4,0.4-1,0.4-1.4,0s-0.4-1,0-1.4l3.9-3.9l-15.7,3.3l-9.9,9.9l15.7-3.3
			l2.7-2.7c0.4-0.4,1-0.4,1.4,0s0.4,1,0,1.4l-2.9,2.9c-0.1,0.1-0.3,0.2-0.5,0.3l-19.3,4C200.8,62.7,200.7,62.7,200.6,62.7z"/>
	</g>
	<polygon class="st2" points="219.1,16 215.4,33.8 227,22.3 230.7,4.4 	"/>
	<polygon class="st2" points="201.6,32.4 197.6,51.7 210.1,39.2 214.1,19.9 	"/>
	<g>
		<path class="st1" d="M211.9,38.5c-0.2,0-0.3,0-0.5-0.1c-0.4-0.2-0.6-0.7-0.5-1.1l4-19.3c0-0.2,0.1-0.4,0.3-0.5L227.7,5
			c0.3-0.3,0.8-0.4,1.2-0.2c0.4,0.2,0.6,0.6,0.5,1.1l-4,19.3c0,0.2-0.1,0.4-0.3,0.5l-12.5,12.5C212.4,38.4,212.2,38.5,211.9,38.5z
			 M216.8,18.7l-3.3,15.7l9.9-9.9l3.3-15.7L216.8,18.7z"/>
	</g>
	<g>
		<path class="st1" d="M194.2,56.2c-0.2,0-0.3,0-0.5-0.1c-0.4-0.2-0.6-0.7-0.5-1.1l4-19.3c0-0.2,0.1-0.4,0.3-0.5L210,22.7
			c0.3-0.3,0.8-0.4,1.2-0.2c0.4,0.2,0.6,0.6,0.5,1.1l-4,19.3c0,0.2-0.1,0.4-0.3,0.5l-12.5,12.5C194.7,56.1,194.4,56.2,194.2,56.2z
			 M199.1,36.4l-3.3,15.7l9.9-9.9l3.3-15.7L199.1,36.4z"/>
	</g>
	<g>
		<path class="st1" d="M112.6,252.6c-60.3,0-109.4-49.1-109.4-109.4c0-60.3,49.1-109.4,109.4-109.4c27.5,0,53.8,10.3,74.1,29
			c0.2,0.2,0.3,0.4,0.3,0.7s-0.1,0.5-0.3,0.7l-76.4,76.4c-1.4,1.4-1.4,3.7,0,5c1.4,1.4,3.6,1.4,5,0l76.4-76.4
			c0.2-0.2,0.4-0.3,0.7-0.3c0,0,0,0,0,0c0.3,0,0.5,0.1,0.7,0.3c18.6,20.2,28.8,46.5,28.8,74c0,25.5-9,50.3-25.3,70
			c-0.4,0.4-1,0.5-1.4,0.1c-0.4-0.4-0.5-1-0.1-1.4c16-19.2,24.9-43.6,24.9-68.7c0-26.6-9.8-52.1-27.6-71.8l-75.6,75.6
			c-2.2,2.2-5.7,2.2-7.9,0c-2.2-2.2-2.2-5.7,0-7.9l75.6-75.6c-19.8-17.9-45.3-27.7-72-27.7C53.4,35.7,5.2,83.9,5.2,143.1
			s48.2,107.4,107.4,107.4c29.2,0,56.5-11.6,77-32.5c0.4-0.4,1-0.4,1.4,0c0.4,0.4,0.4,1,0,1.4C170.2,240.8,142.3,252.6,112.6,252.6z
			"/>
	</g>
	<g>
		<path class="st1" d="M112.9,148.5c-1.4,0-2.8-0.5-3.9-1.6c-2.2-2.2-2.2-5.7,0-7.9l119-119c2.2-2.2,5.7-2.2,7.9,0
			c1.1,1.1,1.6,2.5,1.6,3.9s-0.6,2.9-1.6,3.9l-119,119C115.7,148,114.3,148.5,112.9,148.5z M231.8,20.4c-0.9,0-1.8,0.3-2.5,1
			l-119,119c-1.4,1.4-1.4,3.7,0,5c1.4,1.4,3.6,1.4,5,0l119-119c0.7-0.7,1-1.6,1-2.5s-0.4-1.8-1-2.5
			C233.7,20.8,232.8,20.4,231.8,20.4z"/>
	</g>
</g>
</svg>
