<?xml version="1.0" encoding="utf-8"?>
<!-- Generator: Adobe Illustrator 22.1.0, SVG Export Plug-In . SVG Version: 6.00 Build 0)  -->
<svg version="1.1" id="Layer_1" xmlns="http://www.w3.org/2000/svg" xmlns:xlink="http://www.w3.org/1999/xlink" x="0px" y="0px"
	 viewBox="0 0 256 256" style="enable-background:new 0 0 256 256;" xml:space="preserve">
<style type="text/css">
	.st0{fill:#FFFFFF;}
	.st1{fill:#9FEAFF;}
	.st2{fill:#48386A;}
</style>
<g>
	<path class="st0" d="M213.9,86.1c8.8,15.1,13.9,32.7,13.9,51.5c0,38.1-20.9,71.4-51.8,88.9c-4.8,2.7-9.9,5.1-15.2,7
		c-11,4-22.9,6.2-35.3,6.2c-12.4,0-24.3-2.2-35.3-6.2c-5.3-1.9-10.3-4.3-15.2-7c-30.9-17.6-51.8-50.8-51.8-88.9
		C23.3,81.1,69,35.4,125.5,35.4c33.6,0,63.4,16.2,82,41.2L213.9,86.1z"/>
	<path class="st0" d="M188.1,38.4l-7.5,13.1c-2.6-1.7-5.3-3.2-8-4.6l7.5-13.1L188.1,38.4z"/>
	<path class="st0" d="M78.4,46.8c-2.8,1.4-5.4,3-8,4.6l-7.5-13.1l8-4.6L78.4,46.8z"/>
	<path class="st0" d="M136.2,20.4h-21.3c-3.2,0-5.8-2.6-5.8-5.8v-1.3c0-3.2,2.6-5.8,5.8-5.8h21.3c3.2,0,5.8,2.6,5.8,5.8v1.3
		C142,17.7,139.4,20.4,136.2,20.4z"/>
	<path class="st0" d="M71,247.4l-5.6,4c-1.4,1-3.2,0.8-4.4-0.4c-0.7-0.7-1-1.5-1-2.4c0-0.7,0.2-1.4,0.6-2l14.4-20
		c4.8,2.7,9.9,5.1,15.2,7l-12.1,8.7L71,247.4z"/>
	<path class="st0" d="M191,248.6c0,0.9-0.3,1.8-1,2.4c-1.2,1.2-3.1,1.3-4.4,0.4l-24.7-17.8c5.3-1.9,10.3-4.3,15.2-7l14.4,20
		C190.8,247.2,191,247.9,191,248.6z"/>
	<path class="st1" d="M218.9,86.1c8.8,15.1,13.9,32.7,13.9,51.5c0,38.1-20.9,71.4-51.8,88.9c-4.8,2.7-9.9,5.1-15.2,7
		c-11,4-22.9,6.2-35.3,6.2c-12.4,0-24.3-2.2-35.3-6.2c-5.3-1.9-10.3-4.3-15.2-7c-30.9-17.6-51.8-50.8-51.8-88.9
		C28.3,81.1,74,35.4,130.5,35.4c33.6,0,63.4,16.2,82,41.2L218.9,86.1z"/>
	<g>
		<path class="st0" d="M154.4,58.1c32.5,11.8,55.6,42.9,55.6,79.5c0,46.7-37.8,84.5-84.5,84.5S41,184.3,41,137.6
			s37.8-84.5,84.5-84.5c6.7,0,13.1,0.8,19.3,2.2L154.4,58.1z"/>
		<path class="st2" d="M125.5,223.1c-47.2,0-85.5-38.4-85.5-85.5c0-47.2,38.4-85.5,85.5-85.5c6.6,0,13.2,0.8,19.6,2.2
			c0.5,0.1,0.9,0.7,0.7,1.2s-0.7,0.9-1.2,0.7c-6.2-1.5-12.7-2.2-19.1-2.2C79.4,54.1,42,91.5,42,137.6s37.5,83.5,83.5,83.5
			s83.5-37.5,83.5-83.5c0-35-22.1-66.6-55-78.5c-0.5-0.2-0.8-0.8-0.6-1.3c0.2-0.5,0.8-0.8,1.3-0.6c33.7,12.2,56.3,44.6,56.3,80.4
			C211,184.8,172.7,223.1,125.5,223.1z"/>
	</g>
	<g>
		<path class="st2" d="M125.5,150.1c-0.6,0-1-0.4-1-1s0.4-1,1-1c1.2,0,2.3-0.2,3.3-0.5c4.3-1.4,7.2-5.4,7.2-10s-2.9-8.6-7.2-10
			c-2.1-0.7-4.5-0.7-6.6,0c-4.3,1.4-7.2,5.4-7.2,10c0,3.6,1.8,6.9,4.8,8.8c0.5,0.3,0.6,0.9,0.3,1.4c-0.3,0.5-0.9,0.6-1.4,0.3
			c-3.6-2.3-5.7-6.3-5.7-10.5c0-5.4,3.5-10.2,8.6-11.9c2.5-0.8,5.4-0.8,7.9,0c5.1,1.7,8.6,6.5,8.6,11.9s-3.5,10.2-8.6,11.9
			C128.2,149.9,126.9,150.1,125.5,150.1z"/>
	</g>
	<circle class="st1" cx="128" cy="138.6" r="6.3"/>
	<path class="st1" d="M163.7,123.7l17.4-5.4c1.9-0.6,3.9,0.5,4.5,2.4c0.3,1,0.2,1.9-0.2,2.8c-0.4,0.8-1.2,1.5-2.1,1.8l-43.7,13.6
		c0-1.2-0.1-2.4-0.5-3.6c-0.4-1.2-0.9-2.3-1.6-3.3l18.1-5.6L163.7,123.7z"/>
	<polygon class="st1" points="116.3,137.8 89.7,127.3 80.7,119.8 92.3,120.5 119.1,131.1 	"/>
	<g>
		<path class="st2" d="M125.5,144.4c-3.7,0-6.8-3-6.8-6.8s3-6.8,6.8-6.8c3.7,0,6.8,3,6.8,6.8S129.2,144.4,125.5,144.4z M125.5,131.8
			c-3.2,0-5.8,2.6-5.8,5.8s2.6,5.8,5.8,5.8s5.8-2.6,5.8-5.8S128.7,131.8,125.5,131.8z"/>
	</g>
	<g>
		<path class="st2" d="M125.5,231.4c-51.7,0-93.8-42.1-93.8-93.9c0-21.6,7.5-42.8,21.2-59.5c0.2-0.2,0.5-0.2,0.7-0.1
			c0.2,0.2,0.2,0.5,0.1,0.7c-13.6,16.5-21,37.4-21,58.8c0,51.2,41.7,92.9,92.8,92.9c51.2,0,92.9-41.7,92.9-92.9
			c0-51.2-41.7-92.8-92.9-92.8c-24.6,0-47.7,9.5-65.2,26.8c-0.2,0.2-0.5,0.2-0.7,0c-0.2-0.2-0.2-0.5,0-0.7
			c17.7-17.4,41.1-27.1,65.9-27.1c51.7,0,93.9,42.1,93.9,93.8S177.2,231.4,125.5,231.4z"/>
	</g>
	<g>
		<path class="st2" d="M125.5,240.8c-12.3,0-24.2-2.1-35.6-6.3c-5.3-2-10.5-4.4-15.3-7.1c-32.3-18.3-52.3-52.7-52.3-89.8
			c0-56.9,46.3-103.2,103.2-103.2c32.9,0,63.1,15.1,82.8,41.6c0.3,0.4,0.2,1.1-0.2,1.4c-0.4,0.3-1.1,0.2-1.4-0.2
			c-19.3-25.9-48.9-40.8-81.2-40.8c-55.8,0-101.2,45.4-101.2,101.2c0,36.4,19.7,70.1,51.3,88.1c4.7,2.7,9.8,5.1,15,7
			c11.2,4.1,22.9,6.2,34.9,6.2c12,0,23.7-2.1,34.9-6.2c5.2-1.9,10.2-4.3,15-7c31.6-18,51.3-51.7,51.3-88.1c0-17.9-4.8-35.6-13.7-51
			c-0.3-0.5-0.1-1.1,0.4-1.4c0.5-0.3,1.1-0.1,1.4,0.4c9.2,15.7,14,33.7,14,52c0,37.1-20,71.5-52.3,89.8c-4.9,2.8-10,5.2-15.3,7.1
			C149.7,238.7,137.7,240.8,125.5,240.8z"/>
	</g>
	<g>
		<path class="st2" d="M125.5,240.8c-12.3,0-24.2-2.1-35.6-6.3c-5.3-2-10.5-4.4-15.3-7.1c-32.3-18.3-52.3-52.7-52.3-89.8
			c0-56.9,46.3-103.2,103.2-103.2c32.9,0,63.1,15.1,82.8,41.6c0.3,0.4,0.2,1.1-0.2,1.4c-0.4,0.3-1.1,0.2-1.4-0.2
			c-19.3-25.9-48.9-40.8-81.2-40.8c-55.8,0-101.2,45.4-101.2,101.2c0,36.4,19.7,70.1,51.3,88.1c4.7,2.7,9.8,5.1,15,7
			c11.2,4.1,22.9,6.2,34.9,6.2c12,0,23.7-2.1,34.9-6.2c5.2-1.9,10.2-4.3,15-7c31.6-18,51.3-51.7,51.3-88.1c0-17.9-4.8-35.6-13.7-51
			c-0.3-0.5-0.1-1.1,0.4-1.4c0.5-0.3,1.1-0.1,1.4,0.4c9.2,15.7,14,33.7,14,52c0,37.1-20,71.5-52.3,89.8c-4.9,2.8-10,5.2-15.3,7.1
			C149.7,238.7,137.7,240.8,125.5,240.8z"/>
	</g>
	<g>
		<path class="st2" d="M180.6,52.5c-0.2,0-0.4-0.1-0.5-0.2c-2.6-1.7-5.3-3.2-8-4.6c-0.2-0.1-0.4-0.3-0.5-0.6c-0.1-0.3,0-0.5,0.1-0.8
			l7.5-13.1c0.3-0.5,0.9-0.6,1.4-0.4l8,4.6c0.2,0.1,0.4,0.4,0.5,0.6c0.1,0.3,0,0.5-0.1,0.8L181.5,52c-0.1,0.2-0.4,0.4-0.6,0.5
			C180.8,52.4,180.7,52.5,180.6,52.5z M173.9,46.4c2.1,1.1,4.2,2.4,6.3,3.6l6.5-11.3l-6.3-3.6L173.9,46.4z"/>
	</g>
	<path class="st1" d="M206.4,46.9l8.9,5.2c8.9-15.3,3.6-34.9-11.7-43.8S168.7,4.7,159.9,20l40.7,23.5L206.4,46.9z"/>
	<path class="st1" d="M71.4,4c-5.8-0.2-11.7,1.2-17.1,4.3C39,17.2,33.8,36.8,42.6,52.1L98.1,20c-3.9-6.7-9.8-11.5-16.5-14L71.4,4z"
		/>
	<path class="st1" d="M133.6,20.4v15.1c-1.5-0.1-3.1-0.1-4.6-0.1c-1.6,0-3.1,0-4.6,0.1V20.4H133.6z"/>
	<g>
		<path class="st2" d="M211.9,53.1c-0.2,0-0.3,0-0.5-0.1l-8.9-5.2c-0.5-0.3-0.6-0.9-0.4-1.4c0.3-0.5,0.9-0.6,1.4-0.4l8.1,4.7
			c3.7-7,4.7-15,2.6-22.7c-2.1-8-7.3-14.7-14.5-18.9c-14.5-8.4-33.1-3.7-41.9,10.5l39.8,23c0.5,0.3,0.6,0.9,0.4,1.4
			c-0.3,0.5-0.9,0.6-1.4,0.4l-40.7-23.5c-0.2-0.1-0.4-0.4-0.5-0.6c-0.1-0.3,0-0.5,0.1-0.8c9.1-15.8,29.4-21.2,45.2-12.1
			c7.6,4.4,13.1,11.5,15.4,20.1c2.3,8.5,1.1,17.4-3.3,25.1c-0.1,0.2-0.4,0.4-0.6,0.5C212.1,53.1,212,53.1,211.9,53.1z"/>
	</g>
	<g>
		<path class="st2" d="M186.3,32.7c-0.1,0-0.2,0-0.2-0.1L162.5,19c-0.1-0.1-0.2-0.2-0.2-0.3c0-0.1,0-0.3,0.1-0.4
			c8.8-10.7,23.8-13.5,35.8-6.6c0.2,0.1,0.3,0.4,0.2,0.7c-0.1,0.2-0.4,0.3-0.7,0.2C186.3,6,172,8.5,163.5,18.4l23.1,13.3
			c0.2,0.1,0.3,0.4,0.2,0.7C186.7,32.6,186.5,32.7,186.3,32.7z"/>
	</g>
	<g>
		<path class="st2" d="M70.4,52.5c-0.1,0-0.2,0-0.2,0c-0.3-0.1-0.5-0.2-0.6-0.5L62,38.9c-0.1-0.2-0.2-0.5-0.1-0.8
			c0.1-0.3,0.2-0.5,0.5-0.6l8-4.6c0.5-0.3,1.1-0.1,1.4,0.4l7.5,13.1c0.1,0.2,0.2,0.5,0.1,0.8c-0.1,0.3-0.3,0.5-0.5,0.6
			c-2.7,1.4-5.4,2.9-8,4.6C70.8,52.4,70.6,52.5,70.4,52.5z M64.2,38.7l6.5,11.3c2.1-1.3,4.2-2.5,6.3-3.6l-6.5-11.3L64.2,38.7z"/>
	</g>
	<g>
		<path class="st2" d="M39.1,53.1c-0.3,0-0.7-0.2-0.9-0.5C33.8,44.9,32.7,36,35,27.5c2.3-8.5,7.8-15.7,15.4-20.1
			C55.7,4.3,61.8,2.8,68,3c0.6,0,1,0.5,1,1c0,0.6-0.5,1-1,1c-5.8-0.2-11.5,1.2-16.5,4.1C44.2,13.3,39,20,36.9,28
			c-2.1,7.7-1.1,15.7,2.6,22.7l53.8-31C89.7,13.9,84.2,9.4,77.8,7c-0.5-0.2-0.8-0.8-0.6-1.3c0.2-0.5,0.8-0.8,1.3-0.6
			c7.1,2.7,13.2,7.8,17,14.4c0.1,0.2,0.2,0.5,0.1,0.8c-0.1,0.3-0.2,0.5-0.5,0.6L39.6,53C39.5,53,39.3,53.1,39.1,53.1z"/>
	</g>
	<g>
		<path class="st2" d="M41.1,46.3c-0.1,0-0.1,0-0.2,0c-0.1,0-0.2-0.2-0.3-0.3c-4.9-12.9,0.2-27.4,12.2-34.3c0.2-0.1,0.5-0.1,0.7,0.2
			c0.1,0.2,0.1,0.5-0.2,0.7c-11.4,6.6-16.4,20.2-12,32.5l23.1-13.3c0.2-0.1,0.5-0.1,0.7,0.2c0.1,0.2,0.1,0.5-0.2,0.7L41.3,46.3
			C41.2,46.3,41.1,46.3,41.1,46.3z"/>
	</g>
	<g>
		<path class="st2" d="M130.1,36.5C130.1,36.5,130.1,36.5,130.1,36.5c-1.5-0.1-3-0.1-4.6-0.1s-3.1,0-4.6,0.1c-0.3,0-0.5-0.1-0.7-0.3
			c-0.2-0.2-0.3-0.5-0.3-0.7V20.4c0-0.6,0.4-1,1-1h9.3c0.6,0,1,0.4,1,1v15.1c0,0.3-0.1,0.5-0.3,0.7
			C130.6,36.4,130.4,36.5,130.1,36.5z M125.5,34.4c1.3,0,2.5,0,3.6,0.1V21.4h-7.3v13.1C123,34.4,124.2,34.4,125.5,34.4z"/>
	</g>
	<g>
		<path class="st2" d="M136.2,21.4h-21.3c-3.8,0-6.8-3.1-6.8-6.8v-1.3c0-3.8,3.1-6.8,6.8-6.8h21.3c3.8,0,6.8,3.1,6.8,6.8v1.3
			C143,18.3,139.9,21.4,136.2,21.4z M114.8,8.4c-2.7,0-4.8,2.2-4.8,4.8v1.3c0,2.7,2.2,4.8,4.8,4.8h21.3c2.7,0,4.8-2.2,4.8-4.8v-1.3
			c0-2.7-2.2-4.8-4.8-4.8H114.8z"/>
	</g>
	<g>
		<path class="st2" d="M63.5,253c-1.1,0-2.3-0.4-3.1-1.3c-0.8-0.8-1.3-2-1.3-3.1c0-0.9,0.3-1.8,0.8-2.6l14.4-20
			c0.3-0.4,0.9-0.5,1.3-0.3c4.7,2.7,9.8,5.1,15,7c0.3,0.1,0.6,0.4,0.6,0.8c0,0.4-0.1,0.7-0.4,0.9l-12.1,8.7
			c-0.4,0.3-1.1,0.2-1.4-0.2c-0.3-0.4-0.2-1.1,0.2-1.4l10.5-7.6c-4.4-1.7-8.7-3.7-12.8-6l-13.9,19.3c-0.3,0.4-0.5,0.9-0.5,1.4
			c0,0.6,0.3,1.3,0.7,1.7c0.9,0.9,2.2,1,3.1,0.3l5.6-4c0.4-0.3,1.1-0.2,1.4,0.2s0.2,1.1-0.2,1.4l-5.6,4
			C65.3,252.7,64.4,253,63.5,253z"/>
	</g>
	<g>
		<path class="st2" d="M187.5,253c-0.9,0-1.8-0.3-2.6-0.8l-24.7-17.8c-0.3-0.2-0.5-0.6-0.4-0.9c0-0.4,0.3-0.7,0.6-0.8
			c5.2-1.9,10.2-4.3,15-7c0.4-0.3,1-0.1,1.3,0.3l14.4,20c0.5,0.8,0.8,1.6,0.8,2.6c0,1.2-0.5,2.3-1.3,3.1
			C189.8,252.6,188.7,253,187.5,253z M162.9,233.9l23.2,16.7c1,0.7,2.3,0.6,3.1-0.3c0.5-0.5,0.7-1.1,0.7-1.7c0-0.5-0.2-1-0.5-1.4
			l-13.9-19.3C171.6,230.1,167.3,232.1,162.9,233.9z"/>
	</g>
	<g>
		<path class="st2" d="M125.5,69.7c-0.6,0-1-0.4-1-1V53.1c0-0.6,0.4-1,1-1s1,0.4,1,1v15.6C126.5,69.2,126.1,69.7,125.5,69.7z"/>
	</g>
	<g>
		<path class="st2" d="M91.1,78.9c-0.3,0-0.7-0.2-0.9-0.5l-7.8-13.5c-0.3-0.5-0.1-1.1,0.4-1.4c0.5-0.3,1.1-0.1,1.4,0.4l7.8,13.5
			c0.3,0.5,0.1,1.1-0.4,1.4C91.4,78.9,91.2,78.9,91.1,78.9z"/>
	</g>
	<g>
		<path class="st2" d="M65.8,104.1c-0.2,0-0.3,0-0.5-0.1l-13.5-7.8c-0.5-0.3-0.6-0.9-0.4-1.4s0.9-0.6,1.4-0.4l13.5,7.8
			c0.5,0.3,0.6,0.9,0.4,1.4C66.5,104,66.2,104.1,65.8,104.1z"/>
	</g>
	<g>
		<path class="st2" d="M56.6,138.6H41c-0.6,0-1-0.4-1-1s0.4-1,1-1h15.6c0.6,0,1,0.4,1,1S57.2,138.6,56.6,138.6z"/>
	</g>
	<g>
		<path class="st2" d="M52.3,180.9c-0.3,0-0.7-0.2-0.9-0.5c-0.3-0.5-0.1-1.1,0.4-1.4l13.5-7.8c0.5-0.3,1.1-0.1,1.4,0.4
			c0.3,0.5,0.1,1.1-0.4,1.4l-13.5,7.8C52.6,180.8,52.5,180.9,52.3,180.9z"/>
	</g>
	<g>
		<path class="st2" d="M83.2,211.8c-0.2,0-0.3,0-0.5-0.1c-0.5-0.3-0.6-0.9-0.4-1.4l7.8-13.5c0.3-0.5,0.9-0.6,1.4-0.4
			c0.5,0.3,0.6,0.9,0.4,1.4l-7.8,13.5C83.9,211.6,83.6,211.8,83.2,211.8z"/>
	</g>
	<g>
		<path class="st2" d="M125.5,223.1c-0.6,0-1-0.4-1-1v-15.6c0-0.6,0.4-1,1-1s1,0.4,1,1v15.6C126.5,222.7,126.1,223.1,125.5,223.1z"
			/>
	</g>
	<g>
		<path class="st2" d="M167.8,211.8c-0.3,0-0.7-0.2-0.9-0.5l-7.8-13.5c-0.3-0.5-0.1-1.1,0.4-1.4c0.5-0.3,1.1-0.1,1.4,0.4l7.8,13.5
			c0.3,0.5,0.1,1.1-0.4,1.4C168.1,211.8,167.9,211.8,167.8,211.8z"/>
	</g>
	<g>
		<path class="st2" d="M198.7,180.9c-0.2,0-0.3,0-0.5-0.1l-13.5-7.8c-0.5-0.3-0.6-0.9-0.4-1.4c0.3-0.5,0.9-0.6,1.4-0.4l13.5,7.8
			c0.5,0.3,0.6,0.9,0.4,1.4C199.4,180.7,199.1,180.9,198.7,180.9z"/>
	</g>
	<g>
		<path class="st2" d="M210,138.6h-15.6c-0.6,0-1-0.4-1-1s0.4-1,1-1H210c0.6,0,1,0.4,1,1S210.6,138.6,210,138.6z"/>
	</g>
	<g>
		<path class="st2" d="M185.2,104.1c-0.3,0-0.7-0.2-0.9-0.5c-0.3-0.5-0.1-1.1,0.4-1.4l13.5-7.8c0.5-0.3,1.1-0.1,1.4,0.4
			c0.3,0.5,0.1,1.1-0.4,1.4l-13.5,7.8C185.5,104.1,185.3,104.1,185.2,104.1z"/>
	</g>
	<g>
		<path class="st2" d="M159.9,78.9c-0.2,0-0.3,0-0.5-0.1c-0.5-0.3-0.6-0.9-0.4-1.4l7.8-13.5c0.3-0.5,0.9-0.6,1.4-0.4
			c0.5,0.3,0.6,0.9,0.4,1.4l-7.8,13.5C160.6,78.7,160.3,78.9,159.9,78.9z"/>
	</g>
	<g>
		<path class="st2" d="M137,138.8c-0.2,0-0.4-0.1-0.6-0.2c-0.3-0.2-0.4-0.5-0.4-0.8c0-1.1-0.1-2.2-0.5-3.3c-0.3-1.1-0.8-2.1-1.5-3
			c-0.2-0.3-0.2-0.6-0.1-0.9c0.1-0.3,0.3-0.5,0.7-0.6l18.1-5.6c0.5-0.2,1.1,0.1,1.3,0.7s-0.1,1.1-0.7,1.3l-16.8,5.2
			c0.4,0.8,0.8,1.6,1,2.4c0.3,0.9,0.4,1.7,0.5,2.6l42.4-13.2c0.7-0.2,1.2-0.7,1.6-1.3c0.3-0.6,0.4-1.3,0.2-2
			c-0.2-0.7-0.7-1.2-1.3-1.5c-0.6-0.3-1.3-0.4-2-0.2l-17.4,5.4c-0.5,0.2-1.1-0.1-1.3-0.7c-0.2-0.5,0.1-1.1,0.7-1.3l17.4-5.4
			c1.2-0.4,2.4-0.3,3.5,0.3c1.1,0.6,1.9,1.5,2.3,2.7c0.4,1.2,0.3,2.4-0.3,3.5c-0.6,1.1-1.6,1.9-2.7,2.3l-43.7,13.6
			C137.2,138.8,137.1,138.8,137,138.8z"/>
	</g>
	<g>
		<path class="st2" d="M113.8,137.8c-0.1,0-0.2,0-0.4-0.1l-26.6-10.6c-0.1,0-0.2-0.1-0.3-0.2l-9-7.5c-0.3-0.3-0.5-0.7-0.3-1.1
			c0.2-0.4,0.6-0.7,1-0.6l11.7,0.7c0.1,0,0.2,0,0.3,0.1l26.7,10.6c0.5,0.2,0.8,0.8,0.6,1.3c-0.2,0.5-0.8,0.8-1.3,0.6l-26.6-10.6
			l-8.4-0.5l6.5,5.4l26.5,10.5c0.5,0.2,0.8,0.8,0.6,1.3C114.6,137.6,114.2,137.8,113.8,137.8z"/>
	</g>
</g>
</svg>
