<?xml version="1.0" encoding="utf-8"?>
<!-- Generator: Adobe Illustrator 22.1.0, SVG Export Plug-In . SVG Version: 6.00 Build 0)  -->
<svg version="1.1" id="Layer_1" xmlns="http://www.w3.org/2000/svg" xmlns:xlink="http://www.w3.org/1999/xlink" x="0px" y="0px"
	 viewBox="0 0 256 256" style="enable-background:new 0 0 256 256;" xml:space="preserve">
<style type="text/css">
	.st0{fill:#9FEAFF;}
	.st1{fill:#FFFFFF;}
	.st2{fill:#48386A;}
</style>
<g>
	<path class="st0" d="M54,87.1l-8.4,31.5h-6.1c-8.5,0-15.4-6.9-15.4-15.4v-0.7c0-0.5,0-1.1,0.1-1.6c0.8-7.7,7.3-13.8,15.3-13.8H54z"
		/>
	<g>
		<path class="st1" d="M158.8,252H40.2c-8.6,0-15.9-5.6-18.6-13.3c-0.1-0.2-0.2-0.5-0.2-0.7c-0.5-1.8-0.8-3.7-0.8-5.6V103.2
			c0,8.5,6.9,15.4,15.4,15.4h176.4c8.4,0,15.6,5.3,18.3,12.7c0.8,2.1,1.2,4.5,1.2,6.9v94.2c0,1.9-0.3,3.8-0.8,5.6
			c-0.1,0.2-0.1,0.5-0.2,0.7c-2.6,7.7-9.9,13.3-18.6,13.3h-33.6H158.8z"/>
		<path class="st2" d="M212.3,253h-33.6c-0.6,0-1-0.4-1-1s0.4-1,1-1h33.6c8,0,15.1-5.1,17.6-12.6c0.1-0.2,0.1-0.4,0.2-0.7
			c0.5-1.7,0.8-3.5,0.8-5.3v-94.2c0-2.3-0.4-4.5-1.2-6.5c-2.7-7.2-9.7-12.1-17.4-12.1H36c-6.2,0-11.6-3.5-14.4-8.5v121.3
			c0,1.8,0.3,3.6,0.8,5.3c0.1,0.2,0.1,0.4,0.2,0.7c2.6,7.6,9.6,12.6,17.6,12.6h118.6c0.6,0,1,0.4,1,1s-0.4,1-1,1H40.2
			c-8.8,0-16.7-5.6-19.5-14c-0.1-0.2-0.2-0.5-0.2-0.7c-0.6-1.9-0.9-3.9-0.9-5.9V103.2c0-0.6,0.4-1,1-1s1,0.4,1,1
			c0,7.9,6.4,14.4,14.4,14.4h176.4c8.5,0,16.3,5.4,19.3,13.4c0.9,2.3,1.3,4.7,1.3,7.2v94.2c0,2-0.3,4-0.9,5.9
			c-0.1,0.3-0.1,0.5-0.2,0.7C229,247.4,221.2,253,212.3,253z"/>
	</g>
	<path class="st0" d="M116.7,233.5H23.6v-96.9h211.3c0.1,0.5,0.1,1.1,0.1,1.6v95.3H131.8H116.7z"/>
	<g>
		<polygon class="st1" points="196.2,15.9 221.8,22.8 196.2,118.6 121.1,118.6 123.6,109.2 138.1,55 146.6,23.3 149.1,13.9 151.8,4 
			187.4,13.5 		"/>
		<path class="st2" d="M196.2,119.6h-75.1c-0.3,0-0.6-0.1-0.8-0.4c-0.2-0.2-0.3-0.6-0.2-0.9L150.8,3.7c0.1-0.5,0.7-0.9,1.2-0.7
			l35.6,9.5c0.5,0.1,0.8,0.7,0.7,1.2s-0.7,0.9-1.2,0.7l-34.6-9.3l-30.1,112.4h73l25.2-94.1l-24.7-6.6c-0.5-0.1-0.8-0.7-0.7-1.2
			s0.7-0.8,1.2-0.7l25.7,6.9c0.3,0.1,0.5,0.2,0.6,0.5s0.2,0.5,0.1,0.8l-25.7,95.8C197,119.3,196.6,119.6,196.2,119.6z"/>
	</g>
	<g>
		<polygon class="st1" points="149.1,13.9 146.6,23.3 138.1,55 123.6,109.2 121.1,118.6 81.6,118.6 84.1,109.2 98.6,55 107.1,23.3 
			109.7,13.9 112.3,4 		"/>
		<path class="st2" d="M121.1,119.6H81.6c-0.3,0-0.6-0.1-0.8-0.4c-0.2-0.2-0.3-0.6-0.2-0.9L111.3,3.7c0.1-0.5,0.7-0.9,1.2-0.7
			l36.8,9.9c0.3,0.1,0.5,0.2,0.6,0.5s0.2,0.5,0.1,0.8L122,118.8C121.9,119.3,121.5,119.6,121.1,119.6z M82.9,117.6h37.4l27.6-103
			L113,5.2L82.9,117.6z"/>
	</g>
	<g>
		<polygon class="st1" points="62.2,43.7 72.8,4 109.7,13.9 107.1,23.3 98.6,55 84.1,109.2 81.6,118.6 42.1,118.6 52.8,78.5 
			60,51.9 		"/>
		<path class="st2" d="M81.6,119.6H42.1c-0.3,0-0.6-0.1-0.8-0.4c-0.2-0.2-0.3-0.6-0.2-0.9L59,51.7c0.1-0.5,0.7-0.9,1.2-0.7
			c0.5,0.1,0.9,0.7,0.7,1.2l-17.5,65.4h37.4l27.6-103L73.5,5.2L63.1,44c-0.1,0.5-0.7,0.9-1.2,0.7c-0.5-0.1-0.9-0.7-0.7-1.2L71.8,3.7
			C72,3.2,72.5,2.9,73.1,3l36.8,9.9c0.3,0.1,0.5,0.2,0.6,0.5c0.1,0.2,0.2,0.5,0.1,0.8L82.5,118.8C82.4,119.3,82,119.6,81.6,119.6z"
			/>
	</g>
	<g>
		<path class="st2" d="M173.8,253h-4.4c-0.6,0-1-0.4-1-1s0.4-1,1-1h4.4c0.6,0,1,0.4,1,1S174.3,253,173.8,253z"/>
	</g>
	<g>
		<path class="st2" d="M212.3,253h-33.6c-0.6,0-1-0.4-1-1s0.4-1,1-1h33.6c8,0,15.1-5.1,17.6-12.6c0.1-0.2,0.1-0.4,0.2-0.7
			c0.5-1.7,0.8-3.5,0.8-5.3v-94.2c0-2.3-0.4-4.5-1.2-6.5c-2.7-7.2-9.7-12.1-17.4-12.1H36c-6.2,0-11.6-3.5-14.4-8.5v121.3
			c0,1.8,0.3,3.6,0.8,5.3c0.1,0.2,0.1,0.4,0.2,0.7c2.6,7.6,9.6,12.6,17.6,12.6h118.6c0.6,0,1,0.4,1,1s-0.4,1-1,1H40.2
			c-8.8,0-16.7-5.6-19.5-14c-0.1-0.2-0.2-0.5-0.2-0.7c-0.6-1.9-0.9-3.9-0.9-5.9V103.2c0-0.6,0.4-1,1-1s1,0.4,1,1
			c0,7.9,6.4,14.4,14.4,14.4h176.4c8.5,0,16.3,5.4,19.3,13.4c0.9,2.3,1.3,4.7,1.3,7.2v94.2c0,2-0.3,4-0.9,5.9
			c-0.1,0.3-0.1,0.5-0.2,0.7C229,247.4,221.2,253,212.3,253z"/>
	</g>
	<g>
		<path class="st2" d="M42.1,119.6H36c-9,0-16.4-7.3-16.4-16.4v-0.7c0-0.6,0-1.1,0.1-1.7c0.9-8.4,7.9-14.7,16.3-14.7h14.6
			c0.3,0,0.6,0.1,0.8,0.4c0.2,0.2,0.3,0.6,0.2,0.9l-8.4,31.5C42.9,119.3,42.6,119.6,42.1,119.6z M36,88.1c-7.4,0-13.5,5.5-14.3,12.9
			c-0.1,0.5-0.1,1-0.1,1.5v0.7c0,7.9,6.4,14.4,14.4,14.4h5.4l7.9-29.5H36z"/>
	</g>
	<g>
		<path class="st2" d="M231.1,239.7H21.4c-0.4,0-0.8-0.3-1-0.7c-0.5-1.8-0.8-3.6-0.9-5.5V131.3c0-0.6,0.4-1,1-1h39.7
			c0.6,0,1,0.4,1,1s-0.4,1-1,1H21.6v101.2c0,1.4,0.2,2.9,0.6,4.3h208.2c0.4-1.4,0.5-2.8,0.6-4.3v-95.3c0-0.6,0-1.1-0.1-1.5
			c-0.1-1.5-0.4-3-0.9-4.4H72c-0.6,0-1-0.4-1-1s0.4-1,1-1h158.7c0.4,0,0.8,0.3,0.9,0.6c0.7,1.8,1.1,3.6,1.2,5.5
			c0.1,0.5,0.1,1.1,0.1,1.7v95.3c0,1.9-0.3,3.7-0.9,5.5C231.9,239.4,231.5,239.7,231.1,239.7z"/>
	</g>
	<path class="st0" d="M168.6,195.4c-8.1,0-14.6-6.6-14.6-14.6c0-8.1,6.6-14.6,14.6-14.6h66.3v29.2H168.6z"/>
	<path class="st0" d="M189.7,68.3c1.1,5.3,0.9,11.5-0.8,17.9c-4,15-15.1,25.2-24.7,22.6c-9.6-2.6-14.1-16.8-10.1-31.9
		c4-15,15.1-25.2,24.7-22.6c2.8,0.8,5.2,2.5,7.1,5.1L189.7,68.3z"/>
	<path class="st0" d="M141.1,55l-14.5,54.2c-0.6-0.1-1.2-0.2-1.8-0.3c-9.6-2.6-14.1-16.8-10.1-31.9c4-15,15.1-25.2,24.7-22.6
		C140,54.5,140.6,54.7,141.1,55z"/>
	<path class="st0" d="M101.6,55l-14.5,54.2c-0.6-0.1-1.2-0.2-1.8-0.3c-9.6-2.6-14.1-16.8-10.1-31.9c4-15,15.1-25.2,24.7-22.6
		C100.5,54.5,101.1,54.7,101.6,55z"/>
	<path class="st0" d="M220.2,106.4v12.8c-1.6-0.4-3.2-0.6-4.9-0.6h-16.1l8.2-30.6c5.3,2,9.6,6.2,11.6,11.5
		C219.8,101.7,220.2,104,220.2,106.4z"/>
	<g>
		<path class="st2" d="M231.9,234H128.8c-0.3,0-0.5-0.2-0.5-0.5s0.2-0.5,0.5-0.5h102.7v-94.8c0-0.4,0-0.8,0-1.1H21.1V233h92.6
			c0.3,0,0.5,0.2,0.5,0.5s-0.2,0.5-0.5,0.5H20.6c-0.3,0-0.5-0.2-0.5-0.5v-96.9c0-0.3,0.2-0.5,0.5-0.5h211.3c0.3,0,0.5,0.2,0.5,0.5
			c0.1,0.5,0.1,1.1,0.1,1.7v95.3C232.4,233.7,232.2,234,231.9,234z"/>
	</g>
	<g>
		<path class="st1" d="M204.9,159.2h-39.3c-11.9,0-21.6,9.7-21.6,21.6v0c0,11.9,9.7,21.6,21.6,21.6h66.3v-43.2h-19.2H204.9z"/>
		<path class="st2" d="M231.9,203.4h-66.3c-12.5,0-22.6-10.1-22.6-22.6s10.1-22.6,22.6-22.6h39.3c0.6,0,1,0.4,1,1s-0.4,1-1,1h-39.3
			c-11.4,0-20.6,9.2-20.6,20.6c0,11.4,9.2,20.6,20.6,20.6h65.3v-41.2h-18.2c-0.6,0-1-0.4-1-1s0.4-1,1-1h19.2c0.6,0,1,0.4,1,1v43.2
			C232.9,202.9,232.5,203.4,231.9,203.4z"/>
	</g>
	<path class="st0" d="M169.1,195.4c-8.1,0-14.6-6.6-14.6-14.6c0-8.1,6.6-14.6,14.6-14.6h66.3v29.2H169.1z"/>
	<g>
		<path class="st2" d="M231.9,196.4h-66.3c-8.6,0-15.6-7-15.6-15.6c0-8.6,7-15.6,15.6-15.6h66.3c0.6,0,1,0.4,1,1v29.2
			C232.9,195.9,232.5,196.4,231.9,196.4z M165.6,167.2c-7.5,0-13.6,6.1-13.6,13.6s6.1,13.6,13.6,13.6h65.3v-27.2H165.6z"/>
	</g>
	<g>
		<path class="st1" d="M174.3,185c-1.7,3.1-5.1,5.2-8.9,5.2c-5.6,0-10.1-4.5-10.1-10.1s4.5-10.1,10.1-10.1c5.6,0,10.1,4.5,10.1,10.1
			L174.3,185z"/>
		<path class="st2" d="M165.4,190.7c-5.9,0-10.6-4.8-10.6-10.6s4.8-10.6,10.6-10.6s10.6,4.8,10.6,10.6c0,0.3-0.2,0.5-0.5,0.5
			s-0.5-0.2-0.5-0.5c0-5.3-4.3-9.6-9.6-9.6s-9.6,4.3-9.6,9.6c0,5.3,4.3,9.6,9.6,9.6c3.5,0,6.7-1.9,8.4-5c0.1-0.2,0.4-0.3,0.7-0.2
			c0.2,0.1,0.3,0.4,0.2,0.7C172.8,188.6,169.3,190.7,165.4,190.7z"/>
	</g>
	<g>
		<path class="st2" d="M196.2,119.6h-75.1c-0.3,0-0.6-0.1-0.8-0.4c-0.2-0.2-0.3-0.6-0.2-0.9L150.8,3.7c0.1-0.5,0.7-0.9,1.2-0.7
			l35.6,9.5c0.5,0.1,0.8,0.7,0.7,1.2s-0.7,0.9-1.2,0.7l-34.6-9.3l-30.1,112.4h73l25.2-94.1l-24.7-6.6c-0.5-0.1-0.8-0.7-0.7-1.2
			s0.7-0.8,1.2-0.7l25.7,6.9c0.3,0.1,0.5,0.2,0.6,0.5s0.2,0.5,0.1,0.8l-25.7,95.8C197,119.3,196.6,119.6,196.2,119.6z"/>
	</g>
	<g>
		<path class="st2" d="M186.5,119.6h-55.8c-0.3,0-0.6-0.1-0.8-0.4c-0.2-0.2-0.3-0.6-0.2-0.9L155,24.1c0.1-0.5,0.7-0.8,1.2-0.7
			c2,0.5,4.1,0.3,5.9-0.8c1.8-1,3.1-2.7,3.6-4.8c0.1-0.3,0.2-0.5,0.5-0.6c0.2-0.1,0.5-0.2,0.8-0.1l35,9.4c0.5,0.1,0.8,0.7,0.7,1.2
			c-1.1,4.2,1.4,8.5,5.5,9.6c0.5,0.1,0.8,0.7,0.7,1.2l-21.5,80.3C187.4,119.3,187,119.6,186.5,119.6z M132,117.6h53.7l21.1-78.6
			c-4.3-1.7-6.9-6.2-6.2-10.8l-33.2-8.9c-0.8,2.1-2.3,3.9-4.3,5c-2,1.1-4.3,1.6-6.5,1.2L132,117.6z"/>
	</g>
	<g>
		<path class="st2" d="M182.2,119.1h-47.1c-0.2,0-0.3-0.1-0.4-0.2c-0.1-0.1-0.1-0.3-0.1-0.4l24-89.8c0.1-0.2,0.2-0.4,0.5-0.4
			c3.8-0.3,7.4-2.3,9.6-5.5c0.1-0.2,0.3-0.3,0.5-0.2l28.2,7.6c0.2,0.1,0.4,0.2,0.4,0.4c0.3,3.8,2.3,7.4,5.5,9.6
			c0.2,0.1,0.3,0.3,0.2,0.5l-20.9,78C182.6,118.9,182.4,119.1,182.2,119.1z M135.7,118.1h46l20.7-77.3c-3.2-2.3-5.3-5.9-5.6-9.8
			l-27.5-7.4c-2.3,3.2-5.9,5.3-9.8,5.6L135.7,118.1z"/>
	</g>
	<g>
		<path class="st2" d="M164.3,109.7c-1.1,0-2.2-0.1-3.2-0.4c-4.8-1.3-8.5-5.4-10.5-11.6c-1.9-6.1-1.9-13.5,0.1-20.9
			c4.1-15.3,15.4-25.6,25.3-22.9c2.8,0.8,5.4,2.6,7.4,5.3c0.2,0.2,0.1,0.5-0.1,0.7c-0.2,0.2-0.5,0.1-0.7-0.1
			c-1.9-2.5-4.2-4.2-6.8-4.9c-9.3-2.5-20.1,7.5-24.1,22.2c-1.9,7.2-2,14.4-0.1,20.3c1.8,5.9,5.3,9.7,9.8,10.9
			c4.5,1.2,9.4-0.4,14-4.6c4.6-4.2,8.2-10.5,10.1-17.7c1.6-6.1,1.9-12.2,0.8-17.7c-0.1-0.3,0.1-0.5,0.4-0.6c0.3-0.1,0.5,0.1,0.6,0.4
			c1.2,5.6,0.9,11.9-0.8,18.1c-2,7.4-5.7,13.8-10.4,18.1C172.3,107.9,168.2,109.7,164.3,109.7z"/>
	</g>
	<g>
		<path class="st2" d="M121.1,119.6H81.6c-0.3,0-0.6-0.1-0.8-0.4c-0.2-0.2-0.3-0.6-0.2-0.9L111.3,3.7c0.1-0.5,0.7-0.9,1.2-0.7
			l36.8,9.9c0.3,0.1,0.5,0.2,0.6,0.5s0.2,0.5,0.1,0.8L122,118.8C121.9,119.3,121.5,119.6,121.1,119.6z M82.9,117.6h37.4l27.6-103
			L113,5.2L82.9,117.6z"/>
	</g>
	<g>
		<path class="st2" d="M121.1,119.6H91.3c-0.3,0-0.6-0.1-0.8-0.4c-0.2-0.2-0.3-0.6-0.2-0.9l25.2-94.3c0.1-0.5,0.7-0.8,1.2-0.7
			c4.2,1.1,8.5-1.4,9.6-5.5c0.1-0.3,0.2-0.5,0.5-0.6c0.2-0.1,0.5-0.2,0.8-0.1l19.3,5.2c0.5,0.1,0.8,0.7,0.7,1.2L122,118.8
			C121.9,119.3,121.5,119.6,121.1,119.6z M92.6,117.6h27.8L145.4,24L128,19.3c-1.6,4.3-6.2,6.9-10.8,6.2L92.6,117.6z"/>
	</g>
	<g>
		<path class="st2" d="M121.1,119.1H95.5c-0.2,0-0.3-0.1-0.4-0.2c-0.1-0.1-0.1-0.3-0.1-0.4l1.7-6.5c0.1-0.3,0.3-0.4,0.6-0.4
			c0.3,0.1,0.4,0.3,0.4,0.6l-1.6,5.9h24.5l24.4-90.7l-15.2-3.7c-2.3,3.2-5.9,5.3-9.8,5.7l-19.9,74.1c-0.1,0.3-0.3,0.4-0.6,0.4
			c-0.3-0.1-0.4-0.3-0.4-0.6l20-74.4c0.1-0.2,0.2-0.4,0.5-0.4c3.8-0.3,7.4-2.3,9.6-5.5c0.1-0.2,0.3-0.3,0.5-0.2l16.1,3.9
			c0.1,0,0.2,0.1,0.3,0.2c0.1,0.1,0.1,0.3,0.1,0.4l-24.6,91.6C121.5,118.9,121.3,119.1,121.1,119.1z"/>
	</g>
	<g>
		<path class="st2" d="M123.6,109.7C123.6,109.7,123.6,109.7,123.6,109.7c-0.7-0.1-1.3-0.2-2-0.4c-3.4-0.9-6.4-3.3-8.5-7
			c-3.8-6.5-4.5-16-1.9-25.5c4.1-15.3,15.5-25.6,25.3-22.9c0.7,0.2,1.3,0.4,1.9,0.7c0.2,0.1,0.3,0.3,0.3,0.6l-14.5,54.2
			C124,109.5,123.8,109.7,123.6,109.7z M133.3,54.4c-8.5,0-17.6,9.4-21.1,22.6c-2.5,9.2-1.8,18.5,1.8,24.8c2,3.4,4.7,5.7,7.9,6.5
			c0.4,0.1,0.9,0.2,1.3,0.3l14.3-53.3c-0.4-0.2-0.9-0.3-1.3-0.4C135.3,54.6,134.3,54.4,133.3,54.4z"/>
	</g>
	<g>
		<path class="st2" d="M81.6,119.6H42.1c-0.3,0-0.6-0.1-0.8-0.4c-0.2-0.2-0.3-0.6-0.2-0.9L59,51.7c0.1-0.5,0.7-0.9,1.2-0.7
			c0.5,0.1,0.9,0.7,0.7,1.2l-17.5,65.4h37.4l27.6-103L73.5,5.2L63.1,44c-0.1,0.5-0.7,0.9-1.2,0.7c-0.5-0.1-0.9-0.7-0.7-1.2L71.8,3.7
			C72,3.2,72.5,2.9,73.1,3l36.8,9.9c0.3,0.1,0.5,0.2,0.6,0.5c0.1,0.2,0.2,0.5,0.1,0.8L82.5,118.8C82.4,119.3,82,119.6,81.6,119.6z"
			/>
	</g>
	<g>
		<path class="st2" d="M81.6,119.6H51.8c-0.3,0-0.6-0.1-0.8-0.4c-0.2-0.2-0.3-0.6-0.2-0.9L76,24.1c0.1-0.5,0.7-0.8,1.2-0.7
			c4.2,1.1,8.5-1.4,9.6-5.5c0.1-0.3,0.2-0.5,0.5-0.6c0.2-0.1,0.5-0.2,0.8-0.1l19.3,5.2c0.5,0.1,0.9,0.7,0.7,1.2l-25.6,95.3
			C82.4,119.3,82,119.6,81.6,119.6z M53.1,117.6h27.8L105.9,24l-17.4-4.7c-1.6,4.3-6.2,6.9-10.8,6.2L53.1,117.6z"/>
	</g>
	<g>
		<path class="st2" d="M81.6,119.1H56.2c-0.2,0-0.3-0.1-0.4-0.2s-0.1-0.3-0.1-0.4l24-89.8c0.1-0.2,0.2-0.4,0.5-0.4
			c3.8-0.3,7.4-2.3,9.6-5.5c0.1-0.2,0.3-0.3,0.5-0.2l15.9,4.2c0.1,0,0.2,0.1,0.3,0.2c0.1,0.1,0.1,0.3,0.1,0.4l-24.5,91.3
			C82,118.9,81.8,119.1,81.6,119.1z M56.9,118.1h24.3l24.3-90.5l-15.1-4c-2.3,3.2-5.9,5.3-9.8,5.6L56.9,118.1z"/>
	</g>
	<g>
		<path class="st2" d="M84.1,109.7C84.1,109.7,84.1,109.7,84.1,109.7c-0.7-0.1-1.3-0.2-2-0.4c-3.4-0.9-6.4-3.3-8.5-7
			c-3.8-6.5-4.5-16-1.9-25.5C75.8,61.5,87.2,51.2,97,53.9c0.7,0.2,1.3,0.4,1.9,0.7c0.2,0.1,0.3,0.3,0.3,0.6l-14.5,54.2
			C84.5,109.5,84.3,109.7,84.1,109.7z M93.8,54.4c-8.5,0-17.6,9.4-21.1,22.6c-2.5,9.2-1.8,18.5,1.8,24.8c2,3.4,4.7,5.7,7.9,6.5
			c0.4,0.1,0.9,0.2,1.3,0.3L98,55.3c-0.4-0.2-0.9-0.3-1.3-0.4C95.8,54.6,94.8,54.4,93.8,54.4z"/>
	</g>
	<g>
		<path class="st2" d="M217.2,120.2c-0.1,0-0.2,0-0.3,0c-1.5-0.4-3.1-0.6-4.6-0.6h-16.1c-0.3,0-0.6-0.1-0.8-0.4
			c-0.2-0.2-0.3-0.6-0.2-0.9l8.2-30.6c0.1-0.3,0.3-0.5,0.5-0.6c0.2-0.1,0.5-0.1,0.8-0.1c5.6,2.1,10.1,6.5,12.2,12.1
			c0.9,2.3,1.3,4.7,1.3,7.2v12.8c0,0.3-0.1,0.6-0.4,0.8C217.7,120.1,217.4,120.2,217.2,120.2z M197.5,117.6h14.8
			c1.3,0,2.6,0.1,3.9,0.4v-11.5c0-2.3-0.4-4.5-1.2-6.5c-1.8-4.7-5.4-8.5-10-10.5L197.5,117.6z"/>
	</g>
</g>
</svg>
