<?xml version="1.0" encoding="utf-8"?>
<!-- Generator: Adobe Illustrator 22.1.0, SVG Export Plug-In . SVG Version: 6.00 Build 0)  -->
<svg version="1.1" id="Layer_1" xmlns="http://www.w3.org/2000/svg" xmlns:xlink="http://www.w3.org/1999/xlink" x="0px" y="0px"
	 viewBox="0 0 256 256" style="enable-background:new 0 0 256 256;" xml:space="preserve">
<style type="text/css">
	.st0{fill:#DBFDFF;}
	.st1{fill:#FFFFFF;}
	.st2{fill:#FFFFED;}
	.st3{fill:#48386A;}
	.st4{fill:#9FEAFF;}
	.st5{fill:#FF8584;}
	.st6{fill:#FEBE7F;}
</style>
<g>
	<path class="st0" d="M183.2,136.8c0-0.2,0-0.3-0.1-0.5c21.9-5.5,38.2-25.4,38.2-49c0-27.9-22.6-50.5-50.5-50.5
		c-18.1,0-34,9.5-42.9,23.8c-6.4-20.5-25.6-35.4-48.2-35.4c-27.9,0-50.5,22.6-50.5,50.5c0,15.9,7.3,30,18.7,39.3
		c-17.1,8.1-28.8,25.5-28.8,45.6c0,13.8,5.5,26.2,14.4,35.4c2.5,25.6,24.1,45.5,50.3,45.5c22.4,0,41.4-14.6,48-34.8
		c7.7,18.1,25.6,30.8,46.5,30.8c27.9,0,50.5-22.6,50.5-50.5C228.9,160.9,208.9,139.3,183.2,136.8z"/>
	<path class="st1" d="M85.4,35.3V15c0-5.5,4.4-9.9,9.9-9.9h62.5v0.2c-4.5,0.9-7.9,4.9-7.9,9.7v66.8H85.4V50.2V35.3z"/>
	<g>
		<path class="st1" d="M65.6,160.1V80.8c0-2.7,2.2-4.9,4.9-4.9h12.9v6.1h64.5v-6.1h34.9c2.7,0,4.9,2.2,4.9,4.9v165.2
			c0,2.7-2.2,4.9-4.9,4.9H70.6c-2.7,0-4.9-2.2-4.9-4.9v-78.7V160.1z"/>
		<g>
			<g>
				<path class="st2" d="M170,15v60.8h-22.1V15c0-4.8,3.4-8.8,7.9-9.7c0.6-0.1,1.3-0.2,2-0.2h2.3C165.5,5.1,170,9.6,170,15z"/>
				<path class="st3" d="M170,76.8h-22.1c-0.6,0-1-0.4-1-1V15c0-5.2,3.7-9.7,8.7-10.7c0.7-0.1,1.4-0.2,2.2-0.2h2.3
					c6,0,10.9,4.9,10.9,10.9v60.8C171,76.4,170.5,76.8,170,76.8z M148.9,74.8H169V15c0-4.9-4-8.9-8.9-8.9h-2.3
					c-0.6,0-1.2,0.1-1.8,0.2c-4.1,0.8-7.1,4.5-7.1,8.7V74.8z"/>
			</g>
			<path class="st4" d="M69.6,160.1V80.8c0-2.7,2.2-4.9,4.9-4.9h12.9v6.1h64.5v-6.1h34.9c2.7,0,4.9,2.2,4.9,4.9v165.2
				c0,2.7-2.2,4.9-4.9,4.9H74.6c-2.7,0-4.9-2.2-4.9-4.9v-78.7V160.1z"/>
			<g>
				<path class="st3" d="M182.8,251.9H70.6c-3.3,0-5.9-2.7-5.9-5.9v-78.7c0-0.6,0.4-1,1-1s1,0.4,1,1v78.7c0,2.2,1.8,3.9,3.9,3.9
					h112.3c2.2,0,3.9-1.8,3.9-3.9V80.8c0-2.2-1.8-3.9-3.9-3.9h-33.9v5.1c0,0.6-0.4,1-1,1H83.4c-0.6,0-1-0.4-1-1v-5.1H70.6
					c-2.2,0-3.9,1.8-3.9,3.9v79.4c0,0.6-0.4,1-1,1s-1-0.4-1-1V80.8c0-3.3,2.7-5.9,5.9-5.9h12.9c0.6,0,1,0.4,1,1v5.1h62.5v-5.1
					c0-0.6,0.4-1,1-1h34.9c3.3,0,5.9,2.7,5.9,5.9v165.2C188.8,249.2,186.1,251.9,182.8,251.9z"/>
			</g>
			<g>
				<polygon class="st2" points="152.8,87.4 183.1,87.4 183.1,245.2 70.3,245.2 70.3,87.4 144.6,87.4 				"/>
				<path class="st3" d="M183.1,245.7H70.3c-0.3,0-0.5-0.2-0.5-0.5V87.4c0-0.3,0.2-0.5,0.5-0.5h74.2c0.3,0,0.5,0.2,0.5,0.5
					s-0.2,0.5-0.5,0.5H70.8v156.8h111.7V87.9h-29.8c-0.3,0-0.5-0.2-0.5-0.5s0.2-0.5,0.5-0.5h30.3c0.3,0,0.5,0.2,0.5,0.5v157.8
					C183.6,245.5,183.4,245.7,183.1,245.7z"/>
			</g>
			<g>
				<path class="st3" d="M173.7,119.5h-94c-0.6,0-1-0.4-1-1V93.8c0-0.6,0.4-1,1-1h94c0.6,0,1,0.4,1,1v24.7
					C174.7,119,174.2,119.5,173.7,119.5z M80.7,117.5h92V94.8h-92V117.5z"/>
			</g>
			<polygon class="st0" points="87.3,103.1 87.3,97.7 173.1,97.7 173.1,114.5 87.3,114.5 87.3,109.1 			"/>
			<path class="st5" d="M161.4,233.6c-0.6,0-1-0.4-1-1v-40.6c0-0.5,0.5-1,1-1H172c0.6,0,1,0.4,1,1v40.6c0,0.5-0.5,1-1,1H161.4z"/>
			<path class="st6" d="M86.9,35.3V15c0-5.5,4.4-9.9,9.9-9.9h62.5v0.2c-4.5,0.9-7.9,4.9-7.9,9.7v66.8H86.9V50.2V35.3z"/>
			<g>
				<path class="st3" d="M169.6,115H83.8c-0.3,0-0.5-0.2-0.5-0.5v-5.4c0-0.3,0.2-0.5,0.5-0.5s0.5,0.2,0.5,0.5v4.9h84.7V98.2H84.3
					v4.9c0,0.3-0.2,0.5-0.5,0.5s-0.5-0.2-0.5-0.5v-5.4c0-0.3,0.2-0.5,0.5-0.5h85.7c0.3,0,0.5,0.2,0.5,0.5v16.8
					C170.1,114.8,169.8,115,169.6,115z"/>
			</g>
			<g>
				<path class="st3" d="M95.6,147.5H91c-0.6,0-1-0.4-1-1s0.4-1,1-1h4.6c2.2,0,4-1.8,4-4v-10.1c0-2.2-1.8-4-4-4H84.7
					c-2.2,0-4,1.8-4,4v10.1c0,2.2,1.8,4,4,4c0.6,0,1,0.4,1,1s-0.4,1-1,1c-3.3,0-6-2.7-6-6v-10.1c0-3.3,2.7-6,6-6h10.9
					c3.3,0,6,2.7,6,6v10.1C101.6,144.8,98.9,147.5,95.6,147.5z"/>
			</g>
			<g>
				<path class="st3" d="M95.5,143.1H84.8c-0.8,0-1.5-0.7-1.5-1.5v-10.2c0-0.8,0.7-1.5,1.5-1.5h10.7c0.8,0,1.5,0.7,1.5,1.5v10.2
					C97,142.4,96.3,143.1,95.5,143.1z M84.8,130.9c-0.3,0-0.5,0.2-0.5,0.5v10.2c0,0.3,0.2,0.5,0.5,0.5h10.7c0.3,0,0.5-0.2,0.5-0.5
					v-10.2c0-0.3-0.2-0.5-0.5-0.5H84.8z"/>
			</g>
			<g>
				<path class="st3" d="M132.1,147.5h-10.9c-3.3,0-6-2.7-6-6v-10.1c0-3.3,2.7-6,6-6h10.9c3.3,0,6,2.7,6,6v10.1
					C138.1,144.8,135.5,147.5,132.1,147.5z M121.3,127.4c-2.2,0-4,1.8-4,4v10.1c0,2.2,1.8,4,4,4h10.9c2.2,0,4-1.8,4-4v-10.1
					c0-2.2-1.8-4-4-4H121.3z"/>
			</g>
			<g>
				<path class="st3" d="M132,143.1h-10.7c-0.8,0-1.5-0.7-1.5-1.5v-10.2c0-0.8,0.7-1.5,1.5-1.5H132c0.8,0,1.5,0.7,1.5,1.5v10.2
					C133.5,142.4,132.9,143.1,132,143.1z M121.4,130.9c-0.3,0-0.5,0.2-0.5,0.5v10.2c0,0.3,0.2,0.5,0.5,0.5H132
					c0.3,0,0.5-0.2,0.5-0.5v-10.2c0-0.3-0.2-0.5-0.5-0.5H121.4z"/>
			</g>
			<g>
				<path class="st3" d="M168.7,147.5h-10.9c-3.3,0-6-2.7-6-6v-10.1c0-3.3,2.7-6,6-6h10.9c3.3,0,6,2.7,6,6v10.1
					C174.7,144.8,172,147.5,168.7,147.5z M157.8,127.4c-2.2,0-4,1.8-4,4v10.1c0,2.2,1.8,4,4,4h10.9c2.2,0,4-1.8,4-4v-10.1
					c0-2.2-1.8-4-4-4H157.8z"/>
			</g>
			<g>
				<path class="st3" d="M168.6,143.1h-10.7c-0.8,0-1.5-0.7-1.5-1.5v-10.2c0-0.8,0.7-1.5,1.5-1.5h10.7c0.8,0,1.5,0.7,1.5,1.5v10.2
					C170.1,142.4,169.4,143.1,168.6,143.1z M157.9,130.9c-0.3,0-0.5,0.2-0.5,0.5v10.2c0,0.3,0.2,0.5,0.5,0.5h10.7
					c0.3,0,0.5-0.2,0.5-0.5v-10.2c0-0.3-0.2-0.5-0.5-0.5H157.9z"/>
			</g>
			<g>
				<path class="st3" d="M95.6,177.9H84.7c-3.3,0-6-2.7-6-6v-10.1c0-3.3,2.7-6,6-6h10.9c3.3,0,6,2.7,6,6v10.1
					C101.6,175.2,98.9,177.9,95.6,177.9z M84.7,157.8c-2.2,0-4,1.8-4,4v10.1c0,2.2,1.8,4,4,4h10.9c2.2,0,4-1.8,4-4v-10.1
					c0-2.2-1.8-4-4-4H84.7z"/>
			</g>
			<g>
				<path class="st3" d="M95.5,173.4H84.8c-0.8,0-1.5-0.7-1.5-1.5v-10.2c0-0.8,0.7-1.5,1.5-1.5h10.7c0.8,0,1.5,0.7,1.5,1.5v10.2
					C97,172.8,96.3,173.4,95.5,173.4z M84.8,161.2c-0.3,0-0.5,0.2-0.5,0.5v10.2c0,0.3,0.2,0.5,0.5,0.5h10.7c0.3,0,0.5-0.2,0.5-0.5
					v-10.2c0-0.3-0.2-0.5-0.5-0.5H84.8z"/>
			</g>
			<g>
				<path class="st3" d="M132.1,177.9h-10.9c-3.3,0-6-2.7-6-6v-10.1c0-3.3,2.7-6,6-6h10.9c3.3,0,6,2.7,6,6v10.1
					C138.1,175.2,135.5,177.9,132.1,177.9z M121.3,157.8c-2.2,0-4,1.8-4,4v10.1c0,2.2,1.8,4,4,4h10.9c2.2,0,4-1.8,4-4v-10.1
					c0-2.2-1.8-4-4-4H121.3z"/>
			</g>
			<g>
				<path class="st3" d="M132,173.4h-10.7c-0.8,0-1.5-0.7-1.5-1.5v-10.2c0-0.8,0.7-1.5,1.5-1.5H132c0.8,0,1.5,0.7,1.5,1.5v10.2
					C133.5,172.8,132.9,173.4,132,173.4z M121.4,161.2c-0.3,0-0.5,0.2-0.5,0.5v10.2c0,0.3,0.2,0.5,0.5,0.5H132
					c0.3,0,0.5-0.2,0.5-0.5v-10.2c0-0.3-0.2-0.5-0.5-0.5H121.4z"/>
			</g>
			<g>
				<path class="st3" d="M168.7,177.9h-10.9c-3.3,0-6-2.7-6-6v-10.1c0-3.3,2.7-6,6-6h10.9c3.3,0,6,2.7,6,6v10.1
					C174.7,175.2,172,177.9,168.7,177.9z M157.8,157.8c-2.2,0-4,1.8-4,4v10.1c0,2.2,1.8,4,4,4h10.9c2.2,0,4-1.8,4-4v-10.1
					c0-2.2-1.8-4-4-4H157.8z"/>
			</g>
			<g>
				<path class="st3" d="M168.6,173.4h-10.7c-0.8,0-1.5-0.7-1.5-1.5v-10.2c0-0.8,0.7-1.5,1.5-1.5h10.7c0.8,0,1.5,0.7,1.5,1.5v10.2
					C170.1,172.8,169.4,173.4,168.6,173.4z M157.9,161.2c-0.3,0-0.5,0.2-0.5,0.5v10.2c0,0.3,0.2,0.5,0.5,0.5h10.7
					c0.3,0,0.5-0.2,0.5-0.5v-10.2c0-0.3-0.2-0.5-0.5-0.5H157.9z"/>
			</g>
			<g>
				<path class="st3" d="M95.6,208.2H84.7c-3.3,0-6-2.7-6-6v-10.1c0-3.3,2.7-6,6-6h10.9c3.3,0,6,2.7,6,6v10.1
					C101.6,205.5,98.9,208.2,95.6,208.2z M84.7,188.1c-2.2,0-4,1.8-4,4v10.1c0,2.2,1.8,4,4,4h10.9c2.2,0,4-1.8,4-4v-10.1
					c0-2.2-1.8-4-4-4H84.7z"/>
			</g>
			<g>
				<path class="st3" d="M95.5,203.8H84.8c-0.8,0-1.5-0.7-1.5-1.5v-10.2c0-0.8,0.7-1.5,1.5-1.5h10.7c0.8,0,1.5,0.7,1.5,1.5v10.2
					C97,203.1,96.3,203.8,95.5,203.8z M84.8,191.6c-0.3,0-0.5,0.2-0.5,0.5v10.2c0,0.3,0.2,0.5,0.5,0.5h10.7c0.3,0,0.5-0.2,0.5-0.5
					v-10.2c0-0.3-0.2-0.5-0.5-0.5H84.8z"/>
			</g>
			<g>
				<path class="st3" d="M132.1,208.2h-10.9c-3.3,0-6-2.7-6-6v-10.1c0-3.3,2.7-6,6-6h10.9c3.3,0,6,2.7,6,6v10.1
					C138.1,205.5,135.5,208.2,132.1,208.2z M121.3,188.1c-2.2,0-4,1.8-4,4v10.1c0,2.2,1.8,4,4,4h10.9c2.2,0,4-1.8,4-4v-10.1
					c0-2.2-1.8-4-4-4H121.3z"/>
			</g>
			<g>
				<path class="st3" d="M132,203.8h-10.7c-0.8,0-1.5-0.7-1.5-1.5v-10.2c0-0.8,0.7-1.5,1.5-1.5H132c0.8,0,1.5,0.7,1.5,1.5v10.2
					C133.5,203.1,132.9,203.8,132,203.8z M121.4,191.6c-0.3,0-0.5,0.2-0.5,0.5v10.2c0,0.3,0.2,0.5,0.5,0.5H132
					c0.3,0,0.5-0.2,0.5-0.5v-10.2c0-0.3-0.2-0.5-0.5-0.5H121.4z"/>
			</g>
			<g>
				<path class="st3" d="M152.8,216.7c-0.6,0-1-0.4-1-1v-1.3c0-0.6,0.4-1,1-1s1,0.4,1,1v1.3C153.8,216.2,153.4,216.7,152.8,216.7z"
					/>
			</g>
			<g>
				<path class="st3" d="M168.5,238.6h-10.6c-3.4,0-6.1-2.7-6.1-5.9v-14c0-0.6,0.4-1,1-1s1,0.4,1,1v14c0,2.2,1.9,3.9,4.1,3.9h10.6
					c2.3,0,4.1-1.8,4.1-3.9v-40.6c0-2.2-1.9-3.9-4.1-3.9h-10.6c-2.3,0-4.1,1.8-4.1,3.9v16.7c0,0.6-0.4,1-1,1s-1-0.4-1-1v-16.7
					c0-3.3,2.8-5.9,6.1-5.9h10.6c3.4,0,6.1,2.7,6.1,5.9v40.6C174.7,235.9,171.9,238.6,168.5,238.6z"/>
			</g>
			<g>
				<path class="st3" d="M168.5,234.1h-10.6c-0.8,0-1.5-0.7-1.5-1.5v-40.6c0-0.8,0.7-1.5,1.5-1.5h10.6c0.8,0,1.5,0.7,1.5,1.5v40.6
					C170.1,233.5,169.4,234.1,168.5,234.1z M157.9,191.6c-0.3,0-0.5,0.2-0.5,0.5v40.6c0,0.3,0.2,0.5,0.5,0.5h10.6
					c0.3,0,0.5-0.2,0.5-0.5v-40.6c0-0.3-0.2-0.5-0.5-0.5H157.9z"/>
			</g>
			<g>
				<path class="st3" d="M95.6,238.6H84.7c-3.3,0-6-2.7-6-6v-10.1c0-3.3,2.7-6,6-6h10.9c3.3,0,6,2.7,6,6v10.1
					C101.6,235.9,98.9,238.6,95.6,238.6z M84.7,218.5c-2.2,0-4,1.8-4,4v10.1c0,2.2,1.8,4,4,4h10.9c2.2,0,4-1.8,4-4v-10.1
					c0-2.2-1.8-4-4-4H84.7z"/>
			</g>
			<path class="st4" d="M86.8,232.6v-10.2c0-0.6,0.4-1,1-1h10.7c0.6,0,1,0.4,1,1v10.2c0,0.6-0.4,1-1,1H87.8
				C87.3,233.6,86.8,233.2,86.8,232.6z"/>
			<path class="st6" d="M123.4,232.6v-10.2c0-0.6,0.4-1,1-1H135c0.6,0,1,0.4,1,1v10.2c0,0.6-0.4,1-1,1h-10.7
				C123.8,233.6,123.4,233.2,123.4,232.6z"/>
			<g>
				<path class="st3" d="M95.5,234.1H84.8c-0.8,0-1.5-0.7-1.5-1.5v-10.2c0-0.8,0.7-1.5,1.5-1.5h10.7c0.8,0,1.5,0.7,1.5,1.5v10.2
					C97,233.5,96.3,234.1,95.5,234.1z M84.8,221.9c-0.3,0-0.5,0.2-0.5,0.5v10.2c0,0.3,0.2,0.5,0.5,0.5h10.7c0.3,0,0.5-0.2,0.5-0.5
					v-10.2c0-0.3-0.2-0.5-0.5-0.5H84.8z"/>
			</g>
			<g>
				<path class="st3" d="M132.1,238.6h-10.9c-3.3,0-6-2.7-6-6v-10.1c0-3.3,2.7-6,6-6h10.9c3.3,0,6,2.7,6,6v10.1
					C138.1,235.9,135.5,238.6,132.1,238.6z M121.3,218.5c-2.2,0-4,1.8-4,4v10.1c0,2.2,1.8,4,4,4h10.9c2.2,0,4-1.8,4-4v-10.1
					c0-2.2-1.8-4-4-4H121.3z"/>
			</g>
			<g>
				<path class="st3" d="M132,234.1h-10.7c-0.8,0-1.5-0.7-1.5-1.5v-10.2c0-0.8,0.7-1.5,1.5-1.5H132c0.8,0,1.5,0.7,1.5,1.5v10.2
					C133.5,233.5,132.9,234.1,132,234.1z M121.4,221.9c-0.3,0-0.5,0.2-0.5,0.5v10.2c0,0.3,0.2,0.5,0.5,0.5H132
					c0.3,0,0.5-0.2,0.5-0.5v-10.2c0-0.3-0.2-0.5-0.5-0.5H121.4z"/>
			</g>
			<g>
				<path class="st3" d="M178.4,82.9H75c-0.6,0-1-0.4-1-1s0.4-1,1-1h103.3c0.6,0,1,0.4,1,1S178.9,82.9,178.4,82.9z"/>
			</g>
			<g>
				<path class="st3" d="M165,76.3h-12.2c-0.3,0-0.5-0.2-0.5-0.5V15c0-2.6,1.8-4.8,4.3-5.3c0.4-0.1,0.7-0.1,1.1-0.1h2.3
					c3,0,5.4,2.4,5.4,5.4v41c0,0.3-0.2,0.5-0.5,0.5s-0.5-0.2-0.5-0.5V15c0-2.5-2-4.4-4.4-4.4h-2.3c-0.3,0-0.6,0-0.9,0.1
					c-2.1,0.4-3.5,2.2-3.5,4.4v60.3h11.2V62.1c0-0.3,0.2-0.5,0.5-0.5s0.5,0.2,0.5,0.5v13.7C165.5,76.1,165.3,76.3,165,76.3z"/>
			</g>
			<g>
				<path class="st3" d="M158.9,76.3c-0.3,0-0.5-0.2-0.5-0.5V16.4c0-0.3,0.2-0.5,0.5-0.5s0.5,0.2,0.5,0.5v59.5
					C159.4,76.1,159.2,76.3,158.9,76.3z"/>
			</g>
			<g>
				<path class="st3" d="M83.4,46.7c-0.6,0-1-0.4-1-1v-2.7c0-0.6,0.4-1,1-1s1,0.4,1,1v2.7C84.4,46.2,84,46.7,83.4,46.7z"/>
			</g>
			<g>
				<path class="st3" d="M147.9,82.9H83.4c-0.6,0-1-0.4-1-1V50.2c0-0.6,0.4-1,1-1s1,0.4,1,1v30.7h62.5V15c0-3.6,1.8-6.9,4.6-8.9
					H93.3c-4.9,0-8.9,4-8.9,8.9v20.3c0,0.6-0.4,1-1,1s-1-0.4-1-1V15c0-6,4.9-10.9,10.9-10.9h62.5c0.6,0,1,0.4,1,1v0.2
					c0,0.5-0.3,0.9-0.8,1c-4.1,0.8-7.1,4.5-7.1,8.7v66.8C148.9,82.4,148.4,82.9,147.9,82.9z"/>
			</g>
			<g>
				<path class="st3" d="M134.5,44H89.9c-0.3,0-0.5-0.2-0.5-0.5s0.2-0.5,0.5-0.5h44.7c0.3,0,0.5,0.2,0.5,0.5S134.8,44,134.5,44z"/>
			</g>
			<g>
				<path class="st3" d="M139.5,54.6H89.9c-0.3,0-0.5-0.2-0.5-0.5s0.2-0.5,0.5-0.5h49.6c0.3,0,0.5,0.2,0.5,0.5
					S139.8,54.6,139.5,54.6z"/>
			</g>
			<g>
				<path class="st3" d="M129.6,65.1H89.9c-0.3,0-0.5-0.2-0.5-0.5s0.2-0.5,0.5-0.5h39.7c0.3,0,0.5,0.2,0.5,0.5
					S129.9,65.1,129.6,65.1z"/>
			</g>
			<g>
				<path class="st3" d="M129.6,32.8H89.9c-0.3,0-0.5-0.2-0.5-0.5s0.2-0.5,0.5-0.5h39.7c0.3,0,0.5,0.2,0.5,0.5
					S129.9,32.8,129.6,32.8z"/>
			</g>
			<g>
				<path class="st3" d="M139.5,21.6H89.9c-0.3,0-0.5-0.2-0.5-0.5s0.2-0.5,0.5-0.5h49.6c0.3,0,0.5,0.2,0.5,0.5
					S139.8,21.6,139.5,21.6z"/>
			</g>
		</g>
	</g>
	<g>
		<path class="st3" d="M205.1,217.4c-1.6,0-3-1.3-3-3s1.3-3,3-3s3,1.3,3,3S206.7,217.4,205.1,217.4z M205.1,212.4c-1.1,0-2,0.9-2,2
			s0.9,2,2,2s2-0.9,2-2S206.1,212.4,205.1,212.4z"/>
	</g>
	<g>
		<path class="st5" d="M185.8,62c-1.6,0-3-1.3-3-3s1.3-3,3-3s3,1.3,3,3S187.5,62,185.8,62z M185.8,57.1c-1.1,0-2,0.9-2,2s0.9,2,2,2
			s2-0.9,2-2S186.9,57.1,185.8,57.1z"/>
	</g>
	<g>
		<path class="st3" d="M46.2,204.4c-0.1,0-0.3-0.1-0.4-0.1c-0.1-0.1-0.2-0.3-0.1-0.5l0.8-2.6l-0.8-2.6c-0.1-0.2,0-0.4,0.1-0.5
			c0.1-0.1,0.3-0.2,0.5-0.1l2.6,0.8l2.6-0.8c0.2-0.1,0.4,0,0.5,0.1c0.1,0.1,0.2,0.3,0.1,0.5l-0.8,2.6l0.8,2.6c0.1,0.2,0,0.4-0.1,0.5
			c-0.1,0.1-0.3,0.2-0.5,0.1l-1-0.3c-0.3-0.1-0.4-0.4-0.3-0.6c0.1-0.3,0.4-0.4,0.6-0.3l0.1,0l-0.5-1.8c0-0.1,0-0.2,0-0.3l0.5-1.8
			l-1.8,0.5c-0.1,0-0.2,0-0.3,0l-1.8-0.5l0.5,1.8c0,0.1,0,0.2,0,0.3l-0.5,1.8l1.8-0.5c0.3-0.1,0.5,0.1,0.6,0.3
			c0.1,0.3-0.1,0.5-0.3,0.6l-2.7,0.8C46.3,204.4,46.3,204.4,46.2,204.4z"/>
	</g>
	<g>
		<path class="st6" d="M57.6,119c0,0-0.1,0-0.1,0l-1-0.3c-0.3-0.1-0.4-0.4-0.3-0.6c0.1-0.3,0.3-0.4,0.6-0.3l0.1,0l-0.5-1.8
			c0-0.1,0-0.2,0-0.3l0.5-1.8l-1.8,0.5c-0.1,0-0.2,0-0.3,0l-1.8-0.5l0.5,1.8c0,0.1,0,0.2,0,0.3l-0.5,1.8l1.8-0.5
			c0.3-0.1,0.5,0.1,0.6,0.3c0.1,0.3-0.1,0.5-0.3,0.6l-2.7,0.8c-0.2,0.1-0.4,0-0.5-0.1c-0.1-0.1-0.2-0.3-0.1-0.5l0.8-2.6l-0.8-2.6
			c-0.1-0.2,0-0.4,0.1-0.5c0.1-0.1,0.3-0.2,0.5-0.1l2.6,0.8l2.6-0.8c0.2-0.1,0.4,0,0.5,0.1c0.1,0.1,0.2,0.3,0.1,0.5l-0.8,2.6
			l0.8,2.6c0.1,0.2,0,0.4-0.1,0.5C57.8,118.9,57.7,119,57.6,119z"/>
	</g>
	<g>
		<g>
			<path class="st5" d="M57.4,50.9c-0.3,0-0.5-0.2-0.5-0.5v-2.4c0-0.3,0.2-0.5,0.5-0.5s0.5,0.2,0.5,0.5v2.4
				C57.9,50.6,57.6,50.9,57.4,50.9z"/>
		</g>
		<g>
			<path class="st5" d="M57.4,56.7c-0.3,0-0.5-0.2-0.5-0.5v-2.4c0-0.3,0.2-0.5,0.5-0.5s0.5,0.2,0.5,0.5v2.4
				C57.9,56.5,57.6,56.7,57.4,56.7z"/>
		</g>
		<g>
			<path class="st5" d="M61.5,52.6h-2.4c-0.3,0-0.5-0.2-0.5-0.5s0.2-0.5,0.5-0.5h2.4c0.3,0,0.5,0.2,0.5,0.5S61.8,52.6,61.5,52.6z"/>
		</g>
		<g>
			<path class="st5" d="M55.6,52.6h-2.4c-0.3,0-0.5-0.2-0.5-0.5s0.2-0.5,0.5-0.5h2.4c0.3,0,0.5,0.2,0.5,0.5S55.9,52.6,55.6,52.6z"/>
		</g>
	</g>
	<g>
		<g>
			<path class="st6" d="M205.1,168.1c-0.3,0-0.5-0.2-0.5-0.5v-2.4c0-0.3,0.2-0.5,0.5-0.5s0.5,0.2,0.5,0.5v2.4
				C205.6,167.8,205.3,168.1,205.1,168.1z"/>
		</g>
		<g>
			<path class="st6" d="M205.1,173.9c-0.3,0-0.5-0.2-0.5-0.5V171c0-0.3,0.2-0.5,0.5-0.5s0.5,0.2,0.5,0.5v2.4
				C205.6,173.7,205.3,173.9,205.1,173.9z"/>
		</g>
		<g>
			<path class="st6" d="M209.2,169.8h-2.4c-0.3,0-0.5-0.2-0.5-0.5s0.2-0.5,0.5-0.5h2.4c0.3,0,0.5,0.2,0.5,0.5
				S209.5,169.8,209.2,169.8z"/>
		</g>
		<g>
			<path class="st6" d="M203.3,169.8h-2.4c-0.3,0-0.5-0.2-0.5-0.5s0.2-0.5,0.5-0.5h2.4c0.3,0,0.5,0.2,0.5,0.5
				S203.6,169.8,203.3,169.8z"/>
		</g>
	</g>
	<g>
		<g>
			<path class="st4" d="M39.6,162.1c-0.3,0-0.5-0.2-0.5-0.5v-2.4c0-0.3,0.2-0.5,0.5-0.5s0.5,0.2,0.5,0.5v2.4
				C40.1,161.9,39.8,162.1,39.6,162.1z"/>
		</g>
		<g>
			<path class="st4" d="M39.6,168c-0.3,0-0.5-0.2-0.5-0.5v-2.4c0-0.3,0.2-0.5,0.5-0.5s0.5,0.2,0.5,0.5v2.4
				C40.1,167.8,39.8,168,39.6,168z"/>
		</g>
		<g>
			<path class="st4" d="M43.7,163.8h-2.4c-0.3,0-0.5-0.2-0.5-0.5s0.2-0.5,0.5-0.5h2.4c0.3,0,0.5,0.2,0.5,0.5S44,163.8,43.7,163.8z"
				/>
		</g>
		<g>
			<path class="st4" d="M37.8,163.8h-2.4c-0.3,0-0.5-0.2-0.5-0.5s0.2-0.5,0.5-0.5h2.4c0.3,0,0.5,0.2,0.5,0.5S38.1,163.8,37.8,163.8z
				"/>
		</g>
	</g>
</g>
</svg>
