<svg xmlns="http://www.w3.org/2000/svg" id="Layer_1" x="0" y="0" enable-background="new 0 0 256 256" version="1.1" viewBox="0 0 256 256" xml:space="preserve"><style>.st0{fill:#DBFDFF;}
	.st1{fill:#FFFFFF;}
	.st2{fill:#48386A;}
	.st3{fill:#FEBE7F;}
	.st4{fill:#FF8584;}
	.st5{fill:#9FEAFF;}
	.st6{fill:#FFFFED;}</style><path d="M245.2 159.9c0-28.3-22.9-51.3-51.3-51.3-7.9 0-15.4 1.8-22.1 5-4-21.2-21.1-37.8-42.6-41.1 2-5.4 3-11.3 3-17.4C132.3 26.9 109.4 4 81.1 4S29.8 26.9 29.8 55.3v1.2C14.6 65.3 4.3 81.8 4.3 100.8c0 28.3 22.9 51.3 51.3 51.3 7.4 0 14.5-1.6 20.8-4.4 8.4 15.5 24.4 26.2 43.1 26.9-3.4 6.8-5.3 14.5-5.3 22.6 0 28.3 22.9 51.3 51.3 51.3 11.5 0 22.2-3.8 30.7-10.2h1.2c28.3 0 51.3-22.9 51.3-51.3 0-6.9-1.4-13.6-3.9-19.6.2-2.5.4-5 .4-7.5z" class="st0"/><path d="M159.2 153c-15.3 15.3-40.1 15.3-55.4 0s-15.3-40.1 0-55.4c10.8-10.8 26.3-14 39.9-9.5 5.7 1.9 11 5 15.5 9.5s7.7 9.8 9.5 15.5c4.4 13.6 1.3 29.1-9.5 39.9z" class="st1"/><path d="M131.4 165.5c-10.7 0-20.8-4.2-28.4-11.8S91.2 136 91.2 125.3s4.2-20.8 11.8-28.4c10.8-10.8 26.5-14.5 40.9-9.8 6 2 11.4 5.3 15.9 9.8 4.5 4.5 7.8 9.9 9.8 15.9 4.7 14.5 1 30.2-9.8 40.9-7.5 7.6-17.6 11.8-28.4 11.8zm0-78.5c-10 0-19.6 3.9-27 11.2-7.2 7.2-11.2 16.8-11.2 27s4 19.8 11.2 27c7.2 7.2 16.8 11.2 27 11.2s19.8-4 27-11.2c10.2-10.2 13.8-25.1 9.3-38.9-1.9-5.7-5-10.8-9.3-15.1-4.3-4.3-9.4-7.4-15.1-9.3-3.9-1.2-7.9-1.9-11.9-1.9zm27.8 66z" class="st2"/><path d="M107.9 142.1c-8.1-11.3-7-27.1 3.1-37.3 11.3-11.3 29.6-11.3 40.9 0 11.3 11.3 11.3 29.6 0 40.9-11.3 11.3-29.6 11.3-40.9 0l-3.1-3.6z" class="st1"/><path d="M131.4 154.7c-7.5 0-15.1-2.9-20.8-8.6-.2-.2-.2-.5 0-.7s.5-.2.7 0c11.1 11.1 29.1 11.1 40.2 0 11.1-11.1 11.1-29.1 0-40.2-11.1-11.1-29.1-11.1-40.2 0-9.9 9.9-11.2 25.3-3.1 36.6.2.2.1.5-.1.7-.2.2-.5.1-.7-.1-8.4-11.7-7.1-27.7 3.2-37.9 11.5-11.5 30.2-11.5 41.6 0 11.5 11.5 11.5 30.2 0 41.6-5.7 5.7-13.2 8.6-20.8 8.6z" class="st2"/><path d="M185.8 211.8c6.4-4 12.4-8.8 17.9-14.3 28.1-28.1 36.4-68.6 24.9-104l-9.8 3.2-15.7 5.1-34.3 11.2c4.4 13.6 1.3 29.1-9.5 39.9-10.8 10.8-26.3 14-39.9 9.5l-1.3 53.6-.3 10.4c18.4 2.5 37.4 0 54.8-7.6l13.2-7z" class="st1"/><path d="M131.5 228.4c-4.7 0-9.3-.3-14-.9-.5-.1-.9-.5-.9-1l1.6-64c0-.3.2-.6.4-.8.3-.2.6-.2.9-.1 13.8 4.5 28.7.9 38.9-9.3 10.2-10.2 13.8-25.1 9.3-38.9-.2-.5.1-1.1.6-1.3l59.8-19.6c.3-.1.5-.1.8.1.2.1.4.3.5.6 12.1 37.2 2.5 77.4-25.1 105-5.5 5.5-11.6 10.4-18.1 14.5-.5.3-1.1.2-1.4-.3-.3-.5-.2-1.1.3-1.4 6.4-4 12.4-8.8 17.7-14.2 26.9-26.9 36.4-65.9 24.9-102l-58 19c4.3 14.2.4 29.5-10.1 40s-25.5 14.3-39.7 10.2l-1.5 61.7c18.2 2.3 36.6-.3 53.3-7.7.5-.2 1.1 0 1.3.5.2.5 0 1.1-.5 1.3-12.7 5.7-26.8 8.6-41 8.6z" class="st2"/><path d="m143.6 88 11.2-34.3L160 38l3.2-9.8c-35.4-11.6-75.9-3.3-104 24.9-23.5 23.5-33.1 55.5-29 86l10.4-.3 53.6-1.3c-4.4-13.6-1.3-29.1 9.5-39.9 10.8-10.9 26.4-14 39.9-9.6z" class="st1"/><path d="M30.2 140.1c-.5 0-.9-.4-1-.9-4.4-32.2 6.3-63.9 29.3-86.9 27.6-27.6 67.9-37.2 105-25.1.3.1.5.3.6.5.1.2.1.5.1.8l-19.6 59.8c-.2.5-.7.8-1.3.6-13.8-4.5-28.7-.9-38.9 9.3s-13.8 25.1-9.3 38.9c.1.3 0 .6-.1.9-.2.3-.5.4-.8.4l-64 1.7zM131.3 24c-26.4 0-52 10.3-71.4 29.7-22.3 22.3-32.8 53-28.8 84.3l61.7-1.5c-4.1-14.1-.3-29.2 10.2-39.7 10.5-10.5 25.8-14.3 40-10.1l19-58c-10.2-3.1-20.5-4.7-30.7-4.7z" class="st2"/><path d="M117 252c-27.7-3.1-54.5-15.3-75.8-36.5S7.8 167.4 4.7 139.7l25.5-.6 10.4-.3 53.6-1.3c.1.4.2.7.4 1.1.1.3.2.7.4 1 .1.4.3.7.4 1 .4 1 .9 1.9 1.4 2.9.2.4.4.8.7 1.2.2.3.4.7.6 1 .2.3.4.6.6 1 .3.5.7 1.1 1.1 1.6 0 .1.1.1.1.2.4.5.7.9 1.1 1.4.3.4.6.7.9 1.1.2.2.3.4.5.6l.6.6c.3.3.5.6.8.9.3.3.6.6.9.8l.6.6c.2.2.4.4.6.5.4.3.7.6 1.1.9.5.4.9.7 1.4 1.1.1.1.1.1.2.1.5.4 1.1.8 1.6 1.1.3.2.6.4 1 .6.3.2.6.4 1 .6.4.2.8.4 1.2.7.9.5 1.9 1 2.9 1.4.3.1.7.3 1 .4.3.1.7.2 1 .4.4.1.8.3 1.1.4l-1.3 53.6-.3 10.4-.8 25.3z" class="st1"/><path d="M117 253h-.1c-29.2-3.3-55.6-16-76.4-36.8C19.7 195.4 7 169 3.7 139.8c0-.3.1-.6.2-.8.2-.2.4-.3.7-.3l89.5-2.2c.5 0 .8.3 1 .7.1.4.2.7.4 1.1l.4 1c.1.3.3.7.4 1 .4 1 .8 1.9 1.3 2.8.2.4.4.8.6 1.1.2.3.4.6.5.9l.1.1.6.9c.4.6.7 1.1 1.1 1.6 0 0 0 .1.1.1l.1.1c.3.5.7.9 1.1 1.4.3.3.6.7.9 1 .2.2.3.4.5.5.2.2.4.4.5.6.3.3.6.6.8.9.3.3.6.5.8.8.2.2.4.4.6.5.2.2.4.4.6.5.3.3.7.6 1 .8l.1.1c.4.4.9.7 1.4 1.1l.1.1s.1 0 .1.1c.5.3 1 .7 1.6 1.1l.9.6.1.1c.3.2.6.3.8.5.4.2.8.5 1.2.7.9.5 1.8.9 2.8 1.3.3.2.7.3 1 .4l1 .4c.3.1.7.2 1 .3.4.1.8.6.8 1L118 252c0 .3-.1.5-.3.7-.2.2-.5.3-.7.3zM5.8 140.7c3.4 28.3 15.9 53.9 36.1 74.1 20.2 20.2 45.8 32.7 74.1 36.1l2.2-87.6c-.2-.1-.3-.1-.4-.2l-1-.4c-.4-.1-.7-.3-1.1-.4-1-.4-1.9-.9-2.9-1.4-.4-.2-.8-.4-1.2-.7-.3-.1-.6-.3-.9-.5l-.1-.1c-.3-.2-.6-.4-1-.6-.6-.4-1.1-.8-1.6-1.1-.1-.1-.2-.1-.3-.2-.5-.3-.9-.7-1.4-1.1l-.1-.1c-.3-.3-.7-.6-1-.9-.2-.2-.4-.4-.6-.5l-.6-.6c-.3-.3-.6-.5-.9-.8-.3-.3-.6-.6-.8-.9l-.6-.6c-.2-.2-.4-.4-.5-.6-.3-.4-.6-.7-.9-1.1-.4-.5-.8-1-1.1-1.5-.1-.1-.1-.2-.2-.2-.3-.5-.7-1-1.1-1.6-.2-.3-.4-.7-.6-1-.2-.4-.4-.7-.6-1-.2-.4-.4-.8-.7-1.2-.5-1-1-2-1.4-3-.1-.3-.3-.7-.4-1.1l-.4-1c-.1-.2-.1-.3-.2-.5l-87.8 2.3z" class="st2"/><path d="M217.5 31.1c1.4 1.3 2.8 2.6 4.1 4 14.7 14.7 25 32.1 31.1 50.5l-24.1 7.9-9.8 3.2-15.7 5.1-34.3 11.2c-1.9-5.7-5-11-9.5-15.5s-9.8-7.7-15.5-9.5L155 53.7l5-15.7 3.2-9.8L171.1 4c14.1 4.6 27.6 11.8 39.8 21.5l6.6 5.6z" class="st1"/><path d="M168.7 114.1c-.2 0-.3 0-.5-.1s-.4-.3-.5-.6c-1.9-5.7-5-10.8-9.3-15.1-4.3-4.3-9.4-7.4-15.1-9.3-.3-.1-.5-.3-.6-.5s-.1-.5-.1-.8l27.5-84c.2-.5.7-.8 1.3-.6 14.6 4.8 28.1 12 40.1 21.6.4.3.5 1 .2 1.4-.3.4-1 .5-1.4.2-11.6-9.2-24.5-16.3-38.5-21l-26.9 82.1c5.7 2 10.7 5.2 15 9.5 4.3 4.3 7.5 9.3 9.5 15L251.5 85C245.3 66.4 235 49.8 221 35.8c-1.3-1.3-2.7-2.7-4.1-3.9-.4-.4-.4-1-.1-1.4s1-.4 1.4-.1c1.4 1.3 2.8 2.6 4.2 4 14.5 14.5 25 31.6 31.3 50.9.2.5-.1 1.1-.6 1.3L169 114c-.1 0-.2.1-.3.1z" class="st2"/><path d="M171.9 106.2c-2.2-4.6-5.1-8.9-8.9-12.6-3.7-3.7-7.9-6.7-12.6-8.9L174.5 11c16.2 6.1 30.7 15.5 43.1 27.9C230 51.3 239.4 65.8 245.5 82l-73.6 24.2z" class="st3"/><path d="M171.9 106.7c-.2 0-.4-.1-.5-.3-2.2-4.6-5.1-8.8-8.8-12.4-3.7-3.7-7.8-6.6-12.4-8.8-.2-.1-.3-.4-.3-.6L174 10.9c0-.1.1-.2.3-.3.1-.1.3-.1.4 0 16.3 6.1 30.9 15.6 43.3 28 12.4 12.4 21.9 27 28 43.3v.4l-.3.3-73.7 24.1h-.1zm-20.8-22.2c4.5 2.2 8.7 5.1 12.3 8.8 3.6 3.6 6.6 7.8 8.8 12.3L245 81.8c-6.1-16-15.4-30.2-27.6-42.5-12.2-12.2-26.5-21.5-42.5-27.6l-23.8 72.8zM133.1 240.4c-.3 0-.5-.2-.5-.5s.2-.5.5-.5c29.9-.4 57.9-12.3 79-33.4 26-26 38-63.3 31.9-99.7 0-.3.1-.5.4-.6.3 0 .5.1.6.4 6.2 36.7-5.9 74.3-32.1 100.6-21.3 21.3-49.7 33.3-79.8 33.7zM150.5 12.7s-.1 0 0 0c-8.1-1.4-16.4-1.8-24.6-1.5-.3 0-.5-.2-.5-.5s.2-.5.5-.5c8.3-.4 16.6.1 24.7 1.5.3 0 .5.3.4.6 0 .2-.3.4-.5.4zM16.8 125.8c-.3 0-.5-.2-.5-.5 0-30.8 12-59.7 33.7-81.4C68.9 25 93.8 13.2 120.3 10.6c.3 0 .5.2.5.4 0 .3-.2.5-.5.5-26.2 2.5-51 14.2-69.7 32.9C29 66 17.2 94.6 17.2 125.1c.1.4-.1.7-.4.7z" class="st2"/><path d="M131.2 106.9c6.4-1.8 13.6-.2 18.7 4.9 7.4 7.4 7.4 19.5 0 27-7.4 7.4-19.5 7.4-27 0s-7.4-19.5 0-27c.8-.8 1.7-1.5 2.6-2.2l5.7-2.7z" class="st4"/><path d="M131.4 145.3c-5.4 0-10.4-2.1-14.2-5.9s-5.9-8.8-5.9-14.2 2.1-10.4 5.9-14.2c.8-.8 1.8-1.6 2.7-2.3.5-.3 1.1-.2 1.4.2.3.5.2 1.1-.2 1.4-.9.6-1.7 1.3-2.5 2.1-3.4 3.4-5.3 7.9-5.3 12.8s1.9 9.4 5.3 12.8c3.4 3.4 7.9 5.3 12.8 5.3 4.8 0 9.4-1.9 12.8-5.3 7-7 7-18.5 0-25.5-4.6-4.6-11.4-6.4-17.7-4.6-.5.1-1.1-.2-1.2-.7-.1-.5.2-1.1.7-1.2 7-2 14.5 0 19.7 5.1 7.8 7.8 7.8 20.5 0 28.4-3.9 3.7-8.9 5.8-14.3 5.8zM178.7 216.9c-.4 0-.7-.2-.9-.5-.3-.5-.1-1.1.4-1.3l2.7-1.5c.5-.3 1.1-.1 1.4.4.3.5.1 1.1-.4 1.4-.9.5-1.9 1-2.8 1.5-.1-.1-.2 0-.4 0z" class="st2"/><path d="M131.5 226.9c-2.7 0-5.5-.1-8.2-.3l1.3-52.1c2.3.3 4.5.5 6.9.5 11.9 0 23.2-4.7 31.6-13.1 10.7-10.7 15.1-25.7 12.3-40.2l49.5-16.2c8.8 33.3-.5 68.5-25.1 93.1-18.3 18.3-42.5 28.3-68.3 28.3z" class="st5"/><g><path d="M131.5 222.4c-2.7 0-5.5-.1-8.2-.3-.3 0-.5-.2-.5-.5l1.3-52.1c0-.1.1-.3.2-.4.1-.1.3-.1.4-.1 2.2.3 4.5.5 6.8.5 11.8 0 22.9-4.6 31.3-13 10.4-10.4 15-25.3 12.1-39.7 0-.2.1-.5.3-.6l49.5-16.2h.4c.1.1.2.2.2.3 9 33.8-.4 68.8-25.2 93.6-18.3 18.4-42.7 28.5-68.6 28.5zm-7.7-1.3c2.5.2 5.1.3 7.7.3 25.7 0 49.8-10 68-28.2 24.4-24.4 33.8-58.8 25.1-92.1L175.9 117c2.7 14.6-1.9 29.6-12.5 40.2-8.5 8.5-19.9 13.2-32 13.2-2.1 0-4.3-.2-6.4-.4l-1.2 51.1z" class="st2"/></g><path d="M70.3 54.8c18-16.9 41.4-26.2 66.1-26.2 8.4 0 16.7 1.1 24.8 3.2L145 81.4c-2.8-.5-5.7-.8-8.6-.8-11.9 0-23.2 4.7-31.6 13.1-10.2 10.2-14.8 24.5-12.6 38.5l-52.1 1.3c-2.3-26.7 6.4-52.7 24.3-72.6l5.9-6.1z" class="st4"/><g><path d="M35.1 133.9c-.3 0-.5-.2-.5-.5-2.3-26.9 6.4-52.9 24.4-73 .2-.2.5-.2.7 0 .2.2.2.5 0 .7-17.7 19.8-26.2 45.3-24.1 71.8l51-1.3c-2-14 2.8-28.3 12.8-38.3 8.5-8.5 19.9-13.2 32-13.2 2.8 0 5.5.3 8.2.7l15.9-48.6c-7.9-2-16-3.1-24.1-3.1-24.6 0-47.9 9.3-65.8 26.1-.2.2-.5.2-.7 0-.2-.2-.2-.5 0-.7 18.1-17 41.7-26.3 66.5-26.3 8.4 0 16.8 1.1 24.9 3.2.1 0 .2.1.3.2.1.1.1.3 0 .4l-16.2 49.5c-.1.2-.3.4-.6.3-2.8-.5-5.6-.8-8.5-.8-11.8 0-22.9 4.6-31.3 13-10 10-14.6 24.2-12.4 38 0 .1 0 .3-.1.4-.1.1-.2.2-.4.2l-52 1.3z" class="st2"/></g><g><path d="M59.7 224.5c-.1 0-.2 0-.3-.1-1-.7-1.9-1.4-2.8-2.1-.2-.2-.3-.5-.1-.7.2-.2.5-.3.7-.1.9.7 1.9 1.4 2.8 2.1.2.2.3.5.1.7-.1.2-.3.2-.4.2z" class="st2"/></g><g><path d="M50.8 216.9c-1.9-1.7-3.8-3.5-5.7-5.3-18.3-18.3-30-41.2-34.1-66.5l79.4-2c.4 1 .9 2 1.4 3 .2.4.5.9.7 1.3.2.3.4.7.6 1 .2.4.5.8.7 1.1.4.6.8 1.2 1.2 1.7.1.2.2.3.3.4l1.2 1.5.1.1c.3.4.6.8 1 1.1.1.2.3.4.6.6.2.3.5.5.7.8l.9.9.9.9c.3.2.5.5.8.7.2.2.5.4.7.6.3.3.7.6 1.1.9l.1.1 1.5 1.2c.1.1.3.2.4.3.5.3 1.1.8 1.7 1.2.4.2.8.5 1.1.7.3.2.7.4 1 .6.4.3.9.5 1.3.7 1 .5 2 1 3 1.4l-2 79.4c-18.2-2.9-35.1-9.8-49.9-20.2l-10.7-8.2z" class="st6"/><path d="M111.6 246.2c-18.3-3-35.2-9.8-50.2-20.3-.2-.2-.3-.5-.1-.7.2-.2.5-.3.7-.1 14.7 10.3 31.3 17.1 49.2 20l2-78.5c-.9-.4-1.8-.8-2.7-1.3-.5-.2-.9-.5-1.4-.7-.3-.2-.7-.4-1-.6-.4-.3-.8-.5-1.2-.8-.7-.4-1.3-.9-1.7-1.2-.2-.1-.3-.2-.4-.3l-1.5-1.2-.1-.1c-.4-.3-.8-.6-1.1-.9-.2-.2-.5-.4-.7-.6-.3-.2-.5-.5-.8-.7l-.9-.9-.9-.9c-.3-.3-.5-.5-.7-.8-.2-.2-.4-.5-.6-.6-.3-.4-.6-.8-1-1.1l-.1-.1c-.4-.5-.8-1-1.2-1.6-.1-.1-.2-.3-.3-.5-.3-.4-.7-1-1.2-1.7-.2-.4-.5-.8-.7-1.2-.2-.4-.4-.7-.6-1.1-.3-.4-.5-.9-.7-1.3-.5-.9-.9-1.8-1.3-2.7l-78.5 2c4.2 24.9 15.9 47.6 33.9 65.7 1.8 1.8 3.7 3.6 5.6 5.3.2.2.2.5 0 .7s-.5.2-.7 0c-1.9-1.7-3.9-3.5-5.7-5.4-18.3-18.3-30.2-41.4-34.3-66.8 0-.1 0-.3.1-.4.1-.1.2-.2.4-.2l79.4-2c.2 0 .4.1.5.3.4 1 .9 2 1.4 3 .2.4.5.9.7 1.3.2.4.4.7.6 1 .3.4.5.8.7 1.2.4.6.8 1.2 1.2 1.7.1.2.2.3.3.4l1.2 1.5.1.1c.3.4.6.8 1 1.1.1.2.3.4.6.6.2.3.5.5.7.8l.9.9.9.9c.3.2.5.5.8.7.2.2.5.4.7.6.3.3.7.6 1.1.9l.1.1 1.5 1.2c.1.1.2.2.4.3.4.3 1 .7 1.7 1.2.4.2.7.5 1.1.7.4.2.7.4 1.1.6.4.3.9.5 1.3.7 1 .5 2 1 3 1.4.2.1.3.3.3.5l-2 79.4c0 .1-.1.3-.2.4-.4.1-.5.1-.7.1z" class="st2"/></g><g><path d="M96.7 144.5c-.4 0-.7-.2-.9-.5-.5-1-1-2-1.4-3-.2-.5 0-1.1.5-1.3.5-.2 1.1 0 1.3.5.4.9.8 1.8 1.3 2.8.3.5.1 1.1-.4 1.3-.1.2-.2.2-.4.2z" class="st2"/></g><g><path d="M116.1 162.3c-.1 0-.3 0-.4-.1-1-.4-2-.9-3-1.4-.5-.3-.7-.9-.4-1.3.3-.5.9-.7 1.3-.4 1 .5 1.9 1 2.8 1.3.5.2.7.8.5 1.3-.1.4-.4.6-.8.6z" class="st2"/></g><g><path d="M39.8 44c-1.6 0-3-1.3-3-3s1.3-3 3-3 3 1.3 3 3-1.4 3-3 3zm0-5c-1.1 0-2 .9-2 2s.9 2 2 2 2-.9 2-2-.9-2-2-2z" class="st2"/></g><g><path d="M215.3 221c-.1 0-.3-.1-.4-.1-.1-.1-.2-.3-.1-.5l.8-2.6-.8-2.6c-.1-.2 0-.4.1-.5.1-.1.3-.2.5-.1l2.6.8 2.6-.8c.2-.1.4 0 .5.1.1.1.2.3.1.5l-.8 2.6.8 2.6c.1.2 0 .4-.1.5-.1.1-.3.2-.5.1l-1-.3c-.3-.1-.4-.4-.3-.6.1-.3.4-.4.6-.3h.1l-.5-1.8v-.3l.5-1.8-1.8.5h-.3l-1.8-.5.5 1.8v.3l-.5 1.8 1.8-.5c.3-.1.5.1.6.3.1.3-.1.5-.3.6l-2.7.8h-.2z" class="st2"/></g><g><path d="M16.8 99.5h-.1l-1-.3c-.3-.1-.4-.4-.3-.6.1-.3.4-.4.6-.3h.1l-.5-1.8v-.3l.5-1.8-1.8.5H14l-1.8-.5.5 1.8v.3l-.5 1.8 1.8-.5c.3-.1.5.1.6.3.1.3-.1.5-.3.6l-2.7.8c-.2 0-.4 0-.5-.1-.1-.1-.2-.3-.1-.5l.8-2.6-.8-2.6c-.1-.2 0-.4.1-.5.1-.1.3-.2.5-.1l2.6.8 2.6-.8c.2-.1.4 0 .5.1.1.1.2.3.1.5l-.8 2.6.8 2.6c.1.2 0 .4-.1.5-.3.1-.4.1-.5.1z" class="st3"/></g><g><path d="M174.8 237.6c-.3 0-.5-.2-.5-.5v-2.4c0-.3.2-.5.5-.5s.5.2.5.5v2.4c0 .3-.2.5-.5.5zM174.8 243.5c-.3 0-.5-.2-.5-.5v-2.4c0-.3.2-.5.5-.5s.5.2.5.5v2.4c0 .3-.2.5-.5.5zM178.9 239.4h-2.4c-.3 0-.5-.2-.5-.5s.2-.5.5-.5h2.4c.3 0 .5.2.5.5s-.2.5-.5.5zM173.1 239.4h-2.4c-.3 0-.5-.2-.5-.5s.2-.5.5-.5h2.4c.3 0 .5.2.5.5s-.2.5-.5.5z" class="st3"/></g><g><path d="M68.6 14.8c-.3 0-.5-.2-.5-.5v-2.4c0-.3.2-.5.5-.5s.5.2.5.5v2.4c0 .2-.3.5-.5.5zM68.6 20.6c-.3 0-.5-.2-.5-.5v-2.4c0-.3.2-.5.5-.5s.5.2.5.5v2.4c0 .3-.3.5-.5.5zM72.7 16.5h-2.4c-.3 0-.5-.2-.5-.5s.2-.5.5-.5h2.4c.3 0 .5.2.5.5s-.2.5-.5.5zM66.8 16.5h-2.4c-.3 0-.5-.2-.5-.5s.2-.5.5-.5h2.4c.3 0 .5.2.5.5s-.2.5-.5.5z" class="st5"/></g><g><path d="M241.9 179.6c-1.6 0-3-1.3-3-3s1.3-3 3-3 3 1.3 3 3-1.3 3-3 3zm0-5c-1.1 0-2 .9-2 2s.9 2 2 2 2-.9 2-2-.9-2-2-2z" class="st4"/></g></svg>