<?xml version="1.0" encoding="utf-8"?>
<!-- Generator: Adobe Illustrator 22.1.0, SVG Export Plug-In . SVG Version: 6.00 Build 0)  -->
<svg version="1.1" id="Layer_1" xmlns="http://www.w3.org/2000/svg" xmlns:xlink="http://www.w3.org/1999/xlink" x="0px" y="0px"
	 viewBox="0 0 256 256" style="enable-background:new 0 0 256 256;" xml:space="preserve">
<style type="text/css">
	.st0{fill:#DBFDFF;}
	.st1{fill:#FFFFFF;}
	.st2{fill:#48386A;}
	.st3{fill:#FFFFED;}
	.st4{fill:#9FEAFF;}
	.st5{fill:#FEBE7F;}
	.st6{fill:#FF8584;}
</style>
<g>
	<g>
		<path class="st0" d="M194.7,97c-5.4,0-10.6,0.9-15.5,2.4c-9.1-9.1-21.8-14.8-35.7-14.8c-8.5,0-16.6,2.1-23.7,5.9
			c3.3-6.7,5.2-14.3,5.2-22.3c0-27.9-22.6-50.5-50.5-50.5S24,40.3,24,68.2c0,5.5,0.9,10.8,2.5,15.8c-4.8,7.7-7.6,16.9-7.6,26.7
			c0,27.9,22.6,50.5,50.5,50.5c9.9,0,19.1-2.9,26.9-7.8c5.1,13.2,15.5,23.6,28.7,28.8c-2.1,5.5-3.2,11.5-3.2,17.8
			c0,27.9,22.6,50.5,50.5,50.5s50.5-22.6,50.5-50.5c0-3.4-0.3-6.7-1-9.9c14.1-9,23.4-24.7,23.4-42.6C245.2,119.6,222.6,97,194.7,97z
			"/>
		<g>
			<path class="st1" d="M139.1,227.5h31.3c2.8,0,5.2-2.3,5.2-5.2V113.7c0-2.8-2.3-5.2-5.2-5.2H9.9c-2.8,0-5.2,2.3-5.2,5.2v108.6
				c0,2.8,2.3,5.2,5.2,5.2h123.5H139.1z"/>
			<g>
				<path class="st1" d="M252.7,91.1v47.2c0,2.8-2.3,5.2-5.2,5.2h-72v-29.7c0-2.8-2.3-5.2-5.2-5.2H81.9V29.6c0-2.8,2.3-5.2,5.2-5.2
					h160.5c2.8,0,5.2,2.3,5.2,5.2V72V91.1z"/>
				<path class="st2" d="M247.5,144.4h-72c-0.6,0-1-0.4-1-1v-29.7c0-2.3-1.9-4.2-4.2-4.2H81.9c-0.6,0-1-0.4-1-1V29.6
					c0-3.4,2.8-6.2,6.2-6.2h160.5c3.4,0,6.2,2.8,6.2,6.2V72c0,0.6-0.4,1-1,1s-1-0.4-1-1V29.6c0-2.3-1.9-4.2-4.2-4.2H87
					c-2.3,0-4.2,1.9-4.2,4.2v77.9h87.5c3.4,0,6.2,2.8,6.2,6.2v28.7h71c2.3,0,4.2-1.9,4.2-4.2V91.1c0-0.6,0.4-1,1-1s1,0.4,1,1v47.2
					C253.7,141.7,250.9,144.4,247.5,144.4z"/>
			</g>
			<g>
				<polygon class="st3" points="162.3,87.3 130.2,108.6 90.1,108.6 90.1,32.7 157.9,84 				"/>
				<path class="st2" d="M130.2,109.1H90.1c-0.3,0-0.5-0.2-0.5-0.5V32.7c0-0.2,0.1-0.4,0.3-0.4c0.2-0.1,0.4-0.1,0.5,0l67.7,51.2
					l4.4,3.3c0.1,0.1,0.2,0.3,0.2,0.4s-0.1,0.3-0.2,0.4L130.5,109C130.4,109,130.3,109.1,130.2,109.1z M90.6,108.1H130l31.4-20.8
					l-3.8-2.9L90.6,33.7V108.1z"/>
			</g>
			<path class="st4" d="M180.5,135.2v-21.4c0-2.8-2.3-5.2-5.2-5.2h-40.2l32.1-21.3l5,3.8l5-3.8l72.2,47.9H180.5z"/>
			<path class="st5" d="M142.6,231.5h31.3c2.8,0,5.2-2.3,5.2-5.2V117.7c0-2.8-2.3-5.2-5.2-5.2H13.4c-2.8,0-5.2,2.3-5.2,5.2v108.6
				c0,2.8,2.3,5.2,5.2,5.2h123.5H142.6z"/>
			<g>
				<polygon class="st1" points="167.3,132 167.3,219.3 13,219.3 13,116.8 167.3,116.8 167.3,127.1 				"/>
				<path class="st2" d="M167.3,219.8H13c-0.3,0-0.5-0.2-0.5-0.5V116.8c0-0.3,0.2-0.5,0.5-0.5h154.3c0.3,0,0.5,0.2,0.5,0.5v10.3
					c0,0.3-0.2,0.5-0.5,0.5s-0.5-0.2-0.5-0.5v-9.8H13.5v101.4h153.3V132c0-0.3,0.2-0.5,0.5-0.5s0.5,0.2,0.5,0.5v87.3
					C167.8,219.5,167.6,219.8,167.3,219.8z"/>
			</g>
			<g>
				<path class="st2" d="M170.4,228.5h-31.3c-0.6,0-1-0.4-1-1s0.4-1,1-1h31.3c2.3,0,4.2-1.9,4.2-4.2V113.7c0-2.3-1.9-4.2-4.2-4.2
					H9.9c-2.3,0-4.2,1.9-4.2,4.2v108.6c0,2.3,1.9,4.2,4.2,4.2h123.5c0.6,0,1,0.4,1,1s-0.4,1-1,1H9.9c-3.4,0-6.2-2.8-6.2-6.2V113.7
					c0-3.4,2.8-6.2,6.2-6.2h160.5c3.4,0,6.2,2.8,6.2,6.2v108.6C176.5,225.7,173.8,228.5,170.4,228.5z"/>
			</g>
			<g>
				<polygon class="st1" points="49.2,159.7 23.3,159.7 23.3,127.1 78.6,127.1 78.6,159.7 58.6,159.7 				"/>
				<path class="st2" d="M78.6,160.7h-20c-0.6,0-1-0.4-1-1s0.4-1,1-1h19v-30.6H24.3v30.6h24.9c0.6,0,1,0.4,1,1s-0.4,1-1,1H23.3
					c-0.6,0-1-0.4-1-1v-32.6c0-0.6,0.4-1,1-1h55.3c0.6,0,1,0.4,1,1v32.6C79.6,160.3,79.2,160.7,78.6,160.7z"/>
			</g>
			<g>
				<path class="st2" d="M54.7,160.7h-1.1c-0.6,0-1-0.4-1-1s0.4-1,1-1h1.1c0.6,0,1,0.4,1,1S55.3,160.7,54.7,160.7z"/>
			</g>
			
				<rect x="40.8" y="121.9" transform="matrix(-1.836970e-16 1 -1 -1.836970e-16 198.3571 92.4883)" class="st6" width="24.3" height="47.1"/>
			<g>
				<path class="st2" d="M74.5,156.1H27.4c-0.3,0-0.5-0.2-0.5-0.5v-24.3c0-0.3,0.2-0.5,0.5-0.5h47.1c0.3,0,0.5,0.2,0.5,0.5v24.3
					C75,155.9,74.8,156.1,74.5,156.1z M27.9,155.1H74v-23.3H27.9V155.1z"/>
			</g>
			<g>
				<path class="st2" d="M157,178.3h-27c-0.3,0-0.5-0.2-0.5-0.5s0.2-0.5,0.5-0.5h27c0.3,0,0.5,0.2,0.5,0.5S157.3,178.3,157,178.3z"
					/>
			</g>
			<g>
				<path class="st2" d="M126,178.3H96.1c-0.3,0-0.5-0.2-0.5-0.5s0.2-0.5,0.5-0.5H126c0.3,0,0.5,0.2,0.5,0.5S126.3,178.3,126,178.3z
					"/>
			</g>
			<g>
				<path class="st2" d="M146.7,188.3H96.1c-0.3,0-0.5-0.2-0.5-0.5s0.2-0.5,0.5-0.5h50.5c0.3,0,0.5,0.2,0.5,0.5
					S146.9,188.3,146.7,188.3z"/>
			</g>
			<g>
				<path class="st2" d="M136.4,198.4H96.1c-0.3,0-0.5-0.2-0.5-0.5s0.2-0.5,0.5-0.5h40.2c0.3,0,0.5,0.2,0.5,0.5
					S136.6,198.4,136.4,198.4z"/>
			</g>
			<g>
				<path class="st2" d="M126,208.4H96.1c-0.3,0-0.5-0.2-0.5-0.5s0.2-0.5,0.5-0.5H126c0.3,0,0.5,0.2,0.5,0.5S126.3,208.4,126,208.4z
					"/>
			</g>
			<g>
				<path class="st2" d="M252.7,87.3c-0.6,0-1-0.4-1-1v-4.8c0-0.6,0.4-1,1-1s1,0.4,1,1v4.8C253.7,86.9,253.3,87.3,252.7,87.3z"/>
			</g>
			<polygon class="st4" points="151.9,32.7 249.5,32.7 181.7,84 177.3,87.3 172.3,91.1 167.3,87.3 162.9,84 95.1,32.7 137.5,32.7 
							"/>
			<g>
				<path class="st2" d="M244.5,135.7h-68.9c-0.3,0-0.5-0.2-0.5-0.5v-21.4c0-2.6-2.1-4.7-4.7-4.7h-40.2c-0.2,0-0.4-0.1-0.5-0.4
					c-0.1-0.2,0-0.4,0.2-0.6L162,86.9c0.2-0.1,0.4-0.1,0.6,0l4.7,3.6l4.7-3.6c0.2-0.1,0.4-0.1,0.6,0l72.2,47.9
					c0.2,0.1,0.3,0.3,0.2,0.6C244.9,135.5,244.7,135.7,244.5,135.7z M176,134.7h66.8l-70.5-46.8l-4.7,3.6c-0.2,0.1-0.4,0.1-0.6,0
					l-4.7-3.6l-30.4,20.2h38.5c3.1,0,5.7,2.5,5.7,5.7V134.7z"/>
			</g>
			<g>
				<path class="st2" d="M143.6,33.2h-3.5c-0.3,0-0.5-0.2-0.5-0.5s0.2-0.5,0.5-0.5h3.5c0.3,0,0.5,0.2,0.5,0.5S143.9,33.2,143.6,33.2
					z"/>
			</g>
			<g>
				<polygon class="st3" points="244.5,32.7 244.5,135.2 172.3,87.3 176.7,84 				"/>
				<path class="st2" d="M244.5,135.7c-0.1,0-0.2,0-0.3-0.1L172,87.7c-0.1-0.1-0.2-0.2-0.2-0.4s0.1-0.3,0.2-0.4l72.2-54.5
					c0.2-0.1,0.4-0.1,0.5,0c0.2,0.1,0.3,0.3,0.3,0.4v102.4c0,0.2-0.1,0.4-0.3,0.4C244.6,135.7,244.5,135.7,244.5,135.7z M173.2,87.3
					l70.8,47V33.7L173.2,87.3z"/>
			</g>
			<g>
				<path class="st2" d="M167.3,91.6c-0.1,0-0.2,0-0.3-0.1L89.8,33.1c-0.2-0.1-0.2-0.4-0.2-0.6s0.3-0.3,0.5-0.3h42.3
					c0.3,0,0.5,0.2,0.5,0.5s-0.2,0.5-0.5,0.5H91.6l75.7,57.2L243,33.2h-96.1c-0.3,0-0.5-0.2-0.5-0.5s0.2-0.5,0.5-0.5h97.6
					c0.2,0,0.4,0.1,0.5,0.3c0.1,0.2,0,0.4-0.2,0.6l-77.2,58.3C167.5,91.5,167.4,91.6,167.3,91.6z"/>
			</g>
		</g>
		<g>
			<path class="st6" d="M66.1,84.5c-1.6,0-3-1.3-3-3s1.3-3,3-3s3,1.3,3,3S67.8,84.5,66.1,84.5z M66.1,79.5c-1.1,0-2,0.9-2,2
				s0.9,2,2,2s2-0.9,2-2S67.2,79.5,66.1,79.5z"/>
		</g>
		<g>
			<path class="st2" d="M34.1,97c-0.1,0-0.3-0.1-0.4-0.1c-0.1-0.1-0.2-0.3-0.1-0.5l0.8-2.6l-0.8-2.6c-0.1-0.2,0-0.4,0.1-0.5
				c0.1-0.1,0.3-0.2,0.5-0.1l2.6,0.8l2.6-0.8c0.2-0.1,0.4,0,0.5,0.1C40,90.8,40,91,40,91.2l-0.8,2.6l0.8,2.6c0.1,0.2,0,0.4-0.1,0.5
				C39.7,97,39.5,97,39.4,97l-1-0.3c-0.3-0.1-0.4-0.4-0.3-0.6c0.1-0.3,0.4-0.4,0.6-0.3l0.1,0l-0.5-1.8c0-0.1,0-0.2,0-0.3l0.5-1.8
				l-1.8,0.5c-0.1,0-0.2,0-0.3,0l-1.8-0.5l0.5,1.8c0,0.1,0,0.2,0,0.3l-0.5,1.8l1.8-0.5c0.3-0.1,0.5,0.1,0.6,0.3
				c0.1,0.3-0.1,0.5-0.3,0.6L34.2,97C34.2,97,34.1,97,34.1,97z"/>
		</g>
		<g>
			<path class="st5" d="M189.1,178c-0.1,0-0.3-0.1-0.4-0.1c-0.1-0.1-0.2-0.3-0.1-0.5l0.8-2.6l-0.8-2.6c-0.1-0.2,0-0.4,0.1-0.5
				s0.3-0.2,0.5-0.1l2.6,0.8l2.6-0.8c0.2-0.1,0.4,0,0.5,0.1s0.2,0.3,0.1,0.5l-0.8,2.6l0.8,2.6c0.1,0.2,0,0.4-0.1,0.5
				c-0.1,0.1-0.3,0.2-0.5,0.1l-1-0.3c-0.3-0.1-0.4-0.4-0.3-0.6c0.1-0.3,0.4-0.4,0.6-0.3l0.1,0l-0.5-1.8c0-0.1,0-0.2,0-0.3l0.5-1.8
				l-1.8,0.5c-0.1,0-0.2,0-0.3,0l-1.8-0.5l0.5,1.8c0,0.1,0,0.2,0,0.3l-0.5,1.8l1.8-0.5c0.3-0.1,0.5,0.1,0.6,0.3
				c0.1,0.3-0.1,0.5-0.3,0.6l-2.7,0.8C189.2,178,189.1,178,189.1,178z"/>
		</g>
		<g>
			<g>
				<path class="st5" d="M59.1,43.2c-0.3,0-0.5-0.2-0.5-0.5v-2.4c0-0.3,0.2-0.5,0.5-0.5s0.5,0.2,0.5,0.5v2.4
					C59.6,43,59.3,43.2,59.1,43.2z"/>
			</g>
			<g>
				<path class="st5" d="M59.1,49.1c-0.3,0-0.5-0.2-0.5-0.5v-2.4c0-0.3,0.2-0.5,0.5-0.5s0.5,0.2,0.5,0.5v2.4
					C59.6,48.8,59.3,49.1,59.1,49.1z"/>
			</g>
			<g>
				<path class="st5" d="M63.2,44.9h-2.4c-0.3,0-0.5-0.2-0.5-0.5s0.2-0.5,0.5-0.5h2.4c0.3,0,0.5,0.2,0.5,0.5S63.5,44.9,63.2,44.9z"
					/>
			</g>
			<g>
				<path class="st5" d="M57.4,44.9h-2.4c-0.3,0-0.5-0.2-0.5-0.5s0.2-0.5,0.5-0.5h2.4c0.3,0,0.5,0.2,0.5,0.5S57.6,44.9,57.4,44.9z"
					/>
			</g>
		</g>
		<g>
			<g>
				<path class="st4" d="M190.1,230.3c-0.3,0-0.5-0.2-0.5-0.5v-2.4c0-0.3,0.2-0.5,0.5-0.5s0.5,0.2,0.5,0.5v2.4
					C190.6,230.1,190.4,230.3,190.1,230.3z"/>
			</g>
			<g>
				<path class="st4" d="M190.1,236.2c-0.3,0-0.5-0.2-0.5-0.5v-2.4c0-0.3,0.2-0.5,0.5-0.5s0.5,0.2,0.5,0.5v2.4
					C190.6,235.9,190.4,236.2,190.1,236.2z"/>
			</g>
			<g>
				<path class="st4" d="M194.2,232h-2.4c-0.3,0-0.5-0.2-0.5-0.5s0.2-0.5,0.5-0.5h2.4c0.3,0,0.5,0.2,0.5,0.5S194.5,232,194.2,232z"
					/>
			</g>
			<g>
				<path class="st4" d="M188.4,232h-2.4c-0.3,0-0.5-0.2-0.5-0.5s0.2-0.5,0.5-0.5h2.4c0.3,0,0.5,0.2,0.5,0.5S188.6,232,188.4,232z"
					/>
			</g>
		</g>
	</g>
	<g>
		<path class="st2" d="M204.3,206.6c-1.6,0-3-1.3-3-3s1.3-3,3-3s3,1.3,3,3S206,206.6,204.3,206.6z M204.3,201.7c-1.1,0-2,0.9-2,2
			s0.9,2,2,2s2-0.9,2-2S205.4,201.7,204.3,201.7z"/>
	</g>
	<g>
		<g>
			<path class="st6" d="M218,156.4c-0.3,0-0.5-0.2-0.5-0.5v-2.4c0-0.3,0.2-0.5,0.5-0.5s0.5,0.2,0.5,0.5v2.4
				C218.5,156.1,218.3,156.4,218,156.4z"/>
		</g>
		<g>
			<path class="st6" d="M218,162.2c-0.3,0-0.5-0.2-0.5-0.5v-2.4c0-0.3,0.2-0.5,0.5-0.5s0.5,0.2,0.5,0.5v2.4
				C218.5,162,218.3,162.2,218,162.2z"/>
		</g>
		<g>
			<path class="st6" d="M222.1,158.1h-2.4c-0.3,0-0.5-0.2-0.5-0.5s0.2-0.5,0.5-0.5h2.4c0.3,0,0.5,0.2,0.5,0.5
				S222.4,158.1,222.1,158.1z"/>
		</g>
		<g>
			<path class="st6" d="M216.3,158.1h-2.4c-0.3,0-0.5-0.2-0.5-0.5s0.2-0.5,0.5-0.5h2.4c0.3,0,0.5,0.2,0.5,0.5
				S216.6,158.1,216.3,158.1z"/>
		</g>
	</g>
</g>
</svg>
