<svg xmlns="http://www.w3.org/2000/svg" id="Layer_1" x="0" y="0" version="1.1" viewBox="0 0 256 256" xml:space="preserve"><style>.st0{fill:#fff}.st1{fill:#9feaff}.st2{fill:#48386a}</style><path d="M189.2 221H10.3c-3.5 0-6.3-2.8-6.3-6.3V95.9h141.3L158 68h94v146.6c0 3.5-2.8 6.3-6.3 6.3h-56.5z" class="st0"/><path d="M159.7 50.3h86c3.5 0 6.3 2.8 6.3 6.3V68h-94l-12.6 27.9H4V41.4c0-3.5 2.8-6.3 6.3-6.3h82.2l12.6 15.3h54.6z" class="st0"/><path d="M106.5 135.6H4V115h248v20.6H116.8z" class="st1"/><path d="M245.7 222h-45.3c-.6 0-1-.4-1-1s.4-1 1-1h45.3c2.9 0 5.3-2.4 5.3-5.3V69h-92.4l-12.4 27.3c-.2.4-.5.6-.9.6H5v117.7c0 2.9 2.4 5.3 5.3 5.3h178.9c.6 0 1 .4 1 1s-.4 1-1 1H10.3c-4 0-7.3-3.3-7.3-7.3V95.9c0-.6.4-1 1-1h140.7L157 67.6c.2-.4.5-.6.9-.6h94c.6 0 1 .4 1 1v146.6c.1 4.1-3.2 7.4-7.2 7.4z" class="st2"/><path d="M252 142.9H4c-.6 0-1-.4-1-1v-33.2c0-.6.4-1 1-1h248c.6 0 1 .4 1 1v33.2c0 .5-.5 1-1 1zm-247-2h246v-31.2H5v31.2z" class="st2"/><path d="M68.6 146.2h13.7v98H68.6z" class="st1" transform="rotate(90 75.44 195.186)"/><path d="M172 139.2h44.4v83.5H172z" class="st1" transform="rotate(90 194.238 180.968)"/><path d="M100.8 77.8c-5 0-9.5 2-12.8 5.3-3.3 3.3-5.3 7.8-5.3 12.8h-67c0-5 2-9.5 5.3-12.8 3.3-3.3 7.8-5.3 12.8-5.3h67zM34.7 35H96l12.6 15.3H7.5v-9c0-3.5 2.8-6.3 6.3-6.3h20.9zM171.1 86.8v-1.4c0-3.5 2.8-6.3 6.3-6.3h58.1c3.5 0 6.3 2.8 6.3 6.3v1.4c0 3.5-2.8 6.3-6.3 6.3h-58.1c-3.5 0-6.3-2.9-6.3-6.3z" class="st1"/><path d="M252 136.1H115.2c-.3 0-.5-.2-.5-.5s.2-.5.5-.5h136.3v-19.6H4.5v19.6h100.6c.3 0 .5.2.5.5s-.2.5-.5.5H4c-.3 0-.5-.2-.5-.5V115c0-.3.2-.5.5-.5h248c.3 0 .5.2.5.5v20.6c0 .2-.2.5-.5.5zM127.3 209.3H68.4c-.6 0-1-.4-1-1s.4-1 1-1h57.8V183H17.6v24.3H58c.6 0 1 .4 1 1s-.4 1-1 1H16.6c-.6 0-1-.4-1-1V182c0-.6.4-1 1-1h110.6c.6 0 1 .4 1 1v26.3c.1.6-.4 1-.9 1z" class="st2"/><path d="M120.9 202.5h-98c-.3 0-.5-.2-.5-.5v-13.7c0-.3.2-.5.5-.5h98c.3 0 .5.2.5.5V202c0 .3-.2.5-.5.5zm-97.5-1h97v-12.7h-97v12.7zM186.2 154.6h-5.8c-.6 0-1-.4-1-1s.4-1 1-1h5.8c.6 0 1 .4 1 1s-.5 1-1 1z" class="st2"/><path d="M237.9 209.3h-94.3c-.6 0-1-.4-1-1v-54.7c0-.6.4-1 1-1h27.6c.6 0 1 .4 1 1s-.4 1-1 1h-26.6v52.7h92.3v-52.7h-45.2c-.6 0-1-.4-1-1s.4-1 1-1h46.2c.6 0 1 .4 1 1v54.7c0 .6-.5 1-1 1z" class="st2"/><path d="M232.5 203.7H149c-.3 0-.5-.2-.5-.5v-44.4c0-.3.2-.5.5-.5h83.5c.3 0 .5.2.5.5v44.4c0 .3-.2.5-.5.5zm-83-1H232v-43.4h-82.5v43.4zM145.3 96.9H79.2c-.6 0-1-.4-1-1 0-5.1 2-9.9 5.6-13.5s8.4-5.6 13.5-5.6h56.2c.3 0 .7.2.8.5s.2.6.1 1l-8.2 18.1c-.1.3-.5.5-.9.5zm-65.1-2h64.5l7.3-16.1H97.3c-4.6 0-8.8 1.8-12.1 5-3 3-4.7 6.9-5 11.1z" class="st2"/><path d="M79.2 96.9h-67c-.6 0-1-.4-1-1 0-5.1 2-9.9 5.6-13.5 3.6-3.6 8.4-5.6 13.5-5.6h67c.6 0 1 .4 1 1s-.4 1-1 1c-4.6 0-8.8 1.8-12.1 5-3.2 3.2-5 7.5-5 12.1 0 .6-.4 1-1 1zm-66-2h65c.2-4.7 2.2-9.1 5.6-12.5 1.5-1.5 3.2-2.7 5-3.6H30.3c-4.5 0-8.8 1.8-12.1 5-3 3-4.8 6.9-5 11.1z" class="st2"/><path d="M145.3 96.9H4c-.6 0-1-.4-1-1V41.4c0-4 3.3-7.3 7.3-7.3h82.2c.3 0 .6.1.8.4l12.3 14.9h45c.6 0 1 .4 1 1s-.4 1-1 1h-45.5c-.3 0-.6-.1-.8-.4L92 36H10.3C7.4 36 5 38.4 5 41.4V95h139.7L157 67.6c.2-.4.5-.6.9-.6h93V56.6c0-2.9-2.4-5.3-5.3-5.3h-86c-.6 0-1-.4-1-1s.4-1 1-1h86c4 0 7.3 3.3 7.3 7.3V68c0 .6-.4 1-1 1h-93.4l-12.4 27.3c0 .4-.4.6-.8.6z" class="st2"/><path d="M105.1 51.3H4c-.6 0-1-.4-1-1v-9c0-4 3.3-7.3 7.3-7.3h82.2c.3 0 .6.1.8.4l12.6 15.3c.2.3.3.7.1 1.1-.2.3-.5.5-.9.5zM5 49.3h98L92 36H10.3C7.4 36 5 38.4 5 41.4v7.9zM99.4 154.1H16.6c-.3 0-.5-.2-.5-.5s.2-.5.5-.5h82.8c.3 0 .5.2.5.5s-.2.5-.5.5zM116.4 168.3H16.6c-.3 0-.5-.2-.5-.5s.2-.5.5-.5h99.7c.3 0 .5.2.5.5s-.2.5-.4.5zM231.3 98.2h-23.4c-.6 0-1-.4-1-1s.4-1 1-1h23.4c5.6 0 10.2-4.6 10.2-10.2s-4.6-10.2-10.2-10.2h-56.7c-5.6 0-10.2 4.6-10.2 10.2s4.6 10.2 10.2 10.2h21.9c.6 0 1 .4 1 1s-.4 1-1 1h-21.9c-6.7 0-12.2-5.5-12.2-12.2s5.5-12.2 12.2-12.2h56.7c6.7 0 12.2 5.5 12.2 12.2s-5.5 12.2-12.2 12.2z" class="st2"/><path d="M232 93.6h-58.1c-3.8 0-6.8-3.1-6.8-6.8v-1.4c0-3.8 3.1-6.8 6.8-6.8H232c3.8 0 6.8 3.1 6.8 6.8v1.4c.1 3.7-3 6.8-6.8 6.8zm-58.1-14.1c-3.2 0-5.8 2.6-5.8 5.8v1.4c0 3.2 2.6 5.8 5.8 5.8H232c3.2 0 5.8-2.6 5.8-5.8v-1.4c0-3.2-2.6-5.8-5.8-5.8h-58.1zM252 60.6H111.3c-.3 0-.5-.2-.5-.5s.2-.5.5-.5H252c.3 0 .5.2.5.5s-.2.5-.5.5zM99.4 60.6H4c-.3 0-.5-.2-.5-.5s.2-.5.5-.5h95.4c.3 0 .5.2.5.5s-.2.5-.5.5z" class="st2"/></svg>