<?xml version="1.0" encoding="utf-8"?>
<!-- Generator: Adobe Illustrator 22.1.0, SVG Export Plug-In . SVG Version: 6.00 Build 0)  -->
<svg version="1.1" id="Layer_1" xmlns="http://www.w3.org/2000/svg" xmlns:xlink="http://www.w3.org/1999/xlink" x="0px" y="0px"
	 viewBox="0 0 256 256" style="enable-background:new 0 0 256 256;" xml:space="preserve">
<style type="text/css">
	.st0{fill:#FFFFFF;}
	.st1{fill:#48386A;}
	.st2{fill:#9FEAFF;}
</style>
<g>
	<g>
		<path class="st0" d="M42.1,26.4H16.5C9.7,26.4,4.2,32,4.2,38.8v159.1c0,6.8,5.5,12.4,12.4,12.4h222.9c6.8,0,12.4-5.5,12.4-12.4
			V38.8c0-6.8-5.5-12.4-12.4-12.4H49.6H42.1z"/>
		<path class="st1" d="M239.5,211.2H16.5c-7.4,0-13.4-6-13.4-13.4V38.8c0-7.4,6-13.4,13.4-13.4h25.6c0.6,0,1,0.4,1,1s-0.4,1-1,1
			H16.5c-6.3,0-11.4,5.1-11.4,11.4v159.1c0,6.3,5.1,11.4,11.4,11.4h222.9c6.3,0,11.4-5.1,11.4-11.4V38.8c0-6.3-5.1-11.4-11.4-11.4
			H49.6c-0.6,0-1-0.4-1-1s0.4-1,1-1h189.9c7.4,0,13.4,6,13.4,13.4v159.1C252.8,205.2,246.8,211.2,239.5,211.2z"/>
	</g>
	<g>
		<polygon class="st0" points="159.3,229.6 22.7,229.6 22.7,210.2 233.3,210.2 233.3,229.6 165.6,229.6 		"/>
		<path class="st1" d="M233.3,230.6h-67.7c-0.6,0-1-0.4-1-1s0.4-1,1-1h66.7v-17.4H23.7v17.4h135.6c0.6,0,1,0.4,1,1s-0.4,1-1,1H22.7
			c-0.6,0-1-0.4-1-1v-19.4c0-0.6,0.4-1,1-1h210.6c0.6,0,1,0.4,1,1v19.4C234.3,230.1,233.8,230.6,233.3,230.6z"/>
	</g>
	<polygon class="st2" points="81.8,223.4 33.3,223.4 33.3,210.2 229.7,210.2 229.7,223.4 92.9,223.4 	"/>
	<g>
		<path class="st1" d="M226.2,223.9H89.4c-0.3,0-0.5-0.2-0.5-0.5s0.2-0.5,0.5-0.5h136.3v-12.2H30.3v12.2h48c0.3,0,0.5,0.2,0.5,0.5
			s-0.2,0.5-0.5,0.5H29.8c-0.3,0-0.5-0.2-0.5-0.5v-13.2c0-0.3,0.2-0.5,0.5-0.5h196.4c0.3,0,0.5,0.2,0.5,0.5v13.2
			C226.7,223.7,226.5,223.9,226.2,223.9z"/>
	</g>
	<g>
		<path class="st1" d="M239.5,211.2H16.5c-7.4,0-13.4-6-13.4-13.4V38.8c0-7.4,6-13.4,13.4-13.4h25.6c0.6,0,1,0.4,1,1s-0.4,1-1,1
			H16.5c-6.3,0-11.4,5.1-11.4,11.4v159.1c0,6.3,5.1,11.4,11.4,11.4h222.9c6.3,0,11.4-5.1,11.4-11.4V38.8c0-6.3-5.1-11.4-11.4-11.4
			H49.6c-0.6,0-1-0.4-1-1s0.4-1,1-1h189.9c7.4,0,13.4,6,13.4,13.4v159.1C252.8,205.2,246.8,211.2,239.5,211.2z"/>
	</g>
	<path class="st2" d="M249.2,105.3v92.6c0,3.4-2.8,6.2-6.2,6.2H20c-3.4,0-6.2-2.8-6.2-6.2V38.8c0-3.4,2.8-6.2,6.2-6.2H243
		c3.4,0,6.2,2.8,6.2,6.2v61.3V105.3z"/>
	<g>
		<path class="st0" d="M170.6,191.7H22.7V45h210.6v24.7h-17.1c-2.3,0-4.3,0.9-5.8,2.4c-1.5,1.5-2.4,3.5-2.4,5.8
			c0,4.5,3.7,8.2,8.2,8.2h17.1v64.3h-17.1c-2.3,0-4.3,0.9-5.8,2.4c-1.5,1.5-2.4,3.6-2.4,5.8c0,4.5,3.7,8.2,8.2,8.2h17.1v24.7h-54.2
			H170.6z"/>
		<path class="st1" d="M233.3,192.7h-54.2c-0.6,0-1-0.4-1-1s0.4-1,1-1h53.2v-22.7h-16.1c-5.1,0-9.2-4.1-9.2-9.2c0-2.5,1-4.8,2.7-6.5
			c1.8-1.7,4.1-2.7,6.5-2.7h16.1V87.2h-16.1c-5.1,0-9.2-4.1-9.2-9.2c0-2.5,1-4.8,2.7-6.5c1.7-1.7,4.1-2.7,6.5-2.7h16.1V46H23.7
			v144.7h146.9c0.6,0,1,0.4,1,1s-0.4,1-1,1H22.7c-0.6,0-1-0.4-1-1V45c0-0.6,0.4-1,1-1h210.6c0.6,0,1,0.4,1,1v24.7c0,0.6-0.4,1-1,1
			h-17.1c-1.9,0-3.8,0.8-5.1,2.1c-1.4,1.4-2.1,3.2-2.1,5.1c0,4,3.3,7.2,7.2,7.2h17.1c0.6,0,1,0.4,1,1v64.3c0,0.6-0.4,1-1,1h-17.1
			c-1.9,0-3.8,0.8-5.1,2.1c-1.4,1.4-2.1,3.2-2.1,5.1c0,4,3.3,7.2,7.2,7.2h17.1c0.6,0,1,0.4,1,1v24.7
			C234.3,192.2,233.8,192.7,233.3,192.7z"/>
	</g>
	<path class="st2" d="M146.9,81.2c14.4,6.2,24.5,20.5,24.5,37.1c0,22.3-18.1,40.4-40.4,40.4s-40.4-18.1-40.4-40.4
		s18.1-40.4,40.4-40.4c4.2,0,8.2,0.6,12,1.8L146.9,81.2z"/>
	<g>
		<path class="st1" d="M239.5,204.5H16.5c-3.7,0-6.7-3-6.7-6.7V38.8c0-3.7,3-6.7,6.7-6.7h222.9c3.7,0,6.7,3,6.7,6.7v61.3
			c0,0.3-0.2,0.5-0.5,0.5s-0.5-0.2-0.5-0.5V38.8c0-3.1-2.5-5.7-5.7-5.7H16.5c-3.1,0-5.7,2.5-5.7,5.7v159.1c0,3.1,2.5,5.7,5.7,5.7
			h222.9c3.1,0,5.7-2.5,5.7-5.7v-92.6c0-0.3,0.2-0.5,0.5-0.5s0.5,0.2,0.5,0.5v92.6C246.2,201.5,243.2,204.5,239.5,204.5z"/>
	</g>
	<g>
		<path class="st0" d="M141,131.4c-3.3,3.3-7.9,5.4-13,5.4c-5.1,0-9.7-2.1-13-5.4c-3.3-3.3-5.4-7.9-5.4-13c0-5.1,2.1-9.7,5.4-13
			c3.3-3.3,7.9-5.4,13-5.4c5.1,0,9.7,2.1,13,5.4c3.3,3.3,5.4,7.9,5.4,13C146.4,123.4,144.4,128,141,131.4z"/>
		<path class="st1" d="M128,137.8c-5.2,0-10.1-2-13.7-5.7s-5.7-8.6-5.7-13.8c0-5.2,2-10.1,5.7-13.7s8.6-5.7,13.7-5.7
			c5.2,0,10.1,2,13.8,5.7c3.7,3.7,5.7,8.6,5.7,13.7c0,5.2-2,10.1-5.7,13.8l0,0C138.1,135.7,133.2,137.8,128,137.8z M128,100.9
			c-4.7,0-9,1.8-12.3,5.1c-3.3,3.3-5.1,7.7-5.1,12.3c0,4.7,1.8,9,5.1,12.3c3.3,3.3,7.7,5.1,12.3,5.1c4.7,0,9-1.8,12.3-5.1
			c3.3-3.3,5.1-7.7,5.1-12.3c0-4.7-1.8-9-5.1-12.3C137,102.7,132.7,100.9,128,100.9z M141,131.4L141,131.4L141,131.4z"/>
	</g>
	<g>
		<path class="st0" d="M227.2,166.9h-11c-4.6,0-8.2-3.7-8.2-8.2c0-2.3,0.9-4.3,2.4-5.8c1.5-1.5,3.5-2.4,5.8-2.4h20.6
			c4.6,0,8.2,3.7,8.2,8.2c0,2.3-0.9,4.3-2.4,5.8c-1.5,1.5-3.5,2.4-5.8,2.4H227.2L227.2,166.9z"/>
		<path class="st1" d="M236.8,167.9h-20.6c-5.1,0-9.2-4.1-9.2-9.2c0-2.5,1-4.8,2.7-6.5c1.8-1.7,4.1-2.7,6.5-2.7h20.6
			c5.1,0,9.2,4.1,9.2,9.2c0,2.5-1,4.8-2.7,6.5C241.6,167,239.2,167.9,236.8,167.9z M216.2,151.5c-1.9,0-3.8,0.8-5.1,2.1
			c-1.4,1.4-2.1,3.2-2.1,5.1c0,4,3.3,7.2,7.2,7.2h20.6c1.9,0,3.8-0.8,5.1-2.1c1.4-1.4,2.1-3.2,2.1-5.1c0-4-3.3-7.2-7.2-7.2H216.2z"
			/>
	</g>
	<path class="st2" d="M219.2,163.2c-2.5,0-4.5-2-4.5-4.5c0-2.5,2-4.5,4.5-4.5h20.6c2.5,0,4.5,2,4.5,4.5c0,2.5-2,4.5-4.5,4.5H219.2z"
		/>
	<g>
		<path class="st0" d="M245,77.9c0,2.3-0.9,4.3-2.4,5.8c-1.5,1.5-3.5,2.4-5.8,2.4h-20.6c-4.6,0-8.2-3.7-8.2-8.2
			c0-2.3,0.9-4.3,2.4-5.8c1.5-1.5,3.5-2.4,5.8-2.4h20.6C241.3,69.7,245,73.4,245,77.9z"/>
		<path class="st1" d="M236.8,87.2h-20.6c-5.1,0-9.2-4.1-9.2-9.2c0-2.5,1-4.8,2.7-6.5c1.7-1.7,4.1-2.7,6.5-2.7h20.6
			c5.1,0,9.2,4.1,9.2,9.2c0,2.5-1,4.8-2.7,6.5C241.6,86.2,239.2,87.2,236.8,87.2z M216.2,70.7c-1.9,0-3.8,0.8-5.1,2.1
			c-1.4,1.4-2.1,3.2-2.1,5.1c0,4,3.3,7.2,7.2,7.2h20.6c1.9,0,3.8-0.8,5.1-2.1c1.4-1.4,2.1-3.2,2.1-5.1c0-4-3.3-7.2-7.2-7.2H216.2z"
			/>
	</g>
	<path class="st2" d="M228.8,73.4h11c2.5,0,4.5,2,4.5,4.5c0,2.5-2,4.5-4.5,4.5h-20.6c-2.5,0-4.5-2-4.5-4.5c0-2.5,2-4.5,4.5-4.5h5.2
		H228.8z"/>
	<path class="st2" d="M45.9,104.6V77.1c0-4.1,3.3-7.4,7.4-7.4c2.1,0,3.9,0.8,5.2,2.2c1.3,1.3,2.2,3.2,2.2,5.2v82.4
		c0,4.1-3.3,7.4-7.4,7.4s-7.4-3.3-7.4-7.4v-43.2V104.6z"/>
	<g>
		<path class="st1" d="M236.8,163.7h-20.6c-2.8,0-5-2.3-5-5c0-2.8,2.3-5,5-5h20.6c2.8,0,5,2.3,5,5
			C241.8,161.5,239.6,163.7,236.8,163.7z M216.2,154.7c-2.2,0-4,1.8-4,4s1.8,4,4,4h20.6c2.2,0,4-1.8,4-4s-1.8-4-4-4H216.2z"/>
	</g>
	<g>
		<path class="st1" d="M236.8,83h-20.6c-2.8,0-5-2.3-5-5c0-2.8,2.3-5,5-5h5.2c0.3,0,0.5,0.2,0.5,0.5s-0.2,0.5-0.5,0.5h-5.2
			c-2.2,0-4,1.8-4,4s1.8,4,4,4h20.6c2.2,0,4-1.8,4-4s-1.8-4-4-4h-11c-0.3,0-0.5-0.2-0.5-0.5s0.2-0.5,0.5-0.5h11c2.8,0,5,2.3,5,5
			C241.8,80.7,239.6,83,236.8,83z"/>
	</g>
	<g>
		<path class="st1" d="M128,131.1c-3.4,0-6.6-1.3-9-3.7c0,0,0,0-0.1-0.1c-2.4-2.4-3.7-5.6-3.7-8.9c0-3.4,1.3-6.6,3.7-9
			c0.9-0.9,2-1.7,3.1-2.3c0.2-0.1,0.5,0,0.7,0.2c0.1,0.2,0,0.5-0.2,0.7c-1.1,0.6-2,1.3-2.9,2.1c-2.2,2.2-3.5,5.2-3.5,8.3
			c0,3.1,1.2,6.1,3.5,8.3c0,0,0,0,0.1,0.1c2.2,2.2,5.1,3.4,8.2,3.4c3.1,0,6.1-1.2,8.3-3.5c2.2-2.2,3.5-5.2,3.5-8.3
			c0-3.1-1.2-6-3.4-8.2c0,0,0,0-0.1-0.1c-2.2-2.2-5.2-3.5-8.3-3.5c-0.8,0-1.5,0.1-2.3,0.2c-0.3,0.1-0.5-0.1-0.6-0.4s0.1-0.5,0.4-0.6
			c0.8-0.2,1.6-0.2,2.5-0.2c3.4,0,6.5,1.3,8.9,3.7c0,0,0,0,0.1,0.1c2.4,2.4,3.7,5.6,3.7,9c0,3.4-1.3,6.6-3.7,9
			C134.6,129.7,131.4,131.1,128,131.1z"/>
	</g>
	<g>
		<path class="st1" d="M128,159.7c-22.8,0-41.4-18.6-41.4-41.4c0-22.8,18.6-41.4,41.4-41.4c4.2,0,8.3,0.6,12.3,1.9
			c0.5,0.2,0.8,0.7,0.7,1.3c-0.2,0.5-0.7,0.8-1.3,0.7c-3.8-1.2-7.7-1.8-11.7-1.8c-21.7,0-39.4,17.7-39.4,39.4
			c0,21.7,17.7,39.4,39.4,39.4c21.7,0,39.4-17.7,39.4-39.4c0-15.8-9.4-30-23.9-36.2c-0.5-0.2-0.7-0.8-0.5-1.3
			c0.2-0.5,0.8-0.7,1.3-0.5c15.2,6.5,25.1,21.5,25.1,38.1C169.4,141.1,150.8,159.7,128,159.7z"/>
	</g>
	<g>
		<path class="st1" d="M168.4,118.8h-21.9c-0.3,0-0.5-0.2-0.5-0.5s0.2-0.5,0.5-0.5h21.9c0.3,0,0.5,0.2,0.5,0.5
			S168.7,118.8,168.4,118.8z"/>
	</g>
	<g>
		<path class="st1" d="M109.6,118.8H87.6c-0.3,0-0.5-0.2-0.5-0.5s0.2-0.5,0.5-0.5h21.9c0.3,0,0.5,0.2,0.5,0.5
			S109.8,118.8,109.6,118.8z"/>
	</g>
	<g>
		<path class="st1" d="M128,100.4c-0.3,0-0.5-0.2-0.5-0.5V77.9c0-0.3,0.2-0.5,0.5-0.5s0.5,0.2,0.5,0.5v21.9
			C128.5,100.2,128.3,100.4,128,100.4z"/>
	</g>
	<g>
		<path class="st1" d="M128,159.2c-0.3,0-0.5-0.2-0.5-0.5v-22c0-0.3,0.2-0.5,0.5-0.5s0.5,0.2,0.5,0.5v22
			C128.5,159,128.3,159.2,128,159.2z"/>
	</g>
	<g>
		<path class="st1" d="M141,105.8c-0.1,0-0.3,0-0.4-0.1c-0.2-0.2-0.2-0.5,0-0.7l15.5-15.5c0.2-0.2,0.5-0.2,0.7,0s0.2,0.5,0,0.7
			l-15.5,15.5C141.3,105.7,141.2,105.8,141,105.8z"/>
	</g>
	<g>
		<path class="st1" d="M99.4,147.4c-0.1,0-0.3,0-0.4-0.1c-0.2-0.2-0.2-0.5,0-0.7l5.2-5.2c0.2-0.2,0.5-0.2,0.7,0s0.2,0.5,0,0.7
			l-5.2,5.2C99.7,147.3,99.6,147.4,99.4,147.4z"/>
	</g>
	<g>
		<path class="st1" d="M107.6,139.2c-0.1,0-0.3,0-0.4-0.1c-0.2-0.2-0.2-0.5,0-0.7l7.4-7.4c0.2-0.2,0.5-0.2,0.7,0s0.2,0.5,0,0.7
			l-7.4,7.4C107.8,139.2,107.7,139.2,107.6,139.2z"/>
	</g>
	<g>
		<path class="st1" d="M115,105.8c-0.1,0-0.3,0-0.4-0.1L99.1,90.1c-0.2-0.2-0.2-0.5,0-0.7s0.5-0.2,0.7,0l15.5,15.5
			c0.2,0.2,0.2,0.5,0,0.7C115.2,105.7,115.1,105.8,115,105.8z"/>
	</g>
	<g>
		<path class="st1" d="M156.6,147.4c-0.1,0-0.3,0-0.4-0.1l-15.5-15.5c-0.2-0.2-0.2-0.5,0-0.7s0.5-0.2,0.7,0l15.5,15.5
			c0.2,0.2,0.2,0.5,0,0.7C156.8,147.3,156.7,147.4,156.6,147.4z"/>
	</g>
	<g>
		<path class="st1" d="M50.3,174.3c-8.6,0-15.6-7-15.6-15.6c0-5.5,3-10.7,7.7-13.5c0.3-0.2,0.7-0.2,1,0c0.3,0.2,0.5,0.5,0.5,0.9
			v13.4c0,3.5,2.9,6.4,6.4,6.4s6.4-2.9,6.4-6.4v-13.4c0-0.4,0.2-0.7,0.5-0.9c0.3-0.2,0.7-0.2,1,0c4.8,2.8,7.7,8,7.7,13.5
			C65.9,167.3,58.9,174.3,50.3,174.3z M41.9,148c-3.3,2.6-5.2,6.5-5.2,10.7c0,7.5,6.1,13.6,13.6,13.6c7.5,0,13.6-6.1,13.6-13.6
			c0-4.2-2-8.2-5.2-10.7v11.5c0,4.6-3.8,8.4-8.4,8.4s-8.4-3.8-8.4-8.4V148z"/>
	</g>
	<g>
		<path class="st1" d="M42.9,113.3c-0.6,0-1-0.4-1-1v-2.6c0-0.6,0.4-1,1-1s1,0.4,1,1v2.6C43.9,112.9,43.5,113.3,42.9,113.3z"/>
	</g>
	<g>
		<path class="st1" d="M50.3,167.9c-4.6,0-8.4-3.8-8.4-8.4v-43.2c0-0.6,0.4-1,1-1s1,0.4,1,1v43.2c0,3.5,2.9,6.4,6.4,6.4
			s6.4-2.9,6.4-6.4V77.1c0-1.7-0.7-3.3-1.9-4.5c-1.2-1.2-2.8-1.9-4.5-1.9c-3.5,0-6.4,2.9-6.4,6.4v27.5c0,0.6-0.4,1-1,1s-1-0.4-1-1
			V77.1c0-4.6,3.8-8.4,8.4-8.4c2.3,0,4.4,0.9,6,2.5c1.6,1.6,2.5,3.7,2.5,5.9v82.4C58.7,164.2,55,167.9,50.3,167.9z"/>
	</g>
	<g>
		<path class="st1" d="M57.7,91.5c-0.2,0-0.3,0-0.5-0.1c-0.3-0.2-0.5-0.5-0.5-0.9V77.1c0-1.7-0.7-3.3-1.9-4.5
			c-1.2-1.2-2.8-1.9-4.5-1.9c-3.5,0-6.4,2.9-6.4,6.4v13.5c0,0.4-0.2,0.7-0.5,0.9c-0.3,0.2-0.7,0.2-1,0c-4.8-2.8-7.7-8-7.7-13.5
			c0-8.6,7-15.6,15.6-15.6c8.6,0,15.6,7,15.6,15.6c0,5.5-3,10.7-7.7,13.5C58.1,91.5,57.9,91.5,57.7,91.5z M50.3,64.3
			c-7.5,0-13.6,6.1-13.6,13.6c0,4.2,2,8.2,5.2,10.7V77.1c0-4.6,3.8-8.4,8.4-8.4c2.3,0,4.4,0.9,6,2.5c1.6,1.6,2.5,3.7,2.5,5.9v11.6
			c3.2-2.6,5.2-6.5,5.2-10.7C63.9,70.4,57.8,64.3,50.3,64.3z"/>
	</g>
	<g>
		<path class="st1" d="M233.3,230.6h-67.7c-0.6,0-1-0.4-1-1s0.4-1,1-1h66.7v-17.4H23.7v17.4h135.6c0.6,0,1,0.4,1,1s-0.4,1-1,1H22.7
			c-0.6,0-1-0.4-1-1v-19.4c0-0.6,0.4-1,1-1h210.6c0.6,0,1,0.4,1,1v19.4C234.3,230.1,233.8,230.6,233.3,230.6z"/>
	</g>
	<g>
		<path class="st1" d="M87,223.9h-3.8c-0.3,0-0.5-0.2-0.5-0.5s0.2-0.5,0.5-0.5H87c0.3,0,0.5,0.2,0.5,0.5S87.3,223.9,87,223.9z"/>
	</g>
</g>
</svg>
