<?xml version="1.0" encoding="utf-8"?>
<!-- Generator: Adobe Illustrator 22.1.0, SVG Export Plug-In . SVG Version: 6.00 Build 0)  -->
<svg version="1.1" id="Layer_1" xmlns="http://www.w3.org/2000/svg" xmlns:xlink="http://www.w3.org/1999/xlink" x="0px" y="0px"
	 viewBox="0 0 256 256" style="enable-background:new 0 0 256 256;" xml:space="preserve">
<style type="text/css">
	.st0{fill:#DBFDFF;}
	.st1{fill:#FFFFFF;}
	.st2{fill:#9FEAFF;}
	.st3{fill:#48386A;}
	.st4{fill:#FEBE7F;}
	.st5{fill:#FFFFED;}
	.st6{fill:#FF8584;}
</style>
<g>
	<path class="st0" d="M242.3,125.8c0-5.6-0.9-11-2.6-16c5-7.8,7.9-17.1,7.9-27.1c0-27.9-22.6-50.5-50.5-50.5
		c-13.5,0-25.7,5.3-34.8,13.9c-8.3-5.9-18.3-9.3-29.2-9.3c-8.9,0-17.2,2.3-24.5,6.3c-9.3-11.2-23.3-18.3-38.9-18.3
		c-27.9,0-50.5,22.6-50.5,50.5c0,1.5,0.1,3.1,0.2,4.6c-4.1,7.3-6.5,15.8-6.5,24.7c0,11.5,3.9,22.1,10.3,30.6
		c-2.6,6.1-4.1,12.8-4.1,19.9c0,27.9,22.6,50.5,50.5,50.5c11.9,0,22.9-4.2,31.6-11.1c8.3,6,18.5,9.5,29.5,9.5c0.7,0,1.4,0,2.1-0.1
		c7,19.5,25.7,33.4,47.5,33.4c27.9,0,50.5-22.6,50.5-50.5c0-8.4-2.1-16.3-5.7-23.3C235.7,154.4,242.3,140.8,242.3,125.8z"/>
	<g>
		<polygon class="st1" points="91.8,228.1 87.8,246 86.5,251.6 64.6,251.6 63.4,246 59.4,228.1 		"/>
		<polygon class="st1" points="167.3,235.6 165.6,228.1 198,228.1 194,246 192.8,251.6 170.9,251.6 169.6,246 168.2,239.8 		"/>
		<path class="st1" d="M213.7,50.5V79h-170V9.6c0-2.9,2.3-5.2,5.2-5.2h159.5c2.9,0,5.2,2.3,5.2,5.2v26.7V50.5z"/>
		<polygon class="st1" points="43.7,117.2 43.7,79 213.7,79 213.7,153.5 43.7,153.5 43.7,123.3 		"/>
		<path class="st1" d="M213.7,198.9v24c0,2.9-2.3,5.2-5.2,5.2H48.9c-2.9,0-5.2-2.3-5.2-5.2v-69.3h170v28.1V198.9z"/>
		<polygon class="st2" points="90.8,246 89.5,251.6 67.6,251.6 66.4,246 		"/>
		<polygon class="st2" points="197,246 195.8,251.6 173.9,251.6 172.6,246 		"/>
		<g>
			<path class="st3" d="M86.5,252.6H64.6c-0.5,0-0.9-0.3-1-0.8l-5.2-23.5c-0.1-0.3,0-0.6,0.2-0.8c0.2-0.2,0.5-0.4,0.8-0.4h32.4
				c0.3,0,0.6,0.1,0.8,0.4c0.2,0.2,0.3,0.5,0.2,0.8l-5.2,23.5C87.4,252.3,87,252.6,86.5,252.6z M65.4,250.6h20.3l4.8-21.5H60.6
				L65.4,250.6z"/>
		</g>
		<g>
			<path class="st3" d="M192.8,252.6h-21.9c-0.5,0-0.9-0.3-1-0.8l-2.6-11.8c-0.1-0.5,0.2-1.1,0.8-1.2c0.5-0.1,1.1,0.2,1.2,0.8
				l2.4,11H192l4.8-21.5h-29.9l1.4,6.3c0.1,0.5-0.2,1.1-0.8,1.2c-0.5,0.1-1.1-0.2-1.2-0.8l-1.7-7.5c-0.1-0.3,0-0.6,0.2-0.8
				c0.2-0.2,0.5-0.4,0.8-0.4H198c0.3,0,0.6,0.1,0.8,0.4c0.2,0.2,0.3,0.5,0.2,0.8l-5.2,23.5C193.7,252.3,193.3,252.6,192.8,252.6z"/>
		</g>
		<g>
			<path class="st3" d="M86.5,252.1H64.6c-0.2,0-0.4-0.2-0.5-0.4l-1.2-5.6c0-0.1,0-0.3,0.1-0.4c0.1-0.1,0.2-0.2,0.4-0.2h24.4
				c0.2,0,0.3,0.1,0.4,0.2c0.1,0.1,0.1,0.3,0.1,0.4l-1.2,5.6C87,251.9,86.8,252.1,86.5,252.1z M65,251.1h21.1l1-4.6H64L65,251.1z"/>
		</g>
		<g>
			<path class="st3" d="M192.8,252.1h-21.9c-0.2,0-0.4-0.2-0.5-0.4l-1.2-5.6c0-0.1,0-0.3,0.1-0.4c0.1-0.1,0.2-0.2,0.4-0.2H194
				c0.2,0,0.3,0.1,0.4,0.2c0.1,0.1,0.1,0.3,0.1,0.4l-1.2,5.6C193.2,251.9,193,252.1,192.8,252.1z M171.3,251.1h21.1l1-4.6h-23.2
				L171.3,251.1z"/>
		</g>
		<g>
			<path class="st3" d="M213.7,80h-170c-0.6,0-1-0.4-1-1V9.6c0-3.4,2.8-6.2,6.2-6.2h159.5c3.4,0,6.2,2.8,6.2,6.2v26.7
				c0,0.6-0.4,1-1,1s-1-0.4-1-1V9.6c0-2.3-1.9-4.2-4.2-4.2H48.9c-2.3,0-4.2,1.9-4.2,4.2V78h168V50.5c0-0.6,0.4-1,1-1s1,0.4,1,1V79
				C214.7,79.5,214.3,80,213.7,80z"/>
		</g>
		<g>
			<path class="st3" d="M213.7,46.3c-0.6,0-1-0.4-1-1v-3.6c0-0.6,0.4-1,1-1s1,0.4,1,1v3.6C214.7,45.8,214.3,46.3,213.7,46.3z"/>
		</g>
		<path class="st2" d="M103.7,9.6h96.9c0,6,4.9,10.9,10.9,10.9v42.3c-6,0-10.9,4.9-10.9,10.9H62.8c0-6-4.9-10.9-10.9-10.9V20.5
			c6,0,10.9-4.9,10.9-10.9h29.5H103.7z"/>
		<path class="st2" d="M51.9,183.7v-14.1c6,0,10.9-4.9,10.9-10.9h137.8c0,6,4.9,10.9,10.9,10.9V212c-6,0-10.9,4.9-10.9,10.9H62.8
			c0-6-4.9-10.9-10.9-10.9V190V183.7z"/>
		<g>
			<path class="st3" d="M197.6,74.2H59.8c-0.3,0-0.5-0.2-0.5-0.5c0-5.7-4.7-10.4-10.4-10.4c-0.3,0-0.5-0.2-0.5-0.5V20.5
				c0-0.3,0.2-0.5,0.5-0.5c5.7,0,10.4-4.7,10.4-10.4c0-0.3,0.2-0.5,0.5-0.5h29.5c0.3,0,0.5,0.2,0.5,0.5s-0.2,0.5-0.5,0.5h-29
				C60,16,55.3,20.8,49.4,21v41.3c5.9,0.3,10.6,5,10.9,10.9h136.8c0.3-5.9,5-10.6,10.9-10.9V21c-5.9-0.3-10.6-5-10.9-10.9h-96.4
				c-0.3,0-0.5-0.2-0.5-0.5s0.2-0.5,0.5-0.5h96.9c0.3,0,0.5,0.2,0.5,0.5c0,5.7,4.7,10.4,10.4,10.4c0.3,0,0.5,0.2,0.5,0.5v42.3
				c0,0.3-0.2,0.5-0.5,0.5c-5.7,0-10.4,4.7-10.4,10.4C198.1,74,197.9,74.2,197.6,74.2z"/>
		</g>
		<circle class="st2" cx="54.4" cy="12.6" r="3"/>
		<circle class="st2" cx="54.4" cy="70.8" r="3"/>
		<circle class="st2" cx="208" cy="70.8" r="3"/>
		<circle class="st2" cx="54.4" cy="87.2" r="3"/>
		<circle class="st2" cx="54.4" cy="145.3" r="3"/>
		<circle class="st2" cx="208" cy="87.2" r="3"/>
		<circle class="st2" cx="208" cy="145.3" r="3"/>
		<circle class="st2" cx="54.4" cy="161.7" r="3"/>
		<circle class="st2" cx="54.4" cy="219.9" r="3"/>
		<circle class="st2" cx="208" cy="161.7" r="3"/>
		<circle class="st2" cx="208" cy="219.9" r="3"/>
		<g>
			<polygon class="st4" points="156.3,48.7 101.1,48.7 95.9,34.6 161.6,34.6 			"/>
			<path class="st3" d="M156.3,49.8h-55.3c-0.4,0-0.8-0.3-0.9-0.7L94.9,35c-0.1-0.3-0.1-0.7,0.1-0.9c0.2-0.3,0.5-0.4,0.8-0.4h65.7
				c0.3,0,0.6,0.2,0.8,0.4c0.2,0.3,0.2,0.6,0.1,0.9l-5.2,14.1C157.1,49.5,156.7,49.8,156.3,49.8z M101.8,47.8h53.9l4.5-12.1H97.3
				L101.8,47.8z"/>
		</g>
		<g>
			<path class="st3" d="M159.1,42.2H98.5c-0.3,0-0.5-0.2-0.5-0.5s0.2-0.5,0.5-0.5h60.6c0.3,0,0.5,0.2,0.5,0.5S159.4,42.2,159.1,42.2
				z"/>
		</g>
		<g>
			<path class="st3" d="M51.9,16.1c-1.9,0-3.5-1.6-3.5-3.5s1.6-3.5,3.5-3.5s3.5,1.6,3.5,3.5S53.8,16.1,51.9,16.1z M51.9,10.1
				c-1.4,0-2.5,1.1-2.5,2.5s1.1,2.5,2.5,2.5s2.5-1.1,2.5-2.5S53.2,10.1,51.9,10.1z"/>
		</g>
		<g>
			<path class="st3" d="M51.9,74.2c-1.9,0-3.5-1.6-3.5-3.5s1.6-3.5,3.5-3.5s3.5,1.6,3.5,3.5S53.8,74.2,51.9,74.2z M51.9,68.3
				c-1.4,0-2.5,1.1-2.5,2.5s1.1,2.5,2.5,2.5s2.5-1.1,2.5-2.5S53.2,68.3,51.9,68.3z"/>
		</g>
		<circle class="st2" cx="208" cy="12.6" r="3"/>
		<g>
			<path class="st3" d="M205.5,16.1c-1.9,0-3.5-1.6-3.5-3.5s1.6-3.5,3.5-3.5s3.5,1.6,3.5,3.5S207.4,16.1,205.5,16.1z M205.5,10.1
				c-1.4,0-2.5,1.1-2.5,2.5s1.1,2.5,2.5,2.5s2.5-1.1,2.5-2.5S206.9,10.1,205.5,10.1z"/>
		</g>
		<g>
			<path class="st3" d="M205.5,74.2c-1.9,0-3.5-1.6-3.5-3.5s1.6-3.5,3.5-3.5s3.5,1.6,3.5,3.5S207.4,74.2,205.5,74.2z M205.5,68.3
				c-1.4,0-2.5,1.1-2.5,2.5s1.1,2.5,2.5,2.5s2.5-1.1,2.5-2.5S206.9,68.3,205.5,68.3z"/>
		</g>
		<g>
			<path class="st3" d="M54,15.2c-0.1,0-0.3,0-0.4-0.1l-4.2-4.2c-0.2-0.2-0.2-0.5,0-0.7s0.5-0.2,0.7,0l4.2,4.2
				c0.2,0.2,0.2,0.5,0,0.7C54.2,15.1,54.1,15.2,54,15.2z"/>
		</g>
		<g>
			<path class="st3" d="M54,73.4c-0.1,0-0.3,0-0.4-0.1l-4.2-4.2c-0.2-0.2-0.2-0.5,0-0.7s0.5-0.2,0.7,0l4.2,4.2
				c0.2,0.2,0.2,0.5,0,0.7C54.2,73.3,54.1,73.4,54,73.4z"/>
		</g>
		<g>
			<path class="st3" d="M207.6,15.2c-0.1,0-0.3,0-0.4-0.1l-4.2-4.2c-0.2-0.2-0.2-0.5,0-0.7s0.5-0.2,0.7,0l4.2,4.2
				c0.2,0.2,0.2,0.5,0,0.7C207.9,15.1,207.7,15.2,207.6,15.2z"/>
		</g>
		<g>
			<path class="st3" d="M207.6,73.4c-0.1,0-0.3,0-0.4-0.1l-4.2-4.2c-0.2-0.2-0.2-0.5,0-0.7s0.5-0.2,0.7,0l4.2,4.2
				c0.2,0.2,0.2,0.5,0,0.7C207.9,73.3,207.7,73.4,207.6,73.4z"/>
		</g>
		<g>
			<path class="st3" d="M213.7,154.5h-170c-0.6,0-1-0.4-1-1v-30.2c0-0.6,0.4-1,1-1s1,0.4,1,1v29.2h168V80h-168v37.2c0,0.6-0.4,1-1,1
				s-1-0.4-1-1V79c0-0.6,0.4-1,1-1h170c0.6,0,1,0.4,1,1v74.5C214.7,154.1,214.3,154.5,213.7,154.5z"/>
		</g>
		<g>
			<path class="st5" d="M208.5,95.1v42.3c-6,0-10.9,4.9-10.9,10.9H59.8c0-6-4.9-10.9-10.9-10.9V95.1c6,0,10.9-4.9,10.9-10.9h137.8
				C197.6,90.2,202.5,95.1,208.5,95.1z"/>
			<path class="st3" d="M197.6,148.8H59.8c-0.3,0-0.5-0.2-0.5-0.5c0-5.7-4.7-10.4-10.4-10.4c-0.3,0-0.5-0.2-0.5-0.5V95.1
				c0-0.3,0.2-0.5,0.5-0.5c5.7,0,10.4-4.7,10.4-10.4c0-0.3,0.2-0.5,0.5-0.5h137.8c0.3,0,0.5,0.2,0.5,0.5c0,5.7,4.7,10.4,10.4,10.4
				c0.3,0,0.5,0.2,0.5,0.5v42.3c0,0.3-0.2,0.5-0.5,0.5c-5.7,0-10.4,4.7-10.4,10.4C198.1,148.6,197.9,148.8,197.6,148.8z M60.3,147.8
				h136.8c0.3-5.9,5-10.6,10.9-10.9V95.6c-5.9-0.3-10.6-5-10.9-10.9H60.3c-0.3,5.9-5,10.6-10.9,10.9v41.3
				C55.3,137.2,60,141.9,60.3,147.8z"/>
		</g>
		<polygon class="st6" points="133.2,123.3 104.6,123.3 99.4,109.2 165.1,109.2 159.8,123.3 139.5,123.3 		"/>
		<g>
			<path class="st3" d="M159.1,116.7H98.5c-0.3,0-0.5-0.2-0.5-0.5s0.2-0.5,0.5-0.5h60.6c0.3,0,0.5,0.2,0.5,0.5
				S159.4,116.7,159.1,116.7z"/>
		</g>
		<g>
			<path class="st3" d="M51.9,90.6c-1.9,0-3.5-1.6-3.5-3.5s1.6-3.5,3.5-3.5s3.5,1.6,3.5,3.5S53.8,90.6,51.9,90.6z M51.9,84.7
				c-1.4,0-2.5,1.1-2.5,2.5s1.1,2.5,2.5,2.5s2.5-1.1,2.5-2.5S53.2,84.7,51.9,84.7z"/>
		</g>
		<g>
			<path class="st3" d="M51.9,148.8c-1.9,0-3.5-1.6-3.5-3.5s1.6-3.5,3.5-3.5s3.5,1.6,3.5,3.5S53.8,148.8,51.9,148.8z M51.9,142.9
				c-1.4,0-2.5,1.1-2.5,2.5c0,1.4,1.1,2.5,2.5,2.5s2.5-1.1,2.5-2.5C54.4,144,53.2,142.9,51.9,142.9z"/>
		</g>
		<g>
			<path class="st3" d="M205.5,90.6c-1.9,0-3.5-1.6-3.5-3.5s1.6-3.5,3.5-3.5s3.5,1.6,3.5,3.5S207.4,90.6,205.5,90.6z M205.5,84.7
				c-1.4,0-2.5,1.1-2.5,2.5s1.1,2.5,2.5,2.5s2.5-1.1,2.5-2.5S206.9,84.7,205.5,84.7z"/>
		</g>
		<g>
			<path class="st3" d="M205.5,148.8c-1.9,0-3.5-1.6-3.5-3.5s1.6-3.5,3.5-3.5s3.5,1.6,3.5,3.5S207.4,148.8,205.5,148.8z
				 M205.5,142.9c-1.4,0-2.5,1.1-2.5,2.5c0,1.4,1.1,2.5,2.5,2.5s2.5-1.1,2.5-2.5C208,144,206.9,142.9,205.5,142.9z"/>
		</g>
		<g>
			<path class="st3" d="M54,89.7c-0.1,0-0.3,0-0.4-0.1l-4.2-4.2c-0.2-0.2-0.2-0.5,0-0.7s0.5-0.2,0.7,0l4.2,4.2
				c0.2,0.2,0.2,0.5,0,0.7C54.2,89.7,54.1,89.7,54,89.7z"/>
		</g>
		<g>
			<path class="st3" d="M54,147.9c-0.1,0-0.3,0-0.4-0.1l-4.2-4.2c-0.2-0.2-0.2-0.5,0-0.7s0.5-0.2,0.7,0l4.2,4.2
				c0.2,0.2,0.2,0.5,0,0.7C54.2,147.9,54.1,147.9,54,147.9z"/>
		</g>
		<g>
			<path class="st3" d="M207.6,89.7c-0.1,0-0.3,0-0.4-0.1l-4.2-4.2c-0.2-0.2-0.2-0.5,0-0.7s0.5-0.2,0.7,0l4.2,4.2
				c0.2,0.2,0.2,0.5,0,0.7C207.9,89.7,207.7,89.7,207.6,89.7z"/>
		</g>
		<g>
			<path class="st3" d="M207.6,147.9c-0.1,0-0.3,0-0.4-0.1l-4.2-4.2c-0.2-0.2-0.2-0.5,0-0.7s0.5-0.2,0.7,0l4.2,4.2
				c0.2,0.2,0.2,0.5,0,0.7C207.9,147.9,207.7,147.9,207.6,147.9z"/>
		</g>
		<g>
			<path class="st3" d="M213.7,191.8c-0.6,0-1-0.4-1-1v-3.9c0-0.6,0.4-1,1-1s1,0.4,1,1v3.9C214.7,191.3,214.3,191.8,213.7,191.8z"/>
		</g>
		<g>
			<path class="st3" d="M208.5,229.1H48.9c-3.4,0-6.2-2.8-6.2-6.2v-69.3c0-0.6,0.4-1,1-1h170c0.6,0,1,0.4,1,1v28.1c0,0.6-0.4,1-1,1
				s-1-0.4-1-1v-27.1h-168v68.3c0,2.3,1.9,4.2,4.2,4.2h159.5c2.3,0,4.2-1.9,4.2-4.2v-24c0-0.6,0.4-1,1-1s1,0.4,1,1v24
				C214.7,226.3,211.9,229.1,208.5,229.1z"/>
		</g>
		<g>
			<path class="st3" d="M197.6,223.3H59.8c-0.3,0-0.5-0.2-0.5-0.5c0-5.7-4.7-10.4-10.4-10.4c-0.3,0-0.5-0.2-0.5-0.5V190
				c0-0.3,0.2-0.5,0.5-0.5s0.5,0.2,0.5,0.5v21.5c5.9,0.3,10.6,5,10.9,10.9h136.8c0.3-5.9,5-10.6,10.9-10.9v-41.3
				c-5.9-0.3-10.6-5-10.9-10.9H60.3c-0.3,5.9-5,10.6-10.9,10.9v13.6c0,0.3-0.2,0.5-0.5,0.5s-0.5-0.2-0.5-0.5v-14.1
				c0-0.3,0.2-0.5,0.5-0.5c5.7,0,10.4-4.7,10.4-10.4c0-0.3,0.2-0.5,0.5-0.5h137.8c0.3,0,0.5,0.2,0.5,0.5c0,5.7,4.7,10.4,10.4,10.4
				c0.3,0,0.5,0.2,0.5,0.5V212c0,0.3-0.2,0.5-0.5,0.5c-5.7,0-10.4,4.7-10.4,10.4C198.1,223.1,197.9,223.3,197.6,223.3z"/>
		</g>
		<g>
			<polygon class="st4" points="156.3,197.8 101.1,197.8 95.9,183.7 161.6,183.7 			"/>
			<path class="st3" d="M156.3,198.8h-55.3c-0.4,0-0.8-0.3-0.9-0.7l-5.2-14.1c-0.1-0.3-0.1-0.7,0.1-0.9c0.2-0.3,0.5-0.4,0.8-0.4
				h65.7c0.3,0,0.6,0.2,0.8,0.4c0.2,0.3,0.2,0.6,0.1,0.9l-5.2,14.1C157.1,198.6,156.7,198.8,156.3,198.8z M101.8,196.8h53.9
				l4.5-12.1H97.3L101.8,196.8z"/>
		</g>
		<g>
			<path class="st3" d="M159.1,191.3h-24c-0.3,0-0.5-0.2-0.5-0.5s0.2-0.5,0.5-0.5h24c0.3,0,0.5,0.2,0.5,0.5S159.4,191.3,159.1,191.3
				z"/>
		</g>
		<g>
			<path class="st3" d="M127.6,191.3H98.5c-0.3,0-0.5-0.2-0.5-0.5s0.2-0.5,0.5-0.5h29.1c0.3,0,0.5,0.2,0.5,0.5
				S127.9,191.3,127.6,191.3z"/>
		</g>
		<g>
			<path class="st3" d="M51.9,165.2c-1.9,0-3.5-1.6-3.5-3.5s1.6-3.5,3.5-3.5s3.5,1.6,3.5,3.5S53.8,165.2,51.9,165.2z M51.9,159.2
				c-1.4,0-2.5,1.1-2.5,2.5s1.1,2.5,2.5,2.5s2.5-1.1,2.5-2.5S53.2,159.2,51.9,159.2z"/>
		</g>
		<g>
			<path class="st3" d="M51.9,223.3c-1.9,0-3.5-1.6-3.5-3.5s1.6-3.5,3.5-3.5s3.5,1.6,3.5,3.5S53.8,223.3,51.9,223.3z M51.9,217.4
				c-1.4,0-2.5,1.1-2.5,2.5s1.1,2.5,2.5,2.5s2.5-1.1,2.5-2.5S53.2,217.4,51.9,217.4z"/>
		</g>
		<g>
			<path class="st3" d="M205.5,165.2c-1.9,0-3.5-1.6-3.5-3.5s1.6-3.5,3.5-3.5s3.5,1.6,3.5,3.5S207.4,165.2,205.5,165.2z
				 M205.5,159.2c-1.4,0-2.5,1.1-2.5,2.5s1.1,2.5,2.5,2.5s2.5-1.1,2.5-2.5S206.9,159.2,205.5,159.2z"/>
		</g>
		<g>
			<path class="st3" d="M205.5,223.3c-1.9,0-3.5-1.6-3.5-3.5s1.6-3.5,3.5-3.5s3.5,1.6,3.5,3.5S207.4,223.3,205.5,223.3z
				 M205.5,217.4c-1.4,0-2.5,1.1-2.5,2.5s1.1,2.5,2.5,2.5s2.5-1.1,2.5-2.5S206.9,217.4,205.5,217.4z"/>
		</g>
		<g>
			<path class="st3" d="M54,164.3c-0.1,0-0.3,0-0.4-0.1l-4.2-4.2c-0.2-0.2-0.2-0.5,0-0.7s0.5-0.2,0.7,0l4.2,4.2
				c0.2,0.2,0.2,0.5,0,0.7C54.2,164.2,54.1,164.3,54,164.3z"/>
		</g>
		<g>
			<path class="st3" d="M54,222.5c-0.1,0-0.3,0-0.4-0.1l-4.2-4.2c-0.2-0.2-0.2-0.5,0-0.7s0.5-0.2,0.7,0l4.2,4.2
				c0.2,0.2,0.2,0.5,0,0.7C54.2,222.4,54.1,222.5,54,222.5z"/>
		</g>
		<g>
			<path class="st3" d="M207.6,164.3c-0.1,0-0.3,0-0.4-0.1l-4.2-4.2c-0.2-0.2-0.2-0.5,0-0.7s0.5-0.2,0.7,0l4.2,4.2
				c0.2,0.2,0.2,0.5,0,0.7C207.9,164.2,207.7,164.3,207.6,164.3z"/>
		</g>
		<g>
			<path class="st3" d="M207.6,222.5c-0.1,0-0.3,0-0.4-0.1l-4.2-4.2c-0.2-0.2-0.2-0.5,0-0.7s0.5-0.2,0.7,0l4.2,4.2
				c0.2,0.2,0.2,0.5,0,0.7C207.9,222.4,207.7,222.5,207.6,222.5z"/>
		</g>
		<g>
			<path class="st3" d="M156.3,124.3H136c-0.6,0-1-0.4-1-1s0.4-1,1-1h19.6l4.5-12.1H97.3l4.5,12.1h28c0.6,0,1,0.4,1,1s-0.4,1-1,1
				h-28.7c-0.4,0-0.8-0.3-0.9-0.7l-5.2-14.1c-0.1-0.3-0.1-0.7,0.1-0.9c0.2-0.3,0.5-0.4,0.8-0.4h65.7c0.3,0,0.6,0.2,0.8,0.4
				c0.2,0.3,0.2,0.6,0.1,0.9l-5.2,14.1C157.1,124,156.7,124.3,156.3,124.3z"/>
		</g>
	</g>
	<g>
		<path class="st3" d="M223.7,119.2c-1.6,0-3-1.3-3-3s1.3-3,3-3s3,1.3,3,3S225.3,119.2,223.7,119.2z M223.7,114.3c-1.1,0-2,0.9-2,2
			c0,1.1,0.9,2,2,2s2-0.9,2-2C225.7,115.2,224.8,114.3,223.7,114.3z"/>
	</g>
	<g>
		<path class="st6" d="M34,65.5c-1.6,0-3-1.3-3-3s1.3-3,3-3s3,1.3,3,3S35.6,65.5,34,65.5z M34,60.6c-1.1,0-2,0.9-2,2
			c0,1.1,0.9,2,2,2s2-0.9,2-2C36,61.4,35.1,60.6,34,60.6z"/>
	</g>
	<g>
		<path class="st3" d="M33.2,167.9c0,0-0.1,0-0.1,0l-1-0.3c-0.3-0.1-0.4-0.4-0.3-0.6c0.1-0.3,0.3-0.4,0.6-0.3l0.1,0l-0.5-1.8
			c0-0.1,0-0.2,0-0.3l0.5-1.8l-1.8,0.5c-0.1,0-0.2,0-0.3,0l-1.8-0.5l0.5,1.8c0,0.1,0,0.2,0,0.3l-0.5,1.8l1.8-0.5
			c0.3-0.1,0.5,0.1,0.6,0.3c0.1,0.3-0.1,0.5-0.3,0.6l-2.7,0.8c-0.2,0.1-0.4,0-0.5-0.1c-0.1-0.1-0.2-0.3-0.1-0.5l0.8-2.6l-0.8-2.6
			c-0.1-0.2,0-0.4,0.1-0.5c0.1-0.1,0.3-0.2,0.5-0.1l2.6,0.8l2.6-0.8c0.2-0.1,0.4,0,0.5,0.1s0.2,0.3,0.1,0.5l-0.8,2.6l0.8,2.6
			c0.1,0.2,0,0.4-0.1,0.5C33.5,167.8,33.3,167.9,33.2,167.9z"/>
	</g>
	<g>
		<path class="st4" d="M226.4,148.5c0,0-0.1,0-0.1,0l-1-0.3c-0.3-0.1-0.4-0.4-0.3-0.6c0.1-0.3,0.3-0.4,0.6-0.3l0.1,0l-0.5-1.8
			c0-0.1,0-0.2,0-0.3l0.5-1.8l-1.8,0.5c-0.1,0-0.2,0-0.3,0l-1.8-0.5l0.5,1.8c0,0.1,0,0.2,0,0.3l-0.5,1.8l1.8-0.5
			c0.3-0.1,0.5,0.1,0.6,0.3c0.1,0.3-0.1,0.5-0.3,0.6l-2.7,0.8c-0.2,0.1-0.4,0-0.5-0.1s-0.2-0.3-0.1-0.5l0.8-2.6l-0.8-2.6
			c-0.1-0.2,0-0.4,0.1-0.5s0.3-0.2,0.5-0.1l2.6,0.8l2.6-0.8c0.2-0.1,0.4,0,0.5,0.1s0.2,0.3,0.1,0.5l-0.8,2.6l0.8,2.6
			c0.1,0.2,0,0.4-0.1,0.5C226.7,148.5,226.5,148.5,226.4,148.5z"/>
	</g>
	<g>
		<g>
			<path class="st6" d="M225.4,63.8c-0.3,0-0.5-0.2-0.5-0.5v-2.4c0-0.3,0.2-0.5,0.5-0.5s0.5,0.2,0.5,0.5v2.4
				C225.9,63.6,225.7,63.8,225.4,63.8z"/>
		</g>
		<g>
			<path class="st6" d="M225.4,69.7c-0.3,0-0.5-0.2-0.5-0.5v-2.4c0-0.3,0.2-0.5,0.5-0.5s0.5,0.2,0.5,0.5v2.4
				C225.9,69.4,225.7,69.7,225.4,69.7z"/>
		</g>
		<g>
			<path class="st6" d="M229.5,65.5h-2.4c-0.3,0-0.5-0.2-0.5-0.5s0.2-0.5,0.5-0.5h2.4c0.3,0,0.5,0.2,0.5,0.5S229.8,65.5,229.5,65.5z
				"/>
		</g>
		<g>
			<path class="st6" d="M223.7,65.5h-2.4c-0.3,0-0.5-0.2-0.5-0.5s0.2-0.5,0.5-0.5h2.4c0.3,0,0.5,0.2,0.5,0.5S224,65.5,223.7,65.5z"
				/>
		</g>
	</g>
	<g>
		<g>
			<path class="st4" d="M27.6,107.7c-0.3,0-0.5-0.2-0.5-0.5v-2.4c0-0.3,0.2-0.5,0.5-0.5s0.5,0.2,0.5,0.5v2.4
				C28.1,107.5,27.8,107.7,27.6,107.7z"/>
		</g>
		<g>
			<path class="st4" d="M27.6,113.5c-0.3,0-0.5-0.2-0.5-0.5v-2.4c0-0.3,0.2-0.5,0.5-0.5s0.5,0.2,0.5,0.5v2.4
				C28.1,113.3,27.8,113.5,27.6,113.5z"/>
		</g>
		<g>
			<path class="st4" d="M31.7,109.4h-2.4c-0.3,0-0.5-0.2-0.5-0.5s0.2-0.5,0.5-0.5h2.4c0.3,0,0.5,0.2,0.5,0.5S32,109.4,31.7,109.4z"
				/>
		</g>
		<g>
			<path class="st4" d="M25.8,109.4h-2.4c-0.3,0-0.5-0.2-0.5-0.5s0.2-0.5,0.5-0.5h2.4c0.3,0,0.5,0.2,0.5,0.5S26.1,109.4,25.8,109.4z
				"/>
		</g>
	</g>
	<g>
		<g>
			<path class="st2" d="M225.4,189.6c-0.3,0-0.5-0.2-0.5-0.5v-2.4c0-0.3,0.2-0.5,0.5-0.5s0.5,0.2,0.5,0.5v2.4
				C225.9,189.4,225.7,189.6,225.4,189.6z"/>
		</g>
		<g>
			<path class="st2" d="M225.4,195.4c-0.3,0-0.5-0.2-0.5-0.5v-2.4c0-0.3,0.2-0.5,0.5-0.5s0.5,0.2,0.5,0.5v2.4
				C225.9,195.2,225.7,195.4,225.4,195.4z"/>
		</g>
		<g>
			<path class="st2" d="M229.5,191.3h-2.4c-0.3,0-0.5-0.2-0.5-0.5s0.2-0.5,0.5-0.5h2.4c0.3,0,0.5,0.2,0.5,0.5
				S229.8,191.3,229.5,191.3z"/>
		</g>
		<g>
			<path class="st2" d="M223.7,191.3h-2.4c-0.3,0-0.5-0.2-0.5-0.5s0.2-0.5,0.5-0.5h2.4c0.3,0,0.5,0.2,0.5,0.5S224,191.3,223.7,191.3
				z"/>
		</g>
	</g>
</g>
</svg>
