<?xml version="1.0" encoding="utf-8"?>
<!-- Generator: Adobe Illustrator 22.1.0, SVG Export Plug-In . SVG Version: 6.00 Build 0)  -->
<svg version="1.1" id="Layer_1" xmlns="http://www.w3.org/2000/svg" xmlns:xlink="http://www.w3.org/1999/xlink" x="0px" y="0px"
	 viewBox="0 0 256 256" style="enable-background:new 0 0 256 256;" xml:space="preserve">
<style type="text/css">
	.st0{fill:#DBFDFF;}
	.st1{fill:#FFFFFF;}
	.st2{fill:#FEBE7F;}
	.st3{fill:#9FEAFF;}
	.st4{fill:#FF8584;}
	.st5{fill:#48386A;}
</style>
<g>
	<path class="st0" d="M208.4,148c1-3.9,1.5-8.1,1.5-12.3c0-10.3-3.1-19.9-8.4-27.9c11.4-9.3,18.6-23.4,18.6-39.2
		c0-27.9-22.6-50.5-50.5-50.5c-22.4,0-41.4,14.6-48,34.9c-9.1-8.7-21.4-14.1-35-14.1C58.6,38.8,36,61.4,36,89.3
		c0,11.8,4.1,22.6,10.8,31.2C29.8,128.6,18,146,18,166.2c0,24.6,17.6,45.1,40.9,49.6c6.8,20,25.6,34.3,47.9,34.3
		c17,0,32.1-8.4,41.2-21.3c8.8,7.4,20.1,11.9,32.5,11.9c27.9,0,50.5-22.6,50.5-50.5C231,172.5,222.1,157,208.4,148z M108.3,134.9
		c0.2-0.1,0.4-0.2,0.7-0.3c0,0.4,0,0.7,0,1.1c0,0,0,0,0,0.1C108.7,135.5,108.5,135.2,108.3,134.9z"/>
	<g>
		<path class="st1" d="M105.5,35c5.8-3.5,12.6-5.5,19.9-5.5c10.7,0,20.4,4.3,27.5,11.4c1.6,1.6,3,3.3,4.3,5.1L86.6,86.7V68.3
			c0-9.8,3.6-18.8,9.7-25.6L105.5,35z"/>
		<path class="st1" d="M150.8,125.1l13.4-7.7v51.9H86.6v-8.8c1.6,0.2,3.3-0.2,4.8-1.1l51.3-29.6L150.8,125.1z"/>
		<path class="st1" d="M171.6,70.6c0,2.8-1.5,5.6-4.1,7.1l-3.3,1.9l-72.8,42c-1.5,0.9-3.2,1.2-4.8,1.1c-2.5-0.2-4.9-1.7-6.3-4
			c-0.7-1.3-1.1-2.7-1.1-4.1c0-2.8,1.5-5.6,4.1-7.1l3.3-1.9l3.5-2l63.1-36.4l6.3-3.6c1.4-0.8,2.9-1.1,4.3-1.1
			c2.7,0.1,5.3,1.5,6.8,4.1C171.3,67.8,171.6,69.2,171.6,70.6z"/>
		<path class="st1" d="M142.6,129.8l-51.3,29.6c-1.5,0.9-3.2,1.2-4.8,1.1c-2.5-0.2-4.9-1.7-6.3-4c-0.7-1.3-1.1-2.7-1.1-4.1
			c0-2.8,1.5-5.6,4.1-7.1l3.3-1.9l72.8-42c1.5-0.9,3.2-1.2,4.8-1.1c2.5,0.2,4.9,1.7,6.3,4c0.7,1.3,1.1,2.7,1.1,4.1
			c0,2.8-1.5,5.6-4.1,7.1l-3.3,1.9l-13.4,7.7L142.6,129.8z"/>
		<path class="st1" d="M171.6,169.2V180c0,4.2-1.3,8-3.5,11.2c-3.6,5.3-9.6,8.7-16.5,8.7H99.7c-6.8,0-12.9-3.4-16.5-8.7
			c-2.2-3.2-3.5-7.1-3.5-11.2v-10.8H171.6z"/>
		<rect x="97.5" y="200" class="st1" width="55.8" height="15.3"/>
		<path class="st1" d="M141.1,247.3c-4.5,3-9.9,4.7-15.8,4.7c-13.3,0-24.7-9.1-27.9-21.5h55.8c-1,4-3.1,7.6-5.6,10.7L141.1,247.3z"
			/>
		<path class="st2" d="M175.1,89.5c0,2.8-1.5,5.6-4.1,7.1l-3.3,1.9l-72.8,42c-1.5,0.9-3.2,1.2-4.8,1.1c-2.5-0.2-4.9-1.6-6.3-4
			c-0.7-1.3-1.1-2.7-1.1-4.1c0-2.8,1.5-5.6,4.1-7.1l3.3-1.9l72.8-42c1.5-0.9,3.2-1.2,4.8-1.1c2.5,0.2,4.9,1.7,6.3,4
			C174.8,86.7,175.1,88.1,175.1,89.5z"/>
		<path class="st2" d="M141.8,56.8L160.6,46l1-0.6c3.9-2.3,8.9-0.9,11.1,3c0.7,1.3,1.1,2.7,1.1,4.1c0,2.8-1.5,5.6-4.1,7.1l-2.7,1.6
			l-4.1,2.4l-6.3,3.6l-63.1,36.4c-1.1,0.6-2.3,1-3.5,1.1c-3,0.2-6-1.3-7.6-4.1c-0.7-1.3-1.1-2.7-1.1-4.1c0-2.8,1.5-5.6,4.1-7.1
			l4.6-2.7L141.8,56.8L141.8,56.8z"/>
		<path class="st3" d="M134,178h41.2v2.1c0,4.2-1.3,8-3.5,11.2H86.8c-2.2-3.2-3.5-7.1-3.5-11.2V178h42.1H134z"/>
		<rect x="101" y="215.3" class="st4" width="55.8" height="15.3"/>
		<g>
			<path class="st5" d="M86.6,106.6c-0.2,0-0.3,0-0.5-0.1c-0.3-0.2-0.5-0.5-0.5-0.9v-1c0-0.5,0.4-1,0.9-1c1.1-0.1,2.1-0.4,3.1-0.9
				l0,0c0.5-0.3,1.1-0.1,1.4,0.4c0.3,0.5,0.1,1.1-0.4,1.4c0,0,0,0,0,0l-3.5,2C86.9,106.5,86.7,106.6,86.6,106.6z"/>
		</g>
		<g>
			<path class="st5" d="M86.6,87.7c-0.2,0-0.3,0-0.5-0.1c-0.3-0.2-0.5-0.5-0.5-0.9V68.3c0-9.7,3.5-19,9.9-26.3
				c0.4-0.4,1-0.5,1.4-0.1c0.4,0.4,0.5,1,0.1,1.4c-6.1,6.9-9.4,15.8-9.4,25V85l68.1-39.3c-1.1-1.4-2.3-2.8-3.6-4.1
				c-7.1-7.1-16.6-11.1-26.7-11.1c-6.8,0-13.5,1.8-19.4,5.3c-0.5,0.3-1.1,0.1-1.4-0.3c-0.3-0.5-0.1-1.1,0.3-1.4
				c6.1-3.7,13.2-5.6,20.4-5.6c10.6,0,20.6,4.1,28.2,11.7c1.6,1.6,3.1,3.4,4.4,5.3c0.2,0.2,0.2,0.5,0.2,0.8
				c-0.1,0.3-0.2,0.5-0.5,0.6L87.1,87.6C86.9,87.7,86.7,87.7,86.6,87.7z"/>
		</g>
		<g>
			<path class="st5" d="M159.4,64.5c-0.3,0-0.7-0.2-0.9-0.5c-0.3-0.5-0.1-1.1,0.4-1.4l4.1-2.4c0.3-0.2,0.6-0.2,0.9,0
				c0.3,0.1,0.5,0.4,0.6,0.7c0.1,0.4,0.2,0.9,0.2,1.4c0,0.3,0,0.6-0.2,0.8c-0.2,0.2-0.5,0.3-0.8,0.3c-1.3-0.1-2.6,0.3-3.8,0.9
				C159.8,64.5,159.6,64.5,159.4,64.5z"/>
		</g>
		<g>
			<path class="st5" d="M86.6,125.5c-0.2,0-0.3,0-0.5-0.1c-0.3-0.2-0.5-0.5-0.5-0.9v-1.8c0-0.3,0.1-0.6,0.3-0.7
				c0.2-0.2,0.5-0.3,0.8-0.3c1.5,0.1,2.9-0.2,4.2-0.9l72.8-42c0.3-0.2,0.7-0.2,1,0c0.3,0.2,0.5,0.5,0.5,0.9v1.8
				c0,0.3-0.1,0.6-0.3,0.7s-0.5,0.3-0.8,0.3c-1.5-0.1-2.9,0.2-4.2,0.9l-72.8,42C86.9,125.4,86.7,125.5,86.6,125.5z"/>
		</g>
		<g>
			<path class="st5" d="M86.6,144.4c-0.2,0-0.3,0-0.5-0.1c-0.3-0.2-0.5-0.5-0.5-0.9v-1.8c0-0.3,0.1-0.6,0.3-0.7s0.5-0.3,0.8-0.3
				c1.5,0.1,2.9-0.2,4.2-0.9l72.8-42c0.3-0.2,0.7-0.2,1,0c0.3,0.2,0.5,0.5,0.5,0.9v1.8c0,0.3-0.1,0.6-0.3,0.7s-0.5,0.3-0.8,0.3
				c-1.5-0.1-2.9,0.2-4.2,0.9l-72.8,42C86.9,144.3,86.7,144.4,86.6,144.4z"/>
		</g>
		<g>
			<path class="st5" d="M164.2,170.2H86.6c-0.6,0-1-0.4-1-1v-8.8c0-0.3,0.1-0.6,0.3-0.7s0.5-0.3,0.8-0.3c1.5,0.1,2.9-0.2,4.2-0.9
				l51.3-29.6c0.5-0.3,1.1-0.1,1.4,0.4c0.3,0.5,0.1,1.1-0.4,1.4l-51.3,29.6c-1.3,0.8-2.8,1.2-4.3,1.2v6.7h75.6v-49.1l-11.9,6.9
				c-0.5,0.3-1.1,0.1-1.4-0.4s-0.1-1.1,0.4-1.4l13.4-7.7c0.3-0.2,0.7-0.2,1,0c0.3,0.2,0.5,0.5,0.5,0.9v51.9
				C165.2,169.8,164.8,170.2,164.2,170.2z"/>
		</g>
		<g>
			<path class="st5" d="M87.3,123.7c-0.3,0-0.6,0-0.9,0c-2.9-0.3-5.6-2-7.1-4.5c-0.8-1.4-1.2-3-1.2-4.6c0-3.3,1.8-6.3,4.6-7.9l6.8-4
				l69.3-40c1.5-0.9,3.2-1.3,4.9-1.2c3.2,0.1,6,1.8,7.6,4.6c0.8,1.4,1.2,3,1.2,4.6c0,3.3-1.8,6.3-4.6,7.9l-3.3,1.9l-72.8,42
				C90.5,123.3,88.9,123.7,87.3,123.7z M163.4,63.4c-1.2,0-2.4,0.3-3.5,0.9l-76.2,44c-2.2,1.3-3.6,3.6-3.6,6.2c0,1.3,0.3,2.5,1,3.6
				c1.2,2,3.2,3.3,5.5,3.5c1.5,0.1,2.9-0.2,4.2-0.9l76.2-44c2.2-1.3,3.6-3.6,3.6-6.2c0-1.3-0.3-2.5-1-3.6c-1.2-2.2-3.5-3.5-5.9-3.6
				C163.6,63.4,163.5,63.4,163.4,63.4z"/>
		</g>
		<g>
			<path class="st5" d="M87.3,142.6c-0.3,0-0.6,0-0.9,0c-2.9-0.3-5.6-1.9-7.1-4.5c-0.8-1.4-1.2-3-1.2-4.6c0-3.3,1.8-6.3,4.6-7.9
				l3.3-1.9l72.8-42c1.7-1,3.5-1.4,5.4-1.2c3,0.3,5.6,2,7.1,4.5c0.8,1.4,1.2,3,1.2,4.6c0,3.3-1.8,6.3-4.6,7.9l-3.3,1.9l-72.8,42
				C90.5,142.2,88.9,142.6,87.3,142.6z M163.4,82.3c-1.2,0-2.5,0.3-3.6,1l-76.2,44c-2.2,1.3-3.6,3.6-3.6,6.2c0,1.3,0.3,2.5,1,3.6
				c1.2,2,3.2,3.3,5.5,3.5c1.5,0.1,2.9-0.2,4.2-0.9l76.2-44c2.2-1.3,3.6-3.6,3.6-6.2c0-1.3-0.3-2.5-1-3.6c-1.2-2-3.2-3.3-5.5-3.5
				C163.9,82.3,163.7,82.3,163.4,82.3z"/>
		</g>
		<g>
			<path class="st5" d="M87.3,161.5c-0.3,0-0.6,0-0.9,0c-3-0.3-5.6-2-7.1-4.5c-0.8-1.4-1.2-3-1.2-4.6c0-3.3,1.8-6.3,4.6-7.9l3.3-1.9
				l72.8-42c1.7-1,3.5-1.4,5.4-1.2c3,0.3,5.6,2,7.1,4.5c0.8,1.4,1.2,3,1.2,4.6c0,3.3-1.8,6.3-4.6,7.9l-16.7,9.7
				c-0.5,0.3-1.1,0.1-1.4-0.4s-0.1-1.1,0.4-1.4l16.7-9.7c2.2-1.3,3.6-3.7,3.6-6.2c0-1.3-0.3-2.5-1-3.6c-1.2-2-3.2-3.3-5.5-3.5
				c-1.5-0.1-2.9,0.2-4.2,0.9l-76.2,44c-2.2,1.3-3.6,3.6-3.6,6.2c0,1.3,0.3,2.5,1,3.6c1.2,2,3.2,3.3,5.5,3.5
				c1.5,0.1,2.9-0.2,4.2-0.9l51.3-29.6c0.5-0.3,1.1-0.1,1.4,0.4c0.3,0.5,0.1,1.1-0.4,1.4l-51.3,29.6
				C90.5,161.1,88.9,161.5,87.3,161.5z"/>
		</g>
		<g>
			<path class="st5" d="M86,105.6c-3.3,0-6.3-1.8-8-4.6c-0.8-1.4-1.2-3-1.2-4.6c0-3.3,1.8-6.3,4.6-7.9L137.8,56l0.5,0.9l-0.5-0.9
				l19.8-11.4c4.4-2.5,10-1,12.5,3.3c0.8,1.4,1.2,3,1.2,4.6c0,3.3-1.8,6.3-4.6,7.9l-76.2,44c-1.2,0.7-2.5,1.1-3.9,1.2
				C86.4,105.6,86.2,105.6,86,105.6z M162.2,45.3c-1.2,0-2.4,0.3-3.6,1l-0.9,0.6L82.4,90.3c-2.2,1.3-3.6,3.6-3.6,6.2
				c0,1.3,0.3,2.5,1,3.6c1.4,2.3,4,3.7,6.7,3.6c1.1-0.1,2.1-0.4,3.1-0.9l76.2-44c2.2-1.3,3.6-3.7,3.6-6.2c0-1.3-0.3-2.5-1-3.6
				C167,46.6,164.6,45.3,162.2,45.3z"/>
		</g>
		<g>
			<path class="st5" d="M168.1,191.8H83.3c-0.2,0-0.3-0.1-0.4-0.2c-2.3-3.4-3.6-7.4-3.6-11.5V178c0-0.3,0.2-0.5,0.5-0.5h42.1
				c0.3,0,0.5,0.2,0.5,0.5s-0.2,0.5-0.5,0.5H80.3v1.6c0,3.9,1.1,7.6,3.2,10.7h84.4c2.1-3.2,3.2-6.9,3.2-10.7v-1.6h-40.7
				c-0.3,0-0.5-0.2-0.5-0.5s0.2-0.5,0.5-0.5h41.2c0.3,0,0.5,0.2,0.5,0.5v2.1c0,4.1-1.2,8.1-3.6,11.5
				C168.5,191.7,168.3,191.8,168.1,191.8z"/>
		</g>
		<g>
			<path class="st5" d="M151.7,201H99.7c-6.9,0-13.4-3.4-17.3-9.1c-2.4-3.5-3.6-7.6-3.6-11.8v-10.8c0-0.6,0.4-1,1-1h91.8
				c0.6,0,1,0.4,1,1V180c0,4.2-1.3,8.3-3.6,11.8C165.1,197.5,158.6,201,151.7,201z M80.8,170.2v9.8c0,3.8,1.1,7.5,3.3,10.7
				c3.5,5.2,9.4,8.3,15.7,8.3h51.9c6.3,0,12.1-3.1,15.6-8.3c2.2-3.2,3.3-6.9,3.3-10.7v-9.8H80.8z"/>
		</g>
		<g>
			<path class="st5" d="M153.3,216.3H97.5c-0.6,0-1-0.4-1-1V200c0-0.6,0.4-1,1-1h55.8c0.6,0,1,0.4,1,1v15.3
				C154.3,215.8,153.8,216.3,153.3,216.3z M98.5,214.3h53.8V201H98.5V214.3z"/>
		</g>
		<g>
			<path class="st5" d="M153.3,231.5H97.5c-0.6,0-1-0.4-1-1v-15.3c0-0.6,0.4-1,1-1h55.8c0.6,0,1,0.4,1,1v15.3
				C154.3,231.1,153.8,231.5,153.3,231.5z M98.5,229.5h53.8v-13.3H98.5V229.5z"/>
		</g>
		<g>
			<path class="st5" d="M125.4,253c-13.6,0-25.5-9.1-28.8-22.2c-0.1-0.3,0-0.6,0.2-0.9s0.5-0.4,0.8-0.4h55.8c0.3,0,0.6,0.1,0.8,0.4
				s0.3,0.6,0.2,0.9c-1,3.8-2.9,7.5-5.8,11.1c-0.3,0.4-1,0.5-1.4,0.2c-0.4-0.3-0.5-1-0.2-1.4c2.4-3,4.1-6,5-9.1H98.8
				c3.5,11.5,14.3,19.5,26.6,19.5c5.4,0,10.7-1.6,15.2-4.6c0.5-0.3,1.1-0.2,1.4,0.3s0.2,1.1-0.3,1.4
				C136.8,251.3,131.2,253,125.4,253z"/>
		</g>
		<g>
			<path class="st5" d="M78.9,101c-0.2,0-0.3-0.1-0.4-0.3c-0.1-0.2-0.1-0.5,0.2-0.7L169,48c0.2-0.1,0.5-0.1,0.7,0.2
				c0.1,0.2,0.1,0.5-0.2,0.7L79.2,101C79.1,101,79,101,78.9,101z"/>
		</g>
		<g>
			<path class="st5" d="M150,80.1c-0.2,0-0.3-0.1-0.4-0.3c-0.1-0.2,0-0.5,0.2-0.7l21.1-11.8c0.2-0.1,0.5,0,0.7,0.2
				c0.1,0.2,0,0.5-0.2,0.7L150.2,80C150.2,80,150.1,80.1,150,80.1z"/>
		</g>
		<g>
			<path class="st5" d="M80.2,119.1c-0.2,0-0.3-0.1-0.4-0.3c-0.1-0.2,0-0.5,0.2-0.7l61.5-34.4c0.2-0.1,0.5,0,0.7,0.2
				c0.1,0.2,0,0.5-0.2,0.7l-61.5,34.4C80.4,119.1,80.3,119.1,80.2,119.1z"/>
		</g>
		<g>
			<path class="st5" d="M80.2,138c-0.2,0-0.3-0.1-0.4-0.3c-0.1-0.2-0.1-0.5,0.2-0.7L170.3,85c0.2-0.1,0.5-0.1,0.7,0.2
				c0.1,0.2,0.1,0.5-0.2,0.7L80.5,138C80.4,138,80.3,138,80.2,138z"/>
		</g>
		<g>
			<path class="st5" d="M101.6,144.6c-0.2,0-0.3-0.1-0.4-0.3c-0.1-0.2-0.1-0.5,0.2-0.7l69-39.8c0.2-0.1,0.5-0.1,0.7,0.2
				c0.1,0.2,0.1,0.5-0.2,0.7l-69,39.8C101.7,144.6,101.7,144.6,101.6,144.6z"/>
		</g>
		<g>
			<path class="st5" d="M80.2,156.9c-0.2,0-0.3-0.1-0.4-0.3c-0.1-0.2-0.1-0.5,0.2-0.7l12.2-7c0.2-0.1,0.5-0.1,0.7,0.2
				c0.1,0.2,0.1,0.5-0.2,0.7l-12.2,7C80.4,156.9,80.3,156.9,80.2,156.9z"/>
		</g>
		<g>
			<path class="st5" d="M125.7,15.8c-0.6,0-1-0.4-1-1V4c0-0.6,0.4-1,1-1s1,0.4,1,1v10.8C126.7,15.3,126.2,15.8,125.7,15.8z"/>
		</g>
		<g>
			<path class="st5" d="M87.5,26c-0.3,0-0.5-0.1-0.7-0.3l-8-8.2c-0.4-0.4-0.4-1,0-1.4c0.4-0.4,1-0.4,1.4,0l8,8.2
				c0.4,0.4,0.4,1,0,1.4C88,25.9,87.7,26,87.5,26z"/>
		</g>
		<g>
			<path class="st5" d="M171.6,26c-0.3,0-0.5-0.1-0.7-0.3c-0.4-0.4-0.4-1,0-1.4l8-8.2c0.4-0.4,1-0.4,1.4,0c0.4,0.4,0.4,1,0,1.4
				l-8,8.2C172.1,25.9,171.9,26,171.6,26z"/>
		</g>
	</g>
	<g>
		<path class="st5" d="M182.2,131.2c-1.6,0-3-1.3-3-3s1.3-3,3-3s3,1.3,3,3S183.9,131.2,182.2,131.2z M182.2,126.3c-1.1,0-2,0.9-2,2
			s0.9,2,2,2s2-0.9,2-2S183.3,126.3,182.2,126.3z"/>
	</g>
	<g>
		<path class="st4" d="M66.1,68.8c-1.6,0-3-1.3-3-3s1.3-3,3-3s3,1.3,3,3S67.7,68.8,66.1,68.8z M66.1,63.9c-1.1,0-2,0.9-2,2
			s0.9,2,2,2s2-0.9,2-2S67.2,63.9,66.1,63.9z"/>
	</g>
	<g>
		<path class="st5" d="M52.1,158.8c0,0-0.1,0-0.1,0l-1-0.3c-0.3-0.1-0.4-0.4-0.3-0.6c0.1-0.3,0.4-0.4,0.6-0.3l0.1,0l-0.5-1.8
			c0-0.1,0-0.2,0-0.3l0.5-1.8l-1.8,0.5c-0.1,0-0.2,0-0.3,0l-1.8-0.5l0.5,1.8c0,0.1,0,0.2,0,0.3l-0.5,1.8l1.8-0.5
			c0.3-0.1,0.5,0.1,0.6,0.3c0.1,0.3-0.1,0.5-0.3,0.6l-2.7,0.8c-0.2,0.1-0.4,0-0.5-0.1c-0.1-0.1-0.2-0.3-0.1-0.5l0.8-2.6l-0.8-2.6
			c-0.1-0.2,0-0.4,0.1-0.5c0.1-0.1,0.3-0.2,0.5-0.1l2.6,0.8l2.6-0.8c0.2-0.1,0.4,0,0.5,0.1s0.2,0.3,0.1,0.5l-0.8,2.6l0.8,2.6
			c0.1,0.2,0,0.4-0.1,0.5C52.4,158.7,52.2,158.8,52.1,158.8z"/>
	</g>
	<g>
		<path class="st2" d="M72.4,209.1c0,0-0.1,0-0.1,0l-1-0.3c-0.3-0.1-0.4-0.4-0.3-0.6c0.1-0.3,0.4-0.4,0.6-0.3l0.1,0l-0.5-1.8
			c0-0.1,0-0.2,0-0.3l0.5-1.8l-1.8,0.5c-0.1,0-0.2,0-0.3,0l-1.8-0.5l0.5,1.8c0,0.1,0,0.2,0,0.3l-0.5,1.8l1.8-0.5
			c0.3-0.1,0.5,0.1,0.6,0.3c0.1,0.3-0.1,0.5-0.3,0.6l-2.7,0.8c-0.2,0-0.4,0-0.5-0.1c-0.1-0.1-0.2-0.3-0.1-0.5l0.8-2.6l-0.8-2.6
			c-0.1-0.2,0-0.4,0.1-0.5c0.1-0.1,0.3-0.2,0.5-0.1l2.6,0.8l2.6-0.8c0.2-0.1,0.4,0,0.5,0.1s0.2,0.3,0.1,0.5l-0.8,2.6l0.8,2.6
			c0.1,0.2,0,0.4-0.1,0.5C72.6,209.1,72.5,209.1,72.4,209.1z"/>
	</g>
	<g>
		<g>
			<path class="st4" d="M188.8,56.6c-0.3,0-0.5-0.2-0.5-0.5v-2.4c0-0.3,0.2-0.5,0.5-0.5s0.5,0.2,0.5,0.5v2.4
				C189.3,56.4,189.1,56.6,188.8,56.6z"/>
		</g>
		<g>
			<path class="st4" d="M188.8,62.4c-0.3,0-0.5-0.2-0.5-0.5v-2.4c0-0.3,0.2-0.5,0.5-0.5s0.5,0.2,0.5,0.5v2.4
				C189.3,62.2,189.1,62.4,188.8,62.4z"/>
		</g>
		<g>
			<path class="st4" d="M193,58.3h-2.4c-0.3,0-0.5-0.2-0.5-0.5s0.2-0.5,0.5-0.5h2.4c0.3,0,0.5,0.2,0.5,0.5S193.3,58.3,193,58.3z"/>
		</g>
		<g>
			<path class="st4" d="M187.1,58.3h-2.4c-0.3,0-0.5-0.2-0.5-0.5s0.2-0.5,0.5-0.5h2.4c0.3,0,0.5,0.2,0.5,0.5S187.4,58.3,187.1,58.3z
				"/>
		</g>
	</g>
	<g>
		<g>
			<path class="st2" d="M175.6,206.4c-0.3,0-0.5-0.2-0.5-0.5v-2.4c0-0.3,0.2-0.5,0.5-0.5s0.5,0.2,0.5,0.5v2.4
				C176.1,206.2,175.9,206.4,175.6,206.4z"/>
		</g>
		<g>
			<path class="st2" d="M175.6,212.3c-0.3,0-0.5-0.2-0.5-0.5v-2.4c0-0.3,0.2-0.5,0.5-0.5s0.5,0.2,0.5,0.5v2.4
				C176.1,212,175.9,212.3,175.6,212.3z"/>
		</g>
		<g>
			<path class="st2" d="M179.7,208.1h-2.4c-0.3,0-0.5-0.2-0.5-0.5s0.2-0.5,0.5-0.5h2.4c0.3,0,0.5,0.2,0.5,0.5S180,208.1,179.7,208.1
				z"/>
		</g>
		<g>
			<path class="st2" d="M173.9,208.1h-2.4c-0.3,0-0.5-0.2-0.5-0.5s0.2-0.5,0.5-0.5h2.4c0.3,0,0.5,0.2,0.5,0.5
				S174.2,208.1,173.9,208.1z"/>
		</g>
	</g>
	<g>
		<g>
			<path class="st3" d="M54.8,102.3c-0.3,0-0.5-0.2-0.5-0.5v-2.4c0-0.3,0.2-0.5,0.5-0.5s0.5,0.2,0.5,0.5v2.4
				C55.3,102.1,55.1,102.3,54.8,102.3z"/>
		</g>
		<g>
			<path class="st3" d="M54.8,108.2c-0.3,0-0.5-0.2-0.5-0.5v-2.4c0-0.3,0.2-0.5,0.5-0.5s0.5,0.2,0.5,0.5v2.4
				C55.3,107.9,55.1,108.2,54.8,108.2z"/>
		</g>
		<g>
			<path class="st3" d="M58.9,104h-2.4c-0.3,0-0.5-0.2-0.5-0.5s0.2-0.5,0.5-0.5h2.4c0.3,0,0.5,0.2,0.5,0.5S59.2,104,58.9,104z"/>
		</g>
		<g>
			<path class="st3" d="M53.1,104h-2.4c-0.3,0-0.5-0.2-0.5-0.5s0.2-0.5,0.5-0.5h2.4c0.3,0,0.5,0.2,0.5,0.5S53.3,104,53.1,104z"/>
		</g>
	</g>
</g>
</svg>
