<?xml version="1.0" encoding="utf-8"?>
<!-- Generator: Adobe Illustrator 22.1.0, SVG Export Plug-In . SVG Version: 6.00 Build 0)  -->
<svg version="1.1" id="Layer_1" xmlns="http://www.w3.org/2000/svg" xmlns:xlink="http://www.w3.org/1999/xlink" x="0px" y="0px"
	 viewBox="0 0 256 256" style="enable-background:new 0 0 256 256;" xml:space="preserve">
<style type="text/css">
	.st0{fill:#9FEAFF;}
	.st1{fill:#FFFFFF;}
	.st2{fill:#48386A;}
</style>
<g>
	<g>
		<path class="st0" d="M238.6,71.2v128.3H22.4V48.7c0-2.8,2.2-5,5-5h206.2c2.8,0,5,2.2,5,5v15.8V71.2z"/>
		<g>
			<path class="st1" d="M219,212.3H9.4c-3.5,0-6.4-2.9-6.4-6.4l0,0c0-3.5,2.9-6.4,6.4-6.4h235.3c3.5,0,6.4,2.9,6.4,6.4l0,0
				c0,3.5-2.9,6.4-6.4,6.4h-18H219z"/>
			<path class="st2" d="M244.6,213.3h-18c-0.6,0-1-0.4-1-1s0.4-1,1-1h18c3,0,5.4-2.4,5.4-5.4c0-3-2.4-5.4-5.4-5.4H9.4
				c-3,0-5.4,2.4-5.4,5.4c0,3,2.4,5.4,5.4,5.4H219c0.6,0,1,0.4,1,1s-0.4,1-1,1H9.4c-4.1,0-7.4-3.3-7.4-7.4c0-4.1,3.3-7.4,7.4-7.4
				h235.3c4.1,0,7.4,3.3,7.4,7.4C252,210,248.7,213.3,244.6,213.3z"/>
		</g>
		<g>
			<polygon class="st1" points="99,207.2 93.1,207.2 87.5,199.6 166.5,199.6 160.9,207.2 105.1,207.2 			"/>
			<path class="st2" d="M160.9,207.7h-55.8c-0.3,0-0.5-0.2-0.5-0.5s0.2-0.5,0.5-0.5h55.5l4.9-6.7H88.5l4.9,6.7H99
				c0.3,0,0.5,0.2,0.5,0.5s-0.2,0.5-0.5,0.5h-5.9c-0.2,0-0.3-0.1-0.4-0.2l-5.6-7.7c-0.1-0.2-0.1-0.4,0-0.5c0.1-0.2,0.3-0.3,0.4-0.3
				h79c0.2,0,0.4,0.1,0.4,0.3c0.1,0.2,0.1,0.4,0,0.5l-5.6,7.7C161.2,207.7,161.1,207.7,160.9,207.7z"/>
		</g>
		<g>
			<path class="st2" d="M235.1,200.6H18.9c-0.6,0-1-0.4-1-1V48.7c0-3.3,2.7-6,6-6h206.2c3.3,0,6,2.7,6,6v15.8c0,0.6-0.4,1-1,1
				s-1-0.4-1-1V48.7c0-2.2-1.8-4-4-4H23.9c-2.2,0-4,1.8-4,4v149.8h214.2V71.2c0-0.6,0.4-1,1-1s1,0.4,1,1v128.3
				C236.1,200.1,235.6,200.6,235.1,200.6z"/>
		</g>
		<g>
			<path class="st2" d="M24.5,84.8c-0.6,0-1-0.4-1-1v-2.3c0-0.6,0.4-1,1-1s1,0.4,1,1v2.3C25.5,84.3,25.1,84.8,24.5,84.8z"/>
		</g>
		<g>
			<polygon class="st1" points="24.5,75.5 24.5,49.3 229.5,49.3 229.5,193.9 24.5,193.9 24.5,88.8 			"/>
			<path class="st2" d="M229.5,194.9H24.5c-0.6,0-1-0.4-1-1V88.8c0-0.6,0.4-1,1-1s1,0.4,1,1v104.2h202.9V50.3H25.5v25.2
				c0,0.6-0.4,1-1,1s-1-0.4-1-1V49.3c0-0.6,0.4-1,1-1h204.9c0.6,0,1,0.4,1,1v144.6C230.5,194.5,230,194.9,229.5,194.9z"/>
		</g>
		<g>
			<path class="st2" d="M127,207.5c-0.3,0-0.5-0.2-0.5-0.5v-7.5c0-0.3,0.2-0.5,0.5-0.5s0.5,0.2,0.5,0.5v7.5
				C127.5,207.3,127.3,207.5,127,207.5z"/>
		</g>
		<g>
			<path class="st2" d="M181.7,194.9H72.3c-0.6,0-1-0.4-1-1v-31.7c0-0.6,0.4-1,1-1s1,0.4,1,1v30.7h107.4V85.6l-22.1-22.1H73.3V157
				c0,0.6-0.4,1-1,1s-1-0.4-1-1V62.5c0-0.6,0.4-1,1-1H159c0.3,0,0.5,0.1,0.7,0.3l22.7,22.7c0.2,0.2,0.3,0.4,0.3,0.7v108.7
				C182.7,194.5,182.2,194.9,181.7,194.9z"/>
		</g>
		<g>
			<path class="st2" d="M181.7,86.2H159c-0.6,0-1-0.4-1-1V62.5c0-0.4,0.2-0.8,0.6-0.9c0.4-0.2,0.8-0.1,1.1,0.2l22.7,22.7
				c0.3,0.3,0.4,0.7,0.2,1.1C182.5,86,182.1,86.2,181.7,86.2z M160,84.2h19.3L160,64.9V84.2z"/>
		</g>
		<polygon class="st0" points="104,69.8 116.6,69.8 116.6,101.6 82.4,101.6 82.4,69.8 99.5,69.8 		"/>
		<rect x="81.9" y="162.2" class="st0" width="56.4" height="11"/>
		<polygon class="st0" points="149.1,119.9 82.4,119.9 82.4,108.9 173.8,108.9 173.8,119.9 155.1,119.9 		"/>
		<path class="st0" d="M152.3,145.9c2.1-1.2,4.5-1.8,7-1.8c8,0,14.5,6.5,14.5,14.5c0,8-6.5,14.5-14.5,14.5c-8,0-14.5-6.5-14.5-14.5
			c0-3.4,1.2-6.6,3.2-9.1L152.3,145.9z"/>
		<g>
			<path class="st2" d="M113.1,102.1H78.9c-0.3,0-0.5-0.2-0.5-0.5V69.8c0-0.3,0.2-0.5,0.5-0.5H96c0.3,0,0.5,0.2,0.5,0.5
				s-0.2,0.5-0.5,0.5H79.4v30.8h33.3V70.3h-12.1c-0.3,0-0.5-0.2-0.5-0.5s0.2-0.5,0.5-0.5h12.6c0.3,0,0.5,0.2,0.5,0.5v31.8
				C113.6,101.9,113.4,102.1,113.1,102.1z"/>
		</g>
		<g>
			<path class="st2" d="M170.3,120.4h-18.7c-0.3,0-0.5-0.2-0.5-0.5s0.2-0.5,0.5-0.5h18.2v-10H79.4v10h66.3c0.3,0,0.5,0.2,0.5,0.5
				s-0.2,0.5-0.5,0.5H78.9c-0.3,0-0.5-0.2-0.5-0.5v-11c0-0.3,0.2-0.5,0.5-0.5h91.5c0.3,0,0.5,0.2,0.5,0.5v11
				C170.8,120.1,170.6,120.4,170.3,120.4z"/>
		</g>
		<g>
			<path class="st2" d="M170.3,137.2H78.9c-0.3,0-0.5-0.2-0.5-0.5v-11c0-0.3,0.2-0.5,0.5-0.5h91.5c0.3,0,0.5,0.2,0.5,0.5v11
				C170.8,137,170.6,137.2,170.3,137.2z M79.4,136.2h90.5v-10H79.4V136.2z"/>
		</g>
		<g>
			<path class="st2" d="M135.2,155.6H78.9c-0.3,0-0.5-0.2-0.5-0.5v-11c0-0.3,0.2-0.5,0.5-0.5h56.4c0.3,0,0.5,0.2,0.5,0.5v11
				C135.7,155.3,135.5,155.6,135.2,155.6z M79.4,154.6h55.4v-10H79.4V154.6z"/>
		</g>
		<g>
			<path class="st2" d="M135.2,173.7H78.9c-0.3,0-0.5-0.2-0.5-0.5v-11c0-0.3,0.2-0.5,0.5-0.5h56.4c0.3,0,0.5,0.2,0.5,0.5v11
				C135.7,173.5,135.5,173.7,135.2,173.7z M79.4,172.7h55.4v-10H79.4V172.7z"/>
		</g>
		<g>
			<path class="st2" d="M155.8,173.7c-8.3,0-15-6.7-15-15c0-3.4,1.1-6.7,3.3-9.4c0.2-0.2,0.5-0.3,0.7-0.1c0.2,0.2,0.3,0.5,0.1,0.7
				c-2,2.5-3.1,5.5-3.1,8.8c0,7.7,6.3,14,14,14s14-6.3,14-14s-6.3-14-14-14c-2.4,0-4.7,0.6-6.8,1.8c-0.2,0.1-0.5,0-0.7-0.2
				s0-0.5,0.2-0.7c2.2-1.2,4.7-1.9,7.3-1.9c8.3,0,15,6.7,15,15S164.1,173.7,155.8,173.7z"/>
		</g>
		<g>
			<path class="st2" d="M150.1,88.2h-32.6c-0.3,0-0.5-0.2-0.5-0.5s0.2-0.5,0.5-0.5h32.6c0.3,0,0.5,0.2,0.5,0.5
				S150.4,88.2,150.1,88.2z"/>
		</g>
		<g>
			<path class="st2" d="M164.4,95.1h-46.9c-0.3,0-0.5-0.2-0.5-0.5s0.2-0.5,0.5-0.5h46.9c0.3,0,0.5,0.2,0.5,0.5
				S164.7,95.1,164.4,95.1z"/>
		</g>
		<g>
			<path class="st2" d="M169.9,102.1h-52.4c-0.3,0-0.5-0.2-0.5-0.5s0.2-0.5,0.5-0.5h52.4c0.3,0,0.5,0.2,0.5,0.5
				S170.2,102.1,169.9,102.1z"/>
		</g>
	</g>
	<g>
		<path class="st2" d="M93.1,207.7H3c-0.3,0-0.5-0.2-0.5-0.5s0.2-0.5,0.5-0.5h90.1c0.3,0,0.5,0.2,0.5,0.5S93.4,207.7,93.1,207.7z"/>
	</g>
	<g>
		<path class="st2" d="M250.9,207.7h-90c-0.3,0-0.5-0.2-0.5-0.5s0.2-0.5,0.5-0.5h90c0.3,0,0.5,0.2,0.5,0.5S251.1,207.7,250.9,207.7z
			"/>
	</g>
</g>
</svg>
