<svg xmlns="http://www.w3.org/2000/svg" id="Layer_1" x="0" y="0" enable-background="new 0 0 256 256" version="1.1" viewBox="0 0 256 256" xml:space="preserve"><style>.st0{fill:#DBFDFF;}
	.st1{fill:#FF8584;}
	.st2{fill:#FFFFFF;}
	.st3{fill:#48386A;}
	.st4{fill:#9FEAFF;}
	.st5{fill:#FEBE7F;}</style><path d="M228.1 83.2c1-3.9 1.5-8.1 1.5-12.3 0-27.9-22.6-50.5-50.5-50.5-16 0-30.2 7.4-39.4 19-8.5-6.9-19.3-11.1-31-11.2-9.2-9.9-22.3-16-36.9-16-27.9 0-50.5 22.6-50.5 50.5v.1c-4.8 7.7-7.6 16.9-7.6 26.6 0 27.9 22.6 50.5 50.5 50.5 6.6 0 13-1.3 18.8-3.6-.2 1.8-.3 3.6-.3 5.4 0 27.9 22.6 50.5 50.5 50.5 18.7 0 34.9-10.1 43.7-25.2 4.9 1.6 10.1 2.5 15.6 2.5 27.9 0 50.5-22.6 50.5-50.5-.1-14.1-5.8-26.7-14.9-35.8z" class="st0"/><path d="m54.7 87.1-8.4 31.5h-6.1c-8.5 0-15.4-6.9-15.4-15.4v-.7c0-.5 0-1.1.1-1.6.8-7.7 7.3-13.8 15.3-13.8h14.5z" class="st1"/><path d="M159.5 252H40.9c-8.6 0-15.9-5.6-18.6-13.3-.1-.2-.2-.5-.2-.7-.5-1.8-.8-3.7-.8-5.6V103.2c0 8.5 6.9 15.4 15.4 15.4H213c8.4 0 15.6 5.3 18.3 12.7.8 2.1 1.2 4.5 1.2 6.9v94.2c0 1.9-.3 3.8-.8 5.6-.1.2-.1.5-.2.7a19.6 19.6 0 0 1-18.6 13.3H159.5z" class="st2"/><path d="M213 253h-33.6c-.6 0-1-.4-1-1s.4-1 1-1H213c8 0 15.1-5.1 17.6-12.6.1-.2.1-.4.2-.7.5-1.7.8-3.5.8-5.3v-94.2c0-2.3-.4-4.5-1.2-6.5-2.7-7.2-9.7-12.1-17.4-12.1H36.7c-6.2 0-11.6-3.5-14.4-8.5v121.3c0 1.8.3 3.6.8 5.3.1.2.1.4.2.7 2.6 7.6 9.6 12.6 17.6 12.6h118.6c.6 0 1 .4 1 1s-.4 1-1 1H40.9c-8.8 0-16.7-5.6-19.5-14-.1-.2-.2-.5-.2-.7-.6-1.9-.9-3.9-.9-5.9V103.2c0-.6.4-1 1-1s1 .4 1 1c0 7.9 6.4 14.4 14.4 14.4H213c8.5 0 16.3 5.4 19.3 13.4.9 2.3 1.3 4.7 1.3 7.2v94.2c0 2-.3 4-.9 5.9-.1.3-.1.5-.2.7-2.8 8.4-10.6 14-19.5 14z" class="st3"/><path d="M114.4 233.5H24.3v-96.9h211.3c.1.5.1 1.1.1 1.6v95.3H114.4z" class="st1"/><path d="M196.9 15.9 222.6 22.8 196.9 118.6 121.8 118.6 124.3 109.2 138.8 55 147.3 23.3 149.8 13.9 152.5 4 188.1 13.5z" class="st2"/><path d="M196.9 119.6h-75.1c-.3 0-.6-.1-.8-.4-.2-.2-.3-.6-.2-.9L151.5 3.7c.1-.5.7-.9 1.2-.7l35.6 9.5c.5.1.8.7.7 1.2s-.7.9-1.2.7l-34.6-9.3-30.1 112.4h73l25.2-94.1-24.7-6.6c-.5-.1-.8-.7-.7-1.2s.7-.8 1.2-.7l25.7 6.9c.5.1.8.7.7 1.2l-25.7 95.8c-.1.5-.5.8-.9.8z" class="st3"/><path d="M149.8 13.9 147.3 23.3 138.8 55 124.3 109.2 121.8 118.6 82.3 118.6 84.8 109.2 99.3 55 107.8 23.3 110.4 13.9 113 4z" class="st2"/><path d="M121.8 119.6H82.3c-.3 0-.6-.1-.8-.4-.2-.2-.3-.6-.2-.9L112 3.7c.1-.5.7-.9 1.2-.7l36.8 9.9c.3.1.5.2.6.5s.2.5.1.8l-28.1 104.7c0 .4-.4.7-.8.7zm-38.2-2H121l27.6-103-34.9-9.3-30.1 112.3z" class="st3"/><path d="M62.9 43.7 73.5 4 110.4 13.9 107.8 23.3 99.3 55 84.8 109.2 82.3 118.6 42.8 118.6 53.6 78.5 60.7 51.9z" class="st2"/><path d="M82.3 119.6H42.8c-.3 0-.6-.1-.8-.4-.2-.2-.3-.6-.2-.9l17.9-66.6c.1-.5.7-.8 1.2-.7.5.1.8.7.7 1.2l-17.5 65.4h37.4l27.6-103-34.9-9.4L63.8 44c-.1.5-.7.9-1.2.7-.5-.1-.8-.7-.7-1.2L72.5 3.7c.1-.5.7-.9 1.2-.7l36.8 9.9c.3.1.5.2.6.5s.2.5.1.8l-28 104.6c-.1.5-.5.8-.9.8zM174.5 253h-4.4c-.6 0-1-.4-1-1s.4-1 1-1h4.4c.6 0 1 .4 1 1s-.5 1-1 1z" class="st3"/><path d="M213 253h-33.6c-.6 0-1-.4-1-1s.4-1 1-1H213c8 0 15.1-5.1 17.6-12.6.1-.2.1-.4.2-.7.5-1.7.8-3.5.8-5.3v-94.2c0-2.3-.4-4.5-1.2-6.5-2.7-7.2-9.7-12.1-17.4-12.1H36.7c-6.2 0-11.6-3.5-14.4-8.5v121.3c0 1.8.3 3.6.8 5.3.1.2.1.4.2.7 2.6 7.6 9.6 12.6 17.6 12.6h118.6c.6 0 1 .4 1 1s-.4 1-1 1H40.9c-8.8 0-16.7-5.6-19.5-14-.1-.2-.2-.5-.2-.7-.6-1.9-.9-3.9-.9-5.9V103.2c0-.6.4-1 1-1s1 .4 1 1c0 7.9 6.4 14.4 14.4 14.4H213c8.5 0 16.3 5.4 19.3 13.4.9 2.3 1.3 4.7 1.3 7.2v94.2c0 2-.3 4-.9 5.9-.1.3-.1.5-.2.7-2.8 8.4-10.6 14-19.5 14z" class="st3"/><path d="M42.8 119.6h-6.1c-9 0-16.4-7.3-16.4-16.4v-.7c0-.6 0-1.1.1-1.7.9-8.4 7.9-14.7 16.3-14.7h14.6c.3 0 .6.1.8.4.2.2.3.6.2.9l-8.4 31.5c-.2.4-.6.7-1.1.7zm-6.1-31.5c-7.4 0-13.5 5.5-14.3 12.9-.1.5-.1 1-.1 1.5v.7c0 7.9 6.4 14.4 14.4 14.4H42l7.9-29.5H36.7zM231.8 239.7H22.1c-.4 0-.8-.3-1-.7-.5-1.8-.8-3.6-.9-5.5V131.3c0-.6.4-1 1-1H61c.6 0 1 .4 1 1s-.4 1-1 1H22.3v101.2c0 1.4.2 2.9.6 4.3H231c.4-1.4.5-2.8.6-4.3v-95.3c0-.5 0-1.1-.1-1.5-.1-1.5-.4-3-.9-4.4h-158c-.6 0-1-.4-1-1s.4-1 1-1h158.7c.4 0 .8.3.9.6.7 1.8 1.1 3.6 1.2 5.5.1.5.1 1.1.1 1.7v95.3c0 1.9-.3 3.7-.9 5.5 0 .5-.3.8-.8.8z" class="st3"/><path d="M169.3 195.4c-8.1 0-14.6-6.6-14.6-14.6 0-8.1 6.6-14.6 14.6-14.6h66.3v29.2h-66.3z" class="st4"/><path d="m135.8 118.6 24-89.8c4.1-.3 7.7-2.4 10-5.8l28.2 7.6c.3 4 2.4 7.7 5.7 10l-20.9 78h-47z" class="st0"/><path d="M182.9 119.1h-47.1c-.2 0-.3-.1-.4-.2-.1-.1-.1-.3-.1-.4l24-89.8c.1-.2.2-.4.5-.4 3.8-.3 7.4-2.3 9.6-5.5.1-.2.3-.3.5-.2l28.2 7.6c.2.1.4.2.4.4.3 3.8 2.3 7.4 5.5 9.6.2.1.3.3.2.5l-20.9 78c0 .2-.2.4-.4.4zm-46.4-1h46l20.7-77.3c-3.2-2.3-5.3-5.9-5.6-9.8L170 23.6c-2.3 3.2-5.9 5.3-9.8 5.6l-23.7 88.9z" class="st3"/><path d="m100.4 103.2 20-74.4c4.1-.3 7.7-2.4 10-5.8l16.1 3.9-24.6 91.6H96.2l1.7-6.5 2.5-8.8z" class="st0"/><path d="M121.8 119.1H96.2c-.2 0-.3-.1-.4-.2-.1-.1-.1-.3-.1-.4l1.7-6.5c.1-.3.3-.4.6-.4.3.1.4.3.4.6l-1.6 5.9h24.5l24.4-90.7-15.2-3.7c-2.3 3.2-5.9 5.3-9.8 5.7l-19.9 74.1c-.1.3-.3.4-.6.4-.3-.1-.4-.3-.4-.6l20-74.4c.1-.2.2-.4.5-.4 3.8-.3 7.4-2.3 9.6-5.5.1-.2.3-.3.5-.2l16.1 3.9c.1 0 .2.1.3.2.1.1.1.3.1.4l-24.6 91.6c-.1 0-.3.2-.5.2z" class="st3"/><path d="m56.9 118.6 24-89.8c4.1-.3 7.7-2.4 10-5.8l15.9 4.2-24.5 91.3H56.9z" class="st0"/><path d="M82.3 119.1H56.9c-.2 0-.3-.1-.4-.2s-.1-.3-.1-.4l24-89.8c.1-.2.2-.4.5-.4 3.8-.3 7.4-2.3 9.6-5.5.1-.2.3-.3.5-.2l15.9 4.2c.1 0 .2.1.3.2s.1.3.1.4l-24.5 91.3c-.1.2-.3.4-.5.4zm-24.7-1h24.3l24.3-90.5-15.1-4c-2.3 3.2-5.9 5.3-9.8 5.6l-23.7 88.9z" class="st3"/><path d="M190.4 68.3c1.1 5.3.9 11.5-.8 17.9-4 15-15.1 25.2-24.7 22.6s-14-16.8-10-31.9 15.1-25.2 24.7-22.6c2.8.8 5.2 2.5 7.1 5.1l3.7 8.9z" class="st4"/><path d="m141.8 55-14.5 54.2-1.8-.3c-9.6-2.6-14.1-16.8-10.1-31.9 4-15 15.1-25.2 24.7-22.6.6.1 1.2.3 1.7.6z" class="st5"/><path d="m102.3 55-14.5 54.2-1.8-.3c-9.6-2.6-14.1-16.8-10.1-31.9 4-15 15.1-25.2 24.7-22.6.6.1 1.2.3 1.7.6zM220.9 106.4v12.8c-1.6-.4-3.2-.6-4.9-.6h-16.1l8.2-30.6c5.3 2 9.6 6.2 11.6 11.5.8 2.2 1.2 4.5 1.2 6.9z" class="st1"/><path d="M232.6 234H129.5c-.3 0-.5-.2-.5-.5s.2-.5.5-.5h102.7V137.1H21.8V233h92.6c.3 0 .5.2.5.5s-.2.5-.5.5H21.3c-.3 0-.5-.2-.5-.5v-96.9c0-.3.2-.5.5-.5h211.3c.3 0 .5.2.5.5.1.5.1 1.1.1 1.7v95.3c-.1.1-.3.4-.6.4z" class="st3"/><path d="M205.6 159.2h-39.3c-11.9 0-21.6 9.7-21.6 21.6 0 11.9 9.7 21.6 21.6 21.6h66.3v-43.2h-27z" class="st2"/><path d="M232.6 203.4h-66.3c-12.5 0-22.6-10.1-22.6-22.6s10.1-22.6 22.6-22.6h39.3c.6 0 1 .4 1 1s-.4 1-1 1h-39.3c-11.4 0-20.6 9.2-20.6 20.6 0 11.4 9.2 20.6 20.6 20.6h65.3v-41.2h-18.2c-.6 0-1-.4-1-1s.4-1 1-1h19.2c.6 0 1 .4 1 1v43.2c0 .5-.4 1-1 1z" class="st3"/><path d="M169.8 195.4c-8.1 0-14.6-6.6-14.6-14.6 0-8.1 6.6-14.6 14.6-14.6h66.3v29.2h-66.3z" class="st1"/><path d="M232.6 196.4h-66.3c-8.6 0-15.6-7-15.6-15.6s7-15.6 15.6-15.6h66.3c.6 0 1 .4 1 1v29.2c0 .5-.4 1-1 1zm-66.3-29.2c-7.5 0-13.6 6.1-13.6 13.6s6.1 13.6 13.6 13.6h65.3v-27.2h-65.3z" class="st3"/><path d="M175 185c-1.7 3.1-5.1 5.2-8.9 5.2-5.6 0-10.1-4.5-10.1-10.1s4.5-10.1 10.1-10.1 10.1 4.5 10.1 10.1L175 185z" class="st2"/><path d="M166.1 190.7c-5.9 0-10.6-4.8-10.6-10.6s4.8-10.6 10.6-10.6 10.6 4.8 10.6 10.6c0 .3-.2.5-.5.5s-.5-.2-.5-.5c0-5.3-4.3-9.6-9.6-9.6s-9.6 4.3-9.6 9.6 4.3 9.6 9.6 9.6c3.5 0 6.7-1.9 8.4-5 .1-.2.4-.3.7-.2.2.1.3.4.2.7-1.9 3.4-5.4 5.5-9.3 5.5zM196.9 119.6h-75.1c-.3 0-.6-.1-.8-.4-.2-.2-.3-.6-.2-.9L151.5 3.7c.1-.5.7-.9 1.2-.7l35.6 9.5c.5.1.8.7.7 1.2s-.7.9-1.2.7l-34.6-9.3-30.1 112.4h73l25.2-94.1-24.7-6.6c-.5-.1-.8-.7-.7-1.2s.7-.8 1.2-.7l25.7 6.9c.5.1.8.7.7 1.2l-25.7 95.8c-.1.5-.5.8-.9.8z" class="st3"/><g><path d="M187.2 119.6h-55.8c-.3 0-.6-.1-.8-.4-.2-.2-.3-.6-.2-.9L155.6 24c.1-.5.7-.8 1.2-.7 4.2 1.1 8.5-1.4 9.6-5.5.1-.3.2-.5.5-.6.2-.1.5-.2.8-.1l35 9.4c.5.1.8.7.7 1.2-1.1 4.2 1.4 8.5 5.5 9.6.5.1.8.7.7 1.2l-21.5 80.3c0 .5-.4.8-.9.8zm-54.5-2h53.7L207.5 39c-4.3-1.7-6.9-6.2-6.2-10.8l-33.2-8.9c-.8 2.1-2.3 3.9-4.3 5s-4.3 1.6-6.5 1.2l-24.6 92.1z" class="st3"/></g><g><path d="M165 109.7c-1.1 0-2.2-.1-3.2-.4-4.8-1.3-8.5-5.4-10.5-11.6-1.9-6.1-1.9-13.5.1-20.9 4.1-15.3 15.4-25.6 25.3-22.9 2.8.8 5.4 2.6 7.4 5.3.2.2.1.5-.1.7-.2.2-.5.1-.7-.1-1.9-2.5-4.2-4.2-6.8-4.9-9.3-2.5-20.1 7.5-24.1 22.2-1.9 7.2-2 14.4-.1 20.3 1.8 5.9 5.3 9.7 9.8 10.9 4.5 1.2 9.4-.4 14-4.6 4.6-4.2 8.2-10.5 10.1-17.7 1.6-6.1 1.9-12.2.8-17.7-.1-.3.1-.5.4-.6.3-.1.5.1.6.4 1.2 5.6.9 11.8-.8 18.1-2 7.4-5.7 13.8-10.4 18.1-3.8 3.6-7.9 5.4-11.8 5.4z" class="st3"/></g><g><path d="M121.8 119.6H82.3c-.3 0-.6-.1-.8-.4-.2-.2-.3-.6-.2-.9L112 3.7c.1-.5.7-.9 1.2-.7l36.8 9.9c.3.1.5.2.6.5s.2.5.1.8l-28.1 104.7c0 .4-.4.7-.8.7zm-38.2-2H121l27.6-103-34.9-9.3-30.1 112.3z" class="st3"/></g><g><path d="M121.8 119.6H92c-.3 0-.6-.1-.8-.4-.2-.2-.3-.6-.2-.9L116.2 24c.1-.5.7-.8 1.2-.7 4.2 1.1 8.5-1.4 9.6-5.5.1-.3.2-.5.5-.6.2-.1.5-.2.8-.1l19.3 5.2c.5.1.8.7.7 1.2l-25.6 95.3c-.1.5-.5.8-.9.8zm-28.5-2H121L146.1 24l-17.4-4.7c-1.6 4.3-6.2 6.9-10.8 6.2l-24.6 92.1z" class="st3"/></g><g><path d="M124.3 109.7c-.7-.1-1.3-.2-2-.4-3.4-.9-6.4-3.3-8.5-7-3.8-6.5-4.5-16-1.9-25.5 4.1-15.3 15.4-25.6 25.3-22.9.7.2 1.3.4 1.9.7.2.1.3.3.3.6l-14.5 54.2c-.2.1-.4.3-.6.3zm9.7-55.3c-8.5 0-17.6 9.4-21.1 22.6-2.5 9.2-1.8 18.5 1.8 24.8 2 3.4 4.7 5.7 7.9 6.5.4.1.9.2 1.3.3l14.3-53.3c-.4-.2-.9-.3-1.3-.4-.9-.3-1.9-.5-2.9-.5z" class="st3"/></g><g><path d="M82.3 119.6H42.8c-.3 0-.6-.1-.8-.4-.2-.2-.3-.6-.2-.9l17.9-66.6c.1-.5.7-.8 1.2-.7.5.1.8.7.7 1.2l-17.5 65.4h37.4l27.6-103-34.9-9.4L63.8 44c-.1.5-.7.9-1.2.7-.5-.1-.8-.7-.7-1.2L72.5 3.7c.1-.5.7-.9 1.2-.7l36.8 9.9c.3.1.5.2.6.5s.2.5.1.8l-28 104.6c-.1.5-.5.8-.9.8z" class="st3"/></g><g><path d="M82.3 119.6H52.5c-.3 0-.6-.1-.8-.4-.2-.2-.3-.6-.2-.9L76.7 24c.1-.5.7-.8 1.2-.7 4.2 1.1 8.5-1.4 9.6-5.5.1-.3.2-.5.5-.6.2-.1.5-.2.8-.1l19.3 5.2c.5.1.8.7.7 1.2l-25.6 95.3c-.1.5-.5.8-.9.8zm-28.5-2h27.8l25-93.6-17.4-4.7c-1.6 4.3-6.2 6.9-10.8 6.2l-24.6 92.1z" class="st3"/></g><g><path d="M84.8 109.7c-.7-.1-1.3-.2-2-.4-3.4-.9-6.4-3.3-8.5-7-3.8-6.5-4.5-16-1.9-25.5 4.1-15.3 15.5-25.6 25.3-22.9.7.2 1.3.4 1.9.7.2.1.3.3.3.6l-14.5 54.2c-.2.1-.4.3-.6.3zm9.7-55.3c-8.5 0-17.6 9.4-21.1 22.6-2.5 9.2-1.8 18.5 1.8 24.8 2 3.4 4.7 5.7 7.9 6.5.4.1.9.2 1.3.3l14.3-53.3c-.4-.2-.9-.3-1.3-.4-.9-.3-1.9-.5-2.9-.5z" class="st3"/></g><g><path d="M217.9 120.2h-.3c-1.5-.4-3.1-.6-4.6-.6h-16.1c-.3 0-.6-.1-.8-.4-.2-.2-.3-.6-.2-.9l8.2-30.6c.1-.3.3-.5.5-.6.2-.1.5-.1.8-.1 5.6 2.1 10.1 6.5 12.2 12.1.9 2.3 1.3 4.7 1.3 7.2v12.8c0 .3-.1.6-.4.8-.1.2-.4.3-.6.3zm-19.7-2.6H213c1.3 0 2.6.1 3.9.4v-11.5c0-2.3-.4-4.5-1.2-6.5-1.8-4.7-5.4-8.5-10-10.5l-7.5 28.1z" class="st3"/></g><g><path d="M232.6 114.4c-1.6 0-3-1.3-3-3s1.3-3 3-3 3 1.3 3 3-1.3 3-3 3zm0-4.9c-1.1 0-2 .9-2 2s.9 2 2 2 2-.9 2-2-.9-2-2-2z" class="st3"/></g><g><path d="M52.5 32.9c-1.6 0-3-1.3-3-3s1.3-3 3-3 3 1.3 3 3-1.3 3-3 3zm0-4.9c-1.1 0-2 .9-2 2s.9 2 2 2 2-.9 2-2-.9-2-2-2z" class="st1"/></g><g><path d="M30.2 78.1h-.1l-1-.3c-.3-.1-.4-.4-.3-.6.1-.3.4-.4.6-.3h.1l-.6-1.9v-.3l.5-1.8-1.8.5h-.3l-1.8-.5.5 1.8v.3l-.5 1.8 1.8-.5c.3-.1.5.1.6.3.1.3-.1.5-.3.6l-2.7.8c-.2.1-.4 0-.5-.1-.1-.1-.2-.3-.1-.5l.8-2.6-.8-2.6c-.1-.2 0-.4.1-.5s.3-.2.5-.1l2.6.8 2.6-.8c.2-.1.4 0 .5.1s.2.3.1.5l-.7 2.7.8 2.6c.1.2 0 .4-.1.5-.2 0-.3.1-.5.1z" class="st3"/></g><g><path d="M42.7 56.7h-.1l-1-.3c-.3-.1-.4-.4-.3-.6.1-.3.4-.4.6-.3h.1l-.5-1.8v-.3l.5-1.8-1.9.4h-.3l-1.8-.5.5 1.8v.3l-.5 1.9 1.8-.5c.3-.1.5.1.6.3.1.3-.1.5-.3.6l-2.7.8c-.2.1-.4 0-.5-.1-.1-.1-.2-.3-.1-.5l.8-2.6-.8-2.6c-.1-.2 0-.4.1-.5s.3-.2.5-.1l2.6.7 2.6-.8c.2-.1.4 0 .5.1s.2.3.1.5l-.8 2.6.8 2.6c.1.2 0 .4-.1.5-.1.1-.3.2-.4.2z" class="st5"/></g><g><path d="M225 48.1c-.3 0-.5-.2-.5-.5v-2.4c0-.3.2-.5.5-.5s.5.2.5.5v2.4c0 .3-.2.5-.5.5zM225 54c-.3 0-.5-.2-.5-.5V51c0-.3.2-.5.5-.5s.5.2.5.5v2.4c0 .3-.2.6-.5.6zM229.1 49.8h-2.4c-.3 0-.5-.2-.5-.5s.2-.5.5-.5h2.4c.3 0 .5.2.5.5s-.2.5-.5.5zM223.3 49.8h-2.4c-.3 0-.5-.2-.5-.5s.2-.5.5-.5h2.4c.3 0 .5.2.5.5s-.2.5-.5.5z" class="st1"/></g><g><path d="M217.9 76.6c-.3 0-.5-.2-.5-.5v-2.4c0-.3.2-.5.5-.5s.5.2.5.5v2.4c0 .3-.2.5-.5.5zM217.9 82.4c-.3 0-.5-.2-.5-.5v-2.4c0-.3.2-.5.5-.5s.5.2.5.5v2.4c0 .3-.2.5-.5.5zM222.1 78.3h-2.4c-.3 0-.5-.2-.5-.5s.2-.5.5-.5h2.4c.3 0 .5.2.5.5s-.3.5-.5.5zM216.2 78.3h-2.4c-.3 0-.5-.2-.5-.5s.2-.5.5-.5h2.4c.3 0 .5.2.5.5s-.2.5-.5.5z" class="st4"/></g></svg>