<svg xmlns="http://www.w3.org/2000/svg" id="Layer_1" x="0" y="0" enable-background="new 0 0 256 256" version="1.1" viewBox="0 0 256 256" xml:space="preserve"><style>.st0{fill:#DBFDFF;}
	.st1{fill:#FFFFFF;}
	.st2{fill:#FFFFED;}
	.st3{fill:#48386A;}
	.st4{fill:#9FEAFF;}
	.st5{fill:#FEBE7F;}
	.st6{fill:#FF8584;}</style><path d="M233 112.8c0-18.6-13.6-34-31.4-36.7 2.9-6.4 4.6-13.5 4.6-21 0-27.9-22.6-50.5-50.5-50.5-13.9 0-26.5 5.6-35.6 14.7-8.3-5.9-18.4-9.4-29.3-9.4-27.9 0-50.5 22.6-50.5 50.5 0 8.5 2.1 16.5 5.8 23.5-12 4.4-20.6 15.9-20.6 29.4 0 17.3 14 31.3 31.3 31.3 1.5 0 3-.1 4.5-.3 1.2 26.5 22.8 47.7 49.4 48.2 3.7 24.3 24.6 42.9 50 42.9 27.9 0 50.5-22.6 50.5-50.5 0-11.2-3.6-21.5-9.8-29.9.8-1.9 1.5-3.8 2.1-5.8 16.8-3.5 29.5-18.4 29.5-36.4z" class="st0"/><path d="M57.1 125.1h16.2c2.7 0 4.9 2.2 4.9 4.9 0 1.4-.5 2.6-1.4 3.5-.9.9-2.1 1.4-3.5 1.4H8.7c-2.7 0-4.9-2.2-4.9-4.9 0-1.4.5-2.6 1.4-3.5.9-.9 2.1-1.4 3.5-1.4h48.4zM176.3 130c0 1.4.5 2.6 1.4 3.5.9.9 2.1 1.4 3.5 1.4h64.6c2.7 0 4.9-2.2 4.9-4.9 0-1.4-.5-2.6-1.4-3.5-.9-.9-2.1-1.4-3.5-1.4h-64.6c-2.7 0-4.9 2.2-4.9 4.9z" class="st1"/><path d="M80.9 208.6H160.5V222.6H80.9z" class="st2"/><path d="M160.6 223.6H80.9c-.6 0-1-.4-1-1v-14c0-.6.4-1 1-1h79.6c.6 0 1 .4 1 1v14c.1.6-.4 1-.9 1zm-78.7-2h77.6v-12H81.9v12z" class="st3"/><path d="M85.8 236.7 67.1 236.7 67.1 222.6 174.4 222.6 174.4 236.7 92.5 236.7z" class="st2"/><path d="M174.4 237.7h-82c-.6 0-1-.4-1-1s.4-1 1-1h81v-12H68.1v12h17.8c.6 0 1 .4 1 1s-.4 1-1 1H67.1c-.6 0-1-.4-1-1v-14c0-.6.4-1 1-1h107.4c.6 0 1 .4 1 1v14c-.1.5-.5 1-1.1 1z" class="st3"/><path d="M132 123.2 132 194.6 109.5 194.6 109.5 62.9 132 62.9 132 107.6z" class="st1"/><path d="M132 195.6h-22.5c-.6 0-1-.4-1-1V62.9c0-.6.4-1 1-1H132c.6 0 1 .4 1 1v44.7c0 .6-.4 1-1 1s-1-.4-1-1V63.9h-20.5v129.7H131v-70.3c0-.6.4-1 1-1s1 .4 1 1v71.3c0 .5-.4 1-1 1z" class="st3"/><path d="M132 117.9c-.6 0-1-.4-1-1V114c0-.6.4-1 1-1s1 .4 1 1v2.9c0 .5-.4 1-1 1z" class="st3"/><path d="M116.8 62.9H129.5V195.1H116.8z" class="st4"/><path d="M132 30.6v15.7h-22.5V30.6c0-6.2 5-11.3 11.3-11.3 3.1 0 5.9 1.3 8 3.3 1.9 2.1 3.2 4.9 3.2 8z" class="st1"/><path d="M132 47.3h-22.5c-.6 0-1-.4-1-1V30.6c0-6.8 5.5-12.3 12.3-12.3 3.3 0 6.3 1.3 8.7 3.6 2.3 2.3 3.6 5.4 3.6 8.7v15.7c-.1.5-.5 1-1.1 1zm-21.5-2H131V30.6c0-2.7-1.1-5.3-3-7.3-1.9-1.9-4.5-3-7.3-3-5.7 0-10.3 4.6-10.3 10.3v14.7z" class="st3"/><path d="M129.6 30.6v15.7h-12.7V30.6c0-3.5 2.9-6.4 6.4-6.4s6.3 2.9 6.3 6.4z" class="st4"/><path d="M127.1 46.8h-12.7c-.3 0-.5-.2-.5-.5V30.6c0-3.8 3.1-6.9 6.9-6.9 3.8 0 6.9 3.1 6.9 6.9v15.7c-.1.2-.3.5-.6.5zm-12.2-1h11.7V30.6c0-3.2-2.6-5.9-5.9-5.9s-5.9 2.6-5.9 5.9v15.2zM127.1 195.6h-12.7c-.3 0-.5-.2-.5-.5V62.9c0-.3.2-.5.5-.5h12.7c.3 0 .5.2.5.5v132.2c0 .2-.2.5-.5.5zm-12.2-1h11.7V63.4h-11.7v131.2z" class="st3"/><path d="M157.1 46.3h47.5c.7 4.7 4.8 8.3 9.7 8.3s9-3.6 9.7-8.3h1.1c4.6 0 8.3 3.7 8.3 8.3 0 2.3-.9 4.4-2.4 5.9s-3.6 2.4-5.9 2.4H30.2c-4.6 0-8.3-3.7-8.3-8.3 0-2.3.9-4.4 2.4-5.9s3.6-2.4 5.9-2.4h1.1c.7 4.7 4.8 8.3 9.7 8.3s9-3.6 9.7-8.3h106.4z" class="st1"/><path d="M225 63.9H30.2c-5.1 0-9.3-4.2-9.3-9.3 0-2.5 1-4.8 2.7-6.6s4.1-2.7 6.6-2.7h1.1c.5 0 .9.4 1 .9.6 4.3 4.4 7.5 8.7 7.5s8-3.2 8.7-7.5c.1-.5.5-.9 1-.9h99.9c.6 0 1 .4 1 1s-.4 1-1 1H51.5c-1.1 4.8-5.5 8.3-10.5 8.3s-9.4-3.5-10.5-8.3h-.3c-2 0-3.8.8-5.2 2.1s-2.1 3.2-2.1 5.2c0 4 3.3 7.3 7.3 7.3H225c2 0 3.8-.8 5.2-2.1 1.4-1.4 2.1-3.2 2.1-5.2 0-4-3.3-7.3-7.3-7.3h-.3c-1.1 4.8-5.5 8.3-10.5 8.3s-9.4-3.5-10.5-8.3H157c-.6 0-1-.4-1-1s.4-1 1-1h47.5c.5 0 .9.4 1 .9.6 4.3 4.4 7.5 8.7 7.5s8-3.2 8.7-7.5c.1-.5.5-.9 1-.9h1.1c5.1 0 9.3 4.2 9.3 9.3 0 2.5-1 4.8-2.7 6.6-1.8 1.7-4.1 2.7-6.6 2.7z" class="st3"/><path d="M209.9 58.5c-3-1.4-5.4-3.9-6.9-6.9h-75.6c.7 1 1.1 2.1 1.1 3.4s-.4 2.5-1.1 3.4h82.5zm-126.2 0H118c-.7-1-1.1-2.1-1.1-3.4s.4-2.5 1.1-3.4H56.1c-1.4 3-3.9 5.4-6.9 6.9h34.5z" class="st4"/><path d="M125.4 55.1c0 .6-.2 1.2-.5 1.6-.5.7-1.3 1.1-2.2 1.1-.9 0-1.7-.4-2.2-1.1-.3-.5-.5-1-.5-1.6s.2-1.2.5-1.6c.5-.7 1.3-1.1 2.2-1.1.9 0 1.7.4 2.2 1.1.4.4.5 1 .5 1.6z" class="st5"/><path d="M94.6 194.6H146.8V208.6H94.6z" class="st2"/><path d="M146.9 209.6H94.6c-.6 0-1-.4-1-1v-14c0-.6.4-1 1-1h52.2c.6 0 1 .4 1 1v14c.1.6-.4 1-.9 1zm-51.3-2h50.2v-12H95.6v12zM207.9 58.5h-82.5c-.2 0-.4-.1-.4-.3-.1-.2-.1-.4 0-.5.7-.9 1-2 1-3.1s-.4-2.2-1-3.1c-.1-.2-.1-.4 0-.5.1-.2.3-.3.4-.3H201c.2 0 .4.1.5.3 1.4 2.9 3.7 5.2 6.6 6.6.2.1.3.3.3.6-.1.1-.3.3-.5.3zm-81.6-1H206c-2.2-1.5-4.1-3.5-5.3-5.9h-74.4c.5.9.7 1.9.7 2.9.1 1.1-.2 2.1-.7 3zm-10.2 1H81.7c-.3 0-.5-.2-.5-.5s.2-.5.5-.5h33.5c-.5-.9-.7-1.9-.7-2.9s.2-2 .7-2.9H54.5c-1.2 2.4-3 4.4-5.3 5.9h23.7c.3 0 .5.2.5.5s-.2.5-.5.5H47.3c-.2 0-.4-.2-.5-.4-.1-.2.1-.5.3-.6 2.9-1.4 5.2-3.7 6.6-6.6.1-.2.3-.3.5-.3h61.9c.2 0 .4.1.4.3.1.2.1.4 0 .5-.7.9-1 2-1 3.1s.4 2.2 1 3.1c.1.2.1.4 0 .5-.1.2-.2.3-.4.3z" class="st3"/><path d="M60 125.1h16.2c2.7 0 4.9 2.2 4.9 4.9 0 1.4-.5 2.6-1.4 3.5-.9.9-2.1 1.4-3.5 1.4H11.6c-2.7 0-4.9-2.2-4.9-4.9 0-1.4.5-2.6 1.4-3.5.9-.9 2.1-1.4 3.5-1.4H60zM179.2 130c0 1.4.5 2.6 1.4 3.5.9.9 2.1 1.4 3.5 1.4h64.6c2.7 0 4.9-2.2 4.9-4.9 0-1.4-.5-2.6-1.4-3.5-.9-.9-2.1-1.4-3.5-1.4h-64.6c-2.7 0-4.9 2.2-4.9 4.9z" class="st6"/><path d="M73.3 135.9H8.7c-3.3 0-5.9-2.6-5.9-5.9 0-1.6.6-3 1.7-4.2 1.1-1.1 2.6-1.7 4.2-1.7h41.4c.6 0 1 .4 1 1s-.4 1-1 1H8.7c-1 0-2 .4-2.8 1.1-.7.7-1.1 1.7-1.1 2.8 0 2.1 1.7 3.9 3.9 3.9h64.6c1 0 2-.4 2.8-1.1.7-.7 1.1-1.7 1.1-2.8 0-2.1-1.7-3.9-3.9-3.9H57.1c-.6 0-1-.4-1-1s.4-1 1-1h16.2c3.3 0 5.9 2.6 5.9 5.9 0 1.6-.6 3-1.7 4.2-1.2 1-2.7 1.7-4.2 1.7z" class="st3"/><path d="M9.6 126.1c-.1 0-.3 0-.4-.1-.5-.2-.7-.8-.5-1.3L40 54.2c.2-.5.8-.7 1.3-.5.5.2.7.8.5 1.3l-31.3 70.5c-.1.3-.5.6-.9.6zM71.3 126.1c-.4 0-.8-.2-.9-.6L43.1 63.3c-.2-.5 0-1.1.5-1.3.5-.2 1.1 0 1.3.5l27.3 62.2c.2.5 0 1.1-.5 1.3-.1 0-.2.1-.4.1z" class="st3"/><path d="M20.9 155.3c-6.2-5-10.6-12.2-11.9-20.4h63.9c-2.3 15.5-15.8 27.4-31.9 27.4-5.7 0-11-1.5-15.7-4l-4.4-3z" class="st2"/><path d="M41 163.3c-5.7 0-11.2-1.4-16.1-4.2-.5-.3-.7-.9-.4-1.4.3-.5.9-.7 1.4-.4 4.6 2.6 9.9 3.9 15.2 3.9 15 0 28-10.8 30.7-25.4H10.2c1.4 7.3 5.4 13.9 11.3 18.6.4.3.5 1 .2 1.4-.3.4-1 .5-1.4.2-6.6-5.3-11-12.7-12.2-21 0-.3 0-.6.2-.8.2-.2.5-.3.8-.3H73c.3 0 .6.1.8.3.2.2.3.5.2.8-2.5 16.1-16.7 28.3-33 28.3z" class="st3"/><path d="M41 157.9c-11.5 0-21.9-7.2-26.1-17.9-.1-.3 0-.5.3-.6.3-.1.5 0 .6.3 4 10.3 14.1 17.3 25.1 17.3s21.2-7 25.1-17.3c.1-.3.4-.4.6-.3.3.1.4.4.3.6-4 10.7-14.5 17.9-25.9 17.9zM245.8 135.9h-64.6c-1.6 0-3-.6-4.2-1.7-1.1-1.1-1.7-2.6-1.7-4.2 0-3.3 2.6-5.9 5.9-5.9h64.6c1.6 0 3 .6 4.2 1.7 1.1 1.1 1.7 2.6 1.7 4.2 0 3.2-2.6 5.9-5.9 5.9zm-64.6-9.8c-2.1 0-3.9 1.7-3.9 3.9 0 1 .4 2 1.1 2.8.7.7 1.7 1.1 2.8 1.1h64.6c2.1 0 3.9-1.7 3.9-3.9 0-1-.4-2-1.1-2.8-.7-.7-1.7-1.1-2.8-1.1h-64.6z" class="st3"/><path d="M244.8 126.1c-.4 0-.7-.2-.9-.6L212.6 55c-.2-.5 0-1.1.5-1.3.5-.2 1.1 0 1.3.5l31.3 70.5c.2.5 0 1.1-.5 1.3-.1 0-.2.1-.4.1zM183.2 126.1c-.1 0-.3 0-.4-.1-.5-.2-.7-.8-.5-1.3l27.3-62.2c.2-.5.8-.7 1.3-.5.5.2.7.8.5 1.3l-27.3 62.2c-.2.3-.6.6-.9.6z" class="st3"/><path d="M181.6 134.9c2.3 15.5 15.8 27.4 31.9 27.4s29.6-11.9 31.9-27.4h-63.8z" class="st2"/><path d="M213.5 163.3c-16.3 0-30.5-12.1-32.9-28.3 0-.3 0-.6.2-.8.2-.2.5-.3.8-.3h63.9c.3 0 .6.1.8.3.2.2.3.5.2.8-2.5 16.1-16.7 28.3-33 28.3zm-30.7-27.4c2.8 14.6 15.8 25.4 30.7 25.4s28-10.8 30.7-25.4h-61.4z" class="st3"/><path d="M213.5 157.9c-11.5 0-21.9-7.2-26.1-17.9-.1-.3 0-.5.3-.6.3-.1.5 0 .6.3 4 10.3 14.1 17.3 25.1 17.3s21.2-7 25.1-17.3c.1-.3.4-.4.6-.3.3.1.4.4.3.6-4 10.7-14.4 17.9-25.9 17.9zM78.2 130.5H3.8c-.3 0-.5-.2-.5-.5s.2-.5.5-.5h74.4c.3 0 .5.2.5.5s-.3.5-.5.5zM250.7 130.5h-41.4c-.3 0-.5-.2-.5-.5s.2-.5.5-.5h41.4c.3 0 .5.2.5.5s-.2.5-.5.5zM202.1 130.5h-25.8c-.3 0-.5-.2-.5-.5s.2-.5.5-.5h25.8c.3 0 .5.2.5.5s-.2.5-.5.5z" class="st3"/><path d="M121.1 182.8H130.2V225.20000000000002H121.1z" class="st5" transform="rotate(90 125.65 204.034)"/><path d="M111 213.5 160.6 213.5 160.6 222.6 90.7 222.6 90.7 213.5 103.2 213.5z" class="st5"/><path d="M90 236.7 76.9 236.7 76.9 227.5 174.4 227.5 174.4 236.7 98.8 236.7z" class="st5"/><g><path d="M142 209.1H99.5c-.3 0-.5-.2-.5-.5v-9.1c0-.3.2-.5.5-.5H142c.3 0 .5.2.5.5v9.1c0 .3-.3.5-.5.5zm-42-1h41.4V200H100v8.1z" class="st3"/></g><g><path d="M155.7 223.1H85.8c-.3 0-.5-.2-.5-.5v-9.1c0-.3.2-.5.5-.5h12.5c.3 0 .5.2.5.5s-.2.5-.5.5h-12v8.1h68.8V214H106c-.3 0-.5-.2-.5-.5s.2-.5.5-.5h49.6c.3 0 .5.2.5.5v9.1c.1.3-.2.5-.4.5z" class="st3"/></g><g><path d="M169.5 237.2H93.9c-.3 0-.5-.2-.5-.5s.2-.5.5-.5H169V228H72.5v8.1h12.7c.3 0 .5.2.5.5s-.2.5-.5.5H72c-.3 0-.5-.2-.5-.5v-9.1c0-.3.2-.5.5-.5h97.6c.3 0 .5.2.5.5v9.1c-.1.3-.3.6-.6.6z" class="st3"/></g><g><path d="M120.8 60.9c-2 0-3.9-1-5.1-2.6-.8-1.1-1.2-2.4-1.2-3.7 0-1.4.4-2.6 1.2-3.7 1.2-1.6 3.1-2.6 5.1-2.6s3.9 1 5.1 2.6c.8 1.1 1.2 2.4 1.2 3.7 0 1.4-.4 2.6-1.2 3.7-1.2 1.6-3.1 2.6-5.1 2.6zm0-11.6c-1.7 0-3.3.8-4.3 2.2-.7.9-1 2-1 3.1s.4 2.2 1 3.1c1 1.4 2.6 2.2 4.3 2.2s3.3-.8 4.3-2.2c.7-.9 1-2 1-3.1s-.4-2.2-1-3.1c-1-1.4-2.6-2.2-4.3-2.2z" class="st3"/></g><g><path d="M120.8 57.8c-1 0-2-.5-2.6-1.3-.4-.5-.6-1.2-.6-1.9s.2-1.4.6-1.9c.6-.8 1.6-1.3 2.6-1.3s2 .5 2.6 1.3c.4.5.6 1.2.6 1.9s-.2 1.4-.6 1.9c-.6.8-1.6 1.3-2.6 1.3zm0-5.5c-.7 0-1.4.3-1.8.9-.3.4-.4.8-.4 1.3s.1.9.4 1.3c.4.6 1.1.9 1.8.9s1.4-.3 1.8-.9c.3-.4.4-.8.4-1.3s-.1-.9-.4-1.3c-.5-.5-1.1-.9-1.8-.9z" class="st3"/></g><g><path d="M160.6 223.6H80.9c-.6 0-1-.4-1-1v-14c0-.6.4-1 1-1h79.6c.6 0 1 .4 1 1v14c.1.6-.4 1-.9 1zm-78.7-2h77.6v-12H81.9v12z" class="st3"/></g><g><path d="M174.4 237.7h-82c-.6 0-1-.4-1-1s.4-1 1-1h81v-12H68.1v12h17.8c.6 0 1 .4 1 1s-.4 1-1 1H67.1c-.6 0-1-.4-1-1v-14c0-.6.4-1 1-1h107.4c.6 0 1 .4 1 1v14c-.1.5-.5 1-1.1 1z" class="st3"/></g><g><path d="M146.9 209.6H94.6c-.6 0-1-.4-1-1v-14c0-.6.4-1 1-1h52.2c.6 0 1 .4 1 1v14c.1.6-.4 1-.9 1zm-51.3-2h50.2v-12H95.6v12z" class="st3"/></g><g><path d="M146.9 29.5c-1.6 0-3-1.3-3-3s1.3-3 3-3 3 1.3 3 3-1.4 3-3 3zm0-4.9c-1.1 0-2 .9-2 2s.9 2 2 2 2-.9 2-2-.9-2-2-2z" class="st3"/></g><g><path d="M166.7 198c-1.6 0-3-1.3-3-3s1.3-3 3-3 3 1.3 3 3-1.4 3-3 3zm0-4.9c-1.1 0-2 .9-2 2s.9 2 2 2 2-.9 2-2-.9-2-2-2z" class="st6"/></g><g><path d="M97.4 164.6h-.1l-1-.3c-.3-.1-.4-.4-.3-.6.1-.3.4-.4.6-.3h.1l-.5-1.8v-.3l.5-1.8-1.8.5h-.3l-1.8-.5.5 1.8v.3l-.5 1.8 1.8-.5c.3-.1.5.1.6.3.1.3-.1.5-.3.6l-2.7.8c-.2 0-.4 0-.5-.1-.1-.1-.2-.3-.1-.5l.8-2.6-.8-2.6c-.1-.2 0-.4.1-.5s.3-.2.5-.1l2.6.8 2.6-.8c.2-.1.4 0 .5.1s.2.3.1.5l-.8 2.6.8 2.6c.1.2 0 .4-.1.5-.3 0-.4.1-.5.1z" class="st3"/></g><g><path d="M153 118.6c-.1 0-.3-.1-.4-.1-.1-.1-.2-.3-.1-.5l.8-2.6-.8-2.6c-.1-.2 0-.4.1-.5.1-.1.3-.2.5-.1l2.6.8 2.6-.8c.2-.1.4 0 .5.1s.2.3.1.5l-.8 2.6.8 2.6c.1.2 0 .4-.1.5s-.3.2-.5.1l-1-.3c-.3-.1-.4-.4-.3-.6.1-.3.4-.4.6-.3h.1l-.5-1.8v-.3l.5-1.8-1.8.5h-.3l-1.8-.5.5 1.8v.3l-.5 1.8 1.8-.5c.3-.1.5.1.6.3.1.3-.1.5-.3.6l-2.7.8h-.2z" class="st5"/></g><g><path d="M81.7 28.3c-.3 0-.5-.2-.5-.5v-2.4c0-.3.2-.5.5-.5s.5.2.5.5v2.4c0 .3-.2.5-.5.5zM81.7 34.1c-.3 0-.5-.2-.5-.5v-2.4c0-.3.2-.5.5-.5s.5.2.5.5v2.4c0 .3-.2.5-.5.5zM85.8 30h-2.4c-.3 0-.5-.2-.5-.5s.2-.5.5-.5h2.4c.3 0 .5.2.5.5s-.2.5-.5.5zM80 30h-2.4c-.3 0-.5-.2-.5-.5s.2-.5.5-.5H80c.3 0 .5.2.5.5s-.2.5-.5.5z" class="st6"/></g><g><path d="M41 106.4c-.3 0-.5-.2-.5-.5v-2.4c0-.3.2-.5.5-.5s.5.2.5.5v2.4c0 .3-.3.5-.5.5zM41 112.2c-.3 0-.5-.2-.5-.5v-2.4c0-.3.2-.5.5-.5s.5.2.5.5v2.4c0 .3-.3.5-.5.5zM45.1 108.1h-2.4c-.3 0-.5-.2-.5-.5s.2-.5.5-.5h2.4c.3 0 .5.2.5.5s-.2.5-.5.5zM39.3 108.1h-2.4c-.3 0-.5-.2-.5-.5s.2-.5.5-.5h2.4c.3 0 .5.2.5.5s-.3.5-.5.5z" class="st5"/></g><g><path d="M207.9 102.2c-.3 0-.5-.2-.5-.5v-2.4c0-.3.2-.5.5-.5s.5.2.5.5v2.4c0 .3-.2.5-.5.5zM207.9 108.1c-.3 0-.5-.2-.5-.5v-2.4c0-.3.2-.5.5-.5s.5.2.5.5v2.4c0 .3-.2.5-.5.5zM212 104h-2.4c-.3 0-.5-.2-.5-.5s.2-.5.5-.5h2.4c.3 0 .5.2.5.5s-.2.5-.5.5zM206.2 104h-2.4c-.3 0-.5-.2-.5-.5s.2-.5.5-.5h2.4c.3 0 .5.2.5.5s-.2.5-.5.5z" class="st4"/></g></svg>