<?xml version="1.0" encoding="utf-8"?>
<!-- Generator: Adobe Illustrator 22.1.0, SVG Export Plug-In . SVG Version: 6.00 Build 0)  -->
<svg version="1.1" id="Layer_1" xmlns="http://www.w3.org/2000/svg" xmlns:xlink="http://www.w3.org/1999/xlink" x="0px" y="0px"
	 viewBox="0 0 256 256" style="enable-background:new 0 0 256 256;" xml:space="preserve">
<style type="text/css">
	.st0{fill:#FFFFFF;}
	.st1{fill:#48386A;}
	.st2{fill:#9FEAFF;}
</style>
<g>
	<polygon class="st0" points="39.3,142.2 39.3,3.8 191.6,3.8 191.6,227.1 39.3,227.1 39.3,155.1 	"/>
	<polygon class="st0" points="216.7,72 216.7,252.2 64.4,252.2 64.4,239.6 204.2,239.6 204.2,28.9 216.7,28.9 216.7,63.9 	"/>
	<g>
		<path class="st1" d="M39.3,151.8c-0.6,0-1-0.4-1-1v-2.7c0-0.6,0.4-1,1-1s1,0.4,1,1v2.7C40.3,151.4,39.8,151.8,39.3,151.8z"/>
	</g>
	<g>
		<path class="st1" d="M191.6,228.1H39.3c-0.6,0-1-0.4-1-1v-72c0-0.6,0.4-1,1-1s1,0.4,1,1v71h150.3V4.8H40.3v137.4c0,0.6-0.4,1-1,1
			s-1-0.4-1-1V3.8c0-0.6,0.4-1,1-1h152.3c0.6,0,1,0.4,1,1v223.3C192.6,227.7,192.2,228.1,191.6,228.1z"/>
	</g>
	<polygon class="st2" points="207.2,16.4 207.2,239.6 54.8,239.6 54.8,227.1 194.6,227.1 194.6,16.4 	"/>
	<g>
		<path class="st1" d="M204.2,240.6H51.8c-0.6,0-1-0.4-1-1v-12.5c0-0.6,0.4-1,1-1h138.8V16.4c0-0.6,0.4-1,1-1h12.5c0.6,0,1,0.4,1,1
			v223.3C205.2,240.2,204.7,240.6,204.2,240.6z M52.8,238.6h150.3V17.4h-10.5v209.8c0,0.6-0.4,1-1,1H52.8V238.6z"/>
	</g>
	<g>
		<path class="st1" d="M216.7,253.2H64.4c-0.6,0-1-0.4-1-1v-12.5c0-0.6,0.4-1,1-1h138.8V28.9c0-0.6,0.4-1,1-1h12.5c0.6,0,1,0.4,1,1
			v35c0,0.6-0.4,1-1,1s-1-0.4-1-1v-34h-10.5v209.7c0,0.6-0.4,1-1,1H65.4v10.5h150.3V72c0-0.6,0.4-1,1-1s1,0.4,1,1v180.2
			C217.7,252.7,217.3,253.2,216.7,253.2z"/>
	</g>
	<g>
		<path class="st1" d="M180.9,39.4h-131c-0.6,0-1-0.4-1-1v-22c0-0.6,0.4-1,1-1h131c0.6,0,1,0.4,1,1v22
			C181.9,38.9,181.5,39.4,180.9,39.4z M50.9,37.4h129v-20h-129V37.4z"/>
	</g>
	<polygon class="st2" points="134.4,21.5 178.3,21.5 178.3,33.1 58.5,33.1 58.5,21.5 126.4,21.5 	"/>
	
		<rect x="112.7" y="57.1" transform="matrix(-1.836970e-16 1 -1 -1.836970e-16 235.4725 -1.4586)" class="st2" width="11.6" height="119.8"/>
	<polygon class="st2" points="145.1,144.8 178.4,144.8 178.4,209 124,209 124,144.8 137,144.8 	"/>
	<path class="st2" d="M82.6,64.8c0.7,1.6,1.1,3.3,1.1,5.2c0,7-5.7,12.8-12.8,12.8S58.2,77.1,58.2,70S63.9,57.3,71,57.3
		c3.2,0,6.1,1.2,8.3,3.1L82.6,64.8z"/>
	<g>
		<path class="st1" d="M175.3,33.6H55.5c-0.3,0-0.5-0.2-0.5-0.5V21.5c0-0.3,0.2-0.5,0.5-0.5h67.9c0.3,0,0.5,0.2,0.5,0.5
			s-0.2,0.5-0.5,0.5H56v10.6h118.8V22h-43.5c-0.3,0-0.5-0.2-0.5-0.5s0.2-0.5,0.5-0.5h44c0.3,0,0.5,0.2,0.5,0.5v11.6
			C175.8,33.4,175.6,33.6,175.3,33.6z"/>
	</g>
	<g>
		<path class="st1" d="M181,129H50c-0.6,0-1-0.4-1-1v-22c0-0.6,0.4-1,1-1h70.5c0.6,0,1,0.4,1,1s-0.4,1-1,1H51v20h129v-20h-52
			c-0.6,0-1-0.4-1-1s0.4-1,1-1h53c0.6,0,1,0.4,1,1v22C182,128.6,181.5,129,181,129z"/>
	</g>
	<g>
		<path class="st1" d="M175.4,123.3H55.5c-0.3,0-0.5-0.2-0.5-0.5v-11.6c0-0.3,0.2-0.5,0.5-0.5h119.8c0.3,0,0.5,0.2,0.5,0.5v11.6
			C175.9,123.1,175.7,123.3,175.4,123.3z M56,122.3h118.8v-10.6H56V122.3z"/>
	</g>
	<g>
		<path class="st1" d="M181,215.2h-65.5c-0.6,0-1-0.4-1-1v-74.6c0-0.6,0.4-1,1-1H181c0.6,0,1,0.4,1,1v51.6c0,0.6-0.4,1-1,1
			s-1-0.4-1-1v-50.6h-63.5v72.6H180v-11c0-0.6,0.4-1,1-1s1,0.4,1,1v12C182,214.8,181.5,215.2,181,215.2z"/>
	</g>
	<g>
		<path class="st1" d="M175.4,209.5H121c-0.3,0-0.5-0.2-0.5-0.5v-64.2c0-0.3,0.2-0.5,0.5-0.5h13c0.3,0,0.5,0.2,0.5,0.5
			s-0.2,0.5-0.5,0.5h-12.5v63.2h53.3v-63.2h-32.8c-0.3,0-0.5-0.2-0.5-0.5s0.2-0.5,0.5-0.5h33.3c0.3,0,0.5,0.2,0.5,0.5V209
			C175.9,209.2,175.7,209.5,175.4,209.5z"/>
	</g>
	<g>
		<path class="st1" d="M68,89c-2.9,0-5.6-0.6-8.2-1.8c-0.5-0.2-0.7-0.8-0.5-1.3c0.2-0.5,0.8-0.7,1.3-0.5c2.3,1.1,4.7,1.6,7.3,1.6
			c9.4,0,17-7.6,17-17s-7.6-17-17-17c-9.4,0-17,7.6-17,17c0,4.7,1.9,9.1,5.3,12.3c0.4,0.4,0.4,1,0,1.4c-0.4,0.4-1,0.4-1.4,0
			C51.1,80.1,49,75.3,49,70c0-10.5,8.5-19,19-19s19,8.5,19,19S78.4,89,68,89z"/>
	</g>
	<g>
		<path class="st1" d="M68,83.3c-7.3,0-13.3-5.9-13.3-13.3S60.6,56.8,68,56.8c3.2,0,6.3,1.1,8.7,3.2c0.2,0.2,0.2,0.5,0.1,0.7
			c-0.2,0.2-0.5,0.2-0.7,0.1c-2.2-1.9-5.1-3-8-3c-6.8,0-12.3,5.5-12.3,12.3S61.2,82.3,68,82.3S80.2,76.8,80.2,70
			c0-1.7-0.4-3.4-1.1-5c-0.1-0.3,0-0.5,0.3-0.7c0.3-0.1,0.5,0,0.7,0.3c0.8,1.7,1.1,3.5,1.1,5.4C81.2,77.3,75.3,83.3,68,83.3z"/>
	</g>
	<g>
		<path class="st1" d="M181,53H98.4c-0.6,0-1-0.4-1-1s0.4-1,1-1H181c0.6,0,1,0.4,1,1S181.5,53,181,53z"/>
	</g>
	<g>
		<path class="st1" d="M181,89H98.4c-0.6,0-1-0.4-1-1s0.4-1,1-1H181c0.6,0,1,0.4,1,1S181.5,89,181,89z"/>
	</g>
	<g>
		<path class="st1" d="M181,71h-78.2c-0.6,0-1-0.4-1-1s0.4-1,1-1H181c0.6,0,1,0.4,1,1S181.5,71,181,71z"/>
	</g>
	<g>
		<path class="st1" d="M98.6,140.1H50c-0.3,0-0.5-0.2-0.5-0.5s0.2-0.5,0.5-0.5h48.7c0.3,0,0.5,0.2,0.5,0.5S98.9,140.1,98.6,140.1z"
			/>
	</g>
	<g>
		<path class="st1" d="M105.6,154.9H50c-0.3,0-0.5-0.2-0.5-0.5s0.2-0.5,0.5-0.5h55.6c0.3,0,0.5,0.2,0.5,0.5S105.9,154.9,105.6,154.9
			z"/>
	</g>
	<g>
		<path class="st1" d="M98.6,169.7H50c-0.3,0-0.5-0.2-0.5-0.5s0.2-0.5,0.5-0.5h48.7c0.3,0,0.5,0.2,0.5,0.5S98.9,169.7,98.6,169.7z"
			/>
	</g>
	<g>
		<path class="st1" d="M91.7,184.5H50c-0.3,0-0.5-0.2-0.5-0.5s0.2-0.5,0.5-0.5h41.7c0.3,0,0.5,0.2,0.5,0.5S91.9,184.5,91.7,184.5z"
			/>
	</g>
	<g>
		<path class="st1" d="M105.6,199.3H50c-0.3,0-0.5-0.2-0.5-0.5s0.2-0.5,0.5-0.5h55.6c0.3,0,0.5,0.2,0.5,0.5S105.9,199.3,105.6,199.3
			z"/>
	</g>
	<g>
		<path class="st1" d="M99.7,214.1H73.5c-0.3,0-0.5-0.2-0.5-0.5s0.2-0.5,0.5-0.5h26.1c0.3,0,0.5,0.2,0.5,0.5S99.9,214.1,99.7,214.1z
			"/>
	</g>
	<g>
		<path class="st1" d="M66.3,214.1H54c-0.3,0-0.5-0.2-0.5-0.5s0.2-0.5,0.5-0.5h12.3c0.3,0,0.5,0.2,0.5,0.5S66.5,214.1,66.3,214.1z"
			/>
	</g>
</g>
</svg>
