<?xml version="1.0" encoding="utf-8"?>
<!-- Generator: Adobe Illustrator 22.1.0, SVG Export Plug-In . SVG Version: 6.00 Build 0)  -->
<svg version="1.1" id="Layer_1" xmlns="http://www.w3.org/2000/svg" xmlns:xlink="http://www.w3.org/1999/xlink" x="0px" y="0px"
	 viewBox="0 0 256 256" style="enable-background:new 0 0 256 256;" xml:space="preserve">
<style type="text/css">
	.st0{fill:#FFFFFF;}
	.st1{fill:#48386A;}
	.st2{fill:#9FEAFF;}
</style>
<g>
	<path class="st0" d="M225.3,35.6v13.1H4V35.6C4,28.6,9.6,23,16.6,23h6.3v9.1c0,5.4,4.4,9.7,9.7,9.7s9.7-4.4,9.7-9.7V23h21.5v9.1
		c0,5.4,4.3,9.7,9.7,9.7h0c5.4,0,9.7-4.4,9.7-9.7V23h21.5v9.1c0,5.4,4.4,9.7,9.7,9.7s9.7-4.4,9.7-9.7V23h21.5v9.1
		c0,5.4,4.3,9.7,9.7,9.7h0c5.4,0,9.7-4.4,9.7-9.7V23h21.5v9.1c0,5.4,4.4,9.7,9.7,9.7c5.4,0,9.7-4.4,9.7-9.7V23h6.3
		C219.6,23,225.3,28.6,225.3,35.6z"/>
	<path class="st0" d="M25.4,221.7h-8.8c-6.9,0-12.6-5.6-12.6-12.6V62.1h221.3v67.1c-11.6-8.9-26-14.2-41.7-14.2
		c-37.8,0-68.4,30.6-68.4,68.4c0,14.2,4.3,27.4,11.7,38.3H38.1H25.4z"/>
	<path class="st0" d="M124.4,15.8v16.4c0,5.4-4.4,9.7-9.7,9.7s-9.7-4.4-9.7-9.7V13.9c0-5.4,4.4-9.7,9.7-9.7c2.7,0,5.1,1.1,6.9,2.9
		c0.7,0.7,1.3,1.6,1.8,2.5L124.4,15.8z"/>
	<path class="st0" d="M206.4,13.9v18.2c0,5.4-4.4,9.7-9.7,9.7c-5.4,0-9.7-4.4-9.7-9.7V13.9c0-5.4,4.4-9.7,9.7-9.7
		c2.7,0,5.1,1.1,6.9,2.9C205.3,8.8,206.4,11.2,206.4,13.9z"/>
	<path class="st0" d="M165.4,13.9v18.2c0,5.4-4.4,9.7-9.7,9.7h0c-5.4,0-9.7-4.4-9.7-9.7V13.9c0-5.4,4.3-9.7,9.7-9.7h0
		C161,4.1,165.4,8.5,165.4,13.9z"/>
	<path class="st0" d="M73.6,4.1c5.4,0,9.7,4.4,9.7,9.7v18.2c0,5.4-4.3,9.7-9.7,9.7h0c-5.4,0-9.7-4.4-9.7-9.7V13.9
		c0-2.8,1.2-5.4,3.1-7.2L73.6,4.1z"/>
	<path class="st0" d="M42.3,13.9v18.2c0,5.4-4.4,9.7-9.7,9.7s-9.7-4.4-9.7-9.7V13.9c0-5.4,4.4-9.7,9.7-9.7c2.7,0,5.1,1.1,6.9,2.9
		C41.2,8.8,42.3,11.2,42.3,13.9z"/>
	<path class="st0" d="M244.4,152c4.9,9.4,7.6,20.1,7.6,31.5c0,37.8-30.6,68.4-68.4,68.4c-23.6,0-44.4-11.9-56.7-30.1
		c-2.2-3.2-4.1-6.7-5.7-10.3c-3.8-8.6-6-18.1-6-28c0-3,0.2-6,0.6-9c1.3-10.2,4.9-19.7,10.3-28c4.1-6.4,9.3-12.1,15.2-16.8
		c9.1-7.2,20.1-12.1,32.1-13.9c3.3-0.5,6.8-0.8,10.3-0.8c11.6,0,22.5,2.9,32.1,8c3.4,1.8,6.6,3.9,9.6,6.2c4.3,3.3,8.2,7.1,11.6,11.3
		L244.4,152z"/>
	<g>
		<path class="st1" d="M225.3,49.7H4c-0.6,0-1-0.4-1-1V35.6C3,28.1,9.1,22,16.6,22h6.3c0.6,0,1,0.4,1,1v9.1c0,4.8,3.9,8.7,8.7,8.7
			s8.7-3.9,8.7-8.7V23c0-0.6,0.4-1,1-1h21.5c0.6,0,1,0.4,1,1v9.1c0,4.8,3.9,8.7,8.7,8.7c4.8,0,8.7-3.9,8.7-8.7V23c0-0.6,0.4-1,1-1
			h21.5c0.6,0,1,0.4,1,1v9.1c0,4.8,3.9,8.7,8.7,8.7s8.7-3.9,8.7-8.7V23c0-0.6,0.4-1,1-1h21.5c0.6,0,1,0.4,1,1v9.1
			c0,4.8,3.9,8.7,8.7,8.7c4.8,0,8.8-3.9,8.8-8.7V23c0-0.6,0.4-1,1-1h21.5c0.6,0,1,0.4,1,1v9.1c0,4.8,3.9,8.7,8.7,8.7
			c4.8,0,8.7-3.9,8.7-8.7V23c0-0.6,0.4-1,1-1h6.3c7.5,0,13.6,6.1,13.6,13.6v13.1C226.3,49.2,225.8,49.7,225.3,49.7z M5,47.7h219.3
			V35.6c0-6.4-5.2-11.6-11.6-11.6h-5.3v8.1c0,5.9-4.8,10.7-10.7,10.7c-5.9,0-10.7-4.8-10.7-10.7V24h-19.5v8.1
			c0,5.9-4.8,10.7-10.7,10.7c-5.9,0-10.7-4.8-10.7-10.7V24h-19.5v8.1c0,5.9-4.8,10.7-10.7,10.7s-10.7-4.8-10.7-10.7V24H84.4v8.1
			c0,5.9-4.8,10.7-10.7,10.7c-5.9,0-10.7-4.8-10.7-10.7V24H43.3v8.1c0,5.9-4.8,10.7-10.7,10.7S21.9,38,21.9,32.1V24h-5.3
			C10.2,24,5,29.2,5,35.6V47.7z"/>
	</g>
	<rect x="7" y="48.7" class="st2" width="221.3" height="13.4"/>
	<rect x="17.3" y="183.4" class="st2" width="32.1" height="28"/>
	<polygon class="st2" points="91.6,202 91.6,211.5 59.6,211.5 59.6,183.4 91.6,183.4 91.6,194.8 	"/>
	<path class="st2" d="M124.1,211.5h-22.2v-28h16.2C118.1,193.4,120.3,202.9,124.1,211.5z"/>
	<g>
		<path class="st1" d="M225.3,63.1H4c-0.6,0-1-0.4-1-1V48.7c0-0.6,0.4-1,1-1h221.3c0.6,0,1,0.4,1,1v13.4
			C226.3,62.6,225.8,63.1,225.3,63.1z M5,61.1h219.3V49.7H5V61.1z"/>
	</g>
	<g>
		<path class="st1" d="M34.3,222.7h-3.1c-0.6,0-1-0.4-1-1s0.4-1,1-1h3.1c0.6,0,1,0.4,1,1S34.9,222.7,34.3,222.7z"/>
	</g>
	<g>
		<path class="st1" d="M126.8,222.7H38.1c-0.6,0-1-0.4-1-1s0.4-1,1-1H125c-7.1-11.1-10.9-24-10.9-37.3c0-38.3,31.1-69.4,69.4-69.4
			c14.8,0,28.8,4.5,40.7,13.2V63.1H5v146.1c0,6.4,5.2,11.6,11.6,11.6h8.8c0.6,0,1,0.4,1,1s-0.4,1-1,1h-8.8
			c-7.5,0-13.6-6.1-13.6-13.6V62.1c0-0.6,0.4-1,1-1h221.3c0.6,0,1,0.4,1,1v67.1c0,0.4-0.2,0.7-0.6,0.9c-0.3,0.2-0.7,0.1-1.1-0.1
			c-11.9-9.1-26.1-13.9-41.1-13.9c-37.2,0-67.4,30.3-67.4,67.4c0,13.5,4,26.6,11.5,37.7c0.2,0.3,0.2,0.7,0.1,1
			C127.6,222.5,127.2,222.7,126.8,222.7z"/>
	</g>
	<g>
		<path class="st1" d="M114.6,42.9c-5.9,0-10.7-4.8-10.7-10.7V13.9c0-5.9,4.8-10.7,10.7-10.7c2.9,0,5.6,1.1,7.6,3.1
			c0.8,0.8,1.5,1.7,2,2.8c0.2,0.5,0.1,1.1-0.4,1.3c-0.5,0.2-1.1,0.1-1.3-0.4c-0.4-0.8-1-1.6-1.6-2.2c-1.7-1.7-3.8-2.6-6.2-2.6
			c-4.8,0-8.7,3.9-8.7,8.7v18.2c0,4.8,3.9,8.7,8.7,8.7s8.7-3.9,8.7-8.7V15.8c0-0.6,0.4-1,1-1s1,0.4,1,1v16.4
			C125.4,38,120.6,42.9,114.6,42.9z"/>
	</g>
	<path class="st2" d="M117.6,36.8c-2.6,0-4.7-2.1-4.7-4.7V13.9c0-2.6,2.1-4.7,4.7-4.7c1.3,0,2.4,0.5,3.3,1.4
		c0.9,0.9,1.4,2.1,1.4,3.3v18.2C122.3,34.7,120.2,36.8,117.6,36.8z"/>
	<path class="st2" d="M204.4,21.4v10.7c0,2.6-2.1,4.7-4.7,4.7c-2.6,0-4.7-2.1-4.7-4.7V13.9c0-2.6,2.1-4.7,4.7-4.7
		c1.3,0,2.4,0.5,3.3,1.4c0.9,0.9,1.4,2.1,1.4,3.3v2.9V21.4z"/>
	<path class="st2" d="M158.6,36.8c-2.6,0-4.7-2.1-4.7-4.7V13.9c0-2.6,2.1-4.7,4.7-4.7c2.6,0,4.7,2.1,4.7,4.7v18.2
		C163.4,34.7,161.3,36.8,158.6,36.8L158.6,36.8z"/>
	<path class="st2" d="M76.6,36.8c-2.6,0-4.7-2.1-4.7-4.7V13.9c0-2.6,2.1-4.7,4.7-4.7c2.6,0,4.7,2.1,4.7,4.7v18.2
		C81.3,34.7,79.2,36.8,76.6,36.8L76.6,36.8z"/>
	<path class="st2" d="M40.3,21.4v10.7c0,2.6-2.1,4.7-4.7,4.7c-2.6,0-4.7-2.1-4.7-4.7V13.9c0-2.6,2.1-4.7,4.7-4.7
		c1.3,0,2.4,0.5,3.3,1.4c0.9,0.9,1.4,2.1,1.4,3.3v3V21.4z"/>
	<g>
		<path class="st1" d="M114.6,37.3c-2.9,0-5.2-2.3-5.2-5.2V13.9c0-2.9,2.3-5.2,5.2-5.2c1.4,0,2.7,0.5,3.7,1.5c1,1,1.5,2.3,1.5,3.7
			v18.2C119.8,35,117.5,37.3,114.6,37.3z M114.6,9.7c-2.3,0-4.2,1.9-4.2,4.2v18.2c0,2.3,1.9,4.2,4.2,4.2c2.3,0,4.2-1.9,4.2-4.2V13.9
			c0-1.1-0.4-2.2-1.2-3C116.8,10.1,115.8,9.7,114.6,9.7z"/>
	</g>
	<g>
		<path class="st1" d="M196.7,42.9c-5.9,0-10.7-4.8-10.7-10.7V13.9c0-5.9,4.8-10.7,10.7-10.7c2.9,0,5.6,1.1,7.6,3.1
			c2,2,3.1,4.7,3.1,7.6v18.2C207.4,38,202.6,42.9,196.7,42.9z M196.7,5.1c-4.8,0-8.7,3.9-8.7,8.7v18.2c0,4.8,3.9,8.7,8.7,8.7
			c4.8,0,8.7-3.9,8.7-8.7V13.9c0-2.3-0.9-4.5-2.6-6.2C201.2,6.1,199,5.1,196.7,5.1z"/>
	</g>
	<g>
		<path class="st1" d="M196.7,37.3c-2.9,0-5.2-2.3-5.2-5.2V13.9c0-2.9,2.3-5.2,5.2-5.2c1.4,0,2.7,0.5,3.7,1.5c1,1,1.5,2.3,1.5,3.7
			v2.9c0,0.3-0.2,0.5-0.5,0.5s-0.5-0.2-0.5-0.5v-2.9c0-1.1-0.4-2.2-1.2-3c-0.8-0.8-1.9-1.2-3-1.2c-2.3,0-4.2,1.9-4.2,4.2v18.2
			c0,2.3,1.9,4.2,4.2,4.2c2.3,0,4.2-1.9,4.2-4.2V21.4c0-0.3,0.2-0.5,0.5-0.5s0.5,0.2,0.5,0.5v10.7C201.9,35,199.5,37.3,196.7,37.3z"
			/>
	</g>
	<g>
		<path class="st1" d="M155.7,42.9c-5.9,0-10.7-4.8-10.7-10.7V13.9c0-5.9,4.8-10.7,10.7-10.7c5.9,0,10.8,4.8,10.8,10.7v18.2
			C166.4,38,161.6,42.9,155.7,42.9z M155.7,5.1c-4.8,0-8.7,3.9-8.7,8.7v18.2c0,4.8,3.9,8.7,8.7,8.7c4.8,0,8.8-3.9,8.8-8.7V13.9
			C164.4,9.1,160.5,5.1,155.7,5.1z"/>
	</g>
	<g>
		<path class="st1" d="M155.7,37.3L155.7,37.3c-2.9,0-5.2-2.3-5.2-5.2V13.9c0-2.9,2.3-5.2,5.2-5.2c2.9,0,5.2,2.3,5.2,5.2v18.2
			C160.9,35,158.5,37.3,155.7,37.3z M155.6,9.7c-2.3,0-4.2,1.9-4.2,4.2v18.2c0,2.3,1.9,4.2,4.2,4.2h0c2.3,0,4.2-1.9,4.2-4.2V13.9
			C159.9,11.6,158,9.7,155.6,9.7z"/>
	</g>
	<g>
		<path class="st1" d="M73.6,42.9c-5.9,0-10.7-4.8-10.7-10.7V13.9c0-3,1.3-5.9,3.4-7.9c0.4-0.4,1-0.4,1.4,0.1c0.4,0.4,0.4,1-0.1,1.4
			c-1.8,1.7-2.8,4-2.8,6.4v18.2c0,4.8,3.9,8.7,8.7,8.7c4.8,0,8.7-3.9,8.7-8.7V13.9c0-4.8-3.9-8.7-8.7-8.7c-0.6,0-1-0.4-1-1
			s0.4-1,1-1c5.9,0,10.7,4.8,10.7,10.7v18.2C84.4,38,79.5,42.9,73.6,42.9z"/>
	</g>
	<g>
		<path class="st1" d="M73.6,37.3L73.6,37.3c-2.9,0-5.2-2.3-5.2-5.2V13.9c0-2.9,2.3-5.2,5.2-5.2c2.9,0,5.2,2.3,5.2,5.2v18.2
			C78.8,35,76.5,37.3,73.6,37.3z M73.6,9.7c-2.3,0-4.2,1.9-4.2,4.2v18.2c0,2.3,1.9,4.2,4.2,4.2h0c2.3,0,4.2-1.9,4.2-4.2V13.9
			C77.8,11.6,75.9,9.7,73.6,9.7z"/>
	</g>
	<g>
		<path class="st1" d="M32.6,42.9c-5.9,0-10.7-4.8-10.7-10.7V13.9c0-5.9,4.8-10.7,10.7-10.7c2.9,0,5.6,1.1,7.6,3.1s3.1,4.7,3.1,7.6
			v18.2C43.3,38,38.5,42.9,32.6,42.9z M32.6,5.1c-4.8,0-8.7,3.9-8.7,8.7v18.2c0,4.8,3.9,8.7,8.7,8.7s8.7-3.9,8.7-8.7V13.9
			c0-2.3-0.9-4.5-2.6-6.2C37.1,6.1,34.9,5.1,32.6,5.1z"/>
	</g>
	<g>
		<path class="st1" d="M32.6,37.3c-2.9,0-5.2-2.3-5.2-5.2V13.9c0-2.9,2.3-5.2,5.2-5.2c1.4,0,2.7,0.5,3.7,1.5c1,1,1.5,2.3,1.5,3.7v3
			c0,0.3-0.2,0.5-0.5,0.5s-0.5-0.2-0.5-0.5v-3c0-1.1-0.4-2.2-1.2-3c-0.8-0.8-1.9-1.2-3-1.2c-2.3,0-4.2,1.9-4.2,4.2v18.2
			c0,2.3,1.9,4.2,4.2,4.2c2.3,0,4.2-1.9,4.2-4.2V21.4c0-0.3,0.2-0.5,0.5-0.5s0.5,0.2,0.5,0.5v10.7C37.8,35,35.5,37.3,32.6,37.3z"/>
	</g>
	<g>
		<path class="st1" d="M88.6,101.4H56.6c-0.6,0-1-0.4-1-1v-28c0-0.6,0.4-1,1-1h32.1c0.6,0,1,0.4,1,1v28
			C89.6,100.9,89.2,101.4,88.6,101.4z M57.6,99.4h30.1v-26H57.6V99.4z"/>
	</g>
	<g>
		<path class="st1" d="M131,101.4H98.9c-0.6,0-1-0.4-1-1v-28c0-0.6,0.4-1,1-1H131c0.6,0,1,0.4,1,1v28
			C132,100.9,131.5,101.4,131,101.4z M99.9,99.4H130v-26H99.9V99.4z"/>
	</g>
	<g>
		<path class="st1" d="M173.3,101.4h-32.1c-0.6,0-1-0.4-1-1v-28c0-0.6,0.4-1,1-1h32.1c0.6,0,1,0.4,1,1v28
			C174.3,100.9,173.9,101.4,173.3,101.4z M142.2,99.4h30.1v-26h-30.1V99.4z"/>
	</g>
	<g>
		<path class="st1" d="M215.6,101.4h-32.1c-0.6,0-1-0.4-1-1v-28c0-0.6,0.4-1,1-1h32.1c0.6,0,1,0.4,1,1v28
			C216.6,100.9,216.2,101.4,215.6,101.4z M184.6,99.4h30.1v-26h-30.1V99.4z"/>
	</g>
	<g>
		<path class="st1" d="M46.3,138.4H14.3c-0.6,0-1-0.4-1-1v-28c0-0.6,0.4-1,1-1h32.1c0.6,0,1,0.4,1,1v28
			C47.3,138,46.9,138.4,46.3,138.4z M15.3,136.4h30.1v-26H15.3V136.4z"/>
	</g>
	<g>
		<path class="st1" d="M88.6,138.4H56.6c-0.6,0-1-0.4-1-1v-28c0-0.6,0.4-1,1-1h9.8c0.6,0,1,0.4,1,1s-0.4,1-1,1h-8.8v26h30.1v-26H75
			c-0.6,0-1-0.4-1-1s0.4-1,1-1h13.6c0.6,0,1,0.4,1,1v28C89.6,138,89.2,138.4,88.6,138.4z"/>
	</g>
	<g>
		<path class="st1" d="M131,138.4H98.9c-0.6,0-1-0.4-1-1v-28c0-0.6,0.4-1,1-1H131c0.6,0,1,0.4,1,1v28C132,138,131.5,138.4,131,138.4
			z M99.9,136.4H130v-26H99.9V136.4z"/>
	</g>
	<g>
		<path class="st1" d="M141.2,130.6c-0.1,0-0.3,0-0.4-0.1c-0.3-0.2-0.6-0.5-0.6-0.9v-20.3c0-0.6,0.4-1,1-1h32.1c0.6,0,1,0.4,1,1v6.4
			c0,0.5-0.4,0.9-0.9,1c-11.5,1.7-22.4,6.5-31.6,13.7C141.7,130.6,141.5,130.6,141.2,130.6z M142.2,110.4v17.2
			c8.9-6.6,19.2-10.9,30.1-12.7v-4.5H142.2z"/>
	</g>
	<g>
		<path class="st1" d="M215.6,123.9c-0.2,0-0.3,0-0.5-0.1c-9.6-5.1-20.6-7.8-31.6-7.8c-0.6,0-1-0.4-1-1v-5.6c0-0.6,0.4-1,1-1h32.1
			c0.6,0,1,0.4,1,1v13.6c0,0.4-0.2,0.7-0.5,0.9C216,123.9,215.8,123.9,215.6,123.9z M184.6,114c10.4,0.2,20.8,2.7,30.1,7.3v-10.9
			h-30.1V114z"/>
	</g>
	<g>
		<path class="st1" d="M46.3,175.4H14.3c-0.6,0-1-0.4-1-1v-28c0-0.6,0.4-1,1-1h32.1c0.6,0,1,0.4,1,1v28
			C47.3,175,46.9,175.4,46.3,175.4z M15.3,173.4h30.1v-26H15.3V173.4z"/>
	</g>
	<g>
		<path class="st1" d="M88.6,175.4H56.6c-0.6,0-1-0.4-1-1v-28c0-0.6,0.4-1,1-1h32.1c0.6,0,1,0.4,1,1v28
			C89.6,175,89.2,175.4,88.6,175.4z M57.6,173.4h30.1v-26H57.6V173.4z"/>
	</g>
	<g>
		<path class="st1" d="M115.7,175.4H98.9c-0.6,0-1-0.4-1-1v-28c0-0.6,0.4-1,1-1H126c0.4,0,0.7,0.2,0.9,0.5c0.2,0.3,0.2,0.7,0,1
			c-5.4,8.4-8.8,17.7-10.1,27.6C116.7,175.1,116.2,175.4,115.7,175.4z M99.9,173.4h14.9c1.3-9.3,4.5-18,9.3-26H99.9V173.4z"/>
	</g>
	<g>
		<path class="st1" d="M46.3,212.5H14.3c-0.6,0-1-0.4-1-1v-28c0-0.6,0.4-1,1-1h32.1c0.6,0,1,0.4,1,1v28
			C47.3,212,46.9,212.5,46.3,212.5z M15.3,210.5h30.1v-26H15.3V210.5z"/>
	</g>
	<g>
		<path class="st1" d="M88.6,212.5H56.6c-0.6,0-1-0.4-1-1v-28c0-0.6,0.4-1,1-1h32.1c0.6,0,1,0.4,1,1v11.3c0,0.6-0.4,1-1,1
			s-1-0.4-1-1v-10.3H57.6v26h30.1V202c0-0.6,0.4-1,1-1s1,0.4,1,1v9.5C89.6,212,89.2,212.5,88.6,212.5z"/>
	</g>
	<g>
		<path class="st1" d="M121.1,212.5H98.9c-0.6,0-1-0.4-1-1v-28c0-0.6,0.4-1,1-1h16.2c0.6,0,1,0.4,1,1c0,9.6,2,18.9,5.9,27.6
			c0.1,0.3,0.1,0.7-0.1,1C121.8,212.3,121.5,212.5,121.1,212.5z M99.9,210.5h19.7c-3.5-8.3-5.3-17-5.5-26H99.9V210.5z"/>
	</g>
	<g>
		<path class="st1" d="M225.3,55.9H40.1c-0.3,0-0.5-0.2-0.5-0.5s0.2-0.5,0.5-0.5h185.1c0.3,0,0.5,0.2,0.5,0.5S225.5,55.9,225.3,55.9
			z"/>
	</g>
	<g>
		<path class="st1" d="M32.6,55.9H4c-0.3,0-0.5-0.2-0.5-0.5s0.2-0.5,0.5-0.5h28.6c0.3,0,0.5,0.2,0.5,0.5S32.9,55.9,32.6,55.9z"/>
	</g>
	<g>
		<path class="st1" d="M183.6,252.9c-23.1,0-44.6-11.4-57.5-30.6c-2.2-3.3-4.2-6.8-5.8-10.4c-4-9-6.1-18.6-6.1-28.5
			c0-3,0.2-6.1,0.6-9.1c1.3-10.2,4.8-19.8,10.4-28.4c4.2-6.5,9.4-12.2,15.5-17c9.4-7.4,20.7-12.3,32.5-14.1
			c3.4-0.5,6.9-0.8,10.4-0.8c11.3,0,22.6,2.8,32.5,8.1c3.4,1.8,6.7,3.9,9.8,6.3c4.3,3.3,8.3,7.2,11.7,11.5c0.3,0.4,0.3,1.1-0.2,1.4
			c-0.4,0.3-1.1,0.3-1.4-0.2c-3.3-4.1-7.2-7.9-11.4-11.1c-3-2.3-6.2-4.4-9.5-6.1c-9.7-5.1-20.6-7.8-31.6-7.8
			c-3.4,0-6.8,0.3-10.1,0.8c-11.5,1.7-22.4,6.5-31.6,13.7c-5.9,4.7-11,10.2-15,16.5c-5.4,8.4-8.8,17.7-10.1,27.6
			c-0.4,2.9-0.6,5.9-0.6,8.9c0,9.6,2,18.9,5.9,27.6c1.6,3.5,3.5,6.9,5.6,10.1c12.6,18.6,33.5,29.7,55.9,29.7
			c37.2,0,67.4-30.2,67.4-67.4c0-10.8-2.6-21.5-7.5-31c-0.3-0.5-0.1-1.1,0.4-1.3c0.5-0.3,1.1-0.1,1.3,0.4c5.1,9.8,7.8,20.8,7.8,31.9
			C253,221.7,221.8,252.9,183.6,252.9z"/>
	</g>
	<g>
		<path class="st1" d="M242.5,149.7c-0.4,0-0.7-0.2-0.9-0.5l-0.2-0.4c-0.6-1-0.6-1-1.2-2l-0.3-0.4c-0.3-0.5-0.2-1.1,0.3-1.4
			c0.5-0.3,1.1-0.2,1.4,0.3l0.2,0.4c0.7,1,0.7,1,1.3,2.1l0.2,0.4c0.3,0.5,0.1,1.1-0.4,1.4C242.8,149.6,242.6,149.7,242.5,149.7z"/>
	</g>
	<path class="st2" d="M135.1,155.9c9.8-18.4,29.2-30.9,51.5-30.9c32.2,0,58.4,26.2,58.4,58.4s-26.2,58.4-58.4,58.4
		c-32.2,0-58.4-26.2-58.4-58.4c0-8,1.6-15.7,4.6-22.7L135.1,155.9z"/>
	<g>
		<path class="st1" d="M183.6,242.3c-32.5,0-58.9-26.4-58.9-58.9c0-7.9,1.6-15.6,4.6-22.9c0.1-0.3,0.4-0.4,0.7-0.3
			c0.3,0.1,0.4,0.4,0.3,0.7c-3,7.1-4.6,14.7-4.6,22.5c0,31.9,26,57.9,57.9,57.9s57.9-26,57.9-57.9s-26-57.9-57.9-57.9
			c-21.4,0-40.9,11.7-51,30.6c-0.1,0.2-0.4,0.3-0.7,0.2c-0.2-0.1-0.3-0.4-0.2-0.7c10.3-19.2,30.2-31.1,51.9-31.1
			c32.5,0,58.9,26.4,58.9,58.9S216,242.3,183.6,242.3z"/>
	</g>
	<g>
		<path class="st0" d="M190,183.4c0,1.8-0.8,3.4-2,4.6c-1.1,1.1-2.7,1.8-4.4,1.8c-3.5,0-6.4-2.9-6.4-6.4c0-3.5,2.8-6.3,6.2-6.4
			c0.1,0,0.1,0,0.2,0C187.1,177,190,179.9,190,183.4z"/>
		<path class="st1" d="M183.6,190.8c-4.1,0-7.4-3.3-7.4-7.4c0-3.9,3.2-7.2,7.1-7.4c0.1,0,0.2,0,0.3,0c4.1,0,7.4,3.3,7.4,7.4
			c0,2-0.8,3.9-2.3,5.3C187.3,190.1,185.5,190.8,183.6,190.8z M183.6,178c0,0-0.1,0-0.2,0c-2.9,0.1-5.2,2.5-5.2,5.4
			c0,3,2.4,5.4,5.4,5.4c1.4,0,2.7-0.5,3.7-1.5c1.1-1,1.7-2.4,1.7-3.9C189,180.5,186.5,178,183.6,178z"/>
	</g>
	<g>
		<path class="st1" d="M183.6,141.4c-0.6,0-1-0.4-1-1v-8c0-0.6,0.4-1,1-1s1,0.4,1,1v8C184.6,141,184.1,141.4,183.6,141.4z"/>
	</g>
	<g>
		<path class="st1" d="M162,147.2c-0.3,0-0.7-0.2-0.9-0.5l-4-6.9c-0.3-0.5-0.1-1.1,0.4-1.4c0.5-0.3,1.1-0.1,1.4,0.4l4,6.9
			c0.3,0.5,0.1,1.1-0.4,1.4C162.4,147.1,162.2,147.2,162,147.2z"/>
	</g>
	<g>
		<path class="st1" d="M146.2,162.9c-0.2,0-0.3,0-0.5-0.1l-6.9-4c-0.5-0.3-0.6-0.9-0.4-1.4c0.3-0.5,0.9-0.6,1.4-0.4l6.9,4
			c0.5,0.3,0.6,0.9,0.4,1.4C146.9,162.7,146.6,162.9,146.2,162.9z"/>
	</g>
	<g>
		<path class="st1" d="M140.4,184.4h-8c-0.6,0-1-0.4-1-1s0.4-1,1-1h8c0.6,0,1,0.4,1,1S141,184.4,140.4,184.4z"/>
	</g>
	<g>
		<path class="st1" d="M139.2,209.9c-0.3,0-0.7-0.2-0.9-0.5c-0.3-0.5-0.1-1.1,0.4-1.4l6.9-4c0.5-0.3,1.1-0.1,1.4,0.4
			c0.3,0.5,0.1,1.1-0.4,1.4l-6.9,4C139.5,209.9,139.3,209.9,139.2,209.9z"/>
	</g>
	<g>
		<path class="st1" d="M157.8,228.7c-0.2,0-0.3,0-0.5-0.1c-0.5-0.3-0.6-0.9-0.4-1.4l4-6.9c0.3-0.5,0.9-0.6,1.4-0.4
			c0.5,0.3,0.6,0.9,0.4,1.4l-4,6.9C158.5,228.5,158.2,228.7,157.8,228.7z"/>
	</g>
	<g>
		<path class="st1" d="M183.4,235.6c-0.6,0-1-0.4-1-1v-8c0-0.6,0.4-1,1-1s1,0.4,1,1v8C184.4,235.1,183.9,235.6,183.4,235.6z"/>
	</g>
	<g>
		<path class="st1" d="M208.9,228.8c-0.3,0-0.7-0.2-0.9-0.5l-4-6.9c-0.3-0.5-0.1-1.1,0.4-1.4c0.5-0.3,1.1-0.1,1.4,0.4l4,6.9
			c0.3,0.5,0.1,1.1-0.4,1.4C209.2,228.7,209.1,228.8,208.9,228.8z"/>
	</g>
	<g>
		<path class="st1" d="M227.6,210.1c-0.2,0-0.3,0-0.5-0.1l-6.9-4c-0.5-0.3-0.6-0.9-0.4-1.4c0.3-0.5,0.9-0.6,1.4-0.4l6.9,4
			c0.5,0.3,0.6,0.9,0.4,1.4C228.3,210,228,210.1,227.6,210.1z"/>
	</g>
	<g>
		<path class="st1" d="M234.5,184.6h-8c-0.6,0-1-0.4-1-1s0.4-1,1-1h8c0.6,0,1,0.4,1,1S235.1,184.6,234.5,184.6z"/>
	</g>
	<g>
		<path class="st1" d="M220.8,163.1c-0.3,0-0.7-0.2-0.9-0.5c-0.3-0.5-0.1-1.1,0.4-1.4l6.9-4c0.5-0.3,1.1-0.1,1.4,0.4
			c0.3,0.5,0.1,1.1-0.4,1.4l-6.9,4C221.1,163,221,163.1,220.8,163.1z"/>
	</g>
	<g>
		<path class="st1" d="M205.1,147.3c-0.2,0-0.3,0-0.5-0.1c-0.5-0.3-0.6-0.9-0.4-1.4l4-6.9c0.3-0.5,0.9-0.6,1.4-0.4
			c0.5,0.3,0.6,0.9,0.4,1.4l-4,6.9C205.8,147.1,205.4,147.3,205.1,147.3z"/>
	</g>
	<g>
		<path class="st1" d="M183.3,178c-0.6,0-1-0.4-1-1V150c0-0.6,0.4-1,1-1s1,0.4,1,1V177C184.3,177.6,183.9,178,183.3,178z"/>
	</g>
	<g>
		<path class="st1" d="M209.4,210.5c-0.3,0-0.5-0.1-0.7-0.3l-21.4-21.4c-0.4-0.4-0.4-1,0-1.4s1-0.4,1.4,0l21.4,21.4
			c0.4,0.4,0.4,1,0,1.4C210,210.4,209.7,210.5,209.4,210.5z"/>
	</g>
</g>
</svg>
