<svg xmlns="http://www.w3.org/2000/svg" id="Layer_1" x="0" y="0" version="1.1" viewBox="0 0 256 256" xml:space="preserve"><style>.st1{fill:#fff}.st2{fill:#48386a}.st3{fill:#9feaff}.st4{fill:#ff8584}.st6{fill:#febe7f}</style><path fill="#dbfdff" d="M245.4 147.5c0-20.3-11.9-37.7-29.1-45.8 2.7-6.2 4.2-13 4.2-20.3 0-27.9-22.6-50.5-50.5-50.5-4.5 0-8.9.6-13 1.7-9-13.9-24.6-23.1-42.4-23.1-14.9 0-28.3 6.4-37.5 16.7-1.5-.1-2.9-.2-4.4-.2-27.9 0-50.5 22.6-50.5 50.5 0 20.8 12.5 38.6 30.4 46.4-.4 2.7-.7 5.5-.7 8.3 0 5.8 1 11.3 2.8 16.5-25 3.1-44.3 24.3-44.3 50.1 0 27.9 22.6 50.5 50.5 50.5 14.5 0 27.5-6.1 36.7-15.8 8.3 5.9 18.3 9.3 29.2 9.3 8 0 15.5-1.9 22.2-5.2 8.3 6 18.4 9.5 29.4 9.5 27.9 0 50.5-22.6 50.5-50.5 0-3.4-.3-6.7-1-9.9 10.7-9.2 17.5-22.9 17.5-38.2z"/><path d="M238.3 39.9l-19.2 4 12.5-12.5 19.3-4z" class="st1"/><path d="M219.1 44.4c-.2 0-.4-.1-.4-.3-.1-.2-.1-.4.1-.6L231.3 31c.1-.1.2-.1.3-.1l19.3-4c.2 0 .4.1.5.3.1.2.1.4-.1.6l-12.5 12.5c-.1.1-.2.1-.3.1l-19.3 4h-.1zm12.7-12.5l-11.2 11.2 17.5-3.6 11.2-11.2-17.5 3.6zm6.5 8z" class="st2"/><path d="M223.5 54.8l-2.9 2.9-19.3 4 12.5-12.5 19.3-4-6.3 6.2z" class="st1"/><path d="M201.3 62.2c-.2 0-.4-.1-.4-.3-.1-.2-.1-.4.1-.6l12.5-12.5c.1-.1.2-.1.3-.1l19.3-4c.2 0 .4.1.5.3.1.2.1.4-.1.6l-6.3 6.3c-.2.2-.5.2-.7 0s-.2-.5 0-.7l5.1-5.1-17.5 3.6-11.2 11.2 17.5-3.6 2.8-2.8c.2-.2.5-.2.7 0s.2.5 0 .7L221 58c-.1.1-.2.1-.3.1l-19.3 4c0 .1 0 .1-.1.1z" class="st2"/><path d="M237.1 24c0 1.2-.4 2.3-1.3 3.2l-119 119c-1.8 1.8-4.7 1.8-6.5 0-1.8-1.8-1.8-4.7 0-6.5l12.8-12.8 12-12L147 103l35.6-35.6 4-4 42.6-42.6c1.8-1.8 4.7-1.8 6.5 0 1 .9 1.4 2 1.4 3.2z" class="st1"/><path d="M196.6 212.4c15.7-18.8 25.1-43 25.1-69.3 0-28.2-10.8-54-28.6-73.3l-76.4 76.4c-1.8 1.8-4.7 1.8-6.5 0-1.8-1.8-1.8-4.7 0-6.5l12.8-12.8 12-12 11.9-11.9 35.6-35.6 4-4c-19.3-17.8-45.1-28.7-73.4-28.7C53.5 34.7 4.9 83.3 4.9 143.1s48.6 108.4 108.4 108.4c30.4 0 58-12.6 77.7-32.8l5.6-6.3z" class="st1"/><path d="M113.3 252.6C53 252.6 3.9 203.5 3.9 143.1 3.9 82.8 53 33.7 113.3 33.7c27.5 0 53.8 10.3 74.1 29 .2.2.3.4.3.7 0 .3-.1.5-.3.7L111 140.5c-.7.7-1 1.6-1 2.5s.4 1.8 1 2.5c1.4 1.4 3.6 1.4 5 0l76.4-76.4c.2-.2.4-.3.7-.3.3 0 .5.1.7.3 18.6 20.2 28.8 46.5 28.8 74 0 25.5-9 50.3-25.3 70-.4.4-1 .5-1.4.1-.4-.4-.5-1-.1-1.4 16-19.3 24.9-43.6 24.9-68.7 0-26.6-9.8-52.1-27.6-71.8l-75.6 75.6c-2.2 2.2-5.7 2.2-7.9 0-1.1-1.1-1.6-2.5-1.6-3.9 0-1.5.6-2.9 1.6-3.9l75.6-75.6c-19.8-17.9-45.3-27.7-72-27.7C54.1 35.7 5.9 83.9 5.9 143.1s48.2 107.4 107.4 107.4c29.2 0 56.5-11.6 77-32.5.4-.4 1-.4 1.4 0 .4.4.4 1 0 1.4-20.8 21.4-48.7 33.2-78.4 33.2z" class="st2"/><path d="M201.6 212.4c15.7-18.8 25.1-43 25.1-69.3 0-28.2-10.8-54-28.6-73.3l-76.4 76.4c-1.8 1.8-4.7 1.8-6.5 0-1.8-1.8-1.8-4.7 0-6.5l12.8-12.8 12-12 11.9-11.9 35.6-35.6 4-4c-19.3-17.8-45.1-28.7-73.4-28.7C58.5 34.7 9.9 83.3 9.9 143.1s48.6 108.4 108.4 108.4c30.4 0 58-12.6 77.7-32.8l5.6-6.3z" class="st3"/><path d="M189.2 73.8l-72.4 72.4c-1.8 1.8-4.7 1.8-6.5 0-1.8-1.8-1.8-4.7 0-6.5l12.8-12.8 12-12L147 103l35.6-35.6c-18.3-16.8-42.7-27.1-69.4-27.1-56.7 0-102.9 46.1-102.9 102.9 0 56.7 46.1 102.9 102.9 102.9S216.1 200 216.1 143.2c.1-26.8-10.2-51.1-26.9-69.4z" class="st1"/><path d="M113.3 246.5c-57 0-103.4-46.4-103.4-103.4S56.3 39.8 113.3 39.8c25.9 0 50.7 9.7 69.8 27.2.1.1.2.2.2.4s0 .3-.1.4l-72.4 72.4c-.8.8-1.2 1.8-1.2 2.9 0 1.1.4 2.1 1.2 2.9 1.6 1.6 4.2 1.6 5.7 0l72.4-72.4c.1-.1.2-.1.4-.1.1 0 .3.1.4.2 17.5 19.1 27.1 43.9 27.1 69.7-.1 56.7-46.5 103.1-103.5 103.1zm0-205.7c-56.4 0-102.4 45.9-102.4 102.4s45.9 102.4 102.4 102.4 102.4-45.9 102.4-102.4c0-25.4-9.4-49.7-26.5-68.6l-72 72c-2 2-5.2 2-7.2 0-1-1-1.5-2.2-1.5-3.6s.5-2.6 1.5-3.6l72-72c-18.9-17.2-43.2-26.6-68.7-26.6z" class="st2"/><path d="M62.8 74.5c-.3 0-.6-.1-.8-.4-.3-.4-.2-1.1.2-1.4l3-2.1c.5-.3 1.1-.2 1.4.3.3.5.2 1.1-.3 1.4l-3 2.1c-.1 0-.3.1-.5.1z" class="st2"/><path d="M61.6 78.5c-18 15.8-29.3 38.9-29.3 64.7 0 47.5 38.6 86.1 86.1 86.1s86.1-38.6 86.1-86.1c0-22.1-8.4-42.2-22.1-57.5l-60.5 60.5c-1.8 1.8-4.7 1.8-6.5 0-1.8-1.8-1.8-4.7 0-6.5l12.8-12.8 12-12 11.9-11.9 23.7-23.7c-15.3-13.8-35.5-22.2-57.6-22.2-15.7 0-30.5 4.2-43.2 11.7l-13.4 9.7z" class="st3"/><path d="M113.3 230.2c-48 0-87.1-39.1-87.1-87.1 0-25 10.8-48.9 29.7-65.4.4-.4 1-.3 1.4.1.4.4.3 1-.1 1.4-18.4 16.2-29 39.5-29 63.9 0 46.9 38.2 85.1 85.1 85.1s85.1-38.2 85.1-85.1c0-20.6-7.5-40.5-21.1-56l-59.8 59.8c-2.2 2.2-5.7 2.2-7.9 0-1.1-1.1-1.6-2.5-1.6-3.9 0-1.5.6-2.9 1.6-3.9l59.8-59.8c-15.5-13.7-35.4-21.2-56.1-21.2-15 0-29.8 4-42.7 11.5-.5.3-1.1.1-1.4-.4-.3-.5-.1-1.1.4-1.4C82.8 60.1 98 56 113.3 56c21.5 0 42.2 8 58.2 22.4.2.2.3.4.3.7 0 .3-.1.5-.3.7L111 140.3c-.7.7-1 1.6-1 2.5s.4 1.8 1 2.5c1.4 1.4 3.6 1.4 5 0L176.6 85c.2-.2.5-.3.7-.3.3 0 .5.1.7.3 14.4 16 22.3 36.7 22.3 58.1.1 48-39 87.1-87 87.1z" class="st2"/><path d="M118.6 212.2c35.7-2.7 64-32.7 64-69.1 0-17.5-6.5-33.4-17.2-45.6l-48.7 48.7c-1.8 1.8-4.7 1.8-6.5 0-1.8-1.8-1.8-4.7 0-6.5l12.8-12.8 12-12 11.9-11.9L159 91.1c-12.2-10.8-28.2-17.3-45.7-17.3-38.2 0-69.3 31.1-69.3 69.3 0 36.7 28.6 66.8 64.7 69.2l9.9-.1z" class="st1"/><path d="M108.7 212.8c-36.6-2.4-65.2-33-65.2-69.7 0-38.5 31.3-69.8 69.8-69.8 17 0 33.3 6.2 46 17.4.1.1.2.2.2.4 0 .1 0 .3-.1.4l-48.7 48.7c-.8.8-1.2 1.8-1.2 2.9 0 1.1.4 2.1 1.2 2.9 1.6 1.6 4.2 1.6 5.7 0l48.7-48.7c.1-.1.2-.2.4-.1.1 0 .3.1.4.2 11.1 12.7 17.3 29 17.3 45.9 0 36.3-28.3 66.9-64.5 69.6-.3 0-.5-.2-.5-.5s.2-.5.5-.5c35.6-2.7 63.5-32.9 63.5-68.6 0-16.5-5.9-32.4-16.7-44.9l-48.3 48.3c-2 2-5.2 2-7.2 0-1-1-1.5-2.2-1.5-3.6s.5-2.6 1.5-3.6l48.3-48.3c-12.5-10.8-28.4-16.8-45-16.8-37.9 0-68.8 30.9-68.8 68.8 0 36.1 28.2 66.3 64.2 68.7.3 0 .5.3.5.5s-.2.4-.5.4z" class="st2"/><path d="M113.3 212.9c-.3 0-.5-.2-.5-.5s.2-.5.5-.5h2.5c.3 0 .5.2.5.5s-.2.5-.5.5h-2.5z" class="st2"/><path d="M68.4 159.6c6.9 20.9 26.7 36.1 49.9 36.1 29 0 52.5-23.6 52.5-52.5 0-12.8-4.6-24.6-12.3-33.7l-36.8 36.8c-1.8 1.8-4.7 1.8-6.5 0-1.8-1.8-1.8-4.7 0-6.5L128 127l12-12 11.9-11.9c-9.1-7.7-21-12.4-33.8-12.4-29 0-52.5 23.6-52.5 52.5 0 4.2.5 8.3 1.4 12.2l1.4 4.2z" class="st3"/><path d="M113.3 196.7c-23.1 0-43.6-14.8-50.8-36.7-.2-.5.1-1.1.6-1.3.5-.2 1.1.1 1.3.6 7 21.2 26.7 35.4 48.9 35.4 28.4 0 51.5-23.1 51.5-51.5 0-11.7-4-23.1-11.3-32.2l-36 36c-2.2 2.2-5.7 2.2-7.9 0-1.1-1.1-1.6-2.5-1.6-3.9 0-1.5.6-2.9 1.6-3.9l36-36c-9.1-7.4-20.6-11.4-32.3-11.4-28.4 0-51.5 23.1-51.5 51.5 0 4 .5 8.1 1.4 12 .1.5-.2 1.1-.7 1.2-.5.1-1.1-.2-1.2-.7-1-4.1-1.5-8.2-1.5-12.5 0-29.5 24-53.5 53.5-53.5 12.6 0 24.8 4.5 34.5 12.6.2.2.3.4.4.7 0 .3-.1.6-.3.7l-36.8 36.8c-.7.7-1 1.6-1 2.5s.4 1.8 1 2.5c1.4 1.4 3.6 1.4 5 0l36.8-36.8c.2-.2.5-.3.8-.3.3 0 .5.1.7.4 8.1 9.6 12.5 21.8 12.5 34.4-.1 29.4-24.1 53.4-53.6 53.4z" class="st2"/><path d="M140 166.9c-6.6 7.4-16.1 12-26.7 12-19.7 0-35.8-16-35.8-35.8 0-19.7 16-35.8 35.8-35.8 8.3 0 15.9 2.8 21.9 7.5l-12 12-12.8 12.8c-1.8 1.8-1.8 4.7 0 6.5 1.8 1.8 4.7 1.8 6.5 0l24.9-24.9c4.7 6 7.4 13.6 7.4 21.8 0 6.3-1.6 12.3-4.5 17.4l-4.7 6.5z" class="st1"/><path d="M113.3 179.4c-20 0-36.3-16.3-36.3-36.3 0-20 16.3-36.3 36.3-36.3 8.1 0 15.8 2.6 22.2 7.6.1.1.2.2.2.4s0 .3-.1.4l-24.9 24.9c-.8.8-1.2 1.8-1.2 2.9 0 1.1.4 2.1 1.2 2.9 1.6 1.6 4.2 1.6 5.7 0l24.9-24.9c.1-.1.2-.2.4-.1.1 0 .3.1.4.2 4.9 6.4 7.5 14 7.5 22.1 0 6.2-1.6 12.3-4.6 17.7-.1.2-.4.3-.7.2-.2-.1-.3-.4-.2-.7 2.9-5.2 4.5-11.2 4.5-17.2 0-7.6-2.4-14.9-7-21l-24.4 24.4c-2 2-5.2 2-7.2 0-1-1-1.5-2.2-1.5-3.6s.5-2.6 1.5-3.6l24.5-24.5c-6.1-4.6-13.4-7.1-21.2-7.1-19.5 0-35.3 15.8-35.3 35.3s15.8 35.3 35.3 35.3c10 0 19.6-4.3 26.3-11.8.2-.2.5-.2.7 0 .2.2.2.5 0 .7-6.8 7.7-16.7 12.1-27 12.1z" class="st2"/><path d="M137.3 143.1c0 10.5-8.5 19-19 19s-19-8.5-19-19 8.5-19 19-19c3.6 0 7 1 9.9 2.8l-12.8 12.8c-1.8 1.8-1.8 4.7 0 6.5 1.8 1.8 4.7 1.8 6.5 0l12.8-12.8c1.6 2.8 2.6 6.2 2.6 9.7z" class="st4"/><path fill="#ffffed" d="M237.1 24c0 1.2-.4 2.3-1.3 3.2l-119 119c-1.8 1.8-4.7 1.8-6.5 0-1.8-1.8-1.8-4.7 0-6.5l12.8-12.8 12-12L147 103l35.6-35.6 4-4 42.6-42.6c1.8-1.8 4.7-1.8 6.5 0 1 .9 1.4 2 1.4 3.2z"/><path d="M113.6 148.5c-1.4 0-2.8-.5-3.9-1.6s-1.6-2.5-1.6-3.9c0-1.5.6-2.9 1.6-3.9l119-119c2.2-2.2 5.7-2.2 7.9 0 1.1 1.1 1.6 2.5 1.6 3.9s-.6 2.9-1.6 3.9l-119 119c-1.2 1.1-2.6 1.6-4 1.6zM232.5 20.4c-.9 0-1.8.3-2.5 1l-119 119c-.7.7-1 1.6-1 2.5s.4 1.8 1 2.5c1.4 1.4 3.6 1.4 5 0l119-119c.7-.7 1-1.6 1-2.5s-.4-1.8-1-2.5c-.6-.6-1.5-1-2.5-1z" class="st2"/><path d="M113.3 163.1c-11 0-20-9-20-20s9-20 20-20c3.7 0 7.3 1 10.4 2.9.3.2.4.4.5.7s-.1.6-.3.8l-12.8 12.8c-.7.7-1 1.6-1 2.5s.4 1.8 1 2.5c1.4 1.4 3.6 1.4 5 0l12.8-12.8c.2-.2.5-.3.8-.3.3 0 .6.2.7.5 1.9 3.1 2.8 6.6 2.8 10.3.1 11.2-8.9 20.1-19.9 20.1zm0-38c-9.9 0-18 8.1-18 18s8.1 18 18 18 18-8.1 18-18c0-2.8-.7-5.6-1.9-8.1l-11.9 11.9c-2.2 2.2-5.7 2.2-7.9 0-1.1-1.1-1.6-2.5-1.6-3.9 0-1.5.6-2.9 1.6-3.9l11.9-11.9c-2.5-1.4-5.3-2.1-8.2-2.1z" class="st2"/><path d="M110.3 146.7c-.1 0-.3 0-.4-.1-.2-.2-.2-.5 0-.7L162.8 93c.2-.2.5-.2.7 0s.2.5 0 .7l-52.8 52.8c-.1.1-.2.2-.4.2zM167.7 89.3c-.1 0-.3 0-.4-.1-.2-.2-.2-.5 0-.7l68.1-68.1c.2-.2.5-.2.7 0s.2.5 0 .7L168 89.2c0 .1-.2.1-.3.1z" class="st2"/><path d="M241 36.6l-17.9 3.7 11.6-11.6 17.8-3.7zM228 51.8l-2.9 2.9-19.3 4 12.5-12.5 19.3-4-6.3 6.2z" class="st6"/><path d="M216.6 18.2l-4 19.3L225.1 25l4-19.3z" class="st1"/><path d="M212.6 38c-.1 0-.2 0-.2-.1-.2-.1-.3-.3-.3-.5l4-19.3c0-.1.1-.2.1-.3l12.5-12.5c.2-.2.4-.2.6-.1.2.1.3.3.3.5l-4 19.3c0 .1-.1.2-.1.3L213 37.8c-.1.1-.3.2-.4.2zm4.5-19.6l-3.6 17.5 11.2-11.2 3.6-17.5-11.2 11.2z" class="st2"/><g><path d="M198.9 35.9l-4 19.3 12.5-12.5 4-19.3z" class="st1"/><path d="M194.9 55.7c-.1 0-.2 0-.2-.1-.2-.1-.3-.3-.3-.5l4-19.3c0-.1.1-.2.1-.3L211 23.1c.2-.2.4-.2.6-.1.2.1.3.3.3.5l-4 19.3c0 .1-.1.2-.1.3l-12.5 12.5c-.2.1-.3.1-.4.1zm4.4-19.5l-3.6 17.5 11.2-11.2 3.6-17.5-11.2 11.2z" class="st2"/></g><g><path d="M219.1 44.9c-.4 0-.7-.2-.9-.5-.2-.4-.1-.9.2-1.2l12.5-12.5c.1-.1.3-.2.5-.3l19.3-4c.4-.1.9.1 1.1.5.2.4.1.9-.2 1.2l-12.5 12.5c-.1.1-.3.2-.5.3l-19.3 4h-.2zm13-12.6l-9.9 9.9 15.7-3.3 9.9-9.9-15.7 3.3zm6.2 7.6z" class="st2"/></g><g><path d="M201.3 62.7c-.4 0-.7-.2-.9-.5-.2-.4-.1-.9.2-1.2l12.5-12.5c.1-.1.3-.2.5-.3l19.3-4c.4-.1.9.1 1.1.5s.1.9-.2 1.2l-6.3 6.3c-.4.4-1 .4-1.4 0s-.4-1 0-1.4l3.9-3.9-15.7 3.3-9.9 9.9 15.7-3.3 2.7-2.7c.4-.4 1-.4 1.4 0 .4.4.4 1 0 1.4l-2.9 2.9c-.1.1-.3.2-.5.3l-19.3 4h-.2z" class="st2"/></g><path d="M202.3 32.4l-4 19.3 12.5-12.5 4-19.3zM219.9 16l-3.7 17.8 11.5-11.5 3.7-17.9z" class="st6"/><g><path d="M212.6 38.5c-.2 0-.3 0-.5-.1-.4-.2-.6-.6-.5-1.1l4-19.3c0-.2.1-.4.3-.5L228.4 5c.3-.3.8-.4 1.2-.2.4.2.6.7.5 1.1l-4 19.3c0 .2-.1.4-.3.5l-12.5 12.5c-.2.2-.4.3-.7.3zm4.9-19.8l-3.3 15.7 9.9-9.9 3.3-15.7-9.9 9.9z" class="st2"/></g><g><path d="M194.9 56.2c-.2 0-.3 0-.5-.1-.4-.2-.6-.6-.5-1.1l4-19.3c0-.2.1-.4.3-.5l12.5-12.5c.3-.3.8-.4 1.2-.2.4.2.6.7.5 1.1l-4 19.3c0 .2-.1.4-.3.5l-12.5 12.5c-.2.2-.5.3-.7.3zm4.9-19.8l-3.3 15.7 9.9-9.9 3.3-15.7-9.9 9.9z" class="st2"/></g><g><path d="M113.3 252.6C53 252.6 3.9 203.5 3.9 143.1 3.9 82.8 53 33.7 113.3 33.7c27.5 0 53.8 10.3 74.1 29 .2.2.3.4.3.7 0 .3-.1.5-.3.7L111 140.5c-.7.7-1 1.6-1 2.5s.4 1.8 1 2.5c1.4 1.4 3.6 1.4 5 0l76.4-76.4c.2-.2.4-.3.7-.3.3 0 .5.1.7.3 18.6 20.2 28.8 46.5 28.8 74 0 25.5-9 50.3-25.3 70-.4.4-1 .5-1.4.1-.4-.4-.5-1-.1-1.4 16-19.3 24.9-43.6 24.9-68.7 0-26.6-9.8-52.1-27.6-71.8l-75.6 75.6c-2.2 2.2-5.7 2.2-7.9 0-1.1-1.1-1.6-2.5-1.6-3.9 0-1.5.6-2.9 1.6-3.9l75.6-75.6c-19.8-17.9-45.3-27.7-72-27.7C54.1 35.7 5.9 83.9 5.9 143.1s48.2 107.4 107.4 107.4c29.2 0 56.5-11.6 77-32.5.4-.4 1-.4 1.4 0 .4.4.4 1 0 1.4-20.8 21.4-48.7 33.2-78.4 33.2z" class="st2"/></g><g><path d="M21.6 217.9c-1.6 0-3-1.3-3-3s1.3-3 3-3 3 1.3 3 3-1.4 3-3 3zm0-5c-1.1 0-2 .9-2 2s.9 2 2 2 2-.9 2-2-.9-2-2-2z" class="st2"/></g><g><path d="M109 24.6c-1.6 0-3-1.3-3-3s1.3-3 3-3 3 1.3 3 3-1.4 3-3 3zm0-5c-1.1 0-2 .9-2 2s.9 2 2 2 2-.9 2-2-.9-2-2-2z" class="st4"/></g><g><path d="M170.3 42.5c-.1 0-.3-.1-.4-.1-.1-.1-.2-.3-.1-.5l.8-2.6-.8-2.6c-.1-.2 0-.4.1-.5.1-.1.3-.2.5-.1l2.6.8 2.6-.8c.2-.1.4 0 .5.1s.2.3.1.5l-.8 2.6.8 2.6c.1.2 0 .4-.1.5-.1.1-.3.2-.5.1l-1-.3c-.3-.1-.4-.4-.3-.6.1-.3.4-.4.6-.3h.1l-.5-1.8v-.3l.5-1.8-1.8.5h-.3l-1.8-.5.5 1.8v.3l-.5 1.8 1.8-.5c.3-.1.5.1.6.3.1.3-.1.5-.3.6l-2.7.8h-.2z" class="st2"/></g><g><path d="M215.3 218.1h-.1l-1-.3c-.3-.1-.4-.4-.3-.6.1-.3.4-.4.6-.3h.1l-.5-1.8v-.3l.5-1.8-1.8.5h-.3l-1.8-.5.5 1.8v.3l-.5 1.8 1.8-.5c.3-.1.5.1.6.3.1.3-.1.5-.3.6l-2.7.8c-.2 0-.4 0-.5-.1-.1-.1-.2-.3-.1-.5l.8-2.6-.8-2.6c-.1-.2 0-.4.1-.5.1-.1.3-.2.5-.1l2.6.8 2.6-.8c.2-.1.4 0 .5.1s.2.3.1.5l-.8 2.6.8 2.6c.1.2 0 .4-.1.5-.2.1-.3.1-.5.1z" class="st6"/></g><g><path d="M234.4 150.7c-.1 0-.3-.1-.4-.1-.1-.1-.2-.3-.1-.5l.8-2.6-.8-2.6c-.1-.2 0-.4.1-.5.1-.1.3-.2.5-.1l2.6.8 2.6-.8c.2-.1.4 0 .5.1.1.1.2.3.1.5l-.8 2.6.8 2.6c.1.2 0 .4-.1.5-.1.1-.3.2-.5.1l-1-.3c-.3-.1-.4-.4-.3-.6.1-.3.4-.4.6-.3h.1l-.5-1.8v-.3l.5-1.8-1.8.5h-.3l-1.8-.5.5 1.8v.3l-.5 1.8 1.8-.5c.3-.1.5.1.6.3.1.3-.1.5-.3.6l-2.7.8h-.2z" class="st4"/></g><g><path d="M52.4 40.9c-.3 0-.5-.2-.5-.5V38c0-.3.2-.5.5-.5s.5.2.5.5v2.4c0 .3-.3.5-.5.5zM52.4 46.8c-.3 0-.5-.2-.5-.5v-2.4c0-.3.2-.5.5-.5s.5.2.5.5v2.4c0 .3-.3.5-.5.5zM56.5 42.7h-2.4c-.3 0-.5-.2-.5-.5s.2-.5.5-.5h2.4c.3 0 .5.2.5.5s-.2.5-.5.5zM50.6 42.7h-2.4c-.3 0-.5-.2-.5-.5s.2-.5.5-.5h2.4c.3 0 .5.2.5.5s-.2.5-.5.5z" class="st6"/></g><g><path d="M186.8 236.2c-.3 0-.5-.2-.5-.5v-2.4c0-.3.2-.5.5-.5s.5.2.5.5v2.4c0 .2-.3.5-.5.5zM186.8 242c-.3 0-.5-.2-.5-.5v-2.4c0-.3.2-.5.5-.5s.5.2.5.5v2.4c0 .3-.3.5-.5.5zM190.9 237.9h-2.4c-.3 0-.5-.2-.5-.5s.2-.5.5-.5h2.4c.3 0 .5.2.5.5s-.2.5-.5.5zM185 237.9h-2.4c-.3 0-.5-.2-.5-.5s.2-.5.5-.5h2.4c.3 0 .5.2.5.5s-.2.5-.5.5z" class="st3"/></g></svg>