<svg xmlns="http://www.w3.org/2000/svg" id="Layer_1" x="0" y="0" version="1.1" viewBox="0 0 256 256" xml:space="preserve"><style>.st1{fill:#fff}.st2{fill:#9feaff}.st3{fill:#48386a}.st4{fill:#febe7f}.st6{fill:#ff8584}</style><path fill="#dbfdff" d="M242.3 125.8c0-5.6-.9-11-2.6-16 5-7.8 7.9-17.1 7.9-27.1 0-27.9-22.6-50.5-50.5-50.5-13.5 0-25.7 5.3-34.8 13.9-8.3-5.9-18.3-9.3-29.2-9.3-8.9 0-17.2 2.3-24.5 6.3-9.3-11.2-23.3-18.3-38.9-18.3-27.9 0-50.5 22.6-50.5 50.5 0 1.5.1 3.1.2 4.6-4.1 7.3-6.5 15.8-6.5 24.7 0 11.5 3.9 22.1 10.3 30.6-2.6 6.1-4.1 12.8-4.1 19.9 0 27.9 22.6 50.5 50.5 50.5 11.9 0 22.9-4.2 31.6-11.1 8.3 6 18.5 9.5 29.5 9.5.7 0 1.4 0 2.1-.1 7 19.5 25.7 33.4 47.5 33.4 27.9 0 50.5-22.6 50.5-50.5 0-8.4-2.1-16.3-5.7-23.3 10.6-9.1 17.2-22.7 17.2-37.7z"/><path d="M91.8 228.1l-4 17.9-1.3 5.6H64.6l-1.2-5.6-4-17.9zM167.3 235.6l-1.7-7.5H198l-4 17.9-1.2 5.6h-21.9l-1.3-5.6-1.4-6.2zM213.7 50.5V79h-170V9.6c0-2.9 2.3-5.2 5.2-5.2h159.5c2.9 0 5.2 2.3 5.2 5.2v40.9zM43.7 117.2V79h170v74.5h-170v-30.2zM213.7 198.9v24c0 2.9-2.3 5.2-5.2 5.2H48.9c-2.9 0-5.2-2.3-5.2-5.2v-69.3h170v45.3z" class="st1"/><path d="M90.8 246l-1.3 5.6H67.6l-1.2-5.6zM197 246l-1.2 5.6h-21.9l-1.3-5.6z" class="st2"/><path d="M86.5 252.6H64.6c-.5 0-.9-.3-1-.8l-5.2-23.5c-.1-.3 0-.6.2-.8.2-.2.5-.4.8-.4h32.4c.3 0 .6.1.8.4.2.2.3.5.2.8l-5.2 23.5c-.2.5-.6.8-1.1.8zm-21.1-2h20.3l4.8-21.5H60.6l4.8 21.5zM192.8 252.6h-21.9c-.5 0-.9-.3-1-.8l-2.6-11.8c-.1-.5.2-1.1.8-1.2.5-.1 1.1.2 1.2.8l2.4 11H192l4.8-21.5h-29.9l1.4 6.3c.1.5-.2 1.1-.8 1.2-.5.1-1.1-.2-1.2-.8l-1.7-7.5c-.1-.3 0-.6.2-.8.2-.2.5-.4.8-.4H198c.3 0 .6.1.8.4.2.2.3.5.2.8l-5.2 23.5c-.1.5-.5.8-1 .8z" class="st3"/><path d="M86.5 252.1H64.6c-.2 0-.4-.2-.5-.4l-1.2-5.6c0-.1 0-.3.1-.4.1-.1.2-.2.4-.2h24.4c.2 0 .3.1.4.2.1.1.1.3.1.4l-1.2 5.6c-.1.2-.3.4-.6.4zm-21.5-1h21.1l1-4.6H64l1 4.6zM192.8 252.1h-21.9c-.2 0-.4-.2-.5-.4l-1.2-5.6c0-.1 0-.3.1-.4.1-.1.2-.2.4-.2H194c.2 0 .3.1.4.2.1.1.1.3.1.4l-1.2 5.6c-.1.2-.3.4-.5.4zm-21.5-1h21.1l1-4.6h-23.2l1.1 4.6zM213.7 80h-170c-.6 0-1-.4-1-1V9.6c0-3.4 2.8-6.2 6.2-6.2h159.5c3.4 0 6.2 2.8 6.2 6.2v26.7c0 .6-.4 1-1 1s-1-.4-1-1V9.6c0-2.3-1.9-4.2-4.2-4.2H48.9c-2.3 0-4.2 1.9-4.2 4.2V78h168V50.5c0-.6.4-1 1-1s1 .4 1 1V79c0 .5-.4 1-1 1z" class="st3"/><path d="M213.7 46.3c-.6 0-1-.4-1-1v-3.6c0-.6.4-1 1-1s1 .4 1 1v3.6c0 .5-.4 1-1 1z" class="st3"/><path d="M103.7 9.6h96.9c0 6 4.9 10.9 10.9 10.9v42.3c-6 0-10.9 4.9-10.9 10.9H62.8c0-6-4.9-10.9-10.9-10.9V20.5c6 0 10.9-4.9 10.9-10.9h40.9zM51.9 183.7v-14.1c6 0 10.9-4.9 10.9-10.9h137.8c0 6 4.9 10.9 10.9 10.9V212c-6 0-10.9 4.9-10.9 10.9H62.8c0-6-4.9-10.9-10.9-10.9v-28.3z" class="st2"/><path d="M197.6 74.2H59.8c-.3 0-.5-.2-.5-.5 0-5.7-4.7-10.4-10.4-10.4-.3 0-.5-.2-.5-.5V20.5c0-.3.2-.5.5-.5 5.7 0 10.4-4.7 10.4-10.4 0-.3.2-.5.5-.5h29.5c.3 0 .5.2.5.5s-.2.5-.5.5h-29C60 16 55.3 20.8 49.4 21v41.3c5.9.3 10.6 5 10.9 10.9h136.8c.3-5.9 5-10.6 10.9-10.9V21c-5.9-.3-10.6-5-10.9-10.9h-96.4c-.3 0-.5-.2-.5-.5s.2-.5.5-.5h96.9c.3 0 .5.2.5.5 0 5.7 4.7 10.4 10.4 10.4.3 0 .5.2.5.5v42.3c0 .3-.2.5-.5.5-5.7 0-10.4 4.7-10.4 10.4 0 .3-.2.5-.5.5z" class="st3"/><circle cx="54.4" cy="12.6" r="3" class="st2"/><circle cx="54.4" cy="70.8" r="3" class="st2"/><circle cx="208" cy="70.8" r="3" class="st2"/><circle cx="54.4" cy="87.2" r="3" class="st2"/><circle cx="54.4" cy="145.3" r="3" class="st2"/><circle cx="208" cy="87.2" r="3" class="st2"/><circle cx="208" cy="145.3" r="3" class="st2"/><circle cx="54.4" cy="161.7" r="3" class="st2"/><circle cx="54.4" cy="219.9" r="3" class="st2"/><circle cx="208" cy="161.7" r="3" class="st2"/><circle cx="208" cy="219.9" r="3" class="st2"/><path d="M156.3 48.7h-55.2l-5.2-14.1h65.7z" class="st4"/><path d="M156.3 49.8H101c-.4 0-.8-.3-.9-.7L94.9 35c-.1-.3-.1-.7.1-.9.2-.3.5-.4.8-.4h65.7c.3 0 .6.2.8.4.2.3.2.6.1.9l-5.2 14.1c-.1.4-.5.7-.9.7zm-54.5-2h53.9l4.5-12.1H97.3l4.5 12.1z" class="st3"/><path d="M159.1 42.2H98.5c-.3 0-.5-.2-.5-.5s.2-.5.5-.5h60.6c.3 0 .5.2.5.5s-.2.5-.5.5zM51.9 16.1c-1.9 0-3.5-1.6-3.5-3.5s1.6-3.5 3.5-3.5 3.5 1.6 3.5 3.5-1.6 3.5-3.5 3.5zm0-6c-1.4 0-2.5 1.1-2.5 2.5s1.1 2.5 2.5 2.5 2.5-1.1 2.5-2.5-1.2-2.5-2.5-2.5zM51.9 74.2c-1.9 0-3.5-1.6-3.5-3.5s1.6-3.5 3.5-3.5 3.5 1.6 3.5 3.5-1.6 3.5-3.5 3.5zm0-5.9c-1.4 0-2.5 1.1-2.5 2.5s1.1 2.5 2.5 2.5 2.5-1.1 2.5-2.5-1.2-2.5-2.5-2.5z" class="st3"/><circle cx="208" cy="12.6" r="3" class="st2"/><path d="M205.5 16.1c-1.9 0-3.5-1.6-3.5-3.5s1.6-3.5 3.5-3.5 3.5 1.6 3.5 3.5-1.6 3.5-3.5 3.5zm0-6c-1.4 0-2.5 1.1-2.5 2.5s1.1 2.5 2.5 2.5 2.5-1.1 2.5-2.5-1.1-2.5-2.5-2.5zM205.5 74.2c-1.9 0-3.5-1.6-3.5-3.5s1.6-3.5 3.5-3.5 3.5 1.6 3.5 3.5-1.6 3.5-3.5 3.5zm0-5.9c-1.4 0-2.5 1.1-2.5 2.5s1.1 2.5 2.5 2.5 2.5-1.1 2.5-2.5-1.1-2.5-2.5-2.5zM54 15.2c-.1 0-.3 0-.4-.1l-4.2-4.2c-.2-.2-.2-.5 0-.7s.5-.2.7 0l4.2 4.2c.2.2.2.5 0 .7-.1 0-.2.1-.3.1zM54 73.4c-.1 0-.3 0-.4-.1l-4.2-4.2c-.2-.2-.2-.5 0-.7s.5-.2.7 0l4.2 4.2c.2.2.2.5 0 .7-.1 0-.2.1-.3.1z" class="st3"/><path d="M207.6 15.2c-.1 0-.3 0-.4-.1l-4.2-4.2c-.2-.2-.2-.5 0-.7s.5-.2.7 0l4.2 4.2c.2.2.2.5 0 .7 0 0-.2.1-.3.1zM207.6 73.4c-.1 0-.3 0-.4-.1l-4.2-4.2c-.2-.2-.2-.5 0-.7s.5-.2.7 0l4.2 4.2c.2.2.2.5 0 .7 0 0-.2.1-.3.1zM213.7 154.5h-170c-.6 0-1-.4-1-1v-30.2c0-.6.4-1 1-1s1 .4 1 1v29.2h168V80h-168v37.2c0 .6-.4 1-1 1s-1-.4-1-1V79c0-.6.4-1 1-1h170c.6 0 1 .4 1 1v74.5c0 .6-.4 1-1 1z" class="st3"/><path fill="#ffffed" d="M208.5 95.1v42.3c-6 0-10.9 4.9-10.9 10.9H59.8c0-6-4.9-10.9-10.9-10.9V95.1c6 0 10.9-4.9 10.9-10.9h137.8c0 6 4.9 10.9 10.9 10.9z"/><path d="M197.6 148.8H59.8c-.3 0-.5-.2-.5-.5 0-5.7-4.7-10.4-10.4-10.4-.3 0-.5-.2-.5-.5V95.1c0-.3.2-.5.5-.5 5.7 0 10.4-4.7 10.4-10.4 0-.3.2-.5.5-.5h137.8c.3 0 .5.2.5.5 0 5.7 4.7 10.4 10.4 10.4.3 0 .5.2.5.5v42.3c0 .3-.2.5-.5.5-5.7 0-10.4 4.7-10.4 10.4 0 .3-.2.5-.5.5zm-137.3-1h136.8c.3-5.9 5-10.6 10.9-10.9V95.6c-5.9-.3-10.6-5-10.9-10.9H60.3c-.3 5.9-5 10.6-10.9 10.9v41.3c5.9.3 10.6 5 10.9 10.9z" class="st3"/><path d="M133.2 123.3h-28.6l-5.2-14.1h65.7l-5.3 14.1h-20.3z" class="st6"/><path d="M159.1 116.7H98.5c-.3 0-.5-.2-.5-.5s.2-.5.5-.5h60.6c.3 0 .5.2.5.5s-.2.5-.5.5zM51.9 90.6c-1.9 0-3.5-1.6-3.5-3.5s1.6-3.5 3.5-3.5 3.5 1.6 3.5 3.5-1.6 3.5-3.5 3.5zm0-5.9c-1.4 0-2.5 1.1-2.5 2.5s1.1 2.5 2.5 2.5 2.5-1.1 2.5-2.5-1.2-2.5-2.5-2.5zM51.9 148.8c-1.9 0-3.5-1.6-3.5-3.5s1.6-3.5 3.5-3.5 3.5 1.6 3.5 3.5-1.6 3.5-3.5 3.5zm0-5.9c-1.4 0-2.5 1.1-2.5 2.5s1.1 2.5 2.5 2.5 2.5-1.1 2.5-2.5-1.2-2.5-2.5-2.5zM205.5 90.6c-1.9 0-3.5-1.6-3.5-3.5s1.6-3.5 3.5-3.5 3.5 1.6 3.5 3.5-1.6 3.5-3.5 3.5zm0-5.9c-1.4 0-2.5 1.1-2.5 2.5s1.1 2.5 2.5 2.5 2.5-1.1 2.5-2.5-1.1-2.5-2.5-2.5zM205.5 148.8c-1.9 0-3.5-1.6-3.5-3.5s1.6-3.5 3.5-3.5 3.5 1.6 3.5 3.5-1.6 3.5-3.5 3.5zm0-5.9c-1.4 0-2.5 1.1-2.5 2.5s1.1 2.5 2.5 2.5 2.5-1.1 2.5-2.5-1.1-2.5-2.5-2.5z" class="st3"/><path d="M54 89.7c-.1 0-.3 0-.4-.1l-4.2-4.2c-.2-.2-.2-.5 0-.7s.5-.2.7 0l4.2 4.2c.2.2.2.5 0 .7-.1.1-.2.1-.3.1zM54 147.9c-.1 0-.3 0-.4-.1l-4.2-4.2c-.2-.2-.2-.5 0-.7s.5-.2.7 0l4.2 4.2c.2.2.2.5 0 .7-.1.1-.2.1-.3.1zM207.6 89.7c-.1 0-.3 0-.4-.1l-4.2-4.2c-.2-.2-.2-.5 0-.7s.5-.2.7 0l4.2 4.2c.2.2.2.5 0 .7 0 .1-.2.1-.3.1zM207.6 147.9c-.1 0-.3 0-.4-.1l-4.2-4.2c-.2-.2-.2-.5 0-.7s.5-.2.7 0l4.2 4.2c.2.2.2.5 0 .7 0 .1-.2.1-.3.1zM213.7 191.8c-.6 0-1-.4-1-1v-3.9c0-.6.4-1 1-1s1 .4 1 1v3.9c0 .5-.4 1-1 1z" class="st3"/><path d="M208.5 229.1H48.9c-3.4 0-6.2-2.8-6.2-6.2v-69.3c0-.6.4-1 1-1h170c.6 0 1 .4 1 1v28.1c0 .6-.4 1-1 1s-1-.4-1-1v-27.1h-168v68.3c0 2.3 1.9 4.2 4.2 4.2h159.5c2.3 0 4.2-1.9 4.2-4.2v-24c0-.6.4-1 1-1s1 .4 1 1v24c.1 3.4-2.7 6.2-6.1 6.2z" class="st3"/><path d="M197.6 223.3H59.8c-.3 0-.5-.2-.5-.5 0-5.7-4.7-10.4-10.4-10.4-.3 0-.5-.2-.5-.5V190c0-.3.2-.5.5-.5s.5.2.5.5v21.5c5.9.3 10.6 5 10.9 10.9h136.8c.3-5.9 5-10.6 10.9-10.9v-41.3c-5.9-.3-10.6-5-10.9-10.9H60.3c-.3 5.9-5 10.6-10.9 10.9v13.6c0 .3-.2.5-.5.5s-.5-.2-.5-.5v-14.1c0-.3.2-.5.5-.5 5.7 0 10.4-4.7 10.4-10.4 0-.3.2-.5.5-.5h137.8c.3 0 .5.2.5.5 0 5.7 4.7 10.4 10.4 10.4.3 0 .5.2.5.5V212c0 .3-.2.5-.5.5-5.7 0-10.4 4.7-10.4 10.4 0 .2-.2.4-.5.4z" class="st3"/><path d="M156.3 197.8h-55.2l-5.2-14.1h65.7z" class="st4"/><path d="M156.3 198.8H101c-.4 0-.8-.3-.9-.7L94.9 184c-.1-.3-.1-.7.1-.9.2-.3.5-.4.8-.4h65.7c.3 0 .6.2.8.4.2.3.2.6.1.9l-5.2 14.1c-.1.5-.5.7-.9.7zm-54.5-2h53.9l4.5-12.1H97.3l4.5 12.1z" class="st3"/><path d="M159.1 191.3h-24c-.3 0-.5-.2-.5-.5s.2-.5.5-.5h24c.3 0 .5.2.5.5s-.2.5-.5.5zM127.6 191.3H98.5c-.3 0-.5-.2-.5-.5s.2-.5.5-.5h29.1c.3 0 .5.2.5.5s-.2.5-.5.5zM51.9 165.2c-1.9 0-3.5-1.6-3.5-3.5s1.6-3.5 3.5-3.5 3.5 1.6 3.5 3.5-1.6 3.5-3.5 3.5zm0-6c-1.4 0-2.5 1.1-2.5 2.5s1.1 2.5 2.5 2.5 2.5-1.1 2.5-2.5-1.2-2.5-2.5-2.5zM51.9 223.3c-1.9 0-3.5-1.6-3.5-3.5s1.6-3.5 3.5-3.5 3.5 1.6 3.5 3.5-1.6 3.5-3.5 3.5zm0-5.9c-1.4 0-2.5 1.1-2.5 2.5s1.1 2.5 2.5 2.5 2.5-1.1 2.5-2.5-1.2-2.5-2.5-2.5zM205.5 165.2c-1.9 0-3.5-1.6-3.5-3.5s1.6-3.5 3.5-3.5 3.5 1.6 3.5 3.5-1.6 3.5-3.5 3.5zm0-6c-1.4 0-2.5 1.1-2.5 2.5s1.1 2.5 2.5 2.5 2.5-1.1 2.5-2.5-1.1-2.5-2.5-2.5zM205.5 223.3c-1.9 0-3.5-1.6-3.5-3.5s1.6-3.5 3.5-3.5 3.5 1.6 3.5 3.5-1.6 3.5-3.5 3.5zm0-5.9c-1.4 0-2.5 1.1-2.5 2.5s1.1 2.5 2.5 2.5 2.5-1.1 2.5-2.5-1.1-2.5-2.5-2.5z" class="st3"/><path d="M54 164.3c-.1 0-.3 0-.4-.1l-4.2-4.2c-.2-.2-.2-.5 0-.7s.5-.2.7 0l4.2 4.2c.2.2.2.5 0 .7-.1 0-.2.1-.3.1zM54 222.5c-.1 0-.3 0-.4-.1l-4.2-4.2c-.2-.2-.2-.5 0-.7s.5-.2.7 0l4.2 4.2c.2.2.2.5 0 .7-.1 0-.2.1-.3.1z" class="st3"/><g><path d="M207.6 164.3c-.1 0-.3 0-.4-.1L203 160c-.2-.2-.2-.5 0-.7s.5-.2.7 0l4.2 4.2c.2.2.2.5 0 .7 0 0-.2.1-.3.1z" class="st3"/></g><g><path d="M207.6 222.5c-.1 0-.3 0-.4-.1l-4.2-4.2c-.2-.2-.2-.5 0-.7s.5-.2.7 0l4.2 4.2c.2.2.2.5 0 .7 0 0-.2.1-.3.1z" class="st3"/></g><g><path d="M156.3 124.3H136c-.6 0-1-.4-1-1s.4-1 1-1h19.6l4.5-12.1H97.3l4.5 12.1h28c.6 0 1 .4 1 1s-.4 1-1 1h-28.7c-.4 0-.8-.3-.9-.7L95 109.5c-.1-.3-.1-.7.1-.9.2-.3.5-.4.8-.4h65.7c.3 0 .6.2.8.4.2.3.2.6.1.9l-5.2 14.1c-.2.4-.6.7-1 .7z" class="st3"/></g><g><path d="M223.7 119.2c-1.6 0-3-1.3-3-3s1.3-3 3-3 3 1.3 3 3-1.4 3-3 3zm0-4.9c-1.1 0-2 .9-2 2s.9 2 2 2 2-.9 2-2-.9-2-2-2z" class="st3"/></g><g><path d="M34 65.5c-1.6 0-3-1.3-3-3s1.3-3 3-3 3 1.3 3 3-1.4 3-3 3zm0-4.9c-1.1 0-2 .9-2 2s.9 2 2 2 2-.9 2-2c0-1.2-.9-2-2-2z" class="st6"/></g><g><path d="M33.2 167.9h-.1l-1-.3c-.3-.1-.4-.4-.3-.6.1-.3.3-.4.6-.3h.1l-.5-1.8v-.3l.5-1.8-1.8.5h-.3l-1.8-.5.5 1.8v.3l-.5 1.8 1.8-.5c.3-.1.5.1.6.3.1.3-.1.5-.3.6l-2.7.8c-.2.1-.4 0-.5-.1-.1-.1-.2-.3-.1-.5l.8-2.6-.8-2.6c-.1-.2 0-.4.1-.5.1-.1.3-.2.5-.1l2.6.8 2.6-.8c.2-.1.4 0 .5.1s.2.3.1.5l-.8 2.6.8 2.6c.1.2 0 .4-.1.5-.2 0-.4.1-.5.1z" class="st3"/></g><g><path d="M226.4 148.5h-.1l-1-.3c-.3-.1-.4-.4-.3-.6.1-.3.3-.4.6-.3h.1l-.5-1.8v-.3l.5-1.8-1.8.5h-.3l-1.8-.5.5 1.8v.3l-.5 1.8 1.8-.5c.3-.1.5.1.6.3.1.3-.1.5-.3.6l-2.7.8c-.2.1-.4 0-.5-.1s-.2-.3-.1-.5l.8-2.6-.8-2.6c-.1-.2 0-.4.1-.5s.3-.2.5-.1l2.6.8 2.6-.8c.2-.1.4 0 .5.1s.2.3.1.5l-.8 2.6.8 2.6c.1.2 0 .4-.1.5-.2.1-.4.1-.5.1z" class="st4"/></g><g><path d="M225.4 63.8c-.3 0-.5-.2-.5-.5v-2.4c0-.3.2-.5.5-.5s.5.2.5.5v2.4c0 .3-.2.5-.5.5zM225.4 69.7c-.3 0-.5-.2-.5-.5v-2.4c0-.3.2-.5.5-.5s.5.2.5.5v2.4c0 .2-.2.5-.5.5zM229.5 65.5h-2.4c-.3 0-.5-.2-.5-.5s.2-.5.5-.5h2.4c.3 0 .5.2.5.5s-.2.5-.5.5zM223.7 65.5h-2.4c-.3 0-.5-.2-.5-.5s.2-.5.5-.5h2.4c.3 0 .5.2.5.5s-.2.5-.5.5z" class="st6"/></g><g><path d="M27.6 107.7c-.3 0-.5-.2-.5-.5v-2.4c0-.3.2-.5.5-.5s.5.2.5.5v2.4c0 .3-.3.5-.5.5zM27.6 113.5c-.3 0-.5-.2-.5-.5v-2.4c0-.3.2-.5.5-.5s.5.2.5.5v2.4c0 .3-.3.5-.5.5zM31.7 109.4h-2.4c-.3 0-.5-.2-.5-.5s.2-.5.5-.5h2.4c.3 0 .5.2.5.5s-.2.5-.5.5zM25.8 109.4h-2.4c-.3 0-.5-.2-.5-.5s.2-.5.5-.5h2.4c.3 0 .5.2.5.5s-.2.5-.5.5z" class="st4"/></g><g><path d="M225.4 189.6c-.3 0-.5-.2-.5-.5v-2.4c0-.3.2-.5.5-.5s.5.2.5.5v2.4c0 .3-.2.5-.5.5zM225.4 195.4c-.3 0-.5-.2-.5-.5v-2.4c0-.3.2-.5.5-.5s.5.2.5.5v2.4c0 .3-.2.5-.5.5zM229.5 191.3h-2.4c-.3 0-.5-.2-.5-.5s.2-.5.5-.5h2.4c.3 0 .5.2.5.5s-.2.5-.5.5zM223.7 191.3h-2.4c-.3 0-.5-.2-.5-.5s.2-.5.5-.5h2.4c.3 0 .5.2.5.5s-.2.5-.5.5z" class="st2"/></g></svg>