<?xml version="1.0" encoding="utf-8"?>
<!-- Generator: Adobe Illustrator 22.1.0, SVG Export Plug-In . SVG Version: 6.00 Build 0)  -->
<svg version="1.1" id="Layer_1" xmlns="http://www.w3.org/2000/svg" xmlns:xlink="http://www.w3.org/1999/xlink" x="0px" y="0px"
	 viewBox="0 0 256 256" style="enable-background:new 0 0 256 256;" xml:space="preserve">
<style type="text/css">
	.st0{fill:#FFFFFF;}
	.st1{fill:#48386A;}
	.st2{fill:#9FEAFF;}
</style>
<g>
	<g>
		<path class="st0" d="M103.3,39.4c6.4-6.3,15.1-10.1,24.7-10.1c19.5,0,35.3,15.8,35.3,35.3h16.6c0-28.7-23.2-51.9-51.9-51.9
			S76.1,35.9,76.1,64.6h16.6c0-7.6,2.4-14.6,6.4-20.3L103.3,39.4z"/>
		<path class="st1" d="M179.9,65.6h-16.6c-0.6,0-1-0.4-1-1c0-18.9-15.4-34.3-34.3-34.3c-9,0-17.6,3.5-24,9.8c-0.4,0.4-1,0.4-1.4,0
			c-0.4-0.4-0.4-1,0-1.4c6.8-6.7,15.9-10.4,25.4-10.4c19.7,0,35.7,15.7,36.3,35.3h14.6C178.4,36,155.7,13.7,128,13.7
			S77.6,36,77.1,63.6h14.6c0.2-7.2,2.5-14,6.6-19.9c0.3-0.4,0.9-0.6,1.4-0.2c0.5,0.3,0.6,0.9,0.2,1.4c-4.1,5.8-6.3,12.6-6.3,19.8
			c0,0.6-0.4,1-1,1H76.1c-0.6,0-1-0.4-1-1c0-29.2,23.7-52.9,52.9-52.9s52.9,23.7,52.9,52.9C180.9,65.1,180.5,65.6,179.9,65.6z"/>
	</g>
	<path class="st2" d="M109.3,39.4c6.4-6.3,15.1-10.1,24.7-10.1c19.5,0,35.3,15.8,35.3,35.3h16.6c0-28.7-23.2-51.9-51.9-51.9
		S82.1,35.9,82.1,64.6h16.6c0-7.6,2.4-14.6,6.4-20.3L109.3,39.4z"/>
	<g>
		<path class="st1" d="M172.1,65.6h-8.8c-0.6,0-1-0.4-1-1c0-18.9-15.4-34.3-34.3-34.3c-9.4,0-18.2,3.7-24.7,10.5
			c-0.4,0.4-1,0.4-1.4,0c-0.4-0.4-0.4-1,0-1.4c6.9-7.2,16.2-11.1,26.2-11.1c19.7,0,35.7,15.7,36.3,35.3h6.8
			c-0.5-23.3-19.7-42.1-43.1-42.1S85.4,40.3,84.9,63.6h6.8c0.2-6.9,2.3-13.6,6.2-19.3c0.3-0.5,0.9-0.6,1.4-0.3
			c0.5,0.3,0.6,0.9,0.3,1.4c-3.8,5.7-5.9,12.3-5.9,19.2c0,0.6-0.4,1-1,1h-8.8c-0.6,0-1-0.4-1-1c0-24.9,20.2-45.1,45.1-45.1
			s45.1,20.2,45.1,45.1C173.1,65.1,172.6,65.6,172.1,65.6z"/>
	</g>
	<g>
		<path class="st1" d="M179.9,65.6h-16.6c-0.6,0-1-0.4-1-1c0-18.9-15.4-34.3-34.3-34.3c-9,0-17.6,3.5-24,9.8c-0.4,0.4-1,0.4-1.4,0
			c-0.4-0.4-0.4-1,0-1.4c6.8-6.7,15.9-10.4,25.4-10.4c19.7,0,35.7,15.7,36.3,35.3h14.6C178.4,36,155.7,13.7,128,13.7
			S77.6,36,77.1,63.6h14.6c0.2-7.2,2.5-14,6.6-19.9c0.3-0.4,0.9-0.6,1.4-0.2c0.5,0.3,0.6,0.9,0.2,1.4c-4.1,5.8-6.3,12.6-6.3,19.8
			c0,0.6-0.4,1-1,1H76.1c-0.6,0-1-0.4-1-1c0-29.2,23.7-52.9,52.9-52.9s52.9,23.7,52.9,52.9C180.9,65.1,180.5,65.6,179.9,65.6z"/>
	</g>
	<g>
		<path class="st0" d="M98.4,74.9H69.4c-0.6,0-1-0.4-1-1v-8.3c0-0.6,0.4-1,1-1h28.9c0.6,0,1,0.4,1,1v8.3
			C99.4,74.4,98.9,74.9,98.4,74.9z"/>
		<path class="st1" d="M98.4,75.9h-29c-1.1,0-2-0.9-2-2v-8.3c0-1.1,0.9-2,2-2h29c1.1,0,2,0.9,2,2v8.3C100.4,75,99.5,75.9,98.4,75.9z
			 M69.4,65.6v8.3h29l0-8.3H69.4z"/>
	</g>
	<g>
		<path class="st0" d="M186.6,74.9h-28.9c-0.6,0-1-0.4-1-1v-8.3c0-0.6,0.4-1,1-1h28.9c0.6,0,1,0.4,1,1v8.3
			C187.6,74.4,187.1,74.9,186.6,74.9z"/>
		<path class="st1" d="M186.6,75.9h-29c-1.1,0-2-0.9-2-2v-8.3c0-1.1,0.9-2,2-2h29c1.1,0,2,0.9,2,2v8.3
			C188.6,75,187.7,75.9,186.6,75.9z M157.6,65.6v8.3h29l0-8.3H157.6z"/>
	</g>
	<g>
		<path class="st0" d="M98.4,74.9H69.4c-0.6,0-1-0.4-1-1v-8.3c0-0.6,0.4-1,1-1h28.9c0.6,0,1,0.4,1,1v8.3
			C99.4,74.4,98.9,74.9,98.4,74.9z"/>
		<path class="st1" d="M98.4,75.9h-29c-1.1,0-2-0.9-2-2v-8.3c0-1.1,0.9-2,2-2h29c1.1,0,2,0.9,2,2v8.3C100.4,75,99.5,75.9,98.4,75.9z
			 M69.4,65.6v8.3h29l0-8.3H69.4z"/>
	</g>
	<g>
		<path class="st0" d="M186.6,74.9h-28.9c-0.6,0-1-0.4-1-1v-8.3c0-0.6,0.4-1,1-1h28.9c0.6,0,1,0.4,1,1v8.3
			C187.6,74.4,187.1,74.9,186.6,74.9z"/>
		<path class="st1" d="M186.6,75.9h-29c-1.1,0-2-0.9-2-2v-8.3c0-1.1,0.9-2,2-2h29c1.1,0,2,0.9,2,2v8.3
			C188.6,75,187.7,75.9,186.6,75.9z M157.6,65.6v8.3h29l0-8.3H157.6z"/>
	</g>
	<g>
		<path class="st0" d="M249,200.4v25.1c0,9.8-8,17.8-17.8,17.8H24.8c-9.8,0-17.8-8-17.8-17.8V92.6c0-9.8,8-17.8,17.8-17.8h206.4
			c9.8,0,17.8,8,17.8,17.8V186V200.4z"/>
		<path class="st1" d="M231.2,244.3H24.8c-10.4,0-18.8-8.4-18.8-18.8V92.6c0-10.4,8.4-18.8,18.8-18.8h206.4
			c10.4,0,18.8,8.4,18.8,18.8V186c0,0.6-0.4,1-1,1s-1-0.4-1-1V92.6c0-9.3-7.5-16.8-16.8-16.8H24.8C15.5,75.9,8,83.4,8,92.6v132.9
			c0,9.3,7.5,16.8,16.8,16.8h206.4c9.3,0,16.8-7.5,16.8-16.8v-25.1c0-0.6,0.4-1,1-1s1,0.4,1,1v25.1
			C250,235.9,241.6,244.3,231.2,244.3z"/>
	</g>
	<path class="st2" d="M73.9,243.3v-39c3.4-1.9,6.4-4.6,8.6-7.8h104c2.2,3.3,5.1,5.9,8.6,7.8v39H73.9z"/>
	<path class="st2" d="M60.5,151.4h6.9c0.9,0,1.8,0.1,2.6,0.4c2.6,0.8,4.8,2.7,5.8,5.2c0.5,1.1,0.7,2.3,0.7,3.6c0,2.5-1,4.8-2.7,6.5
		c-1.1,1.1-2.4,1.9-3.8,2.3c-0.9,0.3-1.8,0.4-2.7,0.4h-17c-0.9,0-1.8-0.1-2.7-0.4c-3.9-1.2-6.5-4.7-6.5-8.8c0-1.3,0.2-2.5,0.7-3.6
		c0.5-1.1,1.1-2.1,2-2.9c1.1-1.1,2.4-1.9,3.9-2.3c0.8-0.2,1.7-0.4,2.6-0.4h5.1H60.5z"/>
	<path class="st2" d="M195.6,169.8c-0.9,0-1.8-0.1-2.7-0.4c-3.9-1.2-6.5-4.7-6.5-8.8c0-1.3,0.2-2.5,0.7-3.6c0.5-1.1,1.1-2.1,2-2.9
		c1.1-1.1,2.4-1.9,3.9-2.3c0.8-0.2,1.7-0.4,2.6-0.4h17c0.9,0,1.8,0.1,2.6,0.4c2.6,0.8,4.8,2.7,5.8,5.2c0.5,1.1,0.7,2.3,0.7,3.6
		c0,2.5-1,4.8-2.7,6.5c-1.1,1.1-2.4,1.9-3.8,2.3c-0.9,0.3-1.8,0.4-2.7,0.4H195.6z"/>
	<path class="st2" d="M73.3,75.9v69.7c-1.4-0.4-2.8-0.6-4.4-0.6h-17c-1.5,0-3,0.2-4.4,0.6V75.9H73.3z"/>
	<path class="st2" d="M68.9,173.2c1.5,0,3-0.2,4.4-0.6v9c0,7.1-5.8,12.9-12.9,12.9c-7.1,0-12.8-5.8-12.8-12.9v-9
		c1.4,0.4,2.8,0.6,4.4,0.6H68.9z"/>
	<path class="st2" d="M218.4,107.2v38.4c-1.4-0.4-2.8-0.6-4.4-0.6h-17c-1.5,0-3,0.2-4.4,0.6V75.9h25.7v22.5V107.2z"/>
	<path class="st2" d="M214.1,173.2c1.5,0,3-0.2,4.4-0.6v9c0,7.1-5.8,12.9-12.8,12.9c-7.1,0-12.9-5.8-12.9-12.9v-9
		c1.4,0.4,2.8,0.6,4.4,0.6H214.1z"/>
	<polygon class="st2" points="155,104.5 177.1,104.5 177.1,139.4 88.9,139.4 88.9,104.5 145.9,104.5 	"/>
	<g>
		<path class="st1" d="M249,196.8c-0.8,0-1.5-0.7-1.5-1.5v-1.5c0-0.8,0.7-1.5,1.5-1.5s1.5,0.7,1.5,1.5v1.5
			C250.5,196.1,249.8,196.8,249,196.8z"/>
	</g>
	<g>
		<path class="st1" d="M15.3,182.9c-0.3,0-0.5-0.2-0.5-0.5v-2.9c0-0.3,0.2-0.5,0.5-0.5s0.5,0.2,0.5,0.5v2.9
			C15.8,182.7,15.6,182.9,15.3,182.9z"/>
	</g>
	<g>
		<path class="st1" d="M61.4,236H24.8c-5.8,0-10.5-4.7-10.5-10.5v-39.4c0-0.6,0.4-1,1-1s1,0.4,1,1v39.4c0,4.7,3.8,8.5,8.5,8.5h35.6
			v-33.5c0-0.4,0.3-0.8,0.7-0.9c4.6-1.6,8.5-5,10.5-9.4c0.2-0.4,0.5-0.6,0.9-0.6h40c0.6,0,1,0.4,1,1s-0.4,1-1,1H73.2
			c-2.2,4.4-6.1,7.9-10.7,9.7V235C62.4,235.6,62,236,61.4,236z"/>
	</g>
	<g>
		<path class="st1" d="M231.2,236h-36.6c-0.6,0-1-0.4-1-1v-33.8c-4.6-1.8-8.5-5.2-10.7-9.7h-49.2c-0.6,0-1-0.4-1-1s0.4-1,1-1h49.8
			c0.4,0,0.7,0.2,0.9,0.6c2.1,4.4,5.9,7.9,10.5,9.4c0.4,0.1,0.7,0.5,0.7,0.9V234h35.6c4.7,0,8.5-3.8,8.5-8.5v-70.1
			c-0.2,0.2-0.4,0.3-0.7,0.5c-0.2,0.2-0.5,0.3-0.8,0.5c-1,0.6-2.1,1.2-3.2,1.7c-0.2,0.1-0.5,0.2-0.8,0.3c-0.1,0-0.2,0.1-0.3,0.1
			c-0.3,0.1-0.5,0.2-0.8,0.3c-0.1,0-0.2,0.1-0.2,0.1c-0.1,0-0.3,0.1-0.5,0.2l-0.1,0c-0.3,0.1-0.7,0.2-1,0.3
			c-0.2,0.1-0.5,0.1-0.8,0.2c-0.1,0-0.2,0-0.3,0.1c-0.2,0.1-0.5,0.1-0.7,0.1l-0.2,0c-0.2,0-0.3,0.1-0.5,0.1c-0.3,0.1-0.6,0.1-1,0.1
			c-0.4,0-0.8,0.1-1.2,0.1c-0.4,0-0.8,0-1.3,0h-0.1c-0.2,3.9-1.9,7.6-4.7,10.4c-1.7,1.7-3.8,3-6.1,3.8v8.3c0,7.6-6.2,13.9-13.9,13.9
			s-13.9-6.2-13.9-13.9v-8.3c-6.2-2.2-10.4-7.7-10.7-14.2H80c-0.2,3.9-1.9,7.6-4.7,10.4c-1.7,1.7-3.8,3-6.1,3.8v8.3
			c0,7.6-6.2,13.9-13.9,13.9s-13.9-6.2-13.9-13.9v-8.3c-6.2-2.2-10.3-7.7-10.7-14.2h-0.1c-0.4,0-0.9,0-1.3,0c-0.3,0-0.7,0-1.1-0.1
			c-0.3,0-0.7-0.1-1-0.1c-0.1,0-0.3,0-0.4-0.1l-0.2,0c-0.3,0-0.5-0.1-0.8-0.1c-0.1,0-0.2,0-0.3-0.1c-0.3-0.1-0.6-0.1-0.8-0.2
			c-0.3-0.1-0.7-0.2-1-0.3l-0.1,0c-0.2-0.1-0.4-0.1-0.6-0.2c0,0-0.1,0-0.2-0.1c-0.3-0.1-0.5-0.2-0.8-0.3c-0.1,0-0.2-0.1-0.3-0.1
			c-0.3-0.1-0.6-0.2-0.8-0.3c-1.1-0.5-2.2-1-3.2-1.7c-0.3-0.2-0.6-0.3-0.8-0.5c-0.2-0.1-0.4-0.3-0.7-0.5v17.2c0,0.6-0.4,1-1,1
			s-1-0.4-1-1v-19.3c0-0.4,0.3-0.8,0.7-1c0.3-0.1,0.7,0,0.9,0.2c0,0,0,0,0.1,0.1c0.1,0.1,0.3,0.2,0.4,0.4l0.2,0.2
			c0.1,0,0.1,0.1,0.2,0.1c0.2,0.2,0.4,0.3,0.6,0.5c0.2,0.2,0.4,0.3,0.7,0.5c0.3,0.2,0.5,0.3,0.8,0.5c0.9,0.6,1.9,1.1,2.9,1.5
			c0.3,0.1,0.5,0.2,0.8,0.3c0,0,0.1,0,0.1,0c0,0,0.1,0,0.1,0c0.3,0.1,0.5,0.2,0.8,0.3c0.1,0,0.1,0,0.2,0.1c0.2,0.1,0.3,0.1,0.5,0.2
			l0.1,0c0.3,0.1,0.6,0.2,0.9,0.2c0.3,0.1,0.5,0.1,0.8,0.2c0,0,0.1,0,0.1,0c0,0,0.1,0,0.1,0c0.2,0.1,0.4,0.1,0.7,0.1l0.2,0
			c0.1,0,0.3,0,0.4,0.1c0.4,0.1,0.7,0.1,1,0.1c0.4,0,0.7,0.1,1,0.1c0.4,0,0.8,0,1.2,0h1.1c0.6,0,1,0.4,1,1c0,6.3,4,11.7,10.1,13.5
			c0.4,0.1,0.7,0.5,0.7,1v9c0,6.5,5.3,11.9,11.9,11.9s11.9-5.3,11.9-11.9v-9c0-0.4,0.3-0.8,0.7-1c2.2-0.7,4.3-1.9,5.9-3.5
			c2.7-2.7,4.1-6.2,4.1-10c0-0.6,0.4-1,1-1h97.9c0.6,0,1,0.4,1,1c0,6.3,4,11.7,10.1,13.5c0.4,0.1,0.7,0.5,0.7,1v9
			c0,6.5,5.3,11.9,11.9,11.9s11.9-5.3,11.9-11.9v-9c0-0.4,0.3-0.8,0.7-1c2.2-0.7,4.3-1.9,5.9-3.5c2.7-2.7,4.1-6.2,4.1-10
			c0-0.6,0.4-1,1-1h1.1c0.4,0,0.8,0,1.2,0c0.4,0,0.7,0,1.1-0.1c0.3,0,0.6-0.1,0.9-0.1c0.2,0,0.4,0,0.5-0.1l0.2,0
			c0.2,0,0.4-0.1,0.6-0.1c0,0,0.1,0,0.1,0c0,0,0.1,0,0.1,0c0.3,0,0.5-0.1,0.8-0.2c0.3-0.1,0.6-0.1,0.9-0.2l0.2,0
			c0.2,0,0.3-0.1,0.5-0.2c0.1,0,0.1,0,0.2-0.1c0.3-0.1,0.5-0.2,0.8-0.3c0,0,0.1,0,0.1,0c0,0,0.1,0,0.1,0c0.3-0.1,0.5-0.2,0.8-0.3
			c1.1-0.4,2.1-1,2.9-1.5c0.3-0.2,0.5-0.3,0.8-0.5c0.3-0.2,0.5-0.3,0.7-0.5c0.2-0.2,0.4-0.3,0.6-0.5c0,0,0.1-0.1,0.1-0.1l0.2-0.2
			c0.2-0.1,0.3-0.2,0.4-0.4c0,0,0,0,0.1-0.1c0.3-0.2,0.6-0.3,0.9-0.2c0.4,0.1,0.7,0.5,0.7,1v72.1C241.7,231.3,237,236,231.2,236z
			 M230,157.6C230,157.6,230,157.6,230,157.6C230,157.6,230,157.6,230,157.6z M26,157.6C26,157.6,26,157.6,26,157.6
			C26,157.6,26,157.6,26,157.6z M16.5,153.1C16.5,153.1,16.5,153.1,16.5,153.1C16.5,153.1,16.5,153.1,16.5,153.1z M239.5,153.1
			C239.5,153.1,239.5,153.1,239.5,153.1C239.5,153.1,239.5,153.1,239.5,153.1z"/>
	</g>
	<g>
		<path class="st1" d="M31.8,160.1h-1.1c-0.4,0-0.9,0-1.3,0c-0.2,0-0.5,0-0.8,0l-0.4,0c-0.4,0-0.7-0.1-1.1-0.1
			c-0.2,0-0.4-0.1-0.6-0.1c-0.2,0-0.5-0.1-0.7-0.1c-0.1,0-0.2,0-0.3-0.1c-0.3,0-0.5-0.1-0.8-0.2c-0.4-0.1-0.7-0.2-1.1-0.3l-0.2-0.1
			c-0.2-0.1-0.3-0.1-0.5-0.2c-0.1,0-0.1,0-0.2-0.1c-0.3-0.1-0.5-0.2-0.8-0.3c-0.1,0-0.2-0.1-0.3-0.1c-0.2-0.1-0.5-0.2-0.8-0.3
			c-1.1-0.5-2.2-1-3.2-1.7c-0.3-0.1-0.5-0.3-0.8-0.5c-0.2-0.2-0.5-0.3-0.8-0.5c-0.2-0.1-0.4-0.3-0.6-0.4c-0.1-0.1-0.2-0.1-0.2-0.1
			l-0.3-0.2c-0.1-0.1-0.3-0.2-0.4-0.4c0,0,0,0-0.1-0.1l0,0C9.2,149.4,6,142.6,6,135.4V92.6c0-5.3,2.3-10.4,6.3-14
			c3.4-3.1,7.9-4.8,12.5-4.8h17.8c0.6,0,1,0.4,1,1v69.7c0,0.4-0.3,0.8-0.7,1c-2.2,0.7-4.3,1.9-5.9,3.5c-1.3,1.3-2.3,2.8-3,4.5
			c-0.8,1.7-1.1,3.6-1.1,5.5C32.8,159.6,32.4,160.1,31.8,160.1z M26.1,157.6c0.1,0,0.1,0,0.2,0c0.2,0.1,0.4,0.1,0.6,0.1
			c0.2,0,0.4,0.1,0.6,0.1c0.4,0.1,0.7,0.1,1,0.1l0.3,0c0.2,0,0.5,0,0.7,0c0.4,0,0.8,0,1.2,0h0.1c0.1-1.9,0.5-3.6,1.3-5.3
			c0.8-1.9,2-3.6,3.4-5.1c1.7-1.7,3.8-3,6.1-3.8v-68H24.8c-4.1,0-8.1,1.5-11.2,4.3C10,83.3,8,87.9,8,92.6v42.7
			c0,6.6,2.9,12.9,7.9,17.2c0,0,0.1,0,0.1,0.1c0.1,0.1,0.3,0.2,0.4,0.3l0.2,0.2c0,0,0.1,0.1,0.1,0.1c0.2,0.2,0.4,0.3,0.6,0.5
			c0.2,0.2,0.4,0.3,0.7,0.5c0.3,0.2,0.5,0.3,0.8,0.5c1,0.6,1.9,1.1,3,1.5c0.3,0.1,0.5,0.2,0.8,0.3c0,0,0.1,0,0.1,0c0,0,0,0,0.1,0
			c0.3,0.1,0.5,0.2,0.8,0.3c0,0,0.1,0,0.1,0c0,0,0,0,0.1,0c0.1,0.1,0.3,0.1,0.4,0.1l0.2,0.1c0.3,0.1,0.6,0.2,0.9,0.2
			c0,0,0.1,0,0.1,0c0.2,0.1,0.4,0.1,0.7,0.2C26.1,157.6,26.1,157.6,26.1,157.6z M23.8,157C23.8,157,23.8,157,23.8,157
			C23.8,157,23.8,157,23.8,157z M23.6,156.9L23.6,156.9L23.6,156.9z M22.6,156.6C22.6,156.6,22.6,156.6,22.6,156.6
			C22.6,156.6,22.6,156.6,22.6,156.6z M16.5,153.1C16.5,153.1,16.5,153.1,16.5,153.1C16.5,153.1,16.5,153.1,16.5,153.1z"/>
	</g>
	<g>
		<path class="st1" d="M176.9,160.1H79.1c-0.6,0-1-0.4-1-1c0-1.9-0.4-3.8-1.1-5.5c-1.6-3.9-4.9-6.8-8.9-8c-0.4-0.1-0.7-0.5-0.7-1
			V74.9c0-0.6,0.4-1,1-1h119.4c0.6,0,1,0.4,1,1v69.7c0,0.4-0.3,0.8-0.7,1c-2.2,0.7-4.3,1.9-5.9,3.5c-1.3,1.3-2.3,2.8-3,4.5
			c-0.8,1.7-1.1,3.6-1.1,5.5C177.9,159.6,177.5,160.1,176.9,160.1z M80,158.1H176c0.1-1.9,0.5-3.6,1.3-5.3c0.8-1.9,2-3.6,3.4-5.1
			c1.7-1.7,3.8-3,6.1-3.8v-68H69.3v68c4.3,1.5,7.7,4.7,9.5,8.9C79.5,154.4,79.9,156.2,80,158.1z"/>
	</g>
	<g>
		<path class="st1" d="M225.3,160.1h-1.1c-0.6,0-1-0.4-1-1c0-1.9-0.4-3.8-1.1-5.5c-1.6-3.9-4.9-6.8-8.9-8c-0.4-0.1-0.7-0.5-0.7-1
			v-38.1c0-0.6,0.4-1,1-1s1,0.4,1,1v37.4c4.3,1.5,7.7,4.7,9.5,8.9c0.7,1.7,1.1,3.5,1.3,5.3h0.1c0.4,0,0.8,0,1.2,0c0.3,0,0.5,0,0.7,0
			l0.4,0c0.3,0,0.6-0.1,0.9-0.1c0.3,0,0.5-0.1,0.7-0.1c0.2,0,0.5-0.1,0.7-0.1c0.1,0,0.1,0,0.2,0c0,0,0.1,0,0.1,0
			c0.2,0,0.5-0.1,0.7-0.2c0,0,0.1,0,0.1,0c0.3-0.1,0.6-0.1,0.9-0.2l0.2-0.1c0.1,0,0.3-0.1,0.4-0.1c0,0,0,0,0.1,0c0,0,0.1,0,0.1,0
			c0.3-0.1,0.5-0.2,0.8-0.3c0,0,0.1,0,0.1,0c0,0,0.1,0,0.1,0c0.3-0.1,0.5-0.2,0.8-0.3c1-0.4,2-1,2.9-1.5c0.3-0.2,0.5-0.3,0.8-0.5
			c0.3-0.2,0.5-0.3,0.7-0.5c0.2-0.2,0.4-0.3,0.6-0.5c0,0,0.1-0.1,0.1-0.1c0,0,0,0,0,0l0.2-0.2c0.1-0.1,0.3-0.2,0.4-0.3
			c0,0,0.1,0,0.1-0.1c5-4.3,7.9-10.6,7.9-17.2V92.6c0-4.8-2-9.3-5.6-12.5c-3.1-2.8-7.1-4.3-11.2-4.3h-16.8v18.6c0,0.6-0.4,1-1,1
			s-1-0.4-1-1V74.9c0-0.6,0.4-1,1-1h17.8c4.6,0,9.1,1.7,12.5,4.8c4,3.6,6.3,8.7,6.3,14v42.7c0,7.2-3.2,14.1-8.7,18.8l0,0
			c0,0,0,0-0.1,0.1c-0.1,0.1-0.3,0.2-0.4,0.4l-0.2,0.2c-0.1,0.1-0.2,0.1-0.3,0.2c-0.2,0.2-0.4,0.3-0.6,0.5c-0.2,0.2-0.5,0.4-0.8,0.5
			c-0.2,0.2-0.5,0.4-0.8,0.5c-1,0.6-2.1,1.2-3.2,1.7c-0.3,0.1-0.5,0.2-0.8,0.3c-0.1,0-0.1,0.1-0.3,0.1c-0.3,0.1-0.5,0.2-0.8,0.3
			c-0.1,0-0.1,0.1-0.2,0.1c-0.2,0.1-0.3,0.1-0.5,0.2l-0.2,0.1c-0.3,0.1-0.7,0.2-1,0.3c-0.3,0.1-0.6,0.1-0.8,0.2
			c-0.1,0-0.2,0-0.3,0.1c-0.2,0.1-0.5,0.1-0.7,0.1c-0.2,0-0.4,0.1-0.7,0.1c-0.3,0.1-0.6,0.1-1,0.1l-0.4,0c-0.3,0-0.5,0-0.8,0
			C226.1,160.1,225.7,160.1,225.3,160.1z M232.2,157C232.2,157,232.2,157,232.2,157C232.2,157,232.2,157,232.2,157z M239.5,153.1
			C239.5,153.1,239.5,153.1,239.5,153.1C239.5,153.1,239.5,153.1,239.5,153.1z"/>
	</g>
	<g>
		<path class="st1" d="M33,153.6h-2.3c-10.1,0-18.3-8.2-18.3-18.3v-56c0-0.1,0.1-0.3,0.2-0.4c3.4-3,7.7-4.7,12.2-4.7h17.8
			c0.3,0,0.5,0.2,0.5,0.5v69.7c0,0.2-0.1,0.4-0.4,0.5c-2.3,0.7-4.4,2-6.1,3.7c-1.3,1.3-2.4,2.9-3.1,4.6
			C33.4,153.5,33.2,153.6,33,153.6z M13.4,79.6v55.7c0,9.5,7.8,17.3,17.3,17.3h2c0.8-1.7,1.9-3.3,3.2-4.6c1.7-1.7,3.9-3,6.2-3.8
			V75.4H24.8C20.6,75.4,16.6,76.9,13.4,79.6z"/>
	</g>
	<g>
		<path class="st1" d="M225.3,153.6H223c-0.2,0-0.4-0.1-0.5-0.3c-1.7-4-5.1-7-9.2-8.3c-0.2-0.1-0.4-0.3-0.4-0.5v-38.3
			c0-0.3,0.2-0.5,0.5-0.5s0.5,0.2,0.5,0.5v37.9c4.2,1.4,7.6,4.4,9.4,8.4h2c9.5,0,17.3-7.8,17.3-17.3V79.6c-3.1-2.8-7.2-4.3-11.4-4.3
			h-17.3v22c0,0.3-0.2,0.5-0.5,0.5s-0.5-0.2-0.5-0.5V74.9c0-0.3,0.2-0.5,0.5-0.5h17.8c4.5,0,8.8,1.7,12.2,4.7
			c0.1,0.1,0.2,0.2,0.2,0.4v56C243.6,145.4,235.4,153.6,225.3,153.6z"/>
	</g>
	<g>
		<path class="st1" d="M68.3,145.6c-0.1,0-0.2,0-0.3,0c-1.3-0.4-2.7-0.6-4.1-0.6h-17c-1.4,0-2.7,0.2-4.1,0.6c-0.3,0.1-0.6,0-0.9-0.2
			c-0.3-0.2-0.4-0.5-0.4-0.8V74.9c0-0.6,0.4-1,1-1h25.7c0.6,0,1,0.4,1,1v69.7c0,0.3-0.1,0.6-0.4,0.8
			C68.7,145.5,68.5,145.6,68.3,145.6z M46.9,143h17c1.1,0,2.3,0.1,3.4,0.4V75.9H43.6v67.4C44.7,143.1,45.8,143,46.9,143z"/>
	</g>
	<g>
		<path class="st1" d="M55.4,196.5c-7.6,0-13.8-6.2-13.8-13.9v-9c0-0.3,0.1-0.6,0.4-0.8c0.3-0.2,0.6-0.2,0.9-0.2
			c1.3,0.4,2.7,0.6,4.1,0.6h17c1.4,0,2.7-0.2,4.1-0.6c0.3-0.1,0.6,0,0.9,0.2c0.3,0.2,0.4,0.5,0.4,0.8v9
			C69.3,190.2,63.1,196.5,55.4,196.5z M43.6,174.9v7.7c0,6.5,5.3,11.9,11.8,11.9c6.5,0,11.9-5.3,11.9-11.9v-7.8
			c-1.1,0.2-2.2,0.4-3.4,0.4h-17C45.8,175.2,44.7,175.1,43.6,174.9z"/>
	</g>
	<g>
		<path class="st1" d="M62.4,144.5H48.5c-0.3,0-0.5-0.2-0.5-0.5V91.8c0-0.3,0.2-0.5,0.5-0.5s0.5,0.2,0.5,0.5v51.7h12.8V75.4H49v7.1
			c0,0.3-0.2,0.5-0.5,0.5S48,82.8,48,82.5v-7.6c0-0.3,0.2-0.5,0.5-0.5h13.8c0.3,0,0.5,0.2,0.5,0.5V144
			C62.9,144.2,62.6,144.5,62.4,144.5z"/>
	</g>
	<g>
		<path class="st1" d="M55.4,190c-4.1,0-7.4-3.3-7.4-7.4v-8.4c0-0.3,0.2-0.5,0.5-0.5h13.8c0.3,0,0.5,0.2,0.5,0.5v8.4
			C62.9,186.7,59.5,190,55.4,190z M49,174.7v7.9c0,3.5,2.9,6.4,6.4,6.4c3.5,0,6.4-2.9,6.4-6.4v-7.9H49z"/>
	</g>
	<g>
		<path class="st1" d="M213.4,145.6c-0.1,0-0.2,0-0.3,0c-1.3-0.4-2.7-0.6-4.1-0.6h-17c-1.4,0-2.7,0.2-4.1,0.6
			c-0.3,0.1-0.6,0-0.9-0.2c-0.3-0.2-0.4-0.5-0.4-0.8V74.9c0-0.6,0.4-1,1-1h25.7c0.6,0,1,0.4,1,1v22.5c0,0.6-0.4,1-1,1s-1-0.4-1-1
			V75.9h-23.7v67.4c1.1-0.2,2.2-0.3,3.4-0.3h17c1.1,0,2.3,0.1,3.4,0.4v-37.1c0-0.6,0.4-1,1-1s1,0.4,1,1v38.4c0,0.3-0.1,0.6-0.4,0.8
			C213.8,145.5,213.6,145.6,213.4,145.6z"/>
	</g>
	<g>
		<path class="st1" d="M200.6,196.5c-7.6,0-13.9-6.2-13.9-13.9v-9c0-0.3,0.1-0.6,0.4-0.8c0.3-0.2,0.6-0.2,0.9-0.2
			c1.3,0.4,2.7,0.6,4.1,0.6h17c1.4,0,2.7-0.2,4.1-0.6c0.3-0.1,0.6,0,0.9,0.2c0.3,0.2,0.4,0.5,0.4,0.8v9
			C214.4,190.2,208.2,196.5,200.6,196.5z M188.7,174.9v7.7c0,6.5,5.3,11.9,11.9,11.9c6.5,0,11.8-5.3,11.8-11.9v-7.8
			c-1.1,0.2-2.2,0.4-3.4,0.4h-17C190.9,175.2,189.8,175.1,188.7,174.9z"/>
	</g>
	<g>
		<path class="st1" d="M207.5,144.5h-13.8c-0.3,0-0.5-0.2-0.5-0.5V74.9c0-0.3,0.2-0.5,0.5-0.5h13.8c0.3,0,0.5,0.2,0.5,0.5V144
			C208,144.2,207.8,144.5,207.5,144.5z M194.1,143.5H207V75.4h-12.8V143.5z"/>
	</g>
	<g>
		<path class="st1" d="M200.6,190c-4.1,0-7.4-3.3-7.4-7.4v-8.4c0-0.3,0.2-0.5,0.5-0.5h13.8c0.3,0,0.5,0.2,0.5,0.5v8.4
			C208,186.7,204.7,190,200.6,190z M194.1,174.7v7.9c0,3.5,2.9,6.4,6.4,6.4c3.5,0,6.4-2.9,6.4-6.4v-7.9H194.1z"/>
	</g>
	<g>
		<path class="st1" d="M63.9,175.2h-17c-1.6,0-3.1-0.2-4.6-0.7c-6.9-2.1-11.5-8.3-11.5-15.5c0-2.2,0.4-4.3,1.3-6.3
			c0.8-1.9,2-3.6,3.4-5.1c1.9-1.9,4.2-3.3,6.8-4c1.5-0.4,3.1-0.7,4.6-0.7h17c1.6,0,3.1,0.2,4.6,0.7c4.6,1.4,8.3,4.7,10.2,9.1
			c0.9,2,1.3,4.1,1.3,6.3c0,4.3-1.7,8.4-4.7,11.4c-1.9,1.9-4.2,3.3-6.8,4C67.1,175,65.5,175.2,63.9,175.2z M46.9,145
			c-1.4,0-2.7,0.2-4.1,0.6c-2.2,0.7-4.3,1.9-5.9,3.5c-1.3,1.3-2.3,2.8-3,4.5c-0.8,1.7-1.1,3.6-1.1,5.5c0,6.3,4,11.7,10.1,13.5
			c1.3,0.4,2.7,0.6,4.1,0.6h17c1.4,0,2.7-0.2,4.1-0.6c2.2-0.7,4.3-1.9,5.9-3.5c2.7-2.7,4.1-6.2,4.1-10c0-1.9-0.4-3.8-1.1-5.5
			c-1.6-3.9-4.9-6.8-8.9-8c-1.3-0.4-2.7-0.6-4.1-0.6H46.9z"/>
	</g>
	<g>
		<path class="st1" d="M63.9,168.8h-17c-0.9,0-1.9-0.1-2.8-0.4c-4.1-1.2-6.9-5-6.9-9.3c0-1.3,0.3-2.6,0.8-3.8
			c0.5-1.1,1.2-2.2,2.1-3.1c1.1-1.1,2.5-2,4.1-2.4c0.9-0.3,1.8-0.4,2.8-0.4H52c0.3,0,0.5,0.2,0.5,0.5s-0.2,0.5-0.5,0.5h-5.1
			c-0.8,0-1.7,0.1-2.5,0.4c-1.4,0.4-2.6,1.2-3.7,2.2c-0.8,0.8-1.4,1.7-1.9,2.8c-0.5,1.1-0.7,2.2-0.7,3.4c0,3.9,2.5,7.2,6.2,8.3
			c0.8,0.2,1.7,0.4,2.5,0.4h17c0.8,0,1.7-0.1,2.5-0.4c1.4-0.4,2.6-1.2,3.6-2.2c1.6-1.7,2.5-3.8,2.5-6.2c0-1.2-0.2-2.3-0.7-3.4
			c-1-2.3-3.1-4.2-5.5-4.9c-0.8-0.2-1.6-0.4-2.5-0.4H57c-0.3,0-0.5-0.2-0.5-0.5s0.2-0.5,0.5-0.5h6.9c0.9,0,1.9,0.1,2.8,0.4
			c2.7,0.8,5,2.9,6.1,5.5c0.5,1.2,0.8,2.5,0.8,3.8c0,2.6-1,5-2.8,6.9c-1.1,1.1-2.5,2-4,2.4C65.8,168.6,64.9,168.8,63.9,168.8z"/>
	</g>
	<g>
		<path class="st1" d="M209.1,175.2h-17c-1.6,0-3.1-0.2-4.6-0.7c-6.9-2.1-11.5-8.3-11.5-15.5c0-2.2,0.4-4.3,1.3-6.3
			c0.8-1.9,2-3.6,3.4-5.1c1.9-1.9,4.2-3.3,6.8-4c1.5-0.4,3.1-0.7,4.6-0.7h17c1.6,0,3.1,0.2,4.6,0.7c4.6,1.4,8.3,4.7,10.2,9.1
			c0.9,2,1.3,4.1,1.3,6.3c0,4.3-1.7,8.4-4.7,11.4c-1.9,1.9-4.2,3.3-6.8,4C212.2,175,210.6,175.2,209.1,175.2z M192.1,145
			c-1.4,0-2.7,0.2-4.1,0.6c-2.2,0.7-4.3,1.9-5.9,3.5c-1.3,1.3-2.3,2.8-3,4.5c-0.8,1.7-1.1,3.6-1.1,5.5c0,6.3,4,11.7,10.1,13.5
			c1.3,0.4,2.7,0.6,4.1,0.6h17c1.4,0,2.7-0.2,4.1-0.6c2.2-0.7,4.3-1.9,5.9-3.5c2.7-2.7,4.1-6.2,4.1-10c0-1.9-0.4-3.8-1.1-5.5
			c-1.6-3.9-4.9-6.8-8.9-8c-1.3-0.4-2.7-0.6-4.1-0.6H192.1z"/>
	</g>
	<g>
		<path class="st1" d="M209.1,168.8h-17c-0.9,0-1.9-0.1-2.8-0.4c-4.1-1.2-6.9-5-6.9-9.3c0-1.3,0.3-2.6,0.8-3.8
			c0.5-1.1,1.2-2.2,2.1-3.1c1.1-1.1,2.5-2,4.1-2.4c0.9-0.3,1.8-0.4,2.8-0.4h17c0.9,0,1.9,0.1,2.8,0.4c2.7,0.8,5,2.9,6.1,5.5
			c0.5,1.2,0.8,2.5,0.8,3.8c0,2.6-1,5-2.8,6.9c-1.1,1.1-2.5,2-4,2.4C210.9,168.6,210,168.8,209.1,168.8z M192.1,150.4
			c-0.8,0-1.7,0.1-2.5,0.4c-1.4,0.4-2.6,1.2-3.7,2.2c-0.8,0.8-1.4,1.7-1.9,2.8c-0.5,1.1-0.7,2.2-0.7,3.4c0,3.9,2.5,7.2,6.2,8.3
			c0.8,0.2,1.7,0.4,2.5,0.4h17c0.8,0,1.7-0.1,2.5-0.4c1.4-0.4,2.6-1.2,3.6-2.2c1.6-1.7,2.5-3.8,2.5-6.2c0-1.2-0.2-2.3-0.7-3.4
			c-1-2.3-3.1-4.2-5.5-4.9c-0.8-0.2-1.6-0.4-2.5-0.4H192.1z"/>
	</g>
	<g>
		<path class="st1" d="M172.1,135.4H83.9c-0.6,0-1-0.4-1-1V99.5c0-0.6,0.4-1,1-1h57c0.6,0,1,0.4,1,1s-0.4,1-1,1h-56v32.9h86.2v-32.9
			H150c-0.6,0-1-0.4-1-1s0.4-1,1-1h22.1c0.6,0,1,0.4,1,1v34.9C173.1,135,172.6,135.4,172.1,135.4z"/>
	</g>
	<g>
		<path class="st1" d="M167.1,129.9H88.9c-0.3,0-0.5-0.2-0.5-0.5v-24.9c0-0.3,0.2-0.5,0.5-0.5h78.2c0.3,0,0.5,0.2,0.5,0.5v24.9
			C167.6,129.7,167.4,129.9,167.1,129.9z M89.4,128.9h77.2V105H89.4V128.9z"/>
	</g>
	<g>
		<path class="st1" d="M188.6,243.8H67.4c-0.3,0-0.5-0.2-0.5-0.5v-39c0-0.2,0.1-0.3,0.3-0.4c3.3-1.9,6.3-4.5,8.4-7.7
			c0.1-0.1,0.2-0.2,0.4-0.2h104c0.2,0,0.3,0.1,0.4,0.2c2.2,3.2,5.1,5.8,8.4,7.7c0.2,0.1,0.3,0.3,0.3,0.4v39
			C189.1,243.6,188.8,243.8,188.6,243.8z M67.9,242.8h120.1v-38.2c-3.3-1.9-6.2-4.5-8.3-7.6H76.3c-2.2,3.1-5,5.7-8.3,7.6V242.8z"/>
	</g>
	<g>
		<path class="st1" d="M123.2,192.5h-3.1c-0.6,0-1-0.4-1-1s0.4-1,1-1h3.1c0.6,0,1,0.4,1,1S123.7,192.5,123.2,192.5z"/>
	</g>
	<g>
		<path class="st1" d="M231.2,244.3H24.8c-10.4,0-18.8-8.4-18.8-18.8V92.6c0-10.4,8.4-18.8,18.8-18.8h206.4
			c10.4,0,18.8,8.4,18.8,18.8V186c0,0.6-0.4,1-1,1s-1-0.4-1-1V92.6c0-9.3-7.5-16.8-16.8-16.8H24.8C15.5,75.9,8,83.4,8,92.6v132.9
			c0,9.3,7.5,16.8,16.8,16.8h206.4c9.3,0,16.8-7.5,16.8-16.8v-25.1c0-0.6,0.4-1,1-1s1,0.4,1,1v25.1
			C250,235.9,241.6,244.3,231.2,244.3z"/>
	</g>
</g>
</svg>
