<svg xmlns="http://www.w3.org/2000/svg" data-name="Layer 1" viewBox="0 0 128 128"><path d="M64.916 94.769h10.656a2.043 2.043 0 0 0 0-4.086H64.916a2.043 2.043 0 0 0 0 4.086zM64.916 54.078h10.656a2.043 2.043 0 0 0 0-4.086H64.916a2.043 2.043 0 0 0 0 4.086zM64.916 74.423h10.656a2.043 2.043 0 0 0 0-4.086H64.916a2.043 2.043 0 1 0 0 4.086z"/><path d="M37.16 48.8v51.761a7.881 7.881 0 0 0 2.314 5.569l.006.006a7.88 7.88 0 0 0 5.574 2.32h37.06a7.879 7.879 0 0 0 5.569-2.314l.006-.006a7.881 7.881 0 0 0 2.32-5.574V53.849h5.505v24.308a2.043 2.043 0 1 0 4.086 0V51.806a2.043 2.043 0 0 0-2.043-2.043h-7.541V44.2a7.879 7.879 0 0 0-2.316-5.571l-.006-.006a7.939 7.939 0 0 0-3.531-2.049v-2.55a7.92 7.92 0 0 0-7.9-7.9H68.97v-.04a6.527 6.527 0 0 0-1.918-4.63 6.544 6.544 0 0 0-11.174 4.626v.04h-7.289a7.872 7.872 0 0 0-5.574 2.32 7.88 7.88 0 0 0-2.319 5.582V36.3h-10.27a2.034 2.034 0 0 0-1.508 3.4zm23.522-24.46a2.473 2.473 0 0 1 3.482-.008 2.456 2.456 0 0 1 .721 1.741v.04h-4.924v-.04a2.454 2.454 0 0 1 .721-1.731zm-15.908 9.684a3.8 3.8 0 0 1 1.126-2.693 3.811 3.811 0 0 1 2.7-1.118h27.656a3.831 3.831 0 0 1 3.815 3.815V36.3h-35.3zm-2.223 6.35c.059.005.119.008.18.008h39.383a3.8 3.8 0 0 1 2.694 1.118l.008.008A3.8 3.8 0 0 1 85.93 44.2v56.366a3.8 3.8 0 0 1-1.114 2.694l-.008.008a3.8 3.8 0 0 1-2.693 1.114H45.062a3.8 3.8 0 0 1-2.693-1.114l-.008-.008a3.8 3.8 0 0 1-1.115-2.694V48.027a2.039 2.039 0 0 0-.664-1.507l-5.568-6.146z"/><path d="M64.916 84.6h10.656a2.043 2.043 0 0 0 0-4.086H64.916a2.043 2.043 0 1 0 0 4.086zM64.916 64.251h10.656a2.043 2.043 0 0 0 0-4.086H64.916a2.043 2.043 0 1 0 0 4.086z"/></svg>