<svg id="Layer_1" data-name="Layer 1" xmlns="http://www.w3.org/2000/svg" viewBox="0 0 128 128"><title>Artboard 16</title><path d="M106.642,90.128a6.191,6.191,0,0,0-4.077-1.815A29.33,29.33,0,0,0,73.4,61.109h-.431a9.075,9.075,0,0,0-15.259-5.088c-.044.037-.087.076-.128.117a9.059,9.059,0,0,0-2.545,4.97H54.6a29.33,29.33,0,0,0-29.169,27.2,6.223,6.223,0,0,0-5.9,6.2h0a6.221,6.221,0,0,0,6.208,6.208h76.513a6.222,6.222,0,0,0,6.208-6.208h0A6.191,6.191,0,0,0,106.642,90.128Zm-46.175-31.1c.03-.03.059-.061.087-.092a5,5,0,0,1,8.227,2.174H59.219A4.985,4.985,0,0,1,60.467,59.027ZM36.84,72.585A25.077,25.077,0,0,1,54.6,65.2H73.4a25.244,25.244,0,0,1,25.07,23.111H29.533A25.11,25.11,0,0,1,36.84,72.585Zm67.539,21.93a2.133,2.133,0,0,1-2.122,2.122H25.743a2.133,2.133,0,0,1-2.122-2.122h0a2.133,2.133,0,0,1,2.122-2.123h76.513a2.133,2.133,0,0,1,2.122,2.123Z"/><path d="M63.634,46.882a2.039,2.039,0,0,0,2.761-.83,7.541,7.541,0,0,0,1.125-4.55,11.887,11.887,0,0,0-2.247-5.315q-.035-.061-.075-.121c-1.757-2.636.456-5.5.462-5.508a2.037,2.037,0,1,0-3.224-2.49c-.011.015-4.015,5.2-.638,10.265.024.036.049.071.075.1a8.386,8.386,0,0,1,1.592,3.447,4,4,0,0,1-.662,2.236A2.039,2.039,0,0,0,63.634,46.882Z"/><path d="M49.145,46.882a2.039,2.039,0,0,0,2.761-.83,7.54,7.54,0,0,0,1.125-4.55,12.06,12.06,0,0,0-2.322-5.427c-1.76-2.64.456-5.508.463-5.517a2.037,2.037,0,0,0-3.224-2.49c-.011.015-4.012,5.194-.638,10.257a8.63,8.63,0,0,1,1.667,3.56,4,4,0,0,1-.663,2.236A2.039,2.039,0,0,0,49.145,46.882Z"/><path d="M78.123,46.882a2.039,2.039,0,0,0,2.761-.83,7.539,7.539,0,0,0,1.125-4.55,12.063,12.063,0,0,0-2.322-5.427c-1.76-2.64.456-5.508.462-5.517a2.037,2.037,0,1,0-3.224-2.49c-.011.015-4.012,5.194-.638,10.257a8.63,8.63,0,0,1,1.667,3.56,4,4,0,0,1-.662,2.236A2.039,2.039,0,0,0,78.123,46.882Z"/></svg>