<svg id="Layer_1" data-name="Layer 1" xmlns="http://www.w3.org/2000/svg" viewBox="0 0 128 128"><title>Artboard 1</title><path d="M41.083,64.942V99a6.989,6.989,0,0,0,2.009,4.965c.036.043.075.086.116.126a10.5,10.5,0,0,0,5.276,2.678,76.944,76.944,0,0,0,15.923,1.688,68.478,68.478,0,0,0,15.14-1.7,10.822,10.822,0,0,0,5.259-2.707A6.951,6.951,0,0,0,86.917,99V64.942a15.859,15.859,0,1,0-6.341-30.993q-.386.109-.763.236a15.86,15.86,0,0,0-31.626,0q-.378-.127-.763-.236a15.859,15.859,0,1,0-6.341,30.993ZM82.831,99a2.985,2.985,0,0,1-.913,2.165,6.743,6.743,0,0,1-3.264,1.622,64.442,64.442,0,0,1-14.246,1.6,72.943,72.943,0,0,1-15.093-1.608,6.423,6.423,0,0,1-3.218-1.576c-.027-.027-.056-.054-.085-.08A3.034,3.034,0,0,1,45.169,99V96.909A112.674,112.674,0,0,0,64,98.538a108.423,108.423,0,0,0,18.831-1.615ZM34.8,40.889a11.765,11.765,0,0,1,14.47-1.725,2.038,2.038,0,0,0,3.078-2.035h0c-.042-.29-.075-.578-.1-.86q-.029-.392-.029-.871a11.773,11.773,0,1,1,23.546,0c0,.32-.01.611-.029.873-.021.282-.053.569-.1.858a2.04,2.04,0,0,0,3.164,1.984,11.776,11.776,0,1,1,6.061,21.873,2.043,2.043,0,0,0-2.043,2.043V92.777A104.266,104.266,0,0,1,64,94.468a108.67,108.67,0,0,1-18.831-1.7V63.029a2.043,2.043,0,0,0-2.043-2.043,11.773,11.773,0,0,1-8.325-20.1Z"/></svg>