<svg id="Layer_1" data-name="Layer 1" xmlns="http://www.w3.org/2000/svg" viewBox="0 0 128 128"><title>Artboard 11</title><path d="M86.61,69.215a8.878,8.878,0,0,0-.866-1.055L57.269,27.3l-.006,0-.006-.008a4.921,4.921,0,0,0-6.758-1.28c-.031.019-.061.039-.092.06l0,0v0l0,0,0,0L26.888,42.545a2.035,2.035,0,0,0-.5,2.833L49.594,78.524A16.564,16.564,0,0,0,66.843,85.14a2.027,2.027,0,0,0,1.392-.354l.076-.056a16.421,16.421,0,0,0,4.28-2.149l1.188-.831,12,17.134a2.023,2.023,0,0,0,.228.321,8.853,8.853,0,0,0,12.029,2.122,2.018,2.018,0,0,0,.342-.24,8.854,8.854,0,0,0,2.008-12.2ZM60.962,81.284a12.4,12.4,0,0,1-8.032-5.09L30.886,44.712l4.568-3.2,27.98,39.96A12.659,12.659,0,0,1,60.962,81.284ZM74.452,66.923c-.046.026-.091.053-.136.083h0l0,.007-.034.024h0l-.093.066h0l-.092.067h0l-.09.068h0l-.089.069h0l-.088.07h0l-.088.071h0l-.086.072h0l-.085.073h0l-.084.074h0l-.083.074h0l-.082.076h0l-.081.076h0l-.079.077h0l-.079.078h0L73,68.13h0l-.076.08h0l-.075.08h0l-.074.081h0l-.073.082h0l-.072.083h0l-.071.083h0l-.069.084-.068.085-.067.086h0l-.066.086h0l-.065.087-.063.088h0l-.063.089h0l-.061.089-.061.09-.059.09-.058.091-.057.091h0l-.055.092h0l-.054.093h0l-.053.093-.052.094-.051.095-.049.1h0l-.049.1-.047.1-.046.1-.045.1-.043.1h0l-.042.1-.041.1-.04.1-.039.1-.037.1-.036.1-.035.1-.034.1h0l-.033.1h0l-.031.1h0l-.03.1h0l-.029.1-.028.1-.026.1h0l-.025.1h0l-.024.1h0l-.023.1h0l-.021.1-.02.1h0l-.019.1h0l-.015.087,0,.017-.012.071-.005.034-.008.054-.007.05-.005.037-.009.068,0,.02-.01.085v0l-.01.088,0,.013-.007.075,0,.031-.005.058,0,.048,0,.041,0,.064v.025l-.01.178v.009l0,.08v.026l0,.063v.363l0,.084v.022l0,.067,0,.078v.012l0,.057,0,.032,0,.074v.015l.006.09v0l.007.088,0,.018.007.071,0,.035.006.054.01.089.008.07,0,.019.011.087v0l.013.089,0,.015.011.074.015.089.008.049.007.04v.007l.015.081.016.083v.006l.019.089,0,.011.017.078.041.177.015.061.007.027.023.088.024.088,0,.007.023.081.023.079,0,.008.012.04.015.047.018.057.01.03.024.074,0,.013.029.087v0l.03.083.007.02.025.067.013.036.019.05.02.052.013.033.011.028.023.058.035.085h0l.036.085.037.085.014.031.024.053v0l.078.166.038.079,0,0,.042.084.006.011.037.072-1.246.873a12.311,12.311,0,0,1-2.478,1.342L38.788,39.18l13.928-9.753v0l0,0,.047-.033a.869.869,0,0,1,.6-.105.844.844,0,0,1,.542.328h0l0,0,0,.006,0,0L78.881,65.45a8.8,8.8,0,0,0-3.086.736l0,0q-.343.151-.677.334l-.018.01-.069.038-.008,0c-.063.036-.126.072-.189.11l-.008,0-.086.052-.05.031-.043.027c-.062.039-.124.079-.185.12ZM97.825,94.789A4.756,4.756,0,0,1,95.9,97.857l-.045.031a4.817,4.817,0,0,1-6.64-1.185l0,0L75.443,77.034l-.035-.05-.034-.051-.033-.051-.032-.051-.032-.051-.031-.052-.031-.052-.03-.052-.029-.053-.028-.053-.028-.053-.027-.054-.026-.053-.025-.054L75,76.249l-.024-.055-.023-.055-.022-.055-.021-.055-.021-.055-.02-.055-.02-.056-.019-.056-.018-.056-.017-.056h0l-.017-.056h0l-.016-.056-.015-.057-.015-.056h0l-.013-.057h0l-.013-.057-.012-.057h0l-.011-.057h0l-.011-.057-.01-.057-.01-.057-.009-.057h0l-.008-.057-.008-.058h0l-.006-.057h0l-.006-.057h0l-.005-.058,0-.057h0l0-.058,0-.058h0l0-.058,0-.058v-.057h0v-.058h0v-.058h0v-.057h0l0-.058h0l0-.057,0-.058h0l0-.057h0l0-.057h0l0-.057h0l.006-.057h0l.006-.057h0l.007-.057h0l.008-.057h0l.008-.057h0l.009-.057.01-.057h0l.01-.056h0l.011-.055v0l.011-.054v0l.012-.054v0l.012-.053v0l.013-.052v0l.013-.051v0l.014-.05v-.005l.014-.05v-.006l.015-.049,0-.007.015-.048,0-.007.015-.047,0-.008.015-.047,0-.008.016-.046,0-.008.016-.045,0-.01.016-.044,0-.01.017-.044,0-.01.017-.043,0-.011.017-.042,0-.012.018-.041L75,72.358l.018-.04.006-.012.018-.04.019-.04.005-.011.007-.014.018-.038.007-.014.018-.037.007-.014.019-.036.008-.015.019-.035.008-.016.019-.034.008-.016.019-.034.01-.017.019-.034.01-.017.019-.032.01-.017.02-.032.011-.018.031-.049.019-.03.012-.019.02-.029.013-.019.019-.029.014-.02.019-.028.014-.02.019-.027.015-.021.019-.026.016-.021.019-.025.016-.021.019-.025.017-.021.019-.024.035-.043,0,0,.018-.022.019-.023.019-.022.019-.022.02-.023.018-.021.021-.023.074-.081L75.889,71l.018-.019.023-.024.018-.018.024-.024.042-.042.017-.017.025-.024.017-.016.026-.025.017-.016.027-.025.017-.015.028-.025L76.2,70.7l.029-.025.016-.014.03-.026.016-.013.031-.025.015-.012.032-.026.015-.012.032-.025.046-.035,0,0,.014-.011.035-.026.014-.01.036-.026.013-.009,0,.006h0c.056-.037.109-.077.161-.119h0l0,0,.045-.029h0l.045-.029,0,0,.042-.025.008,0,.037-.022.013-.007.033-.019.046-.026.021-.012.025-.013.025-.014.021-.011.094-.048L77.246,70l.009,0,.047-.022.047-.022h0c.063-.029.127-.056.191-.083l.018-.007.031-.012a4.817,4.817,0,0,1,2.165-.311c.1.008.2.019.3.034l.028,0,.021,0,.034.005.016,0,.039.007.01,0,.047.008h0l.049.009H80.3l.044.009.013,0,.036.008.02,0,.028.007.028.006.021,0,.035.009.013,0,.043.011h.006l.048.013h0l.047.013.009,0,.039.011.016.005.031.009.024.007.024.008.031.01.016.005.038.013.009,0,.094.033.006,0,.041.016.013,0,.054.021.027.01.027.011.019.008.034.014.053.023,0,0,.046.02h0l.043.02.009,0,.036.017.016.008.029.014.023.011.022.011.03.015.015.007.036.019.008,0,.132.072.013.007.031.018.069.041.017.011.032.019.011.007.039.024,0,0a4.688,4.688,0,0,1,.68.53,2.013,2.013,0,0,0,.176.171,4.726,4.726,0,0,1,.46.56L97.047,91.213A4.772,4.772,0,0,1,97.825,94.789Z"/></svg>