<svg xmlns="http://www.w3.org/2000/svg" data-name="Layer 1" viewBox="0 0 128 128"><path d="M84.852 39.143a2.039 2.039 0 002.761-.83 7.543 7.543 0 001.125-4.55 12.062 12.062 0 00-2.322-5.427c-1.76-2.64.456-5.508.462-5.516a2.037 2.037 0 00-3.224-2.49c-.011.015-4.013 5.194-.638 10.256a8.627 8.627 0 011.667 3.56 4 4 0 01-.662 2.236 2.039 2.039 0 00.831 2.761zM70.364 39.143a2.039 2.039 0 002.761-.83 7.54 7.54 0 001.125-4.55A11.884 11.884 0 0072 28.449a1.721 1.721 0 00-.075-.121c-1.757-2.636.456-5.5.462-5.508a2.037 2.037 0 00-3.224-2.49c-.011.015-4.015 5.2-.637 10.265a.898.898 0 00.075.1 8.384 8.384 0 011.599 3.451 4 4 0 01-.663 2.236 2.039 2.039 0 00.827 2.761zM55.875 39.143a2.039 2.039 0 002.761-.83 7.541 7.541 0 001.125-4.55 12.06 12.06 0 00-2.322-5.427c-1.76-2.64.456-5.508.462-5.516a2.037 2.037 0 00-3.224-2.49c-.011.015-4.012 5.194-.638 10.256a8.627 8.627 0 011.667 3.56 4 4 0 01-.662 2.236 2.039 2.039 0 00.831 2.761zM43.493 82.494v4.516a21.51 21.51 0 0021.452 21.452h11.569A21.51 21.51 0 0097.966 87.01V53.668a7.566 7.566 0 00-2.228-5.361 2.115 2.115 0 00-.131-.12 7.566 7.566 0 00-5.23-2.108h-39.3a7.567 7.567 0 00-5.353 2.228l-.006.006a7.633 7.633 0 00-1.967 3.406 15.5 15.5 0 00-.255 30.767zm4.086-1.91V53.668A3.487 3.487 0 0148.6 51.2l.008-.008a3.486 3.486 0 012.472-1.022h39.3a3.486 3.486 0 012.39.943c.027.03.054.059.082.087a3.492 3.492 0 011.03 2.472V87.01a17.421 17.421 0 01-17.366 17.366H64.945A17.421 17.421 0 0147.579 87.01zm-10.115-21.53a11.389 11.389 0 016.029-3.161v22.466a11.418 11.418 0 01-6.029-19.305z"/></svg>