<svg xmlns="http://www.w3.org/2000/svg" data-name="Layer 1" viewBox="0 0 128 128"><path d="M32 35.513c-.053.034-.1.071-.155.111a6.215 6.215 0 00-2.253 3.745 5.729 5.729 0 00.824 4.205c.029.049.06.1.093.146.068.1.131.182.184.25L46.9 64.54a6.471 6.471 0 003.939 2.384 5.9 5.9 0 004.447-.987l3.4-2.38 12.262 17.518a7.799 7.799 0 00-.073.37 8.819 8.819 0 001.456 6.6l.008.012L82.4 102.426a8.854 8.854 0 0012.154 2.294 2.9 2.9 0 00.14-.085v-.007l.035-.024a8.854 8.854 0 002.176-12.326L86.842 77.9a8.834 8.834 0 00-5.718-3.641c-.122-.021-.244-.04-.366-.057L68.491 56.689l2.249-1.575a5.909 5.909 0 002.452-3.85 6.458 6.458 0 00-.9-4.5L58.575 24.61q-.032-.059-.068-.117c-.02-.033-.08-.12-.175-.256a5.726 5.726 0 00-3.775-2.354 6.2 6.2 0 00-4.278.841 5.879 5.879 0 00-.294.189L32.127 35.424q-.062.042-.127.089zm44.58 43.749l.018-.014.017-.013.018-.014.036-.028.018-.014h.007l.012-.009.018-.014.018-.014.018-.013.019-.013.012-.009h.006l.019-.013.019-.013h.006l.039-.027.019-.013.02-.013.02-.013c.065-.043.131-.084.2-.124l.02-.012.058-.034.02-.011.02-.011.01-.006.01-.006.02-.011.02-.011.183-.093.021-.01h.009l.012-.005.021-.01.021-.009.021-.009.021-.01.012-.006h.008l.021-.009.021-.009.017-.007.021-.009.042-.017.021-.009h.007l.014-.005.021-.008.02-.007.023-.009.021-.008H77.916l.022-.008.078-.028h.007l.022-.007a4.838 4.838 0 012.366-.169 4.755 4.755 0 013.085 1.949l10.074 14.33a4.819 4.819 0 01-1.135 6.635v-.007a1.998 1.998 0 00-.162.12 4.821 4.821 0 01-6.53-1.26l-10.067-14.37a4.77 4.77 0 01-.778-3.575 4.9 4.9 0 01.505-1.46l.008-.015.011-.02.008-.015.012-.021.011-.02a4.859 4.859 0 01.335-.5 4.751 4.751 0 01.769-.8zM76.2 74.8l-.027.011-.027.011-.027.012-.022.01-.027.012-.027.012-.022.009h-.005l-.027.012-.027.012-.027.012-.012.005-.015.007-.027.012-.027.012-.027.013-.024.012-.027.013-.029.013-.019.009h-.008l-.027.013-.027.013-.026.013h-.009l-.018.009-.027.014-.026.013-.026.013-.026.014-.027.014-.053.028-.026.014-.026.014-.026.014h-.006l-.02.011-.026.015-.026.015-.13.075-.026.015-.026.015-.026.016-.022.014-.026.016-.026.016-.051.032-.026.016-.026.016-.01.006-.015.01-.025.016-.026.017-.026.017-.025.016-.026.017-.034.034-.017.011a2.03 2.03 0 00-.337.235A8.835 8.835 0 0073.061 77L60.535 59.109a1.917 1.917 0 01-.307-1.436V57.463l.005-.018.006-.02.007-.02.006-.019.006-.017.005-.015V57.276l.006-.013v-.007l.006-.015.007-.017.009-.019.009-.019.009-.019.008-.017.008-.015v-.006l.007-.013v-.007l.006-.011v-.009l.006-.01.006-.011v-.008l.007-.012v-.006l.12-.042.009-.015.01-.016.012-.018.011-.018.011-.016.01-.015.009-.013v-.007l.008-.011.005-.008.007-.01.007-.009.006-.008.008-.011v-.006l.009-.012.011-.013.012-.015.014-.016.014-.016.014-.015.013-.013.011-.012v-.006l.01-.01.006-.007.009-.009.008-.008.007-.007.009-.009.007-.006.056-.045h.005l.012-.012.014-.013.016-.014.017-.014.017-.014.015-.012a2.044 2.044 0 00.206-.145l.019-.011.019-.011.017-.01.016-.009.015-.007h.007l.013-.006h.009l.011-.005.01-.005h.009l.012-.006h.008l.014-.007h.006l.016-.007.017-.007.019-.008.02-.008.019-.007.018-.007.016-.005h.158l.021-.005.021-.005H62.426a1.9 1.9 0 011.236.775l.314.449.007.01zM33.6 40.1a2.111 2.111 0 01.769-1.271c.029-.023.058-.047.086-.072l17.869-12.509h.005l.086-.061a2.13 2.13 0 011.469-.283 1.673 1.673 0 011.11.663c.018.026 0 0 .047.081q.034.054.07.105L68.834 48.9a2.388 2.388 0 01.337 1.663 1.86 1.86 0 01-.761 1.217L66 53.463v-.008l-.031-.026-.026-.022-.013-.01-.039-.032-.035-.028-.023-.018-.017-.013-.04-.032-.039-.03-.019-.015-.022-.016-.038-.028-.041-.03-.015-.011-.026-.018-.034-.024-.007-.005-.042-.029-.011-.008-.031-.021-.03-.02L65.4 53l-.042-.028h-.007l-.035-.022-.026-.017-.016-.01-.043-.026-.04-.024-.022-.014-.021-.012-.042-.025-.044-.025-.018-.01-.025-.014-.038-.021h-.006l-.044-.024-.014-.007-.03-.016-.034-.018-.011-.005-.045-.022-.01-.005-.035-.017-.03-.015-.015-.007-.045-.021h-.005l-.04-.018-.026-.012-.02-.009-.046-.02-.045-.02-.021-.009-.025-.01-.042-.017-.046-.018-.017-.007-.03-.012-.038-.014h-.009l-.046-.017h-.012l-.035-.012-.033-.012h-.014l-.047-.016h-.007l-.04-.013-.029-.01-.019-.006-.047-.015-.045-.014-.024-.007-.023-.007-.046-.013-.048-.014-.02-.006-.028-.008-.041-.011h-.007l-.048-.013h-.015l-.033-.008-.037-.009h-.012l-.048-.011h-.01l-.038-.008-.032-.007h-.017l-.049-.01-.044-.009-.027-.005h-.022l-.049-.009-.068-.012-.064-.01H63l-.061-.009h-.009l-.058-.008h-.013l-.055-.007h-.016l-.052-.006h-1.022l-.069.005-.069.006-.065.006H61.5l-.062.007-.069.008h-.013l-.056.007h-.016l-.052.007h-.02l-.049.008h-.023l-.045.008h-.026l-.042.007-.029.006-.039.007-.032.007-.036.007-.067.014-.039.009-.029.007-.042.01-.026.007-.068.017-.048.012-.019.005-.051.014h-.016l-.054.016h-.013l-.057.017h-.01l-.061.019h-.006l-.063.021-.067.023-.066.024-.063.024h-.006l-.06.023h-.01l-.057.023h-.012l-.053.022-.016.007-.05.021-.019.008-.047.02-.022.01-.043.019-.025.011-.04.019-.027.013-.037.018-.031.015-.034.017-.033.017-.031.016-.036.019h-.009l-.058.031-.024.013-.042.023-.021.012-.045.026-.018.01-.048.028-.065.039-.012.007-.053.033-.009.005-.056.036h-.006a2.064 2.064 0 00-.368.258l-.013.009-.045.035c-.058.045-.115.09-.171.138l-.022.019-.033.028q-.083.071-.162.144l-.031.028-.022.02-.009.008-.043.041-.035.033-.017.017-.051.051-.038.039-.012.012-.091.1-.007.008-.043.047v.005l-.045.05-.046.053-.046.054-.087.108-.006.007-.038.048-.085.112-.011.015-.03.042-.039.055-.015.021-.025.037-.04.058-.017.026-.021.032-.038.058-.02.032-.017.027-.036.059-.023.037-.013.022-.069.121-.026.047-.007.014-.027.05-.006.011-.028.053v.009l-.028.056v.006l-.029.059-.03.062-.029.063-.027.06v.006l-.025.058v.008l-.023.055v.011l-.021.053-.006.014-.019.05-.007.018-.018.047-.007.021-.016.044-.05.008-.014.041-.009.026-.013.039-.01.03-.012.036-.01.033-.01.033-.011.035-.009.03-.011.039-.008.027-.012.042-.007.024-.012.045-.006.021-.013.048v.018l-.012.051v.015l-.012.054v.012l-.012.058v.009l-.012.061v.006l-.013.064-.012.067-.008.049v.049l-.007.044v.005l-.007.049v.049l-.005.039v.01l-.006.049V58.7l.006.049v.011l.005.039v.049l.007.05v.002l.007.044v.05l.008.05.009.049v.022l.005.027.009.045.01.049v.018l.007.032.009.04v.009l.011.049v.013l.009.036.008.035v.015l.013.049v.007l.011.042.008.029.005.019.014.049.014.046.007.024.007.024.014.046.016.048.007.019.01.029.014.041v.007l.017.048v.014l.013.034.013.036v.012l-3.53 2.494a1.877 1.877 0 01-1.414.3 2.366 2.366 0 01-1.433-.884L33.9 41.447l-.057-.074-.047-.064A1.7 1.7 0 0133.6 40.1z"/></svg>