<svg xmlns="http://www.w3.org/2000/svg" data-name="Layer 1" viewBox="0 0 128 128"><path d="M45.915 64.448a21.419 21.419 0 0 0 12.753-.311L70.056 80.4a8.055 8.055 0 0 0-.073.37 8.823 8.823 0 0 0 1.464 6.608l10.064 14.373a8.854 8.854 0 0 0 12.315 2.184l.012-.008A8.855 8.855 0 0 0 96.013 91.6L85.95 77.23a8.836 8.836 0 0 0-5.718-3.641 9.307 9.307 0 0 0-.367-.057l-11.39-16.266a21.388 21.388 0 0 0 .945-25.5 2.057 2.057 0 0 0-.223-.319 21.373 21.373 0 0 0-29.517-5.211 2.064 2.064 0 0 0-.321.225 21.4 21.4 0 0 0 6.556 37.987zm29.733 14.174.032-.026.009-.007.023-.019.017-.013.006-.005.01-.008.037-.029.012-.01.017-.013.017-.013.09-.057v-.006l.011-.008.024-.017.012-.009c.067-.047.134-.091.2-.134l.02-.012.032-.02h.007l.02-.012.02-.012.016-.009.02-.012.016-.009.02-.011.021-.011h.008l.012-.007.02-.011.02-.011.02-.01.02-.011.012-.006h.008l.02-.01.021-.01.017-.008.02-.01.016-.007h.005l.041-.02h.007l.034-.016.019-.009.021-.01.021-.009H76.74l.042-.018.04-.017.014-.006h.007l.148-.058H77.012l.021-.008.021-.007a4.834 4.834 0 0 1 2.452-.2 4.758 4.758 0 0 1 3.085 1.949l10.087 14.323a4.819 4.819 0 0 1-1.17 6.66 4.819 4.819 0 0 1-6.66-1.171L74.782 85.049A4.771 4.771 0 0 1 74 81.474a4.858 4.858 0 0 1 .262-.934l.017-.043v-.007l.006-.014.009-.021.007-.017.009-.021a4.766 4.766 0 0 1 .583-1 4.639 4.639 0 0 1 .741-.777zm-.336-4.5a8.719 8.719 0 0 0-.4.177l-.1.048a8.842 8.842 0 0 0-1.15.676v-.007a2.088 2.088 0 0 0-.2.156l-.01.007-.012.009-.021.016-.022.016-.022.016-.013.01-.008.007-.021.017-.022.017a8.854 8.854 0 0 0-1.125 1.032L59.643 58.435l-.014-.02-.013-.02-.013-.02-.013-.02-.012-.021-.012-.021-.012-.021-.011-.021-.011-.021-.011-.021-.011-.021-.01-.021-.01-.021-.01-.021-.009-.021-.009-.021-.009-.022-.009-.021-.008-.022-.008-.022-.008-.022-.008-.022-.008-.022-.007-.022-.007-.022-.007-.022-.006-.022-.006-.022-.006-.023-.005-.022V56.912l.005-.022.005-.022.005-.022.006-.022.006-.021.006-.021.007-.021.007-.021.007-.021.007-.02.007-.02.007-.02.007-.02.008-.02.008-.019.008-.019.008-.019.009-.019.017-.043.009-.018.01-.018.009-.018.009-.018.01-.018.01-.017.01-.017.01-.017.01-.017.01-.017.011-.016.011-.016.011-.016.011-.016.011-.016.011-.015.011-.015.011-.015.012-.015.012-.015.012-.014.012-.014.012-.014.012-.014.012-.013.066-.101.012-.013.013-.013.012-.012.013-.012.013-.012.013-.012.013-.012.013-.011h.005l.013-.011h.005l.019-.015.013-.011h.006l.013-.01h.006l.013-.01h.006l.013-.01h.006l.013-.01h.006l.015-.011.009-.007.031-.02.009-.006.011-.007.01-.006.011-.007.041-.024.009-.005.011-.007.009-.005.012-.006.063-.032h.008l.013-.006h.008l.013-.006h.008l.013-.006h.008l.014-.006h.008l.014-.006h.008l.014-.005h.007l.014-.006h.007l.014-.005.044-.016H61.515a1.9 1.9 0 0 1 1.236.775l1.407 1.804v.007a2.065 2.065 0 0 0 .133.189zM34.735 40.861a17.259 17.259 0 0 1 7.115-11.178 17.338 17.338 0 0 1 24.122 4.253 17.348 17.348 0 0 1 .036 19.819l-.032-.042-.013-.018-.034-.044-.011-.015-.036-.046-.01-.012-.038-.047-.008-.01-.048-.056-.042-.05-.005-.006-.045-.051-.047-.053-.049-.054-.1-.1-.047-.047-.006-.007-.045-.044-.008-.008-.044-.042-.01-.01-.042-.039-.106-.1-.017-.015-.038-.033-.018-.016-.036-.03-.021-.018-.034-.028-.023-.019-.032-.026-.025-.02-.03-.024-.051-.04h-.005l-.03-.023-.027-.02-.032-.024-.025-.018q-.074-.054-.15-.106l-.019-.012-.042-.029-.017-.011-.045-.029-.014-.009-.048-.03-.012-.007-.05-.031-.01-.006-.052-.032h-.008l-.055-.033h-.006l-.058-.032-.123-.067-.061-.032-.058-.03h-.006l-.057-.028h-.009l-.055-.026-.011-.005-.052-.024-.013-.006-.05-.023-.016-.007-.048-.021-.018-.008-.046-.019-.02-.009-.044-.018-.023-.009-.041-.016-.026-.01-.039-.015-.028-.01-.037-.014-.031-.011-.035-.012-.033-.012-.032-.011-.036-.012-.03-.01-.039-.012-.027-.008-.042-.013-.025-.008-.044-.013-.022-.006-.047-.013-.02-.005-.049-.013h-.018l-.052-.013h-.015l-.055-.013h-.013l-.057-.013h-.01l-.06-.013h-.008l-.063-.013h-.005l-.065-.013-.068-.012-.07-.012-.07-.011-.07-.01-.07-.009-.07-.009-.07-.008-.07-.006-.069-.006H60.807l-.067.006-.067.007-.067.007h-.005l-.067.008h-.074l-.066.009h-.006l-.066.01h-.005l-.066.01h-.006l-.066.011h-.006l-.065.012H60.1l-.065.013h-.007l-.065.013-.137.031h-.007l-.064.016h-.007l-.063.017h-.007l-.063.018-.071.02h-.008l-.062.019h-.008l-.062.019h-.008l-.061.02h-.008l-.061.021h-.009l-.061.022h-.009l-.128.048h-.009l-.06.024-.069.028h-.009l-.059.025-.136.061h-.01l-.057.027h-.01l-.057.028a6.026 6.026 0 0 0-.528.294l-.012.007-.053.034-.011.007-.053.034-.012.008-.052.036-.012.008-.052.036-.012.008-.037.027-.012.008-.05.036-.011.008-.05.037-.011.008-.049.038-.011.008-.049.039-.011.008-.049.039-.01.008-.048.04-.01.008-.048.04-.01.008-.047.041-.01.008-.046.042-.009.008-.046.042-.009.008-.046.043-.009.008-.045.044-.008.008-.045.044-.008.008-.045.045-.007.008-.044.045-.007.008-.044.046-.007.008-.043.046-.007.008-.043.047-.007.007-.042.048-.006.007-.042.048-.006.007-.041.049-.006.007-.04.049-.006.007-.04.05-.006.007-.039.05-.006.007-.038.051-.005.007-.038.052v.007l-.038.052v.007l-.037.053v.007l-.036.053v.006l-.036.054v.006l-.035.055v.006l-.035.055v.006l-.034.056v.006l-.033.056v.006l-.033.057v.006l-.032.057v.005l-.032.058v.005l-.031.058v.005l-.03.059v.005l-.03.059-.029.06-.029.06-.028.061-.027.061L55.7 55l-.026.062-.025.062-.024.063-.024.064-.023.064-.023.064-.022.065-.021.065-.021.066-.019.066-.019.066-.018.067-.017.067-.017.068-.016.068-.015.068-.014.069-.014.069-.013.07-.012.068-.01.065v.006l-.009.063v.008l-.008.06v.011l-.007.058v.013l-.006.056v.016l-.005.053v.018l-.006.071V57.878l.006.06v.009l.007.063v.006l.008.066.009.068.01.069.01.068.011.065v.007l.011.062v.009l.011.06v.012l.012.057v.014l.012.054v.017l.012.052v.019l.012.049.006.022.012.047.007.024.012.044.019.068.008.03.012.038.009.032.011.036.011.034.011.033.012.037.022.065.01.028.015.042.009.025.016.044.009.023.018.046.008.021.008.021.019.046.021.051.006.015.023.053.006.013.024.056v.01l.026.058v.008l.028.06v.006l.03.062.032.065.033.064.033.062.033.06v.007l.032.057.005.009.032.054.007.012.031.051.008.014.03.049.01.016.03.047.011.018.029.044a17.311 17.311 0 0 1-21.446-19.73z"/><circle cx="55.178" cy="37.125" r="2.557" transform="rotate(-34.997 55.178 37.124)"/><circle cx="53.577" cy="46.488" r="2.558" transform="rotate(-34.999 53.576 46.488)"/><circle cx="45.89" cy="35.449" r="2.558" transform="rotate(-35.003 45.89 35.45)"/><circle cx="49.705" cy="40.958" r="2.557" transform="rotate(-35.003 49.705 40.958)"/><circle cx="48.16" cy="50.281" r="2.557" transform="rotate(-34.999 48.16 50.281)"/><circle cx="44.288" cy="44.75" r="2.557" transform="rotate(-35 44.287 44.75)"/><circle cx="59.051" cy="42.656" r="2.558" transform="rotate(-35 59.05 42.655)"/></svg>