<svg xmlns="http://www.w3.org/2000/svg" data-name="Layer 1" viewBox="0 0 128 128"><path d="M86.61 69.215a8.878 8.878 0 0 0-.866-1.055L57.269 27.3h-.006l-.006-.008a4.921 4.921 0 0 0-6.758-1.28 2.4 2.4 0 0 0-.092.06L26.888 42.545a2.035 2.035 0 0 0-.5 2.833l23.206 33.146a16.564 16.564 0 0 0 17.249 6.616 2.027 2.027 0 0 0 1.392-.354l.076-.056a16.421 16.421 0 0 0 4.28-2.149l1.188-.831 12 17.134a2.023 2.023 0 0 0 .228.321 8.853 8.853 0 0 0 12.029 2.122 2.018 2.018 0 0 0 .342-.24 8.854 8.854 0 0 0 2.008-12.2zM60.962 81.284a12.4 12.4 0 0 1-8.032-5.09L30.886 44.712l4.568-3.2 27.98 39.96a12.659 12.659 0 0 1-2.472-.188zm13.49-14.361a2.15 2.15 0 0 0-.136.083v.007l-.034.024-.093.066-.092.067-.09.068-.089.069-.088.07-.088.071-.086.072-.085.073-.084.074-.083.074-.082.076-.081.076-.079.077-.079.078-.083.082-.076.08-.075.08-.074.081-.073.082-.072.083-.071.083-.069.084-.068.085-.067.086-.066.086-.065.087-.063.088-.063.089-.061.089-.061.09-.059.09-.058.091-.057.091-.055.092-.054.093-.053.093-.052.094-.051.095-.049.1-.049.1-.047.1-.046.1-.045.1-.043.1-.042.1-.041.1-.04.1-.039.1-.037.1-.036.1-.035.1-.034.1-.033.1-.031.1-.03.1-.029.1-.028.1-.026.1-.025.1-.024.1-.023.1-.021.1-.02.1-.019.1-.015.087v.017l-.012.071-.005.034-.008.054-.007.05-.005.037-.009.068v.02l-.01.085-.01.088v.013l-.007.075v.031l-.005.058v.178l-.01.178v.982l.006.09.007.088v.018l.007.071v.035l.006.054.01.089.008.07v.019l.011.087.013.089v.015l.011.074.015.089.008.049.007.04v.007l.015.081.016.083v.006l.019.089v.011l.017.078.041.177.015.061.007.027.023.088.024.088v.007l.023.081.023.079v.008l.012.04.015.047.018.057.01.03.024.074v.013l.029.087.03.083.007.02.025.067.013.036.019.05.02.052.013.033.011.028.023.058.035.085.036.085.037.085.014.031.024.053.078.166.038.079.042.084.006.011.037.072-1.246.873a12.311 12.311 0 0 1-2.478 1.342L38.788 39.18l13.928-9.753.047-.033a.869.869 0 0 1 .6-.105.844.844 0 0 1 .542.328v.006L78.881 65.45a8.8 8.8 0 0 0-3.086.736q-.343.151-.677.334l-.018.01-.069.038h-.008a9.222 9.222 0 0 0-.189.11h-.008l-.086.052-.05.031-.043.027a7.295 7.295 0 0 0-.185.12zm23.373 27.866a4.756 4.756 0 0 1-1.925 3.068l-.045.031a4.817 4.817 0 0 1-6.64-1.185L75.443 77.034l-.035-.05-.034-.051-.033-.051-.032-.051-.032-.051-.031-.052-.031-.052-.03-.052-.029-.053-.028-.053-.028-.053-.027-.054-.026-.053-.025-.054-.022-.055-.024-.055-.023-.055-.022-.055-.021-.055-.021-.055-.02-.055-.02-.056-.019-.056-.018-.056-.017-.056-.017-.056-.016-.056-.015-.057-.015-.056-.013-.057-.013-.057-.012-.057-.011-.057-.011-.057-.01-.057-.01-.057-.009-.057-.008-.057-.008-.058-.006-.057-.006-.057-.005-.058V73.864l.006-.057.006-.057.007-.057.008-.057.008-.057.009-.057.01-.057.01-.056.011-.055.011-.054.012-.054.012-.053.013-.052.013-.051.014-.05v-.005l.014-.05v-.006l.015-.049v-.007l.015-.048v-.007l.015-.047v-.008l.015-.047v-.008l.016-.046v-.008l.016-.045v-.01l.016-.044v-.01l.017-.044v-.01l.017-.043v-.011l.017-.042v-.012l.018-.041.049-.034.018-.04.006-.012.018-.04.019-.04.005-.011.007-.014.018-.038.007-.014.018-.037.007-.014.019-.036.008-.015.019-.035.008-.016.019-.034.008-.016.019-.034.01-.017.019-.034.01-.017.019-.032.01-.017.02-.032.011-.018.031-.049.019-.03.012-.019.02-.029.013-.019.019-.029.014-.02.019-.028.014-.02.019-.027.015-.021.019-.026.016-.021.019-.025.016-.021.019-.025.017-.021.019-.024.035-.043.018-.022.019-.023.019-.022.019-.022.02-.023.018-.021.021-.023.074-.081.004-.011.018-.019.023-.024.018-.018.024-.024.042-.042.017-.017.025-.024.017-.016.026-.025.017-.016.027-.025.017-.015.028-.025.012-.01.029-.025.016-.014.03-.026.016-.013.031-.025.015-.012.032-.026.015-.012.032-.025.046-.035.014-.011.035-.026.014-.01.036-.026.013-.009v.006a2.09 2.09 0 0 0 .161-.119l.045-.029.045-.029.042-.025h.008l.037-.022.013-.007.033-.019.046-.026.021-.012.025-.013.025-.014.021-.011.094-.048.056-.037h.009l.047-.022.047-.022c.063-.029.127-.056.191-.083l.018-.007.031-.012a4.817 4.817 0 0 1 2.165-.311c.1.008.2.019.3.034h.049l.034.005h.016l.039.007h.01l.047.008.049.009h.002l.044.009h.013l.036.008h.02l.028.007.028.006h.021l.035.009h.013l.043.011h.006l.048.013.047.013h.009l.039.011.016.005.031.009.024.007.024.008.031.01.016.005.038.013h.009l.094.033h.006l.041.016h.013l.054.021.027.01.027.011.019.008.034.014.053.023.046.02.043.02h.009l.036.017.016.008.029.014.023.011.022.011.03.015.015.007.036.019h.008l.132.072.013.007.031.018.069.041.017.011.032.019.011.007.039.024a4.688 4.688 0 0 1 .68.53 2.013 2.013 0 0 0 .176.171 4.726 4.726 0 0 1 .46.56l13.787 19.725a4.772 4.772 0 0 1 .778 3.576z"/></svg>