<svg id="Layer_1" data-name="Layer 1" xmlns="http://www.w3.org/2000/svg" viewBox="0 0 128 128"><title>Artboard 8</title><path d="M45.729,42.555a10,10,0,0,1-5.345,1.567c-3.088-.009-5.263.9-6.705,2.528a9,9,0,0,0-1.956,6.225c0,.051-.006.1-.006.154V97.875a10.617,10.617,0,0,0,10.589,10.59H85.694a10.62,10.62,0,0,0,10.59-10.59V53.03h-.008a9.092,9.092,0,0,0-1.955-6.38c-1.443-1.632-3.617-2.537-6.705-2.528a10,10,0,0,1-5.345-1.567,10.217,10.217,0,0,1-3.747-4.2,3.032,3.032,0,0,1-.426-2.237,13.441,13.441,0,0,0,.2-2.277,14.3,14.3,0,0,0-28.608,0,13.434,13.434,0,0,0,.2,2.277,3.033,3.033,0,0,1-.426,2.237A10.218,10.218,0,0,1,45.729,42.555Zm7.417-2.447c1.131-2.363,1-3.225.776-4.615a9.554,9.554,0,0,1-.14-1.655,10.218,10.218,0,1,1,20.435,0,9.518,9.518,0,0,1-.14,1.655c-.219,1.391-.355,2.253.777,4.615A14.3,14.3,0,0,0,80.085,46a14.079,14.079,0,0,0,7.532,2.189c1.82-.005,3,.408,3.657,1.155A5.347,5.347,0,0,1,92.206,53v.032H92.2V97.875a6.532,6.532,0,0,1-6.5,6.5H42.305a6.53,6.53,0,0,1-6.5-6.5V53.03q0-.1-.01-.2a5.188,5.188,0,0,1,.934-3.479c.66-.747,1.837-1.16,3.657-1.155A14.08,14.08,0,0,0,47.915,46,14.3,14.3,0,0,0,53.146,40.108Z"/><path d="M64,39.1a5.544,5.544,0,0,0,3.919-1.625l.005,0,0,0,0,0a5.55,5.55,0,0,0,0-7.857l0,0,0,0a5.541,5.541,0,0,0-7.719-.126c-.047.039-.094.081-.138.126A5.562,5.562,0,0,0,64,39.1ZM62.956,32.5c.022-.022.044-.045.065-.068a1.5,1.5,0,0,1,2.027.064l0,0a1.486,1.486,0,0,1,.007,2.088l-.008.008a1.479,1.479,0,0,1-2.088-2.1Z"/></svg>