<svg id="Layer_1" data-name="Layer 1" xmlns="http://www.w3.org/2000/svg" viewBox="0 0 128 128"><title>Artboard 3</title><path d="M45.915,64.448a21.419,21.419,0,0,0,12.753-.311L70.056,80.4c-.027.123-.052.247-.073.37a8.823,8.823,0,0,0,1.464,6.608l10.064,14.373a8.854,8.854,0,0,0,12.315,2.184l.012-.008A8.855,8.855,0,0,0,96.013,91.6L85.95,77.23a8.836,8.836,0,0,0-5.718-3.641c-.122-.021-.245-.041-.367-.057L68.475,57.266a21.388,21.388,0,0,0,.945-25.5,2.057,2.057,0,0,0-.223-.319A21.373,21.373,0,0,0,39.68,26.236a2.064,2.064,0,0,0-.321.225,21.4,21.4,0,0,0,6.556,37.987ZM75.648,78.622l.032-.026.009-.007.023-.019.017-.013.006-.005.01-.008.037-.029.012-.01.017-.013.017-.013h0c.03-.018.06-.037.09-.057h0l0-.006h0l.011-.008.024-.017h0l.012-.009c.067-.047.134-.091.2-.134h0l.02-.012.032-.02.007,0,.02-.012.02-.012,0,0,.016-.009.02-.012.016-.009,0,0,.02-.011.021-.011.008,0,.012-.007.02-.011.02-.011h0l.02-.01.02-.011.012-.006.008,0,.02-.01.021-.01,0,0,.017-.008.02-.01.016-.007.005,0,.041-.02.007,0,.034-.016.019-.009h0l.021-.01.021-.009.011,0,.01,0,.042-.018h0l.04-.017.014-.006.007,0,.148-.058.009,0,.012,0,.021-.008.021-.007h0a4.834,4.834,0,0,1,2.452-.2,4.758,4.758,0,0,1,3.085,1.949L92.678,93.933a4.819,4.819,0,0,1-1.17,6.66h0a4.819,4.819,0,0,1-6.66-1.171L74.782,85.049A4.771,4.771,0,0,1,74,81.474a4.858,4.858,0,0,1,.262-.934v0l.017-.043,0-.007.006-.014.009-.021.007-.017,0,0,.009-.021a4.766,4.766,0,0,1,.583-1l0,0a4.639,4.639,0,0,1,.741-.777Zm-.336-4.5c-.134.055-.266.114-.4.177h0l-.1.048,0,0a8.842,8.842,0,0,0-1.15.676l0-.007h0a2.088,2.088,0,0,0-.2.156l0,0-.01.007-.012.009-.021.016-.022.016-.022.016-.013.01-.008.007-.021.017-.022.017a8.854,8.854,0,0,0-1.125,1.032L59.643,58.435l-.014-.02-.013-.02h0l-.013-.02-.013-.02-.012-.021h0l-.012-.021-.012-.021h0l-.011-.021h0l-.011-.021-.011-.021h0l-.011-.021h0l-.01-.021-.01-.021h0l-.01-.021-.009-.021h0l-.009-.021h0l-.009-.022h0l-.009-.021h0l-.008-.022h0l-.008-.022-.008-.022h0l-.008-.022h0l-.008-.022h0l-.007-.022h0l-.007-.022h0l-.007-.022h0l-.006-.022h0l-.006-.022-.006-.023h0l-.005-.022h0l0-.023h0l0-.022h0l0-.023h0l0-.023,0-.023h0l0-.023h0l0-.023h0l0-.023h0l0-.023h0l0-.023h0l0-.023h0l0-.023,0-.023v-.023h0v-.023h0v-.023h0v-.023h0v-.023h0v-.047h0V57.3h0v-.023h0v-.023h0v-.023h0v-.023l0-.023h0l0-.023h0l0-.023h0l0-.023h0l0-.023h0l0-.023h0l0-.023h0l0-.022h0l0-.023h0l0-.023,0-.022h0l0-.023,0-.022h0l.005-.022h0l.005-.022h0l.005-.022h0l.006-.022h0l.006-.021h0l.006-.021h0l.007-.021h0l.007-.021h0l.007-.021h0l.007-.02h0l.007-.02h0l.007-.02v0l.007-.02h0l.008-.02v0l.008-.019v0l.008-.019v0l.008-.019v0l.009-.019v0L59.5,56.5v0l.009-.018v0l.01-.018v0l.009-.018v0l.009-.018v0l.01-.018v0l.01-.017,0,0,.01-.017,0,0,.01-.017,0,0,.01-.017,0,0,.01-.017,0,0,.011-.016,0,0,.011-.016,0,0,.011-.016,0,0,.011-.016,0,0,.011-.016,0,0,.011-.015,0,0,.011-.015,0,0,.011-.015,0,0,.012-.015,0,0,.012-.015,0,0,.012-.014,0,0,.012-.014,0,0,.012-.014,0,0,.012-.014,0,0,.012-.013,0,0L59.835,56l0,0,.012-.013,0,0,.013-.013,0,0,.012-.012,0,0,.013-.012,0,0,.013-.012,0,0,.013-.012,0,0,.013-.012,0,0,.013-.011.005,0,.013-.011.005,0,.019-.015.013-.011.006,0,.013-.01.006,0,.013-.01.006,0,.013-.01.006,0,.013-.01.006,0,.015-.011.009-.007.031-.02.009-.006.011-.007.01-.006.011-.007.041-.024.009-.005.011-.007.009-.005.012-.006.063-.032.008,0,.013-.006.008,0,.013-.006.008,0,.013-.006.008,0,.014-.006.008,0,.014-.006.008,0,.014-.005.007,0,.014-.006.007,0,.014-.005.044-.016.007,0,.015,0,.007,0,.015,0,.007,0,.016,0,.006,0,.015,0,.007,0,.016,0,.006,0,.016,0,.006,0,.016,0,.006,0,.017,0h.006l.017,0,.006,0,.017,0H60.8l.017,0h.005l.017,0h.005l.017,0h.005l.018,0h0l.018,0h0l.018,0h0l.018,0h0l.018,0h0l.019,0h0l.019,0h.027l.019,0h.278l.021,0h0l.022,0h0l.022,0h0l.022,0h0l.022,0h0l.022,0h0l.022,0h0l.022,0h0l.022,0a1.9,1.9,0,0,1,1.236.775L64.158,58.2l0,.007a2.065,2.065,0,0,0,.133.189ZM34.735,40.861A17.259,17.259,0,0,1,41.85,29.683l0,0a17.338,17.338,0,0,1,24.122,4.253l0,0a17.348,17.348,0,0,1,.036,19.819l-.032-.042-.013-.018-.034-.044-.011-.015-.036-.046-.01-.012-.038-.047-.008-.01-.048-.056-.042-.05-.005-.006-.045-.051,0,0-.047-.053,0,0-.049-.054h0l0,0-.1-.1,0,0-.047-.047-.006-.007-.045-.044-.008-.008-.044-.042-.01-.01-.042-.039-.106-.1-.017-.015-.038-.033-.018-.016-.036-.03-.021-.018-.034-.028-.023-.019-.032-.026-.025-.02-.03-.024-.051-.04-.005,0-.03-.023-.027-.02-.032-.024-.025-.018,0,0q-.074-.054-.15-.106l-.019-.012-.042-.029-.017-.011-.045-.029-.014-.009-.048-.03-.012-.007-.05-.031-.01-.006-.052-.032-.008,0-.055-.033-.006,0-.058-.032,0,0-.123-.067h0l-.061-.032,0,0-.058-.03-.006,0-.057-.028-.009,0-.055-.026-.011-.005-.052-.024-.013-.006-.05-.023-.016-.007-.048-.021-.018-.008-.046-.019-.02-.009-.044-.018-.023-.009-.041-.016-.026-.01-.039-.015-.028-.01-.037-.014-.031-.011-.035-.012-.033-.012-.032-.011-.036-.012-.03-.01-.039-.012-.027-.008-.042-.013-.025-.008-.044-.013-.022-.006-.047-.013-.02-.005-.049-.013-.018,0-.052-.013-.015,0-.055-.013-.013,0-.057-.013-.01,0-.06-.013h-.008l-.063-.013h-.005l-.065-.013h0l-.068-.012-.07-.012h0l-.07-.011h0l-.07-.01h0l-.07-.009h0l-.07-.009h0l-.07-.008h0l-.07-.006h0l-.069-.006h0l-.07,0h0l-.069,0h0l-.069,0h0l-.069,0h0l-.069,0h-.218l-.068,0h0l-.068,0h0l-.068,0h0l-.068,0h0l-.068,0h0l-.067.006h0l-.067.007h0l-.067.007h-.005l-.067.008H60.46l-.066.009h-.006l-.066.01h-.005l-.066.01h-.006l-.066.011h-.006l-.065.012H60.1l-.065.013h-.007l-.065.013-.137.031h0l-.007,0-.064.016-.007,0-.063.017-.007,0-.063.018-.071.02-.008,0-.062.019-.008,0-.062.019-.008,0-.061.02-.008,0-.061.021-.009,0-.061.022-.009,0-.128.048h0l-.009,0-.06.024-.069.028-.009,0-.059.025-.136.061-.01,0-.057.027-.01,0-.057.028a6.026,6.026,0,0,0-.528.294l-.012.007-.053.034-.011.007-.053.034-.012.008-.052.036-.012.008-.052.036-.012.008-.037.027-.012.008-.05.036-.011.008-.05.037-.011.008-.049.038-.011.008-.049.039-.011.008-.049.039-.01.008-.048.04-.01.008-.048.04-.01.008-.047.041-.01.008-.046.042-.009.008-.046.042-.009.008-.046.043-.009.008-.045.044-.008.008-.045.044-.008.008-.045.045-.007.008-.044.045-.007.008-.044.046-.007.008-.043.046-.007.008-.043.047-.007.007-.042.048-.006.007-.042.048-.006.007-.041.049-.006.007-.04.049-.006.007-.04.05-.006.007-.039.05-.006.007-.038.051-.005.007-.038.052,0,.007-.038.052,0,.007-.037.053,0,.007-.036.053,0,.006-.036.054,0,.006-.035.055,0,.006-.035.055,0,.006-.034.056,0,.006-.033.056,0,.006-.033.057,0,.006-.032.057,0,.005-.032.058,0,.005-.031.058,0,.005-.03.059,0,.005-.03.059,0,0-.029.06,0,0-.029.06,0,0-.028.061,0,0-.027.061,0,0L55.7,55l0,0-.026.062,0,0-.025.062v0l-.024.063,0,0-.024.064v0l-.023.064v0l-.023.064v0l-.022.065v0l-.021.065v0l-.021.066v0l-.019.066v0l-.019.066v0l-.018.067v0l-.017.067v0l-.017.068h0l-.016.068h0l-.015.068h0l-.014.069h0l-.014.069h0l-.013.07h0l-.012.068v0l-.01.065v.006l-.009.063v.008l-.008.06v.011l-.007.058,0,.013-.006.056,0,.016-.005.053v.018l-.006.071,0,.047v.024l0,.046v.026l0,.043v.029l0,.04v.415l0,.047V57.6l0,.05v.019l0,.053v.017l0,.055v.014l0,.058v.012l.006.06v.009l.007.063v.006l.008.066v0l.009.068h0l.01.069h0l.01.068v0l.011.065v.007l.011.062,0,.009.011.06,0,.012.012.057,0,.014.012.054,0,.017.012.052,0,.019.012.049.006.022.012.047.007.024.012.044.019.068.008.03.012.038.009.032.011.036.011.034.011.033.012.037.022.065v0l.01.028.015.042.009.025.016.044.009.023.018.046.008.021.008.021.019.046.021.051.006.015.023.053.006.013.024.056,0,.01.026.058,0,.008.028.06,0,.006.03.062v0l.032.065h0l.033.064v0l.033.062,0,0,.033.06,0,.007.032.057.005.009.032.054.007.012.031.051.008.014.03.049.01.016.03.047.011.018.029.044A17.311,17.311,0,0,1,34.735,40.861Z"/><circle cx="55.178" cy="37.125" r="2.557" transform="translate(-11.315 38.359) rotate(-34.997)"/><circle cx="53.577" cy="46.488" r="2.558" transform="translate(-16.975 39.136) rotate(-34.999)"/><circle cx="45.89" cy="35.449" r="2.558" transform="translate(-12.034 32.735) rotate(-35.003)"/><circle cx="49.705" cy="40.958" r="2.557" transform="translate(-14.504 35.92) rotate(-35.003)"/><circle cx="48.16" cy="50.281" r="2.557" transform="translate(-20.13 36.716) rotate(-34.999)"/><circle cx="44.288" cy="44.75" r="2.557" transform="translate(-17.658 33.495) rotate(-35)"/><circle cx="59.051" cy="42.656" r="2.558" transform="translate(-13.787 41.584) rotate(-35)"/></svg>