<svg id="Layer_1" data-name="Layer 1" xmlns="http://www.w3.org/2000/svg" viewBox="0 0 128 128"><title>Artboard 6</title><path d="M32,35.513c-.053.034-.1.071-.155.111a6.215,6.215,0,0,0-2.253,3.745,5.729,5.729,0,0,0,.824,4.205c.029.049.06.1.093.146.068.1.131.182.184.25L46.9,64.54a6.471,6.471,0,0,0,3.939,2.384,5.9,5.9,0,0,0,4.447-.987l3.4-2.38L70.948,81.075c-.027.123-.052.246-.073.37a8.819,8.819,0,0,0,1.456,6.6l.008.012L82.4,102.426a8.854,8.854,0,0,0,12.154,2.294c.047-.027.094-.055.14-.085h0l0-.007.035-.024h0a8.854,8.854,0,0,0,2.176-12.326L86.842,77.9a8.834,8.834,0,0,0-5.718-3.641c-.122-.021-.244-.04-.366-.057L68.491,56.689l2.249-1.575a5.909,5.909,0,0,0,2.452-3.85,6.458,6.458,0,0,0-.9-4.5L58.575,24.61q-.032-.059-.068-.117c-.02-.033-.08-.12-.175-.256a5.726,5.726,0,0,0-3.775-2.354,6.2,6.2,0,0,0-4.278.841c-.132.081-.232.145-.294.189l0,0L32.127,35.424Q32.065,35.466,32,35.513Zm44.58,43.749.018-.014h0l.017-.013.018-.014.036-.028h0l.018-.014.007,0,.012-.009.018-.014.018-.014.018-.013.019-.013.012-.009.006,0,.019-.013.019-.013.006,0h0l.039-.027.019-.013.02-.013.02-.013c.065-.043.131-.084.2-.124l.02-.012.058-.034h0l.02-.011.02-.011.01-.006.01-.006.02-.011.02-.011h0c.061-.032.122-.063.183-.093l.021-.01.009,0,.012-.005.021-.01.021-.009h0l.021-.009.021-.01.012-.006.008,0,.021-.009.021-.009,0,0,.017-.007.021-.009.042-.017.021-.009.007,0,.014-.005.021-.008.02-.007.023-.009.021-.008.011,0,.01,0,.022-.008.078-.028.007,0,.022-.007a4.838,4.838,0,0,1,2.366-.169,4.755,4.755,0,0,1,3.085,1.949L93.57,94.607a4.819,4.819,0,0,1-1.135,6.635l0-.007h0c-.057.038-.111.078-.162.12a4.821,4.821,0,0,1-6.53-1.26L75.676,85.725v0a4.77,4.77,0,0,1-.778-3.575,4.9,4.9,0,0,1,.505-1.46l0,0,.008-.015.011-.02.008-.015,0,0,.012-.021.011-.02,0,0a4.859,4.859,0,0,1,.335-.5,4.751,4.751,0,0,1,.769-.8ZM76.2,74.8l-.027.011-.027.011-.027.012,0,0-.022.01-.027.012-.027.012-.022.009-.005,0-.027.012-.027.012-.027.012-.012.005-.015.007-.027.012-.027.012-.027.013h0l-.024.012-.027.013L75.747,75l-.019.009-.008,0-.027.013-.027.013-.026.013-.009,0-.018.009-.027.014-.026.013-.026.013h0l-.026.014-.027.014-.053.028-.026.014-.026.014-.026.014-.006,0-.02.011-.026.015-.026.015-.13.075-.026.015-.026.015-.026.016,0,0-.022.014-.026.016-.026.016-.051.032-.026.016-.026.016-.01.006-.015.01-.025.016-.026.017-.026.017h0l-.025.016-.026.017L74.7,75.6l-.017.011a2.03,2.03,0,0,0-.337.235l0,0A8.835,8.835,0,0,0,73.061,77L60.535,59.109a1.917,1.917,0,0,1-.307-1.436l0-.021v0l0-.019v0l0-.017V57.6l0-.015,0-.008,0-.014,0-.009,0-.012,0-.011,0-.01,0-.013,0-.008,0-.015,0-.006,0-.016v0l.005-.018v0l.006-.02h0l.007-.02h0l.006-.019v0l.006-.017,0,0,.005-.015,0-.007,0-.013,0-.008,0-.011,0-.01,0-.01,0-.011,0-.008.006-.013,0-.007.006-.015,0,0,.007-.017,0,0,.009-.019h0l.009-.019h0l.009-.019v0l.008-.017,0,0,.008-.015,0-.006.007-.013,0-.007.006-.011,0-.009.006-.01.006-.011,0-.008.007-.012,0-.006L60.477,57l0,0,.009-.015,0,0,.01-.016v0l.012-.018h0l.011-.018v0l.011-.016,0,0,.01-.015,0,0,.009-.013,0-.007.008-.011.005-.008.007-.01.007-.009.006-.008.008-.011,0-.006.009-.012,0,0,.011-.013,0,0,.012-.015v0l.014-.016h0l.014-.016h0l.014-.015,0,0,.013-.013,0,0,.011-.012,0-.006.01-.01.006-.007.009-.009.008-.008.007-.007.009-.009.007-.006L60.8,56.6l.005,0,.012-.012,0,0,.014-.013,0,0,.016-.014h0l.017-.014.017-.014,0,0,.015-.012a2.044,2.044,0,0,0,.206-.145l.019-.011h0l.019-.011h0l.017-.01,0,0,.016-.009,0,0,.015-.007.007,0,.013-.006.009,0,.011-.005.01-.005.009,0,.012-.006.008,0,.014-.007.006,0,.016-.007,0,0,.017-.007h0l.019-.008h0l.02-.008h0l.019-.007h0l.018-.007,0,0,.016-.005.006,0,.014,0,.008,0,.013,0,.01,0,.011,0,.011,0,.009,0,.013,0,.007,0,.015,0,.006,0,.017,0h0l.018,0h0l.021-.005.021-.005h0l.02,0h0l.018,0H61.7l.016,0h.007l.014,0h.008l.013,0,.01,0,.011,0,.012,0H61.8l.014,0h.007l.016,0h.005l.018,0h0l.02,0h0l.021,0h0l.021,0h0l.019,0h.027l.037,0h.321l.014,0h.007l.016,0h.005l.018,0h0l.019,0h0l.021,0a1.9,1.9,0,0,1,1.236.775l.314.449.007.01ZM33.6,40.1a2.111,2.111,0,0,1,.769-1.271c.029-.023.058-.047.086-.072h0L52.324,26.248l.005,0,0,0,.086-.061a2.13,2.13,0,0,1,1.469-.283,1.673,1.673,0,0,1,1.11.663c.018.026,0,0,.047.081q.034.054.07.105L68.834,48.9a2.388,2.388,0,0,1,.337,1.663,1.86,1.86,0,0,1-.761,1.217L66,53.463,66,53.455l-.031-.026-.026-.022-.013-.01-.039-.032,0,0-.035-.028-.023-.018-.017-.013-.04-.032h0l-.039-.03-.019-.015-.022-.016-.038-.028,0,0-.041-.03-.015-.011-.026-.018-.034-.024-.007-.005-.042-.029-.011-.008-.031-.021-.03-.02L65.4,53l-.042-.028-.007,0-.035-.022-.026-.017-.016-.01-.043-.026,0,0-.04-.024-.022-.014-.021-.012-.042-.025h0l-.044-.025-.018-.01-.025-.014-.038-.021-.006,0-.044-.024-.014-.007-.03-.016-.034-.018-.011-.005-.045-.022-.01-.005-.035-.017-.03-.015-.015-.007-.045-.021-.005,0-.04-.018-.026-.012-.02-.009-.046-.02h0l-.045-.02-.021-.009-.025-.01-.042-.017,0,0-.046-.018-.017-.007-.03-.012-.038-.014-.009,0-.046-.017-.012,0-.035-.012-.033-.012-.014,0-.047-.016-.007,0-.04-.013-.029-.01-.019-.006-.047-.015h0l-.045-.014-.024-.007-.023-.007-.046-.013h0l-.048-.014-.02-.006-.028-.008-.041-.011-.007,0-.048-.013-.015,0-.033-.008-.037-.009-.012,0-.048-.011-.01,0-.038-.008-.032-.007-.017,0-.049-.01h0l-.044-.009-.027-.005-.022,0-.049-.009-.068-.012h0l-.064-.01H63l-.061-.009H62.93l-.058-.008-.013,0-.055-.007-.016,0-.052-.006-.019,0-.049,0-.022,0-.046,0-.026,0-.042,0-.029,0-.039,0-.032,0-.036,0-.036,0h-.032l-.039,0h-.372l-.059,0h-.01l-.062,0h-.006l-.066,0h0l-.069.005-.069.006h0l-.065.006H61.5l-.062.007-.069.008h-.013l-.056.007-.016,0-.052.007-.02,0-.049.008-.023,0-.045.008-.026,0-.042.007-.029.006-.039.007-.032.007-.036.007-.067.014h0l-.039.009-.029.007-.042.01-.026.007-.068.017-.048.012-.019.005-.051.014-.016,0-.054.016-.013,0-.057.017-.01,0-.061.019-.006,0-.063.021h0l-.067.023-.066.024h0l-.063.024-.006,0-.06.023-.01,0-.057.023-.012,0-.053.022-.016.007-.05.021-.019.008-.047.02-.022.01-.043.019-.025.011-.04.019-.027.013-.037.018-.031.015-.034.017-.033.017-.031.016-.036.019-.009,0-.058.031-.024.013-.042.023-.021.012-.045.026-.018.01-.048.028-.065.039h0l-.012.007-.053.033-.009.005-.056.036-.006,0a2.064,2.064,0,0,0-.368.258h0l-.013.009-.045.035c-.058.045-.115.09-.171.138l-.022.019-.033.028q-.083.071-.162.144l-.031.028-.022.02-.009.008-.043.041-.035.033-.017.017-.051.051-.038.039-.012.012-.091.1-.007.008-.043.047,0,.005-.045.05,0,0-.046.053h0l-.046.054,0,0-.087.108-.006.007-.038.048-.085.112-.011.015-.03.042-.039.055v0l-.015.021-.025.037-.04.058-.017.026-.021.032-.038.058-.02.032-.017.027h0l-.036.059-.023.037-.013.022-.069.121-.026.047-.007.014-.027.05-.006.011-.028.053,0,.009-.028.056,0,.006-.029.059,0,0-.03.062-.029.063v0l-.027.06,0,.006-.025.058,0,.008-.023.055,0,.011-.021.053-.006.014-.019.05-.007.018-.018.047-.007.021-.016.044L56.462,56l-.014.041-.009.026-.013.039-.01.03-.012.036-.01.033-.01.033-.011.035-.009.03-.011.039-.008.027-.012.042-.007.024-.012.045-.006.021-.013.048,0,.018-.012.051,0,.015-.012.054,0,.012-.012.058,0,.009-.012.061v.006l-.013.064v0l-.012.067-.008.049,0,.022,0,.027-.007.044v.005l-.007.049,0,.017,0,.032-.005.039v.01l-.006.049v.012l0,.037,0,.034,0,.015,0,.049v.007l0,.042,0,.029,0,.02,0,.049v0l0,.047,0,.024v.025l0,.046v0l0,.049v.4l0,.049v0l0,.045,0,.026v.024l0,.048h0l0,.05v.021l0,.029,0,.044v.006l0,.049,0,.016,0,.034,0,.038V58.7l.006.049v.011l.005.039,0,.033,0,.016.007.05V58.9l.007.044,0,.028,0,.022.008.05h0l.009.049,0,.022.005.027.009.045v0l.01.049,0,.018.007.032.009.04,0,.009.011.049,0,.013.009.036.008.035,0,.015.013.049,0,.007.011.042.008.029.005.019.014.049v0l.014.046.007.024.007.024.014.046v0l.016.048.007.019.01.029.014.041,0,.007.017.048,0,.014.013.034.013.036,0,.012L52.952,62.6a1.877,1.877,0,0,1-1.414.3,2.366,2.366,0,0,1-1.433-.884L33.9,41.447l-.057-.074-.047-.064A1.7,1.7,0,0,1,33.6,40.1Z"/></svg>