<svg id="Layer_1" data-name="Layer 1" xmlns="http://www.w3.org/2000/svg" viewBox="0 0 128 128"><title>Artboard 15</title><path d="M97.754,63.39a7.308,7.308,0,0,0-3.188-1.87v-4.8a17.576,17.576,0,0,0-5.177-12.452,17.757,17.757,0,0,0-4.4-3.221l.055-19.466a2.035,2.035,0,0,0-2.035-2.035v-.008H74.119a2.043,2.043,0,1,0,0,4.086h6.846L80.92,39.544a17.527,17.527,0,0,0-3.983-.457h-2.99V38.065a6.519,6.519,0,0,0-1.911-4.6l-.008-.008,0,0,0,0a6.584,6.584,0,0,0-2.626-1.608V28.5a5.372,5.372,0,0,0-1.583-3.8l-.008-.008a5.369,5.369,0,0,0-7.614,0l0,0,0,0a5.372,5.372,0,0,0-1.583,3.8v3.335a6.56,6.56,0,0,0-2.634,1.61l0,0a6.521,6.521,0,0,0-1.923,4.615v1.022h-2.99a17.53,17.53,0,0,0-3.983.457l-.045-15.923h6.846a2.043,2.043,0,1,0,0-4.086H44.995v.008a2.035,2.035,0,0,0-2.035,2.035l.055,19.465a17.765,17.765,0,0,0-4.4,3.221,17.576,17.576,0,0,0-5.177,12.452v4.805a7.3,7.3,0,0,0-3.06,1.751c-.044.037-.087.076-.128.118a7.262,7.262,0,0,0-2.138,5.145h0a7.262,7.262,0,0,0,2.138,5.145l0,0,0,0a7.3,7.3,0,0,0,3.18,1.868v4.806A17.7,17.7,0,0,0,45.911,97.212q-.193.178-.38.364a12.488,12.488,0,0,0-3.678,8.846,2.043,2.043,0,0,0,2.043,2.043H84.1a2.043,2.043,0,0,0,2.043-2.043,12.488,12.488,0,0,0-3.678-8.846q-.186-.186-.38-.364A17.7,17.7,0,0,0,94.566,80.355v-4.8a7.3,7.3,0,0,0,3.188-1.87l0,0,0,0a7.254,7.254,0,0,0,2.138-5.137h0a7.251,7.251,0,0,0-2.02-5.017C97.834,63.475,97.8,63.432,97.754,63.39ZM62.693,28.5a1.313,1.313,0,0,1,.382-.926l0,0a1.3,1.3,0,0,1,2.23.923v3.025H62.693Zm-4.553,9.563a2.44,2.44,0,0,1,.714-1.73l0,0,0,0a2.446,2.446,0,0,1,1.731-.722h6.818a2.441,2.441,0,0,1,1.73.714l.008.008a2.44,2.44,0,0,1,.714,1.73v1.022H58.139ZM37.521,56.717A13.587,13.587,0,0,1,51.063,43.174H76.937A13.587,13.587,0,0,1,90.48,56.717v4.536H37.521Zm8.672,47.663a8.481,8.481,0,0,1,8.185-6.395H73.623a8.481,8.481,0,0,1,8.185,6.395ZM90.48,80.355A13.587,13.587,0,0,1,76.937,93.9H51.063A13.586,13.586,0,0,1,37.521,80.355V75.82H90.48Zm5.326-11.819a3.2,3.2,0,0,1-.937,2.26l0,0a3.187,3.187,0,0,1-2.256.941H35.392a3.2,3.2,0,0,1-2.261-.937l0,0a3.188,3.188,0,0,1-.941-2.257h0a3.188,3.188,0,0,1,.941-2.257c.027-.027.053-.055.079-.083a3.2,3.2,0,0,1,2.178-.857H92.609a3.187,3.187,0,0,1,2.256.941c.027.027.055.053.084.079a3.2,3.2,0,0,1,.857,2.178Z"/></svg>