<svg id="Layer_1" data-name="Layer 1" xmlns="http://www.w3.org/2000/svg" viewBox="0 0 128 128"><title>Artboard 10</title><path d="M71.4,39.145a2.039,2.039,0,0,0,2.761-.83,7.543,7.543,0,0,0,1.125-4.55,12.06,12.06,0,0,0-2.322-5.427c-1.76-2.64.456-5.508.462-5.516a2.037,2.037,0,0,0-3.224-2.49c-.011.015-4.013,5.194-.638,10.256a8.633,8.633,0,0,1,1.668,3.56,4,4,0,0,1-.663,2.236A2.039,2.039,0,0,0,71.4,39.145Z"/><path d="M42.424,39.145a2.039,2.039,0,0,0,2.761-.83,7.54,7.54,0,0,0,1.125-4.55,12.059,12.059,0,0,0-2.322-5.427c-1.76-2.64.456-5.508.462-5.516a2.037,2.037,0,0,0-3.224-2.49c-.011.015-4.013,5.194-.638,10.256a8.626,8.626,0,0,1,1.667,3.56,4,4,0,0,1-.662,2.236A2.04,2.04,0,0,0,42.424,39.145Z"/><path d="M105.782,45.08l0,0,0,0a6.065,6.065,0,0,0-4.283-1.78H22.473a2.043,2.043,0,0,0-2.043,2.043v1.616A34.228,34.228,0,0,0,30.513,71.2a34.678,34.678,0,0,0,6.673,5.212L29.1,100.134a6.3,6.3,0,0,0,11.938,4.045l2.648-7.769,26.2.055,2.63,7.715a6.307,6.307,0,0,0,7.992,3.947l.008,0a6.305,6.305,0,0,0,3.938-7.988l0-.006L76.371,76.411A34.608,34.608,0,0,0,91.945,55.869h9.546a6.053,6.053,0,0,0,4.287-1.784l.008-.008a6.054,6.054,0,0,0,1.784-4.287v-.42a6.061,6.061,0,0,0-1.785-4.287ZM80.594,101.442h0a2.22,2.22,0,0,1-1.392,2.82h0a2.222,2.222,0,0,1-2.82-1.393l-3.1-9.093h0A2.036,2.036,0,0,0,71.351,92.4l-28.972-.06a2.04,2.04,0,0,0-2.084,1.379l-3.12,9.154a2.224,2.224,0,1,1-4.213-1.428l7.882-23.124a34,34,0,0,0,4.172,1.547l-1.823,5.348h0A2.036,2.036,0,0,0,45.124,87.9l23.184.049a2.04,2.04,0,0,0,2.071-2.689l-1.839-5.4a34.035,34.035,0,0,0,4.172-1.547ZM47.97,83.839,49.007,80.8a34.187,34.187,0,0,0,5.754.486H58.8a34.182,34.182,0,0,0,5.753-.486l1.05,3.079ZM80.155,68.31A30.152,30.152,0,0,1,58.8,77.2H54.761A30.34,30.34,0,0,1,24.519,47.378H89.038A30.159,30.159,0,0,1,80.155,68.31Zm23.329-18.52a1.99,1.99,0,0,1-1.993,1.993H93.127V47.378h8.364a1.982,1.982,0,0,1,1.406.579l.008.008a1.98,1.98,0,0,1,.579,1.406Z"/><path d="M56.913,39.145a2.039,2.039,0,0,0,2.761-.83,7.541,7.541,0,0,0,1.126-4.55,11.887,11.887,0,0,0-2.247-5.315c-.023-.041-.048-.081-.075-.121-1.757-2.636.456-5.5.462-5.508a2.037,2.037,0,0,0-3.224-2.49c-.011.015-4.015,5.2-.637,10.265.024.036.049.071.075.1a8.383,8.383,0,0,1,1.593,3.447,4,4,0,0,1-.663,2.236A2.039,2.039,0,0,0,56.913,39.145Z"/></svg>