<svg xmlns="http://www.w3.org/2000/svg" data-name="Layer 1" viewBox="0 0 128 128"><path d="M93.318 57.817a2.028 2.028 0 0 0-.924 1.23c-1.755 6.67-5.3 10.243-8.882 11.342a7.954 7.954 0 0 1-3.843.231 7.046 7.046 0 0 1-3.234-1.546c-2.149-1.825-3.352-5.11-2.508-9.525l.011-.063c2.277-11.919 5.215-27.286-18.389-39.71a2.039 2.039 0 0 0-2.779 2.7c5.374 12.059-1.791 18.991-9.918 26.853-4.223 4.085-8.685 8.4-12.052 13.8-11.167 17.918-5.694 30.86 6.242 38.3 7.19 4.482 16.8 6.859 26.422 7.018s19.327-1.9 26.708-6.3c12.846-7.653 18.8-22.039 5.939-43.63a2.037 2.037 0 0 0-2.793-.7zm-5.237 40.836c-6.713 4-15.639 5.874-24.553 5.728S45.762 102.062 39.2 97.97c-10.029-6.251-14.542-17.264-4.933-32.68 3.11-4.989 7.375-9.116 11.413-13.021 8.045-7.782 15.257-14.761 12.63-26.142C74.155 36.612 71.8 48.962 69.931 58.719l-.013.062c-1.154 6.034.681 10.686 3.88 13.4a11.1 11.1 0 0 0 5.1 2.44 12 12 0 0 0 5.806-.343c3.846-1.18 7.608-4.308 10.065-9.746 8.457 16.841 3.483 28.062-6.688 34.121z"/></svg>