<svg id="Layer_1" data-name="Layer 1" xmlns="http://www.w3.org/2000/svg" viewBox="0 0 128 128"><title>Artboard 13</title><path d="M106.856,79.493A5.5,5.5,0,0,0,105.3,78.4V49.451A24.18,24.18,0,0,0,81.186,25.337h-1.6a24.042,24.042,0,0,0-17.032,7.082,24.306,24.306,0,0,0-4.784,6.787h-.082A24.179,24.179,0,0,0,33.572,63.32v5.89a9.575,9.575,0,0,0-11.351,2.357l-.257.3,0,0h0l-.095.109,0,0A9.564,9.564,0,0,0,22.7,85.335l.02.021h0l.107.095,0,0,9.156,7.934a5.434,5.434,0,0,0-1.575,3.826h0a5.435,5.435,0,0,0,1.6,3.843l0,0,0,0,0,0a5.436,5.436,0,0,0,3.84,1.6H81.115a5.461,5.461,0,0,0,5.45-5.45h0a5.427,5.427,0,0,0-1.6-3.842l-.008-.008A5.5,5.5,0,0,0,83.4,92.27V88.793h19.612a5.426,5.426,0,0,0,3.842-1.6l.008-.008a5.427,5.427,0,0,0,1.6-3.843h0a5.428,5.428,0,0,0-1.6-3.843Zm-47.3-20.132v-9.91l0-.245v-.013a19.82,19.82,0,0,1,1.417-7.123l.006-.013c.013-.031.025-.061.037-.092l.005-.013a20.167,20.167,0,0,1,4.418-6.644,19.966,19.966,0,0,1,14.143-5.885h1.6a20.092,20.092,0,0,1,20.028,20.028V77.893H58.228L47.392,68.5a5.507,5.507,0,0,1-.55-7.726l.357-.412a5.507,5.507,0,0,1,7.726-.55l1.135.984a2.043,2.043,0,0,0,3.5-1.437ZM25.605,82.468h0a2.026,2.026,0,0,0-.209-.182,5.509,5.509,0,0,1-.538-7.539,1.994,1.994,0,0,0,.187-.218l.255-.295a5.508,5.508,0,0,1,7.726-.55l1.255,1.087a2.036,2.036,0,0,0,3.37-1.54h.006V63.32a20.1,20.1,0,0,1,18.6-19.977,23.892,23.892,0,0,0-.761,4.952l0,.072,0,.072-.006.144,0,.072,0,.072,0,.072v.145l0,.145v.072l0,.29v5.89A9.576,9.576,0,0,0,44.119,57.7l-.357.412a9.564,9.564,0,0,0,.965,13.472l9.158,7.937q-.066.067-.129.136l-.055.063,0,0,0,0a5.424,5.424,0,0,0-1.357,3.056v.007l-.005.055v.013l0,.049,0,.02,0,.042,0,.027,0,.035,0,.034v.028l0,.041v.021l0,.048v.14h0v.07h0v.07h0l0,.069h0l0,.069h0l0,.068h0l0,.068v0l.006.067v0l.006.067v0l.007.066v0a5.465,5.465,0,0,0,5.274,4.824h21.7v2.969H36.33ZM82.478,97.213a1.372,1.372,0,0,1-1.364,1.364H35.858a1.355,1.355,0,0,1-.962-.394l-.008-.008a1.355,1.355,0,0,1-.394-.962h0a1.359,1.359,0,0,1,.4-.962,1.38,1.38,0,0,1,.355-.257,2.042,2.042,0,0,0,1.561-.145h44.32a1.371,1.371,0,0,1,.944.394l.008.008a1.368,1.368,0,0,1,.394.962Zm21.9-13.869a1.368,1.368,0,0,1-.394.962l-.008.008a1.368,1.368,0,0,1-.962.394H57.635l-.017,0h0l-.017,0h0l-.016,0h0l-.016,0h0l-.016,0h0l-.016,0h0l-.016,0h0a1.377,1.377,0,0,1-1.12-1.238l0-.034h0v-.052h0v-.017h0v-.121h0v0a1.367,1.367,0,0,1,.321-.765v0h0l.035-.036a1.334,1.334,0,0,1,.224-.2l0,0,0,0,.006,0,.012-.008,0,0h0l.026-.016.006,0,.007,0,.006,0,.007,0h0l0,0,.007,0,0,0,0,0,.007,0,0,0,0,0,.007,0,0,0h0l.035-.018a2.044,2.044,0,0,0,1.565-.143h44.32a1.368,1.368,0,0,1,.944.394l.008.008a1.37,1.37,0,0,1,.394.962Z"/></svg>