<svg xmlns="http://www.w3.org/2000/svg" data-name="Layer 1" viewBox="0 0 128 128"><path d="M64.725 63.891h8.447a2.043 2.043 0 1 0 0-4.086h-8.447a2.043 2.043 0 1 0 0 4.086z"/><path d="M90.6 68.469a2.043 2.043 0 0 0 2.043-2.043V45.539A2.043 2.043 0 0 0 90.6 43.5h-5.716l.153-3.908.011-.247h-.008a6.392 6.392 0 0 0-1.932-4.559 6.791 6.791 0 0 0-2.708-1.639v-1.7a6.7 6.7 0 0 0-6.687-6.687h-5.364a5.614 5.614 0 0 0-11.2 0h-5.366a6.7 6.7 0 0 0-6.683 6.684v1.385h-7.71a2.034 2.034 0 0 0-1.508 3.4l6.461 7.132 1.718 40.906a7.147 7.147 0 0 0 .578 2.536 8.951 8.951 0 0 0-8.413 8.913v10.706a2.044 2.044 0 0 0 2.043 2.043H89.08a2.043 2.043 0 0 0 2.043-2.043V95.716a8.9 8.9 0 0 0-2.623-6.307 1.943 1.943 0 0 0-.126-.116 8.9 8.9 0 0 0-5.664-2.49 7.049 7.049 0 0 0 .577-2.536l1.436-36.685h3.838v18.844a2.043 2.043 0 0 0 2.039 2.043zm-28.936-44.4a1.528 1.528 0 0 1 2.558.689h-2.95a1.523 1.523 0 0 1 .396-.69zm-12.481 7.375a2.613 2.613 0 0 1 2.6-2.6h21.931a2.613 2.613 0 0 1 2.6 2.6v1.377H49.183zM41.974 36.9h4.985c.059.005.12.008.18.008h31.347a2.7 2.7 0 0 1 1.769.784 2.332 2.332 0 0 1 .719 1.654h-.008c0 .127.009 0 0 .087l-1.747 44.674a2.9 2.9 0 0 1-.829 1.939l-.008.008a2.487 2.487 0 0 1-1.772.733H50.736a2.481 2.481 0 0 1-1.768-.731 2.917 2.917 0 0 1-.841-1.942l-1.749-41.651a2.029 2.029 0 0 0-.593-1.358zm43.555 55.31c.027.031.055.06.084.089a4.828 4.828 0 0 1 1.424 3.419v8.662H40.308v-8.664a4.861 4.861 0 0 1 4.843-4.842h37.043a4.834 4.834 0 0 1 3.335 1.334z"/><path d="M64.725 47.763h8.447a2.043 2.043 0 1 0 0-4.086h-8.447a2.043 2.043 0 1 0 0 4.086zM64.725 80.018h8.447a2.043 2.043 0 1 0 0-4.086h-8.447a2.043 2.043 0 0 0 0 4.086zM64.725 71.954h8.447a2.043 2.043 0 0 0 0-4.086h-8.447a2.043 2.043 0 0 0 0 4.086zM64.725 55.827h8.447a2.043 2.043 0 1 0 0-4.086h-8.447a2.043 2.043 0 1 0 0 4.086z"/></svg>