<svg id="Layer_1" data-name="Layer 1" xmlns="http://www.w3.org/2000/svg" viewBox="0 0 128 128"><title>Artboard 4</title><path d="M64.916,94.769H75.572a2.043,2.043,0,0,0,0-4.086H64.916a2.043,2.043,0,0,0,0,4.086Z"/><path d="M64.916,54.078H75.572a2.043,2.043,0,0,0,0-4.086H64.916a2.043,2.043,0,0,0,0,4.086Z"/><path d="M64.916,74.423H75.572a2.043,2.043,0,0,0,0-4.086H64.916a2.043,2.043,0,1,0,0,4.086Z"/><path d="M37.16,48.8v51.761a7.881,7.881,0,0,0,2.314,5.569l.006.006,0,0,0,0a7.88,7.88,0,0,0,5.574,2.32H82.114a7.879,7.879,0,0,0,5.569-2.314l.006-.006,0,0,0,0a7.881,7.881,0,0,0,2.32-5.574V53.849h5.505V78.157a2.043,2.043,0,1,0,4.086,0V51.806a2.043,2.043,0,0,0-2.043-2.043H90.016V44.2A7.879,7.879,0,0,0,87.7,38.629l-.006-.006,0,0,0,0a7.939,7.939,0,0,0-3.531-2.049V34.024a7.92,7.92,0,0,0-7.9-7.9H68.97v-.04a6.527,6.527,0,0,0-1.918-4.63l0,0a6.544,6.544,0,0,0-11.174,4.626v.04H48.589a7.872,7.872,0,0,0-5.574,2.32l0,0,0,0a7.88,7.88,0,0,0-2.319,5.582V36.3H30.426a2.034,2.034,0,0,0-1.508,3.4Zm23.522-24.46a2.473,2.473,0,0,1,3.482-.008l0,0,0,0a2.456,2.456,0,0,1,.721,1.741v.04H59.961v-.04A2.454,2.454,0,0,1,60.682,24.342ZM44.774,34.024A3.8,3.8,0,0,1,45.9,31.331l0,0a3.811,3.811,0,0,1,2.7-1.118H76.256a3.831,3.831,0,0,1,3.815,3.815V36.3h-35.3Zm-2.223,6.35c.059.005.119.008.18.008H82.114A3.8,3.8,0,0,1,84.808,41.5l.008.008A3.8,3.8,0,0,1,85.93,44.2v56.366a3.8,3.8,0,0,1-1.114,2.694l-.008.008a3.8,3.8,0,0,1-2.693,1.114H45.062a3.8,3.8,0,0,1-2.693-1.114l-.008-.008a3.8,3.8,0,0,1-1.115-2.694V48.027a2.039,2.039,0,0,0-.664-1.507l-5.568-6.146Z"/><path d="M64.916,84.6H75.572a2.043,2.043,0,0,0,0-4.086H64.916a2.043,2.043,0,1,0,0,4.086Z"/><path d="M64.916,64.251H75.572a2.043,2.043,0,0,0,0-4.086H64.916a2.043,2.043,0,1,0,0,4.086Z"/></svg>