<svg id="Layer_1" data-name="Layer 1" xmlns="http://www.w3.org/2000/svg" viewBox="0 0 128 128"><title>Artboard 9</title><path d="M48.132,93.972c-3.276,1.449-5.227,3.481-5.227,5.891,0,2.782,2.66,5.089,6.961,6.569A45.115,45.115,0,0,0,64,108.465a45.115,45.115,0,0,0,14.134-2.033c4.3-1.481,6.961-3.788,6.961-6.569,0-2.41-1.951-4.442-5.227-5.891a33.474,33.474,0,0,0-9.145-2.306V72.546A19.873,19.873,0,0,0,84.117,53.828V24.534A4.978,4.978,0,0,0,82.65,21.01L82.642,21a4.977,4.977,0,0,0-3.524-1.467H48.883a5.009,5.009,0,0,0-5,5V53.828A19.872,19.872,0,0,0,57.278,72.546v19.12A33.485,33.485,0,0,0,48.132,93.972ZM47.97,24.534a.921.921,0,0,1,.913-.913H79.118a.921.921,0,0,1,.644.262l.008.008a.92.92,0,0,1,.261.644V37.986c-10.755,5.832-14.763,3.424-18.71,1.051-3.521-2.116-7-4.208-13.351-2.626Zm4.612,40.378A15.648,15.648,0,0,1,47.97,53.828V40.651c5.444-1.611,8.336.125,11.26,1.882,4.683,2.814,9.434,5.669,20.8.044V53.828A15.749,15.749,0,0,1,64.738,69.519h-.032l-.124,0H63.418l-.093,0h-.063c-.133,0-.266-.008-.4-.015h0a15.57,15.57,0,0,1-2.983-.445l-.009,0-.008,0-.078-.02-.008,0-.009,0A15.742,15.742,0,0,1,52.581,64.912Zm14.055,8.564V94.17A2.648,2.648,0,0,1,64,96.806h0a2.649,2.649,0,0,1-2.636-2.636V73.476q.568.067,1.145.1l.036,0,.18.009.036,0,.036,0,.036,0,.036,0,.108,0h.144l.072,0h.036l.179,0h0l.217,0h.741l.216,0h0l.179,0h.036l.072,0h.145l.108,0,.036,0,.036,0,.252-.013.036,0Q66.068,73.543,66.636,73.476ZM57.468,95.759l0,.007.012.05.008.031.007.026,0,.016.043.153.013.045,0,.011.017.056,0,.012.014.043.011.035.007.02.019.055.014.041,0,.014.009.026.01.029.018.049,0,.006.02.054.007.017.014.037.016.04.006.014.022.054,0,.009.019.045.013.031.01.023.023.053h0l.023.053c.023.053.048.1.073.156l.006.013.019.039.025.051.026.051,0,0,.024.046.013.026.013.025.025.047,0,0,.028.05.028.05.021.038.007.011.029.049.005.009.024.04.018.03.011.019.03.048v0l.03.047.014.021.017.027.027.041,0,.007.032.047.009.013.023.034.023.033.01.014.032.046,0,.006.029.041.018.025.015.021.033.044h0l.034.046.013.017.021.028.028.036.007.009.036.045.008.01.028.035.023.028.013.016.036.044,0,0,.035.041.018.021.02.022.034.039,0,0,.038.042.012.014.026.029.028.031.01.011.039.041.006.006.033.035.023.024.017.017.04.04A6.7,6.7,0,0,0,64,100.892h0a6.7,6.7,0,0,0,4.749-1.973l.04-.04.017-.017.023-.024.033-.035.007-.006.039-.041.01-.011.029-.031.026-.029.012-.014.038-.042,0,0,.034-.039.019-.022.018-.021.035-.041,0,0,.037-.044.013-.016.023-.028.028-.035.008-.01.035-.045.007-.009.028-.036.021-.028.013-.017.035-.046h0l.032-.044.016-.021.018-.025.029-.041,0-.006L69.516,98l.009-.014.023-.033.023-.034.009-.013.032-.047,0-.007.027-.041.017-.027.014-.021.029-.047v0l.03-.048.011-.019.018-.03.024-.04.005-.009.029-.049.007-.011.022-.038.018-.032.009-.018.028-.05,0,0,.025-.047.013-.025.013-.026.024-.046,0,0,.026-.051.026-.051.019-.039.006-.013c.025-.052.049-.1.073-.156l.023-.053h0l.022-.053.01-.023.013-.031.019-.045,0-.009.022-.054.006-.014.015-.04.014-.037.007-.017.02-.054,0-.006.018-.049.01-.029.009-.026.005-.014.014-.041.018-.055.007-.02.011-.035.014-.043,0-.012.017-.056,0-.011.013-.045.043-.153,0-.016.007-.026.008-.031.012-.05,0-.007a28.891,28.891,0,0,1,7.692,1.948c1.745.772,2.785,1.533,2.785,2.156,0,.84-1.605,1.814-4.2,2.707A41,41,0,0,1,64,104.379a41,41,0,0,1-12.809-1.809c-2.594-.893-4.2-1.866-4.2-2.707,0-.623,1.04-1.385,2.785-2.156A28.891,28.891,0,0,1,57.468,95.759Z"/></svg>