<svg id="Layer_1" data-name="Layer 1" xmlns="http://www.w3.org/2000/svg" viewBox="0 0 128 128"><title>Artboard 7</title><path d="M84.852,39.143a2.039,2.039,0,0,0,2.761-.83,7.543,7.543,0,0,0,1.125-4.55,12.062,12.062,0,0,0-2.322-5.427c-1.76-2.64.456-5.508.462-5.516a2.037,2.037,0,0,0-3.224-2.49c-.011.015-4.013,5.194-.638,10.256a8.627,8.627,0,0,1,1.667,3.56,4,4,0,0,1-.662,2.236A2.039,2.039,0,0,0,84.852,39.143Z"/><path d="M70.364,39.143a2.039,2.039,0,0,0,2.761-.83,7.54,7.54,0,0,0,1.125-4.55A11.884,11.884,0,0,0,72,28.449c-.023-.041-.048-.081-.075-.121-1.757-2.636.456-5.5.462-5.508a2.037,2.037,0,0,0-3.224-2.49c-.011.015-4.015,5.2-.637,10.265.024.036.049.071.075.1A8.384,8.384,0,0,1,70.2,34.146a4,4,0,0,1-.663,2.236A2.039,2.039,0,0,0,70.364,39.143Z"/><path d="M55.875,39.143a2.039,2.039,0,0,0,2.761-.83,7.541,7.541,0,0,0,1.125-4.55,12.06,12.06,0,0,0-2.322-5.427c-1.76-2.64.456-5.508.462-5.516a2.037,2.037,0,0,0-3.224-2.49c-.011.015-4.012,5.194-.638,10.256a8.627,8.627,0,0,1,1.667,3.56,4,4,0,0,1-.662,2.236A2.039,2.039,0,0,0,55.875,39.143Z"/><path d="M43.493,82.494V87.01a21.51,21.51,0,0,0,21.452,21.452H76.514A21.51,21.51,0,0,0,97.966,87.01V53.668a7.566,7.566,0,0,0-2.228-5.361c-.042-.042-.086-.082-.131-.12a7.566,7.566,0,0,0-5.23-2.108h-39.3a7.567,7.567,0,0,0-5.353,2.228l0,0,0,0-.006.006a7.633,7.633,0,0,0-1.967,3.406,15.5,15.5,0,0,0-.255,30.767Zm4.086-1.91V53.668h0A3.487,3.487,0,0,1,48.6,51.2l.008-.008a3.486,3.486,0,0,1,2.472-1.022h39.3a3.486,3.486,0,0,1,2.39.943c.027.03.054.059.082.087a3.492,3.492,0,0,1,1.03,2.472V87.01a17.421,17.421,0,0,1-17.366,17.366H64.945A17.421,17.421,0,0,1,47.579,87.01ZM37.464,59.054a11.389,11.389,0,0,1,6.029-3.161V78.359a11.418,11.418,0,0,1-6.029-19.305Z"/></svg>