<svg id="Layer_1" data-name="Layer 1" xmlns="http://www.w3.org/2000/svg" viewBox="0 0 128 128"><title>Artboard 5</title><path d="M64.725,63.891h8.447a2.043,2.043,0,1,0,0-4.086H64.725a2.043,2.043,0,1,0,0,4.086Z"/><path d="M90.6,68.469a2.043,2.043,0,0,0,2.043-2.043V45.539A2.043,2.043,0,0,0,90.6,43.5H84.884l.153-3.908c.008-.2.011-.231.011-.247H85.04a6.392,6.392,0,0,0-1.932-4.559A6.791,6.791,0,0,0,80.4,33.147v-1.7a6.7,6.7,0,0,0-6.687-6.687H68.349a5.614,5.614,0,0,0-11.2,0H51.783A6.7,6.7,0,0,0,45.1,31.444v1.385h-7.71a2.034,2.034,0,0,0-1.508,3.4l6.461,7.132,1.718,40.906a7.147,7.147,0,0,0,.578,2.536,8.951,8.951,0,0,0-8.413,8.913v10.706a2.044,2.044,0,0,0,2.043,2.043H89.08a2.043,2.043,0,0,0,2.043-2.043V95.716A8.9,8.9,0,0,0,88.5,89.409c-.041-.041-.083-.08-.126-.116a8.9,8.9,0,0,0-5.664-2.49,7.049,7.049,0,0,0,.577-2.536l1.436-36.685h3.838V66.426A2.043,2.043,0,0,0,90.6,68.469Zm-28.936-44.4a1.528,1.528,0,0,1,2.558.689H61.272A1.523,1.523,0,0,1,61.668,24.068ZM49.183,31.444a2.613,2.613,0,0,1,2.6-2.6H73.714a2.613,2.613,0,0,1,2.6,2.6v1.377H49.183ZM41.974,36.9h4.985c.059.005.12.008.18.008h31.3l.047,0a2.7,2.7,0,0,1,1.769.784,2.332,2.332,0,0,1,.719,1.654h-.008c0,.127.009,0,0,.087L79.219,84.107a2.9,2.9,0,0,1-.829,1.939l-.008.008a2.487,2.487,0,0,1-1.772.733H50.736a2.481,2.481,0,0,1-1.768-.731l0,0,0,0a2.917,2.917,0,0,1-.841-1.942L46.378,42.463a2.029,2.029,0,0,0-.593-1.358Zm43.555,55.31c.027.031.055.06.084.089a4.828,4.828,0,0,1,1.424,3.419v8.662H40.308V95.716a4.861,4.861,0,0,1,4.843-4.842H82.194A4.834,4.834,0,0,1,85.529,92.208Z"/><path d="M64.725,47.763h8.447a2.043,2.043,0,1,0,0-4.086H64.725a2.043,2.043,0,1,0,0,4.086Z"/><path d="M64.725,80.018h8.447a2.043,2.043,0,1,0,0-4.086H64.725a2.043,2.043,0,0,0,0,4.086Z"/><path d="M64.725,71.954h8.447a2.043,2.043,0,0,0,0-4.086H64.725a2.043,2.043,0,0,0,0,4.086Z"/><path d="M64.725,55.827h8.447a2.043,2.043,0,1,0,0-4.086H64.725a2.043,2.043,0,1,0,0,4.086Z"/></svg>