<svg id="Layer_1" data-name="Layer 1" xmlns="http://www.w3.org/2000/svg" viewBox="0 0 64 64"><title>Artboard 4</title><path d="M56.334,16.006H34.768A3.746,3.746,0,0,0,32,17.238a3.746,3.746,0,0,0-2.768-1.232H16.221V12.974a1,1,0,0,0-1-1H10.894a1,1,0,0,0-1,1v3.032H7.666a1,1,0,0,0-1,1V47.164a1,1,0,0,0,1,1l21.566.009A1.77,1.77,0,0,1,31,49.94a1,1,0,0,0,1,1h0a1,1,0,0,0,1-1,1.77,1.77,0,0,1,1.768-1.767l21.566-.009a1,1,0,0,0,1-1V17.006A1,1,0,0,0,56.334,16.006Zm-44.44-2.032h2.326v2.032H11.894ZM31,46.614a3.744,3.744,0,0,0-1.768-.441L8.666,46.164V18.006H29.232A1.77,1.77,0,0,1,31,19.773Zm24.334-.45-20.566.009A3.744,3.744,0,0,0,33,46.614V19.773a1.77,1.77,0,0,1,1.768-1.767H55.334Z"/><path d="M27.488,50.026H9.412a1,1,0,0,0,0,2H27.488a1,1,0,0,0,0-2Z"/><path d="M54.5,50.026H36.426a1,1,0,0,0,0,2H54.5a1,1,0,0,0,0-2Z"/><path d="M13.174,23.945h8.32a1,1,0,0,0,0-2h-8.32a1,1,0,0,0,0,2Z"/><path d="M26.494,27.654H13.174a1,1,0,0,0,0,2h13.32a1,1,0,0,0,0-2Z"/><path d="M26.494,33.362H13.174a1,1,0,0,0,0,2h13.32a1,1,0,0,0,0-2Z"/><path d="M26.494,39.071H13.174a1,1,0,0,0,0,2h13.32a1,1,0,0,0,0-2Z"/><path d="M37.508,23.945h8.32a1,1,0,0,0,0-2h-8.32a1,1,0,0,0,0,2Z"/><path d="M37.508,29.654h13.32a1,1,0,0,0,0-2H37.508a1,1,0,0,0,0,2Z"/><path d="M37.508,35.362h13.32a1,1,0,0,0,0-2H37.508a1,1,0,0,0,0,2Z"/><path d="M37.508,41.071h13.32a1,1,0,0,0,0-2H37.508a1,1,0,0,0,0,2Z"/></svg>