<svg id="Layer_1" data-name="Layer 1" xmlns="http://www.w3.org/2000/svg" viewBox="0 0 64 64"><title>Artboard 5</title><path d="M53.18,21.975,32.513,9.641a1,1,0,0,0-1.025,0L10.82,21.975a1,1,0,0,0-.487.859v3a1,1,0,0,0,1,1H52.667a1,1,0,0,0,1-1v-3A1,1,0,0,0,53.18,21.975Zm-1.513,2.859H12.333V23.4L32,11.665,51.667,23.4Z"/><path d="M19.208,47.5a1,1,0,0,0,1-1V29.584a1,1,0,0,0-1-1H14.292a1,1,0,0,0-1,1V46.5a1,1,0,0,0,1,1ZM15.292,30.584h2.916V45.5H15.292Z"/><path d="M34.458,47.5a1,1,0,0,0,1-1V29.584a1,1,0,0,0-1-1H29.542a1,1,0,0,0-1,1V46.5a1,1,0,0,0,1,1ZM30.542,30.584h2.916V45.5H30.542Z"/><path d="M49.708,47.5a1,1,0,0,0,1-1V29.584a1,1,0,0,0-1-1H44.792a1,1,0,0,0-1,1V46.5a1,1,0,0,0,1,1ZM45.792,30.584h2.916V45.5H45.792Z"/><path d="M27.917,19.584A4.083,4.083,0,1,0,32,15.5,4.088,4.088,0,0,0,27.917,19.584Zm6.166,0A2.083,2.083,0,1,1,32,17.5,2.086,2.086,0,0,1,34.083,19.584Z"/><path d="M12.667,50.167a1,1,0,0,0,1,1H50.333a1,1,0,0,0,0-2H13.667A1,1,0,0,0,12.667,50.167Z"/><path d="M52.667,52.5H11.333a1,1,0,1,0,0,2H52.667a1,1,0,0,0,0-2Z"/></svg>