<svg id="Layer_1" data-name="Layer 1" xmlns="http://www.w3.org/2000/svg" viewBox="0 0 64 64"><title>Artboard 6</title><path d="M51.254,28.748c-4.339-6.658,1.24-12.849,1.48-13.109a1,1,0,0,0-.021-1.38L47.879,9.343a1,1,0,0,0-1.306-.1c-2.725,2.008-5.318,3.027-7.709,3.027a7.841,7.841,0,0,1-6.058-2.814,1,1,0,0,0-.8-.406.9.9,0,0,0-.806.4,7.845,7.845,0,0,1-6.062,2.818c-2.391,0-4.984-1.018-7.709-3.027a1,1,0,0,0-1.306.1l-4.833,4.916a1,1,0,0,0-.02,1.381c.059.064,5.835,6.422,1.479,13.107-2.529,3.88-2.585,9.6-.142,14.579,3.272,6.665,10.311,10.9,19.315,11.63.027,0,.054,0,.081,0s.054,0,.081,0c9-.727,16.044-4.965,19.315-11.63C53.839,38.351,53.783,32.628,51.254,28.748ZM49.6,42.446c-2.943,6-9.355,9.824-17.6,10.511-8.245-.687-14.657-4.515-17.6-10.511-2.139-4.356-2.13-9.3.022-12.606,4.247-6.516.477-12.717-1.085-14.812l3.613-3.675a14.644,14.644,0,0,0,8.186,2.913h0A9.912,9.912,0,0,0,32,11.519a9.908,9.908,0,0,0,6.864,2.747,14.641,14.641,0,0,0,8.186-2.914l3.613,3.675c-1.562,2.1-5.332,8.3-1.085,14.812C51.73,33.142,51.739,38.09,49.6,42.446Z"/><path d="M32.722,24.154a.839.839,0,0,0-1.444,0l-2.583,5.233-5.775.839a.8.8,0,0,0-.446,1.374l4.179,4.074-.987,5.753a.806.806,0,0,0,1.169.849L32,39.559l5.165,2.716a.806.806,0,0,0,1.169-.849l-.987-5.753L41.527,31.6a.8.8,0,0,0-.446-1.373l-5.775-.839Zm3.2,10.662a.806.806,0,0,0-.232.713l.783,4.561-4.1-2.154a.809.809,0,0,0-.75,0l-4.1,2.154.783-4.561a.806.806,0,0,0-.232-.713l-3.313-3.23,4.579-.665a.805.805,0,0,0,.606-.44L32,26.33l2.048,4.15a.805.805,0,0,0,.606.44l4.579.665Z"/><path d="M32,19.294a14.25,14.25,0,1,0,14.25,14.25A14.266,14.266,0,0,0,32,19.294Zm0,26.5a12.25,12.25,0,1,1,12.25-12.25A12.264,12.264,0,0,1,32,45.794Z"/></svg>