<svg id="Layer_1" data-name="Layer 1" xmlns="http://www.w3.org/2000/svg" viewBox="0 0 64 64"><title>Artboard 9</title><path d="M55.641,43.293,35.471,25.987l2.071-2.208a6.054,6.054,0,0,0,.724.057,3.69,3.69,0,0,0,2.789-1.085c1.022-1.09,1.2-2.779.488-4.757a13.748,13.748,0,0,0-3.578-5.16C34.272,9.368,29.839,8.3,27.872,10.387a3.97,3.97,0,0,0-.8,3.574L17.466,24.2a3.969,3.969,0,0,0-3.515,1.031c-1.964,2.095-.607,6.45,3.088,9.917,2.421,2.27,5.159,3.515,7.312,3.515a3.689,3.689,0,0,0,2.783-1.067,3.966,3.966,0,0,0,.8-3.574l2.069-2.206L48.6,50.865a5.17,5.17,0,1,0,7.041-7.572ZM29.331,11.755c1.01-1.075,4.33-.218,7.266,2.538a11.729,11.729,0,0,1,3.063,4.375c.435,1.218.413,2.207-.063,2.714a2.591,2.591,0,0,1-2.468.289L29.205,14.24A2.588,2.588,0,0,1,29.331,11.755ZM25.674,36.226c-1.006,1.075-4.329.218-7.267-2.537s-4-6.016-3-7.09a2.586,2.586,0,0,1,2.467-.288L25.8,33.743A2.58,2.58,0,0,1,25.674,36.226Zm1.312-4.114-7.553-7.084L28.02,15.87l7.553,7.084-4.294,4.579-2.672,2.849h0ZM54.449,49.263a3.172,3.172,0,0,1-4.45.175L31.375,30.356,34.1,27.447l20.2,17.334A3.174,3.174,0,0,1,54.449,49.263Z"/><path d="M26.153,47.227H26.1v-.335A1.993,1.993,0,0,0,24.021,45H10.91a1.993,1.993,0,0,0-2.078,1.891v.335H8.777A1.925,1.925,0,0,0,6.7,49.006V52.9a1.925,1.925,0,0,0,2.078,1.778H26.153A1.925,1.925,0,0,0,28.231,52.9V49.006A1.925,1.925,0,0,0,26.153,47.227Zm.078,5.446a.459.459,0,0,1-.078.006H8.777a.458.458,0,0,1-.078-.006v-3.44a.458.458,0,0,1,.078-.006H9.832a1,1,0,0,0,1-1V47.011A.33.33,0,0,1,10.91,47H24.021a.328.328,0,0,1,.078.01v1.216a1,1,0,0,0,1,1h1.055a.459.459,0,0,1,.078.006Z"/></svg>