<svg id="Layer_1" data-name="Layer 1" xmlns="http://www.w3.org/2000/svg" viewBox="0 0 64 64"><title>Artboard 1</title><path d="M55.425,32.409h0l-.006-.016h0l-6.753-16.8H51.75a1,1,0,0,0,0-2H32.938V10.719a1,1,0,1,0-2,0v2.875H12.125a1,1,0,0,0,0,2h3.207l-6.753,16.8h0l-.006.016h0a.994.994,0,0,0-.075.372,8.313,8.313,0,0,0,16.625,0,.994.994,0,0,0-.075-.372h0l-.006-.016h0l-6.753-16.8H30.938V46.507c-4.767.36-8.5,3.26-8.5,6.774a1,1,0,0,0,1,1h16.99a1,1,0,0,0,1-1c0-3.514-3.728-6.414-8.5-6.774V15.594h12.77l-6.753,16.8h0l-.006.016h0a.994.994,0,0,0-.075.372,8.313,8.313,0,0,0,16.625,0A.994.994,0,0,0,55.425,32.409ZM16.813,17.274l5.833,14.507H10.98Zm0,21.819a6.322,6.322,0,0,1-6.233-5.312H23.046A6.322,6.322,0,0,1,16.813,39.094Zm22.45,13.188H24.613c.739-2.148,3.794-3.812,7.325-3.812S38.523,50.133,39.262,52.281Zm13.758-20.5H41.355l5.833-14.507Zm-5.833,7.313a6.322,6.322,0,0,1-6.233-5.312H53.421A6.322,6.322,0,0,1,47.188,39.094Z"/></svg>