<svg id="Layer_1" data-name="Layer 1" xmlns="http://www.w3.org/2000/svg" viewBox="0 0 64 64"><title>Artboard 13</title><path d="M17.151,27.537H29.269a1,1,0,0,0,1-1V20.893A1,1,0,0,0,29.716,20l-3.58-1.791a1,1,0,0,0-1.259.311L23.21,20.832l-1.667-2.314a1,1,0,0,0-1.259-.311L16.7,20a1,1,0,0,0-.553.895v5.644A1,1,0,0,0,17.151,27.537Zm1-6.027,2.266-1.133L22.4,23.129a1.035,1.035,0,0,0,1.623,0L26,20.377l2.266,1.133v4.027H18.151Z"/><path d="M23.21,17.279c2.45,0,4.076-3.158,4.076-5.246a4.075,4.075,0,1,0-8.151,0C19.134,14.121,20.76,17.279,23.21,17.279Zm0-7.322a2.079,2.079,0,0,1,2.076,2.076c0,1.311-1.093,3.246-2.076,3.246s-2.075-1.935-2.075-3.246A2.078,2.078,0,0,1,23.21,9.957Z"/><path d="M34.68,27.537H46.8a1,1,0,0,0,1-1V20.893A1,1,0,0,0,47.245,20l-3.58-1.791a1,1,0,0,0-1.259.311l-1.667,2.316-1.667-2.316a1,1,0,0,0-1.259-.311L34.233,20a1,1,0,0,0-.553.895v5.644A1,1,0,0,0,34.68,27.537Zm1-6.027,2.266-1.133,1.981,2.752a1.035,1.035,0,0,0,1.623,0l1.981-2.752L45.8,21.51v4.027H35.68Z"/><path d="M40.738,17.279c2.45,0,4.076-3.158,4.076-5.246a4.075,4.075,0,1,0-8.15,0C36.664,14.121,38.289,17.279,40.738,17.279Zm0-7.322a2.079,2.079,0,0,1,2.076,2.076c0,1.311-1.093,3.246-2.076,3.246s-2.075-1.935-2.075-3.246A2.078,2.078,0,0,1,40.738,9.957Z"/><path d="M51.416,28.981H12.585a2.1,2.1,0,0,0-2.1,2.1v6.244a2.1,2.1,0,0,0,2.1,2.1h1.754V53.941a2.1,2.1,0,0,0,2.1,2.1H47.56a2.1,2.1,0,0,0,2.1-2.1V39.428h1.754a2.1,2.1,0,0,0,2.1-2.1V31.082A2.1,2.1,0,0,0,51.416,28.981Zm.1,8.346a.1.1,0,0,1-.1.1H48.662a1,1,0,0,0-1,1V53.941a.1.1,0,0,1-.1.1H16.44a.1.1,0,0,1-.1-.1V38.428a1,1,0,0,0-1-1H12.585a.1.1,0,0,1-.1-.1V31.082a.1.1,0,0,1,.1-.1H51.416a.1.1,0,0,1,.1.1Z"/><path d="M41.685,35.609H22.315a2.1,2.1,0,0,0-2.1,2.1V47.26a2.1,2.1,0,0,0,2.1,2.1h19.37a2.1,2.1,0,0,0,2.1-2.1V37.711A2.1,2.1,0,0,0,41.685,35.609Zm.1,11.65a.1.1,0,0,1-.1.1H22.315a.1.1,0,0,1-.1-.1V37.711a.1.1,0,0,1,.1-.1h19.37a.1.1,0,0,1,.1.1Z"/></svg>