<svg xmlns="http://www.w3.org/2000/svg" data-name="Layer 1" viewBox="0 0 64 64"><path d="M56.334 16.006H34.768A3.746 3.746 0 0 0 32 17.238a3.746 3.746 0 0 0-2.768-1.232H16.221v-3.032a1 1 0 0 0-1-1h-4.327a1 1 0 0 0-1 1v3.032H7.666a1 1 0 0 0-1 1v30.158a1 1 0 0 0 1 1l21.566.009A1.77 1.77 0 0 1 31 49.94a1 1 0 0 0 1 1 1 1 0 0 0 1-1 1.77 1.77 0 0 1 1.768-1.767l21.566-.009a1 1 0 0 0 1-1V17.006a1 1 0 0 0-1-1zm-44.44-2.032h2.326v2.032h-2.326zM31 46.614a3.744 3.744 0 0 0-1.768-.441l-20.566-.009V18.006h20.566A1.77 1.77 0 0 1 31 19.773zm24.334-.45-20.566.009a3.744 3.744 0 0 0-1.768.441V19.773a1.77 1.77 0 0 1 1.768-1.767h20.566z"/><path d="M27.488 50.026H9.412a1 1 0 0 0 0 2h18.076a1 1 0 0 0 0-2zM54.5 50.026H36.426a1 1 0 0 0 0 2H54.5a1 1 0 0 0 0-2zM13.174 23.945h8.32a1 1 0 0 0 0-2h-8.32a1 1 0 0 0 0 2zM26.494 27.654h-13.32a1 1 0 0 0 0 2h13.32a1 1 0 0 0 0-2zM26.494 33.362h-13.32a1 1 0 0 0 0 2h13.32a1 1 0 0 0 0-2zM26.494 39.071h-13.32a1 1 0 0 0 0 2h13.32a1 1 0 0 0 0-2zM37.508 23.945h8.32a1 1 0 0 0 0-2h-8.32a1 1 0 0 0 0 2zM37.508 29.654h13.32a1 1 0 0 0 0-2h-13.32a1 1 0 0 0 0 2zM37.508 35.362h13.32a1 1 0 0 0 0-2h-13.32a1 1 0 0 0 0 2zM37.508 41.071h13.32a1 1 0 0 0 0-2h-13.32a1 1 0 0 0 0 2z"/></svg>