<svg id="Layer_1" data-name="Layer 1" xmlns="http://www.w3.org/2000/svg" viewBox="0 0 64 64"><title>Artboard 14</title><path d="M56.825,15.679H54.4V12.3a1,1,0,0,0-1-1H47.979a1,1,0,0,0-1,1v3.377H17.827a1,1,0,0,0-.936.648l-1.724,4.6-3.541.314a1,1,0,0,0-.89,1.2l1.6,7.575L6.247,45.113a1,1,0,0,0,.6,1.319l.589.2L6.9,48a1,1,0,0,0,.553,1.291l8.166,3.333A.989.989,0,0,0,16,52.7a1,1,0,0,0,.921-.609l.814-1.917,1.25.43a.977.977,0,0,0,.325.055,1,1,0,0,0,.957-.712L25.24,33.427h6.482c3.684,0,4.985-4.3,5.381-6.207H56.825a1,1,0,0,0,1-1V16.679A1,1,0,0,0,56.825,15.679ZM48.979,13.3H52.4v2.377H48.979ZM15.465,50.4l-6.34-2.587.207-.526,6.019,2.066.488.168Zm20.8-25.18a1,1,0,0,0-.993.88c-.007.054-.728,5.327-3.546,5.327H24.5a1,1,0,0,0-.957.712L20.992,40.6l-3.277-1.187a1,1,0,0,0-.682,1.881l3.381,1.226-.525,1.746-3.509-1.258a1,1,0,1,0-.675,1.883l3.606,1.293-.66,2.191L8.5,44.884l5.812-14.4a1,1,0,0,0,.051-.581l-1.434-6.771,3.045-.27a1,1,0,0,0,.848-.645l1.7-4.539H55.825v1.937H39.916a1,1,0,0,0,0,2H55.825v3.6Z"/><path d="M32.695,25.058H26.79a1,1,0,0,0-.942.664l-1.181,3.313a1,1,0,0,0,.606,1.278,1.012,1.012,0,0,0,.336.058,1,1,0,0,0,.942-.664l.944-2.648h5.2a1,1,0,0,0,0-2Z"/></svg>