<svg xmlns="http://www.w3.org/2000/svg" data-name="Layer 1" viewBox="0 0 64 64"><path d="m55.425 32.409-.006-.016-6.753-16.8h3.084a1 1 0 0 0 0-2H32.938v-2.874a1 1 0 1 0-2 0v2.875H12.125a1 1 0 0 0 0 2h3.207l-6.753 16.8-.006.016a.994.994 0 0 0-.075.372 8.313 8.313 0 0 0 16.625 0 .994.994 0 0 0-.075-.372l-.006-.016-6.753-16.8h12.649v30.913c-4.767.36-8.5 3.26-8.5 6.774a1 1 0 0 0 1 1h16.99a1 1 0 0 0 1-1c0-3.514-3.728-6.414-8.5-6.774V15.594h12.77l-6.753 16.8-.006.016a.994.994 0 0 0-.075.372 8.313 8.313 0 0 0 16.625 0 .994.994 0 0 0-.064-.373zM16.813 17.274l5.833 14.507H10.98zm0 21.819a6.322 6.322 0 0 1-6.233-5.312h12.466a6.322 6.322 0 0 1-6.233 5.313zm22.45 13.188h-14.65c.739-2.148 3.794-3.812 7.325-3.812s6.585 1.664 7.324 3.812zm13.758-20.5H41.355l5.833-14.507zm-5.833 7.313a6.322 6.322 0 0 1-6.233-5.312h12.466a6.322 6.322 0 0 1-6.233 5.312z"/></svg>