<svg xmlns="http://www.w3.org/2000/svg" data-name="Layer 1" viewBox="0 0 64 64"><path d="M34.86 45.212a1 1 0 1 0-1.893.645l1.118 3.284h-4.904l1.119-3.285a1 1 0 1 0-1.892-.645l-1.569 4.606a1 1 0 0 0 .946 1.322h7.7a1 1 0 0 0 .946-1.322z"/><path d="M57.288 53.806h-6.262a34.031 34.031 0 0 0-3.764-15.6 4.441 4.441 0 0 0 3.788-4.176 4.088 4.088 0 0 0-1.75-3.288 4.087 4.087 0 0 0 1.746-3.283 4.25 4.25 0 0 0-2.546-3.774 4.009 4.009 0 0 0 1.175-2.793 4.426 4.426 0 0 0-3.648-4.153 3.816 3.816 0 0 0 .31-1.5 4.59 4.59 0 0 0-4.837-4.283 5.3 5.3 0 0 0-2.05.409 4.784 4.784 0 0 0-4.67-3.171 5.228 5.228 0 0 0-3.144 1.036 5.228 5.228 0 0 0-3.148-1.035 4.785 4.785 0 0 0-4.67 3.171 5.292 5.292 0 0 0-2.05-.409 4.589 4.589 0 0 0-4.834 4.284 3.816 3.816 0 0 0 .31 1.5 4.425 4.425 0 0 0-3.648 4.153 4.009 4.009 0 0 0 1.175 2.793 4.252 4.252 0 0 0-2.549 3.774 4.086 4.086 0 0 0 1.747 3.283 4.086 4.086 0 0 0-1.747 3.284 4.346 4.346 0 0 0 3.2 4.014c-1.3 2.313-3.668 7.629-3.852 15.766H6.712a1 1 0 0 0 0 2h50.576a1 1 0 0 0 0-2zm-43.067-19.78a2.524 2.524 0 0 1 2.489-2.25 1.071 1.071 0 0 0 .89-1.176 1 1 0 0 0-.893-.895 2.525 2.525 0 0 1-2.483-2.25 2.609 2.609 0 0 1 2.836-2.284 3.362 3.362 0 0 1 .407.039 1 1 0 0 0 1.037-.6l.051-.118a1 1 0 0 0-.74-1.379 2.475 2.475 0 0 1-2.217-2.227c0-1.42 1.6-2.558 3.454-2.227a1 1 0 0 0 .783-1.778 2.085 2.085 0 0 1-.9-1.646 2.607 2.607 0 0 1 2.834-2.284 3.076 3.076 0 0 1 2.254.927 1 1 0 0 0 1.7-.934 1.9 1.9 0 0 1-.067-.471 2.608 2.608 0 0 1 2.835-2.284 3.052 3.052 0 0 1 2.372 1.045 1.033 1.033 0 0 0 1.553 0 3.052 3.052 0 0 1 2.372-1.045 2.609 2.609 0 0 1 2.836 2.284 1.851 1.851 0 0 1-.067.467 1 1 0 0 0 1.7.938 3.076 3.076 0 0 1 2.254-.927 2.607 2.607 0 0 1 2.834 2.284 2.085 2.085 0 0 1-.9 1.646 1 1 0 0 0 .782 1.778c1.876-.331 3.455.806 3.455 2.227a2.475 2.475 0 0 1-2.217 2.227 1 1 0 0 0-.74 1.379l.051.118a1.112 1.112 0 0 0 1.117.589 2.8 2.8 0 0 1 3.163 2.255 2.525 2.525 0 0 1-2.482 2.25 1.089 1.089 0 0 0-.9.96 1 1 0 0 0 .893 1.107 2.524 2.524 0 0 1 2.489 2.25 2.607 2.607 0 0 1-2.835 2.283 3.234 3.234 0 0 1-1.738-.5 1 1 0 0 0-1.225.119L39.912 39.1V18.64a1 1 0 0 0-.463-.844L37.3 16.432a1 1 0 0 0-1-.042 3.29 3.29 0 0 1-3.892-.672 1.033 1.033 0 0 0-1.553 0 3.285 3.285 0 0 1-3.893.672 1 1 0 0 0-1 .042l-2.14 1.368a1 1 0 0 0-.463.844V39.1l-3.341-3.168a1 1 0 0 0-1.225-.118 3.238 3.238 0 0 1-1.737.5 2.608 2.608 0 0 1-2.835-2.288zm18.749 4.086 1.118 3.288h-4.905l1.117-3.288a1 1 0 0 0-.946-1.322h-4v-5.6a10.114 10.114 0 0 0 6.346 2.729h.113a8.936 8.936 0 0 0 6.1-2.664v5.535h-4a1 1 0 0 0-.946 1.322zm4.942-9.783c-1.948 2.375-4 3.591-6.105 3.591h-.071c-3.159-.04-5.679-2.751-6.376-3.578v-9.153l1.226-.78a5.388 5.388 0 0 0 5.05-.682 5.389 5.389 0 0 0 5.05.682l1.227.78zM17.63 38.251a5.221 5.221 0 0 0 1.532-.376l4.509 4.276a1 1 0 0 0 1.688-.726V38.79h2.6l-1.119 3.284a1 1 0 0 0 .946 1.322h7.7a1 1 0 0 0 .946-1.322l-1.119-3.284h2.6v2.636a1 1 0 0 0 1.688.726l4.51-4.276a5.108 5.108 0 0 0 .77.244c.7 1.061 3.922 6.418 4.145 15.687H13.567c.216-8.877 3.207-14.214 4.063-15.556z"/><path d="M33.923 27.509a4.538 4.538 0 0 1-4.113-.009 1 1 0 0 0-.958 1.756 7.068 7.068 0 0 0 3.141.754 5.849 5.849 0 0 0 2.916-.761 1 1 0 0 0-.986-1.74z"/></svg>