<svg id="Layer_1" data-name="Layer 1" xmlns="http://www.w3.org/2000/svg" viewBox="0 0 64 64"><title>Artboard 8</title><path d="M33.084,16.231a11.917,11.917,0,1,0,0,16.854A11.839,11.839,0,0,0,33.084,16.231ZM31.672,31.671a9.919,9.919,0,1,1,0-14.025A9.86,9.86,0,0,1,31.672,31.671Z"/><path d="M53.3,45.9,38.658,31.254a15.5,15.5,0,1,0-7.4,7.409L45.9,53.3a5.235,5.235,0,0,0,7.4-7.4ZM15.117,34.2a13.494,13.494,0,1,1,9.541,3.952A13.4,13.4,0,0,1,15.117,34.2Zm20.5,1.415a15.425,15.425,0,0,0,2.043-2.532l2.48,2.479L35.56,40.136l-2.478-2.478A15.637,15.637,0,0,0,35.613,35.613ZM51.887,51.887a3.313,3.313,0,0,1-4.574,0L36.975,41.55l4.576-4.575L51.887,47.312a3.236,3.236,0,0,1,0,4.575Z"/></svg>