<svg id="Layer_1" data-name="Layer 1" xmlns="http://www.w3.org/2000/svg" viewBox="0 0 64 64"><title>Artboard 2</title><path d="M51.52,35.732V30.8a1,1,0,0,0-1-1H45.981v-2c1.707-.628,2.937-2.831,2.937-5.533,0-3.206-1.729-5.719-3.937-5.719a3.064,3.064,0,0,0-1.934.717l-2.154-2.464a2.882,2.882,0,0,0,.516-1.115,3.531,3.531,0,0,0-1.194-3.252,7.4,7.4,0,0,0-3.564-1.8,8.348,8.348,0,0,0-1.758-.191c-2.423,0-4.3,1.139-4.663,2.832a3.052,3.052,0,0,0,.236,1.908L28.7,15.1l-3.478-3.334a1.04,1.04,0,0,0-.713-.278,1,1,0,0,0-.7.308L20.4,15.352a10.991,10.991,0,1,0-1.389,21.894l.24,0A10.975,10.975,0,0,0,29.84,24.4l3.41-3.558a1,1,0,0,0-.03-1.414l-3.076-2.948,1.578-1.708a7.546,7.546,0,0,0,3.267,1.561,8.341,8.341,0,0,0,1.757.191,6.343,6.343,0,0,0,2.552-.5l2.5,2.859a7.6,7.6,0,0,0-.753,3.393c0,2.7,1.23,4.9,2.938,5.533v2H39.442a1,1,0,0,0-1,1v4.929a11,11,0,1,0,13.078,0ZM25.512,32.473a9,9,0,1,1-5.278-15.131l7.624,7.307A8.988,8.988,0,0,1,25.512,32.473Zm3.2-9.781L22.153,16.41,24.559,13.9l6.554,6.282Zm6.7-8.313a5.678,5.678,0,0,1-2.333-1.073l.471-.51a.991.991,0,0,0-1.059-1.611,3.556,3.556,0,0,1,2.4-.74,6.335,6.335,0,0,1,1.336.146,5.463,5.463,0,0,1,2.6,1.286,1.7,1.7,0,0,1,.633,1.287l-.889-1.018a1,1,0,0,0-1.506,1.316l.8.916A5.754,5.754,0,0,1,35.41,14.379Zm7.633,7.894a6.055,6.055,0,0,1,.24-1.691l.278.318a1,1,0,0,0,1.506-1.316l-.7-.8a1.073,1.073,0,0,1,.609-.233c.914,0,1.937,1.59,1.937,3.719a5.071,5.071,0,0,1-.937,3.119v-.337a1,1,0,0,0-2,0v.337A5.07,5.07,0,0,1,43.043,22.273Zm-2.6,9.531H49.52v3.478H40.442Zm4.539,21.75A8.989,8.989,0,0,1,39.7,37.282H50.261a8.99,8.99,0,0,1-5.28,16.272Z"/></svg>