<svg id="Layer_1" data-name="Layer 1" xmlns="http://www.w3.org/2000/svg" viewBox="0 0 64 64"><title>Artboard 3</title><path d="M45.7,8.241H19.795a1,1,0,0,0-1,1v7.78H13.91a1,1,0,0,0-1,1V54.759a1,1,0,0,0,1,1H45.7a5.4,5.4,0,0,0,5.39-5.39V13.631A5.4,5.4,0,0,0,45.7,8.241Zm3.39,42.127a3.394,3.394,0,0,1-3.39,3.39H14.91V19.022H31.458V33.53a1,1,0,0,0,1.7.713l3.351-3.292,3.352,3.292a1,1,0,0,0,1.7-.713V19.022H45.7a5.364,5.364,0,0,0,3.39-1.2ZM33.458,19.022h6.1V31.146l-2.352-2.31a1,1,0,0,0-1.4,0l-2.351,2.309Zm12.242-2H20.795v-6.78H45.7a3.39,3.39,0,0,1,0,6.78Z"/></svg>