<svg xmlns="http://www.w3.org/2000/svg" data-name="Layer 1" viewBox="0 0 64 64"><path d="M51.254 28.748c-4.339-6.658 1.24-12.849 1.48-13.109a1 1 0 00-.021-1.38l-4.834-4.916a1 1 0 00-1.306-.1c-2.725 2.008-5.318 3.027-7.709 3.027a7.841 7.841 0 01-6.058-2.814 1 1 0 00-.8-.406.9.9 0 00-.806.4 7.845 7.845 0 01-6.062 2.818c-2.391 0-4.984-1.018-7.709-3.027a1 1 0 00-1.306.1l-4.833 4.916a1 1 0 00-.02 1.381c.059.064 5.835 6.422 1.479 13.107-2.529 3.88-2.585 9.6-.142 14.579 3.272 6.665 10.311 10.9 19.315 11.63h.162c9-.727 16.044-4.965 19.315-11.63 2.44-4.973 2.384-10.696-.145-14.576zM49.6 42.446c-2.943 6-9.355 9.824-17.6 10.511-8.245-.687-14.657-4.515-17.6-10.511-2.139-4.356-2.13-9.3.022-12.606 4.247-6.516.477-12.717-1.085-14.812l3.613-3.675a14.644 14.644 0 008.186 2.913A9.912 9.912 0 0032 11.519a9.908 9.908 0 006.864 2.747 14.641 14.641 0 008.186-2.914l3.613 3.675c-1.562 2.1-5.332 8.3-1.085 14.812 2.152 3.303 2.161 8.251.022 12.607z"/><path d="M32.722 24.154a.839.839 0 00-1.444 0l-2.583 5.233-5.775.839a.8.8 0 00-.446 1.374l4.179 4.074-.987 5.753a.806.806 0 001.169.849L32 39.559l5.165 2.716a.806.806 0 001.169-.849l-.987-5.753 4.18-4.073a.8.8 0 00-.446-1.373l-5.775-.839zm3.2 10.662a.806.806 0 00-.232.713l.783 4.561-4.1-2.154a.809.809 0 00-.75 0l-4.1 2.154.783-4.561a.806.806 0 00-.232-.713l-3.313-3.23 4.579-.665a.805.805 0 00.606-.44L32 26.33l2.048 4.15a.805.805 0 00.606.44l4.579.665z"/><path d="M32 19.294a14.25 14.25 0 1014.25 14.25A14.266 14.266 0 0032 19.294zm0 26.5a12.25 12.25 0 1112.25-12.25A12.264 12.264 0 0132 45.794z"/></svg>