<svg id="Layer_1" data-name="Layer 1" xmlns="http://www.w3.org/2000/svg" viewBox="0 0 64 64"><title>Artboard 10</title><path d="M45.361,7.375H18.639c-4.487,0-6.086,3.144-6.086,6.085V50.445c0,2.987,1.6,6.18,6.086,6.18H45.361a5.757,5.757,0,0,0,6.085-6.18V13.46C51.447,8.974,48.3,7.375,45.361,7.375ZM42.743,16.31V47.69H39.427V16.31ZM37.427,47.69H32.769V16.31h4.658Zm-6.658,0h-4.2V39.981h.849a1,1,0,0,0,1-1V25.019a1,1,0,0,0-1-1h-.849V16.31h4.2Zm-9.512-7.709h3.316V47.69H21.257Zm3.316-15.963H21.257V16.31h3.316Zm1.849,2V37.981H14.553V26.019ZM49.447,50.445c0,3.772-2.857,4.18-4.085,4.18H18.639c-3.555,0-4.086-2.619-4.086-4.18V39.981h4.7V48.69a1,1,0,0,0,1,1H43.743a1,1,0,0,0,1-1V15.31a1,1,0,0,0-1-1H20.257a1,1,0,0,0-1,1v8.709h-4.7V13.46c0-1.525.531-4.085,4.086-4.085H45.361c1.526,0,4.085.53,4.085,4.085Z"/><path d="M19.488,33.064V35.4a1,1,0,1,0,2,0V33.064a2.826,2.826,0,1,0-2,0Zm1-3.462a.827.827,0,1,1-.826.826A.827.827,0,0,1,20.488,29.6Z"/></svg>