<svg xmlns="http://www.w3.org/2000/svg" data-name="Layer 1" viewBox="0 0 64 64"><path d="M46.687 8.031H17.312a2 2 0 0 0-2 2v38.625a2 2 0 0 0 2 2h3.112v4.313a1 1 0 0 0 1.758.652l2.2-2.557 2.2 2.557a1 1 0 0 0 1.758-.652v-4.313h18.347a2 2 0 0 0 2-2V10.031a2 2 0 0 0-2-2zm-22.3 38.792a3.667 3.667 0 1 1 3.667-3.667 3.67 3.67 0 0 1-3.67 3.667zm1.959 5.451-1.2-1.4a1.033 1.033 0 0 0-1.516 0l-1.2 1.4v-3.807a5.562 5.562 0 0 0 3.918 0zm20.345-3.618H28.343V47.2a5.667 5.667 0 1 0-7.918 0v1.453h-3.113V10.031h29.375z"/><path d="M23.312 17.906h17.375a1 1 0 0 0 0-2H23.312a1 1 0 0 0 0 2zM23.312 23.656h17.375a1 1 0 0 0 0-2H23.312a1 1 0 0 0 0 2zM23.312 29.406h17.375a1 1 0 0 0 0-2H23.312a1 1 0 0 0 0 2zM23.312 35.156h17.375a1 1 0 0 0 0-2H23.312a1 1 0 0 0 0 2zM40.687 38.906H32.75a1 1 0 0 0 0 2h7.937a1 1 0 0 0 0-2z"/></svg>