<svg xmlns="http://www.w3.org/2000/svg" data-name="Layer 1" viewBox="0 0 64 64"><path d="M53.18 21.975L32.513 9.641a1 1 0 00-1.025 0L10.82 21.975a1 1 0 00-.487.859v3a1 1 0 001 1h41.334a1 1 0 001-1v-3a1 1 0 00-.487-.859zm-1.513 2.859H12.333V23.4L32 11.665 51.667 23.4zM19.208 47.5a1 1 0 001-1V29.584a1 1 0 00-1-1h-4.916a1 1 0 00-1 1V46.5a1 1 0 001 1zm-3.916-16.916h2.916V45.5h-2.916zM34.458 47.5a1 1 0 001-1V29.584a1 1 0 00-1-1h-4.916a1 1 0 00-1 1V46.5a1 1 0 001 1zm-3.916-16.916h2.916V45.5h-2.916zM49.708 47.5a1 1 0 001-1V29.584a1 1 0 00-1-1h-4.916a1 1 0 00-1 1V46.5a1 1 0 001 1zm-3.916-16.916h2.916V45.5h-2.916z"/><path d="M27.917 19.584A4.083 4.083 0 1032 15.5a4.088 4.088 0 00-4.083 4.084zm6.166 0A2.083 2.083 0 1132 17.5a2.086 2.086 0 012.083 2.084zM12.667 50.167a1 1 0 001 1h36.666a1 1 0 000-2H13.667a1 1 0 00-1 1zM52.667 52.5H11.333a1 1 0 100 2h41.334a1 1 0 000-2z"/></svg>