<svg id="Layer_1" data-name="Layer 1" xmlns="http://www.w3.org/2000/svg" viewBox="0 0 64 64"><title>Artboard 12</title><path d="M28.7,9.709H13.488a2.142,2.142,0,0,0-2.141,2.141v40.3a2.142,2.142,0,0,0,2.141,2.141H28.7a2.142,2.142,0,0,0,2.141-2.141V11.85A2.142,2.142,0,0,0,28.7,9.709Zm.141,42.441a.138.138,0,0,1-.141.141H13.488a.138.138,0,0,1-.141-.141V11.85a.138.138,0,0,1,.141-.141H28.7a.138.138,0,0,1,.141.141Z"/><path d="M21.093,14.746a5.23,5.23,0,1,0,5.229,5.231A5.237,5.237,0,0,0,21.093,14.746Zm0,8.461a3.23,3.23,0,1,1,3.229-3.23A3.234,3.234,0,0,1,21.093,23.207Z"/><path d="M25.322,31.477h-8.46a1,1,0,0,0,0,2h8.46a1,1,0,0,0,0-2Z"/><path d="M25.322,36.895h-8.46a1,1,0,0,0,0,2h8.46a1,1,0,0,0,0-2Z"/><path d="M25.322,42.313h-8.46a1,1,0,0,0,0,2h8.46a1,1,0,0,0,0-2Z"/><path d="M50.512,9.709H35.3a2.142,2.142,0,0,0-2.141,2.141v40.3A2.142,2.142,0,0,0,35.3,54.291H50.512a2.142,2.142,0,0,0,2.141-2.141V11.85A2.142,2.142,0,0,0,50.512,9.709Zm.141,42.441a.138.138,0,0,1-.141.141H35.3a.138.138,0,0,1-.141-.141V11.85a.138.138,0,0,1,.141-.141H50.512a.138.138,0,0,1,.141.141Z"/><path d="M42.907,14.746a5.23,5.23,0,1,0,5.229,5.231A5.237,5.237,0,0,0,42.907,14.746Zm0,8.461a3.23,3.23,0,1,1,3.229-3.23A3.234,3.234,0,0,1,42.907,23.207Z"/><path d="M47.137,31.477h-8.46a1,1,0,0,0,0,2h8.46a1,1,0,0,0,0-2Z"/><path d="M47.137,36.895h-8.46a1,1,0,0,0,0,2h8.46a1,1,0,0,0,0-2Z"/><path d="M47.137,42.313h-8.46a1,1,0,0,0,0,2h8.46a1,1,0,0,0,0-2Z"/></svg>