<svg xmlns="http://www.w3.org/2000/svg" data-name="Layer 1" viewBox="0 0 128 128"><path d="M104.09 14.464a1.812 1.812 0 0 0-2.447.759c-.027.051-9.174 17.842-37.317 20.94a35.767 35.767 0 0 0-10.643 2.808 29.557 29.557 0 0 0-14.194 13.018A30.55 30.55 0 0 0 36.041 69.8a29.918 29.918 0 0 0 4.375 12.615c-4.988 3.592-20.863 16-22.29 29.322a1.811 1.811 0 0 0 3.6.383C23 100.225 37.877 88.7 42.524 85.363c5.573 6.838 13.915 10.7 22.86 11.33A38.647 38.647 0 0 0 83 93.74a40.39 40.39 0 0 0 15.51-11.585c10.733-12.979 15.842-34.851 6.486-66.571a1.805 1.805 0 0 0-.906-1.12zM43.559 80.626a25.976 25.976 0 0 1-1.818-3.4 26.4 26.4 0 0 1-2.1-7.823A26.924 26.924 0 0 1 42.68 53.7a25.95 25.95 0 0 1 12.464-11.424 32.2 32.2 0 0 1 9.579-2.51C83.307 37.72 94.233 29.5 99.877 23.5a76.676 76.676 0 0 1-16.7 29.371l-1.1-11.078a1.81 1.81 0 1 0-3.6.355l1.411 14.236c-8.419 8.528-20.107 17.098-36.329 24.242zm52.152-.783a36.768 36.768 0 0 1-14.12 10.549 35.039 35.039 0 0 1-15.966 2.684 28.607 28.607 0 0 1-19.852-9.47 136.283 136.283 0 0 0 17.218-9.171L78.884 77.4a1.81 1.81 0 0 0 .653-3.56l-12.208-2.279a105.552 105.552 0 0 0 15.622-13.175 1.833 1.833 0 0 0 .236-.245c12.669-13.149 18.039-26.191 20.284-34.151 6.175 26.37 1.452 44.71-7.76 55.853z"/></svg>