<svg id="Layer_1" data-name="Layer 1" xmlns="http://www.w3.org/2000/svg" viewBox="0 0 128 128"><title>Umbrella</title><path d="M72.635,56.851a12.173,12.173,0,0,1,3.577,8.635h0a1.811,1.811,0,0,0,3.62.1l.005-.1h0v-.041q.03-.548.052-1.094a12.213,12.213,0,0,1,24.373,1.136,1.816,1.816,0,0,0,1.816,1.816h.083a1.816,1.816,0,0,0,1.816-1.816,44,44,0,0,0-35.71-43.206,8.271,8.271,0,0,0-14.118-5.605l-.007.007a8.244,8.244,0,0,0-2.421,5.6,44,44,0,0,0-35.71,43.206A1.816,1.816,0,0,0,21.833,67.3h.083a1.816,1.816,0,0,0,1.816-1.816A12.213,12.213,0,0,1,48.1,64.351q.022.547.052,1.094v.041h0l.005.1a1.811,1.811,0,0,0,3.62-.1h0a12.224,12.224,0,0,1,7.228-11.152v48.729a10.675,10.675,0,0,0,14.764,9.872,10.764,10.764,0,0,0,5.794-5.794,10.617,10.617,0,0,0,.814-4.078,4.983,4.983,0,0,0-9.967,0,.711.711,0,0,1-1,.669.814.814,0,0,1-.387-.387.742.742,0,0,1-.05-.282V54.334A12.221,12.221,0,0,1,72.635,56.851Zm19.9-19.9a40.33,40.33,0,0,1,10.054,16.7,15.849,15.849,0,0,0-22.842,1.863,58.809,58.809,0,0,0-2.425-12.856,52.716,52.716,0,0,0-9.2-17.312A40.225,40.225,0,0,1,92.533,36.953ZM60.712,19.239a4.649,4.649,0,0,1,7.867,2.5,44.6,44.6,0,0,0-9.157,0A4.634,4.634,0,0,1,60.712,19.239ZM50.681,42.657a58.783,58.783,0,0,0-2.426,12.856A15.843,15.843,0,0,0,25.413,53.65,40.393,40.393,0,0,1,59.88,25.343,52.718,52.718,0,0,0,50.681,42.657ZM69.7,107.414a4.359,4.359,0,0,0,4.35-4.35,1.357,1.357,0,0,1,2.312-.96l0,0a1.348,1.348,0,0,1,.4.956,7,7,0,0,1-.53,2.688,7.157,7.157,0,0,1-3.837,3.837,7.039,7.039,0,0,1-9.742-6.524V53.348a12.371,12.371,0,0,1,2.7,0v49.715a4.367,4.367,0,0,0,4.35,4.35ZM64,49.643a15.794,15.794,0,0,0-11.2,4.641q-.461.461-.884.959a54.949,54.949,0,0,1,2.227-11.507A49.453,49.453,0,0,1,64,26.046a49.463,49.463,0,0,1,9.859,17.689,54.939,54.939,0,0,1,2.227,11.507q-.422-.5-.884-.959A15.794,15.794,0,0,0,64,49.643Z"/></svg>