<svg id="Layer_1" data-name="Layer 1" xmlns="http://www.w3.org/2000/svg" viewBox="0 0 128 128"><title>Bee</title><path d="M104.964,49.244C91.518,30.041,59.611,35.121,55.77,35.811h0A18.33,18.33,0,0,0,42.833,37a11.461,11.461,0,0,1-.441-10.157,6.273,6.273,0,1,0-3.458-1.078,15.457,15.457,0,0,0-1.028,7.53,15.469,15.469,0,0,0-7.424-1.609,6.272,6.272,0,1,0-.17,3.613,11.454,11.454,0,0,1,9.393,3.891A18.4,18.4,0,0,0,34.141,51.1c-2.687,4.724-17.216,32.049-4.184,50.66,5.185,7.4,11.382,10.406,16.813,10.349a13.511,13.511,0,0,0,11.672-6.775,16.3,16.3,0,0,0,1.367-12.426c4.968,2.189,9.951,2.88,14.311,1.812l14.761,17.727a3.412,3.412,0,0,0,3.383,1.216,3.956,3.956,0,0,0,2.577-1.81,3.4,3.4,0,0,0,.014-3.582L83.345,88.5c-.154-.264-.035-.269.141-.548,2.322-3.685,3.3-8.454,2.955-13.685a16.283,16.283,0,0,0,12.132,2.963,13.5,13.5,0,0,0,10.364-8.648C110.849,63.5,110.148,56.649,104.964,49.244ZM27,33.677a2.647,2.647,0,1,1-.436-2A2.649,2.649,0,0,1,27,33.677Zm12.83-13.585a2.646,2.646,0,1,1,.436,2A2.652,2.652,0,0,1,39.833,20.092Zm3.44,20.871c4.032-2.823,9.566-2.795,15.256-.468a30.63,30.63,0,0,1,4.211,2.129v0A32.636,32.636,0,0,0,40.886,55.5c-.412.556-2,2.988-2.748,4.09a30.642,30.642,0,0,1-.516-4.46C37.381,48.992,39.247,43.783,43.273,40.963ZM64.847,51.907A32.525,32.525,0,0,0,42.639,71.692v0A43.312,43.312,0,0,1,39.7,65.279a31.593,31.593,0,0,1,4.091-7.62,29,29,0,0,1,14.99-10.5,31.994,31.994,0,0,1,8.65-1.17,43.327,43.327,0,0,1,4.939,4.886A32.631,32.631,0,0,0,64.847,51.907Zm10.4,2.659.057.08A46.691,46.691,0,0,1,78.232,59.4h-.005A32.544,32.544,0,0,0,48.65,80.116a.152.152,0,0,0-.023-.02h0a46.274,46.274,0,0,1-3.445-4.352l-.073-.106.026.033a29.114,29.114,0,0,1,4.035-8.648A28.985,28.985,0,0,1,65.755,55.41,31.309,31.309,0,0,1,75.248,54.566ZM55.307,103.518a9.933,9.933,0,0,1-3.57,3.613,10.038,10.038,0,0,1-5,1.361c-4.347.046-9.413-2.508-13.821-8.8-9.1-13-2.946-31.434,1.4-41.029a45.19,45.19,0,0,0,7.9,19.155,46.523,46.523,0,0,0,12.8,12.505l-.005,0C57.5,95.521,57.224,100.207,55.307,103.518Zm.3-17.15A39.753,39.753,0,0,1,51.47,83a28.895,28.895,0,0,1,28.5-19.959,39.791,39.791,0,0,1,1.75,5.049A32.508,32.508,0,0,0,55.612,86.368Zm8.426,4.271a26.2,26.2,0,0,1-2.693-1.008q-1.315-.575-2.645-1.319A28.885,28.885,0,0,1,82.491,71.65q.094.581.165,1.156a27.533,27.533,0,0,1,.2,4.66A32.588,32.588,0,0,0,64.038,90.639Zm27.656,19.4-.028.022a.247.247,0,0,1-.046.024L76.142,91.5a1.808,1.808,0,0,0-1.955-.562l0-.006a14.669,14.669,0,0,1-6.284.547,28.478,28.478,0,0,1,2.011-2.365,29.044,29.044,0,0,1,9.5-6.651c.764-.332,1.956-.756,2.9-1.069A14.638,14.638,0,0,1,79.657,87.1a1.815,1.815,0,0,0-.092,2.114Zm13.852-42.73a10.043,10.043,0,0,1-2.989,4.231,9.923,9.923,0,0,1-4.609,2.119c-3.771.67-8.27-.675-12.3-4.79a46.557,46.557,0,0,0-7.378-16.295A45.152,45.152,0,0,0,62.9,38.563h.012C73.282,37.71,92.75,38.106,102,51.315,106.408,57.611,107.076,63.244,105.547,67.31Z"/></svg>