<svg xmlns="http://www.w3.org/2000/svg" data-name="Layer 1" viewBox="0 0 128 128"><path d="M64 61.307a14.224 14.224 0 10-10.056-4.166A14.177 14.177 0 0064 61.307zM56.511 39.6a10.591 10.591 0 11-3.1 7.489 10.557 10.557 0 013.1-7.489z"/><path d="M35.508 54.718a8.891 8.891 0 00.063 8.782 8.874 8.874 0 007.568 4.443 8.889 8.889 0 0013.223 7.635 8.941 8.941 0 005.46 4.07 25.955 25.955 0 00-.3 3.3 22.206 22.206 0 00-7.3-3.952 20.815 20.815 0 00-10.167-.896c-3.256.631-5.69 2.3-6.528 4.851s.136 5.327 2.382 7.762a20.844 20.844 0 008.735 5.314 20.816 20.816 0 0010.169.895 9.721 9.721 0 004.906-2.322c2.672 6.341 8.333 13.356 19.837 18.963a1.814 1.814 0 101.589-3.262 46.176 46.176 0 01-10.363-6.739A20.5 20.5 0 0081.4 102.5h.013a18.858 18.858 0 007.887-4.811c2.058-2.232 2.946-4.788 2.174-7.139s-3.007-3.895-5.992-4.473A20.311 20.311 0 0068.377 91.7a11.216 11.216 0 00-1.256 1.629A23.659 23.659 0 0165.463 79.8a8.931 8.931 0 006.171-4.22 8.943 8.943 0 003.1 1.043 8.887 8.887 0 0010.119-8.678 8.889 8.889 0 007.635-13.223 8.943 8.943 0 002.451-2.165 8.863 8.863 0 000-10.939 8.946 8.946 0 00-2.452-2.164 8.891 8.891 0 00-.064-8.782 8.876 8.876 0 00-7.568-4.443 8.889 8.889 0 00-13.223-7.636 8.948 8.948 0 00-2.162-2.453 8.864 8.864 0 00-10.939 0 8.944 8.944 0 00-2.165 2.452 8.94 8.94 0 00-3.1-1.043 8.888 8.888 0 00-10.119 8.678 8.875 8.875 0 00-7.5 4.334q-.035.052-.067.107a8.889 8.889 0 00-.064 8.782 8.946 8.946 0 00-2.451 2.164 8.863 8.863 0 000 10.939 8.946 8.946 0 002.443 2.165zM71.044 94.15A16.741 16.741 0 0184.8 89.637c1.688.327 2.9 1.031 3.226 2.034s-.226 2.3-1.394 3.564a15.171 15.171 0 01-6.359 3.819 15.208 15.208 0 01-7.4.694c-1.687-.327-2.9-1.031-3.226-2.034s.228-2.297 1.397-3.564zm-9.15-3.2c-.393 1.2-1.8 2.032-3.762 2.412a17.191 17.191 0 01-8.368-.781 17.154 17.154 0 01-7.189-4.321c-1.356-1.47-2-2.983-1.6-4.187s1.8-2.032 3.762-2.412a17.191 17.191 0 018.367.781 17.155 17.155 0 017.189 4.321c1.355 1.466 1.996 2.979 1.601 4.183zm-25.987-47.1a5.267 5.267 0 012.88-1.87 1.811 1.811 0 00.794-3.092 5.271 5.271 0 01-.876-6.4c.017-.029.032-.058.047-.087a5.235 5.235 0 012.535-2.163 5.29 5.29 0 013.442-.185 1.807 1.807 0 002.233-2.238 5.291 5.291 0 01.186-3.438 5.27 5.27 0 018.676-1.677 1.811 1.811 0 003.063-.823 5.268 5.268 0 0110.225 0 1.811 1.811 0 003.092.794 5.273 5.273 0 018.831 5.149 1.807 1.807 0 002.238 2.233 5.289 5.289 0 013.438.186 5.235 5.235 0 012.583 2.243v.005a5.271 5.271 0 01-.906 6.424 1.811 1.811 0 00.823 3.063 5.268 5.268 0 010 10.225 1.811 1.811 0 00-.794 3.092 5.273 5.273 0 01-5.147 8.829 1.807 1.807 0 00-2.233 2.238 5.291 5.291 0 01-.186 3.438 5.27 5.27 0 01-8.675 1.677 1.811 1.811 0 00-3.063.823 5.268 5.268 0 01-10.225 0A1.811 1.811 0 0055.8 71.5a5.274 5.274 0 01-8.831-5.149 1.807 1.807 0 00-2.238-2.233 5.29 5.29 0 01-3.438-.186 5.233 5.233 0 01-2.583-2.243v-.005a5.271 5.271 0 01.905-6.424 1.811 1.811 0 00-.823-3.063 5.279 5.279 0 01-2.881-8.355z"/></svg>