<svg id="Layer_1" data-name="Layer 1" xmlns="http://www.w3.org/2000/svg" viewBox="0 0 128 128"><title>Flower</title><path d="M64,61.307a14.224,14.224,0,1,0-10.056-4.166A14.177,14.177,0,0,0,64,61.307ZM56.511,39.6a10.591,10.591,0,1,1-3.1,7.489A10.557,10.557,0,0,1,56.511,39.6Z"/><path d="M35.508,54.718a8.891,8.891,0,0,0,.063,8.782l0,0a8.874,8.874,0,0,0,7.568,4.443,8.889,8.889,0,0,0,13.223,7.635,8.941,8.941,0,0,0,5.46,4.07,25.955,25.955,0,0,0-.3,3.3,22.206,22.206,0,0,0-7.3-3.952A20.815,20.815,0,0,0,44.055,78.1c-3.256.631-5.69,2.3-6.528,4.851s.136,5.327,2.382,7.762a20.844,20.844,0,0,0,8.735,5.314,20.816,20.816,0,0,0,10.169.895A9.721,9.721,0,0,0,63.719,94.6c2.672,6.341,8.333,13.356,19.837,18.963a1.814,1.814,0,1,0,1.589-3.262,46.176,46.176,0,0,1-10.363-6.739A20.5,20.5,0,0,0,81.4,102.5l.013,0A18.858,18.858,0,0,0,89.3,97.689c2.058-2.232,2.946-4.788,2.174-7.139s-3.007-3.895-5.992-4.473A20.311,20.311,0,0,0,68.377,91.7a11.216,11.216,0,0,0-1.256,1.629A23.659,23.659,0,0,1,65.463,79.8a8.931,8.931,0,0,0,6.171-4.22,8.943,8.943,0,0,0,3.1,1.043,8.887,8.887,0,0,0,10.119-8.678,8.889,8.889,0,0,0,7.635-13.223,8.943,8.943,0,0,0,2.451-2.165,8.863,8.863,0,0,0,0-10.939,8.946,8.946,0,0,0-2.452-2.164,8.891,8.891,0,0,0-.064-8.782l0,0a8.876,8.876,0,0,0-7.568-4.443,8.889,8.889,0,0,0-13.223-7.636A8.948,8.948,0,0,0,69.47,16.14a8.864,8.864,0,0,0-10.939,0,8.944,8.944,0,0,0-2.165,2.452,8.94,8.94,0,0,0-3.1-1.043,8.888,8.888,0,0,0-10.119,8.678,8.875,8.875,0,0,0-7.5,4.334q-.035.052-.067.107a8.889,8.889,0,0,0-.064,8.782,8.946,8.946,0,0,0-2.451,2.164,8.863,8.863,0,0,0,0,10.939A8.946,8.946,0,0,0,35.508,54.718ZM71.044,94.15A16.741,16.741,0,0,1,84.8,89.637c1.688.327,2.9,1.031,3.226,2.034s-.226,2.3-1.394,3.564a15.171,15.171,0,0,1-6.359,3.819h0a15.208,15.208,0,0,1-7.4.694c-1.687-.327-2.9-1.031-3.226-2.034S69.875,95.417,71.044,94.15Zm-9.15-3.2c-.393,1.2-1.8,2.032-3.762,2.412a17.191,17.191,0,0,1-8.368-.781,17.154,17.154,0,0,1-7.189-4.321c-1.356-1.47-2-2.983-1.6-4.187s1.8-2.032,3.762-2.412a17.191,17.191,0,0,1,8.367.781,17.155,17.155,0,0,1,7.189,4.321C61.648,88.229,62.289,89.742,61.894,90.946Zm-25.987-47.1a5.267,5.267,0,0,1,2.88-1.87,1.811,1.811,0,0,0,.794-3.092,5.271,5.271,0,0,1-.876-6.4c.017-.029.032-.058.047-.087a5.235,5.235,0,0,1,2.535-2.163,5.29,5.29,0,0,1,3.442-.185,1.807,1.807,0,0,0,2.233-2.238,5.291,5.291,0,0,1,.186-3.438A5.27,5.27,0,0,1,55.824,22.7a1.811,1.811,0,0,0,3.063-.823h0a5.268,5.268,0,0,1,10.225,0,1.811,1.811,0,0,0,3.092.794,5.273,5.273,0,0,1,8.831,5.149,1.807,1.807,0,0,0,2.238,2.233,5.289,5.289,0,0,1,3.438.186,5.235,5.235,0,0,1,2.583,2.243l0,.005,0,0a5.271,5.271,0,0,1-.906,6.424,1.811,1.811,0,0,0,.823,3.063h0a5.268,5.268,0,0,1,0,10.225,1.811,1.811,0,0,0-.794,3.092A5.273,5.273,0,0,1,83.27,64.12a1.807,1.807,0,0,0-2.233,2.238,5.291,5.291,0,0,1-.186,3.438,5.27,5.27,0,0,1-8.675,1.677,1.811,1.811,0,0,0-3.063.823h0a5.268,5.268,0,0,1-10.225,0A1.811,1.811,0,0,0,55.8,71.5a5.274,5.274,0,0,1-8.831-5.149,1.807,1.807,0,0,0-2.238-2.233,5.29,5.29,0,0,1-3.438-.186,5.233,5.233,0,0,1-2.583-2.243l0-.005,0,0a5.271,5.271,0,0,1,.905-6.424,1.811,1.811,0,0,0-.823-3.063h0a5.279,5.279,0,0,1-2.881-8.355Z"/></svg>