<svg id="Layer_1" data-name="Layer 1" xmlns="http://www.w3.org/2000/svg" viewBox="0 0 128 128"><title>Egg</title><path d="M38.136,73.429l-2.118,9.161a1.813,1.813,0,0,0,2.035,2.2v0l9.3-1.407L55.4,88.221a1.811,1.811,0,0,0,2.716-1.263h0l1.532-9.263,7.087-6.158a1.811,1.811,0,0,0-.355-2.978h0l-8.34-4.322L54.374,55.6a1.809,1.809,0,0,0-2.935-.587h0L44.754,61.6l-9.362.817a1.816,1.816,0,0,0-1.385,2.768Zm7.575-8.268v0a1.8,1.8,0,0,0,1.114-.513l5.258-5.186,2.846,6.708a1.805,1.805,0,0,0,.872.99L62.35,70.55,56.814,75.36a1.8,1.8,0,0,0-.636,1.107l-1.2,7.277L48.752,80a1.809,1.809,0,0,0-1.3-.3l-7.3,1.1,1.662-7.19h0a1.8,1.8,0,0,0-.145-1.212l-3.3-6.6Z"/><path d="M28.722,72.315a37.712,37.712,0,0,0,2.234,16.591C35.167,99.447,45.237,106.882,64,106.882s28.833-7.435,33.044-17.976a37.716,37.716,0,0,0,2.234-16.591A64.824,64.824,0,0,0,95.33,54.676C88.757,36.783,75.245,21.118,64,21.118S39.243,36.783,32.67,54.676A64.8,64.8,0,0,0,28.722,72.315ZM92.5,90.072a20.725,20.725,0,0,1-3.615,4.915l-1.18-.75a1.807,1.807,0,0,0-1.338-.245l-6.078.767,1.563-6.073a1.8,1.8,0,0,0-.114-1.212h0L79.072,81.8l6.247-.39A1.8,1.8,0,0,0,86.48,80.9l4.534-4.257,2.3,5.822a1.809,1.809,0,0,0,.89.963l.658.362A25.718,25.718,0,0,1,92.5,90.072ZM64,24.749c4.741,0,10.03,3.441,14.915,8.887l0,0-3.737-.326-4.45-4.389h0a1.809,1.809,0,0,0-2.935.587L65.35,35.26,59.8,38.138h0a1.811,1.811,0,0,0-.355,2.978l4.719,4.1,1.02,6.168h0A1.811,1.811,0,0,0,67.9,52.646l5.359-3.222,6.193.938v0a1.813,1.813,0,0,0,2.035-2.2l-1.411-6.1,2.166-4.324a74.449,74.449,0,0,1,9.687,18.189,61.183,61.183,0,0,1,3.736,16.631,42.192,42.192,0,0,1,.006,5.982l-2.258-5.711h0a1.812,1.812,0,0,0-2.926-.654l-6.032,5.663-8.254.515v0a1.81,1.81,0,0,0-1.532,2.572l3.526,7.5L76.14,96.38a1.809,1.809,0,0,0,1.963,2.3l7.518-.949c-4.982,3.452-12.032,5.518-21.621,5.518-16.991,0-26.009-6.484-29.682-15.678a34.2,34.2,0,0,1-1.978-15.017,61.153,61.153,0,0,1,3.735-16.631C42.181,39.3,54.251,24.749,64,24.749ZM76.4,42.241h0l.955,4.133-4.194-.635a1.809,1.809,0,0,0-1.3.3l-3.533,2.124-.691-4.181a1.8,1.8,0,0,0-.636-1.107L63.825,40.13l3.764-1.95a1.8,1.8,0,0,0,.872-.99l1.62-3.82L73.1,36.352a1.8,1.8,0,0,0,1.114.513v0l4.226.368-1.9,3.791A1.8,1.8,0,0,0,76.4,42.241Z"/></svg>