<svg id="Layer_1" data-name="Layer 1" xmlns="http://www.w3.org/2000/svg" viewBox="0 0 128 128"><title>Sun</title><path d="M97.575,46.707l8.844-5.106a1.811,1.811,0,0,0-1.816-3.135l-8.844,5.106a1.811,1.811,0,0,0,1.816,3.135Z"/><path d="M95.759,84.428l8.844,5.106a1.811,1.811,0,0,0,1.816-3.135l-8.844-5.106a1.811,1.811,0,0,0-1.816,3.135Z"/><path d="M65.816,111.933V101.721a1.816,1.816,0,1,0-3.631,0v10.212a1.816,1.816,0,1,0,3.631,0Z"/><path d="M21.581,41.6l8.844,5.106a1.811,1.811,0,0,0,1.816-3.135L23.4,38.466A1.811,1.811,0,0,0,21.581,41.6Z"/><path d="M64,28.094a1.816,1.816,0,0,0,1.816-1.816V16.067a1.816,1.816,0,1,0-3.631,0V26.279A1.816,1.816,0,0,0,64,28.094Z"/><path d="M43.572,32.241a1.811,1.811,0,0,0,3.135-1.816L41.6,21.581A1.811,1.811,0,1,0,38.466,23.4Z"/><path d="M49.668,65.816A1.816,1.816,0,0,0,51.484,64,12.515,12.515,0,0,1,64,51.484a1.816,1.816,0,1,0,0-3.632A16.148,16.148,0,0,0,47.852,64,1.816,1.816,0,0,0,49.668,65.816Z"/><path d="M111.933,62.184H101.721a1.816,1.816,0,1,0,0,3.632h10.212a1.816,1.816,0,0,0,0-3.632Z"/><path d="M16.067,65.816H26.279a1.816,1.816,0,1,0,0-3.632H16.067a1.816,1.816,0,0,0,0,3.632Z"/><path d="M64,90.707a26.707,26.707,0,1,0-18.884-7.822A26.625,26.625,0,0,0,64,90.707ZM47.683,47.683A23.078,23.078,0,1,1,40.925,64,23,23,0,0,1,47.683,47.683Z"/><path d="M88.874,107.079a1.812,1.812,0,0,0,.659-2.475l-5.106-8.844a1.811,1.811,0,1,0-3.135,1.816l5.106,8.844A1.812,1.812,0,0,0,88.874,107.079Z"/><path d="M81.952,32.9a1.812,1.812,0,0,0,2.475-.659L89.534,23.4A1.811,1.811,0,1,0,86.4,21.581l-5.106,8.844A1.812,1.812,0,0,0,81.952,32.9Z"/><path d="M41.6,106.419l5.106-8.844a1.811,1.811,0,0,0-3.135-1.816L38.466,104.6a1.811,1.811,0,1,0,3.135,1.816Z"/><path d="M30.425,81.293,21.581,86.4A1.811,1.811,0,1,0,23.4,89.534l8.844-5.106a1.811,1.811,0,0,0-1.816-3.135Z"/></svg>