<svg xmlns="http://www.w3.org/2000/svg" data-name="Layer 1" viewBox="0 0 128 128"><path d="M61.2 23.875c.029.032.055.071.084.1.07.08.141.153.21.236q-.15-.169-.294-.336zM66.1 31.734c.134.323.274.652 0 0z"/><path d="M90.511 52.37a24.366 24.366 0 0 0 6.373-7.011 1.782 1.782 0 0 0 .171-.277 24.068 24.068 0 0 0 3.446-9.12c.407-3.22-.351-5.836-2.371-7.083s-4.7-.753-7.4 1.054c-.1.064-.19.13-.286.2a14.232 14.232 0 0 0-1.672-3.467 5.792 5.792 0 0 0-4.691-2.905 5.1 5.1 0 0 0-3.574 1.569c0-.117.009-.232.01-.346.037-2.537-.768-4.554-2.478-5.609-2.021-1.247-4.7-.753-7.4 1.054-.1.064-.19.13-.286.2a14.228 14.228 0 0 0-1.672-3.466A5.792 5.792 0 0 0 64 14.251a5.791 5.791 0 0 0-4.691 2.905 14.23 14.23 0 0 0-1.672 3.466l-.286-.2c-2.7-1.807-5.374-2.3-7.4-1.054-1.709 1.055-2.514 3.073-2.478 5.609 0 .114.005.23.01.346a5.1 5.1 0 0 0-3.574-1.569 5.791 5.791 0 0 0-4.691 2.905 14.221 14.221 0 0 0-1.672 3.467l-.286-.2c-2.7-1.807-5.374-2.3-7.4-1.054s-2.778 3.862-2.371 7.083a24.066 24.066 0 0 0 3.446 9.12 1.79 1.79 0 0 0 .172.279 24.064 24.064 0 0 0 6.609 7.173 9.537 9.537 0 0 0 4.384 1.73v7.927h-4.738a6.829 6.829 0 0 0-4.826 2.006 6.83 6.83 0 0 0-2.01 4.83 6.829 6.829 0 0 0 2.006 4.826 6.885 6.885 0 0 0 3.014 1.763v18.46a19.712 19.712 0 0 0 19.654 19.68h17.6a19.712 19.712 0 0 0 19.654-19.658v-18.46a6.888 6.888 0 0 0 3.01-1.759 6.83 6.83 0 0 0 2.01-4.83 6.829 6.829 0 0 0-2.006-4.825 6.83 6.83 0 0 0-4.83-2.01H85.9v-7.95a9.8 9.8 0 0 0 4.611-1.887zm2.238-19.43c1.5-1.007 2.782-1.414 3.48-.983s.91 1.758.684 3.551a20.51 20.51 0 0 1-3.019 7.809v.006a20.824 20.824 0 0 1-5.451 6.083c-.285.2-.562.376-.83.531h-.006a10.939 10.939 0 0 0 .059-3.435 20.929 20.929 0 0 0-1.581-5.517q.141-.274.3-.568c.246-.456.492-.882.735-1.276a20.506 20.506 0 0 1 5.629-6.201zm-11.7 6.2v.005a20.51 20.51 0 0 1 3.019 7.809c.226 1.793.016 3.119-.684 3.551a1.8 1.8 0 0 0-.185.089c-.727.269-1.916-.15-3.294-1.073a20.5 20.5 0 0 1-5.631-6.2v-.006a20.507 20.507 0 0 1-3.019-7.809c-.226-1.793-.016-3.119.684-3.551s1.978-.024 3.48.983a20.506 20.506 0 0 1 5.634 6.207zm-11.025 3.99c.331.649.693 1.3 1.088 1.947a1.8 1.8 0 0 0 .172.279 24.066 24.066 0 0 0 6.616 7.178 9.538 9.538 0 0 0 4.373 1.723v7.927H65.816V44.756a7.313 7.313 0 0 0 1.78-.4 11.466 11.466 0 0 0 2.432-1.224zm2.635-19.7c1.5-1.007 2.782-1.414 3.48-.983.533.329.779 1.234.761 2.489a13.7 13.7 0 0 1-.84 4.186c-2.217-1.119-4.348-1.283-6.025-.249-2.02 1.246-2.778 3.862-2.371 7.083a19.181 19.181 0 0 0 .933 3.847l-.031-.072a8.226 8.226 0 0 1-1.03.568A11.083 11.083 0 0 0 67.578 37 20.857 20.857 0 0 0 66 31.481q.141-.274.3-.568c.246-.456.492-.883.735-1.276a20.5 20.5 0 0 1 5.628-6.204zM62.3 19.2c.571-.832 1.161-1.316 1.7-1.316s1.128.484 1.7 1.316a12.446 12.446 0 0 1 1.659 4.067A28.012 28.012 0 0 0 64 27.66l-.044-.06a28.322 28.322 0 0 0-2.68-3.621c-.212-.243-.424-.486-.636-.713A12.447 12.447 0 0 1 62.3 19.2zm-10.443 3.25c.7-.431 1.978-.024 3.48.983a20.5 20.5 0 0 1 5.63 6.2v.005a20.51 20.51 0 0 1 3.019 7.809c.226 1.793.016 3.119-.684 3.551a1.8 1.8 0 0 0-.166.079 2.3 2.3 0 0 1-1.4-.1 8.263 8.263 0 0 1-2.306-1.246l-.033.077a19.239 19.239 0 0 0 .934-3.852c.407-3.22-.351-5.836-2.371-7.083-1.677-1.035-3.807-.87-6.025.249a13.7 13.7 0 0 1-.84-4.186c-.018-1.252.229-2.158.762-2.486zm8.786 21.994a7.085 7.085 0 0 0 1.542.315v17.425H45.73v-7.927a9.8 9.8 0 0 0 4.61-1.887 24.368 24.368 0 0 0 6.373-7.011 1.794 1.794 0 0 0 .171-.277c.394-.647.757-1.3 1.087-1.946a11.126 11.126 0 0 0 2.671 1.308zm-8.065-11.5c1.5-1.007 2.782-1.414 3.48-.983s.91 1.758.684 3.551a20.507 20.507 0 0 1-3.019 7.809v.006a20.825 20.825 0 0 1-5.451 6.083c-.285.2-.562.376-.83.531h-.005a10.937 10.937 0 0 0 .059-3.435 20.87 20.87 0 0 0-1.555-5.458l-.024-.06q.141-.274.3-.568c.246-.456.492-.882.735-1.276a20.506 20.506 0 0 1 5.626-6.204zm-10.362-4.239c.571-.831 1.161-1.316 1.7-1.316s1.128.484 1.7 1.316a12.449 12.449 0 0 1 1.659 4.067l-.084.093a27.955 27.955 0 0 0-3.27 4.3l-.044-.061a25.756 25.756 0 0 0-3.317-4.334 12.447 12.447 0 0 1 1.656-4.065zM39.74 49.527a20.507 20.507 0 0 1-5.631-6.2v-.006a20.51 20.51 0 0 1-3.019-7.809c-.227-1.793-.016-3.119.684-3.551s1.978-.024 3.48.983a20.507 20.507 0 0 1 5.631 6.2v.005a20.51 20.51 0 0 1 3.015 7.81c.226 1.793.016 3.119-.684 3.551a1.82 1.82 0 0 0-.185.089c-.724.27-1.913-.149-3.291-1.072zm49.083 44.564A16.078 16.078 0 0 1 72.8 110.117H55.2a16.078 16.078 0 0 1-16.023-16.026V75.878h49.646zm1.816-28.275a3.2 3.2 0 0 1 2.269.939l.007.007a3.2 3.2 0 0 1 .939 2.269 3.2 3.2 0 0 1-.939 2.269l-.007.007a3.2 3.2 0 0 1-2.269.939H37.362a3.2 3.2 0 0 1-2.269-.939l-.007-.007a3.2 3.2 0 0 1-.939-2.269 3.2 3.2 0 0 1 .939-2.269l.007-.007a3.2 3.2 0 0 1 2.269-.939h53.276zm-6.55-28.649-.044-.061c-2.3-3.679-3.182-4.19-3.316-4.334a12.449 12.449 0 0 1 1.659-4.067c.571-.831 1.161-1.316 1.7-1.316s1.128.484 1.7 1.316a12.45 12.45 0 0 1 1.659 4.067q-.543.573-1.074 1.219a28.649 28.649 0 0 0-2.284 3.176z"/></svg>