<svg id="Layer_1" data-name="Layer 1" xmlns="http://www.w3.org/2000/svg" viewBox="0 0 128 128"><title>Plants</title><path d="M61.2,23.875c.029.032.055.071.084.1.07.08.141.153.21.236Q61.344,24.042,61.2,23.875Z"/><path d="M66.1,31.734c.134.323.274.652,0,0Z"/><path d="M90.511,52.37a24.366,24.366,0,0,0,6.373-7.011,1.782,1.782,0,0,0,.171-.277,24.068,24.068,0,0,0,3.446-9.12c.407-3.22-.351-5.836-2.371-7.083s-4.7-.753-7.4,1.054c-.1.064-.19.13-.286.2a14.232,14.232,0,0,0-1.672-3.467,5.792,5.792,0,0,0-4.691-2.905,5.1,5.1,0,0,0-3.574,1.569c0-.117.009-.232.01-.346.037-2.537-.768-4.554-2.478-5.609-2.021-1.247-4.7-.753-7.4,1.054-.1.064-.19.13-.286.2a14.228,14.228,0,0,0-1.672-3.466A5.792,5.792,0,0,0,64,14.251a5.791,5.791,0,0,0-4.691,2.905,14.23,14.23,0,0,0-1.672,3.466q-.143-.1-.286-.2c-2.7-1.807-5.374-2.3-7.4-1.054-1.709,1.055-2.514,3.073-2.478,5.609,0,.114.005.23.01.346a5.1,5.1,0,0,0-3.574-1.569,5.791,5.791,0,0,0-4.691,2.905,14.221,14.221,0,0,0-1.672,3.467q-.143-.1-.286-.2c-2.7-1.807-5.374-2.3-7.4-1.054s-2.778,3.862-2.371,7.083a24.066,24.066,0,0,0,3.446,9.12,1.79,1.79,0,0,0,.172.279,24.064,24.064,0,0,0,6.609,7.173A9.537,9.537,0,0,0,42.1,54.257v7.927H37.362a6.829,6.829,0,0,0-4.826,2.006l0,0,0,0,0,0a6.83,6.83,0,0,0-2.01,4.83h0a6.829,6.829,0,0,0,2.006,4.826l0,0,0,0,0,0a6.885,6.885,0,0,0,3.014,1.763v18.46A19.712,19.712,0,0,0,55.2,113.749H72.8A19.712,19.712,0,0,0,92.454,94.091V75.631a6.888,6.888,0,0,0,3.01-1.759l0,0,0,0,0,0a6.83,6.83,0,0,0,2.01-4.83h0a6.829,6.829,0,0,0-2.006-4.825l0,0,0,0,0,0a6.83,6.83,0,0,0-4.83-2.01H85.9V54.257A9.8,9.8,0,0,0,90.511,52.37Zm2.238-19.43c1.5-1.007,2.782-1.414,3.48-.983s.91,1.758.684,3.551a20.51,20.51,0,0,1-3.019,7.809l0,.006a20.824,20.824,0,0,1-5.451,6.083c-.285.2-.562.376-.83.531l-.006,0a10.939,10.939,0,0,0,.059-3.435,20.929,20.929,0,0,0-1.581-5.517h0q.141-.274.3-.568c.246-.456.492-.882.735-1.276A20.506,20.506,0,0,1,92.749,32.94Zm-11.7,6.2,0,.005a20.51,20.51,0,0,1,3.019,7.809c.226,1.793.016,3.119-.684,3.551h0a1.8,1.8,0,0,0-.185.089c-.727.269-1.916-.15-3.294-1.073a20.5,20.5,0,0,1-5.631-6.2l0-.006a20.507,20.507,0,0,1-3.019-7.809c-.226-1.793-.016-3.119.684-3.551s1.978-.024,3.48.983A20.506,20.506,0,0,1,81.053,39.145Zm-11.025,3.99c.331.649.693,1.3,1.088,1.947a1.8,1.8,0,0,0,.172.279A24.066,24.066,0,0,0,77.9,52.534a9.538,9.538,0,0,0,4.373,1.723v7.927H65.816V44.756a7.313,7.313,0,0,0,1.78-.4,11.466,11.466,0,0,0,2.432-1.224Zm2.635-19.7c1.5-1.007,2.782-1.414,3.48-.983.533.329.779,1.234.761,2.489a13.7,13.7,0,0,1-.84,4.186v0c-2.217-1.119-4.348-1.283-6.025-.249-2.02,1.246-2.778,3.862-2.371,7.083a19.181,19.181,0,0,0,.933,3.847l-.031-.072a8.226,8.226,0,0,1-1.03.568A11.083,11.083,0,0,0,67.578,37,20.857,20.857,0,0,0,66,31.481q.141-.274.3-.568c.246-.456.492-.883.735-1.276A20.5,20.5,0,0,1,72.663,23.433ZM62.3,19.2c.571-.832,1.161-1.316,1.7-1.316s1.128.484,1.7,1.316a12.446,12.446,0,0,1,1.659,4.067A28.012,28.012,0,0,0,64,27.66l-.044-.06a28.322,28.322,0,0,0-2.68-3.621c-.212-.243-.424-.486-.636-.713A12.447,12.447,0,0,1,62.3,19.2ZM51.857,22.45c.7-.431,1.978-.024,3.48.983a20.5,20.5,0,0,1,5.63,6.2l0,.005a20.51,20.51,0,0,1,3.019,7.809c.226,1.793.016,3.119-.684,3.551h0a1.8,1.8,0,0,0-.166.079,2.3,2.3,0,0,1-1.4-.1,8.263,8.263,0,0,1-2.306-1.246l-.033.077a19.239,19.239,0,0,0,.934-3.852c.407-3.22-.351-5.836-2.371-7.083-1.677-1.035-3.807-.87-6.025.249v0a13.7,13.7,0,0,1-.84-4.186C51.077,23.684,51.324,22.778,51.857,22.45Zm8.786,21.994a7.085,7.085,0,0,0,1.542.315V62.184H45.73V54.257A9.8,9.8,0,0,0,50.34,52.37a24.368,24.368,0,0,0,6.373-7.011,1.794,1.794,0,0,0,.171-.277c.394-.647.757-1.3,1.087-1.946h0A11.126,11.126,0,0,0,60.642,44.444Zm-8.065-11.5c1.5-1.007,2.782-1.414,3.48-.983s.91,1.758.684,3.551a20.507,20.507,0,0,1-3.019,7.809l0,.006a20.825,20.825,0,0,1-5.451,6.083c-.285.2-.562.376-.83.531l-.005,0a10.937,10.937,0,0,0,.059-3.435,20.87,20.87,0,0,0-1.555-5.458l-.024-.06q.141-.274.3-.568c.246-.456.492-.882.735-1.276A20.506,20.506,0,0,1,52.578,32.94ZM42.216,28.705c.571-.831,1.161-1.316,1.7-1.316s1.128.484,1.7,1.316a12.449,12.449,0,0,1,1.659,4.067c-.03.032-.058.063-.084.093a27.955,27.955,0,0,0-3.27,4.3h0l-.044-.061a25.756,25.756,0,0,0-3.317-4.334A12.447,12.447,0,0,1,42.216,28.705ZM39.74,49.527a20.507,20.507,0,0,1-5.631-6.2l0-.006a20.51,20.51,0,0,1-3.019-7.809c-.227-1.793-.016-3.119.684-3.551s1.978-.024,3.48.983a20.507,20.507,0,0,1,5.631,6.2l0,.005A20.51,20.51,0,0,1,43.9,46.959c.226,1.793.016,3.119-.684,3.551h0a1.82,1.82,0,0,0-.185.089C42.307,50.869,41.118,50.45,39.74,49.527ZM88.823,94.091A16.078,16.078,0,0,1,72.8,110.117H55.2A16.078,16.078,0,0,1,39.177,94.091V75.878H88.823Zm1.816-28.275a3.2,3.2,0,0,1,2.269.939l.007.007a3.2,3.2,0,0,1,.939,2.269h0a3.2,3.2,0,0,1-.939,2.269l-.007.007a3.2,3.2,0,0,1-2.269.939H37.362a3.2,3.2,0,0,1-2.269-.939l-.007-.007a3.2,3.2,0,0,1-.939-2.269h0a3.2,3.2,0,0,1,.939-2.269l.007-.007a3.2,3.2,0,0,1,2.269-.939H90.638Zm-6.55-28.649h0l-.044-.061c-2.3-3.679-3.182-4.19-3.316-4.334a12.449,12.449,0,0,1,1.659-4.067c.571-.831,1.161-1.316,1.7-1.316s1.128.484,1.7,1.316a12.45,12.45,0,0,1,1.659,4.067q-.543.573-1.074,1.219A28.649,28.649,0,0,0,84.089,37.167Z"/></svg>