<svg id="Layer_1" data-name="Layer 1" xmlns="http://www.w3.org/2000/svg" viewBox="0 0 128 128"><title>Tree</title><path d="M85.973,31.32q-.844,0-1.681.069a20.583,20.583,0,0,0-40.584,0q-.836-.068-1.681-.069a20.582,20.582,0,0,0,0,41.165h14.8v37.633H32.907a1.816,1.816,0,1,0,0,3.631H95.093a1.816,1.816,0,1,0,0-3.631H72.664V72.485H85.973a20.582,20.582,0,0,0,0-41.165ZM69.507,61.059a1.81,1.81,0,0,0-.475,1.225v47.834H60.458V66.141h0a1.807,1.807,0,0,0-.416-1.156L43.392,44.835a1.429,1.429,0,0,1-.32-1.047A1.837,1.837,0,0,1,44.9,42.279a1.428,1.428,0,0,1,.967.514l11.32,13.7a1.816,1.816,0,0,0,3.271-1.085V46.826a3.972,3.972,0,0,1,1.09-2.733c.027-.024.053-.049.079-.075a3.965,3.965,0,0,1,2.808-1.169h.619a3.981,3.981,0,0,1,3.977,3.977v4.726h0a1.813,1.813,0,0,0,3.211,1.156l8.395-10.16,0,0a1.427,1.427,0,0,1,.967-.514,1.838,1.838,0,0,1,1.828,1.509,1.429,1.429,0,0,1-.32,1.047Zm28.451,2.83a16.9,16.9,0,0,1-11.986,4.965H72.664V62.933L85.911,46.9a5.047,5.047,0,0,0,1.129-3.7,5.445,5.445,0,0,0-5.771-4.771,5.047,5.047,0,0,0-3.352,1.723,1.917,1.917,0,0,0-.124.147l-5.136,6.217a7.586,7.586,0,0,0-2.227-5.057l-.007-.007a7.58,7.58,0,0,0-5.368-2.234h-.619a7.587,7.587,0,0,0-5.375,2.234c-.036.036-.07.074-.1.111a7.577,7.577,0,0,0-2.131,5.264v3.539l-8.165-9.884a5.046,5.046,0,0,0-3.421-1.8,5.451,5.451,0,0,0-5.772,4.771,5.042,5.042,0,0,0,1.129,3.7L56.827,66.791v2.063h-14.8a16.951,16.951,0,1,1,0-33.9q.754,0,1.481.064c.5.044.991.108,1.466.191a1.815,1.815,0,0,0,2.1-1.475,1.836,1.836,0,0,0,.025-.223,16.953,16.953,0,0,1,33.806.046,1.813,1.813,0,0,0,1.943,1.674,1.733,1.733,0,0,0,.177-.022h0q.713-.125,1.466-.191c.484-.042.979-.064,1.481-.064A16.951,16.951,0,0,1,97.959,63.889Z"/></svg>