<svg xmlns="http://www.w3.org/2000/svg" data-name="Layer 1" viewBox="0 0 128 128"><path d="M24.84 92.171a1.816 1.816 0 001.816 1.816h30.866v17.951a1.816 1.816 0 001.816 1.816h9.325a1.816 1.816 0 001.816-1.816V93.987h30.866a1.816 1.816 0 100-3.631h-8.917a4.878 4.878 0 00.168-1.272V59.108a7.545 7.545 0 006.731-12.659q-.049-.059-.1-.114L69.339 16.452a7.557 7.557 0 00-10.671 0L28.777 46.336a7.557 7.557 0 000 10.667 7.558 7.558 0 006.619 2.1v29.98a4.843 4.843 0 00.169 1.272h-8.91a1.816 1.816 0 00-1.815 1.816zm42.007 17.951h-5.694V93.987h5.694zm5.777-19.767H55.376V75a8.452 8.452 0 012.491-5.986 8.771 8.771 0 0112.265 0A8.451 8.451 0 0172.624 75zm16.341-1.272a1.269 1.269 0 01-.375.9l-.06.063a1.267 1.267 0 01-.822.312H76.256V75a12.256 12.256 0 00-24.511 0v15.355H40.291a1.263 1.263 0 01-.881-.368l-.01-.007a1.264 1.264 0 01-.368-.9V57.4q.216-.185.42-.389L64 32.469l24.545 24.545.1.1c-.187-.132-.127-.087.314.287zm-54.849-33.5a3.9 3.9 0 01-2.772-1.134l-.007-.007a3.946 3.946 0 01.007-5.543l29.884-29.88a3.946 3.946 0 015.547 0L96.656 48.9q.038.038.078.073a3.925 3.925 0 01-5.621 5.477L65.284 28.618a1.815 1.815 0 00-2.567 0L36.888 54.446a3.908 3.908 0 01-2.772 1.141z"/></svg>