<svg id="Layer_1" data-name="Layer 1" xmlns="http://www.w3.org/2000/svg" viewBox="0 0 128 128"><title>Bug</title><path d="M88.555,54.681a6.742,6.742,0,0,0-9.545,0L79,54.688a6.741,6.741,0,0,0,0,9.545l.007.007a6.741,6.741,0,0,0,9.54,0l0,0,0,0,0,0a6.74,6.74,0,0,0,0-9.545ZM86,61.673l-.007.007A3.077,3.077,0,1,1,86,61.673Z"/><path d="M78.014,83.738A7.555,7.555,0,0,0,72.66,85.96l-.007.007a7.574,7.574,0,1,0,5.362-2.228Zm2.795,10.378a3.954,3.954,0,1,1,1.157-2.795A3.941,3.941,0,0,1,80.809,94.116Z"/><path d="M46.982,59.731a6.208,6.208,0,0,0,8.782,0l0,0,0,0a6.2,6.2,0,0,0-8.769-8.779l-.005,0,0,0,0,0a6.19,6.19,0,0,0-.106,8.659C46.909,59.655,46.944,59.693,46.982,59.731Zm2.561-6.214.007-.007a2.584,2.584,0,0,1,3.65,3.657l0,0a2.579,2.579,0,0,1-3.647,0l-.072-.069a2.6,2.6,0,0,1,.066-3.578Z"/><path d="M80.011,39.375l.007-.073c.053-.552.081-1.07.081-1.549a16.111,16.111,0,0,0-6.886-13.2l5.2-7.452a1.808,1.808,0,1,0-2.965-2.071l-5.434,7.789a16.151,16.151,0,0,0-12.026,0l-5.434-7.789A1.808,1.808,0,1,0,49.588,17.1l5.2,7.452a16.111,16.111,0,0,0-6.886,13.2c0,.478.028,1,.081,1.549l.007.073a38.869,38.869,0,1,0,32.021,0ZM50.274,105.161a2.58,2.58,0,0,1-1.827-.751l0,0a2.579,2.579,0,0,1,3.647-3.647l.073.069a2.578,2.578,0,0,1-1.9,4.333Zm11.91,4.907a35.156,35.156,0,0,1-9.44-1.789,6.231,6.231,0,0,0,1.914-1.306l.007-.007a6.191,6.191,0,0,0,.106-8.659c-.034-.04-.069-.079-.106-.116a6.212,6.212,0,0,0-10.423,5.873A35.275,35.275,0,0,1,62.184,39.616ZM51.535,37.979l0-.224a12.467,12.467,0,1,1,24.934,0l0,.224a39.094,39.094,0,0,0-24.931,0Zm37.407,61.8a35.161,35.161,0,0,1-23.126,10.285V39.616A35.273,35.273,0,0,1,88.941,99.783Z"/><path d="M40.14,78.993c.032.038.067.076.1.111a7.581,7.581,0,0,0,10.724,0l0,0a7.584,7.584,0,1,0-10.823-.108Zm2.67-8.045a3.955,3.955,0,0,1,5.6,5.589l0,0,0,0a3.953,3.953,0,0,1-5.589,0c-.027-.027-.054-.052-.082-.077a3.962,3.962,0,0,1,.082-5.512Z"/></svg>