<svg xmlns="http://www.w3.org/2000/svg" data-name="Layer 1" viewBox="0 0 128 128"><path d="M91.5 43.123a22.237 22.237 0 0 0-7.766 1.4 26.675 26.675 0 0 0-52.615 6.217q0 .625.035 1.313a17.8 17.8 0 0 0 .893 35.57h12.225l7.717 11.021a1.808 1.808 0 1 0 2.964-2.071l-6.267-8.95h7.687l10.88 15.539a1.808 1.808 0 1 0 2.964-2.071l-9.43-13.468h7.687l7.717 11.021a1.808 1.808 0 0 0 2.965-2.071l-6.267-8.95h7.687l7.717 11.021 3.163 4.517a1.808 1.808 0 1 0 2.964-2.071l-3.163-4.517-6.267-8.95h6.51a22.25 22.25 0 0 0 0-44.5zm13.165 35.415A18.562 18.562 0 0 1 91.5 83.991h-9.05l-6.439-9.2a1.808 1.808 0 1 0-2.964 2.071l4.988 7.124h-7.687l-6.439-9.2a1.808 1.808 0 0 0-2.964 2.071l4.988 7.124h-7.687l-6.439-9.2a1.808 1.808 0 0 0-2.964 2.071l4.988 7.124h-7.687l-6.438-9.2a1.808 1.808 0 0 0-2.965 2.071l4.988 7.124h-9.682a14.164 14.164 0 1 1 0-28.329h.481c.1 0 .259.013.479.028a1.813 1.813 0 0 0 1.9-2.153q-.074-.618-.119-1.328v.011q-.042-.668-.042-1.465a23.044 23.044 0 0 1 45.838-3.395 1.815 1.815 0 0 0 2.6 1.361 18.621 18.621 0 0 1 21.473 29.832z"/></svg>