<svg id="Layer_1" data-name="Layer 1" xmlns="http://www.w3.org/2000/svg" viewBox="0 0 128 128"><title>Water Can</title><path d="M102.724,52.344h-6.73l-.414-5.417a6.234,6.234,0,0,0,2.369-1.481l0,0,0,0,0,0a6.171,6.171,0,0,0,1.815-4.362h0a6.17,6.17,0,0,0-1.814-4.361l0,0,0,0,0,0a6.17,6.17,0,0,0-4.362-1.815H80.475v-.145a9.171,9.171,0,0,0-2.695-6.5l0,0a9.2,9.2,0,0,0-15.7,6.5v.145H48.966A6.167,6.167,0,0,0,44.6,36.706l0,0a6.171,6.171,0,0,0-1.819,4.366h0a6.165,6.165,0,0,0,1.706,4.25q.052.062.109.119a6.209,6.209,0,0,0,2.378,1.485l-.332,4.343L23.633,38a6.654,6.654,0,0,0-4.552-.805A5.876,5.876,0,0,0,15.3,39.657c-.02.028-.039.057-.058.086a5.872,5.872,0,0,0-.884,4.4,6.66,6.66,0,0,0,2.433,3.937L45.169,70.531,43.52,92.071q-.028.372-.028.686a9.332,9.332,0,0,0,2.88,6.659,10.653,10.653,0,0,0,6.606,3.007c.276.021.539.032.783.032H88.794c.244,0,.506-.011.782-.032a10.648,10.648,0,0,0,6.606-3.007,9.332,9.332,0,0,0,2.88-6.659c0-.208-.009-.437-.028-.685l-.129-1.687h3.819a11.051,11.051,0,0,0,11.023-11.023V63.367a11.051,11.051,0,0,0-11.023-11.023ZM67.34,30.808a5.578,5.578,0,0,1,7.875-.007l0,0,0,0a5.552,5.552,0,0,1,1.63,3.938v.145H65.71v-.145A5.553,5.553,0,0,1,67.34,30.808ZM46.412,41.075h0a2.541,2.541,0,0,1,.744-1.8l0,0,0,0a2.545,2.545,0,0,1,1.8-.751H93.589a2.541,2.541,0,0,1,1.8.744l.007.007a2.541,2.541,0,0,1,.744,1.8h0a2.541,2.541,0,0,1-.744,1.8l-.007.007a2.541,2.541,0,0,1-1.8.744H48.966a2.545,2.545,0,0,1-1.8-.751c-.025-.025-.05-.049-.077-.072A2.541,2.541,0,0,1,46.412,41.075ZM19.036,45.248a3.025,3.025,0,0,1-1.114-1.78,2.3,2.3,0,0,1,.349-1.744l0,0a2.3,2.3,0,0,1,1.488-.964,3.033,3.033,0,0,1,2.07.38l33.9,19.557c.614.354.563,1.45.159,2.715a12.234,12.234,0,0,1-3.582,5.274c-1.025.842-2.023,1.291-2.58.85ZM93.644,96.833A6.991,6.991,0,0,1,89.307,98.8c-.152.011-.323.017-.513.017H53.76c-.19,0-.362-.006-.513-.017a6.992,6.992,0,0,1-4.337-1.971,5.731,5.731,0,0,1-1.787-4.077c0-.155,0-.3.014-.416l1.492-19.3c1.918.777,4.061.017,5.982-1.562a15.872,15.872,0,0,0,4.73-6.976c.911-2.848.6-5.555-1.8-6.942l-7.412-4.276.46-6.022H91.968l3.45,45.08c.009.12.014.26.014.415A5.732,5.732,0,0,1,93.644,96.833Zm16.472-17.472a7.417,7.417,0,0,1-7.391,7.391h-4.1L96.272,55.976h6.452a7.417,7.417,0,0,1,7.391,7.391Z"/></svg>