<svg xmlns="http://www.w3.org/2000/svg" data-name="Layer 1" viewBox="0 0 128 128"><path d="M55.132 41.285a1.816 1.816 0 0 0 2.582-2.553L52.245 33.2a1.816 1.816 0 1 0-2.582 2.553zM98.325 41.521l5.53-5.469a1.816 1.816 0 1 0-2.555-2.582l-5.53 5.469a1.816 1.816 0 1 0 2.553 2.582zM67.59 33.1a1.809 1.809 0 1 0 3.5-.908l-1.97-7.526a1.809 1.809 0 1 0-3.5.908zM30.052 104.69h52.02A19.695 19.695 0 0 0 96 71.068q-.512-.512-1.059-.985.152-.268.3-.544a21 21 0 0 0 .978-2.109v-.005a20.75 20.75 0 0 0-11.613-26.963h-.008a20.762 20.762 0 0 0-25.721 9.019A23.572 23.572 0 0 0 29.014 72.19q0 .446.021.935a15.8 15.8 0 0 0 1.018 31.564zM70.636 43.8a17.093 17.093 0 0 1 12.629.015 17.16 17.16 0 0 1 9.593 22.271 17.363 17.363 0 0 1-.809 1.745l-.071.131a19.712 19.712 0 0 0-16.54-1.519A23.536 23.536 0 0 0 69.5 55.791a8.438 8.438 0 0 1 10.538-3.861 1.808 1.808 0 0 0 1.333-3.362 12.023 12.023 0 0 0-14.641 4.783 23.618 23.618 0 0 0-4.39-2.612 17.1 17.1 0 0 1 8.296-6.939zM21.449 80.288a12.129 12.129 0 0 1 8.6-3.563h.435c.073 0 .208.012.394.024a1.813 1.813 0 0 0 1.9-2.153q-.062-.523-.1-1.133v-.007c-.024-.38-.036-.8-.036-1.267A19.937 19.937 0 0 1 72.3 69.253a1.815 1.815 0 0 0 2.6 1.361 15.938 15.938 0 0 1 3.477-1.26 16.067 16.067 0 1 1 3.691 31.7H30.052a12.167 12.167 0 0 1-8.6-20.77zM102.661 53.6a1.81 1.81 0 0 0 2.206 1.3l7.523-1.972a1.809 1.809 0 0 0-.908-3.5l-7.523 1.972a1.81 1.81 0 0 0-1.298 2.2zM112.307 68.328l-7.5-2.055a1.808 1.808 0 0 0-.95 3.489l7.5 2.055a1.808 1.808 0 1 0 .95-3.489zM83.736 34.469a1.809 1.809 0 0 0 2.22-1.269l2.055-7.5a1.808 1.808 0 1 0-3.489-.95l-2.055 7.5a1.808 1.808 0 0 0 1.269 2.219z"/></svg>