<svg xmlns="http://www.w3.org/2000/svg" data-name="Layer 1" viewBox="0 0 128 128"><path d="M111.044 52.413a9.226 9.226 0 0 0-4.461-2.474A47.2 47.2 0 1 0 19.884 87.3a10.245 10.245 0 0 0-2.637 1.9l-.007.007a10.187 10.187 0 0 0 0 14.418l.007.007a10.168 10.168 0 0 0 7.209 2.989h31.21a12.543 12.543 0 1 0-2.873-24.752q-.309.073-.612.16a14.882 14.882 0 0 0-4.509-6.89 15.039 15.039 0 0 0-1.472-1.113A17.866 17.866 0 0 1 76.473 56.6a7.609 7.609 0 0 0 6.5 11.557h21.55a9.2 9.2 0 0 0 6.509-2.7h.005a9.212 9.212 0 0 0 0-13.035zm-91.4 16.17a43.579 43.579 0 0 1 82.956-18.67l-.112.025A10.849 10.849 0 0 0 92.309 42.8c-.13 0-.26 0-.388.007a38.571 38.571 0 0 0-66.138 35.082 14.792 14.792 0 0 0-2.658 7.774 43.5 43.5 0 0 1-3.482-17.079zm13.744 2.664q.044.489.1.974A14.832 14.832 0 0 0 28.8 74.7q-.129-.727-.228-1.462a34.957 34.957 0 0 1 59.263-29.473 10.873 10.873 0 0 0-3.984 3.1 29.956 29.956 0 0 0-50.59 21.718c0 .834.039 1.724.126 2.664zm15.7 13.494a1.815 1.815 0 0 0 2.6 1.361 8.834 8.834 0 0 1 1.927-.7 8.914 8.914 0 1 1 2.05 17.588H24.456a6.573 6.573 0 1 1 0-13.147c.171 0 .278 0 .449.013a1.813 1.813 0 0 0 1.9-2.145 11.84 11.84 0 0 1-.069-1.314 11.236 11.236 0 0 1 22.349-1.658zm23.59-35.453a21.482 21.482 0 0 0-30.663 22.8 14.821 14.821 0 0 0-4.042-.559q-.463 0-.918.028-.036-.313-.064-.627c-.064-.725-.1-1.511-.1-2.352a26.323 26.323 0 0 1 45.153-18.402 10.776 10.776 0 0 0-.548 2.905 7.564 7.564 0 0 0-2.46.955 21.5 21.5 0 0 0-6.36-4.748zm35.811 13.6-.007.007a5.57 5.57 0 0 1-3.953 1.631H82.977a3.977 3.977 0 1 1 0-7.953c.151 0 .062-.006.133 0l.139.01a1.813 1.813 0 0 0 1.9-2.135c-.01-.1-.02-.216-.028-.356v-.023a9.543 9.543 0 0 1-.009-.435 7.2 7.2 0 0 1 14.314-1.063 1.814 1.814 0 0 0 2.6 1.361 5.537 5.537 0 0 1 1.208-.439 5.622 5.622 0 0 1 1.288-.146q.279 0 .552.027l.078.008a5.561 5.561 0 0 1 3.323 1.6 5.6 5.6 0 0 1 .007 7.907z"/></svg>