<svg xmlns="http://www.w3.org/2000/svg" data-name="Layer 1" viewBox="0 0 128 128"><path d="M64 89.354a11.042 11.042 0 1 0-7.807-3.234A11.007 11.007 0 0 0 64 89.354zm-5.239-16.28a7.41 7.41 0 1 1-2.17 5.239 7.386 7.386 0 0 1 2.17-5.24z"/><path d="M31.253 113.749h65.494a12.308 12.308 0 0 0 12.276-12.276V35.979A12.307 12.307 0 0 0 96.747 23.7h-2.728v-2.97a6.479 6.479 0 0 0-12.958 0v2.97H46.939v-2.97a6.479 6.479 0 0 0-12.958 0v2.97h-2.728a12.307 12.307 0 0 0-12.276 12.279v65.494a12.308 12.308 0 0 0 12.276 12.276zm53.44-93.019a2.847 2.847 0 0 1 5.695 0V29a2.847 2.847 0 0 1-5.695 0zm-47.081 0a2.847 2.847 0 0 1 5.695 0V29a2.847 2.847 0 0 1-5.695 0zm-15 15.249a8.674 8.674 0 0 1 8.644-8.644h2.728V29a6.479 6.479 0 0 0 12.958 0v-1.665h34.12V29a6.479 6.479 0 0 0 12.958 0v-1.665h2.727a8.673 8.673 0 0 1 8.645 8.644v7.3H22.608zm0 10.934h82.783v54.56a8.674 8.674 0 0 1-8.645 8.644H31.253a8.674 8.674 0 0 1-8.644-8.644z"/><path d="M42.207 84.152a7.071 7.071 0 0 0 5.839 10.114 7.072 7.072 0 0 0 10.114 5.84 7.126 7.126 0 0 0 1.486 1.582 7.048 7.048 0 0 0 8.7 0 7.124 7.124 0 0 0 1.486-1.582 7.108 7.108 0 0 0 2.082.629 7.034 7.034 0 0 0 4.4-.818q.06-.029.118-.063a7.069 7.069 0 0 0 3.514-5.588 7.073 7.073 0 0 0 5.84-10.114 7.123 7.123 0 0 0 1.581-1.486 7.048 7.048 0 0 0 0-8.7 7.128 7.128 0 0 0-1.582-1.486 7.071 7.071 0 0 0-.252-6.6 7.056 7.056 0 0 0-5.585-3.515 7.072 7.072 0 0 0-10.114-5.84 7.075 7.075 0 0 0-11.677 0 7.109 7.109 0 0 0-2.082-.629 7.03 7.03 0 0 0-4.4.818c-.04.019-.079.04-.118.063a7.07 7.07 0 0 0-3.514 5.588 7.073 7.073 0 0 0-5.84 10.114 7.137 7.137 0 0 0-1.581 1.486 7.048 7.048 0 0 0 0 8.7 7.123 7.123 0 0 0 1.585 1.487zm1.27-7.965a3.448 3.448 0 0 1 1.887-1.225 1.811 1.811 0 0 0 .794-3.091 3.458 3.458 0 0 1 3.386-5.78 1.807 1.807 0 0 0 2.233-2.239A3.475 3.475 0 0 1 51.9 61.6a3.433 3.433 0 0 1 1.475-1.691l.076-.047a3.465 3.465 0 0 1 4.134.64 1.811 1.811 0 0 0 3.063-.823 3.453 3.453 0 0 1 6.7 0 1.811 1.811 0 0 0 3.091.794 3.458 3.458 0 0 1 5.78 3.387 1.807 1.807 0 0 0 2.239 2.233 3.475 3.475 0 0 1 2.254.124 3.426 3.426 0 0 1 1.691 1.468v.006a3.455 3.455 0 0 1-.593 4.21 1.811 1.811 0 0 0 .823 3.063 3.453 3.453 0 0 1 0 6.7 1.811 1.811 0 0 0-.794 3.091 3.458 3.458 0 0 1-3.386 5.779 1.807 1.807 0 0 0-2.233 2.239 3.477 3.477 0 0 1-.125 2.255 3.434 3.434 0 0 1-1.475 1.691l-.076.047a3.464 3.464 0 0 1-4.134-.64 1.811 1.811 0 0 0-3.063.823 3.452 3.452 0 0 1-6.7 0 1.811 1.811 0 0 0-3.092-.794 3.458 3.458 0 0 1-5.78-3.386 1.807 1.807 0 0 0-2.239-2.233 3.475 3.475 0 0 1-2.254-.125 3.454 3.454 0 0 1-1.1-5.684 1.811 1.811 0 0 0-.823-3.063 3.463 3.463 0 0 1-1.888-5.476z"/></svg>