<svg id="Layer_1" data-name="Layer 1" xmlns="http://www.w3.org/2000/svg" viewBox="0 0 128 128"><title>Sun And Clour</title><path d="M55.132,41.285a1.816,1.816,0,0,0,2.582-2.553L52.245,33.2a1.816,1.816,0,1,0-2.582,2.553Z"/><path d="M98.325,41.521l5.53-5.469A1.816,1.816,0,1,0,101.3,33.47l-5.53,5.469a1.816,1.816,0,1,0,2.553,2.582Z"/><path d="M67.59,33.1a1.809,1.809,0,1,0,3.5-.908L69.12,24.666a1.809,1.809,0,1,0-3.5.908Z"/><path d="M30.052,104.69h52.02A19.695,19.695,0,0,0,96,71.068q-.512-.512-1.059-.985.152-.268.3-.544a21,21,0,0,0,.978-2.109l0-.005A20.75,20.75,0,0,0,84.606,40.462l-.008,0a20.762,20.762,0,0,0-25.721,9.019A23.572,23.572,0,0,0,29.014,72.19q0,.446.021.935a15.8,15.8,0,0,0,1.018,31.564ZM70.636,43.8a17.093,17.093,0,0,1,12.629.015h0a17.16,17.16,0,0,1,9.593,22.271h0a17.363,17.363,0,0,1-.809,1.745l-.071.131a19.712,19.712,0,0,0-16.54-1.519A23.536,23.536,0,0,0,69.5,55.791,8.438,8.438,0,0,1,80.038,51.93a1.808,1.808,0,0,0,1.333-3.362A12.023,12.023,0,0,0,66.73,53.351a23.618,23.618,0,0,0-4.39-2.612A17.1,17.1,0,0,1,70.636,43.8ZM21.449,80.288a12.129,12.129,0,0,1,8.6-3.563h.435c.073,0,.208.012.394.024a1.813,1.813,0,0,0,1.9-2.153q-.062-.523-.1-1.133v-.007h0c-.024-.38-.036-.8-.036-1.267A19.937,19.937,0,0,1,72.3,69.253a1.815,1.815,0,0,0,2.6,1.361h0a15.938,15.938,0,0,1,3.477-1.26,16.067,16.067,0,1,1,3.691,31.7H30.052a12.167,12.167,0,0,1-8.6-20.77Z"/><path d="M102.661,53.6a1.81,1.81,0,0,0,2.206,1.3l7.523-1.972a1.809,1.809,0,0,0-.908-3.5L103.959,51.4A1.81,1.81,0,0,0,102.661,53.6Z"/><path d="M112.307,68.328l-7.5-2.055a1.808,1.808,0,0,0-.95,3.489l7.5,2.055a1.808,1.808,0,1,0,.95-3.489Z"/><path d="M83.736,34.469a1.809,1.809,0,0,0,2.22-1.269l2.055-7.5a1.808,1.808,0,1,0-3.489-.95l-2.055,7.5A1.808,1.808,0,0,0,83.736,34.469Z"/></svg>