<svg id="Layer_1" data-name="Layer 1" xmlns="http://www.w3.org/2000/svg" viewBox="0 0 128 128"><title>Rain</title><path d="M91.5,43.123a22.237,22.237,0,0,0-7.766,1.4A26.675,26.675,0,0,0,31.119,50.74q0,.625.035,1.313a17.8,17.8,0,0,0,.893,35.57H44.272l7.717,11.021a1.808,1.808,0,1,0,2.964-2.071l-6.267-8.95h7.687l10.88,15.539a1.808,1.808,0,1,0,2.964-2.071l-9.43-13.468h7.687l7.717,11.021a1.808,1.808,0,0,0,2.965-2.071l-6.267-8.95h7.687l7.717,11.021h0l3.163,4.517a1.808,1.808,0,1,0,2.964-2.071l-3.163-4.517-6.267-8.95H91.5a22.25,22.25,0,0,0,0-44.5Zm13.165,35.415A18.562,18.562,0,0,1,91.5,83.991H82.45l-6.439-9.2a1.808,1.808,0,1,0-2.964,2.071l4.988,7.124H70.348l-6.439-9.2a1.808,1.808,0,0,0-2.964,2.071l4.988,7.124H58.246l-6.439-9.2a1.808,1.808,0,0,0-2.964,2.071l4.988,7.124H46.144l-6.438-9.2a1.808,1.808,0,0,0-2.965,2.071l4.988,7.124H32.047a14.164,14.164,0,1,1,0-28.329c.27,0,.432,0,.481,0h0c.1,0,.259.013.479.028a1.813,1.813,0,0,0,1.9-2.153q-.074-.618-.119-1.328V52.2h0q-.042-.668-.042-1.465a23.044,23.044,0,0,1,45.838-3.395,1.815,1.815,0,0,0,2.6,1.361h0a18.621,18.621,0,0,1,21.473,29.832Z"/></svg>