<svg xmlns="http://www.w3.org/2000/svg" xmlns:xlink="http://www.w3.org/1999/xlink" id="Layer_1" x="0" y="0" enable-background="new 0 0 256 256" version="1.1" viewBox="0 0 256 256" xml:space="preserve"><style>.st0{fill:none;}
	.st1{fill:#253759;}
	.st2{clip-path:url(#SVGID_2_);fill:#253759;}
	.st3{clip-path:url(#SVGID_4_);fill:#253759;}
	.st4{fill:#A6D6FF;}
	.st5{fill:url(#SVGID_7_);}
	.st6{fill:url(#SVGID_8_);}
	.st7{fill:#A8A7C2;}
	.st8{fill:#FF9D9D;}
	.st9{fill:url(#SVGID_9_);}
	.st10{fill:url(#SVGID_10_);}
	.st11{fill:url(#SVGID_11_);}
	.st12{opacity:0.3;fill:#253759;}</style><pattern id="New_Pattern_Swatch_1" width="42.9" height="43" x="-2760" overflow="visible" patternUnits="userSpaceOnUse" viewBox="43 -43 42.9 43"><path d="M43-43H85.9V0H43z" class="st0"/><circle cx="85.9" cy="-41.2" r=".6" class="st1"/><circle cx="85.9" cy="-37.6" r=".6" class="st1"/><circle cx="85.9" cy="-34" r=".6" class="st1"/><circle cx="85.9" cy="-30.4" r=".6" class="st1"/><circle cx="85.9" cy="-26.9" r=".6" class="st1"/><circle cx="85.9" cy="-23.3" r=".6" class="st1"/><circle cx="85.9" cy="-19.7" r=".6" class="st1"/><circle cx="85.9" cy="-16.1" r=".6" class="st1"/><circle cx="85.9" cy="-12.6" r=".6" class="st1"/><circle cx="85.9" cy="-9" r=".6" class="st1"/><circle cx="85.9" cy="-5.4" r=".6" class="st1"/><circle cx="85.9" cy="-1.8" r=".6" class="st1"/><circle cx="85.8" cy="-41.2" r=".6" class="st1"/><circle cx="85.8" cy="-37.6" r=".6" class="st1"/><circle cx="85.8" cy="-34" r=".6" class="st1"/><circle cx="85.8" cy="-30.4" r=".6" class="st1"/><circle cx="85.8" cy="-26.9" r=".6" class="st1"/><circle cx="85.8" cy="-23.3" r=".6" class="st1"/><circle cx="85.8" cy="-19.7" r=".6" class="st1"/><circle cx="85.8" cy="-16.1" r=".6" class="st1"/><circle cx="85.8" cy="-12.6" r=".6" class="st1"/><circle cx="85.8" cy="-9" r=".6" class="st1"/><circle cx="85.8" cy="-5.4" r=".6" class="st1"/><circle cx="85.8" cy="-1.8" r=".6" class="st1"/><g><defs><path id="SVGID_1_" d="M85.8-43H128.8V0H85.8z"/></defs><clipPath id="SVGID_2_"><use overflow="visible" xlink:href="#SVGID_1_"/></clipPath><circle cx="85.8" cy="-41.2" r=".6" class="st2"/><circle cx="85.8" cy="-37.6" r=".6" class="st2"/><circle cx="85.8" cy="-34" r=".6" class="st2"/><circle cx="85.8" cy="-30.4" r=".6" class="st2"/><circle cx="85.8" cy="-26.9" r=".6" class="st2"/><circle cx="85.8" cy="-23.3" r=".6" class="st2"/><circle cx="85.8" cy="-19.7" r=".6" class="st2"/><circle cx="85.8" cy="-16.1" r=".6" class="st2"/><circle cx="85.8" cy="-12.6" r=".6" class="st2"/><circle cx="85.8" cy="-9" r=".6" class="st2"/><circle cx="85.8" cy="-5.4" r=".6" class="st2"/><circle cx="85.8" cy="-1.8" r=".6" class="st2"/><circle cx="85.7" cy="-41.2" r=".6" class="st2"/><circle cx="85.7" cy="-37.6" r=".6" class="st2"/><circle cx="85.7" cy="-34" r=".6" class="st2"/><circle cx="85.7" cy="-30.4" r=".6" class="st2"/><circle cx="85.7" cy="-26.9" r=".6" class="st2"/><circle cx="85.7" cy="-23.3" r=".6" class="st2"/><circle cx="85.7" cy="-19.7" r=".6" class="st2"/><circle cx="85.7" cy="-16.1" r=".6" class="st2"/><circle cx="85.7" cy="-12.6" r=".6" class="st2"/><circle cx="85.7" cy="-9" r=".6" class="st2"/><circle cx="85.7" cy="-5.4" r=".6" class="st2"/><circle cx="85.7" cy="-1.8" r=".6" class="st2"/></g><g><circle cx="85.9" cy="-41.2" r=".6" class="st1"/><circle cx="85.9" cy="-37.6" r=".6" class="st1"/><circle cx="85.9" cy="-34" r=".6" class="st1"/><circle cx="85.9" cy="-30.4" r=".6" class="st1"/><circle cx="85.9" cy="-26.9" r=".6" class="st1"/><circle cx="85.9" cy="-23.3" r=".6" class="st1"/><circle cx="85.9" cy="-19.7" r=".6" class="st1"/><circle cx="85.9" cy="-16.1" r=".6" class="st1"/><circle cx="85.9" cy="-12.6" r=".6" class="st1"/><circle cx="85.9" cy="-9" r=".6" class="st1"/><circle cx="85.9" cy="-5.4" r=".6" class="st1"/><circle cx="85.9" cy="-1.8" r=".6" class="st1"/><circle cx="43" cy="-41.2" r=".6" class="st1"/><circle cx="46.5" cy="-41.2" r=".6" class="st1"/><circle cx="50.1" cy="-41.2" r=".6" class="st1"/><circle cx="53.7" cy="-41.2" r=".6" class="st1"/><circle cx="43" cy="-37.6" r=".6" class="st1"/><circle cx="46.5" cy="-37.6" r=".6" class="st1"/><circle cx="50.1" cy="-37.6" r=".6" class="st1"/><circle cx="53.7" cy="-37.6" r=".6" class="st1"/><circle cx="43" cy="-34" r=".6" class="st1"/><circle cx="46.5" cy="-34" r=".6" class="st1"/><circle cx="50.1" cy="-34" r=".6" class="st1"/><circle cx="53.7" cy="-34" r=".6" class="st1"/><circle cx="43" cy="-30.4" r=".6" class="st1"/><circle cx="46.5" cy="-30.4" r=".6" class="st1"/><circle cx="50.1" cy="-30.4" r=".6" class="st1"/><circle cx="53.7" cy="-30.4" r=".6" class="st1"/><circle cx="43" cy="-26.9" r=".6" class="st1"/><circle cx="46.5" cy="-26.9" r=".6" class="st1"/><circle cx="50.1" cy="-26.9" r=".6" class="st1"/><circle cx="53.7" cy="-26.9" r=".6" class="st1"/><circle cx="43" cy="-23.3" r=".6" class="st1"/><circle cx="46.5" cy="-23.3" r=".6" class="st1"/><circle cx="50.1" cy="-23.3" r=".6" class="st1"/><circle cx="53.7" cy="-23.3" r=".6" class="st1"/><circle cx="57.3" cy="-41.2" r=".6" class="st1"/><circle cx="60.8" cy="-41.2" r=".6" class="st1"/><circle cx="64.4" cy="-41.2" r=".6" class="st1"/><circle cx="68" cy="-41.2" r=".6" class="st1"/><circle cx="71.5" cy="-41.2" r=".6" class="st1"/><circle cx="57.3" cy="-37.6" r=".6" class="st1"/><circle cx="60.8" cy="-37.6" r=".6" class="st1"/><circle cx="64.4" cy="-37.6" r=".6" class="st1"/><circle cx="68" cy="-37.6" r=".6" class="st1"/><circle cx="71.5" cy="-37.6" r=".6" class="st1"/><circle cx="57.3" cy="-34" r=".6" class="st1"/><circle cx="60.8" cy="-34" r=".6" class="st1"/><circle cx="64.4" cy="-34" r=".6" class="st1"/><circle cx="68" cy="-34" r=".6" class="st1"/><circle cx="71.5" cy="-34" r=".6" class="st1"/><circle cx="57.3" cy="-30.4" r=".6" class="st1"/><circle cx="60.8" cy="-30.4" r=".6" class="st1"/><circle cx="64.4" cy="-30.4" r=".6" class="st1"/><circle cx="68" cy="-30.4" r=".6" class="st1"/><circle cx="71.5" cy="-30.4" r=".6" class="st1"/><circle cx="57.3" cy="-26.9" r=".6" class="st1"/><circle cx="60.8" cy="-26.9" r=".6" class="st1"/><circle cx="64.4" cy="-26.9" r=".6" class="st1"/><circle cx="68" cy="-26.9" r=".6" class="st1"/><circle cx="71.5" cy="-26.9" r=".6" class="st1"/><circle cx="57.3" cy="-23.3" r=".6" class="st1"/><circle cx="60.8" cy="-23.3" r=".6" class="st1"/><circle cx="64.4" cy="-23.3" r=".6" class="st1"/><circle cx="68" cy="-23.3" r=".6" class="st1"/><circle cx="71.5" cy="-23.3" r=".6" class="st1"/><circle cx="75.1" cy="-41.2" r=".6" class="st1"/><circle cx="78.7" cy="-41.2" r=".6" class="st1"/><circle cx="82.3" cy="-41.2" r=".6" class="st1"/><circle cx="85.8" cy="-41.2" r=".6" class="st1"/><circle cx="75.1" cy="-37.6" r=".6" class="st1"/><circle cx="78.7" cy="-37.6" r=".6" class="st1"/><circle cx="82.3" cy="-37.6" r=".6" class="st1"/><circle cx="85.8" cy="-37.6" r=".6" class="st1"/><circle cx="75.1" cy="-34" r=".6" class="st1"/><circle cx="78.7" cy="-34" r=".6" class="st1"/><circle cx="82.3" cy="-34" r=".6" class="st1"/><circle cx="85.8" cy="-34" r=".6" class="st1"/><circle cx="75.1" cy="-30.4" r=".6" class="st1"/><circle cx="78.7" cy="-30.4" r=".6" class="st1"/><circle cx="82.3" cy="-30.4" r=".6" class="st1"/><circle cx="85.8" cy="-30.4" r=".6" class="st1"/><circle cx="75.1" cy="-26.9" r=".6" class="st1"/><circle cx="78.7" cy="-26.9" r=".6" class="st1"/><circle cx="82.3" cy="-26.9" r=".6" class="st1"/><circle cx="85.8" cy="-26.9" r=".6" class="st1"/><circle cx="75.1" cy="-23.3" r=".6" class="st1"/><circle cx="78.7" cy="-23.3" r=".6" class="st1"/><circle cx="82.3" cy="-23.3" r=".6" class="st1"/><circle cx="85.8" cy="-23.3" r=".6" class="st1"/><circle cx="43" cy="-19.7" r=".6" class="st1"/><circle cx="46.5" cy="-19.7" r=".6" class="st1"/><circle cx="50.1" cy="-19.7" r=".6" class="st1"/><circle cx="53.7" cy="-19.7" r=".6" class="st1"/><circle cx="43" cy="-16.1" r=".6" class="st1"/><circle cx="46.5" cy="-16.1" r=".6" class="st1"/><circle cx="50.1" cy="-16.1" r=".6" class="st1"/><circle cx="53.7" cy="-16.1" r=".6" class="st1"/><circle cx="43" cy="-12.6" r=".6" class="st1"/><circle cx="46.5" cy="-12.6" r=".6" class="st1"/><circle cx="50.1" cy="-12.6" r=".6" class="st1"/><circle cx="53.7" cy="-12.6" r=".6" class="st1"/><circle cx="43" cy="-9" r=".6" class="st1"/><circle cx="46.5" cy="-9" r=".6" class="st1"/><circle cx="50.1" cy="-9" r=".6" class="st1"/><circle cx="53.7" cy="-9" r=".6" class="st1"/><circle cx="43" cy="-5.4" r=".6" class="st1"/><circle cx="46.5" cy="-5.4" r=".6" class="st1"/><circle cx="50.1" cy="-5.4" r=".6" class="st1"/><circle cx="53.7" cy="-5.4" r=".6" class="st1"/><circle cx="43" cy="-1.8" r=".6" class="st1"/><circle cx="46.5" cy="-1.8" r=".6" class="st1"/><circle cx="50.1" cy="-1.8" r=".6" class="st1"/><circle cx="53.7" cy="-1.8" r=".6" class="st1"/><circle cx="57.3" cy="-19.7" r=".6" class="st1"/><circle cx="60.8" cy="-19.7" r=".6" class="st1"/><circle cx="64.4" cy="-19.7" r=".6" class="st1"/><circle cx="68" cy="-19.7" r=".6" class="st1"/><circle cx="71.5" cy="-19.7" r=".6" class="st1"/><circle cx="57.3" cy="-16.1" r=".6" class="st1"/><circle cx="60.8" cy="-16.1" r=".6" class="st1"/><circle cx="64.4" cy="-16.1" r=".6" class="st1"/><circle cx="68" cy="-16.1" r=".6" class="st1"/><circle cx="71.5" cy="-16.1" r=".6" class="st1"/><circle cx="57.3" cy="-12.6" r=".6" class="st1"/><circle cx="60.8" cy="-12.6" r=".6" class="st1"/><circle cx="64.4" cy="-12.6" r=".6" class="st1"/><circle cx="68" cy="-12.6" r=".6" class="st1"/><circle cx="71.5" cy="-12.6" r=".6" class="st1"/><circle cx="57.3" cy="-9" r=".6" class="st1"/><circle cx="60.8" cy="-9" r=".6" class="st1"/><circle cx="64.4" cy="-9" r=".6" class="st1"/><circle cx="68" cy="-9" r=".6" class="st1"/><circle cx="71.5" cy="-9" r=".6" class="st1"/><circle cx="57.3" cy="-5.4" r=".6" class="st1"/><circle cx="60.8" cy="-5.4" r=".6" class="st1"/><circle cx="64.4" cy="-5.4" r=".6" class="st1"/><circle cx="68" cy="-5.4" r=".6" class="st1"/><circle cx="71.5" cy="-5.4" r=".6" class="st1"/><circle cx="57.3" cy="-1.8" r=".6" class="st1"/><circle cx="60.8" cy="-1.8" r=".6" class="st1"/><circle cx="64.4" cy="-1.8" r=".6" class="st1"/><circle cx="68" cy="-1.8" r=".6" class="st1"/><circle cx="71.5" cy="-1.8" r=".6" class="st1"/><circle cx="75.1" cy="-19.7" r=".6" class="st1"/><circle cx="78.7" cy="-19.7" r=".6" class="st1"/><circle cx="82.3" cy="-19.7" r=".6" class="st1"/><circle cx="85.8" cy="-19.7" r=".6" class="st1"/><circle cx="75.1" cy="-16.1" r=".6" class="st1"/><circle cx="78.7" cy="-16.1" r=".6" class="st1"/><circle cx="82.3" cy="-16.1" r=".6" class="st1"/><circle cx="85.8" cy="-16.1" r=".6" class="st1"/><circle cx="75.1" cy="-12.6" r=".6" class="st1"/><circle cx="78.7" cy="-12.6" r=".6" class="st1"/><circle cx="82.3" cy="-12.6" r=".6" class="st1"/><circle cx="85.8" cy="-12.6" r=".6" class="st1"/><circle cx="75.1" cy="-9" r=".6" class="st1"/><circle cx="78.7" cy="-9" r=".6" class="st1"/><circle cx="82.3" cy="-9" r=".6" class="st1"/><circle cx="85.8" cy="-9" r=".6" class="st1"/><circle cx="75.1" cy="-5.4" r=".6" class="st1"/><circle cx="78.7" cy="-5.4" r=".6" class="st1"/><circle cx="82.3" cy="-5.4" r=".6" class="st1"/><circle cx="85.8" cy="-5.4" r=".6" class="st1"/><circle cx="75.1" cy="-1.8" r=".6" class="st1"/><circle cx="78.7" cy="-1.8" r=".6" class="st1"/><circle cx="82.3" cy="-1.8" r=".6" class="st1"/><circle cx="85.8" cy="-1.8" r=".6" class="st1"/><circle cx="42.9" cy="-41.2" r=".6" class="st1"/><circle cx="42.9" cy="-37.6" r=".6" class="st1"/><circle cx="42.9" cy="-34" r=".6" class="st1"/><circle cx="42.9" cy="-30.4" r=".6" class="st1"/><circle cx="42.9" cy="-26.9" r=".6" class="st1"/><circle cx="42.9" cy="-23.3" r=".6" class="st1"/><circle cx="42.9" cy="-19.7" r=".6" class="st1"/><circle cx="42.9" cy="-16.1" r=".6" class="st1"/><circle cx="42.9" cy="-12.6" r=".6" class="st1"/><circle cx="42.9" cy="-9" r=".6" class="st1"/><circle cx="42.9" cy="-5.4" r=".6" class="st1"/><circle cx="42.9" cy="-1.8" r=".6" class="st1"/><g><defs><path id="SVGID_3_" d="M42.9-43H85.9V0H42.9z"/></defs><clipPath id="SVGID_4_"><use overflow="visible" xlink:href="#SVGID_3_"/></clipPath><circle cx="42.9" cy="-41.2" r=".6" class="st3"/><circle cx="42.9" cy="-37.6" r=".6" class="st3"/><circle cx="42.9" cy="-34" r=".6" class="st3"/><circle cx="42.9" cy="-30.4" r=".6" class="st3"/><circle cx="42.9" cy="-26.9" r=".6" class="st3"/><circle cx="42.9" cy="-23.3" r=".6" class="st3"/><circle cx="42.9" cy="-19.7" r=".6" class="st3"/><circle cx="42.9" cy="-16.1" r=".6" class="st3"/><circle cx="42.9" cy="-12.6" r=".6" class="st3"/><circle cx="42.9" cy="-9" r=".6" class="st3"/><circle cx="42.9" cy="-5.4" r=".6" class="st3"/><circle cx="42.9" cy="-1.8" r=".6" class="st3"/><circle cx="42.8" cy="-41.2" r=".6" class="st3"/><circle cx="42.8" cy="-37.6" r=".6" class="st3"/><circle cx="42.8" cy="-34" r=".6" class="st3"/><circle cx="42.8" cy="-30.4" r=".6" class="st3"/><circle cx="42.8" cy="-26.9" r=".6" class="st3"/><circle cx="42.8" cy="-23.3" r=".6" class="st3"/><circle cx="42.8" cy="-19.7" r=".6" class="st3"/><circle cx="42.8" cy="-16.1" r=".6" class="st3"/><circle cx="42.8" cy="-12.6" r=".6" class="st3"/><circle cx="42.8" cy="-9" r=".6" class="st3"/><circle cx="42.8" cy="-5.4" r=".6" class="st3"/><circle cx="42.8" cy="-1.8" r=".6" class="st3"/></g></g><g><circle cx="43" cy="-41.2" r=".6" class="st1"/><circle cx="43" cy="-37.6" r=".6" class="st1"/><circle cx="43" cy="-34" r=".6" class="st1"/><circle cx="43" cy="-30.4" r=".6" class="st1"/><circle cx="43" cy="-26.9" r=".6" class="st1"/><circle cx="43" cy="-23.3" r=".6" class="st1"/><circle cx="43" cy="-19.7" r=".6" class="st1"/><circle cx="43" cy="-16.1" r=".6" class="st1"/><circle cx="43" cy="-12.6" r=".6" class="st1"/><circle cx="43" cy="-9" r=".6" class="st1"/><circle cx="43" cy="-5.4" r=".6" class="st1"/><circle cx="43" cy="-1.8" r=".6" class="st1"/><circle cx="42.9" cy="-41.2" r=".6" class="st1"/><circle cx="42.9" cy="-37.6" r=".6" class="st1"/><circle cx="42.9" cy="-34" r=".6" class="st1"/><circle cx="42.9" cy="-30.4" r=".6" class="st1"/><circle cx="42.9" cy="-26.9" r=".6" class="st1"/><circle cx="42.9" cy="-23.3" r=".6" class="st1"/><circle cx="42.9" cy="-19.7" r=".6" class="st1"/><circle cx="42.9" cy="-16.1" r=".6" class="st1"/><circle cx="42.9" cy="-12.6" r=".6" class="st1"/><circle cx="42.9" cy="-9" r=".6" class="st1"/><circle cx="42.9" cy="-5.4" r=".6" class="st1"/><circle cx="42.9" cy="-1.8" r=".6" class="st1"/><g><defs><path id="SVGID_5_" d="M0-43H43V0H0z"/></defs><clipPath id="SVGID_6_"><use overflow="visible" xlink:href="#SVGID_5_"/></clipPath></g></g></pattern><path d="M79.7 162.4H180.9V176.70000000000002H79.7z" class="st4"/><path d="m181.6 177.4-51.1-.2h-25.4c-8.5 0-16.9.1-25.4.2-.4 0-.7-.3-.7-.7l-.1-14.3c0-.4.3-.8.8-.8 8.4-.1 16.9-.2 25.3-.2 8.4-.1 16.9 0 25.3 0 8.4 0 16.9.1 25.3.1 8.4.1 16.9.2 25.3.4.2 0 .4.2.5.4.1 5 .2 10.1.2 15.1zm-1.4-1.3c-.1-4.5.1-9 .2-13.6l.5.5c-8.4.2-16.9.3-25.3.4-8.4 0-16.9.1-25.3.1H105c-8.4 0-16.9-.1-25.3-.2l.8-.8-.1 14.3-.7-.7c8.4.1 16.8.2 25.2.2h25.2l50.1-.2z" class="st1"/><path d="M105.9 246.7H154.60000000000002V251.7H105.9z" class="st4"/><path d="m154.9 252-24.4.2h-24.6c-.3 0-.5-.2-.5-.5l.1-5c0-.2.2-.4.4-.4h48.7c.2 0 .4.2.4.4 0 1.8 0 3.6-.1 5.3zm-.5-.5c-.1-1.6-.1-3.2-.2-4.8l.4.4h-48.7l.4-.4.1 5-.5-.5h24.2l24.3.3z" class="st1"/><path d="M209.9 54.6c0 26.3-19 49.1-45.3 53.6l22.1-31.5-25.1 29.3c-2-28.8 18.9-54.4 47.9-57.8.3 2.1.4 4.3.4 6.4z" class="st4"/><path d="M210 54.6c0 6.4-1.2 12.7-3.3 18.7-2.1 6-5.4 11.6-9.4 16.5-4.1 4.9-9 9.1-14.6 12.4-5.5 3.2-11.7 5.4-18 6.6-.3.1-.6-.2-.7-.5 0-.2 0-.3.1-.4l22-31.6 1.2.9-25 29.4c-.4.4-1 .5-1.4.1-.2-.2-.3-.4-.3-.7-.5-7 .3-14.1 2.5-20.8 2.2-6.7 5.7-12.9 10.2-18.3 4.5-5.4 10.2-9.7 16.3-12.9 1.6-.7 3.1-1.5 4.7-2.2 1.6-.6 3.3-1.2 4.9-1.7 1.7-.4 3.4-.9 5-1.3l5.1-.8c.1 0 .2 0 .2.1.4 2.2.5 4.3.5 6.5zm-.2 0c0-2.2-.2-4.3-.4-6.4l.2.1-5.1.9c-1.7.4-3.3.9-5 1.4-1.6.6-3.2 1.3-4.8 1.9-1.6.7-3.1 1.6-4.6 2.3-6 3.4-11.2 7.9-15.5 13.2-4.3 5.3-7.5 11.4-9.6 17.8-2 6.5-2.9 13.3-2.5 20.1l-1.7-.6 25.3-29.1c.3-.3.8-.4 1.1-.1.3.3.3.7.1 1L165 108.5l-.6-.9c6.2-1 12.2-3.2 17.7-6.2 5.5-3.1 10.5-7.1 14.6-11.9 4.1-4.8 7.4-10.3 9.6-16.3 2.4-5.9 3.5-12.3 3.5-18.6z" class="st1"/><path d="M94.4 92.3 69.3 63l22.1 31.5c-26.3-4.4-45.3-27.3-45.3-53.6 0-2.1.1-4.3.4-6.5 28.9 3.5 49.9 29.1 47.9 57.9z" class="st4"/><path d="M94.4 92.4 69 63.3l.6-.4 22.3 31.4c.2.3.1.6-.1.8-.1.1-.3.1-.4.1-6.9-1.1-13.5-3.6-19.5-7.2s-11.2-8.4-15.5-14c-4.2-5.6-7.4-11.9-9.3-18.7-.4-1.7-.9-3.4-1.1-5.1l-.4-2.6c-.1-.9-.3-1.7-.3-2.6l-.1-2.6c-.1-.9-.1-1.8-.1-2.6 0-1.8.2-3.5.4-5.3.1-.6.6-1 1.1-.9 7 .8 13.8 3 20 6.4 6.2 3.4 11.6 8 16.1 13.4 4.5 5.4 7.8 11.7 9.8 18.4.4 1.7.9 3.4 1.3 5.1.3 1.7.6 3.4.8 5.2.1 1.7.2 3.5.3 5.2-.2 1.6-.4 3.4-.5 5.1zm-.1-.2c0-1.8-.1-3.4-.1-5.1-.1-1.7-.3-3.4-.5-5.1-.3-1.7-.7-3.4-1-5-.4-1.7-.9-3.3-1.4-4.9a54.4 54.4 0 0 0-10-17.7c-4.4-5.2-9.8-9.5-15.7-12.7-6-3.2-12.5-5.3-19.3-6.1l1.1-.9c-.2 1.7-.3 3.4-.4 5.1v2.5l.1 2.5c0 .8.1 1.7.2 2.5l.3 2.5c.2 1.7.7 3.3 1 5 1.7 6.6 4.7 12.8 8.8 18.2 4 5.5 9.1 10.1 14.9 13.7 5.8 3.6 12.3 6.1 19 7.2l-.6.9L69 63.3c-.1-.2-.1-.4.1-.5.2-.1.4-.1.5.1l24.7 29.3z" class="st1"/><g><path d="M145.8 42.8c0 13.2-4.8 26.4-14.3 36.8l-1.7-31.9-1.4 32.1C108.6 58.4 109 25 129.8 4.3c10.6 10.6 16 24.5 16 38.5z" class="st4"/><path d="M145.9 42.8c0 6.7-1.3 13.5-3.7 19.8-2.4 6.3-6 12.2-10.5 17.2-.1.1-.3.1-.5 0-.1-.1-.1-.1-.1-.2l-1-15.9-.9-15.9h1.2l-1.3 32.1c0 .4-.4.7-.8.7-.2 0-.4-.1-.5-.2-4.8-5.2-8.6-11.2-11.2-17.8-2.6-6.6-3.9-13.7-3.7-20.8.1-7.1 1.6-14.1 4.4-20.7 2.8-6.5 6.9-12.4 12-17.4.3-.3.8-.3 1.1 0 5 5.2 9 11.4 11.6 18.1 2.5 6.7 3.9 13.8 3.9 21zm-.2 0c0-3.6-.4-7.1-1.2-10.6-.7-3.5-1.8-6.9-3.2-10.1-2.8-6.5-7-12.4-12-17.2h1.2c-4.8 4.9-8.6 10.7-11.2 17-2.6 6.3-4.1 13.1-4.3 19.9-.2 6.8 1 13.7 3.4 20.1 2.4 6.4 6 12.4 10.7 17.4l-1.3.5 1.6-32.1c0-.3.3-.6.6-.5.3 0 .5.3.5.5l.7 15.9.7 15.9-.6-.2c4.6-4.9 8.2-10.6 10.7-16.9 2.4-6.2 3.6-12.9 3.7-19.6z" class="st1"/></g><g><pattern id="SVGID_7_" patternTransform="translate(14.4)" xlink:href="#New_Pattern_Swatch_1"/><path d="M79.7 162.4H180.9V176.70000000000002H79.7z" class="st5"/><path d="m181.6 177.4-51.1-.2h-25.4c-8.5 0-16.9.1-25.4.2-.4 0-.7-.3-.7-.7l-.1-14.3c0-.4.3-.8.8-.8 8.4-.1 16.9-.2 25.3-.2 8.4-.1 16.9 0 25.3 0 8.4 0 16.9.1 25.3.1 8.4.1 16.9.2 25.3.4.2 0 .4.2.5.4.1 5 .2 10.1.2 15.1zm-1.4-1.3c-.1-4.5.1-9 .2-13.6l.5.5c-8.4.2-16.9.3-25.3.4-8.4 0-16.9.1-25.3.1H105c-8.4 0-16.9-.1-25.3-.2l.8-.8-.1 14.3-.7-.7c8.4.1 16.8.2 25.2.2h25.2l50.1-.2z" class="st1"/><pattern id="SVGID_8_" patternTransform="translate(14.4)" xlink:href="#New_Pattern_Swatch_1"/><path d="M105.9 246.7H154.60000000000002V251.7H105.9z" class="st6"/><path d="m154.9 252-24.4.2h-24.6c-.3 0-.5-.2-.5-.5l.1-5c0-.2.2-.4.4-.4h48.7c.2 0 .4.2.4.4 0 1.8 0 3.6-.1 5.3zm-.5-.5c-.1-1.6-.1-3.2-.2-4.8l.4.4h-48.7l.4-.4.1 5-.5-.5h24.2l24.3.3z" class="st1"/><path d="M159 246.7 101.5 246.7 90.2 176.8 170.4 176.8z" class="st7"/><path d="m159.3 247-57.8.1c-.2 0-.4-.2-.4-.4l-5.9-34.9-5.8-35c-.1-.4.2-.8.6-.9H110.2l20.1.1 20.1.1 20.1.2c.3 0 .5.2.5.5v.1L159.3 247zm-.5-.6 11.1-69.8.5.6-20.1.2-20.1.1-20.1.1H90l.8-.9 5.5 35 5.5 35-.4-.4 57.4.1z" class="st1"/><path d="m128.9 238.7-20.4.5c-.4 0-.7-.3-.7-.6L99.6 185c0-.1 0-.1.1-.1s.1 0 .1.1l9.3 53.5-.7-.6 20.4.5c.1 0 .2.1.2.2l-.1.1z" class="st1"/><path d="M186.7 76.7 164.6 108.2 135.2 150.1 134.5 137.5 161.6 105.9z" class="st8"/><path d="M186.8 76.6c-2.1 3-4.2 6.1-6.3 9.1l-6.3 9.3c-4.2 6.2-8.6 12.5-12.8 18.6L148.5 132l-6.4 9.2-6.5 9.1c-.1.2-.4.2-.6.1-.1-.1-.2-.2-.2-.4 0-2.1-.2-4.2-.3-6.3l-.4-6.3c0-.1 0-.2.1-.3 4.1-5.3 8.4-10.4 12.7-15.5 4.3-5.1 8.6-10.2 13.1-15.2 4.4-5.1 9.1-10.3 13.7-15.3 4.5-4.9 8.9-9.7 13.1-14.5zm-.1.2c-4.5 5.3-8.8 10.6-12.9 15.8-4.1 5.2-8.2 10.1-12.4 15.1-4.3 5.1-8.7 10.2-13 15.2-4.4 5-8.9 10-13.4 14.9l.1-.3.3 6.3.3 6.3-.8-.2 6.4-9.2 6.4-9.2 12.9-18.3c4.4-6.1 8.6-12.1 13-18.1l6.6-9c2.1-3.2 4.3-6.3 6.5-9.3z" class="st1"/><g><pattern id="SVGID_9_" patternTransform="translate(14.4)" xlink:href="#New_Pattern_Swatch_1"/><path d="M209.9 54.6c0 26.3-19 49.1-45.3 53.6l22.1-31.5-25.1 29.3c-2-28.8 18.9-54.4 47.9-57.8.3 2.1.4 4.3.4 6.4z" class="st9"/><path d="M210 54.6c0 6.4-1.2 12.7-3.3 18.7-2.1 6-5.4 11.6-9.4 16.5-4.1 4.9-9 9.1-14.6 12.4-5.5 3.2-11.7 5.4-18 6.6-.3.1-.6-.2-.7-.5 0-.2 0-.3.1-.4l22-31.6 1.2.9-25 29.4c-.4.4-1 .5-1.4.1-.2-.2-.3-.4-.3-.7-.5-7 .3-14.1 2.5-20.8 2.2-6.7 5.7-12.9 10.2-18.3 4.5-5.4 10.2-9.7 16.3-12.9 1.6-.7 3.1-1.5 4.7-2.2 1.6-.6 3.3-1.2 4.9-1.7 1.7-.4 3.4-.9 5-1.3l5.1-.8c.1 0 .2 0 .2.1.4 2.2.5 4.3.5 6.5zm-.2 0c0-2.2-.2-4.3-.4-6.4l.2.1-5.1.9c-1.7.4-3.3.9-5 1.4-1.6.6-3.2 1.3-4.8 1.9-1.6.7-3.1 1.6-4.6 2.3-6 3.4-11.2 7.9-15.5 13.2-4.3 5.3-7.5 11.4-9.6 17.8-2 6.5-2.9 13.3-2.5 20.1l-1.7-.6 25.3-29.1c.3-.3.8-.4 1.1-.1.3.3.3.7.1 1L165 108.5l-.6-.9c6.2-1 12.2-3.2 17.7-6.2 5.5-3.1 10.5-7.1 14.6-11.9 4.1-4.8 7.4-10.3 9.6-16.3 2.4-5.9 3.5-12.3 3.5-18.6z" class="st1"/></g><g><path d="M126.2 129.3 125.6 143.2 91.4 94.5 69.3 63 94.4 92.3z" class="st8"/><path d="m127.1 129.8-.6 13.5c0 .5-.5.9-1 .9-.3 0-.6-.2-.7-.4L68.9 63.3c-.1-.2-.1-.5.1-.6.2-.1.4-.1.6.1l57 66.4.5.6zm-1.8-.9L68.9 63.3l.7-.5 56.7 79.9-1.7.5.6-13.5.1-.8z" class="st1"/></g><g><pattern id="SVGID_10_" patternTransform="translate(14.4)" xlink:href="#New_Pattern_Swatch_1"/><path d="M94.4 92.3 69.3 63l22.1 31.5c-26.3-4.4-45.3-27.3-45.3-53.6 0-2.1.1-4.3.4-6.5 28.9 3.5 49.9 29.1 47.9 57.9z" class="st10"/><path d="M94.4 92.4 69 63.3l.6-.4 22.3 31.4c.2.3.1.6-.1.8-.1.1-.3.1-.4.1-6.9-1.1-13.5-3.6-19.5-7.2s-11.2-8.4-15.5-14c-4.2-5.6-7.4-11.9-9.3-18.7-.4-1.7-.9-3.4-1.1-5.1l-.4-2.6c-.1-.9-.3-1.7-.3-2.6l-.1-2.6c-.1-.9-.1-1.8-.1-2.6 0-1.8.2-3.5.4-5.3.1-.6.6-1 1.1-.9 7 .8 13.8 3 20 6.4 6.2 3.4 11.6 8 16.1 13.4 4.5 5.4 7.8 11.7 9.8 18.4.4 1.7.9 3.4 1.3 5.1.3 1.7.6 3.4.8 5.2.1 1.7.2 3.5.3 5.2-.2 1.6-.4 3.4-.5 5.1zm-.1-.2c0-1.8-.1-3.4-.1-5.1-.1-1.7-.3-3.4-.5-5.1-.3-1.7-.7-3.4-1-5-.4-1.7-.9-3.3-1.4-4.9a54.4 54.4 0 0 0-10-17.7c-4.4-5.2-9.8-9.5-15.7-12.7-6-3.2-12.5-5.3-19.3-6.1l1.1-.9c-.2 1.7-.3 3.4-.4 5.1v2.5l.1 2.5c0 .8.1 1.7.2 2.5l.3 2.5c.2 1.7.7 3.3 1 5 1.7 6.6 4.7 12.8 8.8 18.2 4 5.5 9.1 10.1 14.9 13.7 5.8 3.6 12.3 6.1 19 7.2l-.6.9L69 63.3c-.1-.2-.1-.4.1-.5.2-.1.4-.1.5.1l24.7 29.3z" class="st1"/></g><g><path d="M135.8 162.4 124.7 162.4 125 155 125.3 148.2 125.6 143.2 126.2 129.3 128.4 79.8 129.8 47.6 131.5 79.5 134.5 137.5 135.2 150.1z" class="st8"/><path d="M136.2 163.1c-3.8.2-7.7.3-11.5.3-.5 0-1-.4-1-1 .3-9.6.8-19.1 1.2-28.7l1.4-28.7 1.4-28.7 1.5-28.7c0-.3.2-.5.5-.5.2 0 .4.2.5.5l3 57.4 1.5 28.7.8 14.3c.3 4.8.5 9.9.6 14.7l.1.4zm-.7-1.3c-.3-4.6-.6-9-.9-13.7l-.7-14.3-1.5-28.7-3-57.4h1l-1 28.7-1.1 28.7-1.1 28.7c-.4 9.6-.8 19.1-1.4 28.7l-1-1c3.5 0 6.9.1 10.4.3h.3z" class="st1"/></g><g><pattern id="SVGID_11_" patternTransform="translate(14.4)" xlink:href="#New_Pattern_Swatch_1"/><path d="M145.8 42.8c0 13.2-4.8 26.4-14.3 36.8l-1.7-31.9-1.4 32.1C108.6 58.4 109 25 129.8 4.3c10.6 10.6 16 24.5 16 38.5z" class="st11"/><path d="M145.9 42.8c0 6.7-1.3 13.5-3.7 19.8-2.4 6.3-6 12.2-10.5 17.2-.1.1-.3.1-.5 0-.1-.1-.1-.1-.1-.2l-1-15.9-.9-15.9h1.2l-1.3 32.1c0 .4-.4.7-.8.7-.2 0-.4-.1-.5-.2-4.8-5.2-8.6-11.2-11.2-17.8-2.6-6.6-3.9-13.7-3.7-20.8.1-7.1 1.6-14.1 4.4-20.7 2.8-6.5 6.9-12.4 12-17.4.3-.3.8-.3 1.1 0 5 5.2 9 11.4 11.6 18.1 2.5 6.7 3.9 13.8 3.9 21zm-.2 0c0-3.6-.4-7.1-1.2-10.6-.7-3.5-1.8-6.9-3.2-10.1-2.8-6.5-7-12.4-12-17.2h1.2c-4.8 4.9-8.6 10.7-11.2 17-2.6 6.3-4.1 13.1-4.3 19.9-.2 6.8 1 13.7 3.4 20.1 2.4 6.4 6 12.4 10.7 17.4l-1.3.5 1.6-32.1c0-.3.3-.6.6-.5.3 0 .5.3.5.5l.7 15.9.7 15.9-.6-.2c4.6-4.9 8.2-10.6 10.7-16.9 2.4-6.2 3.6-12.9 3.7-19.6z" class="st1"/></g></g><path d="M169.6 181.8 170.4 176.8 90.2 176.8 91 181.8z" class="st12"/></svg>