<?xml version="1.0" encoding="utf-8"?>
<!-- Generator: Adobe Illustrator 22.1.0, SVG Export Plug-In . SVG Version: 6.00 Build 0)  -->
<svg version="1.1" id="Layer_1" xmlns="http://www.w3.org/2000/svg" xmlns:xlink="http://www.w3.org/1999/xlink" x="0px" y="0px"
	 viewBox="0 0 256 256" style="enable-background:new 0 0 256 256;" xml:space="preserve">
<style type="text/css">
	.st0{fill:none;}
	.st1{fill:#253759;}
	.st2{clip-path:url(#SVGID_2_);fill:#253759;}
	.st3{clip-path:url(#SVGID_4_);fill:#253759;}
	.st4{fill:#FFFFFF;}
	.st5{fill:#A6D6FF;}
	.st6{fill:url(#SVGID_7_);}
	.st7{fill:url(#SVGID_8_);}
	.st8{fill:url(#SVGID_9_);}
	.st9{fill:url(#SVGID_10_);}
	.st10{fill:url(#SVGID_11_);}
	.st11{opacity:0.3;fill:#253759;}
</style>
<pattern  x="-1932" y="-552" width="42.9" height="43" patternUnits="userSpaceOnUse" id="New_Pattern_Swatch_1" viewBox="43 -43 42.9 43" style="overflow:visible;">
	<g>
		<rect x="43" y="-43" class="st0" width="42.9" height="43"/>
		<g>
			<g>
				<circle class="st1" cx="85.9" cy="-41.2" r="0.6"/>
				<circle class="st1" cx="85.9" cy="-37.6" r="0.6"/>
				<circle class="st1" cx="85.9" cy="-34" r="0.6"/>
				<circle class="st1" cx="85.9" cy="-30.4" r="0.6"/>
				<circle class="st1" cx="85.9" cy="-26.9" r="0.6"/>
				<circle class="st1" cx="85.9" cy="-23.3" r="0.6"/>
				<circle class="st1" cx="85.9" cy="-19.7" r="0.6"/>
				<circle class="st1" cx="85.9" cy="-16.1" r="0.6"/>
				<circle class="st1" cx="85.9" cy="-12.6" r="0.6"/>
				<circle class="st1" cx="85.9" cy="-9" r="0.6"/>
				<circle class="st1" cx="85.9" cy="-5.4" r="0.6"/>
				<circle class="st1" cx="85.9" cy="-1.8" r="0.6"/>
				<circle class="st1" cx="85.8" cy="-41.2" r="0.6"/>
				<circle class="st1" cx="85.8" cy="-37.6" r="0.6"/>
				<circle class="st1" cx="85.8" cy="-34" r="0.6"/>
				<circle class="st1" cx="85.8" cy="-30.4" r="0.6"/>
				<circle class="st1" cx="85.8" cy="-26.9" r="0.6"/>
				<circle class="st1" cx="85.8" cy="-23.3" r="0.6"/>
				<circle class="st1" cx="85.8" cy="-19.7" r="0.6"/>
				<circle class="st1" cx="85.8" cy="-16.1" r="0.6"/>
				<circle class="st1" cx="85.8" cy="-12.6" r="0.6"/>
				<circle class="st1" cx="85.8" cy="-9" r="0.6"/>
				<circle class="st1" cx="85.8" cy="-5.4" r="0.6"/>
				<circle class="st1" cx="85.8" cy="-1.8" r="0.6"/>
			</g>
			<g>
				<defs>
					<rect id="SVGID_1_" x="85.8" y="-43" width="43" height="43"/>
				</defs>
				<clipPath id="SVGID_2_">
					<use xlink:href="#SVGID_1_"  style="overflow:visible;"/>
				</clipPath>
				<circle class="st2" cx="85.8" cy="-41.2" r="0.6"/>
				<circle class="st2" cx="85.8" cy="-37.6" r="0.6"/>
				<circle class="st2" cx="85.8" cy="-34" r="0.6"/>
				<circle class="st2" cx="85.8" cy="-30.4" r="0.6"/>
				<circle class="st2" cx="85.8" cy="-26.9" r="0.6"/>
				<circle class="st2" cx="85.8" cy="-23.3" r="0.6"/>
				<circle class="st2" cx="85.8" cy="-19.7" r="0.6"/>
				<circle class="st2" cx="85.8" cy="-16.1" r="0.6"/>
				<circle class="st2" cx="85.8" cy="-12.6" r="0.6"/>
				<circle class="st2" cx="85.8" cy="-9" r="0.6"/>
				<circle class="st2" cx="85.8" cy="-5.4" r="0.6"/>
				<circle class="st2" cx="85.8" cy="-1.8" r="0.6"/>
				<circle class="st2" cx="85.7" cy="-41.2" r="0.6"/>
				<circle class="st2" cx="85.7" cy="-37.6" r="0.6"/>
				<circle class="st2" cx="85.7" cy="-34" r="0.6"/>
				<circle class="st2" cx="85.7" cy="-30.4" r="0.6"/>
				<circle class="st2" cx="85.7" cy="-26.9" r="0.6"/>
				<circle class="st2" cx="85.7" cy="-23.3" r="0.6"/>
				<circle class="st2" cx="85.7" cy="-19.7" r="0.6"/>
				<circle class="st2" cx="85.7" cy="-16.1" r="0.6"/>
				<circle class="st2" cx="85.7" cy="-12.6" r="0.6"/>
				<circle class="st2" cx="85.7" cy="-9" r="0.6"/>
				<circle class="st2" cx="85.7" cy="-5.4" r="0.6"/>
				<circle class="st2" cx="85.7" cy="-1.8" r="0.6"/>
			</g>
		</g>
		<g>
			<g>
				<circle class="st1" cx="85.9" cy="-41.2" r="0.6"/>
				<circle class="st1" cx="85.9" cy="-37.6" r="0.6"/>
				<circle class="st1" cx="85.9" cy="-34" r="0.6"/>
				<circle class="st1" cx="85.9" cy="-30.4" r="0.6"/>
				<circle class="st1" cx="85.9" cy="-26.9" r="0.6"/>
				<circle class="st1" cx="85.9" cy="-23.3" r="0.6"/>
				<circle class="st1" cx="85.9" cy="-19.7" r="0.6"/>
				<circle class="st1" cx="85.9" cy="-16.1" r="0.6"/>
				<circle class="st1" cx="85.9" cy="-12.6" r="0.6"/>
				<circle class="st1" cx="85.9" cy="-9" r="0.6"/>
				<circle class="st1" cx="85.9" cy="-5.4" r="0.6"/>
				<circle class="st1" cx="85.9" cy="-1.8" r="0.6"/>
				<circle class="st1" cx="43" cy="-41.2" r="0.6"/>
				<circle class="st1" cx="46.5" cy="-41.2" r="0.6"/>
				<circle class="st1" cx="50.1" cy="-41.2" r="0.6"/>
				<circle class="st1" cx="53.7" cy="-41.2" r="0.6"/>
				<circle class="st1" cx="43" cy="-37.6" r="0.6"/>
				<circle class="st1" cx="46.5" cy="-37.6" r="0.6"/>
				<circle class="st1" cx="50.1" cy="-37.6" r="0.6"/>
				<circle class="st1" cx="53.7" cy="-37.6" r="0.6"/>
				<circle class="st1" cx="43" cy="-34" r="0.6"/>
				<circle class="st1" cx="46.5" cy="-34" r="0.6"/>
				<circle class="st1" cx="50.1" cy="-34" r="0.6"/>
				<circle class="st1" cx="53.7" cy="-34" r="0.6"/>
				<circle class="st1" cx="43" cy="-30.4" r="0.6"/>
				<circle class="st1" cx="46.5" cy="-30.4" r="0.6"/>
				<circle class="st1" cx="50.1" cy="-30.4" r="0.6"/>
				<circle class="st1" cx="53.7" cy="-30.4" r="0.6"/>
				<circle class="st1" cx="43" cy="-26.9" r="0.6"/>
				<circle class="st1" cx="46.5" cy="-26.9" r="0.6"/>
				<circle class="st1" cx="50.1" cy="-26.9" r="0.6"/>
				<circle class="st1" cx="53.7" cy="-26.9" r="0.6"/>
				<circle class="st1" cx="43" cy="-23.3" r="0.6"/>
				<circle class="st1" cx="46.5" cy="-23.3" r="0.6"/>
				<circle class="st1" cx="50.1" cy="-23.3" r="0.6"/>
				<circle class="st1" cx="53.7" cy="-23.3" r="0.6"/>
				<circle class="st1" cx="57.3" cy="-41.2" r="0.6"/>
				<circle class="st1" cx="60.8" cy="-41.2" r="0.6"/>
				<circle class="st1" cx="64.4" cy="-41.2" r="0.6"/>
				<circle class="st1" cx="68" cy="-41.2" r="0.6"/>
				<circle class="st1" cx="71.5" cy="-41.2" r="0.6"/>
				<circle class="st1" cx="57.3" cy="-37.6" r="0.6"/>
				<circle class="st1" cx="60.8" cy="-37.6" r="0.6"/>
				<circle class="st1" cx="64.4" cy="-37.6" r="0.6"/>
				<circle class="st1" cx="68" cy="-37.6" r="0.6"/>
				<circle class="st1" cx="71.5" cy="-37.6" r="0.6"/>
				<circle class="st1" cx="57.3" cy="-34" r="0.6"/>
				<circle class="st1" cx="60.8" cy="-34" r="0.6"/>
				<circle class="st1" cx="64.4" cy="-34" r="0.6"/>
				<circle class="st1" cx="68" cy="-34" r="0.6"/>
				<circle class="st1" cx="71.5" cy="-34" r="0.6"/>
				<circle class="st1" cx="57.3" cy="-30.4" r="0.6"/>
				<circle class="st1" cx="60.8" cy="-30.4" r="0.6"/>
				<circle class="st1" cx="64.4" cy="-30.4" r="0.6"/>
				<circle class="st1" cx="68" cy="-30.4" r="0.6"/>
				<circle class="st1" cx="71.5" cy="-30.4" r="0.6"/>
				<circle class="st1" cx="57.3" cy="-26.9" r="0.6"/>
				<circle class="st1" cx="60.8" cy="-26.9" r="0.6"/>
				<circle class="st1" cx="64.4" cy="-26.9" r="0.6"/>
				<circle class="st1" cx="68" cy="-26.9" r="0.6"/>
				<circle class="st1" cx="71.5" cy="-26.9" r="0.6"/>
				<circle class="st1" cx="57.3" cy="-23.3" r="0.6"/>
				<circle class="st1" cx="60.8" cy="-23.3" r="0.6"/>
				<circle class="st1" cx="64.4" cy="-23.3" r="0.6"/>
				<circle class="st1" cx="68" cy="-23.3" r="0.6"/>
				<circle class="st1" cx="71.5" cy="-23.3" r="0.6"/>
				<circle class="st1" cx="75.1" cy="-41.2" r="0.6"/>
				<circle class="st1" cx="78.7" cy="-41.2" r="0.6"/>
				<circle class="st1" cx="82.3" cy="-41.2" r="0.6"/>
				<circle class="st1" cx="85.8" cy="-41.2" r="0.6"/>
				<circle class="st1" cx="75.1" cy="-37.6" r="0.6"/>
				<circle class="st1" cx="78.7" cy="-37.6" r="0.6"/>
				<circle class="st1" cx="82.3" cy="-37.6" r="0.6"/>
				<circle class="st1" cx="85.8" cy="-37.6" r="0.6"/>
				<circle class="st1" cx="75.1" cy="-34" r="0.6"/>
				<circle class="st1" cx="78.7" cy="-34" r="0.6"/>
				<circle class="st1" cx="82.3" cy="-34" r="0.6"/>
				<circle class="st1" cx="85.8" cy="-34" r="0.6"/>
				<circle class="st1" cx="75.1" cy="-30.4" r="0.6"/>
				<circle class="st1" cx="78.7" cy="-30.4" r="0.6"/>
				<circle class="st1" cx="82.3" cy="-30.4" r="0.6"/>
				<circle class="st1" cx="85.8" cy="-30.4" r="0.6"/>
				<circle class="st1" cx="75.1" cy="-26.9" r="0.6"/>
				<circle class="st1" cx="78.7" cy="-26.9" r="0.6"/>
				<circle class="st1" cx="82.3" cy="-26.9" r="0.6"/>
				<circle class="st1" cx="85.8" cy="-26.9" r="0.6"/>
				<circle class="st1" cx="75.1" cy="-23.3" r="0.6"/>
				<circle class="st1" cx="78.7" cy="-23.3" r="0.6"/>
				<circle class="st1" cx="82.3" cy="-23.3" r="0.6"/>
				<circle class="st1" cx="85.8" cy="-23.3" r="0.6"/>
				<circle class="st1" cx="43" cy="-19.7" r="0.6"/>
				<circle class="st1" cx="46.5" cy="-19.7" r="0.6"/>
				<circle class="st1" cx="50.1" cy="-19.7" r="0.6"/>
				<circle class="st1" cx="53.7" cy="-19.7" r="0.6"/>
				<circle class="st1" cx="43" cy="-16.1" r="0.6"/>
				<circle class="st1" cx="46.5" cy="-16.1" r="0.6"/>
				<circle class="st1" cx="50.1" cy="-16.1" r="0.6"/>
				<circle class="st1" cx="53.7" cy="-16.1" r="0.6"/>
				<circle class="st1" cx="43" cy="-12.6" r="0.6"/>
				<circle class="st1" cx="46.5" cy="-12.6" r="0.6"/>
				<circle class="st1" cx="50.1" cy="-12.6" r="0.6"/>
				<circle class="st1" cx="53.7" cy="-12.6" r="0.6"/>
				<circle class="st1" cx="43" cy="-9" r="0.6"/>
				<circle class="st1" cx="46.5" cy="-9" r="0.6"/>
				<circle class="st1" cx="50.1" cy="-9" r="0.6"/>
				<circle class="st1" cx="53.7" cy="-9" r="0.6"/>
				<circle class="st1" cx="43" cy="-5.4" r="0.6"/>
				<circle class="st1" cx="46.5" cy="-5.4" r="0.6"/>
				<circle class="st1" cx="50.1" cy="-5.4" r="0.6"/>
				<circle class="st1" cx="53.7" cy="-5.4" r="0.6"/>
				<circle class="st1" cx="43" cy="-1.8" r="0.6"/>
				<circle class="st1" cx="46.5" cy="-1.8" r="0.6"/>
				<circle class="st1" cx="50.1" cy="-1.8" r="0.6"/>
				<circle class="st1" cx="53.7" cy="-1.8" r="0.6"/>
				<circle class="st1" cx="57.3" cy="-19.7" r="0.6"/>
				<circle class="st1" cx="60.8" cy="-19.7" r="0.6"/>
				<circle class="st1" cx="64.4" cy="-19.7" r="0.6"/>
				<circle class="st1" cx="68" cy="-19.7" r="0.6"/>
				<circle class="st1" cx="71.5" cy="-19.7" r="0.6"/>
				<circle class="st1" cx="57.3" cy="-16.1" r="0.6"/>
				<circle class="st1" cx="60.8" cy="-16.1" r="0.6"/>
				<circle class="st1" cx="64.4" cy="-16.1" r="0.6"/>
				<circle class="st1" cx="68" cy="-16.1" r="0.6"/>
				<circle class="st1" cx="71.5" cy="-16.1" r="0.6"/>
				<circle class="st1" cx="57.3" cy="-12.6" r="0.6"/>
				<circle class="st1" cx="60.8" cy="-12.6" r="0.6"/>
				<circle class="st1" cx="64.4" cy="-12.6" r="0.6"/>
				<circle class="st1" cx="68" cy="-12.6" r="0.6"/>
				<circle class="st1" cx="71.5" cy="-12.6" r="0.6"/>
				<circle class="st1" cx="57.3" cy="-9" r="0.6"/>
				<circle class="st1" cx="60.8" cy="-9" r="0.6"/>
				<circle class="st1" cx="64.4" cy="-9" r="0.6"/>
				<circle class="st1" cx="68" cy="-9" r="0.6"/>
				<circle class="st1" cx="71.5" cy="-9" r="0.6"/>
				<circle class="st1" cx="57.3" cy="-5.4" r="0.6"/>
				<circle class="st1" cx="60.8" cy="-5.4" r="0.6"/>
				<circle class="st1" cx="64.4" cy="-5.4" r="0.6"/>
				<circle class="st1" cx="68" cy="-5.4" r="0.6"/>
				<circle class="st1" cx="71.5" cy="-5.4" r="0.6"/>
				<circle class="st1" cx="57.3" cy="-1.8" r="0.6"/>
				<circle class="st1" cx="60.8" cy="-1.8" r="0.6"/>
				<circle class="st1" cx="64.4" cy="-1.8" r="0.6"/>
				<circle class="st1" cx="68" cy="-1.8" r="0.6"/>
				<circle class="st1" cx="71.5" cy="-1.8" r="0.6"/>
				<circle class="st1" cx="75.1" cy="-19.7" r="0.6"/>
				<circle class="st1" cx="78.7" cy="-19.7" r="0.6"/>
				<circle class="st1" cx="82.3" cy="-19.7" r="0.6"/>
				<circle class="st1" cx="85.8" cy="-19.7" r="0.6"/>
				<circle class="st1" cx="75.1" cy="-16.1" r="0.6"/>
				<circle class="st1" cx="78.7" cy="-16.1" r="0.6"/>
				<circle class="st1" cx="82.3" cy="-16.1" r="0.6"/>
				<circle class="st1" cx="85.8" cy="-16.1" r="0.6"/>
				<circle class="st1" cx="75.1" cy="-12.6" r="0.6"/>
				<circle class="st1" cx="78.7" cy="-12.6" r="0.6"/>
				<circle class="st1" cx="82.3" cy="-12.6" r="0.6"/>
				<circle class="st1" cx="85.8" cy="-12.6" r="0.6"/>
				<circle class="st1" cx="75.1" cy="-9" r="0.6"/>
				<circle class="st1" cx="78.7" cy="-9" r="0.6"/>
				<circle class="st1" cx="82.3" cy="-9" r="0.6"/>
				<circle class="st1" cx="85.8" cy="-9" r="0.6"/>
				<circle class="st1" cx="75.1" cy="-5.4" r="0.6"/>
				<circle class="st1" cx="78.7" cy="-5.4" r="0.6"/>
				<circle class="st1" cx="82.3" cy="-5.4" r="0.6"/>
				<circle class="st1" cx="85.8" cy="-5.4" r="0.6"/>
				<circle class="st1" cx="75.1" cy="-1.8" r="0.6"/>
				<circle class="st1" cx="78.7" cy="-1.8" r="0.6"/>
				<circle class="st1" cx="82.3" cy="-1.8" r="0.6"/>
				<circle class="st1" cx="85.8" cy="-1.8" r="0.6"/>
				<circle class="st1" cx="42.9" cy="-41.2" r="0.6"/>
				<circle class="st1" cx="42.9" cy="-37.6" r="0.6"/>
				<circle class="st1" cx="42.9" cy="-34" r="0.6"/>
				<circle class="st1" cx="42.9" cy="-30.4" r="0.6"/>
				<circle class="st1" cx="42.9" cy="-26.9" r="0.6"/>
				<circle class="st1" cx="42.9" cy="-23.3" r="0.6"/>
				<circle class="st1" cx="42.9" cy="-19.7" r="0.6"/>
				<circle class="st1" cx="42.9" cy="-16.1" r="0.6"/>
				<circle class="st1" cx="42.9" cy="-12.6" r="0.6"/>
				<circle class="st1" cx="42.9" cy="-9" r="0.6"/>
				<circle class="st1" cx="42.9" cy="-5.4" r="0.6"/>
				<circle class="st1" cx="42.9" cy="-1.8" r="0.6"/>
			</g>
			<g>
				<defs>
					<rect id="SVGID_3_" x="42.9" y="-43" width="43" height="43"/>
				</defs>
				<clipPath id="SVGID_4_">
					<use xlink:href="#SVGID_3_"  style="overflow:visible;"/>
				</clipPath>
				<circle class="st3" cx="42.9" cy="-41.2" r="0.6"/>
				<circle class="st3" cx="42.9" cy="-37.6" r="0.6"/>
				<circle class="st3" cx="42.9" cy="-34" r="0.6"/>
				<circle class="st3" cx="42.9" cy="-30.4" r="0.6"/>
				<circle class="st3" cx="42.9" cy="-26.9" r="0.6"/>
				<circle class="st3" cx="42.9" cy="-23.3" r="0.6"/>
				<circle class="st3" cx="42.9" cy="-19.7" r="0.6"/>
				<circle class="st3" cx="42.9" cy="-16.1" r="0.6"/>
				<circle class="st3" cx="42.9" cy="-12.6" r="0.6"/>
				<circle class="st3" cx="42.9" cy="-9" r="0.6"/>
				<circle class="st3" cx="42.9" cy="-5.4" r="0.6"/>
				<circle class="st3" cx="42.9" cy="-1.8" r="0.6"/>
				<circle class="st3" cx="42.8" cy="-41.2" r="0.6"/>
				<circle class="st3" cx="42.8" cy="-37.6" r="0.6"/>
				<circle class="st3" cx="42.8" cy="-34" r="0.6"/>
				<circle class="st3" cx="42.8" cy="-30.4" r="0.6"/>
				<circle class="st3" cx="42.8" cy="-26.9" r="0.6"/>
				<circle class="st3" cx="42.8" cy="-23.3" r="0.6"/>
				<circle class="st3" cx="42.8" cy="-19.7" r="0.6"/>
				<circle class="st3" cx="42.8" cy="-16.1" r="0.6"/>
				<circle class="st3" cx="42.8" cy="-12.6" r="0.6"/>
				<circle class="st3" cx="42.8" cy="-9" r="0.6"/>
				<circle class="st3" cx="42.8" cy="-5.4" r="0.6"/>
				<circle class="st3" cx="42.8" cy="-1.8" r="0.6"/>
			</g>
		</g>
		<g>
			<g>
				<circle class="st1" cx="43" cy="-41.2" r="0.6"/>
				<circle class="st1" cx="43" cy="-37.6" r="0.6"/>
				<circle class="st1" cx="43" cy="-34" r="0.6"/>
				<circle class="st1" cx="43" cy="-30.4" r="0.6"/>
				<circle class="st1" cx="43" cy="-26.9" r="0.6"/>
				<circle class="st1" cx="43" cy="-23.3" r="0.6"/>
				<circle class="st1" cx="43" cy="-19.7" r="0.6"/>
				<circle class="st1" cx="43" cy="-16.1" r="0.6"/>
				<circle class="st1" cx="43" cy="-12.6" r="0.6"/>
				<circle class="st1" cx="43" cy="-9" r="0.6"/>
				<circle class="st1" cx="43" cy="-5.4" r="0.6"/>
				<circle class="st1" cx="43" cy="-1.8" r="0.6"/>
				<circle class="st1" cx="42.9" cy="-41.2" r="0.6"/>
				<circle class="st1" cx="42.9" cy="-37.6" r="0.6"/>
				<circle class="st1" cx="42.9" cy="-34" r="0.6"/>
				<circle class="st1" cx="42.9" cy="-30.4" r="0.6"/>
				<circle class="st1" cx="42.9" cy="-26.9" r="0.6"/>
				<circle class="st1" cx="42.9" cy="-23.3" r="0.6"/>
				<circle class="st1" cx="42.9" cy="-19.7" r="0.6"/>
				<circle class="st1" cx="42.9" cy="-16.1" r="0.6"/>
				<circle class="st1" cx="42.9" cy="-12.6" r="0.6"/>
				<circle class="st1" cx="42.9" cy="-9" r="0.6"/>
				<circle class="st1" cx="42.9" cy="-5.4" r="0.6"/>
				<circle class="st1" cx="42.9" cy="-1.8" r="0.6"/>
			</g>
			<g>
				<defs>
					<rect id="SVGID_5_" y="-43" width="43" height="43"/>
				</defs>
				<clipPath id="SVGID_6_">
					<use xlink:href="#SVGID_5_"  style="overflow:visible;"/>
				</clipPath>
			</g>
		</g>
	</g>
</pattern>
<g>
	<g>
		<polygon class="st4" points="145.1,210.6 138.2,212.2 46.2,232.7 5.3,49.9 62.9,37 62.9,210.6 		"/>
		<path class="st1" d="M145.2,210.6c-2,0.5-4.1,1-6.2,1.5l-6.2,1.4l-12.3,2.8l-24.7,5.7l-49.4,11.3c-0.4,0.1-0.7-0.1-0.8-0.5l0,0
			c-3.2-15.3-6.7-30.5-10-45.7l-10.3-45.7L4.6,50.1c-0.1-0.4,0.2-0.8,0.6-0.9l57.5-13c0.5-0.1,1,0.2,1.1,0.7c0,0.1,0,0.1,0,0.2
			l0.1,86.8c0,14.5,0,28.9-0.1,43.4l-0.2,43.4l-0.7-0.7c13.8,0.1,27.7,0.2,41.4,0.4C118,210.4,131.6,210.6,145.2,210.6z M145,210.6
			c-13.8,0-27.6,0.2-41.3,0.3c-13.6,0.2-27.2,0.3-40.8,0.4c-0.4,0-0.7-0.3-0.7-0.7v0v0L62,167.2c-0.1-14.5-0.1-28.9-0.1-43.4L62,37
			l1.1,0.9L5.5,50.7l0.6-0.9l20.3,91.5l10.2,45.7c3.5,15.2,6.8,30.5,10.4,45.7l-0.8-0.5l49.5-10.8l24.7-5.4l12.4-2.7l6.2-1.3
			C140.9,211.4,142.9,211.1,145,210.6z"/>
	</g>
	<g>
		<rect x="62.9" y="23.3" class="st4" width="137.6" height="187.3"/>
		<path class="st1" d="M200.9,22.9l0.1,187.7c0,0.3-0.2,0.5-0.5,0.5l-137.6,0.3c-0.4,0-0.8-0.4-0.8-0.8v0L62,116.9l-0.1-46.8
			c0-15.6-0.1-31.2,0.1-46.8l0,0c0-0.5,0.4-0.9,0.9-0.9L200.9,22.9z M200.1,23.7L62.9,24.2l0.9-0.9c0.1,15.6,0.1,31.2,0.1,46.8
			l-0.1,46.8l-0.1,93.7l-0.8-0.8l137.6,0.3l-0.5,0.5L200.1,23.7z"/>
	</g>
	<g>
		<path class="st1" d="M75.5,74.9l-0.4-40.8c0-0.2,0.2-0.4,0.4-0.4h0l0,0l56.7-0.4c0.4,0,0.8,0.3,0.8,0.8l0,0l0.2,10.2l0.1,10.2
			c0,3.4,0.1,6.8,0,10.2l0,10.2c0,0.6-0.5,1-1,1c-4.8,0-9.6,0-14.4-0.1l-14.3-0.2L75.5,74.9z M75.6,74.8l28.6-0.6l14.1-0.2
			c4.7-0.1,9.3-0.1,14-0.1l-1,1l0-10.2c0-3.4,0-6.8,0-10.2l0.1-10.2l0.2-10.2l0.8,0.8l-56.7-0.4l0.4-0.4L75.6,74.8z"/>
	</g>
	
		<rect x="88" y="30.6" transform="matrix(-1.836970e-16 1 -1 -1.836970e-16 158.3921 -49.3983)" class="st5" width="31.8" height="47.9"/>
	
		<rect x="154.8" y="119.9" transform="matrix(-1.836970e-16 1 -1 -1.836970e-16 303.3203 -31.3938)" class="st5" width="25.2" height="32.1"/>
	
		<rect x="154.1" y="163.3" transform="matrix(-1.836970e-16 1 -1 -1.836970e-16 346.7624 12.0482)" class="st5" width="26.5" height="32.1"/>
	<polygon class="st5" points="120.9,210.6 95,216.1 50.4,226.1 11.9,54.1 62.9,42.1 62.9,210.6 	"/>
	<polygon class="st5" points="244.3,51.2 215.2,225.1 138.2,212.2 145.1,210.6 200.5,210.6 200.5,43.9 	"/>
	<g>
		<pattern  id="SVGID_7_" xlink:href="#New_Pattern_Swatch_1" patternTransform="matrix(1 0 0 1 7.2 0)">
		</pattern>
		<rect x="80" y="38.6" class="st6" width="47.9" height="31.8"/>
		<path class="st1" d="M79.9,70.5l-0.3-31.9c0-0.2,0.2-0.4,0.4-0.4h0l0,0l47.9-0.4c0.4,0,0.8,0.3,0.8,0.8l0,0l0.1,8
			c0.1,2.7,0,5.3,0.1,8c0.1,5.3,0,10.6,0,15.9l0,0c0,0.6-0.5,1-1,1c-4,0-8.1,0-12.1-0.1l-12.1-0.2C95.6,70.9,87.6,70.7,79.9,70.5z
			 M80,70.3l24.2-0.7l11.8-0.2c3.9-0.1,7.9-0.1,11.8-0.1l-1,1c0-5.3,0-10.6,0-15.9c0-2.7,0-5.3,0.1-8l0.1-8l0.8,0.8L80,39l0.4-0.4
			L80,70.3z"/>
	</g>
	<g>
		<path class="st1" d="M141.8,54.4l11.5-0.4c3.8-0.1,7.7-0.3,11.5-0.3c3.8,0,7.7,0.1,11.5,0.2c3.8,0.2,7.7,0.3,11.5,0.5
			c0.1,0,0.1,0.1,0.1,0.1c0,0.1,0,0.1-0.1,0.1c-3.8,0.2-7.7,0.3-11.5,0.5c-3.8,0.1-7.7,0.3-11.5,0.2c-3.8,0-7.7-0.2-11.5-0.3
			l-11.5-0.4C141.7,54.6,141.7,54.5,141.8,54.4C141.7,54.4,141.7,54.4,141.8,54.4z"/>
	</g>
	<g>
		<path class="st1" d="M141.8,64.2l11.5-0.4c3.8-0.1,7.7-0.3,11.5-0.3c3.8,0,7.7,0.1,11.5,0.2c3.8,0.2,7.7,0.3,11.5,0.5
			c0.1,0,0.1,0.1,0.1,0.1c0,0.1,0,0.1-0.1,0.1c-3.8,0.2-7.7,0.3-11.5,0.5c-3.8,0.1-7.7,0.3-11.5,0.2c-3.8,0-7.7-0.2-11.5-0.3
			l-11.5-0.4C141.7,64.4,141.7,64.4,141.8,64.2C141.7,64.3,141.7,64.2,141.8,64.2z"/>
	</g>
	<g>
		<path class="st1" d="M141.8,74.1l11.5-0.4c3.8-0.1,7.7-0.3,11.5-0.3c3.8,0,7.7,0.1,11.5,0.2c3.8,0.2,7.7,0.3,11.5,0.5
			c0.1,0,0.1,0.1,0.1,0.1c0,0.1,0,0.1-0.1,0.1c-3.8,0.2-7.7,0.3-11.5,0.5c-3.8,0.1-7.7,0.3-11.5,0.2c-3.8,0-7.7-0.2-11.5-0.3
			l-11.5-0.4C141.7,74.3,141.7,74.2,141.8,74.1C141.7,74.1,141.7,74.1,141.8,74.1z"/>
	</g>
	<g>
		<path class="st1" d="M75.5,85.3l28.1-0.4l28.1-0.3c9.4-0.1,18.7-0.3,28.1-0.2c9.4,0.2,18.7,0.3,28.1,0.9c0.1,0,0.1,0.1,0.1,0.1
			c0,0.1,0,0.1-0.1,0.1c-9.4,0.6-18.7,0.7-28.1,0.9c-9.4,0.1-18.7-0.1-28.1-0.2l-28.1-0.3l-28.1-0.4C75.5,85.5,75.4,85.4,75.5,85.3
			C75.4,85.3,75.5,85.3,75.5,85.3z"/>
	</g>
	<g>
		<path class="st1" d="M75.5,96.4l28.1-0.4l28.1-0.3c9.4-0.1,18.7-0.3,28.1-0.2c9.4,0.2,18.7,0.3,28.1,0.9c0.1,0,0.1,0.1,0.1,0.1
			c0,0.1,0,0.1-0.1,0.1c-9.4,0.6-18.7,0.7-28.1,0.9c-9.4,0.1-18.7-0.1-28.1-0.2L103.6,97l-28.1-0.4C75.5,96.6,75.4,96.6,75.5,96.4
			C75.4,96.5,75.5,96.4,75.5,96.4z"/>
	</g>
	<g>
		<path class="st1" d="M75.5,107.6l28.1-0.4l28.1-0.3c9.4-0.1,18.7-0.3,28.1-0.2c9.4,0.2,18.7,0.3,28.1,0.9c0.1,0,0.1,0.1,0.1,0.1
			c0,0.1,0,0.1-0.1,0.1c-9.4,0.6-18.7,0.7-28.1,0.9c-9.4,0.1-18.7-0.1-28.1-0.2l-28.1-0.3l-28.1-0.4
			C75.5,107.8,75.4,107.8,75.5,107.6C75.4,107.7,75.5,107.6,75.5,107.6z"/>
	</g>
	<g>
		<path class="st1" d="M75.5,118.8l15.1-0.4l15.1-0.3c5-0.1,10.1-0.3,15.1-0.2c5,0.1,10.1,0.3,15.1,0.9c0.1,0,0.1,0.1,0.1,0.1
			c0,0,0,0.1-0.1,0.1c-5,0.6-10.1,0.8-15.1,0.9c-5,0.1-10.1-0.1-15.1-0.2l-15.1-0.3L75.5,119C75.5,119,75.4,119,75.5,118.8
			C75.4,118.9,75.5,118.8,75.5,118.8z"/>
	</g>
	<g>
		<path class="st1" d="M75.5,130l15.1-0.4l15.1-0.3c5-0.1,10.1-0.3,15.1-0.2c5,0.1,10.1,0.3,15.1,0.9c0.1,0,0.1,0.1,0.1,0.1
			c0,0,0,0.1-0.1,0.1c-5,0.6-10.1,0.8-15.1,0.9c-5,0.1-10.1-0.1-15.1-0.2l-15.1-0.3l-15.1-0.4C75.5,130.2,75.4,130.2,75.5,130
			C75.4,130.1,75.5,130,75.5,130z"/>
	</g>
	<g>
		<path class="st1" d="M75.5,141.2l15.1-0.4l15.1-0.3c5-0.1,10.1-0.3,15.1-0.2c5,0.1,10.1,0.3,15.1,0.9c0.1,0,0.1,0.1,0.1,0.1
			c0,0,0,0.1-0.1,0.1c-5,0.6-10.1,0.8-15.1,0.9c-5,0.1-10.1-0.1-15.1-0.2l-15.1-0.3l-15.1-0.4C75.5,141.4,75.4,141.4,75.5,141.2
			C75.4,141.3,75.5,141.2,75.5,141.2z"/>
	</g>
	<g>
		<path class="st1" d="M75.5,152.4l15.1-0.4l15.1-0.3c5-0.1,10.1-0.3,15.1-0.2c5,0.1,10.1,0.3,15.1,0.9c0.1,0,0.1,0.1,0.1,0.1
			c0,0,0,0.1-0.1,0.1c-5,0.6-10.1,0.8-15.1,0.9c-5,0.1-10.1-0.1-15.1-0.2L90.7,153l-15.1-0.4C75.5,152.6,75.4,152.6,75.5,152.4
			C75.4,152.5,75.5,152.4,75.5,152.4z"/>
	</g>
	<g>
		<path class="st1" d="M75.5,163.6l15.1-0.4l15.1-0.3c5-0.1,10.1-0.3,15.1-0.2c5,0.1,10.1,0.3,15.1,0.9c0.1,0,0.1,0.1,0.1,0.1
			c0,0,0,0.1-0.1,0.1c-5,0.6-10.1,0.8-15.1,0.9c-5,0.1-10.1-0.1-15.1-0.2l-15.1-0.3l-15.1-0.4C75.5,163.8,75.4,163.8,75.5,163.6
			C75.4,163.6,75.5,163.6,75.5,163.6z"/>
	</g>
	<g>
		<path class="st1" d="M75.5,174.8l15.1-0.4l15.1-0.3c5-0.1,10.1-0.3,15.1-0.2c5,0.1,10.1,0.3,15.1,0.9c0.1,0,0.1,0.1,0.1,0.1
			c0,0,0,0.1-0.1,0.1c-5,0.6-10.1,0.8-15.1,0.9c-5,0.1-10.1-0.1-15.1-0.2l-15.1-0.3L75.5,175C75.5,175,75.4,174.9,75.5,174.8
			C75.4,174.8,75.5,174.8,75.5,174.8z"/>
	</g>
	<g>
		<path class="st1" d="M75.5,186l15.1-0.4l15.1-0.3c5-0.1,10.1-0.3,15.1-0.2c5,0.1,10.1,0.3,15.1,0.9c0.1,0,0.1,0.1,0.1,0.1
			c0,0,0,0.1-0.1,0.1c-5,0.6-10.1,0.8-15.1,0.9c-5,0.1-10.1-0.1-15.1-0.2l-15.1-0.3l-15.1-0.4C75.5,186.2,75.4,186.1,75.5,186
			C75.4,186,75.5,186,75.5,186z"/>
	</g>
	<g>
		<path class="st1" d="M75.5,197.2l15.1-0.4l15.1-0.3c5-0.1,10.1-0.3,15.1-0.2c5,0.1,10.1,0.3,15.1,0.9c0.1,0,0.1,0.1,0.1,0.1
			c0,0,0,0.1-0.1,0.1c-5,0.6-10.1,0.8-15.1,0.9c-5,0.1-10.1-0.1-15.1-0.2l-15.1-0.3l-15.1-0.4C75.5,197.4,75.4,197.3,75.5,197.2
			C75.4,197.2,75.5,197.2,75.5,197.2z"/>
	</g>
	<g>
		<path class="st1" d="M188,153.2l-41.2,0.4c-0.3,0-0.5-0.2-0.5-0.5v0l0,0l-0.3-34.1c0-0.4,0.3-0.8,0.8-0.8h0l0,0l20.5-0.1l10.2-0.1
			c3.4,0,6.8-0.1,10.2,0l0,0c0.5,0,0.9,0.4,0.9,0.9L188,153.2z M187.7,152.8l-0.8-33.9l0.9,0.9c-3.4,0.1-6.8,0-10.2,0l-10.2-0.1
			l-20.5-0.1l0.8-0.8l-0.3,34.1l-0.5-0.5L187.7,152.8z"/>
	</g>
	<g>
		<pattern  id="SVGID_8_" xlink:href="#New_Pattern_Swatch_1" patternTransform="matrix(1 0 0 1 7.2 0)">
		</pattern>
		<rect x="151.3" y="123.4" class="st7" width="32.1" height="25.2"/>
		<path class="st1" d="M151.1,148.8l-0.2-25.4c0-0.2,0.2-0.4,0.4-0.5l0,0l32.1-0.3c0.4,0,0.8,0.3,0.8,0.8v0l-0.3,25.2
			c0,0.3-0.2,0.5-0.4,0.5l-0.1,0c-1.4,0.2-2.7,0.2-4.1,0.2l-4.1-0.1l-8.1-0.1C161.7,149,156.4,148.9,151.1,148.8z M151.5,148.3
			l16.1-0.3l7.9-0.1l4-0.1c1.3,0,2.6,0,4,0.2l-0.5,0.5l-0.3-25.2l0.8,0.8l-32.1-0.3l0.5-0.5L151.5,148.3z"/>
	</g>
	<g>
		<path class="st1" d="M188.3,197.8l-20.7,0.1l-10.4,0c-3.5,0-6.9-0.1-10.3,0c-0.3,0-0.5-0.2-0.5-0.5v0v0l-0.3-35.8
			c0-0.4,0.3-0.8,0.8-0.8h0l20.5,0.1l10.2,0l5.1,0c1.7,0,3.4,0.1,5.1-0.1c0.4,0,0.7,0.2,0.7,0.6l0,0.1v0.1
			C188.6,173.6,188.5,185.7,188.3,197.8z M187.4,196.8c-0.1-11.8-0.2-23.5-0.2-35.3l0.7,0.7c-1.7-0.2-3.4-0.1-5.1-0.1l-5.1,0
			l-10.2,0.1l-20.5,0.1l0.8-0.8l-0.3,35.8l-0.5-0.5c3.4,0,6.8,0,10.1,0l10.1,0L187.4,196.8z"/>
	</g>
	<g>
		<pattern  id="SVGID_9_" xlink:href="#New_Pattern_Swatch_1" patternTransform="matrix(1 0 0 1 7.2 0)">
		</pattern>
		<rect x="151.3" y="166.2" class="st8" width="32.1" height="26.5"/>
		<path class="st1" d="M150.8,193.1c-0.1-9,0-18,0-27c0-0.3,0.2-0.5,0.5-0.5l32.1-0.3c0.4,0,0.8,0.3,0.8,0.8v0l-0.2,26.5l0,0
			c0,0.3-0.3,0.6-0.6,0.6l0,0c-2.7-0.2-5.4-0.1-8.1-0.1l-8.2,0L150.8,193.1z M151.8,192.1l15.8,0l7.9,0c2.6,0,5.3,0.1,7.9-0.1
			l-0.6,0.6l-0.2-26.5l0.8,0.8l-32.1-0.3l0.5-0.5C151.8,174.9,151.9,183.5,151.8,192.1z"/>
	</g>
	<g>
		<pattern  id="SVGID_10_" xlink:href="#New_Pattern_Swatch_1" patternTransform="matrix(1 0 0 1 7.2 0)">
		</pattern>
		<polygon class="st9" points="120.9,210.6 95,216.1 50.4,226.1 11.9,54.1 62.9,42.1 62.9,210.6 		"/>
		<path class="st1" d="M122.1,210.5c-5.9,1.5-11.9,3.3-18.2,4.8c-3.1,0.7-6.2,1.4-9.2,2l-8.8,1.9l-35.3,7.7l0,0
			c-0.4,0.1-0.9-0.2-1-0.6l0,0c-3-14.4-6.1-28.7-9.3-43.1l-9.6-43l-19.4-86c-0.1-0.4,0.2-0.8,0.6-0.9l50.9-12.1
			c0.5-0.1,1,0.2,1.1,0.7c0,0.1,0,0.1,0,0.2l0.1,84.2c0,14-0.1,28.1-0.1,42.1l-0.1,21.1l-0.2,21.1l-0.6-0.6c9.8-0.1,19.7-0.2,29.6,0
			C102.5,210.1,112.3,210.3,122.1,210.5z M119.8,210.7c-9.6,0.2-19.1,0.4-28.5,0.5c-9.4,0.1-18.8,0.1-28.4,0c-0.4,0-0.6-0.3-0.6-0.6
			l-0.2-21.1L62,168.5c0-14-0.1-28.1-0.1-42.1L62,42.1l1.1,0.9l-51,11.8l0.6-0.9l19,86.1l9.6,43c3.2,14.3,6.5,28.6,9.9,42.9l-1-0.6
			l35.2-8l8.8-2c2.9-0.6,5.6-1.2,8.4-1.7C108.2,212.5,113.9,211.8,119.8,210.7z"/>
	</g>
	<g>
		<polygon class="st4" points="250.7,46.6 219.7,231.4 123.8,215.4 138.2,212.2 215.2,225.1 244.3,51.2 200.5,43.9 200.5,38.2 		"/>
		<path class="st1" d="M251,46.4l-30.7,185.1c0,0.3-0.3,0.5-0.6,0.4l0,0l-95.8-16.5c-0.1,0-0.1-0.1-0.1-0.1c0,0,0-0.1,0.1-0.1
			l14.2-3.8c0.1,0,0.2,0,0.3,0l0,0l77,12.8l-1,0.7l14.5-86.9c2.4-14.5,4.8-29,7.3-43.5l7.4-43.4l0.7,0.9l-21.9-3.7l-21.9-3.8l0,0
			c-0.3,0-0.5-0.3-0.4-0.5l0-5.6v0c0-0.3,0.2-0.5,0.5-0.5c0,0,0.1,0,0.1,0L251,46.4z M250.3,46.9l-49.9-8.1l0.6-0.5l0,5.6l-0.5-0.5
			l21.9,3.5l21.9,3.6c0.4,0.1,0.7,0.5,0.7,0.9v0l0,0l-7.1,43.5c-2.4,14.5-4.8,29-7.2,43.5l-14.6,86.9c-0.1,0.5-0.5,0.8-1,0.7l0,0
			l-77-13l0.3,0l-14.5,2.6l0-0.2l96,15.6l-0.6,0.4L250.3,46.9z"/>
	</g>
	<g>
		<pattern  id="SVGID_11_" xlink:href="#New_Pattern_Swatch_1" patternTransform="matrix(1 0 0 1 7.2 0)">
		</pattern>
		<polygon class="st10" points="244.3,51.2 215.2,225.1 138.2,212.2 145.1,210.6 200.5,210.6 200.5,43.9 		"/>
		<path class="st1" d="M244.4,51.1l-28.6,174c-0.1,0.3-0.4,0.5-0.7,0.5l0,0l-77-12.8c-0.4-0.1-0.6-0.4-0.6-0.8
			c0-0.3,0.3-0.5,0.5-0.6l0,0c2.3-0.6,4.6-1.1,6.9-1.6c0.1,0,0.1,0,0.2,0l0,0l55.4-0.2l-1,1l0-83.4l0.2-41.7l0.3-41.7v0
			c0-0.3,0.2-0.5,0.5-0.5c0,0,0.1,0,0.1,0L244.4,51.1z M244.2,51.3l-43.8-6.9l0.6-0.5l0.3,41.7l0.2,41.7l0,83.4c0,0.5-0.4,1-0.9,1h0
			l-55.4-0.2l0.2,0c-2.3,0.5-4.6,1-6.9,1.5l0-1.4l77,13l-0.7,0.5L244.2,51.3z"/>
	</g>
	<rect x="62.9" y="210.6" class="st11" width="137.6" height="5"/>
</g>
</svg>
