<?xml version="1.0" encoding="utf-8"?>
<!-- Generator: Adobe Illustrator 22.1.0, SVG Export Plug-In . SVG Version: 6.00 Build 0)  -->
<svg version="1.1" id="Layer_1" xmlns="http://www.w3.org/2000/svg" xmlns:xlink="http://www.w3.org/1999/xlink" x="0px" y="0px"
	 viewBox="0 0 256 256" style="enable-background:new 0 0 256 256;" xml:space="preserve">
<style type="text/css">
	.st0{fill:none;}
	.st1{fill:#253759;}
	.st2{clip-path:url(#SVGID_2_);fill:#253759;}
	.st3{clip-path:url(#SVGID_4_);fill:#253759;}
	.st4{fill:#A6D6FF;}
	.st5{fill:url(#SVGID_7_);}
	.st6{fill:url(#SVGID_8_);}
	.st7{fill:#A8A7C2;}
	.st8{fill:#FF9D9D;}
	.st9{fill:url(#SVGID_9_);}
	.st10{fill:url(#SVGID_10_);}
	.st11{fill:url(#SVGID_11_);}
	.st12{opacity:0.3;fill:#253759;}
</style>
<pattern  x="-2760" width="42.9" height="43" patternUnits="userSpaceOnUse" id="New_Pattern_Swatch_1" viewBox="43 -43 42.9 43" style="overflow:visible;">
	<g>
		<rect x="43" y="-43" class="st0" width="42.9" height="43"/>
		<g>
			<g>
				<circle class="st1" cx="85.9" cy="-41.2" r="0.6"/>
				<circle class="st1" cx="85.9" cy="-37.6" r="0.6"/>
				<circle class="st1" cx="85.9" cy="-34" r="0.6"/>
				<circle class="st1" cx="85.9" cy="-30.4" r="0.6"/>
				<circle class="st1" cx="85.9" cy="-26.9" r="0.6"/>
				<circle class="st1" cx="85.9" cy="-23.3" r="0.6"/>
				<circle class="st1" cx="85.9" cy="-19.7" r="0.6"/>
				<circle class="st1" cx="85.9" cy="-16.1" r="0.6"/>
				<circle class="st1" cx="85.9" cy="-12.6" r="0.6"/>
				<circle class="st1" cx="85.9" cy="-9" r="0.6"/>
				<circle class="st1" cx="85.9" cy="-5.4" r="0.6"/>
				<circle class="st1" cx="85.9" cy="-1.8" r="0.6"/>
				<circle class="st1" cx="85.8" cy="-41.2" r="0.6"/>
				<circle class="st1" cx="85.8" cy="-37.6" r="0.6"/>
				<circle class="st1" cx="85.8" cy="-34" r="0.6"/>
				<circle class="st1" cx="85.8" cy="-30.4" r="0.6"/>
				<circle class="st1" cx="85.8" cy="-26.9" r="0.6"/>
				<circle class="st1" cx="85.8" cy="-23.3" r="0.6"/>
				<circle class="st1" cx="85.8" cy="-19.7" r="0.6"/>
				<circle class="st1" cx="85.8" cy="-16.1" r="0.6"/>
				<circle class="st1" cx="85.8" cy="-12.6" r="0.6"/>
				<circle class="st1" cx="85.8" cy="-9" r="0.6"/>
				<circle class="st1" cx="85.8" cy="-5.4" r="0.6"/>
				<circle class="st1" cx="85.8" cy="-1.8" r="0.6"/>
			</g>
			<g>
				<defs>
					<rect id="SVGID_1_" x="85.8" y="-43" width="43" height="43"/>
				</defs>
				<clipPath id="SVGID_2_">
					<use xlink:href="#SVGID_1_"  style="overflow:visible;"/>
				</clipPath>
				<circle class="st2" cx="85.8" cy="-41.2" r="0.6"/>
				<circle class="st2" cx="85.8" cy="-37.6" r="0.6"/>
				<circle class="st2" cx="85.8" cy="-34" r="0.6"/>
				<circle class="st2" cx="85.8" cy="-30.4" r="0.6"/>
				<circle class="st2" cx="85.8" cy="-26.9" r="0.6"/>
				<circle class="st2" cx="85.8" cy="-23.3" r="0.6"/>
				<circle class="st2" cx="85.8" cy="-19.7" r="0.6"/>
				<circle class="st2" cx="85.8" cy="-16.1" r="0.6"/>
				<circle class="st2" cx="85.8" cy="-12.6" r="0.6"/>
				<circle class="st2" cx="85.8" cy="-9" r="0.6"/>
				<circle class="st2" cx="85.8" cy="-5.4" r="0.6"/>
				<circle class="st2" cx="85.8" cy="-1.8" r="0.6"/>
				<circle class="st2" cx="85.7" cy="-41.2" r="0.6"/>
				<circle class="st2" cx="85.7" cy="-37.6" r="0.6"/>
				<circle class="st2" cx="85.7" cy="-34" r="0.6"/>
				<circle class="st2" cx="85.7" cy="-30.4" r="0.6"/>
				<circle class="st2" cx="85.7" cy="-26.9" r="0.6"/>
				<circle class="st2" cx="85.7" cy="-23.3" r="0.6"/>
				<circle class="st2" cx="85.7" cy="-19.7" r="0.6"/>
				<circle class="st2" cx="85.7" cy="-16.1" r="0.6"/>
				<circle class="st2" cx="85.7" cy="-12.6" r="0.6"/>
				<circle class="st2" cx="85.7" cy="-9" r="0.6"/>
				<circle class="st2" cx="85.7" cy="-5.4" r="0.6"/>
				<circle class="st2" cx="85.7" cy="-1.8" r="0.6"/>
			</g>
		</g>
		<g>
			<g>
				<circle class="st1" cx="85.9" cy="-41.2" r="0.6"/>
				<circle class="st1" cx="85.9" cy="-37.6" r="0.6"/>
				<circle class="st1" cx="85.9" cy="-34" r="0.6"/>
				<circle class="st1" cx="85.9" cy="-30.4" r="0.6"/>
				<circle class="st1" cx="85.9" cy="-26.9" r="0.6"/>
				<circle class="st1" cx="85.9" cy="-23.3" r="0.6"/>
				<circle class="st1" cx="85.9" cy="-19.7" r="0.6"/>
				<circle class="st1" cx="85.9" cy="-16.1" r="0.6"/>
				<circle class="st1" cx="85.9" cy="-12.6" r="0.6"/>
				<circle class="st1" cx="85.9" cy="-9" r="0.6"/>
				<circle class="st1" cx="85.9" cy="-5.4" r="0.6"/>
				<circle class="st1" cx="85.9" cy="-1.8" r="0.6"/>
				<circle class="st1" cx="43" cy="-41.2" r="0.6"/>
				<circle class="st1" cx="46.5" cy="-41.2" r="0.6"/>
				<circle class="st1" cx="50.1" cy="-41.2" r="0.6"/>
				<circle class="st1" cx="53.7" cy="-41.2" r="0.6"/>
				<circle class="st1" cx="43" cy="-37.6" r="0.6"/>
				<circle class="st1" cx="46.5" cy="-37.6" r="0.6"/>
				<circle class="st1" cx="50.1" cy="-37.6" r="0.6"/>
				<circle class="st1" cx="53.7" cy="-37.6" r="0.6"/>
				<circle class="st1" cx="43" cy="-34" r="0.6"/>
				<circle class="st1" cx="46.5" cy="-34" r="0.6"/>
				<circle class="st1" cx="50.1" cy="-34" r="0.6"/>
				<circle class="st1" cx="53.7" cy="-34" r="0.6"/>
				<circle class="st1" cx="43" cy="-30.4" r="0.6"/>
				<circle class="st1" cx="46.5" cy="-30.4" r="0.6"/>
				<circle class="st1" cx="50.1" cy="-30.4" r="0.6"/>
				<circle class="st1" cx="53.7" cy="-30.4" r="0.6"/>
				<circle class="st1" cx="43" cy="-26.9" r="0.6"/>
				<circle class="st1" cx="46.5" cy="-26.9" r="0.6"/>
				<circle class="st1" cx="50.1" cy="-26.9" r="0.6"/>
				<circle class="st1" cx="53.7" cy="-26.9" r="0.6"/>
				<circle class="st1" cx="43" cy="-23.3" r="0.6"/>
				<circle class="st1" cx="46.5" cy="-23.3" r="0.6"/>
				<circle class="st1" cx="50.1" cy="-23.3" r="0.6"/>
				<circle class="st1" cx="53.7" cy="-23.3" r="0.6"/>
				<circle class="st1" cx="57.3" cy="-41.2" r="0.6"/>
				<circle class="st1" cx="60.8" cy="-41.2" r="0.6"/>
				<circle class="st1" cx="64.4" cy="-41.2" r="0.6"/>
				<circle class="st1" cx="68" cy="-41.2" r="0.6"/>
				<circle class="st1" cx="71.5" cy="-41.2" r="0.6"/>
				<circle class="st1" cx="57.3" cy="-37.6" r="0.6"/>
				<circle class="st1" cx="60.8" cy="-37.6" r="0.6"/>
				<circle class="st1" cx="64.4" cy="-37.6" r="0.6"/>
				<circle class="st1" cx="68" cy="-37.6" r="0.6"/>
				<circle class="st1" cx="71.5" cy="-37.6" r="0.6"/>
				<circle class="st1" cx="57.3" cy="-34" r="0.6"/>
				<circle class="st1" cx="60.8" cy="-34" r="0.6"/>
				<circle class="st1" cx="64.4" cy="-34" r="0.6"/>
				<circle class="st1" cx="68" cy="-34" r="0.6"/>
				<circle class="st1" cx="71.5" cy="-34" r="0.6"/>
				<circle class="st1" cx="57.3" cy="-30.4" r="0.6"/>
				<circle class="st1" cx="60.8" cy="-30.4" r="0.6"/>
				<circle class="st1" cx="64.4" cy="-30.4" r="0.6"/>
				<circle class="st1" cx="68" cy="-30.4" r="0.6"/>
				<circle class="st1" cx="71.5" cy="-30.4" r="0.6"/>
				<circle class="st1" cx="57.3" cy="-26.9" r="0.6"/>
				<circle class="st1" cx="60.8" cy="-26.9" r="0.6"/>
				<circle class="st1" cx="64.4" cy="-26.9" r="0.6"/>
				<circle class="st1" cx="68" cy="-26.9" r="0.6"/>
				<circle class="st1" cx="71.5" cy="-26.9" r="0.6"/>
				<circle class="st1" cx="57.3" cy="-23.3" r="0.6"/>
				<circle class="st1" cx="60.8" cy="-23.3" r="0.6"/>
				<circle class="st1" cx="64.4" cy="-23.3" r="0.6"/>
				<circle class="st1" cx="68" cy="-23.3" r="0.6"/>
				<circle class="st1" cx="71.5" cy="-23.3" r="0.6"/>
				<circle class="st1" cx="75.1" cy="-41.2" r="0.6"/>
				<circle class="st1" cx="78.7" cy="-41.2" r="0.6"/>
				<circle class="st1" cx="82.3" cy="-41.2" r="0.6"/>
				<circle class="st1" cx="85.8" cy="-41.2" r="0.6"/>
				<circle class="st1" cx="75.1" cy="-37.6" r="0.6"/>
				<circle class="st1" cx="78.7" cy="-37.6" r="0.6"/>
				<circle class="st1" cx="82.3" cy="-37.6" r="0.6"/>
				<circle class="st1" cx="85.8" cy="-37.6" r="0.6"/>
				<circle class="st1" cx="75.1" cy="-34" r="0.6"/>
				<circle class="st1" cx="78.7" cy="-34" r="0.6"/>
				<circle class="st1" cx="82.3" cy="-34" r="0.6"/>
				<circle class="st1" cx="85.8" cy="-34" r="0.6"/>
				<circle class="st1" cx="75.1" cy="-30.4" r="0.6"/>
				<circle class="st1" cx="78.7" cy="-30.4" r="0.6"/>
				<circle class="st1" cx="82.3" cy="-30.4" r="0.6"/>
				<circle class="st1" cx="85.8" cy="-30.4" r="0.6"/>
				<circle class="st1" cx="75.1" cy="-26.9" r="0.6"/>
				<circle class="st1" cx="78.7" cy="-26.9" r="0.6"/>
				<circle class="st1" cx="82.3" cy="-26.9" r="0.6"/>
				<circle class="st1" cx="85.8" cy="-26.9" r="0.6"/>
				<circle class="st1" cx="75.1" cy="-23.3" r="0.6"/>
				<circle class="st1" cx="78.7" cy="-23.3" r="0.6"/>
				<circle class="st1" cx="82.3" cy="-23.3" r="0.6"/>
				<circle class="st1" cx="85.8" cy="-23.3" r="0.6"/>
				<circle class="st1" cx="43" cy="-19.7" r="0.6"/>
				<circle class="st1" cx="46.5" cy="-19.7" r="0.6"/>
				<circle class="st1" cx="50.1" cy="-19.7" r="0.6"/>
				<circle class="st1" cx="53.7" cy="-19.7" r="0.6"/>
				<circle class="st1" cx="43" cy="-16.1" r="0.6"/>
				<circle class="st1" cx="46.5" cy="-16.1" r="0.6"/>
				<circle class="st1" cx="50.1" cy="-16.1" r="0.6"/>
				<circle class="st1" cx="53.7" cy="-16.1" r="0.6"/>
				<circle class="st1" cx="43" cy="-12.6" r="0.6"/>
				<circle class="st1" cx="46.5" cy="-12.6" r="0.6"/>
				<circle class="st1" cx="50.1" cy="-12.6" r="0.6"/>
				<circle class="st1" cx="53.7" cy="-12.6" r="0.6"/>
				<circle class="st1" cx="43" cy="-9" r="0.6"/>
				<circle class="st1" cx="46.5" cy="-9" r="0.6"/>
				<circle class="st1" cx="50.1" cy="-9" r="0.6"/>
				<circle class="st1" cx="53.7" cy="-9" r="0.6"/>
				<circle class="st1" cx="43" cy="-5.4" r="0.6"/>
				<circle class="st1" cx="46.5" cy="-5.4" r="0.6"/>
				<circle class="st1" cx="50.1" cy="-5.4" r="0.6"/>
				<circle class="st1" cx="53.7" cy="-5.4" r="0.6"/>
				<circle class="st1" cx="43" cy="-1.8" r="0.6"/>
				<circle class="st1" cx="46.5" cy="-1.8" r="0.6"/>
				<circle class="st1" cx="50.1" cy="-1.8" r="0.6"/>
				<circle class="st1" cx="53.7" cy="-1.8" r="0.6"/>
				<circle class="st1" cx="57.3" cy="-19.7" r="0.6"/>
				<circle class="st1" cx="60.8" cy="-19.7" r="0.6"/>
				<circle class="st1" cx="64.4" cy="-19.7" r="0.6"/>
				<circle class="st1" cx="68" cy="-19.7" r="0.6"/>
				<circle class="st1" cx="71.5" cy="-19.7" r="0.6"/>
				<circle class="st1" cx="57.3" cy="-16.1" r="0.6"/>
				<circle class="st1" cx="60.8" cy="-16.1" r="0.6"/>
				<circle class="st1" cx="64.4" cy="-16.1" r="0.6"/>
				<circle class="st1" cx="68" cy="-16.1" r="0.6"/>
				<circle class="st1" cx="71.5" cy="-16.1" r="0.6"/>
				<circle class="st1" cx="57.3" cy="-12.6" r="0.6"/>
				<circle class="st1" cx="60.8" cy="-12.6" r="0.6"/>
				<circle class="st1" cx="64.4" cy="-12.6" r="0.6"/>
				<circle class="st1" cx="68" cy="-12.6" r="0.6"/>
				<circle class="st1" cx="71.5" cy="-12.6" r="0.6"/>
				<circle class="st1" cx="57.3" cy="-9" r="0.6"/>
				<circle class="st1" cx="60.8" cy="-9" r="0.6"/>
				<circle class="st1" cx="64.4" cy="-9" r="0.6"/>
				<circle class="st1" cx="68" cy="-9" r="0.6"/>
				<circle class="st1" cx="71.5" cy="-9" r="0.6"/>
				<circle class="st1" cx="57.3" cy="-5.4" r="0.6"/>
				<circle class="st1" cx="60.8" cy="-5.4" r="0.6"/>
				<circle class="st1" cx="64.4" cy="-5.4" r="0.6"/>
				<circle class="st1" cx="68" cy="-5.4" r="0.6"/>
				<circle class="st1" cx="71.5" cy="-5.4" r="0.6"/>
				<circle class="st1" cx="57.3" cy="-1.8" r="0.6"/>
				<circle class="st1" cx="60.8" cy="-1.8" r="0.6"/>
				<circle class="st1" cx="64.4" cy="-1.8" r="0.6"/>
				<circle class="st1" cx="68" cy="-1.8" r="0.6"/>
				<circle class="st1" cx="71.5" cy="-1.8" r="0.6"/>
				<circle class="st1" cx="75.1" cy="-19.7" r="0.6"/>
				<circle class="st1" cx="78.7" cy="-19.7" r="0.6"/>
				<circle class="st1" cx="82.3" cy="-19.7" r="0.6"/>
				<circle class="st1" cx="85.8" cy="-19.7" r="0.6"/>
				<circle class="st1" cx="75.1" cy="-16.1" r="0.6"/>
				<circle class="st1" cx="78.7" cy="-16.1" r="0.6"/>
				<circle class="st1" cx="82.3" cy="-16.1" r="0.6"/>
				<circle class="st1" cx="85.8" cy="-16.1" r="0.6"/>
				<circle class="st1" cx="75.1" cy="-12.6" r="0.6"/>
				<circle class="st1" cx="78.7" cy="-12.6" r="0.6"/>
				<circle class="st1" cx="82.3" cy="-12.6" r="0.6"/>
				<circle class="st1" cx="85.8" cy="-12.6" r="0.6"/>
				<circle class="st1" cx="75.1" cy="-9" r="0.6"/>
				<circle class="st1" cx="78.7" cy="-9" r="0.6"/>
				<circle class="st1" cx="82.3" cy="-9" r="0.6"/>
				<circle class="st1" cx="85.8" cy="-9" r="0.6"/>
				<circle class="st1" cx="75.1" cy="-5.4" r="0.6"/>
				<circle class="st1" cx="78.7" cy="-5.4" r="0.6"/>
				<circle class="st1" cx="82.3" cy="-5.4" r="0.6"/>
				<circle class="st1" cx="85.8" cy="-5.4" r="0.6"/>
				<circle class="st1" cx="75.1" cy="-1.8" r="0.6"/>
				<circle class="st1" cx="78.7" cy="-1.8" r="0.6"/>
				<circle class="st1" cx="82.3" cy="-1.8" r="0.6"/>
				<circle class="st1" cx="85.8" cy="-1.8" r="0.6"/>
				<circle class="st1" cx="42.9" cy="-41.2" r="0.6"/>
				<circle class="st1" cx="42.9" cy="-37.6" r="0.6"/>
				<circle class="st1" cx="42.9" cy="-34" r="0.6"/>
				<circle class="st1" cx="42.9" cy="-30.4" r="0.6"/>
				<circle class="st1" cx="42.9" cy="-26.9" r="0.6"/>
				<circle class="st1" cx="42.9" cy="-23.3" r="0.6"/>
				<circle class="st1" cx="42.9" cy="-19.7" r="0.6"/>
				<circle class="st1" cx="42.9" cy="-16.1" r="0.6"/>
				<circle class="st1" cx="42.9" cy="-12.6" r="0.6"/>
				<circle class="st1" cx="42.9" cy="-9" r="0.6"/>
				<circle class="st1" cx="42.9" cy="-5.4" r="0.6"/>
				<circle class="st1" cx="42.9" cy="-1.8" r="0.6"/>
			</g>
			<g>
				<defs>
					<rect id="SVGID_3_" x="42.9" y="-43" width="43" height="43"/>
				</defs>
				<clipPath id="SVGID_4_">
					<use xlink:href="#SVGID_3_"  style="overflow:visible;"/>
				</clipPath>
				<circle class="st3" cx="42.9" cy="-41.2" r="0.6"/>
				<circle class="st3" cx="42.9" cy="-37.6" r="0.6"/>
				<circle class="st3" cx="42.9" cy="-34" r="0.6"/>
				<circle class="st3" cx="42.9" cy="-30.4" r="0.6"/>
				<circle class="st3" cx="42.9" cy="-26.9" r="0.6"/>
				<circle class="st3" cx="42.9" cy="-23.3" r="0.6"/>
				<circle class="st3" cx="42.9" cy="-19.7" r="0.6"/>
				<circle class="st3" cx="42.9" cy="-16.1" r="0.6"/>
				<circle class="st3" cx="42.9" cy="-12.6" r="0.6"/>
				<circle class="st3" cx="42.9" cy="-9" r="0.6"/>
				<circle class="st3" cx="42.9" cy="-5.4" r="0.6"/>
				<circle class="st3" cx="42.9" cy="-1.8" r="0.6"/>
				<circle class="st3" cx="42.8" cy="-41.2" r="0.6"/>
				<circle class="st3" cx="42.8" cy="-37.6" r="0.6"/>
				<circle class="st3" cx="42.8" cy="-34" r="0.6"/>
				<circle class="st3" cx="42.8" cy="-30.4" r="0.6"/>
				<circle class="st3" cx="42.8" cy="-26.9" r="0.6"/>
				<circle class="st3" cx="42.8" cy="-23.3" r="0.6"/>
				<circle class="st3" cx="42.8" cy="-19.7" r="0.6"/>
				<circle class="st3" cx="42.8" cy="-16.1" r="0.6"/>
				<circle class="st3" cx="42.8" cy="-12.6" r="0.6"/>
				<circle class="st3" cx="42.8" cy="-9" r="0.6"/>
				<circle class="st3" cx="42.8" cy="-5.4" r="0.6"/>
				<circle class="st3" cx="42.8" cy="-1.8" r="0.6"/>
			</g>
		</g>
		<g>
			<g>
				<circle class="st1" cx="43" cy="-41.2" r="0.6"/>
				<circle class="st1" cx="43" cy="-37.6" r="0.6"/>
				<circle class="st1" cx="43" cy="-34" r="0.6"/>
				<circle class="st1" cx="43" cy="-30.4" r="0.6"/>
				<circle class="st1" cx="43" cy="-26.9" r="0.6"/>
				<circle class="st1" cx="43" cy="-23.3" r="0.6"/>
				<circle class="st1" cx="43" cy="-19.7" r="0.6"/>
				<circle class="st1" cx="43" cy="-16.1" r="0.6"/>
				<circle class="st1" cx="43" cy="-12.6" r="0.6"/>
				<circle class="st1" cx="43" cy="-9" r="0.6"/>
				<circle class="st1" cx="43" cy="-5.4" r="0.6"/>
				<circle class="st1" cx="43" cy="-1.8" r="0.6"/>
				<circle class="st1" cx="42.9" cy="-41.2" r="0.6"/>
				<circle class="st1" cx="42.9" cy="-37.6" r="0.6"/>
				<circle class="st1" cx="42.9" cy="-34" r="0.6"/>
				<circle class="st1" cx="42.9" cy="-30.4" r="0.6"/>
				<circle class="st1" cx="42.9" cy="-26.9" r="0.6"/>
				<circle class="st1" cx="42.9" cy="-23.3" r="0.6"/>
				<circle class="st1" cx="42.9" cy="-19.7" r="0.6"/>
				<circle class="st1" cx="42.9" cy="-16.1" r="0.6"/>
				<circle class="st1" cx="42.9" cy="-12.6" r="0.6"/>
				<circle class="st1" cx="42.9" cy="-9" r="0.6"/>
				<circle class="st1" cx="42.9" cy="-5.4" r="0.6"/>
				<circle class="st1" cx="42.9" cy="-1.8" r="0.6"/>
			</g>
			<g>
				<defs>
					<rect id="SVGID_5_" y="-43" width="43" height="43"/>
				</defs>
				<clipPath id="SVGID_6_">
					<use xlink:href="#SVGID_5_"  style="overflow:visible;"/>
				</clipPath>
			</g>
		</g>
	</g>
</pattern>
<g>
	<g>
		<rect x="79.7" y="162.4" class="st4" width="101.2" height="14.3"/>
		<path class="st1" d="M181.6,177.4l-51.1-0.2l-25.4,0c-8.5,0-16.9,0.1-25.4,0.2c-0.4,0-0.7-0.3-0.7-0.7l0,0v0l-0.1-14.3
			c0-0.4,0.3-0.8,0.8-0.8l0,0c8.4-0.1,16.9-0.2,25.3-0.2c8.4-0.1,16.9,0,25.3,0c8.4,0,16.9,0.1,25.3,0.1c8.4,0.1,16.9,0.2,25.3,0.4
			c0.2,0,0.4,0.2,0.5,0.4l0,0C181.5,167.3,181.6,172.4,181.6,177.4z M180.2,176.1c-0.1-4.5,0.1-9,0.2-13.6l0.5,0.5
			c-8.4,0.2-16.9,0.3-25.3,0.4c-8.4,0-16.9,0.1-25.3,0.1c-8.4,0-16.9,0-25.3,0c-8.4,0-16.9-0.1-25.3-0.2l0.8-0.8l-0.1,14.3l-0.7-0.7
			c8.4,0.1,16.8,0.2,25.2,0.2l25.2,0L180.2,176.1z"/>
	</g>
	<g>
		<rect x="105.9" y="246.7" class="st4" width="48.7" height="5"/>
		<path class="st1" d="M154.9,252l-24.4,0.2l-12.3,0l-12.3,0l0,0c-0.3,0-0.5-0.2-0.5-0.5v0l0.1-5v0c0-0.2,0.2-0.4,0.4-0.4l48.7,0
			c0.2,0,0.4,0.2,0.4,0.4v0C155,248.5,155,250.3,154.9,252z M154.4,251.5c-0.1-1.6-0.1-3.2-0.2-4.8l0.4,0.4l-48.7,0l0.4-0.4l0.1,5
			l-0.5-0.5l12.1,0l12.1,0L154.4,251.5z"/>
	</g>
	<g>
		<path class="st4" d="M209.9,54.6c0,26.3-19,49.1-45.3,53.6l22.1-31.5l-25.1,29.3c-2-28.8,18.9-54.4,47.9-57.8
			C209.8,50.3,209.9,52.5,209.9,54.6z"/>
		<path class="st1" d="M210,54.6c0,6.4-1.2,12.7-3.3,18.7c-2.1,6-5.4,11.6-9.4,16.5c-4.1,4.9-9,9.1-14.6,12.4
			c-5.5,3.2-11.7,5.4-18,6.6c-0.3,0.1-0.6-0.2-0.7-0.5c0-0.2,0-0.3,0.1-0.4l0,0l22-31.6l1.2,0.9l-25,29.4c-0.4,0.4-1,0.5-1.4,0.1
			c-0.2-0.2-0.3-0.4-0.3-0.7l0,0c-0.5-7,0.3-14.1,2.5-20.8c2.2-6.7,5.7-12.9,10.2-18.3c4.5-5.4,10.2-9.7,16.3-12.9
			c1.6-0.7,3.1-1.5,4.7-2.2c1.6-0.6,3.3-1.2,4.9-1.7c1.7-0.4,3.4-0.9,5-1.3l5.1-0.8c0.1,0,0.2,0,0.2,0.1l0,0
			C209.9,50.3,210,52.4,210,54.6z M209.8,54.6c0-2.2-0.2-4.3-0.4-6.4l0.2,0.1l-5.1,0.9c-1.7,0.4-3.3,0.9-5,1.4
			c-1.6,0.6-3.2,1.3-4.8,1.9c-1.6,0.7-3.1,1.6-4.6,2.3c-6,3.4-11.2,7.9-15.5,13.2c-4.3,5.3-7.5,11.4-9.6,17.8
			c-2,6.5-2.9,13.3-2.5,20.1l-1.7-0.6l25.3-29.1l0,0c0.3-0.3,0.8-0.4,1.1-0.1c0.3,0.3,0.3,0.7,0.1,1l-22.3,31.4l-0.6-0.9
			c6.2-1,12.2-3.2,17.7-6.2c5.5-3.1,10.5-7.1,14.6-11.9c4.1-4.8,7.4-10.3,9.6-16.3C208.7,67.3,209.8,60.9,209.8,54.6z"/>
	</g>
	<g>
		<path class="st4" d="M94.4,92.3L69.3,63l22.1,31.5c-26.3-4.4-45.3-27.3-45.3-53.6c0-2.1,0.1-4.3,0.4-6.5
			C75.4,37.9,96.4,63.5,94.4,92.3z"/>
		<path class="st1" d="M94.4,92.4L69,63.3l0.6-0.4l22.3,31.4c0.2,0.3,0.1,0.6-0.1,0.8c-0.1,0.1-0.3,0.1-0.4,0.1l0,0
			c-6.9-1.1-13.5-3.6-19.5-7.2c-6-3.6-11.2-8.4-15.5-14c-4.2-5.6-7.4-11.9-9.3-18.7c-0.4-1.7-0.9-3.4-1.1-5.1l-0.4-2.6
			c-0.1-0.9-0.3-1.7-0.3-2.6l-0.1-2.6c-0.1-0.9-0.1-1.8-0.1-2.6c0-1.8,0.2-3.5,0.4-5.3c0.1-0.6,0.6-1,1.1-0.9l0,0
			c7,0.8,13.8,3,20,6.4c6.2,3.4,11.6,8,16.1,13.4c4.5,5.4,7.8,11.7,9.8,18.4c0.4,1.7,0.9,3.4,1.3,5.1c0.3,1.7,0.6,3.4,0.8,5.2
			c0.1,1.7,0.2,3.5,0.3,5.2C94.7,88.9,94.5,90.7,94.4,92.4z M94.3,92.2c0-1.8-0.1-3.4-0.1-5.1c-0.1-1.7-0.3-3.4-0.5-5.1
			c-0.3-1.7-0.7-3.4-1-5c-0.4-1.7-0.9-3.3-1.4-4.9c-2.2-6.5-5.6-12.5-10-17.7c-4.4-5.2-9.8-9.5-15.7-12.7c-6-3.2-12.5-5.3-19.3-6.1
			l1.1-0.9c-0.2,1.7-0.3,3.4-0.4,5.1c0,0.8,0,1.7,0,2.5l0.1,2.5c0,0.8,0.1,1.7,0.2,2.5l0.3,2.5c0.2,1.7,0.7,3.3,1,5
			c1.7,6.6,4.7,12.8,8.8,18.2c4,5.5,9.1,10.1,14.9,13.7c5.8,3.6,12.3,6.1,19,7.2l-0.6,0.9L69,63.3l0,0c-0.1-0.2-0.1-0.4,0.1-0.5
			c0.2-0.1,0.4-0.1,0.5,0.1L94.3,92.2z"/>
	</g>
	<g>
		<path class="st4" d="M145.8,42.8c0,13.2-4.8,26.4-14.3,36.8l-1.7-31.9l-1.4,32.1C108.6,58.4,109,25,129.8,4.3
			C140.4,14.9,145.8,28.8,145.8,42.8z"/>
		<path class="st1" d="M145.9,42.8c0,6.7-1.3,13.5-3.7,19.8c-2.4,6.3-6,12.2-10.5,17.2c-0.1,0.1-0.3,0.1-0.5,0
			c-0.1-0.1-0.1-0.1-0.1-0.2l0,0l-1-15.9l-0.9-15.9l1.2,0l-1.3,32.1c0,0.4-0.4,0.7-0.8,0.7c-0.2,0-0.4-0.1-0.5-0.2l0,0
			c-4.8-5.2-8.6-11.2-11.2-17.8c-2.6-6.6-3.9-13.7-3.7-20.8c0.1-7.1,1.6-14.1,4.4-20.7c2.8-6.5,6.9-12.4,12-17.4l0,0
			c0.3-0.3,0.8-0.3,1.1,0l0,0c5,5.2,9,11.4,11.6,18.1C144.5,28.5,145.9,35.6,145.9,42.8z M145.7,42.8c0-3.6-0.4-7.1-1.2-10.6
			c-0.7-3.5-1.8-6.9-3.2-10.1c-2.8-6.5-7-12.4-12-17.2l1.2,0c-4.8,4.9-8.6,10.7-11.2,17c-2.6,6.3-4.1,13.1-4.3,19.9
			c-0.2,6.8,1,13.7,3.4,20.1c2.4,6.4,6,12.4,10.7,17.4l-1.3,0.5l1.6-32.1l0,0c0-0.3,0.3-0.6,0.6-0.5c0.3,0,0.5,0.3,0.5,0.5l0.7,15.9
			l0.7,15.9l-0.6-0.2c4.6-4.9,8.2-10.6,10.7-16.9C144.4,56.2,145.6,49.5,145.7,42.8z"/>
	</g>
	<g>
		<g>
			<pattern  id="SVGID_7_" xlink:href="#New_Pattern_Swatch_1" patternTransform="matrix(1 0 0 1 14.4 0)">
			</pattern>
			<rect x="79.7" y="162.4" class="st5" width="101.2" height="14.3"/>
			<path class="st1" d="M181.6,177.4l-51.1-0.2l-25.4,0c-8.5,0-16.9,0.1-25.4,0.2c-0.4,0-0.7-0.3-0.7-0.7l0,0v0l-0.1-14.3
				c0-0.4,0.3-0.8,0.8-0.8l0,0c8.4-0.1,16.9-0.2,25.3-0.2c8.4-0.1,16.9,0,25.3,0c8.4,0,16.9,0.1,25.3,0.1c8.4,0.1,16.9,0.2,25.3,0.4
				c0.2,0,0.4,0.2,0.5,0.4l0,0C181.5,167.3,181.6,172.4,181.6,177.4z M180.2,176.1c-0.1-4.5,0.1-9,0.2-13.6l0.5,0.5
				c-8.4,0.2-16.9,0.3-25.3,0.4c-8.4,0-16.9,0.1-25.3,0.1c-8.4,0-16.9,0-25.3,0c-8.4,0-16.9-0.1-25.3-0.2l0.8-0.8l-0.1,14.3
				l-0.7-0.7c8.4,0.1,16.8,0.2,25.2,0.2l25.2,0L180.2,176.1z"/>
		</g>
		<g>
			<pattern  id="SVGID_8_" xlink:href="#New_Pattern_Swatch_1" patternTransform="matrix(1 0 0 1 14.4 0)">
			</pattern>
			<rect x="105.9" y="246.7" class="st6" width="48.7" height="5"/>
			<path class="st1" d="M154.9,252l-24.4,0.2l-12.3,0l-12.3,0l0,0c-0.3,0-0.5-0.2-0.5-0.5v0l0.1-5v0c0-0.2,0.2-0.4,0.4-0.4l48.7,0
				c0.2,0,0.4,0.2,0.4,0.4v0C155,248.5,155,250.3,154.9,252z M154.4,251.5c-0.1-1.6-0.1-3.2-0.2-4.8l0.4,0.4l-48.7,0l0.4-0.4l0.1,5
				l-0.5-0.5l12.1,0l12.1,0L154.4,251.5z"/>
		</g>
		<g>
			<polygon class="st7" points="159,246.7 101.5,246.7 90.2,176.8 170.4,176.8 			"/>
			<path class="st1" d="M159.3,247l-57.8,0.1c-0.2,0-0.4-0.2-0.4-0.4l-5.9-34.9l-5.8-35c-0.1-0.4,0.2-0.8,0.6-0.9c0,0,0.1,0,0.1,0
				l0,0c6.7,0,13.4,0,20.1,0l20.1,0.1l20.1,0.1l20.1,0.2l0,0c0.3,0,0.5,0.2,0.5,0.5c0,0,0,0.1,0,0.1L159.3,247z M158.8,246.4
				l11.1-69.8l0.5,0.6l-20.1,0.2l-20.1,0.1l-20.1,0.1c-6.7,0-13.4,0-20.1,0l0.8-0.9l5.5,35l5.5,35l-0.4-0.4L158.8,246.4z"/>
		</g>
		<g>
			<path class="st1" d="M128.9,238.7l-20.4,0.5c-0.4,0-0.7-0.3-0.7-0.6l0,0L99.6,185c0-0.1,0-0.1,0.1-0.1c0.1,0,0.1,0,0.1,0.1
				l9.3,53.5l-0.7-0.6l20.4,0.5c0.1,0,0.2,0.1,0.2,0.2C129,238.6,128.9,238.7,128.9,238.7z"/>
		</g>
		<g>
			<polygon class="st8" points="186.7,76.7 164.6,108.2 135.2,150.1 134.5,137.5 161.6,105.9 			"/>
			<path class="st1" d="M186.8,76.6c-2.1,3-4.2,6.1-6.3,9.1l-6.3,9.3c-4.2,6.2-8.6,12.5-12.8,18.6L148.5,132l-6.4,9.2l-6.5,9.1l0,0
				c-0.1,0.2-0.4,0.2-0.6,0.1c-0.1-0.1-0.2-0.2-0.2-0.4c0-2.1-0.2-4.2-0.3-6.3l-0.4-6.3c0-0.1,0-0.2,0.1-0.3l0,0
				c4.1-5.3,8.4-10.4,12.7-15.5c4.3-5.1,8.6-10.2,13.1-15.2c4.4-5.1,9.1-10.3,13.7-15.3C178.2,86.2,182.6,81.4,186.8,76.6z
				 M186.7,76.8c-4.5,5.3-8.8,10.6-12.9,15.8c-4.1,5.2-8.2,10.1-12.4,15.1c-4.3,5.1-8.7,10.2-13,15.2c-4.4,5-8.9,10-13.4,14.9
				l0.1-0.3l0.3,6.3c0.1,2.1,0.2,4.2,0.3,6.3l-0.8-0.2l6.4-9.2l6.4-9.2l12.9-18.3c4.4-6.1,8.6-12.1,13-18.1l6.6-9
				C182.3,82.9,184.5,79.8,186.7,76.8z"/>
		</g>
		<g>
			<pattern  id="SVGID_9_" xlink:href="#New_Pattern_Swatch_1" patternTransform="matrix(1 0 0 1 14.4 0)">
			</pattern>
			<path class="st9" d="M209.9,54.6c0,26.3-19,49.1-45.3,53.6l22.1-31.5l-25.1,29.3c-2-28.8,18.9-54.4,47.9-57.8
				C209.8,50.3,209.9,52.5,209.9,54.6z"/>
			<path class="st1" d="M210,54.6c0,6.4-1.2,12.7-3.3,18.7c-2.1,6-5.4,11.6-9.4,16.5c-4.1,4.9-9,9.1-14.6,12.4
				c-5.5,3.2-11.7,5.4-18,6.6c-0.3,0.1-0.6-0.2-0.7-0.5c0-0.2,0-0.3,0.1-0.4l0,0l22-31.6l1.2,0.9l-25,29.4c-0.4,0.4-1,0.5-1.4,0.1
				c-0.2-0.2-0.3-0.4-0.3-0.7l0,0c-0.5-7,0.3-14.1,2.5-20.8c2.2-6.7,5.7-12.9,10.2-18.3c4.5-5.4,10.2-9.7,16.3-12.9
				c1.6-0.7,3.1-1.5,4.7-2.2c1.6-0.6,3.3-1.2,4.9-1.7c1.7-0.4,3.4-0.9,5-1.3l5.1-0.8c0.1,0,0.2,0,0.2,0.1l0,0
				C209.9,50.3,210,52.4,210,54.6z M209.8,54.6c0-2.2-0.2-4.3-0.4-6.4l0.2,0.1l-5.1,0.9c-1.7,0.4-3.3,0.9-5,1.4
				c-1.6,0.6-3.2,1.3-4.8,1.9c-1.6,0.7-3.1,1.6-4.6,2.3c-6,3.4-11.2,7.9-15.5,13.2c-4.3,5.3-7.5,11.4-9.6,17.8
				c-2,6.5-2.9,13.3-2.5,20.1l-1.7-0.6l25.3-29.1l0,0c0.3-0.3,0.8-0.4,1.1-0.1c0.3,0.3,0.3,0.7,0.1,1l-22.3,31.4l-0.6-0.9
				c6.2-1,12.2-3.2,17.7-6.2c5.5-3.1,10.5-7.1,14.6-11.9c4.1-4.8,7.4-10.3,9.6-16.3C208.7,67.3,209.8,60.9,209.8,54.6z"/>
		</g>
		<g>
			<polygon class="st8" points="126.2,129.3 125.6,143.2 91.4,94.5 69.3,63 94.4,92.3 			"/>
			<path class="st1" d="M127.1,129.8l-0.6,13.5c0,0.5-0.5,0.9-1,0.9c-0.3,0-0.6-0.2-0.7-0.4L68.9,63.3c-0.1-0.2-0.1-0.5,0.1-0.6
				c0.2-0.1,0.4-0.1,0.6,0.1l57,66.4L127.1,129.8z M125.3,128.9L68.9,63.3l0.7-0.5l56.7,79.9l-1.7,0.5l0.6-13.5L125.3,128.9z"/>
		</g>
		<g>
			<pattern  id="SVGID_10_" xlink:href="#New_Pattern_Swatch_1" patternTransform="matrix(1 0 0 1 14.4 0)">
			</pattern>
			<path class="st10" d="M94.4,92.3L69.3,63l22.1,31.5c-26.3-4.4-45.3-27.3-45.3-53.6c0-2.1,0.1-4.3,0.4-6.5
				C75.4,37.9,96.4,63.5,94.4,92.3z"/>
			<path class="st1" d="M94.4,92.4L69,63.3l0.6-0.4l22.3,31.4c0.2,0.3,0.1,0.6-0.1,0.8c-0.1,0.1-0.3,0.1-0.4,0.1l0,0
				c-6.9-1.1-13.5-3.6-19.5-7.2c-6-3.6-11.2-8.4-15.5-14c-4.2-5.6-7.4-11.9-9.3-18.7c-0.4-1.7-0.9-3.4-1.1-5.1l-0.4-2.6
				c-0.1-0.9-0.3-1.7-0.3-2.6l-0.1-2.6c-0.1-0.9-0.1-1.8-0.1-2.6c0-1.8,0.2-3.5,0.4-5.3c0.1-0.6,0.6-1,1.1-0.9l0,0
				c7,0.8,13.8,3,20,6.4c6.2,3.4,11.6,8,16.1,13.4c4.5,5.4,7.8,11.7,9.8,18.4c0.4,1.7,0.9,3.4,1.3,5.1c0.3,1.7,0.6,3.4,0.8,5.2
				c0.1,1.7,0.2,3.5,0.3,5.2C94.7,88.9,94.5,90.7,94.4,92.4z M94.3,92.2c0-1.8-0.1-3.4-0.1-5.1c-0.1-1.7-0.3-3.4-0.5-5.1
				c-0.3-1.7-0.7-3.4-1-5c-0.4-1.7-0.9-3.3-1.4-4.9c-2.2-6.5-5.6-12.5-10-17.7c-4.4-5.2-9.8-9.5-15.7-12.7c-6-3.2-12.5-5.3-19.3-6.1
				l1.1-0.9c-0.2,1.7-0.3,3.4-0.4,5.1c0,0.8,0,1.7,0,2.5l0.1,2.5c0,0.8,0.1,1.7,0.2,2.5l0.3,2.5c0.2,1.7,0.7,3.3,1,5
				c1.7,6.6,4.7,12.8,8.8,18.2c4,5.5,9.1,10.1,14.9,13.7c5.8,3.6,12.3,6.1,19,7.2l-0.6,0.9L69,63.3l0,0c-0.1-0.2-0.1-0.4,0.1-0.5
				c0.2-0.1,0.4-0.1,0.5,0.1L94.3,92.2z"/>
		</g>
		<g>
			<polygon class="st8" points="135.8,162.4 124.7,162.4 125,155 125.3,148.2 125.6,143.2 126.2,129.3 128.4,79.8 129.8,47.6 
				131.5,79.5 134.5,137.5 135.2,150.1 			"/>
			<path class="st1" d="M136.2,163.1c-3.8,0.2-7.7,0.3-11.5,0.3c-0.5,0-1-0.4-1-1c0,0,0,0,0,0c0.3-9.6,0.8-19.1,1.2-28.7l1.4-28.7
				l1.4-28.7l1.5-28.7c0-0.3,0.2-0.5,0.5-0.5c0.2,0,0.4,0.2,0.5,0.5l3,57.4l1.5,28.7l0.8,14.3c0.3,4.8,0.5,9.9,0.6,14.7L136.2,163.1
				z M135.5,161.8c-0.3-4.6-0.6-9-0.9-13.7l-0.7-14.3l-1.5-28.7l-3-57.4l1,0l-1,28.7l-1.1,28.7l-1.1,28.7
				c-0.4,9.6-0.8,19.1-1.4,28.7l-1-1c3.5,0,6.9,0.1,10.4,0.3L135.5,161.8z"/>
		</g>
		<g>
			<pattern  id="SVGID_11_" xlink:href="#New_Pattern_Swatch_1" patternTransform="matrix(1 0 0 1 14.4 0)">
			</pattern>
			<path class="st11" d="M145.8,42.8c0,13.2-4.8,26.4-14.3,36.8l-1.7-31.9l-1.4,32.1C108.6,58.4,109,25,129.8,4.3
				C140.4,14.9,145.8,28.8,145.8,42.8z"/>
			<path class="st1" d="M145.9,42.8c0,6.7-1.3,13.5-3.7,19.8c-2.4,6.3-6,12.2-10.5,17.2c-0.1,0.1-0.3,0.1-0.5,0
				c-0.1-0.1-0.1-0.1-0.1-0.2l0,0l-1-15.9l-0.9-15.9l1.2,0l-1.3,32.1c0,0.4-0.4,0.7-0.8,0.7c-0.2,0-0.4-0.1-0.5-0.2l0,0
				c-4.8-5.2-8.6-11.2-11.2-17.8c-2.6-6.6-3.9-13.7-3.7-20.8c0.1-7.1,1.6-14.1,4.4-20.7c2.8-6.5,6.9-12.4,12-17.4l0,0
				c0.3-0.3,0.8-0.3,1.1,0l0,0c5,5.2,9,11.4,11.6,18.1C144.5,28.5,145.9,35.6,145.9,42.8z M145.7,42.8c0-3.6-0.4-7.1-1.2-10.6
				c-0.7-3.5-1.8-6.9-3.2-10.1c-2.8-6.5-7-12.4-12-17.2l1.2,0c-4.8,4.9-8.6,10.7-11.2,17c-2.6,6.3-4.1,13.1-4.3,19.9
				c-0.2,6.8,1,13.7,3.4,20.1c2.4,6.4,6,12.4,10.7,17.4l-1.3,0.5l1.6-32.1l0,0c0-0.3,0.3-0.6,0.6-0.5c0.3,0,0.5,0.3,0.5,0.5
				l0.7,15.9l0.7,15.9l-0.6-0.2c4.6-4.9,8.2-10.6,10.7-16.9C144.4,56.2,145.6,49.5,145.7,42.8z"/>
		</g>
	</g>
	<polygon class="st12" points="169.6,181.8 170.4,176.8 90.2,176.8 91,181.8 	"/>
</g>
</svg>
