<?xml version="1.0" encoding="utf-8"?>
<!-- Generator: Adobe Illustrator 22.1.0, SVG Export Plug-In . SVG Version: 6.00 Build 0)  -->
<svg version="1.1" id="Layer_1" xmlns="http://www.w3.org/2000/svg" xmlns:xlink="http://www.w3.org/1999/xlink" x="0px" y="0px"
	 viewBox="0 0 256 256" style="enable-background:new 0 0 256 256;" xml:space="preserve">
<style type="text/css">
	.st0{fill:none;}
	.st1{fill:#253759;}
	.st2{clip-path:url(#SVGID_2_);fill:#253759;}
	.st3{clip-path:url(#SVGID_4_);fill:#253759;}
	.st4{fill:#FFFFFF;}
	.st5{fill:#A6D6FF;}
	.st6{fill:url(#SVGID_7_);}
	.st7{fill:url(#SVGID_8_);}
	.st8{fill:url(#SVGID_9_);}
	.st9{fill:url(#SVGID_10_);}
	.st10{fill:url(#SVGID_11_);}
	.st11{opacity:0.3;fill:#253759;}
</style>
<pattern  x="-2208" width="42.9" height="43" patternUnits="userSpaceOnUse" id="New_Pattern_Swatch_1" viewBox="43 -43 42.9 43" style="overflow:visible;">
	<g>
		<rect x="43" y="-43" class="st0" width="42.9" height="43"/>
		<g>
			<g>
				<circle class="st1" cx="85.9" cy="-41.2" r="0.6"/>
				<circle class="st1" cx="85.9" cy="-37.6" r="0.6"/>
				<circle class="st1" cx="85.9" cy="-34" r="0.6"/>
				<circle class="st1" cx="85.9" cy="-30.4" r="0.6"/>
				<circle class="st1" cx="85.9" cy="-26.9" r="0.6"/>
				<circle class="st1" cx="85.9" cy="-23.3" r="0.6"/>
				<circle class="st1" cx="85.9" cy="-19.7" r="0.6"/>
				<circle class="st1" cx="85.9" cy="-16.1" r="0.6"/>
				<circle class="st1" cx="85.9" cy="-12.6" r="0.6"/>
				<circle class="st1" cx="85.9" cy="-9" r="0.6"/>
				<circle class="st1" cx="85.9" cy="-5.4" r="0.6"/>
				<circle class="st1" cx="85.9" cy="-1.8" r="0.6"/>
				<circle class="st1" cx="85.8" cy="-41.2" r="0.6"/>
				<circle class="st1" cx="85.8" cy="-37.6" r="0.6"/>
				<circle class="st1" cx="85.8" cy="-34" r="0.6"/>
				<circle class="st1" cx="85.8" cy="-30.4" r="0.6"/>
				<circle class="st1" cx="85.8" cy="-26.9" r="0.6"/>
				<circle class="st1" cx="85.8" cy="-23.3" r="0.6"/>
				<circle class="st1" cx="85.8" cy="-19.7" r="0.6"/>
				<circle class="st1" cx="85.8" cy="-16.1" r="0.6"/>
				<circle class="st1" cx="85.8" cy="-12.6" r="0.6"/>
				<circle class="st1" cx="85.8" cy="-9" r="0.6"/>
				<circle class="st1" cx="85.8" cy="-5.4" r="0.6"/>
				<circle class="st1" cx="85.8" cy="-1.8" r="0.6"/>
			</g>
			<g>
				<defs>
					<rect id="SVGID_1_" x="85.8" y="-43" width="43" height="43"/>
				</defs>
				<clipPath id="SVGID_2_">
					<use xlink:href="#SVGID_1_"  style="overflow:visible;"/>
				</clipPath>
				<circle class="st2" cx="85.8" cy="-41.2" r="0.6"/>
				<circle class="st2" cx="85.8" cy="-37.6" r="0.6"/>
				<circle class="st2" cx="85.8" cy="-34" r="0.6"/>
				<circle class="st2" cx="85.8" cy="-30.4" r="0.6"/>
				<circle class="st2" cx="85.8" cy="-26.9" r="0.6"/>
				<circle class="st2" cx="85.8" cy="-23.3" r="0.6"/>
				<circle class="st2" cx="85.8" cy="-19.7" r="0.6"/>
				<circle class="st2" cx="85.8" cy="-16.1" r="0.6"/>
				<circle class="st2" cx="85.8" cy="-12.6" r="0.6"/>
				<circle class="st2" cx="85.8" cy="-9" r="0.6"/>
				<circle class="st2" cx="85.8" cy="-5.4" r="0.6"/>
				<circle class="st2" cx="85.8" cy="-1.8" r="0.6"/>
				<circle class="st2" cx="85.7" cy="-41.2" r="0.6"/>
				<circle class="st2" cx="85.7" cy="-37.6" r="0.6"/>
				<circle class="st2" cx="85.7" cy="-34" r="0.6"/>
				<circle class="st2" cx="85.7" cy="-30.4" r="0.6"/>
				<circle class="st2" cx="85.7" cy="-26.9" r="0.6"/>
				<circle class="st2" cx="85.7" cy="-23.3" r="0.6"/>
				<circle class="st2" cx="85.7" cy="-19.7" r="0.6"/>
				<circle class="st2" cx="85.7" cy="-16.1" r="0.6"/>
				<circle class="st2" cx="85.7" cy="-12.6" r="0.6"/>
				<circle class="st2" cx="85.7" cy="-9" r="0.6"/>
				<circle class="st2" cx="85.7" cy="-5.4" r="0.6"/>
				<circle class="st2" cx="85.7" cy="-1.8" r="0.6"/>
			</g>
		</g>
		<g>
			<g>
				<circle class="st1" cx="85.9" cy="-41.2" r="0.6"/>
				<circle class="st1" cx="85.9" cy="-37.6" r="0.6"/>
				<circle class="st1" cx="85.9" cy="-34" r="0.6"/>
				<circle class="st1" cx="85.9" cy="-30.4" r="0.6"/>
				<circle class="st1" cx="85.9" cy="-26.9" r="0.6"/>
				<circle class="st1" cx="85.9" cy="-23.3" r="0.6"/>
				<circle class="st1" cx="85.9" cy="-19.7" r="0.6"/>
				<circle class="st1" cx="85.9" cy="-16.1" r="0.6"/>
				<circle class="st1" cx="85.9" cy="-12.6" r="0.6"/>
				<circle class="st1" cx="85.9" cy="-9" r="0.6"/>
				<circle class="st1" cx="85.9" cy="-5.4" r="0.6"/>
				<circle class="st1" cx="85.9" cy="-1.8" r="0.6"/>
				<circle class="st1" cx="43" cy="-41.2" r="0.6"/>
				<circle class="st1" cx="46.5" cy="-41.2" r="0.6"/>
				<circle class="st1" cx="50.1" cy="-41.2" r="0.6"/>
				<circle class="st1" cx="53.7" cy="-41.2" r="0.6"/>
				<circle class="st1" cx="43" cy="-37.6" r="0.6"/>
				<circle class="st1" cx="46.5" cy="-37.6" r="0.6"/>
				<circle class="st1" cx="50.1" cy="-37.6" r="0.6"/>
				<circle class="st1" cx="53.7" cy="-37.6" r="0.6"/>
				<circle class="st1" cx="43" cy="-34" r="0.6"/>
				<circle class="st1" cx="46.5" cy="-34" r="0.6"/>
				<circle class="st1" cx="50.1" cy="-34" r="0.6"/>
				<circle class="st1" cx="53.7" cy="-34" r="0.6"/>
				<circle class="st1" cx="43" cy="-30.4" r="0.6"/>
				<circle class="st1" cx="46.5" cy="-30.4" r="0.6"/>
				<circle class="st1" cx="50.1" cy="-30.4" r="0.6"/>
				<circle class="st1" cx="53.7" cy="-30.4" r="0.6"/>
				<circle class="st1" cx="43" cy="-26.9" r="0.6"/>
				<circle class="st1" cx="46.5" cy="-26.9" r="0.6"/>
				<circle class="st1" cx="50.1" cy="-26.9" r="0.6"/>
				<circle class="st1" cx="53.7" cy="-26.9" r="0.6"/>
				<circle class="st1" cx="43" cy="-23.3" r="0.6"/>
				<circle class="st1" cx="46.5" cy="-23.3" r="0.6"/>
				<circle class="st1" cx="50.1" cy="-23.3" r="0.6"/>
				<circle class="st1" cx="53.7" cy="-23.3" r="0.6"/>
				<circle class="st1" cx="57.3" cy="-41.2" r="0.6"/>
				<circle class="st1" cx="60.8" cy="-41.2" r="0.6"/>
				<circle class="st1" cx="64.4" cy="-41.2" r="0.6"/>
				<circle class="st1" cx="68" cy="-41.2" r="0.6"/>
				<circle class="st1" cx="71.5" cy="-41.2" r="0.6"/>
				<circle class="st1" cx="57.3" cy="-37.6" r="0.6"/>
				<circle class="st1" cx="60.8" cy="-37.6" r="0.6"/>
				<circle class="st1" cx="64.4" cy="-37.6" r="0.6"/>
				<circle class="st1" cx="68" cy="-37.6" r="0.6"/>
				<circle class="st1" cx="71.5" cy="-37.6" r="0.6"/>
				<circle class="st1" cx="57.3" cy="-34" r="0.6"/>
				<circle class="st1" cx="60.8" cy="-34" r="0.6"/>
				<circle class="st1" cx="64.4" cy="-34" r="0.6"/>
				<circle class="st1" cx="68" cy="-34" r="0.6"/>
				<circle class="st1" cx="71.5" cy="-34" r="0.6"/>
				<circle class="st1" cx="57.3" cy="-30.4" r="0.6"/>
				<circle class="st1" cx="60.8" cy="-30.4" r="0.6"/>
				<circle class="st1" cx="64.4" cy="-30.4" r="0.6"/>
				<circle class="st1" cx="68" cy="-30.4" r="0.6"/>
				<circle class="st1" cx="71.5" cy="-30.4" r="0.6"/>
				<circle class="st1" cx="57.3" cy="-26.9" r="0.6"/>
				<circle class="st1" cx="60.8" cy="-26.9" r="0.6"/>
				<circle class="st1" cx="64.4" cy="-26.9" r="0.6"/>
				<circle class="st1" cx="68" cy="-26.9" r="0.6"/>
				<circle class="st1" cx="71.5" cy="-26.9" r="0.6"/>
				<circle class="st1" cx="57.3" cy="-23.3" r="0.6"/>
				<circle class="st1" cx="60.8" cy="-23.3" r="0.6"/>
				<circle class="st1" cx="64.4" cy="-23.3" r="0.6"/>
				<circle class="st1" cx="68" cy="-23.3" r="0.6"/>
				<circle class="st1" cx="71.5" cy="-23.3" r="0.6"/>
				<circle class="st1" cx="75.1" cy="-41.2" r="0.6"/>
				<circle class="st1" cx="78.7" cy="-41.2" r="0.6"/>
				<circle class="st1" cx="82.3" cy="-41.2" r="0.6"/>
				<circle class="st1" cx="85.8" cy="-41.2" r="0.6"/>
				<circle class="st1" cx="75.1" cy="-37.6" r="0.6"/>
				<circle class="st1" cx="78.7" cy="-37.6" r="0.6"/>
				<circle class="st1" cx="82.3" cy="-37.6" r="0.6"/>
				<circle class="st1" cx="85.8" cy="-37.6" r="0.6"/>
				<circle class="st1" cx="75.1" cy="-34" r="0.6"/>
				<circle class="st1" cx="78.7" cy="-34" r="0.6"/>
				<circle class="st1" cx="82.3" cy="-34" r="0.6"/>
				<circle class="st1" cx="85.8" cy="-34" r="0.6"/>
				<circle class="st1" cx="75.1" cy="-30.4" r="0.6"/>
				<circle class="st1" cx="78.7" cy="-30.4" r="0.6"/>
				<circle class="st1" cx="82.3" cy="-30.4" r="0.6"/>
				<circle class="st1" cx="85.8" cy="-30.4" r="0.6"/>
				<circle class="st1" cx="75.1" cy="-26.9" r="0.6"/>
				<circle class="st1" cx="78.7" cy="-26.9" r="0.6"/>
				<circle class="st1" cx="82.3" cy="-26.9" r="0.6"/>
				<circle class="st1" cx="85.8" cy="-26.9" r="0.6"/>
				<circle class="st1" cx="75.1" cy="-23.3" r="0.6"/>
				<circle class="st1" cx="78.7" cy="-23.3" r="0.6"/>
				<circle class="st1" cx="82.3" cy="-23.3" r="0.6"/>
				<circle class="st1" cx="85.8" cy="-23.3" r="0.6"/>
				<circle class="st1" cx="43" cy="-19.7" r="0.6"/>
				<circle class="st1" cx="46.5" cy="-19.7" r="0.6"/>
				<circle class="st1" cx="50.1" cy="-19.7" r="0.6"/>
				<circle class="st1" cx="53.7" cy="-19.7" r="0.6"/>
				<circle class="st1" cx="43" cy="-16.1" r="0.6"/>
				<circle class="st1" cx="46.5" cy="-16.1" r="0.6"/>
				<circle class="st1" cx="50.1" cy="-16.1" r="0.6"/>
				<circle class="st1" cx="53.7" cy="-16.1" r="0.6"/>
				<circle class="st1" cx="43" cy="-12.6" r="0.6"/>
				<circle class="st1" cx="46.5" cy="-12.6" r="0.6"/>
				<circle class="st1" cx="50.1" cy="-12.6" r="0.6"/>
				<circle class="st1" cx="53.7" cy="-12.6" r="0.6"/>
				<circle class="st1" cx="43" cy="-9" r="0.6"/>
				<circle class="st1" cx="46.5" cy="-9" r="0.6"/>
				<circle class="st1" cx="50.1" cy="-9" r="0.6"/>
				<circle class="st1" cx="53.7" cy="-9" r="0.6"/>
				<circle class="st1" cx="43" cy="-5.4" r="0.6"/>
				<circle class="st1" cx="46.5" cy="-5.4" r="0.6"/>
				<circle class="st1" cx="50.1" cy="-5.4" r="0.6"/>
				<circle class="st1" cx="53.7" cy="-5.4" r="0.6"/>
				<circle class="st1" cx="43" cy="-1.8" r="0.6"/>
				<circle class="st1" cx="46.5" cy="-1.8" r="0.6"/>
				<circle class="st1" cx="50.1" cy="-1.8" r="0.6"/>
				<circle class="st1" cx="53.7" cy="-1.8" r="0.6"/>
				<circle class="st1" cx="57.3" cy="-19.7" r="0.6"/>
				<circle class="st1" cx="60.8" cy="-19.7" r="0.6"/>
				<circle class="st1" cx="64.4" cy="-19.7" r="0.6"/>
				<circle class="st1" cx="68" cy="-19.7" r="0.6"/>
				<circle class="st1" cx="71.5" cy="-19.7" r="0.6"/>
				<circle class="st1" cx="57.3" cy="-16.1" r="0.6"/>
				<circle class="st1" cx="60.8" cy="-16.1" r="0.6"/>
				<circle class="st1" cx="64.4" cy="-16.1" r="0.6"/>
				<circle class="st1" cx="68" cy="-16.1" r="0.6"/>
				<circle class="st1" cx="71.5" cy="-16.1" r="0.6"/>
				<circle class="st1" cx="57.3" cy="-12.6" r="0.6"/>
				<circle class="st1" cx="60.8" cy="-12.6" r="0.6"/>
				<circle class="st1" cx="64.4" cy="-12.6" r="0.6"/>
				<circle class="st1" cx="68" cy="-12.6" r="0.6"/>
				<circle class="st1" cx="71.5" cy="-12.6" r="0.6"/>
				<circle class="st1" cx="57.3" cy="-9" r="0.6"/>
				<circle class="st1" cx="60.8" cy="-9" r="0.6"/>
				<circle class="st1" cx="64.4" cy="-9" r="0.6"/>
				<circle class="st1" cx="68" cy="-9" r="0.6"/>
				<circle class="st1" cx="71.5" cy="-9" r="0.6"/>
				<circle class="st1" cx="57.3" cy="-5.4" r="0.6"/>
				<circle class="st1" cx="60.8" cy="-5.4" r="0.6"/>
				<circle class="st1" cx="64.4" cy="-5.4" r="0.6"/>
				<circle class="st1" cx="68" cy="-5.4" r="0.6"/>
				<circle class="st1" cx="71.5" cy="-5.4" r="0.6"/>
				<circle class="st1" cx="57.3" cy="-1.8" r="0.6"/>
				<circle class="st1" cx="60.8" cy="-1.8" r="0.6"/>
				<circle class="st1" cx="64.4" cy="-1.8" r="0.6"/>
				<circle class="st1" cx="68" cy="-1.8" r="0.6"/>
				<circle class="st1" cx="71.5" cy="-1.8" r="0.6"/>
				<circle class="st1" cx="75.1" cy="-19.7" r="0.6"/>
				<circle class="st1" cx="78.7" cy="-19.7" r="0.6"/>
				<circle class="st1" cx="82.3" cy="-19.7" r="0.6"/>
				<circle class="st1" cx="85.8" cy="-19.7" r="0.6"/>
				<circle class="st1" cx="75.1" cy="-16.1" r="0.6"/>
				<circle class="st1" cx="78.7" cy="-16.1" r="0.6"/>
				<circle class="st1" cx="82.3" cy="-16.1" r="0.6"/>
				<circle class="st1" cx="85.8" cy="-16.1" r="0.6"/>
				<circle class="st1" cx="75.1" cy="-12.6" r="0.6"/>
				<circle class="st1" cx="78.7" cy="-12.6" r="0.6"/>
				<circle class="st1" cx="82.3" cy="-12.6" r="0.6"/>
				<circle class="st1" cx="85.8" cy="-12.6" r="0.6"/>
				<circle class="st1" cx="75.1" cy="-9" r="0.6"/>
				<circle class="st1" cx="78.7" cy="-9" r="0.6"/>
				<circle class="st1" cx="82.3" cy="-9" r="0.6"/>
				<circle class="st1" cx="85.8" cy="-9" r="0.6"/>
				<circle class="st1" cx="75.1" cy="-5.4" r="0.6"/>
				<circle class="st1" cx="78.7" cy="-5.4" r="0.6"/>
				<circle class="st1" cx="82.3" cy="-5.4" r="0.6"/>
				<circle class="st1" cx="85.8" cy="-5.4" r="0.6"/>
				<circle class="st1" cx="75.1" cy="-1.8" r="0.6"/>
				<circle class="st1" cx="78.7" cy="-1.8" r="0.6"/>
				<circle class="st1" cx="82.3" cy="-1.8" r="0.6"/>
				<circle class="st1" cx="85.8" cy="-1.8" r="0.6"/>
				<circle class="st1" cx="42.9" cy="-41.2" r="0.6"/>
				<circle class="st1" cx="42.9" cy="-37.6" r="0.6"/>
				<circle class="st1" cx="42.9" cy="-34" r="0.6"/>
				<circle class="st1" cx="42.9" cy="-30.4" r="0.6"/>
				<circle class="st1" cx="42.9" cy="-26.9" r="0.6"/>
				<circle class="st1" cx="42.9" cy="-23.3" r="0.6"/>
				<circle class="st1" cx="42.9" cy="-19.7" r="0.6"/>
				<circle class="st1" cx="42.9" cy="-16.1" r="0.6"/>
				<circle class="st1" cx="42.9" cy="-12.6" r="0.6"/>
				<circle class="st1" cx="42.9" cy="-9" r="0.6"/>
				<circle class="st1" cx="42.9" cy="-5.4" r="0.6"/>
				<circle class="st1" cx="42.9" cy="-1.8" r="0.6"/>
			</g>
			<g>
				<defs>
					<rect id="SVGID_3_" x="42.9" y="-43" width="43" height="43"/>
				</defs>
				<clipPath id="SVGID_4_">
					<use xlink:href="#SVGID_3_"  style="overflow:visible;"/>
				</clipPath>
				<circle class="st3" cx="42.9" cy="-41.2" r="0.6"/>
				<circle class="st3" cx="42.9" cy="-37.6" r="0.6"/>
				<circle class="st3" cx="42.9" cy="-34" r="0.6"/>
				<circle class="st3" cx="42.9" cy="-30.4" r="0.6"/>
				<circle class="st3" cx="42.9" cy="-26.9" r="0.6"/>
				<circle class="st3" cx="42.9" cy="-23.3" r="0.6"/>
				<circle class="st3" cx="42.9" cy="-19.7" r="0.6"/>
				<circle class="st3" cx="42.9" cy="-16.1" r="0.6"/>
				<circle class="st3" cx="42.9" cy="-12.6" r="0.6"/>
				<circle class="st3" cx="42.9" cy="-9" r="0.6"/>
				<circle class="st3" cx="42.9" cy="-5.4" r="0.6"/>
				<circle class="st3" cx="42.9" cy="-1.8" r="0.6"/>
				<circle class="st3" cx="42.8" cy="-41.2" r="0.6"/>
				<circle class="st3" cx="42.8" cy="-37.6" r="0.6"/>
				<circle class="st3" cx="42.8" cy="-34" r="0.6"/>
				<circle class="st3" cx="42.8" cy="-30.4" r="0.6"/>
				<circle class="st3" cx="42.8" cy="-26.9" r="0.6"/>
				<circle class="st3" cx="42.8" cy="-23.3" r="0.6"/>
				<circle class="st3" cx="42.8" cy="-19.7" r="0.6"/>
				<circle class="st3" cx="42.8" cy="-16.1" r="0.6"/>
				<circle class="st3" cx="42.8" cy="-12.6" r="0.6"/>
				<circle class="st3" cx="42.8" cy="-9" r="0.6"/>
				<circle class="st3" cx="42.8" cy="-5.4" r="0.6"/>
				<circle class="st3" cx="42.8" cy="-1.8" r="0.6"/>
			</g>
		</g>
		<g>
			<g>
				<circle class="st1" cx="43" cy="-41.2" r="0.6"/>
				<circle class="st1" cx="43" cy="-37.6" r="0.6"/>
				<circle class="st1" cx="43" cy="-34" r="0.6"/>
				<circle class="st1" cx="43" cy="-30.4" r="0.6"/>
				<circle class="st1" cx="43" cy="-26.9" r="0.6"/>
				<circle class="st1" cx="43" cy="-23.3" r="0.6"/>
				<circle class="st1" cx="43" cy="-19.7" r="0.6"/>
				<circle class="st1" cx="43" cy="-16.1" r="0.6"/>
				<circle class="st1" cx="43" cy="-12.6" r="0.6"/>
				<circle class="st1" cx="43" cy="-9" r="0.6"/>
				<circle class="st1" cx="43" cy="-5.4" r="0.6"/>
				<circle class="st1" cx="43" cy="-1.8" r="0.6"/>
				<circle class="st1" cx="42.9" cy="-41.2" r="0.6"/>
				<circle class="st1" cx="42.9" cy="-37.6" r="0.6"/>
				<circle class="st1" cx="42.9" cy="-34" r="0.6"/>
				<circle class="st1" cx="42.9" cy="-30.4" r="0.6"/>
				<circle class="st1" cx="42.9" cy="-26.9" r="0.6"/>
				<circle class="st1" cx="42.9" cy="-23.3" r="0.6"/>
				<circle class="st1" cx="42.9" cy="-19.7" r="0.6"/>
				<circle class="st1" cx="42.9" cy="-16.1" r="0.6"/>
				<circle class="st1" cx="42.9" cy="-12.6" r="0.6"/>
				<circle class="st1" cx="42.9" cy="-9" r="0.6"/>
				<circle class="st1" cx="42.9" cy="-5.4" r="0.6"/>
				<circle class="st1" cx="42.9" cy="-1.8" r="0.6"/>
			</g>
			<g>
				<defs>
					<rect id="SVGID_5_" y="-43" width="43" height="43"/>
				</defs>
				<clipPath id="SVGID_6_">
					<use xlink:href="#SVGID_5_"  style="overflow:visible;"/>
				</clipPath>
			</g>
		</g>
	</g>
</pattern>
<g>
	<g>
		<path class="st4" d="M207.4,222.1H60.2c-6.4,0-11.7-5.2-11.7-11.7c0-3.2,1.3-6.1,3.4-8.2c2.1-2.1,5-3.4,8.2-3.4h147.2
			c-3.2,0-4.5,1.3-6.6,3.4c-0.6,0.6-1.2,1.3-1.6,2.1c-1.1,1.8-1.8,3.9-1.8,6.2c0,2.3,0.6,4.4,1.8,6.2
			C201.2,219.9,203.2,222.1,207.4,222.1z"/>
		<path class="st1" d="M207.4,222.2l-82.7,0.4l-41.4,0.1l-20.7,0.1c-0.9,0-1.7,0-2.6,0c-0.9,0-1.8-0.1-2.7-0.3
			c-1.8-0.4-3.5-1.3-4.9-2.4c-2.9-2.3-4.6-5.9-4.6-9.6c0-3.7,1.7-7.3,4.6-9.6c1.4-1.2,3.1-2,4.9-2.4c0.9-0.2,1.8-0.3,2.7-0.4l2.6,0
			l20.7-0.1l20.7-0.1l20.7,0c13.8,0,27.6,0,41.4,0.1c13.8,0.1,27.6,0.2,41.4,0.3v1.1c-1.3,0-2.6,0.2-3.7,1c-1.1,0.7-2.1,1.8-3,2.7
			c-1.8,2-2.9,4.7-2.9,7.4c0,1.4,0.2,2.7,0.7,4c0.5,1.3,1.2,2.5,2,3.6c0.8,1.1,1.7,2.2,3,2.9c1.2,0.7,2.6,1,4,1V222.2z M207.4,222.2
			c-1.4,0-2.9-0.2-4.1-0.9c-1.3-0.7-2.3-1.7-3.2-2.9c-0.8-1.1-1.7-2.3-2.2-3.7c-0.5-1.3-0.8-2.8-0.9-4.2c-0.1-2.9,1-5.8,2.9-8.1
			c0.5-0.6,1-1,1.5-1.5c0.5-0.5,1.1-1,1.7-1.4c0.6-0.4,1.3-0.8,2.1-1c0.7-0.2,1.5-0.3,2.2-0.3c0.3,0,0.6,0.2,0.6,0.6
			c0,0.3-0.2,0.6-0.6,0.6l0,0l0,0c-13.8,0.2-27.6,0.3-41.4,0.3c-13.8,0.1-27.6,0.1-41.4,0.1l-20.7,0l-20.7-0.1l-20.7-0.1l-2.6,0
			c-0.8,0-1.6,0.1-2.4,0.3c-1.6,0.4-3,1.1-4.3,2.1c-2.5,2-4.1,5.2-4,8.4c0,3.2,1.5,6.4,4,8.5c1.3,1,2.7,1.8,4.3,2.2
			c0.8,0.2,1.6,0.3,2.4,0.3c0.8,0,1.7,0,2.6,0l20.7,0.1l41.4,0.1l82.7,0.4V222.2z"/>
	</g>
	<g>
		<path class="st4" d="M227.8,251.3H42.9c-8.1,0-14.6-6.6-14.6-14.6c0-4,1.6-7.7,4.3-10.3c2.7-2.6,6.3-4.3,10.4-4.3h184.9
			c-4,0-5.6,1.6-8.3,4.3c-0.8,0.8-1.5,1.7-2.1,2.6c-1.4,2.2-2.2,4.9-2.2,7.7c0,2.9,0.8,5.5,2.2,7.8
			C220,248.6,222.5,251.3,227.8,251.3z"/>
		<path class="st1" d="M227.8,251.4l-104,0.4l-52,0.1l-26,0.1c-1.1,0-2.2,0-3.3,0c-1.1,0-2.3-0.1-3.4-0.4c-2.2-0.5-4.3-1.6-6.1-3
			c-3.5-2.9-5.7-7.3-5.7-11.9c0-2.3,0.5-4.6,1.5-6.6c1-2.1,2.4-3.9,4.2-5.3c1.8-1.4,3.9-2.5,6.1-3c1.1-0.3,2.2-0.4,3.4-0.4l3.3,0
			l26-0.1l26-0.1l26,0c17.3,0,34.7,0,52,0.1c17.3,0.1,34.7,0.2,52,0.3v1.1c-1.7,0-3.4,0.3-4.7,1.3c-1.4,0.9-2.6,2.2-3.8,3.5
			c-2.3,2.5-3.6,5.9-3.6,9.4c0,1.7,0.3,3.5,0.9,5.1c0.6,1.6,1.6,3.1,2.6,4.5c1,1.4,2.2,2.7,3.7,3.6c1.5,0.9,3.3,1.2,5,1.3V251.4z
			 M227.8,251.4c-1.8,0-3.6-0.3-5.2-1.2c-1.6-0.8-2.9-2.2-3.9-3.6c-1-1.4-2.1-2.9-2.7-4.6c-0.7-1.7-1-3.5-1.1-5.3
			c-0.1-3.6,1.2-7.3,3.6-10c0.6-0.7,1.2-1.3,1.9-1.9c0.6-0.6,1.3-1.2,2.1-1.8c0.8-0.5,1.6-0.9,2.6-1.2c0.9-0.2,1.8-0.3,2.8-0.3
			c0.3,0,0.6,0.3,0.6,0.6s-0.3,0.6-0.6,0.6l0,0l0,0c-17.3,0.2-34.7,0.3-52,0.3c-17.3,0.1-34.7,0.1-52,0.1l-26,0l-26-0.1l-26-0.1
			l-3.2,0c-1,0-2,0.1-3,0.4c-2,0.5-3.9,1.4-5.5,2.7c-3.2,2.6-5.2,6.6-5.1,10.7c0,4.1,1.9,8.2,5.1,10.8c1.6,1.3,3.5,2.2,5.5,2.7
			c1,0.3,2,0.4,3.1,0.4c1.1,0,2.2,0,3.2,0l26,0.1l52,0.1l104,0.4V251.4z"/>
	</g>
	<g>
		<polygon class="st4" points="188.5,27.9 186.6,36.9 177.3,81.8 174,97.7 163.4,97.7 167.1,79.7 178.3,25.8 180.7,26.3 186.1,27.4 
					"/>
		<path class="st1" d="M189.1,27.6c-0.5,3.1-1.1,6.2-1.8,9.2l-1.9,8.7l-3.7,17.4c-1.2,5.8-2.4,11.6-3.6,17.5
			c-1.2,5.8-2.4,11.6-3.5,17.5c-0.1,0.3-0.4,0.6-0.7,0.6h0l-10.6,0.1c-0.4,0-0.8-0.3-0.8-0.8c0-0.1,0-0.1,0-0.2l0,0l3.6-18
			c1.2-6,2.4-12,3.7-18c1.2-6,2.6-12,3.9-18c1.3-6,2.7-11.9,4.1-17.9c0.1-0.2,0.3-0.4,0.5-0.4l5.1,0.9l2.6,0.5
			C187,26.9,188.1,27.2,189.1,27.6z M187.9,28.3c-0.8,0-1.3-0.1-2.1-0.3l-2.5-0.6l-5.1-1.2l0.5-0.4c-1,6-2.2,12.1-3.3,18.1
			c-1.2,6-2.3,12-3.6,18c-1.2,6-2.5,12-3.8,18l-3.9,17.9l-0.8-1L174,97l-0.7,0.6c1.3-5.8,2.5-11.6,3.8-17.4
			c1.2-5.8,2.5-11.6,3.7-17.4l3.6-17.5l1.8-8.7C186.6,33.8,187.2,31.1,187.9,28.3z"/>
	</g>
	<polygon class="st5" points="119.2,97.7 91.3,97.7 75.3,9.6 102.2,4.7 	"/>
	<path class="st5" d="M199.2,216.6H60.2c-3.4,0-6.2-2.8-6.2-6.2c0-1.6,0.6-3.2,1.8-4.4c1.2-1.2,2.7-1.8,4.4-1.8h138.9
		c-1.1,1.8-1.8,3.9-1.8,6.2C197.4,212.7,198,214.8,199.2,216.6z"/>
	<path class="st5" d="M217.4,244.5H42.9c-4.3,0-7.8-3.5-7.8-7.8c0-2.1,0.8-4,2.3-5.5c1.5-1.4,3.4-2.3,5.5-2.3h174.6
		c-1.4,2.2-2.2,4.9-2.2,7.7C215.2,239.6,216,242.2,217.4,244.5z"/>
	
		<rect x="181.6" y="17.7" transform="matrix(0.9792 0.2031 -0.2031 0.9792 8.3792 -36.9813)" class="st5" width="5.5" height="9.3"/>
	<polygon class="st5" points="177.3,81.8 174,97.7 163.4,97.7 167.1,79.7 	"/>
	<g>
		<path class="st4" d="M195,104.4c0,1.8-0.7,3.5-2,4.7c-1.2,1.2-2.9,2-4.7,2H77.4c-3.7,0-6.7-3-6.7-6.7c0-1.8,0.7-3.5,2-4.7
			c1.2-1.2,2.9-2,4.7-2h110.9C192,97.7,195,100.7,195,104.4z"/>
		<path class="st1" d="M196.1,104.4c0,3.2-2.2,6.3-5.2,7.3c-0.8,0.3-1.5,0.4-2.3,0.4l-2.1,0l-4.1,0l-16.5-0.2l-16.5-0.2l-16.5-0.1
			l-16.5,0l-16.5,0.1l-16.5,0.1l-4.1,0c-0.7,0-1.4,0-2.1,0c-0.8,0-1.5-0.2-2.2-0.4c-2.9-1-5.1-3.9-5-7c-0.1-3.1,2-6.1,5-7.1
			c0.7-0.3,1.5-0.4,2.3-0.4l2.1,0l4.1,0l16.5,0l33-0.1l33-0.1l16.5,0l4.1,0c0.7,0,1.3,0,2.1,0c0.8,0,1.6,0.2,2.4,0.4
			c1.5,0.5,2.9,1.5,3.8,2.8C195.6,101.2,196.1,102.8,196.1,104.4z M193.9,104.4c0-2.3-1.6-4.5-3.7-5.2c-0.5-0.2-1.1-0.3-1.7-0.3
			c-0.6,0-1.4,0-2,0l-4.1,0l-16.5,0l-33-0.1l-33-0.1l-16.5-0.1l-4.1,0l-2,0c-0.6,0-1.2,0.1-1.8,0.3c-2.3,0.8-4,3.1-3.9,5.5
			c-0.1,2.4,1.6,4.8,3.9,5.6c0.6,0.2,1.2,0.3,1.8,0.3c0.6,0,1.4,0,2,0l4.1,0l16.5,0.1l16.5,0.1l16.5,0l16.5-0.1l16.5-0.2l16.5-0.2
			l4.1,0l2,0c0.6,0,1.2-0.1,1.7-0.3C192.4,109,193.9,106.7,193.9,104.4z"/>
	</g>
	<g>
		<polygon class="st4" points="166.2,198.8 99.5,198.8 81.3,111.1 184.4,111.1 		"/>
		<path class="st1" d="M166.3,198.9l-66.7,0.3c-0.2,0-0.4-0.1-0.4-0.3l-18.5-87.6c-0.1-0.4,0.2-0.8,0.6-0.9c0,0,0.1,0,0.1,0l0,0
			l51.5-0.2l25.8-0.1l25.8,0l0,0c0.6,0,1,0.4,1,1c0,0.1,0,0.1,0,0.2l-4.7,22l-4.8,22L166.3,198.9z M166.1,198.7l8.5-44.1l4.3-21.9
			l4.4-21.8l1,1.2l-25.8,0l-25.8-0.1l-51.5-0.2l0.7-0.9l17.9,87.8l-0.4-0.3L166.1,198.7z"/>
	</g>
	<g>
		<polygon class="st4" points="134.3,97.7 130.9,24.9 141.5,24.4 145.1,97.7 		"/>
		<path class="st1" d="M133.8,98.2l-1.7-36.7l-0.9-18.3c-0.3-6.1-0.6-12.2-1-18.3c0-0.4,0.2-0.7,0.6-0.7l0,0l10.6-0.6
			c0.4,0,0.8,0.3,0.8,0.7l0,0l0,0l1,18.3c0.3,6.1,0.7,12.2,1,18.3c0.3,6.1,0.5,12.2,0.8,18.3c0.2,6.1,0.4,12.2,0.5,18.3v0
			c0,0.3-0.2,0.5-0.5,0.5C141.4,98.3,137.6,98.3,133.8,98.2z M134.8,97.2c3.4-0.1,6.9-0.1,10.4,0l-0.5,0.5
			c-0.5-6.1-0.9-12.2-1.3-18.3c-0.3-6.1-0.7-12.2-1-18.3c-0.3-6.1-0.6-12.2-0.8-18.3l-0.8-18.3l0.8,0.8l-10.6,0.3l0.6-0.7
			c0.2,6,0.5,12.1,0.7,18.1l0.8,18.1L134.8,97.2z"/>
	</g>
	<g>
		<polygon class="st4" points="141.7,24.4 130.9,24.9 132.7,17.7 135.5,6.6 139.2,17.4 		"/>
		<path class="st1" d="M141.8,24.5l-10.9,0.9c-0.2,0-0.5-0.2-0.5-0.4c0,0,0-0.1,0-0.1l0,0c1.3-6.2,2.8-12.3,4.1-18.4
			c0.1-0.5,0.6-0.8,1.1-0.7c0.3,0.1,0.6,0.3,0.7,0.6l0,0.1c0.6,1.5,1.1,2.9,1.6,4.4c0.5,1.5,1,3,1.4,4.5l0.7,2.3
			c0.2,0.8,0.4,1.6,0.6,2.4L141.8,24.5z M141.6,24.4c-0.7-1.6-1.4-3-2.1-4.4l-0.9-2l-0.9-2.2c-0.6-1.5-1.2-2.9-1.7-4.4
			c-0.5-1.5-1-3-1.5-4.5l1.9-0.1c-1.7,6.1-3.4,12.1-5.1,18.2l-0.5-0.6C134.4,24.4,137.9,24.4,141.6,24.4z"/>
	</g>
	<g>
		<polygon class="st4" points="141.7,24.4 130.9,24.9 132.7,17.7 139.2,17.4 		"/>
		<path class="st1" d="M142.4,24.9l-5.8,0.3c-1.9,0.1-3.8,0.1-5.7,0.4c-0.3,0.1-0.6-0.2-0.7-0.5c0-0.1,0-0.2,0-0.3l0-0.1
			c0.3-1.2,0.7-2.4,1-3.6c0.3-1.2,0.7-2.4,1.1-3.6c0-0.1,0.2-0.2,0.3-0.3l0,0c1.1-0.2,2.2-0.4,3.3-0.6l1.6-0.2l0.8-0.1
			c0.3,0,0.5-0.2,0.8,0.3l0.7,0.5C140.8,19.6,141.7,22.3,142.4,24.9z M141,24c-0.9-2.1-1.7-4.1-2.4-6.4l0.7,0.5
			c-0.3,0.5-0.5,0.3-0.8,0.3l-0.8,0l-1.6-0.1c-1.1,0-2.2-0.1-3.3-0.3l0.3-0.3c-0.2,1.2-0.5,2.4-0.7,3.7c-0.3,1.2-0.5,2.4-0.8,3.6
			l-0.7-0.8c1.7,0.2,3.5,0,5.2-0.1L141,24z"/>
	</g>
	<g>
		<path class="st1" d="M104.7,180.9l-6.8-30.4L91.2,120c-0.1-0.5,0.2-1,0.7-1.1c0.1,0,0.1,0,0.2,0l0,0c3.4,0,6.8-0.1,10.2-0.1l5.1,0
			l5.1,0.1c3.4,0.1,6.8,0.1,10.2,0.3c3.4,0.1,6.8,0.3,10.2,0.5c0.1,0,0.1,0.1,0.1,0.1c0,0.1,0,0.1-0.1,0.1
			c-3.4,0.2-6.8,0.4-10.2,0.5c-3.4,0.1-6.8,0.2-10.2,0.3l-5.1,0.1l-5.1,0c-3.4,0-6.8,0-10.2-0.1l0.9-1.2l5.9,30.6l5.9,30.6
			c0,0.1,0,0.1-0.1,0.1C104.7,181,104.7,180.9,104.7,180.9z"/>
	</g>
	<g>
		<path class="st1" d="M186.7,36.8L194,38c0.2,0,0.4,0.2,0.3,0.4v0l0,0l-1.3,7.8c-0.4,2.6-1,5.2-1.6,7.7l-3.8,15.4
			c0,0.1-0.1,0.1-0.1,0.1c-0.1,0-0.1-0.1-0.1-0.1l2.6-15.6c0.5-2.6,1-5.2,1.6-7.7l1.9-7.7l0.3,0.5l-7.2-1.8c-0.1,0-0.1-0.1-0.1-0.1
			C186.5,36.9,186.6,36.8,186.7,36.8z"/>
	</g>
	<g>
		<path class="st1" d="M139.6,97.7l-1.2-18.2l-1.1-18.3c-0.4-6.1-0.9-12.2-1-18.3c-0.1-3-0.1-6.1-0.1-9.1l0-4.6
			c0-1.5,0.1-3.1,0.1-4.6c0-0.1,0.1-0.1,0.1-0.1c0,0,0.1,0,0.1,0.1c0.2,1.5,0.4,3,0.6,4.6l0.5,4.6c0.3,3,0.5,6.1,0.7,9.1
			c0.4,6.1,0.5,12.2,0.6,18.3l0.5,18.3l0.4,18.3c0,0.1,0,0.1-0.1,0.1C139.6,97.8,139.6,97.8,139.6,97.7z"/>
	</g>
	<g>
		<path class="st1" d="M80.2,104.3l26.6-0.4l26.6-0.3c8.9-0.1,17.7-0.3,26.6-0.2c8.9,0.2,17.7,0.3,26.6,0.9c0.1,0,0.1,0.1,0.1,0.1
			c0,0.1,0,0.1-0.1,0.1c-8.9,0.6-17.7,0.7-26.6,0.9c-8.9,0.1-17.7-0.1-26.6-0.2l-26.6-0.3l-26.6-0.4
			C80.1,104.5,80.1,104.5,80.2,104.3C80.1,104.4,80.1,104.3,80.2,104.3z"/>
	</g>
	<g>
		<pattern  id="SVGID_7_" xlink:href="#New_Pattern_Swatch_1" patternTransform="matrix(1 0 0 1 7.2 -0.6547)">
		</pattern>
		<polygon class="st6" points="119.2,97.7 91.3,97.7 75.3,9.6 102.2,4.7 		"/>
		<path class="st1" d="M119.3,97.8L91.3,98c-0.1,0-0.3-0.1-0.3-0.2L74.5,9.7c-0.1-0.4,0.2-0.8,0.6-0.9l0,0l26.9-5.1
			c0.5-0.1,1,0.2,1.1,0.8l0,0l0,0c1.5,7.8,2.9,15.6,4.3,23.5l2.1,11.7l2,11.7c1.3,7.8,2.6,15.6,3.9,23.3L119.3,97.8z M119.1,97.7
			l-4.7-23.5c-1.6-7.8-3.1-15.5-4.6-23.2l-2.2-11.5l-2.2-11.5c-1.4-7.7-2.8-15.4-4.2-23.1l1.1,0.8l-27,4.7l0.6-0.9l15.6,88.3
			l-0.3-0.2L119.1,97.7z"/>
	</g>
	<g>
		<pattern  id="SVGID_8_" xlink:href="#New_Pattern_Swatch_1" patternTransform="matrix(1 0 0 1 7.2 -0.6547)">
		</pattern>
		<polygon class="st7" points="186.1,27.4 180.7,26.3 182.6,17.2 188,18.3 		"/>
		<path class="st1" d="M186.4,27.9c-1.9-0.3-3.8-0.7-5.7-1.1c-0.2,0-0.3-0.2-0.3-0.5l0,0c0.5-3.1,1-6.1,1.5-9.2l0,0
			c0.1-0.4,0.5-0.7,0.9-0.6l0.1,0l5.3,1.4l0,0c0.2,0.1,0.4,0.3,0.3,0.6C187.8,21.6,187.1,24.8,186.4,27.9z M185.8,27
			c0.5-3,1.1-5.9,1.7-8.8l0.4,0.6l-5.4-0.8l0.9-0.6c-0.8,3-1.5,6-2.3,9l-0.3-0.5C182.5,26.3,184.1,26.6,185.8,27z"/>
	</g>
	<g>
		<pattern  id="SVGID_9_" xlink:href="#New_Pattern_Swatch_1" patternTransform="matrix(1 0 0 1 7.2 -0.6547)">
		</pattern>
		<polygon class="st8" points="177.3,81.8 174,97.7 163.4,97.7 167.1,79.7 		"/>
		<path class="st1" d="M177.9,81.4l-1.7,8.2c-0.5,2.7-1.2,5.5-1.7,8.2c0,0.3-0.3,0.4-0.5,0.4l0,0l-10.6,0.2c-0.4,0-0.8-0.3-0.8-0.7
			c0-0.1,0-0.1,0-0.2l0,0l1.7-9.1l0.9-4.5c0.3-1.5,0.6-3,1-4.5l0-0.1c0.1-0.4,0.6-0.7,1-0.6C170.9,79.6,174.5,80.6,177.9,81.4z
			 M176.8,82.1c-3.4-0.5-6.6-1-9.8-1.6l1-0.7c-0.2,1.5-0.5,3-0.8,4.5l-1,4.5l-2,9l-0.8-0.9l10.6,0.2l-0.5,0.4
			c0.6-2.6,1.1-5.2,1.7-7.8L176.8,82.1z"/>
	</g>
	<g>
		<pattern  id="SVGID_10_" xlink:href="#New_Pattern_Swatch_1" patternTransform="matrix(1 0 0 1 7.2 -0.6547)">
		</pattern>
		<path class="st9" d="M199.2,216.6H60.2c-3.4,0-6.2-2.8-6.2-6.2c0-1.6,0.6-3.2,1.8-4.4c1.2-1.2,2.7-1.8,4.4-1.8h138.9
			c-1.1,1.8-1.8,3.9-1.8,6.2C197.4,212.7,198,214.8,199.2,216.6z"/>
		<path class="st1" d="M199.3,216.6l-74.2,0.4l-37.3,0.2l-18.7,0.1c-3.1,0-6.2,0-9.4,0c-1.7-0.1-3.4-0.9-4.6-2.2
			c-1.2-1.3-1.9-3-1.9-4.7c0-1.7,0.7-3.5,1.9-4.8c1.2-1.3,2.9-2.1,4.6-2.2l9.3-0.1l18.6-0.1c12.4-0.1,24.8-0.1,37.2-0.1
			c24.8,0.1,49.5,0.3,74.3,0.7l0,0c0.2,0,0.3,0.2,0.3,0.3c0,0.1,0,0.1-0.1,0.2c-1.2,1.8-1.8,3.9-1.8,6c0,1.1,0.1,2.1,0.4,3.2
			c0.1,0.5,0.3,1,0.5,1.5c0.1,0.2,0.2,0.5,0.3,0.7l0.2,0.4C199.1,216.3,199.2,216.5,199.3,216.6z M199.1,216.5
			c-0.1-0.1-0.2-0.2-0.2-0.2l-0.2-0.4c-0.1-0.2-0.3-0.5-0.4-0.7c-0.2-0.5-0.4-1-0.6-1.5c-0.3-1.1-0.5-2.1-0.5-3.3
			c0-2.2,0.5-4.4,1.7-6.3l0.3,0.5c-24.8,0.4-49.5,0.6-74.3,0.7c-12.4,0-24.8,0-37.2-0.1l-18.6-0.1l-9.2,0c-1.3,0.1-2.7,0.7-3.6,1.7
			c-0.9,1-1.5,2.3-1.5,3.7c0,1.4,0.5,2.7,1.5,3.7c0.9,1,2.2,1.6,3.6,1.7c3,0,6.1,0,9.2,0.1l18.5,0.1l37,0.2L199.1,216.5z"/>
	</g>
	<g>
		<pattern  id="SVGID_11_" xlink:href="#New_Pattern_Swatch_1" patternTransform="matrix(1 0 0 1 7.2 -0.6547)">
		</pattern>
		<path class="st10" d="M217.4,244.5H42.9c-4.3,0-7.8-3.5-7.8-7.8c0-2.1,0.8-4,2.3-5.5c1.5-1.4,3.4-2.3,5.5-2.3h174.6
			c-1.4,2.2-2.2,4.9-2.2,7.7C215.2,239.6,216,242.2,217.4,244.5z"/>
		<path class="st1" d="M217.5,244.5l-93.2,0.4l-46.8,0.2l-23.4,0.1c-3.9,0-7.8,0.1-11.8,0c-2.1-0.1-4.2-1.1-5.7-2.7
			c-1.5-1.5-2.3-3.7-2.3-5.8c0-2.1,0.8-4.3,2.3-5.8c1.5-1.6,3.5-2.6,5.7-2.7c4-0.1,7.8,0,11.7-0.1l23.3-0.1l46.7,0
			c31.1,0,62.2,0.3,93.4,0.7l0,0c0.2,0,0.3,0.2,0.3,0.3c0,0.1,0,0.1-0.1,0.2c-1.4,2.2-2.3,4.9-2.3,7.6c0,1.3,0.1,2.7,0.5,4
			c0.2,0.6,0.4,1.3,0.7,1.9c0.1,0.3,0.3,0.6,0.4,0.9l0.2,0.4C217.4,244.1,217.5,244.3,217.5,244.5z M217.3,244.4
			c-0.1-0.1-0.2-0.2-0.3-0.3l-0.3-0.4c-0.2-0.3-0.3-0.6-0.5-0.9c-0.3-0.6-0.5-1.3-0.7-1.9c-0.4-1.3-0.6-2.7-0.6-4.1
			c0-2.8,0.7-5.5,2.1-7.9l0.3,0.5c-31.1,0.4-62.2,0.6-93.4,0.7l-46.7,0L54,229.8l-11.6,0c-1.7,0.1-3.4,0.9-4.6,2.2
			c-1.2,1.3-1.9,3-1.9,4.8c0,1.8,0.7,3.5,1.9,4.8c1.2,1.3,2.9,2.1,4.6,2.2c3.8,0.1,7.7,0,11.6,0.1l23.3,0.1l46.6,0.2L217.3,244.4z"
			/>
	</g>
	<polygon class="st11" points="183.3,116.1 184.4,111.1 81.3,111.1 82.4,116.1 	"/>
</g>
</svg>
