<?xml version="1.0" encoding="utf-8"?>
<!-- Generator: Adobe Illustrator 22.1.0, SVG Export Plug-In . SVG Version: 6.00 Build 0)  -->
<svg version="1.1" id="Layer_1" xmlns="http://www.w3.org/2000/svg" xmlns:xlink="http://www.w3.org/1999/xlink" x="0px" y="0px"
	 viewBox="0 0 256 256" style="enable-background:new 0 0 256 256;" xml:space="preserve">
<style type="text/css">
	.st0{fill:none;}
	.st1{fill:#253759;}
	.st2{clip-path:url(#SVGID_2_);fill:#253759;}
	.st3{clip-path:url(#SVGID_4_);fill:#253759;}
	.st4{fill:#FFFFFF;}
	.st5{fill:#D6ECFF;}
	.st6{fill:#A6D6FF;}
	.st7{fill:url(#SVGID_7_);}
	.st8{fill:url(#SVGID_8_);}
	.st9{fill:url(#SVGID_9_);}
	.st10{fill:#FF9D9D;}
	.st11{fill:#A8A7C2;}
	.st12{fill:url(#SVGID_10_);}
	.st13{opacity:0.3;fill:#253759;}
</style>
<pattern  x="-3588" y="-276" width="42.9" height="43" patternUnits="userSpaceOnUse" id="New_Pattern_Swatch_1" viewBox="43 -43 42.9 43" style="overflow:visible;">
	<g>
		<rect x="43" y="-43" class="st0" width="42.9" height="43"/>
		<g>
			<g>
				<circle class="st1" cx="85.9" cy="-41.2" r="0.6"/>
				<circle class="st1" cx="85.9" cy="-37.6" r="0.6"/>
				<circle class="st1" cx="85.9" cy="-34" r="0.6"/>
				<circle class="st1" cx="85.9" cy="-30.4" r="0.6"/>
				<circle class="st1" cx="85.9" cy="-26.9" r="0.6"/>
				<circle class="st1" cx="85.9" cy="-23.3" r="0.6"/>
				<circle class="st1" cx="85.9" cy="-19.7" r="0.6"/>
				<circle class="st1" cx="85.9" cy="-16.1" r="0.6"/>
				<circle class="st1" cx="85.9" cy="-12.6" r="0.6"/>
				<circle class="st1" cx="85.9" cy="-9" r="0.6"/>
				<circle class="st1" cx="85.9" cy="-5.4" r="0.6"/>
				<circle class="st1" cx="85.9" cy="-1.8" r="0.6"/>
				<circle class="st1" cx="85.8" cy="-41.2" r="0.6"/>
				<circle class="st1" cx="85.8" cy="-37.6" r="0.6"/>
				<circle class="st1" cx="85.8" cy="-34" r="0.6"/>
				<circle class="st1" cx="85.8" cy="-30.4" r="0.6"/>
				<circle class="st1" cx="85.8" cy="-26.9" r="0.6"/>
				<circle class="st1" cx="85.8" cy="-23.3" r="0.6"/>
				<circle class="st1" cx="85.8" cy="-19.7" r="0.6"/>
				<circle class="st1" cx="85.8" cy="-16.1" r="0.6"/>
				<circle class="st1" cx="85.8" cy="-12.6" r="0.6"/>
				<circle class="st1" cx="85.8" cy="-9" r="0.6"/>
				<circle class="st1" cx="85.8" cy="-5.4" r="0.6"/>
				<circle class="st1" cx="85.8" cy="-1.8" r="0.6"/>
			</g>
			<g>
				<defs>
					<rect id="SVGID_1_" x="85.8" y="-43" width="43" height="43"/>
				</defs>
				<clipPath id="SVGID_2_">
					<use xlink:href="#SVGID_1_"  style="overflow:visible;"/>
				</clipPath>
				<circle class="st2" cx="85.8" cy="-41.2" r="0.6"/>
				<circle class="st2" cx="85.8" cy="-37.6" r="0.6"/>
				<circle class="st2" cx="85.8" cy="-34" r="0.6"/>
				<circle class="st2" cx="85.8" cy="-30.4" r="0.6"/>
				<circle class="st2" cx="85.8" cy="-26.9" r="0.6"/>
				<circle class="st2" cx="85.8" cy="-23.3" r="0.6"/>
				<circle class="st2" cx="85.8" cy="-19.7" r="0.6"/>
				<circle class="st2" cx="85.8" cy="-16.1" r="0.6"/>
				<circle class="st2" cx="85.8" cy="-12.6" r="0.6"/>
				<circle class="st2" cx="85.8" cy="-9" r="0.6"/>
				<circle class="st2" cx="85.8" cy="-5.4" r="0.6"/>
				<circle class="st2" cx="85.8" cy="-1.8" r="0.6"/>
				<circle class="st2" cx="85.7" cy="-41.2" r="0.6"/>
				<circle class="st2" cx="85.7" cy="-37.6" r="0.6"/>
				<circle class="st2" cx="85.7" cy="-34" r="0.6"/>
				<circle class="st2" cx="85.7" cy="-30.4" r="0.6"/>
				<circle class="st2" cx="85.7" cy="-26.9" r="0.6"/>
				<circle class="st2" cx="85.7" cy="-23.3" r="0.6"/>
				<circle class="st2" cx="85.7" cy="-19.7" r="0.6"/>
				<circle class="st2" cx="85.7" cy="-16.1" r="0.6"/>
				<circle class="st2" cx="85.7" cy="-12.6" r="0.6"/>
				<circle class="st2" cx="85.7" cy="-9" r="0.6"/>
				<circle class="st2" cx="85.7" cy="-5.4" r="0.6"/>
				<circle class="st2" cx="85.7" cy="-1.8" r="0.6"/>
			</g>
		</g>
		<g>
			<g>
				<circle class="st1" cx="85.9" cy="-41.2" r="0.6"/>
				<circle class="st1" cx="85.9" cy="-37.6" r="0.6"/>
				<circle class="st1" cx="85.9" cy="-34" r="0.6"/>
				<circle class="st1" cx="85.9" cy="-30.4" r="0.6"/>
				<circle class="st1" cx="85.9" cy="-26.9" r="0.6"/>
				<circle class="st1" cx="85.9" cy="-23.3" r="0.6"/>
				<circle class="st1" cx="85.9" cy="-19.7" r="0.6"/>
				<circle class="st1" cx="85.9" cy="-16.1" r="0.6"/>
				<circle class="st1" cx="85.9" cy="-12.6" r="0.6"/>
				<circle class="st1" cx="85.9" cy="-9" r="0.6"/>
				<circle class="st1" cx="85.9" cy="-5.4" r="0.6"/>
				<circle class="st1" cx="85.9" cy="-1.8" r="0.6"/>
				<circle class="st1" cx="43" cy="-41.2" r="0.6"/>
				<circle class="st1" cx="46.5" cy="-41.2" r="0.6"/>
				<circle class="st1" cx="50.1" cy="-41.2" r="0.6"/>
				<circle class="st1" cx="53.7" cy="-41.2" r="0.6"/>
				<circle class="st1" cx="43" cy="-37.6" r="0.6"/>
				<circle class="st1" cx="46.5" cy="-37.6" r="0.6"/>
				<circle class="st1" cx="50.1" cy="-37.6" r="0.6"/>
				<circle class="st1" cx="53.7" cy="-37.6" r="0.6"/>
				<circle class="st1" cx="43" cy="-34" r="0.6"/>
				<circle class="st1" cx="46.5" cy="-34" r="0.6"/>
				<circle class="st1" cx="50.1" cy="-34" r="0.6"/>
				<circle class="st1" cx="53.7" cy="-34" r="0.6"/>
				<circle class="st1" cx="43" cy="-30.4" r="0.6"/>
				<circle class="st1" cx="46.5" cy="-30.4" r="0.6"/>
				<circle class="st1" cx="50.1" cy="-30.4" r="0.6"/>
				<circle class="st1" cx="53.7" cy="-30.4" r="0.6"/>
				<circle class="st1" cx="43" cy="-26.9" r="0.6"/>
				<circle class="st1" cx="46.5" cy="-26.9" r="0.6"/>
				<circle class="st1" cx="50.1" cy="-26.9" r="0.6"/>
				<circle class="st1" cx="53.7" cy="-26.9" r="0.6"/>
				<circle class="st1" cx="43" cy="-23.3" r="0.6"/>
				<circle class="st1" cx="46.5" cy="-23.3" r="0.6"/>
				<circle class="st1" cx="50.1" cy="-23.3" r="0.6"/>
				<circle class="st1" cx="53.7" cy="-23.3" r="0.6"/>
				<circle class="st1" cx="57.3" cy="-41.2" r="0.6"/>
				<circle class="st1" cx="60.8" cy="-41.2" r="0.6"/>
				<circle class="st1" cx="64.4" cy="-41.2" r="0.6"/>
				<circle class="st1" cx="68" cy="-41.2" r="0.6"/>
				<circle class="st1" cx="71.5" cy="-41.2" r="0.6"/>
				<circle class="st1" cx="57.3" cy="-37.6" r="0.6"/>
				<circle class="st1" cx="60.8" cy="-37.6" r="0.6"/>
				<circle class="st1" cx="64.4" cy="-37.6" r="0.6"/>
				<circle class="st1" cx="68" cy="-37.6" r="0.6"/>
				<circle class="st1" cx="71.5" cy="-37.6" r="0.6"/>
				<circle class="st1" cx="57.3" cy="-34" r="0.6"/>
				<circle class="st1" cx="60.8" cy="-34" r="0.6"/>
				<circle class="st1" cx="64.4" cy="-34" r="0.6"/>
				<circle class="st1" cx="68" cy="-34" r="0.6"/>
				<circle class="st1" cx="71.5" cy="-34" r="0.6"/>
				<circle class="st1" cx="57.3" cy="-30.4" r="0.6"/>
				<circle class="st1" cx="60.8" cy="-30.4" r="0.6"/>
				<circle class="st1" cx="64.4" cy="-30.4" r="0.6"/>
				<circle class="st1" cx="68" cy="-30.4" r="0.6"/>
				<circle class="st1" cx="71.5" cy="-30.4" r="0.6"/>
				<circle class="st1" cx="57.3" cy="-26.9" r="0.6"/>
				<circle class="st1" cx="60.8" cy="-26.9" r="0.6"/>
				<circle class="st1" cx="64.4" cy="-26.9" r="0.6"/>
				<circle class="st1" cx="68" cy="-26.9" r="0.6"/>
				<circle class="st1" cx="71.5" cy="-26.9" r="0.6"/>
				<circle class="st1" cx="57.3" cy="-23.3" r="0.6"/>
				<circle class="st1" cx="60.8" cy="-23.3" r="0.6"/>
				<circle class="st1" cx="64.4" cy="-23.3" r="0.6"/>
				<circle class="st1" cx="68" cy="-23.3" r="0.6"/>
				<circle class="st1" cx="71.5" cy="-23.3" r="0.6"/>
				<circle class="st1" cx="75.1" cy="-41.2" r="0.6"/>
				<circle class="st1" cx="78.7" cy="-41.2" r="0.6"/>
				<circle class="st1" cx="82.3" cy="-41.2" r="0.6"/>
				<circle class="st1" cx="85.8" cy="-41.2" r="0.6"/>
				<circle class="st1" cx="75.1" cy="-37.6" r="0.6"/>
				<circle class="st1" cx="78.7" cy="-37.6" r="0.6"/>
				<circle class="st1" cx="82.3" cy="-37.6" r="0.6"/>
				<circle class="st1" cx="85.8" cy="-37.6" r="0.6"/>
				<circle class="st1" cx="75.1" cy="-34" r="0.6"/>
				<circle class="st1" cx="78.7" cy="-34" r="0.6"/>
				<circle class="st1" cx="82.3" cy="-34" r="0.6"/>
				<circle class="st1" cx="85.8" cy="-34" r="0.6"/>
				<circle class="st1" cx="75.1" cy="-30.4" r="0.6"/>
				<circle class="st1" cx="78.7" cy="-30.4" r="0.6"/>
				<circle class="st1" cx="82.3" cy="-30.4" r="0.6"/>
				<circle class="st1" cx="85.8" cy="-30.4" r="0.6"/>
				<circle class="st1" cx="75.1" cy="-26.9" r="0.6"/>
				<circle class="st1" cx="78.7" cy="-26.9" r="0.6"/>
				<circle class="st1" cx="82.3" cy="-26.9" r="0.6"/>
				<circle class="st1" cx="85.8" cy="-26.9" r="0.6"/>
				<circle class="st1" cx="75.1" cy="-23.3" r="0.6"/>
				<circle class="st1" cx="78.7" cy="-23.3" r="0.6"/>
				<circle class="st1" cx="82.3" cy="-23.3" r="0.6"/>
				<circle class="st1" cx="85.8" cy="-23.3" r="0.6"/>
				<circle class="st1" cx="43" cy="-19.7" r="0.6"/>
				<circle class="st1" cx="46.5" cy="-19.7" r="0.6"/>
				<circle class="st1" cx="50.1" cy="-19.7" r="0.6"/>
				<circle class="st1" cx="53.7" cy="-19.7" r="0.6"/>
				<circle class="st1" cx="43" cy="-16.1" r="0.6"/>
				<circle class="st1" cx="46.5" cy="-16.1" r="0.6"/>
				<circle class="st1" cx="50.1" cy="-16.1" r="0.6"/>
				<circle class="st1" cx="53.7" cy="-16.1" r="0.6"/>
				<circle class="st1" cx="43" cy="-12.6" r="0.6"/>
				<circle class="st1" cx="46.5" cy="-12.6" r="0.6"/>
				<circle class="st1" cx="50.1" cy="-12.6" r="0.6"/>
				<circle class="st1" cx="53.7" cy="-12.6" r="0.6"/>
				<circle class="st1" cx="43" cy="-9" r="0.6"/>
				<circle class="st1" cx="46.5" cy="-9" r="0.6"/>
				<circle class="st1" cx="50.1" cy="-9" r="0.6"/>
				<circle class="st1" cx="53.7" cy="-9" r="0.6"/>
				<circle class="st1" cx="43" cy="-5.4" r="0.6"/>
				<circle class="st1" cx="46.5" cy="-5.4" r="0.6"/>
				<circle class="st1" cx="50.1" cy="-5.4" r="0.6"/>
				<circle class="st1" cx="53.7" cy="-5.4" r="0.6"/>
				<circle class="st1" cx="43" cy="-1.8" r="0.6"/>
				<circle class="st1" cx="46.5" cy="-1.8" r="0.6"/>
				<circle class="st1" cx="50.1" cy="-1.8" r="0.6"/>
				<circle class="st1" cx="53.7" cy="-1.8" r="0.6"/>
				<circle class="st1" cx="57.3" cy="-19.7" r="0.6"/>
				<circle class="st1" cx="60.8" cy="-19.7" r="0.6"/>
				<circle class="st1" cx="64.4" cy="-19.7" r="0.6"/>
				<circle class="st1" cx="68" cy="-19.7" r="0.6"/>
				<circle class="st1" cx="71.5" cy="-19.7" r="0.6"/>
				<circle class="st1" cx="57.3" cy="-16.1" r="0.6"/>
				<circle class="st1" cx="60.8" cy="-16.1" r="0.6"/>
				<circle class="st1" cx="64.4" cy="-16.1" r="0.6"/>
				<circle class="st1" cx="68" cy="-16.1" r="0.6"/>
				<circle class="st1" cx="71.5" cy="-16.1" r="0.6"/>
				<circle class="st1" cx="57.3" cy="-12.6" r="0.6"/>
				<circle class="st1" cx="60.8" cy="-12.6" r="0.6"/>
				<circle class="st1" cx="64.4" cy="-12.6" r="0.6"/>
				<circle class="st1" cx="68" cy="-12.6" r="0.6"/>
				<circle class="st1" cx="71.5" cy="-12.6" r="0.6"/>
				<circle class="st1" cx="57.3" cy="-9" r="0.6"/>
				<circle class="st1" cx="60.8" cy="-9" r="0.6"/>
				<circle class="st1" cx="64.4" cy="-9" r="0.6"/>
				<circle class="st1" cx="68" cy="-9" r="0.6"/>
				<circle class="st1" cx="71.5" cy="-9" r="0.6"/>
				<circle class="st1" cx="57.3" cy="-5.4" r="0.6"/>
				<circle class="st1" cx="60.8" cy="-5.4" r="0.6"/>
				<circle class="st1" cx="64.4" cy="-5.4" r="0.6"/>
				<circle class="st1" cx="68" cy="-5.4" r="0.6"/>
				<circle class="st1" cx="71.5" cy="-5.4" r="0.6"/>
				<circle class="st1" cx="57.3" cy="-1.8" r="0.6"/>
				<circle class="st1" cx="60.8" cy="-1.8" r="0.6"/>
				<circle class="st1" cx="64.4" cy="-1.8" r="0.6"/>
				<circle class="st1" cx="68" cy="-1.8" r="0.6"/>
				<circle class="st1" cx="71.5" cy="-1.8" r="0.6"/>
				<circle class="st1" cx="75.1" cy="-19.7" r="0.6"/>
				<circle class="st1" cx="78.7" cy="-19.7" r="0.6"/>
				<circle class="st1" cx="82.3" cy="-19.7" r="0.6"/>
				<circle class="st1" cx="85.8" cy="-19.7" r="0.6"/>
				<circle class="st1" cx="75.1" cy="-16.1" r="0.6"/>
				<circle class="st1" cx="78.7" cy="-16.1" r="0.6"/>
				<circle class="st1" cx="82.3" cy="-16.1" r="0.6"/>
				<circle class="st1" cx="85.8" cy="-16.1" r="0.6"/>
				<circle class="st1" cx="75.1" cy="-12.6" r="0.6"/>
				<circle class="st1" cx="78.7" cy="-12.6" r="0.6"/>
				<circle class="st1" cx="82.3" cy="-12.6" r="0.6"/>
				<circle class="st1" cx="85.8" cy="-12.6" r="0.6"/>
				<circle class="st1" cx="75.1" cy="-9" r="0.6"/>
				<circle class="st1" cx="78.7" cy="-9" r="0.6"/>
				<circle class="st1" cx="82.3" cy="-9" r="0.6"/>
				<circle class="st1" cx="85.8" cy="-9" r="0.6"/>
				<circle class="st1" cx="75.1" cy="-5.4" r="0.6"/>
				<circle class="st1" cx="78.7" cy="-5.4" r="0.6"/>
				<circle class="st1" cx="82.3" cy="-5.4" r="0.6"/>
				<circle class="st1" cx="85.8" cy="-5.4" r="0.6"/>
				<circle class="st1" cx="75.1" cy="-1.8" r="0.6"/>
				<circle class="st1" cx="78.7" cy="-1.8" r="0.6"/>
				<circle class="st1" cx="82.3" cy="-1.8" r="0.6"/>
				<circle class="st1" cx="85.8" cy="-1.8" r="0.6"/>
				<circle class="st1" cx="42.9" cy="-41.2" r="0.6"/>
				<circle class="st1" cx="42.9" cy="-37.6" r="0.6"/>
				<circle class="st1" cx="42.9" cy="-34" r="0.6"/>
				<circle class="st1" cx="42.9" cy="-30.4" r="0.6"/>
				<circle class="st1" cx="42.9" cy="-26.9" r="0.6"/>
				<circle class="st1" cx="42.9" cy="-23.3" r="0.6"/>
				<circle class="st1" cx="42.9" cy="-19.7" r="0.6"/>
				<circle class="st1" cx="42.9" cy="-16.1" r="0.6"/>
				<circle class="st1" cx="42.9" cy="-12.6" r="0.6"/>
				<circle class="st1" cx="42.9" cy="-9" r="0.6"/>
				<circle class="st1" cx="42.9" cy="-5.4" r="0.6"/>
				<circle class="st1" cx="42.9" cy="-1.8" r="0.6"/>
			</g>
			<g>
				<defs>
					<rect id="SVGID_3_" x="42.9" y="-43" width="43" height="43"/>
				</defs>
				<clipPath id="SVGID_4_">
					<use xlink:href="#SVGID_3_"  style="overflow:visible;"/>
				</clipPath>
				<circle class="st3" cx="42.9" cy="-41.2" r="0.6"/>
				<circle class="st3" cx="42.9" cy="-37.6" r="0.6"/>
				<circle class="st3" cx="42.9" cy="-34" r="0.6"/>
				<circle class="st3" cx="42.9" cy="-30.4" r="0.6"/>
				<circle class="st3" cx="42.9" cy="-26.9" r="0.6"/>
				<circle class="st3" cx="42.9" cy="-23.3" r="0.6"/>
				<circle class="st3" cx="42.9" cy="-19.7" r="0.6"/>
				<circle class="st3" cx="42.9" cy="-16.1" r="0.6"/>
				<circle class="st3" cx="42.9" cy="-12.6" r="0.6"/>
				<circle class="st3" cx="42.9" cy="-9" r="0.6"/>
				<circle class="st3" cx="42.9" cy="-5.4" r="0.6"/>
				<circle class="st3" cx="42.9" cy="-1.8" r="0.6"/>
				<circle class="st3" cx="42.8" cy="-41.2" r="0.6"/>
				<circle class="st3" cx="42.8" cy="-37.6" r="0.6"/>
				<circle class="st3" cx="42.8" cy="-34" r="0.6"/>
				<circle class="st3" cx="42.8" cy="-30.4" r="0.6"/>
				<circle class="st3" cx="42.8" cy="-26.9" r="0.6"/>
				<circle class="st3" cx="42.8" cy="-23.3" r="0.6"/>
				<circle class="st3" cx="42.8" cy="-19.7" r="0.6"/>
				<circle class="st3" cx="42.8" cy="-16.1" r="0.6"/>
				<circle class="st3" cx="42.8" cy="-12.6" r="0.6"/>
				<circle class="st3" cx="42.8" cy="-9" r="0.6"/>
				<circle class="st3" cx="42.8" cy="-5.4" r="0.6"/>
				<circle class="st3" cx="42.8" cy="-1.8" r="0.6"/>
			</g>
		</g>
		<g>
			<g>
				<circle class="st1" cx="43" cy="-41.2" r="0.6"/>
				<circle class="st1" cx="43" cy="-37.6" r="0.6"/>
				<circle class="st1" cx="43" cy="-34" r="0.6"/>
				<circle class="st1" cx="43" cy="-30.4" r="0.6"/>
				<circle class="st1" cx="43" cy="-26.9" r="0.6"/>
				<circle class="st1" cx="43" cy="-23.3" r="0.6"/>
				<circle class="st1" cx="43" cy="-19.7" r="0.6"/>
				<circle class="st1" cx="43" cy="-16.1" r="0.6"/>
				<circle class="st1" cx="43" cy="-12.6" r="0.6"/>
				<circle class="st1" cx="43" cy="-9" r="0.6"/>
				<circle class="st1" cx="43" cy="-5.4" r="0.6"/>
				<circle class="st1" cx="43" cy="-1.8" r="0.6"/>
				<circle class="st1" cx="42.9" cy="-41.2" r="0.6"/>
				<circle class="st1" cx="42.9" cy="-37.6" r="0.6"/>
				<circle class="st1" cx="42.9" cy="-34" r="0.6"/>
				<circle class="st1" cx="42.9" cy="-30.4" r="0.6"/>
				<circle class="st1" cx="42.9" cy="-26.9" r="0.6"/>
				<circle class="st1" cx="42.9" cy="-23.3" r="0.6"/>
				<circle class="st1" cx="42.9" cy="-19.7" r="0.6"/>
				<circle class="st1" cx="42.9" cy="-16.1" r="0.6"/>
				<circle class="st1" cx="42.9" cy="-12.6" r="0.6"/>
				<circle class="st1" cx="42.9" cy="-9" r="0.6"/>
				<circle class="st1" cx="42.9" cy="-5.4" r="0.6"/>
				<circle class="st1" cx="42.9" cy="-1.8" r="0.6"/>
			</g>
			<g>
				<defs>
					<rect id="SVGID_5_" y="-43" width="43" height="43"/>
				</defs>
				<clipPath id="SVGID_6_">
					<use xlink:href="#SVGID_5_"  style="overflow:visible;"/>
				</clipPath>
			</g>
		</g>
	</g>
</pattern>
<g>
	<g>
		<path class="st4" d="M195.3,65.1v176.1c0,5.6-4.5,10.1-10.1,10.1H70.8c-5.6,0-10.1-4.5-10.1-10.1V65.1c0-5.6,4.5-10.1,10.1-10.1
			h31.4l4.8,16.5h-2.8c-2.1,0-4.1,0.9-5.5,2.3c-1.4,1.4-2.3,3.4-2.3,5.5c0,4.3,3.5,7.8,7.8,7.8h47.6c2.1,0,4.1-0.9,5.5-2.3
			c1.4-1.4,2.3-3.4,2.3-5.5c0-4.3-3.5-7.8-7.8-7.8h-16L131.1,55h54.2C190.8,55,195.3,59.5,195.3,65.1z"/>
		<path class="st1" d="M196.4,65.1c-0.1,22.7,0,45.5-0.1,68.2l-0.3,68.2l-0.1,34.1l0,4.3c0,1.4,0,3-0.5,4.4c-0.9,2.9-3,5.3-5.7,6.6
			c-1.4,0.6-2.8,1-4.3,1l-4.3,0l-8.5,0l-68.2,0.1l-34.1,0c-3-0.1-6-1.6-7.8-4c-0.9-1.2-1.6-2.6-2-4c-0.1-0.4-0.2-0.7-0.2-1.1
			c-0.1-0.4-0.1-0.8-0.1-1.1c0-0.8,0-1.4,0-2.2l0-17.1l-0.1-68.2L59.8,86l0-17.1c0-1.4,0-2.8,0-4.3c0.1-1.5,0.4-3.1,1.1-4.5
			c1.4-2.8,4-4.9,7-5.7C69.4,54,71,54,72.4,54l4.3,0l8.5,0l17.1,0c0.5,0,0.8,0.3,1,0.7l0,0c1.6,5.5,3.2,11,4.8,16.5
			c0.2,0.5-0.2,1.1-0.7,1.3c-0.1,0-0.2,0-0.3,0l-1.8,0l-0.9,0c-0.3,0-0.5,0-0.8,0c-1,0.1-2,0.5-2.9,1c-1.8,1.1-3,3.1-3.1,5.2
			c-0.2,2.1,0.7,4.2,2.3,5.6c0.8,0.7,1.7,1.2,2.8,1.5c0.5,0.1,1,0.2,1.6,0.2c0.6,0,1.2,0,1.8,0l28.8,0.1l14.4,0.1l1.8,0
			c0.6,0,1.2,0,1.7,0c1.1-0.1,2.2-0.5,3.1-1.1c1.9-1.2,3.2-3.2,3.3-5.4c0.2-2.2-0.7-4.5-2.4-5.9c-0.8-0.7-1.8-1.3-2.9-1.6
			c-0.5-0.2-1.1-0.2-1.6-0.2c-0.6,0-1.2,0-1.8,0L135.8,72c-0.2,0-0.4-0.1-0.4-0.3l-4.7-16.5l0,0c-0.1-0.2,0.1-0.4,0.3-0.5
			c0,0,0.1,0,0.1,0l0,0c5.8-0.2,11.7-0.2,17.5-0.3l17.5-0.2c5.8-0.1,11.7-0.1,17.5-0.1c0.8,0,1.4,0,2.2,0c0.8,0,1.6,0.2,2.4,0.4
			c1.6,0.4,3,1.2,4.2,2.2C194.9,58.7,196.4,61.9,196.4,65.1z M194.3,65.1c0-2.6-1.2-5.2-3.2-6.9c-1-0.9-2.2-1.5-3.4-1.8
			c-1.3-0.4-2.5-0.4-4.1-0.4c-5.8,0-11.7,0-17.5-0.1l-17.5-0.2c-5.8-0.1-11.7-0.2-17.5-0.3l0.4-0.5l0,0l4.9,16.5l-0.4-0.3l14.4-0.1
			c0.6,0,1.2,0,1.8,0c0.6,0,1.3,0.1,1.9,0.3c1.2,0.3,2.4,0.9,3.4,1.8c2,1.7,3,4.3,2.8,6.9c-0.2,2.6-1.6,5.1-3.8,6.4
			c-1.1,0.7-2.4,1.1-3.6,1.3c-0.7,0.1-1.3,0-1.9,0.1l-1.8,0l-14.4,0.1l-28.8,0.1c-0.6,0-1.2,0-1.8,0c-0.7,0-1.3-0.1-2-0.3
			c-1.3-0.3-2.5-1-3.5-1.8c-1-0.9-1.8-2-2.4-3.2c-0.5-1.2-0.7-2.6-0.6-4c0.2-2.7,1.7-5.3,4-6.7c1.1-0.7,2.5-1.2,3.8-1.3
			c0.3,0,0.7-0.1,1-0.1l0.9,0l1.8,0l-1,1.3c-1.6-5.5-3.2-11-4.7-16.5l0,0l1,0.7l-17.1,0l-8.5,0l-4.3,0c-1.5,0-2.7,0-4,0.3
			c-2.5,0.7-4.7,2.4-5.8,4.7c-0.6,1.2-0.9,2.4-1,3.7c0,1.3,0,2.8,0,4.2l0,17.1l-0.1,68.2l-0.1,68.2l0,17.1c0,1.5,0,2.8,0.3,4.1
			c0.3,1.3,0.9,2.5,1.8,3.5c1.6,2.1,4.2,3.4,6.9,3.6l34.1,0.1l68.2,0.1l8.5,0l4.3,0c1.4,0,2.7-0.3,3.9-0.9c2.4-1.1,4.4-3.3,5.1-5.9
			c0.4-1.3,0.4-2.6,0.4-4.1l0-4.3l-0.1-34.1l-0.3-68.2C194.3,110.6,194.3,87.8,194.3,65.1z"/>
	</g>
	<g>
		<rect x="72.8" y="98.9" class="st5" width="110.4" height="84.3"/>
		<path class="st1" d="M183.6,183.6l-110.7,0.2c-0.3,0-0.5-0.2-0.5-0.5L72,98.9c0-0.4,0.4-0.8,0.8-0.8h0L128,98l27.6-0.1
			c9.2,0,18.4-0.1,27.6,0l0,0c0.5,0,0.9,0.4,0.9,0.9L183.6,183.6z M182.8,182.8l-0.6-83.9l0.9,0.9c-9.2,0.1-18.4,0.1-27.6,0
			L128,99.8l-55.2-0.1l0.8-0.8l-0.3,84.3l-0.5-0.5L182.8,182.8z"/>
	</g>
	<g>
		<path class="st1" d="M159.7,79.3c0,1.8-0.7,3.7-1.9,5.1c-1.2,1.4-2.9,2.4-4.7,2.7c-0.9,0.2-1.8,0.1-2.7,0.1l-2.7,0l-5.4,0.1
			l-21.7,0.3l-10.9,0.1l-5.4,0c-2,0-3.9-0.7-5.4-1.9c-1.5-1.3-2.6-3.1-2.9-5c-0.4-1.9,0-4,1-5.8c1-1.7,2.6-3.1,4.5-3.8
			c0.9-0.3,1.9-0.5,2.9-0.5l2.7,0c0.4,0,0.7,0.3,0.8,0.6l0,0l2.3,7.7l-0.9-0.7l14.4-0.1c4.8,0,9.6,0,14.4,0.1l-0.9,1.2
			c-0.7-2.6-1.4-5.2-2.1-7.8l0,0c-0.1-0.4,0.1-0.8,0.5-0.9c0.1,0,0.1,0,0.2,0l14.1,0.4l1.8,0.1c0.3,0,0.6,0,0.9,0.1
			c0.3,0,0.6,0.1,0.9,0.2c1.2,0.3,2.3,0.8,3.2,1.6C158.6,74.5,159.7,76.9,159.7,79.3z M159.5,79.3c0-2.3-1.2-4.6-3-5.9
			c-0.9-0.7-2-1.2-3.1-1.4c-1.1-0.2-2.3-0.1-3.5-0.1l-14.1,0.4l0.8-1c0.8,2.6,1.6,5.1,2.4,7.7c0.2,0.5-0.1,1-0.6,1.2
			c-0.1,0-0.2,0-0.2,0l0,0c-4.8,0.1-9.6,0.1-14.4,0.1l-14.4-0.1l0,0c-0.4,0-0.8-0.3-0.9-0.7l-2.2-7.8l0.8,0.6l-2.7,0
			c-0.8,0-1.6,0.1-2.4,0.4c-1.5,0.5-2.9,1.6-3.7,3c-0.8,1.4-1.2,3.1-0.9,4.7c0.3,1.6,1.1,3.1,2.4,4.2c1.3,1.1,2.9,1.7,4.6,1.7l5.4,0
			l10.9,0.1l21.7,0.3l5.4,0.1l2.7,0c0.9,0,1.8,0.1,2.7-0.1c1.8-0.3,3.4-1.2,4.6-2.6C158.8,82.9,159.5,81.1,159.5,79.3z"/>
	</g>
	<g>
		<path class="st1" d="M159.7,79.3c0,1.8-0.7,3.7-1.9,5.1c-1.2,1.4-2.9,2.4-4.7,2.7c-0.9,0.2-1.8,0.1-2.7,0.1l-2.7,0l-5.4,0.1
			l-21.7,0.3l-10.9,0.1l-5.4,0c-2,0-3.9-0.7-5.4-1.9c-1.5-1.3-2.6-3.1-2.9-5c-0.4-1.9,0-4,1-5.8c1-1.7,2.6-3.1,4.5-3.8
			c0.9-0.3,1.9-0.5,2.9-0.5l2.7,0c0.4,0,0.7,0.3,0.8,0.6l0,0l2.3,7.7l-0.9-0.7l14.4-0.1c4.8,0,9.6,0,14.4,0.1l-0.9,1.2
			c-0.7-2.6-1.4-5.2-2.1-7.8l0,0c-0.1-0.4,0.1-0.8,0.5-0.9c0.1,0,0.1,0,0.2,0l14.1,0.4l1.8,0.1c0.3,0,0.6,0,0.9,0.1
			c0.3,0,0.6,0.1,0.9,0.2c1.2,0.3,2.3,0.8,3.2,1.6C158.6,74.5,159.7,76.9,159.7,79.3z M159.5,79.3c0-2.3-1.2-4.6-3-5.9
			c-0.9-0.7-2-1.2-3.1-1.4c-1.1-0.2-2.3-0.1-3.5-0.1l-14.1,0.4l0.8-1c0.8,2.6,1.6,5.1,2.4,7.7c0.2,0.5-0.1,1-0.6,1.2
			c-0.1,0-0.2,0-0.2,0l0,0c-4.8,0.1-9.6,0.1-14.4,0.1l-14.4-0.1l0,0c-0.4,0-0.8-0.3-0.9-0.7l-2.2-7.8l0.8,0.6l-2.7,0
			c-0.8,0-1.6,0.1-2.4,0.4c-1.5,0.5-2.9,1.6-3.7,3c-0.8,1.4-1.2,3.1-0.9,4.7c0.3,1.6,1.1,3.1,2.4,4.2c1.3,1.1,2.9,1.7,4.6,1.7l5.4,0
			l10.9,0.1l21.7,0.3l5.4,0.1l2.7,0c0.9,0,1.8,0.1,2.7-0.1c1.8-0.3,3.4-1.2,4.6-2.6C158.8,82.9,159.5,81.1,159.5,79.3z"/>
	</g>
	<polygon class="st6" points="138.1,79.3 109.2,79.3 107,71.5 102.2,55 87.7,4.7 116.5,4.7 128,44.4 131.1,55 135.8,71.5 	"/>
	<rect x="72.8" y="194" class="st6" width="110.4" height="11.4"/>
	<rect x="72.8" y="229.8" class="st6" width="110.4" height="11.4"/>
	<path class="st6" d="M154.1,175.4v7.8h-52.3v-7.8c0-9.8,5.4-18.4,13.4-22.8c1.1-0.6,2.3-1.2,3.5-1.6c1.4-0.5,2.9-1,4.4-1.2v6.5
		c0,2.3,1.9,4.2,4.2,4.2h1.1c2.3,0,4.2-1.9,4.2-4.2v-6.5c1.5,0.3,3,0.7,4.4,1.2c3.5,1.3,6.6,3.4,9.3,6
		C151.2,161.7,154.1,168.2,154.1,175.4z"/>
	<g>
		<pattern  id="SVGID_7_" xlink:href="#New_Pattern_Swatch_1" patternTransform="matrix(1 0 0 1 14.4 0)">
		</pattern>
		<polygon class="st7" points="138.1,79.3 109.2,79.3 107,71.5 102.2,55 87.7,4.7 116.5,4.7 128,44.4 131.1,55 135.8,71.5 		"/>
		<path class="st1" d="M138.1,79.3l-28.9,0.3c-0.1,0-0.3-0.1-0.3-0.2l-22-74.5c-0.1-0.4,0.1-0.9,0.5-1c0.1,0,0.1,0,0.2,0l0,0
			c4.8-0.1,9.6-0.1,14.4-0.2l14.4-0.1c0.5,0,0.9,0.3,1,0.8l5.3,18.7c1.8,6.2,3.5,12.5,5.2,18.7c1.7,6.2,3.4,12.5,5.1,18.7l2.5,9.4
			l1.2,4.8L138.1,79.3z M138,79.2l-1.5-4.6l-1.5-4.5l-2.9-9.3c-1.9-6.2-3.8-12.4-5.7-18.6c-1.8-6.2-3.7-12.4-5.5-18.6L115.5,5l1,0.8
			l-14.4-0.1c-4.8-0.1-9.6-0.1-14.4-0.2l0.8-1l21.1,74.7l-0.3-0.2L138,79.2z"/>
	</g>
	<g>
		<polygon class="st5" points="135.8,71.5 149,71.5 146.8,79.3 138.1,79.3 		"/>
		<path class="st1" d="M135.7,71.5c2.1-0.1,4.3-0.2,6.5-0.3c2.2-0.1,4.5-0.2,6.8-0.3c0.3,0,0.6,0.3,0.6,0.6c0,0.1,0,0.1,0,0.2l0,0
			l-2,7.8c-0.1,0.4-0.4,0.6-0.8,0.6l-0.1,0c-1.5,0.1-2.9,0.1-4.4,0.2c-1.5,0-2.9,0-4.4-0.1l-0.1,0c-0.4,0-0.7-0.3-0.8-0.7
			c-0.3-1.4-0.6-2.9-0.9-4.3L135.7,71.5z M135.9,71.6c0.6,1.4,1.1,2.7,1.7,3.9c0.5,1.2,1,2.4,1.4,3.5l-0.9-0.7
			c1.5-0.1,2.9-0.1,4.4-0.1c1.5,0,2.9,0.1,4.4,0.2l-0.8,0.6l2.5-7.7l0.6,0.8c-2.1-0.1-4.2-0.2-6.4-0.3
			C140.4,71.7,138.2,71.6,135.9,71.6z"/>
	</g>
	<g>
		<polygon class="st5" points="168.3,4.7 153.8,55 131.1,55 128,44.4 139.5,4.7 		"/>
		<path class="st1" d="M169,4.1l-7.4,25.6c-2.5,8.5-5.1,16.9-7.3,25.4c-0.1,0.3-0.3,0.4-0.6,0.4h0l-22.7,0.2c-0.4,0-0.6-0.2-0.7-0.6
			l0,0l-3.1-10.6c0-0.2,0-0.3,0-0.5l0,0l5.6-19.9c1.9-6.6,3.7-13.3,5.8-19.8l0,0c0.1-0.4,0.5-0.6,0.8-0.6
			C149.3,3.8,159.3,3.9,169,4.1z M167.6,5.2c-9.5,0.2-18.7,0.3-28.1,0.3l0.8-0.6c-1.7,6.7-3.7,13.3-5.6,19.9l-5.8,19.8v-0.5l3,10.6
			l-0.7-0.6l22.7,0.2l-0.6,0.4c2.6-8.3,4.9-16.6,7.2-24.9L167.6,5.2z"/>
	</g>
	<g>
		<pattern  id="SVGID_8_" xlink:href="#New_Pattern_Swatch_1" patternTransform="matrix(1 0 0 1 14.4 0)">
		</pattern>
		<rect x="72.8" y="194" class="st8" width="110.4" height="11.4"/>
		<path class="st1" d="M183.5,205.7l-55.3,0.2l-55.4,0.3c-0.4,0-0.7-0.3-0.7-0.7v0v0L72,194c0-0.4,0.3-0.8,0.8-0.8l0,0
			c9.2-0.1,18.4-0.2,27.6-0.2c9.2-0.1,18.4,0,27.6,0c9.2,0,18.4,0.1,27.6,0.2c9.2,0.1,18.4,0.2,27.6,0.5l0,0c0.2,0,0.4,0.2,0.4,0.4
			C183.6,197.9,183.5,201.8,183.5,205.7z M182.9,205.2c-0.1-3.7-0.1-7.4-0.1-11.1l0.4,0.4c-9.2,0.2-18.4,0.3-27.6,0.5
			c-9.2,0.1-18.4,0.2-27.6,0.2c-9.2,0-18.4,0.1-27.6,0c-9.2,0-18.4-0.1-27.6-0.2l0.8-0.8l-0.1,11.4l-0.7-0.7l55,0.3L182.9,205.2z"/>
	</g>
	<g>
		<pattern  id="SVGID_9_" xlink:href="#New_Pattern_Swatch_1" patternTransform="matrix(1 0 0 1 14.4 0)">
		</pattern>
		<rect x="72.8" y="229.8" class="st9" width="110.4" height="11.4"/>
		<path class="st1" d="M183.6,241.6l-55.4,0.1l-27.7,0.1l-27.7,0.2c-0.4,0-0.7-0.3-0.7-0.7v0v0L72,229.8c0-0.4,0.3-0.8,0.8-0.8l0,0
			c9.2-0.1,18.4-0.2,27.6-0.2c9.2-0.1,18.4,0,27.6,0c9.2,0,18.4,0.1,27.6,0.2c9.2,0.1,18.4,0.2,27.6,0.5c0.2,0,0.4,0.2,0.4,0.4
			C183.6,233.7,183.6,237.6,183.6,241.6z M182.8,240.8c-0.1-3.7-0.1-7.3,0-11l0.4,0.4c-9.2,0.2-18.4,0.3-27.6,0.5
			c-9.2,0.1-18.4,0.2-27.6,0.2c-9.2,0-18.4,0.1-27.6,0c-9.2,0-18.4-0.1-27.6-0.2l0.8-0.8l-0.1,11.4l-0.7-0.7l27.5,0.2l27.5,0.1
			L182.8,240.8z"/>
	</g>
	<g>
		<rect x="72.8" y="211.9" class="st10" width="55.2" height="11.4"/>
		<path class="st1" d="M128.3,223.6l-27.7,0.1l-13.9,0.1L72.8,224c-0.4,0-0.7-0.3-0.7-0.7v0l0,0L72,211.9c0-0.4,0.3-0.8,0.8-0.8l0,0
			c9.2-0.2,18.4-0.2,27.6-0.2c4.6,0,9.2,0,13.8,0.1c4.6,0.1,9.2,0.2,13.8,0.4l0,0c0.3,0,0.5,0.3,0.5,0.5
			C128.5,215.8,128.4,219.8,128.3,223.6z M127.7,223c-0.1-3.7-0.2-7.4-0.2-11.1l0.5,0.5c-4.6,0.2-9.2,0.3-13.8,0.4
			c-4.6,0.1-9.2,0.1-13.8,0.1c-9.2,0-18.4,0-27.6-0.2l0.8-0.8l-0.1,11.4l-0.7-0.7l13.7,0.1l13.7,0.1L127.7,223z"/>
	</g>
	<g>
		<rect x="144.7" y="211.9" class="st11" width="38.5" height="11.4"/>
		<path class="st1" d="M183.5,223.6l-19.4,0.1c-6.5,0-12.9,0.1-19.4,0.2c-0.4,0-0.7-0.3-0.7-0.6l0,0l0,0l-0.1-11.4
			c0-0.4,0.3-0.8,0.8-0.8l0,0c6.4-0.1,12.8-0.2,19.2-0.2c3.2,0,6.4,0,9.6,0c3.2,0,6.4,0.1,9.6,0.3l0,0c0.3,0,0.6,0.3,0.6,0.7
			C183.8,215.9,183.6,219.8,183.5,223.6z M182.9,223c-0.1-3.8-0.3-7.4-0.3-11.1l0.7,0.7c-3.2,0.2-6.4,0.3-9.6,0.3
			c-3.2,0.1-6.4,0-9.6,0c-6.4,0-12.8-0.1-19.2-0.2l0.8-0.8l-0.1,11.4l-0.7-0.7c6.3,0.1,12.7,0.2,19.1,0.2L182.9,223z"/>
	</g>
	<g>
		<pattern  id="SVGID_10_" xlink:href="#New_Pattern_Swatch_1" patternTransform="matrix(1 0 0 1 14.4 0)">
		</pattern>
		<path class="st12" d="M154.1,175.4v7.8h-52.3v-7.8c0-9.8,5.4-18.4,13.4-22.8c1.1-0.6,2.3-1.2,3.5-1.6c1.4-0.5,2.9-1,4.4-1.2v6.5
			c0,2.3,1.9,4.2,4.2,4.2h1.1c2.3,0,4.2-1.9,4.2-4.2v-6.5c1.5,0.3,3,0.7,4.4,1.2c3.5,1.3,6.6,3.4,9.3,6
			C151.2,161.7,154.1,168.2,154.1,175.4z"/>
		<path class="st1" d="M154.2,175.4c0,2.6,0,5.2,0,7.8c0,0.1,0,0.1-0.1,0.1l0,0h0l-26.1,0.3l-26.1,0.2c-0.3,0-0.6-0.3-0.6-0.6v0v0
			l0-5.5c0-0.9,0-1.8,0-2.8l0-1.4l0.1-1.4c0.2-1.9,0.6-3.7,1.2-5.5c0.6-1.8,1.4-3.5,2.4-5.1c2-3.2,4.5-6.1,7.7-8.3
			c3.1-2.2,6.7-3.7,10.4-4.5l0,0c0.5-0.1,1,0.2,1.1,0.8c0,0.1,0,0.1,0,0.2l0,0l0,6.8c0.1,0.9,0.5,1.7,1.2,2.3
			c0.3,0.3,0.7,0.5,1.2,0.6c0.4,0.1,0.8,0.1,1.5,0.1c0.6,0,1,0,1.5-0.1c0.4-0.1,0.9-0.3,1.2-0.6c0.7-0.6,1.2-1.4,1.3-2.4l0.1-3.3
			c0-1.1,0.1-2.3,0.2-3.4l0,0l0,0c0-0.3,0.3-0.5,0.6-0.5l0.1,0c6.1,1.2,11.6,4.6,15.5,9.3c1.9,2.4,3.4,5.1,4.4,8
			C153.8,169.3,154.3,172.4,154.2,175.4z M154,175.4c-0.1-3-0.6-6-1.6-8.8c-1.1-2.8-2.6-5.4-4.5-7.7c-3.9-4.6-9.3-7.7-15.2-8.7
			l0.6-0.5l0,0c0.1,1.1,0.1,2.3,0.2,3.4l0,1.7l0,0.9c0,0.3,0,0.6,0,0.9c-0.1,1.4-0.8,2.7-1.8,3.5c-0.5,0.4-1.1,0.8-1.8,0.9
			c-0.6,0.2-1.4,0.2-1.9,0.2c-0.5,0-1.3,0-1.9-0.2c-0.7-0.2-1.3-0.5-1.8-0.9c-1.1-0.9-1.8-2.2-1.9-3.6c0-0.4,0-0.7,0-0.9l0-0.9
			l0-1.7l0-3.4l1.2,1l0,0c-3.5,0.6-6.8,2-9.8,4c-2.9,2-5.4,4.6-7.3,7.6c-1.9,3-3.1,6.5-3.5,10c-0.3,1.8-0.2,3.6-0.2,5.4l0,5.5
			l-0.6-0.6l26.1,0.2l26.1,0.3h0l-0.1,0.1C154.1,180.6,154,178,154,175.4z"/>
	</g>
	<g>
		<path class="st1" d="M137.3,150.9l0.1,4.9c0.1,1.7-0.3,3.3-1.1,4.8c-0.8,1.5-2,2.7-3.5,3.6c-0.7,0.4-1.5,0.7-2.4,0.9
			c-0.8,0.2-1.7,0.3-2.5,0.3c-0.8,0-1.7,0-2.5-0.2c-0.8-0.2-1.7-0.5-2.4-0.9c-1.5-0.8-2.8-2-3.7-3.5c-0.9-1.5-1.3-3.3-1.3-5
			l-0.1-4.9c0-0.3,0.2-0.6,0.5-0.8l0,0c1.5-0.6,3-1.1,4.6-1.4c0.5-0.1,1,0.2,1.1,0.7c0,0.1,0,0.1,0,0.2l0,0l0.1,6.8
			c0.1,0.9,0.5,1.7,1.2,2.2c0.3,0.3,0.7,0.5,1.1,0.6c0.4,0.1,0.8,0.1,1.4,0.1c0.6,0,1,0,1.4-0.1c0.4-0.1,0.8-0.3,1.2-0.6
			c0.7-0.5,1.2-1.4,1.3-2.3l0.4-6.8l0-0.1c0-0.2,0.2-0.4,0.4-0.4c0,0,0.1,0,0.1,0c0.8,0.2,1.5,0.4,2.2,0.7c0.4,0.1,0.7,0.3,1.1,0.4
			C136.6,150.5,136.9,150.6,137.3,150.9z M137.2,151c-0.3,0-0.7-0.2-1.1-0.2c-0.4-0.1-0.7-0.2-1.1-0.2c-0.7-0.2-1.5-0.3-2.3-0.3
			l0.5-0.4l0.2,3.4l0.1,1.7l0,0.9c0,0.3,0,0.6,0,0.9c-0.1,1.4-0.7,2.7-1.8,3.6c-0.5,0.4-1.2,0.8-1.8,1c-0.7,0.2-1.4,0.2-2,0.2
			c-0.5,0-1.3,0-2-0.2c-0.7-0.2-1.3-0.5-1.9-1c-1.1-0.9-1.9-2.2-2-3.6c0-0.4,0-0.7,0-0.9l0-0.9l0-1.7l0.1-3.4l1.1,0.9
			c-1.5,0.2-2.9,0.6-4.3,1.1l0.5-0.8l-0.1,4.9c-0.1,1.5,0.3,3,1,4.3c0.7,1.3,1.8,2.4,3.1,3.2c0.7,0.4,1.4,0.6,2.1,0.8
			c0.8,0.2,1.5,0.2,2.3,0.2c0.8,0,1.5,0,2.3-0.1c0.8-0.1,1.5-0.4,2.2-0.8c1.4-0.7,2.5-1.8,3.3-3.2c0.8-1.3,1.2-2.9,1.2-4.5
			L137.2,151z"/>
	</g>
	<g>
		<path class="st4" d="M132.8,146.6v9.6c0,2.3-1.9,4.2-4.2,4.2h-1.1c-2.3,0-4.2-1.9-4.2-4.2v-9.6c1.5,0.5,3.1,0.8,4.8,0.8
			C129.7,147.4,131.3,147.1,132.8,146.6z"/>
		<path class="st1" d="M132.9,146.5c0.1,2.7,0.2,5.5,0.3,8.5c0,0.7,0.1,1.5,0,2.2c-0.1,0.8-0.5,1.5-1,2.1c-0.5,0.6-1.2,1.1-1.9,1.4
			c-0.4,0.2-0.8,0.3-1.2,0.3c-0.2,0-0.4,0-0.6,0.1l-0.5,0l-0.5,0c-0.2,0-0.4,0-0.6,0c-0.4,0-0.8-0.1-1.2-0.3c-0.8-0.3-1.5-0.8-2-1.4
			c-0.6-0.6-1-1.4-1.2-2.2c-0.1-0.4-0.1-0.9-0.2-1.2l0-1.1c-0.1-2.8-0.2-5.6,0-8.4l0-0.1c0-0.5,0.5-0.9,1-0.9c0.1,0,0.2,0,0.3,0.1
			c1.4,0.5,2.9,0.9,4.5,1c0.8,0.1,1.6,0.1,2.4,0c0.4,0,0.8,0,1.2-0.1l0.6-0.1l0.3,0C132.6,146.5,132.7,146.5,132.9,146.5z
			 M132.7,146.7c-0.1,0.1-0.1,0.1-0.2,0.2l-0.3,0.1c-0.2,0.1-0.4,0.2-0.6,0.2c-0.4,0.1-0.8,0.3-1.2,0.4c-0.8,0.2-1.6,0.4-2.5,0.4
			c-1.7,0.1-3.4,0-5.1-0.5l1.3-0.9c0.1,2.8,0.1,5.6,0,8.4l0,1.1c0,0.3,0,0.6,0,0.9c0.1,0.5,0.3,1.1,0.7,1.5c0.4,0.4,0.8,0.8,1.4,1
			c0.3,0.1,0.6,0.2,0.8,0.2c0.1,0,0.3,0,0.4,0l0.5,0l0.5,0c0.2,0,0.3,0,0.5,0c0.3,0,0.6-0.1,0.9-0.2c0.6-0.2,1.1-0.5,1.5-1
			c0.4-0.4,0.7-1,0.9-1.6c0.2-0.6,0.1-1.3,0.2-2C132.5,152.3,132.7,149.5,132.7,146.7z"/>
	</g>
	<g>
		<path class="st10" d="M146.5,121.7v9.8c0,8.7-5.4,17.5-13.8,17.5v-2.5c-1.5,0.5-3.1,0.8-4.8,0.8c-1.7,0-3.3-0.3-4.8-0.8v3.1
			c-2.8,0.5-5.5,1.5-7.9,2.9c-3.9-1-6.8-4.6-6.8-8.8c0-2.3,0.8-4.3,2.2-5.9c-0.8-2.1-1.2-4.3-1.2-6.6v-9.4
			c0-10.2,8.3-18.5,18.5-18.5c5,0,9.6,1.9,13.1,5.4c1,1,1.9,2.2,2.7,3.4C145.6,114.9,146.5,118.3,146.5,121.7z"/>
		<path class="st1" d="M146.6,121.7l0,8.6c0,1.4,0,2.9-0.2,4.3c-0.2,1.4-0.5,2.8-1,4.2c-0.9,2.7-2.5,5.3-4.6,7.3
			c-1.1,1-2.3,1.8-3.7,2.4c-1.4,0.6-2.8,0.9-4.3,1c-0.2,0-0.5-0.2-0.5-0.4l0,0v0l0-2.5l0.6,0.5c-3.2,1.1-6.7,1.1-9.9,0.1l0.8-0.5
			l0,3.1c0,0.3-0.2,0.5-0.5,0.6l0,0c-2.7,0.5-5.3,1.5-7.7,2.9c-0.2,0.1-0.3,0.1-0.5,0.1l0,0c-1.6-0.4-3.1-1.2-4.3-2.4
			c-1.2-1.1-2.1-2.6-2.6-4.2c-0.5-1.6-0.6-3.3-0.3-4.9c0.3-1.6,1.1-3.2,2.1-4.5l0,0l-0.1,0.8c-0.6-1.5-1.1-3.1-1.3-4.7
			c-0.1-0.8-0.2-1.6-0.2-2.4l0-2.3l0-4.7l0-2.3c0.1-0.8,0-1.6,0.2-2.5c0.4-3.3,1.7-6.4,3.6-9c0.9-1.3,2.1-2.5,3.4-3.6
			c1.3-1,2.6-1.9,4.2-2.6c3-1.4,6.3-1.9,9.5-1.6c3.2,0.3,6.4,1.4,9,3.2C143.6,109.2,146.7,115.5,146.6,121.7z M146.4,121.7
			c0-3.1-0.8-6.2-2.4-8.8c-1.5-2.7-3.8-4.9-6.4-6.4c-2.6-1.6-5.6-2.4-8.5-2.5c-3-0.1-6,0.5-8.6,1.8c-5.4,2.5-9.2,7.8-9.9,13.6
			c-0.1,0.7-0.1,1.5-0.2,2.2l0,2.3l0,4.7l0,2.3c0,0.8,0,1.5,0.1,2.2c0.2,1.5,0.5,2.9,1,4.3l0,0c0.1,0.3,0,0.6-0.1,0.8l0,0
			c-0.9,1.1-1.6,2.3-1.9,3.7c-0.3,1.4-0.2,2.8,0.2,4.2c0.4,1.4,1.2,2.6,2.2,3.6c1,1,2.3,1.7,3.6,2.1l-0.5,0.1
			c2.5-1.4,5.3-2.4,8.2-2.9l-0.5,0.6l0-3.1l0,0c0-0.3,0.3-0.6,0.6-0.6c0.1,0,0.1,0,0.2,0c3,1,6.3,1.1,9.2,0.1l0,0
			c0.3-0.1,0.5,0.1,0.6,0.3c0,0.1,0,0.1,0,0.2l0,2.5l-0.5-0.5c1.4,0,2.8-0.2,4.1-0.7c1.3-0.5,2.5-1.2,3.6-2.1c2.1-1.9,3.7-4.3,4.7-7
			c0.5-1.3,0.8-2.7,1.1-4.1c0.2-1.4,0.2-2.8,0.2-4.3L146.4,121.7z"/>
	</g>
	<g>
		<path class="st4" d="M139.4,120.2c-0.9,0-1.8-0.3-2.6-0.7c-1.6,1.5-3.7,2.5-6,2.5c-2.2,0-4.1-0.8-5.6-2.1c-1,2.5-3.5,4.3-6.4,4.3
			c-2.3,0-4.4-1.2-5.7-2.9c0,0.4-0.1,0.8-0.1,1.3v9.9c0,6.6,4.3,12.2,10.2,14.2c1.5,0.5,3.1,0.8,4.8,0.8c1.7,0,3.3-0.3,4.8-0.8
			c5.9-2,10.2-7.6,10.2-14.2v-9.9c0-1.2-0.1-2.3-0.4-3.4C141.7,119.8,140.6,120.2,139.4,120.2z"/>
		<path class="st1" d="M139.4,120.3c-0.9,0-1.8-0.2-2.6-0.7l0.1,0c-1.5,1.5-3.7,2.4-5.8,2.5c-2.2,0.1-4.4-0.6-6.1-2l0.4-0.1
			c-0.5,1.2-1.2,2.3-2.3,3.1c-1,0.8-2.3,1.3-3.6,1.5c-1.3,0.2-2.7,0-3.9-0.5c-1.2-0.5-2.3-1.4-3.1-2.5l1-0.3c-0.1,1.4,0,2.9,0,4.4
			l0.1,4.5l0,2.2l0.1,1.1l0.1,1.1c0.2,1.4,0.7,2.8,1.3,4c2.5,5.1,8.3,8.3,13.8,7.8c2.8-0.2,5.4-1.3,7.6-3c2.2-1.7,3.9-4.1,4.8-6.7
			c0.5-1.3,0.8-2.7,0.8-4.1l0.2-4.5l0.2-4.5c0.1-1.5,0.1-3-0.3-4.4l0.2,0.1C141.8,119.9,140.6,120.3,139.4,120.3z M139.4,120.1
			c1.1,0,2.2-0.4,3.1-1.1c0.1-0.1,0.2,0,0.2,0c0,0,0,0,0,0.1l0,0c0.4,1.4,0.5,3,0.5,4.5l0.2,4.5l0.2,4.5c0.1,1.6-0.1,3.1-0.6,4.7
			c-0.8,3-2.7,5.8-5.2,7.8c-2.5,2-5.6,3.2-8.8,3.4c-3.2,0.2-6.4-0.6-9.1-2.2c-2.7-1.6-4.9-4-6.2-6.9c-0.7-1.4-1.1-2.9-1.3-4.5
			c0-0.4-0.1-0.8-0.1-1.2l0-1.2l0-2.2l0.1-4.5c0-1.5,0-2.9,0.1-4.5l0,0c0-0.3,0.3-0.5,0.6-0.5c0.2,0,0.3,0.1,0.4,0.2
			c1.3,1.9,3.6,3,5.9,2.8c2.3-0.2,4.5-1.8,5.4-3.9l0,0c0.1-0.1,0.2-0.2,0.3-0.1c0,0,0.1,0,0.1,0c1.5,1.4,3.6,2.2,5.7,2.2
			c1.1,0,2.1-0.2,3.1-0.6c1-0.4,1.9-1,2.6-1.8c0,0,0.1,0,0.1,0C137.6,119.9,138.5,120.1,139.4,120.1z"/>
	</g>
	<polygon class="st13" points="140.8,71.5 136.1,55 133,44.4 130.5,35.7 128,44.4 131.1,55 135.8,71.5 138.1,79.3 143.1,79.3 	"/>
</g>
</svg>
