<?xml version="1.0" encoding="utf-8"?>
<!-- Generator: Adobe Illustrator 22.1.0, SVG Export Plug-In . SVG Version: 6.00 Build 0)  -->
<svg version="1.1" id="Layer_1" xmlns="http://www.w3.org/2000/svg" xmlns:xlink="http://www.w3.org/1999/xlink" x="0px" y="0px"
	 viewBox="0 0 256 256" style="enable-background:new 0 0 256 256;" xml:space="preserve">
<style type="text/css">
	.st0{fill:none;}
	.st1{fill:#253759;}
	.st2{clip-path:url(#SVGID_2_);fill:#253759;}
	.st3{clip-path:url(#SVGID_4_);fill:#253759;}
	.st4{fill:#D6ECFF;}
	.st5{fill:#FF9D9D;}
	.st6{fill:#A8A7C2;}
	.st7{fill:#A6D6FF;}
	.st8{fill:url(#SVGID_7_);}
	.st9{fill:url(#SVGID_8_);}
	.st10{fill:url(#SVGID_9_);}
	.st11{fill:url(#SVGID_10_);}
	.st12{opacity:0.3;fill:#253759;}
</style>
<pattern  x="-3588" y="-552" width="42.9" height="43" patternUnits="userSpaceOnUse" id="New_Pattern_Swatch_1" viewBox="43 -43 42.9 43" style="overflow:visible;">
	<g>
		<rect x="43" y="-43" class="st0" width="42.9" height="43"/>
		<g>
			<g>
				<circle class="st1" cx="85.9" cy="-41.2" r="0.6"/>
				<circle class="st1" cx="85.9" cy="-37.6" r="0.6"/>
				<circle class="st1" cx="85.9" cy="-34" r="0.6"/>
				<circle class="st1" cx="85.9" cy="-30.4" r="0.6"/>
				<circle class="st1" cx="85.9" cy="-26.9" r="0.6"/>
				<circle class="st1" cx="85.9" cy="-23.3" r="0.6"/>
				<circle class="st1" cx="85.9" cy="-19.7" r="0.6"/>
				<circle class="st1" cx="85.9" cy="-16.1" r="0.6"/>
				<circle class="st1" cx="85.9" cy="-12.6" r="0.6"/>
				<circle class="st1" cx="85.9" cy="-9" r="0.6"/>
				<circle class="st1" cx="85.9" cy="-5.4" r="0.6"/>
				<circle class="st1" cx="85.9" cy="-1.8" r="0.6"/>
				<circle class="st1" cx="85.8" cy="-41.2" r="0.6"/>
				<circle class="st1" cx="85.8" cy="-37.6" r="0.6"/>
				<circle class="st1" cx="85.8" cy="-34" r="0.6"/>
				<circle class="st1" cx="85.8" cy="-30.4" r="0.6"/>
				<circle class="st1" cx="85.8" cy="-26.9" r="0.6"/>
				<circle class="st1" cx="85.8" cy="-23.3" r="0.6"/>
				<circle class="st1" cx="85.8" cy="-19.7" r="0.6"/>
				<circle class="st1" cx="85.8" cy="-16.1" r="0.6"/>
				<circle class="st1" cx="85.8" cy="-12.6" r="0.6"/>
				<circle class="st1" cx="85.8" cy="-9" r="0.6"/>
				<circle class="st1" cx="85.8" cy="-5.4" r="0.6"/>
				<circle class="st1" cx="85.8" cy="-1.8" r="0.6"/>
			</g>
			<g>
				<defs>
					<rect id="SVGID_1_" x="85.8" y="-43" width="43" height="43"/>
				</defs>
				<clipPath id="SVGID_2_">
					<use xlink:href="#SVGID_1_"  style="overflow:visible;"/>
				</clipPath>
				<circle class="st2" cx="85.8" cy="-41.2" r="0.6"/>
				<circle class="st2" cx="85.8" cy="-37.6" r="0.6"/>
				<circle class="st2" cx="85.8" cy="-34" r="0.6"/>
				<circle class="st2" cx="85.8" cy="-30.4" r="0.6"/>
				<circle class="st2" cx="85.8" cy="-26.9" r="0.6"/>
				<circle class="st2" cx="85.8" cy="-23.3" r="0.6"/>
				<circle class="st2" cx="85.8" cy="-19.7" r="0.6"/>
				<circle class="st2" cx="85.8" cy="-16.1" r="0.6"/>
				<circle class="st2" cx="85.8" cy="-12.6" r="0.6"/>
				<circle class="st2" cx="85.8" cy="-9" r="0.6"/>
				<circle class="st2" cx="85.8" cy="-5.4" r="0.6"/>
				<circle class="st2" cx="85.8" cy="-1.8" r="0.6"/>
				<circle class="st2" cx="85.7" cy="-41.2" r="0.6"/>
				<circle class="st2" cx="85.7" cy="-37.6" r="0.6"/>
				<circle class="st2" cx="85.7" cy="-34" r="0.6"/>
				<circle class="st2" cx="85.7" cy="-30.4" r="0.6"/>
				<circle class="st2" cx="85.7" cy="-26.9" r="0.6"/>
				<circle class="st2" cx="85.7" cy="-23.3" r="0.6"/>
				<circle class="st2" cx="85.7" cy="-19.7" r="0.6"/>
				<circle class="st2" cx="85.7" cy="-16.1" r="0.6"/>
				<circle class="st2" cx="85.7" cy="-12.6" r="0.6"/>
				<circle class="st2" cx="85.7" cy="-9" r="0.6"/>
				<circle class="st2" cx="85.7" cy="-5.4" r="0.6"/>
				<circle class="st2" cx="85.7" cy="-1.8" r="0.6"/>
			</g>
		</g>
		<g>
			<g>
				<circle class="st1" cx="85.9" cy="-41.2" r="0.6"/>
				<circle class="st1" cx="85.9" cy="-37.6" r="0.6"/>
				<circle class="st1" cx="85.9" cy="-34" r="0.6"/>
				<circle class="st1" cx="85.9" cy="-30.4" r="0.6"/>
				<circle class="st1" cx="85.9" cy="-26.9" r="0.6"/>
				<circle class="st1" cx="85.9" cy="-23.3" r="0.6"/>
				<circle class="st1" cx="85.9" cy="-19.7" r="0.6"/>
				<circle class="st1" cx="85.9" cy="-16.1" r="0.6"/>
				<circle class="st1" cx="85.9" cy="-12.6" r="0.6"/>
				<circle class="st1" cx="85.9" cy="-9" r="0.6"/>
				<circle class="st1" cx="85.9" cy="-5.4" r="0.6"/>
				<circle class="st1" cx="85.9" cy="-1.8" r="0.6"/>
				<circle class="st1" cx="43" cy="-41.2" r="0.6"/>
				<circle class="st1" cx="46.5" cy="-41.2" r="0.6"/>
				<circle class="st1" cx="50.1" cy="-41.2" r="0.6"/>
				<circle class="st1" cx="53.7" cy="-41.2" r="0.6"/>
				<circle class="st1" cx="43" cy="-37.6" r="0.6"/>
				<circle class="st1" cx="46.5" cy="-37.6" r="0.6"/>
				<circle class="st1" cx="50.1" cy="-37.6" r="0.6"/>
				<circle class="st1" cx="53.7" cy="-37.6" r="0.6"/>
				<circle class="st1" cx="43" cy="-34" r="0.6"/>
				<circle class="st1" cx="46.5" cy="-34" r="0.6"/>
				<circle class="st1" cx="50.1" cy="-34" r="0.6"/>
				<circle class="st1" cx="53.7" cy="-34" r="0.6"/>
				<circle class="st1" cx="43" cy="-30.4" r="0.6"/>
				<circle class="st1" cx="46.5" cy="-30.4" r="0.6"/>
				<circle class="st1" cx="50.1" cy="-30.4" r="0.6"/>
				<circle class="st1" cx="53.7" cy="-30.4" r="0.6"/>
				<circle class="st1" cx="43" cy="-26.9" r="0.6"/>
				<circle class="st1" cx="46.5" cy="-26.9" r="0.6"/>
				<circle class="st1" cx="50.1" cy="-26.9" r="0.6"/>
				<circle class="st1" cx="53.7" cy="-26.9" r="0.6"/>
				<circle class="st1" cx="43" cy="-23.3" r="0.6"/>
				<circle class="st1" cx="46.5" cy="-23.3" r="0.6"/>
				<circle class="st1" cx="50.1" cy="-23.3" r="0.6"/>
				<circle class="st1" cx="53.7" cy="-23.3" r="0.6"/>
				<circle class="st1" cx="57.3" cy="-41.2" r="0.6"/>
				<circle class="st1" cx="60.8" cy="-41.2" r="0.6"/>
				<circle class="st1" cx="64.4" cy="-41.2" r="0.6"/>
				<circle class="st1" cx="68" cy="-41.2" r="0.6"/>
				<circle class="st1" cx="71.5" cy="-41.2" r="0.6"/>
				<circle class="st1" cx="57.3" cy="-37.6" r="0.6"/>
				<circle class="st1" cx="60.8" cy="-37.6" r="0.6"/>
				<circle class="st1" cx="64.4" cy="-37.6" r="0.6"/>
				<circle class="st1" cx="68" cy="-37.6" r="0.6"/>
				<circle class="st1" cx="71.5" cy="-37.6" r="0.6"/>
				<circle class="st1" cx="57.3" cy="-34" r="0.6"/>
				<circle class="st1" cx="60.8" cy="-34" r="0.6"/>
				<circle class="st1" cx="64.4" cy="-34" r="0.6"/>
				<circle class="st1" cx="68" cy="-34" r="0.6"/>
				<circle class="st1" cx="71.5" cy="-34" r="0.6"/>
				<circle class="st1" cx="57.3" cy="-30.4" r="0.6"/>
				<circle class="st1" cx="60.8" cy="-30.4" r="0.6"/>
				<circle class="st1" cx="64.4" cy="-30.4" r="0.6"/>
				<circle class="st1" cx="68" cy="-30.4" r="0.6"/>
				<circle class="st1" cx="71.5" cy="-30.4" r="0.6"/>
				<circle class="st1" cx="57.3" cy="-26.9" r="0.6"/>
				<circle class="st1" cx="60.8" cy="-26.9" r="0.6"/>
				<circle class="st1" cx="64.4" cy="-26.9" r="0.6"/>
				<circle class="st1" cx="68" cy="-26.9" r="0.6"/>
				<circle class="st1" cx="71.5" cy="-26.9" r="0.6"/>
				<circle class="st1" cx="57.3" cy="-23.3" r="0.6"/>
				<circle class="st1" cx="60.8" cy="-23.3" r="0.6"/>
				<circle class="st1" cx="64.4" cy="-23.3" r="0.6"/>
				<circle class="st1" cx="68" cy="-23.3" r="0.6"/>
				<circle class="st1" cx="71.5" cy="-23.3" r="0.6"/>
				<circle class="st1" cx="75.1" cy="-41.2" r="0.6"/>
				<circle class="st1" cx="78.7" cy="-41.2" r="0.6"/>
				<circle class="st1" cx="82.3" cy="-41.2" r="0.6"/>
				<circle class="st1" cx="85.8" cy="-41.2" r="0.6"/>
				<circle class="st1" cx="75.1" cy="-37.6" r="0.6"/>
				<circle class="st1" cx="78.7" cy="-37.6" r="0.6"/>
				<circle class="st1" cx="82.3" cy="-37.6" r="0.6"/>
				<circle class="st1" cx="85.8" cy="-37.6" r="0.6"/>
				<circle class="st1" cx="75.1" cy="-34" r="0.6"/>
				<circle class="st1" cx="78.7" cy="-34" r="0.6"/>
				<circle class="st1" cx="82.3" cy="-34" r="0.6"/>
				<circle class="st1" cx="85.8" cy="-34" r="0.6"/>
				<circle class="st1" cx="75.1" cy="-30.4" r="0.6"/>
				<circle class="st1" cx="78.7" cy="-30.4" r="0.6"/>
				<circle class="st1" cx="82.3" cy="-30.4" r="0.6"/>
				<circle class="st1" cx="85.8" cy="-30.4" r="0.6"/>
				<circle class="st1" cx="75.1" cy="-26.9" r="0.6"/>
				<circle class="st1" cx="78.7" cy="-26.9" r="0.6"/>
				<circle class="st1" cx="82.3" cy="-26.9" r="0.6"/>
				<circle class="st1" cx="85.8" cy="-26.9" r="0.6"/>
				<circle class="st1" cx="75.1" cy="-23.3" r="0.6"/>
				<circle class="st1" cx="78.7" cy="-23.3" r="0.6"/>
				<circle class="st1" cx="82.3" cy="-23.3" r="0.6"/>
				<circle class="st1" cx="85.8" cy="-23.3" r="0.6"/>
				<circle class="st1" cx="43" cy="-19.7" r="0.6"/>
				<circle class="st1" cx="46.5" cy="-19.7" r="0.6"/>
				<circle class="st1" cx="50.1" cy="-19.7" r="0.6"/>
				<circle class="st1" cx="53.7" cy="-19.7" r="0.6"/>
				<circle class="st1" cx="43" cy="-16.1" r="0.6"/>
				<circle class="st1" cx="46.5" cy="-16.1" r="0.6"/>
				<circle class="st1" cx="50.1" cy="-16.1" r="0.6"/>
				<circle class="st1" cx="53.7" cy="-16.1" r="0.6"/>
				<circle class="st1" cx="43" cy="-12.6" r="0.6"/>
				<circle class="st1" cx="46.5" cy="-12.6" r="0.6"/>
				<circle class="st1" cx="50.1" cy="-12.6" r="0.6"/>
				<circle class="st1" cx="53.7" cy="-12.6" r="0.6"/>
				<circle class="st1" cx="43" cy="-9" r="0.6"/>
				<circle class="st1" cx="46.5" cy="-9" r="0.6"/>
				<circle class="st1" cx="50.1" cy="-9" r="0.6"/>
				<circle class="st1" cx="53.7" cy="-9" r="0.6"/>
				<circle class="st1" cx="43" cy="-5.4" r="0.6"/>
				<circle class="st1" cx="46.5" cy="-5.4" r="0.6"/>
				<circle class="st1" cx="50.1" cy="-5.4" r="0.6"/>
				<circle class="st1" cx="53.7" cy="-5.4" r="0.6"/>
				<circle class="st1" cx="43" cy="-1.8" r="0.6"/>
				<circle class="st1" cx="46.5" cy="-1.8" r="0.6"/>
				<circle class="st1" cx="50.1" cy="-1.8" r="0.6"/>
				<circle class="st1" cx="53.7" cy="-1.8" r="0.6"/>
				<circle class="st1" cx="57.3" cy="-19.7" r="0.6"/>
				<circle class="st1" cx="60.8" cy="-19.7" r="0.6"/>
				<circle class="st1" cx="64.4" cy="-19.7" r="0.6"/>
				<circle class="st1" cx="68" cy="-19.7" r="0.6"/>
				<circle class="st1" cx="71.5" cy="-19.7" r="0.6"/>
				<circle class="st1" cx="57.3" cy="-16.1" r="0.6"/>
				<circle class="st1" cx="60.8" cy="-16.1" r="0.6"/>
				<circle class="st1" cx="64.4" cy="-16.1" r="0.6"/>
				<circle class="st1" cx="68" cy="-16.1" r="0.6"/>
				<circle class="st1" cx="71.5" cy="-16.1" r="0.6"/>
				<circle class="st1" cx="57.3" cy="-12.6" r="0.6"/>
				<circle class="st1" cx="60.8" cy="-12.6" r="0.6"/>
				<circle class="st1" cx="64.4" cy="-12.6" r="0.6"/>
				<circle class="st1" cx="68" cy="-12.6" r="0.6"/>
				<circle class="st1" cx="71.5" cy="-12.6" r="0.6"/>
				<circle class="st1" cx="57.3" cy="-9" r="0.6"/>
				<circle class="st1" cx="60.8" cy="-9" r="0.6"/>
				<circle class="st1" cx="64.4" cy="-9" r="0.6"/>
				<circle class="st1" cx="68" cy="-9" r="0.6"/>
				<circle class="st1" cx="71.5" cy="-9" r="0.6"/>
				<circle class="st1" cx="57.3" cy="-5.4" r="0.6"/>
				<circle class="st1" cx="60.8" cy="-5.4" r="0.6"/>
				<circle class="st1" cx="64.4" cy="-5.4" r="0.6"/>
				<circle class="st1" cx="68" cy="-5.4" r="0.6"/>
				<circle class="st1" cx="71.5" cy="-5.4" r="0.6"/>
				<circle class="st1" cx="57.3" cy="-1.8" r="0.6"/>
				<circle class="st1" cx="60.8" cy="-1.8" r="0.6"/>
				<circle class="st1" cx="64.4" cy="-1.8" r="0.6"/>
				<circle class="st1" cx="68" cy="-1.8" r="0.6"/>
				<circle class="st1" cx="71.5" cy="-1.8" r="0.6"/>
				<circle class="st1" cx="75.1" cy="-19.7" r="0.6"/>
				<circle class="st1" cx="78.7" cy="-19.7" r="0.6"/>
				<circle class="st1" cx="82.3" cy="-19.7" r="0.6"/>
				<circle class="st1" cx="85.8" cy="-19.7" r="0.6"/>
				<circle class="st1" cx="75.1" cy="-16.1" r="0.6"/>
				<circle class="st1" cx="78.7" cy="-16.1" r="0.6"/>
				<circle class="st1" cx="82.3" cy="-16.1" r="0.6"/>
				<circle class="st1" cx="85.8" cy="-16.1" r="0.6"/>
				<circle class="st1" cx="75.1" cy="-12.6" r="0.6"/>
				<circle class="st1" cx="78.7" cy="-12.6" r="0.6"/>
				<circle class="st1" cx="82.3" cy="-12.6" r="0.6"/>
				<circle class="st1" cx="85.8" cy="-12.6" r="0.6"/>
				<circle class="st1" cx="75.1" cy="-9" r="0.6"/>
				<circle class="st1" cx="78.7" cy="-9" r="0.6"/>
				<circle class="st1" cx="82.3" cy="-9" r="0.6"/>
				<circle class="st1" cx="85.8" cy="-9" r="0.6"/>
				<circle class="st1" cx="75.1" cy="-5.4" r="0.6"/>
				<circle class="st1" cx="78.7" cy="-5.4" r="0.6"/>
				<circle class="st1" cx="82.3" cy="-5.4" r="0.6"/>
				<circle class="st1" cx="85.8" cy="-5.4" r="0.6"/>
				<circle class="st1" cx="75.1" cy="-1.8" r="0.6"/>
				<circle class="st1" cx="78.7" cy="-1.8" r="0.6"/>
				<circle class="st1" cx="82.3" cy="-1.8" r="0.6"/>
				<circle class="st1" cx="85.8" cy="-1.8" r="0.6"/>
				<circle class="st1" cx="42.9" cy="-41.2" r="0.6"/>
				<circle class="st1" cx="42.9" cy="-37.6" r="0.6"/>
				<circle class="st1" cx="42.9" cy="-34" r="0.6"/>
				<circle class="st1" cx="42.9" cy="-30.4" r="0.6"/>
				<circle class="st1" cx="42.9" cy="-26.9" r="0.6"/>
				<circle class="st1" cx="42.9" cy="-23.3" r="0.6"/>
				<circle class="st1" cx="42.9" cy="-19.7" r="0.6"/>
				<circle class="st1" cx="42.9" cy="-16.1" r="0.6"/>
				<circle class="st1" cx="42.9" cy="-12.6" r="0.6"/>
				<circle class="st1" cx="42.9" cy="-9" r="0.6"/>
				<circle class="st1" cx="42.9" cy="-5.4" r="0.6"/>
				<circle class="st1" cx="42.9" cy="-1.8" r="0.6"/>
			</g>
			<g>
				<defs>
					<rect id="SVGID_3_" x="42.9" y="-43" width="43" height="43"/>
				</defs>
				<clipPath id="SVGID_4_">
					<use xlink:href="#SVGID_3_"  style="overflow:visible;"/>
				</clipPath>
				<circle class="st3" cx="42.9" cy="-41.2" r="0.6"/>
				<circle class="st3" cx="42.9" cy="-37.6" r="0.6"/>
				<circle class="st3" cx="42.9" cy="-34" r="0.6"/>
				<circle class="st3" cx="42.9" cy="-30.4" r="0.6"/>
				<circle class="st3" cx="42.9" cy="-26.9" r="0.6"/>
				<circle class="st3" cx="42.9" cy="-23.3" r="0.6"/>
				<circle class="st3" cx="42.9" cy="-19.7" r="0.6"/>
				<circle class="st3" cx="42.9" cy="-16.1" r="0.6"/>
				<circle class="st3" cx="42.9" cy="-12.6" r="0.6"/>
				<circle class="st3" cx="42.9" cy="-9" r="0.6"/>
				<circle class="st3" cx="42.9" cy="-5.4" r="0.6"/>
				<circle class="st3" cx="42.9" cy="-1.8" r="0.6"/>
				<circle class="st3" cx="42.8" cy="-41.2" r="0.6"/>
				<circle class="st3" cx="42.8" cy="-37.6" r="0.6"/>
				<circle class="st3" cx="42.8" cy="-34" r="0.6"/>
				<circle class="st3" cx="42.8" cy="-30.4" r="0.6"/>
				<circle class="st3" cx="42.8" cy="-26.9" r="0.6"/>
				<circle class="st3" cx="42.8" cy="-23.3" r="0.6"/>
				<circle class="st3" cx="42.8" cy="-19.7" r="0.6"/>
				<circle class="st3" cx="42.8" cy="-16.1" r="0.6"/>
				<circle class="st3" cx="42.8" cy="-12.6" r="0.6"/>
				<circle class="st3" cx="42.8" cy="-9" r="0.6"/>
				<circle class="st3" cx="42.8" cy="-5.4" r="0.6"/>
				<circle class="st3" cx="42.8" cy="-1.8" r="0.6"/>
			</g>
		</g>
		<g>
			<g>
				<circle class="st1" cx="43" cy="-41.2" r="0.6"/>
				<circle class="st1" cx="43" cy="-37.6" r="0.6"/>
				<circle class="st1" cx="43" cy="-34" r="0.6"/>
				<circle class="st1" cx="43" cy="-30.4" r="0.6"/>
				<circle class="st1" cx="43" cy="-26.9" r="0.6"/>
				<circle class="st1" cx="43" cy="-23.3" r="0.6"/>
				<circle class="st1" cx="43" cy="-19.7" r="0.6"/>
				<circle class="st1" cx="43" cy="-16.1" r="0.6"/>
				<circle class="st1" cx="43" cy="-12.6" r="0.6"/>
				<circle class="st1" cx="43" cy="-9" r="0.6"/>
				<circle class="st1" cx="43" cy="-5.4" r="0.6"/>
				<circle class="st1" cx="43" cy="-1.8" r="0.6"/>
				<circle class="st1" cx="42.9" cy="-41.2" r="0.6"/>
				<circle class="st1" cx="42.9" cy="-37.6" r="0.6"/>
				<circle class="st1" cx="42.9" cy="-34" r="0.6"/>
				<circle class="st1" cx="42.9" cy="-30.4" r="0.6"/>
				<circle class="st1" cx="42.9" cy="-26.9" r="0.6"/>
				<circle class="st1" cx="42.9" cy="-23.3" r="0.6"/>
				<circle class="st1" cx="42.9" cy="-19.7" r="0.6"/>
				<circle class="st1" cx="42.9" cy="-16.1" r="0.6"/>
				<circle class="st1" cx="42.9" cy="-12.6" r="0.6"/>
				<circle class="st1" cx="42.9" cy="-9" r="0.6"/>
				<circle class="st1" cx="42.9" cy="-5.4" r="0.6"/>
				<circle class="st1" cx="42.9" cy="-1.8" r="0.6"/>
			</g>
			<g>
				<defs>
					<rect id="SVGID_5_" y="-43" width="43" height="43"/>
				</defs>
				<clipPath id="SVGID_6_">
					<use xlink:href="#SVGID_5_"  style="overflow:visible;"/>
				</clipPath>
			</g>
		</g>
	</g>
</pattern>
<g>
	<g>
		<path class="st4" d="M45.5,129.3v35.6H25.4v-32.9c2.1,0.2,4.3,0.2,6.5-0.2L45.5,129.3z"/>
		<path class="st1" d="M45.8,128.9l0.1,18l0,9c0,3,0,6,0.1,9c0,0.3-0.2,0.6-0.6,0.6l0,0l0,0l-20.1,0.2c-0.4,0-0.8-0.4-0.8-0.8l0,0v0
			l-0.1-16.5l0-8.2c0-2.7,0-5.5,0.1-8.2l0-0.1c0-0.5,0.4-0.8,0.9-0.8l0.1,0c1.6,0.2,3.3,0.3,4.9,0.1c0.8-0.1,1.6-0.2,2.5-0.4
			l2.6-0.4L45.8,128.9z M45.2,129.7l-9.7,2.1l-2.4,0.5c-0.8,0.2-1.6,0.3-2.5,0.4c-1.7,0.2-3.5,0.3-5.3,0.1l1-0.9
			c0.1,2.7,0.1,5.5,0.1,8.2l0,8.2l-0.1,16.5l-0.8-0.8l20.1,0.2l-0.6,0.6C45,162,45,159,45,156.1l0-8.8L45.2,129.7z"/>
	</g>
	<g>
		<path class="st5" d="M240.6,182.9H17.9c-4.2,0-7.6-3.4-7.6-7.6v-2.8c0-4.2,3.4-7.6,7.6-7.6h222.8c4.2,0,7.6,3.4,7.6,7.6v2.8
			C248.2,179.5,244.8,182.9,240.6,182.9z"/>
		<path class="st1" d="M240.6,183.5l-124.8,0l-62.4,0.1l-31.2,0.1l-3.9,0c-1.3,0-2.8-0.2-4.1-0.8c-2.6-1.2-4.5-3.8-4.8-6.7
			c-0.1-0.7-0.1-1.4-0.1-2c0-0.7,0-1.3,0-2c0-1.4,0.5-2.9,1.2-4.1c1.5-2.5,4.3-4.1,7.2-4l62.4-0.2l62.4,0l62.4,0.2l31.2,0.1l3.9,0
			c1.3,0,2.8,0.2,4.1,0.8c2.6,1.2,4.4,3.8,4.6,6.6c0.1,0.7,0,1.4,0,2c0,0.7,0,1.3,0,2c-0.1,1.4-0.5,2.8-1.2,4
			C246.1,182,243.4,183.5,240.6,183.5z M240.6,182.4c2.4,0,4.8-1.3,6-3.4c0.6-1,1-2.2,1-3.4c0-0.6,0-1.3,0-1.9c0-0.7,0-1.3,0-1.9
			c-0.3-2.4-1.8-4.6-4-5.6c-1.1-0.5-2.2-0.7-3.5-0.7l-3.9,0l-31.2,0.1l-62.4,0.2l-62.4,0l-62.4-0.2c-2.3,0-4.6,1.2-5.8,3.3
			c-0.6,1-1,2.1-1,3.3c0,0.6,0,1.3,0,1.9c0,0.7,0,1.3,0,1.9c0.2,2.3,1.7,4.5,3.9,5.5c0.5,0.3,1.1,0.4,1.7,0.5
			c0.6,0.1,1.1,0.1,1.8,0.1l3.9,0l31.2,0.1l62.4,0.2L240.6,182.4z"/>
	</g>
	<g>
		<polygon class="st4" points="229.9,182.9 224.9,191 30.4,191 25.4,182.9 		"/>
		<path class="st1" d="M230.2,182.7c-1.6,2.8-3.3,5.7-5,8.5c-0.1,0.1-0.2,0.2-0.3,0.2l-97.3,0.1l-97.3,0.3c-0.3,0-0.5-0.2-0.7-0.4
			l-5-8.1c-0.2-0.4-0.1-0.9,0.3-1.1c0.1-0.1,0.3-0.1,0.4-0.1l51.4-0.1l51.4,0.1l51.1,0.4l25.4,0.2l12.7,0.1
			C221.5,182.8,225.8,182.8,230.2,182.7z M229.5,183.1c-4.1-0.1-8.4-0.1-12.7-0.1l-12.9,0.1l-25.7,0.2l-51.2,0.4l-50.9,0.1
			l-50.9-0.1l0.7-1.2l5,8.1l-0.7-0.4l97.3,0.3l97.3,0.1l-0.3,0.2C226.1,188.2,227.8,185.7,229.5,183.1z"/>
	</g>
	<g>
		<path class="st6" d="M250,78.1c-1.7,8.8-8.6,16.1-18,17.8L45.5,129.3l-13.6,2.4c-2.2,0.4-4.4,0.5-6.5,0.2
			c-7.1-0.8-13.4-5.1-16.9-11.3c-1.2-2.1-2.1-4.5-2.5-7c-0.1-0.5-0.2-1.1-0.2-1.6c-0.1-0.8-0.1-1.6-0.1-2.4c0-1.2,0.1-2.3,0.3-3.5
			c1.4-9.2,8.5-16.8,18.1-18.5l141.7-25.4c0.4-13.6,10.3-25.5,24.2-28c13.9-2.5,27.3,5.2,32.5,17.8l1.7-0.3
			c9.9-1.8,19.4,3.3,23.8,11.7c0.8,1.5,1.4,3.1,1.8,4.8c0.1,0.5,0.3,1,0.4,1.6C250.6,72.7,250.5,75.5,250,78.1z"/>
		<path class="st1" d="M250.3,78.1c-0.9,4.6-3.3,8.9-6.7,12.1c-3.4,3.3-7.8,5.3-12.4,6l-27.3,5l-54.7,9.9L39.9,131l-6.8,1.2
			c-2.3,0.5-4.7,0.7-7.1,0.5c-4.8-0.4-9.4-2.3-13-5.4c-3.6-3.1-6.3-7.3-7.4-12c-0.3-1.2-0.5-2.4-0.6-3.5c-0.1-1.2-0.2-2.4-0.1-3.6
			c0.2-2.4,0.7-4.7,1.6-7c1.8-4.5,4.9-8.3,9-10.9c2-1.3,4.2-2.3,6.6-2.9l1.8-0.4l1.7-0.3l3.4-0.6l27.3-4.9l54.7-9.9
			c18.2-3.3,36.4-6.7,54.7-9.8l0,0l-0.8,0.9c0.3-6.9,3-13.6,7.5-18.8c4.5-5.2,10.8-8.7,17.5-9.8c6.7-1.2,13.8,0,19.7,3.4
			c5.9,3.3,10.7,8.7,13.1,14.9l0,0l-0.4-0.2c1.8-0.4,3.7-0.6,5.6-0.7c1.9,0,3.8,0.3,5.6,0.7c1.9,0.4,3.6,1.2,5.3,2.1
			c1.7,0.9,3.2,2,4.6,3.3c2.8,2.6,4.9,5.9,6.1,9.5C250.8,70.5,251.1,74.4,250.3,78.1z M249.7,78c0.7-3.6,0.5-7.4-0.7-10.9
			c-1.1-3.5-3.2-6.7-5.9-9.3c-1.3-1.3-2.9-2.4-4.5-3.2c-1.6-0.9-3.3-1.6-5.1-2c-1.8-0.4-3.6-0.7-5.5-0.7c-1.9,0-3.7,0.3-5.5,0.6
			c-0.1,0-0.3,0-0.3-0.2l0,0l0,0c-2.5-6.1-7.2-11.3-13-14.4c-5.8-3.1-12.6-4.2-19-3c-6.4,1.2-12.4,4.6-16.6,9.6
			c-4.2,4.9-6.7,11.3-6.8,17.8c0,0.4-0.3,0.8-0.7,0.9l0,0l0,0c-18.2,3.4-36.4,6.6-54.7,9.8l-54.7,9.7l-27.3,4.9l-3.4,0.6l-1.7,0.3
			l-1.6,0.4c-2.2,0.6-4.2,1.5-6.1,2.7c-3.8,2.4-6.7,6-8.4,10.2c-0.8,2.1-1.3,4.3-1.5,6.5c-0.1,1.1,0,2.2,0.1,3.4
			c0.1,1.1,0.2,2.2,0.5,3.3c1,4.4,3.5,8.3,6.9,11.3c3.4,2.9,7.7,4.8,12.2,5.1c2.3,0.2,4.5,0,6.7-0.4l6.8-1.2l109.4-19.4l54.7-9.7
			l27.4-4.8c4.5-0.7,8.9-2.7,12.2-5.9C246.6,86.7,248.9,82.5,249.7,78z"/>
	</g>
	<rect x="61.5" y="155.9" class="st7" width="168.4" height="9"/>
	<polygon class="st7" points="231,96.1 233.4,109.4 225.9,106.1 66.8,134.7 65.2,125.8 	"/>
	<path class="st7" d="M250,78.1L8.4,120.7c-1.2-2.1-2.1-4.5-2.5-7c-0.1-0.5-0.2-1.1-0.2-1.6c-0.1-0.8-0.1-1.6-0.1-2.4
		c0-1.2,0.1-2.3,0.3-3.5l242-42.7c0.8,1.5,1.4,3.1,1.8,4.8c0.1,0.5,0.3,1,0.4,1.6C250.6,72.7,250.5,75.5,250,78.1z"/>
	<polygon class="st7" points="204.9,200.5 50.3,222.1 46,191 203.6,191 	"/>
	<g>
		<pattern  id="SVGID_7_" xlink:href="#New_Pattern_Swatch_1" patternTransform="matrix(1 0 0 1 6.9508 -15.6268)">
		</pattern>
		<rect x="61.5" y="155.9" class="st8" width="168.4" height="9"/>
		<path class="st1" d="M230.2,165.2l-84.3,0.1l-84.4,0.3c-0.4,0-0.8-0.3-0.8-0.8v0l0,0l0-9c0-0.4,0.4-0.8,0.8-0.8l0,0l21-0.2l21-0.1
			l42.1,0l42.1,0.2l21,0.2l21,0.3c0.1,0,0.2,0.1,0.2,0.2C230.2,158.9,230.2,162.1,230.2,165.2z M229.5,164.5c0-2.9,0-5.7,0.1-8.7
			l0.2,0.2l-21,0.3l-21,0.2l-42.1,0.2l-42.1,0l-21-0.1l-21-0.2l0.8-0.8l0,9l-0.8-0.8l84,0.3L229.5,164.5z"/>
	</g>
	<g>
		<pattern  id="SVGID_8_" xlink:href="#New_Pattern_Swatch_1" patternTransform="matrix(1 0 0 1 6.9508 -15.6268)">
		</pattern>
		<polygon class="st9" points="231,96.1 233.4,109.4 225.9,106.1 66.8,134.7 65.2,125.8 		"/>
		<path class="st1" d="M231.2,95.8c0.8,4.5,1.6,9.1,2.3,13.6c0,0.1,0,0.2-0.1,0.2c0,0-0.1,0-0.1,0l-7.5-3.2l0.1,0L67,135.5
			c-0.4,0.1-0.9-0.2-0.9-0.7l0,0l-1.6-8.9c-0.1-0.5,0.2-0.9,0.7-1l0,0l20.8-3.9l20.8-3.7c13.9-2.5,27.8-5,41.6-7.4l41.5-7.1
			L231.2,95.8z M230.8,96.4l-41.5,7.8l-41.3,7.7c-13.8,2.6-27.5,5-41.2,7.5L86,123l-20.7,3.6l0.7-1l1.6,8.9l-0.9-0.7l159.2-27.9
			c0,0,0.1,0,0.1,0l7.5,3.3l-0.2,0.2C232.4,105,231.5,100.7,230.8,96.4z"/>
	</g>
	<g>
		<path class="st1" d="M30.4,173.3c16.9,0.1,33.9,0.1,50.8,0.1l50.8-0.3c16.9-0.1,33.9-0.3,50.8-0.2c16.9,0.2,33.9,0.3,50.8,0.9
			c0.1,0,0.1,0,0.1,0.1c0,0.1,0,0.1-0.1,0.1c-16.9,0.6-33.9,0.7-50.8,0.9c-16.9,0.1-33.9-0.1-50.8-0.2l-50.8-0.3
			c-16.9,0-33.9,0-50.8,0.1c-0.3,0-0.6-0.3-0.6-0.6C29.8,173.6,30,173.3,30.4,173.3C30.3,173.3,30.3,173.3,30.4,173.3z"/>
	</g>
	<g>
		<pattern  id="SVGID_9_" xlink:href="#New_Pattern_Swatch_1" patternTransform="matrix(1 0 0 1 6.9508 -15.6268)">
		</pattern>
		<path class="st10" d="M250,78.1L8.4,120.7c-1.2-2.1-2.1-4.5-2.5-7c-0.1-0.5-0.2-1.1-0.2-1.6c-0.1-0.8-0.1-1.6-0.1-2.4
			c0-1.2,0.1-2.3,0.3-3.5l242-42.7c0.8,1.5,1.4,3.1,1.8,4.8c0.1,0.5,0.3,1,0.4,1.6C250.6,72.7,250.5,75.5,250,78.1z"/>
		<path class="st1" d="M250.2,78.3L8.6,121.4c-0.3,0.1-0.6-0.1-0.8-0.4c-1.3-2.2-2.1-4.7-2.6-7.2c-0.1-0.6-0.2-1.3-0.2-1.9L4.8,110
			c0-1.3,0.1-2.6,0.3-3.9c0.1-0.3,0.3-0.6,0.6-0.7l0,0l60.5-10.8l60.5-10.7l60.5-10.5l30.3-5.1l30.3-5l0,0c0.1,0,0.2,0,0.3,0.1
			c0.6,1.1,1.1,2.3,1.5,3.5c0.4,1.2,0.7,2.4,0.9,3.7c0.2,1.2,0.3,2.5,0.2,3.8c0,0.6-0.1,1.3-0.1,1.9c0,0.3-0.1,0.6-0.1,0.9l-0.1,0.5
			C250.3,77.9,250.3,78.1,250.2,78.3z M249.8,77.9c0-0.1,0-0.2,0-0.3l0.1-0.4c0-0.3,0.1-0.6,0.1-0.9c0.1-0.6,0.1-1.2,0.1-1.8
			c0-1.2,0-2.5-0.2-3.7c-0.2-1.2-0.5-2.4-0.8-3.6c-0.4-1.2-0.8-2.3-1.4-3.4l0.3,0.1l0,0l-30.2,5.6L187.5,75l-60.5,10.9L66.5,96.5
			L6,107.1l0.6-0.7c-0.2,1.2-0.3,2.4-0.3,3.6l0.1,1.8c0,0.6,0.1,1.2,0.2,1.8c0.4,2.4,1.2,4.7,2.4,6.7l-0.8-0.4L249.8,77.9z"/>
	</g>
	<g>
		<pattern  id="SVGID_10_" xlink:href="#New_Pattern_Swatch_1" patternTransform="matrix(1 0 0 1 6.9508 -15.6268)">
		</pattern>
		<polygon class="st11" points="204.9,200.5 50.3,222.1 46,191 203.6,191 		"/>
		<g>
			<path class="st1" d="M205.7,201.1l-77.9,10.6c-13,1.7-25.8,3.6-38.7,5.4l-19.4,2.7l-19.3,2.9c-0.3,0-0.6-0.2-0.6-0.5l0,0l0,0
				l-4.4-31.1c-0.1-0.4,0.2-0.7,0.5-0.7c0,0,0.1,0,0.1,0l39.4-0.1l39.4,0l39.4,0.2l19.7,0.1l19.7,0.2c0.1,0,0.2,0.1,0.2,0.2l0,0
				C204.5,194.1,205.2,197.6,205.7,201.1z M204.1,199.9c-0.4-2.8-0.6-5.7-0.7-8.8l0.2,0.2l-19.7,0.2l-19.7,0.1l-39.4,0.2l-39.4,0
				L46,191.7l0.6-0.7l4.3,31.1l-0.6-0.5l19.3-2.6l19.3-2.7c12.8-1.8,25.7-3.5,38.5-5.4L204.1,199.9z"/>
		</g>
	</g>
	<g>
		<path class="st1" d="M173.7,61.8c0-2.4,0.5-4.8,1.3-7.1c0.9-2.3,2.1-4.4,3.7-6.3c1.6-1.9,3.4-3.7,5.6-4.8c2.2-1.1,4.7-1.7,7.1-1.6
			c0.1,0,0.1,0.1,0.1,0.1c0,0,0,0.1-0.1,0.1c-2.2,1-4.3,1.9-6.2,3.2c-1.9,1.2-3.8,2.4-5.4,4.1c-3.2,3.3-5.3,7.6-5.9,12.3
			C173.9,61.9,173.8,61.9,173.7,61.8C173.7,61.9,173.7,61.9,173.7,61.8z"/>
	</g>
	<g>
		<path class="st1" d="M35.5,139c0.2,1.7,0.3,3.4,0.4,5.1c0.1,1.7,0.1,3.4,0.1,5.1c0,1.7,0,3.4-0.1,5.1c-0.1,1.7-0.2,3.4-0.4,5.1
			c0,0.1-0.1,0.1-0.1,0.1c0,0-0.1,0-0.1-0.1c-0.2-1.7-0.3-3.4-0.4-5.1c-0.1-1.7-0.1-3.4-0.1-5.1c0-1.7,0-3.4,0.1-5.1
			c0.1-1.7,0.2-3.4,0.4-5.1C35.3,138.9,35.4,138.9,35.5,139C35.5,138.9,35.5,139,35.5,139z"/>
	</g>
	<polygon class="st12" points="204.3,196 203.6,191 46,191 46.7,196 	"/>
	
		<rect x="64.4" y="110.9" transform="matrix(0.9843 -0.1765 0.1765 0.9843 -17.743 28.0101)" class="st12" width="168.4" height="5.8"/>
</g>
</svg>
