<svg xmlns="http://www.w3.org/2000/svg" xmlns:xlink="http://www.w3.org/1999/xlink" id="Layer_1" x="0" y="0" enable-background="new 0 0 256 256" version="1.1" viewBox="0 0 256 256" xml:space="preserve"><style>.st0{fill:none;}
	.st1{fill:#253759;}
	.st2{clip-path:url(#SVGID_2_);fill:#253759;}
	.st3{clip-path:url(#SVGID_4_);fill:#253759;}
	.st4{fill:#A6D6FF;}
	.st5{fill:#FFFFFF;}
	.st6{fill:url(#SVGID_7_);}
	.st7{opacity:0.3;fill:#253759;}
	.st8{fill:url(#SVGID_8_);}
	.st9{fill:url(#SVGID_9_);}
	.st10{fill:url(#SVGID_10_);}
	.st11{fill:url(#SVGID_11_);}
	.st12{fill:url(#SVGID_12_);}
	.st13{fill:url(#SVGID_13_);}</style><pattern id="New_Pattern_Swatch_1" width="42.9" height="43" x="-2484" y="-276" overflow="visible" patternUnits="userSpaceOnUse" viewBox="43 -43 42.9 43"><path d="M43-43H85.9V0H43z" class="st0"/><circle cx="85.9" cy="-41.2" r=".6" class="st1"/><circle cx="85.9" cy="-37.6" r=".6" class="st1"/><circle cx="85.9" cy="-34" r=".6" class="st1"/><circle cx="85.9" cy="-30.4" r=".6" class="st1"/><circle cx="85.9" cy="-26.9" r=".6" class="st1"/><circle cx="85.9" cy="-23.3" r=".6" class="st1"/><circle cx="85.9" cy="-19.7" r=".6" class="st1"/><circle cx="85.9" cy="-16.1" r=".6" class="st1"/><circle cx="85.9" cy="-12.6" r=".6" class="st1"/><circle cx="85.9" cy="-9" r=".6" class="st1"/><circle cx="85.9" cy="-5.4" r=".6" class="st1"/><circle cx="85.9" cy="-1.8" r=".6" class="st1"/><circle cx="85.8" cy="-41.2" r=".6" class="st1"/><circle cx="85.8" cy="-37.6" r=".6" class="st1"/><circle cx="85.8" cy="-34" r=".6" class="st1"/><circle cx="85.8" cy="-30.4" r=".6" class="st1"/><circle cx="85.8" cy="-26.9" r=".6" class="st1"/><circle cx="85.8" cy="-23.3" r=".6" class="st1"/><circle cx="85.8" cy="-19.7" r=".6" class="st1"/><circle cx="85.8" cy="-16.1" r=".6" class="st1"/><circle cx="85.8" cy="-12.6" r=".6" class="st1"/><circle cx="85.8" cy="-9" r=".6" class="st1"/><circle cx="85.8" cy="-5.4" r=".6" class="st1"/><circle cx="85.8" cy="-1.8" r=".6" class="st1"/><g><defs><path id="SVGID_1_" d="M85.8-43H128.8V0H85.8z"/></defs><clipPath id="SVGID_2_"><use overflow="visible" xlink:href="#SVGID_1_"/></clipPath><circle cx="85.8" cy="-41.2" r=".6" class="st2"/><circle cx="85.8" cy="-37.6" r=".6" class="st2"/><circle cx="85.8" cy="-34" r=".6" class="st2"/><circle cx="85.8" cy="-30.4" r=".6" class="st2"/><circle cx="85.8" cy="-26.9" r=".6" class="st2"/><circle cx="85.8" cy="-23.3" r=".6" class="st2"/><circle cx="85.8" cy="-19.7" r=".6" class="st2"/><circle cx="85.8" cy="-16.1" r=".6" class="st2"/><circle cx="85.8" cy="-12.6" r=".6" class="st2"/><circle cx="85.8" cy="-9" r=".6" class="st2"/><circle cx="85.8" cy="-5.4" r=".6" class="st2"/><circle cx="85.8" cy="-1.8" r=".6" class="st2"/><circle cx="85.7" cy="-41.2" r=".6" class="st2"/><circle cx="85.7" cy="-37.6" r=".6" class="st2"/><circle cx="85.7" cy="-34" r=".6" class="st2"/><circle cx="85.7" cy="-30.4" r=".6" class="st2"/><circle cx="85.7" cy="-26.9" r=".6" class="st2"/><circle cx="85.7" cy="-23.3" r=".6" class="st2"/><circle cx="85.7" cy="-19.7" r=".6" class="st2"/><circle cx="85.7" cy="-16.1" r=".6" class="st2"/><circle cx="85.7" cy="-12.6" r=".6" class="st2"/><circle cx="85.7" cy="-9" r=".6" class="st2"/><circle cx="85.7" cy="-5.4" r=".6" class="st2"/><circle cx="85.7" cy="-1.8" r=".6" class="st2"/></g><g><circle cx="85.9" cy="-41.2" r=".6" class="st1"/><circle cx="85.9" cy="-37.6" r=".6" class="st1"/><circle cx="85.9" cy="-34" r=".6" class="st1"/><circle cx="85.9" cy="-30.4" r=".6" class="st1"/><circle cx="85.9" cy="-26.9" r=".6" class="st1"/><circle cx="85.9" cy="-23.3" r=".6" class="st1"/><circle cx="85.9" cy="-19.7" r=".6" class="st1"/><circle cx="85.9" cy="-16.1" r=".6" class="st1"/><circle cx="85.9" cy="-12.6" r=".6" class="st1"/><circle cx="85.9" cy="-9" r=".6" class="st1"/><circle cx="85.9" cy="-5.4" r=".6" class="st1"/><circle cx="85.9" cy="-1.8" r=".6" class="st1"/><circle cx="43" cy="-41.2" r=".6" class="st1"/><circle cx="46.5" cy="-41.2" r=".6" class="st1"/><circle cx="50.1" cy="-41.2" r=".6" class="st1"/><circle cx="53.7" cy="-41.2" r=".6" class="st1"/><circle cx="43" cy="-37.6" r=".6" class="st1"/><circle cx="46.5" cy="-37.6" r=".6" class="st1"/><circle cx="50.1" cy="-37.6" r=".6" class="st1"/><circle cx="53.7" cy="-37.6" r=".6" class="st1"/><circle cx="43" cy="-34" r=".6" class="st1"/><circle cx="46.5" cy="-34" r=".6" class="st1"/><circle cx="50.1" cy="-34" r=".6" class="st1"/><circle cx="53.7" cy="-34" r=".6" class="st1"/><circle cx="43" cy="-30.4" r=".6" class="st1"/><circle cx="46.5" cy="-30.4" r=".6" class="st1"/><circle cx="50.1" cy="-30.4" r=".6" class="st1"/><circle cx="53.7" cy="-30.4" r=".6" class="st1"/><circle cx="43" cy="-26.9" r=".6" class="st1"/><circle cx="46.5" cy="-26.9" r=".6" class="st1"/><circle cx="50.1" cy="-26.9" r=".6" class="st1"/><circle cx="53.7" cy="-26.9" r=".6" class="st1"/><circle cx="43" cy="-23.3" r=".6" class="st1"/><circle cx="46.5" cy="-23.3" r=".6" class="st1"/><circle cx="50.1" cy="-23.3" r=".6" class="st1"/><circle cx="53.7" cy="-23.3" r=".6" class="st1"/><circle cx="57.3" cy="-41.2" r=".6" class="st1"/><circle cx="60.8" cy="-41.2" r=".6" class="st1"/><circle cx="64.4" cy="-41.2" r=".6" class="st1"/><circle cx="68" cy="-41.2" r=".6" class="st1"/><circle cx="71.5" cy="-41.2" r=".6" class="st1"/><circle cx="57.3" cy="-37.6" r=".6" class="st1"/><circle cx="60.8" cy="-37.6" r=".6" class="st1"/><circle cx="64.4" cy="-37.6" r=".6" class="st1"/><circle cx="68" cy="-37.6" r=".6" class="st1"/><circle cx="71.5" cy="-37.6" r=".6" class="st1"/><circle cx="57.3" cy="-34" r=".6" class="st1"/><circle cx="60.8" cy="-34" r=".6" class="st1"/><circle cx="64.4" cy="-34" r=".6" class="st1"/><circle cx="68" cy="-34" r=".6" class="st1"/><circle cx="71.5" cy="-34" r=".6" class="st1"/><circle cx="57.3" cy="-30.4" r=".6" class="st1"/><circle cx="60.8" cy="-30.4" r=".6" class="st1"/><circle cx="64.4" cy="-30.4" r=".6" class="st1"/><circle cx="68" cy="-30.4" r=".6" class="st1"/><circle cx="71.5" cy="-30.4" r=".6" class="st1"/><circle cx="57.3" cy="-26.9" r=".6" class="st1"/><circle cx="60.8" cy="-26.9" r=".6" class="st1"/><circle cx="64.4" cy="-26.9" r=".6" class="st1"/><circle cx="68" cy="-26.9" r=".6" class="st1"/><circle cx="71.5" cy="-26.9" r=".6" class="st1"/><circle cx="57.3" cy="-23.3" r=".6" class="st1"/><circle cx="60.8" cy="-23.3" r=".6" class="st1"/><circle cx="64.4" cy="-23.3" r=".6" class="st1"/><circle cx="68" cy="-23.3" r=".6" class="st1"/><circle cx="71.5" cy="-23.3" r=".6" class="st1"/><circle cx="75.1" cy="-41.2" r=".6" class="st1"/><circle cx="78.7" cy="-41.2" r=".6" class="st1"/><circle cx="82.3" cy="-41.2" r=".6" class="st1"/><circle cx="85.8" cy="-41.2" r=".6" class="st1"/><circle cx="75.1" cy="-37.6" r=".6" class="st1"/><circle cx="78.7" cy="-37.6" r=".6" class="st1"/><circle cx="82.3" cy="-37.6" r=".6" class="st1"/><circle cx="85.8" cy="-37.6" r=".6" class="st1"/><circle cx="75.1" cy="-34" r=".6" class="st1"/><circle cx="78.7" cy="-34" r=".6" class="st1"/><circle cx="82.3" cy="-34" r=".6" class="st1"/><circle cx="85.8" cy="-34" r=".6" class="st1"/><circle cx="75.1" cy="-30.4" r=".6" class="st1"/><circle cx="78.7" cy="-30.4" r=".6" class="st1"/><circle cx="82.3" cy="-30.4" r=".6" class="st1"/><circle cx="85.8" cy="-30.4" r=".6" class="st1"/><circle cx="75.1" cy="-26.9" r=".6" class="st1"/><circle cx="78.7" cy="-26.9" r=".6" class="st1"/><circle cx="82.3" cy="-26.9" r=".6" class="st1"/><circle cx="85.8" cy="-26.9" r=".6" class="st1"/><circle cx="75.1" cy="-23.3" r=".6" class="st1"/><circle cx="78.7" cy="-23.3" r=".6" class="st1"/><circle cx="82.3" cy="-23.3" r=".6" class="st1"/><circle cx="85.8" cy="-23.3" r=".6" class="st1"/><circle cx="43" cy="-19.7" r=".6" class="st1"/><circle cx="46.5" cy="-19.7" r=".6" class="st1"/><circle cx="50.1" cy="-19.7" r=".6" class="st1"/><circle cx="53.7" cy="-19.7" r=".6" class="st1"/><circle cx="43" cy="-16.1" r=".6" class="st1"/><circle cx="46.5" cy="-16.1" r=".6" class="st1"/><circle cx="50.1" cy="-16.1" r=".6" class="st1"/><circle cx="53.7" cy="-16.1" r=".6" class="st1"/><circle cx="43" cy="-12.6" r=".6" class="st1"/><circle cx="46.5" cy="-12.6" r=".6" class="st1"/><circle cx="50.1" cy="-12.6" r=".6" class="st1"/><circle cx="53.7" cy="-12.6" r=".6" class="st1"/><circle cx="43" cy="-9" r=".6" class="st1"/><circle cx="46.5" cy="-9" r=".6" class="st1"/><circle cx="50.1" cy="-9" r=".6" class="st1"/><circle cx="53.7" cy="-9" r=".6" class="st1"/><circle cx="43" cy="-5.4" r=".6" class="st1"/><circle cx="46.5" cy="-5.4" r=".6" class="st1"/><circle cx="50.1" cy="-5.4" r=".6" class="st1"/><circle cx="53.7" cy="-5.4" r=".6" class="st1"/><circle cx="43" cy="-1.8" r=".6" class="st1"/><circle cx="46.5" cy="-1.8" r=".6" class="st1"/><circle cx="50.1" cy="-1.8" r=".6" class="st1"/><circle cx="53.7" cy="-1.8" r=".6" class="st1"/><circle cx="57.3" cy="-19.7" r=".6" class="st1"/><circle cx="60.8" cy="-19.7" r=".6" class="st1"/><circle cx="64.4" cy="-19.7" r=".6" class="st1"/><circle cx="68" cy="-19.7" r=".6" class="st1"/><circle cx="71.5" cy="-19.7" r=".6" class="st1"/><circle cx="57.3" cy="-16.1" r=".6" class="st1"/><circle cx="60.8" cy="-16.1" r=".6" class="st1"/><circle cx="64.4" cy="-16.1" r=".6" class="st1"/><circle cx="68" cy="-16.1" r=".6" class="st1"/><circle cx="71.5" cy="-16.1" r=".6" class="st1"/><circle cx="57.3" cy="-12.6" r=".6" class="st1"/><circle cx="60.8" cy="-12.6" r=".6" class="st1"/><circle cx="64.4" cy="-12.6" r=".6" class="st1"/><circle cx="68" cy="-12.6" r=".6" class="st1"/><circle cx="71.5" cy="-12.6" r=".6" class="st1"/><circle cx="57.3" cy="-9" r=".6" class="st1"/><circle cx="60.8" cy="-9" r=".6" class="st1"/><circle cx="64.4" cy="-9" r=".6" class="st1"/><circle cx="68" cy="-9" r=".6" class="st1"/><circle cx="71.5" cy="-9" r=".6" class="st1"/><circle cx="57.3" cy="-5.4" r=".6" class="st1"/><circle cx="60.8" cy="-5.4" r=".6" class="st1"/><circle cx="64.4" cy="-5.4" r=".6" class="st1"/><circle cx="68" cy="-5.4" r=".6" class="st1"/><circle cx="71.5" cy="-5.4" r=".6" class="st1"/><circle cx="57.3" cy="-1.8" r=".6" class="st1"/><circle cx="60.8" cy="-1.8" r=".6" class="st1"/><circle cx="64.4" cy="-1.8" r=".6" class="st1"/><circle cx="68" cy="-1.8" r=".6" class="st1"/><circle cx="71.5" cy="-1.8" r=".6" class="st1"/><circle cx="75.1" cy="-19.7" r=".6" class="st1"/><circle cx="78.7" cy="-19.7" r=".6" class="st1"/><circle cx="82.3" cy="-19.7" r=".6" class="st1"/><circle cx="85.8" cy="-19.7" r=".6" class="st1"/><circle cx="75.1" cy="-16.1" r=".6" class="st1"/><circle cx="78.7" cy="-16.1" r=".6" class="st1"/><circle cx="82.3" cy="-16.1" r=".6" class="st1"/><circle cx="85.8" cy="-16.1" r=".6" class="st1"/><circle cx="75.1" cy="-12.6" r=".6" class="st1"/><circle cx="78.7" cy="-12.6" r=".6" class="st1"/><circle cx="82.3" cy="-12.6" r=".6" class="st1"/><circle cx="85.8" cy="-12.6" r=".6" class="st1"/><circle cx="75.1" cy="-9" r=".6" class="st1"/><circle cx="78.7" cy="-9" r=".6" class="st1"/><circle cx="82.3" cy="-9" r=".6" class="st1"/><circle cx="85.8" cy="-9" r=".6" class="st1"/><circle cx="75.1" cy="-5.4" r=".6" class="st1"/><circle cx="78.7" cy="-5.4" r=".6" class="st1"/><circle cx="82.3" cy="-5.4" r=".6" class="st1"/><circle cx="85.8" cy="-5.4" r=".6" class="st1"/><circle cx="75.1" cy="-1.8" r=".6" class="st1"/><circle cx="78.7" cy="-1.8" r=".6" class="st1"/><circle cx="82.3" cy="-1.8" r=".6" class="st1"/><circle cx="85.8" cy="-1.8" r=".6" class="st1"/><circle cx="42.9" cy="-41.2" r=".6" class="st1"/><circle cx="42.9" cy="-37.6" r=".6" class="st1"/><circle cx="42.9" cy="-34" r=".6" class="st1"/><circle cx="42.9" cy="-30.4" r=".6" class="st1"/><circle cx="42.9" cy="-26.9" r=".6" class="st1"/><circle cx="42.9" cy="-23.3" r=".6" class="st1"/><circle cx="42.9" cy="-19.7" r=".6" class="st1"/><circle cx="42.9" cy="-16.1" r=".6" class="st1"/><circle cx="42.9" cy="-12.6" r=".6" class="st1"/><circle cx="42.9" cy="-9" r=".6" class="st1"/><circle cx="42.9" cy="-5.4" r=".6" class="st1"/><circle cx="42.9" cy="-1.8" r=".6" class="st1"/><g><defs><path id="SVGID_3_" d="M42.9-43H85.9V0H42.9z"/></defs><clipPath id="SVGID_4_"><use overflow="visible" xlink:href="#SVGID_3_"/></clipPath><circle cx="42.9" cy="-41.2" r=".6" class="st3"/><circle cx="42.9" cy="-37.6" r=".6" class="st3"/><circle cx="42.9" cy="-34" r=".6" class="st3"/><circle cx="42.9" cy="-30.4" r=".6" class="st3"/><circle cx="42.9" cy="-26.9" r=".6" class="st3"/><circle cx="42.9" cy="-23.3" r=".6" class="st3"/><circle cx="42.9" cy="-19.7" r=".6" class="st3"/><circle cx="42.9" cy="-16.1" r=".6" class="st3"/><circle cx="42.9" cy="-12.6" r=".6" class="st3"/><circle cx="42.9" cy="-9" r=".6" class="st3"/><circle cx="42.9" cy="-5.4" r=".6" class="st3"/><circle cx="42.9" cy="-1.8" r=".6" class="st3"/><circle cx="42.8" cy="-41.2" r=".6" class="st3"/><circle cx="42.8" cy="-37.6" r=".6" class="st3"/><circle cx="42.8" cy="-34" r=".6" class="st3"/><circle cx="42.8" cy="-30.4" r=".6" class="st3"/><circle cx="42.8" cy="-26.9" r=".6" class="st3"/><circle cx="42.8" cy="-23.3" r=".6" class="st3"/><circle cx="42.8" cy="-19.7" r=".6" class="st3"/><circle cx="42.8" cy="-16.1" r=".6" class="st3"/><circle cx="42.8" cy="-12.6" r=".6" class="st3"/><circle cx="42.8" cy="-9" r=".6" class="st3"/><circle cx="42.8" cy="-5.4" r=".6" class="st3"/><circle cx="42.8" cy="-1.8" r=".6" class="st3"/></g></g><g><circle cx="43" cy="-41.2" r=".6" class="st1"/><circle cx="43" cy="-37.6" r=".6" class="st1"/><circle cx="43" cy="-34" r=".6" class="st1"/><circle cx="43" cy="-30.4" r=".6" class="st1"/><circle cx="43" cy="-26.9" r=".6" class="st1"/><circle cx="43" cy="-23.3" r=".6" class="st1"/><circle cx="43" cy="-19.7" r=".6" class="st1"/><circle cx="43" cy="-16.1" r=".6" class="st1"/><circle cx="43" cy="-12.6" r=".6" class="st1"/><circle cx="43" cy="-9" r=".6" class="st1"/><circle cx="43" cy="-5.4" r=".6" class="st1"/><circle cx="43" cy="-1.8" r=".6" class="st1"/><circle cx="42.9" cy="-41.2" r=".6" class="st1"/><circle cx="42.9" cy="-37.6" r=".6" class="st1"/><circle cx="42.9" cy="-34" r=".6" class="st1"/><circle cx="42.9" cy="-30.4" r=".6" class="st1"/><circle cx="42.9" cy="-26.9" r=".6" class="st1"/><circle cx="42.9" cy="-23.3" r=".6" class="st1"/><circle cx="42.9" cy="-19.7" r=".6" class="st1"/><circle cx="42.9" cy="-16.1" r=".6" class="st1"/><circle cx="42.9" cy="-12.6" r=".6" class="st1"/><circle cx="42.9" cy="-9" r=".6" class="st1"/><circle cx="42.9" cy="-5.4" r=".6" class="st1"/><circle cx="42.9" cy="-1.8" r=".6" class="st1"/><g><defs><path id="SVGID_5_" d="M0-43H43V0H0z"/></defs><clipPath id="SVGID_6_"><use overflow="visible" xlink:href="#SVGID_5_"/></clipPath></g></g></pattern><path d="M243 17 55.4 35 52 24.2 241.9 5.9c3-.3 5.8 1.9 6.1 5 .2 3.1-2 5.8-5 6.1z" class="st4"/><path d="M64.3 64h-60V30.3c0-3.4 2.8-6.2 6.2-6.2H52L55.4 35l8.9 29z" class="st5"/><path d="m64.4 64.1-60.1.5c-.3 0-.6-.3-.6-.6l-.1-21.2V32.2c0-.9-.1-1.7 0-2.8.1-1 .5-2 1-2.8 1-1.7 2.9-2.9 4.9-3.3 1.1-.2 1.9-.1 2.8-.1h8l10.6-.1h10.6c3.5 0 7.1 0 10.6.1.4 0 .8.3.9.7l3 10c1 3.4 2 6.8 2.9 10.2l5.5 20zm-.2-.2L57.5 44c-1.1-3.3-2.2-6.5-3.2-9.7l-3.2-10 .9.7c-3.5.1-7.1.1-10.6.1H30.8L20.2 25h-8c-.9 0-1.8-.1-2.5 0-1.5.2-2.9 1.1-3.7 2.4-.4.6-.7 1.4-.8 2.1-.1.7 0 1.7-.1 2.5v10.8L4.9 64l-.6-.6 59.9.5z" class="st1"/><pattern id="SVGID_7_" patternTransform="translate(7.2)" xlink:href="#New_Pattern_Swatch_1"/><path d="M243 17 55.4 35 52 24.2 241.9 5.9c3-.3 5.8 1.9 6.1 5 .2 3.1-2 5.8-5 6.1z" class="st6"/><path d="M243 17.1c-15.6 1.5-31.3 3-46.9 4.6l-46.9 4.8-93.8 9.3c-.4 0-.7-.2-.8-.5l-3.4-10.8c-.1-.4.1-.9.5-1h.2l51.8-5.2 51.8-5 25.9-2.3 25.9-2.2 25.9-2.2 6.5-.6c1.1-.1 2.1-.3 3.3-.2 1.1.1 2.2.6 3 1.3 1.7 1.4 2.4 3.9 1.7 6.1-.5 2.1-2.5 3.7-4.7 3.9zm-.1-.2c2.1-.2 4-1.8 4.6-3.8.6-2-.1-4.4-1.7-5.7-.8-.7-1.8-1.1-2.9-1.2-1-.1-2.1.1-3.2.2l-6.3.6-25.9 2.8-25.9 2.8-25.9 2.7-51.8 5L52.1 25l.7-1 3.3 10.8-.8-.5 93.8-8.7 46.9-4.2c15.7-1.5 31.3-3 46.9-4.5z" class="st1"/><path d="M251.7 91.1H4.3V64h242.3c2.8 0 5 2.2 5 5v22.1z" class="st5"/><path d="m252.5 92-124.3-.3H66.3l-31 .1-31 .2c-.4 0-.7-.3-.7-.7L3.5 64c0-.4.4-.8.8-.8l136.2-.2 68.1-.1 34-.1h4.3c1.8.1 3.5.9 4.6 2.3.6.7 1 1.5 1.2 2.3.1.4.2.9.2 1.3v5.5c-.1 6-.2 11.9-.4 17.8zm-1.7-1.8c-.2-5.5-.3-10.9-.3-16.4v-5.1c0-.3 0-.5-.1-.8-.1-.5-.4-1-.7-1.4-.7-.8-1.7-1.4-2.8-1.4h-4.2l-34-.1h-68.2L4.3 64.8l.8-.8v27.1l-.7-.7 30.9.2 30.9.1h61.7l122.9-.5z" class="st1"/><path d="M246.7 250.1H9.3c-2.8 0-5-2.2-5-5v-154h247.3v154c.1 2.8-2.2 5-4.9 5z" class="st5"/><path d="m246.7 251.1-199.6-.5H9.7c-1.1 0-2.3-.2-3.3-.8-1-.6-1.7-1.5-2.2-2.6-.2-.5-.3-1.1-.4-1.7V141l-.2-49.9c0-.4.4-.8.8-.8l123.6-.1 61.8-.1c20.6 0 41.2 0 61.8.1.5 0 .9.4.9.9l.1 40.5V245.5c0 1-.4 2-.9 2.9-1 1.6-3 2.7-5 2.7zm0-2c1.3 0 2.7-.7 3.4-1.9.4-.6.6-1.2.6-1.9V131.5l.1-40.5.9.9c-20.6.1-41.2.1-61.8.1H128L4.3 91.9l.8-.8L5 141V245.4c0 .5.1.9.3 1.3.7 1.8 2.5 2.9 4.5 2.8h37.4l199.5-.4z" class="st1"/><path d="M4.3 91.1H251.60000000000002V96.1H4.3z" class="st7"/><path d="m226.9 155.5-197.5.4c-.4 0-.7-.3-.7-.7l-.1-48.5c0-.4.4-.8.8-.8l49.3-.1h73.9l24.6.1c16.4.1 32.9.1 49.3.3.3 0 .6.3.6.6l-.2 48.7zm-.6-.6-.3-48.2.6.6c-16.4.2-32.9.2-49.3.3l-24.6.1H78.8l-49.3-.1.8-.8-.1 48.5-.7-.7 196.8.3z" class="st1"/><path d="M29.4 106.7H226.6V111.7H29.4z" class="st7"/><path d="M120.8 35H135.2V212.5H120.8z" class="st4" transform="rotate(90 128 123.765)"/><path d="M120.8 95.4H135.2V272.9H120.8z" class="st4" transform="rotate(90 128 184.155)"/><path d="M105.7 139.1H150.3V316.6H105.7z" class="st4" transform="rotate(90 128 227.804)"/><circle cx="34.3" cy="77.5" r="6.7" class="st4"/><path d="M64.3 70.9H101.4V84.2H64.3z" class="st4"/><path d="M124 70.9H161.1V84.2H124z" class="st4"/><pattern id="SVGID_8_" patternTransform="translate(7.2)" xlink:href="#New_Pattern_Swatch_1"/><path d="M39.3 116.6H216.8V131H39.3z" class="st8"/><path d="M39 131.2c0-4.9 0-9.8.1-14.6 0-.1.1-.2.2-.2l177.5-.6c.4 0 .8.4.8.8l.1 14.4c0 .5-.4.9-.9.9l-22.3.1h-22.3c-14.8 0-29.7 0-44.5-.1l-88.7-.7zm.5-.5 88.9-.7c14.8-.1 29.5-.1 44.2-.1h22.1l22.1.1-.9.9.1-14.4.8.8-177.5-.6.2-.2v14.2z" class="st1"/><g><path d="m227 250.5-197.6.1c-.3 0-.5-.2-.5-.5l-.3-83c0-.4.4-.8.8-.8l98.6-.2h49.3c16.4.1 32.9 0 49.3.2.4 0 .8.4.8.8l-.4 83.4zm-.8-.8-.3-82.5.8.8c-16.4.2-32.9.1-49.3.2h-49.3l-98.6-.2.8-.8-.3 83-.5-.5h196.7z" class="st1"/></g><path d="M29.4 167.1H226.6V172.1H29.4z" class="st7"/><g><pattern id="SVGID_9_" patternTransform="translate(7.2)" xlink:href="#New_Pattern_Swatch_1"/><path d="M39.3 177H216.8V191.4H39.3z" class="st9"/><path d="M39 191.6c0-4.9 0-9.8.1-14.6 0-.1.1-.2.2-.2l177.5-.6c.4 0 .8.4.8.8l.1 14.4c0 .5-.4.9-.9.9l-22.3.1h-22.3c-14.8 0-29.7 0-44.5-.1l-88.7-.7zm.5-.5 88.9-.6c14.8-.1 29.5-.1 44.2-.1h22.1l22.1.1-.9.9.1-14.4.8.8-177.5-.6.2-.2v14.1z" class="st1"/></g><g><pattern id="SVGID_10_" patternTransform="translate(7.2)" xlink:href="#New_Pattern_Swatch_1"/><path d="M39.3 205.5H216.8V250.1H39.3z" class="st10"/><path d="M38.9 250.4c0-15 0-30 .1-44.9 0-.1.1-.3.3-.3l177.5-.5c.4 0 .8.4.8.8l.2 44.6c0 .6-.5 1-1 1h-44.6l-22.3-.1-22.2-.1-88.8-.5zm.7-.7 88.7-.5 22.1-.1 22.1-.1c14.7 0 29.4-.1 44.2 0l-1 1 .2-44.6.8.8-177.5-.5.3-.3c.1 14.9.1 29.6.1 44.3z" class="st1"/></g><g><pattern id="SVGID_11_" patternTransform="translate(7.2)" xlink:href="#New_Pattern_Swatch_1"/><circle cx="34.3" cy="77.5" r="6.7" class="st11"/><path d="M41.1 77.5c0 1.8-.7 3.5-1.9 4.9-1.2 1.4-3 2.2-4.9 2.3-1.9.1-3.8-.7-5.2-2-1.4-1.3-2.3-3.2-2.3-5.2-.1-2 .7-4 2.1-5.4 1.4-1.5 3.4-2.3 5.4-2.3 1 0 2 .3 2.9.7.9.5 1.6 1.1 2.2 1.8 1.2 1.6 1.8 3.5 1.7 5.2zm-.2 0c0-1.7-.9-3.4-2.2-4.3-1.3-1-2.9-1.4-4.3-1.3-1.5.1-2.9.6-4 1.7-1.1 1-1.8 2.5-1.9 4-.1 1.5.5 3.1 1.6 4.3 1.1 1.2 2.6 1.9 4.3 1.9 1.6.1 3.3-.5 4.6-1.6 1.2-1.2 2-2.9 1.9-4.7z" class="st1"/></g><g><pattern id="SVGID_12_" patternTransform="translate(7.2)" xlink:href="#New_Pattern_Swatch_1"/><path d="M64.3 70.9H101.4V84.2H64.3z" class="st12"/><path d="m101.5 84.3-37.1.6c-.3 0-.6-.3-.6-.6L63.6 71c0-.4.3-.8.8-.8 3.1-.1 6.2-.2 9.3-.2 3.1 0 6.2-.1 9.3 0 3.1 0 6.2 0 9.3.1l9.3.2c.4 0 .7.3.7.7l-.3 6.9-.5 6.4zm-.2-.1-.4-6.8-.3-6.5.7.7-9.3.2c-3.1.1-6.2.1-9.3.1h-9.3c-3.1 0-6.2-.1-9.3-.2l.8-.8.1 13.3-.6-.6 36.9.6z" class="st1"/></g><g><pattern id="SVGID_13_" patternTransform="translate(7.2)" xlink:href="#New_Pattern_Swatch_1"/><path d="M124 70.9H161.1V84.2H124z" class="st13"/><path d="m161.1 84.3-37.1.6c-.3 0-.6-.3-.6-.6l-.2-13.3c0-.4.3-.8.8-.8 3.1-.1 6.2-.2 9.3-.2 3.1 0 6.2-.1 9.3 0 3.1 0 6.2 0 9.3.1l9.3.2c.4 0 .7.3.7.7l-.3 6.9-.5 6.4zm-.1-.1-.4-6.8-.3-6.5.7.7-9.3.2c-3.1.1-6.2.1-9.3.1h-9.3c-3.1 0-6.2-.1-9.3-.2l.8-.8-.2 13.3-.6-.6 37.2.6z" class="st1"/></g></svg>