<?xml version="1.0" encoding="utf-8"?>
<!-- Generator: Adobe Illustrator 22.1.0, SVG Export Plug-In . SVG Version: 6.00 Build 0)  -->
<svg version="1.1" id="Layer_1" xmlns="http://www.w3.org/2000/svg" xmlns:xlink="http://www.w3.org/1999/xlink" x="0px" y="0px"
	 viewBox="0 0 256 256" style="enable-background:new 0 0 256 256;" xml:space="preserve">
<style type="text/css">
	.st0{fill:none;}
	.st1{fill:#253759;}
	.st2{clip-path:url(#SVGID_2_);fill:#253759;}
	.st3{clip-path:url(#SVGID_4_);fill:#253759;}
	.st4{fill:#D6ECFF;}
	.st5{fill:#FFFFFF;}
	.st6{fill:#FF9D9D;}
	.st7{fill:#A6D6FF;}
	.st8{fill:url(#SVGID_7_);}
	.st9{fill:url(#SVGID_8_);}
	.st10{opacity:0.3;fill:#253759;}
	.st11{fill:url(#SVGID_9_);}
	.st12{fill:url(#SVGID_10_);}
	.st13{fill:url(#SVGID_11_);}
	.st14{fill:#A8A7C2;}
	.st15{fill:url(#SVGID_12_);}
</style>
<pattern  x="-2760" y="-276" width="42.9" height="43" patternUnits="userSpaceOnUse" id="New_Pattern_Swatch_1" viewBox="43 -43 42.9 43" style="overflow:visible;">
	<g>
		<rect x="43" y="-43" class="st0" width="42.9" height="43"/>
		<g>
			<g>
				<circle class="st1" cx="85.9" cy="-41.2" r="0.6"/>
				<circle class="st1" cx="85.9" cy="-37.6" r="0.6"/>
				<circle class="st1" cx="85.9" cy="-34" r="0.6"/>
				<circle class="st1" cx="85.9" cy="-30.4" r="0.6"/>
				<circle class="st1" cx="85.9" cy="-26.9" r="0.6"/>
				<circle class="st1" cx="85.9" cy="-23.3" r="0.6"/>
				<circle class="st1" cx="85.9" cy="-19.7" r="0.6"/>
				<circle class="st1" cx="85.9" cy="-16.1" r="0.6"/>
				<circle class="st1" cx="85.9" cy="-12.6" r="0.6"/>
				<circle class="st1" cx="85.9" cy="-9" r="0.6"/>
				<circle class="st1" cx="85.9" cy="-5.4" r="0.6"/>
				<circle class="st1" cx="85.9" cy="-1.8" r="0.6"/>
				<circle class="st1" cx="85.8" cy="-41.2" r="0.6"/>
				<circle class="st1" cx="85.8" cy="-37.6" r="0.6"/>
				<circle class="st1" cx="85.8" cy="-34" r="0.6"/>
				<circle class="st1" cx="85.8" cy="-30.4" r="0.6"/>
				<circle class="st1" cx="85.8" cy="-26.9" r="0.6"/>
				<circle class="st1" cx="85.8" cy="-23.3" r="0.6"/>
				<circle class="st1" cx="85.8" cy="-19.7" r="0.6"/>
				<circle class="st1" cx="85.8" cy="-16.1" r="0.6"/>
				<circle class="st1" cx="85.8" cy="-12.6" r="0.6"/>
				<circle class="st1" cx="85.8" cy="-9" r="0.6"/>
				<circle class="st1" cx="85.8" cy="-5.4" r="0.6"/>
				<circle class="st1" cx="85.8" cy="-1.8" r="0.6"/>
			</g>
			<g>
				<defs>
					<rect id="SVGID_1_" x="85.8" y="-43" width="43" height="43"/>
				</defs>
				<clipPath id="SVGID_2_">
					<use xlink:href="#SVGID_1_"  style="overflow:visible;"/>
				</clipPath>
				<circle class="st2" cx="85.8" cy="-41.2" r="0.6"/>
				<circle class="st2" cx="85.8" cy="-37.6" r="0.6"/>
				<circle class="st2" cx="85.8" cy="-34" r="0.6"/>
				<circle class="st2" cx="85.8" cy="-30.4" r="0.6"/>
				<circle class="st2" cx="85.8" cy="-26.9" r="0.6"/>
				<circle class="st2" cx="85.8" cy="-23.3" r="0.6"/>
				<circle class="st2" cx="85.8" cy="-19.7" r="0.6"/>
				<circle class="st2" cx="85.8" cy="-16.1" r="0.6"/>
				<circle class="st2" cx="85.8" cy="-12.6" r="0.6"/>
				<circle class="st2" cx="85.8" cy="-9" r="0.6"/>
				<circle class="st2" cx="85.8" cy="-5.4" r="0.6"/>
				<circle class="st2" cx="85.8" cy="-1.8" r="0.6"/>
				<circle class="st2" cx="85.7" cy="-41.2" r="0.6"/>
				<circle class="st2" cx="85.7" cy="-37.6" r="0.6"/>
				<circle class="st2" cx="85.7" cy="-34" r="0.6"/>
				<circle class="st2" cx="85.7" cy="-30.4" r="0.6"/>
				<circle class="st2" cx="85.7" cy="-26.9" r="0.6"/>
				<circle class="st2" cx="85.7" cy="-23.3" r="0.6"/>
				<circle class="st2" cx="85.7" cy="-19.7" r="0.6"/>
				<circle class="st2" cx="85.7" cy="-16.1" r="0.6"/>
				<circle class="st2" cx="85.7" cy="-12.6" r="0.6"/>
				<circle class="st2" cx="85.7" cy="-9" r="0.6"/>
				<circle class="st2" cx="85.7" cy="-5.4" r="0.6"/>
				<circle class="st2" cx="85.7" cy="-1.8" r="0.6"/>
			</g>
		</g>
		<g>
			<g>
				<circle class="st1" cx="85.9" cy="-41.2" r="0.6"/>
				<circle class="st1" cx="85.9" cy="-37.6" r="0.6"/>
				<circle class="st1" cx="85.9" cy="-34" r="0.6"/>
				<circle class="st1" cx="85.9" cy="-30.4" r="0.6"/>
				<circle class="st1" cx="85.9" cy="-26.9" r="0.6"/>
				<circle class="st1" cx="85.9" cy="-23.3" r="0.6"/>
				<circle class="st1" cx="85.9" cy="-19.7" r="0.6"/>
				<circle class="st1" cx="85.9" cy="-16.1" r="0.6"/>
				<circle class="st1" cx="85.9" cy="-12.6" r="0.6"/>
				<circle class="st1" cx="85.9" cy="-9" r="0.6"/>
				<circle class="st1" cx="85.9" cy="-5.4" r="0.6"/>
				<circle class="st1" cx="85.9" cy="-1.8" r="0.6"/>
				<circle class="st1" cx="43" cy="-41.2" r="0.6"/>
				<circle class="st1" cx="46.5" cy="-41.2" r="0.6"/>
				<circle class="st1" cx="50.1" cy="-41.2" r="0.6"/>
				<circle class="st1" cx="53.7" cy="-41.2" r="0.6"/>
				<circle class="st1" cx="43" cy="-37.6" r="0.6"/>
				<circle class="st1" cx="46.5" cy="-37.6" r="0.6"/>
				<circle class="st1" cx="50.1" cy="-37.6" r="0.6"/>
				<circle class="st1" cx="53.7" cy="-37.6" r="0.6"/>
				<circle class="st1" cx="43" cy="-34" r="0.6"/>
				<circle class="st1" cx="46.5" cy="-34" r="0.6"/>
				<circle class="st1" cx="50.1" cy="-34" r="0.6"/>
				<circle class="st1" cx="53.7" cy="-34" r="0.6"/>
				<circle class="st1" cx="43" cy="-30.4" r="0.6"/>
				<circle class="st1" cx="46.5" cy="-30.4" r="0.6"/>
				<circle class="st1" cx="50.1" cy="-30.4" r="0.6"/>
				<circle class="st1" cx="53.7" cy="-30.4" r="0.6"/>
				<circle class="st1" cx="43" cy="-26.9" r="0.6"/>
				<circle class="st1" cx="46.5" cy="-26.9" r="0.6"/>
				<circle class="st1" cx="50.1" cy="-26.9" r="0.6"/>
				<circle class="st1" cx="53.7" cy="-26.9" r="0.6"/>
				<circle class="st1" cx="43" cy="-23.3" r="0.6"/>
				<circle class="st1" cx="46.5" cy="-23.3" r="0.6"/>
				<circle class="st1" cx="50.1" cy="-23.3" r="0.6"/>
				<circle class="st1" cx="53.7" cy="-23.3" r="0.6"/>
				<circle class="st1" cx="57.3" cy="-41.2" r="0.6"/>
				<circle class="st1" cx="60.8" cy="-41.2" r="0.6"/>
				<circle class="st1" cx="64.4" cy="-41.2" r="0.6"/>
				<circle class="st1" cx="68" cy="-41.2" r="0.6"/>
				<circle class="st1" cx="71.5" cy="-41.2" r="0.6"/>
				<circle class="st1" cx="57.3" cy="-37.6" r="0.6"/>
				<circle class="st1" cx="60.8" cy="-37.6" r="0.6"/>
				<circle class="st1" cx="64.4" cy="-37.6" r="0.6"/>
				<circle class="st1" cx="68" cy="-37.6" r="0.6"/>
				<circle class="st1" cx="71.5" cy="-37.6" r="0.6"/>
				<circle class="st1" cx="57.3" cy="-34" r="0.6"/>
				<circle class="st1" cx="60.8" cy="-34" r="0.6"/>
				<circle class="st1" cx="64.4" cy="-34" r="0.6"/>
				<circle class="st1" cx="68" cy="-34" r="0.6"/>
				<circle class="st1" cx="71.5" cy="-34" r="0.6"/>
				<circle class="st1" cx="57.3" cy="-30.4" r="0.6"/>
				<circle class="st1" cx="60.8" cy="-30.4" r="0.6"/>
				<circle class="st1" cx="64.4" cy="-30.4" r="0.6"/>
				<circle class="st1" cx="68" cy="-30.4" r="0.6"/>
				<circle class="st1" cx="71.5" cy="-30.4" r="0.6"/>
				<circle class="st1" cx="57.3" cy="-26.9" r="0.6"/>
				<circle class="st1" cx="60.8" cy="-26.9" r="0.6"/>
				<circle class="st1" cx="64.4" cy="-26.9" r="0.6"/>
				<circle class="st1" cx="68" cy="-26.9" r="0.6"/>
				<circle class="st1" cx="71.5" cy="-26.9" r="0.6"/>
				<circle class="st1" cx="57.3" cy="-23.3" r="0.6"/>
				<circle class="st1" cx="60.8" cy="-23.3" r="0.6"/>
				<circle class="st1" cx="64.4" cy="-23.3" r="0.6"/>
				<circle class="st1" cx="68" cy="-23.3" r="0.6"/>
				<circle class="st1" cx="71.5" cy="-23.3" r="0.6"/>
				<circle class="st1" cx="75.1" cy="-41.2" r="0.6"/>
				<circle class="st1" cx="78.7" cy="-41.2" r="0.6"/>
				<circle class="st1" cx="82.3" cy="-41.2" r="0.6"/>
				<circle class="st1" cx="85.8" cy="-41.2" r="0.6"/>
				<circle class="st1" cx="75.1" cy="-37.6" r="0.6"/>
				<circle class="st1" cx="78.7" cy="-37.6" r="0.6"/>
				<circle class="st1" cx="82.3" cy="-37.6" r="0.6"/>
				<circle class="st1" cx="85.8" cy="-37.6" r="0.6"/>
				<circle class="st1" cx="75.1" cy="-34" r="0.6"/>
				<circle class="st1" cx="78.7" cy="-34" r="0.6"/>
				<circle class="st1" cx="82.3" cy="-34" r="0.6"/>
				<circle class="st1" cx="85.8" cy="-34" r="0.6"/>
				<circle class="st1" cx="75.1" cy="-30.4" r="0.6"/>
				<circle class="st1" cx="78.7" cy="-30.4" r="0.6"/>
				<circle class="st1" cx="82.3" cy="-30.4" r="0.6"/>
				<circle class="st1" cx="85.8" cy="-30.4" r="0.6"/>
				<circle class="st1" cx="75.1" cy="-26.9" r="0.6"/>
				<circle class="st1" cx="78.7" cy="-26.9" r="0.6"/>
				<circle class="st1" cx="82.3" cy="-26.9" r="0.6"/>
				<circle class="st1" cx="85.8" cy="-26.9" r="0.6"/>
				<circle class="st1" cx="75.1" cy="-23.3" r="0.6"/>
				<circle class="st1" cx="78.7" cy="-23.3" r="0.6"/>
				<circle class="st1" cx="82.3" cy="-23.3" r="0.6"/>
				<circle class="st1" cx="85.8" cy="-23.3" r="0.6"/>
				<circle class="st1" cx="43" cy="-19.7" r="0.6"/>
				<circle class="st1" cx="46.5" cy="-19.7" r="0.6"/>
				<circle class="st1" cx="50.1" cy="-19.7" r="0.6"/>
				<circle class="st1" cx="53.7" cy="-19.7" r="0.6"/>
				<circle class="st1" cx="43" cy="-16.1" r="0.6"/>
				<circle class="st1" cx="46.5" cy="-16.1" r="0.6"/>
				<circle class="st1" cx="50.1" cy="-16.1" r="0.6"/>
				<circle class="st1" cx="53.7" cy="-16.1" r="0.6"/>
				<circle class="st1" cx="43" cy="-12.6" r="0.6"/>
				<circle class="st1" cx="46.5" cy="-12.6" r="0.6"/>
				<circle class="st1" cx="50.1" cy="-12.6" r="0.6"/>
				<circle class="st1" cx="53.7" cy="-12.6" r="0.6"/>
				<circle class="st1" cx="43" cy="-9" r="0.6"/>
				<circle class="st1" cx="46.5" cy="-9" r="0.6"/>
				<circle class="st1" cx="50.1" cy="-9" r="0.6"/>
				<circle class="st1" cx="53.7" cy="-9" r="0.6"/>
				<circle class="st1" cx="43" cy="-5.4" r="0.6"/>
				<circle class="st1" cx="46.5" cy="-5.4" r="0.6"/>
				<circle class="st1" cx="50.1" cy="-5.4" r="0.6"/>
				<circle class="st1" cx="53.7" cy="-5.4" r="0.6"/>
				<circle class="st1" cx="43" cy="-1.8" r="0.6"/>
				<circle class="st1" cx="46.5" cy="-1.8" r="0.6"/>
				<circle class="st1" cx="50.1" cy="-1.8" r="0.6"/>
				<circle class="st1" cx="53.7" cy="-1.8" r="0.6"/>
				<circle class="st1" cx="57.3" cy="-19.7" r="0.6"/>
				<circle class="st1" cx="60.8" cy="-19.7" r="0.6"/>
				<circle class="st1" cx="64.4" cy="-19.7" r="0.6"/>
				<circle class="st1" cx="68" cy="-19.7" r="0.6"/>
				<circle class="st1" cx="71.5" cy="-19.7" r="0.6"/>
				<circle class="st1" cx="57.3" cy="-16.1" r="0.6"/>
				<circle class="st1" cx="60.8" cy="-16.1" r="0.6"/>
				<circle class="st1" cx="64.4" cy="-16.1" r="0.6"/>
				<circle class="st1" cx="68" cy="-16.1" r="0.6"/>
				<circle class="st1" cx="71.5" cy="-16.1" r="0.6"/>
				<circle class="st1" cx="57.3" cy="-12.6" r="0.6"/>
				<circle class="st1" cx="60.8" cy="-12.6" r="0.6"/>
				<circle class="st1" cx="64.4" cy="-12.6" r="0.6"/>
				<circle class="st1" cx="68" cy="-12.6" r="0.6"/>
				<circle class="st1" cx="71.5" cy="-12.6" r="0.6"/>
				<circle class="st1" cx="57.3" cy="-9" r="0.6"/>
				<circle class="st1" cx="60.8" cy="-9" r="0.6"/>
				<circle class="st1" cx="64.4" cy="-9" r="0.6"/>
				<circle class="st1" cx="68" cy="-9" r="0.6"/>
				<circle class="st1" cx="71.5" cy="-9" r="0.6"/>
				<circle class="st1" cx="57.3" cy="-5.4" r="0.6"/>
				<circle class="st1" cx="60.8" cy="-5.4" r="0.6"/>
				<circle class="st1" cx="64.4" cy="-5.4" r="0.6"/>
				<circle class="st1" cx="68" cy="-5.4" r="0.6"/>
				<circle class="st1" cx="71.5" cy="-5.4" r="0.6"/>
				<circle class="st1" cx="57.3" cy="-1.8" r="0.6"/>
				<circle class="st1" cx="60.8" cy="-1.8" r="0.6"/>
				<circle class="st1" cx="64.4" cy="-1.8" r="0.6"/>
				<circle class="st1" cx="68" cy="-1.8" r="0.6"/>
				<circle class="st1" cx="71.5" cy="-1.8" r="0.6"/>
				<circle class="st1" cx="75.1" cy="-19.7" r="0.6"/>
				<circle class="st1" cx="78.7" cy="-19.7" r="0.6"/>
				<circle class="st1" cx="82.3" cy="-19.7" r="0.6"/>
				<circle class="st1" cx="85.8" cy="-19.7" r="0.6"/>
				<circle class="st1" cx="75.1" cy="-16.1" r="0.6"/>
				<circle class="st1" cx="78.7" cy="-16.1" r="0.6"/>
				<circle class="st1" cx="82.3" cy="-16.1" r="0.6"/>
				<circle class="st1" cx="85.8" cy="-16.1" r="0.6"/>
				<circle class="st1" cx="75.1" cy="-12.6" r="0.6"/>
				<circle class="st1" cx="78.7" cy="-12.6" r="0.6"/>
				<circle class="st1" cx="82.3" cy="-12.6" r="0.6"/>
				<circle class="st1" cx="85.8" cy="-12.6" r="0.6"/>
				<circle class="st1" cx="75.1" cy="-9" r="0.6"/>
				<circle class="st1" cx="78.7" cy="-9" r="0.6"/>
				<circle class="st1" cx="82.3" cy="-9" r="0.6"/>
				<circle class="st1" cx="85.8" cy="-9" r="0.6"/>
				<circle class="st1" cx="75.1" cy="-5.4" r="0.6"/>
				<circle class="st1" cx="78.7" cy="-5.4" r="0.6"/>
				<circle class="st1" cx="82.3" cy="-5.4" r="0.6"/>
				<circle class="st1" cx="85.8" cy="-5.4" r="0.6"/>
				<circle class="st1" cx="75.1" cy="-1.8" r="0.6"/>
				<circle class="st1" cx="78.7" cy="-1.8" r="0.6"/>
				<circle class="st1" cx="82.3" cy="-1.8" r="0.6"/>
				<circle class="st1" cx="85.8" cy="-1.8" r="0.6"/>
				<circle class="st1" cx="42.9" cy="-41.2" r="0.6"/>
				<circle class="st1" cx="42.9" cy="-37.6" r="0.6"/>
				<circle class="st1" cx="42.9" cy="-34" r="0.6"/>
				<circle class="st1" cx="42.9" cy="-30.4" r="0.6"/>
				<circle class="st1" cx="42.9" cy="-26.9" r="0.6"/>
				<circle class="st1" cx="42.9" cy="-23.3" r="0.6"/>
				<circle class="st1" cx="42.9" cy="-19.7" r="0.6"/>
				<circle class="st1" cx="42.9" cy="-16.1" r="0.6"/>
				<circle class="st1" cx="42.9" cy="-12.6" r="0.6"/>
				<circle class="st1" cx="42.9" cy="-9" r="0.6"/>
				<circle class="st1" cx="42.9" cy="-5.4" r="0.6"/>
				<circle class="st1" cx="42.9" cy="-1.8" r="0.6"/>
			</g>
			<g>
				<defs>
					<rect id="SVGID_3_" x="42.9" y="-43" width="43" height="43"/>
				</defs>
				<clipPath id="SVGID_4_">
					<use xlink:href="#SVGID_3_"  style="overflow:visible;"/>
				</clipPath>
				<circle class="st3" cx="42.9" cy="-41.2" r="0.6"/>
				<circle class="st3" cx="42.9" cy="-37.6" r="0.6"/>
				<circle class="st3" cx="42.9" cy="-34" r="0.6"/>
				<circle class="st3" cx="42.9" cy="-30.4" r="0.6"/>
				<circle class="st3" cx="42.9" cy="-26.9" r="0.6"/>
				<circle class="st3" cx="42.9" cy="-23.3" r="0.6"/>
				<circle class="st3" cx="42.9" cy="-19.7" r="0.6"/>
				<circle class="st3" cx="42.9" cy="-16.1" r="0.6"/>
				<circle class="st3" cx="42.9" cy="-12.6" r="0.6"/>
				<circle class="st3" cx="42.9" cy="-9" r="0.6"/>
				<circle class="st3" cx="42.9" cy="-5.4" r="0.6"/>
				<circle class="st3" cx="42.9" cy="-1.8" r="0.6"/>
				<circle class="st3" cx="42.8" cy="-41.2" r="0.6"/>
				<circle class="st3" cx="42.8" cy="-37.6" r="0.6"/>
				<circle class="st3" cx="42.8" cy="-34" r="0.6"/>
				<circle class="st3" cx="42.8" cy="-30.4" r="0.6"/>
				<circle class="st3" cx="42.8" cy="-26.9" r="0.6"/>
				<circle class="st3" cx="42.8" cy="-23.3" r="0.6"/>
				<circle class="st3" cx="42.8" cy="-19.7" r="0.6"/>
				<circle class="st3" cx="42.8" cy="-16.1" r="0.6"/>
				<circle class="st3" cx="42.8" cy="-12.6" r="0.6"/>
				<circle class="st3" cx="42.8" cy="-9" r="0.6"/>
				<circle class="st3" cx="42.8" cy="-5.4" r="0.6"/>
				<circle class="st3" cx="42.8" cy="-1.8" r="0.6"/>
			</g>
		</g>
		<g>
			<g>
				<circle class="st1" cx="43" cy="-41.2" r="0.6"/>
				<circle class="st1" cx="43" cy="-37.6" r="0.6"/>
				<circle class="st1" cx="43" cy="-34" r="0.6"/>
				<circle class="st1" cx="43" cy="-30.4" r="0.6"/>
				<circle class="st1" cx="43" cy="-26.9" r="0.6"/>
				<circle class="st1" cx="43" cy="-23.3" r="0.6"/>
				<circle class="st1" cx="43" cy="-19.7" r="0.6"/>
				<circle class="st1" cx="43" cy="-16.1" r="0.6"/>
				<circle class="st1" cx="43" cy="-12.6" r="0.6"/>
				<circle class="st1" cx="43" cy="-9" r="0.6"/>
				<circle class="st1" cx="43" cy="-5.4" r="0.6"/>
				<circle class="st1" cx="43" cy="-1.8" r="0.6"/>
				<circle class="st1" cx="42.9" cy="-41.2" r="0.6"/>
				<circle class="st1" cx="42.9" cy="-37.6" r="0.6"/>
				<circle class="st1" cx="42.9" cy="-34" r="0.6"/>
				<circle class="st1" cx="42.9" cy="-30.4" r="0.6"/>
				<circle class="st1" cx="42.9" cy="-26.9" r="0.6"/>
				<circle class="st1" cx="42.9" cy="-23.3" r="0.6"/>
				<circle class="st1" cx="42.9" cy="-19.7" r="0.6"/>
				<circle class="st1" cx="42.9" cy="-16.1" r="0.6"/>
				<circle class="st1" cx="42.9" cy="-12.6" r="0.6"/>
				<circle class="st1" cx="42.9" cy="-9" r="0.6"/>
				<circle class="st1" cx="42.9" cy="-5.4" r="0.6"/>
				<circle class="st1" cx="42.9" cy="-1.8" r="0.6"/>
			</g>
			<g>
				<defs>
					<rect id="SVGID_5_" y="-43" width="43" height="43"/>
				</defs>
				<clipPath id="SVGID_6_">
					<use xlink:href="#SVGID_5_"  style="overflow:visible;"/>
				</clipPath>
			</g>
		</g>
	</g>
</pattern>
<g>
	<g>
		<path class="st4" d="M73.9,4.6v247h-18c-5.8,0-10.6-4.8-10.6-10.6v-11.2h8c0.1,0,0.3,0,0.4,0c0.1,0,0.1,0,0.2,0c0.1,0,0.2,0,0.2,0
			c0.1,0,0.3,0,0.4-0.1c0.3,0,0.5-0.1,0.7-0.2c0.1,0,0.2-0.1,0.3-0.1c0,0,0,0,0,0c0.1,0,0.2-0.1,0.3-0.1c0.3-0.1,0.6-0.3,0.9-0.5
			c0.1-0.1,0.3-0.2,0.4-0.3c0.1-0.1,0.3-0.2,0.4-0.3c0.1-0.1,0.3-0.2,0.4-0.4c0.2-0.2,0.5-0.5,0.6-0.8c0.1-0.1,0.2-0.3,0.3-0.4
			c0.1-0.2,0.2-0.3,0.2-0.5c0.1-0.2,0.1-0.3,0.2-0.5c0.1-0.2,0.1-0.3,0.2-0.5c0.2-0.5,0.2-1.1,0.2-1.7v-1.6c0-3.5-2.8-6.3-6.3-6.3
			h-8v-23.7h8c2.8,0,5.2-1.8,6-4.4v0c0.2-0.6,0.3-1.2,0.3-1.9V184c0-3.5-2.8-6.3-6.3-6.3h-8v-23.7h8c2.8,0,5.2-1.9,6-4.4
			c0.2-0.6,0.3-1.2,0.3-1.9v-1.6c0-3.5-2.8-6.3-6.3-6.3h-8v-23.7h8c2.8,0,5.2-1.8,6-4.4c0.2-0.6,0.3-1.2,0.3-1.9v-1.6
			c0-3.5-2.8-6.3-6.3-6.3h-8V78.4h8c2.8,0,5.2-1.9,6-4.4c0.2-0.6,0.3-1.2,0.3-1.9v-1.6c0-3.5-2.8-6.3-6.3-6.3h-8V40.5h8
			c2.8,0,5.2-1.8,6-4.4c0.2-0.6,0.3-1.2,0.3-1.9v-1.6c0-3.5-2.8-6.3-6.3-6.3h-8V15.2c0-5.8,4.8-10.6,10.6-10.6H73.9z"/>
		<path class="st1" d="M74.8,3.8l-0.2,124c0,20.6-0.2,41.3-0.1,61.9c0,20.6,0,41.2,0.1,61.8c0,0.3-0.3,0.6-0.6,0.6h0h0l-11.5,0
			l-5.7,0c-0.9,0-2,0-3-0.2c-1-0.2-2-0.5-2.9-1c-3.7-1.8-6.2-5.7-6.3-9.8l0-11.5c0-0.4,0.3-0.7,0.7-0.7l0,0l4.2,0l2.1,0l1.1,0
			c0.4,0,0.7,0,0.9,0l0.1,0c0.1,0,0.1,0,0.2,0l0,0l0.2,0c0.1,0,0.2,0,0.2,0c0,0,0,0,0.1,0c0.3-0.1,0.6-0.1,0.9-0.2l0.3-0.1
			c-0.2,0-0.4,0.1-0.5,0.2l0.3-0.2c0.1,0,0.2-0.1,0.3-0.1l0.4-0.2c0.1-0.1,0.3-0.1,0.4-0.2l0.3-0.2l0,0l0.1,0l0.3-0.2l0,0l0,0
			l0.3-0.3l0,0l0,0l0.5-0.7l0.3-0.4l0.2-0.3l0,0l0-0.1c0-0.1,0.1-0.2,0.1-0.3l0-0.1l0,0c0.1-0.3,0.2-0.7,0.3-1.1
			c0.1-0.4,0.1-0.8,0.1-1.3c0-0.4,0-0.9,0-1.3c0-0.4-0.1-0.8-0.2-1.2c-0.4-1.5-1.5-2.9-2.9-3.6c-0.7-0.3-1.5-0.5-2.3-0.5l-2.7,0
			l-5.4,0c-0.4,0-0.8-0.4-0.8-0.8l0-23.7c0-0.5,0.4-0.8,0.8-0.8l8,0c1.2,0,2.3-0.4,3.2-1.1c0.9-0.7,1.6-1.7,2-2.8l0,0.3v0
			c0-0.1,0-0.2,0-0.3c0.1-0.4,0.2-0.7,0.2-1.1c0-0.4,0-0.8,0-1.3c0-0.9,0-1.6-0.2-2.4c-0.4-1.5-1.6-2.7-3-3.4
			c-0.7-0.3-1.5-0.5-2.2-0.5l-2.7,0l-5.4,0c-0.5,0-0.9-0.4-0.9-0.9l0-23.7c0-0.5,0.4-0.9,0.9-0.9h0l4.7,0l2.3,0c0.4,0,0.8,0,1.1,0
			c0.3,0,0.7,0,1-0.1c1.3-0.3,2.5-1.1,3.2-2.1c0.4-0.5,0.7-1.1,0.8-1.8c0.2-0.6,0.2-1.3,0.2-2.1c0-0.8,0-1.4-0.2-2.1
			c-0.2-0.6-0.4-1.2-0.8-1.8c-0.8-1.1-1.9-1.9-3.2-2.1c-0.3-0.1-0.7-0.1-1-0.1c-0.3,0-0.8,0-1.1,0l-2.3,0l-4.7,0c-0.5,0-1-0.4-1-1
			l0-23.7c0-0.5,0.4-1,1-1h0l4.7,0l2.3,0c0.4,0,0.8,0,1.1,0c0.3,0,0.7,0,1-0.1c1.3-0.3,2.5-1,3.2-2.1c0.4-0.5,0.7-1.1,0.8-1.8
			c0.2-0.6,0.2-1.2,0.2-2.1c0-0.8,0-1.4-0.2-2.1c-0.2-0.6-0.4-1.2-0.8-1.8c-0.8-1.1-1.9-1.8-3.2-2.1c-0.3-0.1-0.6-0.1-1-0.1
			c-0.3,0-0.8,0-1.1,0l-2.3,0l-4.7,0c-0.5,0-1-0.4-1-1l0,0l0.1-23.7v0c0-0.5,0.4-0.9,0.9-0.9l4.7,0l2.3,0c0.4,0,0.8,0,1.1,0
			c0.3,0,0.7,0,1-0.1c1.3-0.3,2.5-1.1,3.3-2.1c0.4-0.5,0.7-1.2,0.8-1.8c0.2-0.7,0.2-1.3,0.2-2.1c0-0.8,0-1.5-0.2-2.1
			c-0.2-0.7-0.4-1.3-0.8-1.8c-0.8-1.1-2-1.9-3.3-2.2c-0.3-0.1-0.7-0.1-1-0.1c-0.3,0-0.8,0-1.1,0L50,65l-4.7,0l0,0
			c-0.4,0-0.8-0.4-0.8-0.8l0.1-23.7c0-0.4,0.3-0.7,0.7-0.7l4.7,0l2.3,0l1.2,0c0.3,0,0.7,0,1-0.1c1.4-0.3,2.6-1.1,3.4-2.2
			c0.4-0.6,0.7-1.2,0.9-1.9C59,35,59,34.3,59,33.5c0-0.8,0-1.5-0.1-2.2c-0.2-0.7-0.4-1.3-0.8-1.9c-0.8-1.2-2-2-3.4-2.4
			c-0.7-0.2-1.4-0.2-2.2-0.2l-2.3,0l-4.7,0l-0.1,0c-0.3,0-0.5-0.2-0.5-0.5l-0.2-11.5c0-4.1,2.5-8,6.1-9.9c0.9-0.5,1.9-0.8,2.9-1
			c1-0.2,2.1-0.3,3-0.3l6,0C66.7,3.6,70.8,3.7,74.8,3.8z M73.1,5.4c-3.7,0.1-7.3,0.1-10.9,0.1l-5.5,0c-0.9,0-1.8,0-2.7,0.1
			c-0.9,0.2-1.7,0.4-2.5,0.8c-3.2,1.5-5.5,4.9-5.6,8.5l-0.2,11.5l-0.5-0.5l0.1,0l4.7,0l2.3,0c0.7,0,1.6,0,2.4,0.2
			c1.7,0.4,3.2,1.4,4.1,2.8c0.5,0.7,0.8,1.5,1,2.3c0.2,0.8,0.2,1.7,0.2,2.5c0,0.7,0,1.7-0.2,2.5c-0.2,0.8-0.6,1.6-1.1,2.3
			c-1,1.4-2.5,2.4-4.2,2.8c-0.4,0.1-0.8,0.1-1.3,0.2l-1.2,0l-2.3,0l-4.7,0l0.7-0.7l0.1,23.7l-0.8-0.8l4.7,0l2.3,0c0.4,0,0.8,0,1.2,0
			c0.4,0,0.9,0.1,1.3,0.1c1.7,0.4,3.3,1.4,4.3,2.8c0.5,0.7,0.9,1.5,1.1,2.4c0.2,0.8,0.2,1.8,0.2,2.5c0,0.7,0,1.7-0.2,2.5
			c-0.2,0.9-0.6,1.7-1.1,2.4c-1,1.4-2.6,2.5-4.3,2.9c-0.4,0.1-0.9,0.1-1.3,0.2c-0.4,0-0.8,0-1.2,0l-2.3,0l-4.7,0l0.9-0.9l0.1,23.7
			l-1-1l4.7,0l2.3,0c0.4,0,0.8,0,1.2,0c0.5,0,0.9,0.1,1.3,0.2c1.8,0.4,3.4,1.4,4.4,2.9c0.5,0.7,0.9,1.6,1.1,2.4
			c0.2,0.9,0.2,1.8,0.2,2.6c0,0.7,0,1.7-0.2,2.6c-0.2,0.9-0.6,1.7-1.1,2.4c-1,1.5-2.6,2.5-4.4,2.9c-0.4,0.1-0.9,0.1-1.3,0.2
			c-0.4,0-0.8,0-1.2,0l-2.3,0l-4.7,0l1-1l0,23.7l-1-1l4.7,0l2.3,0c0.4,0,0.8,0,1.2,0c0.4,0,0.9,0.1,1.3,0.2c1.8,0.4,3.4,1.4,4.4,2.9
			c0.5,0.7,0.9,1.6,1.1,2.4c0.2,0.9,0.2,1.8,0.2,2.6c0,0.7,0,1.7-0.2,2.6c-0.2,0.9-0.6,1.7-1.1,2.4c-1,1.5-2.6,2.5-4.4,2.9
			c-0.4,0.1-0.9,0.1-1.3,0.2c-0.4,0-0.8,0-1.2,0l-2.3,0l-4.7,0l0.9-0.9l0,23.7l-0.9-0.9l5.4,0l2.7,0c1,0,2,0.2,3,0.6
			c1.9,0.8,3.3,2.5,3.9,4.4c0.3,1,0.3,2.1,0.3,2.9c0,0.4,0,0.9,0,1.4c0,0.5-0.1,1-0.3,1.5l0-0.3v0c0,0.1,0,0.2,0,0.3
			c-0.5,1.4-1.4,2.7-2.6,3.6c-1.2,0.9-2.7,1.4-4.2,1.4l-8,0l0.8-0.8l0,23.7l-0.8-0.8l5.4,0l2.7,0c1,0,2,0.3,2.9,0.7
			c1.8,0.9,3.2,2.6,3.7,4.6c0.1,0.5,0.2,1,0.2,1.5c0,0.5,0,0.9,0,1.4c0,0.4,0,1-0.1,1.5c-0.1,0.5-0.2,1-0.4,1.5l0-0.1l-0.3,0.6
			l0-0.1l-0.3,0.6l-0.3,0.4l-0.7,0.9l0,0l-0.5,0.4l0,0l-0.5,0.4l0.1,0l-0.5,0.3c-0.1,0.1-0.3,0.2-0.4,0.2l-0.4,0.2
			c-0.1,0.1-0.3,0.2-0.5,0.2l0.3-0.2c-0.1,0.1-0.4,0.2-0.6,0.2l0.3-0.1c-0.4,0.2-0.8,0.2-1.2,0.3l0.1,0l-0.5,0.1l0.2,0
			c-0.2,0-0.4,0.1-0.6,0.1l0.1,0c-0.5,0-0.8,0-1.2,0l-1.1,0l-2.1,0l-4.2,0l0.7-0.7l0,11.5c0,3.6,2.3,7,5.5,8.6
			c0.8,0.4,1.7,0.7,2.5,0.9c0.9,0.2,1.7,0.2,2.7,0.2l5.7,0l11.5,0l-0.6,0.6c0.2-20.5,0.1-41.1,0.1-61.6c0-20.6-0.1-41.1-0.1-61.6
			L73.1,5.4z"/>
	</g>
	<g>
		<rect x="73.8" y="4.5" class="st5" width="123.5" height="247"/>
		<path class="st1" d="M197.7,251.9l-123.9,0.2c-0.3,0-0.6-0.3-0.6-0.6v0c0.1-20.6,0.1-41.2,0.1-61.7l-0.1-61.7L73,4.5
			c0-0.4,0.4-0.8,0.8-0.8h0l123.5-0.2c0.5,0,1,0.4,1,1v0l0,61.9l-0.2,61.9L197.7,251.9z M196.9,251l-0.4-123.4L196.3,66l0-61.6l1,1
			L73.8,5.3l0.8-0.8l-0.2,123.5l-0.1,61.7c0.1,20.6,0,41.2,0.1,61.7l-0.6-0.6L196.9,251z"/>
	</g>
	<g>
		<path class="st4" d="M213.9,251.4h-16.6V4.5h16.6c8.3,0,15,6.7,15,15v217C228.9,244.7,222.2,251.4,213.9,251.4z"/>
		<path class="st1" d="M213.9,251.8c-5.5,0-11.1,0-16.6,0c-0.2,0-0.4-0.2-0.4-0.4v0v0l-0.1-123.5L196.4,4.5v0c0-0.5,0.4-0.9,0.9-0.9
			l0,0c2.9,0.1,5.8,0.1,8.8,0.1l4.4,0l2.2,0c0.7,0,1.5,0,2.2,0c1.5,0.1,3.1,0.4,4.5,0.9c1.5,0.5,2.8,1.3,4,2.2
			c1.2,0.9,2.3,2,3.2,3.3c0.9,1.2,1.7,2.6,2.2,4.1c0.5,1.5,0.8,3,0.9,4.5c0.1,1.5,0,2.9,0,4.4l0,8.8l0,17.5l0.1,70.2l-0.3,70.2
			l-0.2,35.1l0,8.8c0,1.5,0,2.9-0.1,4.4c-0.2,1.5-0.6,3-1.2,4.4c-0.6,1.4-1.4,2.7-2.4,3.8c-1,1.1-2.1,2.1-3.4,3
			c-1.3,0.8-2.6,1.4-4.1,1.9C216.9,251.6,215.4,251.8,213.9,251.8z M213.9,251.1c1.4,0,2.8-0.2,4.2-0.6c1.4-0.4,2.7-1,3.8-1.8
			c1.2-0.8,2.2-1.8,3.1-2.9c0.9-1.1,1.6-2.3,2.2-3.6c0.5-1.3,0.9-2.7,1-4.1c0.1-1.4,0.1-2.9,0.1-4.3l0-8.8l-0.2-35.1l-0.3-70.2
			l0.1-70.2l0-17.5l0-8.8c0-1.4,0-3,0-4.3c0-1.4-0.3-2.7-0.8-4c-0.4-1.3-1.1-2.5-1.9-3.6c-0.8-1.1-1.8-2.1-2.9-2.9
			c-1.1-0.9-2.3-1.5-3.6-2c-1.3-0.5-2.7-0.8-4-0.9c-5.7-0.1-11.7-0.1-17.5,0l0.9-0.9l-0.4,123.5l-0.1,123.5l-0.4-0.4
			C202.8,251.1,208.4,251,213.9,251.1z"/>
	</g>
	<g>
		<path class="st6" d="M213,75.9h-15.7V22.3H213c2.8,0,5,2.2,5,5v43.6C218,73.7,215.7,75.9,213,75.9z"/>
		<path class="st1" d="M213,76l-3.9,0c-1.3,0-2.6,0-3.9,0.1c-2.6,0.1-5.2,0.1-7.8,0.3c-0.2,0-0.4-0.2-0.5-0.4v0l0,0
			c-0.2-4.5-0.4-8.9-0.4-13.4l-0.1-6.7l0-6.7c0-8.9,0-17.9,0.2-26.8l0,0c0-0.5,0.4-0.8,0.8-0.8l9.4,0.1l4.7,0c0.8,0,1.5,0,2.4,0.1
			c0.9,0.1,1.7,0.5,2.4,1c1.5,1,2.4,2.8,2.4,4.5l0,4.7l-0.1,9.4l0,18.7l0,9.4c0,0.8,0,1.5-0.1,2.4c-0.1,0.8-0.5,1.6-1,2.3
			C216.3,75.5,214.5,76,213,76z M213,75.8c1.6,0,2.9-1,3.7-2.2c0.4-0.6,0.7-1.3,0.8-2c0.1-0.7,0-1.5,0-2.3l0-9.4l0-18.7l-0.1-9.4
			l0-4.7c0-1.4-0.8-2.7-1.9-3.5c-0.6-0.4-1.2-0.6-1.9-0.7c-0.6-0.1-1.5,0-2.2,0l-4.7,0l-9.4,0.1l0.8-0.8c0.2,8.9,0.2,17.9,0.2,26.8
			l0,6.7l-0.1,6.7c-0.1,4.5-0.2,8.9-0.4,13.4l-0.5-0.5c2.6,0.1,5.2,0.2,7.8,0.3c1.3,0,2.6,0,3.9,0.1L213,75.8z"/>
	</g>
	<path class="st7" d="M213,129.5h-15.7V75.9H213c2.8,0,5,2.2,5,5v43.6C218,127.3,215.7,129.5,213,129.5z"/>
	<path class="st7" d="M213,236.7h-15.7v-53.6H213c2.8,0,5,2.2,5,5v43.6C218,234.5,215.7,236.7,213,236.7z"/>
	<path class="st7" d="M95,109.2V58.4c0-2.8,2.2-5,5-5h71.1c2.8,0,5,2.2,5,5v50.8c0,2.8-2.2,5-5,5H100C97.2,114.2,95,111.9,95,109.2z
		"/>
	<path class="st7" d="M59.5,32.5v1.6c0,3.5-2.8,6.3-6.3,6.3H33.4c-3.5,0-6.3-2.8-6.3-6.3v-1.6c0-3.5,2.8-6.3,6.3-6.3h19.8
		C56.7,26.2,59.5,29.1,59.5,32.5z"/>
	<path class="st7" d="M59.5,108.2v1.6c0,3.5-2.8,6.3-6.3,6.3H33.4c-3.5,0-6.3-2.8-6.3-6.3v-1.6c0-3.5,2.8-6.3,6.3-6.3h19.8
		C56.7,101.9,59.5,104.7,59.5,108.2z"/>
	<path class="st7" d="M59.5,183.9v1.6c0,3.5-2.8,6.3-6.3,6.3H33.4c-3.5,0-6.3-2.8-6.3-6.3v-1.6c0-3.5,2.8-6.3,6.3-6.3h19.8
		C56.7,177.6,59.5,180.4,59.5,183.9z"/>
	<g>
		<pattern  id="SVGID_7_" xlink:href="#New_Pattern_Swatch_1" patternTransform="matrix(1 0 0 1 14.4 0.4509)">
		</pattern>
		<path class="st8" d="M213,129.5h-15.7V75.9H213c2.8,0,5,2.2,5,5v43.6C218,127.3,215.7,129.5,213,129.5z"/>
		<path class="st1" d="M213,129.6c-2.6,0-5.2,0-7.8,0.1c-2.6,0.1-5.2,0.1-7.8,0.3c-0.2,0-0.4-0.2-0.5-0.4v0l0-0.1
			c-0.2-4.5-0.4-8.9-0.4-13.4l-0.1-6.7l0-6.7c0-8.9,0-17.9,0.2-26.8l0,0c0-0.5,0.4-0.8,0.8-0.8l9.4,0.1l4.7,0c0.8,0,1.5,0,2.4,0.1
			c0.9,0.1,1.7,0.5,2.4,1c1.4,1,2.3,2.7,2.4,4.5l0,4.7l-0.1,9.4c0,6.2,0,12.5,0,18.7c0,3.1,0,6.2,0,9.4c0,0.8,0,1.5-0.1,2.4
			c-0.1,0.8-0.5,1.7-1,2.3C216.3,129.1,214.6,129.6,213,129.6z M213,129.4c1.6,0,3-1,3.7-2.2c0.4-0.6,0.7-1.3,0.8-2
			c0.1-0.7,0-1.5,0.1-2.3c0-3.1,0-6.2,0-9.4c0-6.2,0.1-12.5,0-18.7l-0.1-9.4l0-4.7c0-1.4-0.8-2.7-1.9-3.5c-0.6-0.4-1.2-0.6-1.9-0.7
			c-0.6-0.1-1.5,0-2.2,0l-4.7,0l-9.4,0.1l0.8-0.8c0.2,8.9,0.2,17.9,0.2,26.8l0,6.7l-0.1,6.7c-0.1,4.5-0.2,8.9-0.4,13.4l-0.5-0.5
			c2.6,0.2,5.2,0.2,7.8,0.3C207.8,129.4,210.4,129.4,213,129.4z"/>
	</g>
	<g>
		<path class="st6" d="M213,183.1h-15.7v-53.6H213c2.8,0,5,2.2,5,5v43.6C218,180.9,215.7,183.1,213,183.1z"/>
		<path class="st1" d="M213,183.2c-2.6,0-5.2,0-7.8,0.1c-2.6,0.1-5.2,0.1-7.8,0.3c-0.2,0-0.4-0.2-0.5-0.4v0l0-0.1
			c-0.2-4.5-0.4-8.9-0.4-13.4l-0.1-6.7l0-6.7c0-8.9,0-17.9,0.2-26.8l0,0c0-0.5,0.4-0.8,0.8-0.8l9.4,0.1l4.7,0c0.8,0,1.5,0,2.4,0.1
			c0.9,0.1,1.7,0.5,2.4,1c1.4,1,2.3,2.7,2.4,4.5l0,4.7l-0.1,9.4c0,6.2,0,12.5,0.1,18.7c0,3.1,0,6.2,0,9.4c0,0.8,0,1.5-0.1,2.4
			c-0.1,0.9-0.5,1.7-1,2.4c-0.5,0.7-1.2,1.2-2.1,1.5C214.6,183.1,213.8,183.2,213,183.2z M213,183c0.8,0,1.5-0.3,2.1-0.8
			c0.6-0.4,1.1-1,1.5-1.5c0.4-0.6,0.7-1.2,0.8-1.9c0.1-0.6,0-1.5,0.1-2.2c0-3.1,0-6.2,0-9.4c0-6.2,0.1-12.5,0.1-18.7l-0.1-9.4l0-4.7
			c0-1.4-0.8-2.7-1.9-3.5c-0.6-0.4-1.2-0.6-1.9-0.7c-0.6-0.1-1.5,0-2.2,0l-4.7,0l-9.4,0.1l0.8-0.8c0.2,8.9,0.2,17.9,0.2,26.8l0,6.7
			l-0.1,6.7c-0.1,4.5-0.2,8.9-0.4,13.4l-0.5-0.5c2.6,0.2,5.2,0.2,7.8,0.3C207.8,183,210.4,183,213,183z"/>
	</g>
	<g>
		<pattern  id="SVGID_8_" xlink:href="#New_Pattern_Swatch_1" patternTransform="matrix(1 0 0 1 14.4 0.4509)">
		</pattern>
		<path class="st9" d="M213,236.7h-15.7v-53.6H213c2.8,0,5,2.2,5,5v43.6C218,234.5,215.7,236.7,213,236.7z"/>
		<path class="st1" d="M213,237l-7.8,0c-2.6,0-5.2,0.1-7.8,0.1c-0.2,0-0.4-0.2-0.5-0.4l0,0c-0.2-4.5-0.4-8.9-0.4-13.4l-0.1-6.7
			l0-6.7c0-8.9,0-17.9,0.2-26.8l0,0c0-0.5,0.4-0.8,0.8-0.8l9.4,0.1l4.7,0c0.8,0,1.5,0,2.4,0.1c0.9,0.1,1.7,0.5,2.4,1
			c1.5,1,2.4,2.8,2.4,4.5l0,4.7l-0.1,9.4l-0.1,18.7l0,9.4c0,0.8,0,1.5-0.1,2.4c-0.1,0.8-0.5,1.6-1,2.3
			C216.3,236.2,214.6,237,213,237z M213,236.4c1.5,0,2.9-0.7,3.8-1.9c0.4-0.6,0.7-1.3,0.8-2c0.1-0.7,0-1.5,0.1-2.3l0-9.4l-0.1-18.7
			l-0.1-9.4l0-4.7c0-1.4-0.8-2.7-1.9-3.5c-0.6-0.4-1.2-0.6-1.9-0.7c-0.6-0.1-1.5,0-2.2,0l-4.7,0l-9.4,0.1l0.8-0.8
			c0.2,8.9,0.2,17.9,0.2,26.8l0,6.7l-0.1,6.7c-0.1,4.5-0.2,8.9-0.4,13.4l-0.5-0.5c2.6,0.1,5.2,0.1,7.8,0.1L213,236.4z"/>
	</g>
	<path class="st10" d="M218,22.3h-5c2.8,0,5,2.2,5,5v43.6c0,2.8-2.2,5-5,5h5c2.8,0,5-2.2,5-5V27.3C223,24.6,220.7,22.3,218,22.3z"/>
	<path class="st10" d="M218,75.9h-5c2.8,0,5,2.2,5,5v43.6c0,2.8-2.2,5-5,5h5c2.8,0,5-2.2,5-5V80.9C223,78.2,220.7,75.9,218,75.9z"/>
	<path class="st10" d="M218,129.5h-5c2.8,0,5,2.2,5,5v43.6c0,2.8-2.2,5-5,5h5c2.8,0,5-2.2,5-5v-43.6
		C223,131.8,220.7,129.5,218,129.5z"/>
	<path class="st10" d="M218,183.1h-5c2.8,0,5,2.2,5,5v43.6c0,2.8-2.2,5-5,5h5c2.8,0,5-2.2,5-5v-43.6
		C223,185.4,220.7,183.1,218,183.1z"/>
	<g>
		<path class="st1" d="M172.1,121.4l-19.6-0.1l-19.6-0.2l-19.6-0.2l-9.8-0.1c-1.7,0-3.2,0-4.9-0.1c-1.7-0.1-3.4-0.6-4.9-1.6
			c-3-1.8-4.9-5.1-5-8.5c0-3.3,0-6.6,0-9.8L88.4,81l-0.1-19.6l0-2.5c0-0.8,0-1.6,0-2.5c0.2-1.7,0.8-3.4,1.7-4.9
			c1-1.5,2.3-2.7,3.9-3.5c1.6-0.8,3.3-1.3,5.1-1.3l39.3-0.1l19.6,0l9.8,0l2.5,0l1.2,0l0.6,0l0.7,0c1.8,0.1,3.6,0.6,5.1,1.6
			c3.1,1.8,5.2,5.3,5.3,9c0.1,3.3,0,6.6,0.1,9.9l0.1,19.6l0.1,19.6l0,2.5c0,0.8,0,1.6-0.1,2.6c-0.2,1.8-0.8,3.6-1.8,5.2
			c-1,1.5-2.4,2.8-4,3.7C175.8,120.9,173.9,121.4,172.1,121.4z M172.1,118.9c1.4,0,2.9-0.4,4.1-1c1.3-0.7,2.3-1.7,3.2-2.9
			c0.8-1.2,1.3-2.6,1.4-4c0-0.4,0-0.7,0-1.1l0-1.2l0-2.5l0.1-19.6l0.1-19.6l0-9.8c-0.1-2.9-1.7-5.8-4.2-7.3
			c-1.2-0.8-2.7-1.3-4.2-1.3l-0.6,0l-0.6,0l-1.2,0l-2.5,0l-9.8,0l-19.6,0L99,48.3c-1.5,0-3,0.4-4.4,1.1c-1.3,0.7-2.5,1.8-3.3,3
			c-0.8,1.3-1.4,2.7-1.5,4.2c-0.1,0.7-0.1,1.6-0.1,2.4l0,2.5L89.6,81l-0.1,19.6c0,3.3,0,6.6,0,9.8c0.1,3.1,1.8,6.1,4.5,7.7
			c1.3,0.8,2.9,1.3,4.4,1.4c1.6,0,3.3,0,4.9,0l9.8-0.1l19.6-0.2l19.6-0.2L172.1,118.9z"/>
	</g>
	<g>
		<pattern  id="SVGID_9_" xlink:href="#New_Pattern_Swatch_1" patternTransform="matrix(1 0 0 1 14.4 0.4509)">
		</pattern>
		<path class="st11" d="M95,109.2V58.4c0-2.8,2.2-5,5-5h71.1c2.8,0,5,2.2,5,5v50.8c0,2.8-2.2,5-5,5H100
			C97.2,114.2,95,111.9,95,109.2z"/>
		<path class="st1" d="M94.4,109.2l0.1-34.4l0-8.6l0-4.3l0-2.1c0-0.7,0-1.4,0.1-2.2c0.3-1.6,1.2-3,2.6-3.8c0.7-0.4,1.4-0.7,2.2-0.8
			c0.8-0.1,1.5,0,2.2,0l8.6,0l34.4-0.2l17.2-0.1l8.6,0c0.7,0,1.6,0,2.3,0.2c0.8,0.2,1.5,0.6,2.2,1.2c1.3,1.1,2,2.7,2,4.4l0.2,34.4
			l0,8.6l0,4.3l0,2.1l0,1.1c0,0.3,0,0.8-0.1,1.2c-0.3,1.7-1.3,3.2-2.8,4.1c-0.7,0.4-1.6,0.7-2.4,0.8c-0.2,0-0.4,0-0.6,0l-0.5,0
			l-1.1,0l-8.6,0l-34.4-0.2l-17.2-0.1l-8.6-0.1c-0.7,0-1.5,0-2.3-0.2c-0.8-0.2-1.5-0.6-2.1-1.2C95.1,112.4,94.4,110.8,94.4,109.2z
			 M95.6,109.2c0,1.3,0.6,2.5,1.5,3.3c0.5,0.4,1,0.7,1.6,0.9c0.6,0.2,1.2,0.2,2,0.2l8.6-0.1l17.2-0.1l34.4-0.2l8.6,0l1.1,0l0.5,0
			l0.4,0c0.6-0.1,1.1-0.3,1.6-0.5c1-0.6,1.7-1.6,1.9-2.8c0.1-0.3,0.1-0.5,0.1-0.9l0-1.1l0-2.1l0-4.3l0-8.6l0.2-34.4
			c0-1.2-0.5-2.4-1.4-3.2c-0.5-0.4-1-0.7-1.6-0.9c-0.6-0.2-1.2-0.2-1.9-0.2l-8.6,0l-17.2-0.1l-34.4-0.2l-8.6,0c-0.7,0-1.5,0-2.1,0
			c-0.6,0.1-1.3,0.3-1.8,0.6c-1.1,0.7-1.9,1.8-2.1,3.1c-0.1,0.6-0.1,1.3-0.1,2.1l0,2.1l0,4.3l0,8.6L95.6,109.2z"/>
	</g>
	<g>
		<path class="st1" d="M103.9,83.7l15.8-0.4l15.8-0.3c5.3-0.1,10.5-0.3,15.8-0.2c5.3,0.1,10.5,0.3,15.8,0.9c0.1,0,0.1,0.1,0.1,0.1
			c0,0,0,0.1-0.1,0.1c-5.3,0.6-10.5,0.8-15.8,0.9c-5.3,0.1-10.5-0.1-15.8-0.2l-15.8-0.3l-15.8-0.4C103.9,83.9,103.8,83.8,103.9,83.7
			C103.8,83.7,103.9,83.7,103.9,83.7z"/>
	</g>
	<g>
		<path class="st1" d="M103.9,69.3l15.8-0.4l15.8-0.3c5.3-0.1,10.5-0.3,15.8-0.2c5.3,0.1,10.5,0.3,15.8,0.9c0.1,0,0.1,0.1,0.1,0.1
			c0,0,0,0.1-0.1,0.1c-5.3,0.6-10.5,0.8-15.8,0.9c-5.3,0.1-10.5-0.1-15.8-0.2l-15.8-0.3l-15.8-0.4C103.9,69.5,103.8,69.5,103.9,69.3
			C103.8,69.4,103.9,69.3,103.9,69.3z"/>
	</g>
	<g>
		<path class="st1" d="M103.9,98.1l15.8-0.4l15.8-0.3c5.3-0.1,10.5-0.3,15.8-0.2c5.3,0.1,10.5,0.3,15.8,0.9c0.1,0,0.1,0.1,0.1,0.1
			c0,0,0,0.1-0.1,0.1c-5.3,0.6-10.5,0.8-15.8,0.9c-5.3,0.1-10.5-0.1-15.8-0.2l-15.8-0.3l-15.8-0.4C103.9,98.3,103.8,98.2,103.9,98.1
			C103.8,98.1,103.9,98.1,103.9,98.1z"/>
	</g>
	<g>
		<path class="st1" d="M94.9,183l20.3-0.4l20.3-0.3c6.8-0.1,13.6-0.3,20.3-0.2c3.4,0.1,6.8,0.1,10.2,0.3l5.1,0.2
			c1.7,0.1,3.4,0.2,5.1,0.4c0.1,0,0.1,0.1,0.1,0.1c0,0,0,0.1-0.1,0.1c-1.7,0.2-3.4,0.2-5.1,0.4l-5.1,0.2c-3.4,0.2-6.8,0.2-10.2,0.3
			c-6.8,0.1-13.6-0.1-20.3-0.2l-20.3-0.3l-20.3-0.4C94.8,183.2,94.8,183.2,94.9,183C94.8,183.1,94.8,183,94.9,183z"/>
	</g>
	<g>
		<path class="st1" d="M107.9,173l13.8-0.4l13.8-0.3c4.6-0.1,9.2-0.3,13.8-0.2c4.6,0.1,9.2,0.3,13.8,0.9c0.1,0,0.1,0.1,0.1,0.1
			c0,0,0,0.1-0.1,0.1c-4.6,0.6-9.2,0.8-13.8,0.9c-4.6,0.1-9.2-0.1-13.8-0.2l-13.8-0.3l-13.8-0.4C107.9,173.2,107.8,173.1,107.9,173
			C107.8,173,107.9,173,107.9,173z"/>
	</g>
	<g>
		<path class="st1" d="M107.9,193.1l13.8-0.4l13.8-0.3c4.6-0.1,9.2-0.3,13.8-0.2c4.6,0.1,9.2,0.3,13.8,0.9c0.1,0,0.1,0.1,0.1,0.1
			c0,0,0,0.1-0.1,0.1c-4.6,0.6-9.2,0.8-13.8,0.9c-4.6,0.1-9.2-0.1-13.8-0.2l-13.8-0.3l-13.8-0.4
			C107.9,193.3,107.8,193.2,107.9,193.1C107.8,193.1,107.9,193.1,107.9,193.1z"/>
	</g>
	<g>
		<pattern  id="SVGID_10_" xlink:href="#New_Pattern_Swatch_1" patternTransform="matrix(1 0 0 1 14.4 0.4509)">
		</pattern>
		<path class="st12" d="M59.5,32.5v1.6c0,3.5-2.8,6.3-6.3,6.3H33.4c-3.5,0-6.3-2.8-6.3-6.3v-1.6c0-3.5,2.8-6.3,6.3-6.3h19.8
			C56.7,26.2,59.5,29.1,59.5,32.5z"/>
		<path class="st1" d="M59.6,32.5c0,0.9,0.1,1.7,0,2.6c-0.1,0.9-0.4,1.7-0.9,2.5c-0.9,1.5-2.4,2.8-4.2,3.2C54,40.9,53.5,41,53.1,41
			l-1.3,0.1l-2.6,0.2c-1.7,0.1-3.4,0.1-5.1,0.2l-5.1,0l-5.1-0.1c-0.4,0-0.9,0-1.4-0.1c-0.5-0.1-1-0.2-1.4-0.4
			c-0.9-0.3-1.8-0.9-2.5-1.6c-1.4-1.3-2.2-3.3-2.2-5.2c0-0.9-0.1-1.7,0.1-2.7c0.1-1,0.5-1.9,1-2.7c1-1.6,2.8-2.8,4.7-3.2
			c0.5-0.1,1-0.1,1.4-0.1l1.3,0l2.6,0l5.1,0.1c3.4,0.1,6.9,0.2,10.3,0.4c1.8,0,3.6,0.7,4.8,2C58.9,29.1,59.6,30.8,59.6,32.5z
			 M59.4,32.5c0-1.7-0.7-3.4-2-4.5c-1.3-1.1-2.9-1.6-4.6-1.5c-3.4,0.2-6.9,0.3-10.3,0.4l-5.1,0.1l-2.6,0l-1.3,0
			c-0.4,0-0.8,0-1.1,0.1c-1.5,0.3-2.8,1.2-3.6,2.4c-0.4,0.6-0.7,1.3-0.8,2.1c-0.1,0.7-0.1,1.6-0.1,2.4c0,1.5,0.7,3,1.8,4
			c0.5,0.5,1.2,0.9,1.9,1.1c0.3,0.1,0.7,0.2,1.1,0.2c0.4,0,0.7,0,1.2,0l5.1-0.1l5.1,0c1.7,0,3.4,0.1,5.1,0.2l2.6,0.2l1.3,0.1
			c0.4,0,0.8,0,1.2,0c1.6-0.2,3.1-1.1,4-2.4c0.5-0.7,0.8-1.5,1-2.3C59.4,34.3,59.4,33.4,59.4,32.5z"/>
	</g>
	<g>
		<pattern  id="SVGID_11_" xlink:href="#New_Pattern_Swatch_1" patternTransform="matrix(1 0 0 1 14.4 0.4509)">
		</pattern>
		<path class="st13" d="M59.5,108.2v1.6c0,3.5-2.8,6.3-6.3,6.3H33.4c-3.5,0-6.3-2.8-6.3-6.3v-1.6c0-3.5,2.8-6.3,6.3-6.3h19.8
			C56.7,101.9,59.5,104.7,59.5,108.2z"/>
		<path class="st1" d="M59.6,108.2c0,0.9,0.1,1.7-0.1,2.6c-0.1,0.9-0.4,1.7-0.9,2.5c-0.9,1.5-2.4,2.7-4.2,3.2
			c-0.4,0.1-0.9,0.2-1.4,0.2l-1.3,0.1l-2.6,0.2c-1.7,0.1-3.4,0.1-5.1,0.2c-3.4,0.1-6.9,0-10.3-0.1c-0.4,0-0.9,0-1.4-0.1
			c-0.5-0.1-1-0.2-1.4-0.4c-0.9-0.3-1.8-0.9-2.5-1.6c-1.4-1.3-2.2-3.3-2.2-5.2c0-0.9-0.1-1.7,0.1-2.7c0.1-1,0.5-1.9,1-2.7
			c1-1.7,2.7-2.9,4.7-3.3c0.5-0.1,1-0.1,1.5-0.2l1.3,0l2.6,0c1.7,0,3.4,0,5.1,0c3.4,0,6.9,0.3,10.3,0.5c1.8,0,3.6,0.8,4.9,2.1
			C58.9,104.7,59.6,106.5,59.6,108.2z M59.4,108.2c0-1.7-0.8-3.4-2.1-4.4c-1.3-1.1-2.9-1.5-4.6-1.3c-3.4,0.2-6.9,0.5-10.3,0.5
			c-1.7,0-3.4,0-5.1,0l-2.6,0l-1.3,0c-0.4,0-0.7,0-1.1,0.1c-1.4,0.2-2.8,1-3.6,2.3c-0.4,0.6-0.7,1.3-0.8,2.1
			c-0.1,0.7-0.1,1.6-0.1,2.4c0,1.5,0.7,3,1.8,4c0.5,0.5,1.2,0.9,1.9,1.1c0.3,0.1,0.7,0.2,1.1,0.2c0.4,0,0.7,0,1.2,0
			c3.4-0.1,6.9-0.1,10.3-0.1c1.7,0,3.4,0.1,5.1,0.2l2.6,0.2l1.3,0.1c0.4,0,0.8,0,1.2,0c1.6-0.2,3.1-1.1,4.1-2.4
			c0.5-0.7,0.8-1.5,0.9-2.3C59.4,109.9,59.4,109.1,59.4,108.2z"/>
	</g>
	<g>
		<path class="st14" d="M59.5,70.4V72c0,3.5-2.8,6.3-6.3,6.3H33.4c-3.5,0-6.3-2.8-6.3-6.3v-1.6c0-3.5,2.8-6.3,6.3-6.3h19.8
			C56.7,64.1,59.5,66.9,59.5,70.4z"/>
		<path class="st1" d="M59.6,70.4c0,0.9,0.1,1.7-0.1,2.6c-0.1,0.9-0.4,1.7-0.9,2.5c-0.9,1.5-2.4,2.8-4.2,3.2
			c-0.4,0.1-0.9,0.2-1.4,0.2l-1.3,0.1l-2.6,0.2c-1.7,0.1-3.4,0.1-5.1,0.2c-3.4,0.1-6.9,0-10.3,0c-0.4,0-0.9,0-1.4-0.1
			c-0.5-0.1-1-0.2-1.4-0.4c-0.9-0.3-1.8-0.9-2.5-1.6c-1.4-1.3-2.2-3.3-2.2-5.2c0-0.9-0.1-1.7,0.1-2.7c0.1-1,0.5-1.9,1-2.7
			c1-1.7,2.7-2.9,4.7-3.2c0.5-0.1,1-0.1,1.4-0.1l1.3,0l2.6,0l5.1,0c3.4,0,6.9,0.3,10.3,0.5c1.8,0,3.6,0.7,4.8,2
			C58.9,66.9,59.6,68.6,59.6,70.4z M59.4,70.4c0-1.7-0.8-3.4-2-4.5c-1.3-1.1-2.9-1.6-4.6-1.4c-3.4,0.2-6.9,0.4-10.3,0.5l-5.1,0
			l-2.6,0l-1.3,0c-0.4,0-0.7,0-1.1,0.1c-1.5,0.2-2.8,1.1-3.6,2.4c-0.4,0.6-0.7,1.3-0.8,2.1c-0.1,0.7-0.1,1.6-0.1,2.4
			c0,1.5,0.7,3,1.8,4c0.5,0.5,1.2,0.9,1.9,1.1c0.3,0.1,0.7,0.2,1.1,0.2c0.4,0,0.7,0,1.2,0c3.4-0.1,6.9-0.1,10.3,0
			c1.7,0,3.4,0.1,5.1,0.2l2.6,0.2l1.3,0.1c0.4,0,0.8,0,1.2,0c1.6-0.2,3.1-1.1,4.1-2.4c0.5-0.7,0.8-1.5,1-2.3
			C59.4,72.1,59.4,71.2,59.4,70.4z"/>
	</g>
	<g>
		<path class="st14" d="M59.5,146.1v1.6c0,3.5-2.8,6.3-6.3,6.3H33.4c-3.5,0-6.3-2.8-6.3-6.3v-1.6c0-3.5,2.8-6.3,6.3-6.3h19.8
			C56.7,139.8,59.5,142.6,59.5,146.1z"/>
		<path class="st1" d="M59.6,146.1c0,0.9,0.1,1.7-0.1,2.6c-0.1,0.9-0.4,1.7-0.9,2.5c-0.9,1.5-2.4,2.7-4.2,3.2
			c-0.4,0.1-0.9,0.2-1.4,0.2l-1.3,0.1l-2.6,0.2c-1.7,0.1-3.4,0.1-5.1,0.2c-3.4,0.1-6.9,0-10.3-0.1c-0.4,0-0.9,0-1.4-0.1
			c-0.5-0.1-1-0.2-1.4-0.4c-0.9-0.3-1.8-0.9-2.5-1.6c-1.4-1.3-2.2-3.3-2.2-5.2c0-0.9-0.1-1.7,0.1-2.7c0.1-1,0.5-1.9,1-2.7
			c1-1.7,2.7-2.9,4.7-3.3c0.5-0.1,1-0.1,1.5-0.2l1.3,0l2.6,0c1.7,0,3.4,0,5.1,0c3.4,0,6.9,0.3,10.3,0.5c1.8,0,3.6,0.8,4.9,2.1
			C58.9,142.6,59.6,144.3,59.6,146.1z M59.4,146.1c0-1.7-0.8-3.4-2-4.4c-1.3-1.1-2.9-1.5-4.6-1.3c-3.4,0.2-6.9,0.5-10.3,0.5
			c-1.7,0-3.4,0-5.1,0l-2.6,0l-1.3,0c-0.4,0-0.7,0-1.1,0.1c-1.4,0.2-2.8,1.1-3.6,2.3c-0.4,0.6-0.7,1.3-0.8,2.1
			c-0.1,0.7-0.1,1.6-0.1,2.4c0,1.5,0.7,3,1.8,4c0.5,0.5,1.2,0.9,1.9,1.1c0.3,0.1,0.7,0.2,1.1,0.2c0.4,0,0.7,0,1.2,0
			c3.4-0.1,6.9-0.1,10.3-0.1c1.7,0,3.4,0.1,5.1,0.2l2.6,0.2l1.3,0.1c0.4,0,0.8,0,1.2,0c1.6-0.2,3.1-1.1,4.1-2.4
			c0.5-0.7,0.8-1.5,1-2.3C59.4,147.8,59.4,146.9,59.4,146.1z"/>
	</g>
	<g>
		<path class="st14" d="M59.5,221.8v1.6c0,3.5-2.8,6.3-6.3,6.3H33.4c-3.5,0-6.3-2.8-6.3-6.3v-1.6c0-3.5,2.8-6.3,6.3-6.3h19.8
			C56.7,215.5,59.5,218.3,59.5,221.8z"/>
		<path class="st1" d="M59.6,221.8c0,0.9,0.1,1.7-0.1,2.6c-0.1,0.9-0.4,1.7-0.9,2.5c-0.9,1.5-2.4,2.8-4.2,3.2
			c-0.4,0.1-0.9,0.2-1.4,0.2l-1.3,0.1l-2.6,0.2c-1.7,0.1-3.4,0.1-5.1,0.2c-3.4,0.1-6.9,0-10.3,0c-0.4,0-0.9,0-1.4-0.1
			c-0.5-0.1-1-0.2-1.4-0.4c-0.9-0.3-1.8-0.9-2.5-1.6c-1.4-1.3-2.2-3.3-2.2-5.2c0-0.9-0.1-1.7,0.1-2.7c0.1-1,0.5-1.9,1-2.7
			c1-1.6,2.7-2.9,4.7-3.2c0.5-0.1,1-0.1,1.4-0.1l1.3,0l2.6,0l5.1,0c3.4,0.1,6.9,0.2,10.3,0.4c1.8,0,3.6,0.7,4.8,2
			C58.9,218.3,59.6,220,59.6,221.8z M59.4,221.8c0-1.7-0.7-3.4-2-4.5c-1.3-1.1-2.9-1.6-4.6-1.4c-3.4,0.2-6.9,0.4-10.3,0.4l-5.1,0
			l-2.6,0l-1.3,0c-0.4,0-0.7,0-1.1,0.1c-1.5,0.2-2.8,1.1-3.6,2.4c-0.4,0.6-0.7,1.3-0.8,2.1c-0.1,0.7-0.1,1.6-0.1,2.4
			c0,1.5,0.7,3,1.8,4c0.5,0.5,1.2,0.9,1.9,1.1c0.3,0.1,0.7,0.2,1.1,0.2c0.4,0,0.7,0,1.2,0c3.4-0.1,6.9-0.1,10.3,0
			c1.7,0,3.4,0.1,5.1,0.2l2.6,0.2l1.3,0.1c0.4,0,0.8,0,1.2,0c1.6-0.2,3.1-1.1,4-2.4c0.5-0.7,0.8-1.5,1-2.3
			C59.4,223.5,59.4,222.6,59.4,221.8z"/>
	</g>
	<path class="st10" d="M59.5,37.5v1.6c0,3.5-2.8,6.3-6.3,6.3h-7.9v-4.9h8c2.8,0,5.2-1.8,6-4.4C59.4,36.6,59.5,37.1,59.5,37.5z"/>
	<path class="st10" d="M59.5,113.2v1.6c0,3.5-2.8,6.3-6.3,6.3h-7.9v-4.9h8c2.8,0,5.2-1.8,6-4.4C59.4,112.3,59.5,112.7,59.5,113.2z"
		/>
	<path class="st10" d="M59.5,75.4V77c0,3.5-2.8,6.3-6.3,6.3h-7.9v-4.9h8c2.8,0,5.2-1.9,6-4.4C59.4,74.4,59.5,74.9,59.5,75.4z"/>
	<path class="st10" d="M59.5,151.1v1.6c0,3.5-2.8,6.3-6.3,6.3h-7.9v-4.9h8c2.8,0,5.2-1.9,6-4.4C59.4,150.1,59.5,150.6,59.5,151.1z"
		/>
	<path class="st10" d="M59.6,226.9v1.6c0,3.5-2.8,6.3-6.3,6.3h-8v-5h8c0.1,0,0.3,0,0.4,0c0.1,0,0.1,0,0.2,0c0.1,0,0.2,0,0.2,0
		c0.1,0,0.3,0,0.4-0.1c0.3,0,0.5-0.1,0.7-0.2c0.1,0,0.2-0.1,0.3-0.1c0,0,0,0,0,0c0.1,0,0.2-0.1,0.3-0.1c0.3-0.1,0.6-0.3,0.9-0.5
		c0.1-0.1,0.3-0.2,0.4-0.3c0.1-0.1,0.3-0.2,0.4-0.3c0.1-0.1,0.3-0.2,0.4-0.4c0.2-0.2,0.5-0.5,0.6-0.8c0.1-0.1,0.2-0.3,0.3-0.4
		c0.1-0.2,0.2-0.3,0.2-0.5c0.1-0.2,0.1-0.3,0.2-0.5c0.1-0.2,0.1-0.3,0.2-0.5C59.5,225.7,59.6,226.3,59.6,226.9z"/>
	<path class="st10" d="M59.5,188.9v1.6c0,3.5-2.8,6.3-6.3,6.3h-7.9v-4.9h8c2.8,0,5.2-1.8,6-4.4C59.4,188,59.5,188.4,59.5,188.9z"/>
	<g>
		<pattern  id="SVGID_12_" xlink:href="#New_Pattern_Swatch_1" patternTransform="matrix(1 0 0 1 14.4 0.4509)">
		</pattern>
		<path class="st15" d="M59.5,183.9v1.6c0,3.5-2.8,6.3-6.3,6.3H33.4c-3.5,0-6.3-2.8-6.3-6.3v-1.6c0-3.5,2.8-6.3,6.3-6.3h19.8
			C56.7,177.6,59.5,180.4,59.5,183.9z"/>
		<path class="st1" d="M59.6,183.9c0,0.9,0.1,1.7-0.1,2.6c-0.1,0.9-0.4,1.7-0.9,2.5c-0.9,1.5-2.4,2.8-4.2,3.2
			c-0.4,0.1-0.9,0.2-1.4,0.2l-1.3,0.1l-2.6,0.2c-1.7,0.1-3.4,0.1-5.1,0.2c-3.4,0.1-6.9,0-10.3,0c-0.4,0-0.9,0-1.4-0.1
			c-0.5-0.1-1-0.2-1.4-0.4c-0.9-0.3-1.8-0.9-2.5-1.6c-1.4-1.3-2.2-3.3-2.2-5.2c0-0.9-0.1-1.7,0.1-2.7c0.1-1,0.5-1.9,1-2.7
			c1-1.7,2.7-2.9,4.7-3.3c0.5-0.1,1-0.1,1.4-0.1l1.3,0l2.6,0l5.1,0c3.4,0,6.9,0.3,10.3,0.5c1.8,0,3.6,0.7,4.8,2
			C58.9,180.4,59.6,182.2,59.6,183.9z M59.4,183.9c0-1.7-0.8-3.4-2-4.4c-1.3-1.1-2.9-1.6-4.6-1.4c-3.4,0.2-6.9,0.4-10.3,0.5l-5.1,0
			l-2.6,0l-1.3,0c-0.4,0-0.7,0-1.1,0.1c-1.4,0.2-2.8,1.1-3.6,2.4c-0.4,0.6-0.7,1.3-0.8,2.1c-0.1,0.7-0.1,1.6-0.1,2.4
			c0,1.5,0.7,3,1.8,4c0.5,0.5,1.2,0.9,1.9,1.1c0.3,0.1,0.7,0.2,1.1,0.2c0.4,0,0.7,0,1.2,0c3.4-0.1,6.9-0.1,10.3,0
			c1.7,0,3.4,0.1,5.1,0.2l2.6,0.2l1.3,0.1c0.4,0,0.8,0,1.2,0c1.6-0.2,3.1-1.1,4.1-2.4c0.5-0.7,0.8-1.5,1-2.3
			C59.4,185.6,59.4,184.8,59.4,183.9z"/>
	</g>
</g>
</svg>
