<?xml version="1.0" encoding="utf-8"?>
<!-- Generator: Adobe Illustrator 22.1.0, SVG Export Plug-In . SVG Version: 6.00 Build 0)  -->
<svg version="1.1" id="Layer_1" xmlns="http://www.w3.org/2000/svg" xmlns:xlink="http://www.w3.org/1999/xlink" x="0px" y="0px"
	 viewBox="0 0 256 256" style="enable-background:new 0 0 256 256;" xml:space="preserve">
<style type="text/css">
	.st0{fill:none;}
	.st1{fill:#253759;}
	.st2{clip-path:url(#SVGID_2_);fill:#253759;}
	.st3{clip-path:url(#SVGID_4_);fill:#253759;}
	.st4{fill:#FFFFFF;}
	.st5{fill:#A6D6FF;}
	.st6{fill:url(#SVGID_7_);}
	.st7{fill:url(#SVGID_8_);}
	.st8{fill:url(#SVGID_9_);}
	.st9{fill:url(#SVGID_10_);}
	.st10{fill:url(#SVGID_11_);}
	.st11{fill:url(#SVGID_12_);}
	.st12{opacity:0.3;fill:#253759;}
	.st13{fill:url(#SVGID_13_);}
	.st14{fill:url(#SVGID_14_);}
</style>
<pattern  x="-1656" y="-276" width="42.9" height="43" patternUnits="userSpaceOnUse" id="New_Pattern_Swatch_1" viewBox="43 -43 42.9 43" style="overflow:visible;">
	<g>
		<rect x="43" y="-43" class="st0" width="42.9" height="43"/>
		<g>
			<g>
				<circle class="st1" cx="85.9" cy="-41.2" r="0.6"/>
				<circle class="st1" cx="85.9" cy="-37.6" r="0.6"/>
				<circle class="st1" cx="85.9" cy="-34" r="0.6"/>
				<circle class="st1" cx="85.9" cy="-30.4" r="0.6"/>
				<circle class="st1" cx="85.9" cy="-26.9" r="0.6"/>
				<circle class="st1" cx="85.9" cy="-23.3" r="0.6"/>
				<circle class="st1" cx="85.9" cy="-19.7" r="0.6"/>
				<circle class="st1" cx="85.9" cy="-16.1" r="0.6"/>
				<circle class="st1" cx="85.9" cy="-12.6" r="0.6"/>
				<circle class="st1" cx="85.9" cy="-9" r="0.6"/>
				<circle class="st1" cx="85.9" cy="-5.4" r="0.6"/>
				<circle class="st1" cx="85.9" cy="-1.8" r="0.6"/>
				<circle class="st1" cx="85.8" cy="-41.2" r="0.6"/>
				<circle class="st1" cx="85.8" cy="-37.6" r="0.6"/>
				<circle class="st1" cx="85.8" cy="-34" r="0.6"/>
				<circle class="st1" cx="85.8" cy="-30.4" r="0.6"/>
				<circle class="st1" cx="85.8" cy="-26.9" r="0.6"/>
				<circle class="st1" cx="85.8" cy="-23.3" r="0.6"/>
				<circle class="st1" cx="85.8" cy="-19.7" r="0.6"/>
				<circle class="st1" cx="85.8" cy="-16.1" r="0.6"/>
				<circle class="st1" cx="85.8" cy="-12.6" r="0.6"/>
				<circle class="st1" cx="85.8" cy="-9" r="0.6"/>
				<circle class="st1" cx="85.8" cy="-5.4" r="0.6"/>
				<circle class="st1" cx="85.8" cy="-1.8" r="0.6"/>
			</g>
			<g>
				<defs>
					<rect id="SVGID_1_" x="85.8" y="-43" width="43" height="43"/>
				</defs>
				<clipPath id="SVGID_2_">
					<use xlink:href="#SVGID_1_"  style="overflow:visible;"/>
				</clipPath>
				<circle class="st2" cx="85.8" cy="-41.2" r="0.6"/>
				<circle class="st2" cx="85.8" cy="-37.6" r="0.6"/>
				<circle class="st2" cx="85.8" cy="-34" r="0.6"/>
				<circle class="st2" cx="85.8" cy="-30.4" r="0.6"/>
				<circle class="st2" cx="85.8" cy="-26.9" r="0.6"/>
				<circle class="st2" cx="85.8" cy="-23.3" r="0.6"/>
				<circle class="st2" cx="85.8" cy="-19.7" r="0.6"/>
				<circle class="st2" cx="85.8" cy="-16.1" r="0.6"/>
				<circle class="st2" cx="85.8" cy="-12.6" r="0.6"/>
				<circle class="st2" cx="85.8" cy="-9" r="0.6"/>
				<circle class="st2" cx="85.8" cy="-5.4" r="0.6"/>
				<circle class="st2" cx="85.8" cy="-1.8" r="0.6"/>
				<circle class="st2" cx="85.7" cy="-41.2" r="0.6"/>
				<circle class="st2" cx="85.7" cy="-37.6" r="0.6"/>
				<circle class="st2" cx="85.7" cy="-34" r="0.6"/>
				<circle class="st2" cx="85.7" cy="-30.4" r="0.6"/>
				<circle class="st2" cx="85.7" cy="-26.9" r="0.6"/>
				<circle class="st2" cx="85.7" cy="-23.3" r="0.6"/>
				<circle class="st2" cx="85.7" cy="-19.7" r="0.6"/>
				<circle class="st2" cx="85.7" cy="-16.1" r="0.6"/>
				<circle class="st2" cx="85.7" cy="-12.6" r="0.6"/>
				<circle class="st2" cx="85.7" cy="-9" r="0.6"/>
				<circle class="st2" cx="85.7" cy="-5.4" r="0.6"/>
				<circle class="st2" cx="85.7" cy="-1.8" r="0.6"/>
			</g>
		</g>
		<g>
			<g>
				<circle class="st1" cx="85.9" cy="-41.2" r="0.6"/>
				<circle class="st1" cx="85.9" cy="-37.6" r="0.6"/>
				<circle class="st1" cx="85.9" cy="-34" r="0.6"/>
				<circle class="st1" cx="85.9" cy="-30.4" r="0.6"/>
				<circle class="st1" cx="85.9" cy="-26.9" r="0.6"/>
				<circle class="st1" cx="85.9" cy="-23.3" r="0.6"/>
				<circle class="st1" cx="85.9" cy="-19.7" r="0.6"/>
				<circle class="st1" cx="85.9" cy="-16.1" r="0.6"/>
				<circle class="st1" cx="85.9" cy="-12.6" r="0.6"/>
				<circle class="st1" cx="85.9" cy="-9" r="0.6"/>
				<circle class="st1" cx="85.9" cy="-5.4" r="0.6"/>
				<circle class="st1" cx="85.9" cy="-1.8" r="0.6"/>
				<circle class="st1" cx="43" cy="-41.2" r="0.6"/>
				<circle class="st1" cx="46.5" cy="-41.2" r="0.6"/>
				<circle class="st1" cx="50.1" cy="-41.2" r="0.6"/>
				<circle class="st1" cx="53.7" cy="-41.2" r="0.6"/>
				<circle class="st1" cx="43" cy="-37.6" r="0.6"/>
				<circle class="st1" cx="46.5" cy="-37.6" r="0.6"/>
				<circle class="st1" cx="50.1" cy="-37.6" r="0.6"/>
				<circle class="st1" cx="53.7" cy="-37.6" r="0.6"/>
				<circle class="st1" cx="43" cy="-34" r="0.6"/>
				<circle class="st1" cx="46.5" cy="-34" r="0.6"/>
				<circle class="st1" cx="50.1" cy="-34" r="0.6"/>
				<circle class="st1" cx="53.7" cy="-34" r="0.6"/>
				<circle class="st1" cx="43" cy="-30.4" r="0.6"/>
				<circle class="st1" cx="46.5" cy="-30.4" r="0.6"/>
				<circle class="st1" cx="50.1" cy="-30.4" r="0.6"/>
				<circle class="st1" cx="53.7" cy="-30.4" r="0.6"/>
				<circle class="st1" cx="43" cy="-26.9" r="0.6"/>
				<circle class="st1" cx="46.5" cy="-26.9" r="0.6"/>
				<circle class="st1" cx="50.1" cy="-26.9" r="0.6"/>
				<circle class="st1" cx="53.7" cy="-26.9" r="0.6"/>
				<circle class="st1" cx="43" cy="-23.3" r="0.6"/>
				<circle class="st1" cx="46.5" cy="-23.3" r="0.6"/>
				<circle class="st1" cx="50.1" cy="-23.3" r="0.6"/>
				<circle class="st1" cx="53.7" cy="-23.3" r="0.6"/>
				<circle class="st1" cx="57.3" cy="-41.2" r="0.6"/>
				<circle class="st1" cx="60.8" cy="-41.2" r="0.6"/>
				<circle class="st1" cx="64.4" cy="-41.2" r="0.6"/>
				<circle class="st1" cx="68" cy="-41.2" r="0.6"/>
				<circle class="st1" cx="71.5" cy="-41.2" r="0.6"/>
				<circle class="st1" cx="57.3" cy="-37.6" r="0.6"/>
				<circle class="st1" cx="60.8" cy="-37.6" r="0.6"/>
				<circle class="st1" cx="64.4" cy="-37.6" r="0.6"/>
				<circle class="st1" cx="68" cy="-37.6" r="0.6"/>
				<circle class="st1" cx="71.5" cy="-37.6" r="0.6"/>
				<circle class="st1" cx="57.3" cy="-34" r="0.6"/>
				<circle class="st1" cx="60.8" cy="-34" r="0.6"/>
				<circle class="st1" cx="64.4" cy="-34" r="0.6"/>
				<circle class="st1" cx="68" cy="-34" r="0.6"/>
				<circle class="st1" cx="71.5" cy="-34" r="0.6"/>
				<circle class="st1" cx="57.3" cy="-30.4" r="0.6"/>
				<circle class="st1" cx="60.8" cy="-30.4" r="0.6"/>
				<circle class="st1" cx="64.4" cy="-30.4" r="0.6"/>
				<circle class="st1" cx="68" cy="-30.4" r="0.6"/>
				<circle class="st1" cx="71.5" cy="-30.4" r="0.6"/>
				<circle class="st1" cx="57.3" cy="-26.9" r="0.6"/>
				<circle class="st1" cx="60.8" cy="-26.9" r="0.6"/>
				<circle class="st1" cx="64.4" cy="-26.9" r="0.6"/>
				<circle class="st1" cx="68" cy="-26.9" r="0.6"/>
				<circle class="st1" cx="71.5" cy="-26.9" r="0.6"/>
				<circle class="st1" cx="57.3" cy="-23.3" r="0.6"/>
				<circle class="st1" cx="60.8" cy="-23.3" r="0.6"/>
				<circle class="st1" cx="64.4" cy="-23.3" r="0.6"/>
				<circle class="st1" cx="68" cy="-23.3" r="0.6"/>
				<circle class="st1" cx="71.5" cy="-23.3" r="0.6"/>
				<circle class="st1" cx="75.1" cy="-41.2" r="0.6"/>
				<circle class="st1" cx="78.7" cy="-41.2" r="0.6"/>
				<circle class="st1" cx="82.3" cy="-41.2" r="0.6"/>
				<circle class="st1" cx="85.8" cy="-41.2" r="0.6"/>
				<circle class="st1" cx="75.1" cy="-37.6" r="0.6"/>
				<circle class="st1" cx="78.7" cy="-37.6" r="0.6"/>
				<circle class="st1" cx="82.3" cy="-37.6" r="0.6"/>
				<circle class="st1" cx="85.8" cy="-37.6" r="0.6"/>
				<circle class="st1" cx="75.1" cy="-34" r="0.6"/>
				<circle class="st1" cx="78.7" cy="-34" r="0.6"/>
				<circle class="st1" cx="82.3" cy="-34" r="0.6"/>
				<circle class="st1" cx="85.8" cy="-34" r="0.6"/>
				<circle class="st1" cx="75.1" cy="-30.4" r="0.6"/>
				<circle class="st1" cx="78.7" cy="-30.4" r="0.6"/>
				<circle class="st1" cx="82.3" cy="-30.4" r="0.6"/>
				<circle class="st1" cx="85.8" cy="-30.4" r="0.6"/>
				<circle class="st1" cx="75.1" cy="-26.9" r="0.6"/>
				<circle class="st1" cx="78.7" cy="-26.9" r="0.6"/>
				<circle class="st1" cx="82.3" cy="-26.9" r="0.6"/>
				<circle class="st1" cx="85.8" cy="-26.9" r="0.6"/>
				<circle class="st1" cx="75.1" cy="-23.3" r="0.6"/>
				<circle class="st1" cx="78.7" cy="-23.3" r="0.6"/>
				<circle class="st1" cx="82.3" cy="-23.3" r="0.6"/>
				<circle class="st1" cx="85.8" cy="-23.3" r="0.6"/>
				<circle class="st1" cx="43" cy="-19.7" r="0.6"/>
				<circle class="st1" cx="46.5" cy="-19.7" r="0.6"/>
				<circle class="st1" cx="50.1" cy="-19.7" r="0.6"/>
				<circle class="st1" cx="53.7" cy="-19.7" r="0.6"/>
				<circle class="st1" cx="43" cy="-16.1" r="0.6"/>
				<circle class="st1" cx="46.5" cy="-16.1" r="0.6"/>
				<circle class="st1" cx="50.1" cy="-16.1" r="0.6"/>
				<circle class="st1" cx="53.7" cy="-16.1" r="0.6"/>
				<circle class="st1" cx="43" cy="-12.6" r="0.6"/>
				<circle class="st1" cx="46.5" cy="-12.6" r="0.6"/>
				<circle class="st1" cx="50.1" cy="-12.6" r="0.6"/>
				<circle class="st1" cx="53.7" cy="-12.6" r="0.6"/>
				<circle class="st1" cx="43" cy="-9" r="0.6"/>
				<circle class="st1" cx="46.5" cy="-9" r="0.6"/>
				<circle class="st1" cx="50.1" cy="-9" r="0.6"/>
				<circle class="st1" cx="53.7" cy="-9" r="0.6"/>
				<circle class="st1" cx="43" cy="-5.4" r="0.6"/>
				<circle class="st1" cx="46.5" cy="-5.4" r="0.6"/>
				<circle class="st1" cx="50.1" cy="-5.4" r="0.6"/>
				<circle class="st1" cx="53.7" cy="-5.4" r="0.6"/>
				<circle class="st1" cx="43" cy="-1.8" r="0.6"/>
				<circle class="st1" cx="46.5" cy="-1.8" r="0.6"/>
				<circle class="st1" cx="50.1" cy="-1.8" r="0.6"/>
				<circle class="st1" cx="53.7" cy="-1.8" r="0.6"/>
				<circle class="st1" cx="57.3" cy="-19.7" r="0.6"/>
				<circle class="st1" cx="60.8" cy="-19.7" r="0.6"/>
				<circle class="st1" cx="64.4" cy="-19.7" r="0.6"/>
				<circle class="st1" cx="68" cy="-19.7" r="0.6"/>
				<circle class="st1" cx="71.5" cy="-19.7" r="0.6"/>
				<circle class="st1" cx="57.3" cy="-16.1" r="0.6"/>
				<circle class="st1" cx="60.8" cy="-16.1" r="0.6"/>
				<circle class="st1" cx="64.4" cy="-16.1" r="0.6"/>
				<circle class="st1" cx="68" cy="-16.1" r="0.6"/>
				<circle class="st1" cx="71.5" cy="-16.1" r="0.6"/>
				<circle class="st1" cx="57.3" cy="-12.6" r="0.6"/>
				<circle class="st1" cx="60.8" cy="-12.6" r="0.6"/>
				<circle class="st1" cx="64.4" cy="-12.6" r="0.6"/>
				<circle class="st1" cx="68" cy="-12.6" r="0.6"/>
				<circle class="st1" cx="71.5" cy="-12.6" r="0.6"/>
				<circle class="st1" cx="57.3" cy="-9" r="0.6"/>
				<circle class="st1" cx="60.8" cy="-9" r="0.6"/>
				<circle class="st1" cx="64.4" cy="-9" r="0.6"/>
				<circle class="st1" cx="68" cy="-9" r="0.6"/>
				<circle class="st1" cx="71.5" cy="-9" r="0.6"/>
				<circle class="st1" cx="57.3" cy="-5.4" r="0.6"/>
				<circle class="st1" cx="60.8" cy="-5.4" r="0.6"/>
				<circle class="st1" cx="64.4" cy="-5.4" r="0.6"/>
				<circle class="st1" cx="68" cy="-5.4" r="0.6"/>
				<circle class="st1" cx="71.5" cy="-5.4" r="0.6"/>
				<circle class="st1" cx="57.3" cy="-1.8" r="0.6"/>
				<circle class="st1" cx="60.8" cy="-1.8" r="0.6"/>
				<circle class="st1" cx="64.4" cy="-1.8" r="0.6"/>
				<circle class="st1" cx="68" cy="-1.8" r="0.6"/>
				<circle class="st1" cx="71.5" cy="-1.8" r="0.6"/>
				<circle class="st1" cx="75.1" cy="-19.7" r="0.6"/>
				<circle class="st1" cx="78.7" cy="-19.7" r="0.6"/>
				<circle class="st1" cx="82.3" cy="-19.7" r="0.6"/>
				<circle class="st1" cx="85.8" cy="-19.7" r="0.6"/>
				<circle class="st1" cx="75.1" cy="-16.1" r="0.6"/>
				<circle class="st1" cx="78.7" cy="-16.1" r="0.6"/>
				<circle class="st1" cx="82.3" cy="-16.1" r="0.6"/>
				<circle class="st1" cx="85.8" cy="-16.1" r="0.6"/>
				<circle class="st1" cx="75.1" cy="-12.6" r="0.6"/>
				<circle class="st1" cx="78.7" cy="-12.6" r="0.6"/>
				<circle class="st1" cx="82.3" cy="-12.6" r="0.6"/>
				<circle class="st1" cx="85.8" cy="-12.6" r="0.6"/>
				<circle class="st1" cx="75.1" cy="-9" r="0.6"/>
				<circle class="st1" cx="78.7" cy="-9" r="0.6"/>
				<circle class="st1" cx="82.3" cy="-9" r="0.6"/>
				<circle class="st1" cx="85.8" cy="-9" r="0.6"/>
				<circle class="st1" cx="75.1" cy="-5.4" r="0.6"/>
				<circle class="st1" cx="78.7" cy="-5.4" r="0.6"/>
				<circle class="st1" cx="82.3" cy="-5.4" r="0.6"/>
				<circle class="st1" cx="85.8" cy="-5.4" r="0.6"/>
				<circle class="st1" cx="75.1" cy="-1.8" r="0.6"/>
				<circle class="st1" cx="78.7" cy="-1.8" r="0.6"/>
				<circle class="st1" cx="82.3" cy="-1.8" r="0.6"/>
				<circle class="st1" cx="85.8" cy="-1.8" r="0.6"/>
				<circle class="st1" cx="42.9" cy="-41.2" r="0.6"/>
				<circle class="st1" cx="42.9" cy="-37.6" r="0.6"/>
				<circle class="st1" cx="42.9" cy="-34" r="0.6"/>
				<circle class="st1" cx="42.9" cy="-30.4" r="0.6"/>
				<circle class="st1" cx="42.9" cy="-26.9" r="0.6"/>
				<circle class="st1" cx="42.9" cy="-23.3" r="0.6"/>
				<circle class="st1" cx="42.9" cy="-19.7" r="0.6"/>
				<circle class="st1" cx="42.9" cy="-16.1" r="0.6"/>
				<circle class="st1" cx="42.9" cy="-12.6" r="0.6"/>
				<circle class="st1" cx="42.9" cy="-9" r="0.6"/>
				<circle class="st1" cx="42.9" cy="-5.4" r="0.6"/>
				<circle class="st1" cx="42.9" cy="-1.8" r="0.6"/>
			</g>
			<g>
				<defs>
					<rect id="SVGID_3_" x="42.9" y="-43" width="43" height="43"/>
				</defs>
				<clipPath id="SVGID_4_">
					<use xlink:href="#SVGID_3_"  style="overflow:visible;"/>
				</clipPath>
				<circle class="st3" cx="42.9" cy="-41.2" r="0.6"/>
				<circle class="st3" cx="42.9" cy="-37.6" r="0.6"/>
				<circle class="st3" cx="42.9" cy="-34" r="0.6"/>
				<circle class="st3" cx="42.9" cy="-30.4" r="0.6"/>
				<circle class="st3" cx="42.9" cy="-26.9" r="0.6"/>
				<circle class="st3" cx="42.9" cy="-23.3" r="0.6"/>
				<circle class="st3" cx="42.9" cy="-19.7" r="0.6"/>
				<circle class="st3" cx="42.9" cy="-16.1" r="0.6"/>
				<circle class="st3" cx="42.9" cy="-12.6" r="0.6"/>
				<circle class="st3" cx="42.9" cy="-9" r="0.6"/>
				<circle class="st3" cx="42.9" cy="-5.4" r="0.6"/>
				<circle class="st3" cx="42.9" cy="-1.8" r="0.6"/>
				<circle class="st3" cx="42.8" cy="-41.2" r="0.6"/>
				<circle class="st3" cx="42.8" cy="-37.6" r="0.6"/>
				<circle class="st3" cx="42.8" cy="-34" r="0.6"/>
				<circle class="st3" cx="42.8" cy="-30.4" r="0.6"/>
				<circle class="st3" cx="42.8" cy="-26.9" r="0.6"/>
				<circle class="st3" cx="42.8" cy="-23.3" r="0.6"/>
				<circle class="st3" cx="42.8" cy="-19.7" r="0.6"/>
				<circle class="st3" cx="42.8" cy="-16.1" r="0.6"/>
				<circle class="st3" cx="42.8" cy="-12.6" r="0.6"/>
				<circle class="st3" cx="42.8" cy="-9" r="0.6"/>
				<circle class="st3" cx="42.8" cy="-5.4" r="0.6"/>
				<circle class="st3" cx="42.8" cy="-1.8" r="0.6"/>
			</g>
		</g>
		<g>
			<g>
				<circle class="st1" cx="43" cy="-41.2" r="0.6"/>
				<circle class="st1" cx="43" cy="-37.6" r="0.6"/>
				<circle class="st1" cx="43" cy="-34" r="0.6"/>
				<circle class="st1" cx="43" cy="-30.4" r="0.6"/>
				<circle class="st1" cx="43" cy="-26.9" r="0.6"/>
				<circle class="st1" cx="43" cy="-23.3" r="0.6"/>
				<circle class="st1" cx="43" cy="-19.7" r="0.6"/>
				<circle class="st1" cx="43" cy="-16.1" r="0.6"/>
				<circle class="st1" cx="43" cy="-12.6" r="0.6"/>
				<circle class="st1" cx="43" cy="-9" r="0.6"/>
				<circle class="st1" cx="43" cy="-5.4" r="0.6"/>
				<circle class="st1" cx="43" cy="-1.8" r="0.6"/>
				<circle class="st1" cx="42.9" cy="-41.2" r="0.6"/>
				<circle class="st1" cx="42.9" cy="-37.6" r="0.6"/>
				<circle class="st1" cx="42.9" cy="-34" r="0.6"/>
				<circle class="st1" cx="42.9" cy="-30.4" r="0.6"/>
				<circle class="st1" cx="42.9" cy="-26.9" r="0.6"/>
				<circle class="st1" cx="42.9" cy="-23.3" r="0.6"/>
				<circle class="st1" cx="42.9" cy="-19.7" r="0.6"/>
				<circle class="st1" cx="42.9" cy="-16.1" r="0.6"/>
				<circle class="st1" cx="42.9" cy="-12.6" r="0.6"/>
				<circle class="st1" cx="42.9" cy="-9" r="0.6"/>
				<circle class="st1" cx="42.9" cy="-5.4" r="0.6"/>
				<circle class="st1" cx="42.9" cy="-1.8" r="0.6"/>
			</g>
			<g>
				<defs>
					<rect id="SVGID_5_" y="-43" width="43" height="43"/>
				</defs>
				<clipPath id="SVGID_6_">
					<use xlink:href="#SVGID_5_"  style="overflow:visible;"/>
				</clipPath>
			</g>
		</g>
	</g>
</pattern>
<g>
	<g>
		<path class="st4" d="M93.4,241.4c0,5.9-4.7,10.6-10.6,10.6c-5.8,0-10.6-4.7-10.6-10.6c0-3.3,1.5-6.3,3.9-8.2
			c1.8-1.5,4.1-2.4,6.7-2.4s4.8,0.9,6.7,2.4C91.9,235.1,93.4,238.1,93.4,241.4z"/>
		<path class="st1" d="M93.5,241.4c0,2.8-1.1,5.6-3.1,7.6c-1.9,2.1-4.7,3.4-7.6,3.5c-2.9,0.1-5.8-1.1-7.9-3.1c-2.1-2-3.4-5-3.4-7.9
			c-0.1-3,1.1-6,3.2-8.2c1.1-1.1,2.3-2,3.7-2.6c1.4-0.6,2.9-0.9,4.5-0.8c1.5,0,3,0.4,4.4,1c1.4,0.7,2.5,1.6,3.5,2.7
			C92.6,235.8,93.6,238.6,93.5,241.4z M93.3,241.4c0-1.4-0.3-2.7-0.9-4c-0.6-1.2-1.5-2.3-2.4-3.1c-2-1.7-4.6-2.5-7.1-2.5
			c-2.5,0-5,1.1-6.8,2.8c-1.8,1.7-3,4.2-3,6.8c-0.1,2.6,0.9,5.2,2.8,7c1.8,1.9,4.4,3,7,3.1c2.6,0.1,5.3-0.9,7.3-2.7
			c1-0.9,1.8-2.1,2.4-3.3C93.1,244.2,93.3,242.8,93.3,241.4z"/>
	</g>
	<g>
		<path class="st4" d="M138.6,241.4c0,5.9-4.7,10.6-10.6,10.6c-5.9,0-10.6-4.7-10.6-10.6c0-3.3,1.5-6.3,3.9-8.2
			c1.8-1.5,4.1-2.4,6.7-2.4c2.5,0,4.8,0.9,6.7,2.4C137.1,235.1,138.6,238.1,138.6,241.4z"/>
		<path class="st1" d="M138.7,241.4c0,2.8-1.1,5.6-3.1,7.6c-1.9,2.1-4.7,3.4-7.6,3.4c-2.9,0.1-5.8-1.1-7.9-3.1c-2.1-2-3.4-5-3.4-7.9
			c-0.1-3,1.1-6,3.2-8.2c1.1-1.1,2.3-2,3.7-2.6c1.4-0.6,2.9-0.9,4.4-0.8c1.5,0,3,0.4,4.4,1c1.3,0.7,2.5,1.6,3.5,2.7
			C137.8,235.8,138.7,238.6,138.7,241.4z M138.5,241.4c0-1.4-0.3-2.7-0.9-4c-0.6-1.2-1.5-2.3-2.4-3.1c-2-1.7-4.6-2.5-7.1-2.5
			c-2.5,0-5,1.1-6.8,2.8c-1.8,1.7-2.9,4.2-3,6.8c-0.1,2.6,0.9,5.2,2.8,7c1.8,1.9,4.4,3,7,3.1c2.6,0.1,5.3-0.9,7.3-2.7
			c1-0.9,1.8-2.1,2.4-3.3C138.2,244.2,138.5,242.8,138.5,241.4z"/>
	</g>
	<g>
		<path class="st4" d="M183.8,241.4c0,5.9-4.7,10.6-10.6,10.6c-5.9,0-10.6-4.7-10.6-10.6c0-3.3,1.5-6.3,3.9-8.2
			c1.8-1.5,4.1-2.4,6.7-2.4c2.5,0,4.8,0.9,6.7,2.4C182.2,235.1,183.8,238.1,183.8,241.4z"/>
		<path class="st1" d="M183.9,241.4c0,2.8-1.1,5.6-3.1,7.6c-1.9,2.1-4.7,3.4-7.6,3.4c-2.9,0.1-5.8-1.1-7.9-3.1c-2.1-2-3.4-5-3.4-7.9
			c-0.1-3,1.1-6,3.2-8.2c1.1-1.1,2.3-2,3.7-2.6c1.4-0.6,2.9-0.9,4.4-0.8c1.5,0,3,0.4,4.4,1c1.3,0.7,2.5,1.6,3.5,2.7
			C183,235.8,183.9,238.6,183.9,241.4z M183.7,241.4c0-1.4-0.3-2.7-0.9-4c-0.6-1.2-1.5-2.3-2.4-3.1c-2-1.7-4.6-2.5-7.1-2.5
			c-2.5,0-5,1.1-6.8,2.8c-1.8,1.7-3,4.2-3,6.8c-0.1,2.6,0.9,5.2,2.8,7c1.8,1.9,4.4,3,7,3.1c2.6,0.1,5.3-0.9,7.3-2.7
			c1-0.9,1.8-2.1,2.4-3.3C183.4,244.2,183.7,242.8,183.7,241.4z"/>
	</g>
	<path class="st5" d="M82.8,246.5c-2.8,0-5.1-2.3-5.1-5.1c0-1.6,0.7-3,1.9-4c0.7-0.5,1.7-1.1,3.2-1.1c1.2,0,2.3,0.4,3.2,1.1
		c1.2,1,1.9,2.4,1.9,4C88,244.2,85.7,246.5,82.8,246.5z"/>
	<path class="st5" d="M128,246.5c-2.8,0-5.1-2.3-5.1-5.1c0-1.6,0.7-3,1.9-4c0.7-0.5,1.7-1.1,3.2-1.1c1.2,0,2.3,0.4,3.2,1.1
		c1.2,1,1.9,2.4,1.9,4C133.1,244.2,130.8,246.5,128,246.5z"/>
	<path class="st5" d="M173.2,246.5c-2.8,0-5.1-2.3-5.1-5.1c0-1.6,0.7-3,1.9-4c0.7-0.5,1.7-1.1,3.2-1.1c1.2,0,2.3,0.4,3.2,1.1
		c1.2,1,1.9,2.4,1.9,4C178.3,244.2,176,246.5,173.2,246.5z"/>
	<g>
		<pattern  id="SVGID_7_" xlink:href="#New_Pattern_Swatch_1" patternTransform="matrix(1 0 0 1 7.2002 1.334925e-04)">
		</pattern>
		<path class="st6" d="M82.8,246.5c-2.8,0-5.1-2.3-5.1-5.1c0-1.6,0.7-3,1.9-4c0.7-0.5,1.7-1.1,3.2-1.1c1.2,0,2.3,0.4,3.2,1.1
			c1.2,1,1.9,2.4,1.9,4C88,244.2,85.7,246.5,82.8,246.5z"/>
		<path class="st1" d="M82.8,246.6c-1.4,0-2.7-0.5-3.8-1.5c-1.1-0.9-1.8-2.3-1.8-3.8c-0.1-1.5,0.5-3,1.5-4.1c1-1.1,2.5-1.8,4.1-1.8
			c1.5-0.1,3.2,0.5,4.3,1.6c1.2,1.1,1.9,2.7,1.8,4.3c0,1.6-0.9,3.1-2.1,4C85.6,246.3,84.2,246.7,82.8,246.6z M82.8,246.4
			c1.3,0,2.6-0.8,3.2-1.8c0.7-1,0.9-2.2,0.9-3.2c-0.1-1.1-0.5-2.1-1.2-2.9c-0.7-0.8-1.8-1.3-2.9-1.4c-1.1-0.1-2.3,0.4-3.2,1.2
			c-0.9,0.8-1.4,1.9-1.5,3.2c-0.1,1.2,0.3,2.5,1.1,3.5C80.2,245.9,81.5,246.5,82.8,246.4z"/>
	</g>
	<g>
		<pattern  id="SVGID_8_" xlink:href="#New_Pattern_Swatch_1" patternTransform="matrix(1 0 0 1 7.2 0)">
		</pattern>
		<path class="st7" d="M128,246.5c-2.8,0-5.1-2.3-5.1-5.1c0-1.6,0.7-3,1.9-4c0.7-0.5,1.7-1.1,3.2-1.1c1.2,0,2.3,0.4,3.2,1.1
			c1.2,1,1.9,2.4,1.9,4C133.1,244.2,130.8,246.5,128,246.5z"/>
		<path class="st1" d="M128,246.6c-1.4,0-2.7-0.5-3.8-1.5c-1.1-0.9-1.8-2.3-1.8-3.8c-0.1-1.5,0.5-3,1.5-4.1c1-1.1,2.5-1.8,4.1-1.8
			c1.5-0.1,3.2,0.5,4.3,1.6c1.2,1.1,1.9,2.7,1.8,4.3c0,1.6-0.9,3.1-2.1,4C130.8,246.3,129.4,246.7,128,246.6z M128,246.4
			c1.3,0,2.6-0.8,3.2-1.8c0.7-1,0.9-2.2,0.9-3.2c-0.1-1.1-0.5-2.1-1.2-2.9c-0.7-0.8-1.8-1.3-2.9-1.4c-1.1-0.1-2.3,0.4-3.2,1.2
			c-0.9,0.8-1.4,1.9-1.5,3.2c-0.1,1.2,0.3,2.5,1.1,3.5C125.3,245.9,126.7,246.5,128,246.4z"/>
	</g>
	<g>
		<pattern  id="SVGID_9_" xlink:href="#New_Pattern_Swatch_1" patternTransform="matrix(1 0 0 1 7.7975 1.334925e-04)">
		</pattern>
		<path class="st8" d="M173.2,246.5c-2.8,0-5.1-2.3-5.1-5.1c0-1.6,0.7-3,1.9-4c0.7-0.5,1.7-1.1,3.2-1.1c1.2,0,2.3,0.4,3.2,1.1
			c1.2,1,1.9,2.4,1.9,4C178.3,244.2,176,246.5,173.2,246.5z"/>
		<path class="st1" d="M173.2,246.6c-1.4,0-2.7-0.5-3.8-1.5c-1.1-0.9-1.8-2.3-1.8-3.8c-0.1-1.5,0.5-3,1.5-4.1c1-1.1,2.5-1.8,4.1-1.8
			c1.5-0.1,3.2,0.5,4.3,1.6c1.2,1.1,1.9,2.7,1.8,4.3c0,1.6-0.9,3.1-2.1,4C176,246.3,174.5,246.7,173.2,246.6z M173.2,246.4
			c1.3,0,2.6-0.8,3.2-1.8c0.7-1,0.9-2.2,0.9-3.2c-0.1-1.1-0.5-2.1-1.2-2.9c-0.7-0.8-1.8-1.3-2.9-1.4c-1.1-0.1-2.3,0.4-3.2,1.2
			c-0.9,0.8-1.4,1.9-1.5,3.2c-0.1,1.2,0.3,2.5,1.1,3.5C170.5,245.9,171.8,246.5,173.2,246.4z"/>
	</g>
	<g>
		<path class="st4" d="M183.1,172.5c0,2.9-1,5.6-2.7,7.7c-0.3,0.4-0.6,0.7-0.9,1c-2.2,2.2-5.3,3.6-8.7,3.6H85.2
			c-3.9,0-7.3-1.8-9.6-4.6c-1.7-2.1-2.7-4.8-2.7-7.7c0-1.5,0.3-3,0.8-4.4c0.6-1.6,1.6-3.1,2.8-4.3c2.2-2.2,5.3-3.6,8.7-3.6h85.6
			c5.3,0,9.7,3.3,11.5,7.9C182.8,169.5,183.1,171,183.1,172.5z"/>
		<path class="st1" d="M183.9,172.5c0,2.8-0.9,5.5-2.6,7.7c-1.6,2.2-4,3.9-6.6,4.7c-1.3,0.4-2.7,0.6-4,0.6l-3.9,0l-7.8-0.1l-31-0.1
			l-31,0.1l-7.8,0l-3.9,0c-1.4,0-2.7-0.2-4-0.6c-2.6-0.8-5-2.5-6.6-4.7c-1.6-2.2-2.5-4.9-2.6-7.7c0-2.8,0.9-5.5,2.5-7.7
			c1.6-2.2,4-3.9,6.6-4.8c1.3-0.4,2.7-0.6,4.1-0.6l3.9,0l7.8,0l31-0.1l31,0.1l7.8,0l3.9,0c1.4,0,2.8,0.2,4.1,0.6
			c2.6,0.8,5,2.6,6.6,4.8C183,167,183.9,169.7,183.9,172.5z M182.2,172.5c0-2.4-0.8-4.8-2.2-6.7c-1.4-1.9-3.5-3.4-5.8-4.1
			c-1.1-0.4-2.3-0.5-3.6-0.5l-3.9,0l-7.8,0l-31,0.1l-31-0.1l-7.8,0l-3.9,0c-1.2,0-2.4,0.2-3.6,0.5c-2.3,0.7-4.4,2.2-5.8,4.1
			c-1.4,1.9-2.2,4.3-2.2,6.8c0,2.4,0.7,4.8,2.2,6.8c1.4,2,3.5,3.5,5.8,4.2c1.2,0.4,2.4,0.6,3.6,0.6l3.9,0l7.8,0l31,0.1l31-0.1
			l7.8-0.1l3.9,0c1.2,0,2.4-0.2,3.6-0.6c2.3-0.8,4.4-2.3,5.8-4.2C181.5,177.3,182.3,174.9,182.2,172.5z"/>
	</g>
	<path class="st5" d="M85.2,179.3c-2.1,0-4-0.9-5.3-2.6c-1-1.2-1.5-2.7-1.5-4.3c0-0.8,0.1-1.6,0.4-2.4c0.3-0.9,0.9-1.7,1.6-2.4
		c1.3-1.3,3-2,4.8-2h85.6c2.8,0,5.4,1.8,6.4,4.4c0.3,0.8,0.4,1.6,0.4,2.4c0,1.5-0.5,3.1-1.5,4.3c-0.2,0.2-0.3,0.4-0.5,0.6
		c-1.3,1.3-3,2-4.8,2H85.2z"/>
	<path class="st5" d="M36.9,124.6h31c2.8,0,5,2.2,5,5v5.6c0,2.8-2.2,5-5,5h-31c-2.8,0-5-2.2-5-5v-5.6
		C31.9,126.8,34.2,124.6,36.9,124.6z"/>
	<path class="st5" d="M188.1,124.6h31c2.8,0,5,2.2,5,5v5.6c0,2.8-2.2,5-5,5h-31c-2.8,0-5-2.2-5-5v-5.6
		C183.1,126.8,185.3,124.6,188.1,124.6z"/>
	<rect x="114" y="184.8" class="st5" width="27.9" height="17.7"/>
	<path class="st5" d="M149.7,149.4h-43.5c-16.5,0-29.6-14.1-28.4-30.6l5.5-73.5C85.2,22,104.6,4,128,4h0c23.4,0,42.8,18,44.6,41.3
		l5.5,73.5C179.3,135.3,166.3,149.4,149.7,149.4z"/>
	<g>
		<pattern  id="SVGID_10_" xlink:href="#New_Pattern_Swatch_1" patternTransform="matrix(1 0 0 1 7.2 0)">
		</pattern>
		<path class="st9" d="M85.2,179.3c-2.1,0-4-0.9-5.3-2.6c-1-1.2-1.5-2.7-1.5-4.3c0-0.8,0.1-1.6,0.4-2.4c0.3-0.9,0.9-1.7,1.6-2.4
			c1.3-1.3,3-2,4.8-2h85.6c2.8,0,5.4,1.8,6.4,4.4c0.3,0.8,0.4,1.6,0.4,2.4c0,1.5-0.5,3.1-1.5,4.3c-0.2,0.2-0.3,0.4-0.5,0.6
			c-1.3,1.3-3,2-4.8,2H85.2z"/>
		<path class="st1" d="M85.2,179.7c-2.4,0-4.7-1.2-6-3.2c-1.3-2-1.6-4.6-0.7-6.8c0.9-2.2,2.9-3.9,5.2-4.4c0.6-0.1,1.2-0.2,1.7-0.2
			l1.7,0l3.3,0l26.8-0.1l53.5-0.3c2.5,0,5,1.3,6.4,3.4c1.4,2.1,1.7,4.9,0.8,7.2c-0.9,2.4-3.1,4.2-5.6,4.7c-0.6,0.1-1.3,0.2-1.8,0.2
			l-1.7,0l-3.3,0l-26.8,0L85.2,179.7z M85.2,178.9l53.5-0.6l26.8,0l3.3,0l1.7,0c0.6,0,1,0,1.5-0.1c1.9-0.4,3.6-1.7,4.3-3.5
			c0.8-1.8,0.6-4-0.5-5.6c-1.1-1.6-3-2.7-5-2.7l-53.5-0.3l-26.8-0.1l-3.3,0c-1.1,0-2.2-0.1-3.2,0.1c-2.1,0.4-3.8,1.9-4.6,3.8
			c-0.8,1.9-0.6,4.3,0.6,6C81,177.8,83.1,178.9,85.2,178.9z"/>
	</g>
	<g>
		<path class="st4" d="M75.6,180.2h-17c-6.6,0-12-5.4-12-12v-27.9h12v27.9h15.1c-0.5,1.4-0.8,2.8-0.8,4.4
			C72.9,175.4,73.9,178.1,75.6,180.2z"/>
		<path class="st1" d="M75.7,180.2l-16,0.3c-2.7,0.2-5.5-0.4-7.8-1.9c-2.3-1.5-4.2-3.7-5.1-6.3c-0.5-1.3-0.7-2.7-0.7-4.1l0-4l-0.1-8
			l-0.1-16c0-0.4,0.3-0.8,0.8-0.8l0,0l12-0.1c0.5,0,0.9,0.4,0.9,0.9v0l0,0l0.1,14l0,7c0,2.3-0.1,4.7-0.1,7l-0.9-0.9l7.6,0.1
			c2.5,0,5,0.1,7.6,0.2l0,0c0.3,0,0.6,0.3,0.6,0.6c0,0.1,0,0.1,0,0.2c-0.8,1.9-1,4-0.8,6c0.1,1,0.4,2,0.7,3c0.2,0.5,0.4,1,0.7,1.4
			C75.1,179.3,75.4,179.6,75.7,180.2z M75.5,180.1c-0.4-0.2-0.7-0.7-1-1.2c-0.3-0.4-0.6-0.9-0.8-1.4c-0.5-1-0.8-2-1-3.1
			c-0.4-2.2-0.3-4.4,0.5-6.5l0.6,0.8c-2.5,0.1-5,0.2-7.6,0.2l-7.6,0.1c-0.5,0-0.9-0.4-0.9-0.9l0,0l0,0c0-2.3-0.1-4.7-0.1-7l0-7
			l0.1-14l0.9,0.9l-12-0.1l0.8-0.8l-0.1,16l-0.1,8l0,4c0,1.3,0.2,2.5,0.6,3.8c0.8,2.4,2.5,4.6,4.6,6c2.1,1.5,4.8,2,7.4,2L75.5,180.1
			z"/>
	</g>
	<g>
		<pattern  id="SVGID_11_" xlink:href="#New_Pattern_Swatch_1" patternTransform="matrix(1 0 0 1 7.2 0)">
		</pattern>
		<path class="st10" d="M36.9,124.6h31c2.8,0,5,2.2,5,5v5.6c0,2.8-2.2,5-5,5h-31c-2.8,0-5-2.2-5-5v-5.6
			C31.9,126.8,34.2,124.6,36.9,124.6z"/>
		<path class="st1" d="M36.9,123.8c8.7,0.1,17.4,0.3,26.2,0.3l3.3,0l1.6,0c0.6,0,1.2,0.1,1.8,0.3c1.1,0.4,2.1,1.2,2.8,2.2
			c0.7,1,1,2.3,0.9,3.4l0,3.3l0,1.6c0,0.5,0,1.2-0.2,1.8c-0.6,2.5-3,4.3-5.5,4.3l-13.1,0.1l-13.1,0.1l-3.3,0l-1.6,0
			c-0.7,0-1.3-0.1-1.9-0.4c-1.2-0.4-2.3-1.3-3-2.4c-0.4-0.5-0.6-1.2-0.8-1.8c-0.1-0.3-0.1-0.6-0.2-1l0-0.5l0-0.4l0-3.3l0-1.6
			c0-0.3,0-0.6,0-0.9c0-0.3,0.1-0.6,0.2-0.9C31.9,125.6,34.4,123.7,36.9,123.8z M36.9,125.4c-1.8,0-3.6,1.4-4,3.1
			c-0.1,0.2-0.1,0.4-0.1,0.7c0,0.2,0,0.4,0,0.7l0,1.6l0,3.3l0,0.4l0,0.3c0,0.2,0,0.4,0.1,0.7c0.1,0.4,0.3,0.8,0.5,1.2
			c0.5,0.7,1.2,1.3,2,1.6c0.4,0.1,0.8,0.2,1.3,0.2l1.6,0l3.3,0l13.1,0.1l13.1,0.1c1.8,0.1,3.7-1.3,4.1-3.1c0.1-0.5,0.2-0.9,0.2-1.4
			l0-1.6l0-3.3c0.1-1.1-0.1-2-0.7-2.8c-0.5-0.8-1.3-1.5-2.2-1.8c-0.5-0.2-0.9-0.3-1.4-0.3l-1.6,0l-3.3,0
			C54.4,125.1,45.7,125.3,36.9,125.4z"/>
	</g>
	<g>
		<path class="st1" d="M37.3,134.8l-0.9-4.7c-0.1-0.4,0.2-0.9,0.7-1c0,0,0.1,0,0.1,0l0.2,0c2.5-0.1,5-0.1,7.5-0.1
			c2.5,0.1,5,0.1,7.5,0.2c2.5,0.1,5,0.2,7.5,0.3c2.5,0.1,5,0.3,7.5,0.5l0,0c0.1,0,0.1,0.1,0.1,0.1c0,0.1,0,0.1-0.1,0.1l-30.1,0
			l0.1-0.1l0,4.7c0,0.1,0,0.1-0.1,0.1C37.4,134.9,37.3,134.8,37.3,134.8L37.3,134.8z"/>
	</g>
	<g>
		<pattern  id="SVGID_12_" xlink:href="#New_Pattern_Swatch_1" patternTransform="matrix(1 0 0 1 7.2 0)">
		</pattern>
		<path class="st11" d="M188.1,124.6h31c2.8,0,5,2.2,5,5v5.6c0,2.8-2.2,5-5,5h-31c-2.8,0-5-2.2-5-5v-5.6
			C183.1,126.8,185.3,124.6,188.1,124.6z"/>
		<path class="st1" d="M188.1,123.9l13.1,0.2l13.1,0.1l3.3,0l1.6,0c0.6,0,1.2,0.1,1.8,0.3c1.1,0.4,2.1,1.2,2.8,2.2
			c0.7,1,1,2.3,0.9,3.4l0,3.3l0,1.6c0,0.5,0,1.2-0.2,1.8c-0.6,2.5-3,4.3-5.5,4.3l-13.1,0.1l-13.1,0.1l-3.3,0l-1.6,0
			c-0.6,0-1.3-0.1-1.9-0.4c-1.2-0.4-2.3-1.3-3-2.4c-0.4-0.5-0.6-1.1-0.8-1.8c-0.1-0.3-0.1-0.6-0.2-1l0-0.5l0-0.4l0-3.3l0-1.6
			c0-0.3,0-0.6,0-0.9c0-0.3,0.1-0.6,0.2-0.9C183.1,125.6,185.6,123.8,188.1,123.9z M188.1,125.3c-1.9,0-3.6,1.4-4,3.2
			c-0.1,0.5-0.1,0.8-0.1,1.4l0,1.6l0,3.3l0,0.4l0,0.3c0,0.2,0.1,0.4,0.1,0.7c0.1,0.4,0.3,0.8,0.5,1.2c0.5,0.7,1.2,1.3,2.1,1.6
			c0.4,0.1,0.9,0.2,1.3,0.2l1.6,0l3.3,0l13.1,0.1l13.1,0.1c1.8,0.1,3.7-1.3,4.1-3.1c0.1-0.5,0.2-0.9,0.2-1.4l0-1.6l0-3.3
			c0.1-1.1-0.1-2-0.7-2.8c-0.5-0.8-1.3-1.5-2.2-1.8c-0.5-0.2-0.9-0.3-1.4-0.3l-1.6,0l-3.3,0l-13.1,0.1L188.1,125.3z"/>
	</g>
	<g>
		<path class="st1" d="M188.4,134.8l-0.9-4.7c-0.1-0.4,0.2-0.9,0.7-1c0,0,0.1,0,0.1,0l0.2,0c2.5-0.1,5-0.2,7.5-0.2
			c2.5,0,5,0.1,7.5,0.2c2.5,0.1,5,0.2,7.5,0.3c2.5,0.1,5,0.3,7.5,0.5l0,0c0.1,0,0.1,0.1,0.1,0.1c0,0.1,0,0.1-0.1,0.1l-30.1,0
			l0.1-0.1l0,4.7c0,0.1,0,0.1-0.1,0.1C188.5,134.9,188.5,134.8,188.4,134.8L188.4,134.8z"/>
	</g>
	<g>
		<path class="st4" d="M207.4,140.2v27.9c0,6.6-5.4,12-12,12h-15c1.7-2.1,2.7-4.8,2.7-7.7c0-1.5-0.3-3-0.8-4.4h13.1v-27.9H207.4z"/>
		<path class="st1" d="M207.5,140.2l0.2,15.4l0.1,7.8l0.1,3.9c0,1.3,0,2.7-0.3,4c-0.6,2.6-2.1,5-4.2,6.7c-2.1,1.7-4.7,2.8-7.4,2.9
			c-5.2,0.1-10.3,0.1-15.5,0.2c-0.4,0-0.8-0.3-0.8-0.8c0-0.2,0.1-0.4,0.2-0.5l0,0c1.2-1.6,2-3.5,2.3-5.4c0.3-2,0-4-0.7-5.8
			c-0.2-0.5,0-1,0.5-1.2c0.1,0,0.2-0.1,0.3-0.1l0,0l13.1-0.1l-1,1c0-4.7,0-9.3,0.1-14c0.1-4.7,0.2-9.3,0.3-14l0,0
			c0-0.3,0.3-0.6,0.6-0.5c2.1,0.1,4.1,0.1,6.2,0.2L207.5,140.2z M207.3,140.3l-6.1,0.3c-2,0.1-3.9,0.2-5.9,0.2l0.6-0.6
			c0.2,4.7,0.2,9.3,0.3,14c0.1,4.7,0.1,9.3,0.1,14l0,0c0,0.6-0.5,1-1,1l0,0l-13.1-0.1l0.9-1.3c0.8,2.1,1,4.5,0.6,6.7
			c-0.4,2.2-1.3,4.4-2.8,6.1l-0.6-1.3c5.1,0,10.3,0.1,15.4,0.1c2.4,0,4.8-1,6.8-2.5c1.9-1.5,3.4-3.7,4-6.1c0.3-1.2,0.4-2.4,0.4-3.7
			l0.1-3.8l0.1-7.7L207.3,140.3z"/>
	</g>
	<rect x="46.5" y="140.2" class="st12" width="12" height="5"/>
	<rect x="195.4" y="140.2" class="st12" width="12" height="5"/>
	<g>
		<rect x="116.3" y="149.4" class="st4" width="23.3" height="10.8"/>
		<path class="st1" d="M140.3,148.7c0.1,3.8,0.1,7.7,0,11.5l0,0.1c0,0.3-0.3,0.6-0.6,0.6l0,0c-3.9-0.3-7.8-0.1-11.7-0.1l-5.8,0.1
			c-1.9,0-3.9,0.1-5.8,0.2c-0.4,0-0.8-0.3-0.8-0.8v0l0,0l-0.3-10.8c0-0.6,0.4-1,1-1.1l0,0l0,0C124.4,148.4,132.4,148.5,140.3,148.7z
			 M139,150c-7.7,0.2-15.2,0.3-22.7,0.4l1.1-1.1l-0.3,10.8l-0.8-0.8c1.9,0.1,3.9,0.1,5.8,0.2l5.8,0.1c3.9,0,7.8,0.2,11.7-0.1
			l-0.7,0.7C138.9,156.7,138.9,153.4,139,150z"/>
	</g>
	<rect x="116.3" y="149.4" class="st12" width="23.3" height="5"/>
	<g>
		<pattern  id="SVGID_13_" xlink:href="#New_Pattern_Swatch_1" patternTransform="matrix(1 0 0 1 7.2 0)">
		</pattern>
		<rect x="114" y="184.8" class="st13" width="27.9" height="17.7"/>
		<path class="st1" d="M142.5,203l-14.3,0l-7.1,0c-2.4,0-4.7,0-7.1,0.1c-0.3,0-0.6-0.2-0.6-0.5l0,0l0,0l0.1-17.7
			c0-0.2,0.2-0.4,0.4-0.4l14-0.1l7-0.1c2.3,0,4.7,0,7,0c0.3,0,0.6,0.3,0.6,0.6C142.6,190.8,142.6,197,142.5,203z M141.4,201.9
			c-0.1-5.7-0.1-11.4,0-17.1l0.6,0.6c-2.3,0-4.7,0-7,0l-7-0.1l-14-0.1l0.4-0.4l0.1,17.7l-0.6-0.6c2.3,0.1,4.6,0.1,6.9,0.1l6.9,0
			L141.4,201.9z"/>
	</g>
	<rect x="114" y="184.8" class="st12" width="27.9" height="5"/>
	<g>
		<path class="st4" d="M179.8,222.5v10.7c-1.8-1.5-4.1-2.4-6.7-2.4c-2.5,0-4.9,0.9-6.7,2.4v-10.7h-31.8v10.7
			c-1.8-1.5-4.1-2.4-6.7-2.4c-2.5,0-4.8,0.9-6.7,2.4v-10.7H89.5v10.7c-1.8-1.5-4.1-2.4-6.7-2.4s-4.8,0.9-6.7,2.4v-10.7
			c0-2.8,1.1-5.2,2.9-7.1c1.8-1.8,4.3-2.9,7.1-2.9h35.2v-10h13.3v10h35.2C175.4,212.5,179.8,216.9,179.8,222.5z"/>
		<path class="st1" d="M180.3,222.5c0,1.8,0,3.6-0.1,5.4c-0.1,1.8-0.1,3.6-0.3,5.4l0,0c0,0.1-0.1,0.1-0.1,0.1c0,0,0,0-0.1,0
			c-1.9-1.5-4.2-2.2-6.6-2.2c-2.3,0.1-4.6,0.9-6.4,2.4l0,0l0,0c-0.2,0.2-0.5,0.1-0.7-0.1c-0.1-0.1-0.1-0.2-0.1-0.3l0.3-10.7l0,0
			l0.2,0.2l-31.8,0.2l0.4-0.4l0.1,10.7c0,0.3-0.2,0.5-0.5,0.5c-0.1,0-0.2,0-0.3-0.1c-1.8-1.4-4.1-2.2-6.3-2.2
			c-2.3,0-4.5,0.8-6.3,2.3c-0.2,0.2-0.6,0.2-0.8-0.1c-0.1-0.1-0.1-0.2-0.1-0.4v0l0-10.7l0.6,0.6l-31.9,0.1l0.7-0.7l0,10.7
			c0,0.4-0.3,0.8-0.8,0.8c-0.2,0-0.4-0.1-0.5-0.2c-1.7-1.4-3.9-2.2-6.2-2.1c-2.2,0-4.4,0.8-6.1,2.2c-0.3,0.3-0.9,0.2-1.2-0.1
			c-0.1-0.2-0.2-0.3-0.2-0.5l0,0l0-7.7l0-1.9c0-0.6,0-1.3,0-2c0.1-1.4,0.5-2.8,1.1-4c1.3-2.5,3.5-4.5,6.1-5.4
			c1.3-0.5,2.8-0.6,4.1-0.6l3.8,0l30.8-0.1l0.1,0l-1,1l0.5-9.9l0-0.1l0,0c0-0.3,0.2-0.5,0.5-0.5l13.3,0l0.1,0c0.3,0,0.5,0.2,0.5,0.5
			v0l0.1,9.9l0,0.1l-0.6-0.6l12.7,0l12.7,0.1l6.4,0l3.2,0c1.1,0,2.2,0.1,3.3,0.5c2.1,0.7,4,2,5.3,3.8
			C179.6,218,180.3,220.2,180.3,222.5z M179.4,222.5c0-2-0.7-4-1.9-5.6c-1.2-1.6-2.9-2.8-4.8-3.4c-1-0.3-2-0.4-3-0.4l-3.2,0l-6.4,0
			l-12.7,0.1l-12.7,0l0,0c-0.3,0-0.6-0.3-0.6-0.6v0l0-0.1l0.1-9.9l0.5,0.5l-0.1,0l-13.3,0l0.5-0.5l0,0.1l0.5,9.9c0,0.5-0.4,1-0.9,1
			l0,0l-0.1,0l-0.1,0l-30.8-0.1l-3.8,0c-1.3,0-2.4,0.1-3.5,0.5c-2.2,0.7-4.1,2.4-5.2,4.5c-0.5,1-0.9,2.2-1,3.4c0,0.6,0,1.2,0,1.9
			l0,1.9l0,7.7l-1.3-0.6c2-1.6,4.6-2.5,7.2-2.5c2.6,0,5.2,0.9,7.1,2.6l-1.3,0.6l0-10.7v0c0-0.4,0.3-0.7,0.7-0.7l31.9,0.1
			c0.3,0,0.6,0.3,0.6,0.6v0l0,10.7l-0.9-0.4c2-1.6,4.5-2.5,7-2.5c2.5,0,5,0.9,7,2.5l-0.8,0.4l0.1-10.7v0c0-0.2,0.2-0.4,0.4-0.4h0
			l31.8,0.2c0.1,0,0.2,0.1,0.2,0.2l0,0l0.3,10.7l-0.8-0.4l0,0c2-1.5,4.5-2.3,7-2.3c2.5,0.1,4.9,1,6.7,2.6l-0.2,0.1
			c-0.1-1.8-0.2-3.6-0.3-5.4C179.4,226,179.4,224.2,179.4,222.5z"/>
	</g>
	<rect x="121.3" y="202.5" class="st12" width="13.3" height="5"/>
	<g>
		<pattern  id="SVGID_14_" xlink:href="#New_Pattern_Swatch_1" patternTransform="matrix(1 0 0 1 7.2 0)">
		</pattern>
		<path class="st14" d="M149.7,149.4h-43.5c-16.5,0-29.6-14.1-28.4-30.6l5.5-73.5C85.2,22,104.6,4,128,4h0c23.4,0,42.8,18,44.6,41.3
			l5.5,73.5C179.3,135.3,166.3,149.4,149.7,149.4z"/>
		<path class="st1" d="M149.7,150.8l-26.1-0.2l-13.1-0.1c-2.2,0-4.3,0-6.6-0.2l-0.8-0.1l-0.8-0.1l-1.7-0.3c-1.1-0.2-2.2-0.6-3.3-0.9
			c-8.6-2.8-15.5-9.8-18.5-18.2c-0.3-1.1-0.7-2.1-0.9-3.2l-0.3-1.6c-0.1-0.5-0.2-1.1-0.2-1.7c-0.2-2.2-0.2-4.5,0-6.6l1.1-13l2-26.1
			l1.9-26.1l0.5-6.5c0.1-1.1,0.2-2.2,0.4-3.3l0.2-1.6c0.1-0.5,0.2-1.1,0.3-1.6c0.3-1.1,0.4-2.2,0.8-3.2l1-3.2c0.4-1,0.8-2,1.3-3.1
			c0.4-1,0.9-2,1.5-3c1-2,2.3-3.8,3.5-5.6l2.1-2.6c0.7-0.9,1.5-1.6,2.3-2.4c3.2-3.1,6.7-5.8,10.6-7.9c3.9-2,8.1-3.6,12.5-4.5
			c4.4-0.8,8.8-1,13.2-0.7c4.4,0.5,8.8,1.6,12.9,3.2c4.1,1.7,7.9,4,11.4,6.8c3.5,2.8,6.5,6.1,9,9.8c1.3,1.8,2.3,3.8,3.4,5.7l1.3,3.1
			c0.5,1,0.7,2.1,1.1,3.1l0.5,1.6l0.4,1.6l0.4,1.6c0.1,0.5,0.2,1.1,0.3,1.6l0.4,3.3c0.1,1.1,0.2,2.2,0.3,3.3l1,13l4.2,52.1l0.3,3.3
			c0.1,1.1,0.2,2.1,0.2,3.3c0,1.1,0.1,2.3,0,3.4l-0.1,1.7c-0.1,0.6-0.2,1.1-0.3,1.7c-0.8,4.5-2.7,8.8-5.5,12.4
			c-2.8,3.6-6.4,6.6-10.5,8.6C158.9,149.7,154.3,150.8,149.7,150.8z M149.7,147.9c4.1,0,8.3-1,12-2.8c3.7-1.8,7-4.5,9.5-7.8
			c2.5-3.3,4.3-7.1,5.1-11.2c0.1-0.5,0.2-1,0.3-1.5l0.1-1.5c0.1-1,0.1-2.1,0.1-3.1c0-1-0.1-2.1-0.2-3.2l-0.2-3.3l-3.6-52.1l-1-13
			c-0.1-1.1-0.1-2.2-0.3-3.2l-0.4-3.2c0-0.5-0.2-1.1-0.3-1.6l-0.3-1.6l-0.3-1.6l-0.5-1.5c-0.4-1-0.6-2-1-3l-1.3-2.9
			c-1-1.9-1.9-3.8-3.2-5.5c-2.4-3.5-5.2-6.8-8.6-9.4c-3.3-2.7-7-5-10.9-6.6c-4-1.6-8.1-2.6-12.4-3.1c-4.3-0.4-8.6-0.2-12.8,0.6
			c-4.2,0.9-8.2,2.3-12,4.3c-3.8,1.9-7.3,4.6-10.3,7.5c-0.7,0.8-1.5,1.5-2.2,2.3l-2,2.5c-1.2,1.8-2.5,3.5-3.5,5.4
			c-0.5,0.9-1.1,1.9-1.5,2.9c-0.4,1-0.9,2-1.3,3l-1,3.1c-0.3,1-0.5,2.1-0.8,3.1l-0.4,1.6l-0.2,1.6c-0.1,1.1-0.3,2.1-0.4,3.2
			l-0.5,6.5l-2,26l-1.9,26.1l-0.9,13c-0.1,2.2-0.2,4.3,0.1,6.4c0,0.5,0.1,1.1,0.2,1.6l0.3,1.6c0.2,1,0.6,2,0.9,3.1
			c3,8,9.7,14.4,17.8,16.8c1,0.2,2,0.6,3.1,0.7l1.6,0.2l0.8,0.1l0.8,0c2.1,0.1,4.3,0.1,6.4,0l13.1-0.1L149.7,147.9z"/>
	</g>
	<g>
		<path class="st1" d="M149.7,139c-8.2,0-16.4-0.1-24.5-0.1l-12.3,0l-6.1,0c-2.1,0-4.2-0.3-6.2-0.9c-4-1.3-7.5-4.1-9.7-7.7
			c-1.1-1.8-1.9-3.8-2.3-5.9c-0.2-1-0.3-2.1-0.4-3.2c0-1.1,0.1-2.1,0.1-3.1L90,93.7l1.7-24.5c0.6-8.2,1.1-16.3,1.9-24.5
			c1-8.4,5.2-16.3,11.6-21.7c3.2-2.7,6.8-4.9,10.7-6.3c3.9-1.4,8.1-2.1,12.2-2c0.2,0,0.3,0.1,0.3,0.3c0,0.2-0.1,0.3-0.3,0.3
			c-8.1,0.2-16,3.5-21.9,8.9c-2.9,2.7-5.4,5.9-7.2,9.5c-1.8,3.5-3,7.4-3.4,11.4c-0.1,1-0.2,2-0.3,3L95,51l-0.4,6.1l-1,12.2l-2,24.5
			l-2,24.5c-0.1,1-0.2,2-0.2,3c0,1,0.1,2,0.3,2.9c0.4,1.9,1.1,3.8,2.1,5.5c2.1,3.4,5.3,6.1,9.1,7.3c1.9,0.6,3.9,0.9,5.9,0.9l6.1,0
			l12.3,0c8.2,0,16.4,0,24.5-0.1c0.3,0,0.6,0.2,0.6,0.6S150,139,149.7,139C149.7,139,149.7,139,149.7,139z"/>
	</g>
</g>
</svg>
