<?xml version="1.0" encoding="utf-8"?>
<!-- Generator: Adobe Illustrator 22.1.0, SVG Export Plug-In . SVG Version: 6.00 Build 0)  -->
<svg version="1.1" id="Layer_1" xmlns="http://www.w3.org/2000/svg" xmlns:xlink="http://www.w3.org/1999/xlink" x="0px" y="0px"
	 viewBox="0 0 256 256" style="enable-background:new 0 0 256 256;" xml:space="preserve">
<style type="text/css">
	.st0{fill:none;}
	.st1{fill:#253759;}
	.st2{clip-path:url(#SVGID_2_);fill:#253759;}
	.st3{clip-path:url(#SVGID_4_);fill:#253759;}
	.st4{fill:#D6ECFF;}
	.st5{fill:#A6D6FF;}
	.st6{fill:url(#SVGID_7_);}
	.st7{fill:url(#SVGID_8_);}
	.st8{fill:url(#SVGID_9_);}
	.st9{fill:url(#SVGID_10_);}
	.st10{fill:url(#SVGID_11_);}
	.st11{fill:url(#SVGID_12_);}
	.st12{fill:url(#SVGID_13_);}
	.st13{fill:url(#SVGID_14_);}
	.st14{fill:#FF9D9D;}
	.st15{fill:#FFFFFF;}
	.st16{fill:url(#SVGID_15_);}
	.st17{fill:#A8A7C2;}
	.st18{opacity:0.3;fill:#253759;}
</style>
<pattern  x="-3312" width="42.9" height="43" patternUnits="userSpaceOnUse" id="New_Pattern_Swatch_1" viewBox="43 -43 42.9 43" style="overflow:visible;">
	<g>
		<rect x="43" y="-43" class="st0" width="42.9" height="43"/>
		<g>
			<g>
				<circle class="st1" cx="85.9" cy="-41.2" r="0.6"/>
				<circle class="st1" cx="85.9" cy="-37.6" r="0.6"/>
				<circle class="st1" cx="85.9" cy="-34" r="0.6"/>
				<circle class="st1" cx="85.9" cy="-30.4" r="0.6"/>
				<circle class="st1" cx="85.9" cy="-26.9" r="0.6"/>
				<circle class="st1" cx="85.9" cy="-23.3" r="0.6"/>
				<circle class="st1" cx="85.9" cy="-19.7" r="0.6"/>
				<circle class="st1" cx="85.9" cy="-16.1" r="0.6"/>
				<circle class="st1" cx="85.9" cy="-12.6" r="0.6"/>
				<circle class="st1" cx="85.9" cy="-9" r="0.6"/>
				<circle class="st1" cx="85.9" cy="-5.4" r="0.6"/>
				<circle class="st1" cx="85.9" cy="-1.8" r="0.6"/>
				<circle class="st1" cx="85.8" cy="-41.2" r="0.6"/>
				<circle class="st1" cx="85.8" cy="-37.6" r="0.6"/>
				<circle class="st1" cx="85.8" cy="-34" r="0.6"/>
				<circle class="st1" cx="85.8" cy="-30.4" r="0.6"/>
				<circle class="st1" cx="85.8" cy="-26.9" r="0.6"/>
				<circle class="st1" cx="85.8" cy="-23.3" r="0.6"/>
				<circle class="st1" cx="85.8" cy="-19.7" r="0.6"/>
				<circle class="st1" cx="85.8" cy="-16.1" r="0.6"/>
				<circle class="st1" cx="85.8" cy="-12.6" r="0.6"/>
				<circle class="st1" cx="85.8" cy="-9" r="0.6"/>
				<circle class="st1" cx="85.8" cy="-5.4" r="0.6"/>
				<circle class="st1" cx="85.8" cy="-1.8" r="0.6"/>
			</g>
			<g>
				<defs>
					<rect id="SVGID_1_" x="85.8" y="-43" width="43" height="43"/>
				</defs>
				<clipPath id="SVGID_2_">
					<use xlink:href="#SVGID_1_"  style="overflow:visible;"/>
				</clipPath>
				<circle class="st2" cx="85.8" cy="-41.2" r="0.6"/>
				<circle class="st2" cx="85.8" cy="-37.6" r="0.6"/>
				<circle class="st2" cx="85.8" cy="-34" r="0.6"/>
				<circle class="st2" cx="85.8" cy="-30.4" r="0.6"/>
				<circle class="st2" cx="85.8" cy="-26.9" r="0.6"/>
				<circle class="st2" cx="85.8" cy="-23.3" r="0.6"/>
				<circle class="st2" cx="85.8" cy="-19.7" r="0.6"/>
				<circle class="st2" cx="85.8" cy="-16.1" r="0.6"/>
				<circle class="st2" cx="85.8" cy="-12.6" r="0.6"/>
				<circle class="st2" cx="85.8" cy="-9" r="0.6"/>
				<circle class="st2" cx="85.8" cy="-5.4" r="0.6"/>
				<circle class="st2" cx="85.8" cy="-1.8" r="0.6"/>
				<circle class="st2" cx="85.7" cy="-41.2" r="0.6"/>
				<circle class="st2" cx="85.7" cy="-37.6" r="0.6"/>
				<circle class="st2" cx="85.7" cy="-34" r="0.6"/>
				<circle class="st2" cx="85.7" cy="-30.4" r="0.6"/>
				<circle class="st2" cx="85.7" cy="-26.9" r="0.6"/>
				<circle class="st2" cx="85.7" cy="-23.3" r="0.6"/>
				<circle class="st2" cx="85.7" cy="-19.7" r="0.6"/>
				<circle class="st2" cx="85.7" cy="-16.1" r="0.6"/>
				<circle class="st2" cx="85.7" cy="-12.6" r="0.6"/>
				<circle class="st2" cx="85.7" cy="-9" r="0.6"/>
				<circle class="st2" cx="85.7" cy="-5.4" r="0.6"/>
				<circle class="st2" cx="85.7" cy="-1.8" r="0.6"/>
			</g>
		</g>
		<g>
			<g>
				<circle class="st1" cx="85.9" cy="-41.2" r="0.6"/>
				<circle class="st1" cx="85.9" cy="-37.6" r="0.6"/>
				<circle class="st1" cx="85.9" cy="-34" r="0.6"/>
				<circle class="st1" cx="85.9" cy="-30.4" r="0.6"/>
				<circle class="st1" cx="85.9" cy="-26.9" r="0.6"/>
				<circle class="st1" cx="85.9" cy="-23.3" r="0.6"/>
				<circle class="st1" cx="85.9" cy="-19.7" r="0.6"/>
				<circle class="st1" cx="85.9" cy="-16.1" r="0.6"/>
				<circle class="st1" cx="85.9" cy="-12.6" r="0.6"/>
				<circle class="st1" cx="85.9" cy="-9" r="0.6"/>
				<circle class="st1" cx="85.9" cy="-5.4" r="0.6"/>
				<circle class="st1" cx="85.9" cy="-1.8" r="0.6"/>
				<circle class="st1" cx="43" cy="-41.2" r="0.6"/>
				<circle class="st1" cx="46.5" cy="-41.2" r="0.6"/>
				<circle class="st1" cx="50.1" cy="-41.2" r="0.6"/>
				<circle class="st1" cx="53.7" cy="-41.2" r="0.6"/>
				<circle class="st1" cx="43" cy="-37.6" r="0.6"/>
				<circle class="st1" cx="46.5" cy="-37.6" r="0.6"/>
				<circle class="st1" cx="50.1" cy="-37.6" r="0.6"/>
				<circle class="st1" cx="53.7" cy="-37.6" r="0.6"/>
				<circle class="st1" cx="43" cy="-34" r="0.6"/>
				<circle class="st1" cx="46.5" cy="-34" r="0.6"/>
				<circle class="st1" cx="50.1" cy="-34" r="0.6"/>
				<circle class="st1" cx="53.7" cy="-34" r="0.6"/>
				<circle class="st1" cx="43" cy="-30.4" r="0.6"/>
				<circle class="st1" cx="46.5" cy="-30.4" r="0.6"/>
				<circle class="st1" cx="50.1" cy="-30.4" r="0.6"/>
				<circle class="st1" cx="53.7" cy="-30.4" r="0.6"/>
				<circle class="st1" cx="43" cy="-26.9" r="0.6"/>
				<circle class="st1" cx="46.5" cy="-26.9" r="0.6"/>
				<circle class="st1" cx="50.1" cy="-26.9" r="0.6"/>
				<circle class="st1" cx="53.7" cy="-26.9" r="0.6"/>
				<circle class="st1" cx="43" cy="-23.3" r="0.6"/>
				<circle class="st1" cx="46.5" cy="-23.3" r="0.6"/>
				<circle class="st1" cx="50.1" cy="-23.3" r="0.6"/>
				<circle class="st1" cx="53.7" cy="-23.3" r="0.6"/>
				<circle class="st1" cx="57.3" cy="-41.2" r="0.6"/>
				<circle class="st1" cx="60.8" cy="-41.2" r="0.6"/>
				<circle class="st1" cx="64.4" cy="-41.2" r="0.6"/>
				<circle class="st1" cx="68" cy="-41.2" r="0.6"/>
				<circle class="st1" cx="71.5" cy="-41.2" r="0.6"/>
				<circle class="st1" cx="57.3" cy="-37.6" r="0.6"/>
				<circle class="st1" cx="60.8" cy="-37.6" r="0.6"/>
				<circle class="st1" cx="64.4" cy="-37.6" r="0.6"/>
				<circle class="st1" cx="68" cy="-37.6" r="0.6"/>
				<circle class="st1" cx="71.5" cy="-37.6" r="0.6"/>
				<circle class="st1" cx="57.3" cy="-34" r="0.6"/>
				<circle class="st1" cx="60.8" cy="-34" r="0.6"/>
				<circle class="st1" cx="64.4" cy="-34" r="0.6"/>
				<circle class="st1" cx="68" cy="-34" r="0.6"/>
				<circle class="st1" cx="71.5" cy="-34" r="0.6"/>
				<circle class="st1" cx="57.3" cy="-30.4" r="0.6"/>
				<circle class="st1" cx="60.8" cy="-30.4" r="0.6"/>
				<circle class="st1" cx="64.4" cy="-30.4" r="0.6"/>
				<circle class="st1" cx="68" cy="-30.4" r="0.6"/>
				<circle class="st1" cx="71.5" cy="-30.4" r="0.6"/>
				<circle class="st1" cx="57.3" cy="-26.9" r="0.6"/>
				<circle class="st1" cx="60.8" cy="-26.9" r="0.6"/>
				<circle class="st1" cx="64.4" cy="-26.9" r="0.6"/>
				<circle class="st1" cx="68" cy="-26.9" r="0.6"/>
				<circle class="st1" cx="71.5" cy="-26.9" r="0.6"/>
				<circle class="st1" cx="57.3" cy="-23.3" r="0.6"/>
				<circle class="st1" cx="60.8" cy="-23.3" r="0.6"/>
				<circle class="st1" cx="64.4" cy="-23.3" r="0.6"/>
				<circle class="st1" cx="68" cy="-23.3" r="0.6"/>
				<circle class="st1" cx="71.5" cy="-23.3" r="0.6"/>
				<circle class="st1" cx="75.1" cy="-41.2" r="0.6"/>
				<circle class="st1" cx="78.7" cy="-41.2" r="0.6"/>
				<circle class="st1" cx="82.3" cy="-41.2" r="0.6"/>
				<circle class="st1" cx="85.8" cy="-41.2" r="0.6"/>
				<circle class="st1" cx="75.1" cy="-37.6" r="0.6"/>
				<circle class="st1" cx="78.7" cy="-37.6" r="0.6"/>
				<circle class="st1" cx="82.3" cy="-37.6" r="0.6"/>
				<circle class="st1" cx="85.8" cy="-37.6" r="0.6"/>
				<circle class="st1" cx="75.1" cy="-34" r="0.6"/>
				<circle class="st1" cx="78.7" cy="-34" r="0.6"/>
				<circle class="st1" cx="82.3" cy="-34" r="0.6"/>
				<circle class="st1" cx="85.8" cy="-34" r="0.6"/>
				<circle class="st1" cx="75.1" cy="-30.4" r="0.6"/>
				<circle class="st1" cx="78.7" cy="-30.4" r="0.6"/>
				<circle class="st1" cx="82.3" cy="-30.4" r="0.6"/>
				<circle class="st1" cx="85.8" cy="-30.4" r="0.6"/>
				<circle class="st1" cx="75.1" cy="-26.9" r="0.6"/>
				<circle class="st1" cx="78.7" cy="-26.9" r="0.6"/>
				<circle class="st1" cx="82.3" cy="-26.9" r="0.6"/>
				<circle class="st1" cx="85.8" cy="-26.9" r="0.6"/>
				<circle class="st1" cx="75.1" cy="-23.3" r="0.6"/>
				<circle class="st1" cx="78.7" cy="-23.3" r="0.6"/>
				<circle class="st1" cx="82.3" cy="-23.3" r="0.6"/>
				<circle class="st1" cx="85.8" cy="-23.3" r="0.6"/>
				<circle class="st1" cx="43" cy="-19.7" r="0.6"/>
				<circle class="st1" cx="46.5" cy="-19.7" r="0.6"/>
				<circle class="st1" cx="50.1" cy="-19.7" r="0.6"/>
				<circle class="st1" cx="53.7" cy="-19.7" r="0.6"/>
				<circle class="st1" cx="43" cy="-16.1" r="0.6"/>
				<circle class="st1" cx="46.5" cy="-16.1" r="0.6"/>
				<circle class="st1" cx="50.1" cy="-16.1" r="0.6"/>
				<circle class="st1" cx="53.7" cy="-16.1" r="0.6"/>
				<circle class="st1" cx="43" cy="-12.6" r="0.6"/>
				<circle class="st1" cx="46.5" cy="-12.6" r="0.6"/>
				<circle class="st1" cx="50.1" cy="-12.6" r="0.6"/>
				<circle class="st1" cx="53.7" cy="-12.6" r="0.6"/>
				<circle class="st1" cx="43" cy="-9" r="0.6"/>
				<circle class="st1" cx="46.5" cy="-9" r="0.6"/>
				<circle class="st1" cx="50.1" cy="-9" r="0.6"/>
				<circle class="st1" cx="53.7" cy="-9" r="0.6"/>
				<circle class="st1" cx="43" cy="-5.4" r="0.6"/>
				<circle class="st1" cx="46.5" cy="-5.4" r="0.6"/>
				<circle class="st1" cx="50.1" cy="-5.4" r="0.6"/>
				<circle class="st1" cx="53.7" cy="-5.4" r="0.6"/>
				<circle class="st1" cx="43" cy="-1.8" r="0.6"/>
				<circle class="st1" cx="46.5" cy="-1.8" r="0.6"/>
				<circle class="st1" cx="50.1" cy="-1.8" r="0.6"/>
				<circle class="st1" cx="53.7" cy="-1.8" r="0.6"/>
				<circle class="st1" cx="57.3" cy="-19.7" r="0.6"/>
				<circle class="st1" cx="60.8" cy="-19.7" r="0.6"/>
				<circle class="st1" cx="64.4" cy="-19.7" r="0.6"/>
				<circle class="st1" cx="68" cy="-19.7" r="0.6"/>
				<circle class="st1" cx="71.5" cy="-19.7" r="0.6"/>
				<circle class="st1" cx="57.3" cy="-16.1" r="0.6"/>
				<circle class="st1" cx="60.8" cy="-16.1" r="0.6"/>
				<circle class="st1" cx="64.4" cy="-16.1" r="0.6"/>
				<circle class="st1" cx="68" cy="-16.1" r="0.6"/>
				<circle class="st1" cx="71.5" cy="-16.1" r="0.6"/>
				<circle class="st1" cx="57.3" cy="-12.6" r="0.6"/>
				<circle class="st1" cx="60.8" cy="-12.6" r="0.6"/>
				<circle class="st1" cx="64.4" cy="-12.6" r="0.6"/>
				<circle class="st1" cx="68" cy="-12.6" r="0.6"/>
				<circle class="st1" cx="71.5" cy="-12.6" r="0.6"/>
				<circle class="st1" cx="57.3" cy="-9" r="0.6"/>
				<circle class="st1" cx="60.8" cy="-9" r="0.6"/>
				<circle class="st1" cx="64.4" cy="-9" r="0.6"/>
				<circle class="st1" cx="68" cy="-9" r="0.6"/>
				<circle class="st1" cx="71.5" cy="-9" r="0.6"/>
				<circle class="st1" cx="57.3" cy="-5.4" r="0.6"/>
				<circle class="st1" cx="60.8" cy="-5.4" r="0.6"/>
				<circle class="st1" cx="64.4" cy="-5.4" r="0.6"/>
				<circle class="st1" cx="68" cy="-5.4" r="0.6"/>
				<circle class="st1" cx="71.5" cy="-5.4" r="0.6"/>
				<circle class="st1" cx="57.3" cy="-1.8" r="0.6"/>
				<circle class="st1" cx="60.8" cy="-1.8" r="0.6"/>
				<circle class="st1" cx="64.4" cy="-1.8" r="0.6"/>
				<circle class="st1" cx="68" cy="-1.8" r="0.6"/>
				<circle class="st1" cx="71.5" cy="-1.8" r="0.6"/>
				<circle class="st1" cx="75.1" cy="-19.7" r="0.6"/>
				<circle class="st1" cx="78.7" cy="-19.7" r="0.6"/>
				<circle class="st1" cx="82.3" cy="-19.7" r="0.6"/>
				<circle class="st1" cx="85.8" cy="-19.7" r="0.6"/>
				<circle class="st1" cx="75.1" cy="-16.1" r="0.6"/>
				<circle class="st1" cx="78.7" cy="-16.1" r="0.6"/>
				<circle class="st1" cx="82.3" cy="-16.1" r="0.6"/>
				<circle class="st1" cx="85.8" cy="-16.1" r="0.6"/>
				<circle class="st1" cx="75.1" cy="-12.6" r="0.6"/>
				<circle class="st1" cx="78.7" cy="-12.6" r="0.6"/>
				<circle class="st1" cx="82.3" cy="-12.6" r="0.6"/>
				<circle class="st1" cx="85.8" cy="-12.6" r="0.6"/>
				<circle class="st1" cx="75.1" cy="-9" r="0.6"/>
				<circle class="st1" cx="78.7" cy="-9" r="0.6"/>
				<circle class="st1" cx="82.3" cy="-9" r="0.6"/>
				<circle class="st1" cx="85.8" cy="-9" r="0.6"/>
				<circle class="st1" cx="75.1" cy="-5.4" r="0.6"/>
				<circle class="st1" cx="78.7" cy="-5.4" r="0.6"/>
				<circle class="st1" cx="82.3" cy="-5.4" r="0.6"/>
				<circle class="st1" cx="85.8" cy="-5.4" r="0.6"/>
				<circle class="st1" cx="75.1" cy="-1.8" r="0.6"/>
				<circle class="st1" cx="78.7" cy="-1.8" r="0.6"/>
				<circle class="st1" cx="82.3" cy="-1.8" r="0.6"/>
				<circle class="st1" cx="85.8" cy="-1.8" r="0.6"/>
				<circle class="st1" cx="42.9" cy="-41.2" r="0.6"/>
				<circle class="st1" cx="42.9" cy="-37.6" r="0.6"/>
				<circle class="st1" cx="42.9" cy="-34" r="0.6"/>
				<circle class="st1" cx="42.9" cy="-30.4" r="0.6"/>
				<circle class="st1" cx="42.9" cy="-26.9" r="0.6"/>
				<circle class="st1" cx="42.9" cy="-23.3" r="0.6"/>
				<circle class="st1" cx="42.9" cy="-19.7" r="0.6"/>
				<circle class="st1" cx="42.9" cy="-16.1" r="0.6"/>
				<circle class="st1" cx="42.9" cy="-12.6" r="0.6"/>
				<circle class="st1" cx="42.9" cy="-9" r="0.6"/>
				<circle class="st1" cx="42.9" cy="-5.4" r="0.6"/>
				<circle class="st1" cx="42.9" cy="-1.8" r="0.6"/>
			</g>
			<g>
				<defs>
					<rect id="SVGID_3_" x="42.9" y="-43" width="43" height="43"/>
				</defs>
				<clipPath id="SVGID_4_">
					<use xlink:href="#SVGID_3_"  style="overflow:visible;"/>
				</clipPath>
				<circle class="st3" cx="42.9" cy="-41.2" r="0.6"/>
				<circle class="st3" cx="42.9" cy="-37.6" r="0.6"/>
				<circle class="st3" cx="42.9" cy="-34" r="0.6"/>
				<circle class="st3" cx="42.9" cy="-30.4" r="0.6"/>
				<circle class="st3" cx="42.9" cy="-26.9" r="0.6"/>
				<circle class="st3" cx="42.9" cy="-23.3" r="0.6"/>
				<circle class="st3" cx="42.9" cy="-19.7" r="0.6"/>
				<circle class="st3" cx="42.9" cy="-16.1" r="0.6"/>
				<circle class="st3" cx="42.9" cy="-12.6" r="0.6"/>
				<circle class="st3" cx="42.9" cy="-9" r="0.6"/>
				<circle class="st3" cx="42.9" cy="-5.4" r="0.6"/>
				<circle class="st3" cx="42.9" cy="-1.8" r="0.6"/>
				<circle class="st3" cx="42.8" cy="-41.2" r="0.6"/>
				<circle class="st3" cx="42.8" cy="-37.6" r="0.6"/>
				<circle class="st3" cx="42.8" cy="-34" r="0.6"/>
				<circle class="st3" cx="42.8" cy="-30.4" r="0.6"/>
				<circle class="st3" cx="42.8" cy="-26.9" r="0.6"/>
				<circle class="st3" cx="42.8" cy="-23.3" r="0.6"/>
				<circle class="st3" cx="42.8" cy="-19.7" r="0.6"/>
				<circle class="st3" cx="42.8" cy="-16.1" r="0.6"/>
				<circle class="st3" cx="42.8" cy="-12.6" r="0.6"/>
				<circle class="st3" cx="42.8" cy="-9" r="0.6"/>
				<circle class="st3" cx="42.8" cy="-5.4" r="0.6"/>
				<circle class="st3" cx="42.8" cy="-1.8" r="0.6"/>
			</g>
		</g>
		<g>
			<g>
				<circle class="st1" cx="43" cy="-41.2" r="0.6"/>
				<circle class="st1" cx="43" cy="-37.6" r="0.6"/>
				<circle class="st1" cx="43" cy="-34" r="0.6"/>
				<circle class="st1" cx="43" cy="-30.4" r="0.6"/>
				<circle class="st1" cx="43" cy="-26.9" r="0.6"/>
				<circle class="st1" cx="43" cy="-23.3" r="0.6"/>
				<circle class="st1" cx="43" cy="-19.7" r="0.6"/>
				<circle class="st1" cx="43" cy="-16.1" r="0.6"/>
				<circle class="st1" cx="43" cy="-12.6" r="0.6"/>
				<circle class="st1" cx="43" cy="-9" r="0.6"/>
				<circle class="st1" cx="43" cy="-5.4" r="0.6"/>
				<circle class="st1" cx="43" cy="-1.8" r="0.6"/>
				<circle class="st1" cx="42.9" cy="-41.2" r="0.6"/>
				<circle class="st1" cx="42.9" cy="-37.6" r="0.6"/>
				<circle class="st1" cx="42.9" cy="-34" r="0.6"/>
				<circle class="st1" cx="42.9" cy="-30.4" r="0.6"/>
				<circle class="st1" cx="42.9" cy="-26.9" r="0.6"/>
				<circle class="st1" cx="42.9" cy="-23.3" r="0.6"/>
				<circle class="st1" cx="42.9" cy="-19.7" r="0.6"/>
				<circle class="st1" cx="42.9" cy="-16.1" r="0.6"/>
				<circle class="st1" cx="42.9" cy="-12.6" r="0.6"/>
				<circle class="st1" cx="42.9" cy="-9" r="0.6"/>
				<circle class="st1" cx="42.9" cy="-5.4" r="0.6"/>
				<circle class="st1" cx="42.9" cy="-1.8" r="0.6"/>
			</g>
			<g>
				<defs>
					<rect id="SVGID_5_" y="-43" width="43" height="43"/>
				</defs>
				<clipPath id="SVGID_6_">
					<use xlink:href="#SVGID_5_"  style="overflow:visible;"/>
				</clipPath>
			</g>
		</g>
	</g>
</pattern>
<g>
	<g>
		<rect x="74.6" y="91.4" class="st4" width="106.7" height="10.6"/>
		<path class="st1" d="M181.4,102l-106.8,0.7c-0.4,0-0.7-0.3-0.7-0.7v0v0l-0.1-10.6c0-0.4,0.3-0.8,0.8-0.8l0,0
			c8.9-0.2,17.8-0.2,26.7-0.2c8.9-0.1,17.8,0,26.7,0c8.9,0,17.8,0.1,26.7,0.2c8.9,0.1,17.8,0.2,26.7,0.4l0,0c0.2,0,0.3,0.2,0.3,0.4
			v0L181.4,102z M181.3,101.9L181,91.4l0.4,0.4c-8.9,0.2-17.8,0.3-26.7,0.4c-8.9,0.1-17.8,0.2-26.7,0.2c-8.9,0-17.8,0.1-26.7,0
			c-8.9,0-17.8-0.1-26.7-0.2l0.8-0.8L75.4,102l-0.7-0.7L181.3,101.9z"/>
	</g>
	<g>
		<rect x="74.6" y="66.2" class="st4" width="106.7" height="10.6"/>
		<path class="st1" d="M181.4,76.9L74.6,77.5c-0.4,0-0.7-0.3-0.7-0.7v0v0l-0.1-10.6c0-0.4,0.3-0.8,0.8-0.8l0,0
			c8.9-0.2,17.8-0.2,26.7-0.2c8.9-0.1,17.8,0,26.7,0c8.9,0,17.8,0.1,26.7,0.2c8.9,0.1,17.8,0.2,26.7,0.4l0,0c0.2,0,0.3,0.2,0.3,0.4
			v0L181.4,76.9z M181.3,76.7L181,66.2l0.4,0.4c-8.9,0.2-17.8,0.3-26.7,0.4c-8.9,0.1-17.8,0.2-26.7,0.2c-8.9,0-17.8,0.1-26.7,0
			c-8.9,0-17.8-0.1-26.7-0.2l0.8-0.8l-0.1,10.6L74.6,76L181.3,76.7z"/>
	</g>
	<g>
		<rect x="74.6" y="41" class="st4" width="106.7" height="10.6"/>
		<path class="st1" d="M181.4,51.7L74.6,52.3c-0.4,0-0.7-0.3-0.7-0.7v0v0L73.8,41c0-0.4,0.3-0.8,0.8-0.8l0,0
			c8.9-0.2,17.8-0.2,26.7-0.2c8.9-0.1,17.8,0,26.7,0c8.9,0,17.8,0.1,26.7,0.2c8.9,0.1,17.8,0.2,26.7,0.4l0,0c0.2,0,0.3,0.2,0.3,0.4
			v0L181.4,51.7z M181.3,51.5L181,41l0.4,0.4c-8.9,0.2-17.8,0.3-26.7,0.4c-8.9,0.1-17.8,0.2-26.7,0.2c-8.9,0-17.8,0.1-26.7,0
			c-8.9,0-17.8-0.1-26.7-0.2l0.8-0.8l-0.1,10.6l-0.7-0.7L181.3,51.5z"/>
	</g>
	<g>
		<polygon class="st4" points="172.2,138.6 83.8,138.6 78.1,116.6 177.9,116.6 		"/>
		<path class="st1" d="M172.3,138.7l-88.5,0.6c-0.3,0-0.6-0.2-0.6-0.5l0,0l-5.8-22c-0.1-0.4,0.1-0.8,0.5-0.9c0.1,0,0.1,0,0.2,0l0,0
			l49.9-0.3c8.3,0,16.6,0,25,0.1c8.3,0.1,16.6,0.1,25,0.3l0,0c0.3,0,0.6,0.3,0.6,0.6c0,0,0,0.1,0,0.1
			C176.5,124.1,174.3,131.5,172.3,138.7z M172.1,138.5c1.8-7.5,3.4-14.9,5.2-22.1l0.6,0.7c-8.3,0.2-16.6,0.2-25,0.3
			c-8.3,0.1-16.6,0.1-25,0.1l-49.9-0.3l0.7-1l5.6,22.1l-0.6-0.5L172.1,138.5z"/>
	</g>
	<rect x="74.6" y="157.2" class="st5" width="15.2" height="10.3"/>
	<path class="st5" d="M182.7,116.6H73.3c-3.5,0-6.4-2.9-6.4-6.4v-1.8c0-3.5,2.9-6.4,6.4-6.4h109.4c3.5,0,6.4,2.9,6.4,6.4v1.8
		C189.1,113.7,186.2,116.6,182.7,116.6z"/>
	<path class="st5" d="M182.7,91.4H73.3c-3.5,0-6.4-2.9-6.4-6.4v-1.8c0-3.5,2.9-6.4,6.4-6.4h109.4c3.5,0,6.4,2.9,6.4,6.4V85
		C189.1,88.5,186.2,91.4,182.7,91.4z"/>
	<path class="st5" d="M182.7,66.2H73.3c-3.5,0-6.4-2.9-6.4-6.4V58c0-3.5,2.9-6.4,6.4-6.4h109.4c3.5,0,6.4,2.9,6.4,6.4v1.8
		C189.1,63.3,186.2,66.2,182.7,66.2z"/>
	<path class="st5" d="M182.7,41H73.3c-3.5,0-6.4-2.9-6.4-6.4v-1.8c0-3.5,2.9-6.4,6.4-6.4h109.4c3.5,0,6.4,2.9,6.4,6.4v1.8
		C189.1,38.2,186.2,41,182.7,41z"/>
	<rect x="120.4" y="157.2" class="st5" width="15.2" height="10.3"/>
	<rect x="166.2" y="157.2" class="st5" width="15.2" height="10.3"/>
	<rect x="74.6" y="157.2" class="st5" width="15.2" height="10.3"/>
	<path class="st5" d="M182.7,116.6H73.3c-3.5,0-6.4-2.9-6.4-6.4v-1.8c0-3.5,2.9-6.4,6.4-6.4h109.4c3.5,0,6.4,2.9,6.4,6.4v1.8
		C189.1,113.7,186.2,116.6,182.7,116.6z"/>
	<path class="st5" d="M182.7,91.4H73.3c-3.5,0-6.4-2.9-6.4-6.4v-1.8c0-3.5,2.9-6.4,6.4-6.4h109.4c3.5,0,6.4,2.9,6.4,6.4V85
		C189.1,88.5,186.2,91.4,182.7,91.4z"/>
	<path class="st5" d="M182.7,66.2H73.3c-3.5,0-6.4-2.9-6.4-6.4V58c0-3.5,2.9-6.4,6.4-6.4h109.4c3.5,0,6.4,2.9,6.4,6.4v1.8
		C189.1,63.3,186.2,66.2,182.7,66.2z"/>
	<path class="st5" d="M182.7,41H73.3c-3.5,0-6.4-2.9-6.4-6.4v-1.8c0-3.5,2.9-6.4,6.4-6.4h109.4c3.5,0,6.4,2.9,6.4,6.4v1.8
		C189.1,38.2,186.2,41,182.7,41z"/>
	<rect x="120.4" y="157.2" class="st5" width="15.2" height="10.3"/>
	<rect x="166.2" y="157.2" class="st5" width="15.2" height="10.3"/>
	<rect x="74.6" y="138.6" class="st5" width="106.7" height="10.6"/>
	<g>
		<pattern  id="SVGID_7_" xlink:href="#New_Pattern_Swatch_1" patternTransform="matrix(1 0 0 1 14.4 0.3153)">
		</pattern>
		<rect x="74.6" y="138.6" class="st6" width="106.7" height="10.6"/>
		<path class="st1" d="M181.4,149.2l-106.8,0.7c-0.4,0-0.7-0.3-0.7-0.7v0v0l-0.1-10.6c0-0.4,0.3-0.8,0.8-0.8l0,0
			c8.9-0.2,17.8-0.2,26.7-0.2c8.9-0.1,17.8,0,26.7,0c8.9,0,17.8,0.1,26.7,0.2c8.9,0.1,17.8,0.2,26.7,0.4l0,0c0.2,0,0.3,0.2,0.3,0.4
			v0L181.4,149.2z M181.3,149.1l-0.3-10.5l0.4,0.4c-8.9,0.2-17.8,0.3-26.7,0.4c-8.9,0.1-17.8,0.2-26.7,0.2c-8.9,0-17.8,0.1-26.7,0
			c-8.9,0-17.8-0.1-26.7-0.2l0.8-0.8l-0.1,10.6l-0.7-0.7L181.3,149.1z"/>
	</g>
	<g>
		<pattern  id="SVGID_8_" xlink:href="#New_Pattern_Swatch_1" patternTransform="matrix(1 0 0 1 14.4 0.3153)">
		</pattern>
		<rect x="74.6" y="157.2" class="st7" width="15.2" height="10.3"/>
		<path class="st1" d="M90.3,167.9l-7.8,0.1l-3.9,0c-1.3,0-2.6,0-3.9,0.1c-0.3,0-0.5-0.2-0.6-0.5l0,0l0,0l-0.2-10.3
			c0-0.4,0.3-0.8,0.8-0.8l0,0c2.5-0.1,5.1-0.1,7.6-0.1l3.8,0c1.3,0,2.5,0,3.8,0.1l0.1,0c0.5,0,0.8,0.4,0.8,0.9
			C90.6,160.8,90.4,164.5,90.3,167.9z M89.3,167c-0.2-3.4-0.4-6.6-0.5-9.8l0.9,0.9c-1.3,0.1-2.5,0.1-3.8,0.1l-3.8,0
			c-2.5,0-5.1-0.1-7.6-0.1l0.8-0.8l-0.2,10.3l-0.6-0.6c1.2,0.1,2.5,0.1,3.7,0.1l3.7,0L89.3,167z"/>
	</g>
	<g>
		<pattern  id="SVGID_9_" xlink:href="#New_Pattern_Swatch_1" patternTransform="matrix(1 0 0 1 14.4 0.3153)">
		</pattern>
		<path class="st8" d="M182.7,91.4H73.3c-3.5,0-6.4-2.9-6.4-6.4v-1.8c0-3.5,2.9-6.4,6.4-6.4h109.4c3.5,0,6.4,2.9,6.4,6.4V85
			C189.1,88.5,186.2,91.4,182.7,91.4z"/>
		<path class="st1" d="M182.7,91.7l-32.8,0l-32.8,0.1L84.2,92l-8.2,0l-2.1,0c-0.7,0-1.4,0-2.2-0.2c-1.5-0.3-2.9-1.1-3.9-2.3
			c-1-1.1-1.6-2.6-1.7-4.1c-0.1-0.8,0-1.4,0-2.1c0-0.7,0-1.5,0.3-2.2c0.8-3,3.7-5.2,6.9-5.2l32.8-0.2l32.8,0l16.4,0.1l16.4,0.2
			l8.2,0.1l2.1,0c0.7,0,1.4,0,2.2,0.2c1.4,0.3,2.8,1.1,3.7,2.3c1,1.1,1.5,2.5,1.6,4c0,0.7,0,1.4,0,2.1c0,0.7-0.1,1.5-0.3,2.1
			C188.4,89.7,185.6,91.8,182.7,91.7z M182.7,91c2.6,0,5.1-1.9,5.7-4.3c0.2-0.6,0.2-1.2,0.2-1.9c0-0.7,0-1.4,0-2
			c-0.1-1.3-0.6-2.5-1.5-3.4c-0.8-1-2-1.6-3.2-1.9c-0.6-0.1-1.2-0.1-1.9-0.1l-2.1,0l-8.2,0.1l-16.4,0.2l-16.4,0.1l-32.8,0l-32.8-0.2
			c-2.4,0-4.7,1.7-5.4,4c-0.2,0.6-0.2,1.2-0.2,1.8c0,0.7,0,1.4,0,2c0.1,1.2,0.6,2.4,1.3,3.3c0.8,0.9,1.9,1.6,3.1,1.8
			c0.6,0.1,1.2,0.1,1.9,0.1l2.1,0l8.2,0l32.8,0.2l32.8,0.1L182.7,91z"/>
	</g>
	<g>
		<pattern  id="SVGID_10_" xlink:href="#New_Pattern_Swatch_1" patternTransform="matrix(1 0 0 1 14.4 0.3153)">
		</pattern>
		<path class="st9" d="M182.7,66.2H73.3c-3.5,0-6.4-2.9-6.4-6.4V58c0-3.5,2.9-6.4,6.4-6.4h109.4c3.5,0,6.4,2.9,6.4,6.4v1.8
			C189.1,63.3,186.2,66.2,182.7,66.2z"/>
		<path class="st1" d="M182.7,66.6l-32.8,0l-32.8,0.1l-32.8,0.2l-8.2,0l-2.1,0c-0.7,0-1.4,0-2.2-0.2c-1.5-0.3-2.9-1.1-3.9-2.3
			c-1-1.1-1.6-2.6-1.7-4.1c-0.1-0.8,0-1.4,0-2.1c0-0.7,0-1.5,0.3-2.2c0.8-3,3.7-5.2,6.9-5.2l32.8-0.2l32.8,0l16.4,0.1l16.4,0.2
			L180,51l2.1,0c0.7,0,1.4,0,2.2,0.2c1.4,0.3,2.8,1.1,3.7,2.3c1,1.1,1.5,2.5,1.6,4c0,0.7,0,1.4,0,2.1c0,0.7-0.1,1.5-0.3,2.1
			C188.4,64.6,185.6,66.6,182.7,66.6z M182.7,65.8c2.6,0,5-1.9,5.7-4.3c0.2-0.6,0.2-1.2,0.2-1.9c0-0.7,0-1.4,0-2
			c-0.1-1.3-0.6-2.5-1.5-3.4c-0.8-1-2-1.6-3.2-1.9c-0.6-0.1-1.2-0.1-1.9-0.1l-2.1,0l-8.2,0.1l-16.4,0.2l-16.4,0.1l-32.8,0l-32.8-0.2
			c-2.4,0-4.7,1.7-5.4,4c-0.2,0.6-0.2,1.2-0.2,1.8c0,0.7,0,1.4,0,2c0.1,1.2,0.6,2.4,1.3,3.3c0.8,0.9,1.9,1.6,3.1,1.8
			c0.6,0.1,1.2,0.1,1.9,0.1l2.1,0l8.2,0l32.8,0.1l32.8,0.1L182.7,65.8z"/>
	</g>
	<g>
		<pattern  id="SVGID_11_" xlink:href="#New_Pattern_Swatch_1" patternTransform="matrix(1 0 0 1 14.4 0.3153)">
		</pattern>
		<path class="st10" d="M182.7,41H73.3c-3.5,0-6.4-2.9-6.4-6.4v-1.8c0-3.5,2.9-6.4,6.4-6.4h109.4c3.5,0,6.4,2.9,6.4,6.4v1.8
			C189.1,38.2,186.2,41,182.7,41z"/>
		<path class="st1" d="M182.7,41.4l-32.8,0l-32.8,0.1l-32.8,0.1l-8.2,0l-2.1,0c-0.7,0-1.4,0-2.2-0.2c-1.5-0.3-2.9-1.1-3.9-2.3
			c-1-1.1-1.6-2.6-1.7-4.1c-0.1-0.8,0-1.4,0-2.1c0-0.7,0-1.5,0.3-2.2c0.8-3,3.7-5.2,6.9-5.2l32.8-0.2l32.8,0l16.4,0.1l16.4,0.2
			l8.2,0.1l2.1,0c0.7,0,1.4,0,2.2,0.2c1.4,0.3,2.8,1.1,3.7,2.3c1,1.1,1.6,2.5,1.6,4c0,0.7,0,1.4,0,2.1c0,0.7-0.1,1.5-0.3,2.2
			C188.5,39.4,185.6,41.5,182.7,41.4z M182.7,40.6c2.6,0,5-1.9,5.7-4.3c0.2-0.6,0.2-1.2,0.2-1.9c0-0.7,0-1.4,0-2
			c-0.1-1.3-0.6-2.5-1.5-3.4c-0.8-1-2-1.6-3.2-1.9c-0.6-0.1-1.2-0.1-1.9-0.1l-2.1,0l-8.2,0.1l-16.4,0.2l-16.4,0.1l-32.8,0l-32.8-0.2
			c-2.4,0-4.7,1.7-5.4,4c-0.2,0.6-0.2,1.2-0.2,1.8c0,0.7,0,1.4,0,2c0.1,1.2,0.6,2.4,1.3,3.3c0.8,0.9,1.9,1.6,3.1,1.8
			c0.6,0.1,1.2,0.1,1.9,0.1l2.1,0l8.2,0l32.8,0.2l32.8,0.1L182.7,40.6z"/>
	</g>
	<g>
		<pattern  id="SVGID_12_" xlink:href="#New_Pattern_Swatch_1" patternTransform="matrix(1 0 0 1 14.4 0.3153)">
		</pattern>
		<rect x="120.4" y="157.2" class="st11" width="15.2" height="10.3"/>
		<path class="st1" d="M135.9,167.8l-7.7,0.1c-2.6,0.1-5.2,0-7.8,0.1c-0.3,0-0.5-0.2-0.6-0.5v0l0,0l-0.2-10.3c0-0.4,0.3-0.8,0.8-0.8
			l0,0c2.5-0.1,5.1-0.1,7.6-0.1l3.8,0c1.3,0,2.5,0,3.8,0.1l0.1,0c0.5,0,0.8,0.4,0.8,0.9C136.3,160.8,136.1,164.4,135.9,167.8z
			 M135.3,167.2l-0.6-10l0.9,0.9c-1.3,0.1-2.5,0.1-3.8,0.1l-3.8,0c-2.5,0-5.1-0.1-7.6-0.1l0.8-0.8l-0.2,10.3l-0.6-0.6
			c2.5,0.1,4.9,0.1,7.4,0.1L135.3,167.2z"/>
	</g>
	<g>
		<pattern  id="SVGID_13_" xlink:href="#New_Pattern_Swatch_1" patternTransform="matrix(1 0 0 1 14.4 0.3153)">
		</pattern>
		<rect x="166.2" y="157.2" class="st12" width="15.2" height="10.3"/>
		<path class="st1" d="M181.6,167.8l-7.7,0.1c-2.6,0.1-5.2,0-7.8,0.1c-0.3,0-0.5-0.2-0.6-0.5v0l0,0l-0.2-10.3c0-0.4,0.3-0.8,0.8-0.8
			l0,0c2.5-0.1,5.1-0.1,7.6-0.1l3.8,0c1.3,0,2.5,0,3.8,0.1l0.1,0c0.5,0,0.8,0.4,0.8,0.9C182.1,160.8,181.8,164.4,181.6,167.8z
			 M181.1,167.2l-0.6-10l0.9,0.9c-1.3,0.1-2.5,0.1-3.8,0.1l-3.8,0c-2.5,0-5.1-0.1-7.6-0.1l0.8-0.8l-0.2,10.3l-0.6-0.6
			c2.5,0.1,4.9,0.1,7.4,0.1L181.1,167.2z"/>
	</g>
	<g>
		<pattern  id="SVGID_14_" xlink:href="#New_Pattern_Swatch_1" patternTransform="matrix(1 0 0 1 14.4 0.3153)">
		</pattern>
		<path class="st13" d="M182.7,116.6H73.3c-3.5,0-6.4-2.9-6.4-6.4v-1.8c0-3.5,2.9-6.4,6.4-6.4h109.4c3.5,0,6.4,2.9,6.4,6.4v1.8
			C189.1,113.7,186.2,116.6,182.7,116.6z"/>
		<path class="st1" d="M182.7,117.1l-65.6-0.1l-32.8,0.1l-8.2,0l-2.1,0c-0.7,0-1.4,0-2.2-0.1c-1.5-0.3-2.9-1.1-3.9-2.3
			c-1-1.1-1.6-2.6-1.7-4.1c-0.1-0.8,0-1.4,0-2.1c0-0.7,0-1.5,0.3-2.2c0.8-3,3.7-5.2,6.8-5.2l32.8-0.2l32.8,0l32.8,0.2l8.2,0.1l2.1,0
			c0.6,0,1.5,0,2.2,0.2c1.5,0.3,2.9,1.1,3.8,2.3c1,1.1,1.6,2.6,1.7,4.1c0,0.8,0,1.4,0,2.1c0,0.7-0.1,1.5-0.3,2.2
			C188.6,115.1,185.7,117.2,182.7,117.1z M182.7,116c2.5,0,4.9-1.8,5.5-4.2c0.2-0.6,0.2-1.2,0.2-1.8c0-0.7,0-1.4,0-2
			c-0.1-1.2-0.6-2.4-1.4-3.3c-0.8-0.9-1.9-1.5-3.1-1.8c-0.6-0.1-1.2-0.1-1.9-0.1l-2.1,0l-8.2,0.1l-32.8,0.2l-32.8,0l-32.8-0.2
			c-2.4,0-4.7,1.7-5.4,4c-0.2,0.6-0.2,1.2-0.2,1.8c0,0.7,0,1.4,0,2c0.1,1.2,0.6,2.4,1.3,3.3c0.8,0.9,1.9,1.6,3.1,1.8
			c0.6,0.1,1.2,0.1,1.9,0.1l2.1,0l8.2,0l32.8,0.1L182.7,116z"/>
	</g>
	<g>
		<path class="st14" d="M219.4,251.6H36.6c-3.7,0-6.6-3-6.6-6.6v-1.9c0-3.7,3-6.6,6.6-6.6h182.8c3.7,0,6.6,3,6.6,6.6v1.9
			C226,248.6,223,251.6,219.4,251.6z"/>
		<path class="st1" d="M219.4,251.7c-34.2-0.1-68.5,0.2-102.7,0.4l-51.4,0.1l-25.7,0.1c-1.1,0-2.1,0-3.2,0c-1.2,0-2.4-0.4-3.4-1
			c-2.1-1.2-3.5-3.4-3.7-5.8c0-0.6,0-1.1,0-1.7l0-0.8c0-0.3,0-0.6,0.1-0.9c0.1-1.2,0.6-2.3,1.2-3.3c0.7-1,1.6-1.8,2.7-2.4
			c1.1-0.6,2.3-0.9,3.5-0.9l51.4-0.2l51.4,0l25.7,0.2l25.7,0.3l25.7,0.3c1.1,0,2.1,0,3.2,0c1.1,0.1,2.2,0.4,3.2,0.9
			c1.9,1.1,3.2,3.2,3.4,5.4c0,0.6,0,1.1,0,1.6c0,0.5,0,1.1-0.1,1.6c-0.1,1.1-0.5,2.1-1.2,3c-0.6,0.9-1.5,1.6-2.4,2.1
			C221.5,251.4,220.5,251.7,219.4,251.7z M219.4,251.5c2.1,0,4.2-1.1,5.3-2.9c0.6-0.9,1-1.9,1.1-2.9c0.1-0.5,0-1,0-1.6
			c0-0.5,0-1.1,0-1.6c-0.2-2.1-1.4-4-3.2-5c-0.9-0.5-1.9-0.8-3-0.8c-1.1,0-2.1,0-3.2,0l-25.7,0.3l-25.7,0.3l-25.7,0.2l-51.4,0
			l-51.4-0.2c-1.9,0-3.7,1-4.8,2.5c-0.5,0.8-0.9,1.7-1,2.6c0,0.2,0,0.5,0,0.7l0,0.8c0,0.5,0,1.1,0,1.5c0.1,1.9,1.3,3.7,2.9,4.6
			c0.8,0.5,1.8,0.7,2.7,0.8c1,0,2.1,0,3.2,0l25.7,0.1l51.4,0.2C150.9,251.3,185.1,251.6,219.4,251.5z"/>
	</g>
	<g>
		<path class="st4" d="M106.6,4.4h42.9c13.4,0,25.1,9.1,28.5,22l0,0H78.1v0C81.4,13.4,93.2,4.4,106.6,4.4z"/>
		<path class="st1" d="M106.6,4.3l13.8,0l13.8-0.1L147.8,4c2.3-0.1,4.6,0,6.9,0.4c2.3,0.4,4.5,1.1,6.7,2c2.1,1,4.2,2.1,6,3.5
			c1.8,1.4,3.6,3,5.1,4.8c1.5,1.8,2.8,3.8,3.8,5.9c0.6,1,0.9,2.1,1.4,3.2l0.5,1.7l0.1,0.4l0.1,0.2l0,0.1c-1.2,1.6-0.4,0.5-0.7,0.8
			l-0.1,0l-0.9,0l-27.5,0.1c-18.4,0.1-36.7,0.3-55.1,0.2l-13.8-0.2l-1.7,0l-0.4,0l-0.2,0l-0.1,0l-0.1,0c0.1,0.2-1.5-1.9-0.8-1
			l0.3-0.8c0.2-0.6,0.4-1.1,0.6-1.7l0.7-1.6c1-2.1,2.1-4.2,3.6-6C88.1,8.6,97.3,4.2,106.6,4.3z M106.6,4.5
			c-4.6,0.1-9.1,1.2-13.1,3.3c-2,1.1-3.9,2.3-5.6,3.9c-0.9,0.7-1.6,1.6-2.4,2.4c-0.7,0.9-1.5,1.7-2.1,2.7c-1.3,1.8-2.4,3.8-3.2,5.9
			l-0.6,1.6c-0.2,0.5-0.3,1.1-0.5,1.6l-0.2,0.8c0.7,0.9-0.9-1.2-0.7-1l0.1,0l0.1,0l0.2,0l0.4,0l1.7,0l13.8-0.2
			c18.4-0.1,36.7,0.1,55.1,0.2l27.5,0.1l0.9,0l0.1,0c-0.3,0.4,0.7-0.8-0.6,0.8l0-0.1l-0.1-0.2l-0.1-0.4l-0.5-1.6
			c-0.4-1-0.8-2.1-1.3-3.1c-0.9-2-2.2-3.9-3.6-5.7c-1.4-1.8-3.1-3.3-4.8-4.7c-1.8-1.4-3.8-2.5-5.8-3.5c-2.1-0.9-4.2-1.6-6.4-2
			c-2.2-0.4-4.5-0.6-6.8-0.5l-13.8-0.1l-13.8-0.1L106.6,4.5z"/>
	</g>
	<g>
		<rect x="41.4" y="149.2" class="st15" width="173.1" height="87.3"/>
		<path class="st1" d="M214.6,236.5L41.4,237c-0.3,0-0.6-0.3-0.6-0.6v0l-0.2-87.3c0-0.4,0.4-0.8,0.8-0.8l0,0l43.3-0.2l43.3,0l43.3,0
			l43.3,0.2l0,0c0.5,0,0.8,0.4,0.8,0.8c0,14.6-0.2,29.3-0.3,43.8L214.6,236.5z M214.5,236.4l-0.4-43.8c-0.1-14.5-0.3-29-0.3-43.4
			l0.8,0.8l-43.3,0.2l-43.3,0l-43.3,0L41.4,150l0.8-0.8L42,236.4l-0.6-0.6L214.5,236.4z"/>
	</g>
	<g>
		<rect x="52.4" y="174" class="st4" width="151.2" height="62.5"/>
		<path class="st1" d="M203.6,236.5l-151.2,0.6c-0.3,0-0.6-0.3-0.6-0.6l0,0L51.6,174c0-0.4,0.4-0.8,0.8-0.8l0,0
			c12.6-0.1,25.2-0.2,37.8-0.2l37.8,0l37.8,0.1l37.8,0.2l0,0c0.4,0,0.8,0.3,0.8,0.8v0l-0.3,31.4L203.6,236.5z M203.5,236.4
			l-0.4-31.4l-0.3-31l0.8,0.8l-37.8,0.2L128,175l-37.8,0c-12.6,0-25.2-0.1-37.8-0.2l0.8-0.8L53,236.4l-0.6-0.6L203.5,236.4z"/>
	</g>
	<polygon class="st5" points="137.5,236.4 118.5,236.4 110.5,204.3 146,204.3 	"/>
	<g>
		<pattern  id="SVGID_15_" xlink:href="#New_Pattern_Swatch_1" patternTransform="matrix(1 0 0 1 14.4 0.3153)">
		</pattern>
		<polygon class="st16" points="137.5,236.4 118.5,236.4 110.5,204.3 146,204.3 		"/>
		<g>
			<path class="st1" d="M137.6,236.5l-19.1,0.3c-0.2,0-0.3-0.1-0.3-0.3l0,0l-8.4-32.1c-0.1-0.4,0.1-0.8,0.5-0.9c0.1,0,0.1,0,0.2,0
				l0,0l17.8-0.2c5.9-0.1,11.8-0.2,17.8-0.1l0,0c0.6,0,1,0.5,1,1c0,0.1,0,0.2,0,0.2c-0.7,2.7-1.5,5.4-2.3,8.2l-2.3,8.1l-2.4,8
				L137.6,236.5z M137.4,236.4l1.8-8.3l1.9-8.1l1.9-8c0.6-2.7,1.3-5.3,2-7.9l1,1.3c-5.9,0.1-11.8,0-17.8-0.1l-17.8-0.2l0.7-0.9
				l7.6,32.3l-0.3-0.3L137.4,236.4z"/>
		</g>
	</g>
	<g>
		<polygon class="st17" points="135.4,195 120.6,195 110.2,174 145.8,174 		"/>
		<path class="st1" d="M135.5,195.1l-14.9,0.3c-0.1,0-0.2-0.1-0.3-0.2l0,0l-10.7-20.9c-0.2-0.3,0-0.7,0.3-0.9c0.1,0,0.2-0.1,0.3-0.1
			l0,0l17.8-0.2l8.9-0.1c3,0,5.9,0,8.9,0l0,0c0.5,0,1,0.4,1,1c0,0.2,0,0.3-0.1,0.4c-1.9,3.5-3.7,7.1-5.6,10.5
			C139.3,188.4,137.4,191.8,135.5,195.1z M135.4,194.9c1.6-3.7,3.2-7.3,4.7-10.9c1.6-3.6,3.2-7,4.8-10.5l0.9,1.4c-3,0-5.9,0.1-8.9,0
			l-8.9-0.1l-17.8-0.2l0.6-1l10.1,21.2l-0.3-0.2L135.4,194.9z"/>
	</g>
	<g>
		<polygon class="st17" points="89.7,195 74.8,195 64.4,174 100.1,174 		"/>
		<path class="st1" d="M89.7,195.1l-14.9,0.3c-0.1,0-0.2-0.1-0.3-0.2l0,0l-10.7-20.9c-0.2-0.3,0-0.7,0.3-0.9c0.1,0,0.2-0.1,0.3-0.1
			l0,0l17.8-0.2l8.9-0.1c3,0,5.9,0,8.9,0l0,0c0.5,0,1,0.4,1,1c0,0.2,0,0.3-0.1,0.4c-1.9,3.5-3.7,7.1-5.6,10.5
			C93.5,188.4,91.6,191.8,89.7,195.1z M89.6,194.9c1.6-3.7,3.2-7.3,4.7-10.9c1.6-3.6,3.2-7,4.8-10.5l0.9,1.4c-3,0-5.9,0.1-8.9,0
			l-8.9-0.1l-17.8-0.2l0.6-1l10.1,21.2l-0.3-0.2L89.6,194.9z"/>
	</g>
	<g>
		<polygon class="st17" points="181.2,195 166.3,195 155.9,174 191.6,174 		"/>
		<path class="st1" d="M181.3,195.1l-14.9,0.3c-0.1,0-0.2-0.1-0.3-0.2l0,0l-10.7-20.9c-0.2-0.3,0-0.7,0.3-0.9c0.1,0,0.2-0.1,0.3-0.1
			l0,0l17.8-0.2l8.9-0.1c3,0,5.9,0,8.9,0l0,0c0.5,0,1,0.4,1,1c0,0.2,0,0.3-0.1,0.4c-1.9,3.5-3.7,7.1-5.6,10.5
			C185,188.4,183.2,191.8,181.3,195.1z M181.2,194.9c1.6-3.7,3.2-7.3,4.7-10.9c1.6-3.6,3.2-7,4.8-10.5l0.9,1.4c-3,0-5.9,0.1-8.9,0
			l-8.9-0.1l-17.8-0.2l0.6-1l10.1,21.2l-0.3-0.2L181.2,194.9z"/>
	</g>
	<g>
		<path class="st1" d="M41.4,243.9l43.3-0.4l43.3-0.3c14.4-0.1,28.9-0.3,43.3-0.2c14.4,0.2,28.9,0.3,43.3,0.9c0.1,0,0.1,0,0.1,0.1
			c0,0.1,0,0.1-0.1,0.1c-14.4,0.6-28.9,0.7-43.3,0.9c-14.4,0.1-28.9-0.1-43.3-0.2l-43.3-0.3l-43.3-0.4
			C41.4,244.1,41.3,244.1,41.4,243.9C41.3,244,41.4,243.9,41.4,243.9z"/>
	</g>
	<polygon class="st18" points="176.6,121.6 177.9,116.6 78.1,116.6 79.4,121.6 	"/>
	<rect x="74.6" y="91.4" class="st18" width="106.7" height="5"/>
	<rect x="74.6" y="66.2" class="st18" width="106.7" height="5"/>
	<rect x="74.6" y="41" class="st18" width="106.7" height="5"/>
</g>
</svg>
