<?xml version="1.0" encoding="utf-8"?>
<!-- Generator: Adobe Illustrator 22.1.0, SVG Export Plug-In . SVG Version: 6.00 Build 0)  -->
<svg version="1.1" id="Layer_1" xmlns="http://www.w3.org/2000/svg" xmlns:xlink="http://www.w3.org/1999/xlink" x="0px" y="0px"
	 viewBox="0 0 256 256" style="enable-background:new 0 0 256 256;" xml:space="preserve">
<style type="text/css">
	.st0{fill:none;}
	.st1{fill:#253759;}
	.st2{clip-path:url(#SVGID_2_);fill:#253759;}
	.st3{clip-path:url(#SVGID_4_);fill:#253759;}
	.st4{fill:#FFFFFF;}
	.st5{fill:#A6D6FF;}
	.st6{fill:url(#New_Pattern_Swatch_1);}
	.st7{opacity:0.3;fill:#253759;}
	.st8{fill:url(#SVGID_7_);}
	.st9{fill:url(#SVGID_8_);}
	.st10{fill:url(#SVGID_9_);}
	.st11{fill:url(#SVGID_10_);}
</style>
<pattern  x="-2208" y="-828" width="42.9" height="43" patternUnits="userSpaceOnUse" id="New_Pattern_Swatch_1" viewBox="43 -43 42.9 43" style="overflow:visible;">
	<g>
		<rect x="43" y="-43" class="st0" width="42.9" height="43"/>
		<g>
			<g>
				<circle class="st1" cx="85.9" cy="-41.2" r="0.6"/>
				<circle class="st1" cx="85.9" cy="-37.6" r="0.6"/>
				<circle class="st1" cx="85.9" cy="-34" r="0.6"/>
				<circle class="st1" cx="85.9" cy="-30.4" r="0.6"/>
				<circle class="st1" cx="85.9" cy="-26.9" r="0.6"/>
				<circle class="st1" cx="85.9" cy="-23.3" r="0.6"/>
				<circle class="st1" cx="85.9" cy="-19.7" r="0.6"/>
				<circle class="st1" cx="85.9" cy="-16.1" r="0.6"/>
				<circle class="st1" cx="85.9" cy="-12.6" r="0.6"/>
				<circle class="st1" cx="85.9" cy="-9" r="0.6"/>
				<circle class="st1" cx="85.9" cy="-5.4" r="0.6"/>
				<circle class="st1" cx="85.9" cy="-1.8" r="0.6"/>
				<circle class="st1" cx="85.8" cy="-41.2" r="0.6"/>
				<circle class="st1" cx="85.8" cy="-37.6" r="0.6"/>
				<circle class="st1" cx="85.8" cy="-34" r="0.6"/>
				<circle class="st1" cx="85.8" cy="-30.4" r="0.6"/>
				<circle class="st1" cx="85.8" cy="-26.9" r="0.6"/>
				<circle class="st1" cx="85.8" cy="-23.3" r="0.6"/>
				<circle class="st1" cx="85.8" cy="-19.7" r="0.6"/>
				<circle class="st1" cx="85.8" cy="-16.1" r="0.6"/>
				<circle class="st1" cx="85.8" cy="-12.6" r="0.6"/>
				<circle class="st1" cx="85.8" cy="-9" r="0.6"/>
				<circle class="st1" cx="85.8" cy="-5.4" r="0.6"/>
				<circle class="st1" cx="85.8" cy="-1.8" r="0.6"/>
			</g>
			<g>
				<defs>
					<rect id="SVGID_1_" x="85.8" y="-43" width="43" height="43"/>
				</defs>
				<clipPath id="SVGID_2_">
					<use xlink:href="#SVGID_1_"  style="overflow:visible;"/>
				</clipPath>
				<circle class="st2" cx="85.8" cy="-41.2" r="0.6"/>
				<circle class="st2" cx="85.8" cy="-37.6" r="0.6"/>
				<circle class="st2" cx="85.8" cy="-34" r="0.6"/>
				<circle class="st2" cx="85.8" cy="-30.4" r="0.6"/>
				<circle class="st2" cx="85.8" cy="-26.9" r="0.6"/>
				<circle class="st2" cx="85.8" cy="-23.3" r="0.6"/>
				<circle class="st2" cx="85.8" cy="-19.7" r="0.6"/>
				<circle class="st2" cx="85.8" cy="-16.1" r="0.6"/>
				<circle class="st2" cx="85.8" cy="-12.6" r="0.6"/>
				<circle class="st2" cx="85.8" cy="-9" r="0.6"/>
				<circle class="st2" cx="85.8" cy="-5.4" r="0.6"/>
				<circle class="st2" cx="85.8" cy="-1.8" r="0.6"/>
				<circle class="st2" cx="85.7" cy="-41.2" r="0.6"/>
				<circle class="st2" cx="85.7" cy="-37.6" r="0.6"/>
				<circle class="st2" cx="85.7" cy="-34" r="0.6"/>
				<circle class="st2" cx="85.7" cy="-30.4" r="0.6"/>
				<circle class="st2" cx="85.7" cy="-26.9" r="0.6"/>
				<circle class="st2" cx="85.7" cy="-23.3" r="0.6"/>
				<circle class="st2" cx="85.7" cy="-19.7" r="0.6"/>
				<circle class="st2" cx="85.7" cy="-16.1" r="0.6"/>
				<circle class="st2" cx="85.7" cy="-12.6" r="0.6"/>
				<circle class="st2" cx="85.7" cy="-9" r="0.6"/>
				<circle class="st2" cx="85.7" cy="-5.4" r="0.6"/>
				<circle class="st2" cx="85.7" cy="-1.8" r="0.6"/>
			</g>
		</g>
		<g>
			<g>
				<circle class="st1" cx="85.9" cy="-41.2" r="0.6"/>
				<circle class="st1" cx="85.9" cy="-37.6" r="0.6"/>
				<circle class="st1" cx="85.9" cy="-34" r="0.6"/>
				<circle class="st1" cx="85.9" cy="-30.4" r="0.6"/>
				<circle class="st1" cx="85.9" cy="-26.9" r="0.6"/>
				<circle class="st1" cx="85.9" cy="-23.3" r="0.6"/>
				<circle class="st1" cx="85.9" cy="-19.7" r="0.6"/>
				<circle class="st1" cx="85.9" cy="-16.1" r="0.6"/>
				<circle class="st1" cx="85.9" cy="-12.6" r="0.6"/>
				<circle class="st1" cx="85.9" cy="-9" r="0.6"/>
				<circle class="st1" cx="85.9" cy="-5.4" r="0.6"/>
				<circle class="st1" cx="85.9" cy="-1.8" r="0.6"/>
				<circle class="st1" cx="43" cy="-41.2" r="0.6"/>
				<circle class="st1" cx="46.5" cy="-41.2" r="0.6"/>
				<circle class="st1" cx="50.1" cy="-41.2" r="0.6"/>
				<circle class="st1" cx="53.7" cy="-41.2" r="0.6"/>
				<circle class="st1" cx="43" cy="-37.6" r="0.6"/>
				<circle class="st1" cx="46.5" cy="-37.6" r="0.6"/>
				<circle class="st1" cx="50.1" cy="-37.6" r="0.6"/>
				<circle class="st1" cx="53.7" cy="-37.6" r="0.6"/>
				<circle class="st1" cx="43" cy="-34" r="0.6"/>
				<circle class="st1" cx="46.5" cy="-34" r="0.6"/>
				<circle class="st1" cx="50.1" cy="-34" r="0.6"/>
				<circle class="st1" cx="53.7" cy="-34" r="0.6"/>
				<circle class="st1" cx="43" cy="-30.4" r="0.6"/>
				<circle class="st1" cx="46.5" cy="-30.4" r="0.6"/>
				<circle class="st1" cx="50.1" cy="-30.4" r="0.6"/>
				<circle class="st1" cx="53.7" cy="-30.4" r="0.6"/>
				<circle class="st1" cx="43" cy="-26.9" r="0.6"/>
				<circle class="st1" cx="46.5" cy="-26.9" r="0.6"/>
				<circle class="st1" cx="50.1" cy="-26.9" r="0.6"/>
				<circle class="st1" cx="53.7" cy="-26.9" r="0.6"/>
				<circle class="st1" cx="43" cy="-23.3" r="0.6"/>
				<circle class="st1" cx="46.5" cy="-23.3" r="0.6"/>
				<circle class="st1" cx="50.1" cy="-23.3" r="0.6"/>
				<circle class="st1" cx="53.7" cy="-23.3" r="0.6"/>
				<circle class="st1" cx="57.3" cy="-41.2" r="0.6"/>
				<circle class="st1" cx="60.8" cy="-41.2" r="0.6"/>
				<circle class="st1" cx="64.4" cy="-41.2" r="0.6"/>
				<circle class="st1" cx="68" cy="-41.2" r="0.6"/>
				<circle class="st1" cx="71.5" cy="-41.2" r="0.6"/>
				<circle class="st1" cx="57.3" cy="-37.6" r="0.6"/>
				<circle class="st1" cx="60.8" cy="-37.6" r="0.6"/>
				<circle class="st1" cx="64.4" cy="-37.6" r="0.6"/>
				<circle class="st1" cx="68" cy="-37.6" r="0.6"/>
				<circle class="st1" cx="71.5" cy="-37.6" r="0.6"/>
				<circle class="st1" cx="57.3" cy="-34" r="0.6"/>
				<circle class="st1" cx="60.8" cy="-34" r="0.6"/>
				<circle class="st1" cx="64.4" cy="-34" r="0.6"/>
				<circle class="st1" cx="68" cy="-34" r="0.6"/>
				<circle class="st1" cx="71.5" cy="-34" r="0.6"/>
				<circle class="st1" cx="57.3" cy="-30.4" r="0.6"/>
				<circle class="st1" cx="60.8" cy="-30.4" r="0.6"/>
				<circle class="st1" cx="64.4" cy="-30.4" r="0.6"/>
				<circle class="st1" cx="68" cy="-30.4" r="0.6"/>
				<circle class="st1" cx="71.5" cy="-30.4" r="0.6"/>
				<circle class="st1" cx="57.3" cy="-26.9" r="0.6"/>
				<circle class="st1" cx="60.8" cy="-26.9" r="0.6"/>
				<circle class="st1" cx="64.4" cy="-26.9" r="0.6"/>
				<circle class="st1" cx="68" cy="-26.9" r="0.6"/>
				<circle class="st1" cx="71.5" cy="-26.9" r="0.6"/>
				<circle class="st1" cx="57.3" cy="-23.3" r="0.6"/>
				<circle class="st1" cx="60.8" cy="-23.3" r="0.6"/>
				<circle class="st1" cx="64.4" cy="-23.3" r="0.6"/>
				<circle class="st1" cx="68" cy="-23.3" r="0.6"/>
				<circle class="st1" cx="71.5" cy="-23.3" r="0.6"/>
				<circle class="st1" cx="75.1" cy="-41.2" r="0.6"/>
				<circle class="st1" cx="78.7" cy="-41.2" r="0.6"/>
				<circle class="st1" cx="82.3" cy="-41.2" r="0.6"/>
				<circle class="st1" cx="85.8" cy="-41.2" r="0.6"/>
				<circle class="st1" cx="75.1" cy="-37.6" r="0.6"/>
				<circle class="st1" cx="78.7" cy="-37.6" r="0.6"/>
				<circle class="st1" cx="82.3" cy="-37.6" r="0.6"/>
				<circle class="st1" cx="85.8" cy="-37.6" r="0.6"/>
				<circle class="st1" cx="75.1" cy="-34" r="0.6"/>
				<circle class="st1" cx="78.7" cy="-34" r="0.6"/>
				<circle class="st1" cx="82.3" cy="-34" r="0.6"/>
				<circle class="st1" cx="85.8" cy="-34" r="0.6"/>
				<circle class="st1" cx="75.1" cy="-30.4" r="0.6"/>
				<circle class="st1" cx="78.7" cy="-30.4" r="0.6"/>
				<circle class="st1" cx="82.3" cy="-30.4" r="0.6"/>
				<circle class="st1" cx="85.8" cy="-30.4" r="0.6"/>
				<circle class="st1" cx="75.1" cy="-26.9" r="0.6"/>
				<circle class="st1" cx="78.7" cy="-26.9" r="0.6"/>
				<circle class="st1" cx="82.3" cy="-26.9" r="0.6"/>
				<circle class="st1" cx="85.8" cy="-26.9" r="0.6"/>
				<circle class="st1" cx="75.1" cy="-23.3" r="0.6"/>
				<circle class="st1" cx="78.7" cy="-23.3" r="0.6"/>
				<circle class="st1" cx="82.3" cy="-23.3" r="0.6"/>
				<circle class="st1" cx="85.8" cy="-23.3" r="0.6"/>
				<circle class="st1" cx="43" cy="-19.7" r="0.6"/>
				<circle class="st1" cx="46.5" cy="-19.7" r="0.6"/>
				<circle class="st1" cx="50.1" cy="-19.7" r="0.6"/>
				<circle class="st1" cx="53.7" cy="-19.7" r="0.6"/>
				<circle class="st1" cx="43" cy="-16.1" r="0.6"/>
				<circle class="st1" cx="46.5" cy="-16.1" r="0.6"/>
				<circle class="st1" cx="50.1" cy="-16.1" r="0.6"/>
				<circle class="st1" cx="53.7" cy="-16.1" r="0.6"/>
				<circle class="st1" cx="43" cy="-12.6" r="0.6"/>
				<circle class="st1" cx="46.5" cy="-12.6" r="0.6"/>
				<circle class="st1" cx="50.1" cy="-12.6" r="0.6"/>
				<circle class="st1" cx="53.7" cy="-12.6" r="0.6"/>
				<circle class="st1" cx="43" cy="-9" r="0.6"/>
				<circle class="st1" cx="46.5" cy="-9" r="0.6"/>
				<circle class="st1" cx="50.1" cy="-9" r="0.6"/>
				<circle class="st1" cx="53.7" cy="-9" r="0.6"/>
				<circle class="st1" cx="43" cy="-5.4" r="0.6"/>
				<circle class="st1" cx="46.5" cy="-5.4" r="0.6"/>
				<circle class="st1" cx="50.1" cy="-5.4" r="0.6"/>
				<circle class="st1" cx="53.7" cy="-5.4" r="0.6"/>
				<circle class="st1" cx="43" cy="-1.8" r="0.6"/>
				<circle class="st1" cx="46.5" cy="-1.8" r="0.6"/>
				<circle class="st1" cx="50.1" cy="-1.8" r="0.6"/>
				<circle class="st1" cx="53.7" cy="-1.8" r="0.6"/>
				<circle class="st1" cx="57.3" cy="-19.7" r="0.6"/>
				<circle class="st1" cx="60.8" cy="-19.7" r="0.6"/>
				<circle class="st1" cx="64.4" cy="-19.7" r="0.6"/>
				<circle class="st1" cx="68" cy="-19.7" r="0.6"/>
				<circle class="st1" cx="71.5" cy="-19.7" r="0.6"/>
				<circle class="st1" cx="57.3" cy="-16.1" r="0.6"/>
				<circle class="st1" cx="60.8" cy="-16.1" r="0.6"/>
				<circle class="st1" cx="64.4" cy="-16.1" r="0.6"/>
				<circle class="st1" cx="68" cy="-16.1" r="0.6"/>
				<circle class="st1" cx="71.5" cy="-16.1" r="0.6"/>
				<circle class="st1" cx="57.3" cy="-12.6" r="0.6"/>
				<circle class="st1" cx="60.8" cy="-12.6" r="0.6"/>
				<circle class="st1" cx="64.4" cy="-12.6" r="0.6"/>
				<circle class="st1" cx="68" cy="-12.6" r="0.6"/>
				<circle class="st1" cx="71.5" cy="-12.6" r="0.6"/>
				<circle class="st1" cx="57.3" cy="-9" r="0.6"/>
				<circle class="st1" cx="60.8" cy="-9" r="0.6"/>
				<circle class="st1" cx="64.4" cy="-9" r="0.6"/>
				<circle class="st1" cx="68" cy="-9" r="0.6"/>
				<circle class="st1" cx="71.5" cy="-9" r="0.6"/>
				<circle class="st1" cx="57.3" cy="-5.4" r="0.6"/>
				<circle class="st1" cx="60.8" cy="-5.4" r="0.6"/>
				<circle class="st1" cx="64.4" cy="-5.4" r="0.6"/>
				<circle class="st1" cx="68" cy="-5.4" r="0.6"/>
				<circle class="st1" cx="71.5" cy="-5.4" r="0.6"/>
				<circle class="st1" cx="57.3" cy="-1.8" r="0.6"/>
				<circle class="st1" cx="60.8" cy="-1.8" r="0.6"/>
				<circle class="st1" cx="64.4" cy="-1.8" r="0.6"/>
				<circle class="st1" cx="68" cy="-1.8" r="0.6"/>
				<circle class="st1" cx="71.5" cy="-1.8" r="0.6"/>
				<circle class="st1" cx="75.1" cy="-19.7" r="0.6"/>
				<circle class="st1" cx="78.7" cy="-19.7" r="0.6"/>
				<circle class="st1" cx="82.3" cy="-19.7" r="0.6"/>
				<circle class="st1" cx="85.8" cy="-19.7" r="0.6"/>
				<circle class="st1" cx="75.1" cy="-16.1" r="0.6"/>
				<circle class="st1" cx="78.7" cy="-16.1" r="0.6"/>
				<circle class="st1" cx="82.3" cy="-16.1" r="0.6"/>
				<circle class="st1" cx="85.8" cy="-16.1" r="0.6"/>
				<circle class="st1" cx="75.1" cy="-12.6" r="0.6"/>
				<circle class="st1" cx="78.7" cy="-12.6" r="0.6"/>
				<circle class="st1" cx="82.3" cy="-12.6" r="0.6"/>
				<circle class="st1" cx="85.8" cy="-12.6" r="0.6"/>
				<circle class="st1" cx="75.1" cy="-9" r="0.6"/>
				<circle class="st1" cx="78.7" cy="-9" r="0.6"/>
				<circle class="st1" cx="82.3" cy="-9" r="0.6"/>
				<circle class="st1" cx="85.8" cy="-9" r="0.6"/>
				<circle class="st1" cx="75.1" cy="-5.4" r="0.6"/>
				<circle class="st1" cx="78.7" cy="-5.4" r="0.6"/>
				<circle class="st1" cx="82.3" cy="-5.4" r="0.6"/>
				<circle class="st1" cx="85.8" cy="-5.4" r="0.6"/>
				<circle class="st1" cx="75.1" cy="-1.8" r="0.6"/>
				<circle class="st1" cx="78.7" cy="-1.8" r="0.6"/>
				<circle class="st1" cx="82.3" cy="-1.8" r="0.6"/>
				<circle class="st1" cx="85.8" cy="-1.8" r="0.6"/>
				<circle class="st1" cx="42.9" cy="-41.2" r="0.6"/>
				<circle class="st1" cx="42.9" cy="-37.6" r="0.6"/>
				<circle class="st1" cx="42.9" cy="-34" r="0.6"/>
				<circle class="st1" cx="42.9" cy="-30.4" r="0.6"/>
				<circle class="st1" cx="42.9" cy="-26.9" r="0.6"/>
				<circle class="st1" cx="42.9" cy="-23.3" r="0.6"/>
				<circle class="st1" cx="42.9" cy="-19.7" r="0.6"/>
				<circle class="st1" cx="42.9" cy="-16.1" r="0.6"/>
				<circle class="st1" cx="42.9" cy="-12.6" r="0.6"/>
				<circle class="st1" cx="42.9" cy="-9" r="0.6"/>
				<circle class="st1" cx="42.9" cy="-5.4" r="0.6"/>
				<circle class="st1" cx="42.9" cy="-1.8" r="0.6"/>
			</g>
			<g>
				<defs>
					<rect id="SVGID_3_" x="42.9" y="-43" width="43" height="43"/>
				</defs>
				<clipPath id="SVGID_4_">
					<use xlink:href="#SVGID_3_"  style="overflow:visible;"/>
				</clipPath>
				<circle class="st3" cx="42.9" cy="-41.2" r="0.6"/>
				<circle class="st3" cx="42.9" cy="-37.6" r="0.6"/>
				<circle class="st3" cx="42.9" cy="-34" r="0.6"/>
				<circle class="st3" cx="42.9" cy="-30.4" r="0.6"/>
				<circle class="st3" cx="42.9" cy="-26.9" r="0.6"/>
				<circle class="st3" cx="42.9" cy="-23.3" r="0.6"/>
				<circle class="st3" cx="42.9" cy="-19.7" r="0.6"/>
				<circle class="st3" cx="42.9" cy="-16.1" r="0.6"/>
				<circle class="st3" cx="42.9" cy="-12.6" r="0.6"/>
				<circle class="st3" cx="42.9" cy="-9" r="0.6"/>
				<circle class="st3" cx="42.9" cy="-5.4" r="0.6"/>
				<circle class="st3" cx="42.9" cy="-1.8" r="0.6"/>
				<circle class="st3" cx="42.8" cy="-41.2" r="0.6"/>
				<circle class="st3" cx="42.8" cy="-37.6" r="0.6"/>
				<circle class="st3" cx="42.8" cy="-34" r="0.6"/>
				<circle class="st3" cx="42.8" cy="-30.4" r="0.6"/>
				<circle class="st3" cx="42.8" cy="-26.9" r="0.6"/>
				<circle class="st3" cx="42.8" cy="-23.3" r="0.6"/>
				<circle class="st3" cx="42.8" cy="-19.7" r="0.6"/>
				<circle class="st3" cx="42.8" cy="-16.1" r="0.6"/>
				<circle class="st3" cx="42.8" cy="-12.6" r="0.6"/>
				<circle class="st3" cx="42.8" cy="-9" r="0.6"/>
				<circle class="st3" cx="42.8" cy="-5.4" r="0.6"/>
				<circle class="st3" cx="42.8" cy="-1.8" r="0.6"/>
			</g>
		</g>
		<g>
			<g>
				<circle class="st1" cx="43" cy="-41.2" r="0.6"/>
				<circle class="st1" cx="43" cy="-37.6" r="0.6"/>
				<circle class="st1" cx="43" cy="-34" r="0.6"/>
				<circle class="st1" cx="43" cy="-30.4" r="0.6"/>
				<circle class="st1" cx="43" cy="-26.9" r="0.6"/>
				<circle class="st1" cx="43" cy="-23.3" r="0.6"/>
				<circle class="st1" cx="43" cy="-19.7" r="0.6"/>
				<circle class="st1" cx="43" cy="-16.1" r="0.6"/>
				<circle class="st1" cx="43" cy="-12.6" r="0.6"/>
				<circle class="st1" cx="43" cy="-9" r="0.6"/>
				<circle class="st1" cx="43" cy="-5.4" r="0.6"/>
				<circle class="st1" cx="43" cy="-1.8" r="0.6"/>
				<circle class="st1" cx="42.9" cy="-41.2" r="0.6"/>
				<circle class="st1" cx="42.9" cy="-37.6" r="0.6"/>
				<circle class="st1" cx="42.9" cy="-34" r="0.6"/>
				<circle class="st1" cx="42.9" cy="-30.4" r="0.6"/>
				<circle class="st1" cx="42.9" cy="-26.9" r="0.6"/>
				<circle class="st1" cx="42.9" cy="-23.3" r="0.6"/>
				<circle class="st1" cx="42.9" cy="-19.7" r="0.6"/>
				<circle class="st1" cx="42.9" cy="-16.1" r="0.6"/>
				<circle class="st1" cx="42.9" cy="-12.6" r="0.6"/>
				<circle class="st1" cx="42.9" cy="-9" r="0.6"/>
				<circle class="st1" cx="42.9" cy="-5.4" r="0.6"/>
				<circle class="st1" cx="42.9" cy="-1.8" r="0.6"/>
			</g>
			<g>
				<defs>
					<rect id="SVGID_5_" y="-43" width="43" height="43"/>
				</defs>
				<clipPath id="SVGID_6_">
					<use xlink:href="#SVGID_5_"  style="overflow:visible;"/>
				</clipPath>
			</g>
		</g>
	</g>
</pattern>
<g>
	<path class="st4" d="M38.7,94.1c0,2.1,0.1,4.1,0.2,6.2H19.2c-0.1-2.1-0.2-4.2-0.2-6.2c0-2,0.1-4.1,0.2-6.1h19.7
		C38.8,90,38.7,92.1,38.7,94.1z"/>
	<path class="st1" d="M38.8,94.1c0.1,2,0.1,4.1,0.3,6.1c0,0.1-0.1,0.2-0.1,0.2l0,0l0,0l-9.8,0.3l-9.8,0.2c-0.4,0-0.7-0.3-0.7-0.6
		l-0.3-6.2l0-6.2c0-0.5,0.4-0.9,0.9-0.9l0.1,0c3.3-0.1,6.6-0.1,9.8-0.1c1.6,0,3.3,0.1,4.9,0.2l4.9,0.4l0,0c0.2,0,0.4,0.2,0.4,0.4
		l0,0c-0.1,1-0.2,2-0.3,3.1C38.9,92.1,38.9,93.1,38.8,94.1z M38.6,94.1c0-1,0-2.1,0-3.1c0-1,0-2.1-0.1-3.1l0.4,0.4L34,88.7
		c-1.6,0.1-3.3,0.2-4.9,0.2c-3.3,0.1-6.6,0-9.8-0.1l0.9-0.9l-0.3,6.1l0.1,6.1l-0.7-0.6l9.8,0.2l9.8,0.3l-0.2,0.2
		C38.8,98.2,38.7,96.2,38.6,94.1z"/>
</g>
<g>
	<path class="st4" d="M237,94.1c0,2.1-0.1,4.1-0.2,6.2h-19.7c0.2-2,0.2-4.1,0.2-6.2c0-2.1-0.1-4.1-0.2-6.2h19.7
		C236.9,90,237,92.1,237,94.1z"/>
	<path class="st1" d="M237.1,94.1c-0.1,2.1-0.1,4.1-0.1,6.2c0,0.1-0.1,0.1-0.1,0.1l0,0l-9.8,0.3l-9.8,0.2c-0.4,0-0.7-0.3-0.7-0.7v0
		l0-0.1l0.1-6.1l-0.4-6.1c0-0.5,0.4-1,0.9-1l0,0l0,0c3.3-0.1,6.6-0.1,9.8-0.1c1.6,0,3.3,0.1,4.9,0.2l4.9,0.4l0.1,0
		c0.2,0,0.3,0.2,0.3,0.4c0,1-0.1,2.1-0.1,3.1C237,92.1,237.1,93.1,237.1,94.1z M236.9,94.1c-0.1-1-0.1-2-0.2-3.1
		c-0.1-1-0.2-2-0.3-3.1l0.4,0.4l-4.9,0.4c-1.6,0.1-3.3,0.2-4.9,0.2c-3.3,0.1-6.6,0-9.8-0.1l0.9-1l0.1,6.2l-0.3,6.2l-0.7-0.7l9.8,0.2
		l9.8,0.3l-0.2,0.1C236.8,98.2,236.8,96.2,236.9,94.1z"/>
</g>
<g>
	<g>
		<path class="st4" d="M135.7,214.4v24.4h-15.4v-24.4c2.2,0.1,4.4,0.2,6.7,0.2C129.9,214.6,132.8,214.6,135.7,214.4z"/>
		<path class="st1" d="M135.8,214.3c0.1,8,0.4,16.2,0.5,24.5c0,0.3-0.2,0.6-0.6,0.6l0,0l-15.4,0.2c-0.4,0-0.8-0.3-0.8-0.7l0-0.1
			c-0.2-4.1-0.2-8.1-0.3-12.2c0-2,0-4.1,0-6.1c0-2,0.1-4.1,0.1-6.1l0,0c0-0.5,0.4-0.9,0.9-0.9l0,0l3.8,0.3l1.9,0.2l1,0.1l1,0
			C130.7,214,133.3,214.2,135.8,214.3z M135.6,214.4c-2.7,0.2-5.2,0.5-7.7,0.7l-0.9,0.1l-1,0l-1.9,0l-3.9,0l1-0.9
			c0,2,0.1,4.1,0.1,6.1c0,2,0,4.1,0,6.1c0,4.1-0.1,8.1-0.3,12.2l-0.8-0.8l15.4,0.2l-0.6,0.6L135.6,214.4z"/>
	</g>
	<path class="st5" d="M217.1,88C213.9,41.5,175.3,4.8,128,4.8C80.7,4.8,42.1,41.5,38.9,88c-0.2,2-0.2,4.1-0.2,6.2s0.1,4.1,0.2,6.2
		c3.2,46.5,41.8,83.2,89.1,83.2c47.3,0,85.9-36.7,89.1-83.2c0.2-2,0.2-4.1,0.2-6.2S217.2,90,217.1,88z M128,158.2
		c-35.4,0-64.1-28.7-64.1-64.1C63.9,58.7,92.6,30,128,30s64.1,28.7,64.1,64.1C192.1,129.5,163.4,158.2,128,158.2z"/>
	<g>
		<path class="st6" d="M217.1,88C213.9,41.5,175.3,4.8,128,4.8C80.7,4.8,42.1,41.5,38.9,88c-0.2,2-0.2,4.1-0.2,6.2s0.1,4.1,0.2,6.2
			c3.2,46.5,41.8,83.2,89.1,83.2c47.3,0,85.9-36.7,89.1-83.2c0.2-2,0.2-4.1,0.2-6.2S217.2,90,217.1,88z M128,158.2
			c-35.4,0-64.1-28.7-64.1-64.1C63.9,58.7,92.6,30,128,30s64.1,28.7,64.1,64.1C192.1,129.5,163.4,158.2,128,158.2z"/>
		<g>
			<path class="st1" d="M215.8,88.1C214.4,65,203.4,42.8,186,27.5c-8.6-7.7-18.9-13.7-29.8-17.4c-11-3.7-22.7-5.3-34.3-4.5
				c-11.6,0.8-23,3.9-33.4,9.1c-10.4,5.2-19.8,12.4-27.4,21.2C53.5,44.6,47.6,54.9,44,65.9c-1.8,5.5-3.1,11.2-3.8,16.9
				c-0.2,1.4-0.3,2.9-0.4,4.3c-0.1,1.4-0.1,2.9-0.2,4.3l-0.1,2.2c0,0.7,0,1.4,0.1,2.2l0.2,4.3c0.8,11.6,3.9,23,9.1,33.3
				c5.2,10.4,12.4,19.7,21.2,27.3c8.7,7.6,19,13.5,29.9,17.1c11,3.7,22.7,5.1,34.2,4.3c11.5-0.8,22.9-3.9,33.2-9.1
				c10.3-5.2,19.6-12.4,27.1-21.1c7.6-8.7,13.4-18.9,17.1-29.8c1.8-5.5,3.1-11.1,3.8-16.8c0.2-1.4,0.3-2.9,0.4-4.3
				c0.1-1.4,0.1-2.9,0.2-4.3l0.1-2.2c0-0.7,0-1.4-0.1-2.2L215.8,88.1z M218.4,87.9l0.2,4.4c0,0.7,0.1,1.5,0,2.2l-0.1,2.2
				c-0.1,1.5-0.1,3-0.2,4.4c-0.2,1.5-0.2,3-0.5,4.4c-0.8,5.9-2.1,11.7-4,17.3c-3.8,11.2-9.8,21.7-17.6,30.6
				c-7.8,8.9-17.4,16.3-28,21.5c-10.6,5.2-22.3,8.4-34.1,9.1c-11.8,0.8-23.7-0.7-34.9-4.5c-11.2-3.8-21.6-9.8-30.5-17.6
				c-8.9-7.8-16.2-17.3-21.5-27.9c-5.3-10.6-8.4-22.2-9.2-33.9L38,95.9c0-0.7-0.1-1.5,0-2.2l0.1-2.2c0.1-1.5,0.1-3,0.2-4.4
				c0.2-1.5,0.2-2.9,0.5-4.4c0.8-5.8,2.1-11.6,4-17.2c3.8-11.2,9.8-21.5,17.5-30.4c7.7-8.9,17.2-16.2,27.8-21.4
				c10.5-5.2,22.1-8.4,33.8-9.1c23.5-1.8,47.5,6.1,65.4,21.5c9,7.7,16.4,17.2,21.8,27.7C214.3,64.4,217.6,76,218.4,87.9z"/>
			<path class="st1" d="M128,159.5c-8.6-0.1-17.1-1.8-25-5.1c-7.9-3.3-15-8.3-21-14.3c-11.9-12.1-18.8-29-18.6-46
				c-0.1-16.9,6.9-33.7,18.9-45.7c6-6,13.1-10.9,20.9-14.1c7.8-3.3,16.3-5,24.8-5c8.5,0,17,1.6,24.9,4.9c7.9,3.2,15.1,8,21.1,14.1
				c6,6,10.9,13.2,14.1,21.1c3.3,7.9,5,16.4,5,24.9c0,8.5-1.6,17.1-4.8,25c-3.2,7.9-8,15.2-14.1,21.2c-6,6.1-13.2,11-21.2,14.2
				C145.1,157.8,136.6,159.5,128,159.5z M128,156.9c16.5,0.1,32.8-6.7,44.5-18.3c5.8-5.8,10.6-12.7,13.7-20.4
				c3.2-7.6,4.9-15.8,4.9-24.1c0-8.3-1.6-16.5-4.7-24.2c-3.1-7.6-7.8-14.7-13.7-20.5c-5.8-5.9-12.8-10.6-20.5-13.8
				c-7.6-3.2-15.9-4.8-24.2-4.9c-8.3,0-16.6,1.6-24.3,4.7C96,38.7,89,43.3,83.1,49.2c-5.9,5.9-10.7,12.9-13.9,20.6
				c-3.2,7.7-4.8,16-4.8,24.3c0.1,8.3,1.7,16.6,5,24.3c3.2,7.6,8,14.6,13.9,20.4C95.1,150.4,111.5,157.1,128,156.9z"/>
		</g>
	</g>
	<g>
		<path class="st1" d="M218.6,94.1c-0.1,11.9-2.4,23.7-7,34.6c-4.6,10.9-11.4,20.9-19.8,29.2c-8.4,8.3-18.4,14.9-29.4,19.3
			c-10.9,4.5-22.7,6.8-34.4,6.7c-11.8,0-23.5-2.3-34.4-6.8c-10.9-4.5-20.8-11.2-29.2-19.5c-8.4-8.3-15.1-18.2-19.6-29.1
			c-4.6-10.9-6.9-22.6-7-34.4c0-11.8,2.3-23.6,6.8-34.5c4.5-10.9,11.2-20.9,19.5-29.3c8.3-8.4,18.3-15.1,29.2-19.6
			c10.9-4.6,22.7-6.9,34.5-6.9c11.8-0.1,23.7,2.2,34.6,6.8c10.9,4.5,21,11.2,29.4,19.5c8.4,8.4,15.2,18.4,19.7,29.3
			C216.3,70.4,218.6,82.3,218.6,94.1z M216,94.1c0-11.5-2.2-23-6.7-33.7C205,49.8,198.4,40,190.3,31.9c-8.1-8.2-17.9-14.8-28.5-19.2
			c-10.6-4.5-22.2-6.8-33.8-6.8c-11.6,0-23.1,2.2-33.8,6.7c-10.7,4.4-20.5,11-28.7,19.1c-8.2,8.2-14.8,17.9-19.2,28.6
			c-4.5,10.7-6.7,22.3-6.8,33.9c0,11.6,2.2,23.2,6.6,33.9c4.4,10.7,11,20.6,19.2,28.8c8.2,8.2,18,14.8,28.8,19.3
			c10.7,4.5,22.3,6.8,34,6.8c11.6,0,23.2-2.4,33.9-6.9c10.7-4.5,20.4-11.2,28.6-19.4c8.1-8.2,14.6-18.1,18.9-28.8
			C213.8,117.2,216,105.6,216,94.1z"/>
	</g>
	<g>
		<path class="st1" d="M54.6,67.1c1.6-4.7,3.6-9.3,6.1-13.6c2.5-4.3,5.4-8.4,8.7-12.2c3.3-3.8,6.8-7.4,10.9-10.3
			c4.1-2.9,8.5-5.4,13.2-7.1c0.1,0,0.1,0,0.1,0.1c0,0,0,0.1,0,0.1c-4.2,2.7-8.2,5.4-12.1,8.5c-3.8,3.1-7.6,6.2-10.9,9.8
			c-3.4,3.6-6.4,7.5-9,11.6c-2.7,4.1-4.9,8.6-6.8,13.1c0,0.1-0.1,0.1-0.1,0.1C54.7,67.2,54.6,67.2,54.6,67.1z"/>
	</g>
	<g>
		<path class="st1" d="M204.4,110.6c-1.2,6.2-3.1,12.2-5.8,17.9c-2.7,5.7-6,11.1-10,16c-3.9,4.9-8.4,9.5-13.6,13.2l-4,2.6
			c-1.4,0.8-2.7,1.6-4.1,2.3l-4.3,2c-1.5,0.5-2.9,1.1-4.4,1.6c-0.1,0-0.1,0-0.1-0.1c0,0,0-0.1,0-0.1l0,0c1.4-0.8,2.7-1.5,4.1-2.3
			l4-2.4c1.3-0.9,2.6-1.7,3.9-2.6l3.7-2.7c4.9-3.8,9.5-7.9,13.6-12.6c4-4.7,7.5-9.9,10.3-15.4c2.8-5.5,5-11.4,6.5-17.5
			c0-0.1,0.1-0.1,0.1-0.1C204.4,110.5,204.4,110.5,204.4,110.6z"/>
	</g>
	<g>
		<circle class="st4" cx="128" cy="94.1" r="64.1"/>
		<path class="st1" d="M192.2,94.1c0.1,16.8-6.8,33.5-18.7,45.5c-5.9,6-13,10.8-20.8,14.1c-7.8,3.3-16.2,5-24.7,5
			c-8.5,0-16.9-1.6-24.8-4.8c-7.8-3.2-15-8-21-14c-6-6-10.8-13.1-14.1-21c-3.3-7.8-5-16.3-5-24.8c0-8.5,1.6-17,4.8-24.9
			c3.2-7.9,8-15.1,14-21.1c6-6,13.2-10.9,21.1-14.1c7.9-3.3,16.4-4.9,24.9-5c8.5,0.1,17,1.8,24.8,5.1c7.8,3.3,14.9,8.2,20.9,14.3
			C185.6,60.5,192.4,77.3,192.2,94.1z M192,94.1c-0.1-8.4-1.8-16.7-5-24.4c-3.3-7.7-8.1-14.7-14-20.5C161,37.5,144.5,30.9,128,31
			c-8.3,0-16.5,1.6-24.2,4.8c-7.6,3.2-14.6,7.8-20.5,13.7c-5.9,5.8-10.6,12.8-13.8,20.4c-3.2,7.6-4.9,15.9-4.9,24.2
			c0,8.3,1.6,16.6,4.7,24.3c3.1,7.7,7.8,14.7,13.7,20.6c5.9,5.9,12.9,10.6,20.6,13.8c7.7,3.2,16,4.9,24.3,4.9
			c8.3,0,16.7-1.5,24.4-4.7c7.7-3.1,14.8-7.8,20.8-13.7c5.9-5.9,10.7-12.9,14-20.7C190.3,110.9,192,102.5,192,94.1z"/>
	</g>
	<path class="st7" d="M128,158.2c-34.6,0-62.7-27.4-64-61.6c0,0.8-0.1,1.7-0.1,2.5c0,35.4,28.7,64.1,64.1,64.1s64.1-28.7,64.1-64.1
		c0-0.8,0-1.7-0.1-2.5C190.7,130.9,162.6,158.2,128,158.2z"/>
	<g>
		<path class="st1" d="M128,153.2c-15.5,0.1-30.8-6.3-41.8-17.2c-5.5-5.4-10-12-13-19.1c-3-7.2-4.6-14.9-4.7-22.7
			c0-7.8,1.5-15.6,4.5-22.8c3-7.2,7.4-13.8,12.9-19.4c5.5-5.5,12.1-10,19.3-13c7.2-3,15-4.6,22.8-4.6c7.8,0,15.7,1.5,22.9,4.5
			c7.3,3,13.9,7.4,19.5,12.9c5.6,5.5,10,12.2,13,19.4c3,7.2,4.6,15.1,4.6,22.9c-0.1,7.8-1.7,15.7-4.7,22.9
			c-3.1,7.2-7.6,13.7-13.2,19.2C158.9,147.1,143.5,153.3,128,153.2z M128,153c7.7-0.1,15.4-1.6,22.5-4.6c7.1-3,13.5-7.5,18.8-12.9
			c10.7-11,16.8-26.1,16.7-41.3c0-7.6-1.5-15.2-4.4-22.2c-2.9-7-7.2-13.4-12.6-18.8c-5.3-5.4-11.8-9.7-18.8-12.7
			c-7-3-14.6-4.5-22.2-4.5c-7.6,0-15.2,1.5-22.3,4.4c-7.1,2.9-13.5,7.2-18.9,12.6C81.4,58.3,77,64.7,74,71.8c-3,7-4.5,14.7-4.5,22.3
			c0,7.7,1.4,15.3,4.3,22.4c2.9,7.1,7.2,13.6,12.6,19.1c5.4,5.5,11.9,9.9,19,12.9C112.6,151.5,120.3,153,128,153z"/>
	</g>
	<g>
		<path class="st1" d="M177.8,94.1c0,13-5.3,26-14.5,35.3c-4.6,4.6-10.1,8.4-16.1,10.9c-6,2.6-12.6,3.9-19.1,4
			c-6.6,0-13.1-1.3-19.2-3.8c-6.1-2.5-11.7-6.2-16.4-10.8c-4.7-4.6-8.4-10.2-11-16.3c-2.6-6.1-3.9-12.7-3.9-19.3
			c0-6.6,1.2-13.2,3.8-19.3c2.5-6.1,6.2-11.8,10.9-16.5c4.7-4.7,10.3-8.5,16.4-11c6.1-2.5,12.8-3.8,19.4-3.8
			c6.6,0.1,13.2,1.4,19.3,4c6.1,2.6,11.6,6.4,16.2,11.1C172.7,68.1,177.9,81.1,177.8,94.1z M177.6,94.1c-0.1-6.5-1.4-13-3.9-18.9
			c-2.5-5.9-6.3-11.3-10.9-15.8c-9.2-9-22-14.1-34.7-13.9c-12.8,0-25.4,5.2-34.4,14.2c-4.5,4.5-8.2,9.9-10.6,15.8
			c-2.5,5.9-3.8,12.3-3.8,18.7c0,6.4,1.2,12.8,3.7,18.7c2.4,5.9,6,11.4,10.6,15.9c4.5,4.6,9.9,8.2,15.9,10.7
			c5.9,2.5,12.3,3.8,18.8,3.8c6.4,0,12.9-1.2,18.9-3.6c6-2.4,11.5-6,16.1-10.6c4.6-4.6,8.3-10,10.8-16
			C176.3,107.1,177.5,100.6,177.6,94.1z"/>
	</g>
	<g>
		<path class="st1" d="M153.1,94.1c0,2-0.2,4-0.7,5.9c0,0.1-0.1,0.1-0.1,0.1l0,0c-2.5-1.2-5.4-1.5-8.1-1c-1.4,0.3-2.7,0.7-3.9,1.4
			c-1.2,0.7-2.3,1.5-3.3,2.5c-1.9,2-3.2,4.6-3.5,7.3c-0.4,2.7,0,5.5,1.3,7.9c0.1,0.2,0,0.5-0.2,0.6c0,0-0.1,0-0.1,0l0,0
			c-4.3,1.2-8.9,1.1-13.2,0l-0.8-0.2l-0.8-0.3l-1.6-0.6l-1.5-0.7l-0.8-0.4l-0.7-0.4c-2-1.1-3.7-2.5-5.3-4.1
			c-3.1-3.2-5.5-7.2-6.6-11.6c-1.2-4.4-1.2-9,0-13.4c0.1-0.5,0.6-0.7,1.1-0.6c0,0,0.1,0,0.1,0l0,0c1.9,0.9,4.1,1,6.2,0.6
			c2-0.5,3.9-1.7,5.2-3.3c1.3-1.6,2.1-3.7,2.2-5.7c0.1-2.1-0.5-4.2-1.7-5.9l0,0c-0.3-0.5-0.2-1.1,0.3-1.4c0,0,0.1-0.1,0.1-0.1
			c3.9-1.9,8.4-2.9,12.8-2.5c2.2,0.1,4.3,0.6,6.4,1.2l1.5,0.6l0.8,0.3l0.7,0.4l1.4,0.7c0.5,0.3,0.9,0.6,1.4,0.9
			c3.7,2.4,6.6,5.7,8.6,9.5C152.1,85.6,153.1,89.9,153.1,94.1z M152.9,94.1c-0.1-4.2-1.2-8.4-3.3-12c-2.2-3.6-5.1-6.6-8.7-8.7
			c-1.7-1.1-3.7-1.8-5.6-2.4c-2-0.5-4-0.9-6-0.9c-4.1-0.2-8.2,0.7-11.8,2.5l0.4-1.5c1.5,2.1,2.2,4.6,2.1,7.1c-0.1,2.5-1.1,5-2.7,6.9
			c-1.6,1.9-3.9,3.3-6.3,3.8c-2.4,0.5-5.1,0.3-7.3-0.8l1.2-0.6c-1.2,4.1-1.3,8.4-0.2,12.6c1,4.1,3.2,7.9,6.1,11c1.5,1.5,3.1,2.9,5,4
			l0.7,0.4l0.7,0.4l1.4,0.7l1.5,0.6l0.8,0.3l0.8,0.2c4.1,1.2,8.5,1.3,12.7,0.2l-0.3,0.6c-1.2-2.6-1.6-5.6-1.1-8.4
			c0.5-2.8,1.9-5.5,3.9-7.5c1-1,2.2-1.8,3.4-2.5c1.3-0.7,2.6-1.1,4-1.3c2.8-0.5,5.7-0.1,8.2,1.1l-0.1,0.1
			C152.7,98.1,152.9,96.1,152.9,94.1z"/>
	</g>
	<path class="st5" d="M118.9,77.7V78c-0.1,5-3.7,9.2-8.4,10.1v0c-0.7,0.1-1.4,0.2-2.1,0.2c-1.6,0-3.1-0.3-4.4-1
		c-3.7-1.7-6.2-5.4-6.2-9.6c0-5.8,4.8-10.6,10.6-10.6c3.6,0,6.7,1.8,8.7,4.5C118.2,73.4,118.9,75.5,118.9,77.7z"/>
	<path class="st5" d="M160.2,112.3c0,7.5-6.1,13.6-13.6,13.6c-5.4,0-10-3.1-12.2-7.6c-0.9-1.8-1.4-3.8-1.4-6c0-0.1,0-0.2,0-0.3
		c0.2-7.2,5.9-13,13-13.2c0.2,0,0.4,0,0.6,0c2.1,0,4,0.5,5.8,1.3C157,102.2,160.2,106.9,160.2,112.3z"/>
	<path class="st5" d="M248.5,94.1c0,63.9-49.9,116.3-112.8,120.2c-2.9,0.2-5.8,0.3-8.7,0.3c-2.3,0-4.5-0.1-6.7-0.2
		C58.5,210.4,8.8,159.2,7.5,96.6C7.4,90.2,7.8,84,8.6,77.9c0.4-2.9,2.8-5,5.7-5c3.2,0,5.8,2.6,5.8,5.7c0,0.3,0,0.5,0,0.8
		c-0.4,2.8-0.7,5.6-0.8,8.5c-0.1,2-0.2,4-0.2,6.1c0,2.1,0.1,4.2,0.2,6.2c3.1,55.1,47.7,100,103.4,102.7
		c60.5,2.9,110.8-43.6,114.1-102.7c0.1-2,0.2-4.1,0.2-6.2c0-2.1-0.1-4.1-0.2-6.2c-0.2-2.9-0.4-5.7-0.8-8.5c-0.5-3.5,2.2-6.5,5.7-6.5
		c1.4,0,2.8,0.5,3.8,1.4c1,0.9,1.7,2.1,1.9,3.6C248.1,83.2,248.5,88.6,248.5,94.1z"/>
	<path class="st5" d="M186.7,251.2H69.3c-3,0-5.4-2.4-5.4-5.4v-1.7c0-3,2.4-5.4,5.4-5.4h117.4c3,0,5.4,2.4,5.4,5.4v1.7
		C192.1,248.8,189.7,251.2,186.7,251.2z"/>
	<g>
		<pattern  id="SVGID_7_" xlink:href="#New_Pattern_Swatch_1" patternTransform="matrix(1 0 0 1 7.2 0)">
		</pattern>
		<path class="st8" d="M160.2,112.3c0,7.5-6.1,13.6-13.6,13.6c-5.4,0-10-3.1-12.2-7.6c-0.9-1.8-1.4-3.8-1.4-6c0-0.1,0-0.2,0-0.3
			c0.2-7.2,5.9-13,13-13.2c0.2,0,0.4,0,0.6,0c2.1,0,4,0.5,5.8,1.3C157,102.2,160.2,106.9,160.2,112.3z"/>
		<path class="st1" d="M160.3,112.3c0,1.3-0.2,2.7-0.6,3.9c-0.4,1.3-0.9,2.5-1.6,3.6c-0.7,1.1-1.6,2.2-2.6,3.1
			c-1,0.9-2.2,1.6-3.4,2.2c-2.5,1.1-5.3,1.5-8,1.1c-2.7-0.4-5.3-1.7-7.3-3.6c-2-1.9-3.5-4.4-4.2-7.1c-0.3-1.4-0.5-2.8-0.4-4.2
			c0-1.4,0.3-2.8,0.8-4.1c0.9-2.7,2.7-5,5-6.7c1.2-0.8,2.4-1.5,3.8-2c1.4-0.4,2.8-0.7,4.2-0.8l-0.1,0c0.6,0,1.1,0,1.5,0
			c0.5,0,1,0.1,1.5,0.2c1,0.2,1.9,0.5,2.8,0.8c1.8,0.8,3.4,1.9,4.7,3.3c1.3,1.4,2.3,3,3,4.8C160,108.6,160.3,110.5,160.3,112.3z
			 M160.1,112.3c-0.1-1.8-0.4-3.6-1.2-5.2c-0.8-1.6-1.9-3-3.3-4.2c-1.3-1.2-2.9-2-4.5-2.5c-0.8-0.3-1.7-0.4-2.5-0.6
			c-0.4-0.1-0.8-0.1-1.3-0.1c-0.4,0-0.9,0-1.2,0l-0.1,0c-1.2,0.1-2.4,0.3-3.6,0.7c-1.1,0.4-2.2,1-3.2,1.7c-2,1.4-3.6,3.4-4.5,5.7
			c-0.5,1.2-0.8,2.3-0.9,3.6c-0.1,1.2,0,2.5,0.2,3.7c0.5,2.4,1.8,4.7,3.6,6.5c1.8,1.8,4.1,3,6.6,3.5c1.2,0.3,2.5,0.3,3.8,0.2
			c1.3-0.1,2.5-0.4,3.7-0.9c1.2-0.5,2.3-1.1,3.4-1.9c1-0.8,1.9-1.8,2.7-2.8c0.8-1.1,1.3-2.3,1.7-3.5
			C159.9,115,160,113.7,160.1,112.3z"/>
	</g>
	<g>
		<pattern  id="SVGID_8_" xlink:href="#New_Pattern_Swatch_1" patternTransform="matrix(1 0 0 1 7.2 0)">
		</pattern>
		<path class="st9" d="M248.5,94.1c0,63.9-49.9,116.3-112.8,120.2c-2.9,0.2-5.8,0.3-8.7,0.3c-2.3,0-4.5-0.1-6.7-0.2
			C58.5,210.4,8.8,159.2,7.5,96.6C7.4,90.2,7.8,84,8.6,77.9c0.4-2.9,2.8-5,5.7-5c3.2,0,5.8,2.6,5.8,5.7c0,0.3,0,0.5,0,0.8
			c-0.4,2.8-0.7,5.6-0.8,8.5c-0.1,2-0.2,4-0.2,6.1c0,2.1,0.1,4.2,0.2,6.2c3.1,55.1,47.7,100,103.4,102.7
			c60.5,2.9,110.8-43.6,114.1-102.7c0.1-2,0.2-4.1,0.2-6.2c0-2.1-0.1-4.1-0.2-6.2c-0.2-2.9-0.4-5.7-0.8-8.5
			c-0.5-3.5,2.2-6.5,5.7-6.5c1.4,0,2.8,0.5,3.8,1.4c1,0.9,1.7,2.1,1.9,3.6C248.1,83.2,248.5,88.6,248.5,94.1z"/>
		<path class="st1" d="M249.3,94.1c0.1,17.2-3.5,34.4-10.6,50.1c-7,15.7-17.5,29.9-30.3,41.3c-12.9,11.4-28.2,20.1-44.8,25.2
			c-16.5,5.1-34.1,6.6-51.2,4.4c-17.1-2.2-33.8-8.2-48.4-17.3c-7.3-4.6-14.2-9.9-20.3-15.9c-6.2-6-11.7-12.7-16.5-19.8
			c-9.6-14.3-16.1-30.7-18.9-47.6c-0.3-2.1-0.6-4.3-0.9-6.4c-0.2-2.1-0.4-4.3-0.5-6.4c-0.1-2.1-0.2-4.3-0.2-6.4c0-2.1,0-4.3,0.1-6.4
			c0.1-2.1,0.3-4.3,0.5-6.4c0.1-1.1,0.2-2.1,0.4-3.2c0.1-0.5,0.1-1,0.2-1.6c0.1-0.6,0.3-1.2,0.6-1.7c1.1-2.2,3.5-3.7,5.9-3.6
			c2.5,0,4.8,1.5,5.9,3.7c0.6,1.1,0.8,2.3,0.7,3.5l-0.3,3.2c-0.2,2.1-0.5,4.2-0.5,6.3L19.9,92c0,1.1-0.1,2.1,0,3.2l0.1,3.2
			c0,1.1,0.1,2.1,0.2,3.2c0.6,8.4,2.1,16.8,4.7,24.9c2.6,8.1,6,15.8,10.4,23.1c2.1,3.6,4.6,7.1,7.1,10.5c1.3,1.6,2.6,3.3,4,4.9
			l2.1,2.4l2.2,2.3c5.9,6.1,12.6,11.4,19.7,15.9c7.2,4.5,14.8,8.2,22.8,10.9c8,2.7,16.3,4.5,24.7,5.2c8.4,0.7,16.9,0.5,25.3-0.7
			c8.4-1.1,16.6-3.4,24.4-6.5c4-1.5,7.8-3.4,11.5-5.3c1.8-1,3.7-2.1,5.5-3.2c1.8-1.2,3.6-2.2,5.3-3.5c13.9-9.7,25.4-22.7,33.4-37.6
			c4-7.5,7.1-15.4,9.3-23.6c2.1-8.2,3.3-16.6,3.4-25.1c0.1-2.1,0-4.2,0-6.3c0-2.1-0.3-4.2-0.5-6.3l-0.3-3.2l-0.1-0.8
			c0-0.3-0.1-0.6-0.1-0.9c0-0.6,0.1-1.2,0.2-1.8c0.6-2.3,2.7-4.2,5.1-4.6c2.4-0.5,5,0.5,6.4,2.5c0.7,0.9,1.2,2.2,1.3,3.3
			c0.1,1.1,0.3,2.1,0.4,3.2C249.1,85.5,249.3,89.8,249.3,94.1z M247.7,94.1c0-4.2-0.2-8.5-0.6-12.7c-0.1-1.1-0.2-2.1-0.4-3.2
			c-0.1-1-0.4-1.8-1-2.6c-1.1-1.5-3.1-2.3-4.9-1.9c-1.8,0.3-3.4,1.8-3.9,3.5c-0.1,0.4-0.2,0.9-0.2,1.4c0,0.2,0,0.5,0,0.7l0.1,0.8
			l0.3,3.2c0.2,2.1,0.5,4.3,0.5,6.4c0.1,2.1,0.2,4.3,0.1,6.4c-0.1,8.6-1.3,17.2-3.4,25.5c-2.2,8.3-5.3,16.4-9.3,24
			c-8.1,15.2-19.7,28.4-33.8,38.3c-1.7,1.3-3.6,2.4-5.4,3.6c-1.8,1.1-3.7,2.2-5.6,3.2c-3.8,2-7.7,3.9-11.7,5.4
			c-8,3.2-16.4,5.5-24.9,6.6c-8.5,1.2-17.2,1.4-25.7,0.6c-8.6-0.8-17-2.6-25.2-5.4c-8.1-2.8-15.9-6.6-23.2-11.2
			c-7.2-4.7-14-10-20-16.2l-2.2-2.3l-2.1-2.4c-1.5-1.6-2.7-3.3-4.1-5c-2.6-3.4-5.1-7-7.2-10.7c-4.4-7.4-8-15.3-10.5-23.5
			c-2.6-8.2-4.1-16.7-4.8-25.3c-0.1-1.1-0.1-2.1-0.2-3.2l-0.1-3.2c-0.1-1.1,0-2.1,0-3.2l0.1-3.2c0.1-2.1,0.4-4.3,0.6-6.4l0.3-3.2
			c0.1-0.9-0.1-1.8-0.5-2.7c-0.8-1.7-2.6-2.8-4.4-2.7c-1.8,0-3.6,1.1-4.4,2.7c-0.2,0.4-0.3,0.8-0.4,1.3c-0.1,0.4-0.1,1-0.2,1.5
			c-0.1,1.1-0.2,2.1-0.3,3.2c-0.2,2.1-0.3,4.2-0.4,6.3c-0.1,2.1-0.1,4.2-0.1,6.3c0,2.1,0.2,4.2,0.3,6.3c0.1,2.1,0.4,4.2,0.6,6.3
			c0.3,2.1,0.6,4.2,0.9,6.3c3,16.6,9.4,32.7,19,46.5c19,27.9,50.1,47.3,83.6,51.4c16.7,2.2,33.8,0.8,50-4.1
			c16.1-4.9,31.2-13.3,43.9-24.4c12.7-11.1,23.1-24.9,30.1-40.3C243.9,128,247.6,111.1,247.7,94.1z"/>
	</g>
	<path class="st7" d="M125.3,214.6c-1.7,0-3.3-0.1-5-0.2v5l0,0c2.2,0.1,4.4,0.2,6.7,0.2c2.9,0,5.8-0.1,8.7-0.3l0,0v-5
		c-1.4,0.1-2.9,0.2-4.3,0.2s-2.9,0.1-4.4,0C126.4,214.6,125.9,214.6,125.3,214.6z"/>
	<g>
		<pattern  id="SVGID_9_" xlink:href="#New_Pattern_Swatch_1" patternTransform="matrix(1 0 0 1 7.2 0)">
		</pattern>
		<path class="st10" d="M186.7,251.2H69.3c-3,0-5.4-2.4-5.4-5.4v-1.7c0-3,2.4-5.4,5.4-5.4h117.4c3,0,5.4,2.4,5.4,5.4v1.7
			C192.1,248.8,189.7,251.2,186.7,251.2z"/>
		<path class="st1" d="M186.7,251.9l-34-0.1l-34,0l-34,0.1l-8.5,0l-4.2,0l-2.1,0c-0.7,0-1.6,0-2.3-0.2c-1.5-0.4-2.9-1.5-3.7-2.9
			c-0.4-0.7-0.6-1.5-0.7-2.3l0-0.6l0-0.5l0-1.1c0-1.6,0.6-3.2,1.8-4.4c1.1-1.2,2.7-1.8,4.4-1.8l34-0.1l34-0.1l34,0.1l8.5,0l4.2,0
			l2.1,0c0.3,0,0.7,0,1.1,0c0.4,0,0.8,0.1,1.2,0.2c1.6,0.5,2.9,1.6,3.7,3c0.4,0.7,0.6,1.5,0.7,2.3l0,0.6l0,0.5l0,1.1
			c0,1.6-0.6,3.2-1.8,4.3C189.9,251.2,188.3,251.9,186.7,251.9z M186.7,250.5c1.2,0,2.5-0.5,3.3-1.4c0.9-0.9,1.3-2.1,1.3-3.3l0-1.1
			l0-0.5l0-0.5c-0.1-0.6-0.2-1.2-0.5-1.7c-0.6-1.1-1.6-1.9-2.8-2.2c-0.6-0.2-1.1-0.2-1.9-0.2l-2.1,0l-4.2,0l-8.5,0l-34,0.1l-34-0.1
			l-34-0.1c-1.2,0-2.4,0.5-3.3,1.3c-0.9,0.9-1.4,2.1-1.4,3.3l0,1.1l0,0.5l0,0.5c0.1,0.6,0.2,1.2,0.5,1.7c0.6,1.1,1.6,1.9,2.8,2.3
			c0.6,0.2,1.2,0.2,1.9,0.2l2.1,0l4.2,0l8.5,0l34,0.1l34,0L186.7,250.5z"/>
	</g>
	<g>
		<path class="st1" d="M146.7,94.1c0,1.6-0.2,3.1-0.6,4.7c0,0-0.1,0.1-0.1,0.1c-1.7,0.1-3.4,0.5-4.9,1.2c-1.5,0.7-2.9,1.7-4.1,2.9
			c-2.3,2.4-3.6,5.8-3.6,9.1c0,0.2-0.1,0.3-0.3,0.4l0,0c-1.6,0.5-3.4,0.8-5.1,0.8c-1.7,0-3.5-0.2-5.1-0.7c-0.4-0.1-0.8-0.2-1.2-0.4
			c-0.4-0.2-0.8-0.3-1.2-0.4c-0.8-0.4-1.6-0.7-2.3-1.2c-1.5-0.9-2.9-2-4.1-3.2c-1.2-1.2-2.2-2.7-3.1-4.2c-0.8-1.5-1.4-3.2-1.8-4.9
			c-0.7-3.4-0.6-7,0.5-10.4l0,0.3v0c0-0.4,0.3-0.8,0.7-0.9l0,0c2.1-0.5,4.1-1.7,5.4-3.4c1.4-1.7,2.1-3.8,2.2-5.9
			c0-0.4,0.2-0.7,0.5-0.9l0,0c3-1.7,6.4-2.6,9.8-2.5c0.8,0.1,1.7,0.1,2.5,0.2l1.3,0.2l1.2,0.3c0.8,0.2,1.6,0.6,2.4,0.9l1.1,0.6
			c0.4,0.2,0.7,0.4,1.1,0.6c1.4,0.9,2.7,2,3.8,3.2c1.1,1.3,2.1,2.6,2.8,4C145.9,87.6,146.7,90.9,146.7,94.1z M146.5,94.1
			c-0.1-3.2-0.9-6.4-2.7-9.1c-0.8-1.4-1.9-2.5-3-3.6c-1.2-1-2.4-2-3.8-2.7c-2.7-1.5-5.8-2.2-8.9-2.2c-3.1,0-6.1,0.8-8.7,2.3l0.5-0.9
			c-0.1,2.6-1,5.2-2.7,7.1c-1.7,2-4,3.4-6.6,3.8l0.7-0.9l0,0l0,0c0,0.1,0,0.2,0,0.3c-0.5,1.5-0.9,3.1-1,4.7c-0.1,1.6,0,3.2,0.3,4.8
			c0.3,1.6,0.9,3.1,1.6,4.5c0.8,1.4,1.6,2.8,2.8,4c1.1,1.2,2.3,2.3,3.7,3.1c0.7,0.5,1.4,0.8,2.1,1.2c0.4,0.2,0.8,0.3,1.1,0.4
			c0.4,0.2,0.8,0.3,1.2,0.4c3.1,0.9,6.5,1,9.7,0.2l-0.3,0.4c0.1-3.5,1.7-6.9,4.2-9.3c2.5-2.5,5.8-3.8,9.3-4l-0.1,0.1
			C146.3,97.2,146.5,95.7,146.5,94.1z"/>
	</g>
	<g>
		<pattern  id="SVGID_10_" xlink:href="#New_Pattern_Swatch_1" patternTransform="matrix(1 0 0 1 7.2 0)">
		</pattern>
		<path class="st11" d="M118.9,77.7V78c-0.1,5-3.7,9.2-8.4,10.1c0,0-1.4,0.2-2.1,0.2c-1.6,0-3.1-0.3-4.4-1c-3.7-1.7-6.2-5.4-6.2-9.6
			c0-5.8,4.8-10.6,10.6-10.6c3.6,0,6.7,1.8,8.7,4.5C118.2,73.4,118.9,75.5,118.9,77.7z"/>
		<path class="st1" d="M119.9,77.7c0,3-1.4,6-3.6,8c-1.1,1-2.4,1.8-3.7,2.3c-0.7,0.3-1.4,0.5-2.1,0.6c-0.7,0.1-1.4,0.2-2.1,0.2
			c-2.9,0-5.8-1.2-7.9-3.2c-2.1-2-3.4-4.9-3.5-7.9c0-3,1.2-6,3.3-8.1c2.1-2.2,5.1-3.4,8.1-3.5c3,0,6.1,1.2,8.2,3.4
			C118.6,71.7,119.9,74.7,119.9,77.7z M117.9,77.7c0-2.5-1.1-5-2.9-6.7c-1.7-1.8-4.2-2.8-6.7-2.8c-2.5,0-5,1-6.8,2.7
			c-1.8,1.8-2.9,4.3-2.9,6.8c-0.1,2.6,0.9,5.2,2.7,7.1c0.9,0.9,2,1.7,3.2,2.2c1.2,0.5,2.5,0.8,3.9,0.8c0.6,0,1.3-0.1,2-0.2
			c0.6-0.1,1.2-0.3,1.8-0.6c1.2-0.5,2.3-1.3,3.1-2.3C117,82.8,118,80.3,117.9,77.7z"/>
	</g>
</g>
</svg>
