<?xml version="1.0" encoding="utf-8"?>
<!-- Generator: Adobe Illustrator 22.1.0, SVG Export Plug-In . SVG Version: 6.00 Build 0)  -->
<svg version="1.1" id="Layer_1" xmlns="http://www.w3.org/2000/svg" xmlns:xlink="http://www.w3.org/1999/xlink" x="0px" y="0px"
	 viewBox="0 0 256 256" style="enable-background:new 0 0 256 256;" xml:space="preserve">
<style type="text/css">
	.st0{fill:none;}
	.st1{fill:#253759;}
	.st2{clip-path:url(#SVGID_2_);fill:#253759;}
	.st3{clip-path:url(#SVGID_4_);fill:#253759;}
	.st4{fill:#FFFFFF;}
	.st5{fill:#A6D6FF;}
	.st6{fill:url(#New_Pattern_Swatch_1);}
	.st7{fill:#A8A7C2;}
	.st8{fill:#FF9D9D;}
	.st9{fill:url(#SVGID_7_);}
	.st10{fill:url(#SVGID_8_);}
	.st11{fill:url(#SVGID_9_);}
	.st12{opacity:0.3;fill:#253759;}
</style>
<pattern  x="-2760" y="-828" width="42.9" height="43" patternUnits="userSpaceOnUse" id="New_Pattern_Swatch_1" viewBox="43 -43 42.9 43" style="overflow:visible;">
	<g>
		<rect x="43" y="-43" class="st0" width="42.9" height="43"/>
		<g>
			<g>
				<circle class="st1" cx="85.9" cy="-41.2" r="0.6"/>
				<circle class="st1" cx="85.9" cy="-37.6" r="0.6"/>
				<circle class="st1" cx="85.9" cy="-34" r="0.6"/>
				<circle class="st1" cx="85.9" cy="-30.4" r="0.6"/>
				<circle class="st1" cx="85.9" cy="-26.9" r="0.6"/>
				<circle class="st1" cx="85.9" cy="-23.3" r="0.6"/>
				<circle class="st1" cx="85.9" cy="-19.7" r="0.6"/>
				<circle class="st1" cx="85.9" cy="-16.1" r="0.6"/>
				<circle class="st1" cx="85.9" cy="-12.6" r="0.6"/>
				<circle class="st1" cx="85.9" cy="-9" r="0.6"/>
				<circle class="st1" cx="85.9" cy="-5.4" r="0.6"/>
				<circle class="st1" cx="85.9" cy="-1.8" r="0.6"/>
				<circle class="st1" cx="85.8" cy="-41.2" r="0.6"/>
				<circle class="st1" cx="85.8" cy="-37.6" r="0.6"/>
				<circle class="st1" cx="85.8" cy="-34" r="0.6"/>
				<circle class="st1" cx="85.8" cy="-30.4" r="0.6"/>
				<circle class="st1" cx="85.8" cy="-26.9" r="0.6"/>
				<circle class="st1" cx="85.8" cy="-23.3" r="0.6"/>
				<circle class="st1" cx="85.8" cy="-19.7" r="0.6"/>
				<circle class="st1" cx="85.8" cy="-16.1" r="0.6"/>
				<circle class="st1" cx="85.8" cy="-12.6" r="0.6"/>
				<circle class="st1" cx="85.8" cy="-9" r="0.6"/>
				<circle class="st1" cx="85.8" cy="-5.4" r="0.6"/>
				<circle class="st1" cx="85.8" cy="-1.8" r="0.6"/>
			</g>
			<g>
				<defs>
					<rect id="SVGID_1_" x="85.8" y="-43" width="43" height="43"/>
				</defs>
				<clipPath id="SVGID_2_">
					<use xlink:href="#SVGID_1_"  style="overflow:visible;"/>
				</clipPath>
				<circle class="st2" cx="85.8" cy="-41.2" r="0.6"/>
				<circle class="st2" cx="85.8" cy="-37.6" r="0.6"/>
				<circle class="st2" cx="85.8" cy="-34" r="0.6"/>
				<circle class="st2" cx="85.8" cy="-30.4" r="0.6"/>
				<circle class="st2" cx="85.8" cy="-26.9" r="0.6"/>
				<circle class="st2" cx="85.8" cy="-23.3" r="0.6"/>
				<circle class="st2" cx="85.8" cy="-19.7" r="0.6"/>
				<circle class="st2" cx="85.8" cy="-16.1" r="0.6"/>
				<circle class="st2" cx="85.8" cy="-12.6" r="0.6"/>
				<circle class="st2" cx="85.8" cy="-9" r="0.6"/>
				<circle class="st2" cx="85.8" cy="-5.4" r="0.6"/>
				<circle class="st2" cx="85.8" cy="-1.8" r="0.6"/>
				<circle class="st2" cx="85.7" cy="-41.2" r="0.6"/>
				<circle class="st2" cx="85.7" cy="-37.6" r="0.6"/>
				<circle class="st2" cx="85.7" cy="-34" r="0.6"/>
				<circle class="st2" cx="85.7" cy="-30.4" r="0.6"/>
				<circle class="st2" cx="85.7" cy="-26.9" r="0.6"/>
				<circle class="st2" cx="85.7" cy="-23.3" r="0.6"/>
				<circle class="st2" cx="85.7" cy="-19.7" r="0.6"/>
				<circle class="st2" cx="85.7" cy="-16.1" r="0.6"/>
				<circle class="st2" cx="85.7" cy="-12.6" r="0.6"/>
				<circle class="st2" cx="85.7" cy="-9" r="0.6"/>
				<circle class="st2" cx="85.7" cy="-5.4" r="0.6"/>
				<circle class="st2" cx="85.7" cy="-1.8" r="0.6"/>
			</g>
		</g>
		<g>
			<g>
				<circle class="st1" cx="85.9" cy="-41.2" r="0.6"/>
				<circle class="st1" cx="85.9" cy="-37.6" r="0.6"/>
				<circle class="st1" cx="85.9" cy="-34" r="0.6"/>
				<circle class="st1" cx="85.9" cy="-30.4" r="0.6"/>
				<circle class="st1" cx="85.9" cy="-26.9" r="0.6"/>
				<circle class="st1" cx="85.9" cy="-23.3" r="0.6"/>
				<circle class="st1" cx="85.9" cy="-19.7" r="0.6"/>
				<circle class="st1" cx="85.9" cy="-16.1" r="0.6"/>
				<circle class="st1" cx="85.9" cy="-12.6" r="0.6"/>
				<circle class="st1" cx="85.9" cy="-9" r="0.6"/>
				<circle class="st1" cx="85.9" cy="-5.4" r="0.6"/>
				<circle class="st1" cx="85.9" cy="-1.8" r="0.6"/>
				<circle class="st1" cx="43" cy="-41.2" r="0.6"/>
				<circle class="st1" cx="46.5" cy="-41.2" r="0.6"/>
				<circle class="st1" cx="50.1" cy="-41.2" r="0.6"/>
				<circle class="st1" cx="53.7" cy="-41.2" r="0.6"/>
				<circle class="st1" cx="43" cy="-37.6" r="0.6"/>
				<circle class="st1" cx="46.5" cy="-37.6" r="0.6"/>
				<circle class="st1" cx="50.1" cy="-37.6" r="0.6"/>
				<circle class="st1" cx="53.7" cy="-37.6" r="0.6"/>
				<circle class="st1" cx="43" cy="-34" r="0.6"/>
				<circle class="st1" cx="46.5" cy="-34" r="0.6"/>
				<circle class="st1" cx="50.1" cy="-34" r="0.6"/>
				<circle class="st1" cx="53.7" cy="-34" r="0.6"/>
				<circle class="st1" cx="43" cy="-30.4" r="0.6"/>
				<circle class="st1" cx="46.5" cy="-30.4" r="0.6"/>
				<circle class="st1" cx="50.1" cy="-30.4" r="0.6"/>
				<circle class="st1" cx="53.7" cy="-30.4" r="0.6"/>
				<circle class="st1" cx="43" cy="-26.9" r="0.6"/>
				<circle class="st1" cx="46.5" cy="-26.9" r="0.6"/>
				<circle class="st1" cx="50.1" cy="-26.9" r="0.6"/>
				<circle class="st1" cx="53.7" cy="-26.9" r="0.6"/>
				<circle class="st1" cx="43" cy="-23.3" r="0.6"/>
				<circle class="st1" cx="46.5" cy="-23.3" r="0.6"/>
				<circle class="st1" cx="50.1" cy="-23.3" r="0.6"/>
				<circle class="st1" cx="53.7" cy="-23.3" r="0.6"/>
				<circle class="st1" cx="57.3" cy="-41.2" r="0.6"/>
				<circle class="st1" cx="60.8" cy="-41.2" r="0.6"/>
				<circle class="st1" cx="64.4" cy="-41.2" r="0.6"/>
				<circle class="st1" cx="68" cy="-41.2" r="0.6"/>
				<circle class="st1" cx="71.5" cy="-41.2" r="0.6"/>
				<circle class="st1" cx="57.3" cy="-37.6" r="0.6"/>
				<circle class="st1" cx="60.8" cy="-37.6" r="0.6"/>
				<circle class="st1" cx="64.4" cy="-37.6" r="0.6"/>
				<circle class="st1" cx="68" cy="-37.6" r="0.6"/>
				<circle class="st1" cx="71.5" cy="-37.6" r="0.6"/>
				<circle class="st1" cx="57.3" cy="-34" r="0.6"/>
				<circle class="st1" cx="60.8" cy="-34" r="0.6"/>
				<circle class="st1" cx="64.4" cy="-34" r="0.6"/>
				<circle class="st1" cx="68" cy="-34" r="0.6"/>
				<circle class="st1" cx="71.5" cy="-34" r="0.6"/>
				<circle class="st1" cx="57.3" cy="-30.4" r="0.6"/>
				<circle class="st1" cx="60.8" cy="-30.4" r="0.6"/>
				<circle class="st1" cx="64.4" cy="-30.4" r="0.6"/>
				<circle class="st1" cx="68" cy="-30.4" r="0.6"/>
				<circle class="st1" cx="71.5" cy="-30.4" r="0.6"/>
				<circle class="st1" cx="57.3" cy="-26.9" r="0.6"/>
				<circle class="st1" cx="60.8" cy="-26.9" r="0.6"/>
				<circle class="st1" cx="64.4" cy="-26.9" r="0.6"/>
				<circle class="st1" cx="68" cy="-26.9" r="0.6"/>
				<circle class="st1" cx="71.5" cy="-26.9" r="0.6"/>
				<circle class="st1" cx="57.3" cy="-23.3" r="0.6"/>
				<circle class="st1" cx="60.8" cy="-23.3" r="0.6"/>
				<circle class="st1" cx="64.4" cy="-23.3" r="0.6"/>
				<circle class="st1" cx="68" cy="-23.3" r="0.6"/>
				<circle class="st1" cx="71.5" cy="-23.3" r="0.6"/>
				<circle class="st1" cx="75.1" cy="-41.2" r="0.6"/>
				<circle class="st1" cx="78.7" cy="-41.2" r="0.6"/>
				<circle class="st1" cx="82.3" cy="-41.2" r="0.6"/>
				<circle class="st1" cx="85.8" cy="-41.2" r="0.6"/>
				<circle class="st1" cx="75.1" cy="-37.6" r="0.6"/>
				<circle class="st1" cx="78.7" cy="-37.6" r="0.6"/>
				<circle class="st1" cx="82.3" cy="-37.6" r="0.6"/>
				<circle class="st1" cx="85.8" cy="-37.6" r="0.6"/>
				<circle class="st1" cx="75.1" cy="-34" r="0.6"/>
				<circle class="st1" cx="78.7" cy="-34" r="0.6"/>
				<circle class="st1" cx="82.3" cy="-34" r="0.6"/>
				<circle class="st1" cx="85.8" cy="-34" r="0.6"/>
				<circle class="st1" cx="75.1" cy="-30.4" r="0.6"/>
				<circle class="st1" cx="78.7" cy="-30.4" r="0.6"/>
				<circle class="st1" cx="82.3" cy="-30.4" r="0.6"/>
				<circle class="st1" cx="85.8" cy="-30.4" r="0.6"/>
				<circle class="st1" cx="75.1" cy="-26.9" r="0.6"/>
				<circle class="st1" cx="78.7" cy="-26.9" r="0.6"/>
				<circle class="st1" cx="82.3" cy="-26.9" r="0.6"/>
				<circle class="st1" cx="85.8" cy="-26.9" r="0.6"/>
				<circle class="st1" cx="75.1" cy="-23.3" r="0.6"/>
				<circle class="st1" cx="78.7" cy="-23.3" r="0.6"/>
				<circle class="st1" cx="82.3" cy="-23.3" r="0.6"/>
				<circle class="st1" cx="85.8" cy="-23.3" r="0.6"/>
				<circle class="st1" cx="43" cy="-19.7" r="0.6"/>
				<circle class="st1" cx="46.5" cy="-19.7" r="0.6"/>
				<circle class="st1" cx="50.1" cy="-19.7" r="0.6"/>
				<circle class="st1" cx="53.7" cy="-19.7" r="0.6"/>
				<circle class="st1" cx="43" cy="-16.1" r="0.6"/>
				<circle class="st1" cx="46.5" cy="-16.1" r="0.6"/>
				<circle class="st1" cx="50.1" cy="-16.1" r="0.6"/>
				<circle class="st1" cx="53.7" cy="-16.1" r="0.6"/>
				<circle class="st1" cx="43" cy="-12.6" r="0.6"/>
				<circle class="st1" cx="46.5" cy="-12.6" r="0.6"/>
				<circle class="st1" cx="50.1" cy="-12.6" r="0.6"/>
				<circle class="st1" cx="53.7" cy="-12.6" r="0.6"/>
				<circle class="st1" cx="43" cy="-9" r="0.6"/>
				<circle class="st1" cx="46.5" cy="-9" r="0.6"/>
				<circle class="st1" cx="50.1" cy="-9" r="0.6"/>
				<circle class="st1" cx="53.7" cy="-9" r="0.6"/>
				<circle class="st1" cx="43" cy="-5.4" r="0.6"/>
				<circle class="st1" cx="46.5" cy="-5.4" r="0.6"/>
				<circle class="st1" cx="50.1" cy="-5.4" r="0.6"/>
				<circle class="st1" cx="53.7" cy="-5.4" r="0.6"/>
				<circle class="st1" cx="43" cy="-1.8" r="0.6"/>
				<circle class="st1" cx="46.5" cy="-1.8" r="0.6"/>
				<circle class="st1" cx="50.1" cy="-1.8" r="0.6"/>
				<circle class="st1" cx="53.7" cy="-1.8" r="0.6"/>
				<circle class="st1" cx="57.3" cy="-19.7" r="0.6"/>
				<circle class="st1" cx="60.8" cy="-19.7" r="0.6"/>
				<circle class="st1" cx="64.4" cy="-19.7" r="0.6"/>
				<circle class="st1" cx="68" cy="-19.7" r="0.6"/>
				<circle class="st1" cx="71.5" cy="-19.7" r="0.6"/>
				<circle class="st1" cx="57.3" cy="-16.1" r="0.6"/>
				<circle class="st1" cx="60.8" cy="-16.1" r="0.6"/>
				<circle class="st1" cx="64.4" cy="-16.1" r="0.6"/>
				<circle class="st1" cx="68" cy="-16.1" r="0.6"/>
				<circle class="st1" cx="71.5" cy="-16.1" r="0.6"/>
				<circle class="st1" cx="57.3" cy="-12.6" r="0.6"/>
				<circle class="st1" cx="60.8" cy="-12.6" r="0.6"/>
				<circle class="st1" cx="64.4" cy="-12.6" r="0.6"/>
				<circle class="st1" cx="68" cy="-12.6" r="0.6"/>
				<circle class="st1" cx="71.5" cy="-12.6" r="0.6"/>
				<circle class="st1" cx="57.3" cy="-9" r="0.6"/>
				<circle class="st1" cx="60.8" cy="-9" r="0.6"/>
				<circle class="st1" cx="64.4" cy="-9" r="0.6"/>
				<circle class="st1" cx="68" cy="-9" r="0.6"/>
				<circle class="st1" cx="71.5" cy="-9" r="0.6"/>
				<circle class="st1" cx="57.3" cy="-5.4" r="0.6"/>
				<circle class="st1" cx="60.8" cy="-5.4" r="0.6"/>
				<circle class="st1" cx="64.4" cy="-5.4" r="0.6"/>
				<circle class="st1" cx="68" cy="-5.4" r="0.6"/>
				<circle class="st1" cx="71.5" cy="-5.4" r="0.6"/>
				<circle class="st1" cx="57.3" cy="-1.8" r="0.6"/>
				<circle class="st1" cx="60.8" cy="-1.8" r="0.6"/>
				<circle class="st1" cx="64.4" cy="-1.8" r="0.6"/>
				<circle class="st1" cx="68" cy="-1.8" r="0.6"/>
				<circle class="st1" cx="71.5" cy="-1.8" r="0.6"/>
				<circle class="st1" cx="75.1" cy="-19.7" r="0.6"/>
				<circle class="st1" cx="78.7" cy="-19.7" r="0.6"/>
				<circle class="st1" cx="82.3" cy="-19.7" r="0.6"/>
				<circle class="st1" cx="85.8" cy="-19.7" r="0.6"/>
				<circle class="st1" cx="75.1" cy="-16.1" r="0.6"/>
				<circle class="st1" cx="78.7" cy="-16.1" r="0.6"/>
				<circle class="st1" cx="82.3" cy="-16.1" r="0.6"/>
				<circle class="st1" cx="85.8" cy="-16.1" r="0.6"/>
				<circle class="st1" cx="75.1" cy="-12.6" r="0.6"/>
				<circle class="st1" cx="78.7" cy="-12.6" r="0.6"/>
				<circle class="st1" cx="82.3" cy="-12.6" r="0.6"/>
				<circle class="st1" cx="85.8" cy="-12.6" r="0.6"/>
				<circle class="st1" cx="75.1" cy="-9" r="0.6"/>
				<circle class="st1" cx="78.7" cy="-9" r="0.6"/>
				<circle class="st1" cx="82.3" cy="-9" r="0.6"/>
				<circle class="st1" cx="85.8" cy="-9" r="0.6"/>
				<circle class="st1" cx="75.1" cy="-5.4" r="0.6"/>
				<circle class="st1" cx="78.7" cy="-5.4" r="0.6"/>
				<circle class="st1" cx="82.3" cy="-5.4" r="0.6"/>
				<circle class="st1" cx="85.8" cy="-5.4" r="0.6"/>
				<circle class="st1" cx="75.1" cy="-1.8" r="0.6"/>
				<circle class="st1" cx="78.7" cy="-1.8" r="0.6"/>
				<circle class="st1" cx="82.3" cy="-1.8" r="0.6"/>
				<circle class="st1" cx="85.8" cy="-1.8" r="0.6"/>
				<circle class="st1" cx="42.9" cy="-41.2" r="0.6"/>
				<circle class="st1" cx="42.9" cy="-37.6" r="0.6"/>
				<circle class="st1" cx="42.9" cy="-34" r="0.6"/>
				<circle class="st1" cx="42.9" cy="-30.4" r="0.6"/>
				<circle class="st1" cx="42.9" cy="-26.9" r="0.6"/>
				<circle class="st1" cx="42.9" cy="-23.3" r="0.6"/>
				<circle class="st1" cx="42.9" cy="-19.7" r="0.6"/>
				<circle class="st1" cx="42.9" cy="-16.1" r="0.6"/>
				<circle class="st1" cx="42.9" cy="-12.6" r="0.6"/>
				<circle class="st1" cx="42.9" cy="-9" r="0.6"/>
				<circle class="st1" cx="42.9" cy="-5.4" r="0.6"/>
				<circle class="st1" cx="42.9" cy="-1.8" r="0.6"/>
			</g>
			<g>
				<defs>
					<rect id="SVGID_3_" x="42.9" y="-43" width="43" height="43"/>
				</defs>
				<clipPath id="SVGID_4_">
					<use xlink:href="#SVGID_3_"  style="overflow:visible;"/>
				</clipPath>
				<circle class="st3" cx="42.9" cy="-41.2" r="0.6"/>
				<circle class="st3" cx="42.9" cy="-37.6" r="0.6"/>
				<circle class="st3" cx="42.9" cy="-34" r="0.6"/>
				<circle class="st3" cx="42.9" cy="-30.4" r="0.6"/>
				<circle class="st3" cx="42.9" cy="-26.9" r="0.6"/>
				<circle class="st3" cx="42.9" cy="-23.3" r="0.6"/>
				<circle class="st3" cx="42.9" cy="-19.7" r="0.6"/>
				<circle class="st3" cx="42.9" cy="-16.1" r="0.6"/>
				<circle class="st3" cx="42.9" cy="-12.6" r="0.6"/>
				<circle class="st3" cx="42.9" cy="-9" r="0.6"/>
				<circle class="st3" cx="42.9" cy="-5.4" r="0.6"/>
				<circle class="st3" cx="42.9" cy="-1.8" r="0.6"/>
				<circle class="st3" cx="42.8" cy="-41.2" r="0.6"/>
				<circle class="st3" cx="42.8" cy="-37.6" r="0.6"/>
				<circle class="st3" cx="42.8" cy="-34" r="0.6"/>
				<circle class="st3" cx="42.8" cy="-30.4" r="0.6"/>
				<circle class="st3" cx="42.8" cy="-26.9" r="0.6"/>
				<circle class="st3" cx="42.8" cy="-23.3" r="0.6"/>
				<circle class="st3" cx="42.8" cy="-19.7" r="0.6"/>
				<circle class="st3" cx="42.8" cy="-16.1" r="0.6"/>
				<circle class="st3" cx="42.8" cy="-12.6" r="0.6"/>
				<circle class="st3" cx="42.8" cy="-9" r="0.6"/>
				<circle class="st3" cx="42.8" cy="-5.4" r="0.6"/>
				<circle class="st3" cx="42.8" cy="-1.8" r="0.6"/>
			</g>
		</g>
		<g>
			<g>
				<circle class="st1" cx="43" cy="-41.2" r="0.6"/>
				<circle class="st1" cx="43" cy="-37.6" r="0.6"/>
				<circle class="st1" cx="43" cy="-34" r="0.6"/>
				<circle class="st1" cx="43" cy="-30.4" r="0.6"/>
				<circle class="st1" cx="43" cy="-26.9" r="0.6"/>
				<circle class="st1" cx="43" cy="-23.3" r="0.6"/>
				<circle class="st1" cx="43" cy="-19.7" r="0.6"/>
				<circle class="st1" cx="43" cy="-16.1" r="0.6"/>
				<circle class="st1" cx="43" cy="-12.6" r="0.6"/>
				<circle class="st1" cx="43" cy="-9" r="0.6"/>
				<circle class="st1" cx="43" cy="-5.4" r="0.6"/>
				<circle class="st1" cx="43" cy="-1.8" r="0.6"/>
				<circle class="st1" cx="42.9" cy="-41.2" r="0.6"/>
				<circle class="st1" cx="42.9" cy="-37.6" r="0.6"/>
				<circle class="st1" cx="42.9" cy="-34" r="0.6"/>
				<circle class="st1" cx="42.9" cy="-30.4" r="0.6"/>
				<circle class="st1" cx="42.9" cy="-26.9" r="0.6"/>
				<circle class="st1" cx="42.9" cy="-23.3" r="0.6"/>
				<circle class="st1" cx="42.9" cy="-19.7" r="0.6"/>
				<circle class="st1" cx="42.9" cy="-16.1" r="0.6"/>
				<circle class="st1" cx="42.9" cy="-12.6" r="0.6"/>
				<circle class="st1" cx="42.9" cy="-9" r="0.6"/>
				<circle class="st1" cx="42.9" cy="-5.4" r="0.6"/>
				<circle class="st1" cx="42.9" cy="-1.8" r="0.6"/>
			</g>
			<g>
				<defs>
					<rect id="SVGID_5_" y="-43" width="43" height="43"/>
				</defs>
				<clipPath id="SVGID_6_">
					<use xlink:href="#SVGID_5_"  style="overflow:visible;"/>
				</clipPath>
			</g>
		</g>
	</g>
</pattern>
<g>
	<g>
		<path class="st4" d="M238.5,122.6v6.7c-2.1-0.9-4.4-1.4-6.9-1.4c-2.8,0-5.4,0.6-7.7,1.8v-7.1c0-21.6-7.2-41.6-19.3-57.6l7.9-13.6
			C228.7,70.6,238.5,95.5,238.5,122.6z"/>
		<path class="st1" d="M238.6,122.6l0,6.7c0,0.1,0,0.1-0.1,0.1c0,0,0,0,0,0c-2.3-1-4.8-1.5-7.3-1.4c-2.5,0.1-5,0.7-7.2,1.9
			c-0.1,0-0.2,0-0.3-0.1c0,0,0-0.1,0-0.1c-0.1-5.7-0.1-11.5-0.8-17.2c-0.7-5.7-1.8-11.3-3.5-16.8c-3.3-10.9-8.6-21.2-15.5-30.3
			c-0.2-0.3-0.2-0.6-0.1-0.9l0,0l7.8-13.7c0.2-0.4,0.8-0.6,1.2-0.3c0.1,0.1,0.2,0.1,0.2,0.2l0,0c4.2,4.9,8,10.3,11.3,15.9
			c3.3,5.6,6,11.6,8.2,17.7c2.2,6.1,3.6,12.5,4.6,18.9C238.2,109.7,238.7,116.2,238.6,122.6z M238.4,122.6c-0.1-6.4-0.7-12.9-2-19.2
			c-1.3-6.3-3.2-12.5-5.4-18.4c-2.3-6-5-11.8-8.3-17.3c-3.2-5.5-6.9-10.8-10.9-15.7l1.5-0.1l-8,13.6l-0.1-0.9
			c6.9,9.3,12.1,19.8,15.3,30.9c1.6,5.6,2.7,11.3,3.2,17c0.6,5.7,0.4,11.5,0.3,17.3l-0.3-0.2c2.3-1.1,4.8-1.7,7.4-1.8
			c2.5,0,5.1,0.4,7.4,1.5l-0.1,0.1L238.4,122.6z"/>
	</g>
	<path class="st5" d="M82.4,242.2c-19.3,5.2-39.1-6.3-44.3-25.6l-0.8-3l-0.8-3.2c-2.4-8.9-1.2-18,2.6-25.6
		C43.6,176,51.7,169,62,166.3L82.4,242.2z"/>
	<g>
		<path class="st6" d="M82.4,242.2c-19.3,5.2-39.1-6.3-44.3-25.6l-0.8-3l-0.8-3.2c-2.4-8.9-1.2-18,2.6-25.6
			C43.6,176,51.7,169,62,166.3L82.4,242.2z"/>
		<path class="st1" d="M82.5,242.3c-1.2,0.3-2.5,0.6-3.8,0.9c-1.2,0.1-2.5,0.3-3.7,0.4c-1.3,0-2.5,0.1-3.8,0
			c-1.2-0.1-2.5-0.2-3.8-0.4c-5-0.7-9.8-2.5-14.1-5.2c-4.3-2.7-8-6.2-10.8-10.4l-0.5-0.8l-0.5-0.8l-0.9-1.6
			c-0.3-0.5-0.6-1.1-0.8-1.7L39,221c-0.9-2.4-1.6-4.8-2.3-7.2c-0.6-2.4-1.4-4.8-1.7-7.4c-0.4-2.5-0.5-5.1-0.4-7.6
			c0.3-5.1,1.7-10.1,4-14.6c4.6-9.1,13.2-16.1,23.1-18.6l0,0c0.4-0.1,0.8,0.1,0.9,0.5l0,0l0,0c1.9,6.3,3.7,12.7,5.4,19.1l2.5,9.6
			l2.4,9.6c1.6,6.4,3.2,12.8,4.8,19.1L82.5,242.3z M82.3,242.2L76.7,223l-5.4-18.9l-2.7-9.4l-2.6-9.4c-1.7-6.3-3.3-12.5-4.8-18.9
			l0.9,0.5l0,0c-4.7,1.3-9.2,3.6-13,6.6c-3.8,3.1-7,6.9-9.3,11.2c-2.3,4.3-3.7,9.1-4,14c-0.2,2.4-0.1,4.9,0.3,7.3
			c0.3,2.4,1,4.8,1.6,7.2c0.6,2.4,1.3,4.8,2.1,7.1l0.7,1.7c0.2,0.6,0.5,1.1,0.8,1.7l0.9,1.6l0.4,0.8l0.5,0.8
			c2.7,4.1,6.3,7.7,10.4,10.3c4.1,2.7,8.9,4.5,13.8,5.3c1.2,0.2,2.5,0.3,3.7,0.4c1.2,0.1,2.5,0,3.7,0c1.2-0.1,2.5-0.2,3.7-0.4
			L82.3,242.2z"/>
	</g>
	<g>
		<path class="st5" d="M109.1,249.5l-5.7,1.5c-3.4,0.9-7-1.1-7.9-4.5l-24.2-90.4c-0.9-3.4,1.1-7,4.5-7.9l5.7-1.5
			c3.4-0.9,7,1.1,7.9,4.5l24.2,90.4C114.6,245,112.5,248.5,109.1,249.5z"/>
		<path class="st1" d="M109.2,249.8l-3.6,0.9l-1.8,0.5c-0.6,0.2-1.3,0.3-1.9,0.3c-2.6,0.1-5.1-1.5-6.2-3.9c-0.3-0.6-0.4-1.2-0.6-1.8
			l-0.5-1.8l-1-3.6l-2-7.2l-8-28.9l-7.9-28.9l-3.9-14.4l-1-3.6c-0.2-0.6-0.3-1.2-0.5-1.9c-0.1-0.7-0.1-1.4,0-2.1
			c0.4-2.8,2.5-5.2,5.2-5.9l3.6-1l1.8-0.5c0.6-0.2,1.3-0.3,2-0.3c2.8-0.1,5.6,1.6,6.8,4.2c0.2,0.3,0.3,0.7,0.4,1
			c0.1,0.3,0.2,0.6,0.3,0.9l0.5,1.8l1,3.6l2,7.2c2.7,9.6,5.2,19.3,7.8,28.9l7.5,29l3.7,14.5l0.9,3.6c0.2,0.6,0.3,1.2,0.4,1.9
			c0.1,0.7,0.1,1.3,0,2C113.9,246.9,111.8,249.2,109.2,249.8z M109,249.1c2.3-0.6,4.1-2.7,4.4-5c0.1-0.6,0.1-1.2,0-1.7
			c-0.1-0.6-0.3-1.2-0.5-1.8l-1-3.6l-4.1-14.4l-8-28.8c-2.6-9.6-5.2-19.3-7.7-28.9l-1.9-7.2l-1-3.6l-0.5-1.8
			c-0.1-0.3-0.2-0.6-0.2-0.9c-0.1-0.3-0.2-0.5-0.3-0.8c-0.9-2-3-3.3-5.2-3.3c-0.6,0-1,0.1-1.6,0.3l-1.8,0.5L76,149
			c-2.1,0.5-3.8,2.4-4.1,4.6c-0.1,0.5-0.1,1.1,0,1.6c0.1,0.5,0.3,1.1,0.4,1.7l1,3.6L77,175l7.6,28.9l7.5,29l1.9,7.2l0.9,3.6l0.5,1.8
			c0.2,0.6,0.3,1.2,0.6,1.7c1,2.2,3.4,3.7,5.8,3.6c0.6,0,1.2-0.1,1.8-0.3l1.8-0.5L109,249.1z"/>
	</g>
	<g>
		<path class="st6" d="M109.1,249.5l-5.7,1.5c-3.4,0.9-7-1.1-7.9-4.5l-24.2-90.4c-0.9-3.4,1.1-7,4.5-7.9l5.7-1.5
			c3.4-0.9,7,1.1,7.9,4.5l24.2,90.4C114.6,245,112.5,248.5,109.1,249.5z"/>
		<path class="st1" d="M109.2,249.8l-3.6,0.9l-1.8,0.5c-0.6,0.2-1.3,0.3-1.9,0.3c-2.6,0.1-5.1-1.5-6.2-3.9c-0.3-0.6-0.4-1.2-0.6-1.8
			l-0.5-1.8l-1-3.6l-2-7.2l-8-28.9l-7.9-28.9l-3.9-14.4l-1-3.6c-0.2-0.6-0.3-1.2-0.5-1.9c-0.1-0.7-0.1-1.4,0-2.1
			c0.4-2.8,2.5-5.2,5.2-5.9l3.6-1l1.8-0.5c0.6-0.2,1.3-0.3,2-0.3c2.8-0.1,5.6,1.6,6.8,4.2c0.2,0.3,0.3,0.7,0.4,1
			c0.1,0.3,0.2,0.6,0.3,0.9l0.5,1.8l1,3.6l2,7.2c2.7,9.6,5.2,19.3,7.8,28.9l7.5,29l3.7,14.5l0.9,3.6c0.2,0.6,0.3,1.2,0.4,1.9
			c0.1,0.7,0.1,1.3,0,2C113.9,246.9,111.8,249.2,109.2,249.8z M109,249.1c2.3-0.6,4.1-2.7,4.4-5c0.1-0.6,0.1-1.2,0-1.7
			c-0.1-0.6-0.3-1.2-0.5-1.8l-1-3.6l-4.1-14.4l-8-28.8c-2.6-9.6-5.2-19.3-7.7-28.9l-1.9-7.2l-1-3.6l-0.5-1.8
			c-0.1-0.3-0.2-0.6-0.2-0.9c-0.1-0.3-0.2-0.5-0.3-0.8c-0.9-2-3-3.3-5.2-3.3c-0.6,0-1,0.1-1.6,0.3l-1.8,0.5L76,149
			c-2.1,0.5-3.8,2.4-4.1,4.6c-0.1,0.5-0.1,1.1,0,1.6c0.1,0.5,0.3,1.1,0.4,1.7l1,3.6L77,175l7.6,28.9l7.5,29l1.9,7.2l0.9,3.6l0.5,1.8
			c0.2,0.6,0.3,1.2,0.6,1.7c1,2.2,3.4,3.7,5.8,3.6c0.6,0,1.2-0.1,1.8-0.3l1.8-0.5L109,249.1z"/>
	</g>
	<g>
		<path class="st4" d="M36.5,210.5l0.8,3.2l-13.7-51.1c0.2,0,0.5,0,0.8,0c3,0,5.8-0.7,8.2-2.1l6.5,24.3
			C35.2,192.6,34.1,201.6,36.5,210.5z"/>
		<path class="st1" d="M36.6,210.5l0.8,3.2c0,0,0,0.1-0.1,0.1c0,0-0.1,0-0.1-0.1c-1.1-4.3-2.4-8.5-3.6-12.7
			c-1.3-4.2-2.4-8.5-3.6-12.7l-3.5-12.8c-1.1-4.3-2.3-8.5-3.3-12.8c-0.1-0.2,0.1-0.5,0.3-0.6c0.1,0,0.1,0,0.1,0l0,0
			c0.7,0.1,1.5,0.1,2.2,0c0.8-0.1,1.5-0.2,2.2-0.4c1.5-0.3,2.9-0.9,4.2-1.6l0,0c0.2-0.1,0.5,0,0.6,0.2l0,0.1l0,0c0.7,2,1.3,4,2,6
			c0.6,2,1.2,4,1.8,6c0.6,2,1.2,4,1.7,6.1c0.5,2,1.1,4.1,1.6,6.1l0,0c0.1,0.2,0,0.5-0.1,0.7c-1,1.9-1.8,3.9-2.5,5.9
			c-0.7,2-1.2,4.1-1.5,6.3c-0.3,2.1-0.4,4.3-0.3,6.5C35.7,206.2,36,208.4,36.6,210.5z M36.4,210.6c-0.6-2.1-1-4.3-1.3-6.5
			c-0.2-2.2-0.3-4.4-0.2-6.6c0.1-2.2,0.5-4.4,1-6.6c0.5-2.2,1.3-4.3,2.3-6.3l-0.1,0.7c-0.6-2-1.1-4-1.7-6.1c-0.6-2-1.1-4.1-1.6-6.1
			c-0.5-2-1-4.1-1.5-6.1c-0.4-2.1-0.9-4.1-1.3-6.2l0.6,0.3l0,0c-1.4,0.8-2.9,1.3-4.5,1.7c-0.8,0.2-1.6,0.3-2.4,0.3
			c-0.8,0.1-1.6,0.1-2.4,0.1l0.5-0.6c1.2,4.2,2.4,8.5,3.5,12.8l3.4,12.8c1.1,4.3,2.2,8.5,3.2,12.8c1.1,4.3,2.1,8.6,3.2,12.8l-0.2,0
			L36.4,210.6z"/>
	</g>
	<g>
		<path class="st7" d="M41.7,145.2c0,6.6-3.7,12.4-9.2,15.3c-2.4,1.3-5.3,2.1-8.2,2.1c-0.2,0-0.5,0-0.8,0c-9.2-0.4-16.6-8-16.6-17.4
			c0-7.1,4.3-13.3,10.5-15.9c2.1-0.9,4.4-1.4,6.9-1.4c2.8,0,5.4,0.6,7.7,1.8C37.8,132.5,41.7,138.4,41.7,145.2z"/>
		<path class="st1" d="M42.7,145.2c0,2.5-0.6,4.9-1.6,7.2c-1,2.2-2.5,4.2-4.3,5.9c-1.8,1.6-3.9,2.9-6.2,3.7
			c-2.3,0.8-4.7,1.2-7.1,1.1l0,0c-1.7-0.1-3.5-0.4-5.1-1c-1.6-0.6-3.2-1.4-4.6-2.4c-2.8-2-5.1-4.9-6.4-8.2c-0.7-1.6-1-3.4-1.2-5.1
			c-0.2-1.8,0-3.5,0.3-5.3c0.7-3.5,2.5-6.7,5.1-9.2c2.6-2.5,5.9-4.2,9.4-4.8c3.5-0.7,7.2-0.3,10.5,1.2c3.3,1.4,6.2,3.8,8.1,6.8
			C41.7,138.1,42.7,141.7,42.7,145.2z M40.8,145.2c0-3.2-1-6.4-2.8-9c-1.8-2.6-4.3-4.8-7.2-6c-2.9-1.3-6.2-1.6-9.4-1.1
			c-3.1,0.6-6.1,2.1-8.4,4.2c-2.3,2.2-4,5.1-4.8,8.2c-0.4,1.6-0.5,3.2-0.4,4.8c0.1,1.6,0.4,3.2,0.9,4.7c1.1,3.1,3.1,5.8,5.7,7.7
			c1.3,1,2.8,1.8,4.3,2.3c1.6,0.5,3.2,0.8,4.8,0.9l0,0c2.2,0.1,4.5-0.3,6.6-1.1c2.1-0.8,4-2.1,5.6-3.7c1.6-1.6,2.8-3.5,3.7-5.6
			C40.4,149.7,40.8,147.5,40.8,145.2z"/>
	</g>
	<g>
		<path class="st5" d="M173.6,242.2c19.3,5.2,39.1-6.3,44.3-25.6l0.8-3l0.8-3.2c2.4-8.9,1.2-18-2.6-25.6
			c-4.5-8.9-12.6-15.9-22.9-18.7L173.6,242.2z"/>
		<path class="st1" d="M173.7,242.2l3.6,0.7c1.2,0.1,2.5,0.3,3.7,0.4c1.2,0,2.5,0,3.7,0c1.2-0.1,2.5-0.2,3.7-0.4
			c4.9-0.8,9.6-2.6,13.8-5.3c4.2-2.7,7.7-6.2,10.4-10.4l0.5-0.8l0.4-0.8l0.9-1.6c0.3-0.5,0.6-1.1,0.8-1.7l0.7-1.7
			c0.9-2.3,1.5-4.7,2.1-7.1c0.6-2.4,1.3-4.8,1.6-7.2c0.3-2.4,0.4-4.9,0.3-7.3c-0.4-4.9-1.7-9.7-4-14c-2.3-4.3-5.5-8.2-9.3-11.2
			c-3.8-3-8.3-5.2-13-6.5l1.2-0.7c-1.6,6.3-3.3,12.6-5,18.8l-2.6,9.4l-2.7,9.4c-1.8,6.3-3.6,12.6-5.4,18.9L173.7,242.2z
			 M173.5,242.3l4.6-18.9c1.5-6.3,3.2-12.7,4.8-19.1l2.4-9.6l2.5-9.6c1.7-6.4,3.4-12.8,5.2-19.2l0,0c0.1-0.5,0.7-0.8,1.2-0.7l0,0
			c4.9,1.4,9.6,3.8,13.6,7c4,3.2,7.2,7.3,9.6,11.8c2.4,4.5,3.7,9.6,4,14.6c0.1,2.5,0,5.1-0.4,7.6c-0.4,2.5-1.1,5-1.7,7.4
			c-0.6,2.4-1.3,4.8-2.3,7.2l-0.8,1.7c-0.3,0.6-0.5,1.2-0.8,1.7l-0.9,1.6l-0.5,0.8l-0.5,0.8c-2.8,4.2-6.6,7.8-10.8,10.4
			C194,243.4,183.3,245.1,173.5,242.3z"/>
	</g>
	<g>
		<path class="st5" d="M146.9,249.5l5.7,1.5c3.4,0.9,7-1.1,7.9-4.5l24.2-90.4c0.9-3.4-1.1-7-4.5-7.9l-5.7-1.5
			c-3.4-0.9-7,1.1-7.9,4.5l-24.2,90.4C141.4,245,143.5,248.5,146.9,249.5z"/>
		<path class="st1" d="M147,249l3.6,1l1.8,0.5c0.6,0.2,1.1,0.3,1.7,0.3c2.3,0.1,4.7-1.4,5.6-3.5c0.3-0.5,0.4-1.1,0.6-1.7l0.5-1.8
			l1-3.6l1.9-7.2l7.6-28.9l7.6-28.9l3.8-14.5l0.9-3.6c0.2-0.6,0.3-1.2,0.4-1.7c0.1-0.5,0.1-1.1,0-1.6c-0.3-2.2-2-4.1-4.2-4.6
			l-3.6-0.9l-1.8-0.5c-0.6-0.2-1.1-0.3-1.6-0.3c-2.2-0.1-4.3,1.3-5.2,3.3c-0.1,0.2-0.2,0.5-0.3,0.8c-0.1,0.3-0.2,0.6-0.2,0.9
			l-0.5,1.8l-0.9,3.6l-1.9,7.2l-7.7,28.9l-4,14.4l-4,14.4l-4.1,14.4l-1,3.6c-0.2,0.6-0.3,1.2-0.4,1.8c-0.1,0.6-0.1,1.1,0,1.7
			C143,246.4,144.7,248.4,147,249z M146.8,249.9c-2.6-0.6-4.7-3-5.1-5.6c-0.1-0.7-0.1-1.3,0-2c0.1-0.7,0.3-1.3,0.4-1.9l0.9-3.6
			l3.7-14.5l3.7-14.5l3.8-14.5l7.8-28.9l2-7.2l1-3.6l0.5-1.8c0.1-0.3,0.2-0.6,0.3-0.9c0.1-0.3,0.2-0.7,0.4-1c1.2-2.6,4-4.3,6.8-4.2
			c0.7,0,1.4,0.2,2,0.3l1.8,0.5l3.6,1c2.7,0.7,4.9,3.2,5.2,5.9c0.1,0.7,0.1,1.4,0,2.1c-0.1,0.7-0.3,1.3-0.5,1.9l-1,3.6l-4,14.4
			l-7.9,28.9l-7.8,28.9l-1.9,7.2l-1,3.6l-0.5,1.8c-0.2,0.6-0.3,1.2-0.6,1.8c-1.1,2.4-3.7,4.1-6.4,4c-0.7,0-1.3-0.1-1.9-0.3l-1.8-0.5
			L146.8,249.9z"/>
	</g>
	<g>
		<path class="st6" d="M173.6,242.2c19.3,5.2,39.1-6.3,44.3-25.6l0.8-3l0.8-3.2c2.4-8.9,1.2-18-2.6-25.6
			c-4.5-8.9-12.6-15.9-22.9-18.7L173.6,242.2z"/>
		<path class="st1" d="M173.7,242.2l3.6,0.7c1.2,0.1,2.5,0.3,3.7,0.4c1.2,0,2.5,0,3.7,0c1.2-0.1,2.5-0.2,3.7-0.4
			c4.9-0.8,9.6-2.6,13.8-5.3c4.2-2.7,7.7-6.2,10.4-10.4l0.5-0.8l0.4-0.8l0.9-1.6c0.3-0.5,0.6-1.1,0.8-1.7l0.7-1.7
			c0.9-2.3,1.5-4.7,2.1-7.1c0.6-2.4,1.3-4.8,1.6-7.2c0.3-2.4,0.4-4.9,0.3-7.3c-0.4-4.9-1.7-9.7-4-14c-2.3-4.3-5.5-8.2-9.3-11.2
			c-3.8-3-8.3-5.2-13-6.5l1.2-0.7c-1.6,6.3-3.3,12.6-5,18.8l-2.6,9.4l-2.7,9.4c-1.8,6.3-3.6,12.6-5.4,18.9L173.7,242.2z
			 M173.5,242.3l4.6-18.9c1.5-6.3,3.2-12.7,4.8-19.1l2.4-9.6l2.5-9.6c1.7-6.4,3.4-12.8,5.2-19.2l0,0c0.1-0.5,0.7-0.8,1.2-0.7l0,0
			c4.9,1.4,9.6,3.8,13.6,7c4,3.2,7.2,7.3,9.6,11.8c2.4,4.5,3.7,9.6,4,14.6c0.1,2.5,0,5.1-0.4,7.6c-0.4,2.5-1.1,5-1.7,7.4
			c-0.6,2.4-1.3,4.8-2.3,7.2l-0.8,1.7c-0.3,0.6-0.5,1.2-0.8,1.7l-0.9,1.6l-0.5,0.8l-0.5,0.8c-2.8,4.2-6.6,7.8-10.8,10.4
			C194,243.4,183.3,245.1,173.5,242.3z"/>
	</g>
	<g>
		<path class="st6" d="M146.9,249.5l5.7,1.5c3.4,0.9,7-1.1,7.9-4.5l24.2-90.4c0.9-3.4-1.1-7-4.5-7.9l-5.7-1.5
			c-3.4-0.9-7,1.1-7.9,4.5l-24.2,90.4C141.4,245,143.5,248.5,146.9,249.5z"/>
		<path class="st1" d="M147,249l3.6,1l1.8,0.5c0.6,0.2,1.1,0.3,1.7,0.3c2.3,0.1,4.7-1.4,5.6-3.5c0.3-0.5,0.4-1.1,0.6-1.7l0.5-1.8
			l1-3.6l1.9-7.2l7.6-28.9l7.6-28.9l3.8-14.5l0.9-3.6c0.2-0.6,0.3-1.2,0.4-1.7c0.1-0.5,0.1-1.1,0-1.6c-0.3-2.2-2-4.1-4.2-4.6
			l-3.6-0.9l-1.8-0.5c-0.6-0.2-1.1-0.3-1.6-0.3c-2.2-0.1-4.3,1.3-5.2,3.3c-0.1,0.2-0.2,0.5-0.3,0.8c-0.1,0.3-0.2,0.6-0.2,0.9
			l-0.5,1.8l-0.9,3.6l-1.9,7.2l-7.7,28.9l-4,14.4l-4,14.4l-4.1,14.4l-1,3.6c-0.2,0.6-0.3,1.2-0.4,1.8c-0.1,0.6-0.1,1.1,0,1.7
			C143,246.4,144.7,248.4,147,249z M146.8,249.9c-2.6-0.6-4.7-3-5.1-5.6c-0.1-0.7-0.1-1.3,0-2c0.1-0.7,0.3-1.3,0.4-1.9l0.9-3.6
			l3.7-14.5l3.7-14.5l3.8-14.5l7.8-28.9l2-7.2l1-3.6l0.5-1.8c0.1-0.3,0.2-0.6,0.3-0.9c0.1-0.3,0.2-0.7,0.4-1c1.2-2.6,4-4.3,6.8-4.2
			c0.7,0,1.4,0.2,2,0.3l1.8,0.5l3.6,1c2.7,0.7,4.9,3.2,5.2,5.9c0.1,0.7,0.1,1.4,0,2.1c-0.1,0.7-0.3,1.3-0.5,1.9l-1,3.6l-4,14.4
			l-7.9,28.9l-7.8,28.9l-1.9,7.2l-1,3.6l-0.5,1.8c-0.2,0.6-0.3,1.2-0.6,1.8c-1.1,2.4-3.7,4.1-6.4,4c-0.7,0-1.3-0.1-1.9-0.3l-1.8-0.5
			L146.8,249.9z"/>
	</g>
	<g>
		<path class="st4" d="M219.5,210.5l-0.8,3.2l13.7-51.1c-0.2,0-0.5,0-0.8,0c-3,0-5.8-0.7-8.2-2.1l-6.5,24.3
			C220.8,192.6,221.9,201.6,219.5,210.5z"/>
		<path class="st1" d="M219.6,210.6c-0.3,1.1-0.6,2.1-0.8,3.2l-0.2-0.1c1-4.3,2.1-8.6,3.2-12.8l3.3-12.8l3.4-12.8
			c1.2-4.3,2.4-8.5,3.6-12.7l0.4,0.4c-1.6,0.2-3.2,0-4.8-0.3c-1.6-0.3-3.1-0.9-4.5-1.7l0,0l0.6-0.3c-0.9,4.1-1.9,8.2-2.8,12.3
			l-1.6,6.1l-0.8,3.1c-0.3,1-0.6,2-1.2,2.9l0,0l0-0.4c1.9,4,3.1,8.4,3.5,12.8C221.3,201.9,220.8,206.3,219.6,210.6z M219.4,210.5
			c1.1-4.2,1.3-8.7,0.8-13c-0.5-4.3-1.8-8.5-3.9-12.3l0,0l0-0.4l0,0c-0.1-1.1,0.1-2.1,0.4-3.2l0.9-3l1.7-6.1c1.2-4,2.4-8.1,3.7-12.1
			l0,0c0.1-0.2,0.3-0.4,0.6-0.3c0,0,0,0,0.1,0l0,0c1.3,0.7,2.8,1.2,4.2,1.6c1.5,0.3,3,0.5,4.5,0.5l0,0c0.2,0,0.3,0.2,0.3,0.4
			c0,0,0,0.1,0,0.1c-1.1,4.3-2.2,8.6-3.3,12.8l-3.4,12.8l-3.5,12.7c-1.2,4.2-2.4,8.5-3.7,12.7l0,0c0,0.1-0.1,0.1-0.1,0.1
			c-0.1,0-0.1-0.1-0.1-0.1C218.9,212.6,219.2,211.6,219.4,210.5z"/>
	</g>
	<g>
		<path class="st7" d="M214.3,145.2c0,6.6,3.7,12.4,9.2,15.3c2.4,1.3,5.3,2.1,8.2,2.1c0.2,0,0.5,0,0.8,0c9.2-0.4,16.6-8,16.6-17.4
			c0-7.1-4.3-13.3-10.5-15.9c-2.1-0.9-4.4-1.4-6.9-1.4c-2.8,0-5.4,0.6-7.7,1.8C218.2,132.5,214.3,138.4,214.3,145.2z"/>
		<path class="st1" d="M214.4,145.2c0,1.2,0.1,2.3,0.4,3.5c0.3,1.1,0.6,2.2,1.1,3.3c1,2.1,2.4,3.9,4.1,5.5c1.7,1.5,3.6,2.8,5.7,3.6
			c2.1,0.8,4.5,1.3,6.7,1.1l0,0c1.7-0.1,3.3-0.4,4.8-1c1.5-0.6,3-1.4,4.3-2.3c2.6-2,4.6-4.7,5.7-7.8c0.6-1.5,0.8-3.1,0.9-4.7
			c0.1-1.6-0.1-3.2-0.4-4.8c-0.8-3.1-2.4-6-4.8-8.2c-4.7-4.4-11.8-5.8-17.8-3.4c-3,1.2-5.7,3.2-7.7,5.9
			C215.5,138.6,214.4,141.9,214.4,145.2z M214.2,145.2c-0.1-3.4,0.9-6.8,2.7-9.8c1.8-2.9,4.5-5.4,7.7-6.9c3.2-1.5,6.9-2,10.4-1.4
			c3.5,0.6,6.8,2.4,9.4,4.9c2.6,2.5,4.4,5.7,5.1,9.2c0.4,1.7,0.5,3.5,0.3,5.3c-0.2,1.8-0.5,3.5-1.2,5.1c-1.3,3.3-3.6,6.1-6.4,8.1
			c-1.4,1-3,1.8-4.6,2.4c-1.7,0.5-3.4,0.8-5.1,0.9l0,0c-2.4,0.1-4.8-0.3-7.1-1.1c-2.3-0.8-4.3-2.1-6-3.8c-0.8-0.9-1.6-1.8-2.3-2.8
			c-0.6-1-1.2-2.1-1.6-3.2C214.6,149.9,214.2,147.6,214.2,145.2z"/>
	</g>
	<g>
		<path class="st4" d="M43.5,51.4L51.4,65c-12.1,16.1-19.3,36-19.3,57.6v7.1c-2.3-1.2-4.9-1.8-7.7-1.8c-2.5,0-4.8,0.5-6.9,1.4v-6.7
			C17.5,95.5,27.3,70.6,43.5,51.4z"/>
		<path class="st1" d="M43.5,51.3l8.1,13.6c0,0.1,0,0.2,0,0.3l0,0c-6.8,9.2-11.9,19.6-15.1,30.6c-1.6,5.5-2.6,11.1-3.2,16.8
			c-0.6,5.7-0.5,11.4-0.4,17.1c0,0.4-0.3,0.8-0.7,0.8c-0.1,0-0.2,0-0.3-0.1l0,0c-4.3-2.2-9.6-2.2-13.9-0.3c-0.4,0.2-0.9,0-1.1-0.4
			c-0.1-0.1-0.1-0.2-0.1-0.3v0c0-3.5-0.1-7,0-10.5c0-1.8,0.2-3.5,0.3-5.3c0.1-1.8,0.4-3.5,0.5-5.3c0.9-7,2.5-14,4.8-20.6
			c2.3-6.7,5.2-13.2,8.8-19.2c0.9-1.5,1.8-3,2.8-4.5c0.9-1.5,2-2.9,3-4.3c1-1.4,2.2-2.8,3.2-4.2C41.1,53.9,42.4,52.5,43.5,51.3z
			 M43.5,51.5l-3.1,4.2c-1,1.4-2,2.8-3,4.3c-1.9,2.9-3.7,5.9-5.3,9c-3.3,6.2-6.1,12.6-8.2,19.2c-0.5,1.6-1,3.3-1.5,5
			c-0.4,1.7-0.8,3.4-1.3,5.1c-0.3,1.7-0.7,3.4-1,5.1c-0.3,1.7-0.6,3.4-0.8,5.1c-0.4,3.4-0.8,6.9-0.9,10.4c-0.1,3.5-0.1,7-0.2,10.5
			l-1.2-0.8c4.9-2.1,10.6-1.9,15.3,0.5l-1.1,0.7c0-5.7,0-11.5,0.7-17.3c0.6-5.7,1.8-11.4,3.5-17c1.7-5.5,3.9-10.9,6.5-16
			c2.6-5.1,5.7-10,9.2-14.6l0,0.3L43.5,51.5z"/>
	</g>
	<path class="st5" d="M91.5,247l-3.5,0.9c-2.1,0.6-4.3-0.7-4.8-2.8l-21.9-81.8c-0.6-2.1,0.7-4.3,2.8-4.8l3.5-0.9
		c2.1-0.6,4.3,0.7,4.8,2.8l21.9,81.8C94.9,244.2,93.7,246.4,91.5,247z"/>
	<path class="st5" d="M216.3,44.7l-3.8,6.7L204.6,65l-4,6.9C184.6,49,158,34,128,34S71.4,49,55.4,71.9l-4-6.9l-7.9-13.6l-3.8-6.7
		C61.3,20.2,92.9,4.8,128,4.8S194.7,20.2,216.3,44.7z"/>
	<path class="st5" d="M34.2,145.2c0,2.3-0.8,4.4-2.1,6.1c0,0-0.1,0.1-0.1,0.1c-0.4,0.5-0.9,1-1.4,1.5c-1.7,1.4-3.8,2.2-6.2,2.2
		c-1,0-2-0.1-2.9-0.4c-4-1.2-6.9-5-6.9-9.4c0-2.7,1.1-5.2,2.9-7c1.8-1.8,4.2-2.8,6.9-2.8c3.1,0,5.9,1.5,7.7,3.8
		C33.4,140.8,34.2,142.9,34.2,145.2z"/>
	<path class="st5" d="M164.5,247l3.5,0.9c2.1,0.6,4.3-0.7,4.8-2.8l21.9-81.8c0.6-2.1-0.7-4.3-2.8-4.8l-3.5-0.9
		c-2.1-0.6-4.3,0.7-4.8,2.8l-21.9,81.8C161.1,244.2,162.3,246.4,164.5,247z"/>
	<path class="st5" d="M221.8,145.2c0,2.3,0.8,4.4,2.1,6.1c0,0,0.1,0.1,0.1,0.1c0.4,0.5,0.9,1,1.4,1.5c1.7,1.4,3.8,2.2,6.2,2.2
		c1,0,2-0.1,2.9-0.4c4-1.2,6.9-5,6.9-9.4c0-2.7-1.1-5.2-2.9-7c-1.8-1.8-4.2-2.8-6.9-2.8c-3.1,0-5.9,1.5-7.7,3.8
		C222.6,140.8,221.8,142.9,221.8,145.2z"/>
	<g>
		<path class="st8" d="M91.5,247l-3.5,0.9c-2.1,0.6-4.3-0.7-4.8-2.8l-21.9-81.8c-0.6-2.1,0.7-4.3,2.8-4.8l3.5-0.9
			c2.1-0.6,4.3,0.7,4.8,2.8l21.9,81.8C94.9,244.2,93.7,246.4,91.5,247z"/>
		<path class="st1" d="M91.6,247.2l-3,0.8c-1,0.3-2.2,0.4-3.2-0.1c-1-0.4-1.8-1.3-2.2-2.3c-0.3-1-0.6-2-0.9-3l-3.4-12.1l-6.7-24.3
			l-6.7-24.3l-3.3-12.1l-1.7-6.1c-0.3-1.2-0.2-2.5,0.4-3.6c0.6-1.1,1.7-1.9,2.9-2.3l3-0.8c0.5-0.1,1.1-0.3,1.8-0.3
			c0.6,0,1.3,0.1,1.9,0.4c1.2,0.5,2.1,1.5,2.6,2.7l0.2,0.5l0.1,0.4l0.2,0.8l0.4,1.5l3.3,12.1c2.2,8.1,4.4,16.2,6.5,24.3l3.1,12.2
			l3.1,12.2l3,12.2l1.5,6.1c0.3,1.1,0.1,2.3-0.4,3.3C93.6,246.2,92.7,246.9,91.6,247.2z M91.5,246.8c1-0.3,1.8-0.9,2.2-1.8
			c0.5-0.9,0.6-1.9,0.3-2.8l-1.7-6.1L88.8,224l-3.5-12.1l-3.4-12.1c-2.2-8.1-4.4-16.2-6.5-24.3l-3.2-12.2l-0.4-1.5l-0.2-0.8
			l-0.1-0.4l-0.1-0.3c-0.3-0.8-0.9-1.4-1.7-1.7c-0.4-0.2-0.8-0.3-1.2-0.3c-0.4,0-0.8,0.1-1.3,0.2l-3,0.8c-0.8,0.2-1.5,0.8-1.9,1.5
			c-0.4,0.7-0.5,1.6-0.3,2.5l1.6,6.1l3.2,12.2l6.4,24.4l6.3,24.4l3.2,12.2c0.3,1,0.5,2.1,0.8,3c0.4,0.9,1.1,1.7,2,2.1
			c0.9,0.4,2,0.4,3,0L91.5,246.8z"/>
	</g>
	<g>
		<pattern  id="SVGID_7_" xlink:href="#New_Pattern_Swatch_1" patternTransform="matrix(1 0 0 1 14.4 0)">
		</pattern>
		<path class="st9" d="M216.3,44.7l-3.8,6.7L204.6,65l-4,6.9C184.6,49,158,34,128,34S71.4,49,55.4,71.9l-4-6.9l-7.9-13.6l-3.8-6.7
			C61.3,20.2,92.9,4.8,128,4.8S194.7,20.2,216.3,44.7z"/>
		<path class="st1" d="M217.6,44.6c-1.3,2.5-2.8,5.1-4.2,7.5l-4,6.7l-8.1,13.5l0,0c-0.2,0.4-0.7,0.5-1,0.3c-0.1-0.1-0.2-0.1-0.2-0.2
			c-4-5.8-8.7-11.1-14-15.8c-5.3-4.7-11.1-8.7-17.4-12c-12.5-6.6-26.5-10.1-40.7-10c-14.1,0-28.2,3.5-40.6,10.1
			C74.9,51.2,64,60.8,56,72.4c-0.2,0.3-0.7,0.4-1,0.2c-0.1-0.1-0.2-0.1-0.2-0.2l0,0L38.9,45.1c-0.2-0.3-0.1-0.7,0.1-1
			c11.1-12.6,24.8-22.8,40.1-29.8c15.3-7,32.1-10.6,48.8-10.6c16.8,0,33.6,3.5,48.9,10.4c7.7,3.4,15,7.7,21.7,12.7
			c1.7,1.3,3.3,2.6,5,3.9c1.6,1.4,3.2,2.8,4.8,4.1l4.5,4.4C214.6,40.9,216.2,42.8,217.6,44.6z M215,44.8c-1.4-1.3-2.6-2.4-3.9-3.8
			l-4.4-4.3c-1.6-1.4-3.1-2.7-4.7-4.1c-1.6-1.3-3.2-2.6-4.9-3.8c-6.6-4.9-13.7-9.1-21.2-12.6c-15-6.9-31.5-10.4-48-10.5
			c-16.5,0-33,3.5-48.1,10.3c-15.1,6.8-28.7,16.8-39.6,29.2l0.1-1L56,71.6l-1.3-0.1c8.2-11.7,19.3-21.3,32-27.9
			c12.7-6.6,26.9-10.1,41.2-10c7.1,0,14.3,0.9,21.2,2.6c6.9,1.7,13.7,4.2,20,7.5c6.3,3.3,12.3,7.4,17.6,12.1
			c5.4,4.7,10.2,10,14.4,15.8l-1.3,0.1l7.6-13.7l3.8-6.9C212.6,48.8,213.7,46.9,215,44.8z"/>
	</g>
	<g>
		<path class="st1" d="M46.3,56.2C57,45.8,69.7,37.3,83.6,31.6c13.9-5.7,28.9-8.8,43.9-9c15-0.2,30.2,2.4,44.2,8.1
			c13.9,5.7,26.8,14.1,37.3,24.8c0,0,0,0.1,0,0.1c0,0-0.1,0-0.1,0c-11.2-9.8-24-17.8-37.9-23.1c-13.8-5.3-28.6-8.3-43.4-8.4
			c-14.9-0.1-29.7,2.8-43.6,8.3C70.1,38,57.3,46.1,46.4,56.4c0,0-0.1,0-0.1,0C46.3,56.3,46.3,56.3,46.3,56.2z"/>
	</g>
	<g>
		<pattern  id="SVGID_8_" xlink:href="#New_Pattern_Swatch_1" patternTransform="matrix(1 0 0 1 14.4 0)">
		</pattern>
		<path class="st10" d="M34.2,145.2c0,2.3-0.8,4.4-2.1,6.1c0,0-0.1,0.1-0.1,0.1c-0.4,0.5-0.9,1-1.4,1.5c-1.7,1.4-3.8,2.2-6.2,2.2
			c-1,0-2-0.1-2.9-0.4c-4-1.2-6.9-5-6.9-9.4c0-2.7,1.1-5.2,2.9-7c1.8-1.8,4.2-2.8,6.9-2.8c3.1,0,5.9,1.5,7.7,3.8
			C33.4,140.8,34.2,142.9,34.2,145.2z"/>
		<path class="st1" d="M34.3,145.2c0,1.1-0.2,2.2-0.6,3.3c-0.4,1-0.9,2-1.5,2.9l0-0.1c0,0.1-0.1,0.1-0.1,0.2l0,0
			c-1.4,1.9-3.5,3.3-5.8,3.8c-2.3,0.5-4.9,0.2-7-1c-2.2-1.1-3.9-3.1-4.8-5.4c-0.9-2.3-1-4.9-0.2-7.3c0.8-2.4,2.4-4.5,4.6-5.8
			c1.1-0.7,2.3-1.1,3.6-1.3c1.2-0.2,2.5-0.2,3.8,0.1c2.5,0.5,4.6,2,6,4C33.7,140.6,34.4,142.9,34.3,145.2z M34.1,145.2
			c0-2.3-1-4.5-2.6-6c-1.5-1.6-3.6-2.5-5.6-2.7c-2.1-0.3-4.2,0.1-6,1.2c-1.8,1-3.3,2.7-4,4.6c-0.8,1.9-0.8,4.2-0.1,6.2
			c0.7,2,2.1,3.8,4,4.9c3.7,2.3,9.1,1.5,12-2l0,0c0,0,0,0,0.1-0.1l0-0.1c0.7-0.8,1.3-1.8,1.6-2.8C34,147.4,34.1,146.3,34.1,145.2z"
			/>
	</g>
	<g>
		<path class="st8" d="M164.5,247l3.5,0.9c2.1,0.6,4.3-0.7,4.8-2.8l21.9-81.8c0.6-2.1-0.7-4.3-2.8-4.8l-3.5-0.9
			c-2.1-0.6-4.3,0.7-4.8,2.8l-21.9,81.8C161.1,244.2,162.3,246.4,164.5,247z"/>
		<path class="st1" d="M164.5,246.7l3,0.8c1,0.3,2,0.3,2.9-0.1c0.9-0.4,1.6-1.1,1.9-2c0.3-0.9,0.5-2,0.8-3l3.2-12.2l6.4-24.4
			l6.2-24.4l3.1-12.2c0.5-2,1-4.1,1.6-6.1c0.3-0.8,0.2-1.6-0.2-2.4c-0.4-0.7-1.1-1.3-1.9-1.5l-3-0.8c-0.6-0.2-0.9-0.2-1.3-0.2
			c-0.4,0-0.8,0.1-1.2,0.3c-0.8,0.3-1.4,1-1.7,1.7l-0.1,0.3l-0.1,0.4l-0.2,0.8l-0.4,1.5l-3.2,12.2l-3.2,12.2l-3.3,12.2
			c-2.2,8.1-4.5,16.2-6.8,24.2l-3.5,12.1l-1.7,6.1c-0.3,0.9-0.2,2,0.3,2.8C162.8,245.8,163.6,246.4,164.5,246.7z M164.4,247.3
			c-1.1-0.3-2.1-1-2.6-2c-0.6-1-0.7-2.2-0.4-3.3l1.5-6.1l3-12.2c2-8.2,4.1-16.3,6.2-24.4l3.3-12.2l3.3-12.1l3.3-12.1l0.4-1.5
			l0.2-0.8l0.1-0.4l0.2-0.5c0.5-1.2,1.4-2.2,2.6-2.7c0.6-0.2,1.2-0.4,1.9-0.4c0.6,0,1.3,0.2,1.8,0.3l3,0.8c1.2,0.3,2.3,1.1,2.9,2.2
			c0.7,1.1,0.8,2.5,0.5,3.7c-0.5,2-1.1,4.1-1.6,6.1l-3.4,12.1l-6.8,24.3l-6.6,24.3l-3.3,12.1c-0.3,1-0.5,2-0.9,3.1
			c-0.4,1.1-1.3,1.9-2.3,2.4c-0.5,0.2-1.1,0.3-1.7,0.3c-0.6,0-1.1-0.1-1.6-0.3L164.4,247.3z"/>
	</g>
	<g>
		<pattern  id="SVGID_9_" xlink:href="#New_Pattern_Swatch_1" patternTransform="matrix(1 0 0 1 14.4 0)">
		</pattern>
		<path class="st11" d="M221.8,145.2c0,2.3,0.8,4.4,2.1,6.1c0,0,0.1,0.1,0.1,0.1c0.4,0.5,0.9,1,1.4,1.5c1.7,1.4,3.8,2.2,6.2,2.2
			c1,0,2-0.1,2.9-0.4c4-1.2,6.9-5,6.9-9.4c0-2.7-1.1-5.2-2.9-7c-1.8-1.8-4.2-2.8-6.9-2.8c-3.1,0-5.9,1.5-7.7,3.8
			C222.6,140.8,221.8,142.9,221.8,145.2z"/>
		<path class="st1" d="M221.9,145.2c0,1.1,0.2,2.2,0.5,3.2c0.4,1,0.9,2,1.6,2.8l0,0.1c0,0,0,0,0.1,0.1l0,0c3,3.5,8.3,4.2,12,2
			c1.9-1.1,3.3-2.9,4-4.9c0.7-2,0.7-4.2-0.1-6.2c-0.7-2-2.2-3.6-4-4.6c-1.8-1-3.9-1.4-6-1.2c-2.1,0.3-4.1,1.2-5.6,2.7
			C222.9,140.8,221.9,143,221.9,145.2z M221.7,145.2c0-2.3,0.6-4.7,2.1-6.6c1.4-2,3.6-3.5,6-4c1.2-0.3,2.5-0.3,3.8-0.1
			c1.2,0.2,2.5,0.6,3.6,1.3c2.2,1.3,3.8,3.4,4.6,5.8c0.8,2.4,0.7,5-0.2,7.3c-0.9,2.3-2.6,4.2-4.8,5.4c-2.1,1.2-4.7,1.5-7,1
			c-2.4-0.5-4.5-1.9-5.8-3.8l0,0c-0.1-0.1-0.1-0.1-0.1-0.2l0,0.1c-0.7-0.9-1.2-1.9-1.5-2.9C221.9,147.4,221.7,146.3,221.7,145.2z"/>
	</g>
	<path class="st12" d="M24.4,162.6L24.4,162.6c-0.1,0-0.3,0-0.4,0c-0.1,0-0.3,0-0.4,0l1.3,5c2.8-0.1,5.4-0.8,7.6-2
		c0.4-0.2,0.8-0.4,1.2-0.7l-1.2-4.3c-2.1,1.2-4.6,1.9-7.1,2C25.1,162.6,24.7,162.6,24.4,162.6L24.4,162.6z"/>
	<path class="st12" d="M223.4,165.6c2.3,1.2,4.9,2,7.6,2l1.3-5c-0.1,0-0.3,0-0.4,0c-0.1,0-0.3,0-0.4,0l0,0l0,0c-0.4,0-0.7,0-1.1,0
		c-2.6-0.2-5-0.9-7.1-2l-1.2,4.3C222.6,165.1,223,165.3,223.4,165.6z"/>
</g>
</svg>
