<?xml version="1.0" encoding="utf-8"?>
<!-- Generator: Adobe Illustrator 22.1.0, SVG Export Plug-In . SVG Version: 6.00 Build 0)  -->
<svg version="1.1" id="Layer_1" xmlns="http://www.w3.org/2000/svg" xmlns:xlink="http://www.w3.org/1999/xlink" x="0px" y="0px"
	 viewBox="0 0 256 256" style="enable-background:new 0 0 256 256;" xml:space="preserve">
<style type="text/css">
	.st0{fill:none;}
	.st1{fill:#253759;}
	.st2{clip-path:url(#SVGID_2_);fill:#253759;}
	.st3{clip-path:url(#SVGID_4_);fill:#253759;}
	.st4{fill:#FFFFFF;}
	.st5{fill:#A6D6FF;}
	.st6{fill:url(#SVGID_7_);}
	.st7{fill:url(#SVGID_8_);}
	.st8{opacity:0.3;fill:#253759;}
	.st9{fill:url(#SVGID_9_);}
</style>
<pattern  x="-1932" y="-276" width="42.9" height="43" patternUnits="userSpaceOnUse" id="New_Pattern_Swatch_1" viewBox="43 -43 42.9 43" style="overflow:visible;">
	<g>
		<rect x="43" y="-43" class="st0" width="42.9" height="43"/>
		<g>
			<g>
				<circle class="st1" cx="85.9" cy="-41.2" r="0.6"/>
				<circle class="st1" cx="85.9" cy="-37.6" r="0.6"/>
				<circle class="st1" cx="85.9" cy="-34" r="0.6"/>
				<circle class="st1" cx="85.9" cy="-30.4" r="0.6"/>
				<circle class="st1" cx="85.9" cy="-26.9" r="0.6"/>
				<circle class="st1" cx="85.9" cy="-23.3" r="0.6"/>
				<circle class="st1" cx="85.9" cy="-19.7" r="0.6"/>
				<circle class="st1" cx="85.9" cy="-16.1" r="0.6"/>
				<circle class="st1" cx="85.9" cy="-12.6" r="0.6"/>
				<circle class="st1" cx="85.9" cy="-9" r="0.6"/>
				<circle class="st1" cx="85.9" cy="-5.4" r="0.6"/>
				<circle class="st1" cx="85.9" cy="-1.8" r="0.6"/>
				<circle class="st1" cx="85.8" cy="-41.2" r="0.6"/>
				<circle class="st1" cx="85.8" cy="-37.6" r="0.6"/>
				<circle class="st1" cx="85.8" cy="-34" r="0.6"/>
				<circle class="st1" cx="85.8" cy="-30.4" r="0.6"/>
				<circle class="st1" cx="85.8" cy="-26.9" r="0.6"/>
				<circle class="st1" cx="85.8" cy="-23.3" r="0.6"/>
				<circle class="st1" cx="85.8" cy="-19.7" r="0.6"/>
				<circle class="st1" cx="85.8" cy="-16.1" r="0.6"/>
				<circle class="st1" cx="85.8" cy="-12.6" r="0.6"/>
				<circle class="st1" cx="85.8" cy="-9" r="0.6"/>
				<circle class="st1" cx="85.8" cy="-5.4" r="0.6"/>
				<circle class="st1" cx="85.8" cy="-1.8" r="0.6"/>
			</g>
			<g>
				<defs>
					<rect id="SVGID_1_" x="85.8" y="-43" width="43" height="43"/>
				</defs>
				<clipPath id="SVGID_2_">
					<use xlink:href="#SVGID_1_"  style="overflow:visible;"/>
				</clipPath>
				<circle class="st2" cx="85.8" cy="-41.2" r="0.6"/>
				<circle class="st2" cx="85.8" cy="-37.6" r="0.6"/>
				<circle class="st2" cx="85.8" cy="-34" r="0.6"/>
				<circle class="st2" cx="85.8" cy="-30.4" r="0.6"/>
				<circle class="st2" cx="85.8" cy="-26.9" r="0.6"/>
				<circle class="st2" cx="85.8" cy="-23.3" r="0.6"/>
				<circle class="st2" cx="85.8" cy="-19.7" r="0.6"/>
				<circle class="st2" cx="85.8" cy="-16.1" r="0.6"/>
				<circle class="st2" cx="85.8" cy="-12.6" r="0.6"/>
				<circle class="st2" cx="85.8" cy="-9" r="0.6"/>
				<circle class="st2" cx="85.8" cy="-5.4" r="0.6"/>
				<circle class="st2" cx="85.8" cy="-1.8" r="0.6"/>
				<circle class="st2" cx="85.7" cy="-41.2" r="0.6"/>
				<circle class="st2" cx="85.7" cy="-37.6" r="0.6"/>
				<circle class="st2" cx="85.7" cy="-34" r="0.6"/>
				<circle class="st2" cx="85.7" cy="-30.4" r="0.6"/>
				<circle class="st2" cx="85.7" cy="-26.9" r="0.6"/>
				<circle class="st2" cx="85.7" cy="-23.3" r="0.6"/>
				<circle class="st2" cx="85.7" cy="-19.7" r="0.6"/>
				<circle class="st2" cx="85.7" cy="-16.1" r="0.6"/>
				<circle class="st2" cx="85.7" cy="-12.6" r="0.6"/>
				<circle class="st2" cx="85.7" cy="-9" r="0.6"/>
				<circle class="st2" cx="85.7" cy="-5.4" r="0.6"/>
				<circle class="st2" cx="85.7" cy="-1.8" r="0.6"/>
			</g>
		</g>
		<g>
			<g>
				<circle class="st1" cx="85.9" cy="-41.2" r="0.6"/>
				<circle class="st1" cx="85.9" cy="-37.6" r="0.6"/>
				<circle class="st1" cx="85.9" cy="-34" r="0.6"/>
				<circle class="st1" cx="85.9" cy="-30.4" r="0.6"/>
				<circle class="st1" cx="85.9" cy="-26.9" r="0.6"/>
				<circle class="st1" cx="85.9" cy="-23.3" r="0.6"/>
				<circle class="st1" cx="85.9" cy="-19.7" r="0.6"/>
				<circle class="st1" cx="85.9" cy="-16.1" r="0.6"/>
				<circle class="st1" cx="85.9" cy="-12.6" r="0.6"/>
				<circle class="st1" cx="85.9" cy="-9" r="0.6"/>
				<circle class="st1" cx="85.9" cy="-5.4" r="0.6"/>
				<circle class="st1" cx="85.9" cy="-1.8" r="0.6"/>
				<circle class="st1" cx="43" cy="-41.2" r="0.6"/>
				<circle class="st1" cx="46.5" cy="-41.2" r="0.6"/>
				<circle class="st1" cx="50.1" cy="-41.2" r="0.6"/>
				<circle class="st1" cx="53.7" cy="-41.2" r="0.6"/>
				<circle class="st1" cx="43" cy="-37.6" r="0.6"/>
				<circle class="st1" cx="46.5" cy="-37.6" r="0.6"/>
				<circle class="st1" cx="50.1" cy="-37.6" r="0.6"/>
				<circle class="st1" cx="53.7" cy="-37.6" r="0.6"/>
				<circle class="st1" cx="43" cy="-34" r="0.6"/>
				<circle class="st1" cx="46.5" cy="-34" r="0.6"/>
				<circle class="st1" cx="50.1" cy="-34" r="0.6"/>
				<circle class="st1" cx="53.7" cy="-34" r="0.6"/>
				<circle class="st1" cx="43" cy="-30.4" r="0.6"/>
				<circle class="st1" cx="46.5" cy="-30.4" r="0.6"/>
				<circle class="st1" cx="50.1" cy="-30.4" r="0.6"/>
				<circle class="st1" cx="53.7" cy="-30.4" r="0.6"/>
				<circle class="st1" cx="43" cy="-26.9" r="0.6"/>
				<circle class="st1" cx="46.5" cy="-26.9" r="0.6"/>
				<circle class="st1" cx="50.1" cy="-26.9" r="0.6"/>
				<circle class="st1" cx="53.7" cy="-26.9" r="0.6"/>
				<circle class="st1" cx="43" cy="-23.3" r="0.6"/>
				<circle class="st1" cx="46.5" cy="-23.3" r="0.6"/>
				<circle class="st1" cx="50.1" cy="-23.3" r="0.6"/>
				<circle class="st1" cx="53.7" cy="-23.3" r="0.6"/>
				<circle class="st1" cx="57.3" cy="-41.2" r="0.6"/>
				<circle class="st1" cx="60.8" cy="-41.2" r="0.6"/>
				<circle class="st1" cx="64.4" cy="-41.2" r="0.6"/>
				<circle class="st1" cx="68" cy="-41.2" r="0.6"/>
				<circle class="st1" cx="71.5" cy="-41.2" r="0.6"/>
				<circle class="st1" cx="57.3" cy="-37.6" r="0.6"/>
				<circle class="st1" cx="60.8" cy="-37.6" r="0.6"/>
				<circle class="st1" cx="64.4" cy="-37.6" r="0.6"/>
				<circle class="st1" cx="68" cy="-37.6" r="0.6"/>
				<circle class="st1" cx="71.5" cy="-37.6" r="0.6"/>
				<circle class="st1" cx="57.3" cy="-34" r="0.6"/>
				<circle class="st1" cx="60.8" cy="-34" r="0.6"/>
				<circle class="st1" cx="64.4" cy="-34" r="0.6"/>
				<circle class="st1" cx="68" cy="-34" r="0.6"/>
				<circle class="st1" cx="71.5" cy="-34" r="0.6"/>
				<circle class="st1" cx="57.3" cy="-30.4" r="0.6"/>
				<circle class="st1" cx="60.8" cy="-30.4" r="0.6"/>
				<circle class="st1" cx="64.4" cy="-30.4" r="0.6"/>
				<circle class="st1" cx="68" cy="-30.4" r="0.6"/>
				<circle class="st1" cx="71.5" cy="-30.4" r="0.6"/>
				<circle class="st1" cx="57.3" cy="-26.9" r="0.6"/>
				<circle class="st1" cx="60.8" cy="-26.9" r="0.6"/>
				<circle class="st1" cx="64.4" cy="-26.9" r="0.6"/>
				<circle class="st1" cx="68" cy="-26.9" r="0.6"/>
				<circle class="st1" cx="71.5" cy="-26.9" r="0.6"/>
				<circle class="st1" cx="57.3" cy="-23.3" r="0.6"/>
				<circle class="st1" cx="60.8" cy="-23.3" r="0.6"/>
				<circle class="st1" cx="64.4" cy="-23.3" r="0.6"/>
				<circle class="st1" cx="68" cy="-23.3" r="0.6"/>
				<circle class="st1" cx="71.5" cy="-23.3" r="0.6"/>
				<circle class="st1" cx="75.1" cy="-41.2" r="0.6"/>
				<circle class="st1" cx="78.7" cy="-41.2" r="0.6"/>
				<circle class="st1" cx="82.3" cy="-41.2" r="0.6"/>
				<circle class="st1" cx="85.8" cy="-41.2" r="0.6"/>
				<circle class="st1" cx="75.1" cy="-37.6" r="0.6"/>
				<circle class="st1" cx="78.7" cy="-37.6" r="0.6"/>
				<circle class="st1" cx="82.3" cy="-37.6" r="0.6"/>
				<circle class="st1" cx="85.8" cy="-37.6" r="0.6"/>
				<circle class="st1" cx="75.1" cy="-34" r="0.6"/>
				<circle class="st1" cx="78.7" cy="-34" r="0.6"/>
				<circle class="st1" cx="82.3" cy="-34" r="0.6"/>
				<circle class="st1" cx="85.8" cy="-34" r="0.6"/>
				<circle class="st1" cx="75.1" cy="-30.4" r="0.6"/>
				<circle class="st1" cx="78.7" cy="-30.4" r="0.6"/>
				<circle class="st1" cx="82.3" cy="-30.4" r="0.6"/>
				<circle class="st1" cx="85.8" cy="-30.4" r="0.6"/>
				<circle class="st1" cx="75.1" cy="-26.9" r="0.6"/>
				<circle class="st1" cx="78.7" cy="-26.9" r="0.6"/>
				<circle class="st1" cx="82.3" cy="-26.9" r="0.6"/>
				<circle class="st1" cx="85.8" cy="-26.9" r="0.6"/>
				<circle class="st1" cx="75.1" cy="-23.3" r="0.6"/>
				<circle class="st1" cx="78.7" cy="-23.3" r="0.6"/>
				<circle class="st1" cx="82.3" cy="-23.3" r="0.6"/>
				<circle class="st1" cx="85.8" cy="-23.3" r="0.6"/>
				<circle class="st1" cx="43" cy="-19.7" r="0.6"/>
				<circle class="st1" cx="46.5" cy="-19.7" r="0.6"/>
				<circle class="st1" cx="50.1" cy="-19.7" r="0.6"/>
				<circle class="st1" cx="53.7" cy="-19.7" r="0.6"/>
				<circle class="st1" cx="43" cy="-16.1" r="0.6"/>
				<circle class="st1" cx="46.5" cy="-16.1" r="0.6"/>
				<circle class="st1" cx="50.1" cy="-16.1" r="0.6"/>
				<circle class="st1" cx="53.7" cy="-16.1" r="0.6"/>
				<circle class="st1" cx="43" cy="-12.6" r="0.6"/>
				<circle class="st1" cx="46.5" cy="-12.6" r="0.6"/>
				<circle class="st1" cx="50.1" cy="-12.6" r="0.6"/>
				<circle class="st1" cx="53.7" cy="-12.6" r="0.6"/>
				<circle class="st1" cx="43" cy="-9" r="0.6"/>
				<circle class="st1" cx="46.5" cy="-9" r="0.6"/>
				<circle class="st1" cx="50.1" cy="-9" r="0.6"/>
				<circle class="st1" cx="53.7" cy="-9" r="0.6"/>
				<circle class="st1" cx="43" cy="-5.4" r="0.6"/>
				<circle class="st1" cx="46.5" cy="-5.4" r="0.6"/>
				<circle class="st1" cx="50.1" cy="-5.4" r="0.6"/>
				<circle class="st1" cx="53.7" cy="-5.4" r="0.6"/>
				<circle class="st1" cx="43" cy="-1.8" r="0.6"/>
				<circle class="st1" cx="46.5" cy="-1.8" r="0.6"/>
				<circle class="st1" cx="50.1" cy="-1.8" r="0.6"/>
				<circle class="st1" cx="53.7" cy="-1.8" r="0.6"/>
				<circle class="st1" cx="57.3" cy="-19.7" r="0.6"/>
				<circle class="st1" cx="60.8" cy="-19.7" r="0.6"/>
				<circle class="st1" cx="64.4" cy="-19.7" r="0.6"/>
				<circle class="st1" cx="68" cy="-19.7" r="0.6"/>
				<circle class="st1" cx="71.5" cy="-19.7" r="0.6"/>
				<circle class="st1" cx="57.3" cy="-16.1" r="0.6"/>
				<circle class="st1" cx="60.8" cy="-16.1" r="0.6"/>
				<circle class="st1" cx="64.4" cy="-16.1" r="0.6"/>
				<circle class="st1" cx="68" cy="-16.1" r="0.6"/>
				<circle class="st1" cx="71.5" cy="-16.1" r="0.6"/>
				<circle class="st1" cx="57.3" cy="-12.6" r="0.6"/>
				<circle class="st1" cx="60.8" cy="-12.6" r="0.6"/>
				<circle class="st1" cx="64.4" cy="-12.6" r="0.6"/>
				<circle class="st1" cx="68" cy="-12.6" r="0.6"/>
				<circle class="st1" cx="71.5" cy="-12.6" r="0.6"/>
				<circle class="st1" cx="57.3" cy="-9" r="0.6"/>
				<circle class="st1" cx="60.8" cy="-9" r="0.6"/>
				<circle class="st1" cx="64.4" cy="-9" r="0.6"/>
				<circle class="st1" cx="68" cy="-9" r="0.6"/>
				<circle class="st1" cx="71.5" cy="-9" r="0.6"/>
				<circle class="st1" cx="57.3" cy="-5.4" r="0.6"/>
				<circle class="st1" cx="60.8" cy="-5.4" r="0.6"/>
				<circle class="st1" cx="64.4" cy="-5.4" r="0.6"/>
				<circle class="st1" cx="68" cy="-5.4" r="0.6"/>
				<circle class="st1" cx="71.5" cy="-5.4" r="0.6"/>
				<circle class="st1" cx="57.3" cy="-1.8" r="0.6"/>
				<circle class="st1" cx="60.8" cy="-1.8" r="0.6"/>
				<circle class="st1" cx="64.4" cy="-1.8" r="0.6"/>
				<circle class="st1" cx="68" cy="-1.8" r="0.6"/>
				<circle class="st1" cx="71.5" cy="-1.8" r="0.6"/>
				<circle class="st1" cx="75.1" cy="-19.7" r="0.6"/>
				<circle class="st1" cx="78.7" cy="-19.7" r="0.6"/>
				<circle class="st1" cx="82.3" cy="-19.7" r="0.6"/>
				<circle class="st1" cx="85.8" cy="-19.7" r="0.6"/>
				<circle class="st1" cx="75.1" cy="-16.1" r="0.6"/>
				<circle class="st1" cx="78.7" cy="-16.1" r="0.6"/>
				<circle class="st1" cx="82.3" cy="-16.1" r="0.6"/>
				<circle class="st1" cx="85.8" cy="-16.1" r="0.6"/>
				<circle class="st1" cx="75.1" cy="-12.6" r="0.6"/>
				<circle class="st1" cx="78.7" cy="-12.6" r="0.6"/>
				<circle class="st1" cx="82.3" cy="-12.6" r="0.6"/>
				<circle class="st1" cx="85.8" cy="-12.6" r="0.6"/>
				<circle class="st1" cx="75.1" cy="-9" r="0.6"/>
				<circle class="st1" cx="78.7" cy="-9" r="0.6"/>
				<circle class="st1" cx="82.3" cy="-9" r="0.6"/>
				<circle class="st1" cx="85.8" cy="-9" r="0.6"/>
				<circle class="st1" cx="75.1" cy="-5.4" r="0.6"/>
				<circle class="st1" cx="78.7" cy="-5.4" r="0.6"/>
				<circle class="st1" cx="82.3" cy="-5.4" r="0.6"/>
				<circle class="st1" cx="85.8" cy="-5.4" r="0.6"/>
				<circle class="st1" cx="75.1" cy="-1.8" r="0.6"/>
				<circle class="st1" cx="78.7" cy="-1.8" r="0.6"/>
				<circle class="st1" cx="82.3" cy="-1.8" r="0.6"/>
				<circle class="st1" cx="85.8" cy="-1.8" r="0.6"/>
				<circle class="st1" cx="42.9" cy="-41.2" r="0.6"/>
				<circle class="st1" cx="42.9" cy="-37.6" r="0.6"/>
				<circle class="st1" cx="42.9" cy="-34" r="0.6"/>
				<circle class="st1" cx="42.9" cy="-30.4" r="0.6"/>
				<circle class="st1" cx="42.9" cy="-26.9" r="0.6"/>
				<circle class="st1" cx="42.9" cy="-23.3" r="0.6"/>
				<circle class="st1" cx="42.9" cy="-19.7" r="0.6"/>
				<circle class="st1" cx="42.9" cy="-16.1" r="0.6"/>
				<circle class="st1" cx="42.9" cy="-12.6" r="0.6"/>
				<circle class="st1" cx="42.9" cy="-9" r="0.6"/>
				<circle class="st1" cx="42.9" cy="-5.4" r="0.6"/>
				<circle class="st1" cx="42.9" cy="-1.8" r="0.6"/>
			</g>
			<g>
				<defs>
					<rect id="SVGID_3_" x="42.9" y="-43" width="43" height="43"/>
				</defs>
				<clipPath id="SVGID_4_">
					<use xlink:href="#SVGID_3_"  style="overflow:visible;"/>
				</clipPath>
				<circle class="st3" cx="42.9" cy="-41.2" r="0.6"/>
				<circle class="st3" cx="42.9" cy="-37.6" r="0.6"/>
				<circle class="st3" cx="42.9" cy="-34" r="0.6"/>
				<circle class="st3" cx="42.9" cy="-30.4" r="0.6"/>
				<circle class="st3" cx="42.9" cy="-26.9" r="0.6"/>
				<circle class="st3" cx="42.9" cy="-23.3" r="0.6"/>
				<circle class="st3" cx="42.9" cy="-19.7" r="0.6"/>
				<circle class="st3" cx="42.9" cy="-16.1" r="0.6"/>
				<circle class="st3" cx="42.9" cy="-12.6" r="0.6"/>
				<circle class="st3" cx="42.9" cy="-9" r="0.6"/>
				<circle class="st3" cx="42.9" cy="-5.4" r="0.6"/>
				<circle class="st3" cx="42.9" cy="-1.8" r="0.6"/>
				<circle class="st3" cx="42.8" cy="-41.2" r="0.6"/>
				<circle class="st3" cx="42.8" cy="-37.6" r="0.6"/>
				<circle class="st3" cx="42.8" cy="-34" r="0.6"/>
				<circle class="st3" cx="42.8" cy="-30.4" r="0.6"/>
				<circle class="st3" cx="42.8" cy="-26.9" r="0.6"/>
				<circle class="st3" cx="42.8" cy="-23.3" r="0.6"/>
				<circle class="st3" cx="42.8" cy="-19.7" r="0.6"/>
				<circle class="st3" cx="42.8" cy="-16.1" r="0.6"/>
				<circle class="st3" cx="42.8" cy="-12.6" r="0.6"/>
				<circle class="st3" cx="42.8" cy="-9" r="0.6"/>
				<circle class="st3" cx="42.8" cy="-5.4" r="0.6"/>
				<circle class="st3" cx="42.8" cy="-1.8" r="0.6"/>
			</g>
		</g>
		<g>
			<g>
				<circle class="st1" cx="43" cy="-41.2" r="0.6"/>
				<circle class="st1" cx="43" cy="-37.6" r="0.6"/>
				<circle class="st1" cx="43" cy="-34" r="0.6"/>
				<circle class="st1" cx="43" cy="-30.4" r="0.6"/>
				<circle class="st1" cx="43" cy="-26.9" r="0.6"/>
				<circle class="st1" cx="43" cy="-23.3" r="0.6"/>
				<circle class="st1" cx="43" cy="-19.7" r="0.6"/>
				<circle class="st1" cx="43" cy="-16.1" r="0.6"/>
				<circle class="st1" cx="43" cy="-12.6" r="0.6"/>
				<circle class="st1" cx="43" cy="-9" r="0.6"/>
				<circle class="st1" cx="43" cy="-5.4" r="0.6"/>
				<circle class="st1" cx="43" cy="-1.8" r="0.6"/>
				<circle class="st1" cx="42.9" cy="-41.2" r="0.6"/>
				<circle class="st1" cx="42.9" cy="-37.6" r="0.6"/>
				<circle class="st1" cx="42.9" cy="-34" r="0.6"/>
				<circle class="st1" cx="42.9" cy="-30.4" r="0.6"/>
				<circle class="st1" cx="42.9" cy="-26.9" r="0.6"/>
				<circle class="st1" cx="42.9" cy="-23.3" r="0.6"/>
				<circle class="st1" cx="42.9" cy="-19.7" r="0.6"/>
				<circle class="st1" cx="42.9" cy="-16.1" r="0.6"/>
				<circle class="st1" cx="42.9" cy="-12.6" r="0.6"/>
				<circle class="st1" cx="42.9" cy="-9" r="0.6"/>
				<circle class="st1" cx="42.9" cy="-5.4" r="0.6"/>
				<circle class="st1" cx="42.9" cy="-1.8" r="0.6"/>
			</g>
			<g>
				<defs>
					<rect id="SVGID_5_" y="-43" width="43" height="43"/>
				</defs>
				<clipPath id="SVGID_6_">
					<use xlink:href="#SVGID_5_"  style="overflow:visible;"/>
				</clipPath>
			</g>
		</g>
	</g>
</pattern>
<g>
	<g>
		<polygon class="st4" points="204,111.9 52,111.9 54.8,99.4 75.4,4.6 180.6,4.6 201.2,99.4 		"/>
		<path class="st1" d="M204,112l-152,0.5c-0.3,0-0.6-0.3-0.6-0.6c0,0,0-0.1,0-0.1L74.6,4.5C74.7,4,75,3.8,75.4,3.8L128,3.6
			c17.5,0,35-0.1,52.6,0l0,0c0.5,0,0.8,0.3,0.9,0.8c3.8,17.9,7.7,35.8,11.4,53.7l5.6,26.9L204,112z M203.9,111.9l-6.2-26.7
			l-6.1-26.8c-4.1-17.8-8-35.7-12-53.6l0.9,0.8c-17.5,0.1-35,0-52.6,0L75.4,5.5l0.9-0.7L52.6,112.1l-0.6-0.7L203.9,111.9z"/>
	</g>
	<g>
		<path class="st1" d="M67.6,78.6l6.8-33l6.8-33c0.1-0.4,0.4-0.7,0.8-0.7l0,0l13.7-0.1c2.3,0,4.6,0,6.8,0c2.3,0,4.6,0,6.8,0.1
			c4.6,0.1,9.1,0.1,13.7,0.3c4.6,0.1,9.1,0.3,13.7,0.5c0.1,0,0.1,0.1,0.1,0.1c0,0.1,0,0.1-0.1,0.1c-4.6,0.3-9.1,0.4-13.7,0.5
			c-4.6,0.2-9.1,0.2-13.7,0.3c-2.3,0.1-4.6,0.1-6.8,0.1c-2.3,0-4.6,0-6.8,0L82,13.7l0.9-0.7l-7.5,32.8l-7.6,32.8
			c0,0.1-0.1,0.1-0.1,0.1C67.6,78.7,67.6,78.6,67.6,78.6z"/>
	</g>
	<polygon class="st5" points="204,111.9 52,111.9 54.8,99.4 201.2,99.4 	"/>
	<rect x="94.6" y="243.1" class="st5" width="66.7" height="8.3"/>
	<path class="st5" d="M169.1,145.4v14c0,4.5-3.7,8.2-8.2,8.2s-8.2-3.7-8.2-8.2v-14c0-3.5,2.2-6.5,5.3-7.6c0.9-0.4,1.9-0.5,2.9-0.5
		c1,0,2,0.2,2.9,0.5c1.1,0.4,2.1,1,2.9,1.8C168.1,141.1,169.1,143.2,169.1,145.4z"/>
	<g>
		<pattern  id="SVGID_7_" xlink:href="#New_Pattern_Swatch_1" patternTransform="matrix(1 0 0 1 7.2 0)">
		</pattern>
		<polygon class="st6" points="204,111.9 52,111.9 54.8,99.4 201.2,99.4 		"/>
		<path class="st1" d="M204.6,112.4l-76.4,0l-38.1,0.1l-19.1,0.1L52,112.7c-0.4,0-0.8-0.3-0.8-0.8c0-0.1,0-0.1,0-0.2l0,0L54,99.3
			c0.1-0.4,0.4-0.6,0.8-0.6l0,0l36.6-0.2l36.6,0c12.2,0,24.4,0.1,36.6,0.2l18.3,0.2l18.3,0.3c0.2,0,0.3,0.1,0.3,0.2l0,0
			C202.6,103.6,203.7,108,204.6,112.4z M203.4,111.4c-0.9-3.9-1.7-7.8-2.4-11.9l0.3,0.3l-18.3,0.3l-18.3,0.2
			c-12.2,0.1-24.4,0.2-36.6,0.2l-36.6,0l-36.6-0.2l0.8-0.6l-2.8,12.5l-0.7-0.9l18.9,0.1l18.9,0.1l37.9,0.1L203.4,111.4z"/>
	</g>
	<g>
		<rect x="123.6" y="111.9" class="st4" width="8.8" height="110"/>
		<path class="st1" d="M132.5,222l-8.8,0.1c-0.1,0-0.2-0.1-0.2-0.2v0l-0.2-27.5l-0.1-27.5l0-27.5c0-9.2,0-18.3,0-27.5
			c0-0.3,0.2-0.5,0.5-0.5l8.8,0c0.3,0,0.5,0.2,0.5,0.5l0,0c0.1,4.6,0.2,9.2,0.3,13.8l0.1,13.9c0,9.2,0,18.5-0.1,27.7
			c-0.1,9.2-0.1,18.4-0.3,27.5C132.8,203.9,132.7,213,132.5,222z M132.3,221.8c-0.2-9.4-0.4-18.6-0.5-27.8
			c-0.2-9.2-0.2-18.3-0.3-27.5c-0.1-9.1-0.1-18.2-0.1-27.3l0.1-13.6c0.1-4.5,0.1-9.1,0.3-13.7l0.5,0.5l-8.8,0l0.5-0.5
			c0,9.2,0.1,18.3,0,27.5l0,27.5l-0.1,27.5l-0.2,27.5l-0.2-0.2L132.3,221.8z"/>
	</g>
	<g>
		<path class="st4" d="M161.4,243.1H94.6V240c0-10,8.1-18.1,18.1-18.1h30.5c10,0,18.1,8.1,18.1,18.1V243.1z"/>
		<path class="st1" d="M161.4,243.1l-66.8,0.6c-0.4,0-0.7-0.3-0.7-0.7l0,0v0l0-2.9c0-1,0-2,0.2-3c0.3-2,0.9-4,1.8-5.8
			c1.8-3.6,4.9-6.7,8.5-8.4c1.8-0.9,3.8-1.5,5.8-1.8c2.1-0.2,4-0.2,6-0.2c3.9,0,7.8-0.1,11.7,0c3.9,0,7.8,0,11.7,0.1
			c1.9,0,3.9,0,5.9,0.2c2,0.2,4,0.9,5.8,1.8c3.6,1.8,6.6,4.9,8.3,8.5c0.9,1.8,1.4,3.8,1.7,5.7c0.2,1,0.1,2,0.1,3L161.4,243.1z
			 M161.3,243l-0.1-2.9c-0.1-0.9-0.1-1.9-0.3-2.9c-0.4-1.9-1-3.7-1.9-5.4c-1.8-3.3-4.7-6-8.1-7.5c-1.7-0.8-3.5-1.3-5.3-1.5
			c-1.8-0.2-3.8-0.1-5.7-0.1c-3.9,0.1-7.8,0.1-11.7,0.1c-3.9,0-7.8,0-11.7,0c-2,0-3.9-0.1-5.7,0.1c-1.8,0.2-3.6,0.7-5.3,1.5
			c-3.4,1.5-6.2,4.3-7.9,7.6c-0.9,1.6-1.5,3.4-1.8,5.3c-0.2,0.9-0.2,1.9-0.2,2.8l0,2.9l-0.7-0.7L161.3,243z"/>
	</g>
	<g>
		<pattern  id="SVGID_8_" xlink:href="#New_Pattern_Swatch_1" patternTransform="matrix(1 0 0 1 7.2 0)">
		</pattern>
		<rect x="94.6" y="243.1" class="st7" width="66.7" height="8.3"/>
		<path class="st1" d="M161.4,251.4l-66.8,0.7c-0.4,0-0.7-0.3-0.7-0.7v0l0,0l-0.1-8.3c0-0.4,0.3-0.8,0.8-0.8l0,0
			c5.6-0.1,11.1-0.2,16.7-0.2c5.6-0.1,11.1,0,16.7,0c5.6,0,11.1,0.1,16.7,0.2c5.6,0.1,11.1,0.2,16.7,0.4l0,0c0.2,0,0.4,0.2,0.4,0.4
			l0,0L161.4,251.4z M161.3,251.3l-0.3-8.2l0.4,0.4c-5.6,0.2-11.1,0.3-16.7,0.4c-5.6,0.1-11.1,0.2-16.7,0.2c-5.6,0-11.1,0.1-16.7,0
			c-5.6,0-11.1-0.1-16.7-0.2l0.8-0.8l-0.1,8.3l-0.7-0.7L161.3,251.3z"/>
	</g>
	<g>
		<path class="st4" d="M163.8,111.9v25.9c-0.9-0.4-1.9-0.5-2.9-0.5c-1,0-2,0.2-2.9,0.5v-25.9H163.8z"/>
		<path class="st1" d="M164.2,111.5l0.1,13.1c0,4.4,0.1,8.7,0.2,13.1c0,0.4-0.3,0.7-0.6,0.7c-0.1,0-0.2,0-0.3,0l0,0
			c-1.7-0.6-3.7-0.6-5.3,0.1c-0.4,0.2-0.9,0-1-0.4c0-0.1-0.1-0.2-0.1-0.3l0,0l-0.1-6.5c0-2.2-0.1-4.3-0.1-6.5
			c0-4.3,0.1-8.6,0.7-12.9l0,0l0,0c0-0.2,0.2-0.3,0.3-0.3C160,111.5,162.1,111.5,164.2,111.5z M163.4,112.3c-1.8,0-3.6,0-5.5-0.1
			l0.3-0.3l0,0c0.6,4.3,0.7,8.6,0.7,12.9c0,2.2,0,4.3-0.1,6.5l-0.1,6.5l-1.1-0.7c2.1-0.8,4.4-0.7,6.4,0.1l-0.9,0.6
			c0.1-4.2,0.2-8.5,0.2-12.7L163.4,112.3z"/>
	</g>
	<rect x="157.9" y="111.9" class="st8" width="5.9" height="5"/>
	<g>
		<pattern  id="SVGID_9_" xlink:href="#New_Pattern_Swatch_1" patternTransform="matrix(1 0 0 1 7.2 0)">
		</pattern>
		<path class="st9" d="M169.1,145.4v14c0,4.5-3.7,8.2-8.2,8.2s-8.2-3.7-8.2-8.2v-14c0-3.5,2.2-6.5,5.3-7.6c0.9-0.4,1.9-0.5,2.9-0.5
			c1,0,2,0.2,2.9,0.5c1.1,0.4,2.1,1,2.9,1.8C168.1,141.1,169.1,143.2,169.1,145.4z"/>
		<path class="st1" d="M169.2,145.4c-0.1,3.3,0,6.6,0.1,9.9l0.1,2.5c0,0.8,0.1,1.6,0,2.5c-0.1,1.7-0.8,3.4-2,4.8
			c-1.1,1.3-2.7,2.4-4.4,2.8c-0.9,0.2-1.7,0.3-2.6,0.3c-0.9,0-1.8-0.2-2.6-0.5c-1.7-0.6-3.2-1.7-4.2-3.2c-0.5-0.7-0.9-1.5-1.2-2.4
			c-0.3-0.9-0.4-1.8-0.4-2.7l-0.2-9.9l0-2.5c0-0.8-0.1-1.6,0-2.6c0.2-1.9,1-3.6,2.2-5c1.2-1.4,2.9-2.3,4.7-2.7
			c1.8-0.4,3.7-0.2,5.3,0.6C167.2,138.7,169.2,142.1,169.2,145.4z M169,145.4c0-1.6-0.6-3.3-1.6-4.5c-1-1.3-2.4-2.2-3.9-2.6
			c-3-0.9-6.3,0.2-8.1,2.5c-0.9,1.1-1.5,2.5-1.7,3.9c-0.1,0.7-0.1,1.6-0.1,2.4l0,2.5l-0.2,9.9c-0.1,3,1.9,6,4.8,7.1
			c0.7,0.3,1.5,0.5,2.2,0.5c0.8,0.1,1.5,0,2.3-0.2c1.5-0.3,2.9-1.2,3.9-2.3c1.1-1.1,1.7-2.6,2-4.2c0.1-1.6,0.1-3.3,0.2-4.9
			C168.9,152.1,169,148.8,169,145.4z"/>
	</g>
	<rect x="123.6" y="111.9" class="st8" width="8.8" height="5"/>
</g>
</svg>
