<?xml version="1.0" encoding="utf-8"?>
<!-- Generator: Adobe Illustrator 22.1.0, SVG Export Plug-In . SVG Version: 6.00 Build 0)  -->
<svg version="1.1" id="Layer_1" xmlns="http://www.w3.org/2000/svg" xmlns:xlink="http://www.w3.org/1999/xlink" x="0px" y="0px"
	 viewBox="0 0 256 256" style="enable-background:new 0 0 256 256;" xml:space="preserve">
<style type="text/css">
	.st0{fill:none;}
	.st1{fill:#253759;}
	.st2{clip-path:url(#SVGID_2_);fill:#253759;}
	.st3{clip-path:url(#SVGID_4_);fill:#253759;}
	.st4{fill:#FFFFFF;}
	.st5{fill:url(#SVGID_7_);}
	.st6{fill:url(#SVGID_8_);}
	.st7{fill:url(#SVGID_9_);}
	.st8{fill:url(#SVGID_10_);}
	.st9{fill:url(#SVGID_11_);}
	.st10{fill:url(#SVGID_12_);}
	.st11{fill:#A6D6FF;}
	.st12{fill:url(#SVGID_13_);}
	.st13{fill:url(#SVGID_14_);}
	.st14{opacity:0.3;fill:#253759;}
</style>
<pattern  x="-2484" y="-552" width="42.9" height="43" patternUnits="userSpaceOnUse" id="New_Pattern_Swatch_1" viewBox="43 -43 42.9 43" style="overflow:visible;">
	<g>
		<rect x="43" y="-43" class="st0" width="42.9" height="43"/>
		<g>
			<g>
				<circle class="st1" cx="85.9" cy="-41.2" r="0.6"/>
				<circle class="st1" cx="85.9" cy="-37.6" r="0.6"/>
				<circle class="st1" cx="85.9" cy="-34" r="0.6"/>
				<circle class="st1" cx="85.9" cy="-30.4" r="0.6"/>
				<circle class="st1" cx="85.9" cy="-26.9" r="0.6"/>
				<circle class="st1" cx="85.9" cy="-23.3" r="0.6"/>
				<circle class="st1" cx="85.9" cy="-19.7" r="0.6"/>
				<circle class="st1" cx="85.9" cy="-16.1" r="0.6"/>
				<circle class="st1" cx="85.9" cy="-12.6" r="0.6"/>
				<circle class="st1" cx="85.9" cy="-9" r="0.6"/>
				<circle class="st1" cx="85.9" cy="-5.4" r="0.6"/>
				<circle class="st1" cx="85.9" cy="-1.8" r="0.6"/>
				<circle class="st1" cx="85.8" cy="-41.2" r="0.6"/>
				<circle class="st1" cx="85.8" cy="-37.6" r="0.6"/>
				<circle class="st1" cx="85.8" cy="-34" r="0.6"/>
				<circle class="st1" cx="85.8" cy="-30.4" r="0.6"/>
				<circle class="st1" cx="85.8" cy="-26.9" r="0.6"/>
				<circle class="st1" cx="85.8" cy="-23.3" r="0.6"/>
				<circle class="st1" cx="85.8" cy="-19.7" r="0.6"/>
				<circle class="st1" cx="85.8" cy="-16.1" r="0.6"/>
				<circle class="st1" cx="85.8" cy="-12.6" r="0.6"/>
				<circle class="st1" cx="85.8" cy="-9" r="0.6"/>
				<circle class="st1" cx="85.8" cy="-5.4" r="0.6"/>
				<circle class="st1" cx="85.8" cy="-1.8" r="0.6"/>
			</g>
			<g>
				<defs>
					<rect id="SVGID_1_" x="85.8" y="-43" width="43" height="43"/>
				</defs>
				<clipPath id="SVGID_2_">
					<use xlink:href="#SVGID_1_"  style="overflow:visible;"/>
				</clipPath>
				<circle class="st2" cx="85.8" cy="-41.2" r="0.6"/>
				<circle class="st2" cx="85.8" cy="-37.6" r="0.6"/>
				<circle class="st2" cx="85.8" cy="-34" r="0.6"/>
				<circle class="st2" cx="85.8" cy="-30.4" r="0.6"/>
				<circle class="st2" cx="85.8" cy="-26.9" r="0.6"/>
				<circle class="st2" cx="85.8" cy="-23.3" r="0.6"/>
				<circle class="st2" cx="85.8" cy="-19.7" r="0.6"/>
				<circle class="st2" cx="85.8" cy="-16.1" r="0.6"/>
				<circle class="st2" cx="85.8" cy="-12.6" r="0.6"/>
				<circle class="st2" cx="85.8" cy="-9" r="0.6"/>
				<circle class="st2" cx="85.8" cy="-5.4" r="0.6"/>
				<circle class="st2" cx="85.8" cy="-1.8" r="0.6"/>
				<circle class="st2" cx="85.7" cy="-41.2" r="0.6"/>
				<circle class="st2" cx="85.7" cy="-37.6" r="0.6"/>
				<circle class="st2" cx="85.7" cy="-34" r="0.6"/>
				<circle class="st2" cx="85.7" cy="-30.4" r="0.6"/>
				<circle class="st2" cx="85.7" cy="-26.9" r="0.6"/>
				<circle class="st2" cx="85.7" cy="-23.3" r="0.6"/>
				<circle class="st2" cx="85.7" cy="-19.7" r="0.6"/>
				<circle class="st2" cx="85.7" cy="-16.1" r="0.6"/>
				<circle class="st2" cx="85.7" cy="-12.6" r="0.6"/>
				<circle class="st2" cx="85.7" cy="-9" r="0.6"/>
				<circle class="st2" cx="85.7" cy="-5.4" r="0.6"/>
				<circle class="st2" cx="85.7" cy="-1.8" r="0.6"/>
			</g>
		</g>
		<g>
			<g>
				<circle class="st1" cx="85.9" cy="-41.2" r="0.6"/>
				<circle class="st1" cx="85.9" cy="-37.6" r="0.6"/>
				<circle class="st1" cx="85.9" cy="-34" r="0.6"/>
				<circle class="st1" cx="85.9" cy="-30.4" r="0.6"/>
				<circle class="st1" cx="85.9" cy="-26.9" r="0.6"/>
				<circle class="st1" cx="85.9" cy="-23.3" r="0.6"/>
				<circle class="st1" cx="85.9" cy="-19.7" r="0.6"/>
				<circle class="st1" cx="85.9" cy="-16.1" r="0.6"/>
				<circle class="st1" cx="85.9" cy="-12.6" r="0.6"/>
				<circle class="st1" cx="85.9" cy="-9" r="0.6"/>
				<circle class="st1" cx="85.9" cy="-5.4" r="0.6"/>
				<circle class="st1" cx="85.9" cy="-1.8" r="0.6"/>
				<circle class="st1" cx="43" cy="-41.2" r="0.6"/>
				<circle class="st1" cx="46.5" cy="-41.2" r="0.6"/>
				<circle class="st1" cx="50.1" cy="-41.2" r="0.6"/>
				<circle class="st1" cx="53.7" cy="-41.2" r="0.6"/>
				<circle class="st1" cx="43" cy="-37.6" r="0.6"/>
				<circle class="st1" cx="46.5" cy="-37.6" r="0.6"/>
				<circle class="st1" cx="50.1" cy="-37.6" r="0.6"/>
				<circle class="st1" cx="53.7" cy="-37.6" r="0.6"/>
				<circle class="st1" cx="43" cy="-34" r="0.6"/>
				<circle class="st1" cx="46.5" cy="-34" r="0.6"/>
				<circle class="st1" cx="50.1" cy="-34" r="0.6"/>
				<circle class="st1" cx="53.7" cy="-34" r="0.6"/>
				<circle class="st1" cx="43" cy="-30.4" r="0.6"/>
				<circle class="st1" cx="46.5" cy="-30.4" r="0.6"/>
				<circle class="st1" cx="50.1" cy="-30.4" r="0.6"/>
				<circle class="st1" cx="53.7" cy="-30.4" r="0.6"/>
				<circle class="st1" cx="43" cy="-26.9" r="0.6"/>
				<circle class="st1" cx="46.5" cy="-26.9" r="0.6"/>
				<circle class="st1" cx="50.1" cy="-26.9" r="0.6"/>
				<circle class="st1" cx="53.7" cy="-26.9" r="0.6"/>
				<circle class="st1" cx="43" cy="-23.3" r="0.6"/>
				<circle class="st1" cx="46.5" cy="-23.3" r="0.6"/>
				<circle class="st1" cx="50.1" cy="-23.3" r="0.6"/>
				<circle class="st1" cx="53.7" cy="-23.3" r="0.6"/>
				<circle class="st1" cx="57.3" cy="-41.2" r="0.6"/>
				<circle class="st1" cx="60.8" cy="-41.2" r="0.6"/>
				<circle class="st1" cx="64.4" cy="-41.2" r="0.6"/>
				<circle class="st1" cx="68" cy="-41.2" r="0.6"/>
				<circle class="st1" cx="71.5" cy="-41.2" r="0.6"/>
				<circle class="st1" cx="57.3" cy="-37.6" r="0.6"/>
				<circle class="st1" cx="60.8" cy="-37.6" r="0.6"/>
				<circle class="st1" cx="64.4" cy="-37.6" r="0.6"/>
				<circle class="st1" cx="68" cy="-37.6" r="0.6"/>
				<circle class="st1" cx="71.5" cy="-37.6" r="0.6"/>
				<circle class="st1" cx="57.3" cy="-34" r="0.6"/>
				<circle class="st1" cx="60.8" cy="-34" r="0.6"/>
				<circle class="st1" cx="64.4" cy="-34" r="0.6"/>
				<circle class="st1" cx="68" cy="-34" r="0.6"/>
				<circle class="st1" cx="71.5" cy="-34" r="0.6"/>
				<circle class="st1" cx="57.3" cy="-30.4" r="0.6"/>
				<circle class="st1" cx="60.8" cy="-30.4" r="0.6"/>
				<circle class="st1" cx="64.4" cy="-30.4" r="0.6"/>
				<circle class="st1" cx="68" cy="-30.4" r="0.6"/>
				<circle class="st1" cx="71.5" cy="-30.4" r="0.6"/>
				<circle class="st1" cx="57.3" cy="-26.9" r="0.6"/>
				<circle class="st1" cx="60.8" cy="-26.9" r="0.6"/>
				<circle class="st1" cx="64.4" cy="-26.9" r="0.6"/>
				<circle class="st1" cx="68" cy="-26.9" r="0.6"/>
				<circle class="st1" cx="71.5" cy="-26.9" r="0.6"/>
				<circle class="st1" cx="57.3" cy="-23.3" r="0.6"/>
				<circle class="st1" cx="60.8" cy="-23.3" r="0.6"/>
				<circle class="st1" cx="64.4" cy="-23.3" r="0.6"/>
				<circle class="st1" cx="68" cy="-23.3" r="0.6"/>
				<circle class="st1" cx="71.5" cy="-23.3" r="0.6"/>
				<circle class="st1" cx="75.1" cy="-41.2" r="0.6"/>
				<circle class="st1" cx="78.7" cy="-41.2" r="0.6"/>
				<circle class="st1" cx="82.3" cy="-41.2" r="0.6"/>
				<circle class="st1" cx="85.8" cy="-41.2" r="0.6"/>
				<circle class="st1" cx="75.1" cy="-37.6" r="0.6"/>
				<circle class="st1" cx="78.7" cy="-37.6" r="0.6"/>
				<circle class="st1" cx="82.3" cy="-37.6" r="0.6"/>
				<circle class="st1" cx="85.8" cy="-37.6" r="0.6"/>
				<circle class="st1" cx="75.1" cy="-34" r="0.6"/>
				<circle class="st1" cx="78.7" cy="-34" r="0.6"/>
				<circle class="st1" cx="82.3" cy="-34" r="0.6"/>
				<circle class="st1" cx="85.8" cy="-34" r="0.6"/>
				<circle class="st1" cx="75.1" cy="-30.4" r="0.6"/>
				<circle class="st1" cx="78.7" cy="-30.4" r="0.6"/>
				<circle class="st1" cx="82.3" cy="-30.4" r="0.6"/>
				<circle class="st1" cx="85.8" cy="-30.4" r="0.6"/>
				<circle class="st1" cx="75.1" cy="-26.9" r="0.6"/>
				<circle class="st1" cx="78.7" cy="-26.9" r="0.6"/>
				<circle class="st1" cx="82.3" cy="-26.9" r="0.6"/>
				<circle class="st1" cx="85.8" cy="-26.9" r="0.6"/>
				<circle class="st1" cx="75.1" cy="-23.3" r="0.6"/>
				<circle class="st1" cx="78.7" cy="-23.3" r="0.6"/>
				<circle class="st1" cx="82.3" cy="-23.3" r="0.6"/>
				<circle class="st1" cx="85.8" cy="-23.3" r="0.6"/>
				<circle class="st1" cx="43" cy="-19.7" r="0.6"/>
				<circle class="st1" cx="46.5" cy="-19.7" r="0.6"/>
				<circle class="st1" cx="50.1" cy="-19.7" r="0.6"/>
				<circle class="st1" cx="53.7" cy="-19.7" r="0.6"/>
				<circle class="st1" cx="43" cy="-16.1" r="0.6"/>
				<circle class="st1" cx="46.5" cy="-16.1" r="0.6"/>
				<circle class="st1" cx="50.1" cy="-16.1" r="0.6"/>
				<circle class="st1" cx="53.7" cy="-16.1" r="0.6"/>
				<circle class="st1" cx="43" cy="-12.6" r="0.6"/>
				<circle class="st1" cx="46.5" cy="-12.6" r="0.6"/>
				<circle class="st1" cx="50.1" cy="-12.6" r="0.6"/>
				<circle class="st1" cx="53.7" cy="-12.6" r="0.6"/>
				<circle class="st1" cx="43" cy="-9" r="0.6"/>
				<circle class="st1" cx="46.5" cy="-9" r="0.6"/>
				<circle class="st1" cx="50.1" cy="-9" r="0.6"/>
				<circle class="st1" cx="53.7" cy="-9" r="0.6"/>
				<circle class="st1" cx="43" cy="-5.4" r="0.6"/>
				<circle class="st1" cx="46.5" cy="-5.4" r="0.6"/>
				<circle class="st1" cx="50.1" cy="-5.4" r="0.6"/>
				<circle class="st1" cx="53.7" cy="-5.4" r="0.6"/>
				<circle class="st1" cx="43" cy="-1.8" r="0.6"/>
				<circle class="st1" cx="46.5" cy="-1.8" r="0.6"/>
				<circle class="st1" cx="50.1" cy="-1.8" r="0.6"/>
				<circle class="st1" cx="53.7" cy="-1.8" r="0.6"/>
				<circle class="st1" cx="57.3" cy="-19.7" r="0.6"/>
				<circle class="st1" cx="60.8" cy="-19.7" r="0.6"/>
				<circle class="st1" cx="64.4" cy="-19.7" r="0.6"/>
				<circle class="st1" cx="68" cy="-19.7" r="0.6"/>
				<circle class="st1" cx="71.5" cy="-19.7" r="0.6"/>
				<circle class="st1" cx="57.3" cy="-16.1" r="0.6"/>
				<circle class="st1" cx="60.8" cy="-16.1" r="0.6"/>
				<circle class="st1" cx="64.4" cy="-16.1" r="0.6"/>
				<circle class="st1" cx="68" cy="-16.1" r="0.6"/>
				<circle class="st1" cx="71.5" cy="-16.1" r="0.6"/>
				<circle class="st1" cx="57.3" cy="-12.6" r="0.6"/>
				<circle class="st1" cx="60.8" cy="-12.6" r="0.6"/>
				<circle class="st1" cx="64.4" cy="-12.6" r="0.6"/>
				<circle class="st1" cx="68" cy="-12.6" r="0.6"/>
				<circle class="st1" cx="71.5" cy="-12.6" r="0.6"/>
				<circle class="st1" cx="57.3" cy="-9" r="0.6"/>
				<circle class="st1" cx="60.8" cy="-9" r="0.6"/>
				<circle class="st1" cx="64.4" cy="-9" r="0.6"/>
				<circle class="st1" cx="68" cy="-9" r="0.6"/>
				<circle class="st1" cx="71.5" cy="-9" r="0.6"/>
				<circle class="st1" cx="57.3" cy="-5.4" r="0.6"/>
				<circle class="st1" cx="60.8" cy="-5.4" r="0.6"/>
				<circle class="st1" cx="64.4" cy="-5.4" r="0.6"/>
				<circle class="st1" cx="68" cy="-5.4" r="0.6"/>
				<circle class="st1" cx="71.5" cy="-5.4" r="0.6"/>
				<circle class="st1" cx="57.3" cy="-1.8" r="0.6"/>
				<circle class="st1" cx="60.8" cy="-1.8" r="0.6"/>
				<circle class="st1" cx="64.4" cy="-1.8" r="0.6"/>
				<circle class="st1" cx="68" cy="-1.8" r="0.6"/>
				<circle class="st1" cx="71.5" cy="-1.8" r="0.6"/>
				<circle class="st1" cx="75.1" cy="-19.7" r="0.6"/>
				<circle class="st1" cx="78.7" cy="-19.7" r="0.6"/>
				<circle class="st1" cx="82.3" cy="-19.7" r="0.6"/>
				<circle class="st1" cx="85.8" cy="-19.7" r="0.6"/>
				<circle class="st1" cx="75.1" cy="-16.1" r="0.6"/>
				<circle class="st1" cx="78.7" cy="-16.1" r="0.6"/>
				<circle class="st1" cx="82.3" cy="-16.1" r="0.6"/>
				<circle class="st1" cx="85.8" cy="-16.1" r="0.6"/>
				<circle class="st1" cx="75.1" cy="-12.6" r="0.6"/>
				<circle class="st1" cx="78.7" cy="-12.6" r="0.6"/>
				<circle class="st1" cx="82.3" cy="-12.6" r="0.6"/>
				<circle class="st1" cx="85.8" cy="-12.6" r="0.6"/>
				<circle class="st1" cx="75.1" cy="-9" r="0.6"/>
				<circle class="st1" cx="78.7" cy="-9" r="0.6"/>
				<circle class="st1" cx="82.3" cy="-9" r="0.6"/>
				<circle class="st1" cx="85.8" cy="-9" r="0.6"/>
				<circle class="st1" cx="75.1" cy="-5.4" r="0.6"/>
				<circle class="st1" cx="78.7" cy="-5.4" r="0.6"/>
				<circle class="st1" cx="82.3" cy="-5.4" r="0.6"/>
				<circle class="st1" cx="85.8" cy="-5.4" r="0.6"/>
				<circle class="st1" cx="75.1" cy="-1.8" r="0.6"/>
				<circle class="st1" cx="78.7" cy="-1.8" r="0.6"/>
				<circle class="st1" cx="82.3" cy="-1.8" r="0.6"/>
				<circle class="st1" cx="85.8" cy="-1.8" r="0.6"/>
				<circle class="st1" cx="42.9" cy="-41.2" r="0.6"/>
				<circle class="st1" cx="42.9" cy="-37.6" r="0.6"/>
				<circle class="st1" cx="42.9" cy="-34" r="0.6"/>
				<circle class="st1" cx="42.9" cy="-30.4" r="0.6"/>
				<circle class="st1" cx="42.9" cy="-26.9" r="0.6"/>
				<circle class="st1" cx="42.9" cy="-23.3" r="0.6"/>
				<circle class="st1" cx="42.9" cy="-19.7" r="0.6"/>
				<circle class="st1" cx="42.9" cy="-16.1" r="0.6"/>
				<circle class="st1" cx="42.9" cy="-12.6" r="0.6"/>
				<circle class="st1" cx="42.9" cy="-9" r="0.6"/>
				<circle class="st1" cx="42.9" cy="-5.4" r="0.6"/>
				<circle class="st1" cx="42.9" cy="-1.8" r="0.6"/>
			</g>
			<g>
				<defs>
					<rect id="SVGID_3_" x="42.9" y="-43" width="43" height="43"/>
				</defs>
				<clipPath id="SVGID_4_">
					<use xlink:href="#SVGID_3_"  style="overflow:visible;"/>
				</clipPath>
				<circle class="st3" cx="42.9" cy="-41.2" r="0.6"/>
				<circle class="st3" cx="42.9" cy="-37.6" r="0.6"/>
				<circle class="st3" cx="42.9" cy="-34" r="0.6"/>
				<circle class="st3" cx="42.9" cy="-30.4" r="0.6"/>
				<circle class="st3" cx="42.9" cy="-26.9" r="0.6"/>
				<circle class="st3" cx="42.9" cy="-23.3" r="0.6"/>
				<circle class="st3" cx="42.9" cy="-19.7" r="0.6"/>
				<circle class="st3" cx="42.9" cy="-16.1" r="0.6"/>
				<circle class="st3" cx="42.9" cy="-12.6" r="0.6"/>
				<circle class="st3" cx="42.9" cy="-9" r="0.6"/>
				<circle class="st3" cx="42.9" cy="-5.4" r="0.6"/>
				<circle class="st3" cx="42.9" cy="-1.8" r="0.6"/>
				<circle class="st3" cx="42.8" cy="-41.2" r="0.6"/>
				<circle class="st3" cx="42.8" cy="-37.6" r="0.6"/>
				<circle class="st3" cx="42.8" cy="-34" r="0.6"/>
				<circle class="st3" cx="42.8" cy="-30.4" r="0.6"/>
				<circle class="st3" cx="42.8" cy="-26.9" r="0.6"/>
				<circle class="st3" cx="42.8" cy="-23.3" r="0.6"/>
				<circle class="st3" cx="42.8" cy="-19.7" r="0.6"/>
				<circle class="st3" cx="42.8" cy="-16.1" r="0.6"/>
				<circle class="st3" cx="42.8" cy="-12.6" r="0.6"/>
				<circle class="st3" cx="42.8" cy="-9" r="0.6"/>
				<circle class="st3" cx="42.8" cy="-5.4" r="0.6"/>
				<circle class="st3" cx="42.8" cy="-1.8" r="0.6"/>
			</g>
		</g>
		<g>
			<g>
				<circle class="st1" cx="43" cy="-41.2" r="0.6"/>
				<circle class="st1" cx="43" cy="-37.6" r="0.6"/>
				<circle class="st1" cx="43" cy="-34" r="0.6"/>
				<circle class="st1" cx="43" cy="-30.4" r="0.6"/>
				<circle class="st1" cx="43" cy="-26.9" r="0.6"/>
				<circle class="st1" cx="43" cy="-23.3" r="0.6"/>
				<circle class="st1" cx="43" cy="-19.7" r="0.6"/>
				<circle class="st1" cx="43" cy="-16.1" r="0.6"/>
				<circle class="st1" cx="43" cy="-12.6" r="0.6"/>
				<circle class="st1" cx="43" cy="-9" r="0.6"/>
				<circle class="st1" cx="43" cy="-5.4" r="0.6"/>
				<circle class="st1" cx="43" cy="-1.8" r="0.6"/>
				<circle class="st1" cx="42.9" cy="-41.2" r="0.6"/>
				<circle class="st1" cx="42.9" cy="-37.6" r="0.6"/>
				<circle class="st1" cx="42.9" cy="-34" r="0.6"/>
				<circle class="st1" cx="42.9" cy="-30.4" r="0.6"/>
				<circle class="st1" cx="42.9" cy="-26.9" r="0.6"/>
				<circle class="st1" cx="42.9" cy="-23.3" r="0.6"/>
				<circle class="st1" cx="42.9" cy="-19.7" r="0.6"/>
				<circle class="st1" cx="42.9" cy="-16.1" r="0.6"/>
				<circle class="st1" cx="42.9" cy="-12.6" r="0.6"/>
				<circle class="st1" cx="42.9" cy="-9" r="0.6"/>
				<circle class="st1" cx="42.9" cy="-5.4" r="0.6"/>
				<circle class="st1" cx="42.9" cy="-1.8" r="0.6"/>
			</g>
			<g>
				<defs>
					<rect id="SVGID_5_" y="-43" width="43" height="43"/>
				</defs>
				<clipPath id="SVGID_6_">
					<use xlink:href="#SVGID_5_"  style="overflow:visible;"/>
				</clipPath>
			</g>
		</g>
	</g>
</pattern>
<g>
	<g>
		<path class="st4" d="M225.6,158.8H30.4V23.2c0-2.8,2.2-5,5-5h185.1c2.8,0,5,2.2,5,5V158.8z"/>
		<path class="st1" d="M226.2,159.5l-97.9,0l-48.9-0.1c-16.3,0-32.6-0.1-48.9,0c-0.3,0-0.5-0.2-0.6-0.5v0l-0.2-118l0-14.8l0-1.8
			l0-0.9c0-0.3,0-0.7,0.1-1c0.2-1.4,1-2.7,2.1-3.6c0.6-0.4,1.2-0.8,1.9-1c0.7-0.2,1.5-0.3,2.1-0.3l3.7,0l29.5,0l59-0.1l59-0.1
			l29.5,0l3.7,0c0.3,0,0.7,0,1,0c0.4,0,0.7,0.1,1.1,0.2c0.7,0.2,1.4,0.6,1.9,1c1.2,0.9,2,2.3,2.2,3.7c0.1,0.4,0.1,0.7,0.1,1.1l0,0.9
			l0,1.9l0,14.8L226.2,159.5z M224.9,158.2l-0.3-117.5l0-14.7l0-1.8l0-0.9c0-0.3,0-0.5-0.1-0.8c-0.2-1-0.7-1.9-1.5-2.5
			c-0.4-0.3-0.8-0.5-1.3-0.7c-0.2-0.1-0.5-0.1-0.7-0.1c-0.2,0-0.5,0-0.8,0l-3.7,0l-29.5,0l-59-0.1L69,19l-29.5,0l-3.7,0
			c-1.1-0.1-2.1,0.2-2.9,0.9c-0.8,0.6-1.4,1.6-1.5,2.6c-0.1,0.3-0.1,0.5-0.1,0.8l0,0.9l0,1.8l0,14.8l-0.2,118l-0.6-0.6
			c16.2,0.1,32.5,0,48.7,0l48.6-0.1L224.9,158.2z"/>
	</g>
	<g>
		<pattern  id="SVGID_7_" xlink:href="#New_Pattern_Swatch_1" patternTransform="matrix(1 0 0 1 7.2 0)">
		</pattern>
		<rect x="38.9" y="26.6" class="st5" width="178.2" height="123.7"/>
		<path class="st1" d="M38.5,150.8l0-124.1c0-0.2,0.2-0.4,0.4-0.4l178.2-0.4c0.4,0,0.8,0.4,0.8,0.8v0l0.2,123.7c0,0.6-0.5,1-1,1h0
			c-29.8,0-59.6-0.2-89.4-0.3L38.5,150.8z M39.3,150l89-0.4c29.6-0.1,59.2-0.3,88.8-0.3l-1,1l0.2-123.7l0.8,0.8L38.9,27.1l0.4-0.4
			L39.3,150z"/>
	</g>
	<g>
		<pattern  id="SVGID_8_" xlink:href="#New_Pattern_Swatch_1" patternTransform="matrix(1 0 0 1 7.2 0)">
		</pattern>
		<path class="st6" d="M4,224.8L4,224.8l248,0v0c0,7.2-5.8,13-13,13H17C9.8,237.8,4,232,4,224.8z"/>
		<path class="st1" d="M3.6,224.8c0.8-0.8,0.3-0.2,0.5-0.4h0.1l0.1,0l0.2,0l0.5,0l1,0l1.9,0l3.9,0l7.8,0l15.5,0l31,0l62,0l124-0.3
			l0.8,0.8c0,1.5-0.2,2.9-0.7,4.3c-0.4,1.4-1.1,2.7-2,3.9c-1.7,2.4-4.2,4.1-6.9,5.1c-1.4,0.4-2.8,0.7-4.3,0.7l-4.1,0l-8.2,0
			l-32.9,0.1l-65.7,0.1l-65.7-0.2l-32.9-0.1l-8.2-0.1l-4.1,0c-1.4,0-2.8-0.2-4.2-0.7c-2.7-0.9-5.1-2.6-6.8-5
			c-0.8-1.2-1.5-2.4-1.9-3.8C3.8,227.6,3.6,226.2,3.6,224.8z M4.4,224.8c0,1.3,0.2,2.6,0.7,3.9c0.4,1.3,1.1,2.4,1.8,3.5
			c1.5,2.1,3.8,3.7,6.3,4.5c1.3,0.4,2.6,0.6,3.9,0.6l4.1,0l8.2-0.1l32.9-0.1l65.7-0.2l65.7,0.1l32.9,0.1l8.2,0l4.1,0
			c1.3,0,2.6-0.2,3.8-0.6c2.4-0.8,4.6-2.3,6.1-4.4c0.8-1,1.4-2.2,1.8-3.4c0.4-1.2,0.6-2.5,0.6-3.8l0.8,0.8l-124-0.3l-62,0l-31,0
			l-15.5,0l-7.8,0l-3.9,0l-1.9,0l-1,0l-0.5,0l-0.2,0l-0.1,0l-0.1,0C4.2,225,3.6,225.6,4.4,224.8z"/>
	</g>
	<g>
		<pattern  id="SVGID_9_" xlink:href="#New_Pattern_Swatch_1" patternTransform="matrix(1 0 0 1 7.2 0)">
		</pattern>
		<rect x="38.9" y="26.6" class="st7" width="178.2" height="123.7"/>
		<path class="st1" d="M38.5,150.8l0-124.1c0-0.2,0.2-0.4,0.4-0.4l178.2-0.4c0.4,0,0.8,0.4,0.8,0.8v0l0.2,123.7c0,0.6-0.5,1-1,1h0
			c-29.8,0-59.6-0.2-89.4-0.3L38.5,150.8z M39.3,150l89-0.4c29.6-0.1,59.2-0.3,88.8-0.3l-1,1l0.2-123.7l0.8,0.8L38.9,27.1l0.4-0.4
			L39.3,150z"/>
	</g>
	<g>
		<pattern  id="SVGID_10_" xlink:href="#New_Pattern_Swatch_1" patternTransform="matrix(1 0 0 1 7.2 0)">
		</pattern>
		<path class="st8" d="M4,224.8L4,224.8l248,0v0c0,7.2-5.8,13-13,13H17C9.8,237.8,4,232,4,224.8z"/>
		<path class="st1" d="M3.6,224.8c0.8-0.8,0.3-0.2,0.5-0.4h0.1l0.1,0l0.2,0l0.5,0l1,0l1.9,0l3.9,0l7.8,0l15.5,0l31,0l62,0l124-0.3
			l0.8,0.8c0,1.5-0.2,2.9-0.7,4.3c-0.4,1.4-1.1,2.7-2,3.9c-1.7,2.4-4.2,4.1-6.9,5.1c-1.4,0.4-2.8,0.7-4.3,0.7l-4.1,0l-8.2,0
			l-32.9,0.1l-65.7,0.1l-65.7-0.2l-32.9-0.1l-8.2-0.1l-4.1,0c-1.4,0-2.8-0.2-4.2-0.7c-2.7-0.9-5.1-2.6-6.8-5
			c-0.8-1.2-1.5-2.4-1.9-3.8C3.8,227.6,3.6,226.2,3.6,224.8z M4.4,224.8c0,1.3,0.2,2.6,0.7,3.9c0.4,1.3,1.1,2.4,1.8,3.5
			c1.5,2.1,3.8,3.7,6.3,4.5c1.3,0.4,2.6,0.6,3.9,0.6l4.1,0l8.2-0.1l32.9-0.1l65.7-0.2l65.7,0.1l32.9,0.1l8.2,0l4.1,0
			c1.3,0,2.6-0.2,3.8-0.6c2.4-0.8,4.6-2.3,6.1-4.4c0.8-1,1.4-2.2,1.8-3.4c0.4-1.2,0.6-2.5,0.6-3.8l0.8,0.8l-124-0.3l-62,0l-31,0
			l-15.5,0l-7.8,0l-3.9,0l-1.9,0l-1,0l-0.5,0l-0.2,0l-0.1,0l-0.1,0C4.2,225,3.6,225.6,4.4,224.8z"/>
	</g>
	<g>
		<pattern  id="SVGID_11_" xlink:href="#New_Pattern_Swatch_1" patternTransform="matrix(1 0 0 1 7.2 0)">
		</pattern>
		<rect x="38.9" y="26.6" class="st9" width="178.2" height="123.7"/>
		<path class="st1" d="M38.5,150.8l0-124.1c0-0.2,0.2-0.4,0.4-0.4l178.2-0.4c0.4,0,0.8,0.4,0.8,0.8v0l0.2,123.7c0,0.6-0.5,1-1,1h0
			c-29.8,0-59.6-0.2-89.4-0.3L38.5,150.8z M39.3,150l89-0.4c29.6-0.1,59.2-0.3,88.8-0.3l-1,1l0.2-123.7l0.8,0.8L38.9,27.1l0.4-0.4
			L39.3,150z"/>
	</g>
	<g>
		<pattern  id="SVGID_12_" xlink:href="#New_Pattern_Swatch_1" patternTransform="matrix(1 0 0 1 7.2 0)">
		</pattern>
		<path class="st10" d="M4,224.8L4,224.8l248,0v0c0,7.2-5.8,13-13,13H17C9.8,237.8,4,232,4,224.8z"/>
		<path class="st1" d="M3.6,224.8c0.8-0.8,0.3-0.2,0.5-0.4h0.1l0.1,0l0.2,0l0.5,0l1,0l1.9,0l3.9,0l7.8,0l15.5,0l31,0l62,0l124-0.3
			l0.8,0.8c0,1.5-0.2,2.9-0.7,4.3c-0.4,1.4-1.1,2.7-2,3.9c-1.7,2.4-4.2,4.1-6.9,5.1c-1.4,0.4-2.8,0.7-4.3,0.7l-4.1,0l-8.2,0
			l-32.9,0.1l-65.7,0.1l-65.7-0.2l-32.9-0.1l-8.2-0.1l-4.1,0c-1.4,0-2.8-0.2-4.2-0.7c-2.7-0.9-5.1-2.6-6.8-5
			c-0.8-1.2-1.5-2.4-1.9-3.8C3.8,227.6,3.6,226.2,3.6,224.8z M4.4,224.8c0,1.3,0.2,2.6,0.7,3.9c0.4,1.3,1.1,2.4,1.8,3.5
			c1.5,2.1,3.8,3.7,6.3,4.5c1.3,0.4,2.6,0.6,3.9,0.6l4.1,0l8.2-0.1l32.9-0.1l65.7-0.2l65.7,0.1l32.9,0.1l8.2,0l4.1,0
			c1.3,0,2.6-0.2,3.8-0.6c2.4-0.8,4.6-2.3,6.1-4.4c0.8-1,1.4-2.2,1.8-3.4c0.4-1.2,0.6-2.5,0.6-3.8l0.8,0.8l-124-0.3l-62,0l-31,0
			l-15.5,0l-7.8,0l-3.9,0l-1.9,0l-1,0l-0.5,0l-0.2,0l-0.1,0l-0.1,0C4.2,225,3.6,225.6,4.4,224.8z"/>
	</g>
	
		<rect x="66.1" y="-0.6" transform="matrix(-1.836970e-16 1 -1 -1.836970e-16 216.5174 -39.4826)" class="st11" width="123.7" height="178.2"/>
	<path class="st11" d="M4,224.8L4,224.8l248,0v0c0,7.2-5.8,13-13,13H17C9.8,237.8,4,232,4,224.8z"/>
	<g>
		<pattern  id="SVGID_13_" xlink:href="#New_Pattern_Swatch_1" patternTransform="matrix(1 0 0 1 7.2 0)">
		</pattern>
		<rect x="38.9" y="26.6" class="st12" width="178.2" height="123.7"/>
		<path class="st1" d="M38.5,150.8l0-124.1c0-0.2,0.2-0.4,0.4-0.4l178.2-0.4c0.4,0,0.8,0.4,0.8,0.8v0l0.2,123.7c0,0.6-0.5,1-1,1h0
			c-29.8,0-59.6-0.2-89.4-0.3L38.5,150.8z M39.3,150l89-0.4c29.6-0.1,59.2-0.3,88.8-0.3l-1,1l0.2-123.7l0.8,0.8L38.9,27.1l0.4-0.4
			L39.3,150z"/>
	</g>
	<g>
		<polygon class="st4" points="4,224.8 30.4,158.8 225.6,158.8 252,224.8 		"/>
		<path class="st1" d="M3.6,225c8.7-22,17.4-44.3,26.3-66.4c0.1-0.2,0.3-0.4,0.5-0.4l48.8,0.1l48.8,0l97.6-0.2
			c0.3,0,0.6,0.2,0.7,0.5l26.6,65.9c0.2,0.5,0,1-0.5,1.2c-0.1,0-0.2,0.1-0.3,0.1l0,0c-20.7,0.1-41.5,0.1-62.2,0.1l-62.2-0.2L3.6,225
			z M4.4,224.5l124.1-0.6l61.8-0.2c20.6,0,41.2,0,61.8,0.1l-0.9,1.3l-26.3-66l0.7,0.5l-97.6-0.2l-48.8,0l-48.8,0.1l0.5-0.4
			C22.2,180.9,13.3,202.6,4.4,224.5z"/>
	</g>
	<g>
		<polygon class="st4" points="244.6,219.8 158.8,219.8 155,206.9 101,206.9 97.2,219.8 11.4,219.8 33.8,163.8 222.2,163.8 		"/>
		<path class="st1" d="M245,220l-43,0.2c-14.4,0.1-28.8,0.1-43.2,0.1c-0.3,0-0.5-0.2-0.5-0.4l-3.8-12.9l0.5,0.4l-53.9,0l0.5-0.4
			l-3.8,12.9c-0.1,0.2-0.3,0.4-0.5,0.4l-85.8,0.2c-0.4,0-0.7-0.3-0.7-0.7c0-0.1,0-0.2,0.1-0.3l22.3-56c0.1-0.3,0.5-0.6,0.8-0.6
			l94.2-0.1l94.2,0.3c0.3,0,0.6,0.2,0.7,0.5c3.7,9.4,7.5,18.9,11.2,28.3L245,220z M244.2,219.5l-11.5-27.8
			c-3.8-9.2-7.5-18.4-11.3-27.6l0.7,0.5l-94.2,0.3l-94.2-0.1l0.8-0.6L12.1,220l-0.7-1l85.8,0.2l-0.5,0.4l3.8-12.9
			c0.1-0.2,0.3-0.4,0.5-0.4l53.9,0c0.2,0,0.5,0.2,0.5,0.4l3.8,12.9l-0.5-0.4c14.2,0,28.4,0,42.7,0.1L244.2,219.5z"/>
	</g>
	<g>
		<pattern  id="SVGID_14_" xlink:href="#New_Pattern_Swatch_1" patternTransform="matrix(1 0 0 1 7.2 0)">
		</pattern>
		<path class="st13" d="M4,224.8L4,224.8l248,0v0c0,7.2-5.8,13-13,13H17C9.8,237.8,4,232,4,224.8z"/>
		<path class="st1" d="M3.6,224.8c0.8-0.8,0.3-0.2,0.5-0.4h0.1l0.1,0l0.2,0l0.5,0l1,0l1.9,0l3.9,0l7.8,0l15.5,0l31,0l62,0l124-0.3
			l0.8,0.8c0,1.5-0.2,2.9-0.7,4.3c-0.4,1.4-1.1,2.7-2,3.9c-1.7,2.4-4.2,4.1-6.9,5.1c-1.4,0.4-2.8,0.7-4.3,0.7l-4.1,0l-8.2,0
			l-32.9,0.1l-65.7,0.1l-65.7-0.2l-32.9-0.1l-8.2-0.1l-4.1,0c-1.4,0-2.8-0.2-4.2-0.7c-2.7-0.9-5.1-2.6-6.8-5
			c-0.8-1.2-1.5-2.4-1.9-3.8C3.8,227.6,3.6,226.2,3.6,224.8z M4.4,224.8c0,1.3,0.2,2.6,0.7,3.9c0.4,1.3,1.1,2.4,1.8,3.5
			c1.5,2.1,3.8,3.7,6.3,4.5c1.3,0.4,2.6,0.6,3.9,0.6l4.1,0l8.2-0.1l32.9-0.1l65.7-0.2l65.7,0.1l32.9,0.1l8.2,0l4.1,0
			c1.3,0,2.6-0.2,3.8-0.6c2.4-0.8,4.6-2.3,6.1-4.4c0.8-1,1.4-2.2,1.8-3.4c0.4-1.2,0.6-2.5,0.6-3.8l0.8,0.8l-124-0.3l-62,0l-31,0
			l-15.5,0l-7.8,0l-3.9,0l-1.9,0l-1,0l-0.5,0l-0.2,0l-0.1,0l-0.1,0C4.2,225,3.6,225.6,4.4,224.8z"/>
	</g>
	<path class="st14" d="M251,229.8c0.6-1.5,1-3.2,1-5H4c0,1.8,0.4,3.5,1,5H251z"/>
	<g>
		<path class="st1" d="M161,225.3l-32.7,0c-5.4,0-10.9,0-16.3,0c-5.4,0-10.8,0.1-16.2,0.2c-0.4,0-0.7-0.3-0.7-0.7c0-0.1,0-0.1,0-0.2
			l0,0l5.2-17.9c0.1-0.4,0.4-0.6,0.8-0.6l0,0c9-0.1,18-0.1,27-0.1l6.7,0l6.7,0c4.5,0,9,0.1,13.5,0.3l0,0c0.3,0,0.6,0.2,0.6,0.5
			l2.7,8.9l1.4,4.5C160.2,221.8,160.6,223.6,161,225.3z M159.6,224.3c-0.6-1.3-1.1-2.5-1.4-3.8l-1.3-4.4l-2.6-9l0.6,0.5
			c-4.5,0.1-9,0.2-13.5,0.3l-6.7,0l-6.7,0c-9,0-18-0.1-27-0.1l0.8-0.6L96.4,225l-0.7-0.9c5.3,0.1,10.7,0.2,16,0.2c5.3,0,10.7,0,16,0
			L159.6,224.3z"/>
	</g>
	<g>
		<path class="st1" d="M127.9,224.8c-0.1-0.6-0.2-1.2-0.3-1.9c-0.1-0.6-0.1-1.2-0.1-1.9c0-0.6,0-1.2,0.1-1.9
			c0.1-0.6,0.1-1.2,0.3-1.9c0-0.1,0.1-0.1,0.1-0.1c0,0,0.1,0,0.1,0.1c0.1,0.6,0.2,1.2,0.3,1.9c0.1,0.6,0.1,1.2,0.1,1.9
			c0,0.6,0,1.2-0.1,1.9c-0.1,0.6-0.1,1.2-0.3,1.9C128.1,224.8,128,224.9,127.9,224.8C127.9,224.8,127.9,224.8,127.9,224.8z"/>
	</g>
	<g>
		<path class="st1" d="M83.1,123.5l17.2-17.8L117.7,88C123.4,82,129.1,76,135,70.3c6-5.7,11.9-11.4,18.2-16.9c0,0,0.1,0,0.1,0
			c0,0,0,0.1,0,0.1c-5.4,6.2-11.2,12.2-16.9,18.2c-5.7,5.9-11.7,11.6-17.7,17.4l-17.7,17.3l-17.8,17.2c0,0-0.1,0-0.1,0
			C83.1,123.6,83.1,123.5,83.1,123.5z"/>
	</g>
	<g>
		<path class="st1" d="M102.7,123.5l17.2-17.8L137.2,88C143,82,148.7,76,154.6,70.3c6-5.7,11.9-11.4,18.2-16.9c0,0,0.1,0,0.1,0
			c0,0,0,0.1,0,0.1c-5.4,6.2-11.2,12.2-16.9,18.2c-5.7,5.9-11.7,11.6-17.7,17.4l-17.7,17.3l-17.8,17.2c0,0-0.1,0-0.1,0
			C102.6,123.6,102.6,123.5,102.7,123.5z"/>
	</g>
	<g>
		<path class="st1" d="M43.9,169.9l42-0.4l42-0.3c14-0.1,28-0.3,42-0.2c14,0.2,28,0.3,42,0.9c0.1,0,0.1,0,0.1,0.1
			c0,0.1,0,0.1-0.1,0.1c-14,0.6-28,0.7-42,0.9c-14,0.1-28-0.1-42-0.2l-42-0.3l-42-0.4C43.9,170,43.8,170,43.9,169.9
			C43.8,169.9,43.9,169.9,43.9,169.9z"/>
	</g>
	<g>
		<path class="st1" d="M38.6,185.1l44.7-0.4l44.7-0.3c14.9-0.1,29.8-0.3,44.7-0.2c14.9,0.2,29.8,0.3,44.7,0.9c0.1,0,0.1,0,0.1,0.1
			c0,0.1,0,0.1-0.1,0.1c-14.9,0.6-29.8,0.7-44.7,0.9c-14.9,0.1-29.8-0.1-44.7-0.2l-44.7-0.3l-44.7-0.4
			C38.6,185.3,38.5,185.3,38.6,185.1C38.5,185.2,38.6,185.1,38.6,185.1z"/>
	</g>
	<g>
		<path class="st1" d="M33.3,199.8l47.3-0.4l47.3-0.3c15.8-0.1,31.6-0.3,47.3-0.2c15.8,0.2,31.6,0.3,47.3,0.9c0.1,0,0.1,0,0.1,0.1
			c0,0.1,0,0.1-0.1,0.1c-15.8,0.6-31.6,0.7-47.3,0.9c-15.8,0.1-31.6-0.1-47.3-0.2l-47.3-0.3L33.3,200C33.3,200,33.2,200,33.3,199.8
			C33.2,199.9,33.3,199.8,33.3,199.8z"/>
	</g>
</g>
</svg>
