<svg xmlns="http://www.w3.org/2000/svg" xmlns:xlink="http://www.w3.org/1999/xlink" id="Layer_1" x="0" y="0" enable-background="new 0 0 256 256" version="1.1" viewBox="0 0 256 256" xml:space="preserve"><style>.st0{fill:none;}
	.st1{fill:#253759;}
	.st2{clip-path:url(#SVGID_2_);fill:#253759;}
	.st3{clip-path:url(#SVGID_4_);fill:#253759;}
	.st4{fill:#FFFFFF;}
	.st5{opacity:0.3;fill:#253759;}
	.st6{fill:#A8A7C2;}
	.st7{fill:#A6D6FF;}
	.st8{fill:url(#SVGID_7_);}
	.st9{fill:#FF9D9D;}
	.st10{fill:url(#SVGID_8_);}
	.st11{fill:url(#SVGID_9_);}
	.st12{fill:#D6ECFF;}
	.st13{fill:url(#SVGID_10_);}
	.st14{fill:url(#SVGID_11_);}
	.st15{fill:url(#SVGID_12_);}
	.st16{fill:url(#SVGID_13_);}
	.st17{fill:url(#SVGID_14_);}</style><pattern id="New_Pattern_Swatch_1" width="42.9" height="43" x="-3864" y="-828" overflow="visible" patternUnits="userSpaceOnUse" viewBox="43 -43 42.9 43"><path d="M43-43H85.9V0H43z" class="st0"/><circle cx="85.9" cy="-41.2" r=".6" class="st1"/><circle cx="85.9" cy="-37.6" r=".6" class="st1"/><circle cx="85.9" cy="-34" r=".6" class="st1"/><circle cx="85.9" cy="-30.4" r=".6" class="st1"/><circle cx="85.9" cy="-26.9" r=".6" class="st1"/><circle cx="85.9" cy="-23.3" r=".6" class="st1"/><circle cx="85.9" cy="-19.7" r=".6" class="st1"/><circle cx="85.9" cy="-16.1" r=".6" class="st1"/><circle cx="85.9" cy="-12.6" r=".6" class="st1"/><circle cx="85.9" cy="-9" r=".6" class="st1"/><circle cx="85.9" cy="-5.4" r=".6" class="st1"/><circle cx="85.9" cy="-1.8" r=".6" class="st1"/><circle cx="85.8" cy="-41.2" r=".6" class="st1"/><circle cx="85.8" cy="-37.6" r=".6" class="st1"/><circle cx="85.8" cy="-34" r=".6" class="st1"/><circle cx="85.8" cy="-30.4" r=".6" class="st1"/><circle cx="85.8" cy="-26.9" r=".6" class="st1"/><circle cx="85.8" cy="-23.3" r=".6" class="st1"/><circle cx="85.8" cy="-19.7" r=".6" class="st1"/><circle cx="85.8" cy="-16.1" r=".6" class="st1"/><circle cx="85.8" cy="-12.6" r=".6" class="st1"/><circle cx="85.8" cy="-9" r=".6" class="st1"/><circle cx="85.8" cy="-5.4" r=".6" class="st1"/><circle cx="85.8" cy="-1.8" r=".6" class="st1"/><g><defs><path id="SVGID_1_" d="M85.8-43H128.8V0H85.8z"/></defs><clipPath id="SVGID_2_"><use overflow="visible" xlink:href="#SVGID_1_"/></clipPath><circle cx="85.8" cy="-41.2" r=".6" class="st2"/><circle cx="85.8" cy="-37.6" r=".6" class="st2"/><circle cx="85.8" cy="-34" r=".6" class="st2"/><circle cx="85.8" cy="-30.4" r=".6" class="st2"/><circle cx="85.8" cy="-26.9" r=".6" class="st2"/><circle cx="85.8" cy="-23.3" r=".6" class="st2"/><circle cx="85.8" cy="-19.7" r=".6" class="st2"/><circle cx="85.8" cy="-16.1" r=".6" class="st2"/><circle cx="85.8" cy="-12.6" r=".6" class="st2"/><circle cx="85.8" cy="-9" r=".6" class="st2"/><circle cx="85.8" cy="-5.4" r=".6" class="st2"/><circle cx="85.8" cy="-1.8" r=".6" class="st2"/><circle cx="85.7" cy="-41.2" r=".6" class="st2"/><circle cx="85.7" cy="-37.6" r=".6" class="st2"/><circle cx="85.7" cy="-34" r=".6" class="st2"/><circle cx="85.7" cy="-30.4" r=".6" class="st2"/><circle cx="85.7" cy="-26.9" r=".6" class="st2"/><circle cx="85.7" cy="-23.3" r=".6" class="st2"/><circle cx="85.7" cy="-19.7" r=".6" class="st2"/><circle cx="85.7" cy="-16.1" r=".6" class="st2"/><circle cx="85.7" cy="-12.6" r=".6" class="st2"/><circle cx="85.7" cy="-9" r=".6" class="st2"/><circle cx="85.7" cy="-5.4" r=".6" class="st2"/><circle cx="85.7" cy="-1.8" r=".6" class="st2"/></g><g><circle cx="85.9" cy="-41.2" r=".6" class="st1"/><circle cx="85.9" cy="-37.6" r=".6" class="st1"/><circle cx="85.9" cy="-34" r=".6" class="st1"/><circle cx="85.9" cy="-30.4" r=".6" class="st1"/><circle cx="85.9" cy="-26.9" r=".6" class="st1"/><circle cx="85.9" cy="-23.3" r=".6" class="st1"/><circle cx="85.9" cy="-19.7" r=".6" class="st1"/><circle cx="85.9" cy="-16.1" r=".6" class="st1"/><circle cx="85.9" cy="-12.6" r=".6" class="st1"/><circle cx="85.9" cy="-9" r=".6" class="st1"/><circle cx="85.9" cy="-5.4" r=".6" class="st1"/><circle cx="85.9" cy="-1.8" r=".6" class="st1"/><circle cx="43" cy="-41.2" r=".6" class="st1"/><circle cx="46.5" cy="-41.2" r=".6" class="st1"/><circle cx="50.1" cy="-41.2" r=".6" class="st1"/><circle cx="53.7" cy="-41.2" r=".6" class="st1"/><circle cx="43" cy="-37.6" r=".6" class="st1"/><circle cx="46.5" cy="-37.6" r=".6" class="st1"/><circle cx="50.1" cy="-37.6" r=".6" class="st1"/><circle cx="53.7" cy="-37.6" r=".6" class="st1"/><circle cx="43" cy="-34" r=".6" class="st1"/><circle cx="46.5" cy="-34" r=".6" class="st1"/><circle cx="50.1" cy="-34" r=".6" class="st1"/><circle cx="53.7" cy="-34" r=".6" class="st1"/><circle cx="43" cy="-30.4" r=".6" class="st1"/><circle cx="46.5" cy="-30.4" r=".6" class="st1"/><circle cx="50.1" cy="-30.4" r=".6" class="st1"/><circle cx="53.7" cy="-30.4" r=".6" class="st1"/><circle cx="43" cy="-26.9" r=".6" class="st1"/><circle cx="46.5" cy="-26.9" r=".6" class="st1"/><circle cx="50.1" cy="-26.9" r=".6" class="st1"/><circle cx="53.7" cy="-26.9" r=".6" class="st1"/><circle cx="43" cy="-23.3" r=".6" class="st1"/><circle cx="46.5" cy="-23.3" r=".6" class="st1"/><circle cx="50.1" cy="-23.3" r=".6" class="st1"/><circle cx="53.7" cy="-23.3" r=".6" class="st1"/><circle cx="57.3" cy="-41.2" r=".6" class="st1"/><circle cx="60.8" cy="-41.2" r=".6" class="st1"/><circle cx="64.4" cy="-41.2" r=".6" class="st1"/><circle cx="68" cy="-41.2" r=".6" class="st1"/><circle cx="71.5" cy="-41.2" r=".6" class="st1"/><circle cx="57.3" cy="-37.6" r=".6" class="st1"/><circle cx="60.8" cy="-37.6" r=".6" class="st1"/><circle cx="64.4" cy="-37.6" r=".6" class="st1"/><circle cx="68" cy="-37.6" r=".6" class="st1"/><circle cx="71.5" cy="-37.6" r=".6" class="st1"/><circle cx="57.3" cy="-34" r=".6" class="st1"/><circle cx="60.8" cy="-34" r=".6" class="st1"/><circle cx="64.4" cy="-34" r=".6" class="st1"/><circle cx="68" cy="-34" r=".6" class="st1"/><circle cx="71.5" cy="-34" r=".6" class="st1"/><circle cx="57.3" cy="-30.4" r=".6" class="st1"/><circle cx="60.8" cy="-30.4" r=".6" class="st1"/><circle cx="64.4" cy="-30.4" r=".6" class="st1"/><circle cx="68" cy="-30.4" r=".6" class="st1"/><circle cx="71.5" cy="-30.4" r=".6" class="st1"/><circle cx="57.3" cy="-26.9" r=".6" class="st1"/><circle cx="60.8" cy="-26.9" r=".6" class="st1"/><circle cx="64.4" cy="-26.9" r=".6" class="st1"/><circle cx="68" cy="-26.9" r=".6" class="st1"/><circle cx="71.5" cy="-26.9" r=".6" class="st1"/><circle cx="57.3" cy="-23.3" r=".6" class="st1"/><circle cx="60.8" cy="-23.3" r=".6" class="st1"/><circle cx="64.4" cy="-23.3" r=".6" class="st1"/><circle cx="68" cy="-23.3" r=".6" class="st1"/><circle cx="71.5" cy="-23.3" r=".6" class="st1"/><circle cx="75.1" cy="-41.2" r=".6" class="st1"/><circle cx="78.7" cy="-41.2" r=".6" class="st1"/><circle cx="82.3" cy="-41.2" r=".6" class="st1"/><circle cx="85.8" cy="-41.2" r=".6" class="st1"/><circle cx="75.1" cy="-37.6" r=".6" class="st1"/><circle cx="78.7" cy="-37.6" r=".6" class="st1"/><circle cx="82.3" cy="-37.6" r=".6" class="st1"/><circle cx="85.8" cy="-37.6" r=".6" class="st1"/><circle cx="75.1" cy="-34" r=".6" class="st1"/><circle cx="78.7" cy="-34" r=".6" class="st1"/><circle cx="82.3" cy="-34" r=".6" class="st1"/><circle cx="85.8" cy="-34" r=".6" class="st1"/><circle cx="75.1" cy="-30.4" r=".6" class="st1"/><circle cx="78.7" cy="-30.4" r=".6" class="st1"/><circle cx="82.3" cy="-30.4" r=".6" class="st1"/><circle cx="85.8" cy="-30.4" r=".6" class="st1"/><circle cx="75.1" cy="-26.9" r=".6" class="st1"/><circle cx="78.7" cy="-26.9" r=".6" class="st1"/><circle cx="82.3" cy="-26.9" r=".6" class="st1"/><circle cx="85.8" cy="-26.9" r=".6" class="st1"/><circle cx="75.1" cy="-23.3" r=".6" class="st1"/><circle cx="78.7" cy="-23.3" r=".6" class="st1"/><circle cx="82.3" cy="-23.3" r=".6" class="st1"/><circle cx="85.8" cy="-23.3" r=".6" class="st1"/><circle cx="43" cy="-19.7" r=".6" class="st1"/><circle cx="46.5" cy="-19.7" r=".6" class="st1"/><circle cx="50.1" cy="-19.7" r=".6" class="st1"/><circle cx="53.7" cy="-19.7" r=".6" class="st1"/><circle cx="43" cy="-16.1" r=".6" class="st1"/><circle cx="46.5" cy="-16.1" r=".6" class="st1"/><circle cx="50.1" cy="-16.1" r=".6" class="st1"/><circle cx="53.7" cy="-16.1" r=".6" class="st1"/><circle cx="43" cy="-12.6" r=".6" class="st1"/><circle cx="46.5" cy="-12.6" r=".6" class="st1"/><circle cx="50.1" cy="-12.6" r=".6" class="st1"/><circle cx="53.7" cy="-12.6" r=".6" class="st1"/><circle cx="43" cy="-9" r=".6" class="st1"/><circle cx="46.5" cy="-9" r=".6" class="st1"/><circle cx="50.1" cy="-9" r=".6" class="st1"/><circle cx="53.7" cy="-9" r=".6" class="st1"/><circle cx="43" cy="-5.4" r=".6" class="st1"/><circle cx="46.5" cy="-5.4" r=".6" class="st1"/><circle cx="50.1" cy="-5.4" r=".6" class="st1"/><circle cx="53.7" cy="-5.4" r=".6" class="st1"/><circle cx="43" cy="-1.8" r=".6" class="st1"/><circle cx="46.5" cy="-1.8" r=".6" class="st1"/><circle cx="50.1" cy="-1.8" r=".6" class="st1"/><circle cx="53.7" cy="-1.8" r=".6" class="st1"/><circle cx="57.3" cy="-19.7" r=".6" class="st1"/><circle cx="60.8" cy="-19.7" r=".6" class="st1"/><circle cx="64.4" cy="-19.7" r=".6" class="st1"/><circle cx="68" cy="-19.7" r=".6" class="st1"/><circle cx="71.5" cy="-19.7" r=".6" class="st1"/><circle cx="57.3" cy="-16.1" r=".6" class="st1"/><circle cx="60.8" cy="-16.1" r=".6" class="st1"/><circle cx="64.4" cy="-16.1" r=".6" class="st1"/><circle cx="68" cy="-16.1" r=".6" class="st1"/><circle cx="71.5" cy="-16.1" r=".6" class="st1"/><circle cx="57.3" cy="-12.6" r=".6" class="st1"/><circle cx="60.8" cy="-12.6" r=".6" class="st1"/><circle cx="64.4" cy="-12.6" r=".6" class="st1"/><circle cx="68" cy="-12.6" r=".6" class="st1"/><circle cx="71.5" cy="-12.6" r=".6" class="st1"/><circle cx="57.3" cy="-9" r=".6" class="st1"/><circle cx="60.8" cy="-9" r=".6" class="st1"/><circle cx="64.4" cy="-9" r=".6" class="st1"/><circle cx="68" cy="-9" r=".6" class="st1"/><circle cx="71.5" cy="-9" r=".6" class="st1"/><circle cx="57.3" cy="-5.4" r=".6" class="st1"/><circle cx="60.8" cy="-5.4" r=".6" class="st1"/><circle cx="64.4" cy="-5.4" r=".6" class="st1"/><circle cx="68" cy="-5.4" r=".6" class="st1"/><circle cx="71.5" cy="-5.4" r=".6" class="st1"/><circle cx="57.3" cy="-1.8" r=".6" class="st1"/><circle cx="60.8" cy="-1.8" r=".6" class="st1"/><circle cx="64.4" cy="-1.8" r=".6" class="st1"/><circle cx="68" cy="-1.8" r=".6" class="st1"/><circle cx="71.5" cy="-1.8" r=".6" class="st1"/><circle cx="75.1" cy="-19.7" r=".6" class="st1"/><circle cx="78.7" cy="-19.7" r=".6" class="st1"/><circle cx="82.3" cy="-19.7" r=".6" class="st1"/><circle cx="85.8" cy="-19.7" r=".6" class="st1"/><circle cx="75.1" cy="-16.1" r=".6" class="st1"/><circle cx="78.7" cy="-16.1" r=".6" class="st1"/><circle cx="82.3" cy="-16.1" r=".6" class="st1"/><circle cx="85.8" cy="-16.1" r=".6" class="st1"/><circle cx="75.1" cy="-12.6" r=".6" class="st1"/><circle cx="78.7" cy="-12.6" r=".6" class="st1"/><circle cx="82.3" cy="-12.6" r=".6" class="st1"/><circle cx="85.8" cy="-12.6" r=".6" class="st1"/><circle cx="75.1" cy="-9" r=".6" class="st1"/><circle cx="78.7" cy="-9" r=".6" class="st1"/><circle cx="82.3" cy="-9" r=".6" class="st1"/><circle cx="85.8" cy="-9" r=".6" class="st1"/><circle cx="75.1" cy="-5.4" r=".6" class="st1"/><circle cx="78.7" cy="-5.4" r=".6" class="st1"/><circle cx="82.3" cy="-5.4" r=".6" class="st1"/><circle cx="85.8" cy="-5.4" r=".6" class="st1"/><circle cx="75.1" cy="-1.8" r=".6" class="st1"/><circle cx="78.7" cy="-1.8" r=".6" class="st1"/><circle cx="82.3" cy="-1.8" r=".6" class="st1"/><circle cx="85.8" cy="-1.8" r=".6" class="st1"/><circle cx="42.9" cy="-41.2" r=".6" class="st1"/><circle cx="42.9" cy="-37.6" r=".6" class="st1"/><circle cx="42.9" cy="-34" r=".6" class="st1"/><circle cx="42.9" cy="-30.4" r=".6" class="st1"/><circle cx="42.9" cy="-26.9" r=".6" class="st1"/><circle cx="42.9" cy="-23.3" r=".6" class="st1"/><circle cx="42.9" cy="-19.7" r=".6" class="st1"/><circle cx="42.9" cy="-16.1" r=".6" class="st1"/><circle cx="42.9" cy="-12.6" r=".6" class="st1"/><circle cx="42.9" cy="-9" r=".6" class="st1"/><circle cx="42.9" cy="-5.4" r=".6" class="st1"/><circle cx="42.9" cy="-1.8" r=".6" class="st1"/><g><defs><path id="SVGID_3_" d="M42.9-43H85.9V0H42.9z"/></defs><clipPath id="SVGID_4_"><use overflow="visible" xlink:href="#SVGID_3_"/></clipPath><circle cx="42.9" cy="-41.2" r=".6" class="st3"/><circle cx="42.9" cy="-37.6" r=".6" class="st3"/><circle cx="42.9" cy="-34" r=".6" class="st3"/><circle cx="42.9" cy="-30.4" r=".6" class="st3"/><circle cx="42.9" cy="-26.9" r=".6" class="st3"/><circle cx="42.9" cy="-23.3" r=".6" class="st3"/><circle cx="42.9" cy="-19.7" r=".6" class="st3"/><circle cx="42.9" cy="-16.1" r=".6" class="st3"/><circle cx="42.9" cy="-12.6" r=".6" class="st3"/><circle cx="42.9" cy="-9" r=".6" class="st3"/><circle cx="42.9" cy="-5.4" r=".6" class="st3"/><circle cx="42.9" cy="-1.8" r=".6" class="st3"/><circle cx="42.8" cy="-41.2" r=".6" class="st3"/><circle cx="42.8" cy="-37.6" r=".6" class="st3"/><circle cx="42.8" cy="-34" r=".6" class="st3"/><circle cx="42.8" cy="-30.4" r=".6" class="st3"/><circle cx="42.8" cy="-26.9" r=".6" class="st3"/><circle cx="42.8" cy="-23.3" r=".6" class="st3"/><circle cx="42.8" cy="-19.7" r=".6" class="st3"/><circle cx="42.8" cy="-16.1" r=".6" class="st3"/><circle cx="42.8" cy="-12.6" r=".6" class="st3"/><circle cx="42.8" cy="-9" r=".6" class="st3"/><circle cx="42.8" cy="-5.4" r=".6" class="st3"/><circle cx="42.8" cy="-1.8" r=".6" class="st3"/></g></g><g><circle cx="43" cy="-41.2" r=".6" class="st1"/><circle cx="43" cy="-37.6" r=".6" class="st1"/><circle cx="43" cy="-34" r=".6" class="st1"/><circle cx="43" cy="-30.4" r=".6" class="st1"/><circle cx="43" cy="-26.9" r=".6" class="st1"/><circle cx="43" cy="-23.3" r=".6" class="st1"/><circle cx="43" cy="-19.7" r=".6" class="st1"/><circle cx="43" cy="-16.1" r=".6" class="st1"/><circle cx="43" cy="-12.6" r=".6" class="st1"/><circle cx="43" cy="-9" r=".6" class="st1"/><circle cx="43" cy="-5.4" r=".6" class="st1"/><circle cx="43" cy="-1.8" r=".6" class="st1"/><circle cx="42.9" cy="-41.2" r=".6" class="st1"/><circle cx="42.9" cy="-37.6" r=".6" class="st1"/><circle cx="42.9" cy="-34" r=".6" class="st1"/><circle cx="42.9" cy="-30.4" r=".6" class="st1"/><circle cx="42.9" cy="-26.9" r=".6" class="st1"/><circle cx="42.9" cy="-23.3" r=".6" class="st1"/><circle cx="42.9" cy="-19.7" r=".6" class="st1"/><circle cx="42.9" cy="-16.1" r=".6" class="st1"/><circle cx="42.9" cy="-12.6" r=".6" class="st1"/><circle cx="42.9" cy="-9" r=".6" class="st1"/><circle cx="42.9" cy="-5.4" r=".6" class="st1"/><circle cx="42.9" cy="-1.8" r=".6" class="st1"/><g><defs><path id="SVGID_5_" d="M0-43H43V0H0z"/></defs><clipPath id="SVGID_6_"><use overflow="visible" xlink:href="#SVGID_5_"/></clipPath></g></g></pattern><path d="M54 15.9H202V107.60000000000001H54z" class="st4"/><path d="M202.5 15.4c.1 30.7 0 61.5-.1 92.2 0 .2-.2.4-.4.4l-148 .4c-.4 0-.8-.4-.8-.8L53 15.9c0-.6.5-1 1-1l74.3.2 74.2.3zm-1 .9-73.9.3-73.6.3 1-1-.2 91.7-.8-.8 148 .4-.4.4c-.1-30.5-.1-60.9-.1-91.3z" class="st1"/><path d="M250 113.1v92.5h-52.1v-27.7h-14.5v27.7h-16.7v-27.7h-14.5v27.7H135v-27.7h-14.5v27.7h-16.7v-27.7H89.3v27.7H72.6v-27.7H58.1v27.7H6v-92.5c0-3.1 2.5-5.6 5.6-5.6h232.9c3 0 5.5 2.5 5.5 5.6z" class="st4"/><path d="M250.5 113.1v92.4c0 .3-.2.5-.5.5l-52.1-.2c-.1 0-.3-.1-.3-.3l-.1-27.7.3.3h-14.5l.4-.4.1 27.7c0 .2-.2.4-.4.4h-16.7c-.3 0-.5-.2-.5-.5v-27.7l.5.5h-14.5l.5-.5v27.7c0 .3-.3.6-.6.6h-17.3c-.3 0-.6-.3-.6-.6v-27.7l.6.6h-14.5l.7-.7v27.7c0 .4-.3.7-.7.7h-16.7c-.4 0-.7-.3-.7-.7v-27.7l.7.7H89.1l.8-.8v27.7c0 .4-.4.8-.8.8H72.4c-.5 0-.8-.4-.8-.8v-27.7l.9.9H58l.9-.9v27.7c0 .5-.4.9-.9.9l-52 .6c-.5 0-1-.4-1-1v-92.4c0-.5 0-1 .2-1.6.2-1 .7-2 1.4-2.8.7-.8 1.6-1.4 2.5-1.8.5-.2 1-.3 1.5-.4.5-.1 1.1-.1 1.5-.1H38.9l42.9.1 85.7.2 42.9.1H243.8c.4 0 .9 0 1.4.1 1 .1 1.9.5 2.7 1 1.6 1.3 2.6 3.2 2.6 5.1zm-1 0c0-1.6-.8-3.2-2.2-4.2-.7-.5-1.5-.8-2.3-.9-.4-.1-.8 0-1.3 0h-33.4l-42.9.1-85.7.2-42.9.1H12c-.5 0-.8 0-1.2.1-.4 0-.7.2-1.1.3-.7.3-1.3.7-1.8 1.3-.5.6-.8 1.2-1 1.9.1.5.1.8.1 1.2v92.4l-1-1 52.1.1-.9.9v-27.7c0-.5.4-.9.9-.9h14.5c.5 0 .9.4.9.9v27.7l-.8-.8h16.7l-.8.8v-27.7c0-.4.3-.8.8-.8h14.5c.4 0 .7.3.7.7v27.7l-.7-.7h16.7l-.7.7v-27.7c0-.4.3-.7.7-.7h14.5c.3 0 .6.3.6.6v27.7l-.7-.4h17.3l-.6.6v-27.7c0-.3.2-.5.5-.5h14.5c.3 0 .5.2.5.5v27.7l-.5-.5h16.7l-.4.4.1-27.7c0-.2.2-.4.4-.4H198c.2 0 .3.2.3.3l-.1 27.7-.3-.3 52.1-.2-.5.5V113.1z" class="st1"/><path d="M232.9 150.3 232.9 205.6 197.9 205.6 197.9 177.9 183.4 177.9 183.4 205.6 166.7 205.6 166.7 177.9 152.2 177.9 152.2 205.6 135 205.6 135 177.9 120.5 177.9 120.5 205.6 103.8 205.6 103.8 177.9 89.3 177.9 89.3 205.6 72.6 205.6 72.6 177.9 58.1 177.9 58.1 205.6 23.1 205.6 23.1 150.3z" class="st4"/><path d="M233.3 149.9c.1 18.6.1 37.2 0 55.7 0 .2-.2.4-.4.4l-35-.1c-.2 0-.3-.1-.3-.3l-.1-27.7.3.3h-14.5l.4-.4.1 27.7c0 .2-.2.4-.4.4h-16.7c-.2 0-.5-.2-.5-.4l-.1-27.7.5.5h-14.5l.5-.5v27.7c0 .3-.3.6-.6.6h-17.3c-.3 0-.6-.3-.6-.6v-27.7l.6.6h-14.5l.7-.7v27.7c0 .4-.3.7-.7.7h-16.7c-.4 0-.7-.3-.7-.7v-27.7l.8.8H89.1l.8-.8v27.7c0 .5-.4.8-.8.8H72.4c-.5 0-.8-.4-.8-.8v-27.7l.9.9H58l.9-.9v27.7c0 .5-.4.9-.9.9H23c-.5 0-.9-.4-.9-.9l-.1-55.3c0-.6.4-1 1-1l210.3.8zm-.8.7-209.5.6 1-1v55.4l-.9-.9h35l-.9.9v-27.7c0-.5.4-.9.9-.9h14.5c.5 0 .9.4.9.9v27.7l-.8-.8h16.7l-.8.8v-27.7c0-.4.3-.8.8-.8h14.5c.4 0 .8.3.8.8v27.7l-.7-.7h16.7l-.7.7v-27.7c0-.4.3-.7.7-.7h14.5c.3 0 .6.3.6.6v27.7l-.8-.5h17.3l-.6.6v-27.7c0-.3.2-.5.5-.5h14.5c.3 0 .5.2.5.5l-.1 27.7-.5-.5h16.7l-.4.4.1-27.7c0-.2.2-.4.4-.4h14.5c.2 0 .3.1.3.3l-.1 27.7-.3-.3 35-.1-.4.4c.1-18.2.1-36.4.1-54.8z" class="st1"/><path d="M23.1 150.3H232.9V155.3H23.1z" class="st5"/><path d="M218.1 177.9c0 3.1-1.2 5.9-3.3 7.9-2 2-4.8 3.3-7.9 3.3h-9V178h-14.5v11.1h-16.7V178h-14.5v11.1H135V178h-14.5v11.1h-16.7V178H89.3v11.1H72.6V178H58.1v11.1h-9c-6.2 0-11.1-5-11.1-11.1 0-3.1 1.2-5.9 3.3-7.9 2-2 4.8-3.3 7.9-3.3H207c6.1 0 11.1 5 11.1 11.1z" class="st6"/><path d="M218.9 177.9c0 2.4-.8 4.7-2.1 6.6-1.3 1.9-3.3 3.5-5.5 4.3-1.1.4-2.2.6-3.4.7-1.2 0-2.2 0-3.4-.1l-6.6-.3c-.1 0-.1 0-.1-.1v-11.1l.1.1-14.5.1.2-.2V189c0 .1-.1.3-.2.3l-16.7.1c-.2 0-.3-.1-.3-.3V178l.4.4-14.5.1.4-.4v11.1c0 .3-.2.5-.5.5l-17.3.1c-.3 0-.5-.2-.5-.5v-11.1l.6.6h-14.5l.6-.6v11.1c0 .3-.3.6-.6.6h-16.7c-.4 0-.7-.3-.7-.6v-11.1l.7.7H89.3l.7-.7v11.1c0 .4-.3.7-.7.7H72.6c-.4 0-.8-.4-.8-.8v-11.1l.8.8H58.1l.9-.9v11.1c0 .5-.4.9-.9.9h-6.9c-1.1 0-2.3 0-3.5-.1-1.2-.1-2.4-.5-3.6-1-2.2-1-4.2-2.7-5.4-4.9-1.3-2.1-1.8-4.7-1.6-7.1.2-2.5 1.2-4.9 2.8-6.8 1.6-1.9 3.8-3.3 6.2-3.9.6-.2 1.2-.3 1.8-.3.6-.1 1.3-.1 1.8-.1H169.6l27.4.1h10.4c1.2 0 2.5.3 3.6.7 2.3.8 4.4 2.4 5.8 4.4.7 1 1.3 2.1 1.6 3.3.3 1.2.5 2.4.5 3.6zm-1.6 0c0-1.1-.2-2.1-.5-3.1s-.8-2-1.4-2.8c-1.2-1.7-3-3.1-5-3.7-1-.3-2-.6-3.1-.6H197l-27.4.1H49.7c-1.1 0-2.1.1-3.2.3-2 .5-3.9 1.7-5.2 3.3-1.4 1.6-2.2 3.6-2.4 5.7-.2 2.1.3 4.2 1.4 6 1 1.8 2.7 3.3 4.6 4.1 1 .4 2 .7 3 .8 1 .1 2.2.1 3.3.1h6.9l-.9.9v-11.1c0-.5.4-.9.9-.9h14.5c.4 0 .8.4.8.8v11.1l-.8-.8h16.7l-.7.7v-11.1c0-.4.3-.7.7-.7h14.5c.4 0 .7.3.7.7v11.1l-.7-.7h16.7l-.6.6v-11.1c0-.3.3-.6.6-.6H135c.3 0 .5.2.6.6v11.1l-.5-.5 17.3.1-.5.5v-11.1c0-.2.2-.4.4-.4l14.5.1c.2 0 .4.2.4.4v11.1l-.3-.3 16.7.1-.3.3v-11.1c0-.1.1-.2.2-.2l14.5.1c.1 0 .1.1.1.1V189l-.1-.1 6.6-.3c1.1-.1 2.2 0 3.3-.1 1-.1 2.1-.4 3-.8 1.9-.8 3.6-2.2 4.7-3.9 1.1-1.8 1.7-3.8 1.7-5.9z" class="st1"/><path d="M120.5 177.9H135V231.10000000000002H120.5z" class="st7"/><path d="M183.4 177.9H197.9V220.5H183.4z" class="st7"/><path d="M58.1 177.9H72.6V240.10000000000002H58.1z" class="st7"/><path d="M67.9 27.6H188V52.8H67.9z" class="st7"/><path d="M128 72.4H188.1V107.60000000000001H128z" class="st7"/><circle cx="29.7" cy="124.6" r="6.6" class="st7"/><circle cx="54" cy="124.6" r="6.6" class="st7"/><path d="M169.4 118.9H222.10000000000002V130.4H169.4z" class="st7"/><pattern id="SVGID_7_" patternTransform="translate(14.4)" xlink:href="#New_Pattern_Swatch_1"/><path d="M120.5 177.9H135V231.10000000000002H120.5z" class="st8"/><path d="M135 177.9c.2 8.7.4 17.5.6 26.4.2 8.9.3 17.9 0 26.9 0 .4-.3.7-.7.7l-14.5.1c-.4 0-.8-.3-.8-.8-.1-4.4-.2-8.9-.2-13.3-.1-4.4 0-8.9 0-13.3s0-8.9.1-13.3.1-8.9.3-13.3c0-.3.3-.6.6-.6 2.5.1 5 .1 7.4.3l7.2.2zm-.1.1-7.3.3c-2.4.1-4.7.2-7.1.3l.6-.6.3 13.3c.1 4.4.1 8.9.1 13.3v13.3c0 4.4-.1 8.9-.2 13.3l-.8-.8 14.5.1-.7.7c-.2-8.8-.1-17.5 0-26.3.2-8.9.4-17.8.6-26.9z" class="st1"/><path d="M152.2 177.9H166.7V240.10000000000002H152.2z" class="st9"/><path d="m166.8 177.9.6 62.3c0 .4-.3.7-.7.7l-14.5.1c-.4 0-.8-.3-.8-.8-.1-5.2-.2-10.4-.2-15.6-.1-5.2 0-10.4 0-15.6v-7.8l.1-7.8.1-7.8.2-7.8c0-.3.3-.6.6-.6 2.5.1 5 .1 7.4.2l7.2.5zm-.2.1-7.3.3c-2.4.1-4.8.2-7.1.2l.6-.6.2 7.8.1 7.8.1 7.8v7.8c0 5.2.1 10.4 0 15.6 0 5.2-.1 10.4-.2 15.6l-.8-.8 14.5.1-.7.7.6-62.3z" class="st1"/><pattern id="SVGID_8_" patternTransform="translate(14.4)" xlink:href="#New_Pattern_Swatch_1"/><path d="M183.4 177.9H197.9V220.5H183.4z" class="st10"/><path d="m198 177.9.6 42.7c0 .4-.3.6-.6.6l-14.5.2c-.4 0-.8-.3-.8-.8-.1-3.6-.2-7.1-.2-10.7v-10.6c0-3.6 0-7.1.1-10.7.1-3.6.1-7.1.2-10.7 0-.4.3-.7.7-.7l7.4.3 7.1.4zm-.2.1-7.3.4-7.1.3.7-.7c.1 3.6.2 7.1.2 10.7.1 3.6.1 7.1.1 10.7V210c0 3.6-.1 7.1-.2 10.7l-.8-.8 14.5.2-.6.6.5-42.7z" class="st1"/><pattern id="SVGID_9_" patternTransform="translate(14.4)" xlink:href="#New_Pattern_Swatch_1"/><path d="M58.1 177.9H72.6V240.10000000000002H58.1z" class="st11"/><path d="M72.6 177.9c.2 5 .4 10.1.5 15.2.2 5.1.3 10.3.4 15.6.1 5.2.2 10.5.2 15.7 0 5.3-.1 10.5-.4 15.8 0 .4-.3.6-.7.7l-14.5.1c-.4 0-.8-.3-.8-.8-.1-5.2-.2-10.4-.2-15.6-.1-5.2 0-10.4 0-15.6v-7.8l.1-7.8.1-7.8.2-7.8c0-.3.3-.6.6-.6 2.5.1 5 .1 7.4.2l7.1.5zm-.1.1-7.3.3c-2.4.1-4.8.2-7.1.2l.6-.6.2 7.8.1 7.8.1 7.8v7.8c0 5.2.1 10.4 0 15.6 0 5.2-.1 10.4-.2 15.6l-.8-.8 14.5.1-.7.7c-.3-5.1-.4-10.2-.4-15.3 0-5.1.1-10.2.2-15.4.1-5.1.2-10.3.4-15.6l.4-16z" class="st1"/><path d="M89.3 177.9H103.8V220.5H89.3z" class="st9"/><path d="M103.8 177.9c.2 6.9.4 14 .6 21.1.1 3.6.2 7.2.2 10.8 0 3.6 0 7.2-.2 10.8 0 .3-.3.6-.6.6l-14.5.2c-.4 0-.8-.3-.8-.8-.1-3.6-.2-7.1-.2-10.7v-10.6c0-3.6 0-7.1.1-10.7.1-3.6.1-7.1.2-10.7 0-.4.3-.7.7-.7l7.4.3 7.1.4zm-.1.1-7.3.4-7.1.3.7-.7c.1 3.6.2 7.1.2 10.7.1 3.6.1 7.1.1 10.7V210c0 3.6-.1 7.1-.2 10.7l-.8-.8 14.5.2-.6.6c-.2-3.5-.2-7-.2-10.5s.1-7 .2-10.5c.1-7.2.3-14.4.5-21.7z" class="st1"/><path d="M135 177.9H140V205.4H135z" class="st5"/><path d="M166.7 177.9H171.7V205.4H166.7z" class="st5"/><path d="M197.9 177.9H202.9V205.4H197.9z" class="st5"/><path d="M72.6 177.9H77.6V205.4H72.6z" class="st5"/><path d="M103.8 177.9H108.8V205.4H103.8z" class="st5"/><g><path d="M39.4 86.8H54v20.7H33.9V92.4c0-3.1 2.4-5.6 5.5-5.6z" class="st12"/><path d="m39.4 86.4 14.6.1c.2 0 .4.2.4.4.1 3.5.2 6.9.2 10.4l.2 10.4c0 .4-.3.7-.7.7l-20.2.3h-.2c-.5 0-.8-.4-.9-.8v-.2c.5-2 .5-4 .5-6s.1-4 .1-6v-3c0-1 .2-2.2.7-3.1 1-2 3.2-3.2 5.3-3.2zm0 .9c-1.8 0-3.6 1-4.5 2.6-.4.8-.7 1.7-.6 2.6v3c0 2 0 4 .1 6 0 2 0 4 .5 6l-1-1 20.2.3-.7.7.2-10.4c0-3.5.1-6.9.2-10.4l.4.4-14.8.2z" class="st1"/></g><g><path d="M222.1 92.4v15.1H202V86.8h14.6c3.1 0 5.5 2.5 5.5 5.6z" class="st12"/><path d="M222.6 92.4v15.1c0 .2-.2.4-.4.4-1.7.1-3.4.1-5 .1h-15.1c-.3 0-.5-.2-.5-.5l.1-20.7c0-.2.2-.4.4-.4h14.6c1 0 2.1.3 3 .8 1.7 1.1 2.9 3.1 2.9 5.2zm-.9 0c0-1.8-1-3.6-2.6-4.5-.8-.5-1.7-.7-2.6-.7h-14.6l.4-.4.1 20.7-.4-.5h15.1c1.7 0 3.4 0 5 .1l-.4.4V92.4z" class="st1"/></g><g><pattern id="SVGID_10_" patternTransform="translate(14.4)" xlink:href="#New_Pattern_Swatch_1"/><path d="M67.9 27.6H188V52.8H67.9z" class="st13"/><path d="m188.7 53.4-60.5-.1H98.1c-10 0-20.1 0-30.1.2-.4 0-.7-.3-.7-.7l-.1-25.2c0-.4.4-.8.8-.8 10-.1 20-.2 30-.2h30c10 0 20 0 30 .1s20 .2 30 .4c.3 0 .5.3.6.6.1 8.4.2 17.1.1 25.7zm-1.2-1.2c-.1-8.2 0-16.3.1-24.6l.6.6c-10 .2-20 .3-30 .4-10 .1-20 .1-30 .1h-30c-10 0-20-.1-30-.2l.8-.8-.1 25.2-.7-.7c10 .1 20 .1 29.9.2 10 0 20 .1 29.9 0l59.5-.2z" class="st1"/></g><g><pattern id="SVGID_11_" patternTransform="translate(14.4)" xlink:href="#New_Pattern_Swatch_1"/><path d="M128 72.4H188.1V107.60000000000001H128z" class="st14"/><path d="m188.5 108-30.3.1h-15.1c-5 0-10.1 0-15.1.1-.3 0-.6-.2-.6-.6l-.2-35.2c0-.4.4-.8.8-.8 10-.1 20-.1 30-.1h15c5 0 10 0 15 .1.5 0 .8.4.8.9.1 11.8-.1 23.7-.3 35.5zm-.9-.9c-.2-11.7-.4-23.2-.4-34.8l.9.9c-5 .1-10 .1-15 .1h-15c-10 0-20-.1-30-.1l.8-.8-.2 35.2-.7-.6c5 .1 10 .1 14.9.1h44.7z" class="st1"/></g><g><path d="m67.9 72.3 11.6-.4 11.6-.3c3.9-.1 7.7-.3 11.6-.2 3.9.1 7.7.3 11.6.9.1 0 .1.1.1.1s0 .1-.1.1c-3.9.6-7.7.8-11.6.9-3.9.1-7.7-.1-11.6-.2l-11.6-.3-11.6-.4s-.1-.1 0-.2c-.1 0 0 0 0 0z" class="st1"/></g><g><path d="m67.9 86.7 11.6-.4 11.7-.3c3.9-.1 7.7-.3 11.6-.2 3.9.1 7.7.3 11.6.9.1 0 .1.1.1.1s0 .1-.1.1c-3.9.6-7.7.8-11.6.9-3.9.1-7.7-.1-11.6-.2l-11.6-.3-11.6-.4c-.1 0-.2 0-.1-.2-.1.1 0 .1 0 0z" class="st1"/></g><g><path d="m67.9 101.2 11.6-.4 11.6-.3c3.9-.1 7.7-.3 11.6-.2 3.9.1 7.7.3 11.6.9.1 0 .1.1.1.1s0 .1-.1.1c-3.9.6-7.7.8-11.6.9-3.9.1-7.7-.1-11.6-.2l-11.6-.3-11.6-.4s-.1 0 0-.2c-.1.1 0 0 0 0z" class="st1"/></g><g><pattern id="SVGID_12_" patternTransform="translate(14.4)" xlink:href="#New_Pattern_Swatch_1"/><circle cx="29.7" cy="124.6" r="6.6" class="st15"/><path d="M36.3 124.6c0 1.7-.7 3.5-1.9 4.8-1.2 1.3-2.9 2.2-4.8 2.3-1.9.1-3.7-.7-5.1-2-1.4-1.3-2.2-3.2-2.3-5.1-.1-1.9.7-3.9 2-5.3 1.4-1.4 3.4-2.3 5.3-2.2 1 0 2 .3 2.8.7.9.5 1.6 1.1 2.2 1.8 1.3 1.5 1.9 3.3 1.8 5zm-.2 0c0-1.7-.9-3.3-2.2-4.3-1.3-1-2.8-1.4-4.3-1.3-1.5.1-2.9.6-3.9 1.6-1.1 1-1.8 2.4-1.8 3.9-.1 1.5.5 3.1 1.6 4.2s2.6 1.8 4.2 1.9c1.6.1 3.2-.5 4.5-1.6 1.2-1 2-2.7 1.9-4.4z" class="st1"/></g><g><pattern id="SVGID_13_" patternTransform="translate(14.4)" xlink:href="#New_Pattern_Swatch_1"/><circle cx="54" cy="124.6" r="6.6" class="st16"/><path d="M60.7 124.6c0 1.7-.7 3.5-1.9 4.8-1.2 1.3-2.9 2.2-4.8 2.3-1.9.1-3.7-.7-5.1-2-1.4-1.3-2.2-3.2-2.3-5.1-.1-1.9.7-3.9 2-5.3C50 117.8 52 117 54 117c1 0 2 .3 2.8.7.9.5 1.6 1.1 2.2 1.8 1.2 1.6 1.7 3.4 1.7 5.1zm-.2 0c0-1.7-.9-3.3-2.2-4.3-1.3-1-2.8-1.4-4.3-1.3-1.5.1-2.9.6-3.9 1.6-1.1 1-1.8 2.4-1.8 3.9-.1 1.5.5 3.1 1.6 4.2s2.6 1.8 4.2 1.9c1.6.1 3.2-.5 4.5-1.6 1.2-1 1.9-2.7 1.9-4.4z" class="st1"/></g><g><pattern id="SVGID_14_" patternTransform="translate(14.4)" xlink:href="#New_Pattern_Swatch_1"/><path d="M169.4 118.9H222.10000000000002V130.4H169.4z" class="st17"/><path d="m169.5 130.3 52.7-.6-.7.7-.1-11.5.8.8c-4.4.1-8.8.2-13.2.2-4.4.1-8.8 0-13.2 0-4.4 0-8.8-.1-13.2-.2l-6.6-.1-6.6-.2.6-.6c-.1 1.8-.1 3.7-.2 5.6l-.3 5.9zm-.2.1-.3-5.7c-.1-1.9-.2-3.9-.2-5.9 0-.3.2-.6.5-.6l6.6-.2 6.6-.1c4.4-.1 8.8-.2 13.2-.2 4.4 0 8.8-.1 13.2 0 4.4 0 8.8.1 13.2.2.4 0 .8.4.8.8l-.1 11.5c0 .4-.3.7-.7.7l-52.8-.5z" class="st1"/></g><g><path d="M58.1 177.8c2.9-.2 5.8-.2 8.7-.4l8.7-.2c5.8-.2 11.7-.2 17.5-.3 11.7-.1 23.3.2 35 .2s23.3-.3 35-.2c11.7.2 23.3.3 35 .9.1 0 .1 0 .1.1s0 .1-.1.1c-11.7.6-23.3.7-35 .9-11.7.1-23.3-.2-35-.2s-23.3.3-35 .2c-5.8-.1-11.7-.1-17.5-.3l-8.7-.2c-2.9-.1-5.8-.2-8.7-.4-.1 0-.1 0 0-.2-.1.1-.1 0 0 0z" class="st1"/></g><path d="M202 86.8H207V107.5H202z" class="st5"/></svg>