<?xml version="1.0" encoding="utf-8"?>
<!-- Generator: Adobe Illustrator 22.1.0, SVG Export Plug-In . SVG Version: 6.00 Build 0)  -->
<svg version="1.1" id="Layer_1" xmlns="http://www.w3.org/2000/svg" xmlns:xlink="http://www.w3.org/1999/xlink" x="0px" y="0px"
	 viewBox="0 0 256 256" style="enable-background:new 0 0 256 256;" xml:space="preserve">
<style type="text/css">
	.st0{fill:none;}
	.st1{fill:#253759;}
	.st2{clip-path:url(#SVGID_2_);fill:#253759;}
	.st3{clip-path:url(#SVGID_4_);fill:#253759;}
	.st4{fill:#FFFFFF;}
	.st5{fill:#A8A7C2;}
	.st6{opacity:0.3;fill:#253759;}
	.st7{fill:#A6D6FF;}
	.st8{fill:#FF9D9D;}
	.st9{fill:url(#SVGID_7_);}
	.st10{fill:url(#SVGID_8_);}
	.st11{fill:url(#SVGID_9_);}
</style>
<pattern  x="-3864" width="42.9" height="43" patternUnits="userSpaceOnUse" id="New_Pattern_Swatch_1" viewBox="43 -43 42.9 43" style="overflow:visible;">
	<g>
		<rect x="43" y="-43" class="st0" width="42.9" height="43"/>
		<g>
			<g>
				<circle class="st1" cx="85.9" cy="-41.2" r="0.6"/>
				<circle class="st1" cx="85.9" cy="-37.6" r="0.6"/>
				<circle class="st1" cx="85.9" cy="-34" r="0.6"/>
				<circle class="st1" cx="85.9" cy="-30.4" r="0.6"/>
				<circle class="st1" cx="85.9" cy="-26.9" r="0.6"/>
				<circle class="st1" cx="85.9" cy="-23.3" r="0.6"/>
				<circle class="st1" cx="85.9" cy="-19.7" r="0.6"/>
				<circle class="st1" cx="85.9" cy="-16.1" r="0.6"/>
				<circle class="st1" cx="85.9" cy="-12.6" r="0.6"/>
				<circle class="st1" cx="85.9" cy="-9" r="0.6"/>
				<circle class="st1" cx="85.9" cy="-5.4" r="0.6"/>
				<circle class="st1" cx="85.9" cy="-1.8" r="0.6"/>
				<circle class="st1" cx="85.8" cy="-41.2" r="0.6"/>
				<circle class="st1" cx="85.8" cy="-37.6" r="0.6"/>
				<circle class="st1" cx="85.8" cy="-34" r="0.6"/>
				<circle class="st1" cx="85.8" cy="-30.4" r="0.6"/>
				<circle class="st1" cx="85.8" cy="-26.9" r="0.6"/>
				<circle class="st1" cx="85.8" cy="-23.3" r="0.6"/>
				<circle class="st1" cx="85.8" cy="-19.7" r="0.6"/>
				<circle class="st1" cx="85.8" cy="-16.1" r="0.6"/>
				<circle class="st1" cx="85.8" cy="-12.6" r="0.6"/>
				<circle class="st1" cx="85.8" cy="-9" r="0.6"/>
				<circle class="st1" cx="85.8" cy="-5.4" r="0.6"/>
				<circle class="st1" cx="85.8" cy="-1.8" r="0.6"/>
			</g>
			<g>
				<defs>
					<rect id="SVGID_1_" x="85.8" y="-43" width="43" height="43"/>
				</defs>
				<clipPath id="SVGID_2_">
					<use xlink:href="#SVGID_1_"  style="overflow:visible;"/>
				</clipPath>
				<circle class="st2" cx="85.8" cy="-41.2" r="0.6"/>
				<circle class="st2" cx="85.8" cy="-37.6" r="0.6"/>
				<circle class="st2" cx="85.8" cy="-34" r="0.6"/>
				<circle class="st2" cx="85.8" cy="-30.4" r="0.6"/>
				<circle class="st2" cx="85.8" cy="-26.9" r="0.6"/>
				<circle class="st2" cx="85.8" cy="-23.3" r="0.6"/>
				<circle class="st2" cx="85.8" cy="-19.7" r="0.6"/>
				<circle class="st2" cx="85.8" cy="-16.1" r="0.6"/>
				<circle class="st2" cx="85.8" cy="-12.6" r="0.6"/>
				<circle class="st2" cx="85.8" cy="-9" r="0.6"/>
				<circle class="st2" cx="85.8" cy="-5.4" r="0.6"/>
				<circle class="st2" cx="85.8" cy="-1.8" r="0.6"/>
				<circle class="st2" cx="85.7" cy="-41.2" r="0.6"/>
				<circle class="st2" cx="85.7" cy="-37.6" r="0.6"/>
				<circle class="st2" cx="85.7" cy="-34" r="0.6"/>
				<circle class="st2" cx="85.7" cy="-30.4" r="0.6"/>
				<circle class="st2" cx="85.7" cy="-26.9" r="0.6"/>
				<circle class="st2" cx="85.7" cy="-23.3" r="0.6"/>
				<circle class="st2" cx="85.7" cy="-19.7" r="0.6"/>
				<circle class="st2" cx="85.7" cy="-16.1" r="0.6"/>
				<circle class="st2" cx="85.7" cy="-12.6" r="0.6"/>
				<circle class="st2" cx="85.7" cy="-9" r="0.6"/>
				<circle class="st2" cx="85.7" cy="-5.4" r="0.6"/>
				<circle class="st2" cx="85.7" cy="-1.8" r="0.6"/>
			</g>
		</g>
		<g>
			<g>
				<circle class="st1" cx="85.9" cy="-41.2" r="0.6"/>
				<circle class="st1" cx="85.9" cy="-37.6" r="0.6"/>
				<circle class="st1" cx="85.9" cy="-34" r="0.6"/>
				<circle class="st1" cx="85.9" cy="-30.4" r="0.6"/>
				<circle class="st1" cx="85.9" cy="-26.9" r="0.6"/>
				<circle class="st1" cx="85.9" cy="-23.3" r="0.6"/>
				<circle class="st1" cx="85.9" cy="-19.7" r="0.6"/>
				<circle class="st1" cx="85.9" cy="-16.1" r="0.6"/>
				<circle class="st1" cx="85.9" cy="-12.6" r="0.6"/>
				<circle class="st1" cx="85.9" cy="-9" r="0.6"/>
				<circle class="st1" cx="85.9" cy="-5.4" r="0.6"/>
				<circle class="st1" cx="85.9" cy="-1.8" r="0.6"/>
				<circle class="st1" cx="43" cy="-41.2" r="0.6"/>
				<circle class="st1" cx="46.5" cy="-41.2" r="0.6"/>
				<circle class="st1" cx="50.1" cy="-41.2" r="0.6"/>
				<circle class="st1" cx="53.7" cy="-41.2" r="0.6"/>
				<circle class="st1" cx="43" cy="-37.6" r="0.6"/>
				<circle class="st1" cx="46.5" cy="-37.6" r="0.6"/>
				<circle class="st1" cx="50.1" cy="-37.6" r="0.6"/>
				<circle class="st1" cx="53.7" cy="-37.6" r="0.6"/>
				<circle class="st1" cx="43" cy="-34" r="0.6"/>
				<circle class="st1" cx="46.5" cy="-34" r="0.6"/>
				<circle class="st1" cx="50.1" cy="-34" r="0.6"/>
				<circle class="st1" cx="53.7" cy="-34" r="0.6"/>
				<circle class="st1" cx="43" cy="-30.4" r="0.6"/>
				<circle class="st1" cx="46.5" cy="-30.4" r="0.6"/>
				<circle class="st1" cx="50.1" cy="-30.4" r="0.6"/>
				<circle class="st1" cx="53.7" cy="-30.4" r="0.6"/>
				<circle class="st1" cx="43" cy="-26.9" r="0.6"/>
				<circle class="st1" cx="46.5" cy="-26.9" r="0.6"/>
				<circle class="st1" cx="50.1" cy="-26.9" r="0.6"/>
				<circle class="st1" cx="53.7" cy="-26.9" r="0.6"/>
				<circle class="st1" cx="43" cy="-23.3" r="0.6"/>
				<circle class="st1" cx="46.5" cy="-23.3" r="0.6"/>
				<circle class="st1" cx="50.1" cy="-23.3" r="0.6"/>
				<circle class="st1" cx="53.7" cy="-23.3" r="0.6"/>
				<circle class="st1" cx="57.3" cy="-41.2" r="0.6"/>
				<circle class="st1" cx="60.8" cy="-41.2" r="0.6"/>
				<circle class="st1" cx="64.4" cy="-41.2" r="0.6"/>
				<circle class="st1" cx="68" cy="-41.2" r="0.6"/>
				<circle class="st1" cx="71.5" cy="-41.2" r="0.6"/>
				<circle class="st1" cx="57.3" cy="-37.6" r="0.6"/>
				<circle class="st1" cx="60.8" cy="-37.6" r="0.6"/>
				<circle class="st1" cx="64.4" cy="-37.6" r="0.6"/>
				<circle class="st1" cx="68" cy="-37.6" r="0.6"/>
				<circle class="st1" cx="71.5" cy="-37.6" r="0.6"/>
				<circle class="st1" cx="57.3" cy="-34" r="0.6"/>
				<circle class="st1" cx="60.8" cy="-34" r="0.6"/>
				<circle class="st1" cx="64.4" cy="-34" r="0.6"/>
				<circle class="st1" cx="68" cy="-34" r="0.6"/>
				<circle class="st1" cx="71.5" cy="-34" r="0.6"/>
				<circle class="st1" cx="57.3" cy="-30.4" r="0.6"/>
				<circle class="st1" cx="60.8" cy="-30.4" r="0.6"/>
				<circle class="st1" cx="64.4" cy="-30.4" r="0.6"/>
				<circle class="st1" cx="68" cy="-30.4" r="0.6"/>
				<circle class="st1" cx="71.5" cy="-30.4" r="0.6"/>
				<circle class="st1" cx="57.3" cy="-26.9" r="0.6"/>
				<circle class="st1" cx="60.8" cy="-26.9" r="0.6"/>
				<circle class="st1" cx="64.4" cy="-26.9" r="0.6"/>
				<circle class="st1" cx="68" cy="-26.9" r="0.6"/>
				<circle class="st1" cx="71.5" cy="-26.9" r="0.6"/>
				<circle class="st1" cx="57.3" cy="-23.3" r="0.6"/>
				<circle class="st1" cx="60.8" cy="-23.3" r="0.6"/>
				<circle class="st1" cx="64.4" cy="-23.3" r="0.6"/>
				<circle class="st1" cx="68" cy="-23.3" r="0.6"/>
				<circle class="st1" cx="71.5" cy="-23.3" r="0.6"/>
				<circle class="st1" cx="75.1" cy="-41.2" r="0.6"/>
				<circle class="st1" cx="78.7" cy="-41.2" r="0.6"/>
				<circle class="st1" cx="82.3" cy="-41.2" r="0.6"/>
				<circle class="st1" cx="85.8" cy="-41.2" r="0.6"/>
				<circle class="st1" cx="75.1" cy="-37.6" r="0.6"/>
				<circle class="st1" cx="78.7" cy="-37.6" r="0.6"/>
				<circle class="st1" cx="82.3" cy="-37.6" r="0.6"/>
				<circle class="st1" cx="85.8" cy="-37.6" r="0.6"/>
				<circle class="st1" cx="75.1" cy="-34" r="0.6"/>
				<circle class="st1" cx="78.7" cy="-34" r="0.6"/>
				<circle class="st1" cx="82.3" cy="-34" r="0.6"/>
				<circle class="st1" cx="85.8" cy="-34" r="0.6"/>
				<circle class="st1" cx="75.1" cy="-30.4" r="0.6"/>
				<circle class="st1" cx="78.7" cy="-30.4" r="0.6"/>
				<circle class="st1" cx="82.3" cy="-30.4" r="0.6"/>
				<circle class="st1" cx="85.8" cy="-30.4" r="0.6"/>
				<circle class="st1" cx="75.1" cy="-26.9" r="0.6"/>
				<circle class="st1" cx="78.7" cy="-26.9" r="0.6"/>
				<circle class="st1" cx="82.3" cy="-26.9" r="0.6"/>
				<circle class="st1" cx="85.8" cy="-26.9" r="0.6"/>
				<circle class="st1" cx="75.1" cy="-23.3" r="0.6"/>
				<circle class="st1" cx="78.7" cy="-23.3" r="0.6"/>
				<circle class="st1" cx="82.3" cy="-23.3" r="0.6"/>
				<circle class="st1" cx="85.8" cy="-23.3" r="0.6"/>
				<circle class="st1" cx="43" cy="-19.7" r="0.6"/>
				<circle class="st1" cx="46.5" cy="-19.7" r="0.6"/>
				<circle class="st1" cx="50.1" cy="-19.7" r="0.6"/>
				<circle class="st1" cx="53.7" cy="-19.7" r="0.6"/>
				<circle class="st1" cx="43" cy="-16.1" r="0.6"/>
				<circle class="st1" cx="46.5" cy="-16.1" r="0.6"/>
				<circle class="st1" cx="50.1" cy="-16.1" r="0.6"/>
				<circle class="st1" cx="53.7" cy="-16.1" r="0.6"/>
				<circle class="st1" cx="43" cy="-12.6" r="0.6"/>
				<circle class="st1" cx="46.5" cy="-12.6" r="0.6"/>
				<circle class="st1" cx="50.1" cy="-12.6" r="0.6"/>
				<circle class="st1" cx="53.7" cy="-12.6" r="0.6"/>
				<circle class="st1" cx="43" cy="-9" r="0.6"/>
				<circle class="st1" cx="46.5" cy="-9" r="0.6"/>
				<circle class="st1" cx="50.1" cy="-9" r="0.6"/>
				<circle class="st1" cx="53.7" cy="-9" r="0.6"/>
				<circle class="st1" cx="43" cy="-5.4" r="0.6"/>
				<circle class="st1" cx="46.5" cy="-5.4" r="0.6"/>
				<circle class="st1" cx="50.1" cy="-5.4" r="0.6"/>
				<circle class="st1" cx="53.7" cy="-5.4" r="0.6"/>
				<circle class="st1" cx="43" cy="-1.8" r="0.6"/>
				<circle class="st1" cx="46.5" cy="-1.8" r="0.6"/>
				<circle class="st1" cx="50.1" cy="-1.8" r="0.6"/>
				<circle class="st1" cx="53.7" cy="-1.8" r="0.6"/>
				<circle class="st1" cx="57.3" cy="-19.7" r="0.6"/>
				<circle class="st1" cx="60.8" cy="-19.7" r="0.6"/>
				<circle class="st1" cx="64.4" cy="-19.7" r="0.6"/>
				<circle class="st1" cx="68" cy="-19.7" r="0.6"/>
				<circle class="st1" cx="71.5" cy="-19.7" r="0.6"/>
				<circle class="st1" cx="57.3" cy="-16.1" r="0.6"/>
				<circle class="st1" cx="60.8" cy="-16.1" r="0.6"/>
				<circle class="st1" cx="64.4" cy="-16.1" r="0.6"/>
				<circle class="st1" cx="68" cy="-16.1" r="0.6"/>
				<circle class="st1" cx="71.5" cy="-16.1" r="0.6"/>
				<circle class="st1" cx="57.3" cy="-12.6" r="0.6"/>
				<circle class="st1" cx="60.8" cy="-12.6" r="0.6"/>
				<circle class="st1" cx="64.4" cy="-12.6" r="0.6"/>
				<circle class="st1" cx="68" cy="-12.6" r="0.6"/>
				<circle class="st1" cx="71.5" cy="-12.6" r="0.6"/>
				<circle class="st1" cx="57.3" cy="-9" r="0.6"/>
				<circle class="st1" cx="60.8" cy="-9" r="0.6"/>
				<circle class="st1" cx="64.4" cy="-9" r="0.6"/>
				<circle class="st1" cx="68" cy="-9" r="0.6"/>
				<circle class="st1" cx="71.5" cy="-9" r="0.6"/>
				<circle class="st1" cx="57.3" cy="-5.4" r="0.6"/>
				<circle class="st1" cx="60.8" cy="-5.4" r="0.6"/>
				<circle class="st1" cx="64.4" cy="-5.4" r="0.6"/>
				<circle class="st1" cx="68" cy="-5.4" r="0.6"/>
				<circle class="st1" cx="71.5" cy="-5.4" r="0.6"/>
				<circle class="st1" cx="57.3" cy="-1.8" r="0.6"/>
				<circle class="st1" cx="60.8" cy="-1.8" r="0.6"/>
				<circle class="st1" cx="64.4" cy="-1.8" r="0.6"/>
				<circle class="st1" cx="68" cy="-1.8" r="0.6"/>
				<circle class="st1" cx="71.5" cy="-1.8" r="0.6"/>
				<circle class="st1" cx="75.1" cy="-19.7" r="0.6"/>
				<circle class="st1" cx="78.7" cy="-19.7" r="0.6"/>
				<circle class="st1" cx="82.3" cy="-19.7" r="0.6"/>
				<circle class="st1" cx="85.8" cy="-19.7" r="0.6"/>
				<circle class="st1" cx="75.1" cy="-16.1" r="0.6"/>
				<circle class="st1" cx="78.7" cy="-16.1" r="0.6"/>
				<circle class="st1" cx="82.3" cy="-16.1" r="0.6"/>
				<circle class="st1" cx="85.8" cy="-16.1" r="0.6"/>
				<circle class="st1" cx="75.1" cy="-12.6" r="0.6"/>
				<circle class="st1" cx="78.7" cy="-12.6" r="0.6"/>
				<circle class="st1" cx="82.3" cy="-12.6" r="0.6"/>
				<circle class="st1" cx="85.8" cy="-12.6" r="0.6"/>
				<circle class="st1" cx="75.1" cy="-9" r="0.6"/>
				<circle class="st1" cx="78.7" cy="-9" r="0.6"/>
				<circle class="st1" cx="82.3" cy="-9" r="0.6"/>
				<circle class="st1" cx="85.8" cy="-9" r="0.6"/>
				<circle class="st1" cx="75.1" cy="-5.4" r="0.6"/>
				<circle class="st1" cx="78.7" cy="-5.4" r="0.6"/>
				<circle class="st1" cx="82.3" cy="-5.4" r="0.6"/>
				<circle class="st1" cx="85.8" cy="-5.4" r="0.6"/>
				<circle class="st1" cx="75.1" cy="-1.8" r="0.6"/>
				<circle class="st1" cx="78.7" cy="-1.8" r="0.6"/>
				<circle class="st1" cx="82.3" cy="-1.8" r="0.6"/>
				<circle class="st1" cx="85.8" cy="-1.8" r="0.6"/>
				<circle class="st1" cx="42.9" cy="-41.2" r="0.6"/>
				<circle class="st1" cx="42.9" cy="-37.6" r="0.6"/>
				<circle class="st1" cx="42.9" cy="-34" r="0.6"/>
				<circle class="st1" cx="42.9" cy="-30.4" r="0.6"/>
				<circle class="st1" cx="42.9" cy="-26.9" r="0.6"/>
				<circle class="st1" cx="42.9" cy="-23.3" r="0.6"/>
				<circle class="st1" cx="42.9" cy="-19.7" r="0.6"/>
				<circle class="st1" cx="42.9" cy="-16.1" r="0.6"/>
				<circle class="st1" cx="42.9" cy="-12.6" r="0.6"/>
				<circle class="st1" cx="42.9" cy="-9" r="0.6"/>
				<circle class="st1" cx="42.9" cy="-5.4" r="0.6"/>
				<circle class="st1" cx="42.9" cy="-1.8" r="0.6"/>
			</g>
			<g>
				<defs>
					<rect id="SVGID_3_" x="42.9" y="-43" width="43" height="43"/>
				</defs>
				<clipPath id="SVGID_4_">
					<use xlink:href="#SVGID_3_"  style="overflow:visible;"/>
				</clipPath>
				<circle class="st3" cx="42.9" cy="-41.2" r="0.6"/>
				<circle class="st3" cx="42.9" cy="-37.6" r="0.6"/>
				<circle class="st3" cx="42.9" cy="-34" r="0.6"/>
				<circle class="st3" cx="42.9" cy="-30.4" r="0.6"/>
				<circle class="st3" cx="42.9" cy="-26.9" r="0.6"/>
				<circle class="st3" cx="42.9" cy="-23.3" r="0.6"/>
				<circle class="st3" cx="42.9" cy="-19.7" r="0.6"/>
				<circle class="st3" cx="42.9" cy="-16.1" r="0.6"/>
				<circle class="st3" cx="42.9" cy="-12.6" r="0.6"/>
				<circle class="st3" cx="42.9" cy="-9" r="0.6"/>
				<circle class="st3" cx="42.9" cy="-5.4" r="0.6"/>
				<circle class="st3" cx="42.9" cy="-1.8" r="0.6"/>
				<circle class="st3" cx="42.8" cy="-41.2" r="0.6"/>
				<circle class="st3" cx="42.8" cy="-37.6" r="0.6"/>
				<circle class="st3" cx="42.8" cy="-34" r="0.6"/>
				<circle class="st3" cx="42.8" cy="-30.4" r="0.6"/>
				<circle class="st3" cx="42.8" cy="-26.9" r="0.6"/>
				<circle class="st3" cx="42.8" cy="-23.3" r="0.6"/>
				<circle class="st3" cx="42.8" cy="-19.7" r="0.6"/>
				<circle class="st3" cx="42.8" cy="-16.1" r="0.6"/>
				<circle class="st3" cx="42.8" cy="-12.6" r="0.6"/>
				<circle class="st3" cx="42.8" cy="-9" r="0.6"/>
				<circle class="st3" cx="42.8" cy="-5.4" r="0.6"/>
				<circle class="st3" cx="42.8" cy="-1.8" r="0.6"/>
			</g>
		</g>
		<g>
			<g>
				<circle class="st1" cx="43" cy="-41.2" r="0.6"/>
				<circle class="st1" cx="43" cy="-37.6" r="0.6"/>
				<circle class="st1" cx="43" cy="-34" r="0.6"/>
				<circle class="st1" cx="43" cy="-30.4" r="0.6"/>
				<circle class="st1" cx="43" cy="-26.9" r="0.6"/>
				<circle class="st1" cx="43" cy="-23.3" r="0.6"/>
				<circle class="st1" cx="43" cy="-19.7" r="0.6"/>
				<circle class="st1" cx="43" cy="-16.1" r="0.6"/>
				<circle class="st1" cx="43" cy="-12.6" r="0.6"/>
				<circle class="st1" cx="43" cy="-9" r="0.6"/>
				<circle class="st1" cx="43" cy="-5.4" r="0.6"/>
				<circle class="st1" cx="43" cy="-1.8" r="0.6"/>
				<circle class="st1" cx="42.9" cy="-41.2" r="0.6"/>
				<circle class="st1" cx="42.9" cy="-37.6" r="0.6"/>
				<circle class="st1" cx="42.9" cy="-34" r="0.6"/>
				<circle class="st1" cx="42.9" cy="-30.4" r="0.6"/>
				<circle class="st1" cx="42.9" cy="-26.9" r="0.6"/>
				<circle class="st1" cx="42.9" cy="-23.3" r="0.6"/>
				<circle class="st1" cx="42.9" cy="-19.7" r="0.6"/>
				<circle class="st1" cx="42.9" cy="-16.1" r="0.6"/>
				<circle class="st1" cx="42.9" cy="-12.6" r="0.6"/>
				<circle class="st1" cx="42.9" cy="-9" r="0.6"/>
				<circle class="st1" cx="42.9" cy="-5.4" r="0.6"/>
				<circle class="st1" cx="42.9" cy="-1.8" r="0.6"/>
			</g>
			<g>
				<defs>
					<rect id="SVGID_5_" y="-43" width="43" height="43"/>
				</defs>
				<clipPath id="SVGID_6_">
					<use xlink:href="#SVGID_5_"  style="overflow:visible;"/>
				</clipPath>
			</g>
		</g>
	</g>
</pattern>
<g>
	<g>
		<rect x="199" y="38.6" class="st4" width="26.5" height="159.6"/>
		<path class="st1" d="M225.6,198.3l-26.6,0.1c-0.1,0-0.2-0.1-0.2-0.2v0l-0.6-159.5c0-0.4,0.4-0.8,0.8-0.8l0,0l26.5-0.2
			c0.5,0,1,0.4,1,1l0,0v0c0,13.4,0.1,26.7,0,40.1c0,13.4-0.1,26.7-0.2,40l-0.3,39.9L225.6,198.3z M225.4,198.1L225,158l-0.3-39.9
			c-0.1-13.3-0.1-26.5-0.2-39.7c-0.1-13.2,0-26.5,0-39.7l1,1L199,39.4l0.8-0.8l-0.6,159.5L199,198L225.4,198.1z"/>
	</g>
	<g>
		<path class="st4" d="M234.5,198.2v52.2h-213V5.6h52.2v117.1c0,41.6,33.6,75.3,75.1,75.5H234.5z"/>
		<path class="st1" d="M235.1,197.6c0.1,17.6,0.1,35.2,0.1,52.8c0,0.4-0.3,0.6-0.7,0.7L128,250.9l-106.5,0c-0.3,0-0.6-0.3-0.6-0.6
			L20.6,5.6c0-0.5,0.4-0.9,0.9-0.9l52.2-0.1c0.5,0,1,0.4,1,1v0l0,80.2l0,20.1l0,10c0,3.3,0,6.7,0.1,10c0.6,13.2,4.6,26.2,11.9,37.3
			c7.2,11.1,17.3,20.3,29.1,26.2c3,1.5,6,2.8,9.1,3.8c3.1,1.1,6.3,1.9,9.6,2.6c1.6,0.3,3.2,0.6,4.9,0.8c1.6,0.3,3.3,0.4,4.9,0.5
			c1.7,0.1,3.3,0.1,5,0.2l5.1,0C181.2,197.3,208.2,197.5,235.1,197.6z M233.9,198.8c-26.6,0.1-53.2,0.3-79.7,0.3l-5,0
			c-1.7,0-3.4-0.1-5.1-0.2c-1.7-0.1-3.4-0.2-5-0.5c-1.7-0.2-3.3-0.5-5-0.8c-3.3-0.7-6.6-1.5-9.8-2.7c-3.2-1.1-6.3-2.4-9.4-3.9
			c-12.1-6-22.5-15.4-29.9-26.8c-7.4-11.3-11.6-24.7-12.2-38.2c-0.1-3.4-0.1-6.7-0.1-10.1l0-10l0-20.1l0-80.2l1,1L21.5,6.5l0.9-0.9
			l-0.3,244.8l-0.6-0.6l106.5,0l106.5-0.1l-0.7,0.7C233.8,233.2,233.8,216,233.9,198.8z"/>
	</g>
	<g>
		<path class="st4" d="M234.5,198.2v52.2h-213V5.6h52.2v117.1c0,41.6,33.6,75.3,75.1,75.5H234.5z"/>
		<path class="st1" d="M235.1,197.6c0.1,17.6,0.1,35.2,0.1,52.8c0,0.4-0.3,0.6-0.7,0.7L128,250.9l-106.5,0c-0.3,0-0.6-0.3-0.6-0.6
			L20.6,5.6c0-0.5,0.4-0.9,0.9-0.9l52.2-0.1c0.5,0,1,0.4,1,1v0l0,80.2l0,20.1l0,10c0,3.3,0,6.7,0.1,10c0.6,13.2,4.6,26.2,11.9,37.3
			c7.2,11.1,17.3,20.3,29.1,26.2c3,1.5,6,2.8,9.1,3.8c3.1,1.1,6.3,1.9,9.6,2.6c1.6,0.3,3.2,0.6,4.9,0.8c1.6,0.3,3.3,0.4,4.9,0.5
			c1.7,0.1,3.3,0.1,5,0.2l5.1,0C181.2,197.3,208.2,197.5,235.1,197.6z M233.9,198.8c-26.6,0.1-53.2,0.3-79.7,0.3l-5,0
			c-1.7,0-3.4-0.1-5.1-0.2c-1.7-0.1-3.4-0.2-5-0.5c-1.7-0.2-3.3-0.5-5-0.8c-3.3-0.7-6.6-1.5-9.8-2.7c-3.2-1.1-6.3-2.4-9.4-3.9
			c-12.1-6-22.5-15.4-29.9-26.8c-7.4-11.3-11.6-24.7-12.2-38.2c-0.1-3.4-0.1-6.7-0.1-10.1l0-10l0-20.1l0-80.2l1,1L21.5,6.5l0.9-0.9
			l-0.3,244.8l-0.6-0.6l106.5,0l106.5-0.1l-0.7,0.7C233.8,233.2,233.8,216,233.9,198.8z"/>
	</g>
	<g>
		<path class="st5" d="M199,17.8v180.4h-50.2c-38.8-0.2-70.7-29.7-74.7-67.5c-0.3-2.6-0.4-5.3-0.4-8V17.8H199z"/>
		<path class="st1" d="M200,16.9l-0.2,90.8l-0.2,45.3c-0.1,7.5-0.1,15.1,0,22.6c0,7.5,0,15.1,0.1,22.6c0,0.3-0.2,0.6-0.6,0.6l0,0
			l0,0l0,0l-34.2,0.1c-5.7,0-11.4,0.1-17.1,0c-5.7-0.1-11.5-0.8-17.1-2.2c-5.6-1.4-11-3.4-16.1-6c-5.1-2.6-10-5.8-14.4-9.5
			c-4.4-3.7-8.4-7.9-11.9-12.5c-3.5-4.6-6.5-9.6-8.8-14.8c-2.3-5.3-4.1-10.8-5.2-16.4c-0.5-2.8-0.9-5.7-1.2-8.5
			c-0.3-2.9-0.3-5.8-0.3-8.6l0-34.2l0-34.2c0-11.4,0-22.8,0.1-34.2v0c0-0.5,0.4-0.9,0.9-0.9C115.7,16.7,157.9,16.7,200,16.9z
			 M198,18.8c-41.4,0.1-82.8,0.1-124.3,0l0.9-0.9l0,0c0.1,11.4,0.1,22.8,0.1,34.2l0,34.2l0,34.2c0,2.9,0,5.7,0.2,8.5
			c0.2,2.8,0.6,5.6,1.1,8.4c1.1,5.5,2.8,10.9,5.1,16.1c2.3,5.1,5.2,10,8.6,14.5c3.4,4.5,7.3,8.6,11.6,12.2c4.3,3.6,9,6.8,14,9.4
			c5,2.6,10.3,4.6,15.8,6c5.5,1.4,11.1,2.1,16.7,2.2c5.7,0.1,11.4,0,17.1,0.1l34.2,0.1l0,0l-0.6,0.6c0.1-7.5,0.1-15,0.1-22.5
			c0-7.5,0-15,0-22.5l-0.2-44.9L198,18.8z"/>
	</g>
	<rect x="199" y="38.6" class="st6" width="5" height="159.6"/>
	<path class="st7" d="M33.7,238.2V17.8h27.7v104.9c0,48.4,39.4,87.7,87.7,87.7h73v27.7H33.7z"/>
	<polygon class="st7" points="184.1,49.3 184.1,97.6 148.8,97.6 148.8,75.8 88.7,75.8 88.7,49.3 	"/>
	<path class="st7" d="M121.4,101.6v29.1H74.1c-0.3-2.6-0.4-5.3-0.4-8v-21.1H121.4z"/>
	<path class="st7" d="M33.7,238.2V17.8h27.7v104.9c0,48.4,39.4,87.7,87.7,87.7h73v27.7H33.7z"/>
	<polygon class="st7" points="184.1,49.3 184.1,97.6 148.8,97.6 148.8,75.8 88.7,75.8 88.7,49.3 	"/>
	<g>
		<path class="st8" d="M148.8,75.8v122.4c-41.5-0.2-75.1-33.9-75.1-75.5V75.8H148.8z"/>
		<path class="st1" d="M149.3,75.3l0,61.5l0,30.7c0,10.2,0,20.5,0.1,30.7c0,0.3-0.3,0.6-0.6,0.6l0,0l0,0c-13.9,0-27.7-3.9-39.6-11.2
			c-11.9-7.2-21.7-17.8-28-30.2c-3.2-6.2-5.5-12.8-6.9-19.6c-0.7-3.4-1.2-6.9-1.4-10.3c-0.1-1.7-0.1-3.5-0.2-5.2l0-5.2
			c0-13.8-0.1-27.5,0-41.3v0c0-0.5,0.4-0.9,0.9-0.9C99,74.9,124.2,75.1,149.3,75.3z M148.3,76.3c-25,0.2-49.7,0.3-74.6,0.4l0.9-0.9
			c0.2,13.8,0.1,27.5,0,41.3l0,5.2c0,1.7,0,3.4,0.1,5.1c0.2,3.4,0.7,6.8,1.3,10.1c1.4,6.7,3.5,13.2,6.7,19.2
			c6.2,12.1,15.7,22.5,27.3,29.7c11.6,7.2,25.2,11.1,38.8,11.2l-0.6,0.6c0.1-10.2,0.1-20.3,0.1-30.5l0-30.5L148.3,76.3z"/>
	</g>
	<path class="st7" d="M121.4,101.6v29.1H74.1c-0.3-2.6-0.4-5.3-0.4-8v-21.1H121.4z"/>
	<g>
		<pattern  id="SVGID_7_" xlink:href="#New_Pattern_Swatch_1" patternTransform="matrix(1 0 0 1 14.4 0)">
		</pattern>
		<path class="st9" d="M33.7,238.2V17.8h27.7v104.9c0,48.4,39.4,87.7,87.7,87.7h73v27.7H33.7z"/>
		<path class="st1" d="M32.9,239L33,128.3L33.1,73c0.1-18.4,0.2-36.8,0.1-55.2c0-0.3,0.2-0.5,0.5-0.5l0,0l27.7,0
			c0.3,0,0.6,0.3,0.6,0.6v0l0.1,78.9l0,19.7c0,3.3,0,6.6,0.1,9.8c0,1.6,0.2,3.3,0.3,4.9c0.2,1.6,0.4,3.2,0.6,4.9
			c2.1,12.9,7,25.3,14.4,36c3.7,5.3,8,10.3,12.8,14.7c4.8,4.4,10.1,8.2,15.8,11.5c11.3,6.5,24.1,10.3,37.1,11.1
			c3.2,0.2,6.5,0.2,9.8,0.2l9.9,0l19.7,0l39.5,0c0.5,0,1,0.4,1,1v0c0,9.2,0,18.5,0,27.7c0,0.5-0.4,1-1,1
			C159.2,239.2,96,239.2,32.9,239z M34.6,237.3c62.6-0.2,125.1-0.2,187.7-0.1l-1,1c-0.1-9.2,0-18.5,0-27.7l1,1l-39.5,0l-19.7,0
			l-9.9,0c-3.3,0-6.6,0-9.9-0.2c-13.3-0.9-26.3-4.8-37.8-11.4c-5.8-3.3-11.2-7.2-16.1-11.7c-4.9-4.5-9.3-9.5-13-15
			c-7.6-10.9-12.6-23.6-14.6-36.7c-0.2-1.6-0.4-3.3-0.6-4.9c-0.1-1.7-0.3-3.3-0.3-5c-0.1-3.3-0.1-6.6-0.1-9.9l0-19.7l0.1-78.9
			l0.6,0.6l-27.7,0l0.5-0.5c-0.1,18.3,0,36.7,0.1,55l0.1,54.9L34.6,237.3z"/>
	</g>
	<g>
		<pattern  id="SVGID_8_" xlink:href="#New_Pattern_Swatch_1" patternTransform="matrix(1 0 0 1 14.4 0)">
		</pattern>
		<polygon class="st10" points="184.1,49.3 184.1,97.6 148.8,97.6 148.8,75.8 88.7,75.8 88.7,49.3 		"/>
		<path class="st1" d="M184.1,49.2l0.3,48.4c0,0.2-0.2,0.4-0.4,0.4l0,0l-35.2,0.2c-0.3,0-0.5-0.2-0.5-0.5v0v0l-0.1-21.8l0.6,0.6
			l-60.2,0.3c-0.5,0-0.9-0.4-0.9-0.9v0v0l-0.1-26.5c0-0.6,0.5-1,1-1h0l24,0l24,0.2l23.8,0.3L184.1,49.2z M184,49.3l-24.1,0.4L136,50
			l-23.7,0.2l-23.7,0l1-1l-0.1,26.5l-0.9-0.9l60.2,0.3l0,0c0.4,0,0.6,0.3,0.6,0.6l-0.1,21.8l-0.5-0.5l35.2,0.2l-0.4,0.4L184,49.3z"
			/>
	</g>
	<g>
		<pattern  id="SVGID_9_" xlink:href="#New_Pattern_Swatch_1" patternTransform="matrix(1 0 0 1 14.4 0)">
		</pattern>
		<path class="st11" d="M121.4,101.6v29.1H74.1c-0.3-2.6-0.4-5.3-0.4-8v-21.1H121.4z"/>
		<path class="st1" d="M121.5,101.5l0.3,29.1c0,0.2-0.2,0.4-0.4,0.4l0,0l0,0l-47.3,0.4c-0.4,0-0.7-0.3-0.8-0.7l0,0
			c-0.3-2.4-0.4-4.9-0.5-7.3l-0.1-7.3l-0.1-14.5c0-0.6,0.5-1,1-1h0c4,0,8.1,0,12.1,0.1l12,0.2l11.9,0.3L121.5,101.5z M121.3,101.7
			l-12.1,0.4l-11.9,0.3l-11.8,0.2c-3.9,0.1-7.8,0.1-11.7,0.1l1-1l-0.1,14.5l-0.1,7.3c0,2.4,0.1,4.8,0.3,7.2l-0.8-0.7l47.3,0.4
			l-0.4,0.4L121.3,101.7z"/>
	</g>
	<path class="st6" d="M148.8,75.8V198c1.7,0.1,3.3,0.2,5,0.2V75.8H148.8z"/>
	<g>
		<path class="st1" d="M212.4,50.9l0.4,33.6l0.3,33.6c0.1,11.2,0.3,22.4,0.2,33.6c-0.2,11.2-0.3,22.4-0.9,33.6c0,0.1,0,0.1-0.1,0.1
			c-0.1,0-0.1,0-0.1-0.1c-0.6-11.2-0.7-22.4-0.9-33.6c-0.1-11.2,0.1-22.4,0.2-33.6l0.3-33.6l0.4-33.6
			C212.2,50.8,212.2,50.8,212.4,50.9C212.3,50.8,212.4,50.8,212.4,50.9z"/>
	</g>
	<g>
		<path class="st1" d="M44,173.8l0.4,27.4l0.3,27.4l-0.8-0.8l13.4-0.2c4.5-0.1,8.9,0,13.4,0c4.5,0.1,8.9,0.2,13.4,0.3l6.7,0.2
			c2.2,0.1,4.5,0.2,6.7,0.4c0.1,0,0.1,0.1,0.1,0.1c0,0.1,0,0.1-0.1,0.1c-2.2,0.2-4.5,0.2-6.7,0.4l-6.7,0.2
			c-4.5,0.2-8.9,0.2-13.4,0.3c-4.5,0-8.9,0.1-13.4,0l-13.4-0.2l0,0c-0.4,0-0.8-0.4-0.8-0.8l0.3-27.4l0.4-27.4
			C43.8,173.8,43.8,173.7,44,173.8C43.9,173.8,44,173.8,44,173.8z"/>
	</g>
	<path class="st6" d="M148.8,198.2h5c-41.5-0.2-75.1-33.9-75.1-75.5V17.8h-5v104.9C73.7,164.3,107.3,198,148.8,198.2z"/>
</g>
</svg>
