<svg xmlns="http://www.w3.org/2000/svg" xmlns:xlink="http://www.w3.org/1999/xlink" id="Layer_1" x="0" y="0" enable-background="new 0 0 256 256" version="1.1" viewBox="0 0 256 256" xml:space="preserve"><style>.st0{fill:none;}
	.st1{fill:#253759;}
	.st2{clip-path:url(#SVGID_2_);fill:#253759;}
	.st3{clip-path:url(#SVGID_4_);fill:#253759;}
	.st4{fill:#A6D6FF;}
	.st5{fill:#FF9D9D;}
	.st6{fill:#FFFFFF;}
	.st7{opacity:0.3;fill:#253759;}
	.st8{fill:url(#SVGID_7_);}
	.st9{fill:url(#SVGID_8_);}
	.st10{fill:url(#SVGID_9_);}
	.st11{fill:url(#SVGID_10_);}
	.st12{fill:url(#SVGID_11_);}
	.st13{fill:#A8A7C2;}
	.st14{fill:url(#SVGID_12_);}</style><pattern id="New_Pattern_Swatch_1" width="42.9" height="43" x="-2760" y="-552" overflow="visible" patternUnits="userSpaceOnUse" viewBox="43 -43 42.9 43"><path d="M43-43H85.9V0H43z" class="st0"/><circle cx="85.9" cy="-41.2" r=".6" class="st1"/><circle cx="85.9" cy="-37.6" r=".6" class="st1"/><circle cx="85.9" cy="-34" r=".6" class="st1"/><circle cx="85.9" cy="-30.4" r=".6" class="st1"/><circle cx="85.9" cy="-26.9" r=".6" class="st1"/><circle cx="85.9" cy="-23.3" r=".6" class="st1"/><circle cx="85.9" cy="-19.7" r=".6" class="st1"/><circle cx="85.9" cy="-16.1" r=".6" class="st1"/><circle cx="85.9" cy="-12.6" r=".6" class="st1"/><circle cx="85.9" cy="-9" r=".6" class="st1"/><circle cx="85.9" cy="-5.4" r=".6" class="st1"/><circle cx="85.9" cy="-1.8" r=".6" class="st1"/><circle cx="85.8" cy="-41.2" r=".6" class="st1"/><circle cx="85.8" cy="-37.6" r=".6" class="st1"/><circle cx="85.8" cy="-34" r=".6" class="st1"/><circle cx="85.8" cy="-30.4" r=".6" class="st1"/><circle cx="85.8" cy="-26.9" r=".6" class="st1"/><circle cx="85.8" cy="-23.3" r=".6" class="st1"/><circle cx="85.8" cy="-19.7" r=".6" class="st1"/><circle cx="85.8" cy="-16.1" r=".6" class="st1"/><circle cx="85.8" cy="-12.6" r=".6" class="st1"/><circle cx="85.8" cy="-9" r=".6" class="st1"/><circle cx="85.8" cy="-5.4" r=".6" class="st1"/><circle cx="85.8" cy="-1.8" r=".6" class="st1"/><g><defs><path id="SVGID_1_" d="M85.8-43H128.8V0H85.8z"/></defs><clipPath id="SVGID_2_"><use overflow="visible" xlink:href="#SVGID_1_"/></clipPath><circle cx="85.8" cy="-41.2" r=".6" class="st2"/><circle cx="85.8" cy="-37.6" r=".6" class="st2"/><circle cx="85.8" cy="-34" r=".6" class="st2"/><circle cx="85.8" cy="-30.4" r=".6" class="st2"/><circle cx="85.8" cy="-26.9" r=".6" class="st2"/><circle cx="85.8" cy="-23.3" r=".6" class="st2"/><circle cx="85.8" cy="-19.7" r=".6" class="st2"/><circle cx="85.8" cy="-16.1" r=".6" class="st2"/><circle cx="85.8" cy="-12.6" r=".6" class="st2"/><circle cx="85.8" cy="-9" r=".6" class="st2"/><circle cx="85.8" cy="-5.4" r=".6" class="st2"/><circle cx="85.8" cy="-1.8" r=".6" class="st2"/><circle cx="85.7" cy="-41.2" r=".6" class="st2"/><circle cx="85.7" cy="-37.6" r=".6" class="st2"/><circle cx="85.7" cy="-34" r=".6" class="st2"/><circle cx="85.7" cy="-30.4" r=".6" class="st2"/><circle cx="85.7" cy="-26.9" r=".6" class="st2"/><circle cx="85.7" cy="-23.3" r=".6" class="st2"/><circle cx="85.7" cy="-19.7" r=".6" class="st2"/><circle cx="85.7" cy="-16.1" r=".6" class="st2"/><circle cx="85.7" cy="-12.6" r=".6" class="st2"/><circle cx="85.7" cy="-9" r=".6" class="st2"/><circle cx="85.7" cy="-5.4" r=".6" class="st2"/><circle cx="85.7" cy="-1.8" r=".6" class="st2"/></g><g><circle cx="85.9" cy="-41.2" r=".6" class="st1"/><circle cx="85.9" cy="-37.6" r=".6" class="st1"/><circle cx="85.9" cy="-34" r=".6" class="st1"/><circle cx="85.9" cy="-30.4" r=".6" class="st1"/><circle cx="85.9" cy="-26.9" r=".6" class="st1"/><circle cx="85.9" cy="-23.3" r=".6" class="st1"/><circle cx="85.9" cy="-19.7" r=".6" class="st1"/><circle cx="85.9" cy="-16.1" r=".6" class="st1"/><circle cx="85.9" cy="-12.6" r=".6" class="st1"/><circle cx="85.9" cy="-9" r=".6" class="st1"/><circle cx="85.9" cy="-5.4" r=".6" class="st1"/><circle cx="85.9" cy="-1.8" r=".6" class="st1"/><circle cx="43" cy="-41.2" r=".6" class="st1"/><circle cx="46.5" cy="-41.2" r=".6" class="st1"/><circle cx="50.1" cy="-41.2" r=".6" class="st1"/><circle cx="53.7" cy="-41.2" r=".6" class="st1"/><circle cx="43" cy="-37.6" r=".6" class="st1"/><circle cx="46.5" cy="-37.6" r=".6" class="st1"/><circle cx="50.1" cy="-37.6" r=".6" class="st1"/><circle cx="53.7" cy="-37.6" r=".6" class="st1"/><circle cx="43" cy="-34" r=".6" class="st1"/><circle cx="46.5" cy="-34" r=".6" class="st1"/><circle cx="50.1" cy="-34" r=".6" class="st1"/><circle cx="53.7" cy="-34" r=".6" class="st1"/><circle cx="43" cy="-30.4" r=".6" class="st1"/><circle cx="46.5" cy="-30.4" r=".6" class="st1"/><circle cx="50.1" cy="-30.4" r=".6" class="st1"/><circle cx="53.7" cy="-30.4" r=".6" class="st1"/><circle cx="43" cy="-26.9" r=".6" class="st1"/><circle cx="46.5" cy="-26.9" r=".6" class="st1"/><circle cx="50.1" cy="-26.9" r=".6" class="st1"/><circle cx="53.7" cy="-26.9" r=".6" class="st1"/><circle cx="43" cy="-23.3" r=".6" class="st1"/><circle cx="46.5" cy="-23.3" r=".6" class="st1"/><circle cx="50.1" cy="-23.3" r=".6" class="st1"/><circle cx="53.7" cy="-23.3" r=".6" class="st1"/><circle cx="57.3" cy="-41.2" r=".6" class="st1"/><circle cx="60.8" cy="-41.2" r=".6" class="st1"/><circle cx="64.4" cy="-41.2" r=".6" class="st1"/><circle cx="68" cy="-41.2" r=".6" class="st1"/><circle cx="71.5" cy="-41.2" r=".6" class="st1"/><circle cx="57.3" cy="-37.6" r=".6" class="st1"/><circle cx="60.8" cy="-37.6" r=".6" class="st1"/><circle cx="64.4" cy="-37.6" r=".6" class="st1"/><circle cx="68" cy="-37.6" r=".6" class="st1"/><circle cx="71.5" cy="-37.6" r=".6" class="st1"/><circle cx="57.3" cy="-34" r=".6" class="st1"/><circle cx="60.8" cy="-34" r=".6" class="st1"/><circle cx="64.4" cy="-34" r=".6" class="st1"/><circle cx="68" cy="-34" r=".6" class="st1"/><circle cx="71.5" cy="-34" r=".6" class="st1"/><circle cx="57.3" cy="-30.4" r=".6" class="st1"/><circle cx="60.8" cy="-30.4" r=".6" class="st1"/><circle cx="64.4" cy="-30.4" r=".6" class="st1"/><circle cx="68" cy="-30.4" r=".6" class="st1"/><circle cx="71.5" cy="-30.4" r=".6" class="st1"/><circle cx="57.3" cy="-26.9" r=".6" class="st1"/><circle cx="60.8" cy="-26.9" r=".6" class="st1"/><circle cx="64.4" cy="-26.9" r=".6" class="st1"/><circle cx="68" cy="-26.9" r=".6" class="st1"/><circle cx="71.5" cy="-26.9" r=".6" class="st1"/><circle cx="57.3" cy="-23.3" r=".6" class="st1"/><circle cx="60.8" cy="-23.3" r=".6" class="st1"/><circle cx="64.4" cy="-23.3" r=".6" class="st1"/><circle cx="68" cy="-23.3" r=".6" class="st1"/><circle cx="71.5" cy="-23.3" r=".6" class="st1"/><circle cx="75.1" cy="-41.2" r=".6" class="st1"/><circle cx="78.7" cy="-41.2" r=".6" class="st1"/><circle cx="82.3" cy="-41.2" r=".6" class="st1"/><circle cx="85.8" cy="-41.2" r=".6" class="st1"/><circle cx="75.1" cy="-37.6" r=".6" class="st1"/><circle cx="78.7" cy="-37.6" r=".6" class="st1"/><circle cx="82.3" cy="-37.6" r=".6" class="st1"/><circle cx="85.8" cy="-37.6" r=".6" class="st1"/><circle cx="75.1" cy="-34" r=".6" class="st1"/><circle cx="78.7" cy="-34" r=".6" class="st1"/><circle cx="82.3" cy="-34" r=".6" class="st1"/><circle cx="85.8" cy="-34" r=".6" class="st1"/><circle cx="75.1" cy="-30.4" r=".6" class="st1"/><circle cx="78.7" cy="-30.4" r=".6" class="st1"/><circle cx="82.3" cy="-30.4" r=".6" class="st1"/><circle cx="85.8" cy="-30.4" r=".6" class="st1"/><circle cx="75.1" cy="-26.9" r=".6" class="st1"/><circle cx="78.7" cy="-26.9" r=".6" class="st1"/><circle cx="82.3" cy="-26.9" r=".6" class="st1"/><circle cx="85.8" cy="-26.9" r=".6" class="st1"/><circle cx="75.1" cy="-23.3" r=".6" class="st1"/><circle cx="78.7" cy="-23.3" r=".6" class="st1"/><circle cx="82.3" cy="-23.3" r=".6" class="st1"/><circle cx="85.8" cy="-23.3" r=".6" class="st1"/><circle cx="43" cy="-19.7" r=".6" class="st1"/><circle cx="46.5" cy="-19.7" r=".6" class="st1"/><circle cx="50.1" cy="-19.7" r=".6" class="st1"/><circle cx="53.7" cy="-19.7" r=".6" class="st1"/><circle cx="43" cy="-16.1" r=".6" class="st1"/><circle cx="46.5" cy="-16.1" r=".6" class="st1"/><circle cx="50.1" cy="-16.1" r=".6" class="st1"/><circle cx="53.7" cy="-16.1" r=".6" class="st1"/><circle cx="43" cy="-12.6" r=".6" class="st1"/><circle cx="46.5" cy="-12.6" r=".6" class="st1"/><circle cx="50.1" cy="-12.6" r=".6" class="st1"/><circle cx="53.7" cy="-12.6" r=".6" class="st1"/><circle cx="43" cy="-9" r=".6" class="st1"/><circle cx="46.5" cy="-9" r=".6" class="st1"/><circle cx="50.1" cy="-9" r=".6" class="st1"/><circle cx="53.7" cy="-9" r=".6" class="st1"/><circle cx="43" cy="-5.4" r=".6" class="st1"/><circle cx="46.5" cy="-5.4" r=".6" class="st1"/><circle cx="50.1" cy="-5.4" r=".6" class="st1"/><circle cx="53.7" cy="-5.4" r=".6" class="st1"/><circle cx="43" cy="-1.8" r=".6" class="st1"/><circle cx="46.5" cy="-1.8" r=".6" class="st1"/><circle cx="50.1" cy="-1.8" r=".6" class="st1"/><circle cx="53.7" cy="-1.8" r=".6" class="st1"/><circle cx="57.3" cy="-19.7" r=".6" class="st1"/><circle cx="60.8" cy="-19.7" r=".6" class="st1"/><circle cx="64.4" cy="-19.7" r=".6" class="st1"/><circle cx="68" cy="-19.7" r=".6" class="st1"/><circle cx="71.5" cy="-19.7" r=".6" class="st1"/><circle cx="57.3" cy="-16.1" r=".6" class="st1"/><circle cx="60.8" cy="-16.1" r=".6" class="st1"/><circle cx="64.4" cy="-16.1" r=".6" class="st1"/><circle cx="68" cy="-16.1" r=".6" class="st1"/><circle cx="71.5" cy="-16.1" r=".6" class="st1"/><circle cx="57.3" cy="-12.6" r=".6" class="st1"/><circle cx="60.8" cy="-12.6" r=".6" class="st1"/><circle cx="64.4" cy="-12.6" r=".6" class="st1"/><circle cx="68" cy="-12.6" r=".6" class="st1"/><circle cx="71.5" cy="-12.6" r=".6" class="st1"/><circle cx="57.3" cy="-9" r=".6" class="st1"/><circle cx="60.8" cy="-9" r=".6" class="st1"/><circle cx="64.4" cy="-9" r=".6" class="st1"/><circle cx="68" cy="-9" r=".6" class="st1"/><circle cx="71.5" cy="-9" r=".6" class="st1"/><circle cx="57.3" cy="-5.4" r=".6" class="st1"/><circle cx="60.8" cy="-5.4" r=".6" class="st1"/><circle cx="64.4" cy="-5.4" r=".6" class="st1"/><circle cx="68" cy="-5.4" r=".6" class="st1"/><circle cx="71.5" cy="-5.4" r=".6" class="st1"/><circle cx="57.3" cy="-1.8" r=".6" class="st1"/><circle cx="60.8" cy="-1.8" r=".6" class="st1"/><circle cx="64.4" cy="-1.8" r=".6" class="st1"/><circle cx="68" cy="-1.8" r=".6" class="st1"/><circle cx="71.5" cy="-1.8" r=".6" class="st1"/><circle cx="75.1" cy="-19.7" r=".6" class="st1"/><circle cx="78.7" cy="-19.7" r=".6" class="st1"/><circle cx="82.3" cy="-19.7" r=".6" class="st1"/><circle cx="85.8" cy="-19.7" r=".6" class="st1"/><circle cx="75.1" cy="-16.1" r=".6" class="st1"/><circle cx="78.7" cy="-16.1" r=".6" class="st1"/><circle cx="82.3" cy="-16.1" r=".6" class="st1"/><circle cx="85.8" cy="-16.1" r=".6" class="st1"/><circle cx="75.1" cy="-12.6" r=".6" class="st1"/><circle cx="78.7" cy="-12.6" r=".6" class="st1"/><circle cx="82.3" cy="-12.6" r=".6" class="st1"/><circle cx="85.8" cy="-12.6" r=".6" class="st1"/><circle cx="75.1" cy="-9" r=".6" class="st1"/><circle cx="78.7" cy="-9" r=".6" class="st1"/><circle cx="82.3" cy="-9" r=".6" class="st1"/><circle cx="85.8" cy="-9" r=".6" class="st1"/><circle cx="75.1" cy="-5.4" r=".6" class="st1"/><circle cx="78.7" cy="-5.4" r=".6" class="st1"/><circle cx="82.3" cy="-5.4" r=".6" class="st1"/><circle cx="85.8" cy="-5.4" r=".6" class="st1"/><circle cx="75.1" cy="-1.8" r=".6" class="st1"/><circle cx="78.7" cy="-1.8" r=".6" class="st1"/><circle cx="82.3" cy="-1.8" r=".6" class="st1"/><circle cx="85.8" cy="-1.8" r=".6" class="st1"/><circle cx="42.9" cy="-41.2" r=".6" class="st1"/><circle cx="42.9" cy="-37.6" r=".6" class="st1"/><circle cx="42.9" cy="-34" r=".6" class="st1"/><circle cx="42.9" cy="-30.4" r=".6" class="st1"/><circle cx="42.9" cy="-26.9" r=".6" class="st1"/><circle cx="42.9" cy="-23.3" r=".6" class="st1"/><circle cx="42.9" cy="-19.7" r=".6" class="st1"/><circle cx="42.9" cy="-16.1" r=".6" class="st1"/><circle cx="42.9" cy="-12.6" r=".6" class="st1"/><circle cx="42.9" cy="-9" r=".6" class="st1"/><circle cx="42.9" cy="-5.4" r=".6" class="st1"/><circle cx="42.9" cy="-1.8" r=".6" class="st1"/><g><defs><path id="SVGID_3_" d="M42.9-43H85.9V0H42.9z"/></defs><clipPath id="SVGID_4_"><use overflow="visible" xlink:href="#SVGID_3_"/></clipPath><circle cx="42.9" cy="-41.2" r=".6" class="st3"/><circle cx="42.9" cy="-37.6" r=".6" class="st3"/><circle cx="42.9" cy="-34" r=".6" class="st3"/><circle cx="42.9" cy="-30.4" r=".6" class="st3"/><circle cx="42.9" cy="-26.9" r=".6" class="st3"/><circle cx="42.9" cy="-23.3" r=".6" class="st3"/><circle cx="42.9" cy="-19.7" r=".6" class="st3"/><circle cx="42.9" cy="-16.1" r=".6" class="st3"/><circle cx="42.9" cy="-12.6" r=".6" class="st3"/><circle cx="42.9" cy="-9" r=".6" class="st3"/><circle cx="42.9" cy="-5.4" r=".6" class="st3"/><circle cx="42.9" cy="-1.8" r=".6" class="st3"/><circle cx="42.8" cy="-41.2" r=".6" class="st3"/><circle cx="42.8" cy="-37.6" r=".6" class="st3"/><circle cx="42.8" cy="-34" r=".6" class="st3"/><circle cx="42.8" cy="-30.4" r=".6" class="st3"/><circle cx="42.8" cy="-26.9" r=".6" class="st3"/><circle cx="42.8" cy="-23.3" r=".6" class="st3"/><circle cx="42.8" cy="-19.7" r=".6" class="st3"/><circle cx="42.8" cy="-16.1" r=".6" class="st3"/><circle cx="42.8" cy="-12.6" r=".6" class="st3"/><circle cx="42.8" cy="-9" r=".6" class="st3"/><circle cx="42.8" cy="-5.4" r=".6" class="st3"/><circle cx="42.8" cy="-1.8" r=".6" class="st3"/></g></g><g><circle cx="43" cy="-41.2" r=".6" class="st1"/><circle cx="43" cy="-37.6" r=".6" class="st1"/><circle cx="43" cy="-34" r=".6" class="st1"/><circle cx="43" cy="-30.4" r=".6" class="st1"/><circle cx="43" cy="-26.9" r=".6" class="st1"/><circle cx="43" cy="-23.3" r=".6" class="st1"/><circle cx="43" cy="-19.7" r=".6" class="st1"/><circle cx="43" cy="-16.1" r=".6" class="st1"/><circle cx="43" cy="-12.6" r=".6" class="st1"/><circle cx="43" cy="-9" r=".6" class="st1"/><circle cx="43" cy="-5.4" r=".6" class="st1"/><circle cx="43" cy="-1.8" r=".6" class="st1"/><circle cx="42.9" cy="-41.2" r=".6" class="st1"/><circle cx="42.9" cy="-37.6" r=".6" class="st1"/><circle cx="42.9" cy="-34" r=".6" class="st1"/><circle cx="42.9" cy="-30.4" r=".6" class="st1"/><circle cx="42.9" cy="-26.9" r=".6" class="st1"/><circle cx="42.9" cy="-23.3" r=".6" class="st1"/><circle cx="42.9" cy="-19.7" r=".6" class="st1"/><circle cx="42.9" cy="-16.1" r=".6" class="st1"/><circle cx="42.9" cy="-12.6" r=".6" class="st1"/><circle cx="42.9" cy="-9" r=".6" class="st1"/><circle cx="42.9" cy="-5.4" r=".6" class="st1"/><circle cx="42.9" cy="-1.8" r=".6" class="st1"/><g><defs><path id="SVGID_5_" d="M0-43H43V0H0z"/></defs><clipPath id="SVGID_6_"><use overflow="visible" xlink:href="#SVGID_5_"/></clipPath></g></g></pattern><path d="M231 32.4 231 248.4 25 248.4 25 7.6 195.5 7.6z" class="st4"/><path d="M231.9 32v216.5c0 .5-.4.9-.9.9l-206-.1c-.4 0-.8-.3-.8-.8L24 7.6c0-.5.4-1 1-1h170.4c.2 0 .4.1.5.2l36 25.2zm-1.8.9L194.9 8.3l.5.2H25l1-1-.2 240.9-.8-.8 206-.1-.9.9V32.9z" class="st1"/><path d="M49.9 112.3H206.20000000000002V248.39999999999998H49.9z" class="st5"/><path d="m206.4 248.7-156.5.3c-.3 0-.5-.2-.5-.5l-.3-136.1c0-.4.4-.8.8-.8l78.1-.1 39.1-.1c13 0 26-.1 39.1 0 .5 0 1 .4 1 1l-.8 136.3zm-.5-.5-.7-135.9 1 1c-13 .1-26 0-39.1 0l-39.1-.1-78.1-.1.8-.8-.3 136.1-.5-.5 156 .3z" class="st1"/><path d="M56.8 119.2H199.2V248.39999999999998H56.8z" class="st6"/><path d="m56.5 248.8-.2-129.5c0-.3.2-.5.5-.5l142.4-.3c.4 0 .8.4.8.8l-.3 129.2c0 .3-.2.5-.5.5l-71.3-.2H56.5zm.6-.7h71l71.1-.2-.5.5-.3-129.2.8.8-142.4-.3.5-.5-.2 128.9z" class="st1"/><path d="M60.6 7.6H195.5V78.69999999999999H60.6z" class="st6"/><path d="M195.9 7.1c.1 23.9 0 47.8-.1 71.6 0 .2-.2.4-.4.4l-134.8.4c-.4 0-.8-.4-.8-.8l-.3-71.1c0-.6.5-1 1-1 22.6 0 45.2.1 67.8.2l67.6.3zm-.9.9-67.3.4c-22.4.1-44.7.2-67.1.2l1-1-.2 71.1-.8-.8 134.9.4-.4.4c-.1-23.6-.2-47.2-.1-70.7z" class="st1"/><path d="M60.6 78.7H195.5V83.7H60.6z" class="st7"/><circle cx="37.3" cy="235.8" r="5.8" class="st4"/><circle cx="37.3" cy="20.2" r="5.8" class="st4"/><circle cx="218.6" cy="235.8" r="5.8" class="st4"/><path d="M156.7 17.6H180.2V68.7H156.7z" class="st4"/><path d="M69.6 187.1H186.5V201.6H69.6z" class="st4"/><path d="M69.6 215.5H186.5V230H69.6z" class="st4"/><pattern id="SVGID_7_" patternTransform="translate(14.4 -2.5)" xlink:href="#New_Pattern_Swatch_1"/><circle cx="37.3" cy="235.8" r="5.8" class="st8"/><path d="M42.9 235.8c.1-1.5-.6-3-1.7-3.9-1.1-1-2.6-1.4-3.9-1.3-1.4 0-2.7.7-3.6 1.7-.9 1-1.4 2.3-1.4 3.6.1 1.3.6 2.6 1.6 3.4.9.9 2.1 1.3 3.4 1.4 1.2 0 2.6-.2 3.7-1.1 1.1-.9 1.9-2.3 1.9-3.8zm.2 0c0 1.5-.4 3.1-1.4 4.5-.5.7-1.2 1.2-1.9 1.6-.8.4-1.6.6-2.5.7-1.8.1-3.6-.7-4.8-2-1.2-1.3-1.9-3.1-1.8-4.8 0-1.7.8-3.4 2-4.6 1.2-1.2 2.9-1.8 4.6-1.7 1.6.1 3.2.8 4.2 2s1.6 2.7 1.6 4.3z" class="st1"/><pattern id="SVGID_8_" patternTransform="translate(14.4 2.5)" xlink:href="#New_Pattern_Swatch_1"/><circle cx="37.3" cy="20.2" r="5.8" class="st9"/><path d="M42.9 20.2c.1-1.5-.6-3-1.7-3.9-1.1-1-2.6-1.4-3.9-1.3-1.4 0-2.7.7-3.6 1.7-.9 1-1.4 2.3-1.4 3.6.1 1.3.6 2.6 1.6 3.4.9.9 2.1 1.3 3.4 1.4 1.2 0 2.6-.2 3.7-1.1 1.1-.8 1.9-2.3 1.9-3.8zm.2 0c0 1.5-.4 3.1-1.4 4.5-.5.7-1.2 1.2-1.9 1.6-.8.5-1.7.7-2.5.7-1.8.1-3.6-.7-4.8-2-1.2-1.3-1.9-3.1-1.8-4.8 0-1.7.8-3.4 2-4.6 1.2-1.2 2.9-1.8 4.6-1.7 1.6.1 3.2.8 4.2 2 1 1.3 1.6 2.8 1.6 4.3z" class="st1"/><pattern id="SVGID_9_" patternTransform="translate(14.4 -2.5)" xlink:href="#New_Pattern_Swatch_1"/><circle cx="218.6" cy="235.8" r="5.8" class="st10"/><path d="M224.3 235.8c.1-1.5-.6-3-1.7-3.9-1.1-1-2.6-1.4-3.9-1.3-1.4 0-2.7.7-3.6 1.7-.9 1-1.4 2.3-1.4 3.6.1 1.3.6 2.6 1.6 3.4.9.9 2.1 1.3 3.4 1.4 1.2 0 2.6-.2 3.7-1.1 1.1-.9 1.9-2.3 1.9-3.8zm.2 0c0 1.5-.4 3.1-1.4 4.5-.5.7-1.2 1.2-1.9 1.6-.8.4-1.6.6-2.5.7-1.8.1-3.6-.7-4.8-2-1.2-1.3-1.9-3.1-1.8-4.8 0-1.7.8-3.4 2-4.6 1.2-1.2 2.9-1.8 4.6-1.7 1.6.1 3.2.8 4.2 2s1.6 2.7 1.6 4.3z" class="st1"/><g><pattern id="SVGID_10_" patternTransform="translate(14.4 2.5)" xlink:href="#New_Pattern_Swatch_1"/><path d="M156.7 17.6H180.2V68.7H156.7z" class="st11"/><path d="m180.3 68.8-23.6.2c-.2 0-.3-.2-.4-.3l-.4-51.1c0-.4.3-.8.8-.8 3.9-.1 7.8-.2 11.7-.2 3.9 0 7.8-.1 11.7-.1.6 0 1 .5 1 1.1l-.1 13v12.8l-.3 12.8c-.1 4.2-.3 8.4-.4 12.6zm-.1-.2-.4-13c-.1-4.3-.2-8.6-.3-12.8l-.2-12.6-.1-12.6 1.1 1.1c-3.9 0-7.8 0-11.7-.1-3.9 0-7.8-.1-11.7-.2l.8-.8-.4 51.1-.4-.4 23.3.3z" class="st1"/></g><g><path d="m93 68.8-23.5.5c-.3 0-.6-.2-.6-.6l-.4-25.6c0-4.3 0-8.5.2-12.8.2-4.3.4-8.5.7-12.8 0-.1.1-.1.1-.1s.1 0 .1.1c.4 4.3.6 8.5.7 12.8.1 4.3.2 8.5.2 12.8l-.4 25.6-.6-.6 23.5.5c.1 0 .1 0 0 .2.1-.1.1 0 0 0z" class="st1"/></g><g><pattern id="SVGID_11_" patternTransform="translate(14.4 -2.5)" xlink:href="#New_Pattern_Swatch_1"/><path d="M69.6 187.1H186.5V201.6H69.6z" class="st12"/><path d="m186.8 202-58.6.1-29.3.1-29.3.2c-.4 0-.7-.3-.7-.7l-.1-14.5c0-.4.4-.8.8-.8 9.7-.1 19.5-.2 29.2-.2 9.7-.1 19.5 0 29.2 0s19.5.1 29.2.1l14.6.2 14.6.3c.2 0 .4.2.4.4.1 4.9.1 9.9 0 14.8zm-.7-.7c-.1-4.7-.1-9.4 0-14.1l.4.4-14.6.3-14.6.2c-9.7 0-19.5.2-29.2.1H98.9c-9.7 0-19.5-.1-29.2-.2l.8-.8-.1 14.5-.7-.7 29.1.2 29.1.1h58.2z" class="st1"/></g><g><path d="M69.6 158.8H186.5V173.3H69.6z" class="st13"/><path d="m186.8 173.7-58.6.1-29.3.1-29.3.2c-.4 0-.7-.3-.7-.7l-.1-14.5c0-.4.4-.8.8-.8 9.7-.1 19.5-.2 29.2-.2 9.7-.1 19.5 0 29.2 0s19.5.1 29.2.1l14.6.2 14.6.3c.2 0 .4.2.4.4.1 4.9.1 9.9 0 14.8zm-.7-.7c-.1-4.7-.1-9.4 0-14.1l.4.4-14.6.3-14.6.2c-9.7 0-19.5.2-29.2.1H98.9c-9.7 0-19.5-.1-29.2-.2l.8-.8-.1 14.5-.7-.7 29.1.2 29.1.1h58.2z" class="st1"/></g><g><pattern id="SVGID_12_" patternTransform="translate(14.4 -2.5)" xlink:href="#New_Pattern_Swatch_1"/><path d="M69.6 215.5H186.5V230H69.6z" class="st14"/><path d="m186.8 230.4-58.7.1-29.3.1-29.3.2c-.4 0-.7-.3-.7-.7l-.1-14.5c0-.4.4-.8.8-.8 9.7-.1 19.5-.2 29.2-.2 9.7-.1 19.5 0 29.2 0s19.5.1 29.2.1l14.6.2 14.6.3c.2 0 .4.2.4.4.2 4.8.2 9.8.1 14.8zm-.7-.8c-.1-4.7-.1-9.4 0-14.1l.4.4-14.6.3-14.6.2c-9.7 0-19.5.2-29.2.1H98.9c-9.7 0-19.5-.1-29.2-.2l.8-.8-.2 14.5-.7-.7 29.1.2 29.1.1h58.3z" class="st1"/></g><path d="M69.6 201.7H186.5V206.7H69.6z" class="st7"/><path d="M69.6 173.3H186.5V178.3H69.6z" class="st7"/><path d="M69.6 230H186.5V235H69.6z" class="st7"/></svg>