<?xml version="1.0" encoding="utf-8"?>
<!-- Generator: Adobe Illustrator 22.1.0, SVG Export Plug-In . SVG Version: 6.00 Build 0)  -->
<svg version="1.1" id="Layer_1" xmlns="http://www.w3.org/2000/svg" xmlns:xlink="http://www.w3.org/1999/xlink" x="0px" y="0px"
	 viewBox="0 0 256 256" style="enable-background:new 0 0 256 256;" xml:space="preserve">
<style type="text/css">
	.st0{fill:none;}
	.st1{fill:#253759;}
	.st2{clip-path:url(#SVGID_2_);fill:#253759;}
	.st3{clip-path:url(#SVGID_4_);fill:#253759;}
	.st4{fill:#FFFFFF;}
	.st5{fill:#A6D6FF;}
	.st6{fill:url(#SVGID_7_);}
	.st7{fill:url(#SVGID_8_);}
	.st8{fill:url(#SVGID_9_);}
	.st9{fill:url(#SVGID_10_);}
	.st10{fill:url(#SVGID_11_);}
	.st11{fill:url(#SVGID_12_);}
	.st12{fill:url(#SVGID_13_);}
	.st13{fill:url(#SVGID_14_);}
	.st14{fill:none;stroke:#253759;stroke-width:2;stroke-linecap:round;stroke-linejoin:round;stroke-miterlimit:10;}
	.st15{fill:url(#SVGID_15_);}
	.st16{opacity:0.3;fill:#253759;}
</style>
<pattern  x="-1656" width="42.9" height="43" patternUnits="userSpaceOnUse" id="New_Pattern_Swatch_1" viewBox="43 -43 42.9 43" style="overflow:visible;">
	<g>
		<rect x="43" y="-43" class="st0" width="42.9" height="43"/>
		<g>
			<g>
				<circle class="st1" cx="85.9" cy="-41.2" r="0.6"/>
				<circle class="st1" cx="85.9" cy="-37.6" r="0.6"/>
				<circle class="st1" cx="85.9" cy="-34" r="0.6"/>
				<circle class="st1" cx="85.9" cy="-30.4" r="0.6"/>
				<circle class="st1" cx="85.9" cy="-26.9" r="0.6"/>
				<circle class="st1" cx="85.9" cy="-23.3" r="0.6"/>
				<circle class="st1" cx="85.9" cy="-19.7" r="0.6"/>
				<circle class="st1" cx="85.9" cy="-16.1" r="0.6"/>
				<circle class="st1" cx="85.9" cy="-12.6" r="0.6"/>
				<circle class="st1" cx="85.9" cy="-9" r="0.6"/>
				<circle class="st1" cx="85.9" cy="-5.4" r="0.6"/>
				<circle class="st1" cx="85.9" cy="-1.8" r="0.6"/>
				<circle class="st1" cx="85.8" cy="-41.2" r="0.6"/>
				<circle class="st1" cx="85.8" cy="-37.6" r="0.6"/>
				<circle class="st1" cx="85.8" cy="-34" r="0.6"/>
				<circle class="st1" cx="85.8" cy="-30.4" r="0.6"/>
				<circle class="st1" cx="85.8" cy="-26.9" r="0.6"/>
				<circle class="st1" cx="85.8" cy="-23.3" r="0.6"/>
				<circle class="st1" cx="85.8" cy="-19.7" r="0.6"/>
				<circle class="st1" cx="85.8" cy="-16.1" r="0.6"/>
				<circle class="st1" cx="85.8" cy="-12.6" r="0.6"/>
				<circle class="st1" cx="85.8" cy="-9" r="0.6"/>
				<circle class="st1" cx="85.8" cy="-5.4" r="0.6"/>
				<circle class="st1" cx="85.8" cy="-1.8" r="0.6"/>
			</g>
			<g>
				<defs>
					<rect id="SVGID_1_" x="85.8" y="-43" width="43" height="43"/>
				</defs>
				<clipPath id="SVGID_2_">
					<use xlink:href="#SVGID_1_"  style="overflow:visible;"/>
				</clipPath>
				<circle class="st2" cx="85.8" cy="-41.2" r="0.6"/>
				<circle class="st2" cx="85.8" cy="-37.6" r="0.6"/>
				<circle class="st2" cx="85.8" cy="-34" r="0.6"/>
				<circle class="st2" cx="85.8" cy="-30.4" r="0.6"/>
				<circle class="st2" cx="85.8" cy="-26.9" r="0.6"/>
				<circle class="st2" cx="85.8" cy="-23.3" r="0.6"/>
				<circle class="st2" cx="85.8" cy="-19.7" r="0.6"/>
				<circle class="st2" cx="85.8" cy="-16.1" r="0.6"/>
				<circle class="st2" cx="85.8" cy="-12.6" r="0.6"/>
				<circle class="st2" cx="85.8" cy="-9" r="0.6"/>
				<circle class="st2" cx="85.8" cy="-5.4" r="0.6"/>
				<circle class="st2" cx="85.8" cy="-1.8" r="0.6"/>
				<circle class="st2" cx="85.7" cy="-41.2" r="0.6"/>
				<circle class="st2" cx="85.7" cy="-37.6" r="0.6"/>
				<circle class="st2" cx="85.7" cy="-34" r="0.6"/>
				<circle class="st2" cx="85.7" cy="-30.4" r="0.6"/>
				<circle class="st2" cx="85.7" cy="-26.9" r="0.6"/>
				<circle class="st2" cx="85.7" cy="-23.3" r="0.6"/>
				<circle class="st2" cx="85.7" cy="-19.7" r="0.6"/>
				<circle class="st2" cx="85.7" cy="-16.1" r="0.6"/>
				<circle class="st2" cx="85.7" cy="-12.6" r="0.6"/>
				<circle class="st2" cx="85.7" cy="-9" r="0.6"/>
				<circle class="st2" cx="85.7" cy="-5.4" r="0.6"/>
				<circle class="st2" cx="85.7" cy="-1.8" r="0.6"/>
			</g>
		</g>
		<g>
			<g>
				<circle class="st1" cx="85.9" cy="-41.2" r="0.6"/>
				<circle class="st1" cx="85.9" cy="-37.6" r="0.6"/>
				<circle class="st1" cx="85.9" cy="-34" r="0.6"/>
				<circle class="st1" cx="85.9" cy="-30.4" r="0.6"/>
				<circle class="st1" cx="85.9" cy="-26.9" r="0.6"/>
				<circle class="st1" cx="85.9" cy="-23.3" r="0.6"/>
				<circle class="st1" cx="85.9" cy="-19.7" r="0.6"/>
				<circle class="st1" cx="85.9" cy="-16.1" r="0.6"/>
				<circle class="st1" cx="85.9" cy="-12.6" r="0.6"/>
				<circle class="st1" cx="85.9" cy="-9" r="0.6"/>
				<circle class="st1" cx="85.9" cy="-5.4" r="0.6"/>
				<circle class="st1" cx="85.9" cy="-1.8" r="0.6"/>
				<circle class="st1" cx="43" cy="-41.2" r="0.6"/>
				<circle class="st1" cx="46.5" cy="-41.2" r="0.6"/>
				<circle class="st1" cx="50.1" cy="-41.2" r="0.6"/>
				<circle class="st1" cx="53.7" cy="-41.2" r="0.6"/>
				<circle class="st1" cx="43" cy="-37.6" r="0.6"/>
				<circle class="st1" cx="46.5" cy="-37.6" r="0.6"/>
				<circle class="st1" cx="50.1" cy="-37.6" r="0.6"/>
				<circle class="st1" cx="53.7" cy="-37.6" r="0.6"/>
				<circle class="st1" cx="43" cy="-34" r="0.6"/>
				<circle class="st1" cx="46.5" cy="-34" r="0.6"/>
				<circle class="st1" cx="50.1" cy="-34" r="0.6"/>
				<circle class="st1" cx="53.7" cy="-34" r="0.6"/>
				<circle class="st1" cx="43" cy="-30.4" r="0.6"/>
				<circle class="st1" cx="46.5" cy="-30.4" r="0.6"/>
				<circle class="st1" cx="50.1" cy="-30.4" r="0.6"/>
				<circle class="st1" cx="53.7" cy="-30.4" r="0.6"/>
				<circle class="st1" cx="43" cy="-26.9" r="0.6"/>
				<circle class="st1" cx="46.5" cy="-26.9" r="0.6"/>
				<circle class="st1" cx="50.1" cy="-26.9" r="0.6"/>
				<circle class="st1" cx="53.7" cy="-26.9" r="0.6"/>
				<circle class="st1" cx="43" cy="-23.3" r="0.6"/>
				<circle class="st1" cx="46.5" cy="-23.3" r="0.6"/>
				<circle class="st1" cx="50.1" cy="-23.3" r="0.6"/>
				<circle class="st1" cx="53.7" cy="-23.3" r="0.6"/>
				<circle class="st1" cx="57.3" cy="-41.2" r="0.6"/>
				<circle class="st1" cx="60.8" cy="-41.2" r="0.6"/>
				<circle class="st1" cx="64.4" cy="-41.2" r="0.6"/>
				<circle class="st1" cx="68" cy="-41.2" r="0.6"/>
				<circle class="st1" cx="71.5" cy="-41.2" r="0.6"/>
				<circle class="st1" cx="57.3" cy="-37.6" r="0.6"/>
				<circle class="st1" cx="60.8" cy="-37.6" r="0.6"/>
				<circle class="st1" cx="64.4" cy="-37.6" r="0.6"/>
				<circle class="st1" cx="68" cy="-37.6" r="0.6"/>
				<circle class="st1" cx="71.5" cy="-37.6" r="0.6"/>
				<circle class="st1" cx="57.3" cy="-34" r="0.6"/>
				<circle class="st1" cx="60.8" cy="-34" r="0.6"/>
				<circle class="st1" cx="64.4" cy="-34" r="0.6"/>
				<circle class="st1" cx="68" cy="-34" r="0.6"/>
				<circle class="st1" cx="71.5" cy="-34" r="0.6"/>
				<circle class="st1" cx="57.3" cy="-30.4" r="0.6"/>
				<circle class="st1" cx="60.8" cy="-30.4" r="0.6"/>
				<circle class="st1" cx="64.4" cy="-30.4" r="0.6"/>
				<circle class="st1" cx="68" cy="-30.4" r="0.6"/>
				<circle class="st1" cx="71.5" cy="-30.4" r="0.6"/>
				<circle class="st1" cx="57.3" cy="-26.9" r="0.6"/>
				<circle class="st1" cx="60.8" cy="-26.9" r="0.6"/>
				<circle class="st1" cx="64.4" cy="-26.9" r="0.6"/>
				<circle class="st1" cx="68" cy="-26.9" r="0.6"/>
				<circle class="st1" cx="71.5" cy="-26.9" r="0.6"/>
				<circle class="st1" cx="57.3" cy="-23.3" r="0.6"/>
				<circle class="st1" cx="60.8" cy="-23.3" r="0.6"/>
				<circle class="st1" cx="64.4" cy="-23.3" r="0.6"/>
				<circle class="st1" cx="68" cy="-23.3" r="0.6"/>
				<circle class="st1" cx="71.5" cy="-23.3" r="0.6"/>
				<circle class="st1" cx="75.1" cy="-41.2" r="0.6"/>
				<circle class="st1" cx="78.7" cy="-41.2" r="0.6"/>
				<circle class="st1" cx="82.3" cy="-41.2" r="0.6"/>
				<circle class="st1" cx="85.8" cy="-41.2" r="0.6"/>
				<circle class="st1" cx="75.1" cy="-37.6" r="0.6"/>
				<circle class="st1" cx="78.7" cy="-37.6" r="0.6"/>
				<circle class="st1" cx="82.3" cy="-37.6" r="0.6"/>
				<circle class="st1" cx="85.8" cy="-37.6" r="0.6"/>
				<circle class="st1" cx="75.1" cy="-34" r="0.6"/>
				<circle class="st1" cx="78.7" cy="-34" r="0.6"/>
				<circle class="st1" cx="82.3" cy="-34" r="0.6"/>
				<circle class="st1" cx="85.8" cy="-34" r="0.6"/>
				<circle class="st1" cx="75.1" cy="-30.4" r="0.6"/>
				<circle class="st1" cx="78.7" cy="-30.4" r="0.6"/>
				<circle class="st1" cx="82.3" cy="-30.4" r="0.6"/>
				<circle class="st1" cx="85.8" cy="-30.4" r="0.6"/>
				<circle class="st1" cx="75.1" cy="-26.9" r="0.6"/>
				<circle class="st1" cx="78.7" cy="-26.9" r="0.6"/>
				<circle class="st1" cx="82.3" cy="-26.9" r="0.6"/>
				<circle class="st1" cx="85.8" cy="-26.9" r="0.6"/>
				<circle class="st1" cx="75.1" cy="-23.3" r="0.6"/>
				<circle class="st1" cx="78.7" cy="-23.3" r="0.6"/>
				<circle class="st1" cx="82.3" cy="-23.3" r="0.6"/>
				<circle class="st1" cx="85.8" cy="-23.3" r="0.6"/>
				<circle class="st1" cx="43" cy="-19.7" r="0.6"/>
				<circle class="st1" cx="46.5" cy="-19.7" r="0.6"/>
				<circle class="st1" cx="50.1" cy="-19.7" r="0.6"/>
				<circle class="st1" cx="53.7" cy="-19.7" r="0.6"/>
				<circle class="st1" cx="43" cy="-16.1" r="0.6"/>
				<circle class="st1" cx="46.5" cy="-16.1" r="0.6"/>
				<circle class="st1" cx="50.1" cy="-16.1" r="0.6"/>
				<circle class="st1" cx="53.7" cy="-16.1" r="0.6"/>
				<circle class="st1" cx="43" cy="-12.6" r="0.6"/>
				<circle class="st1" cx="46.5" cy="-12.6" r="0.6"/>
				<circle class="st1" cx="50.1" cy="-12.6" r="0.6"/>
				<circle class="st1" cx="53.7" cy="-12.6" r="0.6"/>
				<circle class="st1" cx="43" cy="-9" r="0.6"/>
				<circle class="st1" cx="46.5" cy="-9" r="0.6"/>
				<circle class="st1" cx="50.1" cy="-9" r="0.6"/>
				<circle class="st1" cx="53.7" cy="-9" r="0.6"/>
				<circle class="st1" cx="43" cy="-5.4" r="0.6"/>
				<circle class="st1" cx="46.5" cy="-5.4" r="0.6"/>
				<circle class="st1" cx="50.1" cy="-5.4" r="0.6"/>
				<circle class="st1" cx="53.7" cy="-5.4" r="0.6"/>
				<circle class="st1" cx="43" cy="-1.8" r="0.6"/>
				<circle class="st1" cx="46.5" cy="-1.8" r="0.6"/>
				<circle class="st1" cx="50.1" cy="-1.8" r="0.6"/>
				<circle class="st1" cx="53.7" cy="-1.8" r="0.6"/>
				<circle class="st1" cx="57.3" cy="-19.7" r="0.6"/>
				<circle class="st1" cx="60.8" cy="-19.7" r="0.6"/>
				<circle class="st1" cx="64.4" cy="-19.7" r="0.6"/>
				<circle class="st1" cx="68" cy="-19.7" r="0.6"/>
				<circle class="st1" cx="71.5" cy="-19.7" r="0.6"/>
				<circle class="st1" cx="57.3" cy="-16.1" r="0.6"/>
				<circle class="st1" cx="60.8" cy="-16.1" r="0.6"/>
				<circle class="st1" cx="64.4" cy="-16.1" r="0.6"/>
				<circle class="st1" cx="68" cy="-16.1" r="0.6"/>
				<circle class="st1" cx="71.5" cy="-16.1" r="0.6"/>
				<circle class="st1" cx="57.3" cy="-12.6" r="0.6"/>
				<circle class="st1" cx="60.8" cy="-12.6" r="0.6"/>
				<circle class="st1" cx="64.4" cy="-12.6" r="0.6"/>
				<circle class="st1" cx="68" cy="-12.6" r="0.6"/>
				<circle class="st1" cx="71.5" cy="-12.6" r="0.6"/>
				<circle class="st1" cx="57.3" cy="-9" r="0.6"/>
				<circle class="st1" cx="60.8" cy="-9" r="0.6"/>
				<circle class="st1" cx="64.4" cy="-9" r="0.6"/>
				<circle class="st1" cx="68" cy="-9" r="0.6"/>
				<circle class="st1" cx="71.5" cy="-9" r="0.6"/>
				<circle class="st1" cx="57.3" cy="-5.4" r="0.6"/>
				<circle class="st1" cx="60.8" cy="-5.4" r="0.6"/>
				<circle class="st1" cx="64.4" cy="-5.4" r="0.6"/>
				<circle class="st1" cx="68" cy="-5.4" r="0.6"/>
				<circle class="st1" cx="71.5" cy="-5.4" r="0.6"/>
				<circle class="st1" cx="57.3" cy="-1.8" r="0.6"/>
				<circle class="st1" cx="60.8" cy="-1.8" r="0.6"/>
				<circle class="st1" cx="64.4" cy="-1.8" r="0.6"/>
				<circle class="st1" cx="68" cy="-1.8" r="0.6"/>
				<circle class="st1" cx="71.5" cy="-1.8" r="0.6"/>
				<circle class="st1" cx="75.1" cy="-19.7" r="0.6"/>
				<circle class="st1" cx="78.7" cy="-19.7" r="0.6"/>
				<circle class="st1" cx="82.3" cy="-19.7" r="0.6"/>
				<circle class="st1" cx="85.8" cy="-19.7" r="0.6"/>
				<circle class="st1" cx="75.1" cy="-16.1" r="0.6"/>
				<circle class="st1" cx="78.7" cy="-16.1" r="0.6"/>
				<circle class="st1" cx="82.3" cy="-16.1" r="0.6"/>
				<circle class="st1" cx="85.8" cy="-16.1" r="0.6"/>
				<circle class="st1" cx="75.1" cy="-12.6" r="0.6"/>
				<circle class="st1" cx="78.7" cy="-12.6" r="0.6"/>
				<circle class="st1" cx="82.3" cy="-12.6" r="0.6"/>
				<circle class="st1" cx="85.8" cy="-12.6" r="0.6"/>
				<circle class="st1" cx="75.1" cy="-9" r="0.6"/>
				<circle class="st1" cx="78.7" cy="-9" r="0.6"/>
				<circle class="st1" cx="82.3" cy="-9" r="0.6"/>
				<circle class="st1" cx="85.8" cy="-9" r="0.6"/>
				<circle class="st1" cx="75.1" cy="-5.4" r="0.6"/>
				<circle class="st1" cx="78.7" cy="-5.4" r="0.6"/>
				<circle class="st1" cx="82.3" cy="-5.4" r="0.6"/>
				<circle class="st1" cx="85.8" cy="-5.4" r="0.6"/>
				<circle class="st1" cx="75.1" cy="-1.8" r="0.6"/>
				<circle class="st1" cx="78.7" cy="-1.8" r="0.6"/>
				<circle class="st1" cx="82.3" cy="-1.8" r="0.6"/>
				<circle class="st1" cx="85.8" cy="-1.8" r="0.6"/>
				<circle class="st1" cx="42.9" cy="-41.2" r="0.6"/>
				<circle class="st1" cx="42.9" cy="-37.6" r="0.6"/>
				<circle class="st1" cx="42.9" cy="-34" r="0.6"/>
				<circle class="st1" cx="42.9" cy="-30.4" r="0.6"/>
				<circle class="st1" cx="42.9" cy="-26.9" r="0.6"/>
				<circle class="st1" cx="42.9" cy="-23.3" r="0.6"/>
				<circle class="st1" cx="42.9" cy="-19.7" r="0.6"/>
				<circle class="st1" cx="42.9" cy="-16.1" r="0.6"/>
				<circle class="st1" cx="42.9" cy="-12.6" r="0.6"/>
				<circle class="st1" cx="42.9" cy="-9" r="0.6"/>
				<circle class="st1" cx="42.9" cy="-5.4" r="0.6"/>
				<circle class="st1" cx="42.9" cy="-1.8" r="0.6"/>
			</g>
			<g>
				<defs>
					<rect id="SVGID_3_" x="42.9" y="-43" width="43" height="43"/>
				</defs>
				<clipPath id="SVGID_4_">
					<use xlink:href="#SVGID_3_"  style="overflow:visible;"/>
				</clipPath>
				<circle class="st3" cx="42.9" cy="-41.2" r="0.6"/>
				<circle class="st3" cx="42.9" cy="-37.6" r="0.6"/>
				<circle class="st3" cx="42.9" cy="-34" r="0.6"/>
				<circle class="st3" cx="42.9" cy="-30.4" r="0.6"/>
				<circle class="st3" cx="42.9" cy="-26.9" r="0.6"/>
				<circle class="st3" cx="42.9" cy="-23.3" r="0.6"/>
				<circle class="st3" cx="42.9" cy="-19.7" r="0.6"/>
				<circle class="st3" cx="42.9" cy="-16.1" r="0.6"/>
				<circle class="st3" cx="42.9" cy="-12.6" r="0.6"/>
				<circle class="st3" cx="42.9" cy="-9" r="0.6"/>
				<circle class="st3" cx="42.9" cy="-5.4" r="0.6"/>
				<circle class="st3" cx="42.9" cy="-1.8" r="0.6"/>
				<circle class="st3" cx="42.8" cy="-41.2" r="0.6"/>
				<circle class="st3" cx="42.8" cy="-37.6" r="0.6"/>
				<circle class="st3" cx="42.8" cy="-34" r="0.6"/>
				<circle class="st3" cx="42.8" cy="-30.4" r="0.6"/>
				<circle class="st3" cx="42.8" cy="-26.9" r="0.6"/>
				<circle class="st3" cx="42.8" cy="-23.3" r="0.6"/>
				<circle class="st3" cx="42.8" cy="-19.7" r="0.6"/>
				<circle class="st3" cx="42.8" cy="-16.1" r="0.6"/>
				<circle class="st3" cx="42.8" cy="-12.6" r="0.6"/>
				<circle class="st3" cx="42.8" cy="-9" r="0.6"/>
				<circle class="st3" cx="42.8" cy="-5.4" r="0.6"/>
				<circle class="st3" cx="42.8" cy="-1.8" r="0.6"/>
			</g>
		</g>
		<g>
			<g>
				<circle class="st1" cx="43" cy="-41.2" r="0.6"/>
				<circle class="st1" cx="43" cy="-37.6" r="0.6"/>
				<circle class="st1" cx="43" cy="-34" r="0.6"/>
				<circle class="st1" cx="43" cy="-30.4" r="0.6"/>
				<circle class="st1" cx="43" cy="-26.9" r="0.6"/>
				<circle class="st1" cx="43" cy="-23.3" r="0.6"/>
				<circle class="st1" cx="43" cy="-19.7" r="0.6"/>
				<circle class="st1" cx="43" cy="-16.1" r="0.6"/>
				<circle class="st1" cx="43" cy="-12.6" r="0.6"/>
				<circle class="st1" cx="43" cy="-9" r="0.6"/>
				<circle class="st1" cx="43" cy="-5.4" r="0.6"/>
				<circle class="st1" cx="43" cy="-1.8" r="0.6"/>
				<circle class="st1" cx="42.9" cy="-41.2" r="0.6"/>
				<circle class="st1" cx="42.9" cy="-37.6" r="0.6"/>
				<circle class="st1" cx="42.9" cy="-34" r="0.6"/>
				<circle class="st1" cx="42.9" cy="-30.4" r="0.6"/>
				<circle class="st1" cx="42.9" cy="-26.9" r="0.6"/>
				<circle class="st1" cx="42.9" cy="-23.3" r="0.6"/>
				<circle class="st1" cx="42.9" cy="-19.7" r="0.6"/>
				<circle class="st1" cx="42.9" cy="-16.1" r="0.6"/>
				<circle class="st1" cx="42.9" cy="-12.6" r="0.6"/>
				<circle class="st1" cx="42.9" cy="-9" r="0.6"/>
				<circle class="st1" cx="42.9" cy="-5.4" r="0.6"/>
				<circle class="st1" cx="42.9" cy="-1.8" r="0.6"/>
			</g>
			<g>
				<defs>
					<rect id="SVGID_5_" y="-43" width="43" height="43"/>
				</defs>
				<clipPath id="SVGID_6_">
					<use xlink:href="#SVGID_5_"  style="overflow:visible;"/>
				</clipPath>
			</g>
		</g>
	</g>
</pattern>
<g>
	<path class="st4" d="M250.2,56.6H5.7V9.2c0-2.8,2.2-5,5-5h234.5c2.8,0,5,2.2,5,5V56.6z"/>
	<path class="st1" d="M251.2,57.6l-123-0.5C107.7,57,87.3,57,66.9,57c-20.4,0-40.8,0.1-61.2,0.3c-0.4,0-0.7-0.3-0.7-0.7v0v0
		L4.9,13.5l0-2.7l0-1.3c0-0.5,0-1,0.2-1.5c0.5-2,2.1-3.7,4.1-4.3c0.5-0.1,1-0.2,1.5-0.2l1.3,0l2.7,0l5.4,0l21.6,0l86.2-0.1L214.1,3
		L235.7,3l5.4,0l2.7,0l1.3,0c0.5,0,1.1,0.1,1.7,0.2c2.2,0.6,4,2.4,4.5,4.6c0.1,0.5,0.2,1.2,0.2,1.6l0,1.4l0,2.7
		C251.5,28.2,251.4,43,251.2,57.6z M249.1,55.5c-0.2-14.1-0.3-28.1-0.3-42.1l0-2.6l0-1.3c0-0.4,0-0.7-0.1-1
		c-0.3-1.3-1.3-2.4-2.6-2.7c-0.3-0.1-0.6-0.1-1-0.1l-1.3,0l-2.7,0l-5.4,0l-21.6-0.1l-86.2-0.2L41.7,5.1l-21.6,0l-5.4,0l-2.7,0
		l-1.3,0c-0.4,0-0.8,0-1.1,0.1c-1.5,0.4-2.7,1.6-3,3.1C6.5,8.6,6.5,9,6.5,9.4l0,1.3l0,2.7L6.4,56.6l-0.7-0.7
		c20.3,0.2,40.7,0.2,61,0.3c20.3,0,40.7,0,61-0.1L249.1,55.5z"/>
</g>
<g>
	<path class="st4" d="M245.3,251.8H10.8c-2.8,0-5-2.2-5-5V56.6h244.5v190.2C250.3,249.5,248.1,251.8,245.3,251.8z"/>
	<path class="st1" d="M245.3,251.9L137.2,252L29,252.3l-13.5,0l-3.4,0c-0.6,0-1.1,0-1.7,0c-0.6,0-1.2-0.2-1.8-0.4
		c-1.1-0.5-2.1-1.4-2.7-2.5c-0.3-0.5-0.5-1.2-0.6-1.8c-0.1-0.6-0.1-1.2-0.1-1.8l0-27l-0.1-54.1L5.1,56.6c0-0.4,0.4-0.8,0.8-0.8
		l122.2-0.2l61.1,0c20.4,0,40.7,0,61.1,0.1l0,0c0.5,0,0.9,0.4,0.9,0.9l-0.4,99l-0.2,49.5l-0.1,24.8l0,12.4l0,3.1
		c0,1,0.1,2.1-0.3,3.1C249.5,250.5,247.4,251.9,245.3,251.9z M245.3,251.7c2,0,4-1.4,4.6-3.3c0.4-1,0.2-2,0.3-3l0-3.1l0-12.4
		l-0.1-24.8l-0.2-49.5l-0.4-99l0.9,0.9c-20.4,0.1-40.7,0.1-61.1,0.1l-61.1,0L5.8,57.3l0.8-0.8L6.5,164.7l-0.1,54.1l0,27
		c0,0.6,0,1.1,0,1.6c0.1,0.5,0.2,1,0.5,1.4c0.5,0.9,1.2,1.6,2.2,2c0.5,0.2,1,0.3,1.5,0.4c0.5,0,1.1,0,1.6,0l3.4,0l13.5,0l108.1,0.3
		L245.3,251.7z"/>
</g>
<rect x="18.8" y="70.2" class="st5" width="98.3" height="20.2"/>
<rect x="161.7" y="70.6" class="st5" width="75.6" height="20.2"/>
<circle class="st5" cx="127.9" cy="30.4" r="10.8"/>
<circle class="st5" cx="29.6" cy="30.4" r="10.8"/>
<circle class="st5" cx="226.1" cy="30.4" r="10.8"/>
<circle class="st5" cx="177" cy="30.4" r="10.8"/>
<circle class="st5" cx="78.7" cy="30.4" r="10.8"/>
<g>
	<pattern  id="SVGID_7_" xlink:href="#New_Pattern_Swatch_1" patternTransform="matrix(1 0 0 1 7.0562 0)">
	</pattern>
	<rect x="18.8" y="70.2" class="st6" width="98.3" height="20.2"/>
	<path class="st1" d="M117.2,90.5l-98.3,0.6c-0.4,0-0.7-0.3-0.7-0.7v0l0,0L18,70.2c0-0.4,0.3-0.8,0.8-0.8l0,0
		c8.2-0.1,16.4-0.2,24.6-0.2c8.2-0.1,16.4,0,24.6,0c8.2,0,16.4,0.1,24.6,0.2c8.2,0.1,16.4,0.2,24.6,0.3l0,0c0.3,0,0.5,0.2,0.5,0.5
		c0,3.4-0.1,6.9-0.2,10.2L117.2,90.5z M117,90.3l-0.3-10.2c-0.1-3.4-0.2-6.7-0.2-10l0.5,0.5c-8.2,0.1-16.4,0.3-24.6,0.3
		c-8.2,0.1-16.4,0.2-24.6,0.2c-8.2,0-16.4,0.1-24.6,0c-8.2,0-16.4-0.1-24.6-0.2l0.8-0.8l-0.1,20.2l-0.7-0.7L117,90.3z"/>
</g>
<g>
	<pattern  id="SVGID_8_" xlink:href="#New_Pattern_Swatch_1" patternTransform="matrix(1 0 0 1 7.0562 0)">
	</pattern>
	<rect x="161.7" y="70.6" class="st7" width="75.6" height="20.2"/>
	<path class="st1" d="M237.4,90.9l-75.7,0.6c-0.4,0-0.7-0.3-0.7-0.7v0l0,0l-0.1-20.2c0-0.4,0.3-0.8,0.8-0.8l0,0
		c6.3-0.1,12.6-0.2,18.9-0.2c6.3-0.1,12.6,0,18.9,0l9.5,0l9.5,0.1c6.3,0.1,12.6,0.1,18.9,0.3l0,0c0.3,0,0.6,0.3,0.6,0.6
		c-0.1,3.4-0.1,6.9-0.2,10.3L237.4,90.9z M237.3,90.8L237,80.6c-0.1-3.4-0.2-6.7-0.2-10l0.6,0.6c-6.3,0.1-12.6,0.2-18.9,0.3
		l-9.5,0.1l-9.5,0c-6.3,0-12.6,0-18.9,0c-6.3,0-12.6-0.1-18.9-0.2l0.8-0.8l-0.1,20.2l-0.7-0.7L237.3,90.8z"/>
</g>
<g>
	<pattern  id="SVGID_9_" xlink:href="#New_Pattern_Swatch_1" patternTransform="matrix(1 0 0 1 7.0562 0)">
	</pattern>
	<circle class="st8" cx="127.9" cy="30.4" r="10.8"/>
	<path class="st1" d="M138.7,30.4c0,2.8-1.1,5.7-3.1,7.8c-1.9,2.1-4.8,3.4-7.8,3.5c-3,0.1-5.9-1.1-8.1-3.2c-2.2-2.1-3.5-5-3.5-8.1
		c-0.1-3,1.1-6.1,3.3-8.3c1.1-1.1,2.4-2,3.8-2.6c1.4-0.6,3-0.9,4.5-0.9c1.5,0,3.1,0.4,4.4,1.1c1.4,0.7,2.6,1.6,3.6,2.7
		C137.8,24.6,138.8,27.6,138.7,30.4z M138.5,30.4c0-1.4-0.3-2.8-0.9-4c-0.6-1.2-1.5-2.3-2.5-3.2c-2.1-1.8-4.7-2.6-7.2-2.5
		c-2.6,0-5.1,1.1-6.9,2.9c-1.9,1.8-3,4.3-3.1,6.9c-0.1,2.6,1,5.2,2.8,7.2c1.8,1.9,4.5,3.1,7.2,3.1c2.7,0.1,5.4-0.9,7.5-2.8
		c1-1,1.8-2.1,2.4-3.4C138.3,33.2,138.5,31.8,138.5,30.4z"/>
</g>
<g>
	<pattern  id="SVGID_10_" xlink:href="#New_Pattern_Swatch_1" patternTransform="matrix(1 0 0 1 7.0562 0)">
	</pattern>
	<circle class="st9" cx="29.6" cy="30.4" r="10.8"/>
	<path class="st1" d="M40.5,30.4c0,2.8-1.1,5.7-3.1,7.8c-1.9,2.1-4.8,3.4-7.8,3.5c-3,0.1-5.9-1.1-8.1-3.2c-2.2-2.1-3.5-5-3.5-8.1
		c-0.1-3,1.1-6.1,3.3-8.3c1.1-1.1,2.4-2,3.8-2.6c1.4-0.6,3-0.9,4.5-0.9c1.5,0,3.1,0.4,4.4,1.1c1.4,0.7,2.6,1.6,3.6,2.7
		C39.5,24.6,40.5,27.6,40.5,30.4z M40.3,30.4c0-1.4-0.3-2.8-0.9-4c-0.6-1.2-1.5-2.3-2.5-3.2c-2.1-1.8-4.7-2.6-7.2-2.5
		c-2.6,0-5.1,1.1-6.9,2.9c-1.9,1.8-3,4.3-3.1,6.9c-0.1,2.6,1,5.2,2.8,7.2c1.8,1.9,4.5,3.1,7.2,3.1c2.7,0.1,5.4-0.9,7.5-2.8
		c1-1,1.8-2.1,2.4-3.4C40,33.2,40.3,31.8,40.3,30.4z"/>
</g>
<g>
	<pattern  id="SVGID_11_" xlink:href="#New_Pattern_Swatch_1" patternTransform="matrix(1 0 0 1 7.0562 0)">
	</pattern>
	<circle class="st10" cx="226.1" cy="30.4" r="10.8"/>
	<path class="st1" d="M237,30.4c0,2.8-1.1,5.7-3.1,7.8c-1.9,2.1-4.8,3.4-7.8,3.5c-3,0.1-5.9-1.1-8.1-3.2c-2.2-2.1-3.5-5-3.5-8.1
		c-0.1-3,1.1-6.1,3.3-8.3c1.1-1.1,2.4-2,3.8-2.6c1.4-0.6,3-0.9,4.5-0.9c1.5,0,3.1,0.4,4.4,1.1c1.4,0.7,2.6,1.6,3.6,2.7
		C236.1,24.6,237,27.6,237,30.4z M236.8,30.4c0-1.4-0.3-2.8-0.9-4c-0.6-1.2-1.5-2.3-2.5-3.2c-2.1-1.8-4.7-2.6-7.2-2.5
		c-2.6,0-5.1,1.1-6.9,2.9c-1.9,1.8-3,4.3-3.1,6.9c-0.1,2.6,1,5.2,2.8,7.2c1.8,1.9,4.5,3.1,7.2,3.1c2.7,0.1,5.4-0.9,7.5-2.8
		c1-1,1.8-2.1,2.4-3.4C236.5,33.2,236.8,31.8,236.8,30.4z"/>
</g>
<g>
	<pattern  id="SVGID_12_" xlink:href="#New_Pattern_Swatch_1" patternTransform="matrix(1 0 0 1 7.0562 0)">
	</pattern>
	<circle class="st11" cx="177" cy="30.4" r="10.8"/>
	<path class="st1" d="M187.9,30.4c0,2.8-1.1,5.7-3.1,7.8c-1.9,2.1-4.8,3.4-7.8,3.5c-3,0.1-5.9-1.1-8.1-3.2c-2.2-2.1-3.5-5-3.5-8.1
		c-0.1-3,1.1-6.1,3.3-8.3c1.1-1.1,2.4-2,3.8-2.6c1.4-0.6,3-0.9,4.5-0.9c1.5,0,3.1,0.4,4.4,1.1c1.4,0.7,2.6,1.6,3.6,2.7
		C186.9,24.6,187.9,27.6,187.9,30.4z M187.7,30.4c0-1.4-0.3-2.8-0.9-4c-0.6-1.2-1.5-2.3-2.5-3.2c-2.1-1.8-4.7-2.6-7.2-2.5
		c-2.6,0-5.1,1.1-6.9,2.9c-1.9,1.8-3,4.3-3.1,6.9c-0.1,2.6,1,5.2,2.8,7.2c1.8,1.9,4.5,3.1,7.2,3.1c2.7,0.1,5.4-0.9,7.5-2.8
		c1-1,1.8-2.1,2.4-3.4C187.4,33.2,187.7,31.8,187.7,30.4z"/>
</g>
<g>
	<pattern  id="SVGID_13_" xlink:href="#New_Pattern_Swatch_1" patternTransform="matrix(1 0 0 1 7.0562 0)">
	</pattern>
	<circle class="st12" cx="78.7" cy="30.4" r="10.8"/>
	<path class="st1" d="M89.6,30.4c0,2.8-1.1,5.7-3.1,7.8c-1.9,2.1-4.8,3.4-7.8,3.5c-3,0.1-5.9-1.1-8.1-3.2c-2.2-2.1-3.5-5-3.5-8.1
		c-0.1-3,1.1-6.1,3.3-8.3c1.1-1.1,2.4-2,3.8-2.6c1.4-0.6,3-0.9,4.5-0.9c1.5,0,3.1,0.4,4.4,1.1c1.4,0.7,2.6,1.6,3.6,2.7
		C88.7,24.6,89.6,27.6,89.6,30.4z M89.4,30.4c0-1.4-0.3-2.8-0.9-4C87.8,25.1,87,24,86,23.2c-2.1-1.8-4.7-2.6-7.2-2.5
		c-2.6,0-5.1,1.1-6.9,2.9c-1.9,1.8-3,4.3-3.1,6.9c-0.1,2.6,1,5.2,2.8,7.2c1.8,1.9,4.5,3.1,7.2,3.1c2.7,0.1,5.4-0.9,7.5-2.8
		c1-1,1.8-2.1,2.4-3.4C89.1,33.2,89.4,31.8,89.4,30.4z"/>
</g>
<g>
	<pattern  id="SVGID_14_" xlink:href="#New_Pattern_Swatch_1" patternTransform="matrix(1 0 0 1 7.0562 0)">
	</pattern>
	<rect x="18.8" y="70.2" class="st13" width="98.3" height="20.2"/>
	<path class="st1" d="M117.2,90.5l-98.3,0.6c-0.4,0-0.7-0.3-0.7-0.7v0l0,0L18,70.2c0-0.4,0.3-0.8,0.8-0.8l0,0
		c8.2-0.1,16.4-0.2,24.6-0.2c8.2-0.1,16.4,0,24.6,0c8.2,0,16.4,0.1,24.6,0.2c8.2,0.1,16.4,0.2,24.6,0.3l0,0c0.3,0,0.5,0.2,0.5,0.5
		c0,3.4-0.1,6.9-0.2,10.2L117.2,90.5z M117,90.3l-0.3-10.2c-0.1-3.4-0.2-6.7-0.2-10l0.5,0.5c-8.2,0.1-16.4,0.3-24.6,0.3
		c-8.2,0.1-16.4,0.2-24.6,0.2c-8.2,0-16.4,0.1-24.6,0c-8.2,0-16.4-0.1-24.6-0.2l0.8-0.8l-0.1,20.2l-0.7-0.7L117,90.3z"/>
</g>
<rect x="18.8" y="104" class="st14" width="218.5" height="131.5"/>
<g>
	<pattern  id="SVGID_15_" xlink:href="#New_Pattern_Swatch_1" patternTransform="matrix(1 0 0 1 7.0562 0)">
	</pattern>
	<rect x="161.7" y="70.6" class="st15" width="75.6" height="20.2"/>
	<path class="st1" d="M237.4,90.9l-75.7,0.6c-0.4,0-0.7-0.3-0.7-0.7v0l0,0l-0.1-20.2c0-0.4,0.3-0.8,0.8-0.8l0,0
		c6.3-0.1,12.6-0.2,18.9-0.2c6.3-0.1,12.6,0,18.9,0l9.5,0l9.5,0.1c6.3,0.1,12.6,0.1,18.9,0.3l0,0c0.3,0,0.6,0.3,0.6,0.6
		c-0.1,3.4-0.1,6.9-0.2,10.3L237.4,90.9z M237.3,90.8L237,80.6c-0.1-3.4-0.2-6.7-0.2-10l0.6,0.6c-6.3,0.1-12.6,0.2-18.9,0.3
		l-9.5,0.1l-9.5,0c-6.3,0-12.6,0-18.9,0c-6.3,0-12.6-0.1-18.9-0.2l0.8-0.8l-0.1,20.2l-0.7-0.7L237.3,90.8z"/>
</g>
<line class="st14" x1="131.4" y1="104" x2="131.4" y2="235.5"/>
<line class="st14" x1="187.8" y1="104" x2="187.8" y2="235.5"/>
<line class="st14" x1="75.1" y1="104" x2="75.1" y2="235.5"/>
<line class="st14" x1="18.8" y1="169.8" x2="237.3" y2="169.8"/>
<line class="st14" x1="18.8" y1="202.7" x2="237.3" y2="202.7"/>
<g>
	<path class="st1" d="M18.8,136.9l109.3-0.7c18.2-0.1,36.4-0.3,54.6-0.2c18.2,0.2,36.4,0.3,54.6,0.9c0.1,0,0.1,0,0.1,0.1
		c0,0.1,0,0.1-0.1,0.1c-18.2,0.6-36.4,0.7-54.6,0.9c-18.2,0.1-36.4-0.1-54.6-0.2l-109.3-0.7C18.8,137.1,18.7,137.1,18.8,136.9
		C18.7,137,18.8,136.9,18.8,136.9z"/>
</g>
<g>
	<path class="st1" d="M35.2,115.5c0,1.3-0.5,2.6-1.4,3.6c-0.8,1-2.2,1.7-3.6,1.8c-1.4,0.1-2.8-0.5-3.9-1.5c-1.1-1-1.7-2.4-1.8-3.9
		c-0.1-1.5,0.5-3,1.5-4.1c1-1.1,2.6-1.8,4.1-1.7c1.5,0,3,0.9,3.8,2C34.9,112.8,35.2,114.2,35.2,115.5z M35,115.5
		c0-1.3-0.7-2.4-1.7-3c-1-0.7-2-0.8-3-0.8c-1,0.1-2,0.4-2.7,1.1c-0.8,0.7-1.3,1.7-1.3,2.7c-0.1,1.1,0.3,2.1,1.1,3
		c0.7,0.8,1.8,1.3,3,1.4c1.1,0.1,2.3-0.3,3.3-1.1C34.5,118,35,116.7,35,115.5z"/>
</g>
<g>
	<path class="st1" d="M91.5,115.5c0,1.3-0.5,2.6-1.4,3.6c-0.8,1-2.2,1.7-3.6,1.8c-1.4,0.1-2.8-0.5-3.9-1.5c-1.1-1-1.7-2.4-1.8-3.9
		c-0.1-1.5,0.5-3,1.5-4.1c1-1.1,2.6-1.8,4.1-1.7c1.5,0,3,0.9,3.8,2C91.2,112.8,91.5,114.2,91.5,115.5z M91.3,115.5
		c0-1.3-0.7-2.4-1.7-3c-1-0.7-2-0.8-3-0.8c-1,0.1-2,0.4-2.7,1.1c-0.8,0.7-1.3,1.7-1.3,2.7c-0.1,1.1,0.3,2.1,1.1,3
		c0.7,0.8,1.8,1.3,3,1.4c1.1,0.1,2.3-0.3,3.3-1.1C90.8,118,91.3,116.7,91.3,115.5z"/>
</g>
<g>
	<path class="st1" d="M147.8,115.5c0,1.3-0.5,2.6-1.4,3.6c-0.8,1-2.2,1.7-3.6,1.8c-1.4,0.1-2.8-0.5-3.9-1.5c-1.1-1-1.7-2.4-1.8-3.9
		c-0.1-1.5,0.5-3,1.5-4.1c1-1.1,2.6-1.8,4.1-1.7c1.5,0,3,0.9,3.8,2C147.5,112.8,147.9,114.2,147.8,115.5z M147.6,115.5
		c0-1.3-0.7-2.4-1.7-3c-1-0.7-2-0.8-3-0.8c-1,0.1-2,0.4-2.7,1.1c-0.8,0.7-1.3,1.7-1.3,2.7c-0.1,1.1,0.3,2.1,1.1,3
		c0.7,0.8,1.8,1.3,3,1.4c1.1,0.1,2.3-0.3,3.3-1.1C147.1,118,147.7,116.7,147.6,115.5z"/>
</g>
<g>
	<path class="st1" d="M204.1,115.5c0,1.3-0.5,2.6-1.4,3.6c-0.8,1-2.2,1.7-3.6,1.8c-1.4,0.1-2.8-0.5-3.9-1.5c-1.1-1-1.7-2.4-1.8-3.9
		c-0.1-1.5,0.5-3,1.5-4.1c1-1.1,2.6-1.8,4.1-1.7c1.5,0,3,0.9,3.8,2C203.8,112.8,204.2,114.2,204.1,115.5z M203.9,115.5
		c0-1.3-0.7-2.4-1.7-3c-1-0.7-2-0.8-3-0.8c-1,0.1-2,0.4-2.7,1.1c-0.8,0.7-1.3,1.7-1.3,2.7c-0.1,1.1,0.3,2.1,1.1,3
		c0.7,0.8,1.8,1.3,3,1.4c1.1,0.1,2.3-0.3,3.3-1.1C203.4,118,204,116.7,203.9,115.5z"/>
</g>
<g>
	<path class="st1" d="M35.2,148.4c0,1.3-0.5,2.6-1.4,3.6c-0.8,1-2.2,1.7-3.6,1.8c-1.4,0.1-2.8-0.5-3.9-1.5c-1.1-1-1.7-2.4-1.8-3.9
		c-0.1-1.5,0.5-3,1.5-4.1c1-1.1,2.6-1.8,4.1-1.7c1.5,0,3,0.9,3.8,2C34.9,145.8,35.2,147.2,35.2,148.4z M35,148.4
		c0-1.3-0.7-2.4-1.7-3c-1-0.7-2-0.8-3-0.8c-1,0.1-2,0.4-2.7,1.1c-0.8,0.7-1.3,1.7-1.3,2.7c-0.1,1.1,0.3,2.1,1.1,3
		c0.7,0.8,1.8,1.3,3,1.4c1.1,0.1,2.3-0.3,3.3-1.1C34.5,150.9,35,149.7,35,148.4z"/>
</g>
<g>
	<path class="st1" d="M91.5,148.4c0,1.3-0.5,2.6-1.4,3.6c-0.8,1-2.2,1.7-3.6,1.8c-1.4,0.1-2.8-0.5-3.9-1.5c-1.1-1-1.7-2.4-1.8-3.9
		c-0.1-1.5,0.5-3,1.5-4.1c1-1.1,2.6-1.8,4.1-1.7c1.5,0,3,0.9,3.8,2C91.2,145.8,91.5,147.2,91.5,148.4z M91.3,148.4
		c0-1.3-0.7-2.4-1.7-3c-1-0.7-2-0.8-3-0.8c-1,0.1-2,0.4-2.7,1.1c-0.8,0.7-1.3,1.7-1.3,2.7c-0.1,1.1,0.3,2.1,1.1,3
		c0.7,0.8,1.8,1.3,3,1.4c1.1,0.1,2.3-0.3,3.3-1.1C90.8,150.9,91.3,149.7,91.3,148.4z"/>
</g>
<g>
	<path class="st1" d="M147.8,148.4c0,1.3-0.5,2.6-1.4,3.6c-0.8,1-2.2,1.7-3.6,1.8c-1.4,0.1-2.8-0.5-3.9-1.5c-1.1-1-1.7-2.4-1.8-3.9
		c-0.1-1.5,0.5-3,1.5-4.1c1-1.1,2.6-1.8,4.1-1.7c1.5,0,3,0.9,3.8,2C147.5,145.8,147.9,147.2,147.8,148.4z M147.6,148.4
		c0-1.3-0.7-2.4-1.7-3c-1-0.7-2-0.8-3-0.8c-1,0.1-2,0.4-2.7,1.1c-0.8,0.7-1.3,1.7-1.3,2.7c-0.1,1.1,0.3,2.1,1.1,3
		c0.7,0.8,1.8,1.3,3,1.4c1.1,0.1,2.3-0.3,3.3-1.1C147.1,150.9,147.7,149.7,147.6,148.4z"/>
</g>
<g>
	<path class="st1" d="M204.1,148.4c0,1.3-0.5,2.6-1.4,3.6c-0.8,1-2.2,1.7-3.6,1.8c-1.4,0.1-2.8-0.5-3.9-1.5c-1.1-1-1.7-2.4-1.8-3.9
		c-0.1-1.5,0.5-3,1.5-4.1c1-1.1,2.6-1.8,4.1-1.7c1.5,0,3,0.9,3.8,2C203.8,145.8,204.2,147.2,204.1,148.4z M203.9,148.4
		c0-1.3-0.7-2.4-1.7-3c-1-0.7-2-0.8-3-0.8c-1,0.1-2,0.4-2.7,1.1c-0.8,0.7-1.3,1.7-1.3,2.7c-0.1,1.1,0.3,2.1,1.1,3
		c0.7,0.8,1.8,1.3,3,1.4c1.1,0.1,2.3-0.3,3.3-1.1C203.4,150.9,204,149.7,203.9,148.4z"/>
</g>
<g>
	<path class="st1" d="M35.2,181.2c0,1.3-0.5,2.6-1.4,3.6c-0.8,1-2.2,1.7-3.6,1.8c-1.4,0.1-2.8-0.5-3.9-1.5c-1.1-1-1.7-2.4-1.8-3.9
		c-0.1-1.5,0.5-3,1.5-4.1c1-1.1,2.6-1.8,4.1-1.7c1.5,0,3,0.9,3.8,2C34.9,178.6,35.2,179.9,35.2,181.2z M35,181.2
		c0-1.3-0.7-2.4-1.7-3c-1-0.7-2-0.8-3-0.8c-1,0.1-2,0.4-2.7,1.1c-0.8,0.7-1.3,1.7-1.3,2.7c-0.1,1.1,0.3,2.1,1.1,3
		c0.7,0.8,1.8,1.3,3,1.4c1.1,0.1,2.3-0.3,3.3-1.1C34.5,183.7,35,182.4,35,181.2z"/>
</g>
<g>
	<path class="st1" d="M91.5,181.2c0,1.3-0.5,2.6-1.4,3.6c-0.8,1-2.2,1.7-3.6,1.8c-1.4,0.1-2.8-0.5-3.9-1.5c-1.1-1-1.7-2.4-1.8-3.9
		c-0.1-1.5,0.5-3,1.5-4.1c1-1.1,2.6-1.8,4.1-1.7c1.5,0,3,0.9,3.8,2C91.2,178.6,91.5,179.9,91.5,181.2z M91.3,181.2
		c0-1.3-0.7-2.4-1.7-3c-1-0.7-2-0.8-3-0.8c-1,0.1-2,0.4-2.7,1.1c-0.8,0.7-1.3,1.7-1.3,2.7c-0.1,1.1,0.3,2.1,1.1,3
		c0.7,0.8,1.8,1.3,3,1.4c1.1,0.1,2.3-0.3,3.3-1.1C90.8,183.7,91.3,182.4,91.3,181.2z"/>
</g>
<g>
	<path class="st1" d="M147.8,181.2c0,1.3-0.5,2.6-1.4,3.6c-0.8,1-2.2,1.7-3.6,1.8c-1.4,0.1-2.8-0.5-3.9-1.5c-1.1-1-1.7-2.4-1.8-3.9
		c-0.1-1.5,0.5-3,1.5-4.1c1-1.1,2.6-1.8,4.1-1.7c1.5,0,3,0.9,3.8,2C147.5,178.6,147.9,179.9,147.8,181.2z M147.6,181.2
		c0-1.3-0.7-2.4-1.7-3c-1-0.7-2-0.8-3-0.8c-1,0.1-2,0.4-2.7,1.1c-0.8,0.7-1.3,1.7-1.3,2.7c-0.1,1.1,0.3,2.1,1.1,3
		c0.7,0.8,1.8,1.3,3,1.4c1.1,0.1,2.3-0.3,3.3-1.1C147.1,183.7,147.7,182.4,147.6,181.2z"/>
</g>
<g>
	<path class="st1" d="M204.1,181.2c0,1.3-0.5,2.6-1.4,3.6c-0.8,1-2.2,1.7-3.6,1.8c-1.4,0.1-2.8-0.5-3.9-1.5c-1.1-1-1.7-2.4-1.8-3.9
		c-0.1-1.5,0.5-3,1.5-4.1c1-1.1,2.6-1.8,4.1-1.7c1.5,0,3,0.9,3.8,2C203.8,178.6,204.2,179.9,204.1,181.2z M203.9,181.2
		c0-1.3-0.7-2.4-1.7-3c-1-0.7-2-0.8-3-0.8c-1,0.1-2,0.4-2.7,1.1c-0.8,0.7-1.3,1.7-1.3,2.7c-0.1,1.1,0.3,2.1,1.1,3
		c0.7,0.8,1.8,1.3,3,1.4c1.1,0.1,2.3-0.3,3.3-1.1C203.4,183.7,204,182.4,203.9,181.2z"/>
</g>
<g>
	<path class="st1" d="M35.2,214c0,1.3-0.5,2.6-1.4,3.6c-0.8,1-2.2,1.7-3.6,1.8c-1.4,0.1-2.8-0.5-3.9-1.5c-1.1-1-1.7-2.4-1.8-3.9
		c-0.1-1.5,0.5-3,1.5-4.1c1-1.1,2.6-1.8,4.1-1.7c1.5,0,3,0.9,3.8,2C34.9,211.3,35.2,212.7,35.2,214z M35,214c0-1.3-0.7-2.4-1.7-3
		c-1-0.7-2-0.8-3-0.8c-1,0.1-2,0.4-2.7,1.1c-0.8,0.7-1.3,1.7-1.3,2.7c-0.1,1.1,0.3,2.1,1.1,3c0.7,0.8,1.8,1.3,3,1.4
		c1.1,0.1,2.3-0.3,3.3-1.1C34.5,216.5,35,215.2,35,214z"/>
</g>
<g>
	<path class="st1" d="M91.5,214c0,1.3-0.5,2.6-1.4,3.6c-0.8,1-2.2,1.7-3.6,1.8c-1.4,0.1-2.8-0.5-3.9-1.5c-1.1-1-1.7-2.4-1.8-3.9
		c-0.1-1.5,0.5-3,1.5-4.1c1-1.1,2.6-1.8,4.1-1.7c1.5,0,3,0.9,3.8,2C91.2,211.3,91.5,212.7,91.5,214z M91.3,214c0-1.3-0.7-2.4-1.7-3
		c-1-0.7-2-0.8-3-0.8c-1,0.1-2,0.4-2.7,1.1c-0.8,0.7-1.3,1.7-1.3,2.7c-0.1,1.1,0.3,2.1,1.1,3c0.7,0.8,1.8,1.3,3,1.4
		c1.1,0.1,2.3-0.3,3.3-1.1C90.8,216.5,91.3,215.2,91.3,214z"/>
</g>
<g>
	<path class="st1" d="M147.8,214c0,1.3-0.5,2.6-1.4,3.6c-0.8,1-2.2,1.7-3.6,1.8c-1.4,0.1-2.8-0.5-3.9-1.5c-1.1-1-1.7-2.4-1.8-3.9
		c-0.1-1.5,0.5-3,1.5-4.1c1-1.1,2.6-1.8,4.1-1.7c1.5,0,3,0.9,3.8,2C147.5,211.3,147.9,212.7,147.8,214z M147.6,214
		c0-1.3-0.7-2.4-1.7-3c-1-0.7-2-0.8-3-0.8c-1,0.1-2,0.4-2.7,1.1c-0.8,0.7-1.3,1.7-1.3,2.7c-0.1,1.1,0.3,2.1,1.1,3
		c0.7,0.8,1.8,1.3,3,1.4c1.1,0.1,2.3-0.3,3.3-1.1C147.1,216.5,147.7,215.2,147.6,214z"/>
</g>
<g>
	<path class="st1" d="M204.1,214c0,1.3-0.5,2.6-1.4,3.6c-0.8,1-2.2,1.7-3.6,1.8c-1.4,0.1-2.8-0.5-3.9-1.5c-1.1-1-1.7-2.4-1.8-3.9
		c-0.1-1.5,0.5-3,1.5-4.1c1-1.1,2.6-1.8,4.1-1.7c1.5,0,3,0.9,3.8,2C203.8,211.3,204.2,212.7,204.1,214z M203.9,214
		c0-1.3-0.7-2.4-1.7-3c-1-0.7-2-0.8-3-0.8c-1,0.1-2,0.4-2.7,1.1c-0.8,0.7-1.3,1.7-1.3,2.7c-0.1,1.1,0.3,2.1,1.1,3
		c0.7,0.8,1.8,1.3,3,1.4c1.1,0.1,2.3-0.3,3.3-1.1C203.4,216.5,204,215.2,203.9,214z"/>
</g>
<rect x="5.7" y="56.6" class="st16" width="244.5" height="5"/>
</svg>
