<svg id="Layer_1" data-name="Layer 1" xmlns="http://www.w3.org/2000/svg" viewBox="0 0 128 128"><title>Artboard 9</title><path d="M39.327,58.64a1.333,1.333,0,0,0,1.021,1.584l33.178,7.258a1.333,1.333,0,1,0,.563-2.606L40.911,57.618A1.333,1.333,0,0,0,39.327,58.64Z"/><path d="M94.451,36.156a1.328,1.328,0,0,0-1.96,1.793,38.629,38.629,0,0,1,9.629,19.97l-28.389-6.09a1.332,1.332,0,0,0-.553,2.606l29.283,6.282a38.568,38.568,0,0,1-.481,10.178L87.121,67.709a1.332,1.332,0,0,0-.553,2.605L101.416,73.5a38.6,38.6,0,0,1-45.61,28.221h0A38.628,38.628,0,0,1,25.65,68.434L73.12,78.772a1.333,1.333,0,0,0,.563-2.606L25.432,65.658a38.674,38.674,0,0,1,.854-9.856V55.8A38.62,38.62,0,0,1,29.848,46L50.608,50.44a1.332,1.332,0,1,0,.552-2.606l-19.92-4.261A38.631,38.631,0,0,1,72.2,26.282h0a38.457,38.457,0,0,1,15.042,6.9,1.332,1.332,0,0,0,1.605-2.127,41.4,41.4,0,0,0-16.019-7.365,1.276,1.276,0,0,0-.139-.03A41.3,41.3,0,0,0,28.009,43.8c-.013.022-.026.044-.038.067A41.244,41.244,0,0,0,23.7,55.163a1.426,1.426,0,0,0-.032.149,41.266,41.266,0,0,0-.841,11.469c0,.038,0,.076.008.113a41.3,41.3,0,0,0,32.335,37.413,1.315,1.315,0,0,0,.149.032,41.266,41.266,0,0,0,48.995-31.5,1.345,1.345,0,0,0,.031-.144,41.246,41.246,0,0,0-9.891-36.537Z"/><path d="M93.53,50.4a1.332,1.332,0,0,0,2.418-1.116A35.18,35.18,0,0,0,71.471,29.63a1.333,1.333,0,0,0-.563,2.605A32.49,32.49,0,0,1,93.53,50.4Z"/></svg>