<svg id="Layer_1" data-name="Layer 1" xmlns="http://www.w3.org/2000/svg" viewBox="0 0 128 128"><title>Artboard 13</title><path d="M83.775,64.069c.028-.024.054-.048.08-.074a1.366,1.366,0,0,0,.138-.161,4.814,4.814,0,0,0,.605-.8,4.879,4.879,0,0,0-2.784-7.191L72.609,53.07l-4.278-8.591,0,0a4.882,4.882,0,0,0-8.405-.649l-5.5,7.918L45.21,53.122a4.884,4.884,0,0,0-3.483,7.822l5.838,7.682-1.593,9.493-.008.051-.008.069a4.824,4.824,0,0,0-.035,1.111,4.877,4.877,0,0,0,6.462,4.183l9.1-3.175,8.4,4.38,0,0a4.874,4.874,0,0,0,7.276-4.346l-.207-9.626Zm-9.093,5.2a1.326,1.326,0,0,0-.395,1.033l.218,10.141a2.22,2.22,0,0,1-2.165,2.267,2.238,2.238,0,0,1-.608-.07,2.194,2.194,0,0,1-.559-.23l-.06-.033,0,0-8.909-4.644a1.331,1.331,0,0,0-1.14-.042l-9.561,3.335a2.215,2.215,0,0,1-2.817-1.362,2.318,2.318,0,0,1-.093-1.087l.006-.04L50.286,68.5a1.328,1.328,0,0,0-.314-1.1l-6.129-8.065a2.222,2.222,0,0,1,1.613-3.564c.035,0,.07-.006.1-.011h0L55.381,54.3a1.329,1.329,0,0,0,.944-.624l5.785-8.334a2.22,2.22,0,0,1,3.092-.557,2.238,2.238,0,0,1,.425.385,2.2,2.2,0,0,1,.311.476l.009.019,0,0,4.534,9.106a1.331,1.331,0,0,0,.844.692L81.053,58.4a2.217,2.217,0,0,1,.919,3.7,1.314,1.314,0,0,0-.11.123Z"/><path d="M44.493,89.578h0l0,0-1.747-2.936.968-3.374h0a1.164,1.164,0,0,0,.028-.121,2.763,2.763,0,0,0,.069-.534V82.59a2.744,2.744,0,0,0-3.354-2.75h0l-3.4.769-2.886-1.947,0,0a2.746,2.746,0,0,0-4.286,2.016l-.32,3.483L26.955,86.2a2.685,2.685,0,0,0-.478.415c-.031.03-.06.063-.089.1A2.756,2.756,0,0,0,27.41,91l3.22,1.383,1.181,3.246.014.039a2.714,2.714,0,0,0,.312.6,2.772,2.772,0,0,0,.452.513l0,0,0,0a2.736,2.736,0,0,0,3.764-.142L36.4,96.6h0l0,0,.055-.061,0,0,2.306-2.63,3.416-.119a2.644,2.644,0,0,0,1.26-.314,1.348,1.348,0,0,0,.187-.1h0l0,0a2.729,2.729,0,0,0,.984-3.56A1.338,1.338,0,0,0,44.493,89.578Zm-2.284,1.535h0l-.018.005-.019.006h-.063l-4,.139a1.325,1.325,0,0,0-.959.454h0l-2.627,3h0c-.026.026-.052.054-.075.082a.086.086,0,0,1-.034.01.1.1,0,0,1-.043-.007l-.031-.027-.008-.017c-.01-.027-.02-.053-.032-.079l-1.361-3.742a1.327,1.327,0,0,0-.725-.769v0l-3.746-1.609a.084.084,0,0,1-.048-.043.109.109,0,0,1,.015-.089l.009-.011.009-.006a1.409,1.409,0,0,0,.143-.109l3.06-2.39a1.326,1.326,0,0,0,.506-.928l.372-4.057a.086.086,0,0,1,.03-.058.089.089,0,0,1,.065-.02l.023.007.016.007.018.012,0,0L36.04,83.14a1.33,1.33,0,0,0,1.118.174l3.883-.879h.005a.082.082,0,0,1,.061.008.086.086,0,0,1,.037.053l0,.02v.005h0s0,0-.008.016c-.01.033-.017.067-.024.1l-1.1,3.819a1.33,1.33,0,0,0,.2,1.15l2.015,3.387v0a.091.091,0,0,1,0,.063A.084.084,0,0,1,42.209,91.113Z"/><path d="M100.727,35.175h0l-4.843-3.446-.795-5.8-.005-.057a3.6,3.6,0,0,0-5.729-2.461l-4.795,3.556-5.631-1.013a3.567,3.567,0,0,0-.987-.1,3.6,3.6,0,0,0-3.3,4.749l1.9,5.664L73.722,41.52h0l-.016.031-.015.031a3.6,3.6,0,0,0,3.238,5.225l5.968-.058,4.045,4.217a3.538,3.538,0,0,0,1.574,1.026l.009,0,.016.005.008,0a3.609,3.609,0,0,0,4.507-2.343l.006-.019,1.784-5.68,5.374-2.6v0l.038-.019c.027-.014.054-.029.08-.045a3.61,3.61,0,0,0,.641-.432,3.568,3.568,0,0,0,.531-.565q.044-.051.083-.107a3.6,3.6,0,0,0-.865-5.018Zm-1.313,3.486-.034.05a1.059,1.059,0,0,1-.123.121.932.932,0,0,1-.2.129c-.041.02-.08.041-.117.064L93.17,41.815a1.326,1.326,0,0,0-.692.8h0L90.52,48.848h0a.93.93,0,0,1-1.177.611h0a.975.975,0,0,1-.423-.274c-.016-.018-.031-.035-.047-.052h0L84.42,44.492a1.326,1.326,0,0,0-1.035-.406l-6.476.063a.942.942,0,0,1-.949-.928.989.989,0,0,1,.028-.238.914.914,0,0,1,.081-.212l.029-.057,3.06-5.707a1.325,1.325,0,0,0,.087-1.047h0l-2.084-6.206a.948.948,0,0,1,.862-1.247.967.967,0,0,1,.278.031,1.332,1.332,0,0,0,.142.029l6.212,1.118a1.327,1.327,0,0,0,1.026-.241h0l5.255-3.9a.951.951,0,0,1,1.321.193.963.963,0,0,1,.12.216.9.9,0,0,1,.056.228c0,.036.01.072.017.108l.872,6.365a1.327,1.327,0,0,0,.547.906h0l5.318,3.784.006,0h0a.928.928,0,0,1,.379.6A.941.941,0,0,1,99.413,38.661Z"/><path d="M47.866,34.7a1.306,1.306,0,0,0,.085-.148,2.341,2.341,0,0,0,.166-.37,2.288,2.288,0,0,0-1.958-3.035v0L44,30.957l-1.333-1.7h0a2.33,2.33,0,0,0-.275-.3,1.465,1.465,0,0,0-.127-.112,2.306,2.306,0,0,0-.509-.3,2.288,2.288,0,0,0-3,1.207l-.855,2-1.91.7a2.286,2.286,0,0,0-.852,3.914l1.64,1.434.074,2.065,0,.06a1.336,1.336,0,0,0,.021.234,2.284,2.284,0,0,0,.051.284c.007.032.015.064.025.1A2.307,2.307,0,0,0,38.584,42.1a2.268,2.268,0,0,0,1.617-.2c.037-.018.075-.038.111-.059l1.864-1.112,2.051.586h0a2.266,2.266,0,0,0,.523.095l.03,0a2.265,2.265,0,0,0,.544-.038c.027,0,.055-.01.082-.016a2.285,2.285,0,0,0,1.721-2.726V38.63l-.482-2.121L47.8,34.792C47.822,34.763,47.845,34.733,47.866,34.7Zm-3.752.8a1.326,1.326,0,0,0-.192,1.032h0l.468,2.058-2.033-.581a1.33,1.33,0,0,0-1.122.185l-1.74,1.039-.076-2.108a1.327,1.327,0,0,0-.454-.955l-1.594-1.394,1.984-.725a1.327,1.327,0,0,0,.771-.73h0l.833-1.946,1.305,1.667a1.327,1.327,0,0,0,.928.506l2.107.191Z"/><path d="M97.139,92.894l-3.092-1.605L93.1,87.943h0a2.658,2.658,0,0,0-.605-1.109,1.305,1.305,0,0,0-.093-.1h0l0,0a2.75,2.75,0,0,0-3.781-.111,1.363,1.363,0,0,0-.1.094h0l0,0L86.03,89.167l-3.287-.127a2.737,2.737,0,0,0-.781.023h0A2.755,2.755,0,0,0,79.973,93l0,0v0l1.563,3.128-1.186,3.221a1.327,1.327,0,0,0-.07.214,2.746,2.746,0,0,0,2.972,3.516l.06-.008,3.459-.521,2.694,2.121h0a2.78,2.78,0,0,0,1.3.594h.006a2.746,2.746,0,0,0,3.15-2.243l0-.015.573-3.445,2.888-1.933.036-.024c.037-.025.071-.052.1-.08a2.746,2.746,0,0,0-.391-4.631Zm-1.185,2.477-.008.017a.085.085,0,0,1-.018.014c-.029.02-.058.04-.085.062l-3.3,2.209a1.325,1.325,0,0,0-.572.886h0l-.66,3.968-.01.055a.076.076,0,0,1-.027.041.089.089,0,0,1-.05.016l-.029,0-.011,0-.011-.008-.054-.045,0,0L87.971,100.1a1.328,1.328,0,0,0-1.021-.27h0l-4.028.606h-.007a.072.072,0,0,1-.082-.063l0-.028,0-.013h0l1.406-3.821a1.33,1.33,0,0,0-.106-1.14l-1.778-3.557,0,0a.088.088,0,0,1-.008-.066A.084.084,0,0,1,82.4,91.7l.019-.008h.005a.093.093,0,0,1,.023,0,1.362,1.362,0,0,0,.2.009l3.866.149a1.327,1.327,0,0,0,.979-.381h0l2.9-2.858h0L90.4,88.6l0,0,.009-.009a.093.093,0,0,1,.046-.012.079.079,0,0,1,.055.025h0l.006.009h0l0,0,0,.007.008.014.005.02h0l1.1,3.9a1.328,1.328,0,0,0,.7.84L95.92,95.26a.08.08,0,0,1,.041.045A.088.088,0,0,1,95.954,95.371Z"/></svg>