<svg xmlns="http://www.w3.org/2000/svg" data-name="Layer 1" viewBox="0 0 128 128"><path d="M24.609 82.194a6.356 6.356 0 0 0 4.5 1.873h18.244a1.334 1.334 0 0 0 1.334-1.334v-9.5h3.736v14.325a3.4 3.4 0 0 0 1 2.406 3.393 3.393 0 0 0 2.4 1h1.485v1.1a6.664 6.664 0 0 0 1.963 4.719l.005.005a6.651 6.651 0 0 0 9.437 0l.005-.005a6.663 6.663 0 0 0 1.963-4.719v-1.1h1.485a3.39 3.39 0 0 0 2.317-.918q.046-.039.089-.082a3.4 3.4 0 0 0 1-2.406V73.237h3.736v9.5a1.335 1.335 0 0 0 1.334 1.334h18.247a6.4 6.4 0 0 0 6.377-6.377V66.112a6.353 6.353 0 0 0-1.8-4.424c-.024-.027-.048-.055-.074-.081a6.359 6.359 0 0 0-4.5-1.873H80.648a1.335 1.335 0 0 0-1.334 1.334v9.5h-3.737V56.247a3.4 3.4 0 0 0-1-2.407 3.392 3.392 0 0 0-2.4-1H70.8q.139-.129.272-.263a9.976 9.976 0 0 0 2.935-7.077 1.335 1.335 0 0 0-1.334-1.334h-7.34l.011-4.747a5.172 5.172 0 0 0 2.325-1.342l.005-.005a5.163 5.163 0 0 0 0-7.307A5.167 5.167 0 0 0 60.286 38c.024.028.049.056.076.082a5.168 5.168 0 0 0 2.324 1.341l-.011 4.753h-7.348A1.329 1.329 0 0 0 54 45.5h-.005a9.975 9.975 0 0 0 2.931 7.075q.134.134.272.263h-1.369a3.389 3.389 0 0 0-2.317.918q-.046.038-.09.082a3.4 3.4 0 0 0-1 2.407v14.323h-3.735v-9.5a1.334 1.334 0 0 0-1.334-1.334H29.111a6.392 6.392 0 0 0-6.377 6.377v11.582a6.359 6.359 0 0 0 1.873 4.5zM93.624 62.4h5.265a3.7 3.7 0 0 1 2.618 1.091l.06.057a3.7 3.7 0 0 1 1.031 2.561v4.456h-8.974zm0 10.833h8.976v4.456a3.726 3.726 0 0 1-3.711 3.711h-5.265zM81.982 62.4h8.973v8.164h-8.973zm0 10.833h8.973V81.4h-8.973zM68.018 92.06a4.018 4.018 0 0 1-8.036 0v-1.1h8.036zm-5.77-55.867-.056-.054a2.506 2.506 0 0 1 3.6-3.488 2.5 2.5 0 0 1-3.539 3.539zm-5.466 10.639H64v.005h7.217a7.339 7.339 0 0 1-14.435-.005zM55.091 71.9V56.247a.736.736 0 0 1 .217-.52l.038-.04a.741.741 0 0 1 .482-.177h16.343a.742.742 0 0 1 .523.215.735.735 0 0 1 .218.52v31.31a.735.735 0 0 1-.218.52l-.039.041a.742.742 0 0 1-.481.177H55.829a.742.742 0 0 1-.523-.215.736.736 0 0 1-.217-.52zm-18.046-9.5h8.974v8.164h-8.974zm0 10.833h8.974V81.4h-8.974zM25.4 66.112a3.723 3.723 0 0 1 3.711-3.712h5.265v8.164H25.4zm0 7.125h8.974V81.4h-5.263a3.7 3.7 0 0 1-2.621-1.088 3.7 3.7 0 0 1-1.09-2.619z"/></svg>