<svg id="Layer_1" data-name="Layer 1" xmlns="http://www.w3.org/2000/svg" viewBox="0 0 128 128"><title>Artboard 3</title><path d="M59.5,82.864a6.36,6.36,0,0,0,10.858-4.5v-.01A15.7,15.7,0,1,0,48.967,59.477a1.332,1.332,0,0,0,2.554.761A13.036,13.036,0,1,1,69.771,75.69a6.364,6.364,0,0,0-11.541,0,13.041,13.041,0,0,1-6.758-8.075,1.328,1.328,0,1,0-2.554.73A15.683,15.683,0,0,0,57.64,78.353v.013A6.342,6.342,0,0,0,59.5,82.864Zm1.887-7.108a3.693,3.693,0,1,1-1.081,2.61A3.681,3.681,0,0,1,61.389,75.756Z"/><path d="M22.734,64a41.265,41.265,0,0,0,59.051,37.236l0,0h0A41.248,41.248,0,0,0,96.1,89.929a1.331,1.331,0,0,0-2.074-1.668A38.579,38.579,0,0,1,80.64,98.832l0,0A38.6,38.6,0,0,1,29.354,46.964a9.316,9.316,0,0,0,11.5-13.856A38.6,38.6,0,0,1,98.083,82.116a1.333,1.333,0,0,0,2.355,1.251A41.255,41.255,0,0,0,39,31.171,9.314,9.314,0,0,0,26.677,45.093q.21.21.432.405A41.1,41.1,0,0,0,22.734,64Zm3.884-25.493a6.645,6.645,0,1,1,1.946,4.7A6.626,6.626,0,0,1,26.617,38.507Z"/><path d="M60.624,35.433a28.765,28.765,0,1,0,32.058,30.7,7.7,7.7,0,0,0,3.659-2.044l0,0,0,0,0,0a7.69,7.69,0,0,0-6.664-13.027,28.762,28.762,0,0,0-20.8-15.4,1.333,1.333,0,1,0-.448,2.627A26.087,26.087,0,0,1,87.151,51.939a7.721,7.721,0,0,0-1.673,1.27l-.005.005A7.69,7.69,0,0,0,90,66.286,26.1,26.1,0,1,1,60.937,38.081a1.333,1.333,0,1,0-.313-2.648ZM87.359,62.2a5.02,5.02,0,1,1,7.109,0l-.005,0a5.03,5.03,0,0,1-7.1,0Z"/></svg>