<svg xmlns="http://www.w3.org/2000/svg" data-name="Layer 1" viewBox="0 0 128 128"><path d="M100.851 91.757a38.665 38.665 0 01-22.211-7.343 33.826 33.826 0 01-11.4-40.529 38.667 38.667 0 0115.13-17.844 1.33 1.33 0 00-.442-2.426 41.257 41.257 0 1019.82 70.442 1.329 1.329 0 00-.89-2.3zM92.485 97.6a38.6 38.6 0 11-14.3-71.909 41.079 41.079 0 00-13.409 17.183 36.479 36.479 0 0012.29 43.688 41.08 41.08 0 0020.413 7.668 38.173 38.173 0 01-4.994 3.37z"/><path d="M80.295 77.477a2.728 2.728 0 00.694.09l3.415.119 2.306 2.629a2.738 2.738 0 003.869.255 2.77 2.77 0 00.457-.513 2.737 2.737 0 00.312-.6l.016-.048 1.178-3.238 3.22-1.383a2.737 2.737 0 001.023-4.288 2.744 2.744 0 00-.568-.512l-2.607-2.04-.32-3.483a2.74 2.74 0 00-4.285-2.015l-2.886 1.948-3.4-.769a2.74 2.74 0 00-2.072.352 2.948 2.948 0 00-.1.068 2.759 2.759 0 00-1.083 3.008l.968 3.374-1.783 3a2.729 2.729 0 00.951 3.749 2.723 2.723 0 00.695.297zm.637-2.7l2.015-3.387a1.331 1.331 0 00.2-1.15l-1.1-3.822-.023-.1c0-.017-.007-.012-.007-.017v-.025a.1.1 0 01.019-.041l.018-.011a.081.081 0 01.06-.008h.005l3.882.879a1.332 1.332 0 001.118-.175l3.361-2.268.018-.012.016-.006a.1.1 0 01.023-.007.091.091 0 01.065.02.084.084 0 01.03.057l.372 4.057a1.325 1.325 0 00.506.928l3.059 2.39a1.333 1.333 0 00.143.109.084.084 0 01.018.017l.009.022a.093.093 0 010 .068.086.086 0 01-.048.042l-3.746 1.609a1.326 1.326 0 00-.726.769l-1.363 3.746a.954.954 0 00-.03.074l-.009.019-.009.012a.088.088 0 01-.064.02.075.075 0 01-.052-.024L86.026 75.5a1.326 1.326 0 00-.959-.454l-4-.139h-.058l-.024-.006a.1.1 0 01-.024-.01.08.08 0 01-.03-.047.1.1 0 010-.066zM38.661 94.45a2.315 2.315 0 00-.564-.257l-1.91-.7-.855-2a2.288 2.288 0 00-3-1.207 2.318 2.318 0 00-.509.3 1.417 1.417 0 00-.126.112 2.3 2.3 0 00-.275.3l-1.333 1.7-2.155.2a2.276 2.276 0 00-1.958 3.035 2.387 2.387 0 00.166.37 1.333 1.333 0 00.086.148c.021.032.044.062.067.091l1.155 1.717-.483 2.121v.006a2.286 2.286 0 001.72 2.726l.082.016a2.26 2.26 0 00.544.038h.03a2.278 2.278 0 00.523-.095l2.051-.586 1.864 1.112c.037.022.074.042.111.06a2.273 2.273 0 003.021-.849 2.314 2.314 0 00.231-.519q.014-.048.024-.1a2.3 2.3 0 00.051-.284 1.369 1.369 0 00.021-.234v-.06l.074-2.065 1.64-1.434a2.29 2.29 0 00-.287-3.657zm-3.536 3.467a1.325 1.325 0 00-.454.954l-.076 2.108-1.74-1.039a1.331 1.331 0 00-1.122-.185l-2.033.581.468-2.058a1.328 1.328 0 00-.192-1.032l-1.185-1.761 2.107-.191a1.326 1.326 0 00.928-.505l1.305-1.667.833 1.946a1.327 1.327 0 00.771.73l1.984.724zM100.165 36.02a1.31 1.31 0 00.085-.148 2.349 2.349 0 00.166-.37 2.288 2.288 0 00-1.958-3.035l-2.158-.19-1.333-1.7a2.306 2.306 0 00-.275-.3 1.486 1.486 0 00-.126-.112 2.318 2.318 0 00-.509-.3 2.288 2.288 0 00-3 1.207l-.855 2-1.91.7a2.295 2.295 0 00-1.066.687 2.282 2.282 0 00.214 3.227l1.64 1.434.074 2.065v.06a1.35 1.35 0 00.021.234 2.309 2.309 0 00.051.284l.025.1a2.3 2.3 0 00.231.519 2.273 2.273 0 003.021.849c.037-.018.074-.038.111-.059l1.864-1.112 2.051.586a2.264 2.264 0 00.523.095h.031a2.276 2.276 0 00.544-.038l.082-.016a2.285 2.285 0 001.72-2.726v-.006l-.482-2.121 1.155-1.717c.02-.034.042-.065.063-.097zm-3.752.8a1.326 1.326 0 00-.192 1.032l.468 2.058-2.033-.581a1.329 1.329 0 00-1.122.185l-1.74 1.039-.076-2.108a1.328 1.328 0 00-.454-.955L89.67 36.1l1.984-.724a1.327 1.327 0 00.771-.73l.833-1.946 1.305 1.667a1.326 1.326 0 00.928.506l2.107.19z"/></svg>