<svg id="Layer_1" data-name="Layer 1" xmlns="http://www.w3.org/2000/svg" viewBox="0 0 128 128"><title>Artboard 4</title><path d="M64,105.266A41.262,41.262,0,0,0,95.383,37.211a1.331,1.331,0,0,0-2.022,1.73,38.578,38.578,0,0,1,6.416,10.571,4.573,4.573,0,0,1-1.98.449,63.309,63.309,0,0,1-8.278-.006c-6.476-.251-13.766-.533-17.2,1.929-2.836,2.033-3.232,5.446.9,11.218a8.636,8.636,0,0,1,1.734,5.785A13.654,13.654,0,0,1,72.2,75.614c-4.612,6.5-.838,10.838,4.089,16.5l0,0,0,0a68.317,68.317,0,0,1,5.08,6.353,38.71,38.71,0,0,1-30.56,1.81,5.3,5.3,0,0,0,.088-2.2,6.606,6.606,0,0,0-1.846-3.553c-2.469-2.441-2.8-5.407-3.068-7.831-.466-4.2-.8-7.182-7.417-6.2a28.741,28.741,0,0,1-6.288.533c-.715-.023-1.543-.05-2.926,0A38.441,38.441,0,0,1,25.4,64a38.892,38.892,0,0,1,.395-5.536A7.332,7.332,0,0,0,28.854,60.7a9.518,9.518,0,0,0,3.359.658,10.843,10.843,0,0,0,3.417-.487A8.649,8.649,0,0,0,41.236,56c2.286-5.681,7.381-8.491,11.908-10.989,7.428-4.1,13.519-7.46,7.069-19.427Q62.082,25.405,64,25.4a38.55,38.55,0,0,1,24.057,8.411,1.332,1.332,0,0,0,1.657-2.085A41.264,41.264,0,1,0,64,105.266ZM78.3,90.371l0,0c-4.15-4.771-7.328-8.428-3.93-13.216a16.251,16.251,0,0,0,3.241-8.083,11.214,11.214,0,0,0-2.224-7.525c-2.992-4.176-3.05-6.4-1.518-7.5,2.7-1.937,9.509-1.673,15.555-1.439a65.016,65.016,0,0,0,8.664,0,9.2,9.2,0,0,0,2.6-.614A38.628,38.628,0,0,1,83.718,97.187,68.38,68.38,0,0,0,78.3,90.371Zm-41.6-53.664A38.5,38.5,0,0,1,57.38,25.969c5.906,10.4.774,13.239-5.518,16.71-4.919,2.714-10.455,5.768-13.1,12.334a6.018,6.018,0,0,1-3.928,3.314,8.206,8.206,0,0,1-2.583.371,6.826,6.826,0,0,1-2.41-.47,4.441,4.441,0,0,1-2.69-2.825,5.884,5.884,0,0,0-.509-1.152A38.55,38.55,0,0,1,36.707,36.707ZM32.2,83.691a30.683,30.683,0,0,0,6.757-.554c3.89-.578,4.1,1.265,4.383,3.854.316,2.844.7,6.325,3.85,9.436a3.879,3.879,0,0,1,1.085,2.084,2.851,2.851,0,0,1,.025.758,38.749,38.749,0,0,1-17.518-15.6C31.356,83.664,31.8,83.678,32.2,83.691Z"/></svg>