<svg id="Layer_1" data-name="Layer 1" xmlns="http://www.w3.org/2000/svg" viewBox="0 0 128 128"><title>Artboard 11</title><path d="M24.609,82.194l0,0a6.356,6.356,0,0,0,4.5,1.873H47.353a1.334,1.334,0,0,0,1.334-1.334v-9.5h3.736V87.558a3.4,3.4,0,0,0,1,2.406l0,0,0,0a3.393,3.393,0,0,0,2.4,1h1.485v1.1a6.664,6.664,0,0,0,1.963,4.719l.005.005a6.651,6.651,0,0,0,9.437,0l.005-.005a6.663,6.663,0,0,0,1.963-4.719v-1.1h1.485a3.39,3.39,0,0,0,2.317-.918q.046-.039.089-.082a3.4,3.4,0,0,0,1-2.406V73.237h3.736v9.5a1.335,1.335,0,0,0,1.334,1.334H98.889a6.4,6.4,0,0,0,6.377-6.377V66.112a6.353,6.353,0,0,0-1.8-4.424c-.024-.027-.048-.055-.074-.081a6.359,6.359,0,0,0-4.5-1.873H80.648a1.335,1.335,0,0,0-1.334,1.334v9.5H75.577V56.247a3.4,3.4,0,0,0-1-2.407l0,0,0,0a3.392,3.392,0,0,0-2.4-1H70.8q.139-.129.272-.263A9.976,9.976,0,0,0,74.007,45.5a1.335,1.335,0,0,0-1.334-1.334h-7.34l.011-4.747a5.172,5.172,0,0,0,2.325-1.342l.005-.005a5.163,5.163,0,0,0,0-7.307l0,0,0,0A5.167,5.167,0,0,0,60.286,38c.024.028.049.056.076.082a5.168,5.168,0,0,0,2.324,1.341l-.011,4.753H55.327A1.329,1.329,0,0,0,54,45.5h-.005a9.975,9.975,0,0,0,2.931,7.075q.134.134.272.263H55.829a3.389,3.389,0,0,0-2.317.918q-.046.038-.09.082a3.4,3.4,0,0,0-1,2.407V70.568H48.687v-9.5a1.334,1.334,0,0,0-1.334-1.334H29.111a6.392,6.392,0,0,0-6.377,6.377V77.693a6.359,6.359,0,0,0,1.873,4.5ZM93.624,62.4h5.265a3.7,3.7,0,0,1,2.618,1.091c.02.02.039.038.06.057a3.7,3.7,0,0,1,1.031,2.561v4.456H93.624Zm0,10.833H102.6v4.456A3.726,3.726,0,0,1,98.889,81.4H93.624ZM81.982,62.4h8.973v8.164H81.982Zm0,10.833h8.973V81.4H81.982ZM68.018,92.06a4.018,4.018,0,0,1-8.036,0v-1.1h8.036Zm-5.77-55.867-.056-.054a2.506,2.506,0,0,1,3.6-3.488l0,0a2.5,2.5,0,0,1-3.539,3.539ZM56.782,46.832H64v.005h7.217a7.339,7.339,0,0,1-14.435-.005ZM55.091,71.9V56.247a.736.736,0,0,1,.217-.52l.038-.04a.741.741,0,0,1,.482-.177H72.171a.742.742,0,0,1,.523.215l0,0a.735.735,0,0,1,.218.52v31.31a.735.735,0,0,1-.218.52l-.039.041a.742.742,0,0,1-.481.177H55.829a.742.742,0,0,1-.523-.215l0,0a.736.736,0,0,1-.217-.52ZM37.045,62.4h8.974v8.164H37.045Zm0,10.833h8.974V81.4H37.045ZM25.4,66.112A3.723,3.723,0,0,1,29.111,62.4h5.265v8.164H25.4Zm0,7.125h8.974V81.4H29.111a3.7,3.7,0,0,1-2.621-1.088l0,0A3.7,3.7,0,0,1,25.4,77.693Z"/></svg>