<svg xmlns="http://www.w3.org/2000/svg" data-name="Layer 1" viewBox="0 0 128 128"><path d="M29.583 60.948a1.331 1.331 0 0 0-.193 1.871L55.243 94.46a1.371 1.371 0 0 0 .133.162 24.571 24.571 0 0 0 34.5 3.4l.03-.022a24.572 24.572 0 0 0 3.459-34.553L67.45 31.73a1.33 1.33 0 0 0-2.064 1.678L91.3 65.124A21.911 21.911 0 0 1 88.273 95.9a1.339 1.339 0 0 0-.145.119 21.909 21.909 0 0 1-30.7-3.087 1.275 1.275 0 0 0-.125-.152L31.454 61.141a1.33 1.33 0 0 0-1.871-.193z"/><path d="M80.46 86.335a1.337 1.337 0 0 0-.176.148 1.334 1.334 0 0 0 1.869 1.9A12.222 12.222 0 0 0 83.8 71.26a1.265 1.265 0 0 0-.092-.1 1.334 1.334 0 0 0-1.908 1.852 9.562 9.562 0 0 1-1.34 13.323zM43.164 24.927a1.33 1.33 0 0 0-2.064 1.679l22.4 27.41a1.33 1.33 0 0 0 2.064-1.678zM33.115 42.352a1.331 1.331 0 0 0-.193 1.871L49.96 65.075a1.33 1.33 0 1 0 2.064-1.675L34.987 42.545a1.331 1.331 0 0 0-1.872-.193z"/><path d="M90.792 81.747a1.334 1.334 0 0 0 1.438-1.22 18.026 18.026 0 1 0-1.994 6.8 1.329 1.329 0 1 0-2.356-1.23 15.346 15.346 0 1 1 1.691-5.793 1.333 1.333 0 0 0 1.221 1.443z"/></svg>