<svg id="Layer_1" data-name="Layer 1" xmlns="http://www.w3.org/2000/svg" viewBox="0 0 128 128"><title>Artboard 12</title><path d="M54.836,66.947h0a19.2,19.2,0,0,0-5.9-4.156c-2.2-.912-4.147-.889-5.321.285l0,0c-1.174,1.177-1.2,3.123-.288,5.319a19.212,19.212,0,0,0,4.156,5.9h0l0,0,0,0,0,0a19.2,19.2,0,0,0,5.9,4.155c2.2.912,4.147.888,5.32-.285h0c1.174-1.174,1.2-3.122.285-5.321A19.215,19.215,0,0,0,54.836,66.947Zm1.985,9.339h0c-.335.335-1.233.2-2.412-.288a16.527,16.527,0,0,1-5.04-3.579l0,0,0,0h0a16.529,16.529,0,0,1-3.583-5.039c-.49-1.182-.626-2.08-.293-2.413l0,0,0,0c.335-.335,1.233-.2,2.413.288a16.52,16.52,0,0,1,5.039,3.583h0a16.528,16.528,0,0,1,3.583,5.039C57.021,75.052,57.156,75.951,56.82,76.286Z"/><path d="M81.934,36.859a33.125,33.125,0,0,0-15.6-7.99,1.331,1.331,0,1,0-.542,2.605A30.473,30.473,0,0,1,88.737,52.456a1.329,1.329,0,0,0,2.543-.772A33.121,33.121,0,0,0,81.934,36.859Z"/><path d="M84.391,63.074h0c-1.173-1.174-3.121-1.2-5.32-.285a19.2,19.2,0,0,0-5.9,4.155l0,0,0,0,0,0h0a19.2,19.2,0,0,0-4.156,5.9c-.91,2.2-.886,4.142.288,5.319l0,0c1.174,1.174,3.121,1.2,5.321.285a19.207,19.207,0,0,0,5.9-4.156h0a19.2,19.2,0,0,0,4.156-5.9c.91-2.2.886-4.142-.288-5.319Zm-2.175,4.3a16.519,16.519,0,0,1-3.583,5.039h0A16.522,16.522,0,0,1,73.592,76c-1.179.489-2.077.623-2.413.288l0,0,0,0c-.333-.333-.2-1.231.293-2.413a16.523,16.523,0,0,1,3.583-5.039h0l0,0,0,0a16.523,16.523,0,0,1,5.04-3.579c1.179-.489,2.077-.623,2.412-.288h0l0,0,0,0C82.842,65.294,82.706,66.192,82.216,67.374Z"/><path d="M64,22.734c-9.866,0-18.8,5.344-25.379,13.277A49.442,49.442,0,0,0,27.3,66.688c0,8.35,4.567,16.028,10.522,22.3C47.173,98.832,60.168,105.266,64,105.266s16.828-6.434,26.174-16.278c5.955-6.272,10.522-13.95,10.522-22.3A49.44,49.44,0,0,0,89.379,36.011C82.8,28.078,73.866,22.734,64,22.734ZM88.246,87.153C79.379,96.493,67.426,102.6,64,102.6S48.622,96.493,39.754,87.153c-5.536-5.83-9.781-12.9-9.781-20.465a46.711,46.711,0,0,1,10.7-28.979C46.775,30.357,54.992,25.4,64,25.4s17.225,4.954,23.326,12.307a46.713,46.713,0,0,1,10.7,28.979C98.027,74.252,93.782,81.323,88.246,87.153Z"/></svg>