<svg xmlns="http://www.w3.org/2000/svg" data-name="Layer 1" viewBox="0 0 128 128"><path d="m28.756 45.186 8.571 4.934a1.328 1.328 0 1 0 1.324-2.3l-8.571-4.938a1.328 1.328 0 0 0-1.324 2.3zM45.186 99.244l4.934-8.571a1.328 1.328 0 0 0-2.3-1.324l-4.938 8.571a1.328 1.328 0 1 0 2.3 1.324zM47.838 38.644a1.331 1.331 0 0 0 2.3-1.334l-4.955-8.558a1.331 1.331 0 0 0-2.3 1.334zM37.309 77.859l-8.558 4.955a1.331 1.331 0 0 0 1.334 2.3l8.558-4.955a1.331 1.331 0 0 0-1.334-2.3zM64.012 35.287a1.329 1.329 0 0 0 1.329-1.329l-.013-9.89a1.329 1.329 0 0 0-2.658 0l.013 9.89a1.329 1.329 0 0 0 1.329 1.329zM90.691 50.141l8.558-4.955a1.331 1.331 0 1 0-1.334-2.3l-8.558 4.955a1.331 1.331 0 0 0 1.334 2.3zM46.065 46.065a25.374 25.374 0 1 0 38.7 3.382 1.329 1.329 0 1 0-2.178 1.522 22.694 22.694 0 1 1-5.7-5.656 1.33 1.33 0 0 0 1.513-2.189 25.352 25.352 0 0 0-32.333 2.941zM84.633 99.734a1.332 1.332 0 0 0 .485-1.819l-4.955-8.558a1.331 1.331 0 0 0-2.3 1.334l4.955 8.558a1.331 1.331 0 0 0 1.815.485zM99.244 82.814l-8.571-4.934a1.328 1.328 0 0 0-1.324 2.3l8.571 4.934a1.328 1.328 0 0 0 1.324-2.3z"/><path d="M64 45.967a1.334 1.334 0 0 0 0 2.669A15.363 15.363 0 0 1 79.364 64a1.334 1.334 0 0 0 2.669 0A18.034 18.034 0 0 0 64 45.967zM64 105.261a1.329 1.329 0 0 0 1.329-1.329l-.012-9.89a1.329 1.329 0 1 0-2.658 0l.012 9.89A1.329 1.329 0 0 0 64 105.261zM78.37 39.14a1.329 1.329 0 0 0 1.814-.49l4.934-8.571a1.328 1.328 0 0 0-2.3-1.324l-4.938 8.572a1.328 1.328 0 0 0 .49 1.813zM24.068 65.329l9.89-.012a1.329 1.329 0 0 0 0-2.658l-9.89.012a1.329 1.329 0 0 0 0 2.658zM103.932 62.671l-9.89.013a1.329 1.329 0 0 0 0 2.658l9.89-.013a1.329 1.329 0 0 0 0-2.658z"/></svg>