<svg id="Layer_1" data-name="Layer 1" xmlns="http://www.w3.org/2000/svg" viewBox="0 0 128 128"><title>Artboard 15</title><path d="M87.541,46.568A24.851,24.851,0,0,0,64,29.645a1.334,1.334,0,0,0,0,2.669,22.162,22.162,0,0,1,21.018,15.1,1.33,1.33,0,0,0,2.522-.844Z"/><path d="M64,84.609a1.329,1.329,0,0,0-1.329,1.329l.064,16.534a1.329,1.329,0,0,0,2.658,0l-.064-16.534A1.329,1.329,0,0,0,64,84.609Z"/><path d="M95.878,53.152h-1.62a30.287,30.287,0,0,0-60.515,0h-1.62a9.389,9.389,0,0,0,0,18.777h4.465a9.42,9.42,0,0,0,9.293,8.054H82.119a9.42,9.42,0,0,0,9.293-8.054h4.465a9.389,9.389,0,0,0,0-18.777ZM44.471,34.957A27.618,27.618,0,0,1,91.586,53.152H36.414A27.527,27.527,0,0,1,44.471,34.957ZM86.865,75.34a6.7,6.7,0,0,1-4.745,1.975H45.881a6.752,6.752,0,0,1-6.586-5.386H88.705A6.734,6.734,0,0,1,86.865,75.34Zm13.758-8.054a6.7,6.7,0,0,1-4.745,1.975H32.122a6.72,6.72,0,0,1,0-13.44H95.878a6.711,6.711,0,0,1,4.745,11.465Z"/><path d="M49.651,84.772,37.914,96.418A1.33,1.33,0,1,0,39.791,98.3L51.528,86.659a1.33,1.33,0,0,0-1.876-1.887Z"/><path d="M78.349,84.772a1.33,1.33,0,1,0-1.876,1.887L88.209,98.3a1.33,1.33,0,1,0,1.876-1.887Z"/></svg>