<svg xmlns="http://www.w3.org/2000/svg" data-name="Layer 1" viewBox="0 0 128 128"><path d="M97.372 65.335A1.335 1.335 0 0 0 98.706 64 34.707 34.707 0 0 0 64 29.294a1.334 1.334 0 0 0 0 2.669A32.037 32.037 0 0 1 96.037 64a1.335 1.335 0 0 0 1.335 1.335zM69.465 51.705a1.334 1.334 0 1 0 0 2.669 5.559 5.559 0 0 0 3.935-9.49 1.462 1.462 0 0 0-.083-.076 5.546 5.546 0 0 0-7.774.076 5.544 5.544 0 0 0-1.626 3.923 1.334 1.334 0 0 0 2.669 0 2.878 2.878 0 0 1 .841-2.044v-.005a2.905 2.905 0 0 1 4.032-.055l.057.06a2.891 2.891 0 0 1-2.044 4.935zM81.88 82.136a1.329 1.329 0 0 0-1.725.745 5.5 5.5 0 0 0 .016 4.11c.013.038.027.076.043.114A5.522 5.522 0 0 0 90.4 82.841q-.019-.057-.043-.114a5.506 5.506 0 0 0-3.037-2.942 1.329 1.329 0 1 0-.98 2.47 2.849 2.849 0 0 1 1.568 1.525.903.903 0 0 0 .04.083 2.86 2.86 0 0 1-5.284 2.189 1.637 1.637 0 0 0-.04-.084 2.854 2.854 0 0 1 0-2.107 1.329 1.329 0 0 0-.744-1.725zM37.665 44.415a5.3 5.3 0 0 0-3.752 1.556 5.306 5.306 0 0 0 0 7.506 1.5 1.5 0 0 0 .084.077 5.309 5.309 0 0 0 7.427-7.588 5.3 5.3 0 0 0-3.759-1.551zm1.87 7.183a2.652 2.652 0 0 1-3.685.058 1.507 1.507 0 0 0-.055-.058 2.651 2.651 0 0 1-.005-3.74l.005-.005a2.651 2.651 0 0 1 3.74.005 2.651 2.651 0 0 1-.005 3.74z"/><path d="M95.383 37.211a1.331 1.331 0 0 0-2.022 1.73 38.636 38.636 0 1 1-5.3-5.128 1.332 1.332 0 0 0 1.657-2.085 41.3 41.3 0 1 0 5.669 5.483z"/><path d="M48.337 75.612a5.225 5.225 0 0 1 5.226 5.226 1.334 1.334 0 0 0 2.669 0 7.894 7.894 0 1 0-7.894 7.894 1.334 1.334 0 0 0 0-2.669 5.226 5.226 0 1 1 0-10.451z"/></svg>