<svg xmlns="http://www.w3.org/2000/svg" data-name="Layer 1" viewBox="0 0 128 128"><path d="M39.327 58.64a1.333 1.333 0 001.021 1.584l33.178 7.258a1.333 1.333 0 10.563-2.606l-33.178-7.258a1.333 1.333 0 00-1.584 1.022z"/><path d="M94.451 36.156a1.328 1.328 0 00-1.96 1.793 38.629 38.629 0 019.629 19.97l-28.389-6.09a1.332 1.332 0 00-.553 2.606l29.283 6.282a38.568 38.568 0 01-.481 10.178l-14.859-3.186a1.332 1.332 0 00-.553 2.605l14.848 3.186a38.6 38.6 0 01-45.61 28.221A38.628 38.628 0 0125.65 68.434l47.47 10.338a1.333 1.333 0 00.563-2.606L25.432 65.658a38.674 38.674 0 01.854-9.856V55.8a38.62 38.62 0 013.562-9.8l20.76 4.44a1.332 1.332 0 10.552-2.606l-19.92-4.261A38.631 38.631 0 0172.2 26.282a38.457 38.457 0 0115.042 6.9 1.332 1.332 0 001.605-2.127 41.4 41.4 0 00-16.019-7.365 1.276 1.276 0 00-.139-.03 41.3 41.3 0 00-44.68 20.14 1.451 1.451 0 00-.038.067A41.244 41.244 0 0023.7 55.163a1.426 1.426 0 00-.032.149 41.266 41.266 0 00-.841 11.469c0 .038 0 .076.008.113a41.3 41.3 0 0032.335 37.413 1.315 1.315 0 00.149.032 41.266 41.266 0 0048.995-31.5 1.345 1.345 0 00.031-.144 41.246 41.246 0 00-9.891-36.537z"/><path d="M93.53 50.4a1.332 1.332 0 002.418-1.116A35.18 35.18 0 0071.471 29.63a1.333 1.333 0 00-.563 2.605A32.49 32.49 0 0193.53 50.4z"/></svg>