<svg id="Layer_1" data-name="Layer 1" xmlns="http://www.w3.org/2000/svg" viewBox="0 0 128 128"><title>Artboard 8</title><path d="M64,29.4a1.334,1.334,0,1,0,0,2.669A16.563,16.563,0,0,1,77.555,39.1a1.332,1.332,0,1,0,2.178-1.532A19.262,19.262,0,0,0,64,29.4Z"/><path d="M89.394,53.829h3.019a5.189,5.189,0,0,0,5.177-5.177h0a5.162,5.162,0,0,0-1.52-3.657l0,0a5.165,5.165,0,0,0-3.655-1.522H89.39a25.938,25.938,0,0,0-9.04-14.927,1.33,1.33,0,0,0-1.678,2.064,23.227,23.227,0,0,1,8,12.863H41.325A23.242,23.242,0,0,1,73.195,27.3a1.333,1.333,0,1,0,1.053-2.449A25.92,25.92,0,0,0,38.606,43.474h-3.02a5.163,5.163,0,0,0-3.649,1.517l0,0,0,0,0,0a5.162,5.162,0,0,0-1.52,3.652h0a5.161,5.161,0,0,0,1.443,3.574c.024.028.05.057.077.083a5.162,5.162,0,0,0,3.657,1.52h3.02A25.975,25.975,0,0,0,49.908,70.4l-14.7,25.462a1.329,1.329,0,0,0,2.3,1.324l14.7-25.455a25.757,25.757,0,0,0,10.458,2.8v29.4a1.334,1.334,0,1,0,2.669,0v-29.4a25.757,25.757,0,0,0,10.458-2.8l14.7,25.455a1.329,1.329,0,0,0,2.3-1.324L78.092,70.4a25.971,25.971,0,0,0,11.3-16.573ZM35.587,51.16a2.5,2.5,0,0,1-1.771-.738c-.019-.019-.038-.037-.058-.054a2.5,2.5,0,0,1-.68-1.717h0a2.5,2.5,0,0,1,.733-1.771l.005-.005a2.5,2.5,0,0,1,1.771-.733H92.413a2.5,2.5,0,0,1,1.771.733l0,0,0,0a2.5,2.5,0,0,1,.738,1.771h0a2.519,2.519,0,0,1-2.509,2.509Zm43.5,15.182a23.143,23.143,0,0,1-13.757,5.521V64a1.334,1.334,0,1,0-2.669,0v7.862A23.261,23.261,0,0,1,41.325,53.829h45.35A23.246,23.246,0,0,1,79.091,66.342Z"/></svg>