<svg xmlns="http://www.w3.org/2000/svg" data-name="Layer 1" viewBox="0 0 128 128"><path d="M57.446 46.55a1.33 1.33 0 0 0 .959 2.481 15.58 15.58 0 0 1 18.908 6.441 1.331 1.331 0 1 0 2.272-1.386 18.232 18.232 0 0 0-22.139-7.536zM102.583 25.141a6.989 6.989 0 0 0-9.81 9.959 6.986 6.986 0 0 0 9.884 0l.005-.005a6.987 6.987 0 0 0 0-9.884 21.768 21.768 0 0 1-.079-.07zm-1.8 8.079a4.332 4.332 0 0 1-6.118 0 4.328 4.328 0 0 1 6.061-6.18.665.665 0 0 0 .058.061 4.332 4.332 0 0 1 0 6.118z"/><path d="M84.373 77.541A24.669 24.669 0 0 0 88.7 64.3c2.451-1.37 4.681-2.73 6.646-4.052 7.111-4.782 10.9-9.323 9.679-12.489-.822-2.134-3.635-3.246-8-3.328a66.1 66.1 0 0 0-15.2 2.022 24.7 24.7 0 0 0-6.052-4.607 1.331 1.331 0 1 0-1.273 2.345 22.091 22.091 0 0 1 8.668 8.5 1.339 1.339 0 0 0 .179.321 21.926 21.926 0 0 1 1.218 2.629q.274.71.5 1.454.077.25.148.5a192.5 192.5 0 0 1-20.063 8.946 192.445 192.445 0 0 1-20.878 6.84q-.118-.236-.228-.472-.322-.687-.6-1.418a21.961 21.961 0 0 1-1.477-7.776 1.32 1.32 0 0 0 0-.185A22.04 22.04 0 0 1 68.039 41.9a1.33 1.33 0 0 0 .48-2.616A24.712 24.712 0 0 0 39.31 62.836a66.694 66.694 0 0 0-12.524 8.6c-3.253 3.029-4.629 5.776-3.8 7.935 1.219 3.165 7.073 3.99 15.55 2.764 2.347-.339 4.914-.828 7.655-1.459a24.7 24.7 0 0 0 38.178-3.14zM40.96 72.45q.3.785.668 1.567c-4.544 1.046-7.38 1.482-7.536 1.077-.015-.038.5-.327 1.4-1.053a38.353 38.353 0 0 1 4.913-3.2q.246.806.555 1.609zm5.27 5.49c-2.9.684-5.609 1.207-8.066 1.563-7.184 1.039-11.983.759-12.694-1.086-.4-1.037.725-2.788 3.13-5.027a60.814 60.814 0 0 1 10.8-7.546q.108 1.159.328 2.319a43.655 43.655 0 0 0-5.914 3.8c-1.886 1.523-2.66 2.916-2.209 4.086.728 1.888 5.192 1.857 11.821.281a187.275 187.275 0 0 0 22.678-7.312 187.223 187.223 0 0 0 21.716-9.8c5.972-3.28 9.3-6.254 8.576-8.143-.454-1.179-1.988-1.689-4.449-1.541a44.12 44.12 0 0 0-6.871 1.145q-.611-1-1.313-1.939a60.321 60.321 0 0 1 13.208-1.658c3.21.06 5.172.605 5.566 1.629.711 1.844-2.657 5.271-8.678 9.32C87.373 62.4 77.914 67.2 67.022 71.4a163.218 163.218 0 0 1-20.584 6.49 1.288 1.288 0 0 0-.208.05zm40.155-24.823a38.781 38.781 0 0 1 5.723-.919c1.2-.072 1.8-.19 1.812-.158.156.4-2.24 1.984-6.309 4.258q-.25-.81-.559-1.614t-.667-1.567zM58.875 85a22 22 0 0 1-9.623-5.065 170.6 170.6 0 0 0 18.729-6.057A170.4 170.4 0 0 0 85.927 65.8 22.036 22.036 0 0 1 58.875 85zM64.12 96.483l-.005.005a4.888 4.888 0 1 0 6.913 6.913 4.888 4.888 0 0 0-6.916-6.909zm5.68 3.459a2.214 2.214 0 0 1-.646 1.572l-.005.005a2.23 2.23 0 1 1 .651-1.577zM35.551 31.419a5.3 5.3 0 0 0-3.751 1.557 5.306 5.306 0 0 0 0 7.506 1.5 1.5 0 0 0 .084.077 5.309 5.309 0 0 0 7.426-7.588 5.3 5.3 0 0 0-3.759-1.552zm1.87 7.183a2.652 2.652 0 0 1-3.685.059 2.965 2.965 0 0 0-.055-.059 2.652 2.652 0 0 1-.005-3.74l.005-.005a2.651 2.651 0 0 1 3.74.005 2.651 2.651 0 0 1-.005 3.74z"/></svg>