<svg xmlns="http://www.w3.org/2000/svg" data-name="Layer 1" viewBox="0 0 128 128"><path d="m84.56 66.829 6.568-14.959 3.178-7.239a14.875 14.875 0 0 0-7.62-19.542h-.005a14.874 14.874 0 0 0-19.54 7.611v.005l-3.181 7.24L57.4 54.9l-22.324 1.93a1.331 1.331 0 0 0-1.1.794l-4.39 9.976a1.33 1.33 0 0 0 .688 1.751l17.562 7.669a6.408 6.408 0 0 0 2.519 6.457L45.08 95.5a1.33 1.33 0 0 0 2.439 1.063l5.216-11.882 5.311 2.332-3.833 8.732a1.33 1.33 0 0 0 2.439 1.063l3.831-8.725 5.311 2.332-5.22 11.885a1.33 1.33 0 0 0 2.439 1.063l5.273-12.009a6.407 6.407 0 0 0 6.456-2.515l17.535 7.74a1.333 1.333 0 0 0 1.756-.683c.01-.023.02-.046.028-.07l4.352-9.913a1.331 1.331 0 0 0-.183-1.366zM69.577 33.771a12.211 12.211 0 0 1 16.042-6.248 12.211 12.211 0 0 1 6.249 16.042l-2.643 6.021L66.931 39.8zm-3.716 8.463 22.294 9.788-6.35 14.463-.221.5-3.984 9.07-22.29-9.787zM48.777 74.53 32.56 67.449l3.525-8.03 20.088-1.737-3.836 8.738v.007zm24.195 12.076a3.726 3.726 0 0 1-4.894 1.9l-6.526-2.865 3.086-7.03A1.33 1.33 0 0 0 62.2 77.55l-3.084 7.024-6.533-2.868a3.725 3.725 0 0 1-1.9-4.893L54.24 68.7l22.293 9.787zM92.133 93.6l-16.189-7.145 3.56-8.11v-.005l3.835-8.735 12.32 15.964z"/><path d="M89.709 42.383a9.621 9.621 0 0 0 .18-7.319l-.025-.072a9.636 9.636 0 0 0-5.016-5.29 1.332 1.332 0 0 0-.637-.162 1.334 1.334 0 0 0-.445 2.592 6.977 6.977 0 0 1 3.618 3.829l.024.057a6.988 6.988 0 0 1-.137 5.3 1.33 1.33 0 1 0 2.439 1.063z"/></svg>