<svg xmlns="http://www.w3.org/2000/svg" data-name="Layer 1" viewBox="0 0 128 128"><path d="M86.45 40.578a1.33 1.33 0 0 0-2.106 1.622A25.691 25.691 0 0 1 89.7 57.916a1.334 1.334 0 0 0 2.669 0 28.379 28.379 0 0 0-5.92-17.339z"/><path d="M85.567 30.121a35.179 35.179 0 1 0-41.025 57.1 18.467 18.467 0 0 0-5.42 3.759 18.283 18.283 0 0 0-5.386 12.952 1.335 1.335 0 0 0 1.334 1.334h57.781a1.335 1.335 0 0 0 1.335-1.334A18.283 18.283 0 0 0 88.8 90.979a18.476 18.476 0 0 0-5.371-3.736q1.4-.927 2.714-1.993a35.193 35.193 0 0 0 4.344-4.184 1.54 1.54 0 0 0 .067-.072 35.174 35.174 0 0 0-4.987-50.874zm1.346 62.745a15.643 15.643 0 0 1 4.547 9.732h-55a15.728 15.728 0 0 1 15.372-14.334H76.257a15.627 15.627 0 0 1 10.656 4.602zm-2.448-9.679a32.41 32.41 0 0 1-4.276 2.929 18.211 18.211 0 0 0-3.768-.513H51.463a18.2 18.2 0 0 0-3.686.5A32.52 32.52 0 1 1 82.865 31.43L67.8 50.845a7.984 7.984 0 0 0-3.214-.935H64a8.028 8.028 0 0 0 0 16.056H64.603a7.99 7.99 0 0 0 4.509-1.815L87.683 80.2a32.476 32.476 0 0 1-3.218 2.987zM69.359 57.916a5.359 5.359 0 0 1-5.135 5.355H64a5.36 5.36 0 1 1 0-10.719h.343a5.359 5.359 0 0 1 5.015 5.348zM94.47 69.3a32.436 32.436 0 0 1-5.047 8.886L70.855 62.1a8.029 8.029 0 0 0-.952-9.62l15.062-19.416A32.576 32.576 0 0 1 94.47 69.3z"/></svg>