<svg id="Layer_1" data-name="Layer 1" xmlns="http://www.w3.org/2000/svg" viewBox="0 0 128 128"><title>Artboard 6</title><path d="M86.45,40.578A1.33,1.33,0,0,0,84.344,42.2,25.691,25.691,0,0,1,89.7,57.916a1.334,1.334,0,0,0,2.669,0,28.379,28.379,0,0,0-5.92-17.339Z"/><path d="M85.567,30.121l0,0,0,0a35.179,35.179,0,1,0-41.025,57.1,18.467,18.467,0,0,0-5.42,3.759,18.283,18.283,0,0,0-5.386,12.952,1.335,1.335,0,0,0,1.334,1.334H92.851a1.335,1.335,0,0,0,1.335-1.334A18.283,18.283,0,0,0,88.8,90.979a18.476,18.476,0,0,0-5.371-3.736q1.4-.927,2.714-1.993a35.193,35.193,0,0,0,4.344-4.184c.023-.023.045-.047.067-.072a35.174,35.174,0,0,0-4.987-50.874Zm1.346,62.745a15.643,15.643,0,0,1,4.547,9.732h-55A15.728,15.728,0,0,1,51.832,88.264H76.087l.136,0h.034A15.627,15.627,0,0,1,86.913,92.866Zm-2.448-9.679a32.41,32.41,0,0,1-4.276,2.929,18.211,18.211,0,0,0-3.768-.513H51.653l-.114,0h-.076a18.2,18.2,0,0,0-3.686.5A32.52,32.52,0,1,1,82.865,31.43L67.8,50.845a7.984,7.984,0,0,0-3.214-.935l-.042,0-.032,0h-.01l-.042,0-.084,0-.042,0H64a8.028,8.028,0,0,0,0,16.056h.221l.055,0,.055,0,.054,0,.055,0,.055,0,.054,0,.054,0a7.99,7.99,0,0,0,4.509-1.815L87.683,80.2A32.476,32.476,0,0,1,84.465,83.187ZM69.359,57.916a5.359,5.359,0,0,1-5.135,5.355h-.017l-.057,0H64a5.36,5.36,0,1,1,0-10.719h.144l.064,0h.022l.028,0h.018l.067,0h0a5.359,5.359,0,0,1,5.015,5.348ZM94.47,69.3a32.436,32.436,0,0,1-5.047,8.886L70.855,62.1a8.029,8.029,0,0,0-.952-9.62L84.965,33.064A32.576,32.576,0,0,1,94.47,69.3Z"/></svg>