<svg xmlns="http://www.w3.org/2000/svg" data-name="Layer 1" viewBox="0 0 128 128"><path d="M87.541 46.568A24.851 24.851 0 0 0 64 29.645a1.334 1.334 0 0 0 0 2.669 22.162 22.162 0 0 1 21.018 15.1 1.33 1.33 0 0 0 2.522-.844zM64 84.609a1.329 1.329 0 0 0-1.329 1.329l.064 16.534a1.329 1.329 0 0 0 2.658 0l-.064-16.534A1.329 1.329 0 0 0 64 84.609z"/><path d="M95.878 53.152h-1.62a30.287 30.287 0 0 0-60.515 0h-1.62a9.389 9.389 0 0 0 0 18.777h4.465a9.42 9.42 0 0 0 9.293 8.054h36.238a9.42 9.42 0 0 0 9.293-8.054h4.465a9.389 9.389 0 0 0 0-18.777zM44.471 34.957a27.618 27.618 0 0 1 47.115 18.195H36.414a27.527 27.527 0 0 1 8.057-18.195zM86.865 75.34a6.7 6.7 0 0 1-4.745 1.975H45.881a6.752 6.752 0 0 1-6.586-5.386h49.41a6.734 6.734 0 0 1-1.84 3.411zm13.758-8.054a6.7 6.7 0 0 1-4.745 1.975H32.122a6.72 6.72 0 0 1 0-13.44h63.756a6.711 6.711 0 0 1 4.745 11.465zM49.651 84.772 37.914 96.418a1.33 1.33 0 1 0 1.877 1.882l11.737-11.641a1.33 1.33 0 0 0-1.876-1.887zM78.349 84.772a1.33 1.33 0 1 0-1.876 1.887L88.209 98.3a1.33 1.33 0 1 0 1.876-1.887z"/></svg>