<svg xmlns="http://www.w3.org/2000/svg" data-name="Layer 1" viewBox="0 0 128 128"><path d="M94.918 28.129a1.343 1.343 0 0 0-.141-.166 5.144 5.144 0 0 0-7.107-.532 1.327 1.327 0 0 0-.166.141 5.147 5.147 0 0 0-1.213 6.04l-11.9 6.988-.932.547a121.155 121.155 0 0 0-14.744-14.069c-4.766-3.68-8.532-5.208-10.291-3.773l-.048.039c-5.592 4.837-8.121 12.112-7.687 19.961a39.2 39.2 0 0 0 9.827 23.068 43.216 43.216 0 0 0 5.521 5.347l-2.091 4.79-7.354 16.846h-4.15A10.566 10.566 0 0 0 31.9 103.894a1.335 1.335 0 0 0 1.334 1.334H92.5a1.334 1.334 0 0 0 1.334-1.334A10.566 10.566 0 0 0 83.3 93.356h-4.15l-5.989-13.714c7.273 1.171 14.331-.375 19.625-4.952l.05-.046c1.667-1.537.7-5.481-2.253-10.72A121.179 121.179 0 0 0 78.788 47.3l.672-.838 8.63-10.77a5.144 5.144 0 0 0 6.129-.314 1.376 1.376 0 0 0 .167-.142 5.144 5.144 0 0 0 .533-7.107zm-44.8-2.773c.636-.55 3.232.94 6.972 3.827A117.137 117.137 0 0 1 71.118 42.52L63 47.286A117.482 117.482 0 0 1 53.408 33.7c-2.686-4.591-3.995-7.733-3.292-8.344zM83.3 96.025a7.9 7.9 0 0 1 7.755 6.535H34.687a7.905 7.905 0 0 1 7.756-6.535H83.3zm-7.053-2.669H49.5l6.89-15.783 1.835-4.2q.7.494 1.42.955l.038.024.3.191.027.017.246.153.066.041.016.01.083.051.165.1.078.047.083.049.083.049.083.049.163.1.083.049.083.048q1.662.96 3.367 1.73l.1.045.2.089.1.044.1.043.132.057.169.072.1.042.074.031.289.12h.006l.033.014.3.121.019.007a34.389 34.389 0 0 0 3.721 1.234zM72.45 76.813q-.561-.114-1.125-.252a1.298 1.298 0 0 0-.089-.025 32.579 32.579 0 0 1-6.555-2.408 37.152 37.152 0 0 1-6.207-3.875l-.064-.046a40.478 40.478 0 0 1-5.879-5.573 36.519 36.519 0 0 1-9.18-21.473c-.323-5.841 1.153-11.3 4.479-15.43a30.055 30.055 0 0 0 3.291 7.311A134.466 134.466 0 0 0 65 53.829l.008.01.006.006c.017.02.035.039.054.057a134.382 134.382 0 0 0 16.54 16.39 30.052 30.052 0 0 0 6.761 4.31C83.8 77.3 78.186 77.975 72.45 76.813zm15.811-11.588c2.319 4.118 3.42 6.9 2.786 7.452-.706.608-3.628-1.141-7.78-4.46A117.514 117.514 0 0 1 71.2 56.768l1.552-1.937 4.331-5.405a117.126 117.126 0 0 1 11.178 15.799zM77.386 44.8l-1.317 1.644a1.645 1.645 0 0 0-.076.094l-6.47 8.075-2.314-2.675-2.315-2.676 8.976-5.27 1.863-1.094 6-3.521zm15.248-11.568a1.338 1.338 0 0 0-.128.111 2.5 2.5 0 0 1-3.389-.247 1.358 1.358 0 0 0-.111-.128 2.5 2.5 0 0 1 .309-3.447 2.495 2.495 0 0 1 3.508.258v.006a2.5 2.5 0 0 1-.2 3.451z"/></svg>