<svg id="Layer_1" data-name="Layer 1" xmlns="http://www.w3.org/2000/svg" viewBox="0 0 128 128"><title>Artboard 1</title><path d="M28.756,45.186l8.571,4.934a1.328,1.328,0,1,0,1.324-2.3L30.08,42.882a1.328,1.328,0,0,0-1.324,2.3Z"/><path d="M45.186,99.244l4.934-8.571a1.328,1.328,0,0,0-2.3-1.324L42.882,97.92a1.328,1.328,0,1,0,2.3,1.324Z"/><path d="M47.838,38.644a1.331,1.331,0,0,0,2.3-1.334l-4.955-8.558a1.331,1.331,0,0,0-2.3,1.334Z"/><path d="M37.309,77.859l-8.558,4.955a1.331,1.331,0,0,0,1.334,2.3l8.558-4.955a1.331,1.331,0,0,0-1.334-2.3Z"/><path d="M64.012,35.287a1.329,1.329,0,0,0,1.329-1.329l-.013-9.89a1.329,1.329,0,0,0-2.658,0l.013,9.89A1.329,1.329,0,0,0,64.012,35.287Z"/><path d="M90.691,50.141l8.558-4.955a1.331,1.331,0,1,0-1.334-2.3l-8.558,4.955a1.331,1.331,0,0,0,1.334,2.3Z"/><path d="M46.065,46.065a25.374,25.374,0,1,0,38.7,3.382,1.329,1.329,0,1,0-2.178,1.522,22.694,22.694,0,1,1-5.7-5.656A1.33,1.33,0,0,0,78.4,43.124a25.352,25.352,0,0,0-32.333,2.941Z"/><path d="M84.633,99.734a1.332,1.332,0,0,0,.485-1.819l-4.955-8.558a1.331,1.331,0,0,0-2.3,1.334l4.955,8.558A1.331,1.331,0,0,0,84.633,99.734Z"/><path d="M99.244,82.814,90.673,77.88a1.328,1.328,0,0,0-1.324,2.3l8.571,4.934a1.328,1.328,0,0,0,1.324-2.3Z"/><path d="M64,45.967a1.334,1.334,0,0,0,0,2.669A15.363,15.363,0,0,1,79.364,64a1.334,1.334,0,0,0,2.669,0A18.034,18.034,0,0,0,64,45.967Z"/><path d="M64,105.261a1.329,1.329,0,0,0,1.329-1.329l-.012-9.89a1.329,1.329,0,1,0-2.658,0l.012,9.89A1.329,1.329,0,0,0,64,105.261Z"/><path d="M78.37,39.14a1.329,1.329,0,0,0,1.814-.49l4.934-8.571a1.328,1.328,0,0,0-2.3-1.324L77.88,37.327A1.328,1.328,0,0,0,78.37,39.14Z"/><path d="M24.068,65.329l9.89-.012a1.329,1.329,0,0,0,0-2.658l-9.89.012a1.329,1.329,0,0,0,0,2.658Z"/><path d="M103.932,62.671l-9.89.013a1.329,1.329,0,0,0,0,2.658l9.89-.013a1.329,1.329,0,0,0,0-2.658Z"/></svg>