<?xml version="1.0" encoding="utf-8"?>
<!-- Generator: Adobe Illustrator 22.1.0, SVG Export Plug-In . SVG Version: 6.00 Build 0)  -->
<svg version="1.1" id="Layer_1" xmlns="http://www.w3.org/2000/svg" xmlns:xlink="http://www.w3.org/1999/xlink" x="0px" y="0px"
	 viewBox="0 0 256 256" style="enable-background:new 0 0 256 256;" xml:space="preserve">
<style type="text/css">
	.st0{fill:#48386A;}
</style>
<g>
	<g>
		<path class="st0" d="M241.5,93.1H179c-0.6,0-1-0.4-1-1V79.2H78v12.9c0,0.6-0.4,1-1,1H14.5c-6,0-10.8-4.9-10.8-10.8V47.7
			c0-6,4.9-10.8,10.8-10.8h150.7c0.6,0,1,0.4,1,1s-0.4,1-1,1H14.5c-4.9,0-8.8,4-8.8,8.8v34.6c0,4.9,4,8.8,8.8,8.8H76V78.2
			c0-0.6,0.4-1,1-1H179c0.6,0,1,0.4,1,1v12.9h61.5c4.9,0,8.8-4,8.8-8.8V47.7c0-4.9-4-8.8-8.8-8.8h-70.3c-0.6,0-1-0.4-1-1s0.4-1,1-1
			h70.3c6,0,10.8,4.9,10.8,10.8v34.6C252.3,88.3,247.5,93.1,241.5,93.1z"/>
	</g>
	<g>
		<path class="st0" d="M219.8,200.6H60.7c-0.6,0-1-0.4-1-1s0.4-1,1-1h158.1v-11.5H180v5.8c0,0.6-0.4,1-1,1H77c-0.6,0-1-0.4-1-1v-5.8
			H37.2v11.5h15.7c0.6,0,1,0.4,1,1s-0.4,1-1,1H36.2c-0.6,0-1-0.4-1-1v-13.5c0-0.6,0.4-1,1-1H77c0.6,0,1,0.4,1,1v5.8H178v-5.8
			c0-0.6,0.4-1,1-1h40.9c0.6,0,1,0.4,1,1v13.5C220.8,200.2,220.4,200.6,219.8,200.6z"/>
	</g>
	<g>
		<path class="st0" d="M77,167.3H36.2c-0.6,0-1-0.4-1-1v-13.6c0-0.6,0.4-1,1-1H77c0.6,0,1,0.4,1,1v13.6
			C78,166.9,77.6,167.3,77,167.3z M37.2,165.3H76v-11.6H37.2V165.3z"/>
	</g>
	<g>
		<path class="st0" d="M219.8,167.3H179c-0.6,0-1-0.4-1-1v-13.6c0-0.6,0.4-1,1-1h40.9c0.6,0,1,0.4,1,1v13.6
			C220.8,166.9,220.4,167.3,219.8,167.3z M180,165.3h38.9v-11.6H180V165.3z"/>
	</g>
	<g>
		<path class="st0" d="M30.3,219.1c-3.8,0-6.9-3.1-6.9-6.9v-88c0-0.6,0.4-1,1-1s1,0.4,1,1v88c0,2.7,2.2,4.9,4.9,4.9
			c2.7,0,4.9-2.2,4.9-4.9V93.1h-9.8v25.2c0,0.6-0.4,1-1,1s-1-0.4-1-1V92.1c0-0.6,0.4-1,1-1h11.8c0.6,0,1,0.4,1,1v120.1
			C37.2,216,34.1,219.1,30.3,219.1z"/>
	</g>
	<g>
		<path class="st0" d="M219.8,120.2c-0.6,0-1-0.4-1-1v-3.1c0-0.6,0.4-1,1-1s1,0.4,1,1v3.1C220.8,119.7,220.4,120.2,219.8,120.2z"/>
	</g>
	<g>
		<path class="st0" d="M225.7,219.1c-3.8,0-6.9-3.1-6.9-6.9v-88c0-0.6,0.4-1,1-1s1,0.4,1,1v88c0,2.7,2.2,4.9,4.9,4.9
			c2.7,0,4.9-2.2,4.9-4.9V93.1h-9.8v15.5c0,0.6-0.4,1-1,1s-1-0.4-1-1V92.1c0-0.6,0.4-1,1-1h11.8c0.6,0,1,0.4,1,1v120.1
			C232.6,216,229.5,219.1,225.7,219.1z"/>
	</g>
	<g>
		<path class="st0" d="M241.5,93.1h-39.6c-0.6,0-1-0.4-1-1V37.9c0-0.6,0.4-1,1-1h39.6c6,0,10.8,4.9,10.8,10.8v34.6
			C252.3,88.3,247.5,93.1,241.5,93.1z M202.9,91.1h38.6c4.9,0,8.8-4,8.8-8.8V47.7c0-4.9-4-8.8-8.8-8.8h-38.6V91.1z"/>
	</g>
	<g>
		<path class="st0" d="M54.1,93.1H14.5c-6,0-10.8-4.9-10.8-10.8V47.7c0-6,4.9-10.8,10.8-10.8h39.6c0.6,0,1,0.4,1,1v54.3
			C55.1,92.7,54.6,93.1,54.1,93.1z M14.5,38.9c-4.9,0-8.8,4-8.8,8.8v34.6c0,4.9,4,8.8,8.8,8.8h38.6V38.9H14.5z"/>
	</g>
	<g>
		<path class="st0" d="M225.7,80.9c-8.8,0-15.9-7.1-15.9-15.9s7.1-15.9,15.9-15.9c8.8,0,15.9,7.1,15.9,15.9S234.5,80.9,225.7,80.9z
			 M225.7,51.1c-7.7,0-13.9,6.3-13.9,13.9c0,7.7,6.3,13.9,13.9,13.9s13.9-6.3,13.9-13.9C239.7,57.3,233.4,51.1,225.7,51.1z"/>
	</g>
	<g>
		<path class="st0" d="M225.7,76.5c-6.3,0-11.5-5.2-11.5-11.5c0-5.8,4.4-10.8,10.2-11.4c0.3,0,0.5,0.2,0.6,0.4
			c0,0.3-0.2,0.5-0.4,0.6c-5.3,0.6-9.3,5.1-9.3,10.4c0,5.8,4.7,10.5,10.5,10.5s10.5-4.7,10.5-10.5c0-4.7-3.1-8.8-7.6-10.1
			c-0.3-0.1-0.4-0.4-0.3-0.6c0.1-0.3,0.4-0.4,0.6-0.3c4.9,1.4,8.3,5.9,8.3,11.1C237.2,71.3,232.1,76.5,225.7,76.5z"/>
	</g>
	<g>
		<path class="st0" d="M48.6,84.8H10.2c-0.6,0-1-0.4-1-1V46.2c0-0.6,0.4-1,1-1h38.4c0.6,0,1,0.4,1,1v37.7
			C49.6,84.4,49.1,84.8,48.6,84.8z M11.2,82.8h36.4V47.2H11.2V82.8z"/>
	</g>
	<g>
		<path class="st0" d="M44.4,80.2H14.3c-0.3,0-0.5-0.2-0.5-0.5V50.3c0-0.3,0.2-0.5,0.5-0.5H23c0.3,0,0.5,0.2,0.5,0.5
			s-0.2,0.5-0.5,0.5h-8.2v28.4h29.1V50.8H27c-0.3,0-0.5-0.2-0.5-0.5s0.2-0.5,0.5-0.5h17.4c0.3,0,0.5,0.2,0.5,0.5v29.4
			C44.9,80,44.7,80.2,44.4,80.2z"/>
	</g>
	<g>
		<path class="st0" d="M188.1,93.1H179c-0.6,0-1-0.4-1-1V79.2H78v12.9c0,0.6-0.4,1-1,1h-9.2c-0.6,0-1-0.4-1-1v-25c0-0.6,0.4-1,1-1
			h120.3c0.6,0,1,0.4,1,1v25C189.1,92.7,188.7,93.1,188.1,93.1z M180,91.1h7.2v-23H68.9v23H76V78.2c0-0.6,0.4-1,1-1H179
			c0.6,0,1,0.4,1,1V91.1z"/>
	</g>
	<g>
		<path class="st0" d="M201.9,59H91.5c-0.3,0-0.5-0.2-0.5-0.5s0.2-0.5,0.5-0.5h110v-7.5H54.6V58h29.8c0.3,0,0.5,0.2,0.5,0.5
			S84.6,59,84.3,59H54.1c-0.3,0-0.5-0.2-0.5-0.5v-8.5c0-0.3,0.2-0.5,0.5-0.5h147.9c0.3,0,0.5,0.2,0.5,0.5v8.5
			C202.4,58.8,202.2,59,201.9,59z"/>
	</g>
	<g>
		<path class="st0" d="M179,193.8h-52c-0.6,0-1-0.4-1-1s0.4-1,1-1h51V181c0-0.6,0.4-1,1-1s1,0.4,1,1v11.8
			C180,193.4,179.5,193.8,179,193.8z"/>
	</g>
	<g>
		<path class="st0" d="M127,193.8H77c-0.6,0-1-0.4-1-1V78.2c0-0.6,0.4-1,1-1H179c0.6,0,1,0.4,1,1v96.5c0,0.6-0.4,1-1,1s-1-0.4-1-1
			V79.2H78v112.6H127c0.6,0,1,0.4,1,1S127.5,193.8,127,193.8z"/>
	</g>
	<g>
		<path class="st0" d="M170.3,98.8h-34.7c-0.3,0-0.5-0.2-0.5-0.5s0.2-0.5,0.5-0.5h34.2V86.5H86.2v11.3h45.2c0.3,0,0.5,0.2,0.5,0.5
			s-0.2,0.5-0.5,0.5H85.7c-0.3,0-0.5-0.2-0.5-0.5V86c0-0.3,0.2-0.5,0.5-0.5h84.7c0.3,0,0.5,0.2,0.5,0.5v12.3
			C170.8,98.6,170.6,98.8,170.3,98.8z"/>
	</g>
	<g>
		<path class="st0" d="M170.3,120.3H85.7c-0.3,0-0.5-0.2-0.5-0.5v-12.3c0-0.3,0.2-0.5,0.5-0.5h84.7c0.3,0,0.5,0.2,0.5,0.5v12.3
			C170.8,120.1,170.6,120.3,170.3,120.3z M86.2,119.3h83.7V108H86.2V119.3z"/>
	</g>
	<g>
		<path class="st0" d="M170.3,141.9H85.7c-0.3,0-0.5-0.2-0.5-0.5v-12.3c0-0.3,0.2-0.5,0.5-0.5h20.1c0.3,0,0.5,0.2,0.5,0.5
			s-0.2,0.5-0.5,0.5H86.2v11.3h83.7v-11.3H111c-0.3,0-0.5-0.2-0.5-0.5s0.2-0.5,0.5-0.5h59.3c0.3,0,0.5,0.2,0.5,0.5v12.3
			C170.8,141.7,170.6,141.9,170.3,141.9z"/>
	</g>
	<g>
		<path class="st0" d="M170.3,163.4H85.7c-0.3,0-0.5-0.2-0.5-0.5v-12.3c0-0.3,0.2-0.5,0.5-0.5h84.7c0.3,0,0.5,0.2,0.5,0.5v12.3
			C170.8,163.2,170.6,163.4,170.3,163.4z M86.2,162.4h83.7v-11.3H86.2V162.4z"/>
	</g>
	<g>
		<path class="st0" d="M136.4,185H85.7c-0.3,0-0.5-0.2-0.5-0.5v-12.3c0-0.3,0.2-0.5,0.5-0.5h50.7c0.3,0,0.5,0.2,0.5,0.5v12.3
			C136.9,184.8,136.6,185,136.4,185z M86.2,184h49.7v-11.3H86.2V184z"/>
	</g>
	<g>
		<path class="st0" d="M170.3,185h-20.6c-0.3,0-0.5-0.2-0.5-0.5v-12.3c0-0.3,0.2-0.5,0.5-0.5h20.6c0.3,0,0.5,0.2,0.5,0.5v12.3
			C170.8,184.8,170.6,185,170.3,185z M150.3,184h19.6v-11.3h-19.6V184z"/>
	</g>
	<g>
		<path class="st0" d="M20.3,74.6c-0.1,0-0.3,0-0.4-0.1c-0.2-0.2-0.2-0.5,0-0.7l18.2-18.2c0.2-0.2,0.5-0.2,0.7,0s0.2,0.5,0,0.7
			L20.6,74.4C20.5,74.5,20.4,74.6,20.3,74.6z"/>
	</g>
	<g>
		<path class="st0" d="M26.3,73.1c-0.1,0-0.3,0-0.4-0.1c-0.2-0.2-0.2-0.5,0-0.7l10.5-10.5c0.2-0.2,0.5-0.2,0.7,0s0.2,0.5,0,0.7
			L26.7,72.9C26.6,73,26.4,73.1,26.3,73.1z"/>
	</g>
</g>
</svg>
