<?xml version="1.0" encoding="utf-8"?>
<!-- Generator: Adobe Illustrator 22.1.0, SVG Export Plug-In . SVG Version: 6.00 Build 0)  -->
<svg version="1.1" id="Layer_1" xmlns="http://www.w3.org/2000/svg" xmlns:xlink="http://www.w3.org/1999/xlink" x="0px" y="0px"
	 viewBox="0 0 256 256" style="enable-background:new 0 0 256 256;" xml:space="preserve">
<style type="text/css">
	.st0{fill:#48386A;}
</style>
<g>
	<g>
		<path class="st0" d="M128,223.1c-47.2,0-85.5-38.4-85.5-85.5c0-47.2,38.4-85.5,85.5-85.5c6.6,0,13.2,0.8,19.6,2.2
			c0.5,0.1,0.9,0.7,0.7,1.2s-0.7,0.9-1.2,0.7c-6.2-1.5-12.7-2.2-19.1-2.2c-46.1,0-83.5,37.5-83.5,83.5s37.5,83.5,83.5,83.5
			s83.5-37.5,83.5-83.5c0-35-22.1-66.6-55-78.5c-0.5-0.2-0.8-0.8-0.6-1.3c0.2-0.5,0.8-0.8,1.3-0.6c33.7,12.2,56.3,44.6,56.3,80.4
			C213.5,184.8,175.2,223.1,128,223.1z"/>
	</g>
	<g>
		<path class="st0" d="M128,150.1c-0.6,0-1-0.4-1-1s0.4-1,1-1c1.2,0,2.3-0.2,3.3-0.5c4.3-1.4,7.2-5.4,7.2-10s-2.9-8.6-7.2-10
			c-2.1-0.7-4.5-0.7-6.6,0c-4.3,1.4-7.2,5.4-7.2,10c0,3.6,1.8,6.9,4.8,8.8c0.5,0.3,0.6,0.9,0.3,1.4c-0.3,0.5-0.9,0.6-1.4,0.3
			c-3.6-2.3-5.7-6.3-5.7-10.5c0-5.4,3.5-10.2,8.6-11.9c2.5-0.8,5.4-0.8,7.9,0c5.1,1.7,8.6,6.5,8.6,11.9s-3.5,10.2-8.6,11.9
			C130.7,149.9,129.4,150.1,128,150.1z"/>
	</g>
	<g>
		<path class="st0" d="M128,144.4c-3.7,0-6.8-3-6.8-6.8s3-6.8,6.8-6.8c3.7,0,6.8,3,6.8,6.8S131.7,144.4,128,144.4z M128,131.8
			c-3.2,0-5.8,2.6-5.8,5.8s2.6,5.8,5.8,5.8s5.8-2.6,5.8-5.8S131.2,131.8,128,131.8z"/>
	</g>
	<g>
		<path class="st0" d="M128,231.4c-51.7,0-93.8-42.1-93.8-93.9c0-21.6,7.5-42.8,21.2-59.5c0.2-0.2,0.5-0.2,0.7-0.1
			c0.2,0.2,0.2,0.5,0.1,0.7c-13.6,16.5-21,37.4-21,58.8c0,51.2,41.7,92.9,92.8,92.9c51.2,0,92.9-41.7,92.9-92.9
			c0-51.2-41.7-92.8-92.9-92.8c-24.6,0-47.7,9.5-65.2,26.8c-0.2,0.2-0.5,0.2-0.7,0c-0.2-0.2-0.2-0.5,0-0.7
			c17.7-17.4,41.1-27.1,65.9-27.1c51.7,0,93.9,42.1,93.9,93.8S179.7,231.4,128,231.4z"/>
	</g>
	<g>
		<path class="st0" d="M128,240.8c-12.3,0-24.2-2.1-35.6-6.3c-5.3-2-10.5-4.4-15.3-7.1c-32.3-18.3-52.3-52.7-52.3-89.8
			C24.8,80.7,71.1,34.4,128,34.4c32.9,0,63.1,15.1,82.8,41.6c0.3,0.4,0.2,1.1-0.2,1.4c-0.4,0.3-1.1,0.2-1.4-0.2
			c-19.3-25.9-48.9-40.8-81.2-40.8c-55.8,0-101.2,45.4-101.2,101.2c0,36.4,19.7,70.1,51.3,88.1c4.7,2.7,9.8,5.1,15,7
			c11.2,4.1,22.9,6.2,34.9,6.2c12,0,23.7-2.1,34.9-6.2c5.2-1.9,10.2-4.3,15-7c31.6-18,51.3-51.7,51.3-88.1c0-17.9-4.8-35.6-13.7-51
			c-0.3-0.5-0.1-1.1,0.4-1.4c0.5-0.3,1.1-0.1,1.4,0.4c9.2,15.7,14,33.7,14,52c0,37.1-20,71.5-52.3,89.8c-4.9,2.8-10,5.2-15.3,7.1
			C152.2,238.7,140.2,240.8,128,240.8z"/>
	</g>
	<g>
		<path class="st0" d="M183.1,52.5c-0.2,0-0.4-0.1-0.5-0.2c-2.6-1.7-5.3-3.2-8-4.6c-0.2-0.1-0.4-0.3-0.5-0.6c-0.1-0.3,0-0.5,0.1-0.8
			l7.5-13.1c0.3-0.5,0.9-0.6,1.4-0.4l8,4.6c0.2,0.1,0.4,0.4,0.5,0.6c0.1,0.3,0,0.5-0.1,0.8L184,52c-0.1,0.2-0.4,0.4-0.6,0.5
			C183.3,52.4,183.2,52.5,183.1,52.5z M176.4,46.4c2.1,1.1,4.2,2.4,6.3,3.6l6.5-11.3l-6.3-3.6L176.4,46.4z"/>
	</g>
	<g>
		<path class="st0" d="M214.4,53.1c-0.2,0-0.3,0-0.5-0.1l-8.9-5.2c-0.5-0.3-0.6-0.9-0.4-1.4c0.3-0.5,0.9-0.6,1.4-0.4l8.1,4.7
			c3.7-7,4.7-15,2.6-22.7c-2.1-8-7.3-14.7-14.5-18.9c-14.5-8.4-33.1-3.7-41.9,10.5l39.8,23c0.5,0.3,0.6,0.9,0.4,1.4
			c-0.3,0.5-0.9,0.6-1.4,0.4l-40.7-23.5c-0.2-0.1-0.4-0.4-0.5-0.6c-0.1-0.3,0-0.5,0.1-0.8c9.1-15.8,29.4-21.2,45.2-12.1
			c7.6,4.4,13.1,11.5,15.4,20.1c2.3,8.5,1.1,17.4-3.3,25.1c-0.1,0.2-0.4,0.4-0.6,0.5C214.6,53.1,214.5,53.1,214.4,53.1z"/>
	</g>
	<g>
		<path class="st0" d="M188.8,32.7c-0.1,0-0.2,0-0.2-0.1L165,19c-0.1-0.1-0.2-0.2-0.2-0.3c0-0.1,0-0.3,0.1-0.4
			c8.8-10.7,23.8-13.5,35.8-6.6c0.2,0.1,0.3,0.4,0.2,0.7c-0.1,0.2-0.4,0.3-0.7,0.2C188.8,6,174.5,8.5,166,18.4l23.1,13.3
			c0.2,0.1,0.3,0.4,0.2,0.7C189.2,32.6,189,32.7,188.8,32.7z"/>
	</g>
	<g>
		<path class="st0" d="M72.9,52.5c-0.1,0-0.2,0-0.2,0c-0.3-0.1-0.5-0.2-0.6-0.5l-7.5-13.1c-0.1-0.2-0.2-0.5-0.1-0.8
			c0.1-0.3,0.2-0.5,0.5-0.6l8-4.6c0.5-0.3,1.1-0.1,1.4,0.4l7.5,13.1c0.1,0.2,0.2,0.5,0.1,0.8c-0.1,0.3-0.3,0.5-0.5,0.6
			c-2.7,1.4-5.4,2.9-8,4.6C73.3,52.4,73.1,52.5,72.9,52.5z M66.7,38.7l6.5,11.3c2.1-1.3,4.2-2.5,6.3-3.6L73,35.1L66.7,38.7z"/>
	</g>
	<g>
		<path class="st0" d="M41.6,53.1c-0.3,0-0.7-0.2-0.9-0.5c-4.4-7.6-5.6-16.6-3.3-25.1c2.3-8.5,7.8-15.7,15.4-20.1
			C58.2,4.3,64.3,2.8,70.5,3c0.6,0,1,0.5,1,1c0,0.6-0.5,1-1,1c-5.8-0.2-11.5,1.2-16.5,4.1C46.7,13.3,41.5,20,39.4,28
			c-2.1,7.7-1.1,15.7,2.6,22.7l53.8-31C92.2,13.9,86.7,9.4,80.3,7c-0.5-0.2-0.8-0.8-0.6-1.3c0.2-0.5,0.8-0.8,1.3-0.6
			c7.1,2.7,13.2,7.8,17,14.4c0.1,0.2,0.2,0.5,0.1,0.8c-0.1,0.3-0.2,0.5-0.5,0.6L42.1,53C42,53,41.8,53.1,41.6,53.1z"/>
	</g>
	<g>
		<path class="st0" d="M43.6,46.3c-0.1,0-0.1,0-0.2,0c-0.1,0-0.2-0.2-0.3-0.3c-4.9-12.9,0.2-27.4,12.2-34.3c0.2-0.1,0.5-0.1,0.7,0.2
			c0.1,0.2,0.1,0.5-0.2,0.7c-11.4,6.6-16.4,20.2-12,32.5l23.1-13.3c0.2-0.1,0.5-0.1,0.7,0.2c0.1,0.2,0.1,0.5-0.2,0.7L43.8,46.3
			C43.7,46.3,43.6,46.3,43.6,46.3z"/>
	</g>
	<g>
		<path class="st0" d="M132.6,36.5C132.6,36.5,132.6,36.5,132.6,36.5c-1.5-0.1-3-0.1-4.6-0.1s-3.1,0-4.6,0.1c-0.3,0-0.5-0.1-0.7-0.3
			c-0.2-0.2-0.3-0.5-0.3-0.7V20.4c0-0.6,0.4-1,1-1h9.3c0.6,0,1,0.4,1,1v15.1c0,0.3-0.1,0.5-0.3,0.7
			C133.1,36.4,132.9,36.5,132.6,36.5z M128,34.4c1.3,0,2.5,0,3.6,0.1V21.4h-7.3v13.1C125.5,34.4,126.7,34.4,128,34.4z"/>
	</g>
	<g>
		<path class="st0" d="M138.7,21.4h-21.3c-3.8,0-6.8-3.1-6.8-6.8v-1.3c0-3.8,3.1-6.8,6.8-6.8h21.3c3.8,0,6.8,3.1,6.8,6.8v1.3
			C145.5,18.3,142.4,21.4,138.7,21.4z M117.3,8.4c-2.7,0-4.8,2.2-4.8,4.8v1.3c0,2.7,2.2,4.8,4.8,4.8h21.3c2.7,0,4.8-2.2,4.8-4.8
			v-1.3c0-2.7-2.2-4.8-4.8-4.8H117.3z"/>
	</g>
	<g>
		<path class="st0" d="M66,253c-1.1,0-2.3-0.4-3.1-1.3c-0.8-0.8-1.3-2-1.3-3.1c0-0.9,0.3-1.8,0.8-2.6l14.4-20
			c0.3-0.4,0.9-0.5,1.3-0.3c4.7,2.7,9.8,5.1,15,7c0.3,0.1,0.6,0.4,0.6,0.8c0,0.4-0.1,0.7-0.4,0.9l-12.1,8.7
			c-0.4,0.3-1.1,0.2-1.4-0.2c-0.3-0.4-0.2-1.1,0.2-1.4l10.5-7.6c-4.4-1.7-8.7-3.7-12.8-6L64,247.2c-0.3,0.4-0.5,0.9-0.5,1.4
			c0,0.6,0.3,1.3,0.7,1.7c0.9,0.9,2.2,1,3.1,0.3l5.6-4c0.4-0.3,1.1-0.2,1.4,0.2s0.2,1.1-0.2,1.4l-5.6,4C67.8,252.7,66.9,253,66,253z
			"/>
	</g>
	<g>
		<path class="st0" d="M190,253c-0.9,0-1.8-0.3-2.6-0.8l-24.7-17.8c-0.3-0.2-0.5-0.6-0.4-0.9c0-0.4,0.3-0.7,0.6-0.8
			c5.2-1.9,10.2-4.3,15-7c0.4-0.3,1-0.1,1.3,0.3l14.4,20c0.5,0.8,0.8,1.6,0.8,2.6c0,1.2-0.5,2.3-1.3,3.1
			C192.3,252.6,191.2,253,190,253z M165.4,233.9l23.2,16.7c1,0.7,2.3,0.6,3.1-0.3c0.5-0.5,0.7-1.1,0.7-1.7c0-0.5-0.2-1-0.5-1.4
			l-13.9-19.3C174.1,230.1,169.8,232.1,165.4,233.9z"/>
	</g>
	<g>
		<path class="st0" d="M128,69.7c-0.6,0-1-0.4-1-1V53.1c0-0.6,0.4-1,1-1s1,0.4,1,1v15.6C129,69.2,128.6,69.7,128,69.7z"/>
	</g>
	<g>
		<path class="st0" d="M93.6,78.9c-0.3,0-0.7-0.2-0.9-0.5l-7.8-13.5c-0.3-0.5-0.1-1.1,0.4-1.4c0.5-0.3,1.1-0.1,1.4,0.4l7.8,13.5
			c0.3,0.5,0.1,1.1-0.4,1.4C93.9,78.9,93.7,78.9,93.6,78.9z"/>
	</g>
	<g>
		<path class="st0" d="M68.3,104.1c-0.2,0-0.3,0-0.5-0.1l-13.5-7.8c-0.5-0.3-0.6-0.9-0.4-1.4c0.3-0.5,0.9-0.6,1.4-0.4l13.5,7.8
			c0.5,0.3,0.6,0.9,0.4,1.4C69,104,68.7,104.1,68.3,104.1z"/>
	</g>
	<g>
		<path class="st0" d="M59.1,138.6H43.5c-0.6,0-1-0.4-1-1s0.4-1,1-1h15.6c0.6,0,1,0.4,1,1S59.7,138.6,59.1,138.6z"/>
	</g>
	<g>
		<path class="st0" d="M54.8,180.9c-0.3,0-0.7-0.2-0.9-0.5c-0.3-0.5-0.1-1.1,0.4-1.4l13.5-7.8c0.5-0.3,1.1-0.1,1.4,0.4
			c0.3,0.5,0.1,1.1-0.4,1.4l-13.5,7.8C55.1,180.8,55,180.9,54.8,180.9z"/>
	</g>
	<g>
		<path class="st0" d="M85.7,211.8c-0.2,0-0.3,0-0.5-0.1c-0.5-0.3-0.6-0.9-0.4-1.4l7.8-13.5c0.3-0.5,0.9-0.6,1.4-0.4
			c0.5,0.3,0.6,0.9,0.4,1.4l-7.8,13.5C86.4,211.6,86.1,211.8,85.7,211.8z"/>
	</g>
	<g>
		<path class="st0" d="M128,223.1c-0.6,0-1-0.4-1-1v-15.6c0-0.6,0.4-1,1-1s1,0.4,1,1v15.6C129,222.7,128.6,223.1,128,223.1z"/>
	</g>
	<g>
		<path class="st0" d="M170.3,211.8c-0.3,0-0.7-0.2-0.9-0.5l-7.8-13.5c-0.3-0.5-0.1-1.1,0.4-1.4c0.5-0.3,1.1-0.1,1.4,0.4l7.8,13.5
			c0.3,0.5,0.1,1.1-0.4,1.4C170.6,211.8,170.4,211.8,170.3,211.8z"/>
	</g>
	<g>
		<path class="st0" d="M201.2,180.9c-0.2,0-0.3,0-0.5-0.1l-13.5-7.8c-0.5-0.3-0.6-0.9-0.4-1.4c0.3-0.5,0.9-0.6,1.4-0.4l13.5,7.8
			c0.5,0.3,0.6,0.9,0.4,1.4C201.9,180.7,201.6,180.9,201.2,180.9z"/>
	</g>
	<g>
		<path class="st0" d="M212.5,138.6h-15.6c-0.6,0-1-0.4-1-1s0.4-1,1-1h15.6c0.6,0,1,0.4,1,1S213.1,138.6,212.5,138.6z"/>
	</g>
	<g>
		<path class="st0" d="M187.7,104.1c-0.3,0-0.7-0.2-0.9-0.5c-0.3-0.5-0.1-1.1,0.4-1.4l13.5-7.8c0.5-0.3,1.1-0.1,1.4,0.4
			c0.3,0.5,0.1,1.1-0.4,1.4l-13.5,7.8C188,104.1,187.8,104.1,187.7,104.1z"/>
	</g>
	<g>
		<path class="st0" d="M162.4,78.9c-0.2,0-0.3,0-0.5-0.1c-0.5-0.3-0.6-0.9-0.4-1.4l7.8-13.5c0.3-0.5,0.9-0.6,1.4-0.4
			c0.5,0.3,0.6,0.9,0.4,1.4l-7.8,13.5C163.1,78.7,162.8,78.9,162.4,78.9z"/>
	</g>
	<g>
		<path class="st0" d="M139.5,138.8c-0.2,0-0.4-0.1-0.6-0.2c-0.3-0.2-0.4-0.5-0.4-0.8c0-1.1-0.1-2.2-0.5-3.3c-0.3-1.1-0.8-2.1-1.5-3
			c-0.2-0.3-0.2-0.6-0.1-0.9c0.1-0.3,0.3-0.5,0.7-0.6l18.1-5.6c0.5-0.2,1.1,0.1,1.3,0.7s-0.1,1.1-0.7,1.3l-16.8,5.2
			c0.4,0.8,0.8,1.6,1,2.4c0.3,0.9,0.4,1.7,0.5,2.6l42.4-13.2c0.7-0.2,1.2-0.7,1.6-1.3c0.3-0.6,0.4-1.3,0.2-2
			c-0.2-0.7-0.7-1.2-1.3-1.5c-0.6-0.3-1.3-0.4-2-0.2l-17.4,5.4c-0.5,0.2-1.1-0.1-1.3-0.7s0.1-1.1,0.7-1.3l17.4-5.4
			c1.2-0.4,2.4-0.3,3.5,0.3c1.1,0.6,1.9,1.5,2.3,2.7c0.4,1.2,0.3,2.4-0.3,3.5c-0.6,1.1-1.6,1.9-2.7,2.3l-43.7,13.6
			C139.7,138.8,139.6,138.8,139.5,138.8z"/>
	</g>
	<g>
		<path class="st0" d="M116.3,137.8c-0.1,0-0.2,0-0.4-0.1l-26.6-10.6c-0.1,0-0.2-0.1-0.3-0.2l-9-7.5c-0.3-0.3-0.5-0.7-0.3-1.1
			c0.2-0.4,0.6-0.7,1-0.6l11.7,0.7c0.1,0,0.2,0,0.3,0.1l26.7,10.6c0.5,0.2,0.8,0.8,0.6,1.3c-0.2,0.5-0.8,0.8-1.3,0.6l-26.6-10.6
			l-8.4-0.5l6.5,5.4l26.5,10.5c0.5,0.2,0.8,0.8,0.6,1.3C117.1,137.6,116.7,137.8,116.3,137.8z"/>
	</g>
</g>
</svg>
