<?xml version="1.0" encoding="utf-8"?>
<!-- Generator: Adobe Illustrator 22.1.0, SVG Export Plug-In . SVG Version: 6.00 Build 0)  -->
<svg version="1.1" id="Layer_1" xmlns="http://www.w3.org/2000/svg" xmlns:xlink="http://www.w3.org/1999/xlink" x="0px" y="0px"
	 viewBox="0 0 256 256" style="enable-background:new 0 0 256 256;" xml:space="preserve">
<style type="text/css">
	.st0{fill:#48386A;}
</style>
<g>
	<g>
		<path class="st0" d="M250.1,186.6H5.9c-0.6,0-1-0.4-1-1V20.9c0-0.6,0.4-1,1-1h244.3c0.6,0,1,0.4,1,1v164.6
			C251.1,186.1,250.7,186.6,250.1,186.6z M6.9,184.6h242.3V21.9H6.9V184.6z"/>
	</g>
	<g>
		<path class="st0" d="M244.7,180.6H75.9c-0.3,0-0.5-0.2-0.5-0.5s0.2-0.5,0.5-0.5h168.3V26.9H11.8v152.8h55.6c0.3,0,0.5,0.2,0.5,0.5
			s-0.2,0.5-0.5,0.5H11.3c-0.3,0-0.5-0.2-0.5-0.5V26.4c0-0.3,0.2-0.5,0.5-0.5h233.4c0.3,0,0.5,0.2,0.5,0.5v153.8
			C245.2,180.4,245,180.6,244.7,180.6z"/>
	</g>
	<g>
		<path class="st0" d="M211.3,21.9H44.7c-0.6,0-1-0.4-1-1V5.3c0-0.6,0.4-1,1-1h101.1c0.6,0,1,0.4,1,1s-0.4,1-1,1H45.7v13.6h164.6
			V6.3h-48.9c-0.6,0-1-0.4-1-1s0.4-1,1-1h49.9c0.6,0,1,0.4,1,1v15.6C212.3,21.5,211.9,21.9,211.3,21.9z"/>
	</g>
	<g>
		<path class="st0" d="M157.1,6.3h-3c-0.6,0-1-0.4-1-1s0.4-1,1-1h3c0.6,0,1,0.4,1,1S157.7,6.3,157.1,6.3z"/>
	</g>
	<g>
		<path class="st0" d="M213.1,202.2h-17.6c-0.6,0-1-0.4-1-1s0.4-1,1-1h16.6v-13.6H47.5v13.6h140.6c0.6,0,1,0.4,1,1s-0.4,1-1,1H46.5
			c-0.6,0-1-0.4-1-1v-15.6c0-0.6,0.4-1,1-1h166.6c0.6,0,1,0.4,1,1v15.6C214.1,201.7,213.7,202.2,213.1,202.2z"/>
	</g>
	<g>
		<path class="st0" d="M211.3,13.6H44.7c-0.3,0-0.5-0.2-0.5-0.5s0.2-0.5,0.5-0.5h166.6c0.3,0,0.5,0.2,0.5,0.5S211.6,13.6,211.3,13.6
			z"/>
	</g>
	<g>
		<path class="st0" d="M213.1,193.9H46.5c-0.3,0-0.5-0.2-0.5-0.5s0.2-0.5,0.5-0.5h166.6c0.3,0,0.5,0.2,0.5,0.5
			S213.4,193.9,213.1,193.9z"/>
	</g>
	<g>
		<path class="st0" d="M81.9,251.7H68.2c-0.3,0-0.7-0.2-0.8-0.5c-0.2-0.3-0.2-0.6-0.1-0.9L89,200.8c0.2-0.4,0.5-0.6,0.9-0.6h13.7
			c0.3,0,0.7,0.2,0.8,0.5c0.2,0.3,0.2,0.6,0.1,0.9l-13.2,30.1c-0.2,0.5-0.8,0.7-1.3,0.5c-0.5-0.2-0.7-0.8-0.5-1.3l12.6-28.7H90.6
			l-20.8,47.5h11.6l5.1-11.5c0.2-0.5,0.8-0.7,1.3-0.5c0.5,0.2,0.7,0.8,0.5,1.3l-5.3,12.1C82.7,251.4,82.3,251.7,81.9,251.7z"/>
	</g>
	<g>
		<path class="st0" d="M75.1,251.2c-0.1,0-0.1,0-0.2,0c-0.3-0.1-0.4-0.4-0.3-0.7L96.3,201c0.1-0.3,0.4-0.4,0.7-0.3
			c0.3,0.1,0.4,0.4,0.3,0.7l-21.7,49.5C75.5,251.1,75.3,251.2,75.1,251.2z"/>
	</g>
	<g>
		<path class="st0" d="M184.5,251.2c-0.2,0-0.4-0.1-0.5-0.3l-21.7-49.5c-0.1-0.3,0-0.5,0.3-0.7c0.3-0.1,0.5,0,0.7,0.3l21.7,49.5
			c0.1,0.3,0,0.5-0.3,0.7C184.7,251.2,184.6,251.2,184.5,251.2z"/>
	</g>
	<g>
		<path class="st0" d="M191.4,251.7h-13.8c-0.4,0-0.8-0.2-0.9-0.6L155,201.6c-0.1-0.3-0.1-0.7,0.1-0.9c0.2-0.3,0.5-0.5,0.8-0.5h13.8
			c0.4,0,0.8,0.2,0.9,0.6l21.7,49.5c0.1,0.3,0.1,0.7-0.1,0.9C192.1,251.5,191.8,251.7,191.4,251.7z M178.3,249.7h11.6l-20.8-47.5
			h-11.6L178.3,249.7z"/>
	</g>
	<g>
		<g>
			<path class="st0" d="M25.4,170.3c-0.6,0-1-0.4-1-1V42.4c0-0.6,0.4-1,1-1s1,0.4,1,1v126.9C26.4,169.8,26,170.3,25.4,170.3z"/>
		</g>
		<g>
			<polygon class="st0" points="31.8,54.2 29.9,54.9 25.4,42.6 20.9,54.9 19,54.2 25.4,36.7 			"/>
		</g>
	</g>
	<g>
		<g>
			<path class="st0" d="M228,170.3H25.4c-0.6,0-1-0.4-1-1s0.4-1,1-1H228c0.6,0,1,0.4,1,1S228.6,170.3,228,170.3z"/>
		</g>
		<g>
			<polygon class="st0" points="216.2,175.6 215.5,173.8 227.8,169.3 215.5,164.8 216.2,162.9 233.7,169.3 			"/>
		</g>
	</g>
	<g>
		<path class="st0" d="M59.2,158.8H37.1c-0.6,0-1-0.4-1-1V82.1c0-0.6,0.4-1,1-1h22.1c0.6,0,1,0.4,1,1v27.7c0,0.6-0.4,1-1,1
			s-1-0.4-1-1V83.1H38.1v73.7h20.1V118c0-0.6,0.4-1,1-1s1,0.4,1,1v39.9C60.2,158.4,59.7,158.8,59.2,158.8z"/>
	</g>
	<g>
		<path class="st0" d="M54.4,152.9H41.8c-0.3,0-0.5-0.2-0.5-0.5V87.6c0-0.3,0.2-0.5,0.5-0.5h12.6c0.3,0,0.5,0.2,0.5,0.5v64.9
			C54.9,152.7,54.7,152.9,54.4,152.9z M42.3,151.9h11.6V88.1H42.3V151.9z"/>
	</g>
	<g>
		<path class="st0" d="M96.2,158.8H74.1c-0.6,0-1-0.4-1-1V36.7c0-0.6,0.4-1,1-1h22.1c0.6,0,1,0.4,1,1v121.1
			C97.2,158.4,96.8,158.8,96.2,158.8z M75.1,156.8h20.1V37.7H75.1V156.8z"/>
	</g>
	<g>
		<path class="st0" d="M91.5,152.9H78.9c-0.3,0-0.5-0.2-0.5-0.5v-107c0-0.3,0.2-0.5,0.5-0.5h12.6c0.3,0,0.5,0.2,0.5,0.5v107
			C92,152.7,91.8,152.9,91.5,152.9z M79.4,151.9H91v-106H79.4V151.9z"/>
	</g>
	<g>
		<path class="st0" d="M133.3,158.8h-22.1c-0.6,0-1-0.4-1-1V59.1c0-0.6,0.4-1,1-1h22.1c0.6,0,1,0.4,1,1v98.8
			C134.3,158.4,133.8,158.8,133.3,158.8z M112.2,156.8h20.1V60.1h-20.1V156.8z"/>
	</g>
	<g>
		<path class="st0" d="M115.9,87.9c-0.3,0-0.5-0.2-0.5-0.5v-3.3c0-0.3,0.2-0.5,0.5-0.5s0.5,0.2,0.5,0.5v3.3
			C116.4,87.7,116.2,87.9,115.9,87.9z"/>
	</g>
	<g>
		<path class="st0" d="M128.5,152.9h-12.6c-0.3,0-0.5-0.2-0.5-0.5V90.7c0-0.3,0.2-0.5,0.5-0.5s0.5,0.2,0.5,0.5v61.2H128V66.6h-11.6
			v11.2c0,0.3-0.2,0.5-0.5,0.5s-0.5-0.2-0.5-0.5V66.1c0-0.3,0.2-0.5,0.5-0.5h12.6c0.3,0,0.5,0.2,0.5,0.5v86.3
			C129,152.7,128.8,152.9,128.5,152.9z"/>
	</g>
	<g>
		<path class="st0" d="M170.3,158.8h-22.1c-0.6,0-1-0.4-1-1V47.9c0-0.6,0.4-1,1-1h22.1c0.6,0,1,0.4,1,1v109.9
			C171.3,158.4,170.9,158.8,170.3,158.8z M149.2,156.8h20.1V48.9h-20.1V156.8z"/>
	</g>
	<g>
		<path class="st0" d="M165.6,152.9H153c-0.3,0-0.5-0.2-0.5-0.5V55.8c0-0.3,0.2-0.5,0.5-0.5h12.6c0.3,0,0.5,0.2,0.5,0.5v96.6
			C166.1,152.7,165.9,152.9,165.6,152.9z M153.5,151.9h11.6V56.3h-11.6V151.9z"/>
	</g>
	<g>
		<path class="st0" d="M207.4,158.8h-22.1c-0.6,0-1-0.4-1-1V62c0-0.6,0.4-1,1-1h22.1c0.6,0,1,0.4,1,1v95.8
			C208.4,158.4,207.9,158.8,207.4,158.8z M186.3,156.8h20.1V63h-20.1V156.8z"/>
	</g>
	<g>
		<path class="st0" d="M202.6,152.9H190c-0.3,0-0.5-0.2-0.5-0.5v-21c0-0.3,0.2-0.5,0.5-0.5s0.5,0.2,0.5,0.5v20.5h11.6V69.4h-11.6v56
			c0,0.3-0.2,0.5-0.5,0.5s-0.5-0.2-0.5-0.5V68.9c0-0.3,0.2-0.5,0.5-0.5h12.6c0.3,0,0.5,0.2,0.5,0.5v83.5
			C203.1,152.7,202.9,152.9,202.6,152.9z"/>
	</g>
</g>
</svg>
