<svg xmlns="http://www.w3.org/2000/svg" id="Layer_1" x="0" y="0" enable-background="new 0 0 256 256" version="1.1" viewBox="0 0 256 256" xml:space="preserve"><style>.st0{fill:#48386A;}</style><path d="M132.4 240.4c-.3 0-.5-.2-.5-.5s.2-.5.5-.5c29.9-.4 57.9-12.3 79-33.4 26-26 38-63.3 31.9-99.7 0-.3.1-.5.4-.6.3-.1.5.1.6.4 6.2 36.7-5.9 74.3-32.1 100.6-21.3 21.3-49.7 33.3-79.8 33.7zM149.8 12.7s-.1 0 0 0c-8.1-1.4-16.4-1.8-24.6-1.5-.3 0-.5-.2-.5-.5s.2-.5.5-.5c8.2-.4 16.6.1 24.7 1.5.3 0 .5.3.4.6 0 .2-.3.4-.5.4zM16.1 125.8c-.3 0-.5-.2-.5-.5 0-30.8 12-59.7 33.7-81.4C68.1 25 93.1 13.2 119.6 10.6c.3 0 .5.2.5.4 0 .3-.2.5-.4.5C93.5 14 68.7 25.7 50 44.4 28.4 66 16.6 94.6 16.6 125.1c0 .4-.2.7-.5.7zM130.7 145.3c-5.1 0-10.3-2-14.2-5.9-7.8-7.8-7.8-20.5 0-28.4.8-.8 1.8-1.6 2.7-2.3.5-.3 1.1-.2 1.4.2.3.5.2 1.1-.2 1.4-.9.6-1.7 1.3-2.5 2.1-7 7-7 18.5 0 25.5s18.5 7 25.5 0 7-18.5 0-25.5c-4.6-4.6-11.4-6.4-17.7-4.6-.5.2-1.1-.2-1.2-.7-.1-.5.2-1.1.7-1.2 7-2 14.5 0 19.7 5.1 7.8 7.8 7.8 20.5 0 28.4-3.9 4-9 5.9-14.2 5.9z" class="st0"/><path d="M130.7 154.7c-7.5 0-15.1-2.9-20.8-8.6-.2-.2-.2-.5 0-.7s.5-.2.7 0c11.1 11.1 29.1 11.1 40.2 0 11.1-11.1 11.1-29.1 0-40.2-11.1-11.1-29.1-11.1-40.2 0-9.9 9.9-11.2 25.3-3.1 36.6.2.2.1.5-.1.7-.2.2-.5.1-.7-.1-8.4-11.7-7.1-27.7 3.2-37.9 11.5-11.5 30.2-11.5 41.6 0 11.5 11.5 11.5 30.2 0 41.6-5.7 5.7-13.2 8.6-20.8 8.6z" class="st0"/><path d="M130.7 165.5c-10.3 0-20.6-3.9-28.4-11.8-15.7-15.7-15.7-41.2 0-56.9 10.8-10.8 26.5-14.5 40.9-9.8 6 2 11.4 5.3 15.9 9.8 4.5 4.5 7.8 9.9 9.8 15.9 4.7 14.5 1 30.2-9.8 40.9-7.8 7.9-18.1 11.9-28.4 11.9zm0-78.5c-10 0-19.6 3.9-27 11.2-14.9 14.9-14.9 39.1 0 54s39.1 14.9 54 0c10.2-10.2 13.8-25.1 9.3-38.9-1.9-5.7-5-10.8-9.3-15.1-4.3-4.3-9.4-7.4-15.1-9.3-3.9-1.2-7.9-1.9-11.9-1.9z" class="st0"/><path d="M130.8 228.4c-4.7 0-9.3-.3-14-.9-.5-.1-.9-.5-.9-1l1.6-64c0-.3.2-.6.4-.8.3-.2.6-.2.9-.1 13.8 4.5 28.7.9 38.9-9.3 10.2-10.2 13.8-25.1 9.3-38.9-.2-.5.1-1.1.6-1.3l59.8-19.6c.3-.1.5-.1.8.1.2.1.4.3.5.6 12.1 37.2 2.5 77.4-25.1 105-5.5 5.5-11.6 10.4-18.1 14.5-.5.3-1.1.2-1.4-.3-.3-.5-.2-1.1.3-1.4 6.4-4 12.4-8.8 17.7-14.2 26.9-26.9 36.4-65.9 24.9-102l-58 19c4.3 14.2.4 29.5-10.1 40-10.4 10.5-25.5 14.3-39.7 10.2l-1.5 61.7c18.2 2.3 36.6-.3 53.3-7.7.5-.2 1.1 0 1.3.5.2.5 0 1.1-.5 1.3-12.8 5.7-26.8 8.6-41 8.6z" class="st0"/><path d="M178 216.9c-.4 0-.7-.2-.9-.5-.3-.5-.1-1.1.4-1.3l2.7-1.5c.5-.3 1.1-.1 1.4.4.3.5.1 1.1-.4 1.4-.9.5-1.9 1-2.8 1.5-.1-.1-.2 0-.4 0zM130.8 222.4c-2.7 0-5.5-.1-8.2-.3-.3 0-.5-.2-.5-.5l1.3-52.1c0-.1.1-.3.2-.4s.3-.1.4-.1c2.2.3 4.5.5 6.8.5 11.8 0 22.9-4.6 31.3-13 10.4-10.4 15-25.3 12.1-39.7 0-.2.1-.5.3-.6L224 100h.4c.1.1.2.2.2.3 9 33.8-.4 68.8-25.2 93.6-18.3 18.4-42.7 28.5-68.6 28.5zm-7.7-1.3c2.5.2 5.1.3 7.7.3 25.7 0 49.8-10 68-28.2 24.4-24.4 33.8-58.8 25.1-92.1L175.2 117c2.7 14.6-1.9 29.6-12.5 40.2-8.5 8.5-19.9 13.2-32 13.2-2.1 0-4.3-.2-6.4-.4l-1.2 51.1zM29.5 140.1c-.5 0-.9-.4-1-.9-4.4-32.2 6.3-63.9 29.3-86.9 27.6-27.6 67.9-37.2 105-25.1.3.1.5.3.6.5.1.2.1.5.1.8l-19.6 59.8c-.2.5-.7.8-1.3.6-13.8-4.5-28.7-.9-38.9 9.3-10.2 10.2-13.8 25.1-9.3 38.9.1.3 0 .6-.1.9-.2.3-.5.4-.8.4l-64 1.7zM130.6 24c-26.4 0-52 10.3-71.4 29.7-22.3 22.3-32.8 53-28.8 84.3l61.7-1.5c-4.1-14.1-.3-29.2 10.2-39.7 10.5-10.5 25.8-14.3 40-10.1l19-58c-10.2-3.1-20.5-4.7-30.7-4.7z" class="st0"/><path d="M34.4 133.9c-.3 0-.5-.2-.5-.5-2.3-26.9 6.4-52.9 24.4-73 .2-.2.5-.2.7 0 .2.2.2.5 0 .7-17.7 19.8-26.3 45.2-24.2 71.7l51-1.3c-2-14 2.8-28.3 12.8-38.3 8.5-8.5 19.9-13.2 32-13.2 2.8 0 5.5.3 8.2.7l15.9-48.6c-7.9-2-16-3.1-24.1-3.1-24.6 0-47.9 9.3-65.8 26.1-.2.2-.5.2-.7 0-.2-.2-.2-.5 0-.7 18.1-17 41.7-26.3 66.5-26.3 8.4 0 16.8 1.1 24.9 3.2.1 0 .2.1.3.2.1.1.1.3 0 .4l-16.2 49.5c-.1.2-.3.4-.6.3-2.8-.5-5.6-.8-8.5-.8-11.8 0-22.9 4.6-31.3 13-10 10-14.6 24.2-12.4 38 0 .1 0 .3-.1.4s-.2.2-.4.2l-51.9 1.4zM116.3 253h-.1c-29.2-3.3-55.6-16-76.4-36.8S6.3 169 3 139.8c0-.3.1-.6.2-.8s.4-.3.7-.3l89.5-2.2c.4 0 .8.3 1 .7.1.4.3.8.4 1.1l.4 1c.1.3.3.7.4 1 .4 1 .8 1.9 1.3 2.8.2.4.4.8.6 1.1.2.3.4.6.5.9l.1.1.6.9c.4.6.8 1.1 1.1 1.6 0 0 0 .1.1.1l.1.1c.3.5.7.9 1.1 1.4.3.4.6.7.9 1 .2.2.3.4.5.5.2.2.4.4.5.6.3.3.6.6.8.9.3.3.6.5.8.8.2.2.4.4.6.5.2.2.4.4.6.5.4.3.7.6 1 .9.5.4.9.7 1.4 1.1l.1.1s.1 0 .1.1c.5.3 1 .7 1.6 1.1l.9.6.1.1c.3.2.6.3.8.5l1.2.6c.9.5 1.9.9 2.8 1.3.3.2.7.3 1 .4l1 .4c.3.1.7.2 1 .3.4.1.8.6.8 1l-2.2 89.5c0 .3-.1.5-.3.7-.3.1-.6.2-.8.2zM5.1 140.7C8.5 169 21 194.6 41.2 214.8c20.2 20.2 45.8 32.7 74.1 36.1l2.2-87.6c-.2-.1-.3-.1-.4-.2l-1-.4c-.4-.1-.7-.3-1.1-.4-1-.4-1.9-.9-2.9-1.4-.4-.2-.8-.4-1.2-.7-.3-.1-.6-.3-.9-.5-.4-.2-.7-.4-1.1-.7-.6-.4-1.1-.8-1.6-1.1-.1-.1-.2-.1-.3-.2-.5-.3-.9-.7-1.4-1.1-.4-.3-.8-.6-1.1-.9-.2-.2-.4-.3-.6-.5-.2-.2-.4-.4-.7-.6-.3-.3-.6-.5-.9-.8-.3-.3-.6-.6-.8-.9l-.6-.6c-.2-.2-.4-.4-.5-.6-.3-.3-.6-.7-.9-1.1-.4-.5-.8-1-1.1-1.5-.1-.1-.1-.2-.2-.2-.3-.5-.7-1-1.1-1.6-.2-.3-.4-.7-.6-1-.2-.4-.4-.7-.6-1-.2-.4-.4-.8-.7-1.2-.5-1-1-2-1.4-3-.1-.3-.3-.7-.4-1.1l-.4-1c-.1-.2-.1-.3-.2-.5l-87.7 2.2z" class="st0"/><path d="M59 224.5c-.1 0-.2 0-.3-.1-1-.7-1.9-1.4-2.8-2.1-.2-.2-.3-.5-.1-.7.2-.2.5-.3.7-.1.9.7 1.9 1.4 2.8 2.1.2.2.3.5.1.7-.1.2-.3.2-.4.2z" class="st0"/><path d="M110.9 246.2c-18.3-3-35.2-9.8-50.2-20.3-.2-.2-.3-.5-.1-.7.2-.2.5-.3.7-.1 14.7 10.3 31.3 17.1 49.2 20l2-78.5c-.9-.4-1.8-.8-2.7-1.3-.5-.2-.9-.5-1.4-.7-.3-.2-.7-.4-1-.6-.4-.3-.8-.5-1.2-.8-.7-.4-1.3-.9-1.7-1.2-.2-.1-.3-.2-.4-.3l-1.5-1.2-.1-.1c-.4-.3-.8-.6-1.1-.9-.2-.2-.5-.4-.7-.6-.3-.2-.5-.5-.8-.7l-.9-.9-.9-.9c-.3-.3-.5-.5-.7-.8-.2-.2-.4-.5-.6-.6-.3-.4-.6-.8-1-1.1l-.1-.1c-.4-.5-.8-1-1.2-1.6-.1-.1-.2-.3-.3-.5-.3-.4-.7-1-1.2-1.7-.2-.4-.5-.8-.7-1.2-.2-.4-.4-.7-.6-1.1-.3-.4-.5-.9-.7-1.3-.5-.9-.9-1.8-1.3-2.7l-78.5 2c4.2 24.9 15.9 47.6 33.9 65.7 1.8 1.8 3.7 3.6 5.6 5.3.2.2.2.5 0 .7-.2.2-.5.2-.7 0-1.9-1.7-3.9-3.5-5.7-5.4C26 193.7 14.1 170.6 10 145.2c0-.1 0-.3.1-.4.1-.1.2-.2.4-.2l79.4-2c.2 0 .4.1.5.3.4 1 .9 2 1.4 3 .2.4.5.9.7 1.3.2.4.4.7.6 1 .3.4.5.8.7 1.2.4.6.8 1.2 1.2 1.7.1.2.2.3.3.4l1.2 1.5.1.1c.3.4.6.8 1 1.1.1.2.3.4.6.6.2.3.5.5.7.8l.9.9.9.9c.3.2.5.5.8.7.2.2.5.4.7.6.3.3.7.6 1.1.9l.1.1 1.5 1.2c.1.1.2.2.4.3.5.4 1.1.8 1.7 1.2.4.2.7.5 1.1.7.4.2.7.4 1.1.6.4.3.9.5 1.3.7 1 .5 2 1 3 1.4.2.1.3.3.3.5l-2 79.4c0 .1-.1.3-.2.4-.4.1-.5.1-.7.1zM96 144.5c-.4 0-.7-.2-.9-.5-.5-1-1-2-1.4-3-.2-.5 0-1.1.5-1.3.5-.2 1.1 0 1.3.5.4.9.8 1.8 1.3 2.8.3.5.1 1.1-.4 1.3-.1.2-.2.2-.4.2zM115.4 162.3c-.1 0-.3 0-.4-.1-1-.4-2-.9-3-1.4-.5-.3-.7-.9-.4-1.3.3-.5.9-.7 1.3-.4 1 .5 1.9 1 2.8 1.3.5.2.7.8.5 1.3-.1.4-.4.6-.8.6zM168 114.1c-.2 0-.3 0-.5-.1s-.4-.3-.5-.6c-1.9-5.7-5-10.8-9.3-15.1-4.3-4.3-9.4-7.4-15.1-9.3-.3-.1-.5-.3-.6-.5s-.1-.5-.1-.8l27.5-84c.2-.5.7-.8 1.3-.6 14.6 4.8 28.1 12 40.1 21.6.4.3.5 1 .2 1.4-.3.4-1 .5-1.4.2C198 17 185.1 10 171.1 5.3l-26.9 82.1c5.7 2 10.7 5.2 15 9.5 4.3 4.3 7.5 9.3 9.5 15L250.8 85c-6.2-18.6-16.5-35.2-30.5-49.2-1.3-1.3-2.7-2.7-4.1-3.9-.4-.4-.4-1-.1-1.4.4-.4 1-.4 1.4-.1 1.4 1.3 2.8 2.6 4.2 4 14.5 14.5 25 31.6 31.3 50.9.2.5-.1 1.1-.6 1.3l-84 27.5c-.2-.1-.3 0-.4 0z" class="st0"/><path d="M171.2 106.7c-.2 0-.4-.1-.5-.3-2.2-4.6-5.1-8.8-8.8-12.4-3.7-3.7-7.8-6.6-12.4-8.8-.2-.1-.3-.4-.3-.6l24.1-73.7c0-.1.1-.2.3-.3s.3-.1.4 0c16.3 6.1 30.9 15.6 43.3 28 12.4 12.4 21.9 27 28 43.3v.4c0 .1-.2.2-.3.3l-73.7 24.1h-.1zm-20.8-22.2c4.5 2.2 8.7 5.1 12.3 8.8 3.6 3.6 6.6 7.8 8.8 12.3l72.8-23.8c-6.1-16-15.4-30.2-27.6-42.5-12.2-12.2-26.5-21.5-42.5-27.6l-23.8 72.8z" class="st0"/></svg>