<?xml version="1.0" encoding="utf-8"?>
<!-- Generator: Adobe Illustrator 22.1.0, SVG Export Plug-In . SVG Version: 6.00 Build 0)  -->
<svg version="1.1" id="Layer_1" xmlns="http://www.w3.org/2000/svg" xmlns:xlink="http://www.w3.org/1999/xlink" x="0px" y="0px"
	 viewBox="0 0 256 256" style="enable-background:new 0 0 256 256;" xml:space="preserve">
<style type="text/css">
	.st0{fill:#48386A;}
</style>
<g>
	<g>
		<path class="st0" d="M132.8,196.4H110c-0.6,0-1-0.4-1-1V62.1c0-0.6,0.4-1,1-1h22.8c0.6,0,1,0.4,1,1v45.2c0,0.6-0.4,1-1,1
			s-1-0.4-1-1V63.1H111v131.3h20.8v-71.2c0-0.6,0.4-1,1-1s1,0.4,1,1v72.2C133.8,195.9,133.4,196.4,132.8,196.4z"/>
	</g>
	<g>
		<path class="st0" d="M132.8,117.7c-0.6,0-1-0.4-1-1v-3c0-0.6,0.4-1,1-1s1,0.4,1,1v3C133.8,117.3,133.4,117.7,132.8,117.7z"/>
	</g>
	<g>
		<path class="st0" d="M132.8,46.2H110c-0.6,0-1-0.4-1-1V29.4c0-6.8,5.6-12.4,12.4-12.4c3.3,0,6.4,1.3,8.8,3.6
			c2.3,2.3,3.6,5.5,3.6,8.8v15.9C133.8,45.8,133.4,46.2,132.8,46.2z M111,44.2h20.8V29.4c0-2.8-1.1-5.4-3-7.4c-2-2-4.6-3-7.4-3
			c-5.7,0-10.4,4.7-10.4,10.4V44.2z"/>
	</g>
	<g>
		<path class="st0" d="M127.9,45.7H115c-0.3,0-0.5-0.2-0.5-0.5V29.4c0-3.8,3.1-6.9,6.9-6.9c3.8,0,6.9,3.1,6.9,6.9v15.9
			C128.4,45.5,128.2,45.7,127.9,45.7z M115.5,44.7h11.9V29.4c0-3.3-2.7-5.9-5.9-5.9c-3.3,0-5.9,2.7-5.9,5.9V44.7z"/>
	</g>
	<g>
		<path class="st0" d="M127.9,196.4H115c-0.3,0-0.5-0.2-0.5-0.5V62.1c0-0.3,0.2-0.5,0.5-0.5h12.9c0.3,0,0.5,0.2,0.5,0.5v133.8
			C128.4,196.2,128.2,196.4,127.9,196.4z M115.5,195.4h11.9V62.6h-11.9V195.4z"/>
	</g>
	<g>
		<path class="st0" d="M227,63.1H29.8c-5.2,0-9.4-4.2-9.4-9.4c0-2.5,1-4.9,2.8-6.7c1.8-1.8,4.1-2.8,6.7-2.8h1.1c0.5,0,0.9,0.4,1,0.9
			c0.6,4.3,4.4,7.6,8.8,7.6c4.4,0,8.2-3.3,8.8-7.6c0.1-0.5,0.5-0.9,1-0.9h101.2c0.6,0,1,0.4,1,1s-0.4,1-1,1H51.3
			c-1.1,4.9-5.6,8.4-10.6,8.4s-9.5-3.6-10.6-8.4h-0.3c-2,0-3.8,0.8-5.2,2.2c-1.4,1.4-2.2,3.3-2.2,5.2c0,4.1,3.3,7.4,7.4,7.4H227
			c2,0,3.8-0.8,5.2-2.2c1.4-1.4,2.2-3.3,2.2-5.2c0-4.1-3.3-7.4-7.4-7.4h-0.3c-1.1,4.9-5.6,8.4-10.6,8.4s-9.5-3.6-10.6-8.4h-47.2
			c-0.6,0-1-0.4-1-1s0.4-1,1-1h48.1c0.5,0,0.9,0.4,1,0.9c0.6,4.3,4.4,7.6,8.8,7.6s8.2-3.3,8.8-7.6c0.1-0.5,0.5-0.9,1-0.9h1.1
			c5.2,0,9.4,4.2,9.4,9.4c0,2.5-1,4.9-2.8,6.7C231.9,62.1,229.5,63.1,227,63.1z"/>
	</g>
	<g>
		<path class="st0" d="M209.7,57.6h-83.5c-0.2,0-0.4-0.1-0.4-0.3c-0.1-0.2-0.1-0.4,0-0.5c0.7-0.9,1-2,1-3.2s-0.4-2.3-1-3.2
			c-0.1-0.2-0.1-0.4,0-0.5c0.1-0.2,0.3-0.3,0.4-0.3h76.5c0.2,0,0.4,0.1,0.5,0.3c1.4,2.9,3.8,5.3,6.7,6.7c0.2,0.1,0.3,0.3,0.3,0.6
			C210.1,57.5,209.9,57.6,209.7,57.6z M127.1,56.6h80.7c-2.3-1.5-4.1-3.5-5.4-5.9h-75.3c0.5,0.9,0.7,1.9,0.7,3
			S127.6,55.7,127.1,56.6z M116.7,57.6H81.9c-0.3,0-0.5-0.2-0.5-0.5s0.2-0.5,0.5-0.5h33.9c-0.5-0.9-0.7-1.9-0.7-3s0.3-2.1,0.7-3
			H54.4c-1.2,2.4-3.1,4.5-5.4,5.9h24c0.3,0,0.5,0.2,0.5,0.5s-0.2,0.5-0.5,0.5H47.1c-0.2,0-0.4-0.2-0.5-0.4c-0.1-0.2,0.1-0.5,0.3-0.6
			c2.9-1.4,5.3-3.8,6.7-6.7c0.1-0.2,0.3-0.3,0.5-0.3h62.6c0.2,0,0.4,0.1,0.4,0.3c0.1,0.2,0.1,0.4,0,0.5c-0.7,0.9-1,2-1,3.2
			s0.4,2.3,1,3.2c0.1,0.2,0.1,0.4,0,0.5C117.1,57.5,116.9,57.6,116.7,57.6z"/>
	</g>
	<g>
		<path class="st0" d="M73.4,135.9H8c-3.3,0-6-2.7-6-6c0-1.6,0.6-3.1,1.7-4.2c1.1-1.1,2.6-1.7,4.2-1.7h41.9c0.6,0,1,0.4,1,1
			s-0.4,1-1,1H8c-1.1,0-2.1,0.4-2.8,1.2C4.4,127.9,4,128.9,4,130c0,2.2,1.8,4,4,4h65.4c1.1,0,2-0.4,2.8-1.2c0.7-0.7,1.2-1.7,1.2-2.8
			c0-2.2-1.8-4-4-4H57c-0.6,0-1-0.4-1-1s0.4-1,1-1h16.4c3.3,0,6,2.7,6,6c0,1.6-0.6,3.1-1.7,4.2C76.4,135.3,75,135.9,73.4,135.9z"/>
	</g>
	<g>
		<path class="st0" d="M8.9,126c-0.1,0-0.3,0-0.4-0.1c-0.5-0.2-0.7-0.8-0.5-1.3l31.7-71.4c0.2-0.5,0.8-0.7,1.3-0.5
			c0.5,0.2,0.7,0.8,0.5,1.3L9.9,125.4C9.7,125.8,9.3,126,8.9,126z"/>
	</g>
	<g>
		<path class="st0" d="M71.4,126c-0.4,0-0.8-0.2-0.9-0.6L42.8,62.5c-0.2-0.5,0-1.1,0.5-1.3c0.5-0.2,1.1,0,1.3,0.5l27.7,62.9
			c0.2,0.5,0,1.1-0.5,1.3C71.7,126,71.5,126,71.4,126z"/>
	</g>
	<g>
		<path class="st0" d="M40.7,163.7c-5.7,0-11.4-1.5-16.3-4.2c-0.5-0.3-0.7-0.9-0.4-1.4c0.3-0.5,0.9-0.7,1.4-0.4c4.7,2.6,10,4,15.4,4
			c15.2,0,28.3-11,31.1-25.8H9.5c1.4,7.4,5.4,14.1,11.4,18.9c0.4,0.3,0.5,1,0.2,1.4c-0.3,0.4-1,0.5-1.4,0.2
			c-6.7-5.3-11.1-12.9-12.4-21.3c0-0.3,0-0.6,0.2-0.8c0.2-0.2,0.5-0.3,0.8-0.3H73c0.3,0,0.6,0.1,0.8,0.3c0.2,0.2,0.3,0.5,0.2,0.8
			C71.5,151.4,57.2,163.7,40.7,163.7z"/>
	</g>
	<g>
		<path class="st0" d="M40.7,158.2c-11.6,0-22.2-7.3-26.4-18.2c-0.1-0.3,0-0.5,0.3-0.6c0.3-0.1,0.5,0,0.6,0.3
			c4,10.5,14.3,17.5,25.5,17.5s21.4-7,25.5-17.5c0.1-0.3,0.4-0.4,0.6-0.3c0.3,0.1,0.4,0.4,0.3,0.6C62.9,150.9,52.3,158.2,40.7,158.2
			z"/>
	</g>
	<g>
		<path class="st0" d="M248,135.9h-65.4c-1.6,0-3.1-0.6-4.2-1.7c-1.1-1.1-1.7-2.6-1.7-4.2c0-3.3,2.7-6,6-6H248
			c1.6,0,3.1,0.6,4.2,1.7c1.1,1.1,1.7,2.6,1.7,4.2C254,133.3,251.3,135.9,248,135.9z M182.6,126c-2.2,0-4,1.8-4,4
			c0,1.1,0.4,2,1.2,2.8c0.7,0.7,1.7,1.2,2.8,1.2H248c2.2,0,4-1.8,4-4c0-1.1-0.4-2.1-1.2-2.8c-0.7-0.7-1.7-1.1-2.8-1.1H182.6z"/>
	</g>
	<g>
		<path class="st0" d="M247.1,126c-0.4,0-0.7-0.2-0.9-0.6l-31.7-71.4c-0.2-0.5,0-1.1,0.5-1.3c0.5-0.2,1.1,0,1.3,0.5l31.7,71.4
			c0.2,0.5,0,1.1-0.5,1.3C247.3,126,247.2,126,247.1,126z"/>
	</g>
	<g>
		<path class="st0" d="M184.6,126c-0.1,0-0.3,0-0.4-0.1c-0.5-0.2-0.7-0.8-0.5-1.3l27.7-62.9c0.2-0.5,0.8-0.7,1.3-0.5
			c0.5,0.2,0.7,0.8,0.5,1.3l-27.7,62.9C185.4,125.8,185,126,184.6,126z"/>
	</g>
	<g>
		<path class="st0" d="M215.3,163.7c-16.5,0-30.9-12.3-33.3-28.6c0-0.3,0-0.6,0.2-0.8c0.2-0.2,0.5-0.3,0.8-0.3h64.7
			c0.3,0,0.6,0.1,0.8,0.3c0.2,0.2,0.3,0.5,0.2,0.8C246.2,151.4,231.9,163.7,215.3,163.7z M184.2,135.9c2.8,14.8,16,25.8,31.1,25.8
			c15.2,0,28.3-11,31.1-25.8H184.2z"/>
	</g>
	<g>
		<path class="st0" d="M215.3,158.2c-11.6,0-22.2-7.3-26.4-18.2c-0.1-0.3,0-0.5,0.3-0.6c0.3-0.1,0.5,0,0.6,0.3
			c4,10.5,14.3,17.5,25.5,17.5s21.4-7,25.5-17.5c0.1-0.3,0.4-0.4,0.6-0.3c0.3,0.1,0.4,0.4,0.3,0.6
			C237.5,150.9,226.9,158.2,215.3,158.2z"/>
	</g>
	<g>
		<path class="st0" d="M78.3,130.5H3c-0.3,0-0.5-0.2-0.5-0.5s0.2-0.5,0.5-0.5h75.3c0.3,0,0.5,0.2,0.5,0.5S78.6,130.5,78.3,130.5z"/>
	</g>
	<g>
		<path class="st0" d="M253,130.5h-41.9c-0.3,0-0.5-0.2-0.5-0.5s0.2-0.5,0.5-0.5H253c0.3,0,0.5,0.2,0.5,0.5S253.3,130.5,253,130.5z"
			/>
	</g>
	<g>
		<path class="st0" d="M203.8,130.5h-26.1c-0.3,0-0.5-0.2-0.5-0.5s0.2-0.5,0.5-0.5h26.1c0.3,0,0.5,0.2,0.5,0.5
			S204.1,130.5,203.8,130.5z"/>
	</g>
	<g>
		<path class="st0" d="M147.9,210.6H95c-0.6,0-1-0.4-1-1v-14.2c0-0.6,0.4-1,1-1h52.9c0.6,0,1,0.4,1,1v14.2
			C148.9,210.2,148.4,210.6,147.9,210.6z M96,208.6h50.9v-12.2H96V208.6z"/>
	</g>
	<g>
		<path class="st0" d="M142.9,210.1H100c-0.3,0-0.5-0.2-0.5-0.5v-9.3c0-0.3,0.2-0.5,0.5-0.5h42.9c0.3,0,0.5,0.2,0.5,0.5v9.3
			C143.4,209.9,143.2,210.1,142.9,210.1z M100.5,209.1h41.9v-8.3h-41.9V209.1z"/>
	</g>
	<g>
		<path class="st0" d="M161.7,224.8H81.1c-0.6,0-1-0.4-1-1v-14.2c0-0.6,0.4-1,1-1h80.6c0.6,0,1,0.4,1,1v14.2
			C162.7,224.4,162.3,224.8,161.7,224.8z M82.1,222.8h78.6v-12.2H82.1V222.8z"/>
	</g>
	<g>
		<path class="st0" d="M156.8,224.3H86.1c-0.3,0-0.5-0.2-0.5-0.5v-9.3c0-0.3,0.2-0.5,0.5-0.5h12.7c0.3,0,0.5,0.2,0.5,0.5
			s-0.2,0.5-0.5,0.5H86.6v8.3h69.7v-8.3h-49.7c-0.3,0-0.5-0.2-0.5-0.5s0.2-0.5,0.5-0.5h50.2c0.3,0,0.5,0.2,0.5,0.5v9.3
			C157.3,224.1,157.1,224.3,156.8,224.3z"/>
	</g>
	<g>
		<path class="st0" d="M175.8,239h-83c-0.6,0-1-0.4-1-1s0.4-1,1-1h82v-12.2H68.1V237h18c0.6,0,1,0.4,1,1s-0.4,1-1,1h-19
			c-0.6,0-1-0.4-1-1v-14.2c0-0.6,0.4-1,1-1h108.7c0.6,0,1,0.4,1,1V238C176.8,238.6,176.3,239,175.8,239z"/>
	</g>
	<g>
		<path class="st0" d="M170.8,238.5H94.3c-0.3,0-0.5-0.2-0.5-0.5s0.2-0.5,0.5-0.5h76v-8.3H72.5v8.3h12.8c0.3,0,0.5,0.2,0.5,0.5
			s-0.2,0.5-0.5,0.5H72c-0.3,0-0.5-0.2-0.5-0.5v-9.3c0-0.3,0.2-0.5,0.5-0.5h98.8c0.3,0,0.5,0.2,0.5,0.5v9.3
			C171.3,238.3,171.1,238.5,170.8,238.5z"/>
	</g>
	<g>
		<path class="st0" d="M121.4,60.1c-2,0-4-1-5.2-2.6c-0.8-1.1-1.2-2.4-1.2-3.8s0.4-2.7,1.2-3.8c1.2-1.6,3.1-2.6,5.1-2.6
			c2,0,4,1,5.2,2.6c0.8,1.1,1.2,2.4,1.2,3.8s-0.4,2.7-1.2,3.8C125.4,59.1,123.5,60.1,121.4,60.1z M121.4,48.3
			c-1.7,0-3.3,0.8-4.3,2.2c-0.7,0.9-1,2-1,3.2s0.4,2.3,1,3.2c1,1.4,2.6,2.2,4.3,2.2s3.3-0.8,4.3-2.2c0.7-0.9,1-2,1-3.2
			s-0.4-2.3-1-3.2C124.8,49.1,123.2,48.3,121.4,48.3z"/>
	</g>
	<g>
		<path class="st0" d="M121.4,56.9c-1,0-2-0.5-2.6-1.3c-0.4-0.6-0.6-1.2-0.6-1.9s0.2-1.4,0.6-1.9c0.6-0.8,1.6-1.3,2.6-1.3
			s2,0.5,2.6,1.3c0.4,0.6,0.6,1.2,0.6,1.9s-0.2,1.4-0.6,1.9C123.5,56.4,122.5,56.9,121.4,56.9z M121.4,51.4c-0.7,0-1.4,0.3-1.8,0.9
			c-0.3,0.4-0.4,0.9-0.4,1.3s0.2,0.9,0.4,1.3c0.4,0.6,1.1,0.9,1.8,0.9s1.4-0.3,1.8-0.9c0.3-0.4,0.4-0.9,0.4-1.3s-0.2-0.9-0.4-1.3
			C122.8,51.7,122.2,51.4,121.4,51.4z"/>
	</g>
</g>
</svg>
