<?xml version="1.0" encoding="utf-8"?>
<!-- Generator: Adobe Illustrator 22.1.0, SVG Export Plug-In . SVG Version: 6.00 Build 0)  -->
<svg version="1.1" id="Layer_1" xmlns="http://www.w3.org/2000/svg" xmlns:xlink="http://www.w3.org/1999/xlink" x="0px" y="0px"
	 viewBox="0 0 256 256" style="enable-background:new 0 0 256 256;" xml:space="preserve">
<style type="text/css">
	.st0{fill:#48386A;}
</style>
<g>
	<g>
		<path class="st0" d="M85.9,106.6c-0.2,0-0.3,0-0.5-0.1c-0.3-0.2-0.5-0.5-0.5-0.9v-1c0-0.5,0.4-1,0.9-1c1.1-0.1,2.1-0.4,3.1-0.9
			l0,0c0.5-0.3,1.1-0.1,1.4,0.4c0.3,0.5,0.1,1.1-0.4,1.4c0,0,0,0,0,0l-3.5,2C86.2,106.5,86,106.6,85.9,106.6z"/>
	</g>
	<g>
		<path class="st0" d="M85.9,87.7c-0.2,0-0.3,0-0.5-0.1c-0.3-0.2-0.5-0.5-0.5-0.9V68.3c0-9.7,3.5-19,9.9-26.3c0.4-0.4,1-0.5,1.4-0.1
			c0.4,0.4,0.5,1,0.1,1.4c-6.1,6.9-9.4,15.8-9.4,25V85L155,45.7c-1.1-1.4-2.3-2.8-3.6-4.1c-7.1-7.1-16.6-11.1-26.7-11.1
			c-6.8,0-13.5,1.8-19.4,5.3c-0.5,0.3-1.1,0.1-1.4-0.3c-0.3-0.5-0.1-1.1,0.3-1.4c6.1-3.7,13.2-5.6,20.4-5.6
			c10.6,0,20.6,4.1,28.2,11.7c1.6,1.6,3.1,3.4,4.4,5.3c0.2,0.2,0.2,0.5,0.2,0.8c-0.1,0.3-0.2,0.5-0.5,0.6L86.4,87.6
			C86.2,87.7,86,87.7,85.9,87.7z"/>
	</g>
	<g>
		<path class="st0" d="M158.7,64.5c-0.3,0-0.7-0.2-0.9-0.5c-0.3-0.5-0.1-1.1,0.4-1.4l4.1-2.4c0.3-0.2,0.6-0.2,0.9,0
			c0.3,0.1,0.5,0.4,0.6,0.7c0.1,0.4,0.2,0.9,0.2,1.4c0,0.3,0,0.6-0.2,0.8c-0.2,0.2-0.5,0.3-0.8,0.3c-1.3-0.1-2.6,0.3-3.8,0.9
			C159.1,64.5,158.9,64.5,158.7,64.5z"/>
	</g>
	<g>
		<path class="st0" d="M85.9,125.5c-0.2,0-0.3,0-0.5-0.1c-0.3-0.2-0.5-0.5-0.5-0.9v-1.8c0-0.3,0.1-0.6,0.3-0.7
			c0.2-0.2,0.5-0.3,0.8-0.3c1.5,0.1,2.9-0.2,4.2-0.9l72.8-42c0.3-0.2,0.7-0.2,1,0c0.3,0.2,0.5,0.5,0.5,0.9v1.8
			c0,0.3-0.1,0.6-0.3,0.7s-0.5,0.3-0.8,0.3c-1.5-0.1-2.9,0.2-4.2,0.9l-72.8,42C86.2,125.4,86,125.5,85.9,125.5z"/>
	</g>
	<g>
		<path class="st0" d="M85.9,144.4c-0.2,0-0.3,0-0.5-0.1c-0.3-0.2-0.5-0.5-0.5-0.9v-1.8c0-0.3,0.1-0.6,0.3-0.7s0.5-0.3,0.8-0.3
			c1.5,0.1,2.9-0.2,4.2-0.9l72.8-42c0.3-0.2,0.7-0.2,1,0c0.3,0.2,0.5,0.5,0.5,0.9v1.8c0,0.3-0.1,0.6-0.3,0.7s-0.5,0.3-0.8,0.3
			c-1.5-0.1-2.9,0.2-4.2,0.9l-72.8,42C86.2,144.3,86,144.4,85.9,144.4z"/>
	</g>
	<g>
		<path class="st0" d="M163.5,170.2H85.9c-0.6,0-1-0.4-1-1v-8.8c0-0.3,0.1-0.6,0.3-0.7s0.5-0.3,0.8-0.3c1.5,0.1,2.9-0.2,4.2-0.9
			l51.3-29.6c0.5-0.3,1.1-0.1,1.4,0.4c0.3,0.5,0.1,1.1-0.4,1.4l-51.3,29.6c-1.3,0.8-2.8,1.2-4.3,1.2v6.7h75.6v-49.1l-11.9,6.9
			c-0.5,0.3-1.1,0.1-1.4-0.4c-0.3-0.5-0.1-1.1,0.4-1.4l13.4-7.7c0.3-0.2,0.7-0.2,1,0c0.3,0.2,0.5,0.5,0.5,0.9v51.9
			C164.5,169.8,164.1,170.2,163.5,170.2z"/>
	</g>
	<g>
		<path class="st0" d="M86.6,123.7c-0.3,0-0.6,0-0.9,0c-2.9-0.3-5.6-2-7.1-4.5c-0.8-1.4-1.2-3-1.2-4.6c0-3.3,1.8-6.3,4.6-7.9l6.8-4
			l69.3-40c1.5-0.9,3.2-1.3,4.9-1.2c3.2,0.1,6,1.8,7.6,4.6c0.8,1.4,1.2,3,1.2,4.6c0,3.3-1.8,6.3-4.6,7.9l-3.3,1.9l-72.8,42
			C89.8,123.3,88.2,123.7,86.6,123.7z M162.7,63.4c-1.2,0-2.4,0.3-3.5,0.9l-76.2,44c-2.2,1.3-3.6,3.6-3.6,6.2c0,1.3,0.3,2.5,1,3.6
			c1.2,2,3.2,3.3,5.5,3.5c1.5,0.1,2.9-0.2,4.2-0.9l76.2-44c2.2-1.3,3.6-3.6,3.6-6.2c0-1.3-0.3-2.5-1-3.6c-1.2-2.2-3.5-3.5-5.9-3.6
			C162.9,63.4,162.8,63.4,162.7,63.4z"/>
	</g>
	<g>
		<path class="st0" d="M86.6,142.6c-0.3,0-0.6,0-0.9,0c-2.9-0.3-5.6-1.9-7.1-4.5c-0.8-1.4-1.2-3-1.2-4.6c0-3.3,1.8-6.3,4.6-7.9
			l3.3-1.9l72.8-42c1.7-1,3.5-1.4,5.4-1.2c3,0.3,5.6,2,7.1,4.5c0.8,1.4,1.2,3,1.2,4.6c0,3.3-1.8,6.3-4.6,7.9l-3.3,1.9l-72.8,42
			C89.8,142.2,88.2,142.6,86.6,142.6z M162.7,82.3c-1.2,0-2.5,0.3-3.6,1l-76.2,44c-2.2,1.3-3.6,3.6-3.6,6.2c0,1.3,0.3,2.5,1,3.6
			c1.2,2,3.2,3.3,5.5,3.5c1.5,0.1,2.9-0.2,4.2-0.9l76.2-44c2.2-1.3,3.6-3.6,3.6-6.2c0-1.3-0.3-2.5-1-3.6c-1.2-2-3.2-3.3-5.5-3.5
			C163.2,82.3,163,82.3,162.7,82.3z"/>
	</g>
	<g>
		<path class="st0" d="M86.6,161.5c-0.3,0-0.6,0-0.9,0c-3-0.3-5.6-2-7.1-4.5c-0.8-1.4-1.2-3-1.2-4.6c0-3.3,1.8-6.3,4.6-7.9l3.3-1.9
			l72.8-42c1.7-1,3.5-1.4,5.4-1.2c3,0.3,5.6,2,7.1,4.5c0.8,1.4,1.2,3,1.2,4.6c0,3.3-1.8,6.3-4.6,7.9l-16.7,9.7
			c-0.5,0.3-1.1,0.1-1.4-0.4c-0.3-0.5-0.1-1.1,0.4-1.4l16.7-9.7c2.2-1.3,3.6-3.7,3.6-6.2c0-1.3-0.3-2.5-1-3.6
			c-1.2-2-3.2-3.3-5.5-3.5c-1.5-0.1-2.9,0.2-4.2,0.9l-76.2,44c-2.2,1.3-3.6,3.6-3.6,6.2c0,1.3,0.3,2.5,1,3.6c1.2,2,3.2,3.3,5.5,3.5
			c1.5,0.1,2.9-0.2,4.2-0.9l51.3-29.6c0.5-0.3,1.1-0.1,1.4,0.4c0.3,0.5,0.1,1.1-0.4,1.4l-51.3,29.6
			C89.8,161.1,88.2,161.5,86.6,161.5z"/>
	</g>
	<g>
		<path class="st0" d="M85.3,105.6c-3.3,0-6.3-1.8-8-4.6c-0.8-1.4-1.2-3-1.2-4.6c0-3.3,1.8-6.3,4.6-7.9L137.1,56l0,0l19.8-11.4
			c4.4-2.5,10-1,12.5,3.3c0.8,1.4,1.2,3,1.2,4.6c0,3.3-1.8,6.3-4.6,7.9L152.9,68l-63.1,36.4c-1.2,0.7-2.5,1.1-3.9,1.2
			C85.7,105.6,85.5,105.6,85.3,105.6z M138.1,57.7L81.7,90.3c-2.2,1.3-3.6,3.6-3.6,6.2c0,1.3,0.3,2.5,1,3.6c1.4,2.3,4,3.7,6.7,3.6
			c1.1-0.1,2.1-0.4,3.1-0.9l76.2-44c2.2-1.3,3.6-3.7,3.6-6.2c0-1.3-0.3-2.5-1-3.6c-2-3.4-6.4-4.6-9.8-2.6l-1,0.6L138.1,57.7z"/>
	</g>
	<g>
		<path class="st0" d="M167.4,191.8H82.6c-0.2,0-0.3-0.1-0.4-0.2c-2.3-3.4-3.6-7.4-3.6-11.5V178c0-0.3,0.2-0.5,0.5-0.5h42.1
			c0.3,0,0.5,0.2,0.5,0.5s-0.2,0.5-0.5,0.5H79.6v1.6c0,3.9,1.1,7.6,3.2,10.7h84.4c2.1-3.2,3.2-6.9,3.2-10.7v-1.6h-40.7
			c-0.3,0-0.5-0.2-0.5-0.5s0.2-0.5,0.5-0.5h41.2c0.3,0,0.5,0.2,0.5,0.5v2.1c0,4.1-1.2,8.1-3.6,11.5
			C167.8,191.7,167.6,191.8,167.4,191.8z"/>
	</g>
	<g>
		<path class="st0" d="M151,201H99c-6.9,0-13.4-3.4-17.3-9.1c-2.4-3.5-3.6-7.6-3.6-11.8v-10.8c0-0.6,0.4-1,1-1h91.8c0.6,0,1,0.4,1,1
			V180c0,4.2-1.3,8.3-3.6,11.8C164.4,197.5,157.9,201,151,201z M80.1,170.2v9.8c0,3.8,1.1,7.5,3.3,10.7c3.5,5.2,9.4,8.3,15.7,8.3
			H151c6.3,0,12.1-3.1,15.6-8.3c2.2-3.2,3.3-6.9,3.3-10.7v-9.8H80.1z"/>
	</g>
	<g>
		<path class="st0" d="M152.6,216.3H96.8c-0.6,0-1-0.4-1-1V200c0-0.6,0.4-1,1-1h55.8c0.6,0,1,0.4,1,1v15.3
			C153.6,215.8,153.1,216.3,152.6,216.3z M97.8,214.3h53.8V201H97.8V214.3z"/>
	</g>
	<g>
		<path class="st0" d="M152.6,231.5H96.8c-0.6,0-1-0.4-1-1v-15.3c0-0.6,0.4-1,1-1h55.8c0.6,0,1,0.4,1,1v15.3
			C153.6,231.1,153.1,231.5,152.6,231.5z M97.8,229.5h53.8v-13.3H97.8V229.5z"/>
	</g>
	<g>
		<path class="st0" d="M124.7,253c-13.6,0-25.5-9.1-28.8-22.2c-0.1-0.3,0-0.6,0.2-0.9s0.5-0.4,0.8-0.4h55.8c0.3,0,0.6,0.1,0.8,0.4
			s0.3,0.6,0.2,0.9c-1,3.8-2.9,7.5-5.8,11.1c-0.3,0.4-1,0.5-1.4,0.2c-0.4-0.3-0.5-1-0.2-1.4c2.4-3,4.1-6,5-9.1H98.1
			c3.5,11.5,14.3,19.5,26.6,19.5c5.4,0,10.7-1.6,15.2-4.6c0.5-0.3,1.1-0.2,1.4,0.3c0.3,0.5,0.2,1.1-0.3,1.4
			C136.1,251.3,130.5,253,124.7,253z"/>
	</g>
	<g>
		<path class="st0" d="M78.2,101c-0.2,0-0.3-0.1-0.4-0.3c-0.1-0.2-0.1-0.5,0.2-0.7L168.3,48c0.2-0.1,0.5-0.1,0.7,0.2
			c0.1,0.2,0.1,0.5-0.2,0.7L78.5,101C78.4,101,78.3,101,78.2,101z"/>
	</g>
	<g>
		<path class="st0" d="M149.3,80.1c-0.2,0-0.3-0.1-0.4-0.3c-0.1-0.2,0-0.5,0.2-0.7l21.1-11.8c0.2-0.1,0.5,0,0.7,0.2
			c0.1,0.2,0,0.5-0.2,0.7L149.5,80C149.4,80,149.4,80.1,149.3,80.1z"/>
	</g>
	<g>
		<path class="st0" d="M79.5,119.1c-0.2,0-0.3-0.1-0.4-0.3c-0.1-0.2,0-0.5,0.2-0.7l61.5-34.4c0.2-0.1,0.5,0,0.7,0.2
			c0.1,0.2,0,0.5-0.2,0.7l-61.5,34.4C79.7,119.1,79.6,119.1,79.5,119.1z"/>
	</g>
	<g>
		<path class="st0" d="M79.5,138c-0.2,0-0.3-0.1-0.4-0.3c-0.1-0.2-0.1-0.5,0.2-0.7L169.6,85c0.2-0.1,0.5-0.1,0.7,0.2
			c0.1,0.2,0.1,0.5-0.2,0.7L79.8,138C79.7,138,79.6,138,79.5,138z"/>
	</g>
	<g>
		<path class="st0" d="M100.9,144.6c-0.2,0-0.3-0.1-0.4-0.3c-0.1-0.2-0.1-0.5,0.2-0.7l69-39.8c0.2-0.1,0.5-0.1,0.7,0.2
			c0.1,0.2,0.1,0.5-0.2,0.7l-69,39.8C101,144.6,101,144.6,100.9,144.6z"/>
	</g>
	<g>
		<path class="st0" d="M79.5,156.9c-0.2,0-0.3-0.1-0.4-0.3c-0.1-0.2-0.1-0.5,0.2-0.7l12.2-7c0.2-0.1,0.5-0.1,0.7,0.2
			c0.1,0.2,0.1,0.5-0.2,0.7l-12.2,7C79.7,156.9,79.6,156.9,79.5,156.9z"/>
	</g>
	<g>
		<path class="st0" d="M125,15.8c-0.6,0-1-0.4-1-1V4c0-0.6,0.4-1,1-1s1,0.4,1,1v10.8C126,15.3,125.5,15.8,125,15.8z"/>
	</g>
	<g>
		<path class="st0" d="M86.8,26c-0.3,0-0.5-0.1-0.7-0.3l-8-8.2c-0.4-0.4-0.4-1,0-1.4c0.4-0.4,1-0.4,1.4,0l8,8.2c0.4,0.4,0.4,1,0,1.4
			C87.3,25.9,87,26,86.8,26z"/>
	</g>
	<g>
		<path class="st0" d="M170.9,26c-0.3,0-0.5-0.1-0.7-0.3c-0.4-0.4-0.4-1,0-1.4l8-8.2c0.4-0.4,1-0.4,1.4,0c0.4,0.4,0.4,1,0,1.4
			l-8,8.2C171.4,25.9,171.2,26,170.9,26z"/>
	</g>
</g>
</svg>
