<?xml version="1.0" encoding="utf-8"?>
<!-- Generator: Adobe Illustrator 22.1.0, SVG Export Plug-In . SVG Version: 6.00 Build 0)  -->
<svg version="1.1" id="Layer_1" xmlns="http://www.w3.org/2000/svg" xmlns:xlink="http://www.w3.org/1999/xlink" x="0px" y="0px"
	 viewBox="0 0 256 256" style="enable-background:new 0 0 256 256;" xml:space="preserve">
<style type="text/css">
	.st0{fill:#48386A;}
</style>
<g>
	<g>
		<path class="st0" d="M39.3,152c-0.6,0-1-0.4-1-1v-2.7c0-0.6,0.4-1,1-1s1,0.4,1,1v2.7C40.3,151.5,39.8,152,39.3,152z"/>
	</g>
	<g>
		<path class="st0" d="M191.6,228.3H39.3c-0.6,0-1-0.4-1-1v-72c0-0.6,0.4-1,1-1s1,0.4,1,1v71h150.3V5H40.3v137.4c0,0.6-0.4,1-1,1
			s-1-0.4-1-1V4c0-0.6,0.4-1,1-1h152.3c0.6,0,1,0.4,1,1v223.3C192.6,227.8,192.2,228.3,191.6,228.3z"/>
	</g>
	<g>
		<path class="st0" d="M204.2,240.8H51.8c-0.6,0-1-0.4-1-1v-12.5c0-0.6,0.4-1,1-1h138.8V16.5c0-0.6,0.4-1,1-1h12.5c0.6,0,1,0.4,1,1
			v223.3C205.2,240.4,204.7,240.8,204.2,240.8z M52.8,238.8h150.3V17.5h-10.5v209.8c0,0.6-0.4,1-1,1H52.8V238.8z"/>
	</g>
	<g>
		<path class="st0" d="M216.7,253.3H64.4c-0.6,0-1-0.4-1-1v-12.5c0-0.6,0.4-1,1-1h138.8V29.1c0-0.6,0.4-1,1-1h12.5c0.6,0,1,0.4,1,1
			v35c0,0.6-0.4,1-1,1s-1-0.4-1-1v-34h-10.5v209.7c0,0.6-0.4,1-1,1H65.4v10.5h150.3V72.2c0-0.6,0.4-1,1-1s1,0.4,1,1v180.2
			C217.7,252.9,217.3,253.3,216.7,253.3z"/>
	</g>
	<g>
		<path class="st0" d="M180.9,39.5h-131c-0.6,0-1-0.4-1-1v-22c0-0.6,0.4-1,1-1h131c0.6,0,1,0.4,1,1v22
			C181.9,39.1,181.5,39.5,180.9,39.5z M50.9,37.5h129v-20h-129V37.5z"/>
	</g>
	<g>
		<path class="st0" d="M175.3,33.8H55.5c-0.3,0-0.5-0.2-0.5-0.5V21.7c0-0.3,0.2-0.5,0.5-0.5h67.9c0.3,0,0.5,0.2,0.5,0.5
			s-0.2,0.5-0.5,0.5H56v10.6h118.8V22.2h-43.5c-0.3,0-0.5-0.2-0.5-0.5s0.2-0.5,0.5-0.5h44c0.3,0,0.5,0.2,0.5,0.5v11.6
			C175.8,33.6,175.6,33.8,175.3,33.8z"/>
	</g>
	<g>
		<path class="st0" d="M181,129.2H50c-0.6,0-1-0.4-1-1v-22c0-0.6,0.4-1,1-1h70.5c0.6,0,1,0.4,1,1s-0.4,1-1,1H51v20h129v-20h-52
			c-0.6,0-1-0.4-1-1s0.4-1,1-1h53c0.6,0,1,0.4,1,1v22C182,128.8,181.5,129.2,181,129.2z"/>
	</g>
	<g>
		<path class="st0" d="M175.4,123.5H55.5c-0.3,0-0.5-0.2-0.5-0.5v-11.6c0-0.3,0.2-0.5,0.5-0.5h119.8c0.3,0,0.5,0.2,0.5,0.5V123
			C175.9,123.2,175.7,123.5,175.4,123.5z M56,122.5h118.8v-10.6H56V122.5z"/>
	</g>
	<g>
		<path class="st0" d="M181,215.4h-65.5c-0.6,0-1-0.4-1-1v-74.6c0-0.6,0.4-1,1-1H181c0.6,0,1,0.4,1,1v51.6c0,0.6-0.4,1-1,1
			s-1-0.4-1-1v-50.6h-63.5v72.6H180v-11c0-0.6,0.4-1,1-1s1,0.4,1,1v12C182,214.9,181.5,215.4,181,215.4z"/>
	</g>
	<g>
		<path class="st0" d="M175.4,209.6H121c-0.3,0-0.5-0.2-0.5-0.5V145c0-0.3,0.2-0.5,0.5-0.5h13c0.3,0,0.5,0.2,0.5,0.5
			s-0.2,0.5-0.5,0.5h-12.5v63.2h53.3v-63.2h-32.8c-0.3,0-0.5-0.2-0.5-0.5s0.2-0.5,0.5-0.5h33.3c0.3,0,0.5,0.2,0.5,0.5v64.2
			C175.9,209.4,175.7,209.6,175.4,209.6z"/>
	</g>
	<g>
		<path class="st0" d="M68,89.2c-2.9,0-5.6-0.6-8.2-1.8c-0.5-0.2-0.7-0.8-0.5-1.3c0.2-0.5,0.8-0.7,1.3-0.5c2.3,1.1,4.7,1.6,7.3,1.6
			c9.4,0,17-7.6,17-17s-7.6-17-17-17c-9.4,0-17,7.6-17,17c0,4.7,1.9,9.1,5.3,12.3c0.4,0.4,0.4,1,0,1.4c-0.4,0.4-1,0.4-1.4,0
			c-3.8-3.6-5.9-8.5-5.9-13.7c0-10.5,8.5-19,19-19s19,8.5,19,19C86.9,80.7,78.4,89.2,68,89.2z"/>
	</g>
	<g>
		<path class="st0" d="M68,83.4c-7.3,0-13.3-5.9-13.3-13.3c0-7.3,5.9-13.3,13.3-13.3c3.2,0,6.3,1.2,8.7,3.2c0.2,0.2,0.2,0.5,0.1,0.7
			c-0.2,0.2-0.5,0.2-0.7,0.1c-2.2-1.9-5.1-3-8-3c-6.8,0-12.3,5.5-12.3,12.3S61.2,82.4,68,82.4S80.2,77,80.2,70.2
			c0-1.7-0.4-3.4-1.1-5c-0.1-0.3,0-0.5,0.3-0.7c0.3-0.1,0.5,0,0.7,0.3c0.8,1.7,1.1,3.5,1.1,5.4C81.2,77.5,75.3,83.4,68,83.4z"/>
	</g>
	<g>
		<path class="st0" d="M181,53.2H98.4c-0.6,0-1-0.4-1-1s0.4-1,1-1H181c0.6,0,1,0.4,1,1S181.5,53.2,181,53.2z"/>
	</g>
	<g>
		<path class="st0" d="M181,89.2H98.4c-0.6,0-1-0.4-1-1s0.4-1,1-1H181c0.6,0,1,0.4,1,1S181.5,89.2,181,89.2z"/>
	</g>
	<g>
		<path class="st0" d="M181,71.2h-78.2c-0.6,0-1-0.4-1-1s0.4-1,1-1H181c0.6,0,1,0.4,1,1S181.5,71.2,181,71.2z"/>
	</g>
	<g>
		<path class="st0" d="M98.6,140.2H50c-0.3,0-0.5-0.2-0.5-0.5s0.2-0.5,0.5-0.5h48.7c0.3,0,0.5,0.2,0.5,0.5S98.9,140.2,98.6,140.2z"
			/>
	</g>
	<g>
		<path class="st0" d="M105.6,155.1H50c-0.3,0-0.5-0.2-0.5-0.5s0.2-0.5,0.5-0.5h55.6c0.3,0,0.5,0.2,0.5,0.5S105.9,155.1,105.6,155.1
			z"/>
	</g>
	<g>
		<path class="st0" d="M98.6,169.9H50c-0.3,0-0.5-0.2-0.5-0.5s0.2-0.5,0.5-0.5h48.7c0.3,0,0.5,0.2,0.5,0.5S98.9,169.9,98.6,169.9z"
			/>
	</g>
	<g>
		<path class="st0" d="M91.7,184.7H50c-0.3,0-0.5-0.2-0.5-0.5s0.2-0.5,0.5-0.5h41.7c0.3,0,0.5,0.2,0.5,0.5S91.9,184.7,91.7,184.7z"
			/>
	</g>
	<g>
		<path class="st0" d="M105.6,199.5H50c-0.3,0-0.5-0.2-0.5-0.5s0.2-0.5,0.5-0.5h55.6c0.3,0,0.5,0.2,0.5,0.5S105.9,199.5,105.6,199.5
			z"/>
	</g>
	<g>
		<path class="st0" d="M99.7,214.3H73.5c-0.3,0-0.5-0.2-0.5-0.5s0.2-0.5,0.5-0.5h26.1c0.3,0,0.5,0.2,0.5,0.5S99.9,214.3,99.7,214.3z
			"/>
	</g>
	<g>
		<path class="st0" d="M66.3,214.3H54c-0.3,0-0.5-0.2-0.5-0.5s0.2-0.5,0.5-0.5h12.3c0.3,0,0.5,0.2,0.5,0.5S66.5,214.3,66.3,214.3z"
			/>
	</g>
</g>
</svg>
