<?xml version="1.0" encoding="utf-8"?>
<!-- Generator: Adobe Illustrator 22.1.0, SVG Export Plug-In . SVG Version: 6.00 Build 0)  -->
<svg version="1.1" id="Layer_1" xmlns="http://www.w3.org/2000/svg" xmlns:xlink="http://www.w3.org/1999/xlink" x="0px" y="0px"
	 viewBox="0 0 256 256" style="enable-background:new 0 0 256 256;" xml:space="preserve">
<style type="text/css">
	.st0{fill:#48386A;}
</style>
<g>
	<g>
		<g>
			<path class="st0" d="M245.6,213.3h-18c-0.6,0-1-0.4-1-1s0.4-1,1-1h18c3,0,5.4-2.4,5.4-5.4c0-3-2.4-5.4-5.4-5.4H10.4
				c-3,0-5.4,2.4-5.4,5.4c0,3,2.4,5.4,5.4,5.4H220c0.6,0,1,0.4,1,1s-0.4,1-1,1H10.4c-4.1,0-7.4-3.3-7.4-7.4c0-4.1,3.3-7.4,7.4-7.4
				h235.3c4.1,0,7.4,3.3,7.4,7.4C253,210,249.7,213.3,245.6,213.3z"/>
		</g>
		<g>
			<path class="st0" d="M161.9,207.7h-55.8c-0.3,0-0.5-0.2-0.5-0.5s0.2-0.5,0.5-0.5h55.5l4.9-6.7H89.5l4.9,6.7h5.6
				c0.3,0,0.5,0.2,0.5,0.5s-0.2,0.5-0.5,0.5h-5.9c-0.2,0-0.3-0.1-0.4-0.2l-5.6-7.7c-0.1-0.2-0.1-0.4,0-0.5c0.1-0.2,0.3-0.3,0.4-0.3
				h79c0.2,0,0.4,0.1,0.4,0.3c0.1,0.2,0.1,0.4,0,0.5l-5.6,7.7C162.2,207.7,162.1,207.7,161.9,207.7z"/>
		</g>
		<g>
			<path class="st0" d="M236.1,200.6H19.9c-0.6,0-1-0.4-1-1V48.7c0-3.3,2.7-6,6-6h206.2c3.3,0,6,2.7,6,6v15.8c0,0.6-0.4,1-1,1
				s-1-0.4-1-1V48.7c0-2.2-1.8-4-4-4H24.9c-2.2,0-4,1.8-4,4v149.8h214.2V71.2c0-0.6,0.4-1,1-1s1,0.4,1,1v128.3
				C237.1,200.1,236.6,200.6,236.1,200.6z"/>
		</g>
		<g>
			<path class="st0" d="M25.5,84.8c-0.6,0-1-0.4-1-1v-2.3c0-0.6,0.4-1,1-1s1,0.4,1,1v2.3C26.5,84.3,26.1,84.8,25.5,84.8z"/>
		</g>
		<g>
			<path class="st0" d="M230.5,194.9H25.5c-0.6,0-1-0.4-1-1V88.8c0-0.6,0.4-1,1-1s1,0.4,1,1v104.2h202.9V50.3H26.5v25.2
				c0,0.6-0.4,1-1,1s-1-0.4-1-1V49.3c0-0.6,0.4-1,1-1h204.9c0.6,0,1,0.4,1,1v144.6C231.5,194.5,231,194.9,230.5,194.9z"/>
		</g>
		<g>
			<path class="st0" d="M128,207.5c-0.3,0-0.5-0.2-0.5-0.5v-7.5c0-0.3,0.2-0.5,0.5-0.5s0.5,0.2,0.5,0.5v7.5
				C128.5,207.3,128.3,207.5,128,207.5z"/>
		</g>
		<g>
			<path class="st0" d="M182.7,194.9H73.3c-0.6,0-1-0.4-1-1v-31.7c0-0.6,0.4-1,1-1s1,0.4,1,1v30.7h107.4V85.6l-22.1-22.1H74.3V157
				c0,0.6-0.4,1-1,1s-1-0.4-1-1V62.5c0-0.6,0.4-1,1-1H160c0.3,0,0.5,0.1,0.7,0.3l22.7,22.7c0.2,0.2,0.3,0.4,0.3,0.7v108.7
				C183.7,194.5,183.2,194.9,182.7,194.9z"/>
		</g>
		<g>
			<path class="st0" d="M182.7,86.2H160c-0.6,0-1-0.4-1-1V62.5c0-0.4,0.2-0.8,0.6-0.9c0.4-0.2,0.8-0.1,1.1,0.2l22.7,22.7
				c0.3,0.3,0.4,0.7,0.2,1.1S183.1,86.2,182.7,86.2z M161,84.2h19.3L161,64.9V84.2z"/>
		</g>
		<g>
			<path class="st0" d="M114.1,102.1H79.9c-0.3,0-0.5-0.2-0.5-0.5V69.8c0-0.3,0.2-0.5,0.5-0.5H97c0.3,0,0.5,0.2,0.5,0.5
				s-0.2,0.5-0.5,0.5H80.4v30.8h33.3V70.3h-12.1c-0.3,0-0.5-0.2-0.5-0.5s0.2-0.5,0.5-0.5h12.6c0.3,0,0.5,0.2,0.5,0.5v31.8
				C114.6,101.9,114.4,102.1,114.1,102.1z"/>
		</g>
		<g>
			<path class="st0" d="M171.4,120.4h-18.7c-0.3,0-0.5-0.2-0.5-0.5s0.2-0.5,0.5-0.5h18.2v-10H80.4v10h66.3c0.3,0,0.5,0.2,0.5,0.5
				s-0.2,0.5-0.5,0.5H79.9c-0.3,0-0.5-0.2-0.5-0.5v-11c0-0.3,0.2-0.5,0.5-0.5h91.5c0.3,0,0.5,0.2,0.5,0.5v11
				C171.9,120.1,171.6,120.4,171.4,120.4z"/>
		</g>
		<g>
			<path class="st0" d="M171.4,137.2H79.9c-0.3,0-0.5-0.2-0.5-0.5v-11c0-0.3,0.2-0.5,0.5-0.5h91.5c0.3,0,0.5,0.2,0.5,0.5v11
				C171.9,137,171.6,137.2,171.4,137.2z M80.4,136.2h90.5v-10H80.4V136.2z"/>
		</g>
		<g>
			<path class="st0" d="M136.2,155.6H79.9c-0.3,0-0.5-0.2-0.5-0.5v-11c0-0.3,0.2-0.5,0.5-0.5h56.4c0.3,0,0.5,0.2,0.5,0.5v11
				C136.7,155.3,136.5,155.6,136.2,155.6z M80.4,154.6h55.4v-10H80.4V154.6z"/>
		</g>
		<g>
			<path class="st0" d="M136.2,173.7H79.9c-0.3,0-0.5-0.2-0.5-0.5v-11c0-0.3,0.2-0.5,0.5-0.5h56.4c0.3,0,0.5,0.2,0.5,0.5v11
				C136.7,173.5,136.5,173.7,136.2,173.7z M80.4,172.7h55.4v-10H80.4V172.7z"/>
		</g>
		<g>
			<path class="st0" d="M156.8,173.7c-8.3,0-15-6.7-15-15c0-3.4,1.1-6.7,3.3-9.4c0.2-0.2,0.5-0.3,0.7-0.1c0.2,0.2,0.3,0.5,0.1,0.7
				c-2,2.5-3.1,5.5-3.1,8.8c0,7.7,6.3,14,14,14c7.7,0,14-6.3,14-14s-6.3-14-14-14c-2.4,0-4.7,0.6-6.8,1.8c-0.2,0.1-0.5,0-0.7-0.2
				s0-0.5,0.2-0.7c2.2-1.2,4.7-1.9,7.3-1.9c8.3,0,15,6.7,15,15S165.1,173.7,156.8,173.7z"/>
		</g>
		<g>
			<path class="st0" d="M151.1,88.2h-32.6c-0.3,0-0.5-0.2-0.5-0.5s0.2-0.5,0.5-0.5h32.6c0.3,0,0.5,0.2,0.5,0.5
				S151.4,88.2,151.1,88.2z"/>
		</g>
		<g>
			<path class="st0" d="M165.4,95.1h-46.9c-0.3,0-0.5-0.2-0.5-0.5s0.2-0.5,0.5-0.5h46.9c0.3,0,0.5,0.2,0.5,0.5
				S165.7,95.1,165.4,95.1z"/>
		</g>
		<g>
			<path class="st0" d="M170.9,102.1h-52.4c-0.3,0-0.5-0.2-0.5-0.5s0.2-0.5,0.5-0.5h52.4c0.3,0,0.5,0.2,0.5,0.5
				S171.2,102.1,170.9,102.1z"/>
		</g>
	</g>
	<g>
		<path class="st0" d="M94.1,207.7H4c-0.3,0-0.5-0.2-0.5-0.5s0.2-0.5,0.5-0.5h90.1c0.3,0,0.5,0.2,0.5,0.5S94.4,207.7,94.1,207.7z"/>
	</g>
	<g>
		<path class="st0" d="M251.9,207.7h-90c-0.3,0-0.5-0.2-0.5-0.5s0.2-0.5,0.5-0.5h90c0.3,0,0.5,0.2,0.5,0.5S252.1,207.7,251.9,207.7z
			"/>
	</g>
</g>
</svg>
