<svg xmlns="http://www.w3.org/2000/svg" id="Layer_1" x="0" y="0" enable-background="new 0 0 256 256" version="1.1" viewBox="0 0 256 256" xml:space="preserve"><style>.st0{fill:#48386A;}</style><path d="M39.3 152c-.6 0-1-.4-1-1v-2.7c0-.6.4-1 1-1s1 .4 1 1v2.7c0 .5-.5 1-1 1z" class="st0"/><path d="M191.6 228.3H39.3c-.6 0-1-.4-1-1v-72c0-.6.4-1 1-1s1 .4 1 1v71h150.3V5H40.3v137.4c0 .6-.4 1-1 1s-1-.4-1-1V4c0-.6.4-1 1-1h152.3c.6 0 1 .4 1 1v223.3c0 .5-.4 1-1 1z" class="st0"/><path d="M204.2 240.8H51.8c-.6 0-1-.4-1-1v-12.5c0-.6.4-1 1-1h138.8V16.5c0-.6.4-1 1-1h12.5c.6 0 1 .4 1 1v223.3c.1.6-.4 1-.9 1zm-151.4-2h150.3V17.5h-10.5v209.8c0 .6-.4 1-1 1H52.8v10.5z" class="st0"/><path d="M216.7 253.3H64.4c-.6 0-1-.4-1-1v-12.5c0-.6.4-1 1-1h138.8V29.1c0-.6.4-1 1-1h12.5c.6 0 1 .4 1 1v35c0 .6-.4 1-1 1s-1-.4-1-1v-34h-10.5v209.7c0 .6-.4 1-1 1H65.4v10.5h150.3V72.2c0-.6.4-1 1-1s1 .4 1 1v180.2c0 .5-.4.9-1 .9zM180.9 39.5h-131c-.6 0-1-.4-1-1v-22c0-.6.4-1 1-1h131c.6 0 1 .4 1 1v22c0 .6-.4 1-1 1zm-130-2h129v-20h-129v20z" class="st0"/><path d="M175.3 33.8H55.5c-.3 0-.5-.2-.5-.5V21.7c0-.3.2-.5.5-.5h67.9c.3 0 .5.2.5.5s-.2.5-.5.5H56v10.6h118.8V22.2h-43.5c-.3 0-.5-.2-.5-.5s.2-.5.5-.5h44c.3 0 .5.2.5.5v11.6c0 .3-.2.5-.5.5zM181 129.2H50c-.6 0-1-.4-1-1v-22c0-.6.4-1 1-1h70.5c.6 0 1 .4 1 1s-.4 1-1 1H51v20h129v-20h-52c-.6 0-1-.4-1-1s.4-1 1-1h53c.6 0 1 .4 1 1v22c0 .6-.5 1-1 1z" class="st0"/><path d="M175.4 123.5H55.5c-.3 0-.5-.2-.5-.5v-11.6c0-.3.2-.5.5-.5h119.8c.3 0 .5.2.5.5V123c.1.2-.1.5-.4.5zm-119.4-1h118.8v-10.6H56v10.6zM181 215.4h-65.5c-.6 0-1-.4-1-1v-74.6c0-.6.4-1 1-1H181c.6 0 1 .4 1 1v51.6c0 .6-.4 1-1 1s-1-.4-1-1v-50.6h-63.5v72.6H180v-11c0-.6.4-1 1-1s1 .4 1 1v12c0 .5-.5 1-1 1z" class="st0"/><path d="M175.4 209.6H121c-.3 0-.5-.2-.5-.5V145c0-.3.2-.5.5-.5h13c.3 0 .5.2.5.5s-.2.5-.5.5h-12.5v63.2h53.3v-63.2H142c-.3 0-.5-.2-.5-.5s.2-.5.5-.5h33.3c.3 0 .5.2.5.5v64.2c.1.2-.1.4-.4.4zM68 89.2c-2.9 0-5.6-.6-8.2-1.8-.5-.2-.7-.8-.5-1.3.2-.5.8-.7 1.3-.5 2.3 1.1 4.7 1.6 7.3 1.6 9.4 0 17-7.6 17-17s-7.6-17-17-17-17 7.6-17 17c0 4.7 1.9 9.1 5.3 12.3.4.4.4 1 0 1.4-.4.4-1 .4-1.4 0-3.8-3.6-5.9-8.5-5.9-13.7 0-10.5 8.5-19 19-19s19 8.5 19 19-8.5 19-18.9 19z" class="st0"/><path d="M68 83.4c-7.3 0-13.3-5.9-13.3-13.3 0-7.3 5.9-13.3 13.3-13.3 3.2 0 6.3 1.2 8.7 3.2.2.2.2.5.1.7-.2.2-.5.2-.7.1-2.2-1.9-5.1-3-8-3-6.8 0-12.3 5.5-12.3 12.3S61.2 82.4 68 82.4 80.2 77 80.2 70.2c0-1.7-.4-3.4-1.1-5-.1-.3 0-.5.3-.7.3-.1.5 0 .7.3.8 1.7 1.1 3.5 1.1 5.4 0 7.3-5.9 13.2-13.2 13.2zM181 53.2H98.4c-.6 0-1-.4-1-1s.4-1 1-1H181c.6 0 1 .4 1 1s-.5 1-1 1zM181 89.2H98.4c-.6 0-1-.4-1-1s.4-1 1-1H181c.6 0 1 .4 1 1s-.5 1-1 1zM181 71.2h-78.2c-.6 0-1-.4-1-1s.4-1 1-1H181c.6 0 1 .4 1 1s-.5 1-1 1zM98.6 140.2H50c-.3 0-.5-.2-.5-.5s.2-.5.5-.5h48.7c.3 0 .5.2.5.5s-.3.5-.6.5zM105.6 155.1H50c-.3 0-.5-.2-.5-.5s.2-.5.5-.5h55.6c.3 0 .5.2.5.5s-.2.5-.5.5zM98.6 169.9H50c-.3 0-.5-.2-.5-.5s.2-.5.5-.5h48.7c.3 0 .5.2.5.5s-.3.5-.6.5zM91.7 184.7H50c-.3 0-.5-.2-.5-.5s.2-.5.5-.5h41.7c.3 0 .5.2.5.5s-.3.5-.5.5zM105.6 199.5H50c-.3 0-.5-.2-.5-.5s.2-.5.5-.5h55.6c.3 0 .5.2.5.5s-.2.5-.5.5zM99.7 214.3H73.5c-.3 0-.5-.2-.5-.5s.2-.5.5-.5h26.1c.3 0 .5.2.5.5s-.2.5-.4.5zM66.3 214.3H54c-.3 0-.5-.2-.5-.5s.2-.5.5-.5h12.3c.3 0 .5.2.5.5s-.3.5-.5.5z" class="st0"/></svg>