<?xml version="1.0" encoding="utf-8"?>
<!-- Generator: Adobe Illustrator 22.1.0, SVG Export Plug-In . SVG Version: 6.00 Build 0)  -->
<svg version="1.1" id="Layer_1" xmlns="http://www.w3.org/2000/svg" xmlns:xlink="http://www.w3.org/1999/xlink" x="0px" y="0px"
	 viewBox="0 0 256 256" style="enable-background:new 0 0 256 256;" xml:space="preserve">
<style type="text/css">
	.st0{fill:#48386A;}
</style>
<g>
	<g>
		<path class="st0" d="M175.5,253h-4.4c-0.6,0-1-0.4-1-1s0.4-1,1-1h4.4c0.6,0,1,0.4,1,1S176.1,253,175.5,253z"/>
	</g>
	<g>
		<path class="st0" d="M214.1,253h-33.6c-0.6,0-1-0.4-1-1s0.4-1,1-1h33.6c8,0,15.1-5.1,17.6-12.6c0.1-0.2,0.1-0.4,0.2-0.7
			c0.5-1.7,0.8-3.5,0.8-5.3v-94.2c0-2.3-0.4-4.5-1.2-6.5c-2.7-7.2-9.7-12.1-17.4-12.1H37.7c-6.2,0-11.6-3.5-14.4-8.5v121.3
			c0,1.8,0.3,3.6,0.8,5.3c0.1,0.2,0.1,0.4,0.2,0.7c2.6,7.6,9.6,12.6,17.6,12.6h118.6c0.6,0,1,0.4,1,1s-0.4,1-1,1H41.9
			c-8.8,0-16.7-5.6-19.5-14c-0.1-0.2-0.2-0.5-0.2-0.7c-0.6-1.9-0.9-3.9-0.9-5.9V103.2c0-0.6,0.4-1,1-1s1,0.4,1,1
			c0,7.9,6.4,14.4,14.4,14.4h176.4c8.5,0,16.3,5.4,19.3,13.4c0.9,2.3,1.3,4.7,1.3,7.2v94.2c0,2-0.3,4-0.9,5.9
			c-0.1,0.3-0.1,0.5-0.2,0.7C230.7,247.4,222.9,253,214.1,253z"/>
	</g>
	<g>
		<path class="st0" d="M43.9,119.6h-6.1c-9,0-16.4-7.3-16.4-16.4v-0.7c0-0.6,0-1.1,0.1-1.7c0.9-8.4,7.9-14.7,16.3-14.7h14.6
			c0.3,0,0.6,0.1,0.8,0.4c0.2,0.2,0.3,0.6,0.2,0.9l-8.4,31.5C44.7,119.3,44.3,119.6,43.9,119.6z M37.7,88.1
			c-7.4,0-13.5,5.5-14.3,12.9c-0.1,0.5-0.1,1-0.1,1.5v0.7c0,7.9,6.4,14.4,14.4,14.4h5.4L51,88.1H37.7z"/>
	</g>
	<g>
		<path class="st0" d="M232.9,239.7H23.2c-0.4,0-0.8-0.3-1-0.7c-0.5-1.8-0.8-3.6-0.9-5.5V131.3c0-0.6,0.4-1,1-1H62c0.6,0,1,0.4,1,1
			s-0.4,1-1,1H23.3v101.2c0,1.4,0.2,2.9,0.6,4.3h208.2c0.4-1.4,0.5-2.8,0.6-4.3v-95.3c0-0.6,0-1.1-0.1-1.5c-0.1-1.5-0.4-3-0.9-4.4
			h-158c-0.6,0-1-0.4-1-1s0.4-1,1-1h158.7c0.4,0,0.8,0.3,0.9,0.6c0.7,1.7,1.1,3.6,1.2,5.5c0.1,0.5,0.1,1.1,0.1,1.7v95.3
			c0,1.9-0.3,3.7-0.9,5.5C233.7,239.4,233.3,239.7,232.9,239.7z"/>
	</g>
	<g>
		<path class="st0" d="M233.7,234H130.5c-0.3,0-0.5-0.2-0.5-0.5s0.2-0.5,0.5-0.5h102.7v-94.8c0-0.4,0-0.8,0-1.1H22.8V233h92.6
			c0.3,0,0.5,0.2,0.5,0.5s-0.2,0.5-0.5,0.5H22.3c-0.3,0-0.5-0.2-0.5-0.5v-96.9c0-0.3,0.2-0.5,0.5-0.5h211.3c0.3,0,0.5,0.2,0.5,0.5
			c0.1,0.5,0.1,1.1,0.1,1.7v95.3C234.2,233.7,233.9,234,233.7,234z"/>
	</g>
	<g>
		<path class="st0" d="M233.7,203.4h-66.3c-12.5,0-22.6-10.1-22.6-22.6s10.1-22.6,22.6-22.6h39.3c0.6,0,1,0.4,1,1s-0.4,1-1,1h-39.3
			c-11.4,0-20.6,9.2-20.6,20.6c0,11.4,9.2,20.6,20.6,20.6h65.3v-41.2h-18.2c-0.6,0-1-0.4-1-1s0.4-1,1-1h19.2c0.6,0,1,0.4,1,1v43.2
			C234.7,202.9,234.2,203.4,233.7,203.4z"/>
	</g>
	<g>
		<path class="st0" d="M233.7,196.4h-66.3c-8.6,0-15.6-7-15.6-15.6c0-8.6,7-15.6,15.6-15.6h66.3c0.6,0,1,0.4,1,1v29.2
			C234.7,195.9,234.2,196.4,233.7,196.4z M167.3,167.2c-7.5,0-13.6,6.1-13.6,13.6s6.1,13.6,13.6,13.6h65.3v-27.2H167.3z"/>
	</g>
	<g>
		<path class="st0" d="M167.1,190.7c-5.9,0-10.6-4.8-10.6-10.6s4.8-10.6,10.6-10.6c5.9,0,10.6,4.8,10.6,10.6c0,0.3-0.2,0.5-0.5,0.5
			s-0.5-0.2-0.5-0.5c0-5.3-4.3-9.6-9.6-9.6s-9.6,4.3-9.6,9.6c0,5.3,4.3,9.6,9.6,9.6c3.5,0,6.7-1.9,8.4-5c0.1-0.2,0.4-0.3,0.7-0.2
			c0.2,0.1,0.3,0.4,0.2,0.7C174.6,188.6,171,190.7,167.1,190.7z"/>
	</g>
	<g>
		<path class="st0" d="M197.9,119.6h-75.1c-0.3,0-0.6-0.1-0.8-0.4c-0.2-0.2-0.3-0.6-0.2-0.9L152.6,3.7c0.1-0.5,0.7-0.9,1.2-0.7
			l35.6,9.5c0.5,0.1,0.9,0.7,0.7,1.2c-0.1,0.5-0.7,0.9-1.2,0.7l-34.6-9.3l-30.1,112.4h73l25.2-94.1l-24.7-6.6
			c-0.5-0.1-0.9-0.7-0.7-1.2c0.1-0.5,0.7-0.9,1.2-0.7l25.7,6.9c0.5,0.1,0.9,0.7,0.7,1.2l-25.7,95.8
			C198.8,119.3,198.4,119.6,197.9,119.6z"/>
	</g>
	<g>
		<path class="st0" d="M188.3,119.6h-55.8c-0.3,0-0.6-0.1-0.8-0.4c-0.2-0.2-0.3-0.6-0.2-0.9l25.2-94.3c0.1-0.5,0.7-0.9,1.2-0.7
			c2,0.5,4.1,0.3,5.9-0.8c1.8-1,3.1-2.7,3.6-4.8c0.1-0.3,0.2-0.5,0.5-0.6c0.2-0.1,0.5-0.2,0.8-0.1l35,9.4c0.5,0.1,0.8,0.7,0.7,1.2
			c-1.1,4.2,1.4,8.5,5.5,9.6c0.5,0.1,0.8,0.7,0.7,1.2l-21.5,80.3C189.1,119.3,188.7,119.6,188.3,119.6z M133.8,117.6h53.7l21.1-78.6
			c-4.3-1.7-6.9-6.2-6.2-10.8l-33.2-8.9c-0.8,2.1-2.3,3.9-4.3,5c-2,1.1-4.3,1.6-6.5,1.2L133.8,117.6z"/>
	</g>
	<g>
		<path class="st0" d="M183.9,119.1h-47.1c-0.2,0-0.3-0.1-0.4-0.2c-0.1-0.1-0.1-0.3-0.1-0.4l24-89.8c0.1-0.2,0.2-0.4,0.5-0.4
			c3.8-0.3,7.4-2.3,9.6-5.5c0.1-0.2,0.3-0.3,0.5-0.2l28.2,7.6c0.2,0.1,0.4,0.2,0.4,0.4c0.3,3.8,2.3,7.4,5.5,9.6
			c0.2,0.1,0.3,0.3,0.2,0.5l-20.9,78C184.3,118.9,184.1,119.1,183.9,119.1z M137.5,118.1h46l20.7-77.3c-3.2-2.3-5.3-5.9-5.6-9.8
			l-27.5-7.4c-2.3,3.2-5.9,5.3-9.8,5.6L137.5,118.1z"/>
	</g>
	<g>
		<path class="st0" d="M166.1,109.7c-1.1,0-2.2-0.1-3.2-0.4c-4.8-1.3-8.5-5.4-10.5-11.6c-1.9-6.1-1.9-13.5,0.1-20.9
			c4.1-15.3,15.4-25.6,25.3-22.9c2.8,0.8,5.4,2.6,7.4,5.3c0.2,0.2,0.1,0.5-0.1,0.7c-0.2,0.2-0.5,0.1-0.7-0.1
			c-1.9-2.5-4.2-4.2-6.8-4.9c-9.3-2.5-20.1,7.5-24.1,22.2c-1.9,7.2-2,14.4-0.1,20.3c1.8,5.9,5.3,9.7,9.8,10.9
			c4.5,1.2,9.4-0.4,13.9-4.6c4.6-4.2,8.2-10.5,10.1-17.7c1.6-6.1,1.9-12.2,0.8-17.7c-0.1-0.3,0.1-0.5,0.4-0.6
			c0.3-0.1,0.5,0.1,0.6,0.4c1.2,5.6,0.9,11.9-0.8,18.1c-2,7.4-5.7,13.8-10.4,18.1C174,107.9,170,109.7,166.1,109.7z"/>
	</g>
	<g>
		<path class="st0" d="M122.8,119.6H83.3c-0.3,0-0.6-0.1-0.8-0.4c-0.2-0.2-0.3-0.6-0.2-0.9L113.1,3.7c0.1-0.5,0.7-0.9,1.2-0.7
			l36.8,9.9c0.3,0.1,0.5,0.2,0.6,0.5c0.1,0.2,0.2,0.5,0.1,0.8l-28.1,104.7C123.7,119.3,123.3,119.6,122.8,119.6z M84.6,117.6h37.4
			l27.6-103l-34.9-9.3L84.6,117.6z"/>
	</g>
	<g>
		<path class="st0" d="M122.8,119.6H93c-0.3,0-0.6-0.1-0.8-0.4c-0.2-0.2-0.3-0.6-0.2-0.9l25.2-94.3c0.1-0.5,0.7-0.8,1.2-0.7
			c4.2,1.1,8.5-1.4,9.6-5.5c0.1-0.3,0.2-0.5,0.5-0.6c0.2-0.1,0.5-0.2,0.8-0.1l19.3,5.2c0.5,0.1,0.9,0.7,0.7,1.2l-25.6,95.3
			C123.7,119.3,123.3,119.6,122.8,119.6z M94.3,117.6h27.8L147.2,24l-17.4-4.7c-1.6,4.3-6.2,6.9-10.8,6.2L94.3,117.6z"/>
	</g>
	<g>
		<path class="st0" d="M122.8,119.1H97.3c-0.2,0-0.3-0.1-0.4-0.2c-0.1-0.1-0.1-0.3-0.1-0.4l1.7-6.5c0.1-0.3,0.3-0.4,0.6-0.4
			c0.3,0.1,0.4,0.3,0.4,0.6l-1.6,5.9h24.5l24.4-90.7l-15.2-3.7c-2.3,3.2-5.9,5.3-9.8,5.7l-19.9,74.1c-0.1,0.3-0.3,0.4-0.6,0.4
			c-0.3-0.1-0.4-0.3-0.4-0.6l20-74.4c0.1-0.2,0.2-0.4,0.5-0.4c3.8-0.3,7.4-2.3,9.6-5.5c0.1-0.2,0.3-0.3,0.5-0.2l16.1,3.9
			c0.1,0,0.2,0.1,0.3,0.2c0.1,0.1,0.1,0.3,0.1,0.4l-24.6,91.6C123.2,118.9,123,119.1,122.8,119.1z"/>
	</g>
	<g>
		<path class="st0" d="M125.4,109.7C125.3,109.7,125.3,109.7,125.4,109.7c-0.7-0.1-1.3-0.2-2-0.4c-3.4-0.9-6.4-3.3-8.5-7
			c-3.8-6.5-4.5-16-1.9-25.5c4.1-15.3,15.5-25.6,25.3-22.9c0.7,0.2,1.3,0.4,1.9,0.7c0.2,0.1,0.3,0.3,0.3,0.6l-14.5,54.2
			C125.8,109.5,125.6,109.7,125.4,109.7z M135,54.4c-8.5,0-17.6,9.4-21.1,22.6c-2.5,9.2-1.8,18.5,1.8,24.8c2,3.4,4.7,5.7,7.9,6.5
			c0.4,0.1,0.9,0.2,1.3,0.3l14.3-53.3c-0.4-0.2-0.9-0.3-1.3-0.4C137,54.6,136,54.4,135,54.4z"/>
	</g>
	<g>
		<path class="st0" d="M83.3,119.6H43.9c-0.3,0-0.6-0.1-0.8-0.4c-0.2-0.2-0.3-0.6-0.2-0.9l17.9-66.6c0.1-0.5,0.7-0.9,1.2-0.7
			c0.5,0.1,0.9,0.7,0.7,1.2l-17.5,65.4h37.4l27.6-103L75.3,5.2L64.9,44c-0.1,0.5-0.7,0.9-1.2,0.7c-0.5-0.1-0.9-0.7-0.7-1.2L73.6,3.7
			c0.1-0.5,0.7-0.9,1.2-0.7l36.8,9.9c0.3,0.1,0.5,0.2,0.6,0.5c0.1,0.2,0.2,0.5,0.1,0.8L84.3,118.8C84.2,119.3,83.8,119.6,83.3,119.6
			z"/>
	</g>
	<g>
		<path class="st0" d="M83.3,119.6H53.5c-0.3,0-0.6-0.1-0.8-0.4c-0.2-0.2-0.3-0.6-0.2-0.9l25.2-94.3c0.1-0.5,0.7-0.8,1.2-0.7
			c4.2,1.1,8.5-1.4,9.6-5.5c0.1-0.3,0.2-0.5,0.5-0.6c0.2-0.1,0.5-0.2,0.8-0.1l19.3,5.2c0.5,0.1,0.9,0.7,0.7,1.2l-25.6,95.3
			C84.2,119.3,83.8,119.6,83.3,119.6z M54.8,117.6h27.8L107.7,24l-17.4-4.7c-1.6,4.3-6.2,6.9-10.8,6.2L54.8,117.6z"/>
	</g>
	<g>
		<path class="st0" d="M83.3,119.1H57.9c-0.2,0-0.3-0.1-0.4-0.2s-0.1-0.3-0.1-0.4l24-89.8c0.1-0.2,0.2-0.4,0.5-0.4
			c3.8-0.3,7.4-2.3,9.6-5.5c0.1-0.2,0.3-0.3,0.5-0.2l15.9,4.2c0.1,0,0.2,0.1,0.3,0.2c0.1,0.1,0.1,0.3,0.1,0.4l-24.5,91.3
			C83.8,118.9,83.6,119.1,83.3,119.1z M58.6,118.1h24.3l24.3-90.5l-15.1-4c-2.3,3.2-5.9,5.3-9.8,5.6L58.6,118.1z"/>
	</g>
	<g>
		<path class="st0" d="M85.9,109.7C85.8,109.7,85.8,109.7,85.9,109.7c-0.7-0.1-1.3-0.2-2-0.4c-3.4-0.9-6.4-3.3-8.5-7
			c-3.8-6.5-4.5-16-1.9-25.5c4.1-15.3,15.5-25.6,25.3-22.9c0.7,0.2,1.3,0.4,1.9,0.7c0.2,0.1,0.3,0.3,0.3,0.6l-14.5,54.2
			C86.3,109.5,86.1,109.7,85.9,109.7z M95.6,54.4c-8.5,0-17.6,9.4-21.1,22.6c-2.5,9.2-1.8,18.5,1.8,24.8c2,3.4,4.7,5.7,7.9,6.5
			c0.4,0.1,0.9,0.2,1.3,0.3l14.3-53.3c-0.4-0.2-0.9-0.3-1.3-0.4C97.5,54.6,96.5,54.4,95.6,54.4z"/>
	</g>
	<g>
		<path class="st0" d="M219,120.2c-0.1,0-0.2,0-0.3,0c-1.5-0.4-3.1-0.6-4.6-0.6h-16.1c-0.3,0-0.6-0.1-0.8-0.4
			c-0.2-0.2-0.3-0.6-0.2-0.9l8.2-30.6c0.1-0.3,0.3-0.5,0.5-0.6c0.2-0.1,0.5-0.1,0.8-0.1c5.6,2.1,10.1,6.5,12.2,12.1
			c0.9,2.3,1.3,4.7,1.3,7.2v12.8c0,0.3-0.1,0.6-0.4,0.8C219.4,120.1,219.2,120.2,219,120.2z M199.2,117.6h14.8
			c1.3,0,2.6,0.1,3.9,0.4v-11.5c0-2.3-0.4-4.5-1.2-6.5c-1.8-4.7-5.4-8.5-10-10.5L199.2,117.6z"/>
	</g>
</g>
</svg>
