<?xml version="1.0" encoding="utf-8"?>
<!-- Generator: Adobe Illustrator 22.1.0, SVG Export Plug-In . SVG Version: 6.00 Build 0)  -->
<svg version="1.1" id="Layer_1" xmlns="http://www.w3.org/2000/svg" xmlns:xlink="http://www.w3.org/1999/xlink" x="0px" y="0px"
	 viewBox="0 0 256 256" style="enable-background:new 0 0 256 256;" xml:space="preserve">
<style type="text/css">
	.st0{fill:#48386A;}
</style>
<g>
	<g>
		<path class="st0" d="M169.7,230.5h-31.3c-0.6,0-1-0.4-1-1s0.4-1,1-1h31.3c2.3,0,4.2-1.9,4.2-4.2V115.7c0-2.3-1.9-4.2-4.2-4.2H9.2
			c-2.3,0-4.2,1.9-4.2,4.2v108.6c0,2.3,1.9,4.2,4.2,4.2h123.5c0.6,0,1,0.4,1,1s-0.4,1-1,1H9.2c-3.4,0-6.2-2.8-6.2-6.2V115.7
			c0-3.4,2.8-6.2,6.2-6.2h160.5c3.4,0,6.2,2.8,6.2,6.2v108.6C175.8,227.7,173.1,230.5,169.7,230.5z"/>
	</g>
	<g>
		<path class="st0" d="M166.6,221.8H12.2c-0.3,0-0.5-0.2-0.5-0.5V118.8c0-0.3,0.2-0.5,0.5-0.5h154.3c0.3,0,0.5,0.2,0.5,0.5v10.3
			c0,0.3-0.2,0.5-0.5,0.5s-0.5-0.2-0.5-0.5v-9.8H12.7v101.4h153.3V134c0-0.3,0.2-0.5,0.5-0.5s0.5,0.2,0.5,0.5v87.3
			C167.1,221.5,166.9,221.8,166.6,221.8z"/>
	</g>
	<g>
		<path class="st0" d="M54,162.7h-1.1c-0.6,0-1-0.4-1-1s0.4-1,1-1H54c0.6,0,1,0.4,1,1S54.6,162.7,54,162.7z"/>
	</g>
	<g>
		<path class="st0" d="M77.9,162.7h-20c-0.6,0-1-0.4-1-1s0.4-1,1-1h19v-30.6H23.6v30.6h24.9c0.6,0,1,0.4,1,1s-0.4,1-1,1H22.6
			c-0.6,0-1-0.4-1-1v-32.6c0-0.6,0.4-1,1-1h55.3c0.6,0,1,0.4,1,1v32.6C78.9,162.3,78.5,162.7,77.9,162.7z"/>
	</g>
	<g>
		<path class="st0" d="M73.8,158.1H26.7c-0.3,0-0.5-0.2-0.5-0.5v-24.3c0-0.3,0.2-0.5,0.5-0.5h47.1c0.3,0,0.5,0.2,0.5,0.5v24.3
			C74.3,157.9,74.1,158.1,73.8,158.1z M27.2,157.1h46.1v-23.3H27.2V157.1z"/>
	</g>
	<g>
		<path class="st0" d="M156.3,180.3h-27c-0.3,0-0.5-0.2-0.5-0.5s0.2-0.5,0.5-0.5h27c0.3,0,0.5,0.2,0.5,0.5S156.5,180.3,156.3,180.3z
			"/>
	</g>
	<g>
		<path class="st0" d="M125.3,180.3H95.4c-0.3,0-0.5-0.2-0.5-0.5s0.2-0.5,0.5-0.5h29.9c0.3,0,0.5,0.2,0.5,0.5
			S125.6,180.3,125.3,180.3z"/>
	</g>
	<g>
		<path class="st0" d="M146,190.3H95.4c-0.3,0-0.5-0.2-0.5-0.5s0.2-0.5,0.5-0.5H146c0.3,0,0.5,0.2,0.5,0.5S146.2,190.3,146,190.3z"
			/>
	</g>
	<g>
		<path class="st0" d="M135.6,200.4H95.4c-0.3,0-0.5-0.2-0.5-0.5s0.2-0.5,0.5-0.5h40.2c0.3,0,0.5,0.2,0.5,0.5
			S135.9,200.4,135.6,200.4z"/>
	</g>
	<g>
		<path class="st0" d="M125.3,210.4H95.4c-0.3,0-0.5-0.2-0.5-0.5s0.2-0.5,0.5-0.5h29.9c0.3,0,0.5,0.2,0.5,0.5
			S125.6,210.4,125.3,210.4z"/>
	</g>
	<g>
		<path class="st0" d="M246.8,146.4h-72c-0.6,0-1-0.4-1-1v-29.7c0-2.3-1.9-4.2-4.2-4.2H81.2c-0.6,0-1-0.4-1-1V31.6
			c0-3.4,2.8-6.2,6.2-6.2h160.5c3.4,0,6.2,2.8,6.2,6.2V74c0,0.6-0.4,1-1,1s-1-0.4-1-1V31.6c0-2.3-1.9-4.2-4.2-4.2H86.3
			c-2.3,0-4.2,1.9-4.2,4.2v77.9h87.5c3.4,0,6.2,2.8,6.2,6.2v28.7h71c2.3,0,4.2-1.9,4.2-4.2V93.1c0-0.6,0.4-1,1-1s1,0.4,1,1v47.2
			C253,143.7,250.2,146.4,246.8,146.4z"/>
	</g>
	<g>
		<path class="st0" d="M252,89.3c-0.6,0-1-0.4-1-1v-4.8c0-0.6,0.4-1,1-1s1,0.4,1,1v4.8C253,88.9,252.6,89.3,252,89.3z"/>
	</g>
	<g>
		<path class="st0" d="M243.8,137.7h-68.9c-0.3,0-0.5-0.2-0.5-0.5v-21.4c0-2.6-2.1-4.7-4.7-4.7h-40.2c-0.2,0-0.4-0.1-0.5-0.4
			c-0.1-0.2,0-0.4,0.2-0.6l32.1-21.3c0.2-0.1,0.4-0.1,0.6,0l4.7,3.6l4.7-3.6c0.2-0.1,0.4-0.1,0.6,0l72.2,47.9
			c0.2,0.1,0.3,0.3,0.2,0.6C244.2,137.5,244,137.7,243.8,137.7z M175.3,136.7h66.8l-70.5-46.8l-4.7,3.6c-0.2,0.1-0.4,0.1-0.6,0
			l-4.7-3.6l-30.4,20.2h38.5c3.1,0,5.7,2.5,5.7,5.7V136.7z"/>
	</g>
	<g>
		<path class="st0" d="M166.6,93.6c-0.1,0-0.2,0-0.3-0.1L89.1,35.1c-0.2-0.1-0.2-0.4-0.2-0.6s0.3-0.3,0.5-0.3h42.3
			c0.3,0,0.5,0.2,0.5,0.5s-0.2,0.5-0.5,0.5H90.9l75.7,57.2l75.7-57.2h-96.1c-0.3,0-0.5-0.2-0.5-0.5s0.2-0.5,0.5-0.5h97.6
			c0.2,0,0.4,0.1,0.5,0.3c0.1,0.2,0,0.4-0.2,0.6l-77.2,58.3C166.8,93.5,166.7,93.6,166.6,93.6z"/>
	</g>
	<g>
		<path class="st0" d="M142.9,35.2h-3.5c-0.3,0-0.5-0.2-0.5-0.5s0.2-0.5,0.5-0.5h3.5c0.3,0,0.5,0.2,0.5,0.5S143.2,35.2,142.9,35.2z"
			/>
	</g>
	<g>
		<path class="st0" d="M243.8,137.7c-0.1,0-0.2,0-0.3-0.1l-72.2-47.9c-0.1-0.1-0.2-0.2-0.2-0.4c0-0.2,0.1-0.3,0.2-0.4l72.2-54.5
			c0.2-0.1,0.4-0.1,0.5,0c0.2,0.1,0.3,0.3,0.3,0.4v102.4c0,0.2-0.1,0.4-0.3,0.4C243.9,137.7,243.8,137.7,243.8,137.7z M172.5,89.3
			l70.8,47V35.7L172.5,89.3z"/>
	</g>
	<g>
		<path class="st0" d="M129.5,111.1H89.4c-0.3,0-0.5-0.2-0.5-0.5V34.7c0-0.2,0.1-0.4,0.3-0.4c0.2-0.1,0.4-0.1,0.5,0l67.7,51.2
			l4.4,3.3c0.1,0.1,0.2,0.3,0.2,0.4c0,0.2-0.1,0.3-0.2,0.4L129.8,111C129.7,111,129.6,111.1,129.5,111.1z M89.9,110.1h39.4
			l31.4-20.8l-3.8-2.9L89.9,35.7V110.1z"/>
	</g>
</g>
</svg>
