<?xml version="1.0" encoding="utf-8"?>
<!-- Generator: Adobe Illustrator 22.1.0, SVG Export Plug-In . SVG Version: 6.00 Build 0)  -->
<svg version="1.1" id="Layer_1" xmlns="http://www.w3.org/2000/svg" xmlns:xlink="http://www.w3.org/1999/xlink" x="0px" y="0px"
	 viewBox="0 0 256 256" style="enable-background:new 0 0 256 256;" xml:space="preserve">
<style type="text/css">
	.st0{fill:#48386A;}
</style>
<g>
	<g>
		<path class="st0" d="M239.4,211.1H16.4c-7.4,0-13.4-6-13.4-13.4V38.7c0-7.4,6-13.4,13.4-13.4H42c0.6,0,1,0.4,1,1s-0.4,1-1,1H16.4
			c-6.3,0-11.4,5.1-11.4,11.4v159.1c0,6.3,5.1,11.4,11.4,11.4h222.9c6.3,0,11.4-5.1,11.4-11.4V38.7c0-6.3-5.1-11.4-11.4-11.4H49.5
			c-0.6,0-1-0.4-1-1s0.4-1,1-1h189.9c7.4,0,13.4,6,13.4,13.4v159.1C252.7,205.1,246.7,211.1,239.4,211.1z"/>
	</g>
	<g>
		<path class="st0" d="M239.4,204.5H16.4c-3.7,0-6.7-3-6.7-6.7V38.7c0-3.7,3-6.7,6.7-6.7h222.9c3.7,0,6.7,3,6.7,6.7V100
			c0,0.3-0.2,0.5-0.5,0.5s-0.5-0.2-0.5-0.5V38.7c0-3.1-2.5-5.7-5.7-5.7H16.4c-3.1,0-5.7,2.5-5.7,5.7v159.1c0,3.1,2.5,5.7,5.7,5.7
			h222.9c3.1,0,5.7-2.5,5.7-5.7v-92.6c0-0.3,0.2-0.5,0.5-0.5s0.5,0.2,0.5,0.5v92.6C246,201.5,243.1,204.5,239.4,204.5z"/>
	</g>
	<g>
		<path class="st0" d="M127.9,137.7c-5.2,0-10.1-2-13.7-5.7c-3.7-3.7-5.7-8.6-5.7-13.8c0-5.2,2-10.1,5.7-13.7
			c3.7-3.7,8.6-5.7,13.7-5.7c5.2,0,10.1,2,13.7,5.7c3.7,3.7,5.7,8.6,5.7,13.7c0,5.2-2,10.1-5.7,13.8l0,0
			C138,135.6,133.1,137.7,127.9,137.7z M127.9,100.8c-4.7,0-9,1.8-12.3,5.1c-3.3,3.3-5.1,7.7-5.1,12.3c0,4.7,1.8,9,5.1,12.3
			c3.3,3.3,7.7,5.1,12.3,5.1c4.7,0,9-1.8,12.3-5.1c3.3-3.3,5.1-7.7,5.1-12.3c0-4.7-1.8-9-5.1-12.3
			C136.9,102.6,132.6,100.8,127.9,100.8z M140.9,131.3L140.9,131.3L140.9,131.3z"/>
	</g>
	<g>
		<path class="st0" d="M233.2,192.6H179c-0.6,0-1-0.4-1-1s0.4-1,1-1h53.2v-22.7h-16.1c-5.1,0-9.2-4.1-9.2-9.2c0-2.5,1-4.8,2.7-6.5
			c1.8-1.7,4.1-2.7,6.5-2.7h16.1V87.1h-16.1c-5.1,0-9.2-4.1-9.2-9.2c0-2.5,1-4.8,2.7-6.5c1.7-1.7,4.1-2.7,6.5-2.7h16.1V45.9H23.6
			v144.7h146.9c0.6,0,1,0.4,1,1s-0.4,1-1,1H22.6c-0.6,0-1-0.4-1-1V44.9c0-0.6,0.4-1,1-1h210.6c0.6,0,1,0.4,1,1v24.7c0,0.6-0.4,1-1,1
			h-17.1c-1.9,0-3.8,0.8-5.1,2.1c-1.4,1.4-2.1,3.2-2.1,5.1c0,4,3.3,7.2,7.2,7.2h17.1c0.6,0,1,0.4,1,1v64.3c0,0.6-0.4,1-1,1h-17.1
			c-1.9,0-3.8,0.8-5.1,2.1c-1.4,1.4-2.1,3.2-2.1,5.1c0,4,3.3,7.2,7.2,7.2h17.1c0.6,0,1,0.4,1,1v24.7
			C234.2,192.1,233.7,192.6,233.2,192.6z"/>
	</g>
	<g>
		<path class="st0" d="M236.7,167.9h-20.6c-5.1,0-9.2-4.1-9.2-9.2c0-2.5,1-4.8,2.7-6.5c1.8-1.7,4.1-2.7,6.5-2.7h20.6
			c5.1,0,9.2,4.1,9.2,9.2c0,2.5-1,4.8-2.7,6.5C241.5,166.9,239.1,167.9,236.7,167.9z M216.1,151.4c-1.9,0-3.8,0.8-5.1,2.1
			c-1.4,1.4-2.1,3.2-2.1,5.1c0,4,3.3,7.2,7.2,7.2h20.6c1.9,0,3.8-0.8,5.1-2.1c1.4-1.4,2.1-3.2,2.1-5.1c0-4-3.3-7.2-7.2-7.2H216.1z"
			/>
	</g>
	<g>
		<path class="st0" d="M236.7,163.6h-20.6c-2.8,0-5-2.3-5-5c0-2.8,2.3-5,5-5h20.6c2.8,0,5,2.3,5,5
			C241.7,161.4,239.5,163.6,236.7,163.6z M216.1,154.6c-2.2,0-4,1.8-4,4c0,2.2,1.8,4,4,4h20.6c2.2,0,4-1.8,4-4c0-2.2-1.8-4-4-4
			H216.1z"/>
	</g>
	<g>
		<path class="st0" d="M236.7,87.1h-20.6c-5.1,0-9.2-4.1-9.2-9.2c0-2.5,1-4.8,2.7-6.5c1.7-1.7,4.1-2.7,6.5-2.7h20.6
			c5.1,0,9.2,4.1,9.2,9.2c0,2.5-1,4.8-2.7,6.5C241.5,86.1,239.1,87.1,236.7,87.1z M216.1,70.6c-1.9,0-3.8,0.8-5.1,2.1
			c-1.4,1.4-2.1,3.2-2.1,5.1c0,4,3.3,7.2,7.2,7.2h20.6c1.9,0,3.8-0.8,5.1-2.1c1.4-1.4,2.1-3.2,2.1-5.1c0-4-3.3-7.2-7.2-7.2H216.1z"
			/>
	</g>
	<g>
		<path class="st0" d="M236.7,82.9h-20.6c-2.8,0-5-2.3-5-5c0-2.8,2.3-5,5-5h5.2c0.3,0,0.5,0.2,0.5,0.5s-0.2,0.5-0.5,0.5h-5.2
			c-2.2,0-4,1.8-4,4s1.8,4,4,4h20.6c2.2,0,4-1.8,4-4s-1.8-4-4-4h-11c-0.3,0-0.5-0.2-0.5-0.5s0.2-0.5,0.5-0.5h11c2.8,0,5,2.3,5,5
			C241.7,80.6,239.5,82.9,236.7,82.9z"/>
	</g>
	<g>
		<path class="st0" d="M127.9,131c-3.4,0-6.6-1.3-9-3.7c0,0,0,0-0.1-0.1c-2.4-2.4-3.7-5.6-3.7-8.9c0-3.4,1.3-6.6,3.7-9
			c0.9-0.9,2-1.7,3.1-2.3c0.2-0.1,0.5,0,0.7,0.2c0.1,0.2,0,0.5-0.2,0.7c-1.1,0.6-2,1.3-2.9,2.1c-2.2,2.2-3.5,5.2-3.5,8.3
			c0,3.1,1.2,6.1,3.5,8.3c0,0,0,0,0.1,0.1c2.2,2.2,5.1,3.4,8.2,3.4c3.1,0,6.1-1.2,8.3-3.5c2.2-2.2,3.5-5.2,3.5-8.3
			c0-3.1-1.2-6-3.4-8.2c0,0,0,0-0.1-0.1c-2.2-2.2-5.2-3.5-8.3-3.5c-0.8,0-1.5,0.1-2.3,0.2c-0.3,0.1-0.5-0.1-0.6-0.4
			c-0.1-0.3,0.1-0.5,0.4-0.6c0.8-0.2,1.6-0.2,2.5-0.2c3.4,0,6.5,1.3,9,3.7c0,0,0,0,0.1,0.1c2.4,2.4,3.7,5.6,3.7,9
			c0,3.4-1.3,6.6-3.7,9C134.5,129.7,131.3,131,127.9,131z"/>
	</g>
	<g>
		<path class="st0" d="M127.9,159.6c-22.8,0-41.4-18.6-41.4-41.4c0-22.8,18.6-41.4,41.4-41.4c4.2,0,8.3,0.6,12.3,1.9
			c0.5,0.2,0.8,0.7,0.7,1.3c-0.2,0.5-0.7,0.8-1.3,0.7c-3.8-1.2-7.7-1.8-11.7-1.8c-21.7,0-39.4,17.7-39.4,39.4
			c0,21.7,17.7,39.4,39.4,39.4s39.4-17.7,39.4-39.4c0-15.8-9.4-30-23.9-36.2c-0.5-0.2-0.7-0.8-0.5-1.3c0.2-0.5,0.8-0.7,1.3-0.5
			c15.2,6.5,25.1,21.5,25.1,38.1C169.3,141,150.7,159.6,127.9,159.6z"/>
	</g>
	<g>
		<path class="st0" d="M168.3,118.7h-21.9c-0.3,0-0.5-0.2-0.5-0.5s0.2-0.5,0.5-0.5h21.9c0.3,0,0.5,0.2,0.5,0.5
			S168.6,118.7,168.3,118.7z"/>
	</g>
	<g>
		<path class="st0" d="M109.5,118.7H87.5c-0.3,0-0.5-0.2-0.5-0.5s0.2-0.5,0.5-0.5h21.9c0.3,0,0.5,0.2,0.5,0.5
			S109.7,118.7,109.5,118.7z"/>
	</g>
	<g>
		<path class="st0" d="M127.9,100.3c-0.3,0-0.5-0.2-0.5-0.5V77.8c0-0.3,0.2-0.5,0.5-0.5s0.5,0.2,0.5,0.5v21.9
			C128.4,100.1,128.2,100.3,127.9,100.3z"/>
	</g>
	<g>
		<path class="st0" d="M127.9,159.1c-0.3,0-0.5-0.2-0.5-0.5v-22c0-0.3,0.2-0.5,0.5-0.5s0.5,0.2,0.5,0.5v22
			C128.4,158.9,128.2,159.1,127.9,159.1z"/>
	</g>
	<g>
		<path class="st0" d="M140.9,105.7c-0.1,0-0.3,0-0.4-0.1c-0.2-0.2-0.2-0.5,0-0.7l15.5-15.5c0.2-0.2,0.5-0.2,0.7,0s0.2,0.5,0,0.7
			l-15.5,15.5C141.2,105.6,141.1,105.7,140.9,105.7z"/>
	</g>
	<g>
		<path class="st0" d="M99.3,147.3c-0.1,0-0.3,0-0.4-0.1c-0.2-0.2-0.2-0.5,0-0.7l5.2-5.2c0.2-0.2,0.5-0.2,0.7,0s0.2,0.5,0,0.7
			l-5.2,5.2C99.6,147.2,99.5,147.3,99.3,147.3z"/>
	</g>
	<g>
		<path class="st0" d="M107.5,139.1c-0.1,0-0.3,0-0.4-0.1c-0.2-0.2-0.2-0.5,0-0.7l7.4-7.4c0.2-0.2,0.5-0.2,0.7,0s0.2,0.5,0,0.7
			l-7.4,7.4C107.7,139.1,107.6,139.1,107.5,139.1z"/>
	</g>
	<g>
		<path class="st0" d="M114.9,105.7c-0.1,0-0.3,0-0.4-0.1L99,90c-0.2-0.2-0.2-0.5,0-0.7s0.5-0.2,0.7,0l15.5,15.5
			c0.2,0.2,0.2,0.5,0,0.7C115.1,105.6,115,105.7,114.9,105.7z"/>
	</g>
	<g>
		<path class="st0" d="M156.5,147.3c-0.1,0-0.3,0-0.4-0.1l-15.5-15.5c-0.2-0.2-0.2-0.5,0-0.7s0.5-0.2,0.7,0l15.5,15.5
			c0.2,0.2,0.2,0.5,0,0.7C156.7,147.2,156.6,147.3,156.5,147.3z"/>
	</g>
	<g>
		<path class="st0" d="M50.2,174.2c-8.6,0-15.6-7-15.6-15.6c0-5.5,3-10.7,7.7-13.5c0.3-0.2,0.7-0.2,1,0c0.3,0.2,0.5,0.5,0.5,0.9
			v13.4c0,3.5,2.9,6.4,6.4,6.4c3.5,0,6.4-2.9,6.4-6.4V146c0-0.4,0.2-0.7,0.5-0.9c0.3-0.2,0.7-0.2,1,0c4.8,2.8,7.7,8,7.7,13.5
			C65.8,167.2,58.8,174.2,50.2,174.2z M41.8,147.9c-3.2,2.6-5.2,6.5-5.2,10.7c0,7.5,6.1,13.6,13.6,13.6c7.5,0,13.6-6.1,13.6-13.6
			c0-4.2-2-8.2-5.2-10.7v11.5c0,4.6-3.8,8.4-8.4,8.4s-8.4-3.8-8.4-8.4V147.9z"/>
	</g>
	<g>
		<path class="st0" d="M42.8,113.3c-0.6,0-1-0.4-1-1v-2.6c0-0.6,0.4-1,1-1s1,0.4,1,1v2.6C43.8,112.8,43.4,113.3,42.8,113.3z"/>
	</g>
	<g>
		<path class="st0" d="M50.2,167.9c-4.6,0-8.4-3.8-8.4-8.4v-43.2c0-0.6,0.4-1,1-1s1,0.4,1,1v43.2c0,3.5,2.9,6.4,6.4,6.4
			c3.5,0,6.4-2.9,6.4-6.4V77c0-1.7-0.7-3.3-1.9-4.5c-1.2-1.2-2.8-1.9-4.5-1.9c-3.5,0-6.4,2.9-6.4,6.4v27.5c0,0.6-0.4,1-1,1
			s-1-0.4-1-1V77c0-4.6,3.8-8.4,8.4-8.4c2.3,0,4.4,0.9,6,2.5c1.6,1.6,2.5,3.7,2.5,5.9v82.4C58.6,164.1,54.9,167.9,50.2,167.9z"/>
	</g>
	<g>
		<path class="st0" d="M57.6,91.5c-0.2,0-0.3,0-0.5-0.1c-0.3-0.2-0.5-0.5-0.5-0.9V77c0-1.7-0.7-3.3-1.9-4.5
			c-1.2-1.2-2.8-1.9-4.5-1.9c-3.5,0-6.4,2.9-6.4,6.4v13.5c0,0.4-0.2,0.7-0.5,0.9c-0.3,0.2-0.7,0.2-1,0c-4.8-2.8-7.7-8-7.7-13.5
			c0-8.6,7-15.6,15.6-15.6s15.6,7,15.6,15.6c0,5.5-3,10.7-7.7,13.5C58,91.4,57.8,91.5,57.6,91.5z M50.2,68.6c2.3,0,4.4,0.9,6,2.5
			c1.6,1.6,2.5,3.7,2.5,5.9v11.6c3.2-2.6,5.2-6.5,5.2-10.7c0-7.5-6.1-13.6-13.6-13.6c-7.5,0-13.6,6.1-13.6,13.6
			c0,4.2,2,8.2,5.2,10.7V77C41.8,72.4,45.6,68.6,50.2,68.6z"/>
	</g>
	<g>
		<path class="st0" d="M233.2,230.5h-67.7c-0.6,0-1-0.4-1-1s0.4-1,1-1h66.7v-17.4H23.6v17.4h135.6c0.6,0,1,0.4,1,1s-0.4,1-1,1H22.6
			c-0.6,0-1-0.4-1-1v-19.4c0-0.6,0.4-1,1-1h210.6c0.6,0,1,0.4,1,1v19.4C234.2,230.1,233.7,230.5,233.2,230.5z"/>
	</g>
	<g>
		<path class="st0" d="M86.9,223.8h-3.8c-0.3,0-0.5-0.2-0.5-0.5s0.2-0.5,0.5-0.5h3.8c0.3,0,0.5,0.2,0.5,0.5S87.2,223.8,86.9,223.8z"
			/>
	</g>
	<g>
		<path class="st0" d="M226.1,223.8H89.3c-0.3,0-0.5-0.2-0.5-0.5s0.2-0.5,0.5-0.5h136.3v-12.2H30.2v12.2h48c0.3,0,0.5,0.2,0.5,0.5
			s-0.2,0.5-0.5,0.5H29.7c-0.3,0-0.5-0.2-0.5-0.5v-13.2c0-0.3,0.2-0.5,0.5-0.5h196.4c0.3,0,0.5,0.2,0.5,0.5v13.2
			C226.6,223.6,226.4,223.8,226.1,223.8z"/>
	</g>
</g>
</svg>
