<?xml version="1.0" encoding="utf-8"?>
<!-- Generator: Adobe Illustrator 22.1.0, SVG Export Plug-In . SVG Version: 6.00 Build 0)  -->
<svg version="1.1" id="Layer_1" xmlns="http://www.w3.org/2000/svg" xmlns:xlink="http://www.w3.org/1999/xlink" x="0px" y="0px"
	 viewBox="0 0 256 256" style="enable-background:new 0 0 256 256;" xml:space="preserve">
<style type="text/css">
	.st0{fill:#48386A;}
</style>
<g>
	<g>
		<path class="st0" d="M85.8,252.6H63.9c-0.5,0-0.9-0.3-1-0.8l-5.2-23.5c-0.1-0.3,0-0.6,0.2-0.8c0.2-0.2,0.5-0.4,0.8-0.4h32.4
			c0.3,0,0.6,0.1,0.8,0.4c0.2,0.2,0.3,0.5,0.2,0.8l-5.2,23.5C86.7,252.3,86.3,252.6,85.8,252.6z M64.7,250.6H85l4.8-21.5H59.9
			L64.7,250.6z"/>
	</g>
	<g>
		<path class="st0" d="M192.1,252.6h-21.9c-0.5,0-0.9-0.3-1-0.8l-2.6-11.8c-0.1-0.5,0.2-1.1,0.8-1.2c0.5-0.1,1.1,0.2,1.2,0.8l2.4,11
			h20.3l4.8-21.5h-29.9l1.4,6.3c0.1,0.5-0.2,1.1-0.8,1.2c-0.5,0.1-1.1-0.2-1.2-0.8l-1.7-7.5c-0.1-0.3,0-0.6,0.2-0.8
			c0.2-0.2,0.5-0.4,0.8-0.4h32.4c0.3,0,0.6,0.1,0.8,0.4c0.2,0.2,0.3,0.5,0.2,0.8l-5.2,23.5C193,252.3,192.6,252.6,192.1,252.6z"/>
	</g>
	<g>
		<path class="st0" d="M85.8,252.1H63.9c-0.2,0-0.4-0.2-0.5-0.4l-1.2-5.6c0-0.1,0-0.3,0.1-0.4c0.1-0.1,0.2-0.2,0.4-0.2h24.4
			c0.2,0,0.3,0.1,0.4,0.2c0.1,0.1,0.1,0.3,0.1,0.4l-1.2,5.6C86.3,251.9,86.1,252.1,85.8,252.1z M64.3,251.1h21.1l1-4.6H63.3
			L64.3,251.1z"/>
	</g>
	<g>
		<path class="st0" d="M192.1,252.1h-21.9c-0.2,0-0.4-0.2-0.5-0.4l-1.2-5.6c0-0.1,0-0.3,0.1-0.4c0.1-0.1,0.2-0.2,0.4-0.2h24.4
			c0.2,0,0.3,0.1,0.4,0.2c0.1,0.1,0.1,0.3,0.1,0.4l-1.2,5.6C192.5,251.9,192.3,252.1,192.1,252.1z M170.6,251.1h21.1l1-4.6h-23.2
			L170.6,251.1z"/>
	</g>
	<g>
		<path class="st0" d="M213,80H43c-0.6,0-1-0.4-1-1V9.6c0-3.4,2.8-6.2,6.2-6.2h159.5c3.4,0,6.2,2.8,6.2,6.2v26.7c0,0.6-0.4,1-1,1
			s-1-0.4-1-1V9.6c0-2.3-1.9-4.2-4.2-4.2H48.2c-2.3,0-4.2,1.9-4.2,4.2V78h168V50.5c0-0.6,0.4-1,1-1s1,0.4,1,1V79
			C214,79.5,213.6,80,213,80z"/>
	</g>
	<g>
		<path class="st0" d="M213,46.3c-0.6,0-1-0.4-1-1v-3.6c0-0.6,0.4-1,1-1s1,0.4,1,1v3.6C214,45.8,213.6,46.3,213,46.3z"/>
	</g>
	<g>
		<path class="st0" d="M196.9,74.2H59.1c-0.3,0-0.5-0.2-0.5-0.5c0-5.7-4.7-10.4-10.4-10.4c-0.3,0-0.5-0.2-0.5-0.5V20.5
			c0-0.3,0.2-0.5,0.5-0.5c5.7,0,10.4-4.7,10.4-10.4c0-0.3,0.2-0.5,0.5-0.5h29.5c0.3,0,0.5,0.2,0.5,0.5s-0.2,0.5-0.5,0.5h-29
			c-0.3,5.9-5,10.6-10.9,10.9v41.3c5.9,0.3,10.6,5,10.9,10.9h136.8c0.3-5.9,5-10.6,10.9-10.9V21c-5.9-0.3-10.6-5-10.9-10.9H100
			c-0.3,0-0.5-0.2-0.5-0.5s0.2-0.5,0.5-0.5h96.9c0.3,0,0.5,0.2,0.5,0.5c0,5.7,4.7,10.4,10.4,10.4c0.3,0,0.5,0.2,0.5,0.5v42.3
			c0,0.3-0.2,0.5-0.5,0.5c-5.7,0-10.4,4.7-10.4,10.4C197.4,74,197.2,74.2,196.9,74.2z"/>
	</g>
	<g>
		<path class="st0" d="M155.6,49.8h-55.3c-0.4,0-0.8-0.3-0.9-0.7L94.2,35c-0.1-0.3-0.1-0.7,0.1-0.9s0.5-0.4,0.8-0.4h65.7
			c0.3,0,0.6,0.2,0.8,0.4s0.2,0.6,0.1,0.9l-5.2,14.1C156.4,49.5,156,49.8,155.6,49.8z M101.1,47.8h53.9l4.5-12.1H96.6L101.1,47.8z"
			/>
	</g>
	<g>
		<path class="st0" d="M158.4,42.2H97.8c-0.3,0-0.5-0.2-0.5-0.5s0.2-0.5,0.5-0.5h60.6c0.3,0,0.5,0.2,0.5,0.5S158.7,42.2,158.4,42.2z
			"/>
	</g>
	<g>
		<path class="st0" d="M51.2,16.1c-1.9,0-3.5-1.6-3.5-3.5s1.6-3.5,3.5-3.5c1.9,0,3.5,1.6,3.5,3.5S53.1,16.1,51.2,16.1z M51.2,10.1
			c-1.4,0-2.5,1.1-2.5,2.5s1.1,2.5,2.5,2.5s2.5-1.1,2.5-2.5S52.5,10.1,51.2,10.1z"/>
	</g>
	<g>
		<path class="st0" d="M51.2,74.2c-1.9,0-3.5-1.6-3.5-3.5s1.6-3.5,3.5-3.5c1.9,0,3.5,1.6,3.5,3.5S53.1,74.2,51.2,74.2z M51.2,68.3
			c-1.4,0-2.5,1.1-2.5,2.5s1.1,2.5,2.5,2.5s2.5-1.1,2.5-2.5S52.5,68.3,51.2,68.3z"/>
	</g>
	<g>
		<path class="st0" d="M204.8,16.1c-1.9,0-3.5-1.6-3.5-3.5s1.6-3.5,3.5-3.5c1.9,0,3.5,1.6,3.5,3.5S206.7,16.1,204.8,16.1z
			 M204.8,10.1c-1.4,0-2.5,1.1-2.5,2.5s1.1,2.5,2.5,2.5s2.5-1.1,2.5-2.5S206.2,10.1,204.8,10.1z"/>
	</g>
	<g>
		<path class="st0" d="M204.8,74.2c-1.9,0-3.5-1.6-3.5-3.5s1.6-3.5,3.5-3.5c1.9,0,3.5,1.6,3.5,3.5S206.7,74.2,204.8,74.2z
			 M204.8,68.3c-1.4,0-2.5,1.1-2.5,2.5s1.1,2.5,2.5,2.5s2.5-1.1,2.5-2.5S206.2,68.3,204.8,68.3z"/>
	</g>
	<g>
		<path class="st0" d="M53.3,15.2c-0.1,0-0.3,0-0.4-0.1l-4.2-4.2c-0.2-0.2-0.2-0.5,0-0.7s0.5-0.2,0.7,0l4.2,4.2
			c0.2,0.2,0.2,0.5,0,0.7C53.5,15.1,53.4,15.2,53.3,15.2z"/>
	</g>
	<g>
		<path class="st0" d="M53.3,73.4c-0.1,0-0.3,0-0.4-0.1l-4.2-4.2c-0.2-0.2-0.2-0.5,0-0.7s0.5-0.2,0.7,0l4.2,4.2
			c0.2,0.2,0.2,0.5,0,0.7C53.5,73.3,53.4,73.4,53.3,73.4z"/>
	</g>
	<g>
		<path class="st0" d="M206.9,15.2c-0.1,0-0.3,0-0.4-0.1l-4.2-4.2c-0.2-0.2-0.2-0.5,0-0.7s0.5-0.2,0.7,0l4.2,4.2
			c0.2,0.2,0.2,0.5,0,0.7C207.2,15.1,207,15.2,206.9,15.2z"/>
	</g>
	<g>
		<path class="st0" d="M206.9,73.4c-0.1,0-0.3,0-0.4-0.1l-4.2-4.2c-0.2-0.2-0.2-0.5,0-0.7s0.5-0.2,0.7,0l4.2,4.2
			c0.2,0.2,0.2,0.5,0,0.7C207.2,73.3,207,73.4,206.9,73.4z"/>
	</g>
	<g>
		<path class="st0" d="M213,154.5H43c-0.6,0-1-0.4-1-1v-30.2c0-0.6,0.4-1,1-1s1,0.4,1,1v29.2h168V80H44v37.2c0,0.6-0.4,1-1,1
			s-1-0.4-1-1V79c0-0.6,0.4-1,1-1h170c0.6,0,1,0.4,1,1v74.5C214,154.1,213.6,154.5,213,154.5z"/>
	</g>
	<g>
		<path class="st0" d="M196.9,148.8H59.1c-0.3,0-0.5-0.2-0.5-0.5c0-5.7-4.7-10.4-10.4-10.4c-0.3,0-0.5-0.2-0.5-0.5V95.1
			c0-0.3,0.2-0.5,0.5-0.5c5.7,0,10.4-4.7,10.4-10.4c0-0.3,0.2-0.5,0.5-0.5h137.8c0.3,0,0.5,0.2,0.5,0.5c0,5.7,4.7,10.4,10.4,10.4
			c0.3,0,0.5,0.2,0.5,0.5v42.3c0,0.3-0.2,0.5-0.5,0.5c-5.7,0-10.4,4.7-10.4,10.4C197.4,148.6,197.2,148.8,196.9,148.8z M59.6,147.8
			h136.8c0.3-5.9,5-10.6,10.9-10.9V95.6c-5.9-0.3-10.6-5-10.9-10.9H59.6c-0.3,5.9-5,10.6-10.9,10.9v41.3
			C54.6,137.2,59.3,141.9,59.6,147.8z"/>
	</g>
	<g>
		<path class="st0" d="M155.6,124.3h-20.3c-0.6,0-1-0.4-1-1s0.4-1,1-1h19.6l4.5-12.1H96.6l4.5,12.1h28c0.6,0,1,0.4,1,1s-0.4,1-1,1
			h-28.7c-0.4,0-0.8-0.3-0.9-0.7l-5.2-14.1c-0.1-0.3-0.1-0.7,0.1-0.9s0.5-0.4,0.8-0.4h65.7c0.3,0,0.6,0.2,0.8,0.4s0.2,0.6,0.1,0.9
			l-5.2,14.1C156.4,124,156,124.3,155.6,124.3z"/>
	</g>
	<g>
		<path class="st0" d="M158.4,116.7H97.8c-0.3,0-0.5-0.2-0.5-0.5s0.2-0.5,0.5-0.5h60.6c0.3,0,0.5,0.2,0.5,0.5
			S158.7,116.7,158.4,116.7z"/>
	</g>
	<g>
		<path class="st0" d="M51.2,90.6c-1.9,0-3.5-1.6-3.5-3.5s1.6-3.5,3.5-3.5c1.9,0,3.5,1.6,3.5,3.5S53.1,90.6,51.2,90.6z M51.2,84.7
			c-1.4,0-2.5,1.1-2.5,2.5s1.1,2.5,2.5,2.5s2.5-1.1,2.5-2.5S52.5,84.7,51.2,84.7z"/>
	</g>
	<g>
		<path class="st0" d="M51.2,148.8c-1.9,0-3.5-1.6-3.5-3.5s1.6-3.5,3.5-3.5c1.9,0,3.5,1.6,3.5,3.5S53.1,148.8,51.2,148.8z
			 M51.2,142.9c-1.4,0-2.5,1.1-2.5,2.5c0,1.4,1.1,2.5,2.5,2.5s2.5-1.1,2.5-2.5C53.6,144,52.5,142.9,51.2,142.9z"/>
	</g>
	<g>
		<path class="st0" d="M204.8,90.6c-1.9,0-3.5-1.6-3.5-3.5s1.6-3.5,3.5-3.5c1.9,0,3.5,1.6,3.5,3.5S206.7,90.6,204.8,90.6z
			 M204.8,84.7c-1.4,0-2.5,1.1-2.5,2.5s1.1,2.5,2.5,2.5s2.5-1.1,2.5-2.5S206.2,84.7,204.8,84.7z"/>
	</g>
	<g>
		<path class="st0" d="M204.8,148.8c-1.9,0-3.5-1.6-3.5-3.5s1.6-3.5,3.5-3.5c1.9,0,3.5,1.6,3.5,3.5S206.7,148.8,204.8,148.8z
			 M204.8,142.9c-1.4,0-2.5,1.1-2.5,2.5c0,1.4,1.1,2.5,2.5,2.5s2.5-1.1,2.5-2.5C207.3,144,206.2,142.9,204.8,142.9z"/>
	</g>
	<g>
		<path class="st0" d="M53.3,89.7c-0.1,0-0.3,0-0.4-0.1l-4.2-4.2c-0.2-0.2-0.2-0.5,0-0.7s0.5-0.2,0.7,0l4.2,4.2
			c0.2,0.2,0.2,0.5,0,0.7C53.5,89.7,53.4,89.7,53.3,89.7z"/>
	</g>
	<g>
		<path class="st0" d="M53.3,147.9c-0.1,0-0.3,0-0.4-0.1l-4.2-4.2c-0.2-0.2-0.2-0.5,0-0.7s0.5-0.2,0.7,0l4.2,4.2
			c0.2,0.2,0.2,0.5,0,0.7C53.5,147.9,53.4,147.9,53.3,147.9z"/>
	</g>
	<g>
		<path class="st0" d="M206.9,89.7c-0.1,0-0.3,0-0.4-0.1l-4.2-4.2c-0.2-0.2-0.2-0.5,0-0.7s0.5-0.2,0.7,0l4.2,4.2
			c0.2,0.2,0.2,0.5,0,0.7C207.2,89.7,207,89.7,206.9,89.7z"/>
	</g>
	<g>
		<path class="st0" d="M206.9,147.9c-0.1,0-0.3,0-0.4-0.1l-4.2-4.2c-0.2-0.2-0.2-0.5,0-0.7s0.5-0.2,0.7,0l4.2,4.2
			c0.2,0.2,0.2,0.5,0,0.7C207.2,147.9,207,147.9,206.9,147.9z"/>
	</g>
	<g>
		<path class="st0" d="M213,191.8c-0.6,0-1-0.4-1-1v-3.9c0-0.6,0.4-1,1-1s1,0.4,1,1v3.9C214,191.3,213.6,191.8,213,191.8z"/>
	</g>
	<g>
		<path class="st0" d="M207.8,229.1H48.2c-3.4,0-6.2-2.8-6.2-6.2v-69.3c0-0.6,0.4-1,1-1h170c0.6,0,1,0.4,1,1v28.1c0,0.6-0.4,1-1,1
			s-1-0.4-1-1v-27.1H44v68.3c0,2.3,1.9,4.2,4.2,4.2h159.5c2.3,0,4.2-1.9,4.2-4.2v-24c0-0.6,0.4-1,1-1s1,0.4,1,1v24
			C214,226.3,211.2,229.1,207.8,229.1z"/>
	</g>
	<g>
		<path class="st0" d="M196.9,223.3H59.1c-0.3,0-0.5-0.2-0.5-0.5c0-5.7-4.7-10.4-10.4-10.4c-0.3,0-0.5-0.2-0.5-0.5V190
			c0-0.3,0.2-0.5,0.5-0.5s0.5,0.2,0.5,0.5v21.5c5.9,0.3,10.6,5,10.9,10.9h136.8c0.3-5.9,5-10.6,10.9-10.9v-41.3
			c-5.9-0.3-10.6-5-10.9-10.9H59.6c-0.3,5.9-5,10.6-10.9,10.9v13.6c0,0.3-0.2,0.5-0.5,0.5s-0.5-0.2-0.5-0.5v-14.1
			c0-0.3,0.2-0.5,0.5-0.5c5.7,0,10.4-4.7,10.4-10.4c0-0.3,0.2-0.5,0.5-0.5h137.8c0.3,0,0.5,0.2,0.5,0.5c0,5.7,4.7,10.4,10.4,10.4
			c0.3,0,0.5,0.2,0.5,0.5V212c0,0.3-0.2,0.5-0.5,0.5c-5.7,0-10.4,4.7-10.4,10.4C197.4,223.1,197.2,223.3,196.9,223.3z"/>
	</g>
	<g>
		<path class="st0" d="M155.6,198.8h-55.3c-0.4,0-0.8-0.3-0.9-0.7l-5.2-14.1c-0.1-0.3-0.1-0.7,0.1-0.9s0.5-0.4,0.8-0.4h65.7
			c0.3,0,0.6,0.2,0.8,0.4s0.2,0.6,0.1,0.9l-5.2,14.1C156.4,198.6,156,198.8,155.6,198.8z M101.1,196.8h53.9l4.5-12.1H96.6
			L101.1,196.8z"/>
	</g>
	<g>
		<path class="st0" d="M158.4,191.3h-24c-0.3,0-0.5-0.2-0.5-0.5s0.2-0.5,0.5-0.5h24c0.3,0,0.5,0.2,0.5,0.5S158.7,191.3,158.4,191.3z
			"/>
	</g>
	<g>
		<path class="st0" d="M126.9,191.3H97.8c-0.3,0-0.5-0.2-0.5-0.5s0.2-0.5,0.5-0.5h29.1c0.3,0,0.5,0.2,0.5,0.5
			S127.2,191.3,126.9,191.3z"/>
	</g>
	<g>
		<path class="st0" d="M51.2,165.2c-1.9,0-3.5-1.6-3.5-3.5s1.6-3.5,3.5-3.5c1.9,0,3.5,1.6,3.5,3.5S53.1,165.2,51.2,165.2z
			 M51.2,159.2c-1.4,0-2.5,1.1-2.5,2.5s1.1,2.5,2.5,2.5s2.5-1.1,2.5-2.5S52.5,159.2,51.2,159.2z"/>
	</g>
	<g>
		<path class="st0" d="M51.2,223.3c-1.9,0-3.5-1.6-3.5-3.5s1.6-3.5,3.5-3.5c1.9,0,3.5,1.6,3.5,3.5S53.1,223.3,51.2,223.3z
			 M51.2,217.4c-1.4,0-2.5,1.1-2.5,2.5s1.1,2.5,2.5,2.5s2.5-1.1,2.5-2.5S52.5,217.4,51.2,217.4z"/>
	</g>
	<g>
		<path class="st0" d="M204.8,165.2c-1.9,0-3.5-1.6-3.5-3.5s1.6-3.5,3.5-3.5c1.9,0,3.5,1.6,3.5,3.5S206.7,165.2,204.8,165.2z
			 M204.8,159.2c-1.4,0-2.5,1.1-2.5,2.5s1.1,2.5,2.5,2.5s2.5-1.1,2.5-2.5S206.2,159.2,204.8,159.2z"/>
	</g>
	<g>
		<path class="st0" d="M204.8,223.3c-1.9,0-3.5-1.6-3.5-3.5s1.6-3.5,3.5-3.5c1.9,0,3.5,1.6,3.5,3.5S206.7,223.3,204.8,223.3z
			 M204.8,217.4c-1.4,0-2.5,1.1-2.5,2.5s1.1,2.5,2.5,2.5s2.5-1.1,2.5-2.5S206.2,217.4,204.8,217.4z"/>
	</g>
	<g>
		<path class="st0" d="M53.3,164.3c-0.1,0-0.3,0-0.4-0.1l-4.2-4.2c-0.2-0.2-0.2-0.5,0-0.7s0.5-0.2,0.7,0l4.2,4.2
			c0.2,0.2,0.2,0.5,0,0.7C53.5,164.2,53.4,164.3,53.3,164.3z"/>
	</g>
	<g>
		<path class="st0" d="M53.3,222.5c-0.1,0-0.3,0-0.4-0.1l-4.2-4.2c-0.2-0.2-0.2-0.5,0-0.7s0.5-0.2,0.7,0l4.2,4.2
			c0.2,0.2,0.2,0.5,0,0.7C53.5,222.4,53.4,222.5,53.3,222.5z"/>
	</g>
	<g>
		<path class="st0" d="M206.9,164.3c-0.1,0-0.3,0-0.4-0.1l-4.2-4.2c-0.2-0.2-0.2-0.5,0-0.7s0.5-0.2,0.7,0l4.2,4.2
			c0.2,0.2,0.2,0.5,0,0.7C207.2,164.2,207,164.3,206.9,164.3z"/>
	</g>
	<g>
		<path class="st0" d="M206.9,222.5c-0.1,0-0.3,0-0.4-0.1l-4.2-4.2c-0.2-0.2-0.2-0.5,0-0.7s0.5-0.2,0.7,0l4.2,4.2
			c0.2,0.2,0.2,0.5,0,0.7C207.2,222.4,207,222.5,206.9,222.5z"/>
	</g>
</g>
</svg>
