<?xml version="1.0" encoding="utf-8"?>
<!-- Generator: Adobe Illustrator 22.1.0, SVG Export Plug-In . SVG Version: 6.00 Build 0)  -->
<svg version="1.1" id="Layer_1" xmlns="http://www.w3.org/2000/svg" xmlns:xlink="http://www.w3.org/1999/xlink" x="0px" y="0px"
	 viewBox="0 0 256 256" style="enable-background:new 0 0 256 256;" xml:space="preserve">
<style type="text/css">
	.st0{fill:#48386A;}
</style>
<g>
	<g>
		<path class="st0" d="M190.8,247.3H50c-4,0-7.3-3.4-7.3-7.5v-1.8c0-4.2,3.3-7.5,7.3-7.5h140.9c0.6,0,1,0.4,1,1v14.9
			C191.8,246.8,191.4,247.3,190.8,247.3z M50,232.4c-2.9,0-5.3,2.5-5.3,5.5v1.8c0,3,2.4,5.5,5.3,5.5h139.9v-12.9H50z"/>
	</g>
	<g>
		<path class="st0" d="M199.9,252.7h-18.8c-0.6,0-1-0.4-1-1s0.4-1,1-1h18.8c0.9,0,1.7-0.8,1.7-1.7c0-0.9-0.8-1.7-1.7-1.7H50.8
			c-4.5,0-8.1-3.4-8.1-7.5v-1.8c0-4.2,3.6-7.5,8.1-7.5h146.4c2.1,0,3.9-1.5,4.3-3.4H50.2c-6.1,0-11,4.9-11,11v1.8
			c0,6.1,4.9,11,11,11h122.7c0.6,0,1,0.4,1,1s-0.4,1-1,1H50.2c-7.2,0-13-5.8-13-13v-1.8c0-7.2,5.8-13,13-13h152.4c0.6,0,1,0.4,1,1
			c0,3.6-2.9,6.4-6.4,6.4H50.8c-3.4,0-6.1,2.5-6.1,5.5v1.8c0,3,2.7,5.5,6.1,5.5h149.1c2.1,0,3.7,1.7,3.7,3.7
			S201.9,252.7,199.9,252.7z"/>
	</g>
	<g>
		<path class="st0" d="M38.3,130.8c-0.6,0-1-0.4-1-1v-4.9c0-0.6,0.4-1,1-1s1,0.4,1,1v4.9C39.3,130.4,38.8,130.8,38.3,130.8z"/>
	</g>
	<g>
		<path class="st0" d="M38.3,238.9c-0.6,0-1-0.4-1-1v-103c0-0.6,0.4-1,1-1s1,0.4,1,1V231c2.3-3.6,6.4-6.1,11-6.1h151.4V16.3
			c0-6.1-4.9-11-11-11H50.2c-6.1,0-11,4.9-11,11V115c0,0.6-0.4,1-1,1s-1-0.4-1-1V16.3c0-7.2,5.8-13,13-13h140.4c7.2,0,13,5.8,13,13
			V226c0,0.6-0.4,1-1,1H50.2c-6.1,0-11,4.9-11,11C39.3,238.5,38.8,238.9,38.3,238.9z"/>
	</g>
	<g>
		<path class="st0" d="M190.8,239.3h-62.3c-0.3,0-0.5-0.2-0.5-0.5s0.2-0.5,0.5-0.5h62.3c0.3,0,0.5,0.2,0.5,0.5
			S191.1,239.3,190.8,239.3z"/>
	</g>
	<g>
		<path class="st0" d="M120.4,239.3H43.7c-0.3,0-0.5-0.2-0.5-0.5s0.2-0.5,0.5-0.5h76.7c0.3,0,0.5,0.2,0.5,0.5
			S120.7,239.3,120.4,239.3z"/>
	</g>
	<g>
		<path class="st0" d="M186.7,106.3H73.5c-2.8,0-5-2.2-5-5V25.2c0-2.8,2.2-5,5-5h113.2c2.8,0,5,2.2,5,5v76.2
			C191.7,104.1,189.5,106.3,186.7,106.3z M73.5,22.2c-1.7,0-3,1.3-3,3v76.2c0,1.7,1.3,3,3,3h113.2c1.7,0,3-1.3,3-3V25.2
			c0-1.7-1.3-3-3-3H73.5z"/>
	</g>
	<g>
		<path class="st0" d="M185.3,100.4H75c-0.3,0-0.5-0.2-0.5-0.5V26.6c0-0.3,0.2-0.5,0.5-0.5h110.3c0.3,0,0.5,0.2,0.5,0.5v29.1
			c0,0.3-0.2,0.5-0.5,0.5s-0.5-0.2-0.5-0.5V27.1H75.5v72.3h109.3V66.5c0-0.3,0.2-0.5,0.5-0.5s0.5,0.2,0.5,0.5v33.4
			C185.8,100.2,185.5,100.4,185.3,100.4z"/>
	</g>
	<g>
		<path class="st0" d="M190.7,139.9h-82.2c-0.6,0-1-0.4-1-1s0.4-1,1-1h81.2v-16.1H70.5v16.1H98c0.6,0,1,0.4,1,1s-0.4,1-1,1H69.5
			c-0.6,0-1-0.4-1-1v-18.1c0-0.6,0.4-1,1-1h121.2c0.6,0,1,0.4,1,1v18.1C191.7,139.4,191.2,139.9,190.7,139.9z"/>
	</g>
	<g>
		<path class="st0" d="M187.4,136.1H72.8c-0.3,0-0.5-0.2-0.5-0.5V124c0-0.3,0.2-0.5,0.5-0.5h114.6c0.3,0,0.5,0.2,0.5,0.5v11.6
			C187.9,135.9,187.7,136.1,187.4,136.1z M73.3,135.1h113.6v-10.6H73.3V135.1z"/>
	</g>
	<g>
		<path class="st0" d="M168.9,150.4H69.5c-0.3,0-0.5-0.2-0.5-0.5s0.2-0.5,0.5-0.5h99.4c0.3,0,0.5,0.2,0.5,0.5
			S169.2,150.4,168.9,150.4z"/>
	</g>
	<g>
		<path class="st0" d="M185.3,167h-23.9c-0.3,0-0.5-0.2-0.5-0.5s0.2-0.5,0.5-0.5h23.9c0.3,0,0.5,0.2,0.5,0.5S185.5,167,185.3,167z"
			/>
	</g>
	<g>
		<path class="st0" d="M151.8,167H69.5c-0.3,0-0.5-0.2-0.5-0.5s0.2-0.5,0.5-0.5h82.3c0.3,0,0.5,0.2,0.5,0.5S152.1,167,151.8,167z"/>
	</g>
	<g>
		<path class="st0" d="M179.8,183.6H69.5c-0.3,0-0.5-0.2-0.5-0.5s0.2-0.5,0.5-0.5h110.3c0.3,0,0.5,0.2,0.5,0.5
			S180.1,183.6,179.8,183.6z"/>
	</g>
	<g>
		<path class="st0" d="M168.9,200.2h-67.1c-0.3,0-0.5-0.2-0.5-0.5s0.2-0.5,0.5-0.5h67.1c0.3,0,0.5,0.2,0.5,0.5
			S169.2,200.2,168.9,200.2z"/>
	</g>
	<g>
		<path class="st0" d="M92.1,200.2H69.5c-0.3,0-0.5-0.2-0.5-0.5s0.2-0.5,0.5-0.5h22.6c0.3,0,0.5,0.2,0.5,0.5S92.4,200.2,92.1,200.2z
			"/>
	</g>
	<g>
		<path class="st0" d="M212.8,150.4h-10.2c-0.6,0-1-0.4-1-1V92.8c0-0.6,0.4-1,1-1h10.2c3.3,0,6,2.7,6,6v46.6
			C218.8,147.7,216.1,150.4,212.8,150.4z M203.6,148.4h9.2c2.2,0,4-1.8,4-4V97.8c0-2.2-1.8-4-4-4h-9.2V148.4z"/>
	</g>
	<g>
		<path class="st0" d="M212.4,145.6h-9.8c-0.3,0-0.5-0.2-0.5-0.5V97.2c0-0.3,0.2-0.5,0.5-0.5h9.8c0.8,0,1.5,0.7,1.5,1.5v19.2
			c0,0.3-0.2,0.5-0.5,0.5s-0.5-0.2-0.5-0.5V98.2c0-0.3-0.2-0.5-0.5-0.5h-9.3v46.9h9.3c0.3,0,0.5-0.2,0.5-0.5v-19.3
			c0-0.3,0.2-0.5,0.5-0.5s0.5,0.2,0.5,0.5V144C213.9,144.9,213.2,145.6,212.4,145.6z"/>
	</g>
	<g>
		<path class="st0" d="M212.6,207h-10c-0.6,0-1-0.4-1-1v-56.6c0-0.6,0.4-1,1-1h10c3.4,0,6.1,2.7,6.1,6.1v26.8c0,0.6-0.4,1-1,1
			s-1-0.4-1-1v-26.8c0-2.3-1.9-4.1-4.1-4.1h-9V205h9c2.3,0,4.1-1.9,4.1-4.1v-10.5c0-0.6,0.4-1,1-1s1,0.4,1,1v10.5
			C218.8,204.3,216,207,212.6,207z"/>
	</g>
	<g>
		<path class="st0" d="M212.4,202.2h-9.8c-0.3,0-0.5-0.2-0.5-0.5v-47.9c0-0.3,0.2-0.5,0.5-0.5h9.8c0.8,0,1.5,0.7,1.5,1.5v45.9
			C213.9,201.5,213.2,202.2,212.4,202.2z M203.1,201.2h9.3c0.3,0,0.5-0.2,0.5-0.5v-45.9c0-0.3-0.2-0.5-0.5-0.5h-9.3V201.2z"/>
	</g>
	<g>
		<path class="st0" d="M212.6,93.8h-10c-0.6,0-1-0.4-1-1V36.2c0-0.6,0.4-1,1-1h10c3.4,0,6.1,2.7,6.1,6.1V53c0,0.6-0.4,1-1,1
			s-1-0.4-1-1V41.3c0-2.3-1.9-4.1-4.1-4.1h-9v54.6h9c2.3,0,4.1-1.9,4.1-4.1V60.3c0-0.6,0.4-1,1-1s1,0.4,1,1v27.4
			C218.8,91.1,216,93.8,212.6,93.8z"/>
	</g>
	<g>
		<path class="st0" d="M212.4,89h-9.8c-0.3,0-0.5-0.2-0.5-0.5V40.6c0-0.3,0.2-0.5,0.5-0.5h9.8c0.8,0,1.5,0.7,1.5,1.5v45.9
			C213.9,88.3,213.2,89,212.4,89z M203.1,88h9.3c0.3,0,0.5-0.2,0.5-0.5V41.6c0-0.3-0.2-0.5-0.5-0.5h-9.3V88z"/>
	</g>
	<g>
		<path class="st0" d="M108.1,85.7c-0.1,0-0.3,0-0.4-0.1c-0.2-0.2-0.2-0.5,0-0.7l44-44c0.2-0.2,0.5-0.2,0.7,0s0.2,0.5,0,0.7l-44,44
			C108.4,85.7,108.2,85.7,108.1,85.7z"/>
	</g>
	<g>
		<path class="st0" d="M122.3,81.9c-0.1,0-0.3,0-0.4-0.1c-0.2-0.2-0.2-0.5,0-0.7l21.8-21.8c0.2-0.2,0.5-0.2,0.7,0s0.2,0.5,0,0.7
			l-21.8,21.8C122.6,81.8,122.4,81.9,122.3,81.9z"/>
	</g>
	<g>
		<path class="st0" d="M38.3,238.9c-0.6,0-1-0.4-1-1v-103c0-0.6,0.4-1,1-1s1,0.4,1,1V231c2.3-3.6,6.4-6.1,11-6.1h6.4V54.1
			c0-0.6,0.4-1,1-1s1,0.4,1,1V226c0,0.6-0.4,1-1,1h-7.4c-6.1,0-11,4.9-11,11C39.3,238.5,38.8,238.9,38.3,238.9z"/>
	</g>
	<g>
		<path class="st0" d="M38.3,130.8c-0.6,0-1-0.4-1-1V124c0-0.6,0.4-1,1-1s1,0.4,1,1v5.8C39.3,130.4,38.8,130.8,38.3,130.8z"/>
	</g>
	<g>
		<path class="st0" d="M38.3,117.2c-0.6,0-1-0.4-1-1V16.3c0-7.2,5.8-13,13-13h7.4c0.6,0,1,0.4,1,1v38.6c0,0.6-0.4,1-1,1s-1-0.4-1-1
			V5.3h-6.4c-6.1,0-11,4.9-11,11v99.9C39.3,116.7,38.8,117.2,38.3,117.2z"/>
	</g>
</g>
</svg>
