<?xml version="1.0" encoding="utf-8"?>
<!-- Generator: Adobe Illustrator 22.1.0, SVG Export Plug-In . SVG Version: 6.00 Build 0)  -->
<svg version="1.1" id="Layer_1" xmlns="http://www.w3.org/2000/svg" xmlns:xlink="http://www.w3.org/1999/xlink" x="0px" y="0px"
	 viewBox="0 0 256 256" style="enable-background:new 0 0 256 256;" xml:space="preserve">
<style type="text/css">
	.st0{fill:#48386A;}
</style>
<g>
	<g>
		<path class="st0" d="M184.1,251.9H71.9c-3.3,0-5.9-2.7-5.9-5.9v-78.7c0-0.6,0.4-1,1-1s1,0.4,1,1v78.7c0,2.2,1.8,3.9,3.9,3.9h112.3
			c2.2,0,3.9-1.8,3.9-3.9V80.8c0-2.2-1.8-3.9-3.9-3.9h-33.9v5.1c0,0.6-0.4,1-1,1H84.7c-0.6,0-1-0.4-1-1v-5.1H71.9
			c-2.2,0-3.9,1.8-3.9,3.9v79.4c0,0.6-0.4,1-1,1s-1-0.4-1-1V80.8c0-3.3,2.7-5.9,5.9-5.9h12.9c0.6,0,1,0.4,1,1v5.1h62.5v-5.1
			c0-0.6,0.4-1,1-1h34.9c3.3,0,5.9,2.7,5.9,5.9v165.2C190.1,249.2,187.4,251.9,184.1,251.9z"/>
	</g>
	<g>
		<path class="st0" d="M184.4,245.7H71.6c-0.3,0-0.5-0.2-0.5-0.5V87.4c0-0.3,0.2-0.5,0.5-0.5h74.2c0.3,0,0.5,0.2,0.5,0.5
			s-0.2,0.5-0.5,0.5H72.1v156.8h111.7V87.9h-29.8c-0.3,0-0.5-0.2-0.5-0.5s0.2-0.5,0.5-0.5h30.3c0.3,0,0.5,0.2,0.5,0.5v157.8
			C184.9,245.5,184.6,245.7,184.4,245.7z"/>
	</g>
	<g>
		<path class="st0" d="M175,119.5H81c-0.6,0-1-0.4-1-1V93.8c0-0.6,0.4-1,1-1h94c0.6,0,1,0.4,1,1v24.7C176,119,175.5,119.5,175,119.5
			z M82,117.5h92V94.8H82V117.5z"/>
	</g>
	<g>
		<path class="st0" d="M170.9,115H85.1c-0.3,0-0.5-0.2-0.5-0.5v-5.4c0-0.3,0.2-0.5,0.5-0.5s0.5,0.2,0.5,0.5v4.9h84.7V98.2H85.6v4.9
			c0,0.3-0.2,0.5-0.5,0.5s-0.5-0.2-0.5-0.5v-5.4c0-0.3,0.2-0.5,0.5-0.5h85.7c0.3,0,0.5,0.2,0.5,0.5v16.8
			C171.4,114.8,171.1,115,170.9,115z"/>
	</g>
	<g>
		<path class="st0" d="M96.9,147.5h-4.6c-0.6,0-1-0.4-1-1s0.4-1,1-1h4.6c2.2,0,4-1.8,4-4v-10.1c0-2.2-1.8-4-4-4H86c-2.2,0-4,1.8-4,4
			v10.1c0,2.2,1.8,4,4,4c0.6,0,1,0.4,1,1s-0.4,1-1,1c-3.3,0-6-2.7-6-6v-10.1c0-3.3,2.7-6,6-6h10.9c3.3,0,6,2.7,6,6v10.1
			C102.9,144.8,100.2,147.5,96.9,147.5z"/>
	</g>
	<g>
		<path class="st0" d="M96.8,143.1H86.1c-0.8,0-1.5-0.7-1.5-1.5v-10.2c0-0.8,0.7-1.5,1.5-1.5h10.7c0.8,0,1.5,0.7,1.5,1.5v10.2
			C98.3,142.4,97.6,143.1,96.8,143.1z M86.1,130.9c-0.3,0-0.5,0.2-0.5,0.5v10.2c0,0.3,0.2,0.5,0.5,0.5h10.7c0.3,0,0.5-0.2,0.5-0.5
			v-10.2c0-0.3-0.2-0.5-0.5-0.5H86.1z"/>
	</g>
	<g>
		<path class="st0" d="M133.4,147.5h-10.9c-3.3,0-6-2.7-6-6v-10.1c0-3.3,2.7-6,6-6h10.9c3.3,0,6,2.7,6,6v10.1
			C139.4,144.8,136.7,147.5,133.4,147.5z M122.6,127.4c-2.2,0-4,1.8-4,4v10.1c0,2.2,1.8,4,4,4h10.9c2.2,0,4-1.8,4-4v-10.1
			c0-2.2-1.8-4-4-4H122.6z"/>
	</g>
	<g>
		<path class="st0" d="M133.3,143.1h-10.7c-0.8,0-1.5-0.7-1.5-1.5v-10.2c0-0.8,0.7-1.5,1.5-1.5h10.7c0.8,0,1.5,0.7,1.5,1.5v10.2
			C134.8,142.4,134.2,143.1,133.3,143.1z M122.7,130.9c-0.3,0-0.5,0.2-0.5,0.5v10.2c0,0.3,0.2,0.5,0.5,0.5h10.7
			c0.3,0,0.5-0.2,0.5-0.5v-10.2c0-0.3-0.2-0.5-0.5-0.5H122.7z"/>
	</g>
	<g>
		<path class="st0" d="M170,147.5h-10.9c-3.3,0-6-2.7-6-6v-10.1c0-3.3,2.7-6,6-6H170c3.3,0,6,2.7,6,6v10.1
			C176,144.8,173.3,147.5,170,147.5z M159.1,127.4c-2.2,0-4,1.8-4,4v10.1c0,2.2,1.8,4,4,4H170c2.2,0,4-1.8,4-4v-10.1
			c0-2.2-1.8-4-4-4H159.1z"/>
	</g>
	<g>
		<path class="st0" d="M169.9,143.1h-10.7c-0.8,0-1.5-0.7-1.5-1.5v-10.2c0-0.8,0.7-1.5,1.5-1.5h10.7c0.8,0,1.5,0.7,1.5,1.5v10.2
			C171.4,142.4,170.7,143.1,169.9,143.1z M159.2,130.9c-0.3,0-0.5,0.2-0.5,0.5v10.2c0,0.3,0.2,0.5,0.5,0.5h10.7
			c0.3,0,0.5-0.2,0.5-0.5v-10.2c0-0.3-0.2-0.5-0.5-0.5H159.2z"/>
	</g>
	<g>
		<path class="st0" d="M96.9,177.9H86c-3.3,0-6-2.7-6-6v-10.1c0-3.3,2.7-6,6-6h10.9c3.3,0,6,2.7,6,6v10.1
			C102.9,175.2,100.2,177.9,96.9,177.9z M86,157.8c-2.2,0-4,1.8-4,4v10.1c0,2.2,1.8,4,4,4h10.9c2.2,0,4-1.8,4-4v-10.1
			c0-2.2-1.8-4-4-4H86z"/>
	</g>
	<g>
		<path class="st0" d="M96.8,173.4H86.1c-0.8,0-1.5-0.7-1.5-1.5v-10.2c0-0.8,0.7-1.5,1.5-1.5h10.7c0.8,0,1.5,0.7,1.5,1.5v10.2
			C98.3,172.8,97.6,173.4,96.8,173.4z M86.1,161.2c-0.3,0-0.5,0.2-0.5,0.5v10.2c0,0.3,0.2,0.5,0.5,0.5h10.7c0.3,0,0.5-0.2,0.5-0.5
			v-10.2c0-0.3-0.2-0.5-0.5-0.5H86.1z"/>
	</g>
	<g>
		<path class="st0" d="M133.4,177.9h-10.9c-3.3,0-6-2.7-6-6v-10.1c0-3.3,2.7-6,6-6h10.9c3.3,0,6,2.7,6,6v10.1
			C139.4,175.2,136.7,177.9,133.4,177.9z M122.6,157.8c-2.2,0-4,1.8-4,4v10.1c0,2.2,1.8,4,4,4h10.9c2.2,0,4-1.8,4-4v-10.1
			c0-2.2-1.8-4-4-4H122.6z"/>
	</g>
	<g>
		<path class="st0" d="M133.3,173.4h-10.7c-0.8,0-1.5-0.7-1.5-1.5v-10.2c0-0.8,0.7-1.5,1.5-1.5h10.7c0.8,0,1.5,0.7,1.5,1.5v10.2
			C134.8,172.8,134.2,173.4,133.3,173.4z M122.7,161.2c-0.3,0-0.5,0.2-0.5,0.5v10.2c0,0.3,0.2,0.5,0.5,0.5h10.7
			c0.3,0,0.5-0.2,0.5-0.5v-10.2c0-0.3-0.2-0.5-0.5-0.5H122.7z"/>
	</g>
	<g>
		<path class="st0" d="M170,177.9h-10.9c-3.3,0-6-2.7-6-6v-10.1c0-3.3,2.7-6,6-6H170c3.3,0,6,2.7,6,6v10.1
			C176,175.2,173.3,177.9,170,177.9z M159.1,157.8c-2.2,0-4,1.8-4,4v10.1c0,2.2,1.8,4,4,4H170c2.2,0,4-1.8,4-4v-10.1
			c0-2.2-1.8-4-4-4H159.1z"/>
	</g>
	<g>
		<path class="st0" d="M169.9,173.4h-10.7c-0.8,0-1.5-0.7-1.5-1.5v-10.2c0-0.8,0.7-1.5,1.5-1.5h10.7c0.8,0,1.5,0.7,1.5,1.5v10.2
			C171.4,172.8,170.7,173.4,169.9,173.4z M159.2,161.2c-0.3,0-0.5,0.2-0.5,0.5v10.2c0,0.3,0.2,0.5,0.5,0.5h10.7
			c0.3,0,0.5-0.2,0.5-0.5v-10.2c0-0.3-0.2-0.5-0.5-0.5H159.2z"/>
	</g>
	<g>
		<path class="st0" d="M96.9,208.2H86c-3.3,0-6-2.7-6-6v-10.1c0-3.3,2.7-6,6-6h10.9c3.3,0,6,2.7,6,6v10.1
			C102.9,205.5,100.2,208.2,96.9,208.2z M86,188.1c-2.2,0-4,1.8-4,4v10.1c0,2.2,1.8,4,4,4h10.9c2.2,0,4-1.8,4-4v-10.1
			c0-2.2-1.8-4-4-4H86z"/>
	</g>
	<g>
		<path class="st0" d="M96.8,203.8H86.1c-0.8,0-1.5-0.7-1.5-1.5v-10.2c0-0.8,0.7-1.5,1.5-1.5h10.7c0.8,0,1.5,0.7,1.5,1.5v10.2
			C98.3,203.1,97.6,203.8,96.8,203.8z M86.1,191.6c-0.3,0-0.5,0.2-0.5,0.5v10.2c0,0.3,0.2,0.5,0.5,0.5h10.7c0.3,0,0.5-0.2,0.5-0.5
			v-10.2c0-0.3-0.2-0.5-0.5-0.5H86.1z"/>
	</g>
	<g>
		<path class="st0" d="M133.4,208.2h-10.9c-3.3,0-6-2.7-6-6v-10.1c0-3.3,2.7-6,6-6h10.9c3.3,0,6,2.7,6,6v10.1
			C139.4,205.5,136.7,208.2,133.4,208.2z M122.6,188.1c-2.2,0-4,1.8-4,4v10.1c0,2.2,1.8,4,4,4h10.9c2.2,0,4-1.8,4-4v-10.1
			c0-2.2-1.8-4-4-4H122.6z"/>
	</g>
	<g>
		<path class="st0" d="M133.3,203.8h-10.7c-0.8,0-1.5-0.7-1.5-1.5v-10.2c0-0.8,0.7-1.5,1.5-1.5h10.7c0.8,0,1.5,0.7,1.5,1.5v10.2
			C134.8,203.1,134.2,203.8,133.3,203.8z M122.7,191.6c-0.3,0-0.5,0.2-0.5,0.5v10.2c0,0.3,0.2,0.5,0.5,0.5h10.7
			c0.3,0,0.5-0.2,0.5-0.5v-10.2c0-0.3-0.2-0.5-0.5-0.5H122.7z"/>
	</g>
	<g>
		<path class="st0" d="M154.1,216.7c-0.6,0-1-0.4-1-1v-1.3c0-0.6,0.4-1,1-1s1,0.4,1,1v1.3C155.1,216.2,154.7,216.7,154.1,216.7z"/>
	</g>
	<g>
		<path class="st0" d="M169.8,238.6h-10.6c-3.4,0-6.1-2.7-6.1-5.9v-14c0-0.6,0.4-1,1-1s1,0.4,1,1v14c0,2.2,1.9,3.9,4.1,3.9h10.6
			c2.3,0,4.1-1.8,4.1-3.9v-40.6c0-2.2-1.9-3.9-4.1-3.9h-10.6c-2.3,0-4.1,1.8-4.1,3.9v16.7c0,0.6-0.4,1-1,1s-1-0.4-1-1v-16.7
			c0-3.3,2.8-5.9,6.1-5.9h10.6c3.4,0,6.1,2.7,6.1,5.9v40.6C176,235.9,173.2,238.6,169.8,238.6z"/>
	</g>
	<g>
		<path class="st0" d="M169.8,234.1h-10.6c-0.8,0-1.5-0.7-1.5-1.5v-40.6c0-0.8,0.7-1.5,1.5-1.5h10.6c0.8,0,1.5,0.7,1.5,1.5v40.6
			C171.4,233.5,170.7,234.1,169.8,234.1z M159.2,191.6c-0.3,0-0.5,0.2-0.5,0.5v40.6c0,0.3,0.2,0.5,0.5,0.5h10.6
			c0.3,0,0.5-0.2,0.5-0.5v-40.6c0-0.3-0.2-0.5-0.5-0.5H159.2z"/>
	</g>
	<g>
		<path class="st0" d="M96.9,238.6H86c-3.3,0-6-2.7-6-6v-10.1c0-3.3,2.7-6,6-6h10.9c3.3,0,6,2.7,6,6v10.1
			C102.9,235.9,100.2,238.6,96.9,238.6z M86,218.5c-2.2,0-4,1.8-4,4v10.1c0,2.2,1.8,4,4,4h10.9c2.2,0,4-1.8,4-4v-10.1
			c0-2.2-1.8-4-4-4H86z"/>
	</g>
	<g>
		<path class="st0" d="M96.8,234.1H86.1c-0.8,0-1.5-0.7-1.5-1.5v-10.2c0-0.8,0.7-1.5,1.5-1.5h10.7c0.8,0,1.5,0.7,1.5,1.5v10.2
			C98.3,233.5,97.6,234.1,96.8,234.1z M86.1,221.9c-0.3,0-0.5,0.2-0.5,0.5v10.2c0,0.3,0.2,0.5,0.5,0.5h10.7c0.3,0,0.5-0.2,0.5-0.5
			v-10.2c0-0.3-0.2-0.5-0.5-0.5H86.1z"/>
	</g>
	<g>
		<path class="st0" d="M133.4,238.6h-10.9c-3.3,0-6-2.7-6-6v-10.1c0-3.3,2.7-6,6-6h10.9c3.3,0,6,2.7,6,6v10.1
			C139.4,235.9,136.7,238.6,133.4,238.6z M122.6,218.5c-2.2,0-4,1.8-4,4v10.1c0,2.2,1.8,4,4,4h10.9c2.2,0,4-1.8,4-4v-10.1
			c0-2.2-1.8-4-4-4H122.6z"/>
	</g>
	<g>
		<path class="st0" d="M133.3,234.1h-10.7c-0.8,0-1.5-0.7-1.5-1.5v-10.2c0-0.8,0.7-1.5,1.5-1.5h10.7c0.8,0,1.5,0.7,1.5,1.5v10.2
			C134.8,233.5,134.2,234.1,133.3,234.1z M122.7,221.9c-0.3,0-0.5,0.2-0.5,0.5v10.2c0,0.3,0.2,0.5,0.5,0.5h10.7
			c0.3,0,0.5-0.2,0.5-0.5v-10.2c0-0.3-0.2-0.5-0.5-0.5H122.7z"/>
	</g>
	<g>
		<path class="st0" d="M179.7,82.9H76.3c-0.6,0-1-0.4-1-1s0.4-1,1-1h103.3c0.6,0,1,0.4,1,1S180.2,82.9,179.7,82.9z"/>
	</g>
	<g>
		<path class="st0" d="M171.3,76.8h-22.1c-0.6,0-1-0.4-1-1V15c0-5.2,3.7-9.7,8.7-10.7c0.7-0.1,1.4-0.2,2.2-0.2h2.3
			c6,0,10.9,4.9,10.9,10.9v60.8C172.3,76.4,171.8,76.8,171.3,76.8z M150.2,74.8h20.1V15c0-4.9-4-8.9-8.9-8.9h-2.3
			c-0.6,0-1.2,0.1-1.8,0.2c-4.1,0.8-7.1,4.5-7.1,8.7V74.8z"/>
	</g>
	<g>
		<path class="st0" d="M166.3,76.3h-12.2c-0.3,0-0.5-0.2-0.5-0.5V15c0-2.6,1.8-4.8,4.3-5.3c0.4-0.1,0.7-0.1,1.1-0.1h2.3
			c3,0,5.4,2.4,5.4,5.4v41c0,0.3-0.2,0.5-0.5,0.5s-0.5-0.2-0.5-0.5V15c0-2.5-2-4.4-4.4-4.4h-2.3c-0.3,0-0.6,0-0.9,0.1
			c-2.1,0.4-3.5,2.2-3.5,4.4v60.3h11.2V62.1c0-0.3,0.2-0.5,0.5-0.5s0.5,0.2,0.5,0.5v13.7C166.8,76.1,166.6,76.3,166.3,76.3z"/>
	</g>
	<g>
		<path class="st0" d="M160.2,76.3c-0.3,0-0.5-0.2-0.5-0.5V16.4c0-0.3,0.2-0.5,0.5-0.5s0.5,0.2,0.5,0.5v59.5
			C160.7,76.1,160.5,76.3,160.2,76.3z"/>
	</g>
	<g>
		<path class="st0" d="M84.7,46.7c-0.6,0-1-0.4-1-1v-2.7c0-0.6,0.4-1,1-1s1,0.4,1,1v2.7C85.7,46.2,85.3,46.7,84.7,46.7z"/>
	</g>
	<g>
		<path class="st0" d="M149.2,82.9H84.7c-0.6,0-1-0.4-1-1V50.2c0-0.6,0.4-1,1-1s1,0.4,1,1v30.7h62.5V15c0-3.6,1.8-6.9,4.6-8.9H94.6
			c-4.9,0-8.9,4-8.9,8.9v20.3c0,0.6-0.4,1-1,1s-1-0.4-1-1V15c0-6,4.9-10.9,10.9-10.9h62.5c0.6,0,1,0.4,1,1v0.2c0,0.5-0.3,0.9-0.8,1
			c-4.1,0.8-7.1,4.5-7.1,8.7v66.8C150.2,82.4,149.7,82.9,149.2,82.9z"/>
	</g>
	<g>
		<path class="st0" d="M135.8,44H91.2c-0.3,0-0.5-0.2-0.5-0.5s0.2-0.5,0.5-0.5h44.7c0.3,0,0.5,0.2,0.5,0.5S136.1,44,135.8,44z"/>
	</g>
	<g>
		<path class="st0" d="M140.8,54.6H91.2c-0.3,0-0.5-0.2-0.5-0.5s0.2-0.5,0.5-0.5h49.6c0.3,0,0.5,0.2,0.5,0.5S141.1,54.6,140.8,54.6z
			"/>
	</g>
	<g>
		<path class="st0" d="M130.9,65.1H91.2c-0.3,0-0.5-0.2-0.5-0.5s0.2-0.5,0.5-0.5h39.7c0.3,0,0.5,0.2,0.5,0.5S131.2,65.1,130.9,65.1z
			"/>
	</g>
	<g>
		<path class="st0" d="M130.9,32.8H91.2c-0.3,0-0.5-0.2-0.5-0.5s0.2-0.5,0.5-0.5h39.7c0.3,0,0.5,0.2,0.5,0.5S131.2,32.8,130.9,32.8z
			"/>
	</g>
	<g>
		<path class="st0" d="M140.8,21.6H91.2c-0.3,0-0.5-0.2-0.5-0.5s0.2-0.5,0.5-0.5h49.6c0.3,0,0.5,0.2,0.5,0.5S141.1,21.6,140.8,21.6z
			"/>
	</g>
</g>
</svg>
