<?xml version="1.0" encoding="utf-8"?>
<!-- Generator: Adobe Illustrator 22.1.0, SVG Export Plug-In . SVG Version: 6.00 Build 0)  -->
<svg version="1.1" id="Layer_1" xmlns="http://www.w3.org/2000/svg" xmlns:xlink="http://www.w3.org/1999/xlink" x="0px" y="0px"
	 viewBox="0 0 256 256" style="enable-background:new 0 0 256 256;" xml:space="preserve">
<style type="text/css">
	.st0{fill:#48386A;}
</style>
<g>
	<g>
		<path class="st0" d="M132.4,240.4c-0.3,0-0.5-0.2-0.5-0.5c0-0.3,0.2-0.5,0.5-0.5c29.9-0.4,57.9-12.3,79-33.4
			c26-26,38-63.3,31.9-99.7c0-0.3,0.1-0.5,0.4-0.6c0.3-0.1,0.5,0.1,0.6,0.4c6.2,36.7-5.9,74.3-32.1,100.6
			C190.9,228,162.5,240,132.4,240.4C132.4,240.4,132.4,240.4,132.4,240.4z"/>
	</g>
	<g>
		<path class="st0" d="M149.8,12.7C149.8,12.7,149.7,12.7,149.8,12.7c-8.1-1.4-16.4-1.8-24.6-1.5c-0.3,0-0.5-0.2-0.5-0.5
			s0.2-0.5,0.5-0.5c8.2-0.4,16.6,0.1,24.7,1.5c0.3,0,0.5,0.3,0.4,0.6C150.3,12.5,150,12.7,149.8,12.7z"/>
	</g>
	<g>
		<path class="st0" d="M16.1,125.8c-0.3,0-0.5-0.2-0.5-0.5c0-30.8,12-59.7,33.7-81.4C68.1,25,93.1,13.2,119.6,10.6
			c0.3,0,0.5,0.2,0.5,0.4c0,0.3-0.2,0.5-0.4,0.5c-26.2,2.5-51,14.2-69.7,32.9c-21.6,21.6-33.4,50.2-33.4,80.7
			C16.6,125.5,16.4,125.8,16.1,125.8z"/>
	</g>
	<g>
		<path class="st0" d="M130.7,145.3c-5.1,0-10.3-2-14.2-5.9c-7.8-7.8-7.8-20.5,0-28.4c0.8-0.8,1.8-1.6,2.7-2.3
			c0.5-0.3,1.1-0.2,1.4,0.2c0.3,0.5,0.2,1.1-0.2,1.4c-0.9,0.6-1.7,1.3-2.5,2.1c-7,7-7,18.5,0,25.5c7,7,18.5,7,25.5,0
			c7-7,7-18.5,0-25.5c-4.6-4.6-11.4-6.4-17.7-4.6c-0.5,0.2-1.1-0.2-1.2-0.7c-0.1-0.5,0.2-1.1,0.7-1.2c7-2,14.5,0,19.7,5.1
			c7.8,7.8,7.8,20.5,0,28.4C141,143.4,135.9,145.3,130.7,145.3z"/>
	</g>
	<g>
		<path class="st0" d="M130.7,154.7c-7.5,0-15.1-2.9-20.8-8.6c-0.2-0.2-0.2-0.5,0-0.7s0.5-0.2,0.7,0c11.1,11.1,29.1,11.1,40.2,0
			c11.1-11.1,11.1-29.1,0-40.2c-11.1-11.1-29.1-11.1-40.2,0c-9.9,9.9-11.2,25.3-3.1,36.6c0.2,0.2,0.1,0.5-0.1,0.7
			c-0.2,0.2-0.5,0.1-0.7-0.1c-8.4-11.7-7.1-27.7,3.2-37.9c11.5-11.5,30.2-11.5,41.6,0c11.5,11.5,11.5,30.2,0,41.6
			C145.8,151.8,138.3,154.7,130.7,154.7z"/>
	</g>
	<g>
		<path class="st0" d="M130.7,165.5c-10.3,0-20.6-3.9-28.4-11.8c-15.7-15.7-15.7-41.2,0-56.9c10.8-10.8,26.5-14.5,40.9-9.8
			c6,2,11.4,5.3,15.9,9.8c4.5,4.5,7.8,9.9,9.8,15.9c4.7,14.5,1,30.2-9.8,40.9l0,0l0,0C151.3,161.5,141,165.5,130.7,165.5z M130.7,87
			c-10,0-19.6,3.9-27,11.2c-14.9,14.9-14.9,39.1,0,54s39.1,14.9,54,0l0,0c10.2-10.2,13.8-25.1,9.3-38.9c-1.9-5.7-5-10.8-9.3-15.1
			c-4.3-4.3-9.4-7.4-15.1-9.3C138.7,87.7,134.7,87,130.7,87z"/>
	</g>
	<g>
		<path class="st0" d="M130.8,228.4c-4.7,0-9.3-0.3-14-0.9c-0.5-0.1-0.9-0.5-0.9-1l1.6-64c0-0.3,0.2-0.6,0.4-0.8
			c0.3-0.2,0.6-0.2,0.9-0.1c13.8,4.5,28.7,0.9,38.9-9.3c10.2-10.2,13.8-25.1,9.3-38.9c-0.2-0.5,0.1-1.1,0.6-1.3l59.8-19.6
			c0.3-0.1,0.5-0.1,0.8,0.1c0.2,0.1,0.4,0.3,0.5,0.6c12.1,37.2,2.5,77.4-25.1,105c-5.5,5.5-11.6,10.4-18.1,14.5
			c-0.5,0.3-1.1,0.2-1.4-0.3c-0.3-0.5-0.2-1.1,0.3-1.4c6.4-4,12.4-8.8,17.7-14.2c26.9-26.9,36.4-65.9,24.9-102l-58,19
			c4.3,14.2,0.4,29.5-10.1,40c-10.4,10.5-25.5,14.3-39.7,10.2l-1.5,61.7c18.2,2.3,36.6-0.3,53.3-7.7c0.5-0.2,1.1,0,1.3,0.5
			c0.2,0.5,0,1.1-0.5,1.3C159,225.5,145,228.4,130.8,228.4z"/>
	</g>
	<g>
		<path class="st0" d="M178,216.9c-0.4,0-0.7-0.2-0.9-0.5c-0.3-0.5-0.1-1.1,0.4-1.3c0.9-0.5,1.8-1,2.7-1.5c0.5-0.3,1.1-0.1,1.4,0.4
			c0.3,0.5,0.1,1.1-0.4,1.4c-0.9,0.5-1.9,1-2.8,1.5C178.3,216.8,178.2,216.9,178,216.9z"/>
	</g>
	<g>
		<path class="st0" d="M130.8,222.4L130.8,222.4c-2.7,0-5.5-0.1-8.2-0.3c-0.3,0-0.5-0.2-0.5-0.5l1.3-52.1c0-0.1,0.1-0.3,0.2-0.4
			s0.3-0.1,0.4-0.1c2.2,0.3,4.5,0.5,6.8,0.5c11.8,0,22.9-4.6,31.3-13c10.4-10.4,15-25.3,12.1-39.7c0-0.2,0.1-0.5,0.3-0.6L224,100
			c0.1,0,0.3,0,0.4,0c0.1,0.1,0.2,0.2,0.2,0.3c9,33.8-0.4,68.8-25.2,93.6C181.1,212.3,156.7,222.4,130.8,222.4z M123.1,221.1
			c2.5,0.2,5.1,0.3,7.7,0.3c25.7,0,49.8-10,68-28.2c24.4-24.4,33.8-58.8,25.1-92.1L175.2,117c2.7,14.6-1.9,29.6-12.5,40.2
			c-8.5,8.5-19.9,13.2-32,13.2c-2.1,0-4.3-0.2-6.4-0.4L123.1,221.1z"/>
	</g>
	<g>
		<path class="st0" d="M29.5,140.1c-0.5,0-0.9-0.4-1-0.9c-4.4-32.2,6.3-63.9,29.3-86.9c27.6-27.6,67.9-37.2,105-25.1
			c0.3,0.1,0.5,0.3,0.6,0.5c0.1,0.2,0.1,0.5,0.1,0.8l-19.6,59.8c-0.2,0.5-0.7,0.8-1.3,0.6c-13.8-4.5-28.7-0.9-38.9,9.3
			c-10.2,10.2-13.8,25.1-9.3,38.9c0.1,0.3,0,0.6-0.1,0.9c-0.2,0.3-0.5,0.4-0.8,0.4L29.5,140.1C29.5,140.1,29.5,140.1,29.5,140.1z
			 M130.6,24c-26.4,0-52,10.3-71.4,29.7c-22.3,22.3-32.8,53-28.8,84.3l61.7-1.5c-4.1-14.1-0.3-29.2,10.2-39.7
			c10.5-10.5,25.8-14.3,40-10.1l19-58C151.1,25.6,140.8,24,130.6,24z"/>
	</g>
	<g>
		<path class="st0" d="M34.4,133.9c-0.3,0-0.5-0.2-0.5-0.5c-2.3-26.9,6.4-52.9,24.4-73c0.2-0.2,0.5-0.2,0.7,0c0.2,0.2,0.2,0.5,0,0.7
			c-17.7,19.8-26.3,45.2-24.2,71.7l51-1.3c-2-14,2.8-28.3,12.8-38.3c8.5-8.5,19.9-13.2,32-13.2c2.8,0,5.5,0.3,8.2,0.7l15.9-48.6
			c-7.9-2-16-3.1-24.1-3.1c-24.6,0-47.9,9.3-65.8,26.1c-0.2,0.2-0.5,0.2-0.7,0c-0.2-0.2-0.2-0.5,0-0.7c18.1-17,41.7-26.3,66.5-26.3
			c8.4,0,16.8,1.1,24.9,3.2c0.1,0,0.2,0.1,0.3,0.2c0.1,0.1,0.1,0.3,0,0.4l-16.2,49.5c-0.1,0.2-0.3,0.4-0.6,0.3
			c-2.8-0.5-5.6-0.8-8.5-0.8c-11.8,0-22.9,4.6-31.3,13c-10,10-14.6,24.2-12.4,38c0,0.1,0,0.3-0.1,0.4s-0.2,0.2-0.4,0.2L34.4,133.9
			C34.4,133.9,34.4,133.9,34.4,133.9z"/>
	</g>
	<g>
		<path class="st0" d="M116.3,253c0,0-0.1,0-0.1,0c-29.2-3.3-55.6-16-76.4-36.8S6.3,169,3,139.8c0-0.3,0.1-0.6,0.2-0.8
			s0.4-0.3,0.7-0.3l89.5-2.2c0.4,0,0.8,0.3,1,0.7c0.1,0.4,0.3,0.8,0.4,1.1l0.4,1c0.1,0.3,0.3,0.7,0.4,1c0.4,1,0.8,1.9,1.3,2.8
			c0.2,0.4,0.4,0.8,0.6,1.1c0.2,0.3,0.4,0.6,0.5,0.9c0,0,0.1,0.1,0.1,0.1c0.2,0.3,0.4,0.6,0.6,0.9c0.4,0.6,0.8,1.1,1.1,1.6
			c0,0,0,0.1,0.1,0.1c0,0,0.1,0.1,0.1,0.1c0.3,0.5,0.7,0.9,1.1,1.4c0.3,0.4,0.6,0.7,0.9,1c0.2,0.2,0.3,0.4,0.5,0.5
			c0.2,0.2,0.4,0.4,0.5,0.6c0.3,0.3,0.6,0.6,0.8,0.9c0.3,0.3,0.6,0.5,0.8,0.8c0.2,0.2,0.4,0.4,0.6,0.5c0.2,0.2,0.4,0.4,0.6,0.5
			c0.4,0.3,0.7,0.6,1,0.9c0.5,0.4,0.9,0.7,1.4,1.1l0.1,0.1c0,0,0.1,0,0.1,0.1c0.5,0.3,1,0.7,1.6,1.1c0.3,0.2,0.6,0.4,0.9,0.6
			c0,0,0.1,0.1,0.1,0.1c0.3,0.2,0.6,0.3,0.8,0.5c0.4,0.2,0.8,0.4,1.2,0.6c0.9,0.5,1.9,0.9,2.8,1.3c0.3,0.2,0.7,0.3,1,0.4l1,0.4
			c0.3,0.1,0.7,0.2,1,0.3c0.4,0.1,0.8,0.6,0.8,1l-2.2,89.5c0,0.3-0.1,0.5-0.3,0.7C116.8,252.9,116.5,253,116.3,253z M5.1,140.7
			c3.4,28.3,15.9,53.9,36.1,74.1c20.2,20.2,45.8,32.7,74.1,36.1l2.2-87.6c-0.2-0.1-0.3-0.1-0.4-0.2l-1-0.4c-0.4-0.1-0.7-0.3-1.1-0.4
			c-1-0.4-1.9-0.9-2.9-1.4c-0.4-0.2-0.8-0.4-1.2-0.7c-0.3-0.1-0.6-0.3-0.9-0.5c-0.4-0.2-0.7-0.4-1.1-0.7c-0.6-0.4-1.1-0.8-1.6-1.1
			c-0.1-0.1-0.2-0.1-0.3-0.2c-0.5-0.3-0.9-0.7-1.4-1.1c-0.4-0.3-0.8-0.6-1.1-0.9c-0.2-0.2-0.4-0.3-0.6-0.5c-0.2-0.2-0.4-0.4-0.7-0.6
			c-0.3-0.3-0.6-0.5-0.9-0.8c-0.3-0.3-0.6-0.6-0.8-0.9c-0.2-0.2-0.4-0.4-0.6-0.6c-0.2-0.2-0.4-0.4-0.5-0.6c-0.3-0.3-0.6-0.7-0.9-1.1
			c-0.4-0.5-0.8-1-1.1-1.5c-0.1-0.1-0.1-0.2-0.2-0.2c-0.3-0.5-0.7-1-1.1-1.6c-0.2-0.3-0.4-0.7-0.6-1c-0.2-0.4-0.4-0.7-0.6-1
			c-0.2-0.4-0.4-0.8-0.7-1.2c-0.5-1-1-2-1.4-3c-0.1-0.3-0.3-0.7-0.4-1.1l-0.4-1c-0.1-0.2-0.1-0.3-0.2-0.5L5.1,140.7z"/>
	</g>
	<g>
		<path class="st0" d="M59,224.5c-0.1,0-0.2,0-0.3-0.1c-1-0.7-1.9-1.4-2.8-2.1c-0.2-0.2-0.3-0.5-0.1-0.7c0.2-0.2,0.5-0.3,0.7-0.1
			c0.9,0.7,1.9,1.4,2.8,2.1c0.2,0.2,0.3,0.5,0.1,0.7C59.3,224.5,59.1,224.5,59,224.5z"/>
	</g>
	<g>
		<path class="st0" d="M110.9,246.2C110.9,246.2,110.9,246.2,110.9,246.2c-18.3-3-35.2-9.8-50.2-20.3c-0.2-0.2-0.3-0.5-0.1-0.7
			c0.2-0.2,0.5-0.3,0.7-0.1c14.7,10.3,31.3,17.1,49.2,20l2-78.5c-0.9-0.4-1.8-0.8-2.7-1.3c-0.5-0.2-0.9-0.5-1.4-0.7
			c-0.3-0.2-0.7-0.4-1-0.6c-0.4-0.3-0.8-0.5-1.2-0.8c-0.7-0.4-1.3-0.9-1.7-1.2c-0.2-0.1-0.3-0.2-0.4-0.3c-0.5-0.4-1-0.8-1.5-1.2
			l-0.1-0.1c-0.4-0.3-0.8-0.6-1.1-0.9c-0.2-0.2-0.5-0.4-0.7-0.6c-0.3-0.2-0.5-0.5-0.8-0.7c-0.3-0.3-0.6-0.6-0.9-0.9
			c-0.3-0.3-0.6-0.6-0.9-0.9c-0.3-0.3-0.5-0.5-0.7-0.8c-0.2-0.2-0.4-0.5-0.6-0.6c-0.3-0.4-0.6-0.8-1-1.1l-0.1-0.1
			c-0.4-0.5-0.8-1-1.2-1.6c-0.1-0.1-0.2-0.3-0.3-0.5c-0.3-0.4-0.7-1-1.2-1.7c-0.2-0.4-0.5-0.8-0.7-1.2c-0.2-0.4-0.4-0.7-0.6-1.1
			c-0.3-0.4-0.5-0.9-0.7-1.3c-0.5-0.9-0.9-1.8-1.3-2.7l-78.5,2c4.2,24.9,15.9,47.6,33.9,65.7c1.8,1.8,3.7,3.6,5.6,5.3
			c0.2,0.2,0.2,0.5,0,0.7c-0.2,0.2-0.5,0.2-0.7,0c-1.9-1.7-3.9-3.5-5.7-5.4c-18.3-18.3-30.2-41.4-34.3-66.8c0-0.1,0-0.3,0.1-0.4
			c0.1-0.1,0.2-0.2,0.4-0.2l79.4-2c0.2,0,0.4,0.1,0.5,0.3c0.4,1,0.9,2,1.4,3c0.2,0.4,0.5,0.9,0.7,1.3c0.2,0.4,0.4,0.7,0.6,1
			c0.3,0.4,0.5,0.8,0.7,1.2c0.4,0.6,0.8,1.2,1.2,1.7c0.1,0.2,0.2,0.3,0.3,0.4c0.4,0.5,0.8,1,1.2,1.5l0.1,0.1c0.3,0.4,0.6,0.8,1,1.1
			c0.1,0.2,0.3,0.4,0.6,0.6c0.2,0.3,0.5,0.5,0.7,0.8c0.3,0.3,0.6,0.6,0.9,0.9c0.3,0.3,0.6,0.6,0.9,0.9c0.3,0.2,0.5,0.5,0.8,0.7
			c0.2,0.2,0.5,0.4,0.7,0.6c0.3,0.3,0.7,0.6,1.1,0.9l0.1,0.1c0.5,0.4,1,0.8,1.5,1.2c0.1,0.1,0.2,0.2,0.4,0.3
			c0.5,0.4,1.1,0.8,1.7,1.2c0.4,0.2,0.7,0.5,1.1,0.7c0.4,0.2,0.7,0.4,1.1,0.6c0.4,0.3,0.9,0.5,1.3,0.7c1,0.5,2,1,3,1.4
			c0.2,0.1,0.3,0.3,0.3,0.5l-2,79.4c0,0.1-0.1,0.3-0.2,0.4C111.2,246.2,111.1,246.2,110.9,246.2z"/>
	</g>
	<g>
		<path class="st0" d="M96,144.5c-0.4,0-0.7-0.2-0.9-0.5c-0.5-1-1-2-1.4-3c-0.2-0.5,0-1.1,0.5-1.3c0.5-0.2,1.1,0,1.3,0.5
			c0.4,0.9,0.8,1.8,1.3,2.8c0.3,0.5,0.1,1.1-0.4,1.3C96.3,144.5,96.2,144.5,96,144.5z"/>
	</g>
	<g>
		<path class="st0" d="M115.4,162.3c-0.1,0-0.3,0-0.4-0.1c-1-0.4-2-0.9-3-1.4c-0.5-0.3-0.7-0.9-0.4-1.3c0.3-0.5,0.9-0.7,1.3-0.4
			c1,0.5,1.9,1,2.8,1.3c0.5,0.2,0.7,0.8,0.5,1.3C116.1,162.1,115.8,162.3,115.4,162.3z"/>
	</g>
	<g>
		<path class="st0" d="M168,114.1c-0.2,0-0.3,0-0.5-0.1c-0.2-0.1-0.4-0.3-0.5-0.6c-1.9-5.7-5-10.8-9.3-15.1
			c-4.3-4.3-9.4-7.4-15.1-9.3c-0.3-0.1-0.5-0.3-0.6-0.5s-0.1-0.5-0.1-0.8l27.5-84c0.2-0.5,0.7-0.8,1.3-0.6
			c14.6,4.8,28.1,12,40.1,21.6c0.4,0.3,0.5,1,0.2,1.4c-0.3,0.4-1,0.5-1.4,0.2C198,17,185.1,10,171.1,5.3l-26.9,82.1
			c5.7,2,10.7,5.2,15,9.5c4.3,4.3,7.5,9.3,9.5,15l82.1-26.9c-6.2-18.6-16.5-35.2-30.5-49.2c-1.3-1.3-2.7-2.7-4.1-3.9
			c-0.4-0.4-0.4-1-0.1-1.4c0.4-0.4,1-0.4,1.4-0.1c1.4,1.3,2.8,2.6,4.2,4c14.5,14.5,25,31.6,31.3,50.9c0.2,0.5-0.1,1.1-0.6,1.3
			l-84,27.5C168.2,114,168.1,114.1,168,114.1z"/>
	</g>
	<g>
		<path class="st0" d="M171.2,106.7c-0.2,0-0.4-0.1-0.5-0.3c-2.2-4.6-5.1-8.8-8.8-12.4c-3.7-3.7-7.8-6.6-12.4-8.8
			c-0.2-0.1-0.3-0.4-0.3-0.6l24.1-73.7c0-0.1,0.1-0.2,0.3-0.3s0.3-0.1,0.4,0c16.3,6.1,30.9,15.6,43.3,28c12.4,12.4,21.9,27,28,43.3
			c0,0.1,0,0.3,0,0.4s-0.2,0.2-0.3,0.3l-73.7,24.1C171.3,106.7,171.3,106.7,171.2,106.7z M150.4,84.5c4.5,2.2,8.7,5.1,12.3,8.8
			c3.6,3.6,6.6,7.8,8.8,12.3l72.8-23.8c-6.1-16-15.4-30.2-27.6-42.5c-12.2-12.2-26.5-21.5-42.5-27.6L150.4,84.5z"/>
	</g>
</g>
</svg>
