<svg xmlns="http://www.w3.org/2000/svg" id="Layer_1" x="0" y="0" version="1.1" viewBox="0 0 256 256" xml:space="preserve"><style>.st0{fill:#48386a}</style><path d="M169.7 230.5h-31.3c-.6 0-1-.4-1-1s.4-1 1-1h31.3c2.3 0 4.2-1.9 4.2-4.2V115.7c0-2.3-1.9-4.2-4.2-4.2H9.2c-2.3 0-4.2 1.9-4.2 4.2v108.6c0 2.3 1.9 4.2 4.2 4.2h123.5c.6 0 1 .4 1 1s-.4 1-1 1H9.2c-3.4 0-6.2-2.8-6.2-6.2V115.7c0-3.4 2.8-6.2 6.2-6.2h160.5c3.4 0 6.2 2.8 6.2 6.2v108.6c-.1 3.4-2.8 6.2-6.2 6.2z" class="st0"/><path d="M166.6 221.8H12.2c-.3 0-.5-.2-.5-.5V118.8c0-.3.2-.5.5-.5h154.3c.3 0 .5.2.5.5v10.3c0 .3-.2.5-.5.5s-.5-.2-.5-.5v-9.8H12.7v101.4H166V134c0-.3.2-.5.5-.5s.5.2.5.5v87.3c.1.2-.1.5-.4.5z" class="st0"/><path d="M54 162.7h-1.1c-.6 0-1-.4-1-1s.4-1 1-1H54c.6 0 1 .4 1 1s-.4 1-1 1z" class="st0"/><path d="M77.9 162.7h-20c-.6 0-1-.4-1-1s.4-1 1-1h19v-30.6H23.6v30.6h24.9c.6 0 1 .4 1 1s-.4 1-1 1H22.6c-.6 0-1-.4-1-1v-32.6c0-.6.4-1 1-1h55.3c.6 0 1 .4 1 1v32.6c0 .6-.4 1-1 1z" class="st0"/><path d="M73.8 158.1H26.7c-.3 0-.5-.2-.5-.5v-24.3c0-.3.2-.5.5-.5h47.1c.3 0 .5.2.5.5v24.3c0 .3-.2.5-.5.5zm-46.6-1h46.1v-23.3H27.2v23.3zM156.3 180.3h-27c-.3 0-.5-.2-.5-.5s.2-.5.5-.5h27c.3 0 .5.2.5.5s-.3.5-.5.5zM125.3 180.3H95.4c-.3 0-.5-.2-.5-.5s.2-.5.5-.5h29.9c.3 0 .5.2.5.5s-.2.5-.5.5zM146 190.3H95.4c-.3 0-.5-.2-.5-.5s.2-.5.5-.5H146c.3 0 .5.2.5.5s-.3.5-.5.5zM135.6 200.4H95.4c-.3 0-.5-.2-.5-.5s.2-.5.5-.5h40.2c.3 0 .5.2.5.5s-.2.5-.5.5zM125.3 210.4H95.4c-.3 0-.5-.2-.5-.5s.2-.5.5-.5h29.9c.3 0 .5.2.5.5s-.2.5-.5.5zM246.8 146.4h-72c-.6 0-1-.4-1-1v-29.7c0-2.3-1.9-4.2-4.2-4.2H81.2c-.6 0-1-.4-1-1V31.6c0-3.4 2.8-6.2 6.2-6.2h160.5c3.4 0 6.2 2.8 6.2 6.2V74c0 .6-.4 1-1 1s-1-.4-1-1V31.6c0-2.3-1.9-4.2-4.2-4.2H86.3c-2.3 0-4.2 1.9-4.2 4.2v77.9h87.5c3.4 0 6.2 2.8 6.2 6.2v28.7h71c2.3 0 4.2-1.9 4.2-4.2V93.1c0-.6.4-1 1-1s1 .4 1 1v47.2c0 3.4-2.8 6.1-6.2 6.1z" class="st0"/><path d="M252 89.3c-.6 0-1-.4-1-1v-4.8c0-.6.4-1 1-1s1 .4 1 1v4.8c0 .6-.4 1-1 1zM243.8 137.7h-68.9c-.3 0-.5-.2-.5-.5v-21.4c0-2.6-2.1-4.7-4.7-4.7h-40.2c-.2 0-.4-.1-.5-.4-.1-.2 0-.4.2-.6l32.1-21.3c.2-.1.4-.1.6 0l4.7 3.6 4.7-3.6c.2-.1.4-.1.6 0l72.2 47.9c.2.1.3.3.2.6-.1.2-.3.4-.5.4zm-68.5-1h66.8l-70.5-46.8-4.7 3.6c-.2.1-.4.1-.6 0l-4.7-3.6-30.4 20.2h38.5c3.1 0 5.7 2.5 5.7 5.7v20.9z" class="st0"/><path d="M166.6 93.6c-.1 0-.2 0-.3-.1L89.1 35.1c-.2-.1-.2-.4-.2-.6s.3-.3.5-.3h42.3c.3 0 .5.2.5.5s-.2.5-.5.5H90.9l75.7 57.2 75.7-57.2h-96.1c-.3 0-.5-.2-.5-.5s.2-.5.5-.5h97.6c.2 0 .4.1.5.3.1.2 0 .4-.2.6l-77.2 58.3c-.1.1-.2.2-.3.2z" class="st0"/><path d="M142.9 35.2h-3.5c-.3 0-.5-.2-.5-.5s.2-.5.5-.5h3.5c.3 0 .5.2.5.5s-.2.5-.5.5zM243.8 137.7c-.1 0-.2 0-.3-.1l-72.2-47.9c-.1-.1-.2-.2-.2-.4s.1-.3.2-.4l72.2-54.5c.2-.1.4-.1.5 0 .2.1.3.3.3.4v102.4c0 .2-.1.4-.3.4-.1.1-.2.1-.2.1zm-71.3-48.4l70.8 47V35.7l-70.8 53.6zM129.5 111.1H89.4c-.3 0-.5-.2-.5-.5V34.7c0-.2.1-.4.3-.4.2-.1.4-.1.5 0l67.7 51.2 4.4 3.3c.1.1.2.3.2.4 0 .2-.1.3-.2.4l-32 21.4c-.1 0-.2.1-.3.1zm-39.6-1h39.4l31.4-20.8-3.8-2.9-67-50.7v74.4z" class="st0"/></svg>