<?xml version="1.0" encoding="utf-8"?>
<!-- Generator: Adobe Illustrator 22.1.0, SVG Export Plug-In . SVG Version: 6.00 Build 0)  -->
<svg version="1.1" id="Layer_1" xmlns="http://www.w3.org/2000/svg" xmlns:xlink="http://www.w3.org/1999/xlink" x="0px" y="0px"
	 viewBox="0 0 256 256" style="enable-background:new 0 0 256 256;" xml:space="preserve">
<style type="text/css">
	.st0{fill:#48386A;}
</style>
<g>
	<g>
		<path class="st0" d="M4.8,211.9c-0.6,0-1-0.4-1-1v-0.4c0-0.6,0.4-1,1-1s1,0.4,1,1v0.1c0,0.1,0,0.1,0,0.2c0,0.3-0.1,0.6-0.3,0.8
			S5.1,211.9,4.8,211.9z"/>
	</g>
	<g>
		<path class="st0" d="M138.6,127.7c-0.6,0-1-0.4-1-1v-7.2c0-0.6,0.4-1,1-1s1,0.4,1,1v7.2C139.6,127.3,139.1,127.7,138.6,127.7z"/>
	</g>
	<g>
		<path class="st0" d="M4.8,211.5c-0.6,0-1-0.4-1-1V36.8c0-6.5,5.3-11.9,11.9-11.9h122.9c0.6,0,1,0.4,1,1v84.6c0,0.6-0.4,1-1,1
			s-1-0.4-1-1V26.9H15.7c-5.4,0-9.9,4.4-9.9,9.9v164.9c3.3-6.9,10.4-11.7,18.6-11.7h113.2V132c0-0.6,0.4-1,1-1s1,0.4,1,1v58.9
			c0,0.6-0.4,1-1,1H24.4c-10.2,0-18.6,8.3-18.6,18.6C5.8,211.1,5.3,211.5,4.8,211.5z"/>
	</g>
	<g>
		<path class="st0" d="M138.6,231.1H93.1c-0.6,0-1-0.4-1-1s0.4-1,1-1h44.5v-3.4H24.4c-4.1,0-7.9-1.6-10.7-4.4
			c-2.8-2.8-4.4-6.5-4.4-10.4v-0.2c0-0.1,0-0.1,0-0.1c0-8.3,6.8-15.1,15.1-15.1h113.2v-3.4H24.4c-10.2,0-18.6,8.3-18.6,18.6
			c0,0.1,0,0.2,0,0.3c0.1,4.9,2,9.4,5.4,12.9c3.5,3.5,8.2,5.4,13.1,5.4h54.9c0.6,0,1,0.4,1,1s-0.4,1-1,1H24.4
			c-5.5,0-10.7-2.1-14.6-6c-3.8-3.8-5.9-8.8-6-14.2c0-0.1,0-0.2,0-0.4c0-11.3,9.2-20.6,20.6-20.6h114.2c0.6,0,1,0.4,1,1v5.4
			c0,0.6-0.4,1-1,1H24.4c-7.2,0-13.1,5.9-13.1,13.1c0,0,0,0.1,0,0.1v0.2c0.1,3.4,1.4,6.6,3.8,9c2.5,2.5,5.8,3.9,9.3,3.9h114.2
			c0.6,0,1,0.4,1,1v5.4C139.6,230.6,139.1,231.1,138.6,231.1z"/>
	</g>
	<g>
		<path class="st0" d="M133.2,225.6H24.4c-4,0-7.9-1.6-10.7-4.4c-2.8-2.8-4.4-6.5-4.4-10.4l0-0.2c0-8.4,6.8-15.2,15.1-15.2h108.8
			c0.6,0,1,0.4,1,1v28.3C134.2,225.2,133.7,225.6,133.2,225.6z M24.4,197.4c-7.2,0-13.1,5.9-13.1,13.1l0,0.2c0.1,3.4,1.4,6.6,3.8,9
			c2.5,2.5,5.8,3.8,9.3,3.8h107.8v-26.3H24.4z"/>
	</g>
	<g>
		<path class="st0" d="M133.2,225.6H24.4c-4,0-7.9-1.6-10.7-4.4c-2.8-2.8-4.4-6.5-4.4-10.4l0-0.2c0-8.4,6.8-15.2,15.1-15.2h108.8
			c0.6,0,1,0.4,1,1v28.3C134.2,225.2,133.7,225.6,133.2,225.6z M24.4,197.4c-7.2,0-13.1,5.9-13.1,13.1l0,0.2c0.1,3.4,1.4,6.6,3.8,9
			c2.5,2.5,5.8,3.8,9.3,3.8h107.8v-26.3H24.4z"/>
	</g>
	<g>
		<path class="st0" d="M115.2,211H22.9c-0.3,0-0.5-0.2-0.5-0.5s0.2-0.5,0.5-0.5h92.3c0.3,0,0.5,0.2,0.5,0.5S115.5,211,115.2,211z"/>
	</g>
	<g>
		<path class="st0" d="M118.5,219.4H29.1c-0.3,0-0.5-0.2-0.5-0.5s0.2-0.5,0.5-0.5h89.4c0.3,0,0.5,0.2,0.5,0.5
			S118.7,219.4,118.5,219.4z"/>
	</g>
	<g>
		<path class="st0" d="M119.9,203.5H98.4c-0.3,0-0.5-0.2-0.5-0.5s0.2-0.5,0.5-0.5h21.5c0.3,0,0.5,0.2,0.5,0.5
			S120.2,203.5,119.9,203.5z"/>
	</g>
	<g>
		<path class="st0" d="M88.1,203.5H25.8c-0.3,0-0.5-0.2-0.5-0.5s0.2-0.5,0.5-0.5h62.3c0.3,0,0.5,0.2,0.5,0.5S88.4,203.5,88.1,203.5z
			"/>
	</g>
	<g>
		<path class="st0" d="M126.6,181.1H16.8c-0.6,0-1-0.4-1-1V36.8c0-0.6,0.4-1,1-1h109.9c0.6,0,1,0.4,1,1v143.3
			C127.6,180.7,127.2,181.1,126.6,181.1z M17.8,179.1h107.9V37.8H17.8V179.1z"/>
	</g>
	<g>
		<path class="st0" d="M121.2,175.2h-99c-0.3,0-0.5-0.2-0.5-0.5v-83c0-0.3,0.2-0.5,0.5-0.5s0.5,0.2,0.5,0.5v82.5h98V42.7h-98v40.5
			c0,0.3-0.2,0.5-0.5,0.5s-0.5-0.2-0.5-0.5v-41c0-0.3,0.2-0.5,0.5-0.5h99c0.3,0,0.5,0.2,0.5,0.5v132.4
			C121.7,175,121.5,175.2,121.2,175.2z"/>
	</g>
	<g>
		<path class="st0" d="M101.2,95.7H42.1c-3.3,0-6-2.7-6-6v-0.9c0-3.3,2.7-6,6-6h59.1c3.3,0,6,2.7,6,6v0.9
			C107.2,93,104.5,95.7,101.2,95.7z M42.1,84.8c-2.2,0-4,1.8-4,4v0.9c0,2.2,1.8,4,4,4h59.1c2.2,0,4-1.8,4-4v-0.9c0-2.2-1.8-4-4-4
			H42.1z"/>
	</g>
	<g>
		<path class="st0" d="M111.2,116.9H32.2c-3.3,0-6-2.7-6-6v-0.9c0-3.3,2.7-6,6-6h78.9c3.3,0,6,2.7,6,6v0.9
			C117.2,114.3,114.5,116.9,111.2,116.9z M32.2,106.1c-2.2,0-4,1.8-4,4v0.9c0,2.2,1.8,4,4,4h78.9c2.2,0,4-1.8,4-4v-0.9
			c0-2.2-1.8-4-4-4H32.2z"/>
	</g>
	<g>
		<path class="st0" d="M90.8,138.2H76.7c-0.6,0-1-0.4-1-1s0.4-1,1-1h14.1c2.4,0,4.3-1.9,4.3-4.3v-0.2c0-2.4-1.9-4.3-4.3-4.3H52.5
			c-2.4,0-4.3,1.9-4.3,4.3v0.2c0,2.4,1.9,4.3,4.3,4.3h12.9c0.6,0,1,0.4,1,1s-0.4,1-1,1H52.5c-3.5,0-6.3-2.8-6.3-6.3v-0.2
			c0-3.5,2.8-6.3,6.3-6.3h38.3c3.5,0,6.3,2.8,6.3,6.3v0.2C97.2,135.3,94.3,138.2,90.8,138.2z"/>
	</g>
	<g>
		<path class="st0" d="M209.5,96.2h-25c-3.6,0-6.4-2.9-6.4-6.4V52.5c0-3.6,2.9-6.4,6.4-6.4h25c3.6,0,6.4,2.9,6.4,6.4v37.3
			C216,93.3,213.1,96.2,209.5,96.2z M184.5,48c-2.4,0-4.4,2-4.4,4.4v37.3c0,2.4,2,4.4,4.4,4.4h25c2.4,0,4.4-2,4.4-4.4V52.5
			c0-2.4-2-4.4-4.4-4.4H184.5z"/>
	</g>
	<g>
		<path class="st0" d="M179.1,81.1h-9.3c-0.6,0-1-0.4-1-1v-18c0-0.6,0.4-1,1-1h9.3c0.6,0,1,0.4,1,1v18
			C180.1,80.7,179.6,81.1,179.1,81.1z M170.8,79.1h7.3v-16h-7.3V79.1z"/>
	</g>
	<g>
		<path class="st0" d="M224.3,81.1H215c-0.6,0-1-0.4-1-1v-18c0-0.6,0.4-1,1-1h9.3c0.6,0,1,0.4,1,1v18
			C225.3,80.7,224.9,81.1,224.3,81.1z M216,79.1h7.3v-16H216V79.1z"/>
	</g>
	<g>
		<path class="st0" d="M201.7,151.9c-0.1,0-0.2,0-0.3-0.1c-2.8-0.9-5.9-0.9-8.6,0c-0.3,0.1-0.6,0.1-0.9-0.1
			c-0.3-0.2-0.4-0.5-0.4-0.8v-29.8c0-0.6,0.4-1,1-1s1,0.4,1,1v28.5c2.4-0.6,4.9-0.6,7.2,0V96.2h-7.2v17.4c0,0.6-0.4,1-1,1
			s-1-0.4-1-1V95.2c0-0.6,0.4-1,1-1h9.2c0.6,0,1,0.4,1,1v55.7c0,0.3-0.2,0.6-0.4,0.8C202.1,151.8,201.9,151.9,201.7,151.9z"/>
	</g>
	<g>
		<path class="st0" d="M209.5,96.2h-25c-3.6,0-6.4-2.9-6.4-6.4V52.5c0-3.6,2.9-6.4,6.4-6.4h25c3.6,0,6.4,2.9,6.4,6.4v37.3
			C216,93.3,213.1,96.2,209.5,96.2z M184.5,48c-2.4,0-4.4,2-4.4,4.4v37.3c0,2.4,2,4.4,4.4,4.4h25c2.4,0,4.4-2,4.4-4.4V52.5
			c0-2.4-2-4.4-4.4-4.4H184.5z"/>
	</g>
	<g>
		<path class="st0" d="M206.6,95.7h-19c-0.3,0-0.5-0.2-0.5-0.5V47c0-0.3,0.2-0.5,0.5-0.5h19c0.3,0,0.5,0.2,0.5,0.5v48.1
			C207.1,95.5,206.8,95.7,206.6,95.7z M188,94.7h18V47.5h-18V94.7z"/>
	</g>
	<g>
		<path class="st0" d="M179.1,81.1h-9.3c-0.6,0-1-0.4-1-1v-18c0-0.6,0.4-1,1-1h9.3c0.6,0,1,0.4,1,1v18
			C180.1,80.7,179.6,81.1,179.1,81.1z M170.8,79.1h7.3v-16h-7.3V79.1z"/>
	</g>
	<g>
		<path class="st0" d="M164.8,96.2h-13.4c-3.3,0-6-2.7-6-6V52c0-3.3,2.7-6,6-6h13.4c3.3,0,6,2.7,6,6v38.1
			C170.8,93.5,168.1,96.2,164.8,96.2z M151.4,48c-2.2,0-4,1.8-4,4v38.1c0,2.2,1.8,4,4,4h13.4c2.2,0,4-1.8,4-4V52c0-2.2-1.8-4-4-4
			H151.4z"/>
	</g>
	<g>
		<path class="st0" d="M224.3,81.1H215c-0.6,0-1-0.4-1-1v-18c0-0.6,0.4-1,1-1h9.3c0.6,0,1,0.4,1,1v18
			C225.3,80.7,224.9,81.1,224.3,81.1z M216,79.1h7.3v-16H216V79.1z"/>
	</g>
	<g>
		<path class="st0" d="M242.4,96.2h-12.8c-3.5,0-6.3-2.8-6.3-6.3V52.4c0-3.5,2.8-6.3,6.3-6.3h12.8c3.5,0,6.3,2.8,6.3,6.3v15.8
			c0,0.6-0.4,1-1,1s-1-0.4-1-1V52.4c0-2.4-1.9-4.3-4.3-4.3h-12.8c-2.4,0-4.3,1.9-4.3,4.3v37.5c0,2.4,1.9,4.3,4.3,4.3h12.8
			c2.4,0,4.3-1.9,4.3-4.3V76.3c0-0.6,0.4-1,1-1s1,0.4,1,1v13.6C248.7,93.4,245.9,96.2,242.4,96.2z"/>
	</g>
	<g>
		<path class="st0" d="M158.1,95.7c-0.3,0-0.5-0.2-0.5-0.5v-27c0-0.3,0.2-0.5,0.5-0.5s0.5,0.2,0.5,0.5v27
			C158.6,95.5,158.3,95.7,158.1,95.7z"/>
	</g>
	<g>
		<path class="st0" d="M158.1,60.3c-0.3,0-0.5-0.2-0.5-0.5V47c0-0.3,0.2-0.5,0.5-0.5s0.5,0.2,0.5,0.5v12.7
			C158.6,60,158.3,60.3,158.1,60.3z"/>
	</g>
	<g>
		<path class="st0" d="M236,95.7c-0.3,0-0.5-0.2-0.5-0.5V47c0-0.3,0.2-0.5,0.5-0.5s0.5,0.2,0.5,0.5v48.1
			C236.5,95.5,236.3,95.7,236,95.7z"/>
	</g>
	<g>
		<path class="st0" d="M201.7,151.9c-0.1,0-0.2,0-0.3-0.1c-2.8-0.9-5.9-0.9-8.6,0c-0.3,0.1-0.6,0.1-0.9-0.1
			c-0.3-0.2-0.4-0.5-0.4-0.8v-29.8c0-0.6,0.4-1,1-1s1,0.4,1,1v28.5c2.4-0.6,4.9-0.6,7.2,0V96.2h-7.2v17.4c0,0.6-0.4,1-1,1
			s-1-0.4-1-1V95.2c0-0.6,0.4-1,1-1h9.2c0.6,0,1,0.4,1,1v55.7c0,0.3-0.2,0.6-0.4,0.8C202.1,151.8,201.9,151.9,201.7,151.9z"/>
	</g>
	<g>
		<path class="st0" d="M197,231.1c-8.6,0-15.7-7-15.7-15.7v-9.6c0-0.6,0.4-1,1-1s1,0.4,1,1v9.6c0,7.5,6.1,13.7,13.7,13.7
			c7.5,0,13.7-6.1,13.7-13.7v-50.6c0-3.7-1.4-7.1-4-9.7c-1.5-1.5-3.4-2.6-5.4-3.3c-2.8-0.9-5.9-0.9-8.6,0c-5.6,1.9-9.4,7.1-9.4,13
			v31.5c0,0.6-0.4,1-1,1s-1-0.4-1-1v-31.5c0-6.8,4.3-12.8,10.7-14.9c3.2-1.1,6.7-1.1,9.9,0c2.3,0.8,4.4,2.1,6.2,3.8
			c3,3,4.6,6.9,4.6,11.1v50.6C212.7,224,205.7,231.1,197,231.1z"/>
	</g>
	<g>
		<path class="st0" d="M197,225.1c-5.4,0-9.7-4.4-9.7-9.7v-50.6c0-4.2,2.7-7.9,6.7-9.2c2-0.7,4.2-0.7,6.1,0c1.4,0.5,2.8,1.3,3.8,2.4
			c1.8,1.8,2.9,4.3,2.9,6.9v9.9c0,0.3-0.2,0.5-0.5,0.5s-0.5-0.2-0.5-0.5v-9.9c0-2.3-0.9-4.5-2.6-6.2c-1-1-2.2-1.7-3.5-2.1
			c-1.8-0.6-3.7-0.6-5.5,0c-3.6,1.2-6,4.5-6,8.3v50.6c0,4.8,3.9,8.7,8.7,8.7s8.7-3.9,8.7-8.7v-31.9c0-0.3,0.2-0.5,0.5-0.5
			s0.5,0.2,0.5,0.5v31.9C206.8,220.8,202.4,225.1,197,225.1z"/>
	</g>
</g>
</svg>
