<svg xmlns="http://www.w3.org/2000/svg" id="Layer_1" x="0" y="0" version="1.1" viewBox="0 0 256 256" xml:space="preserve"><style>.st0{fill:#48386a}</style><path d="M114.4 250.9C54.1 250.9 5 201.9 5 141.5S54.1 32.1 114.4 32.1c27.5 0 53.8 10.3 74.1 29 .2.2.3.4.3.7 0 .3-.1.5-.3.7l-76.4 76.4c-1.4 1.4-1.4 3.7 0 5 1.3 1.3 3.7 1.3 5 0l76.4-76.4c.2-.2.5-.3.7-.3.3 0 .5.1.7.3 18.6 20.2 28.8 46.5 28.8 74 0 25.5-9 50.3-25.3 70-.4.4-1 .5-1.4.1-.4-.4-.5-1-.1-1.4 16-19.3 24.9-43.6 24.9-68.7 0-26.6-9.8-52.1-27.6-71.8l-75.6 75.6c-1 1-2.4 1.6-3.9 1.6s-2.9-.6-3.9-1.6c-1.1-1.1-1.6-2.5-1.6-3.9 0-1.5.6-2.9 1.6-3.9l75.6-75.6c-19.8-17.9-45.3-27.7-72-27.7C55.2 34.1 7 82.3 7 141.5s48.2 107.4 107.4 107.4c29.2 0 56.5-11.6 77-32.5.4-.4 1-.4 1.4 0 .4.4.4 1 0 1.4-20.8 21.4-48.6 33.1-78.4 33.1z" class="st0"/><path d="M114.4 244.9c-57 0-103.4-46.4-103.4-103.4S57.5 38.2 114.4 38.2c25.9 0 50.7 9.7 69.8 27.2.1.1.2.2.2.4s0 .3-.1.4l-72.4 72.4c-1.6 1.6-1.6 4.2 0 5.8.8.8 1.8 1.2 2.9 1.2s2.1-.4 2.9-1.2L190 71.8c.1-.1.2-.1.4-.1.1 0 .3.1.4.2 17.5 19.1 27.1 43.9 27.1 69.7-.1 56.9-46.5 103.3-103.5 103.3zm0-205.7C58 39.2 12.1 85.1 12.1 141.5S58 243.9 114.4 243.9 216.8 198 216.8 141.5c0-25.4-9.4-49.7-26.5-68.6l-72 72c-1 1-2.2 1.5-3.6 1.5s-2.6-.5-3.6-1.5c-2-2-2-5.2 0-7.2l72-72c-18.8-17.1-43.2-26.5-68.7-26.5z" class="st0"/><path d="M63.9 72.8c-.3 0-.6-.1-.8-.4-.3-.4-.2-1.1.2-1.4l3-2.1c.5-.3 1.1-.2 1.4.3.3.5.2 1.1-.3 1.4l-3 2.1c-.1.1-.3.1-.5.1z" class="st0"/><path d="M114.4 228.6c-48 0-87.1-39.1-87.1-87.1 0-25 10.8-48.9 29.7-65.4.4-.4 1-.3 1.4.1.4.4.3 1-.1 1.4-18.4 16.2-29 39.5-29 63.9 0 46.9 38.2 85.1 85.1 85.1s85.1-38.2 85.1-85.1c0-20.6-7.5-40.5-21.1-56l-59.8 59.8c-1 1-2.4 1.6-3.9 1.6s-2.9-.6-3.9-1.6c-2.2-2.2-2.2-5.7 0-7.9l59.8-59.8c-15.5-13.7-35.4-21.2-56.1-21.2-15 0-29.8 4-42.7 11.5-.5.3-1.1.1-1.4-.4-.3-.5-.1-1.1.4-1.4 13.2-7.7 28.4-11.8 43.7-11.8 21.5 0 42.2 8 58.2 22.4.2.2.3.4.3.7 0 .3-.1.5-.3.7l-60.5 60.5c-.7.7-1 1.6-1 2.5 0 1 .4 1.8 1 2.5 1.3 1.3 3.7 1.3 5 0l60.5-60.5c.2-.2.5-.3.7-.3.3 0 .5.1.7.3 14.4 16 22.3 36.7 22.3 58.1.1 48.3-38.9 87.4-87 87.4z" class="st0"/><path d="M109.8 211.2c-36.6-2.4-65.2-33-65.2-69.7 0-38.5 31.3-69.8 69.8-69.8 17 0 33.3 6.2 46 17.4.1.1.2.2.2.4 0 .1 0 .3-.1.4l-48.7 48.7c-1.6 1.6-1.6 4.2 0 5.8.8.8 1.8 1.2 2.9 1.2 1.1 0 2.1-.4 2.9-1.2l48.7-48.7c.1-.1.2-.2.4-.1.1 0 .3.1.4.2 11.1 12.7 17.3 29 17.3 45.9 0 36.3-28.3 66.9-64.5 69.6-.3 0-.5-.2-.5-.5s.2-.5.5-.5c35.6-2.7 63.5-32.9 63.5-68.6 0-16.5-5.9-32.4-16.7-44.9l-48.3 48.3c-1 1-2.2 1.5-3.6 1.5s-2.6-.5-3.6-1.5c-2-2-2-5.2 0-7.2l48.3-48.3c-12.5-10.8-28.4-16.8-45-16.8-37.9 0-68.8 30.9-68.8 68.8 0 36.1 28.2 66.3 64.2 68.7.3 0 .5.3.5.5-.1.2-.3.4-.6.4z" class="st0"/><path d="M114.4 211.3c-.3 0-.5-.2-.5-.5s.2-.5.5-.5h2.5c.2 0 .5.2.5.5s-.2.5-.5.5h-2.5zM114.4 195.1c-23.1 0-43.6-14.8-50.8-36.7-.2-.5.1-1.1.6-1.3.5-.2 1.1.1 1.3.6 7 21.2 26.7 35.4 48.9 35.4 28.4 0 51.5-23.1 51.5-51.5 0-11.7-4-23.1-11.3-32.2l-36 36c-1 1-2.4 1.6-3.9 1.6s-2.9-.6-3.9-1.6c-2.2-2.2-2.2-5.7 0-7.9l36-36C137.6 94 126.2 90 114.4 90c-28.4 0-51.5 23.1-51.5 51.5 0 4.1.5 8.1 1.4 12 .1.5-.2 1.1-.7 1.2-.5.1-1.1-.2-1.2-.7-1-4.1-1.5-8.2-1.5-12.5 0-29.5 24-53.5 53.5-53.5 12.6 0 24.8 4.5 34.5 12.6.2.2.3.4.4.7 0 .3-.1.6-.3.7l-36.8 36.8c-1.4 1.4-1.4 3.7 0 5 1.3 1.3 3.7 1.3 5 0L154 107c.2-.2.5-.3.8-.3.3 0 .5.1.7.4 8.1 9.6 12.5 21.8 12.5 34.4 0 29.5-24 53.6-53.6 53.6z" class="st0"/><path d="M114.4 177.8c-20 0-36.3-16.3-36.3-36.3s16.3-36.3 36.3-36.3c8.1 0 15.8 2.6 22.2 7.6.1.1.2.2.2.4s0 .3-.1.4l-24.9 24.9c-1.6 1.6-1.6 4.2 0 5.8.8.8 1.8 1.2 2.9 1.2 1.1 0 2.1-.4 2.9-1.2l24.9-24.9c.1-.1.2-.2.4-.1.1 0 .3.1.4.2 4.9 6.4 7.5 14 7.5 22.1 0 6.2-1.6 12.3-4.6 17.7-.1.2-.4.3-.7.2-.2-.1-.3-.4-.2-.7 2.9-5.2 4.5-11.2 4.5-17.2 0-7.6-2.4-14.9-7-21L118.4 145c-1 1-2.2 1.5-3.6 1.5s-2.6-.5-3.6-1.5c-2-2-2-5.2 0-7.2l24.5-24.5c-6.1-4.6-13.4-7.1-21.2-7.1-19.5 0-35.3 15.8-35.3 35.3s15.8 35.3 35.3 35.3c10 0 19.6-4.3 26.3-11.8.2-.2.5-.2.7 0 .2.2.2.5 0 .7a36.3 36.3 0 01-27.1 12.1z" class="st0"/><path d="M114.4 161.5c-11 0-20-9-20-20s9-20 20-20c3.7 0 7.3 1 10.4 2.9.3.2.4.4.5.7 0 .3-.1.6-.3.8l-12.8 12.8c-1.4 1.4-1.4 3.7 0 5 1.3 1.3 3.7 1.3 5 0l12.8-12.8c.2-.2.5-.3.8-.3.3 0 .6.2.7.5 1.9 3.1 2.8 6.6 2.8 10.3.1 11.1-8.8 20.1-19.9 20.1zm0-38c-9.9 0-18 8.1-18 18s8.1 18 18 18 18-8.1 18-18c0-2.8-.7-5.6-1.9-8.1l-11.9 11.9c-1 1-2.4 1.6-3.9 1.6s-2.9-.6-3.9-1.6c-2.2-2.2-2.2-5.7 0-7.9l11.9-11.9c-2.6-1.3-5.4-2-8.3-2z" class="st0"/><path d="M114.7 146.9c-1.5 0-2.9-.6-3.9-1.6-2.2-2.2-2.2-5.7 0-7.9l119-119c2.2-2.2 5.7-2.2 7.9 0 1.1 1.1 1.6 2.5 1.6 3.9 0 1.5-.6 2.9-1.6 3.9l-119 119c-1.1 1.1-2.5 1.7-4 1.7zm119-128.1c-.9 0-1.8.3-2.5 1l-119 119c-1.4 1.4-1.4 3.7 0 5 1.3 1.3 3.7 1.3 5 0l119-119c.7-.7 1-1.6 1-2.5 0-1-.4-1.8-1-2.5-.7-.6-1.6-1-2.5-1z" class="st0"/><path d="M111.5 145.1c-.1 0-.3 0-.4-.1-.2-.2-.2-.5 0-.7l52.8-52.8c.2-.2.5-.2.7 0s.2.5 0 .7L111.8 145c-.1 0-.2.1-.3.1zM168.9 87.7c-.1 0-.3 0-.4-.1-.2-.2-.2-.5 0-.7l68.1-68.1c.2-.2.5-.2.7 0s.2.5 0 .7l-68.1 68.1c-.1 0-.2.1-.3.1zM220.2 43.3c-.4 0-.7-.2-.9-.5-.2-.4-.1-.9.2-1.2L232 29.1c.1-.1.3-.2.5-.3l19.3-4c.4-.1.9.1 1.1.5.2.4.1.9-.2 1.2L240.2 39c-.1.1-.3.2-.5.3l-19.3 4h-.2zm13-12.6l-9.9 9.9 15.7-3.3 9.9-9.9-15.7 3.3zm6.3 7.6zM202.5 61c-.4 0-.7-.2-.9-.5-.2-.4-.1-.9.2-1.2l12.5-12.5c.1-.1.3-.2.5-.3l19.3-4c.4-.1.9.1 1.1.5.2.4.1.9-.2 1.2l-6.3 6.3c-.4.4-1 .4-1.4 0s-.4-1 0-1.4l3.9-3.9-15.7 3.3-9.9 9.9 15.7-3.3 2.7-2.7c.4-.4 1-.4 1.4 0s.4 1 0 1.4l-2.9 2.9c-.1.1-.3.2-.5.3l-19.3 4h-.2zM213.7 36.8c-.2 0-.3 0-.5-.1-.4-.2-.6-.7-.5-1.1l4-19.3c0-.2.1-.4.3-.5l12.5-12.5c.3-.3.8-.4 1.2-.2.4.2.6.7.5 1.1l-4 19.3c0 .2-.1.4-.3.5l-12.5 12.5c-.1.2-.4.3-.7.3zm5-19.7l-3.3 15.7 9.9-9.9 3.3-15.7-9.9 9.9zM196 54.6c-.2 0-.3 0-.5-.1-.4-.2-.6-.7-.5-1.1l4-19.3c0-.2.1-.4.3-.5l12.5-12.5c.3-.3.8-.4 1.2-.2.4.2.6.7.5 1.1l-4 19.3c0 .2-.1.4-.3.5l-12.5 12.5c-.2.2-.4.3-.7.3zm4.9-19.8l-3.3 15.7 9.9-9.9 3.3-15.7-9.9 9.9z" class="st0"/></svg>