<?xml version="1.0" encoding="utf-8"?>
<!-- Generator: Adobe Illustrator 22.1.0, SVG Export Plug-In . SVG Version: 6.00 Build 0)  -->
<svg version="1.1" id="Layer_1" xmlns="http://www.w3.org/2000/svg" xmlns:xlink="http://www.w3.org/1999/xlink" x="0px" y="0px"
	 viewBox="0 0 256 256" style="enable-background:new 0 0 256 256;" xml:space="preserve">
<style type="text/css">
	.st0{fill:#48386A;}
</style>
<g>
	<g>
		<path class="st0" d="M114.4,250.9C54.1,250.9,5,201.9,5,141.5S54.1,32.1,114.4,32.1c27.5,0,53.8,10.3,74.1,29
			c0.2,0.2,0.3,0.4,0.3,0.7c0,0.3-0.1,0.5-0.3,0.7l-76.4,76.4c-1.4,1.4-1.4,3.7,0,5c1.3,1.3,3.7,1.3,5,0l76.4-76.4
			c0.2-0.2,0.5-0.3,0.7-0.3c0.3,0,0.5,0.1,0.7,0.3c18.6,20.2,28.8,46.5,28.8,74c0,25.5-9,50.3-25.3,70c-0.4,0.4-1,0.5-1.4,0.1
			c-0.4-0.4-0.5-1-0.1-1.4c16-19.3,24.9-43.6,24.9-68.7c0-26.6-9.8-52.1-27.6-71.8l-75.6,75.6c-1,1-2.4,1.6-3.9,1.6
			s-2.9-0.6-3.9-1.6c-1.1-1.1-1.6-2.5-1.6-3.9c0-1.5,0.6-2.9,1.6-3.9l75.6-75.6c-19.8-17.9-45.3-27.7-72-27.7
			C55.2,34.1,7,82.3,7,141.5s48.2,107.4,107.4,107.4c29.2,0,56.5-11.6,77-32.5c0.4-0.4,1-0.4,1.4,0c0.4,0.4,0.4,1,0,1.4
			C172,239.2,144.2,250.9,114.4,250.9z"/>
	</g>
	<g>
		<path class="st0" d="M114.4,244.9c-57,0-103.4-46.4-103.4-103.4S57.5,38.2,114.4,38.2c25.9,0,50.7,9.7,69.8,27.2
			c0.1,0.1,0.2,0.2,0.2,0.4s0,0.3-0.1,0.4l-72.4,72.4c-1.6,1.6-1.6,4.2,0,5.8c0.8,0.8,1.8,1.2,2.9,1.2s2.1-0.4,2.9-1.2L190,71.8
			c0.1-0.1,0.2-0.1,0.4-0.1c0.1,0,0.3,0.1,0.4,0.2c17.5,19.1,27.1,43.9,27.1,69.7C217.8,198.5,171.4,244.9,114.4,244.9z M114.4,39.2
			C58,39.2,12.1,85.1,12.1,141.5S58,243.9,114.4,243.9c56.4,0,102.4-45.9,102.4-102.4c0-25.4-9.4-49.7-26.5-68.6l-72,72
			c-1,1-2.2,1.5-3.6,1.5c-1.4,0-2.6-0.5-3.6-1.5c-2-2-2-5.2,0-7.2l72-72C164.3,48.6,139.9,39.2,114.4,39.2z"/>
	</g>
	<g>
		<path class="st0" d="M63.9,72.8c-0.3,0-0.6-0.1-0.8-0.4c-0.3-0.4-0.2-1.1,0.2-1.4c1-0.7,2-1.4,3-2.1c0.5-0.3,1.1-0.2,1.4,0.3
			c0.3,0.5,0.2,1.1-0.3,1.4c-1,0.7-2,1.4-3,2.1C64.3,72.8,64.1,72.8,63.9,72.8z"/>
	</g>
	<g>
		<path class="st0" d="M114.4,228.6c-48,0-87.1-39.1-87.1-87.1c0-25,10.8-48.9,29.7-65.4c0.4-0.4,1-0.3,1.4,0.1
			c0.4,0.4,0.3,1-0.1,1.4c-18.4,16.2-29,39.5-29,63.9c0,46.9,38.2,85.1,85.1,85.1s85.1-38.2,85.1-85.1c0-20.6-7.5-40.5-21.1-56
			l-59.8,59.8c-1,1-2.4,1.6-3.9,1.6s-2.9-0.6-3.9-1.6c-2.2-2.2-2.2-5.7,0-7.9l59.8-59.8c-15.5-13.7-35.4-21.2-56.1-21.2
			c-15,0-29.8,4-42.7,11.5c-0.5,0.3-1.1,0.1-1.4-0.4c-0.3-0.5-0.1-1.1,0.4-1.4c13.2-7.7,28.4-11.8,43.7-11.8
			c21.5,0,42.2,8,58.2,22.4c0.2,0.2,0.3,0.4,0.3,0.7c0,0.3-0.1,0.5-0.3,0.7l-60.5,60.5c-0.7,0.7-1,1.6-1,2.5c0,1,0.4,1.8,1,2.5
			c1.3,1.3,3.7,1.3,5,0l60.5-60.5c0.2-0.2,0.5-0.3,0.7-0.3c0.3,0,0.5,0.1,0.7,0.3c14.4,16,22.3,36.7,22.3,58.1
			C201.5,189.5,162.5,228.6,114.4,228.6z"/>
	</g>
	<g>
		<path class="st0" d="M109.8,211.2C109.8,211.2,109.8,211.2,109.8,211.2c-36.6-2.4-65.2-33-65.2-69.7c0-38.5,31.3-69.8,69.8-69.8
			c17,0,33.3,6.2,46,17.4c0.1,0.1,0.2,0.2,0.2,0.4c0,0.1,0,0.3-0.1,0.4l-48.7,48.7c-1.6,1.6-1.6,4.2,0,5.8c0.8,0.8,1.8,1.2,2.9,1.2
			c1.1,0,2.1-0.4,2.9-1.2l48.7-48.7c0.1-0.1,0.2-0.2,0.4-0.1c0.1,0,0.3,0.1,0.4,0.2c11.1,12.7,17.3,29,17.3,45.9
			c0,36.3-28.3,66.9-64.5,69.6c-0.3,0-0.5-0.2-0.5-0.5c0-0.3,0.2-0.5,0.5-0.5c35.6-2.7,63.5-32.9,63.5-68.6
			c0-16.5-5.9-32.4-16.7-44.9l-48.3,48.3c-1,1-2.2,1.5-3.6,1.5c-1.4,0-2.6-0.5-3.6-1.5c-2-2-2-5.2,0-7.2l48.3-48.3
			c-12.5-10.8-28.4-16.8-45-16.8c-37.9,0-68.8,30.9-68.8,68.8c0,36.1,28.2,66.3,64.2,68.7c0.3,0,0.5,0.3,0.5,0.5
			C110.3,211,110.1,211.2,109.8,211.2z"/>
	</g>
	<g>
		<path class="st0" d="M114.4,211.3c-0.3,0-0.5-0.2-0.5-0.5s0.2-0.5,0.5-0.5c0.8,0,1.6,0,2.5,0c0.2,0,0.5,0.2,0.5,0.5
			c0,0.3-0.2,0.5-0.5,0.5C116.1,211.3,115.3,211.3,114.4,211.3z"/>
	</g>
	<g>
		<path class="st0" d="M114.4,195.1c-23.1,0-43.6-14.8-50.8-36.7c-0.2-0.5,0.1-1.1,0.6-1.3c0.5-0.2,1.1,0.1,1.3,0.6
			c7,21.2,26.7,35.4,48.9,35.4c28.4,0,51.5-23.1,51.5-51.5c0-11.7-4-23.1-11.3-32.2l-36,36c-1,1-2.4,1.6-3.9,1.6s-2.9-0.6-3.9-1.6
			c-2.2-2.2-2.2-5.7,0-7.9l36-36C137.6,94,126.2,90,114.4,90c-28.4,0-51.5,23.1-51.5,51.5c0,4.1,0.5,8.1,1.4,12
			c0.1,0.5-0.2,1.1-0.7,1.2c-0.5,0.1-1.1-0.2-1.2-0.7c-1-4.1-1.5-8.2-1.5-12.5c0-29.5,24-53.5,53.5-53.5c12.6,0,24.8,4.5,34.5,12.6
			c0.2,0.2,0.3,0.4,0.4,0.7c0,0.3-0.1,0.6-0.3,0.7l-36.8,36.8c-1.4,1.4-1.4,3.7,0,5c1.3,1.3,3.7,1.3,5,0l36.8-36.8
			c0.2-0.2,0.5-0.3,0.8-0.3c0.3,0,0.5,0.1,0.7,0.4c8.1,9.6,12.5,21.8,12.5,34.4C168,171,144,195.1,114.4,195.1z"/>
	</g>
	<g>
		<path class="st0" d="M114.4,177.8c-20,0-36.3-16.3-36.3-36.3s16.3-36.3,36.3-36.3c8.1,0,15.8,2.6,22.2,7.6
			c0.1,0.1,0.2,0.2,0.2,0.4s0,0.3-0.1,0.4l-24.9,24.9c-1.6,1.6-1.6,4.2,0,5.8c0.8,0.8,1.8,1.2,2.9,1.2c1.1,0,2.1-0.4,2.9-1.2
			l24.9-24.9c0.1-0.1,0.2-0.2,0.4-0.1c0.1,0,0.3,0.1,0.4,0.2c4.9,6.4,7.5,14,7.5,22.1c0,6.2-1.6,12.3-4.6,17.7
			c-0.1,0.2-0.4,0.3-0.7,0.2c-0.2-0.1-0.3-0.4-0.2-0.7c2.9-5.2,4.5-11.2,4.5-17.2c0-7.6-2.4-14.9-7-21l-24.4,24.4
			c-1,1-2.2,1.5-3.6,1.5c-1.4,0-2.6-0.5-3.6-1.5c-2-2-2-5.2,0-7.2l24.5-24.5c-6.1-4.6-13.4-7.1-21.2-7.1
			c-19.5,0-35.3,15.8-35.3,35.3s15.8,35.3,35.3,35.3c10,0,19.6-4.3,26.3-11.8c0.2-0.2,0.5-0.2,0.7,0c0.2,0.2,0.2,0.5,0,0.7
			C134.6,173.4,124.8,177.8,114.4,177.8z"/>
	</g>
	<g>
		<path class="st0" d="M114.4,161.5c-11,0-20-9-20-20s9-20,20-20c3.7,0,7.3,1,10.4,2.9c0.3,0.2,0.4,0.4,0.5,0.7
			c0,0.3-0.1,0.6-0.3,0.8l-12.8,12.8c-1.4,1.4-1.4,3.7,0,5c1.3,1.3,3.7,1.3,5,0l12.8-12.8c0.2-0.2,0.5-0.3,0.8-0.3
			c0.3,0,0.6,0.2,0.7,0.5c1.9,3.1,2.8,6.6,2.8,10.3C134.4,152.5,125.5,161.5,114.4,161.5z M114.4,123.5c-9.9,0-18,8.1-18,18
			s8.1,18,18,18c9.9,0,18-8.1,18-18c0-2.8-0.7-5.6-1.9-8.1l-11.9,11.9c-1,1-2.4,1.6-3.9,1.6s-2.9-0.6-3.9-1.6
			c-2.2-2.2-2.2-5.7,0-7.9l11.9-11.9C120.1,124.2,117.3,123.5,114.4,123.5z"/>
	</g>
	<g>
		<path class="st0" d="M114.7,146.9c-1.5,0-2.9-0.6-3.9-1.6c-2.2-2.2-2.2-5.7,0-7.9l119-119c2.2-2.2,5.7-2.2,7.9,0
			c1.1,1.1,1.6,2.5,1.6,3.9c0,1.5-0.6,2.9-1.6,3.9l-119,119C117.6,146.3,116.2,146.9,114.7,146.9z M233.7,18.8c-0.9,0-1.8,0.3-2.5,1
			l-119,119c-1.4,1.4-1.4,3.7,0,5c1.3,1.3,3.7,1.3,5,0l119-119c0.7-0.7,1-1.6,1-2.5c0-1-0.4-1.8-1-2.5
			C235.5,19.2,234.6,18.8,233.7,18.8z"/>
	</g>
	<g>
		<path class="st0" d="M111.5,145.1c-0.1,0-0.3,0-0.4-0.1c-0.2-0.2-0.2-0.5,0-0.7l52.8-52.8c0.2-0.2,0.5-0.2,0.7,0s0.2,0.5,0,0.7
			l-52.8,52.8C111.7,145,111.6,145.1,111.5,145.1z"/>
	</g>
	<g>
		<path class="st0" d="M168.9,87.7c-0.1,0-0.3,0-0.4-0.1c-0.2-0.2-0.2-0.5,0-0.7l68.1-68.1c0.2-0.2,0.5-0.2,0.7,0s0.2,0.5,0,0.7
			l-68.1,68.1C169.1,87.6,169,87.7,168.9,87.7z"/>
	</g>
	<g>
		<path class="st0" d="M220.2,43.3c-0.4,0-0.7-0.2-0.9-0.5c-0.2-0.4-0.1-0.9,0.2-1.2L232,29.1c0.1-0.1,0.3-0.2,0.5-0.3l19.3-4
			c0.4-0.1,0.9,0.1,1.1,0.5c0.2,0.4,0.1,0.9-0.2,1.2L240.2,39c-0.1,0.1-0.3,0.2-0.5,0.3l-19.3,4C220.3,43.3,220.3,43.3,220.2,43.3z
			 M233.2,30.7l-9.9,9.9l15.7-3.3l9.9-9.9L233.2,30.7z M239.5,38.3L239.5,38.3L239.5,38.3z"/>
	</g>
	<g>
		<path class="st0" d="M202.5,61c-0.4,0-0.7-0.2-0.9-0.5c-0.2-0.4-0.1-0.9,0.2-1.2l12.5-12.5c0.1-0.1,0.3-0.2,0.5-0.3l19.3-4
			c0.4-0.1,0.9,0.1,1.1,0.5c0.2,0.4,0.1,0.9-0.2,1.2l-6.3,6.3c-0.4,0.4-1,0.4-1.4,0s-0.4-1,0-1.4l3.9-3.9l-15.7,3.3l-9.9,9.9
			l15.7-3.3l2.7-2.7c0.4-0.4,1-0.4,1.4,0s0.4,1,0,1.4l-2.9,2.9c-0.1,0.1-0.3,0.2-0.5,0.3l-19.3,4C202.6,61,202.5,61,202.5,61z"/>
	</g>
	<g>
		<path class="st0" d="M213.7,36.8c-0.2,0-0.3,0-0.5-0.1c-0.4-0.2-0.6-0.7-0.5-1.1l4-19.3c0-0.2,0.1-0.4,0.3-0.5l12.5-12.5
			c0.3-0.3,0.8-0.4,1.2-0.2c0.4,0.2,0.6,0.7,0.5,1.1l-4,19.3c0,0.2-0.1,0.4-0.3,0.5l-12.5,12.5C214.3,36.7,214,36.8,213.7,36.8z
			 M218.7,17.1l-3.3,15.7l9.9-9.9l3.3-15.7L218.7,17.1z"/>
	</g>
	<g>
		<path class="st0" d="M196,54.6c-0.2,0-0.3,0-0.5-0.1c-0.4-0.2-0.6-0.7-0.5-1.1l4-19.3c0-0.2,0.1-0.4,0.3-0.5l12.5-12.5
			c0.3-0.3,0.8-0.4,1.2-0.2c0.4,0.2,0.6,0.7,0.5,1.1l-4,19.3c0,0.2-0.1,0.4-0.3,0.5l-12.5,12.5C196.5,54.5,196.3,54.6,196,54.6z
			 M200.9,34.8l-3.3,15.7l9.9-9.9l3.3-15.7L200.9,34.8z"/>
	</g>
</g>
</svg>
