<?xml version="1.0" encoding="utf-8"?>
<!-- Generator: Adobe Illustrator 22.1.0, SVG Export Plug-In . SVG Version: 6.00 Build 0)  -->
<svg version="1.1" id="Layer_1" xmlns="http://www.w3.org/2000/svg" xmlns:xlink="http://www.w3.org/1999/xlink" x="0px" y="0px"
	 viewBox="0 0 256 256" style="enable-background:new 0 0 256 256;" xml:space="preserve">
<style type="text/css">
	.st0{fill:#48386A;}
</style>
<g>
	<g>
		<path class="st0" d="M35.6,195.7c-0.2,0-0.3,0-0.5-0.1c-0.3-0.2-0.5-0.6-0.5-0.9l2.7-42.4c-21.7-12.1-34.1-30-34.1-49.1
			c0-25.3,22-48.1,55.9-58.2c0.5-0.2,1.1,0.1,1.2,0.7c0.2,0.5-0.1,1.1-0.7,1.2C26.6,56.7,5.2,78.8,5.2,103.1
			c0,18.5,12.3,35.9,33.6,47.6c0.3,0.2,0.5,0.6,0.5,0.9l-2.6,41l40.8-29.1c0.2-0.1,0.5-0.2,0.7-0.2c4.2,0.6,8.4,0.9,12.6,1.1
			c1.9,0.1,3.7,0.1,5.7,0.1c1,0,2.1,0,3.1,0c28.7-0.6,54.7-10.1,71.4-25.9c4.8-4.6,8.7-9.5,11.5-14.7c2.5-4.7,4.2-9.7,4.9-14.7
			c0.3-2,0.5-4.1,0.5-6.2c0-12.8-5.8-25.1-16.9-35.6c-1.9-1.8-4.1-3.6-6.4-5.4c-17.3-13.1-42.2-20.6-68.1-20.6
			c-9.1,0-18.1,0.9-26.7,2.7c-0.5,0.1-1.1-0.2-1.2-0.8c-0.1-0.5,0.2-1.1,0.8-1.2c8.8-1.8,17.9-2.7,27.1-2.7c26.4,0,51.7,7.6,69.3,21
			c2.3,1.8,4.5,3.6,6.5,5.5c11.4,10.8,17.5,23.6,17.5,37c0,2.1-0.2,4.3-0.5,6.5c-0.8,5.2-2.5,10.4-5.1,15.3
			c-2.9,5.4-6.9,10.5-11.9,15.3c-17,16.1-43.5,25.8-72.7,26.4c-1,0-2.1,0-3.1,0c-2,0-3.9,0-5.8-0.1c-4.1-0.2-8.3-0.5-12.4-1.1
			l-42.1,30.1C36,195.6,35.8,195.7,35.6,195.7z"/>
	</g>
	<g>
		<path class="st0" d="M41.2,185c-0.1,0-0.2,0-0.2-0.1c-0.2-0.1-0.3-0.3-0.3-0.5l2.3-35.4l-2.5-1.4c-20.2-11.1-31.8-27.4-31.8-44.6
			c0-32,39.4-58,87.8-58c48.4,0,87.8,26,87.8,58c0,21.3-17.7,40.9-46.2,51.1c-0.3,0.1-0.5,0-0.6-0.3c-0.1-0.3,0-0.5,0.3-0.6
			c28.1-10,45.5-29.2,45.5-50.1c0-31.4-39-57-86.8-57c-47.9,0-86.8,25.6-86.8,57c0,16.8,11.4,32.8,31.3,43.7l2.8,1.5
			c0.2,0.1,0.3,0.3,0.3,0.5l-2.2,34.7l34.7-24.7c0.1-0.1,0.2-0.1,0.4-0.1l2,0.3c5.8,0.8,11.8,1.2,17.7,1.2c11.3,0,22.3-1.4,32.6-4.2
			c0.3-0.1,0.5,0.1,0.6,0.4c0.1,0.3-0.1,0.5-0.4,0.6c-10.5,2.8-21.5,4.2-32.9,4.2c-6,0-12-0.4-17.9-1.2l-1.8-0.2l-35.4,25.2
			C41.4,185,41.3,185,41.2,185z"/>
	</g>
	<g>
		<path class="st0" d="M138,89.8h-11.2c-0.6,0-1-0.4-1-1s0.4-1,1-1H138c0.6,0,1,0.4,1,1S138.5,89.8,138,89.8z"/>
	</g>
	<g>
		<path class="st0" d="M119.3,89.8H55c-0.6,0-1-0.4-1-1s0.4-1,1-1h64.2c0.6,0,1,0.4,1,1S119.8,89.8,119.3,89.8z"/>
	</g>
	<g>
		<path class="st0" d="M142.3,104.8H50.8c-0.6,0-1-0.4-1-1s0.4-1,1-1h91.5c0.6,0,1,0.4,1,1S142.8,104.8,142.3,104.8z"/>
	</g>
	<g>
		<path class="st0" d="M133.7,119.8H88c-0.6,0-1-0.4-1-1s0.4-1,1-1h45.7c0.6,0,1,0.4,1,1S134.3,119.8,133.7,119.8z"/>
	</g>
	<g>
		<path class="st0" d="M82.5,119.8H59.3c-0.6,0-1-0.4-1-1s0.4-1,1-1h23.2c0.6,0,1,0.4,1,1S83.1,119.8,82.5,119.8z"/>
	</g>
	<g>
		<path class="st0" d="M220.4,216.4c-0.2,0-0.4-0.1-0.6-0.2l-42.1-30.1c-6,0.8-12.1,1.2-18.2,1.2c-26.4,0-51.6-7.6-69.3-21
			c-0.4-0.3-0.5-0.7-0.3-1.1s0.6-0.7,1-0.7c1.8,0.1,3.7,0.1,5.7,0.1c1,0,2.1,0,3.1,0c23.8-0.5,46.1-7.2,62.7-18.8
			c16.5-11.5,25.6-26.7,25.6-42.7c0-12.8-5.8-25.1-16.9-35.6c-1.9-1.8-4.1-3.6-6.4-5.4c-0.3-0.3-0.5-0.7-0.3-1.1
			c0.1-0.4,0.5-0.7,1-0.7c26.5,1.1,51.1,9.9,67.6,24.1c0.4,0.4,0.5,1,0.1,1.4c-0.4,0.4-1,0.5-1.4,0.1
			c-15.5-13.4-38.4-21.8-63.2-23.5c1.4,1.2,2.8,2.3,4,3.5c11.4,10.8,17.5,23.6,17.5,37c0,16.7-9.4,32.4-26.5,44.3
			c-16.9,11.8-39.6,18.6-63.8,19.1c-1.9,0.1-3.8,0.1-5.6,0c17.2,11.9,40.8,18.7,65.5,18.7c6.2,0,12.3-0.4,18.3-1.2
			c0.3,0,0.5,0,0.7,0.2l40.8,29.1l-2.6-41c0-0.4,0.2-0.8,0.5-0.9c21.4-11.7,33.6-29.1,33.6-47.6c0-11.5-4.7-22.7-13.7-32.4
			c-0.4-0.4-0.4-1,0.1-1.4c0.4-0.4,1-0.4,1.4,0.1c9.3,10.1,14.3,21.8,14.3,33.8c0,19.1-12.4,37-34.1,49.1l2.7,42.4
			c0,0.4-0.2,0.8-0.5,0.9C220.8,216.3,220.6,216.4,220.4,216.4z"/>
	</g>
	<g>
		<path class="st0" d="M214.8,205.7c-0.1,0-0.2,0-0.3-0.1l-13.1-9.3c-0.2-0.2-0.3-0.5-0.1-0.7c0.2-0.2,0.5-0.3,0.7-0.1l12.2,8.7
			l-2.2-34.7c0-0.2,0.1-0.4,0.3-0.5l2.8-1.5c19.9-10.9,31.3-26.9,31.3-43.7c0-27.9-31.4-52-73.2-56.3c10.7,10.5,16.3,22.8,16.3,35.7
			c0,16.5-9.3,32.1-26.2,43.9c-16.4,11.5-38.3,18.2-61.8,19c16,9.5,36.6,14.7,58.2,14.7c5.9,0,11.9-0.4,17.7-1.2l2-0.3
			c0.1,0,0.3,0,0.4,0.1l15.5,11.1c0.2,0.2,0.3,0.5,0.1,0.7c-0.2,0.2-0.5,0.3-0.7,0.1l-15.3-11l-1.8,0.2c-5.9,0.8-11.9,1.2-17.9,1.2
			c-22.4,0-43.8-5.6-60.1-15.8c-0.2-0.1-0.3-0.3-0.2-0.6c0.1-0.2,0.3-0.4,0.5-0.4c23.9-0.5,46.3-7.2,62.9-18.9
			c16.7-11.6,25.8-26.9,25.8-43.1c0-13-5.9-25.4-17-35.9c-0.2-0.1-0.2-0.4-0.1-0.6s0.3-0.3,0.5-0.3c43.1,4,75.6,28.7,75.6,57.4
			c0,17.2-11.6,33.5-31.8,44.6l-2.5,1.4l2.3,35.4c0,0.2-0.1,0.4-0.3,0.5C214.9,205.6,214.8,205.7,214.8,205.7z"/>
	</g>
	<g>
		<path class="st0" d="M201,110.5h-12.4c-0.6,0-1-0.4-1-1s0.4-1,1-1H201c0.6,0,1,0.4,1,1S201.5,110.5,201,110.5z"/>
	</g>
	<g>
		<path class="st0" d="M205.2,125.5h-21.8c-0.6,0-1-0.4-1-1s0.4-1,1-1h21.8c0.6,0,1,0.4,1,1S205.8,125.5,205.2,125.5z"/>
	</g>
	<g>
		<path class="st0" d="M196.7,140.5h-24.8c-0.6,0-1-0.4-1-1s0.4-1,1-1h24.8c0.6,0,1,0.4,1,1S197.2,140.5,196.7,140.5z"/>
	</g>
</g>
</svg>
