<svg xmlns="http://www.w3.org/2000/svg" id="Layer_1" x="0" y="0" enable-background="new 0 0 256 256" version="1.1" viewBox="0 0 256 256" xml:space="preserve"><style>.st0{fill:#48386A;}</style><path d="M132.8 196.4H110c-.6 0-1-.4-1-1V62.1c0-.6.4-1 1-1h22.8c.6 0 1 .4 1 1v45.2c0 .6-.4 1-1 1s-1-.4-1-1V63.1H111v131.3h20.8v-71.2c0-.6.4-1 1-1s1 .4 1 1v72.2c0 .5-.4 1-1 1z" class="st0"/><path d="M132.8 117.7c-.6 0-1-.4-1-1v-3c0-.6.4-1 1-1s1 .4 1 1v3c0 .6-.4 1-1 1zM132.8 46.2H110c-.6 0-1-.4-1-1V29.4c0-6.8 5.6-12.4 12.4-12.4 3.3 0 6.4 1.3 8.8 3.6 2.3 2.3 3.6 5.5 3.6 8.8v15.9c0 .5-.4.9-1 .9zm-21.8-2h20.8V29.4c0-2.8-1.1-5.4-3-7.4-2-2-4.6-3-7.4-3-5.7 0-10.4 4.7-10.4 10.4v14.8z" class="st0"/><path d="M127.9 45.7H115c-.3 0-.5-.2-.5-.5V29.4c0-3.8 3.1-6.9 6.9-6.9 3.8 0 6.9 3.1 6.9 6.9v15.9c.1.2-.1.4-.4.4zm-12.4-1h11.9V29.4c0-3.3-2.7-5.9-5.9-5.9-3.3 0-5.9 2.7-5.9 5.9v15.3zM127.9 196.4H115c-.3 0-.5-.2-.5-.5V62.1c0-.3.2-.5.5-.5h12.9c.3 0 .5.2.5.5v133.8c0 .3-.2.5-.5.5zm-12.4-1h11.9V62.6h-11.9v132.8z" class="st0"/><path d="M227 63.1H29.8c-5.2 0-9.4-4.2-9.4-9.4 0-2.5 1-4.9 2.8-6.7 1.8-1.8 4.1-2.8 6.7-2.8H31c.5 0 .9.4 1 .9.6 4.3 4.4 7.6 8.8 7.6s8.2-3.3 8.8-7.6c.1-.5.5-.9 1-.9h101.2c.6 0 1 .4 1 1s-.4 1-1 1H51.3c-1.1 4.9-5.6 8.4-10.6 8.4s-9.5-3.6-10.6-8.4h-.3c-2 0-3.8.8-5.2 2.2-1.4 1.4-2.2 3.3-2.2 5.2 0 4.1 3.3 7.4 7.4 7.4H227c2 0 3.8-.8 5.2-2.2 1.4-1.4 2.2-3.3 2.2-5.2 0-4.1-3.3-7.4-7.4-7.4h-.3c-1.1 4.9-5.6 8.4-10.6 8.4s-9.5-3.6-10.6-8.4h-47.2c-.6 0-1-.4-1-1s.4-1 1-1h48.1c.5 0 .9.4 1 .9.6 4.3 4.4 7.6 8.8 7.6s8.2-3.3 8.8-7.6c.1-.5.5-.9 1-.9h1.1c5.2 0 9.4 4.2 9.4 9.4 0 2.5-1 4.9-2.8 6.7-1.8 1.8-4.2 2.8-6.7 2.8z" class="st0"/><path d="M209.7 57.6h-83.5c-.2 0-.4-.1-.4-.3-.1-.2-.1-.4 0-.5.7-.9 1-2 1-3.2s-.4-2.3-1-3.2c-.1-.2-.1-.4 0-.5.1-.2.3-.3.4-.3h76.5c.2 0 .4.1.5.3 1.4 2.9 3.8 5.3 6.7 6.7.2.1.3.3.3.6-.1.3-.3.4-.5.4zm-82.6-1h80.7c-2.3-1.5-4.1-3.5-5.4-5.9h-75.3c.5.9.7 1.9.7 3s-.2 2-.7 2.9zm-10.4 1H81.9c-.3 0-.5-.2-.5-.5s.2-.5.5-.5h33.9c-.5-.9-.7-1.9-.7-3s.3-2.1.7-3H54.4c-1.2 2.4-3.1 4.5-5.4 5.9h24c.3 0 .5.2.5.5s-.2.5-.5.5H47.1c-.2 0-.4-.2-.5-.4-.1-.2.1-.5.3-.6 2.9-1.4 5.3-3.8 6.7-6.7.1-.2.3-.3.5-.3h62.6c.2 0 .4.1.4.3.1.2.1.4 0 .5-.7.9-1 2-1 3.2s.4 2.3 1 3.2c.1.2.1.4 0 .5 0 .3-.2.4-.4.4zM73.4 135.9H8c-3.3 0-6-2.7-6-6 0-1.6.6-3.1 1.7-4.2s2.6-1.7 4.2-1.7h41.9c.6 0 1 .4 1 1s-.4 1-1 1H8c-1.1 0-2.1.4-2.8 1.2-.8.7-1.2 1.7-1.2 2.8 0 2.2 1.8 4 4 4h65.4c1.1 0 2-.4 2.8-1.2.7-.7 1.2-1.7 1.2-2.8 0-2.2-1.8-4-4-4H57c-.6 0-1-.4-1-1s.4-1 1-1h16.4c3.3 0 6 2.7 6 6 0 1.6-.6 3.1-1.7 4.2-1.3 1.1-2.7 1.7-4.3 1.7z" class="st0"/><path d="M8.9 126c-.1 0-.3 0-.4-.1-.5-.2-.7-.8-.5-1.3l31.7-71.4c.2-.5.8-.7 1.3-.5.5.2.7.8.5 1.3L9.9 125.4c-.2.4-.6.6-1 .6zM71.4 126c-.4 0-.8-.2-.9-.6L42.8 62.5c-.2-.5 0-1.1.5-1.3.5-.2 1.1 0 1.3.5l27.7 62.9c.2.5 0 1.1-.5 1.3-.1.1-.3.1-.4.1zM40.7 163.7c-5.7 0-11.4-1.5-16.3-4.2-.5-.3-.7-.9-.4-1.4.3-.5.9-.7 1.4-.4 4.7 2.6 10 4 15.4 4 15.2 0 28.3-11 31.1-25.8H9.5c1.4 7.4 5.4 14.1 11.4 18.9.4.3.5 1 .2 1.4-.3.4-1 .5-1.4.2-6.7-5.3-11.1-12.9-12.4-21.3 0-.3 0-.6.2-.8.2-.2.5-.3.8-.3H73c.3 0 .6.1.8.3.2.2.3.5.2.8-2.5 16.3-16.8 28.6-33.3 28.6z" class="st0"/><path d="M40.7 158.2c-11.6 0-22.2-7.3-26.4-18.2-.1-.3 0-.5.3-.6.3-.1.5 0 .6.3 4 10.5 14.3 17.5 25.5 17.5s21.4-7 25.5-17.5c.1-.3.4-.4.6-.3.3.1.4.4.3.6-4.2 10.9-14.8 18.2-26.4 18.2zM248 135.9h-65.4c-1.6 0-3.1-.6-4.2-1.7s-1.7-2.6-1.7-4.2c0-3.3 2.7-6 6-6H248c1.6 0 3.1.6 4.2 1.7s1.7 2.6 1.7 4.2c.1 3.4-2.6 6-5.9 6zm-65.4-9.9c-2.2 0-4 1.8-4 4 0 1.1.4 2 1.2 2.8.7.7 1.7 1.2 2.8 1.2H248c2.2 0 4-1.8 4-4 0-1.1-.4-2.1-1.2-2.8-.7-.7-1.7-1.1-2.8-1.1h-65.4z" class="st0"/><path d="M247.1 126c-.4 0-.7-.2-.9-.6L214.5 54c-.2-.5 0-1.1.5-1.3.5-.2 1.1 0 1.3.5l31.7 71.4c.2.5 0 1.1-.5 1.3-.2.1-.3.1-.4.1zM184.6 126c-.1 0-.3 0-.4-.1-.5-.2-.7-.8-.5-1.3l27.7-62.9c.2-.5.8-.7 1.3-.5.5.2.7.8.5 1.3l-27.7 62.9c-.1.4-.5.6-.9.6zM215.3 163.7c-16.5 0-30.9-12.3-33.3-28.6 0-.3 0-.6.2-.8.2-.2.5-.3.8-.3h64.7c.3 0 .6.1.8.3.2.2.3.5.2.8-2.5 16.3-16.8 28.6-33.4 28.6zm-31.1-27.8c2.8 14.8 16 25.8 31.1 25.8 15.2 0 28.3-11 31.1-25.8h-62.2z" class="st0"/><path d="M215.3 158.2c-11.6 0-22.2-7.3-26.4-18.2-.1-.3 0-.5.3-.6.3-.1.5 0 .6.3 4 10.5 14.3 17.5 25.5 17.5s21.4-7 25.5-17.5c.1-.3.4-.4.6-.3.3.1.4.4.3.6-4.2 10.9-14.8 18.2-26.4 18.2zM78.3 130.5H3c-.3 0-.5-.2-.5-.5s.2-.5.5-.5h75.3c.3 0 .5.2.5.5s-.2.5-.5.5zM253 130.5h-41.9c-.3 0-.5-.2-.5-.5s.2-.5.5-.5H253c.3 0 .5.2.5.5s-.2.5-.5.5zM203.8 130.5h-26.1c-.3 0-.5-.2-.5-.5s.2-.5.5-.5h26.1c.3 0 .5.2.5.5s-.2.5-.5.5zM147.9 210.6H95c-.6 0-1-.4-1-1v-14.2c0-.6.4-1 1-1h52.9c.6 0 1 .4 1 1v14.2c0 .6-.5 1-1 1zm-51.9-2h50.9v-12.2H96v12.2z" class="st0"/><path d="M142.9 210.1H100c-.3 0-.5-.2-.5-.5v-9.3c0-.3.2-.5.5-.5h42.9c.3 0 .5.2.5.5v9.3c0 .3-.2.5-.5.5zm-42.4-1h41.9v-8.3h-41.9v8.3z" class="st0"/><path d="M161.7 224.8H81.1c-.6 0-1-.4-1-1v-14.2c0-.6.4-1 1-1h80.6c.6 0 1 .4 1 1v14.2c0 .6-.4 1-1 1zm-79.6-2h78.6v-12.2H82.1v12.2z" class="st0"/><path d="M156.8 224.3H86.1c-.3 0-.5-.2-.5-.5v-9.3c0-.3.2-.5.5-.5h12.7c.3 0 .5.2.5.5s-.2.5-.5.5H86.6v8.3h69.7V215h-49.7c-.3 0-.5-.2-.5-.5s.2-.5.5-.5h50.2c.3 0 .5.2.5.5v9.3c0 .3-.2.5-.5.5z" class="st0"/><path d="M175.8 239h-83c-.6 0-1-.4-1-1s.4-1 1-1h82v-12.2H68.1V237h18c.6 0 1 .4 1 1s-.4 1-1 1h-19c-.6 0-1-.4-1-1v-14.2c0-.6.4-1 1-1h108.7c.6 0 1 .4 1 1V238c0 .6-.5 1-1 1z" class="st0"/><path d="M170.8 238.5H94.3c-.3 0-.5-.2-.5-.5s.2-.5.5-.5h76v-8.3H72.5v8.3h12.8c.3 0 .5.2.5.5s-.2.5-.5.5H72c-.3 0-.5-.2-.5-.5v-9.3c0-.3.2-.5.5-.5h98.8c.3 0 .5.2.5.5v9.3c0 .3-.2.5-.5.5zM121.4 60.1c-2 0-4-1-5.2-2.6-.8-1.1-1.2-2.4-1.2-3.8s.4-2.7 1.2-3.8c1.2-1.6 3.1-2.6 5.1-2.6 2 0 4 1 5.2 2.6.8 1.1 1.2 2.4 1.2 3.8s-.4 2.7-1.2 3.8c-1.1 1.6-3 2.6-5.1 2.6zm0-11.8c-1.7 0-3.3.8-4.3 2.2-.7.9-1 2-1 3.2s.4 2.3 1 3.2c1 1.4 2.6 2.2 4.3 2.2s3.3-.8 4.3-2.2c.7-.9 1-2 1-3.2s-.4-2.3-1-3.2c-.9-1.4-2.5-2.2-4.3-2.2z" class="st0"/><path d="M121.4 56.9c-1 0-2-.5-2.6-1.3-.4-.6-.6-1.2-.6-1.9s.2-1.4.6-1.9c.6-.8 1.6-1.3 2.6-1.3s2 .5 2.6 1.3c.4.6.6 1.2.6 1.9s-.2 1.4-.6 1.9c-.5.8-1.5 1.3-2.6 1.3zm0-5.5c-.7 0-1.4.3-1.8.9-.3.4-.4.9-.4 1.3s.2.9.4 1.3c.4.6 1.1.9 1.8.9s1.4-.3 1.8-.9c.3-.4.4-.9.4-1.3s-.2-.9-.4-1.3c-.4-.6-1-.9-1.8-.9z" class="st0"/></svg>