<svg xmlns="http://www.w3.org/2000/svg" data-name="Layer 1" viewBox="0 0 128 128"><path d="M65.314 59.846a1.249 1.249 0 0 0 1.768 0l7.975-7.975a1.343 1.343 0 0 0 .143-.171 6.883 6.883 0 0 0-9-10.265A6.883 6.883 0 0 0 57.192 51.7a1.233 1.233 0 0 0 .149.179zm-6.06-15.8a4.371 4.371 0 0 1 6.091-.1 1.251 1.251 0 0 0 1.705 0 4.382 4.382 0 0 1 6.2 6.188 1.164 1.164 0 0 0-.078.093L66.2 57.194l-6.976-6.977a1.26 1.26 0 0 0-.075-.089 4.37 4.37 0 0 1 .106-6.084zM52.679 69.18a1.25 1.25 0 0 0 1.25 1.25h24.539a1.25 1.25 0 0 0 0-2.5H53.929a1.25 1.25 0 0 0-1.25 1.25zM53.929 79.084h24.539a1.25 1.25 0 0 0 0-2.5H53.929a1.25 1.25 0 0 0 0 2.5zM53.929 87.738h24.539a1.25 1.25 0 0 0 0-2.5H53.929a1.25 1.25 0 0 0 0 2.5zM41.7 43.125a1.25 1.25 0 0 0-1.25 1.25v15.75h-.521a3.875 3.875 0 0 0 0 7.75h3.542a3.875 3.875 0 0 0 0-7.75h-.521v-15.75a1.25 1.25 0 0 0-1.25-1.25zM44.844 64a1.377 1.377 0 0 1-1.375 1.375h-3.542a1.375 1.375 0 0 1 0-2.75h3.542A1.377 1.377 0 0 1 44.844 64z"/><path d="M90.7 26.836h-49a1.25 1.25 0 0 0-1.25 1.25v5.164h-.521a3.875 3.875 0 0 0 0 7.75h3.542a3.875 3.875 0 0 0 0-7.75h-.521v-3.914h46.5v69.328H41.7a1.25 1.25 0 0 0 0 2.5h49a1.25 1.25 0 0 0 1.25-1.25V28.086a1.25 1.25 0 0 0-1.25-1.25zM44.844 37.125a1.377 1.377 0 0 1-1.375 1.375h-3.542a1.375 1.375 0 0 1 0-2.75h3.542a1.377 1.377 0 0 1 1.375 1.375z"/><path d="M47.344 90.875A3.879 3.879 0 0 0 43.469 87h-.521V71.751a1.25 1.25 0 1 0-2.5 0V87h-.521a3.875 3.875 0 0 0 0 7.75h3.542a3.879 3.879 0 0 0 3.875-3.875zm-8.792 0a1.377 1.377 0 0 1 1.375-1.375h3.542a1.375 1.375 0 0 1 0 2.75h-3.542a1.377 1.377 0 0 1-1.375-1.375z"/></svg>