<svg id="Layer_1" data-name="Layer 1" xmlns="http://www.w3.org/2000/svg" viewBox="0 0 128 128"><title>VALENTINE GIFT</title><path d="M64,66.9A8.327,8.327,0,0,0,52.941,79.215a1.261,1.261,0,0,0,.155.188l10.02,10.02a1.25,1.25,0,0,0,1.768,0L74.9,79.4a1.242,1.242,0,0,0,.152-.185A8.327,8.327,0,0,0,64,66.9Zm8.951,2.664a5.811,5.811,0,0,1,.144,8.091,1.246,1.246,0,0,0-.086.1L64,86.772l-8.951-8.951-.057-.058c-.027-.036-.056-.071-.087-.1a5.827,5.827,0,0,1,8.242-8.228,1.249,1.249,0,0,0,1.705,0A5.809,5.809,0,0,1,72.951,69.568Z"/><path d="M99.914,44.25H80.127a9.95,9.95,0,1,0-16.1-10.334A7.613,7.613,0,0,0,52.84,44.25H28.086a1.25,1.25,0,0,0-1.25,1.25v9.738a1.25,1.25,0,0,0,1.25,1.25h3.681V99.914a1.25,1.25,0,0,0,1.25,1.25H94.983a1.25,1.25,0,0,0,1.25-1.25V60.5a1.25,1.25,0,0,0-2.5,0V98.664H34.267V56.488H39a1.25,1.25,0,0,0,0-2.5H29.336V46.75H98.664v7.238H45.125a1.25,1.25,0,0,0,0,2.5h54.79a1.25,1.25,0,0,0,1.25-1.25V45.5A1.25,1.25,0,0,0,99.914,44.25Zm-33.82-5.937v-1.52a7.457,7.457,0,1,1,7.457,7.457H66.094V39.125c0-.219-.015-.435-.033-.65A1.162,1.162,0,0,0,66.094,38.313Zm-12.75.813a5.125,5.125,0,0,1,10.25,0V44.25H58.469A5.131,5.131,0,0,1,53.344,39.125Z"/></svg>