<svg id="Layer_1" data-name="Layer 1" xmlns="http://www.w3.org/2000/svg" viewBox="0 0 128 128"><title>VALENTINE CALENDAR</title><path d="M51.5,35.4H80.6v.674a5.012,5.012,0,0,0,10.024,0V31.848a5.012,5.012,0,0,0-10.024,0V32.9H51.5a1.25,1.25,0,0,0,0,2.5Zm31.6-3.549a2.512,2.512,0,0,1,5.024,0v4.223a2.512,2.512,0,0,1-5.024,0Z"/><path d="M99.914,32.9H94.667a1.25,1.25,0,0,0,0,2.5h4V46.682H34.086a1.25,1.25,0,0,0,0,2.5H98.664V98.664H29.336V35.4h8.039v.674a5.012,5.012,0,1,0,10.024,0V31.848a5.012,5.012,0,1,0-10.024,0V32.9H28.086a1.25,1.25,0,0,0-1.25,1.25V99.914a1.25,1.25,0,0,0,1.25,1.25H99.914a1.25,1.25,0,0,0,1.25-1.25V34.148A1.25,1.25,0,0,0,99.914,32.9ZM42.388,29.336A2.515,2.515,0,0,1,44.9,31.848v4.223a2.512,2.512,0,1,1-5.024,0V31.848A2.515,2.515,0,0,1,42.388,29.336Z"/><path d="M63.116,90.634a1.25,1.25,0,0,0,1.768,0L77.835,77.683a1.179,1.179,0,0,0,.163-.2A10.4,10.4,0,0,0,64,62.24,10.4,10.4,0,0,0,50,77.473a1.288,1.288,0,0,0,.17.21ZM52.172,64.97a7.871,7.871,0,0,1,10.976-.187,1.249,1.249,0,0,0,1.7,0A7.9,7.9,0,0,1,76.023,75.935a1.158,1.158,0,0,0-.1.125L64,87.982,52.08,76.062a1.347,1.347,0,0,0-.1-.127A7.873,7.873,0,0,1,52.172,64.97Z"/></svg>