<svg xmlns="http://www.w3.org/2000/svg" data-name="Layer 1" viewBox="0 0 128 128"><path d="M80.5 26.836h-33a1.25 1.25 0 00-1.25 1.25v24.2a16.018 16.018 0 0016 16h3.5a16.018 16.018 0 0016-16v-24.2a1.25 1.25 0 00-1.25-1.25zm-1.25 25.445a13.515 13.515 0 01-13.5 13.5h-3.5a13.515 13.515 0 01-13.5-13.5v-2.5a20.557 20.557 0 003.414.285 28.7 28.7 0 008.211-1.306 24.067 24.067 0 0114.911-.016 1.249 1.249 0 10.807-2.365 26.493 26.493 0 00-16.435-.014 22.864 22.864 0 01-10.908.872v-17.9h30.5zM70.982 93.75H65.25V72.031a1.25 1.25 0 10-2.5 0V93.75h-5.732a5.649 5.649 0 00-5.643 5.643v.522a1.25 1.25 0 001.25 1.25h22.75a1.25 1.25 0 001.25-1.25v-.522a5.649 5.649 0 00-5.643-5.643zM53.96 98.664a3.149 3.149 0 013.058-2.414h13.964a3.149 3.149 0 013.058 2.414z"/></svg>