<svg xmlns="http://www.w3.org/2000/svg" data-name="Layer 1" viewBox="0 0 128 128"><path d="M51.5 35.4h29.1v.674a5.012 5.012 0 0010.024 0v-4.226a5.012 5.012 0 00-10.024 0V32.9H51.5a1.25 1.25 0 000 2.5zm31.6-3.549a2.512 2.512 0 015.024 0v4.223a2.512 2.512 0 01-5.024 0z"/><path d="M99.914 32.9h-5.247a1.25 1.25 0 000 2.5h4v11.282H34.086a1.25 1.25 0 000 2.5h64.578v49.482H29.336V35.4h8.039v.674a5.012 5.012 0 1010.024 0v-4.226a5.012 5.012 0 10-10.024 0V32.9h-9.289a1.25 1.25 0 00-1.25 1.25v65.764a1.25 1.25 0 001.25 1.25h71.828a1.25 1.25 0 001.25-1.25V34.148a1.25 1.25 0 00-1.25-1.248zm-57.526-3.564a2.515 2.515 0 012.512 2.512v4.223a2.512 2.512 0 11-5.024 0v-4.223a2.515 2.515 0 012.512-2.512z"/><path d="M63.116 90.634a1.25 1.25 0 001.768 0l12.951-12.951a1.179 1.179 0 00.163-.2A10.4 10.4 0 0064 62.24a10.4 10.4 0 00-14 15.233 1.288 1.288 0 00.17.21zM52.172 64.97a7.871 7.871 0 0110.976-.187 1.249 1.249 0 001.7 0 7.9 7.9 0 0111.175 11.152 1.158 1.158 0 00-.1.125L64 87.982l-11.92-11.92a1.347 1.347 0 00-.1-.127 7.873 7.873 0 01.192-10.965z"/></svg>