<svg xmlns="http://www.w3.org/2000/svg" data-name="Layer 1" viewBox="0 0 128 128"><path d="M64 67.506a7.809 7.809 0 0 0-10.321 11.575 1.254 1.254 0 0 0 .152.184l9.285 9.285a1.25 1.25 0 0 0 1.768 0l9.285-9.285a1.252 1.252 0 0 0 .15-.182A7.809 7.809 0 0 0 64 67.506zm8.229 2.646a5.293 5.293 0 0 1 .131 7.37 1.228 1.228 0 0 0-.083.1L64 85.9l-8.23-8.23-.047-.047a1.587 1.587 0 0 0-.084-.1 5.308 5.308 0 0 1 7.508-7.5 1.249 1.249 0 0 0 1.7 0 5.291 5.291 0 0 1 7.382.129z"/><path d="M86.79 58.75A1.25 1.25 0 0 0 85.54 60v38.664H42.46v-43.08h44.33a1.25 1.25 0 0 0 0-2.5h-8.416V41.21a14.374 14.374 0 0 0-28.748 0v11.874H41.21a1.25 1.25 0 0 0-1.25 1.25v45.58a1.25 1.25 0 0 0 1.25 1.25h45.58a1.25 1.25 0 0 0 1.25-1.25V60a1.25 1.25 0 0 0-1.25-1.25zM52.126 41.21a11.874 11.874 0 0 1 23.748 0v11.874H52.126z"/></svg>