<svg id="Layer_1" data-name="Layer 1" xmlns="http://www.w3.org/2000/svg" viewBox="0 0 128 128"><title>VALENTINE PADLOCK</title><path d="M95.2,42.232A20.294,20.294,0,0,0,67.747,41a20.315,20.315,0,0,0-4.17-2.693,1.25,1.25,0,1,0-1.089,2.25A17.947,17.947,0,0,1,66.9,43.578a1.25,1.25,0,0,0,1.7,0A17.869,17.869,0,0,1,93.878,68.811a1.109,1.109,0,0,0-.148.2L67.748,94.99,41.771,69.014a1.24,1.24,0,0,0-.154-.2,17.825,17.825,0,0,1-4.658-14.34l5.2,5.2a1.249,1.249,0,0,0,1.767,0l12.589-12.59a1.229,1.229,0,0,0,.162-.2A10.141,10.141,0,0,0,43.044,32.006,10.141,10.141,0,0,0,29.405,46.878a1.231,1.231,0,0,0,.166.205L34.8,52.312a20.315,20.315,0,0,0,4.779,17.974,1.265,1.265,0,0,0,.213.284L66.864,97.642a1.249,1.249,0,0,0,1.767,0L95.7,70.57a1.182,1.182,0,0,0,.205-.275A20.305,20.305,0,0,0,95.2,42.232Zm-63.819,3.1A7.641,7.641,0,0,1,42.191,34.548a1.251,1.251,0,0,0,1.705,0A7.641,7.641,0,0,1,54.705,45.337a1.238,1.238,0,0,0-.1.122L43.044,57.021,31.483,45.459A1.245,1.245,0,0,0,31.382,45.337Z"/><path d="M63.43,67.9v6.293a4.318,4.318,0,1,0,8.635,0V67.9a3.011,3.011,0,0,1,1-2.273,8.065,8.065,0,1,0-10.753-.1A3.221,3.221,0,0,1,63.43,67.9Zm-1.191-9.123a5.588,5.588,0,0,1,4.845-4.73,5.736,5.736,0,0,1,.67-.039,5.5,5.5,0,0,1,3.694,1.409,5.556,5.556,0,0,1-.03,8.327A5.515,5.515,0,0,0,69.565,67.9v6.3a1.817,1.817,0,1,1-3.635,0V67.9A5.766,5.766,0,0,0,64,63.676,5.521,5.521,0,0,1,62.239,58.778Z"/></svg>