<svg id="Layer_1" data-name="Layer 1" xmlns="http://www.w3.org/2000/svg" viewBox="0 0 128 128"><title>VALENTINE WINE</title><path d="M80.5,26.836h-33a1.25,1.25,0,0,0-1.25,1.25v24.2a16.018,16.018,0,0,0,16,16h3.5a16.018,16.018,0,0,0,16-16v-24.2A1.25,1.25,0,0,0,80.5,26.836ZM79.25,52.281a13.515,13.515,0,0,1-13.5,13.5h-3.5a13.515,13.515,0,0,1-13.5-13.5v-2.5a20.557,20.557,0,0,0,3.414.285,28.7,28.7,0,0,0,8.211-1.306,24.067,24.067,0,0,1,14.911-.016,1.249,1.249,0,1,0,.807-2.365,26.493,26.493,0,0,0-16.435-.014,22.864,22.864,0,0,1-10.908.872v-17.9h30.5Z"/><path d="M70.982,93.75H65.25V72.031a1.25,1.25,0,1,0-2.5,0V93.75H57.018a5.649,5.649,0,0,0-5.643,5.643v.522a1.25,1.25,0,0,0,1.25,1.25h22.75a1.25,1.25,0,0,0,1.25-1.25v-.522A5.649,5.649,0,0,0,70.982,93.75ZM53.96,98.664a3.149,3.149,0,0,1,3.058-2.414H70.982a3.149,3.149,0,0,1,3.058,2.414Z"/></svg>