<svg xmlns="http://www.w3.org/2000/svg" data-name="Layer 1" viewBox="0 0 128 128"><path d="M99.811 55.333H84.125a1.25 1.25 0 0 0 0 2.5h14.436v27.833h-6.206a1.25 1.25 0 0 0-1.25 1.25v4.524L85.7 86.032a1.25 1.25 0 0 0-.884-.366H52.48V68.915l10.636 10.636a1.25 1.25 0 0 0 1.768 0l12.79-12.79a1.178 1.178 0 0 0 .162-.2 10.244 10.244 0 0 0 .184-13.483V33.542a1.25 1.25 0 0 0-1.25-1.25H28.19a1.25 1.25 0 0 0-1.25 1.25v30.334a1.25 1.25 0 0 0 1.25 1.25h6.21v6.291a1.25 1.25 0 0 0 2.134.884l7.542-7.541a1.25 1.25 0 0 0-1.776-1.768L36.9 68.4v-4.524a1.25 1.25 0 0 0-1.25-1.25h-6.21V34.792h46.08v16.141a10.236 10.236 0 0 0-11.52.544 10.279 10.279 0 0 0-14.02 14.856v20.583a1.25 1.25 0 0 0 1.25 1.25H84.3l7.176 7.176a1.25 1.25 0 0 0 2.134-.884v-6.292h6.206a1.25 1.25 0 0 0 1.25-1.25V56.583a1.25 1.25 0 0 0-1.255-1.25zM52.329 54.2a7.759 7.759 0 0 1 10.818-.185 1.251 1.251 0 0 0 1.705 0 7.785 7.785 0 0 1 11.012 10.998 1.157 1.157 0 0 0-.1.121L64 76.9 52.236 65.135a1.4 1.4 0 0 0-.1-.117c-.015-.016-.026-.035-.042-.05a7.76 7.76 0 0 1 .235-10.768z"/></svg>