<svg id="Layer_1" data-name="Layer 1" xmlns="http://www.w3.org/2000/svg" viewBox="0 0 128 128"><title>VALENTINE RIBBON</title><path d="M73.6,74.01,89.45,58.159a1.238,1.238,0,0,0,.2-.265A18.6,18.6,0,0,0,64,31.09a18.6,18.6,0,0,0-25.656,26.8,1.242,1.242,0,0,0,.206.273L62.225,81.834,47.806,96.253l.944-5.531a1.25,1.25,0,0,0-1.442-1.442l-5.531.944L53,79a1.25,1.25,0,1,0-1.768-1.768l-14,14a1.25,1.25,0,0,0,1.094,2.116l7.663-1.309L44.681,99.7A1.25,1.25,0,0,0,46.8,100.8L64.843,82.752c.012-.011.029-.015.041-.027l6.947-6.947L86.277,90.224l-5.53-.944A1.25,1.25,0,0,0,79.3,90.722l.944,5.531L69.181,85.187a1.25,1.25,0,0,0-1.768,1.768L81.257,100.8A1.25,1.25,0,0,0,83.373,99.7l-1.308-7.663,7.662,1.309a1.25,1.25,0,0,0,1.094-2.116ZM40.373,56.4A16.1,16.1,0,0,1,63.147,33.667a1.251,1.251,0,0,0,1.7,0A16.1,16.1,0,0,1,87.627,56.4a1.167,1.167,0,0,0-.143.188L70.948,73.126h0L64,80.073,40.52,56.594A1.27,1.27,0,0,0,40.373,56.4Z"/></svg>