<svg xmlns="http://www.w3.org/2000/svg" data-name="Layer 1" viewBox="0 0 128 128"><path d="M95.2 42.232A20.294 20.294 0 0067.747 41a20.315 20.315 0 00-4.17-2.693 1.25 1.25 0 10-1.089 2.25 17.947 17.947 0 014.412 3.021 1.25 1.25 0 001.7 0 17.869 17.869 0 0125.278 25.233 1.109 1.109 0 00-.148.2L67.748 94.99 41.771 69.014a1.24 1.24 0 00-.154-.2 17.825 17.825 0 01-4.658-14.34l5.2 5.2a1.249 1.249 0 001.767 0l12.589-12.59a1.229 1.229 0 00.162-.2 10.141 10.141 0 00-13.633-14.878 10.141 10.141 0 00-13.639 14.872 1.231 1.231 0 00.166.205l5.229 5.229a20.315 20.315 0 004.779 17.974 1.265 1.265 0 00.213.284l27.072 27.072a1.249 1.249 0 001.767 0L95.7 70.57a1.182 1.182 0 00.205-.275 20.305 20.305 0 00-.705-28.063zm-63.819 3.1a7.641 7.641 0 0110.81-10.784 1.251 1.251 0 001.705 0 7.641 7.641 0 0110.809 10.789 1.238 1.238 0 00-.1.122L43.044 57.021 31.483 45.459a1.245 1.245 0 00-.101-.122z"/><path d="M63.43 67.9v6.293a4.318 4.318 0 108.635 0V67.9a3.011 3.011 0 011-2.273 8.065 8.065 0 10-10.753-.1A3.221 3.221 0 0163.43 67.9zm-1.191-9.123a5.588 5.588 0 014.845-4.73 5.736 5.736 0 01.67-.039 5.5 5.5 0 013.694 1.409 5.556 5.556 0 01-.03 8.327 5.515 5.515 0 00-1.853 4.156v6.3a1.817 1.817 0 11-3.635 0v-6.3A5.766 5.766 0 0064 63.676a5.521 5.521 0 01-1.761-4.898z"/></svg>