<svg xmlns="http://www.w3.org/2000/svg" data-name="Layer 1" viewBox="0 0 128 128"><path d="M99.914 50.807H81.875a1.25 1.25 0 0 0 0 2.5h13.2L64 70.521 32.922 53.307h19.9L63.116 63.6a1.25 1.25 0 0 0 1.768 0l12.138-12.138a1.178 1.178 0 0 0 .157-.195A9.823 9.823 0 0 0 64 36.838a9.817 9.817 0 0 0-13.553 13.969H28.086a1.25 1.25 0 0 0-1.25 1.25v39.785a1.25 1.25 0 0 0 1.25 1.25h71.828a1.25 1.25 0 0 0 1.25-1.25V52.057a1.25 1.25 0 0 0-1.25-1.25zM77.843 65.71l20.821-11.532V88.61zM64 73.2a1.246 1.246 0 0 0 .605-.157L75.6 66.955l21.488 23.637H30.912L48.59 71.15a1.25 1.25 0 1 0-1.85-1.682L29.336 88.61V54.178l34.058 18.865A1.247 1.247 0 0 0 64 73.2zM52.971 39.551a7.3 7.3 0 0 1 10.177-.173 1.249 1.249 0 0 0 1.7 0A7.322 7.322 0 0 1 75.21 49.717a1.367 1.367 0 0 0-.1.121L64 60.95 52.89 49.839a1.267 1.267 0 0 0-.1-.122 7.3 7.3 0 0 1 .181-10.166z"/></svg>