<svg id="Layer_1" data-name="Layer 1" xmlns="http://www.w3.org/2000/svg" viewBox="0 0 128 128"><title>VALENTINE CAMERA</title><path d="M99.914,46.667H50.734l2.042-5.333H75.224L76.23,43.96a1.25,1.25,0,1,0,2.335-.894l-1.313-3.43a1.25,1.25,0,0,0-1.168-.8H51.917a1.25,1.25,0,0,0-1.167.8l-2.693,7.03H41.5V43.509a1.25,1.25,0,0,0-1.25-1.25H33a1.25,1.25,0,0,0-1.25,1.25v3.157H28.086a1.25,1.25,0,0,0-1.25,1.25v40a1.25,1.25,0,0,0,1.25,1.25H99.914a1.25,1.25,0,0,0,1.25-1.25v-40A1.25,1.25,0,0,0,99.914,46.667ZM34.25,44.759H39v1.907H34.25ZM98.664,86.667H29.336v-37.5H98.664Z"/><path d="M52.086,75.222a1.25,1.25,0,0,0,2.131-1.309,11.467,11.467,0,1,1,3.337,3.5,1.25,1.25,0,0,0-1.406,2.066,13.959,13.959,0,1,0-4.062-4.254Z"/></svg>