<svg id="Layer_1" data-name="Layer 1" xmlns="http://www.w3.org/2000/svg" viewBox="0 0 128 128"><title>VALENTINE RING</title><path d="M83.705,43.011A1.25,1.25,0,1,0,82.184,45a29.924,29.924,0,1,1-33.072-2.179,10.474,10.474,0,0,0,.951,1.262,1.221,1.221,0,0,0,.166.205L63.116,57.171a1.25,1.25,0,0,0,1.768,0l9.076-9.076A22.929,22.929,0,1,1,50.6,50.127,1.25,1.25,0,0,0,49.137,48.1a25.443,25.443,0,1,0,26.693-1.874l1.942-1.942a1.215,1.215,0,0,0,.163-.2A10.353,10.353,0,0,0,64,28.9,10.356,10.356,0,0,0,48,40.571a32.4,32.4,0,1,0,35.705,2.44ZM52.234,31.634a7.828,7.828,0,0,1,10.913-.186,1.251,1.251,0,0,0,1.7,0A7.852,7.852,0,0,1,75.96,42.537a1.269,1.269,0,0,0-.1.121L64,54.52,52.234,42.754l-.094-.095a1.467,1.467,0,0,0-.1-.122A7.832,7.832,0,0,1,52.234,31.634Z"/></svg>