<svg id="Layer_1" data-name="Layer 1" xmlns="http://www.w3.org/2000/svg" viewBox="0 0 128 128"><title>VALENTINE MENU</title><path d="M65.314,59.846a1.249,1.249,0,0,0,1.768,0l7.975-7.975A1.343,1.343,0,0,0,75.2,51.7a6.883,6.883,0,0,0-9-10.265A6.883,6.883,0,0,0,57.192,51.7a1.233,1.233,0,0,0,.149.179Zm-6.06-15.8a4.371,4.371,0,0,1,6.091-.1,1.251,1.251,0,0,0,1.705,0,4.382,4.382,0,0,1,6.2,6.188,1.164,1.164,0,0,0-.078.093L66.2,57.194l-6.976-6.977c-.023-.03-.049-.061-.075-.089A4.37,4.37,0,0,1,59.255,44.044Z"/><path d="M52.679,69.18a1.25,1.25,0,0,0,1.25,1.25H78.468a1.25,1.25,0,0,0,0-2.5H53.929A1.25,1.25,0,0,0,52.679,69.18Z"/><path d="M53.929,79.084H78.468a1.25,1.25,0,0,0,0-2.5H53.929a1.25,1.25,0,0,0,0,2.5Z"/><path d="M53.929,87.738H78.468a1.25,1.25,0,0,0,0-2.5H53.929a1.25,1.25,0,0,0,0,2.5Z"/><path d="M41.7,43.125a1.25,1.25,0,0,0-1.25,1.25v15.75h-.521a3.875,3.875,0,0,0,0,7.75h3.542a3.875,3.875,0,0,0,0-7.75h-.521V44.375A1.25,1.25,0,0,0,41.7,43.125ZM44.844,64a1.377,1.377,0,0,1-1.375,1.375H39.927a1.375,1.375,0,0,1,0-2.75h3.542A1.377,1.377,0,0,1,44.844,64Z"/><path d="M90.7,26.836h-49a1.25,1.25,0,0,0-1.25,1.25V33.25h-.521a3.875,3.875,0,0,0,0,7.75h3.542a3.875,3.875,0,0,0,0-7.75h-.521V29.336h46.5V98.664H41.7a1.25,1.25,0,0,0,0,2.5h49a1.25,1.25,0,0,0,1.25-1.25V28.086A1.25,1.25,0,0,0,90.7,26.836ZM44.844,37.125A1.377,1.377,0,0,1,43.469,38.5H39.927a1.375,1.375,0,0,1,0-2.75h3.542A1.377,1.377,0,0,1,44.844,37.125Z"/><path d="M47.344,90.875A3.879,3.879,0,0,0,43.469,87h-.521V71.751a1.25,1.25,0,1,0-2.5,0V87h-.521a3.875,3.875,0,0,0,0,7.75h3.542A3.879,3.879,0,0,0,47.344,90.875Zm-8.792,0A1.377,1.377,0,0,1,39.927,89.5h3.542a1.375,1.375,0,0,1,0,2.75H39.927A1.377,1.377,0,0,1,38.552,90.875Z"/></svg>