<svg id="Layer_1" data-name="Layer 1" xmlns="http://www.w3.org/2000/svg" viewBox="0 0 128 128"><title>VALENTINE KEY</title><path d="M99.4,92.63,67.126,60.353a9.329,9.329,0,0,1-2.75-6.64V39.637a1.216,1.216,0,0,0-.034-.284,12.935,12.935,0,0,0-25.757-.858,12.935,12.935,0,0,0,.849,25.756,1.212,1.212,0,0,0,.293.035H53.8a9.325,9.325,0,0,1,6.639,2.75l27.3,27.3-3.525,3.525L78.309,91.95l1.362-1.362A1.25,1.25,0,1,0,77.9,88.82l-2.246,2.246a1.25,1.25,0,0,0,0,1.768l7.679,7.68a1.25,1.25,0,0,0,1.768,0L89.513,96.1l3.068,3.068a5.018,5.018,0,0,0,3.544,1.488,4.6,4.6,0,0,0,3.1-1.176,4.685,4.685,0,0,0,1.565-3.391A4.744,4.744,0,0,0,99.4,92.63Zm-1.856,5a2.36,2.36,0,0,1-3.2-.223L62.212,65.268A11.807,11.807,0,0,0,53.8,61.785H39.965a1.211,1.211,0,0,0-.191-.022,10.435,10.435,0,0,1,.019-20.857A1.249,1.249,0,0,0,41,39.7a10.435,10.435,0,0,1,20.857-.019,1.146,1.146,0,0,0,.021.186V53.713a11.811,11.811,0,0,0,3.482,8.407L97.636,94.4a2.225,2.225,0,0,1-.088,3.23Z"/><path d="M48.832,42.793a5.947,5.947,0,1,0,4.205,1.742A5.9,5.9,0,0,0,48.832,42.793Zm2.437,8.385a3.448,3.448,0,1,1,1.009-2.437A3.452,3.452,0,0,1,51.269,51.178Z"/></svg>