<svg xmlns="http://www.w3.org/2000/svg" data-name="Layer 1" viewBox="0 0 128 128"><path d="m65.084 38.19 4.122 4.122a10.275 10.275 0 0 0 1.877 10.541 1.285 1.285 0 0 0 .167.206l12.7 12.7a1.25 1.25 0 0 0 1.768 0l12.7-12.7a1.242 1.242 0 0 0 .161-.2A10.216 10.216 0 0 0 83.977 38.59a1.25 1.25 0 0 0 1.7 1.828A7.716 7.716 0 0 1 96.6 51.314a1.2 1.2 0 0 0-.1.123L84.829 63.1 73.253 51.527l-.091-.092a1.463 1.463 0 0 0-.1-.122 7.751 7.751 0 0 1-1.847-6.993l1.66 1.66a1.25 1.25 0 0 0 1.768 0l7.788-7.787a1.3 1.3 0 0 0 .145-.174 6.753 6.753 0 0 0-8.817-10.082 6.753 6.753 0 0 0-8.819 10.082 1.259 1.259 0 0 0 .144.171zM67 30.544a4.241 4.241 0 0 1 5.91-.1 1.251 1.251 0 0 0 1.705 0 4.252 4.252 0 0 1 6.015 6 1.23 1.23 0 0 0-.074.088l-6.793 6.793-6.793-6.793a1.5 1.5 0 0 0-.074-.088 4.24 4.24 0 0 1 .104-5.9zM96.186 91.309l-15.588-.5a3.628 3.628 0 0 1-2.514-1.12l-8-8.35a.523.523 0 0 1-.011-.711.515.515 0 0 1 .376-.17.491.491 0 0 1 .383.156l4.637 4.746a5.353 5.353 0 0 0 5.131 1.595 5.534 5.534 0 0 0 4.374-3.213 3.586 3.586 0 0 0-.892-3.657l-8.816-9.025a15.988 15.988 0 0 0-11-4.82l-9.681.024a3.711 3.711 0 0 0-3.644-3.052h-7.11a3.715 3.715 0 0 0-3.711 3.711v22.744H28.086a1.25 1.25 0 0 0 0 2.5h12.07a3.7 3.7 0 0 0 3.675 3.356h7.108a3.715 3.715 0 0 0 3.711-3.711V68.763l9.578-.025a13.475 13.475 0 0 1 9.249 4.068l8.771 8.978c.545.619.414.994.365 1.136a3.271 3.271 0 0 1-2.457 1.574 2.965 2.965 0 0 1-2.8-.767 1.228 1.228 0 0 0-.068-.076l-4.67-4.78a2.978 2.978 0 0 0-2.216-.909 3.02 3.02 0 0 0-2.125 5.111l8.006 8.35a6.109 6.109 0 0 0 4.237 1.888l15.589.5a2.57 2.57 0 0 1 2.556 2.376 2.4 2.4 0 0 1-.719 1.779 2.365 2.365 0 0 1-1.783.7l-16.948-.539a15.919 15.919 0 0 1-6.726-1.741l-12.9-6.632a1.25 1.25 0 1 0-1.144 2.223l12.9 6.632a18.416 18.416 0 0 0 7.788 2.017l16.948.539h.154a4.949 4.949 0 0 0 3.465-1.426 4.881 4.881 0 0 0 1.461-3.608 5.034 5.034 0 0 0-4.975-4.822zm-44.037.5a1.212 1.212 0 0 1-1.211 1.211h-7.107a1.212 1.212 0 0 1-1.211-1.211V66.923a1.212 1.212 0 0 1 1.211-1.211h7.108a1.212 1.212 0 0 1 1.211 1.211zM28.086 68.739h6.643a1.25 1.25 0 0 0 0-2.5h-6.643a1.25 1.25 0 0 0 0 2.5z"/></svg>