<svg xmlns="http://www.w3.org/2000/svg" data-name="Layer 1" viewBox="0 0 128 128"><path d="M78.574 61.71A10.8 10.8 0 0 0 64 45.9a10.8 10.8 0 0 0-14.577 15.807 1.231 1.231 0 0 0 .17.212l13.523 13.522a1.25 1.25 0 0 0 1.768 0l13.523-13.523a1.2 1.2 0 0 0 .167-.208zm-2.083-1.41L64 72.79 51.509 60.3a1.187 1.187 0 0 0-.105-.128 8.3 8.3 0 0 1 11.743-11.724 1.249 1.249 0 0 0 1.7 0A8.3 8.3 0 0 1 76.595 60.17a1.365 1.365 0 0 0-.104.13z"/><path d="M64 26.836a31.576 31.576 0 0 0-6.723 62.428l5.6 11.209a1.25 1.25 0 0 0 2.236 0l5.876-11.752a1.25 1.25 0 0 0-2.231-1.121L64 97.119 59.242 87.6a1.251 1.251 0 0 0-.877-.667 29.069 29.069 0 1 1 16.113-1.4 1.25 1.25 0 1 0 .9 2.332A31.577 31.577 0 0 0 64 26.836z"/></svg>