<svg id="Layer_1" data-name="Layer 1" xmlns="http://www.w3.org/2000/svg" viewBox="0 0 128 128"><title>VALENTINE BOTTLE</title><path d="M100.047,77.614,67.011,44.578a9.217,9.217,0,0,0-9.854-2.072,6.674,6.674,0,0,1-6.949-1.289l-6.423-5.838a1.25,1.25,0,0,0-1.682,1.85l6.423,5.838a9.157,9.157,0,0,0,9.537,1.77,6.714,6.714,0,0,1,7.181,1.509l9.012,9.012L69.7,59.91A8.624,8.624,0,0,0,59.91,69.7l-4.553,4.553-9.012-9.012a6.715,6.715,0,0,1-1.51-7.181,9.159,9.159,0,0,0-1.769-9.538l-8.36-9.2,7.117-7.117a1.25,1.25,0,0,0,0-1.768l-3.183-3.182a1.25,1.25,0,0,0-1.768,0l-9.611,9.611a1.25,1.25,0,0,0,0,1.768l3.182,3.182a1.25,1.25,0,0,0,1.768,0l.725-.725,8.28,9.108a6.676,6.676,0,0,1,1.289,6.95,9.214,9.214,0,0,0,2.072,9.854l9.9,9.9h0l23.14,23.14a3.608,3.608,0,0,0,5.1,0l17.329-17.329A3.613,3.613,0,0,0,100.047,77.614ZM29.914,37.758l7.844-7.844,1.415,1.414-7.845,7.844ZM98.279,80.95,80.95,98.278a1.135,1.135,0,0,1-1.568,0L57.125,76.022,62.144,71a1.25,1.25,0,0,0,.334-1.165,6.126,6.126,0,0,1,7.361-7.362A1.244,1.244,0,0,0,71,62.144l5.019-5.019,3.759,3.759L74.763,65.9a1.25,1.25,0,0,0-.334,1.165,6.126,6.126,0,0,1-7.361,7.361,1.25,1.25,0,0,0-.562,2.436A8.625,8.625,0,0,0,77,67.2l4.553-4.553,16.73,16.73A1.111,1.111,0,0,1,98.279,80.95Z"/></svg>