<svg id="Layer_1" data-name="Layer 1" xmlns="http://www.w3.org/2000/svg" viewBox="0 0 128 128"><title>VALENTINE SEARCH</title><path d="M51.648,36.7a8.188,8.188,0,0,0-8.105,6.844,8.221,8.221,0,0,0,.888,16.312,1.286,1.286,0,0,0,.239.023H58.627a1.25,1.25,0,0,0,1.25-1.25V44.67a1.251,1.251,0,0,0-.023-.235A8.2,8.2,0,0,0,51.648,36.7Zm5.729,8.149V57.377H44.849c-.044-.006-.088-.01-.133-.012a5.72,5.72,0,0,1,.01-11.434,1.25,1.25,0,0,0,1.206-1.206,5.72,5.72,0,0,1,11.434-.01C57.367,44.761,57.371,44.8,57.377,44.848Z"/><path d="M99.194,91.212,75.848,67.866a5.616,5.616,0,0,0-6.991-.777L66.89,65.122a22.8,22.8,0,0,0-.839-31.3,1.25,1.25,0,1,0-1.768,1.768,20.269,20.269,0,1,1-5.764-4.043,1.25,1.25,0,1,0,1.057-2.266,22.791,22.791,0,1,0,5.546,37.6l1.967,1.966a5.616,5.616,0,0,0,.777,6.991l2.016,2.017A1.25,1.25,0,1,0,71.649,76.1L69.634,74.08a3.144,3.144,0,0,1,0-4.446,3.22,3.22,0,0,1,4.446,0L97.427,92.98a3.145,3.145,0,0,1-4.447,4.447L75.443,79.891a1.25,1.25,0,1,0-1.768,1.768L91.212,99.194a5.644,5.644,0,0,0,7.982-7.982Z"/></svg>