<svg id="Layer_1" data-name="Layer 1" xmlns="http://www.w3.org/2000/svg" viewBox="0 0 128 128"><title>VALENTINE LETTER</title><path d="M99.914,50.807H81.875a1.25,1.25,0,0,0,0,2.5h13.2L64,70.521,32.922,53.307h19.9L63.116,63.6a1.25,1.25,0,0,0,1.768,0L77.022,51.462a1.178,1.178,0,0,0,.157-.195A9.823,9.823,0,0,0,64,36.838,9.817,9.817,0,0,0,50.447,50.807H28.086a1.25,1.25,0,0,0-1.25,1.25V91.842a1.25,1.25,0,0,0,1.25,1.25H99.914a1.25,1.25,0,0,0,1.25-1.25V52.057A1.25,1.25,0,0,0,99.914,50.807ZM77.843,65.71,98.664,54.178V88.61ZM64,73.2a1.246,1.246,0,0,0,.605-.157L75.6,66.955,97.088,90.592H30.912L48.59,71.15a1.25,1.25,0,1,0-1.85-1.682L29.336,88.61V54.178L63.394,73.043A1.247,1.247,0,0,0,64,73.2ZM52.971,39.551a7.3,7.3,0,0,1,10.177-.173,1.249,1.249,0,0,0,1.7,0A7.322,7.322,0,0,1,75.21,49.717a1.367,1.367,0,0,0-.1.121L64,60.95,52.89,49.839a1.267,1.267,0,0,0-.1-.122A7.3,7.3,0,0,1,52.971,39.551Z"/></svg>