<svg id="Layer_1" data-name="Layer 1" xmlns="http://www.w3.org/2000/svg" viewBox="0 0 128 128"><title>VALENTINES</title><path d="M63.317,79.651l-6.561,6.563-6.008-6.008A7.763,7.763,0,0,0,39.759,69.663,7.767,7.767,0,0,0,29.5,81.184a1.232,1.232,0,0,0,.148.179l9.226,9.227a1.25,1.25,0,0,0,1.768,0l8.476-8.477,6.753,6.753a1.249,1.249,0,0,0,1.767,0l7.445-7.446a1.25,1.25,0,1,0-1.768-1.767ZM39.759,87.938l-8.221-8.222a1.073,1.073,0,0,0-.08-.1,5.266,5.266,0,0,1,7.448-7.436,1.251,1.251,0,0,0,1.7,0A5.266,5.266,0,0,1,48.06,79.62a1.064,1.064,0,0,0-.079.095Z"/><path d="M97.073,61.734a11.5,11.5,0,0,0-12.134-2.679A17.863,17.863,0,0,0,56.756,39.3,17.868,17.868,0,0,0,32.138,65.067a1.227,1.227,0,0,0,.2.268l.436.437A1.25,1.25,0,1,0,34.545,64l-.239-.238a1.3,1.3,0,0,0-.143-.187,15.368,15.368,0,0,1,21.74-21.7,1.249,1.249,0,0,0,1.705,0A15.368,15.368,0,0,1,81.563,60.516,11.542,11.542,0,0,0,66.243,77.6a1.241,1.241,0,0,0,.172.214L81,92.393a1.25,1.25,0,0,0,1.768,0L97.344,77.812a1.154,1.154,0,0,0,.165-.206A11.511,11.511,0,0,0,97.073,61.734ZM95.53,76.065a1.158,1.158,0,0,0-.1.129L81.879,89.741,68.335,76.2a1.23,1.23,0,0,0-.107-.132,9.047,9.047,0,0,1,12.8-12.776c.028.027.065.036.1.06s.04.05.069.069a1.173,1.173,0,0,0,.123.051,1.247,1.247,0,0,0,.951.084,1.181,1.181,0,0,0,.13-.053,1.2,1.2,0,0,0,.289-.181c.015-.013.034-.017.048-.03a9.048,9.048,0,0,1,12.8,12.776Z"/></svg>