<svg xmlns="http://www.w3.org/2000/svg" xmlns:xlink="http://www.w3.org/1999/xlink" id="Layer_1" x="0" y="0" version="1.1" viewBox="0 0 256 256" xml:space="preserve"><style>.st1,.st2,.st3{fill:#253759}.st2,.st3{clip-path:url(#SVGID_2_)}.st3{clip-path:url(#SVGID_4_)}.st4{fill:url(#New_Pattern_Swatch_1)}</style><pattern id="New_Pattern_Swatch_1" width="42.9" height="43" x="-1104" y="-552" overflow="visible" patternUnits="userSpaceOnUse" viewBox="43 -43 42.9 43"><path d="M43-43h42.9V0H43z"/><circle cx="85.9" cy="-41.2" r=".6" class="st1"/><circle cx="85.9" cy="-37.6" r=".6" class="st1"/><circle cx="85.9" cy="-34" r=".6" class="st1"/><circle cx="85.9" cy="-30.4" r=".6" class="st1"/><circle cx="85.9" cy="-26.9" r=".6" class="st1"/><circle cx="85.9" cy="-23.3" r=".6" class="st1"/><circle cx="85.9" cy="-19.7" r=".6" class="st1"/><circle cx="85.9" cy="-16.1" r=".6" class="st1"/><circle cx="85.9" cy="-12.6" r=".6" class="st1"/><circle cx="85.9" cy="-9" r=".6" class="st1"/><circle cx="85.9" cy="-5.4" r=".6" class="st1"/><circle cx="85.9" cy="-1.8" r=".6" class="st1"/><circle cx="85.8" cy="-41.2" r=".6" class="st1"/><circle cx="85.8" cy="-37.6" r=".6" class="st1"/><circle cx="85.8" cy="-34" r=".6" class="st1"/><circle cx="85.8" cy="-30.4" r=".6" class="st1"/><circle cx="85.8" cy="-26.9" r=".6" class="st1"/><circle cx="85.8" cy="-23.3" r=".6" class="st1"/><circle cx="85.8" cy="-19.7" r=".6" class="st1"/><circle cx="85.8" cy="-16.1" r=".6" class="st1"/><circle cx="85.8" cy="-12.6" r=".6" class="st1"/><circle cx="85.8" cy="-9" r=".6" class="st1"/><circle cx="85.8" cy="-5.4" r=".6" class="st1"/><circle cx="85.8" cy="-1.8" r=".6" class="st1"/><g><defs><path id="SVGID_1_" d="M85.8-43h43V0h-43z"/></defs><clipPath id="SVGID_2_"><use overflow="visible" xlink:href="#SVGID_1_"/></clipPath><circle cx="85.8" cy="-41.2" r=".6" class="st2"/><circle cx="85.8" cy="-37.6" r=".6" class="st2"/><circle cx="85.8" cy="-34" r=".6" class="st2"/><circle cx="85.8" cy="-30.4" r=".6" class="st2"/><circle cx="85.8" cy="-26.9" r=".6" class="st2"/><circle cx="85.8" cy="-23.3" r=".6" class="st2"/><circle cx="85.8" cy="-19.7" r=".6" class="st2"/><circle cx="85.8" cy="-16.1" r=".6" class="st2"/><circle cx="85.8" cy="-12.6" r=".6" class="st2"/><circle cx="85.8" cy="-9" r=".6" class="st2"/><circle cx="85.8" cy="-5.4" r=".6" class="st2"/><circle cx="85.8" cy="-1.8" r=".6" class="st2"/><circle cx="85.7" cy="-41.2" r=".6" class="st2"/><circle cx="85.7" cy="-37.6" r=".6" class="st2"/><circle cx="85.7" cy="-34" r=".6" class="st2"/><circle cx="85.7" cy="-30.4" r=".6" class="st2"/><circle cx="85.7" cy="-26.9" r=".6" class="st2"/><circle cx="85.7" cy="-23.3" r=".6" class="st2"/><circle cx="85.7" cy="-19.7" r=".6" class="st2"/><circle cx="85.7" cy="-16.1" r=".6" class="st2"/><circle cx="85.7" cy="-12.6" r=".6" class="st2"/><circle cx="85.7" cy="-9" r=".6" class="st2"/><circle cx="85.7" cy="-5.4" r=".6" class="st2"/><circle cx="85.7" cy="-1.8" r=".6" class="st2"/></g><g><circle cx="85.9" cy="-41.2" r=".6" class="st1"/><circle cx="85.9" cy="-37.6" r=".6" class="st1"/><circle cx="85.9" cy="-34" r=".6" class="st1"/><circle cx="85.9" cy="-30.4" r=".6" class="st1"/><circle cx="85.9" cy="-26.9" r=".6" class="st1"/><circle cx="85.9" cy="-23.3" r=".6" class="st1"/><circle cx="85.9" cy="-19.7" r=".6" class="st1"/><circle cx="85.9" cy="-16.1" r=".6" class="st1"/><circle cx="85.9" cy="-12.6" r=".6" class="st1"/><circle cx="85.9" cy="-9" r=".6" class="st1"/><circle cx="85.9" cy="-5.4" r=".6" class="st1"/><circle cx="85.9" cy="-1.8" r=".6" class="st1"/><circle cx="43" cy="-41.2" r=".6" class="st1"/><circle cx="46.5" cy="-41.2" r=".6" class="st1"/><circle cx="50.1" cy="-41.2" r=".6" class="st1"/><circle cx="53.7" cy="-41.2" r=".6" class="st1"/><circle cx="43" cy="-37.6" r=".6" class="st1"/><circle cx="46.5" cy="-37.6" r=".6" class="st1"/><circle cx="50.1" cy="-37.6" r=".6" class="st1"/><circle cx="53.7" cy="-37.6" r=".6" class="st1"/><circle cx="43" cy="-34" r=".6" class="st1"/><circle cx="46.5" cy="-34" r=".6" class="st1"/><circle cx="50.1" cy="-34" r=".6" class="st1"/><circle cx="53.7" cy="-34" r=".6" class="st1"/><circle cx="43" cy="-30.4" r=".6" class="st1"/><circle cx="46.5" cy="-30.4" r=".6" class="st1"/><circle cx="50.1" cy="-30.4" r=".6" class="st1"/><circle cx="53.7" cy="-30.4" r=".6" class="st1"/><circle cx="43" cy="-26.9" r=".6" class="st1"/><circle cx="46.5" cy="-26.9" r=".6" class="st1"/><circle cx="50.1" cy="-26.9" r=".6" class="st1"/><circle cx="53.7" cy="-26.9" r=".6" class="st1"/><circle cx="43" cy="-23.3" r=".6" class="st1"/><circle cx="46.5" cy="-23.3" r=".6" class="st1"/><circle cx="50.1" cy="-23.3" r=".6" class="st1"/><circle cx="53.7" cy="-23.3" r=".6" class="st1"/><circle cx="57.3" cy="-41.2" r=".6" class="st1"/><circle cx="60.8" cy="-41.2" r=".6" class="st1"/><circle cx="64.4" cy="-41.2" r=".6" class="st1"/><circle cx="68" cy="-41.2" r=".6" class="st1"/><circle cx="71.5" cy="-41.2" r=".6" class="st1"/><circle cx="57.3" cy="-37.6" r=".6" class="st1"/><circle cx="60.8" cy="-37.6" r=".6" class="st1"/><circle cx="64.4" cy="-37.6" r=".6" class="st1"/><circle cx="68" cy="-37.6" r=".6" class="st1"/><circle cx="71.5" cy="-37.6" r=".6" class="st1"/><circle cx="57.3" cy="-34" r=".6" class="st1"/><circle cx="60.8" cy="-34" r=".6" class="st1"/><circle cx="64.4" cy="-34" r=".6" class="st1"/><circle cx="68" cy="-34" r=".6" class="st1"/><circle cx="71.5" cy="-34" r=".6" class="st1"/><circle cx="57.3" cy="-30.4" r=".6" class="st1"/><circle cx="60.8" cy="-30.4" r=".6" class="st1"/><circle cx="64.4" cy="-30.4" r=".6" class="st1"/><circle cx="68" cy="-30.4" r=".6" class="st1"/><circle cx="71.5" cy="-30.4" r=".6" class="st1"/><circle cx="57.3" cy="-26.9" r=".6" class="st1"/><circle cx="60.8" cy="-26.9" r=".6" class="st1"/><circle cx="64.4" cy="-26.9" r=".6" class="st1"/><circle cx="68" cy="-26.9" r=".6" class="st1"/><circle cx="71.5" cy="-26.9" r=".6" class="st1"/><circle cx="57.3" cy="-23.3" r=".6" class="st1"/><circle cx="60.8" cy="-23.3" r=".6" class="st1"/><circle cx="64.4" cy="-23.3" r=".6" class="st1"/><circle cx="68" cy="-23.3" r=".6" class="st1"/><circle cx="71.5" cy="-23.3" r=".6" class="st1"/><circle cx="75.1" cy="-41.2" r=".6" class="st1"/><circle cx="78.7" cy="-41.2" r=".6" class="st1"/><circle cx="82.3" cy="-41.2" r=".6" class="st1"/><circle cx="85.8" cy="-41.2" r=".6" class="st1"/><circle cx="75.1" cy="-37.6" r=".6" class="st1"/><circle cx="78.7" cy="-37.6" r=".6" class="st1"/><circle cx="82.3" cy="-37.6" r=".6" class="st1"/><circle cx="85.8" cy="-37.6" r=".6" class="st1"/><circle cx="75.1" cy="-34" r=".6" class="st1"/><circle cx="78.7" cy="-34" r=".6" class="st1"/><circle cx="82.3" cy="-34" r=".6" class="st1"/><circle cx="85.8" cy="-34" r=".6" class="st1"/><circle cx="75.1" cy="-30.4" r=".6" class="st1"/><circle cx="78.7" cy="-30.4" r=".6" class="st1"/><circle cx="82.3" cy="-30.4" r=".6" class="st1"/><circle cx="85.8" cy="-30.4" r=".6" class="st1"/><circle cx="75.1" cy="-26.9" r=".6" class="st1"/><circle cx="78.7" cy="-26.9" r=".6" class="st1"/><circle cx="82.3" cy="-26.9" r=".6" class="st1"/><circle cx="85.8" cy="-26.9" r=".6" class="st1"/><circle cx="75.1" cy="-23.3" r=".6" class="st1"/><circle cx="78.7" cy="-23.3" r=".6" class="st1"/><circle cx="82.3" cy="-23.3" r=".6" class="st1"/><circle cx="85.8" cy="-23.3" r=".6" class="st1"/><circle cx="43" cy="-19.7" r=".6" class="st1"/><circle cx="46.5" cy="-19.7" r=".6" class="st1"/><circle cx="50.1" cy="-19.7" r=".6" class="st1"/><circle cx="53.7" cy="-19.7" r=".6" class="st1"/><circle cx="43" cy="-16.1" r=".6" class="st1"/><circle cx="46.5" cy="-16.1" r=".6" class="st1"/><circle cx="50.1" cy="-16.1" r=".6" class="st1"/><circle cx="53.7" cy="-16.1" r=".6" class="st1"/><circle cx="43" cy="-12.6" r=".6" class="st1"/><circle cx="46.5" cy="-12.6" r=".6" class="st1"/><circle cx="50.1" cy="-12.6" r=".6" class="st1"/><circle cx="53.7" cy="-12.6" r=".6" class="st1"/><circle cx="43" cy="-9" r=".6" class="st1"/><circle cx="46.5" cy="-9" r=".6" class="st1"/><circle cx="50.1" cy="-9" r=".6" class="st1"/><circle cx="53.7" cy="-9" r=".6" class="st1"/><circle cx="43" cy="-5.4" r=".6" class="st1"/><circle cx="46.5" cy="-5.4" r=".6" class="st1"/><circle cx="50.1" cy="-5.4" r=".6" class="st1"/><circle cx="53.7" cy="-5.4" r=".6" class="st1"/><circle cx="43" cy="-1.8" r=".6" class="st1"/><circle cx="46.5" cy="-1.8" r=".6" class="st1"/><circle cx="50.1" cy="-1.8" r=".6" class="st1"/><circle cx="53.7" cy="-1.8" r=".6" class="st1"/><circle cx="57.3" cy="-19.7" r=".6" class="st1"/><circle cx="60.8" cy="-19.7" r=".6" class="st1"/><circle cx="64.4" cy="-19.7" r=".6" class="st1"/><circle cx="68" cy="-19.7" r=".6" class="st1"/><circle cx="71.5" cy="-19.7" r=".6" class="st1"/><circle cx="57.3" cy="-16.1" r=".6" class="st1"/><circle cx="60.8" cy="-16.1" r=".6" class="st1"/><circle cx="64.4" cy="-16.1" r=".6" class="st1"/><circle cx="68" cy="-16.1" r=".6" class="st1"/><circle cx="71.5" cy="-16.1" r=".6" class="st1"/><circle cx="57.3" cy="-12.6" r=".6" class="st1"/><circle cx="60.8" cy="-12.6" r=".6" class="st1"/><circle cx="64.4" cy="-12.6" r=".6" class="st1"/><circle cx="68" cy="-12.6" r=".6" class="st1"/><circle cx="71.5" cy="-12.6" r=".6" class="st1"/><circle cx="57.3" cy="-9" r=".6" class="st1"/><circle cx="60.8" cy="-9" r=".6" class="st1"/><circle cx="64.4" cy="-9" r=".6" class="st1"/><circle cx="68" cy="-9" r=".6" class="st1"/><circle cx="71.5" cy="-9" r=".6" class="st1"/><circle cx="57.3" cy="-5.4" r=".6" class="st1"/><circle cx="60.8" cy="-5.4" r=".6" class="st1"/><circle cx="64.4" cy="-5.4" r=".6" class="st1"/><circle cx="68" cy="-5.4" r=".6" class="st1"/><circle cx="71.5" cy="-5.4" r=".6" class="st1"/><circle cx="57.3" cy="-1.8" r=".6" class="st1"/><circle cx="60.8" cy="-1.8" r=".6" class="st1"/><circle cx="64.4" cy="-1.8" r=".6" class="st1"/><circle cx="68" cy="-1.8" r=".6" class="st1"/><circle cx="71.5" cy="-1.8" r=".6" class="st1"/><circle cx="75.1" cy="-19.7" r=".6" class="st1"/><circle cx="78.7" cy="-19.7" r=".6" class="st1"/><circle cx="82.3" cy="-19.7" r=".6" class="st1"/><circle cx="85.8" cy="-19.7" r=".6" class="st1"/><circle cx="75.1" cy="-16.1" r=".6" class="st1"/><circle cx="78.7" cy="-16.1" r=".6" class="st1"/><circle cx="82.3" cy="-16.1" r=".6" class="st1"/><circle cx="85.8" cy="-16.1" r=".6" class="st1"/><circle cx="75.1" cy="-12.6" r=".6" class="st1"/><circle cx="78.7" cy="-12.6" r=".6" class="st1"/><circle cx="82.3" cy="-12.6" r=".6" class="st1"/><circle cx="85.8" cy="-12.6" r=".6" class="st1"/><circle cx="75.1" cy="-9" r=".6" class="st1"/><circle cx="78.7" cy="-9" r=".6" class="st1"/><circle cx="82.3" cy="-9" r=".6" class="st1"/><circle cx="85.8" cy="-9" r=".6" class="st1"/><circle cx="75.1" cy="-5.4" r=".6" class="st1"/><circle cx="78.7" cy="-5.4" r=".6" class="st1"/><circle cx="82.3" cy="-5.4" r=".6" class="st1"/><circle cx="85.8" cy="-5.4" r=".6" class="st1"/><circle cx="75.1" cy="-1.8" r=".6" class="st1"/><circle cx="78.7" cy="-1.8" r=".6" class="st1"/><circle cx="82.3" cy="-1.8" r=".6" class="st1"/><circle cx="85.8" cy="-1.8" r=".6" class="st1"/><circle cx="42.9" cy="-41.2" r=".6" class="st1"/><circle cx="42.9" cy="-37.6" r=".6" class="st1"/><circle cx="42.9" cy="-34" r=".6" class="st1"/><circle cx="42.9" cy="-30.4" r=".6" class="st1"/><circle cx="42.9" cy="-26.9" r=".6" class="st1"/><circle cx="42.9" cy="-23.3" r=".6" class="st1"/><circle cx="42.9" cy="-19.7" r=".6" class="st1"/><circle cx="42.9" cy="-16.1" r=".6" class="st1"/><circle cx="42.9" cy="-12.6" r=".6" class="st1"/><circle cx="42.9" cy="-9" r=".6" class="st1"/><circle cx="42.9" cy="-5.4" r=".6" class="st1"/><circle cx="42.9" cy="-1.8" r=".6" class="st1"/><g><defs><path id="SVGID_3_" d="M42.9-43h43V0h-43z"/></defs><clipPath id="SVGID_4_"><use overflow="visible" xlink:href="#SVGID_3_"/></clipPath><circle cx="42.9" cy="-41.2" r=".6" class="st3"/><circle cx="42.9" cy="-37.6" r=".6" class="st3"/><circle cx="42.9" cy="-34" r=".6" class="st3"/><circle cx="42.9" cy="-30.4" r=".6" class="st3"/><circle cx="42.9" cy="-26.9" r=".6" class="st3"/><circle cx="42.9" cy="-23.3" r=".6" class="st3"/><circle cx="42.9" cy="-19.7" r=".6" class="st3"/><circle cx="42.9" cy="-16.1" r=".6" class="st3"/><circle cx="42.9" cy="-12.6" r=".6" class="st3"/><circle cx="42.9" cy="-9" r=".6" class="st3"/><circle cx="42.9" cy="-5.4" r=".6" class="st3"/><circle cx="42.9" cy="-1.8" r=".6" class="st3"/><circle cx="42.8" cy="-41.2" r=".6" class="st3"/><circle cx="42.8" cy="-37.6" r=".6" class="st3"/><circle cx="42.8" cy="-34" r=".6" class="st3"/><circle cx="42.8" cy="-30.4" r=".6" class="st3"/><circle cx="42.8" cy="-26.9" r=".6" class="st3"/><circle cx="42.8" cy="-23.3" r=".6" class="st3"/><circle cx="42.8" cy="-19.7" r=".6" class="st3"/><circle cx="42.8" cy="-16.1" r=".6" class="st3"/><circle cx="42.8" cy="-12.6" r=".6" class="st3"/><circle cx="42.8" cy="-9" r=".6" class="st3"/><circle cx="42.8" cy="-5.4" r=".6" class="st3"/><circle cx="42.8" cy="-1.8" r=".6" class="st3"/></g></g><g><circle cx="43" cy="-41.2" r=".6" class="st1"/><circle cx="43" cy="-37.6" r=".6" class="st1"/><circle cx="43" cy="-34" r=".6" class="st1"/><circle cx="43" cy="-30.4" r=".6" class="st1"/><circle cx="43" cy="-26.9" r=".6" class="st1"/><circle cx="43" cy="-23.3" r=".6" class="st1"/><circle cx="43" cy="-19.7" r=".6" class="st1"/><circle cx="43" cy="-16.1" r=".6" class="st1"/><circle cx="43" cy="-12.6" r=".6" class="st1"/><circle cx="43" cy="-9" r=".6" class="st1"/><circle cx="43" cy="-5.4" r=".6" class="st1"/><circle cx="43" cy="-1.8" r=".6" class="st1"/><circle cx="42.9" cy="-41.2" r=".6" class="st1"/><circle cx="42.9" cy="-37.6" r=".6" class="st1"/><circle cx="42.9" cy="-34" r=".6" class="st1"/><circle cx="42.9" cy="-30.4" r=".6" class="st1"/><circle cx="42.9" cy="-26.9" r=".6" class="st1"/><circle cx="42.9" cy="-23.3" r=".6" class="st1"/><circle cx="42.9" cy="-19.7" r=".6" class="st1"/><circle cx="42.9" cy="-16.1" r=".6" class="st1"/><circle cx="42.9" cy="-12.6" r=".6" class="st1"/><circle cx="42.9" cy="-9" r=".6" class="st1"/><circle cx="42.9" cy="-5.4" r=".6" class="st1"/><circle cx="42.9" cy="-1.8" r=".6" class="st1"/><g><defs><path id="SVGID_5_" d="M0-43h43V0H0z"/></defs><clipPath id="SVGID_6_"><use overflow="visible" xlink:href="#SVGID_5_"/></clipPath></g></g></pattern><path d="M226.2 159.5h-97.9l-48.9-.1c-16.3 0-32.6-.1-48.9 0-.3 0-.5-.2-.6-.5l-.2-118V23.4c0-.3 0-.7.1-1 .2-1.4 1-2.7 2.1-3.6.6-.4 1.2-.8 1.9-1 .7-.2 1.5-.3 2.1-.3h33.2l59-.1 59-.1h34.2c.4 0 .7.1 1.1.2.7.2 1.4.6 1.9 1 1.2.9 2 2.3 2.2 3.7.1.4.1.7.1 1.1v17.6l-.4 118.6zm-1.3-1.3l-.3-117.5V23.3c0-.3 0-.5-.1-.8-.2-1-.7-1.9-1.5-2.5-.4-.3-.8-.5-1.3-.7-.2-.1-.5-.1-.7-.1h-34l-59-.1-59-.1H35.8c-1.1-.1-2.1.2-2.9.9-.8.6-1.4 1.6-1.5 2.6-.1.3-.1.5-.1.8v17.5l-.2 118-.6-.6c16.2.1 32.5 0 48.7 0l48.6-.1 97.1.1z" class="st1"/><path d="M38.9 26.6h178.2v123.7H38.9z" class="st4"/><path d="M38.5 150.8V26.7c0-.2.2-.4.4-.4l178.2-.4c.4 0 .8.4.8.8l.2 123.7c0 .6-.5 1-1 1-29.8 0-59.6-.2-89.4-.3l-89.2-.3zm.8-.8l89-.4c29.6-.1 59.2-.3 88.8-.3l-1 1 .2-123.7.8.8-178.2-.3.4-.4V150zM3.6 225c8.7-22 17.4-44.3 26.3-66.4.1-.2.3-.4.5-.4l48.8.1H128l97.6-.2c.3 0 .6.2.7.5l26.6 65.9c.2.5 0 1-.5 1.2-.1 0-.2.1-.3.1-20.7.1-41.5.1-62.2.1l-62.2-.2L3.6 225zm.8-.5l124.1-.6 61.8-.2c20.6 0 41.2 0 61.8.1l-.8 1.3-26.3-66 .7.5-97.6-.2H79.3l-48.8.1.5-.4c-8.8 21.8-17.7 43.5-26.6 65.4z" class="st1"/><path d="M245 220l-43 .2c-14.4.1-28.8.1-43.2.1-.3 0-.5-.2-.5-.4l-3.8-12.9.5.4h-53.9l.5-.4-3.8 12.9c-.1.2-.3.4-.5.4l-85.8.2c-.4 0-.7-.3-.7-.7 0-.1 0-.2.1-.3l22.3-56c.1-.3.5-.6.8-.6l94.2-.1 94.2.3c.3 0 .6.2.7.5 3.7 9.4 7.5 18.9 11.2 28.3L245 220zm-.8-.5l-11.5-27.8c-3.8-9.2-7.5-18.4-11.3-27.6l.7.5-94.2.3-94.2-.1.8-.6L12.1 220l-.7-1 85.8.2-.5.4 3.8-12.9c.1-.2.3-.4.5-.4h53.9c.2 0 .5.2.5.4l3.8 12.9-.5-.4c14.2 0 28.4 0 42.7.1l42.8.2z" class="st1"/><path d="M4 224.8h248c0 7.2-5.8 13-13 13H17c-7.2 0-13-5.8-13-13z" class="st4"/><path d="M3.6 224.8c.8-.8.3-.2.5-.4h124l124-.3.8.8c0 1.5-.2 2.9-.7 4.3-.4 1.4-1.1 2.7-2 3.9-1.7 2.4-4.2 4.1-6.9 5.1-1.4.4-2.8.7-4.3.7H226.7l-32.9.1-65.7.1-65.7-.2-32.9-.1-8.2-.1h-4.1c-1.4 0-2.8-.2-4.2-.7-2.7-.9-5.1-2.6-6.8-5-.8-1.2-1.5-2.4-1.9-3.8-.5-1.6-.7-3-.7-4.4zm.8 0c0 1.3.2 2.6.7 3.9.4 1.3 1.1 2.4 1.8 3.5 1.5 2.1 3.8 3.7 6.3 4.5 1.3.4 2.6.6 3.9.6h4.1l8.2-.1 32.9-.1 65.7-.2 65.7.1 32.9.1H238.9c1.3 0 2.6-.2 3.8-.6 2.4-.8 4.6-2.3 6.1-4.4.8-1 1.4-2.2 1.8-3.4.4-1.2.6-2.5.6-3.8l.8.8-124-.3H4c.2-.4-.4.2.4-.6z" class="st1"/><path d="M161 225.3h-49c-5.4 0-10.8.1-16.2.2-.4 0-.7-.3-.7-.7v-.2l5.2-17.9c.1-.4.4-.6.8-.6 9-.1 18-.1 27-.1h13.4c4.5 0 9 .1 13.5.3.3 0 .6.2.6.5l2.7 8.9 1.4 4.5c.5 1.6.9 3.4 1.3 5.1zm-1.4-1c-.6-1.3-1.1-2.5-1.4-3.8l-1.3-4.4-2.6-9 .6.5-13.5.3H128c-9 0-18-.1-27-.1l.8-.6-5.4 17.8-.7-.9c5.3.1 10.7.2 16 .2h47.9z" class="st1"/><path d="M127.9 224.8c-.1-.6-.2-1.2-.3-1.9-.1-.6-.1-1.2-.1-1.9 0-.6 0-1.2.1-1.9.1-.6.1-1.2.3-1.9 0-.1.1-.1.1-.1s.1 0 .1.1c.1.6.2 1.2.3 1.9.1.6.1 1.2.1 1.9 0 .6 0 1.2-.1 1.9-.1.6-.1 1.2-.3 1.9 0 0-.1.1-.2 0zM83.1 123.5l17.2-17.8L117.7 88c5.7-6 11.4-12 17.3-17.7 6-5.7 11.9-11.4 18.2-16.9h.1v.1c-5.4 6.2-11.2 12.2-16.9 18.2-5.7 5.9-11.7 11.6-17.7 17.4L101 106.4l-17.8 17.2h-.1v-.1zM102.7 123.5l17.2-17.8L137.2 88c5.8-6 11.5-12 17.4-17.7 6-5.7 11.9-11.4 18.2-16.9h.1v.1c-5.4 6.2-11.2 12.2-16.9 18.2-5.7 5.9-11.7 11.6-17.7 17.4l-17.7 17.3-17.8 17.2h-.1c-.1 0-.1-.1 0-.1zM43.9 169.9l42-.4 42-.3c14-.1 28-.3 42-.2 14 .2 28 .3 42 .9.1 0 .1 0 .1.1s0 .1-.1.1c-14 .6-28 .7-42 .9-14 .1-28-.1-42-.2l-42-.3-42-.4c0-.1-.1-.1 0-.2-.1 0 0 0 0 0z" class="st1"/><g><path d="M38.6 185.1l44.7-.4 44.7-.3c14.9-.1 29.8-.3 44.7-.2 14.9.2 29.8.3 44.7.9.1 0 .1 0 .1.1s0 .1-.1.1c-14.9.6-29.8.7-44.7.9-14.9.1-29.8-.1-44.7-.2l-44.7-.3-44.7-.4s-.1 0 0-.2c-.1.1 0 0 0 0z" class="st1"/></g><g><path d="M33.3 199.8l47.3-.4 47.3-.3c15.8-.1 31.6-.3 47.3-.2 15.8.2 31.6.3 47.3.9.1 0 .1 0 .1.1s0 .1-.1.1c-15.8.6-31.6.7-47.3.9-15.8.1-31.6-.1-47.3-.2l-47.3-.3-47.3-.4s-.1 0 0-.2c-.1.1 0 0 0 0z" class="st1"/></g></svg>