<svg xmlns="http://www.w3.org/2000/svg" xmlns:xlink="http://www.w3.org/1999/xlink" id="Layer_1" x="0" y="0" version="1.1" viewBox="0 0 256 256" xml:space="preserve"><style>.st1,.st2,.st3{fill:#253759}.st2,.st3{clip-path:url(#SVGID_2_)}.st3{clip-path:url(#SVGID_4_)}.st4{fill:url(#New_Pattern_Swatch_1)}.st5{fill:none;stroke:#253759;stroke-width:2;stroke-linecap:round;stroke-linejoin:round;stroke-miterlimit:10}</style><pattern id="New_Pattern_Swatch_1" width="42.9" height="43" x="-276" overflow="visible" patternUnits="userSpaceOnUse" viewBox="43 -43 42.9 43"><path d="M43-43h42.9V0H43z"/><circle cx="85.9" cy="-41.2" r=".6" class="st1"/><circle cx="85.9" cy="-37.6" r=".6" class="st1"/><circle cx="85.9" cy="-34" r=".6" class="st1"/><circle cx="85.9" cy="-30.4" r=".6" class="st1"/><circle cx="85.9" cy="-26.9" r=".6" class="st1"/><circle cx="85.9" cy="-23.3" r=".6" class="st1"/><circle cx="85.9" cy="-19.7" r=".6" class="st1"/><circle cx="85.9" cy="-16.1" r=".6" class="st1"/><circle cx="85.9" cy="-12.6" r=".6" class="st1"/><circle cx="85.9" cy="-9" r=".6" class="st1"/><circle cx="85.9" cy="-5.4" r=".6" class="st1"/><circle cx="85.9" cy="-1.8" r=".6" class="st1"/><circle cx="85.8" cy="-41.2" r=".6" class="st1"/><circle cx="85.8" cy="-37.6" r=".6" class="st1"/><circle cx="85.8" cy="-34" r=".6" class="st1"/><circle cx="85.8" cy="-30.4" r=".6" class="st1"/><circle cx="85.8" cy="-26.9" r=".6" class="st1"/><circle cx="85.8" cy="-23.3" r=".6" class="st1"/><circle cx="85.8" cy="-19.7" r=".6" class="st1"/><circle cx="85.8" cy="-16.1" r=".6" class="st1"/><circle cx="85.8" cy="-12.6" r=".6" class="st1"/><circle cx="85.8" cy="-9" r=".6" class="st1"/><circle cx="85.8" cy="-5.4" r=".6" class="st1"/><circle cx="85.8" cy="-1.8" r=".6" class="st1"/><g><defs><path id="SVGID_1_" d="M85.8-43h43V0h-43z"/></defs><clipPath id="SVGID_2_"><use overflow="visible" xlink:href="#SVGID_1_"/></clipPath><circle cx="85.8" cy="-41.2" r=".6" class="st2"/><circle cx="85.8" cy="-37.6" r=".6" class="st2"/><circle cx="85.8" cy="-34" r=".6" class="st2"/><circle cx="85.8" cy="-30.4" r=".6" class="st2"/><circle cx="85.8" cy="-26.9" r=".6" class="st2"/><circle cx="85.8" cy="-23.3" r=".6" class="st2"/><circle cx="85.8" cy="-19.7" r=".6" class="st2"/><circle cx="85.8" cy="-16.1" r=".6" class="st2"/><circle cx="85.8" cy="-12.6" r=".6" class="st2"/><circle cx="85.8" cy="-9" r=".6" class="st2"/><circle cx="85.8" cy="-5.4" r=".6" class="st2"/><circle cx="85.8" cy="-1.8" r=".6" class="st2"/><circle cx="85.7" cy="-41.2" r=".6" class="st2"/><circle cx="85.7" cy="-37.6" r=".6" class="st2"/><circle cx="85.7" cy="-34" r=".6" class="st2"/><circle cx="85.7" cy="-30.4" r=".6" class="st2"/><circle cx="85.7" cy="-26.9" r=".6" class="st2"/><circle cx="85.7" cy="-23.3" r=".6" class="st2"/><circle cx="85.7" cy="-19.7" r=".6" class="st2"/><circle cx="85.7" cy="-16.1" r=".6" class="st2"/><circle cx="85.7" cy="-12.6" r=".6" class="st2"/><circle cx="85.7" cy="-9" r=".6" class="st2"/><circle cx="85.7" cy="-5.4" r=".6" class="st2"/><circle cx="85.7" cy="-1.8" r=".6" class="st2"/></g><g><circle cx="85.9" cy="-41.2" r=".6" class="st1"/><circle cx="85.9" cy="-37.6" r=".6" class="st1"/><circle cx="85.9" cy="-34" r=".6" class="st1"/><circle cx="85.9" cy="-30.4" r=".6" class="st1"/><circle cx="85.9" cy="-26.9" r=".6" class="st1"/><circle cx="85.9" cy="-23.3" r=".6" class="st1"/><circle cx="85.9" cy="-19.7" r=".6" class="st1"/><circle cx="85.9" cy="-16.1" r=".6" class="st1"/><circle cx="85.9" cy="-12.6" r=".6" class="st1"/><circle cx="85.9" cy="-9" r=".6" class="st1"/><circle cx="85.9" cy="-5.4" r=".6" class="st1"/><circle cx="85.9" cy="-1.8" r=".6" class="st1"/><circle cx="43" cy="-41.2" r=".6" class="st1"/><circle cx="46.5" cy="-41.2" r=".6" class="st1"/><circle cx="50.1" cy="-41.2" r=".6" class="st1"/><circle cx="53.7" cy="-41.2" r=".6" class="st1"/><circle cx="43" cy="-37.6" r=".6" class="st1"/><circle cx="46.5" cy="-37.6" r=".6" class="st1"/><circle cx="50.1" cy="-37.6" r=".6" class="st1"/><circle cx="53.7" cy="-37.6" r=".6" class="st1"/><circle cx="43" cy="-34" r=".6" class="st1"/><circle cx="46.5" cy="-34" r=".6" class="st1"/><circle cx="50.1" cy="-34" r=".6" class="st1"/><circle cx="53.7" cy="-34" r=".6" class="st1"/><circle cx="43" cy="-30.4" r=".6" class="st1"/><circle cx="46.5" cy="-30.4" r=".6" class="st1"/><circle cx="50.1" cy="-30.4" r=".6" class="st1"/><circle cx="53.7" cy="-30.4" r=".6" class="st1"/><circle cx="43" cy="-26.9" r=".6" class="st1"/><circle cx="46.5" cy="-26.9" r=".6" class="st1"/><circle cx="50.1" cy="-26.9" r=".6" class="st1"/><circle cx="53.7" cy="-26.9" r=".6" class="st1"/><circle cx="43" cy="-23.3" r=".6" class="st1"/><circle cx="46.5" cy="-23.3" r=".6" class="st1"/><circle cx="50.1" cy="-23.3" r=".6" class="st1"/><circle cx="53.7" cy="-23.3" r=".6" class="st1"/><circle cx="57.3" cy="-41.2" r=".6" class="st1"/><circle cx="60.8" cy="-41.2" r=".6" class="st1"/><circle cx="64.4" cy="-41.2" r=".6" class="st1"/><circle cx="68" cy="-41.2" r=".6" class="st1"/><circle cx="71.5" cy="-41.2" r=".6" class="st1"/><circle cx="57.3" cy="-37.6" r=".6" class="st1"/><circle cx="60.8" cy="-37.6" r=".6" class="st1"/><circle cx="64.4" cy="-37.6" r=".6" class="st1"/><circle cx="68" cy="-37.6" r=".6" class="st1"/><circle cx="71.5" cy="-37.6" r=".6" class="st1"/><circle cx="57.3" cy="-34" r=".6" class="st1"/><circle cx="60.8" cy="-34" r=".6" class="st1"/><circle cx="64.4" cy="-34" r=".6" class="st1"/><circle cx="68" cy="-34" r=".6" class="st1"/><circle cx="71.5" cy="-34" r=".6" class="st1"/><circle cx="57.3" cy="-30.4" r=".6" class="st1"/><circle cx="60.8" cy="-30.4" r=".6" class="st1"/><circle cx="64.4" cy="-30.4" r=".6" class="st1"/><circle cx="68" cy="-30.4" r=".6" class="st1"/><circle cx="71.5" cy="-30.4" r=".6" class="st1"/><circle cx="57.3" cy="-26.9" r=".6" class="st1"/><circle cx="60.8" cy="-26.9" r=".6" class="st1"/><circle cx="64.4" cy="-26.9" r=".6" class="st1"/><circle cx="68" cy="-26.9" r=".6" class="st1"/><circle cx="71.5" cy="-26.9" r=".6" class="st1"/><circle cx="57.3" cy="-23.3" r=".6" class="st1"/><circle cx="60.8" cy="-23.3" r=".6" class="st1"/><circle cx="64.4" cy="-23.3" r=".6" class="st1"/><circle cx="68" cy="-23.3" r=".6" class="st1"/><circle cx="71.5" cy="-23.3" r=".6" class="st1"/><circle cx="75.1" cy="-41.2" r=".6" class="st1"/><circle cx="78.7" cy="-41.2" r=".6" class="st1"/><circle cx="82.3" cy="-41.2" r=".6" class="st1"/><circle cx="85.8" cy="-41.2" r=".6" class="st1"/><circle cx="75.1" cy="-37.6" r=".6" class="st1"/><circle cx="78.7" cy="-37.6" r=".6" class="st1"/><circle cx="82.3" cy="-37.6" r=".6" class="st1"/><circle cx="85.8" cy="-37.6" r=".6" class="st1"/><circle cx="75.1" cy="-34" r=".6" class="st1"/><circle cx="78.7" cy="-34" r=".6" class="st1"/><circle cx="82.3" cy="-34" r=".6" class="st1"/><circle cx="85.8" cy="-34" r=".6" class="st1"/><circle cx="75.1" cy="-30.4" r=".6" class="st1"/><circle cx="78.7" cy="-30.4" r=".6" class="st1"/><circle cx="82.3" cy="-30.4" r=".6" class="st1"/><circle cx="85.8" cy="-30.4" r=".6" class="st1"/><circle cx="75.1" cy="-26.9" r=".6" class="st1"/><circle cx="78.7" cy="-26.9" r=".6" class="st1"/><circle cx="82.3" cy="-26.9" r=".6" class="st1"/><circle cx="85.8" cy="-26.9" r=".6" class="st1"/><circle cx="75.1" cy="-23.3" r=".6" class="st1"/><circle cx="78.7" cy="-23.3" r=".6" class="st1"/><circle cx="82.3" cy="-23.3" r=".6" class="st1"/><circle cx="85.8" cy="-23.3" r=".6" class="st1"/><circle cx="43" cy="-19.7" r=".6" class="st1"/><circle cx="46.5" cy="-19.7" r=".6" class="st1"/><circle cx="50.1" cy="-19.7" r=".6" class="st1"/><circle cx="53.7" cy="-19.7" r=".6" class="st1"/><circle cx="43" cy="-16.1" r=".6" class="st1"/><circle cx="46.5" cy="-16.1" r=".6" class="st1"/><circle cx="50.1" cy="-16.1" r=".6" class="st1"/><circle cx="53.7" cy="-16.1" r=".6" class="st1"/><circle cx="43" cy="-12.6" r=".6" class="st1"/><circle cx="46.5" cy="-12.6" r=".6" class="st1"/><circle cx="50.1" cy="-12.6" r=".6" class="st1"/><circle cx="53.7" cy="-12.6" r=".6" class="st1"/><circle cx="43" cy="-9" r=".6" class="st1"/><circle cx="46.5" cy="-9" r=".6" class="st1"/><circle cx="50.1" cy="-9" r=".6" class="st1"/><circle cx="53.7" cy="-9" r=".6" class="st1"/><circle cx="43" cy="-5.4" r=".6" class="st1"/><circle cx="46.5" cy="-5.4" r=".6" class="st1"/><circle cx="50.1" cy="-5.4" r=".6" class="st1"/><circle cx="53.7" cy="-5.4" r=".6" class="st1"/><circle cx="43" cy="-1.8" r=".6" class="st1"/><circle cx="46.5" cy="-1.8" r=".6" class="st1"/><circle cx="50.1" cy="-1.8" r=".6" class="st1"/><circle cx="53.7" cy="-1.8" r=".6" class="st1"/><circle cx="57.3" cy="-19.7" r=".6" class="st1"/><circle cx="60.8" cy="-19.7" r=".6" class="st1"/><circle cx="64.4" cy="-19.7" r=".6" class="st1"/><circle cx="68" cy="-19.7" r=".6" class="st1"/><circle cx="71.5" cy="-19.7" r=".6" class="st1"/><circle cx="57.3" cy="-16.1" r=".6" class="st1"/><circle cx="60.8" cy="-16.1" r=".6" class="st1"/><circle cx="64.4" cy="-16.1" r=".6" class="st1"/><circle cx="68" cy="-16.1" r=".6" class="st1"/><circle cx="71.5" cy="-16.1" r=".6" class="st1"/><circle cx="57.3" cy="-12.6" r=".6" class="st1"/><circle cx="60.8" cy="-12.6" r=".6" class="st1"/><circle cx="64.4" cy="-12.6" r=".6" class="st1"/><circle cx="68" cy="-12.6" r=".6" class="st1"/><circle cx="71.5" cy="-12.6" r=".6" class="st1"/><circle cx="57.3" cy="-9" r=".6" class="st1"/><circle cx="60.8" cy="-9" r=".6" class="st1"/><circle cx="64.4" cy="-9" r=".6" class="st1"/><circle cx="68" cy="-9" r=".6" class="st1"/><circle cx="71.5" cy="-9" r=".6" class="st1"/><circle cx="57.3" cy="-5.4" r=".6" class="st1"/><circle cx="60.8" cy="-5.4" r=".6" class="st1"/><circle cx="64.4" cy="-5.4" r=".6" class="st1"/><circle cx="68" cy="-5.4" r=".6" class="st1"/><circle cx="71.5" cy="-5.4" r=".6" class="st1"/><circle cx="57.3" cy="-1.8" r=".6" class="st1"/><circle cx="60.8" cy="-1.8" r=".6" class="st1"/><circle cx="64.4" cy="-1.8" r=".6" class="st1"/><circle cx="68" cy="-1.8" r=".6" class="st1"/><circle cx="71.5" cy="-1.8" r=".6" class="st1"/><circle cx="75.1" cy="-19.7" r=".6" class="st1"/><circle cx="78.7" cy="-19.7" r=".6" class="st1"/><circle cx="82.3" cy="-19.7" r=".6" class="st1"/><circle cx="85.8" cy="-19.7" r=".6" class="st1"/><circle cx="75.1" cy="-16.1" r=".6" class="st1"/><circle cx="78.7" cy="-16.1" r=".6" class="st1"/><circle cx="82.3" cy="-16.1" r=".6" class="st1"/><circle cx="85.8" cy="-16.1" r=".6" class="st1"/><circle cx="75.1" cy="-12.6" r=".6" class="st1"/><circle cx="78.7" cy="-12.6" r=".6" class="st1"/><circle cx="82.3" cy="-12.6" r=".6" class="st1"/><circle cx="85.8" cy="-12.6" r=".6" class="st1"/><circle cx="75.1" cy="-9" r=".6" class="st1"/><circle cx="78.7" cy="-9" r=".6" class="st1"/><circle cx="82.3" cy="-9" r=".6" class="st1"/><circle cx="85.8" cy="-9" r=".6" class="st1"/><circle cx="75.1" cy="-5.4" r=".6" class="st1"/><circle cx="78.7" cy="-5.4" r=".6" class="st1"/><circle cx="82.3" cy="-5.4" r=".6" class="st1"/><circle cx="85.8" cy="-5.4" r=".6" class="st1"/><circle cx="75.1" cy="-1.8" r=".6" class="st1"/><circle cx="78.7" cy="-1.8" r=".6" class="st1"/><circle cx="82.3" cy="-1.8" r=".6" class="st1"/><circle cx="85.8" cy="-1.8" r=".6" class="st1"/><circle cx="42.9" cy="-41.2" r=".6" class="st1"/><circle cx="42.9" cy="-37.6" r=".6" class="st1"/><circle cx="42.9" cy="-34" r=".6" class="st1"/><circle cx="42.9" cy="-30.4" r=".6" class="st1"/><circle cx="42.9" cy="-26.9" r=".6" class="st1"/><circle cx="42.9" cy="-23.3" r=".6" class="st1"/><circle cx="42.9" cy="-19.7" r=".6" class="st1"/><circle cx="42.9" cy="-16.1" r=".6" class="st1"/><circle cx="42.9" cy="-12.6" r=".6" class="st1"/><circle cx="42.9" cy="-9" r=".6" class="st1"/><circle cx="42.9" cy="-5.4" r=".6" class="st1"/><circle cx="42.9" cy="-1.8" r=".6" class="st1"/><g><defs><path id="SVGID_3_" d="M42.9-43h43V0h-43z"/></defs><clipPath id="SVGID_4_"><use overflow="visible" xlink:href="#SVGID_3_"/></clipPath><circle cx="42.9" cy="-41.2" r=".6" class="st3"/><circle cx="42.9" cy="-37.6" r=".6" class="st3"/><circle cx="42.9" cy="-34" r=".6" class="st3"/><circle cx="42.9" cy="-30.4" r=".6" class="st3"/><circle cx="42.9" cy="-26.9" r=".6" class="st3"/><circle cx="42.9" cy="-23.3" r=".6" class="st3"/><circle cx="42.9" cy="-19.7" r=".6" class="st3"/><circle cx="42.9" cy="-16.1" r=".6" class="st3"/><circle cx="42.9" cy="-12.6" r=".6" class="st3"/><circle cx="42.9" cy="-9" r=".6" class="st3"/><circle cx="42.9" cy="-5.4" r=".6" class="st3"/><circle cx="42.9" cy="-1.8" r=".6" class="st3"/><circle cx="42.8" cy="-41.2" r=".6" class="st3"/><circle cx="42.8" cy="-37.6" r=".6" class="st3"/><circle cx="42.8" cy="-34" r=".6" class="st3"/><circle cx="42.8" cy="-30.4" r=".6" class="st3"/><circle cx="42.8" cy="-26.9" r=".6" class="st3"/><circle cx="42.8" cy="-23.3" r=".6" class="st3"/><circle cx="42.8" cy="-19.7" r=".6" class="st3"/><circle cx="42.8" cy="-16.1" r=".6" class="st3"/><circle cx="42.8" cy="-12.6" r=".6" class="st3"/><circle cx="42.8" cy="-9" r=".6" class="st3"/><circle cx="42.8" cy="-5.4" r=".6" class="st3"/><circle cx="42.8" cy="-1.8" r=".6" class="st3"/></g></g><g><circle cx="43" cy="-41.2" r=".6" class="st1"/><circle cx="43" cy="-37.6" r=".6" class="st1"/><circle cx="43" cy="-34" r=".6" class="st1"/><circle cx="43" cy="-30.4" r=".6" class="st1"/><circle cx="43" cy="-26.9" r=".6" class="st1"/><circle cx="43" cy="-23.3" r=".6" class="st1"/><circle cx="43" cy="-19.7" r=".6" class="st1"/><circle cx="43" cy="-16.1" r=".6" class="st1"/><circle cx="43" cy="-12.6" r=".6" class="st1"/><circle cx="43" cy="-9" r=".6" class="st1"/><circle cx="43" cy="-5.4" r=".6" class="st1"/><circle cx="43" cy="-1.8" r=".6" class="st1"/><circle cx="42.9" cy="-41.2" r=".6" class="st1"/><circle cx="42.9" cy="-37.6" r=".6" class="st1"/><circle cx="42.9" cy="-34" r=".6" class="st1"/><circle cx="42.9" cy="-30.4" r=".6" class="st1"/><circle cx="42.9" cy="-26.9" r=".6" class="st1"/><circle cx="42.9" cy="-23.3" r=".6" class="st1"/><circle cx="42.9" cy="-19.7" r=".6" class="st1"/><circle cx="42.9" cy="-16.1" r=".6" class="st1"/><circle cx="42.9" cy="-12.6" r=".6" class="st1"/><circle cx="42.9" cy="-9" r=".6" class="st1"/><circle cx="42.9" cy="-5.4" r=".6" class="st1"/><circle cx="42.9" cy="-1.8" r=".6" class="st1"/><g><defs><path id="SVGID_5_" d="M0-43h43V0H0z"/></defs><clipPath id="SVGID_6_"><use overflow="visible" xlink:href="#SVGID_5_"/></clipPath></g></g></pattern><path d="M251.3 57.6l-123-.5C107.8 57 87.4 57 67 57s-40.8.1-61.2.3c-.4 0-.7-.3-.7-.7V9.5c0-.5 0-1 .2-1.5.5-2 2.1-3.7 4.1-4.3.5-.1 1-.2 1.5-.2h31l86.2-.1 86.2-.4h30.9c.5 0 1.1.1 1.7.2 2.2.6 4 2.4 4.5 4.6.1.5.2 1.2.2 1.6v4.1c.1 14.7-.1 29.5-.3 44.1zm-2-2.1c-.2-14.1-.3-28.1-.3-42.1V9.5c0-.4 0-.7-.1-1-.3-1.3-1.3-2.4-2.6-2.7-.3-.1-.6-.1-1-.1h-9.4l-21.6-.1-86.2-.2-86.2-.3h-31c-.4 0-.8 0-1.1.1-1.5.4-2.7 1.6-3 3.1-.1.3-.2.7-.2 1.1v4l-.1 43.2-.7-.7c20.3.2 40.7.2 61 .3 20.3 0 40.7 0 61-.1l121.5-.6z" class="st1"/><path d="M19 70.2h98.3v20.2H19z" class="st4"/><path d="M117.3 90.5l-98.3.6c-.4 0-.7-.3-.7-.7l-.1-20.2c0-.4.3-.8.8-.8 8.2-.1 16.4-.2 24.6-.2 8.2-.1 16.4 0 24.6 0 8.2 0 16.4.1 24.6.2l24.6.3c.3 0 .5.2.5.5 0 3.4-.1 6.9-.2 10.2l-.4 10.1zm-.1-.2l-.3-10.2c-.1-3.4-.2-6.7-.2-10l.5.5c-8.2.3-16.3.4-24.5.4-8.2.1-16.4.2-24.6.2-8.2 0-16.4.1-24.6 0-8.2 0-16.4-.1-24.6-.2l.8-.8-.1 20.2-.6-.7 98.2.6z" class="st1"/><path d="M19 104h218.5v131.5H19z" class="st5"/><path d="M161.9 70.6h75.6v20.2h-75.6z" class="st4"/><path d="M237.5 90.9l-75.7.6c-.4 0-.7-.3-.7-.7l-.1-20.2c0-.4.3-.8.8-.8 6.3-.1 12.6-.2 18.9-.2 6.3-.1 12.6 0 18.9 0h9.5l9.5.1c6.3.1 12.6.1 18.9.3.3 0 .6.3.6.6-.1 3.4-.1 6.9-.2 10.3l-.4 10zm-.1-.1l-.3-10.2c-.1-3.4-.2-6.7-.2-10l.6.6-18.9.3-9.5.1h-28.4c-6.3 0-12.6-.1-18.9-.2l.8-.8-.1 20.2-.7-.7 75.6.7z" class="st1"/><path d="M245.4 251.9l-108.1.1-108.1.3H10.6c-.6 0-1.2-.2-1.8-.4-1.1-.5-2.1-1.4-2.7-2.5-.3-.5-.5-1.2-.6-1.8-.1-.6-.1-1.2-.1-1.8v-27l-.1-54.1-.1-108.1c0-.4.4-.8.8-.8l122.2-.2h61.1c20.4 0 40.7 0 61.1.1.5 0 .9.4.9.9l-.4 99-.2 49.5-.1 24.8v15.5c0 1 .1 2.1-.3 3.1-.7 2-2.7 3.4-4.9 3.4zm0-.2c2 0 4-1.4 4.6-3.3.4-1 .2-2 .3-3v-15.5l-.1-24.8-.2-49.5-.4-99 .9.9c-20.4.1-40.7.1-61.1.1h-61.1L6 57.3l.8-.8-.2 108.2-.1 54.1v28.6c.1.5.2 1 .5 1.4.5.9 1.2 1.6 2.2 2 .5.2 1 .3 1.5.4h18.5l108.1.3 108.1.2z" class="st1"/><circle cx="128" cy="30.4" r="10.8" class="st4"/><path d="M138.9 30.4c0 2.8-1.1 5.7-3.1 7.8-1.9 2.1-4.8 3.4-7.8 3.5-3 .1-5.9-1.1-8.1-3.2-2.2-2.1-3.5-5-3.5-8.1-.1-3 1.1-6.1 3.3-8.3 1.1-1.1 2.4-2 3.8-2.6 1.4-.6 3-.9 4.5-.9s3.1.4 4.4 1.1c1.4.7 2.6 1.6 3.6 2.7 2 2.2 2.9 5.2 2.9 8zm-.2 0c0-1.4-.3-2.8-.9-4-.6-1.2-1.5-2.3-2.5-3.2-2.1-1.8-4.7-2.6-7.2-2.5-2.6 0-5.1 1.1-6.9 2.9-1.9 1.8-3 4.3-3.1 6.9-.1 2.6 1 5.2 2.8 7.2 1.8 1.9 4.5 3.1 7.2 3.1 2.7.1 5.4-.9 7.5-2.8 1-1 1.8-2.1 2.4-3.4.4-1.4.7-2.8.7-4.2z" class="st1"/><circle cx="29.7" cy="30.4" r="10.8" class="st4"/><path d="M40.6 30.4c0 2.8-1.1 5.7-3.1 7.8-1.9 2.1-4.8 3.4-7.8 3.5-3 .1-5.9-1.1-8.1-3.2-2.2-2.1-3.5-5-3.5-8.1-.1-3 1.1-6.1 3.3-8.3 1.1-1.1 2.4-2 3.8-2.6 1.4-.6 3-.9 4.5-.9s3.1.4 4.4 1.1c1.4.7 2.6 1.6 3.6 2.7 2 2.2 2.9 5.2 2.9 8zm-.2 0c0-1.4-.3-2.8-.9-4-.6-1.3-1.5-2.4-2.5-3.2-2.1-1.8-4.7-2.6-7.2-2.5-2.6 0-5.1 1.1-6.9 2.9-1.9 1.8-3 4.3-3.1 6.9-.1 2.6 1 5.2 2.8 7.2 1.8 1.9 4.5 3.1 7.2 3.1 2.7.1 5.4-.9 7.5-2.8 1-1 1.8-2.1 2.4-3.4.4-1.4.7-2.8.7-4.2z" class="st1"/><circle cx="226.3" cy="30.4" r="10.8" class="st4"/><path d="M237.1 30.4c0 2.8-1.1 5.7-3.1 7.8-1.9 2.1-4.8 3.4-7.8 3.5-3 .1-5.9-1.1-8.1-3.2-2.2-2.1-3.5-5-3.5-8.1-.1-3 1.1-6.1 3.3-8.3 1.1-1.1 2.4-2 3.8-2.6 1.4-.6 3-.9 4.5-.9s3.1.4 4.4 1.1c1.4.7 2.6 1.6 3.6 2.7 2 2.2 3 5.2 2.9 8zm-.2 0c0-1.4-.3-2.8-.9-4-.6-1.2-1.5-2.3-2.5-3.2-2.1-1.8-4.7-2.6-7.2-2.5-2.6 0-5.1 1.1-6.9 2.9-1.9 1.8-3 4.3-3.1 6.9-.1 2.6 1 5.2 2.8 7.2 1.8 1.9 4.5 3.1 7.2 3.1 2.7.1 5.4-.9 7.5-2.8 1-1 1.8-2.1 2.4-3.4.5-1.4.8-2.8.7-4.2z" class="st1"/><circle cx="177.1" cy="30.4" r="10.8" class="st4"/><path d="M188 30.4c0 2.8-1.1 5.7-3.1 7.8-1.9 2.1-4.8 3.4-7.8 3.5-3 .1-5.9-1.1-8.1-3.2-2.2-2.1-3.5-5-3.5-8.1-.1-3 1.1-6.1 3.3-8.3 1.1-1.1 2.4-2 3.8-2.6 1.4-.6 3-.9 4.5-.9s3.1.4 4.4 1.1c1.4.7 2.6 1.6 3.6 2.7 2 2.2 2.9 5.2 2.9 8zm-.2 0c0-1.4-.3-2.8-.9-4-.6-1.2-1.5-2.3-2.5-3.2-2.1-1.8-4.7-2.6-7.2-2.5-2.6 0-5.1 1.1-6.9 2.9-1.9 1.8-3 4.3-3.1 6.9-.1 2.6 1 5.2 2.8 7.2 1.8 1.9 4.5 3.1 7.2 3.1 2.7.1 5.4-.9 7.5-2.8 1-1 1.8-2.1 2.4-3.4.4-1.4.7-2.8.7-4.2z" class="st1"/><circle cx="78.9" cy="30.4" r="10.8" class="st4"/><path d="M89.7 30.4c0 2.8-1.1 5.7-3.1 7.8-1.9 2.1-4.8 3.4-7.8 3.5-3 .1-5.9-1.1-8.1-3.2-2.2-2.1-3.5-5-3.5-8.1-.1-3 1.1-6.1 3.3-8.3 1.1-1.1 2.4-2 3.8-2.6 1.4-.6 3-.9 4.5-.9s3.1.4 4.4 1.1c1.4.7 2.6 1.6 3.6 2.7 2 2.2 3 5.2 2.9 8zm-.2 0c0-1.4-.3-2.8-.9-4-.6-1.2-1.5-2.3-2.5-3.2-2.1-1.8-4.7-2.6-7.2-2.5-2.6 0-5.1 1.1-6.9 2.9-1.9 1.8-3 4.3-3.1 6.9-.1 2.6 1 5.2 2.8 7.2 1.8 1.9 4.5 3.1 7.2 3.1 2.7.1 5.4-.9 7.5-2.8 1-1 1.8-2.1 2.4-3.4.5-1.4.7-2.8.7-4.2z" class="st1"/><path d="M131.6 104v131.5M187.9 104v131.5M75.3 104v131.5M19 169.8h218.5M19 202.7h218.5" class="st5"/><path d="M19 136.9l109.3-.7c18.2-.1 36.4-.3 54.6-.2 18.2.2 36.4.3 54.6.9.1 0 .1 0 .1.1s0 .1-.1.1c-18.2.6-36.4.7-54.6.9-18.2.1-36.4-.1-54.6-.2L19 137.1c-.1 0-.1 0 0-.2-.1.1-.1 0 0 0zM35.3 115.5c0 1.3-.5 2.6-1.4 3.6-.8 1-2.2 1.7-3.6 1.8-1.4.1-2.8-.5-3.9-1.5s-1.7-2.4-1.8-3.9c-.1-1.5.5-3 1.5-4.1 1-1.1 2.6-1.8 4.1-1.7 1.5 0 3 .9 3.8 2 1 1.1 1.4 2.5 1.3 3.8zm-.2 0c0-1.3-.7-2.4-1.7-3-1-.7-2-.8-3-.8-1 .1-2 .4-2.7 1.1-.8.7-1.3 1.7-1.3 2.7-.1 1.1.3 2.1 1.1 3 .7.8 1.8 1.3 3 1.4 1.1.1 2.3-.3 3.3-1.1.8-.8 1.4-2.1 1.3-3.3zM91.6 115.5c0 1.3-.5 2.6-1.4 3.6-.8 1-2.2 1.7-3.6 1.8-1.4.1-2.8-.5-3.9-1.5s-1.7-2.4-1.8-3.9c-.1-1.5.5-3 1.5-4.1 1-1.1 2.6-1.8 4.1-1.7 1.5 0 3 .9 3.8 2 1 1.1 1.4 2.5 1.3 3.8zm-.2 0c0-1.3-.7-2.4-1.7-3-1-.7-2-.8-3-.8-1 .1-2 .4-2.7 1.1-.8.7-1.3 1.7-1.3 2.7-.1 1.1.3 2.1 1.1 3 .7.8 1.8 1.3 3 1.4 1.1.1 2.3-.3 3.3-1.1.8-.8 1.4-2.1 1.3-3.3zM148 115.5c0 1.3-.5 2.6-1.4 3.6-.8 1-2.2 1.7-3.6 1.8-1.4.1-2.8-.5-3.9-1.5s-1.7-2.4-1.8-3.9c-.1-1.5.5-3 1.5-4.1 1-1.1 2.6-1.8 4.1-1.7 1.5 0 3 .9 3.8 2 1 1.1 1.3 2.5 1.3 3.8zm-.2 0c0-1.3-.7-2.4-1.7-3-1-.7-2-.8-3-.8-1 .1-2 .4-2.7 1.1-.8.7-1.3 1.7-1.3 2.7-.1 1.1.3 2.1 1.1 3 .7.8 1.8 1.3 3 1.4 1.1.1 2.3-.3 3.3-1.1.7-.8 1.3-2.1 1.3-3.3zM204.3 115.5c0 1.3-.5 2.6-1.4 3.6-.8 1-2.2 1.7-3.6 1.8-1.4.1-2.8-.5-3.9-1.5s-1.7-2.4-1.8-3.9c-.1-1.5.5-3 1.5-4.1 1-1.1 2.6-1.8 4.1-1.7 1.5 0 3 .9 3.8 2 1 1.1 1.3 2.5 1.3 3.8zm-.2 0c0-1.3-.7-2.4-1.7-3-1-.7-2-.8-3-.8-1 .1-2 .4-2.7 1.1-.8.7-1.3 1.7-1.3 2.7-.1 1.1.3 2.1 1.1 3 .7.8 1.8 1.3 3 1.4 1.1.1 2.3-.3 3.3-1.1.8-.8 1.3-2.1 1.3-3.3zM35.3 148.4c0 1.3-.5 2.6-1.4 3.6-.8 1-2.2 1.7-3.6 1.8-1.4.1-2.8-.5-3.9-1.5s-1.7-2.4-1.8-3.9c-.1-1.5.5-3 1.5-4.1 1-1.1 2.6-1.8 4.1-1.7 1.5 0 3 .9 3.8 2 1 1.2 1.4 2.6 1.3 3.8zm-.2 0c0-1.3-.7-2.4-1.7-3-1-.7-2-.8-3-.8-1 .1-2 .4-2.7 1.1-.8.7-1.3 1.7-1.3 2.7-.1 1.1.3 2.1 1.1 3 .7.8 1.8 1.3 3 1.4 1.1.1 2.3-.3 3.3-1.1.8-.8 1.4-2 1.3-3.3zM91.6 148.4c0 1.3-.5 2.6-1.4 3.6-.8 1-2.2 1.7-3.6 1.8-1.4.1-2.8-.5-3.9-1.5s-1.7-2.4-1.8-3.9c-.1-1.5.5-3 1.5-4.1 1-1.1 2.6-1.8 4.1-1.7 1.5 0 3 .9 3.8 2 1 1.2 1.4 2.6 1.3 3.8zm-.2 0c0-1.3-.7-2.4-1.7-3-1-.7-2-.8-3-.8-1 .1-2 .4-2.7 1.1-.8.7-1.3 1.7-1.3 2.7-.1 1.1.3 2.1 1.1 3 .7.8 1.8 1.3 3 1.4 1.1.1 2.3-.3 3.3-1.1.8-.8 1.4-2 1.3-3.3zM148 148.4c0 1.3-.5 2.6-1.4 3.6-.8 1-2.2 1.7-3.6 1.8-1.4.1-2.8-.5-3.9-1.5s-1.7-2.4-1.8-3.9c-.1-1.5.5-3 1.5-4.1 1-1.1 2.6-1.8 4.1-1.7 1.5 0 3 .9 3.8 2 1 1.2 1.3 2.6 1.3 3.8zm-.2 0c0-1.3-.7-2.4-1.7-3-1-.7-2-.8-3-.8-1 .1-2 .4-2.7 1.1-.8.7-1.3 1.7-1.3 2.7-.1 1.1.3 2.1 1.1 3 .7.8 1.8 1.3 3 1.4 1.1.1 2.3-.3 3.3-1.1.7-.8 1.3-2 1.3-3.3zM204.3 148.4c0 1.3-.5 2.6-1.4 3.6-.8 1-2.2 1.7-3.6 1.8-1.4.1-2.8-.5-3.9-1.5s-1.7-2.4-1.8-3.9c-.1-1.5.5-3 1.5-4.1 1-1.1 2.6-1.8 4.1-1.7 1.5 0 3 .9 3.8 2 1 1.2 1.3 2.6 1.3 3.8zm-.2 0c0-1.3-.7-2.4-1.7-3-1-.7-2-.8-3-.8-1 .1-2 .4-2.7 1.1-.8.7-1.3 1.7-1.3 2.7-.1 1.1.3 2.1 1.1 3 .7.8 1.8 1.3 3 1.4 1.1.1 2.3-.3 3.3-1.1.8-.8 1.3-2 1.3-3.3zM35.3 181.2c0 1.3-.5 2.6-1.4 3.6-.8 1-2.2 1.7-3.6 1.8-1.4.1-2.8-.5-3.9-1.5s-1.7-2.4-1.8-3.9c-.1-1.5.5-3 1.5-4.1 1-1.1 2.6-1.8 4.1-1.7 1.5 0 3 .9 3.8 2 1 1.2 1.4 2.5 1.3 3.8zm-.2 0c0-1.3-.7-2.4-1.7-3-1-.7-2-.8-3-.8-1 .1-2 .4-2.7 1.1-.8.7-1.3 1.7-1.3 2.7-.1 1.1.3 2.1 1.1 3 .7.8 1.8 1.3 3 1.4 1.1.1 2.3-.3 3.3-1.1.8-.8 1.4-2.1 1.3-3.3z" class="st1"/><g><path d="M91.6 181.2c0 1.3-.5 2.6-1.4 3.6-.8 1-2.2 1.7-3.6 1.8-1.4.1-2.8-.5-3.9-1.5s-1.7-2.4-1.8-3.9c-.1-1.5.5-3 1.5-4.1 1-1.1 2.6-1.8 4.1-1.7 1.5 0 3 .9 3.8 2 1 1.2 1.4 2.5 1.3 3.8zm-.2 0c0-1.3-.7-2.4-1.7-3-1-.7-2-.8-3-.8-1 .1-2 .4-2.7 1.1-.8.7-1.3 1.7-1.3 2.7-.1 1.1.3 2.1 1.1 3 .7.8 1.8 1.3 3 1.4 1.1.1 2.3-.3 3.3-1.1.8-.8 1.4-2.1 1.3-3.3z" class="st1"/></g><g><path d="M148 181.2c0 1.3-.5 2.6-1.4 3.6-.8 1-2.2 1.7-3.6 1.8-1.4.1-2.8-.5-3.9-1.5s-1.7-2.4-1.8-3.9c-.1-1.5.5-3 1.5-4.1 1-1.1 2.6-1.8 4.1-1.7 1.5 0 3 .9 3.8 2 1 1.2 1.3 2.5 1.3 3.8zm-.2 0c0-1.3-.7-2.4-1.7-3-1-.7-2-.8-3-.8-1 .1-2 .4-2.7 1.1-.8.7-1.3 1.7-1.3 2.7-.1 1.1.3 2.1 1.1 3 .7.8 1.8 1.3 3 1.4 1.1.1 2.3-.3 3.3-1.1.7-.8 1.3-2.1 1.3-3.3z" class="st1"/></g><g><path d="M204.3 181.2c0 1.3-.5 2.6-1.4 3.6-.8 1-2.2 1.7-3.6 1.8-1.4.1-2.8-.5-3.9-1.5s-1.7-2.4-1.8-3.9c-.1-1.5.5-3 1.5-4.1 1-1.1 2.6-1.8 4.1-1.7 1.5 0 3 .9 3.8 2 1 1.2 1.3 2.5 1.3 3.8zm-.2 0c0-1.3-.7-2.4-1.7-3-1-.7-2-.8-3-.8-1 .1-2 .4-2.7 1.1-.8.7-1.3 1.7-1.3 2.7-.1 1.1.3 2.1 1.1 3 .7.8 1.8 1.3 3 1.4 1.1.1 2.3-.3 3.3-1.1.8-.8 1.3-2.1 1.3-3.3z" class="st1"/></g><g><path d="M35.3 214c0 1.3-.5 2.6-1.4 3.6-.8 1-2.2 1.7-3.6 1.8-1.4.1-2.8-.5-3.9-1.5s-1.7-2.4-1.8-3.9c-.1-1.5.5-3 1.5-4.1 1-1.1 2.6-1.8 4.1-1.7 1.5 0 3 .9 3.8 2 1 1.1 1.4 2.5 1.3 3.8zm-.2 0c0-1.3-.7-2.4-1.7-3-1-.7-2-.8-3-.8-1 .1-2 .4-2.7 1.1-.8.7-1.3 1.7-1.3 2.7-.1 1.1.3 2.1 1.1 3 .7.8 1.8 1.3 3 1.4 1.1.1 2.3-.3 3.3-1.1.8-.8 1.4-2.1 1.3-3.3z" class="st1"/></g><g><path d="M91.6 214c0 1.3-.5 2.6-1.4 3.6-.8 1-2.2 1.7-3.6 1.8-1.4.1-2.8-.5-3.9-1.5s-1.7-2.4-1.8-3.9c-.1-1.5.5-3 1.5-4.1 1-1.1 2.6-1.8 4.1-1.7 1.5 0 3 .9 3.8 2 1 1.1 1.4 2.5 1.3 3.8zm-.2 0c0-1.3-.7-2.4-1.7-3-1-.7-2-.8-3-.8-1 .1-2 .4-2.7 1.1-.8.7-1.3 1.7-1.3 2.7-.1 1.1.3 2.1 1.1 3 .7.8 1.8 1.3 3 1.4 1.1.1 2.3-.3 3.3-1.1.8-.8 1.4-2.1 1.3-3.3z" class="st1"/></g><g><path d="M148 214c0 1.3-.5 2.6-1.4 3.6-.8 1-2.2 1.7-3.6 1.8-1.4.1-2.8-.5-3.9-1.5s-1.7-2.4-1.8-3.9c-.1-1.5.5-3 1.5-4.1 1-1.1 2.6-1.8 4.1-1.7 1.5 0 3 .9 3.8 2 1 1.1 1.3 2.5 1.3 3.8zm-.2 0c0-1.3-.7-2.4-1.7-3-1-.7-2-.8-3-.8-1 .1-2 .4-2.7 1.1-.8.7-1.3 1.7-1.3 2.7-.1 1.1.3 2.1 1.1 3 .7.8 1.8 1.3 3 1.4 1.1.1 2.3-.3 3.3-1.1.7-.8 1.3-2.1 1.3-3.3z" class="st1"/></g><g><path d="M204.3 214c0 1.3-.5 2.6-1.4 3.6-.8 1-2.2 1.7-3.6 1.8-1.4.1-2.8-.5-3.9-1.5s-1.7-2.4-1.8-3.9c-.1-1.5.5-3 1.5-4.1 1-1.1 2.6-1.8 4.1-1.7 1.5 0 3 .9 3.8 2 1 1.1 1.3 2.5 1.3 3.8zm-.2 0c0-1.3-.7-2.4-1.7-3-1-.7-2-.8-3-.8-1 .1-2 .4-2.7 1.1-.8.7-1.3 1.7-1.3 2.7-.1 1.1.3 2.1 1.1 3 .7.8 1.8 1.3 3 1.4 1.1.1 2.3-.3 3.3-1.1.8-.8 1.3-2.1 1.3-3.3z" class="st1"/></g></svg>