<?xml version="1.0" encoding="utf-8"?>
<!-- Generator: Adobe Illustrator 22.1.0, SVG Export Plug-In . SVG Version: 6.00 Build 0)  -->
<svg version="1.1" id="Layer_1" xmlns="http://www.w3.org/2000/svg" xmlns:xlink="http://www.w3.org/1999/xlink" x="0px" y="0px"
	 viewBox="0 0 256 256" style="enable-background:new 0 0 256 256;" xml:space="preserve">
<style type="text/css">
	.st0{fill:none;}
	.st1{fill:#253759;}
	.st2{clip-path:url(#SVGID_2_);fill:#253759;}
	.st3{clip-path:url(#SVGID_4_);fill:#253759;}
	.st4{fill:url(#New_Pattern_Swatch_1);}
</style>
<pattern  x="-1104" y="-276" width="42.9" height="43" patternUnits="userSpaceOnUse" id="New_Pattern_Swatch_1" viewBox="43 -43 42.9 43" style="overflow:visible;">
	<g>
		<rect x="43" y="-43" class="st0" width="42.9" height="43"/>
		<g>
			<g>
				<circle class="st1" cx="85.9" cy="-41.2" r="0.6"/>
				<circle class="st1" cx="85.9" cy="-37.6" r="0.6"/>
				<circle class="st1" cx="85.9" cy="-34" r="0.6"/>
				<circle class="st1" cx="85.9" cy="-30.4" r="0.6"/>
				<circle class="st1" cx="85.9" cy="-26.9" r="0.6"/>
				<circle class="st1" cx="85.9" cy="-23.3" r="0.6"/>
				<circle class="st1" cx="85.9" cy="-19.7" r="0.6"/>
				<circle class="st1" cx="85.9" cy="-16.1" r="0.6"/>
				<circle class="st1" cx="85.9" cy="-12.6" r="0.6"/>
				<circle class="st1" cx="85.9" cy="-9" r="0.6"/>
				<circle class="st1" cx="85.9" cy="-5.4" r="0.6"/>
				<circle class="st1" cx="85.9" cy="-1.8" r="0.6"/>
				<circle class="st1" cx="85.8" cy="-41.2" r="0.6"/>
				<circle class="st1" cx="85.8" cy="-37.6" r="0.6"/>
				<circle class="st1" cx="85.8" cy="-34" r="0.6"/>
				<circle class="st1" cx="85.8" cy="-30.4" r="0.6"/>
				<circle class="st1" cx="85.8" cy="-26.9" r="0.6"/>
				<circle class="st1" cx="85.8" cy="-23.3" r="0.6"/>
				<circle class="st1" cx="85.8" cy="-19.7" r="0.6"/>
				<circle class="st1" cx="85.8" cy="-16.1" r="0.6"/>
				<circle class="st1" cx="85.8" cy="-12.6" r="0.6"/>
				<circle class="st1" cx="85.8" cy="-9" r="0.6"/>
				<circle class="st1" cx="85.8" cy="-5.4" r="0.6"/>
				<circle class="st1" cx="85.8" cy="-1.8" r="0.6"/>
			</g>
			<g>
				<defs>
					<rect id="SVGID_1_" x="85.8" y="-43" width="43" height="43"/>
				</defs>
				<clipPath id="SVGID_2_">
					<use xlink:href="#SVGID_1_"  style="overflow:visible;"/>
				</clipPath>
				<circle class="st2" cx="85.8" cy="-41.2" r="0.6"/>
				<circle class="st2" cx="85.8" cy="-37.6" r="0.6"/>
				<circle class="st2" cx="85.8" cy="-34" r="0.6"/>
				<circle class="st2" cx="85.8" cy="-30.4" r="0.6"/>
				<circle class="st2" cx="85.8" cy="-26.9" r="0.6"/>
				<circle class="st2" cx="85.8" cy="-23.3" r="0.6"/>
				<circle class="st2" cx="85.8" cy="-19.7" r="0.6"/>
				<circle class="st2" cx="85.8" cy="-16.1" r="0.6"/>
				<circle class="st2" cx="85.8" cy="-12.6" r="0.6"/>
				<circle class="st2" cx="85.8" cy="-9" r="0.6"/>
				<circle class="st2" cx="85.8" cy="-5.4" r="0.6"/>
				<circle class="st2" cx="85.8" cy="-1.8" r="0.6"/>
				<circle class="st2" cx="85.7" cy="-41.2" r="0.6"/>
				<circle class="st2" cx="85.7" cy="-37.6" r="0.6"/>
				<circle class="st2" cx="85.7" cy="-34" r="0.6"/>
				<circle class="st2" cx="85.7" cy="-30.4" r="0.6"/>
				<circle class="st2" cx="85.7" cy="-26.9" r="0.6"/>
				<circle class="st2" cx="85.7" cy="-23.3" r="0.6"/>
				<circle class="st2" cx="85.7" cy="-19.7" r="0.6"/>
				<circle class="st2" cx="85.7" cy="-16.1" r="0.6"/>
				<circle class="st2" cx="85.7" cy="-12.6" r="0.6"/>
				<circle class="st2" cx="85.7" cy="-9" r="0.6"/>
				<circle class="st2" cx="85.7" cy="-5.4" r="0.6"/>
				<circle class="st2" cx="85.7" cy="-1.8" r="0.6"/>
			</g>
		</g>
		<g>
			<g>
				<circle class="st1" cx="85.9" cy="-41.2" r="0.6"/>
				<circle class="st1" cx="85.9" cy="-37.6" r="0.6"/>
				<circle class="st1" cx="85.9" cy="-34" r="0.6"/>
				<circle class="st1" cx="85.9" cy="-30.4" r="0.6"/>
				<circle class="st1" cx="85.9" cy="-26.9" r="0.6"/>
				<circle class="st1" cx="85.9" cy="-23.3" r="0.6"/>
				<circle class="st1" cx="85.9" cy="-19.7" r="0.6"/>
				<circle class="st1" cx="85.9" cy="-16.1" r="0.6"/>
				<circle class="st1" cx="85.9" cy="-12.6" r="0.6"/>
				<circle class="st1" cx="85.9" cy="-9" r="0.6"/>
				<circle class="st1" cx="85.9" cy="-5.4" r="0.6"/>
				<circle class="st1" cx="85.9" cy="-1.8" r="0.6"/>
				<circle class="st1" cx="43" cy="-41.2" r="0.6"/>
				<circle class="st1" cx="46.5" cy="-41.2" r="0.6"/>
				<circle class="st1" cx="50.1" cy="-41.2" r="0.6"/>
				<circle class="st1" cx="53.7" cy="-41.2" r="0.6"/>
				<circle class="st1" cx="43" cy="-37.6" r="0.6"/>
				<circle class="st1" cx="46.5" cy="-37.6" r="0.6"/>
				<circle class="st1" cx="50.1" cy="-37.6" r="0.6"/>
				<circle class="st1" cx="53.7" cy="-37.6" r="0.6"/>
				<circle class="st1" cx="43" cy="-34" r="0.6"/>
				<circle class="st1" cx="46.5" cy="-34" r="0.6"/>
				<circle class="st1" cx="50.1" cy="-34" r="0.6"/>
				<circle class="st1" cx="53.7" cy="-34" r="0.6"/>
				<circle class="st1" cx="43" cy="-30.4" r="0.6"/>
				<circle class="st1" cx="46.5" cy="-30.4" r="0.6"/>
				<circle class="st1" cx="50.1" cy="-30.4" r="0.6"/>
				<circle class="st1" cx="53.7" cy="-30.4" r="0.6"/>
				<circle class="st1" cx="43" cy="-26.9" r="0.6"/>
				<circle class="st1" cx="46.5" cy="-26.9" r="0.6"/>
				<circle class="st1" cx="50.1" cy="-26.9" r="0.6"/>
				<circle class="st1" cx="53.7" cy="-26.9" r="0.6"/>
				<circle class="st1" cx="43" cy="-23.3" r="0.6"/>
				<circle class="st1" cx="46.5" cy="-23.3" r="0.6"/>
				<circle class="st1" cx="50.1" cy="-23.3" r="0.6"/>
				<circle class="st1" cx="53.7" cy="-23.3" r="0.6"/>
				<circle class="st1" cx="57.3" cy="-41.2" r="0.6"/>
				<circle class="st1" cx="60.8" cy="-41.2" r="0.6"/>
				<circle class="st1" cx="64.4" cy="-41.2" r="0.6"/>
				<circle class="st1" cx="68" cy="-41.2" r="0.6"/>
				<circle class="st1" cx="71.5" cy="-41.2" r="0.6"/>
				<circle class="st1" cx="57.3" cy="-37.6" r="0.6"/>
				<circle class="st1" cx="60.8" cy="-37.6" r="0.6"/>
				<circle class="st1" cx="64.4" cy="-37.6" r="0.6"/>
				<circle class="st1" cx="68" cy="-37.6" r="0.6"/>
				<circle class="st1" cx="71.5" cy="-37.6" r="0.6"/>
				<circle class="st1" cx="57.3" cy="-34" r="0.6"/>
				<circle class="st1" cx="60.8" cy="-34" r="0.6"/>
				<circle class="st1" cx="64.4" cy="-34" r="0.6"/>
				<circle class="st1" cx="68" cy="-34" r="0.6"/>
				<circle class="st1" cx="71.5" cy="-34" r="0.6"/>
				<circle class="st1" cx="57.3" cy="-30.4" r="0.6"/>
				<circle class="st1" cx="60.8" cy="-30.4" r="0.6"/>
				<circle class="st1" cx="64.4" cy="-30.4" r="0.6"/>
				<circle class="st1" cx="68" cy="-30.4" r="0.6"/>
				<circle class="st1" cx="71.5" cy="-30.4" r="0.6"/>
				<circle class="st1" cx="57.3" cy="-26.9" r="0.6"/>
				<circle class="st1" cx="60.8" cy="-26.9" r="0.6"/>
				<circle class="st1" cx="64.4" cy="-26.9" r="0.6"/>
				<circle class="st1" cx="68" cy="-26.9" r="0.6"/>
				<circle class="st1" cx="71.5" cy="-26.9" r="0.6"/>
				<circle class="st1" cx="57.3" cy="-23.3" r="0.6"/>
				<circle class="st1" cx="60.8" cy="-23.3" r="0.6"/>
				<circle class="st1" cx="64.4" cy="-23.3" r="0.6"/>
				<circle class="st1" cx="68" cy="-23.3" r="0.6"/>
				<circle class="st1" cx="71.5" cy="-23.3" r="0.6"/>
				<circle class="st1" cx="75.1" cy="-41.2" r="0.6"/>
				<circle class="st1" cx="78.7" cy="-41.2" r="0.6"/>
				<circle class="st1" cx="82.3" cy="-41.2" r="0.6"/>
				<circle class="st1" cx="85.8" cy="-41.2" r="0.6"/>
				<circle class="st1" cx="75.1" cy="-37.6" r="0.6"/>
				<circle class="st1" cx="78.7" cy="-37.6" r="0.6"/>
				<circle class="st1" cx="82.3" cy="-37.6" r="0.6"/>
				<circle class="st1" cx="85.8" cy="-37.6" r="0.6"/>
				<circle class="st1" cx="75.1" cy="-34" r="0.6"/>
				<circle class="st1" cx="78.7" cy="-34" r="0.6"/>
				<circle class="st1" cx="82.3" cy="-34" r="0.6"/>
				<circle class="st1" cx="85.8" cy="-34" r="0.6"/>
				<circle class="st1" cx="75.1" cy="-30.4" r="0.6"/>
				<circle class="st1" cx="78.7" cy="-30.4" r="0.6"/>
				<circle class="st1" cx="82.3" cy="-30.4" r="0.6"/>
				<circle class="st1" cx="85.8" cy="-30.4" r="0.6"/>
				<circle class="st1" cx="75.1" cy="-26.9" r="0.6"/>
				<circle class="st1" cx="78.7" cy="-26.9" r="0.6"/>
				<circle class="st1" cx="82.3" cy="-26.9" r="0.6"/>
				<circle class="st1" cx="85.8" cy="-26.9" r="0.6"/>
				<circle class="st1" cx="75.1" cy="-23.3" r="0.6"/>
				<circle class="st1" cx="78.7" cy="-23.3" r="0.6"/>
				<circle class="st1" cx="82.3" cy="-23.3" r="0.6"/>
				<circle class="st1" cx="85.8" cy="-23.3" r="0.6"/>
				<circle class="st1" cx="43" cy="-19.7" r="0.6"/>
				<circle class="st1" cx="46.5" cy="-19.7" r="0.6"/>
				<circle class="st1" cx="50.1" cy="-19.7" r="0.6"/>
				<circle class="st1" cx="53.7" cy="-19.7" r="0.6"/>
				<circle class="st1" cx="43" cy="-16.1" r="0.6"/>
				<circle class="st1" cx="46.5" cy="-16.1" r="0.6"/>
				<circle class="st1" cx="50.1" cy="-16.1" r="0.6"/>
				<circle class="st1" cx="53.7" cy="-16.1" r="0.6"/>
				<circle class="st1" cx="43" cy="-12.6" r="0.6"/>
				<circle class="st1" cx="46.5" cy="-12.6" r="0.6"/>
				<circle class="st1" cx="50.1" cy="-12.6" r="0.6"/>
				<circle class="st1" cx="53.7" cy="-12.6" r="0.6"/>
				<circle class="st1" cx="43" cy="-9" r="0.6"/>
				<circle class="st1" cx="46.5" cy="-9" r="0.6"/>
				<circle class="st1" cx="50.1" cy="-9" r="0.6"/>
				<circle class="st1" cx="53.7" cy="-9" r="0.6"/>
				<circle class="st1" cx="43" cy="-5.4" r="0.6"/>
				<circle class="st1" cx="46.5" cy="-5.4" r="0.6"/>
				<circle class="st1" cx="50.1" cy="-5.4" r="0.6"/>
				<circle class="st1" cx="53.7" cy="-5.4" r="0.6"/>
				<circle class="st1" cx="43" cy="-1.8" r="0.6"/>
				<circle class="st1" cx="46.5" cy="-1.8" r="0.6"/>
				<circle class="st1" cx="50.1" cy="-1.8" r="0.6"/>
				<circle class="st1" cx="53.7" cy="-1.8" r="0.6"/>
				<circle class="st1" cx="57.3" cy="-19.7" r="0.6"/>
				<circle class="st1" cx="60.8" cy="-19.7" r="0.6"/>
				<circle class="st1" cx="64.4" cy="-19.7" r="0.6"/>
				<circle class="st1" cx="68" cy="-19.7" r="0.6"/>
				<circle class="st1" cx="71.5" cy="-19.7" r="0.6"/>
				<circle class="st1" cx="57.3" cy="-16.1" r="0.6"/>
				<circle class="st1" cx="60.8" cy="-16.1" r="0.6"/>
				<circle class="st1" cx="64.4" cy="-16.1" r="0.6"/>
				<circle class="st1" cx="68" cy="-16.1" r="0.6"/>
				<circle class="st1" cx="71.5" cy="-16.1" r="0.6"/>
				<circle class="st1" cx="57.3" cy="-12.6" r="0.6"/>
				<circle class="st1" cx="60.8" cy="-12.6" r="0.6"/>
				<circle class="st1" cx="64.4" cy="-12.6" r="0.6"/>
				<circle class="st1" cx="68" cy="-12.6" r="0.6"/>
				<circle class="st1" cx="71.5" cy="-12.6" r="0.6"/>
				<circle class="st1" cx="57.3" cy="-9" r="0.6"/>
				<circle class="st1" cx="60.8" cy="-9" r="0.6"/>
				<circle class="st1" cx="64.4" cy="-9" r="0.6"/>
				<circle class="st1" cx="68" cy="-9" r="0.6"/>
				<circle class="st1" cx="71.5" cy="-9" r="0.6"/>
				<circle class="st1" cx="57.3" cy="-5.4" r="0.6"/>
				<circle class="st1" cx="60.8" cy="-5.4" r="0.6"/>
				<circle class="st1" cx="64.4" cy="-5.4" r="0.6"/>
				<circle class="st1" cx="68" cy="-5.4" r="0.6"/>
				<circle class="st1" cx="71.5" cy="-5.4" r="0.6"/>
				<circle class="st1" cx="57.3" cy="-1.8" r="0.6"/>
				<circle class="st1" cx="60.8" cy="-1.8" r="0.6"/>
				<circle class="st1" cx="64.4" cy="-1.8" r="0.6"/>
				<circle class="st1" cx="68" cy="-1.8" r="0.6"/>
				<circle class="st1" cx="71.5" cy="-1.8" r="0.6"/>
				<circle class="st1" cx="75.1" cy="-19.7" r="0.6"/>
				<circle class="st1" cx="78.7" cy="-19.7" r="0.6"/>
				<circle class="st1" cx="82.3" cy="-19.7" r="0.6"/>
				<circle class="st1" cx="85.8" cy="-19.7" r="0.6"/>
				<circle class="st1" cx="75.1" cy="-16.1" r="0.6"/>
				<circle class="st1" cx="78.7" cy="-16.1" r="0.6"/>
				<circle class="st1" cx="82.3" cy="-16.1" r="0.6"/>
				<circle class="st1" cx="85.8" cy="-16.1" r="0.6"/>
				<circle class="st1" cx="75.1" cy="-12.6" r="0.6"/>
				<circle class="st1" cx="78.7" cy="-12.6" r="0.6"/>
				<circle class="st1" cx="82.3" cy="-12.6" r="0.6"/>
				<circle class="st1" cx="85.8" cy="-12.6" r="0.6"/>
				<circle class="st1" cx="75.1" cy="-9" r="0.6"/>
				<circle class="st1" cx="78.7" cy="-9" r="0.6"/>
				<circle class="st1" cx="82.3" cy="-9" r="0.6"/>
				<circle class="st1" cx="85.8" cy="-9" r="0.6"/>
				<circle class="st1" cx="75.1" cy="-5.4" r="0.6"/>
				<circle class="st1" cx="78.7" cy="-5.4" r="0.6"/>
				<circle class="st1" cx="82.3" cy="-5.4" r="0.6"/>
				<circle class="st1" cx="85.8" cy="-5.4" r="0.6"/>
				<circle class="st1" cx="75.1" cy="-1.8" r="0.6"/>
				<circle class="st1" cx="78.7" cy="-1.8" r="0.6"/>
				<circle class="st1" cx="82.3" cy="-1.8" r="0.6"/>
				<circle class="st1" cx="85.8" cy="-1.8" r="0.6"/>
				<circle class="st1" cx="42.9" cy="-41.2" r="0.6"/>
				<circle class="st1" cx="42.9" cy="-37.6" r="0.6"/>
				<circle class="st1" cx="42.9" cy="-34" r="0.6"/>
				<circle class="st1" cx="42.9" cy="-30.4" r="0.6"/>
				<circle class="st1" cx="42.9" cy="-26.9" r="0.6"/>
				<circle class="st1" cx="42.9" cy="-23.3" r="0.6"/>
				<circle class="st1" cx="42.9" cy="-19.7" r="0.6"/>
				<circle class="st1" cx="42.9" cy="-16.1" r="0.6"/>
				<circle class="st1" cx="42.9" cy="-12.6" r="0.6"/>
				<circle class="st1" cx="42.9" cy="-9" r="0.6"/>
				<circle class="st1" cx="42.9" cy="-5.4" r="0.6"/>
				<circle class="st1" cx="42.9" cy="-1.8" r="0.6"/>
			</g>
			<g>
				<defs>
					<rect id="SVGID_3_" x="42.9" y="-43" width="43" height="43"/>
				</defs>
				<clipPath id="SVGID_4_">
					<use xlink:href="#SVGID_3_"  style="overflow:visible;"/>
				</clipPath>
				<circle class="st3" cx="42.9" cy="-41.2" r="0.6"/>
				<circle class="st3" cx="42.9" cy="-37.6" r="0.6"/>
				<circle class="st3" cx="42.9" cy="-34" r="0.6"/>
				<circle class="st3" cx="42.9" cy="-30.4" r="0.6"/>
				<circle class="st3" cx="42.9" cy="-26.9" r="0.6"/>
				<circle class="st3" cx="42.9" cy="-23.3" r="0.6"/>
				<circle class="st3" cx="42.9" cy="-19.7" r="0.6"/>
				<circle class="st3" cx="42.9" cy="-16.1" r="0.6"/>
				<circle class="st3" cx="42.9" cy="-12.6" r="0.6"/>
				<circle class="st3" cx="42.9" cy="-9" r="0.6"/>
				<circle class="st3" cx="42.9" cy="-5.4" r="0.6"/>
				<circle class="st3" cx="42.9" cy="-1.8" r="0.6"/>
				<circle class="st3" cx="42.8" cy="-41.2" r="0.6"/>
				<circle class="st3" cx="42.8" cy="-37.6" r="0.6"/>
				<circle class="st3" cx="42.8" cy="-34" r="0.6"/>
				<circle class="st3" cx="42.8" cy="-30.4" r="0.6"/>
				<circle class="st3" cx="42.8" cy="-26.9" r="0.6"/>
				<circle class="st3" cx="42.8" cy="-23.3" r="0.6"/>
				<circle class="st3" cx="42.8" cy="-19.7" r="0.6"/>
				<circle class="st3" cx="42.8" cy="-16.1" r="0.6"/>
				<circle class="st3" cx="42.8" cy="-12.6" r="0.6"/>
				<circle class="st3" cx="42.8" cy="-9" r="0.6"/>
				<circle class="st3" cx="42.8" cy="-5.4" r="0.6"/>
				<circle class="st3" cx="42.8" cy="-1.8" r="0.6"/>
			</g>
		</g>
		<g>
			<g>
				<circle class="st1" cx="43" cy="-41.2" r="0.6"/>
				<circle class="st1" cx="43" cy="-37.6" r="0.6"/>
				<circle class="st1" cx="43" cy="-34" r="0.6"/>
				<circle class="st1" cx="43" cy="-30.4" r="0.6"/>
				<circle class="st1" cx="43" cy="-26.9" r="0.6"/>
				<circle class="st1" cx="43" cy="-23.3" r="0.6"/>
				<circle class="st1" cx="43" cy="-19.7" r="0.6"/>
				<circle class="st1" cx="43" cy="-16.1" r="0.6"/>
				<circle class="st1" cx="43" cy="-12.6" r="0.6"/>
				<circle class="st1" cx="43" cy="-9" r="0.6"/>
				<circle class="st1" cx="43" cy="-5.4" r="0.6"/>
				<circle class="st1" cx="43" cy="-1.8" r="0.6"/>
				<circle class="st1" cx="42.9" cy="-41.2" r="0.6"/>
				<circle class="st1" cx="42.9" cy="-37.6" r="0.6"/>
				<circle class="st1" cx="42.9" cy="-34" r="0.6"/>
				<circle class="st1" cx="42.9" cy="-30.4" r="0.6"/>
				<circle class="st1" cx="42.9" cy="-26.9" r="0.6"/>
				<circle class="st1" cx="42.9" cy="-23.3" r="0.6"/>
				<circle class="st1" cx="42.9" cy="-19.7" r="0.6"/>
				<circle class="st1" cx="42.9" cy="-16.1" r="0.6"/>
				<circle class="st1" cx="42.9" cy="-12.6" r="0.6"/>
				<circle class="st1" cx="42.9" cy="-9" r="0.6"/>
				<circle class="st1" cx="42.9" cy="-5.4" r="0.6"/>
				<circle class="st1" cx="42.9" cy="-1.8" r="0.6"/>
			</g>
			<g>
				<defs>
					<rect id="SVGID_5_" y="-43" width="43" height="43"/>
				</defs>
				<clipPath id="SVGID_6_">
					<use xlink:href="#SVGID_5_"  style="overflow:visible;"/>
				</clipPath>
			</g>
		</g>
	</g>
</pattern>
<g>
	<g>
		<path class="st1" d="M252.5,92l-124.3-0.3l-61.9,0l-31,0.1l-31,0.2c-0.4,0-0.7-0.3-0.7-0.7l0,0v0L3.5,64c0-0.4,0.4-0.8,0.8-0.8
			l0,0L140.5,63l68.1-0.1l34-0.1l4.3,0c1.8,0.1,3.5,0.9,4.6,2.3c0.6,0.7,1,1.5,1.2,2.3c0.1,0.4,0.2,0.9,0.2,1.3c0,0.5,0,0.8,0,1.1
			l0,4.4C252.8,80.2,252.7,86.1,252.5,92z M250.8,90.2c-0.2-5.5-0.3-10.9-0.3-16.4l0-4.1c0-0.3,0-0.7,0-1c0-0.3,0-0.5-0.1-0.8
			c-0.1-0.5-0.4-1-0.7-1.4c-0.7-0.8-1.7-1.4-2.8-1.4l-4.2,0l-34-0.1L140.5,65L4.3,64.8L5.1,64L5.1,91.1l-0.7-0.7l30.9,0.2l30.9,0.1
			l61.7,0L250.8,90.2z"/>
	</g>
	<g>
		<path class="st1" d="M246.7,251.1l-199.6-0.5l-24.9,0l-12.5,0c-1.1,0-2.3-0.2-3.3-0.8c-1-0.6-1.7-1.5-2.2-2.6
			c-0.2-0.5-0.3-1.1-0.4-1.7c0-0.6,0-1.1,0-1.6l0-3.1l0-49.9l0-49.9L3.6,91.1v0c0-0.4,0.4-0.8,0.8-0.8l0,0L128,90.2l61.8-0.1
			c20.6,0,41.2,0,61.8,0.1l0,0c0.5,0,0.9,0.4,0.9,0.9l0.1,40.5l0,40.5l0,40.5l0,20.2l0,10.1c0,0.9,0,1.6,0,2.6c0,1-0.4,2-0.9,2.9
			C250.7,250,248.7,251.1,246.7,251.1z M246.7,249.1c1.3,0,2.7-0.7,3.4-1.9c0.4-0.6,0.6-1.2,0.6-1.9c0-0.7,0-1.7,0-2.5l0-10.1
			l0-20.2l0-40.5l0-40.5l0.1-40.5l0.9,0.9l0,0c-20.6,0.1-41.2,0.1-61.8,0.1L128,92L4.3,91.9l0.8-0.8v0L5,141l0,49.9l0,49.9l0,3.1
			c0,0.5,0,1.1,0,1.5c0,0.5,0.1,0.9,0.3,1.3c0.7,1.8,2.5,2.9,4.5,2.8l12.5,0l24.9,0L246.7,249.1z"/>
	</g>
	<g>
		<path class="st1" d="M226.9,155.5l-197.5,0.4c-0.4,0-0.7-0.3-0.7-0.7l-0.1-48.5c0-0.4,0.4-0.8,0.8-0.8l49.3-0.1l49.3,0l24.6,0
			l24.6,0.1c16.4,0.1,32.9,0.1,49.3,0.3l0,0c0.3,0,0.6,0.3,0.6,0.6L226.9,155.5z M226.3,154.9l-0.3-48.2l0.6,0.6
			c-16.4,0.2-32.9,0.2-49.3,0.3l-24.6,0.1l-24.6,0l-49.3,0l-49.3-0.1l0.8-0.8l-0.1,48.5l-0.7-0.7L226.3,154.9z"/>
	</g>
	<g>
		<rect x="39.3" y="116.6" class="st4" width="177.5" height="14.4"/>
		<path class="st1" d="M39,131.2c0-4.9,0-9.8,0.1-14.6c0-0.1,0.1-0.2,0.2-0.2l177.5-0.6c0.4,0,0.8,0.4,0.8,0.8v0l0.1,14.4
			c0,0.5-0.4,0.9-0.9,0.9h0l0,0l-22.3,0.1l-22.3,0c-14.8,0-29.7,0-44.5-0.1L39,131.2z M39.5,130.7l88.9-0.7
			c14.8-0.1,29.5-0.1,44.2-0.1l22.1,0l22.1,0.1l-0.9,0.9l0.1-14.4l0.8,0.8l-177.5-0.6l0.2-0.2C39.5,121.3,39.5,126,39.5,130.7z"/>
	</g>
	<g>
		<path class="st1" d="M227,250.5l-197.6,0.1c-0.3,0-0.5-0.2-0.5-0.5l-0.3-83c0-0.4,0.4-0.8,0.8-0.8h0l98.6-0.2l49.3,0
			c16.4,0.1,32.9,0,49.3,0.2l0,0c0.4,0,0.8,0.4,0.8,0.8L227,250.5z M226.2,249.7l-0.3-82.5l0.8,0.8c-16.4,0.2-32.9,0.1-49.3,0.2
			l-49.3,0l-98.6-0.2l0.8-0.8l-0.3,83l-0.5-0.5L226.2,249.7z"/>
	</g>
	<g>
		<rect x="39.3" y="177" class="st4" width="177.5" height="14.4"/>
		<path class="st1" d="M39,191.6c0-4.9,0-9.8,0.1-14.6c0-0.1,0.1-0.2,0.2-0.2l177.5-0.6c0.4,0,0.8,0.4,0.8,0.8v0l0.1,14.4
			c0,0.5-0.4,0.9-0.9,0.9l0,0l0,0l-22.3,0.1l-22.3,0c-14.8,0-29.7,0-44.5-0.1L39,191.6z M39.5,191.1l88.9-0.6
			c14.8-0.1,29.5-0.1,44.2-0.1l22.1,0l22.1,0.1l-0.9,0.9l0.1-14.4l0.8,0.8l-177.5-0.6l0.2-0.2C39.5,181.7,39.5,186.4,39.5,191.1z"/>
	</g>
	<g>
		<rect x="39.3" y="205.5" class="st4" width="177.5" height="44.6"/>
		<path class="st1" d="M38.9,250.4c0-15,0-30,0.1-44.9c0-0.1,0.1-0.3,0.3-0.3l177.5-0.5c0.4,0,0.8,0.4,0.8,0.8v0l0.2,44.6
			c0,0.6-0.5,1-1,1h0l-44.6,0l-22.3-0.1l-22.2-0.1L38.9,250.4z M39.6,249.7l88.7-0.5l22.1-0.1l22.1-0.1c14.7,0,29.4-0.1,44.2,0l-1,1
			l0.2-44.6l0.8,0.8l-177.5-0.5l0.3-0.3C39.6,220.3,39.6,235,39.6,249.7z"/>
	</g>
	<g>
		<path class="st1" d="M64.4,64.1L4.3,64.6c-0.3,0-0.6-0.3-0.6-0.6v0v0L3.6,42.8L3.6,32.2c0-0.9-0.1-1.7,0-2.8c0.1-1,0.5-2,1-2.8
			c1-1.7,2.9-2.9,4.9-3.3c1.1-0.2,1.9-0.1,2.8-0.1l2.7,0l5.3,0l10.6-0.1l10.6,0c3.5,0,7.1,0,10.6,0.1c0.4,0,0.8,0.3,0.9,0.7l0,0
			l3,10c1,3.4,2,6.8,2.9,10.2L64.4,64.1z M64.2,63.9l-6.7-19.9c-1.1-3.3-2.2-6.5-3.2-9.7l-3.2-10l0.9,0.7c-3.5,0.1-7.1,0.1-10.6,0.1
			l-10.6,0l-10.6-0.1l-5.3,0l-2.7,0c-0.9,0-1.8-0.1-2.5,0c-1.5,0.2-2.9,1.1-3.7,2.4c-0.4,0.6-0.7,1.4-0.8,2.1
			c-0.1,0.7,0,1.7-0.1,2.5L5.1,42.8L4.9,64l-0.6-0.6L64.2,63.9z"/>
	</g>
	<g>
		<path class="st4" d="M243,17L55.4,35L52,24.2L241.9,5.9c3-0.3,5.8,1.9,6.1,5v0C248.2,14,246,16.7,243,17z"/>
		<path class="st1" d="M243,17.1c-15.6,1.5-31.3,3-46.9,4.6l-46.9,4.8l-93.8,9.3c-0.4,0-0.7-0.2-0.8-0.5l-3.4-10.8
			c-0.1-0.4,0.1-0.9,0.5-1c0.1,0,0.1,0,0.2,0l0,0l51.8-5.2l51.8-5l25.9-2.3l25.9-2.2l25.9-2.2l6.5-0.6c1.1-0.1,2.1-0.3,3.3-0.2
			c1.1,0.1,2.2,0.6,3,1.3c1.7,1.4,2.4,3.9,1.7,6.1C247.2,15.3,245.2,16.9,243,17.1z M242.9,16.9c2.1-0.2,4-1.8,4.6-3.8
			c0.6-2-0.1-4.4-1.7-5.7c-0.8-0.7-1.8-1.1-2.9-1.2c-1-0.1-2.1,0.1-3.2,0.2L233.4,7l-25.9,2.8l-25.9,2.8l-25.9,2.7l-51.8,5L52.1,25
			l0.7-1l3.3,10.8l-0.8-0.5l93.8-8.7l46.9-4.2C211.7,19.9,227.3,18.4,242.9,16.9z"/>
	</g>
	<g>
		<circle class="st4" cx="34.3" cy="77.5" r="6.7"/>
		<path class="st1" d="M41.1,77.5c0,1.8-0.7,3.5-1.9,4.9c-1.2,1.4-3,2.2-4.9,2.3c-1.9,0.1-3.8-0.7-5.2-2c-1.4-1.3-2.3-3.2-2.3-5.2
			c-0.1-2,0.7-4,2.1-5.4c1.4-1.5,3.4-2.3,5.4-2.3c1,0,2,0.3,2.9,0.7c0.9,0.5,1.6,1.1,2.2,1.8C40.6,73.9,41.2,75.8,41.1,77.5z
			 M40.9,77.5c0-1.7-0.9-3.4-2.2-4.3c-1.3-1-2.9-1.4-4.3-1.3c-1.5,0.1-2.9,0.6-4,1.7c-1.1,1-1.8,2.5-1.9,4c-0.1,1.5,0.5,3.1,1.6,4.3
			c1.1,1.2,2.6,1.9,4.3,1.9c1.6,0.1,3.3-0.5,4.6-1.6C40.2,81,41,79.3,40.9,77.5z"/>
	</g>
	<g>
		<rect x="64.3" y="70.9" class="st4" width="37.1" height="13.3"/>
		<path class="st1" d="M101.5,84.3l-37.1,0.6c-0.3,0-0.6-0.3-0.6-0.6v0l0,0l-0.2-13.3c0-0.4,0.3-0.8,0.8-0.8l0,0
			c3.1-0.1,6.2-0.2,9.3-0.2c3.1,0,6.2-0.1,9.3,0c3.1,0,6.2,0,9.3,0.1l9.3,0.2l0,0c0.4,0,0.7,0.3,0.7,0.7l0,0l-0.3,6.9L101.5,84.3z
			 M101.3,84.2l-0.4-6.8l-0.3-6.5l0.7,0.7l-9.3,0.2c-3.1,0.1-6.2,0.1-9.3,0.1c-3.1,0-6.2,0-9.3,0c-3.1,0-6.2-0.1-9.3-0.2l0.8-0.8
			L65,84.2l-0.6-0.6L101.3,84.2z"/>
	</g>
	<g>
		<rect x="124" y="70.9" class="st4" width="37.1" height="13.3"/>
		<path class="st1" d="M161.1,84.3L124,84.9c-0.3,0-0.6-0.3-0.6-0.6l0,0l0,0l-0.2-13.3c0-0.4,0.3-0.8,0.8-0.8l0,0
			c3.1-0.1,6.2-0.2,9.3-0.2c3.1,0,6.2-0.1,9.3,0c3.1,0,6.2,0,9.3,0.1l9.3,0.2l0,0c0.4,0,0.7,0.3,0.7,0.7l0,0l-0.3,6.9L161.1,84.3z
			 M161,84.2l-0.4-6.8l-0.3-6.5l0.7,0.7l-9.3,0.2c-3.1,0.1-6.2,0.1-9.3,0.1c-3.1,0-6.2,0-9.3,0c-3.1,0-6.2-0.1-9.3-0.2l0.8-0.8
			l-0.2,13.3l-0.6-0.6L161,84.2z"/>
	</g>
</g>
</svg>
