<svg xmlns="http://www.w3.org/2000/svg" xmlns:xlink="http://www.w3.org/1999/xlink" id="Layer_1" x="0" y="0" version="1.1" viewBox="0 0 256 256" xml:space="preserve"><style>.st1,.st2,.st3{fill:#253759}.st2,.st3{clip-path:url(#SVGID_2_)}.st3{clip-path:url(#SVGID_4_)}.st4{fill:url(#New_Pattern_Swatch_1)}</style><pattern id="New_Pattern_Swatch_1" width="42.9" height="43" x="-276" y="-552" overflow="visible" patternUnits="userSpaceOnUse" viewBox="43 -43 42.9 43"><path d="M43-43h42.9V0H43z"/><circle cx="85.9" cy="-41.2" r=".6" class="st1"/><circle cx="85.9" cy="-37.6" r=".6" class="st1"/><circle cx="85.9" cy="-34" r=".6" class="st1"/><circle cx="85.9" cy="-30.4" r=".6" class="st1"/><circle cx="85.9" cy="-26.9" r=".6" class="st1"/><circle cx="85.9" cy="-23.3" r=".6" class="st1"/><circle cx="85.9" cy="-19.7" r=".6" class="st1"/><circle cx="85.9" cy="-16.1" r=".6" class="st1"/><circle cx="85.9" cy="-12.6" r=".6" class="st1"/><circle cx="85.9" cy="-9" r=".6" class="st1"/><circle cx="85.9" cy="-5.4" r=".6" class="st1"/><circle cx="85.9" cy="-1.8" r=".6" class="st1"/><circle cx="85.8" cy="-41.2" r=".6" class="st1"/><circle cx="85.8" cy="-37.6" r=".6" class="st1"/><circle cx="85.8" cy="-34" r=".6" class="st1"/><circle cx="85.8" cy="-30.4" r=".6" class="st1"/><circle cx="85.8" cy="-26.9" r=".6" class="st1"/><circle cx="85.8" cy="-23.3" r=".6" class="st1"/><circle cx="85.8" cy="-19.7" r=".6" class="st1"/><circle cx="85.8" cy="-16.1" r=".6" class="st1"/><circle cx="85.8" cy="-12.6" r=".6" class="st1"/><circle cx="85.8" cy="-9" r=".6" class="st1"/><circle cx="85.8" cy="-5.4" r=".6" class="st1"/><circle cx="85.8" cy="-1.8" r=".6" class="st1"/><g><defs><path id="SVGID_1_" d="M85.8-43h43V0h-43z"/></defs><clipPath id="SVGID_2_"><use overflow="visible" xlink:href="#SVGID_1_"/></clipPath><circle cx="85.8" cy="-41.2" r=".6" class="st2"/><circle cx="85.8" cy="-37.6" r=".6" class="st2"/><circle cx="85.8" cy="-34" r=".6" class="st2"/><circle cx="85.8" cy="-30.4" r=".6" class="st2"/><circle cx="85.8" cy="-26.9" r=".6" class="st2"/><circle cx="85.8" cy="-23.3" r=".6" class="st2"/><circle cx="85.8" cy="-19.7" r=".6" class="st2"/><circle cx="85.8" cy="-16.1" r=".6" class="st2"/><circle cx="85.8" cy="-12.6" r=".6" class="st2"/><circle cx="85.8" cy="-9" r=".6" class="st2"/><circle cx="85.8" cy="-5.4" r=".6" class="st2"/><circle cx="85.8" cy="-1.8" r=".6" class="st2"/><circle cx="85.7" cy="-41.2" r=".6" class="st2"/><circle cx="85.7" cy="-37.6" r=".6" class="st2"/><circle cx="85.7" cy="-34" r=".6" class="st2"/><circle cx="85.7" cy="-30.4" r=".6" class="st2"/><circle cx="85.7" cy="-26.9" r=".6" class="st2"/><circle cx="85.7" cy="-23.3" r=".6" class="st2"/><circle cx="85.7" cy="-19.7" r=".6" class="st2"/><circle cx="85.7" cy="-16.1" r=".6" class="st2"/><circle cx="85.7" cy="-12.6" r=".6" class="st2"/><circle cx="85.7" cy="-9" r=".6" class="st2"/><circle cx="85.7" cy="-5.4" r=".6" class="st2"/><circle cx="85.7" cy="-1.8" r=".6" class="st2"/></g><g><circle cx="85.9" cy="-41.2" r=".6" class="st1"/><circle cx="85.9" cy="-37.6" r=".6" class="st1"/><circle cx="85.9" cy="-34" r=".6" class="st1"/><circle cx="85.9" cy="-30.4" r=".6" class="st1"/><circle cx="85.9" cy="-26.9" r=".6" class="st1"/><circle cx="85.9" cy="-23.3" r=".6" class="st1"/><circle cx="85.9" cy="-19.7" r=".6" class="st1"/><circle cx="85.9" cy="-16.1" r=".6" class="st1"/><circle cx="85.9" cy="-12.6" r=".6" class="st1"/><circle cx="85.9" cy="-9" r=".6" class="st1"/><circle cx="85.9" cy="-5.4" r=".6" class="st1"/><circle cx="85.9" cy="-1.8" r=".6" class="st1"/><circle cx="43" cy="-41.2" r=".6" class="st1"/><circle cx="46.5" cy="-41.2" r=".6" class="st1"/><circle cx="50.1" cy="-41.2" r=".6" class="st1"/><circle cx="53.7" cy="-41.2" r=".6" class="st1"/><circle cx="43" cy="-37.6" r=".6" class="st1"/><circle cx="46.5" cy="-37.6" r=".6" class="st1"/><circle cx="50.1" cy="-37.6" r=".6" class="st1"/><circle cx="53.7" cy="-37.6" r=".6" class="st1"/><circle cx="43" cy="-34" r=".6" class="st1"/><circle cx="46.5" cy="-34" r=".6" class="st1"/><circle cx="50.1" cy="-34" r=".6" class="st1"/><circle cx="53.7" cy="-34" r=".6" class="st1"/><circle cx="43" cy="-30.4" r=".6" class="st1"/><circle cx="46.5" cy="-30.4" r=".6" class="st1"/><circle cx="50.1" cy="-30.4" r=".6" class="st1"/><circle cx="53.7" cy="-30.4" r=".6" class="st1"/><circle cx="43" cy="-26.9" r=".6" class="st1"/><circle cx="46.5" cy="-26.9" r=".6" class="st1"/><circle cx="50.1" cy="-26.9" r=".6" class="st1"/><circle cx="53.7" cy="-26.9" r=".6" class="st1"/><circle cx="43" cy="-23.3" r=".6" class="st1"/><circle cx="46.5" cy="-23.3" r=".6" class="st1"/><circle cx="50.1" cy="-23.3" r=".6" class="st1"/><circle cx="53.7" cy="-23.3" r=".6" class="st1"/><circle cx="57.3" cy="-41.2" r=".6" class="st1"/><circle cx="60.8" cy="-41.2" r=".6" class="st1"/><circle cx="64.4" cy="-41.2" r=".6" class="st1"/><circle cx="68" cy="-41.2" r=".6" class="st1"/><circle cx="71.5" cy="-41.2" r=".6" class="st1"/><circle cx="57.3" cy="-37.6" r=".6" class="st1"/><circle cx="60.8" cy="-37.6" r=".6" class="st1"/><circle cx="64.4" cy="-37.6" r=".6" class="st1"/><circle cx="68" cy="-37.6" r=".6" class="st1"/><circle cx="71.5" cy="-37.6" r=".6" class="st1"/><circle cx="57.3" cy="-34" r=".6" class="st1"/><circle cx="60.8" cy="-34" r=".6" class="st1"/><circle cx="64.4" cy="-34" r=".6" class="st1"/><circle cx="68" cy="-34" r=".6" class="st1"/><circle cx="71.5" cy="-34" r=".6" class="st1"/><circle cx="57.3" cy="-30.4" r=".6" class="st1"/><circle cx="60.8" cy="-30.4" r=".6" class="st1"/><circle cx="64.4" cy="-30.4" r=".6" class="st1"/><circle cx="68" cy="-30.4" r=".6" class="st1"/><circle cx="71.5" cy="-30.4" r=".6" class="st1"/><circle cx="57.3" cy="-26.9" r=".6" class="st1"/><circle cx="60.8" cy="-26.9" r=".6" class="st1"/><circle cx="64.4" cy="-26.9" r=".6" class="st1"/><circle cx="68" cy="-26.9" r=".6" class="st1"/><circle cx="71.5" cy="-26.9" r=".6" class="st1"/><circle cx="57.3" cy="-23.3" r=".6" class="st1"/><circle cx="60.8" cy="-23.3" r=".6" class="st1"/><circle cx="64.4" cy="-23.3" r=".6" class="st1"/><circle cx="68" cy="-23.3" r=".6" class="st1"/><circle cx="71.5" cy="-23.3" r=".6" class="st1"/><circle cx="75.1" cy="-41.2" r=".6" class="st1"/><circle cx="78.7" cy="-41.2" r=".6" class="st1"/><circle cx="82.3" cy="-41.2" r=".6" class="st1"/><circle cx="85.8" cy="-41.2" r=".6" class="st1"/><circle cx="75.1" cy="-37.6" r=".6" class="st1"/><circle cx="78.7" cy="-37.6" r=".6" class="st1"/><circle cx="82.3" cy="-37.6" r=".6" class="st1"/><circle cx="85.8" cy="-37.6" r=".6" class="st1"/><circle cx="75.1" cy="-34" r=".6" class="st1"/><circle cx="78.7" cy="-34" r=".6" class="st1"/><circle cx="82.3" cy="-34" r=".6" class="st1"/><circle cx="85.8" cy="-34" r=".6" class="st1"/><circle cx="75.1" cy="-30.4" r=".6" class="st1"/><circle cx="78.7" cy="-30.4" r=".6" class="st1"/><circle cx="82.3" cy="-30.4" r=".6" class="st1"/><circle cx="85.8" cy="-30.4" r=".6" class="st1"/><circle cx="75.1" cy="-26.9" r=".6" class="st1"/><circle cx="78.7" cy="-26.9" r=".6" class="st1"/><circle cx="82.3" cy="-26.9" r=".6" class="st1"/><circle cx="85.8" cy="-26.9" r=".6" class="st1"/><circle cx="75.1" cy="-23.3" r=".6" class="st1"/><circle cx="78.7" cy="-23.3" r=".6" class="st1"/><circle cx="82.3" cy="-23.3" r=".6" class="st1"/><circle cx="85.8" cy="-23.3" r=".6" class="st1"/><circle cx="43" cy="-19.7" r=".6" class="st1"/><circle cx="46.5" cy="-19.7" r=".6" class="st1"/><circle cx="50.1" cy="-19.7" r=".6" class="st1"/><circle cx="53.7" cy="-19.7" r=".6" class="st1"/><circle cx="43" cy="-16.1" r=".6" class="st1"/><circle cx="46.5" cy="-16.1" r=".6" class="st1"/><circle cx="50.1" cy="-16.1" r=".6" class="st1"/><circle cx="53.7" cy="-16.1" r=".6" class="st1"/><circle cx="43" cy="-12.6" r=".6" class="st1"/><circle cx="46.5" cy="-12.6" r=".6" class="st1"/><circle cx="50.1" cy="-12.6" r=".6" class="st1"/><circle cx="53.7" cy="-12.6" r=".6" class="st1"/><circle cx="43" cy="-9" r=".6" class="st1"/><circle cx="46.5" cy="-9" r=".6" class="st1"/><circle cx="50.1" cy="-9" r=".6" class="st1"/><circle cx="53.7" cy="-9" r=".6" class="st1"/><circle cx="43" cy="-5.4" r=".6" class="st1"/><circle cx="46.5" cy="-5.4" r=".6" class="st1"/><circle cx="50.1" cy="-5.4" r=".6" class="st1"/><circle cx="53.7" cy="-5.4" r=".6" class="st1"/><circle cx="43" cy="-1.8" r=".6" class="st1"/><circle cx="46.5" cy="-1.8" r=".6" class="st1"/><circle cx="50.1" cy="-1.8" r=".6" class="st1"/><circle cx="53.7" cy="-1.8" r=".6" class="st1"/><circle cx="57.3" cy="-19.7" r=".6" class="st1"/><circle cx="60.8" cy="-19.7" r=".6" class="st1"/><circle cx="64.4" cy="-19.7" r=".6" class="st1"/><circle cx="68" cy="-19.7" r=".6" class="st1"/><circle cx="71.5" cy="-19.7" r=".6" class="st1"/><circle cx="57.3" cy="-16.1" r=".6" class="st1"/><circle cx="60.8" cy="-16.1" r=".6" class="st1"/><circle cx="64.4" cy="-16.1" r=".6" class="st1"/><circle cx="68" cy="-16.1" r=".6" class="st1"/><circle cx="71.5" cy="-16.1" r=".6" class="st1"/><circle cx="57.3" cy="-12.6" r=".6" class="st1"/><circle cx="60.8" cy="-12.6" r=".6" class="st1"/><circle cx="64.4" cy="-12.6" r=".6" class="st1"/><circle cx="68" cy="-12.6" r=".6" class="st1"/><circle cx="71.5" cy="-12.6" r=".6" class="st1"/><circle cx="57.3" cy="-9" r=".6" class="st1"/><circle cx="60.8" cy="-9" r=".6" class="st1"/><circle cx="64.4" cy="-9" r=".6" class="st1"/><circle cx="68" cy="-9" r=".6" class="st1"/><circle cx="71.5" cy="-9" r=".6" class="st1"/><circle cx="57.3" cy="-5.4" r=".6" class="st1"/><circle cx="60.8" cy="-5.4" r=".6" class="st1"/><circle cx="64.4" cy="-5.4" r=".6" class="st1"/><circle cx="68" cy="-5.4" r=".6" class="st1"/><circle cx="71.5" cy="-5.4" r=".6" class="st1"/><circle cx="57.3" cy="-1.8" r=".6" class="st1"/><circle cx="60.8" cy="-1.8" r=".6" class="st1"/><circle cx="64.4" cy="-1.8" r=".6" class="st1"/><circle cx="68" cy="-1.8" r=".6" class="st1"/><circle cx="71.5" cy="-1.8" r=".6" class="st1"/><circle cx="75.1" cy="-19.7" r=".6" class="st1"/><circle cx="78.7" cy="-19.7" r=".6" class="st1"/><circle cx="82.3" cy="-19.7" r=".6" class="st1"/><circle cx="85.8" cy="-19.7" r=".6" class="st1"/><circle cx="75.1" cy="-16.1" r=".6" class="st1"/><circle cx="78.7" cy="-16.1" r=".6" class="st1"/><circle cx="82.3" cy="-16.1" r=".6" class="st1"/><circle cx="85.8" cy="-16.1" r=".6" class="st1"/><circle cx="75.1" cy="-12.6" r=".6" class="st1"/><circle cx="78.7" cy="-12.6" r=".6" class="st1"/><circle cx="82.3" cy="-12.6" r=".6" class="st1"/><circle cx="85.8" cy="-12.6" r=".6" class="st1"/><circle cx="75.1" cy="-9" r=".6" class="st1"/><circle cx="78.7" cy="-9" r=".6" class="st1"/><circle cx="82.3" cy="-9" r=".6" class="st1"/><circle cx="85.8" cy="-9" r=".6" class="st1"/><circle cx="75.1" cy="-5.4" r=".6" class="st1"/><circle cx="78.7" cy="-5.4" r=".6" class="st1"/><circle cx="82.3" cy="-5.4" r=".6" class="st1"/><circle cx="85.8" cy="-5.4" r=".6" class="st1"/><circle cx="75.1" cy="-1.8" r=".6" class="st1"/><circle cx="78.7" cy="-1.8" r=".6" class="st1"/><circle cx="82.3" cy="-1.8" r=".6" class="st1"/><circle cx="85.8" cy="-1.8" r=".6" class="st1"/><circle cx="42.9" cy="-41.2" r=".6" class="st1"/><circle cx="42.9" cy="-37.6" r=".6" class="st1"/><circle cx="42.9" cy="-34" r=".6" class="st1"/><circle cx="42.9" cy="-30.4" r=".6" class="st1"/><circle cx="42.9" cy="-26.9" r=".6" class="st1"/><circle cx="42.9" cy="-23.3" r=".6" class="st1"/><circle cx="42.9" cy="-19.7" r=".6" class="st1"/><circle cx="42.9" cy="-16.1" r=".6" class="st1"/><circle cx="42.9" cy="-12.6" r=".6" class="st1"/><circle cx="42.9" cy="-9" r=".6" class="st1"/><circle cx="42.9" cy="-5.4" r=".6" class="st1"/><circle cx="42.9" cy="-1.8" r=".6" class="st1"/><g><defs><path id="SVGID_3_" d="M42.9-43h43V0h-43z"/></defs><clipPath id="SVGID_4_"><use overflow="visible" xlink:href="#SVGID_3_"/></clipPath><circle cx="42.9" cy="-41.2" r=".6" class="st3"/><circle cx="42.9" cy="-37.6" r=".6" class="st3"/><circle cx="42.9" cy="-34" r=".6" class="st3"/><circle cx="42.9" cy="-30.4" r=".6" class="st3"/><circle cx="42.9" cy="-26.9" r=".6" class="st3"/><circle cx="42.9" cy="-23.3" r=".6" class="st3"/><circle cx="42.9" cy="-19.7" r=".6" class="st3"/><circle cx="42.9" cy="-16.1" r=".6" class="st3"/><circle cx="42.9" cy="-12.6" r=".6" class="st3"/><circle cx="42.9" cy="-9" r=".6" class="st3"/><circle cx="42.9" cy="-5.4" r=".6" class="st3"/><circle cx="42.9" cy="-1.8" r=".6" class="st3"/><circle cx="42.8" cy="-41.2" r=".6" class="st3"/><circle cx="42.8" cy="-37.6" r=".6" class="st3"/><circle cx="42.8" cy="-34" r=".6" class="st3"/><circle cx="42.8" cy="-30.4" r=".6" class="st3"/><circle cx="42.8" cy="-26.9" r=".6" class="st3"/><circle cx="42.8" cy="-23.3" r=".6" class="st3"/><circle cx="42.8" cy="-19.7" r=".6" class="st3"/><circle cx="42.8" cy="-16.1" r=".6" class="st3"/><circle cx="42.8" cy="-12.6" r=".6" class="st3"/><circle cx="42.8" cy="-9" r=".6" class="st3"/><circle cx="42.8" cy="-5.4" r=".6" class="st3"/><circle cx="42.8" cy="-1.8" r=".6" class="st3"/></g></g><g><circle cx="43" cy="-41.2" r=".6" class="st1"/><circle cx="43" cy="-37.6" r=".6" class="st1"/><circle cx="43" cy="-34" r=".6" class="st1"/><circle cx="43" cy="-30.4" r=".6" class="st1"/><circle cx="43" cy="-26.9" r=".6" class="st1"/><circle cx="43" cy="-23.3" r=".6" class="st1"/><circle cx="43" cy="-19.7" r=".6" class="st1"/><circle cx="43" cy="-16.1" r=".6" class="st1"/><circle cx="43" cy="-12.6" r=".6" class="st1"/><circle cx="43" cy="-9" r=".6" class="st1"/><circle cx="43" cy="-5.4" r=".6" class="st1"/><circle cx="43" cy="-1.8" r=".6" class="st1"/><circle cx="42.9" cy="-41.2" r=".6" class="st1"/><circle cx="42.9" cy="-37.6" r=".6" class="st1"/><circle cx="42.9" cy="-34" r=".6" class="st1"/><circle cx="42.9" cy="-30.4" r=".6" class="st1"/><circle cx="42.9" cy="-26.9" r=".6" class="st1"/><circle cx="42.9" cy="-23.3" r=".6" class="st1"/><circle cx="42.9" cy="-19.7" r=".6" class="st1"/><circle cx="42.9" cy="-16.1" r=".6" class="st1"/><circle cx="42.9" cy="-12.6" r=".6" class="st1"/><circle cx="42.9" cy="-9" r=".6" class="st1"/><circle cx="42.9" cy="-5.4" r=".6" class="st1"/><circle cx="42.9" cy="-1.8" r=".6" class="st1"/><g><defs><path id="SVGID_5_" d="M0-43h43V0H0z"/></defs><clipPath id="SVGID_6_"><use overflow="visible" xlink:href="#SVGID_5_"/></clipPath></g></g></pattern><path d="M122 229.5H97.5c-8.2 0-16.3-.1-24.4 0-.4 0-.7-.3-.7-.6-.1-3.7-.1-7.4 0-11.1 0-3.7.1-7.4.3-11.1 0-.3.3-.6.7-.6.1 0 .2 0 .2.1 4.1 1.7 8.1 3.6 12.1 5.4 4 1.9 8 3.7 12 5.6 4.1 1.9 8.4 4 12.4 6.1 4.1 2.1 8 4.2 11.9 6.2zm-1.5-.3c-4.1-1.8-8.2-3.4-12.1-5.1-3.9-1.6-7.7-3.4-11.6-5.2l-12-5.7c-4-2-7.9-3.9-11.9-6l.9-.5c.1 3.7.1 7.4.1 11.1 0 3.7-.1 7.4-.2 11.1l-.7-.7c7.9.3 15.9.4 23.8.5l23.7.5zM252.5 44.7l-1 93.1-.6 46.5-.3 23.2-.2 23.2c0 .3-.3.6-.6.6l-76.5-.7c-.4 0-.7-.3-.7-.7 0-.1 0-.2.1-.3l69.8-147.9.5 1.3-20-9.4-19.9-9.4-19.9-9.5-19.8-9.5c-.4-.2-.5-.6-.4-1 .1-.3.4-.4.7-.4 29.6.1 59.2.5 88.8.9zm-1.4 1.3c-29.1-.2-58.2-.4-87.3-.8l.3-1.5L184 53l19.9 9.4c13.3 6.2 26.5 12.5 39.8 18.8.5.2.7.8.5 1.3L174 230.2l-.6-1 76.5 1-.6.6.3-23.1.2-23.1.4-46.2.9-92.4z" class="st1"/><path d="M97.9 218.3l-13.9-.2.1-6.4z" class="st4"/><path d="M98.7 218.5c-2.5.1-5 .1-7.4.2-2.5 0-4.9 0-7.3.2-.3 0-.6-.2-.6-.5v-.1c-.1-1.1-.1-2.1-.1-3.2s.1-2.1.3-3.2v-.1c.1-.3.3-.5.6-.4h.1c2.4 1.1 4.9 2.2 7.3 3.4 2.4 1.1 4.8 2.4 7.1 3.7zm-1.7-.4c-2.3-.9-4.5-1.8-6.7-2.8-2.2-.9-4.3-2-6.5-3.1l.7-.5c.2 1.1.3 2.1.2 3.2 0 1.1 0 2.1-.2 3.2l-.7-.7c2.2.2 4.4.3 6.6.3 2.3.2 4.5.3 6.6.4z" class="st1"/><path d="M240.8 56.1l-.2 24.7-53.4-25.3z" class="st4"/><path d="M241.7 55.2c-.1 8.6-.4 17.3-.7 25.6 0 .2-.2.4-.4.4h-.1l-53.6-24.7c-.5-.2-.7-.8-.5-1.3.2-.4.5-.6.9-.6l27.2.3 27.2.3zm-1.7 1.7l-26.4-.2-26.4-.3.4-1.8 53.1 25.8-.6.3c-.1-8.1-.2-16-.1-23.8z" class="st1"/><path d="M240.5 88l-1.4 131.8-60.7-.7z" class="st4"/><path d="M240.9 86.4l-.2 33.6-.3 33.4-.4 33.2c-.1 11-.2 22-.1 33.1 0 .4-.3.7-.7.7l-60.7-.4c-.5 0-.9-.4-.9-.9 0-.1 0-.3.1-.4l31.4-66.1c10.4-22.1 21.1-44.1 31.8-66.2zm-.8 3.2c-10 21.7-20.1 43.4-30.2 65l-30.7 65-.8-1.3 60.7.9-.7.7c.3-10.9.5-21.9.6-32.8l.3-32.6.4-32.4.4-32.5z" class="st1"/><path d="M243.4 82l-79 167.8c-.1.3-.4.4-.7.2L3.9 174.7c-.4-.2-.6-.7-.4-1.1l19.7-42L43 89.7 82.7 6c.2-.5.8-.7 1.3-.5l79.7 38.1 39.9 19.1L243.4 82zm-.2.1l-40-18.5-40-18.7-80-37.5 1.3-.5-39.7 83.7L25 132.5 5 174.3l-.4-1.1 159.7 75.9-.7.2 79.6-167.2z" class="st1"/><path d="M18.1 169L88.2 20.6c.1-.3.4-.4.7-.2l140.3 66.1c.4.2.6.7.4 1.1l-69.9 148c-.2.5-.8.7-1.3.5L18.1 169zm1.1-.4l140.1 65.7-1.3.5 70.2-147.9.4 1.1L88.5 21.3l.7-.2-70 147.5z" class="st1"/><path d="M135.8 38.9l2.8-8.4.7-2.1c.3-.7.5-1.5.9-2.1.7-1.4 1.7-2.6 2.8-3.7 2.3-2.1 5.2-3.5 8.2-3.8 1.5-.2 3.1-.1 4.6.2 1.5.3 2.9.9 4.3 1.7 2.7 1.5 4.7 4.1 5.8 6.9 1.1 2.8 1.3 6.1.5 9l-5.1 16.9-5.1 16.9c-.9 3-2.8 5.7-5.3 7.6-1.3.9-2.7 1.7-4.2 2.1-1.5.5-3.1.7-4.7.6-1.6 0-3.2-.3-4.6-.9-1.5-.6-2.9-1.3-4.1-2.4-2.4-2-4.2-4.8-4.9-7.9-.3-1.5-.4-3.1-.3-4.7.1-.8.2-1.6.5-2.3.2-.8.4-1.4.7-2.1L132 52c.1-.4.6-.6 1-.5 2.1.7 4.3 1.4 6.4 2.1l6.4 2.2c.2.1.3.3.3.5l-2.5 8.8c-.1.4-.5.6-.9.5s-.6-.5-.5-.9l3-8.7.3.5-6.5-1.8c-2.2-.6-4.3-1.2-6.5-1.9l1-.5c-.8 2.8-1.6 5.7-2.5 8.5-.4 1.4-.9 2.8-1 4.1-.1 1.4 0 2.7.3 4.1.6 2.7 2.1 5.1 4.2 6.8 1 .9 2.3 1.5 3.5 2 1.3.5 2.6.8 4 .8 1.4.1 2.7-.1 4-.5 1.3-.4 2.6-1 3.7-1.8 2.3-1.6 3.9-3.9 4.8-6.6L160 53l5.4-16.8c.8-2.7.6-5.7-.4-8.3-1.1-2.6-3-4.9-5.4-6.3-1.2-.7-2.6-1.2-3.9-1.5-1.4-.3-2.8-.3-4.2-.2-2.8.3-5.4 1.7-7.4 3.7-1 1-1.8 2.2-2.4 3.4-.3.6-.5 1.3-.8 1.9l-.6 2.1-2.4 8.5c-.2.5-.7.8-1.2.7s-1.1-.7-.9-1.3zM82.4 71.8l28 13 27.9 13c9.3 4.3 18.7 8.6 27.9 13.1 9.2 4.6 18.4 9.2 27.4 14.1 0 0 .1.1 0 .1 0 0-.1.1-.1 0-9.5-3.9-18.8-8.2-28.2-12.5-9.3-4.3-18.5-9-27.7-13.5l-27.7-13.6L82.3 72s-.1-.1 0-.1c-.1-.1 0-.1.1-.1zM72.7 91.9l28 13 27.9 13c9.3 4.3 18.7 8.6 27.9 13.1 9.2 4.6 18.4 9.2 27.4 14.1 0 0 .1.1 0 .1 0 0-.1.1-.1 0-9.5-3.9-18.8-8.2-28.2-12.5-9.3-4.3-18.5-9-27.7-13.5l-27.7-13.6-27.6-13.5s-.1-.1 0-.1c0-.1.1-.1.1-.1z" class="st1"/><g><path d="M63.1 112l28 13 27.9 13c9.3 4.3 18.7 8.6 27.9 13.1 9.2 4.6 18.4 9.2 27.4 14.1 0 0 .1.1 0 .1 0 0-.1.1-.1 0-9.5-3.9-18.8-8.2-28.2-12.5-9.3-4.3-18.5-9-27.7-13.5l-27.7-13.6L63 112.2s-.1-.1 0-.1c0-.1 0-.1.1-.1z" class="st1"/></g><g><path d="M53.4 132.2l28 13 27.9 13c9.3 4.3 18.7 8.6 27.9 13.1 9.2 4.6 18.4 9.2 27.4 14.1 0 0 .1.1 0 .1 0 0-.1.1-.1 0-9.5-3.9-18.8-8.2-28.2-12.5-9.3-4.3-18.5-9-27.7-13.5L81 146l-27.6-13.7s-.1-.1 0-.1c-.1 0 0 0 0 0z" class="st1"/></g><g><path d="M43.8 152.3l28 13 27.9 13c9.3 4.3 18.7 8.6 27.9 13.1 9.2 4.6 18.4 9.2 27.4 14.1 0 0 .1.1 0 .1 0 0-.1.1-.1 0-9.5-3.9-18.8-8.2-28.2-12.5-9.3-4.3-18.5-9-27.7-13.5L71.3 166l-27.6-13.7s-.1-.1 0-.1c0 .1 0 .1.1.1z" class="st1"/></g></svg>