<?xml version="1.0" encoding="utf-8"?>
<!-- Generator: Adobe Illustrator 22.1.0, SVG Export Plug-In . SVG Version: 6.00 Build 0)  -->
<svg version="1.1" id="Layer_1" xmlns="http://www.w3.org/2000/svg" xmlns:xlink="http://www.w3.org/1999/xlink" x="0px" y="0px"
	 viewBox="0 0 256 256" style="enable-background:new 0 0 256 256;" xml:space="preserve">
<style type="text/css">
	.st0{fill:none;}
	.st1{fill:#253759;}
	.st2{clip-path:url(#SVGID_2_);fill:#253759;}
	.st3{clip-path:url(#SVGID_4_);fill:#253759;}
	.st4{fill:url(#New_Pattern_Swatch_1);}
</style>
<pattern  x="-1104" y="-828" width="42.9" height="43" patternUnits="userSpaceOnUse" id="New_Pattern_Swatch_1" viewBox="43 -43 42.9 43" style="overflow:visible;">
	<g>
		<rect x="43" y="-43" class="st0" width="42.9" height="43"/>
		<g>
			<g>
				<circle class="st1" cx="85.9" cy="-41.2" r="0.6"/>
				<circle class="st1" cx="85.9" cy="-37.6" r="0.6"/>
				<circle class="st1" cx="85.9" cy="-34" r="0.6"/>
				<circle class="st1" cx="85.9" cy="-30.4" r="0.6"/>
				<circle class="st1" cx="85.9" cy="-26.9" r="0.6"/>
				<circle class="st1" cx="85.9" cy="-23.3" r="0.6"/>
				<circle class="st1" cx="85.9" cy="-19.7" r="0.6"/>
				<circle class="st1" cx="85.9" cy="-16.1" r="0.6"/>
				<circle class="st1" cx="85.9" cy="-12.6" r="0.6"/>
				<circle class="st1" cx="85.9" cy="-9" r="0.6"/>
				<circle class="st1" cx="85.9" cy="-5.4" r="0.6"/>
				<circle class="st1" cx="85.9" cy="-1.8" r="0.6"/>
				<circle class="st1" cx="85.8" cy="-41.2" r="0.6"/>
				<circle class="st1" cx="85.8" cy="-37.6" r="0.6"/>
				<circle class="st1" cx="85.8" cy="-34" r="0.6"/>
				<circle class="st1" cx="85.8" cy="-30.4" r="0.6"/>
				<circle class="st1" cx="85.8" cy="-26.9" r="0.6"/>
				<circle class="st1" cx="85.8" cy="-23.3" r="0.6"/>
				<circle class="st1" cx="85.8" cy="-19.7" r="0.6"/>
				<circle class="st1" cx="85.8" cy="-16.1" r="0.6"/>
				<circle class="st1" cx="85.8" cy="-12.6" r="0.6"/>
				<circle class="st1" cx="85.8" cy="-9" r="0.6"/>
				<circle class="st1" cx="85.8" cy="-5.4" r="0.6"/>
				<circle class="st1" cx="85.8" cy="-1.8" r="0.6"/>
			</g>
			<g>
				<defs>
					<rect id="SVGID_1_" x="85.8" y="-43" width="43" height="43"/>
				</defs>
				<clipPath id="SVGID_2_">
					<use xlink:href="#SVGID_1_"  style="overflow:visible;"/>
				</clipPath>
				<circle class="st2" cx="85.8" cy="-41.2" r="0.6"/>
				<circle class="st2" cx="85.8" cy="-37.6" r="0.6"/>
				<circle class="st2" cx="85.8" cy="-34" r="0.6"/>
				<circle class="st2" cx="85.8" cy="-30.4" r="0.6"/>
				<circle class="st2" cx="85.8" cy="-26.9" r="0.6"/>
				<circle class="st2" cx="85.8" cy="-23.3" r="0.6"/>
				<circle class="st2" cx="85.8" cy="-19.7" r="0.6"/>
				<circle class="st2" cx="85.8" cy="-16.1" r="0.6"/>
				<circle class="st2" cx="85.8" cy="-12.6" r="0.6"/>
				<circle class="st2" cx="85.8" cy="-9" r="0.6"/>
				<circle class="st2" cx="85.8" cy="-5.4" r="0.6"/>
				<circle class="st2" cx="85.8" cy="-1.8" r="0.6"/>
				<circle class="st2" cx="85.7" cy="-41.2" r="0.6"/>
				<circle class="st2" cx="85.7" cy="-37.6" r="0.6"/>
				<circle class="st2" cx="85.7" cy="-34" r="0.6"/>
				<circle class="st2" cx="85.7" cy="-30.4" r="0.6"/>
				<circle class="st2" cx="85.7" cy="-26.9" r="0.6"/>
				<circle class="st2" cx="85.7" cy="-23.3" r="0.6"/>
				<circle class="st2" cx="85.7" cy="-19.7" r="0.6"/>
				<circle class="st2" cx="85.7" cy="-16.1" r="0.6"/>
				<circle class="st2" cx="85.7" cy="-12.6" r="0.6"/>
				<circle class="st2" cx="85.7" cy="-9" r="0.6"/>
				<circle class="st2" cx="85.7" cy="-5.4" r="0.6"/>
				<circle class="st2" cx="85.7" cy="-1.8" r="0.6"/>
			</g>
		</g>
		<g>
			<g>
				<circle class="st1" cx="85.9" cy="-41.2" r="0.6"/>
				<circle class="st1" cx="85.9" cy="-37.6" r="0.6"/>
				<circle class="st1" cx="85.9" cy="-34" r="0.6"/>
				<circle class="st1" cx="85.9" cy="-30.4" r="0.6"/>
				<circle class="st1" cx="85.9" cy="-26.9" r="0.6"/>
				<circle class="st1" cx="85.9" cy="-23.3" r="0.6"/>
				<circle class="st1" cx="85.9" cy="-19.7" r="0.6"/>
				<circle class="st1" cx="85.9" cy="-16.1" r="0.6"/>
				<circle class="st1" cx="85.9" cy="-12.6" r="0.6"/>
				<circle class="st1" cx="85.9" cy="-9" r="0.6"/>
				<circle class="st1" cx="85.9" cy="-5.4" r="0.6"/>
				<circle class="st1" cx="85.9" cy="-1.8" r="0.6"/>
				<circle class="st1" cx="43" cy="-41.2" r="0.6"/>
				<circle class="st1" cx="46.5" cy="-41.2" r="0.6"/>
				<circle class="st1" cx="50.1" cy="-41.2" r="0.6"/>
				<circle class="st1" cx="53.7" cy="-41.2" r="0.6"/>
				<circle class="st1" cx="43" cy="-37.6" r="0.6"/>
				<circle class="st1" cx="46.5" cy="-37.6" r="0.6"/>
				<circle class="st1" cx="50.1" cy="-37.6" r="0.6"/>
				<circle class="st1" cx="53.7" cy="-37.6" r="0.6"/>
				<circle class="st1" cx="43" cy="-34" r="0.6"/>
				<circle class="st1" cx="46.5" cy="-34" r="0.6"/>
				<circle class="st1" cx="50.1" cy="-34" r="0.6"/>
				<circle class="st1" cx="53.7" cy="-34" r="0.6"/>
				<circle class="st1" cx="43" cy="-30.4" r="0.6"/>
				<circle class="st1" cx="46.5" cy="-30.4" r="0.6"/>
				<circle class="st1" cx="50.1" cy="-30.4" r="0.6"/>
				<circle class="st1" cx="53.7" cy="-30.4" r="0.6"/>
				<circle class="st1" cx="43" cy="-26.9" r="0.6"/>
				<circle class="st1" cx="46.5" cy="-26.9" r="0.6"/>
				<circle class="st1" cx="50.1" cy="-26.9" r="0.6"/>
				<circle class="st1" cx="53.7" cy="-26.9" r="0.6"/>
				<circle class="st1" cx="43" cy="-23.3" r="0.6"/>
				<circle class="st1" cx="46.5" cy="-23.3" r="0.6"/>
				<circle class="st1" cx="50.1" cy="-23.3" r="0.6"/>
				<circle class="st1" cx="53.7" cy="-23.3" r="0.6"/>
				<circle class="st1" cx="57.3" cy="-41.2" r="0.6"/>
				<circle class="st1" cx="60.8" cy="-41.2" r="0.6"/>
				<circle class="st1" cx="64.4" cy="-41.2" r="0.6"/>
				<circle class="st1" cx="68" cy="-41.2" r="0.6"/>
				<circle class="st1" cx="71.5" cy="-41.2" r="0.6"/>
				<circle class="st1" cx="57.3" cy="-37.6" r="0.6"/>
				<circle class="st1" cx="60.8" cy="-37.6" r="0.6"/>
				<circle class="st1" cx="64.4" cy="-37.6" r="0.6"/>
				<circle class="st1" cx="68" cy="-37.6" r="0.6"/>
				<circle class="st1" cx="71.5" cy="-37.6" r="0.6"/>
				<circle class="st1" cx="57.3" cy="-34" r="0.6"/>
				<circle class="st1" cx="60.8" cy="-34" r="0.6"/>
				<circle class="st1" cx="64.4" cy="-34" r="0.6"/>
				<circle class="st1" cx="68" cy="-34" r="0.6"/>
				<circle class="st1" cx="71.5" cy="-34" r="0.6"/>
				<circle class="st1" cx="57.3" cy="-30.4" r="0.6"/>
				<circle class="st1" cx="60.8" cy="-30.4" r="0.6"/>
				<circle class="st1" cx="64.4" cy="-30.4" r="0.6"/>
				<circle class="st1" cx="68" cy="-30.4" r="0.6"/>
				<circle class="st1" cx="71.5" cy="-30.4" r="0.6"/>
				<circle class="st1" cx="57.3" cy="-26.9" r="0.6"/>
				<circle class="st1" cx="60.8" cy="-26.9" r="0.6"/>
				<circle class="st1" cx="64.4" cy="-26.9" r="0.6"/>
				<circle class="st1" cx="68" cy="-26.9" r="0.6"/>
				<circle class="st1" cx="71.5" cy="-26.9" r="0.6"/>
				<circle class="st1" cx="57.3" cy="-23.3" r="0.6"/>
				<circle class="st1" cx="60.8" cy="-23.3" r="0.6"/>
				<circle class="st1" cx="64.4" cy="-23.3" r="0.6"/>
				<circle class="st1" cx="68" cy="-23.3" r="0.6"/>
				<circle class="st1" cx="71.5" cy="-23.3" r="0.6"/>
				<circle class="st1" cx="75.1" cy="-41.2" r="0.6"/>
				<circle class="st1" cx="78.7" cy="-41.2" r="0.6"/>
				<circle class="st1" cx="82.3" cy="-41.2" r="0.6"/>
				<circle class="st1" cx="85.8" cy="-41.2" r="0.6"/>
				<circle class="st1" cx="75.1" cy="-37.6" r="0.6"/>
				<circle class="st1" cx="78.7" cy="-37.6" r="0.6"/>
				<circle class="st1" cx="82.3" cy="-37.6" r="0.6"/>
				<circle class="st1" cx="85.8" cy="-37.6" r="0.6"/>
				<circle class="st1" cx="75.1" cy="-34" r="0.6"/>
				<circle class="st1" cx="78.7" cy="-34" r="0.6"/>
				<circle class="st1" cx="82.3" cy="-34" r="0.6"/>
				<circle class="st1" cx="85.8" cy="-34" r="0.6"/>
				<circle class="st1" cx="75.1" cy="-30.4" r="0.6"/>
				<circle class="st1" cx="78.7" cy="-30.4" r="0.6"/>
				<circle class="st1" cx="82.3" cy="-30.4" r="0.6"/>
				<circle class="st1" cx="85.8" cy="-30.4" r="0.6"/>
				<circle class="st1" cx="75.1" cy="-26.9" r="0.6"/>
				<circle class="st1" cx="78.7" cy="-26.9" r="0.6"/>
				<circle class="st1" cx="82.3" cy="-26.9" r="0.6"/>
				<circle class="st1" cx="85.8" cy="-26.9" r="0.6"/>
				<circle class="st1" cx="75.1" cy="-23.3" r="0.6"/>
				<circle class="st1" cx="78.7" cy="-23.3" r="0.6"/>
				<circle class="st1" cx="82.3" cy="-23.3" r="0.6"/>
				<circle class="st1" cx="85.8" cy="-23.3" r="0.6"/>
				<circle class="st1" cx="43" cy="-19.7" r="0.6"/>
				<circle class="st1" cx="46.5" cy="-19.7" r="0.6"/>
				<circle class="st1" cx="50.1" cy="-19.7" r="0.6"/>
				<circle class="st1" cx="53.7" cy="-19.7" r="0.6"/>
				<circle class="st1" cx="43" cy="-16.1" r="0.6"/>
				<circle class="st1" cx="46.5" cy="-16.1" r="0.6"/>
				<circle class="st1" cx="50.1" cy="-16.1" r="0.6"/>
				<circle class="st1" cx="53.7" cy="-16.1" r="0.6"/>
				<circle class="st1" cx="43" cy="-12.6" r="0.6"/>
				<circle class="st1" cx="46.5" cy="-12.6" r="0.6"/>
				<circle class="st1" cx="50.1" cy="-12.6" r="0.6"/>
				<circle class="st1" cx="53.7" cy="-12.6" r="0.6"/>
				<circle class="st1" cx="43" cy="-9" r="0.6"/>
				<circle class="st1" cx="46.5" cy="-9" r="0.6"/>
				<circle class="st1" cx="50.1" cy="-9" r="0.6"/>
				<circle class="st1" cx="53.7" cy="-9" r="0.6"/>
				<circle class="st1" cx="43" cy="-5.4" r="0.6"/>
				<circle class="st1" cx="46.5" cy="-5.4" r="0.6"/>
				<circle class="st1" cx="50.1" cy="-5.4" r="0.6"/>
				<circle class="st1" cx="53.7" cy="-5.4" r="0.6"/>
				<circle class="st1" cx="43" cy="-1.8" r="0.6"/>
				<circle class="st1" cx="46.5" cy="-1.8" r="0.6"/>
				<circle class="st1" cx="50.1" cy="-1.8" r="0.6"/>
				<circle class="st1" cx="53.7" cy="-1.8" r="0.6"/>
				<circle class="st1" cx="57.3" cy="-19.7" r="0.6"/>
				<circle class="st1" cx="60.8" cy="-19.7" r="0.6"/>
				<circle class="st1" cx="64.4" cy="-19.7" r="0.6"/>
				<circle class="st1" cx="68" cy="-19.7" r="0.6"/>
				<circle class="st1" cx="71.5" cy="-19.7" r="0.6"/>
				<circle class="st1" cx="57.3" cy="-16.1" r="0.6"/>
				<circle class="st1" cx="60.8" cy="-16.1" r="0.6"/>
				<circle class="st1" cx="64.4" cy="-16.1" r="0.6"/>
				<circle class="st1" cx="68" cy="-16.1" r="0.6"/>
				<circle class="st1" cx="71.5" cy="-16.1" r="0.6"/>
				<circle class="st1" cx="57.3" cy="-12.6" r="0.6"/>
				<circle class="st1" cx="60.8" cy="-12.6" r="0.6"/>
				<circle class="st1" cx="64.4" cy="-12.6" r="0.6"/>
				<circle class="st1" cx="68" cy="-12.6" r="0.6"/>
				<circle class="st1" cx="71.5" cy="-12.6" r="0.6"/>
				<circle class="st1" cx="57.3" cy="-9" r="0.6"/>
				<circle class="st1" cx="60.8" cy="-9" r="0.6"/>
				<circle class="st1" cx="64.4" cy="-9" r="0.6"/>
				<circle class="st1" cx="68" cy="-9" r="0.6"/>
				<circle class="st1" cx="71.5" cy="-9" r="0.6"/>
				<circle class="st1" cx="57.3" cy="-5.4" r="0.6"/>
				<circle class="st1" cx="60.8" cy="-5.4" r="0.6"/>
				<circle class="st1" cx="64.4" cy="-5.4" r="0.6"/>
				<circle class="st1" cx="68" cy="-5.4" r="0.6"/>
				<circle class="st1" cx="71.5" cy="-5.4" r="0.6"/>
				<circle class="st1" cx="57.3" cy="-1.8" r="0.6"/>
				<circle class="st1" cx="60.8" cy="-1.8" r="0.6"/>
				<circle class="st1" cx="64.4" cy="-1.8" r="0.6"/>
				<circle class="st1" cx="68" cy="-1.8" r="0.6"/>
				<circle class="st1" cx="71.5" cy="-1.8" r="0.6"/>
				<circle class="st1" cx="75.1" cy="-19.7" r="0.6"/>
				<circle class="st1" cx="78.7" cy="-19.7" r="0.6"/>
				<circle class="st1" cx="82.3" cy="-19.7" r="0.6"/>
				<circle class="st1" cx="85.8" cy="-19.7" r="0.6"/>
				<circle class="st1" cx="75.1" cy="-16.1" r="0.6"/>
				<circle class="st1" cx="78.7" cy="-16.1" r="0.6"/>
				<circle class="st1" cx="82.3" cy="-16.1" r="0.6"/>
				<circle class="st1" cx="85.8" cy="-16.1" r="0.6"/>
				<circle class="st1" cx="75.1" cy="-12.6" r="0.6"/>
				<circle class="st1" cx="78.7" cy="-12.6" r="0.6"/>
				<circle class="st1" cx="82.3" cy="-12.6" r="0.6"/>
				<circle class="st1" cx="85.8" cy="-12.6" r="0.6"/>
				<circle class="st1" cx="75.1" cy="-9" r="0.6"/>
				<circle class="st1" cx="78.7" cy="-9" r="0.6"/>
				<circle class="st1" cx="82.3" cy="-9" r="0.6"/>
				<circle class="st1" cx="85.8" cy="-9" r="0.6"/>
				<circle class="st1" cx="75.1" cy="-5.4" r="0.6"/>
				<circle class="st1" cx="78.7" cy="-5.4" r="0.6"/>
				<circle class="st1" cx="82.3" cy="-5.4" r="0.6"/>
				<circle class="st1" cx="85.8" cy="-5.4" r="0.6"/>
				<circle class="st1" cx="75.1" cy="-1.8" r="0.6"/>
				<circle class="st1" cx="78.7" cy="-1.8" r="0.6"/>
				<circle class="st1" cx="82.3" cy="-1.8" r="0.6"/>
				<circle class="st1" cx="85.8" cy="-1.8" r="0.6"/>
				<circle class="st1" cx="42.9" cy="-41.2" r="0.6"/>
				<circle class="st1" cx="42.9" cy="-37.6" r="0.6"/>
				<circle class="st1" cx="42.9" cy="-34" r="0.6"/>
				<circle class="st1" cx="42.9" cy="-30.4" r="0.6"/>
				<circle class="st1" cx="42.9" cy="-26.9" r="0.6"/>
				<circle class="st1" cx="42.9" cy="-23.3" r="0.6"/>
				<circle class="st1" cx="42.9" cy="-19.7" r="0.6"/>
				<circle class="st1" cx="42.9" cy="-16.1" r="0.6"/>
				<circle class="st1" cx="42.9" cy="-12.6" r="0.6"/>
				<circle class="st1" cx="42.9" cy="-9" r="0.6"/>
				<circle class="st1" cx="42.9" cy="-5.4" r="0.6"/>
				<circle class="st1" cx="42.9" cy="-1.8" r="0.6"/>
			</g>
			<g>
				<defs>
					<rect id="SVGID_3_" x="42.9" y="-43" width="43" height="43"/>
				</defs>
				<clipPath id="SVGID_4_">
					<use xlink:href="#SVGID_3_"  style="overflow:visible;"/>
				</clipPath>
				<circle class="st3" cx="42.9" cy="-41.2" r="0.6"/>
				<circle class="st3" cx="42.9" cy="-37.6" r="0.6"/>
				<circle class="st3" cx="42.9" cy="-34" r="0.6"/>
				<circle class="st3" cx="42.9" cy="-30.4" r="0.6"/>
				<circle class="st3" cx="42.9" cy="-26.9" r="0.6"/>
				<circle class="st3" cx="42.9" cy="-23.3" r="0.6"/>
				<circle class="st3" cx="42.9" cy="-19.7" r="0.6"/>
				<circle class="st3" cx="42.9" cy="-16.1" r="0.6"/>
				<circle class="st3" cx="42.9" cy="-12.6" r="0.6"/>
				<circle class="st3" cx="42.9" cy="-9" r="0.6"/>
				<circle class="st3" cx="42.9" cy="-5.4" r="0.6"/>
				<circle class="st3" cx="42.9" cy="-1.8" r="0.6"/>
				<circle class="st3" cx="42.8" cy="-41.2" r="0.6"/>
				<circle class="st3" cx="42.8" cy="-37.6" r="0.6"/>
				<circle class="st3" cx="42.8" cy="-34" r="0.6"/>
				<circle class="st3" cx="42.8" cy="-30.4" r="0.6"/>
				<circle class="st3" cx="42.8" cy="-26.9" r="0.6"/>
				<circle class="st3" cx="42.8" cy="-23.3" r="0.6"/>
				<circle class="st3" cx="42.8" cy="-19.7" r="0.6"/>
				<circle class="st3" cx="42.8" cy="-16.1" r="0.6"/>
				<circle class="st3" cx="42.8" cy="-12.6" r="0.6"/>
				<circle class="st3" cx="42.8" cy="-9" r="0.6"/>
				<circle class="st3" cx="42.8" cy="-5.4" r="0.6"/>
				<circle class="st3" cx="42.8" cy="-1.8" r="0.6"/>
			</g>
		</g>
		<g>
			<g>
				<circle class="st1" cx="43" cy="-41.2" r="0.6"/>
				<circle class="st1" cx="43" cy="-37.6" r="0.6"/>
				<circle class="st1" cx="43" cy="-34" r="0.6"/>
				<circle class="st1" cx="43" cy="-30.4" r="0.6"/>
				<circle class="st1" cx="43" cy="-26.9" r="0.6"/>
				<circle class="st1" cx="43" cy="-23.3" r="0.6"/>
				<circle class="st1" cx="43" cy="-19.7" r="0.6"/>
				<circle class="st1" cx="43" cy="-16.1" r="0.6"/>
				<circle class="st1" cx="43" cy="-12.6" r="0.6"/>
				<circle class="st1" cx="43" cy="-9" r="0.6"/>
				<circle class="st1" cx="43" cy="-5.4" r="0.6"/>
				<circle class="st1" cx="43" cy="-1.8" r="0.6"/>
				<circle class="st1" cx="42.9" cy="-41.2" r="0.6"/>
				<circle class="st1" cx="42.9" cy="-37.6" r="0.6"/>
				<circle class="st1" cx="42.9" cy="-34" r="0.6"/>
				<circle class="st1" cx="42.9" cy="-30.4" r="0.6"/>
				<circle class="st1" cx="42.9" cy="-26.9" r="0.6"/>
				<circle class="st1" cx="42.9" cy="-23.3" r="0.6"/>
				<circle class="st1" cx="42.9" cy="-19.7" r="0.6"/>
				<circle class="st1" cx="42.9" cy="-16.1" r="0.6"/>
				<circle class="st1" cx="42.9" cy="-12.6" r="0.6"/>
				<circle class="st1" cx="42.9" cy="-9" r="0.6"/>
				<circle class="st1" cx="42.9" cy="-5.4" r="0.6"/>
				<circle class="st1" cx="42.9" cy="-1.8" r="0.6"/>
			</g>
			<g>
				<defs>
					<rect id="SVGID_5_" y="-43" width="43" height="43"/>
				</defs>
				<clipPath id="SVGID_6_">
					<use xlink:href="#SVGID_5_"  style="overflow:visible;"/>
				</clipPath>
			</g>
		</g>
	</g>
</pattern>
<g>
	<g>
		<path class="st1" d="M250.5,113.1l0,46.2l0,46.2c0,0.3-0.2,0.5-0.5,0.5h0l-52.1-0.2c-0.1,0-0.3-0.1-0.3-0.3l-0.1-27.7l0.3,0.3
			l-14.5,0l0.4-0.4l0.1,27.7c0,0.2-0.2,0.4-0.4,0.4l-16.7,0c-0.3,0-0.5-0.2-0.5-0.5v0l0-27.7l0.5,0.5l-14.5,0l0.5-0.5l0,27.7
			c0,0.3-0.3,0.6-0.6,0.6l-17.3,0c-0.3,0-0.6-0.3-0.6-0.6l0-27.7l0.6,0.6l-14.5,0l0.7-0.7l0,27.7c0,0.4-0.3,0.7-0.7,0.7l-16.7,0
			c-0.4,0-0.7-0.3-0.7-0.7l0-27.7l0.7,0.7l-14.5,0l0.8-0.8l0,27.7c0,0.4-0.4,0.8-0.8,0.8l-16.7,0c-0.5,0-0.8-0.4-0.8-0.8l0-27.7
			l0.9,0.9l-14.5,0l0.9-0.9l0,27.7c0,0.5-0.4,0.9-0.9,0.9L6,206.6c-0.5,0-1-0.4-1-1v0l0-85.7l0-5.4l0-1.3c0-0.5,0-1,0.2-1.6
			c0.2-1,0.7-2,1.4-2.8c0.7-0.8,1.6-1.4,2.5-1.8c0.5-0.2,1-0.3,1.5-0.4c0.5-0.1,1.1-0.1,1.5-0.1l5.4,0l21.4,0l42.9,0.1l85.7,0.2
			l42.9,0.1l21.4,0l10.7,0l1.3,0c0.4,0,0.9,0,1.4,0.1c1,0.1,1.9,0.5,2.7,1C249.5,109.3,250.5,111.2,250.5,113.1z M249.5,113.1
			c0-1.6-0.8-3.2-2.2-4.2c-0.7-0.5-1.5-0.8-2.3-0.9c-0.4-0.1-0.8,0-1.3,0l-1.3,0l-10.7,0l-21.4,0l-42.9,0.1l-85.7,0.2l-42.9,0.1
			l-21.4,0l-5.4,0c-0.5,0-0.8,0-1.2,0.1c-0.4,0-0.7,0.2-1.1,0.3c-0.7,0.3-1.3,0.7-1.8,1.3c-0.5,0.6-0.8,1.2-1,1.9
			C7,112.5,7,112.8,7,113.2l0,1.3l0,5.4l0,85.7l-1-1l52.1,0.1l-0.9,0.9l0-27.7c0-0.5,0.4-0.9,0.9-0.9h0l14.5,0
			c0.5,0,0.9,0.4,0.9,0.9v0l0,27.7l-0.8-0.8l16.7,0l-0.8,0.8l0-27.7c0-0.4,0.3-0.8,0.8-0.8l14.5,0c0.4,0,0.7,0.3,0.7,0.7l0,27.7
			l-0.7-0.7l16.7,0l-0.7,0.7l0-27.7c0-0.4,0.3-0.7,0.7-0.7h0l14.5,0c0.3,0,0.6,0.3,0.6,0.6l0,27.7L135,205l17.3,0l-0.6,0.6l0-27.7
			c0-0.3,0.2-0.5,0.5-0.5l14.5,0c0.3,0,0.5,0.2,0.5,0.5v0l0,27.7l-0.5-0.5l16.7,0l-0.4,0.4l0.1-27.7c0-0.2,0.2-0.4,0.4-0.4h0l14.5,0
			c0.2,0,0.3,0.2,0.3,0.3l-0.1,27.7l-0.3-0.3l52.1-0.2l-0.5,0.5l0-46.2L249.5,113.1z"/>
	</g>
	<g>
		<path class="st1" d="M233.3,149.9c0.1,18.6,0.1,37.2,0,55.7c0,0.2-0.2,0.4-0.4,0.4h0l-35-0.1c-0.2,0-0.3-0.1-0.3-0.3l-0.1-27.7
			l0.3,0.3l-14.5,0l0.4-0.4l0.1,27.7c0,0.2-0.2,0.4-0.4,0.4l-16.7,0c-0.2,0-0.5-0.2-0.5-0.4v0l-0.1-27.7l0.5,0.5l-14.5,0l0.5-0.5
			l0,27.7c0,0.3-0.3,0.6-0.6,0.6l-17.3,0c-0.3,0-0.6-0.3-0.6-0.6l0-27.7l0.6,0.6l-14.5,0l0.7-0.7l0,27.7c0,0.4-0.3,0.7-0.7,0.7
			l-16.7,0c-0.4,0-0.7-0.3-0.7-0.7l0-27.7l0.8,0.8l-14.5,0l0.8-0.8l0,27.7c0,0.5-0.4,0.8-0.8,0.8h0l-16.7,0c-0.5,0-0.8-0.4-0.8-0.8
			v0l0-27.7l0.9,0.9l-14.5,0l0.9-0.9l0,27.7c0,0.5-0.4,0.9-0.9,0.9h0l-35,0c-0.5,0-0.9-0.4-0.9-0.9l-0.1-55.3c0-0.6,0.4-1,1-1h0
			L233.3,149.9z M232.5,150.6l-209.5,0.6l1-1L24,205.6l-0.9-0.9l35,0l-0.9,0.9l0-27.7c0-0.5,0.4-0.9,0.9-0.9l14.5,0
			c0.5,0,0.9,0.4,0.9,0.9v0l0,27.7l-0.8-0.8l16.7,0l-0.8,0.8l0-27.7c0-0.4,0.3-0.8,0.8-0.8h0l14.5,0c0.4,0,0.8,0.3,0.8,0.8l0,27.7
			l-0.7-0.7l16.7,0l-0.7,0.7l0-27.7c0-0.4,0.3-0.7,0.7-0.7l14.5,0c0.3,0,0.6,0.3,0.6,0.6v0l0,27.7L135,205l17.3,0l-0.6,0.6l0-27.7
			c0-0.3,0.2-0.5,0.5-0.5l14.5,0c0.3,0,0.5,0.2,0.5,0.5v0l-0.1,27.7l-0.5-0.5l16.7,0l-0.4,0.4l0.1-27.7c0-0.2,0.2-0.4,0.4-0.4
			l14.5,0c0.2,0,0.3,0.1,0.3,0.3l-0.1,27.7l-0.3-0.3l35-0.1l-0.4,0.4C232.5,187.2,232.5,169,232.5,150.6z"/>
	</g>
	<g>
		<path class="st1" d="M218.9,177.9c0,2.4-0.8,4.7-2.1,6.6c-1.3,1.9-3.3,3.5-5.5,4.3c-1.1,0.4-2.2,0.6-3.4,0.7c-1.2,0-2.2,0-3.4-0.1
			c-2.2-0.1-4.4-0.2-6.6-0.3h0c-0.1,0-0.1,0-0.1-0.1l0-11.1l0.1,0.1l-14.5,0.1l0.2-0.2l0,11.1c0,0.1-0.1,0.3-0.3,0.3l-16.7,0.1
			c-0.2,0-0.3-0.1-0.3-0.3l0-11.1l0.4,0.4l-14.5,0.1l0.4-0.4l0,11.1c0,0.3-0.2,0.5-0.5,0.5h0l-17.3,0.1c-0.3,0-0.5-0.2-0.5-0.5v0
			l0-11.1l0.6,0.6l-14.5,0l0.6-0.6l0,11.1c0,0.3-0.3,0.6-0.6,0.6l-16.7,0c-0.4,0-0.7-0.3-0.7-0.7l0-11.1l0.7,0.7l-14.5,0l0.7-0.7
			l0,11.1c0,0.4-0.3,0.7-0.7,0.7l-16.7,0c-0.4,0-0.8-0.4-0.8-0.8l0-11.1l0.8,0.8l-14.5,0l0.9-0.9l0,11.1v0c0,0.5-0.4,0.9-0.9,0.9
			l-6.9,0c-1.1,0-2.3,0-3.5-0.1c-1.2-0.1-2.4-0.5-3.6-1c-2.2-1-4.2-2.7-5.4-4.9c-1.3-2.1-1.8-4.7-1.6-7.1c0.2-2.5,1.2-4.9,2.8-6.8
			c1.6-1.9,3.8-3.3,6.2-3.9c0.6-0.2,1.2-0.3,1.8-0.3c0.6-0.1,1.3-0.1,1.8-0.1l3.4,0l6.9,0l54.8,0l54.8,0l27.4,0.1l6.9,0
			c1.2,0,2.3,0,3.5,0c1.2,0,2.5,0.3,3.6,0.7c2.3,0.8,4.4,2.4,5.8,4.4c0.7,1,1.3,2.1,1.6,3.3C218.7,175.5,218.9,176.7,218.9,177.9z
			 M217.3,177.9c0-1.1-0.2-2.1-0.5-3.1c-0.3-1-0.8-2-1.4-2.8c-1.2-1.7-3-3.1-5-3.7c-1-0.3-2-0.6-3.1-0.6c-1.1,0-2.3,0-3.4,0l-6.9,0
			l-27.4,0.1l-54.8,0l-54.8,0l-6.9,0l-3.4,0c-1.1,0-2.1,0.1-3.2,0.3c-2,0.5-3.9,1.7-5.2,3.3c-1.4,1.6-2.2,3.6-2.4,5.7
			c-0.2,2.1,0.3,4.2,1.4,6c1,1.8,2.7,3.3,4.6,4.1c1,0.4,2,0.7,3,0.8c1,0.1,2.2,0.1,3.3,0.1l6.9,0l-0.9,0.9v0l0-11.1v0
			c0-0.5,0.4-0.9,0.9-0.9l14.5,0c0.4,0,0.8,0.4,0.8,0.8l0,11.1l-0.8-0.8l16.7,0l-0.7,0.7l0-11.1c0-0.4,0.3-0.7,0.7-0.7l14.5,0
			c0.4,0,0.7,0.3,0.7,0.7v0l0,11.1l-0.7-0.7l16.7,0l-0.6,0.6l0-11.1c0-0.3,0.3-0.6,0.6-0.6l0,0l14.5,0c0.3,0,0.5,0.2,0.6,0.5v0
			l0,11.1l-0.5-0.5l17.3,0.1l-0.5,0.5l0-11.1c0-0.2,0.2-0.4,0.4-0.4l14.5,0.1c0.2,0,0.4,0.2,0.4,0.4l0,0l0,11.1l-0.3-0.3l16.7,0.1
			l-0.3,0.3l0-11.1c0-0.1,0.1-0.2,0.2-0.2l14.5,0.1c0.1,0,0.1,0.1,0.1,0.1v0l0,11.1l-0.1-0.1h0c2.2-0.1,4.4-0.2,6.6-0.3
			c1.1-0.1,2.2,0,3.3-0.1c1-0.1,2.1-0.4,3-0.8c1.9-0.8,3.6-2.2,4.7-3.9C216.7,182,217.3,180,217.3,177.9z"/>
	</g>
	<g>
		<rect x="120.5" y="177.9" class="st4" width="14.5" height="53.2"/>
		<path class="st1" d="M135,177.9c0.2,8.7,0.4,17.5,0.6,26.4c0.2,8.9,0.3,17.9,0,26.9l0,0c0,0.4-0.3,0.7-0.7,0.7l-14.5,0.1
			c-0.4,0-0.8-0.3-0.8-0.8l0,0c-0.1-4.4-0.2-8.9-0.2-13.3c-0.1-4.4,0-8.9,0-13.3c0-4.4,0-8.9,0.1-13.3c0.1-4.4,0.1-8.9,0.3-13.3l0,0
			c0-0.3,0.3-0.6,0.6-0.6c2.5,0.1,5,0.1,7.4,0.3L135,177.9z M134.9,178l-7.3,0.3c-2.4,0.1-4.7,0.2-7.1,0.3l0.6-0.6
			c0.1,4.4,0.2,8.9,0.3,13.3c0.1,4.4,0.1,8.9,0.1,13.3c0,4.4,0,8.9,0,13.3c0,4.4-0.1,8.9-0.2,13.3l-0.8-0.8l14.5,0.1l-0.7,0.7
			c-0.2-8.8-0.1-17.5,0-26.3C134.5,196,134.7,187.1,134.9,178z"/>
	</g>
	<g>
		<path class="st1" d="M166.8,177.9l0.6,62.3c0,0.4-0.3,0.7-0.7,0.7h0l0,0l-14.5,0.1c-0.4,0-0.8-0.3-0.8-0.8l0,0
			c-0.1-5.2-0.2-10.4-0.2-15.6c-0.1-5.2,0-10.4,0-15.6l0-7.8l0.1-7.8l0.1-7.8l0.2-7.8l0,0c0-0.3,0.3-0.6,0.6-0.6h0
			c2.5,0.1,5,0.1,7.4,0.2L166.8,177.9z M166.6,178l-7.3,0.3c-2.4,0.1-4.8,0.2-7.1,0.2l0.6-0.6l0.2,7.8l0.1,7.8l0.1,7.8l0,7.8
			c0,5.2,0.1,10.4,0,15.6c0,5.2-0.1,10.4-0.2,15.6l-0.8-0.8l14.5,0.1l-0.7,0.7L166.6,178z"/>
	</g>
	<g>
		<rect x="183.4" y="177.9" class="st4" width="14.5" height="42.6"/>
		<path class="st1" d="M198,177.9l0.6,42.7c0,0.4-0.3,0.6-0.6,0.6h0l0,0l-14.5,0.2c-0.4,0-0.8-0.3-0.8-0.8l0,0
			c-0.1-3.6-0.2-7.1-0.2-10.7l0-5.3l0-5.3c0-3.6,0-7.1,0.1-10.7c0.1-3.6,0.1-7.1,0.2-10.7l0,0c0-0.4,0.3-0.7,0.7-0.7l0,0l7.4,0.3
			L198,177.9z M197.8,178l-7.3,0.4l-7.1,0.3l0.7-0.7c0.1,3.6,0.2,7.1,0.2,10.7c0.1,3.6,0.1,7.1,0.1,10.7l0,5.3l0,5.3
			c0,3.6-0.1,7.1-0.2,10.7l-0.8-0.8l14.5,0.2l-0.6,0.6L197.8,178z"/>
	</g>
	<g>
		<rect x="58.1" y="177.9" class="st4" width="14.5" height="62.2"/>
		<path class="st1" d="M72.6,177.9c0.2,5,0.4,10.1,0.5,15.2c0.2,5.1,0.3,10.3,0.4,15.6c0.1,5.2,0.2,10.5,0.2,15.7
			c0,5.3-0.1,10.5-0.4,15.8l0,0c0,0.4-0.3,0.6-0.7,0.7l-14.5,0.1c-0.4,0-0.8-0.3-0.8-0.8l0,0c-0.1-5.2-0.2-10.4-0.2-15.6
			c-0.1-5.2,0-10.4,0-15.6l0-7.8l0.1-7.8l0.1-7.8l0.2-7.8l0,0c0-0.3,0.3-0.6,0.6-0.6h0c2.5,0.1,5,0.1,7.4,0.2L72.6,177.9z M72.5,178
			l-7.3,0.3c-2.4,0.1-4.8,0.2-7.1,0.2l0.6-0.6l0.2,7.8l0.1,7.8l0.1,7.8l0,7.8c0,5.2,0.1,10.4,0,15.6c0,5.2-0.1,10.4-0.2,15.6
			l-0.8-0.8l14.5,0.1l-0.7,0.7c-0.3-5.1-0.4-10.2-0.4-15.3c0-5.1,0.1-10.2,0.2-15.4c0.1-5.1,0.2-10.3,0.4-15.6L72.5,178z"/>
	</g>
	<g>
		<path class="st1" d="M103.8,177.9c0.2,6.9,0.4,14,0.6,21.1c0.1,3.6,0.2,7.2,0.2,10.8c0,3.6,0,7.2-0.2,10.8l0,0
			c0,0.3-0.3,0.6-0.6,0.6l-14.5,0.2c-0.4,0-0.8-0.3-0.8-0.8l0,0c-0.1-3.6-0.2-7.1-0.2-10.7l0-5.3l0-5.3c0-3.6,0-7.1,0.1-10.7
			c0.1-3.6,0.1-7.1,0.2-10.7l0,0c0-0.4,0.3-0.7,0.7-0.7l0,0l7.4,0.3L103.8,177.9z M103.7,178l-7.3,0.4l-7.1,0.3l0.7-0.7
			c0.1,3.6,0.2,7.1,0.2,10.7c0.1,3.6,0.1,7.1,0.1,10.7l0,5.3l0,5.3c0,3.6-0.1,7.1-0.2,10.7l-0.8-0.8l14.5,0.2l-0.6,0.6
			c-0.2-3.5-0.2-7-0.2-10.5c0-3.5,0.1-7,0.2-10.5C103.3,192.5,103.5,185.3,103.7,178z"/>
	</g>
	<g>
		<path class="st1" d="M202.5,15.4c0.1,30.7,0,61.5-0.1,92.2c0,0.2-0.2,0.4-0.4,0.4l-148,0.4c-0.4,0-0.8-0.4-0.8-0.8v0L53,15.9
			c0-0.6,0.5-1,1-1h0l74.3,0.2L202.5,15.4z M201.5,16.3l-73.9,0.3L54,16.9l1-1l-0.2,91.7l-0.8-0.8l148,0.4l-0.4,0.4
			C201.5,77.1,201.5,46.7,201.5,16.3z"/>
	</g>
	<g>
		<path class="st1" d="M39.4,86.4L54,86.5c0.2,0,0.4,0.2,0.4,0.4l0,0c0.1,3.5,0.2,6.9,0.2,10.4l0.2,10.4c0,0.4-0.3,0.7-0.7,0.7h0
			l0,0l-20.2,0.3l-0.2,0c-0.5,0-0.8-0.4-0.9-0.8c0-0.1,0-0.1,0-0.2c0.5-2,0.5-4,0.5-6c0-2,0.1-4,0.1-6l0-3c0-1,0.2-2.2,0.7-3.1
			C35.1,87.6,37.3,86.4,39.4,86.4z M39.4,87.3c-1.8,0-3.6,1-4.5,2.6c-0.4,0.8-0.7,1.7-0.6,2.6l0,3c0,2,0,4,0.1,6c0,2,0,4,0.5,6l-1-1
			l20.2,0.3l-0.7,0.7l0.2-10.4c0-3.5,0.1-6.9,0.2-10.4l0.4,0.4L39.4,87.3z"/>
	</g>
	<g>
		<path class="st1" d="M222.6,92.4l0,15.1c0,0.2-0.2,0.4-0.4,0.4l0,0c-1.7,0.1-3.4,0.1-5,0.1l-5,0l-10.1,0c-0.3,0-0.5-0.2-0.5-0.5v0
			l0.1-20.7c0-0.2,0.2-0.4,0.4-0.4l11.7,0l2.9,0c1,0,2.1,0.3,3,0.8C221.4,88.3,222.6,90.3,222.6,92.4z M221.7,92.4
			c0-1.8-1-3.6-2.6-4.5c-0.8-0.5-1.7-0.7-2.6-0.7l-2.9,0l-11.7,0l0.4-0.4l0.1,20.7L202,107l10.1,0l5,0c1.7,0,3.4,0,5,0.1l-0.4,0.4
			L221.7,92.4z"/>
	</g>
	<g>
		<rect x="67.9" y="27.6" class="st4" width="120.1" height="25.2"/>
		<path class="st1" d="M188.7,53.4l-60.5-0.1c-10.1,0-20.1,0-30.1,0c-10,0-20.1,0-30.1,0.2c-0.4,0-0.7-0.3-0.7-0.7v0v0l-0.1-25.2
			c0-0.4,0.4-0.8,0.8-0.8l0,0c10-0.1,20-0.2,30-0.2l30,0c10,0,20,0,30,0.1c10,0.1,20,0.2,30,0.4c0.3,0,0.5,0.3,0.6,0.6
			C188.7,36.1,188.8,44.8,188.7,53.4z M187.5,52.2c-0.1-8.2,0-16.3,0.1-24.6l0.6,0.6c-10,0.2-20,0.3-30,0.4c-10,0.1-20,0.1-30,0.1
			l-30,0c-10,0-20-0.1-30-0.2l0.8-0.8l-0.1,25.2l-0.7-0.7c10,0.1,20,0.1,29.9,0.2c10,0,20,0.1,29.9,0L187.5,52.2z"/>
	</g>
	<g>
		<rect x="128" y="72.4" class="st4" width="60.1" height="35.2"/>
		<path class="st1" d="M188.5,108l-30.3,0.1h-15.1c-5,0-10.1,0-15.1,0.1c-0.3,0-0.6-0.2-0.6-0.6l0,0v0l-0.2-35.2
			c0-0.4,0.4-0.8,0.8-0.8l0,0c10-0.1,20-0.1,30-0.1l15,0c5,0,10,0,15,0.1l0,0c0.5,0,0.8,0.4,0.8,0.9
			C188.9,84.3,188.7,96.2,188.5,108z M187.6,107.1c-0.2-11.7-0.4-23.2-0.4-34.8l0.9,0.9c-5,0.1-10,0.1-15,0.1l-15,0
			c-10,0-20-0.1-30-0.1l0.8-0.8l-0.2,35.2L128,107c5,0.1,10,0.1,14.9,0.1h14.9L187.6,107.1z"/>
	</g>
	<g>
		<path class="st1" d="M67.9,72.3l11.6-0.4l11.6-0.3c3.9-0.1,7.7-0.3,11.6-0.2c3.9,0.1,7.7,0.3,11.6,0.9c0.1,0,0.1,0.1,0.1,0.1
			c0,0,0,0.1-0.1,0.1c-3.9,0.6-7.7,0.8-11.6,0.9c-3.9,0.1-7.7-0.1-11.6-0.2l-11.6-0.3l-11.6-0.4C67.9,72.5,67.8,72.4,67.9,72.3
			C67.8,72.3,67.9,72.3,67.9,72.3z"/>
	</g>
	<g>
		<path class="st1" d="M67.9,86.7l11.6-0.4L91.2,86c3.9-0.1,7.7-0.3,11.6-0.2c3.9,0.1,7.7,0.3,11.6,0.9c0.1,0,0.1,0.1,0.1,0.1
			c0,0,0,0.1-0.1,0.1c-3.9,0.6-7.7,0.8-11.6,0.9c-3.9,0.1-7.7-0.1-11.6-0.2l-11.6-0.3l-11.6-0.4C67.9,86.9,67.8,86.9,67.9,86.7
			C67.8,86.8,67.9,86.8,67.9,86.7z"/>
	</g>
	<g>
		<path class="st1" d="M67.9,101.2l11.6-0.4l11.6-0.3c3.9-0.1,7.7-0.3,11.6-0.2c3.9,0.1,7.7,0.3,11.6,0.9c0.1,0,0.1,0.1,0.1,0.1
			c0,0,0,0.1-0.1,0.1c-3.9,0.6-7.7,0.8-11.6,0.9c-3.9,0.1-7.7-0.1-11.6-0.2l-11.6-0.3l-11.6-0.4C67.9,101.4,67.8,101.4,67.9,101.2
			C67.8,101.3,67.9,101.2,67.9,101.2z"/>
	</g>
	<g>
		<circle class="st4" cx="29.7" cy="124.6" r="6.6"/>
		<path class="st1" d="M36.3,124.6c0,1.7-0.7,3.5-1.9,4.8c-1.2,1.3-2.9,2.2-4.8,2.3c-1.9,0.1-3.7-0.7-5.1-2
			c-1.4-1.3-2.2-3.2-2.3-5.1c-0.1-1.9,0.7-3.9,2-5.3c1.4-1.4,3.4-2.3,5.3-2.2c1,0,2,0.3,2.8,0.7c0.9,0.5,1.6,1.1,2.2,1.8
			C35.8,121.1,36.4,122.9,36.3,124.6z M36.1,124.6c0-1.7-0.9-3.3-2.2-4.3c-1.3-1-2.8-1.4-4.3-1.3c-1.5,0.1-2.9,0.6-3.9,1.6
			c-1.1,1-1.8,2.4-1.8,3.9c-0.1,1.5,0.5,3.1,1.6,4.2c1.1,1.1,2.6,1.8,4.2,1.9c1.6,0.1,3.2-0.5,4.5-1.6
			C35.4,128,36.2,126.3,36.1,124.6z"/>
	</g>
	<g>
		<circle class="st4" cx="54" cy="124.6" r="6.6"/>
		<path class="st1" d="M60.7,124.6c0,1.7-0.7,3.5-1.9,4.8c-1.2,1.3-2.9,2.2-4.8,2.3c-1.9,0.1-3.7-0.7-5.1-2
			c-1.4-1.3-2.2-3.2-2.3-5.1c-0.1-1.9,0.7-3.9,2-5.3C50,117.8,52,117,54,117c1,0,2,0.3,2.8,0.7c0.9,0.5,1.6,1.1,2.2,1.8
			C60.2,121.1,60.7,122.9,60.7,124.6z M60.5,124.6c0-1.7-0.9-3.3-2.2-4.3c-1.3-1-2.8-1.4-4.3-1.3c-1.5,0.1-2.9,0.6-3.9,1.6
			c-1.1,1-1.8,2.4-1.8,3.9c-0.1,1.5,0.5,3.1,1.6,4.2c1.1,1.1,2.6,1.8,4.2,1.9c1.6,0.1,3.2-0.5,4.5-1.6
			C59.8,128,60.5,126.3,60.5,124.6z"/>
	</g>
	<g>
		<rect x="169.4" y="118.9" class="st4" width="52.7" height="11.5"/>
		<path class="st1" d="M169.5,130.3l52.7-0.6l-0.7,0.7l-0.1-11.5l0.8,0.8c-4.4,0.1-8.8,0.2-13.2,0.2c-4.4,0.1-8.8,0-13.2,0
			c-4.4,0-8.8-0.1-13.2-0.2l-6.6-0.1l-6.6-0.2l0.6-0.6c-0.1,1.8-0.1,3.7-0.2,5.6L169.5,130.3z M169.3,130.4l-0.3-5.7
			c-0.1-1.9-0.2-3.9-0.2-5.9c0-0.3,0.2-0.6,0.5-0.6l0,0l6.6-0.2l6.6-0.1c4.4-0.1,8.8-0.2,13.2-0.2c4.4,0,8.8-0.1,13.2,0
			c4.4,0,8.8,0.1,13.2,0.2l0,0c0.4,0,0.8,0.4,0.8,0.8l-0.1,11.5l0,0c0,0.4-0.3,0.7-0.7,0.7h0L169.3,130.4z"/>
	</g>
	<g>
		<path class="st1" d="M58.1,177.8c2.9-0.2,5.8-0.2,8.7-0.4l8.7-0.2c5.8-0.2,11.7-0.2,17.5-0.3c11.7-0.1,23.3,0.2,35,0.2
			c11.7,0,23.3-0.3,35-0.2c11.7,0.2,23.3,0.3,35,0.9c0.1,0,0.1,0,0.1,0.1c0,0.1,0,0.1-0.1,0.1c-11.7,0.6-23.3,0.7-35,0.9
			c-11.7,0.1-23.3-0.2-35-0.2c-11.7,0-23.3,0.3-35,0.2c-5.8-0.1-11.7-0.1-17.5-0.3l-8.7-0.2c-2.9-0.1-5.8-0.2-8.7-0.4
			C58,178,58,178,58.1,177.8C58,177.9,58,177.8,58.1,177.8z"/>
	</g>
</g>
</svg>
