<?xml version="1.0" encoding="utf-8"?>
<!-- Generator: Adobe Illustrator 22.1.0, SVG Export Plug-In . SVG Version: 6.00 Build 0)  -->
<svg version="1.1" id="Layer_1" xmlns="http://www.w3.org/2000/svg" xmlns:xlink="http://www.w3.org/1999/xlink" x="0px" y="0px"
	 viewBox="0 0 256 256" style="enable-background:new 0 0 256 256;" xml:space="preserve">
<style type="text/css">
	.st0{fill:none;}
	.st1{fill:#253759;}
	.st2{clip-path:url(#SVGID_2_);fill:#253759;}
	.st3{clip-path:url(#SVGID_4_);fill:#253759;}
	.st4{fill:url(#New_Pattern_Swatch_1);}
</style>
<pattern  x="-276" y="-828" width="42.9" height="43" patternUnits="userSpaceOnUse" id="New_Pattern_Swatch_1" viewBox="43 -43 42.9 43" style="overflow:visible;">
	<g>
		<rect x="43" y="-43" class="st0" width="42.9" height="43"/>
		<g>
			<g>
				<circle class="st1" cx="85.9" cy="-41.2" r="0.6"/>
				<circle class="st1" cx="85.9" cy="-37.6" r="0.6"/>
				<circle class="st1" cx="85.9" cy="-34" r="0.6"/>
				<circle class="st1" cx="85.9" cy="-30.4" r="0.6"/>
				<circle class="st1" cx="85.9" cy="-26.9" r="0.6"/>
				<circle class="st1" cx="85.9" cy="-23.3" r="0.6"/>
				<circle class="st1" cx="85.9" cy="-19.7" r="0.6"/>
				<circle class="st1" cx="85.9" cy="-16.1" r="0.6"/>
				<circle class="st1" cx="85.9" cy="-12.6" r="0.6"/>
				<circle class="st1" cx="85.9" cy="-9" r="0.6"/>
				<circle class="st1" cx="85.9" cy="-5.4" r="0.6"/>
				<circle class="st1" cx="85.9" cy="-1.8" r="0.6"/>
				<circle class="st1" cx="85.8" cy="-41.2" r="0.6"/>
				<circle class="st1" cx="85.8" cy="-37.6" r="0.6"/>
				<circle class="st1" cx="85.8" cy="-34" r="0.6"/>
				<circle class="st1" cx="85.8" cy="-30.4" r="0.6"/>
				<circle class="st1" cx="85.8" cy="-26.9" r="0.6"/>
				<circle class="st1" cx="85.8" cy="-23.3" r="0.6"/>
				<circle class="st1" cx="85.8" cy="-19.7" r="0.6"/>
				<circle class="st1" cx="85.8" cy="-16.1" r="0.6"/>
				<circle class="st1" cx="85.8" cy="-12.6" r="0.6"/>
				<circle class="st1" cx="85.8" cy="-9" r="0.6"/>
				<circle class="st1" cx="85.8" cy="-5.4" r="0.6"/>
				<circle class="st1" cx="85.8" cy="-1.8" r="0.6"/>
			</g>
			<g>
				<defs>
					<rect id="SVGID_1_" x="85.8" y="-43" width="43" height="43"/>
				</defs>
				<clipPath id="SVGID_2_">
					<use xlink:href="#SVGID_1_"  style="overflow:visible;"/>
				</clipPath>
				<circle class="st2" cx="85.8" cy="-41.2" r="0.6"/>
				<circle class="st2" cx="85.8" cy="-37.6" r="0.6"/>
				<circle class="st2" cx="85.8" cy="-34" r="0.6"/>
				<circle class="st2" cx="85.8" cy="-30.4" r="0.6"/>
				<circle class="st2" cx="85.8" cy="-26.9" r="0.6"/>
				<circle class="st2" cx="85.8" cy="-23.3" r="0.6"/>
				<circle class="st2" cx="85.8" cy="-19.7" r="0.6"/>
				<circle class="st2" cx="85.8" cy="-16.1" r="0.6"/>
				<circle class="st2" cx="85.8" cy="-12.6" r="0.6"/>
				<circle class="st2" cx="85.8" cy="-9" r="0.6"/>
				<circle class="st2" cx="85.8" cy="-5.4" r="0.6"/>
				<circle class="st2" cx="85.8" cy="-1.8" r="0.6"/>
				<circle class="st2" cx="85.7" cy="-41.2" r="0.6"/>
				<circle class="st2" cx="85.7" cy="-37.6" r="0.6"/>
				<circle class="st2" cx="85.7" cy="-34" r="0.6"/>
				<circle class="st2" cx="85.7" cy="-30.4" r="0.6"/>
				<circle class="st2" cx="85.7" cy="-26.9" r="0.6"/>
				<circle class="st2" cx="85.7" cy="-23.3" r="0.6"/>
				<circle class="st2" cx="85.7" cy="-19.7" r="0.6"/>
				<circle class="st2" cx="85.7" cy="-16.1" r="0.6"/>
				<circle class="st2" cx="85.7" cy="-12.6" r="0.6"/>
				<circle class="st2" cx="85.7" cy="-9" r="0.6"/>
				<circle class="st2" cx="85.7" cy="-5.4" r="0.6"/>
				<circle class="st2" cx="85.7" cy="-1.8" r="0.6"/>
			</g>
		</g>
		<g>
			<g>
				<circle class="st1" cx="85.9" cy="-41.2" r="0.6"/>
				<circle class="st1" cx="85.9" cy="-37.6" r="0.6"/>
				<circle class="st1" cx="85.9" cy="-34" r="0.6"/>
				<circle class="st1" cx="85.9" cy="-30.4" r="0.6"/>
				<circle class="st1" cx="85.9" cy="-26.9" r="0.6"/>
				<circle class="st1" cx="85.9" cy="-23.3" r="0.6"/>
				<circle class="st1" cx="85.9" cy="-19.7" r="0.6"/>
				<circle class="st1" cx="85.9" cy="-16.1" r="0.6"/>
				<circle class="st1" cx="85.9" cy="-12.6" r="0.6"/>
				<circle class="st1" cx="85.9" cy="-9" r="0.6"/>
				<circle class="st1" cx="85.9" cy="-5.4" r="0.6"/>
				<circle class="st1" cx="85.9" cy="-1.8" r="0.6"/>
				<circle class="st1" cx="43" cy="-41.2" r="0.6"/>
				<circle class="st1" cx="46.5" cy="-41.2" r="0.6"/>
				<circle class="st1" cx="50.1" cy="-41.2" r="0.6"/>
				<circle class="st1" cx="53.7" cy="-41.2" r="0.6"/>
				<circle class="st1" cx="43" cy="-37.6" r="0.6"/>
				<circle class="st1" cx="46.5" cy="-37.6" r="0.6"/>
				<circle class="st1" cx="50.1" cy="-37.6" r="0.6"/>
				<circle class="st1" cx="53.7" cy="-37.6" r="0.6"/>
				<circle class="st1" cx="43" cy="-34" r="0.6"/>
				<circle class="st1" cx="46.5" cy="-34" r="0.6"/>
				<circle class="st1" cx="50.1" cy="-34" r="0.6"/>
				<circle class="st1" cx="53.7" cy="-34" r="0.6"/>
				<circle class="st1" cx="43" cy="-30.4" r="0.6"/>
				<circle class="st1" cx="46.5" cy="-30.4" r="0.6"/>
				<circle class="st1" cx="50.1" cy="-30.4" r="0.6"/>
				<circle class="st1" cx="53.7" cy="-30.4" r="0.6"/>
				<circle class="st1" cx="43" cy="-26.9" r="0.6"/>
				<circle class="st1" cx="46.5" cy="-26.9" r="0.6"/>
				<circle class="st1" cx="50.1" cy="-26.9" r="0.6"/>
				<circle class="st1" cx="53.7" cy="-26.9" r="0.6"/>
				<circle class="st1" cx="43" cy="-23.3" r="0.6"/>
				<circle class="st1" cx="46.5" cy="-23.3" r="0.6"/>
				<circle class="st1" cx="50.1" cy="-23.3" r="0.6"/>
				<circle class="st1" cx="53.7" cy="-23.3" r="0.6"/>
				<circle class="st1" cx="57.3" cy="-41.2" r="0.6"/>
				<circle class="st1" cx="60.8" cy="-41.2" r="0.6"/>
				<circle class="st1" cx="64.4" cy="-41.2" r="0.6"/>
				<circle class="st1" cx="68" cy="-41.2" r="0.6"/>
				<circle class="st1" cx="71.5" cy="-41.2" r="0.6"/>
				<circle class="st1" cx="57.3" cy="-37.6" r="0.6"/>
				<circle class="st1" cx="60.8" cy="-37.6" r="0.6"/>
				<circle class="st1" cx="64.4" cy="-37.6" r="0.6"/>
				<circle class="st1" cx="68" cy="-37.6" r="0.6"/>
				<circle class="st1" cx="71.5" cy="-37.6" r="0.6"/>
				<circle class="st1" cx="57.3" cy="-34" r="0.6"/>
				<circle class="st1" cx="60.8" cy="-34" r="0.6"/>
				<circle class="st1" cx="64.4" cy="-34" r="0.6"/>
				<circle class="st1" cx="68" cy="-34" r="0.6"/>
				<circle class="st1" cx="71.5" cy="-34" r="0.6"/>
				<circle class="st1" cx="57.3" cy="-30.4" r="0.6"/>
				<circle class="st1" cx="60.8" cy="-30.4" r="0.6"/>
				<circle class="st1" cx="64.4" cy="-30.4" r="0.6"/>
				<circle class="st1" cx="68" cy="-30.4" r="0.6"/>
				<circle class="st1" cx="71.5" cy="-30.4" r="0.6"/>
				<circle class="st1" cx="57.3" cy="-26.9" r="0.6"/>
				<circle class="st1" cx="60.8" cy="-26.9" r="0.6"/>
				<circle class="st1" cx="64.4" cy="-26.9" r="0.6"/>
				<circle class="st1" cx="68" cy="-26.9" r="0.6"/>
				<circle class="st1" cx="71.5" cy="-26.9" r="0.6"/>
				<circle class="st1" cx="57.3" cy="-23.3" r="0.6"/>
				<circle class="st1" cx="60.8" cy="-23.3" r="0.6"/>
				<circle class="st1" cx="64.4" cy="-23.3" r="0.6"/>
				<circle class="st1" cx="68" cy="-23.3" r="0.6"/>
				<circle class="st1" cx="71.5" cy="-23.3" r="0.6"/>
				<circle class="st1" cx="75.1" cy="-41.2" r="0.6"/>
				<circle class="st1" cx="78.7" cy="-41.2" r="0.6"/>
				<circle class="st1" cx="82.3" cy="-41.2" r="0.6"/>
				<circle class="st1" cx="85.8" cy="-41.2" r="0.6"/>
				<circle class="st1" cx="75.1" cy="-37.6" r="0.6"/>
				<circle class="st1" cx="78.7" cy="-37.6" r="0.6"/>
				<circle class="st1" cx="82.3" cy="-37.6" r="0.6"/>
				<circle class="st1" cx="85.8" cy="-37.6" r="0.6"/>
				<circle class="st1" cx="75.1" cy="-34" r="0.6"/>
				<circle class="st1" cx="78.7" cy="-34" r="0.6"/>
				<circle class="st1" cx="82.3" cy="-34" r="0.6"/>
				<circle class="st1" cx="85.8" cy="-34" r="0.6"/>
				<circle class="st1" cx="75.1" cy="-30.4" r="0.6"/>
				<circle class="st1" cx="78.7" cy="-30.4" r="0.6"/>
				<circle class="st1" cx="82.3" cy="-30.4" r="0.6"/>
				<circle class="st1" cx="85.8" cy="-30.4" r="0.6"/>
				<circle class="st1" cx="75.1" cy="-26.9" r="0.6"/>
				<circle class="st1" cx="78.7" cy="-26.9" r="0.6"/>
				<circle class="st1" cx="82.3" cy="-26.9" r="0.6"/>
				<circle class="st1" cx="85.8" cy="-26.9" r="0.6"/>
				<circle class="st1" cx="75.1" cy="-23.3" r="0.6"/>
				<circle class="st1" cx="78.7" cy="-23.3" r="0.6"/>
				<circle class="st1" cx="82.3" cy="-23.3" r="0.6"/>
				<circle class="st1" cx="85.8" cy="-23.3" r="0.6"/>
				<circle class="st1" cx="43" cy="-19.7" r="0.6"/>
				<circle class="st1" cx="46.5" cy="-19.7" r="0.6"/>
				<circle class="st1" cx="50.1" cy="-19.7" r="0.6"/>
				<circle class="st1" cx="53.7" cy="-19.7" r="0.6"/>
				<circle class="st1" cx="43" cy="-16.1" r="0.6"/>
				<circle class="st1" cx="46.5" cy="-16.1" r="0.6"/>
				<circle class="st1" cx="50.1" cy="-16.1" r="0.6"/>
				<circle class="st1" cx="53.7" cy="-16.1" r="0.6"/>
				<circle class="st1" cx="43" cy="-12.6" r="0.6"/>
				<circle class="st1" cx="46.5" cy="-12.6" r="0.6"/>
				<circle class="st1" cx="50.1" cy="-12.6" r="0.6"/>
				<circle class="st1" cx="53.7" cy="-12.6" r="0.6"/>
				<circle class="st1" cx="43" cy="-9" r="0.6"/>
				<circle class="st1" cx="46.5" cy="-9" r="0.6"/>
				<circle class="st1" cx="50.1" cy="-9" r="0.6"/>
				<circle class="st1" cx="53.7" cy="-9" r="0.6"/>
				<circle class="st1" cx="43" cy="-5.4" r="0.6"/>
				<circle class="st1" cx="46.5" cy="-5.4" r="0.6"/>
				<circle class="st1" cx="50.1" cy="-5.4" r="0.6"/>
				<circle class="st1" cx="53.7" cy="-5.4" r="0.6"/>
				<circle class="st1" cx="43" cy="-1.8" r="0.6"/>
				<circle class="st1" cx="46.5" cy="-1.8" r="0.6"/>
				<circle class="st1" cx="50.1" cy="-1.8" r="0.6"/>
				<circle class="st1" cx="53.7" cy="-1.8" r="0.6"/>
				<circle class="st1" cx="57.3" cy="-19.7" r="0.6"/>
				<circle class="st1" cx="60.8" cy="-19.7" r="0.6"/>
				<circle class="st1" cx="64.4" cy="-19.7" r="0.6"/>
				<circle class="st1" cx="68" cy="-19.7" r="0.6"/>
				<circle class="st1" cx="71.5" cy="-19.7" r="0.6"/>
				<circle class="st1" cx="57.3" cy="-16.1" r="0.6"/>
				<circle class="st1" cx="60.8" cy="-16.1" r="0.6"/>
				<circle class="st1" cx="64.4" cy="-16.1" r="0.6"/>
				<circle class="st1" cx="68" cy="-16.1" r="0.6"/>
				<circle class="st1" cx="71.5" cy="-16.1" r="0.6"/>
				<circle class="st1" cx="57.3" cy="-12.6" r="0.6"/>
				<circle class="st1" cx="60.8" cy="-12.6" r="0.6"/>
				<circle class="st1" cx="64.4" cy="-12.6" r="0.6"/>
				<circle class="st1" cx="68" cy="-12.6" r="0.6"/>
				<circle class="st1" cx="71.5" cy="-12.6" r="0.6"/>
				<circle class="st1" cx="57.3" cy="-9" r="0.6"/>
				<circle class="st1" cx="60.8" cy="-9" r="0.6"/>
				<circle class="st1" cx="64.4" cy="-9" r="0.6"/>
				<circle class="st1" cx="68" cy="-9" r="0.6"/>
				<circle class="st1" cx="71.5" cy="-9" r="0.6"/>
				<circle class="st1" cx="57.3" cy="-5.4" r="0.6"/>
				<circle class="st1" cx="60.8" cy="-5.4" r="0.6"/>
				<circle class="st1" cx="64.4" cy="-5.4" r="0.6"/>
				<circle class="st1" cx="68" cy="-5.4" r="0.6"/>
				<circle class="st1" cx="71.5" cy="-5.4" r="0.6"/>
				<circle class="st1" cx="57.3" cy="-1.8" r="0.6"/>
				<circle class="st1" cx="60.8" cy="-1.8" r="0.6"/>
				<circle class="st1" cx="64.4" cy="-1.8" r="0.6"/>
				<circle class="st1" cx="68" cy="-1.8" r="0.6"/>
				<circle class="st1" cx="71.5" cy="-1.8" r="0.6"/>
				<circle class="st1" cx="75.1" cy="-19.7" r="0.6"/>
				<circle class="st1" cx="78.7" cy="-19.7" r="0.6"/>
				<circle class="st1" cx="82.3" cy="-19.7" r="0.6"/>
				<circle class="st1" cx="85.8" cy="-19.7" r="0.6"/>
				<circle class="st1" cx="75.1" cy="-16.1" r="0.6"/>
				<circle class="st1" cx="78.7" cy="-16.1" r="0.6"/>
				<circle class="st1" cx="82.3" cy="-16.1" r="0.6"/>
				<circle class="st1" cx="85.8" cy="-16.1" r="0.6"/>
				<circle class="st1" cx="75.1" cy="-12.6" r="0.6"/>
				<circle class="st1" cx="78.7" cy="-12.6" r="0.6"/>
				<circle class="st1" cx="82.3" cy="-12.6" r="0.6"/>
				<circle class="st1" cx="85.8" cy="-12.6" r="0.6"/>
				<circle class="st1" cx="75.1" cy="-9" r="0.6"/>
				<circle class="st1" cx="78.7" cy="-9" r="0.6"/>
				<circle class="st1" cx="82.3" cy="-9" r="0.6"/>
				<circle class="st1" cx="85.8" cy="-9" r="0.6"/>
				<circle class="st1" cx="75.1" cy="-5.4" r="0.6"/>
				<circle class="st1" cx="78.7" cy="-5.4" r="0.6"/>
				<circle class="st1" cx="82.3" cy="-5.4" r="0.6"/>
				<circle class="st1" cx="85.8" cy="-5.4" r="0.6"/>
				<circle class="st1" cx="75.1" cy="-1.8" r="0.6"/>
				<circle class="st1" cx="78.7" cy="-1.8" r="0.6"/>
				<circle class="st1" cx="82.3" cy="-1.8" r="0.6"/>
				<circle class="st1" cx="85.8" cy="-1.8" r="0.6"/>
				<circle class="st1" cx="42.9" cy="-41.2" r="0.6"/>
				<circle class="st1" cx="42.9" cy="-37.6" r="0.6"/>
				<circle class="st1" cx="42.9" cy="-34" r="0.6"/>
				<circle class="st1" cx="42.9" cy="-30.4" r="0.6"/>
				<circle class="st1" cx="42.9" cy="-26.9" r="0.6"/>
				<circle class="st1" cx="42.9" cy="-23.3" r="0.6"/>
				<circle class="st1" cx="42.9" cy="-19.7" r="0.6"/>
				<circle class="st1" cx="42.9" cy="-16.1" r="0.6"/>
				<circle class="st1" cx="42.9" cy="-12.6" r="0.6"/>
				<circle class="st1" cx="42.9" cy="-9" r="0.6"/>
				<circle class="st1" cx="42.9" cy="-5.4" r="0.6"/>
				<circle class="st1" cx="42.9" cy="-1.8" r="0.6"/>
			</g>
			<g>
				<defs>
					<rect id="SVGID_3_" x="42.9" y="-43" width="43" height="43"/>
				</defs>
				<clipPath id="SVGID_4_">
					<use xlink:href="#SVGID_3_"  style="overflow:visible;"/>
				</clipPath>
				<circle class="st3" cx="42.9" cy="-41.2" r="0.6"/>
				<circle class="st3" cx="42.9" cy="-37.6" r="0.6"/>
				<circle class="st3" cx="42.9" cy="-34" r="0.6"/>
				<circle class="st3" cx="42.9" cy="-30.4" r="0.6"/>
				<circle class="st3" cx="42.9" cy="-26.9" r="0.6"/>
				<circle class="st3" cx="42.9" cy="-23.3" r="0.6"/>
				<circle class="st3" cx="42.9" cy="-19.7" r="0.6"/>
				<circle class="st3" cx="42.9" cy="-16.1" r="0.6"/>
				<circle class="st3" cx="42.9" cy="-12.6" r="0.6"/>
				<circle class="st3" cx="42.9" cy="-9" r="0.6"/>
				<circle class="st3" cx="42.9" cy="-5.4" r="0.6"/>
				<circle class="st3" cx="42.9" cy="-1.8" r="0.6"/>
				<circle class="st3" cx="42.8" cy="-41.2" r="0.6"/>
				<circle class="st3" cx="42.8" cy="-37.6" r="0.6"/>
				<circle class="st3" cx="42.8" cy="-34" r="0.6"/>
				<circle class="st3" cx="42.8" cy="-30.4" r="0.6"/>
				<circle class="st3" cx="42.8" cy="-26.9" r="0.6"/>
				<circle class="st3" cx="42.8" cy="-23.3" r="0.6"/>
				<circle class="st3" cx="42.8" cy="-19.7" r="0.6"/>
				<circle class="st3" cx="42.8" cy="-16.1" r="0.6"/>
				<circle class="st3" cx="42.8" cy="-12.6" r="0.6"/>
				<circle class="st3" cx="42.8" cy="-9" r="0.6"/>
				<circle class="st3" cx="42.8" cy="-5.4" r="0.6"/>
				<circle class="st3" cx="42.8" cy="-1.8" r="0.6"/>
			</g>
		</g>
		<g>
			<g>
				<circle class="st1" cx="43" cy="-41.2" r="0.6"/>
				<circle class="st1" cx="43" cy="-37.6" r="0.6"/>
				<circle class="st1" cx="43" cy="-34" r="0.6"/>
				<circle class="st1" cx="43" cy="-30.4" r="0.6"/>
				<circle class="st1" cx="43" cy="-26.9" r="0.6"/>
				<circle class="st1" cx="43" cy="-23.3" r="0.6"/>
				<circle class="st1" cx="43" cy="-19.7" r="0.6"/>
				<circle class="st1" cx="43" cy="-16.1" r="0.6"/>
				<circle class="st1" cx="43" cy="-12.6" r="0.6"/>
				<circle class="st1" cx="43" cy="-9" r="0.6"/>
				<circle class="st1" cx="43" cy="-5.4" r="0.6"/>
				<circle class="st1" cx="43" cy="-1.8" r="0.6"/>
				<circle class="st1" cx="42.9" cy="-41.2" r="0.6"/>
				<circle class="st1" cx="42.9" cy="-37.6" r="0.6"/>
				<circle class="st1" cx="42.9" cy="-34" r="0.6"/>
				<circle class="st1" cx="42.9" cy="-30.4" r="0.6"/>
				<circle class="st1" cx="42.9" cy="-26.9" r="0.6"/>
				<circle class="st1" cx="42.9" cy="-23.3" r="0.6"/>
				<circle class="st1" cx="42.9" cy="-19.7" r="0.6"/>
				<circle class="st1" cx="42.9" cy="-16.1" r="0.6"/>
				<circle class="st1" cx="42.9" cy="-12.6" r="0.6"/>
				<circle class="st1" cx="42.9" cy="-9" r="0.6"/>
				<circle class="st1" cx="42.9" cy="-5.4" r="0.6"/>
				<circle class="st1" cx="42.9" cy="-1.8" r="0.6"/>
			</g>
			<g>
				<defs>
					<rect id="SVGID_5_" y="-43" width="43" height="43"/>
				</defs>
				<clipPath id="SVGID_6_">
					<use xlink:href="#SVGID_5_"  style="overflow:visible;"/>
				</clipPath>
			</g>
		</g>
	</g>
</pattern>
<g>
	<g>
		<path class="st1" d="M82.2,216.9l0.2,8.6l0.2,8.8c0,2.9,0.1,5.9,0,8.9c0,3,0,5.9,0,8.9c0,0.3-0.2,0.5-0.5,0.5
			c-0.2,0-0.3-0.1-0.4-0.2l0,0l-12.5-14l1,0L58,252.6c-0.3,0.4-0.9,0.4-1.2,0.1c-0.2-0.2-0.3-0.4-0.3-0.6l0,0l-0.2-17.5l0-8.7
			c0-2.9,0.1-5.8,0.1-8.7c0-0.5,0.4-0.9,0.9-0.9l0.1,0l0,0l0.9,0.1c0.4,0,0.8,0,1.1,0.1l1.1,0.2c0.4,0.1,0.7,0.2,1.1,0.3l-0.3,0l0,0
			l0,0c0.1,0,0.2,0,0.2,0c1,0.3,1.8,0.9,2.7,1.4c0.7,0.5,1.4,1,2.2,1.3c1.6,0.6,3.4,0.8,5.1,0.5c0.9-0.2,1.7-0.5,2.5-0.9
			c0.4-0.2,0.7-0.4,1.2-0.7c0.4-0.3,0.8-0.5,1.3-0.7l1.3-0.5c0.5-0.1,0.9-0.2,1.4-0.3C80.2,216.9,81.2,216.9,82.2,216.9z M82,217.1
			c-0.9,0.2-1.8,0.2-2.6,0.4c-0.4,0.1-0.9,0.2-1.3,0.4l-1.2,0.6c-0.4,0.2-0.8,0.5-1.1,0.7c-0.4,0.3-0.8,0.6-1.2,0.8
			c-0.8,0.5-1.7,0.9-2.7,1.1c-1.9,0.5-3.9,0.4-5.8-0.2c-0.9-0.3-1.8-0.8-2.6-1.3c-0.7-0.4-1.4-0.9-2.3-1.1l0.2,0l0,0
			c0,0-0.1,0-0.1,0l-0.1,0c-0.3-0.1-0.6-0.2-0.9-0.2l-0.9-0.1c-0.3,0-0.6,0-1,0l-1.2-0.1l1-0.9c0,2.9,0.1,5.8,0.1,8.7l0,8.7
			L58.2,252l-1.5-0.6l12.5-14l0,0c0.2-0.3,0.7-0.3,0.9-0.1c0,0,0,0,0.1,0.1l12.2,14.2l-0.9,0.3c0-2.9,0-5.8,0-8.6c0-2.9,0-5.7,0-8.6
			l0.2-8.7L82,217.1z"/>
	</g>
	<g>
		<path class="st1" d="M194.1,103.4l-44.5,77.3l-0.1-0.2l12.9,7.4l-0.3,0.1l35.8-62.2c0.1-0.2,0.3-0.2,0.5-0.1
			c0.1,0.1,0.2,0.2,0.2,0.3l0.2,105.9c0,0.3-0.2,0.5-0.5,0.5h0l-116.1-0.1c-0.2,0-0.4-0.2-0.4-0.4l0,0L81.4,217l0.8,0.7
			c-0.5,0-1.1,0.1-1.5,0.1c-0.4,0-0.9,0.1-1.3,0.1c-0.4,0.1-0.8,0.2-1.2,0.3l-1.2,0.5c-0.4,0.2-0.8,0.4-1.1,0.6
			c-0.4,0.2-0.8,0.6-1.2,0.8c-0.9,0.5-1.8,0.8-2.8,1.1c-1.9,0.4-4,0.3-5.8-0.4c-0.9-0.3-1.8-0.9-2.6-1.4c-0.7-0.4-1.4-0.9-2.3-1.1
			l0.2,0h0c0,0-0.1,0-0.1,0l-0.2,0c-0.3-0.1-0.6-0.2-0.9-0.2l-1-0.2c-0.3,0-0.6,0-1-0.1l-1.2-0.1l0.8-0.7l0,14.7
			c0,0.4-0.3,0.8-0.8,0.8l-29.8,0c-0.4,0-0.8-0.4-0.8-0.8l-0.2-112.6l0-112.6c0-0.6,0.4-1,1-1c14.2,0,28.4,0,42.7,0.1l42.7,0.2
			L198.2,6c0.2,0,0.4,0.2,0.4,0.4v0l-0.2,44.9l-0.1,44.9c0,0,0,0,0,0.1L194.1,103.4z M193.9,103.3l4.1-7.2l0,0.1l-0.1-44.9
			l-0.2-44.9l0.4,0.4l-85.3,0.3L70.2,7.4C56,7.4,41.8,7.4,27.5,7.4l1-1l0,112.6l-0.2,112.6l-0.8-0.8l29.8,0l-0.8,0.8l0-14.7
			c0-0.4,0.3-0.7,0.7-0.7l0,0l0.1,0l0.9,0.1c0.4,0,0.7,0,1.1,0.1l1.1,0.2c0.4,0,0.8,0.2,1.1,0.3l-0.3-0.1h0c0.1,0,0.1,0,0.2,0l0,0
			c1,0.3,1.8,0.8,2.7,1.4c0.7,0.5,1.4,0.9,2.3,1.2c1.6,0.6,3.4,0.7,5,0.4c0.8-0.2,1.6-0.5,2.4-0.9c0.4-0.2,0.7-0.4,1.1-0.7
			c0.4-0.3,0.8-0.5,1.3-0.7l1.4-0.6c0.5-0.2,0.9-0.3,1.4-0.4c0.5-0.1,1-0.1,1.5-0.1c0.5,0,0.9-0.1,1.3-0.1l0.1,0
			c0.4,0,0.7,0.3,0.7,0.7l0,0l-0.3,14.7l-0.4-0.4l116.1-0.1l-0.5,0.5l0.2-105.9l0.6,0.2l-36,62.1c-0.1,0.1-0.2,0.1-0.3,0.1
			l-12.8-7.4c-0.1,0-0.1-0.2-0.1-0.2l0,0L193.9,103.3z"/>
	</g>
	<g>
		<path class="st1" d="M184.4,43.6l-71.3,0l-35.6,0.1l-35.6,0.2c-0.4,0-0.7-0.3-0.7-0.7v0l0,0L41,20.1c0-0.4,0.4-0.8,0.8-0.8h0
			l35.5-0.2l35.5,0l35.5,0.1c11.8,0.1,23.7,0.2,35.5,0.4c0.3,0,0.5,0.2,0.5,0.5C184.5,27.9,184.4,35.8,184.4,43.6z M183.5,42.7
			c-0.1-7.6-0.1-15.1,0-22.6l0.5,0.5c-11.8,0.2-23.7,0.3-35.5,0.4l-35.5,0.1l-35.5,0l-35.5-0.2l0.8-0.8l-0.1,23.1l-0.7-0.7l35.4,0.2
			l35.4,0.1L183.5,42.7z"/>
	</g>
	<g>
		<rect x="45.9" y="24.2" class="st4" width="133.8" height="14.8"/>
		<path class="st1" d="M45.9,39.1l-0.1-14.9c0-0.1,0.1-0.2,0.2-0.2h0l133.8-0.6c0.4,0,0.8,0.4,0.8,0.8l0,0l0.1,14.8
			c0,0.5-0.4,0.9-0.9,0.9h0l0,0c-11.2,0.1-22.4,0.1-33.7,0.1c-11.2-0.1-22.4,0-33.6-0.2c-11.2-0.1-22.4-0.2-33.5-0.3L45.9,39.1z
			 M46,39l33.8-0.5l33.5-0.3c11.1-0.1,22.2-0.1,33.3-0.2c11.1,0,22.2,0,33.3,0.1l-0.9,0.9l0.1-14.8l0.8,0.8L45.9,24.4l0.2-0.2L46,39
			z"/>
	</g>
	<g>
		<path class="st4" d="M84.8,191.9c0,3.2-1,6.2-2.7,8.6c-2.7,3.9-7.3,6.5-12.4,6.5s-9.6-2.6-12.4-6.5c-1.7-2.4-2.7-5.4-2.7-8.6
			c0-8.3,6.7-15.1,15.1-15.1S84.8,183.6,84.8,191.9z"/>
		<path class="st1" d="M84.9,191.9c0,4-1.6,7.9-4.4,10.8c-2.7,2.9-6.7,4.7-10.8,4.8c-4.1,0.1-8.2-1.6-11.1-4.5
			c-3-2.9-4.7-7-4.8-11.1c-0.1-4.2,1.6-8.3,4.5-11.4c1.5-1.5,3.2-2.7,5.2-3.5c2-0.8,4.1-1.2,6.2-1.2c2.1,0,4.2,0.5,6.1,1.4
			c1.9,0.9,3.6,2.1,5,3.7C83.5,183.9,84.9,187.9,84.9,191.9z M84.7,191.9c0-2-0.5-3.9-1.3-5.7c-0.8-1.8-2-3.3-3.4-4.6
			c-2.8-2.6-6.6-3.8-10.3-3.8c-3.7,0-7.3,1.5-10,4.1c-2.7,2.6-4.3,6.2-4.3,10c-0.1,3.7,1.4,7.5,4.1,10.2c2.6,2.7,6.4,4.3,10.2,4.4
			c3.8,0.1,7.7-1.4,10.5-4.1c1.4-1.4,2.6-3,3.3-4.8C84.3,195.8,84.7,193.9,84.7,191.9z"/>
	</g>
	<g>
		<path class="st1" d="M96.6,191.9c0-1,0.1-1.9,0.4-2.8c0.3-0.9,0.5-1.8,0.5-2.8c0.1-1.9-0.4-3.8-1.4-5.3c-0.5-0.8-1.1-1.5-1.8-2.1
			c-0.7-0.6-1.5-1.1-2.2-1.8c-0.7-0.7-1.2-1.5-1.6-2.4c-0.5-0.9-0.7-1.8-1.1-2.6c-0.9-1.6-2.2-3-3.8-3.9c-0.8-0.4-1.7-0.8-2.6-0.9
			c-0.4-0.1-0.9-0.2-1.4-0.2c-0.4,0-0.9,0-1.4,0c-1.9-0.1-3.9-0.9-5.4-2c-1.5-1-3.3-1.5-5.1-1.5c-1.8,0-3.6,0.6-5,1.6
			c-1.5,1.2-3.5,2-5.5,2.1c-0.2,0-0.5,0-0.7,0c-0.2,0-0.4,0-0.7,0c-0.4,0-0.9,0.1-1.3,0.2c-0.9,0.2-1.7,0.5-2.5,1
			c-1.5,0.9-2.8,2.2-3.6,3.8c-0.2,0.4-0.4,0.8-0.5,1.2c-0.1,0.5-0.3,0.9-0.6,1.4c-0.4,0.9-1,1.8-1.7,2.5c-0.7,0.8-1.6,1.4-2.2,1.9
			c-0.7,0.6-1.2,1.3-1.7,2c-0.9,1.5-1.3,3.3-1.3,5c0,0.9,0.2,1.7,0.5,2.6c0.3,1,0.5,2,0.5,3c0,1-0.1,2.1-0.4,3
			c-0.3,0.9-0.4,1.7-0.5,2.6c0,1.7,0.4,3.5,1.3,4.9c0.5,0.7,1,1.4,1.7,1.9c0.6,0.5,1.6,1.1,2.2,1.9c0.7,0.8,1.3,1.6,1.8,2.5
			c0.2,0.5,0.4,1,0.6,1.4c0.1,0.4,0.3,0.8,0.5,1.2c0.8,1.5,2,2.8,3.5,3.6c0.7,0.4,1.5,0.7,2.4,0.9c0.2,0,0.4,0.1,0.6,0.1
			c0.2,0,0.4,0,0.6,0.1l0.6,0c0.3,0,0.5,0,0.8,0c1,0.1,2.1,0.3,3,0.7c0.5,0.2,1,0.4,1.4,0.7c0.2,0.1,0.4,0.3,0.7,0.4l0.6,0.4
			c1.4,0.9,3.1,1.5,4.8,1.5c1.7,0,3.4-0.5,4.8-1.4c0.3-0.2,0.8-0.6,1.3-0.8c0.5-0.2,0.9-0.5,1.4-0.6c1-0.4,2-0.6,3-0.6l1.4,0
			c0.2,0,0.4,0,0.7,0c0.2,0,0.4-0.1,0.6-0.1c0.9-0.2,1.7-0.4,2.5-0.9c1.6-0.8,2.9-2.1,3.7-3.7c0.2-0.4,0.4-0.8,0.6-1.2
			c0.2-0.4,0.4-0.9,0.6-1.4c0.5-0.9,1-1.7,1.7-2.4c0.7-0.7,1.5-1.3,2.2-1.8c0.7-0.6,1.3-1.3,1.8-2.1c1-1.6,1.5-3.4,1.5-5.3
			c0-0.9-0.2-1.8-0.5-2.7C96.7,193.8,96.6,192.8,96.6,191.9z M96.8,191.9c0,0.9,0.2,1.9,0.5,2.7c0.3,0.9,0.5,1.9,0.6,2.8
			c0.1,1.9-0.4,3.9-1.4,5.5c-0.5,0.8-1.1,1.6-1.8,2.3c-0.7,0.7-1.5,1.2-2.1,1.9c-0.6,0.7-1.1,1.5-1.5,2.3c-0.2,0.4-0.3,0.8-0.5,1.3
			c-0.1,0.5-0.3,0.9-0.5,1.4c-0.9,1.8-2.3,3.4-4,4.4c-0.9,0.5-1.8,0.9-2.8,1.1c-0.2,0.1-0.5,0.1-0.8,0.2c-0.2,0-0.5,0.1-0.7,0.1
			l-0.8,0.1c-0.2,0-0.4,0-0.6,0c-0.9,0.1-1.7,0.3-2.5,0.6c-0.4,0.2-0.8,0.4-1.2,0.6c-0.4,0.2-0.7,0.4-1.1,0.8
			c-1.7,1.2-3.8,1.8-5.9,1.9c-2.1,0-4.2-0.6-5.9-1.8l-0.6-0.4c-0.2-0.1-0.4-0.2-0.5-0.3c-0.4-0.2-0.7-0.4-1.1-0.5
			c-0.8-0.3-1.6-0.5-2.5-0.6c-0.2,0-0.4,0-0.6,0l-0.8-0.1c-0.3,0-0.5,0-0.8-0.1c-0.3,0-0.5-0.1-0.8-0.1c-1-0.2-2-0.6-2.9-1.1
			c-1.8-1-3.3-2.6-4.3-4.5c-0.2-0.5-0.4-1-0.6-1.4c-0.1-0.4-0.3-0.8-0.5-1.2c-0.4-0.8-0.8-1.5-1.4-2.1c-0.6-0.7-1.2-1.1-2.1-1.8
			c-0.8-0.7-1.4-1.5-2-2.4c-1.1-1.8-1.6-3.9-1.5-5.9c0-1,0.3-2.1,0.6-3c0.3-0.8,0.4-1.7,0.4-2.5c0-0.9-0.1-1.7-0.4-2.6
			c-0.3-0.9-0.5-2-0.5-3c-0.1-2,0.5-4.1,1.6-5.8c0.5-0.9,1.2-1.6,2-2.3c0.8-0.7,1.5-1.1,2.1-1.8c0.6-0.6,1.1-1.4,1.5-2.2
			c0.2-0.4,0.4-0.8,0.5-1.2c0.2-0.5,0.4-0.9,0.6-1.4c0.9-1.8,2.4-3.3,4.2-4.3c0.9-0.5,1.8-0.8,2.8-1c0.5-0.1,1-0.2,1.5-0.2
			c0.2,0,0.5,0,0.7,0c0.2,0,0.4,0,0.7,0c1.8-0.1,3.5-0.8,5-1.9c1.7-1.1,3.7-1.7,5.6-1.7c2,0,4,0.7,5.6,1.8c1.5,1.2,3.2,1.9,5,2
			c0.4,0,0.9,0,1.4,0.1c0.5,0,1,0.1,1.4,0.2c1,0.2,1.9,0.6,2.7,1.1c1.7,1,3.1,2.4,3.9,4.2c0.5,0.9,0.6,1.8,1.1,2.6
			c0.4,0.8,0.9,1.6,1.5,2.3c0.6,0.7,1.4,1.2,2.1,1.9c0.7,0.6,1.3,1.4,1.8,2.2c1,1.6,1.5,3.6,1.4,5.5c0,1-0.2,1.9-0.5,2.8
			C96.9,190,96.8,191,96.8,191.9z"/>
	</g>
	<g>
		<path class="st1" d="M69.7,216.7c-0.8,0-1.6-0.2-2.4-0.5c-0.8-0.4-1.4-0.9-2.1-1.2c-1.4-0.8-3-1.2-4.5-1.4
			c-0.8-0.1-1.6-0.2-2.4-0.2c-0.8,0-1.8-0.2-2.5-0.6c-0.8-0.4-1.5-0.9-2-1.6c-0.6-0.7-0.9-1.5-1.2-2.3c-0.5-1.5-1.3-2.8-2.3-4
			c-0.5-0.6-1.1-1.1-1.7-1.6c-0.3-0.3-0.6-0.5-1-0.7c-0.3-0.3-0.7-0.6-0.9-0.9c-1.1-1.4-1.5-3.3-1.2-5c0-0.2,0.1-0.4,0.2-0.6
			l0.2-0.6c0.1-0.4,0.2-0.8,0.3-1.1c0.1-0.8,0.2-1.5,0.2-2.3c0-0.8-0.1-1.6-0.2-2.3c-0.1-0.4-0.2-0.8-0.3-1.1
			c-0.1-0.4-0.3-0.7-0.4-1.2c-0.4-1.7,0-3.6,1.1-5c0.3-0.4,0.6-0.7,0.9-1c0.4-0.3,0.6-0.5,0.9-0.7c0.6-0.5,1.1-1.1,1.6-1.7
			c1-1.2,1.8-2.6,2.3-4c0.1-0.3,0.3-0.8,0.5-1.2c0.2-0.4,0.4-0.8,0.7-1.1c0.6-0.7,1.3-1.3,2.1-1.7c0.8-0.4,1.7-0.6,2.6-0.6
			c0.8,0,1.5-0.1,2.3-0.2c1.5-0.3,3-0.8,4.3-1.6c0.3-0.2,0.6-0.4,1-0.6c0.3-0.2,0.7-0.5,1.1-0.7c0.8-0.4,1.7-0.6,2.7-0.6
			c0.9,0,1.9,0.2,2.7,0.6c0.4,0.2,0.9,0.5,1.2,0.7c0.3,0.2,0.6,0.4,1,0.6c1.3,0.8,2.8,1.3,4.3,1.5c0.8,0.1,1.5,0.2,2.3,0.2
			c0.9,0,1.9,0.2,2.7,0.6c0.9,0.4,1.6,1,2.2,1.7c0.3,0.4,0.6,0.8,0.8,1.2c0.2,0.4,0.4,0.9,0.5,1.2c0.5,1.4,1.3,2.7,2.3,3.9
			c0.5,0.6,1,1.1,1.6,1.6c0.1,0.1,0.3,0.2,0.4,0.3l0.5,0.4c0.4,0.3,0.7,0.6,1,1c1.2,1.5,1.7,3.6,1.3,5.4c-0.1,0.2-0.1,0.5-0.2,0.7
			l-0.2,0.5c-0.1,0.4-0.2,0.7-0.3,1.1c-0.1,0.7-0.2,1.5-0.2,2.2c0,0.8,0,1.5,0.2,2.2c0.1,0.4,0.1,0.7,0.2,1.1l0.2,0.5
			c0.1,0.2,0.1,0.5,0.2,0.7c0.4,1.8-0.1,3.8-1.3,5.3c-0.3,0.4-0.6,0.7-1,1c-0.4,0.3-0.6,0.5-1,0.7c-0.6,0.5-1.2,1-1.7,1.6
			c-1,1.1-1.9,2.5-2.4,3.9c-0.1,0.3-0.3,0.8-0.5,1.2c-0.2,0.4-0.5,0.8-0.7,1.1c-0.6,0.7-1.3,1.2-2.1,1.6c-0.8,0.4-1.7,0.5-2.5,0.5
			c-0.8,0-1.6,0-2.4,0.1c-1.6,0.2-3.1,0.8-4.5,1.5c-0.7,0.4-1.3,0.9-2.1,1.3C71.4,216.6,70.6,216.7,69.7,216.7z M69.7,216.5
			c0.8,0,1.6-0.2,2.3-0.6c0.7-0.3,1.3-0.9,2-1.3c1.4-0.9,3-1.4,4.6-1.8c0.8-0.2,1.6-0.2,2.5-0.3c0.8-0.1,1.5-0.2,2.2-0.6
			c0.7-0.3,1.2-0.8,1.7-1.4c0.5-0.6,0.7-1.2,0.9-2c0.5-1.6,1.3-3.1,2.4-4.4c0.5-0.7,1.1-1.3,1.8-1.8c0.3-0.3,0.7-0.6,0.9-0.8
			c0.3-0.2,0.5-0.5,0.7-0.8c0.8-1.1,1.1-2.6,0.8-3.9c0-0.2-0.1-0.3-0.1-0.5l-0.2-0.6c-0.1-0.4-0.2-0.8-0.3-1.3
			c-0.2-0.9-0.3-1.7-0.3-2.6c0-0.9,0.1-1.7,0.2-2.6c0.1-0.4,0.2-0.9,0.3-1.3c0.1-0.2,0.1-0.4,0.2-0.6c0.1-0.2,0.1-0.3,0.1-0.5
			c0.3-1.3-0.1-2.7-0.9-3.7c-0.2-0.3-0.4-0.5-0.7-0.7l-0.5-0.4c-0.2-0.1-0.3-0.3-0.5-0.4c-0.7-0.6-1.3-1.2-1.8-1.8
			c-1.1-1.3-2-2.9-2.5-4.5c-0.2-0.4-0.2-0.7-0.4-1c-0.1-0.3-0.3-0.6-0.5-0.9c-0.4-0.5-0.9-1-1.5-1.3c-0.6-0.3-1.3-0.5-1.9-0.5
			c-0.8,0-1.7-0.1-2.6-0.2c-1.7-0.3-3.3-0.9-4.8-1.8c-0.4-0.2-0.7-0.5-1.1-0.7c-0.3-0.2-0.6-0.4-0.9-0.6c-0.6-0.3-1.3-0.5-2-0.5
			c-0.7,0-1.4,0.1-2,0.4c-0.3,0.2-0.6,0.3-0.9,0.6c-0.3,0.2-0.7,0.5-1.1,0.7c-1.5,0.9-3.1,1.4-4.8,1.7c-0.8,0.1-1.7,0.2-2.5,0.2
			c-0.7,0-1.4,0.2-2.1,0.5c-0.6,0.3-1.2,0.7-1.7,1.3c-0.2,0.3-0.4,0.6-0.6,0.9c-0.2,0.3-0.3,0.6-0.4,1.1c-0.6,1.6-1.5,3.1-2.6,4.4
			c-0.5,0.6-1.2,1.2-1.8,1.8c-0.3,0.3-0.7,0.5-1,0.7c-0.3,0.2-0.5,0.5-0.8,0.8c-0.9,1.1-1.3,2.7-1,4.1c0.1,0.3,0.2,0.7,0.3,1.1
			c0.1,0.4,0.2,0.8,0.3,1.2c0.1,0.8,0.2,1.7,0.2,2.5c0,0.8-0.1,1.7-0.2,2.5c-0.1,0.4-0.2,0.8-0.3,1.2c-0.1,0.2-0.1,0.4-0.2,0.6
			c-0.1,0.2-0.1,0.4-0.1,0.5c-0.3,1.4,0,3,1,4.2c0.2,0.3,0.5,0.6,0.8,0.8c0.3,0.2,0.7,0.5,1,0.8c0.6,0.5,1.2,1.1,1.8,1.8
			c1.1,1.3,1.9,2.8,2.5,4.3c0.3,0.8,0.5,1.4,1,2c0.5,0.6,1,1.1,1.7,1.4c0.7,0.3,1.4,0.5,2.2,0.5c0.8,0,1.7,0.1,2.5,0.3
			c1.6,0.3,3.2,1,4.6,1.9c0.7,0.4,1.3,1,2,1.4C68.1,216.3,68.9,216.5,69.7,216.5z"/>
	</g>
	<g>
		<path class="st1" d="M227,76.1l-64,112.2c-0.2,0.4-0.6,0.5-1,0.3l0,0l0,0l-12.9-7.4c-0.4-0.2-0.5-0.7-0.3-1.1l0,0
			c5.3-9.4,10.6-18.8,15.9-28.1c5.3-9.4,10.8-18.6,16.2-28c5.4-9.3,10.9-18.6,16.3-27.9c5.5-9.3,11-18.5,16.5-27.8l0,0
			c0.1-0.2,0.3-0.2,0.5-0.1l0,0L227,76.1z M226.8,76.2l-13-7.1l0.5-0.1c-5.2,9.4-10.5,18.8-15.8,28.2c-5.3,9.4-10.6,18.7-16,28.1
			c-5.4,9.3-10.7,18.7-16.1,28c-5.4,9.3-10.9,18.6-16.3,27.8l-0.3-1.1l12.8,7.5l-1,0.3l32.5-55.8L226.8,76.2z"/>
	</g>
	<g>
		<polygon class="st4" points="146,201.4 149.4,180.6 162.3,188 		"/>
		<path class="st1" d="M145.9,201.5c0.5-3.4,1-6.8,1.4-10.3c0.4-3.5,0.9-7.1,1.3-10.7c0-0.4,0.4-0.7,0.9-0.7c0.1,0,0.2,0,0.3,0.1
			l0,0l12.8,7.4c0.4,0.2,0.5,0.7,0.3,1.1c0,0.1-0.1,0.1-0.1,0.1l-0.1,0.1c-1.3,1.3-2.7,2.6-4.2,3.7c-1.5,1.1-3,2.2-4.4,3.3l-4.3,3
			C148.5,199.6,147.2,200.6,145.9,201.5z M146,201.4c1.4-1.3,2.8-2.6,4.2-3.8l3.9-3.7c1.3-1.2,2.5-2.4,3.7-3.5c1.3-1.1,2.6-2.1,4-3
			l0.1,1.3l-12.9-7.4l1.2-0.6c-0.7,3.3-1.5,6.7-2.2,10.1C147.3,194.3,146.6,197.8,146,201.4z"/>
	</g>
	<g>
		<polygon class="st4" points="223.9,74.4 217,70.5 223.6,59 230.5,63 		"/>
		<path class="st1" d="M223.9,74.5l-7.1-3.7c-0.2-0.1-0.3-0.3-0.2-0.5l0,0l0,0c2-3.9,4.2-7.8,6.3-11.6c0.2-0.4,0.6-0.5,1-0.3l0.1,0
			c2.4,1.1,4.7,2.4,7,3.7l0,0c0.5,0.3,0.7,0.9,0.4,1.4C229,67.5,226.3,71.4,223.9,74.5z M223.8,74.3c2-4.5,3.7-8.2,5.7-11.9l0.4,1.4
			c-2.3-1.3-4.6-2.7-6.7-4.2l1.1-0.3c-2.3,3.7-4.6,7.5-6.9,11.2l-0.1-0.5L223.8,74.3z"/>
	</g>
	<g>
		<path class="st1" d="M222.8,83.1l7.4,4c0.2,0.1,0.2,0.3,0.1,0.5l0,0c-3.5,6.5-7,12.9-10.5,19.3c-1.7,3.2-3.5,6.4-5.5,9.5
			c-2,3.1-4,6.2-6.2,9.1c0,0-0.1,0.1-0.1,0c0,0,0-0.1,0-0.1c1.4-3.4,3.1-6.7,4.8-9.9c1.7-3.3,3.6-6.4,5.5-9.5
			c3.9-6.2,7.6-12.5,11.5-18.8l0.1,0.5l-7.2-4.4c0,0-0.1-0.1,0-0.1C222.7,83.1,222.8,83.1,222.8,83.1z"/>
	</g>
	<g>
		<polygon class="st4" points="193.3,134.3 168.9,176.6 156,169.2 180.4,126.9 		"/>
		<path class="st1" d="M193.4,134.3l-23.9,42.6c-0.2,0.3-0.6,0.4-0.9,0.2l0,0l0,0l-12.9-7.3c-0.4-0.2-0.5-0.7-0.3-1.1l0,0
			c1.9-3.6,3.9-7.1,5.9-10.7l3-5.3l3.1-5.3c2-3.5,4.1-7,6.2-10.5c2.1-3.5,4.2-7,6.3-10.4l0,0c0.2-0.3,0.6-0.4,0.9-0.2
			c2.2,1.3,4.3,2.7,6.4,4L193.4,134.3z M193.2,134.4l-6.7-3.5c-2.2-1.1-4.3-2.3-6.4-3.4l0.9-0.2c-1.9,3.6-3.9,7.1-5.9,10.7
			c-2,3.6-4,7.1-6,10.6l-3,5.3l-3.1,5.3c-2.1,3.5-4.2,7-6.3,10.5l-0.3-1.1l12.8,7.5l-0.9,0.2L193.2,134.4z"/>
	</g>
	<g>
		<path class="st1" d="M41.8,57.5l31.3-0.4l31.3-0.3c10.4-0.1,20.8-0.3,31.3-0.2c10.4,0.2,20.8,0.3,31.3,0.9c0.1,0,0.1,0.1,0.1,0.1
			c0,0.1,0,0.1-0.1,0.1c-10.4,0.6-20.8,0.7-31.3,0.9c-10.4,0.1-20.8-0.1-31.3-0.2l-31.3-0.3l-31.3-0.4
			C41.7,57.7,41.7,57.6,41.8,57.5C41.7,57.5,41.8,57.5,41.8,57.5z"/>
	</g>
	<g>
		<path class="st1" d="M41.8,71.9l29.5-0.4l29.5-0.3c9.8-0.1,19.7-0.3,29.5-0.2c9.8,0.2,19.7,0.3,29.5,0.9c0.1,0,0.1,0.1,0.1,0.1
			c0,0.1,0,0.1-0.1,0.1c-9.8,0.6-19.7,0.7-29.5,0.9c-9.8,0.1-19.7-0.1-29.5-0.2l-29.5-0.3l-29.5-0.4C41.7,72.1,41.7,72,41.8,71.9
			C41.7,71.9,41.8,71.9,41.8,71.9z"/>
	</g>
	<g>
		<path class="st1" d="M41.8,86.3l31.3-0.4l31.3-0.3c10.4-0.1,20.8-0.3,31.3-0.2c10.4,0.2,20.8,0.3,31.3,0.9c0.1,0,0.1,0.1,0.1,0.1
			c0,0.1,0,0.1-0.1,0.1c-10.4,0.6-20.8,0.7-31.3,0.9c-10.4,0.1-20.8-0.1-31.3-0.2l-31.3-0.3l-31.3-0.4
			C41.7,86.5,41.7,86.4,41.8,86.3C41.7,86.3,41.8,86.3,41.8,86.3z"/>
	</g>
	<g>
		<path class="st1" d="M41.8,100.6l29.5-0.4l29.5-0.3c9.8-0.1,19.7-0.3,29.5-0.2c9.8,0.2,19.7,0.3,29.5,0.9c0.1,0,0.1,0.1,0.1,0.1
			c0,0.1,0,0.1-0.1,0.1c-9.8,0.6-19.7,0.7-29.5,0.9c-9.8,0.1-19.7-0.1-29.5-0.2l-29.5-0.3l-29.5-0.4
			C41.7,100.8,41.7,100.8,41.8,100.6C41.7,100.7,41.8,100.6,41.8,100.6z"/>
	</g>
	<g>
		<path class="st1" d="M41.8,115l31.3-0.4l31.3-0.3c10.4-0.1,20.8-0.3,31.3-0.2c10.4,0.2,20.8,0.3,31.3,0.9c0.1,0,0.1,0.1,0.1,0.1
			c0,0.1,0,0.1-0.1,0.1c-10.4,0.6-20.8,0.7-31.3,0.9c-10.4,0.1-20.8-0.1-31.3-0.2l-31.3-0.3l-31.3-0.4
			C41.7,115.2,41.7,115.2,41.8,115C41.7,115.1,41.8,115,41.8,115z"/>
	</g>
	<g>
		<path class="st1" d="M41.8,129.4l27.7-0.4l27.7-0.3c9.2-0.1,18.5-0.3,27.7-0.2c9.2,0.2,18.5,0.3,27.7,0.9c0.1,0,0.1,0.1,0.1,0.1
			c0,0.1,0,0.1-0.1,0.1c-9.2,0.6-18.5,0.7-27.7,0.9c-9.2,0.1-18.5-0.1-27.7-0.2L69.5,130l-27.7-0.4
			C41.7,129.6,41.7,129.6,41.8,129.4C41.7,129.5,41.8,129.4,41.8,129.4z"/>
	</g>
	<g>
		<path class="st1" d="M41.8,143.8l29.8-0.4l29.8-0.3c9.9-0.1,19.9-0.3,29.8-0.2c9.9,0.2,19.9,0.3,29.8,0.9c0.1,0,0.1,0.1,0.1,0.1
			c0,0.1,0,0.1-0.1,0.1c-9.9,0.6-19.9,0.7-29.8,0.9c-9.9,0.1-19.9-0.1-29.8-0.2l-29.8-0.3L41.8,144C41.7,144,41.7,144,41.8,143.8
			C41.7,143.8,41.8,143.8,41.8,143.8z"/>
	</g>
	<g>
		<path class="st1" d="M96.8,158.2l13.6-0.5l13.6-0.4c4.5-0.1,9.1-0.4,13.6-0.3c4.5,0.1,9.1,0.3,13.6,0.8c0.1,0,0.1,0.1,0.1,0.1
			c0,0,0,0.1-0.1,0.1c-4.5,0.6-9.1,0.8-13.6,1c-4.5,0.2-9.1-0.1-13.6-0.1l-13.6-0.2l-13.6-0.3C96.8,158.4,96.7,158.3,96.8,158.2
			C96.7,158.2,96.8,158.2,96.8,158.2z"/>
	</g>
	<g>
		<path class="st1" d="M111.1,172.6l9-0.4l9-0.3c3-0.1,6-0.3,9-0.2c3,0.1,6,0.3,9,0.9c0.1,0,0.1,0.1,0.1,0.1c0,0,0,0.1-0.1,0.1
			c-3,0.6-6,0.8-9,0.9c-3,0.1-6-0.1-9-0.2l-9-0.3l-9-0.4C111,172.8,111,172.7,111.1,172.6C111,172.6,111,172.6,111.1,172.6z"/>
	</g>
	<g>
		<path class="st1" d="M107.5,187l9-0.4l9-0.3c3-0.1,6-0.3,9-0.2c3,0.1,6,0.3,9,0.9c0.1,0,0.1,0.1,0.1,0.1c0,0,0,0.1-0.1,0.1
			c-3,0.6-6,0.8-9,0.9c-3,0.1-6-0.1-9-0.2l-9-0.3l-9-0.4C107.5,187.2,107.4,187.1,107.5,187C107.4,187,107.5,187,107.5,187z"/>
	</g>
	<g>
		<path class="st1" d="M107.5,201.3l7.7-0.4l7.7-0.3c2.6-0.1,5.1-0.3,7.7-0.2c2.6,0.1,5.1,0.3,7.7,0.9c0.1,0,0.1,0.1,0.1,0.1
			c0,0,0,0.1-0.1,0.1c-2.6,0.6-5.1,0.8-7.7,0.9c-2.6,0.1-5.1-0.1-7.7-0.2l-7.7-0.3l-7.7-0.4C107.5,201.5,107.4,201.5,107.5,201.3
			C107.4,201.4,107.5,201.3,107.5,201.3z"/>
	</g>
	<g>
		<path class="st4" d="M78,217.6v29.7l-8.2-9.4l-8.2,9.4v-29.7c0.9,0.3,1.8,0.7,2.6,1.3c1.7,1.2,3.7,1.9,5.7,1.9c2,0,4-0.6,5.7-1.9
			C76.2,218.3,77.1,217.9,78,217.6z"/>
		<g>
			<path class="st1" d="M78.3,217.2l0.1,15c0.1,5,0,10.1,0.1,15.1c0,0.3-0.2,0.5-0.5,0.6c-0.2,0-0.3-0.1-0.4-0.2l0,0l-8.3-9.3l1,0
				l-8.1,9.5c-0.3,0.3-0.8,0.4-1.2,0.1c-0.2-0.2-0.3-0.4-0.3-0.6l0,0l-0.1-14.8c0-4.9-0.1-9.9,0.1-14.8l0-0.1c0-0.5,0.4-0.8,0.9-0.8
				c0.1,0,0.2,0,0.2,0c0.8,0.3,1.5,0.6,2.2,1.1c0.7,0.5,1.2,0.9,1.8,1.2c1.2,0.6,2.6,1,4,1c1.4,0,2.8-0.3,4-0.9
				c0.6-0.3,1.2-0.7,1.9-1.1c0.3-0.2,0.7-0.4,1-0.5c0.2-0.1,0.4-0.2,0.5-0.2l0.3-0.1c0.1,0,0,0,0.2-0.1
				C77.9,217.1,78.1,217.1,78.3,217.2z M77.6,218c0,0.1,0.2,0.2,0.3,0.1c0.1,0,0,0,0,0l-0.2,0.1c-0.2,0.1-0.3,0.1-0.5,0.2
				c-0.3,0.2-0.6,0.3-0.9,0.5c-0.5,0.4-1.2,0.9-1.9,1.2c-1.4,0.7-3,1.1-4.6,1.2c-1.6,0-3.2-0.3-4.7-1c-0.7-0.3-1.4-0.9-2-1.2
				c-0.6-0.4-1.2-0.6-1.9-0.8l1.1-0.8c0.2,4.9,0.1,9.9,0.1,14.8l-0.1,14.8l-1.5-0.6l8.3-9.3l0,0c0.3-0.3,0.7-0.3,1-0.1
				c0,0,0,0,0.1,0.1l8.1,9.5l-1,0.4c0.1-4.9,0-9.7,0.1-14.6L77.6,218z"/>
		</g>
	</g>
</g>
</svg>
