<?xml version="1.0" encoding="utf-8"?>
<!-- Generator: Adobe Illustrator 22.1.0, SVG Export Plug-In . SVG Version: 6.00 Build 0)  -->
<svg version="1.1" id="Layer_1" xmlns="http://www.w3.org/2000/svg" xmlns:xlink="http://www.w3.org/1999/xlink" x="0px" y="0px"
	 viewBox="0 0 256 256" style="enable-background:new 0 0 256 256;" xml:space="preserve">
<style type="text/css">
	.st0{fill:none;}
	.st1{fill:#253759;}
	.st2{clip-path:url(#SVGID_2_);fill:#253759;}
	.st3{clip-path:url(#SVGID_4_);fill:#253759;}
	.st4{fill:url(#New_Pattern_Swatch_1);}
</style>
<pattern  x="-276" y="-552" width="42.9" height="43" patternUnits="userSpaceOnUse" id="New_Pattern_Swatch_1" viewBox="43 -43 42.9 43" style="overflow:visible;">
	<g>
		<rect x="43" y="-43" class="st0" width="42.9" height="43"/>
		<g>
			<g>
				<circle class="st1" cx="85.9" cy="-41.2" r="0.6"/>
				<circle class="st1" cx="85.9" cy="-37.6" r="0.6"/>
				<circle class="st1" cx="85.9" cy="-34" r="0.6"/>
				<circle class="st1" cx="85.9" cy="-30.4" r="0.6"/>
				<circle class="st1" cx="85.9" cy="-26.9" r="0.6"/>
				<circle class="st1" cx="85.9" cy="-23.3" r="0.6"/>
				<circle class="st1" cx="85.9" cy="-19.7" r="0.6"/>
				<circle class="st1" cx="85.9" cy="-16.1" r="0.6"/>
				<circle class="st1" cx="85.9" cy="-12.6" r="0.6"/>
				<circle class="st1" cx="85.9" cy="-9" r="0.6"/>
				<circle class="st1" cx="85.9" cy="-5.4" r="0.6"/>
				<circle class="st1" cx="85.9" cy="-1.8" r="0.6"/>
				<circle class="st1" cx="85.8" cy="-41.2" r="0.6"/>
				<circle class="st1" cx="85.8" cy="-37.6" r="0.6"/>
				<circle class="st1" cx="85.8" cy="-34" r="0.6"/>
				<circle class="st1" cx="85.8" cy="-30.4" r="0.6"/>
				<circle class="st1" cx="85.8" cy="-26.9" r="0.6"/>
				<circle class="st1" cx="85.8" cy="-23.3" r="0.6"/>
				<circle class="st1" cx="85.8" cy="-19.7" r="0.6"/>
				<circle class="st1" cx="85.8" cy="-16.1" r="0.6"/>
				<circle class="st1" cx="85.8" cy="-12.6" r="0.6"/>
				<circle class="st1" cx="85.8" cy="-9" r="0.6"/>
				<circle class="st1" cx="85.8" cy="-5.4" r="0.6"/>
				<circle class="st1" cx="85.8" cy="-1.8" r="0.6"/>
			</g>
			<g>
				<defs>
					<rect id="SVGID_1_" x="85.8" y="-43" width="43" height="43"/>
				</defs>
				<clipPath id="SVGID_2_">
					<use xlink:href="#SVGID_1_"  style="overflow:visible;"/>
				</clipPath>
				<circle class="st2" cx="85.8" cy="-41.2" r="0.6"/>
				<circle class="st2" cx="85.8" cy="-37.6" r="0.6"/>
				<circle class="st2" cx="85.8" cy="-34" r="0.6"/>
				<circle class="st2" cx="85.8" cy="-30.4" r="0.6"/>
				<circle class="st2" cx="85.8" cy="-26.9" r="0.6"/>
				<circle class="st2" cx="85.8" cy="-23.3" r="0.6"/>
				<circle class="st2" cx="85.8" cy="-19.7" r="0.6"/>
				<circle class="st2" cx="85.8" cy="-16.1" r="0.6"/>
				<circle class="st2" cx="85.8" cy="-12.6" r="0.6"/>
				<circle class="st2" cx="85.8" cy="-9" r="0.6"/>
				<circle class="st2" cx="85.8" cy="-5.4" r="0.6"/>
				<circle class="st2" cx="85.8" cy="-1.8" r="0.6"/>
				<circle class="st2" cx="85.7" cy="-41.2" r="0.6"/>
				<circle class="st2" cx="85.7" cy="-37.6" r="0.6"/>
				<circle class="st2" cx="85.7" cy="-34" r="0.6"/>
				<circle class="st2" cx="85.7" cy="-30.4" r="0.6"/>
				<circle class="st2" cx="85.7" cy="-26.9" r="0.6"/>
				<circle class="st2" cx="85.7" cy="-23.3" r="0.6"/>
				<circle class="st2" cx="85.7" cy="-19.7" r="0.6"/>
				<circle class="st2" cx="85.7" cy="-16.1" r="0.6"/>
				<circle class="st2" cx="85.7" cy="-12.6" r="0.6"/>
				<circle class="st2" cx="85.7" cy="-9" r="0.6"/>
				<circle class="st2" cx="85.7" cy="-5.4" r="0.6"/>
				<circle class="st2" cx="85.7" cy="-1.8" r="0.6"/>
			</g>
		</g>
		<g>
			<g>
				<circle class="st1" cx="85.9" cy="-41.2" r="0.6"/>
				<circle class="st1" cx="85.9" cy="-37.6" r="0.6"/>
				<circle class="st1" cx="85.9" cy="-34" r="0.6"/>
				<circle class="st1" cx="85.9" cy="-30.4" r="0.6"/>
				<circle class="st1" cx="85.9" cy="-26.9" r="0.6"/>
				<circle class="st1" cx="85.9" cy="-23.3" r="0.6"/>
				<circle class="st1" cx="85.9" cy="-19.7" r="0.6"/>
				<circle class="st1" cx="85.9" cy="-16.1" r="0.6"/>
				<circle class="st1" cx="85.9" cy="-12.6" r="0.6"/>
				<circle class="st1" cx="85.9" cy="-9" r="0.6"/>
				<circle class="st1" cx="85.9" cy="-5.4" r="0.6"/>
				<circle class="st1" cx="85.9" cy="-1.8" r="0.6"/>
				<circle class="st1" cx="43" cy="-41.2" r="0.6"/>
				<circle class="st1" cx="46.5" cy="-41.2" r="0.6"/>
				<circle class="st1" cx="50.1" cy="-41.2" r="0.6"/>
				<circle class="st1" cx="53.7" cy="-41.2" r="0.6"/>
				<circle class="st1" cx="43" cy="-37.6" r="0.6"/>
				<circle class="st1" cx="46.5" cy="-37.6" r="0.6"/>
				<circle class="st1" cx="50.1" cy="-37.6" r="0.6"/>
				<circle class="st1" cx="53.7" cy="-37.6" r="0.6"/>
				<circle class="st1" cx="43" cy="-34" r="0.6"/>
				<circle class="st1" cx="46.5" cy="-34" r="0.6"/>
				<circle class="st1" cx="50.1" cy="-34" r="0.6"/>
				<circle class="st1" cx="53.7" cy="-34" r="0.6"/>
				<circle class="st1" cx="43" cy="-30.4" r="0.6"/>
				<circle class="st1" cx="46.5" cy="-30.4" r="0.6"/>
				<circle class="st1" cx="50.1" cy="-30.4" r="0.6"/>
				<circle class="st1" cx="53.7" cy="-30.4" r="0.6"/>
				<circle class="st1" cx="43" cy="-26.9" r="0.6"/>
				<circle class="st1" cx="46.5" cy="-26.9" r="0.6"/>
				<circle class="st1" cx="50.1" cy="-26.9" r="0.6"/>
				<circle class="st1" cx="53.7" cy="-26.9" r="0.6"/>
				<circle class="st1" cx="43" cy="-23.3" r="0.6"/>
				<circle class="st1" cx="46.5" cy="-23.3" r="0.6"/>
				<circle class="st1" cx="50.1" cy="-23.3" r="0.6"/>
				<circle class="st1" cx="53.7" cy="-23.3" r="0.6"/>
				<circle class="st1" cx="57.3" cy="-41.2" r="0.6"/>
				<circle class="st1" cx="60.8" cy="-41.2" r="0.6"/>
				<circle class="st1" cx="64.4" cy="-41.2" r="0.6"/>
				<circle class="st1" cx="68" cy="-41.2" r="0.6"/>
				<circle class="st1" cx="71.5" cy="-41.2" r="0.6"/>
				<circle class="st1" cx="57.3" cy="-37.6" r="0.6"/>
				<circle class="st1" cx="60.8" cy="-37.6" r="0.6"/>
				<circle class="st1" cx="64.4" cy="-37.6" r="0.6"/>
				<circle class="st1" cx="68" cy="-37.6" r="0.6"/>
				<circle class="st1" cx="71.5" cy="-37.6" r="0.6"/>
				<circle class="st1" cx="57.3" cy="-34" r="0.6"/>
				<circle class="st1" cx="60.8" cy="-34" r="0.6"/>
				<circle class="st1" cx="64.4" cy="-34" r="0.6"/>
				<circle class="st1" cx="68" cy="-34" r="0.6"/>
				<circle class="st1" cx="71.5" cy="-34" r="0.6"/>
				<circle class="st1" cx="57.3" cy="-30.4" r="0.6"/>
				<circle class="st1" cx="60.8" cy="-30.4" r="0.6"/>
				<circle class="st1" cx="64.4" cy="-30.4" r="0.6"/>
				<circle class="st1" cx="68" cy="-30.4" r="0.6"/>
				<circle class="st1" cx="71.5" cy="-30.4" r="0.6"/>
				<circle class="st1" cx="57.3" cy="-26.9" r="0.6"/>
				<circle class="st1" cx="60.8" cy="-26.9" r="0.6"/>
				<circle class="st1" cx="64.4" cy="-26.9" r="0.6"/>
				<circle class="st1" cx="68" cy="-26.9" r="0.6"/>
				<circle class="st1" cx="71.5" cy="-26.9" r="0.6"/>
				<circle class="st1" cx="57.3" cy="-23.3" r="0.6"/>
				<circle class="st1" cx="60.8" cy="-23.3" r="0.6"/>
				<circle class="st1" cx="64.4" cy="-23.3" r="0.6"/>
				<circle class="st1" cx="68" cy="-23.3" r="0.6"/>
				<circle class="st1" cx="71.5" cy="-23.3" r="0.6"/>
				<circle class="st1" cx="75.1" cy="-41.2" r="0.6"/>
				<circle class="st1" cx="78.7" cy="-41.2" r="0.6"/>
				<circle class="st1" cx="82.3" cy="-41.2" r="0.6"/>
				<circle class="st1" cx="85.8" cy="-41.2" r="0.6"/>
				<circle class="st1" cx="75.1" cy="-37.6" r="0.6"/>
				<circle class="st1" cx="78.7" cy="-37.6" r="0.6"/>
				<circle class="st1" cx="82.3" cy="-37.6" r="0.6"/>
				<circle class="st1" cx="85.8" cy="-37.6" r="0.6"/>
				<circle class="st1" cx="75.1" cy="-34" r="0.6"/>
				<circle class="st1" cx="78.7" cy="-34" r="0.6"/>
				<circle class="st1" cx="82.3" cy="-34" r="0.6"/>
				<circle class="st1" cx="85.8" cy="-34" r="0.6"/>
				<circle class="st1" cx="75.1" cy="-30.4" r="0.6"/>
				<circle class="st1" cx="78.7" cy="-30.4" r="0.6"/>
				<circle class="st1" cx="82.3" cy="-30.4" r="0.6"/>
				<circle class="st1" cx="85.8" cy="-30.4" r="0.6"/>
				<circle class="st1" cx="75.1" cy="-26.9" r="0.6"/>
				<circle class="st1" cx="78.7" cy="-26.9" r="0.6"/>
				<circle class="st1" cx="82.3" cy="-26.9" r="0.6"/>
				<circle class="st1" cx="85.8" cy="-26.9" r="0.6"/>
				<circle class="st1" cx="75.1" cy="-23.3" r="0.6"/>
				<circle class="st1" cx="78.7" cy="-23.3" r="0.6"/>
				<circle class="st1" cx="82.3" cy="-23.3" r="0.6"/>
				<circle class="st1" cx="85.8" cy="-23.3" r="0.6"/>
				<circle class="st1" cx="43" cy="-19.7" r="0.6"/>
				<circle class="st1" cx="46.5" cy="-19.7" r="0.6"/>
				<circle class="st1" cx="50.1" cy="-19.7" r="0.6"/>
				<circle class="st1" cx="53.7" cy="-19.7" r="0.6"/>
				<circle class="st1" cx="43" cy="-16.1" r="0.6"/>
				<circle class="st1" cx="46.5" cy="-16.1" r="0.6"/>
				<circle class="st1" cx="50.1" cy="-16.1" r="0.6"/>
				<circle class="st1" cx="53.7" cy="-16.1" r="0.6"/>
				<circle class="st1" cx="43" cy="-12.6" r="0.6"/>
				<circle class="st1" cx="46.5" cy="-12.6" r="0.6"/>
				<circle class="st1" cx="50.1" cy="-12.6" r="0.6"/>
				<circle class="st1" cx="53.7" cy="-12.6" r="0.6"/>
				<circle class="st1" cx="43" cy="-9" r="0.6"/>
				<circle class="st1" cx="46.5" cy="-9" r="0.6"/>
				<circle class="st1" cx="50.1" cy="-9" r="0.6"/>
				<circle class="st1" cx="53.7" cy="-9" r="0.6"/>
				<circle class="st1" cx="43" cy="-5.4" r="0.6"/>
				<circle class="st1" cx="46.5" cy="-5.4" r="0.6"/>
				<circle class="st1" cx="50.1" cy="-5.4" r="0.6"/>
				<circle class="st1" cx="53.7" cy="-5.4" r="0.6"/>
				<circle class="st1" cx="43" cy="-1.8" r="0.6"/>
				<circle class="st1" cx="46.5" cy="-1.8" r="0.6"/>
				<circle class="st1" cx="50.1" cy="-1.8" r="0.6"/>
				<circle class="st1" cx="53.7" cy="-1.8" r="0.6"/>
				<circle class="st1" cx="57.3" cy="-19.7" r="0.6"/>
				<circle class="st1" cx="60.8" cy="-19.7" r="0.6"/>
				<circle class="st1" cx="64.4" cy="-19.7" r="0.6"/>
				<circle class="st1" cx="68" cy="-19.7" r="0.6"/>
				<circle class="st1" cx="71.5" cy="-19.7" r="0.6"/>
				<circle class="st1" cx="57.3" cy="-16.1" r="0.6"/>
				<circle class="st1" cx="60.8" cy="-16.1" r="0.6"/>
				<circle class="st1" cx="64.4" cy="-16.1" r="0.6"/>
				<circle class="st1" cx="68" cy="-16.1" r="0.6"/>
				<circle class="st1" cx="71.5" cy="-16.1" r="0.6"/>
				<circle class="st1" cx="57.3" cy="-12.6" r="0.6"/>
				<circle class="st1" cx="60.8" cy="-12.6" r="0.6"/>
				<circle class="st1" cx="64.4" cy="-12.6" r="0.6"/>
				<circle class="st1" cx="68" cy="-12.6" r="0.6"/>
				<circle class="st1" cx="71.5" cy="-12.6" r="0.6"/>
				<circle class="st1" cx="57.3" cy="-9" r="0.6"/>
				<circle class="st1" cx="60.8" cy="-9" r="0.6"/>
				<circle class="st1" cx="64.4" cy="-9" r="0.6"/>
				<circle class="st1" cx="68" cy="-9" r="0.6"/>
				<circle class="st1" cx="71.5" cy="-9" r="0.6"/>
				<circle class="st1" cx="57.3" cy="-5.4" r="0.6"/>
				<circle class="st1" cx="60.8" cy="-5.4" r="0.6"/>
				<circle class="st1" cx="64.4" cy="-5.4" r="0.6"/>
				<circle class="st1" cx="68" cy="-5.4" r="0.6"/>
				<circle class="st1" cx="71.5" cy="-5.4" r="0.6"/>
				<circle class="st1" cx="57.3" cy="-1.8" r="0.6"/>
				<circle class="st1" cx="60.8" cy="-1.8" r="0.6"/>
				<circle class="st1" cx="64.4" cy="-1.8" r="0.6"/>
				<circle class="st1" cx="68" cy="-1.8" r="0.6"/>
				<circle class="st1" cx="71.5" cy="-1.8" r="0.6"/>
				<circle class="st1" cx="75.1" cy="-19.7" r="0.6"/>
				<circle class="st1" cx="78.7" cy="-19.7" r="0.6"/>
				<circle class="st1" cx="82.3" cy="-19.7" r="0.6"/>
				<circle class="st1" cx="85.8" cy="-19.7" r="0.6"/>
				<circle class="st1" cx="75.1" cy="-16.1" r="0.6"/>
				<circle class="st1" cx="78.7" cy="-16.1" r="0.6"/>
				<circle class="st1" cx="82.3" cy="-16.1" r="0.6"/>
				<circle class="st1" cx="85.8" cy="-16.1" r="0.6"/>
				<circle class="st1" cx="75.1" cy="-12.6" r="0.6"/>
				<circle class="st1" cx="78.7" cy="-12.6" r="0.6"/>
				<circle class="st1" cx="82.3" cy="-12.6" r="0.6"/>
				<circle class="st1" cx="85.8" cy="-12.6" r="0.6"/>
				<circle class="st1" cx="75.1" cy="-9" r="0.6"/>
				<circle class="st1" cx="78.7" cy="-9" r="0.6"/>
				<circle class="st1" cx="82.3" cy="-9" r="0.6"/>
				<circle class="st1" cx="85.8" cy="-9" r="0.6"/>
				<circle class="st1" cx="75.1" cy="-5.4" r="0.6"/>
				<circle class="st1" cx="78.7" cy="-5.4" r="0.6"/>
				<circle class="st1" cx="82.3" cy="-5.4" r="0.6"/>
				<circle class="st1" cx="85.8" cy="-5.4" r="0.6"/>
				<circle class="st1" cx="75.1" cy="-1.8" r="0.6"/>
				<circle class="st1" cx="78.7" cy="-1.8" r="0.6"/>
				<circle class="st1" cx="82.3" cy="-1.8" r="0.6"/>
				<circle class="st1" cx="85.8" cy="-1.8" r="0.6"/>
				<circle class="st1" cx="42.9" cy="-41.2" r="0.6"/>
				<circle class="st1" cx="42.9" cy="-37.6" r="0.6"/>
				<circle class="st1" cx="42.9" cy="-34" r="0.6"/>
				<circle class="st1" cx="42.9" cy="-30.4" r="0.6"/>
				<circle class="st1" cx="42.9" cy="-26.9" r="0.6"/>
				<circle class="st1" cx="42.9" cy="-23.3" r="0.6"/>
				<circle class="st1" cx="42.9" cy="-19.7" r="0.6"/>
				<circle class="st1" cx="42.9" cy="-16.1" r="0.6"/>
				<circle class="st1" cx="42.9" cy="-12.6" r="0.6"/>
				<circle class="st1" cx="42.9" cy="-9" r="0.6"/>
				<circle class="st1" cx="42.9" cy="-5.4" r="0.6"/>
				<circle class="st1" cx="42.9" cy="-1.8" r="0.6"/>
			</g>
			<g>
				<defs>
					<rect id="SVGID_3_" x="42.9" y="-43" width="43" height="43"/>
				</defs>
				<clipPath id="SVGID_4_">
					<use xlink:href="#SVGID_3_"  style="overflow:visible;"/>
				</clipPath>
				<circle class="st3" cx="42.9" cy="-41.2" r="0.6"/>
				<circle class="st3" cx="42.9" cy="-37.6" r="0.6"/>
				<circle class="st3" cx="42.9" cy="-34" r="0.6"/>
				<circle class="st3" cx="42.9" cy="-30.4" r="0.6"/>
				<circle class="st3" cx="42.9" cy="-26.9" r="0.6"/>
				<circle class="st3" cx="42.9" cy="-23.3" r="0.6"/>
				<circle class="st3" cx="42.9" cy="-19.7" r="0.6"/>
				<circle class="st3" cx="42.9" cy="-16.1" r="0.6"/>
				<circle class="st3" cx="42.9" cy="-12.6" r="0.6"/>
				<circle class="st3" cx="42.9" cy="-9" r="0.6"/>
				<circle class="st3" cx="42.9" cy="-5.4" r="0.6"/>
				<circle class="st3" cx="42.9" cy="-1.8" r="0.6"/>
				<circle class="st3" cx="42.8" cy="-41.2" r="0.6"/>
				<circle class="st3" cx="42.8" cy="-37.6" r="0.6"/>
				<circle class="st3" cx="42.8" cy="-34" r="0.6"/>
				<circle class="st3" cx="42.8" cy="-30.4" r="0.6"/>
				<circle class="st3" cx="42.8" cy="-26.9" r="0.6"/>
				<circle class="st3" cx="42.8" cy="-23.3" r="0.6"/>
				<circle class="st3" cx="42.8" cy="-19.7" r="0.6"/>
				<circle class="st3" cx="42.8" cy="-16.1" r="0.6"/>
				<circle class="st3" cx="42.8" cy="-12.6" r="0.6"/>
				<circle class="st3" cx="42.8" cy="-9" r="0.6"/>
				<circle class="st3" cx="42.8" cy="-5.4" r="0.6"/>
				<circle class="st3" cx="42.8" cy="-1.8" r="0.6"/>
			</g>
		</g>
		<g>
			<g>
				<circle class="st1" cx="43" cy="-41.2" r="0.6"/>
				<circle class="st1" cx="43" cy="-37.6" r="0.6"/>
				<circle class="st1" cx="43" cy="-34" r="0.6"/>
				<circle class="st1" cx="43" cy="-30.4" r="0.6"/>
				<circle class="st1" cx="43" cy="-26.9" r="0.6"/>
				<circle class="st1" cx="43" cy="-23.3" r="0.6"/>
				<circle class="st1" cx="43" cy="-19.7" r="0.6"/>
				<circle class="st1" cx="43" cy="-16.1" r="0.6"/>
				<circle class="st1" cx="43" cy="-12.6" r="0.6"/>
				<circle class="st1" cx="43" cy="-9" r="0.6"/>
				<circle class="st1" cx="43" cy="-5.4" r="0.6"/>
				<circle class="st1" cx="43" cy="-1.8" r="0.6"/>
				<circle class="st1" cx="42.9" cy="-41.2" r="0.6"/>
				<circle class="st1" cx="42.9" cy="-37.6" r="0.6"/>
				<circle class="st1" cx="42.9" cy="-34" r="0.6"/>
				<circle class="st1" cx="42.9" cy="-30.4" r="0.6"/>
				<circle class="st1" cx="42.9" cy="-26.9" r="0.6"/>
				<circle class="st1" cx="42.9" cy="-23.3" r="0.6"/>
				<circle class="st1" cx="42.9" cy="-19.7" r="0.6"/>
				<circle class="st1" cx="42.9" cy="-16.1" r="0.6"/>
				<circle class="st1" cx="42.9" cy="-12.6" r="0.6"/>
				<circle class="st1" cx="42.9" cy="-9" r="0.6"/>
				<circle class="st1" cx="42.9" cy="-5.4" r="0.6"/>
				<circle class="st1" cx="42.9" cy="-1.8" r="0.6"/>
			</g>
			<g>
				<defs>
					<rect id="SVGID_5_" y="-43" width="43" height="43"/>
				</defs>
				<clipPath id="SVGID_6_">
					<use xlink:href="#SVGID_5_"  style="overflow:visible;"/>
				</clipPath>
			</g>
		</g>
	</g>
</pattern>
<g>
	<path class="st1" d="M122,229.5l-24.5,0c-8.2,0-16.3-0.1-24.4,0c-0.4,0-0.7-0.3-0.7-0.6l0,0c-0.1-3.7-0.1-7.4,0-11.1
		c0-3.7,0.1-7.4,0.3-11.1c0-0.3,0.3-0.6,0.7-0.6c0.1,0,0.2,0,0.2,0.1c4.1,1.7,8.1,3.6,12.1,5.4c4,1.9,8,3.7,12,5.6
		c4.1,1.9,8.4,4,12.4,6.1C114.2,225.4,118.1,227.5,122,229.5z M120.5,229.2c-4.1-1.8-8.2-3.4-12.1-5.1c-3.9-1.6-7.7-3.4-11.6-5.2
		c-4-1.9-8-3.8-12-5.7c-4-2-7.9-3.9-11.9-6l0.9-0.5c0.1,3.7,0.1,7.4,0.1,11.1c0,3.7-0.1,7.4-0.2,11.1l-0.7-0.7
		c7.9,0.3,15.9,0.4,23.8,0.5L120.5,229.2z"/>
</g>
<g>
	<path class="st1" d="M252.5,44.7l-1,93.1l-0.6,46.5l-0.3,23.2l-0.2,23.2c0,0.3-0.3,0.6-0.6,0.6h0l-76.5-0.7c-0.4,0-0.7-0.3-0.7-0.7
		c0-0.1,0-0.2,0.1-0.3l69.8-147.9l0.5,1.3L223,73.6l-19.9-9.4l-19.9-9.5l-19.8-9.5c-0.4-0.2-0.5-0.6-0.4-1c0.1-0.3,0.4-0.4,0.7-0.4
		C193.3,43.9,222.9,44.3,252.5,44.7z M251.1,46c-29.1-0.2-58.2-0.4-87.3-0.8l0.3-1.5l19.9,9.3l19.9,9.4
		c13.3,6.2,26.5,12.5,39.8,18.8c0.5,0.2,0.7,0.8,0.5,1.3L174,230.2l-0.6-1l76.5,1l-0.6,0.6l0.3-23.1l0.2-23.1l0.4-46.2L251.1,46z"/>
</g>
<g>
	<polygon class="st4" points="97.9,218.3 84,218.1 84.1,211.7 	"/>
	<path class="st1" d="M98.7,218.5c-2.5,0.1-5,0.1-7.4,0.2c-2.5,0-4.9,0-7.3,0.2c-0.3,0-0.6-0.2-0.6-0.5l0-0.1
		c-0.1-1.1-0.1-2.1-0.1-3.2c0-1.1,0.1-2.1,0.3-3.2l0-0.1c0.1-0.3,0.3-0.5,0.6-0.4c0,0,0.1,0,0.1,0c2.4,1.1,4.9,2.2,7.3,3.4
		C94,215.9,96.4,217.2,98.7,218.5z M97,218.1c-2.3-0.9-4.5-1.8-6.7-2.8c-2.2-0.9-4.3-2-6.5-3.1l0.7-0.5c0.2,1.1,0.3,2.1,0.2,3.2
		c0,1.1,0,2.1-0.2,3.2l-0.7-0.7c2.2,0.2,4.4,0.3,6.6,0.3C92.7,217.9,94.9,218,97,218.1z"/>
</g>
<g>
	<polygon class="st4" points="240.8,56.1 240.6,80.8 187.2,55.5 	"/>
	<path class="st1" d="M241.7,55.2c-0.1,8.6-0.4,17.3-0.7,25.6l0,0c0,0.2-0.2,0.4-0.4,0.4c-0.1,0-0.1,0-0.1,0l-53.6-24.7
		c-0.5-0.2-0.7-0.8-0.5-1.3c0.2-0.4,0.5-0.6,0.9-0.6l0,0l27.2,0.3L241.7,55.2z M240,56.9l-26.4-0.2l-26.4-0.3l0.4-1.8l53.1,25.8
		l-0.6,0.3C240,72.6,239.9,64.7,240,56.9z"/>
</g>
<g>
	<polygon class="st4" points="240.5,88 239.1,219.8 178.4,219.1 	"/>
	<path class="st1" d="M240.9,86.4l-0.2,33.6l-0.3,33.4l-0.4,33.2c-0.1,11-0.2,22-0.1,33.1c0,0.4-0.3,0.7-0.7,0.7h0l0,0l-60.7-0.4
		c-0.5,0-0.9-0.4-0.9-0.9c0-0.1,0-0.3,0.1-0.4l31.4-66.1C219.5,130.5,230.2,108.5,240.9,86.4z M240.1,89.6
		c-10,21.7-20.1,43.4-30.2,65l-30.7,65l-0.8-1.3l60.7,0.9l-0.7,0.7c0.3-10.9,0.5-21.9,0.6-32.8l0.3-32.6l0.4-32.4L240.1,89.6z"/>
</g>
<g>
	<path class="st1" d="M243.4,82l-79,167.8c-0.1,0.3-0.4,0.4-0.7,0.2l0,0L3.9,174.7c-0.4-0.2-0.6-0.7-0.4-1.1l19.7-42L43,89.7L82.7,6
		c0.2-0.5,0.8-0.7,1.3-0.5l0,0l79.7,38.1l39.9,19.1L243.4,82z M243.2,82.1l-40-18.5l-40-18.7l-80-37.5l1.3-0.5L44.8,90.6l-19.8,41.9
		l-20,41.8l-0.4-1.1l159.7,75.9l-0.7,0.2L243.2,82.1z"/>
</g>
<g>
	<path class="st1" d="M18.1,169L88.2,20.6c0.1-0.3,0.4-0.4,0.7-0.2l140.3,66.1c0.4,0.2,0.6,0.7,0.4,1.1l0,0l-69.9,148
		c-0.2,0.5-0.8,0.7-1.3,0.5l0,0L18.1,169z M19.2,168.6l140.1,65.7l-1.3,0.5l70.2-147.9l0.4,1.1L88.5,21.3l0.7-0.2L19.2,168.6z"/>
</g>
<g>
	<path class="st1" d="M135.8,38.9l2.8-8.4l0.7-2.1c0.3-0.7,0.5-1.5,0.9-2.1c0.7-1.4,1.7-2.6,2.8-3.7c2.3-2.1,5.2-3.5,8.2-3.8
		c1.5-0.2,3.1-0.1,4.6,0.2c1.5,0.3,2.9,0.9,4.3,1.7c2.7,1.5,4.7,4.1,5.8,6.9c1.1,2.8,1.3,6.1,0.5,9l-5.1,16.9l-5.1,16.9
		c-0.9,3-2.8,5.7-5.3,7.6c-1.3,0.9-2.7,1.7-4.2,2.1c-1.5,0.5-3.1,0.7-4.7,0.6c-1.6,0-3.2-0.3-4.6-0.9c-1.5-0.6-2.9-1.3-4.1-2.4
		c-2.4-2-4.2-4.8-4.9-7.9c-0.3-1.5-0.4-3.1-0.3-4.7c0.1-0.8,0.2-1.6,0.5-2.3c0.2-0.8,0.4-1.4,0.7-2.1c0.9-2.8,1.8-5.6,2.7-8.4l0,0
		c0.1-0.4,0.6-0.6,1-0.5l0,0c2.1,0.7,4.3,1.4,6.4,2.1l6.4,2.2c0.2,0.1,0.3,0.3,0.3,0.5l-2.5,8.8c-0.1,0.4-0.5,0.6-0.9,0.5
		s-0.6-0.5-0.5-0.9c0,0,0,0,0,0l3-8.7l0.3,0.5l-6.5-1.8c-2.2-0.6-4.3-1.2-6.5-1.9l1-0.5c-0.8,2.8-1.6,5.7-2.5,8.5
		c-0.4,1.4-0.9,2.8-1,4.1c-0.1,1.4,0,2.7,0.3,4.1c0.6,2.7,2.1,5.1,4.2,6.8c1,0.9,2.3,1.5,3.5,2c1.3,0.5,2.6,0.8,4,0.8
		c1.4,0.1,2.7-0.1,4-0.5c1.3-0.4,2.6-1,3.7-1.8c2.3-1.6,3.9-3.9,4.8-6.6L160,53l5.4-16.8c0.8-2.7,0.6-5.7-0.4-8.3
		c-1.1-2.6-3-4.9-5.4-6.3c-1.2-0.7-2.6-1.2-3.9-1.5c-1.4-0.3-2.8-0.3-4.2-0.2c-2.8,0.3-5.4,1.7-7.4,3.7c-1,1-1.8,2.2-2.4,3.4
		c-0.3,0.6-0.5,1.3-0.8,1.9l-0.6,2.1l-2.4,8.5c-0.2,0.5-0.7,0.8-1.2,0.7S135.6,39.5,135.8,38.9C135.8,38.9,135.8,38.9,135.8,38.9z"
		/>
</g>
<g>
	<path class="st1" d="M82.4,71.8l28,13l27.9,13c9.3,4.3,18.7,8.6,27.9,13.1c9.2,4.6,18.4,9.2,27.4,14.1c0,0,0.1,0.1,0,0.1
		c0,0-0.1,0.1-0.1,0c-9.5-3.9-18.8-8.2-28.2-12.5c-9.3-4.3-18.5-9-27.7-13.5l-27.7-13.6L82.3,72c0,0-0.1-0.1,0-0.1
		C82.2,71.8,82.3,71.8,82.4,71.8z"/>
</g>
<g>
	<path class="st1" d="M72.7,91.9l28,13l27.9,13c9.3,4.3,18.7,8.6,27.9,13.1c9.2,4.6,18.4,9.2,27.4,14.1c0,0,0.1,0.1,0,0.1
		c0,0-0.1,0.1-0.1,0c-9.5-3.9-18.8-8.2-28.2-12.5c-9.3-4.3-18.5-9-27.7-13.5l-27.7-13.6L72.6,92.1c0,0-0.1-0.1,0-0.1
		C72.6,91.9,72.7,91.9,72.7,91.9z"/>
</g>
<g>
	<path class="st1" d="M63.1,112l28,13l27.9,13c9.3,4.3,18.7,8.6,27.9,13.1c9.2,4.6,18.4,9.2,27.4,14.1c0,0,0.1,0.1,0,0.1
		c0,0-0.1,0.1-0.1,0c-9.5-3.9-18.8-8.2-28.2-12.5c-9.3-4.3-18.5-9-27.7-13.5l-27.7-13.6L63,112.2c0,0-0.1-0.1,0-0.1
		C63,112,63,112,63.1,112z"/>
</g>
<g>
	<path class="st1" d="M53.4,132.2l28,13l27.9,13c9.3,4.3,18.7,8.6,27.9,13.1c9.2,4.6,18.4,9.2,27.4,14.1c0,0,0.1,0.1,0,0.1
		c0,0-0.1,0.1-0.1,0c-9.5-3.9-18.8-8.2-28.2-12.5c-9.3-4.3-18.5-9-27.7-13.5L81,146l-27.6-13.7c0,0-0.1-0.1,0-0.1
		C53.3,132.2,53.4,132.2,53.4,132.2z"/>
</g>
<g>
	<path class="st1" d="M43.8,152.3l28,13l27.9,13c9.3,4.3,18.7,8.6,27.9,13.1c9.2,4.6,18.4,9.2,27.4,14.1c0,0,0.1,0.1,0,0.1
		c0,0-0.1,0.1-0.1,0c-9.5-3.9-18.8-8.2-28.2-12.5c-9.3-4.3-18.5-9-27.7-13.5l-27.7-13.6l-27.6-13.7c0,0-0.1-0.1,0-0.1
		C43.7,152.3,43.7,152.3,43.8,152.3z"/>
</g>
</svg>
