<?xml version="1.0" encoding="utf-8"?>
<!-- Generator: Adobe Illustrator 22.1.0, SVG Export Plug-In . SVG Version: 6.00 Build 0)  -->
<svg version="1.1" id="Layer_1" xmlns="http://www.w3.org/2000/svg" xmlns:xlink="http://www.w3.org/1999/xlink" x="0px" y="0px"
	 viewBox="0 0 256 256" style="enable-background:new 0 0 256 256;" xml:space="preserve">
<style type="text/css">
	.st0{fill:none;}
	.st1{fill:#253759;}
	.st2{clip-path:url(#SVGID_2_);fill:#253759;}
	.st3{clip-path:url(#SVGID_4_);fill:#253759;}
	.st4{fill:url(#New_Pattern_Swatch_1);}
</style>
<pattern  x="-552" y="-828" width="42.9" height="43" patternUnits="userSpaceOnUse" id="New_Pattern_Swatch_1" viewBox="43 -43 42.9 43" style="overflow:visible;">
	<g>
		<rect x="43" y="-43" class="st0" width="42.9" height="43"/>
		<g>
			<g>
				<circle class="st1" cx="85.9" cy="-41.2" r="0.6"/>
				<circle class="st1" cx="85.9" cy="-37.6" r="0.6"/>
				<circle class="st1" cx="85.9" cy="-34" r="0.6"/>
				<circle class="st1" cx="85.9" cy="-30.4" r="0.6"/>
				<circle class="st1" cx="85.9" cy="-26.9" r="0.6"/>
				<circle class="st1" cx="85.9" cy="-23.3" r="0.6"/>
				<circle class="st1" cx="85.9" cy="-19.7" r="0.6"/>
				<circle class="st1" cx="85.9" cy="-16.1" r="0.6"/>
				<circle class="st1" cx="85.9" cy="-12.6" r="0.6"/>
				<circle class="st1" cx="85.9" cy="-9" r="0.6"/>
				<circle class="st1" cx="85.9" cy="-5.4" r="0.6"/>
				<circle class="st1" cx="85.9" cy="-1.8" r="0.6"/>
				<circle class="st1" cx="85.8" cy="-41.2" r="0.6"/>
				<circle class="st1" cx="85.8" cy="-37.6" r="0.6"/>
				<circle class="st1" cx="85.8" cy="-34" r="0.6"/>
				<circle class="st1" cx="85.8" cy="-30.4" r="0.6"/>
				<circle class="st1" cx="85.8" cy="-26.9" r="0.6"/>
				<circle class="st1" cx="85.8" cy="-23.3" r="0.6"/>
				<circle class="st1" cx="85.8" cy="-19.7" r="0.6"/>
				<circle class="st1" cx="85.8" cy="-16.1" r="0.6"/>
				<circle class="st1" cx="85.8" cy="-12.6" r="0.6"/>
				<circle class="st1" cx="85.8" cy="-9" r="0.6"/>
				<circle class="st1" cx="85.8" cy="-5.4" r="0.6"/>
				<circle class="st1" cx="85.8" cy="-1.8" r="0.6"/>
			</g>
			<g>
				<defs>
					<rect id="SVGID_1_" x="85.8" y="-43" width="43" height="43"/>
				</defs>
				<clipPath id="SVGID_2_">
					<use xlink:href="#SVGID_1_"  style="overflow:visible;"/>
				</clipPath>
				<circle class="st2" cx="85.8" cy="-41.2" r="0.6"/>
				<circle class="st2" cx="85.8" cy="-37.6" r="0.6"/>
				<circle class="st2" cx="85.8" cy="-34" r="0.6"/>
				<circle class="st2" cx="85.8" cy="-30.4" r="0.6"/>
				<circle class="st2" cx="85.8" cy="-26.9" r="0.6"/>
				<circle class="st2" cx="85.8" cy="-23.3" r="0.6"/>
				<circle class="st2" cx="85.8" cy="-19.7" r="0.6"/>
				<circle class="st2" cx="85.8" cy="-16.1" r="0.6"/>
				<circle class="st2" cx="85.8" cy="-12.6" r="0.6"/>
				<circle class="st2" cx="85.8" cy="-9" r="0.6"/>
				<circle class="st2" cx="85.8" cy="-5.4" r="0.6"/>
				<circle class="st2" cx="85.8" cy="-1.8" r="0.6"/>
				<circle class="st2" cx="85.7" cy="-41.2" r="0.6"/>
				<circle class="st2" cx="85.7" cy="-37.6" r="0.6"/>
				<circle class="st2" cx="85.7" cy="-34" r="0.6"/>
				<circle class="st2" cx="85.7" cy="-30.4" r="0.6"/>
				<circle class="st2" cx="85.7" cy="-26.9" r="0.6"/>
				<circle class="st2" cx="85.7" cy="-23.3" r="0.6"/>
				<circle class="st2" cx="85.7" cy="-19.7" r="0.6"/>
				<circle class="st2" cx="85.7" cy="-16.1" r="0.6"/>
				<circle class="st2" cx="85.7" cy="-12.6" r="0.6"/>
				<circle class="st2" cx="85.7" cy="-9" r="0.6"/>
				<circle class="st2" cx="85.7" cy="-5.4" r="0.6"/>
				<circle class="st2" cx="85.7" cy="-1.8" r="0.6"/>
			</g>
		</g>
		<g>
			<g>
				<circle class="st1" cx="85.9" cy="-41.2" r="0.6"/>
				<circle class="st1" cx="85.9" cy="-37.6" r="0.6"/>
				<circle class="st1" cx="85.9" cy="-34" r="0.6"/>
				<circle class="st1" cx="85.9" cy="-30.4" r="0.6"/>
				<circle class="st1" cx="85.9" cy="-26.9" r="0.6"/>
				<circle class="st1" cx="85.9" cy="-23.3" r="0.6"/>
				<circle class="st1" cx="85.9" cy="-19.7" r="0.6"/>
				<circle class="st1" cx="85.9" cy="-16.1" r="0.6"/>
				<circle class="st1" cx="85.9" cy="-12.6" r="0.6"/>
				<circle class="st1" cx="85.9" cy="-9" r="0.6"/>
				<circle class="st1" cx="85.9" cy="-5.4" r="0.6"/>
				<circle class="st1" cx="85.9" cy="-1.8" r="0.6"/>
				<circle class="st1" cx="43" cy="-41.2" r="0.6"/>
				<circle class="st1" cx="46.5" cy="-41.2" r="0.6"/>
				<circle class="st1" cx="50.1" cy="-41.2" r="0.6"/>
				<circle class="st1" cx="53.7" cy="-41.2" r="0.6"/>
				<circle class="st1" cx="43" cy="-37.6" r="0.6"/>
				<circle class="st1" cx="46.5" cy="-37.6" r="0.6"/>
				<circle class="st1" cx="50.1" cy="-37.6" r="0.6"/>
				<circle class="st1" cx="53.7" cy="-37.6" r="0.6"/>
				<circle class="st1" cx="43" cy="-34" r="0.6"/>
				<circle class="st1" cx="46.5" cy="-34" r="0.6"/>
				<circle class="st1" cx="50.1" cy="-34" r="0.6"/>
				<circle class="st1" cx="53.7" cy="-34" r="0.6"/>
				<circle class="st1" cx="43" cy="-30.4" r="0.6"/>
				<circle class="st1" cx="46.5" cy="-30.4" r="0.6"/>
				<circle class="st1" cx="50.1" cy="-30.4" r="0.6"/>
				<circle class="st1" cx="53.7" cy="-30.4" r="0.6"/>
				<circle class="st1" cx="43" cy="-26.9" r="0.6"/>
				<circle class="st1" cx="46.5" cy="-26.9" r="0.6"/>
				<circle class="st1" cx="50.1" cy="-26.9" r="0.6"/>
				<circle class="st1" cx="53.7" cy="-26.9" r="0.6"/>
				<circle class="st1" cx="43" cy="-23.3" r="0.6"/>
				<circle class="st1" cx="46.5" cy="-23.3" r="0.6"/>
				<circle class="st1" cx="50.1" cy="-23.3" r="0.6"/>
				<circle class="st1" cx="53.7" cy="-23.3" r="0.6"/>
				<circle class="st1" cx="57.3" cy="-41.2" r="0.6"/>
				<circle class="st1" cx="60.8" cy="-41.2" r="0.6"/>
				<circle class="st1" cx="64.4" cy="-41.2" r="0.6"/>
				<circle class="st1" cx="68" cy="-41.2" r="0.6"/>
				<circle class="st1" cx="71.5" cy="-41.2" r="0.6"/>
				<circle class="st1" cx="57.3" cy="-37.6" r="0.6"/>
				<circle class="st1" cx="60.8" cy="-37.6" r="0.6"/>
				<circle class="st1" cx="64.4" cy="-37.6" r="0.6"/>
				<circle class="st1" cx="68" cy="-37.6" r="0.6"/>
				<circle class="st1" cx="71.5" cy="-37.6" r="0.6"/>
				<circle class="st1" cx="57.3" cy="-34" r="0.6"/>
				<circle class="st1" cx="60.8" cy="-34" r="0.6"/>
				<circle class="st1" cx="64.4" cy="-34" r="0.6"/>
				<circle class="st1" cx="68" cy="-34" r="0.6"/>
				<circle class="st1" cx="71.5" cy="-34" r="0.6"/>
				<circle class="st1" cx="57.3" cy="-30.4" r="0.6"/>
				<circle class="st1" cx="60.8" cy="-30.4" r="0.6"/>
				<circle class="st1" cx="64.4" cy="-30.4" r="0.6"/>
				<circle class="st1" cx="68" cy="-30.4" r="0.6"/>
				<circle class="st1" cx="71.5" cy="-30.4" r="0.6"/>
				<circle class="st1" cx="57.3" cy="-26.9" r="0.6"/>
				<circle class="st1" cx="60.8" cy="-26.9" r="0.6"/>
				<circle class="st1" cx="64.4" cy="-26.9" r="0.6"/>
				<circle class="st1" cx="68" cy="-26.9" r="0.6"/>
				<circle class="st1" cx="71.5" cy="-26.9" r="0.6"/>
				<circle class="st1" cx="57.3" cy="-23.3" r="0.6"/>
				<circle class="st1" cx="60.8" cy="-23.3" r="0.6"/>
				<circle class="st1" cx="64.4" cy="-23.3" r="0.6"/>
				<circle class="st1" cx="68" cy="-23.3" r="0.6"/>
				<circle class="st1" cx="71.5" cy="-23.3" r="0.6"/>
				<circle class="st1" cx="75.1" cy="-41.2" r="0.6"/>
				<circle class="st1" cx="78.7" cy="-41.2" r="0.6"/>
				<circle class="st1" cx="82.3" cy="-41.2" r="0.6"/>
				<circle class="st1" cx="85.8" cy="-41.2" r="0.6"/>
				<circle class="st1" cx="75.1" cy="-37.6" r="0.6"/>
				<circle class="st1" cx="78.7" cy="-37.6" r="0.6"/>
				<circle class="st1" cx="82.3" cy="-37.6" r="0.6"/>
				<circle class="st1" cx="85.8" cy="-37.6" r="0.6"/>
				<circle class="st1" cx="75.1" cy="-34" r="0.6"/>
				<circle class="st1" cx="78.7" cy="-34" r="0.6"/>
				<circle class="st1" cx="82.3" cy="-34" r="0.6"/>
				<circle class="st1" cx="85.8" cy="-34" r="0.6"/>
				<circle class="st1" cx="75.1" cy="-30.4" r="0.6"/>
				<circle class="st1" cx="78.7" cy="-30.4" r="0.6"/>
				<circle class="st1" cx="82.3" cy="-30.4" r="0.6"/>
				<circle class="st1" cx="85.8" cy="-30.4" r="0.6"/>
				<circle class="st1" cx="75.1" cy="-26.9" r="0.6"/>
				<circle class="st1" cx="78.7" cy="-26.9" r="0.6"/>
				<circle class="st1" cx="82.3" cy="-26.9" r="0.6"/>
				<circle class="st1" cx="85.8" cy="-26.9" r="0.6"/>
				<circle class="st1" cx="75.1" cy="-23.3" r="0.6"/>
				<circle class="st1" cx="78.7" cy="-23.3" r="0.6"/>
				<circle class="st1" cx="82.3" cy="-23.3" r="0.6"/>
				<circle class="st1" cx="85.8" cy="-23.3" r="0.6"/>
				<circle class="st1" cx="43" cy="-19.7" r="0.6"/>
				<circle class="st1" cx="46.5" cy="-19.7" r="0.6"/>
				<circle class="st1" cx="50.1" cy="-19.7" r="0.6"/>
				<circle class="st1" cx="53.7" cy="-19.7" r="0.6"/>
				<circle class="st1" cx="43" cy="-16.1" r="0.6"/>
				<circle class="st1" cx="46.5" cy="-16.1" r="0.6"/>
				<circle class="st1" cx="50.1" cy="-16.1" r="0.6"/>
				<circle class="st1" cx="53.7" cy="-16.1" r="0.6"/>
				<circle class="st1" cx="43" cy="-12.6" r="0.6"/>
				<circle class="st1" cx="46.5" cy="-12.6" r="0.6"/>
				<circle class="st1" cx="50.1" cy="-12.6" r="0.6"/>
				<circle class="st1" cx="53.7" cy="-12.6" r="0.6"/>
				<circle class="st1" cx="43" cy="-9" r="0.6"/>
				<circle class="st1" cx="46.5" cy="-9" r="0.6"/>
				<circle class="st1" cx="50.1" cy="-9" r="0.6"/>
				<circle class="st1" cx="53.7" cy="-9" r="0.6"/>
				<circle class="st1" cx="43" cy="-5.4" r="0.6"/>
				<circle class="st1" cx="46.5" cy="-5.4" r="0.6"/>
				<circle class="st1" cx="50.1" cy="-5.4" r="0.6"/>
				<circle class="st1" cx="53.7" cy="-5.4" r="0.6"/>
				<circle class="st1" cx="43" cy="-1.8" r="0.6"/>
				<circle class="st1" cx="46.5" cy="-1.8" r="0.6"/>
				<circle class="st1" cx="50.1" cy="-1.8" r="0.6"/>
				<circle class="st1" cx="53.7" cy="-1.8" r="0.6"/>
				<circle class="st1" cx="57.3" cy="-19.7" r="0.6"/>
				<circle class="st1" cx="60.8" cy="-19.7" r="0.6"/>
				<circle class="st1" cx="64.4" cy="-19.7" r="0.6"/>
				<circle class="st1" cx="68" cy="-19.7" r="0.6"/>
				<circle class="st1" cx="71.5" cy="-19.7" r="0.6"/>
				<circle class="st1" cx="57.3" cy="-16.1" r="0.6"/>
				<circle class="st1" cx="60.8" cy="-16.1" r="0.6"/>
				<circle class="st1" cx="64.4" cy="-16.1" r="0.6"/>
				<circle class="st1" cx="68" cy="-16.1" r="0.6"/>
				<circle class="st1" cx="71.5" cy="-16.1" r="0.6"/>
				<circle class="st1" cx="57.3" cy="-12.6" r="0.6"/>
				<circle class="st1" cx="60.8" cy="-12.6" r="0.6"/>
				<circle class="st1" cx="64.4" cy="-12.6" r="0.6"/>
				<circle class="st1" cx="68" cy="-12.6" r="0.6"/>
				<circle class="st1" cx="71.5" cy="-12.6" r="0.6"/>
				<circle class="st1" cx="57.3" cy="-9" r="0.6"/>
				<circle class="st1" cx="60.8" cy="-9" r="0.6"/>
				<circle class="st1" cx="64.4" cy="-9" r="0.6"/>
				<circle class="st1" cx="68" cy="-9" r="0.6"/>
				<circle class="st1" cx="71.5" cy="-9" r="0.6"/>
				<circle class="st1" cx="57.3" cy="-5.4" r="0.6"/>
				<circle class="st1" cx="60.8" cy="-5.4" r="0.6"/>
				<circle class="st1" cx="64.4" cy="-5.4" r="0.6"/>
				<circle class="st1" cx="68" cy="-5.4" r="0.6"/>
				<circle class="st1" cx="71.5" cy="-5.4" r="0.6"/>
				<circle class="st1" cx="57.3" cy="-1.8" r="0.6"/>
				<circle class="st1" cx="60.8" cy="-1.8" r="0.6"/>
				<circle class="st1" cx="64.4" cy="-1.8" r="0.6"/>
				<circle class="st1" cx="68" cy="-1.8" r="0.6"/>
				<circle class="st1" cx="71.5" cy="-1.8" r="0.6"/>
				<circle class="st1" cx="75.1" cy="-19.7" r="0.6"/>
				<circle class="st1" cx="78.7" cy="-19.7" r="0.6"/>
				<circle class="st1" cx="82.3" cy="-19.7" r="0.6"/>
				<circle class="st1" cx="85.8" cy="-19.7" r="0.6"/>
				<circle class="st1" cx="75.1" cy="-16.1" r="0.6"/>
				<circle class="st1" cx="78.7" cy="-16.1" r="0.6"/>
				<circle class="st1" cx="82.3" cy="-16.1" r="0.6"/>
				<circle class="st1" cx="85.8" cy="-16.1" r="0.6"/>
				<circle class="st1" cx="75.1" cy="-12.6" r="0.6"/>
				<circle class="st1" cx="78.7" cy="-12.6" r="0.6"/>
				<circle class="st1" cx="82.3" cy="-12.6" r="0.6"/>
				<circle class="st1" cx="85.8" cy="-12.6" r="0.6"/>
				<circle class="st1" cx="75.1" cy="-9" r="0.6"/>
				<circle class="st1" cx="78.7" cy="-9" r="0.6"/>
				<circle class="st1" cx="82.3" cy="-9" r="0.6"/>
				<circle class="st1" cx="85.8" cy="-9" r="0.6"/>
				<circle class="st1" cx="75.1" cy="-5.4" r="0.6"/>
				<circle class="st1" cx="78.7" cy="-5.4" r="0.6"/>
				<circle class="st1" cx="82.3" cy="-5.4" r="0.6"/>
				<circle class="st1" cx="85.8" cy="-5.4" r="0.6"/>
				<circle class="st1" cx="75.1" cy="-1.8" r="0.6"/>
				<circle class="st1" cx="78.7" cy="-1.8" r="0.6"/>
				<circle class="st1" cx="82.3" cy="-1.8" r="0.6"/>
				<circle class="st1" cx="85.8" cy="-1.8" r="0.6"/>
				<circle class="st1" cx="42.9" cy="-41.2" r="0.6"/>
				<circle class="st1" cx="42.9" cy="-37.6" r="0.6"/>
				<circle class="st1" cx="42.9" cy="-34" r="0.6"/>
				<circle class="st1" cx="42.9" cy="-30.4" r="0.6"/>
				<circle class="st1" cx="42.9" cy="-26.9" r="0.6"/>
				<circle class="st1" cx="42.9" cy="-23.3" r="0.6"/>
				<circle class="st1" cx="42.9" cy="-19.7" r="0.6"/>
				<circle class="st1" cx="42.9" cy="-16.1" r="0.6"/>
				<circle class="st1" cx="42.9" cy="-12.6" r="0.6"/>
				<circle class="st1" cx="42.9" cy="-9" r="0.6"/>
				<circle class="st1" cx="42.9" cy="-5.4" r="0.6"/>
				<circle class="st1" cx="42.9" cy="-1.8" r="0.6"/>
			</g>
			<g>
				<defs>
					<rect id="SVGID_3_" x="42.9" y="-43" width="43" height="43"/>
				</defs>
				<clipPath id="SVGID_4_">
					<use xlink:href="#SVGID_3_"  style="overflow:visible;"/>
				</clipPath>
				<circle class="st3" cx="42.9" cy="-41.2" r="0.6"/>
				<circle class="st3" cx="42.9" cy="-37.6" r="0.6"/>
				<circle class="st3" cx="42.9" cy="-34" r="0.6"/>
				<circle class="st3" cx="42.9" cy="-30.4" r="0.6"/>
				<circle class="st3" cx="42.9" cy="-26.9" r="0.6"/>
				<circle class="st3" cx="42.9" cy="-23.3" r="0.6"/>
				<circle class="st3" cx="42.9" cy="-19.7" r="0.6"/>
				<circle class="st3" cx="42.9" cy="-16.1" r="0.6"/>
				<circle class="st3" cx="42.9" cy="-12.6" r="0.6"/>
				<circle class="st3" cx="42.9" cy="-9" r="0.6"/>
				<circle class="st3" cx="42.9" cy="-5.4" r="0.6"/>
				<circle class="st3" cx="42.9" cy="-1.8" r="0.6"/>
				<circle class="st3" cx="42.8" cy="-41.2" r="0.6"/>
				<circle class="st3" cx="42.8" cy="-37.6" r="0.6"/>
				<circle class="st3" cx="42.8" cy="-34" r="0.6"/>
				<circle class="st3" cx="42.8" cy="-30.4" r="0.6"/>
				<circle class="st3" cx="42.8" cy="-26.9" r="0.6"/>
				<circle class="st3" cx="42.8" cy="-23.3" r="0.6"/>
				<circle class="st3" cx="42.8" cy="-19.7" r="0.6"/>
				<circle class="st3" cx="42.8" cy="-16.1" r="0.6"/>
				<circle class="st3" cx="42.8" cy="-12.6" r="0.6"/>
				<circle class="st3" cx="42.8" cy="-9" r="0.6"/>
				<circle class="st3" cx="42.8" cy="-5.4" r="0.6"/>
				<circle class="st3" cx="42.8" cy="-1.8" r="0.6"/>
			</g>
		</g>
		<g>
			<g>
				<circle class="st1" cx="43" cy="-41.2" r="0.6"/>
				<circle class="st1" cx="43" cy="-37.6" r="0.6"/>
				<circle class="st1" cx="43" cy="-34" r="0.6"/>
				<circle class="st1" cx="43" cy="-30.4" r="0.6"/>
				<circle class="st1" cx="43" cy="-26.9" r="0.6"/>
				<circle class="st1" cx="43" cy="-23.3" r="0.6"/>
				<circle class="st1" cx="43" cy="-19.7" r="0.6"/>
				<circle class="st1" cx="43" cy="-16.1" r="0.6"/>
				<circle class="st1" cx="43" cy="-12.6" r="0.6"/>
				<circle class="st1" cx="43" cy="-9" r="0.6"/>
				<circle class="st1" cx="43" cy="-5.4" r="0.6"/>
				<circle class="st1" cx="43" cy="-1.8" r="0.6"/>
				<circle class="st1" cx="42.9" cy="-41.2" r="0.6"/>
				<circle class="st1" cx="42.9" cy="-37.6" r="0.6"/>
				<circle class="st1" cx="42.9" cy="-34" r="0.6"/>
				<circle class="st1" cx="42.9" cy="-30.4" r="0.6"/>
				<circle class="st1" cx="42.9" cy="-26.9" r="0.6"/>
				<circle class="st1" cx="42.9" cy="-23.3" r="0.6"/>
				<circle class="st1" cx="42.9" cy="-19.7" r="0.6"/>
				<circle class="st1" cx="42.9" cy="-16.1" r="0.6"/>
				<circle class="st1" cx="42.9" cy="-12.6" r="0.6"/>
				<circle class="st1" cx="42.9" cy="-9" r="0.6"/>
				<circle class="st1" cx="42.9" cy="-5.4" r="0.6"/>
				<circle class="st1" cx="42.9" cy="-1.8" r="0.6"/>
			</g>
			<g>
				<defs>
					<rect id="SVGID_5_" y="-43" width="43" height="43"/>
				</defs>
				<clipPath id="SVGID_6_">
					<use xlink:href="#SVGID_5_"  style="overflow:visible;"/>
				</clipPath>
			</g>
		</g>
	</g>
</pattern>
<g>
	<g>
		<path class="st1" d="M59.2,241.3l34.4-0.4l34.4-0.3c11.5-0.1,22.9-0.3,34.4-0.2c11.5,0.2,22.9,0.3,34.4,0.9c0.1,0,0.1,0,0.1,0.1
			c0,0.1,0,0.1-0.1,0.1c-11.5,0.6-22.9,0.7-34.4,0.9c-11.5,0.1-22.9-0.1-34.4-0.2l-34.4-0.3l-34.4-0.4
			C59.2,241.5,59.1,241.5,59.2,241.3C59.1,241.3,59.2,241.3,59.2,241.3z"/>
	</g>
	<g>
		<path class="st4" d="M221,62.8c0,3.6-1.5,6.9-3.9,9.3c-2.4,2.4-5.7,3.9-9.3,3.9H48.2c-7.3,0-13.2-5.9-13.2-13.2
			c0-3.6,1.5-6.9,3.9-9.3c2.4-2.4,5.7-3.9,9.3-3.9h159.7C215.1,49.6,221,55.5,221,62.8z"/>
		<path class="st1" d="M221.5,62.8c0,4.4-2.2,8.6-5.8,11.1c-1.8,1.3-3.8,2.1-6,2.4c-1.1,0.2-2.2,0.1-3.2,0.1l-3.1,0l-25.1,0l-50.3,0
			l-50.3,0.2l-25.1,0.1l-3.1,0c-1,0-2.1,0-3.2-0.1c-2.2-0.3-4.3-1.1-6.1-2.4c-1.8-1.3-3.3-3-4.3-5c-1-2-1.6-4.2-1.6-6.4
			c0-4.5,2.2-8.9,5.9-11.4c1.8-1.3,3.9-2.1,6.2-2.5c1.1-0.2,2.2-0.1,3.3-0.1l3.1,0l25.1-0.1l50.3,0l50.3,0.2l25.1,0.1l3.1,0
			c1,0,2.1,0,3.2,0.2c2.2,0.3,4.3,1.1,6,2.4c1.8,1.3,3.3,3,4.2,4.9C221,58.4,221.5,60.6,221.5,62.8z M220.5,62.8c0-2-0.5-4-1.5-5.8
			c-0.9-1.8-2.3-3.3-3.9-4.5c-1.6-1.2-3.6-1.9-5.5-2.2c-1-0.1-2-0.1-3.1-0.1l-3.1,0l-25.1,0.1L128,50.6l-50.3,0l-25.1-0.1l-3.1,0
			c-1.1,0-2.1,0-3,0.1c-1.9,0.3-3.8,1-5.4,2.1c-3.2,2.2-5.3,6.1-5.2,10c0,2,0.5,3.9,1.4,5.7c0.9,1.8,2.2,3.3,3.8,4.4
			c1.6,1.2,3.5,1.9,5.4,2.2c1,0.1,2,0.1,3,0.1l3.1,0l25.1,0.1l50.3,0.1l50.3,0l25.1,0l3.1,0c1.1,0,2.1,0,3.1-0.1
			c2-0.3,3.9-1,5.6-2.2C218.5,70.8,220.5,66.8,220.5,62.8z"/>
	</g>
	<g>
		<path class="st4" d="M188.9,250.7H67.1c-4.3,0-7.8-3.5-7.8-7.8v-3c0-4.3,3.5-7.8,7.8-7.8h121.8c4.3,0,7.8,3.5,7.8,7.8v3
			C196.8,247.2,193.2,250.7,188.9,250.7z"/>
		<path class="st1" d="M188.9,250.8c-24.9-0.1-49.8,0.2-74.7,0.4l-37.4,0.2l-9.3,0c-1.6,0.1-3.4-0.3-4.8-1.2
			c-1.5-0.9-2.6-2.2-3.4-3.7c-0.3-0.8-0.6-1.6-0.7-2.4c-0.1-0.4-0.1-0.9-0.1-1.3l0-1.2c0-0.8,0-1.5,0-2.4c0.1-0.8,0.2-1.7,0.6-2.5
			c0.6-1.6,1.7-3,3.1-4c0.7-0.5,1.5-0.9,2.3-1.1c0.8-0.2,1.7-0.4,2.5-0.4c24.9-0.1,49.8-0.3,74.7-0.2l18.7,0.2l18.7,0.3l9.3,0.1
			c1.6,0,3.3,0.4,4.6,1.3c1.4,0.8,2.5,2.1,3.1,3.6c0.3,0.7,0.6,1.5,0.6,2.3c0.1,0.8,0.1,1.6,0.1,2.4c0,0.8,0,1.5-0.1,2.3
			c-0.1,0.8-0.2,1.6-0.6,2.3c-0.6,1.5-1.7,2.8-3,3.6c-0.7,0.4-1.4,0.8-2.1,1C190.5,250.7,189.7,250.8,188.9,250.8z M188.9,250.6
			c0.8,0,1.5-0.1,2.3-0.4c0.7-0.2,1.4-0.6,2.1-1c1.3-0.9,2.2-2.1,2.8-3.5c0.3-0.7,0.4-1.5,0.5-2.2c0.1-0.7,0-1.5,0-2.3
			c0-0.8,0-1.6-0.1-2.3c-0.1-0.8-0.3-1.5-0.6-2.2c-0.6-1.4-1.7-2.5-3-3.3c-1.3-0.8-2.8-1.1-4.3-1l-9.3,0.1l-18.7,0.3l-18.7,0.2
			c-24.9,0.1-49.8-0.1-74.7-0.2c-0.7,0-1.4,0.1-2.1,0.3c-0.7,0.2-1.3,0.5-1.9,0.9c-1.2,0.8-2.1,1.9-2.6,3.2c-0.3,0.6-0.4,1.3-0.5,2
			c-0.1,0.7,0,1.5,0,2.3l0,1.2c0,0.4,0,0.7,0.1,1.1c0.1,0.7,0.3,1.4,0.6,2c0.6,1.3,1.6,2.4,2.8,3.1c0.6,0.4,1.3,0.7,1.9,0.8
			c0.7,0.2,1.4,0.2,2.1,0.2l9.3,0l37.4,0.2C139.1,250.4,164,250.7,188.9,250.6z"/>
	</g>
	<g>
		<path class="st1" d="M209.4,75.6c-1.9,13.1-3.8,26.3-5.8,39.4l-6,39l-11.9,78.1c0,0.3-0.3,0.4-0.5,0.4l-114.5,0.2
			c-0.4,0-0.7-0.3-0.7-0.6L45.9,76.1c-0.1-0.5,0.3-1.1,0.8-1.1c0,0,0.1,0,0.2,0c13.6,0,27.2,0.1,40.7,0.1l40.7,0.2L209.4,75.6z
			 M208.7,76.2l-81,0.4l-40.4,0.2c-13.5,0.1-26.9,0.1-40.4,0.1l1-1.1l23.6,156.2l-0.7-0.6l114.5,0.2l-0.5,0.4l12-78.1l6-39
			C204.6,102,206.7,89.2,208.7,76.2z"/>
	</g>
	<g>
		<path class="st1" d="M35,62.7l46.5-0.4L128,62c15.5-0.1,31-0.3,46.5-0.2c15.5,0.2,31,0.3,46.5,0.9c0.1,0,0.1,0,0.1,0.1
			c0,0.1,0,0.1-0.1,0.1c-15.5,0.6-31,0.7-46.5,0.9c-15.5,0.1-31-0.1-46.5-0.2l-46.5-0.3L35,62.9C34.9,62.9,34.9,62.8,35,62.7
			C34.9,62.7,34.9,62.7,35,62.7z"/>
	</g>
	<g>
		<path class="st1" d="M84,232.1c-1.4-1.2-2.8-2.4-4.2-3.7l-4.1-3.7c-1.4-1.3-2.9-2.4-4.1-3.8c-1.2-1.4-2.4-2.9-3.3-4.6
			c0-0.1,0-0.1,0-0.1c0,0,0.1,0,0.1,0c1.7,0.9,3.2,2.1,4.6,3.3c1.4,1.2,2.5,2.7,3.8,4.1l3.7,4.1c1.2,1.4,2.5,2.8,3.7,4.2
			c0,0,0,0.1,0,0.1C84.1,232.2,84.1,232.2,84,232.1z"/>
	</g>
	<g>
		<path class="st1" d="M143.5,232.1l-21.8-21.2l-21.7-21.3c-7.2-7.1-14.6-14.1-21.6-21.3c-7-7.3-14.1-14.6-20.9-22.1
			c0,0,0-0.1,0-0.1c0,0,0.1,0,0.1,0c7.6,6.8,14.8,13.8,22.1,20.9c7.3,7.1,14.3,14.4,21.4,21.6l21.3,21.7l21.2,21.8c0,0,0,0.1,0,0.1
			C143.6,232.2,143.6,232.2,143.5,232.1z"/>
	</g>
	<g>
		<path class="st1" d="M47,75.8l35.4,34.9l35.4,35c11.8,11.6,23.7,23.2,35.3,35c11.6,11.8,23.2,23.7,34.5,35.8c0,0,0,0.1,0,0.1
			c0,0-0.1,0-0.1,0c-12.1-11.3-23.9-22.9-35.8-34.5c-11.8-11.6-23.4-23.5-35-35.3l-35-35.4L46.9,76c0,0,0-0.1,0-0.1
			C46.9,75.8,47,75.8,47,75.8z"/>
	</g>
	<g>
		<path class="st1" d="M195.4,165l-22.5-22l-22.5-22c-7.5-7.3-15.1-14.6-22.4-22.1c-7.3-7.5-14.6-15.1-21.6-22.9c0,0,0-0.1,0-0.1
			c0,0,0.1,0,0.1,0c7.8,7,15.3,14.3,22.9,21.6c7.5,7.3,14.8,14.9,22.1,22.4l22,22.5l22,22.5c0,0,0,0.1,0,0.1
			C195.5,165.1,195.4,165.1,195.4,165z"/>
	</g>
	<g>
		<path class="st1" d="M166,75.9l9.6,9.1l9.6,9.1c3.2,3.1,6.5,6,9.5,9.2c3,3.2,6,6.5,8.7,10c0,0,0,0.1,0,0.1c0,0-0.1,0-0.1,0
			c-3.5-2.7-6.8-5.7-10-8.7c-3.2-3-6.2-6.3-9.2-9.5l-9.1-9.6l-9.1-9.6c0,0,0-0.1,0-0.1C165.9,75.8,166,75.8,166,75.9z"/>
	</g>
	<g>
		<path class="st1" d="M90.1,76l-9.1,9.6l-9.1,9.6c-3.1,3.2-6,6.5-9.2,9.5c-3.2,3-6.5,6-10,8.7c0,0-0.1,0-0.1,0c0,0,0-0.1,0-0.1
			c2.7-3.5,5.7-6.8,8.7-10c3-3.2,6.3-6.2,9.5-9.2l9.6-9.1l9.6-9.1c0,0,0.1,0,0.1,0C90.2,75.9,90.2,76,90.1,76z"/>
	</g>
	<g>
		<path class="st1" d="M149.6,76l-22,22.5l-22,22.5c-7.3,7.5-14.6,15.1-22.1,22.4c-7.5,7.3-15.1,14.6-22.9,21.6c0,0-0.1,0-0.1,0
			c0,0,0-0.1,0-0.1c7-7.8,14.3-15.3,21.6-22.9c7.3-7.5,14.9-14.8,22.4-22.1l22.5-22l22.5-22c0,0,0.1,0,0.1,0
			C149.7,75.9,149.7,76,149.6,76z"/>
	</g>
	<g>
		<path class="st1" d="M209.1,76l-34.9,35.4l-34.9,35.4c-11.6,11.8-23.2,23.7-35,35.3c-11.8,11.6-23.7,23.2-35.8,34.5
			c0,0-0.1,0-0.1,0c0,0,0-0.1,0-0.1c11.3-12.1,22.9-23.9,34.5-35.8c11.6-11.8,23.5-23.4,35.3-35l35.4-34.9L209,75.9c0,0,0.1,0,0.1,0
			C209.2,75.9,209.2,76,209.1,76z"/>
	</g>
	<g>
		<path class="st1" d="M198.4,146.2L177.2,168l-21.3,21.7c-7.1,7.2-14.1,14.6-21.3,21.6c-7.3,7-14.6,14.1-22.1,20.8c0,0-0.1,0-0.1,0
			c0,0,0-0.1,0-0.1c6.8-7.6,13.8-14.8,20.9-22.1c7.1-7.3,14.4-14.3,21.6-21.3l21.7-21.3l21.8-21.2c0,0,0.1,0,0.1,0
			C198.5,146.1,198.5,146.2,198.4,146.2z"/>
	</g>
	<g>
		<path class="st1" d="M171.8,232c1.2-1.4,2.4-2.8,3.7-4.2l3.7-4.2c1.3-1.4,2.4-2.9,3.8-4.1c1.4-1.2,2.9-2.4,4.6-3.3
			c0.1,0,0.1,0,0.1,0c0,0,0,0.1,0,0.1l0,0c-0.9,1.7-2.1,3.2-3.3,4.6c-1.2,1.4-2.7,2.5-4.1,3.8l-4.1,3.7c-1.4,1.2-2.8,2.5-4.2,3.7
			c0,0-0.1,0-0.1,0C171.8,232.1,171.8,232,171.8,232z"/>
	</g>
	<g>
		<path class="st1" d="M148,49.7c-14.6,0-29.3,0.2-44.1,0.3l-44.5,0.3c-0.4,0-0.7-0.3-0.7-0.7c0-0.2,0.1-0.3,0.2-0.4l0,0L94.2,5.6
			c0.4-0.4,1-0.5,1.5-0.2l0,0l13.2,10.9l13.1,11c4.3,3.6,8.8,7.5,13.2,11.2C139.6,42.4,143.8,46.1,148,49.7z M147.9,49.6
			c-4.6-3.7-9.2-7.2-13.6-10.6c-4.4-3.4-8.8-6.8-13.3-10.4l-13.4-10.7L94.3,7.1l1.5-0.1L60,50.1l-0.5-1.1l44,0.3
			C118.2,49.4,133,49.6,147.9,49.6z"/>
	</g>
	<g>
		<path class="st1" d="M196.2,49.9l-24.1,0.2l-12.1,0c-4,0-8,0-12.1,0c-0.1,0-0.2,0-0.3-0.1l0,0l-21.8-17.6c-0.3-0.2-0.4-0.7-0.1-1
			c0-0.1,0.1-0.1,0.1-0.1l0,0l39.4-26.9c0.5-0.3,1.1-0.2,1.4,0.3l0,0l0,0c5,7.5,10,15.1,14.9,22.7L196.2,49.9z M195.1,49.3
			l-15.2-21.8c-5-7.2-10-14.4-14.9-21.7l1.4,0.3l-39.8,26.3l0.1-1.1l21.6,17.9l-0.3-0.1c3.9,0,7.9,0,11.8,0l11.8,0L195.1,49.3z"/>
	</g>
</g>
</svg>
