<svg xmlns="http://www.w3.org/2000/svg" xmlns:xlink="http://www.w3.org/1999/xlink" id="Layer_1" x="0" y="0" enable-background="new 0 0 256 256" version="1.1" viewBox="0 0 256 256" xml:space="preserve"><style>.st0{fill:none;}
	.st1{fill:#253759;}
	.st2{clip-path:url(#SVGID_2_);fill:#253759;}
	.st3{clip-path:url(#SVGID_4_);fill:#253759;}
	.st4{fill:url(#New_Pattern_Swatch_1);}</style><pattern id="New_Pattern_Swatch_1" width="42.9" height="43" x="-828" y="-276" overflow="visible" patternUnits="userSpaceOnUse" viewBox="43 -43 42.9 43"><path d="M43-43H85.9V0H43z" class="st0"/><circle cx="85.9" cy="-41.2" r=".6" class="st1"/><circle cx="85.9" cy="-37.6" r=".6" class="st1"/><circle cx="85.9" cy="-34" r=".6" class="st1"/><circle cx="85.9" cy="-30.4" r=".6" class="st1"/><circle cx="85.9" cy="-26.9" r=".6" class="st1"/><circle cx="85.9" cy="-23.3" r=".6" class="st1"/><circle cx="85.9" cy="-19.7" r=".6" class="st1"/><circle cx="85.9" cy="-16.1" r=".6" class="st1"/><circle cx="85.9" cy="-12.6" r=".6" class="st1"/><circle cx="85.9" cy="-9" r=".6" class="st1"/><circle cx="85.9" cy="-5.4" r=".6" class="st1"/><circle cx="85.9" cy="-1.8" r=".6" class="st1"/><circle cx="85.8" cy="-41.2" r=".6" class="st1"/><circle cx="85.8" cy="-37.6" r=".6" class="st1"/><circle cx="85.8" cy="-34" r=".6" class="st1"/><circle cx="85.8" cy="-30.4" r=".6" class="st1"/><circle cx="85.8" cy="-26.9" r=".6" class="st1"/><circle cx="85.8" cy="-23.3" r=".6" class="st1"/><circle cx="85.8" cy="-19.7" r=".6" class="st1"/><circle cx="85.8" cy="-16.1" r=".6" class="st1"/><circle cx="85.8" cy="-12.6" r=".6" class="st1"/><circle cx="85.8" cy="-9" r=".6" class="st1"/><circle cx="85.8" cy="-5.4" r=".6" class="st1"/><circle cx="85.8" cy="-1.8" r=".6" class="st1"/><g><defs><path id="SVGID_1_" d="M85.8-43H128.8V0H85.8z"/></defs><clipPath id="SVGID_2_"><use overflow="visible" xlink:href="#SVGID_1_"/></clipPath><circle cx="85.8" cy="-41.2" r=".6" class="st2"/><circle cx="85.8" cy="-37.6" r=".6" class="st2"/><circle cx="85.8" cy="-34" r=".6" class="st2"/><circle cx="85.8" cy="-30.4" r=".6" class="st2"/><circle cx="85.8" cy="-26.9" r=".6" class="st2"/><circle cx="85.8" cy="-23.3" r=".6" class="st2"/><circle cx="85.8" cy="-19.7" r=".6" class="st2"/><circle cx="85.8" cy="-16.1" r=".6" class="st2"/><circle cx="85.8" cy="-12.6" r=".6" class="st2"/><circle cx="85.8" cy="-9" r=".6" class="st2"/><circle cx="85.8" cy="-5.4" r=".6" class="st2"/><circle cx="85.8" cy="-1.8" r=".6" class="st2"/><circle cx="85.7" cy="-41.2" r=".6" class="st2"/><circle cx="85.7" cy="-37.6" r=".6" class="st2"/><circle cx="85.7" cy="-34" r=".6" class="st2"/><circle cx="85.7" cy="-30.4" r=".6" class="st2"/><circle cx="85.7" cy="-26.9" r=".6" class="st2"/><circle cx="85.7" cy="-23.3" r=".6" class="st2"/><circle cx="85.7" cy="-19.7" r=".6" class="st2"/><circle cx="85.7" cy="-16.1" r=".6" class="st2"/><circle cx="85.7" cy="-12.6" r=".6" class="st2"/><circle cx="85.7" cy="-9" r=".6" class="st2"/><circle cx="85.7" cy="-5.4" r=".6" class="st2"/><circle cx="85.7" cy="-1.8" r=".6" class="st2"/></g><g><circle cx="85.9" cy="-41.2" r=".6" class="st1"/><circle cx="85.9" cy="-37.6" r=".6" class="st1"/><circle cx="85.9" cy="-34" r=".6" class="st1"/><circle cx="85.9" cy="-30.4" r=".6" class="st1"/><circle cx="85.9" cy="-26.9" r=".6" class="st1"/><circle cx="85.9" cy="-23.3" r=".6" class="st1"/><circle cx="85.9" cy="-19.7" r=".6" class="st1"/><circle cx="85.9" cy="-16.1" r=".6" class="st1"/><circle cx="85.9" cy="-12.6" r=".6" class="st1"/><circle cx="85.9" cy="-9" r=".6" class="st1"/><circle cx="85.9" cy="-5.4" r=".6" class="st1"/><circle cx="85.9" cy="-1.8" r=".6" class="st1"/><circle cx="43" cy="-41.2" r=".6" class="st1"/><circle cx="46.5" cy="-41.2" r=".6" class="st1"/><circle cx="50.1" cy="-41.2" r=".6" class="st1"/><circle cx="53.7" cy="-41.2" r=".6" class="st1"/><circle cx="43" cy="-37.6" r=".6" class="st1"/><circle cx="46.5" cy="-37.6" r=".6" class="st1"/><circle cx="50.1" cy="-37.6" r=".6" class="st1"/><circle cx="53.7" cy="-37.6" r=".6" class="st1"/><circle cx="43" cy="-34" r=".6" class="st1"/><circle cx="46.5" cy="-34" r=".6" class="st1"/><circle cx="50.1" cy="-34" r=".6" class="st1"/><circle cx="53.7" cy="-34" r=".6" class="st1"/><circle cx="43" cy="-30.4" r=".6" class="st1"/><circle cx="46.5" cy="-30.4" r=".6" class="st1"/><circle cx="50.1" cy="-30.4" r=".6" class="st1"/><circle cx="53.7" cy="-30.4" r=".6" class="st1"/><circle cx="43" cy="-26.9" r=".6" class="st1"/><circle cx="46.5" cy="-26.9" r=".6" class="st1"/><circle cx="50.1" cy="-26.9" r=".6" class="st1"/><circle cx="53.7" cy="-26.9" r=".6" class="st1"/><circle cx="43" cy="-23.3" r=".6" class="st1"/><circle cx="46.5" cy="-23.3" r=".6" class="st1"/><circle cx="50.1" cy="-23.3" r=".6" class="st1"/><circle cx="53.7" cy="-23.3" r=".6" class="st1"/><circle cx="57.3" cy="-41.2" r=".6" class="st1"/><circle cx="60.8" cy="-41.2" r=".6" class="st1"/><circle cx="64.4" cy="-41.2" r=".6" class="st1"/><circle cx="68" cy="-41.2" r=".6" class="st1"/><circle cx="71.5" cy="-41.2" r=".6" class="st1"/><circle cx="57.3" cy="-37.6" r=".6" class="st1"/><circle cx="60.8" cy="-37.6" r=".6" class="st1"/><circle cx="64.4" cy="-37.6" r=".6" class="st1"/><circle cx="68" cy="-37.6" r=".6" class="st1"/><circle cx="71.5" cy="-37.6" r=".6" class="st1"/><circle cx="57.3" cy="-34" r=".6" class="st1"/><circle cx="60.8" cy="-34" r=".6" class="st1"/><circle cx="64.4" cy="-34" r=".6" class="st1"/><circle cx="68" cy="-34" r=".6" class="st1"/><circle cx="71.5" cy="-34" r=".6" class="st1"/><circle cx="57.3" cy="-30.4" r=".6" class="st1"/><circle cx="60.8" cy="-30.4" r=".6" class="st1"/><circle cx="64.4" cy="-30.4" r=".6" class="st1"/><circle cx="68" cy="-30.4" r=".6" class="st1"/><circle cx="71.5" cy="-30.4" r=".6" class="st1"/><circle cx="57.3" cy="-26.9" r=".6" class="st1"/><circle cx="60.8" cy="-26.9" r=".6" class="st1"/><circle cx="64.4" cy="-26.9" r=".6" class="st1"/><circle cx="68" cy="-26.9" r=".6" class="st1"/><circle cx="71.5" cy="-26.9" r=".6" class="st1"/><circle cx="57.3" cy="-23.3" r=".6" class="st1"/><circle cx="60.8" cy="-23.3" r=".6" class="st1"/><circle cx="64.4" cy="-23.3" r=".6" class="st1"/><circle cx="68" cy="-23.3" r=".6" class="st1"/><circle cx="71.5" cy="-23.3" r=".6" class="st1"/><circle cx="75.1" cy="-41.2" r=".6" class="st1"/><circle cx="78.7" cy="-41.2" r=".6" class="st1"/><circle cx="82.3" cy="-41.2" r=".6" class="st1"/><circle cx="85.8" cy="-41.2" r=".6" class="st1"/><circle cx="75.1" cy="-37.6" r=".6" class="st1"/><circle cx="78.7" cy="-37.6" r=".6" class="st1"/><circle cx="82.3" cy="-37.6" r=".6" class="st1"/><circle cx="85.8" cy="-37.6" r=".6" class="st1"/><circle cx="75.1" cy="-34" r=".6" class="st1"/><circle cx="78.7" cy="-34" r=".6" class="st1"/><circle cx="82.3" cy="-34" r=".6" class="st1"/><circle cx="85.8" cy="-34" r=".6" class="st1"/><circle cx="75.1" cy="-30.4" r=".6" class="st1"/><circle cx="78.7" cy="-30.4" r=".6" class="st1"/><circle cx="82.3" cy="-30.4" r=".6" class="st1"/><circle cx="85.8" cy="-30.4" r=".6" class="st1"/><circle cx="75.1" cy="-26.9" r=".6" class="st1"/><circle cx="78.7" cy="-26.9" r=".6" class="st1"/><circle cx="82.3" cy="-26.9" r=".6" class="st1"/><circle cx="85.8" cy="-26.9" r=".6" class="st1"/><circle cx="75.1" cy="-23.3" r=".6" class="st1"/><circle cx="78.7" cy="-23.3" r=".6" class="st1"/><circle cx="82.3" cy="-23.3" r=".6" class="st1"/><circle cx="85.8" cy="-23.3" r=".6" class="st1"/><circle cx="43" cy="-19.7" r=".6" class="st1"/><circle cx="46.5" cy="-19.7" r=".6" class="st1"/><circle cx="50.1" cy="-19.7" r=".6" class="st1"/><circle cx="53.7" cy="-19.7" r=".6" class="st1"/><circle cx="43" cy="-16.1" r=".6" class="st1"/><circle cx="46.5" cy="-16.1" r=".6" class="st1"/><circle cx="50.1" cy="-16.1" r=".6" class="st1"/><circle cx="53.7" cy="-16.1" r=".6" class="st1"/><circle cx="43" cy="-12.6" r=".6" class="st1"/><circle cx="46.5" cy="-12.6" r=".6" class="st1"/><circle cx="50.1" cy="-12.6" r=".6" class="st1"/><circle cx="53.7" cy="-12.6" r=".6" class="st1"/><circle cx="43" cy="-9" r=".6" class="st1"/><circle cx="46.5" cy="-9" r=".6" class="st1"/><circle cx="50.1" cy="-9" r=".6" class="st1"/><circle cx="53.7" cy="-9" r=".6" class="st1"/><circle cx="43" cy="-5.4" r=".6" class="st1"/><circle cx="46.5" cy="-5.4" r=".6" class="st1"/><circle cx="50.1" cy="-5.4" r=".6" class="st1"/><circle cx="53.7" cy="-5.4" r=".6" class="st1"/><circle cx="43" cy="-1.8" r=".6" class="st1"/><circle cx="46.5" cy="-1.8" r=".6" class="st1"/><circle cx="50.1" cy="-1.8" r=".6" class="st1"/><circle cx="53.7" cy="-1.8" r=".6" class="st1"/><circle cx="57.3" cy="-19.7" r=".6" class="st1"/><circle cx="60.8" cy="-19.7" r=".6" class="st1"/><circle cx="64.4" cy="-19.7" r=".6" class="st1"/><circle cx="68" cy="-19.7" r=".6" class="st1"/><circle cx="71.5" cy="-19.7" r=".6" class="st1"/><circle cx="57.3" cy="-16.1" r=".6" class="st1"/><circle cx="60.8" cy="-16.1" r=".6" class="st1"/><circle cx="64.4" cy="-16.1" r=".6" class="st1"/><circle cx="68" cy="-16.1" r=".6" class="st1"/><circle cx="71.5" cy="-16.1" r=".6" class="st1"/><circle cx="57.3" cy="-12.6" r=".6" class="st1"/><circle cx="60.8" cy="-12.6" r=".6" class="st1"/><circle cx="64.4" cy="-12.6" r=".6" class="st1"/><circle cx="68" cy="-12.6" r=".6" class="st1"/><circle cx="71.5" cy="-12.6" r=".6" class="st1"/><circle cx="57.3" cy="-9" r=".6" class="st1"/><circle cx="60.8" cy="-9" r=".6" class="st1"/><circle cx="64.4" cy="-9" r=".6" class="st1"/><circle cx="68" cy="-9" r=".6" class="st1"/><circle cx="71.5" cy="-9" r=".6" class="st1"/><circle cx="57.3" cy="-5.4" r=".6" class="st1"/><circle cx="60.8" cy="-5.4" r=".6" class="st1"/><circle cx="64.4" cy="-5.4" r=".6" class="st1"/><circle cx="68" cy="-5.4" r=".6" class="st1"/><circle cx="71.5" cy="-5.4" r=".6" class="st1"/><circle cx="57.3" cy="-1.8" r=".6" class="st1"/><circle cx="60.8" cy="-1.8" r=".6" class="st1"/><circle cx="64.4" cy="-1.8" r=".6" class="st1"/><circle cx="68" cy="-1.8" r=".6" class="st1"/><circle cx="71.5" cy="-1.8" r=".6" class="st1"/><circle cx="75.1" cy="-19.7" r=".6" class="st1"/><circle cx="78.7" cy="-19.7" r=".6" class="st1"/><circle cx="82.3" cy="-19.7" r=".6" class="st1"/><circle cx="85.8" cy="-19.7" r=".6" class="st1"/><circle cx="75.1" cy="-16.1" r=".6" class="st1"/><circle cx="78.7" cy="-16.1" r=".6" class="st1"/><circle cx="82.3" cy="-16.1" r=".6" class="st1"/><circle cx="85.8" cy="-16.1" r=".6" class="st1"/><circle cx="75.1" cy="-12.6" r=".6" class="st1"/><circle cx="78.7" cy="-12.6" r=".6" class="st1"/><circle cx="82.3" cy="-12.6" r=".6" class="st1"/><circle cx="85.8" cy="-12.6" r=".6" class="st1"/><circle cx="75.1" cy="-9" r=".6" class="st1"/><circle cx="78.7" cy="-9" r=".6" class="st1"/><circle cx="82.3" cy="-9" r=".6" class="st1"/><circle cx="85.8" cy="-9" r=".6" class="st1"/><circle cx="75.1" cy="-5.4" r=".6" class="st1"/><circle cx="78.7" cy="-5.4" r=".6" class="st1"/><circle cx="82.3" cy="-5.4" r=".6" class="st1"/><circle cx="85.8" cy="-5.4" r=".6" class="st1"/><circle cx="75.1" cy="-1.8" r=".6" class="st1"/><circle cx="78.7" cy="-1.8" r=".6" class="st1"/><circle cx="82.3" cy="-1.8" r=".6" class="st1"/><circle cx="85.8" cy="-1.8" r=".6" class="st1"/><circle cx="42.9" cy="-41.2" r=".6" class="st1"/><circle cx="42.9" cy="-37.6" r=".6" class="st1"/><circle cx="42.9" cy="-34" r=".6" class="st1"/><circle cx="42.9" cy="-30.4" r=".6" class="st1"/><circle cx="42.9" cy="-26.9" r=".6" class="st1"/><circle cx="42.9" cy="-23.3" r=".6" class="st1"/><circle cx="42.9" cy="-19.7" r=".6" class="st1"/><circle cx="42.9" cy="-16.1" r=".6" class="st1"/><circle cx="42.9" cy="-12.6" r=".6" class="st1"/><circle cx="42.9" cy="-9" r=".6" class="st1"/><circle cx="42.9" cy="-5.4" r=".6" class="st1"/><circle cx="42.9" cy="-1.8" r=".6" class="st1"/><g><defs><path id="SVGID_3_" d="M42.9-43H85.9V0H42.9z"/></defs><clipPath id="SVGID_4_"><use overflow="visible" xlink:href="#SVGID_3_"/></clipPath><circle cx="42.9" cy="-41.2" r=".6" class="st3"/><circle cx="42.9" cy="-37.6" r=".6" class="st3"/><circle cx="42.9" cy="-34" r=".6" class="st3"/><circle cx="42.9" cy="-30.4" r=".6" class="st3"/><circle cx="42.9" cy="-26.9" r=".6" class="st3"/><circle cx="42.9" cy="-23.3" r=".6" class="st3"/><circle cx="42.9" cy="-19.7" r=".6" class="st3"/><circle cx="42.9" cy="-16.1" r=".6" class="st3"/><circle cx="42.9" cy="-12.6" r=".6" class="st3"/><circle cx="42.9" cy="-9" r=".6" class="st3"/><circle cx="42.9" cy="-5.4" r=".6" class="st3"/><circle cx="42.9" cy="-1.8" r=".6" class="st3"/><circle cx="42.8" cy="-41.2" r=".6" class="st3"/><circle cx="42.8" cy="-37.6" r=".6" class="st3"/><circle cx="42.8" cy="-34" r=".6" class="st3"/><circle cx="42.8" cy="-30.4" r=".6" class="st3"/><circle cx="42.8" cy="-26.9" r=".6" class="st3"/><circle cx="42.8" cy="-23.3" r=".6" class="st3"/><circle cx="42.8" cy="-19.7" r=".6" class="st3"/><circle cx="42.8" cy="-16.1" r=".6" class="st3"/><circle cx="42.8" cy="-12.6" r=".6" class="st3"/><circle cx="42.8" cy="-9" r=".6" class="st3"/><circle cx="42.8" cy="-5.4" r=".6" class="st3"/><circle cx="42.8" cy="-1.8" r=".6" class="st3"/></g></g><g><circle cx="43" cy="-41.2" r=".6" class="st1"/><circle cx="43" cy="-37.6" r=".6" class="st1"/><circle cx="43" cy="-34" r=".6" class="st1"/><circle cx="43" cy="-30.4" r=".6" class="st1"/><circle cx="43" cy="-26.9" r=".6" class="st1"/><circle cx="43" cy="-23.3" r=".6" class="st1"/><circle cx="43" cy="-19.7" r=".6" class="st1"/><circle cx="43" cy="-16.1" r=".6" class="st1"/><circle cx="43" cy="-12.6" r=".6" class="st1"/><circle cx="43" cy="-9" r=".6" class="st1"/><circle cx="43" cy="-5.4" r=".6" class="st1"/><circle cx="43" cy="-1.8" r=".6" class="st1"/><circle cx="42.9" cy="-41.2" r=".6" class="st1"/><circle cx="42.9" cy="-37.6" r=".6" class="st1"/><circle cx="42.9" cy="-34" r=".6" class="st1"/><circle cx="42.9" cy="-30.4" r=".6" class="st1"/><circle cx="42.9" cy="-26.9" r=".6" class="st1"/><circle cx="42.9" cy="-23.3" r=".6" class="st1"/><circle cx="42.9" cy="-19.7" r=".6" class="st1"/><circle cx="42.9" cy="-16.1" r=".6" class="st1"/><circle cx="42.9" cy="-12.6" r=".6" class="st1"/><circle cx="42.9" cy="-9" r=".6" class="st1"/><circle cx="42.9" cy="-5.4" r=".6" class="st1"/><circle cx="42.9" cy="-1.8" r=".6" class="st1"/><g><defs><path id="SVGID_5_" d="M0-43H43V0H0z"/></defs><clipPath id="SVGID_6_"><use overflow="visible" xlink:href="#SVGID_5_"/></clipPath></g></g></pattern><path d="M196.4 65.1c-.1 22.7 0 45.5-.1 68.2l-.3 68.2-.1 34.1v4.3c0 1.4 0 3-.5 4.4-.9 2.9-3 5.3-5.7 6.6-1.4.6-2.8 1-4.3 1h-12.8l-68.2.1H70.3c-3-.1-6-1.6-7.8-4-.9-1.2-1.6-2.6-2-4-.1-.4-.2-.7-.2-1.1-.1-.4-.1-.8-.1-1.1v-19.3l-.1-68.2-.3-68.3V64.6c.1-1.5.5-3.1 1.1-4.5 1.4-2.8 4-4.9 7-5.7 1.5-.4 3.1-.4 4.5-.4H102.3c.5 0 .8.3 1 .7l4.8 16.5c.2.5-.2 1.1-.7 1.3h-3.8c-1 .1-2 .5-2.9 1-1.8 1.1-3 3.1-3.1 5.2-.2 2.1.7 4.2 2.3 5.6.8.7 1.7 1.2 2.8 1.5.5.1 1 .2 1.6.2h1.8l28.8.1 14.4.1h3.5c1.1-.1 2.2-.5 3.1-1.1 1.9-1.2 3.2-3.2 3.3-5.4.2-2.2-.7-4.5-2.4-5.9-.8-.7-1.8-1.3-2.9-1.6-.5-.2-1.1-.2-1.6-.2h-16.5c-.2 0-.4-.1-.4-.3l-4.7-16.5c-.1-.2.1-.4.3-.5h.1c5.8-.2 11.7-.2 17.5-.3l17.5-.2c5.8-.1 11.7-.1 17.5-.1h2.2c.8 0 1.6.2 2.4.4 1.6.4 3 1.2 4.2 2.2 2.5 2 4 5.2 4 8.4zm-2.1 0c0-2.6-1.2-5.2-3.2-6.9-1-.9-2.2-1.5-3.4-1.8-1.3-.4-2.5-.4-4.1-.4-5.8 0-11.7 0-17.5-.1l-17.5-.2-17.5-.3.4-.5 4.9 16.5-.4-.3 14.4-.1h1.8c.6 0 1.3.1 1.9.3 1.2.3 2.4.9 3.4 1.8 2 1.7 3 4.3 2.8 6.9-.2 2.6-1.6 5.1-3.8 6.4-1.1.7-2.4 1.1-3.6 1.3-.7.1-1.3 0-1.9.1h-1.8l-14.4.1-28.8.1h-1.8c-.7 0-1.3-.1-2-.3-1.3-.3-2.5-1-3.5-1.8-1-.9-1.8-2-2.4-3.2-.5-1.2-.7-2.6-.6-4 .2-2.7 1.7-5.3 4-6.7 1.1-.7 2.5-1.2 3.8-1.3.3 0 .7-.1 1-.1h2.7l-1 1.3c-1.6-5.5-3.2-11-4.7-16.5l1 .7H72.6c-1.5 0-2.7 0-4 .3-2.5.7-4.7 2.4-5.8 4.7-.6 1.2-.9 2.4-1 3.7v21.3l-.1 68.2-.1 68.2v17.1c0 1.5 0 2.8.3 4.1.3 1.3.9 2.5 1.8 3.5 1.6 2.1 4.2 3.4 6.9 3.6l34.1.1 68.2.1h12.8c1.4 0 2.7-.3 3.9-.9 2.4-1.1 4.4-3.3 5.1-5.9.4-1.3.4-2.6.4-4.1v-4.3l-.1-34.1-.3-68.2c-.4-22.9-.4-45.7-.4-68.4z" class="st1"/><path d="M159.7 79.3c0 1.8-.7 3.7-1.9 5.1-1.2 1.4-2.9 2.4-4.7 2.7-.9.2-1.8.1-2.7.1h-2.7l-5.4.1-21.7.3-10.9.1h-5.4c-2 0-3.9-.7-5.4-1.9-1.5-1.3-2.6-3.1-2.9-5-.4-1.9 0-4 1-5.8 1-1.7 2.6-3.1 4.5-3.8.9-.3 1.9-.5 2.9-.5h2.7c.4 0 .7.3.8.6l2.3 7.7-.9-.7 14.4-.1c4.8 0 9.6 0 14.4.1l-.9 1.2-2.1-7.8c-.1-.4.1-.8.5-.9h.2l14.1.4 1.8.1c.3 0 .6 0 .9.1.3 0 .6.1.9.2 1.2.3 2.3.8 3.2 1.6 1.9 1.3 3 3.7 3 6.1zm-.2 0c0-2.3-1.2-4.6-3-5.9-.9-.7-2-1.2-3.1-1.4-1.1-.2-2.3-.1-3.5-.1l-14.1.4.8-1c.8 2.6 1.6 5.1 2.4 7.7.2.5-.1 1-.6 1.2h-.2c-4.8.1-9.6.1-14.4.1l-14.4-.1c-.4 0-.8-.3-.9-.7l-2.2-7.8.8.6h-2.7c-.8 0-1.6.1-2.4.4-1.5.5-2.9 1.6-3.7 3-.8 1.4-1.2 3.1-.9 4.7.3 1.6 1.1 3.1 2.4 4.2 1.3 1.1 2.9 1.7 4.6 1.7h5.4l10.9.1 21.7.3 5.4.1h2.7c.9 0 1.8.1 2.7-.1 1.8-.3 3.4-1.2 4.6-2.6 1-1.2 1.7-3 1.7-4.8z" class="st1"/><path d="M159.7 79.3c0 1.8-.7 3.7-1.9 5.1-1.2 1.4-2.9 2.4-4.7 2.7-.9.2-1.8.1-2.7.1h-2.7l-5.4.1-21.7.3-10.9.1h-5.4c-2 0-3.9-.7-5.4-1.9-1.5-1.3-2.6-3.1-2.9-5-.4-1.9 0-4 1-5.8 1-1.7 2.6-3.1 4.5-3.8.9-.3 1.9-.5 2.9-.5h2.7c.4 0 .7.3.8.6l2.3 7.7-.9-.7 14.4-.1c4.8 0 9.6 0 14.4.1l-.9 1.2-2.1-7.8c-.1-.4.1-.8.5-.9h.2l14.1.4 1.8.1c.3 0 .6 0 .9.1.3 0 .6.1.9.2 1.2.3 2.3.8 3.2 1.6 1.9 1.3 3 3.7 3 6.1zm-.2 0c0-2.3-1.2-4.6-3-5.9-.9-.7-2-1.2-3.1-1.4-1.1-.2-2.3-.1-3.5-.1l-14.1.4.8-1c.8 2.6 1.6 5.1 2.4 7.7.2.5-.1 1-.6 1.2h-.2c-4.8.1-9.6.1-14.4.1l-14.4-.1c-.4 0-.8-.3-.9-.7l-2.2-7.8.8.6h-2.7c-.8 0-1.6.1-2.4.4-1.5.5-2.9 1.6-3.7 3-.8 1.4-1.2 3.1-.9 4.7.3 1.6 1.1 3.1 2.4 4.2 1.3 1.1 2.9 1.7 4.6 1.7h5.4l10.9.1 21.7.3 5.4.1h2.7c.9 0 1.8.1 2.7-.1 1.8-.3 3.4-1.2 4.6-2.6 1-1.2 1.7-3 1.7-4.8z" class="st1"/><path d="M138.1 79.3 109.2 79.3 107 71.5 102.2 55 87.7 4.7 116.5 4.7 128 44.4 131.1 55 135.8 71.5z" class="st4"/><path d="m138.1 79.3-28.9.3c-.1 0-.3-.1-.3-.2l-22-74.5c-.1-.4.1-.9.5-1h.2c4.8-.1 9.6-.1 14.4-.2l14.4-.1c.5 0 .9.3 1 .8l5.3 18.7c1.8 6.2 3.5 12.5 5.2 18.7 1.7 6.2 3.4 12.5 5.1 18.7l2.5 9.4 1.2 4.8 1.4 4.6zm-.1-.1-1.5-4.6-1.5-4.5-2.9-9.3-5.7-18.6c-1.8-6.2-3.7-12.4-5.5-18.6L115.5 5l1 .8-14.4-.1c-4.8-.1-9.6-.1-14.4-.2l.8-1 21.1 74.7-.3-.2 28.7.2z" class="st1"/><path d="M135.7 71.5c2.1-.1 4.3-.2 6.5-.3 2.2-.1 4.5-.2 6.8-.3.3 0 .6.3.6.6v.2l-2 7.8c-.1.4-.4.6-.8.6h-.1c-1.5.1-2.9.1-4.4.2-1.5 0-2.9 0-4.4-.1h-.1c-.4 0-.7-.3-.8-.7-.3-1.4-.6-2.9-.9-4.3l-.4-3.7zm.2.1c.6 1.4 1.1 2.7 1.7 3.9.5 1.2 1 2.4 1.4 3.5l-.9-.7c1.5-.1 2.9-.1 4.4-.1 1.5 0 2.9.1 4.4.2l-.8.6 2.5-7.7.6.8c-2.1-.1-4.2-.2-6.4-.3-2.4-.1-4.6-.2-6.9-.2zM169 4.1l-7.4 25.6c-2.5 8.5-5.1 16.9-7.3 25.4-.1.3-.3.4-.6.4l-22.7.2c-.4 0-.6-.2-.7-.6l-3.1-10.6V44l5.6-19.9c1.9-6.6 3.7-13.3 5.8-19.8.1-.4.5-.6.8-.6 9.9.1 19.9.2 29.6.4zm-1.4 1.1c-9.5.2-18.7.3-28.1.3l.8-.6c-1.7 6.7-3.7 13.3-5.6 19.9l-5.8 19.8v-.5l3 10.6-.7-.6 22.7.2-.6.4c2.6-8.3 4.9-16.6 7.2-24.9l7.1-24.6zM183.6 183.6l-110.7.2c-.3 0-.5-.2-.5-.5L72 98.9c0-.4.4-.8.8-.8L128 98l27.6-.1c9.2 0 18.4-.1 27.6 0 .5 0 .9.4.9.9l-.5 84.8zm-.8-.8-.6-83.9.9.9c-9.2.1-18.4.1-27.6 0H128l-55.2-.1.8-.8-.3 84.3-.5-.5 110 .1z" class="st1"/><path d="M72.8 194H183.2V205.4H72.8z" class="st4"/><path d="m183.5 205.7-55.3.2-55.4.3c-.4 0-.7-.3-.7-.7L72 194c0-.4.3-.8.8-.8 9.2-.1 18.4-.2 27.6-.2 9.2-.1 18.4 0 27.6 0 9.2 0 18.4.1 27.6.2 9.2.1 18.4.2 27.6.5.2 0 .4.2.4.4 0 3.8-.1 7.7-.1 11.6zm-.6-.5c-.1-3.7-.1-7.4-.1-11.1l.4.4c-9.2.2-18.4.3-27.6.5-9.2.1-18.4.2-27.6.2-9.2 0-18.4.1-27.6 0-9.2 0-18.4-.1-27.6-.2l.8-.8-.1 11.4-.7-.7 55 .3h55.1z" class="st1"/><path d="M72.8 229.8H183.2V241.20000000000002H72.8z" class="st4"/><path d="m183.6 241.6-55.4.1-27.7.1-27.7.2c-.4 0-.7-.3-.7-.7l-.1-11.5c0-.4.3-.8.8-.8 9.2-.1 18.4-.2 27.6-.2 9.2-.1 18.4 0 27.6 0 9.2 0 18.4.1 27.6.2 9.2.1 18.4.2 27.6.5.2 0 .4.2.4.4v11.7zm-.8-.8c-.1-3.7-.1-7.3 0-11l.4.4c-9.2.2-18.4.3-27.6.5-9.2.1-18.4.2-27.6.2-9.2 0-18.4.1-27.6 0-9.2 0-18.4-.1-27.6-.2l.8-.8-.1 11.4-.7-.7 27.5.2 27.5.1 55-.1zM128.3 223.6l-27.7.1-13.9.1-13.9.2c-.4 0-.7-.3-.7-.7l-.1-11.4c0-.4.3-.8.8-.8 9.2-.2 18.4-.2 27.6-.2 4.6 0 9.2 0 13.8.1 4.6.1 9.2.2 13.8.4.3 0 .5.3.5.5 0 3.9-.1 7.9-.2 11.7zm-.6-.6c-.1-3.7-.2-7.4-.2-11.1l.5.5c-4.6.2-9.2.3-13.8.4-4.6.1-9.2.1-13.8.1-9.2 0-18.4 0-27.6-.2l.8-.8-.1 11.4-.7-.7 13.7.1 13.7.1 27.5.2zM183.5 223.6l-19.4.1c-6.5 0-12.9.1-19.4.2-.4 0-.7-.3-.7-.6l-.1-11.4c0-.4.3-.8.8-.8 6.4-.1 12.8-.2 19.2-.2h9.6c3.2 0 6.4.1 9.6.3.3 0 .6.3.6.7.1 4-.1 7.9-.2 11.7zm-.6-.6c-.1-3.8-.3-7.4-.3-11.1l.7.7c-3.2.2-6.4.3-9.6.3-3.2.1-6.4 0-9.6 0-6.4 0-12.8-.1-19.2-.2l.8-.8-.1 11.4-.7-.7c6.3.1 12.7.2 19.1.2l18.9.2z" class="st1"/><path d="M154.1 175.4v7.8h-52.3v-7.8c0-9.8 5.4-18.4 13.4-22.8 1.1-.6 2.3-1.2 3.5-1.6 1.4-.5 2.9-1 4.4-1.2v6.5c0 2.3 1.9 4.2 4.2 4.2h1.1c2.3 0 4.2-1.9 4.2-4.2v-6.5c1.5.3 3 .7 4.4 1.2 3.5 1.3 6.6 3.4 9.3 6 4.9 4.7 7.8 11.2 7.8 18.4z" class="st4"/><path d="M154.2 175.4v7.8c0 .1 0 .1-.1.1l-26.1.3-26.1.2c-.3 0-.6-.3-.6-.6V173.5l.1-1.4c.2-1.9.6-3.7 1.2-5.5.6-1.8 1.4-3.5 2.4-5.1 2-3.2 4.5-6.1 7.7-8.3 3.1-2.2 6.7-3.7 10.4-4.5.5-.1 1 .2 1.1.8v7c.1.9.5 1.7 1.2 2.3.3.3.7.5 1.2.6.4.1.8.1 1.5.1.6 0 1 0 1.5-.1.4-.1.9-.3 1.2-.6.7-.6 1.2-1.4 1.3-2.4l.1-3.3c0-1.1.1-2.3.2-3.4 0-.3.3-.5.6-.5h.1c6.1 1.2 11.6 4.6 15.5 9.3 1.9 2.4 3.4 5.1 4.4 8 .8 2.8 1.3 5.9 1.2 8.9zm-.2 0c-.1-3-.6-6-1.6-8.8-1.1-2.8-2.6-5.4-4.5-7.7-3.9-4.6-9.3-7.7-15.2-8.7l.6-.5c.1 1.1.1 2.3.2 3.4v3.5c-.1 1.4-.8 2.7-1.8 3.5-.5.4-1.1.8-1.8.9-.6.2-1.4.2-1.9.2s-1.3 0-1.9-.2c-.7-.2-1.3-.5-1.8-.9-1.1-.9-1.8-2.2-1.9-3.6v-6.9l1.2 1c-3.5.6-6.8 2-9.8 4-2.9 2-5.4 4.6-7.3 7.6-1.9 3-3.1 6.5-3.5 10-.3 1.8-.2 3.6-.2 5.4v5.5l-.6-.6 26.1.2 26.1.3-.1.1c-.2-2.5-.3-5.1-.3-7.7z" class="st1"/><g><path d="m137.3 150.9.1 4.9c.1 1.7-.3 3.3-1.1 4.8s-2 2.7-3.5 3.6c-.7.4-1.5.7-2.4.9-.8.2-1.7.3-2.5.3s-1.7 0-2.5-.2-1.7-.5-2.4-.9c-1.5-.8-2.8-2-3.7-3.5-.9-1.5-1.3-3.3-1.3-5l-.1-4.9c0-.3.2-.6.5-.8 1.5-.6 3-1.1 4.6-1.4.5-.1 1 .2 1.1.7v.2l.1 6.8c.1.9.5 1.7 1.2 2.2.3.3.7.5 1.1.6.4.1.8.1 1.4.1.6 0 1 0 1.4-.1.4-.1.8-.3 1.2-.6.7-.5 1.2-1.4 1.3-2.3l.4-6.8v-.1c0-.2.2-.4.4-.4h.1c.8.2 1.5.4 2.2.7.4.1.7.3 1.1.4.6.4.9.5 1.3.8zm-.1.1c-.3 0-.7-.2-1.1-.2-.4-.1-.7-.2-1.1-.2-.7-.2-1.5-.3-2.3-.3l.5-.4.2 3.4.1 1.7v1.8c-.1 1.4-.7 2.7-1.8 3.6-.5.4-1.2.8-1.8 1-.7.2-1.4.2-2 .2-.5 0-1.3 0-2-.2s-1.3-.5-1.9-1c-1.1-.9-1.9-2.2-2-3.6v-3.5l.1-3.4 1.1.9c-1.5.2-2.9.6-4.3 1.1l.5-.8-.1 4.9c-.1 1.5.3 3 1 4.3.7 1.3 1.8 2.4 3.1 3.2.7.4 1.4.6 2.1.8.8.2 1.5.2 2.3.2.8 0 1.5 0 2.3-.1.8-.1 1.5-.4 2.2-.8 1.4-.7 2.5-1.8 3.3-3.2.8-1.3 1.2-2.9 1.2-4.5l.4-4.9z" class="st1"/></g><g><path d="M132.9 146.5c.1 2.7.2 5.5.3 8.5 0 .7.1 1.5 0 2.2-.1.8-.5 1.5-1 2.1-.5.6-1.2 1.1-1.9 1.4-.4.2-.8.3-1.2.3-.2 0-.4 0-.6.1h-1.6c-.4 0-.8-.1-1.2-.3-.8-.3-1.5-.8-2-1.4-.6-.6-1-1.4-1.2-2.2-.1-.4-.1-.9-.2-1.2v-1.1c-.1-2.8-.2-5.6 0-8.4v-.1c0-.5.5-.9 1-.9.1 0 .2 0 .3.1 1.4.5 2.9.9 4.5 1 .8.1 1.6.1 2.4 0 .4 0 .8 0 1.2-.1l.6-.1h.3c0 .1.1.1.3.1zm-.2.2-.2.2-.3.1c-.2.1-.4.2-.6.2-.4.1-.8.3-1.2.4-.8.2-1.6.4-2.5.4-1.7.1-3.4 0-5.1-.5l1.3-.9c.1 2.8.1 5.6 0 8.4v2c.1.5.3 1.1.7 1.5.4.4.8.8 1.4 1 .3.1.6.2.8.2h1.9c.3 0 .6-.1.9-.2.6-.2 1.1-.5 1.5-1 .4-.4.7-1 .9-1.6.2-.6.1-1.3.2-2 .1-2.6.3-5.4.3-8.2z" class="st1"/></g><g><path d="M146.6 121.7v8.6c0 1.4 0 2.9-.2 4.3s-.5 2.8-1 4.2c-.9 2.7-2.5 5.3-4.6 7.3-1.1 1-2.3 1.8-3.7 2.4-1.4.6-2.8.9-4.3 1-.2 0-.5-.2-.5-.4v-2.5l.6.5c-3.2 1.1-6.7 1.1-9.9.1l.8-.5v3.1c0 .3-.2.5-.5.6-2.7.5-5.3 1.5-7.7 2.9-.2.1-.3.1-.5.1-1.6-.4-3.1-1.2-4.3-2.4-1.2-1.1-2.1-2.6-2.6-4.2s-.6-3.3-.3-4.9c.3-1.6 1.1-3.2 2.1-4.5l-.1.8c-.6-1.5-1.1-3.1-1.3-4.7-.1-.8-.2-1.6-.2-2.4v-9.3c.1-.8 0-1.6.2-2.5.4-3.3 1.7-6.4 3.6-9 .9-1.3 2.1-2.5 3.4-3.6 1.3-1 2.6-1.9 4.2-2.6 3-1.4 6.3-1.9 9.5-1.6 3.2.3 6.4 1.4 9 3.2 5.3 3.5 8.4 9.8 8.3 16zm-.2 0c0-3.1-.8-6.2-2.4-8.8-1.5-2.7-3.8-4.9-6.4-6.4-2.6-1.6-5.6-2.4-8.5-2.5-3-.1-6 .5-8.6 1.8-5.4 2.5-9.2 7.8-9.9 13.6-.1.7-.1 1.5-.2 2.2v9.3c0 .8 0 1.5.1 2.2.2 1.5.5 2.9 1 4.3.1.3 0 .6-.1.8-.9 1.1-1.6 2.3-1.9 3.7-.3 1.4-.2 2.8.2 4.2.4 1.4 1.2 2.6 2.2 3.6 1 1 2.3 1.7 3.6 2.1l-.5.1c2.5-1.4 5.3-2.4 8.2-2.9l-.5.6v-3.1c0-.3.3-.6.6-.6h.2c3 1 6.3 1.1 9.2.1.3-.1.5.1.6.3v2.7l-.5-.5c1.4 0 2.8-.2 4.1-.7 1.3-.5 2.5-1.2 3.6-2.1 2.1-1.9 3.7-4.3 4.7-7 .5-1.3.8-2.7 1.1-4.1.2-1.4.2-2.8.2-4.3l-.1-8.6z" class="st1"/></g><g><path d="M139.4 120.3c-.9 0-1.8-.2-2.6-.7h.1c-1.5 1.5-3.7 2.4-5.8 2.5-2.2.1-4.4-.6-6.1-2l.4-.1c-.5 1.2-1.2 2.3-2.3 3.1-1 .8-2.3 1.3-3.6 1.5-1.3.2-2.7 0-3.9-.5-1.2-.5-2.3-1.4-3.1-2.5l1-.3c-.1 1.4 0 2.9 0 4.4l.1 4.5v2.2l.1 1.1.1 1.1c.2 1.4.7 2.8 1.3 4 2.5 5.1 8.3 8.3 13.8 7.8 2.8-.2 5.4-1.3 7.6-3 2.2-1.7 3.9-4.1 4.8-6.7.5-1.3.8-2.7.8-4.1l.2-4.5.2-4.5c.1-1.5.1-3-.2-4.4l.2.1c-.7.6-1.9 1-3.1 1zm0-.2c1.1 0 2.2-.4 3.1-1.1.1-.1.2 0 .2 0v.1c.4 1.4.5 3 .5 4.5l.2 4.5.2 4.5c.1 1.6-.1 3.1-.6 4.7-.8 3-2.7 5.8-5.2 7.8s-5.6 3.2-8.8 3.4c-3.2.2-6.4-.6-9.1-2.2-2.7-1.6-4.9-4-6.2-6.9-.7-1.4-1.1-2.9-1.3-4.5 0-.4-.1-.8-.1-1.2V130.3l.1-4.5c0-1.5 0-2.9.1-4.5 0-.3.3-.5.6-.5.2 0 .3.1.4.2 1.3 1.9 3.6 3 5.9 2.8 2.3-.2 4.5-1.8 5.4-3.9.1-.1.2-.2.3-.1h.1c1.5 1.4 3.6 2.2 5.7 2.2 1.1 0 2.1-.2 3.1-.6 1-.4 1.9-1 2.6-1.8h.1c.9.3 1.8.5 2.7.5z" class="st1"/></g></svg>