<?xml version="1.0" encoding="utf-8"?>
<!-- Generator: Adobe Illustrator 22.1.0, SVG Export Plug-In . SVG Version: 6.00 Build 0)  -->
<svg version="1.1" id="Layer_1" xmlns="http://www.w3.org/2000/svg" xmlns:xlink="http://www.w3.org/1999/xlink" x="0px" y="0px"
	 viewBox="0 0 256 256" style="enable-background:new 0 0 256 256;" xml:space="preserve">
<style type="text/css">
	.st0{fill:none;}
	.st1{fill:#253759;}
	.st2{clip-path:url(#SVGID_2_);fill:#253759;}
	.st3{clip-path:url(#SVGID_4_);fill:#253759;}
	.st4{fill:url(#New_Pattern_Swatch_1);}
	.st5{fill:none;stroke:#253759;stroke-width:2;stroke-linecap:round;stroke-linejoin:round;stroke-miterlimit:10;}
</style>
<pattern  x="-276" width="42.9" height="43" patternUnits="userSpaceOnUse" id="New_Pattern_Swatch_1" viewBox="43 -43 42.9 43" style="overflow:visible;">
	<g>
		<rect x="43" y="-43" class="st0" width="42.9" height="43"/>
		<g>
			<g>
				<circle class="st1" cx="85.9" cy="-41.2" r="0.6"/>
				<circle class="st1" cx="85.9" cy="-37.6" r="0.6"/>
				<circle class="st1" cx="85.9" cy="-34" r="0.6"/>
				<circle class="st1" cx="85.9" cy="-30.4" r="0.6"/>
				<circle class="st1" cx="85.9" cy="-26.9" r="0.6"/>
				<circle class="st1" cx="85.9" cy="-23.3" r="0.6"/>
				<circle class="st1" cx="85.9" cy="-19.7" r="0.6"/>
				<circle class="st1" cx="85.9" cy="-16.1" r="0.6"/>
				<circle class="st1" cx="85.9" cy="-12.6" r="0.6"/>
				<circle class="st1" cx="85.9" cy="-9" r="0.6"/>
				<circle class="st1" cx="85.9" cy="-5.4" r="0.6"/>
				<circle class="st1" cx="85.9" cy="-1.8" r="0.6"/>
				<circle class="st1" cx="85.8" cy="-41.2" r="0.6"/>
				<circle class="st1" cx="85.8" cy="-37.6" r="0.6"/>
				<circle class="st1" cx="85.8" cy="-34" r="0.6"/>
				<circle class="st1" cx="85.8" cy="-30.4" r="0.6"/>
				<circle class="st1" cx="85.8" cy="-26.9" r="0.6"/>
				<circle class="st1" cx="85.8" cy="-23.3" r="0.6"/>
				<circle class="st1" cx="85.8" cy="-19.7" r="0.6"/>
				<circle class="st1" cx="85.8" cy="-16.1" r="0.6"/>
				<circle class="st1" cx="85.8" cy="-12.6" r="0.6"/>
				<circle class="st1" cx="85.8" cy="-9" r="0.6"/>
				<circle class="st1" cx="85.8" cy="-5.4" r="0.6"/>
				<circle class="st1" cx="85.8" cy="-1.8" r="0.6"/>
			</g>
			<g>
				<defs>
					<rect id="SVGID_1_" x="85.8" y="-43" width="43" height="43"/>
				</defs>
				<clipPath id="SVGID_2_">
					<use xlink:href="#SVGID_1_"  style="overflow:visible;"/>
				</clipPath>
				<circle class="st2" cx="85.8" cy="-41.2" r="0.6"/>
				<circle class="st2" cx="85.8" cy="-37.6" r="0.6"/>
				<circle class="st2" cx="85.8" cy="-34" r="0.6"/>
				<circle class="st2" cx="85.8" cy="-30.4" r="0.6"/>
				<circle class="st2" cx="85.8" cy="-26.9" r="0.6"/>
				<circle class="st2" cx="85.8" cy="-23.3" r="0.6"/>
				<circle class="st2" cx="85.8" cy="-19.7" r="0.6"/>
				<circle class="st2" cx="85.8" cy="-16.1" r="0.6"/>
				<circle class="st2" cx="85.8" cy="-12.6" r="0.6"/>
				<circle class="st2" cx="85.8" cy="-9" r="0.6"/>
				<circle class="st2" cx="85.8" cy="-5.4" r="0.6"/>
				<circle class="st2" cx="85.8" cy="-1.8" r="0.6"/>
				<circle class="st2" cx="85.7" cy="-41.2" r="0.6"/>
				<circle class="st2" cx="85.7" cy="-37.6" r="0.6"/>
				<circle class="st2" cx="85.7" cy="-34" r="0.6"/>
				<circle class="st2" cx="85.7" cy="-30.4" r="0.6"/>
				<circle class="st2" cx="85.7" cy="-26.9" r="0.6"/>
				<circle class="st2" cx="85.7" cy="-23.3" r="0.6"/>
				<circle class="st2" cx="85.7" cy="-19.7" r="0.6"/>
				<circle class="st2" cx="85.7" cy="-16.1" r="0.6"/>
				<circle class="st2" cx="85.7" cy="-12.6" r="0.6"/>
				<circle class="st2" cx="85.7" cy="-9" r="0.6"/>
				<circle class="st2" cx="85.7" cy="-5.4" r="0.6"/>
				<circle class="st2" cx="85.7" cy="-1.8" r="0.6"/>
			</g>
		</g>
		<g>
			<g>
				<circle class="st1" cx="85.9" cy="-41.2" r="0.6"/>
				<circle class="st1" cx="85.9" cy="-37.6" r="0.6"/>
				<circle class="st1" cx="85.9" cy="-34" r="0.6"/>
				<circle class="st1" cx="85.9" cy="-30.4" r="0.6"/>
				<circle class="st1" cx="85.9" cy="-26.9" r="0.6"/>
				<circle class="st1" cx="85.9" cy="-23.3" r="0.6"/>
				<circle class="st1" cx="85.9" cy="-19.7" r="0.6"/>
				<circle class="st1" cx="85.9" cy="-16.1" r="0.6"/>
				<circle class="st1" cx="85.9" cy="-12.6" r="0.6"/>
				<circle class="st1" cx="85.9" cy="-9" r="0.6"/>
				<circle class="st1" cx="85.9" cy="-5.4" r="0.6"/>
				<circle class="st1" cx="85.9" cy="-1.8" r="0.6"/>
				<circle class="st1" cx="43" cy="-41.2" r="0.6"/>
				<circle class="st1" cx="46.5" cy="-41.2" r="0.6"/>
				<circle class="st1" cx="50.1" cy="-41.2" r="0.6"/>
				<circle class="st1" cx="53.7" cy="-41.2" r="0.6"/>
				<circle class="st1" cx="43" cy="-37.6" r="0.6"/>
				<circle class="st1" cx="46.5" cy="-37.6" r="0.6"/>
				<circle class="st1" cx="50.1" cy="-37.6" r="0.6"/>
				<circle class="st1" cx="53.7" cy="-37.6" r="0.6"/>
				<circle class="st1" cx="43" cy="-34" r="0.6"/>
				<circle class="st1" cx="46.5" cy="-34" r="0.6"/>
				<circle class="st1" cx="50.1" cy="-34" r="0.6"/>
				<circle class="st1" cx="53.7" cy="-34" r="0.6"/>
				<circle class="st1" cx="43" cy="-30.4" r="0.6"/>
				<circle class="st1" cx="46.5" cy="-30.4" r="0.6"/>
				<circle class="st1" cx="50.1" cy="-30.4" r="0.6"/>
				<circle class="st1" cx="53.7" cy="-30.4" r="0.6"/>
				<circle class="st1" cx="43" cy="-26.9" r="0.6"/>
				<circle class="st1" cx="46.5" cy="-26.9" r="0.6"/>
				<circle class="st1" cx="50.1" cy="-26.9" r="0.6"/>
				<circle class="st1" cx="53.7" cy="-26.9" r="0.6"/>
				<circle class="st1" cx="43" cy="-23.3" r="0.6"/>
				<circle class="st1" cx="46.5" cy="-23.3" r="0.6"/>
				<circle class="st1" cx="50.1" cy="-23.3" r="0.6"/>
				<circle class="st1" cx="53.7" cy="-23.3" r="0.6"/>
				<circle class="st1" cx="57.3" cy="-41.2" r="0.6"/>
				<circle class="st1" cx="60.8" cy="-41.2" r="0.6"/>
				<circle class="st1" cx="64.4" cy="-41.2" r="0.6"/>
				<circle class="st1" cx="68" cy="-41.2" r="0.6"/>
				<circle class="st1" cx="71.5" cy="-41.2" r="0.6"/>
				<circle class="st1" cx="57.3" cy="-37.6" r="0.6"/>
				<circle class="st1" cx="60.8" cy="-37.6" r="0.6"/>
				<circle class="st1" cx="64.4" cy="-37.6" r="0.6"/>
				<circle class="st1" cx="68" cy="-37.6" r="0.6"/>
				<circle class="st1" cx="71.5" cy="-37.6" r="0.6"/>
				<circle class="st1" cx="57.3" cy="-34" r="0.6"/>
				<circle class="st1" cx="60.8" cy="-34" r="0.6"/>
				<circle class="st1" cx="64.4" cy="-34" r="0.6"/>
				<circle class="st1" cx="68" cy="-34" r="0.6"/>
				<circle class="st1" cx="71.5" cy="-34" r="0.6"/>
				<circle class="st1" cx="57.3" cy="-30.4" r="0.6"/>
				<circle class="st1" cx="60.8" cy="-30.4" r="0.6"/>
				<circle class="st1" cx="64.4" cy="-30.4" r="0.6"/>
				<circle class="st1" cx="68" cy="-30.4" r="0.6"/>
				<circle class="st1" cx="71.5" cy="-30.4" r="0.6"/>
				<circle class="st1" cx="57.3" cy="-26.9" r="0.6"/>
				<circle class="st1" cx="60.8" cy="-26.9" r="0.6"/>
				<circle class="st1" cx="64.4" cy="-26.9" r="0.6"/>
				<circle class="st1" cx="68" cy="-26.9" r="0.6"/>
				<circle class="st1" cx="71.5" cy="-26.9" r="0.6"/>
				<circle class="st1" cx="57.3" cy="-23.3" r="0.6"/>
				<circle class="st1" cx="60.8" cy="-23.3" r="0.6"/>
				<circle class="st1" cx="64.4" cy="-23.3" r="0.6"/>
				<circle class="st1" cx="68" cy="-23.3" r="0.6"/>
				<circle class="st1" cx="71.5" cy="-23.3" r="0.6"/>
				<circle class="st1" cx="75.1" cy="-41.2" r="0.6"/>
				<circle class="st1" cx="78.7" cy="-41.2" r="0.6"/>
				<circle class="st1" cx="82.3" cy="-41.2" r="0.6"/>
				<circle class="st1" cx="85.8" cy="-41.2" r="0.6"/>
				<circle class="st1" cx="75.1" cy="-37.6" r="0.6"/>
				<circle class="st1" cx="78.7" cy="-37.6" r="0.6"/>
				<circle class="st1" cx="82.3" cy="-37.6" r="0.6"/>
				<circle class="st1" cx="85.8" cy="-37.6" r="0.6"/>
				<circle class="st1" cx="75.1" cy="-34" r="0.6"/>
				<circle class="st1" cx="78.7" cy="-34" r="0.6"/>
				<circle class="st1" cx="82.3" cy="-34" r="0.6"/>
				<circle class="st1" cx="85.8" cy="-34" r="0.6"/>
				<circle class="st1" cx="75.1" cy="-30.4" r="0.6"/>
				<circle class="st1" cx="78.7" cy="-30.4" r="0.6"/>
				<circle class="st1" cx="82.3" cy="-30.4" r="0.6"/>
				<circle class="st1" cx="85.8" cy="-30.4" r="0.6"/>
				<circle class="st1" cx="75.1" cy="-26.9" r="0.6"/>
				<circle class="st1" cx="78.7" cy="-26.9" r="0.6"/>
				<circle class="st1" cx="82.3" cy="-26.9" r="0.6"/>
				<circle class="st1" cx="85.8" cy="-26.9" r="0.6"/>
				<circle class="st1" cx="75.1" cy="-23.3" r="0.6"/>
				<circle class="st1" cx="78.7" cy="-23.3" r="0.6"/>
				<circle class="st1" cx="82.3" cy="-23.3" r="0.6"/>
				<circle class="st1" cx="85.8" cy="-23.3" r="0.6"/>
				<circle class="st1" cx="43" cy="-19.7" r="0.6"/>
				<circle class="st1" cx="46.5" cy="-19.7" r="0.6"/>
				<circle class="st1" cx="50.1" cy="-19.7" r="0.6"/>
				<circle class="st1" cx="53.7" cy="-19.7" r="0.6"/>
				<circle class="st1" cx="43" cy="-16.1" r="0.6"/>
				<circle class="st1" cx="46.5" cy="-16.1" r="0.6"/>
				<circle class="st1" cx="50.1" cy="-16.1" r="0.6"/>
				<circle class="st1" cx="53.7" cy="-16.1" r="0.6"/>
				<circle class="st1" cx="43" cy="-12.6" r="0.6"/>
				<circle class="st1" cx="46.5" cy="-12.6" r="0.6"/>
				<circle class="st1" cx="50.1" cy="-12.6" r="0.6"/>
				<circle class="st1" cx="53.7" cy="-12.6" r="0.6"/>
				<circle class="st1" cx="43" cy="-9" r="0.6"/>
				<circle class="st1" cx="46.5" cy="-9" r="0.6"/>
				<circle class="st1" cx="50.1" cy="-9" r="0.6"/>
				<circle class="st1" cx="53.7" cy="-9" r="0.6"/>
				<circle class="st1" cx="43" cy="-5.4" r="0.6"/>
				<circle class="st1" cx="46.5" cy="-5.4" r="0.6"/>
				<circle class="st1" cx="50.1" cy="-5.4" r="0.6"/>
				<circle class="st1" cx="53.7" cy="-5.4" r="0.6"/>
				<circle class="st1" cx="43" cy="-1.8" r="0.6"/>
				<circle class="st1" cx="46.5" cy="-1.8" r="0.6"/>
				<circle class="st1" cx="50.1" cy="-1.8" r="0.6"/>
				<circle class="st1" cx="53.7" cy="-1.8" r="0.6"/>
				<circle class="st1" cx="57.3" cy="-19.7" r="0.6"/>
				<circle class="st1" cx="60.8" cy="-19.7" r="0.6"/>
				<circle class="st1" cx="64.4" cy="-19.7" r="0.6"/>
				<circle class="st1" cx="68" cy="-19.7" r="0.6"/>
				<circle class="st1" cx="71.5" cy="-19.7" r="0.6"/>
				<circle class="st1" cx="57.3" cy="-16.1" r="0.6"/>
				<circle class="st1" cx="60.8" cy="-16.1" r="0.6"/>
				<circle class="st1" cx="64.4" cy="-16.1" r="0.6"/>
				<circle class="st1" cx="68" cy="-16.1" r="0.6"/>
				<circle class="st1" cx="71.5" cy="-16.1" r="0.6"/>
				<circle class="st1" cx="57.3" cy="-12.6" r="0.6"/>
				<circle class="st1" cx="60.8" cy="-12.6" r="0.6"/>
				<circle class="st1" cx="64.4" cy="-12.6" r="0.6"/>
				<circle class="st1" cx="68" cy="-12.6" r="0.6"/>
				<circle class="st1" cx="71.5" cy="-12.6" r="0.6"/>
				<circle class="st1" cx="57.3" cy="-9" r="0.6"/>
				<circle class="st1" cx="60.8" cy="-9" r="0.6"/>
				<circle class="st1" cx="64.4" cy="-9" r="0.6"/>
				<circle class="st1" cx="68" cy="-9" r="0.6"/>
				<circle class="st1" cx="71.5" cy="-9" r="0.6"/>
				<circle class="st1" cx="57.3" cy="-5.4" r="0.6"/>
				<circle class="st1" cx="60.8" cy="-5.4" r="0.6"/>
				<circle class="st1" cx="64.4" cy="-5.4" r="0.6"/>
				<circle class="st1" cx="68" cy="-5.4" r="0.6"/>
				<circle class="st1" cx="71.5" cy="-5.4" r="0.6"/>
				<circle class="st1" cx="57.3" cy="-1.8" r="0.6"/>
				<circle class="st1" cx="60.8" cy="-1.8" r="0.6"/>
				<circle class="st1" cx="64.4" cy="-1.8" r="0.6"/>
				<circle class="st1" cx="68" cy="-1.8" r="0.6"/>
				<circle class="st1" cx="71.5" cy="-1.8" r="0.6"/>
				<circle class="st1" cx="75.1" cy="-19.7" r="0.6"/>
				<circle class="st1" cx="78.7" cy="-19.7" r="0.6"/>
				<circle class="st1" cx="82.3" cy="-19.7" r="0.6"/>
				<circle class="st1" cx="85.8" cy="-19.7" r="0.6"/>
				<circle class="st1" cx="75.1" cy="-16.1" r="0.6"/>
				<circle class="st1" cx="78.7" cy="-16.1" r="0.6"/>
				<circle class="st1" cx="82.3" cy="-16.1" r="0.6"/>
				<circle class="st1" cx="85.8" cy="-16.1" r="0.6"/>
				<circle class="st1" cx="75.1" cy="-12.6" r="0.6"/>
				<circle class="st1" cx="78.7" cy="-12.6" r="0.6"/>
				<circle class="st1" cx="82.3" cy="-12.6" r="0.6"/>
				<circle class="st1" cx="85.8" cy="-12.6" r="0.6"/>
				<circle class="st1" cx="75.1" cy="-9" r="0.6"/>
				<circle class="st1" cx="78.7" cy="-9" r="0.6"/>
				<circle class="st1" cx="82.3" cy="-9" r="0.6"/>
				<circle class="st1" cx="85.8" cy="-9" r="0.6"/>
				<circle class="st1" cx="75.1" cy="-5.4" r="0.6"/>
				<circle class="st1" cx="78.7" cy="-5.4" r="0.6"/>
				<circle class="st1" cx="82.3" cy="-5.4" r="0.6"/>
				<circle class="st1" cx="85.8" cy="-5.4" r="0.6"/>
				<circle class="st1" cx="75.1" cy="-1.8" r="0.6"/>
				<circle class="st1" cx="78.7" cy="-1.8" r="0.6"/>
				<circle class="st1" cx="82.3" cy="-1.8" r="0.6"/>
				<circle class="st1" cx="85.8" cy="-1.8" r="0.6"/>
				<circle class="st1" cx="42.9" cy="-41.2" r="0.6"/>
				<circle class="st1" cx="42.9" cy="-37.6" r="0.6"/>
				<circle class="st1" cx="42.9" cy="-34" r="0.6"/>
				<circle class="st1" cx="42.9" cy="-30.4" r="0.6"/>
				<circle class="st1" cx="42.9" cy="-26.9" r="0.6"/>
				<circle class="st1" cx="42.9" cy="-23.3" r="0.6"/>
				<circle class="st1" cx="42.9" cy="-19.7" r="0.6"/>
				<circle class="st1" cx="42.9" cy="-16.1" r="0.6"/>
				<circle class="st1" cx="42.9" cy="-12.6" r="0.6"/>
				<circle class="st1" cx="42.9" cy="-9" r="0.6"/>
				<circle class="st1" cx="42.9" cy="-5.4" r="0.6"/>
				<circle class="st1" cx="42.9" cy="-1.8" r="0.6"/>
			</g>
			<g>
				<defs>
					<rect id="SVGID_3_" x="42.9" y="-43" width="43" height="43"/>
				</defs>
				<clipPath id="SVGID_4_">
					<use xlink:href="#SVGID_3_"  style="overflow:visible;"/>
				</clipPath>
				<circle class="st3" cx="42.9" cy="-41.2" r="0.6"/>
				<circle class="st3" cx="42.9" cy="-37.6" r="0.6"/>
				<circle class="st3" cx="42.9" cy="-34" r="0.6"/>
				<circle class="st3" cx="42.9" cy="-30.4" r="0.6"/>
				<circle class="st3" cx="42.9" cy="-26.9" r="0.6"/>
				<circle class="st3" cx="42.9" cy="-23.3" r="0.6"/>
				<circle class="st3" cx="42.9" cy="-19.7" r="0.6"/>
				<circle class="st3" cx="42.9" cy="-16.1" r="0.6"/>
				<circle class="st3" cx="42.9" cy="-12.6" r="0.6"/>
				<circle class="st3" cx="42.9" cy="-9" r="0.6"/>
				<circle class="st3" cx="42.9" cy="-5.4" r="0.6"/>
				<circle class="st3" cx="42.9" cy="-1.8" r="0.6"/>
				<circle class="st3" cx="42.8" cy="-41.2" r="0.6"/>
				<circle class="st3" cx="42.8" cy="-37.6" r="0.6"/>
				<circle class="st3" cx="42.8" cy="-34" r="0.6"/>
				<circle class="st3" cx="42.8" cy="-30.4" r="0.6"/>
				<circle class="st3" cx="42.8" cy="-26.9" r="0.6"/>
				<circle class="st3" cx="42.8" cy="-23.3" r="0.6"/>
				<circle class="st3" cx="42.8" cy="-19.7" r="0.6"/>
				<circle class="st3" cx="42.8" cy="-16.1" r="0.6"/>
				<circle class="st3" cx="42.8" cy="-12.6" r="0.6"/>
				<circle class="st3" cx="42.8" cy="-9" r="0.6"/>
				<circle class="st3" cx="42.8" cy="-5.4" r="0.6"/>
				<circle class="st3" cx="42.8" cy="-1.8" r="0.6"/>
			</g>
		</g>
		<g>
			<g>
				<circle class="st1" cx="43" cy="-41.2" r="0.6"/>
				<circle class="st1" cx="43" cy="-37.6" r="0.6"/>
				<circle class="st1" cx="43" cy="-34" r="0.6"/>
				<circle class="st1" cx="43" cy="-30.4" r="0.6"/>
				<circle class="st1" cx="43" cy="-26.9" r="0.6"/>
				<circle class="st1" cx="43" cy="-23.3" r="0.6"/>
				<circle class="st1" cx="43" cy="-19.7" r="0.6"/>
				<circle class="st1" cx="43" cy="-16.1" r="0.6"/>
				<circle class="st1" cx="43" cy="-12.6" r="0.6"/>
				<circle class="st1" cx="43" cy="-9" r="0.6"/>
				<circle class="st1" cx="43" cy="-5.4" r="0.6"/>
				<circle class="st1" cx="43" cy="-1.8" r="0.6"/>
				<circle class="st1" cx="42.9" cy="-41.2" r="0.6"/>
				<circle class="st1" cx="42.9" cy="-37.6" r="0.6"/>
				<circle class="st1" cx="42.9" cy="-34" r="0.6"/>
				<circle class="st1" cx="42.9" cy="-30.4" r="0.6"/>
				<circle class="st1" cx="42.9" cy="-26.9" r="0.6"/>
				<circle class="st1" cx="42.9" cy="-23.3" r="0.6"/>
				<circle class="st1" cx="42.9" cy="-19.7" r="0.6"/>
				<circle class="st1" cx="42.9" cy="-16.1" r="0.6"/>
				<circle class="st1" cx="42.9" cy="-12.6" r="0.6"/>
				<circle class="st1" cx="42.9" cy="-9" r="0.6"/>
				<circle class="st1" cx="42.9" cy="-5.4" r="0.6"/>
				<circle class="st1" cx="42.9" cy="-1.8" r="0.6"/>
			</g>
			<g>
				<defs>
					<rect id="SVGID_5_" y="-43" width="43" height="43"/>
				</defs>
				<clipPath id="SVGID_6_">
					<use xlink:href="#SVGID_5_"  style="overflow:visible;"/>
				</clipPath>
			</g>
		</g>
	</g>
</pattern>
<g>
	<g>
		<path class="st1" d="M251.3,57.6l-123-0.5C107.8,57,87.4,57,67,57c-20.4,0-40.8,0.1-61.2,0.3c-0.4,0-0.7-0.3-0.7-0.7l0,0v0
			L5.1,13.5l0-2.7l0-1.3c0-0.5,0-1,0.2-1.5c0.5-2,2.1-3.7,4.1-4.3c0.5-0.1,1-0.2,1.5-0.2l1.3,0l2.7,0l5.4,0l21.6,0l86.2-0.1L214.3,3
			L235.8,3l5.4,0l2.7,0l1.3,0c0.5,0,1.1,0.1,1.7,0.2c2.2,0.6,4,2.4,4.5,4.6c0.1,0.5,0.2,1.2,0.2,1.6l0,1.4l0,2.7
			C251.7,28.2,251.5,43,251.3,57.6z M249.3,55.5c-0.2-14.1-0.3-28.1-0.3-42.1l0-2.6l0-1.3c0-0.4,0-0.7-0.1-1
			c-0.3-1.3-1.3-2.4-2.6-2.7c-0.3-0.1-0.6-0.1-1-0.1l-1.3,0l-2.7,0l-5.4,0l-21.6-0.1l-86.2-0.2L41.9,5.1l-21.6,0l-5.4,0l-2.7,0
			l-1.3,0c-0.4,0-0.8,0-1.1,0.1c-1.5,0.4-2.7,1.6-3,3.1C6.7,8.6,6.6,9,6.6,9.4l0,1.3l0,2.7L6.5,56.6l-0.7-0.7
			c20.3,0.2,40.7,0.2,61,0.3c20.3,0,40.7,0,61-0.1L249.3,55.5z"/>
	</g>
	<g>
		<rect x="19" y="70.2" class="st4" width="98.3" height="20.2"/>
		<path class="st1" d="M117.3,90.5L19,91.1c-0.4,0-0.7-0.3-0.7-0.7v0l0,0l-0.1-20.2c0-0.4,0.3-0.8,0.8-0.8l0,0
			c8.2-0.1,16.4-0.2,24.6-0.2c8.2-0.1,16.4,0,24.6,0c8.2,0,16.4,0.1,24.6,0.2c8.2,0.1,16.4,0.2,24.6,0.3l0,0c0.3,0,0.5,0.2,0.5,0.5
			c0,3.4-0.1,6.9-0.2,10.2L117.3,90.5z M117.2,90.3l-0.3-10.2c-0.1-3.4-0.2-6.7-0.2-10l0.5,0.5C109,70.9,100.9,71,92.7,71
			c-8.2,0.1-16.4,0.2-24.6,0.2c-8.2,0-16.4,0.1-24.6,0c-8.2,0-16.4-0.1-24.6-0.2l0.8-0.8l-0.1,20.2L19,89.7L117.2,90.3z"/>
	</g>
	<rect x="19" y="104" class="st5" width="218.5" height="131.5"/>
	<g>
		<rect x="161.9" y="70.6" class="st4" width="75.6" height="20.2"/>
		<path class="st1" d="M237.5,90.9l-75.7,0.6c-0.4,0-0.7-0.3-0.7-0.7l0,0l0,0l-0.1-20.2c0-0.4,0.3-0.8,0.8-0.8l0,0
			c6.3-0.1,12.6-0.2,18.9-0.2c6.3-0.1,12.6,0,18.9,0l9.5,0l9.5,0.1c6.3,0.1,12.6,0.1,18.9,0.3l0,0c0.3,0,0.6,0.3,0.6,0.6
			c-0.1,3.4-0.1,6.9-0.2,10.3L237.5,90.9z M237.4,90.8l-0.3-10.2c-0.1-3.4-0.2-6.7-0.2-10l0.6,0.6c-6.3,0.1-12.6,0.2-18.9,0.3
			l-9.5,0.1l-9.5,0c-6.3,0-12.6,0-18.9,0c-6.3,0-12.6-0.1-18.9-0.2l0.8-0.8l-0.1,20.2l-0.7-0.7L237.4,90.8z"/>
	</g>
	<g>
		<path class="st1" d="M245.4,251.9L137.3,252l-108.1,0.3l-13.5,0l-3.4,0c-0.6,0-1.1,0-1.7,0c-0.6,0-1.2-0.2-1.8-0.4
			c-1.1-0.5-2.1-1.4-2.7-2.5c-0.3-0.5-0.5-1.2-0.6-1.8c-0.1-0.6-0.1-1.2-0.1-1.8l0-27l-0.1-54.1L5.2,56.6c0-0.4,0.4-0.8,0.8-0.8
			l122.2-0.2l61.1,0c20.4,0,40.7,0,61.1,0.1l0,0c0.5,0,0.9,0.4,0.9,0.9l-0.4,99l-0.2,49.5l-0.1,24.8l0,12.4l0,3.1
			c0,1,0.1,2.1-0.3,3.1C249.6,250.5,247.6,251.9,245.4,251.9z M245.4,251.7c2,0,4-1.4,4.6-3.3c0.4-1,0.2-2,0.3-3l0-3.1l0-12.4
			l-0.1-24.8l-0.2-49.5l-0.4-99l0.9,0.9c-20.4,0.1-40.7,0.1-61.1,0.1l-61.1,0L6,57.3l0.8-0.8L6.6,164.7l-0.1,54.1l0,27
			c0,0.6,0,1.1,0,1.6c0.1,0.5,0.2,1,0.5,1.4c0.5,0.9,1.2,1.6,2.2,2c0.5,0.2,1,0.3,1.5,0.4c0.5,0,1.1,0,1.6,0l3.4,0l13.5,0l108.1,0.3
			L245.4,251.7z"/>
	</g>
	<g>
		<circle class="st4" cx="128" cy="30.4" r="10.8"/>
		<path class="st1" d="M138.9,30.4c0,2.8-1.1,5.7-3.1,7.8c-1.9,2.1-4.8,3.4-7.8,3.5c-3,0.1-5.9-1.1-8.1-3.2c-2.2-2.1-3.5-5-3.5-8.1
			c-0.1-3,1.1-6.1,3.3-8.3c1.1-1.1,2.4-2,3.8-2.6c1.4-0.6,3-0.9,4.5-0.9c1.5,0,3.1,0.4,4.4,1.1c1.4,0.7,2.6,1.6,3.6,2.7
			C138,24.6,138.9,27.6,138.9,30.4z M138.7,30.4c0-1.4-0.3-2.8-0.9-4c-0.6-1.2-1.5-2.3-2.5-3.2c-2.1-1.8-4.7-2.6-7.2-2.5
			c-2.6,0-5.1,1.1-6.9,2.9c-1.9,1.8-3,4.3-3.1,6.9c-0.1,2.6,1,5.2,2.8,7.2c1.8,1.9,4.5,3.1,7.2,3.1c2.7,0.1,5.4-0.9,7.5-2.8
			c1-1,1.8-2.1,2.4-3.4C138.4,33.2,138.7,31.8,138.7,30.4z"/>
	</g>
	<g>
		<circle class="st4" cx="29.7" cy="30.4" r="10.8"/>
		<path class="st1" d="M40.6,30.4c0,2.8-1.1,5.7-3.1,7.8c-1.9,2.1-4.8,3.4-7.8,3.5c-3,0.1-5.9-1.1-8.1-3.2c-2.2-2.1-3.5-5-3.5-8.1
			c-0.1-3,1.1-6.1,3.3-8.3c1.1-1.1,2.4-2,3.8-2.6c1.4-0.6,3-0.9,4.5-0.9c1.5,0,3.1,0.4,4.4,1.1c1.4,0.7,2.6,1.6,3.6,2.7
			C39.7,24.6,40.6,27.6,40.6,30.4z M40.4,30.4c0-1.4-0.3-2.8-0.9-4C38.9,25.1,38,24,37,23.2c-2.1-1.8-4.7-2.6-7.2-2.5
			c-2.6,0-5.1,1.1-6.9,2.9c-1.9,1.8-3,4.3-3.1,6.9c-0.1,2.6,1,5.2,2.8,7.2c1.8,1.9,4.5,3.1,7.2,3.1c2.7,0.1,5.4-0.9,7.5-2.8
			c1-1,1.8-2.1,2.4-3.4C40.1,33.2,40.4,31.8,40.4,30.4z"/>
	</g>
	<g>
		<circle class="st4" cx="226.3" cy="30.4" r="10.8"/>
		<path class="st1" d="M237.1,30.4c0,2.8-1.1,5.7-3.1,7.8c-1.9,2.1-4.8,3.4-7.8,3.5c-3,0.1-5.9-1.1-8.1-3.2c-2.2-2.1-3.5-5-3.5-8.1
			c-0.1-3,1.1-6.1,3.3-8.3c1.1-1.1,2.4-2,3.8-2.6c1.4-0.6,3-0.9,4.5-0.9c1.5,0,3.1,0.4,4.4,1.1c1.4,0.7,2.6,1.6,3.6,2.7
			C236.2,24.6,237.2,27.6,237.1,30.4z M236.9,30.4c0-1.4-0.3-2.8-0.9-4c-0.6-1.2-1.5-2.3-2.5-3.2c-2.1-1.8-4.7-2.6-7.2-2.5
			c-2.6,0-5.1,1.1-6.9,2.9c-1.9,1.8-3,4.3-3.1,6.9c-0.1,2.6,1,5.2,2.8,7.2c1.8,1.9,4.5,3.1,7.2,3.1c2.7,0.1,5.4-0.9,7.5-2.8
			c1-1,1.8-2.1,2.4-3.4C236.7,33.2,237,31.8,236.9,30.4z"/>
	</g>
	<g>
		<circle class="st4" cx="177.1" cy="30.4" r="10.8"/>
		<path class="st1" d="M188,30.4c0,2.8-1.1,5.7-3.1,7.8c-1.9,2.1-4.8,3.4-7.8,3.5c-3,0.1-5.9-1.1-8.1-3.2c-2.2-2.1-3.5-5-3.5-8.1
			c-0.1-3,1.1-6.1,3.3-8.3c1.1-1.1,2.4-2,3.8-2.6c1.4-0.6,3-0.9,4.5-0.9c1.5,0,3.1,0.4,4.4,1.1c1.4,0.7,2.6,1.6,3.6,2.7
			C187.1,24.6,188,27.6,188,30.4z M187.8,30.4c0-1.4-0.3-2.8-0.9-4c-0.6-1.2-1.5-2.3-2.5-3.2c-2.1-1.8-4.7-2.6-7.2-2.5
			c-2.6,0-5.1,1.1-6.9,2.9c-1.9,1.8-3,4.3-3.1,6.9c-0.1,2.6,1,5.2,2.8,7.2c1.8,1.9,4.5,3.1,7.2,3.1c2.7,0.1,5.4-0.9,7.5-2.8
			c1-1,1.8-2.1,2.4-3.4C187.5,33.2,187.8,31.8,187.8,30.4z"/>
	</g>
	<g>
		<circle class="st4" cx="78.9" cy="30.4" r="10.8"/>
		<path class="st1" d="M89.7,30.4c0,2.8-1.1,5.7-3.1,7.8c-1.9,2.1-4.8,3.4-7.8,3.5c-3,0.1-5.9-1.1-8.1-3.2c-2.2-2.1-3.5-5-3.5-8.1
			c-0.1-3,1.1-6.1,3.3-8.3c1.1-1.1,2.4-2,3.8-2.6c1.4-0.6,3-0.9,4.5-0.9c1.5,0,3.1,0.4,4.4,1.1c1.4,0.7,2.6,1.6,3.6,2.7
			C88.8,24.6,89.8,27.6,89.7,30.4z M89.5,30.4c0-1.4-0.3-2.8-0.9-4c-0.6-1.2-1.5-2.3-2.5-3.2c-2.1-1.8-4.7-2.6-7.2-2.5
			c-2.6,0-5.1,1.1-6.9,2.9c-1.9,1.8-3,4.3-3.1,6.9c-0.1,2.6,1,5.2,2.8,7.2c1.8,1.9,4.5,3.1,7.2,3.1c2.7,0.1,5.4-0.9,7.5-2.8
			c1-1,1.8-2.1,2.4-3.4C89.3,33.2,89.5,31.8,89.5,30.4z"/>
	</g>
	<line class="st5" x1="131.6" y1="104" x2="131.6" y2="235.5"/>
	<line class="st5" x1="187.9" y1="104" x2="187.9" y2="235.5"/>
	<line class="st5" x1="75.3" y1="104" x2="75.3" y2="235.5"/>
	<line class="st5" x1="19" y1="169.8" x2="237.5" y2="169.8"/>
	<line class="st5" x1="19" y1="202.7" x2="237.5" y2="202.7"/>
	<g>
		<path class="st1" d="M19,136.9l109.3-0.7c18.2-0.1,36.4-0.3,54.6-0.2c18.2,0.2,36.4,0.3,54.6,0.9c0.1,0,0.1,0,0.1,0.1
			c0,0.1,0,0.1-0.1,0.1c-18.2,0.6-36.4,0.7-54.6,0.9c-18.2,0.1-36.4-0.1-54.6-0.2L19,137.1C18.9,137.1,18.9,137.1,19,136.9
			C18.9,137,18.9,136.9,19,136.9z"/>
	</g>
	<g>
		<path class="st1" d="M35.3,115.5c0,1.3-0.5,2.6-1.4,3.6c-0.8,1-2.2,1.7-3.6,1.8c-1.4,0.1-2.8-0.5-3.9-1.5c-1.1-1-1.7-2.4-1.8-3.9
			c-0.1-1.5,0.5-3,1.5-4.1c1-1.1,2.6-1.8,4.1-1.7c1.5,0,3,0.9,3.8,2C35,112.8,35.4,114.2,35.3,115.5z M35.1,115.5
			c0-1.3-0.7-2.4-1.7-3c-1-0.7-2-0.8-3-0.8c-1,0.1-2,0.4-2.7,1.1c-0.8,0.7-1.3,1.7-1.3,2.7c-0.1,1.1,0.3,2.1,1.1,3
			c0.7,0.8,1.8,1.3,3,1.4c1.1,0.1,2.3-0.3,3.3-1.1C34.6,118,35.2,116.7,35.1,115.5z"/>
	</g>
	<g>
		<path class="st1" d="M91.6,115.5c0,1.3-0.5,2.6-1.4,3.6c-0.8,1-2.2,1.7-3.6,1.8c-1.4,0.1-2.8-0.5-3.9-1.5c-1.1-1-1.7-2.4-1.8-3.9
			c-0.1-1.5,0.5-3,1.5-4.1c1-1.1,2.6-1.8,4.1-1.7c1.5,0,3,0.9,3.8,2C91.3,112.8,91.7,114.2,91.6,115.5z M91.4,115.5
			c0-1.3-0.7-2.4-1.7-3c-1-0.7-2-0.8-3-0.8c-1,0.1-2,0.4-2.7,1.1c-0.8,0.7-1.3,1.7-1.3,2.7c-0.1,1.1,0.3,2.1,1.1,3
			c0.7,0.8,1.8,1.3,3,1.4c1.1,0.1,2.3-0.3,3.3-1.1C90.9,118,91.5,116.7,91.4,115.5z"/>
	</g>
	<g>
		<path class="st1" d="M148,115.5c0,1.3-0.5,2.6-1.4,3.6c-0.8,1-2.2,1.7-3.6,1.8c-1.4,0.1-2.8-0.5-3.9-1.5c-1.1-1-1.7-2.4-1.8-3.9
			c-0.1-1.5,0.5-3,1.5-4.1c1-1.1,2.6-1.8,4.1-1.7c1.5,0,3,0.9,3.8,2C147.7,112.8,148,114.2,148,115.5z M147.8,115.5
			c0-1.3-0.7-2.4-1.7-3c-1-0.7-2-0.8-3-0.8c-1,0.1-2,0.4-2.7,1.1c-0.8,0.7-1.3,1.7-1.3,2.7c-0.1,1.1,0.3,2.1,1.1,3
			c0.7,0.8,1.8,1.3,3,1.4c1.1,0.1,2.3-0.3,3.3-1.1C147.2,118,147.8,116.7,147.8,115.5z"/>
	</g>
	<g>
		<path class="st1" d="M204.3,115.5c0,1.3-0.5,2.6-1.4,3.6c-0.8,1-2.2,1.7-3.6,1.8c-1.4,0.1-2.8-0.5-3.9-1.5c-1.1-1-1.7-2.4-1.8-3.9
			c-0.1-1.5,0.5-3,1.5-4.1c1-1.1,2.6-1.8,4.1-1.7c1.5,0,3,0.9,3.8,2C204,112.8,204.3,114.2,204.3,115.5z M204.1,115.5
			c0-1.3-0.7-2.4-1.7-3c-1-0.7-2-0.8-3-0.8c-1,0.1-2,0.4-2.7,1.1c-0.8,0.7-1.3,1.7-1.3,2.7c-0.1,1.1,0.3,2.1,1.1,3
			c0.7,0.8,1.8,1.3,3,1.4c1.1,0.1,2.3-0.3,3.3-1.1C203.6,118,204.1,116.7,204.1,115.5z"/>
	</g>
	<g>
		<path class="st1" d="M35.3,148.4c0,1.3-0.5,2.6-1.4,3.6c-0.8,1-2.2,1.7-3.6,1.8c-1.4,0.1-2.8-0.5-3.9-1.5c-1.1-1-1.7-2.4-1.8-3.9
			c-0.1-1.5,0.5-3,1.5-4.1c1-1.1,2.6-1.8,4.1-1.7c1.5,0,3,0.9,3.8,2C35,145.8,35.4,147.2,35.3,148.4z M35.1,148.4
			c0-1.3-0.7-2.4-1.7-3c-1-0.7-2-0.8-3-0.8c-1,0.1-2,0.4-2.7,1.1c-0.8,0.7-1.3,1.7-1.3,2.7c-0.1,1.1,0.3,2.1,1.1,3
			c0.7,0.8,1.8,1.3,3,1.4c1.1,0.1,2.3-0.3,3.3-1.1C34.6,150.9,35.2,149.7,35.1,148.4z"/>
	</g>
	<g>
		<path class="st1" d="M91.6,148.4c0,1.3-0.5,2.6-1.4,3.6c-0.8,1-2.2,1.7-3.6,1.8c-1.4,0.1-2.8-0.5-3.9-1.5c-1.1-1-1.7-2.4-1.8-3.9
			c-0.1-1.5,0.5-3,1.5-4.1c1-1.1,2.6-1.8,4.1-1.7c1.5,0,3,0.9,3.8,2C91.3,145.8,91.7,147.2,91.6,148.4z M91.4,148.4
			c0-1.3-0.7-2.4-1.7-3c-1-0.7-2-0.8-3-0.8c-1,0.1-2,0.4-2.7,1.1c-0.8,0.7-1.3,1.7-1.3,2.7c-0.1,1.1,0.3,2.1,1.1,3
			c0.7,0.8,1.8,1.3,3,1.4c1.1,0.1,2.3-0.3,3.3-1.1C90.9,150.9,91.5,149.7,91.4,148.4z"/>
	</g>
	<g>
		<path class="st1" d="M148,148.4c0,1.3-0.5,2.6-1.4,3.6c-0.8,1-2.2,1.7-3.6,1.8c-1.4,0.1-2.8-0.5-3.9-1.5c-1.1-1-1.7-2.4-1.8-3.9
			c-0.1-1.5,0.5-3,1.5-4.1c1-1.1,2.6-1.8,4.1-1.7c1.5,0,3,0.9,3.8,2C147.7,145.8,148,147.2,148,148.4z M147.8,148.4
			c0-1.3-0.7-2.4-1.7-3c-1-0.7-2-0.8-3-0.8c-1,0.1-2,0.4-2.7,1.1c-0.8,0.7-1.3,1.7-1.3,2.7c-0.1,1.1,0.3,2.1,1.1,3
			c0.7,0.8,1.8,1.3,3,1.4c1.1,0.1,2.3-0.3,3.3-1.1C147.2,150.9,147.8,149.7,147.8,148.4z"/>
	</g>
	<g>
		<path class="st1" d="M204.3,148.4c0,1.3-0.5,2.6-1.4,3.6c-0.8,1-2.2,1.7-3.6,1.8c-1.4,0.1-2.8-0.5-3.9-1.5c-1.1-1-1.7-2.4-1.8-3.9
			c-0.1-1.5,0.5-3,1.5-4.1c1-1.1,2.6-1.8,4.1-1.7c1.5,0,3,0.9,3.8,2C204,145.8,204.3,147.2,204.3,148.4z M204.1,148.4
			c0-1.3-0.7-2.4-1.7-3c-1-0.7-2-0.8-3-0.8c-1,0.1-2,0.4-2.7,1.1c-0.8,0.7-1.3,1.7-1.3,2.7c-0.1,1.1,0.3,2.1,1.1,3
			c0.7,0.8,1.8,1.3,3,1.4c1.1,0.1,2.3-0.3,3.3-1.1C203.6,150.9,204.1,149.7,204.1,148.4z"/>
	</g>
	<g>
		<path class="st1" d="M35.3,181.2c0,1.3-0.5,2.6-1.4,3.6c-0.8,1-2.2,1.7-3.6,1.8c-1.4,0.1-2.8-0.5-3.9-1.5c-1.1-1-1.7-2.4-1.8-3.9
			c-0.1-1.5,0.5-3,1.5-4.1c1-1.1,2.6-1.8,4.1-1.7c1.5,0,3,0.9,3.8,2C35,178.6,35.4,179.9,35.3,181.2z M35.1,181.2
			c0-1.3-0.7-2.4-1.7-3c-1-0.7-2-0.8-3-0.8c-1,0.1-2,0.4-2.7,1.1c-0.8,0.7-1.3,1.7-1.3,2.7c-0.1,1.1,0.3,2.1,1.1,3
			c0.7,0.8,1.8,1.3,3,1.4c1.1,0.1,2.3-0.3,3.3-1.1C34.6,183.7,35.2,182.4,35.1,181.2z"/>
	</g>
	<g>
		<path class="st1" d="M91.6,181.2c0,1.3-0.5,2.6-1.4,3.6c-0.8,1-2.2,1.7-3.6,1.8c-1.4,0.1-2.8-0.5-3.9-1.5c-1.1-1-1.7-2.4-1.8-3.9
			c-0.1-1.5,0.5-3,1.5-4.1c1-1.1,2.6-1.8,4.1-1.7c1.5,0,3,0.9,3.8,2C91.3,178.6,91.7,179.9,91.6,181.2z M91.4,181.2
			c0-1.3-0.7-2.4-1.7-3c-1-0.7-2-0.8-3-0.8c-1,0.1-2,0.4-2.7,1.1c-0.8,0.7-1.3,1.7-1.3,2.7c-0.1,1.1,0.3,2.1,1.1,3
			c0.7,0.8,1.8,1.3,3,1.4c1.1,0.1,2.3-0.3,3.3-1.1C90.9,183.7,91.5,182.4,91.4,181.2z"/>
	</g>
	<g>
		<path class="st1" d="M148,181.2c0,1.3-0.5,2.6-1.4,3.6c-0.8,1-2.2,1.7-3.6,1.8c-1.4,0.1-2.8-0.5-3.9-1.5c-1.1-1-1.7-2.4-1.8-3.9
			c-0.1-1.5,0.5-3,1.5-4.1c1-1.1,2.6-1.8,4.1-1.7c1.5,0,3,0.9,3.8,2C147.7,178.6,148,179.9,148,181.2z M147.8,181.2
			c0-1.3-0.7-2.4-1.7-3c-1-0.7-2-0.8-3-0.8c-1,0.1-2,0.4-2.7,1.1c-0.8,0.7-1.3,1.7-1.3,2.7c-0.1,1.1,0.3,2.1,1.1,3
			c0.7,0.8,1.8,1.3,3,1.4c1.1,0.1,2.3-0.3,3.3-1.1C147.2,183.7,147.8,182.4,147.8,181.2z"/>
	</g>
	<g>
		<path class="st1" d="M204.3,181.2c0,1.3-0.5,2.6-1.4,3.6c-0.8,1-2.2,1.7-3.6,1.8c-1.4,0.1-2.8-0.5-3.9-1.5c-1.1-1-1.7-2.4-1.8-3.9
			c-0.1-1.5,0.5-3,1.5-4.1c1-1.1,2.6-1.8,4.1-1.7c1.5,0,3,0.9,3.8,2C204,178.6,204.3,179.9,204.3,181.2z M204.1,181.2
			c0-1.3-0.7-2.4-1.7-3c-1-0.7-2-0.8-3-0.8c-1,0.1-2,0.4-2.7,1.1c-0.8,0.7-1.3,1.7-1.3,2.7c-0.1,1.1,0.3,2.1,1.1,3
			c0.7,0.8,1.8,1.3,3,1.4c1.1,0.1,2.3-0.3,3.3-1.1C203.6,183.7,204.1,182.4,204.1,181.2z"/>
	</g>
	<g>
		<path class="st1" d="M35.3,214c0,1.3-0.5,2.6-1.4,3.6c-0.8,1-2.2,1.7-3.6,1.8c-1.4,0.1-2.8-0.5-3.9-1.5c-1.1-1-1.7-2.4-1.8-3.9
			c-0.1-1.5,0.5-3,1.5-4.1c1-1.1,2.6-1.8,4.1-1.7c1.5,0,3,0.9,3.8,2C35,211.3,35.4,212.7,35.3,214z M35.1,214c0-1.3-0.7-2.4-1.7-3
			c-1-0.7-2-0.8-3-0.8c-1,0.1-2,0.4-2.7,1.1c-0.8,0.7-1.3,1.7-1.3,2.7c-0.1,1.1,0.3,2.1,1.1,3c0.7,0.8,1.8,1.3,3,1.4
			c1.1,0.1,2.3-0.3,3.3-1.1C34.6,216.5,35.2,215.2,35.1,214z"/>
	</g>
	<g>
		<path class="st1" d="M91.6,214c0,1.3-0.5,2.6-1.4,3.6c-0.8,1-2.2,1.7-3.6,1.8c-1.4,0.1-2.8-0.5-3.9-1.5c-1.1-1-1.7-2.4-1.8-3.9
			c-0.1-1.5,0.5-3,1.5-4.1c1-1.1,2.6-1.8,4.1-1.7c1.5,0,3,0.9,3.8,2C91.3,211.3,91.7,212.7,91.6,214z M91.4,214c0-1.3-0.7-2.4-1.7-3
			c-1-0.7-2-0.8-3-0.8c-1,0.1-2,0.4-2.7,1.1c-0.8,0.7-1.3,1.7-1.3,2.7c-0.1,1.1,0.3,2.1,1.1,3c0.7,0.8,1.8,1.3,3,1.4
			c1.1,0.1,2.3-0.3,3.3-1.1C90.9,216.5,91.5,215.2,91.4,214z"/>
	</g>
	<g>
		<path class="st1" d="M148,214c0,1.3-0.5,2.6-1.4,3.6c-0.8,1-2.2,1.7-3.6,1.8c-1.4,0.1-2.8-0.5-3.9-1.5c-1.1-1-1.7-2.4-1.8-3.9
			c-0.1-1.5,0.5-3,1.5-4.1c1-1.1,2.6-1.8,4.1-1.7c1.5,0,3,0.9,3.8,2C147.7,211.3,148,212.7,148,214z M147.8,214c0-1.3-0.7-2.4-1.7-3
			c-1-0.7-2-0.8-3-0.8c-1,0.1-2,0.4-2.7,1.1c-0.8,0.7-1.3,1.7-1.3,2.7c-0.1,1.1,0.3,2.1,1.1,3c0.7,0.8,1.8,1.3,3,1.4
			c1.1,0.1,2.3-0.3,3.3-1.1C147.2,216.5,147.8,215.2,147.8,214z"/>
	</g>
	<g>
		<path class="st1" d="M204.3,214c0,1.3-0.5,2.6-1.4,3.6c-0.8,1-2.2,1.7-3.6,1.8c-1.4,0.1-2.8-0.5-3.9-1.5c-1.1-1-1.7-2.4-1.8-3.9
			c-0.1-1.5,0.5-3,1.5-4.1c1-1.1,2.6-1.8,4.1-1.7c1.5,0,3,0.9,3.8,2C204,211.3,204.3,212.7,204.3,214z M204.1,214
			c0-1.3-0.7-2.4-1.7-3c-1-0.7-2-0.8-3-0.8c-1,0.1-2,0.4-2.7,1.1c-0.8,0.7-1.3,1.7-1.3,2.7c-0.1,1.1,0.3,2.1,1.1,3
			c0.7,0.8,1.8,1.3,3,1.4c1.1,0.1,2.3-0.3,3.3-1.1C203.6,216.5,204.1,215.2,204.1,214z"/>
	</g>
</g>
</svg>
