<?xml version="1.0" encoding="utf-8"?>
<!-- Generator: Adobe Illustrator 22.1.0, SVG Export Plug-In . SVG Version: 6.00 Build 0)  -->
<svg version="1.1" id="Layer_1" xmlns="http://www.w3.org/2000/svg" xmlns:xlink="http://www.w3.org/1999/xlink" x="0px" y="0px"
	 viewBox="0 0 256 256" style="enable-background:new 0 0 256 256;" xml:space="preserve">
<style type="text/css">
	.st0{fill:none;}
	.st1{fill:#253759;}
	.st2{clip-path:url(#SVGID_2_);fill:#253759;}
	.st3{clip-path:url(#SVGID_4_);fill:#253759;}
	.st4{fill:url(#SVGID_7_);}
	.st5{fill:url(#SVGID_8_);}
	.st6{fill:url(#SVGID_9_);}
	.st7{fill:url(#SVGID_10_);}
	.st8{fill:url(#SVGID_11_);}
	.st9{fill:url(#SVGID_12_);}
</style>
<pattern  y="-552" width="42.9" height="43" patternUnits="userSpaceOnUse" id="New_Pattern_Swatch_1" viewBox="43 -43 42.9 43" style="overflow:visible;">
	<g>
		<rect x="43" y="-43" class="st0" width="42.9" height="43"/>
		<g>
			<g>
				<circle class="st1" cx="85.9" cy="-41.2" r="0.6"/>
				<circle class="st1" cx="85.9" cy="-37.6" r="0.6"/>
				<circle class="st1" cx="85.9" cy="-34" r="0.6"/>
				<circle class="st1" cx="85.9" cy="-30.4" r="0.6"/>
				<circle class="st1" cx="85.9" cy="-26.9" r="0.6"/>
				<circle class="st1" cx="85.9" cy="-23.3" r="0.6"/>
				<circle class="st1" cx="85.9" cy="-19.7" r="0.6"/>
				<circle class="st1" cx="85.9" cy="-16.1" r="0.6"/>
				<circle class="st1" cx="85.9" cy="-12.6" r="0.6"/>
				<circle class="st1" cx="85.9" cy="-9" r="0.6"/>
				<circle class="st1" cx="85.9" cy="-5.4" r="0.6"/>
				<circle class="st1" cx="85.9" cy="-1.8" r="0.6"/>
				<circle class="st1" cx="85.8" cy="-41.2" r="0.6"/>
				<circle class="st1" cx="85.8" cy="-37.6" r="0.6"/>
				<circle class="st1" cx="85.8" cy="-34" r="0.6"/>
				<circle class="st1" cx="85.8" cy="-30.4" r="0.6"/>
				<circle class="st1" cx="85.8" cy="-26.9" r="0.6"/>
				<circle class="st1" cx="85.8" cy="-23.3" r="0.6"/>
				<circle class="st1" cx="85.8" cy="-19.7" r="0.6"/>
				<circle class="st1" cx="85.8" cy="-16.1" r="0.6"/>
				<circle class="st1" cx="85.8" cy="-12.6" r="0.6"/>
				<circle class="st1" cx="85.8" cy="-9" r="0.6"/>
				<circle class="st1" cx="85.8" cy="-5.4" r="0.6"/>
				<circle class="st1" cx="85.8" cy="-1.8" r="0.6"/>
			</g>
			<g>
				<defs>
					<rect id="SVGID_1_" x="85.8" y="-43" width="43" height="43"/>
				</defs>
				<clipPath id="SVGID_2_">
					<use xlink:href="#SVGID_1_"  style="overflow:visible;"/>
				</clipPath>
				<circle class="st2" cx="85.8" cy="-41.2" r="0.6"/>
				<circle class="st2" cx="85.8" cy="-37.6" r="0.6"/>
				<circle class="st2" cx="85.8" cy="-34" r="0.6"/>
				<circle class="st2" cx="85.8" cy="-30.4" r="0.6"/>
				<circle class="st2" cx="85.8" cy="-26.9" r="0.6"/>
				<circle class="st2" cx="85.8" cy="-23.3" r="0.6"/>
				<circle class="st2" cx="85.8" cy="-19.7" r="0.6"/>
				<circle class="st2" cx="85.8" cy="-16.1" r="0.6"/>
				<circle class="st2" cx="85.8" cy="-12.6" r="0.6"/>
				<circle class="st2" cx="85.8" cy="-9" r="0.6"/>
				<circle class="st2" cx="85.8" cy="-5.4" r="0.6"/>
				<circle class="st2" cx="85.8" cy="-1.8" r="0.6"/>
				<circle class="st2" cx="85.7" cy="-41.2" r="0.6"/>
				<circle class="st2" cx="85.7" cy="-37.6" r="0.6"/>
				<circle class="st2" cx="85.7" cy="-34" r="0.6"/>
				<circle class="st2" cx="85.7" cy="-30.4" r="0.6"/>
				<circle class="st2" cx="85.7" cy="-26.9" r="0.6"/>
				<circle class="st2" cx="85.7" cy="-23.3" r="0.6"/>
				<circle class="st2" cx="85.7" cy="-19.7" r="0.6"/>
				<circle class="st2" cx="85.7" cy="-16.1" r="0.6"/>
				<circle class="st2" cx="85.7" cy="-12.6" r="0.6"/>
				<circle class="st2" cx="85.7" cy="-9" r="0.6"/>
				<circle class="st2" cx="85.7" cy="-5.4" r="0.6"/>
				<circle class="st2" cx="85.7" cy="-1.8" r="0.6"/>
			</g>
		</g>
		<g>
			<g>
				<circle class="st1" cx="85.9" cy="-41.2" r="0.6"/>
				<circle class="st1" cx="85.9" cy="-37.6" r="0.6"/>
				<circle class="st1" cx="85.9" cy="-34" r="0.6"/>
				<circle class="st1" cx="85.9" cy="-30.4" r="0.6"/>
				<circle class="st1" cx="85.9" cy="-26.9" r="0.6"/>
				<circle class="st1" cx="85.9" cy="-23.3" r="0.6"/>
				<circle class="st1" cx="85.9" cy="-19.7" r="0.6"/>
				<circle class="st1" cx="85.9" cy="-16.1" r="0.6"/>
				<circle class="st1" cx="85.9" cy="-12.6" r="0.6"/>
				<circle class="st1" cx="85.9" cy="-9" r="0.6"/>
				<circle class="st1" cx="85.9" cy="-5.4" r="0.6"/>
				<circle class="st1" cx="85.9" cy="-1.8" r="0.6"/>
				<circle class="st1" cx="43" cy="-41.2" r="0.6"/>
				<circle class="st1" cx="46.5" cy="-41.2" r="0.6"/>
				<circle class="st1" cx="50.1" cy="-41.2" r="0.6"/>
				<circle class="st1" cx="53.7" cy="-41.2" r="0.6"/>
				<circle class="st1" cx="43" cy="-37.6" r="0.6"/>
				<circle class="st1" cx="46.5" cy="-37.6" r="0.6"/>
				<circle class="st1" cx="50.1" cy="-37.6" r="0.6"/>
				<circle class="st1" cx="53.7" cy="-37.6" r="0.6"/>
				<circle class="st1" cx="43" cy="-34" r="0.6"/>
				<circle class="st1" cx="46.5" cy="-34" r="0.6"/>
				<circle class="st1" cx="50.1" cy="-34" r="0.6"/>
				<circle class="st1" cx="53.7" cy="-34" r="0.6"/>
				<circle class="st1" cx="43" cy="-30.4" r="0.6"/>
				<circle class="st1" cx="46.5" cy="-30.4" r="0.6"/>
				<circle class="st1" cx="50.1" cy="-30.4" r="0.6"/>
				<circle class="st1" cx="53.7" cy="-30.4" r="0.6"/>
				<circle class="st1" cx="43" cy="-26.9" r="0.6"/>
				<circle class="st1" cx="46.5" cy="-26.9" r="0.6"/>
				<circle class="st1" cx="50.1" cy="-26.9" r="0.6"/>
				<circle class="st1" cx="53.7" cy="-26.9" r="0.6"/>
				<circle class="st1" cx="43" cy="-23.3" r="0.6"/>
				<circle class="st1" cx="46.5" cy="-23.3" r="0.6"/>
				<circle class="st1" cx="50.1" cy="-23.3" r="0.6"/>
				<circle class="st1" cx="53.7" cy="-23.3" r="0.6"/>
				<circle class="st1" cx="57.3" cy="-41.2" r="0.6"/>
				<circle class="st1" cx="60.8" cy="-41.2" r="0.6"/>
				<circle class="st1" cx="64.4" cy="-41.2" r="0.6"/>
				<circle class="st1" cx="68" cy="-41.2" r="0.6"/>
				<circle class="st1" cx="71.5" cy="-41.2" r="0.6"/>
				<circle class="st1" cx="57.3" cy="-37.6" r="0.6"/>
				<circle class="st1" cx="60.8" cy="-37.6" r="0.6"/>
				<circle class="st1" cx="64.4" cy="-37.6" r="0.6"/>
				<circle class="st1" cx="68" cy="-37.6" r="0.6"/>
				<circle class="st1" cx="71.5" cy="-37.6" r="0.6"/>
				<circle class="st1" cx="57.3" cy="-34" r="0.6"/>
				<circle class="st1" cx="60.8" cy="-34" r="0.6"/>
				<circle class="st1" cx="64.4" cy="-34" r="0.6"/>
				<circle class="st1" cx="68" cy="-34" r="0.6"/>
				<circle class="st1" cx="71.5" cy="-34" r="0.6"/>
				<circle class="st1" cx="57.3" cy="-30.4" r="0.6"/>
				<circle class="st1" cx="60.8" cy="-30.4" r="0.6"/>
				<circle class="st1" cx="64.4" cy="-30.4" r="0.6"/>
				<circle class="st1" cx="68" cy="-30.4" r="0.6"/>
				<circle class="st1" cx="71.5" cy="-30.4" r="0.6"/>
				<circle class="st1" cx="57.3" cy="-26.9" r="0.6"/>
				<circle class="st1" cx="60.8" cy="-26.9" r="0.6"/>
				<circle class="st1" cx="64.4" cy="-26.9" r="0.6"/>
				<circle class="st1" cx="68" cy="-26.9" r="0.6"/>
				<circle class="st1" cx="71.5" cy="-26.9" r="0.6"/>
				<circle class="st1" cx="57.3" cy="-23.3" r="0.6"/>
				<circle class="st1" cx="60.8" cy="-23.3" r="0.6"/>
				<circle class="st1" cx="64.4" cy="-23.3" r="0.6"/>
				<circle class="st1" cx="68" cy="-23.3" r="0.6"/>
				<circle class="st1" cx="71.5" cy="-23.3" r="0.6"/>
				<circle class="st1" cx="75.1" cy="-41.2" r="0.6"/>
				<circle class="st1" cx="78.7" cy="-41.2" r="0.6"/>
				<circle class="st1" cx="82.3" cy="-41.2" r="0.6"/>
				<circle class="st1" cx="85.8" cy="-41.2" r="0.6"/>
				<circle class="st1" cx="75.1" cy="-37.6" r="0.6"/>
				<circle class="st1" cx="78.7" cy="-37.6" r="0.6"/>
				<circle class="st1" cx="82.3" cy="-37.6" r="0.6"/>
				<circle class="st1" cx="85.8" cy="-37.6" r="0.6"/>
				<circle class="st1" cx="75.1" cy="-34" r="0.6"/>
				<circle class="st1" cx="78.7" cy="-34" r="0.6"/>
				<circle class="st1" cx="82.3" cy="-34" r="0.6"/>
				<circle class="st1" cx="85.8" cy="-34" r="0.6"/>
				<circle class="st1" cx="75.1" cy="-30.4" r="0.6"/>
				<circle class="st1" cx="78.7" cy="-30.4" r="0.6"/>
				<circle class="st1" cx="82.3" cy="-30.4" r="0.6"/>
				<circle class="st1" cx="85.8" cy="-30.4" r="0.6"/>
				<circle class="st1" cx="75.1" cy="-26.9" r="0.6"/>
				<circle class="st1" cx="78.7" cy="-26.9" r="0.6"/>
				<circle class="st1" cx="82.3" cy="-26.9" r="0.6"/>
				<circle class="st1" cx="85.8" cy="-26.9" r="0.6"/>
				<circle class="st1" cx="75.1" cy="-23.3" r="0.6"/>
				<circle class="st1" cx="78.7" cy="-23.3" r="0.6"/>
				<circle class="st1" cx="82.3" cy="-23.3" r="0.6"/>
				<circle class="st1" cx="85.8" cy="-23.3" r="0.6"/>
				<circle class="st1" cx="43" cy="-19.7" r="0.6"/>
				<circle class="st1" cx="46.5" cy="-19.7" r="0.6"/>
				<circle class="st1" cx="50.1" cy="-19.7" r="0.6"/>
				<circle class="st1" cx="53.7" cy="-19.7" r="0.6"/>
				<circle class="st1" cx="43" cy="-16.1" r="0.6"/>
				<circle class="st1" cx="46.5" cy="-16.1" r="0.6"/>
				<circle class="st1" cx="50.1" cy="-16.1" r="0.6"/>
				<circle class="st1" cx="53.7" cy="-16.1" r="0.6"/>
				<circle class="st1" cx="43" cy="-12.6" r="0.6"/>
				<circle class="st1" cx="46.5" cy="-12.6" r="0.6"/>
				<circle class="st1" cx="50.1" cy="-12.6" r="0.6"/>
				<circle class="st1" cx="53.7" cy="-12.6" r="0.6"/>
				<circle class="st1" cx="43" cy="-9" r="0.6"/>
				<circle class="st1" cx="46.5" cy="-9" r="0.6"/>
				<circle class="st1" cx="50.1" cy="-9" r="0.6"/>
				<circle class="st1" cx="53.7" cy="-9" r="0.6"/>
				<circle class="st1" cx="43" cy="-5.4" r="0.6"/>
				<circle class="st1" cx="46.5" cy="-5.4" r="0.6"/>
				<circle class="st1" cx="50.1" cy="-5.4" r="0.6"/>
				<circle class="st1" cx="53.7" cy="-5.4" r="0.6"/>
				<circle class="st1" cx="43" cy="-1.8" r="0.6"/>
				<circle class="st1" cx="46.5" cy="-1.8" r="0.6"/>
				<circle class="st1" cx="50.1" cy="-1.8" r="0.6"/>
				<circle class="st1" cx="53.7" cy="-1.8" r="0.6"/>
				<circle class="st1" cx="57.3" cy="-19.7" r="0.6"/>
				<circle class="st1" cx="60.8" cy="-19.7" r="0.6"/>
				<circle class="st1" cx="64.4" cy="-19.7" r="0.6"/>
				<circle class="st1" cx="68" cy="-19.7" r="0.6"/>
				<circle class="st1" cx="71.5" cy="-19.7" r="0.6"/>
				<circle class="st1" cx="57.3" cy="-16.1" r="0.6"/>
				<circle class="st1" cx="60.8" cy="-16.1" r="0.6"/>
				<circle class="st1" cx="64.4" cy="-16.1" r="0.6"/>
				<circle class="st1" cx="68" cy="-16.1" r="0.6"/>
				<circle class="st1" cx="71.5" cy="-16.1" r="0.6"/>
				<circle class="st1" cx="57.3" cy="-12.6" r="0.6"/>
				<circle class="st1" cx="60.8" cy="-12.6" r="0.6"/>
				<circle class="st1" cx="64.4" cy="-12.6" r="0.6"/>
				<circle class="st1" cx="68" cy="-12.6" r="0.6"/>
				<circle class="st1" cx="71.5" cy="-12.6" r="0.6"/>
				<circle class="st1" cx="57.3" cy="-9" r="0.6"/>
				<circle class="st1" cx="60.8" cy="-9" r="0.6"/>
				<circle class="st1" cx="64.4" cy="-9" r="0.6"/>
				<circle class="st1" cx="68" cy="-9" r="0.6"/>
				<circle class="st1" cx="71.5" cy="-9" r="0.6"/>
				<circle class="st1" cx="57.3" cy="-5.4" r="0.6"/>
				<circle class="st1" cx="60.8" cy="-5.4" r="0.6"/>
				<circle class="st1" cx="64.4" cy="-5.4" r="0.6"/>
				<circle class="st1" cx="68" cy="-5.4" r="0.6"/>
				<circle class="st1" cx="71.5" cy="-5.4" r="0.6"/>
				<circle class="st1" cx="57.3" cy="-1.8" r="0.6"/>
				<circle class="st1" cx="60.8" cy="-1.8" r="0.6"/>
				<circle class="st1" cx="64.4" cy="-1.8" r="0.6"/>
				<circle class="st1" cx="68" cy="-1.8" r="0.6"/>
				<circle class="st1" cx="71.5" cy="-1.8" r="0.6"/>
				<circle class="st1" cx="75.1" cy="-19.7" r="0.6"/>
				<circle class="st1" cx="78.7" cy="-19.7" r="0.6"/>
				<circle class="st1" cx="82.3" cy="-19.7" r="0.6"/>
				<circle class="st1" cx="85.8" cy="-19.7" r="0.6"/>
				<circle class="st1" cx="75.1" cy="-16.1" r="0.6"/>
				<circle class="st1" cx="78.7" cy="-16.1" r="0.6"/>
				<circle class="st1" cx="82.3" cy="-16.1" r="0.6"/>
				<circle class="st1" cx="85.8" cy="-16.1" r="0.6"/>
				<circle class="st1" cx="75.1" cy="-12.6" r="0.6"/>
				<circle class="st1" cx="78.7" cy="-12.6" r="0.6"/>
				<circle class="st1" cx="82.3" cy="-12.6" r="0.6"/>
				<circle class="st1" cx="85.8" cy="-12.6" r="0.6"/>
				<circle class="st1" cx="75.1" cy="-9" r="0.6"/>
				<circle class="st1" cx="78.7" cy="-9" r="0.6"/>
				<circle class="st1" cx="82.3" cy="-9" r="0.6"/>
				<circle class="st1" cx="85.8" cy="-9" r="0.6"/>
				<circle class="st1" cx="75.1" cy="-5.4" r="0.6"/>
				<circle class="st1" cx="78.7" cy="-5.4" r="0.6"/>
				<circle class="st1" cx="82.3" cy="-5.4" r="0.6"/>
				<circle class="st1" cx="85.8" cy="-5.4" r="0.6"/>
				<circle class="st1" cx="75.1" cy="-1.8" r="0.6"/>
				<circle class="st1" cx="78.7" cy="-1.8" r="0.6"/>
				<circle class="st1" cx="82.3" cy="-1.8" r="0.6"/>
				<circle class="st1" cx="85.8" cy="-1.8" r="0.6"/>
				<circle class="st1" cx="42.9" cy="-41.2" r="0.6"/>
				<circle class="st1" cx="42.9" cy="-37.6" r="0.6"/>
				<circle class="st1" cx="42.9" cy="-34" r="0.6"/>
				<circle class="st1" cx="42.9" cy="-30.4" r="0.6"/>
				<circle class="st1" cx="42.9" cy="-26.9" r="0.6"/>
				<circle class="st1" cx="42.9" cy="-23.3" r="0.6"/>
				<circle class="st1" cx="42.9" cy="-19.7" r="0.6"/>
				<circle class="st1" cx="42.9" cy="-16.1" r="0.6"/>
				<circle class="st1" cx="42.9" cy="-12.6" r="0.6"/>
				<circle class="st1" cx="42.9" cy="-9" r="0.6"/>
				<circle class="st1" cx="42.9" cy="-5.4" r="0.6"/>
				<circle class="st1" cx="42.9" cy="-1.8" r="0.6"/>
			</g>
			<g>
				<defs>
					<rect id="SVGID_3_" x="42.9" y="-43" width="43" height="43"/>
				</defs>
				<clipPath id="SVGID_4_">
					<use xlink:href="#SVGID_3_"  style="overflow:visible;"/>
				</clipPath>
				<circle class="st3" cx="42.9" cy="-41.2" r="0.6"/>
				<circle class="st3" cx="42.9" cy="-37.6" r="0.6"/>
				<circle class="st3" cx="42.9" cy="-34" r="0.6"/>
				<circle class="st3" cx="42.9" cy="-30.4" r="0.6"/>
				<circle class="st3" cx="42.9" cy="-26.9" r="0.6"/>
				<circle class="st3" cx="42.9" cy="-23.3" r="0.6"/>
				<circle class="st3" cx="42.9" cy="-19.7" r="0.6"/>
				<circle class="st3" cx="42.9" cy="-16.1" r="0.6"/>
				<circle class="st3" cx="42.9" cy="-12.6" r="0.6"/>
				<circle class="st3" cx="42.9" cy="-9" r="0.6"/>
				<circle class="st3" cx="42.9" cy="-5.4" r="0.6"/>
				<circle class="st3" cx="42.9" cy="-1.8" r="0.6"/>
				<circle class="st3" cx="42.8" cy="-41.2" r="0.6"/>
				<circle class="st3" cx="42.8" cy="-37.6" r="0.6"/>
				<circle class="st3" cx="42.8" cy="-34" r="0.6"/>
				<circle class="st3" cx="42.8" cy="-30.4" r="0.6"/>
				<circle class="st3" cx="42.8" cy="-26.9" r="0.6"/>
				<circle class="st3" cx="42.8" cy="-23.3" r="0.6"/>
				<circle class="st3" cx="42.8" cy="-19.7" r="0.6"/>
				<circle class="st3" cx="42.8" cy="-16.1" r="0.6"/>
				<circle class="st3" cx="42.8" cy="-12.6" r="0.6"/>
				<circle class="st3" cx="42.8" cy="-9" r="0.6"/>
				<circle class="st3" cx="42.8" cy="-5.4" r="0.6"/>
				<circle class="st3" cx="42.8" cy="-1.8" r="0.6"/>
			</g>
		</g>
		<g>
			<g>
				<circle class="st1" cx="43" cy="-41.2" r="0.6"/>
				<circle class="st1" cx="43" cy="-37.6" r="0.6"/>
				<circle class="st1" cx="43" cy="-34" r="0.6"/>
				<circle class="st1" cx="43" cy="-30.4" r="0.6"/>
				<circle class="st1" cx="43" cy="-26.9" r="0.6"/>
				<circle class="st1" cx="43" cy="-23.3" r="0.6"/>
				<circle class="st1" cx="43" cy="-19.7" r="0.6"/>
				<circle class="st1" cx="43" cy="-16.1" r="0.6"/>
				<circle class="st1" cx="43" cy="-12.6" r="0.6"/>
				<circle class="st1" cx="43" cy="-9" r="0.6"/>
				<circle class="st1" cx="43" cy="-5.4" r="0.6"/>
				<circle class="st1" cx="43" cy="-1.8" r="0.6"/>
				<circle class="st1" cx="42.9" cy="-41.2" r="0.6"/>
				<circle class="st1" cx="42.9" cy="-37.6" r="0.6"/>
				<circle class="st1" cx="42.9" cy="-34" r="0.6"/>
				<circle class="st1" cx="42.9" cy="-30.4" r="0.6"/>
				<circle class="st1" cx="42.9" cy="-26.9" r="0.6"/>
				<circle class="st1" cx="42.9" cy="-23.3" r="0.6"/>
				<circle class="st1" cx="42.9" cy="-19.7" r="0.6"/>
				<circle class="st1" cx="42.9" cy="-16.1" r="0.6"/>
				<circle class="st1" cx="42.9" cy="-12.6" r="0.6"/>
				<circle class="st1" cx="42.9" cy="-9" r="0.6"/>
				<circle class="st1" cx="42.9" cy="-5.4" r="0.6"/>
				<circle class="st1" cx="42.9" cy="-1.8" r="0.6"/>
			</g>
			<g>
				<defs>
					<rect id="SVGID_5_" y="-43" width="43" height="43"/>
				</defs>
				<clipPath id="SVGID_6_">
					<use xlink:href="#SVGID_5_"  style="overflow:visible;"/>
				</clipPath>
			</g>
		</g>
	</g>
</pattern>
<g>
	<g>
		<path class="st1" d="M231.9,32l0,216.5c0,0.5-0.4,0.9-0.9,0.9h0l-206-0.1c-0.4,0-0.8-0.3-0.8-0.8L24,7.6c0-0.5,0.4-1,1-1h0
			l170.4,0c0.2,0,0.4,0.1,0.5,0.2L231.9,32z M230.1,32.9L194.9,8.3l0.5,0.2L25,8.5l1-1l-0.2,240.9l-0.8-0.8l206-0.1l-0.9,0.9
			L230.1,32.9z"/>
	</g>
	<g>
		<path class="st1" d="M206.4,248.7L49.9,249c-0.3,0-0.5-0.2-0.5-0.5l-0.3-136.1c0-0.4,0.4-0.8,0.8-0.8h0l78.1-0.1l39.1-0.1
			c13,0,26-0.1,39.1,0h0c0.5,0,1,0.4,1,1l0,0L206.4,248.7z M205.9,248.2l-0.7-135.9l1,1c-13,0.1-26,0-39.1,0l-39.1-0.1l-78.1-0.1
			l0.8-0.8l-0.3,136.1l-0.5-0.5L205.9,248.2z"/>
	</g>
	<g>
		<path class="st1" d="M56.5,248.8l-0.2-129.5c0-0.3,0.2-0.5,0.5-0.5l142.4-0.3c0.4,0,0.8,0.4,0.8,0.8v0l-0.3,129.2
			c0,0.3-0.2,0.5-0.5,0.5l-71.3-0.2L56.5,248.8z M57.1,248.1l71,0l71.1-0.2l-0.5,0.5l-0.3-129.2l0.8,0.8l-142.4-0.3l0.5-0.5
			L57.1,248.1z"/>
	</g>
	<g>
		<path class="st1" d="M195.9,7.1c0.1,23.9,0,47.8-0.1,71.6c0,0.2-0.2,0.4-0.4,0.4L60.6,79.5c-0.4,0-0.8-0.4-0.8-0.8l0,0L59.5,7.6
			c0-0.6,0.5-1,1-1h0c22.6,0,45.2,0.1,67.8,0.2L195.9,7.1z M195,8l-67.3,0.4c-22.4,0.1-44.7,0.2-67.1,0.2l1-1l-0.2,71.1l-0.8-0.8
			l134.9,0.4l-0.4,0.4C195,55.1,194.9,31.5,195,8z"/>
	</g>
	<g>
		<pattern  id="SVGID_7_" xlink:href="#New_Pattern_Swatch_1" patternTransform="matrix(1 0 0 1 0 -2.5)">
		</pattern>
		<circle class="st4" cx="37.3" cy="235.8" r="5.8"/>
		<path class="st1" d="M42.9,235.8c0.1-1.5-0.6-3-1.7-3.9c-1.1-1-2.6-1.4-3.9-1.3c-1.4,0-2.7,0.7-3.6,1.7c-0.9,1-1.4,2.3-1.4,3.6
			c0.1,1.3,0.6,2.6,1.6,3.4c0.9,0.9,2.1,1.3,3.4,1.4c1.2,0,2.6-0.2,3.7-1.1C42.1,238.7,42.9,237.3,42.9,235.8z M43.1,235.8
			c0,1.5-0.4,3.1-1.4,4.5c-0.5,0.7-1.2,1.2-1.9,1.6c-0.8,0.4-1.6,0.6-2.5,0.7c-1.8,0.1-3.6-0.7-4.8-2c-1.2-1.3-1.9-3.1-1.8-4.8
			c0-1.7,0.8-3.4,2-4.6c1.2-1.2,2.9-1.8,4.6-1.7c1.6,0.1,3.2,0.8,4.2,2C42.5,232.7,43.1,234.2,43.1,235.8z"/>
	</g>
	<g>
		<pattern  id="SVGID_8_" xlink:href="#New_Pattern_Swatch_1" patternTransform="matrix(1 0 0 1 0 2.5)">
		</pattern>
		<circle class="st5" cx="37.3" cy="20.2" r="5.8"/>
		<path class="st1" d="M42.9,20.2c0.1-1.5-0.6-3-1.7-3.9c-1.1-1-2.6-1.4-3.9-1.3c-1.4,0-2.7,0.7-3.6,1.7c-0.9,1-1.4,2.3-1.4,3.6
			c0.1,1.3,0.6,2.6,1.6,3.4c0.9,0.9,2.1,1.3,3.4,1.4c1.2,0,2.6-0.2,3.7-1.1C42.1,23.2,42.9,21.7,42.9,20.2z M43.1,20.2
			c0,1.5-0.4,3.1-1.4,4.5c-0.5,0.7-1.2,1.2-1.9,1.6C39,26.8,38.1,27,37.3,27c-1.8,0.1-3.6-0.7-4.8-2c-1.2-1.3-1.9-3.1-1.8-4.8
			c0-1.7,0.8-3.4,2-4.6c1.2-1.2,2.9-1.8,4.6-1.7c1.6,0.1,3.2,0.8,4.2,2C42.5,17.2,43.1,18.7,43.1,20.2z"/>
	</g>
	<g>
		<pattern  id="SVGID_9_" xlink:href="#New_Pattern_Swatch_1" patternTransform="matrix(1 0 0 1 0 -2.5)">
		</pattern>
		<circle class="st6" cx="218.6" cy="235.8" r="5.8"/>
		<path class="st1" d="M224.3,235.8c0.1-1.5-0.6-3-1.7-3.9c-1.1-1-2.6-1.4-3.9-1.3c-1.4,0-2.7,0.7-3.6,1.7c-0.9,1-1.4,2.3-1.4,3.6
			c0.1,1.3,0.6,2.6,1.6,3.4c0.9,0.9,2.1,1.3,3.4,1.4c1.2,0,2.6-0.2,3.7-1.1C223.5,238.7,224.3,237.3,224.3,235.8z M224.5,235.8
			c0,1.5-0.4,3.1-1.4,4.5c-0.5,0.7-1.2,1.2-1.9,1.6c-0.8,0.4-1.6,0.6-2.5,0.7c-1.8,0.1-3.6-0.7-4.8-2c-1.2-1.3-1.9-3.1-1.8-4.8
			c0-1.7,0.8-3.4,2-4.6c1.2-1.2,2.9-1.8,4.6-1.7c1.6,0.1,3.2,0.8,4.2,2C223.9,232.7,224.5,234.2,224.5,235.8z"/>
	</g>
	<g>
		<pattern  id="SVGID_10_" xlink:href="#New_Pattern_Swatch_1" patternTransform="matrix(1 0 0 1 0 2.5)">
		</pattern>
		<rect x="156.7" y="17.6" class="st7" width="23.5" height="51.1"/>
		<path class="st1" d="M180.3,68.8L156.7,69c-0.2,0-0.3-0.2-0.4-0.3l0,0l0,0l-0.4-51.1c0-0.4,0.3-0.8,0.8-0.8l0,0
			c3.9-0.1,7.8-0.2,11.7-0.2c3.9,0,7.8-0.1,11.7-0.1l0,0c0.6,0,1,0.5,1,1.1l-0.1,13L181,43.4c-0.1,4.3-0.2,8.5-0.3,12.8
			C180.6,60.4,180.4,64.6,180.3,68.8z M180.2,68.6l-0.4-13c-0.1-4.3-0.2-8.6-0.3-12.8l-0.2-12.6l-0.1-12.6l1.1,1.1
			c-3.9,0-7.8,0-11.7-0.1c-3.9,0-7.8-0.1-11.7-0.2l0.8-0.8l-0.4,51.1l-0.4-0.4L180.2,68.6z"/>
	</g>
	<g>
		<path class="st1" d="M93,68.8l-23.5,0.5c-0.3,0-0.6-0.2-0.6-0.6l0,0l0,0l-0.4-25.6c0-4.3,0-8.5,0.2-12.8c0.2-4.3,0.4-8.5,0.7-12.8
			c0-0.1,0.1-0.1,0.1-0.1c0,0,0.1,0,0.1,0.1c0.4,4.3,0.6,8.5,0.7,12.8c0.1,4.3,0.2,8.5,0.2,12.8l-0.4,25.6l-0.6-0.6L93,68.6
			C93.1,68.6,93.1,68.6,93,68.8C93.1,68.7,93.1,68.8,93,68.8z"/>
	</g>
	<g>
		<pattern  id="SVGID_11_" xlink:href="#New_Pattern_Swatch_1" patternTransform="matrix(1 0 0 1 0 -2.5)">
		</pattern>
		<rect x="69.6" y="187.1" class="st8" width="116.9" height="14.5"/>
		<path class="st1" d="M186.8,202l-58.6,0.1l-29.3,0.1l-29.3,0.2c-0.4,0-0.7-0.3-0.7-0.7v0l0,0l-0.1-14.5c0-0.4,0.4-0.8,0.8-0.8l0,0
			c9.7-0.1,19.5-0.2,29.2-0.2c9.7-0.1,19.5,0,29.2,0c9.7,0,19.5,0.1,29.2,0.1l14.6,0.2l14.6,0.3c0.2,0,0.4,0.2,0.4,0.4
			C186.9,192.1,186.9,197.1,186.8,202z M186.1,201.3c-0.1-4.7-0.1-9.4,0-14.1l0.4,0.4l-14.6,0.3l-14.6,0.2c-9.7,0-19.5,0.2-29.2,0.1
			c-9.7,0-19.5,0-29.2,0c-9.7,0-19.5-0.1-29.2-0.2l0.8-0.8l-0.1,14.5l-0.7-0.7l29.1,0.2l29.1,0.1L186.1,201.3z"/>
	</g>
	<g>
		<path class="st1" d="M186.8,173.7l-58.6,0.1l-29.3,0.1l-29.3,0.2c-0.4,0-0.7-0.3-0.7-0.7v0l0,0l-0.1-14.5c0-0.4,0.4-0.8,0.8-0.8
			l0,0c9.7-0.1,19.5-0.2,29.2-0.2c9.7-0.1,19.5,0,29.2,0c9.7,0,19.5,0.1,29.2,0.1l14.6,0.2l14.6,0.3c0.2,0,0.4,0.2,0.4,0.4
			C186.9,163.8,186.9,168.8,186.8,173.7z M186.1,173c-0.1-4.7-0.1-9.4,0-14.1l0.4,0.4l-14.6,0.3l-14.6,0.2c-9.7,0-19.5,0.2-29.2,0.1
			c-9.7,0-19.5,0-29.2,0c-9.7,0-19.5-0.1-29.2-0.2l0.8-0.8l-0.1,14.5l-0.7-0.7l29.1,0.2l29.1,0.1L186.1,173z"/>
	</g>
	<g>
		<pattern  id="SVGID_12_" xlink:href="#New_Pattern_Swatch_1" patternTransform="matrix(1 0 0 1 0 -2.5)">
		</pattern>
		<rect x="69.6" y="215.5" class="st9" width="116.9" height="14.5"/>
		<path class="st1" d="M186.8,230.4l-58.7,0.1l-29.3,0.1l-29.3,0.2c-0.4,0-0.7-0.3-0.7-0.7v0l0,0l-0.1-14.5c0-0.4,0.4-0.8,0.8-0.8
			l0,0c9.7-0.1,19.5-0.2,29.2-0.2c9.7-0.1,19.5,0,29.2,0c9.7,0,19.5,0.1,29.2,0.1l14.6,0.2l14.6,0.3c0.2,0,0.4,0.2,0.4,0.4
			C186.9,220.4,186.9,225.4,186.8,230.4z M186.1,229.6c-0.1-4.7-0.1-9.4,0-14.1l0.4,0.4l-14.6,0.3l-14.6,0.2
			c-9.7,0-19.5,0.2-29.2,0.1c-9.7,0-19.5,0-29.2,0c-9.7,0-19.5-0.1-29.2-0.2l0.8-0.8L70.3,230l-0.7-0.7l29.1,0.2l29.1,0.1
			L186.1,229.6z"/>
	</g>
</g>
</svg>
