<?xml version="1.0" encoding="utf-8"?>
<!-- Generator: Adobe Illustrator 22.1.0, SVG Export Plug-In . SVG Version: 6.00 Build 0)  -->
<svg version="1.1" id="Layer_1" xmlns="http://www.w3.org/2000/svg" xmlns:xlink="http://www.w3.org/1999/xlink" x="0px" y="0px"
	 viewBox="0 0 256 256" style="enable-background:new 0 0 256 256;" xml:space="preserve">
<style type="text/css">
	.st0{fill:none;}
	.st1{fill:#253759;}
	.st2{clip-path:url(#SVGID_2_);fill:#253759;}
	.st3{clip-path:url(#SVGID_4_);fill:#253759;}
	.st4{fill:url(#New_Pattern_Swatch_1);}
</style>
<pattern  x="-552" width="42.9" height="43" patternUnits="userSpaceOnUse" id="New_Pattern_Swatch_1" viewBox="43 -43 42.9 43" style="overflow:visible;">
	<g>
		<rect x="43" y="-43" class="st0" width="42.9" height="43"/>
		<g>
			<g>
				<circle class="st1" cx="85.9" cy="-41.2" r="0.6"/>
				<circle class="st1" cx="85.9" cy="-37.6" r="0.6"/>
				<circle class="st1" cx="85.9" cy="-34" r="0.6"/>
				<circle class="st1" cx="85.9" cy="-30.4" r="0.6"/>
				<circle class="st1" cx="85.9" cy="-26.9" r="0.6"/>
				<circle class="st1" cx="85.9" cy="-23.3" r="0.6"/>
				<circle class="st1" cx="85.9" cy="-19.7" r="0.6"/>
				<circle class="st1" cx="85.9" cy="-16.1" r="0.6"/>
				<circle class="st1" cx="85.9" cy="-12.6" r="0.6"/>
				<circle class="st1" cx="85.9" cy="-9" r="0.6"/>
				<circle class="st1" cx="85.9" cy="-5.4" r="0.6"/>
				<circle class="st1" cx="85.9" cy="-1.8" r="0.6"/>
				<circle class="st1" cx="85.8" cy="-41.2" r="0.6"/>
				<circle class="st1" cx="85.8" cy="-37.6" r="0.6"/>
				<circle class="st1" cx="85.8" cy="-34" r="0.6"/>
				<circle class="st1" cx="85.8" cy="-30.4" r="0.6"/>
				<circle class="st1" cx="85.8" cy="-26.9" r="0.6"/>
				<circle class="st1" cx="85.8" cy="-23.3" r="0.6"/>
				<circle class="st1" cx="85.8" cy="-19.7" r="0.6"/>
				<circle class="st1" cx="85.8" cy="-16.1" r="0.6"/>
				<circle class="st1" cx="85.8" cy="-12.6" r="0.6"/>
				<circle class="st1" cx="85.8" cy="-9" r="0.6"/>
				<circle class="st1" cx="85.8" cy="-5.4" r="0.6"/>
				<circle class="st1" cx="85.8" cy="-1.8" r="0.6"/>
			</g>
			<g>
				<defs>
					<rect id="SVGID_1_" x="85.8" y="-43" width="43" height="43"/>
				</defs>
				<clipPath id="SVGID_2_">
					<use xlink:href="#SVGID_1_"  style="overflow:visible;"/>
				</clipPath>
				<circle class="st2" cx="85.8" cy="-41.2" r="0.6"/>
				<circle class="st2" cx="85.8" cy="-37.6" r="0.6"/>
				<circle class="st2" cx="85.8" cy="-34" r="0.6"/>
				<circle class="st2" cx="85.8" cy="-30.4" r="0.6"/>
				<circle class="st2" cx="85.8" cy="-26.9" r="0.6"/>
				<circle class="st2" cx="85.8" cy="-23.3" r="0.6"/>
				<circle class="st2" cx="85.8" cy="-19.7" r="0.6"/>
				<circle class="st2" cx="85.8" cy="-16.1" r="0.6"/>
				<circle class="st2" cx="85.8" cy="-12.6" r="0.6"/>
				<circle class="st2" cx="85.8" cy="-9" r="0.6"/>
				<circle class="st2" cx="85.8" cy="-5.4" r="0.6"/>
				<circle class="st2" cx="85.8" cy="-1.8" r="0.6"/>
				<circle class="st2" cx="85.7" cy="-41.2" r="0.6"/>
				<circle class="st2" cx="85.7" cy="-37.6" r="0.6"/>
				<circle class="st2" cx="85.7" cy="-34" r="0.6"/>
				<circle class="st2" cx="85.7" cy="-30.4" r="0.6"/>
				<circle class="st2" cx="85.7" cy="-26.9" r="0.6"/>
				<circle class="st2" cx="85.7" cy="-23.3" r="0.6"/>
				<circle class="st2" cx="85.7" cy="-19.7" r="0.6"/>
				<circle class="st2" cx="85.7" cy="-16.1" r="0.6"/>
				<circle class="st2" cx="85.7" cy="-12.6" r="0.6"/>
				<circle class="st2" cx="85.7" cy="-9" r="0.6"/>
				<circle class="st2" cx="85.7" cy="-5.4" r="0.6"/>
				<circle class="st2" cx="85.7" cy="-1.8" r="0.6"/>
			</g>
		</g>
		<g>
			<g>
				<circle class="st1" cx="85.9" cy="-41.2" r="0.6"/>
				<circle class="st1" cx="85.9" cy="-37.6" r="0.6"/>
				<circle class="st1" cx="85.9" cy="-34" r="0.6"/>
				<circle class="st1" cx="85.9" cy="-30.4" r="0.6"/>
				<circle class="st1" cx="85.9" cy="-26.9" r="0.6"/>
				<circle class="st1" cx="85.9" cy="-23.3" r="0.6"/>
				<circle class="st1" cx="85.9" cy="-19.7" r="0.6"/>
				<circle class="st1" cx="85.9" cy="-16.1" r="0.6"/>
				<circle class="st1" cx="85.9" cy="-12.6" r="0.6"/>
				<circle class="st1" cx="85.9" cy="-9" r="0.6"/>
				<circle class="st1" cx="85.9" cy="-5.4" r="0.6"/>
				<circle class="st1" cx="85.9" cy="-1.8" r="0.6"/>
				<circle class="st1" cx="43" cy="-41.2" r="0.6"/>
				<circle class="st1" cx="46.5" cy="-41.2" r="0.6"/>
				<circle class="st1" cx="50.1" cy="-41.2" r="0.6"/>
				<circle class="st1" cx="53.7" cy="-41.2" r="0.6"/>
				<circle class="st1" cx="43" cy="-37.6" r="0.6"/>
				<circle class="st1" cx="46.5" cy="-37.6" r="0.6"/>
				<circle class="st1" cx="50.1" cy="-37.6" r="0.6"/>
				<circle class="st1" cx="53.7" cy="-37.6" r="0.6"/>
				<circle class="st1" cx="43" cy="-34" r="0.6"/>
				<circle class="st1" cx="46.5" cy="-34" r="0.6"/>
				<circle class="st1" cx="50.1" cy="-34" r="0.6"/>
				<circle class="st1" cx="53.7" cy="-34" r="0.6"/>
				<circle class="st1" cx="43" cy="-30.4" r="0.6"/>
				<circle class="st1" cx="46.5" cy="-30.4" r="0.6"/>
				<circle class="st1" cx="50.1" cy="-30.4" r="0.6"/>
				<circle class="st1" cx="53.7" cy="-30.4" r="0.6"/>
				<circle class="st1" cx="43" cy="-26.9" r="0.6"/>
				<circle class="st1" cx="46.5" cy="-26.9" r="0.6"/>
				<circle class="st1" cx="50.1" cy="-26.9" r="0.6"/>
				<circle class="st1" cx="53.7" cy="-26.9" r="0.6"/>
				<circle class="st1" cx="43" cy="-23.3" r="0.6"/>
				<circle class="st1" cx="46.5" cy="-23.3" r="0.6"/>
				<circle class="st1" cx="50.1" cy="-23.3" r="0.6"/>
				<circle class="st1" cx="53.7" cy="-23.3" r="0.6"/>
				<circle class="st1" cx="57.3" cy="-41.2" r="0.6"/>
				<circle class="st1" cx="60.8" cy="-41.2" r="0.6"/>
				<circle class="st1" cx="64.4" cy="-41.2" r="0.6"/>
				<circle class="st1" cx="68" cy="-41.2" r="0.6"/>
				<circle class="st1" cx="71.5" cy="-41.2" r="0.6"/>
				<circle class="st1" cx="57.3" cy="-37.6" r="0.6"/>
				<circle class="st1" cx="60.8" cy="-37.6" r="0.6"/>
				<circle class="st1" cx="64.4" cy="-37.6" r="0.6"/>
				<circle class="st1" cx="68" cy="-37.6" r="0.6"/>
				<circle class="st1" cx="71.5" cy="-37.6" r="0.6"/>
				<circle class="st1" cx="57.3" cy="-34" r="0.6"/>
				<circle class="st1" cx="60.8" cy="-34" r="0.6"/>
				<circle class="st1" cx="64.4" cy="-34" r="0.6"/>
				<circle class="st1" cx="68" cy="-34" r="0.6"/>
				<circle class="st1" cx="71.5" cy="-34" r="0.6"/>
				<circle class="st1" cx="57.3" cy="-30.4" r="0.6"/>
				<circle class="st1" cx="60.8" cy="-30.4" r="0.6"/>
				<circle class="st1" cx="64.4" cy="-30.4" r="0.6"/>
				<circle class="st1" cx="68" cy="-30.4" r="0.6"/>
				<circle class="st1" cx="71.5" cy="-30.4" r="0.6"/>
				<circle class="st1" cx="57.3" cy="-26.9" r="0.6"/>
				<circle class="st1" cx="60.8" cy="-26.9" r="0.6"/>
				<circle class="st1" cx="64.4" cy="-26.9" r="0.6"/>
				<circle class="st1" cx="68" cy="-26.9" r="0.6"/>
				<circle class="st1" cx="71.5" cy="-26.9" r="0.6"/>
				<circle class="st1" cx="57.3" cy="-23.3" r="0.6"/>
				<circle class="st1" cx="60.8" cy="-23.3" r="0.6"/>
				<circle class="st1" cx="64.4" cy="-23.3" r="0.6"/>
				<circle class="st1" cx="68" cy="-23.3" r="0.6"/>
				<circle class="st1" cx="71.5" cy="-23.3" r="0.6"/>
				<circle class="st1" cx="75.1" cy="-41.2" r="0.6"/>
				<circle class="st1" cx="78.7" cy="-41.2" r="0.6"/>
				<circle class="st1" cx="82.3" cy="-41.2" r="0.6"/>
				<circle class="st1" cx="85.8" cy="-41.2" r="0.6"/>
				<circle class="st1" cx="75.1" cy="-37.6" r="0.6"/>
				<circle class="st1" cx="78.7" cy="-37.6" r="0.6"/>
				<circle class="st1" cx="82.3" cy="-37.6" r="0.6"/>
				<circle class="st1" cx="85.8" cy="-37.6" r="0.6"/>
				<circle class="st1" cx="75.1" cy="-34" r="0.6"/>
				<circle class="st1" cx="78.7" cy="-34" r="0.6"/>
				<circle class="st1" cx="82.3" cy="-34" r="0.6"/>
				<circle class="st1" cx="85.8" cy="-34" r="0.6"/>
				<circle class="st1" cx="75.1" cy="-30.4" r="0.6"/>
				<circle class="st1" cx="78.7" cy="-30.4" r="0.6"/>
				<circle class="st1" cx="82.3" cy="-30.4" r="0.6"/>
				<circle class="st1" cx="85.8" cy="-30.4" r="0.6"/>
				<circle class="st1" cx="75.1" cy="-26.9" r="0.6"/>
				<circle class="st1" cx="78.7" cy="-26.9" r="0.6"/>
				<circle class="st1" cx="82.3" cy="-26.9" r="0.6"/>
				<circle class="st1" cx="85.8" cy="-26.9" r="0.6"/>
				<circle class="st1" cx="75.1" cy="-23.3" r="0.6"/>
				<circle class="st1" cx="78.7" cy="-23.3" r="0.6"/>
				<circle class="st1" cx="82.3" cy="-23.3" r="0.6"/>
				<circle class="st1" cx="85.8" cy="-23.3" r="0.6"/>
				<circle class="st1" cx="43" cy="-19.7" r="0.6"/>
				<circle class="st1" cx="46.5" cy="-19.7" r="0.6"/>
				<circle class="st1" cx="50.1" cy="-19.7" r="0.6"/>
				<circle class="st1" cx="53.7" cy="-19.7" r="0.6"/>
				<circle class="st1" cx="43" cy="-16.1" r="0.6"/>
				<circle class="st1" cx="46.5" cy="-16.1" r="0.6"/>
				<circle class="st1" cx="50.1" cy="-16.1" r="0.6"/>
				<circle class="st1" cx="53.7" cy="-16.1" r="0.6"/>
				<circle class="st1" cx="43" cy="-12.6" r="0.6"/>
				<circle class="st1" cx="46.5" cy="-12.6" r="0.6"/>
				<circle class="st1" cx="50.1" cy="-12.6" r="0.6"/>
				<circle class="st1" cx="53.7" cy="-12.6" r="0.6"/>
				<circle class="st1" cx="43" cy="-9" r="0.6"/>
				<circle class="st1" cx="46.5" cy="-9" r="0.6"/>
				<circle class="st1" cx="50.1" cy="-9" r="0.6"/>
				<circle class="st1" cx="53.7" cy="-9" r="0.6"/>
				<circle class="st1" cx="43" cy="-5.4" r="0.6"/>
				<circle class="st1" cx="46.5" cy="-5.4" r="0.6"/>
				<circle class="st1" cx="50.1" cy="-5.4" r="0.6"/>
				<circle class="st1" cx="53.7" cy="-5.4" r="0.6"/>
				<circle class="st1" cx="43" cy="-1.8" r="0.6"/>
				<circle class="st1" cx="46.5" cy="-1.8" r="0.6"/>
				<circle class="st1" cx="50.1" cy="-1.8" r="0.6"/>
				<circle class="st1" cx="53.7" cy="-1.8" r="0.6"/>
				<circle class="st1" cx="57.3" cy="-19.7" r="0.6"/>
				<circle class="st1" cx="60.8" cy="-19.7" r="0.6"/>
				<circle class="st1" cx="64.4" cy="-19.7" r="0.6"/>
				<circle class="st1" cx="68" cy="-19.7" r="0.6"/>
				<circle class="st1" cx="71.5" cy="-19.7" r="0.6"/>
				<circle class="st1" cx="57.3" cy="-16.1" r="0.6"/>
				<circle class="st1" cx="60.8" cy="-16.1" r="0.6"/>
				<circle class="st1" cx="64.4" cy="-16.1" r="0.6"/>
				<circle class="st1" cx="68" cy="-16.1" r="0.6"/>
				<circle class="st1" cx="71.5" cy="-16.1" r="0.6"/>
				<circle class="st1" cx="57.3" cy="-12.6" r="0.6"/>
				<circle class="st1" cx="60.8" cy="-12.6" r="0.6"/>
				<circle class="st1" cx="64.4" cy="-12.6" r="0.6"/>
				<circle class="st1" cx="68" cy="-12.6" r="0.6"/>
				<circle class="st1" cx="71.5" cy="-12.6" r="0.6"/>
				<circle class="st1" cx="57.3" cy="-9" r="0.6"/>
				<circle class="st1" cx="60.8" cy="-9" r="0.6"/>
				<circle class="st1" cx="64.4" cy="-9" r="0.6"/>
				<circle class="st1" cx="68" cy="-9" r="0.6"/>
				<circle class="st1" cx="71.5" cy="-9" r="0.6"/>
				<circle class="st1" cx="57.3" cy="-5.4" r="0.6"/>
				<circle class="st1" cx="60.8" cy="-5.4" r="0.6"/>
				<circle class="st1" cx="64.4" cy="-5.4" r="0.6"/>
				<circle class="st1" cx="68" cy="-5.4" r="0.6"/>
				<circle class="st1" cx="71.5" cy="-5.4" r="0.6"/>
				<circle class="st1" cx="57.3" cy="-1.8" r="0.6"/>
				<circle class="st1" cx="60.8" cy="-1.8" r="0.6"/>
				<circle class="st1" cx="64.4" cy="-1.8" r="0.6"/>
				<circle class="st1" cx="68" cy="-1.8" r="0.6"/>
				<circle class="st1" cx="71.5" cy="-1.8" r="0.6"/>
				<circle class="st1" cx="75.1" cy="-19.7" r="0.6"/>
				<circle class="st1" cx="78.7" cy="-19.7" r="0.6"/>
				<circle class="st1" cx="82.3" cy="-19.7" r="0.6"/>
				<circle class="st1" cx="85.8" cy="-19.7" r="0.6"/>
				<circle class="st1" cx="75.1" cy="-16.1" r="0.6"/>
				<circle class="st1" cx="78.7" cy="-16.1" r="0.6"/>
				<circle class="st1" cx="82.3" cy="-16.1" r="0.6"/>
				<circle class="st1" cx="85.8" cy="-16.1" r="0.6"/>
				<circle class="st1" cx="75.1" cy="-12.6" r="0.6"/>
				<circle class="st1" cx="78.7" cy="-12.6" r="0.6"/>
				<circle class="st1" cx="82.3" cy="-12.6" r="0.6"/>
				<circle class="st1" cx="85.8" cy="-12.6" r="0.6"/>
				<circle class="st1" cx="75.1" cy="-9" r="0.6"/>
				<circle class="st1" cx="78.7" cy="-9" r="0.6"/>
				<circle class="st1" cx="82.3" cy="-9" r="0.6"/>
				<circle class="st1" cx="85.8" cy="-9" r="0.6"/>
				<circle class="st1" cx="75.1" cy="-5.4" r="0.6"/>
				<circle class="st1" cx="78.7" cy="-5.4" r="0.6"/>
				<circle class="st1" cx="82.3" cy="-5.4" r="0.6"/>
				<circle class="st1" cx="85.8" cy="-5.4" r="0.6"/>
				<circle class="st1" cx="75.1" cy="-1.8" r="0.6"/>
				<circle class="st1" cx="78.7" cy="-1.8" r="0.6"/>
				<circle class="st1" cx="82.3" cy="-1.8" r="0.6"/>
				<circle class="st1" cx="85.8" cy="-1.8" r="0.6"/>
				<circle class="st1" cx="42.9" cy="-41.2" r="0.6"/>
				<circle class="st1" cx="42.9" cy="-37.6" r="0.6"/>
				<circle class="st1" cx="42.9" cy="-34" r="0.6"/>
				<circle class="st1" cx="42.9" cy="-30.4" r="0.6"/>
				<circle class="st1" cx="42.9" cy="-26.9" r="0.6"/>
				<circle class="st1" cx="42.9" cy="-23.3" r="0.6"/>
				<circle class="st1" cx="42.9" cy="-19.7" r="0.6"/>
				<circle class="st1" cx="42.9" cy="-16.1" r="0.6"/>
				<circle class="st1" cx="42.9" cy="-12.6" r="0.6"/>
				<circle class="st1" cx="42.9" cy="-9" r="0.6"/>
				<circle class="st1" cx="42.9" cy="-5.4" r="0.6"/>
				<circle class="st1" cx="42.9" cy="-1.8" r="0.6"/>
			</g>
			<g>
				<defs>
					<rect id="SVGID_3_" x="42.9" y="-43" width="43" height="43"/>
				</defs>
				<clipPath id="SVGID_4_">
					<use xlink:href="#SVGID_3_"  style="overflow:visible;"/>
				</clipPath>
				<circle class="st3" cx="42.9" cy="-41.2" r="0.6"/>
				<circle class="st3" cx="42.9" cy="-37.6" r="0.6"/>
				<circle class="st3" cx="42.9" cy="-34" r="0.6"/>
				<circle class="st3" cx="42.9" cy="-30.4" r="0.6"/>
				<circle class="st3" cx="42.9" cy="-26.9" r="0.6"/>
				<circle class="st3" cx="42.9" cy="-23.3" r="0.6"/>
				<circle class="st3" cx="42.9" cy="-19.7" r="0.6"/>
				<circle class="st3" cx="42.9" cy="-16.1" r="0.6"/>
				<circle class="st3" cx="42.9" cy="-12.6" r="0.6"/>
				<circle class="st3" cx="42.9" cy="-9" r="0.6"/>
				<circle class="st3" cx="42.9" cy="-5.4" r="0.6"/>
				<circle class="st3" cx="42.9" cy="-1.8" r="0.6"/>
				<circle class="st3" cx="42.8" cy="-41.2" r="0.6"/>
				<circle class="st3" cx="42.8" cy="-37.6" r="0.6"/>
				<circle class="st3" cx="42.8" cy="-34" r="0.6"/>
				<circle class="st3" cx="42.8" cy="-30.4" r="0.6"/>
				<circle class="st3" cx="42.8" cy="-26.9" r="0.6"/>
				<circle class="st3" cx="42.8" cy="-23.3" r="0.6"/>
				<circle class="st3" cx="42.8" cy="-19.7" r="0.6"/>
				<circle class="st3" cx="42.8" cy="-16.1" r="0.6"/>
				<circle class="st3" cx="42.8" cy="-12.6" r="0.6"/>
				<circle class="st3" cx="42.8" cy="-9" r="0.6"/>
				<circle class="st3" cx="42.8" cy="-5.4" r="0.6"/>
				<circle class="st3" cx="42.8" cy="-1.8" r="0.6"/>
			</g>
		</g>
		<g>
			<g>
				<circle class="st1" cx="43" cy="-41.2" r="0.6"/>
				<circle class="st1" cx="43" cy="-37.6" r="0.6"/>
				<circle class="st1" cx="43" cy="-34" r="0.6"/>
				<circle class="st1" cx="43" cy="-30.4" r="0.6"/>
				<circle class="st1" cx="43" cy="-26.9" r="0.6"/>
				<circle class="st1" cx="43" cy="-23.3" r="0.6"/>
				<circle class="st1" cx="43" cy="-19.7" r="0.6"/>
				<circle class="st1" cx="43" cy="-16.1" r="0.6"/>
				<circle class="st1" cx="43" cy="-12.6" r="0.6"/>
				<circle class="st1" cx="43" cy="-9" r="0.6"/>
				<circle class="st1" cx="43" cy="-5.4" r="0.6"/>
				<circle class="st1" cx="43" cy="-1.8" r="0.6"/>
				<circle class="st1" cx="42.9" cy="-41.2" r="0.6"/>
				<circle class="st1" cx="42.9" cy="-37.6" r="0.6"/>
				<circle class="st1" cx="42.9" cy="-34" r="0.6"/>
				<circle class="st1" cx="42.9" cy="-30.4" r="0.6"/>
				<circle class="st1" cx="42.9" cy="-26.9" r="0.6"/>
				<circle class="st1" cx="42.9" cy="-23.3" r="0.6"/>
				<circle class="st1" cx="42.9" cy="-19.7" r="0.6"/>
				<circle class="st1" cx="42.9" cy="-16.1" r="0.6"/>
				<circle class="st1" cx="42.9" cy="-12.6" r="0.6"/>
				<circle class="st1" cx="42.9" cy="-9" r="0.6"/>
				<circle class="st1" cx="42.9" cy="-5.4" r="0.6"/>
				<circle class="st1" cx="42.9" cy="-1.8" r="0.6"/>
			</g>
			<g>
				<defs>
					<rect id="SVGID_5_" y="-43" width="43" height="43"/>
				</defs>
				<clipPath id="SVGID_6_">
					<use xlink:href="#SVGID_5_"  style="overflow:visible;"/>
				</clipPath>
			</g>
		</g>
	</g>
</pattern>
<g>
	<g>
		<path class="st1" d="M219.4,251.4c-34.2-0.1-68.5,0.2-102.7,0.4l-51.4,0.2L39.6,252c-1.1,0-2.1,0-3.2,0c-1.2,0-2.4-0.4-3.4-1
			c-2.1-1.2-3.5-3.4-3.7-5.8c0-0.6,0-1.1,0-1.7l0-0.8c0-0.3,0-0.6,0.1-0.9c0.1-1.2,0.6-2.3,1.2-3.3c0.7-1,1.6-1.8,2.7-2.4
			c1.1-0.6,2.3-0.9,3.5-0.9l51.4-0.2l51.4,0l25.7,0.2l25.7,0.3l25.7,0.3c1.1,0,2.1,0,3.2,0c1.1,0.1,2.2,0.4,3.2,0.9
			c1.9,1.1,3.2,3.2,3.4,5.4c0,0.6,0,1.1,0,1.6c0,0.5,0,1.1-0.1,1.6c-0.1,1.1-0.5,2.1-1.2,3c-0.6,0.9-1.5,1.6-2.4,2.1
			C221.5,251.1,220.5,251.4,219.4,251.4z M219.4,251.2c2.1,0,4.2-1.1,5.3-2.9c0.6-0.9,1-1.9,1.1-2.9c0.1-0.5,0-1,0-1.6
			c0-0.5,0-1.1,0-1.6c-0.2-2.1-1.4-4-3.2-5c-0.9-0.5-1.9-0.8-3-0.8c-1.1,0-2.1,0-3.2,0l-25.7,0.3L165,237l-25.7,0.2l-51.4,0
			l-51.4-0.2c-1.9,0-3.7,1-4.8,2.5c-0.5,0.8-0.9,1.7-1,2.6c0,0.2,0,0.5,0,0.7l0,0.8c0,0.5,0,1.1,0,1.5c0.1,1.9,1.3,3.7,2.9,4.6
			c0.8,0.5,1.8,0.7,2.7,0.8c1,0,2.1,0,3.2,0l25.7,0.1l51.4,0.1C150.9,251,185.1,251.3,219.4,251.2z"/>
	</g>
	<g>
		<rect x="74.6" y="156.9" class="st4" width="15.2" height="10.3"/>
		<path class="st1" d="M90.3,167.6l-7.8,0.1l-3.9,0c-1.3,0-2.6,0-3.9,0.1c-0.3,0-0.5-0.2-0.6-0.5l0,0l0,0l-0.2-10.3
			c0-0.4,0.3-0.8,0.8-0.8l0,0c2.5-0.1,5.1-0.1,7.6-0.1l3.8,0c1.3,0,2.5,0,3.8,0.1l0.1,0c0.5,0,0.8,0.4,0.8,0.9
			C90.6,160.5,90.4,164.2,90.3,167.6z M89.3,166.7c-0.2-3.4-0.4-6.6-0.5-9.8l0.9,0.9c-1.3,0.1-2.5,0.1-3.8,0.1l-3.8,0
			c-2.5,0-5.1-0.1-7.6-0.1l0.8-0.8l-0.2,10.3l-0.6-0.6c1.2,0.1,2.5,0.1,3.7,0.1l3.7,0L89.3,166.7z"/>
	</g>
	<g>
		<rect x="74.6" y="138.3" class="st4" width="106.7" height="10.6"/>
		<path class="st1" d="M181.4,148.9l-106.8,0.7c-0.4,0-0.7-0.3-0.7-0.7v0l0,0l-0.1-10.6c0-0.4,0.3-0.8,0.8-0.8l0,0
			c8.9-0.2,17.8-0.2,26.7-0.2c8.9-0.1,17.8,0,26.7,0c8.9,0,17.8,0.1,26.7,0.2c8.9,0.1,17.8,0.2,26.7,0.4l0,0c0.2,0,0.3,0.2,0.3,0.4
			v0L181.4,148.9z M181.3,148.8l-0.3-10.5l0.4,0.4c-8.9,0.2-17.8,0.3-26.7,0.4c-8.9,0.1-17.8,0.2-26.7,0.2c-8.9,0-17.8,0.1-26.7,0
			c-8.9,0-17.8-0.1-26.7-0.2l0.8-0.8l-0.1,10.6l-0.7-0.7L181.3,148.8z"/>
	</g>
	<g>
		<path class="st1" d="M181.4,101.7l-106.8,0.7c-0.4,0-0.7-0.3-0.7-0.7v0l0,0l-0.1-10.6c0-0.4,0.3-0.8,0.8-0.8l0,0
			c8.9-0.2,17.8-0.2,26.7-0.2c8.9-0.1,17.8,0,26.7,0c8.9,0,17.8,0.1,26.7,0.2c8.9,0.1,17.8,0.2,26.7,0.4l0,0c0.2,0,0.3,0.2,0.3,0.4
			v0L181.4,101.7z M181.3,101.6L181,91.1l0.4,0.4c-8.9,0.2-17.8,0.3-26.7,0.4c-8.9,0.1-17.8,0.2-26.7,0.2c-8.9,0-17.8,0.1-26.7,0
			c-8.9,0-17.8-0.1-26.7-0.2l0.8-0.8l-0.1,10.6l-0.7-0.7L181.3,101.6z"/>
	</g>
	<g>
		<path class="st4" d="M182.7,116.2H73.3c-3.5,0-6.4-2.9-6.4-6.4V108c0-3.5,2.9-6.4,6.4-6.4h109.4c3.5,0,6.4,2.9,6.4,6.4v1.8
			C189.1,113.4,186.2,116.2,182.7,116.2z"/>
		<path class="st1" d="M182.7,116.8l-65.6-0.1l-32.8,0.1l-8.2,0l-2.1,0c-0.7,0-1.4,0-2.2-0.1c-1.5-0.3-2.9-1.1-3.9-2.3
			c-1-1.1-1.6-2.6-1.7-4.1c-0.1-0.8,0-1.4,0-2.1c0-0.7,0-1.5,0.3-2.2c0.8-3,3.7-5.2,6.8-5.2l32.8-0.2l32.8,0l32.8,0.2l8.2,0.1l2.1,0
			c0.6,0,1.5,0,2.2,0.2c1.5,0.3,2.9,1.1,3.8,2.3c1,1.1,1.6,2.6,1.7,4.1c0,0.8,0,1.4,0,2.1c0,0.7-0.1,1.5-0.3,2.2
			C188.6,114.8,185.7,116.9,182.7,116.8z M182.7,115.7c2.5,0,4.9-1.8,5.5-4.2c0.2-0.6,0.2-1.2,0.2-1.8c0-0.7,0-1.4,0-2
			c-0.1-1.2-0.6-2.4-1.4-3.3c-0.8-0.9-1.9-1.5-3.1-1.8c-0.6-0.1-1.2-0.1-1.9-0.1l-2.1,0l-8.2,0.1l-32.8,0.2l-32.8,0l-32.8-0.2
			c-2.4,0-4.7,1.7-5.4,4c-0.2,0.6-0.2,1.2-0.2,1.8c0,0.7,0,1.4,0,2c0.1,1.2,0.6,2.4,1.3,3.3c0.8,0.9,1.9,1.6,3.1,1.8
			c0.6,0.1,1.2,0.1,1.9,0.1l2.1,0l8.2,0l32.8,0.1L182.7,115.7z"/>
	</g>
	<g>
		<path class="st4" d="M182.7,91.1H73.3c-3.5,0-6.4-2.9-6.4-6.4v-1.8c0-3.5,2.9-6.4,6.4-6.4h109.4c3.5,0,6.4,2.9,6.4,6.4v1.8
			C189.1,88.2,186.2,91.1,182.7,91.1z"/>
		<path class="st1" d="M182.7,91.4l-32.8,0l-32.8,0.1l-32.8,0.2l-8.2,0l-2.1,0c-0.7,0-1.4,0-2.2-0.2c-1.5-0.3-2.9-1.1-3.9-2.3
			c-1-1.1-1.6-2.6-1.7-4.1c-0.1-0.8,0-1.4,0-2.1c0-0.7,0-1.5,0.3-2.2c0.8-3,3.7-5.2,6.9-5.2l32.8-0.2l32.8,0l16.4,0.1l16.4,0.2
			l8.2,0.1l2.1,0c0.7,0,1.4,0,2.2,0.2c1.4,0.3,2.8,1.1,3.7,2.3c1,1.1,1.5,2.5,1.6,4c0,0.7,0,1.4,0,2.1c0,0.7-0.1,1.5-0.3,2.1
			C188.4,89.4,185.6,91.5,182.7,91.4z M182.7,90.7c2.6,0,5.1-1.9,5.7-4.3c0.2-0.6,0.2-1.2,0.2-1.9c0-0.7,0-1.4,0-2
			c-0.1-1.3-0.6-2.5-1.5-3.4c-0.8-1-2-1.6-3.2-1.9c-0.6-0.1-1.2-0.1-1.9-0.1l-2.1,0l-8.2,0.1l-16.4,0.2l-16.4,0.1l-32.8,0l-32.8-0.2
			c-2.4,0-4.7,1.7-5.4,4c-0.2,0.6-0.2,1.2-0.2,1.8c0,0.7,0,1.4,0,2c0.1,1.2,0.6,2.4,1.3,3.3c0.8,0.9,1.9,1.6,3.1,1.8
			c0.6,0.1,1.2,0.1,1.9,0.1l2.1,0l8.2,0l32.8,0.2l32.8,0.1L182.7,90.7z"/>
	</g>
	<g>
		<path class="st1" d="M181.4,76.5L74.6,77.2c-0.4,0-0.7-0.3-0.7-0.7v0l0,0l-0.1-10.6c0-0.4,0.3-0.8,0.8-0.8l0,0
			c8.9-0.2,17.8-0.2,26.7-0.2c8.9-0.1,17.8,0,26.7,0c8.9,0,17.8,0.1,26.7,0.2c8.9,0.1,17.8,0.2,26.7,0.4l0,0c0.2,0,0.3,0.2,0.3,0.4
			v0L181.4,76.5z M181.3,76.4L181,65.9l0.4,0.4c-8.9,0.2-17.8,0.3-26.7,0.4c-8.9,0.1-17.8,0.2-26.7,0.2c-8.9,0-17.8,0.1-26.7,0
			c-8.9,0-17.8-0.1-26.7-0.2l0.8-0.8l-0.1,10.6l-0.7-0.7L181.3,76.4z"/>
	</g>
	<g>
		<path class="st4" d="M182.7,65.9H73.3c-3.5,0-6.4-2.9-6.4-6.4v-1.8c0-3.5,2.9-6.4,6.4-6.4h109.4c3.5,0,6.4,2.9,6.4,6.4v1.8
			C189.1,63,186.2,65.9,182.7,65.9z"/>
		<path class="st1" d="M182.7,66.3l-32.8,0l-32.8,0.1l-32.8,0.1l-8.2,0l-2.1,0c-0.7,0-1.4,0-2.2-0.2c-1.5-0.3-2.9-1.1-3.9-2.3
			c-1-1.1-1.6-2.6-1.7-4.1c-0.1-0.8,0-1.4,0-2.1c0-0.7,0-1.5,0.3-2.2c0.8-3,3.7-5.2,6.9-5.2l32.8-0.2l32.8,0l16.4,0.1l16.4,0.2
			l8.2,0.1l2.1,0c0.7,0,1.4,0,2.2,0.2c1.4,0.3,2.8,1.1,3.7,2.3c1,1.1,1.5,2.5,1.6,4c0,0.7,0,1.4,0,2.1c0,0.7-0.1,1.5-0.3,2.1
			C188.4,64.2,185.6,66.3,182.7,66.3z M182.7,65.5c2.6,0,5-1.9,5.7-4.3c0.2-0.6,0.2-1.2,0.2-1.9c0-0.7,0-1.4,0-2
			c-0.1-1.3-0.6-2.5-1.5-3.4c-0.8-1-2-1.6-3.2-1.9c-0.6-0.1-1.2-0.1-1.9-0.1l-2.1,0l-8.2,0.1l-16.4,0.2l-16.4,0.1l-32.8,0l-32.8-0.2
			c-2.4,0-4.7,1.7-5.4,4c-0.2,0.6-0.2,1.2-0.2,1.8c0,0.7,0,1.4,0,2c0.1,1.2,0.6,2.4,1.3,3.3c0.8,0.9,1.9,1.6,3.1,1.8
			c0.6,0.1,1.2,0.1,1.9,0.1l2.1,0l8.2,0l32.8,0.2l32.8,0.1L182.7,65.5z"/>
	</g>
	<g>
		<path class="st1" d="M181.4,51.4L74.6,52c-0.4,0-0.7-0.3-0.7-0.7v0l0,0l-0.1-10.6c0-0.4,0.3-0.8,0.8-0.8l0,0
			c8.9-0.2,17.8-0.2,26.7-0.2c8.9-0.1,17.8,0,26.7,0c8.9,0,17.8,0.1,26.7,0.2c8.9,0.1,17.8,0.2,26.7,0.4l0,0c0.2,0,0.3,0.2,0.3,0.4
			v0L181.4,51.4z M181.3,51.2L181,40.7l0.4,0.4c-8.9,0.2-17.8,0.3-26.7,0.4c-8.9,0.1-17.8,0.2-26.7,0.2c-8.9,0-17.8,0.1-26.7,0
			c-8.9,0-17.8-0.1-26.7-0.2l0.8-0.8l-0.1,10.6l-0.7-0.7L181.3,51.2z"/>
	</g>
	<g>
		<path class="st4" d="M182.7,40.7H73.3c-3.5,0-6.4-2.9-6.4-6.4v-1.8c0-3.5,2.9-6.4,6.4-6.4h109.4c3.5,0,6.4,2.9,6.4,6.4v1.8
			C189.1,37.8,186.2,40.7,182.7,40.7z"/>
		<path class="st1" d="M182.7,41.1l-32.8,0l-32.8,0.1l-32.8,0.2l-8.2,0l-2.1,0c-0.7,0-1.4,0-2.2-0.2c-1.5-0.3-2.9-1.1-3.9-2.3
			c-1-1.1-1.6-2.6-1.7-4.1c-0.1-0.8,0-1.4,0-2.1c0-0.7,0-1.5,0.3-2.2c0.8-3,3.7-5.2,6.9-5.2l32.8-0.2l32.8,0l16.4,0.1l16.4,0.2
			l8.2,0.1l2.1,0c0.7,0,1.4,0,2.2,0.2c1.4,0.3,2.8,1.1,3.7,2.3c1,1.1,1.6,2.5,1.6,4c0,0.7,0,1.4,0,2.1c0,0.7-0.1,1.5-0.3,2.2
			C188.5,39.1,185.6,41.1,182.7,41.1z M182.7,40.3c2.6,0,5-1.9,5.7-4.3c0.2-0.6,0.2-1.2,0.2-1.9c0-0.7,0-1.4,0-2
			c-0.1-1.3-0.6-2.5-1.5-3.4c-0.8-1-2-1.6-3.2-1.9c-0.6-0.1-1.2-0.1-1.9-0.1l-2.1,0l-8.2,0.1L155.3,27l-16.4,0.1l-32.8,0l-32.8-0.2
			c-2.4,0-4.7,1.7-5.4,4c-0.2,0.6-0.2,1.2-0.2,1.8c0,0.7,0,1.4,0,2c0.1,1.2,0.6,2.4,1.3,3.3c0.8,0.9,1.9,1.6,3.1,1.8
			C72.7,40,73.3,40,74,40l2.1,0l8.2,0l32.8,0.1l32.8,0.1L182.7,40.3z"/>
	</g>
	<g>
		<path class="st1" d="M172.3,138.4l-88.5,0.6c-0.3,0-0.6-0.2-0.6-0.5l0,0l-5.8-22c-0.1-0.4,0.1-0.8,0.5-0.9c0.1,0,0.1,0,0.2,0l0,0
			l49.9-0.3c8.3,0,16.6,0,25,0.1c8.3,0.1,16.6,0.1,25,0.3l0,0c0.3,0,0.6,0.3,0.6,0.6c0,0,0,0.1,0,0.1
			C176.5,123.8,174.3,131.2,172.3,138.4z M172.1,138.2c1.8-7.5,3.4-14.9,5.2-22.1l0.6,0.7c-8.3,0.2-16.6,0.2-25,0.3
			c-8.3,0.1-16.6,0.1-25,0.1L78.1,117l0.7-1l5.6,22.1l-0.6-0.5L172.1,138.2z"/>
	</g>
	<g>
		<path class="st1" d="M106.6,4l13.8,0l13.8-0.1l13.8-0.1c2.3-0.1,4.6,0,6.9,0.4c2.3,0.4,4.5,1.1,6.7,2c2.1,1,4.2,2.1,6,3.5
			c1.8,1.4,3.6,3,5.1,4.8c1.5,1.8,2.8,3.8,3.8,5.9c0.6,1,0.9,2.1,1.4,3.2l0.5,1.7l0.1,0.4l0.1,0.2l0,0.1c-1.2,1.6-0.4,0.5-0.7,0.8
			l-0.1,0l-0.9,0l-27.5,0.1c-18.4,0.1-36.7,0.3-55.1,0.2l-13.8-0.2l-1.7,0l-0.4,0l-0.2,0l-0.1,0l-0.1,0c0.1,0.2-1.5-1.9-0.8-1
			l0.3-0.8c0.2-0.6,0.4-1.1,0.6-1.7l0.7-1.6c1-2.1,2.1-4.2,3.6-6C88.1,8.3,97.3,3.9,106.6,4z M106.6,4.2c-4.6,0.1-9.1,1.2-13.1,3.3
			c-2,1.1-3.9,2.3-5.6,3.9c-0.9,0.7-1.6,1.6-2.4,2.4c-0.7,0.9-1.5,1.7-2.1,2.7c-1.3,1.8-2.4,3.8-3.2,5.9l-0.6,1.6
			c-0.2,0.5-0.3,1.1-0.5,1.6l-0.2,0.8c0.7,0.9-0.9-1.2-0.7-1l0.1,0l0.1,0l0.2,0l0.4,0l1.7,0l13.8-0.2c18.4-0.1,36.7,0.1,55.1,0.2
			l27.5,0.1l0.9,0l0.1,0c-0.3,0.4,0.7-0.8-0.6,0.8l0-0.1l-0.1-0.2l-0.1-0.4l-0.5-1.6c-0.4-1-0.8-2.1-1.3-3.1c-0.9-2-2.2-3.9-3.6-5.7
			c-1.4-1.8-3.1-3.3-4.8-4.7c-1.8-1.4-3.8-2.5-5.8-3.5c-2.1-0.9-4.2-1.6-6.4-2c-2.2-0.4-4.5-0.6-6.8-0.5l-13.8-0.1l-13.8-0.1
			L106.6,4.2z"/>
	</g>
	<g>
		<path class="st1" d="M135.5,194.8l-14.9,0.3c-0.1,0-0.2-0.1-0.3-0.2l0,0L109.6,174c-0.2-0.3,0-0.7,0.3-0.9c0.1,0,0.2-0.1,0.3-0.1
			l0,0l17.8-0.2l8.9-0.1c3,0,5.9,0,8.9,0l0,0c0.5,0,1,0.4,1,1c0,0.2,0,0.3-0.1,0.4c-1.9,3.5-3.7,7.1-5.6,10.5
			C139.3,188.1,137.4,191.5,135.5,194.8z M135.4,194.6c1.6-3.7,3.2-7.3,4.7-10.9c1.6-3.6,3.2-7,4.8-10.5l0.9,1.4c-3,0-5.9,0.1-8.9,0
			l-8.9-0.1l-17.8-0.2l0.6-1l10.1,21.2l-0.3-0.2L135.4,194.6z"/>
	</g>
	<g>
		<path class="st1" d="M89.7,194.8l-14.9,0.3c-0.1,0-0.2-0.1-0.3-0.2l0,0L63.8,174c-0.2-0.3,0-0.7,0.3-0.9c0.1,0,0.2-0.1,0.3-0.1
			l0,0l17.8-0.2l8.9-0.1c3,0,5.9,0,8.9,0l0,0c0.5,0,1,0.4,1,1c0,0.2,0,0.3-0.1,0.4c-1.9,3.5-3.7,7.1-5.6,10.5
			C93.5,188.1,91.6,191.5,89.7,194.8z M89.6,194.6c1.6-3.7,3.2-7.3,4.7-10.9c1.6-3.6,3.2-7,4.8-10.5l0.9,1.4c-3,0-5.9,0.1-8.9,0
			l-8.9-0.1l-17.8-0.2l0.6-1l10.1,21.2l-0.3-0.2L89.6,194.6z"/>
	</g>
	<g>
		<path class="st1" d="M181.3,194.8l-14.9,0.3c-0.1,0-0.2-0.1-0.3-0.2l0,0L155.3,174c-0.2-0.3,0-0.7,0.3-0.9c0.1,0,0.2-0.1,0.3-0.1
			l0,0l17.8-0.2l8.9-0.1c3,0,5.9,0,8.9,0l0,0c0.5,0,1,0.4,1,1c0,0.2,0,0.3-0.1,0.4c-1.9,3.5-3.7,7.1-5.6,10.5
			C185,188.1,183.2,191.5,181.3,194.8z M181.2,194.6c1.6-3.7,3.2-7.3,4.7-10.9c1.6-3.6,3.2-7,4.8-10.5l0.9,1.4c-3,0-5.9,0.1-8.9,0
			l-8.9-0.1l-17.8-0.2l0.6-1l10.1,21.2l-0.3-0.2L181.2,194.6z"/>
	</g>
	<g>
		<rect x="120.4" y="156.9" class="st4" width="15.2" height="10.3"/>
		<path class="st1" d="M135.9,167.4l-7.7,0.1c-2.6,0.1-5.2,0-7.8,0.1c-0.3,0-0.5-0.2-0.6-0.5l0,0l0,0l-0.2-10.3
			c0-0.4,0.3-0.8,0.8-0.8l0,0c2.5-0.1,5.1-0.1,7.6-0.1l3.8,0c1.3,0,2.5,0,3.8,0.1l0.1,0c0.5,0,0.8,0.4,0.8,0.9
			C136.3,160.5,136.1,164.1,135.9,167.4z M135.3,166.9l-0.6-10l0.9,0.9c-1.3,0.1-2.5,0.1-3.8,0.1l-3.8,0c-2.5,0-5.1-0.1-7.6-0.1
			l0.8-0.8l-0.2,10.3l-0.6-0.6c2.5,0.1,4.9,0.1,7.4,0.1L135.3,166.9z"/>
	</g>
	<g>
		<rect x="166.2" y="156.9" class="st4" width="15.2" height="10.3"/>
		<path class="st1" d="M181.6,167.4l-7.7,0.1c-2.6,0.1-5.2,0-7.8,0.1c-0.3,0-0.5-0.2-0.6-0.5l0,0l0,0l-0.2-10.3
			c0-0.4,0.3-0.8,0.8-0.8l0,0c2.5-0.1,5.1-0.1,7.6-0.1l3.8,0c1.3,0,2.5,0,3.8,0.1l0.1,0c0.5,0,0.8,0.4,0.8,0.9
			C182.1,160.5,181.8,164.1,181.6,167.4z M181.1,166.9l-0.6-10l0.9,0.9c-1.3,0.1-2.5,0.1-3.8,0.1l-3.8,0c-2.5,0-5.1-0.1-7.6-0.1
			l0.8-0.8l-0.2,10.3l-0.6-0.6c2.5,0.1,4.9,0.1,7.4,0.1L181.1,166.9z"/>
	</g>
	<g>
		<path class="st1" d="M214.6,236.2l-173.2,0.5c-0.3,0-0.6-0.3-0.6-0.6v0l-0.2-87.3c0-0.4,0.4-0.8,0.8-0.8l0,0l43.3-0.2l43.3,0
			l43.3,0l43.3,0.2l0,0c0.5,0,0.8,0.4,0.8,0.8c0,14.6-0.2,29.3-0.3,43.8L214.6,236.2z M214.5,236.1l-0.4-43.8
			c-0.1-14.5-0.3-29-0.3-43.4l0.8,0.8l-43.3,0.2l-43.3,0l-43.3,0l-43.3-0.2l0.8-0.8L42,236.1l-0.6-0.6L214.5,236.1z"/>
	</g>
	<g>
		<path class="st1" d="M203.6,236.2l-151.2,0.6c-0.3,0-0.6-0.3-0.6-0.6v0l-0.2-62.5c0-0.4,0.4-0.8,0.8-0.8l0,0
			c12.6-0.1,25.2-0.2,37.8-0.2l37.8,0l37.8,0.1l37.8,0.2l0,0c0.4,0,0.8,0.3,0.8,0.8l0,0l-0.3,31.4L203.6,236.2z M203.5,236.1
			l-0.4-31.4l-0.3-31l0.8,0.8l-37.8,0.2l-37.8,0.1l-37.8,0c-12.6,0-25.2-0.1-37.8-0.2l0.8-0.8L53,236.1l-0.6-0.6L203.5,236.1z"/>
	</g>
	<g>
		<path class="st1" d="M41.4,243.6l43.3-0.4l43.3-0.3c14.4-0.1,28.9-0.3,43.3-0.2c14.4,0.2,28.9,0.3,43.3,0.9c0.1,0,0.1,0,0.1,0.1
			c0,0.1,0,0.1-0.1,0.1c-14.4,0.6-28.9,0.7-43.3,0.9c-14.4,0.1-28.9-0.1-43.3-0.2l-43.3-0.3l-43.3-0.4
			C41.4,243.8,41.3,243.8,41.4,243.6C41.3,243.7,41.4,243.6,41.4,243.6z"/>
	</g>
	<g>
		<polygon class="st4" points="137.5,236.1 118.5,236.1 110.5,203.9 146,203.9 		"/>
		<g>
			<path class="st1" d="M137.6,236.2l-19.1,0.3c-0.2,0-0.3-0.1-0.3-0.3l0,0l-8.4-32.1c-0.1-0.4,0.1-0.8,0.5-0.9c0.1,0,0.1,0,0.2,0
				l0,0l17.7-0.2c5.9-0.1,11.8-0.2,17.7-0.1l0,0c0.6,0,1,0.5,1,1c0,0.1,0,0.2,0,0.2c-0.7,2.7-1.5,5.4-2.3,8.2l-2.3,8.1l-2.4,8
				L137.6,236.2z M137.4,236l1.8-8.3l1.9-8.1l1.9-8c0.6-2.7,1.3-5.3,2-7.9l1,1.3c-5.9,0.1-11.8,0-17.7-0.1l-17.7-0.2l0.7-0.9
				l7.6,32.3l-0.3-0.3L137.4,236z"/>
		</g>
	</g>
</g>
</svg>
